MFile 1 7 960 
MTrk    
0 Tempo 100000  
TrkEnd    
MTrk    
0 PrCh ch=6 p=53 
0 Meta TrkName "ATAC" 
10845 On ch=6 n=57 v=127
11115 Off ch=6 n=57 v=0
51285 On ch=6 n=57 v=127
51408 Off ch=6 n=57 v=0
88926 On ch=6 n=57 v=127
89944 Off ch=6 n=57 v=0
90057 On ch=6 n=57 v=127
90494 Off ch=6 n=57 v=0
91798 On ch=6 n=57 v=127
92620 Off ch=6 n=57 v=0
92740 On ch=6 n=57 v=127
93778 Off ch=6 n=57 v=0
170883 On ch=6 n=57 v=127
171592 Off ch=6 n=57 v=0
227086 On ch=6 n=57 v=127
227767 Off ch=6 n=57 v=0
279553 On ch=6 n=57 v=127
280219 Off ch=6 n=57 v=0
280491 On ch=6 n=57 v=127
281031 Off ch=6 n=57 v=0
283164 On ch=6 n=57 v=127
283562 Off ch=6 n=57 v=0
284085 On ch=6 n=57 v=127
284520 Off ch=6 n=57 v=0
284683 On ch=6 n=57 v=127
285134 Off ch=6 n=57 v=0
285938 On ch=6 n=57 v=127
287098 Off ch=6 n=57 v=0
288842 On ch=6 n=57 v=127
289111 Off ch=6 n=57 v=0
289331 On ch=6 n=57 v=127
289769 Off ch=6 n=57 v=0
290137 On ch=6 n=57 v=127
290666 Off ch=6 n=57 v=0
295502 On ch=6 n=57 v=127
297478 Off ch=6 n=57 v=0
297931 On ch=6 n=57 v=127
299229 Off ch=6 n=57 v=0
309089 On ch=6 n=57 v=127
309264 Off ch=6 n=57 v=0
309475 On ch=6 n=57 v=127
309640 Off ch=6 n=57 v=0
345970 On ch=6 n=57 v=127
347012 Off ch=6 n=57 v=0
361334 On ch=6 n=57 v=127
362262 Off ch=6 n=57 v=0
362432 On ch=6 n=57 v=127
362898 Off ch=6 n=57 v=0
382511 On ch=6 n=57 v=127
384049 Off ch=6 n=57 v=0
405345 On ch=6 n=57 v=127
406355 Off ch=6 n=57 v=0
409409 On ch=6 n=57 v=127
409755 Off ch=6 n=57 v=0
409904 On ch=6 n=57 v=127
410267 Off ch=6 n=57 v=0
410954 On ch=6 n=57 v=127
411230 Off ch=6 n=57 v=0
412678 On ch=6 n=57 v=127
413232 Off ch=6 n=57 v=0
413839 On ch=6 n=57 v=127
414336 Off ch=6 n=57 v=0
414491 On ch=6 n=57 v=127
418172 Off ch=6 n=57 v=0
424147 On ch=6 n=57 v=127
424519 Off ch=6 n=57 v=0
425084 On ch=6 n=57 v=127
425897 Off ch=6 n=57 v=0
426076 On ch=6 n=57 v=127
426836 Off ch=6 n=57 v=0
429315 On ch=6 n=57 v=127
429906 Off ch=6 n=57 v=0
431176 On ch=6 n=57 v=127
431403 Off ch=6 n=57 v=0
431688 On ch=6 n=57 v=127
431879 Off ch=6 n=57 v=0
432609 On ch=6 n=57 v=127
432926 Off ch=6 n=57 v=0
433453 On ch=6 n=57 v=127
433832 Off ch=6 n=57 v=0
497528 On ch=6 n=57 v=127
498052 Off ch=6 n=57 v=0
498838 On ch=6 n=57 v=127
499064 Off ch=6 n=57 v=0
516709 On ch=6 n=57 v=127
516855 Off ch=6 n=57 v=0
517277 On ch=6 n=57 v=127
517420 Off ch=6 n=57 v=0
564990 On ch=6 n=57 v=127
565143 Off ch=6 n=57 v=0
566528 On ch=6 n=57 v=127
566964 Off ch=6 n=57 v=0
586288 On ch=6 n=57 v=127
588622 Off ch=6 n=57 v=0
590856 On ch=6 n=57 v=127
593213 Off ch=6 n=57 v=0
593362 On ch=6 n=57 v=127
594985 Off ch=6 n=57 v=0
596175 On ch=6 n=57 v=127
598525 Off ch=6 n=57 v=0
598713 On ch=6 n=57 v=127
600274 Off ch=6 n=57 v=0
627771 On ch=6 n=57 v=127
628648 Off ch=6 n=57 v=0
671675 On ch=6 n=57 v=127
672599 Off ch=6 n=57 v=0
689567 On ch=6 n=57 v=127
689789 Off ch=6 n=57 v=0
TrkEnd    
MTrk    
0 PrCh ch=5 p=53 
0 Meta TrkName "GENE" 
156445 On ch=5 n=50 v=127
165923 Off ch=5 n=50 v=0
255108 On ch=5 n=50 v=127
606079 Off ch=5 n=50 v=0
TrkEnd    
MTrk    
0 PrCh ch=1 p=43 
0 Meta TrkName "LINE" 
14009 On ch=1 n=16 v=100
14089 Off ch=1 n=16 v=0
14229 On ch=1 n=15 v=100
14403 Off ch=1 n=15 v=0
14681 On ch=1 n=8 v=100
14914 Off ch=1 n=8 v=0
23571 On ch=1 n=3 v=100
23636 Off ch=1 n=3 v=0
30966 On ch=1 n=3 v=100
36368 Off ch=1 n=3 v=0
36448 On ch=1 n=3 v=100
36547 Off ch=1 n=3 v=0
40060 On ch=1 n=1 v=100
41340 Off ch=1 n=1 v=0
41793 On ch=1 n=1 v=100
42794 Off ch=1 n=1 v=0
51359 On ch=1 n=47 v=100
51480 Off ch=1 n=47 v=0
52566 On ch=1 n=60 v=100
52629 On ch=1 n=38 v=100
52678 Off ch=1 n=60 v=0
52680 Off ch=1 n=38 v=0
53769 On ch=1 n=60 v=100
53832 On ch=1 n=38 v=100
53881 Off ch=1 n=60 v=0
53883 Off ch=1 n=38 v=0
54973 On ch=1 n=60 v=100
55036 On ch=1 n=35 v=100
55085 Off ch=1 n=60 v=0
55087 Off ch=1 n=35 v=0
56177 On ch=1 n=60 v=100
56240 On ch=1 n=38 v=100
56289 Off ch=1 n=60 v=0
56291 Off ch=1 n=38 v=0
57375 On ch=1 n=63 v=100
57494 Off ch=1 n=63 v=0
58572 On ch=1 n=47 v=100
58693 Off ch=1 n=47 v=0
59785 On ch=1 n=60 v=100
59848 On ch=1 n=38 v=100
59897 Off ch=1 n=60 v=0
59899 Off ch=1 n=38 v=0
60989 On ch=1 n=60 v=100
61052 On ch=1 n=35 v=100
61101 Off ch=1 n=60 v=0
61103 Off ch=1 n=35 v=0
62180 On ch=1 n=60 v=100
62304 Off ch=1 n=60 v=0
69494 On ch=1 n=41 v=100
69575 Off ch=1 n=41 v=0
73634 On ch=1 n=26 v=100
73717 Off ch=1 n=26 v=0
74229 On ch=1 n=7 v=100
74489 Off ch=1 n=7 v=0
75260 On ch=1 n=7 v=100
75520 Off ch=1 n=7 v=0
76282 On ch=1 n=7 v=100
76542 Off ch=1 n=7 v=0
76708 On ch=1 n=26 v=100
76792 Off ch=1 n=26 v=0
77304 On ch=1 n=3 v=100
77522 Off ch=1 n=3 v=0
95740 On ch=1 n=32 v=100
96173 On ch=1 n=49 v=100
96490 On ch=1 n=6 v=100
96490 Off ch=1 n=32 v=0
96531 Off ch=1 n=49 v=0
96629 Off ch=1 n=6 v=0
96642 On ch=1 n=27 v=100
97256 Off ch=1 n=27 v=0
97767 On ch=1 n=38 v=100
98976 Off ch=1 n=38 v=0
99816 On ch=1 n=43 v=100
100160 On ch=1 n=37 v=100
101476 Off ch=1 n=43 v=0
101479 Off ch=1 n=37 v=0
101811 On ch=1 n=7 v=100
102024 On ch=1 n=6 v=100
102024 Off ch=1 n=7 v=0
102787 Off ch=1 n=6 v=0
103277 On ch=1 n=13 v=100
104025 Off ch=1 n=13 v=0
118155 On ch=1 n=28 v=100
118457 Off ch=1 n=28 v=0
119152 On ch=1 n=10 v=100
119583 Off ch=1 n=10 v=0
120630 On ch=1 n=8 v=100
120925 Off ch=1 n=8 v=0
124970 On ch=1 n=13 v=100
125079 Off ch=1 n=13 v=0
125167 On ch=1 n=41 v=100
125355 Off ch=1 n=41 v=0
128690 On ch=1 n=15 v=100
128785 Off ch=1 n=15 v=0
129011 On ch=1 n=11 v=100
129104 Off ch=1 n=11 v=0
129387 On ch=1 n=32 v=100
129457 Off ch=1 n=32 v=0
129762 On ch=1 n=24 v=100
129823 Off ch=1 n=24 v=0
135843 On ch=1 n=15 v=100
135911 Off ch=1 n=15 v=0
138926 On ch=1 n=5 v=100
140473 Off ch=1 n=5 v=0
151724 On ch=1 n=5 v=100
152037 On ch=1 n=6 v=100
152037 Off ch=1 n=5 v=0
152068 Off ch=1 n=6 v=0
153121 On ch=1 n=5 v=100
153763 Off ch=1 n=5 v=0
156217 On ch=1 n=9 v=100
156364 Off ch=1 n=9 v=0
156589 On ch=1 n=15 v=100
156841 Off ch=1 n=15 v=0
162983 On ch=1 n=30 v=100
163049 Off ch=1 n=30 v=0
163421 On ch=1 n=11 v=100
163520 Off ch=1 n=11 v=0
163969 On ch=1 n=10 v=100
164511 Off ch=1 n=10 v=0
164915 On ch=1 n=32 v=100
164998 Off ch=1 n=32 v=0
165951 On ch=1 n=23 v=100
166061 On ch=1 n=8 v=100
166066 Off ch=1 n=23 v=0
166306 On ch=1 n=5 v=100
166312 Off ch=1 n=8 v=0
166426 Off ch=1 n=5 v=0
167904 On ch=1 n=48 v=100
167926 On ch=1 n=56 v=100
168454 Off ch=1 n=56 v=0
168670 Off ch=1 n=48 v=0
168955 On ch=1 n=35 v=100
168971 On ch=1 n=41 v=100
168974 On ch=1 n=47 v=100
168980 On ch=1 n=48 v=100
169046 Off ch=1 n=35 v=0
169095 Off ch=1 n=41 v=0
169155 Off ch=1 n=47 v=0
169196 Off ch=1 n=48 v=0
170530 On ch=1 n=13 v=100
170611 Off ch=1 n=13 v=0
172111 On ch=1 n=17 v=100
172573 Off ch=1 n=17 v=0
173493 On ch=1 n=16 v=100
174075 On ch=1 n=18 v=100
174083 Off ch=1 n=16 v=0
174145 Off ch=1 n=18 v=0
174374 On ch=1 n=2 v=100
176555 Off ch=1 n=2 v=0
178981 On ch=1 n=9 v=100
179877 Off ch=1 n=9 v=0
180768 On ch=1 n=20 v=100
180969 Off ch=1 n=20 v=0
181029 On ch=1 n=11 v=100
181245 Off ch=1 n=11 v=0
181603 On ch=1 n=7 v=100
182585 Off ch=1 n=7 v=0
183444 On ch=1 n=20 v=100
183607 Off ch=1 n=20 v=0
191916 On ch=1 n=21 v=100
191963 Off ch=1 n=21 v=0
193811 On ch=1 n=12 v=100
193916 Off ch=1 n=12 v=0
198770 On ch=1 n=10 v=100
198866 On ch=1 n=11 v=100
198890 Off ch=1 n=10 v=0
199130 Off ch=1 n=11 v=0
199137 On ch=1 n=17 v=100
199233 Off ch=1 n=17 v=0
199285 On ch=1 n=32 v=100
199450 Off ch=1 n=32 v=0
211831 On ch=1 n=13 v=100
211904 Off ch=1 n=13 v=0
214142 On ch=1 n=27 v=100
214281 Off ch=1 n=27 v=0
214494 On ch=1 n=12 v=100
214608 Off ch=1 n=12 v=0
215109 On ch=1 n=23 v=100
215245 Off ch=1 n=23 v=0
215529 On ch=1 n=5 v=100
215585 Off ch=1 n=5 v=0
215814 On ch=1 n=6 v=100
215874 Off ch=1 n=6 v=0
218774 On ch=1 n=2 v=100
218814 Off ch=1 n=2 v=0
221589 On ch=1 n=11 v=100
221660 Off ch=1 n=11 v=0
222477 On ch=1 n=17 v=100
222543 Off ch=1 n=17 v=0
222586 On ch=1 n=10 v=100
222668 Off ch=1 n=10 v=0
223509 On ch=1 n=36 v=100
223592 Off ch=1 n=36 v=0
223597 On ch=1 n=7 v=100
223871 On ch=1 n=45 v=100
223872 Off ch=1 n=7 v=0
225482 Off ch=1 n=45 v=0
226421 On ch=1 n=31 v=100
226466 Off ch=1 n=31 v=0
228718 On ch=1 n=3 v=100
233067 Off ch=1 n=3 v=0
247210 On ch=1 n=6 v=100
247470 Off ch=1 n=6 v=0
255031 On ch=1 n=4 v=100
255080 Off ch=1 n=4 v=0
263916 On ch=1 n=4 v=100
264236 Off ch=1 n=4 v=0
308444 On ch=1 n=6 v=100
309063 Off ch=1 n=6 v=0
317285 On ch=1 n=29 v=100
317352 Off ch=1 n=29 v=0
317667 On ch=1 n=39 v=100
317746 Off ch=1 n=39 v=0
318561 On ch=1 n=19 v=100
318690 Off ch=1 n=19 v=0
319273 On ch=1 n=34 v=100
319357 Off ch=1 n=34 v=0
337627 On ch=1 n=38 v=100
337691 Off ch=1 n=38 v=0
342833 On ch=1 n=8 v=100
342986 Off ch=1 n=8 v=0
342987 On ch=1 n=10 v=100
343160 On ch=1 n=5 v=100
343160 Off ch=1 n=10 v=0
343360 Off ch=1 n=5 v=0
359658 On ch=1 n=9 v=100
359711 Off ch=1 n=9 v=0
368394 On ch=1 n=41 v=100
368431 On ch=1 n=39 v=100
368627 Off ch=1 n=41 v=0
368769 Off ch=1 n=39 v=0
370161 On ch=1 n=2 v=100
372774 Off ch=1 n=2 v=0
386086 On ch=1 n=43 v=100
386661 Off ch=1 n=43 v=0
462288 On ch=1 n=13 v=100
462805 Off ch=1 n=13 v=0
462815 On ch=1 n=8 v=100
462912 Off ch=1 n=8 v=0
503922 On ch=1 n=2 v=100
505069 On ch=1 n=7 v=100
505070 Off ch=1 n=2 v=0
505175 Off ch=1 n=7 v=0
505176 On ch=1 n=13 v=100
505394 Off ch=1 n=13 v=0
508136 On ch=1 n=42 v=100
508609 Off ch=1 n=42 v=0
510252 On ch=1 n=46 v=100
510583 Off ch=1 n=46 v=0
512183 On ch=1 n=48 v=100
514787 Off ch=1 n=48 v=0
514923 On ch=1 n=48 v=100
515396 Off ch=1 n=48 v=0
535803 On ch=1 n=8 v=100
537322 On ch=1 n=6 v=100
537322 Off ch=1 n=8 v=0
539026 Off ch=1 n=6 v=0
561704 On ch=1 n=23 v=100
561771 Off ch=1 n=23 v=0
563708 On ch=1 n=8 v=100
563846 On ch=1 n=17 v=100
563846 Off ch=1 n=8 v=0
563902 Off ch=1 n=17 v=0
563915 On ch=1 n=11 v=100
564085 On ch=1 n=8 v=100
564116 Off ch=1 n=11 v=0
564221 Off ch=1 n=8 v=0
564222 On ch=1 n=6 v=100
564504 On ch=1 n=13 v=100
564517 Off ch=1 n=6 v=0
564708 Off ch=1 n=13 v=0
564720 On ch=1 n=10 v=100
565155 On ch=1 n=11 v=100
565160 Off ch=1 n=10 v=0
565339 Off ch=1 n=11 v=0
565352 On ch=1 n=7 v=100
565781 On ch=1 n=10 v=100
565869 Off ch=1 n=7 v=0
565967 Off ch=1 n=10 v=0
565978 On ch=1 n=9 v=100
566404 On ch=1 n=14 v=100
566466 Off ch=1 n=9 v=0
566606 Off ch=1 n=14 v=0
566618 On ch=1 n=8 v=100
567040 On ch=1 n=12 v=100
567058 Off ch=1 n=8 v=0
567236 Off ch=1 n=12 v=0
567248 On ch=1 n=7 v=100
567670 On ch=1 n=11 v=100
567744 Off ch=1 n=7 v=0
567874 Off ch=1 n=11 v=0
567886 On ch=1 n=8 v=100
568226 Off ch=1 n=8 v=0
568759 On ch=1 n=4 v=100
568803 Off ch=1 n=4 v=0
571023 On ch=1 n=2 v=100
576539 Off ch=1 n=2 v=0
576626 On ch=1 n=21 v=100
576872 On ch=1 n=1 v=100
577250 Off ch=1 n=21 v=0
582417 Off ch=1 n=1 v=0
604133 On ch=1 n=6 v=100
604197 Off ch=1 n=6 v=0
605315 On ch=1 n=4 v=100
605629 Off ch=1 n=4 v=0
609165 On ch=1 n=3 v=100
609877 On ch=1 n=3 v=100
609879 Off ch=1 n=3 v=0
611059 Off ch=1 n=3 v=0
611085 On ch=1 n=6 v=100
611861 On ch=1 n=10 v=100
611866 Off ch=1 n=6 v=0
612047 Off ch=1 n=10 v=0
612954 On ch=1 n=37 v=100
613038 Off ch=1 n=37 v=0
618525 On ch=1 n=6 v=100
618646 On ch=1 n=51 v=100
618931 On ch=1 n=6 v=100
618936 Off ch=1 n=6 v=0
619404 Off ch=1 n=51 v=0
619405 Off ch=1 n=6 v=0
619409 On ch=1 n=12 v=100
620249 Off ch=1 n=12 v=0
620564 On ch=1 n=12 v=100
620608 On ch=1 n=51 v=100
620643 Off ch=1 n=12 v=0
620654 On ch=1 n=10 v=100
620683 On ch=1 n=59 v=100
620932 On ch=1 n=41 v=100
621025 Off ch=1 n=51 v=0
621028 Off ch=1 n=10 v=0
621124 Off ch=1 n=59 v=0
621154 Off ch=1 n=41 v=0
621429 On ch=1 n=10 v=100
621595 Off ch=1 n=10 v=0
621721 On ch=1 n=11 v=100
621982 Off ch=1 n=11 v=0
623801 On ch=1 n=5 v=100
626126 Off ch=1 n=5 v=0
626550 On ch=1 n=16 v=100
626658 Off ch=1 n=16 v=0
629106 On ch=1 n=13 v=100
629777 On ch=1 n=6 v=100
629777 Off ch=1 n=13 v=0
629847 Off ch=1 n=6 v=0
634376 On ch=1 n=13 v=100
634668 Off ch=1 n=13 v=0
636664 On ch=1 n=12 v=100
636793 Off ch=1 n=12 v=0
638856 On ch=1 n=31 v=100
639019 Off ch=1 n=31 v=0
645004 On ch=1 n=71 v=100
645218 Off ch=1 n=71 v=0
651206 On ch=1 n=43 v=100
651368 Off ch=1 n=43 v=0
655066 On ch=1 n=56 v=100
655066 On ch=1 n=56 v=100
655161 On ch=1 n=6 v=100
655301 Off ch=1 n=6 v=0
655744 Off ch=1 n=56 v=0
655744 Off ch=1 n=56 v=0
663372 On ch=1 n=13 v=100
663450 Off ch=1 n=13 v=0
TrkEnd    
MTrk    
0 PrCh ch=2 p=40 
0 Meta TrkName "SINE" 
4398 On ch=2 n=2 v=100
4988 Off ch=2 n=2 v=0
180004 On ch=2 n=46 v=100
180080 Off ch=2 n=46 v=0
180183 On ch=2 n=45 v=100
180261 Off ch=2 n=45 v=0
180608 On ch=2 n=18 v=100
180766 Off ch=2 n=18 v=0
183284 On ch=2 n=18 v=100
183442 Off ch=2 n=18 v=0
228067 On ch=2 n=51 v=100
228160 Off ch=2 n=51 v=0
337287 On ch=2 n=23 v=100
337350 Off ch=2 n=23 v=0
343704 On ch=2 n=6 v=100
344070 Off ch=2 n=6 v=0
616991 On ch=2 n=25 v=100
617193 Off ch=2 n=25 v=0
688402 On ch=2 n=4 v=100
688695 Off ch=2 n=4 v=0
688698 On ch=2 n=1 v=100
688783 Off ch=2 n=1 v=0
TrkEnd    
MTrk    
0 PrCh ch=3 p=42 
0 Meta TrkName "DNA" 
416 On ch=3 n=34 v=100
450 On ch=3 n=9 v=100
451 On ch=3 n=32 v=100
586 Off ch=3 n=34 v=0
586 Off ch=3 n=9 v=0
625 Off ch=3 n=32 v=0
722 On ch=3 n=4 v=100
1001 Off ch=3 n=4 v=0
1069 On ch=3 n=4 v=100
1572 Off ch=3 n=4 v=0
1625 On ch=3 n=35 v=100
1665 On ch=3 n=6 v=100
1808 Off ch=3 n=35 v=0
2135 On ch=3 n=7 v=100
2136 Off ch=3 n=6 v=0
2794 Off ch=3 n=7 v=0
4067 On ch=3 n=6 v=100
4312 Off ch=3 n=6 v=0
5711 On ch=3 n=13 v=100
5975 On ch=3 n=18 v=100
6002 Off ch=3 n=13 v=0
6004 On ch=3 n=7 v=100
6015 Off ch=3 n=18 v=0
6805 Off ch=3 n=7 v=0
6861 On ch=3 n=14 v=100
7080 On ch=3 n=28 v=100
7163 Off ch=3 n=14 v=0
7186 Off ch=3 n=28 v=0
7480 On ch=3 n=20 v=100
7783 On ch=3 n=17 v=100
7793 Off ch=3 n=20 v=0
7939 Off ch=3 n=17 v=0
8021 On ch=3 n=38 v=100
8149 Off ch=3 n=38 v=0
9192 On ch=3 n=43 v=100
9596 Off ch=3 n=43 v=0
11766 On ch=3 n=9 v=100
12642 Off ch=3 n=9 v=0
12933 On ch=3 n=11 v=100
13001 Off ch=3 n=11 v=0
13029 On ch=3 n=11 v=100
13029 On ch=3 n=22 v=100
13168 Off ch=3 n=11 v=0
13221 Off ch=3 n=22 v=0
13270 On ch=3 n=11 v=100
13343 Off ch=3 n=11 v=0
13345 On ch=3 n=8 v=100
13891 Off ch=3 n=8 v=0
13899 On ch=3 n=5 v=100
13899 On ch=3 n=23 v=100
14007 Off ch=3 n=5 v=0
14041 Off ch=3 n=23 v=0
14290 On ch=3 n=21 v=100
14376 On ch=3 n=21 v=100
14376 On ch=3 n=21 v=100
14402 On ch=3 n=7 v=100
14681 Off ch=3 n=21 v=0
14690 Off ch=3 n=7 v=0
14701 Off ch=3 n=21 v=0
14701 Off ch=3 n=21 v=0
15489 On ch=3 n=30 v=100
15589 Off ch=3 n=30 v=0
16573 On ch=3 n=22 v=100
16667 Off ch=3 n=22 v=0
16673 On ch=3 n=9 v=100
17296 Off ch=3 n=9 v=0
17340 On ch=3 n=19 v=100
17447 Off ch=3 n=19 v=0
17586 On ch=3 n=18 v=100
17677 Off ch=3 n=18 v=0
17706 On ch=3 n=4 v=100
18263 On ch=3 n=5 v=100
18283 Off ch=3 n=4 v=0
18450 Off ch=3 n=5 v=0
19422 On ch=3 n=11 v=100
19584 On ch=3 n=10 v=100
20246 Off ch=3 n=11 v=0
20246 Off ch=3 n=10 v=0
20271 On ch=3 n=7 v=100
21310 Off ch=3 n=7 v=0
22042 On ch=3 n=10 v=100
22263 On ch=3 n=12 v=100
22263 Off ch=3 n=10 v=0
22509 On ch=3 n=15 v=100
22511 Off ch=3 n=12 v=0
22620 On ch=3 n=18 v=100
22623 Off ch=3 n=15 v=0
22693 Off ch=3 n=18 v=0
23334 On ch=3 n=19 v=100
23361 On ch=3 n=7 v=100
23551 Off ch=3 n=7 v=0
23558 Off ch=3 n=19 v=0
24080 On ch=3 n=22 v=100
24141 Off ch=3 n=22 v=0
24740 On ch=3 n=8 v=100
24898 On ch=3 n=11 v=100
24959 Off ch=3 n=8 v=0
25405 On ch=3 n=39 v=100
25426 On ch=3 n=17 v=100
25448 Off ch=3 n=11 v=0
25449 Off ch=3 n=39 v=0
25449 Off ch=3 n=17 v=0
25516 On ch=3 n=17 v=100
25516 On ch=3 n=39 v=100
25516 On ch=3 n=9 v=100
25560 Off ch=3 n=17 v=0
25585 Off ch=3 n=39 v=0
26143 Off ch=3 n=9 v=0
26578 On ch=3 n=11 v=100
26606 Off ch=3 n=11 v=0
26608 On ch=3 n=8 v=100
26643 Off ch=3 n=8 v=0
26741 On ch=3 n=37 v=100
26797 Off ch=3 n=37 v=0
26904 On ch=3 n=30 v=100
26963 Off ch=3 n=30 v=0
30119 On ch=3 n=24 v=100
30283 Off ch=3 n=24 v=0
30350 On ch=3 n=28 v=100
30350 On ch=3 n=24 v=100
30724 Off ch=3 n=24 v=0
30875 Off ch=3 n=28 v=0
36223 On ch=3 n=43 v=100
36368 Off ch=3 n=43 v=0
36448 On ch=3 n=43 v=100
36572 On ch=3 n=36 v=100
36914 Off ch=3 n=43 v=0
37130 Off ch=3 n=36 v=0
37706 On ch=3 n=25 v=100
37720 On ch=3 n=41 v=100
38052 Off ch=3 n=25 v=0
38055 On ch=3 n=64 v=100
38055 On ch=3 n=64 v=100
38373 Off ch=3 n=41 v=0
38377 On ch=3 n=5 v=100
39090 Off ch=3 n=5 v=0
39091 On ch=3 n=7 v=100
39174 Off ch=3 n=64 v=0
39174 Off ch=3 n=64 v=0
39745 Off ch=3 n=7 v=0
39829 On ch=3 n=5 v=100
40060 Off ch=3 n=5 v=0
51125 On ch=3 n=57 v=100
51198 Off ch=3 n=57 v=0
52307 On ch=3 n=57 v=100
52307 On ch=3 n=52 v=100
52380 Off ch=3 n=57 v=0
52394 Off ch=3 n=52 v=0
58321 On ch=3 n=57 v=100
58321 On ch=3 n=49 v=100
58395 Off ch=3 n=57 v=0
58409 Off ch=3 n=49 v=0
60729 On ch=3 n=57 v=100
60729 On ch=3 n=52 v=100
60802 Off ch=3 n=57 v=0
60816 Off ch=3 n=52 v=0
62387 On ch=3 n=4 v=100
62757 Off ch=3 n=4 v=0
62909 On ch=3 n=4 v=100
63017 Off ch=3 n=4 v=0
65707 On ch=3 n=26 v=100
68393 Off ch=3 n=26 v=0
68573 On ch=3 n=10 v=100
69108 Off ch=3 n=10 v=0
69708 On ch=3 n=5 v=100
73381 Off ch=3 n=5 v=0
88456 On ch=3 n=58 v=100
88624 Off ch=3 n=58 v=0
88657 On ch=3 n=54 v=100
88657 On ch=3 n=54 v=100
88789 Off ch=3 n=54 v=0
88789 Off ch=3 n=54 v=0
88822 On ch=3 n=58 v=100
88857 On ch=3 n=48 v=100
88941 Off ch=3 n=48 v=0
88942 Off ch=3 n=58 v=0
89298 On ch=3 n=55 v=100
89298 On ch=3 n=55 v=100
89417 On ch=3 n=51 v=100
89417 On ch=3 n=51 v=100
89425 Off ch=3 n=55 v=0
89425 Off ch=3 n=55 v=0
89595 Off ch=3 n=51 v=0
89595 Off ch=3 n=51 v=0
89617 On ch=3 n=59 v=100
89744 Off ch=3 n=59 v=0
89934 On ch=3 n=57 v=100
89934 On ch=3 n=57 v=100
90055 On ch=3 n=67 v=100
90060 Off ch=3 n=57 v=0
90060 Off ch=3 n=57 v=0
90215 Off ch=3 n=67 v=0
90255 On ch=3 n=59 v=100
90255 On ch=3 n=59 v=100
90380 Off ch=3 n=59 v=0
90380 Off ch=3 n=59 v=0
90570 On ch=3 n=54 v=100
90570 On ch=3 n=54 v=100
90698 Off ch=3 n=54 v=0
90698 Off ch=3 n=54 v=0
90730 On ch=3 n=66 v=100
90730 On ch=3 n=66 v=100
90865 Off ch=3 n=66 v=0
90865 Off ch=3 n=66 v=0
90910 On ch=3 n=56 v=100
90924 On ch=3 n=45 v=100
91006 On ch=3 n=54 v=100
91010 Off ch=3 n=56 v=0
91017 Off ch=3 n=45 v=0
91160 Off ch=3 n=54 v=0
91207 On ch=3 n=59 v=100
91342 Off ch=3 n=59 v=0
91400 On ch=3 n=44 v=100
91480 Off ch=3 n=44 v=0
91688 On ch=3 n=58 v=100
91798 Off ch=3 n=58 v=0
92002 On ch=3 n=57 v=100
92002 On ch=3 n=57 v=100
92129 Off ch=3 n=57 v=0
92129 Off ch=3 n=57 v=0
92440 On ch=3 n=54 v=100
92440 On ch=3 n=54 v=100
92615 Off ch=3 n=54 v=0
92615 Off ch=3 n=54 v=0
92638 On ch=3 n=58 v=100
92765 Off ch=3 n=58 v=0
92794 On ch=3 n=57 v=100
92830 On ch=3 n=46 v=100
92916 On ch=3 n=58 v=100
92916 On ch=3 n=58 v=100
92916 Off ch=3 n=46 v=0
92923 Off ch=3 n=57 v=0
93093 Off ch=3 n=58 v=0
93093 Off ch=3 n=58 v=0
93274 On ch=3 n=59 v=100
93274 On ch=3 n=59 v=100
93309 On ch=3 n=46 v=100
93393 Off ch=3 n=46 v=0
93394 On ch=3 n=55 v=100
93394 On ch=3 n=55 v=100
93400 Off ch=3 n=59 v=0
93400 Off ch=3 n=59 v=0
93570 Off ch=3 n=55 v=0
93570 Off ch=3 n=55 v=0
94704 On ch=3 n=66 v=100
94824 Off ch=3 n=66 v=0
95078 On ch=3 n=3 v=100
95338 Off ch=3 n=3 v=0
98970 On ch=3 n=10 v=100
99155 On ch=3 n=7 v=100
99155 Off ch=3 n=10 v=0
99415 On ch=3 n=41 v=100
99484 On ch=3 n=38 v=100
99500 Off ch=3 n=7 v=0
99503 On ch=3 n=28 v=100
99503 On ch=3 n=6 v=100
99552 On ch=3 n=5 v=100
99552 On ch=3 n=14 v=100
99553 Off ch=3 n=41 v=0
99553 Off ch=3 n=6 v=0
99576 Off ch=3 n=28 v=0
99577 Off ch=3 n=38 v=0
99613 Off ch=3 n=5 v=0
99615 On ch=3 n=5 v=100
99629 Off ch=3 n=14 v=0
99803 Off ch=3 n=5 v=0
101781 On ch=3 n=62 v=100
101781 On ch=3 n=62 v=100
102079 Off ch=3 n=62 v=0
102079 Off ch=3 n=62 v=0
103024 On ch=3 n=12 v=100
103279 Off ch=3 n=12 v=0
105554 On ch=3 n=45 v=100
105623 On ch=3 n=24 v=100
105752 Off ch=3 n=45 v=0
105762 On ch=3 n=34 v=100
105786 On ch=3 n=26 v=100
105889 Off ch=3 n=34 v=0
105908 Off ch=3 n=26 v=0
105915 Off ch=3 n=24 v=0
105925 On ch=3 n=19 v=100
106161 Off ch=3 n=19 v=0
106786 On ch=3 n=8 v=100
107134 Off ch=3 n=8 v=0
107435 On ch=3 n=27 v=100
107444 On ch=3 n=8 v=100
107957 Off ch=3 n=8 v=0
108072 Off ch=3 n=27 v=0
114481 On ch=3 n=29 v=100
114635 On ch=3 n=12 v=100
114640 Off ch=3 n=29 v=0
115760 Off ch=3 n=12 v=0
115762 On ch=3 n=2 v=100
116995 Off ch=3 n=2 v=0
117013 On ch=3 n=15 v=100
117013 On ch=3 n=34 v=100
117092 Off ch=3 n=15 v=0
117113 Off ch=3 n=34 v=0
118647 On ch=3 n=13 v=100
118676 On ch=3 n=6 v=100
118931 Off ch=3 n=6 v=0
118937 Off ch=3 n=13 v=0
119585 On ch=3 n=5 v=100
120093 On ch=3 n=19 v=100
120095 On ch=3 n=5 v=100
120100 Off ch=3 n=5 v=0
120312 On ch=3 n=7 v=100
120337 Off ch=3 n=5 v=0
120384 Off ch=3 n=19 v=0
120611 Off ch=3 n=7 v=0
120917 On ch=3 n=13 v=100
121165 On ch=3 n=31 v=100
121203 Off ch=3 n=13 v=0
121232 On ch=3 n=13 v=100
121510 Off ch=3 n=31 v=0
122413 On ch=3 n=16 v=100
122421 Off ch=3 n=13 v=0
122588 On ch=3 n=31 v=100
122611 On ch=3 n=8 v=100
122627 Off ch=3 n=16 v=0
122758 Off ch=3 n=31 v=0
122758 Off ch=3 n=8 v=0
122762 On ch=3 n=10 v=100
123310 Off ch=3 n=10 v=0
123330 On ch=3 n=10 v=100
123806 On ch=3 n=12 v=100
123806 On ch=3 n=18 v=100
123810 Off ch=3 n=10 v=0
123866 Off ch=3 n=12 v=0
123883 Off ch=3 n=18 v=0
125323 On ch=3 n=33 v=100
125323 On ch=3 n=33 v=100
125355 On ch=3 n=38 v=100
125380 On ch=3 n=52 v=100
125380 On ch=3 n=52 v=100
125503 Off ch=3 n=33 v=0
125503 Off ch=3 n=33 v=0
125521 On ch=3 n=15 v=100
125566 Off ch=3 n=38 v=0
125692 Off ch=3 n=15 v=0
125901 On ch=3 n=8 v=100
125993 On ch=3 n=19 v=100
126003 Off ch=3 n=52 v=0
126003 Off ch=3 n=52 v=0
126063 Off ch=3 n=8 v=0
126107 Off ch=3 n=19 v=0
126110 On ch=3 n=12 v=100
126274 On ch=3 n=10 v=100
126274 Off ch=3 n=12 v=0
126314 Off ch=3 n=10 v=0
126440 On ch=3 n=22 v=100
126494 Off ch=3 n=22 v=0
126788 On ch=3 n=23 v=100
126817 On ch=3 n=9 v=100
126828 Off ch=3 n=23 v=0
127256 Off ch=3 n=9 v=0
127697 On ch=3 n=18 v=100
127787 Off ch=3 n=18 v=0
130045 On ch=3 n=12 v=100
130561 Off ch=3 n=12 v=0
130669 On ch=3 n=19 v=100
130761 On ch=3 n=19 v=100
130761 On ch=3 n=19 v=100
130774 Off ch=3 n=19 v=0
130777 On ch=3 n=9 v=100
131205 Off ch=3 n=9 v=0
131209 On ch=3 n=17 v=100
131255 Off ch=3 n=19 v=0
131255 Off ch=3 n=19 v=0
131375 On ch=3 n=7 v=100
131400 Off ch=3 n=17 v=0
131512 Off ch=3 n=7 v=0
131515 On ch=3 n=9 v=100
132387 On ch=3 n=0 v=100
132390 Off ch=3 n=9 v=0
132425 Off ch=3 n=0 v=0
132427 On ch=3 n=8 v=100
132709 On ch=3 n=10 v=100
132737 Off ch=3 n=8 v=0
132820 Off ch=3 n=10 v=0
133435 On ch=3 n=27 v=100
133526 On ch=3 n=53 v=100
133566 On ch=3 n=43 v=100
133566 On ch=3 n=43 v=100
133587 Off ch=3 n=27 v=0
133594 On ch=3 n=38 v=100
133614 On ch=3 n=26 v=100
133731 Off ch=3 n=53 v=0
133835 Off ch=3 n=26 v=0
133842 Off ch=3 n=38 v=0
133901 Off ch=3 n=43 v=0
133901 Off ch=3 n=43 v=0
135070 On ch=3 n=24 v=100
135141 Off ch=3 n=24 v=0
135889 On ch=3 n=15 v=100
135912 On ch=3 n=12 v=100
136043 Off ch=3 n=15 v=0
136087 Off ch=3 n=12 v=0
136422 On ch=3 n=6 v=100
137325 Off ch=3 n=6 v=0
137419 On ch=3 n=8 v=100
137638 Off ch=3 n=8 v=0
137652 On ch=3 n=13 v=100
137708 On ch=3 n=7 v=100
137738 On ch=3 n=11 v=100
137739 Off ch=3 n=13 v=0
137940 Off ch=3 n=7 v=0
138075 Off ch=3 n=11 v=0
138112 On ch=3 n=11 v=100
138426 Off ch=3 n=11 v=0
138499 On ch=3 n=8 v=100
138800 Off ch=3 n=8 v=0
141469 On ch=3 n=22 v=100
141545 Off ch=3 n=22 v=0
142033 On ch=3 n=7 v=100
142462 Off ch=3 n=7 v=0
142923 On ch=3 n=12 v=100
143569 Off ch=3 n=12 v=0
143639 On ch=3 n=4 v=100
144470 Off ch=3 n=4 v=0
145018 On ch=3 n=7 v=100
145127 On ch=3 n=26 v=100
145127 On ch=3 n=26 v=100
145132 Off ch=3 n=7 v=0
145242 On ch=3 n=6 v=100
145516 Off ch=3 n=6 v=0
145572 On ch=3 n=41 v=100
145599 Off ch=3 n=26 v=0
145599 Off ch=3 n=26 v=0
145619 On ch=3 n=1 v=100
145716 Off ch=3 n=41 v=0
148046 Off ch=3 n=1 v=0
148163 On ch=3 n=3 v=100
148620 On ch=3 n=16 v=100
148620 On ch=3 n=19 v=100
148620 On ch=3 n=35 v=100
148620 Off ch=3 n=3 v=0
149016 Off ch=3 n=16 v=0
149065 Off ch=3 n=19 v=0
149076 On ch=3 n=10 v=100
149138 Off ch=3 n=35 v=0
149253 On ch=3 n=7 v=100
149259 Off ch=3 n=10 v=0
149635 Off ch=3 n=7 v=0
150045 On ch=3 n=52 v=100
150285 Off ch=3 n=52 v=0
152067 On ch=3 n=2 v=100
152891 Off ch=3 n=2 v=0
152892 On ch=3 n=2 v=100
153123 Off ch=3 n=2 v=0
153759 On ch=3 n=20 v=100
153759 On ch=3 n=15 v=100
154019 Off ch=3 n=15 v=0
154090 On ch=3 n=6 v=100
154093 Off ch=3 n=20 v=0
154718 Off ch=3 n=6 v=0
154723 On ch=3 n=13 v=100
154893 Off ch=3 n=13 v=0
154895 On ch=3 n=4 v=100
156140 On ch=3 n=20 v=100
156157 Off ch=3 n=4 v=0
156218 Off ch=3 n=20 v=0
157219 On ch=3 n=20 v=100
157291 Off ch=3 n=20 v=0
158357 On ch=3 n=32 v=100
158405 On ch=3 n=36 v=100
158422 On ch=3 n=27 v=100
158459 On ch=3 n=42 v=100
158637 Off ch=3 n=32 v=0
158637 Off ch=3 n=27 v=0
158638 On ch=3 n=21 v=100
158657 Off ch=3 n=36 v=0
158699 Off ch=3 n=42 v=0
158809 Off ch=3 n=21 v=0
158814 On ch=3 n=33 v=100
158861 On ch=3 n=29 v=100
158956 On ch=3 n=15 v=100
158988 Off ch=3 n=33 v=0
158990 On ch=3 n=50 v=100
159101 Off ch=3 n=29 v=0
159102 Off ch=3 n=15 v=0
159109 On ch=3 n=7 v=100
159466 Off ch=3 n=50 v=0
160226 Off ch=3 n=7 v=0
160227 On ch=3 n=46 v=100
160357 Off ch=3 n=46 v=0
160648 On ch=3 n=8 v=100
161192 Off ch=3 n=8 v=0
161247 On ch=3 n=11 v=100
161418 On ch=3 n=45 v=100
161519 Off ch=3 n=11 v=0
161531 On ch=3 n=14 v=100
161539 Off ch=3 n=45 v=0
161647 On ch=3 n=17 v=100
161647 On ch=3 n=17 v=100
161694 Off ch=3 n=14 v=0
161698 On ch=3 n=11 v=100
162098 Off ch=3 n=11 v=0
162137 Off ch=3 n=17 v=0
162137 Off ch=3 n=17 v=0
162288 On ch=3 n=13 v=100
162777 Off ch=3 n=13 v=0
163096 On ch=3 n=47 v=100
163096 On ch=3 n=47 v=100
163111 On ch=3 n=23 v=100
163173 On ch=3 n=7 v=100
163213 Off ch=3 n=23 v=0
163307 Off ch=3 n=47 v=0
163307 Off ch=3 n=47 v=0
163419 Off ch=3 n=7 v=0
163518 On ch=3 n=5 v=100
163973 Off ch=3 n=5 v=0
164496 On ch=3 n=18 v=100
164509 On ch=3 n=18 v=100
164549 Off ch=3 n=18 v=0
164564 Off ch=3 n=18 v=0
164598 On ch=3 n=23 v=100
164610 On ch=3 n=20 v=100
164613 On ch=3 n=30 v=100
164620 On ch=3 n=45 v=100
164622 On ch=3 n=20 v=100
164675 Off ch=3 n=20 v=0
164676 Off ch=3 n=20 v=0
164690 Off ch=3 n=23 v=0
164706 Off ch=3 n=30 v=0
164773 Off ch=3 n=45 v=0
165076 On ch=3 n=13 v=100
165140 On ch=3 n=10 v=100
165318 On ch=3 n=23 v=100
165322 Off ch=3 n=13 v=0
165610 Off ch=3 n=10 v=0
165729 Off ch=3 n=23 v=0
166802 On ch=3 n=19 v=100
166847 Off ch=3 n=19 v=0
167187 On ch=3 n=34 v=100
167290 Off ch=3 n=34 v=0
167740 On ch=3 n=38 v=100
167865 Off ch=3 n=38 v=0
168741 On ch=3 n=4 v=100
168972 Off ch=3 n=4 v=0
169309 On ch=3 n=11 v=100
169639 Off ch=3 n=11 v=0
169640 On ch=3 n=8 v=100
170217 Off ch=3 n=8 v=0
170542 On ch=3 n=33 v=100
170686 Off ch=3 n=33 v=0
171661 On ch=3 n=1 v=100
171719 Off ch=3 n=1 v=0
173347 On ch=3 n=16 v=100
173488 Off ch=3 n=16 v=0
177314 On ch=3 n=11 v=100
178178 Off ch=3 n=11 v=0
178773 On ch=3 n=11 v=100
178990 Off ch=3 n=11 v=0
179995 On ch=3 n=63 v=100
180083 Off ch=3 n=63 v=0
180608 On ch=3 n=49 v=100
180968 Off ch=3 n=49 v=0
182820 On ch=3 n=51 v=100
182915 Off ch=3 n=51 v=0
183284 On ch=3 n=47 v=100
183597 Off ch=3 n=47 v=0
184801 On ch=3 n=2 v=100
185033 Off ch=3 n=2 v=0
185162 On ch=3 n=3 v=100
185340 Off ch=3 n=3 v=0
185878 On ch=3 n=2 v=100
186833 On ch=3 n=6 v=100
186854 Off ch=3 n=2 v=0
187089 Off ch=3 n=6 v=0
187740 On ch=3 n=2 v=100
188693 Off ch=3 n=2 v=0
188698 On ch=3 n=1 v=100
188885 Off ch=3 n=1 v=0
189797 On ch=3 n=10 v=100
189948 Off ch=3 n=10 v=0
189974 On ch=3 n=17 v=100
190122 On ch=3 n=6 v=100
190124 Off ch=3 n=17 v=0
190990 On ch=3 n=7 v=100
191004 Off ch=3 n=6 v=0
191957 On ch=3 n=7 v=100
191957 Off ch=3 n=7 v=0
192506 Off ch=3 n=7 v=0
192507 On ch=3 n=11 v=100
192659 Off ch=3 n=11 v=0
193803 On ch=3 n=18 v=100
193933 Off ch=3 n=18 v=0
194191 On ch=3 n=17 v=100
194313 Off ch=3 n=17 v=0
194777 On ch=3 n=27 v=100
194927 Off ch=3 n=27 v=0
195116 On ch=3 n=14 v=100
195181 Off ch=3 n=14 v=0
195184 On ch=3 n=14 v=100
195238 Off ch=3 n=14 v=0
195752 On ch=3 n=17 v=100
195907 On ch=3 n=11 v=100
195969 Off ch=3 n=17 v=0
196384 On ch=3 n=13 v=100
196385 Off ch=3 n=11 v=0
196459 On ch=3 n=19 v=100
196459 On ch=3 n=19 v=100
196509 Off ch=3 n=13 v=0
196554 On ch=3 n=11 v=100
196819 Off ch=3 n=11 v=0
196822 On ch=3 n=17 v=100
196831 Off ch=3 n=19 v=0
196831 Off ch=3 n=19 v=0
196926 Off ch=3 n=17 v=0
197029 On ch=3 n=24 v=100
197177 On ch=3 n=10 v=100
197541 Off ch=3 n=24 v=0
197541 Off ch=3 n=10 v=0
198144 On ch=3 n=20 v=100
198205 On ch=3 n=7 v=100
198481 Off ch=3 n=20 v=0
198487 Off ch=3 n=7 v=0
199419 On ch=3 n=30 v=100
199447 On ch=3 n=29 v=100
199456 On ch=3 n=41 v=100
199460 On ch=3 n=38 v=100
199464 On ch=3 n=22 v=100
199498 Off ch=3 n=30 v=0
199560 Off ch=3 n=29 v=0
199562 Off ch=3 n=22 v=0
199595 Off ch=3 n=38 v=0
199733 Off ch=3 n=41 v=0
200382 On ch=3 n=29 v=100
200496 Off ch=3 n=29 v=0
203840 On ch=3 n=49 v=100
204441 Off ch=3 n=49 v=0
204688 On ch=3 n=3 v=100
205428 Off ch=3 n=3 v=0
205962 On ch=3 n=20 v=100
205971 On ch=3 n=34 v=100
206138 On ch=3 n=1 v=100
206197 Off ch=3 n=20 v=0
206296 Off ch=3 n=34 v=0
208037 On ch=3 n=14 v=100
208037 On ch=3 n=14 v=100
208057 On ch=3 n=11 v=100
208072 Off ch=3 n=1 v=0
208351 On ch=3 n=0 v=100
208355 Off ch=3 n=11 v=0
208378 Off ch=3 n=14 v=0
208378 Off ch=3 n=14 v=0
209340 On ch=3 n=49 v=100
209340 Off ch=3 n=0 v=0
209936 Off ch=3 n=49 v=0
210404 On ch=3 n=25 v=100
210446 On ch=3 n=12 v=100
210567 Off ch=3 n=25 v=0
210678 On ch=3 n=18 v=100
210678 On ch=3 n=18 v=100
210700 Off ch=3 n=12 v=0
210706 On ch=3 n=15 v=100
210895 Off ch=3 n=15 v=0
210916 Off ch=3 n=18 v=0
210916 Off ch=3 n=18 v=0
211451 On ch=3 n=25 v=100
211496 Off ch=3 n=25 v=0
211550 On ch=3 n=36 v=100
211558 On ch=3 n=18 v=100
211746 Off ch=3 n=18 v=0
211873 Off ch=3 n=36 v=0
211923 On ch=3 n=8 v=100
212368 Off ch=3 n=8 v=0
213172 On ch=3 n=18 v=100
213263 Off ch=3 n=18 v=0
213974 On ch=3 n=11 v=100
214020 Off ch=3 n=11 v=0
214976 On ch=3 n=16 v=100
215012 On ch=3 n=13 v=100
215025 Off ch=3 n=16 v=0
215124 On ch=3 n=25 v=100
215140 Off ch=3 n=13 v=0
215210 On ch=3 n=10 v=100
215528 Off ch=3 n=25 v=0
215528 Off ch=3 n=10 v=0
215817 On ch=3 n=48 v=100
215868 On ch=3 n=20 v=100
215869 On ch=3 n=6 v=100
216154 Off ch=3 n=48 v=0
216166 Off ch=3 n=6 v=0
216237 Off ch=3 n=20 v=0
216908 On ch=3 n=14 v=100
216941 On ch=3 n=26 v=100
216952 Off ch=3 n=14 v=0
216958 On ch=3 n=20 v=100
216970 On ch=3 n=13 v=100
217066 Off ch=3 n=20 v=0
217068 Off ch=3 n=26 v=0
217612 Off ch=3 n=13 v=0
217652 On ch=3 n=30 v=100
217714 Off ch=3 n=30 v=0
217863 On ch=3 n=22 v=100
217956 Off ch=3 n=22 v=0
217963 On ch=3 n=7 v=100
218383 Off ch=3 n=7 v=0
218385 On ch=3 n=21 v=100
218593 Off ch=3 n=21 v=0
218604 On ch=3 n=20 v=100
218605 On ch=3 n=27 v=100
218680 Off ch=3 n=20 v=0
218706 Off ch=3 n=27 v=0
219048 On ch=3 n=7 v=100
219221 Off ch=3 n=7 v=0
219389 On ch=3 n=13 v=100
219524 Off ch=3 n=13 v=0
219587 On ch=3 n=27 v=100
219631 Off ch=3 n=27 v=0
219712 On ch=3 n=24 v=100
219801 On ch=3 n=26 v=100
219841 On ch=3 n=30 v=100
219857 On ch=3 n=42 v=100
219857 On ch=3 n=42 v=100
219867 Off ch=3 n=24 v=0
219897 On ch=3 n=19 v=100
219981 Off ch=3 n=19 v=0
219982 Off ch=3 n=26 v=0
219982 Off ch=3 n=30 v=0
220095 Off ch=3 n=42 v=0
220095 Off ch=3 n=42 v=0
221392 On ch=3 n=18 v=100
221463 Off ch=3 n=18 v=0
222668 On ch=3 n=5 v=100
222673 On ch=3 n=21 v=100
222775 Off ch=3 n=5 v=0
222778 On ch=3 n=15 v=100
222866 Off ch=3 n=21 v=0
223168 Off ch=3 n=15 v=0
233604 On ch=3 n=30 v=100
233650 On ch=3 n=13 v=100
233754 Off ch=3 n=30 v=0
234273 Off ch=3 n=13 v=0
234291 On ch=3 n=6 v=100
235536 On ch=3 n=8 v=100
235545 Off ch=3 n=6 v=0
235934 On ch=3 n=15 v=100
235946 Off ch=3 n=8 v=0
235948 On ch=3 n=5 v=100
236018 Off ch=3 n=15 v=0
237036 Off ch=3 n=5 v=0
237120 On ch=3 n=9 v=100
237120 On ch=3 n=5 v=100
237141 Off ch=3 n=5 v=0
237476 On ch=3 n=4 v=100
237482 Off ch=3 n=9 v=0
238379 Off ch=3 n=4 v=0
238383 On ch=3 n=9 v=100
239112 Off ch=3 n=9 v=0
239114 On ch=3 n=5 v=100
239218 On ch=3 n=5 v=100
239219 Off ch=3 n=5 v=0
239426 Off ch=3 n=5 v=0
239678 On ch=3 n=14 v=100
239755 Off ch=3 n=14 v=0
239758 On ch=3 n=11 v=100
239858 Off ch=3 n=11 v=0
240618 On ch=3 n=24 v=100
240661 On ch=3 n=7 v=100
240686 Off ch=3 n=24 v=0
241659 On ch=3 n=42 v=100
241659 On ch=3 n=42 v=100
241789 Off ch=3 n=7 v=0
241794 On ch=3 n=19 v=100
241964 Off ch=3 n=19 v=0
241986 Off ch=3 n=42 v=0
241986 Off ch=3 n=42 v=0
242726 On ch=3 n=20 v=100
242887 Off ch=3 n=20 v=0
243489 On ch=3 n=5 v=100
243685 Off ch=3 n=5 v=0
245221 On ch=3 n=5 v=100
246447 Off ch=3 n=5 v=0
246449 On ch=3 n=23 v=100
246468 On ch=3 n=8 v=100
246563 Off ch=3 n=23 v=0
246567 Off ch=3 n=8 v=0
247895 On ch=3 n=2 v=100
248960 Off ch=3 n=2 v=0
248963 On ch=3 n=1 v=100
250042 Off ch=3 n=1 v=0
250485 On ch=3 n=2 v=100
251487 On ch=3 n=28 v=100
251566 Off ch=3 n=2 v=0
251581 Off ch=3 n=28 v=0
251594 On ch=3 n=6 v=100
252112 Off ch=3 n=6 v=0
252552 On ch=3 n=10 v=100
252753 On ch=3 n=5 v=100
252755 Off ch=3 n=10 v=0
252928 Off ch=3 n=5 v=0
254059 On ch=3 n=26 v=100
254305 On ch=3 n=23 v=100
254478 Off ch=3 n=26 v=0
254503 Off ch=3 n=23 v=0
254505 On ch=3 n=11 v=100
254567 Off ch=3 n=11 v=0
254583 On ch=3 n=12 v=100
255031 Off ch=3 n=12 v=0
255645 On ch=3 n=23 v=100
255657 On ch=3 n=14 v=100
255710 On ch=3 n=33 v=100
255727 On ch=3 n=5 v=100
255734 Off ch=3 n=14 v=0
255735 Off ch=3 n=23 v=0
255810 Off ch=3 n=33 v=0
256805 Off ch=3 n=5 v=0
256806 On ch=3 n=6 v=100
256828 On ch=3 n=10 v=100
257606 Off ch=3 n=6 v=0
257716 On ch=3 n=34 v=100
257752 On ch=3 n=38 v=100
257783 On ch=3 n=12 v=100
257794 Off ch=3 n=10 v=0
257855 Off ch=3 n=34 v=0
257855 Off ch=3 n=12 v=0
257856 On ch=3 n=40 v=100
257864 Off ch=3 n=38 v=0
257919 Off ch=3 n=40 v=0
258178 On ch=3 n=6 v=100
259425 On ch=3 n=17 v=100
259515 Off ch=3 n=6 v=0
259540 Off ch=3 n=17 v=0
259665 On ch=3 n=48 v=100
259667 On ch=3 n=19 v=100
259742 Off ch=3 n=19 v=0
259813 Off ch=3 n=48 v=0
259854 On ch=3 n=29 v=100
260070 On ch=3 n=10 v=100
260070 On ch=3 n=12 v=100
260182 Off ch=3 n=29 v=0
260443 Off ch=3 n=10 v=0
260657 Off ch=3 n=12 v=0
260680 On ch=3 n=11 v=100
260886 On ch=3 n=13 v=100
260886 Off ch=3 n=11 v=0
261008 On ch=3 n=13 v=100
261058 Off ch=3 n=13 v=0
261154 Off ch=3 n=13 v=0
261352 On ch=3 n=8 v=100
262071 Off ch=3 n=8 v=0
262293 On ch=3 n=20 v=100
262312 On ch=3 n=20 v=100
262334 On ch=3 n=10 v=100
262468 On ch=3 n=34 v=100
262468 Off ch=3 n=20 v=0
262468 Off ch=3 n=10 v=0
262470 Off ch=3 n=20 v=0
262617 Off ch=3 n=34 v=0
262623 On ch=3 n=19 v=100
262738 On ch=3 n=47 v=100
262738 On ch=3 n=47 v=100
262759 Off ch=3 n=19 v=0
262777 On ch=3 n=28 v=100
262888 Off ch=3 n=28 v=0
262889 On ch=3 n=43 v=100
263002 Off ch=3 n=47 v=0
263002 Off ch=3 n=47 v=0
263031 Off ch=3 n=43 v=0
264235 On ch=3 n=27 v=100
264346 Off ch=3 n=27 v=0
264397 On ch=3 n=15 v=100
264493 On ch=3 n=6 v=100
264503 Off ch=3 n=15 v=0
264869 Off ch=3 n=6 v=0
264994 On ch=3 n=7 v=100
265503 Off ch=3 n=7 v=0
273105 On ch=3 n=8 v=100
273875 Off ch=3 n=8 v=0
273937 On ch=3 n=21 v=100
274022 Off ch=3 n=21 v=0
274024 On ch=3 n=8 v=100
274186 Off ch=3 n=8 v=0
274191 On ch=3 n=19 v=100
274208 On ch=3 n=13 v=100
274335 Off ch=3 n=19 v=0
274583 Off ch=3 n=13 v=0
274600 On ch=3 n=6 v=100
274845 Off ch=3 n=6 v=0
275114 On ch=3 n=27 v=100
275185 Off ch=3 n=27 v=0
275426 On ch=3 n=25 v=100
275478 Off ch=3 n=25 v=0
276191 On ch=3 n=33 v=100
276374 Off ch=3 n=33 v=0
277030 On ch=3 n=54 v=100
277288 Off ch=3 n=54 v=0
278320 On ch=3 n=27 v=100
278465 Off ch=3 n=27 v=0
278792 On ch=3 n=10 v=100
279229 Off ch=3 n=10 v=0
291027 On ch=3 n=2 v=100
291812 Off ch=3 n=2 v=0
291847 On ch=3 n=2 v=100
292345 Off ch=3 n=2 v=0
292377 On ch=3 n=2 v=100
296151 On ch=3 n=8 v=100
296237 Off ch=3 n=2 v=0
296770 On ch=3 n=9 v=100
296860 Off ch=3 n=8 v=0
297434 On ch=3 n=2 v=100
297449 Off ch=3 n=9 v=0
297828 On ch=3 n=47 v=100
297839 On ch=3 n=3 v=100
297856 Off ch=3 n=2 v=0
297961 On ch=3 n=2 v=100
298188 Off ch=3 n=3 v=0
298362 On ch=3 n=38 v=100
298611 On ch=3 n=2 v=100
298681 Off ch=3 n=2 v=0
298695 Off ch=3 n=47 v=0
299463 Off ch=3 n=38 v=0
299607 Off ch=3 n=2 v=0
301666 On ch=3 n=38 v=100
301725 On ch=3 n=13 v=100
301745 On ch=3 n=7 v=100
301754 Off ch=3 n=38 v=0
301755 Off ch=3 n=13 v=0
302601 Off ch=3 n=7 v=0
305218 On ch=3 n=6 v=100
305508 Off ch=3 n=6 v=0
305741 On ch=3 n=5 v=100
306379 On ch=3 n=40 v=100
306523 Off ch=3 n=5 v=0
306556 Off ch=3 n=40 v=0
308071 On ch=3 n=29 v=100
308082 On ch=3 n=6 v=100
308156 Off ch=3 n=29 v=0
308414 Off ch=3 n=6 v=0
308415 On ch=3 n=13 v=100
308455 Off ch=3 n=13 v=0
309061 On ch=3 n=10 v=100
309100 Off ch=3 n=10 v=0
313506 On ch=3 n=5 v=100
314219 On ch=3 n=6 v=100
314221 Off ch=3 n=5 v=0
314340 Off ch=3 n=6 v=0
314383 On ch=3 n=24 v=100
314462 Off ch=3 n=24 v=0
314494 On ch=3 n=57 v=100
314521 On ch=3 n=5 v=100
314577 On ch=3 n=24 v=100
314617 Off ch=3 n=57 v=0
314659 On ch=3 n=13 v=100
314682 Off ch=3 n=5 v=0
314812 On ch=3 n=21 v=100
314929 Off ch=3 n=13 v=0
314931 Off ch=3 n=24 v=0
314958 Off ch=3 n=21 v=0
314993 On ch=3 n=3 v=100
315404 On ch=3 n=6 v=100
315404 On ch=3 n=9 v=100
315858 Off ch=3 n=3 v=0
316734 Off ch=3 n=6 v=0
316929 Off ch=3 n=9 v=0
316985 On ch=3 n=1 v=100
317129 Off ch=3 n=1 v=0
317956 On ch=3 n=5 v=100
317956 On ch=3 n=8 v=100
318120 Off ch=3 n=5 v=0
318146 On ch=3 n=9 v=100
318186 Off ch=3 n=8 v=0
318398 Off ch=3 n=9 v=0
318689 On ch=3 n=8 v=100
318877 Off ch=3 n=8 v=0
319908 On ch=3 n=18 v=100
319976 On ch=3 n=25 v=100
319988 Off ch=3 n=18 v=0
319994 On ch=3 n=9 v=100
320141 Off ch=3 n=25 v=0
320487 Off ch=3 n=9 v=0
325120 On ch=3 n=6 v=100
327989 Off ch=3 n=6 v=0
329410 On ch=3 n=14 v=100
329561 On ch=3 n=26 v=100
329571 On ch=3 n=9 v=100
329572 Off ch=3 n=14 v=0
329755 Off ch=3 n=9 v=0
329764 On ch=3 n=12 v=100
329812 Off ch=3 n=26 v=0
330097 Off ch=3 n=12 v=0
330341 On ch=3 n=19 v=100
330431 On ch=3 n=22 v=100
330488 Off ch=3 n=19 v=0
330495 Off ch=3 n=22 v=0
331444 On ch=3 n=11 v=100
331540 Off ch=3 n=11 v=0
331545 On ch=3 n=12 v=100
331624 Off ch=3 n=12 v=0
331931 On ch=3 n=20 v=100
332086 On ch=3 n=4 v=100
332089 Off ch=3 n=20 v=0
332252 Off ch=3 n=4 v=0
332254 On ch=3 n=6 v=100
333444 Off ch=3 n=6 v=0
333572 On ch=3 n=26 v=100
333704 Off ch=3 n=26 v=0
333741 On ch=3 n=9 v=100
334555 On ch=3 n=8 v=100
334557 Off ch=3 n=9 v=0
334719 Off ch=3 n=8 v=0
334866 On ch=3 n=17 v=100
334947 On ch=3 n=25 v=100
334953 Off ch=3 n=17 v=0
335132 Off ch=3 n=25 v=0
335134 On ch=3 n=17 v=100
335247 Off ch=3 n=17 v=0
335260 On ch=3 n=12 v=100
335416 Off ch=3 n=12 v=0
335623 On ch=3 n=11 v=100
335875 Off ch=3 n=11 v=0
336053 On ch=3 n=44 v=100
336230 Off ch=3 n=44 v=0
338379 On ch=3 n=4 v=100
339053 Off ch=3 n=4 v=0
339084 On ch=3 n=6 v=100
339424 On ch=3 n=12 v=100
339424 Off ch=3 n=6 v=0
339535 Off ch=3 n=12 v=0
339539 On ch=3 n=10 v=100
339604 Off ch=3 n=10 v=0
339610 On ch=3 n=22 v=100
340668 Off ch=3 n=22 v=0
340669 On ch=3 n=9 v=100
340915 Off ch=3 n=9 v=0
342948 On ch=3 n=31 v=100
343076 Off ch=3 n=31 v=0
343365 On ch=3 n=28 v=100
343443 On ch=3 n=49 v=100
343459 Off ch=3 n=28 v=0
343498 On ch=3 n=24 v=100
343696 Off ch=3 n=49 v=0
343699 Off ch=3 n=24 v=0
344170 On ch=3 n=25 v=100
344220 On ch=3 n=26 v=100
344225 On ch=3 n=60 v=100
344227 On ch=3 n=21 v=100
344306 On ch=3 n=33 v=100
344384 Off ch=3 n=25 v=0
344387 Off ch=3 n=21 v=0
344415 Off ch=3 n=26 v=0
344462 Off ch=3 n=60 v=0
344468 Off ch=3 n=33 v=0
347171 On ch=3 n=10 v=100
347677 On ch=3 n=21 v=100
347718 On ch=3 n=12 v=100
347732 Off ch=3 n=10 v=0
347924 Off ch=3 n=21 v=0
348175 On ch=3 n=13 v=100
348186 Off ch=3 n=12 v=0
348461 Off ch=3 n=13 v=0
349134 On ch=3 n=5 v=100
351987 Off ch=3 n=5 v=0
352901 On ch=3 n=38 v=100
352990 On ch=3 n=45 v=100
353071 Off ch=3 n=38 v=0
353176 Off ch=3 n=45 v=0
353213 On ch=3 n=45 v=100
353417 Off ch=3 n=45 v=0
353469 On ch=3 n=45 v=100
353501 Off ch=3 n=45 v=0
353546 On ch=3 n=45 v=100
353665 Off ch=3 n=45 v=0
354196 On ch=3 n=37 v=100
354451 On ch=3 n=35 v=100
354565 Off ch=3 n=37 v=0
354570 On ch=3 n=0 v=100
354583 Off ch=3 n=35 v=0
354890 On ch=3 n=17 v=100
354890 On ch=3 n=17 v=100
354893 Off ch=3 n=0 v=0
355409 On ch=3 n=22 v=100
355409 On ch=3 n=22 v=100
355569 Off ch=3 n=17 v=0
355569 Off ch=3 n=17 v=0
356760 Off ch=3 n=22 v=0
356760 Off ch=3 n=22 v=0
357044 On ch=3 n=7 v=100
357690 Off ch=3 n=7 v=0
357691 On ch=3 n=5 v=100
358714 Off ch=3 n=5 v=0
358715 On ch=3 n=6 v=100
358716 On ch=3 n=25 v=100
359070 On ch=3 n=43 v=100
359144 Off ch=3 n=6 v=0
359195 Off ch=3 n=25 v=0
359461 Off ch=3 n=43 v=0
359692 On ch=3 n=21 v=100
359692 On ch=3 n=21 v=100
359708 On ch=3 n=13 v=100
359821 Off ch=3 n=13 v=0
359833 On ch=3 n=4 v=100
359857 Off ch=3 n=21 v=0
359857 Off ch=3 n=21 v=0
360067 Off ch=3 n=4 v=0
360167 On ch=3 n=5 v=100
360225 On ch=3 n=1 v=100
360227 Off ch=3 n=5 v=0
360723 On ch=3 n=3 v=100
360742 Off ch=3 n=1 v=0
361076 On ch=3 n=3 v=100
361180 On ch=3 n=4 v=100
361197 Off ch=3 n=3 v=0
361381 On ch=3 n=3 v=100
361468 On ch=3 n=4 v=100
361513 Off ch=3 n=3 v=0
361684 On ch=3 n=3 v=100
361690 Off ch=3 n=4 v=0
361818 Off ch=3 n=3 v=0
361988 On ch=3 n=2 v=100
362048 Off ch=3 n=4 v=0
362083 On ch=3 n=3 v=100
362167 Off ch=3 n=3 v=0
362414 On ch=3 n=3 v=100
362476 Off ch=3 n=2 v=0
362531 Off ch=3 n=3 v=0
363229 Off ch=3 n=3 v=0
363231 On ch=3 n=27 v=100
363358 Off ch=3 n=27 v=0
363491 On ch=3 n=22 v=100
363678 Off ch=3 n=22 v=0
363763 On ch=3 n=19 v=100
363778 On ch=3 n=21 v=100
363856 Off ch=3 n=21 v=0
363862 Off ch=3 n=19 v=0
363923 On ch=3 n=7 v=100
364719 On ch=3 n=5 v=100
364720 Off ch=3 n=7 v=0
365303 On ch=3 n=7 v=100
365467 Off ch=3 n=5 v=0
365668 Off ch=3 n=7 v=0
365685 On ch=3 n=28 v=100
366416 Off ch=3 n=28 v=0
367573 On ch=3 n=19 v=100
367629 Off ch=3 n=19 v=0
368109 On ch=3 n=9 v=100
368224 Off ch=3 n=9 v=0
368320 On ch=3 n=24 v=100
368438 Off ch=3 n=24 v=0
368825 On ch=3 n=8 v=100
369099 On ch=3 n=20 v=100
369215 Off ch=3 n=8 v=0
369239 Off ch=3 n=20 v=0
369524 On ch=3 n=5 v=100
369747 On ch=3 n=12 v=100
369779 Off ch=3 n=5 v=0
369789 On ch=3 n=5 v=100
370107 Off ch=3 n=12 v=0
370107 Off ch=3 n=5 v=0
370116 On ch=3 n=2 v=100
370162 Off ch=3 n=2 v=0
372772 On ch=3 n=8 v=100
372836 On ch=3 n=5 v=100
372842 Off ch=3 n=8 v=0
373451 Off ch=3 n=5 v=0
373452 On ch=3 n=12 v=100
373808 On ch=3 n=33 v=100
373822 On ch=3 n=16 v=100
373915 Off ch=3 n=12 v=0
373917 On ch=3 n=2 v=100
373935 Off ch=3 n=33 v=0
373939 Off ch=3 n=16 v=0
374075 On ch=3 n=42 v=100
374140 Off ch=3 n=2 v=0
374143 On ch=3 n=6 v=100
374257 Off ch=3 n=42 v=0
374296 On ch=3 n=6 v=100
374296 Off ch=3 n=6 v=0
375614 On ch=3 n=8 v=100
375620 Off ch=3 n=6 v=0
378034 On ch=3 n=18 v=100
378055 On ch=3 n=12 v=100
378058 Off ch=3 n=8 v=0
378107 Off ch=3 n=18 v=0
378107 Off ch=3 n=12 v=0
378151 On ch=3 n=18 v=100
378151 On ch=3 n=12 v=100
378267 Off ch=3 n=18 v=0
378296 On ch=3 n=34 v=100
378525 Off ch=3 n=12 v=0
378769 On ch=3 n=16 v=100
378769 On ch=3 n=22 v=100
379086 Off ch=3 n=34 v=0
379167 Off ch=3 n=16 v=0
379227 Off ch=3 n=22 v=0
380400 On ch=3 n=4 v=100
382536 On ch=3 n=1 v=100
382540 Off ch=3 n=4 v=0
383235 On ch=3 n=19 v=100
383283 Off ch=3 n=1 v=0
383298 On ch=3 n=2 v=100
383425 Off ch=3 n=19 v=0
384068 Off ch=3 n=2 v=0
384070 On ch=3 n=3 v=100
385146 Off ch=3 n=3 v=0
385624 On ch=3 n=9 v=100
386089 Off ch=3 n=9 v=0
387328 On ch=3 n=18 v=100
387365 On ch=3 n=4 v=100
387650 Off ch=3 n=18 v=0
387654 Off ch=3 n=4 v=0
387793 On ch=3 n=22 v=100
387793 On ch=3 n=8 v=100
388027 On ch=3 n=5 v=100
388027 Off ch=3 n=8 v=0
388076 Off ch=3 n=22 v=0
388116 Off ch=3 n=5 v=0
388151 On ch=3 n=5 v=100
389768 Off ch=3 n=5 v=0
389794 On ch=3 n=3 v=100
390663 Off ch=3 n=3 v=0
391953 On ch=3 n=3 v=100
392184 On ch=3 n=22 v=100
392184 Off ch=3 n=3 v=0
392265 Off ch=3 n=22 v=0
392958 On ch=3 n=49 v=100
393045 Off ch=3 n=49 v=0
393900 On ch=3 n=50 v=100
394168 On ch=3 n=42 v=100
394439 Off ch=3 n=50 v=0
394450 Off ch=3 n=42 v=0
394708 On ch=3 n=3 v=100
394861 On ch=3 n=1 v=100
394861 Off ch=3 n=3 v=0
397000 On ch=3 n=5 v=100
397004 Off ch=3 n=1 v=0
397288 Off ch=3 n=5 v=0
397800 On ch=3 n=17 v=100
397900 On ch=3 n=23 v=100
397903 Off ch=3 n=17 v=0
398120 Off ch=3 n=23 v=0
398161 On ch=3 n=23 v=100
398464 Off ch=3 n=23 v=0
398573 On ch=3 n=9 v=100
399484 On ch=3 n=6 v=100
399485 Off ch=3 n=9 v=0
400973 Off ch=3 n=6 v=0
400982 On ch=3 n=11 v=100
401177 Off ch=3 n=11 v=0
401179 On ch=3 n=8 v=100
401535 On ch=3 n=6 v=100
401536 Off ch=3 n=8 v=0
402717 Off ch=3 n=6 v=0
404529 On ch=3 n=2 v=100
404651 On ch=3 n=29 v=100
404716 Off ch=3 n=2 v=0
405286 Off ch=3 n=29 v=0
405320 On ch=3 n=5 v=100
405355 Off ch=3 n=5 v=0
435770 On ch=3 n=8 v=100
436010 On ch=3 n=19 v=100
436016 Off ch=3 n=8 v=0
436542 Off ch=3 n=19 v=0
436577 On ch=3 n=4 v=100
437052 On ch=3 n=6 v=100
437055 Off ch=3 n=4 v=0
437442 On ch=3 n=38 v=100
437498 On ch=3 n=11 v=100
437501 Off ch=3 n=6 v=0
437509 Off ch=3 n=38 v=0
438599 Off ch=3 n=11 v=0
438945 On ch=3 n=8 v=100
439021 Off ch=3 n=8 v=0
439023 On ch=3 n=7 v=100
440249 Off ch=3 n=7 v=0
445086 On ch=3 n=2 v=100
445805 On ch=3 n=20 v=100
445814 On ch=3 n=22 v=100
445821 On ch=3 n=10 v=100
445838 Off ch=3 n=2 v=0
446159 On ch=3 n=5 v=100
446167 Off ch=3 n=10 v=0
446253 Off ch=3 n=20 v=0
446329 Off ch=3 n=22 v=0
446854 Off ch=3 n=5 v=0
446906 On ch=3 n=5 v=100
447054 On ch=3 n=22 v=100
447078 Off ch=3 n=5 v=0
447107 On ch=3 n=22 v=100
447137 On ch=3 n=33 v=100
447137 On ch=3 n=33 v=100
447164 On ch=3 n=16 v=100
447195 On ch=3 n=23 v=100
447204 On ch=3 n=15 v=100
447473 Off ch=3 n=22 v=0
447514 Off ch=3 n=16 v=0
447516 Off ch=3 n=22 v=0
447584 Off ch=3 n=33 v=0
447584 Off ch=3 n=33 v=0
447595 Off ch=3 n=15 v=0
447646 Off ch=3 n=23 v=0
449431 On ch=3 n=22 v=100
449508 On ch=3 n=56 v=100
449538 Off ch=3 n=22 v=0
449548 On ch=3 n=28 v=100
449548 On ch=3 n=28 v=100
449575 On ch=3 n=33 v=100
449575 On ch=3 n=33 v=100
449580 On ch=3 n=26 v=100
449719 Off ch=3 n=56 v=0
449876 Off ch=3 n=26 v=0
449879 Off ch=3 n=28 v=0
449879 Off ch=3 n=28 v=0
449952 Off ch=3 n=33 v=0
449952 Off ch=3 n=33 v=0
450129 On ch=3 n=10 v=100
450434 On ch=3 n=18 v=100
450448 Off ch=3 n=10 v=0
450537 On ch=3 n=6 v=100
450540 Off ch=3 n=18 v=0
450932 Off ch=3 n=6 v=0
450965 On ch=3 n=39 v=100
451159 On ch=3 n=3 v=100
451218 Off ch=3 n=39 v=0
452894 Off ch=3 n=3 v=0
452955 On ch=3 n=3 v=100
453473 Off ch=3 n=3 v=0
454711 On ch=3 n=25 v=100
454837 Off ch=3 n=25 v=0
455880 On ch=3 n=28 v=100
456013 Off ch=3 n=28 v=0
456029 On ch=3 n=22 v=100
456031 On ch=3 n=14 v=100
456170 Off ch=3 n=14 v=0
456185 Off ch=3 n=22 v=0
456233 On ch=3 n=17 v=100
456501 Off ch=3 n=17 v=0
457337 On ch=3 n=36 v=100
457413 On ch=3 n=26 v=100
457631 Off ch=3 n=36 v=0
457635 Off ch=3 n=26 v=0
457833 On ch=3 n=6 v=100
458203 On ch=3 n=22 v=100
458221 Off ch=3 n=6 v=0
458237 On ch=3 n=17 v=100
458265 On ch=3 n=34 v=100
458346 Off ch=3 n=17 v=0
458347 Off ch=3 n=22 v=0
458397 On ch=3 n=16 v=100
458518 Off ch=3 n=34 v=0
458521 Off ch=3 n=16 v=0
459199 On ch=3 n=22 v=100
459272 Off ch=3 n=22 v=0
460432 On ch=3 n=35 v=100
460450 On ch=3 n=36 v=100
460590 Off ch=3 n=35 v=0
460628 On ch=3 n=23 v=100
460756 Off ch=3 n=36 v=0
460960 On ch=3 n=16 v=100
461022 Off ch=3 n=23 v=0
461031 On ch=3 n=21 v=100
461404 Off ch=3 n=16 v=0
461699 Off ch=3 n=21 v=0
462153 On ch=3 n=30 v=100
462328 Off ch=3 n=30 v=0
462921 On ch=3 n=20 v=100
463015 Off ch=3 n=20 v=0
468809 On ch=3 n=16 v=100
468862 Off ch=3 n=16 v=0
471411 On ch=3 n=2 v=100
472271 Off ch=3 n=2 v=0
472272 On ch=3 n=5 v=100
473932 On ch=3 n=3 v=100
473933 Off ch=3 n=5 v=0
474173 On ch=3 n=4 v=100
474178 Off ch=3 n=3 v=0
474676 On ch=3 n=5 v=100
474678 Off ch=3 n=4 v=0
475596 Off ch=3 n=5 v=0
476125 On ch=3 n=24 v=100
476150 On ch=3 n=6 v=100
476218 Off ch=3 n=24 v=0
476256 Off ch=3 n=6 v=0
476258 On ch=3 n=6 v=100
476713 Off ch=3 n=6 v=0
476714 On ch=3 n=10 v=100
476892 On ch=3 n=2 v=100
476896 Off ch=3 n=10 v=0
477028 On ch=3 n=17 v=100
477034 Off ch=3 n=2 v=0
477091 On ch=3 n=2 v=100
477104 Off ch=3 n=17 v=0
477204 Off ch=3 n=2 v=0
477223 On ch=3 n=55 v=100
477477 On ch=3 n=40 v=100
477539 Off ch=3 n=55 v=0
477792 Off ch=3 n=40 v=0
478287 On ch=3 n=25 v=100
478426 Off ch=3 n=25 v=0
478940 On ch=3 n=15 v=100
479313 Off ch=3 n=15 v=0
479649 On ch=3 n=14 v=100
480666 Off ch=3 n=14 v=0
480689 On ch=3 n=10 v=100
480857 On ch=3 n=35 v=100
480946 Off ch=3 n=10 v=0
481252 On ch=3 n=16 v=100
481367 On ch=3 n=14 v=100
481694 Off ch=3 n=14 v=0
481697 Off ch=3 n=35 v=0
481700 On ch=3 n=6 v=100
481715 Off ch=3 n=16 v=0
482636 On ch=3 n=6 v=100
482650 Off ch=3 n=6 v=0
484810 Off ch=3 n=6 v=0
490180 On ch=3 n=5 v=100
490909 Off ch=3 n=5 v=0
491417 On ch=3 n=27 v=100
491488 Off ch=3 n=27 v=0
491604 On ch=3 n=62 v=100
491617 Off ch=3 n=62 v=0
491692 On ch=3 n=44 v=100
491692 On ch=3 n=62 v=100
491760 Off ch=3 n=44 v=0
491798 Off ch=3 n=62 v=0
493281 On ch=3 n=60 v=100
493439 Off ch=3 n=60 v=0
499748 On ch=3 n=35 v=100
499808 On ch=3 n=17 v=100
499828 On ch=3 n=7 v=100
499837 Off ch=3 n=35 v=0
499838 Off ch=3 n=17 v=0
500683 Off ch=3 n=7 v=0
503276 On ch=3 n=5 v=100
503567 Off ch=3 n=5 v=0
506341 On ch=3 n=4 v=100
506358 On ch=3 n=51 v=100
506517 On ch=3 n=6 v=100
506645 Off ch=3 n=4 v=0
507085 Off ch=3 n=51 v=0
507417 Off ch=3 n=6 v=0
508607 On ch=3 n=8 v=100
509198 On ch=3 n=16 v=100
509221 Off ch=3 n=8 v=0
509330 Off ch=3 n=16 v=0
509347 On ch=3 n=6 v=100
510257 Off ch=3 n=6 v=0
510583 On ch=3 n=1 v=100
511509 Off ch=3 n=1 v=0
511558 On ch=3 n=1 v=100
512183 Off ch=3 n=1 v=0
514787 On ch=3 n=37 v=100
514789 On ch=3 n=32 v=100
515053 Off ch=3 n=32 v=0
515172 Off ch=3 n=37 v=0
516014 On ch=3 n=28 v=100
516048 On ch=3 n=41 v=100
516366 Off ch=3 n=28 v=0
516523 On ch=3 n=32 v=100
516645 Off ch=3 n=41 v=0
516665 Off ch=3 n=32 v=0
520974 On ch=3 n=25 v=100
520979 On ch=3 n=37 v=100
521058 On ch=3 n=24 v=100
521263 Off ch=3 n=25 v=0
521362 Off ch=3 n=37 v=0
521362 Off ch=3 n=24 v=0
522350 On ch=3 n=3 v=100
523483 Off ch=3 n=3 v=0
523500 On ch=3 n=48 v=100
523611 Off ch=3 n=48 v=0
524315 On ch=3 n=26 v=100
524424 Off ch=3 n=26 v=0
524492 On ch=3 n=44 v=100
524562 Off ch=3 n=44 v=0
527662 On ch=3 n=5 v=100
527866 Off ch=3 n=5 v=0
527909 On ch=3 n=8 v=100
529418 Off ch=3 n=8 v=0
530185 On ch=3 n=15 v=100
530191 On ch=3 n=5 v=100
530228 Off ch=3 n=15 v=0
531919 Off ch=3 n=5 v=0
533124 On ch=3 n=26 v=100
533272 Off ch=3 n=26 v=0
535474 On ch=3 n=24 v=100
535475 On ch=3 n=29 v=100
535553 Off ch=3 n=24 v=0
535567 Off ch=3 n=29 v=0
535592 On ch=3 n=21 v=100
535751 Off ch=3 n=21 v=0
538944 On ch=3 n=21 v=100
539041 Off ch=3 n=21 v=0
540232 On ch=3 n=8 v=100
540290 Off ch=3 n=8 v=0
542784 On ch=3 n=19 v=100
542883 Off ch=3 n=19 v=0
543100 On ch=3 n=22 v=100
543774 Off ch=3 n=22 v=0
544022 On ch=3 n=23 v=100
544109 Off ch=3 n=23 v=0
544740 On ch=3 n=11 v=100
545712 Off ch=3 n=11 v=0
545717 On ch=3 n=9 v=100
546579 Off ch=3 n=9 v=0
546591 On ch=3 n=28 v=100
546603 On ch=3 n=12 v=100
546751 Off ch=3 n=28 v=0
546751 Off ch=3 n=12 v=0
546879 On ch=3 n=28 v=100
546894 On ch=3 n=23 v=100
546996 On ch=3 n=26 v=100
546997 On ch=3 n=16 v=100
547020 Off ch=3 n=28 v=0
547356 Off ch=3 n=23 v=0
547359 Off ch=3 n=16 v=0
547469 Off ch=3 n=26 v=0
547647 On ch=3 n=5 v=100
549284 Off ch=3 n=5 v=0
550362 On ch=3 n=15 v=100
550429 Off ch=3 n=15 v=0
550481 On ch=3 n=39 v=100
550548 Off ch=3 n=39 v=0
551473 On ch=3 n=18 v=100
551585 On ch=3 n=14 v=100
551949 Off ch=3 n=18 v=0
552094 Off ch=3 n=14 v=0
553185 On ch=3 n=35 v=100
553224 On ch=3 n=18 v=100
553260 Off ch=3 n=18 v=0
553262 Off ch=3 n=35 v=0
553569 On ch=3 n=4 v=100
555219 Off ch=3 n=4 v=0
555286 On ch=3 n=16 v=100
555300 On ch=3 n=21 v=100
555362 Off ch=3 n=16 v=0
555362 Off ch=3 n=21 v=0
555364 On ch=3 n=19 v=100
555629 Off ch=3 n=19 v=0
555630 On ch=3 n=27 v=100
555630 On ch=3 n=35 v=100
555828 Off ch=3 n=27 v=0
555867 Off ch=3 n=35 v=0
557040 On ch=3 n=6 v=100
559392 Off ch=3 n=6 v=0
559395 On ch=3 n=3 v=100
559740 On ch=3 n=38 v=100
559762 Off ch=3 n=3 v=0
560070 Off ch=3 n=38 v=0
560384 On ch=3 n=19 v=100
560534 Off ch=3 n=19 v=0
560817 On ch=3 n=34 v=100
560826 Off ch=3 n=34 v=0
560931 On ch=3 n=34 v=100
561486 Off ch=3 n=34 v=0
561896 On ch=3 n=25 v=100
562158 Off ch=3 n=25 v=0
562253 On ch=3 n=21 v=100
562784 On ch=3 n=5 v=100
562795 Off ch=3 n=21 v=0
563705 Off ch=3 n=5 v=0
568219 On ch=3 n=5 v=100
568761 Off ch=3 n=5 v=0
569312 On ch=3 n=1 v=100
570306 On ch=3 n=1 v=100
570308 Off ch=3 n=1 v=0
570600 Off ch=3 n=1 v=0
583393 On ch=3 n=46 v=100
583394 On ch=3 n=36 v=100
583501 Off ch=3 n=36 v=0
583644 Off ch=3 n=46 v=0
584381 On ch=3 n=34 v=100
584420 On ch=3 n=48 v=100
584421 On ch=3 n=38 v=100
584430 Off ch=3 n=34 v=0
584547 Off ch=3 n=38 v=0
584681 Off ch=3 n=48 v=0
585449 On ch=3 n=38 v=100
585450 On ch=3 n=49 v=100
585557 Off ch=3 n=38 v=0
585706 Off ch=3 n=49 v=0
586476 On ch=3 n=38 v=100
586477 On ch=3 n=49 v=100
586584 Off ch=3 n=38 v=0
586733 Off ch=3 n=49 v=0
587180 On ch=3 n=34 v=100
587219 On ch=3 n=48 v=100
587220 On ch=3 n=37 v=100
587229 Off ch=3 n=34 v=0
587328 Off ch=3 n=37 v=0
587473 Off ch=3 n=48 v=0
587922 On ch=3 n=34 v=100
587961 On ch=3 n=48 v=100
587962 On ch=3 n=37 v=100
587971 Off ch=3 n=34 v=0
588070 Off ch=3 n=37 v=0
588215 Off ch=3 n=48 v=0
588949 On ch=3 n=34 v=100
588988 On ch=3 n=48 v=100
588989 On ch=3 n=38 v=100
588998 Off ch=3 n=34 v=0
589115 Off ch=3 n=38 v=0
589249 Off ch=3 n=48 v=0
590018 On ch=3 n=47 v=100
590019 On ch=3 n=37 v=100
590127 Off ch=3 n=37 v=0
590271 Off ch=3 n=47 v=0
591044 On ch=3 n=38 v=100
591152 Off ch=3 n=38 v=0
591748 On ch=3 n=34 v=100
591788 On ch=3 n=39 v=100
591797 Off ch=3 n=34 v=0
591914 Off ch=3 n=39 v=0
592493 On ch=3 n=34 v=100
592533 On ch=3 n=37 v=100
592542 Off ch=3 n=34 v=0
592641 Off ch=3 n=37 v=0
593558 On ch=3 n=38 v=100
593666 Off ch=3 n=38 v=0
594262 On ch=3 n=34 v=100
594302 On ch=3 n=40 v=100
594311 Off ch=3 n=34 v=0
594442 Off ch=3 n=40 v=0
595340 On ch=3 n=39 v=100
595451 Off ch=3 n=39 v=0
596332 On ch=3 n=34 v=100
596372 On ch=3 n=38 v=100
596381 Off ch=3 n=34 v=0
596498 Off ch=3 n=38 v=0
597077 On ch=3 n=34 v=100
597117 On ch=3 n=38 v=100
597126 Off ch=3 n=34 v=0
597243 Off ch=3 n=38 v=0
597822 On ch=3 n=34 v=100
597862 On ch=3 n=37 v=100
597871 Off ch=3 n=34 v=0
597970 Off ch=3 n=37 v=0
598884 On ch=3 n=39 v=100
598995 Off ch=3 n=39 v=0
599590 On ch=3 n=36 v=100
599631 On ch=3 n=37 v=100
599640 Off ch=3 n=36 v=0
599739 Off ch=3 n=37 v=0
600618 On ch=3 n=34 v=100
600657 On ch=3 n=42 v=100
600658 On ch=3 n=37 v=100
600667 Off ch=3 n=34 v=0
600784 Off ch=3 n=37 v=0
600915 Off ch=3 n=42 v=0
601648 On ch=3 n=34 v=100
601687 On ch=3 n=42 v=100
601688 On ch=3 n=38 v=100
601697 Off ch=3 n=34 v=0
601814 Off ch=3 n=38 v=0
601945 Off ch=3 n=42 v=0
602716 On ch=3 n=40 v=100
602717 On ch=3 n=38 v=100
602825 Off ch=3 n=38 v=0
602827 On ch=3 n=3 v=100
602870 Off ch=3 n=40 v=0
604035 Off ch=3 n=3 v=0
604203 On ch=3 n=35 v=100
604272 On ch=3 n=36 v=100
604273 On ch=3 n=25 v=100
604361 Off ch=3 n=25 v=0
604377 Off ch=3 n=35 v=0
604415 Off ch=3 n=36 v=0
605629 On ch=3 n=25 v=100
605752 Off ch=3 n=25 v=0
605803 On ch=3 n=14 v=100
605899 On ch=3 n=15 v=100
605910 Off ch=3 n=14 v=0
606218 Off ch=3 n=15 v=0
606253 On ch=3 n=15 v=100
606394 Off ch=3 n=15 v=0
606405 On ch=3 n=11 v=100
607050 Off ch=3 n=11 v=0
607614 On ch=3 n=7 v=100
608701 On ch=3 n=23 v=100
608768 On ch=3 n=36 v=100
608769 On ch=3 n=26 v=100
608780 Off ch=3 n=7 v=0
609109 Off ch=3 n=23 v=0
609113 Off ch=3 n=26 v=0
609252 Off ch=3 n=36 v=0
612374 On ch=3 n=20 v=100
612418 Off ch=3 n=20 v=0
612419 On ch=3 n=7 v=100
612562 On ch=3 n=20 v=100
612608 On ch=3 n=9 v=100
612612 Off ch=3 n=7 v=0
612894 Off ch=3 n=20 v=0
612917 Off ch=3 n=9 v=0
613224 On ch=3 n=5 v=100
613233 On ch=3 n=32 v=100
613331 Off ch=3 n=5 v=0
613342 On ch=3 n=8 v=100
613353 On ch=3 n=41 v=100
613454 Off ch=3 n=8 v=0
613455 On ch=3 n=13 v=100
613455 Off ch=3 n=32 v=0
613637 Off ch=3 n=41 v=0
614069 On ch=3 n=7 v=100
614081 Off ch=3 n=13 v=0
615349 On ch=3 n=6 v=100
615352 On ch=3 n=28 v=100
615354 Off ch=3 n=7 v=0
615518 Off ch=3 n=6 v=0
615620 Off ch=3 n=28 v=0
615904 On ch=3 n=8 v=100
615970 On ch=3 n=22 v=100
615987 Off ch=3 n=8 v=0
615989 On ch=3 n=8 v=100
616134 Off ch=3 n=22 v=0
616640 Off ch=3 n=8 v=0
616700 On ch=3 n=18 v=100
616784 Off ch=3 n=18 v=0
616927 On ch=3 n=22 v=100
617016 On ch=3 n=17 v=100
617025 Off ch=3 n=22 v=0
617184 On ch=3 n=21 v=100
617255 Off ch=3 n=17 v=0
617279 Off ch=3 n=21 v=0
617629 On ch=3 n=4 v=100
617991 Off ch=3 n=4 v=0
618030 On ch=3 n=3 v=100
618360 On ch=3 n=9 v=100
618365 Off ch=3 n=3 v=0
618534 Off ch=3 n=9 v=0
620222 On ch=3 n=25 v=100
620222 On ch=3 n=25 v=100
620252 On ch=3 n=6 v=100
620571 Off ch=3 n=6 v=0
620632 Off ch=3 n=25 v=0
620632 Off ch=3 n=25 v=0
621602 On ch=3 n=30 v=100
621624 Off ch=3 n=30 v=0
621676 On ch=3 n=30 v=100
621696 On ch=3 n=12 v=100
621721 Off ch=3 n=30 v=0
621809 Off ch=3 n=12 v=0
621974 On ch=3 n=2 v=100
623803 Off ch=3 n=2 v=0
626549 On ch=3 n=28 v=100
626733 Off ch=3 n=28 v=0
633352 On ch=3 n=14 v=100
634316 On ch=3 n=34 v=100
634375 Off ch=3 n=14 v=0
634387 Off ch=3 n=34 v=0
634669 On ch=3 n=13 v=100
634669 On ch=3 n=32 v=100
634970 Off ch=3 n=13 v=0
635009 Off ch=3 n=32 v=0
636808 On ch=3 n=24 v=100
637078 Off ch=3 n=24 v=0
637090 On ch=3 n=10 v=100
637660 Off ch=3 n=10 v=0
639665 On ch=3 n=22 v=100
639869 Off ch=3 n=22 v=0
640570 On ch=3 n=14 v=100
640705 On ch=3 n=50 v=100
640757 On ch=3 n=55 v=100
640782 On ch=3 n=28 v=100
640783 Off ch=3 n=14 v=0
640787 On ch=3 n=20 v=100
640978 Off ch=3 n=20 v=0
640979 Off ch=3 n=50 v=0
640980 Off ch=3 n=55 v=0
641002 Off ch=3 n=28 v=0
641145 On ch=3 n=5 v=100
644006 Off ch=3 n=5 v=0
651522 On ch=3 n=22 v=100
651691 Off ch=3 n=22 v=0
652631 On ch=3 n=5 v=100
652926 Off ch=3 n=5 v=0
654925 On ch=3 n=23 v=100
654951 On ch=3 n=13 v=100
654976 On ch=3 n=8 v=100
655133 Off ch=3 n=8 v=0
655138 Off ch=3 n=23 v=0
655139 Off ch=3 n=13 v=0
656128 On ch=3 n=6 v=100
656360 Off ch=3 n=6 v=0
656441 On ch=3 n=46 v=100
656487 On ch=3 n=24 v=100
656487 On ch=3 n=24 v=100
656507 On ch=3 n=37 v=100
656507 On ch=3 n=37 v=100
656510 On ch=3 n=15 v=100
656544 Off ch=3 n=46 v=0
656752 Off ch=3 n=15 v=0
656766 Off ch=3 n=24 v=0
656766 Off ch=3 n=24 v=0
656792 Off ch=3 n=37 v=0
656792 Off ch=3 n=37 v=0
656883 On ch=3 n=37 v=100
656904 Off ch=3 n=37 v=0
657354 On ch=3 n=36 v=100
658059 On ch=3 n=28 v=100
658122 Off ch=3 n=36 v=0
658163 On ch=3 n=40 v=100
658165 On ch=3 n=11 v=100
658264 Off ch=3 n=28 v=0
658289 Off ch=3 n=11 v=0
658306 Off ch=3 n=40 v=0
659698 On ch=3 n=10 v=100
659978 Off ch=3 n=10 v=0
661054 On ch=3 n=25 v=100
661075 On ch=3 n=21 v=100
661194 Off ch=3 n=25 v=0
661199 Off ch=3 n=21 v=0
661323 On ch=3 n=5 v=100
661840 On ch=3 n=33 v=100
661847 Off ch=3 n=5 v=0
661857 On ch=3 n=5 v=100
661973 Off ch=3 n=33 v=0
661977 On ch=3 n=12 v=100
662007 Off ch=3 n=5 v=0
662038 Off ch=3 n=12 v=0
663026 On ch=3 n=22 v=100
663191 Off ch=3 n=22 v=0
663200 On ch=3 n=25 v=100
663369 Off ch=3 n=25 v=0
663452 On ch=3 n=45 v=100
663680 Off ch=3 n=45 v=0
663785 On ch=3 n=20 v=100
663867 Off ch=3 n=20 v=0
663994 On ch=3 n=26 v=100
664047 Off ch=3 n=26 v=0
664066 On ch=3 n=28 v=100
664190 On ch=3 n=30 v=100
664199 Off ch=3 n=28 v=0
664350 On ch=3 n=31 v=100
664379 Off ch=3 n=30 v=0
664384 On ch=3 n=24 v=100
664495 Off ch=3 n=31 v=0
664497 Off ch=3 n=24 v=0
666752 On ch=3 n=6 v=100
667114 Off ch=3 n=6 v=0
667147 On ch=3 n=8 v=100
667356 Off ch=3 n=8 v=0
667530 On ch=3 n=20 v=100
667620 Off ch=3 n=20 v=0
668324 On ch=3 n=40 v=100
668410 Off ch=3 n=40 v=0
669257 On ch=3 n=35 v=100
669257 On ch=3 n=25 v=100
669356 On ch=3 n=26 v=100
669560 Off ch=3 n=25 v=0
669682 Off ch=3 n=35 v=0
669684 Off ch=3 n=26 v=0
669739 On ch=3 n=37 v=100
669754 Off ch=3 n=37 v=0
669820 On ch=3 n=37 v=100
669884 On ch=3 n=31 v=100
670065 Off ch=3 n=37 v=0
670065 Off ch=3 n=31 v=0
670106 On ch=3 n=31 v=100
670106 On ch=3 n=37 v=100
670144 On ch=3 n=41 v=100
670274 Off ch=3 n=31 v=0
670323 Off ch=3 n=37 v=0
670449 Off ch=3 n=41 v=0
670483 On ch=3 n=41 v=100
670531 Off ch=3 n=41 v=0
670577 On ch=3 n=41 v=100
670666 Off ch=3 n=41 v=0
670696 On ch=3 n=41 v=100
670773 Off ch=3 n=41 v=0
671220 On ch=3 n=29 v=100
671506 Off ch=3 n=29 v=0
671854 On ch=3 n=53 v=100
672602 Off ch=3 n=53 v=0
673018 On ch=3 n=19 v=100
673128 On ch=3 n=34 v=100
673131 Off ch=3 n=19 v=0
673192 Off ch=3 n=34 v=0
673384 On ch=3 n=5 v=100
673440 On ch=3 n=13 v=100
673488 Off ch=3 n=5 v=0
674289 On ch=3 n=14 v=100
674377 Off ch=3 n=13 v=0
674408 Off ch=3 n=14 v=0
674410 On ch=3 n=11 v=100
674446 Off ch=3 n=11 v=0
674490 On ch=3 n=30 v=100
674611 On ch=3 n=34 v=100
674681 On ch=3 n=20 v=100
674682 Off ch=3 n=30 v=0
674694 Off ch=3 n=34 v=0
674984 Off ch=3 n=20 v=0
674986 On ch=3 n=10 v=100
675256 Off ch=3 n=10 v=0
675273 On ch=3 n=6 v=100
675275 On ch=3 n=12 v=100
675305 Off ch=3 n=6 v=0
675308 On ch=3 n=20 v=100
675309 Off ch=3 n=12 v=0
675518 Off ch=3 n=20 v=0
675800 On ch=3 n=30 v=100
675852 Off ch=3 n=30 v=0
675860 On ch=3 n=16 v=100
675908 Off ch=3 n=16 v=0
676413 On ch=3 n=4 v=100
676547 Off ch=3 n=4 v=0
676567 On ch=3 n=15 v=100
676662 On ch=3 n=13 v=100
676667 Off ch=3 n=15 v=0
676944 On ch=3 n=15 v=100
677005 Off ch=3 n=13 v=0
677262 On ch=3 n=9 v=100
677270 Off ch=3 n=15 v=0
677574 On ch=3 n=27 v=100
677594 Off ch=3 n=9 v=0
677647 Off ch=3 n=27 v=0
677933 On ch=3 n=4 v=100
678100 On ch=3 n=37 v=100
678184 On ch=3 n=7 v=100
678186 Off ch=3 n=4 v=0
678680 Off ch=3 n=37 v=0
678680 Off ch=3 n=7 v=0
678911 On ch=3 n=24 v=100
678973 Off ch=3 n=24 v=0
678976 On ch=3 n=9 v=100
679098 On ch=3 n=5 v=100
679103 Off ch=3 n=9 v=0
681788 On ch=3 n=62 v=100
681923 Off ch=3 n=5 v=0
682010 Off ch=3 n=62 v=0
682060 On ch=3 n=62 v=100
682109 Off ch=3 n=62 v=0
682149 On ch=3 n=62 v=100
682449 Off ch=3 n=62 v=0
683068 On ch=3 n=3 v=100
685487 On ch=3 n=4 v=100
685487 Off ch=3 n=3 v=0
685711 Off ch=3 n=4 v=0
685714 On ch=3 n=19 v=100
685714 On ch=3 n=25 v=100
685869 Off ch=3 n=19 v=0
685916 Off ch=3 n=25 v=0
685924 On ch=3 n=8 v=100
685972 Off ch=3 n=8 v=0
686012 On ch=3 n=3 v=100
686410 Off ch=3 n=3 v=0
686446 On ch=3 n=3 v=100
687062 On ch=3 n=18 v=100
687063 Off ch=3 n=3 v=0
687619 Off ch=3 n=18 v=0
687621 On ch=3 n=13 v=100
688047 Off ch=3 n=13 v=0
688974 On ch=3 n=17 v=100
689046 Off ch=3 n=17 v=0
690338 On ch=3 n=26 v=100
690432 On ch=3 n=26 v=100
690458 On ch=3 n=44 v=100
690459 On ch=3 n=19 v=100
690561 Off ch=3 n=19 v=0
690564 Off ch=3 n=26 v=0
690569 On ch=3 n=28 v=100
690598 Off ch=3 n=26 v=0
690622 Off ch=3 n=44 v=0
690688 Off ch=3 n=28 v=0
690840 On ch=3 n=16 v=100
690999 Off ch=3 n=16 v=0
691504 On ch=3 n=7 v=100
691585 On ch=3 n=15 v=100
691652 Off ch=3 n=7 v=0
691654 On ch=3 n=7 v=100
692034 Off ch=3 n=15 v=0
692748 Off ch=3 n=7 v=0
TrkEnd    
MTrk    
0 PrCh ch=4 p=46 
0 Meta TrkName "LTR" 
16019 On ch=4 n=17 v=100
16181 Off ch=4 n=17 v=0
23862 On ch=4 n=15 v=100
24075 Off ch=4 n=15 v=0
29320 On ch=4 n=4 v=100
29922 Off ch=4 n=4 v=0
29925 On ch=4 n=2 v=100
30117 Off ch=4 n=2 v=0
41605 On ch=4 n=37 v=100
41792 Off ch=4 n=37 v=0
43576 On ch=4 n=4 v=100
44189 Off ch=4 n=4 v=0
44194 On ch=4 n=5 v=100
44472 Off ch=4 n=5 v=0
44473 On ch=4 n=3 v=100
45401 Off ch=4 n=3 v=0
45403 On ch=4 n=2 v=100
47025 On ch=4 n=39 v=100
47229 On ch=4 n=15 v=100
47230 Off ch=4 n=2 v=0
47287 Off ch=4 n=39 v=0
47808 Off ch=4 n=15 v=0
52140 On ch=4 n=55 v=100
52295 Off ch=4 n=55 v=0
55748 On ch=4 n=55 v=100
55903 Off ch=4 n=55 v=0
68382 On ch=4 n=1 v=100
68581 Off ch=4 n=1 v=0
74378 On ch=4 n=64 v=100
74565 Off ch=4 n=64 v=0
75411 On ch=4 n=65 v=100
75597 Off ch=4 n=65 v=0
76432 On ch=4 n=67 v=100
76617 Off ch=4 n=67 v=0
77524 On ch=4 n=4 v=100
77967 Off ch=4 n=4 v=0
77969 On ch=4 n=0 v=100
87106 Off ch=4 n=0 v=0
87107 On ch=4 n=9 v=100
87417 Off ch=4 n=9 v=0
87419 On ch=4 n=12 v=100
87647 Off ch=4 n=12 v=0
87664 On ch=4 n=7 v=100
87782 Off ch=4 n=7 v=0
87882 On ch=4 n=31 v=100
87964 Off ch=4 n=31 v=0
88046 On ch=4 n=36 v=100
88125 Off ch=4 n=36 v=0
88211 On ch=4 n=34 v=100
88285 Off ch=4 n=34 v=0
88370 On ch=4 n=25 v=100
88443 Off ch=4 n=25 v=0
88523 On ch=4 n=36 v=100
88615 Off ch=4 n=36 v=0
88680 On ch=4 n=30 v=100
88761 Off ch=4 n=30 v=0
88851 On ch=4 n=30 v=100
88927 Off ch=4 n=30 v=0
89002 On ch=4 n=37 v=100
89002 On ch=4 n=37 v=100
89101 Off ch=4 n=37 v=0
89101 Off ch=4 n=37 v=0
89165 On ch=4 n=33 v=100
89244 Off ch=4 n=33 v=0
89320 On ch=4 n=29 v=100
89414 Off ch=4 n=29 v=0
89483 On ch=4 n=38 v=100
89576 Off ch=4 n=38 v=0
89644 On ch=4 n=33 v=100
89734 Off ch=4 n=33 v=0
89806 On ch=4 n=33 v=100
89880 Off ch=4 n=33 v=0
89956 On ch=4 n=28 v=100
90037 Off ch=4 n=28 v=0
90119 On ch=4 n=37 v=100
90214 Off ch=4 n=37 v=0
90280 On ch=4 n=31 v=100
90358 Off ch=4 n=31 v=0
90439 On ch=4 n=38 v=100
90531 Off ch=4 n=38 v=0
90757 On ch=4 n=28 v=100
90831 Off ch=4 n=28 v=0
90913 On ch=4 n=32 v=100
90993 Off ch=4 n=32 v=0
91072 On ch=4 n=43 v=100
91168 Off ch=4 n=43 v=0
91232 On ch=4 n=31 v=100
91326 Off ch=4 n=31 v=0
91386 On ch=4 n=32 v=100
91471 Off ch=4 n=32 v=0
91556 On ch=4 n=45 v=100
91621 Off ch=4 n=45 v=0
91868 On ch=4 n=32 v=100
91940 Off ch=4 n=32 v=0
92023 On ch=4 n=28 v=100
92107 Off ch=4 n=28 v=0
92190 On ch=4 n=31 v=100
92265 Off ch=4 n=31 v=0
92341 On ch=4 n=28 v=100
92425 Off ch=4 n=28 v=0
92505 On ch=4 n=35 v=100
92593 Off ch=4 n=35 v=0
92665 On ch=4 n=33 v=100
92756 Off ch=4 n=33 v=0
92827 On ch=4 n=27 v=100
92902 Off ch=4 n=27 v=0
92980 On ch=4 n=39 v=100
93070 Off ch=4 n=39 v=0
93140 On ch=4 n=33 v=100
93219 Off ch=4 n=33 v=0
93295 On ch=4 n=28 v=100
93379 Off ch=4 n=28 v=0
93457 On ch=4 n=38 v=100
93548 Off ch=4 n=38 v=0
93617 On ch=4 n=33 v=100
93696 Off ch=4 n=33 v=0
93771 On ch=4 n=27 v=100
93856 Off ch=4 n=27 v=0
93938 On ch=4 n=49 v=100
94010 Off ch=4 n=49 v=0
94095 On ch=4 n=30 v=100
94174 Off ch=4 n=30 v=0
94253 On ch=4 n=34 v=100
94333 Off ch=4 n=34 v=0
94531 On ch=4 n=34 v=100
94664 Off ch=4 n=34 v=0
94886 On ch=4 n=41 v=100
94975 Off ch=4 n=41 v=0
97205 On ch=4 n=9 v=100
97766 Off ch=4 n=9 v=0
102833 On ch=4 n=12 v=100
103037 Off ch=4 n=12 v=0
106161 On ch=4 n=21 v=100
106478 On ch=4 n=46 v=100
106517 Off ch=4 n=21 v=0
106519 On ch=4 n=9 v=100
106778 Off ch=4 n=46 v=0
106803 Off ch=4 n=9 v=0
107141 On ch=4 n=47 v=100
107145 On ch=4 n=10 v=100
107438 Off ch=4 n=10 v=0
107478 Off ch=4 n=47 v=0
108074 On ch=4 n=58 v=100
108075 On ch=4 n=8 v=100
108203 Off ch=4 n=8 v=0
108206 On ch=4 n=5 v=100
108218 Off ch=4 n=58 v=0
109300 Off ch=4 n=5 v=0
109506 On ch=4 n=33 v=100
109717 Off ch=4 n=33 v=0
109724 On ch=4 n=5 v=100
114482 Off ch=4 n=5 v=0
124390 On ch=4 n=19 v=100
124554 Off ch=4 n=19 v=0
128455 On ch=4 n=39 v=100
128689 Off ch=4 n=39 v=0
129450 On ch=4 n=13 v=100
129606 Off ch=4 n=13 v=0
135138 On ch=4 n=22 v=100
135666 Off ch=4 n=22 v=0
135669 On ch=4 n=6 v=100
135859 Off ch=4 n=6 v=0
144430 On ch=4 n=47 v=100
144472 On ch=4 n=5 v=100
144542 Off ch=4 n=47 v=0
145018 Off ch=4 n=5 v=0
151116 On ch=4 n=38 v=100
151202 Off ch=4 n=38 v=0
156350 On ch=4 n=11 v=100
156531 Off ch=4 n=11 v=0
156763 On ch=4 n=48 v=100
156805 On ch=4 n=9 v=100
156833 On ch=4 n=18 v=100
156914 Off ch=4 n=48 v=0
156932 Off ch=4 n=9 v=0
157218 Off ch=4 n=18 v=0
164767 On ch=4 n=15 v=100
164936 Off ch=4 n=15 v=0
166938 On ch=4 n=11 v=100
167078 Off ch=4 n=11 v=0
168948 On ch=4 n=12 v=100
168981 Off ch=4 n=12 v=0
170312 On ch=4 n=50 v=100
170403 Off ch=4 n=50 v=0
171778 On ch=4 n=17 v=100
172097 Off ch=4 n=17 v=0
172744 On ch=4 n=16 v=100
173271 Off ch=4 n=16 v=0
174146 On ch=4 n=23 v=100
174255 On ch=4 n=17 v=100
174270 Off ch=4 n=23 v=0
174377 Off ch=4 n=17 v=0
176549 On ch=4 n=15 v=100
176827 Off ch=4 n=15 v=0
185283 On ch=4 n=25 v=100
185302 On ch=4 n=6 v=100
185455 Off ch=4 n=25 v=0
185902 Off ch=4 n=6 v=0
187090 On ch=4 n=4 v=100
187421 Off ch=4 n=4 v=0
187423 On ch=4 n=2 v=100
187739 Off ch=4 n=2 v=0
188886 On ch=4 n=5 v=100
189796 Off ch=4 n=5 v=0
197875 On ch=4 n=18 v=100
198040 Off ch=4 n=18 v=0
204446 On ch=4 n=4 v=100
204763 Off ch=4 n=4 v=0
205492 On ch=4 n=4 v=100
205874 Off ch=4 n=4 v=0
214001 On ch=4 n=41 v=100
214014 On ch=4 n=36 v=100
214167 Off ch=4 n=41 v=0
214194 Off ch=4 n=36 v=0
216383 On ch=4 n=15 v=100
216537 Off ch=4 n=15 v=0
218901 On ch=4 n=9 v=100
218902 On ch=4 n=35 v=100
219034 Off ch=4 n=9 v=0
219063 Off ch=4 n=35 v=0
219199 On ch=4 n=22 v=100
219283 Off ch=4 n=22 v=0
219299 On ch=4 n=29 v=100
219524 Off ch=4 n=29 v=0
221460 On ch=4 n=15 v=100
221594 Off ch=4 n=15 v=0
221742 On ch=4 n=16 v=100
221972 Off ch=4 n=16 v=0
222003 On ch=4 n=13 v=100
222435 Off ch=4 n=13 v=0
222438 On ch=4 n=5 v=100
222493 Off ch=4 n=5 v=0
223257 On ch=4 n=8 v=100
223507 Off ch=4 n=8 v=0
225458 On ch=4 n=4 v=100
226097 Off ch=4 n=4 v=0
242074 On ch=4 n=20 v=100
242182 Off ch=4 n=20 v=0
255503 On ch=4 n=25 v=100
255658 Off ch=4 n=25 v=0
265518 On ch=4 n=6 v=100
265775 On ch=4 n=22 v=100
265829 Off ch=4 n=6 v=0
266000 Off ch=4 n=22 v=0
266001 On ch=4 n=5 v=100
268022 On ch=4 n=3 v=100
268022 Off ch=4 n=5 v=0
272612 Off ch=4 n=3 v=0
272614 On ch=4 n=6 v=100
272871 On ch=4 n=22 v=100
272925 Off ch=4 n=6 v=0
273096 Off ch=4 n=22 v=0
305510 On ch=4 n=4 v=100
305742 Off ch=4 n=4 v=0
306526 On ch=4 n=3 v=100
307736 Off ch=4 n=3 v=0
309089 On ch=4 n=35 v=100
309100 On ch=4 n=3 v=100
309184 Off ch=4 n=35 v=0
313511 Off ch=4 n=3 v=0
317541 On ch=4 n=11 v=100
317683 Off ch=4 n=11 v=0
319332 On ch=4 n=18 v=100
319502 Off ch=4 n=18 v=0
320499 On ch=4 n=0 v=100
325124 Off ch=4 n=0 v=0
327974 On ch=4 n=25 v=100
328080 On ch=4 n=28 v=100
328086 Off ch=4 n=25 v=0
328108 On ch=4 n=51 v=100
328303 Off ch=4 n=28 v=0
328309 On ch=4 n=21 v=100
328510 Off ch=4 n=21 v=0
328520 On ch=4 n=27 v=100
328588 On ch=4 n=40 v=100
328698 On ch=4 n=41 v=100
328760 Off ch=4 n=27 v=0
329042 Off ch=4 n=51 v=0
329061 Off ch=4 n=40 v=0
329318 Off ch=4 n=41 v=0
344306 On ch=4 n=35 v=100
344435 Off ch=4 n=35 v=0
344943 On ch=4 n=2 v=100
345812 Off ch=4 n=2 v=0
352062 On ch=4 n=4 v=100
352213 Off ch=4 n=4 v=0
352384 On ch=4 n=11 v=100
352537 Off ch=4 n=11 v=0
352958 On ch=4 n=50 v=100
353173 Off ch=4 n=50 v=0
360069 On ch=4 n=12 v=100
360166 Off ch=4 n=12 v=0
366418 On ch=4 n=12 v=100
366536 Off ch=4 n=12 v=0
367211 On ch=4 n=6 v=100
367243 Off ch=4 n=6 v=0
367251 On ch=4 n=12 v=100
367430 Off ch=4 n=12 v=0
369228 On ch=4 n=11 v=100
369523 Off ch=4 n=11 v=0
379238 On ch=4 n=9 v=100
380398 Off ch=4 n=9 v=0
385138 On ch=4 n=7 v=100
385627 Off ch=4 n=7 v=0
404842 On ch=4 n=14 v=100
405309 Off ch=4 n=14 v=0
434686 On ch=4 n=34 v=100
434799 Off ch=4 n=34 v=0
434809 On ch=4 n=29 v=100
435049 On ch=4 n=23 v=100
435122 Off ch=4 n=29 v=0
435134 Off ch=4 n=23 v=0
440320 On ch=4 n=11 v=100
442459 On ch=4 n=8 v=100
442462 Off ch=4 n=11 v=0
442768 On ch=4 n=9 v=100
442768 Off ch=4 n=8 v=0
443215 Off ch=4 n=9 v=0
443227 On ch=4 n=12 v=100
444587 Off ch=4 n=12 v=0
453477 On ch=4 n=5 v=100
453484 On ch=4 n=33 v=100
453991 Off ch=4 n=5 v=0
453997 On ch=4 n=6 v=100
454146 Off ch=4 n=33 v=0
454408 Off ch=4 n=6 v=0
454415 On ch=4 n=4 v=100
454703 Off ch=4 n=4 v=0
455568 On ch=4 n=7 v=100
455768 On ch=4 n=11 v=100
455774 Off ch=4 n=7 v=0
455904 Off ch=4 n=11 v=0
456825 On ch=4 n=11 v=100
457314 Off ch=4 n=11 v=0
463019 On ch=4 n=6 v=100
464244 On ch=4 n=12 v=100
466008 Off ch=4 n=6 v=0
466678 Off ch=4 n=12 v=0
466681 On ch=4 n=4 v=100
468666 Off ch=4 n=4 v=0
468667 On ch=4 n=7 v=100
468809 Off ch=4 n=7 v=0
475598 On ch=4 n=1 v=100
476152 Off ch=4 n=1 v=0
484810 On ch=4 n=10 v=100
485279 On ch=4 n=51 v=100
485364 Off ch=4 n=10 v=0
485609 On ch=4 n=11 v=100
488235 Off ch=4 n=51 v=0
489651 On ch=4 n=10 v=100
489787 Off ch=4 n=11 v=0
490181 Off ch=4 n=10 v=0
503569 On ch=4 n=2 v=100
503917 Off ch=4 n=2 v=0
505433 On ch=4 n=2 v=100
506206 Off ch=4 n=2 v=0
507565 On ch=4 n=2 v=100
507952 Off ch=4 n=2 v=0
516703 On ch=4 n=31 v=100
516704 On ch=4 n=5 v=100
518405 On ch=4 n=9 v=100
518409 Off ch=4 n=5 v=0
518854 Off ch=4 n=31 v=0
519796 Off ch=4 n=9 v=0
519798 On ch=4 n=12 v=100
519807 Off ch=4 n=12 v=0
519876 On ch=4 n=12 v=100
520817 On ch=4 n=25 v=100
520971 Off ch=4 n=12 v=0
520997 Off ch=4 n=25 v=0
525179 On ch=4 n=24 v=100
525559 On ch=4 n=18 v=100
525559 Off ch=4 n=24 v=0
526690 Off ch=4 n=18 v=0
526697 On ch=4 n=13 v=100
527665 Off ch=4 n=13 v=0
529392 On ch=4 n=30 v=100
529417 On ch=4 n=11 v=100
529493 On ch=4 n=10 v=100
529499 Off ch=4 n=30 v=0
529499 Off ch=4 n=11 v=0
529873 On ch=4 n=9 v=100
529873 Off ch=4 n=10 v=0
529874 On ch=4 n=46 v=100
530002 Off ch=4 n=9 v=0
530039 On ch=4 n=25 v=100
530078 Off ch=4 n=46 v=0
530183 Off ch=4 n=25 v=0
531922 On ch=4 n=23 v=100
532158 Off ch=4 n=23 v=0
540290 On ch=4 n=17 v=100
540524 On ch=4 n=8 v=100
540529 Off ch=4 n=17 v=0
542786 Off ch=4 n=8 v=0
542877 On ch=4 n=5 v=100
543099 Off ch=4 n=5 v=0
544105 On ch=4 n=44 v=100
544206 On ch=4 n=24 v=100
544250 Off ch=4 n=44 v=0
544589 On ch=4 n=28 v=100
544597 Off ch=4 n=24 v=0
544721 Off ch=4 n=28 v=0
550527 On ch=4 n=5 v=100
551353 Off ch=4 n=5 v=0
551357 On ch=4 n=5 v=100
551481 Off ch=4 n=5 v=0
552100 On ch=4 n=5 v=100
553223 Off ch=4 n=5 v=0
553258 On ch=4 n=3 v=100
553569 Off ch=4 n=3 v=0
555220 On ch=4 n=20 v=100
555297 Off ch=4 n=20 v=0
556561 On ch=4 n=3 v=100
556756 Off ch=4 n=3 v=0
556759 On ch=4 n=2 v=100
557038 Off ch=4 n=2 v=0
613026 On ch=4 n=9 v=100
613164 Off ch=4 n=9 v=0
617280 On ch=4 n=5 v=100
617631 Off ch=4 n=5 v=0
626132 On ch=4 n=16 v=100
626478 Off ch=4 n=16 v=0
629832 On ch=4 n=28 v=100
629844 On ch=4 n=2 v=100
629892 Off ch=4 n=28 v=0
631113 On ch=4 n=3 v=100
631123 Off ch=4 n=2 v=0
632796 On ch=4 n=24 v=100
632844 On ch=4 n=9 v=100
632846 Off ch=4 n=3 v=0
632855 Off ch=4 n=24 v=0
633159 Off ch=4 n=9 v=0
633161 On ch=4 n=1 v=100
633351 Off ch=4 n=1 v=0
636539 On ch=4 n=31 v=100
636649 Off ch=4 n=31 v=0
638416 On ch=4 n=28 v=100
638578 Off ch=4 n=28 v=0
638584 On ch=4 n=9 v=100
638823 Off ch=4 n=9 v=0
645222 On ch=4 n=2 v=100
650720 Off ch=4 n=2 v=0
650725 On ch=4 n=4 v=100
651204 Off ch=4 n=4 v=0
671739 On ch=4 n=35 v=100
671871 Off ch=4 n=35 v=0
682829 On ch=4 n=32 v=100
682851 On ch=4 n=12 v=100
683068 Off ch=4 n=12 v=0
683076 Off ch=4 n=32 v=0
688047 On ch=4 n=24 v=100
688408 Off ch=4 n=24 v=0
688793 On ch=4 n=18 v=100
688978 Off ch=4 n=18 v=0
690868 On ch=4 n=31 v=100
691108 Off ch=4 n=31 v=0
692768 On ch=4 n=8 v=100
692774 On ch=4 n=45 v=100
693278 Off ch=4 n=8 v=0
693279 On ch=4 n=6 v=100
694324 Off ch=4 n=45 v=0
698035 Off ch=4 n=6 v=0
TrkEnd    
