MFile 1 7 960 
MTrk    
0 Tempo 100000  
TrkEnd    
MTrk    
0 PrCh ch=6 p=53 
0 Meta TrkName "ATAC" 
10845 On ch=6 n=57 v=127
11115 Off ch=6 n=57 v=0
51285 On ch=6 n=57 v=127
51408 Off ch=6 n=57 v=0
88926 On ch=6 n=57 v=127
89944 Off ch=6 n=57 v=0
90057 On ch=6 n=57 v=127
90494 Off ch=6 n=57 v=0
91798 On ch=6 n=57 v=127
92620 Off ch=6 n=57 v=0
92740 On ch=6 n=57 v=127
93778 Off ch=6 n=57 v=0
170883 On ch=6 n=57 v=127
171592 Off ch=6 n=57 v=0
227086 On ch=6 n=57 v=127
227767 Off ch=6 n=57 v=0
279553 On ch=6 n=57 v=127
280219 Off ch=6 n=57 v=0
280491 On ch=6 n=57 v=127
281031 Off ch=6 n=57 v=0
283164 On ch=6 n=57 v=127
283562 Off ch=6 n=57 v=0
284085 On ch=6 n=57 v=127
284520 Off ch=6 n=57 v=0
284683 On ch=6 n=57 v=127
285134 Off ch=6 n=57 v=0
285938 On ch=6 n=57 v=127
287098 Off ch=6 n=57 v=0
288842 On ch=6 n=57 v=127
289111 Off ch=6 n=57 v=0
289331 On ch=6 n=57 v=127
289769 Off ch=6 n=57 v=0
290137 On ch=6 n=57 v=127
290666 Off ch=6 n=57 v=0
295502 On ch=6 n=57 v=127
297478 Off ch=6 n=57 v=0
297931 On ch=6 n=57 v=127
299229 Off ch=6 n=57 v=0
309089 On ch=6 n=57 v=127
309264 Off ch=6 n=57 v=0
309475 On ch=6 n=57 v=127
309640 Off ch=6 n=57 v=0
345970 On ch=6 n=57 v=127
347012 Off ch=6 n=57 v=0
361334 On ch=6 n=57 v=127
362262 Off ch=6 n=57 v=0
362432 On ch=6 n=57 v=127
362898 Off ch=6 n=57 v=0
382511 On ch=6 n=57 v=127
384049 Off ch=6 n=57 v=0
405345 On ch=6 n=57 v=127
406355 Off ch=6 n=57 v=0
409409 On ch=6 n=57 v=127
409755 Off ch=6 n=57 v=0
409904 On ch=6 n=57 v=127
410267 Off ch=6 n=57 v=0
410954 On ch=6 n=57 v=127
411230 Off ch=6 n=57 v=0
412678 On ch=6 n=57 v=127
413232 Off ch=6 n=57 v=0
413839 On ch=6 n=57 v=127
414336 Off ch=6 n=57 v=0
414491 On ch=6 n=57 v=127
418172 Off ch=6 n=57 v=0
424147 On ch=6 n=57 v=127
424519 Off ch=6 n=57 v=0
425084 On ch=6 n=57 v=127
425897 Off ch=6 n=57 v=0
426076 On ch=6 n=57 v=127
426836 Off ch=6 n=57 v=0
429315 On ch=6 n=57 v=127
429906 Off ch=6 n=57 v=0
431176 On ch=6 n=57 v=127
431403 Off ch=6 n=57 v=0
431688 On ch=6 n=57 v=127
431879 Off ch=6 n=57 v=0
432609 On ch=6 n=57 v=127
432926 Off ch=6 n=57 v=0
433453 On ch=6 n=57 v=127
433832 Off ch=6 n=57 v=0
497528 On ch=6 n=57 v=127
498052 Off ch=6 n=57 v=0
498838 On ch=6 n=57 v=127
499064 Off ch=6 n=57 v=0
516709 On ch=6 n=57 v=127
516855 Off ch=6 n=57 v=0
517277 On ch=6 n=57 v=127
517420 Off ch=6 n=57 v=0
564990 On ch=6 n=57 v=127
565143 Off ch=6 n=57 v=0
566528 On ch=6 n=57 v=127
566964 Off ch=6 n=57 v=0
586288 On ch=6 n=57 v=127
588622 Off ch=6 n=57 v=0
590856 On ch=6 n=57 v=127
593213 Off ch=6 n=57 v=0
593362 On ch=6 n=57 v=127
594985 Off ch=6 n=57 v=0
596175 On ch=6 n=57 v=127
598525 Off ch=6 n=57 v=0
598713 On ch=6 n=57 v=127
600274 Off ch=6 n=57 v=0
627771 On ch=6 n=57 v=127
628648 Off ch=6 n=57 v=0
671675 On ch=6 n=57 v=127
672599 Off ch=6 n=57 v=0
689567 On ch=6 n=57 v=127
689789 Off ch=6 n=57 v=0
839588 On ch=6 n=57 v=127
839748 Off ch=6 n=57 v=0
839859 On ch=6 n=57 v=127
840236 Off ch=6 n=57 v=0
840346 On ch=6 n=57 v=127
840491 Off ch=6 n=57 v=0
840615 On ch=6 n=57 v=127
840960 Off ch=6 n=57 v=0
866984 On ch=6 n=57 v=127
867704 Off ch=6 n=57 v=0
1019757 On ch=6 n=57 v=127
1020241 Off ch=6 n=57 v=0
1020412 On ch=6 n=57 v=127
1020716 Off ch=6 n=57 v=0
1031712 On ch=6 n=57 v=127
1032502 Off ch=6 n=57 v=0
1095694 On ch=6 n=57 v=127
1096693 Off ch=6 n=57 v=0
1142050 On ch=6 n=57 v=127
1143006 Off ch=6 n=57 v=0
1228237 On ch=6 n=57 v=127
1228610 Off ch=6 n=57 v=0
1232360 On ch=6 n=57 v=127
1232581 Off ch=6 n=57 v=0
1232990 On ch=6 n=57 v=127
1233196 Off ch=6 n=57 v=0
1247015 On ch=6 n=57 v=127
1247213 Off ch=6 n=57 v=0
1286025 On ch=6 n=57 v=127
1286174 Off ch=6 n=57 v=0
1286318 On ch=6 n=57 v=127
1286478 Off ch=6 n=57 v=0
1292551 On ch=6 n=57 v=127
1305652 Off ch=6 n=57 v=0
1310626 On ch=6 n=57 v=127
1311199 Off ch=6 n=57 v=0
1350830 On ch=6 n=57 v=127
1352306 Off ch=6 n=57 v=0
1414320 On ch=6 n=57 v=127
1414490 Off ch=6 n=57 v=0
1414680 On ch=6 n=57 v=127
1414862 Off ch=6 n=57 v=0
1442589 On ch=6 n=57 v=127
1443554 Off ch=6 n=57 v=0
1444734 On ch=6 n=57 v=127
1445814 Off ch=6 n=57 v=0
1458779 On ch=6 n=57 v=127
1459259 Off ch=6 n=57 v=0
1473714 On ch=6 n=57 v=127
1474234 Off ch=6 n=57 v=0
1504952 On ch=6 n=57 v=127
1505672 Off ch=6 n=57 v=0
1506020 On ch=6 n=57 v=127
1506426 Off ch=6 n=57 v=0
1507006 On ch=6 n=57 v=127
1507415 Off ch=6 n=57 v=0
1507865 On ch=6 n=57 v=127
1508377 Off ch=6 n=57 v=0
1508825 On ch=6 n=57 v=127
1509332 Off ch=6 n=57 v=0
1509662 On ch=6 n=57 v=127
1510087 Off ch=6 n=57 v=0
1510449 On ch=6 n=57 v=127
1511205 Off ch=6 n=57 v=0
1511434 On ch=6 n=57 v=127
1512105 Off ch=6 n=57 v=0
1512228 On ch=6 n=57 v=127
1512903 Off ch=6 n=57 v=0
1513298 On ch=6 n=57 v=127
1513880 Off ch=6 n=57 v=0
1514036 On ch=6 n=57 v=127
1514767 Off ch=6 n=57 v=0
1515121 On ch=6 n=57 v=127
1515538 Off ch=6 n=57 v=0
1553746 On ch=6 n=57 v=127
1554077 Off ch=6 n=57 v=0
1567964 On ch=6 n=57 v=127
1568122 Off ch=6 n=57 v=0
1568895 On ch=6 n=57 v=127
1569031 Off ch=6 n=57 v=0
1575089 On ch=6 n=57 v=127
1575274 Off ch=6 n=57 v=0
1575547 On ch=6 n=57 v=127
1575752 Off ch=6 n=57 v=0
1585258 On ch=6 n=57 v=127
1587527 Off ch=6 n=57 v=0
1592969 On ch=6 n=57 v=127
1602312 Off ch=6 n=57 v=0
1608289 On ch=6 n=57 v=127
1612109 Off ch=6 n=57 v=0
1612434 On ch=6 n=57 v=127
1613458 Off ch=6 n=57 v=0
1613684 On ch=6 n=57 v=127
1613889 Off ch=6 n=57 v=0
1614049 On ch=6 n=57 v=127
1614284 Off ch=6 n=57 v=0
1614496 On ch=6 n=57 v=127
1614760 Off ch=6 n=57 v=0
1614909 On ch=6 n=57 v=127
1615542 Off ch=6 n=57 v=0
1615778 On ch=6 n=57 v=127
1616790 Off ch=6 n=57 v=0
1617304 On ch=6 n=57 v=127
1617519 Off ch=6 n=57 v=0
1618499 On ch=6 n=57 v=127
1618852 Off ch=6 n=57 v=0
1619066 On ch=6 n=57 v=127
1619634 Off ch=6 n=57 v=0
1643643 On ch=6 n=57 v=127
1646580 Off ch=6 n=57 v=0
1654441 On ch=6 n=57 v=127
1654752 Off ch=6 n=57 v=0
1654861 On ch=6 n=57 v=127
1655173 Off ch=6 n=57 v=0
1656731 On ch=6 n=57 v=127
1658159 Off ch=6 n=57 v=0
1673191 On ch=6 n=57 v=127
1674981 Off ch=6 n=57 v=0
1693203 On ch=6 n=57 v=127
1694452 Off ch=6 n=57 v=0
1700382 On ch=6 n=57 v=127
1700971 Off ch=6 n=57 v=0
1704926 On ch=6 n=57 v=127
1705451 Off ch=6 n=57 v=0
1705676 On ch=6 n=57 v=127
1706192 Off ch=6 n=57 v=0
1706756 On ch=6 n=57 v=127
1707151 Off ch=6 n=57 v=0
1707288 On ch=6 n=57 v=127
1708031 Off ch=6 n=57 v=0
1708200 On ch=6 n=57 v=127
1708980 Off ch=6 n=57 v=0
1709089 On ch=6 n=57 v=127
1709348 Off ch=6 n=57 v=0
1709971 On ch=6 n=57 v=127
1710244 Off ch=6 n=57 v=0
1710963 On ch=6 n=57 v=127
1711497 Off ch=6 n=57 v=0
1711657 On ch=6 n=57 v=127
1712407 Off ch=6 n=57 v=0
1712560 On ch=6 n=57 v=127
1714344 Off ch=6 n=57 v=0
1714478 On ch=6 n=57 v=127
1714841 Off ch=6 n=57 v=0
1715006 On ch=6 n=57 v=127
1716124 Off ch=6 n=57 v=0
1716501 On ch=6 n=57 v=127
1716772 Off ch=6 n=57 v=0
1717332 On ch=6 n=57 v=127
1717631 Off ch=6 n=57 v=0
1727642 On ch=6 n=57 v=127
1727895 Off ch=6 n=57 v=0
1728549 On ch=6 n=57 v=127
1728944 Off ch=6 n=57 v=0
1809088 On ch=6 n=57 v=127
1810235 Off ch=6 n=57 v=0
1811357 On ch=6 n=57 v=127
1812032 Off ch=6 n=57 v=0
1830819 On ch=6 n=57 v=127
1831427 Off ch=6 n=57 v=0
1836546 On ch=6 n=57 v=127
1837900 Off ch=6 n=57 v=0
1908820 On ch=6 n=57 v=127
1909058 Off ch=6 n=57 v=0
1912945 On ch=6 n=57 v=127
1913661 Off ch=6 n=57 v=0
1916922 On ch=6 n=57 v=127
1917162 Off ch=6 n=57 v=0
1917309 On ch=6 n=57 v=127
1917538 Off ch=6 n=57 v=0
1933264 On ch=6 n=57 v=127
1934721 Off ch=6 n=57 v=0
1947817 On ch=6 n=57 v=127
1948574 Off ch=6 n=57 v=0
1959749 On ch=6 n=57 v=127
1960214 Off ch=6 n=57 v=0
2034756 On ch=6 n=57 v=127
2034880 Off ch=6 n=57 v=0
2045969 On ch=6 n=57 v=127
2049091 Off ch=6 n=57 v=0
2094412 On ch=6 n=57 v=127
2094726 Off ch=6 n=57 v=0
2126231 On ch=6 n=57 v=127
2126977 Off ch=6 n=57 v=0
2127186 On ch=6 n=57 v=127
2127928 Off ch=6 n=57 v=0
2165378 On ch=6 n=57 v=127
2167215 Off ch=6 n=57 v=0
2167674 On ch=6 n=57 v=127
2169184 Off ch=6 n=57 v=0
2225897 On ch=6 n=57 v=127
2226456 Off ch=6 n=57 v=0
2226605 On ch=6 n=57 v=127
2226976 Off ch=6 n=57 v=0
2255416 On ch=6 n=57 v=127
2258807 Off ch=6 n=57 v=0
2264720 On ch=6 n=57 v=127
2274649 Off ch=6 n=57 v=0
2311124 On ch=6 n=57 v=127
2312369 Off ch=6 n=57 v=0
2313692 On ch=6 n=57 v=127
2314891 Off ch=6 n=57 v=0
2316912 On ch=6 n=57 v=127
2318858 Off ch=6 n=57 v=0
2320029 On ch=6 n=57 v=127
2321593 Off ch=6 n=57 v=0
2368844 On ch=6 n=57 v=127
2369243 Off ch=6 n=57 v=0
2396100 On ch=6 n=57 v=127
2396631 Off ch=6 n=57 v=0
2396856 On ch=6 n=57 v=127
2397347 Off ch=6 n=57 v=0
2477904 On ch=6 n=57 v=127
2478506 Off ch=6 n=57 v=0
2510323 On ch=6 n=57 v=127
2510971 Off ch=6 n=57 v=0
2615205 On ch=6 n=57 v=127
2616262 Off ch=6 n=57 v=0
2628025 On ch=6 n=57 v=127
2629012 Off ch=6 n=57 v=0
2663448 On ch=6 n=57 v=127
2664236 Off ch=6 n=57 v=0
2664894 On ch=6 n=57 v=127
2665642 Off ch=6 n=57 v=0
2670843 On ch=6 n=57 v=127
2671033 Off ch=6 n=57 v=0
2811899 On ch=6 n=57 v=127
2812364 Off ch=6 n=57 v=0
2836145 On ch=6 n=57 v=127
2836641 Off ch=6 n=57 v=0
2893357 On ch=6 n=57 v=127
2894535 Off ch=6 n=57 v=0
2895039 On ch=6 n=57 v=127
2896009 Off ch=6 n=57 v=0
2897467 On ch=6 n=57 v=127
2899246 Off ch=6 n=57 v=0
2922608 On ch=6 n=57 v=127
2923123 Off ch=6 n=57 v=0
3018812 On ch=6 n=57 v=127
3020296 Off ch=6 n=57 v=0
3029105 On ch=6 n=57 v=127
3029509 Off ch=6 n=57 v=0
3029720 On ch=6 n=57 v=127
3030020 Off ch=6 n=57 v=0
3089777 On ch=6 n=57 v=127
3089933 Off ch=6 n=57 v=0
3090040 On ch=6 n=57 v=127
3090218 Off ch=6 n=57 v=0
3164177 On ch=6 n=57 v=127
3166319 Off ch=6 n=57 v=0
3166755 On ch=6 n=57 v=127
3167363 Off ch=6 n=57 v=0
3167578 On ch=6 n=57 v=127
3168271 Off ch=6 n=57 v=0
3168398 On ch=6 n=57 v=127
3169153 Off ch=6 n=57 v=0
3169294 On ch=6 n=57 v=127
3169960 Off ch=6 n=57 v=0
3170146 On ch=6 n=57 v=127
3171104 Off ch=6 n=57 v=0
3171551 On ch=6 n=57 v=127
3173702 Off ch=6 n=57 v=0
3174111 On ch=6 n=57 v=127
3174569 Off ch=6 n=57 v=0
3216615 On ch=6 n=57 v=127
3218717 Off ch=6 n=57 v=0
3220795 On ch=6 n=57 v=127
3221051 Off ch=6 n=57 v=0
3230545 On ch=6 n=57 v=127
3230675 Off ch=6 n=57 v=0
3231210 On ch=6 n=57 v=127
3231341 Off ch=6 n=57 v=0
3290701 On ch=6 n=57 v=127
3290906 Off ch=6 n=57 v=0
3311672 On ch=6 n=57 v=127
3312747 Off ch=6 n=57 v=0
3393441 On ch=6 n=57 v=127
3393942 Off ch=6 n=57 v=0
3394066 On ch=6 n=57 v=127
3394525 Off ch=6 n=57 v=0
3395693 On ch=6 n=57 v=127
3396134 Off ch=6 n=57 v=0
3396260 On ch=6 n=57 v=127
3396702 Off ch=6 n=57 v=0
3398990 On ch=6 n=57 v=127
3399163 Off ch=6 n=57 v=0
3399813 On ch=6 n=57 v=127
3400565 Off ch=6 n=57 v=0
3403113 On ch=6 n=57 v=127
3403323 Off ch=6 n=57 v=0
3403958 On ch=6 n=57 v=127
3404503 Off ch=6 n=57 v=0
3407020 On ch=6 n=57 v=127
3407158 Off ch=6 n=57 v=0
3407329 On ch=6 n=57 v=127
3407470 Off ch=6 n=57 v=0
3461938 On ch=6 n=57 v=127
3462258 Off ch=6 n=57 v=0
3462393 On ch=6 n=57 v=127
3462887 Off ch=6 n=57 v=0
3467225 On ch=6 n=57 v=127
3467669 Off ch=6 n=57 v=0
3472363 On ch=6 n=57 v=127
3473868 Off ch=6 n=57 v=0
3477279 On ch=6 n=57 v=127
3479987 Off ch=6 n=57 v=0
3481203 On ch=6 n=57 v=127
3481418 Off ch=6 n=57 v=0
3481547 On ch=6 n=57 v=127
3481899 Off ch=6 n=57 v=0
3555836 On ch=6 n=57 v=127
3556384 Off ch=6 n=57 v=0
3598977 On ch=6 n=57 v=127
3599710 Off ch=6 n=57 v=0
3599860 On ch=6 n=57 v=127
3600576 Off ch=6 n=57 v=0
3600713 On ch=6 n=57 v=127
3601129 Off ch=6 n=57 v=0
3602014 On ch=6 n=57 v=127
3603924 Off ch=6 n=57 v=0
3604121 On ch=6 n=57 v=127
3604780 Off ch=6 n=57 v=0
3605130 On ch=6 n=57 v=127
3606430 Off ch=6 n=57 v=0
3606666 On ch=6 n=57 v=127
3607312 Off ch=6 n=57 v=0
3607435 On ch=6 n=57 v=127
3608070 Off ch=6 n=57 v=0
3609445 On ch=6 n=57 v=127
3610271 Off ch=6 n=57 v=0
3610465 On ch=6 n=57 v=127
3610889 Off ch=6 n=57 v=0
3611492 On ch=6 n=57 v=127
3612177 Off ch=6 n=57 v=0
3653169 On ch=6 n=57 v=127
3654406 Off ch=6 n=57 v=0
3681845 On ch=6 n=57 v=127
3683741 Off ch=6 n=57 v=0
3684200 On ch=6 n=57 v=127
3685329 Off ch=6 n=57 v=0
3685440 On ch=6 n=57 v=127
3686081 Off ch=6 n=57 v=0
3686484 On ch=6 n=57 v=127
3690400 Off ch=6 n=57 v=0
3761411 On ch=6 n=57 v=127
3761899 Off ch=6 n=57 v=0
3769753 On ch=6 n=57 v=127
3771421 Off ch=6 n=57 v=0
3772427 On ch=6 n=57 v=127
3774403 Off ch=6 n=57 v=0
3774602 On ch=6 n=57 v=127
3775263 Off ch=6 n=57 v=0
3775982 On ch=6 n=57 v=127
3776304 Off ch=6 n=57 v=0
3776447 On ch=6 n=57 v=127
3778556 Off ch=6 n=57 v=0
3835603 On ch=6 n=57 v=127
3835806 Off ch=6 n=57 v=0
3836219 On ch=6 n=57 v=127
3836421 Off ch=6 n=57 v=0
3895167 On ch=6 n=57 v=127
3896571 Off ch=6 n=57 v=0
3896714 On ch=6 n=57 v=127
3898391 Off ch=6 n=57 v=0
3959279 On ch=6 n=57 v=127
3960424 Off ch=6 n=57 v=0
3960537 On ch=6 n=57 v=127
3961075 Off ch=6 n=57 v=0
3961233 On ch=6 n=57 v=127
3962661 Off ch=6 n=57 v=0
3963413 On ch=6 n=57 v=127
3965260 Off ch=6 n=57 v=0
3967211 On ch=6 n=57 v=127
3968332 Off ch=6 n=57 v=0
3968921 On ch=6 n=57 v=127
3969326 Off ch=6 n=57 v=0
3969431 On ch=6 n=57 v=127
3970093 Off ch=6 n=57 v=0
3995450 On ch=6 n=57 v=127
3996216 Off ch=6 n=57 v=0
4002580 On ch=6 n=57 v=127
4003212 Off ch=6 n=57 v=0
4003384 On ch=6 n=57 v=127
4004891 Off ch=6 n=57 v=0
4139138 On ch=6 n=57 v=127
4139359 Off ch=6 n=57 v=0
4159453 On ch=6 n=57 v=127
4159737 Off ch=6 n=57 v=0
4170464 On ch=6 n=57 v=127
4171368 Off ch=6 n=57 v=0
4203743 On ch=6 n=57 v=127
4204030 Off ch=6 n=57 v=0
4262715 On ch=6 n=57 v=127
4263339 Off ch=6 n=57 v=0
4263485 On ch=6 n=57 v=127
4263807 Off ch=6 n=57 v=0
4302043 On ch=6 n=57 v=127
4302171 Off ch=6 n=57 v=0
4302410 On ch=6 n=57 v=127
4302533 Off ch=6 n=57 v=0
4305086 On ch=6 n=57 v=127
4305532 Off ch=6 n=57 v=0
4349507 On ch=6 n=57 v=127
4349764 Off ch=6 n=57 v=0
4357383 On ch=6 n=57 v=127
4358822 Off ch=6 n=57 v=0
4367155 On ch=6 n=57 v=127
4367691 Off ch=6 n=57 v=0
4367920 On ch=6 n=57 v=127
4368473 Off ch=6 n=57 v=0
4370006 On ch=6 n=57 v=127
4371661 Off ch=6 n=57 v=0
4407784 On ch=6 n=57 v=127
4409160 Off ch=6 n=57 v=0
4411374 On ch=6 n=57 v=127
4412552 Off ch=6 n=57 v=0
4419308 On ch=6 n=57 v=127
4419433 Off ch=6 n=57 v=0
4420097 On ch=6 n=57 v=127
4422002 Off ch=6 n=57 v=0
4424983 On ch=6 n=57 v=127
4426068 Off ch=6 n=57 v=0
4426335 On ch=6 n=57 v=127
4427369 Off ch=6 n=57 v=0
4427684 On ch=6 n=57 v=127
4428213 Off ch=6 n=57 v=0
4429314 On ch=6 n=57 v=127
4430078 Off ch=6 n=57 v=0
4432692 On ch=6 n=57 v=127
4434451 Off ch=6 n=57 v=0
4434553 On ch=6 n=57 v=127
4434690 Off ch=6 n=57 v=0
4437195 On ch=6 n=57 v=127
4437373 Off ch=6 n=57 v=0
4437829 On ch=6 n=57 v=127
4438004 Off ch=6 n=57 v=0
4438427 On ch=6 n=57 v=127
4439238 Off ch=6 n=57 v=0
4494095 On ch=6 n=57 v=127
4494773 Off ch=6 n=57 v=0
4494900 On ch=6 n=57 v=127
4495779 Off ch=6 n=57 v=0
4496054 On ch=6 n=57 v=127
4497314 Off ch=6 n=57 v=0
4497713 On ch=6 n=57 v=127
4499911 Off ch=6 n=57 v=0
4502829 On ch=6 n=57 v=127
4503920 Off ch=6 n=57 v=0
4505715 On ch=6 n=57 v=127
4506756 Off ch=6 n=57 v=0
4507050 On ch=6 n=57 v=127
4507676 Off ch=6 n=57 v=0
4507824 On ch=6 n=57 v=127
4508709 Off ch=6 n=57 v=0
4510282 On ch=6 n=57 v=127
4510660 Off ch=6 n=57 v=0
4510929 On ch=6 n=57 v=127
4511509 Off ch=6 n=57 v=0
4511887 On ch=6 n=57 v=127
4512623 Off ch=6 n=57 v=0
4521135 On ch=6 n=57 v=127
4522689 Off ch=6 n=57 v=0
4543418 On ch=6 n=57 v=127
4544086 Off ch=6 n=57 v=0
4592324 On ch=6 n=57 v=127
4592516 Off ch=6 n=57 v=0
4635261 On ch=6 n=57 v=127
4635374 Off ch=6 n=57 v=0
4635671 On ch=6 n=57 v=127
4635794 Off ch=6 n=57 v=0
4723011 On ch=6 n=57 v=127
4723521 Off ch=6 n=57 v=0
4724334 On ch=6 n=57 v=127
4724510 Off ch=6 n=57 v=0
4724932 On ch=6 n=57 v=127
4725111 Off ch=6 n=57 v=0
4725436 On ch=6 n=57 v=127
4726435 Off ch=6 n=57 v=0
4728598 On ch=6 n=57 v=127
4729233 Off ch=6 n=57 v=0
4750347 On ch=6 n=57 v=127
4752536 Off ch=6 n=57 v=0
4794415 On ch=6 n=57 v=127
4794906 Off ch=6 n=57 v=0
4866924 On ch=6 n=57 v=127
4867539 Off ch=6 n=57 v=0
4868850 On ch=6 n=57 v=127
4870283 Off ch=6 n=57 v=0
4870399 On ch=6 n=57 v=127
4870996 Off ch=6 n=57 v=0
4871232 On ch=6 n=57 v=127
4871612 Off ch=6 n=57 v=0
4872289 On ch=6 n=57 v=127
4872961 Off ch=6 n=57 v=0
4901673 On ch=6 n=57 v=127
4902294 Off ch=6 n=57 v=0
4920776 On ch=6 n=57 v=127
4921057 Off ch=6 n=57 v=0
4921633 On ch=6 n=57 v=127
4923987 Off ch=6 n=57 v=0
4924821 On ch=6 n=57 v=127
4926242 Off ch=6 n=57 v=0
4927146 On ch=6 n=57 v=127
4927743 Off ch=6 n=57 v=0
4928107 On ch=6 n=57 v=127
4928707 Off ch=6 n=57 v=0
4933826 On ch=6 n=57 v=127
4934163 Off ch=6 n=57 v=0
4934301 On ch=6 n=57 v=127
4934759 Off ch=6 n=57 v=0
4934922 On ch=6 n=57 v=127
4935742 Off ch=6 n=57 v=0
4936115 On ch=6 n=57 v=127
4936704 Off ch=6 n=57 v=0
4941773 On ch=6 n=57 v=127
4942153 Off ch=6 n=57 v=0
4942261 On ch=6 n=57 v=127
4942770 Off ch=6 n=57 v=0
4942873 On ch=6 n=57 v=127
4943745 Off ch=6 n=57 v=0
4944099 On ch=6 n=57 v=127
4944790 Off ch=6 n=57 v=0
4949844 On ch=6 n=57 v=127
4950775 Off ch=6 n=57 v=0
4950899 On ch=6 n=57 v=127
4951741 Off ch=6 n=57 v=0
4952089 On ch=6 n=57 v=127
4952706 Off ch=6 n=57 v=0
4958239 On ch=6 n=57 v=127
4958726 Off ch=6 n=57 v=0
4958869 On ch=6 n=57 v=127
4959739 Off ch=6 n=57 v=0
4960101 On ch=6 n=57 v=127
4960691 Off ch=6 n=57 v=0
4966008 On ch=6 n=57 v=127
4967945 Off ch=6 n=57 v=0
4978396 On ch=6 n=57 v=127
4978618 Off ch=6 n=57 v=0
4979149 On ch=6 n=57 v=127
4980632 Off ch=6 n=57 v=0
5010177 On ch=6 n=57 v=127
5010382 Off ch=6 n=57 v=0
5010797 On ch=6 n=57 v=127
5010987 Off ch=6 n=57 v=0
5020249 On ch=6 n=57 v=127
5020886 Off ch=6 n=57 v=0
5062039 On ch=6 n=57 v=127
5062205 Off ch=6 n=57 v=0
5080282 On ch=6 n=57 v=127
5080578 Off ch=6 n=57 v=0
5087516 On ch=6 n=57 v=127
5087920 Off ch=6 n=57 v=0
5170045 On ch=6 n=57 v=127
5170333 Off ch=6 n=57 v=0
5170437 On ch=6 n=57 v=127
5170670 Off ch=6 n=57 v=0
5189727 On ch=6 n=57 v=127
5191115 Off ch=6 n=57 v=0
5191231 On ch=6 n=57 v=127
5191609 Off ch=6 n=57 v=0
5191732 On ch=6 n=57 v=127
5192310 Off ch=6 n=57 v=0
5192692 On ch=6 n=57 v=127
5193086 Off ch=6 n=57 v=0
5196810 On ch=6 n=57 v=127
5197598 Off ch=6 n=57 v=0
5237190 On ch=6 n=57 v=127
5237879 Off ch=6 n=57 v=0
5238008 On ch=6 n=57 v=127
5238661 Off ch=6 n=57 v=0
5268863 On ch=6 n=57 v=127
5269398 Off ch=6 n=57 v=0
5398223 On ch=6 n=57 v=127
5398674 Off ch=6 n=57 v=0
5398865 On ch=6 n=57 v=127
5399406 Off ch=6 n=57 v=0
5430965 On ch=6 n=57 v=127
5431466 Off ch=6 n=57 v=0
5436528 On ch=6 n=57 v=127
5436678 Off ch=6 n=57 v=0
5436788 On ch=6 n=57 v=127
5436937 Off ch=6 n=57 v=0
5443595 On ch=6 n=57 v=127
5443837 Off ch=6 n=57 v=0
5448902 On ch=6 n=57 v=127
5449074 Off ch=6 n=57 v=0
5449269 On ch=6 n=57 v=127
5449441 Off ch=6 n=57 v=0
5574542 On ch=6 n=57 v=127
5575364 Off ch=6 n=57 v=0
5582738 On ch=6 n=57 v=127
5584042 Off ch=6 n=57 v=0
5603991 On ch=6 n=57 v=127
5604645 Off ch=6 n=57 v=0
5605670 On ch=6 n=57 v=127
5606975 Off ch=6 n=57 v=0
5607519 On ch=6 n=57 v=127
5607869 Off ch=6 n=57 v=0
5607980 On ch=6 n=57 v=127
5608535 Off ch=6 n=57 v=0
5610312 On ch=6 n=57 v=127
5610958 Off ch=6 n=57 v=0
5611423 On ch=6 n=57 v=127
5611999 Off ch=6 n=57 v=0
5612112 On ch=6 n=57 v=127
5612687 Off ch=6 n=57 v=0
5612929 On ch=6 n=57 v=127
5613551 Off ch=6 n=57 v=0
5613704 On ch=6 n=57 v=127
5614399 Off ch=6 n=57 v=0
5614548 On ch=6 n=57 v=127
5614881 Off ch=6 n=57 v=0
5615000 On ch=6 n=57 v=127
5615434 Off ch=6 n=57 v=0
5617800 On ch=6 n=57 v=127
5618212 Off ch=6 n=57 v=0
5618675 On ch=6 n=57 v=127
5619662 Off ch=6 n=57 v=0
5621325 On ch=6 n=57 v=127
5622038 Off ch=6 n=57 v=0
5623373 On ch=6 n=57 v=127
5624406 Off ch=6 n=57 v=0
5817916 On ch=6 n=57 v=127
5818774 Off ch=6 n=57 v=0
5818980 On ch=6 n=57 v=127
5819498 Off ch=6 n=57 v=0
5848375 On ch=6 n=57 v=127
5848617 Off ch=6 n=57 v=0
5848733 On ch=6 n=57 v=127
5849099 Off ch=6 n=57 v=0
5849320 On ch=6 n=57 v=127
5849539 Off ch=6 n=57 v=0
5849691 On ch=6 n=57 v=127
5850023 Off ch=6 n=57 v=0
5850227 On ch=6 n=57 v=127
5850990 Off ch=6 n=57 v=0
5851223 On ch=6 n=57 v=127
5851455 Off ch=6 n=57 v=0
5852408 On ch=6 n=57 v=127
5853345 Off ch=6 n=57 v=0
5855035 On ch=6 n=57 v=127
5855207 Off ch=6 n=57 v=0
5888114 On ch=6 n=57 v=127
5889275 Off ch=6 n=57 v=0
5935859 On ch=6 n=57 v=127
5936011 Off ch=6 n=57 v=0
5936730 On ch=6 n=57 v=127
5936890 Off ch=6 n=57 v=0
5941450 On ch=6 n=57 v=127
5942158 Off ch=6 n=57 v=0
5943141 On ch=6 n=57 v=127
5944057 Off ch=6 n=57 v=0
6007968 On ch=6 n=57 v=127
6008401 Off ch=6 n=57 v=0
6008584 On ch=6 n=57 v=127
6008863 Off ch=6 n=57 v=0
6078010 On ch=6 n=57 v=127
6078259 Off ch=6 n=57 v=0
6078798 On ch=6 n=57 v=127
6079053 Off ch=6 n=57 v=0
6085780 On ch=6 n=57 v=127
6085947 Off ch=6 n=57 v=0
6086579 On ch=6 n=57 v=127
6086737 Off ch=6 n=57 v=0
6120694 On ch=6 n=57 v=127
6121268 Off ch=6 n=57 v=0
6121503 On ch=6 n=57 v=127
6122076 Off ch=6 n=57 v=0
6146235 On ch=6 n=57 v=127
6147204 Off ch=6 n=57 v=0
6155329 On ch=6 n=57 v=127
6156368 Off ch=6 n=57 v=0
6250931 On ch=6 n=57 v=127
6251134 Off ch=6 n=57 v=0
6295277 On ch=6 n=57 v=127
6295816 Off ch=6 n=57 v=0
6325966 On ch=6 n=57 v=127
6326102 Off ch=6 n=57 v=0
6326363 On ch=6 n=57 v=127
6326514 Off ch=6 n=57 v=0
6375435 On ch=6 n=57 v=127
6375796 Off ch=6 n=57 v=0
6385421 On ch=6 n=57 v=127
6385822 Off ch=6 n=57 v=0
6386404 On ch=6 n=57 v=127
6386956 Off ch=6 n=57 v=0
6392542 On ch=6 n=57 v=127
6400089 Off ch=6 n=57 v=0
6416743 On ch=6 n=57 v=127
6418562 Off ch=6 n=57 v=0
6418677 On ch=6 n=57 v=127
6419379 Off ch=6 n=57 v=0
6419593 On ch=6 n=57 v=127
6424172 Off ch=6 n=57 v=0
6456251 On ch=6 n=57 v=127
6456642 Off ch=6 n=57 v=0
6456803 On ch=6 n=57 v=127
6457411 Off ch=6 n=57 v=0
6457533 On ch=6 n=57 v=127
6457683 Off ch=6 n=57 v=0
6480396 On ch=6 n=57 v=127
6481355 Off ch=6 n=57 v=0
6481547 On ch=6 n=57 v=127
6481971 Off ch=6 n=57 v=0
6497887 On ch=6 n=57 v=127
6498606 Off ch=6 n=57 v=0
6498860 On ch=6 n=57 v=127
6499586 Off ch=6 n=57 v=0
6515428 On ch=6 n=57 v=127
6516079 Off ch=6 n=57 v=0
6574976 On ch=6 n=57 v=127
6575146 Off ch=6 n=57 v=0
6594918 On ch=6 n=57 v=127
6595312 Off ch=6 n=57 v=0
6608485 On ch=6 n=57 v=127
6608971 Off ch=6 n=57 v=0
6781597 On ch=6 n=57 v=127
6781790 Off ch=6 n=57 v=0
6782192 On ch=6 n=57 v=127
6782386 Off ch=6 n=57 v=0
6826919 On ch=6 n=57 v=127
6827222 Off ch=6 n=57 v=0
6847407 On ch=6 n=57 v=127
6847589 Off ch=6 n=57 v=0
6848055 On ch=6 n=57 v=127
6848683 Off ch=6 n=57 v=0
6905846 On ch=6 n=57 v=127
6906354 Off ch=6 n=57 v=0
6906476 On ch=6 n=57 v=127
6906997 Off ch=6 n=57 v=0
6949055 On ch=6 n=57 v=127
6950154 Off ch=6 n=57 v=0
6954758 On ch=6 n=57 v=127
6955231 Off ch=6 n=57 v=0
7019128 On ch=6 n=57 v=127
7019407 Off ch=6 n=57 v=0
7036211 On ch=6 n=57 v=127
7036923 Off ch=6 n=57 v=0
7038753 On ch=6 n=57 v=127
7039587 Off ch=6 n=57 v=0
7044782 On ch=6 n=57 v=127
7045131 Off ch=6 n=57 v=0
7045281 On ch=6 n=57 v=127
7045662 Off ch=6 n=57 v=0
7045784 On ch=6 n=57 v=127
7046695 Off ch=6 n=57 v=0
7047303 On ch=6 n=57 v=127
7048255 Off ch=6 n=57 v=0
7048373 On ch=6 n=57 v=127
7049219 Off ch=6 n=57 v=0
7049358 On ch=6 n=57 v=127
7049758 Off ch=6 n=57 v=0
7050045 On ch=6 n=57 v=127
7051792 Off ch=6 n=57 v=0
7052627 On ch=6 n=57 v=127
7052913 Off ch=6 n=57 v=0
7053028 On ch=6 n=57 v=127
7053981 Off ch=6 n=57 v=0
7054797 On ch=6 n=57 v=127
7055134 Off ch=6 n=57 v=0
7058740 On ch=6 n=57 v=127
7062861 Off ch=6 n=57 v=0
7108401 On ch=6 n=57 v=127
7108713 Off ch=6 n=57 v=0
7166943 On ch=6 n=57 v=127
7167358 Off ch=6 n=57 v=0
7180294 On ch=6 n=57 v=127
7180845 Off ch=6 n=57 v=0
7181623 On ch=6 n=57 v=127
7182544 Off ch=6 n=57 v=0
7182769 On ch=6 n=57 v=127
7183205 Off ch=6 n=57 v=0
7258073 On ch=6 n=57 v=127
7258980 Off ch=6 n=57 v=0
7341237 On ch=6 n=57 v=127
7341694 Off ch=6 n=57 v=0
7412045 On ch=6 n=57 v=127
7413107 Off ch=6 n=57 v=0
7413226 On ch=6 n=57 v=127
7413508 Off ch=6 n=57 v=0
7433076 On ch=6 n=57 v=127
7433574 Off ch=6 n=57 v=0
7474954 On ch=6 n=57 v=127
7475264 Off ch=6 n=57 v=0
7564239 On ch=6 n=57 v=127
7564399 Off ch=6 n=57 v=0
7564594 On ch=6 n=57 v=127
7564759 Off ch=6 n=57 v=0
7601124 On ch=6 n=57 v=127
7601453 Off ch=6 n=57 v=0
7611941 On ch=6 n=57 v=127
7612279 Off ch=6 n=57 v=0
7654850 On ch=6 n=57 v=127
7655165 Off ch=6 n=57 v=0
7655577 On ch=6 n=57 v=127
7655889 Off ch=6 n=57 v=0
7663544 On ch=6 n=57 v=127
7663745 Off ch=6 n=57 v=0
7724145 On ch=6 n=57 v=127
7724350 Off ch=6 n=57 v=0
7764970 On ch=6 n=57 v=127
7765870 Off ch=6 n=57 v=0
7889864 On ch=6 n=57 v=127
7890197 Off ch=6 n=57 v=0
7891393 On ch=6 n=57 v=127
7891655 Off ch=6 n=57 v=0
7891981 On ch=6 n=57 v=127
7892369 Off ch=6 n=57 v=0
7892522 On ch=6 n=57 v=127
7892839 Off ch=6 n=57 v=0
7893001 On ch=6 n=57 v=127
7893356 Off ch=6 n=57 v=0
7945094 On ch=6 n=57 v=127
7945580 Off ch=6 n=57 v=0
7980749 On ch=6 n=57 v=127
7981006 Off ch=6 n=57 v=0
7999479 On ch=6 n=57 v=127
7999916 Off ch=6 n=57 v=0
8002840 On ch=6 n=57 v=127
8003073 Off ch=6 n=57 v=0
8021310 On ch=6 n=57 v=127
8022925 Off ch=6 n=57 v=0
8035350 On ch=6 n=57 v=127
8041959 Off ch=6 n=57 v=0
8053631 On ch=6 n=57 v=127
8053893 Off ch=6 n=57 v=0
8060894 On ch=6 n=57 v=127
8061233 Off ch=6 n=57 v=0
8061428 On ch=6 n=57 v=127
8061599 Off ch=6 n=57 v=0
8075403 On ch=6 n=57 v=127
8075856 Off ch=6 n=57 v=0
8088756 On ch=6 n=57 v=127
8089405 Off ch=6 n=57 v=0
8122949 On ch=6 n=57 v=127
8122962 On ch=6 n=57 v=127
8124637 Off ch=6 n=57 v=0
8124703 Off ch=6 n=57 v=0
8146081 On ch=6 n=57 v=127
8148840 Off ch=6 n=57 v=0
8148967 On ch=6 n=57 v=127
8150128 Off ch=6 n=57 v=0
8150311 On ch=6 n=57 v=127
8151087 Off ch=6 n=57 v=0
8193492 On ch=6 n=57 v=127
8194898 Off ch=6 n=57 v=0
8247237 On ch=6 n=57 v=127
8248011 Off ch=6 n=57 v=0
8264685 On ch=6 n=57 v=127
8265180 Off ch=6 n=57 v=0
8268491 On ch=6 n=57 v=127
8269477 Off ch=6 n=57 v=0
8277879 On ch=6 n=57 v=127
8278301 Off ch=6 n=57 v=0
8278536 On ch=6 n=57 v=127
8279000 Off ch=6 n=57 v=0
8279286 On ch=6 n=57 v=127
8279723 Off ch=6 n=57 v=0
8381613 On ch=6 n=57 v=127
8382185 Off ch=6 n=57 v=0
8396032 On ch=6 n=57 v=127
8399550 Off ch=6 n=57 v=0
8399979 On ch=6 n=57 v=127
8410870 Off ch=6 n=57 v=0
8435806 On ch=6 n=57 v=127
8436474 Off ch=6 n=57 v=0
8447966 On ch=6 n=57 v=127
8448855 Off ch=6 n=57 v=0
8517518 On ch=6 n=57 v=127
8517803 Off ch=6 n=57 v=0
8526743 On ch=6 n=57 v=127
8527257 Off ch=6 n=57 v=0
8527701 On ch=6 n=57 v=127
8527889 Off ch=6 n=57 v=0
8528079 On ch=6 n=57 v=127
8528272 Off ch=6 n=57 v=0
8566118 On ch=6 n=57 v=127
8566649 Off ch=6 n=57 v=0
8575180 On ch=6 n=57 v=127
8575526 Off ch=6 n=57 v=0
8575689 On ch=6 n=57 v=127
8576686 Off ch=6 n=57 v=0
8576829 On ch=6 n=57 v=127
8578340 Off ch=6 n=57 v=0
8581322 On ch=6 n=57 v=127
8581503 Off ch=6 n=57 v=0
8581957 On ch=6 n=57 v=127
8582133 Off ch=6 n=57 v=0
8582568 On ch=6 n=57 v=127
8583389 Off ch=6 n=57 v=0
8646542 On ch=6 n=57 v=127
8647294 Off ch=6 n=57 v=0
8656780 On ch=6 n=57 v=127
8658138 Off ch=6 n=57 v=0
8667166 On ch=6 n=57 v=127
8667522 Off ch=6 n=57 v=0
8709125 On ch=6 n=57 v=127
8710942 Off ch=6 n=57 v=0
8711116 On ch=6 n=57 v=127
8711480 Off ch=6 n=57 v=0
8715318 On ch=6 n=57 v=127
8717078 Off ch=6 n=57 v=0
8718789 On ch=6 n=57 v=127
8719200 Off ch=6 n=57 v=0
8719522 On ch=6 n=57 v=127
8720618 Off ch=6 n=57 v=0
8724525 On ch=6 n=57 v=127
8724952 Off ch=6 n=57 v=0
8802174 On ch=6 n=57 v=127
8802399 Off ch=6 n=57 v=0
8829260 On ch=6 n=57 v=127
8830441 Off ch=6 n=57 v=0
8882921 On ch=6 n=57 v=127
8884755 Off ch=6 n=57 v=0
8885060 On ch=6 n=57 v=127
8885382 Off ch=6 n=57 v=0
8885762 On ch=6 n=57 v=127
8886007 Off ch=6 n=57 v=0
8962131 On ch=6 n=57 v=127
8962240 Off ch=6 n=57 v=0
8962729 On ch=6 n=57 v=127
8962841 Off ch=6 n=57 v=0
9053244 On ch=6 n=57 v=127
9053715 Off ch=6 n=57 v=0
9053891 On ch=6 n=57 v=127
9054271 Off ch=6 n=57 v=0
9057578 On ch=6 n=57 v=127
9057957 Off ch=6 n=57 v=0
9062423 On ch=6 n=57 v=127
9062860 Off ch=6 n=57 v=0
9063224 On ch=6 n=57 v=127
9063676 Off ch=6 n=57 v=0
9064044 On ch=6 n=57 v=127
9064773 Off ch=6 n=57 v=0
9092640 On ch=6 n=57 v=127
9093453 Off ch=6 n=57 v=0
9177916 On ch=6 n=57 v=127
9178663 Off ch=6 n=57 v=0
9178780 On ch=6 n=57 v=127
9180125 Off ch=6 n=57 v=0
9272023 On ch=6 n=57 v=127
9272347 Off ch=6 n=57 v=0
9272456 On ch=6 n=57 v=127
9272627 Off ch=6 n=57 v=0
9275412 On ch=6 n=57 v=127
9277554 Off ch=6 n=57 v=0
9318115 On ch=6 n=57 v=127
9318334 Off ch=6 n=57 v=0
9370305 On ch=6 n=57 v=127
9372231 Off ch=6 n=57 v=0
9392280 On ch=6 n=57 v=127
9392756 Off ch=6 n=57 v=0
9392932 On ch=6 n=57 v=127
9393265 Off ch=6 n=57 v=0
9470245 On ch=6 n=57 v=127
9470854 Off ch=6 n=57 v=0
9471786 On ch=6 n=57 v=127
9472437 Off ch=6 n=57 v=0
9472988 On ch=6 n=57 v=127
9473392 Off ch=6 n=57 v=0
9475425 On ch=6 n=57 v=127
9475991 Off ch=6 n=57 v=0
9481655 On ch=6 n=57 v=127
9482517 Off ch=6 n=57 v=0
9483055 On ch=6 n=57 v=127
9483662 Off ch=6 n=57 v=0
9498496 On ch=6 n=57 v=127
9498627 Off ch=6 n=57 v=0
9499651 On ch=6 n=57 v=127
9500220 Off ch=6 n=57 v=0
9503570 On ch=6 n=57 v=127
9504391 Off ch=6 n=57 v=0
9506951 On ch=6 n=57 v=127
9507404 Off ch=6 n=57 v=0
9508394 On ch=6 n=57 v=127
9509126 Off ch=6 n=57 v=0
9509492 On ch=6 n=57 v=127
9509809 Off ch=6 n=57 v=0
9510950 On ch=6 n=57 v=127
9511763 Off ch=6 n=57 v=0
9512146 On ch=6 n=57 v=127
9512606 Off ch=6 n=57 v=0
9513577 On ch=6 n=57 v=127
9514784 Off ch=6 n=57 v=0
9515138 On ch=6 n=57 v=127
9515439 Off ch=6 n=57 v=0
9518461 On ch=6 n=57 v=127
9518786 Off ch=6 n=57 v=0
9519651 On ch=6 n=57 v=127
9520427 Off ch=6 n=57 v=0
9520755 On ch=6 n=57 v=127
9521083 Off ch=6 n=57 v=0
9525721 On ch=6 n=57 v=127
9526053 Off ch=6 n=57 v=0
9526176 On ch=6 n=57 v=127
9526459 Off ch=6 n=57 v=0
9544293 On ch=6 n=57 v=127
9544937 Off ch=6 n=57 v=0
9545290 On ch=6 n=57 v=127
9545964 Off ch=6 n=57 v=0
9546553 On ch=6 n=57 v=127
9547740 Off ch=6 n=57 v=0
9605544 On ch=6 n=57 v=127
9607026 Off ch=6 n=57 v=0
9621148 On ch=6 n=57 v=127
9624304 Off ch=6 n=57 v=0
9624909 On ch=6 n=57 v=127
9625250 Off ch=6 n=57 v=0
9635230 On ch=6 n=57 v=127
9635723 Off ch=6 n=57 v=0
9637973 On ch=6 n=57 v=127
9639057 Off ch=6 n=57 v=0
9639366 On ch=6 n=57 v=127
9639554 Off ch=6 n=57 v=0
9639723 On ch=6 n=57 v=127
9641976 Off ch=6 n=57 v=0
9645619 On ch=6 n=57 v=127
9647800 Off ch=6 n=57 v=0
9648349 On ch=6 n=57 v=127
9649659 Off ch=6 n=57 v=0
9705369 On ch=6 n=57 v=127
9705629 Off ch=6 n=57 v=0
9743189 On ch=6 n=57 v=127
9743196 On ch=6 n=57 v=127
9743352 Off ch=6 n=57 v=0
9743354 Off ch=6 n=57 v=0
9743476 On ch=6 n=57 v=127
9743508 On ch=6 n=57 v=127
9744631 Off ch=6 n=57 v=0
9744674 Off ch=6 n=57 v=0
9904398 On ch=6 n=57 v=127
9904652 Off ch=6 n=57 v=0
9925290 On ch=6 n=57 v=127
9925604 Off ch=6 n=57 v=0
9925712 On ch=6 n=57 v=127
9926006 Off ch=6 n=57 v=0
9940748 On ch=6 n=57 v=127
9942377 Off ch=6 n=57 v=0
9947526 On ch=6 n=57 v=127
9947713 Off ch=6 n=57 v=0
9947886 On ch=6 n=57 v=127
9948028 Off ch=6 n=57 v=0
10040623 On ch=6 n=57 v=127
10040920 Off ch=6 n=57 v=0
10049726 On ch=6 n=57 v=127
10049942 Off ch=6 n=57 v=0
10050270 On ch=6 n=57 v=127
10051015 Off ch=6 n=57 v=0
10052022 On ch=6 n=57 v=127
10052371 Off ch=6 n=57 v=0
10052891 On ch=6 n=57 v=127
10053212 Off ch=6 n=57 v=0
10055256 On ch=6 n=57 v=127
10055791 Off ch=6 n=57 v=0
10056076 On ch=6 n=57 v=127
10056337 Off ch=6 n=57 v=0
10068830 On ch=6 n=57 v=127
10070111 Off ch=6 n=57 v=0
10093778 On ch=6 n=57 v=127
10095386 Off ch=6 n=57 v=0
10095526 On ch=6 n=57 v=127
10095881 Off ch=6 n=57 v=0
10096778 On ch=6 n=57 v=127
10097606 Off ch=6 n=57 v=0
10098490 On ch=6 n=57 v=127
10099365 Off ch=6 n=57 v=0
10100266 On ch=6 n=57 v=127
10102115 Off ch=6 n=57 v=0
10102246 On ch=6 n=57 v=127
10102807 Off ch=6 n=57 v=0
10126861 On ch=6 n=57 v=127
10127187 Off ch=6 n=57 v=0
10127398 On ch=6 n=57 v=127
10127627 Off ch=6 n=57 v=0
10127845 On ch=6 n=57 v=127
10128051 Off ch=6 n=57 v=0
10246148 On ch=6 n=57 v=127
10246660 Off ch=6 n=57 v=0
10258703 On ch=6 n=57 v=127
10259731 Off ch=6 n=57 v=0
10260085 On ch=6 n=57 v=127
10260342 Off ch=6 n=57 v=0
10260614 On ch=6 n=57 v=127
10261287 Off ch=6 n=57 v=0
10262510 On ch=6 n=57 v=127
10263099 Off ch=6 n=57 v=0
10263469 On ch=6 n=57 v=127
10264345 Off ch=6 n=57 v=0
10264888 On ch=6 n=57 v=127
10265653 Off ch=6 n=57 v=0
10265836 On ch=6 n=57 v=127
10266923 Off ch=6 n=57 v=0
10268580 On ch=6 n=57 v=127
10270269 Off ch=6 n=57 v=0
10270558 On ch=6 n=57 v=127
10272650 Off ch=6 n=57 v=0
10272857 On ch=6 n=57 v=127
10273132 Off ch=6 n=57 v=0
10273681 On ch=6 n=57 v=127
10274121 Off ch=6 n=57 v=0
10274260 On ch=6 n=57 v=127
10275340 Off ch=6 n=57 v=0
10275466 On ch=6 n=57 v=127
10276053 Off ch=6 n=57 v=0
10295872 On ch=6 n=57 v=127
10296331 Off ch=6 n=57 v=0
10296473 On ch=6 n=57 v=127
10301002 Off ch=6 n=57 v=0
10305872 On ch=6 n=57 v=127
10306067 Off ch=6 n=57 v=0
10306503 On ch=6 n=57 v=127
10306697 Off ch=6 n=57 v=0
10314187 On ch=6 n=57 v=127
10314897 Off ch=6 n=57 v=0
10348563 On ch=6 n=57 v=127
10348698 Off ch=6 n=57 v=0
10349224 On ch=6 n=57 v=127
10349366 Off ch=6 n=57 v=0
10356776 On ch=6 n=57 v=127
10357571 Off ch=6 n=57 v=0
10462449 On ch=6 n=57 v=127
10467321 Off ch=6 n=57 v=0
10493657 On ch=6 n=57 v=127
10493840 Off ch=6 n=57 v=0
10494301 On ch=6 n=57 v=127
10494492 Off ch=6 n=57 v=0
10520892 On ch=6 n=57 v=127
10521924 Off ch=6 n=57 v=0
10615427 On ch=6 n=57 v=127
10617106 Off ch=6 n=57 v=0
10617873 On ch=6 n=57 v=127
10618255 Off ch=6 n=57 v=0
10618445 On ch=6 n=57 v=127
10619230 Off ch=6 n=57 v=0
10630682 On ch=6 n=57 v=127
10632832 Off ch=6 n=57 v=0
10687270 On ch=6 n=57 v=127
10687291 On ch=6 n=57 v=127
10687456 Off ch=6 n=57 v=0
10687461 Off ch=6 n=57 v=0
10687644 On ch=6 n=57 v=127
10687662 On ch=6 n=57 v=127
10687828 Off ch=6 n=57 v=0
10687828 Off ch=6 n=57 v=0
10753783 On ch=6 n=57 v=127
10754032 Off ch=6 n=57 v=0
10806930 On ch=6 n=57 v=127
10807095 Off ch=6 n=57 v=0
10807455 On ch=6 n=57 v=127
10807620 Off ch=6 n=57 v=0
10812799 On ch=6 n=57 v=127
10813840 Off ch=6 n=57 v=0
10830464 On ch=6 n=57 v=127
10830832 Off ch=6 n=57 v=0
10848412 On ch=6 n=57 v=127
10850474 Off ch=6 n=57 v=0
10850667 On ch=6 n=57 v=127
10851301 Off ch=6 n=57 v=0
10851495 On ch=6 n=57 v=127
10853367 Off ch=6 n=57 v=0
10855471 On ch=6 n=57 v=127
10856196 Off ch=6 n=57 v=0
10856319 On ch=6 n=57 v=127
10857058 Off ch=6 n=57 v=0
10857205 On ch=6 n=57 v=127
10859125 Off ch=6 n=57 v=0
10859244 On ch=6 n=57 v=127
10859611 Off ch=6 n=57 v=0
10860141 On ch=6 n=57 v=127
10861804 Off ch=6 n=57 v=0
10867590 On ch=6 n=57 v=127
10867761 Off ch=6 n=57 v=0
10867945 On ch=6 n=57 v=127
10868104 Off ch=6 n=57 v=0
10966646 On ch=6 n=57 v=127
10967162 Off ch=6 n=57 v=0
10967476 On ch=6 n=57 v=127
10967884 Off ch=6 n=57 v=0
11043046 On ch=6 n=57 v=127
11045278 Off ch=6 n=57 v=0
11093662 On ch=6 n=57 v=127
11094332 Off ch=6 n=57 v=0
11094514 On ch=6 n=57 v=127
11095249 Off ch=6 n=57 v=0
11097321 On ch=6 n=57 v=127
11097636 Off ch=6 n=57 v=0
11121514 On ch=6 n=57 v=127
11122814 Off ch=6 n=57 v=0
11191163 On ch=6 n=57 v=127
11191291 Off ch=6 n=57 v=0
11191551 On ch=6 n=57 v=127
11191676 Off ch=6 n=57 v=0
11201428 On ch=6 n=57 v=127
11202213 Off ch=6 n=57 v=0
11231430 On ch=6 n=57 v=127
11231926 Off ch=6 n=57 v=0
11232173 On ch=6 n=57 v=127
11232693 Off ch=6 n=57 v=0
11245440 On ch=6 n=57 v=127
11246906 Off ch=6 n=57 v=0
11278981 On ch=6 n=57 v=127
11280031 Off ch=6 n=57 v=0
11371882 On ch=6 n=57 v=127
11372422 Off ch=6 n=57 v=0
11478337 On ch=6 n=57 v=127
11478527 Off ch=6 n=57 v=0
11478830 On ch=6 n=57 v=127
11479005 Off ch=6 n=57 v=0
11485072 On ch=6 n=57 v=127
11487747 Off ch=6 n=57 v=0
11487878 On ch=6 n=57 v=127
11488394 Off ch=6 n=57 v=0
11488513 On ch=6 n=57 v=127
11488943 Off ch=6 n=57 v=0
11489570 On ch=6 n=57 v=127
11489982 Off ch=6 n=57 v=0
11490101 On ch=6 n=57 v=127
11493510 Off ch=6 n=57 v=0
11495737 On ch=6 n=57 v=127
11496632 Off ch=6 n=57 v=0
11496735 On ch=6 n=57 v=127
11499273 Off ch=6 n=57 v=0
11500066 On ch=6 n=57 v=127
11501258 Off ch=6 n=57 v=0
11501516 On ch=6 n=57 v=127
11501925 Off ch=6 n=57 v=0
11502142 On ch=6 n=57 v=127
11505171 Off ch=6 n=57 v=0
11505798 On ch=6 n=57 v=127
11507102 Off ch=6 n=57 v=0
11507362 On ch=6 n=57 v=127
11507628 Off ch=6 n=57 v=0
11512082 On ch=6 n=57 v=127
11512250 Off ch=6 n=57 v=0
11512690 On ch=6 n=57 v=127
11513029 Off ch=6 n=57 v=0
11513162 On ch=6 n=57 v=127
11514250 Off ch=6 n=57 v=0
11519688 On ch=6 n=57 v=127
11520223 Off ch=6 n=57 v=0
11522900 On ch=6 n=57 v=127
11523989 Off ch=6 n=57 v=0
11548054 On ch=6 n=57 v=127
11548871 Off ch=6 n=57 v=0
11574486 On ch=6 n=57 v=127
11575431 Off ch=6 n=57 v=0
11575877 On ch=6 n=57 v=127
11576661 Off ch=6 n=57 v=0
11576763 On ch=6 n=57 v=127
11577790 Off ch=6 n=57 v=0
11583992 On ch=6 n=57 v=127
11585274 Off ch=6 n=57 v=0
11585398 On ch=6 n=57 v=127
11586822 Off ch=6 n=57 v=0
11587883 On ch=6 n=57 v=127
11589428 Off ch=6 n=57 v=0
11589533 On ch=6 n=57 v=127
11589982 Off ch=6 n=57 v=0
11590495 On ch=6 n=57 v=127
11591810 Off ch=6 n=57 v=0
11592228 On ch=6 n=57 v=127
11592640 Off ch=6 n=57 v=0
11592744 On ch=6 n=57 v=127
11593181 Off ch=6 n=57 v=0
11595899 On ch=6 n=57 v=127
11596334 Off ch=6 n=57 v=0
11596437 On ch=6 n=57 v=127
11596842 Off ch=6 n=57 v=0
11596974 On ch=6 n=57 v=127
11597385 Off ch=6 n=57 v=0
11597504 On ch=6 n=57 v=127
11597915 Off ch=6 n=57 v=0
11598049 On ch=6 n=57 v=127
11598421 Off ch=6 n=57 v=0
11598569 On ch=6 n=57 v=127
11598925 Off ch=6 n=57 v=0
11599051 On ch=6 n=57 v=127
11599446 Off ch=6 n=57 v=0
11599577 On ch=6 n=57 v=127
11601089 Off ch=6 n=57 v=0
11602253 On ch=6 n=57 v=127
11603176 Off ch=6 n=57 v=0
11603321 On ch=6 n=57 v=127
11603730 Off ch=6 n=57 v=0
11623618 On ch=6 n=57 v=127
11623896 Off ch=6 n=57 v=0
11714609 On ch=6 n=57 v=127
11716324 Off ch=6 n=57 v=0
11716458 On ch=6 n=57 v=127
11717602 Off ch=6 n=57 v=0
11717716 On ch=6 n=57 v=127
11719097 Off ch=6 n=57 v=0
11720438 On ch=6 n=57 v=127
11720716 Off ch=6 n=57 v=0
11723476 On ch=6 n=57 v=127
11724453 Off ch=6 n=57 v=0
11724630 On ch=6 n=57 v=127
11725409 Off ch=6 n=57 v=0
11725538 On ch=6 n=57 v=127
11725843 Off ch=6 n=57 v=0
11727731 On ch=6 n=57 v=127
11728048 Off ch=6 n=57 v=0
11730699 On ch=6 n=57 v=127
11731098 Off ch=6 n=57 v=0
11731203 On ch=6 n=57 v=127
11731395 Off ch=6 n=57 v=0
11731558 On ch=6 n=57 v=127
11732218 Off ch=6 n=57 v=0
11733251 On ch=6 n=57 v=127
11733787 Off ch=6 n=57 v=0
11741047 On ch=6 n=57 v=127
11741233 Off ch=6 n=57 v=0
11741642 On ch=6 n=57 v=127
11741829 Off ch=6 n=57 v=0
11748791 On ch=6 n=57 v=127
11749289 Off ch=6 n=57 v=0
11749536 On ch=6 n=57 v=127
11750157 Off ch=6 n=57 v=0
11750340 On ch=6 n=57 v=127
11750801 Off ch=6 n=57 v=0
11815707 On ch=6 n=57 v=127
11816057 Off ch=6 n=57 v=0
11821262 On ch=6 n=57 v=127
11821421 Off ch=6 n=57 v=0
11821544 On ch=6 n=57 v=127
11821728 Off ch=6 n=57 v=0
11821840 On ch=6 n=57 v=127
11822007 Off ch=6 n=57 v=0
11822146 On ch=6 n=57 v=127
11822303 Off ch=6 n=57 v=0
11827891 On ch=6 n=57 v=127
11831069 Off ch=6 n=57 v=0
11836844 On ch=6 n=57 v=127
11838149 Off ch=6 n=57 v=0
11838275 On ch=6 n=57 v=127
11844419 Off ch=6 n=57 v=0
11845853 On ch=6 n=57 v=127
11850983 Off ch=6 n=57 v=0
11851132 On ch=6 n=57 v=127
11855527 Off ch=6 n=57 v=0
11855689 On ch=6 n=57 v=127
11857814 Off ch=6 n=57 v=0
11859484 On ch=6 n=57 v=127
11859766 Off ch=6 n=57 v=0
11905595 On ch=6 n=57 v=127
11905953 Off ch=6 n=57 v=0
11968173 On ch=6 n=57 v=127
11968703 Off ch=6 n=57 v=0
12001617 On ch=6 n=57 v=127
12001750 Off ch=6 n=57 v=0
12001888 On ch=6 n=57 v=127
12002021 Off ch=6 n=57 v=0
12013343 On ch=6 n=57 v=127
12013593 Off ch=6 n=57 v=0
12023809 On ch=6 n=57 v=127
12024005 Off ch=6 n=57 v=0
12061199 On ch=6 n=57 v=127
12062180 Off ch=6 n=57 v=0
12209922 On ch=6 n=57 v=127
12210227 Off ch=6 n=57 v=0
12210405 On ch=6 n=57 v=127
12210888 Off ch=6 n=57 v=0
12224589 On ch=6 n=57 v=127
12225237 Off ch=6 n=57 v=0
12258123 On ch=6 n=57 v=127
12258746 Off ch=6 n=57 v=0
12289923 On ch=6 n=57 v=127
12290302 Off ch=6 n=57 v=0
12302309 On ch=6 n=57 v=127
12302586 Off ch=6 n=57 v=0
12302760 On ch=6 n=57 v=127
12302971 Off ch=6 n=57 v=0
12303117 On ch=6 n=57 v=127
12304035 Off ch=6 n=57 v=0
12308821 On ch=6 n=57 v=127
12309173 Off ch=6 n=57 v=0
12309367 On ch=6 n=57 v=127
12310006 Off ch=6 n=57 v=0
12310193 On ch=6 n=57 v=127
12310501 Off ch=6 n=57 v=0
12310723 On ch=6 n=57 v=127
12312239 Off ch=6 n=57 v=0
12312394 On ch=6 n=57 v=127
12312817 Off ch=6 n=57 v=0
12312928 On ch=6 n=57 v=127
12314388 Off ch=6 n=57 v=0
12314496 On ch=6 n=57 v=127
12314821 Off ch=6 n=57 v=0
12321291 On ch=6 n=57 v=127
12321470 Off ch=6 n=57 v=0
12321872 On ch=6 n=57 v=127
12322034 Off ch=6 n=57 v=0
12336292 On ch=6 n=57 v=127
12336712 Off ch=6 n=57 v=0
12336944 On ch=6 n=57 v=127
12337308 Off ch=6 n=57 v=0
12347287 On ch=6 n=57 v=127
12348379 Off ch=6 n=57 v=0
12481418 On ch=6 n=57 v=127
12481805 Off ch=6 n=57 v=0
12529947 On ch=6 n=57 v=127
12530344 Off ch=6 n=57 v=0
12531263 On ch=6 n=57 v=127
12531378 Off ch=6 n=57 v=0
12531858 On ch=6 n=57 v=127
12531995 Off ch=6 n=57 v=0
12535905 On ch=6 n=57 v=127
12537234 Off ch=6 n=57 v=0
12538491 On ch=6 n=57 v=127
12540129 Off ch=6 n=57 v=0
12555879 On ch=6 n=57 v=127
12556442 Off ch=6 n=57 v=0
12557706 On ch=6 n=57 v=127
12557902 Off ch=6 n=57 v=0
12563157 On ch=6 n=57 v=127
12563721 Off ch=6 n=57 v=0
12706613 On ch=6 n=57 v=127
12707170 Off ch=6 n=57 v=0
12707389 On ch=6 n=57 v=127
12707939 Off ch=6 n=57 v=0
12797328 On ch=6 n=57 v=127
12801295 Off ch=6 n=57 v=0
12830698 On ch=6 n=57 v=127
12831422 Off ch=6 n=57 v=0
12881070 On ch=6 n=57 v=127
12881413 Off ch=6 n=57 v=0
12922934 On ch=6 n=57 v=127
12923531 Off ch=6 n=57 v=0
12937076 On ch=6 n=57 v=127
12937875 Off ch=6 n=57 v=0
12953006 On ch=6 n=57 v=127
12953700 Off ch=6 n=57 v=0
12996446 On ch=6 n=57 v=127
12996953 Off ch=6 n=57 v=0
12998626 On ch=6 n=57 v=127
12998980 Off ch=6 n=57 v=0
13147516 On ch=6 n=57 v=127
13149426 Off ch=6 n=57 v=0
13149563 On ch=6 n=57 v=127
13150452 Off ch=6 n=57 v=0
13150824 On ch=6 n=57 v=127
13151760 Off ch=6 n=57 v=0
13155676 On ch=6 n=57 v=127
13156038 Off ch=6 n=57 v=0
13156535 On ch=6 n=57 v=127
13156840 Off ch=6 n=57 v=0
13157550 On ch=6 n=57 v=127
13158521 Off ch=6 n=57 v=0
13158640 On ch=6 n=57 v=127
13160245 Off ch=6 n=57 v=0
13160505 On ch=6 n=57 v=127
13160738 Off ch=6 n=57 v=0
13160907 On ch=6 n=57 v=127
13162824 Off ch=6 n=57 v=0
13164293 On ch=6 n=57 v=127
13164886 Off ch=6 n=57 v=0
13165138 On ch=6 n=57 v=127
13166055 Off ch=6 n=57 v=0
13239103 On ch=6 n=57 v=127
13240049 Off ch=6 n=57 v=0
13240167 On ch=6 n=57 v=127
13240488 Off ch=6 n=57 v=0
13291007 On ch=6 n=57 v=127
13292178 Off ch=6 n=57 v=0
13294552 On ch=6 n=57 v=127
13296466 Off ch=6 n=57 v=0
13296727 On ch=6 n=57 v=127
13297493 Off ch=6 n=57 v=0
13298262 On ch=6 n=57 v=127
13298651 Off ch=6 n=57 v=0
13298864 On ch=6 n=57 v=127
13299199 Off ch=6 n=57 v=0
13299373 On ch=6 n=57 v=127
13299735 Off ch=6 n=57 v=0
13319111 On ch=6 n=57 v=127
13319232 Off ch=6 n=57 v=0
13319476 On ch=6 n=57 v=127
13319601 Off ch=6 n=57 v=0
13383609 On ch=6 n=57 v=127
13384079 Off ch=6 n=57 v=0
13384599 On ch=6 n=57 v=127
13388762 Off ch=6 n=57 v=0
13389721 On ch=6 n=57 v=127
13391642 Off ch=6 n=57 v=0
13391760 On ch=6 n=57 v=127
13392620 Off ch=6 n=57 v=0
13480247 On ch=6 n=57 v=127
13480657 Off ch=6 n=57 v=0
13481088 On ch=6 n=57 v=127
13481824 Off ch=6 n=57 v=0
13519226 On ch=6 n=57 v=127
13519909 Off ch=6 n=57 v=0
13524845 On ch=6 n=57 v=127
13525234 Off ch=6 n=57 v=0
13525823 On ch=6 n=57 v=127
13526212 Off ch=6 n=57 v=0
13536142 On ch=6 n=57 v=127
13536588 Off ch=6 n=57 v=0
13537063 On ch=6 n=57 v=127
13537826 Off ch=6 n=57 v=0
13538039 On ch=6 n=57 v=127
13538578 Off ch=6 n=57 v=0
13566479 On ch=6 n=57 v=127
13566722 Off ch=6 n=57 v=0
13566836 On ch=6 n=57 v=127
13567261 Off ch=6 n=57 v=0
13623960 On ch=6 n=57 v=127
13624665 Off ch=6 n=57 v=0
TrkEnd    
MTrk    
0 PrCh ch=5 p=53 
0 Meta TrkName "GENE" 
156445 On ch=5 n=50 v=127
165923 Off ch=5 n=50 v=0
255108 On ch=5 n=50 v=127
606079 Off ch=5 n=50 v=0
1331297 On ch=5 n=50 v=127
2077087 Off ch=5 n=50 v=0
2852871 On ch=5 n=50 v=127
2868989 Off ch=5 n=50 v=0
2962550 On ch=5 n=50 v=127
2987496 Off ch=5 n=50 v=0
3252419 On ch=5 n=50 v=127
3259826 Off ch=5 n=50 v=0
3585523 On ch=5 n=50 v=127
3592914 Off ch=5 n=50 v=0
4290251 On ch=5 n=50 v=127
4297499 Off ch=5 n=50 v=0
5217393 On ch=5 n=50 v=127
5218501 Off ch=5 n=50 v=0
5404101 On ch=5 n=50 v=127
5413630 Off ch=5 n=50 v=0
5976185 On ch=5 n=50 v=127
5985600 Off ch=5 n=50 v=0
7027265 On ch=5 n=50 v=127
7363354 On ch=5 n=50 v=127
7370518 Off ch=5 n=50 v=0
7859455 Off ch=5 n=50 v=0
8212575 On ch=5 n=50 v=127
8221786 Off ch=5 n=50 v=0
8237785 On ch=5 n=50 v=127
8238071 Off ch=5 n=50 v=0
9235555 On ch=5 n=50 v=127
9252674 Off ch=5 n=50 v=0
12379201 On ch=5 n=50 v=127
12383637 Off ch=5 n=50 v=0
13675654 On ch=5 n=50 v=127
13699725 Off ch=5 n=50 v=0
TrkEnd    
MTrk    
0 PrCh ch=1 p=43 
0 Meta TrkName "LINE" 
14009 On ch=1 n=16 v=100
14089 Off ch=1 n=16 v=0
14229 On ch=1 n=15 v=100
14403 Off ch=1 n=15 v=0
14681 On ch=1 n=8 v=100
14914 Off ch=1 n=8 v=0
23571 On ch=1 n=3 v=100
23636 Off ch=1 n=3 v=0
30966 On ch=1 n=3 v=100
36368 Off ch=1 n=3 v=0
36448 On ch=1 n=3 v=100
36547 Off ch=1 n=3 v=0
40060 On ch=1 n=1 v=100
41340 Off ch=1 n=1 v=0
41793 On ch=1 n=1 v=100
42794 Off ch=1 n=1 v=0
51359 On ch=1 n=47 v=100
51480 Off ch=1 n=47 v=0
52566 On ch=1 n=60 v=100
52629 On ch=1 n=38 v=100
52678 Off ch=1 n=60 v=0
52680 Off ch=1 n=38 v=0
53769 On ch=1 n=60 v=100
53832 On ch=1 n=38 v=100
53881 Off ch=1 n=60 v=0
53883 Off ch=1 n=38 v=0
54973 On ch=1 n=60 v=100
55036 On ch=1 n=35 v=100
55085 Off ch=1 n=60 v=0
55087 Off ch=1 n=35 v=0
56177 On ch=1 n=60 v=100
56240 On ch=1 n=38 v=100
56289 Off ch=1 n=60 v=0
56291 Off ch=1 n=38 v=0
57375 On ch=1 n=63 v=100
57494 Off ch=1 n=63 v=0
58572 On ch=1 n=47 v=100
58693 Off ch=1 n=47 v=0
59785 On ch=1 n=60 v=100
59848 On ch=1 n=38 v=100
59897 Off ch=1 n=60 v=0
59899 Off ch=1 n=38 v=0
60989 On ch=1 n=60 v=100
61052 On ch=1 n=35 v=100
61101 Off ch=1 n=60 v=0
61103 Off ch=1 n=35 v=0
62180 On ch=1 n=60 v=100
62304 Off ch=1 n=60 v=0
69494 On ch=1 n=41 v=100
69575 Off ch=1 n=41 v=0
73634 On ch=1 n=26 v=100
73717 Off ch=1 n=26 v=0
74229 On ch=1 n=7 v=100
74489 Off ch=1 n=7 v=0
75260 On ch=1 n=7 v=100
75520 Off ch=1 n=7 v=0
76282 On ch=1 n=7 v=100
76542 Off ch=1 n=7 v=0
76708 On ch=1 n=26 v=100
76792 Off ch=1 n=26 v=0
77304 On ch=1 n=3 v=100
77522 Off ch=1 n=3 v=0
95740 On ch=1 n=32 v=100
96173 On ch=1 n=49 v=100
96490 On ch=1 n=6 v=100
96490 Off ch=1 n=32 v=0
96531 Off ch=1 n=49 v=0
96629 Off ch=1 n=6 v=0
96642 On ch=1 n=27 v=100
97256 Off ch=1 n=27 v=0
97767 On ch=1 n=38 v=100
98976 Off ch=1 n=38 v=0
99816 On ch=1 n=43 v=100
100160 On ch=1 n=37 v=100
101476 Off ch=1 n=43 v=0
101479 Off ch=1 n=37 v=0
101811 On ch=1 n=7 v=100
102024 On ch=1 n=6 v=100
102024 Off ch=1 n=7 v=0
102787 Off ch=1 n=6 v=0
103277 On ch=1 n=13 v=100
104025 Off ch=1 n=13 v=0
118155 On ch=1 n=28 v=100
118457 Off ch=1 n=28 v=0
119152 On ch=1 n=10 v=100
119583 Off ch=1 n=10 v=0
120630 On ch=1 n=8 v=100
120925 Off ch=1 n=8 v=0
124970 On ch=1 n=13 v=100
125079 Off ch=1 n=13 v=0
125167 On ch=1 n=41 v=100
125355 Off ch=1 n=41 v=0
128690 On ch=1 n=15 v=100
128785 Off ch=1 n=15 v=0
129011 On ch=1 n=11 v=100
129104 Off ch=1 n=11 v=0
129387 On ch=1 n=32 v=100
129457 Off ch=1 n=32 v=0
129762 On ch=1 n=24 v=100
129823 Off ch=1 n=24 v=0
135843 On ch=1 n=15 v=100
135911 Off ch=1 n=15 v=0
138926 On ch=1 n=5 v=100
140473 Off ch=1 n=5 v=0
151724 On ch=1 n=5 v=100
152037 On ch=1 n=6 v=100
152037 Off ch=1 n=5 v=0
152068 Off ch=1 n=6 v=0
153121 On ch=1 n=5 v=100
153763 Off ch=1 n=5 v=0
156217 On ch=1 n=9 v=100
156364 Off ch=1 n=9 v=0
156589 On ch=1 n=15 v=100
156841 Off ch=1 n=15 v=0
162983 On ch=1 n=30 v=100
163049 Off ch=1 n=30 v=0
163421 On ch=1 n=11 v=100
163520 Off ch=1 n=11 v=0
163969 On ch=1 n=10 v=100
164511 Off ch=1 n=10 v=0
164915 On ch=1 n=32 v=100
164998 Off ch=1 n=32 v=0
165951 On ch=1 n=23 v=100
166061 On ch=1 n=8 v=100
166066 Off ch=1 n=23 v=0
166306 On ch=1 n=5 v=100
166312 Off ch=1 n=8 v=0
166426 Off ch=1 n=5 v=0
167904 On ch=1 n=48 v=100
167926 On ch=1 n=56 v=100
168454 Off ch=1 n=56 v=0
168670 Off ch=1 n=48 v=0
168955 On ch=1 n=35 v=100
168971 On ch=1 n=41 v=100
168974 On ch=1 n=47 v=100
168980 On ch=1 n=48 v=100
169046 Off ch=1 n=35 v=0
169095 Off ch=1 n=41 v=0
169155 Off ch=1 n=47 v=0
169196 Off ch=1 n=48 v=0
170530 On ch=1 n=13 v=100
170611 Off ch=1 n=13 v=0
172111 On ch=1 n=17 v=100
172573 Off ch=1 n=17 v=0
173493 On ch=1 n=16 v=100
174075 On ch=1 n=18 v=100
174083 Off ch=1 n=16 v=0
174145 Off ch=1 n=18 v=0
174374 On ch=1 n=2 v=100
176555 Off ch=1 n=2 v=0
178981 On ch=1 n=9 v=100
179877 Off ch=1 n=9 v=0
180768 On ch=1 n=20 v=100
180969 Off ch=1 n=20 v=0
181029 On ch=1 n=11 v=100
181245 Off ch=1 n=11 v=0
181603 On ch=1 n=7 v=100
182585 Off ch=1 n=7 v=0
183444 On ch=1 n=20 v=100
183607 Off ch=1 n=20 v=0
191916 On ch=1 n=21 v=100
191963 Off ch=1 n=21 v=0
193811 On ch=1 n=12 v=100
193916 Off ch=1 n=12 v=0
198770 On ch=1 n=10 v=100
198866 On ch=1 n=11 v=100
198890 Off ch=1 n=10 v=0
199130 Off ch=1 n=11 v=0
199137 On ch=1 n=17 v=100
199233 Off ch=1 n=17 v=0
199285 On ch=1 n=32 v=100
199450 Off ch=1 n=32 v=0
211831 On ch=1 n=13 v=100
211904 Off ch=1 n=13 v=0
214142 On ch=1 n=27 v=100
214281 Off ch=1 n=27 v=0
214494 On ch=1 n=12 v=100
214608 Off ch=1 n=12 v=0
215109 On ch=1 n=23 v=100
215245 Off ch=1 n=23 v=0
215529 On ch=1 n=5 v=100
215585 Off ch=1 n=5 v=0
215814 On ch=1 n=6 v=100
215874 Off ch=1 n=6 v=0
218774 On ch=1 n=2 v=100
218814 Off ch=1 n=2 v=0
221589 On ch=1 n=11 v=100
221660 Off ch=1 n=11 v=0
222477 On ch=1 n=17 v=100
222543 Off ch=1 n=17 v=0
222586 On ch=1 n=10 v=100
222668 Off ch=1 n=10 v=0
223509 On ch=1 n=36 v=100
223592 Off ch=1 n=36 v=0
223597 On ch=1 n=7 v=100
223871 On ch=1 n=45 v=100
223872 Off ch=1 n=7 v=0
225482 Off ch=1 n=45 v=0
226421 On ch=1 n=31 v=100
226466 Off ch=1 n=31 v=0
228718 On ch=1 n=3 v=100
233067 Off ch=1 n=3 v=0
247210 On ch=1 n=6 v=100
247470 Off ch=1 n=6 v=0
255031 On ch=1 n=4 v=100
255080 Off ch=1 n=4 v=0
263916 On ch=1 n=4 v=100
264236 Off ch=1 n=4 v=0
308444 On ch=1 n=6 v=100
309063 Off ch=1 n=6 v=0
317285 On ch=1 n=29 v=100
317352 Off ch=1 n=29 v=0
317667 On ch=1 n=39 v=100
317746 Off ch=1 n=39 v=0
318561 On ch=1 n=19 v=100
318690 Off ch=1 n=19 v=0
319273 On ch=1 n=34 v=100
319357 Off ch=1 n=34 v=0
337627 On ch=1 n=38 v=100
337691 Off ch=1 n=38 v=0
342833 On ch=1 n=8 v=100
342986 Off ch=1 n=8 v=0
342987 On ch=1 n=10 v=100
343160 On ch=1 n=5 v=100
343160 Off ch=1 n=10 v=0
343360 Off ch=1 n=5 v=0
359658 On ch=1 n=9 v=100
359711 Off ch=1 n=9 v=0
368394 On ch=1 n=41 v=100
368431 On ch=1 n=39 v=100
368627 Off ch=1 n=41 v=0
368769 Off ch=1 n=39 v=0
370161 On ch=1 n=2 v=100
372774 Off ch=1 n=2 v=0
386086 On ch=1 n=43 v=100
386661 Off ch=1 n=43 v=0
462288 On ch=1 n=13 v=100
462805 Off ch=1 n=13 v=0
462815 On ch=1 n=8 v=100
462912 Off ch=1 n=8 v=0
503922 On ch=1 n=2 v=100
505069 On ch=1 n=7 v=100
505070 Off ch=1 n=2 v=0
505175 Off ch=1 n=7 v=0
505176 On ch=1 n=13 v=100
505394 Off ch=1 n=13 v=0
508136 On ch=1 n=42 v=100
508609 Off ch=1 n=42 v=0
510252 On ch=1 n=46 v=100
510583 Off ch=1 n=46 v=0
512183 On ch=1 n=48 v=100
514787 Off ch=1 n=48 v=0
514923 On ch=1 n=48 v=100
515396 Off ch=1 n=48 v=0
535803 On ch=1 n=8 v=100
537322 On ch=1 n=6 v=100
537322 Off ch=1 n=8 v=0
539026 Off ch=1 n=6 v=0
561704 On ch=1 n=23 v=100
561771 Off ch=1 n=23 v=0
563708 On ch=1 n=8 v=100
563846 On ch=1 n=17 v=100
563846 Off ch=1 n=8 v=0
563902 Off ch=1 n=17 v=0
563915 On ch=1 n=11 v=100
564085 On ch=1 n=8 v=100
564116 Off ch=1 n=11 v=0
564221 Off ch=1 n=8 v=0
564222 On ch=1 n=6 v=100
564504 On ch=1 n=13 v=100
564517 Off ch=1 n=6 v=0
564708 Off ch=1 n=13 v=0
564720 On ch=1 n=10 v=100
565155 On ch=1 n=11 v=100
565160 Off ch=1 n=10 v=0
565339 Off ch=1 n=11 v=0
565352 On ch=1 n=7 v=100
565781 On ch=1 n=10 v=100
565869 Off ch=1 n=7 v=0
565967 Off ch=1 n=10 v=0
565978 On ch=1 n=9 v=100
566404 On ch=1 n=14 v=100
566466 Off ch=1 n=9 v=0
566606 Off ch=1 n=14 v=0
566618 On ch=1 n=8 v=100
567040 On ch=1 n=12 v=100
567058 Off ch=1 n=8 v=0
567236 Off ch=1 n=12 v=0
567248 On ch=1 n=7 v=100
567670 On ch=1 n=11 v=100
567744 Off ch=1 n=7 v=0
567874 Off ch=1 n=11 v=0
567886 On ch=1 n=8 v=100
568226 Off ch=1 n=8 v=0
568759 On ch=1 n=4 v=100
568803 Off ch=1 n=4 v=0
571023 On ch=1 n=2 v=100
576539 Off ch=1 n=2 v=0
576626 On ch=1 n=21 v=100
576872 On ch=1 n=1 v=100
577250 Off ch=1 n=21 v=0
582417 Off ch=1 n=1 v=0
604133 On ch=1 n=6 v=100
604197 Off ch=1 n=6 v=0
605315 On ch=1 n=4 v=100
605629 Off ch=1 n=4 v=0
609165 On ch=1 n=3 v=100
609877 On ch=1 n=3 v=100
609879 Off ch=1 n=3 v=0
611059 Off ch=1 n=3 v=0
611085 On ch=1 n=6 v=100
611861 On ch=1 n=10 v=100
611866 Off ch=1 n=6 v=0
612047 Off ch=1 n=10 v=0
612954 On ch=1 n=37 v=100
613038 Off ch=1 n=37 v=0
618525 On ch=1 n=6 v=100
618646 On ch=1 n=51 v=100
618931 On ch=1 n=6 v=100
618936 Off ch=1 n=6 v=0
619404 Off ch=1 n=51 v=0
619405 Off ch=1 n=6 v=0
619409 On ch=1 n=12 v=100
620249 Off ch=1 n=12 v=0
620564 On ch=1 n=12 v=100
620608 On ch=1 n=51 v=100
620643 Off ch=1 n=12 v=0
620654 On ch=1 n=10 v=100
620683 On ch=1 n=59 v=100
620932 On ch=1 n=41 v=100
621025 Off ch=1 n=51 v=0
621028 Off ch=1 n=10 v=0
621124 Off ch=1 n=59 v=0
621154 Off ch=1 n=41 v=0
621429 On ch=1 n=10 v=100
621595 Off ch=1 n=10 v=0
621721 On ch=1 n=11 v=100
621982 Off ch=1 n=11 v=0
623801 On ch=1 n=5 v=100
626126 Off ch=1 n=5 v=0
626550 On ch=1 n=16 v=100
626658 Off ch=1 n=16 v=0
629106 On ch=1 n=13 v=100
629777 On ch=1 n=6 v=100
629777 Off ch=1 n=13 v=0
629847 Off ch=1 n=6 v=0
634376 On ch=1 n=13 v=100
634668 Off ch=1 n=13 v=0
636664 On ch=1 n=12 v=100
636793 Off ch=1 n=12 v=0
638856 On ch=1 n=31 v=100
639019 Off ch=1 n=31 v=0
645004 On ch=1 n=71 v=100
645218 Off ch=1 n=71 v=0
651206 On ch=1 n=43 v=100
651368 Off ch=1 n=43 v=0
655066 On ch=1 n=56 v=100
655066 On ch=1 n=56 v=100
655161 On ch=1 n=6 v=100
655301 Off ch=1 n=6 v=0
655744 Off ch=1 n=56 v=0
655744 Off ch=1 n=56 v=0
663372 On ch=1 n=13 v=100
663450 Off ch=1 n=13 v=0
703280 On ch=1 n=8 v=100
703327 Off ch=1 n=8 v=0
703580 On ch=1 n=18 v=100
703664 Off ch=1 n=18 v=0
703896 On ch=1 n=9 v=100
703998 Off ch=1 n=9 v=0
705007 On ch=1 n=21 v=100
705074 Off ch=1 n=21 v=0
708627 On ch=1 n=10 v=100
708838 Off ch=1 n=10 v=0
709186 On ch=1 n=19 v=100
709254 Off ch=1 n=19 v=0
710486 On ch=1 n=45 v=100
710488 On ch=1 n=51 v=100
710612 Off ch=1 n=45 v=0
710628 Off ch=1 n=51 v=0
712370 On ch=1 n=16 v=100
712457 Off ch=1 n=16 v=0
712491 On ch=1 n=16 v=100
712572 Off ch=1 n=16 v=0
725517 On ch=1 n=10 v=100
725624 Off ch=1 n=10 v=0
726577 On ch=1 n=20 v=100
726625 Off ch=1 n=20 v=0
728494 On ch=1 n=5 v=100
728535 Off ch=1 n=5 v=0
729077 On ch=1 n=18 v=100
729483 Off ch=1 n=18 v=0
729643 On ch=1 n=8 v=100
730824 Off ch=1 n=8 v=0
734497 On ch=1 n=2 v=100
735358 On ch=1 n=57 v=100
735382 Off ch=1 n=2 v=0
735888 Off ch=1 n=57 v=0
757199 On ch=1 n=1 v=100
757388 Off ch=1 n=1 v=0
757488 On ch=1 n=1 v=100
757828 On ch=1 n=2 v=100
757836 Off ch=1 n=1 v=0
758283 Off ch=1 n=2 v=0
759925 On ch=1 n=3 v=100
760290 Off ch=1 n=3 v=0
769044 On ch=1 n=4 v=100
769685 Off ch=1 n=4 v=0
769686 On ch=1 n=13 v=100
769884 Off ch=1 n=13 v=0
771098 On ch=1 n=36 v=100
771183 Off ch=1 n=36 v=0
777208 On ch=1 n=7 v=100
777305 Off ch=1 n=7 v=0
786189 On ch=1 n=19 v=100
786286 Off ch=1 n=19 v=0
791195 On ch=1 n=11 v=100
791352 Off ch=1 n=11 v=0
791684 On ch=1 n=18 v=100
791880 Off ch=1 n=18 v=0
796633 On ch=1 n=26 v=100
796694 Off ch=1 n=26 v=0
797385 On ch=1 n=9 v=100
797504 Off ch=1 n=9 v=0
799126 On ch=1 n=33 v=100
799310 Off ch=1 n=33 v=0
801271 On ch=1 n=0 v=100
801432 Off ch=1 n=0 v=0
818706 On ch=1 n=1 v=100
819732 Off ch=1 n=1 v=0
823371 On ch=1 n=15 v=100
823806 Off ch=1 n=15 v=0
825782 On ch=1 n=16 v=100
825890 Off ch=1 n=16 v=0
825941 On ch=1 n=5 v=100
828239 Off ch=1 n=5 v=0
828383 On ch=1 n=48 v=100
828391 On ch=1 n=11 v=100
828785 Off ch=1 n=11 v=0
828795 On ch=1 n=7 v=100
828831 Off ch=1 n=48 v=0
828861 Off ch=1 n=7 v=0
829194 On ch=1 n=11 v=100
830035 Off ch=1 n=11 v=0
830037 On ch=1 n=69 v=100
830038 On ch=1 n=5 v=100
830039 On ch=1 n=56 v=100
830219 On ch=1 n=55 v=100
830502 On ch=1 n=7 v=100
830507 Off ch=1 n=5 v=0
830596 Off ch=1 n=56 v=0
830704 Off ch=1 n=69 v=0
830806 Off ch=1 n=55 v=0
830927 Off ch=1 n=7 v=0
835713 On ch=1 n=13 v=100
835919 Off ch=1 n=13 v=0
835921 On ch=1 n=3 v=100
838966 Off ch=1 n=3 v=0
839307 On ch=1 n=9 v=100
839396 Off ch=1 n=9 v=0
840167 On ch=1 n=10 v=100
840314 Off ch=1 n=10 v=0
840921 On ch=1 n=8 v=100
841100 Off ch=1 n=8 v=0
845131 On ch=1 n=4 v=100
845195 Off ch=1 n=4 v=0
852522 On ch=1 n=4 v=100
853609 Off ch=1 n=4 v=0
854157 On ch=1 n=37 v=100
854158 On ch=1 n=9 v=100
854292 Off ch=1 n=9 v=0
854354 Off ch=1 n=37 v=0
854893 On ch=1 n=25 v=100
854956 Off ch=1 n=25 v=0
855374 On ch=1 n=34 v=100
855458 Off ch=1 n=34 v=0
855707 On ch=1 n=11 v=100
855809 Off ch=1 n=11 v=0
856042 On ch=1 n=15 v=100
856094 Off ch=1 n=15 v=0
856584 On ch=1 n=9 v=100
857092 On ch=1 n=3 v=100
857094 Off ch=1 n=9 v=0
858993 Off ch=1 n=3 v=0
859063 On ch=1 n=8 v=100
859872 Off ch=1 n=8 v=0
860425 On ch=1 n=16 v=100
860628 Off ch=1 n=16 v=0
861289 On ch=1 n=38 v=100
861373 Off ch=1 n=38 v=0
865082 On ch=1 n=10 v=100
865186 Off ch=1 n=10 v=0
869011 On ch=1 n=51 v=100
869050 On ch=1 n=5 v=100
869293 Off ch=1 n=51 v=0
869333 Off ch=1 n=5 v=0
870202 On ch=1 n=27 v=100
870372 Off ch=1 n=27 v=0
870432 On ch=1 n=13 v=100
870647 Off ch=1 n=13 v=0
871004 On ch=1 n=8 v=100
872020 Off ch=1 n=8 v=0
872921 On ch=1 n=19 v=100
873122 Off ch=1 n=19 v=0
873182 On ch=1 n=12 v=100
873397 Off ch=1 n=12 v=0
873755 On ch=1 n=9 v=100
874758 Off ch=1 n=9 v=0
875651 On ch=1 n=17 v=100
875815 Off ch=1 n=17 v=0
876157 On ch=1 n=3 v=100
878490 On ch=1 n=6 v=100
878494 Off ch=1 n=3 v=0
878821 Off ch=1 n=6 v=0
879826 On ch=1 n=1 v=100
881377 Off ch=1 n=1 v=0
881381 On ch=1 n=5 v=100
881765 Off ch=1 n=5 v=0
882001 On ch=1 n=8 v=100
882259 Off ch=1 n=8 v=0
882790 On ch=1 n=27 v=100
882876 Off ch=1 n=27 v=0
883046 On ch=1 n=4 v=100
884521 Off ch=1 n=4 v=0
884531 On ch=1 n=3 v=100
886993 On ch=1 n=47 v=100
887119 On ch=1 n=3 v=100
887120 Off ch=1 n=3 v=0
887143 Off ch=1 n=47 v=0
887183 On ch=1 n=46 v=100
887255 Off ch=1 n=3 v=0
887271 Off ch=1 n=46 v=0
890876 On ch=1 n=2 v=100
890916 Off ch=1 n=2 v=0
891284 On ch=1 n=33 v=100
891596 Off ch=1 n=33 v=0
904500 On ch=1 n=1 v=100
906562 Off ch=1 n=1 v=0
907114 On ch=1 n=0 v=100
910481 Off ch=1 n=0 v=0
929130 On ch=1 n=16 v=100
929202 Off ch=1 n=16 v=0
932181 On ch=1 n=16 v=100
932252 Off ch=1 n=16 v=0
932984 On ch=1 n=2 v=100
938351 Off ch=1 n=2 v=0
954857 On ch=1 n=18 v=100
955004 Off ch=1 n=18 v=0
955324 On ch=1 n=19 v=100
955552 Off ch=1 n=19 v=0
956184 On ch=1 n=43 v=100
956398 Off ch=1 n=43 v=0
956717 On ch=1 n=6 v=100
957169 Off ch=1 n=6 v=0
957585 On ch=1 n=7 v=100
958054 Off ch=1 n=7 v=0
969167 On ch=1 n=6 v=100
969599 Off ch=1 n=6 v=0
977107 On ch=1 n=3 v=100
978250 Off ch=1 n=3 v=0
986262 On ch=1 n=13 v=100
986295 Off ch=1 n=13 v=0
986435 On ch=1 n=13 v=100
986481 Off ch=1 n=13 v=0
986840 On ch=1 n=3 v=100
987441 Off ch=1 n=3 v=0
988656 On ch=1 n=0 v=100
990138 Off ch=1 n=0 v=0
1002849 On ch=1 n=7 v=100
1003300 Off ch=1 n=7 v=0
1003384 On ch=1 n=6 v=100
1004200 Off ch=1 n=6 v=0
1004207 On ch=1 n=2 v=100
1004772 Off ch=1 n=2 v=0
1005001 On ch=1 n=4 v=100
1005411 Off ch=1 n=4 v=0
1005426 On ch=1 n=5 v=100
1006379 Off ch=1 n=5 v=0
1007403 On ch=1 n=57 v=100
1007488 On ch=1 n=3 v=100
1007510 Off ch=1 n=57 v=0
1009250 On ch=1 n=2 v=100
1009255 Off ch=1 n=3 v=0
1009803 On ch=1 n=53 v=100
1011668 Off ch=1 n=2 v=0
1011680 On ch=1 n=3 v=100
1012158 Off ch=1 n=53 v=0
1014447 On ch=1 n=19 v=100
1014458 Off ch=1 n=3 v=0
1014600 On ch=1 n=4 v=100
1014610 Off ch=1 n=19 v=0
1015079 On ch=1 n=12 v=100
1015121 Off ch=1 n=4 v=0
1015164 Off ch=1 n=12 v=0
1015230 On ch=1 n=5 v=100
1016014 On ch=1 n=6 v=100
1016310 Off ch=1 n=5 v=0
1017511 Off ch=1 n=6 v=0
1017539 On ch=1 n=5 v=100
1017659 Off ch=1 n=5 v=0
1018822 On ch=1 n=7 v=100
1019129 Off ch=1 n=7 v=0
1019359 On ch=1 n=6 v=100
1019616 Off ch=1 n=6 v=0
1020630 On ch=1 n=30 v=100
1020710 Off ch=1 n=30 v=0
1023172 On ch=1 n=15 v=100
1023249 Off ch=1 n=15 v=0
1025348 On ch=1 n=0 v=100
1025390 Off ch=1 n=0 v=0
1030433 On ch=1 n=36 v=100
1030512 Off ch=1 n=36 v=0
1031464 On ch=1 n=10 v=100
1031580 Off ch=1 n=10 v=0
1045493 On ch=1 n=5 v=100
1045895 Off ch=1 n=5 v=0
1075284 On ch=1 n=29 v=100
1075291 On ch=1 n=24 v=100
1075298 On ch=1 n=32 v=100
1075368 Off ch=1 n=24 v=0
1075385 Off ch=1 n=29 v=0
1075398 Off ch=1 n=32 v=0
1083146 On ch=1 n=5 v=100
1083427 On ch=1 n=52 v=100
1083628 Off ch=1 n=5 v=0
1083687 Off ch=1 n=52 v=0
1089626 On ch=1 n=41 v=100
1089656 On ch=1 n=2 v=100
1089780 Off ch=1 n=41 v=0
1091412 Off ch=1 n=2 v=0
1091432 On ch=1 n=27 v=100
1091521 Off ch=1 n=27 v=0
1110931 On ch=1 n=9 v=100
1111086 Off ch=1 n=9 v=0
1116840 On ch=1 n=60 v=100
1117212 Off ch=1 n=60 v=0
1134721 On ch=1 n=33 v=100
1135205 Off ch=1 n=33 v=0
1136033 On ch=1 n=8 v=100
1137432 Off ch=1 n=8 v=0
1137439 On ch=1 n=17 v=100
1137541 Off ch=1 n=17 v=0
1141335 On ch=1 n=6 v=100
1142076 Off ch=1 n=6 v=0
1148962 On ch=1 n=55 v=100
1149046 On ch=1 n=2 v=100
1149477 Off ch=1 n=55 v=0
1149536 Off ch=1 n=2 v=0
1152807 On ch=1 n=2 v=100
1152808 On ch=1 n=57 v=100
1152919 On ch=1 n=67 v=100
1153483 Off ch=1 n=2 v=0
1153494 On ch=1 n=3 v=100
1153654 Off ch=1 n=57 v=0
1153660 Off ch=1 n=67 v=0
1153661 Off ch=1 n=3 v=0
1155184 On ch=1 n=5 v=100
1155605 Off ch=1 n=5 v=0
1156852 On ch=1 n=36 v=100
1157161 Off ch=1 n=36 v=0
1158414 On ch=1 n=18 v=100
1158628 Off ch=1 n=18 v=0
1171138 On ch=1 n=2 v=100
1173564 Off ch=1 n=2 v=0
1173566 On ch=1 n=0 v=100
1173970 Off ch=1 n=0 v=0
1173971 On ch=1 n=1 v=100
1176775 On ch=1 n=4 v=100
1176786 Off ch=1 n=1 v=0
1178172 Off ch=1 n=4 v=0
1178261 On ch=1 n=14 v=100
1178331 Off ch=1 n=14 v=0
1178949 On ch=1 n=8 v=100
1179048 Off ch=1 n=8 v=0
1185218 On ch=1 n=35 v=100
1185307 Off ch=1 n=35 v=0
1188357 On ch=1 n=5 v=100
1188694 Off ch=1 n=5 v=0
1188698 On ch=1 n=22 v=100
1188957 Off ch=1 n=22 v=0
1189245 On ch=1 n=11 v=100
1190086 Off ch=1 n=11 v=0
1190099 On ch=1 n=11 v=100
1190416 On ch=1 n=56 v=100
1190418 On ch=1 n=9 v=100
1190418 Off ch=1 n=11 v=0
1190432 On ch=1 n=51 v=100
1190636 Off ch=1 n=9 v=0
1190779 Off ch=1 n=56 v=0
1190871 Off ch=1 n=51 v=0
1191085 On ch=1 n=47 v=100
1191574 Off ch=1 n=47 v=0
1193136 On ch=1 n=8 v=100
1193244 Off ch=1 n=8 v=0
1208856 On ch=1 n=43 v=100
1209173 On ch=1 n=0 v=100
1209667 Off ch=1 n=43 v=0
1214483 Off ch=1 n=0 v=0
1223729 On ch=1 n=7 v=100
1225513 On ch=1 n=32 v=100
1225515 Off ch=1 n=7 v=0
1226442 Off ch=1 n=32 v=0
1259914 On ch=1 n=34 v=100
1260071 Off ch=1 n=34 v=0
1264125 On ch=1 n=54 v=100
1264416 On ch=1 n=56 v=100
1264556 On ch=1 n=11 v=100
1264654 Off ch=1 n=54 v=0
1264693 Off ch=1 n=56 v=0
1265179 Off ch=1 n=11 v=0
1279913 On ch=1 n=2 v=100
1280611 On ch=1 n=4 v=100
1280678 Off ch=1 n=2 v=0
1285869 Off ch=1 n=4 v=0
1285955 On ch=1 n=3 v=100
1286179 Off ch=1 n=3 v=0
1286252 On ch=1 n=0 v=100
1291996 Off ch=1 n=0 v=0
1292084 On ch=1 n=2 v=100
1292122 On ch=1 n=12 v=100
1292125 Off ch=1 n=2 v=0
1292188 Off ch=1 n=12 v=0
1292261 On ch=1 n=2 v=100
1292299 On ch=1 n=12 v=100
1292302 Off ch=1 n=2 v=0
1292365 Off ch=1 n=12 v=0
1292438 On ch=1 n=2 v=100
1292476 On ch=1 n=12 v=100
1292479 Off ch=1 n=2 v=0
1292542 Off ch=1 n=12 v=0
1292615 On ch=1 n=2 v=100
1292653 On ch=1 n=12 v=100
1292656 Off ch=1 n=2 v=0
1292719 Off ch=1 n=12 v=0
1292792 On ch=1 n=2 v=100
1292830 On ch=1 n=12 v=100
1292833 Off ch=1 n=2 v=0
1292896 Off ch=1 n=12 v=0
1292969 On ch=1 n=2 v=100
1293007 On ch=1 n=12 v=100
1293010 Off ch=1 n=2 v=0
1293073 Off ch=1 n=12 v=0
1293146 On ch=1 n=2 v=100
1293184 On ch=1 n=12 v=100
1293187 Off ch=1 n=2 v=0
1293250 Off ch=1 n=12 v=0
1293323 On ch=1 n=2 v=100
1293359 On ch=1 n=16 v=100
1293364 Off ch=1 n=2 v=0
1293427 Off ch=1 n=16 v=0
1293500 On ch=1 n=2 v=100
1293538 On ch=1 n=12 v=100
1293541 Off ch=1 n=2 v=0
1293604 Off ch=1 n=12 v=0
1293677 On ch=1 n=2 v=100
1293715 On ch=1 n=12 v=100
1293718 Off ch=1 n=2 v=0
1293781 Off ch=1 n=12 v=0
1293854 On ch=1 n=2 v=100
1293892 On ch=1 n=12 v=100
1293895 Off ch=1 n=2 v=0
1293958 Off ch=1 n=12 v=0
1294031 On ch=1 n=2 v=100
1294069 On ch=1 n=14 v=100
1294072 Off ch=1 n=2 v=0
1294135 Off ch=1 n=14 v=0
1294208 On ch=1 n=2 v=100
1294246 On ch=1 n=8 v=100
1294249 Off ch=1 n=2 v=0
1294306 Off ch=1 n=8 v=0
1294385 On ch=1 n=2 v=100
1294423 On ch=1 n=12 v=100
1294426 Off ch=1 n=2 v=0
1294489 Off ch=1 n=12 v=0
1294562 On ch=1 n=2 v=100
1294600 On ch=1 n=12 v=100
1294603 Off ch=1 n=2 v=0
1294666 Off ch=1 n=12 v=0
1294739 On ch=1 n=2 v=100
1294777 On ch=1 n=12 v=100
1294780 Off ch=1 n=2 v=0
1294843 Off ch=1 n=12 v=0
1294916 On ch=1 n=2 v=100
1294954 On ch=1 n=8 v=100
1294957 Off ch=1 n=2 v=0
1295014 Off ch=1 n=8 v=0
1295093 On ch=1 n=2 v=100
1295131 On ch=1 n=12 v=100
1295134 Off ch=1 n=2 v=0
1295197 Off ch=1 n=12 v=0
1295270 On ch=1 n=4 v=100
1295308 On ch=1 n=12 v=100
1295311 Off ch=1 n=4 v=0
1295374 Off ch=1 n=12 v=0
1295447 On ch=1 n=2 v=100
1295485 On ch=1 n=14 v=100
1295488 Off ch=1 n=2 v=0
1295551 Off ch=1 n=14 v=0
1295624 On ch=1 n=2 v=100
1295662 On ch=1 n=8 v=100
1295665 Off ch=1 n=2 v=0
1295722 Off ch=1 n=8 v=0
1295801 On ch=1 n=2 v=100
1295839 On ch=1 n=12 v=100
1295842 Off ch=1 n=2 v=0
1295905 Off ch=1 n=12 v=0
1295978 On ch=1 n=2 v=100
1296016 On ch=1 n=12 v=100
1296019 Off ch=1 n=2 v=0
1296082 Off ch=1 n=12 v=0
1296155 On ch=1 n=2 v=100
1296193 On ch=1 n=12 v=100
1296196 Off ch=1 n=2 v=0
1296259 Off ch=1 n=12 v=0
1296332 On ch=1 n=2 v=100
1296370 On ch=1 n=12 v=100
1296373 Off ch=1 n=2 v=0
1296436 Off ch=1 n=12 v=0
1296509 On ch=1 n=2 v=100
1296547 On ch=1 n=14 v=100
1296550 Off ch=1 n=2 v=0
1296613 Off ch=1 n=14 v=0
1296686 On ch=1 n=2 v=100
1296724 On ch=1 n=8 v=100
1296727 Off ch=1 n=2 v=0
1296784 Off ch=1 n=8 v=0
1296863 On ch=1 n=2 v=100
1296901 On ch=1 n=12 v=100
1296904 Off ch=1 n=2 v=0
1296967 Off ch=1 n=12 v=0
1297040 On ch=1 n=2 v=100
1297078 On ch=1 n=12 v=100
1297081 Off ch=1 n=2 v=0
1297144 Off ch=1 n=12 v=0
1297217 On ch=1 n=2 v=100
1297255 On ch=1 n=12 v=100
1297258 Off ch=1 n=2 v=0
1297321 Off ch=1 n=12 v=0
1297394 On ch=1 n=2 v=100
1297432 On ch=1 n=12 v=100
1297435 Off ch=1 n=2 v=0
1297498 Off ch=1 n=12 v=0
1297571 On ch=1 n=2 v=100
1297609 On ch=1 n=12 v=100
1297612 Off ch=1 n=2 v=0
1297675 Off ch=1 n=12 v=0
1297748 On ch=1 n=2 v=100
1297786 On ch=1 n=12 v=100
1297789 Off ch=1 n=2 v=0
1297852 Off ch=1 n=12 v=0
1297925 On ch=1 n=2 v=100
1297963 On ch=1 n=12 v=100
1297966 Off ch=1 n=2 v=0
1298029 Off ch=1 n=12 v=0
1298102 On ch=1 n=2 v=100
1298140 On ch=1 n=12 v=100
1298143 Off ch=1 n=2 v=0
1298206 Off ch=1 n=12 v=0
1298279 On ch=1 n=2 v=100
1298317 On ch=1 n=12 v=100
1298320 Off ch=1 n=2 v=0
1298383 Off ch=1 n=12 v=0
1298456 On ch=1 n=2 v=100
1298494 On ch=1 n=12 v=100
1298497 Off ch=1 n=2 v=0
1298560 Off ch=1 n=12 v=0
1298633 On ch=1 n=2 v=100
1298671 On ch=1 n=12 v=100
1298674 Off ch=1 n=2 v=0
1298737 Off ch=1 n=12 v=0
1298810 On ch=1 n=2 v=100
1298848 On ch=1 n=12 v=100
1298851 Off ch=1 n=2 v=0
1298914 Off ch=1 n=12 v=0
1298987 On ch=1 n=2 v=100
1299025 On ch=1 n=12 v=100
1299028 Off ch=1 n=2 v=0
1299091 Off ch=1 n=12 v=0
1299164 On ch=1 n=2 v=100
1299202 On ch=1 n=14 v=100
1299205 Off ch=1 n=2 v=0
1299268 Off ch=1 n=14 v=0
1299341 On ch=1 n=2 v=100
1299379 On ch=1 n=8 v=100
1299382 Off ch=1 n=2 v=0
1299439 Off ch=1 n=8 v=0
1299518 On ch=1 n=2 v=100
1299556 On ch=1 n=12 v=100
1299559 Off ch=1 n=2 v=0
1299622 Off ch=1 n=12 v=0
1299695 On ch=1 n=2 v=100
1299733 On ch=1 n=10 v=100
1299736 Off ch=1 n=2 v=0
1299793 Off ch=1 n=10 v=0
1299872 On ch=1 n=2 v=100
1299910 On ch=1 n=12 v=100
1299913 Off ch=1 n=2 v=0
1299976 Off ch=1 n=12 v=0
1300049 On ch=1 n=2 v=100
1300087 On ch=1 n=12 v=100
1300090 Off ch=1 n=2 v=0
1300153 Off ch=1 n=12 v=0
1300226 On ch=1 n=2 v=100
1300264 On ch=1 n=12 v=100
1300267 Off ch=1 n=2 v=0
1300330 Off ch=1 n=12 v=0
1300403 On ch=1 n=2 v=100
1300437 On ch=1 n=13 v=100
1300444 Off ch=1 n=2 v=0
1300507 Off ch=1 n=13 v=0
1300580 On ch=1 n=2 v=100
1300618 On ch=1 n=12 v=100
1300621 Off ch=1 n=2 v=0
1300684 Off ch=1 n=12 v=0
1300757 On ch=1 n=2 v=100
1300795 On ch=1 n=12 v=100
1300798 Off ch=1 n=2 v=0
1300861 Off ch=1 n=12 v=0
1300934 On ch=1 n=2 v=100
1300972 On ch=1 n=12 v=100
1300975 Off ch=1 n=2 v=0
1301038 Off ch=1 n=12 v=0
1301111 On ch=1 n=2 v=100
1301149 On ch=1 n=12 v=100
1301152 Off ch=1 n=2 v=0
1301215 Off ch=1 n=12 v=0
1301288 On ch=1 n=2 v=100
1301322 On ch=1 n=15 v=100
1301329 Off ch=1 n=2 v=0
1301392 Off ch=1 n=15 v=0
1301465 On ch=1 n=2 v=100
1301503 On ch=1 n=10 v=100
1301506 Off ch=1 n=2 v=0
1301563 Off ch=1 n=10 v=0
1301642 On ch=1 n=2 v=100
1301680 On ch=1 n=12 v=100
1301683 Off ch=1 n=2 v=0
1301746 Off ch=1 n=12 v=0
1301819 On ch=1 n=2 v=100
1301857 On ch=1 n=12 v=100
1301860 Off ch=1 n=2 v=0
1301923 Off ch=1 n=12 v=0
1301996 On ch=1 n=2 v=100
1302034 On ch=1 n=10 v=100
1302037 Off ch=1 n=2 v=0
1302094 Off ch=1 n=10 v=0
1302173 On ch=1 n=2 v=100
1302211 On ch=1 n=12 v=100
1302214 Off ch=1 n=2 v=0
1302277 Off ch=1 n=12 v=0
1302350 On ch=1 n=2 v=100
1302388 On ch=1 n=12 v=100
1302391 Off ch=1 n=2 v=0
1302454 Off ch=1 n=12 v=0
1302527 On ch=1 n=2 v=100
1302563 On ch=1 n=16 v=100
1302568 Off ch=1 n=2 v=0
1302631 Off ch=1 n=16 v=0
1302704 On ch=1 n=2 v=100
1302738 On ch=1 n=15 v=100
1302745 Off ch=1 n=2 v=0
1302808 Off ch=1 n=15 v=0
1302881 On ch=1 n=2 v=100
1302919 On ch=1 n=12 v=100
1302922 Off ch=1 n=2 v=0
1302985 Off ch=1 n=12 v=0
1303058 On ch=1 n=2 v=100
1303096 On ch=1 n=12 v=100
1303099 Off ch=1 n=2 v=0
1303162 Off ch=1 n=12 v=0
1303235 On ch=1 n=2 v=100
1303269 On ch=1 n=15 v=100
1303276 Off ch=1 n=2 v=0
1303339 Off ch=1 n=15 v=0
1303412 On ch=1 n=2 v=100
1303450 On ch=1 n=10 v=100
1303453 Off ch=1 n=2 v=0
1303510 Off ch=1 n=10 v=0
1303589 On ch=1 n=2 v=100
1303627 On ch=1 n=12 v=100
1303630 Off ch=1 n=2 v=0
1303693 Off ch=1 n=12 v=0
1303766 On ch=1 n=4 v=100
1303804 On ch=1 n=12 v=100
1303807 Off ch=1 n=4 v=0
1303870 Off ch=1 n=12 v=0
1303943 On ch=1 n=2 v=100
1303981 On ch=1 n=12 v=100
1303984 Off ch=1 n=2 v=0
1304047 Off ch=1 n=12 v=0
1304120 On ch=1 n=2 v=100
1304158 On ch=1 n=12 v=100
1304161 Off ch=1 n=2 v=0
1304224 Off ch=1 n=12 v=0
1304297 On ch=1 n=2 v=100
1304335 On ch=1 n=12 v=100
1304338 Off ch=1 n=2 v=0
1304401 Off ch=1 n=12 v=0
1304474 On ch=1 n=2 v=100
1304512 On ch=1 n=12 v=100
1304515 Off ch=1 n=2 v=0
1304578 Off ch=1 n=12 v=0
1304651 On ch=1 n=2 v=100
1304689 On ch=1 n=12 v=100
1304692 Off ch=1 n=2 v=0
1304755 Off ch=1 n=12 v=0
1304828 On ch=1 n=2 v=100
1304866 On ch=1 n=12 v=100
1304869 Off ch=1 n=2 v=0
1304932 Off ch=1 n=12 v=0
1305005 On ch=1 n=2 v=100
1305043 On ch=1 n=12 v=100
1305046 Off ch=1 n=2 v=0
1305109 Off ch=1 n=12 v=0
1305182 On ch=1 n=2 v=100
1305220 On ch=1 n=12 v=100
1305223 Off ch=1 n=2 v=0
1305286 Off ch=1 n=12 v=0
1305359 On ch=1 n=2 v=100
1305395 On ch=1 n=16 v=100
1305400 Off ch=1 n=2 v=0
1305463 Off ch=1 n=16 v=0
1305536 On ch=1 n=2 v=100
1305570 On ch=1 n=15 v=100
1305577 Off ch=1 n=2 v=0
1305640 Off ch=1 n=15 v=0
1305713 On ch=1 n=1 v=100
1305882 Off ch=1 n=1 v=0
1306182 On ch=1 n=9 v=100
1306773 Off ch=1 n=9 v=0
1321653 On ch=1 n=1 v=100
1327047 Off ch=1 n=1 v=0
1327094 On ch=1 n=1 v=100
1327210 Off ch=1 n=1 v=0
1331230 On ch=1 n=10 v=100
1331278 Off ch=1 n=10 v=0
1335350 On ch=1 n=44 v=100
1335392 Off ch=1 n=44 v=0
1335447 On ch=1 n=44 v=100
1335447 On ch=1 n=44 v=100
1335872 Off ch=1 n=44 v=0
1335872 Off ch=1 n=44 v=0
1337332 On ch=1 n=7 v=100
1337385 Off ch=1 n=7 v=0
1338645 On ch=1 n=0 v=100
1344144 Off ch=1 n=0 v=0
1344176 On ch=1 n=0 v=100
1344453 Off ch=1 n=0 v=0
1345673 On ch=1 n=50 v=100
1345673 On ch=1 n=50 v=100
1345912 Off ch=1 n=50 v=0
1345912 Off ch=1 n=50 v=0
1348448 On ch=1 n=10 v=100
1348586 On ch=1 n=13 v=100
1348586 Off ch=1 n=10 v=0
1348643 Off ch=1 n=13 v=0
1348654 On ch=1 n=9 v=100
1349060 On ch=1 n=11 v=100
1349143 Off ch=1 n=9 v=0
1349265 Off ch=1 n=11 v=0
1349277 On ch=1 n=6 v=100
1349703 On ch=1 n=12 v=100
1349716 Off ch=1 n=6 v=0
1350129 On ch=1 n=12 v=100
1350230 Off ch=1 n=12 v=0
1350300 On ch=1 n=16 v=100
1350313 Off ch=1 n=12 v=0
1350386 Off ch=1 n=16 v=0
1361464 On ch=1 n=34 v=100
1361548 Off ch=1 n=34 v=0
1361898 On ch=1 n=21 v=100
1361959 Off ch=1 n=21 v=0
1365962 On ch=1 n=17 v=100
1366069 Off ch=1 n=17 v=0
1366100 On ch=1 n=17 v=100
1366192 Off ch=1 n=17 v=0
1367473 On ch=1 n=27 v=100
1367534 Off ch=1 n=27 v=0
1374603 On ch=1 n=7 v=100
1375049 Off ch=1 n=7 v=0
1376415 On ch=1 n=3 v=100
1376416 On ch=1 n=30 v=100
1377164 Off ch=1 n=3 v=0
1377799 Off ch=1 n=30 v=0
1379936 On ch=1 n=0 v=100
1380026 Off ch=1 n=0 v=0
1380027 On ch=1 n=5 v=100
1381263 Off ch=1 n=5 v=0
1384994 On ch=1 n=3 v=100
1387945 Off ch=1 n=3 v=0
1390185 On ch=1 n=15 v=100
1390846 Off ch=1 n=15 v=0
1397374 On ch=1 n=8 v=100
1397763 Off ch=1 n=8 v=0
1435520 On ch=1 n=6 v=100
1440556 Off ch=1 n=6 v=0
1451606 On ch=1 n=32 v=100
1452087 Off ch=1 n=32 v=0
1452598 On ch=1 n=8 v=100
1454875 On ch=1 n=32 v=100
1454878 Off ch=1 n=8 v=0
1455640 Off ch=1 n=32 v=0
1457138 On ch=1 n=44 v=100
1457315 Off ch=1 n=44 v=0
1461264 On ch=1 n=34 v=100
1461348 On ch=1 n=11 v=100
1461947 Off ch=1 n=34 v=0
1461951 Off ch=1 n=11 v=0
1461960 On ch=1 n=6 v=100
1462282 Off ch=1 n=6 v=0
1464461 On ch=1 n=5 v=100
1465694 Off ch=1 n=5 v=0
1477167 On ch=1 n=7 v=100
1477426 Off ch=1 n=7 v=0
1477437 On ch=1 n=9 v=100
1477575 On ch=1 n=7 v=100
1477635 Off ch=1 n=9 v=0
1478063 Off ch=1 n=7 v=0
1478074 On ch=1 n=8 v=100
1478279 Off ch=1 n=8 v=0
1478291 On ch=1 n=11 v=100
1478471 On ch=1 n=8 v=100
1478494 Off ch=1 n=11 v=0
1478764 Off ch=1 n=8 v=0
1484255 On ch=1 n=44 v=100
1484763 Off ch=1 n=44 v=0
1496090 On ch=1 n=36 v=100
1496161 Off ch=1 n=36 v=0
1498568 On ch=1 n=11 v=100
1499255 Off ch=1 n=11 v=0
1515904 On ch=1 n=4 v=100
1515968 Off ch=1 n=4 v=0
1517142 On ch=1 n=3 v=100
1517466 Off ch=1 n=3 v=0
1520079 On ch=1 n=3 v=100
1520774 Off ch=1 n=3 v=0
1531529 On ch=1 n=3 v=100
1533426 Off ch=1 n=3 v=0
1533428 On ch=1 n=13 v=100
1533625 Off ch=1 n=13 v=0
1536924 On ch=1 n=8 v=100
1537040 On ch=1 n=57 v=100
1537314 On ch=1 n=8 v=100
1537318 Off ch=1 n=8 v=0
1537781 Off ch=1 n=8 v=0
1537883 Off ch=1 n=57 v=0
1538919 On ch=1 n=3 v=100
1539099 Off ch=1 n=3 v=0
1549264 On ch=1 n=6 v=100
1550740 Off ch=1 n=6 v=0
1551407 On ch=1 n=8 v=100
1552010 Off ch=1 n=8 v=0
1552542 On ch=1 n=16 v=100
1552650 Off ch=1 n=16 v=0
1554879 On ch=1 n=5 v=100
1555886 Off ch=1 n=5 v=0
1556663 On ch=1 n=8 v=100
1556725 Off ch=1 n=8 v=0
1557323 On ch=1 n=15 v=100
1557753 Off ch=1 n=15 v=0
1558074 On ch=1 n=4 v=100
1558917 Off ch=1 n=4 v=0
1561100 On ch=1 n=2 v=100
1562119 Off ch=1 n=2 v=0
1568152 On ch=1 n=7 v=100
1568342 Off ch=1 n=7 v=0
1568350 On ch=1 n=6 v=100
1568386 Off ch=1 n=6 v=0
1576054 On ch=1 n=8 v=100
1576307 Off ch=1 n=8 v=0
1577078 On ch=1 n=7 v=100
1577331 Off ch=1 n=7 v=0
1578091 On ch=1 n=7 v=100
1578344 Off ch=1 n=7 v=0
1579116 On ch=1 n=8 v=100
1579368 Off ch=1 n=8 v=0
1579392 On ch=1 n=1 v=100
1584701 On ch=1 n=10 v=100
1584844 Off ch=1 n=1 v=0
1585059 Off ch=1 n=10 v=0
1585132 On ch=1 n=5 v=100
1585357 Off ch=1 n=5 v=0
1585430 On ch=1 n=5 v=100
1585655 Off ch=1 n=5 v=0
1585728 On ch=1 n=5 v=100
1585953 Off ch=1 n=5 v=0
1586026 On ch=1 n=5 v=100
1586251 Off ch=1 n=5 v=0
1586324 On ch=1 n=6 v=100
1586549 Off ch=1 n=6 v=0
1586622 On ch=1 n=5 v=100
1586847 Off ch=1 n=5 v=0
1586920 On ch=1 n=7 v=100
1587145 Off ch=1 n=7 v=0
1587218 On ch=1 n=5 v=100
1587443 Off ch=1 n=5 v=0
1587565 On ch=1 n=0 v=100
1592986 Off ch=1 n=0 v=0
1593044 On ch=1 n=5 v=100
1593083 Off ch=1 n=5 v=0
1593156 On ch=1 n=13 v=100
1593221 On ch=1 n=2 v=100
1593222 Off ch=1 n=13 v=0
1593260 Off ch=1 n=2 v=0
1593333 On ch=1 n=17 v=100
1593398 On ch=1 n=2 v=100
1593403 Off ch=1 n=17 v=0
1593438 Off ch=1 n=2 v=0
1593511 On ch=1 n=16 v=100
1593575 On ch=1 n=7 v=100
1593577 Off ch=1 n=16 v=0
1593615 Off ch=1 n=7 v=0
1593687 On ch=1 n=16 v=100
1593752 On ch=1 n=2 v=100
1593754 Off ch=1 n=16 v=0
1593791 Off ch=1 n=2 v=0
1593864 On ch=1 n=11 v=100
1593929 On ch=1 n=2 v=100
1593930 Off ch=1 n=11 v=0
1593968 Off ch=1 n=2 v=0
1594041 On ch=1 n=14 v=100
1594105 On ch=1 n=5 v=100
1594107 Off ch=1 n=14 v=0
1594144 Off ch=1 n=5 v=0
1594217 On ch=1 n=17 v=100
1594282 On ch=1 n=2 v=100
1594287 Off ch=1 n=17 v=0
1594321 Off ch=1 n=2 v=0
1594395 On ch=1 n=13 v=100
1594459 On ch=1 n=2 v=100
1594460 Off ch=1 n=13 v=0
1594498 Off ch=1 n=2 v=0
1594571 On ch=1 n=15 v=100
1594636 On ch=1 n=2 v=100
1594641 Off ch=1 n=15 v=0
1594675 Off ch=1 n=2 v=0
1594749 On ch=1 n=15 v=100
1594813 On ch=1 n=2 v=100
1594818 Off ch=1 n=15 v=0
1594852 Off ch=1 n=2 v=0
1594926 On ch=1 n=13 v=100
1594990 On ch=1 n=2 v=100
1594991 Off ch=1 n=13 v=0
1595029 Off ch=1 n=2 v=0
1595102 On ch=1 n=15 v=100
1595167 On ch=1 n=2 v=100
1595172 Off ch=1 n=15 v=0
1595206 Off ch=1 n=2 v=0
1595280 On ch=1 n=15 v=100
1595344 On ch=1 n=2 v=100
1595349 Off ch=1 n=15 v=0
1595383 Off ch=1 n=2 v=0
1595457 On ch=1 n=13 v=100
1595521 On ch=1 n=2 v=100
1595522 Off ch=1 n=13 v=0
1595560 Off ch=1 n=2 v=0
1595633 On ch=1 n=15 v=100
1595698 On ch=1 n=2 v=100
1595703 Off ch=1 n=15 v=0
1595737 Off ch=1 n=2 v=0
1595811 On ch=1 n=15 v=100
1595875 On ch=1 n=2 v=100
1595880 Off ch=1 n=15 v=0
1595914 Off ch=1 n=2 v=0
1595988 On ch=1 n=13 v=100
1596052 On ch=1 n=2 v=100
1596053 Off ch=1 n=13 v=0
1596091 Off ch=1 n=2 v=0
1596164 On ch=1 n=15 v=100
1596229 On ch=1 n=2 v=100
1596234 Off ch=1 n=15 v=0
1596268 Off ch=1 n=2 v=0
1596342 On ch=1 n=15 v=100
1596406 On ch=1 n=2 v=100
1596411 Off ch=1 n=15 v=0
1596445 Off ch=1 n=2 v=0
1596519 On ch=1 n=13 v=100
1596583 On ch=1 n=2 v=100
1596584 Off ch=1 n=13 v=0
1596622 Off ch=1 n=2 v=0
1596695 On ch=1 n=15 v=100
1596760 On ch=1 n=2 v=100
1596765 Off ch=1 n=15 v=0
1596799 Off ch=1 n=2 v=0
1596873 On ch=1 n=15 v=100
1596937 On ch=1 n=2 v=100
1596942 Off ch=1 n=15 v=0
1596976 Off ch=1 n=2 v=0
1597050 On ch=1 n=13 v=100
1597114 On ch=1 n=2 v=100
1597115 Off ch=1 n=13 v=0
1597153 Off ch=1 n=2 v=0
1597226 On ch=1 n=15 v=100
1597291 On ch=1 n=2 v=100
1597296 Off ch=1 n=15 v=0
1597330 Off ch=1 n=2 v=0
1597404 On ch=1 n=15 v=100
1597468 On ch=1 n=2 v=100
1597473 Off ch=1 n=15 v=0
1597507 Off ch=1 n=2 v=0
1597581 On ch=1 n=13 v=100
1597645 On ch=1 n=2 v=100
1597646 Off ch=1 n=13 v=0
1597684 Off ch=1 n=2 v=0
1597757 On ch=1 n=15 v=100
1597822 On ch=1 n=2 v=100
1597827 Off ch=1 n=15 v=0
1597861 Off ch=1 n=2 v=0
1597935 On ch=1 n=15 v=100
1597999 On ch=1 n=2 v=100
1598004 Off ch=1 n=15 v=0
1598038 Off ch=1 n=2 v=0
1598112 On ch=1 n=13 v=100
1598176 On ch=1 n=2 v=100
1598177 Off ch=1 n=13 v=0
1598215 Off ch=1 n=2 v=0
1598288 On ch=1 n=15 v=100
1598353 On ch=1 n=2 v=100
1598358 Off ch=1 n=15 v=0
1598392 Off ch=1 n=2 v=0
1598466 On ch=1 n=15 v=100
1598530 On ch=1 n=2 v=100
1598535 Off ch=1 n=15 v=0
1598569 Off ch=1 n=2 v=0
1598643 On ch=1 n=13 v=100
1598707 On ch=1 n=2 v=100
1598708 Off ch=1 n=13 v=0
1598746 Off ch=1 n=2 v=0
1598819 On ch=1 n=15 v=100
1598884 On ch=1 n=2 v=100
1598889 Off ch=1 n=15 v=0
1598923 Off ch=1 n=2 v=0
1598997 On ch=1 n=15 v=100
1599061 On ch=1 n=2 v=100
1599066 Off ch=1 n=15 v=0
1599100 Off ch=1 n=2 v=0
1599174 On ch=1 n=13 v=100
1599238 On ch=1 n=2 v=100
1599239 Off ch=1 n=13 v=0
1599277 Off ch=1 n=2 v=0
1599350 On ch=1 n=15 v=100
1599415 On ch=1 n=2 v=100
1599420 Off ch=1 n=15 v=0
1599454 Off ch=1 n=2 v=0
1599528 On ch=1 n=15 v=100
1599592 On ch=1 n=2 v=100
1599597 Off ch=1 n=15 v=0
1599631 Off ch=1 n=2 v=0
1599705 On ch=1 n=13 v=100
1599769 On ch=1 n=2 v=100
1599770 Off ch=1 n=13 v=0
1599808 Off ch=1 n=2 v=0
1599881 On ch=1 n=15 v=100
1599946 On ch=1 n=2 v=100
1599951 Off ch=1 n=15 v=0
1599985 Off ch=1 n=2 v=0
1600059 On ch=1 n=15 v=100
1600123 On ch=1 n=2 v=100
1600128 Off ch=1 n=15 v=0
1600162 Off ch=1 n=2 v=0
1600236 On ch=1 n=13 v=100
1600300 On ch=1 n=2 v=100
1600301 Off ch=1 n=13 v=0
1600339 Off ch=1 n=2 v=0
1600412 On ch=1 n=15 v=100
1600477 On ch=1 n=2 v=100
1600482 Off ch=1 n=15 v=0
1600516 Off ch=1 n=2 v=0
1600590 On ch=1 n=15 v=100
1600654 On ch=1 n=2 v=100
1600659 Off ch=1 n=15 v=0
1600693 Off ch=1 n=2 v=0
1600767 On ch=1 n=13 v=100
1600831 On ch=1 n=2 v=100
1600832 Off ch=1 n=13 v=0
1600870 Off ch=1 n=2 v=0
1600943 On ch=1 n=15 v=100
1601008 On ch=1 n=2 v=100
1601013 Off ch=1 n=15 v=0
1601047 Off ch=1 n=2 v=0
1601121 On ch=1 n=15 v=100
1601183 On ch=1 n=4 v=100
1601190 Off ch=1 n=15 v=0
1601224 Off ch=1 n=4 v=0
1601298 On ch=1 n=13 v=100
1601362 On ch=1 n=2 v=100
1601363 Off ch=1 n=13 v=0
1601401 Off ch=1 n=2 v=0
1601474 On ch=1 n=15 v=100
1601539 On ch=1 n=2 v=100
1601544 Off ch=1 n=15 v=0
1601578 Off ch=1 n=2 v=0
1601652 On ch=1 n=14 v=100
1601716 On ch=1 n=2 v=100
1601721 Off ch=1 n=14 v=0
1601755 Off ch=1 n=2 v=0
1601828 On ch=1 n=14 v=100
1601893 On ch=1 n=2 v=100
1601894 Off ch=1 n=14 v=0
1601932 Off ch=1 n=2 v=0
1602006 On ch=1 n=13 v=100
1602070 On ch=1 n=2 v=100
1602071 Off ch=1 n=13 v=0
1602109 Off ch=1 n=2 v=0
1602182 On ch=1 n=15 v=100
1602247 On ch=1 n=2 v=100
1602252 Off ch=1 n=15 v=0
1602286 Off ch=1 n=2 v=0
1602380 On ch=1 n=1 v=100
1607446 Off ch=1 n=1 v=0
1629361 On ch=1 n=62 v=100
1629513 Off ch=1 n=62 v=0
1630572 On ch=1 n=66 v=100
1630711 Off ch=1 n=66 v=0
1631753 On ch=1 n=60 v=100
1631773 On ch=1 n=62 v=100
1631889 Off ch=1 n=60 v=0
1631922 Off ch=1 n=62 v=0
1632975 On ch=1 n=67 v=100
1633116 Off ch=1 n=67 v=0
1634003 On ch=1 n=55 v=100
1634122 Off ch=1 n=55 v=0
1639007 On ch=1 n=8 v=100
1639266 Off ch=1 n=8 v=0
1640037 On ch=1 n=7 v=100
1640297 Off ch=1 n=7 v=0
1644413 On ch=1 n=5 v=100
1644608 Off ch=1 n=5 v=0
1645405 On ch=1 n=4 v=100
1645596 Off ch=1 n=4 v=0
1646369 On ch=1 n=7 v=100
1646629 Off ch=1 n=7 v=0
1654184 On ch=1 n=10 v=100
1654761 Off ch=1 n=10 v=0
1654862 On ch=1 n=7 v=100
1655451 Off ch=1 n=7 v=0
1656344 On ch=1 n=19 v=100
1656545 Off ch=1 n=19 v=0
1656606 On ch=1 n=11 v=100
1656819 Off ch=1 n=11 v=0
1657079 On ch=1 n=29 v=100
1657164 On ch=1 n=8 v=100
1657383 Off ch=1 n=29 v=0
1657394 Off ch=1 n=8 v=0
1657495 On ch=1 n=13 v=100
1657558 Off ch=1 n=13 v=0
1657912 On ch=1 n=8 v=100
1658925 Off ch=1 n=8 v=0
1659817 On ch=1 n=18 v=100
1660018 Off ch=1 n=18 v=0
1660079 On ch=1 n=11 v=100
1660292 Off ch=1 n=11 v=0
1660756 On ch=1 n=3 v=100
1660840 Off ch=1 n=3 v=0
1664028 On ch=1 n=18 v=100
1664069 Off ch=1 n=18 v=0
1664512 On ch=1 n=12 v=100
1664677 Off ch=1 n=12 v=0
1669065 On ch=1 n=52 v=100
1669104 On ch=1 n=5 v=100
1669347 Off ch=1 n=52 v=0
1669387 Off ch=1 n=5 v=0
1670140 On ch=1 n=21 v=100
1670259 Off ch=1 n=21 v=0
1670663 On ch=1 n=9 v=100
1671674 Off ch=1 n=9 v=0
1672574 On ch=1 n=19 v=100
1672775 Off ch=1 n=19 v=0
1672835 On ch=1 n=10 v=100
1673051 Off ch=1 n=10 v=0
1673325 On ch=1 n=36 v=100
1673409 On ch=1 n=10 v=100
1674096 Off ch=1 n=36 v=0
1674098 Off ch=1 n=10 v=0
1674293 On ch=1 n=8 v=100
1675305 Off ch=1 n=8 v=0
1676205 On ch=1 n=19 v=100
1676399 Off ch=1 n=19 v=0
1676459 On ch=1 n=12 v=100
1676674 Off ch=1 n=12 v=0
1676975 On ch=1 n=9 v=100
1677986 Off ch=1 n=9 v=0
1678886 On ch=1 n=19 v=100
1679080 Off ch=1 n=19 v=0
1679140 On ch=1 n=12 v=100
1679355 Off ch=1 n=12 v=0
1679656 On ch=1 n=9 v=100
1680667 Off ch=1 n=9 v=0
1681569 On ch=1 n=19 v=100
1681763 Off ch=1 n=19 v=0
1681823 On ch=1 n=12 v=100
1682037 Off ch=1 n=12 v=0
1682339 On ch=1 n=9 v=100
1683350 Off ch=1 n=9 v=0
1684243 On ch=1 n=19 v=100
1684444 Off ch=1 n=19 v=0
1684505 On ch=1 n=12 v=100
1684719 Off ch=1 n=12 v=0
1685015 On ch=1 n=9 v=100
1686025 Off ch=1 n=9 v=0
1686918 On ch=1 n=18 v=100
1687119 Off ch=1 n=18 v=0
1687180 On ch=1 n=11 v=100
1687393 Off ch=1 n=11 v=0
1687857 On ch=1 n=12 v=100
1688693 Off ch=1 n=12 v=0
1688700 On ch=1 n=6 v=100
1693160 Off ch=1 n=6 v=0
1693267 On ch=1 n=2 v=100
1693305 On ch=1 n=12 v=100
1693308 Off ch=1 n=2 v=0
1693371 Off ch=1 n=12 v=0
1693444 On ch=1 n=2 v=100
1693482 On ch=1 n=12 v=100
1693485 Off ch=1 n=2 v=0
1693548 Off ch=1 n=12 v=0
1693621 On ch=1 n=2 v=100
1693655 On ch=1 n=13 v=100
1693662 Off ch=1 n=2 v=0
1693725 Off ch=1 n=13 v=0
1693798 On ch=1 n=2 v=100
1693836 On ch=1 n=12 v=100
1693839 Off ch=1 n=2 v=0
1693902 Off ch=1 n=12 v=0
1693975 On ch=1 n=2 v=100
1694013 On ch=1 n=12 v=100
1694016 Off ch=1 n=2 v=0
1694079 Off ch=1 n=12 v=0
1694152 On ch=1 n=2 v=100
1694190 On ch=1 n=12 v=100
1694193 Off ch=1 n=2 v=0
1694256 Off ch=1 n=12 v=0
1694329 On ch=1 n=2 v=100
1694367 On ch=1 n=12 v=100
1694370 Off ch=1 n=2 v=0
1694433 Off ch=1 n=12 v=0
1694506 On ch=1 n=2 v=100
1694544 On ch=1 n=12 v=100
1694547 Off ch=1 n=2 v=0
1694610 Off ch=1 n=12 v=0
1694683 On ch=1 n=2 v=100
1694724 Off ch=1 n=2 v=0
1694777 On ch=1 n=5 v=100
1700322 Off ch=1 n=5 v=0
1700413 On ch=1 n=2 v=100
1700451 On ch=1 n=12 v=100
1700454 Off ch=1 n=2 v=0
1700517 Off ch=1 n=12 v=0
1700590 On ch=1 n=4 v=100
1700628 On ch=1 n=12 v=100
1700631 Off ch=1 n=4 v=0
1700694 Off ch=1 n=12 v=0
1700767 On ch=1 n=4 v=100
1700805 On ch=1 n=12 v=100
1700808 Off ch=1 n=4 v=0
1700871 Off ch=1 n=12 v=0
1726087 On ch=1 n=4 v=100
1726411 Off ch=1 n=4 v=0
1727588 On ch=1 n=4 v=100
1727652 Off ch=1 n=4 v=0
1729703 On ch=1 n=2 v=100
1731921 Off ch=1 n=2 v=0
1745199 On ch=1 n=9 v=100
1746210 Off ch=1 n=9 v=0
1747111 On ch=1 n=19 v=100
1747312 Off ch=1 n=19 v=0
1747372 On ch=1 n=10 v=100
1747587 Off ch=1 n=10 v=0
1747946 On ch=1 n=9 v=100
1748957 Off ch=1 n=9 v=0
1749857 On ch=1 n=19 v=100
1750051 Off ch=1 n=19 v=0
1750111 On ch=1 n=12 v=100
1750326 Off ch=1 n=12 v=0
1750627 On ch=1 n=9 v=100
1751638 Off ch=1 n=9 v=0
1752538 On ch=1 n=19 v=100
1752732 Off ch=1 n=19 v=0
1752792 On ch=1 n=12 v=100
1753007 Off ch=1 n=12 v=0
1753308 On ch=1 n=9 v=100
1754319 Off ch=1 n=9 v=0
1754974 On ch=1 n=11 v=100
1755139 Off ch=1 n=11 v=0
1776064 On ch=1 n=29 v=100
1781513 Off ch=1 n=29 v=0
1781544 On ch=1 n=29 v=100
1781681 Off ch=1 n=29 v=0
1786534 On ch=1 n=44 v=100
1786707 Off ch=1 n=44 v=0
1796565 On ch=1 n=30 v=100
1796758 Off ch=1 n=30 v=0
1802062 On ch=1 n=10 v=100
1803045 Off ch=1 n=10 v=0
1804050 On ch=1 n=27 v=100
1804145 Off ch=1 n=27 v=0
1831424 On ch=1 n=36 v=100
1831843 On ch=1 n=9 v=100
1831846 Off ch=1 n=36 v=0
1834652 Off ch=1 n=9 v=0
1841775 On ch=1 n=25 v=100
1842296 Off ch=1 n=25 v=0
1851026 On ch=1 n=7 v=100
1851227 Off ch=1 n=7 v=0
1874074 On ch=1 n=10 v=100
1874236 Off ch=1 n=10 v=0
1874237 On ch=1 n=6 v=100
1874415 On ch=1 n=6 v=100
1874415 Off ch=1 n=6 v=0
1874638 Off ch=1 n=6 v=0
1876234 On ch=1 n=9 v=100
1876338 Off ch=1 n=9 v=0
1893885 On ch=1 n=14 v=100
1894488 Off ch=1 n=14 v=0
1894491 On ch=1 n=11 v=100
1894946 Off ch=1 n=11 v=0
1895452 On ch=1 n=11 v=100
1895579 Off ch=1 n=11 v=0
1896626 On ch=1 n=34 v=100
1896890 Off ch=1 n=34 v=0
1906103 On ch=1 n=10 v=100
1906265 Off ch=1 n=10 v=0
1906266 On ch=1 n=8 v=100
1906444 On ch=1 n=5 v=100
1906444 Off ch=1 n=8 v=0
1906667 Off ch=1 n=5 v=0
1908254 On ch=1 n=8 v=100
1908357 Off ch=1 n=8 v=0
1920083 On ch=1 n=4 v=100
1920244 Off ch=1 n=4 v=0
1920304 On ch=1 n=4 v=100
1920479 Off ch=1 n=4 v=0
1920541 On ch=1 n=4 v=100
1921994 On ch=1 n=46 v=100
1923925 Off ch=1 n=4 v=0
1924480 On ch=1 n=51 v=100
1925211 Off ch=1 n=46 v=0
1925398 Off ch=1 n=51 v=0
1925914 On ch=1 n=27 v=100
1926004 Off ch=1 n=27 v=0
1926196 On ch=1 n=8 v=100
1926457 Off ch=1 n=8 v=0
1929155 On ch=1 n=6 v=100
1929416 Off ch=1 n=6 v=0
1974963 On ch=1 n=3 v=100
1975029 Off ch=1 n=3 v=0
1976783 On ch=1 n=8 v=100
1976889 Off ch=1 n=8 v=0
1977499 On ch=1 n=10 v=100
1978894 On ch=1 n=7 v=100
1978894 Off ch=1 n=10 v=0
1979239 Off ch=1 n=7 v=0
1979243 On ch=1 n=6 v=100
1979728 Off ch=1 n=6 v=0
1979852 On ch=1 n=43 v=100
1979930 Off ch=1 n=43 v=0
1979932 On ch=1 n=20 v=100
1980045 Off ch=1 n=20 v=0
1980348 On ch=1 n=46 v=100
1980485 On ch=1 n=9 v=100
1981530 Off ch=1 n=46 v=0
1981987 Off ch=1 n=9 v=0
1981989 On ch=1 n=16 v=100
1982542 Off ch=1 n=16 v=0
1983260 On ch=1 n=10 v=100
1983362 Off ch=1 n=10 v=0
1983595 On ch=1 n=15 v=100
1983647 Off ch=1 n=15 v=0
1984143 On ch=1 n=10 v=100
1984696 On ch=1 n=30 v=100
1984755 Off ch=1 n=10 v=0
1984829 Off ch=1 n=30 v=0
1984919 On ch=1 n=6 v=100
1985430 Off ch=1 n=6 v=0
1986325 On ch=1 n=3 v=100
1987729 Off ch=1 n=3 v=0
1987799 On ch=1 n=9 v=100
1988586 Off ch=1 n=9 v=0
1989136 On ch=1 n=12 v=100
1989342 Off ch=1 n=12 v=0
1989547 On ch=1 n=10 v=100
1989661 Off ch=1 n=10 v=0
1990326 On ch=1 n=7 v=100
1990491 Off ch=1 n=7 v=0
2000420 On ch=1 n=7 v=100
2001038 Off ch=1 n=7 v=0
2001149 On ch=1 n=8 v=100
2001198 Off ch=1 n=8 v=0
2005073 On ch=1 n=3 v=100
2005106 Off ch=1 n=3 v=0
2017163 On ch=1 n=10 v=100
2017212 Off ch=1 n=10 v=0
2017323 On ch=1 n=8 v=100
2017947 Off ch=1 n=8 v=0
2043142 On ch=1 n=1 v=100
2045952 Off ch=1 n=1 v=0
2046033 On ch=1 n=2 v=100
2046067 On ch=1 n=13 v=100
2046072 Off ch=1 n=2 v=0
2046137 Off ch=1 n=13 v=0
2046210 On ch=1 n=2 v=100
2046246 On ch=1 n=22 v=100
2046251 Off ch=1 n=2 v=0
2046312 Off ch=1 n=22 v=0
2046387 On ch=1 n=2 v=100
2046421 On ch=1 n=13 v=100
2046426 Off ch=1 n=2 v=0
2046491 Off ch=1 n=13 v=0
2046564 On ch=1 n=2 v=100
2046602 On ch=1 n=12 v=100
2046605 Off ch=1 n=2 v=0
2046668 Off ch=1 n=12 v=0
2046741 On ch=1 n=2 v=100
2046779 On ch=1 n=14 v=100
2046782 Off ch=1 n=2 v=0
2046845 Off ch=1 n=14 v=0
2046918 On ch=1 n=2 v=100
2046956 On ch=1 n=14 v=100
2046959 Off ch=1 n=2 v=0
2047022 Off ch=1 n=14 v=0
2047095 On ch=1 n=2 v=100
2047131 On ch=1 n=17 v=100
2047136 Off ch=1 n=2 v=0
2047199 Off ch=1 n=17 v=0
2047272 On ch=1 n=2 v=100
2047306 On ch=1 n=13 v=100
2047313 Off ch=1 n=2 v=0
2047376 Off ch=1 n=13 v=0
2047449 On ch=1 n=4 v=100
2047487 On ch=1 n=10 v=100
2047490 Off ch=1 n=4 v=0
2047547 Off ch=1 n=10 v=0
2047626 On ch=1 n=7 v=100
2047662 On ch=1 n=19 v=100
2047666 Off ch=1 n=7 v=0
2047730 Off ch=1 n=19 v=0
2047803 On ch=1 n=2 v=100
2047837 On ch=1 n=15 v=100
2047844 Off ch=1 n=2 v=0
2047907 Off ch=1 n=15 v=0
2047980 On ch=1 n=2 v=100
2048018 On ch=1 n=12 v=100
2048021 Off ch=1 n=2 v=0
2048084 Off ch=1 n=12 v=0
2048157 On ch=1 n=2 v=100
2048195 On ch=1 n=14 v=100
2048198 Off ch=1 n=2 v=0
2048261 Off ch=1 n=14 v=0
2048334 On ch=1 n=2 v=100
2048372 On ch=1 n=14 v=100
2048375 Off ch=1 n=2 v=0
2048438 Off ch=1 n=14 v=0
2048511 On ch=1 n=2 v=100
2048549 On ch=1 n=14 v=100
2048552 Off ch=1 n=2 v=0
2048615 Off ch=1 n=14 v=0
2048688 On ch=1 n=2 v=100
2048726 On ch=1 n=14 v=100
2048729 Off ch=1 n=2 v=0
2048792 Off ch=1 n=14 v=0
2048865 On ch=1 n=2 v=100
2048903 On ch=1 n=14 v=100
2048906 Off ch=1 n=2 v=0
2048969 Off ch=1 n=14 v=0
2049042 On ch=1 n=7 v=100
2049084 Off ch=1 n=7 v=0
2051218 On ch=1 n=18 v=100
2051291 Off ch=1 n=18 v=0
2051364 On ch=1 n=2 v=100
2051402 On ch=1 n=18 v=100
2051405 Off ch=1 n=2 v=0
2051466 Off ch=1 n=18 v=0
2051540 On ch=1 n=7 v=100
2051578 On ch=1 n=12 v=100
2051581 Off ch=1 n=7 v=0
2051644 Off ch=1 n=12 v=0
2051717 On ch=1 n=2 v=100
2051753 On ch=1 n=15 v=100
2051758 Off ch=1 n=2 v=0
2051821 Off ch=1 n=15 v=0
2051894 On ch=1 n=14 v=100
2051954 Off ch=1 n=14 v=0
2057372 On ch=1 n=6 v=100
2057632 Off ch=1 n=6 v=0
2058402 On ch=1 n=7 v=100
2058664 Off ch=1 n=7 v=0
2059430 On ch=1 n=6 v=100
2059691 Off ch=1 n=6 v=0
2059904 On ch=1 n=26 v=100
2059988 On ch=1 n=14 v=100
2060199 Off ch=1 n=26 v=0
2060204 Off ch=1 n=14 v=0
2060300 On ch=1 n=14 v=100
2060395 Off ch=1 n=14 v=0
2065616 On ch=1 n=10 v=100
2066087 Off ch=1 n=10 v=0
2077809 On ch=1 n=5 v=100
2080299 Off ch=1 n=5 v=0
2081070 On ch=1 n=6 v=100
2081181 Off ch=1 n=6 v=0
2106432 On ch=1 n=0 v=100
2107761 Off ch=1 n=0 v=0
2109253 On ch=1 n=2 v=100
2110425 Off ch=1 n=2 v=0
2121533 On ch=1 n=39 v=100
2121583 Off ch=1 n=39 v=0
2122459 On ch=1 n=58 v=100
2122476 On ch=1 n=55 v=100
2122593 Off ch=1 n=58 v=0
2122597 Off ch=1 n=55 v=0
2126274 On ch=1 n=24 v=100
2126320 Off ch=1 n=24 v=0
2126968 On ch=1 n=9 v=100
2127277 Off ch=1 n=9 v=0
2128048 On ch=1 n=6 v=100
2128308 Off ch=1 n=6 v=0
2130235 On ch=1 n=12 v=100
2130345 Off ch=1 n=12 v=0
2130427 On ch=1 n=37 v=100
2130599 Off ch=1 n=37 v=0
2133654 On ch=1 n=14 v=100
2133756 Off ch=1 n=14 v=0
2133982 On ch=1 n=8 v=100
2134098 Off ch=1 n=8 v=0
2140715 On ch=1 n=39 v=100
2140789 On ch=1 n=3 v=100
2141039 Off ch=1 n=39 v=0
2141743 Off ch=1 n=3 v=0
2145446 On ch=1 n=14 v=100
2145591 Off ch=1 n=14 v=0
2149724 On ch=1 n=20 v=100
2149925 Off ch=1 n=20 v=0
2149985 On ch=1 n=11 v=100
2150201 Off ch=1 n=11 v=0
2150560 On ch=1 n=6 v=100
2151573 Off ch=1 n=6 v=0
2152464 On ch=1 n=20 v=100
2152665 Off ch=1 n=20 v=0
2152725 On ch=1 n=11 v=100
2152940 Off ch=1 n=11 v=0
2153299 On ch=1 n=6 v=100
2154308 Off ch=1 n=6 v=0
2155199 On ch=1 n=20 v=100
2155400 Off ch=1 n=20 v=0
2155460 On ch=1 n=12 v=100
2155676 Off ch=1 n=12 v=0
2165693 On ch=1 n=3 v=100
2165861 Off ch=1 n=3 v=0
2166555 On ch=1 n=3 v=100
2166723 Off ch=1 n=3 v=0
2171224 On ch=1 n=31 v=100
2171481 Off ch=1 n=31 v=0
2171484 On ch=1 n=25 v=100
2171583 On ch=1 n=7 v=100
2171584 Off ch=1 n=25 v=0
2171724 Off ch=1 n=7 v=0
2171736 On ch=1 n=24 v=100
2172296 Off ch=1 n=24 v=0
2172868 On ch=1 n=41 v=100
2174637 On ch=1 n=47 v=100
2174637 On ch=1 n=47 v=100
2174720 Off ch=1 n=41 v=0
2174791 On ch=1 n=23 v=100
2174791 On ch=1 n=23 v=100
2174804 On ch=1 n=7 v=100
2174804 On ch=1 n=7 v=100
2174862 Off ch=1 n=7 v=0
2174862 Off ch=1 n=7 v=0
2174863 Off ch=1 n=23 v=0
2174863 Off ch=1 n=23 v=0
2174869 Off ch=1 n=47 v=0
2174869 Off ch=1 n=47 v=0
2182478 On ch=1 n=2 v=100
2184598 Off ch=1 n=2 v=0
2210744 On ch=1 n=50 v=100
2211054 Off ch=1 n=50 v=0
2224853 On ch=1 n=16 v=100
2224876 Off ch=1 n=16 v=0
2230177 On ch=1 n=3 v=100
2235175 Off ch=1 n=3 v=0
2250596 On ch=1 n=1 v=100
2253284 Off ch=1 n=1 v=0
2255396 On ch=1 n=4 v=100
2255433 On ch=1 n=16 v=100
2255436 Off ch=1 n=4 v=0
2255499 Off ch=1 n=16 v=0
2255573 On ch=1 n=4 v=100
2255610 On ch=1 n=14 v=100
2255613 Off ch=1 n=4 v=0
2255676 Off ch=1 n=14 v=0
2255750 On ch=1 n=7 v=100
2255787 On ch=1 n=16 v=100
2255788 Off ch=1 n=7 v=0
2255853 Off ch=1 n=16 v=0
2255927 On ch=1 n=4 v=100
2255964 On ch=1 n=16 v=100
2255967 Off ch=1 n=4 v=0
2256030 Off ch=1 n=16 v=0
2256104 On ch=1 n=4 v=100
2256141 On ch=1 n=14 v=100
2256144 Off ch=1 n=4 v=0
2256207 Off ch=1 n=14 v=0
2256280 On ch=1 n=2 v=100
2256318 On ch=1 n=12 v=100
2256321 Off ch=1 n=2 v=0
2256384 Off ch=1 n=12 v=0
2256457 On ch=1 n=2 v=100
2256495 On ch=1 n=12 v=100
2256498 Off ch=1 n=2 v=0
2256561 Off ch=1 n=12 v=0
2256634 On ch=1 n=2 v=100
2256672 On ch=1 n=12 v=100
2256675 Off ch=1 n=2 v=0
2256738 Off ch=1 n=12 v=0
2256811 On ch=1 n=4 v=100
2256849 On ch=1 n=12 v=100
2256852 Off ch=1 n=4 v=0
2256915 Off ch=1 n=12 v=0
2256988 On ch=1 n=2 v=100
2257026 On ch=1 n=12 v=100
2257029 Off ch=1 n=2 v=0
2257092 Off ch=1 n=12 v=0
2257165 On ch=1 n=2 v=100
2257203 On ch=1 n=14 v=100
2257206 Off ch=1 n=2 v=0
2257269 Off ch=1 n=14 v=0
2257342 On ch=1 n=2 v=100
2257380 On ch=1 n=14 v=100
2257383 Off ch=1 n=2 v=0
2257446 Off ch=1 n=14 v=0
2257519 On ch=1 n=2 v=100
2257557 On ch=1 n=12 v=100
2257560 Off ch=1 n=2 v=0
2257623 Off ch=1 n=12 v=0
2257696 On ch=1 n=4 v=100
2257730 On ch=1 n=13 v=100
2257737 Off ch=1 n=4 v=0
2257800 Off ch=1 n=13 v=0
2257873 On ch=1 n=2 v=100
2257911 On ch=1 n=12 v=100
2257914 Off ch=1 n=2 v=0
2257977 Off ch=1 n=12 v=0
2258050 On ch=1 n=2 v=100
2258088 On ch=1 n=12 v=100
2258091 Off ch=1 n=2 v=0
2258154 Off ch=1 n=12 v=0
2258227 On ch=1 n=2 v=100
2258265 On ch=1 n=14 v=100
2258268 Off ch=1 n=2 v=0
2258331 Off ch=1 n=14 v=0
2258404 On ch=1 n=2 v=100
2258442 On ch=1 n=12 v=100
2258445 Off ch=1 n=2 v=0
2258508 Off ch=1 n=12 v=0
2258581 On ch=1 n=4 v=100
2258619 On ch=1 n=12 v=100
2258622 Off ch=1 n=4 v=0
2258685 Off ch=1 n=12 v=0
2258758 On ch=1 n=2 v=100
2258796 On ch=1 n=16 v=100
2258799 Off ch=1 n=2 v=0
2258862 Off ch=1 n=16 v=0
2258935 On ch=1 n=4 v=100
2258976 Off ch=1 n=4 v=0
2259029 On ch=1 n=5 v=100
2264528 Off ch=1 n=5 v=0
2264626 On ch=1 n=2 v=100
2264664 On ch=1 n=14 v=100
2264667 Off ch=1 n=2 v=0
2264730 Off ch=1 n=14 v=0
2264803 On ch=1 n=2 v=100
2264841 On ch=1 n=14 v=100
2264844 Off ch=1 n=2 v=0
2264907 Off ch=1 n=14 v=0
2264980 On ch=1 n=2 v=100
2265018 On ch=1 n=12 v=100
2265021 Off ch=1 n=2 v=0
2265084 Off ch=1 n=12 v=0
2265157 On ch=1 n=2 v=100
2265195 On ch=1 n=14 v=100
2265198 Off ch=1 n=2 v=0
2265261 Off ch=1 n=14 v=0
2265334 On ch=1 n=2 v=100
2265372 On ch=1 n=11 v=100
2265375 Off ch=1 n=2 v=0
2265438 Off ch=1 n=11 v=0
2265511 On ch=1 n=2 v=100
2265549 On ch=1 n=12 v=100
2265552 Off ch=1 n=2 v=0
2265615 Off ch=1 n=12 v=0
2265688 On ch=1 n=2 v=100
2265726 On ch=1 n=12 v=100
2265729 Off ch=1 n=2 v=0
2265792 Off ch=1 n=12 v=0
2265865 On ch=1 n=2 v=100
2265903 On ch=1 n=12 v=100
2265906 Off ch=1 n=2 v=0
2265969 Off ch=1 n=12 v=0
2266042 On ch=1 n=2 v=100
2266080 On ch=1 n=12 v=100
2266083 Off ch=1 n=2 v=0
2266146 Off ch=1 n=12 v=0
2266219 On ch=1 n=2 v=100
2266257 On ch=1 n=12 v=100
2266260 Off ch=1 n=2 v=0
2266323 Off ch=1 n=12 v=0
2266396 On ch=1 n=2 v=100
2266434 On ch=1 n=12 v=100
2266437 Off ch=1 n=2 v=0
2266500 Off ch=1 n=12 v=0
2266573 On ch=1 n=2 v=100
2266609 On ch=1 n=15 v=100
2266614 Off ch=1 n=2 v=0
2266677 Off ch=1 n=15 v=0
2266753 On ch=1 n=2 v=100
2266791 On ch=1 n=12 v=100
2266794 Off ch=1 n=2 v=0
2266857 Off ch=1 n=12 v=0
2266930 On ch=1 n=2 v=100
2266968 On ch=1 n=16 v=100
2266971 Off ch=1 n=2 v=0
2267034 Off ch=1 n=16 v=0
2267107 On ch=1 n=2 v=100
2267145 On ch=1 n=12 v=100
2267148 Off ch=1 n=2 v=0
2267211 Off ch=1 n=12 v=0
2267284 On ch=1 n=2 v=100
2267322 On ch=1 n=12 v=100
2267325 Off ch=1 n=2 v=0
2267388 Off ch=1 n=12 v=0
2267461 On ch=1 n=2 v=100
2267499 On ch=1 n=16 v=100
2267502 Off ch=1 n=2 v=0
2267565 Off ch=1 n=16 v=0
2267638 On ch=1 n=2 v=100
2267676 On ch=1 n=12 v=100
2267679 Off ch=1 n=2 v=0
2267742 Off ch=1 n=12 v=0
2267815 On ch=1 n=2 v=100
2267853 On ch=1 n=12 v=100
2267856 Off ch=1 n=2 v=0
2267919 Off ch=1 n=12 v=0
2267992 On ch=1 n=2 v=100
2268030 On ch=1 n=12 v=100
2268033 Off ch=1 n=2 v=0
2268096 Off ch=1 n=12 v=0
2268169 On ch=1 n=2 v=100
2268207 On ch=1 n=11 v=100
2268210 Off ch=1 n=2 v=0
2268272 Off ch=1 n=11 v=0
2268336 On ch=1 n=2 v=100
2268374 On ch=1 n=12 v=100
2268377 Off ch=1 n=2 v=0
2268440 Off ch=1 n=12 v=0
2268513 On ch=1 n=2 v=100
2268551 On ch=1 n=12 v=100
2268554 Off ch=1 n=2 v=0
2268617 Off ch=1 n=12 v=0
2268690 On ch=1 n=2 v=100
2268728 On ch=1 n=14 v=100
2268731 Off ch=1 n=2 v=0
2268794 Off ch=1 n=14 v=0
2268867 On ch=1 n=2 v=100
2268905 On ch=1 n=11 v=100
2268908 Off ch=1 n=2 v=0
2268971 Off ch=1 n=11 v=0
2269044 On ch=1 n=2 v=100
2269082 On ch=1 n=8 v=100
2269085 Off ch=1 n=2 v=0
2269142 Off ch=1 n=8 v=0
2269221 On ch=1 n=2 v=100
2269259 On ch=1 n=12 v=100
2269262 Off ch=1 n=2 v=0
2269325 Off ch=1 n=12 v=0
2269398 On ch=1 n=2 v=100
2269436 On ch=1 n=12 v=100
2269439 Off ch=1 n=2 v=0
2269502 Off ch=1 n=12 v=0
2269575 On ch=1 n=2 v=100
2269613 On ch=1 n=12 v=100
2269616 Off ch=1 n=2 v=0
2269679 Off ch=1 n=12 v=0
2269752 On ch=1 n=2 v=100
2269790 On ch=1 n=12 v=100
2269793 Off ch=1 n=2 v=0
2269856 Off ch=1 n=12 v=0
2269929 On ch=1 n=2 v=100
2269967 On ch=1 n=12 v=100
2269970 Off ch=1 n=2 v=0
2270033 Off ch=1 n=12 v=0
2270106 On ch=1 n=2 v=100
2270144 On ch=1 n=14 v=100
2270147 Off ch=1 n=2 v=0
2270210 Off ch=1 n=14 v=0
2270283 On ch=1 n=2 v=100
2270321 On ch=1 n=12 v=100
2270324 Off ch=1 n=2 v=0
2270387 Off ch=1 n=12 v=0
2270460 On ch=1 n=2 v=100
2270498 On ch=1 n=12 v=100
2270501 Off ch=1 n=2 v=0
2270564 Off ch=1 n=12 v=0
2270637 On ch=1 n=2 v=100
2270675 On ch=1 n=12 v=100
2270678 Off ch=1 n=2 v=0
2270741 Off ch=1 n=12 v=0
2270814 On ch=1 n=2 v=100
2270852 On ch=1 n=12 v=100
2270855 Off ch=1 n=2 v=0
2270918 Off ch=1 n=12 v=0
2270991 On ch=1 n=2 v=100
2271029 On ch=1 n=12 v=100
2271032 Off ch=1 n=2 v=0
2271095 Off ch=1 n=12 v=0
2271168 On ch=1 n=2 v=100
2271206 On ch=1 n=12 v=100
2271209 Off ch=1 n=2 v=0
2271272 Off ch=1 n=12 v=0
2271345 On ch=1 n=2 v=100
2271383 On ch=1 n=12 v=100
2271386 Off ch=1 n=2 v=0
2271449 Off ch=1 n=12 v=0
2271522 On ch=1 n=2 v=100
2271560 On ch=1 n=12 v=100
2271563 Off ch=1 n=2 v=0
2271626 Off ch=1 n=12 v=0
2271699 On ch=1 n=2 v=100
2271737 On ch=1 n=12 v=100
2271740 Off ch=1 n=2 v=0
2271803 Off ch=1 n=12 v=0
2271876 On ch=1 n=2 v=100
2271914 On ch=1 n=12 v=100
2271917 Off ch=1 n=2 v=0
2271980 Off ch=1 n=12 v=0
2272053 On ch=1 n=2 v=100
2272091 On ch=1 n=12 v=100
2272094 Off ch=1 n=2 v=0
2272157 Off ch=1 n=12 v=0
2272230 On ch=1 n=2 v=100
2272268 On ch=1 n=12 v=100
2272271 Off ch=1 n=2 v=0
2272334 Off ch=1 n=12 v=0
2272407 On ch=1 n=2 v=100
2272445 On ch=1 n=12 v=100
2272448 Off ch=1 n=2 v=0
2272511 Off ch=1 n=12 v=0
2272584 On ch=1 n=2 v=100
2272622 On ch=1 n=12 v=100
2272625 Off ch=1 n=2 v=0
2272688 Off ch=1 n=12 v=0
2272761 On ch=1 n=2 v=100
2272799 On ch=1 n=12 v=100
2272802 Off ch=1 n=2 v=0
2272865 Off ch=1 n=12 v=0
2272938 On ch=1 n=2 v=100
2272976 On ch=1 n=12 v=100
2272979 Off ch=1 n=2 v=0
2273042 Off ch=1 n=12 v=0
2273115 On ch=1 n=2 v=100
2273153 On ch=1 n=14 v=100
2273156 Off ch=1 n=2 v=0
2273219 Off ch=1 n=14 v=0
2273292 On ch=1 n=2 v=100
2273330 On ch=1 n=12 v=100
2273333 Off ch=1 n=2 v=0
2273396 Off ch=1 n=12 v=0
2273469 On ch=1 n=2 v=100
2273507 On ch=1 n=12 v=100
2273510 Off ch=1 n=2 v=0
2273573 Off ch=1 n=12 v=0
2273646 On ch=1 n=2 v=100
2273684 On ch=1 n=12 v=100
2273687 Off ch=1 n=2 v=0
2273750 Off ch=1 n=12 v=0
2273823 On ch=1 n=2 v=100
2273861 On ch=1 n=12 v=100
2273864 Off ch=1 n=2 v=0
2273927 Off ch=1 n=12 v=0
2274000 On ch=1 n=2 v=100
2274038 On ch=1 n=12 v=100
2274041 Off ch=1 n=2 v=0
2274104 Off ch=1 n=12 v=0
2274177 On ch=1 n=7 v=100
2274215 On ch=1 n=14 v=100
2274218 Off ch=1 n=7 v=0
2274281 Off ch=1 n=14 v=0
2274354 On ch=1 n=2 v=100
2274392 On ch=1 n=12 v=100
2274395 Off ch=1 n=2 v=0
2274458 Off ch=1 n=12 v=0
2274531 On ch=1 n=2 v=100
2274569 On ch=1 n=14 v=100
2274572 Off ch=1 n=2 v=0
2274635 Off ch=1 n=14 v=0
2274708 On ch=1 n=1 v=100
2274878 Off ch=1 n=1 v=0
2274926 On ch=1 n=10 v=100
2275153 Off ch=1 n=10 v=0
2293984 On ch=1 n=56 v=100
2294112 Off ch=1 n=56 v=0
2294181 On ch=1 n=56 v=100
2294341 Off ch=1 n=56 v=0
2305690 On ch=1 n=12 v=100
2305909 Off ch=1 n=12 v=0
2306230 On ch=1 n=23 v=100
2306287 Off ch=1 n=23 v=0
2307254 On ch=1 n=0 v=100
2308811 Off ch=1 n=0 v=0
2333712 On ch=1 n=11 v=100
2334036 Off ch=1 n=11 v=0
2337718 On ch=1 n=8 v=100
2337766 Off ch=1 n=8 v=0
2337877 On ch=1 n=8 v=100
2338507 Off ch=1 n=8 v=0
2351591 On ch=1 n=55 v=100
2352488 Off ch=1 n=55 v=0
2353185 On ch=1 n=48 v=100
2353229 On ch=1 n=54 v=100
2353540 Off ch=1 n=48 v=0
2353820 Off ch=1 n=54 v=0
2357558 On ch=1 n=10 v=100
2357653 On ch=1 n=10 v=100
2357672 Off ch=1 n=10 v=0
2357874 Off ch=1 n=10 v=0
2357877 On ch=1 n=19 v=100
2357970 Off ch=1 n=19 v=0
2358024 On ch=1 n=35 v=100
2358218 Off ch=1 n=35 v=0
2363429 On ch=1 n=29 v=100
2363489 Off ch=1 n=29 v=0
2365323 On ch=1 n=5 v=100
2366570 Off ch=1 n=5 v=0
2366894 On ch=1 n=7 v=100
2367044 Off ch=1 n=7 v=0
2368430 On ch=1 n=8 v=100
2368538 Off ch=1 n=8 v=0
2375626 On ch=1 n=42 v=100
2375875 Off ch=1 n=42 v=0
2379088 On ch=1 n=2 v=100
2379227 Off ch=1 n=2 v=0
2379229 On ch=1 n=1 v=100
2380895 On ch=1 n=5 v=100
2380896 Off ch=1 n=1 v=0
2384666 On ch=1 n=2 v=100
2384685 Off ch=1 n=5 v=0
2385789 Off ch=1 n=2 v=0
2385890 On ch=1 n=3 v=100
2386190 Off ch=1 n=3 v=0
2386349 On ch=1 n=19 v=100
2386550 Off ch=1 n=19 v=0
2386610 On ch=1 n=11 v=100
2386826 Off ch=1 n=11 v=0
2387184 On ch=1 n=7 v=100
2388198 Off ch=1 n=7 v=0
2389090 On ch=1 n=19 v=100
2389291 Off ch=1 n=19 v=0
2389351 On ch=1 n=11 v=100
2389567 Off ch=1 n=11 v=0
2389926 On ch=1 n=7 v=100
2390912 Off ch=1 n=7 v=0
2392373 On ch=1 n=8 v=100
2392634 Off ch=1 n=8 v=0
2393405 On ch=1 n=8 v=100
2393666 Off ch=1 n=8 v=0
2393900 On ch=1 n=3 v=100
2394065 Off ch=1 n=3 v=0
2394577 On ch=1 n=22 v=100
2394668 Off ch=1 n=22 v=0
2394836 On ch=1 n=8 v=100
2395098 Off ch=1 n=8 v=0
2399176 On ch=1 n=1 v=100
2401865 Off ch=1 n=1 v=0
2402436 On ch=1 n=8 v=100
2403014 On ch=1 n=18 v=100
2403019 Off ch=1 n=8 v=0
2403190 Off ch=1 n=18 v=0
2403351 On ch=1 n=17 v=100
2403770 Off ch=1 n=17 v=0
2407023 On ch=1 n=23 v=100
2407071 Off ch=1 n=23 v=0
2419476 On ch=1 n=19 v=100
2419533 Off ch=1 n=19 v=0
2431809 On ch=1 n=15 v=100
2431954 Off ch=1 n=15 v=0
2438237 On ch=1 n=35 v=100
2438357 Off ch=1 n=35 v=0
2444845 On ch=1 n=8 v=100
2445086 Off ch=1 n=8 v=0
2448238 On ch=1 n=7 v=100
2448398 Off ch=1 n=7 v=0
2448618 On ch=1 n=15 v=100
2448870 Off ch=1 n=15 v=0
2452895 On ch=1 n=7 v=100
2453017 Off ch=1 n=7 v=0
2453554 On ch=1 n=9 v=100
2453611 Off ch=1 n=9 v=0
2453615 On ch=1 n=9 v=100
2454033 Off ch=1 n=9 v=0
2454454 On ch=1 n=39 v=100
2454532 Off ch=1 n=39 v=0
2455538 On ch=1 n=10 v=100
2455614 On ch=1 n=9 v=100
2455632 Off ch=1 n=10 v=0
2456004 On ch=1 n=12 v=100
2456026 Off ch=1 n=9 v=0
2456110 Off ch=1 n=12 v=0
2457595 On ch=1 n=47 v=100
2457738 Off ch=1 n=47 v=0
2458473 On ch=1 n=59 v=100
2459341 Off ch=1 n=59 v=0
2460379 On ch=1 n=65 v=100
2460477 On ch=1 n=74 v=100
2460552 On ch=1 n=69 v=100
2460635 Off ch=1 n=65 v=0
2460805 On ch=1 n=63 v=100
2460924 On ch=1 n=44 v=100
2461056 Off ch=1 n=74 v=0
2461057 Off ch=1 n=69 v=0
2461101 Off ch=1 n=44 v=0
2461227 Off ch=1 n=63 v=0
2463555 On ch=1 n=14 v=100
2463636 Off ch=1 n=14 v=0
2463673 On ch=1 n=3 v=100
2467248 Off ch=1 n=3 v=0
2470546 On ch=1 n=23 v=100
2470656 Off ch=1 n=23 v=0
2476232 On ch=1 n=36 v=100
2476282 Off ch=1 n=36 v=0
2477373 On ch=1 n=51 v=100
2477485 Off ch=1 n=51 v=0
2480053 On ch=1 n=59 v=100
2480171 Off ch=1 n=59 v=0
2496974 On ch=1 n=4 v=100
2497895 Off ch=1 n=4 v=0
2503084 On ch=1 n=28 v=100
2503235 On ch=1 n=3 v=100
2503261 Off ch=1 n=28 v=0
2503688 Off ch=1 n=3 v=0
2527534 On ch=1 n=22 v=100
2528014 Off ch=1 n=22 v=0
2528113 On ch=1 n=1 v=100
2529672 On ch=1 n=4 v=100
2529672 Off ch=1 n=1 v=0
2532318 Off ch=1 n=4 v=0
2534803 On ch=1 n=51 v=100
2535222 Off ch=1 n=51 v=0
2535331 On ch=1 n=15 v=100
2535887 Off ch=1 n=15 v=0
2536605 On ch=1 n=52 v=100
2536883 Off ch=1 n=52 v=0
2536994 On ch=1 n=20 v=100
2537440 Off ch=1 n=20 v=0
2539656 On ch=1 n=6 v=100
2539763 Off ch=1 n=6 v=0
2540816 On ch=1 n=4 v=100
2540967 Off ch=1 n=4 v=0
2541234 On ch=1 n=5 v=100
2542230 Off ch=1 n=5 v=0
2548140 On ch=1 n=36 v=100
2548319 Off ch=1 n=36 v=0
2548369 On ch=1 n=26 v=100
2548462 Off ch=1 n=26 v=0
2548464 On ch=1 n=12 v=100
2548657 On ch=1 n=12 v=100
2548688 Off ch=1 n=12 v=0
2548783 Off ch=1 n=12 v=0
2550607 On ch=1 n=38 v=100
2550687 Off ch=1 n=38 v=0
2551044 On ch=1 n=24 v=100
2551106 Off ch=1 n=24 v=0
2553370 On ch=1 n=23 v=100
2553435 Off ch=1 n=23 v=0
2558146 On ch=1 n=17 v=100
2558254 Off ch=1 n=17 v=0
2561368 On ch=1 n=2 v=100
2564020 Off ch=1 n=2 v=0
2572987 On ch=1 n=11 v=100
2573097 Off ch=1 n=11 v=0
2576753 On ch=1 n=13 v=100
2576961 On ch=1 n=8 v=100
2576978 Off ch=1 n=13 v=0
2577070 Off ch=1 n=8 v=0
2584873 On ch=1 n=1 v=100
2590756 On ch=1 n=5 v=100
2590767 Off ch=1 n=1 v=0
2591219 Off ch=1 n=5 v=0
2591220 On ch=1 n=5 v=100
2591347 On ch=1 n=55 v=100
2591710 Off ch=1 n=5 v=0
2591715 On ch=1 n=5 v=100
2592753 Off ch=1 n=55 v=0
2592756 Off ch=1 n=5 v=0
2634573 On ch=1 n=38 v=100
2634652 Off ch=1 n=38 v=0
2641562 On ch=1 n=4 v=100
2641675 Off ch=1 n=4 v=0
2650912 On ch=1 n=6 v=100
2650962 Off ch=1 n=6 v=0
2651720 On ch=1 n=8 v=100
2651981 Off ch=1 n=8 v=0
2652379 On ch=1 n=2 v=100
2652432 Off ch=1 n=2 v=0
2661513 On ch=1 n=6 v=100
2661773 Off ch=1 n=6 v=0
2662564 On ch=1 n=6 v=100
2662779 Off ch=1 n=6 v=0
2663552 On ch=1 n=8 v=100
2663816 Off ch=1 n=8 v=0
2663957 On ch=1 n=8 v=100
2664218 Off ch=1 n=8 v=0
2664991 On ch=1 n=8 v=100
2665255 Off ch=1 n=8 v=0
2665396 On ch=1 n=8 v=100
2665658 Off ch=1 n=8 v=0
2683013 On ch=1 n=17 v=100
2683376 Off ch=1 n=17 v=0
2683981 On ch=1 n=16 v=100
2684045 Off ch=1 n=16 v=0
2686474 On ch=1 n=19 v=100
2686555 Off ch=1 n=19 v=0
2691892 On ch=1 n=65 v=100
2693576 Off ch=1 n=65 v=0
2695823 On ch=1 n=6 v=100
2695915 On ch=1 n=9 v=100
2695932 Off ch=1 n=6 v=0
2696147 Off ch=1 n=9 v=0
2699282 On ch=1 n=14 v=100
2699355 Off ch=1 n=14 v=0
2699840 On ch=1 n=36 v=100
2700007 Off ch=1 n=36 v=0
2700059 On ch=1 n=15 v=100
2700159 Off ch=1 n=15 v=0
2700165 On ch=1 n=9 v=100
2700409 Off ch=1 n=9 v=0
2700452 On ch=1 n=1 v=100
2701479 On ch=1 n=20 v=100
2701495 Off ch=1 n=1 v=0
2701504 Off ch=1 n=20 v=0
2701540 On ch=1 n=20 v=100
2701634 Off ch=1 n=20 v=0
2706264 On ch=1 n=10 v=100
2706373 Off ch=1 n=10 v=0
2714131 On ch=1 n=10 v=100
2714351 Off ch=1 n=10 v=0
2719593 On ch=1 n=45 v=100
2720083 Off ch=1 n=45 v=0
2724087 On ch=1 n=8 v=100
2724200 Off ch=1 n=8 v=0
2726466 On ch=1 n=13 v=100
2726583 Off ch=1 n=13 v=0
2727723 On ch=1 n=40 v=100
2727780 On ch=1 n=5 v=100
2728218 Off ch=1 n=40 v=0
2728232 Off ch=1 n=5 v=0
2728650 On ch=1 n=7 v=100
2729110 Off ch=1 n=7 v=0
2743811 On ch=1 n=15 v=100
2744200 Off ch=1 n=15 v=0
2744228 On ch=1 n=4 v=100
2744746 On ch=1 n=32 v=100
2744840 Off ch=1 n=4 v=0
2744854 On ch=1 n=7 v=100
2744896 Off ch=1 n=32 v=0
2746223 On ch=1 n=1 v=100
2746231 Off ch=1 n=7 v=0
2748722 Off ch=1 n=1 v=0
2771123 On ch=1 n=32 v=100
2771755 Off ch=1 n=32 v=0
2773317 On ch=1 n=39 v=100
2773418 On ch=1 n=7 v=100
2773420 Off ch=1 n=39 v=0
2773538 Off ch=1 n=7 v=0
2773544 On ch=1 n=10 v=100
2776773 Off ch=1 n=10 v=0
2776781 On ch=1 n=46 v=100
2778973 Off ch=1 n=46 v=0
2779307 On ch=1 n=58 v=100
2780262 Off ch=1 n=58 v=0
2780360 On ch=1 n=3 v=100
2780869 On ch=1 n=3 v=100
2780871 Off ch=1 n=3 v=0
2782488 Off ch=1 n=3 v=0
2793949 On ch=1 n=8 v=100
2794092 Off ch=1 n=8 v=0
2794093 On ch=1 n=13 v=100
2794150 Off ch=1 n=13 v=0
2794162 On ch=1 n=8 v=100
2794567 On ch=1 n=11 v=100
2794650 Off ch=1 n=8 v=0
2794772 Off ch=1 n=11 v=0
2794783 On ch=1 n=7 v=100
2795210 On ch=1 n=11 v=100
2795223 Off ch=1 n=7 v=0
2795621 On ch=1 n=14 v=100
2795681 Off ch=1 n=11 v=0
2795821 Off ch=1 n=14 v=0
2795833 On ch=1 n=8 v=100
2796263 On ch=1 n=11 v=100
2796273 Off ch=1 n=8 v=0
2796452 Off ch=1 n=11 v=0
2796463 On ch=1 n=11 v=100
2796906 On ch=1 n=11 v=100
2796977 Off ch=1 n=11 v=0
2797091 Off ch=1 n=11 v=0
2797103 On ch=1 n=8 v=100
2797542 On ch=1 n=12 v=100
2797553 Off ch=1 n=8 v=0
2797712 Off ch=1 n=12 v=0
2797724 On ch=1 n=7 v=100
2797982 Off ch=1 n=7 v=0
2799186 On ch=1 n=7 v=100
2799409 Off ch=1 n=7 v=0
2799483 On ch=1 n=6 v=100
2799515 Off ch=1 n=6 v=0
2831397 On ch=1 n=37 v=100
2831460 Off ch=1 n=37 v=0
2836735 On ch=1 n=11 v=100
2837075 Off ch=1 n=11 v=0
2839394 On ch=1 n=9 v=100
2839504 Off ch=1 n=9 v=0
2840007 On ch=1 n=7 v=100
2840047 Off ch=1 n=7 v=0
2840055 On ch=1 n=3 v=100
2840544 Off ch=1 n=3 v=0
2848893 On ch=1 n=5 v=100
2850015 Off ch=1 n=5 v=0
2850017 On ch=1 n=10 v=100
2850026 On ch=1 n=21 v=100
2850068 Off ch=1 n=10 v=0
2850074 Off ch=1 n=21 v=0
2852724 On ch=1 n=15 v=100
2852792 Off ch=1 n=15 v=0
2861589 On ch=1 n=0 v=100
2867100 Off ch=1 n=0 v=0
2869018 On ch=1 n=10 v=100
2869100 Off ch=1 n=10 v=0
2870118 On ch=1 n=20 v=100
2870465 Off ch=1 n=20 v=0
2889856 On ch=1 n=10 v=100
2889962 Off ch=1 n=10 v=0
2913645 On ch=1 n=21 v=100
2913788 Off ch=1 n=21 v=0
2914772 On ch=1 n=15 v=100
2915030 Off ch=1 n=15 v=0
2915779 On ch=1 n=29 v=100
2915846 Off ch=1 n=29 v=0
2918411 On ch=1 n=63 v=100
2918504 On ch=1 n=13 v=100
2918976 Off ch=1 n=63 v=0
2919405 Off ch=1 n=13 v=0
2935777 On ch=1 n=4 v=100
2936277 Off ch=1 n=4 v=0
2942275 On ch=1 n=1 v=100
2942301 On ch=1 n=58 v=100
2943191 Off ch=1 n=1 v=0
2943299 Off ch=1 n=58 v=0
2953567 On ch=1 n=14 v=100
2953840 Off ch=1 n=14 v=0
2953843 On ch=1 n=10 v=100
2954407 On ch=1 n=8 v=100
2954407 Off ch=1 n=10 v=0
2954455 Off ch=1 n=8 v=0
2955470 On ch=1 n=34 v=100
2955735 Off ch=1 n=34 v=0
2975478 On ch=1 n=0 v=100
2975523 Off ch=1 n=0 v=0
2997266 On ch=1 n=22 v=100
2997400 Off ch=1 n=22 v=0
3007080 On ch=1 n=14 v=100
3007729 Off ch=1 n=14 v=0
3007735 On ch=1 n=9 v=100
3008750 Off ch=1 n=9 v=0
3009675 On ch=1 n=8 v=100
3011112 Off ch=1 n=8 v=0
3014349 On ch=1 n=12 v=100
3014393 Off ch=1 n=12 v=0
3014790 On ch=1 n=23 v=100
3015009 Off ch=1 n=23 v=0
3016169 On ch=1 n=5 v=100
3016620 Off ch=1 n=5 v=0
3017044 On ch=1 n=8 v=100
3017514 Off ch=1 n=8 v=0
3034180 On ch=1 n=4 v=100
3037468 Off ch=1 n=4 v=0
3038527 On ch=1 n=8 v=100
3038629 Off ch=1 n=8 v=0
3038878 On ch=1 n=38 v=100
3038969 Off ch=1 n=38 v=0
3039317 On ch=1 n=42 v=100
3039380 On ch=1 n=14 v=100
3039380 Off ch=1 n=42 v=0
3041385 Off ch=1 n=14 v=0
3042743 On ch=1 n=9 v=100
3042839 On ch=1 n=56 v=100
3042916 On ch=1 n=50 v=100
3043034 Off ch=1 n=9 v=0
3043068 Off ch=1 n=56 v=0
3043182 Off ch=1 n=50 v=0
3043357 On ch=1 n=17 v=100
3043402 On ch=1 n=48 v=100
3043628 Off ch=1 n=17 v=0
3043698 Off ch=1 n=48 v=0
3045913 On ch=1 n=5 v=100
3046019 Off ch=1 n=5 v=0
3049530 On ch=1 n=6 v=100
3050452 Off ch=1 n=6 v=0
3053662 On ch=1 n=18 v=100
3053809 Off ch=1 n=18 v=0
3054160 On ch=1 n=21 v=100
3054388 Off ch=1 n=21 v=0
3055020 On ch=1 n=43 v=100
3055234 Off ch=1 n=43 v=0
3055552 On ch=1 n=6 v=100
3056004 Off ch=1 n=6 v=0
3056421 On ch=1 n=7 v=100
3056890 Off ch=1 n=7 v=0
3065781 On ch=1 n=5 v=100
3066040 Off ch=1 n=5 v=0
3066170 On ch=1 n=8 v=100
3066254 Off ch=1 n=8 v=0
3067015 On ch=1 n=10 v=100
3067194 Off ch=1 n=10 v=0
3091674 On ch=1 n=8 v=100
3092679 Off ch=1 n=8 v=0
3093037 On ch=1 n=10 v=100
3093253 Off ch=1 n=10 v=0
3093313 On ch=1 n=19 v=100
3093514 Off ch=1 n=19 v=0
3094407 On ch=1 n=7 v=100
3095420 Off ch=1 n=7 v=0
3095779 On ch=1 n=12 v=100
3095977 Off ch=1 n=12 v=0
3096308 On ch=1 n=7 v=100
3097299 Off ch=1 n=7 v=0
3097657 On ch=1 n=12 v=100
3097855 Off ch=1 n=12 v=0
3098186 On ch=1 n=7 v=100
3099177 Off ch=1 n=7 v=0
3099536 On ch=1 n=12 v=100
3099734 Off ch=1 n=12 v=0
3100065 On ch=1 n=7 v=100
3101056 Off ch=1 n=7 v=0
3101415 On ch=1 n=10 v=100
3101631 Off ch=1 n=10 v=0
3101691 On ch=1 n=19 v=100
3101892 Off ch=1 n=19 v=0
3102785 On ch=1 n=7 v=100
3103798 Off ch=1 n=7 v=0
3104157 On ch=1 n=12 v=100
3104355 Off ch=1 n=12 v=0
3104686 On ch=1 n=7 v=100
3105677 Off ch=1 n=7 v=0
3106036 On ch=1 n=10 v=100
3106252 Off ch=1 n=10 v=0
3106312 On ch=1 n=19 v=100
3106512 Off ch=1 n=19 v=0
3107406 On ch=1 n=7 v=100
3107618 Off ch=1 n=7 v=0
3111186 On ch=1 n=14 v=100
3111332 Off ch=1 n=14 v=0
3117457 On ch=1 n=10 v=100
3117683 Off ch=1 n=10 v=0
3120600 On ch=1 n=14 v=100
3120703 Off ch=1 n=14 v=0
3120848 On ch=1 n=14 v=100
3120933 Off ch=1 n=14 v=0
3121681 On ch=1 n=30 v=100
3121762 Off ch=1 n=30 v=0
3124323 On ch=1 n=62 v=100
3124416 On ch=1 n=13 v=100
3124878 Off ch=1 n=62 v=0
3125074 On ch=1 n=14 v=100
3125263 Off ch=1 n=13 v=0
3125305 Off ch=1 n=14 v=0
3132129 On ch=1 n=9 v=100
3132130 On ch=1 n=1 v=100
3132231 Off ch=1 n=1 v=0
3132269 On ch=1 n=11 v=100
3132272 Off ch=1 n=9 v=0
3133627 On ch=1 n=3 v=100
3133631 Off ch=1 n=11 v=0
3133720 Off ch=1 n=3 v=0
3133749 On ch=1 n=13 v=100
3133922 Off ch=1 n=13 v=0
3133923 On ch=1 n=6 v=100
3133950 Off ch=1 n=6 v=0
3134014 On ch=1 n=6 v=100
3134830 Off ch=1 n=6 v=0
3134835 On ch=1 n=7 v=100
3134887 Off ch=1 n=7 v=0
3147359 On ch=1 n=20 v=100
3147547 Off ch=1 n=20 v=0
3151748 On ch=1 n=9 v=100
3151848 Off ch=1 n=9 v=0
3155805 On ch=1 n=1 v=100
3157479 Off ch=1 n=1 v=0
3160800 On ch=1 n=0 v=100
3163190 Off ch=1 n=0 v=0
3163968 On ch=1 n=4 v=100
3164136 Off ch=1 n=4 v=0
3164821 On ch=1 n=4 v=100
3164989 Off ch=1 n=4 v=0
3165675 On ch=1 n=3 v=100
3165843 Off ch=1 n=3 v=0
3166528 On ch=1 n=6 v=100
3166692 Off ch=1 n=6 v=0
3167377 On ch=1 n=4 v=100
3167545 Off ch=1 n=4 v=0
3168230 On ch=1 n=4 v=100
3168398 Off ch=1 n=4 v=0
3169084 On ch=1 n=3 v=100
3169252 Off ch=1 n=3 v=0
3169937 On ch=1 n=6 v=100
3170101 Off ch=1 n=6 v=0
3170786 On ch=1 n=3 v=100
3170954 Off ch=1 n=3 v=0
3171639 On ch=1 n=3 v=100
3171807 Off ch=1 n=3 v=0
3172492 On ch=1 n=6 v=100
3172656 Off ch=1 n=6 v=0
3173341 On ch=1 n=4 v=100
3173509 Off ch=1 n=4 v=0
3174194 On ch=1 n=4 v=100
3174363 Off ch=1 n=4 v=0
3175048 On ch=1 n=6 v=100
3175217 Off ch=1 n=6 v=0
3175904 On ch=1 n=0 v=100
3176060 Off ch=1 n=0 v=0
3185924 On ch=1 n=9 v=100
3186079 Off ch=1 n=9 v=0
3202154 On ch=1 n=5 v=100
3202219 Off ch=1 n=5 v=0
3215890 On ch=1 n=6 v=100
3216149 Off ch=1 n=6 v=0
3216921 On ch=1 n=9 v=100
3217181 Off ch=1 n=9 v=0
3217616 On ch=1 n=9 v=100
3217876 Off ch=1 n=9 v=0
3218311 On ch=1 n=7 v=100
3218572 Off ch=1 n=7 v=0
3219343 On ch=1 n=8 v=100
3219603 Off ch=1 n=8 v=0
3224672 On ch=1 n=53 v=100
3224794 Off ch=1 n=53 v=0
3225652 On ch=1 n=68 v=100
3225666 On ch=1 n=40 v=100
3225669 On ch=1 n=59 v=100
3225722 Off ch=1 n=40 v=0
3225786 Off ch=1 n=59 v=0
3225790 Off ch=1 n=68 v=0
3226848 On ch=1 n=61 v=100
3226988 Off ch=1 n=61 v=0
3228071 On ch=1 n=41 v=100
3228122 Off ch=1 n=41 v=0
3229273 On ch=1 n=55 v=100
3229279 On ch=1 n=59 v=100
3229385 Off ch=1 n=55 v=0
3229411 Off ch=1 n=59 v=0
3230470 On ch=1 n=38 v=100
3230472 On ch=1 n=60 v=100
3230521 Off ch=1 n=38 v=0
3230584 Off ch=1 n=60 v=0
3249441 On ch=1 n=1 v=100
3250963 Off ch=1 n=1 v=0
3251998 On ch=1 n=48 v=100
3252363 Off ch=1 n=48 v=0
3252759 On ch=1 n=38 v=100
3252835 Off ch=1 n=38 v=0
3258167 On ch=1 n=18 v=100
3258320 Off ch=1 n=18 v=0
3259985 On ch=1 n=21 v=100
3260335 Off ch=1 n=21 v=0
3260419 On ch=1 n=47 v=100
3260625 Off ch=1 n=47 v=0
3266817 On ch=1 n=16 v=100
3267435 Off ch=1 n=16 v=0
3267440 On ch=1 n=16 v=100
3267495 Off ch=1 n=16 v=0
3268585 On ch=1 n=46 v=100
3268601 On ch=1 n=3 v=100
3268673 Off ch=1 n=46 v=0
3268712 On ch=1 n=48 v=100
3268736 On ch=1 n=3 v=100
3268737 Off ch=1 n=3 v=0
3268863 Off ch=1 n=48 v=0
3272826 Off ch=1 n=3 v=0
3273361 On ch=1 n=7 v=100
3273559 Off ch=1 n=7 v=0
3273729 On ch=1 n=27 v=100
3273815 Off ch=1 n=27 v=0
3285877 On ch=1 n=4 v=100
3288439 Off ch=1 n=4 v=0
3289620 On ch=1 n=8 v=100
3289683 Off ch=1 n=8 v=0
3291901 On ch=1 n=5 v=100
3292007 Off ch=1 n=5 v=0
3294321 On ch=1 n=18 v=100
3294593 Off ch=1 n=18 v=0
3294630 On ch=1 n=18 v=100
3294741 Off ch=1 n=18 v=0
3295530 On ch=1 n=34 v=100
3295614 Off ch=1 n=34 v=0
3296067 On ch=1 n=14 v=100
3296145 Off ch=1 n=14 v=0
3296177 On ch=1 n=14 v=100
3296264 Off ch=1 n=14 v=0
3307059 On ch=1 n=1 v=100
3310029 Off ch=1 n=1 v=0
3319727 On ch=1 n=5 v=100
3319951 Off ch=1 n=5 v=0
3320024 On ch=1 n=12 v=100
3320117 Off ch=1 n=12 v=0
3327557 On ch=1 n=7 v=100
3327817 Off ch=1 n=7 v=0
3327827 On ch=1 n=8 v=100
3327965 On ch=1 n=6 v=100
3328028 Off ch=1 n=8 v=0
3328453 Off ch=1 n=6 v=0
3328464 On ch=1 n=8 v=100
3328669 Off ch=1 n=8 v=0
3328681 On ch=1 n=11 v=100
3328834 On ch=1 n=7 v=100
3328884 Off ch=1 n=11 v=0
3329154 Off ch=1 n=7 v=0
3334659 On ch=1 n=47 v=100
3335167 Off ch=1 n=47 v=0
3346182 On ch=1 n=20 v=100
3346461 Off ch=1 n=20 v=0
3350515 On ch=1 n=5 v=100
3350554 Off ch=1 n=5 v=0
3355614 On ch=1 n=12 v=100
3355828 Off ch=1 n=12 v=0
3355864 On ch=1 n=37 v=100
3355927 Off ch=1 n=37 v=0
3356378 On ch=1 n=30 v=100
3356490 Off ch=1 n=30 v=0
3358508 On ch=1 n=16 v=100
3358650 Off ch=1 n=16 v=0
3359011 On ch=1 n=40 v=100
3359088 Off ch=1 n=40 v=0
3369242 On ch=1 n=8 v=100
3369404 Off ch=1 n=8 v=0
3370192 On ch=1 n=8 v=100
3370413 Off ch=1 n=8 v=0
3371520 On ch=1 n=4 v=100
3372095 Off ch=1 n=4 v=0
3372100 On ch=1 n=3 v=100
3372133 On ch=1 n=52 v=100
3372346 Off ch=1 n=3 v=0
3372375 Off ch=1 n=52 v=0
3376751 On ch=1 n=15 v=100
3376961 Off ch=1 n=15 v=0
3384335 On ch=1 n=5 v=100
3384372 Off ch=1 n=5 v=0
3387190 On ch=1 n=11 v=100
3387466 Off ch=1 n=11 v=0
3392652 On ch=1 n=9 v=100
3392788 Off ch=1 n=9 v=0
3392790 On ch=1 n=13 v=100
3392846 Off ch=1 n=13 v=0
3392858 On ch=1 n=8 v=100
3393279 Off ch=1 n=8 v=0
3393280 On ch=1 n=9 v=100
3393463 Off ch=1 n=9 v=0
3393475 On ch=1 n=7 v=100
3393882 On ch=1 n=13 v=100
3393995 Off ch=1 n=7 v=0
3394086 Off ch=1 n=13 v=0
3394098 On ch=1 n=7 v=100
3394521 On ch=1 n=8 v=100
3394535 Off ch=1 n=7 v=0
3394937 On ch=1 n=13 v=100
3395041 Off ch=1 n=8 v=0
3395139 Off ch=1 n=13 v=0
3395151 On ch=1 n=8 v=100
3395578 On ch=1 n=14 v=100
3395687 Off ch=1 n=8 v=0
3395778 Off ch=1 n=14 v=0
3395790 On ch=1 n=8 v=100
3395992 Off ch=1 n=8 v=0
3396003 On ch=1 n=8 v=100
3396427 On ch=1 n=11 v=100
3396531 Off ch=1 n=8 v=0
3396629 Off ch=1 n=11 v=0
3396641 On ch=1 n=7 v=100
3397050 On ch=1 n=9 v=100
3397116 Off ch=1 n=7 v=0
3397487 On ch=1 n=11 v=100
3397487 Off ch=1 n=9 v=0
3397668 Off ch=1 n=11 v=0
3397680 On ch=1 n=7 v=100
3398092 On ch=1 n=13 v=100
3398101 Off ch=1 n=7 v=0
3398280 Off ch=1 n=13 v=0
3398292 On ch=1 n=8 v=100
3398704 On ch=1 n=10 v=100
3398753 Off ch=1 n=8 v=0
3399122 On ch=1 n=15 v=100
3399233 Off ch=1 n=10 v=0
3399326 Off ch=1 n=15 v=0
3399338 On ch=1 n=7 v=100
3399543 Off ch=1 n=7 v=0
3399555 On ch=1 n=7 v=100
3399962 On ch=1 n=10 v=100
3400070 Off ch=1 n=7 v=0
3400166 Off ch=1 n=10 v=0
3400178 On ch=1 n=8 v=100
3400601 On ch=1 n=11 v=100
3400705 Off ch=1 n=8 v=0
3400803 Off ch=1 n=11 v=0
3400815 On ch=1 n=7 v=100
3401224 On ch=1 n=8 v=100
3401290 Off ch=1 n=7 v=0
3401656 On ch=1 n=11 v=100
3401660 Off ch=1 n=8 v=0
3401842 Off ch=1 n=11 v=0
3401854 On ch=1 n=7 v=100
3402271 On ch=1 n=13 v=100
3402274 Off ch=1 n=7 v=0
3402454 Off ch=1 n=13 v=0
3402466 On ch=1 n=8 v=100
3402874 On ch=1 n=11 v=100
3402916 Off ch=1 n=8 v=0
3403296 On ch=1 n=15 v=100
3403409 Off ch=1 n=11 v=0
3403500 Off ch=1 n=15 v=0
3403512 On ch=1 n=7 v=100
3403717 Off ch=1 n=7 v=0
3403729 On ch=1 n=7 v=100
3404137 On ch=1 n=10 v=100
3404200 Off ch=1 n=7 v=0
3404340 Off ch=1 n=10 v=0
3404351 On ch=1 n=8 v=100
3404775 On ch=1 n=12 v=100
3404879 Off ch=1 n=8 v=0
3404977 Off ch=1 n=12 v=0
3404989 On ch=1 n=8 v=100
3405194 Off ch=1 n=8 v=0
3405206 On ch=1 n=10 v=100
3405411 Off ch=1 n=10 v=0
3405421 On ch=1 n=9 v=100
3405680 Off ch=1 n=9 v=0
3406923 On ch=1 n=3 v=100
3407148 Off ch=1 n=3 v=0
3407221 On ch=1 n=29 v=100
3410109 On ch=1 n=1 v=100
3412025 Off ch=1 n=29 v=0
3412836 Off ch=1 n=1 v=0
3413965 On ch=1 n=6 v=100
3414627 Off ch=1 n=6 v=0
3427454 On ch=1 n=17 v=100
3427559 Off ch=1 n=17 v=0
3431663 On ch=1 n=32 v=100
3431747 Off ch=1 n=32 v=0
3432374 On ch=1 n=9 v=100
3432468 On ch=1 n=10 v=100
3432492 Off ch=1 n=9 v=0
3432731 Off ch=1 n=10 v=0
3432738 On ch=1 n=14 v=100
3432837 Off ch=1 n=14 v=0
3432887 On ch=1 n=30 v=100
3433045 Off ch=1 n=30 v=0
3433574 On ch=1 n=12 v=100
3433629 Off ch=1 n=12 v=0
3436207 On ch=1 n=32 v=100
3436353 Off ch=1 n=32 v=0
3436569 On ch=1 n=12 v=100
3436649 Off ch=1 n=12 v=0
3437185 On ch=1 n=16 v=100
3437371 Off ch=1 n=16 v=0
3437599 On ch=1 n=12 v=100
3437657 Off ch=1 n=12 v=0
3438917 On ch=1 n=19 v=100
3438973 Off ch=1 n=19 v=0
3443405 On ch=1 n=11 v=100
3443476 Off ch=1 n=11 v=0
3444290 On ch=1 n=17 v=100
3444356 Off ch=1 n=17 v=0
3444399 On ch=1 n=9 v=100
3444481 Off ch=1 n=9 v=0
3448569 On ch=1 n=38 v=100
3448652 Off ch=1 n=38 v=0
3448657 On ch=1 n=7 v=100
3448931 On ch=1 n=44 v=100
3448932 Off ch=1 n=7 v=0
3450544 Off ch=1 n=44 v=0
3456309 On ch=1 n=42 v=100
3456620 Off ch=1 n=42 v=0
3456625 On ch=1 n=5 v=100
3456855 On ch=1 n=34 v=100
3456856 Off ch=1 n=5 v=0
3457732 Off ch=1 n=34 v=0
3483524 On ch=1 n=3 v=100
3483691 Off ch=1 n=3 v=0
3489901 On ch=1 n=2 v=100
3491200 Off ch=1 n=2 v=0
3493750 On ch=1 n=0 v=100
3497241 Off ch=1 n=0 v=0
3504543 On ch=1 n=9 v=100
3504708 Off ch=1 n=9 v=0
3505363 On ch=1 n=9 v=100
3506353 Off ch=1 n=9 v=0
3506712 On ch=1 n=11 v=100
3506927 Off ch=1 n=11 v=0
3506987 On ch=1 n=19 v=100
3507188 Off ch=1 n=19 v=0
3508087 On ch=1 n=5 v=100
3508127 On ch=1 n=53 v=100
3508370 Off ch=1 n=5 v=0
3508409 Off ch=1 n=53 v=0
3509143 On ch=1 n=2 v=100
3513084 Off ch=1 n=2 v=0
3517766 On ch=1 n=15 v=100
3517911 Off ch=1 n=15 v=0
3521297 On ch=1 n=2 v=100
3522239 Off ch=1 n=2 v=0
3525352 On ch=1 n=8 v=100
3525468 Off ch=1 n=8 v=0
3526666 On ch=1 n=13 v=100
3526768 Off ch=1 n=13 v=0
3528397 On ch=1 n=28 v=100
3528596 Off ch=1 n=28 v=0
3534939 On ch=1 n=35 v=100
3535118 Off ch=1 n=35 v=0
3535168 On ch=1 n=14 v=100
3535321 Off ch=1 n=14 v=0
3535651 On ch=1 n=52 v=100
3535785 Off ch=1 n=52 v=0
3536411 On ch=1 n=23 v=100
3536474 Off ch=1 n=23 v=0
3537570 On ch=1 n=8 v=100
3537830 Off ch=1 n=8 v=0
3538589 On ch=1 n=7 v=100
3538849 Off ch=1 n=7 v=0
3539619 On ch=1 n=7 v=100
3539879 Off ch=1 n=7 v=0
3540200 On ch=1 n=1 v=100
3541419 Off ch=1 n=1 v=0
3544670 On ch=1 n=26 v=100
3544774 Off ch=1 n=26 v=0
3545987 On ch=1 n=3 v=100
3546817 Off ch=1 n=3 v=0
3564470 On ch=1 n=7 v=100
3564972 Off ch=1 n=7 v=0
3564983 On ch=1 n=12 v=100
3565100 On ch=1 n=7 v=100
3565187 Off ch=1 n=12 v=0
3565612 Off ch=1 n=7 v=0
3565622 On ch=1 n=13 v=100
3565758 On ch=1 n=8 v=100
3565826 Off ch=1 n=13 v=0
3566249 Off ch=1 n=8 v=0
3566261 On ch=1 n=12 v=100
3566391 On ch=1 n=6 v=100
3566465 Off ch=1 n=12 v=0
3566889 Off ch=1 n=6 v=0
3566900 On ch=1 n=12 v=100
3567083 On ch=1 n=6 v=100
3567087 Off ch=1 n=12 v=0
3567510 Off ch=1 n=6 v=0
3567522 On ch=1 n=8 v=100
3567689 Off ch=1 n=8 v=0
3568947 On ch=1 n=4 v=100
3570594 On ch=1 n=7 v=100
3570703 Off ch=1 n=4 v=0
3570766 Off ch=1 n=7 v=0
3571188 On ch=1 n=23 v=100
3571881 On ch=1 n=7 v=100
3573198 Off ch=1 n=23 v=0
3573209 Off ch=1 n=7 v=0
3576696 On ch=1 n=15 v=100
3577212 Off ch=1 n=15 v=0
3580951 On ch=1 n=20 v=100
3581209 Off ch=1 n=20 v=0
3582939 On ch=1 n=21 v=100
3582973 Off ch=1 n=21 v=0
3583024 On ch=1 n=21 v=100
3583125 Off ch=1 n=21 v=0
3585159 On ch=1 n=16 v=100
3585285 Off ch=1 n=16 v=0
3585380 On ch=1 n=16 v=100
3585493 Off ch=1 n=16 v=0
3586236 On ch=1 n=38 v=100
3586320 Off ch=1 n=38 v=0
3591187 On ch=1 n=11 v=100
3591295 Off ch=1 n=11 v=0
3596967 On ch=1 n=1 v=100
3598531 Off ch=1 n=1 v=0
3619513 On ch=1 n=36 v=100
3619513 On ch=1 n=4 v=100
3619762 Off ch=1 n=4 v=0
3619799 Off ch=1 n=36 v=0
3623522 On ch=1 n=8 v=100
3623849 Off ch=1 n=8 v=0
3633750 On ch=1 n=10 v=100
3633799 Off ch=1 n=10 v=0
3633910 On ch=1 n=9 v=100
3634541 Off ch=1 n=9 v=0
3664092 On ch=1 n=6 v=100
3664156 Off ch=1 n=6 v=0
3675898 On ch=1 n=4 v=100
3678777 Off ch=1 n=4 v=0
3678833 On ch=1 n=4 v=100
3679235 Off ch=1 n=4 v=0
3682208 On ch=1 n=2 v=100
3682376 Off ch=1 n=2 v=0
3683062 On ch=1 n=2 v=100
3683230 Off ch=1 n=2 v=0
3683915 On ch=1 n=3 v=100
3684084 Off ch=1 n=3 v=0
3684195 On ch=1 n=5 v=100
3684363 Off ch=1 n=5 v=0
3684602 On ch=1 n=32 v=100
3684691 Off ch=1 n=32 v=0
3685048 On ch=1 n=2 v=100
3685216 Off ch=1 n=2 v=0
3685901 On ch=1 n=3 v=100
3686069 Off ch=1 n=3 v=0
3686181 On ch=1 n=5 v=100
3686349 Off ch=1 n=5 v=0
3686588 On ch=1 n=32 v=100
3686677 Off ch=1 n=32 v=0
3687034 On ch=1 n=2 v=100
3687202 Off ch=1 n=2 v=0
3687888 On ch=1 n=3 v=100
3688057 Off ch=1 n=3 v=0
3688743 On ch=1 n=3 v=100
3688911 Off ch=1 n=3 v=0
3689152 On ch=1 n=32 v=100
3689241 Off ch=1 n=32 v=0
3689598 On ch=1 n=3 v=100
3689766 Off ch=1 n=3 v=0
3690006 On ch=1 n=34 v=100
3690110 Off ch=1 n=34 v=0
3690453 On ch=1 n=3 v=100
3690621 Off ch=1 n=3 v=0
3690918 On ch=1 n=0 v=100
3692531 Off ch=1 n=0 v=0
3717444 On ch=1 n=2 v=100
3721166 On ch=1 n=16 v=100
3721379 Off ch=1 n=2 v=0
3721623 Off ch=1 n=16 v=0
3722864 On ch=1 n=10 v=100
3722956 Off ch=1 n=10 v=0
3722966 On ch=1 n=7 v=100
3723419 Off ch=1 n=7 v=0
3735800 On ch=1 n=11 v=100
3736013 Off ch=1 n=11 v=0
3736074 On ch=1 n=19 v=100
3736275 Off ch=1 n=19 v=0
3737169 On ch=1 n=8 v=100
3737887 Off ch=1 n=8 v=0
3738168 On ch=1 n=7 v=100
3738172 On ch=1 n=30 v=100
3738468 Off ch=1 n=7 v=0
3738551 Off ch=1 n=30 v=0
3738814 On ch=1 n=10 v=100
3739026 Off ch=1 n=10 v=0
3739087 On ch=1 n=19 v=100
3739288 Off ch=1 n=19 v=0
3740214 On ch=1 n=8 v=100
3741222 Off ch=1 n=8 v=0
3741230 On ch=1 n=1 v=100
3743945 Off ch=1 n=1 v=0
3757837 On ch=1 n=2 v=100
3758130 Off ch=1 n=2 v=0
3759041 On ch=1 n=10 v=100
3761407 On ch=1 n=11 v=100
3761409 Off ch=1 n=10 v=0
3761467 On ch=1 n=5 v=100
3761472 Off ch=1 n=11 v=0
3761506 Off ch=1 n=5 v=0
3761579 On ch=1 n=13 v=100
3761644 On ch=1 n=2 v=100
3761649 Off ch=1 n=13 v=0
3761683 Off ch=1 n=2 v=0
3761756 On ch=1 n=15 v=100
3761821 On ch=1 n=2 v=100
3761826 Off ch=1 n=15 v=0
3761860 Off ch=1 n=2 v=0
3761944 On ch=1 n=1 v=100
3766222 Off ch=1 n=1 v=0
3766224 On ch=1 n=1 v=100
3769037 Off ch=1 n=1 v=0
3778819 On ch=1 n=3 v=100
3779051 Off ch=1 n=3 v=0
3779112 On ch=1 n=6 v=100
3779162 Off ch=1 n=6 v=0
3779917 On ch=1 n=9 v=100
3780178 Off ch=1 n=9 v=0
3780957 On ch=1 n=7 v=100
3781206 Off ch=1 n=7 v=0
3781537 On ch=1 n=1 v=100
3782738 Off ch=1 n=1 v=0
3789968 On ch=1 n=66 v=100
3790037 On ch=1 n=8 v=100
3790914 On ch=1 n=31 v=100
3790922 Off ch=1 n=8 v=0
3790972 Off ch=1 n=66 v=0
3791639 On ch=1 n=2 v=100
3791641 Off ch=1 n=31 v=0
3791819 Off ch=1 n=2 v=0
3796721 On ch=1 n=8 v=100
3799773 Off ch=1 n=8 v=0
3800604 On ch=1 n=33 v=100
3801091 Off ch=1 n=33 v=0
3850874 On ch=1 n=13 v=100
3850976 Off ch=1 n=13 v=0
3851202 On ch=1 n=8 v=100
3851318 Off ch=1 n=8 v=0
3851594 On ch=1 n=37 v=100
3851677 Off ch=1 n=37 v=0
3854394 On ch=1 n=2 v=100
3854644 Off ch=1 n=2 v=0
3854673 On ch=1 n=3 v=100
3855396 Off ch=1 n=3 v=0
3860028 On ch=1 n=14 v=100
3860173 Off ch=1 n=14 v=0
3865487 On ch=1 n=52 v=100
3865526 On ch=1 n=5 v=100
3865769 Off ch=1 n=52 v=0
3865809 Off ch=1 n=5 v=0
3866699 On ch=1 n=19 v=100
3866900 Off ch=1 n=19 v=0
3866960 On ch=1 n=11 v=100
3867175 Off ch=1 n=11 v=0
3867534 On ch=1 n=9 v=100
3868545 Off ch=1 n=9 v=0
3869446 On ch=1 n=19 v=100
3869647 Off ch=1 n=19 v=0
3869707 On ch=1 n=11 v=100
3869922 Off ch=1 n=11 v=0
3870281 On ch=1 n=9 v=100
3871290 Off ch=1 n=9 v=0
3872191 On ch=1 n=19 v=100
3872392 Off ch=1 n=19 v=0
3872452 On ch=1 n=12 v=100
3872667 Off ch=1 n=12 v=0
3873026 On ch=1 n=9 v=100
3874036 Off ch=1 n=9 v=0
3874937 On ch=1 n=19 v=100
3875138 Off ch=1 n=19 v=0
3875198 On ch=1 n=10 v=100
3875413 Off ch=1 n=10 v=0
3875772 On ch=1 n=9 v=100
3876778 Off ch=1 n=9 v=0
3877678 On ch=1 n=19 v=100
3877879 Off ch=1 n=19 v=0
3877939 On ch=1 n=10 v=100
3878154 Off ch=1 n=10 v=0
3890549 On ch=1 n=3 v=100
3890717 Off ch=1 n=3 v=0
3890828 On ch=1 n=4 v=100
3890995 Off ch=1 n=4 v=0
3891680 On ch=1 n=3 v=100
3891848 Off ch=1 n=3 v=0
3891960 On ch=1 n=4 v=100
3892127 Off ch=1 n=4 v=0
3892812 On ch=1 n=3 v=100
3892980 Off ch=1 n=3 v=0
3893092 On ch=1 n=3 v=100
3893259 Off ch=1 n=3 v=0
3893499 On ch=1 n=37 v=100
3893605 Off ch=1 n=37 v=0
3893945 On ch=1 n=3 v=100
3894113 Off ch=1 n=3 v=0
3894225 On ch=1 n=3 v=100
3894392 Off ch=1 n=3 v=0
3894631 On ch=1 n=38 v=100
3894738 Off ch=1 n=38 v=0
3895077 On ch=1 n=3 v=100
3895246 Off ch=1 n=3 v=0
3895358 On ch=1 n=4 v=100
3895525 Off ch=1 n=4 v=0
3895636 On ch=1 n=3 v=100
3895803 Off ch=1 n=3 v=0
3895914 On ch=1 n=3 v=100
3896080 Off ch=1 n=3 v=0
3896321 On ch=1 n=32 v=100
3896406 Off ch=1 n=32 v=0
3896767 On ch=1 n=2 v=100
3896935 Off ch=1 n=2 v=0
3897176 On ch=1 n=29 v=100
3897262 Off ch=1 n=29 v=0
3897622 On ch=1 n=2 v=100
3897790 Off ch=1 n=2 v=0
3898430 On ch=1 n=7 v=100
3898544 Off ch=1 n=7 v=0
3898839 On ch=1 n=1 v=100
3902416 Off ch=1 n=1 v=0
3904025 On ch=1 n=1 v=100
3905589 On ch=1 n=21 v=100
3905967 Off ch=1 n=1 v=0
3906213 Off ch=1 n=21 v=0
3909011 On ch=1 n=6 v=100
3909347 Off ch=1 n=6 v=0
3909357 On ch=1 n=13 v=100
3909457 On ch=1 n=9 v=100
3909546 Off ch=1 n=13 v=0
3909910 On ch=1 n=7 v=100
3909974 Off ch=1 n=9 v=0
3910247 On ch=1 n=9 v=100
3910249 Off ch=1 n=7 v=0
3910748 Off ch=1 n=9 v=0
3910758 On ch=1 n=11 v=100
3910930 On ch=1 n=9 v=100
3910937 Off ch=1 n=11 v=0
3911362 Off ch=1 n=9 v=0
3911367 On ch=1 n=13 v=100
3911555 On ch=1 n=7 v=100
3911564 Off ch=1 n=13 v=0
3911988 Off ch=1 n=7 v=0
3911995 On ch=1 n=13 v=100
3912098 On ch=1 n=8 v=100
3912186 Off ch=1 n=13 v=0
3912602 Off ch=1 n=8 v=0
3912609 On ch=1 n=13 v=100
3912797 On ch=1 n=7 v=100
3912806 Off ch=1 n=13 v=0
3913230 Off ch=1 n=7 v=0
3913242 On ch=1 n=13 v=100
3913340 On ch=1 n=7 v=100
3913426 Off ch=1 n=13 v=0
3913849 Off ch=1 n=7 v=0
3913862 On ch=1 n=11 v=100
3914041 On ch=1 n=10 v=100
3914046 Off ch=1 n=11 v=0
3914481 Off ch=1 n=10 v=0
3914493 On ch=1 n=13 v=100
3914684 On ch=1 n=7 v=100
3914697 Off ch=1 n=13 v=0
3914979 Off ch=1 n=7 v=0
3914980 On ch=1 n=8 v=100
3915085 On ch=1 n=10 v=100
3915117 Off ch=1 n=8 v=0
3915286 Off ch=1 n=10 v=0
3915299 On ch=1 n=15 v=100
3915355 Off ch=1 n=15 v=0
3915356 On ch=1 n=8 v=100
3915493 Off ch=1 n=8 v=0
3922032 On ch=1 n=18 v=100
3922164 Off ch=1 n=18 v=0
3924957 On ch=1 n=3 v=100
3925662 On ch=1 n=40 v=100
3925912 Off ch=1 n=3 v=0
3925986 Off ch=1 n=40 v=0
3932630 On ch=1 n=8 v=100
3932746 Off ch=1 n=8 v=0
3932972 On ch=1 n=13 v=100
3933074 Off ch=1 n=13 v=0
3935923 On ch=1 n=13 v=100
3936070 Off ch=1 n=13 v=0
3937995 On ch=1 n=7 v=100
3938255 Off ch=1 n=7 v=0
3939005 On ch=1 n=7 v=100
3939265 Off ch=1 n=7 v=0
3940036 On ch=1 n=7 v=100
3940296 Off ch=1 n=7 v=0
3940635 On ch=1 n=1 v=100
3941855 Off ch=1 n=1 v=0
3945200 On ch=1 n=24 v=100
3945311 Off ch=1 n=24 v=0
3948294 On ch=1 n=4 v=100
3950049 On ch=1 n=41 v=100
3950183 Off ch=1 n=4 v=0
3950186 On ch=1 n=5 v=100
3950315 Off ch=1 n=5 v=0
3950353 Off ch=1 n=41 v=0
3954779 On ch=1 n=3 v=100
3958419 Off ch=1 n=3 v=0
3971445 On ch=1 n=1 v=100
3973706 Off ch=1 n=1 v=0
3973870 On ch=1 n=19 v=100
3973994 Off ch=1 n=19 v=0
3980412 On ch=1 n=2 v=100
3981307 Off ch=1 n=2 v=0
3981309 On ch=1 n=4 v=100
3983561 Off ch=1 n=4 v=0
4001154 On ch=1 n=32 v=100
4001351 Off ch=1 n=32 v=0
4007421 On ch=1 n=0 v=100
4008998 Off ch=1 n=0 v=0
4009965 On ch=1 n=23 v=100
4010032 Off ch=1 n=23 v=0
4010368 On ch=1 n=12 v=100
4010587 Off ch=1 n=12 v=0
4015913 On ch=1 n=0 v=100
4021660 Off ch=1 n=0 v=0
4021777 On ch=1 n=48 v=100
4021891 On ch=1 n=66 v=100
4022021 On ch=1 n=57 v=100
4022541 Off ch=1 n=66 v=0
4022634 Off ch=1 n=48 v=0
4022634 Off ch=1 n=57 v=0
4042933 On ch=1 n=34 v=100
4043030 Off ch=1 n=34 v=0
4043376 On ch=1 n=12 v=100
4043392 On ch=1 n=40 v=100
4043460 Off ch=1 n=12 v=0
4043531 On ch=1 n=2 v=100
4044604 Off ch=1 n=40 v=0
4044608 Off ch=1 n=2 v=0
4049290 On ch=1 n=15 v=100
4049398 Off ch=1 n=15 v=0
4054269 On ch=1 n=34 v=100
4054353 Off ch=1 n=34 v=0
4055096 On ch=1 n=15 v=100
4055228 Off ch=1 n=15 v=0
4055256 On ch=1 n=15 v=100
4055363 Off ch=1 n=15 v=0
4055779 On ch=1 n=10 v=100
4055937 Off ch=1 n=10 v=0
4056212 On ch=1 n=8 v=100
4056487 Off ch=1 n=8 v=0
4057073 On ch=1 n=33 v=100
4057143 Off ch=1 n=33 v=0
4057502 On ch=1 n=28 v=100
4057564 Off ch=1 n=28 v=0
4064053 On ch=1 n=16 v=100
4064199 Off ch=1 n=16 v=0
4067682 On ch=1 n=7 v=100
4067894 Off ch=1 n=7 v=0
4068749 On ch=1 n=19 v=100
4068950 Off ch=1 n=19 v=0
4069010 On ch=1 n=10 v=100
4069226 Off ch=1 n=10 v=0
4069457 On ch=1 n=33 v=100
4069585 On ch=1 n=7 v=100
4070598 Off ch=1 n=7 v=0
4070605 Off ch=1 n=33 v=0
4071489 On ch=1 n=19 v=100
4071690 Off ch=1 n=19 v=0
4071750 On ch=1 n=11 v=100
4071966 Off ch=1 n=11 v=0
4072325 On ch=1 n=7 v=100
4073338 Off ch=1 n=7 v=0
4074229 On ch=1 n=19 v=100
4074430 Off ch=1 n=19 v=0
4074490 On ch=1 n=10 v=100
4074705 Off ch=1 n=10 v=0
4074893 On ch=1 n=7 v=100
4075907 Off ch=1 n=7 v=0
4076000 On ch=1 n=18 v=100
4076123 Off ch=1 n=18 v=0
4080318 On ch=1 n=1 v=100
4080848 On ch=1 n=2 v=100
4080856 Off ch=1 n=1 v=0
4081305 Off ch=1 n=2 v=0
4082956 On ch=1 n=4 v=100
4083321 Off ch=1 n=4 v=0
4175334 On ch=1 n=23 v=100
4175401 Off ch=1 n=23 v=0
4193833 On ch=1 n=7 v=100
4193970 Off ch=1 n=7 v=0
4193971 On ch=1 n=15 v=100
4194027 Off ch=1 n=15 v=0
4194040 On ch=1 n=10 v=100
4194210 On ch=1 n=7 v=100
4194242 Off ch=1 n=10 v=0
4194347 Off ch=1 n=7 v=0
4194348 On ch=1 n=5 v=100
4194623 Off ch=1 n=5 v=0
4194630 On ch=1 n=13 v=100
4194834 Off ch=1 n=13 v=0
4194846 On ch=1 n=10 v=100
4195269 On ch=1 n=13 v=100
4195287 Off ch=1 n=10 v=0
4195465 Off ch=1 n=13 v=0
4195478 On ch=1 n=6 v=100
4195737 Off ch=1 n=6 v=0
4201332 On ch=1 n=11 v=100
4201511 On ch=1 n=11 v=100
4201605 Off ch=1 n=11 v=0
4201703 Off ch=1 n=11 v=0
4201714 On ch=1 n=10 v=100
4202138 On ch=1 n=13 v=100
4202189 Off ch=1 n=10 v=0
4202342 Off ch=1 n=13 v=0
4202353 On ch=1 n=9 v=100
4202777 On ch=1 n=11 v=100
4202880 Off ch=1 n=9 v=0
4202978 Off ch=1 n=11 v=0
4202990 On ch=1 n=8 v=100
4203397 On ch=1 n=14 v=100
4203500 Off ch=1 n=8 v=0
4203598 Off ch=1 n=14 v=0
4203610 On ch=1 n=8 v=100
4204048 On ch=1 n=13 v=100
4204048 Off ch=1 n=8 v=0
4204234 Off ch=1 n=13 v=0
4204239 On ch=1 n=8 v=100
4204647 On ch=1 n=9 v=100
4204713 Off ch=1 n=8 v=0
4205080 On ch=1 n=12 v=100
4205085 Off ch=1 n=9 v=0
4205232 On ch=1 n=13 v=100
4205264 Off ch=1 n=12 v=0
4205372 Off ch=1 n=13 v=0
4207091 On ch=1 n=6 v=100
4207423 On ch=1 n=12 v=100
4207489 Off ch=1 n=6 v=0
4207631 Off ch=1 n=12 v=0
4207643 On ch=1 n=6 v=100
4207977 Off ch=1 n=6 v=0
4208510 On ch=1 n=2 v=100
4208554 Off ch=1 n=2 v=0
4210795 On ch=1 n=25 v=100
4211041 On ch=1 n=2 v=100
4211422 Off ch=1 n=25 v=0
4213417 Off ch=1 n=2 v=0
4217404 On ch=1 n=0 v=100
4217436 Off ch=1 n=0 v=0
4217536 On ch=1 n=2 v=100
4218276 Off ch=1 n=2 v=0
4268518 On ch=1 n=53 v=100
4268770 Off ch=1 n=53 v=0
4273098 On ch=1 n=8 v=100
4273149 Off ch=1 n=8 v=0
4273773 On ch=1 n=12 v=100
4273913 Off ch=1 n=12 v=0
4279362 On ch=1 n=50 v=100
4279401 On ch=1 n=5 v=100
4279631 Off ch=1 n=50 v=0
4279671 Off ch=1 n=5 v=0
4280531 On ch=1 n=21 v=100
4280730 Off ch=1 n=21 v=0
4280790 On ch=1 n=13 v=100
4281008 Off ch=1 n=13 v=0
4281210 On ch=1 n=12 v=100
4285894 Off ch=1 n=12 v=0
4288392 On ch=1 n=38 v=100
4288572 Off ch=1 n=38 v=0
4290424 On ch=1 n=11 v=100
4290540 Off ch=1 n=11 v=0
4291422 On ch=1 n=21 v=100
4291481 Off ch=1 n=21 v=0
4293616 On ch=1 n=2 v=100
4294553 Off ch=1 n=2 v=0
4298359 On ch=1 n=18 v=100
4298505 Off ch=1 n=18 v=0
4302059 On ch=1 n=10 v=100
4302150 On ch=1 n=5 v=100
4302150 Off ch=1 n=10 v=0
4302629 Off ch=1 n=5 v=0
4303520 On ch=1 n=20 v=100
4303721 Off ch=1 n=20 v=0
4303781 On ch=1 n=11 v=100
4303996 Off ch=1 n=11 v=0
4304168 On ch=1 n=8 v=100
4304964 Off ch=1 n=8 v=0
4306038 On ch=1 n=19 v=100
4306239 Off ch=1 n=19 v=0
4306299 On ch=1 n=10 v=100
4306515 Off ch=1 n=10 v=0
4306788 On ch=1 n=31 v=100
4306874 On ch=1 n=10 v=100
4306959 On ch=1 n=1 v=100
4306963 Off ch=1 n=31 v=0
4306978 Off ch=1 n=10 v=0
4307114 Off ch=1 n=1 v=0
4307141 On ch=1 n=1 v=100
4308425 Off ch=1 n=1 v=0
4308434 On ch=1 n=7 v=100
4309373 Off ch=1 n=7 v=0
4309451 On ch=1 n=17 v=100
4309575 Off ch=1 n=17 v=0
4313993 On ch=1 n=1 v=100
4314523 On ch=1 n=2 v=100
4314531 Off ch=1 n=1 v=0
4314982 Off ch=1 n=2 v=0
4326949 On ch=1 n=5 v=100
4327333 Off ch=1 n=5 v=0
4329601 On ch=1 n=9 v=100
4329861 Off ch=1 n=9 v=0
4330058 On ch=1 n=30 v=100
4330149 Off ch=1 n=30 v=0
4330632 On ch=1 n=6 v=100
4330892 Off ch=1 n=6 v=0
4334859 On ch=1 n=7 v=100
4335119 Off ch=1 n=7 v=0
4335890 On ch=1 n=6 v=100
4336150 Off ch=1 n=6 v=0
4336920 On ch=1 n=6 v=100
4337180 Off ch=1 n=6 v=0
4337692 On ch=1 n=22 v=100
4337785 Off ch=1 n=22 v=0
4337951 On ch=1 n=6 v=100
4338211 Off ch=1 n=6 v=0
4338981 On ch=1 n=6 v=100
4339241 Off ch=1 n=6 v=0
4339558 On ch=1 n=1 v=100
4345082 Off ch=1 n=1 v=0
4345334 On ch=1 n=22 v=100
4345427 Off ch=1 n=22 v=0
4345593 On ch=1 n=7 v=100
4345853 Off ch=1 n=7 v=0
4346630 On ch=1 n=9 v=100
4346890 Off ch=1 n=9 v=0
4347497 On ch=1 n=9 v=100
4347635 On ch=1 n=13 v=100
4347635 Off ch=1 n=9 v=0
4347692 Off ch=1 n=13 v=0
4347704 On ch=1 n=9 v=100
4348109 On ch=1 n=11 v=100
4348180 Off ch=1 n=9 v=0
4348313 Off ch=1 n=11 v=0
4348325 On ch=1 n=8 v=100
4348761 On ch=1 n=12 v=100
4348844 Off ch=1 n=8 v=0
4348942 Off ch=1 n=12 v=0
4348954 On ch=1 n=8 v=100
4349386 Off ch=1 n=8 v=0
4349393 On ch=1 n=13 v=100
4349573 Off ch=1 n=13 v=0
4349585 On ch=1 n=8 v=100
4350006 Off ch=1 n=8 v=0
4350007 On ch=1 n=11 v=100
4350188 Off ch=1 n=11 v=0
4350199 On ch=1 n=6 v=100
4350457 Off ch=1 n=6 v=0
4351674 On ch=1 n=30 v=100
4354697 On ch=1 n=1 v=100
4356686 Off ch=1 n=30 v=0
4357353 Off ch=1 n=1 v=0
4357434 On ch=1 n=4 v=100
4357660 Off ch=1 n=4 v=0
4357733 On ch=1 n=6 v=100
4357958 Off ch=1 n=6 v=0
4358032 On ch=1 n=7 v=100
4358255 Off ch=1 n=7 v=0
4358328 On ch=1 n=5 v=100
4358551 Off ch=1 n=5 v=0
4358625 On ch=1 n=19 v=100
4358868 On ch=1 n=1 v=100
4359064 Off ch=1 n=19 v=0
4363038 On ch=1 n=1 v=100
4363038 Off ch=1 n=1 v=0
4367137 Off ch=1 n=1 v=0
4375539 On ch=1 n=4 v=100
4375853 Off ch=1 n=4 v=0
4377205 On ch=1 n=49 v=100
4377636 Off ch=1 n=49 v=0
4380298 On ch=1 n=4 v=100
4381292 Off ch=1 n=4 v=0
4389575 On ch=1 n=2 v=100
4390122 Off ch=1 n=2 v=0
4390273 On ch=1 n=4 v=100
4391773 On ch=1 n=12 v=100
4391774 Off ch=1 n=4 v=0
4391977 Off ch=1 n=12 v=0
4392949 On ch=1 n=28 v=100
4393199 Off ch=1 n=28 v=0
4393430 On ch=1 n=8 v=100
4393540 Off ch=1 n=8 v=0
4396201 On ch=1 n=15 v=100
4396535 Off ch=1 n=15 v=0
4404911 On ch=1 n=36 v=100
4404927 On ch=1 n=18 v=100
4404995 Off ch=1 n=36 v=0
4405042 Off ch=1 n=18 v=0
4405209 On ch=1 n=1 v=100
4406558 Off ch=1 n=1 v=0
4416016 On ch=1 n=16 v=100
4416235 Off ch=1 n=16 v=0
4416571 On ch=1 n=24 v=100
4416635 Off ch=1 n=24 v=0
4417599 On ch=1 n=1 v=100
4419175 Off ch=1 n=1 v=0
4457089 On ch=1 n=7 v=100
4457516 Off ch=1 n=7 v=0
4460393 On ch=1 n=11 v=100
4460711 Off ch=1 n=11 v=0
4463096 On ch=1 n=42 v=100
4463237 Off ch=1 n=42 v=0
4473869 On ch=1 n=17 v=100
4474046 Off ch=1 n=17 v=0
4477989 On ch=1 n=7 v=100
4478399 Off ch=1 n=7 v=0
4483847 On ch=1 n=4 v=100
4484426 Off ch=1 n=4 v=0
4484437 On ch=1 n=6 v=100
4484798 Off ch=1 n=6 v=0
4484838 On ch=1 n=3 v=100
4485378 Off ch=1 n=3 v=0
4486508 On ch=1 n=1 v=100
4486521 On ch=1 n=49 v=100
4489594 Off ch=1 n=1 v=0
4489597 On ch=1 n=1 v=100
4491072 Off ch=1 n=49 v=0
4491081 Off ch=1 n=1 v=0
4526230 On ch=1 n=3 v=100
4526594 Off ch=1 n=3 v=0
4526893 On ch=1 n=3 v=100
4527339 On ch=1 n=1 v=100
4527347 Off ch=1 n=3 v=0
4527877 Off ch=1 n=1 v=0
4532069 On ch=1 n=18 v=100
4532192 Off ch=1 n=18 v=0
4532285 On ch=1 n=7 v=100
4533298 Off ch=1 n=7 v=0
4533657 On ch=1 n=10 v=100
4533873 Off ch=1 n=10 v=0
4533933 On ch=1 n=19 v=100
4534134 Off ch=1 n=19 v=0
4535025 On ch=1 n=7 v=100
4536039 Off ch=1 n=7 v=0
4536397 On ch=1 n=10 v=100
4536612 Off ch=1 n=10 v=0
4536672 On ch=1 n=20 v=100
4536873 Off ch=1 n=20 v=0
4537764 On ch=1 n=7 v=100
4537976 Off ch=1 n=7 v=0
4541384 On ch=1 n=13 v=100
4541526 Off ch=1 n=13 v=0
4544566 On ch=1 n=15 v=100
4544657 Off ch=1 n=15 v=0
4548507 On ch=1 n=8 v=100
4548725 Off ch=1 n=8 v=0
4549165 On ch=1 n=29 v=100
4549274 Off ch=1 n=29 v=0
4551061 On ch=1 n=55 v=100
4551216 On ch=1 n=1 v=100
4552022 Off ch=1 n=55 v=0
4553254 Off ch=1 n=1 v=0
4553303 On ch=1 n=1 v=100
4553590 Off ch=1 n=1 v=0
4571741 On ch=1 n=1 v=100
4573304 Off ch=1 n=1 v=0
4573353 On ch=1 n=1 v=100
4573641 Off ch=1 n=1 v=0
4591152 On ch=1 n=36 v=100
4591229 On ch=1 n=26 v=100
4591248 On ch=1 n=26 v=100
4591311 Off ch=1 n=36 v=0
4591326 Off ch=1 n=26 v=0
4591333 Off ch=1 n=26 v=0
4641757 On ch=1 n=60 v=100
4641757 On ch=1 n=60 v=100
4641869 On ch=1 n=44 v=100
4642010 Off ch=1 n=60 v=0
4642010 Off ch=1 n=60 v=0
4643123 Off ch=1 n=44 v=0
4643127 On ch=1 n=33 v=100
4643634 Off ch=1 n=33 v=0
4644193 On ch=1 n=24 v=100
4644764 Off ch=1 n=24 v=0
4644774 On ch=1 n=7 v=100
4644875 On ch=1 n=50 v=100
4644913 Off ch=1 n=7 v=0
4644915 On ch=1 n=31 v=100
4645233 Off ch=1 n=50 v=0
4645638 Off ch=1 n=31 v=0
4651969 On ch=1 n=12 v=100
4652185 Off ch=1 n=12 v=0
4652245 On ch=1 n=20 v=100
4652446 Off ch=1 n=20 v=0
4653338 On ch=1 n=6 v=100
4654347 Off ch=1 n=6 v=0
4654706 On ch=1 n=11 v=100
4654922 Off ch=1 n=11 v=0
4654982 On ch=1 n=20 v=100
4655183 Off ch=1 n=20 v=0
4659363 On ch=1 n=14 v=100
4659508 Off ch=1 n=14 v=0
4663295 On ch=1 n=3 v=100
4664004 On ch=1 n=39 v=100
4664254 Off ch=1 n=3 v=0
4664328 Off ch=1 n=39 v=0
4670970 On ch=1 n=8 v=100
4671086 Off ch=1 n=8 v=0
4671312 On ch=1 n=13 v=100
4671412 Off ch=1 n=13 v=0
4674476 On ch=1 n=36 v=100
4674655 Off ch=1 n=36 v=0
4674737 On ch=1 n=11 v=100
4674845 Off ch=1 n=11 v=0
4677765 On ch=1 n=6 v=100
4677964 Off ch=1 n=6 v=0
4677969 On ch=1 n=3 v=100
4678360 Off ch=1 n=3 v=0
4678362 On ch=1 n=13 v=100
4678896 Off ch=1 n=13 v=0
4680287 On ch=1 n=15 v=100
4680655 Off ch=1 n=15 v=0
4686107 On ch=1 n=8 v=100
4686108 On ch=1 n=17 v=100
4686184 Off ch=1 n=8 v=0
4686213 On ch=1 n=14 v=100
4686216 Off ch=1 n=17 v=0
4686381 On ch=1 n=4 v=100
4687403 Off ch=1 n=14 v=0
4687428 Off ch=1 n=4 v=0
4688406 On ch=1 n=1 v=100
4688695 Off ch=1 n=1 v=0
4688698 On ch=1 n=1 v=100
4689750 Off ch=1 n=1 v=0
4695479 On ch=1 n=6 v=100
4696214 Off ch=1 n=6 v=0
4696450 On ch=1 n=11 v=100
4696709 Off ch=1 n=11 v=0
4697240 On ch=1 n=27 v=100
4697326 Off ch=1 n=27 v=0
4697496 On ch=1 n=4 v=100
4698922 Off ch=1 n=4 v=0
4698988 On ch=1 n=8 v=100
4699032 On ch=1 n=4 v=100
4699060 Off ch=1 n=8 v=0
4699445 On ch=1 n=5 v=100
4699553 Off ch=1 n=4 v=0
4700146 On ch=1 n=3 v=100
4700149 Off ch=1 n=5 v=0
4702384 Off ch=1 n=3 v=0
4702386 On ch=1 n=4 v=100
4703531 Off ch=1 n=4 v=0
4718492 On ch=1 n=38 v=100
4718577 Off ch=1 n=38 v=0
4740130 On ch=1 n=25 v=100
4740242 Off ch=1 n=25 v=0
4757409 On ch=1 n=42 v=100
4757420 On ch=1 n=5 v=100
4757771 Off ch=1 n=5 v=0
4757853 Off ch=1 n=42 v=0
4763452 On ch=1 n=30 v=100
4763522 Off ch=1 n=30 v=0
4766100 On ch=1 n=9 v=100
4766578 Off ch=1 n=9 v=0
4766580 On ch=1 n=9 v=100
4767131 Off ch=1 n=9 v=0
4767538 On ch=1 n=8 v=100
4767733 Off ch=1 n=8 v=0
4767760 On ch=1 n=7 v=100
4767933 Off ch=1 n=7 v=0
4767934 On ch=1 n=8 v=100
4768095 Off ch=1 n=8 v=0
4770634 On ch=1 n=55 v=100
4770718 On ch=1 n=4 v=100
4770944 Off ch=1 n=55 v=0
4770944 Off ch=1 n=4 v=0
4772793 On ch=1 n=3 v=100
4773073 Off ch=1 n=3 v=0
4786917 On ch=1 n=1 v=100
4787529 On ch=1 n=3 v=100
4787531 Off ch=1 n=1 v=0
4787593 Off ch=1 n=3 v=0
4792725 On ch=1 n=7 v=100
4792817 Off ch=1 n=7 v=0
4814740 On ch=1 n=30 v=100
4814903 Off ch=1 n=30 v=0
4825049 On ch=1 n=11 v=100
4825184 Off ch=1 n=11 v=0
4826541 On ch=1 n=15 v=100
4826821 Off ch=1 n=15 v=0
4832952 On ch=1 n=5 v=100
4833329 Off ch=1 n=5 v=0
4833354 On ch=1 n=44 v=100
4833379 On ch=1 n=3 v=100
4833415 On ch=1 n=5 v=100
4833529 Off ch=1 n=44 v=0
4833573 Off ch=1 n=3 v=0
4834208 Off ch=1 n=5 v=0
4839932 On ch=1 n=6 v=100
4840003 On ch=1 n=13 v=100
4840003 Off ch=1 n=6 v=0
4840672 Off ch=1 n=13 v=0
4842616 On ch=1 n=14 v=100
4842724 Off ch=1 n=14 v=0
4843145 On ch=1 n=6 v=100
4844931 Off ch=1 n=6 v=0
4844949 On ch=1 n=6 v=100
4845674 Off ch=1 n=6 v=0
4845766 On ch=1 n=12 v=100
4845932 Off ch=1 n=12 v=0
4846213 On ch=1 n=48 v=100
4846242 On ch=1 n=67 v=100
4846385 On ch=1 n=10 v=100
4846803 Off ch=1 n=48 v=0
4846986 Off ch=1 n=67 v=0
4847001 Off ch=1 n=10 v=0
4847304 On ch=1 n=10 v=100
4847691 Off ch=1 n=10 v=0
4848583 On ch=1 n=15 v=100
4849055 Off ch=1 n=15 v=0
4849061 On ch=1 n=6 v=100
4849425 Off ch=1 n=6 v=0
4849441 On ch=1 n=10 v=100
4849828 Off ch=1 n=10 v=0
4854858 On ch=1 n=15 v=100
4855040 On ch=1 n=56 v=100
4855193 On ch=1 n=57 v=100
4855330 Off ch=1 n=15 v=0
4855333 On ch=1 n=6 v=100
4855338 On ch=1 n=60 v=100
4855373 Off ch=1 n=57 v=0
4855389 Off ch=1 n=56 v=0
4855514 On ch=1 n=57 v=100
4855803 On ch=1 n=8 v=100
4855808 Off ch=1 n=6 v=0
4856101 Off ch=1 n=57 v=0
4856103 Off ch=1 n=60 v=0
4856214 Off ch=1 n=8 v=0
4859665 On ch=1 n=13 v=100
4859871 Off ch=1 n=13 v=0
4859873 On ch=1 n=5 v=100
4860017 Off ch=1 n=5 v=0
4860019 On ch=1 n=2 v=100
4860480 Off ch=1 n=2 v=0
4860493 On ch=1 n=4 v=100
4861181 Off ch=1 n=4 v=0
4888419 On ch=1 n=6 v=100
4888935 Off ch=1 n=6 v=0
4901198 On ch=1 n=9 v=100
4901314 Off ch=1 n=9 v=0
4903626 On ch=1 n=25 v=100
4903856 Off ch=1 n=25 v=0
4905013 On ch=1 n=5 v=100
4905014 On ch=1 n=54 v=100
4905464 Off ch=1 n=5 v=0
4905577 Off ch=1 n=54 v=0
4905896 On ch=1 n=8 v=100
4906372 Off ch=1 n=8 v=0
4917118 On ch=1 n=12 v=100
4917167 Off ch=1 n=12 v=0
4917277 On ch=1 n=6 v=100
4917888 Off ch=1 n=6 v=0
4976829 On ch=1 n=4 v=100
4977153 Off ch=1 n=4 v=0
4978325 On ch=1 n=4 v=100
4978389 Off ch=1 n=4 v=0
4979984 On ch=1 n=36 v=100
4980070 Off ch=1 n=36 v=0
4981284 On ch=1 n=38 v=100
4981366 Off ch=1 n=38 v=0
4983429 On ch=1 n=2 v=100
4985640 Off ch=1 n=2 v=0
4997966 On ch=1 n=4 v=100
4998537 Off ch=1 n=4 v=0
4998701 On ch=1 n=9 v=100
4999326 Off ch=1 n=9 v=0
5000104 On ch=1 n=9 v=100
5000206 Off ch=1 n=9 v=0
5000465 On ch=1 n=31 v=100
5000538 Off ch=1 n=31 v=0
5000887 On ch=1 n=56 v=100
5000952 On ch=1 n=16 v=100
5001502 Off ch=1 n=56 v=0
5001505 Off ch=1 n=16 v=0
5001507 On ch=1 n=10 v=100
5001770 On ch=1 n=51 v=100
5002197 On ch=1 n=48 v=100
5002998 Off ch=1 n=10 v=0
5003164 Off ch=1 n=48 v=0
5003181 Off ch=1 n=51 v=0
5003466 On ch=1 n=20 v=100
5003579 Off ch=1 n=20 v=0
5003581 On ch=1 n=47 v=100
5003660 Off ch=1 n=47 v=0
5003783 On ch=1 n=5 v=100
5004268 Off ch=1 n=5 v=0
5004272 On ch=1 n=7 v=100
5004617 Off ch=1 n=7 v=0
5004618 On ch=1 n=11 v=100
5004648 On ch=1 n=48 v=100
5005056 Off ch=1 n=11 v=0
5005109 Off ch=1 n=48 v=0
5005448 On ch=1 n=2 v=100
5005610 On ch=1 n=21 v=100
5005687 On ch=1 n=5 v=100
5005705 Off ch=1 n=2 v=0
5005820 Off ch=1 n=21 v=0
5010197 Off ch=1 n=5 v=0
5016768 On ch=1 n=12 v=100
5017921 Off ch=1 n=12 v=0
5018125 On ch=1 n=10 v=100
5019091 Off ch=1 n=10 v=0
5019696 On ch=1 n=10 v=100
5019802 Off ch=1 n=10 v=0
5021551 On ch=1 n=1 v=100
5021617 Off ch=1 n=1 v=0
5028226 On ch=1 n=26 v=100
5028293 Off ch=1 n=26 v=0
5042837 On ch=1 n=11 v=100
5044921 Off ch=1 n=11 v=0
5056778 On ch=1 n=4 v=100
5057247 On ch=1 n=1 v=100
5057247 Off ch=1 n=4 v=0
5059667 On ch=1 n=59 v=100
5060900 On ch=1 n=54 v=100
5062118 On ch=1 n=5 v=100
5062123 Off ch=1 n=1 v=0
5062402 Off ch=1 n=54 v=0
5062451 Off ch=1 n=59 v=0
5062454 Off ch=1 n=5 v=0
5063167 On ch=1 n=8 v=100
5063213 On ch=1 n=11 v=100
5063215 Off ch=1 n=8 v=0
5063335 Off ch=1 n=11 v=0
5064601 On ch=1 n=3 v=100
5065050 Off ch=1 n=3 v=0
5066217 On ch=1 n=19 v=100
5066530 Off ch=1 n=19 v=0
5067669 On ch=1 n=12 v=100
5067703 Off ch=1 n=12 v=0
5081179 On ch=1 n=20 v=100
5081274 Off ch=1 n=20 v=0
5092931 On ch=1 n=41 v=100
5092932 On ch=1 n=8 v=100
5093065 Off ch=1 n=8 v=0
5093134 Off ch=1 n=41 v=0
5093674 On ch=1 n=34 v=100
5093733 Off ch=1 n=34 v=0
5094871 On ch=1 n=17 v=100
5094974 Off ch=1 n=17 v=0
5095016 On ch=1 n=17 v=100
5095104 Off ch=1 n=17 v=0
5095131 On ch=1 n=32 v=100
5095190 Off ch=1 n=32 v=0
5095667 On ch=1 n=27 v=100
5095767 Off ch=1 n=27 v=0
5102500 On ch=1 n=8 v=100
5102660 Off ch=1 n=8 v=0
5102883 On ch=1 n=14 v=100
5103134 Off ch=1 n=14 v=0
5109754 On ch=1 n=9 v=100
5110380 Off ch=1 n=9 v=0
5110784 On ch=1 n=35 v=100
5110869 Off ch=1 n=35 v=0
5111820 On ch=1 n=18 v=100
5111924 Off ch=1 n=18 v=0
5111933 On ch=1 n=9 v=100
5112177 On ch=1 n=4 v=100
5112183 Off ch=1 n=9 v=0
5112301 Off ch=1 n=4 v=0
5113780 On ch=1 n=49 v=100
5113801 On ch=1 n=55 v=100
5114341 Off ch=1 n=55 v=0
5114558 Off ch=1 n=49 v=0
5114815 On ch=1 n=40 v=100
5114859 On ch=1 n=41 v=100
5114862 On ch=1 n=47 v=100
5114868 On ch=1 n=49 v=100
5114935 Off ch=1 n=40 v=0
5114983 Off ch=1 n=41 v=0
5115043 Off ch=1 n=47 v=0
5115084 Off ch=1 n=49 v=0
5116406 On ch=1 n=12 v=100
5116486 Off ch=1 n=12 v=0
5117985 On ch=1 n=16 v=100
5118448 Off ch=1 n=16 v=0
5118694 On ch=1 n=3 v=100
5123671 Off ch=1 n=3 v=0
5123706 On ch=1 n=27 v=100
5123715 Off ch=1 n=27 v=0
5124367 On ch=1 n=16 v=100
5124953 Off ch=1 n=16 v=0
5124960 On ch=1 n=19 v=100
5125026 Off ch=1 n=19 v=0
5129300 On ch=1 n=8 v=100
5130310 Off ch=1 n=8 v=0
5131201 On ch=1 n=18 v=100
5131402 Off ch=1 n=18 v=0
5131463 On ch=1 n=11 v=100
5131677 Off ch=1 n=11 v=0
5147626 On ch=1 n=17 v=100
5147644 On ch=1 n=9 v=100
5147663 Off ch=1 n=17 v=0
5147919 Off ch=1 n=9 v=0
5148282 On ch=1 n=4 v=100
5149513 Off ch=1 n=4 v=0
5152487 On ch=1 n=23 v=100
5152595 Off ch=1 n=23 v=0
5155897 On ch=1 n=1 v=100
5157114 Off ch=1 n=1 v=0
5157440 On ch=1 n=6 v=100
5157700 Off ch=1 n=6 v=0
5158470 On ch=1 n=6 v=100
5158730 Off ch=1 n=6 v=0
5159500 On ch=1 n=7 v=100
5159760 Off ch=1 n=7 v=0
5160856 On ch=1 n=23 v=100
5160919 Off ch=1 n=23 v=0
5161685 On ch=1 n=12 v=100
5161795 Off ch=1 n=12 v=0
5161880 On ch=1 n=35 v=100
5162056 Off ch=1 n=35 v=0
5165131 On ch=1 n=13 v=100
5165233 Off ch=1 n=13 v=0
5165460 On ch=1 n=17 v=100
5165575 Off ch=1 n=17 v=0
5168698 On ch=1 n=3 v=100
5169646 Off ch=1 n=3 v=0
5172599 On ch=1 n=18 v=100
5172731 Off ch=1 n=18 v=0
5177650 On ch=1 n=7 v=100
5177861 Off ch=1 n=7 v=0
5178752 On ch=1 n=20 v=100
5178953 Off ch=1 n=20 v=0
5179013 On ch=1 n=11 v=100
5179229 Off ch=1 n=11 v=0
5179587 On ch=1 n=6 v=100
5180601 Off ch=1 n=6 v=0
5181492 On ch=1 n=18 v=100
5181544 On ch=1 n=5 v=100
5181558 Off ch=1 n=18 v=0
5181948 Off ch=1 n=5 v=0
5182839 On ch=1 n=19 v=100
5183040 Off ch=1 n=19 v=0
5183100 On ch=1 n=11 v=100
5183316 Off ch=1 n=11 v=0
5183447 On ch=1 n=30 v=100
5183504 On ch=1 n=10 v=100
5183630 Off ch=1 n=10 v=0
5183636 Off ch=1 n=30 v=0
5199059 On ch=1 n=6 v=100
5200330 Off ch=1 n=6 v=0
5202864 On ch=1 n=33 v=100
5203747 On ch=1 n=4 v=100
5203750 Off ch=1 n=33 v=0
5203985 Off ch=1 n=4 v=0
5203994 On ch=1 n=36 v=100
5204098 Off ch=1 n=36 v=0
5205049 On ch=1 n=30 v=100
5205295 Off ch=1 n=30 v=0
5205303 On ch=1 n=33 v=100
5205463 Off ch=1 n=33 v=0
5205474 On ch=1 n=45 v=100
5206109 Off ch=1 n=45 v=0
5206115 On ch=1 n=39 v=100
5206116 On ch=1 n=44 v=100
5206231 Off ch=1 n=44 v=0
5206244 Off ch=1 n=39 v=0
5206249 On ch=1 n=27 v=100
5206631 Off ch=1 n=27 v=0
5206760 On ch=1 n=38 v=100
5207434 Off ch=1 n=38 v=0
5213966 On ch=1 n=2 v=100
5214593 Off ch=1 n=2 v=0
5219881 On ch=1 n=17 v=100
5219980 Off ch=1 n=17 v=0
5235540 On ch=1 n=8 v=100
5235646 Off ch=1 n=8 v=0
5237077 On ch=1 n=13 v=100
5237134 Off ch=1 n=13 v=0
5238687 On ch=1 n=7 v=100
5238947 Off ch=1 n=7 v=0
5240269 On ch=1 n=8 v=100
5240487 Off ch=1 n=8 v=0
5240597 On ch=1 n=9 v=100
5241053 Off ch=1 n=9 v=0
5261728 On ch=1 n=5 v=100
5262224 Off ch=1 n=5 v=0
5266801 On ch=1 n=50 v=100
5266887 Off ch=1 n=50 v=0
5266914 On ch=1 n=14 v=100
5267077 Off ch=1 n=14 v=0
5267087 On ch=1 n=18 v=100
5267413 Off ch=1 n=18 v=0
5269664 On ch=1 n=14 v=100
5269770 Off ch=1 n=14 v=0
5271399 On ch=1 n=44 v=100
5271886 Off ch=1 n=44 v=0
5272175 On ch=1 n=3 v=100
5273308 On ch=1 n=40 v=100
5273314 Off ch=1 n=3 v=0
5273318 On ch=1 n=3 v=100
5273390 Off ch=1 n=40 v=0
5274085 On ch=1 n=10 v=100
5274092 Off ch=1 n=3 v=0
5275202 On ch=1 n=55 v=100
5275399 Off ch=1 n=10 v=0
5275431 Off ch=1 n=55 v=0
5276866 On ch=1 n=34 v=100
5276945 Off ch=1 n=34 v=0
5277193 On ch=1 n=9 v=100
5277295 Off ch=1 n=9 v=0
5277528 On ch=1 n=10 v=100
5277583 Off ch=1 n=10 v=0
5278071 On ch=1 n=9 v=100
5278186 On ch=1 n=51 v=100
5278603 Off ch=1 n=9 v=0
5278715 On ch=1 n=4 v=100
5280428 Off ch=1 n=51 v=0
5280541 Off ch=1 n=4 v=0
5280543 On ch=1 n=8 v=100
5280666 Off ch=1 n=8 v=0
5280735 On ch=1 n=6 v=100
5280815 Off ch=1 n=6 v=0
5281616 On ch=1 n=13 v=100
5281726 Off ch=1 n=13 v=0
5282376 On ch=1 n=33 v=100
5282437 Off ch=1 n=33 v=0
5296189 On ch=1 n=5 v=100
5296768 Off ch=1 n=5 v=0
5296779 On ch=1 n=7 v=100
5297140 Off ch=1 n=7 v=0
5297199 On ch=1 n=1 v=100
5297250 Off ch=1 n=1 v=0
5300624 On ch=1 n=4 v=100
5302552 Off ch=1 n=4 v=0
5303041 On ch=1 n=2 v=100
5308792 Off ch=1 n=2 v=0
5322390 On ch=1 n=3 v=100
5324407 Off ch=1 n=3 v=0
5330205 On ch=1 n=6 v=100
5330273 On ch=1 n=2 v=100
5330284 Off ch=1 n=6 v=0
5331666 Off ch=1 n=2 v=0
5337287 On ch=1 n=26 v=100
5337348 Off ch=1 n=26 v=0
5338038 On ch=1 n=9 v=100
5338157 Off ch=1 n=9 v=0
5339778 On ch=1 n=33 v=100
5339962 Off ch=1 n=33 v=0
5341923 On ch=1 n=0 v=100
5342084 Off ch=1 n=0 v=0
5356888 On ch=1 n=17 v=100
5356993 Off ch=1 n=17 v=0
5361064 On ch=1 n=32 v=100
5361148 Off ch=1 n=32 v=0
5361777 On ch=1 n=9 v=100
5361871 On ch=1 n=10 v=100
5361895 Off ch=1 n=9 v=0
5362134 Off ch=1 n=10 v=0
5362141 On ch=1 n=14 v=100
5362240 Off ch=1 n=14 v=0
5362290 On ch=1 n=30 v=100
5362447 Off ch=1 n=30 v=0
5362972 On ch=1 n=13 v=100
5363026 Off ch=1 n=13 v=0
5365605 On ch=1 n=32 v=100
5365752 Off ch=1 n=32 v=0
5365968 On ch=1 n=12 v=100
5366048 Off ch=1 n=12 v=0
5366584 On ch=1 n=16 v=100
5366770 Off ch=1 n=16 v=0
5366998 On ch=1 n=12 v=100
5367056 Off ch=1 n=12 v=0
5368316 On ch=1 n=19 v=100
5368372 Off ch=1 n=19 v=0
5372801 On ch=1 n=11 v=100
5372872 Off ch=1 n=11 v=0
5373358 On ch=1 n=9 v=100
5373440 Off ch=1 n=9 v=0
5380843 On ch=1 n=34 v=100
5380926 Off ch=1 n=34 v=0
5380931 On ch=1 n=7 v=100
5381203 On ch=1 n=43 v=100
5381204 Off ch=1 n=7 v=0
5382457 Off ch=1 n=43 v=0
5382468 On ch=1 n=42 v=100
5382629 Off ch=1 n=42 v=0
5383231 On ch=1 n=50 v=100
5383655 On ch=1 n=10 v=100
5383661 Off ch=1 n=50 v=0
5387128 On ch=1 n=32 v=100
5387130 Off ch=1 n=10 v=0
5388193 On ch=1 n=20 v=100
5388209 Off ch=1 n=32 v=0
5388430 Off ch=1 n=20 v=0
5388647 On ch=1 n=11 v=100
5389239 Off ch=1 n=11 v=0
5419775 On ch=1 n=11 v=100
5420308 Off ch=1 n=11 v=0
5420312 On ch=1 n=13 v=100
5420805 Off ch=1 n=13 v=0
5450948 On ch=1 n=16 v=100
5451365 Off ch=1 n=16 v=0
5453915 On ch=1 n=12 v=100
5453944 On ch=1 n=5 v=100
5453948 Off ch=1 n=12 v=0
5455094 Off ch=1 n=5 v=0
5455095 On ch=1 n=6 v=100
5455217 Off ch=1 n=6 v=0
5456023 On ch=1 n=11 v=100
5456272 Off ch=1 n=11 v=0
5470728 On ch=1 n=1 v=100
5470839 Off ch=1 n=1 v=0
5470841 On ch=1 n=2 v=100
5470928 Off ch=1 n=2 v=0
5477383 On ch=1 n=0 v=100
5477400 On ch=1 n=49 v=100
5479277 Off ch=1 n=0 v=0
5481125 On ch=1 n=1 v=100
5482826 Off ch=1 n=1 v=0
5482832 Off ch=1 n=49 v=0
5495809 On ch=1 n=44 v=100
5495809 On ch=1 n=44 v=100
5496213 On ch=1 n=1 v=100
5496256 On ch=1 n=54 v=100
5496256 On ch=1 n=54 v=100
5496354 Off ch=1 n=1 v=0
5496364 Off ch=1 n=44 v=0
5496364 Off ch=1 n=44 v=0
5496390 Off ch=1 n=54 v=0
5496390 Off ch=1 n=54 v=0
5496439 On ch=1 n=45 v=100
5496957 Off ch=1 n=45 v=0
5500993 On ch=1 n=61 v=100
5501371 Off ch=1 n=61 v=0
5508221 On ch=1 n=1 v=100
5513708 Off ch=1 n=1 v=0
5515497 On ch=1 n=9 v=100
5515595 On ch=1 n=12 v=100
5515618 On ch=1 n=4 v=100
5515620 Off ch=1 n=9 v=0
5515660 Off ch=1 n=4 v=0
5515664 Off ch=1 n=12 v=0
5515668 On ch=1 n=8 v=100
5516463 Off ch=1 n=8 v=0
5516476 On ch=1 n=4 v=100
5516699 Off ch=1 n=4 v=0
5518137 On ch=1 n=37 v=100
5518380 Off ch=1 n=37 v=0
5521146 On ch=1 n=10 v=100
5521209 Off ch=1 n=10 v=0
5524833 On ch=1 n=57 v=100
5525882 Off ch=1 n=57 v=0
5526768 On ch=1 n=54 v=100
5526813 On ch=1 n=51 v=100
5527126 Off ch=1 n=54 v=0
5527404 Off ch=1 n=51 v=0
5539931 On ch=1 n=26 v=100
5539993 Off ch=1 n=26 v=0
5540817 On ch=1 n=6 v=100
5545390 Off ch=1 n=6 v=0
5545443 On ch=1 n=2 v=100
5545484 Off ch=1 n=2 v=0
5545557 On ch=1 n=14 v=100
5545620 On ch=1 n=2 v=100
5545623 Off ch=1 n=14 v=0
5545661 Off ch=1 n=2 v=0
5545734 On ch=1 n=14 v=100
5545797 On ch=1 n=2 v=100
5545800 Off ch=1 n=14 v=0
5545838 Off ch=1 n=2 v=0
5545985 On ch=1 n=0 v=100
5551548 On ch=1 n=2 v=100
5551551 Off ch=1 n=0 v=0
5551589 Off ch=1 n=2 v=0
5551662 On ch=1 n=12 v=100
5551725 On ch=1 n=2 v=100
5551728 Off ch=1 n=12 v=0
5551766 Off ch=1 n=2 v=0
5551839 On ch=1 n=12 v=100
5551902 On ch=1 n=2 v=100
5551905 Off ch=1 n=12 v=0
5551943 Off ch=1 n=2 v=0
5552016 On ch=1 n=12 v=100
5552079 On ch=1 n=2 v=100
5552082 Off ch=1 n=12 v=0
5552120 Off ch=1 n=2 v=0
5552193 On ch=1 n=12 v=100
5552256 On ch=1 n=4 v=100
5552259 Off ch=1 n=12 v=0
5552297 Off ch=1 n=4 v=0
5552370 On ch=1 n=12 v=100
5552433 On ch=1 n=2 v=100
5552436 Off ch=1 n=12 v=0
5552474 Off ch=1 n=2 v=0
5552547 On ch=1 n=12 v=100
5552610 On ch=1 n=2 v=100
5552613 Off ch=1 n=12 v=0
5552651 Off ch=1 n=2 v=0
5552724 On ch=1 n=12 v=100
5552787 On ch=1 n=2 v=100
5552790 Off ch=1 n=12 v=0
5552828 Off ch=1 n=2 v=0
5552901 On ch=1 n=12 v=100
5552964 On ch=1 n=4 v=100
5552967 Off ch=1 n=12 v=0
5553005 Off ch=1 n=4 v=0
5553078 On ch=1 n=12 v=100
5553141 On ch=1 n=2 v=100
5553144 Off ch=1 n=12 v=0
5553182 Off ch=1 n=2 v=0
5553255 On ch=1 n=12 v=100
5553318 On ch=1 n=2 v=100
5553321 Off ch=1 n=12 v=0
5553359 Off ch=1 n=2 v=0
5553432 On ch=1 n=12 v=100
5553495 On ch=1 n=4 v=100
5553498 Off ch=1 n=12 v=0
5553536 Off ch=1 n=4 v=0
5553609 On ch=1 n=14 v=100
5553672 On ch=1 n=2 v=100
5553675 Off ch=1 n=14 v=0
5553713 Off ch=1 n=2 v=0
5553786 On ch=1 n=12 v=100
5553849 On ch=1 n=2 v=100
5553852 Off ch=1 n=12 v=0
5553890 Off ch=1 n=2 v=0
5553963 On ch=1 n=12 v=100
5554026 On ch=1 n=2 v=100
5554029 Off ch=1 n=12 v=0
5554067 Off ch=1 n=2 v=0
5554140 On ch=1 n=12 v=100
5554203 On ch=1 n=2 v=100
5554206 Off ch=1 n=12 v=0
5554244 Off ch=1 n=2 v=0
5554317 On ch=1 n=12 v=100
5554380 On ch=1 n=2 v=100
5554383 Off ch=1 n=12 v=0
5554421 Off ch=1 n=2 v=0
5554494 On ch=1 n=12 v=100
5554557 On ch=1 n=2 v=100
5554560 Off ch=1 n=12 v=0
5554598 Off ch=1 n=2 v=0
5554671 On ch=1 n=12 v=100
5554734 On ch=1 n=2 v=100
5554737 Off ch=1 n=12 v=0
5554775 Off ch=1 n=2 v=0
5554848 On ch=1 n=12 v=100
5554911 On ch=1 n=2 v=100
5554914 Off ch=1 n=12 v=0
5554952 Off ch=1 n=2 v=0
5555025 On ch=1 n=12 v=100
5555088 On ch=1 n=2 v=100
5555091 Off ch=1 n=12 v=0
5555129 Off ch=1 n=2 v=0
5555202 On ch=1 n=12 v=100
5555265 On ch=1 n=2 v=100
5555268 Off ch=1 n=12 v=0
5555306 Off ch=1 n=2 v=0
5555379 On ch=1 n=12 v=100
5555442 On ch=1 n=2 v=100
5555445 Off ch=1 n=12 v=0
5555483 Off ch=1 n=2 v=0
5555556 On ch=1 n=12 v=100
5555619 On ch=1 n=2 v=100
5555622 Off ch=1 n=12 v=0
5555660 Off ch=1 n=2 v=0
5555733 On ch=1 n=12 v=100
5555796 On ch=1 n=2 v=100
5555799 Off ch=1 n=12 v=0
5555837 Off ch=1 n=2 v=0
5555910 On ch=1 n=12 v=100
5555973 On ch=1 n=2 v=100
5555976 Off ch=1 n=12 v=0
5556014 Off ch=1 n=2 v=0
5556087 On ch=1 n=12 v=100
5556150 On ch=1 n=2 v=100
5556153 Off ch=1 n=12 v=0
5556191 Off ch=1 n=2 v=0
5556264 On ch=1 n=12 v=100
5556327 On ch=1 n=2 v=100
5556330 Off ch=1 n=12 v=0
5556368 Off ch=1 n=2 v=0
5556441 On ch=1 n=12 v=100
5556504 On ch=1 n=2 v=100
5556507 Off ch=1 n=12 v=0
5556545 Off ch=1 n=2 v=0
5556618 On ch=1 n=12 v=100
5556681 On ch=1 n=2 v=100
5556684 Off ch=1 n=12 v=0
5556722 Off ch=1 n=2 v=0
5556795 On ch=1 n=12 v=100
5556858 On ch=1 n=2 v=100
5556861 Off ch=1 n=12 v=0
5556899 Off ch=1 n=2 v=0
5556972 On ch=1 n=12 v=100
5557035 On ch=1 n=2 v=100
5557038 Off ch=1 n=12 v=0
5557076 Off ch=1 n=2 v=0
5557149 On ch=1 n=12 v=100
5557212 On ch=1 n=2 v=100
5557215 Off ch=1 n=12 v=0
5557253 Off ch=1 n=2 v=0
5557326 On ch=1 n=12 v=100
5557389 On ch=1 n=2 v=100
5557392 Off ch=1 n=12 v=0
5557430 Off ch=1 n=2 v=0
5557503 On ch=1 n=12 v=100
5557566 On ch=1 n=2 v=100
5557569 Off ch=1 n=12 v=0
5557607 Off ch=1 n=2 v=0
5557680 On ch=1 n=12 v=100
5557743 On ch=1 n=2 v=100
5557746 Off ch=1 n=12 v=0
5557784 Off ch=1 n=2 v=0
5557857 On ch=1 n=12 v=100
5557920 On ch=1 n=2 v=100
5557923 Off ch=1 n=12 v=0
5557961 Off ch=1 n=2 v=0
5558034 On ch=1 n=12 v=100
5558097 On ch=1 n=2 v=100
5558100 Off ch=1 n=12 v=0
5558138 Off ch=1 n=2 v=0
5558211 On ch=1 n=12 v=100
5558274 On ch=1 n=2 v=100
5558277 Off ch=1 n=12 v=0
5558315 Off ch=1 n=2 v=0
5558388 On ch=1 n=12 v=100
5558451 On ch=1 n=2 v=100
5558454 Off ch=1 n=12 v=0
5558492 Off ch=1 n=2 v=0
5558565 On ch=1 n=12 v=100
5558628 On ch=1 n=2 v=100
5558631 Off ch=1 n=12 v=0
5558669 Off ch=1 n=2 v=0
5558742 On ch=1 n=12 v=100
5558805 On ch=1 n=2 v=100
5558808 Off ch=1 n=12 v=0
5558846 Off ch=1 n=2 v=0
5558919 On ch=1 n=12 v=100
5558982 On ch=1 n=2 v=100
5558985 Off ch=1 n=12 v=0
5559023 Off ch=1 n=2 v=0
5559096 On ch=1 n=12 v=100
5559159 On ch=1 n=2 v=100
5559162 Off ch=1 n=12 v=0
5559200 Off ch=1 n=2 v=0
5559273 On ch=1 n=12 v=100
5559336 On ch=1 n=2 v=100
5559339 Off ch=1 n=12 v=0
5559377 Off ch=1 n=2 v=0
5559450 On ch=1 n=12 v=100
5559513 On ch=1 n=2 v=100
5559516 Off ch=1 n=12 v=0
5559554 Off ch=1 n=2 v=0
5559627 On ch=1 n=12 v=100
5559690 On ch=1 n=2 v=100
5559693 Off ch=1 n=12 v=0
5559731 Off ch=1 n=2 v=0
5559804 On ch=1 n=12 v=100
5559867 On ch=1 n=2 v=100
5559870 Off ch=1 n=12 v=0
5559908 Off ch=1 n=2 v=0
5559981 On ch=1 n=12 v=100
5560044 On ch=1 n=2 v=100
5560047 Off ch=1 n=12 v=0
5560085 Off ch=1 n=2 v=0
5560158 On ch=1 n=12 v=100
5560221 On ch=1 n=2 v=100
5560224 Off ch=1 n=12 v=0
5560262 Off ch=1 n=2 v=0
5560335 On ch=1 n=12 v=100
5560398 On ch=1 n=2 v=100
5560401 Off ch=1 n=12 v=0
5560439 Off ch=1 n=2 v=0
5560512 On ch=1 n=12 v=100
5560575 On ch=1 n=2 v=100
5560578 Off ch=1 n=12 v=0
5560616 Off ch=1 n=2 v=0
5560689 On ch=1 n=12 v=100
5560752 On ch=1 n=2 v=100
5560755 Off ch=1 n=12 v=0
5560793 Off ch=1 n=2 v=0
5560866 On ch=1 n=12 v=100
5560929 On ch=1 n=2 v=100
5560932 Off ch=1 n=12 v=0
5560970 Off ch=1 n=2 v=0
5561043 On ch=1 n=12 v=100
5561106 On ch=1 n=2 v=100
5561109 Off ch=1 n=12 v=0
5561147 Off ch=1 n=2 v=0
5561220 On ch=1 n=12 v=100
5561283 On ch=1 n=2 v=100
5561286 Off ch=1 n=12 v=0
5561324 Off ch=1 n=2 v=0
5561397 On ch=1 n=12 v=100
5561460 On ch=1 n=2 v=100
5561463 Off ch=1 n=12 v=0
5561501 Off ch=1 n=2 v=0
5561574 On ch=1 n=12 v=100
5561637 On ch=1 n=2 v=100
5561640 Off ch=1 n=12 v=0
5561678 Off ch=1 n=2 v=0
5561751 On ch=1 n=12 v=100
5561814 On ch=1 n=2 v=100
5561817 Off ch=1 n=12 v=0
5561855 Off ch=1 n=2 v=0
5561928 On ch=1 n=12 v=100
5561991 On ch=1 n=2 v=100
5561994 Off ch=1 n=12 v=0
5562032 Off ch=1 n=2 v=0
5562105 On ch=1 n=12 v=100
5562168 On ch=1 n=2 v=100
5562171 Off ch=1 n=12 v=0
5562209 Off ch=1 n=2 v=0
5562282 On ch=1 n=12 v=100
5562345 On ch=1 n=2 v=100
5562348 Off ch=1 n=12 v=0
5562386 Off ch=1 n=2 v=0
5562459 On ch=1 n=12 v=100
5562522 On ch=1 n=2 v=100
5562525 Off ch=1 n=12 v=0
5562563 Off ch=1 n=2 v=0
5562636 On ch=1 n=12 v=100
5562699 On ch=1 n=2 v=100
5562702 Off ch=1 n=12 v=0
5562740 Off ch=1 n=2 v=0
5562813 On ch=1 n=12 v=100
5562876 On ch=1 n=2 v=100
5562879 Off ch=1 n=12 v=0
5562917 Off ch=1 n=2 v=0
5562990 On ch=1 n=12 v=100
5563053 On ch=1 n=2 v=100
5563056 Off ch=1 n=12 v=0
5563094 Off ch=1 n=2 v=0
5563167 On ch=1 n=12 v=100
5563230 On ch=1 n=2 v=100
5563233 Off ch=1 n=12 v=0
5563271 Off ch=1 n=2 v=0
5563344 On ch=1 n=12 v=100
5563407 On ch=1 n=2 v=100
5563410 Off ch=1 n=12 v=0
5563448 Off ch=1 n=2 v=0
5563521 On ch=1 n=12 v=100
5563584 On ch=1 n=2 v=100
5563587 Off ch=1 n=12 v=0
5563625 Off ch=1 n=2 v=0
5563698 On ch=1 n=12 v=100
5563761 On ch=1 n=2 v=100
5563764 Off ch=1 n=12 v=0
5563802 Off ch=1 n=2 v=0
5563875 On ch=1 n=12 v=100
5563938 On ch=1 n=2 v=100
5563941 Off ch=1 n=12 v=0
5563979 Off ch=1 n=2 v=0
5564052 On ch=1 n=12 v=100
5564115 On ch=1 n=2 v=100
5564118 Off ch=1 n=12 v=0
5564156 Off ch=1 n=2 v=0
5564229 On ch=1 n=12 v=100
5564292 On ch=1 n=2 v=100
5564295 Off ch=1 n=12 v=0
5564333 Off ch=1 n=2 v=0
5564406 On ch=1 n=12 v=100
5564469 On ch=1 n=2 v=100
5564472 Off ch=1 n=12 v=0
5564510 Off ch=1 n=2 v=0
5564583 On ch=1 n=12 v=100
5564646 On ch=1 n=2 v=100
5564649 Off ch=1 n=12 v=0
5564687 Off ch=1 n=2 v=0
5564760 On ch=1 n=12 v=100
5564823 On ch=1 n=2 v=100
5564826 Off ch=1 n=12 v=0
5564864 Off ch=1 n=2 v=0
5564937 On ch=1 n=12 v=100
5565000 On ch=1 n=2 v=100
5565003 Off ch=1 n=12 v=0
5565041 Off ch=1 n=2 v=0
5565114 On ch=1 n=12 v=100
5565177 On ch=1 n=2 v=100
5565180 Off ch=1 n=12 v=0
5565218 Off ch=1 n=2 v=0
5565291 On ch=1 n=12 v=100
5565354 On ch=1 n=2 v=100
5565357 Off ch=1 n=12 v=0
5565395 Off ch=1 n=2 v=0
5565468 On ch=1 n=12 v=100
5565531 On ch=1 n=2 v=100
5565534 Off ch=1 n=12 v=0
5565572 Off ch=1 n=2 v=0
5565645 On ch=1 n=12 v=100
5565708 On ch=1 n=2 v=100
5565711 Off ch=1 n=12 v=0
5565749 Off ch=1 n=2 v=0
5565822 On ch=1 n=12 v=100
5565885 On ch=1 n=2 v=100
5565888 Off ch=1 n=12 v=0
5565926 Off ch=1 n=2 v=0
5565999 On ch=1 n=12 v=100
5566062 On ch=1 n=4 v=100
5566065 Off ch=1 n=12 v=0
5566103 Off ch=1 n=4 v=0
5566176 On ch=1 n=12 v=100
5566239 On ch=1 n=2 v=100
5566242 Off ch=1 n=12 v=0
5566280 Off ch=1 n=2 v=0
5566353 On ch=1 n=12 v=100
5566416 On ch=1 n=2 v=100
5566419 Off ch=1 n=12 v=0
5566457 Off ch=1 n=2 v=0
5566530 On ch=1 n=12 v=100
5566593 On ch=1 n=2 v=100
5566596 Off ch=1 n=12 v=0
5566634 Off ch=1 n=2 v=0
5566707 On ch=1 n=12 v=100
5566770 On ch=1 n=2 v=100
5566773 Off ch=1 n=12 v=0
5566811 Off ch=1 n=2 v=0
5566884 On ch=1 n=12 v=100
5566947 On ch=1 n=2 v=100
5566950 Off ch=1 n=12 v=0
5566988 Off ch=1 n=2 v=0
5567061 On ch=1 n=12 v=100
5567124 On ch=1 n=2 v=100
5567127 Off ch=1 n=12 v=0
5567165 Off ch=1 n=2 v=0
5567238 On ch=1 n=12 v=100
5567301 On ch=1 n=2 v=100
5567304 Off ch=1 n=12 v=0
5567342 Off ch=1 n=2 v=0
5567420 On ch=1 n=13 v=100
5567478 On ch=1 n=2 v=100
5567485 Off ch=1 n=13 v=0
5567519 Off ch=1 n=2 v=0
5567592 On ch=1 n=15 v=100
5567655 On ch=1 n=2 v=100
5567662 Off ch=1 n=15 v=0
5567696 Off ch=1 n=2 v=0
5567769 On ch=1 n=12 v=100
5567832 On ch=1 n=2 v=100
5567835 Off ch=1 n=12 v=0
5567873 Off ch=1 n=2 v=0
5567947 On ch=1 n=12 v=100
5568011 On ch=1 n=2 v=100
5568014 Off ch=1 n=12 v=0
5568052 Off ch=1 n=2 v=0
5568125 On ch=1 n=12 v=100
5568188 On ch=1 n=2 v=100
5568191 Off ch=1 n=12 v=0
5568229 Off ch=1 n=2 v=0
5568302 On ch=1 n=12 v=100
5568365 On ch=1 n=2 v=100
5568368 Off ch=1 n=12 v=0
5568406 Off ch=1 n=2 v=0
5568479 On ch=1 n=12 v=100
5568542 On ch=1 n=2 v=100
5568545 Off ch=1 n=12 v=0
5568583 Off ch=1 n=2 v=0
5568656 On ch=1 n=14 v=100
5568719 On ch=1 n=4 v=100
5568722 Off ch=1 n=14 v=0
5568760 Off ch=1 n=4 v=0
5568878 On ch=1 n=10 v=100
5574487 Off ch=1 n=10 v=0
5574542 On ch=1 n=2 v=100
5574583 Off ch=1 n=2 v=0
5574656 On ch=1 n=13 v=100
5574719 On ch=1 n=2 v=100
5574726 Off ch=1 n=13 v=0
5574760 Off ch=1 n=2 v=0
5574833 On ch=1 n=13 v=100
5574896 On ch=1 n=2 v=100
5574903 Off ch=1 n=13 v=0
5574937 Off ch=1 n=2 v=0
5575010 On ch=1 n=12 v=100
5575073 On ch=1 n=2 v=100
5575076 Off ch=1 n=12 v=0
5575114 Off ch=1 n=2 v=0
5575187 On ch=1 n=13 v=100
5575250 On ch=1 n=2 v=100
5575257 Off ch=1 n=13 v=0
5575291 Off ch=1 n=2 v=0
5575382 On ch=1 n=0 v=100
5576029 On ch=1 n=0 v=100
5578026 Off ch=1 n=0 v=0
5581136 Off ch=1 n=0 v=0
5581209 On ch=1 n=4 v=100
5581434 Off ch=1 n=4 v=0
5581507 On ch=1 n=3 v=100
5581732 Off ch=1 n=3 v=0
5581805 On ch=1 n=5 v=100
5582030 Off ch=1 n=5 v=0
5582103 On ch=1 n=4 v=100
5582328 Off ch=1 n=4 v=0
5582401 On ch=1 n=5 v=100
5582626 Off ch=1 n=5 v=0
5582699 On ch=1 n=4 v=100
5582924 Off ch=1 n=4 v=0
5582997 On ch=1 n=5 v=100
5583222 Off ch=1 n=5 v=0
5583295 On ch=1 n=5 v=100
5583520 Off ch=1 n=5 v=0
5583593 On ch=1 n=4 v=100
5583817 Off ch=1 n=4 v=0
5583890 On ch=1 n=4 v=100
5584115 Off ch=1 n=4 v=0
5584188 On ch=1 n=4 v=100
5584412 Off ch=1 n=4 v=0
5584507 On ch=1 n=1 v=100
5590039 Off ch=1 n=1 v=0
5590336 On ch=1 n=5 v=100
5590570 Off ch=1 n=5 v=0
5593588 On ch=1 n=38 v=100
5593625 On ch=1 n=4 v=100
5593875 Off ch=1 n=38 v=0
5593875 Off ch=1 n=4 v=0
5625454 On ch=1 n=1 v=100
5627037 Off ch=1 n=1 v=0
5627993 On ch=1 n=26 v=100
5628057 Off ch=1 n=26 v=0
5628370 On ch=1 n=10 v=100
5628579 Off ch=1 n=10 v=0
5635265 On ch=1 n=25 v=100
5635327 Off ch=1 n=25 v=0
5637229 On ch=1 n=8 v=100
5637389 Off ch=1 n=8 v=0
5638023 On ch=1 n=8 v=100
5638137 Off ch=1 n=8 v=0
5638329 On ch=1 n=13 v=100
5638533 Off ch=1 n=13 v=0
5645288 On ch=1 n=0 v=100
5645369 Off ch=1 n=0 v=0
5686710 On ch=1 n=2 v=100
5686868 Off ch=1 n=2 v=0
5686896 On ch=1 n=2 v=100
5687976 Off ch=1 n=2 v=0
5706846 On ch=1 n=17 v=100
5706884 On ch=1 n=44 v=100
5706986 Off ch=1 n=17 v=0
5707000 Off ch=1 n=44 v=0
5716229 On ch=1 n=33 v=100
5716541 Off ch=1 n=33 v=0
5716917 On ch=1 n=4 v=100
5716965 Off ch=1 n=4 v=0
5720540 On ch=1 n=50 v=100
5720626 Off ch=1 n=50 v=0
5723145 On ch=1 n=4 v=100
5723253 On ch=1 n=3 v=100
5723254 Off ch=1 n=4 v=0
5724841 On ch=1 n=2 v=100
5724841 Off ch=1 n=3 v=0
5725883 Off ch=1 n=2 v=0
5725887 On ch=1 n=13 v=100
5726031 On ch=1 n=3 v=100
5726041 Off ch=1 n=13 v=0
5726222 Off ch=1 n=3 v=0
5727462 On ch=1 n=16 v=100
5727532 Off ch=1 n=16 v=0
5727534 On ch=1 n=4 v=100
5729370 Off ch=1 n=4 v=0
5729539 On ch=1 n=25 v=100
5729626 Off ch=1 n=25 v=0
5730157 On ch=1 n=12 v=100
5730414 Off ch=1 n=12 v=0
5730648 On ch=1 n=2 v=100
5732670 Off ch=1 n=2 v=0
5737679 On ch=1 n=5 v=100
5737699 On ch=1 n=14 v=100
5738708 Off ch=1 n=5 v=0
5738879 On ch=1 n=16 v=100
5738886 Off ch=1 n=14 v=0
5738920 On ch=1 n=6 v=100
5738996 Off ch=1 n=16 v=0
5738997 Off ch=1 n=6 v=0
5744506 On ch=1 n=13 v=100
5745396 Off ch=1 n=13 v=0
5746741 On ch=1 n=30 v=100
5746823 Off ch=1 n=30 v=0
5747570 On ch=1 n=16 v=100
5747678 Off ch=1 n=16 v=0
5747716 On ch=1 n=16 v=100
5747845 Off ch=1 n=16 v=0
5751671 On ch=1 n=32 v=100
5751726 Off ch=1 n=32 v=0
5751768 On ch=1 n=22 v=100
5751886 Off ch=1 n=22 v=0
5754469 On ch=1 n=15 v=100
5754483 Off ch=1 n=15 v=0
5754551 On ch=1 n=15 v=100
5754652 Off ch=1 n=15 v=0
5757473 On ch=1 n=32 v=100
5757528 Off ch=1 n=32 v=0
5757570 On ch=1 n=11 v=100
5757665 Off ch=1 n=11 v=0
5757727 On ch=1 n=11 v=100
5757835 Off ch=1 n=11 v=0
5762355 On ch=1 n=12 v=100
5762446 Off ch=1 n=12 v=0
5765193 On ch=1 n=11 v=100
5765337 Off ch=1 n=11 v=0
5768832 On ch=1 n=6 v=100
5769043 Off ch=1 n=6 v=0
5769901 On ch=1 n=20 v=100
5770102 Off ch=1 n=20 v=0
5770161 On ch=1 n=19 v=100
5770384 Off ch=1 n=19 v=0
5770711 On ch=1 n=7 v=100
5771727 Off ch=1 n=7 v=0
5772619 On ch=1 n=22 v=100
5772822 Off ch=1 n=22 v=0
5772882 On ch=1 n=15 v=100
5773099 Off ch=1 n=15 v=0
5773457 On ch=1 n=7 v=100
5774473 Off ch=1 n=7 v=0
5775365 On ch=1 n=21 v=100
5775568 Off ch=1 n=21 v=0
5775628 On ch=1 n=14 v=100
5775844 Off ch=1 n=14 v=0
5776203 On ch=1 n=7 v=100
5777219 Off ch=1 n=7 v=0
5778111 On ch=1 n=22 v=100
5778314 Off ch=1 n=22 v=0
5778374 On ch=1 n=14 v=100
5778590 Off ch=1 n=14 v=0
5778949 On ch=1 n=7 v=100
5779965 Off ch=1 n=7 v=0
5780857 On ch=1 n=21 v=100
5781060 Off ch=1 n=21 v=0
5781120 On ch=1 n=14 v=100
5781336 Off ch=1 n=14 v=0
5781604 On ch=1 n=36 v=100
5781688 On ch=1 n=10 v=100
5782236 Off ch=1 n=36 v=0
5782242 Off ch=1 n=10 v=0
5782395 On ch=1 n=19 v=100
5782594 Off ch=1 n=19 v=0
5782654 On ch=1 n=13 v=100
5782842 Off ch=1 n=13 v=0
5783061 On ch=1 n=16 v=100
5786628 Off ch=1 n=16 v=0
5787667 On ch=1 n=16 v=100
5788019 Off ch=1 n=16 v=0
5788633 On ch=1 n=5 v=100
5788698 Off ch=1 n=5 v=0
5790768 On ch=1 n=10 v=100
5790876 Off ch=1 n=10 v=0
5790978 On ch=1 n=55 v=100
5790978 On ch=1 n=55 v=100
5791107 On ch=1 n=18 v=100
5791222 Off ch=1 n=55 v=0
5791222 Off ch=1 n=55 v=0
5791359 Off ch=1 n=18 v=0
5792305 On ch=1 n=10 v=100
5792458 On ch=1 n=3 v=100
5792458 Off ch=1 n=10 v=0
5795521 Off ch=1 n=3 v=0
5796379 On ch=1 n=5 v=100
5796727 Off ch=1 n=5 v=0
5800334 On ch=1 n=5 v=100
5800546 Off ch=1 n=5 v=0
5801453 On ch=1 n=6 v=100
5801517 Off ch=1 n=6 v=0
5804444 On ch=1 n=1 v=100
5809603 On ch=1 n=21 v=100
5809981 Off ch=1 n=1 v=0
5810227 Off ch=1 n=21 v=0
5812599 On ch=1 n=6 v=100
5812935 Off ch=1 n=6 v=0
5812945 On ch=1 n=12 v=100
5813045 On ch=1 n=9 v=100
5813124 Off ch=1 n=12 v=0
5813548 On ch=1 n=7 v=100
5813562 Off ch=1 n=9 v=0
5813969 Off ch=1 n=7 v=0
5813981 On ch=1 n=12 v=100
5814162 Off ch=1 n=12 v=0
5814163 On ch=1 n=8 v=100
5814599 Off ch=1 n=8 v=0
5814606 On ch=1 n=14 v=100
5814708 On ch=1 n=8 v=100
5814803 Off ch=1 n=14 v=0
5815214 Off ch=1 n=8 v=0
5815219 On ch=1 n=13 v=100
5815405 Off ch=1 n=13 v=0
5815406 On ch=1 n=7 v=100
5815842 Off ch=1 n=7 v=0
5815854 On ch=1 n=12 v=100
5815952 On ch=1 n=8 v=100
5816035 Off ch=1 n=12 v=0
5816456 Off ch=1 n=8 v=0
5816463 On ch=1 n=14 v=100
5816568 On ch=1 n=8 v=100
5816649 Off ch=1 n=14 v=0
5817086 Off ch=1 n=8 v=0
5817093 On ch=1 n=12 v=100
5817279 Off ch=1 n=12 v=0
5817280 On ch=1 n=8 v=100
5817700 Off ch=1 n=8 v=0
5817712 On ch=1 n=13 v=100
5817810 On ch=1 n=8 v=100
5817890 Off ch=1 n=13 v=0
5818320 Off ch=1 n=8 v=0
5818332 On ch=1 n=11 v=100
5818432 On ch=1 n=8 v=100
5818527 Off ch=1 n=11 v=0
5818949 Off ch=1 n=8 v=0
5818962 On ch=1 n=13 v=100
5819060 On ch=1 n=10 v=100
5819158 Off ch=1 n=13 v=0
5819581 Off ch=1 n=10 v=0
5819593 On ch=1 n=13 v=100
5819797 Off ch=1 n=13 v=0
5819805 On ch=1 n=6 v=100
5820223 Off ch=1 n=6 v=0
5820234 On ch=1 n=11 v=100
5820439 Off ch=1 n=11 v=0
5820452 On ch=1 n=15 v=100
5820508 Off ch=1 n=15 v=0
5820509 On ch=1 n=8 v=100
5820646 Off ch=1 n=8 v=0
5832965 On ch=1 n=1 v=100
5836421 Off ch=1 n=1 v=0
5839209 On ch=1 n=1 v=100
5839263 Off ch=1 n=1 v=0
5845555 On ch=1 n=41 v=100
5845669 Off ch=1 n=41 v=0
5849037 On ch=1 n=10 v=100
5849114 On ch=1 n=7 v=100
5849115 Off ch=1 n=10 v=0
5849193 Off ch=1 n=7 v=0
5849954 On ch=1 n=9 v=100
5850216 Off ch=1 n=9 v=0
5851483 On ch=1 n=8 v=100
5851744 Off ch=1 n=8 v=0
5852516 On ch=1 n=9 v=100
5852778 Off ch=1 n=9 v=0
5852919 On ch=1 n=9 v=100
5853183 Off ch=1 n=9 v=0
5858048 On ch=1 n=16 v=100
5858179 Off ch=1 n=16 v=0
5862984 On ch=1 n=16 v=100
5863219 Off ch=1 n=16 v=0
5863822 On ch=1 n=20 v=100
5863907 Off ch=1 n=20 v=0
5864954 On ch=1 n=19 v=100
5865100 Off ch=1 n=19 v=0
5871388 On ch=1 n=10 v=100
5871492 Off ch=1 n=10 v=0
5873541 On ch=1 n=13 v=100
5875303 Off ch=1 n=13 v=0
5876974 On ch=1 n=38 v=100
5877054 Off ch=1 n=38 v=0
5877279 On ch=1 n=8 v=100
5877379 Off ch=1 n=8 v=0
5877613 On ch=1 n=11 v=100
5877662 Off ch=1 n=11 v=0
5878142 On ch=1 n=10 v=100
5878316 Off ch=1 n=10 v=0
5878350 On ch=1 n=10 v=100
5878728 Off ch=1 n=10 v=0
5880551 On ch=1 n=7 v=100
5880618 Off ch=1 n=7 v=0
5880805 On ch=1 n=6 v=100
5880824 On ch=1 n=46 v=100
5881572 Off ch=1 n=6 v=0
5881691 Off ch=1 n=46 v=0
5897485 On ch=1 n=1 v=100
5902829 On ch=1 n=15 v=100
5903012 Off ch=1 n=1 v=0
5903257 Off ch=1 n=15 v=0
5903353 On ch=1 n=3 v=100
5906820 Off ch=1 n=3 v=0
5907655 On ch=1 n=55 v=100
5907922 Off ch=1 n=55 v=0
5908200 On ch=1 n=52 v=100
5908293 On ch=1 n=17 v=100
5908353 On ch=1 n=15 v=100
5908359 Off ch=1 n=17 v=0
5908379 Off ch=1 n=52 v=0
5908950 Off ch=1 n=15 v=0
5910385 On ch=1 n=8 v=100
5910450 Off ch=1 n=8 v=0
5914563 On ch=1 n=16 v=100
5914603 Off ch=1 n=16 v=0
5916048 On ch=1 n=52 v=100
5916796 Off ch=1 n=52 v=0
5927283 On ch=1 n=32 v=100
5927349 Off ch=1 n=32 v=0
5928179 On ch=1 n=10 v=100
5928660 Off ch=1 n=10 v=0
5934276 On ch=1 n=36 v=100
5934323 Off ch=1 n=36 v=0
5935472 On ch=1 n=36 v=100
5935519 Off ch=1 n=36 v=0
5936985 On ch=1 n=35 v=100
5937032 Off ch=1 n=35 v=0
5942563 On ch=1 n=6 v=100
5942823 Off ch=1 n=6 v=0
5944028 On ch=1 n=7 v=100
5944288 Off ch=1 n=7 v=0
5945058 On ch=1 n=7 v=100
5945318 Off ch=1 n=7 v=0
5946089 On ch=1 n=6 v=100
5946349 Off ch=1 n=6 v=0
5982849 On ch=1 n=42 v=100
5983142 Off ch=1 n=42 v=0
6013561 On ch=1 n=54 v=100
6013813 Off ch=1 n=54 v=0
6017581 On ch=1 n=8 v=100
6017632 Off ch=1 n=8 v=0
6018251 On ch=1 n=9 v=100
6018391 Off ch=1 n=9 v=0
6023845 On ch=1 n=50 v=100
6023884 On ch=1 n=5 v=100
6024114 Off ch=1 n=50 v=0
6024154 Off ch=1 n=5 v=0
6024873 On ch=1 n=19 v=100
6025072 Off ch=1 n=19 v=0
6025132 On ch=1 n=14 v=100
6025348 Off ch=1 n=14 v=0
6025448 On ch=1 n=8 v=100
6028829 Off ch=1 n=8 v=0
6057463 On ch=1 n=4 v=100
6057527 Off ch=1 n=4 v=0
6058696 On ch=1 n=6 v=100
6058837 Off ch=1 n=6 v=0
6060903 On ch=1 n=4 v=100
6063959 On ch=1 n=12 v=100
6063960 Off ch=1 n=4 v=0
6064169 Off ch=1 n=12 v=0
6065124 On ch=1 n=18 v=100
6065255 On ch=1 n=55 v=100
6065255 On ch=1 n=55 v=100
6065370 Off ch=1 n=18 v=0
6065499 Off ch=1 n=55 v=0
6065499 Off ch=1 n=55 v=0
6065601 On ch=1 n=10 v=100
6065709 Off ch=1 n=10 v=0
6066585 On ch=1 n=6 v=100
6066788 Off ch=1 n=6 v=0
6067807 On ch=1 n=3 v=100
6067872 Off ch=1 n=3 v=0
6068468 On ch=1 n=18 v=100
6068814 Off ch=1 n=18 v=0
6072196 On ch=1 n=3 v=100
6072887 Off ch=1 n=3 v=0
6075333 On ch=1 n=20 v=100
6076030 On ch=1 n=27 v=100
6078024 Off ch=1 n=20 v=0
6078037 Off ch=1 n=27 v=0
6078234 On ch=1 n=4 v=100
6078438 Off ch=1 n=4 v=0
6079206 On ch=1 n=10 v=100
6079467 Off ch=1 n=10 v=0
6080235 On ch=1 n=7 v=100
6080495 Off ch=1 n=7 v=0
6085674 On ch=1 n=37 v=100
6085723 Off ch=1 n=37 v=0
6086980 On ch=1 n=69 v=100
6086997 On ch=1 n=38 v=100
6087052 Off ch=1 n=38 v=0
6087118 Off ch=1 n=69 v=0
6088180 On ch=1 n=69 v=100
6088320 Off ch=1 n=69 v=0
6089385 On ch=1 n=68 v=100
6089403 On ch=1 n=38 v=100
6089458 Off ch=1 n=38 v=0
6089524 Off ch=1 n=68 v=0
6090593 On ch=1 n=66 v=100
6090616 On ch=1 n=51 v=100
6090729 Off ch=1 n=51 v=0
6090732 Off ch=1 n=66 v=0
6141604 On ch=1 n=12 v=100
6142403 On ch=1 n=6 v=100
6142742 Off ch=1 n=12 v=0
6143011 Off ch=1 n=6 v=0
6144853 On ch=1 n=7 v=100
6145345 On ch=1 n=15 v=100
6145356 Off ch=1 n=7 v=0
6145413 On ch=1 n=6 v=100
6145417 Off ch=1 n=15 v=0
6145992 Off ch=1 n=6 v=0
6160652 On ch=1 n=0 v=100
6166061 Off ch=1 n=0 v=0
6166088 On ch=1 n=0 v=100
6166336 Off ch=1 n=0 v=0
6169068 On ch=1 n=15 v=100
6169178 Off ch=1 n=15 v=0
6172621 On ch=1 n=30 v=100
6172728 Off ch=1 n=30 v=0
6172988 On ch=1 n=10 v=100
6173102 Off ch=1 n=10 v=0
6173379 On ch=1 n=35 v=100
6173455 Off ch=1 n=35 v=0
6173802 On ch=1 n=24 v=100
6173863 Off ch=1 n=24 v=0
6176136 On ch=1 n=5 v=100
6177251 On ch=1 n=38 v=100
6177253 Off ch=1 n=5 v=0
6177354 Off ch=1 n=38 v=0
6179194 On ch=1 n=18 v=100
6179747 Off ch=1 n=18 v=0
6179865 On ch=1 n=17 v=100
6180246 On ch=1 n=10 v=100
6180248 Off ch=1 n=17 v=0
6180728 Off ch=1 n=10 v=0
6182965 On ch=1 n=10 v=100
6183072 Off ch=1 n=10 v=0
6184015 On ch=1 n=20 v=100
6184063 Off ch=1 n=20 v=0
6186148 On ch=1 n=19 v=100
6186585 Off ch=1 n=19 v=0
6186713 On ch=1 n=9 v=100
6187958 Off ch=1 n=9 v=0
6215766 On ch=1 n=36 v=100
6215849 Off ch=1 n=36 v=0
6216105 On ch=1 n=7 v=100
6216214 Off ch=1 n=7 v=0
6236596 On ch=1 n=21 v=100
6236772 Off ch=1 n=21 v=0
6271775 On ch=1 n=10 v=100
6271778 On ch=1 n=53 v=100
6271928 Off ch=1 n=10 v=0
6272085 Off ch=1 n=53 v=0
6272250 On ch=1 n=10 v=100
6272797 Off ch=1 n=10 v=0
6273946 On ch=1 n=54 v=100
6274003 On ch=1 n=53 v=100
6274006 On ch=1 n=10 v=100
6274285 Off ch=1 n=54 v=0
6274311 Off ch=1 n=10 v=0
6274418 Off ch=1 n=53 v=0
6276940 On ch=1 n=32 v=100
6277004 Off ch=1 n=32 v=0
6289897 On ch=1 n=20 v=100
6289991 Off ch=1 n=20 v=0
6290260 On ch=1 n=17 v=100
6290320 Off ch=1 n=17 v=0
6290554 On ch=1 n=10 v=100
6290655 Off ch=1 n=10 v=0
6291195 On ch=1 n=34 v=100
6291279 Off ch=1 n=34 v=0
6293578 On ch=1 n=8 v=100
6293600 On ch=1 n=47 v=100
6293855 Off ch=1 n=8 v=0
6294014 Off ch=1 n=47 v=0
6294771 On ch=1 n=9 v=100
6294882 Off ch=1 n=9 v=0
6310883 On ch=1 n=1 v=100
6316900 Off ch=1 n=1 v=0
6323196 On ch=1 n=1 v=100
6326005 Off ch=1 n=1 v=0
6327100 On ch=1 n=62 v=100
6327242 Off ch=1 n=62 v=0
6328325 On ch=1 n=38 v=100
6328376 Off ch=1 n=38 v=0
6329526 On ch=1 n=38 v=100
6329577 Off ch=1 n=38 v=0
6330728 On ch=1 n=58 v=100
6330840 Off ch=1 n=58 v=0
6344808 On ch=1 n=1 v=100
6346289 Off ch=1 n=1 v=0
6347566 On ch=1 n=19 v=100
6348010 Off ch=1 n=19 v=0
6348530 On ch=1 n=1 v=100
6348595 Off ch=1 n=1 v=0
6350262 On ch=1 n=8 v=100
6350375 Off ch=1 n=8 v=0
6351661 On ch=1 n=14 v=100
6351883 Off ch=1 n=14 v=0
6351915 On ch=1 n=6 v=100
6351920 On ch=1 n=54 v=100
6352078 Off ch=1 n=6 v=0
6352083 On ch=1 n=5 v=100
6352439 Off ch=1 n=54 v=0
6352444 Off ch=1 n=5 v=0
6358352 On ch=1 n=15 v=100
6358506 Off ch=1 n=15 v=0
6358555 On ch=1 n=35 v=100
6358733 Off ch=1 n=35 v=0
6365620 On ch=1 n=11 v=100
6365739 Off ch=1 n=11 v=0
6366432 On ch=1 n=28 v=100
6366493 Off ch=1 n=28 v=0
6366822 On ch=1 n=22 v=100
6366876 Off ch=1 n=22 v=0
6372131 On ch=1 n=1 v=100
6374700 Off ch=1 n=1 v=0
6385662 On ch=1 n=7 v=100
6385922 Off ch=1 n=7 v=0
6386650 On ch=1 n=8 v=100
6386797 Off ch=1 n=8 v=0
6386929 On ch=1 n=1 v=100
6392341 On ch=1 n=18 v=100
6392482 Off ch=1 n=1 v=0
6392535 On ch=1 n=4 v=100
6392538 Off ch=1 n=18 v=0
6392576 Off ch=1 n=4 v=0
6392649 On ch=1 n=12 v=100
6392712 On ch=1 n=7 v=100
6392715 Off ch=1 n=12 v=0
6392753 Off ch=1 n=7 v=0
6392826 On ch=1 n=14 v=100
6392889 On ch=1 n=4 v=100
6392892 Off ch=1 n=14 v=0
6392930 Off ch=1 n=4 v=0
6393003 On ch=1 n=14 v=100
6393066 On ch=1 n=7 v=100
6393069 Off ch=1 n=14 v=0
6393107 Off ch=1 n=7 v=0
6393180 On ch=1 n=16 v=100
6393243 On ch=1 n=4 v=100
6393246 Off ch=1 n=16 v=0
6393284 Off ch=1 n=4 v=0
6393357 On ch=1 n=14 v=100
6393420 On ch=1 n=4 v=100
6393423 Off ch=1 n=14 v=0
6393461 Off ch=1 n=4 v=0
6393534 On ch=1 n=15 v=100
6393597 On ch=1 n=7 v=100
6393604 Off ch=1 n=15 v=0
6393638 Off ch=1 n=7 v=0
6393711 On ch=1 n=14 v=100
6393774 On ch=1 n=4 v=100
6393777 Off ch=1 n=14 v=0
6393815 Off ch=1 n=4 v=0
6393888 On ch=1 n=14 v=100
6393951 On ch=1 n=7 v=100
6393954 Off ch=1 n=14 v=0
6393992 Off ch=1 n=7 v=0
6394065 On ch=1 n=14 v=100
6394128 On ch=1 n=2 v=100
6394131 Off ch=1 n=14 v=0
6394169 Off ch=1 n=2 v=0
6394242 On ch=1 n=14 v=100
6394305 On ch=1 n=4 v=100
6394308 Off ch=1 n=14 v=0
6394346 Off ch=1 n=4 v=0
6394419 On ch=1 n=14 v=100
6394482 On ch=1 n=4 v=100
6394485 Off ch=1 n=14 v=0
6394523 Off ch=1 n=4 v=0
6394596 On ch=1 n=14 v=100
6394659 On ch=1 n=4 v=100
6394662 Off ch=1 n=14 v=0
6394700 Off ch=1 n=4 v=0
6394773 On ch=1 n=14 v=100
6394836 On ch=1 n=4 v=100
6394839 Off ch=1 n=14 v=0
6394877 Off ch=1 n=4 v=0
6394950 On ch=1 n=12 v=100
6395013 On ch=1 n=2 v=100
6395016 Off ch=1 n=12 v=0
6395054 Off ch=1 n=2 v=0
6395127 On ch=1 n=14 v=100
6395190 On ch=1 n=2 v=100
6395193 Off ch=1 n=14 v=0
6395231 Off ch=1 n=2 v=0
6395304 On ch=1 n=14 v=100
6395367 On ch=1 n=4 v=100
6395370 Off ch=1 n=14 v=0
6395408 Off ch=1 n=4 v=0
6395481 On ch=1 n=14 v=100
6395544 On ch=1 n=2 v=100
6395547 Off ch=1 n=14 v=0
6395585 Off ch=1 n=2 v=0
6395658 On ch=1 n=16 v=100
6395721 On ch=1 n=4 v=100
6395724 Off ch=1 n=16 v=0
6395762 Off ch=1 n=4 v=0
6395835 On ch=1 n=14 v=100
6395898 On ch=1 n=4 v=100
6395901 Off ch=1 n=14 v=0
6395939 Off ch=1 n=4 v=0
6396012 On ch=1 n=14 v=100
6396075 On ch=1 n=4 v=100
6396078 Off ch=1 n=14 v=0
6396116 Off ch=1 n=4 v=0
6396189 On ch=1 n=14 v=100
6396252 On ch=1 n=4 v=100
6396255 Off ch=1 n=14 v=0
6396293 Off ch=1 n=4 v=0
6396366 On ch=1 n=14 v=100
6396429 On ch=1 n=2 v=100
6396432 Off ch=1 n=14 v=0
6396470 Off ch=1 n=2 v=0
6396543 On ch=1 n=14 v=100
6396606 On ch=1 n=4 v=100
6396609 Off ch=1 n=14 v=0
6396647 Off ch=1 n=4 v=0
6396720 On ch=1 n=14 v=100
6396783 On ch=1 n=2 v=100
6396786 Off ch=1 n=14 v=0
6396824 Off ch=1 n=2 v=0
6396897 On ch=1 n=14 v=100
6396960 On ch=1 n=4 v=100
6396963 Off ch=1 n=14 v=0
6397001 Off ch=1 n=4 v=0
6397074 On ch=1 n=14 v=100
6397137 On ch=1 n=4 v=100
6397140 Off ch=1 n=14 v=0
6397178 Off ch=1 n=4 v=0
6397251 On ch=1 n=14 v=100
6397314 On ch=1 n=7 v=100
6397317 Off ch=1 n=14 v=0
6397355 Off ch=1 n=7 v=0
6397428 On ch=1 n=14 v=100
6397491 On ch=1 n=2 v=100
6397494 Off ch=1 n=14 v=0
6397532 Off ch=1 n=2 v=0
6397605 On ch=1 n=14 v=100
6397668 On ch=1 n=2 v=100
6397671 Off ch=1 n=14 v=0
6397709 Off ch=1 n=2 v=0
6397782 On ch=1 n=14 v=100
6397845 On ch=1 n=4 v=100
6397848 Off ch=1 n=14 v=0
6397886 Off ch=1 n=4 v=0
6397959 On ch=1 n=14 v=100
6398022 On ch=1 n=2 v=100
6398025 Off ch=1 n=14 v=0
6398063 Off ch=1 n=2 v=0
6398136 On ch=1 n=14 v=100
6398199 On ch=1 n=2 v=100
6398202 Off ch=1 n=14 v=0
6398240 Off ch=1 n=2 v=0
6398313 On ch=1 n=14 v=100
6398376 On ch=1 n=4 v=100
6398379 Off ch=1 n=14 v=0
6398417 Off ch=1 n=4 v=0
6398490 On ch=1 n=14 v=100
6398553 On ch=1 n=4 v=100
6398556 Off ch=1 n=14 v=0
6398594 Off ch=1 n=4 v=0
6398667 On ch=1 n=14 v=100
6398730 On ch=1 n=2 v=100
6398733 Off ch=1 n=14 v=0
6398771 Off ch=1 n=2 v=0
6398844 On ch=1 n=14 v=100
6398907 On ch=1 n=2 v=100
6398910 Off ch=1 n=14 v=0
6398948 Off ch=1 n=2 v=0
6399021 On ch=1 n=14 v=100
6399084 On ch=1 n=4 v=100
6399087 Off ch=1 n=14 v=0
6399125 Off ch=1 n=4 v=0
6399198 On ch=1 n=14 v=100
6399261 On ch=1 n=7 v=100
6399264 Off ch=1 n=14 v=0
6399302 Off ch=1 n=7 v=0
6399375 On ch=1 n=14 v=100
6399438 On ch=1 n=7 v=100
6399441 Off ch=1 n=14 v=0
6399479 Off ch=1 n=7 v=0
6399552 On ch=1 n=14 v=100
6399615 On ch=1 n=4 v=100
6399618 Off ch=1 n=14 v=0
6399656 Off ch=1 n=4 v=0
6399729 On ch=1 n=14 v=100
6399792 On ch=1 n=4 v=100
6399795 Off ch=1 n=14 v=0
6399833 Off ch=1 n=4 v=0
6399906 On ch=1 n=14 v=100
6399969 On ch=1 n=4 v=100
6399972 Off ch=1 n=14 v=0
6400010 Off ch=1 n=4 v=0
6400133 On ch=1 n=3 v=100
6404806 On ch=1 n=5 v=100
6404810 Off ch=1 n=3 v=0
6404843 Off ch=1 n=5 v=0
6404901 On ch=1 n=7 v=100
6405161 Off ch=1 n=7 v=0
6405932 On ch=1 n=6 v=100
6406192 Off ch=1 n=6 v=0
6424245 On ch=1 n=0 v=100
6425828 Off ch=1 n=0 v=0
6426807 On ch=1 n=24 v=100
6426871 Off ch=1 n=24 v=0
6427193 On ch=1 n=12 v=100
6427412 Off ch=1 n=12 v=0
6434028 On ch=1 n=33 v=100
6434089 Off ch=1 n=33 v=0
6436012 On ch=1 n=8 v=100
6436213 Off ch=1 n=8 v=0
6436880 On ch=1 n=9 v=100
6436994 Off ch=1 n=9 v=0
6437198 On ch=1 n=12 v=100
6437393 Off ch=1 n=12 v=0
6437940 On ch=1 n=7 v=100
6438730 Off ch=1 n=7 v=0
6438799 On ch=1 n=6 v=100
6440793 Off ch=1 n=6 v=0
6440890 On ch=1 n=10 v=100
6441305 Off ch=1 n=10 v=0
6441337 On ch=1 n=10 v=100
6441512 Off ch=1 n=10 v=0
6442266 On ch=1 n=10 v=100
6442368 Off ch=1 n=10 v=0
6442617 On ch=1 n=32 v=100
6442695 Off ch=1 n=32 v=0
6443079 On ch=1 n=31 v=100
6443136 Off ch=1 n=31 v=0
6443679 On ch=1 n=35 v=100
6443737 On ch=1 n=8 v=100
6443861 Off ch=1 n=8 v=0
6443863 Off ch=1 n=35 v=0
6452044 On ch=1 n=4 v=100
6452108 Off ch=1 n=4 v=0
6456174 On ch=1 n=8 v=100
6456353 Off ch=1 n=8 v=0
6456960 On ch=1 n=10 v=100
6457107 Off ch=1 n=10 v=0
6457878 On ch=1 n=7 v=100
6458137 Off ch=1 n=7 v=0
6458861 On ch=1 n=8 v=100
6459168 Off ch=1 n=8 v=0
6459438 On ch=1 n=10 v=100
6459528 Off ch=1 n=10 v=0
6459869 On ch=1 n=3 v=100
6462965 On ch=1 n=13 v=100
6462965 Off ch=1 n=3 v=0
6463173 Off ch=1 n=13 v=0
6469844 On ch=1 n=8 v=100
6469961 On ch=1 n=56 v=100
6470068 On ch=1 n=63 v=100
6470239 On ch=1 n=8 v=100
6470243 Off ch=1 n=8 v=0
6470265 On ch=1 n=58 v=100
6470484 Off ch=1 n=56 v=0
6470706 Off ch=1 n=8 v=0
6470774 Off ch=1 n=63 v=0
6470808 Off ch=1 n=58 v=0
6471847 On ch=1 n=4 v=100
6472027 Off ch=1 n=4 v=0
6476489 On ch=1 n=5 v=100
6477438 Off ch=1 n=5 v=0
6477439 On ch=1 n=9 v=100
6477974 Off ch=1 n=9 v=0
6478636 On ch=1 n=8 v=100
6479265 Off ch=1 n=8 v=0
6479797 On ch=1 n=14 v=100
6479905 Off ch=1 n=14 v=0
6481964 On ch=1 n=5 v=100
6482970 Off ch=1 n=5 v=0
6483763 On ch=1 n=6 v=100
6483826 Off ch=1 n=6 v=0
6484427 On ch=1 n=16 v=100
6484870 Off ch=1 n=16 v=0
6487332 On ch=1 n=1 v=100
6488356 Off ch=1 n=1 v=0
6504089 On ch=1 n=8 v=100
6504266 Off ch=1 n=8 v=0
6509788 On ch=1 n=3 v=100
6509823 Off ch=1 n=3 v=0
6511298 On ch=1 n=37 v=100
6511377 Off ch=1 n=37 v=0
6511737 On ch=1 n=12 v=100
6511873 Off ch=1 n=12 v=0
6518046 On ch=1 n=49 v=100
6518369 On ch=1 n=31 v=100
6518460 Off ch=1 n=49 v=0
6518472 Off ch=1 n=31 v=0
6526391 On ch=1 n=11 v=100
6526465 Off ch=1 n=11 v=0
6543749 On ch=1 n=37 v=100
6543984 Off ch=1 n=37 v=0
6544161 On ch=1 n=11 v=100
6545937 On ch=1 n=10 v=100
6545940 Off ch=1 n=11 v=0
6545978 On ch=1 n=0 v=100
6546079 Off ch=1 n=0 v=0
6546080 Off ch=1 n=10 v=0
6551188 On ch=1 n=13 v=100
6551619 On ch=1 n=61 v=100
6552050 Off ch=1 n=13 v=0
6552143 Off ch=1 n=61 v=0
6554646 On ch=1 n=33 v=100
6554721 Off ch=1 n=33 v=0
6555469 On ch=1 n=15 v=100
6555594 Off ch=1 n=15 v=0
6555691 On ch=1 n=15 v=100
6555794 Off ch=1 n=15 v=0
6558705 On ch=1 n=10 v=100
6558931 Off ch=1 n=10 v=0
6566303 On ch=1 n=14 v=100
6566448 Off ch=1 n=14 v=0
6569931 On ch=1 n=7 v=100
6570143 Off ch=1 n=7 v=0
6571035 On ch=1 n=19 v=100
6571236 Off ch=1 n=19 v=0
6571296 On ch=1 n=11 v=100
6571512 Off ch=1 n=11 v=0
6571870 On ch=1 n=8 v=100
6572875 Off ch=1 n=8 v=0
6587199 On ch=1 n=8 v=100
6587378 Off ch=1 n=8 v=0
6588154 On ch=1 n=9 v=100
6588239 Off ch=1 n=9 v=0
6588369 On ch=1 n=5 v=100
6588628 Off ch=1 n=5 v=0
6593628 On ch=1 n=18 v=100
6593775 Off ch=1 n=18 v=0
6596125 On ch=1 n=10 v=100
6596241 Off ch=1 n=10 v=0
6599158 On ch=1 n=45 v=100
6599644 Off ch=1 n=45 v=0
6604177 On ch=1 n=9 v=100
6604395 Off ch=1 n=9 v=0
6609626 On ch=1 n=6 v=100
6609726 Off ch=1 n=6 v=0
6614355 On ch=1 n=18 v=100
6614464 Off ch=1 n=18 v=0
6614696 On ch=1 n=17 v=100
6614907 Off ch=1 n=17 v=0
6623364 On ch=1 n=54 v=100
6623587 On ch=1 n=18 v=100
6623595 Off ch=1 n=54 v=0
6623692 Off ch=1 n=18 v=0
6624886 On ch=1 n=20 v=100
6625054 Off ch=1 n=20 v=0
6625454 On ch=1 n=2 v=100
6625495 Off ch=1 n=2 v=0
6629966 On ch=1 n=12 v=100
6630077 Off ch=1 n=12 v=0
6634890 On ch=1 n=15 v=100
6635007 Off ch=1 n=15 v=0
6657079 On ch=1 n=39 v=100
6657105 Off ch=1 n=39 v=0
6657151 On ch=1 n=39 v=100
6657217 Off ch=1 n=39 v=0
6658380 On ch=1 n=12 v=100
6658468 Off ch=1 n=12 v=0
6663037 On ch=1 n=6 v=100
6663152 On ch=1 n=36 v=100
6663626 Off ch=1 n=6 v=0
6664450 On ch=1 n=52 v=100
6664971 On ch=1 n=15 v=100
6664972 Off ch=1 n=36 v=0
6665365 Off ch=1 n=52 v=0
6665459 Off ch=1 n=15 v=0
6665793 On ch=1 n=15 v=100
6665888 On ch=1 n=4 v=100
6666120 Off ch=1 n=4 v=0
6666122 Off ch=1 n=15 v=0
6670752 On ch=1 n=4 v=100
6670817 Off ch=1 n=4 v=0
6679811 On ch=1 n=11 v=100
6680278 Off ch=1 n=11 v=0
6682920 On ch=1 n=48 v=100
6683052 Off ch=1 n=48 v=0
6683377 On ch=1 n=13 v=100
6683485 Off ch=1 n=13 v=0
6683573 On ch=1 n=37 v=100
6683768 Off ch=1 n=37 v=0
6687024 On ch=1 n=16 v=100
6687120 Off ch=1 n=16 v=0
6687360 On ch=1 n=11 v=100
6687469 Off ch=1 n=11 v=0
6688112 On ch=1 n=22 v=100
6688177 Off ch=1 n=22 v=0
6689519 On ch=1 n=17 v=100
6690244 Off ch=1 n=17 v=0
6690251 On ch=1 n=2 v=100
6690254 On ch=1 n=56 v=100
6690579 On ch=1 n=64 v=100
6691546 Off ch=1 n=2 v=0
6691627 On ch=1 n=0 v=100
6692501 Off ch=1 n=56 v=0
6692603 Off ch=1 n=64 v=0
6692626 Off ch=1 n=0 v=0
6697585 On ch=1 n=12 v=100
6697699 Off ch=1 n=12 v=0
6697706 On ch=1 n=17 v=100
6698061 On ch=1 n=12 v=100
6698064 Off ch=1 n=17 v=0
6698246 Off ch=1 n=12 v=0
6698256 On ch=1 n=13 v=100
6698321 Off ch=1 n=13 v=0
6702921 On ch=1 n=26 v=100
6703008 Off ch=1 n=26 v=0
6704646 On ch=1 n=5 v=100
6704971 Off ch=1 n=5 v=0
6706636 On ch=1 n=9 v=100
6706736 Off ch=1 n=9 v=0
6706771 On ch=1 n=5 v=100
6707232 Off ch=1 n=5 v=0
6708081 On ch=1 n=6 v=100
6709695 Off ch=1 n=6 v=0
6715438 On ch=1 n=10 v=100
6715589 Off ch=1 n=10 v=0
6720398 On ch=1 n=23 v=100
6720478 Off ch=1 n=23 v=0
6725714 On ch=1 n=0 v=100
6731463 Off ch=1 n=0 v=0
6736775 On ch=1 n=6 v=100
6738231 Off ch=1 n=6 v=0
6738549 On ch=1 n=43 v=100
6738557 On ch=1 n=42 v=100
6738636 Off ch=1 n=43 v=0
6738647 Off ch=1 n=42 v=0
6746976 On ch=1 n=5 v=100
6747235 Off ch=1 n=5 v=0
6747484 On ch=1 n=4 v=100
6750284 Off ch=1 n=4 v=0
6760381 On ch=1 n=9 v=100
6760431 Off ch=1 n=9 v=0
6769698 On ch=1 n=11 v=100
6769763 Off ch=1 n=11 v=0
6775227 On ch=1 n=11 v=100
6775656 On ch=1 n=66 v=100
6776114 Off ch=1 n=11 v=0
6776205 Off ch=1 n=66 v=0
6779499 On ch=1 n=15 v=100
6779773 Off ch=1 n=15 v=0
6780574 On ch=1 n=0 v=100
6780818 On ch=1 n=20 v=100
6780833 Off ch=1 n=0 v=0
6780843 Off ch=1 n=20 v=0
6780871 On ch=1 n=20 v=100
6780965 Off ch=1 n=20 v=0
6786218 On ch=1 n=11 v=100
6786322 Off ch=1 n=11 v=0
6787453 On ch=1 n=19 v=100
6787591 Off ch=1 n=19 v=0
6787646 On ch=1 n=19 v=100
6793027 On ch=1 n=1 v=100
6793027 Off ch=1 n=19 v=0
6796191 Off ch=1 n=1 v=0
6801187 On ch=1 n=3 v=100
6801500 Off ch=1 n=3 v=0
6807512 On ch=1 n=35 v=100
6807589 Off ch=1 n=35 v=0
6807958 On ch=1 n=6 v=100
6808005 Off ch=1 n=6 v=0
6808291 On ch=1 n=21 v=100
6808379 Off ch=1 n=21 v=0
6808613 On ch=1 n=10 v=100
6808717 Off ch=1 n=10 v=0
6809266 On ch=1 n=37 v=100
6809351 Off ch=1 n=37 v=0
6812976 On ch=1 n=6 v=100
6818037 Off ch=1 n=6 v=0
6829046 On ch=1 n=18 v=100
6829378 Off ch=1 n=18 v=0
6833649 On ch=1 n=58 v=100
6833774 Off ch=1 n=58 v=0
6860426 On ch=1 n=14 v=100
6860571 Off ch=1 n=14 v=0
6869842 On ch=1 n=28 v=100
6869903 Off ch=1 n=28 v=0
6870687 On ch=1 n=8 v=100
6870898 Off ch=1 n=8 v=0
6871338 On ch=1 n=29 v=100
6871447 Off ch=1 n=29 v=0
6872314 On ch=1 n=38 v=100
6872637 Off ch=1 n=38 v=0
6874418 On ch=1 n=7 v=100
6874806 On ch=1 n=15 v=100
6874806 Off ch=1 n=7 v=0
6875007 Off ch=1 n=15 v=0
6881272 On ch=1 n=9 v=100
6881373 Off ch=1 n=9 v=0
6882837 On ch=1 n=6 v=100
6882900 Off ch=1 n=6 v=0
6883479 On ch=1 n=49 v=100
6883748 Off ch=1 n=49 v=0
6884691 On ch=1 n=61 v=100
6884729 On ch=1 n=39 v=100
6884928 Off ch=1 n=61 v=0
6884929 Off ch=1 n=39 v=0
6891819 On ch=1 n=6 v=100
6892043 Off ch=1 n=6 v=0
6893249 On ch=1 n=7 v=100
6893507 Off ch=1 n=7 v=0
6893519 On ch=1 n=11 v=100
6893722 Off ch=1 n=11 v=0
6893735 On ch=1 n=11 v=100
6893833 On ch=1 n=8 v=100
6893914 Off ch=1 n=11 v=0
6894353 Off ch=1 n=8 v=0
6894365 On ch=1 n=14 v=100
6894496 On ch=1 n=11 v=100
6894550 Off ch=1 n=14 v=0
6894992 Off ch=1 n=11 v=0
6895004 On ch=1 n=12 v=100
6895104 On ch=1 n=10 v=100
6895183 Off ch=1 n=12 v=0
6895509 On ch=1 n=11 v=100
6895601 Off ch=1 n=10 v=0
6896045 Off ch=1 n=11 v=0
6896055 On ch=1 n=11 v=100
6896155 On ch=1 n=7 v=100
6896247 Off ch=1 n=11 v=0
6896673 Off ch=1 n=7 v=0
6896686 On ch=1 n=8 v=100
6896891 Off ch=1 n=8 v=0
6896903 On ch=1 n=10 v=100
6897075 On ch=1 n=7 v=100
6897098 Off ch=1 n=10 v=0
6897520 Off ch=1 n=7 v=0
6897532 On ch=1 n=12 v=100
6897659 On ch=1 n=9 v=100
6897737 Off ch=1 n=12 v=0
6897968 Off ch=1 n=9 v=0
6897973 On ch=1 n=8 v=100
6898110 Off ch=1 n=8 v=0
6903332 On ch=1 n=6 v=100
6903656 Off ch=1 n=6 v=0
6904818 On ch=1 n=4 v=100
6904882 Off ch=1 n=4 v=0
6919890 On ch=1 n=9 v=100
6920040 Off ch=1 n=9 v=0
6935607 On ch=1 n=5 v=100
6935672 Off ch=1 n=5 v=0
6947104 On ch=1 n=9 v=100
6947364 Off ch=1 n=9 v=0
6948132 On ch=1 n=7 v=100
6948392 Off ch=1 n=7 v=0
6949163 On ch=1 n=6 v=100
6949423 Off ch=1 n=6 v=0
6949690 On ch=1 n=7 v=100
6949950 Off ch=1 n=7 v=0
6950691 On ch=1 n=6 v=100
6950951 Off ch=1 n=6 v=0
6951722 On ch=1 n=8 v=100
6951982 Off ch=1 n=8 v=0
6952494 On ch=1 n=32 v=100
6952586 Off ch=1 n=32 v=0
6952753 On ch=1 n=7 v=100
6953013 Off ch=1 n=7 v=0
6953784 On ch=1 n=29 v=100
6953831 Off ch=1 n=29 v=0
6956309 On ch=1 n=1 v=100
6956374 Off ch=1 n=1 v=0
6987382 On ch=1 n=7 v=100
6988372 Off ch=1 n=7 v=0
6988450 On ch=1 n=7 v=100
6988477 Off ch=1 n=7 v=0
6988478 On ch=1 n=13 v=100
6988651 Off ch=1 n=13 v=0
6988680 On ch=1 n=3 v=100
6988771 On ch=1 n=11 v=100
6988773 Off ch=1 n=3 v=0
6990119 On ch=1 n=9 v=100
6990122 Off ch=1 n=11 v=0
6990160 On ch=1 n=1 v=100
6990261 Off ch=1 n=1 v=0
6990262 Off ch=1 n=9 v=0
6997076 On ch=1 n=13 v=100
6997118 On ch=1 n=13 v=100
6997307 Off ch=1 n=13 v=0
6997504 On ch=1 n=62 v=100
6997966 Off ch=1 n=13 v=0
6998059 Off ch=1 n=62 v=0
7000575 On ch=1 n=30 v=100
7000656 Off ch=1 n=30 v=0
7001403 On ch=1 n=11 v=100
7001486 Off ch=1 n=11 v=0
7001514 On ch=1 n=11 v=100
7001532 Off ch=1 n=11 v=0
7001616 On ch=1 n=11 v=100
7001719 Off ch=1 n=11 v=0
7004644 On ch=1 n=10 v=100
7004869 Off ch=1 n=10 v=0
7005236 On ch=1 n=33 v=100
7005307 Off ch=1 n=33 v=0
7010871 On ch=1 n=14 v=100
7011016 Off ch=1 n=14 v=0
7016819 On ch=1 n=53 v=100
7016858 On ch=1 n=5 v=100
7017101 Off ch=1 n=53 v=0
7017141 Off ch=1 n=5 v=0
7017600 On ch=1 n=13 v=100
7017690 Off ch=1 n=13 v=0
7018049 On ch=1 n=9 v=100
7019030 Off ch=1 n=9 v=0
7019816 On ch=1 n=20 v=100
7020017 Off ch=1 n=20 v=0
7020077 On ch=1 n=18 v=100
7020299 Off ch=1 n=18 v=0
7020662 On ch=1 n=14 v=100
7020663 On ch=1 n=33 v=100
7020699 On ch=1 n=17 v=100
7021836 Off ch=1 n=14 v=0
7022585 Off ch=1 n=33 v=0
7024354 Off ch=1 n=17 v=0
7025406 On ch=1 n=16 v=100
7025757 Off ch=1 n=16 v=0
7026341 On ch=1 n=3 v=100
7026406 Off ch=1 n=3 v=0
7028470 On ch=1 n=11 v=100
7028578 Off ch=1 n=11 v=0
7028683 On ch=1 n=54 v=100
7028683 On ch=1 n=54 v=100
7028808 On ch=1 n=18 v=100
7028923 Off ch=1 n=54 v=0
7028923 Off ch=1 n=54 v=0
7029060 Off ch=1 n=18 v=0
7030010 On ch=1 n=11 v=100
7030215 On ch=1 n=4 v=100
7030217 Off ch=1 n=11 v=0
7033275 Off ch=1 n=4 v=0
7065659 On ch=1 n=3 v=100
7066024 Off ch=1 n=3 v=0
7066322 On ch=1 n=3 v=100
7066768 On ch=1 n=1 v=100
7066776 Off ch=1 n=3 v=0
7067306 Off ch=1 n=1 v=0
7071467 On ch=1 n=17 v=100
7071592 Off ch=1 n=17 v=0
7071669 On ch=1 n=7 v=100
7072682 Off ch=1 n=7 v=0
7073041 On ch=1 n=11 v=100
7073257 Off ch=1 n=11 v=0
7073317 On ch=1 n=21 v=100
7073518 Off ch=1 n=21 v=0
7074379 On ch=1 n=7 v=100
7075393 Off ch=1 n=7 v=0
7075751 On ch=1 n=11 v=100
7075967 Off ch=1 n=11 v=0
7076027 On ch=1 n=21 v=100
7076228 Off ch=1 n=21 v=0
7077119 On ch=1 n=7 v=100
7078132 Off ch=1 n=7 v=0
7078491 On ch=1 n=11 v=100
7078707 Off ch=1 n=11 v=0
7078767 On ch=1 n=20 v=100
7078968 Off ch=1 n=20 v=0
7079854 On ch=1 n=9 v=100
7080066 Off ch=1 n=9 v=0
7083546 On ch=1 n=15 v=100
7083692 Off ch=1 n=15 v=0
7090138 On ch=1 n=13 v=100
7090644 On ch=1 n=11 v=100
7090648 Off ch=1 n=13 v=0
7091059 On ch=1 n=52 v=100
7091107 On ch=1 n=8 v=100
7091108 Off ch=1 n=11 v=0
7091403 Off ch=1 n=52 v=0
7091447 Off ch=1 n=8 v=0
7091457 On ch=1 n=5 v=100
7091653 On ch=1 n=12 v=100
7091655 Off ch=1 n=5 v=0
7091761 Off ch=1 n=12 v=0
7091903 On ch=1 n=42 v=100
7091963 Off ch=1 n=42 v=0
7091965 On ch=1 n=18 v=100
7092053 Off ch=1 n=18 v=0
7092236 On ch=1 n=51 v=100
7092468 On ch=1 n=52 v=100
7092475 On ch=1 n=9 v=100
7093342 Off ch=1 n=51 v=0
7094057 On ch=1 n=15 v=100
7094057 Off ch=1 n=9 v=0
7094681 Off ch=1 n=52 v=0
7094695 Off ch=1 n=15 v=0
7095444 On ch=1 n=10 v=100
7095546 Off ch=1 n=10 v=0
7096258 On ch=1 n=8 v=100
7096890 Off ch=1 n=8 v=0
7097007 On ch=1 n=4 v=100
7098780 On ch=1 n=9 v=100
7098781 Off ch=1 n=4 v=0
7099380 Off ch=1 n=9 v=0
7099926 On ch=1 n=11 v=100
7100133 Off ch=1 n=11 v=0
7100794 On ch=1 n=37 v=100
7100879 Off ch=1 n=37 v=0
7104956 On ch=1 n=15 v=100
7105061 Off ch=1 n=15 v=0
7106992 On ch=1 n=21 v=100
7107039 Off ch=1 n=21 v=0
7115545 On ch=1 n=19 v=100
7115971 Off ch=1 n=19 v=0
7129125 On ch=1 n=8 v=100
7129233 Off ch=1 n=8 v=0
7130578 On ch=1 n=5 v=100
7130728 Off ch=1 n=5 v=0
7131052 On ch=1 n=5 v=100
7132280 Off ch=1 n=5 v=0
7143627 On ch=1 n=15 v=100
7143743 Off ch=1 n=15 v=0
7143962 On ch=1 n=39 v=100
7144092 Off ch=1 n=39 v=0
7147906 On ch=1 n=31 v=100
7148100 Off ch=1 n=31 v=0
7148153 On ch=1 n=19 v=100
7148245 Off ch=1 n=19 v=0
7148248 On ch=1 n=13 v=100
7148453 Off ch=1 n=13 v=0
7148515 On ch=1 n=8 v=100
7148608 Off ch=1 n=8 v=0
7150368 On ch=1 n=24 v=100
7150429 Off ch=1 n=24 v=0
7154266 On ch=1 n=3 v=100
7154323 Off ch=1 n=3 v=0
7155386 On ch=1 n=53 v=100
7155560 Off ch=1 n=53 v=0
7165823 On ch=1 n=1 v=100
7165888 Off ch=1 n=1 v=0
7173046 On ch=1 n=27 v=100
7173133 Off ch=1 n=27 v=0
7174019 On ch=1 n=8 v=100
7174186 Off ch=1 n=8 v=0
7174198 On ch=1 n=8 v=100
7174599 On ch=1 n=12 v=100
7174657 Off ch=1 n=8 v=0
7174797 Off ch=1 n=12 v=0
7174808 On ch=1 n=7 v=100
7175229 On ch=1 n=10 v=100
7175300 Off ch=1 n=7 v=0
7175433 Off ch=1 n=10 v=0
7175445 On ch=1 n=5 v=100
7175868 On ch=1 n=10 v=100
7175939 Off ch=1 n=5 v=0
7176072 Off ch=1 n=10 v=0
7176084 On ch=1 n=7 v=100
7176491 On ch=1 n=14 v=100
7176555 Off ch=1 n=7 v=0
7176696 Off ch=1 n=14 v=0
7176707 On ch=1 n=8 v=100
7177145 On ch=1 n=13 v=100
7177228 Off ch=1 n=8 v=0
7177326 Off ch=1 n=13 v=0
7177337 On ch=1 n=6 v=100
7177763 On ch=1 n=11 v=100
7177830 Off ch=1 n=6 v=0
7177965 Off ch=1 n=11 v=0
7177977 On ch=1 n=7 v=100
7178384 On ch=1 n=14 v=100
7178486 Off ch=1 n=7 v=0
7178589 Off ch=1 n=14 v=0
7178600 On ch=1 n=8 v=100
7179038 On ch=1 n=13 v=100
7179121 Off ch=1 n=8 v=0
7179219 Off ch=1 n=13 v=0
7179229 On ch=1 n=7 v=100
7179436 Off ch=1 n=7 v=0
7179471 On ch=1 n=7 v=100
7179815 On ch=1 n=11 v=100
7179865 Off ch=1 n=7 v=0
7180013 Off ch=1 n=11 v=0
7180025 On ch=1 n=7 v=100
7180447 On ch=1 n=9 v=100
7180509 Off ch=1 n=7 v=0
7180853 On ch=1 n=11 v=100
7180894 Off ch=1 n=9 v=0
7181057 Off ch=1 n=11 v=0
7181069 On ch=1 n=6 v=100
7181492 On ch=1 n=10 v=100
7181502 Off ch=1 n=6 v=0
7181696 Off ch=1 n=10 v=0
7181708 On ch=1 n=6 v=100
7182101 Off ch=1 n=6 v=0
7182102 On ch=1 n=12 v=100
7182243 Off ch=1 n=12 v=0
7182254 On ch=1 n=8 v=100
7182459 Off ch=1 n=8 v=0
7182472 On ch=1 n=6 v=100
7182906 On ch=1 n=11 v=100
7182973 Off ch=1 n=6 v=0
7183098 Off ch=1 n=11 v=0
7183110 On ch=1 n=7 v=100
7183533 On ch=1 n=11 v=100
7183597 Off ch=1 n=7 v=0
7183736 Off ch=1 n=11 v=0
7183748 On ch=1 n=7 v=100
7184156 On ch=1 n=12 v=100
7184211 Off ch=1 n=7 v=0
7184360 Off ch=1 n=12 v=0
7184372 On ch=1 n=6 v=100
7184795 On ch=1 n=11 v=100
7184866 Off ch=1 n=6 v=0
7184999 Off ch=1 n=11 v=0
7185011 On ch=1 n=5 v=100
7185399 Off ch=1 n=5 v=0
7185401 On ch=1 n=1 v=100
7186697 Off ch=1 n=1 v=0
7189749 On ch=1 n=50 v=100
7190102 Off ch=1 n=50 v=0
7190496 On ch=1 n=43 v=100
7191471 On ch=1 n=4 v=100
7193250 Off ch=1 n=43 v=0
7193335 Off ch=1 n=4 v=0
7201046 On ch=1 n=9 v=100
7201099 Off ch=1 n=9 v=0
7201104 On ch=1 n=7 v=100
7201928 Off ch=1 n=7 v=0
7202113 On ch=1 n=13 v=100
7202286 Off ch=1 n=13 v=0
7202323 On ch=1 n=3 v=100
7202413 On ch=1 n=10 v=100
7202415 Off ch=1 n=3 v=0
7203666 Off ch=1 n=10 v=0
7203670 On ch=1 n=0 v=100
7203707 Off ch=1 n=0 v=0
7208584 On ch=1 n=13 v=100
7209472 Off ch=1 n=13 v=0
7211287 On ch=1 n=34 v=100
7211365 Off ch=1 n=34 v=0
7212119 On ch=1 n=17 v=100
7212273 Off ch=1 n=17 v=0
7212348 On ch=1 n=17 v=100
7212450 Off ch=1 n=17 v=0
7213241 On ch=1 n=1 v=100
7214654 Off ch=1 n=1 v=0
7214738 On ch=1 n=3 v=100
7214966 Off ch=1 n=3 v=0
7229289 On ch=1 n=13 v=100
7229338 Off ch=1 n=13 v=0
7229699 On ch=1 n=38 v=100
7229773 Off ch=1 n=38 v=0
7235351 On ch=1 n=5 v=100
7235658 Off ch=1 n=5 v=0
7238676 On ch=1 n=2 v=100
7240895 Off ch=1 n=2 v=0
7271424 On ch=1 n=30 v=100
7271625 Off ch=1 n=30 v=0
7286851 On ch=1 n=4 v=100
7287369 Off ch=1 n=4 v=0
7293836 On ch=1 n=11 v=100
7293941 Off ch=1 n=11 v=0
7297983 On ch=1 n=35 v=100
7298054 Off ch=1 n=35 v=0
7298720 On ch=1 n=18 v=100
7298792 On ch=1 n=47 v=100
7298816 Off ch=1 n=18 v=0
7298816 Off ch=1 n=47 v=0
7298861 On ch=1 n=18 v=100
7298861 On ch=1 n=47 v=100
7298885 Off ch=1 n=18 v=0
7298892 On ch=1 n=11 v=100
7299028 Off ch=1 n=47 v=0
7299144 Off ch=1 n=11 v=0
7299150 On ch=1 n=16 v=100
7299249 Off ch=1 n=16 v=0
7299301 On ch=1 n=33 v=100
7299456 Off ch=1 n=33 v=0
7299872 On ch=1 n=2 v=100
7301276 Off ch=1 n=2 v=0
7301347 On ch=1 n=14 v=100
7301420 Off ch=1 n=14 v=0
7304510 On ch=1 n=14 v=100
7304598 Off ch=1 n=14 v=0
7304814 On ch=1 n=16 v=100
7304928 Off ch=1 n=16 v=0
7305442 On ch=1 n=16 v=100
7305608 Off ch=1 n=16 v=0
7306184 On ch=1 n=17 v=100
7306240 Off ch=1 n=17 v=0
7306829 On ch=1 n=31 v=100
7306889 Off ch=1 n=31 v=0
7313318 On ch=1 n=11 v=100
7313389 Off ch=1 n=11 v=0
7314201 On ch=1 n=17 v=100
7314267 Off ch=1 n=17 v=0
7328861 On ch=1 n=17 v=100
7328982 Off ch=1 n=17 v=0
7332230 On ch=1 n=22 v=100
7332291 Off ch=1 n=22 v=0
7333087 On ch=1 n=3 v=100
7333812 On ch=1 n=58 v=100
7333819 On ch=1 n=35 v=100
7333891 Off ch=1 n=3 v=0
7333905 Off ch=1 n=35 v=0
7333918 Off ch=1 n=58 v=0
7334165 On ch=1 n=4 v=100
7334489 Off ch=1 n=4 v=0
7334597 On ch=1 n=16 v=100
7334679 Off ch=1 n=16 v=0
7334709 On ch=1 n=16 v=100
7334800 Off ch=1 n=16 v=0
7343724 On ch=1 n=5 v=100
7345084 Off ch=1 n=5 v=0
7372679 On ch=1 n=30 v=100
7372737 Off ch=1 n=30 v=0
7373094 On ch=1 n=33 v=100
7373164 Off ch=1 n=33 v=0
7373538 On ch=1 n=13 v=100
7373585 Off ch=1 n=13 v=0
7373829 On ch=1 n=19 v=100
7373917 Off ch=1 n=19 v=0
7374151 On ch=1 n=9 v=100
7374258 Off ch=1 n=9 v=0
7376936 On ch=1 n=48 v=100
7376973 On ch=1 n=5 v=100
7376995 On ch=1 n=46 v=100
7377127 Off ch=1 n=5 v=0
7377151 Off ch=1 n=48 v=0
7377174 Off ch=1 n=46 v=0
7378589 On ch=1 n=31 v=100
7378787 On ch=1 n=82 v=100
7379042 Off ch=1 n=31 v=0
7379118 Off ch=1 n=82 v=0
7379334 On ch=1 n=55 v=100
7379362 On ch=1 n=10 v=100
7379558 Off ch=1 n=55 v=0
7379559 Off ch=1 n=10 v=0
7380574 On ch=1 n=35 v=100
7380630 Off ch=1 n=35 v=0
7380631 On ch=1 n=3 v=100
7381448 Off ch=1 n=3 v=0
7381746 On ch=1 n=21 v=100
7381924 Off ch=1 n=21 v=0
7385324 On ch=1 n=18 v=100
7385645 Off ch=1 n=18 v=0
7385655 On ch=1 n=13 v=100
7385823 Off ch=1 n=13 v=0
7389067 On ch=1 n=5 v=100
7389585 Off ch=1 n=5 v=0
7405561 On ch=1 n=2 v=100
7406305 Off ch=1 n=2 v=0
7408001 On ch=1 n=4 v=100
7408844 Off ch=1 n=4 v=0
7409166 On ch=1 n=15 v=100
7409596 Off ch=1 n=15 v=0
7411033 On ch=1 n=5 v=100
7412040 Off ch=1 n=5 v=0
7413933 On ch=1 n=15 v=100
7414041 Off ch=1 n=15 v=0
7414573 On ch=1 n=8 v=100
7415175 Off ch=1 n=8 v=0
7415823 On ch=1 n=8 v=100
7416357 Off ch=1 n=8 v=0
7416364 On ch=1 n=5 v=100
7417065 Off ch=1 n=5 v=0
7426390 On ch=1 n=9 v=100
7426659 Off ch=1 n=9 v=0
7427093 On ch=1 n=11 v=100
7427115 On ch=1 n=10 v=100
7427131 Off ch=1 n=11 v=0
7427359 Off ch=1 n=10 v=0
7429615 On ch=1 n=39 v=100
7429811 Off ch=1 n=39 v=0
7431368 On ch=1 n=41 v=100
7431671 Off ch=1 n=41 v=0
7435646 On ch=1 n=29 v=100
7435697 Off ch=1 n=29 v=0
7435725 On ch=1 n=29 v=100
7435757 Off ch=1 n=29 v=0
7444624 On ch=1 n=7 v=100
7444719 Off ch=1 n=7 v=0
7444780 On ch=1 n=51 v=100
7444780 On ch=1 n=7 v=100
7444935 Off ch=1 n=7 v=0
7445035 Off ch=1 n=51 v=0
7446396 On ch=1 n=16 v=100
7446603 Off ch=1 n=16 v=0
7448459 On ch=1 n=5 v=100
7448656 Off ch=1 n=5 v=0
7467076 On ch=1 n=40 v=100
7467255 Off ch=1 n=40 v=0
7468746 On ch=1 n=20 v=100
7468782 Off ch=1 n=20 v=0
7468854 On ch=1 n=20 v=100
7468877 Off ch=1 n=20 v=0
7476241 On ch=1 n=8 v=100
7476567 Off ch=1 n=8 v=0
7511195 On ch=1 n=1 v=100
7511726 On ch=1 n=2 v=100
7511734 Off ch=1 n=1 v=0
7512185 Off ch=1 n=2 v=0
7512483 On ch=1 n=3 v=100
7512848 Off ch=1 n=3 v=0
7531694 On ch=1 n=32 v=100
7531879 Off ch=1 n=32 v=0
7531929 On ch=1 n=21 v=100
7532025 Off ch=1 n=21 v=0
7532026 On ch=1 n=16 v=100
7532264 Off ch=1 n=16 v=0
7532299 On ch=1 n=16 v=100
7532299 On ch=1 n=16 v=100
7532316 Off ch=1 n=16 v=0
7532391 Off ch=1 n=16 v=0
7533522 On ch=1 n=41 v=100
7533601 Off ch=1 n=41 v=0
7533957 On ch=1 n=24 v=100
7534018 Off ch=1 n=24 v=0
7537738 On ch=1 n=6 v=100
7537786 Off ch=1 n=6 v=0
7538405 On ch=1 n=63 v=100
7538784 Off ch=1 n=63 v=0
7539600 On ch=1 n=57 v=100
7540589 Off ch=1 n=57 v=0
7544198 On ch=1 n=5 v=100
7544261 Off ch=1 n=5 v=0
7547638 On ch=1 n=37 v=100
7547882 Off ch=1 n=37 v=0
7549317 On ch=1 n=7 v=100
7549545 Off ch=1 n=7 v=0
7549563 On ch=1 n=7 v=100
7550358 Off ch=1 n=7 v=0
7550366 On ch=1 n=8 v=100
7550406 On ch=1 n=9 v=100
7550428 Off ch=1 n=8 v=0
7550529 Off ch=1 n=9 v=0
7551691 On ch=1 n=1 v=100
7553405 Off ch=1 n=1 v=0
7554504 On ch=1 n=0 v=100
7556242 Off ch=1 n=0 v=0
7556868 On ch=1 n=3 v=100
7557186 On ch=1 n=61 v=100
7558159 Off ch=1 n=3 v=0
7558240 On ch=1 n=1 v=100
7559799 Off ch=1 n=61 v=0
7559799 Off ch=1 n=1 v=0
7560330 On ch=1 n=1 v=100
7562325 Off ch=1 n=1 v=0
7562327 On ch=1 n=0 v=100
7562731 Off ch=1 n=0 v=0
7582230 On ch=1 n=16 v=100
7582282 Off ch=1 n=16 v=0
7587241 On ch=1 n=3 v=100
7588395 Off ch=1 n=3 v=0
7590190 On ch=1 n=6 v=100
7590811 Off ch=1 n=6 v=0
7590922 On ch=1 n=8 v=100
7590972 Off ch=1 n=8 v=0
7594623 On ch=1 n=6 v=100
7594939 Off ch=1 n=6 v=0
7602271 On ch=1 n=48 v=100
7602336 On ch=1 n=5 v=100
7602709 Off ch=1 n=48 v=0
7602709 Off ch=1 n=5 v=0
7602818 On ch=1 n=5 v=100
7602922 Off ch=1 n=5 v=0
7611724 On ch=1 n=15 v=100
7612053 Off ch=1 n=15 v=0
7612105 On ch=1 n=9 v=100
7612181 Off ch=1 n=9 v=0
7615911 On ch=1 n=33 v=100
7616112 Off ch=1 n=33 v=0
7616485 On ch=1 n=10 v=100
7616953 Off ch=1 n=10 v=0
7617438 On ch=1 n=13 v=100
7617494 Off ch=1 n=13 v=0
7617726 On ch=1 n=10 v=100
7617828 Off ch=1 n=10 v=0
7618536 On ch=1 n=15 v=100
7619242 Off ch=1 n=15 v=0
7619666 On ch=1 n=21 v=100
7619773 Off ch=1 n=21 v=0
7619778 On ch=1 n=59 v=100
7619855 Off ch=1 n=59 v=0
7619981 On ch=1 n=6 v=100
7620471 Off ch=1 n=6 v=0
7620475 On ch=1 n=9 v=100
7620522 On ch=1 n=43 v=100
7620649 Off ch=1 n=9 v=0
7620674 Off ch=1 n=43 v=0
7620683 On ch=1 n=14 v=100
7620828 Off ch=1 n=14 v=0
7620896 On ch=1 n=12 v=100
7621409 Off ch=1 n=12 v=0
7624035 On ch=1 n=10 v=100
7624146 Off ch=1 n=10 v=0
7626487 On ch=1 n=3 v=100
7626553 Off ch=1 n=3 v=0
7630812 On ch=1 n=3 v=100
7631361 On ch=1 n=2 v=100
7633359 Off ch=1 n=3 v=0
7634313 Off ch=1 n=2 v=0
7641837 On ch=1 n=5 v=100
7643533 Off ch=1 n=5 v=0
7643731 On ch=1 n=3 v=100
7645421 Off ch=1 n=3 v=0
7645476 On ch=1 n=3 v=100
7647508 Off ch=1 n=3 v=0
7648174 On ch=1 n=3 v=100
7649345 On ch=1 n=53 v=100
7649345 On ch=1 n=53 v=100
7649839 On ch=1 n=5 v=100
7649841 Off ch=1 n=3 v=0
7649851 On ch=1 n=42 v=100
7649851 On ch=1 n=42 v=100
7650030 Off ch=1 n=53 v=0
7650030 Off ch=1 n=53 v=0
7650100 Off ch=1 n=5 v=0
7650133 Off ch=1 n=42 v=0
7650133 Off ch=1 n=42 v=0
7651557 On ch=1 n=4 v=100
7651945 Off ch=1 n=4 v=0
7651950 On ch=1 n=3 v=100
7654947 Off ch=1 n=3 v=0
7655117 On ch=1 n=27 v=100
7655203 Off ch=1 n=27 v=0
7655593 On ch=1 n=11 v=100
7655679 Off ch=1 n=11 v=0
7655915 On ch=1 n=3 v=100
7657994 Off ch=1 n=3 v=0
7659055 On ch=1 n=5 v=100
7659080 On ch=1 n=14 v=100
7660121 Off ch=1 n=5 v=0
7660286 On ch=1 n=18 v=100
7660293 Off ch=1 n=14 v=0
7660318 On ch=1 n=8 v=100
7660394 Off ch=1 n=18 v=0
7660395 Off ch=1 n=8 v=0
7665804 On ch=1 n=14 v=100
7666241 On ch=1 n=62 v=100
7666672 Off ch=1 n=14 v=0
7666764 Off ch=1 n=62 v=0
7669328 On ch=1 n=32 v=100
7669405 Off ch=1 n=32 v=0
7670158 On ch=1 n=13 v=100
7670243 Off ch=1 n=13 v=0
7670291 On ch=1 n=13 v=100
7670315 Off ch=1 n=13 v=0
7670399 On ch=1 n=13 v=100
7670501 Off ch=1 n=13 v=0
7675124 On ch=1 n=13 v=100
7675220 Off ch=1 n=13 v=0
7675248 On ch=1 n=13 v=100
7675356 Off ch=1 n=13 v=0
7675723 On ch=1 n=38 v=100
7675802 Off ch=1 n=38 v=0
7679872 On ch=1 n=12 v=100
7679963 Off ch=1 n=12 v=0
7683051 On ch=1 n=13 v=100
7683197 Off ch=1 n=13 v=0
7692192 On ch=1 n=38 v=100
7692210 On ch=1 n=5 v=100
7692285 Off ch=1 n=38 v=0
7693624 Off ch=1 n=5 v=0
7710176 On ch=1 n=51 v=100
7710288 Off ch=1 n=51 v=0
7728164 On ch=1 n=35 v=100
7728378 Off ch=1 n=35 v=0
7736210 On ch=1 n=2 v=100
7738919 Off ch=1 n=2 v=0
7747744 On ch=1 n=1 v=100
7749162 Off ch=1 n=1 v=0
7749163 On ch=1 n=0 v=100
7749330 Off ch=1 n=0 v=0
7750776 On ch=1 n=9 v=100
7750887 Off ch=1 n=9 v=0
7751386 On ch=1 n=7 v=100
7752000 Off ch=1 n=7 v=0
7752631 On ch=1 n=9 v=100
7752860 Off ch=1 n=9 v=0
7754480 On ch=1 n=5 v=100
7755627 Off ch=1 n=5 v=0
7755628 On ch=1 n=5 v=100
7755874 Off ch=1 n=5 v=0
7757008 On ch=1 n=8 v=100
7757011 On ch=1 n=55 v=100
7757467 Off ch=1 n=8 v=0
7757471 On ch=1 n=7 v=100
7757751 Off ch=1 n=55 v=0
7757862 Off ch=1 n=7 v=0
7761028 On ch=1 n=13 v=100
7761235 On ch=1 n=4 v=100
7761235 Off ch=1 n=13 v=0
7761635 Off ch=1 n=4 v=0
7761647 On ch=1 n=3 v=100
7761656 On ch=1 n=55 v=100
7762144 On ch=1 n=51 v=100
7762762 Off ch=1 n=3 v=0
7762772 On ch=1 n=2 v=100
7763604 Off ch=1 n=55 v=0
7764146 Off ch=1 n=51 v=0
7764355 Off ch=1 n=2 v=0
7781435 On ch=1 n=4 v=100
7782652 Off ch=1 n=4 v=0
7783866 On ch=1 n=26 v=100
7783970 Off ch=1 n=26 v=0
7796978 On ch=1 n=32 v=100
7797234 Off ch=1 n=32 v=0
7797300 On ch=1 n=26 v=100
7797889 Off ch=1 n=26 v=0
7817510 On ch=1 n=39 v=100
7817616 Off ch=1 n=39 v=0
7820190 On ch=1 n=21 v=100
7820258 Off ch=1 n=21 v=0
7822262 On ch=1 n=26 v=100
7822308 Off ch=1 n=26 v=0
7822336 On ch=1 n=26 v=100
7822355 Off ch=1 n=26 v=0
7822390 On ch=1 n=26 v=100
7822470 Off ch=1 n=26 v=0
7827309 On ch=1 n=6 v=100
7827544 On ch=1 n=21 v=100
7827556 Off ch=1 n=6 v=0
7827616 Off ch=1 n=21 v=0
7827622 On ch=1 n=7 v=100
7827909 Off ch=1 n=7 v=0
7830025 On ch=1 n=10 v=100
7830236 Off ch=1 n=10 v=0
7838883 On ch=1 n=0 v=100
7839902 Off ch=1 n=0 v=0
7841594 On ch=1 n=65 v=100
7841744 On ch=1 n=21 v=100
7841795 Off ch=1 n=65 v=0
7841795 Off ch=1 n=21 v=0
7841845 On ch=1 n=21 v=100
7843812 Off ch=1 n=21 v=0
7844560 On ch=1 n=15 v=100
7844987 Off ch=1 n=15 v=0
7846445 On ch=1 n=6 v=100
7846743 Off ch=1 n=6 v=0
7848809 On ch=1 n=14 v=100
7848917 Off ch=1 n=14 v=0
7849339 On ch=1 n=5 v=100
7851880 Off ch=1 n=5 v=0
7851980 On ch=1 n=51 v=100
7852030 On ch=1 n=53 v=100
7852032 On ch=1 n=10 v=100
7852424 Off ch=1 n=51 v=0
7852425 Off ch=1 n=10 v=0
7852438 On ch=1 n=7 v=100
7852483 Off ch=1 n=53 v=0
7852506 Off ch=1 n=7 v=0
7852824 On ch=1 n=13 v=100
7853490 On ch=1 n=47 v=100
7853605 Off ch=1 n=13 v=0
7853608 On ch=1 n=60 v=100
7853610 On ch=1 n=5 v=100
7853671 Off ch=1 n=47 v=0
7853788 On ch=1 n=58 v=100
7854077 On ch=1 n=6 v=100
7854082 Off ch=1 n=5 v=0
7854359 Off ch=1 n=60 v=0
7854374 Off ch=1 n=58 v=0
7854488 Off ch=1 n=6 v=0
7859471 On ch=1 n=16 v=100
7859563 Off ch=1 n=16 v=0
7859614 On ch=1 n=16 v=100
7859703 Off ch=1 n=16 v=0
7859728 On ch=1 n=3 v=100
7862789 Off ch=1 n=3 v=0
7866188 On ch=1 n=5 v=100
7866303 Off ch=1 n=5 v=0
7866683 On ch=1 n=5 v=100
7866910 Off ch=1 n=5 v=0
7872626 On ch=1 n=33 v=100
7872694 Off ch=1 n=33 v=0
7873057 On ch=1 n=10 v=100
7873105 Off ch=1 n=10 v=0
7877715 On ch=1 n=7 v=100
7877973 Off ch=1 n=7 v=0
7898229 On ch=1 n=66 v=100
7898378 On ch=1 n=4 v=100
7898966 Off ch=1 n=66 v=0
7899210 Off ch=1 n=4 v=0
7900488 On ch=1 n=5 v=100
7901112 Off ch=1 n=5 v=0
7902907 On ch=1 n=7 v=100
7903527 Off ch=1 n=7 v=0
7903638 On ch=1 n=8 v=100
7903688 Off ch=1 n=8 v=0
7904757 On ch=1 n=6 v=100
7905080 Off ch=1 n=6 v=0
7910940 On ch=1 n=7 v=100
7911265 Off ch=1 n=7 v=0
7915181 On ch=1 n=8 v=100
7915230 Off ch=1 n=8 v=0
7915341 On ch=1 n=7 v=100
7915959 Off ch=1 n=7 v=0
7926008 On ch=1 n=7 v=100
7926208 Off ch=1 n=7 v=0
7926869 On ch=1 n=9 v=100
7926990 Off ch=1 n=9 v=0
7927194 On ch=1 n=10 v=100
7927398 Off ch=1 n=10 v=0
7927790 On ch=1 n=8 v=100
7928586 Off ch=1 n=8 v=0
7928656 On ch=1 n=4 v=100
7930566 On ch=1 n=9 v=100
7930568 Off ch=1 n=4 v=0
7931076 Off ch=1 n=9 v=0
7936248 On ch=1 n=10 v=100
7936304 Off ch=1 n=10 v=0
7936537 On ch=1 n=11 v=100
7936639 Off ch=1 n=11 v=0
7936888 On ch=1 n=34 v=100
7936972 Off ch=1 n=34 v=0
7937342 On ch=1 n=27 v=100
7937406 Off ch=1 n=27 v=0
7937948 On ch=1 n=36 v=100
7938008 On ch=1 n=8 v=100
7938141 Off ch=1 n=8 v=0
7938142 Off ch=1 n=36 v=0
7938659 On ch=1 n=5 v=100
7939741 Off ch=1 n=5 v=0
7963347 On ch=1 n=8 v=100
7963525 Off ch=1 n=8 v=0
7976867 On ch=1 n=2 v=100
7978705 Off ch=1 n=2 v=0
7987472 On ch=1 n=53 v=100
7987474 On ch=1 n=56 v=100
7987775 Off ch=1 n=53 v=0
7987814 Off ch=1 n=56 v=0
7993863 On ch=1 n=54 v=100
7994002 Off ch=1 n=54 v=0
7994229 On ch=1 n=51 v=100
7994584 Off ch=1 n=51 v=0
8000192 On ch=1 n=24 v=100
8000265 Off ch=1 n=24 v=0
8001221 On ch=1 n=9 v=100
8001641 Off ch=1 n=9 v=0
8013595 On ch=1 n=2 v=100
8014728 Off ch=1 n=2 v=0
8020278 On ch=1 n=8 v=100
8020535 Off ch=1 n=8 v=0
8021308 On ch=1 n=6 v=100
8021568 Off ch=1 n=6 v=0
8022120 On ch=1 n=3 v=100
8022350 Off ch=1 n=3 v=0
8023123 On ch=1 n=7 v=100
8023382 Off ch=1 n=7 v=0
8024153 On ch=1 n=7 v=100
8024413 Off ch=1 n=7 v=0
8026998 On ch=1 n=6 v=100
8027256 Off ch=1 n=6 v=0
8028027 On ch=1 n=8 v=100
8028287 Off ch=1 n=8 v=0
8029058 On ch=1 n=6 v=100
8029318 Off ch=1 n=6 v=0
8029910 On ch=1 n=0 v=100
8035029 On ch=1 n=30 v=100
8035370 Off ch=1 n=0 v=0
8035430 On ch=1 n=5 v=100
8035433 Off ch=1 n=30 v=0
8035469 Off ch=1 n=5 v=0
8035542 On ch=1 n=13 v=100
8035607 On ch=1 n=5 v=100
8035612 Off ch=1 n=13 v=0
8035646 Off ch=1 n=5 v=0
8035719 On ch=1 n=13 v=100
8035784 On ch=1 n=2 v=100
8035789 Off ch=1 n=13 v=0
8035823 Off ch=1 n=2 v=0
8035896 On ch=1 n=13 v=100
8035961 On ch=1 n=2 v=100
8035966 Off ch=1 n=13 v=0
8036000 Off ch=1 n=2 v=0
8036073 On ch=1 n=15 v=100
8036138 On ch=1 n=2 v=100
8036143 Off ch=1 n=15 v=0
8036177 Off ch=1 n=2 v=0
8036250 On ch=1 n=13 v=100
8036315 On ch=1 n=2 v=100
8036320 Off ch=1 n=13 v=0
8036354 Off ch=1 n=2 v=0
8036427 On ch=1 n=13 v=100
8036492 On ch=1 n=2 v=100
8036497 Off ch=1 n=13 v=0
8036531 Off ch=1 n=2 v=0
8036604 On ch=1 n=13 v=100
8036669 On ch=1 n=2 v=100
8036674 Off ch=1 n=13 v=0
8036708 Off ch=1 n=2 v=0
8036781 On ch=1 n=13 v=100
8036846 On ch=1 n=2 v=100
8036851 Off ch=1 n=13 v=0
8036885 Off ch=1 n=2 v=0
8036958 On ch=1 n=13 v=100
8037023 On ch=1 n=2 v=100
8037028 Off ch=1 n=13 v=0
8037062 Off ch=1 n=2 v=0
8037135 On ch=1 n=13 v=100
8037200 On ch=1 n=2 v=100
8037205 Off ch=1 n=13 v=0
8037239 Off ch=1 n=2 v=0
8037312 On ch=1 n=13 v=100
8037377 On ch=1 n=2 v=100
8037382 Off ch=1 n=13 v=0
8037416 Off ch=1 n=2 v=0
8037489 On ch=1 n=15 v=100
8037554 On ch=1 n=2 v=100
8037559 Off ch=1 n=15 v=0
8037593 Off ch=1 n=2 v=0
8037666 On ch=1 n=13 v=100
8037731 On ch=1 n=2 v=100
8037736 Off ch=1 n=13 v=0
8037770 Off ch=1 n=2 v=0
8037843 On ch=1 n=13 v=100
8037908 On ch=1 n=2 v=100
8037913 Off ch=1 n=13 v=0
8037947 Off ch=1 n=2 v=0
8038020 On ch=1 n=13 v=100
8038085 On ch=1 n=2 v=100
8038090 Off ch=1 n=13 v=0
8038124 Off ch=1 n=2 v=0
8038197 On ch=1 n=13 v=100
8038262 On ch=1 n=5 v=100
8038267 Off ch=1 n=13 v=0
8038301 Off ch=1 n=5 v=0
8038374 On ch=1 n=16 v=100
8038439 On ch=1 n=5 v=100
8038441 Off ch=1 n=16 v=0
8038478 Off ch=1 n=5 v=0
8038551 On ch=1 n=15 v=100
8038616 On ch=1 n=2 v=100
8038621 Off ch=1 n=15 v=0
8038655 Off ch=1 n=2 v=0
8038728 On ch=1 n=13 v=100
8038793 On ch=1 n=2 v=100
8038798 Off ch=1 n=13 v=0
8038832 Off ch=1 n=2 v=0
8038905 On ch=1 n=13 v=100
8038970 On ch=1 n=2 v=100
8038975 Off ch=1 n=13 v=0
8039009 Off ch=1 n=2 v=0
8039082 On ch=1 n=13 v=100
8039147 On ch=1 n=2 v=100
8039152 Off ch=1 n=13 v=0
8039186 Off ch=1 n=2 v=0
8039259 On ch=1 n=13 v=100
8039324 On ch=1 n=2 v=100
8039329 Off ch=1 n=13 v=0
8039363 Off ch=1 n=2 v=0
8039436 On ch=1 n=13 v=100
8039501 On ch=1 n=2 v=100
8039506 Off ch=1 n=13 v=0
8039540 Off ch=1 n=2 v=0
8039613 On ch=1 n=13 v=100
8039678 On ch=1 n=2 v=100
8039683 Off ch=1 n=13 v=0
8039717 Off ch=1 n=2 v=0
8039790 On ch=1 n=13 v=100
8039855 On ch=1 n=2 v=100
8039860 Off ch=1 n=13 v=0
8039894 Off ch=1 n=2 v=0
8039967 On ch=1 n=13 v=100
8040032 On ch=1 n=5 v=100
8040037 Off ch=1 n=13 v=0
8040071 Off ch=1 n=5 v=0
8040144 On ch=1 n=13 v=100
8040209 On ch=1 n=2 v=100
8040214 Off ch=1 n=13 v=0
8040248 Off ch=1 n=2 v=0
8040321 On ch=1 n=13 v=100
8040386 On ch=1 n=2 v=100
8040391 Off ch=1 n=13 v=0
8040425 Off ch=1 n=2 v=0
8040532 On ch=1 n=12 v=100
8040597 On ch=1 n=2 v=100
8040598 Off ch=1 n=12 v=0
8040636 Off ch=1 n=2 v=0
8040709 On ch=1 n=13 v=100
8040767 On ch=1 n=4 v=100
8040770 Off ch=1 n=13 v=0
8040808 Off ch=1 n=4 v=0
8040881 On ch=1 n=13 v=100
8040946 On ch=1 n=2 v=100
8040951 Off ch=1 n=13 v=0
8040985 Off ch=1 n=2 v=0
8041058 On ch=1 n=13 v=100
8041123 On ch=1 n=2 v=100
8041128 Off ch=1 n=13 v=0
8041162 Off ch=1 n=2 v=0
8041235 On ch=1 n=13 v=100
8041300 On ch=1 n=2 v=100
8041305 Off ch=1 n=13 v=0
8041339 Off ch=1 n=2 v=0
8041412 On ch=1 n=13 v=100
8041477 On ch=1 n=2 v=100
8041482 Off ch=1 n=13 v=0
8041516 Off ch=1 n=2 v=0
8041589 On ch=1 n=13 v=100
8041654 On ch=1 n=2 v=100
8041659 Off ch=1 n=13 v=0
8041693 Off ch=1 n=2 v=0
8041766 On ch=1 n=17 v=100
8041831 On ch=1 n=2 v=100
8041836 Off ch=1 n=17 v=0
8041870 Off ch=1 n=2 v=0
8041963 On ch=1 n=0 v=100
8047722 Off ch=1 n=0 v=0
8048926 On ch=1 n=7 v=100
8049185 Off ch=1 n=7 v=0
8049196 On ch=1 n=10 v=100
8049294 On ch=1 n=8 v=100
8049375 Off ch=1 n=10 v=0
8049814 Off ch=1 n=8 v=0
8049826 On ch=1 n=12 v=100
8049940 On ch=1 n=11 v=100
8050011 Off ch=1 n=12 v=0
8050455 Off ch=1 n=11 v=0
8050465 On ch=1 n=9 v=100
8050668 Off ch=1 n=9 v=0
8050680 On ch=1 n=11 v=100
8050857 On ch=1 n=8 v=100
8050868 Off ch=1 n=11 v=0
8051299 Off ch=1 n=8 v=0
8051311 On ch=1 n=9 v=100
8051471 On ch=1 n=8 v=100
8051489 Off ch=1 n=9 v=0
8051928 Off ch=1 n=8 v=0
8051938 On ch=1 n=12 v=100
8052052 On ch=1 n=12 v=100
8052123 Off ch=1 n=12 v=0
8052567 Off ch=1 n=12 v=0
8052578 On ch=1 n=10 v=100
8052750 On ch=1 n=7 v=100
8052766 Off ch=1 n=10 v=0
8053197 Off ch=1 n=7 v=0
8053209 On ch=1 n=9 v=100
8053414 Off ch=1 n=9 v=0
8053426 On ch=1 n=10 v=100
8053606 On ch=1 n=7 v=100
8053621 Off ch=1 n=10 v=0
8054045 Off ch=1 n=7 v=0
8054057 On ch=1 n=10 v=100
8054233 Off ch=1 n=10 v=0
8054234 On ch=1 n=7 v=100
8054535 Off ch=1 n=7 v=0
8056248 On ch=1 n=5 v=100
8056397 Off ch=1 n=5 v=0
8056408 On ch=1 n=12 v=100
8056530 On ch=1 n=10 v=100
8056613 Off ch=1 n=12 v=0
8057020 Off ch=1 n=10 v=0
8057034 On ch=1 n=9 v=100
8057080 Off ch=1 n=9 v=0
8057082 On ch=1 n=10 v=100
8057219 Off ch=1 n=10 v=0
8060387 On ch=1 n=7 v=100
8060486 Off ch=1 n=7 v=0
8060583 On ch=1 n=3 v=100
8060764 Off ch=1 n=3 v=0
8074696 On ch=1 n=3 v=100
8074864 Off ch=1 n=3 v=0
8074976 On ch=1 n=3 v=100
8075143 Off ch=1 n=3 v=0
8076089 On ch=1 n=4 v=100
8076257 Off ch=1 n=4 v=0
8081001 On ch=1 n=2 v=100
8081958 Off ch=1 n=2 v=0
8106331 On ch=1 n=6 v=100
8106763 Off ch=1 n=6 v=0
8112747 On ch=1 n=4 v=100
8114819 Off ch=1 n=4 v=0
8114936 On ch=1 n=0 v=100
8119703 On ch=1 n=46 v=100
8120283 On ch=1 n=0 v=100
8120283 Off ch=1 n=0 v=0
8120647 Off ch=1 n=46 v=0
8120647 Off ch=1 n=0 v=0
8139451 On ch=1 n=38 v=100
8139488 On ch=1 n=4 v=100
8139737 Off ch=1 n=38 v=0
8139737 Off ch=1 n=4 v=0
8151327 On ch=1 n=1 v=100
8152904 Off ch=1 n=1 v=0
8153872 On ch=1 n=21 v=100
8153938 Off ch=1 n=21 v=0
8154275 On ch=1 n=10 v=100
8154482 Off ch=1 n=10 v=0
8160976 On ch=1 n=26 v=100
8161037 Off ch=1 n=26 v=0
8161328 On ch=1 n=34 v=100
8161410 Off ch=1 n=34 v=0
8161677 On ch=1 n=10 v=100
8161785 Off ch=1 n=10 v=0
8162010 On ch=1 n=14 v=100
8162104 Off ch=1 n=14 v=0
8165584 On ch=1 n=37 v=100
8165779 Off ch=1 n=37 v=0
8165868 On ch=1 n=13 v=100
8165976 Off ch=1 n=13 v=0
8169289 On ch=1 n=7 v=100
8169338 Off ch=1 n=7 v=0
8176405 On ch=1 n=8 v=100
8176470 Off ch=1 n=8 v=0
8182281 On ch=1 n=14 v=100
8183166 Off ch=1 n=14 v=0
8185818 On ch=1 n=29 v=100
8185885 Off ch=1 n=29 v=0
8186664 On ch=1 n=1 v=100
8188103 Off ch=1 n=1 v=0
8213064 On ch=1 n=10 v=100
8213337 Off ch=1 n=10 v=0
8220039 On ch=1 n=25 v=100
8220101 Off ch=1 n=25 v=0
8221817 On ch=1 n=8 v=100
8221896 On ch=1 n=32 v=100
8221897 Off ch=1 n=8 v=0
8222006 Off ch=1 n=32 v=0
8226574 On ch=1 n=13 v=100
8226681 Off ch=1 n=13 v=0
8227244 On ch=1 n=14 v=100
8227433 Off ch=1 n=14 v=0
8227664 On ch=1 n=7 v=100
8227719 Off ch=1 n=7 v=0
8228006 On ch=1 n=17 v=100
8228062 Off ch=1 n=17 v=0
8234498 On ch=1 n=2 v=100
8234538 Off ch=1 n=2 v=0
8237366 On ch=1 n=11 v=100
8237437 Off ch=1 n=11 v=0
8238248 On ch=1 n=17 v=100
8238314 Off ch=1 n=17 v=0
8238357 On ch=1 n=6 v=100
8238438 Off ch=1 n=6 v=0
8242083 On ch=1 n=8 v=100
8242327 On ch=1 n=42 v=100
8242328 Off ch=1 n=8 v=0
8243255 Off ch=1 n=42 v=0
8276081 On ch=1 n=7 v=100
8276334 Off ch=1 n=7 v=0
8277103 On ch=1 n=6 v=100
8277363 Off ch=1 n=6 v=0
8277875 On ch=1 n=32 v=100
8277967 Off ch=1 n=32 v=0
8278134 On ch=1 n=7 v=100
8278388 Off ch=1 n=7 v=0
8278831 On ch=1 n=11 v=100
8278978 Off ch=1 n=11 v=0
8279304 On ch=1 n=29 v=100
8279393 Off ch=1 n=29 v=0
8279564 On ch=1 n=6 v=100
8279823 Off ch=1 n=6 v=0
8284848 On ch=1 n=53 v=100
8284970 Off ch=1 n=53 v=0
8285829 On ch=1 n=62 v=100
8285983 Off ch=1 n=62 v=0
8287059 On ch=1 n=36 v=100
8287116 Off ch=1 n=36 v=0
8299680 On ch=1 n=1 v=100
8299835 Off ch=1 n=1 v=0
8299874 On ch=1 n=1 v=100
8302885 Off ch=1 n=1 v=0
8303048 On ch=1 n=5 v=100
8303111 Off ch=1 n=5 v=0
8304284 On ch=1 n=2 v=100
8306887 Off ch=1 n=2 v=0
8308325 On ch=1 n=5 v=100
8308438 Off ch=1 n=5 v=0
8318304 On ch=1 n=8 v=100
8318384 On ch=1 n=9 v=100
8318396 Off ch=1 n=8 v=0
8318398 Off ch=1 n=9 v=0
8318437 On ch=1 n=9 v=100
8318645 Off ch=1 n=9 v=0
8318652 On ch=1 n=17 v=100
8318731 On ch=1 n=35 v=100
8318737 Off ch=1 n=17 v=0
8318841 Off ch=1 n=35 v=0
8321751 On ch=1 n=10 v=100
8321961 On ch=1 n=9 v=100
8321987 Off ch=1 n=10 v=0
8322085 Off ch=1 n=9 v=0
8323563 On ch=1 n=42 v=100
8323570 On ch=1 n=47 v=100
8323706 Off ch=1 n=42 v=0
8323750 Off ch=1 n=47 v=0
8324380 On ch=1 n=58 v=100
8326171 Off ch=1 n=58 v=0
8332921 On ch=1 n=17 v=100
8333002 Off ch=1 n=17 v=0
8341484 On ch=1 n=18 v=100
8341779 Off ch=1 n=18 v=0
8355480 On ch=1 n=36 v=100
8355556 On ch=1 n=30 v=100
8355569 On ch=1 n=31 v=100
8355576 On ch=1 n=25 v=100
8355639 Off ch=1 n=36 v=0
8355647 Off ch=1 n=25 v=0
8355649 Off ch=1 n=31 v=0
8355664 Off ch=1 n=30 v=0
8359408 On ch=1 n=35 v=100
8359484 On ch=1 n=30 v=100
8359496 On ch=1 n=24 v=100
8359567 Off ch=1 n=35 v=0
8359575 Off ch=1 n=24 v=0
8359592 Off ch=1 n=30 v=0
8363336 On ch=1 n=35 v=100
8363412 On ch=1 n=30 v=100
8363424 On ch=1 n=24 v=100
8363495 Off ch=1 n=35 v=0
8363503 Off ch=1 n=24 v=0
8363520 Off ch=1 n=30 v=0
8366965 On ch=1 n=35 v=100
8367042 On ch=1 n=26 v=100
8367061 On ch=1 n=26 v=100
8367124 Off ch=1 n=35 v=0
8367134 Off ch=1 n=26 v=0
8367134 Off ch=1 n=26 v=0
8391682 On ch=1 n=25 v=100
8391693 On ch=1 n=29 v=100
8391771 Off ch=1 n=25 v=0
8391795 On ch=1 n=12 v=100
8391810 Off ch=1 n=29 v=0
8391979 Off ch=1 n=12 v=0
8392064 On ch=1 n=0 v=100
8395672 Off ch=1 n=0 v=0
8395755 On ch=1 n=5 v=100
8395789 On ch=1 n=13 v=100
8395794 Off ch=1 n=5 v=0
8395859 Off ch=1 n=13 v=0
8395932 On ch=1 n=4 v=100
8395970 On ch=1 n=10 v=100
8395973 Off ch=1 n=4 v=0
8396029 Off ch=1 n=10 v=0
8396109 On ch=1 n=2 v=100
8396147 On ch=1 n=14 v=100
8396150 Off ch=1 n=2 v=0
8396213 Off ch=1 n=14 v=0
8396286 On ch=1 n=4 v=100
8396324 On ch=1 n=12 v=100
8396327 Off ch=1 n=4 v=0
8396390 Off ch=1 n=12 v=0
8396463 On ch=1 n=2 v=100
8396501 On ch=1 n=12 v=100
8396504 Off ch=1 n=2 v=0
8396567 Off ch=1 n=12 v=0
8396640 On ch=1 n=2 v=100
8396678 On ch=1 n=12 v=100
8396681 Off ch=1 n=2 v=0
8396744 Off ch=1 n=12 v=0
8396817 On ch=1 n=2 v=100
8396855 On ch=1 n=12 v=100
8396858 Off ch=1 n=2 v=0
8396921 Off ch=1 n=12 v=0
8396994 On ch=1 n=2 v=100
8397032 On ch=1 n=14 v=100
8397035 Off ch=1 n=2 v=0
8397098 Off ch=1 n=14 v=0
8397171 On ch=1 n=4 v=100
8397209 On ch=1 n=12 v=100
8397212 Off ch=1 n=4 v=0
8397275 Off ch=1 n=12 v=0
8397348 On ch=1 n=2 v=100
8397386 On ch=1 n=12 v=100
8397389 Off ch=1 n=2 v=0
8397452 Off ch=1 n=12 v=0
8397525 On ch=1 n=2 v=100
8397563 On ch=1 n=14 v=100
8397566 Off ch=1 n=2 v=0
8397626 On ch=1 n=12 v=100
8397628 Off ch=1 n=14 v=0
8397652 On ch=1 n=11 v=100
8397660 Off ch=1 n=12 v=0
8397716 Off ch=1 n=11 v=0
8397796 On ch=1 n=2 v=100
8397834 On ch=1 n=12 v=100
8397837 Off ch=1 n=2 v=0
8397900 Off ch=1 n=12 v=0
8397973 On ch=1 n=2 v=100
8398011 On ch=1 n=12 v=100
8398014 Off ch=1 n=2 v=0
8398077 Off ch=1 n=12 v=0
8398150 On ch=1 n=2 v=100
8398188 On ch=1 n=12 v=100
8398191 Off ch=1 n=2 v=0
8398254 Off ch=1 n=12 v=0
8398327 On ch=1 n=2 v=100
8398365 On ch=1 n=12 v=100
8398368 Off ch=1 n=2 v=0
8398431 Off ch=1 n=12 v=0
8398504 On ch=1 n=2 v=100
8398542 On ch=1 n=12 v=100
8398545 Off ch=1 n=2 v=0
8398608 Off ch=1 n=12 v=0
8398681 On ch=1 n=2 v=100
8398719 On ch=1 n=12 v=100
8398722 Off ch=1 n=2 v=0
8398785 Off ch=1 n=12 v=0
8398858 On ch=1 n=2 v=100
8398896 On ch=1 n=12 v=100
8398899 Off ch=1 n=2 v=0
8398962 Off ch=1 n=12 v=0
8398992 On ch=1 n=18 v=100
8399026 Off ch=1 n=18 v=0
8399099 On ch=1 n=2 v=100
8399137 On ch=1 n=12 v=100
8399140 Off ch=1 n=2 v=0
8399203 Off ch=1 n=12 v=0
8399276 On ch=1 n=2 v=100
8399314 On ch=1 n=14 v=100
8399317 Off ch=1 n=2 v=0
8399380 Off ch=1 n=14 v=0
8399453 On ch=1 n=7 v=100
8399490 On ch=1 n=14 v=100
8399494 Off ch=1 n=7 v=0
8399557 Off ch=1 n=14 v=0
8399624 On ch=1 n=2 v=100
8399966 Off ch=1 n=2 v=0
8400048 On ch=1 n=5 v=100
8400082 On ch=1 n=13 v=100
8400087 Off ch=1 n=5 v=0
8400152 Off ch=1 n=13 v=0
8400225 On ch=1 n=4 v=100
8400263 On ch=1 n=10 v=100
8400266 Off ch=1 n=4 v=0
8400322 Off ch=1 n=10 v=0
8400402 On ch=1 n=2 v=100
8400440 On ch=1 n=12 v=100
8400443 Off ch=1 n=2 v=0
8400506 Off ch=1 n=12 v=0
8400579 On ch=1 n=2 v=100
8400617 On ch=1 n=12 v=100
8400620 Off ch=1 n=2 v=0
8400683 Off ch=1 n=12 v=0
8400756 On ch=1 n=4 v=100
8400790 On ch=1 n=13 v=100
8400797 Off ch=1 n=4 v=0
8400860 Off ch=1 n=13 v=0
8400933 On ch=1 n=5 v=100
8400967 On ch=1 n=13 v=100
8400972 Off ch=1 n=5 v=0
8401037 Off ch=1 n=13 v=0
8401110 On ch=1 n=2 v=100
8401148 On ch=1 n=14 v=100
8401151 Off ch=1 n=2 v=0
8401214 Off ch=1 n=14 v=0
8401288 On ch=1 n=15 v=100
8401359 Off ch=1 n=15 v=0
8401432 On ch=1 n=2 v=100
8401470 On ch=1 n=14 v=100
8401473 Off ch=1 n=2 v=0
8401536 Off ch=1 n=14 v=0
8401609 On ch=1 n=4 v=100
8401647 On ch=1 n=12 v=100
8401650 Off ch=1 n=4 v=0
8401713 Off ch=1 n=12 v=0
8401786 On ch=1 n=2 v=100
8401824 On ch=1 n=12 v=100
8401827 Off ch=1 n=2 v=0
8401890 Off ch=1 n=12 v=0
8401963 On ch=1 n=2 v=100
8402001 On ch=1 n=12 v=100
8402004 Off ch=1 n=2 v=0
8402067 Off ch=1 n=12 v=0
8402140 On ch=1 n=2 v=100
8402178 On ch=1 n=12 v=100
8402181 Off ch=1 n=2 v=0
8402244 Off ch=1 n=12 v=0
8402317 On ch=1 n=2 v=100
8402355 On ch=1 n=12 v=100
8402358 Off ch=1 n=2 v=0
8402421 Off ch=1 n=12 v=0
8402494 On ch=1 n=2 v=100
8402532 On ch=1 n=14 v=100
8402535 Off ch=1 n=2 v=0
8402598 Off ch=1 n=14 v=0
8402671 On ch=1 n=2 v=100
8402709 On ch=1 n=12 v=100
8402712 Off ch=1 n=2 v=0
8402775 Off ch=1 n=12 v=0
8402848 On ch=1 n=2 v=100
8402886 On ch=1 n=12 v=100
8402889 Off ch=1 n=2 v=0
8402952 Off ch=1 n=12 v=0
8403025 On ch=1 n=2 v=100
8403063 On ch=1 n=12 v=100
8403066 Off ch=1 n=2 v=0
8403129 Off ch=1 n=12 v=0
8403202 On ch=1 n=2 v=100
8403240 On ch=1 n=14 v=100
8403243 Off ch=1 n=2 v=0
8403306 Off ch=1 n=14 v=0
8403379 On ch=1 n=2 v=100
8403417 On ch=1 n=14 v=100
8403420 Off ch=1 n=2 v=0
8403483 Off ch=1 n=14 v=0
8403556 On ch=1 n=2 v=100
8403594 On ch=1 n=12 v=100
8403597 Off ch=1 n=2 v=0
8403660 Off ch=1 n=12 v=0
8403733 On ch=1 n=2 v=100
8403771 On ch=1 n=12 v=100
8403774 Off ch=1 n=2 v=0
8403837 Off ch=1 n=12 v=0
8403910 On ch=1 n=2 v=100
8403948 On ch=1 n=12 v=100
8403951 Off ch=1 n=2 v=0
8404014 Off ch=1 n=12 v=0
8404087 On ch=1 n=2 v=100
8404125 On ch=1 n=14 v=100
8404128 Off ch=1 n=2 v=0
8404191 Off ch=1 n=14 v=0
8404264 On ch=1 n=2 v=100
8404302 On ch=1 n=12 v=100
8404305 Off ch=1 n=2 v=0
8404368 Off ch=1 n=12 v=0
8404441 On ch=1 n=2 v=100
8404479 On ch=1 n=12 v=100
8404482 Off ch=1 n=2 v=0
8404545 Off ch=1 n=12 v=0
8404618 On ch=1 n=2 v=100
8404659 Off ch=1 n=2 v=0
8404683 On ch=1 n=2 v=100
8404721 On ch=1 n=12 v=100
8404724 Off ch=1 n=2 v=0
8404787 Off ch=1 n=12 v=0
8404860 On ch=1 n=2 v=100
8404898 On ch=1 n=12 v=100
8404901 Off ch=1 n=2 v=0
8404964 Off ch=1 n=12 v=0
8405037 On ch=1 n=2 v=100
8405075 On ch=1 n=12 v=100
8405078 Off ch=1 n=2 v=0
8405141 Off ch=1 n=12 v=0
8405214 On ch=1 n=2 v=100
8405252 On ch=1 n=14 v=100
8405255 Off ch=1 n=2 v=0
8405318 Off ch=1 n=14 v=0
8405391 On ch=1 n=5 v=100
8405425 On ch=1 n=13 v=100
8405430 Off ch=1 n=5 v=0
8405495 Off ch=1 n=13 v=0
8405568 On ch=1 n=2 v=100
8405606 On ch=1 n=12 v=100
8405609 Off ch=1 n=2 v=0
8405672 Off ch=1 n=12 v=0
8405745 On ch=1 n=2 v=100
8405783 On ch=1 n=14 v=100
8405786 Off ch=1 n=2 v=0
8405849 Off ch=1 n=14 v=0
8405922 On ch=1 n=4 v=100
8405960 On ch=1 n=12 v=100
8405963 Off ch=1 n=4 v=0
8406026 Off ch=1 n=12 v=0
8406099 On ch=1 n=2 v=100
8406137 On ch=1 n=12 v=100
8406140 Off ch=1 n=2 v=0
8406203 Off ch=1 n=12 v=0
8406218 On ch=1 n=2 v=100
8406256 On ch=1 n=12 v=100
8406259 Off ch=1 n=2 v=0
8406322 Off ch=1 n=12 v=0
8406395 On ch=1 n=2 v=100
8406433 On ch=1 n=12 v=100
8406436 Off ch=1 n=2 v=0
8406499 Off ch=1 n=12 v=0
8406572 On ch=1 n=2 v=100
8406610 On ch=1 n=14 v=100
8406613 Off ch=1 n=2 v=0
8406676 Off ch=1 n=14 v=0
8406749 On ch=1 n=7 v=100
8406786 On ch=1 n=14 v=100
8406790 Off ch=1 n=7 v=0
8406853 Off ch=1 n=14 v=0
8406926 On ch=1 n=2 v=100
8406964 On ch=1 n=12 v=100
8406967 Off ch=1 n=2 v=0
8407030 Off ch=1 n=12 v=0
8407103 On ch=1 n=2 v=100
8407141 On ch=1 n=12 v=100
8407144 Off ch=1 n=2 v=0
8407207 Off ch=1 n=12 v=0
8407280 On ch=1 n=2 v=100
8407318 On ch=1 n=12 v=100
8407321 Off ch=1 n=2 v=0
8407384 Off ch=1 n=12 v=0
8407457 On ch=1 n=2 v=100
8407495 On ch=1 n=14 v=100
8407498 Off ch=1 n=2 v=0
8407561 Off ch=1 n=14 v=0
8407634 On ch=1 n=4 v=100
8407672 On ch=1 n=12 v=100
8407675 Off ch=1 n=4 v=0
8407738 Off ch=1 n=12 v=0
8407811 On ch=1 n=2 v=100
8407849 On ch=1 n=12 v=100
8407852 Off ch=1 n=2 v=0
8407915 Off ch=1 n=12 v=0
8407988 On ch=1 n=2 v=100
8408026 On ch=1 n=12 v=100
8408029 Off ch=1 n=2 v=0
8408092 Off ch=1 n=12 v=0
8408165 On ch=1 n=2 v=100
8408203 On ch=1 n=12 v=100
8408206 Off ch=1 n=2 v=0
8408269 Off ch=1 n=12 v=0
8408342 On ch=1 n=2 v=100
8408380 On ch=1 n=12 v=100
8408383 Off ch=1 n=2 v=0
8408446 Off ch=1 n=12 v=0
8408519 On ch=1 n=2 v=100
8408557 On ch=1 n=12 v=100
8408560 Off ch=1 n=2 v=0
8408623 Off ch=1 n=12 v=0
8408696 On ch=1 n=2 v=100
8408734 On ch=1 n=12 v=100
8408737 Off ch=1 n=2 v=0
8408800 Off ch=1 n=12 v=0
8408873 On ch=1 n=4 v=100
8408911 On ch=1 n=12 v=100
8408914 Off ch=1 n=4 v=0
8408977 Off ch=1 n=12 v=0
8409050 On ch=1 n=2 v=100
8409088 On ch=1 n=12 v=100
8409091 Off ch=1 n=2 v=0
8409154 Off ch=1 n=12 v=0
8409227 On ch=1 n=2 v=100
8409261 On ch=1 n=15 v=100
8409268 Off ch=1 n=2 v=0
8409331 Off ch=1 n=15 v=0
8409473 On ch=1 n=2 v=100
8409511 On ch=1 n=12 v=100
8409514 Off ch=1 n=2 v=0
8409577 Off ch=1 n=12 v=0
8409650 On ch=1 n=2 v=100
8409688 On ch=1 n=12 v=100
8409691 Off ch=1 n=2 v=0
8409754 Off ch=1 n=12 v=0
8409827 On ch=1 n=2 v=100
8409865 On ch=1 n=12 v=100
8409868 Off ch=1 n=2 v=0
8409931 Off ch=1 n=12 v=0
8410004 On ch=1 n=2 v=100
8410042 On ch=1 n=12 v=100
8410045 Off ch=1 n=2 v=0
8410108 Off ch=1 n=12 v=0
8410181 On ch=1 n=2 v=100
8410219 On ch=1 n=12 v=100
8410222 Off ch=1 n=2 v=0
8410285 Off ch=1 n=12 v=0
8410358 On ch=1 n=2 v=100
8410396 On ch=1 n=12 v=100
8410399 Off ch=1 n=2 v=0
8410462 Off ch=1 n=12 v=0
8410535 On ch=1 n=2 v=100
8410573 On ch=1 n=14 v=100
8410576 Off ch=1 n=2 v=0
8410639 Off ch=1 n=14 v=0
8410712 On ch=1 n=4 v=100
8410750 On ch=1 n=12 v=100
8410753 Off ch=1 n=4 v=0
8410816 Off ch=1 n=12 v=0
8410889 On ch=1 n=2 v=100
8410927 On ch=1 n=12 v=100
8410930 Off ch=1 n=2 v=0
8410993 Off ch=1 n=12 v=0
8411066 On ch=1 n=1 v=100
8411236 Off ch=1 n=1 v=0
8411568 On ch=1 n=9 v=100
8412159 Off ch=1 n=9 v=0
8436824 On ch=1 n=12 v=100
8436955 Off ch=1 n=12 v=0
8440662 On ch=1 n=38 v=100
8440741 Off ch=1 n=38 v=0
8440993 On ch=1 n=9 v=100
8441103 Off ch=1 n=9 v=0
8441831 On ch=1 n=18 v=100
8441930 Off ch=1 n=18 v=0
8441936 On ch=1 n=12 v=100
8442177 On ch=1 n=16 v=100
8442195 Off ch=1 n=12 v=0
8442291 Off ch=1 n=16 v=0
8442940 On ch=1 n=40 v=100
8443024 Off ch=1 n=40 v=0
8447136 On ch=1 n=11 v=100
8447240 Off ch=1 n=11 v=0
8503217 On ch=1 n=0 v=100
8504193 Off ch=1 n=0 v=0
8504760 On ch=1 n=59 v=100
8505739 Off ch=1 n=59 v=0
8506130 On ch=1 n=38 v=100
8506539 Off ch=1 n=38 v=0
8507280 On ch=1 n=49 v=100
8508613 Off ch=1 n=49 v=0
8508661 On ch=1 n=58 v=100
8508995 Off ch=1 n=58 v=0
8509809 On ch=1 n=34 v=100
8509900 Off ch=1 n=34 v=0
8510315 On ch=1 n=9 v=100
8513671 On ch=1 n=33 v=100
8513673 Off ch=1 n=9 v=0
8514601 Off ch=1 n=33 v=0
8536888 On ch=1 n=4 v=100
8536963 Off ch=1 n=4 v=0
8537143 On ch=1 n=60 v=100
8537371 Off ch=1 n=60 v=0
8541282 On ch=1 n=10 v=100
8541294 On ch=1 n=5 v=100
8541300 On ch=1 n=39 v=100
8541355 Off ch=1 n=10 v=0
8541460 Off ch=1 n=5 v=0
8541520 Off ch=1 n=39 v=0
8546375 On ch=1 n=1 v=100
8549453 Off ch=1 n=1 v=0
8555146 On ch=1 n=17 v=100
8555183 Off ch=1 n=17 v=0
8562680 On ch=1 n=2 v=100
8563723 Off ch=1 n=2 v=0
8604234 On ch=1 n=3 v=100
8604599 Off ch=1 n=3 v=0
8606250 On ch=1 n=2 v=100
8606697 On ch=1 n=1 v=100
8606705 Off ch=1 n=2 v=0
8607235 Off ch=1 n=1 v=0
8609854 On ch=1 n=28 v=100
8610079 Off ch=1 n=28 v=0
8610157 On ch=1 n=7 v=100
8611171 Off ch=1 n=7 v=0
8611529 On ch=1 n=10 v=100
8611745 Off ch=1 n=10 v=0
8611805 On ch=1 n=19 v=100
8612006 Off ch=1 n=19 v=0
8612602 On ch=1 n=7 v=100
8612814 Off ch=1 n=7 v=0
8616325 On ch=1 n=13 v=100
8616470 Off ch=1 n=13 v=0
8619366 On ch=1 n=15 v=100
8619458 Off ch=1 n=15 v=0
8623709 On ch=1 n=7 v=100
8623933 Off ch=1 n=7 v=0
8645488 On ch=1 n=60 v=100
8645867 Off ch=1 n=60 v=0
8658947 On ch=1 n=2 v=100
8664720 Off ch=1 n=2 v=0
8664748 On ch=1 n=2 v=100
8664887 Off ch=1 n=2 v=0
8670504 On ch=1 n=3 v=100
8671326 Off ch=1 n=3 v=0
8679359 On ch=1 n=41 v=100
8679370 On ch=1 n=4 v=100
8679437 Off ch=1 n=41 v=0
8681574 Off ch=1 n=4 v=0
8681899 On ch=1 n=7 v=100
8682012 Off ch=1 n=7 v=0
8686285 On ch=1 n=32 v=100
8686367 Off ch=1 n=32 v=0
8686630 On ch=1 n=11 v=100
8686739 Off ch=1 n=11 v=0
8687513 On ch=1 n=6 v=100
8688188 Off ch=1 n=6 v=0
8693189 On ch=1 n=11 v=100
8693482 On ch=1 n=10 v=100
8693483 Off ch=1 n=11 v=0
8693553 Off ch=1 n=10 v=0
8694074 On ch=1 n=14 v=100
8694286 Off ch=1 n=14 v=0
8694521 On ch=1 n=11 v=100
8694634 Off ch=1 n=11 v=0
8695292 On ch=1 n=7 v=100
8695451 Off ch=1 n=7 v=0
8703313 On ch=1 n=12 v=100
8703369 Off ch=1 n=12 v=0
8703547 On ch=1 n=3 v=100
8704942 Off ch=1 n=3 v=0
8706225 On ch=1 n=0 v=100
8706385 Off ch=1 n=0 v=0
8819799 On ch=1 n=6 v=100
8820122 Off ch=1 n=6 v=0
8821191 On ch=1 n=8 v=100
8821241 Off ch=1 n=8 v=0
8821352 On ch=1 n=7 v=100
8821979 Off ch=1 n=7 v=0
8844217 On ch=1 n=1 v=100
8845680 Off ch=1 n=1 v=0
8846631 On ch=1 n=2 v=100
8847988 On ch=1 n=4 v=100
8847990 Off ch=1 n=2 v=0
8850074 Off ch=1 n=4 v=0
8851421 On ch=1 n=29 v=100
8851484 Off ch=1 n=29 v=0
8851904 On ch=1 n=35 v=100
8851906 On ch=1 n=60 v=100
8851955 Off ch=1 n=35 v=0
8852018 Off ch=1 n=60 v=0
8853094 On ch=1 n=58 v=100
8853210 Off ch=1 n=58 v=0
8862680 On ch=1 n=2 v=100
8864980 On ch=1 n=41 v=100
8865023 Off ch=1 n=2 v=0
8865024 On ch=1 n=8 v=100
8865304 Off ch=1 n=41 v=0
8865315 Off ch=1 n=8 v=0
8880977 On ch=1 n=10 v=100
8881115 On ch=1 n=13 v=100
8881115 Off ch=1 n=10 v=0
8881172 Off ch=1 n=13 v=0
8881183 On ch=1 n=9 v=100
8881589 On ch=1 n=11 v=100
8881672 Off ch=1 n=9 v=0
8881794 Off ch=1 n=11 v=0
8881806 On ch=1 n=6 v=100
8882217 On ch=1 n=13 v=100
8882230 Off ch=1 n=6 v=0
8882632 On ch=1 n=15 v=100
8882694 Off ch=1 n=13 v=0
8882828 Off ch=1 n=15 v=0
8882840 On ch=1 n=6 v=100
8883263 On ch=1 n=11 v=100
8883279 Off ch=1 n=6 v=0
8883458 Off ch=1 n=11 v=0
8883469 On ch=1 n=12 v=100
8883675 Off ch=1 n=12 v=0
8883688 On ch=1 n=6 v=100
8884111 On ch=1 n=11 v=100
8884127 Off ch=1 n=6 v=0
8884306 Off ch=1 n=11 v=0
8884318 On ch=1 n=8 v=100
8884523 Off ch=1 n=8 v=0
8884536 On ch=1 n=6 v=100
8884974 On ch=1 n=11 v=100
8884981 Off ch=1 n=6 v=0
8885156 Off ch=1 n=11 v=0
8885167 On ch=1 n=13 v=100
8885596 On ch=1 n=14 v=100
8885666 Off ch=1 n=13 v=0
8885795 Off ch=1 n=14 v=0
8885805 On ch=1 n=7 v=100
8886229 On ch=1 n=11 v=100
8886246 Off ch=1 n=7 v=0
8886424 Off ch=1 n=11 v=0
8886436 On ch=1 n=9 v=100
8886641 Off ch=1 n=9 v=0
8886653 On ch=1 n=9 v=100
8887083 On ch=1 n=10 v=100
8887125 Off ch=1 n=9 v=0
8887270 Off ch=1 n=10 v=0
8887282 On ch=1 n=11 v=100
8887723 On ch=1 n=11 v=100
8887815 Off ch=1 n=11 v=0
8887906 Off ch=1 n=11 v=0
8887918 On ch=1 n=6 v=100
8888176 Off ch=1 n=6 v=0
8890412 On ch=1 n=26 v=100
8890626 On ch=1 n=5 v=100
8891876 Off ch=1 n=26 v=0
8896174 Off ch=1 n=5 v=0
8896263 On ch=1 n=2 v=100
8896435 Off ch=1 n=2 v=0
8896573 On ch=1 n=2 v=100
8896611 On ch=1 n=14 v=100
8896614 Off ch=1 n=2 v=0
8896677 Off ch=1 n=14 v=0
8896750 On ch=1 n=2 v=100
8896922 Off ch=1 n=2 v=0
8897050 On ch=1 n=2 v=100
8897088 On ch=1 n=12 v=100
8897091 Off ch=1 n=2 v=0
8897154 Off ch=1 n=12 v=0
8897227 On ch=1 n=2 v=100
8897265 On ch=1 n=12 v=100
8897268 Off ch=1 n=2 v=0
8897331 Off ch=1 n=12 v=0
8897404 On ch=1 n=1 v=100
8897564 Off ch=1 n=1 v=0
8897892 On ch=1 n=9 v=100
8898477 Off ch=1 n=9 v=0
8924510 On ch=1 n=6 v=100
8924622 Off ch=1 n=6 v=0
8928905 On ch=1 n=37 v=100
8928986 Off ch=1 n=37 v=0
8929248 On ch=1 n=8 v=100
8929356 Off ch=1 n=8 v=0
8930119 On ch=1 n=5 v=100
8930989 On ch=1 n=11 v=100
8930990 Off ch=1 n=5 v=0
8931069 Off ch=1 n=11 v=0
8931589 On ch=1 n=11 v=100
8931803 Off ch=1 n=11 v=0
8932041 On ch=1 n=10 v=100
8932157 Off ch=1 n=10 v=0
8932767 On ch=1 n=8 v=100
8932929 Off ch=1 n=8 v=0
8938121 On ch=1 n=9 v=100
8938166 Off ch=1 n=9 v=0
8940718 On ch=1 n=12 v=100
8940932 Off ch=1 n=12 v=0
8941238 On ch=1 n=15 v=100
8941298 Off ch=1 n=15 v=0
8942544 On ch=1 n=50 v=100
8942562 On ch=1 n=46 v=100
8942682 Off ch=1 n=46 v=0
8942692 Off ch=1 n=50 v=0
8963495 On ch=1 n=34 v=100
8963662 Off ch=1 n=34 v=0
8981860 On ch=1 n=1 v=100
8983323 Off ch=1 n=1 v=0
8984274 On ch=1 n=2 v=100
8985631 On ch=1 n=4 v=100
8985633 Off ch=1 n=2 v=0
8987717 Off ch=1 n=4 v=0
8989064 On ch=1 n=29 v=100
8989127 Off ch=1 n=29 v=0
8989547 On ch=1 n=35 v=100
8989549 On ch=1 n=60 v=100
8989598 Off ch=1 n=35 v=0
8989661 Off ch=1 n=60 v=0
8990737 On ch=1 n=58 v=100
8990853 Off ch=1 n=58 v=0
9000323 On ch=1 n=2 v=100
9002623 On ch=1 n=41 v=100
9002666 Off ch=1 n=2 v=0
9002667 On ch=1 n=8 v=100
9002947 Off ch=1 n=41 v=0
9002958 Off ch=1 n=8 v=0
9018645 On ch=1 n=10 v=100
9018783 On ch=1 n=13 v=100
9018783 Off ch=1 n=10 v=0
9018840 Off ch=1 n=13 v=0
9018852 On ch=1 n=9 v=100
9019257 On ch=1 n=11 v=100
9019342 Off ch=1 n=9 v=0
9019462 Off ch=1 n=11 v=0
9019474 On ch=1 n=6 v=100
9019897 On ch=1 n=13 v=100
9019898 Off ch=1 n=6 v=0
9020311 On ch=1 n=12 v=100
9020363 Off ch=1 n=13 v=0
9020496 Off ch=1 n=12 v=0
9020508 On ch=1 n=6 v=100
9020931 On ch=1 n=11 v=100
9020947 Off ch=1 n=6 v=0
9021126 Off ch=1 n=11 v=0
9021138 On ch=1 n=11 v=100
9021343 Off ch=1 n=11 v=0
9021356 On ch=1 n=7 v=100
9021779 On ch=1 n=12 v=100
9021795 Off ch=1 n=7 v=0
9021974 Off ch=1 n=12 v=0
9021986 On ch=1 n=9 v=100
9022191 Off ch=1 n=9 v=0
9022204 On ch=1 n=6 v=100
9022641 On ch=1 n=11 v=100
9022648 Off ch=1 n=6 v=0
9022821 Off ch=1 n=11 v=0
9022832 On ch=1 n=13 v=100
9023275 On ch=1 n=12 v=100
9023342 Off ch=1 n=13 v=0
9023460 Off ch=1 n=12 v=0
9023470 On ch=1 n=7 v=100
9023894 On ch=1 n=11 v=100
9023910 Off ch=1 n=7 v=0
9024089 Off ch=1 n=11 v=0
9024101 On ch=1 n=9 v=100
9024306 Off ch=1 n=9 v=0
9024317 On ch=1 n=9 v=100
9024740 On ch=1 n=10 v=100
9024835 Off ch=1 n=9 v=0
9024935 Off ch=1 n=10 v=0
9024947 On ch=1 n=13 v=100
9025388 On ch=1 n=13 v=100
9025474 Off ch=1 n=13 v=0
9025571 Off ch=1 n=13 v=0
9025583 On ch=1 n=6 v=100
9025841 Off ch=1 n=6 v=0
9028077 On ch=1 n=26 v=100
9028291 On ch=1 n=10 v=100
9029541 Off ch=1 n=26 v=0
9030887 Off ch=1 n=10 v=0
9072623 On ch=1 n=30 v=100
9072823 Off ch=1 n=30 v=0
9081780 On ch=1 n=3 v=100
9084481 Off ch=1 n=3 v=0
9084524 On ch=1 n=18 v=100
9085077 Off ch=1 n=18 v=0
9085081 On ch=1 n=34 v=100
9085292 On ch=1 n=5 v=100
9085814 On ch=1 n=7 v=100
9085814 Off ch=1 n=34 v=0
9085821 Off ch=1 n=5 v=0
9086013 Off ch=1 n=7 v=0
9089327 On ch=1 n=16 v=100
9089509 Off ch=1 n=16 v=0
9105048 On ch=1 n=4 v=100
9106722 Off ch=1 n=4 v=0
9106922 On ch=1 n=2 v=100
9116504 Off ch=1 n=2 v=0
9116676 On ch=1 n=28 v=100
9116760 Off ch=1 n=28 v=0
9117276 On ch=1 n=11 v=100
9117533 Off ch=1 n=11 v=0
9117769 On ch=1 n=3 v=100
9119841 Off ch=1 n=3 v=0
9120863 On ch=1 n=4 v=100
9120888 On ch=1 n=14 v=100
9121912 Off ch=1 n=4 v=0
9122084 Off ch=1 n=14 v=0
9122099 On ch=1 n=13 v=100
9122109 On ch=1 n=8 v=100
9122185 Off ch=1 n=13 v=0
9122186 Off ch=1 n=8 v=0
9127491 On ch=1 n=16 v=100
9127863 Off ch=1 n=16 v=0
9129239 On ch=1 n=13 v=100
9129773 Off ch=1 n=13 v=0
9129775 On ch=1 n=3 v=100
9130166 Off ch=1 n=3 v=0
9130171 On ch=1 n=6 v=100
9130370 Off ch=1 n=6 v=0
9133012 On ch=1 n=12 v=100
9133122 Off ch=1 n=12 v=0
9133204 On ch=1 n=38 v=100
9133376 Off ch=1 n=38 v=0
9136438 On ch=1 n=13 v=100
9136540 Off ch=1 n=13 v=0
9136766 On ch=1 n=11 v=100
9136882 Off ch=1 n=11 v=0
9139995 On ch=1 n=2 v=100
9140612 Off ch=1 n=2 v=0
9141403 On ch=1 n=2 v=100
9141747 Off ch=1 n=2 v=0
9144859 On ch=1 n=14 v=100
9145005 Off ch=1 n=14 v=0
9149782 On ch=1 n=52 v=100
9149821 On ch=1 n=5 v=100
9150064 Off ch=1 n=52 v=0
9150104 Off ch=1 n=5 v=0
9150857 On ch=1 n=21 v=100
9150976 Off ch=1 n=21 v=0
9151380 On ch=1 n=9 v=100
9152391 Off ch=1 n=9 v=0
9153291 On ch=1 n=19 v=100
9153492 Off ch=1 n=19 v=0
9153552 On ch=1 n=12 v=100
9153768 Off ch=1 n=12 v=0
9154127 On ch=1 n=9 v=100
9155137 Off ch=1 n=9 v=0
9164671 On ch=1 n=18 v=100
9164712 Off ch=1 n=18 v=0
9165155 On ch=1 n=12 v=100
9165320 Off ch=1 n=12 v=0
9176259 On ch=1 n=3 v=100
9176429 Off ch=1 n=3 v=0
9176540 On ch=1 n=2 v=100
9176705 Off ch=1 n=2 v=0
9176946 On ch=1 n=43 v=100
9177053 Off ch=1 n=43 v=0
9177392 On ch=1 n=3 v=100
9177562 Off ch=1 n=3 v=0
9177673 On ch=1 n=3 v=100
9177840 Off ch=1 n=3 v=0
9178081 On ch=1 n=40 v=100
9178185 Off ch=1 n=40 v=0
9178526 On ch=1 n=3 v=100
9178694 Off ch=1 n=3 v=0
9179380 On ch=1 n=3 v=100
9179550 Off ch=1 n=3 v=0
9179661 On ch=1 n=3 v=100
9179828 Off ch=1 n=3 v=0
9179939 On ch=1 n=3 v=100
9180106 Off ch=1 n=3 v=0
9180347 On ch=1 n=36 v=100
9180451 Off ch=1 n=36 v=0
9180792 On ch=1 n=2 v=100
9180960 Off ch=1 n=2 v=0
9181072 On ch=1 n=3 v=100
9181238 Off ch=1 n=3 v=0
9181478 On ch=1 n=38 v=100
9181564 Off ch=1 n=38 v=0
9181925 On ch=1 n=2 v=100
9182093 Off ch=1 n=2 v=0
9182205 On ch=1 n=2 v=100
9182371 Off ch=1 n=2 v=0
9182611 On ch=1 n=46 v=100
9182718 Off ch=1 n=46 v=0
9183058 On ch=1 n=3 v=100
9183227 Off ch=1 n=3 v=0
9183338 On ch=1 n=3 v=100
9183504 Off ch=1 n=3 v=0
9183745 On ch=1 n=34 v=100
9183851 Off ch=1 n=34 v=0
9184191 On ch=1 n=3 v=100
9184360 Off ch=1 n=3 v=0
9184471 On ch=1 n=3 v=100
9184637 Off ch=1 n=3 v=0
9184878 On ch=1 n=32 v=100
9184980 Off ch=1 n=32 v=0
9185324 On ch=1 n=3 v=100
9185493 Off ch=1 n=3 v=0
9185604 On ch=1 n=3 v=100
9185770 Off ch=1 n=3 v=0
9186011 On ch=1 n=34 v=100
9186117 Off ch=1 n=34 v=0
9186457 On ch=1 n=3 v=100
9186625 Off ch=1 n=3 v=0
9186737 On ch=1 n=3 v=100
9186904 Off ch=1 n=3 v=0
9187144 On ch=1 n=30 v=100
9187229 Off ch=1 n=30 v=0
9187589 On ch=1 n=8 v=100
9187744 Off ch=1 n=8 v=0
9209454 On ch=1 n=8 v=100
9209631 Off ch=1 n=8 v=0
9217781 On ch=1 n=11 v=100
9217872 Off ch=1 n=11 v=0
9219276 On ch=1 n=42 v=100
9219417 Off ch=1 n=42 v=0
9221857 On ch=1 n=12 v=100
9222175 Off ch=1 n=12 v=0
9225834 On ch=1 n=7 v=100
9226251 Off ch=1 n=7 v=0
9231773 On ch=1 n=36 v=100
9231848 Off ch=1 n=36 v=0
9232492 On ch=1 n=12 v=100
9232602 Off ch=1 n=12 v=0
9236177 On ch=1 n=9 v=100
9236234 Off ch=1 n=9 v=0
9236491 On ch=1 n=12 v=100
9236605 Off ch=1 n=12 v=0
9237292 On ch=1 n=28 v=100
9237367 Off ch=1 n=28 v=0
9239638 On ch=1 n=5 v=100
9240754 On ch=1 n=38 v=100
9240756 Off ch=1 n=5 v=0
9240857 Off ch=1 n=38 v=0
9243811 On ch=1 n=16 v=100
9244368 Off ch=1 n=16 v=0
9244486 On ch=1 n=15 v=100
9244859 On ch=1 n=10 v=100
9244864 Off ch=1 n=15 v=0
9244972 Off ch=1 n=10 v=0
9245875 On ch=1 n=10 v=100
9245908 On ch=1 n=11 v=100
9246005 Off ch=1 n=10 v=0
9246292 Off ch=1 n=11 v=0
9248575 On ch=1 n=12 v=100
9248680 Off ch=1 n=12 v=0
9249639 On ch=1 n=20 v=100
9249687 Off ch=1 n=20 v=0
9252165 On ch=1 n=5 v=100
9252206 Off ch=1 n=5 v=0
9252746 On ch=1 n=18 v=100
9253182 Off ch=1 n=18 v=0
9253314 On ch=1 n=8 v=100
9254555 Off ch=1 n=8 v=0
9266498 On ch=1 n=4 v=100
9268143 Off ch=1 n=4 v=0
9268150 On ch=1 n=1 v=100
9268953 Off ch=1 n=1 v=0
9269876 On ch=1 n=1 v=100
9271323 Off ch=1 n=1 v=0
9284199 On ch=1 n=7 v=100
9284817 Off ch=1 n=7 v=0
9292697 On ch=1 n=8 v=100
9293026 Off ch=1 n=8 v=0
9307510 On ch=1 n=0 v=100
9308041 On ch=1 n=2 v=100
9308048 Off ch=1 n=0 v=0
9308499 Off ch=1 n=2 v=0
9308795 On ch=1 n=3 v=100
9309159 Off ch=1 n=3 v=0
9314532 On ch=1 n=1 v=100
9317563 Off ch=1 n=1 v=0
9319008 On ch=1 n=9 v=100
9319119 Off ch=1 n=9 v=0
9319649 On ch=1 n=7 v=100
9320273 Off ch=1 n=7 v=0
9320915 On ch=1 n=9 v=100
9321449 Off ch=1 n=9 v=0
9321450 On ch=1 n=5 v=100
9322398 Off ch=1 n=5 v=0
9328441 On ch=1 n=5 v=100
9328594 Off ch=1 n=5 v=0
9331407 On ch=1 n=3 v=100
9331437 Off ch=1 n=3 v=0
9332485 On ch=1 n=54 v=100
9332587 On ch=1 n=8 v=100
9333051 On ch=1 n=7 v=100
9333055 Off ch=1 n=8 v=0
9333333 Off ch=1 n=54 v=0
9333448 Off ch=1 n=7 v=0
9346418 On ch=1 n=14 v=100
9346624 On ch=1 n=4 v=100
9346624 Off ch=1 n=14 v=0
9348087 Off ch=1 n=4 v=0
9348710 On ch=1 n=3 v=100
9350293 Off ch=1 n=3 v=0
9353296 On ch=1 n=4 v=100
9353610 Off ch=1 n=4 v=0
9354730 On ch=1 n=6 v=100
9354794 Off ch=1 n=6 v=0
9378693 On ch=1 n=0 v=100
9383493 Off ch=1 n=0 v=0
9384270 On ch=1 n=6 v=100
9384318 On ch=1 n=11 v=100
9384318 Off ch=1 n=6 v=0
9384882 Off ch=1 n=11 v=0
9384885 On ch=1 n=15 v=100
9384991 On ch=1 n=50 v=100
9385148 Off ch=1 n=15 v=0
9385167 Off ch=1 n=50 v=0
9385432 On ch=1 n=33 v=100
9385703 Off ch=1 n=33 v=0
9400036 On ch=1 n=31 v=100
9400476 On ch=1 n=8 v=100
9400478 Off ch=1 n=31 v=0
9403741 Off ch=1 n=8 v=0
9404571 On ch=1 n=31 v=100
9405059 Off ch=1 n=31 v=0
9411672 On ch=1 n=35 v=100
9411798 Off ch=1 n=35 v=0
9419720 On ch=1 n=6 v=100
9420531 Off ch=1 n=6 v=0
9435207 On ch=1 n=44 v=100
9435352 Off ch=1 n=44 v=0
9440566 On ch=1 n=29 v=100
9440630 Off ch=1 n=29 v=0
9441467 On ch=1 n=8 v=100
9441746 Off ch=1 n=8 v=0
9442023 On ch=1 n=14 v=100
9442196 Off ch=1 n=14 v=0
9442338 On ch=1 n=15 v=100
9442417 Off ch=1 n=15 v=0
9454694 On ch=1 n=8 v=100
9455935 Off ch=1 n=8 v=0
9456063 On ch=1 n=19 v=100
9456503 Off ch=1 n=19 v=0
9457043 On ch=1 n=7 v=100
9457084 Off ch=1 n=7 v=0
9458523 On ch=1 n=22 v=100
9458572 Off ch=1 n=22 v=0
9459530 On ch=1 n=10 v=100
9459635 Off ch=1 n=10 v=0
9461842 On ch=1 n=10 v=100
9462270 On ch=1 n=46 v=100
9462325 On ch=1 n=17 v=100
9462329 Off ch=1 n=10 v=0
9462528 Off ch=1 n=46 v=0
9462706 Off ch=1 n=17 v=0
9462824 On ch=1 n=17 v=100
9463403 Off ch=1 n=17 v=0
9465229 On ch=1 n=40 v=100
9465330 On ch=1 n=7 v=100
9465332 Off ch=1 n=40 v=0
9465655 Off ch=1 n=7 v=0
9465656 On ch=1 n=4 v=100
9466342 Off ch=1 n=4 v=0
9468656 On ch=1 n=25 v=100
9468718 Off ch=1 n=25 v=0
9469065 On ch=1 n=37 v=100
9469150 Off ch=1 n=37 v=0
9549772 On ch=1 n=10 v=100
9549886 Off ch=1 n=10 v=0
9550143 On ch=1 n=27 v=100
9550252 Off ch=1 n=27 v=0
9553716 On ch=1 n=14 v=100
9553826 Off ch=1 n=14 v=0
9554474 On ch=1 n=37 v=100
9554548 Off ch=1 n=37 v=0
9558932 On ch=1 n=7 v=100
9559360 Off ch=1 n=7 v=0
9563011 On ch=1 n=9 v=100
9563329 Off ch=1 n=9 v=0
9565783 On ch=1 n=41 v=100
9565943 Off ch=1 n=41 v=0
9569030 On ch=1 n=18 v=100
9569207 Off ch=1 n=18 v=0
9571350 On ch=1 n=31 v=100
9571411 Off ch=1 n=31 v=0
9571630 On ch=1 n=9 v=100
9572022 Off ch=1 n=9 v=0
9577534 On ch=1 n=5 v=100
9578109 On ch=1 n=15 v=100
9578113 Off ch=1 n=5 v=0
9578170 On ch=1 n=8 v=100
9578181 Off ch=1 n=15 v=0
9578673 Off ch=1 n=8 v=0
9580546 On ch=1 n=5 v=100
9580816 On ch=1 n=13 v=100
9581154 Off ch=1 n=5 v=0
9581947 Off ch=1 n=13 v=0
9600707 On ch=1 n=40 v=100
9601518 Off ch=1 n=40 v=0
9611453 On ch=1 n=9 v=100
9611769 Off ch=1 n=9 v=0
9613090 On ch=1 n=22 v=100
9613199 Off ch=1 n=22 v=0
9625249 On ch=1 n=4 v=100
9625313 Off ch=1 n=4 v=0
9626395 On ch=1 n=4 v=100
9626720 Off ch=1 n=4 v=0
9654590 On ch=1 n=3 v=100
9655745 Off ch=1 n=3 v=0
9657414 On ch=1 n=7 v=100
9658040 Off ch=1 n=7 v=0
9658151 On ch=1 n=8 v=100
9658201 Off ch=1 n=8 v=0
9659310 On ch=1 n=7 v=100
9659633 Off ch=1 n=7 v=0
9664171 On ch=1 n=4 v=100
9667382 Off ch=1 n=4 v=0
9683784 On ch=1 n=30 v=100
9683873 Off ch=1 n=30 v=0
9693225 On ch=1 n=1 v=100
9696323 Off ch=1 n=1 v=0
9696736 On ch=1 n=31 v=100
9696801 Off ch=1 n=31 v=0
9706838 On ch=1 n=50 v=100
9706954 Off ch=1 n=50 v=0
9708960 On ch=1 n=7 v=100
9709942 Off ch=1 n=7 v=0
9710807 On ch=1 n=19 v=100
9711008 Off ch=1 n=19 v=0
9711068 On ch=1 n=11 v=100
9711283 Off ch=1 n=11 v=0
9718621 On ch=1 n=25 v=100
9718765 Off ch=1 n=25 v=0
9718798 On ch=1 n=25 v=100
9718839 Off ch=1 n=25 v=0
9726737 On ch=1 n=3 v=100
9727923 Off ch=1 n=3 v=0
9732040 On ch=1 n=4 v=100
9732405 Off ch=1 n=4 v=0
9732703 On ch=1 n=3 v=100
9733149 On ch=1 n=1 v=100
9733157 Off ch=1 n=3 v=0
9733687 Off ch=1 n=1 v=0
9737132 On ch=1 n=3 v=100
9742130 Off ch=1 n=3 v=0
9746145 On ch=1 n=6 v=100
9746444 Off ch=1 n=6 v=0
9746456 On ch=1 n=10 v=100
9746612 On ch=1 n=6 v=100
9746651 Off ch=1 n=10 v=0
9746895 Off ch=1 n=6 v=0
9749336 On ch=1 n=6 v=100
9749492 Off ch=1 n=6 v=0
9750171 On ch=1 n=7 v=100
9750340 Off ch=1 n=7 v=0
9751011 On ch=1 n=7 v=100
9751178 Off ch=1 n=7 v=0
9751826 On ch=1 n=7 v=100
9751994 Off ch=1 n=7 v=0
9752685 On ch=1 n=6 v=100
9752837 Off ch=1 n=6 v=0
9753762 On ch=1 n=9 v=100
9753929 Off ch=1 n=9 v=0
9754616 On ch=1 n=5 v=100
9754782 Off ch=1 n=5 v=0
9779330 On ch=1 n=35 v=100
9779497 Off ch=1 n=35 v=0
9792739 On ch=1 n=14 v=100
9793329 Off ch=1 n=14 v=0
9800905 On ch=1 n=37 v=100
9800983 Off ch=1 n=37 v=0
9801702 On ch=1 n=10 v=100
9801798 On ch=1 n=11 v=100
9801805 Off ch=1 n=10 v=0
9802060 Off ch=1 n=11 v=0
9802065 On ch=1 n=16 v=100
9802164 Off ch=1 n=16 v=0
9802205 On ch=1 n=35 v=100
9802373 Off ch=1 n=35 v=0
9809447 On ch=1 n=14 v=100
9809515 Off ch=1 n=14 v=0
9815117 On ch=1 n=2 v=100
9818707 Off ch=1 n=2 v=0
9826617 On ch=1 n=27 v=100
9826684 Off ch=1 n=27 v=0
9838088 On ch=1 n=43 v=100
9838240 Off ch=1 n=43 v=0
9840024 On ch=1 n=10 v=100
9840163 Off ch=1 n=10 v=0
9845514 On ch=1 n=6 v=100
9845548 Off ch=1 n=6 v=0
9850788 On ch=1 n=10 v=100
9850966 Off ch=1 n=10 v=0
9882227 On ch=1 n=4 v=100
9882965 On ch=1 n=6 v=100
9882983 Off ch=1 n=4 v=0
9883093 Off ch=1 n=6 v=0
9886417 On ch=1 n=56 v=100
9886446 On ch=1 n=40 v=100
9886544 Off ch=1 n=40 v=0
9886556 Off ch=1 n=56 v=0
9886777 On ch=1 n=52 v=100
9887136 Off ch=1 n=52 v=0
9892783 On ch=1 n=26 v=100
9892856 Off ch=1 n=26 v=0
9902804 On ch=1 n=9 v=100
9903224 Off ch=1 n=9 v=0
9912708 On ch=1 n=2 v=100
9913841 Off ch=1 n=2 v=0
9916985 On ch=1 n=7 v=100
9917245 Off ch=1 n=7 v=0
9918016 On ch=1 n=7 v=100
9918273 Off ch=1 n=7 v=0
9919044 On ch=1 n=6 v=100
9919304 Off ch=1 n=6 v=0
9920075 On ch=1 n=6 v=100
9920335 Off ch=1 n=6 v=0
9921095 On ch=1 n=6 v=100
9921355 Off ch=1 n=6 v=0
9922126 On ch=1 n=6 v=100
9922386 Off ch=1 n=6 v=0
9923146 On ch=1 n=7 v=100
9923406 Off ch=1 n=7 v=0
9923923 On ch=1 n=40 v=100
9924002 Off ch=1 n=40 v=0
9930075 On ch=1 n=59 v=100
9930201 Off ch=1 n=59 v=0
9931097 On ch=1 n=36 v=100
9931098 On ch=1 n=58 v=100
9931147 Off ch=1 n=36 v=0
9931210 Off ch=1 n=58 v=0
9932295 On ch=1 n=36 v=100
9932296 On ch=1 n=60 v=100
9932345 Off ch=1 n=36 v=0
9932408 Off ch=1 n=60 v=0
9933499 On ch=1 n=40 v=100
9933548 Off ch=1 n=40 v=0
9934692 On ch=1 n=40 v=100
9934741 Off ch=1 n=40 v=0
9940920 On ch=1 n=2 v=100
9940958 On ch=1 n=11 v=100
9940961 Off ch=1 n=2 v=0
9941024 Off ch=1 n=11 v=0
9941097 On ch=1 n=2 v=100
9941135 On ch=1 n=12 v=100
9941138 Off ch=1 n=2 v=0
9941201 Off ch=1 n=12 v=0
9941274 On ch=1 n=2 v=100
9941312 On ch=1 n=12 v=100
9941315 Off ch=1 n=2 v=0
9941378 Off ch=1 n=12 v=0
9941451 On ch=1 n=2 v=100
9941489 On ch=1 n=12 v=100
9941492 Off ch=1 n=2 v=0
9941555 Off ch=1 n=12 v=0
9941628 On ch=1 n=2 v=100
9941666 On ch=1 n=14 v=100
9941669 Off ch=1 n=2 v=0
9941732 Off ch=1 n=14 v=0
9941805 On ch=1 n=2 v=100
9941843 On ch=1 n=14 v=100
9941846 Off ch=1 n=2 v=0
9941909 Off ch=1 n=14 v=0
9941982 On ch=1 n=2 v=100
9942020 On ch=1 n=14 v=100
9942023 Off ch=1 n=2 v=0
9942086 Off ch=1 n=14 v=0
9942159 On ch=1 n=2 v=100
9942197 On ch=1 n=13 v=100
9942200 Off ch=1 n=2 v=0
9942262 Off ch=1 n=13 v=0
9942336 On ch=1 n=11 v=100
9942381 Off ch=1 n=11 v=0
9942409 On ch=1 n=0 v=100
9947432 Off ch=1 n=0 v=0
9947522 On ch=1 n=4 v=100
9947746 Off ch=1 n=4 v=0
9947819 On ch=1 n=9 v=100
9948033 On ch=1 n=1 v=100
9948177 Off ch=1 n=9 v=0
9953589 Off ch=1 n=1 v=0
9953714 On ch=1 n=9 v=100
9953971 On ch=1 n=2 v=100
9954115 Off ch=1 n=9 v=0
9959512 Off ch=1 n=2 v=0
9959781 On ch=1 n=5 v=100
9960065 Off ch=1 n=5 v=0
9963909 On ch=1 n=4 v=100
9964227 Off ch=1 n=4 v=0
9969826 On ch=1 n=32 v=100
9970054 Off ch=1 n=32 v=0
9975046 On ch=1 n=34 v=100
9975204 Off ch=1 n=34 v=0
9975306 On ch=1 n=8 v=100
9978548 On ch=1 n=31 v=100
9978550 Off ch=1 n=8 v=0
9979621 On ch=1 n=20 v=100
9979630 Off ch=1 n=31 v=0
9979855 Off ch=1 n=20 v=0
9980079 On ch=1 n=10 v=100
9980664 Off ch=1 n=10 v=0
10027574 On ch=1 n=1 v=100
10028053 On ch=1 n=56 v=100
10028269 On ch=1 n=39 v=100
10028516 On ch=1 n=53 v=100
10028966 On ch=1 n=2 v=100
10028966 Off ch=1 n=1 v=0
10029576 Off ch=1 n=56 v=0
10029583 Off ch=1 n=39 v=0
10029789 Off ch=1 n=53 v=0
10029803 Off ch=1 n=2 v=0
10031075 On ch=1 n=14 v=100
10031197 Off ch=1 n=14 v=0
10034664 On ch=1 n=11 v=100
10034770 Off ch=1 n=11 v=0
10046260 On ch=1 n=26 v=100
10046440 Off ch=1 n=26 v=0
10049427 On ch=1 n=5 v=100
10049591 Off ch=1 n=5 v=0
10050280 On ch=1 n=9 v=100
10050445 Off ch=1 n=9 v=0
10050800 On ch=1 n=9 v=100
10050970 Off ch=1 n=9 v=0
10051797 On ch=1 n=8 v=100
10051956 Off ch=1 n=8 v=0
10052629 On ch=1 n=13 v=100
10052796 Off ch=1 n=13 v=0
10053707 On ch=1 n=6 v=100
10053783 Off ch=1 n=6 v=0
10053959 On ch=1 n=10 v=100
10054130 Off ch=1 n=10 v=0
10054957 On ch=1 n=9 v=100
10055116 Off ch=1 n=9 v=0
10055789 On ch=1 n=13 v=100
10055941 Off ch=1 n=13 v=0
10056852 On ch=1 n=6 v=100
10057004 Off ch=1 n=6 v=0
10057690 On ch=1 n=8 v=100
10057857 Off ch=1 n=8 v=0
10058528 On ch=1 n=7 v=100
10058697 Off ch=1 n=7 v=0
10061785 On ch=1 n=6 v=100
10062029 On ch=1 n=12 v=100
10062067 Off ch=1 n=6 v=0
10062224 Off ch=1 n=12 v=0
10062237 On ch=1 n=5 v=100
10062535 Off ch=1 n=5 v=0
10067693 On ch=1 n=5 v=100
10068668 Off ch=1 n=5 v=0
10070729 On ch=1 n=14 v=100
10070837 Off ch=1 n=14 v=0
10071369 On ch=1 n=6 v=100
10072531 On ch=1 n=6 v=100
10072531 Off ch=1 n=6 v=0
10073341 Off ch=1 n=6 v=0
10073440 On ch=1 n=49 v=100
10073491 On ch=1 n=47 v=100
10073493 On ch=1 n=9 v=100
10073888 Off ch=1 n=49 v=0
10073889 Off ch=1 n=9 v=0
10073900 On ch=1 n=9 v=100
10073947 Off ch=1 n=47 v=0
10073975 Off ch=1 n=9 v=0
10074299 On ch=1 n=14 v=100
10074650 Off ch=1 n=14 v=0
10074655 On ch=1 n=8 v=100
10074714 Off ch=1 n=8 v=0
10074717 On ch=1 n=5 v=100
10075104 Off ch=1 n=5 v=0
10077152 On ch=1 n=7 v=100
10077246 On ch=1 n=6 v=100
10077250 Off ch=1 n=7 v=0
10077656 Off ch=1 n=6 v=0
10081153 On ch=1 n=14 v=100
10081368 On ch=1 n=4 v=100
10081368 Off ch=1 n=14 v=0
10083873 Off ch=1 n=4 v=0
10083875 On ch=1 n=1 v=100
10084297 Off ch=1 n=1 v=0
10091269 On ch=1 n=5 v=100
10091563 Off ch=1 n=5 v=0
10092727 On ch=1 n=4 v=100
10092791 Off ch=1 n=4 v=0
10116428 On ch=1 n=8 v=100
10117439 Off ch=1 n=8 v=0
10118333 On ch=1 n=19 v=100
10118534 Off ch=1 n=19 v=0
10118595 On ch=1 n=10 v=100
10118808 Off ch=1 n=10 v=0
10119070 On ch=1 n=25 v=100
10119208 Off ch=1 n=25 v=0
10119216 On ch=1 n=6 v=100
10119440 Off ch=1 n=6 v=0
10120335 On ch=1 n=18 v=100
10120536 Off ch=1 n=18 v=0
10120597 On ch=1 n=10 v=100
10120810 Off ch=1 n=10 v=0
10121072 On ch=1 n=25 v=100
10121210 Off ch=1 n=25 v=0
10121218 On ch=1 n=6 v=100
10121442 Off ch=1 n=6 v=0
10122337 On ch=1 n=18 v=100
10122538 Off ch=1 n=18 v=0
10122599 On ch=1 n=10 v=100
10122812 Off ch=1 n=10 v=0
10127089 On ch=1 n=38 v=100
10127185 Off ch=1 n=38 v=0
10134418 On ch=1 n=19 v=100
10134470 Off ch=1 n=19 v=0
10175596 On ch=1 n=33 v=100
10175672 Off ch=1 n=33 v=0
10189021 On ch=1 n=19 v=100
10189147 Off ch=1 n=19 v=0
10189184 On ch=1 n=19 v=100
10189272 Off ch=1 n=19 v=0
10208743 On ch=1 n=3 v=100
10208925 On ch=1 n=50 v=100
10209127 Off ch=1 n=3 v=0
10209159 Off ch=1 n=50 v=0
10210317 On ch=1 n=14 v=100
10210345 On ch=1 n=3 v=100
10210440 Off ch=1 n=14 v=0
10210440 Off ch=1 n=3 v=0
10210501 On ch=1 n=3 v=100
10218378 Off ch=1 n=3 v=0
10218548 On ch=1 n=28 v=100
10218634 Off ch=1 n=28 v=0
10220614 On ch=1 n=10 v=100
10220872 Off ch=1 n=10 v=0
10221108 On ch=1 n=6 v=100
10221695 Off ch=1 n=6 v=0
10221796 On ch=1 n=0 v=100
10221941 Off ch=1 n=0 v=0
10222979 On ch=1 n=13 v=100
10222983 On ch=1 n=3 v=100
10224007 Off ch=1 n=3 v=0
10224179 Off ch=1 n=13 v=0
10225345 On ch=1 n=4 v=100
10225624 Off ch=1 n=4 v=0
10226347 On ch=1 n=24 v=100
10226408 Off ch=1 n=24 v=0
10226714 On ch=1 n=26 v=100
10226783 Off ch=1 n=26 v=0
10227053 On ch=1 n=13 v=100
10227161 Off ch=1 n=13 v=0
10227386 On ch=1 n=14 v=100
10227481 Off ch=1 n=14 v=0
10230708 On ch=1 n=37 v=100
10230897 Off ch=1 n=37 v=0
10230988 On ch=1 n=9 v=100
10231094 Off ch=1 n=9 v=0
10235165 On ch=1 n=12 v=100
10235416 Off ch=1 n=12 v=0
10235417 On ch=1 n=3 v=100
10235432 On ch=1 n=40 v=100
10235701 Off ch=1 n=3 v=0
10235772 On ch=1 n=17 v=100
10235775 Off ch=1 n=40 v=0
10235946 Off ch=1 n=17 v=0
10236353 On ch=1 n=26 v=100
10236439 Off ch=1 n=26 v=0
10236441 On ch=1 n=14 v=100
10236661 Off ch=1 n=14 v=0
10237833 On ch=1 n=10 v=100
10237840 On ch=1 n=54 v=100
10238272 Off ch=1 n=10 v=0
10238402 Off ch=1 n=54 v=0
10238962 On ch=1 n=28 v=100
10239263 Off ch=1 n=28 v=0
10246962 On ch=1 n=13 v=100
10247710 Off ch=1 n=13 v=0
10248201 On ch=1 n=7 v=100
10248966 On ch=1 n=9 v=100
10249081 Off ch=1 n=7 v=0
10249180 Off ch=1 n=9 v=0
10249512 On ch=1 n=37 v=100
10249515 On ch=1 n=43 v=100
10250831 Off ch=1 n=37 v=0
10251175 Off ch=1 n=43 v=0
10252014 On ch=1 n=38 v=100
10253221 Off ch=1 n=38 v=0
10253731 On ch=1 n=27 v=100
10254347 Off ch=1 n=27 v=0
10254360 On ch=1 n=6 v=100
10254458 On ch=1 n=49 v=100
10254498 On ch=1 n=32 v=100
10254499 Off ch=1 n=6 v=0
10254816 Off ch=1 n=49 v=0
10255248 Off ch=1 n=32 v=0
10278030 On ch=1 n=0 v=100
10282035 Off ch=1 n=0 v=0
10282043 On ch=1 n=1 v=100
10282914 Off ch=1 n=1 v=0
10282988 On ch=1 n=5 v=100
10283214 Off ch=1 n=5 v=0
10291683 On ch=1 n=61 v=100
10291683 On ch=1 n=61 v=100
10292182 Off ch=1 n=61 v=0
10292182 Off ch=1 n=61 v=0
10293757 On ch=1 n=77 v=100
10293897 Off ch=1 n=77 v=0
10294959 On ch=1 n=66 v=100
10295099 Off ch=1 n=66 v=0
10295843 On ch=1 n=3 v=100
10295867 On ch=1 n=15 v=100
10295875 Off ch=1 n=3 v=0
10295938 Off ch=1 n=15 v=0
10296011 On ch=1 n=4 v=100
10296049 On ch=1 n=12 v=100
10296052 Off ch=1 n=4 v=0
10296115 Off ch=1 n=12 v=0
10296188 On ch=1 n=2 v=100
10296226 On ch=1 n=14 v=100
10296229 Off ch=1 n=2 v=0
10296292 Off ch=1 n=14 v=0
10296365 On ch=1 n=2 v=100
10296403 On ch=1 n=12 v=100
10296406 Off ch=1 n=2 v=0
10296469 Off ch=1 n=12 v=0
10296542 On ch=1 n=4 v=100
10296580 On ch=1 n=12 v=100
10296583 Off ch=1 n=4 v=0
10296646 Off ch=1 n=12 v=0
10296719 On ch=1 n=2 v=100
10296757 On ch=1 n=14 v=100
10296760 Off ch=1 n=2 v=0
10296823 Off ch=1 n=14 v=0
10296896 On ch=1 n=2 v=100
10296934 On ch=1 n=12 v=100
10296937 Off ch=1 n=2 v=0
10297000 Off ch=1 n=12 v=0
10297073 On ch=1 n=2 v=100
10297111 On ch=1 n=12 v=100
10297114 Off ch=1 n=2 v=0
10297177 Off ch=1 n=12 v=0
10297250 On ch=1 n=2 v=100
10297288 On ch=1 n=12 v=100
10297291 Off ch=1 n=2 v=0
10297354 Off ch=1 n=12 v=0
10297427 On ch=1 n=4 v=100
10297461 On ch=1 n=15 v=100
10297467 Off ch=1 n=4 v=0
10297531 Off ch=1 n=15 v=0
10297604 On ch=1 n=2 v=100
10297642 On ch=1 n=12 v=100
10297645 Off ch=1 n=2 v=0
10297708 Off ch=1 n=12 v=0
10297781 On ch=1 n=4 v=100
10297819 On ch=1 n=14 v=100
10297821 Off ch=1 n=4 v=0
10297885 Off ch=1 n=14 v=0
10297958 On ch=1 n=2 v=100
10297996 On ch=1 n=12 v=100
10297999 Off ch=1 n=2 v=0
10298062 Off ch=1 n=12 v=0
10298135 On ch=1 n=4 v=100
10298169 On ch=1 n=15 v=100
10298175 Off ch=1 n=4 v=0
10298239 Off ch=1 n=15 v=0
10298312 On ch=1 n=2 v=100
10298350 On ch=1 n=12 v=100
10298353 Off ch=1 n=2 v=0
10298416 Off ch=1 n=12 v=0
10298489 On ch=1 n=2 v=100
10298527 On ch=1 n=12 v=100
10298530 Off ch=1 n=2 v=0
10298593 Off ch=1 n=12 v=0
10298666 On ch=1 n=2 v=100
10298704 On ch=1 n=12 v=100
10298707 Off ch=1 n=2 v=0
10298770 Off ch=1 n=12 v=0
10298843 On ch=1 n=2 v=100
10298881 On ch=1 n=12 v=100
10298884 Off ch=1 n=2 v=0
10298947 Off ch=1 n=12 v=0
10299020 On ch=1 n=2 v=100
10299058 On ch=1 n=12 v=100
10299061 Off ch=1 n=2 v=0
10299124 Off ch=1 n=12 v=0
10299197 On ch=1 n=2 v=100
10299235 On ch=1 n=12 v=100
10299238 Off ch=1 n=2 v=0
10299301 Off ch=1 n=12 v=0
10299374 On ch=1 n=2 v=100
10299412 On ch=1 n=12 v=100
10299415 Off ch=1 n=2 v=0
10299478 Off ch=1 n=12 v=0
10299551 On ch=1 n=4 v=100
10299589 On ch=1 n=14 v=100
10299591 Off ch=1 n=4 v=0
10299655 Off ch=1 n=14 v=0
10299728 On ch=1 n=2 v=100
10299766 On ch=1 n=12 v=100
10299769 Off ch=1 n=2 v=0
10299832 Off ch=1 n=12 v=0
10299905 On ch=1 n=4 v=100
10299943 On ch=1 n=14 v=100
10299945 Off ch=1 n=4 v=0
10300009 Off ch=1 n=14 v=0
10300082 On ch=1 n=2 v=100
10300120 On ch=1 n=12 v=100
10300123 Off ch=1 n=2 v=0
10300186 Off ch=1 n=12 v=0
10300259 On ch=1 n=4 v=100
10300293 On ch=1 n=15 v=100
10300299 Off ch=1 n=4 v=0
10300363 Off ch=1 n=15 v=0
10300436 On ch=1 n=2 v=100
10300474 On ch=1 n=12 v=100
10300477 Off ch=1 n=2 v=0
10300540 Off ch=1 n=12 v=0
10300613 On ch=1 n=2 v=100
10300651 On ch=1 n=12 v=100
10300654 Off ch=1 n=2 v=0
10300717 Off ch=1 n=12 v=0
10300790 On ch=1 n=4 v=100
10300824 On ch=1 n=15 v=100
10300830 Off ch=1 n=4 v=0
10300894 Off ch=1 n=15 v=0
10300967 On ch=1 n=2 v=100
10301005 On ch=1 n=12 v=100
10301008 Off ch=1 n=2 v=0
10301071 Off ch=1 n=12 v=0
10301144 On ch=1 n=1 v=100
10301313 Off ch=1 n=1 v=0
10301643 On ch=1 n=11 v=100
10302235 Off ch=1 n=11 v=0
10318030 On ch=1 n=3 v=100
10322844 Off ch=1 n=3 v=0
10330933 On ch=1 n=7 v=100
10331147 Off ch=1 n=7 v=0
10338027 On ch=1 n=3 v=100
10338195 Off ch=1 n=3 v=0
10338881 On ch=1 n=3 v=100
10339050 Off ch=1 n=3 v=0
10339736 On ch=1 n=7 v=100
10339872 Off ch=1 n=7 v=0
10349322 On ch=1 n=62 v=100
10349460 Off ch=1 n=62 v=0
10350522 On ch=1 n=66 v=100
10350662 Off ch=1 n=66 v=0
10351717 On ch=1 n=65 v=100
10351863 Off ch=1 n=65 v=0
10352925 On ch=1 n=64 v=100
10353063 Off ch=1 n=64 v=0
10354497 On ch=1 n=66 v=100
10354637 Off ch=1 n=66 v=0
10355684 On ch=1 n=66 v=100
10355751 On ch=1 n=35 v=100
10355802 Off ch=1 n=35 v=0
10355824 Off ch=1 n=66 v=0
10356845 On ch=1 n=68 v=100
10356987 Off ch=1 n=68 v=0
10357280 On ch=1 n=62 v=100
10357420 Off ch=1 n=62 v=0
10357833 On ch=1 n=39 v=100
10357883 Off ch=1 n=39 v=0
10366772 On ch=1 n=8 v=100
10367032 Off ch=1 n=8 v=0
10367809 On ch=1 n=7 v=100
10368069 Off ch=1 n=7 v=0
10368840 On ch=1 n=7 v=100
10369100 Off ch=1 n=7 v=0
10373786 On ch=1 n=9 v=100
10374210 Off ch=1 n=9 v=0
10375187 On ch=1 n=28 v=100
10375260 Off ch=1 n=28 v=0
10388577 On ch=1 n=47 v=100
10388591 On ch=1 n=56 v=100
10388869 Off ch=1 n=47 v=0
10388905 Off ch=1 n=56 v=0
10391550 On ch=1 n=56 v=100
10391778 Off ch=1 n=56 v=0
10412025 On ch=1 n=8 v=100
10412147 Off ch=1 n=8 v=0
10412155 On ch=1 n=3 v=100
10412607 Off ch=1 n=3 v=0
10413679 On ch=1 n=56 v=100
10414729 On ch=1 n=17 v=100
10415398 On ch=1 n=6 v=100
10415524 Off ch=1 n=56 v=0
10415756 Off ch=1 n=17 v=0
10416710 Off ch=1 n=6 v=0
10421712 On ch=1 n=28 v=100
10421785 Off ch=1 n=28 v=0
10422788 On ch=1 n=9 v=100
10423282 Off ch=1 n=9 v=0
10423284 On ch=1 n=7 v=100
10423833 Off ch=1 n=7 v=0
10425452 On ch=1 n=5 v=100
10425670 On ch=1 n=7 v=100
10425670 Off ch=1 n=5 v=0
10425837 Off ch=1 n=7 v=0
10425838 On ch=1 n=11 v=100
10426000 Off ch=1 n=11 v=0
10432041 On ch=1 n=45 v=100
10433757 Off ch=1 n=45 v=0
10444712 On ch=1 n=7 v=100
10444926 Off ch=1 n=7 v=0
10455809 On ch=1 n=7 v=100
10456069 Off ch=1 n=7 v=0
10456664 On ch=1 n=0 v=100
10462256 On ch=1 n=2 v=100
10462259 Off ch=1 n=0 v=0
10462297 Off ch=1 n=2 v=0
10462370 On ch=1 n=12 v=100
10462433 On ch=1 n=2 v=100
10462436 Off ch=1 n=12 v=0
10462474 Off ch=1 n=2 v=0
10462547 On ch=1 n=12 v=100
10462610 On ch=1 n=2 v=100
10462613 Off ch=1 n=12 v=0
10462651 Off ch=1 n=2 v=0
10462724 On ch=1 n=12 v=100
10462787 On ch=1 n=2 v=100
10462790 Off ch=1 n=12 v=0
10462828 Off ch=1 n=2 v=0
10462901 On ch=1 n=12 v=100
10462964 On ch=1 n=2 v=100
10462967 Off ch=1 n=12 v=0
10463005 Off ch=1 n=2 v=0
10463078 On ch=1 n=12 v=100
10463141 On ch=1 n=2 v=100
10463144 Off ch=1 n=12 v=0
10463182 Off ch=1 n=2 v=0
10463255 On ch=1 n=12 v=100
10463318 On ch=1 n=4 v=100
10463321 Off ch=1 n=12 v=0
10463359 Off ch=1 n=4 v=0
10463432 On ch=1 n=12 v=100
10463495 On ch=1 n=2 v=100
10463498 Off ch=1 n=12 v=0
10463536 Off ch=1 n=2 v=0
10463609 On ch=1 n=12 v=100
10463672 On ch=1 n=2 v=100
10463675 Off ch=1 n=12 v=0
10463713 Off ch=1 n=2 v=0
10463786 On ch=1 n=12 v=100
10463849 On ch=1 n=2 v=100
10463852 Off ch=1 n=12 v=0
10463890 Off ch=1 n=2 v=0
10463963 On ch=1 n=12 v=100
10464026 On ch=1 n=2 v=100
10464029 Off ch=1 n=12 v=0
10464067 Off ch=1 n=2 v=0
10464140 On ch=1 n=12 v=100
10464203 On ch=1 n=2 v=100
10464206 Off ch=1 n=12 v=0
10464244 Off ch=1 n=2 v=0
10464317 On ch=1 n=12 v=100
10464380 On ch=1 n=4 v=100
10464383 Off ch=1 n=12 v=0
10464421 Off ch=1 n=4 v=0
10464494 On ch=1 n=12 v=100
10464557 On ch=1 n=4 v=100
10464560 Off ch=1 n=12 v=0
10464598 Off ch=1 n=4 v=0
10464671 On ch=1 n=12 v=100
10464734 On ch=1 n=2 v=100
10464737 Off ch=1 n=12 v=0
10464775 Off ch=1 n=2 v=0
10464848 On ch=1 n=12 v=100
10464911 On ch=1 n=2 v=100
10464914 Off ch=1 n=12 v=0
10464952 Off ch=1 n=2 v=0
10465025 On ch=1 n=12 v=100
10465088 On ch=1 n=2 v=100
10465091 Off ch=1 n=12 v=0
10465129 Off ch=1 n=2 v=0
10465202 On ch=1 n=12 v=100
10465265 On ch=1 n=2 v=100
10465268 Off ch=1 n=12 v=0
10465306 Off ch=1 n=2 v=0
10465379 On ch=1 n=12 v=100
10465442 On ch=1 n=4 v=100
10465445 Off ch=1 n=12 v=0
10465483 Off ch=1 n=4 v=0
10465556 On ch=1 n=12 v=100
10465619 On ch=1 n=2 v=100
10465622 Off ch=1 n=12 v=0
10465660 Off ch=1 n=2 v=0
10465733 On ch=1 n=12 v=100
10465796 On ch=1 n=4 v=100
10465799 Off ch=1 n=12 v=0
10465837 Off ch=1 n=4 v=0
10465910 On ch=1 n=12 v=100
10465973 On ch=1 n=2 v=100
10465976 Off ch=1 n=12 v=0
10466014 Off ch=1 n=2 v=0
10466087 On ch=1 n=12 v=100
10466150 On ch=1 n=2 v=100
10466153 Off ch=1 n=12 v=0
10466191 Off ch=1 n=2 v=0
10466264 On ch=1 n=12 v=100
10466327 On ch=1 n=4 v=100
10466330 Off ch=1 n=12 v=0
10466368 Off ch=1 n=4 v=0
10466441 On ch=1 n=12 v=100
10466504 On ch=1 n=2 v=100
10466507 Off ch=1 n=12 v=0
10466545 Off ch=1 n=2 v=0
10466618 On ch=1 n=12 v=100
10466681 On ch=1 n=2 v=100
10466684 Off ch=1 n=12 v=0
10466722 Off ch=1 n=2 v=0
10466795 On ch=1 n=12 v=100
10466858 On ch=1 n=2 v=100
10466861 Off ch=1 n=12 v=0
10466899 Off ch=1 n=2 v=0
10466972 On ch=1 n=12 v=100
10467035 On ch=1 n=2 v=100
10467038 Off ch=1 n=12 v=0
10467076 Off ch=1 n=2 v=0
10467149 On ch=1 n=12 v=100
10467212 On ch=1 n=2 v=100
10467215 Off ch=1 n=12 v=0
10467253 Off ch=1 n=2 v=0
10467326 On ch=1 n=12 v=100
10467389 On ch=1 n=4 v=100
10467392 Off ch=1 n=12 v=0
10467430 Off ch=1 n=4 v=0
10467541 On ch=1 n=11 v=100
10473153 Off ch=1 n=11 v=0
10473522 On ch=1 n=15 v=100
10473729 Off ch=1 n=15 v=0
10473789 On ch=1 n=19 v=100
10473988 Off ch=1 n=19 v=0
10474884 On ch=1 n=8 v=100
10475897 Off ch=1 n=8 v=0
10476221 On ch=1 n=14 v=100
10476428 Off ch=1 n=14 v=0
10476488 On ch=1 n=19 v=100
10476687 Off ch=1 n=19 v=0
10477583 On ch=1 n=7 v=100
10478594 Off ch=1 n=7 v=0
10478953 On ch=1 n=11 v=100
10479042 Off ch=1 n=11 v=0
10479352 On ch=1 n=6 v=100
10480365 Off ch=1 n=6 v=0
10480724 On ch=1 n=10 v=100
10480940 Off ch=1 n=10 v=0
10481000 On ch=1 n=20 v=100
10481201 Off ch=1 n=20 v=0
10482092 On ch=1 n=4 v=100
10482132 On ch=1 n=51 v=100
10482375 Off ch=1 n=4 v=0
10482414 Off ch=1 n=51 v=0
10483688 On ch=1 n=3 v=100
10485373 Off ch=1 n=3 v=0
10490592 On ch=1 n=21 v=100
10490756 Off ch=1 n=21 v=0
10494957 On ch=1 n=12 v=100
10495160 On ch=1 n=9 v=100
10495161 Off ch=1 n=12 v=0
10495558 Off ch=1 n=9 v=0
10497200 On ch=1 n=45 v=100
10497573 Off ch=1 n=45 v=0
10498399 On ch=1 n=27 v=100
10498508 Off ch=1 n=27 v=0
10498634 On ch=1 n=4 v=100
10498740 Off ch=1 n=4 v=0
10499516 On ch=1 n=23 v=100
10499574 Off ch=1 n=23 v=0
10507941 On ch=1 n=13 v=100
10508086 Off ch=1 n=13 v=0
10511896 On ch=1 n=15 v=100
10512113 Off ch=1 n=15 v=0
10512532 On ch=1 n=19 v=100
10512734 Off ch=1 n=19 v=0
10512794 On ch=1 n=12 v=100
10512988 Off ch=1 n=12 v=0
10513345 On ch=1 n=8 v=100
10514360 Off ch=1 n=8 v=0
10519428 On ch=1 n=12 v=100
10519545 Off ch=1 n=12 v=0
10522284 On ch=1 n=13 v=100
10522390 Off ch=1 n=13 v=0
10531611 On ch=1 n=16 v=100
10531670 Off ch=1 n=16 v=0
10532549 On ch=1 n=19 v=100
10532638 Off ch=1 n=19 v=0
10532672 On ch=1 n=19 v=100
10532763 Off ch=1 n=19 v=0
10567614 On ch=1 n=7 v=100
10568585 Off ch=1 n=7 v=0
10588942 On ch=1 n=5 v=100
10589055 Off ch=1 n=5 v=0
10593600 On ch=1 n=35 v=100
10593684 Off ch=1 n=35 v=0
10593940 On ch=1 n=7 v=100
10594054 Off ch=1 n=7 v=0
10594835 On ch=1 n=5 v=100
10595708 On ch=1 n=13 v=100
10595710 Off ch=1 n=5 v=0
10595788 Off ch=1 n=13 v=0
10596311 On ch=1 n=13 v=100
10596517 Off ch=1 n=13 v=0
10597296 On ch=1 n=13 v=100
10597409 Off ch=1 n=13 v=0
10598078 On ch=1 n=4 v=100
10598230 Off ch=1 n=4 v=0
10609321 On ch=1 n=12 v=100
10609540 Off ch=1 n=12 v=0
10609853 On ch=1 n=26 v=100
10609917 Off ch=1 n=26 v=0
10613372 On ch=1 n=0 v=100
10614937 Off ch=1 n=0 v=0
10634191 On ch=1 n=61 v=100
10634191 On ch=1 n=61 v=100
10634223 On ch=1 n=2 v=100
10634273 On ch=1 n=53 v=100
10634273 On ch=1 n=53 v=100
10634361 Off ch=1 n=2 v=0
10634497 Off ch=1 n=61 v=0
10634497 Off ch=1 n=61 v=0
10634792 Off ch=1 n=53 v=0
10634792 Off ch=1 n=53 v=0
10674062 On ch=1 n=30 v=100
10679470 Off ch=1 n=30 v=0
10683579 On ch=1 n=0 v=100
10686024 Off ch=1 n=0 v=0
10701186 On ch=1 n=10 v=100
10701297 Off ch=1 n=10 v=0
10701825 On ch=1 n=7 v=100
10702455 Off ch=1 n=7 v=0
10703136 On ch=1 n=5 v=100
10704485 On ch=1 n=5 v=100
10704485 Off ch=1 n=5 v=0
10704732 Off ch=1 n=5 v=0
10705754 On ch=1 n=7 v=100
10706123 On ch=1 n=5 v=100
10706125 Off ch=1 n=7 v=0
10706211 Off ch=1 n=5 v=0
10709561 On ch=1 n=14 v=100
10709764 On ch=1 n=4 v=100
10709784 Off ch=1 n=14 v=0
10710727 Off ch=1 n=4 v=0
10711341 On ch=1 n=6 v=100
10711380 On ch=1 n=49 v=100
10711775 On ch=1 n=3 v=100
10711775 Off ch=1 n=6 v=0
10712723 Off ch=1 n=49 v=0
10713002 Off ch=1 n=3 v=0
10715978 On ch=1 n=3 v=100
10716292 Off ch=1 n=3 v=0
10721991 On ch=1 n=33 v=100
10722059 Off ch=1 n=33 v=0
10722427 On ch=1 n=8 v=100
10722476 Off ch=1 n=8 v=0
10724598 On ch=1 n=14 v=100
10724725 Off ch=1 n=14 v=0
10724728 On ch=1 n=18 v=100
10724820 Off ch=1 n=18 v=0
10725104 On ch=1 n=15 v=100
10725158 Off ch=1 n=15 v=0
10725392 On ch=1 n=10 v=100
10725493 Off ch=1 n=10 v=0
10726034 On ch=1 n=34 v=100
10726118 Off ch=1 n=34 v=0
10728414 On ch=1 n=9 v=100
10728442 On ch=1 n=55 v=100
10728496 On ch=1 n=49 v=100
10728515 On ch=1 n=50 v=100
10728578 On ch=1 n=48 v=100
10728697 Off ch=1 n=9 v=0
10728837 Off ch=1 n=50 v=0
10728846 Off ch=1 n=55 v=0
10728868 Off ch=1 n=48 v=0
10728880 Off ch=1 n=49 v=0
10729617 On ch=1 n=10 v=100
10729728 Off ch=1 n=10 v=0
10737093 On ch=1 n=4 v=100
10737748 On ch=1 n=51 v=100
10738379 Off ch=1 n=4 v=0
10738380 On ch=1 n=2 v=100
10739168 Off ch=1 n=51 v=0
10741937 Off ch=1 n=2 v=0
10747046 On ch=1 n=8 v=100
10747660 Off ch=1 n=8 v=0
10747772 On ch=1 n=8 v=100
10747819 Off ch=1 n=8 v=0
10751704 On ch=1 n=7 v=100
10752028 Off ch=1 n=7 v=0
10757924 On ch=1 n=1 v=100
10759595 Off ch=1 n=1 v=0
10759599 On ch=1 n=5 v=100
10761194 Off ch=1 n=5 v=0
10771687 On ch=1 n=8 v=100
10772874 Off ch=1 n=8 v=0
10773035 On ch=1 n=17 v=100
10773446 Off ch=1 n=17 v=0
10776573 On ch=1 n=13 v=100
10776680 Off ch=1 n=13 v=0
10786481 On ch=1 n=12 v=100
10786970 On ch=1 n=19 v=100
10786974 Off ch=1 n=12 v=0
10787346 Off ch=1 n=19 v=0
10787464 On ch=1 n=17 v=100
10788040 Off ch=1 n=17 v=0
10789865 On ch=1 n=38 v=100
10789966 On ch=1 n=4 v=100
10789968 Off ch=1 n=38 v=0
10791081 Off ch=1 n=4 v=0
10793376 On ch=1 n=26 v=100
10793437 Off ch=1 n=26 v=0
10793790 On ch=1 n=34 v=100
10793875 Off ch=1 n=34 v=0
10794140 On ch=1 n=14 v=100
10794254 Off ch=1 n=14 v=0
10794496 On ch=1 n=16 v=100
10794573 Off ch=1 n=16 v=0
10799369 On ch=1 n=33 v=100
10799557 Off ch=1 n=33 v=0
10799647 On ch=1 n=11 v=100
10799756 Off ch=1 n=11 v=0
10814054 On ch=1 n=5 v=100
10814633 Off ch=1 n=5 v=0
10814644 On ch=1 n=7 v=100
10814988 Off ch=1 n=7 v=0
10814989 On ch=1 n=2 v=100
10816568 Off ch=1 n=2 v=0
10816572 On ch=1 n=1 v=100
10816596 On ch=1 n=50 v=100
10818394 Off ch=1 n=1 v=0
10818396 On ch=1 n=1 v=100
10820183 Off ch=1 n=50 v=0
10820374 Off ch=1 n=1 v=0
10832441 On ch=1 n=5 v=100
10833669 Off ch=1 n=5 v=0
10834884 On ch=1 n=26 v=100
10834988 Off ch=1 n=26 v=0
10839657 On ch=1 n=3 v=100
10840487 On ch=1 n=0 v=100
10840494 Off ch=1 n=3 v=0
10842919 On ch=1 n=48 v=100
10843040 Off ch=1 n=0 v=0
10843041 On ch=1 n=2 v=100
10843090 Off ch=1 n=48 v=0
10843244 Off ch=1 n=2 v=0
10848073 On ch=1 n=3 v=100
10848241 Off ch=1 n=3 v=0
10848582 On ch=1 n=40 v=100
10848687 Off ch=1 n=40 v=0
10848928 On ch=1 n=2 v=100
10849096 Off ch=1 n=2 v=0
10849783 On ch=1 n=3 v=100
10849952 Off ch=1 n=3 v=0
10850292 On ch=1 n=36 v=100
10850397 Off ch=1 n=36 v=0
10850637 On ch=1 n=3 v=100
10850804 Off ch=1 n=3 v=0
10851145 On ch=1 n=45 v=100
10851251 Off ch=1 n=45 v=0
10851491 On ch=1 n=2 v=100
10851659 Off ch=1 n=2 v=0
10851999 On ch=1 n=37 v=100
10852104 Off ch=1 n=37 v=0
10852345 On ch=1 n=2 v=100
10852513 Off ch=1 n=2 v=0
10852854 On ch=1 n=40 v=100
10852959 Off ch=1 n=40 v=0
10853200 On ch=1 n=3 v=100
10853366 Off ch=1 n=3 v=0
10853478 On ch=1 n=3 v=100
10853646 Off ch=1 n=3 v=0
10853986 On ch=1 n=38 v=100
10854093 Off ch=1 n=38 v=0
10854332 On ch=1 n=4 v=100
10854499 Off ch=1 n=4 v=0
10854611 On ch=1 n=3 v=100
10854779 Off ch=1 n=3 v=0
10855464 On ch=1 n=3 v=100
10855631 Off ch=1 n=3 v=0
10855971 On ch=1 n=40 v=100
10856076 Off ch=1 n=40 v=0
10856317 On ch=1 n=2 v=100
10856485 Off ch=1 n=2 v=0
10856826 On ch=1 n=45 v=100
10856932 Off ch=1 n=45 v=0
10857172 On ch=1 n=2 v=100
10857340 Off ch=1 n=2 v=0
10857681 On ch=1 n=40 v=100
10857788 Off ch=1 n=40 v=0
10858027 On ch=1 n=2 v=100
10858195 Off ch=1 n=2 v=0
10858536 On ch=1 n=40 v=100
10858643 Off ch=1 n=40 v=0
10858882 On ch=1 n=2 v=100
10859050 Off ch=1 n=2 v=0
10859391 On ch=1 n=40 v=100
10859495 Off ch=1 n=40 v=0
10859736 On ch=1 n=3 v=100
10859903 Off ch=1 n=3 v=0
10860015 On ch=1 n=3 v=100
10860183 Off ch=1 n=3 v=0
10860868 On ch=1 n=3 v=100
10861035 Off ch=1 n=3 v=0
10861721 On ch=1 n=4 v=100
10861887 Off ch=1 n=4 v=0
10862575 On ch=1 n=3 v=100
10862744 Off ch=1 n=3 v=0
10881959 On ch=1 n=0 v=100
10887712 Off ch=1 n=0 v=0
10899648 On ch=1 n=5 v=100
10900540 Off ch=1 n=5 v=0
10903373 On ch=1 n=26 v=100
10903443 Off ch=1 n=26 v=0
10905256 On ch=1 n=17 v=100
10905473 Off ch=1 n=17 v=0
10917101 On ch=1 n=50 v=100
10917160 On ch=1 n=6 v=100
10917361 Off ch=1 n=50 v=0
10917642 Off ch=1 n=6 v=0
10925398 On ch=1 n=31 v=100
10925411 On ch=1 n=29 v=100
10925428 On ch=1 n=24 v=100
10925499 Off ch=1 n=31 v=0
10925505 Off ch=1 n=24 v=0
10925512 Off ch=1 n=29 v=0
10930530 On ch=1 n=29 v=100
10930547 On ch=1 n=24 v=100
10930624 Off ch=1 n=24 v=0
10930631 Off ch=1 n=29 v=0
10933167 On ch=1 n=29 v=100
10933184 On ch=1 n=24 v=100
10933261 Off ch=1 n=24 v=0
10933268 Off ch=1 n=29 v=0
10949704 On ch=1 n=50 v=100
10949707 On ch=1 n=44 v=100
10950112 Off ch=1 n=50 v=0
10950123 On ch=1 n=8 v=100
10950225 Off ch=1 n=8 v=0
10950228 Off ch=1 n=44 v=0
10950412 On ch=1 n=55 v=100
10950637 Off ch=1 n=55 v=0
11014580 On ch=1 n=2 v=100
11016029 Off ch=1 n=2 v=0
11019707 On ch=1 n=31 v=100
11019772 Off ch=1 n=31 v=0
11019778 On ch=1 n=23 v=100
11020196 Off ch=1 n=23 v=0
11022867 On ch=1 n=12 v=100
11023338 On ch=1 n=12 v=100
11023338 Off ch=1 n=12 v=0
11023413 On ch=1 n=48 v=100
11023422 Off ch=1 n=12 v=0
11023554 Off ch=1 n=48 v=0
11030080 On ch=1 n=10 v=100
11030185 Off ch=1 n=10 v=0
11036257 On ch=1 n=20 v=100
11036316 Off ch=1 n=20 v=0
11037199 On ch=1 n=15 v=100
11037392 Off ch=1 n=15 v=0
11047404 On ch=1 n=47 v=100
11047420 On ch=1 n=45 v=100
11047543 Off ch=1 n=47 v=0
11047545 Off ch=1 n=45 v=0
11048803 On ch=1 n=22 v=100
11048867 Off ch=1 n=22 v=0
11049203 On ch=1 n=10 v=100
11049409 Off ch=1 n=10 v=0
11052011 On ch=1 n=4 v=100
11052477 On ch=1 n=41 v=100
11052667 On ch=1 n=4 v=100
11052667 Off ch=1 n=4 v=0
11052696 Off ch=1 n=41 v=0
11052969 Off ch=1 n=4 v=0
11057584 On ch=1 n=19 v=100
11057651 Off ch=1 n=19 v=0
11058663 On ch=1 n=11 v=100
11058765 Off ch=1 n=11 v=0
11062959 On ch=1 n=60 v=100
11063071 Off ch=1 n=60 v=0
11063791 On ch=1 n=1 v=100
11065228 Off ch=1 n=1 v=0
11068287 On ch=1 n=19 v=100
11068452 Off ch=1 n=19 v=0
11068629 On ch=1 n=19 v=100
11068749 Off ch=1 n=19 v=0
11068786 On ch=1 n=19 v=100
11068859 Off ch=1 n=19 v=0
11069318 On ch=1 n=39 v=100
11069396 Off ch=1 n=39 v=0
11083257 On ch=1 n=5 v=100
11083524 On ch=1 n=12 v=100
11083528 Off ch=1 n=5 v=0
11083631 Off ch=1 n=12 v=0
11086813 On ch=1 n=10 v=100
11086980 Off ch=1 n=10 v=0
11087667 On ch=1 n=10 v=100
11087818 Off ch=1 n=10 v=0
11088710 On ch=1 n=11 v=100
11088810 Off ch=1 n=11 v=0
11089027 On ch=1 n=1 v=100
11091903 Off ch=1 n=1 v=0
11092985 On ch=1 n=9 v=100
11093151 Off ch=1 n=9 v=0
11094059 On ch=1 n=11 v=100
11094226 Off ch=1 n=11 v=0
11094898 On ch=1 n=8 v=100
11095057 Off ch=1 n=8 v=0
11095885 On ch=1 n=10 v=100
11096051 Off ch=1 n=10 v=0
11096957 On ch=1 n=9 v=100
11097124 Off ch=1 n=9 v=0
11097811 On ch=1 n=7 v=100
11097977 Off ch=1 n=7 v=0
11107218 On ch=1 n=13 v=100
11107316 Off ch=1 n=13 v=0
11110753 On ch=1 n=13 v=100
11110875 Off ch=1 n=13 v=0
11114110 On ch=1 n=14 v=100
11114183 Off ch=1 n=14 v=0
11114668 On ch=1 n=34 v=100
11114835 Off ch=1 n=34 v=0
11114891 On ch=1 n=12 v=100
11114978 Off ch=1 n=12 v=0
11114985 On ch=1 n=10 v=100
11115225 Off ch=1 n=10 v=0
11115264 On ch=1 n=1 v=100
11116306 Off ch=1 n=1 v=0
11116354 On ch=1 n=13 v=100
11116447 Off ch=1 n=13 v=0
11121051 On ch=1 n=14 v=100
11121156 Off ch=1 n=14 v=0
11126935 On ch=1 n=5 v=100
11127625 On ch=1 n=11 v=100
11127756 Off ch=1 n=5 v=0
11127970 Off ch=1 n=11 v=0
11128043 On ch=1 n=5 v=100
11128267 Off ch=1 n=5 v=0
11128342 On ch=1 n=6 v=100
11128424 Off ch=1 n=6 v=0
11132983 On ch=1 n=0 v=100
11134092 Off ch=1 n=0 v=0
11134099 On ch=1 n=1 v=100
11136036 Off ch=1 n=1 v=0
11145717 On ch=1 n=65 v=100
11145768 Off ch=1 n=65 v=0
11145879 On ch=1 n=65 v=100
11146057 On ch=1 n=12 v=100
11146213 Off ch=1 n=65 v=0
11146214 Off ch=1 n=12 v=0
11146725 On ch=1 n=36 v=100
11146794 Off ch=1 n=36 v=0
11149944 On ch=1 n=7 v=100
11150227 Off ch=1 n=7 v=0
11151568 On ch=1 n=46 v=100
11151568 On ch=1 n=7 v=100
11151676 Off ch=1 n=7 v=0
11151690 Off ch=1 n=46 v=0
11151999 On ch=1 n=59 v=100
11152051 On ch=1 n=29 v=100
11152359 Off ch=1 n=59 v=0
11152516 Off ch=1 n=29 v=0
11152555 On ch=1 n=5 v=100
11152996 Off ch=1 n=5 v=0
11152998 On ch=1 n=8 v=100
11153005 On ch=1 n=51 v=100
11153146 On ch=1 n=60 v=100
11153576 Off ch=1 n=8 v=0
11153716 Off ch=1 n=60 v=0
11153717 Off ch=1 n=51 v=0
11153952 On ch=1 n=21 v=100
11154238 Off ch=1 n=21 v=0
11165538 On ch=1 n=6 v=100
11165603 Off ch=1 n=6 v=0
11166228 On ch=1 n=17 v=100
11166400 Off ch=1 n=17 v=0
11166401 On ch=1 n=15 v=100
11166567 Off ch=1 n=15 v=0
11167945 On ch=1 n=1 v=100
11168196 Off ch=1 n=1 v=0
11169813 On ch=1 n=56 v=100
11169867 On ch=1 n=5 v=100
11169999 Off ch=1 n=56 v=0
11170048 Off ch=1 n=5 v=0
11172289 On ch=1 n=2 v=100
11175052 Off ch=1 n=2 v=0
11175055 On ch=1 n=2 v=100
11175514 Off ch=1 n=2 v=0
11176939 On ch=1 n=64 v=100
11176959 On ch=1 n=5 v=100
11177122 Off ch=1 n=64 v=0
11178617 Off ch=1 n=5 v=0
11179235 On ch=1 n=7 v=100
11179494 Off ch=1 n=7 v=0
11180202 On ch=1 n=9 v=100
11180499 Off ch=1 n=9 v=0
11181213 On ch=1 n=9 v=100
11181522 Off ch=1 n=9 v=0
11182245 On ch=1 n=10 v=100
11182548 Off ch=1 n=10 v=0
11183257 On ch=1 n=9 v=100
11183566 Off ch=1 n=9 v=0
11184337 On ch=1 n=7 v=100
11184597 Off ch=1 n=7 v=0
11185307 On ch=1 n=10 v=100
11185615 Off ch=1 n=10 v=0
11186386 On ch=1 n=7 v=100
11186646 Off ch=1 n=7 v=0
11186818 On ch=1 n=29 v=100
11186905 Off ch=1 n=29 v=0
11187355 On ch=1 n=9 v=100
11187664 Off ch=1 n=9 v=0
11188435 On ch=1 n=7 v=100
11188695 Off ch=1 n=7 v=0
11188867 On ch=1 n=29 v=100
11188954 Off ch=1 n=29 v=0
11189418 On ch=1 n=10 v=100
11189721 Off ch=1 n=10 v=0
11190428 On ch=1 n=9 v=100
11190737 Off ch=1 n=9 v=0
11191507 On ch=1 n=8 v=100
11191579 Off ch=1 n=8 v=0
11193052 On ch=1 n=13 v=100
11193162 Off ch=1 n=13 v=0
11193250 On ch=1 n=36 v=100
11193428 Off ch=1 n=36 v=0
11196475 On ch=1 n=13 v=100
11196577 Off ch=1 n=13 v=0
11196803 On ch=1 n=9 v=100
11196919 Off ch=1 n=9 v=0
11200027 On ch=1 n=3 v=100
11200986 Off ch=1 n=3 v=0
11204093 On ch=1 n=14 v=100
11204238 Off ch=1 n=14 v=0
11222113 On ch=1 n=35 v=100
11222175 Off ch=1 n=35 v=0
11222525 On ch=1 n=32 v=100
11222609 Off ch=1 n=32 v=0
11223007 On ch=1 n=8 v=100
11223266 Off ch=1 n=8 v=0
11223500 On ch=1 n=14 v=100
11223674 Off ch=1 n=14 v=0
11223815 On ch=1 n=14 v=100
11223895 Off ch=1 n=14 v=0
11241680 On ch=1 n=8 v=100
11242922 Off ch=1 n=8 v=0
11243050 On ch=1 n=19 v=100
11243482 Off ch=1 n=19 v=0
11244021 On ch=1 n=5 v=100
11244062 Off ch=1 n=5 v=0
11247296 On ch=1 n=20 v=100
11247344 Off ch=1 n=20 v=0
11248297 On ch=1 n=12 v=100
11248402 Off ch=1 n=12 v=0
11250630 On ch=1 n=11 v=100
11251115 On ch=1 n=18 v=100
11251118 Off ch=1 n=11 v=0
11251497 Off ch=1 n=18 v=0
11251614 On ch=1 n=17 v=100
11252193 Off ch=1 n=17 v=0
11253897 On ch=1 n=38 v=100
11253998 On ch=1 n=5 v=100
11254000 Off ch=1 n=38 v=0
11255111 Off ch=1 n=5 v=0
11257384 On ch=1 n=24 v=100
11257445 Off ch=1 n=24 v=0
11257792 On ch=1 n=35 v=100
11257868 Off ch=1 n=35 v=0
11258145 On ch=1 n=10 v=100
11258259 Off ch=1 n=10 v=0
11258519 On ch=1 n=29 v=100
11258626 Off ch=1 n=29 v=0
11262084 On ch=1 n=14 v=100
11262194 Off ch=1 n=14 v=0
11262843 On ch=1 n=35 v=100
11262916 Off ch=1 n=35 v=0
11268828 On ch=1 n=5 v=100
11270181 Off ch=1 n=5 v=0
11270641 On ch=1 n=50 v=100
11270681 On ch=1 n=21 v=100
11270883 Off ch=1 n=50 v=0
11270884 Off ch=1 n=21 v=0
11280325 On ch=1 n=13 v=100
11280960 On ch=1 n=6 v=100
11280962 Off ch=1 n=13 v=0
11281348 Off ch=1 n=6 v=0
11339800 On ch=1 n=1 v=100
11342284 On ch=1 n=7 v=100
11342294 Off ch=1 n=1 v=0
11343621 On ch=1 n=35 v=100
11343663 Off ch=1 n=7 v=0
11343678 On ch=1 n=4 v=100
11343772 Off ch=1 n=35 v=0
11344281 On ch=1 n=11 v=100
11344283 Off ch=1 n=4 v=0
11344933 Off ch=1 n=11 v=0
11354688 On ch=1 n=10 v=100
11354736 Off ch=1 n=10 v=0
11355303 On ch=1 n=12 v=100
11355408 Off ch=1 n=12 v=0
11355939 On ch=1 n=34 v=100
11356023 Off ch=1 n=34 v=0
11357650 On ch=1 n=50 v=100
11357686 On ch=1 n=4 v=100
11357840 Off ch=1 n=4 v=0
11357855 Off ch=1 n=50 v=0
11359499 On ch=1 n=30 v=100
11359936 Off ch=1 n=30 v=0
11360256 On ch=1 n=16 v=100
11360581 Off ch=1 n=16 v=0
11360583 On ch=1 n=4 v=100
11360978 Off ch=1 n=4 v=0
11360998 On ch=1 n=3 v=100
11361030 On ch=1 n=53 v=100
11361102 On ch=1 n=24 v=100
11361132 Off ch=1 n=3 v=0
11361150 Off ch=1 n=53 v=0
11361216 Off ch=1 n=24 v=0
11361325 On ch=1 n=3 v=100
11361427 Off ch=1 n=3 v=0
11361736 On ch=1 n=20 v=100
11361905 Off ch=1 n=20 v=0
11363315 On ch=1 n=10 v=100
11363423 Off ch=1 n=10 v=0
11364795 On ch=1 n=1 v=100
11365492 Off ch=1 n=1 v=0
11373070 On ch=1 n=2 v=100
11374847 Off ch=1 n=2 v=0
11376459 On ch=1 n=13 v=100
11376499 Off ch=1 n=13 v=0
11376653 On ch=1 n=18 v=100
11376741 Off ch=1 n=18 v=0
11386618 On ch=1 n=47 v=100
11386764 Off ch=1 n=47 v=0
11390702 On ch=1 n=10 v=100
11391528 Off ch=1 n=10 v=0
11398633 On ch=1 n=4 v=100
11399308 Off ch=1 n=4 v=0
11400887 On ch=1 n=8 v=100
11400951 On ch=1 n=43 v=100
11401566 Off ch=1 n=8 v=0
11401777 Off ch=1 n=43 v=0
11404586 On ch=1 n=49 v=100
11404586 On ch=1 n=49 v=100
11404628 On ch=1 n=6 v=100
11404628 On ch=1 n=6 v=100
11404631 On ch=1 n=75 v=100
11404631 On ch=1 n=75 v=100
11404960 Off ch=1 n=49 v=0
11404960 Off ch=1 n=49 v=0
11404963 Off ch=1 n=6 v=0
11404963 Off ch=1 n=6 v=0
11405096 Off ch=1 n=75 v=0
11405096 Off ch=1 n=75 v=0
11419499 On ch=1 n=3 v=100
11419654 Off ch=1 n=3 v=0
11419684 On ch=1 n=3 v=100
11419845 Off ch=1 n=3 v=0
11424733 On ch=1 n=13 v=100
11424813 Off ch=1 n=13 v=0
11424954 On ch=1 n=14 v=100
11425128 Off ch=1 n=14 v=0
11425397 On ch=1 n=8 v=100
11425676 Off ch=1 n=8 v=0
11426078 On ch=1 n=42 v=100
11426152 Off ch=1 n=42 v=0
11426506 On ch=1 n=34 v=100
11426569 Off ch=1 n=34 v=0
11437380 On ch=1 n=28 v=100
11437440 Off ch=1 n=28 v=0
11438441 On ch=1 n=9 v=100
11438850 Off ch=1 n=9 v=0
11449927 On ch=1 n=5 v=100
11450131 Off ch=1 n=5 v=0
11452261 On ch=1 n=8 v=100
11452546 Off ch=1 n=8 v=0
11452628 On ch=1 n=5 v=100
11452863 Off ch=1 n=5 v=0
11466626 On ch=1 n=7 v=100
11466973 Off ch=1 n=7 v=0
11467007 On ch=1 n=6 v=100
11467908 Off ch=1 n=6 v=0
11467957 On ch=1 n=2 v=100
11474224 On ch=1 n=8 v=100
11474229 Off ch=1 n=2 v=0
11474301 Off ch=1 n=8 v=0
11475187 On ch=1 n=19 v=100
11475388 Off ch=1 n=19 v=0
11475448 On ch=1 n=10 v=100
11475664 Off ch=1 n=10 v=0
11476023 On ch=1 n=7 v=100
11477036 Off ch=1 n=7 v=0
11477920 On ch=1 n=20 v=100
11478098 On ch=1 n=11 v=100
11478098 Off ch=1 n=20 v=0
11478172 Off ch=1 n=11 v=0
11478265 On ch=1 n=18 v=100
11478388 Off ch=1 n=18 v=0
11483022 On ch=1 n=1 v=100
11483551 On ch=1 n=3 v=100
11483559 Off ch=1 n=1 v=0
11484005 Off ch=1 n=3 v=0
11484303 On ch=1 n=3 v=100
11484668 Off ch=1 n=3 v=0
11526777 On ch=1 n=2 v=100
11528226 Off ch=1 n=2 v=0
11529114 On ch=1 n=3 v=100
11530752 On ch=1 n=16 v=100
11530752 Off ch=1 n=3 v=0
11530960 Off ch=1 n=16 v=0
11534272 On ch=1 n=7 v=100
11534496 On ch=1 n=64 v=100
11534666 On ch=1 n=8 v=100
11534671 Off ch=1 n=7 v=0
11535129 Off ch=1 n=8 v=0
11535197 Off ch=1 n=64 v=0
11536228 On ch=1 n=3 v=100
11536408 Off ch=1 n=3 v=0
11542476 On ch=1 n=6 v=100
11542574 Off ch=1 n=6 v=0
11544155 On ch=1 n=57 v=100
11544215 On ch=1 n=6 v=100
11544631 Off ch=1 n=57 v=0
11545609 Off ch=1 n=6 v=0
11546291 On ch=1 n=7 v=100
11546919 Off ch=1 n=7 v=0
11547453 On ch=1 n=15 v=100
11547557 Off ch=1 n=15 v=0
11548946 On ch=1 n=6 v=100
11549973 Off ch=1 n=6 v=0
11550771 On ch=1 n=6 v=100
11550834 Off ch=1 n=6 v=0
11552801 On ch=1 n=14 v=100
11553231 Off ch=1 n=14 v=0
11554589 On ch=1 n=14 v=100
11555304 Off ch=1 n=14 v=0
11607379 On ch=1 n=3 v=100
11607744 Off ch=1 n=3 v=0
11608042 On ch=1 n=3 v=100
11608488 On ch=1 n=1 v=100
11608496 Off ch=1 n=3 v=0
11609026 Off ch=1 n=1 v=0
11613122 On ch=1 n=16 v=100
11613247 Off ch=1 n=16 v=0
11613325 On ch=1 n=7 v=100
11614339 Off ch=1 n=7 v=0
11614698 On ch=1 n=10 v=100
11614913 Off ch=1 n=10 v=0
11614973 On ch=1 n=19 v=100
11615174 Off ch=1 n=19 v=0
11615984 On ch=1 n=6 v=100
11616997 Off ch=1 n=6 v=0
11617356 On ch=1 n=10 v=100
11617572 Off ch=1 n=10 v=0
11617632 On ch=1 n=19 v=100
11617833 Off ch=1 n=19 v=0
11618644 On ch=1 n=6 v=100
11619657 Off ch=1 n=6 v=0
11620016 On ch=1 n=10 v=100
11620232 Off ch=1 n=10 v=0
11620292 On ch=1 n=19 v=100
11620493 Off ch=1 n=19 v=0
11621303 On ch=1 n=6 v=100
11622316 Off ch=1 n=6 v=0
11622676 On ch=1 n=10 v=100
11622891 Off ch=1 n=10 v=0
11622951 On ch=1 n=19 v=100
11623152 Off ch=1 n=19 v=0
11623991 On ch=1 n=6 v=100
11624065 On ch=1 n=20 v=100
11624065 Off ch=1 n=6 v=0
11624243 Off ch=1 n=20 v=0
11625104 On ch=1 n=10 v=100
11626053 Off ch=1 n=10 v=0
11626408 On ch=1 n=14 v=100
11626624 Off ch=1 n=14 v=0
11626684 On ch=1 n=19 v=100
11626883 Off ch=1 n=19 v=0
11629853 On ch=1 n=10 v=100
11630111 Off ch=1 n=10 v=0
11630644 On ch=1 n=28 v=100
11630730 Off ch=1 n=28 v=0
11630900 On ch=1 n=3 v=100
11631325 Off ch=1 n=3 v=0
11631345 On ch=1 n=4 v=100
11631361 On ch=1 n=4 v=100
11633359 Off ch=1 n=4 v=0
11633775 Off ch=1 n=4 v=0
11633776 On ch=1 n=4 v=100
11634157 Off ch=1 n=4 v=0
11634161 On ch=1 n=10 v=100
11634480 On ch=1 n=3 v=100
11634518 Off ch=1 n=10 v=0
11637642 Off ch=1 n=3 v=0
11644914 On ch=1 n=8 v=100
11645225 Off ch=1 n=8 v=0
11649950 On ch=1 n=8 v=100
11650048 Off ch=1 n=8 v=0
11652148 On ch=1 n=49 v=100
11652655 Off ch=1 n=49 v=0
11653088 On ch=1 n=10 v=100
11653599 Off ch=1 n=10 v=0
11654905 On ch=1 n=14 v=100
11654946 On ch=1 n=69 v=100
11655881 Off ch=1 n=14 v=0
11655885 On ch=1 n=18 v=100
11656540 Off ch=1 n=18 v=0
11656541 Off ch=1 n=69 v=0
11657026 On ch=1 n=66 v=100
11657082 On ch=1 n=22 v=100
11657492 Off ch=1 n=66 v=0
11657508 Off ch=1 n=22 v=0
11659590 On ch=1 n=5 v=100
11660938 Off ch=1 n=5 v=0
11664376 On ch=1 n=30 v=100
11664435 Off ch=1 n=30 v=0
11665236 On ch=1 n=13 v=100
11665345 Off ch=1 n=13 v=0
11665433 On ch=1 n=40 v=100
11665621 Off ch=1 n=40 v=0
11666067 On ch=1 n=14 v=100
11666136 Off ch=1 n=14 v=0
11666272 On ch=1 n=2 v=100
11667598 Off ch=1 n=2 v=0
11676160 On ch=1 n=16 v=100
11676255 Off ch=1 n=16 v=0
11679238 On ch=1 n=3 v=100
11680257 Off ch=1 n=3 v=0
11680258 On ch=1 n=4 v=100
11680428 On ch=1 n=6 v=100
11680428 Off ch=1 n=4 v=0
11681843 Off ch=1 n=6 v=0
11684584 On ch=1 n=56 v=100
11685012 Off ch=1 n=56 v=0
11685179 On ch=1 n=14 v=100
11685729 Off ch=1 n=14 v=0
11686383 On ch=1 n=51 v=100
11686545 Off ch=1 n=51 v=0
11686677 On ch=1 n=17 v=100
11687082 Off ch=1 n=17 v=0
11687577 On ch=1 n=8 v=100
11687631 Off ch=1 n=8 v=0
11689203 On ch=1 n=9 v=100
11689311 Off ch=1 n=9 v=0
11690182 On ch=1 n=5 v=100
11690333 Off ch=1 n=5 v=0
11690654 On ch=1 n=4 v=100
11690826 On ch=1 n=45 v=100
11690920 Off ch=1 n=4 v=0
11690936 Off ch=1 n=45 v=0
11695638 On ch=1 n=36 v=100
11695835 Off ch=1 n=36 v=0
11695885 On ch=1 n=20 v=100
11695979 Off ch=1 n=20 v=0
11695981 On ch=1 n=11 v=100
11696183 On ch=1 n=8 v=100
11696195 Off ch=1 n=11 v=0
11696289 Off ch=1 n=8 v=0
11698067 On ch=1 n=45 v=100
11698209 Off ch=1 n=45 v=0
11698567 On ch=1 n=24 v=100
11698629 Off ch=1 n=24 v=0
11700893 On ch=1 n=25 v=100
11700958 Off ch=1 n=25 v=0
11705784 On ch=1 n=11 v=100
11705892 Off ch=1 n=11 v=0
11711287 On ch=1 n=1 v=100
11712850 Off ch=1 n=1 v=0
11748299 On ch=1 n=3 v=100
11748467 Off ch=1 n=3 v=0
11749154 On ch=1 n=2 v=100
11749322 Off ch=1 n=2 v=0
11750008 On ch=1 n=3 v=100
11750178 Off ch=1 n=3 v=0
11750864 On ch=1 n=3 v=100
11751032 Off ch=1 n=3 v=0
11758724 On ch=1 n=2 v=100
11760664 Off ch=1 n=2 v=0
11765606 On ch=1 n=16 v=100
11765737 Off ch=1 n=16 v=0
11765738 On ch=1 n=13 v=100
11765910 Off ch=1 n=13 v=0
11766389 On ch=1 n=6 v=100
11766454 Off ch=1 n=6 v=0
11768023 On ch=1 n=8 v=100
11768136 Off ch=1 n=8 v=0
11769392 On ch=1 n=14 v=100
11769429 On ch=1 n=22 v=100
11769439 Off ch=1 n=14 v=0
11769861 Off ch=1 n=22 v=0
11769864 On ch=1 n=5 v=100
11769887 On ch=1 n=56 v=100
11770256 Off ch=1 n=5 v=0
11770261 On ch=1 n=5 v=100
11770758 Off ch=1 n=56 v=0
11770849 Off ch=1 n=5 v=0
11775614 On ch=1 n=49 v=100
11775675 On ch=1 n=16 v=100
11775898 Off ch=1 n=49 v=0
11776207 Off ch=1 n=16 v=0
11776210 On ch=1 n=4 v=100
11776599 Off ch=1 n=4 v=0
11776604 On ch=1 n=6 v=100
11776812 Off ch=1 n=6 v=0
11779190 On ch=1 n=13 v=100
11779300 Off ch=1 n=13 v=0
11779383 On ch=1 n=33 v=100
11779562 Off ch=1 n=33 v=0
11782012 On ch=1 n=27 v=100
11782121 Off ch=1 n=27 v=0
11782378 On ch=1 n=13 v=100
11782492 Off ch=1 n=13 v=0
11782768 On ch=1 n=35 v=100
11782844 Off ch=1 n=35 v=0
11783192 On ch=1 n=24 v=100
11783253 Off ch=1 n=24 v=0
11785549 On ch=1 n=4 v=100
11786663 On ch=1 n=38 v=100
11786665 Off ch=1 n=4 v=0
11786766 Off ch=1 n=38 v=0
11788591 On ch=1 n=17 v=100
11789167 Off ch=1 n=17 v=0
11789285 On ch=1 n=18 v=100
11789662 On ch=1 n=10 v=100
11789666 Off ch=1 n=18 v=0
11790141 Off ch=1 n=10 v=0
11792379 On ch=1 n=10 v=100
11792481 Off ch=1 n=10 v=0
11795706 On ch=1 n=20 v=100
11796116 Off ch=1 n=20 v=0
11796249 On ch=1 n=10 v=100
11796825 Off ch=1 n=10 v=0
11798112 On ch=1 n=33 v=100
11798225 Off ch=1 n=33 v=0
11803802 On ch=1 n=1 v=100
11809620 Off ch=1 n=1 v=0
11810611 On ch=1 n=59 v=100
11810613 On ch=1 n=64 v=100
11810732 Off ch=1 n=59 v=0
11810750 Off ch=1 n=64 v=0
11811811 On ch=1 n=65 v=100
11811874 On ch=1 n=38 v=100
11811925 Off ch=1 n=38 v=0
11811947 Off ch=1 n=65 v=0
11814013 On ch=1 n=62 v=100
11814138 Off ch=1 n=62 v=0
11819289 On ch=1 n=8 v=100
11819550 Off ch=1 n=8 v=0
11819559 On ch=1 n=1 v=100
11821088 Off ch=1 n=1 v=0
11821190 On ch=1 n=4 v=100
11821415 Off ch=1 n=4 v=0
11821488 On ch=1 n=3 v=100
11821708 Off ch=1 n=3 v=0
11821786 On ch=1 n=4 v=100
11822011 Off ch=1 n=4 v=0
11822084 On ch=1 n=9 v=100
11822299 On ch=1 n=1 v=100
11822443 Off ch=1 n=9 v=0
11827855 Off ch=1 n=1 v=0
11827943 On ch=1 n=4 v=100
11827981 On ch=1 n=14 v=100
11827984 Off ch=1 n=4 v=0
11828047 Off ch=1 n=14 v=0
11828120 On ch=1 n=2 v=100
11828154 On ch=1 n=15 v=100
11828161 Off ch=1 n=2 v=0
11828224 Off ch=1 n=15 v=0
11828296 On ch=1 n=2 v=100
11828334 On ch=1 n=13 v=100
11828337 Off ch=1 n=2 v=0
11828400 Off ch=1 n=13 v=0
11828473 On ch=1 n=4 v=100
11828511 On ch=1 n=12 v=100
11828514 Off ch=1 n=4 v=0
11828577 Off ch=1 n=12 v=0
11828650 On ch=1 n=4 v=100
11828688 On ch=1 n=12 v=100
11828691 Off ch=1 n=4 v=0
11828754 Off ch=1 n=12 v=0
11828827 On ch=1 n=4 v=100
11828865 On ch=1 n=14 v=100
11828868 Off ch=1 n=4 v=0
11828931 Off ch=1 n=14 v=0
11829004 On ch=1 n=4 v=100
11829042 On ch=1 n=12 v=100
11829045 Off ch=1 n=4 v=0
11829108 Off ch=1 n=12 v=0
11829181 On ch=1 n=6 v=100
11829219 On ch=1 n=12 v=100
11829225 Off ch=1 n=6 v=0
11829285 Off ch=1 n=12 v=0
11829358 On ch=1 n=2 v=100
11829394 On ch=1 n=15 v=100
11829399 Off ch=1 n=2 v=0
11829462 Off ch=1 n=15 v=0
11829535 On ch=1 n=4 v=100
11829573 On ch=1 n=12 v=100
11829576 Off ch=1 n=4 v=0
11829639 Off ch=1 n=12 v=0
11829712 On ch=1 n=2 v=100
11829748 On ch=1 n=15 v=100
11829753 Off ch=1 n=2 v=0
11829816 Off ch=1 n=15 v=0
11829889 On ch=1 n=4 v=100
11829927 On ch=1 n=12 v=100
11829930 Off ch=1 n=4 v=0
11829993 Off ch=1 n=12 v=0
11830066 On ch=1 n=2 v=100
11830104 On ch=1 n=12 v=100
11830107 Off ch=1 n=2 v=0
11830170 Off ch=1 n=12 v=0
11830243 On ch=1 n=4 v=100
11830281 On ch=1 n=16 v=100
11830284 Off ch=1 n=4 v=0
11830346 Off ch=1 n=16 v=0
11830420 On ch=1 n=2 v=100
11830458 On ch=1 n=12 v=100
11830461 Off ch=1 n=2 v=0
11830524 Off ch=1 n=12 v=0
11830597 On ch=1 n=2 v=100
11830635 On ch=1 n=11 v=100
11830638 Off ch=1 n=2 v=0
11830701 Off ch=1 n=11 v=0
11830774 On ch=1 n=2 v=100
11830812 On ch=1 n=12 v=100
11830815 Off ch=1 n=2 v=0
11830878 Off ch=1 n=12 v=0
11830951 On ch=1 n=2 v=100
11830992 Off ch=1 n=2 v=0
11831049 On ch=1 n=0 v=100
11836496 Off ch=1 n=0 v=0
11868737 On ch=1 n=32 v=100
11869164 On ch=1 n=49 v=100
11869481 On ch=1 n=8 v=100
11869481 Off ch=1 n=32 v=0
11869522 Off ch=1 n=49 v=0
11869620 Off ch=1 n=8 v=0
11869640 On ch=1 n=23 v=100
11870162 Off ch=1 n=23 v=0
11870726 On ch=1 n=41 v=100
11872274 Off ch=1 n=41 v=0
11875064 On ch=1 n=9 v=100
11875241 Off ch=1 n=9 v=0
11875279 On ch=1 n=9 v=100
11875721 Off ch=1 n=9 v=0
11875825 On ch=1 n=12 v=100
11875964 On ch=1 n=48 v=100
11876304 Off ch=1 n=12 v=0
11876310 On ch=1 n=2 v=100
11877533 Off ch=1 n=48 v=0
11877741 Off ch=1 n=2 v=0
11877811 On ch=1 n=9 v=100
11878576 Off ch=1 n=9 v=0
11879126 On ch=1 n=13 v=100
11879325 Off ch=1 n=13 v=0
11879981 On ch=1 n=38 v=100
11880071 Off ch=1 n=38 v=0
11883827 On ch=1 n=10 v=100
11883936 Off ch=1 n=10 v=0
11891720 On ch=1 n=44 v=100
11891944 Off ch=1 n=44 v=0
11924965 On ch=1 n=63 v=100
11925319 On ch=1 n=58 v=100
11925481 On ch=1 n=57 v=100
11926403 Off ch=1 n=63 v=0
11926440 Off ch=1 n=58 v=0
11926491 On ch=1 n=41 v=100
11927682 Off ch=1 n=57 v=0
11928035 Off ch=1 n=41 v=0
11928764 On ch=1 n=40 v=100
11929112 Off ch=1 n=40 v=0
11931574 On ch=1 n=49 v=100
11931642 On ch=1 n=57 v=100
11932113 Off ch=1 n=49 v=0
11932346 On ch=1 n=40 v=100
11932817 Off ch=1 n=57 v=0
11933280 Off ch=1 n=40 v=0
11961291 On ch=1 n=47 v=100
11961854 On ch=1 n=6 v=100
11961861 Off ch=1 n=47 v=0
11961931 Off ch=1 n=6 v=0
11961960 On ch=1 n=4 v=100
11962106 Off ch=1 n=4 v=0
11989467 On ch=1 n=31 v=100
11989534 Off ch=1 n=31 v=0
11990329 On ch=1 n=12 v=100
11990751 Off ch=1 n=12 v=0
11990762 On ch=1 n=6 v=100
11991289 Off ch=1 n=6 v=0
11992879 On ch=1 n=7 v=100
11993054 On ch=1 n=9 v=100
11993054 Off ch=1 n=7 v=0
11993233 Off ch=1 n=9 v=0
11993234 On ch=1 n=12 v=100
11993396 Off ch=1 n=12 v=0
12004934 On ch=1 n=52 v=100
12005371 On ch=1 n=0 v=100
12005505 Off ch=1 n=0 v=0
12005515 Off ch=1 n=52 v=0
12005588 On ch=1 n=45 v=100
12006091 Off ch=1 n=45 v=0
12010857 On ch=1 n=61 v=100
12011239 Off ch=1 n=61 v=0
12037463 On ch=1 n=57 v=100
12038139 Off ch=1 n=57 v=0
12038433 On ch=1 n=10 v=100
12040139 Off ch=1 n=10 v=0
12049894 On ch=1 n=7 v=100
12051547 On ch=1 n=28 v=100
12051549 Off ch=1 n=7 v=0
12052107 Off ch=1 n=28 v=0
12070104 On ch=1 n=32 v=100
12070197 Off ch=1 n=32 v=0
12070673 On ch=1 n=4 v=100
12074606 Off ch=1 n=4 v=0
12079779 On ch=1 n=31 v=100
12080227 Off ch=1 n=31 v=0
12081852 On ch=1 n=45 v=100
12081852 On ch=1 n=45 v=100
12082173 Off ch=1 n=45 v=0
12082173 Off ch=1 n=45 v=0
12082425 On ch=1 n=28 v=100
12082707 Off ch=1 n=28 v=0
12083343 On ch=1 n=38 v=100
12083439 Off ch=1 n=38 v=0
12083532 On ch=1 n=39 v=100
12083836 Off ch=1 n=39 v=0
12084042 On ch=1 n=38 v=100
12084150 Off ch=1 n=38 v=0
12088813 On ch=1 n=31 v=100
12089015 Off ch=1 n=31 v=0
12089038 On ch=1 n=28 v=100
12089818 Off ch=1 n=28 v=0
12111843 On ch=1 n=53 v=100
12111845 On ch=1 n=56 v=100
12112146 Off ch=1 n=53 v=0
12112185 Off ch=1 n=56 v=0
12118254 On ch=1 n=55 v=100
12118393 Off ch=1 n=55 v=0
12118614 On ch=1 n=52 v=100
12118973 Off ch=1 n=52 v=0
12149710 On ch=1 n=3 v=100
12156375 Off ch=1 n=3 v=0
12156376 On ch=1 n=15 v=100
12156522 On ch=1 n=3 v=100
12156533 Off ch=1 n=15 v=0
12156713 Off ch=1 n=3 v=0
12157948 On ch=1 n=7 v=100
12158174 On ch=1 n=4 v=100
12158247 Off ch=1 n=7 v=0
12160079 Off ch=1 n=4 v=0
12160249 On ch=1 n=27 v=100
12160335 Off ch=1 n=27 v=0
12160818 On ch=1 n=12 v=100
12161122 Off ch=1 n=12 v=0
12161358 On ch=1 n=2 v=100
12163425 Off ch=1 n=2 v=0
12164465 On ch=1 n=13 v=100
12164469 On ch=1 n=3 v=100
12165490 Off ch=1 n=3 v=0
12165658 On ch=1 n=20 v=100
12165665 Off ch=1 n=13 v=0
12165690 On ch=1 n=8 v=100
12165766 Off ch=1 n=20 v=0
12165767 Off ch=1 n=8 v=0
12171183 On ch=1 n=13 v=100
12171614 On ch=1 n=63 v=100
12172075 Off ch=1 n=13 v=0
12172168 Off ch=1 n=63 v=0
12174701 On ch=1 n=31 v=100
12174783 Off ch=1 n=31 v=0
12175532 On ch=1 n=17 v=100
12175615 Off ch=1 n=17 v=0
12175647 On ch=1 n=17 v=100
12175681 Off ch=1 n=17 v=0
12175795 On ch=1 n=17 v=100
12175897 Off ch=1 n=17 v=0
12178818 On ch=1 n=11 v=100
12178914 Off ch=1 n=11 v=0
12178962 On ch=1 n=11 v=100
12179070 Off ch=1 n=11 v=0
12179438 On ch=1 n=37 v=100
12179521 Off ch=1 n=37 v=0
12183628 On ch=1 n=14 v=100
12183709 Off ch=1 n=14 v=0
12186113 On ch=1 n=15 v=100
12186258 Off ch=1 n=15 v=0
12190198 On ch=1 n=58 v=100
12190603 Off ch=1 n=58 v=0
12194652 On ch=1 n=46 v=100
12195226 On ch=1 n=5 v=100
12195232 Off ch=1 n=46 v=0
12195303 Off ch=1 n=5 v=0
12195332 On ch=1 n=2 v=100
12195477 Off ch=1 n=2 v=0
12218469 On ch=1 n=36 v=100
12218643 Off ch=1 n=36 v=0
12220114 On ch=1 n=20 v=100
12220150 Off ch=1 n=20 v=0
12220200 On ch=1 n=20 v=100
12220223 Off ch=1 n=20 v=0
12232559 On ch=1 n=7 v=100
12233174 Off ch=1 n=7 v=0
12233282 On ch=1 n=8 v=100
12233331 Off ch=1 n=8 v=0
12251168 On ch=1 n=1 v=100
12252193 Off ch=1 n=1 v=0
12254641 On ch=1 n=15 v=100
12255082 Off ch=1 n=15 v=0
12256542 On ch=1 n=5 v=100
12257549 Off ch=1 n=5 v=0
12259442 On ch=1 n=12 v=100
12259550 Off ch=1 n=12 v=0
12260082 On ch=1 n=8 v=100
12260710 Off ch=1 n=8 v=0
12261371 On ch=1 n=8 v=100
12261906 Off ch=1 n=8 v=0
12261907 On ch=1 n=5 v=100
12262805 Off ch=1 n=5 v=0
12267283 On ch=1 n=5 v=100
12267463 Off ch=1 n=5 v=0
12268553 On ch=1 n=71 v=100
12268607 On ch=1 n=8 v=100
12268830 On ch=1 n=57 v=100
12269033 Off ch=1 n=71 v=0
12269071 On ch=1 n=8 v=100
12269076 Off ch=1 n=8 v=0
12269349 Off ch=1 n=57 v=0
12269470 Off ch=1 n=8 v=0
12316115 On ch=1 n=3 v=100
12316480 Off ch=1 n=3 v=0
12316778 On ch=1 n=3 v=100
12317224 On ch=1 n=1 v=100
12317232 Off ch=1 n=3 v=0
12317762 Off ch=1 n=1 v=0
12321331 On ch=1 n=18 v=100
12321453 Off ch=1 n=18 v=0
12321820 On ch=1 n=11 v=100
12322036 Off ch=1 n=11 v=0
12322096 On ch=1 n=19 v=100
12322297 Off ch=1 n=19 v=0
12323188 On ch=1 n=7 v=100
12324195 Off ch=1 n=7 v=0
12324553 On ch=1 n=11 v=100
12324769 Off ch=1 n=11 v=0
12324829 On ch=1 n=19 v=100
12325030 Off ch=1 n=19 v=0
12325921 On ch=1 n=7 v=100
12326928 Off ch=1 n=7 v=0
12327286 On ch=1 n=11 v=100
12327502 Off ch=1 n=11 v=0
12327562 On ch=1 n=19 v=100
12327763 Off ch=1 n=19 v=0
12328618 On ch=1 n=7 v=100
12328830 Off ch=1 n=7 v=0
12332348 On ch=1 n=15 v=100
12332497 Off ch=1 n=15 v=0
12335541 On ch=1 n=2 v=100
12336474 Off ch=1 n=2 v=0
12336719 On ch=1 n=5 v=100
12337090 Off ch=1 n=5 v=0
12340891 On ch=1 n=9 v=100
12341007 Off ch=1 n=9 v=0
12341233 On ch=1 n=14 v=100
12341332 Off ch=1 n=14 v=0
12342408 On ch=1 n=5 v=100
12342936 Off ch=1 n=5 v=0
12344777 On ch=1 n=37 v=100
12344960 Off ch=1 n=37 v=0
12345043 On ch=1 n=12 v=100
12345154 Off ch=1 n=12 v=0
12347062 On ch=1 n=7 v=100
12347322 Off ch=1 n=7 v=0
12348614 On ch=1 n=9 v=100
12348917 Off ch=1 n=9 v=0
12349626 On ch=1 n=6 v=100
12349884 Off ch=1 n=6 v=0
12350393 On ch=1 n=31 v=100
12350480 Off ch=1 n=31 v=0
12350488 On ch=1 n=33 v=100
12350497 Off ch=1 n=33 v=0
12350542 On ch=1 n=3 v=100
12354961 Off ch=1 n=3 v=0
12360108 On ch=1 n=11 v=100
12360921 Off ch=1 n=11 v=0
12361278 On ch=1 n=11 v=100
12361493 Off ch=1 n=11 v=0
12361553 On ch=1 n=20 v=100
12361754 Off ch=1 n=20 v=0
12362655 On ch=1 n=9 v=100
12363668 Off ch=1 n=9 v=0
12364026 On ch=1 n=12 v=100
12364231 Off ch=1 n=12 v=0
12364858 On ch=1 n=8 v=100
12365731 Off ch=1 n=8 v=0
12371945 On ch=1 n=18 v=100
12372007 On ch=1 n=15 v=100
12372014 Off ch=1 n=18 v=0
12372603 Off ch=1 n=15 v=0
12374369 On ch=1 n=39 v=100
12374386 On ch=1 n=20 v=100
12374506 Off ch=1 n=39 v=0
12374507 Off ch=1 n=20 v=0
12407878 On ch=1 n=2 v=100
12408376 Off ch=1 n=2 v=0
12410975 On ch=1 n=13 v=100
12411806 Off ch=1 n=13 v=0
12419207 On ch=1 n=12 v=100
12419208 On ch=1 n=1 v=100
12419309 Off ch=1 n=1 v=0
12419345 On ch=1 n=13 v=100
12419348 Off ch=1 n=12 v=0
12419519 On ch=1 n=4 v=100
12419520 On ch=1 n=50 v=100
12420276 On ch=1 n=31 v=100
12420276 Off ch=1 n=13 v=0
12420465 Off ch=1 n=4 v=0
12421051 On ch=1 n=8 v=100
12422391 Off ch=1 n=50 v=0
12422391 Off ch=1 n=31 v=0
12422391 Off ch=1 n=8 v=0
12422466 On ch=1 n=50 v=100
12422466 On ch=1 n=8 v=100
12423267 On ch=1 n=7 v=100
12423267 Off ch=1 n=8 v=0
12423294 Off ch=1 n=50 v=0
12423323 Off ch=1 n=7 v=0
12437754 On ch=1 n=29 v=100
12437952 Off ch=1 n=29 v=0
12458031 On ch=1 n=7 v=100
12458291 Off ch=1 n=7 v=0
12459062 On ch=1 n=8 v=100
12459322 Off ch=1 n=8 v=0
12460091 On ch=1 n=6 v=100
12460351 Off ch=1 n=6 v=0
12461128 On ch=1 n=9 v=100
12461388 Off ch=1 n=9 v=0
12461995 On ch=1 n=9 v=100
12462132 Off ch=1 n=9 v=0
12462133 On ch=1 n=13 v=100
12462190 Off ch=1 n=13 v=0
12462202 On ch=1 n=9 v=100
12462623 Off ch=1 n=9 v=0
12462624 On ch=1 n=9 v=100
12462807 Off ch=1 n=9 v=0
12462819 On ch=1 n=8 v=100
12463247 On ch=1 n=12 v=100
12463338 Off ch=1 n=8 v=0
12463436 Off ch=1 n=12 v=0
12463447 On ch=1 n=9 v=100
12463886 On ch=1 n=12 v=100
12463967 Off ch=1 n=9 v=0
12464067 Off ch=1 n=12 v=0
12464079 On ch=1 n=7 v=100
12464498 Off ch=1 n=7 v=0
12464499 On ch=1 n=10 v=100
12464680 Off ch=1 n=10 v=0
12464691 On ch=1 n=6 v=100
12464949 Off ch=1 n=6 v=0
12466197 On ch=1 n=30 v=100
12469328 Off ch=1 n=30 v=0
12480728 On ch=1 n=56 v=100
12480852 Off ch=1 n=56 v=0
12483129 On ch=1 n=38 v=100
12483131 On ch=1 n=60 v=100
12483180 Off ch=1 n=38 v=0
12483243 Off ch=1 n=60 v=0
12484327 On ch=1 n=39 v=100
12484329 On ch=1 n=60 v=100
12484377 Off ch=1 n=39 v=0
12484441 Off ch=1 n=60 v=0
12503810 On ch=1 n=1 v=100
12505332 Off ch=1 n=1 v=0
12506331 On ch=1 n=49 v=100
12506696 Off ch=1 n=49 v=0
12507093 On ch=1 n=38 v=100
12507169 Off ch=1 n=38 v=0
12512512 On ch=1 n=18 v=100
12512663 Off ch=1 n=18 v=0
12514330 On ch=1 n=19 v=100
12514681 Off ch=1 n=19 v=0
12514789 On ch=1 n=45 v=100
12514971 Off ch=1 n=45 v=0
12522384 On ch=1 n=22 v=100
12522534 Off ch=1 n=22 v=0
12526559 On ch=1 n=16 v=100
12527147 On ch=1 n=55 v=100
12527177 Off ch=1 n=16 v=0
12527182 On ch=1 n=16 v=100
12527237 Off ch=1 n=16 v=0
12527320 Off ch=1 n=55 v=0
12527439 On ch=1 n=8 v=100
12527515 Off ch=1 n=8 v=0
12558566 On ch=1 n=35 v=100
12558679 Off ch=1 n=35 v=0
12559074 On ch=1 n=22 v=100
12559169 Off ch=1 n=22 v=0
12559176 On ch=1 n=61 v=100
12559343 Off ch=1 n=61 v=0
12583688 On ch=1 n=38 v=100
12583870 Off ch=1 n=38 v=0
12583959 On ch=1 n=11 v=100
12584069 Off ch=1 n=11 v=0
12591584 On ch=1 n=5 v=100
12591814 Off ch=1 n=5 v=0
12591842 On ch=1 n=0 v=100
12597629 Off ch=1 n=0 v=0
12597630 On ch=1 n=16 v=100
12597799 Off ch=1 n=16 v=0
12603477 On ch=1 n=8 v=100
12603560 Off ch=1 n=8 v=0
12607181 On ch=1 n=10 v=100
12607499 Off ch=1 n=10 v=0
12612207 On ch=1 n=19 v=100
12612385 Off ch=1 n=19 v=0
12615836 On ch=1 n=32 v=100
12615898 Off ch=1 n=32 v=0
12616119 On ch=1 n=7 v=100
12616511 Off ch=1 n=7 v=0
12623988 On ch=1 n=5 v=100
12624567 Off ch=1 n=5 v=0
12624569 On ch=1 n=11 v=100
12624624 On ch=1 n=8 v=100
12624635 Off ch=1 n=11 v=0
12625127 Off ch=1 n=8 v=0
12626999 On ch=1 n=6 v=100
12627268 On ch=1 n=13 v=100
12627607 Off ch=1 n=6 v=0
12628402 Off ch=1 n=13 v=0
12634253 On ch=1 n=40 v=100
12635065 Off ch=1 n=40 v=0
12638476 On ch=1 n=8 v=100
12638812 Off ch=1 n=8 v=0
12641588 On ch=1 n=25 v=100
12641694 Off ch=1 n=25 v=0
12649468 On ch=1 n=8 v=100
12649718 On ch=1 n=6 v=100
12649767 Off ch=1 n=8 v=0
12650007 Off ch=1 n=6 v=0
12653180 On ch=1 n=6 v=100
12653346 Off ch=1 n=6 v=0
12656803 On ch=1 n=12 v=100
12656891 Off ch=1 n=12 v=0
12666520 On ch=1 n=32 v=100
12666521 On ch=1 n=11 v=100
12666657 Off ch=1 n=11 v=0
12666715 Off ch=1 n=32 v=0
12668326 On ch=1 n=9 v=100
12668428 Off ch=1 n=9 v=0
12668676 On ch=1 n=12 v=100
12668731 Off ch=1 n=12 v=0
12669205 On ch=1 n=8 v=100
12669826 Off ch=1 n=8 v=0
12669908 On ch=1 n=5 v=100
12671910 Off ch=1 n=5 v=0
12671974 On ch=1 n=7 v=100
12672568 Off ch=1 n=7 v=0
12675033 On ch=1 n=13 v=100
12675255 Off ch=1 n=13 v=0
12675803 On ch=1 n=13 v=100
12676003 Off ch=1 n=13 v=0
12680529 On ch=1 n=15 v=100
12680634 Off ch=1 n=15 v=0
12683060 On ch=1 n=14 v=100
12683177 Off ch=1 n=14 v=0
12700975 On ch=1 n=62 v=100
12701125 Off ch=1 n=62 v=0
12702175 On ch=1 n=58 v=100
12702294 Off ch=1 n=58 v=0
12707185 On ch=1 n=11 v=100
12707355 Off ch=1 n=11 v=0
12708123 On ch=1 n=8 v=100
12708384 Off ch=1 n=8 v=0
12708576 On ch=1 n=31 v=100
12708666 Off ch=1 n=31 v=0
12708687 On ch=1 n=50 v=100
12708930 On ch=1 n=46 v=100
12709659 Off ch=1 n=50 v=0
12710238 On ch=1 n=0 v=100
12712037 On ch=1 n=51 v=100
12712201 Off ch=1 n=0 v=0
12712365 On ch=1 n=2 v=100
12712397 Off ch=1 n=46 v=0
12712791 Off ch=1 n=51 v=0
12712841 Off ch=1 n=2 v=0
12716817 On ch=1 n=8 v=100
12716882 Off ch=1 n=8 v=0
12720830 On ch=1 n=10 v=100
12720871 Off ch=1 n=10 v=0
12724672 On ch=1 n=26 v=100
12724736 Off ch=1 n=26 v=0
12725092 On ch=1 n=40 v=100
12725172 Off ch=1 n=40 v=0
12726668 On ch=1 n=15 v=100
12726762 On ch=1 n=10 v=100
12726780 Off ch=1 n=15 v=0
12726993 Off ch=1 n=10 v=0
12727022 On ch=1 n=19 v=100
12727114 Off ch=1 n=19 v=0
12727167 On ch=1 n=35 v=100
12727359 Off ch=1 n=35 v=0
12731868 On ch=1 n=26 v=100
12731939 Off ch=1 n=26 v=0
12733759 On ch=1 n=7 v=100
12734214 Off ch=1 n=7 v=0
12735330 On ch=1 n=9 v=100
12735437 Off ch=1 n=9 v=0
12737657 On ch=1 n=18 v=100
12737875 Off ch=1 n=18 v=0
12740019 On ch=1 n=22 v=100
12740258 Off ch=1 n=22 v=0
12740378 On ch=1 n=50 v=100
12740655 Off ch=1 n=50 v=0
12741376 On ch=1 n=18 v=100
12741421 On ch=1 n=15 v=100
12741424 Off ch=1 n=18 v=0
12741856 Off ch=1 n=15 v=0
12742076 On ch=1 n=54 v=100
12742491 Off ch=1 n=54 v=0
12745058 On ch=1 n=6 v=100
12746425 On ch=1 n=1 v=100
12746429 Off ch=1 n=6 v=0
12746634 Off ch=1 n=1 v=0
12746635 On ch=1 n=3 v=100
12747683 Off ch=1 n=3 v=0
12764300 On ch=1 n=3 v=100
12764363 Off ch=1 n=3 v=0
12769998 On ch=1 n=16 v=100
12770370 Off ch=1 n=16 v=0
12771742 On ch=1 n=14 v=100
12772277 Off ch=1 n=14 v=0
12772279 On ch=1 n=3 v=100
12772312 On ch=1 n=60 v=100
12772670 Off ch=1 n=3 v=0
12772675 On ch=1 n=6 v=100
12772804 Off ch=1 n=60 v=0
12772881 Off ch=1 n=6 v=0
12775353 On ch=1 n=12 v=100
12775461 Off ch=1 n=12 v=0
12775549 On ch=1 n=36 v=100
12775728 Off ch=1 n=36 v=0
12778775 On ch=1 n=13 v=100
12778877 Off ch=1 n=13 v=0
12778939 On ch=1 n=0 v=100
12784191 Off ch=1 n=0 v=0
12784580 On ch=1 n=12 v=100
12784785 Off ch=1 n=12 v=0
12785019 On ch=1 n=11 v=100
12785138 Off ch=1 n=11 v=0
12785787 On ch=1 n=9 v=100
12785955 Off ch=1 n=9 v=0
12793605 On ch=1 n=11 v=100
12793824 Off ch=1 n=11 v=0
12794128 On ch=1 n=26 v=100
12794192 Off ch=1 n=26 v=0
12795163 On ch=1 n=0 v=100
12796743 Off ch=1 n=0 v=0
12812844 On ch=1 n=31 v=100
12813049 Off ch=1 n=31 v=0
12817765 On ch=1 n=10 v=100
12817813 Off ch=1 n=10 v=0
12818182 On ch=1 n=31 v=100
12818242 Off ch=1 n=31 v=0
12822295 On ch=1 n=25 v=100
12822295 On ch=1 n=25 v=100
12822490 Off ch=1 n=25 v=0
12822490 Off ch=1 n=25 v=0
12823960 On ch=1 n=4 v=100
12824289 Off ch=1 n=4 v=0
12829330 On ch=1 n=9 v=100
12829467 Off ch=1 n=9 v=0
12829468 On ch=1 n=21 v=100
12829527 Off ch=1 n=21 v=0
12829536 On ch=1 n=9 v=100
12829940 On ch=1 n=12 v=100
12830018 Off ch=1 n=9 v=0
12830147 Off ch=1 n=12 v=0
12830157 On ch=1 n=7 v=100
12830582 On ch=1 n=10 v=100
12830593 Off ch=1 n=7 v=0
12830772 Off ch=1 n=10 v=0
12830784 On ch=1 n=6 v=100
12831210 On ch=1 n=13 v=100
12831224 Off ch=1 n=6 v=0
12831407 Off ch=1 n=13 v=0
12831418 On ch=1 n=7 v=100
12831840 On ch=1 n=12 v=100
12831908 Off ch=1 n=7 v=0
12832043 Off ch=1 n=12 v=0
12832056 On ch=1 n=8 v=100
12832481 On ch=1 n=10 v=100
12832499 Off ch=1 n=8 v=0
12832671 Off ch=1 n=10 v=0
12832683 On ch=1 n=9 v=100
12833099 On ch=1 n=13 v=100
12833133 Off ch=1 n=9 v=0
12833285 On ch=1 n=11 v=100
12833294 Off ch=1 n=13 v=0
12833379 On ch=1 n=1 v=100
12833381 Off ch=1 n=11 v=0
12836276 Off ch=1 n=1 v=0
12836303 On ch=1 n=8 v=100
12836602 On ch=1 n=11 v=100
12836609 Off ch=1 n=8 v=0
12836783 Off ch=1 n=11 v=0
12836793 On ch=1 n=6 v=100
12837216 On ch=1 n=11 v=100
12837282 Off ch=1 n=6 v=0
12837420 Off ch=1 n=11 v=0
12837432 On ch=1 n=7 v=100
12837686 Off ch=1 n=7 v=0
12838934 On ch=1 n=2 v=100
12838977 Off ch=1 n=2 v=0
12846416 On ch=1 n=2 v=100
12847648 Off ch=1 n=2 v=0
12874517 On ch=1 n=40 v=100
12874582 Off ch=1 n=40 v=0
12886585 On ch=1 n=33 v=100
12887513 On ch=1 n=7 v=100
12887515 Off ch=1 n=33 v=0
12889169 Off ch=1 n=7 v=0
12899333 On ch=1 n=9 v=100
12900954 Off ch=1 n=9 v=0
12901723 On ch=1 n=30 v=100
12902211 Off ch=1 n=30 v=0
12928617 On ch=1 n=30 v=100
12928727 Off ch=1 n=30 v=0
12929955 On ch=1 n=17 v=100
12930007 Off ch=1 n=17 v=0
12930011 On ch=1 n=9 v=100
12930252 On ch=1 n=9 v=100
12930264 Off ch=1 n=9 v=0
12930359 Off ch=1 n=9 v=0
12931034 On ch=1 n=33 v=100
12931098 Off ch=1 n=33 v=0
12931461 On ch=1 n=30 v=100
12931520 Off ch=1 n=30 v=0
12936209 On ch=1 n=11 v=100
12936314 Off ch=1 n=11 v=0
12944595 On ch=1 n=11 v=100
12944815 Off ch=1 n=11 v=0
12949229 On ch=1 n=44 v=100
12949708 Off ch=1 n=44 v=0
12952595 On ch=1 n=9 v=100
12952711 Off ch=1 n=9 v=0
12954764 On ch=1 n=13 v=100
12954881 Off ch=1 n=13 v=0
12955307 On ch=1 n=25 v=100
12955535 Off ch=1 n=25 v=0
12956169 On ch=1 n=45 v=100
12956395 Off ch=1 n=45 v=0
12956624 On ch=1 n=41 v=100
12956678 On ch=1 n=5 v=100
12957115 Off ch=1 n=41 v=0
12957130 Off ch=1 n=5 v=0
12957547 On ch=1 n=8 v=100
12958020 Off ch=1 n=8 v=0
12981568 On ch=1 n=6 v=100
12982000 Off ch=1 n=6 v=0
12989492 On ch=1 n=3 v=100
12994538 Off ch=1 n=3 v=0
13010380 On ch=1 n=27 v=100
13010451 Off ch=1 n=27 v=0
13011229 On ch=1 n=9 v=100
13011724 Off ch=1 n=9 v=0
13011726 On ch=1 n=8 v=100
13012255 Off ch=1 n=8 v=0
13013828 On ch=1 n=8 v=100
13014022 On ch=1 n=54 v=100
13014050 On ch=1 n=8 v=100
13014050 Off ch=1 n=8 v=0
13014228 Off ch=1 n=8 v=0
13014229 On ch=1 n=8 v=100
13014232 Off ch=1 n=54 v=0
13014391 Off ch=1 n=8 v=0
13034178 On ch=1 n=5 v=100
13034380 Off ch=1 n=5 v=0
13048415 On ch=1 n=8 v=100
13048893 Off ch=1 n=8 v=0
13049311 On ch=1 n=5 v=100
13049762 Off ch=1 n=5 v=0
13050744 On ch=1 n=43 v=100
13050960 Off ch=1 n=43 v=0
13051594 On ch=1 n=21 v=100
13051818 Off ch=1 n=21 v=0
13052291 On ch=1 n=16 v=100
13052439 Off ch=1 n=16 v=0
13065753 On ch=1 n=21 v=100
13065810 Off ch=1 n=21 v=0
13066695 On ch=1 n=19 v=100
13066784 Off ch=1 n=19 v=0
13066824 On ch=1 n=19 v=100
13066913 Off ch=1 n=19 v=0
13068068 On ch=1 n=12 v=100
13068118 Off ch=1 n=12 v=0
13074241 On ch=1 n=6 v=100
13074458 Off ch=1 n=6 v=0
13074845 On ch=1 n=6 v=100
13074960 Off ch=1 n=6 v=0
13075180 On ch=1 n=1 v=100
13076028 On ch=1 n=1 v=100
13078025 Off ch=1 n=1 v=0
13078712 Off ch=1 n=1 v=0
13091228 On ch=1 n=53 v=100
13091341 On ch=1 n=42 v=100
13091389 Off ch=1 n=53 v=0
13091533 Off ch=1 n=42 v=0
13092261 On ch=1 n=67 v=100
13092398 Off ch=1 n=67 v=0
13100305 On ch=1 n=5 v=100
13102772 Off ch=1 n=5 v=0
13103546 On ch=1 n=6 v=100
13103656 Off ch=1 n=6 v=0
13112394 On ch=1 n=5 v=100
13112507 Off ch=1 n=5 v=0
13135141 On ch=1 n=6 v=100
13135156 On ch=1 n=42 v=100
13135222 Off ch=1 n=6 v=0
13135295 On ch=1 n=4 v=100
13135605 Off ch=1 n=42 v=0
13135609 On ch=1 n=47 v=100
13135609 Off ch=1 n=4 v=0
13135711 Off ch=1 n=47 v=0
13135782 On ch=1 n=9 v=100
13135921 Off ch=1 n=9 v=0
13136691 On ch=1 n=24 v=100
13136757 Off ch=1 n=24 v=0
13144930 On ch=1 n=1 v=100
13147507 Off ch=1 n=1 v=0
13174795 On ch=1 n=23 v=100
13174862 Off ch=1 n=23 v=0
13175125 On ch=1 n=25 v=100
13175424 Off ch=1 n=25 v=0
13179546 On ch=1 n=9 v=100
13179579 Off ch=1 n=9 v=0
13186412 On ch=1 n=12 v=100
13186531 Off ch=1 n=12 v=0
13186769 On ch=1 n=10 v=100
13187043 Off ch=1 n=10 v=0
13190064 On ch=1 n=19 v=100
13190247 Off ch=1 n=19 v=0
13190835 On ch=1 n=1 v=100
13190896 Off ch=1 n=1 v=0
13194774 On ch=1 n=9 v=100
13194882 Off ch=1 n=9 v=0
13195126 On ch=1 n=3 v=100
13196219 Off ch=1 n=3 v=0
13196863 On ch=1 n=6 v=100
13197022 Off ch=1 n=6 v=0
13198445 On ch=1 n=25 v=100
13198510 Off ch=1 n=25 v=0
13205595 On ch=1 n=37 v=100
13205680 Off ch=1 n=37 v=0
13206639 On ch=1 n=7 v=100
13206736 On ch=1 n=14 v=100
13206743 Off ch=1 n=7 v=0
13206996 Off ch=1 n=14 v=0
13206999 On ch=1 n=16 v=100
13207091 Off ch=1 n=16 v=0
13207142 On ch=1 n=35 v=100
13207338 Off ch=1 n=35 v=0
13225840 On ch=1 n=16 v=100
13226173 Off ch=1 n=16 v=0
13228794 On ch=1 n=7 v=100
13228903 Off ch=1 n=7 v=0
13229130 On ch=1 n=22 v=100
13229383 Off ch=1 n=22 v=0
13232610 On ch=1 n=0 v=100
13238264 On ch=1 n=8 v=100
13238300 Off ch=1 n=0 v=0
13238862 Off ch=1 n=8 v=0
13238874 On ch=1 n=12 v=100
13239019 On ch=1 n=7 v=100
13239078 Off ch=1 n=12 v=0
13239500 Off ch=1 n=7 v=0
13239511 On ch=1 n=12 v=100
13239651 On ch=1 n=7 v=100
13239705 Off ch=1 n=12 v=0
13240132 Off ch=1 n=7 v=0
13240144 On ch=1 n=12 v=100
13240320 On ch=1 n=7 v=100
13240331 Off ch=1 n=12 v=0
13240764 Off ch=1 n=7 v=0
13240776 On ch=1 n=11 v=100
13240879 On ch=1 n=9 v=100
13240978 Off ch=1 n=11 v=0
13241404 Off ch=1 n=9 v=0
13241415 On ch=1 n=11 v=100
13241597 On ch=1 n=8 v=100
13241597 Off ch=1 n=11 v=0
13242038 Off ch=1 n=8 v=0
13242049 On ch=1 n=12 v=100
13242240 On ch=1 n=6 v=100
13242253 Off ch=1 n=12 v=0
13242675 Off ch=1 n=6 v=0
13242686 On ch=1 n=11 v=100
13242868 On ch=1 n=6 v=100
13242882 Off ch=1 n=11 v=0
13243308 Off ch=1 n=6 v=0
13243320 On ch=1 n=12 v=100
13243442 On ch=1 n=10 v=100
13243525 Off ch=1 n=12 v=0
13243930 Off ch=1 n=10 v=0
13243941 On ch=1 n=13 v=100
13243998 Off ch=1 n=13 v=0
13243999 On ch=1 n=8 v=100
13244136 Off ch=1 n=8 v=0
13248531 On ch=1 n=7 v=100
13248836 Off ch=1 n=7 v=0
13252783 On ch=1 n=40 v=100
13252783 On ch=1 n=40 v=100
13253192 Off ch=1 n=40 v=0
13253192 Off ch=1 n=40 v=0
13253229 On ch=1 n=40 v=100
13253269 Off ch=1 n=40 v=0
13271815 On ch=1 n=7 v=100
13272075 Off ch=1 n=7 v=0
13272846 On ch=1 n=6 v=100
13273106 Off ch=1 n=6 v=0
13273878 On ch=1 n=7 v=100
13274137 Off ch=1 n=7 v=0
13274649 On ch=1 n=33 v=100
13274762 Off ch=1 n=33 v=0
13274908 On ch=1 n=7 v=100
13275168 Off ch=1 n=7 v=0
13275939 On ch=1 n=8 v=100
13276199 Off ch=1 n=8 v=0
13276970 On ch=1 n=7 v=100
13277230 Off ch=1 n=7 v=0
13281479 On ch=1 n=15 v=100
13281489 On ch=1 n=10 v=100
13281566 Off ch=1 n=15 v=0
13282178 Off ch=1 n=10 v=0
13302886 On ch=1 n=2 v=100
13303337 On ch=1 n=1 v=100
13303345 Off ch=1 n=2 v=0
13303873 Off ch=1 n=1 v=0
13308033 On ch=1 n=17 v=100
13308157 Off ch=1 n=17 v=0
13308235 On ch=1 n=7 v=100
13309248 Off ch=1 n=7 v=0
13309607 On ch=1 n=11 v=100
13309823 Off ch=1 n=11 v=0
13309883 On ch=1 n=19 v=100
13310084 Off ch=1 n=19 v=0
13310975 On ch=1 n=7 v=100
13311988 Off ch=1 n=7 v=0
13312347 On ch=1 n=11 v=100
13312563 Off ch=1 n=11 v=0
13312623 On ch=1 n=19 v=100
13312824 Off ch=1 n=19 v=0
13313715 On ch=1 n=7 v=100
13314728 Off ch=1 n=7 v=0
13315087 On ch=1 n=11 v=100
13315303 Off ch=1 n=11 v=0
13315363 On ch=1 n=19 v=100
13315564 Off ch=1 n=19 v=0
13315984 On ch=1 n=48 v=100
13316292 On ch=1 n=42 v=100
13317079 Off ch=1 n=42 v=0
13317085 Off ch=1 n=48 v=0
13317093 On ch=1 n=46 v=100
13318443 Off ch=1 n=46 v=0
13319016 On ch=1 n=5 v=100
13319495 On ch=1 n=10 v=100
13319495 Off ch=1 n=5 v=0
13319586 Off ch=1 n=10 v=0
13322934 On ch=1 n=8 v=100
13323146 Off ch=1 n=8 v=0
13324022 On ch=1 n=19 v=100
13324223 Off ch=1 n=19 v=0
13324283 On ch=1 n=11 v=100
13324499 Off ch=1 n=11 v=0
13324858 On ch=1 n=7 v=100
13325871 Off ch=1 n=7 v=0
13326761 On ch=1 n=19 v=100
13326962 Off ch=1 n=19 v=0
13327022 On ch=1 n=11 v=100
13327238 Off ch=1 n=11 v=0
13327597 On ch=1 n=7 v=100
13328610 Off ch=1 n=7 v=0
13328688 On ch=1 n=16 v=100
13328812 Off ch=1 n=16 v=0
13334308 On ch=1 n=0 v=100
13334837 On ch=1 n=1 v=100
13334846 Off ch=1 n=0 v=0
13335298 Off ch=1 n=1 v=0
13344675 On ch=1 n=6 v=100
13345193 Off ch=1 n=6 v=0
13349788 On ch=1 n=51 v=100
13349873 Off ch=1 n=51 v=0
13349901 On ch=1 n=14 v=100
13350064 Off ch=1 n=14 v=0
13350080 On ch=1 n=19 v=100
13350396 Off ch=1 n=19 v=0
13352791 On ch=1 n=8 v=100
13352899 Off ch=1 n=8 v=0
13354281 On ch=1 n=21 v=100
13354461 Off ch=1 n=21 v=0
13355753 On ch=1 n=4 v=100
13356891 Off ch=1 n=4 v=0
13356895 On ch=1 n=2 v=100
13357669 Off ch=1 n=2 v=0
13377831 On ch=1 n=15 v=100
13377975 Off ch=1 n=15 v=0
13378740 On ch=1 n=59 v=100
13378851 On ch=1 n=22 v=100
13379036 Off ch=1 n=59 v=0
13379292 Off ch=1 n=22 v=0
13379371 On ch=1 n=1 v=100
13382143 Off ch=1 n=1 v=0
13392948 On ch=1 n=5 v=100
13393779 Off ch=1 n=5 v=0
13399890 On ch=1 n=7 v=100
13401795 Off ch=1 n=7 v=0
13401865 On ch=1 n=9 v=100
13402669 Off ch=1 n=9 v=0
13406402 On ch=1 n=56 v=100
13406402 On ch=1 n=56 v=100
13406795 On ch=1 n=3 v=100
13406832 On ch=1 n=55 v=100
13406832 On ch=1 n=55 v=100
13406936 Off ch=1 n=3 v=0
13406950 Off ch=1 n=56 v=0
13406950 Off ch=1 n=56 v=0
13406978 Off ch=1 n=55 v=0
13406978 Off ch=1 n=55 v=0
13407022 On ch=1 n=45 v=100
13407530 Off ch=1 n=45 v=0
13413003 On ch=1 n=21 v=100
13413150 Off ch=1 n=21 v=0
13413184 On ch=1 n=33 v=100
13413368 Off ch=1 n=33 v=0
13423106 On ch=1 n=13 v=100
13423225 Off ch=1 n=13 v=0
13423916 On ch=1 n=31 v=100
13423976 Off ch=1 n=31 v=0
13429543 On ch=1 n=0 v=100
13432794 Off ch=1 n=0 v=0
13432875 On ch=1 n=0 v=100
13438317 Off ch=1 n=0 v=0
13438615 On ch=1 n=5 v=100
13438833 Off ch=1 n=5 v=0
13438929 On ch=1 n=3 v=100
13442336 Off ch=1 n=3 v=0
13443145 On ch=1 n=55 v=100
13443416 Off ch=1 n=55 v=0
13443691 On ch=1 n=52 v=100
13443783 On ch=1 n=16 v=100
13443838 Off ch=1 n=16 v=0
13443843 On ch=1 n=18 v=100
13443855 Off ch=1 n=52 v=0
13444464 Off ch=1 n=18 v=0
13445900 On ch=1 n=8 v=100
13445965 Off ch=1 n=8 v=0
13451215 On ch=1 n=55 v=100
13451989 Off ch=1 n=55 v=0
13454530 On ch=1 n=30 v=100
13454732 Off ch=1 n=30 v=0
13469300 On ch=1 n=32 v=100
13469366 Off ch=1 n=32 v=0
13470195 On ch=1 n=12 v=100
13470667 Off ch=1 n=12 v=0
13476593 On ch=1 n=35 v=100
13476637 Off ch=1 n=35 v=0
13481575 On ch=1 n=32 v=100
13481666 Off ch=1 n=32 v=0
13482178 On ch=1 n=6 v=100
13482438 Off ch=1 n=6 v=0
13483209 On ch=1 n=6 v=100
13483469 Off ch=1 n=6 v=0
13484264 On ch=1 n=6 v=100
13484524 Off ch=1 n=6 v=0
13485294 On ch=1 n=7 v=100
13485554 Off ch=1 n=7 v=0
13486336 On ch=1 n=6 v=100
13486596 Off ch=1 n=6 v=0
13488709 On ch=1 n=0 v=100
13494447 Off ch=1 n=0 v=0
13502491 On ch=1 n=14 v=100
13502562 Off ch=1 n=14 v=0
13505421 On ch=1 n=5 v=100
13505461 Off ch=1 n=5 v=0
13507437 On ch=1 n=31 v=100
13507497 Off ch=1 n=31 v=0
13508137 On ch=1 n=8 v=100
13508196 Off ch=1 n=8 v=0
13508427 On ch=1 n=17 v=100
13508609 Off ch=1 n=17 v=0
13509108 On ch=1 n=13 v=100
13509221 Off ch=1 n=13 v=0
13509435 On ch=1 n=15 v=100
13509523 Off ch=1 n=15 v=0
13512159 On ch=1 n=12 v=100
13512214 Off ch=1 n=12 v=0
13512739 On ch=1 n=30 v=100
13512897 Off ch=1 n=30 v=0
13512954 On ch=1 n=15 v=100
13513053 Off ch=1 n=15 v=0
13513060 On ch=1 n=10 v=100
13513301 On ch=1 n=9 v=100
13513325 Off ch=1 n=10 v=0
13513419 Off ch=1 n=9 v=0
13514047 On ch=1 n=32 v=100
13514117 Off ch=1 n=32 v=0
13518337 On ch=1 n=17 v=100
13518442 Off ch=1 n=17 v=0
13526204 On ch=1 n=3 v=100
13528978 Off ch=1 n=3 v=0
13534059 On ch=1 n=3 v=100
13534373 Off ch=1 n=3 v=0
13535547 On ch=1 n=4 v=100
13535611 Off ch=1 n=4 v=0
13551874 On ch=1 n=23 v=100
13551978 Off ch=1 n=23 v=0
13553173 On ch=1 n=3 v=100
13553682 Off ch=1 n=3 v=0
13554085 On ch=1 n=4 v=100
13556172 Off ch=1 n=4 v=0
13557095 On ch=1 n=0 v=100
13560494 On ch=1 n=44 v=100
13561375 Off ch=1 n=0 v=0
13561486 Off ch=1 n=44 v=0
13567864 On ch=1 n=29 v=100
13567938 Off ch=1 n=29 v=0
13569494 On ch=1 n=9 v=100
13569846 On ch=1 n=53 v=100
13569964 Off ch=1 n=9 v=0
13569966 On ch=1 n=7 v=100
13570432 Off ch=1 n=53 v=0
13570495 Off ch=1 n=7 v=0
13570903 On ch=1 n=7 v=100
13571098 On ch=1 n=55 v=100
13571126 On ch=1 n=8 v=100
13571126 Off ch=1 n=7 v=0
13571304 Off ch=1 n=8 v=0
13571305 On ch=1 n=15 v=100
13571309 Off ch=1 n=55 v=0
13571369 Off ch=1 n=15 v=0
13572045 On ch=1 n=5 v=100
13572148 Off ch=1 n=5 v=0
13581825 On ch=1 n=2 v=100
13584505 Off ch=1 n=2 v=0
13587458 On ch=1 n=15 v=100
13587566 Off ch=1 n=15 v=0
13592399 On ch=1 n=15 v=100
13592507 Off ch=1 n=15 v=0
13597319 On ch=1 n=24 v=100
13597385 Off ch=1 n=24 v=0
13600612 On ch=1 n=24 v=100
13600683 Off ch=1 n=24 v=0
13602083 On ch=1 n=7 v=100
13602178 On ch=1 n=11 v=100
13602206 Off ch=1 n=7 v=0
13602433 Off ch=1 n=11 v=0
13602437 On ch=1 n=14 v=100
13602532 Off ch=1 n=14 v=0
13602690 On ch=1 n=35 v=100
13602850 Off ch=1 n=35 v=0
13607272 On ch=1 n=26 v=100
13607333 Off ch=1 n=26 v=0
13615719 On ch=1 n=17 v=100
13616283 Off ch=1 n=17 v=0
13616400 On ch=1 n=18 v=100
13616778 On ch=1 n=10 v=100
13616782 Off ch=1 n=18 v=0
13617277 Off ch=1 n=10 v=0
13622417 On ch=1 n=10 v=100
13622522 Off ch=1 n=10 v=0
13639135 On ch=1 n=13 v=100
13639244 Off ch=1 n=13 v=0
13642737 On ch=1 n=7 v=100
13642793 Off ch=1 n=7 v=0
13643053 On ch=1 n=14 v=100
13643154 Off ch=1 n=14 v=0
13645833 On ch=1 n=5 v=100
13646944 On ch=1 n=35 v=100
13646949 Off ch=1 n=5 v=0
13647046 Off ch=1 n=35 v=0
13648893 On ch=1 n=17 v=100
13649458 Off ch=1 n=17 v=0
13649576 On ch=1 n=18 v=100
13649953 On ch=1 n=10 v=100
13649957 Off ch=1 n=18 v=0
13650439 Off ch=1 n=10 v=0
13655420 On ch=1 n=10 v=100
13655525 Off ch=1 n=10 v=0
13656529 On ch=1 n=20 v=100
13656577 Off ch=1 n=20 v=0
13658357 On ch=1 n=5 v=100
13658398 Off ch=1 n=5 v=0
13658938 On ch=1 n=19 v=100
13659369 Off ch=1 n=19 v=0
13659501 On ch=1 n=8 v=100
13660743 Off ch=1 n=8 v=0
13675262 On ch=1 n=40 v=100
13675449 Off ch=1 n=40 v=0
13675535 On ch=1 n=12 v=100
13675644 Off ch=1 n=12 v=0
13679010 On ch=1 n=7 v=100
13679121 On ch=1 n=55 v=100
13679541 Off ch=1 n=7 v=0
13679606 Off ch=1 n=55 v=0
13683530 On ch=1 n=5 v=100
13684359 Off ch=1 n=5 v=0
13687734 On ch=1 n=42 v=100
13687963 Off ch=1 n=42 v=0
13688465 On ch=1 n=17 v=100
13688484 On ch=1 n=35 v=100
13688553 Off ch=1 n=17 v=0
13688568 Off ch=1 n=35 v=0
13690458 On ch=1 n=52 v=100
13690485 On ch=1 n=17 v=100
13690594 On ch=1 n=13 v=100
13690596 Off ch=1 n=17 v=0
13690597 Off ch=1 n=52 v=0
13691537 Off ch=1 n=13 v=0
13691558 On ch=1 n=11 v=100
13691707 On ch=1 n=55 v=100
13691874 Off ch=1 n=11 v=0
13691911 Off ch=1 n=55 v=0
TrkEnd    
MTrk    
0 PrCh ch=2 p=40 
0 Meta TrkName "SINE" 
4398 On ch=2 n=2 v=100
4988 Off ch=2 n=2 v=0
180004 On ch=2 n=46 v=100
180080 Off ch=2 n=46 v=0
180183 On ch=2 n=45 v=100
180261 Off ch=2 n=45 v=0
180608 On ch=2 n=18 v=100
180766 Off ch=2 n=18 v=0
183284 On ch=2 n=18 v=100
183442 Off ch=2 n=18 v=0
228067 On ch=2 n=51 v=100
228160 Off ch=2 n=51 v=0
337287 On ch=2 n=23 v=100
337350 Off ch=2 n=23 v=0
343704 On ch=2 n=6 v=100
344070 Off ch=2 n=6 v=0
616991 On ch=2 n=25 v=100
617193 Off ch=2 n=25 v=0
688402 On ch=2 n=4 v=100
688695 Off ch=2 n=4 v=0
688698 On ch=2 n=1 v=100
688783 Off ch=2 n=1 v=0
831997 On ch=2 n=23 v=100
832194 Off ch=2 n=23 v=0
851472 On ch=2 n=13 v=100
851670 Off ch=2 n=13 v=0
869639 On ch=2 n=45 v=100
869717 Off ch=2 n=45 v=0
870065 On ch=2 n=19 v=100
870223 Off ch=2 n=19 v=0
872753 On ch=2 n=20 v=100
872919 Off ch=2 n=20 v=0
874885 On ch=2 n=39 v=100
874962 Off ch=2 n=39 v=0
875491 On ch=2 n=22 v=100
875649 Off ch=2 n=22 v=0
954983 On ch=2 n=2 v=100
955107 On ch=2 n=10 v=100
955108 Off ch=2 n=2 v=0
955328 Off ch=2 n=10 v=0
1076363 On ch=2 n=17 v=100
1076367 On ch=2 n=14 v=100
1076396 Off ch=2 n=14 v=0
1076400 Off ch=2 n=17 v=0
1132747 On ch=2 n=13 v=100
1133110 Off ch=2 n=13 v=0
1462409 On ch=2 n=50 v=100
1462487 Off ch=2 n=50 v=0
1535669 On ch=2 n=24 v=100
1535871 Off ch=2 n=24 v=0
1575903 On ch=2 n=52 v=100
1576052 Off ch=2 n=52 v=0
1593414 On ch=2 n=29 v=100
1593538 Off ch=2 n=29 v=0
1655582 On ch=2 n=47 v=100
1655654 Off ch=2 n=47 v=0
1655757 On ch=2 n=45 v=100
1655835 Off ch=2 n=45 v=0
1656184 On ch=2 n=22 v=100
1656342 Off ch=2 n=22 v=0
1659236 On ch=2 n=40 v=100
1659308 Off ch=2 n=40 v=0
1659657 On ch=2 n=22 v=100
1659815 Off ch=2 n=22 v=0
1669698 On ch=2 n=48 v=100
1669773 Off ch=2 n=48 v=0
1670099 On ch=2 n=12 v=100
1670142 Off ch=2 n=12 v=0
1671800 On ch=2 n=44 v=100
1671879 Off ch=2 n=44 v=0
1672406 On ch=2 n=22 v=100
1672570 Off ch=2 n=22 v=0
1676038 On ch=2 n=20 v=100
1676203 Off ch=2 n=20 v=0
1678719 On ch=2 n=20 v=100
1678884 Off ch=2 n=20 v=0
1681402 On ch=2 n=20 v=100
1681567 Off ch=2 n=20 v=0
1683656 On ch=2 n=43 v=100
1683734 Off ch=2 n=43 v=0
1684083 On ch=2 n=22 v=100
1684241 Off ch=2 n=22 v=0
1686156 On ch=2 n=47 v=100
1686228 Off ch=2 n=47 v=0
1686331 On ch=2 n=45 v=100
1686409 Off ch=2 n=45 v=0
1686758 On ch=2 n=22 v=100
1686916 Off ch=2 n=22 v=0
1746337 On ch=2 n=47 v=100
1746415 Off ch=2 n=47 v=0
1746943 On ch=2 n=19 v=100
1747106 Off ch=2 n=19 v=0
1749690 On ch=2 n=20 v=100
1749855 Off ch=2 n=20 v=0
1752371 On ch=2 n=20 v=100
1752536 Off ch=2 n=20 v=0
1843085 On ch=2 n=13 v=100
1843478 Off ch=2 n=13 v=0
1874983 On ch=2 n=7 v=100
1875344 Off ch=2 n=7 v=0
1907012 On ch=2 n=7 v=100
1907378 Off ch=2 n=7 v=0
1960180 On ch=2 n=4 v=100
1960712 Off ch=2 n=4 v=0
1969708 On ch=2 n=13 v=100
1969814 Off ch=2 n=13 v=0
2126327 On ch=2 n=52 v=100
2126474 Off ch=2 n=52 v=0
2149637 On ch=2 n=21 v=100
2149722 Off ch=2 n=21 v=0
2151700 On ch=2 n=47 v=100
2151778 Off ch=2 n=47 v=0
2151879 On ch=2 n=45 v=100
2151957 Off ch=2 n=45 v=0
2152304 On ch=2 n=18 v=100
2152462 Off ch=2 n=18 v=0
2154435 On ch=2 n=45 v=100
2154512 Off ch=2 n=45 v=0
2154614 On ch=2 n=48 v=100
2154692 Off ch=2 n=48 v=0
2155039 On ch=2 n=19 v=100
2155197 Off ch=2 n=19 v=0
2165422 On ch=2 n=60 v=100
2165423 On ch=2 n=40 v=100
2165499 Off ch=2 n=60 v=0
2165569 Off ch=2 n=40 v=0
2166283 On ch=2 n=77 v=100
2166361 Off ch=2 n=77 v=0
2177833 On ch=2 n=8 v=100
2177986 Off ch=2 n=8 v=0
2386187 On ch=2 n=20 v=100
2386347 Off ch=2 n=20 v=0
2388325 On ch=2 n=44 v=100
2388403 Off ch=2 n=44 v=0
2388504 On ch=2 n=45 v=100
2388582 Off ch=2 n=45 v=0
2388929 On ch=2 n=19 v=100
2389088 Off ch=2 n=19 v=0
2391039 On ch=2 n=46 v=100
2391115 Off ch=2 n=46 v=0
2392223 On ch=2 n=51 v=100
2392374 Off ch=2 n=51 v=0
2393254 On ch=2 n=52 v=100
2393406 Off ch=2 n=52 v=0
2426922 On ch=2 n=19 v=100
2427167 Off ch=2 n=19 v=0
2506353 On ch=2 n=18 v=100
2506428 Off ch=2 n=18 v=0
2507861 On ch=2 n=13 v=100
2507926 Off ch=2 n=13 v=0
2726592 On ch=2 n=8 v=100
2727029 Off ch=2 n=8 v=0
2785123 On ch=2 n=22 v=100
2785308 Off ch=2 n=22 v=0
2824081 On ch=2 n=14 v=100
2824241 Off ch=2 n=14 v=0
2825058 On ch=2 n=11 v=100
2825097 Off ch=2 n=11 v=0
2835238 On ch=2 n=12 v=100
2835281 Off ch=2 n=12 v=0
2968808 On ch=2 n=3 v=100
2969060 Off ch=2 n=3 v=0
2999719 On ch=2 n=4 v=100
3000276 Off ch=2 n=4 v=0
3002656 On ch=2 n=13 v=100
3002726 Off ch=2 n=13 v=0
3014398 On ch=2 n=4 v=100
3014794 Off ch=2 n=4 v=0
3053788 On ch=2 n=6 v=100
3054165 Off ch=2 n=6 v=0
3093517 On ch=2 n=20 v=100
3093675 Off ch=2 n=20 v=0
3094022 On ch=2 n=45 v=100
3094100 Off ch=2 n=45 v=0
3094201 On ch=2 n=50 v=100
3094281 Off ch=2 n=50 v=0
3095969 On ch=2 n=15 v=100
3096038 Off ch=2 n=15 v=0
3097847 On ch=2 n=15 v=100
3097916 Off ch=2 n=15 v=0
3099726 On ch=2 n=15 v=100
3099795 Off ch=2 n=15 v=0
3101895 On ch=2 n=20 v=100
3102053 Off ch=2 n=20 v=0
3102400 On ch=2 n=45 v=100
3102478 Off ch=2 n=45 v=0
3102579 On ch=2 n=50 v=100
3102659 Off ch=2 n=50 v=0
3104347 On ch=2 n=15 v=100
3104416 Off ch=2 n=15 v=0
3106514 On ch=2 n=20 v=100
3106674 Off ch=2 n=20 v=0
3107021 On ch=2 n=45 v=100
3107099 Off ch=2 n=45 v=0
3107200 On ch=2 n=50 v=100
3107280 Off ch=2 n=50 v=0
3356102 On ch=2 n=9 v=100
3356186 Off ch=2 n=9 v=0
3453133 On ch=2 n=50 v=100
3453225 Off ch=2 n=50 v=0
3478767 On ch=2 n=31 v=100
3478853 Off ch=2 n=31 v=0
3479560 On ch=2 n=33 v=100
3479645 Off ch=2 n=33 v=0
3483885 On ch=2 n=60 v=100
3483961 Off ch=2 n=60 v=0
3505158 On ch=2 n=47 v=100
3505236 Off ch=2 n=47 v=0
3507191 On ch=2 n=21 v=100
3507356 Off ch=2 n=21 v=0
3507882 On ch=2 n=48 v=100
3507961 Off ch=2 n=48 v=0
3518332 On ch=2 n=26 v=100
3518388 Off ch=2 n=26 v=0
3539467 On ch=2 n=52 v=100
3539623 Off ch=2 n=52 v=0
3681937 On ch=2 n=40 v=100
3682016 Off ch=2 n=40 v=0
3736278 On ch=2 n=21 v=100
3736435 Off ch=2 n=21 v=0
3736785 On ch=2 n=48 v=100
3736863 Off ch=2 n=48 v=0
3739291 On ch=2 n=23 v=100
3739448 Off ch=2 n=23 v=0
3739798 On ch=2 n=45 v=100
3739879 Off ch=2 n=45 v=0
3739979 On ch=2 n=48 v=100
3740056 Off ch=2 n=48 v=0
3807903 On ch=2 n=17 v=100
3807996 Off ch=2 n=17 v=0
3865936 On ch=2 n=47 v=100
3866014 Off ch=2 n=47 v=0
3866531 On ch=2 n=21 v=100
3866697 Off ch=2 n=21 v=0
3868672 On ch=2 n=47 v=100
3868750 Off ch=2 n=47 v=0
3869278 On ch=2 n=23 v=100
3869444 Off ch=2 n=23 v=0
3871417 On ch=2 n=49 v=100
3871495 Off ch=2 n=49 v=0
3872023 On ch=2 n=23 v=100
3872189 Off ch=2 n=23 v=0
3874163 On ch=2 n=49 v=100
3874241 Off ch=2 n=49 v=0
3874769 On ch=2 n=24 v=100
3874934 Off ch=2 n=24 v=0
3876904 On ch=2 n=47 v=100
3876982 Off ch=2 n=47 v=0
3877510 On ch=2 n=21 v=100
3877675 Off ch=2 n=21 v=0
3894806 On ch=2 n=64 v=100
3894880 Off ch=2 n=64 v=0
3939884 On ch=2 n=54 v=100
3940039 Off ch=2 n=54 v=0
4063526 On ch=2 n=24 v=100
4063582 Off ch=2 n=24 v=0
4068021 On ch=2 n=47 v=100
4068099 Off ch=2 n=47 v=0
4068614 On ch=2 n=20 v=100
4068747 Off ch=2 n=20 v=0
4070725 On ch=2 n=47 v=100
4070803 Off ch=2 n=47 v=0
4070904 On ch=2 n=45 v=100
4070982 Off ch=2 n=45 v=0
4071329 On ch=2 n=18 v=100
4071487 Off ch=2 n=18 v=0
4073465 On ch=2 n=47 v=100
4073543 Off ch=2 n=47 v=0
4073644 On ch=2 n=47 v=100
4073722 Off ch=2 n=47 v=0
4074069 On ch=2 n=20 v=100
4074227 Off ch=2 n=20 v=0
4227467 On ch=2 n=3 v=100
4227945 Off ch=2 n=3 v=0
4244353 On ch=2 n=30 v=100
4244452 Off ch=2 n=30 v=0
4279967 On ch=2 n=47 v=100
4280046 Off ch=2 n=47 v=0
4280368 On ch=2 n=19 v=100
4280525 Off ch=2 n=19 v=0
4302756 On ch=2 n=47 v=100
4302834 Off ch=2 n=47 v=0
4302935 On ch=2 n=45 v=100
4303013 Off ch=2 n=45 v=0
4303360 On ch=2 n=18 v=100
4303518 Off ch=2 n=18 v=0
4305091 On ch=2 n=47 v=100
4305169 Off ch=2 n=47 v=0
4305460 On ch=2 n=48 v=100
4305547 Off ch=2 n=48 v=0
4305878 On ch=2 n=18 v=100
4306036 Off ch=2 n=18 v=0
4330894 On ch=2 n=54 v=100
4331044 Off ch=2 n=54 v=0
4458624 On ch=2 n=13 v=100
4458767 Off ch=2 n=13 v=0
4534136 On ch=2 n=18 v=100
4534294 Off ch=2 n=18 v=0
4534641 On ch=2 n=45 v=100
4534719 Off ch=2 n=45 v=0
4534820 On ch=2 n=47 v=100
4534898 Off ch=2 n=47 v=0
4536875 On ch=2 n=18 v=100
4537033 Off ch=2 n=18 v=0
4537559 On ch=2 n=47 v=100
4537637 Off ch=2 n=47 v=0
4638746 On ch=2 n=10 v=100
4638899 Off ch=2 n=10 v=0
4652448 On ch=2 n=18 v=100
4652606 Off ch=2 n=18 v=0
4652953 On ch=2 n=48 v=100
4653031 Off ch=2 n=48 v=0
4653134 On ch=2 n=45 v=100
4653211 Off ch=2 n=45 v=0
4655185 On ch=2 n=22 v=100
4655270 Off ch=2 n=22 v=0
4659987 On ch=2 n=26 v=100
4660043 Off ch=2 n=26 v=0
4750289 On ch=2 n=23 v=100
4750304 Off ch=2 n=23 v=0
4750459 On ch=2 n=22 v=100
4750558 Off ch=2 n=22 v=0
4750602 On ch=2 n=20 v=100
4750702 Off ch=2 n=20 v=0
4750767 On ch=2 n=16 v=100
4750848 Off ch=2 n=16 v=0
4750890 On ch=2 n=17 v=100
4750998 Off ch=2 n=17 v=0
4751067 On ch=2 n=14 v=100
4751157 Off ch=2 n=14 v=0
4751192 On ch=2 n=21 v=100
4751287 Off ch=2 n=21 v=0
4751331 On ch=2 n=20 v=100
4751431 Off ch=2 n=20 v=0
4751504 On ch=2 n=18 v=100
4751585 Off ch=2 n=18 v=0
4751627 On ch=2 n=17 v=100
4751728 Off ch=2 n=17 v=0
4751777 On ch=2 n=19 v=100
4751884 Off ch=2 n=19 v=0
4751919 On ch=2 n=16 v=100
4752027 Off ch=2 n=16 v=0
4752096 On ch=2 n=13 v=100
4752186 Off ch=2 n=13 v=0
4752255 On ch=2 n=16 v=100
4752338 Off ch=2 n=16 v=0
4833324 On ch=2 n=0 v=100
4833354 Off ch=2 n=0 v=0
4857293 On ch=2 n=25 v=100
4857495 Off ch=2 n=25 v=0
4868841 On ch=2 n=42 v=100
4868923 Off ch=2 n=42 v=0
4900679 On ch=2 n=2 v=100
4900829 Off ch=2 n=2 v=0
4900857 On ch=2 n=2 v=100
4900926 Off ch=2 n=2 v=0
5026710 On ch=2 n=15 v=100
5026819 Off ch=2 n=15 v=0
5055152 On ch=2 n=30 v=100
5055196 Off ch=2 n=30 v=0
5055272 On ch=2 n=30 v=100
5055290 Off ch=2 n=30 v=0
5063911 On ch=2 n=2 v=100
5064481 Off ch=2 n=2 v=0
5091448 On ch=2 n=10 v=100
5091645 Off ch=2 n=10 v=0
5095407 On ch=2 n=9 v=100
5095492 Off ch=2 n=9 v=0
5130437 On ch=2 n=50 v=100
5130514 Off ch=2 n=50 v=0
5131041 On ch=2 n=20 v=100
5131199 Off ch=2 n=20 v=0
5177988 On ch=2 n=47 v=100
5178066 Off ch=2 n=47 v=0
5178167 On ch=2 n=45 v=100
5178245 Off ch=2 n=45 v=0
5178592 On ch=2 n=18 v=100
5178755 Off ch=2 n=18 v=0
5180726 On ch=2 n=48 v=100
5180806 Off ch=2 n=48 v=0
5180907 On ch=2 n=47 v=100
5180985 Off ch=2 n=47 v=0
5181332 On ch=2 n=18 v=100
5181490 Off ch=2 n=18 v=0
5182075 On ch=2 n=48 v=100
5182152 Off ch=2 n=48 v=0
5182679 On ch=2 n=18 v=100
5182837 Off ch=2 n=18 v=0
5189072 On ch=2 n=15 v=100
5189107 Off ch=2 n=15 v=0
5193165 On ch=2 n=18 v=100
5193232 Off ch=2 n=18 v=0
5194277 On ch=2 n=18 v=100
5194344 Off ch=2 n=18 v=0
5196416 On ch=2 n=18 v=100
5196483 Off ch=2 n=18 v=0
5334815 On ch=2 n=23 v=100
5334993 Off ch=2 n=23 v=0
5457656 On ch=2 n=4 v=100
5458193 Off ch=2 n=4 v=0
5496361 On ch=2 n=22 v=100
5496426 Off ch=2 n=22 v=0
5675651 On ch=2 n=15 v=100
5675748 Off ch=2 n=15 v=0
5769170 On ch=2 n=46 v=100
5769252 Off ch=2 n=46 v=0
5769742 On ch=2 n=22 v=100
5769899 Off ch=2 n=22 v=0
5772033 On ch=2 n=43 v=100
5772111 Off ch=2 n=43 v=0
5772460 On ch=2 n=20 v=100
5772617 Off ch=2 n=20 v=0
5774779 On ch=2 n=47 v=100
5774857 Off ch=2 n=47 v=0
5775206 On ch=2 n=20 v=100
5775363 Off ch=2 n=20 v=0
5777525 On ch=2 n=47 v=100
5777603 Off ch=2 n=47 v=0
5777952 On ch=2 n=20 v=100
5778109 Off ch=2 n=20 v=0
5780271 On ch=2 n=43 v=100
5780349 Off ch=2 n=43 v=0
5780698 On ch=2 n=20 v=100
5780855 Off ch=2 n=20 v=0
5782241 On ch=2 n=19 v=100
5782389 Off ch=2 n=19 v=0
5850405 On ch=2 n=31 v=100
5850515 Off ch=2 n=31 v=0
5864745 On ch=2 n=6 v=100
5864974 Off ch=2 n=6 v=0
5935155 On ch=2 n=39 v=100
5935233 Off ch=2 n=39 v=0
5985852 On ch=2 n=2 v=100
5986341 Off ch=2 n=2 v=0
5996192 On ch=2 n=34 v=100
5996192 On ch=2 n=34 v=100
5996382 Off ch=2 n=34 v=0
5996382 Off ch=2 n=34 v=0
6024281 On ch=2 n=49 v=100
6024361 Off ch=2 n=49 v=0
6024710 On ch=2 n=22 v=100
6024867 Off ch=2 n=22 v=0
6050864 On ch=2 n=13 v=100
6050921 Off ch=2 n=13 v=0
6086089 On ch=2 n=44 v=100
6086171 Off ch=2 n=44 v=0
6141363 On ch=2 n=2 v=100
6141604 Off ch=2 n=2 v=0
6298142 On ch=2 n=3 v=100
6298172 Off ch=2 n=3 v=0
6368806 On ch=2 n=23 v=100
6368970 Off ch=2 n=23 v=0
6445254 On ch=2 n=11 v=100
6445452 Off ch=2 n=11 v=0
6468556 On ch=2 n=22 v=100
6468757 Off ch=2 n=22 v=0
6565770 On ch=2 n=26 v=100
6565826 Off ch=2 n=26 v=0
6570269 On ch=2 n=52 v=100
6570349 Off ch=2 n=52 v=0
6570450 On ch=2 n=45 v=100
6570528 Off ch=2 n=45 v=0
6570875 On ch=2 n=20 v=100
6571033 Off ch=2 n=20 v=0
6590877 On ch=2 n=3 v=100
6591345 Off ch=2 n=3 v=0
6593225 On ch=2 n=9 v=100
6593650 Off ch=2 n=9 v=0
6762379 On ch=2 n=2 v=100
6762940 Off ch=2 n=2 v=0
6914526 On ch=2 n=13 v=100
6914583 Off ch=2 n=13 v=0
7017268 On ch=2 n=42 v=100
7017346 Off ch=2 n=42 v=0
7019160 On ch=2 n=41 v=100
7019234 Off ch=2 n=41 v=0
7019336 On ch=2 n=45 v=100
7019414 Off ch=2 n=45 v=0
7019656 On ch=2 n=21 v=100
7019824 Off ch=2 n=21 v=0
7073520 On ch=2 n=18 v=100
7073678 Off ch=2 n=18 v=0
7074025 On ch=2 n=42 v=100
7074106 Off ch=2 n=42 v=0
7076230 On ch=2 n=18 v=100
7076388 Off ch=2 n=18 v=0
7076735 On ch=2 n=45 v=100
7076813 Off ch=2 n=45 v=0
7076914 On ch=2 n=49 v=100
7076992 Off ch=2 n=49 v=0
7078970 On ch=2 n=18 v=100
7079128 Off ch=2 n=18 v=0
7079475 On ch=2 n=43 v=100
7079549 Off ch=2 n=43 v=0
7079649 On ch=2 n=47 v=100
7079727 Off ch=2 n=47 v=0
7331026 On ch=2 n=13 v=100
7331199 Off ch=2 n=13 v=0
7335464 On ch=2 n=18 v=100
7335499 Off ch=2 n=18 v=0
7340079 On ch=2 n=4 v=100
7340409 Off ch=2 n=4 v=0
7342455 On ch=2 n=20 v=100
7342643 Off ch=2 n=20 v=0
7435937 On ch=2 n=14 v=100
7436287 Off ch=2 n=14 v=0
7712260 On ch=2 n=25 v=100
7712432 Off ch=2 n=25 v=0
7806480 On ch=2 n=39 v=100
7806626 Off ch=2 n=39 v=0
7857076 On ch=2 n=17 v=100
7857158 Off ch=2 n=17 v=0
7967937 On ch=2 n=19 v=100
7968067 Off ch=2 n=19 v=0
8020126 On ch=2 n=50 v=100
8020276 Off ch=2 n=50 v=0
8026846 On ch=2 n=54 v=100
8027001 Off ch=2 n=54 v=0
8027875 On ch=2 n=52 v=100
8028030 Off ch=2 n=52 v=0
8399530 On ch=2 n=30 v=100
8399649 Off ch=2 n=30 v=0
8612008 On ch=2 n=18 v=100
8612166 Off ch=2 n=18 v=0
9038670 On ch=2 n=28 v=100
9038807 Off ch=2 n=28 v=0
9144319 On ch=2 n=15 v=100
9144367 Off ch=2 n=15 v=0
9150415 On ch=2 n=48 v=100
9150490 Off ch=2 n=48 v=0
9150816 On ch=2 n=12 v=100
9150859 Off ch=2 n=12 v=0
9152517 On ch=2 n=44 v=100
9152596 Off ch=2 n=44 v=0
9153123 On ch=2 n=22 v=100
9153288 Off ch=2 n=22 v=0
9155264 On ch=2 n=47 v=100
9155342 Off ch=2 n=47 v=0
9155869 On ch=2 n=23 v=100
9156009 Off ch=2 n=23 v=0
9178255 On ch=2 n=52 v=100
9178373 Off ch=2 n=52 v=0
9180521 On ch=2 n=52 v=100
9180639 Off ch=2 n=52 v=0
9223786 On ch=2 n=14 v=100
9223930 Off ch=2 n=14 v=0
9340236 On ch=2 n=27 v=100
9340439 Off ch=2 n=27 v=0
9407478 On ch=2 n=22 v=100
9407667 Off ch=2 n=22 v=0
9527523 On ch=2 n=17 v=100
9527574 Off ch=2 n=17 v=0
9561253 On ch=2 n=11 v=100
9561393 Off ch=2 n=11 v=0
9581946 On ch=2 n=2 v=100
9582189 Off ch=2 n=2 v=0
9710222 On ch=2 n=48 v=100
9710300 Off ch=2 n=48 v=0
9710647 On ch=2 n=18 v=100
9710805 Off ch=2 n=18 v=0
9751556 On ch=2 n=67 v=100
9751631 Off ch=2 n=67 v=0
9752410 On ch=2 n=44 v=100
9752500 Off ch=2 n=44 v=0
9846574 On ch=2 n=20 v=100
9846594 On ch=2 n=13 v=100
9846703 Off ch=2 n=13 v=0
9846704 Off ch=2 n=20 v=0
9878040 On ch=2 n=45 v=100
9878137 Off ch=2 n=45 v=0
9918892 On ch=2 n=51 v=100
9919042 Off ch=2 n=51 v=0
9920943 On ch=2 n=51 v=100
9921093 Off ch=2 n=51 v=0
9940881 On ch=2 n=17 v=100
9940942 Off ch=2 n=17 v=0
10055314 On ch=2 n=59 v=100
10055389 Off ch=2 n=59 v=0
10078727 On ch=2 n=23 v=100
10078929 Off ch=2 n=23 v=0
10118173 On ch=2 n=21 v=100
10118331 Off ch=2 n=21 v=0
10120175 On ch=2 n=21 v=100
10120333 Off ch=2 n=21 v=0
10122177 On ch=2 n=22 v=100
10122335 Off ch=2 n=22 v=0
10153897 On ch=2 n=16 v=100
10153966 Off ch=2 n=16 v=0
10162329 On ch=2 n=34 v=100
10162414 Off ch=2 n=34 v=0
10175611 On ch=2 n=4 v=100
10175892 Off ch=2 n=4 v=0
10175894 On ch=2 n=8 v=100
10176019 Off ch=2 n=8 v=0
10267319 On ch=2 n=34 v=100
10267379 Off ch=2 n=34 v=0
10268432 On ch=2 n=37 v=100
10268492 Off ch=2 n=37 v=0
10268591 On ch=2 n=38 v=100
10268653 Off ch=2 n=38 v=0
10339466 On ch=2 n=46 v=100
10339546 Off ch=2 n=46 v=0
10424741 On ch=2 n=10 v=100
10425107 Off ch=2 n=10 v=0
10473994 On ch=2 n=19 v=100
10474151 Off ch=2 n=19 v=0
10474500 On ch=2 n=45 v=100
10474578 Off ch=2 n=45 v=0
10474681 On ch=2 n=55 v=100
10474756 Off ch=2 n=55 v=0
10476693 On ch=2 n=19 v=100
10476850 Off ch=2 n=19 v=0
10479148 On ch=2 n=50 v=100
10479225 Off ch=2 n=50 v=0
10481203 On ch=2 n=17 v=100
10481361 Off ch=2 n=17 v=0
10481708 On ch=2 n=45 v=100
10481786 Off ch=2 n=45 v=0
10481887 On ch=2 n=47 v=100
10481965 Off ch=2 n=47 v=0
10512372 On ch=2 n=21 v=100
10512530 Off ch=2 n=21 v=0
10519244 On ch=2 n=7 v=100
10519419 Off ch=2 n=7 v=0
10634074 On ch=2 n=18 v=100
10634212 Off ch=2 n=18 v=0
10648720 On ch=2 n=4 v=100
10648956 Off ch=2 n=4 v=0
10651106 On ch=2 n=2 v=100
10651475 Off ch=2 n=2 v=0
10671491 On ch=2 n=18 v=100
10671559 Off ch=2 n=18 v=0
10717763 On ch=2 n=17 v=100
10717938 Off ch=2 n=17 v=0
10856681 On ch=2 n=67 v=100
10856757 Off ch=2 n=67 v=0
10858348 On ch=2 n=54 v=100
10858467 Off ch=2 n=54 v=0
10860335 On ch=2 n=53 v=100
10860455 Off ch=2 n=53 v=0
10924395 On ch=2 n=17 v=100
10924399 On ch=2 n=14 v=100
10924428 Off ch=2 n=14 v=0
10924432 Off ch=2 n=17 v=0
10929514 On ch=2 n=17 v=100
10929518 On ch=2 n=14 v=100
10929547 Off ch=2 n=14 v=0
10929551 Off ch=2 n=17 v=0
10932151 On ch=2 n=17 v=100
10932155 On ch=2 n=14 v=100
10932184 Off ch=2 n=14 v=0
10932188 Off ch=2 n=17 v=0
10950249 On ch=2 n=11 v=100
10950422 Off ch=2 n=11 v=0
11086543 On ch=2 n=64 v=100
11086618 Off ch=2 n=64 v=0
11203603 On ch=2 n=14 v=100
11203647 Off ch=2 n=14 v=0
11456893 On ch=2 n=22 v=100
11457005 Off ch=2 n=22 v=0
11474428 On ch=2 n=49 v=100
11474506 Off ch=2 n=49 v=0
11474606 On ch=2 n=43 v=100
11474680 Off ch=2 n=43 v=0
11475027 On ch=2 n=19 v=100
11475185 Off ch=2 n=19 v=0
11477155 On ch=2 n=51 v=100
11477234 Off ch=2 n=51 v=0
11477335 On ch=2 n=45 v=100
11477413 Off ch=2 n=45 v=0
11477760 On ch=2 n=19 v=100
11477918 Off ch=2 n=19 v=0
11532984 On ch=2 n=23 v=100
11533186 Off ch=2 n=23 v=0
11615176 On ch=2 n=18 v=100
11615334 Off ch=2 n=18 v=0
11615630 On ch=2 n=45 v=100
11615708 Off ch=2 n=45 v=0
11615811 On ch=2 n=47 v=100
11615886 Off ch=2 n=47 v=0
11617835 On ch=2 n=18 v=100
11617993 Off ch=2 n=18 v=0
11618289 On ch=2 n=45 v=100
11618367 Off ch=2 n=45 v=0
11618471 On ch=2 n=45 v=100
11618545 Off ch=2 n=45 v=0
11620495 On ch=2 n=18 v=100
11620653 Off ch=2 n=18 v=0
11620949 On ch=2 n=45 v=100
11621027 Off ch=2 n=45 v=0
11621130 On ch=2 n=47 v=100
11621205 Off ch=2 n=47 v=0
11623154 On ch=2 n=18 v=100
11623312 Off ch=2 n=18 v=0
11623607 On ch=2 n=42 v=100
11623687 Off ch=2 n=42 v=0
11623786 On ch=2 n=47 v=100
11623864 Off ch=2 n=47 v=0
11624245 On ch=2 n=18 v=100
11624403 Off ch=2 n=18 v=0
11624750 On ch=2 n=45 v=100
11624828 Off ch=2 n=45 v=0
11626889 On ch=2 n=20 v=100
11627046 Off ch=2 n=20 v=0
11666186 On ch=2 n=18 v=100
11666303 Off ch=2 n=18 v=0
11749737 On ch=2 n=67 v=100
11749813 Off ch=2 n=67 v=0
11798176 On ch=2 n=6 v=100
11798238 Off ch=2 n=6 v=0
11992167 On ch=2 n=10 v=100
11992518 Off ch=2 n=10 v=0
11999448 On ch=2 n=14 v=100
11999675 Off ch=2 n=14 v=0
12005529 On ch=2 n=16 v=100
12005575 Off ch=2 n=16 v=0
12082007 On ch=2 n=16 v=100
12082128 Off ch=2 n=16 v=0
12082824 On ch=2 n=3 v=100
12083339 Off ch=2 n=3 v=0
12322299 On ch=2 n=18 v=100
12322457 Off ch=2 n=18 v=0
12322804 On ch=2 n=45 v=100
12322882 Off ch=2 n=45 v=0
12322983 On ch=2 n=49 v=100
12323061 Off ch=2 n=49 v=0
12325032 On ch=2 n=18 v=100
12325190 Off ch=2 n=18 v=0
12325537 On ch=2 n=45 v=100
12325615 Off ch=2 n=45 v=0
12325716 On ch=2 n=47 v=100
12325794 Off ch=2 n=47 v=0
12327765 On ch=2 n=20 v=100
12327898 Off ch=2 n=20 v=0
12361756 On ch=2 n=20 v=100
12361922 Off ch=2 n=20 v=0
12362450 On ch=2 n=38 v=100
12362528 Off ch=2 n=38 v=0
12364229 On ch=2 n=14 v=100
12364304 Off ch=2 n=14 v=0
12583019 On ch=2 n=16 v=100
12583086 Off ch=2 n=16 v=0
12605503 On ch=2 n=11 v=100
12605641 Off ch=2 n=11 v=0
12628401 On ch=2 n=3 v=100
12628652 Off ch=2 n=3 v=0
12683186 On ch=2 n=9 v=100
12683393 Off ch=2 n=9 v=0
12683396 On ch=2 n=7 v=100
12683576 Off ch=2 n=7 v=0
12685885 On ch=2 n=2 v=100
12686352 Off ch=2 n=2 v=0
12822309 On ch=2 n=15 v=100
12822479 Off ch=2 n=15 v=0
12873488 On ch=2 n=23 v=100
12873551 Off ch=2 n=23 v=0
12880782 On ch=2 n=13 v=100
12880830 Off ch=2 n=13 v=0
12954890 On ch=2 n=8 v=100
12955311 Off ch=2 n=8 v=0
13013137 On ch=2 n=6 v=100
13013504 Off ch=2 n=6 v=0
13051814 On ch=2 n=9 v=100
13052313 Off ch=2 n=9 v=0
13138953 On ch=2 n=10 v=100
13139058 Off ch=2 n=10 v=0
13177515 On ch=2 n=22 v=100
13177750 Off ch=2 n=22 v=0
13272691 On ch=2 n=50 v=100
13272844 Off ch=2 n=50 v=0
13273722 On ch=2 n=49 v=100
13273873 Off ch=2 n=49 v=0
13310086 On ch=2 n=19 v=100
13310244 Off ch=2 n=19 v=0
13310591 On ch=2 n=48 v=100
13310669 Off ch=2 n=48 v=0
13310770 On ch=2 n=47 v=100
13310848 Off ch=2 n=47 v=0
13312826 On ch=2 n=19 v=100
13312984 Off ch=2 n=19 v=0
13313331 On ch=2 n=48 v=100
13313409 Off ch=2 n=48 v=0
13313510 On ch=2 n=47 v=100
13313588 Off ch=2 n=47 v=0
13315566 On ch=2 n=19 v=100
13315724 Off ch=2 n=19 v=0
13318632 On ch=2 n=47 v=100
13318710 Off ch=2 n=47 v=0
13318811 On ch=2 n=47 v=100
13318889 Off ch=2 n=47 v=0
13323272 On ch=2 n=49 v=100
13323350 Off ch=2 n=49 v=0
13323445 On ch=2 n=48 v=100
13323532 Off ch=2 n=48 v=0
13323862 On ch=2 n=20 v=100
13324019 Off ch=2 n=20 v=0
13325998 On ch=2 n=52 v=100
13326076 Off ch=2 n=52 v=0
13326176 On ch=2 n=46 v=100
13326256 Off ch=2 n=46 v=0
13326601 On ch=2 n=17 v=100
13326756 Off ch=2 n=17 v=0
13361003 On ch=2 n=13 v=100
13361050 Off ch=2 n=13 v=0
13362484 On ch=2 n=12 v=100
13362551 Off ch=2 n=12 v=0
13385727 On ch=2 n=35 v=100
13385814 Off ch=2 n=35 v=0
13406943 On ch=2 n=24 v=100
13407008 Off ch=2 n=24 v=0
TrkEnd    
MTrk    
0 PrCh ch=3 p=42 
0 Meta TrkName "DNA" 
416 On ch=3 n=34 v=100
450 On ch=3 n=9 v=100
451 On ch=3 n=32 v=100
586 Off ch=3 n=34 v=0
586 Off ch=3 n=9 v=0
625 Off ch=3 n=32 v=0
722 On ch=3 n=4 v=100
1001 Off ch=3 n=4 v=0
1069 On ch=3 n=4 v=100
1572 Off ch=3 n=4 v=0
1625 On ch=3 n=35 v=100
1665 On ch=3 n=6 v=100
1808 Off ch=3 n=35 v=0
2135 On ch=3 n=7 v=100
2136 Off ch=3 n=6 v=0
2794 Off ch=3 n=7 v=0
4067 On ch=3 n=6 v=100
4312 Off ch=3 n=6 v=0
5711 On ch=3 n=13 v=100
5975 On ch=3 n=18 v=100
6002 Off ch=3 n=13 v=0
6004 On ch=3 n=7 v=100
6015 Off ch=3 n=18 v=0
6805 Off ch=3 n=7 v=0
6861 On ch=3 n=14 v=100
7080 On ch=3 n=28 v=100
7163 Off ch=3 n=14 v=0
7186 Off ch=3 n=28 v=0
7480 On ch=3 n=20 v=100
7783 On ch=3 n=17 v=100
7793 Off ch=3 n=20 v=0
7939 Off ch=3 n=17 v=0
8021 On ch=3 n=38 v=100
8149 Off ch=3 n=38 v=0
9192 On ch=3 n=43 v=100
9596 Off ch=3 n=43 v=0
11766 On ch=3 n=9 v=100
12642 Off ch=3 n=9 v=0
12933 On ch=3 n=11 v=100
13001 Off ch=3 n=11 v=0
13029 On ch=3 n=11 v=100
13029 On ch=3 n=22 v=100
13168 Off ch=3 n=11 v=0
13221 Off ch=3 n=22 v=0
13270 On ch=3 n=11 v=100
13343 Off ch=3 n=11 v=0
13345 On ch=3 n=8 v=100
13891 Off ch=3 n=8 v=0
13899 On ch=3 n=5 v=100
13899 On ch=3 n=23 v=100
14007 Off ch=3 n=5 v=0
14041 Off ch=3 n=23 v=0
14290 On ch=3 n=21 v=100
14376 On ch=3 n=21 v=100
14376 On ch=3 n=21 v=100
14402 On ch=3 n=7 v=100
14681 Off ch=3 n=21 v=0
14690 Off ch=3 n=7 v=0
14701 Off ch=3 n=21 v=0
14701 Off ch=3 n=21 v=0
15489 On ch=3 n=30 v=100
15589 Off ch=3 n=30 v=0
16573 On ch=3 n=22 v=100
16667 Off ch=3 n=22 v=0
16673 On ch=3 n=9 v=100
17296 Off ch=3 n=9 v=0
17340 On ch=3 n=19 v=100
17447 Off ch=3 n=19 v=0
17586 On ch=3 n=18 v=100
17677 Off ch=3 n=18 v=0
17706 On ch=3 n=4 v=100
18263 On ch=3 n=5 v=100
18283 Off ch=3 n=4 v=0
18450 Off ch=3 n=5 v=0
19422 On ch=3 n=11 v=100
19584 On ch=3 n=10 v=100
20246 Off ch=3 n=11 v=0
20246 Off ch=3 n=10 v=0
20271 On ch=3 n=7 v=100
21310 Off ch=3 n=7 v=0
22042 On ch=3 n=10 v=100
22263 On ch=3 n=12 v=100
22263 Off ch=3 n=10 v=0
22509 On ch=3 n=15 v=100
22511 Off ch=3 n=12 v=0
22620 On ch=3 n=18 v=100
22623 Off ch=3 n=15 v=0
22693 Off ch=3 n=18 v=0
23334 On ch=3 n=19 v=100
23361 On ch=3 n=7 v=100
23551 Off ch=3 n=7 v=0
23558 Off ch=3 n=19 v=0
24080 On ch=3 n=22 v=100
24141 Off ch=3 n=22 v=0
24740 On ch=3 n=8 v=100
24898 On ch=3 n=11 v=100
24959 Off ch=3 n=8 v=0
25405 On ch=3 n=39 v=100
25426 On ch=3 n=17 v=100
25448 Off ch=3 n=11 v=0
25449 Off ch=3 n=39 v=0
25449 Off ch=3 n=17 v=0
25516 On ch=3 n=17 v=100
25516 On ch=3 n=39 v=100
25516 On ch=3 n=9 v=100
25560 Off ch=3 n=17 v=0
25585 Off ch=3 n=39 v=0
26143 Off ch=3 n=9 v=0
26578 On ch=3 n=11 v=100
26606 Off ch=3 n=11 v=0
26608 On ch=3 n=8 v=100
26643 Off ch=3 n=8 v=0
26741 On ch=3 n=37 v=100
26797 Off ch=3 n=37 v=0
26904 On ch=3 n=30 v=100
26963 Off ch=3 n=30 v=0
30119 On ch=3 n=24 v=100
30283 Off ch=3 n=24 v=0
30350 On ch=3 n=28 v=100
30350 On ch=3 n=24 v=100
30724 Off ch=3 n=24 v=0
30875 Off ch=3 n=28 v=0
36223 On ch=3 n=43 v=100
36368 Off ch=3 n=43 v=0
36448 On ch=3 n=43 v=100
36572 On ch=3 n=36 v=100
36914 Off ch=3 n=43 v=0
37130 Off ch=3 n=36 v=0
37706 On ch=3 n=25 v=100
37720 On ch=3 n=41 v=100
38052 Off ch=3 n=25 v=0
38055 On ch=3 n=64 v=100
38055 On ch=3 n=64 v=100
38373 Off ch=3 n=41 v=0
38377 On ch=3 n=5 v=100
39090 Off ch=3 n=5 v=0
39091 On ch=3 n=7 v=100
39174 Off ch=3 n=64 v=0
39174 Off ch=3 n=64 v=0
39745 Off ch=3 n=7 v=0
39829 On ch=3 n=5 v=100
40060 Off ch=3 n=5 v=0
51125 On ch=3 n=57 v=100
51198 Off ch=3 n=57 v=0
52307 On ch=3 n=57 v=100
52307 On ch=3 n=52 v=100
52380 Off ch=3 n=57 v=0
52394 Off ch=3 n=52 v=0
58321 On ch=3 n=57 v=100
58321 On ch=3 n=49 v=100
58395 Off ch=3 n=57 v=0
58409 Off ch=3 n=49 v=0
60729 On ch=3 n=57 v=100
60729 On ch=3 n=52 v=100
60802 Off ch=3 n=57 v=0
60816 Off ch=3 n=52 v=0
62387 On ch=3 n=4 v=100
62757 Off ch=3 n=4 v=0
62909 On ch=3 n=4 v=100
63017 Off ch=3 n=4 v=0
65707 On ch=3 n=26 v=100
68393 Off ch=3 n=26 v=0
68573 On ch=3 n=10 v=100
69108 Off ch=3 n=10 v=0
69708 On ch=3 n=5 v=100
73381 Off ch=3 n=5 v=0
88456 On ch=3 n=58 v=100
88624 Off ch=3 n=58 v=0
88657 On ch=3 n=54 v=100
88657 On ch=3 n=54 v=100
88789 Off ch=3 n=54 v=0
88789 Off ch=3 n=54 v=0
88822 On ch=3 n=58 v=100
88857 On ch=3 n=48 v=100
88941 Off ch=3 n=48 v=0
88942 Off ch=3 n=58 v=0
89298 On ch=3 n=55 v=100
89298 On ch=3 n=55 v=100
89417 On ch=3 n=51 v=100
89417 On ch=3 n=51 v=100
89425 Off ch=3 n=55 v=0
89425 Off ch=3 n=55 v=0
89595 Off ch=3 n=51 v=0
89595 Off ch=3 n=51 v=0
89617 On ch=3 n=59 v=100
89744 Off ch=3 n=59 v=0
89934 On ch=3 n=57 v=100
89934 On ch=3 n=57 v=100
90055 On ch=3 n=67 v=100
90060 Off ch=3 n=57 v=0
90060 Off ch=3 n=57 v=0
90215 Off ch=3 n=67 v=0
90255 On ch=3 n=59 v=100
90255 On ch=3 n=59 v=100
90380 Off ch=3 n=59 v=0
90380 Off ch=3 n=59 v=0
90570 On ch=3 n=54 v=100
90570 On ch=3 n=54 v=100
90698 Off ch=3 n=54 v=0
90698 Off ch=3 n=54 v=0
90730 On ch=3 n=66 v=100
90730 On ch=3 n=66 v=100
90865 Off ch=3 n=66 v=0
90865 Off ch=3 n=66 v=0
90910 On ch=3 n=56 v=100
90924 On ch=3 n=45 v=100
91006 On ch=3 n=54 v=100
91010 Off ch=3 n=56 v=0
91017 Off ch=3 n=45 v=0
91160 Off ch=3 n=54 v=0
91207 On ch=3 n=59 v=100
91342 Off ch=3 n=59 v=0
91400 On ch=3 n=44 v=100
91480 Off ch=3 n=44 v=0
91688 On ch=3 n=58 v=100
91798 Off ch=3 n=58 v=0
92002 On ch=3 n=57 v=100
92002 On ch=3 n=57 v=100
92129 Off ch=3 n=57 v=0
92129 Off ch=3 n=57 v=0
92440 On ch=3 n=54 v=100
92440 On ch=3 n=54 v=100
92615 Off ch=3 n=54 v=0
92615 Off ch=3 n=54 v=0
92638 On ch=3 n=58 v=100
92765 Off ch=3 n=58 v=0
92794 On ch=3 n=57 v=100
92830 On ch=3 n=46 v=100
92916 On ch=3 n=58 v=100
92916 On ch=3 n=58 v=100
92916 Off ch=3 n=46 v=0
92923 Off ch=3 n=57 v=0
93093 Off ch=3 n=58 v=0
93093 Off ch=3 n=58 v=0
93274 On ch=3 n=59 v=100
93274 On ch=3 n=59 v=100
93309 On ch=3 n=46 v=100
93393 Off ch=3 n=46 v=0
93394 On ch=3 n=55 v=100
93394 On ch=3 n=55 v=100
93400 Off ch=3 n=59 v=0
93400 Off ch=3 n=59 v=0
93570 Off ch=3 n=55 v=0
93570 Off ch=3 n=55 v=0
94704 On ch=3 n=66 v=100
94824 Off ch=3 n=66 v=0
95078 On ch=3 n=3 v=100
95338 Off ch=3 n=3 v=0
98970 On ch=3 n=10 v=100
99155 On ch=3 n=7 v=100
99155 Off ch=3 n=10 v=0
99415 On ch=3 n=41 v=100
99484 On ch=3 n=38 v=100
99500 Off ch=3 n=7 v=0
99503 On ch=3 n=28 v=100
99503 On ch=3 n=6 v=100
99552 On ch=3 n=5 v=100
99552 On ch=3 n=14 v=100
99553 Off ch=3 n=41 v=0
99553 Off ch=3 n=6 v=0
99576 Off ch=3 n=28 v=0
99577 Off ch=3 n=38 v=0
99613 Off ch=3 n=5 v=0
99615 On ch=3 n=5 v=100
99629 Off ch=3 n=14 v=0
99803 Off ch=3 n=5 v=0
101781 On ch=3 n=62 v=100
101781 On ch=3 n=62 v=100
102079 Off ch=3 n=62 v=0
102079 Off ch=3 n=62 v=0
103024 On ch=3 n=12 v=100
103279 Off ch=3 n=12 v=0
105554 On ch=3 n=45 v=100
105623 On ch=3 n=24 v=100
105752 Off ch=3 n=45 v=0
105762 On ch=3 n=34 v=100
105786 On ch=3 n=26 v=100
105889 Off ch=3 n=34 v=0
105908 Off ch=3 n=26 v=0
105915 Off ch=3 n=24 v=0
105925 On ch=3 n=19 v=100
106161 Off ch=3 n=19 v=0
106786 On ch=3 n=8 v=100
107134 Off ch=3 n=8 v=0
107435 On ch=3 n=27 v=100
107444 On ch=3 n=8 v=100
107957 Off ch=3 n=8 v=0
108072 Off ch=3 n=27 v=0
114481 On ch=3 n=29 v=100
114635 On ch=3 n=12 v=100
114640 Off ch=3 n=29 v=0
115760 Off ch=3 n=12 v=0
115762 On ch=3 n=2 v=100
116995 Off ch=3 n=2 v=0
117013 On ch=3 n=15 v=100
117013 On ch=3 n=34 v=100
117092 Off ch=3 n=15 v=0
117113 Off ch=3 n=34 v=0
118647 On ch=3 n=13 v=100
118676 On ch=3 n=6 v=100
118931 Off ch=3 n=6 v=0
118937 Off ch=3 n=13 v=0
119585 On ch=3 n=5 v=100
120093 On ch=3 n=19 v=100
120095 On ch=3 n=5 v=100
120100 Off ch=3 n=5 v=0
120312 On ch=3 n=7 v=100
120337 Off ch=3 n=5 v=0
120384 Off ch=3 n=19 v=0
120611 Off ch=3 n=7 v=0
120917 On ch=3 n=13 v=100
121165 On ch=3 n=31 v=100
121203 Off ch=3 n=13 v=0
121232 On ch=3 n=13 v=100
121510 Off ch=3 n=31 v=0
122413 On ch=3 n=16 v=100
122421 Off ch=3 n=13 v=0
122588 On ch=3 n=31 v=100
122611 On ch=3 n=8 v=100
122627 Off ch=3 n=16 v=0
122758 Off ch=3 n=31 v=0
122758 Off ch=3 n=8 v=0
122762 On ch=3 n=10 v=100
123310 Off ch=3 n=10 v=0
123330 On ch=3 n=10 v=100
123806 On ch=3 n=12 v=100
123806 On ch=3 n=18 v=100
123810 Off ch=3 n=10 v=0
123866 Off ch=3 n=12 v=0
123883 Off ch=3 n=18 v=0
125323 On ch=3 n=33 v=100
125323 On ch=3 n=33 v=100
125355 On ch=3 n=38 v=100
125380 On ch=3 n=52 v=100
125380 On ch=3 n=52 v=100
125503 Off ch=3 n=33 v=0
125503 Off ch=3 n=33 v=0
125521 On ch=3 n=15 v=100
125566 Off ch=3 n=38 v=0
125692 Off ch=3 n=15 v=0
125901 On ch=3 n=8 v=100
125993 On ch=3 n=19 v=100
126003 Off ch=3 n=52 v=0
126003 Off ch=3 n=52 v=0
126063 Off ch=3 n=8 v=0
126107 Off ch=3 n=19 v=0
126110 On ch=3 n=12 v=100
126274 On ch=3 n=10 v=100
126274 Off ch=3 n=12 v=0
126314 Off ch=3 n=10 v=0
126440 On ch=3 n=22 v=100
126494 Off ch=3 n=22 v=0
126788 On ch=3 n=23 v=100
126817 On ch=3 n=9 v=100
126828 Off ch=3 n=23 v=0
127256 Off ch=3 n=9 v=0
127697 On ch=3 n=18 v=100
127787 Off ch=3 n=18 v=0
130045 On ch=3 n=12 v=100
130561 Off ch=3 n=12 v=0
130669 On ch=3 n=19 v=100
130761 On ch=3 n=19 v=100
130761 On ch=3 n=19 v=100
130774 Off ch=3 n=19 v=0
130777 On ch=3 n=9 v=100
131205 Off ch=3 n=9 v=0
131209 On ch=3 n=17 v=100
131255 Off ch=3 n=19 v=0
131255 Off ch=3 n=19 v=0
131375 On ch=3 n=7 v=100
131400 Off ch=3 n=17 v=0
131512 Off ch=3 n=7 v=0
131515 On ch=3 n=9 v=100
132387 On ch=3 n=0 v=100
132390 Off ch=3 n=9 v=0
132425 Off ch=3 n=0 v=0
132427 On ch=3 n=8 v=100
132709 On ch=3 n=10 v=100
132737 Off ch=3 n=8 v=0
132820 Off ch=3 n=10 v=0
133435 On ch=3 n=27 v=100
133526 On ch=3 n=53 v=100
133566 On ch=3 n=43 v=100
133566 On ch=3 n=43 v=100
133587 Off ch=3 n=27 v=0
133594 On ch=3 n=38 v=100
133614 On ch=3 n=26 v=100
133731 Off ch=3 n=53 v=0
133835 Off ch=3 n=26 v=0
133842 Off ch=3 n=38 v=0
133901 Off ch=3 n=43 v=0
133901 Off ch=3 n=43 v=0
135070 On ch=3 n=24 v=100
135141 Off ch=3 n=24 v=0
135889 On ch=3 n=15 v=100
135912 On ch=3 n=12 v=100
136043 Off ch=3 n=15 v=0
136087 Off ch=3 n=12 v=0
136422 On ch=3 n=6 v=100
137325 Off ch=3 n=6 v=0
137419 On ch=3 n=8 v=100
137638 Off ch=3 n=8 v=0
137652 On ch=3 n=13 v=100
137708 On ch=3 n=7 v=100
137738 On ch=3 n=11 v=100
137739 Off ch=3 n=13 v=0
137940 Off ch=3 n=7 v=0
138075 Off ch=3 n=11 v=0
138112 On ch=3 n=11 v=100
138426 Off ch=3 n=11 v=0
138499 On ch=3 n=8 v=100
138800 Off ch=3 n=8 v=0
141469 On ch=3 n=22 v=100
141545 Off ch=3 n=22 v=0
142033 On ch=3 n=7 v=100
142462 Off ch=3 n=7 v=0
142923 On ch=3 n=12 v=100
143569 Off ch=3 n=12 v=0
143639 On ch=3 n=4 v=100
144470 Off ch=3 n=4 v=0
145018 On ch=3 n=7 v=100
145127 On ch=3 n=26 v=100
145127 On ch=3 n=26 v=100
145132 Off ch=3 n=7 v=0
145242 On ch=3 n=6 v=100
145516 Off ch=3 n=6 v=0
145572 On ch=3 n=41 v=100
145599 Off ch=3 n=26 v=0
145599 Off ch=3 n=26 v=0
145619 On ch=3 n=1 v=100
145716 Off ch=3 n=41 v=0
148046 Off ch=3 n=1 v=0
148163 On ch=3 n=3 v=100
148620 On ch=3 n=16 v=100
148620 On ch=3 n=19 v=100
148620 On ch=3 n=35 v=100
148620 Off ch=3 n=3 v=0
149016 Off ch=3 n=16 v=0
149065 Off ch=3 n=19 v=0
149076 On ch=3 n=10 v=100
149138 Off ch=3 n=35 v=0
149253 On ch=3 n=7 v=100
149259 Off ch=3 n=10 v=0
149635 Off ch=3 n=7 v=0
150045 On ch=3 n=52 v=100
150285 Off ch=3 n=52 v=0
152067 On ch=3 n=2 v=100
152891 Off ch=3 n=2 v=0
152892 On ch=3 n=2 v=100
153123 Off ch=3 n=2 v=0
153759 On ch=3 n=20 v=100
153759 On ch=3 n=15 v=100
154019 Off ch=3 n=15 v=0
154090 On ch=3 n=6 v=100
154093 Off ch=3 n=20 v=0
154718 Off ch=3 n=6 v=0
154723 On ch=3 n=13 v=100
154893 Off ch=3 n=13 v=0
154895 On ch=3 n=4 v=100
156140 On ch=3 n=20 v=100
156157 Off ch=3 n=4 v=0
156218 Off ch=3 n=20 v=0
157219 On ch=3 n=20 v=100
157291 Off ch=3 n=20 v=0
158357 On ch=3 n=32 v=100
158405 On ch=3 n=36 v=100
158422 On ch=3 n=27 v=100
158459 On ch=3 n=42 v=100
158637 Off ch=3 n=32 v=0
158637 Off ch=3 n=27 v=0
158638 On ch=3 n=21 v=100
158657 Off ch=3 n=36 v=0
158699 Off ch=3 n=42 v=0
158809 Off ch=3 n=21 v=0
158814 On ch=3 n=33 v=100
158861 On ch=3 n=29 v=100
158956 On ch=3 n=15 v=100
158988 Off ch=3 n=33 v=0
158990 On ch=3 n=50 v=100
159101 Off ch=3 n=29 v=0
159102 Off ch=3 n=15 v=0
159109 On ch=3 n=7 v=100
159466 Off ch=3 n=50 v=0
160226 Off ch=3 n=7 v=0
160227 On ch=3 n=46 v=100
160357 Off ch=3 n=46 v=0
160648 On ch=3 n=8 v=100
161192 Off ch=3 n=8 v=0
161247 On ch=3 n=11 v=100
161418 On ch=3 n=45 v=100
161519 Off ch=3 n=11 v=0
161531 On ch=3 n=14 v=100
161539 Off ch=3 n=45 v=0
161647 On ch=3 n=17 v=100
161647 On ch=3 n=17 v=100
161694 Off ch=3 n=14 v=0
161698 On ch=3 n=11 v=100
162098 Off ch=3 n=11 v=0
162137 Off ch=3 n=17 v=0
162137 Off ch=3 n=17 v=0
162288 On ch=3 n=13 v=100
162777 Off ch=3 n=13 v=0
163096 On ch=3 n=47 v=100
163096 On ch=3 n=47 v=100
163111 On ch=3 n=23 v=100
163173 On ch=3 n=7 v=100
163213 Off ch=3 n=23 v=0
163307 Off ch=3 n=47 v=0
163307 Off ch=3 n=47 v=0
163419 Off ch=3 n=7 v=0
163518 On ch=3 n=5 v=100
163973 Off ch=3 n=5 v=0
164496 On ch=3 n=18 v=100
164509 On ch=3 n=18 v=100
164549 Off ch=3 n=18 v=0
164564 Off ch=3 n=18 v=0
164598 On ch=3 n=23 v=100
164610 On ch=3 n=20 v=100
164613 On ch=3 n=30 v=100
164620 On ch=3 n=45 v=100
164622 On ch=3 n=20 v=100
164675 Off ch=3 n=20 v=0
164676 Off ch=3 n=20 v=0
164690 Off ch=3 n=23 v=0
164706 Off ch=3 n=30 v=0
164773 Off ch=3 n=45 v=0
165076 On ch=3 n=13 v=100
165140 On ch=3 n=10 v=100
165318 On ch=3 n=23 v=100
165322 Off ch=3 n=13 v=0
165610 Off ch=3 n=10 v=0
165729 Off ch=3 n=23 v=0
166802 On ch=3 n=19 v=100
166847 Off ch=3 n=19 v=0
167187 On ch=3 n=34 v=100
167290 Off ch=3 n=34 v=0
167740 On ch=3 n=38 v=100
167865 Off ch=3 n=38 v=0
168741 On ch=3 n=4 v=100
168972 Off ch=3 n=4 v=0
169309 On ch=3 n=11 v=100
169639 Off ch=3 n=11 v=0
169640 On ch=3 n=8 v=100
170217 Off ch=3 n=8 v=0
170542 On ch=3 n=33 v=100
170686 Off ch=3 n=33 v=0
171661 On ch=3 n=1 v=100
171719 Off ch=3 n=1 v=0
173347 On ch=3 n=16 v=100
173488 Off ch=3 n=16 v=0
177314 On ch=3 n=11 v=100
178178 Off ch=3 n=11 v=0
178773 On ch=3 n=11 v=100
178990 Off ch=3 n=11 v=0
179995 On ch=3 n=63 v=100
180083 Off ch=3 n=63 v=0
180608 On ch=3 n=49 v=100
180968 Off ch=3 n=49 v=0
182820 On ch=3 n=51 v=100
182915 Off ch=3 n=51 v=0
183284 On ch=3 n=47 v=100
183597 Off ch=3 n=47 v=0
184801 On ch=3 n=2 v=100
185033 Off ch=3 n=2 v=0
185162 On ch=3 n=3 v=100
185340 Off ch=3 n=3 v=0
185878 On ch=3 n=2 v=100
186833 On ch=3 n=6 v=100
186854 Off ch=3 n=2 v=0
187089 Off ch=3 n=6 v=0
187740 On ch=3 n=2 v=100
188693 Off ch=3 n=2 v=0
188698 On ch=3 n=1 v=100
188885 Off ch=3 n=1 v=0
189797 On ch=3 n=10 v=100
189948 Off ch=3 n=10 v=0
189974 On ch=3 n=17 v=100
190122 On ch=3 n=6 v=100
190124 Off ch=3 n=17 v=0
190990 On ch=3 n=7 v=100
191004 Off ch=3 n=6 v=0
191957 On ch=3 n=7 v=100
191957 Off ch=3 n=7 v=0
192506 Off ch=3 n=7 v=0
192507 On ch=3 n=11 v=100
192659 Off ch=3 n=11 v=0
193803 On ch=3 n=18 v=100
193933 Off ch=3 n=18 v=0
194191 On ch=3 n=17 v=100
194313 Off ch=3 n=17 v=0
194777 On ch=3 n=27 v=100
194927 Off ch=3 n=27 v=0
195116 On ch=3 n=14 v=100
195181 Off ch=3 n=14 v=0
195184 On ch=3 n=14 v=100
195238 Off ch=3 n=14 v=0
195752 On ch=3 n=17 v=100
195907 On ch=3 n=11 v=100
195969 Off ch=3 n=17 v=0
196384 On ch=3 n=13 v=100
196385 Off ch=3 n=11 v=0
196459 On ch=3 n=19 v=100
196459 On ch=3 n=19 v=100
196509 Off ch=3 n=13 v=0
196554 On ch=3 n=11 v=100
196819 Off ch=3 n=11 v=0
196822 On ch=3 n=17 v=100
196831 Off ch=3 n=19 v=0
196831 Off ch=3 n=19 v=0
196926 Off ch=3 n=17 v=0
197029 On ch=3 n=24 v=100
197177 On ch=3 n=10 v=100
197541 Off ch=3 n=24 v=0
197541 Off ch=3 n=10 v=0
198144 On ch=3 n=20 v=100
198205 On ch=3 n=7 v=100
198481 Off ch=3 n=20 v=0
198487 Off ch=3 n=7 v=0
199419 On ch=3 n=30 v=100
199447 On ch=3 n=29 v=100
199456 On ch=3 n=41 v=100
199460 On ch=3 n=38 v=100
199464 On ch=3 n=22 v=100
199498 Off ch=3 n=30 v=0
199560 Off ch=3 n=29 v=0
199562 Off ch=3 n=22 v=0
199595 Off ch=3 n=38 v=0
199733 Off ch=3 n=41 v=0
200382 On ch=3 n=29 v=100
200496 Off ch=3 n=29 v=0
203840 On ch=3 n=49 v=100
204441 Off ch=3 n=49 v=0
204688 On ch=3 n=3 v=100
205428 Off ch=3 n=3 v=0
205962 On ch=3 n=20 v=100
205971 On ch=3 n=34 v=100
206138 On ch=3 n=1 v=100
206197 Off ch=3 n=20 v=0
206296 Off ch=3 n=34 v=0
208037 On ch=3 n=14 v=100
208037 On ch=3 n=14 v=100
208057 On ch=3 n=11 v=100
208072 Off ch=3 n=1 v=0
208351 On ch=3 n=0 v=100
208355 Off ch=3 n=11 v=0
208378 Off ch=3 n=14 v=0
208378 Off ch=3 n=14 v=0
209340 On ch=3 n=49 v=100
209340 Off ch=3 n=0 v=0
209936 Off ch=3 n=49 v=0
210404 On ch=3 n=25 v=100
210446 On ch=3 n=12 v=100
210567 Off ch=3 n=25 v=0
210678 On ch=3 n=18 v=100
210678 On ch=3 n=18 v=100
210700 Off ch=3 n=12 v=0
210706 On ch=3 n=15 v=100
210895 Off ch=3 n=15 v=0
210916 Off ch=3 n=18 v=0
210916 Off ch=3 n=18 v=0
211451 On ch=3 n=25 v=100
211496 Off ch=3 n=25 v=0
211550 On ch=3 n=36 v=100
211558 On ch=3 n=18 v=100
211746 Off ch=3 n=18 v=0
211873 Off ch=3 n=36 v=0
211923 On ch=3 n=8 v=100
212368 Off ch=3 n=8 v=0
213172 On ch=3 n=18 v=100
213263 Off ch=3 n=18 v=0
213974 On ch=3 n=11 v=100
214020 Off ch=3 n=11 v=0
214976 On ch=3 n=16 v=100
215012 On ch=3 n=13 v=100
215025 Off ch=3 n=16 v=0
215124 On ch=3 n=25 v=100
215140 Off ch=3 n=13 v=0
215210 On ch=3 n=10 v=100
215528 Off ch=3 n=25 v=0
215528 Off ch=3 n=10 v=0
215817 On ch=3 n=48 v=100
215868 On ch=3 n=20 v=100
215869 On ch=3 n=6 v=100
216154 Off ch=3 n=48 v=0
216166 Off ch=3 n=6 v=0
216237 Off ch=3 n=20 v=0
216908 On ch=3 n=14 v=100
216941 On ch=3 n=26 v=100
216952 Off ch=3 n=14 v=0
216958 On ch=3 n=20 v=100
216970 On ch=3 n=13 v=100
217066 Off ch=3 n=20 v=0
217068 Off ch=3 n=26 v=0
217612 Off ch=3 n=13 v=0
217652 On ch=3 n=30 v=100
217714 Off ch=3 n=30 v=0
217863 On ch=3 n=22 v=100
217956 Off ch=3 n=22 v=0
217963 On ch=3 n=7 v=100
218383 Off ch=3 n=7 v=0
218385 On ch=3 n=21 v=100
218593 Off ch=3 n=21 v=0
218604 On ch=3 n=20 v=100
218605 On ch=3 n=27 v=100
218680 Off ch=3 n=20 v=0
218706 Off ch=3 n=27 v=0
219048 On ch=3 n=7 v=100
219221 Off ch=3 n=7 v=0
219389 On ch=3 n=13 v=100
219524 Off ch=3 n=13 v=0
219587 On ch=3 n=27 v=100
219631 Off ch=3 n=27 v=0
219712 On ch=3 n=24 v=100
219801 On ch=3 n=26 v=100
219841 On ch=3 n=30 v=100
219857 On ch=3 n=42 v=100
219857 On ch=3 n=42 v=100
219867 Off ch=3 n=24 v=0
219897 On ch=3 n=19 v=100
219981 Off ch=3 n=19 v=0
219982 Off ch=3 n=26 v=0
219982 Off ch=3 n=30 v=0
220095 Off ch=3 n=42 v=0
220095 Off ch=3 n=42 v=0
221392 On ch=3 n=18 v=100
221463 Off ch=3 n=18 v=0
222668 On ch=3 n=5 v=100
222673 On ch=3 n=21 v=100
222775 Off ch=3 n=5 v=0
222778 On ch=3 n=15 v=100
222866 Off ch=3 n=21 v=0
223168 Off ch=3 n=15 v=0
233604 On ch=3 n=30 v=100
233650 On ch=3 n=13 v=100
233754 Off ch=3 n=30 v=0
234273 Off ch=3 n=13 v=0
234291 On ch=3 n=6 v=100
235536 On ch=3 n=8 v=100
235545 Off ch=3 n=6 v=0
235934 On ch=3 n=15 v=100
235946 Off ch=3 n=8 v=0
235948 On ch=3 n=5 v=100
236018 Off ch=3 n=15 v=0
237036 Off ch=3 n=5 v=0
237120 On ch=3 n=9 v=100
237120 On ch=3 n=5 v=100
237141 Off ch=3 n=5 v=0
237476 On ch=3 n=4 v=100
237482 Off ch=3 n=9 v=0
238379 Off ch=3 n=4 v=0
238383 On ch=3 n=9 v=100
239112 Off ch=3 n=9 v=0
239114 On ch=3 n=5 v=100
239218 On ch=3 n=5 v=100
239219 Off ch=3 n=5 v=0
239426 Off ch=3 n=5 v=0
239678 On ch=3 n=14 v=100
239755 Off ch=3 n=14 v=0
239758 On ch=3 n=11 v=100
239858 Off ch=3 n=11 v=0
240618 On ch=3 n=24 v=100
240661 On ch=3 n=7 v=100
240686 Off ch=3 n=24 v=0
241659 On ch=3 n=42 v=100
241659 On ch=3 n=42 v=100
241789 Off ch=3 n=7 v=0
241794 On ch=3 n=19 v=100
241964 Off ch=3 n=19 v=0
241986 Off ch=3 n=42 v=0
241986 Off ch=3 n=42 v=0
242726 On ch=3 n=20 v=100
242887 Off ch=3 n=20 v=0
243489 On ch=3 n=5 v=100
243685 Off ch=3 n=5 v=0
245221 On ch=3 n=5 v=100
246447 Off ch=3 n=5 v=0
246449 On ch=3 n=23 v=100
246468 On ch=3 n=8 v=100
246563 Off ch=3 n=23 v=0
246567 Off ch=3 n=8 v=0
247895 On ch=3 n=2 v=100
248960 Off ch=3 n=2 v=0
248963 On ch=3 n=1 v=100
250042 Off ch=3 n=1 v=0
250485 On ch=3 n=2 v=100
251487 On ch=3 n=28 v=100
251566 Off ch=3 n=2 v=0
251581 Off ch=3 n=28 v=0
251594 On ch=3 n=6 v=100
252112 Off ch=3 n=6 v=0
252552 On ch=3 n=10 v=100
252753 On ch=3 n=5 v=100
252755 Off ch=3 n=10 v=0
252928 Off ch=3 n=5 v=0
254059 On ch=3 n=26 v=100
254305 On ch=3 n=23 v=100
254478 Off ch=3 n=26 v=0
254503 Off ch=3 n=23 v=0
254505 On ch=3 n=11 v=100
254567 Off ch=3 n=11 v=0
254583 On ch=3 n=12 v=100
255031 Off ch=3 n=12 v=0
255645 On ch=3 n=23 v=100
255657 On ch=3 n=14 v=100
255710 On ch=3 n=33 v=100
255727 On ch=3 n=5 v=100
255734 Off ch=3 n=14 v=0
255735 Off ch=3 n=23 v=0
255810 Off ch=3 n=33 v=0
256805 Off ch=3 n=5 v=0
256806 On ch=3 n=6 v=100
256828 On ch=3 n=10 v=100
257606 Off ch=3 n=6 v=0
257716 On ch=3 n=34 v=100
257752 On ch=3 n=38 v=100
257783 On ch=3 n=12 v=100
257794 Off ch=3 n=10 v=0
257855 Off ch=3 n=34 v=0
257855 Off ch=3 n=12 v=0
257856 On ch=3 n=40 v=100
257864 Off ch=3 n=38 v=0
257919 Off ch=3 n=40 v=0
258178 On ch=3 n=6 v=100
259425 On ch=3 n=17 v=100
259515 Off ch=3 n=6 v=0
259540 Off ch=3 n=17 v=0
259665 On ch=3 n=48 v=100
259667 On ch=3 n=19 v=100
259742 Off ch=3 n=19 v=0
259813 Off ch=3 n=48 v=0
259854 On ch=3 n=29 v=100
260070 On ch=3 n=10 v=100
260070 On ch=3 n=12 v=100
260182 Off ch=3 n=29 v=0
260443 Off ch=3 n=10 v=0
260657 Off ch=3 n=12 v=0
260680 On ch=3 n=11 v=100
260886 On ch=3 n=13 v=100
260886 Off ch=3 n=11 v=0
261008 On ch=3 n=13 v=100
261058 Off ch=3 n=13 v=0
261154 Off ch=3 n=13 v=0
261352 On ch=3 n=8 v=100
262071 Off ch=3 n=8 v=0
262293 On ch=3 n=20 v=100
262312 On ch=3 n=20 v=100
262334 On ch=3 n=10 v=100
262468 On ch=3 n=34 v=100
262468 Off ch=3 n=20 v=0
262468 Off ch=3 n=10 v=0
262470 Off ch=3 n=20 v=0
262617 Off ch=3 n=34 v=0
262623 On ch=3 n=19 v=100
262738 On ch=3 n=47 v=100
262738 On ch=3 n=47 v=100
262759 Off ch=3 n=19 v=0
262777 On ch=3 n=28 v=100
262888 Off ch=3 n=28 v=0
262889 On ch=3 n=43 v=100
263002 Off ch=3 n=47 v=0
263002 Off ch=3 n=47 v=0
263031 Off ch=3 n=43 v=0
264235 On ch=3 n=27 v=100
264346 Off ch=3 n=27 v=0
264397 On ch=3 n=15 v=100
264493 On ch=3 n=6 v=100
264503 Off ch=3 n=15 v=0
264869 Off ch=3 n=6 v=0
264994 On ch=3 n=7 v=100
265503 Off ch=3 n=7 v=0
273105 On ch=3 n=8 v=100
273875 Off ch=3 n=8 v=0
273937 On ch=3 n=21 v=100
274022 Off ch=3 n=21 v=0
274024 On ch=3 n=8 v=100
274186 Off ch=3 n=8 v=0
274191 On ch=3 n=19 v=100
274208 On ch=3 n=13 v=100
274335 Off ch=3 n=19 v=0
274583 Off ch=3 n=13 v=0
274600 On ch=3 n=6 v=100
274845 Off ch=3 n=6 v=0
275114 On ch=3 n=27 v=100
275185 Off ch=3 n=27 v=0
275426 On ch=3 n=25 v=100
275478 Off ch=3 n=25 v=0
276191 On ch=3 n=33 v=100
276374 Off ch=3 n=33 v=0
277030 On ch=3 n=54 v=100
277288 Off ch=3 n=54 v=0
278320 On ch=3 n=27 v=100
278465 Off ch=3 n=27 v=0
278792 On ch=3 n=10 v=100
279229 Off ch=3 n=10 v=0
291027 On ch=3 n=2 v=100
291812 Off ch=3 n=2 v=0
291847 On ch=3 n=2 v=100
292345 Off ch=3 n=2 v=0
292377 On ch=3 n=2 v=100
296151 On ch=3 n=8 v=100
296237 Off ch=3 n=2 v=0
296770 On ch=3 n=9 v=100
296860 Off ch=3 n=8 v=0
297434 On ch=3 n=2 v=100
297449 Off ch=3 n=9 v=0
297828 On ch=3 n=47 v=100
297839 On ch=3 n=3 v=100
297856 Off ch=3 n=2 v=0
297961 On ch=3 n=2 v=100
298188 Off ch=3 n=3 v=0
298362 On ch=3 n=38 v=100
298611 On ch=3 n=2 v=100
298681 Off ch=3 n=2 v=0
298695 Off ch=3 n=47 v=0
299463 Off ch=3 n=38 v=0
299607 Off ch=3 n=2 v=0
301666 On ch=3 n=38 v=100
301725 On ch=3 n=13 v=100
301745 On ch=3 n=7 v=100
301754 Off ch=3 n=38 v=0
301755 Off ch=3 n=13 v=0
302601 Off ch=3 n=7 v=0
305218 On ch=3 n=6 v=100
305508 Off ch=3 n=6 v=0
305741 On ch=3 n=5 v=100
306379 On ch=3 n=40 v=100
306523 Off ch=3 n=5 v=0
306556 Off ch=3 n=40 v=0
308071 On ch=3 n=29 v=100
308082 On ch=3 n=6 v=100
308156 Off ch=3 n=29 v=0
308414 Off ch=3 n=6 v=0
308415 On ch=3 n=13 v=100
308455 Off ch=3 n=13 v=0
309061 On ch=3 n=10 v=100
309100 Off ch=3 n=10 v=0
313506 On ch=3 n=5 v=100
314219 On ch=3 n=6 v=100
314221 Off ch=3 n=5 v=0
314340 Off ch=3 n=6 v=0
314383 On ch=3 n=24 v=100
314462 Off ch=3 n=24 v=0
314494 On ch=3 n=57 v=100
314521 On ch=3 n=5 v=100
314577 On ch=3 n=24 v=100
314617 Off ch=3 n=57 v=0
314659 On ch=3 n=13 v=100
314682 Off ch=3 n=5 v=0
314812 On ch=3 n=21 v=100
314929 Off ch=3 n=13 v=0
314931 Off ch=3 n=24 v=0
314958 Off ch=3 n=21 v=0
314993 On ch=3 n=3 v=100
315404 On ch=3 n=6 v=100
315404 On ch=3 n=9 v=100
315858 Off ch=3 n=3 v=0
316734 Off ch=3 n=6 v=0
316929 Off ch=3 n=9 v=0
316985 On ch=3 n=1 v=100
317129 Off ch=3 n=1 v=0
317956 On ch=3 n=5 v=100
317956 On ch=3 n=8 v=100
318120 Off ch=3 n=5 v=0
318146 On ch=3 n=9 v=100
318186 Off ch=3 n=8 v=0
318398 Off ch=3 n=9 v=0
318689 On ch=3 n=8 v=100
318877 Off ch=3 n=8 v=0
319908 On ch=3 n=18 v=100
319976 On ch=3 n=25 v=100
319988 Off ch=3 n=18 v=0
319994 On ch=3 n=9 v=100
320141 Off ch=3 n=25 v=0
320487 Off ch=3 n=9 v=0
325120 On ch=3 n=6 v=100
327989 Off ch=3 n=6 v=0
329410 On ch=3 n=14 v=100
329561 On ch=3 n=26 v=100
329571 On ch=3 n=9 v=100
329572 Off ch=3 n=14 v=0
329755 Off ch=3 n=9 v=0
329764 On ch=3 n=12 v=100
329812 Off ch=3 n=26 v=0
330097 Off ch=3 n=12 v=0
330341 On ch=3 n=19 v=100
330431 On ch=3 n=22 v=100
330488 Off ch=3 n=19 v=0
330495 Off ch=3 n=22 v=0
331444 On ch=3 n=11 v=100
331540 Off ch=3 n=11 v=0
331545 On ch=3 n=12 v=100
331624 Off ch=3 n=12 v=0
331931 On ch=3 n=20 v=100
332086 On ch=3 n=4 v=100
332089 Off ch=3 n=20 v=0
332252 Off ch=3 n=4 v=0
332254 On ch=3 n=6 v=100
333444 Off ch=3 n=6 v=0
333572 On ch=3 n=26 v=100
333704 Off ch=3 n=26 v=0
333741 On ch=3 n=9 v=100
334555 On ch=3 n=8 v=100
334557 Off ch=3 n=9 v=0
334719 Off ch=3 n=8 v=0
334866 On ch=3 n=17 v=100
334947 On ch=3 n=25 v=100
334953 Off ch=3 n=17 v=0
335132 Off ch=3 n=25 v=0
335134 On ch=3 n=17 v=100
335247 Off ch=3 n=17 v=0
335260 On ch=3 n=12 v=100
335416 Off ch=3 n=12 v=0
335623 On ch=3 n=11 v=100
335875 Off ch=3 n=11 v=0
336053 On ch=3 n=44 v=100
336230 Off ch=3 n=44 v=0
338379 On ch=3 n=4 v=100
339053 Off ch=3 n=4 v=0
339084 On ch=3 n=6 v=100
339424 On ch=3 n=12 v=100
339424 Off ch=3 n=6 v=0
339535 Off ch=3 n=12 v=0
339539 On ch=3 n=10 v=100
339604 Off ch=3 n=10 v=0
339610 On ch=3 n=22 v=100
340668 Off ch=3 n=22 v=0
340669 On ch=3 n=9 v=100
340915 Off ch=3 n=9 v=0
342948 On ch=3 n=31 v=100
343076 Off ch=3 n=31 v=0
343365 On ch=3 n=28 v=100
343443 On ch=3 n=49 v=100
343459 Off ch=3 n=28 v=0
343498 On ch=3 n=24 v=100
343696 Off ch=3 n=49 v=0
343699 Off ch=3 n=24 v=0
344170 On ch=3 n=25 v=100
344220 On ch=3 n=26 v=100
344225 On ch=3 n=60 v=100
344227 On ch=3 n=21 v=100
344306 On ch=3 n=33 v=100
344384 Off ch=3 n=25 v=0
344387 Off ch=3 n=21 v=0
344415 Off ch=3 n=26 v=0
344462 Off ch=3 n=60 v=0
344468 Off ch=3 n=33 v=0
347171 On ch=3 n=10 v=100
347677 On ch=3 n=21 v=100
347718 On ch=3 n=12 v=100
347732 Off ch=3 n=10 v=0
347924 Off ch=3 n=21 v=0
348175 On ch=3 n=13 v=100
348186 Off ch=3 n=12 v=0
348461 Off ch=3 n=13 v=0
349134 On ch=3 n=5 v=100
351987 Off ch=3 n=5 v=0
352901 On ch=3 n=38 v=100
352990 On ch=3 n=45 v=100
353071 Off ch=3 n=38 v=0
353176 Off ch=3 n=45 v=0
353213 On ch=3 n=45 v=100
353417 Off ch=3 n=45 v=0
353469 On ch=3 n=45 v=100
353501 Off ch=3 n=45 v=0
353546 On ch=3 n=45 v=100
353665 Off ch=3 n=45 v=0
354196 On ch=3 n=37 v=100
354451 On ch=3 n=35 v=100
354565 Off ch=3 n=37 v=0
354570 On ch=3 n=0 v=100
354583 Off ch=3 n=35 v=0
354890 On ch=3 n=17 v=100
354890 On ch=3 n=17 v=100
354893 Off ch=3 n=0 v=0
355409 On ch=3 n=22 v=100
355409 On ch=3 n=22 v=100
355569 Off ch=3 n=17 v=0
355569 Off ch=3 n=17 v=0
356760 Off ch=3 n=22 v=0
356760 Off ch=3 n=22 v=0
357044 On ch=3 n=7 v=100
357690 Off ch=3 n=7 v=0
357691 On ch=3 n=5 v=100
358714 Off ch=3 n=5 v=0
358715 On ch=3 n=6 v=100
358716 On ch=3 n=25 v=100
359070 On ch=3 n=43 v=100
359144 Off ch=3 n=6 v=0
359195 Off ch=3 n=25 v=0
359461 Off ch=3 n=43 v=0
359692 On ch=3 n=21 v=100
359692 On ch=3 n=21 v=100
359708 On ch=3 n=13 v=100
359821 Off ch=3 n=13 v=0
359833 On ch=3 n=4 v=100
359857 Off ch=3 n=21 v=0
359857 Off ch=3 n=21 v=0
360067 Off ch=3 n=4 v=0
360167 On ch=3 n=5 v=100
360225 On ch=3 n=1 v=100
360227 Off ch=3 n=5 v=0
360723 On ch=3 n=3 v=100
360742 Off ch=3 n=1 v=0
361076 On ch=3 n=3 v=100
361180 On ch=3 n=4 v=100
361197 Off ch=3 n=3 v=0
361381 On ch=3 n=3 v=100
361468 On ch=3 n=4 v=100
361513 Off ch=3 n=3 v=0
361684 On ch=3 n=3 v=100
361690 Off ch=3 n=4 v=0
361818 Off ch=3 n=3 v=0
361988 On ch=3 n=2 v=100
362048 Off ch=3 n=4 v=0
362083 On ch=3 n=3 v=100
362167 Off ch=3 n=3 v=0
362414 On ch=3 n=3 v=100
362476 Off ch=3 n=2 v=0
362531 Off ch=3 n=3 v=0
363229 Off ch=3 n=3 v=0
363231 On ch=3 n=27 v=100
363358 Off ch=3 n=27 v=0
363491 On ch=3 n=22 v=100
363678 Off ch=3 n=22 v=0
363763 On ch=3 n=19 v=100
363778 On ch=3 n=21 v=100
363856 Off ch=3 n=21 v=0
363862 Off ch=3 n=19 v=0
363923 On ch=3 n=7 v=100
364719 On ch=3 n=5 v=100
364720 Off ch=3 n=7 v=0
365303 On ch=3 n=7 v=100
365467 Off ch=3 n=5 v=0
365668 Off ch=3 n=7 v=0
365685 On ch=3 n=28 v=100
366416 Off ch=3 n=28 v=0
367573 On ch=3 n=19 v=100
367629 Off ch=3 n=19 v=0
368109 On ch=3 n=9 v=100
368224 Off ch=3 n=9 v=0
368320 On ch=3 n=24 v=100
368438 Off ch=3 n=24 v=0
368825 On ch=3 n=8 v=100
369099 On ch=3 n=20 v=100
369215 Off ch=3 n=8 v=0
369239 Off ch=3 n=20 v=0
369524 On ch=3 n=5 v=100
369747 On ch=3 n=12 v=100
369779 Off ch=3 n=5 v=0
369789 On ch=3 n=5 v=100
370107 Off ch=3 n=12 v=0
370107 Off ch=3 n=5 v=0
370116 On ch=3 n=2 v=100
370162 Off ch=3 n=2 v=0
372772 On ch=3 n=8 v=100
372836 On ch=3 n=5 v=100
372842 Off ch=3 n=8 v=0
373451 Off ch=3 n=5 v=0
373452 On ch=3 n=12 v=100
373808 On ch=3 n=33 v=100
373822 On ch=3 n=16 v=100
373915 Off ch=3 n=12 v=0
373917 On ch=3 n=2 v=100
373935 Off ch=3 n=33 v=0
373939 Off ch=3 n=16 v=0
374075 On ch=3 n=42 v=100
374140 Off ch=3 n=2 v=0
374143 On ch=3 n=6 v=100
374257 Off ch=3 n=42 v=0
374296 On ch=3 n=6 v=100
374296 Off ch=3 n=6 v=0
375614 On ch=3 n=8 v=100
375620 Off ch=3 n=6 v=0
378034 On ch=3 n=18 v=100
378055 On ch=3 n=12 v=100
378058 Off ch=3 n=8 v=0
378107 Off ch=3 n=18 v=0
378107 Off ch=3 n=12 v=0
378151 On ch=3 n=18 v=100
378151 On ch=3 n=12 v=100
378267 Off ch=3 n=18 v=0
378296 On ch=3 n=34 v=100
378525 Off ch=3 n=12 v=0
378769 On ch=3 n=16 v=100
378769 On ch=3 n=22 v=100
379086 Off ch=3 n=34 v=0
379167 Off ch=3 n=16 v=0
379227 Off ch=3 n=22 v=0
380400 On ch=3 n=4 v=100
382536 On ch=3 n=1 v=100
382540 Off ch=3 n=4 v=0
383235 On ch=3 n=19 v=100
383283 Off ch=3 n=1 v=0
383298 On ch=3 n=2 v=100
383425 Off ch=3 n=19 v=0
384068 Off ch=3 n=2 v=0
384070 On ch=3 n=3 v=100
385146 Off ch=3 n=3 v=0
385624 On ch=3 n=9 v=100
386089 Off ch=3 n=9 v=0
387328 On ch=3 n=18 v=100
387365 On ch=3 n=4 v=100
387650 Off ch=3 n=18 v=0
387654 Off ch=3 n=4 v=0
387793 On ch=3 n=22 v=100
387793 On ch=3 n=8 v=100
388027 On ch=3 n=5 v=100
388027 Off ch=3 n=8 v=0
388076 Off ch=3 n=22 v=0
388116 Off ch=3 n=5 v=0
388151 On ch=3 n=5 v=100
389768 Off ch=3 n=5 v=0
389794 On ch=3 n=3 v=100
390663 Off ch=3 n=3 v=0
391953 On ch=3 n=3 v=100
392184 On ch=3 n=22 v=100
392184 Off ch=3 n=3 v=0
392265 Off ch=3 n=22 v=0
392958 On ch=3 n=49 v=100
393045 Off ch=3 n=49 v=0
393900 On ch=3 n=50 v=100
394168 On ch=3 n=42 v=100
394439 Off ch=3 n=50 v=0
394450 Off ch=3 n=42 v=0
394708 On ch=3 n=3 v=100
394861 On ch=3 n=1 v=100
394861 Off ch=3 n=3 v=0
397000 On ch=3 n=5 v=100
397004 Off ch=3 n=1 v=0
397288 Off ch=3 n=5 v=0
397800 On ch=3 n=17 v=100
397900 On ch=3 n=23 v=100
397903 Off ch=3 n=17 v=0
398120 Off ch=3 n=23 v=0
398161 On ch=3 n=23 v=100
398464 Off ch=3 n=23 v=0
398573 On ch=3 n=9 v=100
399484 On ch=3 n=6 v=100
399485 Off ch=3 n=9 v=0
400973 Off ch=3 n=6 v=0
400982 On ch=3 n=11 v=100
401177 Off ch=3 n=11 v=0
401179 On ch=3 n=8 v=100
401535 On ch=3 n=6 v=100
401536 Off ch=3 n=8 v=0
402717 Off ch=3 n=6 v=0
404529 On ch=3 n=2 v=100
404651 On ch=3 n=29 v=100
404716 Off ch=3 n=2 v=0
405286 Off ch=3 n=29 v=0
405320 On ch=3 n=5 v=100
405355 Off ch=3 n=5 v=0
435770 On ch=3 n=8 v=100
436010 On ch=3 n=19 v=100
436016 Off ch=3 n=8 v=0
436542 Off ch=3 n=19 v=0
436577 On ch=3 n=4 v=100
437052 On ch=3 n=6 v=100
437055 Off ch=3 n=4 v=0
437442 On ch=3 n=38 v=100
437498 On ch=3 n=11 v=100
437501 Off ch=3 n=6 v=0
437509 Off ch=3 n=38 v=0
438599 Off ch=3 n=11 v=0
438945 On ch=3 n=8 v=100
439021 Off ch=3 n=8 v=0
439023 On ch=3 n=7 v=100
440249 Off ch=3 n=7 v=0
445086 On ch=3 n=2 v=100
445805 On ch=3 n=20 v=100
445814 On ch=3 n=22 v=100
445821 On ch=3 n=10 v=100
445838 Off ch=3 n=2 v=0
446159 On ch=3 n=5 v=100
446167 Off ch=3 n=10 v=0
446253 Off ch=3 n=20 v=0
446329 Off ch=3 n=22 v=0
446854 Off ch=3 n=5 v=0
446906 On ch=3 n=5 v=100
447054 On ch=3 n=22 v=100
447078 Off ch=3 n=5 v=0
447107 On ch=3 n=22 v=100
447137 On ch=3 n=33 v=100
447137 On ch=3 n=33 v=100
447164 On ch=3 n=16 v=100
447195 On ch=3 n=23 v=100
447204 On ch=3 n=15 v=100
447473 Off ch=3 n=22 v=0
447514 Off ch=3 n=16 v=0
447516 Off ch=3 n=22 v=0
447584 Off ch=3 n=33 v=0
447584 Off ch=3 n=33 v=0
447595 Off ch=3 n=15 v=0
447646 Off ch=3 n=23 v=0
449431 On ch=3 n=22 v=100
449508 On ch=3 n=56 v=100
449538 Off ch=3 n=22 v=0
449548 On ch=3 n=28 v=100
449548 On ch=3 n=28 v=100
449575 On ch=3 n=33 v=100
449575 On ch=3 n=33 v=100
449580 On ch=3 n=26 v=100
449719 Off ch=3 n=56 v=0
449876 Off ch=3 n=26 v=0
449879 Off ch=3 n=28 v=0
449879 Off ch=3 n=28 v=0
449952 Off ch=3 n=33 v=0
449952 Off ch=3 n=33 v=0
450129 On ch=3 n=10 v=100
450434 On ch=3 n=18 v=100
450448 Off ch=3 n=10 v=0
450537 On ch=3 n=6 v=100
450540 Off ch=3 n=18 v=0
450932 Off ch=3 n=6 v=0
450965 On ch=3 n=39 v=100
451159 On ch=3 n=3 v=100
451218 Off ch=3 n=39 v=0
452894 Off ch=3 n=3 v=0
452955 On ch=3 n=3 v=100
453473 Off ch=3 n=3 v=0
454711 On ch=3 n=25 v=100
454837 Off ch=3 n=25 v=0
455880 On ch=3 n=28 v=100
456013 Off ch=3 n=28 v=0
456029 On ch=3 n=22 v=100
456031 On ch=3 n=14 v=100
456170 Off ch=3 n=14 v=0
456185 Off ch=3 n=22 v=0
456233 On ch=3 n=17 v=100
456501 Off ch=3 n=17 v=0
457337 On ch=3 n=36 v=100
457413 On ch=3 n=26 v=100
457631 Off ch=3 n=36 v=0
457635 Off ch=3 n=26 v=0
457833 On ch=3 n=6 v=100
458203 On ch=3 n=22 v=100
458221 Off ch=3 n=6 v=0
458237 On ch=3 n=17 v=100
458265 On ch=3 n=34 v=100
458346 Off ch=3 n=17 v=0
458347 Off ch=3 n=22 v=0
458397 On ch=3 n=16 v=100
458518 Off ch=3 n=34 v=0
458521 Off ch=3 n=16 v=0
459199 On ch=3 n=22 v=100
459272 Off ch=3 n=22 v=0
460432 On ch=3 n=35 v=100
460450 On ch=3 n=36 v=100
460590 Off ch=3 n=35 v=0
460628 On ch=3 n=23 v=100
460756 Off ch=3 n=36 v=0
460960 On ch=3 n=16 v=100
461022 Off ch=3 n=23 v=0
461031 On ch=3 n=21 v=100
461404 Off ch=3 n=16 v=0
461699 Off ch=3 n=21 v=0
462153 On ch=3 n=30 v=100
462328 Off ch=3 n=30 v=0
462921 On ch=3 n=20 v=100
463015 Off ch=3 n=20 v=0
468809 On ch=3 n=16 v=100
468862 Off ch=3 n=16 v=0
471411 On ch=3 n=2 v=100
472271 Off ch=3 n=2 v=0
472272 On ch=3 n=5 v=100
473932 On ch=3 n=3 v=100
473933 Off ch=3 n=5 v=0
474173 On ch=3 n=4 v=100
474178 Off ch=3 n=3 v=0
474676 On ch=3 n=5 v=100
474678 Off ch=3 n=4 v=0
475596 Off ch=3 n=5 v=0
476125 On ch=3 n=24 v=100
476150 On ch=3 n=6 v=100
476218 Off ch=3 n=24 v=0
476256 Off ch=3 n=6 v=0
476258 On ch=3 n=6 v=100
476713 Off ch=3 n=6 v=0
476714 On ch=3 n=10 v=100
476892 On ch=3 n=2 v=100
476896 Off ch=3 n=10 v=0
477028 On ch=3 n=17 v=100
477034 Off ch=3 n=2 v=0
477091 On ch=3 n=2 v=100
477104 Off ch=3 n=17 v=0
477204 Off ch=3 n=2 v=0
477223 On ch=3 n=55 v=100
477477 On ch=3 n=40 v=100
477539 Off ch=3 n=55 v=0
477792 Off ch=3 n=40 v=0
478287 On ch=3 n=25 v=100
478426 Off ch=3 n=25 v=0
478940 On ch=3 n=15 v=100
479313 Off ch=3 n=15 v=0
479649 On ch=3 n=14 v=100
480666 Off ch=3 n=14 v=0
480689 On ch=3 n=10 v=100
480857 On ch=3 n=35 v=100
480946 Off ch=3 n=10 v=0
481252 On ch=3 n=16 v=100
481367 On ch=3 n=14 v=100
481694 Off ch=3 n=14 v=0
481697 Off ch=3 n=35 v=0
481700 On ch=3 n=6 v=100
481715 Off ch=3 n=16 v=0
482636 On ch=3 n=6 v=100
482650 Off ch=3 n=6 v=0
484810 Off ch=3 n=6 v=0
490180 On ch=3 n=5 v=100
490909 Off ch=3 n=5 v=0
491417 On ch=3 n=27 v=100
491488 Off ch=3 n=27 v=0
491604 On ch=3 n=62 v=100
491617 Off ch=3 n=62 v=0
491692 On ch=3 n=44 v=100
491692 On ch=3 n=62 v=100
491760 Off ch=3 n=44 v=0
491798 Off ch=3 n=62 v=0
493281 On ch=3 n=60 v=100
493439 Off ch=3 n=60 v=0
499748 On ch=3 n=35 v=100
499808 On ch=3 n=17 v=100
499828 On ch=3 n=7 v=100
499837 Off ch=3 n=35 v=0
499838 Off ch=3 n=17 v=0
500683 Off ch=3 n=7 v=0
503276 On ch=3 n=5 v=100
503567 Off ch=3 n=5 v=0
506341 On ch=3 n=4 v=100
506358 On ch=3 n=51 v=100
506517 On ch=3 n=6 v=100
506645 Off ch=3 n=4 v=0
507085 Off ch=3 n=51 v=0
507417 Off ch=3 n=6 v=0
508607 On ch=3 n=8 v=100
509198 On ch=3 n=16 v=100
509221 Off ch=3 n=8 v=0
509330 Off ch=3 n=16 v=0
509347 On ch=3 n=6 v=100
510257 Off ch=3 n=6 v=0
510583 On ch=3 n=1 v=100
511509 Off ch=3 n=1 v=0
511558 On ch=3 n=1 v=100
512183 Off ch=3 n=1 v=0
514787 On ch=3 n=37 v=100
514789 On ch=3 n=32 v=100
515053 Off ch=3 n=32 v=0
515172 Off ch=3 n=37 v=0
516014 On ch=3 n=28 v=100
516048 On ch=3 n=41 v=100
516366 Off ch=3 n=28 v=0
516523 On ch=3 n=32 v=100
516645 Off ch=3 n=41 v=0
516665 Off ch=3 n=32 v=0
520974 On ch=3 n=25 v=100
520979 On ch=3 n=37 v=100
521058 On ch=3 n=24 v=100
521263 Off ch=3 n=25 v=0
521362 Off ch=3 n=37 v=0
521362 Off ch=3 n=24 v=0
522350 On ch=3 n=3 v=100
523483 Off ch=3 n=3 v=0
523500 On ch=3 n=48 v=100
523611 Off ch=3 n=48 v=0
524315 On ch=3 n=26 v=100
524424 Off ch=3 n=26 v=0
524492 On ch=3 n=44 v=100
524562 Off ch=3 n=44 v=0
527662 On ch=3 n=5 v=100
527866 Off ch=3 n=5 v=0
527909 On ch=3 n=8 v=100
529418 Off ch=3 n=8 v=0
530185 On ch=3 n=15 v=100
530191 On ch=3 n=5 v=100
530228 Off ch=3 n=15 v=0
531919 Off ch=3 n=5 v=0
533124 On ch=3 n=26 v=100
533272 Off ch=3 n=26 v=0
535474 On ch=3 n=24 v=100
535475 On ch=3 n=29 v=100
535553 Off ch=3 n=24 v=0
535567 Off ch=3 n=29 v=0
535592 On ch=3 n=21 v=100
535751 Off ch=3 n=21 v=0
538944 On ch=3 n=21 v=100
539041 Off ch=3 n=21 v=0
540232 On ch=3 n=8 v=100
540290 Off ch=3 n=8 v=0
542784 On ch=3 n=19 v=100
542883 Off ch=3 n=19 v=0
543100 On ch=3 n=22 v=100
543774 Off ch=3 n=22 v=0
544022 On ch=3 n=23 v=100
544109 Off ch=3 n=23 v=0
544740 On ch=3 n=11 v=100
545712 Off ch=3 n=11 v=0
545717 On ch=3 n=9 v=100
546579 Off ch=3 n=9 v=0
546591 On ch=3 n=28 v=100
546603 On ch=3 n=12 v=100
546751 Off ch=3 n=28 v=0
546751 Off ch=3 n=12 v=0
546879 On ch=3 n=28 v=100
546894 On ch=3 n=23 v=100
546996 On ch=3 n=26 v=100
546997 On ch=3 n=16 v=100
547020 Off ch=3 n=28 v=0
547356 Off ch=3 n=23 v=0
547359 Off ch=3 n=16 v=0
547469 Off ch=3 n=26 v=0
547647 On ch=3 n=5 v=100
549284 Off ch=3 n=5 v=0
550362 On ch=3 n=15 v=100
550429 Off ch=3 n=15 v=0
550481 On ch=3 n=39 v=100
550548 Off ch=3 n=39 v=0
551473 On ch=3 n=18 v=100
551585 On ch=3 n=14 v=100
551949 Off ch=3 n=18 v=0
552094 Off ch=3 n=14 v=0
553185 On ch=3 n=35 v=100
553224 On ch=3 n=18 v=100
553260 Off ch=3 n=18 v=0
553262 Off ch=3 n=35 v=0
553569 On ch=3 n=4 v=100
555219 Off ch=3 n=4 v=0
555286 On ch=3 n=16 v=100
555300 On ch=3 n=21 v=100
555362 Off ch=3 n=16 v=0
555362 Off ch=3 n=21 v=0
555364 On ch=3 n=19 v=100
555629 Off ch=3 n=19 v=0
555630 On ch=3 n=27 v=100
555630 On ch=3 n=35 v=100
555828 Off ch=3 n=27 v=0
555867 Off ch=3 n=35 v=0
557040 On ch=3 n=6 v=100
559392 Off ch=3 n=6 v=0
559395 On ch=3 n=3 v=100
559740 On ch=3 n=38 v=100
559762 Off ch=3 n=3 v=0
560070 Off ch=3 n=38 v=0
560384 On ch=3 n=19 v=100
560534 Off ch=3 n=19 v=0
560817 On ch=3 n=34 v=100
560826 Off ch=3 n=34 v=0
560931 On ch=3 n=34 v=100
561486 Off ch=3 n=34 v=0
561896 On ch=3 n=25 v=100
562158 Off ch=3 n=25 v=0
562253 On ch=3 n=21 v=100
562784 On ch=3 n=5 v=100
562795 Off ch=3 n=21 v=0
563705 Off ch=3 n=5 v=0
568219 On ch=3 n=5 v=100
568761 Off ch=3 n=5 v=0
569312 On ch=3 n=1 v=100
570306 On ch=3 n=1 v=100
570308 Off ch=3 n=1 v=0
570600 Off ch=3 n=1 v=0
583393 On ch=3 n=46 v=100
583394 On ch=3 n=36 v=100
583501 Off ch=3 n=36 v=0
583644 Off ch=3 n=46 v=0
584381 On ch=3 n=34 v=100
584420 On ch=3 n=48 v=100
584421 On ch=3 n=38 v=100
584430 Off ch=3 n=34 v=0
584547 Off ch=3 n=38 v=0
584681 Off ch=3 n=48 v=0
585449 On ch=3 n=38 v=100
585450 On ch=3 n=49 v=100
585557 Off ch=3 n=38 v=0
585706 Off ch=3 n=49 v=0
586476 On ch=3 n=38 v=100
586477 On ch=3 n=49 v=100
586584 Off ch=3 n=38 v=0
586733 Off ch=3 n=49 v=0
587180 On ch=3 n=34 v=100
587219 On ch=3 n=48 v=100
587220 On ch=3 n=37 v=100
587229 Off ch=3 n=34 v=0
587328 Off ch=3 n=37 v=0
587473 Off ch=3 n=48 v=0
587922 On ch=3 n=34 v=100
587961 On ch=3 n=48 v=100
587962 On ch=3 n=37 v=100
587971 Off ch=3 n=34 v=0
588070 Off ch=3 n=37 v=0
588215 Off ch=3 n=48 v=0
588949 On ch=3 n=34 v=100
588988 On ch=3 n=48 v=100
588989 On ch=3 n=38 v=100
588998 Off ch=3 n=34 v=0
589115 Off ch=3 n=38 v=0
589249 Off ch=3 n=48 v=0
590018 On ch=3 n=47 v=100
590019 On ch=3 n=37 v=100
590127 Off ch=3 n=37 v=0
590271 Off ch=3 n=47 v=0
591044 On ch=3 n=38 v=100
591152 Off ch=3 n=38 v=0
591748 On ch=3 n=34 v=100
591788 On ch=3 n=39 v=100
591797 Off ch=3 n=34 v=0
591914 Off ch=3 n=39 v=0
592493 On ch=3 n=34 v=100
592533 On ch=3 n=37 v=100
592542 Off ch=3 n=34 v=0
592641 Off ch=3 n=37 v=0
593558 On ch=3 n=38 v=100
593666 Off ch=3 n=38 v=0
594262 On ch=3 n=34 v=100
594302 On ch=3 n=40 v=100
594311 Off ch=3 n=34 v=0
594442 Off ch=3 n=40 v=0
595340 On ch=3 n=39 v=100
595451 Off ch=3 n=39 v=0
596332 On ch=3 n=34 v=100
596372 On ch=3 n=38 v=100
596381 Off ch=3 n=34 v=0
596498 Off ch=3 n=38 v=0
597077 On ch=3 n=34 v=100
597117 On ch=3 n=38 v=100
597126 Off ch=3 n=34 v=0
597243 Off ch=3 n=38 v=0
597822 On ch=3 n=34 v=100
597862 On ch=3 n=37 v=100
597871 Off ch=3 n=34 v=0
597970 Off ch=3 n=37 v=0
598884 On ch=3 n=39 v=100
598995 Off ch=3 n=39 v=0
599590 On ch=3 n=36 v=100
599631 On ch=3 n=37 v=100
599640 Off ch=3 n=36 v=0
599739 Off ch=3 n=37 v=0
600618 On ch=3 n=34 v=100
600657 On ch=3 n=42 v=100
600658 On ch=3 n=37 v=100
600667 Off ch=3 n=34 v=0
600784 Off ch=3 n=37 v=0
600915 Off ch=3 n=42 v=0
601648 On ch=3 n=34 v=100
601687 On ch=3 n=42 v=100
601688 On ch=3 n=38 v=100
601697 Off ch=3 n=34 v=0
601814 Off ch=3 n=38 v=0
601945 Off ch=3 n=42 v=0
602716 On ch=3 n=40 v=100
602717 On ch=3 n=38 v=100
602825 Off ch=3 n=38 v=0
602827 On ch=3 n=3 v=100
602870 Off ch=3 n=40 v=0
604035 Off ch=3 n=3 v=0
604203 On ch=3 n=35 v=100
604272 On ch=3 n=36 v=100
604273 On ch=3 n=25 v=100
604361 Off ch=3 n=25 v=0
604377 Off ch=3 n=35 v=0
604415 Off ch=3 n=36 v=0
605629 On ch=3 n=25 v=100
605752 Off ch=3 n=25 v=0
605803 On ch=3 n=14 v=100
605899 On ch=3 n=15 v=100
605910 Off ch=3 n=14 v=0
606218 Off ch=3 n=15 v=0
606253 On ch=3 n=15 v=100
606394 Off ch=3 n=15 v=0
606405 On ch=3 n=11 v=100
607050 Off ch=3 n=11 v=0
607614 On ch=3 n=7 v=100
608701 On ch=3 n=23 v=100
608768 On ch=3 n=36 v=100
608769 On ch=3 n=26 v=100
608780 Off ch=3 n=7 v=0
609109 Off ch=3 n=23 v=0
609113 Off ch=3 n=26 v=0
609252 Off ch=3 n=36 v=0
612374 On ch=3 n=20 v=100
612418 Off ch=3 n=20 v=0
612419 On ch=3 n=7 v=100
612562 On ch=3 n=20 v=100
612608 On ch=3 n=9 v=100
612612 Off ch=3 n=7 v=0
612894 Off ch=3 n=20 v=0
612917 Off ch=3 n=9 v=0
613224 On ch=3 n=5 v=100
613233 On ch=3 n=32 v=100
613331 Off ch=3 n=5 v=0
613342 On ch=3 n=8 v=100
613353 On ch=3 n=41 v=100
613454 Off ch=3 n=8 v=0
613455 On ch=3 n=13 v=100
613455 Off ch=3 n=32 v=0
613637 Off ch=3 n=41 v=0
614069 On ch=3 n=7 v=100
614081 Off ch=3 n=13 v=0
615349 On ch=3 n=6 v=100
615352 On ch=3 n=28 v=100
615354 Off ch=3 n=7 v=0
615518 Off ch=3 n=6 v=0
615620 Off ch=3 n=28 v=0
615904 On ch=3 n=8 v=100
615970 On ch=3 n=22 v=100
615987 Off ch=3 n=8 v=0
615989 On ch=3 n=8 v=100
616134 Off ch=3 n=22 v=0
616640 Off ch=3 n=8 v=0
616700 On ch=3 n=18 v=100
616784 Off ch=3 n=18 v=0
616927 On ch=3 n=22 v=100
617016 On ch=3 n=17 v=100
617025 Off ch=3 n=22 v=0
617184 On ch=3 n=21 v=100
617255 Off ch=3 n=17 v=0
617279 Off ch=3 n=21 v=0
617629 On ch=3 n=4 v=100
617991 Off ch=3 n=4 v=0
618030 On ch=3 n=3 v=100
618360 On ch=3 n=9 v=100
618365 Off ch=3 n=3 v=0
618534 Off ch=3 n=9 v=0
620222 On ch=3 n=25 v=100
620222 On ch=3 n=25 v=100
620252 On ch=3 n=6 v=100
620571 Off ch=3 n=6 v=0
620632 Off ch=3 n=25 v=0
620632 Off ch=3 n=25 v=0
621602 On ch=3 n=30 v=100
621624 Off ch=3 n=30 v=0
621676 On ch=3 n=30 v=100
621696 On ch=3 n=12 v=100
621721 Off ch=3 n=30 v=0
621809 Off ch=3 n=12 v=0
621974 On ch=3 n=2 v=100
623803 Off ch=3 n=2 v=0
626549 On ch=3 n=28 v=100
626733 Off ch=3 n=28 v=0
633352 On ch=3 n=14 v=100
634316 On ch=3 n=34 v=100
634375 Off ch=3 n=14 v=0
634387 Off ch=3 n=34 v=0
634669 On ch=3 n=13 v=100
634669 On ch=3 n=32 v=100
634970 Off ch=3 n=13 v=0
635009 Off ch=3 n=32 v=0
636808 On ch=3 n=24 v=100
637078 Off ch=3 n=24 v=0
637090 On ch=3 n=10 v=100
637660 Off ch=3 n=10 v=0
639665 On ch=3 n=22 v=100
639869 Off ch=3 n=22 v=0
640570 On ch=3 n=14 v=100
640705 On ch=3 n=50 v=100
640757 On ch=3 n=55 v=100
640782 On ch=3 n=28 v=100
640783 Off ch=3 n=14 v=0
640787 On ch=3 n=20 v=100
640978 Off ch=3 n=20 v=0
640979 Off ch=3 n=50 v=0
640980 Off ch=3 n=55 v=0
641002 Off ch=3 n=28 v=0
641145 On ch=3 n=5 v=100
644006 Off ch=3 n=5 v=0
651522 On ch=3 n=22 v=100
651691 Off ch=3 n=22 v=0
652631 On ch=3 n=5 v=100
652926 Off ch=3 n=5 v=0
654925 On ch=3 n=23 v=100
654951 On ch=3 n=13 v=100
654976 On ch=3 n=8 v=100
655133 Off ch=3 n=8 v=0
655138 Off ch=3 n=23 v=0
655139 Off ch=3 n=13 v=0
656128 On ch=3 n=6 v=100
656360 Off ch=3 n=6 v=0
656441 On ch=3 n=46 v=100
656487 On ch=3 n=24 v=100
656487 On ch=3 n=24 v=100
656507 On ch=3 n=37 v=100
656507 On ch=3 n=37 v=100
656510 On ch=3 n=15 v=100
656544 Off ch=3 n=46 v=0
656752 Off ch=3 n=15 v=0
656766 Off ch=3 n=24 v=0
656766 Off ch=3 n=24 v=0
656792 Off ch=3 n=37 v=0
656792 Off ch=3 n=37 v=0
656883 On ch=3 n=37 v=100
656904 Off ch=3 n=37 v=0
657354 On ch=3 n=36 v=100
658059 On ch=3 n=28 v=100
658122 Off ch=3 n=36 v=0
658163 On ch=3 n=40 v=100
658165 On ch=3 n=11 v=100
658264 Off ch=3 n=28 v=0
658289 Off ch=3 n=11 v=0
658306 Off ch=3 n=40 v=0
659698 On ch=3 n=10 v=100
659978 Off ch=3 n=10 v=0
661054 On ch=3 n=25 v=100
661075 On ch=3 n=21 v=100
661194 Off ch=3 n=25 v=0
661199 Off ch=3 n=21 v=0
661323 On ch=3 n=5 v=100
661840 On ch=3 n=33 v=100
661847 Off ch=3 n=5 v=0
661857 On ch=3 n=5 v=100
661973 Off ch=3 n=33 v=0
661977 On ch=3 n=12 v=100
662007 Off ch=3 n=5 v=0
662038 Off ch=3 n=12 v=0
663026 On ch=3 n=22 v=100
663191 Off ch=3 n=22 v=0
663200 On ch=3 n=25 v=100
663369 Off ch=3 n=25 v=0
663452 On ch=3 n=45 v=100
663680 Off ch=3 n=45 v=0
663785 On ch=3 n=20 v=100
663867 Off ch=3 n=20 v=0
663994 On ch=3 n=26 v=100
664047 Off ch=3 n=26 v=0
664066 On ch=3 n=28 v=100
664190 On ch=3 n=30 v=100
664199 Off ch=3 n=28 v=0
664350 On ch=3 n=31 v=100
664379 Off ch=3 n=30 v=0
664384 On ch=3 n=24 v=100
664495 Off ch=3 n=31 v=0
664497 Off ch=3 n=24 v=0
666752 On ch=3 n=6 v=100
667114 Off ch=3 n=6 v=0
667147 On ch=3 n=8 v=100
667356 Off ch=3 n=8 v=0
667530 On ch=3 n=20 v=100
667620 Off ch=3 n=20 v=0
668324 On ch=3 n=40 v=100
668410 Off ch=3 n=40 v=0
669257 On ch=3 n=35 v=100
669257 On ch=3 n=25 v=100
669356 On ch=3 n=26 v=100
669560 Off ch=3 n=25 v=0
669682 Off ch=3 n=35 v=0
669684 Off ch=3 n=26 v=0
669739 On ch=3 n=37 v=100
669754 Off ch=3 n=37 v=0
669820 On ch=3 n=37 v=100
669884 On ch=3 n=31 v=100
670065 Off ch=3 n=37 v=0
670065 Off ch=3 n=31 v=0
670106 On ch=3 n=31 v=100
670106 On ch=3 n=37 v=100
670144 On ch=3 n=41 v=100
670274 Off ch=3 n=31 v=0
670323 Off ch=3 n=37 v=0
670449 Off ch=3 n=41 v=0
670483 On ch=3 n=41 v=100
670531 Off ch=3 n=41 v=0
670577 On ch=3 n=41 v=100
670666 Off ch=3 n=41 v=0
670696 On ch=3 n=41 v=100
670773 Off ch=3 n=41 v=0
671220 On ch=3 n=29 v=100
671506 Off ch=3 n=29 v=0
671854 On ch=3 n=53 v=100
672602 Off ch=3 n=53 v=0
673018 On ch=3 n=19 v=100
673128 On ch=3 n=34 v=100
673131 Off ch=3 n=19 v=0
673192 Off ch=3 n=34 v=0
673384 On ch=3 n=5 v=100
673440 On ch=3 n=13 v=100
673488 Off ch=3 n=5 v=0
674289 On ch=3 n=14 v=100
674377 Off ch=3 n=13 v=0
674408 Off ch=3 n=14 v=0
674410 On ch=3 n=11 v=100
674446 Off ch=3 n=11 v=0
674490 On ch=3 n=30 v=100
674611 On ch=3 n=34 v=100
674681 On ch=3 n=20 v=100
674682 Off ch=3 n=30 v=0
674694 Off ch=3 n=34 v=0
674984 Off ch=3 n=20 v=0
674986 On ch=3 n=10 v=100
675256 Off ch=3 n=10 v=0
675273 On ch=3 n=6 v=100
675275 On ch=3 n=12 v=100
675305 Off ch=3 n=6 v=0
675308 On ch=3 n=20 v=100
675309 Off ch=3 n=12 v=0
675518 Off ch=3 n=20 v=0
675800 On ch=3 n=30 v=100
675852 Off ch=3 n=30 v=0
675860 On ch=3 n=16 v=100
675908 Off ch=3 n=16 v=0
676413 On ch=3 n=4 v=100
676547 Off ch=3 n=4 v=0
676567 On ch=3 n=15 v=100
676662 On ch=3 n=13 v=100
676667 Off ch=3 n=15 v=0
676944 On ch=3 n=15 v=100
677005 Off ch=3 n=13 v=0
677262 On ch=3 n=9 v=100
677270 Off ch=3 n=15 v=0
677574 On ch=3 n=27 v=100
677594 Off ch=3 n=9 v=0
677647 Off ch=3 n=27 v=0
677933 On ch=3 n=4 v=100
678100 On ch=3 n=37 v=100
678184 On ch=3 n=7 v=100
678186 Off ch=3 n=4 v=0
678680 Off ch=3 n=37 v=0
678680 Off ch=3 n=7 v=0
678911 On ch=3 n=24 v=100
678973 Off ch=3 n=24 v=0
678976 On ch=3 n=9 v=100
679098 On ch=3 n=5 v=100
679103 Off ch=3 n=9 v=0
681788 On ch=3 n=62 v=100
681923 Off ch=3 n=5 v=0
682010 Off ch=3 n=62 v=0
682060 On ch=3 n=62 v=100
682109 Off ch=3 n=62 v=0
682149 On ch=3 n=62 v=100
682449 Off ch=3 n=62 v=0
683068 On ch=3 n=3 v=100
685487 On ch=3 n=4 v=100
685487 Off ch=3 n=3 v=0
685711 Off ch=3 n=4 v=0
685714 On ch=3 n=19 v=100
685714 On ch=3 n=25 v=100
685869 Off ch=3 n=19 v=0
685916 Off ch=3 n=25 v=0
685924 On ch=3 n=8 v=100
685972 Off ch=3 n=8 v=0
686012 On ch=3 n=3 v=100
686410 Off ch=3 n=3 v=0
686446 On ch=3 n=3 v=100
687062 On ch=3 n=18 v=100
687063 Off ch=3 n=3 v=0
687619 Off ch=3 n=18 v=0
687621 On ch=3 n=13 v=100
688047 Off ch=3 n=13 v=0
688974 On ch=3 n=17 v=100
689046 Off ch=3 n=17 v=0
690338 On ch=3 n=26 v=100
690432 On ch=3 n=26 v=100
690458 On ch=3 n=44 v=100
690459 On ch=3 n=19 v=100
690561 Off ch=3 n=19 v=0
690564 Off ch=3 n=26 v=0
690569 On ch=3 n=28 v=100
690598 Off ch=3 n=26 v=0
690622 Off ch=3 n=44 v=0
690688 Off ch=3 n=28 v=0
690840 On ch=3 n=16 v=100
690999 Off ch=3 n=16 v=0
691504 On ch=3 n=7 v=100
691585 On ch=3 n=15 v=100
691652 Off ch=3 n=7 v=0
691654 On ch=3 n=7 v=100
692034 Off ch=3 n=15 v=0
692748 Off ch=3 n=7 v=0
698031 On ch=3 n=11 v=100
698077 Off ch=3 n=11 v=0
698654 On ch=3 n=11 v=100
698695 On ch=3 n=14 v=100
698745 Off ch=3 n=11 v=0
698834 Off ch=3 n=14 v=0
700468 On ch=3 n=14 v=100
700723 Off ch=3 n=14 v=0
700764 On ch=3 n=65 v=100
700764 On ch=3 n=65 v=100
700993 On ch=3 n=7 v=100
701043 On ch=3 n=31 v=100
701088 Off ch=3 n=7 v=0
701185 On ch=3 n=3 v=100
701249 Off ch=3 n=65 v=0
701249 Off ch=3 n=65 v=0
701250 Off ch=3 n=31 v=0
701507 Off ch=3 n=3 v=0
701510 On ch=3 n=12 v=100
701510 On ch=3 n=27 v=100
701602 On ch=3 n=13 v=100
701609 Off ch=3 n=12 v=0
701738 Off ch=3 n=27 v=0
702225 Off ch=3 n=13 v=0
704116 On ch=3 n=12 v=100
704436 Off ch=3 n=12 v=0
704497 On ch=3 n=26 v=100
704537 Off ch=3 n=26 v=0
705240 On ch=3 n=22 v=100
705299 On ch=3 n=23 v=100
705310 On ch=3 n=12 v=100
705346 Off ch=3 n=22 v=0
705360 On ch=3 n=2 v=100
705360 Off ch=3 n=12 v=0
705362 Off ch=3 n=23 v=0
705751 On ch=3 n=4 v=100
705754 Off ch=3 n=2 v=0
705756 On ch=3 n=4 v=100
705943 Off ch=3 n=4 v=0
705956 On ch=3 n=20 v=100
705969 Off ch=3 n=4 v=0
706211 Off ch=3 n=20 v=0
707662 On ch=3 n=29 v=100
707673 On ch=3 n=28 v=100
707721 Off ch=3 n=29 v=0
707745 Off ch=3 n=28 v=0
707874 On ch=3 n=6 v=100
708197 Off ch=3 n=6 v=0
709240 On ch=3 n=14 v=100
709328 Off ch=3 n=14 v=0
709330 On ch=3 n=8 v=100
709787 On ch=3 n=6 v=100
709802 Off ch=3 n=8 v=0
710516 Off ch=3 n=6 v=0
710612 On ch=3 n=8 v=100
711412 Off ch=3 n=8 v=0
711544 On ch=3 n=8 v=100
711842 Off ch=3 n=8 v=0
713695 On ch=3 n=12 v=100
713758 On ch=3 n=25 v=100
713771 Off ch=3 n=12 v=0
713777 On ch=3 n=9 v=100
713919 Off ch=3 n=25 v=0
714317 On ch=3 n=53 v=100
714388 Off ch=3 n=9 v=0
714399 Off ch=3 n=53 v=0
714461 On ch=3 n=20 v=100
714528 Off ch=3 n=20 v=0
714671 On ch=3 n=20 v=100
714756 Off ch=3 n=20 v=0
714774 On ch=3 n=12 v=100
716112 Off ch=3 n=12 v=0
716537 On ch=3 n=22 v=100
716673 On ch=3 n=11 v=100
716706 Off ch=3 n=22 v=0
716972 Off ch=3 n=11 v=0
718778 On ch=3 n=3 v=100
719425 On ch=3 n=1 v=100
719425 Off ch=3 n=3 v=0
720079 On ch=3 n=1 v=100
720090 Off ch=3 n=1 v=0
720972 On ch=3 n=7 v=100
720972 Off ch=3 n=1 v=0
721286 Off ch=3 n=7 v=0
721612 On ch=3 n=6 v=100
724419 On ch=3 n=11 v=100
724428 Off ch=3 n=6 v=0
724607 Off ch=3 n=11 v=0
725518 On ch=3 n=17 v=100
725625 On ch=3 n=7 v=100
725641 Off ch=3 n=17 v=0
726618 Off ch=3 n=7 v=0
727725 On ch=3 n=15 v=100
727761 On ch=3 n=18 v=100
727767 Off ch=3 n=15 v=0
728015 Off ch=3 n=18 v=0
728016 On ch=3 n=8 v=100
728215 Off ch=3 n=8 v=0
728226 On ch=3 n=14 v=100
728304 Off ch=3 n=14 v=0
732326 On ch=3 n=64 v=100
732356 On ch=3 n=2 v=100
732538 Off ch=3 n=64 v=0
733590 Off ch=3 n=2 v=0
733885 On ch=3 n=32 v=100
733938 On ch=3 n=4 v=100
734077 Off ch=3 n=32 v=0
734385 Off ch=3 n=4 v=0
744777 On ch=3 n=6 v=100
745040 On ch=3 n=5 v=100
745047 On ch=3 n=42 v=100
745059 Off ch=3 n=6 v=0
745117 On ch=3 n=8 v=100
745119 Off ch=3 n=5 v=0
745208 Off ch=3 n=42 v=0
745991 Off ch=3 n=8 v=0
745993 On ch=3 n=8 v=100
746197 Off ch=3 n=8 v=0
746218 On ch=3 n=7 v=100
749628 Off ch=3 n=7 v=0
749629 On ch=3 n=8 v=100
750609 On ch=3 n=56 v=100
751866 On ch=3 n=4 v=100
751892 Off ch=3 n=8 v=0
752461 Off ch=3 n=56 v=0
753726 Off ch=3 n=4 v=0
755037 On ch=3 n=2 v=100
756121 On ch=3 n=6 v=100
756143 Off ch=3 n=2 v=0
756353 Off ch=3 n=6 v=0
758285 On ch=3 n=9 v=100
759927 Off ch=3 n=9 v=0
760407 On ch=3 n=2 v=100
761025 On ch=3 n=0 v=100
761025 Off ch=3 n=2 v=0
761723 Off ch=3 n=0 v=0
762031 On ch=3 n=1 v=100
762531 On ch=3 n=50 v=100
762597 Off ch=3 n=1 v=0
762652 On ch=3 n=2 v=100
762732 Off ch=3 n=50 v=0
765131 Off ch=3 n=2 v=0
765312 On ch=3 n=1 v=100
765770 Off ch=3 n=1 v=0
765871 On ch=3 n=1 v=100
766851 Off ch=3 n=1 v=0
766859 On ch=3 n=1 v=100
767433 Off ch=3 n=1 v=0
767837 On ch=3 n=1 v=100
768780 Off ch=3 n=1 v=0
770115 On ch=3 n=11 v=100
770462 Off ch=3 n=11 v=0
771298 On ch=3 n=10 v=100
771928 Off ch=3 n=10 v=0
772011 On ch=3 n=32 v=100
772087 Off ch=3 n=32 v=0
772225 On ch=3 n=13 v=100
772274 Off ch=3 n=13 v=0
772283 On ch=3 n=10 v=100
772745 On ch=3 n=5 v=100
772748 Off ch=3 n=10 v=0
774740 Off ch=3 n=5 v=0
774742 On ch=3 n=9 v=100
775502 Off ch=3 n=9 v=0
776773 On ch=3 n=9 v=100
776946 Off ch=3 n=9 v=0
776948 On ch=3 n=31 v=100
777028 Off ch=3 n=31 v=0
777078 On ch=3 n=36 v=100
777111 On ch=3 n=33 v=100
777213 On ch=3 n=24 v=100
777220 Off ch=3 n=36 v=0
777221 Off ch=3 n=33 v=0
777320 Off ch=3 n=24 v=0
777966 On ch=3 n=22 v=100
778036 On ch=3 n=18 v=100
778350 Off ch=3 n=22 v=0
778353 Off ch=3 n=18 v=0
778716 On ch=3 n=5 v=100
778925 Off ch=3 n=5 v=0
778928 On ch=3 n=1 v=100
779248 Off ch=3 n=1 v=0
779250 On ch=3 n=5 v=100
779617 Off ch=3 n=5 v=0
779745 On ch=3 n=52 v=100
780066 On ch=3 n=66 v=100
780875 Off ch=3 n=52 v=0
781453 Off ch=3 n=66 v=0
782470 On ch=3 n=28 v=100
782584 Off ch=3 n=28 v=0
782588 On ch=3 n=19 v=100
782771 Off ch=3 n=19 v=0
784132 On ch=3 n=15 v=100
784156 Off ch=3 n=15 v=0
784188 On ch=3 n=15 v=100
784389 Off ch=3 n=15 v=0
784758 On ch=3 n=52 v=100
784816 On ch=3 n=32 v=100
784928 On ch=3 n=30 v=100
784928 On ch=3 n=30 v=100
784945 Off ch=3 n=52 v=0
784946 Off ch=3 n=32 v=0
785029 On ch=3 n=19 v=100
785337 Off ch=3 n=19 v=0
785407 On ch=3 n=45 v=100
785407 On ch=3 n=45 v=100
785499 On ch=3 n=24 v=100
785509 On ch=3 n=22 v=100
785625 Off ch=3 n=30 v=0
785625 Off ch=3 n=30 v=0
785648 Off ch=3 n=22 v=0
785660 Off ch=3 n=24 v=0
785687 On ch=3 n=30 v=100
785687 On ch=3 n=27 v=100
785802 Off ch=3 n=27 v=0
785817 Off ch=3 n=45 v=0
785817 Off ch=3 n=45 v=0
785823 Off ch=3 n=30 v=0
786666 On ch=3 n=21 v=100
786775 Off ch=3 n=21 v=0
787033 On ch=3 n=32 v=100
787213 On ch=3 n=14 v=100
787439 Off ch=3 n=32 v=0
787592 Off ch=3 n=14 v=0
787593 On ch=3 n=8 v=100
787758 On ch=3 n=38 v=100
787875 Off ch=3 n=8 v=0
787913 Off ch=3 n=38 v=0
788003 On ch=3 n=5 v=100
788043 On ch=3 n=12 v=100
788043 Off ch=3 n=5 v=0
788266 On ch=3 n=31 v=100
788270 Off ch=3 n=12 v=0
788411 On ch=3 n=15 v=100
788518 Off ch=3 n=31 v=0
788713 Off ch=3 n=15 v=0
788762 On ch=3 n=12 v=100
789248 On ch=3 n=6 v=100
789269 Off ch=3 n=12 v=0
790233 Off ch=3 n=6 v=0
790234 On ch=3 n=5 v=100
790755 Off ch=3 n=5 v=0
790757 On ch=3 n=13 v=100
790938 Off ch=3 n=13 v=0
790957 On ch=3 n=16 v=100
791062 Off ch=3 n=16 v=0
791063 On ch=3 n=31 v=100
791194 Off ch=3 n=31 v=0
792474 On ch=3 n=29 v=100
792543 Off ch=3 n=29 v=0
793496 On ch=3 n=39 v=100
793577 On ch=3 n=42 v=100
793577 On ch=3 n=42 v=100
793591 On ch=3 n=23 v=100
793593 On ch=3 n=50 v=100
793593 On ch=3 n=50 v=100
793593 On ch=3 n=50 v=100
793695 On ch=3 n=23 v=100
793792 Off ch=3 n=39 v=0
793795 Off ch=3 n=23 v=0
793795 Off ch=3 n=23 v=0
793835 Off ch=3 n=42 v=0
793835 Off ch=3 n=42 v=0
793893 On ch=3 n=26 v=100
794035 Off ch=3 n=26 v=0
794141 Off ch=3 n=50 v=0
794141 Off ch=3 n=50 v=0
794141 Off ch=3 n=50 v=0
794182 On ch=3 n=17 v=100
794215 On ch=3 n=38 v=100
794216 On ch=3 n=13 v=100
794230 On ch=3 n=31 v=100
794319 Off ch=3 n=17 v=0
794320 Off ch=3 n=13 v=0
794400 Off ch=3 n=38 v=0
794451 Off ch=3 n=31 v=0
794542 On ch=3 n=7 v=100
794785 Off ch=3 n=7 v=0
794797 On ch=3 n=13 v=100
794904 On ch=3 n=14 v=100
794955 Off ch=3 n=13 v=0
794958 On ch=3 n=9 v=100
795229 Off ch=3 n=14 v=0
795312 On ch=3 n=32 v=100
795315 Off ch=3 n=9 v=0
795469 On ch=3 n=35 v=100
795548 On ch=3 n=21 v=100
795548 Off ch=3 n=32 v=0
795569 Off ch=3 n=35 v=0
795621 On ch=3 n=24 v=100
795640 Off ch=3 n=21 v=0
795726 Off ch=3 n=24 v=0
795866 On ch=3 n=18 v=100
796098 Off ch=3 n=18 v=0
796189 On ch=3 n=49 v=100
796343 Off ch=3 n=49 v=0
798728 On ch=3 n=21 v=100
798925 On ch=3 n=42 v=100
798941 Off ch=3 n=21 v=0
798960 On ch=3 n=41 v=100
799032 On ch=3 n=29 v=100
799039 On ch=3 n=36 v=100
799054 On ch=3 n=36 v=100
799054 On ch=3 n=36 v=100
799125 Off ch=3 n=29 v=0
799130 Off ch=3 n=42 v=0
799131 Off ch=3 n=41 v=0
799147 Off ch=3 n=36 v=0
799355 On ch=3 n=15 v=100
799395 On ch=3 n=28 v=100
799573 Off ch=3 n=15 v=0
799582 Off ch=3 n=36 v=0
799582 Off ch=3 n=36 v=0
799655 Off ch=3 n=28 v=0
800149 On ch=3 n=51 v=100
800270 On ch=3 n=36 v=100
800360 On ch=3 n=3 v=100
800360 Off ch=3 n=51 v=0
800369 Off ch=3 n=36 v=0
801172 Off ch=3 n=3 v=0
801433 On ch=3 n=2 v=100
803897 Off ch=3 n=2 v=0
805931 On ch=3 n=7 v=100
806727 Off ch=3 n=7 v=0
807240 On ch=3 n=40 v=100
807285 On ch=3 n=3 v=100
807389 Off ch=3 n=40 v=0
808018 On ch=3 n=27 v=100
808042 Off ch=3 n=3 v=0
808125 Off ch=3 n=27 v=0
809984 On ch=3 n=47 v=100
810169 Off ch=3 n=47 v=0
810504 On ch=3 n=4 v=100
811337 On ch=3 n=3 v=100
811361 Off ch=3 n=4 v=0
812716 Off ch=3 n=3 v=0
812720 On ch=3 n=3 v=100
813624 On ch=3 n=1 v=100
813624 Off ch=3 n=3 v=0
814424 Off ch=3 n=1 v=0
814428 On ch=3 n=6 v=100
816166 On ch=3 n=43 v=100
816241 On ch=3 n=2 v=100
816264 Off ch=3 n=6 v=0
816331 Off ch=3 n=43 v=0
818705 Off ch=3 n=2 v=0
819734 On ch=3 n=6 v=100
820063 On ch=3 n=3 v=100
820063 Off ch=3 n=6 v=0
821253 On ch=3 n=3 v=100
821258 Off ch=3 n=3 v=0
822350 Off ch=3 n=3 v=0
822538 On ch=3 n=20 v=100
822697 Off ch=3 n=20 v=0
825707 On ch=3 n=29 v=100
825891 Off ch=3 n=29 v=0
828149 On ch=3 n=12 v=100
828261 Off ch=3 n=12 v=0
828867 On ch=3 n=6 v=100
829186 Off ch=3 n=6 v=0
830918 On ch=3 n=11 v=100
831096 Off ch=3 n=11 v=0
831864 On ch=3 n=30 v=100
831925 On ch=3 n=18 v=100
832171 Off ch=3 n=30 v=0
832173 Off ch=3 n=18 v=0
832244 On ch=3 n=19 v=100
832304 Off ch=3 n=19 v=0
832323 On ch=3 n=26 v=100
832364 On ch=3 n=13 v=100
832426 Off ch=3 n=26 v=0
832924 On ch=3 n=22 v=100
832981 Off ch=3 n=13 v=0
833071 Off ch=3 n=22 v=0
833277 On ch=3 n=4 v=100
834828 Off ch=3 n=4 v=0
838834 On ch=3 n=60 v=100
838876 On ch=3 n=40 v=100
839000 Off ch=3 n=60 v=0
839004 On ch=3 n=26 v=100
839328 Off ch=3 n=26 v=0
839329 Off ch=3 n=40 v=0
841101 On ch=3 n=5 v=100
841982 Off ch=3 n=5 v=0
842057 On ch=3 n=5 v=100
842318 On ch=3 n=19 v=100
842825 Off ch=3 n=5 v=0
843457 Off ch=3 n=19 v=0
843511 On ch=3 n=13 v=100
843604 Off ch=3 n=13 v=0
843647 On ch=3 n=7 v=100
843709 On ch=3 n=42 v=100
843730 On ch=3 n=35 v=100
843796 On ch=3 n=23 v=100
843796 Off ch=3 n=7 v=0
843862 Off ch=3 n=35 v=0
843863 Off ch=3 n=42 v=0
843863 Off ch=3 n=23 v=0
843880 On ch=3 n=25 v=100
843925 Off ch=3 n=25 v=0
845852 On ch=3 n=8 v=100
846176 Off ch=3 n=8 v=0
846878 On ch=3 n=22 v=100
846981 On ch=3 n=19 v=100
846982 Off ch=3 n=22 v=0
847228 Off ch=3 n=19 v=0
847262 On ch=3 n=9 v=100
848004 Off ch=3 n=9 v=0
848012 On ch=3 n=11 v=100
848197 Off ch=3 n=11 v=0
848441 On ch=3 n=17 v=100
849345 Off ch=3 n=17 v=0
849348 On ch=3 n=13 v=100
849583 Off ch=3 n=13 v=0
849764 On ch=3 n=15 v=100
850007 Off ch=3 n=15 v=0
850307 On ch=3 n=5 v=100
851077 On ch=3 n=14 v=100
851102 Off ch=3 n=5 v=0
851491 Off ch=3 n=14 v=0
851691 On ch=3 n=12 v=100
852122 Off ch=3 n=12 v=0
852123 On ch=3 n=11 v=100
852241 Off ch=3 n=11 v=0
852432 On ch=3 n=8 v=100
852453 On ch=3 n=8 v=100
852512 Off ch=3 n=8 v=0
852536 Off ch=3 n=8 v=0
854091 On ch=3 n=24 v=100
854197 Off ch=3 n=24 v=0
854342 On ch=3 n=18 v=100
854372 On ch=3 n=12 v=100
854421 Off ch=3 n=18 v=0
854628 Off ch=3 n=12 v=0
855492 On ch=3 n=20 v=100
855536 Off ch=3 n=20 v=0
860195 On ch=3 n=87 v=100
860195 On ch=3 n=87 v=100
860316 On ch=3 n=22 v=100
860367 Off ch=3 n=22 v=0
860377 On ch=3 n=19 v=100
860459 Off ch=3 n=19 v=0
860658 Off ch=3 n=87 v=0
860658 Off ch=3 n=87 v=0
860911 On ch=3 n=7 v=100
860914 On ch=3 n=21 v=100
861193 Off ch=3 n=7 v=0
861251 Off ch=3 n=21 v=0
861845 On ch=3 n=21 v=100
861848 On ch=3 n=10 v=100
862218 Off ch=3 n=10 v=0
862365 Off ch=3 n=21 v=0
862475 On ch=3 n=18 v=100
862568 On ch=3 n=21 v=100
862568 On ch=3 n=21 v=100
862578 Off ch=3 n=18 v=0
862581 On ch=3 n=11 v=100
862847 Off ch=3 n=11 v=0
862892 On ch=3 n=14 v=100
862941 Off ch=3 n=21 v=0
862941 Off ch=3 n=21 v=0
863016 On ch=3 n=11 v=100
863017 Off ch=3 n=14 v=0
863265 Off ch=3 n=11 v=0
863585 On ch=3 n=7 v=100
863636 Off ch=3 n=7 v=0
863772 On ch=3 n=4 v=100
863839 Off ch=3 n=4 v=0
864654 On ch=3 n=14 v=100
864800 Off ch=3 n=14 v=0
865081 On ch=3 n=20 v=100
865201 Off ch=3 n=20 v=0
865255 On ch=3 n=4 v=100
865472 Off ch=3 n=4 v=0
865475 On ch=3 n=7 v=100
865623 Off ch=3 n=7 v=0
865971 On ch=3 n=10 v=100
866619 Off ch=3 n=10 v=0
867782 On ch=3 n=26 v=100
867784 On ch=3 n=10 v=100
867847 On ch=3 n=33 v=100
867902 On ch=3 n=27 v=100
867906 On ch=3 n=11 v=100
867910 Off ch=3 n=10 v=0
867936 Off ch=3 n=26 v=0
868035 Off ch=3 n=11 v=0
868037 Off ch=3 n=33 v=0
868066 On ch=3 n=3 v=100
868160 Off ch=3 n=27 v=0
869048 Off ch=3 n=3 v=0
869615 On ch=3 n=48 v=100
869704 Off ch=3 n=48 v=0
872093 On ch=3 n=58 v=100
872131 On ch=3 n=50 v=100
872131 On ch=3 n=50 v=100
872226 Off ch=3 n=58 v=0
872226 Off ch=3 n=50 v=0
872226 Off ch=3 n=50 v=0
872280 On ch=3 n=59 v=100
872386 Off ch=3 n=59 v=0
872753 On ch=3 n=48 v=100
873121 Off ch=3 n=48 v=0
874877 On ch=3 n=61 v=100
874965 Off ch=3 n=61 v=0
875015 On ch=3 n=65 v=100
875129 Off ch=3 n=65 v=0
878789 On ch=3 n=7 v=100
879012 Off ch=3 n=7 v=0
879014 On ch=3 n=14 v=100
879825 Off ch=3 n=14 v=0
887255 On ch=3 n=5 v=100
890871 Off ch=3 n=5 v=0
891882 On ch=3 n=23 v=100
891894 On ch=3 n=25 v=100
891956 Off ch=3 n=23 v=0
891972 Off ch=3 n=25 v=0
892114 On ch=3 n=29 v=100
892460 Off ch=3 n=29 v=0
894133 On ch=3 n=28 v=100
894208 Off ch=3 n=28 v=0
894228 On ch=3 n=9 v=100
894463 On ch=3 n=41 v=100
894559 On ch=3 n=39 v=100
894727 Off ch=3 n=9 v=0
894772 Off ch=3 n=39 v=0
894774 Off ch=3 n=41 v=0
895897 On ch=3 n=23 v=100
896094 Off ch=3 n=23 v=0
898588 On ch=3 n=7 v=100
898924 Off ch=3 n=7 v=0
898963 On ch=3 n=9 v=100
899166 Off ch=3 n=9 v=0
899307 On ch=3 n=13 v=100
899471 Off ch=3 n=13 v=0
901913 On ch=3 n=6 v=100
903314 Off ch=3 n=6 v=0
903420 On ch=3 n=44 v=100
903436 On ch=3 n=27 v=100
903480 Off ch=3 n=44 v=0
903480 Off ch=3 n=27 v=0
903512 On ch=3 n=44 v=100
903623 Off ch=3 n=44 v=0
903676 On ch=3 n=27 v=100
903676 On ch=3 n=44 v=100
903676 On ch=3 n=41 v=100
903696 Off ch=3 n=27 v=0
903738 Off ch=3 n=44 v=0
903752 Off ch=3 n=41 v=0
904302 On ch=3 n=46 v=100
904392 Off ch=3 n=46 v=0
904500 On ch=3 n=46 v=100
904626 Off ch=3 n=46 v=0
906446 On ch=3 n=23 v=100
906559 On ch=3 n=4 v=100
906679 Off ch=3 n=23 v=0
907054 On ch=3 n=25 v=100
907112 Off ch=3 n=4 v=0
907124 Off ch=3 n=25 v=0
910477 On ch=3 n=18 v=100
910493 On ch=3 n=33 v=100
910693 On ch=3 n=22 v=100
910783 Off ch=3 n=18 v=0
910851 On ch=3 n=23 v=100
910939 Off ch=3 n=33 v=0
910949 On ch=3 n=42 v=100
910961 Off ch=3 n=22 v=0
910961 Off ch=3 n=23 v=0
910961 Off ch=3 n=42 v=0
911022 On ch=3 n=23 v=100
911022 On ch=3 n=42 v=100
911022 On ch=3 n=22 v=100
911036 Off ch=3 n=22 v=0
911037 On ch=3 n=40 v=100
911178 Off ch=3 n=23 v=0
911189 On ch=3 n=25 v=100
911369 On ch=3 n=29 v=100
911448 Off ch=3 n=40 v=0
911450 Off ch=3 n=25 v=0
911465 Off ch=3 n=29 v=0
911678 On ch=3 n=12 v=100
911726 Off ch=3 n=42 v=0
912495 Off ch=3 n=12 v=0
912828 On ch=3 n=28 v=100
912908 Off ch=3 n=28 v=0
913025 On ch=3 n=16 v=100
913142 Off ch=3 n=16 v=0
913285 On ch=3 n=6 v=100
913451 Off ch=3 n=6 v=0
913815 On ch=3 n=38 v=100
913890 Off ch=3 n=38 v=0
913937 On ch=3 n=38 v=100
913976 Off ch=3 n=38 v=0
916017 On ch=3 n=2 v=100
920282 On ch=3 n=3 v=100
920283 Off ch=3 n=2 v=0
920733 Off ch=3 n=3 v=0
920735 On ch=3 n=5 v=100
923629 On ch=3 n=2 v=100
923629 Off ch=3 n=5 v=0
924185 On ch=3 n=15 v=100
924399 Off ch=3 n=2 v=0
924408 Off ch=3 n=15 v=0
924454 On ch=3 n=15 v=100
924692 Off ch=3 n=15 v=0
924694 On ch=3 n=0 v=100
924855 Off ch=3 n=0 v=0
924856 On ch=3 n=8 v=100
925673 On ch=3 n=57 v=100
925726 On ch=3 n=11 v=100
925727 Off ch=3 n=8 v=0
925782 Off ch=3 n=57 v=0
926062 Off ch=3 n=11 v=0
929540 On ch=3 n=11 v=100
929599 On ch=3 n=7 v=100
929772 Off ch=3 n=11 v=0
929773 Off ch=3 n=7 v=0
929778 On ch=3 n=16 v=100
929857 Off ch=3 n=16 v=0
929863 On ch=3 n=12 v=100
930099 On ch=3 n=20 v=100
930280 Off ch=3 n=12 v=0
930291 On ch=3 n=13 v=100
930333 Off ch=3 n=20 v=0
930493 Off ch=3 n=13 v=0
930523 On ch=3 n=13 v=100
930797 Off ch=3 n=13 v=0
930818 On ch=3 n=46 v=100
931092 Off ch=3 n=46 v=0
932320 On ch=3 n=0 v=100
932971 Off ch=3 n=0 v=0
938342 On ch=3 n=2 v=100
939546 Off ch=3 n=2 v=0
939593 On ch=3 n=2 v=100
940753 On ch=3 n=22 v=100
940850 Off ch=3 n=2 v=0
940875 On ch=3 n=0 v=100
940880 Off ch=3 n=22 v=0
949442 Off ch=3 n=0 v=0
949444 On ch=3 n=19 v=100
949521 Off ch=3 n=19 v=0
949588 On ch=3 n=38 v=100
949604 On ch=3 n=37 v=100
949667 Off ch=3 n=38 v=0
949670 Off ch=3 n=37 v=0
950091 On ch=3 n=10 v=100
950549 Off ch=3 n=10 v=0
951182 On ch=3 n=7 v=100
951681 On ch=3 n=4 v=100
951681 Off ch=3 n=7 v=0
954622 Off ch=3 n=4 v=0
955256 On ch=3 n=26 v=100
955368 Off ch=3 n=26 v=0
955547 On ch=3 n=7 v=100
956172 On ch=3 n=11 v=100
956177 Off ch=3 n=7 v=0
956323 Off ch=3 n=11 v=0
956349 On ch=3 n=12 v=100
956717 Off ch=3 n=12 v=0
966726 On ch=3 n=5 v=100
966986 Off ch=3 n=5 v=0
970748 On ch=3 n=14 v=100
971692 Off ch=3 n=14 v=0
972688 On ch=3 n=8 v=100
972955 Off ch=3 n=8 v=0
972965 On ch=3 n=19 v=100
973131 On ch=3 n=35 v=100
973131 On ch=3 n=35 v=100
973178 On ch=3 n=13 v=100
973178 On ch=3 n=13 v=100
973238 On ch=3 n=15 v=100
973240 Off ch=3 n=19 v=0
973378 Off ch=3 n=13 v=0
973378 Off ch=3 n=13 v=0
973408 Off ch=3 n=15 v=0
973452 On ch=3 n=36 v=100
973484 On ch=3 n=36 v=100
973494 Off ch=3 n=35 v=0
973494 Off ch=3 n=35 v=0
973530 Off ch=3 n=36 v=0
973645 Off ch=3 n=36 v=0
973720 On ch=3 n=12 v=100
973895 Off ch=3 n=12 v=0
975148 On ch=3 n=9 v=100
975345 Off ch=3 n=9 v=0
975346 On ch=3 n=6 v=100
975678 Off ch=3 n=6 v=0
978605 On ch=3 n=5 v=100
978896 Off ch=3 n=5 v=0
981485 On ch=3 n=6 v=100
981891 Off ch=3 n=6 v=0
981903 On ch=3 n=8 v=100
982226 On ch=3 n=17 v=100
982226 On ch=3 n=24 v=100
982227 On ch=3 n=38 v=100
982227 On ch=3 n=25 v=100
982237 Off ch=3 n=8 v=0
982256 Off ch=3 n=17 v=0
982263 Off ch=3 n=25 v=0
982273 Off ch=3 n=38 v=0
982287 Off ch=3 n=24 v=0
985350 On ch=3 n=6 v=100
986295 Off ch=3 n=6 v=0
986369 On ch=3 n=6 v=100
986381 Off ch=3 n=6 v=0
986435 On ch=3 n=29 v=100
986466 Off ch=3 n=29 v=0
987440 On ch=3 n=2 v=100
988241 Off ch=3 n=2 v=0
990731 On ch=3 n=5 v=100
990752 On ch=3 n=1 v=100
990842 Off ch=3 n=5 v=0
991628 Off ch=3 n=1 v=0
991837 On ch=3 n=17 v=100
991860 On ch=3 n=2 v=100
991875 Off ch=3 n=17 v=0
992095 On ch=3 n=3 v=100
992169 Off ch=3 n=2 v=0
993482 Off ch=3 n=3 v=0
993589 On ch=3 n=2 v=100
994059 On ch=3 n=17 v=100
994075 Off ch=3 n=2 v=0
994111 Off ch=3 n=17 v=0
994352 On ch=3 n=2 v=100
995192 Off ch=3 n=2 v=0
995214 On ch=3 n=47 v=100
995648 On ch=3 n=10 v=100
995655 Off ch=3 n=47 v=0
995720 Off ch=3 n=10 v=0
995813 On ch=3 n=17 v=100
995836 On ch=3 n=1 v=100
995851 Off ch=3 n=17 v=0
996069 On ch=3 n=4 v=100
996124 Off ch=3 n=1 v=0
999316 Off ch=3 n=4 v=0
1001677 On ch=3 n=55 v=100
1001706 On ch=3 n=55 v=100
1002198 Off ch=3 n=55 v=0
1002408 Off ch=3 n=55 v=0
1004874 On ch=3 n=6 v=100
1005001 Off ch=3 n=6 v=0
1006329 On ch=3 n=4 v=100
1006626 Off ch=3 n=4 v=0
1006661 On ch=3 n=4 v=100
1007007 Off ch=3 n=4 v=0
1007049 On ch=3 n=4 v=100
1007482 Off ch=3 n=4 v=0
1015166 On ch=3 n=42 v=100
1015166 On ch=3 n=30 v=100
1015383 Off ch=3 n=42 v=0
1015410 Off ch=3 n=30 v=0
1021863 On ch=3 n=1 v=100
1022041 Off ch=3 n=1 v=0
1023248 On ch=3 n=15 v=100
1023619 Off ch=3 n=15 v=0
1024573 On ch=3 n=9 v=100
1024624 Off ch=3 n=9 v=0
1024698 On ch=3 n=9 v=100
1025347 Off ch=3 n=9 v=0
1025672 On ch=3 n=14 v=100
1025961 Off ch=3 n=14 v=0
1026536 On ch=3 n=5 v=100
1026738 On ch=3 n=7 v=100
1026738 On ch=3 n=15 v=100
1026738 Off ch=3 n=5 v=0
1027009 Off ch=3 n=7 v=0
1027047 Off ch=3 n=15 v=0
1027194 On ch=3 n=4 v=100
1029701 On ch=3 n=18 v=100
1029708 Off ch=3 n=4 v=0
1030196 Off ch=3 n=18 v=0
1030546 On ch=3 n=20 v=100
1030581 On ch=3 n=10 v=100
1030590 Off ch=3 n=20 v=0
1030624 On ch=3 n=12 v=100
1030827 Off ch=3 n=10 v=0
1030937 On ch=3 n=18 v=100
1031212 Off ch=3 n=12 v=0
1031270 Off ch=3 n=18 v=0
1031590 On ch=3 n=1 v=100
1031590 On ch=3 n=1 v=100
1032155 On ch=3 n=34 v=100
1032332 On ch=3 n=4 v=100
1032332 On ch=3 n=4 v=100
1032365 Off ch=3 n=1 v=0
1032365 Off ch=3 n=1 v=0
1032418 Off ch=3 n=34 v=0
1038382 Off ch=3 n=4 v=0
1038382 Off ch=3 n=4 v=0
1038422 On ch=3 n=4 v=100
1040240 On ch=3 n=3 v=100
1040282 Off ch=3 n=4 v=0
1040907 Off ch=3 n=3 v=0
1040917 On ch=3 n=15 v=100
1041747 Off ch=3 n=15 v=0
1041748 On ch=3 n=7 v=100
1042167 On ch=3 n=11 v=100
1042170 Off ch=3 n=7 v=0
1042223 Off ch=3 n=11 v=0
1042226 On ch=3 n=9 v=100
1042612 On ch=3 n=10 v=100
1042613 Off ch=3 n=9 v=0
1043108 Off ch=3 n=10 v=0
1043113 On ch=3 n=6 v=100
1043448 Off ch=3 n=6 v=0
1043451 On ch=3 n=11 v=100
1043700 Off ch=3 n=11 v=0
1045173 On ch=3 n=5 v=100
1045211 Off ch=3 n=5 v=0
1045212 On ch=3 n=16 v=100
1045270 On ch=3 n=5 v=100
1045271 Off ch=3 n=16 v=0
1045494 Off ch=3 n=5 v=0
1045757 On ch=3 n=58 v=100
1045757 On ch=3 n=58 v=100
1045891 On ch=3 n=4 v=100
1046257 Off ch=3 n=4 v=0
1046283 Off ch=3 n=58 v=0
1046283 Off ch=3 n=58 v=0
1052275 On ch=3 n=5 v=100
1052554 On ch=3 n=11 v=100
1052558 Off ch=3 n=5 v=0
1052684 Off ch=3 n=11 v=0
1052891 On ch=3 n=20 v=100
1053048 Off ch=3 n=20 v=0
1058358 On ch=3 n=10 v=100
1058832 Off ch=3 n=10 v=0
1059954 On ch=3 n=17 v=100
1059954 On ch=3 n=17 v=100
1059996 On ch=3 n=12 v=100
1060001 On ch=3 n=33 v=100
1060352 Off ch=3 n=12 v=0
1060386 Off ch=3 n=17 v=0
1060386 Off ch=3 n=17 v=0
1060526 On ch=3 n=32 v=100
1060610 Off ch=3 n=33 v=0
1060612 Off ch=3 n=32 v=0
1060646 On ch=3 n=32 v=100
1060950 Off ch=3 n=32 v=0
1061249 On ch=3 n=27 v=100
1061349 On ch=3 n=49 v=100
1061404 Off ch=3 n=27 v=0
1061555 Off ch=3 n=49 v=0
1061635 On ch=3 n=22 v=100
1061696 Off ch=3 n=22 v=0
1061808 On ch=3 n=15 v=100
1062001 Off ch=3 n=15 v=0
1062290 On ch=3 n=19 v=100
1062664 Off ch=3 n=19 v=0
1065141 On ch=3 n=8 v=100
1065372 On ch=3 n=17 v=100
1065412 Off ch=3 n=8 v=0
1065421 On ch=3 n=6 v=100
1065431 Off ch=3 n=17 v=0
1066089 Off ch=3 n=6 v=0
1071648 On ch=3 n=6 v=100
1072323 Off ch=3 n=6 v=0
1073017 On ch=3 n=10 v=100
1073270 On ch=3 n=24 v=100
1073295 Off ch=3 n=10 v=0
1073299 On ch=3 n=14 v=100
1073352 On ch=3 n=16 v=100
1073355 Off ch=3 n=24 v=0
1073356 Off ch=3 n=14 v=0
1073391 Off ch=3 n=16 v=0
1075110 On ch=3 n=16 v=100
1075200 On ch=3 n=32 v=100
1075282 Off ch=3 n=16 v=0
1075337 Off ch=3 n=32 v=0
1075417 On ch=3 n=11 v=100
1076095 Off ch=3 n=11 v=0
1076104 On ch=3 n=10 v=100
1076358 Off ch=3 n=10 v=0
1076404 On ch=3 n=14 v=100
1077268 Off ch=3 n=14 v=0
1077566 On ch=3 n=9 v=100
1077636 Off ch=3 n=9 v=0
1077645 On ch=3 n=7 v=100
1078120 Off ch=3 n=7 v=0
1078131 On ch=3 n=10 v=100
1078575 On ch=3 n=22 v=100
1078616 On ch=3 n=13 v=100
1078629 Off ch=3 n=10 v=0
1078819 Off ch=3 n=22 v=0
1079093 On ch=3 n=14 v=100
1079104 Off ch=3 n=13 v=0
1079427 Off ch=3 n=14 v=0
1080965 On ch=3 n=42 v=100
1081070 Off ch=3 n=42 v=0
1081139 On ch=3 n=42 v=100
1081139 On ch=3 n=42 v=100
1081160 On ch=3 n=25 v=100
1081483 Off ch=3 n=25 v=0
1081627 Off ch=3 n=42 v=0
1081627 Off ch=3 n=42 v=0
1082188 On ch=3 n=34 v=100
1082267 Off ch=3 n=34 v=0
1082313 On ch=3 n=34 v=100
1082436 Off ch=3 n=34 v=0
1082501 On ch=3 n=34 v=100
1082612 Off ch=3 n=34 v=0
1082642 On ch=3 n=34 v=100
1082683 On ch=3 n=6 v=100
1082688 Off ch=3 n=34 v=0
1082937 On ch=3 n=15 v=100
1083026 Off ch=3 n=6 v=0
1083027 On ch=3 n=20 v=100
1083132 Off ch=3 n=15 v=0
1083166 Off ch=3 n=20 v=0
1091342 On ch=3 n=37 v=100
1091525 Off ch=3 n=37 v=0
1092556 On ch=3 n=20 v=100
1092767 Off ch=3 n=20 v=0
1093795 On ch=3 n=37 v=100
1093795 On ch=3 n=37 v=100
1093839 On ch=3 n=10 v=100
1093967 Off ch=3 n=10 v=0
1094069 Off ch=3 n=37 v=0
1094069 Off ch=3 n=37 v=0
1094091 On ch=3 n=11 v=100
1094299 Off ch=3 n=11 v=0
1094320 On ch=3 n=20 v=100
1094631 Off ch=3 n=20 v=0
1094786 On ch=3 n=14 v=100
1094868 Off ch=3 n=14 v=0
1094870 On ch=3 n=15 v=100
1094995 Off ch=3 n=15 v=0
1095003 On ch=3 n=12 v=100
1095128 Off ch=3 n=12 v=0
1095129 On ch=3 n=22 v=100
1095210 Off ch=3 n=22 v=0
1095279 On ch=3 n=37 v=100
1095619 Off ch=3 n=37 v=0
1098827 On ch=3 n=28 v=100
1098974 Off ch=3 n=28 v=0
1100685 On ch=3 n=8 v=100
1100734 On ch=3 n=10 v=100
1100734 Off ch=3 n=8 v=0
1101096 On ch=3 n=21 v=100
1101137 On ch=3 n=11 v=100
1101150 Off ch=3 n=10 v=0
1101349 Off ch=3 n=21 v=0
1101579 On ch=3 n=14 v=100
1101590 Off ch=3 n=11 v=0
1101865 Off ch=3 n=14 v=0
1101894 On ch=3 n=16 v=100
1101996 Off ch=3 n=16 v=0
1103263 On ch=3 n=34 v=100
1103263 On ch=3 n=25 v=100
1103362 On ch=3 n=25 v=100
1103567 Off ch=3 n=25 v=0
1103689 Off ch=3 n=34 v=0
1103691 Off ch=3 n=25 v=0
1103763 On ch=3 n=48 v=100
1103928 Off ch=3 n=48 v=0
1103960 On ch=3 n=48 v=100
1104001 Off ch=3 n=48 v=0
1104865 On ch=3 n=1 v=100
1105107 Off ch=3 n=1 v=0
1105370 On ch=3 n=3 v=100
1107715 On ch=3 n=5 v=100
1107720 Off ch=3 n=3 v=0
1108303 Off ch=3 n=5 v=0
1108502 On ch=3 n=45 v=100
1108595 On ch=3 n=0 v=100
1108659 Off ch=3 n=45 v=0
1108717 Off ch=3 n=0 v=0
1108722 On ch=3 n=0 v=100
1110775 Off ch=3 n=0 v=0
1112668 On ch=3 n=53 v=100
1112668 On ch=3 n=66 v=100
1112802 Off ch=3 n=53 v=0
1112821 Off ch=3 n=66 v=0
1112846 On ch=3 n=14 v=100
1112848 On ch=3 n=17 v=100
1113178 Off ch=3 n=14 v=0
1113237 Off ch=3 n=17 v=0
1115294 On ch=3 n=3 v=100
1115568 Off ch=3 n=3 v=0
1116509 On ch=3 n=23 v=100
1116679 Off ch=3 n=23 v=0
1117235 On ch=3 n=45 v=100
1117348 On ch=3 n=32 v=100
1117563 Off ch=3 n=45 v=0
1117563 Off ch=3 n=32 v=0
1117691 On ch=3 n=45 v=100
1117787 Off ch=3 n=45 v=0
1118169 On ch=3 n=47 v=100
1118361 On ch=3 n=42 v=100
1118485 Off ch=3 n=47 v=0
1118494 Off ch=3 n=42 v=0
1118528 On ch=3 n=42 v=100
1118900 Off ch=3 n=42 v=0
1121016 On ch=3 n=19 v=100
1121118 Off ch=3 n=19 v=0
1121146 On ch=3 n=14 v=100
1121417 On ch=3 n=21 v=100
1121432 Off ch=3 n=14 v=0
1121631 On ch=3 n=12 v=100
1121688 On ch=3 n=28 v=100
1121856 Off ch=3 n=21 v=0
1121900 On ch=3 n=10 v=100
1121914 Off ch=3 n=12 v=0
1121949 Off ch=3 n=28 v=0
1122463 Off ch=3 n=10 v=0
1122853 On ch=3 n=29 v=100
1122870 On ch=3 n=23 v=100
1122965 Off ch=3 n=29 v=0
1122966 Off ch=3 n=23 v=0
1123043 On ch=3 n=36 v=100
1123115 Off ch=3 n=36 v=0
1124339 On ch=3 n=28 v=100
1124486 Off ch=3 n=28 v=0
1126676 On ch=3 n=26 v=100
1126798 Off ch=3 n=26 v=0
1127558 On ch=3 n=9 v=100
1127783 On ch=3 n=7 v=100
1127783 Off ch=3 n=9 v=0
1128917 On ch=3 n=10 v=100
1128918 Off ch=3 n=7 v=0
1129679 Off ch=3 n=10 v=0
1129924 On ch=3 n=25 v=100
1129996 Off ch=3 n=25 v=0
1132586 On ch=3 n=32 v=100
1132743 On ch=3 n=32 v=100
1132746 On ch=3 n=20 v=100
1133148 Off ch=3 n=32 v=0
1133178 Off ch=3 n=20 v=0
1133244 Off ch=3 n=32 v=0
1134361 On ch=3 n=34 v=100
1134527 Off ch=3 n=34 v=0
1135207 On ch=3 n=46 v=100
1135318 Off ch=3 n=46 v=0
1137542 On ch=3 n=9 v=100
1137546 On ch=3 n=14 v=100
1138062 Off ch=3 n=9 v=0
1138503 Off ch=3 n=14 v=0
1139687 On ch=3 n=5 v=100
1140222 Off ch=3 n=5 v=0
1140832 On ch=3 n=3 v=100
1141350 Off ch=3 n=3 v=0
1142056 On ch=3 n=47 v=100
1142078 On ch=3 n=32 v=100
1142091 Off ch=3 n=47 v=0
1142091 Off ch=3 n=32 v=0
1142149 On ch=3 n=47 v=100
1142149 On ch=3 n=32 v=100
1142167 On ch=3 n=38 v=100
1142225 Off ch=3 n=47 v=0
1142430 Off ch=3 n=38 v=0
1142430 Off ch=3 n=32 v=0
1142465 On ch=3 n=32 v=100
1142465 On ch=3 n=37 v=100
1142465 On ch=3 n=38 v=100
1142471 On ch=3 n=28 v=100
1142641 Off ch=3 n=32 v=0
1142774 Off ch=3 n=28 v=0
1142787 Off ch=3 n=38 v=0
1142889 Off ch=3 n=37 v=0
1142963 On ch=3 n=37 v=100
1142993 Off ch=3 n=37 v=0
1143362 On ch=3 n=55 v=100
1143623 On ch=3 n=35 v=100
1143695 Off ch=3 n=55 v=0
1143695 Off ch=3 n=35 v=0
1143767 On ch=3 n=55 v=100
1143767 On ch=3 n=35 v=100
1143911 Off ch=3 n=55 v=0
1144002 Off ch=3 n=35 v=0
1144037 On ch=3 n=38 v=100
1144284 Off ch=3 n=38 v=0
1144318 On ch=3 n=38 v=100
1144351 Off ch=3 n=38 v=0
1145409 On ch=3 n=27 v=100
1145508 Off ch=3 n=27 v=0
1146225 On ch=3 n=12 v=100
1146389 Off ch=3 n=12 v=0
1153634 On ch=3 n=30 v=100
1153817 Off ch=3 n=30 v=0
1156041 On ch=3 n=32 v=100
1156388 Off ch=3 n=32 v=0
1156469 On ch=3 n=31 v=100
1156554 Off ch=3 n=31 v=0
1158168 On ch=3 n=51 v=100
1158218 On ch=3 n=31 v=100
1158242 On ch=3 n=38 v=100
1158242 On ch=3 n=38 v=100
1158256 On ch=3 n=24 v=100
1158288 On ch=3 n=26 v=100
1158288 On ch=3 n=26 v=100
1158290 On ch=3 n=27 v=100
1158421 Off ch=3 n=51 v=0
1158491 On ch=3 n=10 v=100
1158541 Off ch=3 n=31 v=0
1158541 Off ch=3 n=27 v=0
1158574 Off ch=3 n=24 v=0
1158625 Off ch=3 n=26 v=0
1158625 Off ch=3 n=26 v=0
1158626 Off ch=3 n=38 v=0
1158626 Off ch=3 n=38 v=0
1158711 On ch=3 n=17 v=100
1158715 Off ch=3 n=10 v=0
1159256 Off ch=3 n=17 v=0
1159483 On ch=3 n=9 v=100
1160024 Off ch=3 n=9 v=0
1160026 On ch=3 n=6 v=100
1161110 Off ch=3 n=6 v=0
1171030 On ch=3 n=52 v=100
1171234 Off ch=3 n=52 v=0
1179136 On ch=3 n=16 v=100
1179159 On ch=3 n=9 v=100
1179291 On ch=3 n=31 v=100
1179292 Off ch=3 n=9 v=0
1179294 Off ch=3 n=16 v=0
1179387 Off ch=3 n=31 v=0
1181439 On ch=3 n=26 v=100
1181459 On ch=3 n=19 v=100
1181511 Off ch=3 n=26 v=0
1181625 On ch=3 n=17 v=100
1181664 On ch=3 n=22 v=100
1182036 Off ch=3 n=19 v=0
1182078 Off ch=3 n=17 v=0
1182144 Off ch=3 n=22 v=0
1184814 On ch=3 n=31 v=100
1184910 Off ch=3 n=31 v=0
1184911 On ch=3 n=15 v=100
1185159 Off ch=3 n=15 v=0
1185898 On ch=3 n=19 v=100
1185966 On ch=3 n=19 v=100
1185966 On ch=3 n=7 v=100
1185979 Off ch=3 n=19 v=0
1186301 Off ch=3 n=7 v=0
1186388 Off ch=3 n=19 v=0
1186486 On ch=3 n=19 v=100
1186549 On ch=3 n=38 v=100
1186640 Off ch=3 n=19 v=0
1186655 On ch=3 n=26 v=100
1186730 On ch=3 n=20 v=100
1186825 Off ch=3 n=38 v=0
1186837 On ch=3 n=13 v=100
1186848 On ch=3 n=17 v=100
1187050 On ch=3 n=27 v=100
1187203 Off ch=3 n=20 v=0
1187208 Off ch=3 n=26 v=0
1187212 Off ch=3 n=13 v=0
1187261 Off ch=3 n=17 v=0
1187284 On ch=3 n=4 v=100
1187347 Off ch=3 n=27 v=0
1188258 On ch=3 n=43 v=100
1188355 Off ch=3 n=4 v=0
1188372 Off ch=3 n=43 v=0
1188947 On ch=3 n=6 v=100
1189246 Off ch=3 n=6 v=0
1190318 On ch=3 n=15 v=100
1190433 Off ch=3 n=15 v=0
1192514 On ch=3 n=20 v=100
1192863 Off ch=3 n=20 v=0
1192866 On ch=3 n=25 v=100
1192946 Off ch=3 n=25 v=0
1193137 On ch=3 n=20 v=100
1193262 Off ch=3 n=20 v=0
1194138 On ch=3 n=10 v=100
1194464 Off ch=3 n=10 v=0
1196096 On ch=3 n=4 v=100
1197264 Off ch=3 n=4 v=0
1206806 On ch=3 n=19 v=100
1207090 Off ch=3 n=19 v=0
1207107 On ch=3 n=20 v=100
1207174 On ch=3 n=22 v=100
1207178 Off ch=3 n=20 v=0
1207326 Off ch=3 n=22 v=0
1207344 On ch=3 n=15 v=100
1207393 Off ch=3 n=15 v=0
1207430 On ch=3 n=8 v=100
1208873 Off ch=3 n=8 v=0
1214565 On ch=3 n=7 v=100
1214862 On ch=3 n=7 v=100
1214864 Off ch=3 n=7 v=0
1217422 Off ch=3 n=7 v=0
1217453 On ch=3 n=7 v=100
1218804 Off ch=3 n=7 v=0
1218840 On ch=3 n=7 v=100
1220007 Off ch=3 n=7 v=0
1220043 On ch=3 n=7 v=100
1221181 On ch=3 n=6 v=100
1221181 Off ch=3 n=7 v=0
1221703 On ch=3 n=4 v=100
1221705 Off ch=3 n=6 v=0
1222221 On ch=3 n=7 v=100
1222232 Off ch=3 n=4 v=0
1223485 On ch=3 n=0 v=100
1223487 Off ch=3 n=7 v=0
1223726 Off ch=3 n=0 v=0
1226649 On ch=3 n=35 v=100
1226809 Off ch=3 n=35 v=0
1226861 On ch=3 n=35 v=100
1226904 Off ch=3 n=35 v=0
1226946 On ch=3 n=35 v=100
1227074 Off ch=3 n=35 v=0
1227635 On ch=3 n=32 v=100
1227649 On ch=3 n=39 v=100
1227690 Off ch=3 n=32 v=0
1227690 Off ch=3 n=39 v=0
1227737 On ch=3 n=32 v=100
1227737 On ch=3 n=39 v=100
1228081 Off ch=3 n=32 v=0
1228354 Off ch=3 n=39 v=0
1228653 On ch=3 n=26 v=100
1228655 On ch=3 n=36 v=100
1228777 On ch=3 n=25 v=100
1228982 Off ch=3 n=26 v=0
1229081 Off ch=3 n=36 v=0
1229081 Off ch=3 n=25 v=0
1230638 On ch=3 n=4 v=100
1231145 Off ch=3 n=4 v=0
1231448 On ch=3 n=49 v=100
1231559 On ch=3 n=44 v=100
1231567 Off ch=3 n=49 v=0
1231808 Off ch=3 n=44 v=0
1231809 On ch=3 n=21 v=100
1231833 On ch=3 n=6 v=100
1231905 Off ch=3 n=21 v=0
1232080 On ch=3 n=7 v=100
1232082 Off ch=3 n=6 v=0
1232388 Off ch=3 n=7 v=0
1238180 On ch=3 n=2 v=100
1238395 On ch=3 n=18 v=100
1238434 Off ch=3 n=2 v=0
1238443 Off ch=3 n=18 v=0
1244516 On ch=3 n=29 v=100
1244605 Off ch=3 n=29 v=0
1246529 On ch=3 n=34 v=100
1246542 On ch=3 n=28 v=100
1246642 Off ch=3 n=28 v=0
1246648 Off ch=3 n=34 v=0
1247400 On ch=3 n=16 v=100
1247445 On ch=3 n=14 v=100
1247675 Off ch=3 n=14 v=0
1247682 Off ch=3 n=16 v=0
1248466 On ch=3 n=10 v=100
1250004 On ch=3 n=15 v=100
1250028 On ch=3 n=18 v=100
1250034 On ch=3 n=11 v=100
1250082 Off ch=3 n=10 v=0
1250183 Off ch=3 n=15 v=0
1250183 Off ch=3 n=11 v=0
1250202 On ch=3 n=13 v=100
1250228 Off ch=3 n=18 v=0
1250316 Off ch=3 n=13 v=0
1250772 On ch=3 n=26 v=100
1250924 Off ch=3 n=26 v=0
1253295 On ch=3 n=11 v=100
1253577 On ch=3 n=12 v=100
1253577 Off ch=3 n=11 v=0
1253700 Off ch=3 n=12 v=0
1253826 On ch=3 n=17 v=100
1253972 Off ch=3 n=17 v=0
1255179 On ch=3 n=21 v=100
1255390 Off ch=3 n=21 v=0
1255854 On ch=3 n=8 v=100
1256885 Off ch=3 n=8 v=0
1257033 On ch=3 n=7 v=100
1258614 On ch=3 n=37 v=100
1258635 On ch=3 n=12 v=100
1258671 Off ch=3 n=7 v=0
1258768 On ch=3 n=36 v=100
1258777 On ch=3 n=18 v=100
1258794 Off ch=3 n=37 v=0
1258828 On ch=3 n=17 v=100
1258849 Off ch=3 n=12 v=0
1259213 Off ch=3 n=18 v=0
1259287 On ch=3 n=10 v=100
1259327 Off ch=3 n=36 v=0
1259332 Off ch=3 n=17 v=0
1259459 Off ch=3 n=10 v=0
1259746 On ch=3 n=24 v=100
1259786 On ch=3 n=26 v=100
1259786 On ch=3 n=26 v=100
1259805 On ch=3 n=8 v=100
1259998 Off ch=3 n=8 v=0
1260000 On ch=3 n=11 v=100
1260000 On ch=3 n=11 v=100
1260004 Off ch=3 n=24 v=0
1260011 Off ch=3 n=26 v=0
1260011 Off ch=3 n=26 v=0
1260239 On ch=3 n=16 v=100
1260345 Off ch=3 n=11 v=0
1260345 Off ch=3 n=11 v=0
1260362 Off ch=3 n=16 v=0
1261888 On ch=3 n=38 v=100
1261962 On ch=3 n=12 v=100
1261963 On ch=3 n=37 v=100
1261965 On ch=3 n=55 v=100
1262152 Off ch=3 n=12 v=0
1262162 Off ch=3 n=38 v=0
1262200 On ch=3 n=35 v=100
1262257 Off ch=3 n=37 v=0
1262352 Off ch=3 n=55 v=0
1262925 Off ch=3 n=35 v=0
1263492 On ch=3 n=6 v=100
1263721 Off ch=3 n=6 v=0
1265165 On ch=3 n=39 v=100
1265167 On ch=3 n=34 v=100
1265179 On ch=3 n=2 v=100
1265258 Off ch=3 n=34 v=0
1265276 Off ch=3 n=39 v=0
1267653 Off ch=3 n=2 v=0
1268895 On ch=3 n=32 v=100
1269003 Off ch=3 n=32 v=0
1269476 On ch=3 n=22 v=100
1269585 Off ch=3 n=22 v=0
1269596 On ch=3 n=22 v=100
1269640 On ch=3 n=25 v=100
1269734 Off ch=3 n=22 v=0
1269746 Off ch=3 n=25 v=0
1270014 On ch=3 n=25 v=100
1270069 On ch=3 n=7 v=100
1270145 Off ch=3 n=25 v=0
1270344 On ch=3 n=8 v=100
1270350 Off ch=3 n=7 v=0
1270665 Off ch=3 n=8 v=0
1270760 On ch=3 n=16 v=100
1270841 On ch=3 n=14 v=100
1270841 Off ch=3 n=16 v=0
1270992 Off ch=3 n=14 v=0
1271706 On ch=3 n=17 v=100
1271884 Off ch=3 n=17 v=0
1272243 On ch=3 n=15 v=100
1272395 Off ch=3 n=15 v=0
1274147 On ch=3 n=15 v=100
1274382 On ch=3 n=22 v=100
1274385 Off ch=3 n=15 v=0
1274698 Off ch=3 n=22 v=0
1275355 On ch=3 n=4 v=100
1275618 Off ch=3 n=4 v=0
1275992 On ch=3 n=65 v=100
1276647 Off ch=3 n=65 v=0
1276686 On ch=3 n=13 v=100
1276964 Off ch=3 n=13 v=0
1277148 On ch=3 n=20 v=100
1277529 On ch=3 n=52 v=100
1277529 On ch=3 n=52 v=100
1277576 On ch=3 n=39 v=100
1277595 Off ch=3 n=20 v=0
1277608 On ch=3 n=10 v=100
1277609 On ch=3 n=34 v=100
1277627 On ch=3 n=22 v=100
1277627 On ch=3 n=22 v=100
1277638 On ch=3 n=16 v=100
1277690 On ch=3 n=29 v=100
1277693 On ch=3 n=55 v=100
1277693 On ch=3 n=55 v=100
1277715 Off ch=3 n=39 v=0
1277715 Off ch=3 n=10 v=0
1277717 On ch=3 n=9 v=100
1277717 On ch=3 n=50 v=100
1277726 Off ch=3 n=52 v=0
1277726 Off ch=3 n=16 v=0
1277726 Off ch=3 n=52 v=0
1277746 Off ch=3 n=34 v=0
1277746 Off ch=3 n=22 v=0
1277746 Off ch=3 n=22 v=0
1277905 Off ch=3 n=9 v=0
1277907 On ch=3 n=20 v=100
1277911 Off ch=3 n=29 v=0
1277965 Off ch=3 n=50 v=0
1277980 Off ch=3 n=55 v=0
1277980 Off ch=3 n=55 v=0
1278003 On ch=3 n=38 v=100
1278046 Off ch=3 n=20 v=0
1278061 On ch=3 n=12 v=100
1278076 On ch=3 n=42 v=100
1278141 Off ch=3 n=38 v=0
1278141 Off ch=3 n=12 v=0
1278173 Off ch=3 n=42 v=0
1278537 On ch=3 n=8 v=100
1279211 Off ch=3 n=8 v=0
1279710 On ch=3 n=20 v=100
1279846 On ch=3 n=16 v=100
1279873 Off ch=3 n=20 v=0
1280174 Off ch=3 n=16 v=0
1305979 On ch=3 n=21 v=100
1306082 Off ch=3 n=21 v=0
1306096 On ch=3 n=32 v=100
1306183 Off ch=3 n=32 v=0
1306772 On ch=3 n=28 v=100
1307107 Off ch=3 n=28 v=0
1307111 On ch=3 n=32 v=100
1307805 Off ch=3 n=32 v=0
1307842 On ch=3 n=25 v=100
1307921 Off ch=3 n=25 v=0
1307942 On ch=3 n=29 v=100
1308068 Off ch=3 n=29 v=0
1308425 On ch=3 n=39 v=100
1308638 Off ch=3 n=39 v=0
1308798 On ch=3 n=54 v=100
1309351 On ch=3 n=28 v=100
1309456 Off ch=3 n=54 v=0
1309480 On ch=3 n=38 v=100
1309485 Off ch=3 n=28 v=0
1309642 Off ch=3 n=38 v=0
1309711 On ch=3 n=7 v=100
1309926 On ch=3 n=14 v=100
1310429 Off ch=3 n=7 v=0
1310506 Off ch=3 n=14 v=0
1310520 On ch=3 n=2 v=100
1310560 Off ch=3 n=2 v=0
1310582 On ch=3 n=14 v=100
1310705 Off ch=3 n=14 v=0
1311143 On ch=3 n=27 v=100
1311235 On ch=3 n=17 v=100
1311460 Off ch=3 n=27 v=0
1311861 Off ch=3 n=17 v=0
1311930 On ch=3 n=38 v=100
1311960 On ch=3 n=29 v=100
1312209 Off ch=3 n=38 v=0
1312213 Off ch=3 n=29 v=0
1312308 On ch=3 n=22 v=100
1312475 On ch=3 n=15 v=100
1312487 Off ch=3 n=22 v=0
1313023 On ch=3 n=18 v=100
1313029 Off ch=3 n=15 v=0
1314600 On ch=3 n=28 v=100
1314645 On ch=3 n=27 v=100
1314646 Off ch=3 n=18 v=0
1314764 Off ch=3 n=28 v=0
1314902 Off ch=3 n=27 v=0
1318138 On ch=3 n=7 v=100
1318203 On ch=3 n=5 v=100
1318279 Off ch=3 n=7 v=0
1318434 Off ch=3 n=5 v=0
1319054 On ch=3 n=4 v=100
1319591 Off ch=3 n=4 v=0
1319678 On ch=3 n=10 v=100
1319770 On ch=3 n=21 v=100
1319773 Off ch=3 n=10 v=0
1319953 On ch=3 n=6 v=100
1320054 Off ch=3 n=21 v=0
1320069 Off ch=3 n=6 v=0
1320140 On ch=3 n=6 v=100
1320661 Off ch=3 n=6 v=0
1320682 On ch=3 n=5 v=100
1320847 On ch=3 n=47 v=100
1320896 Off ch=3 n=5 v=0
1320946 Off ch=3 n=47 v=0
1327570 On ch=3 n=3 v=100
1327796 Off ch=3 n=3 v=0
1327803 On ch=3 n=6 v=100
1328023 On ch=3 n=8 v=100
1328253 Off ch=3 n=6 v=0
1328792 Off ch=3 n=8 v=0
1329320 On ch=3 n=7 v=100
1329882 On ch=3 n=8 v=100
1329884 Off ch=3 n=7 v=0
1330330 Off ch=3 n=8 v=0
1330434 On ch=3 n=21 v=100
1330627 On ch=3 n=26 v=100
1330643 Off ch=3 n=21 v=0
1330664 On ch=3 n=20 v=100
1330735 Off ch=3 n=26 v=0
1330740 Off ch=3 n=20 v=0
1330768 On ch=3 n=13 v=100
1331249 Off ch=3 n=13 v=0
1331857 On ch=3 n=9 v=100
1332301 On ch=3 n=11 v=100
1332718 Off ch=3 n=9 v=0
1332835 Off ch=3 n=11 v=0
1332839 On ch=3 n=2 v=100
1334110 Off ch=3 n=2 v=0
1334135 On ch=3 n=5 v=100
1335392 Off ch=3 n=5 v=0
1335447 On ch=3 n=5 v=100
1335565 Off ch=3 n=5 v=0
1335690 On ch=3 n=20 v=100
1335713 On ch=3 n=10 v=100
1335847 Off ch=3 n=20 v=0
1335847 Off ch=3 n=10 v=0
1335894 On ch=3 n=31 v=100
1335945 Off ch=3 n=31 v=0
1336001 On ch=3 n=27 v=100
1336093 On ch=3 n=33 v=100
1336166 On ch=3 n=32 v=100
1336167 On ch=3 n=45 v=100
1336167 On ch=3 n=45 v=100
1336172 Off ch=3 n=27 v=0
1336189 On ch=3 n=24 v=100
1336211 On ch=3 n=31 v=100
1336292 Off ch=3 n=33 v=0
1336299 Off ch=3 n=24 v=0
1336391 Off ch=3 n=45 v=0
1336391 Off ch=3 n=45 v=0
1336414 Off ch=3 n=31 v=0
1336422 Off ch=3 n=32 v=0
1337386 On ch=3 n=30 v=100
1337535 Off ch=3 n=30 v=0
1337572 On ch=3 n=15 v=100
1337668 On ch=3 n=9 v=100
1337679 Off ch=3 n=15 v=0
1338152 On ch=3 n=13 v=100
1338153 Off ch=3 n=9 v=0
1338315 Off ch=3 n=13 v=0
1338339 On ch=3 n=10 v=100
1338644 Off ch=3 n=10 v=0
1344456 On ch=3 n=11 v=100
1344565 On ch=3 n=15 v=100
1344577 Off ch=3 n=11 v=0
1345112 Off ch=3 n=15 v=0
1345795 On ch=3 n=28 v=100
1345984 On ch=3 n=7 v=100
1345984 Off ch=3 n=28 v=0
1346420 On ch=3 n=18 v=100
1346467 Off ch=3 n=7 v=0
1346799 Off ch=3 n=18 v=0
1346806 On ch=3 n=7 v=100
1346984 Off ch=3 n=7 v=0
1346985 On ch=3 n=5 v=100
1347194 On ch=3 n=9 v=100
1347194 On ch=3 n=17 v=100
1347194 Off ch=3 n=5 v=0
1347473 On ch=3 n=5 v=100
1347480 Off ch=3 n=9 v=0
1347530 Off ch=3 n=17 v=0
1348445 Off ch=3 n=5 v=0
1362136 On ch=3 n=18 v=100
1362210 Off ch=3 n=18 v=0
1362224 On ch=3 n=9 v=100
1362893 Off ch=3 n=9 v=0
1362974 On ch=3 n=17 v=100
1363046 Off ch=3 n=17 v=0
1363187 On ch=3 n=20 v=100
1363281 On ch=3 n=20 v=100
1363281 On ch=3 n=20 v=100
1363294 Off ch=3 n=20 v=0
1363297 On ch=3 n=8 v=100
1363719 Off ch=3 n=8 v=0
1363722 On ch=3 n=17 v=100
1363779 Off ch=3 n=20 v=0
1363779 Off ch=3 n=20 v=0
1363889 On ch=3 n=16 v=100
1363912 Off ch=3 n=17 v=0
1364025 Off ch=3 n=16 v=0
1364028 On ch=3 n=9 v=100
1364452 Off ch=3 n=9 v=0
1367785 On ch=3 n=10 v=100
1367990 Off ch=3 n=10 v=0
1367992 On ch=3 n=2 v=100
1368039 Off ch=3 n=2 v=0
1368049 On ch=3 n=9 v=100
1368177 On ch=3 n=10 v=100
1368188 Off ch=3 n=9 v=0
1368522 Off ch=3 n=10 v=0
1368768 On ch=3 n=24 v=100
1368853 Off ch=3 n=24 v=0
1373989 On ch=3 n=23 v=100
1373989 On ch=3 n=23 v=100
1374042 On ch=3 n=10 v=100
1374510 Off ch=3 n=10 v=0
1374512 On ch=3 n=11 v=100
1374568 Off ch=3 n=23 v=0
1374568 Off ch=3 n=23 v=0
1374605 Off ch=3 n=11 v=0
1375372 On ch=3 n=6 v=100
1375809 On ch=3 n=3 v=100
1375810 Off ch=3 n=6 v=0
1375945 Off ch=3 n=3 v=0
1377810 On ch=3 n=11 v=100
1377868 Off ch=3 n=11 v=0
1377875 On ch=3 n=9 v=100
1378930 Off ch=3 n=9 v=0
1378938 On ch=3 n=19 v=100
1378938 On ch=3 n=12 v=100
1378991 Off ch=3 n=12 v=0
1378995 On ch=3 n=7 v=100
1379015 Off ch=3 n=19 v=0
1379169 On ch=3 n=29 v=100
1379237 Off ch=3 n=7 v=0
1379254 Off ch=3 n=29 v=0
1379631 On ch=3 n=2 v=100
1379936 Off ch=3 n=2 v=0
1381251 On ch=3 n=5 v=100
1381612 Off ch=3 n=5 v=0
1382053 On ch=3 n=13 v=100
1382200 Off ch=3 n=13 v=0
1382201 On ch=3 n=2 v=100
1383342 Off ch=3 n=2 v=0
1383344 On ch=3 n=16 v=100
1383548 On ch=3 n=37 v=100
1383548 On ch=3 n=37 v=100
1383550 Off ch=3 n=16 v=0
1383560 On ch=3 n=27 v=100
1383637 On ch=3 n=24 v=100
1383670 Off ch=3 n=27 v=0
1383694 Off ch=3 n=37 v=0
1383694 Off ch=3 n=37 v=0
1383707 Off ch=3 n=24 v=0
1383714 On ch=3 n=42 v=100
1383833 Off ch=3 n=42 v=0
1387981 On ch=3 n=66 v=100
1388160 Off ch=3 n=66 v=0
1388167 On ch=3 n=63 v=100
1388555 Off ch=3 n=63 v=0
1388843 On ch=3 n=7 v=100
1389236 Off ch=3 n=7 v=0
1389238 On ch=3 n=4 v=100
1389325 Off ch=3 n=4 v=0
1389375 On ch=3 n=11 v=100
1389385 Off ch=3 n=11 v=0
1389427 On ch=3 n=18 v=100
1389488 On ch=3 n=10 v=100
1389797 Off ch=3 n=18 v=0
1389798 On ch=3 n=5 v=100
1389798 Off ch=3 n=10 v=0
1390189 Off ch=3 n=5 v=0
1390858 On ch=3 n=6 v=100
1391534 Off ch=3 n=6 v=0
1391856 On ch=3 n=11 v=100
1391919 On ch=3 n=8 v=100
1391929 Off ch=3 n=11 v=0
1391937 On ch=3 n=6 v=100
1392212 Off ch=3 n=8 v=0
1392255 On ch=3 n=16 v=100
1392282 On ch=3 n=43 v=100
1392283 On ch=3 n=9 v=100
1392313 Off ch=3 n=6 v=0
1392556 On ch=3 n=4 v=100
1392557 Off ch=3 n=9 v=0
1392568 Off ch=3 n=16 v=0
1392700 Off ch=3 n=43 v=0
1392849 Off ch=3 n=4 v=0
1396852 On ch=3 n=9 v=100
1397149 On ch=3 n=7 v=100
1397152 On ch=3 n=22 v=100
1397152 Off ch=3 n=9 v=0
1397321 Off ch=3 n=7 v=0
1397356 Off ch=3 n=22 v=0
1397788 On ch=3 n=7 v=100
1397789 On ch=3 n=13 v=100
1398158 On ch=3 n=13 v=100
1398163 Off ch=3 n=7 v=0
1398224 Off ch=3 n=13 v=0
1398251 On ch=3 n=46 v=100
1398262 Off ch=3 n=13 v=0
1398355 Off ch=3 n=46 v=0
1398378 On ch=3 n=9 v=100
1398654 On ch=3 n=3 v=100
1398654 Off ch=3 n=9 v=0
1398814 Off ch=3 n=3 v=0
1398816 On ch=3 n=1 v=100
1400070 Off ch=3 n=1 v=0
1400071 On ch=3 n=5 v=100
1400759 On ch=3 n=49 v=100
1400907 Off ch=3 n=5 v=0
1400914 On ch=3 n=3 v=100
1401066 Off ch=3 n=49 v=0
1401455 On ch=3 n=19 v=100
1401456 Off ch=3 n=3 v=0
1402096 On ch=3 n=6 v=100
1402635 Off ch=3 n=19 v=0
1403833 Off ch=3 n=6 v=0
1403834 On ch=3 n=3 v=100
1404427 On ch=3 n=21 v=100
1404471 Off ch=3 n=3 v=0
1404554 Off ch=3 n=21 v=0
1404589 On ch=3 n=21 v=100
1404709 Off ch=3 n=21 v=0
1404837 On ch=3 n=1 v=100
1406404 Off ch=3 n=1 v=0
1406430 On ch=3 n=7 v=100
1407178 Off ch=3 n=7 v=0
1407195 On ch=3 n=13 v=100
1407381 On ch=3 n=7 v=100
1407386 Off ch=3 n=13 v=0
1408426 On ch=3 n=11 v=100
1408463 Off ch=3 n=7 v=0
1408467 On ch=3 n=8 v=100
1408768 Off ch=3 n=8 v=0
1408772 Off ch=3 n=11 v=0
1414854 On ch=3 n=10 v=100
1415093 On ch=3 n=11 v=100
1415576 Off ch=3 n=10 v=0
1415753 Off ch=3 n=11 v=0
1415756 On ch=3 n=9 v=100
1415902 Off ch=3 n=9 v=0
1415936 On ch=3 n=8 v=100
1416039 Off ch=3 n=8 v=0
1416069 On ch=3 n=8 v=100
1416144 On ch=3 n=14 v=100
1416146 On ch=3 n=17 v=100
1416147 Off ch=3 n=8 v=0
1416200 On ch=3 n=34 v=100
1416596 Off ch=3 n=14 v=0
1416694 Off ch=3 n=17 v=0
1417023 On ch=3 n=9 v=100
1417112 Off ch=3 n=34 v=0
1417303 Off ch=3 n=9 v=0
1417309 On ch=3 n=15 v=100
1418334 Off ch=3 n=15 v=0
1418675 On ch=3 n=8 v=100
1418795 Off ch=3 n=8 v=0
1419216 On ch=3 n=26 v=100
1419355 On ch=3 n=47 v=100
1419360 Off ch=3 n=26 v=0
1419380 On ch=3 n=51 v=100
1419540 Off ch=3 n=47 v=0
1419571 Off ch=3 n=51 v=0
1425360 On ch=3 n=5 v=100
1425828 Off ch=3 n=5 v=0
1425947 On ch=3 n=7 v=100
1427074 Off ch=3 n=7 v=0
1427302 On ch=3 n=20 v=100
1427455 Off ch=3 n=20 v=0
1428510 On ch=3 n=37 v=100
1428547 Off ch=3 n=37 v=0
1428611 On ch=3 n=37 v=100
1428799 Off ch=3 n=37 v=0
1430590 On ch=3 n=24 v=100
1430679 Off ch=3 n=24 v=0
1431380 On ch=3 n=8 v=100
1431544 Off ch=3 n=8 v=0
1431964 On ch=3 n=11 v=100
1432812 Off ch=3 n=11 v=0
1435368 On ch=3 n=21 v=100
1435500 Off ch=3 n=21 v=0
1447547 On ch=3 n=2 v=100
1448687 Off ch=3 n=2 v=0
1448716 On ch=3 n=41 v=100
1448759 On ch=3 n=10 v=100
1448944 Off ch=3 n=41 v=0
1449274 Off ch=3 n=10 v=0
1449294 On ch=3 n=24 v=100
1449369 Off ch=3 n=24 v=0
1451099 On ch=3 n=32 v=100
1451422 Off ch=3 n=32 v=0
1452089 On ch=3 n=46 v=100
1452201 Off ch=3 n=46 v=0
1457372 On ch=3 n=39 v=100
1457393 On ch=3 n=23 v=100
1457435 Off ch=3 n=39 v=0
1457435 Off ch=3 n=23 v=0
1457463 On ch=3 n=39 v=100
1457564 Off ch=3 n=39 v=0
1457611 On ch=3 n=23 v=100
1457611 On ch=3 n=39 v=100
1457732 Off ch=3 n=23 v=0
1457842 Off ch=3 n=39 v=0
1458154 On ch=3 n=49 v=100
1458414 On ch=3 n=44 v=100
1458455 Off ch=3 n=49 v=0
1458455 Off ch=3 n=44 v=0
1458507 On ch=3 n=44 v=100
1458672 On ch=3 n=26 v=100
1458764 Off ch=3 n=44 v=0
1458764 Off ch=3 n=26 v=0
1458849 On ch=3 n=26 v=100
1458849 On ch=3 n=44 v=100
1459041 On ch=3 n=32 v=100
1459121 Off ch=3 n=26 v=0
1459167 Off ch=3 n=44 v=0
1459208 Off ch=3 n=32 v=0
1459236 On ch=3 n=32 v=100
1459296 On ch=3 n=6 v=100
1459298 Off ch=3 n=32 v=0
1459551 On ch=3 n=17 v=100
1459641 Off ch=3 n=6 v=0
1459747 Off ch=3 n=17 v=0
1459796 On ch=3 n=8 v=100
1460513 Off ch=3 n=8 v=0
1460587 On ch=3 n=8 v=100
1461116 Off ch=3 n=8 v=0
1465743 On ch=3 n=21 v=100
1465981 Off ch=3 n=21 v=0
1465983 On ch=3 n=3 v=100
1466330 Off ch=3 n=3 v=0
1466337 On ch=3 n=6 v=100
1466568 Off ch=3 n=6 v=0
1466570 On ch=3 n=9 v=100
1466935 On ch=3 n=17 v=100
1466944 Off ch=3 n=9 v=0
1468026 Off ch=3 n=17 v=0
1468078 On ch=3 n=17 v=100
1469318 Off ch=3 n=17 v=0
1469345 On ch=3 n=17 v=100
1470047 On ch=3 n=1 v=100
1470047 Off ch=3 n=17 v=0
1470278 Off ch=3 n=1 v=0
1470279 On ch=3 n=2 v=100
1471092 On ch=3 n=2 v=100
1471099 Off ch=3 n=2 v=0
1471479 Off ch=3 n=2 v=0
1471640 On ch=3 n=22 v=100
1471738 Off ch=3 n=22 v=0
1472202 On ch=3 n=41 v=100
1472421 Off ch=3 n=41 v=0
1472660 On ch=3 n=47 v=100
1473030 Off ch=3 n=47 v=0
1473057 On ch=3 n=47 v=100
1473209 Off ch=3 n=47 v=0
1474382 On ch=3 n=66 v=100
1474861 Off ch=3 n=66 v=0
1474941 On ch=3 n=54 v=100
1475718 Off ch=3 n=54 v=0
1476689 On ch=3 n=30 v=100
1476882 On ch=3 n=9 v=100
1476883 Off ch=3 n=30 v=0
1476979 Off ch=3 n=9 v=0
1478766 On ch=3 n=4 v=100
1480436 Off ch=3 n=4 v=0
1481040 On ch=3 n=31 v=100
1481368 Off ch=3 n=31 v=0
1483979 On ch=3 n=20 v=100
1484420 On ch=3 n=26 v=100
1484457 Off ch=3 n=20 v=0
1484540 On ch=3 n=23 v=100
1484600 On ch=3 n=25 v=100
1484923 Off ch=3 n=26 v=0
1484923 Off ch=3 n=23 v=0
1485087 Off ch=3 n=25 v=0
1487114 On ch=3 n=28 v=100
1487235 Off ch=3 n=28 v=0
1487539 On ch=3 n=14 v=100
1487604 On ch=3 n=24 v=100
1487662 On ch=3 n=19 v=100
1487715 On ch=3 n=13 v=100
1487830 Off ch=3 n=14 v=0
1488031 Off ch=3 n=24 v=0
1488031 Off ch=3 n=19 v=0
1488031 Off ch=3 n=13 v=0
1488806 On ch=3 n=4 v=100
1489287 On ch=3 n=5 v=100
1489292 Off ch=3 n=4 v=0
1490951 On ch=3 n=4 v=100
1490951 Off ch=3 n=5 v=0
1492012 Off ch=3 n=4 v=0
1492023 On ch=3 n=3 v=100
1492037 Off ch=3 n=3 v=0
1492065 On ch=3 n=3 v=100
1496061 Off ch=3 n=3 v=0
1496227 On ch=3 n=32 v=100
1496270 On ch=3 n=8 v=100
1496544 Off ch=3 n=32 v=0
1496610 On ch=3 n=7 v=100
1496617 Off ch=3 n=8 v=0
1496678 On ch=3 n=47 v=100
1496712 Off ch=3 n=7 v=0
1496714 On ch=3 n=8 v=100
1496862 Off ch=3 n=47 v=0
1497335 Off ch=3 n=8 v=0
1497338 On ch=3 n=12 v=100
1497721 Off ch=3 n=12 v=0
1497723 On ch=3 n=6 v=100
1498419 Off ch=3 n=6 v=0
1498420 On ch=3 n=16 v=100
1498570 Off ch=3 n=16 v=0
1499254 On ch=3 n=18 v=100
1499257 On ch=3 n=12 v=100
1499275 On ch=3 n=21 v=100
1499371 On ch=3 n=9 v=100
1499379 Off ch=3 n=12 v=0
1499391 Off ch=3 n=18 v=0
1499421 Off ch=3 n=21 v=0
1499462 Off ch=3 n=9 v=0
1499464 On ch=3 n=18 v=100
1499581 Off ch=3 n=18 v=0
1499621 On ch=3 n=18 v=100
1499857 On ch=3 n=7 v=100
1499859 Off ch=3 n=18 v=0
1500140 Off ch=3 n=7 v=0
1500144 On ch=3 n=14 v=100
1500232 Off ch=3 n=14 v=0
1500235 On ch=3 n=14 v=100
1504380 Off ch=3 n=14 v=0
1504905 On ch=3 n=37 v=100
1504908 On ch=3 n=46 v=100
1505044 Off ch=3 n=37 v=0
1505185 Off ch=3 n=46 v=0
1505475 On ch=3 n=51 v=100
1505479 On ch=3 n=38 v=100
1505555 Off ch=3 n=38 v=0
1505705 Off ch=3 n=51 v=0
1506721 On ch=3 n=39 v=100
1506721 On ch=3 n=47 v=100
1506863 Off ch=3 n=39 v=0
1507003 Off ch=3 n=47 v=0
1507294 On ch=3 n=45 v=100
1507298 On ch=3 n=38 v=100
1507374 Off ch=3 n=38 v=0
1507527 Off ch=3 n=45 v=0
1508540 On ch=3 n=37 v=100
1508682 Off ch=3 n=37 v=0
1509117 On ch=3 n=38 v=100
1509193 Off ch=3 n=38 v=0
1510359 On ch=3 n=37 v=100
1510501 Off ch=3 n=37 v=0
1510927 On ch=3 n=40 v=100
1511012 Off ch=3 n=40 v=0
1512178 On ch=3 n=37 v=100
1512320 Off ch=3 n=37 v=0
1512755 On ch=3 n=38 v=100
1512831 Off ch=3 n=38 v=0
1513997 On ch=3 n=37 v=100
1514139 Off ch=3 n=37 v=0
1514570 On ch=3 n=45 v=100
1514574 On ch=3 n=38 v=100
1514650 Off ch=3 n=38 v=0
1514802 Off ch=3 n=45 v=0
1515698 On ch=3 n=42 v=100
1515700 On ch=3 n=37 v=100
1515826 Off ch=3 n=37 v=0
1515906 Off ch=3 n=42 v=0
1515935 On ch=3 n=37 v=100
1515973 On ch=3 n=39 v=100
1515975 On ch=3 n=23 v=100
1515987 On ch=3 n=43 v=100
1516077 Off ch=3 n=37 v=0
1516084 Off ch=3 n=23 v=0
1516087 On ch=3 n=58 v=100
1516101 Off ch=3 n=39 v=0
1516195 Off ch=3 n=43 v=0
1516233 Off ch=3 n=58 v=0
1517467 On ch=3 n=28 v=100
1517616 Off ch=3 n=28 v=0
1517653 On ch=3 n=15 v=100
1517749 On ch=3 n=12 v=100
1517760 Off ch=3 n=15 v=0
1518039 Off ch=3 n=12 v=0
1518122 On ch=3 n=12 v=100
1518246 Off ch=3 n=12 v=0
1518420 On ch=3 n=6 v=100
1519377 On ch=3 n=19 v=100
1519447 Off ch=3 n=6 v=0
1519464 On ch=3 n=16 v=100
1519523 On ch=3 n=30 v=100
1519857 Off ch=3 n=19 v=0
1519928 Off ch=3 n=16 v=0
1520169 Off ch=3 n=30 v=0
1521152 On ch=3 n=34 v=100
1521174 On ch=3 n=28 v=100
1521179 On ch=3 n=15 v=100
1521265 Off ch=3 n=34 v=0
1521294 On ch=3 n=38 v=100
1521337 On ch=3 n=44 v=100
1521443 Off ch=3 n=15 v=0
1521496 Off ch=3 n=28 v=0
1521520 Off ch=3 n=38 v=0
1521544 Off ch=3 n=44 v=0
1521810 On ch=3 n=67 v=100
1521819 On ch=3 n=48 v=100
1521848 On ch=3 n=47 v=100
1522049 Off ch=3 n=48 v=0
1522160 Off ch=3 n=67 v=0
1522160 Off ch=3 n=47 v=0
1522917 On ch=3 n=45 v=100
1522917 On ch=3 n=45 v=100
1522935 On ch=3 n=27 v=100
1522948 On ch=3 n=51 v=100
1522948 On ch=3 n=51 v=100
1523174 Off ch=3 n=27 v=0
1523197 Off ch=3 n=45 v=0
1523197 Off ch=3 n=45 v=0
1523578 On ch=3 n=48 v=100
1523578 On ch=3 n=48 v=100
1523778 On ch=3 n=63 v=100
1523778 On ch=3 n=63 v=100
1523779 Off ch=3 n=51 v=0
1523779 Off ch=3 n=51 v=0
1524428 Off ch=3 n=48 v=0
1524428 Off ch=3 n=48 v=0
1524541 Off ch=3 n=63 v=0
1524541 Off ch=3 n=63 v=0
1524609 On ch=3 n=8 v=100
1525359 Off ch=3 n=8 v=0
1525432 On ch=3 n=8 v=100
1525537 On ch=3 n=7 v=100
1525545 Off ch=3 n=8 v=0
1526339 On ch=3 n=11 v=100
1526570 Off ch=3 n=7 v=0
1526668 Off ch=3 n=11 v=0
1526699 On ch=3 n=11 v=100
1526745 On ch=3 n=12 v=100
1526803 Off ch=3 n=11 v=0
1527002 Off ch=3 n=12 v=0
1527018 On ch=3 n=0 v=100
1527120 Off ch=3 n=0 v=0
1527155 On ch=3 n=50 v=100
1527208 On ch=3 n=49 v=100
1529627 Off ch=3 n=50 v=0
1530181 Off ch=3 n=49 v=0
1534772 On ch=3 n=18 v=100
1534847 On ch=3 n=17 v=100
1534855 Off ch=3 n=18 v=0
1534862 On ch=3 n=9 v=100
1534958 Off ch=3 n=17 v=0
1535472 Off ch=3 n=9 v=0
1535532 On ch=3 n=24 v=100
1535587 Off ch=3 n=24 v=0
1535605 On ch=3 n=19 v=100
1535694 On ch=3 n=16 v=100
1535698 On ch=3 n=41 v=100
1535703 Off ch=3 n=19 v=0
1535796 On ch=3 n=53 v=100
1535942 Off ch=3 n=16 v=0
1536029 Off ch=3 n=41 v=0
1536084 Off ch=3 n=53 v=0
1536754 On ch=3 n=9 v=100
1536933 Off ch=3 n=9 v=0
1537762 On ch=3 n=16 v=100
1537782 On ch=3 n=5 v=100
1537940 Off ch=3 n=16 v=0
1538919 Off ch=3 n=5 v=0
1539099 On ch=3 n=4 v=100
1539579 Off ch=3 n=4 v=0
1539581 On ch=3 n=4 v=100
1541010 Off ch=3 n=4 v=0
1541013 On ch=3 n=5 v=100
1541791 On ch=3 n=2 v=100
1541792 Off ch=3 n=5 v=0
1544270 Off ch=3 n=2 v=0
1544272 On ch=3 n=6 v=100
1544713 Off ch=3 n=6 v=0
1544806 On ch=3 n=6 v=100
1545052 Off ch=3 n=6 v=0
1545053 On ch=3 n=7 v=100
1546217 On ch=3 n=5 v=100
1546223 Off ch=3 n=7 v=0
1547827 On ch=3 n=4 v=100
1547827 Off ch=3 n=5 v=0
1548102 Off ch=3 n=4 v=0
1548103 On ch=3 n=5 v=100
1549264 Off ch=3 n=5 v=0
1550690 On ch=3 n=14 v=100
1550904 Off ch=3 n=14 v=0
1552541 On ch=3 n=30 v=100
1552725 Off ch=3 n=30 v=0
1554835 On ch=3 n=25 v=100
1554971 Off ch=3 n=25 v=0
1555877 On ch=3 n=16 v=100
1556091 Off ch=3 n=16 v=0
1557766 On ch=3 n=17 v=100
1557810 Off ch=3 n=17 v=0
1559329 On ch=3 n=17 v=100
1559496 Off ch=3 n=17 v=0
1559680 On ch=3 n=3 v=100
1561098 Off ch=3 n=3 v=0
1565639 On ch=3 n=6 v=100
1565840 On ch=3 n=47 v=100
1565899 Off ch=3 n=6 v=0
1565907 Off ch=3 n=47 v=0
1566020 On ch=3 n=47 v=100
1566163 Off ch=3 n=47 v=0
1631532 On ch=3 n=58 v=100
1631617 Off ch=3 n=58 v=0
1632740 On ch=3 n=53 v=100
1632824 Off ch=3 n=53 v=0
1634204 On ch=3 n=22 v=100
1634583 Off ch=3 n=22 v=0
1634689 On ch=3 n=22 v=100
1637498 Off ch=3 n=22 v=0
1637677 On ch=3 n=9 v=100
1637933 On ch=3 n=15 v=100
1638063 Off ch=3 n=9 v=0
1638145 Off ch=3 n=15 v=0
1639679 On ch=3 n=54 v=100
1639791 Off ch=3 n=54 v=0
1640318 On ch=3 n=1 v=100
1640919 On ch=3 n=33 v=100
1641027 On ch=3 n=24 v=100
1641152 On ch=3 n=7 v=100
1641152 Off ch=3 n=1 v=0
1641587 Off ch=3 n=33 v=0
1641590 Off ch=3 n=24 v=0
1643653 Off ch=3 n=7 v=0
1645472 On ch=3 n=59 v=100
1645472 On ch=3 n=59 v=100
1645770 Off ch=3 n=59 v=0
1645770 Off ch=3 n=59 v=0
1646010 On ch=3 n=52 v=100
1646110 Off ch=3 n=52 v=0
1646797 On ch=3 n=55 v=100
1646797 On ch=3 n=55 v=100
1646980 Off ch=3 n=55 v=0
1646980 Off ch=3 n=55 v=0
1655733 On ch=3 n=48 v=100
1655822 Off ch=3 n=48 v=0
1656187 On ch=3 n=48 v=100
1656545 Off ch=3 n=48 v=0
1659660 On ch=3 n=49 v=100
1660017 Off ch=3 n=49 v=0
1660428 On ch=3 n=5 v=100
1660752 Off ch=3 n=5 v=0
1664812 On ch=3 n=6 v=100
1666769 On ch=3 n=51 v=100
1667171 Off ch=3 n=6 v=0
1667175 On ch=3 n=10 v=100
1667469 Off ch=3 n=51 v=0
1667700 On ch=3 n=26 v=100
1668097 Off ch=3 n=10 v=0
1668109 On ch=3 n=2 v=100
1668258 Off ch=3 n=26 v=0
1669102 Off ch=3 n=2 v=0
1669665 On ch=3 n=51 v=100
1669675 On ch=3 n=58 v=100
1669760 Off ch=3 n=58 v=0
1669772 Off ch=3 n=51 v=0
1670099 On ch=3 n=27 v=100
1670178 Off ch=3 n=27 v=0
1672406 On ch=3 n=43 v=100
1672774 Off ch=3 n=43 v=0
1675572 On ch=3 n=50 v=100
1675589 On ch=3 n=57 v=100
1675670 Off ch=3 n=57 v=0
1675673 Off ch=3 n=50 v=0
1676038 On ch=3 n=47 v=100
1676398 Off ch=3 n=47 v=0
1678253 On ch=3 n=50 v=100
1678270 On ch=3 n=57 v=100
1678351 Off ch=3 n=57 v=0
1678354 Off ch=3 n=50 v=0
1678719 On ch=3 n=47 v=100
1679079 Off ch=3 n=47 v=0
1680951 On ch=3 n=57 v=100
1681032 Off ch=3 n=57 v=0
1681402 On ch=3 n=47 v=100
1681762 Off ch=3 n=47 v=0
1683633 On ch=3 n=47 v=100
1683721 Off ch=3 n=47 v=0
1684086 On ch=3 n=48 v=100
1684444 Off ch=3 n=48 v=0
1686307 On ch=3 n=48 v=100
1686396 Off ch=3 n=48 v=0
1686761 On ch=3 n=49 v=100
1687118 Off ch=3 n=49 v=0
1687529 On ch=3 n=5 v=100
1687853 Off ch=3 n=5 v=0
1701365 On ch=3 n=37 v=100
1701472 Off ch=3 n=37 v=0
1702392 On ch=3 n=36 v=100
1702499 Off ch=3 n=36 v=0
1703413 On ch=3 n=40 v=100
1703518 Off ch=3 n=40 v=0
1704429 On ch=3 n=35 v=100
1704537 Off ch=3 n=35 v=0
1705456 On ch=3 n=35 v=100
1705564 Off ch=3 n=35 v=0
1719211 On ch=3 n=11 v=100
1719650 Off ch=3 n=11 v=0
1720427 On ch=3 n=54 v=100
1720685 Off ch=3 n=54 v=0
1721342 On ch=3 n=33 v=100
1721525 Off ch=3 n=33 v=0
1722348 On ch=3 n=31 v=100
1722419 Off ch=3 n=31 v=0
1722688 On ch=3 n=6 v=100
1722933 Off ch=3 n=6 v=0
1722951 On ch=3 n=12 v=100
1723197 On ch=3 n=18 v=100
1723324 Off ch=3 n=12 v=0
1723341 Off ch=3 n=18 v=0
1723346 On ch=3 n=9 v=100
1723509 Off ch=3 n=9 v=0
1723510 On ch=3 n=21 v=100
1723595 Off ch=3 n=21 v=0
1723679 On ch=3 n=9 v=100
1725275 Off ch=3 n=9 v=0
1725428 On ch=3 n=6 v=100
1725796 On ch=3 n=13 v=100
1725804 Off ch=3 n=6 v=0
1725900 Off ch=3 n=13 v=0
1725937 On ch=3 n=27 v=100
1726086 Off ch=3 n=27 v=0
1727323 On ch=3 n=45 v=100
1727328 On ch=3 n=34 v=100
1727364 On ch=3 n=49 v=100
1727472 Off ch=3 n=34 v=0
1727473 On ch=3 n=43 v=100
1727474 On ch=3 n=31 v=100
1727569 Off ch=3 n=49 v=0
1727581 Off ch=3 n=31 v=0
1727581 Off ch=3 n=45 v=0
1727623 Off ch=3 n=43 v=0
1727650 On ch=3 n=46 v=100
1727730 On ch=3 n=37 v=100
1727856 Off ch=3 n=37 v=0
1727858 Off ch=3 n=46 v=0
1728494 On ch=3 n=48 v=100
1728626 On ch=3 n=39 v=100
1728767 Off ch=3 n=39 v=0
1728768 Off ch=3 n=48 v=0
1732038 On ch=3 n=48 v=100
1732173 On ch=3 n=39 v=100
1732300 Off ch=3 n=39 v=0
1732301 Off ch=3 n=48 v=0
1732593 On ch=3 n=20 v=100
1737313 Off ch=3 n=20 v=0
1737393 On ch=3 n=20 v=100
1737678 On ch=3 n=54 v=100
1738659 Off ch=3 n=20 v=0
1738667 On ch=3 n=21 v=100
1738864 Off ch=3 n=54 v=0
1741356 Off ch=3 n=21 v=0
1741427 On ch=3 n=21 v=100
1742554 On ch=3 n=32 v=100
1742564 Off ch=3 n=21 v=0
1742566 On ch=3 n=2 v=100
1742632 Off ch=3 n=32 v=0
1744801 On ch=3 n=4 v=100
1744806 Off ch=3 n=2 v=0
1744966 Off ch=3 n=4 v=0
1746498 On ch=3 n=55 v=100
1746575 Off ch=3 n=55 v=0
1746943 On ch=3 n=46 v=100
1747311 Off ch=3 n=46 v=0
1749225 On ch=3 n=49 v=100
1749241 On ch=3 n=57 v=100
1749322 Off ch=3 n=57 v=0
1749325 Off ch=3 n=49 v=0
1749690 On ch=3 n=47 v=100
1750050 Off ch=3 n=47 v=0
1751905 On ch=3 n=50 v=100
1751922 On ch=3 n=57 v=100
1752003 Off ch=3 n=57 v=0
1752006 Off ch=3 n=50 v=0
1752371 On ch=3 n=47 v=100
1752731 Off ch=3 n=47 v=0
1754586 On ch=3 n=50 v=100
1754603 On ch=3 n=57 v=100
1754684 Off ch=3 n=57 v=0
1754687 Off ch=3 n=50 v=0
1755274 On ch=3 n=8 v=100
1757176 Off ch=3 n=8 v=0
1757208 On ch=3 n=8 v=100
1757886 Off ch=3 n=8 v=0
1759129 On ch=3 n=49 v=100
1759194 Off ch=3 n=49 v=0
1760272 On ch=3 n=36 v=100
1760304 On ch=3 n=35 v=100
1760305 On ch=3 n=21 v=100
1760410 Off ch=3 n=36 v=0
1760456 On ch=3 n=34 v=100
1760456 On ch=3 n=34 v=100
1760480 Off ch=3 n=21 v=0
1760512 On ch=3 n=30 v=100
1760739 Off ch=3 n=30 v=0
1760742 Off ch=3 n=35 v=0
1760790 Off ch=3 n=34 v=0
1760790 Off ch=3 n=34 v=0
1761278 On ch=3 n=70 v=100
1761285 On ch=3 n=52 v=100
1761339 On ch=3 n=41 v=100
1761461 On ch=3 n=59 v=100
1761559 Off ch=3 n=52 v=0
1761605 Off ch=3 n=70 v=0
1761607 Off ch=3 n=41 v=0
1761666 Off ch=3 n=59 v=0
1762309 On ch=3 n=26 v=100
1764116 On ch=3 n=41 v=100
1764120 Off ch=3 n=26 v=0
1764441 Off ch=3 n=41 v=0
1764451 On ch=3 n=39 v=100
1764970 On ch=3 n=2 v=100
1764978 Off ch=3 n=39 v=0
1766922 Off ch=3 n=2 v=0
1766923 On ch=3 n=6 v=100
1768522 Off ch=3 n=6 v=0
1768698 On ch=3 n=13 v=100
1768716 On ch=3 n=1 v=100
1768736 Off ch=3 n=13 v=0
1769714 Off ch=3 n=1 v=0
1769716 On ch=3 n=0 v=100
1770249 Off ch=3 n=0 v=0
1770251 On ch=3 n=1 v=100
1772107 Off ch=3 n=1 v=0
1773295 On ch=3 n=16 v=100
1773318 On ch=3 n=44 v=100
1773318 On ch=3 n=44 v=100
1773381 On ch=3 n=21 v=100
1773384 On ch=3 n=27 v=100
1773413 On ch=3 n=12 v=100
1773417 Off ch=3 n=16 v=0
1773494 Off ch=3 n=27 v=0
1773510 Off ch=3 n=21 v=0
1773626 Off ch=3 n=44 v=0
1773626 Off ch=3 n=44 v=0
1773631 Off ch=3 n=12 v=0
1773639 On ch=3 n=10 v=100
1773927 Off ch=3 n=10 v=0
1775064 On ch=3 n=10 v=100
1775373 Off ch=3 n=10 v=0
1781666 On ch=3 n=8 v=100
1781829 Off ch=3 n=8 v=0
1784205 On ch=3 n=35 v=100
1784623 Off ch=3 n=35 v=0
1784768 On ch=3 n=41 v=100
1784959 Off ch=3 n=41 v=0
1785119 On ch=3 n=42 v=100
1785236 On ch=3 n=8 v=100
1785510 Off ch=3 n=8 v=0
1785519 Off ch=3 n=42 v=0
1785749 On ch=3 n=5 v=100
1785751 On ch=3 n=11 v=100
1786041 Off ch=3 n=5 v=0
1786079 Off ch=3 n=11 v=0
1786873 On ch=3 n=17 v=100
1786879 On ch=3 n=5 v=100
1787821 Off ch=3 n=5 v=0
1788096 Off ch=3 n=17 v=0
1788354 On ch=3 n=8 v=100
1788604 On ch=3 n=7 v=100
1788606 Off ch=3 n=8 v=0
1788902 Off ch=3 n=7 v=0
1790094 On ch=3 n=14 v=100
1790845 Off ch=3 n=14 v=0
1790885 On ch=3 n=14 v=100
1790991 Off ch=3 n=14 v=0
1791054 On ch=3 n=14 v=100
1791237 Off ch=3 n=14 v=0
1791525 On ch=3 n=7 v=100
1792037 On ch=3 n=12 v=100
1792040 Off ch=3 n=7 v=0
1792643 Off ch=3 n=12 v=0
1793043 On ch=3 n=39 v=100
1793048 On ch=3 n=5 v=100
1793100 Off ch=3 n=5 v=0
1793102 On ch=3 n=2 v=100
1793178 Off ch=3 n=39 v=0
1795601 Off ch=3 n=2 v=0
1795603 On ch=3 n=11 v=100
1796551 Off ch=3 n=11 v=0
1796696 On ch=3 n=12 v=100
1797143 On ch=3 n=5 v=100
1797146 Off ch=3 n=12 v=0
1797743 Off ch=3 n=5 v=0
1797744 On ch=3 n=23 v=100
1797867 Off ch=3 n=23 v=0
1797869 On ch=3 n=13 v=100
1798003 Off ch=3 n=13 v=0
1798200 On ch=3 n=44 v=100
1798569 Off ch=3 n=44 v=0
1798571 On ch=3 n=6 v=100
1799301 Off ch=3 n=6 v=0
1799306 On ch=3 n=42 v=100
1799306 On ch=3 n=6 v=100
1799776 On ch=3 n=4 v=100
1799815 Off ch=3 n=6 v=0
1800043 Off ch=3 n=42 v=0
1800392 Off ch=3 n=4 v=0
1800426 On ch=3 n=38 v=100
1800441 On ch=3 n=7 v=100
1801144 Off ch=3 n=7 v=0
1801282 Off ch=3 n=38 v=0
1802756 On ch=3 n=31 v=100
1802944 On ch=3 n=15 v=100
1803062 On ch=3 n=8 v=100
1803062 On ch=3 n=13 v=100
1803340 Off ch=3 n=31 v=0
1803426 Off ch=3 n=15 v=0
1803426 Off ch=3 n=8 v=0
1803607 Off ch=3 n=13 v=0
1805184 On ch=3 n=21 v=100
1805395 Off ch=3 n=21 v=0
1806581 On ch=3 n=18 v=100
1806643 Off ch=3 n=18 v=0
1806659 On ch=3 n=13 v=100
1807125 On ch=3 n=32 v=100
1807186 Off ch=3 n=13 v=0
1807197 Off ch=3 n=32 v=0
1807517 On ch=3 n=1 v=100
1809099 Off ch=3 n=1 v=0
1810381 On ch=3 n=5 v=100
1811360 Off ch=3 n=5 v=0
1812105 On ch=3 n=12 v=100
1812939 Off ch=3 n=12 v=0
1815454 On ch=3 n=28 v=100
1815600 Off ch=3 n=28 v=0
1816060 On ch=3 n=11 v=100
1816156 On ch=3 n=13 v=100
1816171 Off ch=3 n=11 v=0
1816171 Off ch=3 n=13 v=0
1816227 On ch=3 n=13 v=100
1816231 On ch=3 n=11 v=100
1816231 On ch=3 n=15 v=100
1816338 On ch=3 n=10 v=100
1816384 Off ch=3 n=11 v=0
1816391 Off ch=3 n=13 v=0
1816412 Off ch=3 n=15 v=0
1817960 Off ch=3 n=10 v=0
1818736 On ch=3 n=16 v=100
1818738 On ch=3 n=14 v=100
1818970 Off ch=3 n=14 v=0
1819014 Off ch=3 n=16 v=0
1819770 On ch=3 n=27 v=100
1819774 On ch=3 n=34 v=100
1819869 Off ch=3 n=27 v=0
1819889 Off ch=3 n=34 v=0
1821828 On ch=3 n=34 v=100
1821829 On ch=3 n=25 v=100
1821935 Off ch=3 n=25 v=0
1821954 Off ch=3 n=34 v=0
1822590 On ch=3 n=16 v=100
1822598 On ch=3 n=3 v=100
1822637 Off ch=3 n=16 v=0
1823163 On ch=3 n=6 v=100
1823164 Off ch=3 n=3 v=0
1823412 Off ch=3 n=6 v=0
1823440 On ch=3 n=48 v=100
1823686 Off ch=3 n=48 v=0
1823944 On ch=3 n=40 v=100
1824023 On ch=3 n=13 v=100
1824132 Off ch=3 n=40 v=0
1824324 Off ch=3 n=13 v=0
1825745 On ch=3 n=3 v=100
1828202 Off ch=3 n=3 v=0
1829229 On ch=3 n=36 v=100
1829229 On ch=3 n=25 v=100
1829328 On ch=3 n=26 v=100
1829533 Off ch=3 n=25 v=0
1829653 Off ch=3 n=36 v=0
1829655 Off ch=3 n=26 v=0
1829667 On ch=3 n=36 v=100
1829948 On ch=3 n=23 v=100
1830244 Off ch=3 n=36 v=0
1830258 Off ch=3 n=23 v=0
1830897 On ch=3 n=41 v=100
1831271 On ch=3 n=29 v=100
1831493 Off ch=3 n=41 v=0
1831520 Off ch=3 n=29 v=0
1834648 On ch=3 n=6 v=100
1834746 Off ch=3 n=6 v=0
1839284 On ch=3 n=36 v=100
1839313 On ch=3 n=51 v=100
1839313 On ch=3 n=51 v=100
1839314 On ch=3 n=29 v=100
1839314 On ch=3 n=29 v=100
1839324 On ch=3 n=6 v=100
1839516 Off ch=3 n=6 v=0
1839518 Off ch=3 n=36 v=0
1839529 Off ch=3 n=29 v=0
1839529 Off ch=3 n=29 v=0
1839535 On ch=3 n=22 v=100
1839555 On ch=3 n=19 v=100
1839598 Off ch=3 n=51 v=0
1839598 Off ch=3 n=51 v=0
1839629 Off ch=3 n=22 v=0
1839931 On ch=3 n=28 v=100
1839936 Off ch=3 n=19 v=0
1840199 Off ch=3 n=28 v=0
1840780 On ch=3 n=25 v=100
1840877 Off ch=3 n=25 v=0
1842919 On ch=3 n=29 v=100
1843094 On ch=3 n=23 v=100
1843478 Off ch=3 n=29 v=0
1843584 Off ch=3 n=23 v=0
1844412 On ch=3 n=26 v=100
1844412 On ch=3 n=26 v=100
1844436 On ch=3 n=13 v=100
1844748 Off ch=3 n=13 v=0
1844753 On ch=3 n=34 v=100
1844761 Off ch=3 n=26 v=0
1844761 Off ch=3 n=26 v=0
1844882 Off ch=3 n=34 v=0
1844901 On ch=3 n=3 v=100
1846472 Off ch=3 n=3 v=0
1846479 On ch=3 n=13 v=100
1846634 Off ch=3 n=13 v=0
1846668 On ch=3 n=7 v=100
1847569 On ch=3 n=12 v=100
1847569 Off ch=3 n=7 v=0
1848463 Off ch=3 n=12 v=0
1848471 On ch=3 n=11 v=100
1848535 On ch=3 n=46 v=100
1848552 Off ch=3 n=11 v=0
1848622 On ch=3 n=40 v=100
1849191 Off ch=3 n=46 v=0
1849194 Off ch=3 n=40 v=0
1849202 On ch=3 n=3 v=100
1850344 Off ch=3 n=3 v=0
1850372 On ch=3 n=19 v=100
1850472 Off ch=3 n=19 v=0
1850931 On ch=3 n=13 v=100
1850995 Off ch=3 n=13 v=0
1851217 On ch=3 n=6 v=100
1851453 On ch=3 n=5 v=100
1851453 Off ch=3 n=6 v=0
1851682 Off ch=3 n=5 v=0
1852162 On ch=3 n=9 v=100
1852550 Off ch=3 n=9 v=0
1852854 On ch=3 n=8 v=100
1853008 Off ch=3 n=8 v=0
1854816 On ch=3 n=6 v=100
1855185 On ch=3 n=10 v=100
1855189 Off ch=3 n=6 v=0
1855559 On ch=3 n=12 v=100
1855562 Off ch=3 n=10 v=0
1855927 On ch=3 n=15 v=100
1856009 On ch=3 n=5 v=100
1856018 Off ch=3 n=12 v=0
1856259 On ch=3 n=19 v=100
1856261 Off ch=3 n=15 v=0
1856261 Off ch=3 n=5 v=0
1856347 On ch=3 n=28 v=100
1856450 On ch=3 n=31 v=100
1856450 On ch=3 n=31 v=100
1856468 Off ch=3 n=19 v=0
1856493 On ch=3 n=13 v=100
1856511 Off ch=3 n=28 v=0
1856588 On ch=3 n=22 v=100
1856608 On ch=3 n=11 v=100
1856609 On ch=3 n=18 v=100
1856611 Off ch=3 n=13 v=0
1856689 Off ch=3 n=18 v=0
1856699 Off ch=3 n=31 v=0
1856699 Off ch=3 n=31 v=0
1856702 On ch=3 n=7 v=100
1856714 Off ch=3 n=11 v=0
1856722 Off ch=3 n=22 v=0
1856879 Off ch=3 n=7 v=0
1856881 On ch=3 n=10 v=100
1857159 Off ch=3 n=10 v=0
1857167 On ch=3 n=4 v=100
1857356 Off ch=3 n=4 v=0
1860410 On ch=3 n=47 v=100
1860430 On ch=3 n=10 v=100
1860438 On ch=3 n=26 v=100
1860585 Off ch=3 n=10 v=0
1860595 Off ch=3 n=47 v=0
1860614 Off ch=3 n=26 v=0
1861133 On ch=3 n=3 v=100
1862172 On ch=3 n=63 v=100
1862351 Off ch=3 n=3 v=0
1862373 Off ch=3 n=63 v=0
1862603 On ch=3 n=33 v=100
1862679 Off ch=3 n=33 v=0
1863396 On ch=3 n=16 v=100
1863526 Off ch=3 n=16 v=0
1863539 On ch=3 n=32 v=100
1863622 Off ch=3 n=32 v=0
1866042 On ch=3 n=7 v=100
1866722 Off ch=3 n=7 v=0
1866723 On ch=3 n=7 v=100
1867630 Off ch=3 n=7 v=0
1874198 On ch=3 n=28 v=100
1874326 Off ch=3 n=28 v=0
1874642 On ch=3 n=40 v=100
1874723 On ch=3 n=51 v=100
1874738 Off ch=3 n=40 v=0
1874777 On ch=3 n=27 v=100
1874976 Off ch=3 n=51 v=0
1874979 Off ch=3 n=27 v=0
1875447 On ch=3 n=31 v=100
1875494 On ch=3 n=27 v=100
1875499 On ch=3 n=64 v=100
1875500 On ch=3 n=25 v=100
1875580 On ch=3 n=41 v=100
1875656 Off ch=3 n=31 v=0
1875663 Off ch=3 n=25 v=0
1875701 Off ch=3 n=27 v=0
1875727 Off ch=3 n=64 v=0
1875745 Off ch=3 n=41 v=0
1876338 On ch=3 n=12 v=100
1876388 Off ch=3 n=12 v=0
1877966 On ch=3 n=5 v=100
1880466 Off ch=3 n=5 v=0
1881600 On ch=3 n=35 v=100
1881600 On ch=3 n=25 v=100
1881699 On ch=3 n=26 v=100
1881904 Off ch=3 n=25 v=0
1882026 Off ch=3 n=35 v=0
1882028 Off ch=3 n=26 v=0
1882038 On ch=3 n=36 v=100
1882339 On ch=3 n=38 v=100
1882528 Off ch=3 n=36 v=0
1882649 On ch=3 n=29 v=100
1882853 Off ch=3 n=38 v=0
1882853 Off ch=3 n=29 v=0
1882882 On ch=3 n=38 v=100
1882882 On ch=3 n=29 v=100
1882923 Off ch=3 n=38 v=0
1882954 Off ch=3 n=29 v=0
1883453 On ch=3 n=18 v=100
1883491 On ch=3 n=30 v=100
1883734 On ch=3 n=18 v=100
1883785 Off ch=3 n=18 v=0
1883871 Off ch=3 n=30 v=0
1883887 Off ch=3 n=18 v=0
1883921 On ch=3 n=18 v=100
1883930 Off ch=3 n=18 v=0
1891949 On ch=3 n=13 v=100
1892405 On ch=3 n=10 v=100
1892417 Off ch=3 n=13 v=0
1893767 Off ch=3 n=10 v=0
1895812 On ch=3 n=7 v=100
1896429 Off ch=3 n=7 v=0
1897063 On ch=3 n=28 v=100
1897146 Off ch=3 n=28 v=0
1897187 On ch=3 n=34 v=100
1897283 On ch=3 n=22 v=100
1897290 On ch=3 n=28 v=100
1897315 On ch=3 n=14 v=100
1897315 On ch=3 n=14 v=100
1897335 Off ch=3 n=34 v=0
1897342 On ch=3 n=16 v=100
1897348 On ch=3 n=28 v=100
1897348 On ch=3 n=28 v=100
1897488 Off ch=3 n=22 v=0
1897488 Off ch=3 n=14 v=0
1897488 Off ch=3 n=14 v=0
1897579 Off ch=3 n=28 v=0
1897589 On ch=3 n=34 v=100
1897589 On ch=3 n=27 v=100
1897589 On ch=3 n=34 v=100
1897589 On ch=3 n=27 v=100
1897611 Off ch=3 n=16 v=0
1897652 Off ch=3 n=28 v=0
1897652 Off ch=3 n=28 v=0
1897697 Off ch=3 n=27 v=0
1897697 Off ch=3 n=27 v=0
1897717 Off ch=3 n=34 v=0
1897717 Off ch=3 n=34 v=0
1898787 On ch=3 n=40 v=100
1898848 On ch=3 n=36 v=100
1899071 On ch=3 n=39 v=100
1899216 Off ch=3 n=40 v=0
1899333 Off ch=3 n=36 v=0
1899426 Off ch=3 n=39 v=0
1899462 On ch=3 n=39 v=100
1899577 Off ch=3 n=39 v=0
1899649 On ch=3 n=39 v=100
1899677 Off ch=3 n=39 v=0
1899967 On ch=3 n=33 v=100
1900323 Off ch=3 n=33 v=0
1901947 On ch=3 n=26 v=100
1902022 Off ch=3 n=26 v=0
1902042 On ch=3 n=9 v=100
1902273 On ch=3 n=39 v=100
1902369 On ch=3 n=37 v=100
1902538 Off ch=3 n=9 v=0
1902583 Off ch=3 n=37 v=0
1902585 Off ch=3 n=39 v=0
1903339 On ch=3 n=24 v=100
1903533 Off ch=3 n=24 v=0
1906227 On ch=3 n=28 v=100
1906355 Off ch=3 n=28 v=0
1906671 On ch=3 n=31 v=100
1906764 Off ch=3 n=31 v=0
1906806 On ch=3 n=25 v=100
1907008 Off ch=3 n=25 v=0
1907478 On ch=3 n=29 v=100
1907528 On ch=3 n=26 v=100
1907529 On ch=3 n=21 v=100
1907614 On ch=3 n=41 v=100
1907682 Off ch=3 n=21 v=0
1907690 Off ch=3 n=29 v=0
1907722 Off ch=3 n=26 v=0
1907791 Off ch=3 n=41 v=0
1908357 On ch=3 n=10 v=100
1908407 Off ch=3 n=10 v=0
1910041 On ch=3 n=10 v=100
1910101 On ch=3 n=9 v=100
1910101 Off ch=3 n=10 v=0
1910472 On ch=3 n=31 v=100
1910472 On ch=3 n=31 v=100
1910504 On ch=3 n=8 v=100
1910517 Off ch=3 n=9 v=0
1910556 On ch=3 n=23 v=100
1910708 Off ch=3 n=8 v=0
1910896 On ch=3 n=14 v=100
1910911 Off ch=3 n=23 v=0
1911003 Off ch=3 n=31 v=0
1911003 Off ch=3 n=31 v=0
1911182 Off ch=3 n=14 v=0
1912973 On ch=3 n=28 v=100
1912991 On ch=3 n=42 v=100
1913335 On ch=3 n=32 v=100
1913338 Off ch=3 n=28 v=0
1913521 Off ch=3 n=42 v=0
1913521 Off ch=3 n=32 v=0
1913549 On ch=3 n=42 v=100
1913583 Off ch=3 n=42 v=0
1913612 On ch=3 n=32 v=100
1913612 On ch=3 n=54 v=100
1913612 On ch=3 n=42 v=100
1913700 Off ch=3 n=42 v=0
1913714 Off ch=3 n=32 v=0
1913952 Off ch=3 n=54 v=0
1918053 On ch=3 n=3 v=100
1918997 On ch=3 n=3 v=100
1919001 Off ch=3 n=3 v=0
1920063 Off ch=3 n=3 v=0
1926569 On ch=3 n=5 v=100
1927619 Off ch=3 n=5 v=0
1927622 On ch=3 n=2 v=100
1928700 Off ch=3 n=2 v=0
1929919 On ch=3 n=5 v=100
1930153 On ch=3 n=9 v=100
1930153 On ch=3 n=3 v=100
1930165 Off ch=3 n=5 v=0
1930338 On ch=3 n=6 v=100
1930439 Off ch=3 n=3 v=0
1930486 Off ch=3 n=9 v=0
1930965 Off ch=3 n=6 v=0
1931396 On ch=3 n=10 v=100
1931670 Off ch=3 n=10 v=0
1931863 On ch=3 n=10 v=100
1932111 On ch=3 n=6 v=100
1932111 Off ch=3 n=10 v=0
1932285 Off ch=3 n=6 v=0
1932415 On ch=3 n=6 v=100
1932575 Off ch=3 n=6 v=0
1932576 On ch=3 n=13 v=100
1932597 On ch=3 n=13 v=100
1932617 Off ch=3 n=13 v=0
1932818 On ch=3 n=6 v=100
1932819 Off ch=3 n=13 v=0
1933076 Off ch=3 n=6 v=0
1933115 On ch=3 n=24 v=100
1933205 On ch=3 n=4 v=100
1933205 On ch=3 n=4 v=100
1933224 Off ch=3 n=24 v=0
1933415 On ch=3 n=54 v=100
1933480 On ch=3 n=5 v=100
1933480 On ch=3 n=5 v=100
1933525 Off ch=3 n=4 v=0
1933525 Off ch=3 n=4 v=0
1933561 Off ch=3 n=54 v=0
1933659 On ch=3 n=5 v=100
1933682 Off ch=3 n=5 v=0
1933682 Off ch=3 n=5 v=0
1933787 On ch=3 n=52 v=100
1933846 On ch=3 n=5 v=100
1933874 Off ch=3 n=5 v=0
1933934 Off ch=3 n=52 v=0
1934032 On ch=3 n=5 v=100
1934052 Off ch=3 n=5 v=0
1934094 On ch=3 n=4 v=100
1934218 On ch=3 n=3 v=100
1934247 Off ch=3 n=5 v=0
1934320 Off ch=3 n=4 v=0
1934453 On ch=3 n=5 v=100
1934453 Off ch=3 n=3 v=0
1936506 Off ch=3 n=5 v=0
1936580 On ch=3 n=5 v=100
1941780 Off ch=3 n=5 v=0
1947260 On ch=3 n=0 v=100
1947568 Off ch=3 n=0 v=0
1947579 On ch=3 n=2 v=100
1947749 On ch=3 n=18 v=100
1947850 On ch=3 n=2 v=100
1947865 Off ch=3 n=2 v=0
1947885 On ch=3 n=35 v=100
1947987 On ch=3 n=17 v=100
1948000 Off ch=3 n=18 v=0
1948026 On ch=3 n=1 v=100
1948058 Off ch=3 n=2 v=0
1948103 Off ch=3 n=35 v=0
1948224 Off ch=3 n=17 v=0
1948585 On ch=3 n=27 v=100
1948600 On ch=3 n=11 v=100
1948621 Off ch=3 n=1 v=0
1948652 Off ch=3 n=27 v=0
1948963 On ch=3 n=24 v=100
1949004 On ch=3 n=13 v=100
1949018 Off ch=3 n=11 v=0
1949211 Off ch=3 n=24 v=0
1949280 Off ch=3 n=13 v=0
1949316 On ch=3 n=13 v=100
1949425 On ch=3 n=53 v=100
1949497 On ch=3 n=13 v=100
1949507 Off ch=3 n=13 v=0
1949802 Off ch=3 n=53 v=0
1950100 On ch=3 n=15 v=100
1950144 Off ch=3 n=13 v=0
1950612 On ch=3 n=15 v=100
1950612 Off ch=3 n=15 v=0
1950851 Off ch=3 n=15 v=0
1951649 On ch=3 n=11 v=100
1951919 On ch=3 n=37 v=100
1951947 Off ch=3 n=11 v=0
1951948 On ch=3 n=9 v=100
1952113 Off ch=3 n=37 v=0
1952200 Off ch=3 n=9 v=0
1952235 On ch=3 n=25 v=100
1952288 Off ch=3 n=25 v=0
1952295 On ch=3 n=27 v=100
1952356 On ch=3 n=29 v=100
1952367 Off ch=3 n=27 v=0
1952415 On ch=3 n=32 v=100
1952428 Off ch=3 n=29 v=0
1952489 Off ch=3 n=32 v=0
1952501 On ch=3 n=18 v=100
1952547 Off ch=3 n=18 v=0
1952556 On ch=3 n=35 v=100
1952608 Off ch=3 n=35 v=0
1952615 On ch=3 n=26 v=100
1952680 On ch=3 n=29 v=100
1952688 Off ch=3 n=26 v=0
1952748 Off ch=3 n=29 v=0
1952755 On ch=3 n=23 v=100
1952808 Off ch=3 n=23 v=0
1952815 On ch=3 n=29 v=100
1952877 On ch=3 n=29 v=100
1952887 Off ch=3 n=29 v=0
1952895 On ch=3 n=28 v=100
1952935 On ch=3 n=28 v=100
1952948 Off ch=3 n=29 v=0
1952969 Off ch=3 n=28 v=0
1952988 Off ch=3 n=28 v=0
1952995 On ch=3 n=32 v=100
1953023 On ch=3 n=40 v=100
1953068 On ch=3 n=2 v=100
1953083 Off ch=3 n=32 v=0
1953165 Off ch=3 n=40 v=0
1955526 Off ch=3 n=2 v=0
1955557 On ch=3 n=25 v=100
1955577 On ch=3 n=23 v=100
1955598 On ch=3 n=26 v=100
1955610 Off ch=3 n=25 v=0
1955630 Off ch=3 n=23 v=0
1955650 Off ch=3 n=26 v=0
1955657 On ch=3 n=33 v=100
1955717 On ch=3 n=26 v=100
1955721 Off ch=3 n=33 v=0
1955758 On ch=3 n=35 v=100
1955778 On ch=3 n=32 v=100
1955778 Off ch=3 n=26 v=0
1955798 On ch=3 n=29 v=100
1955810 Off ch=3 n=35 v=0
1955817 On ch=3 n=25 v=100
1955830 Off ch=3 n=32 v=0
1955870 Off ch=3 n=29 v=0
1955879 Off ch=3 n=25 v=0
1955899 On ch=3 n=34 v=100
1955937 On ch=3 n=31 v=100
1955958 On ch=3 n=32 v=100
1955970 Off ch=3 n=34 v=0
1955990 Off ch=3 n=31 v=0
1955999 On ch=3 n=25 v=100
1956010 Off ch=3 n=32 v=0
1956017 On ch=3 n=27 v=100
1956057 On ch=3 n=28 v=100
1956061 Off ch=3 n=25 v=0
1956077 On ch=3 n=28 v=100
1956089 Off ch=3 n=27 v=0
1956117 On ch=3 n=30 v=100
1956130 Off ch=3 n=28 v=0
1956150 Off ch=3 n=28 v=0
1956190 Off ch=3 n=30 v=0
1956223 On ch=3 n=18 v=100
1956237 On ch=3 n=26 v=100
1956257 On ch=3 n=28 v=100
1956270 Off ch=3 n=18 v=0
1956279 On ch=3 n=33 v=100
1956294 Off ch=3 n=26 v=0
1956310 Off ch=3 n=28 v=0
1956319 On ch=3 n=27 v=100
1956330 Off ch=3 n=33 v=0
1956338 On ch=3 n=26 v=100
1956378 On ch=3 n=35 v=100
1956390 Off ch=3 n=27 v=0
1956398 Off ch=3 n=26 v=0
1956417 On ch=3 n=31 v=100
1956430 Off ch=3 n=35 v=0
1956438 On ch=3 n=26 v=100
1956466 Off ch=3 n=31 v=0
1956477 On ch=3 n=26 v=100
1956497 On ch=3 n=32 v=100
1956499 Off ch=3 n=26 v=0
1956529 Off ch=3 n=26 v=0
1956548 Off ch=3 n=32 v=0
1956582 On ch=3 n=27 v=100
1956598 On ch=3 n=27 v=100
1956649 Off ch=3 n=27 v=0
1956670 Off ch=3 n=27 v=0
1956678 On ch=3 n=31 v=100
1956717 On ch=3 n=30 v=100
1956737 On ch=3 n=31 v=100
1956750 Off ch=3 n=31 v=0
1956777 On ch=3 n=30 v=100
1956790 Off ch=3 n=30 v=0
1956797 On ch=3 n=30 v=100
1956809 Off ch=3 n=31 v=0
1956843 On ch=3 n=23 v=100
1956847 Off ch=3 n=30 v=0
1956870 Off ch=3 n=30 v=0
1956911 Off ch=3 n=23 v=0
1956917 On ch=3 n=28 v=100
1956937 On ch=3 n=27 v=100
1956979 On ch=3 n=25 v=100
1956990 Off ch=3 n=28 v=0
1957010 Off ch=3 n=27 v=0
1957050 Off ch=3 n=25 v=0
1957057 On ch=3 n=31 v=100
1957119 On ch=3 n=32 v=100
1957122 Off ch=3 n=31 v=0
1957190 Off ch=3 n=32 v=0
1957195 On ch=3 n=29 v=100
1957258 On ch=3 n=29 v=100
1957270 Off ch=3 n=29 v=0
1957330 Off ch=3 n=29 v=0
1957338 On ch=3 n=31 v=100
1957395 On ch=3 n=36 v=100
1957410 Off ch=3 n=31 v=0
1957469 Off ch=3 n=36 v=0
1957499 On ch=3 n=30 v=100
1957572 Off ch=3 n=30 v=0
1960168 On ch=3 n=18 v=100
1960267 Off ch=3 n=18 v=0
1961005 On ch=3 n=12 v=100
1961319 Off ch=3 n=12 v=0
1962167 On ch=3 n=32 v=100
1962214 On ch=3 n=14 v=100
1962226 Off ch=3 n=32 v=0
1962501 Off ch=3 n=14 v=0
1963915 On ch=3 n=3 v=100
1966342 Off ch=3 n=3 v=0
1966343 On ch=3 n=6 v=100
1966716 Off ch=3 n=6 v=0
1967073 On ch=3 n=31 v=100
1967148 Off ch=3 n=31 v=0
1967299 On ch=3 n=40 v=100
1967299 On ch=3 n=40 v=100
1967317 On ch=3 n=42 v=100
1967411 On ch=3 n=34 v=100
1967540 Off ch=3 n=42 v=0
1967605 Off ch=3 n=40 v=0
1967605 Off ch=3 n=40 v=0
1967654 Off ch=3 n=34 v=0
1968549 On ch=3 n=19 v=100
1968867 Off ch=3 n=19 v=0
1969708 On ch=3 n=22 v=100
1969834 Off ch=3 n=22 v=0
1972477 On ch=3 n=13 v=100
1972478 On ch=3 n=11 v=100
1972894 Off ch=3 n=11 v=0
1972953 Off ch=3 n=13 v=0
1973838 On ch=3 n=24 v=100
1973888 On ch=3 n=24 v=100
1973888 On ch=3 n=24 v=100
1973983 On ch=3 n=19 v=100
1973983 On ch=3 n=19 v=100
1973995 On ch=3 n=11 v=100
1974329 Off ch=3 n=24 v=0
1974337 Off ch=3 n=11 v=0
1974391 Off ch=3 n=19 v=0
1974391 Off ch=3 n=19 v=0
1974407 Off ch=3 n=24 v=0
1974407 Off ch=3 n=24 v=0
1976679 On ch=3 n=34 v=100
1976890 Off ch=3 n=34 v=0
1976948 On ch=3 n=32 v=100
1977024 On ch=3 n=7 v=100
1977094 Off ch=3 n=32 v=0
1977493 Off ch=3 n=7 v=0
1983046 On ch=3 n=24 v=100
1983088 Off ch=3 n=24 v=0
1984723 On ch=3 n=60 v=100
1984724 On ch=3 n=17 v=100
1984727 On ch=3 n=47 v=100
1984931 Off ch=3 n=17 v=0
1985038 Off ch=3 n=47 v=0
1985076 Off ch=3 n=60 v=0
1988512 On ch=3 n=25 v=100
1988604 Off ch=3 n=25 v=0
1990234 On ch=3 n=13 v=100
1990238 On ch=3 n=24 v=100
1990344 Off ch=3 n=13 v=0
1990391 Off ch=3 n=24 v=0
1990456 On ch=3 n=31 v=100
1990479 On ch=3 n=9 v=100
1990553 Off ch=3 n=31 v=0
1990574 Off ch=3 n=9 v=0
1990575 On ch=3 n=5 v=100
1990732 On ch=3 n=10 v=100
1991076 On ch=3 n=13 v=100
1991624 Off ch=3 n=5 v=0
1991774 Off ch=3 n=10 v=0
1991851 On ch=3 n=12 v=100
1991860 Off ch=3 n=13 v=0
1992297 Off ch=3 n=12 v=0
1992644 On ch=3 n=13 v=100
1992716 On ch=3 n=24 v=100
1992728 Off ch=3 n=13 v=0
1992734 On ch=3 n=7 v=100
1992881 Off ch=3 n=24 v=0
1993426 Off ch=3 n=7 v=0
1993473 On ch=3 n=32 v=100
1993577 Off ch=3 n=32 v=0
1993721 On ch=3 n=20 v=100
1993812 On ch=3 n=15 v=100
1993812 On ch=3 n=15 v=100
1993825 Off ch=3 n=20 v=0
1993828 On ch=3 n=11 v=100
1994278 Off ch=3 n=11 v=0
1994280 On ch=3 n=18 v=100
1994330 Off ch=3 n=15 v=0
1994330 Off ch=3 n=15 v=0
1994378 On ch=3 n=16 v=100
1994399 Off ch=3 n=18 v=0
1994454 On ch=3 n=14 v=100
1994504 Off ch=3 n=16 v=0
1994515 On ch=3 n=9 v=100
1994976 Off ch=3 n=14 v=0
1995164 Off ch=3 n=9 v=0
1995165 On ch=3 n=8 v=100
1995731 On ch=3 n=11 v=100
1995762 Off ch=3 n=8 v=0
1995838 Off ch=3 n=11 v=0
1996311 On ch=3 n=32 v=100
1996311 On ch=3 n=38 v=100
1996426 Off ch=3 n=32 v=0
1996464 On ch=3 n=26 v=100
1996464 Off ch=3 n=38 v=0
1996573 On ch=3 n=48 v=100
1996573 On ch=3 n=48 v=100
1996614 On ch=3 n=29 v=100
1996620 Off ch=3 n=26 v=0
1996643 On ch=3 n=40 v=100
1996643 On ch=3 n=23 v=100
1996754 Off ch=3 n=29 v=0
1996756 Off ch=3 n=23 v=0
1996895 Off ch=3 n=48 v=0
1996895 Off ch=3 n=48 v=0
1996907 Off ch=3 n=40 v=0
1998036 On ch=3 n=22 v=100
1998108 Off ch=3 n=22 v=0
1998237 On ch=3 n=6 v=100
1998560 Off ch=3 n=6 v=0
1999120 On ch=3 n=0 v=100
1999272 Off ch=3 n=0 v=0
2000094 On ch=3 n=6 v=100
2000390 Off ch=3 n=6 v=0
2000391 On ch=3 n=13 v=100
2000431 Off ch=3 n=13 v=0
2000932 On ch=3 n=46 v=100
2001036 On ch=3 n=7 v=100
2001109 Off ch=3 n=46 v=0
2001192 Off ch=3 n=7 v=0
2007002 On ch=3 n=8 v=100
2008801 Off ch=3 n=8 v=0
2008821 On ch=3 n=6 v=100
2009023 Off ch=3 n=6 v=0
2009025 On ch=3 n=9 v=100
2009775 Off ch=3 n=9 v=0
2015732 On ch=3 n=3 v=100
2016880 Off ch=3 n=3 v=0
2017169 On ch=3 n=8 v=100
2017325 Off ch=3 n=8 v=0
2017935 On ch=3 n=18 v=100
2017976 Off ch=3 n=18 v=0
2017977 On ch=3 n=8 v=100
2018306 Off ch=3 n=8 v=0
2020793 On ch=3 n=7 v=100
2020975 Off ch=3 n=7 v=0
2020977 On ch=3 n=6 v=100
2022600 On ch=3 n=12 v=100
2022782 Off ch=3 n=6 v=0
2022783 On ch=3 n=6 v=100
2022820 Off ch=3 n=12 v=0
2023052 Off ch=3 n=6 v=0
2023422 On ch=3 n=4 v=100
2023846 Off ch=3 n=4 v=0
2030483 On ch=3 n=5 v=100
2030618 On ch=3 n=29 v=100
2030784 Off ch=3 n=5 v=0
2030816 Off ch=3 n=29 v=0
2031763 On ch=3 n=9 v=100
2032553 On ch=3 n=29 v=100
2032625 On ch=3 n=13 v=100
2032625 On ch=3 n=27 v=100
2032626 On ch=3 n=26 v=100
2032634 Off ch=3 n=9 v=0
2032654 Off ch=3 n=29 v=0
2032655 Off ch=3 n=13 v=0
2032661 Off ch=3 n=26 v=0
2032668 Off ch=3 n=27 v=0
2035365 On ch=3 n=37 v=100
2035397 On ch=3 n=1 v=100
2035457 Off ch=3 n=37 v=0
2036510 Off ch=3 n=1 v=0
2039264 On ch=3 n=3 v=100
2039938 Off ch=3 n=3 v=0
2039941 On ch=3 n=3 v=100
2042372 Off ch=3 n=3 v=0
2049091 On ch=3 n=1 v=100
2051226 Off ch=3 n=1 v=0
2051940 On ch=3 n=6 v=100
2052139 On ch=3 n=5 v=100
2052139 Off ch=3 n=6 v=0
2052447 Off ch=3 n=5 v=0
2052485 On ch=3 n=5 v=100
2054479 On ch=3 n=30 v=100
2054505 Off ch=3 n=5 v=0
2054508 On ch=3 n=3 v=100
2054575 Off ch=3 n=30 v=0
2055011 On ch=3 n=23 v=100
2055061 Off ch=3 n=3 v=0
2055074 Off ch=3 n=23 v=0
2055091 On ch=3 n=4 v=100
2055316 Off ch=3 n=4 v=0
2055325 On ch=3 n=3 v=100
2056833 On ch=3 n=9 v=100
2056839 Off ch=3 n=3 v=0
2056867 On ch=3 n=2 v=100
2057104 Off ch=3 n=9 v=0
2057104 Off ch=3 n=2 v=0
2060576 On ch=3 n=18 v=100
2060623 Off ch=3 n=18 v=0
2061312 On ch=3 n=21 v=100
2061401 Off ch=3 n=21 v=0
2062064 On ch=3 n=11 v=100
2062547 On ch=3 n=3 v=100
2062548 Off ch=3 n=11 v=0
2062858 Off ch=3 n=3 v=0
2062860 On ch=3 n=12 v=100
2062938 On ch=3 n=16 v=100
2062980 On ch=3 n=12 v=100
2062982 Off ch=3 n=12 v=0
2063220 Off ch=3 n=16 v=0
2063220 Off ch=3 n=12 v=0
2063623 On ch=3 n=16 v=100
2063679 On ch=3 n=9 v=100
2063682 Off ch=3 n=16 v=0
2063797 On ch=3 n=5 v=100
2063798 Off ch=3 n=9 v=0
2065392 On ch=3 n=14 v=100
2065398 Off ch=3 n=5 v=0
2065640 Off ch=3 n=14 v=0
2065987 On ch=3 n=28 v=100
2066107 Off ch=3 n=28 v=0
2066119 On ch=3 n=24 v=100
2066182 On ch=3 n=61 v=100
2066308 Off ch=3 n=24 v=0
2066322 On ch=3 n=23 v=100
2066406 Off ch=3 n=61 v=0
2066421 Off ch=3 n=23 v=0
2066564 On ch=3 n=23 v=100
2066612 On ch=3 n=30 v=100
2066671 On ch=3 n=53 v=100
2066671 Off ch=3 n=23 v=0
2066677 On ch=3 n=12 v=100
2066870 Off ch=3 n=12 v=0
2066879 On ch=3 n=8 v=100
2066901 Off ch=3 n=30 v=0
2067137 Off ch=3 n=53 v=0
2067900 On ch=3 n=28 v=100
2067903 Off ch=3 n=8 v=0
2068064 Off ch=3 n=28 v=0
2069106 On ch=3 n=16 v=100
2069158 Off ch=3 n=16 v=0
2069851 On ch=3 n=23 v=100
2069866 On ch=3 n=33 v=100
2069892 On ch=3 n=2 v=100
2069947 Off ch=3 n=23 v=0
2069982 Off ch=3 n=33 v=0
2072383 Off ch=3 n=2 v=0
2073733 On ch=3 n=28 v=100
2073781 Off ch=3 n=28 v=0
2074144 On ch=3 n=10 v=100
2074512 On ch=3 n=35 v=100
2074611 Off ch=3 n=10 v=0
2074678 Off ch=3 n=35 v=0
2074724 On ch=3 n=40 v=100
2075095 On ch=3 n=21 v=100
2075319 On ch=3 n=36 v=100
2075334 Off ch=3 n=40 v=0
2075595 Off ch=3 n=21 v=0
2075680 Off ch=3 n=36 v=0
2077361 On ch=3 n=38 v=100
2077514 Off ch=3 n=38 v=0
2077647 On ch=3 n=25 v=100
2077820 Off ch=3 n=25 v=0
2081370 On ch=3 n=20 v=100
2081414 Off ch=3 n=20 v=0
2081903 On ch=3 n=9 v=100
2082175 Off ch=3 n=9 v=0
2082371 On ch=3 n=11 v=100
2082455 On ch=3 n=9 v=100
2082458 Off ch=3 n=11 v=0
2082842 Off ch=3 n=9 v=0
2082845 On ch=3 n=17 v=100
2083096 Off ch=3 n=17 v=0
2083351 On ch=3 n=9 v=100
2083752 On ch=3 n=8 v=100
2083940 Off ch=3 n=9 v=0
2083989 Off ch=3 n=8 v=0
2084016 On ch=3 n=17 v=100
2084017 On ch=3 n=16 v=100
2084105 On ch=3 n=9 v=100
2084195 Off ch=3 n=17 v=0
2084226 Off ch=3 n=16 v=0
2084430 On ch=3 n=6 v=100
2084803 Off ch=3 n=9 v=0
2085093 Off ch=3 n=6 v=0
2085095 On ch=3 n=9 v=100
2085914 Off ch=3 n=9 v=0
2086541 On ch=3 n=12 v=100
2087413 Off ch=3 n=12 v=0
2087414 On ch=3 n=5 v=100
2087684 Off ch=3 n=5 v=0
2088032 On ch=3 n=29 v=100
2088081 On ch=3 n=16 v=100
2088252 Off ch=3 n=29 v=0
2088252 Off ch=3 n=16 v=0
2088339 On ch=3 n=61 v=100
2088339 On ch=3 n=61 v=100
2088393 On ch=3 n=14 v=100
2088482 Off ch=3 n=14 v=0
2088591 Off ch=3 n=61 v=0
2088591 Off ch=3 n=61 v=0
2088689 On ch=3 n=18 v=100
2088818 Off ch=3 n=18 v=0
2094846 On ch=3 n=34 v=100
2094846 On ch=3 n=34 v=100
2095132 Off ch=3 n=34 v=0
2095132 Off ch=3 n=34 v=0
2095738 On ch=3 n=5 v=100
2095738 On ch=3 n=5 v=100
2095898 On ch=3 n=28 v=100
2095937 On ch=3 n=5 v=100
2095937 On ch=3 n=5 v=100
2095944 Off ch=3 n=5 v=0
2095944 Off ch=3 n=5 v=0
2096236 Off ch=3 n=28 v=0
2096286 On ch=3 n=6 v=100
2096289 Off ch=3 n=5 v=0
2096289 Off ch=3 n=5 v=0
2096620 Off ch=3 n=6 v=0
2097657 On ch=3 n=17 v=100
2097991 Off ch=3 n=17 v=0
2098687 On ch=3 n=8 v=100
2099426 Off ch=3 n=8 v=0
2100767 On ch=3 n=5 v=100
2100907 Off ch=3 n=5 v=0
2101464 On ch=3 n=5 v=100
2102694 Off ch=3 n=5 v=0
2103185 On ch=3 n=20 v=100
2103431 Off ch=3 n=20 v=0
2103919 On ch=3 n=5 v=100
2104274 Off ch=3 n=5 v=0
2104275 On ch=3 n=5 v=100
2104525 On ch=3 n=21 v=100
2104591 Off ch=3 n=5 v=0
2104596 On ch=3 n=2 v=100
2104618 Off ch=3 n=21 v=0
2104750 On ch=3 n=5 v=100
2104755 Off ch=3 n=2 v=0
2106432 Off ch=3 n=5 v=0
2121063 On ch=3 n=51 v=100
2121234 Off ch=3 n=51 v=0
2121241 On ch=3 n=55 v=100
2121339 Off ch=3 n=55 v=0
2122675 On ch=3 n=22 v=100
2123054 Off ch=3 n=22 v=0
2123174 On ch=3 n=22 v=100
2125968 Off ch=3 n=22 v=0
2126152 On ch=3 n=6 v=100
2126155 On ch=3 n=25 v=100
2126274 Off ch=3 n=6 v=0
2126289 Off ch=3 n=25 v=0
2128811 On ch=3 n=10 v=100
2129102 Off ch=3 n=10 v=0
2129106 On ch=3 n=13 v=100
2129236 Off ch=3 n=13 v=0
2129242 On ch=3 n=46 v=100
2129425 Off ch=3 n=46 v=0
2130554 On ch=3 n=28 v=100
2130590 On ch=3 n=51 v=100
2130681 On ch=3 n=25 v=100
2130685 Off ch=3 n=28 v=0
2130732 On ch=3 n=23 v=100
2130733 Off ch=3 n=51 v=0
2130900 On ch=3 n=11 v=100
2130907 Off ch=3 n=25 v=0
2130966 Off ch=3 n=23 v=0
2131094 On ch=3 n=9 v=100
2131179 Off ch=3 n=11 v=0
2131535 Off ch=3 n=9 v=0
2132187 On ch=3 n=20 v=100
2132278 Off ch=3 n=20 v=0
2132443 On ch=3 n=8 v=100
2132823 On ch=3 n=4 v=100
2132823 Off ch=3 n=8 v=0
2132938 Off ch=3 n=4 v=0
2134996 On ch=3 n=11 v=100
2135063 On ch=3 n=23 v=100
2135076 Off ch=3 n=11 v=0
2135082 On ch=3 n=10 v=100
2135217 Off ch=3 n=23 v=0
2135717 Off ch=3 n=10 v=0
2135773 On ch=3 n=22 v=100
2135863 Off ch=3 n=22 v=0
2135894 On ch=3 n=12 v=100
2136111 On ch=3 n=19 v=100
2136382 Off ch=3 n=12 v=0
2136384 On ch=3 n=3 v=100
2136451 Off ch=3 n=19 v=0
2138828 On ch=3 n=15 v=100
2138845 Off ch=3 n=3 v=0
2138884 On ch=3 n=11 v=100
2139103 Off ch=3 n=15 v=0
2139129 Off ch=3 n=11 v=0
2139257 On ch=3 n=12 v=100
2139334 Off ch=3 n=12 v=0
2139340 On ch=3 n=2 v=100
2140485 Off ch=3 n=2 v=0
2141712 On ch=3 n=12 v=100
2141864 Off ch=3 n=12 v=0
2141944 On ch=3 n=27 v=100
2142026 Off ch=3 n=27 v=0
2142307 On ch=3 n=24 v=100
2142401 Off ch=3 n=24 v=0
2142987 On ch=3 n=43 v=100
2142987 On ch=3 n=43 v=100
2143155 On ch=3 n=42 v=100
2143155 On ch=3 n=42 v=100
2143353 Off ch=3 n=43 v=0
2143353 Off ch=3 n=43 v=0
2143449 Off ch=3 n=42 v=0
2143449 Off ch=3 n=42 v=0
2143512 On ch=3 n=5 v=100
2143577 Off ch=3 n=5 v=0
2143579 On ch=3 n=6 v=100
2144092 On ch=3 n=18 v=100
2144285 Off ch=3 n=6 v=0
2144321 Off ch=3 n=18 v=0
2146796 On ch=3 n=5 v=100
2146902 Off ch=3 n=5 v=0
2146903 On ch=3 n=9 v=100
2147304 On ch=3 n=25 v=100
2147320 Off ch=3 n=9 v=0
2148845 On ch=3 n=26 v=100
2149119 Off ch=3 n=25 v=0
2149176 Off ch=3 n=26 v=0
2149390 On ch=3 n=61 v=100
2149414 On ch=3 n=46 v=100
2149497 Off ch=3 n=46 v=0
2149498 Off ch=3 n=61 v=0
2151691 On ch=3 n=63 v=100
2151779 Off ch=3 n=63 v=0
2151838 On ch=3 n=59 v=100
2151854 On ch=3 n=47 v=100
2151944 Off ch=3 n=47 v=0
2151957 Off ch=3 n=59 v=0
2152304 On ch=3 n=46 v=100
2152633 Off ch=3 n=46 v=0
2154577 On ch=3 n=56 v=100
2154577 On ch=3 n=56 v=100
2154691 Off ch=3 n=56 v=0
2154691 Off ch=3 n=56 v=0
2155810 On ch=3 n=18 v=100
2160532 Off ch=3 n=18 v=0
2160652 On ch=3 n=18 v=100
2161529 Off ch=3 n=18 v=0
2161530 On ch=3 n=18 v=100
2164700 Off ch=3 n=18 v=0
2164764 On ch=3 n=18 v=100
2165285 Off ch=3 n=18 v=0
2167410 On ch=3 n=68 v=100
2167523 Off ch=3 n=68 v=0
2167892 On ch=3 n=69 v=100
2167892 On ch=3 n=69 v=100
2168022 Off ch=3 n=69 v=0
2168022 Off ch=3 n=69 v=0
2168048 On ch=3 n=52 v=100
2168048 On ch=3 n=52 v=100
2168177 Off ch=3 n=52 v=0
2168177 Off ch=3 n=52 v=0
2168366 On ch=3 n=56 v=100
2168493 Off ch=3 n=56 v=0
2168991 On ch=3 n=54 v=100
2169120 Off ch=3 n=54 v=0
2169312 On ch=3 n=61 v=100
2169430 Off ch=3 n=61 v=0
2169467 On ch=3 n=67 v=100
2169595 Off ch=3 n=67 v=0
2169942 On ch=3 n=54 v=100
2170063 Off ch=3 n=54 v=0
2170262 On ch=3 n=66 v=100
2170262 On ch=3 n=66 v=100
2170398 Off ch=3 n=66 v=0
2170398 Off ch=3 n=66 v=0
2174747 On ch=3 n=2 v=100
2174789 Off ch=3 n=2 v=0
2174986 On ch=3 n=9 v=100
2175766 On ch=3 n=36 v=100
2175950 Off ch=3 n=9 v=0
2176003 Off ch=3 n=36 v=0
2176093 On ch=3 n=38 v=100
2176139 Off ch=3 n=38 v=0
2176217 On ch=3 n=38 v=100
2176231 On ch=3 n=10 v=100
2176270 On ch=3 n=9 v=100
2176520 Off ch=3 n=38 v=0
2176522 Off ch=3 n=10 v=0
2176523 On ch=3 n=24 v=100
2176779 Off ch=3 n=9 v=0
2176819 Off ch=3 n=24 v=0
2176924 On ch=3 n=18 v=100
2177119 On ch=3 n=8 v=100
2177126 Off ch=3 n=18 v=0
2177828 Off ch=3 n=8 v=0
2177985 On ch=3 n=6 v=100
2178019 Off ch=3 n=6 v=0
2178072 On ch=3 n=7 v=100
2178663 Off ch=3 n=7 v=0
2179147 On ch=3 n=4 v=100
2179727 On ch=3 n=21 v=100
2179748 Off ch=3 n=4 v=0
2180050 On ch=3 n=27 v=100
2180139 Off ch=3 n=21 v=0
2180157 Off ch=3 n=27 v=0
2181756 On ch=3 n=39 v=100
2182357 Off ch=3 n=39 v=0
2185205 On ch=3 n=10 v=100
2185205 On ch=3 n=20 v=100
2185288 On ch=3 n=9 v=100
2185290 Off ch=3 n=10 v=0
2185303 Off ch=3 n=20 v=0
2185365 Off ch=3 n=9 v=0
2185428 On ch=3 n=13 v=100
2185580 Off ch=3 n=13 v=0
2186581 On ch=3 n=2 v=100
2187155 Off ch=3 n=2 v=0
2187182 On ch=3 n=2 v=100
2187332 Off ch=3 n=2 v=0
2187348 On ch=3 n=18 v=100
2187357 On ch=3 n=9 v=100
2187524 Off ch=3 n=9 v=0
2187570 Off ch=3 n=18 v=0
2198200 On ch=3 n=40 v=100
2198300 Off ch=3 n=40 v=0
2198507 On ch=3 n=20 v=100
2198548 On ch=3 n=26 v=100
2198561 Off ch=3 n=20 v=0
2198608 On ch=3 n=31 v=100
2198622 Off ch=3 n=26 v=0
2198646 On ch=3 n=23 v=100
2198674 On ch=3 n=25 v=100
2198681 Off ch=3 n=31 v=0
2198698 Off ch=3 n=23 v=0
2198742 Off ch=3 n=25 v=0
2198766 On ch=3 n=28 v=100
2198828 On ch=3 n=29 v=100
2198841 Off ch=3 n=28 v=0
2198891 On ch=3 n=32 v=100
2198891 Off ch=3 n=29 v=0
2198961 Off ch=3 n=32 v=0
2198968 On ch=3 n=31 v=100
2199021 Off ch=3 n=31 v=0
2199028 On ch=3 n=28 v=100
2199082 Off ch=3 n=28 v=0
2199088 On ch=3 n=35 v=100
2199140 Off ch=3 n=35 v=0
2199145 On ch=3 n=31 v=100
2199209 On ch=3 n=31 v=100
2199221 Off ch=3 n=31 v=0
2199281 Off ch=3 n=31 v=0
2199288 On ch=3 n=31 v=100
2199328 On ch=3 n=31 v=100
2199341 Off ch=3 n=31 v=0
2199400 Off ch=3 n=31 v=0
2199406 On ch=3 n=27 v=100
2199461 Off ch=3 n=27 v=0
2199468 On ch=3 n=25 v=100
2199521 Off ch=3 n=25 v=0
2199528 On ch=3 n=33 v=100
2199586 On ch=3 n=29 v=100
2199601 Off ch=3 n=33 v=0
2199648 On ch=3 n=28 v=100
2199661 Off ch=3 n=29 v=0
2199718 Off ch=3 n=28 v=0
2199728 On ch=3 n=28 v=100
2199789 On ch=3 n=33 v=100
2199801 Off ch=3 n=28 v=0
2199828 On ch=3 n=31 v=100
2199848 On ch=3 n=31 v=100
2199861 Off ch=3 n=33 v=0
2199868 On ch=3 n=30 v=100
2199900 Off ch=3 n=31 v=0
2199920 Off ch=3 n=31 v=0
2199928 On ch=3 n=35 v=100
2199937 Off ch=3 n=30 v=0
2199986 On ch=3 n=26 v=100
2200001 Off ch=3 n=35 v=0
2200049 On ch=3 n=30 v=100
2200061 Off ch=3 n=26 v=0
2200109 On ch=3 n=32 v=100
2200111 Off ch=3 n=30 v=0
2200150 On ch=3 n=32 v=100
2200161 Off ch=3 n=32 v=0
2200220 Off ch=3 n=32 v=0
2200226 On ch=3 n=31 v=100
2200283 Off ch=3 n=31 v=0
2200288 On ch=3 n=29 v=100
2200340 Off ch=3 n=29 v=0
2200344 On ch=3 n=29 v=100
2200407 On ch=3 n=36 v=100
2200421 Off ch=3 n=29 v=0
2200481 Off ch=3 n=36 v=0
2200486 On ch=3 n=31 v=100
2200548 On ch=3 n=29 v=100
2200561 Off ch=3 n=31 v=0
2200569 On ch=3 n=32 v=100
2200619 Off ch=3 n=29 v=0
2200628 On ch=3 n=31 v=100
2200640 Off ch=3 n=32 v=0
2200648 On ch=3 n=33 v=100
2200700 Off ch=3 n=31 v=0
2200706 On ch=3 n=31 v=100
2200721 Off ch=3 n=33 v=0
2200769 On ch=3 n=31 v=100
2200781 Off ch=3 n=31 v=0
2200840 Off ch=3 n=31 v=0
2200845 On ch=3 n=30 v=100
2200918 Off ch=3 n=30 v=0
2200928 On ch=3 n=29 v=100
2201000 Off ch=3 n=29 v=0
2201006 On ch=3 n=34 v=100
2201073 On ch=3 n=33 v=100
2201080 Off ch=3 n=34 v=0
2201125 On ch=3 n=31 v=100
2201141 Off ch=3 n=33 v=0
2201148 On ch=3 n=31 v=100
2201201 Off ch=3 n=31 v=0
2201208 On ch=3 n=31 v=100
2201220 Off ch=3 n=31 v=0
2201269 On ch=3 n=29 v=100
2201280 Off ch=3 n=31 v=0
2201329 On ch=3 n=29 v=100
2201341 Off ch=3 n=29 v=0
2201388 On ch=3 n=29 v=100
2201401 Off ch=3 n=29 v=0
2201451 Off ch=3 n=29 v=0
2201469 On ch=3 n=32 v=100
2201521 Off ch=3 n=32 v=0
2201528 On ch=3 n=31 v=100
2201581 Off ch=3 n=31 v=0
2201608 On ch=3 n=25 v=100
2201648 On ch=3 n=27 v=100
2201657 Off ch=3 n=25 v=0
2201711 Off ch=3 n=27 v=0
2201715 On ch=3 n=10 v=100
2202931 On ch=3 n=24 v=100
2202931 Off ch=3 n=10 v=0
2204484 On ch=3 n=17 v=100
2204490 On ch=3 n=16 v=100
2204490 Off ch=3 n=24 v=0
2204533 Off ch=3 n=17 v=0
2204545 On ch=3 n=4 v=100
2204551 Off ch=3 n=16 v=0
2205833 Off ch=3 n=4 v=0
2205834 On ch=3 n=5 v=100
2208036 Off ch=3 n=5 v=0
2209079 On ch=3 n=10 v=100
2209079 On ch=3 n=21 v=100
2209162 On ch=3 n=9 v=100
2209164 Off ch=3 n=10 v=0
2209176 Off ch=3 n=21 v=0
2209239 Off ch=3 n=9 v=0
2209302 On ch=3 n=17 v=100
2209482 Off ch=3 n=17 v=0
2209746 On ch=3 n=40 v=100
2209897 Off ch=3 n=40 v=0
2210929 On ch=3 n=16 v=100
2211162 Off ch=3 n=16 v=0
2224779 On ch=3 n=16 v=100
2224806 Off ch=3 n=16 v=0
2224954 On ch=3 n=16 v=100
2224977 Off ch=3 n=16 v=0
2225791 On ch=3 n=28 v=100
2225791 On ch=3 n=33 v=100
2225886 Off ch=3 n=28 v=0
2225903 Off ch=3 n=33 v=0
2226501 On ch=3 n=28 v=100
2226501 On ch=3 n=33 v=100
2226596 Off ch=3 n=28 v=0
2226613 Off ch=3 n=33 v=0
2227208 On ch=3 n=28 v=100
2227215 On ch=3 n=35 v=100
2227306 Off ch=3 n=28 v=0
2227322 Off ch=3 n=35 v=0
2227714 On ch=3 n=9 v=100
2228244 On ch=3 n=23 v=100
2228285 On ch=3 n=12 v=100
2228299 Off ch=3 n=9 v=0
2228491 Off ch=3 n=23 v=0
2228564 Off ch=3 n=12 v=0
2228630 On ch=3 n=12 v=100
2228820 On ch=3 n=13 v=100
2228830 Off ch=3 n=12 v=0
2229551 On ch=3 n=8 v=100
2229552 Off ch=3 n=13 v=0
2230098 Off ch=3 n=8 v=0
2230102 On ch=3 n=14 v=100
2230178 Off ch=3 n=14 v=0
2235177 On ch=3 n=13 v=100
2235337 Off ch=3 n=13 v=0
2236151 On ch=3 n=13 v=100
2236416 On ch=3 n=36 v=100
2236442 Off ch=3 n=13 v=0
2236443 On ch=3 n=8 v=100
2236589 Off ch=3 n=36 v=0
2236697 Off ch=3 n=8 v=0
2236699 On ch=3 n=23 v=100
2236771 Off ch=3 n=23 v=0
2236778 On ch=3 n=27 v=100
2236818 On ch=3 n=27 v=100
2236838 On ch=3 n=27 v=100
2236851 Off ch=3 n=27 v=0
2236878 On ch=3 n=28 v=100
2236891 Off ch=3 n=27 v=0
2236900 On ch=3 n=29 v=100
2236906 Off ch=3 n=27 v=0
2236931 Off ch=3 n=28 v=0
2236959 On ch=3 n=29 v=100
2236971 Off ch=3 n=29 v=0
2236998 On ch=3 n=25 v=100
2237011 Off ch=3 n=29 v=0
2237058 On ch=3 n=27 v=100
2237071 Off ch=3 n=25 v=0
2237119 On ch=3 n=29 v=100
2237131 Off ch=3 n=27 v=0
2237159 On ch=3 n=28 v=100
2237191 Off ch=3 n=29 v=0
2237232 Off ch=3 n=28 v=0
2237240 On ch=3 n=29 v=100
2237311 Off ch=3 n=29 v=0
2237319 On ch=3 n=31 v=100
2237378 On ch=3 n=34 v=100
2237380 Off ch=3 n=31 v=0
2237442 On ch=3 n=11 v=100
2237474 Off ch=3 n=34 v=0
2237517 Off ch=3 n=11 v=0
2237519 On ch=3 n=21 v=100
2237579 On ch=3 n=26 v=100
2237591 Off ch=3 n=21 v=0
2237631 Off ch=3 n=26 v=0
2237638 On ch=3 n=25 v=100
2237698 On ch=3 n=28 v=100
2237711 Off ch=3 n=25 v=0
2237751 Off ch=3 n=28 v=0
2237758 On ch=3 n=25 v=100
2237811 Off ch=3 n=25 v=0
2237820 On ch=3 n=25 v=100
2237876 On ch=3 n=24 v=100
2237891 Off ch=3 n=25 v=0
2237931 Off ch=3 n=24 v=0
2237938 On ch=3 n=28 v=100
2237979 On ch=3 n=29 v=100
2237991 Off ch=3 n=28 v=0
2238051 Off ch=3 n=29 v=0
2238054 On ch=3 n=19 v=100
2238099 Off ch=3 n=19 v=0
2238106 On ch=3 n=29 v=100
2238170 On ch=3 n=26 v=100
2238178 Off ch=3 n=29 v=0
2238239 Off ch=3 n=26 v=0
2238246 On ch=3 n=28 v=100
2238287 On ch=3 n=29 v=100
2238319 Off ch=3 n=28 v=0
2238326 On ch=3 n=23 v=100
2238346 On ch=3 n=23 v=100
2238358 Off ch=3 n=29 v=0
2238367 On ch=3 n=23 v=100
2238379 Off ch=3 n=23 v=0
2238399 Off ch=3 n=23 v=0
2238440 Off ch=3 n=23 v=0
2238448 On ch=3 n=25 v=100
2238519 Off ch=3 n=25 v=0
2238526 On ch=3 n=22 v=100
2238652 Off ch=3 n=22 v=0
2238653 On ch=3 n=5 v=100
2240094 Off ch=3 n=5 v=0
2240095 On ch=3 n=3 v=100
2240656 Off ch=3 n=3 v=0
2240659 On ch=3 n=16 v=100
2240822 On ch=3 n=9 v=100
2241052 Off ch=3 n=16 v=0
2241281 Off ch=3 n=9 v=0
2241562 On ch=3 n=10 v=100
2242023 Off ch=3 n=10 v=0
2242551 On ch=3 n=12 v=100
2242670 On ch=3 n=38 v=100
2242671 On ch=3 n=10 v=100
2242687 Off ch=3 n=12 v=0
2242910 Off ch=3 n=10 v=0
2242979 Off ch=3 n=38 v=0
2244151 On ch=3 n=35 v=100
2244151 On ch=3 n=25 v=100
2244250 On ch=3 n=26 v=100
2244455 Off ch=3 n=25 v=0
2244577 Off ch=3 n=35 v=0
2244579 Off ch=3 n=26 v=0
2244733 On ch=3 n=45 v=100
2244808 Off ch=3 n=45 v=0
2244902 On ch=3 n=45 v=100
2245006 Off ch=3 n=45 v=0
2245036 On ch=3 n=45 v=100
2245075 Off ch=3 n=45 v=0
2245630 On ch=3 n=26 v=100
2245646 Off ch=3 n=26 v=0
2245674 On ch=3 n=26 v=100
2245699 Off ch=3 n=26 v=0
2245832 On ch=3 n=26 v=100
2246079 On ch=3 n=14 v=100
2246134 Off ch=3 n=26 v=0
2246152 Off ch=3 n=14 v=0
2246203 On ch=3 n=14 v=100
2246660 Off ch=3 n=14 v=0
2246702 On ch=3 n=12 v=100
2247693 On ch=3 n=3 v=100
2247777 Off ch=3 n=12 v=0
2247792 Off ch=3 n=3 v=0
2247793 On ch=3 n=6 v=100
2248057 Off ch=3 n=6 v=0
2248062 On ch=3 n=5 v=100
2248393 Off ch=3 n=5 v=0
2248397 On ch=3 n=2 v=100
2249468 Off ch=3 n=2 v=0
2249472 On ch=3 n=7 v=100
2250016 On ch=3 n=23 v=100
2250019 On ch=3 n=18 v=100
2250027 On ch=3 n=9 v=100
2250028 On ch=3 n=24 v=100
2250039 Off ch=3 n=7 v=0
2250048 On ch=3 n=35 v=100
2250087 Off ch=3 n=18 v=0
2250088 On ch=3 n=8 v=100
2250094 Off ch=3 n=9 v=0
2250098 Off ch=3 n=23 v=0
2250102 Off ch=3 n=24 v=0
2250116 Off ch=3 n=35 v=0
2250600 Off ch=3 n=8 v=0
2253343 On ch=3 n=1 v=100
2253829 Off ch=3 n=1 v=0
2253869 On ch=3 n=1 v=100
2254681 On ch=3 n=0 v=100
2254681 Off ch=3 n=1 v=0
2255356 Off ch=3 n=0 v=0
2275152 On ch=3 n=32 v=100
2276184 Off ch=3 n=32 v=0
2276221 On ch=3 n=26 v=100
2276300 Off ch=3 n=26 v=0
2276322 On ch=3 n=31 v=100
2276449 Off ch=3 n=31 v=0
2276784 On ch=3 n=49 v=100
2277199 On ch=3 n=54 v=100
2277369 Off ch=3 n=49 v=0
2277850 On ch=3 n=28 v=100
2277954 Off ch=3 n=54 v=0
2277979 On ch=3 n=38 v=100
2277984 Off ch=3 n=28 v=0
2278141 Off ch=3 n=38 v=0
2278210 On ch=3 n=7 v=100
2278427 On ch=3 n=14 v=100
2278931 Off ch=3 n=7 v=0
2279008 Off ch=3 n=14 v=0
2279022 On ch=3 n=2 v=100
2279062 Off ch=3 n=2 v=0
2279084 On ch=3 n=12 v=100
2279207 Off ch=3 n=12 v=0
2279489 On ch=3 n=30 v=100
2279598 On ch=3 n=16 v=100
2279836 Off ch=3 n=30 v=0
2280231 Off ch=3 n=16 v=0
2280296 On ch=3 n=38 v=100
2280326 On ch=3 n=29 v=100
2280575 Off ch=3 n=38 v=0
2280579 Off ch=3 n=29 v=0
2280674 On ch=3 n=23 v=100
2280843 On ch=3 n=15 v=100
2280853 Off ch=3 n=23 v=0
2281379 Off ch=3 n=15 v=0
2281381 On ch=3 n=18 v=100
2282931 On ch=3 n=30 v=100
2282976 On ch=3 n=26 v=100
2282977 Off ch=3 n=18 v=0
2283095 Off ch=3 n=30 v=0
2283234 Off ch=3 n=26 v=0
2287181 On ch=3 n=5 v=100
2287272 On ch=3 n=26 v=100
2287274 Off ch=3 n=5 v=0
2287454 On ch=3 n=10 v=100
2287596 Off ch=3 n=26 v=0
2288726 Off ch=3 n=10 v=0
2289962 On ch=3 n=47 v=100
2290296 On ch=3 n=27 v=100
2290304 Off ch=3 n=47 v=0
2290336 On ch=3 n=14 v=100
2290600 On ch=3 n=15 v=100
2290633 Off ch=3 n=27 v=0
2290636 Off ch=3 n=14 v=0
2290642 Off ch=3 n=15 v=0
2291119 On ch=3 n=36 v=100
2291296 Off ch=3 n=36 v=0
2292421 On ch=3 n=57 v=100
2292704 On ch=3 n=56 v=100
2292999 Off ch=3 n=57 v=0
2294017 Off ch=3 n=56 v=0
2294376 On ch=3 n=36 v=100
2294466 Off ch=3 n=36 v=0
2294508 On ch=3 n=36 v=100
2294508 On ch=3 n=56 v=100
2294508 On ch=3 n=42 v=100
2294525 Off ch=3 n=42 v=0
2294550 Off ch=3 n=36 v=0
2294580 Off ch=3 n=56 v=0
2297230 On ch=3 n=2 v=100
2299382 Off ch=3 n=2 v=0
2299399 On ch=3 n=14 v=100
2299478 Off ch=3 n=14 v=0
2299489 On ch=3 n=7 v=100
2299655 Off ch=3 n=7 v=0
2300028 On ch=3 n=10 v=100
2300582 Off ch=3 n=10 v=0
2300871 On ch=3 n=21 v=100
2300965 On ch=3 n=15 v=100
2300965 On ch=3 n=15 v=100
2300975 Off ch=3 n=21 v=0
2300978 On ch=3 n=10 v=100
2301412 Off ch=3 n=10 v=0
2301414 On ch=3 n=19 v=100
2301464 Off ch=3 n=15 v=0
2301464 Off ch=3 n=15 v=0
2301513 On ch=3 n=9 v=100
2301534 Off ch=3 n=19 v=0
2302388 On ch=3 n=7 v=100
2302403 Off ch=3 n=9 v=0
2302504 Off ch=3 n=7 v=0
2302506 On ch=3 n=8 v=100
2302789 On ch=3 n=8 v=100
2302808 Off ch=3 n=8 v=0
2302897 Off ch=3 n=8 v=0
2303159 On ch=3 n=24 v=100
2303239 On ch=3 n=52 v=100
2303299 On ch=3 n=30 v=100
2303311 Off ch=3 n=24 v=0
2303312 On ch=3 n=45 v=100
2303312 On ch=3 n=45 v=100
2303330 On ch=3 n=24 v=100
2303450 Off ch=3 n=52 v=0
2303552 Off ch=3 n=24 v=0
2303556 Off ch=3 n=30 v=0
2303619 Off ch=3 n=45 v=0
2303619 Off ch=3 n=45 v=0
2304772 On ch=3 n=26 v=100
2304784 On ch=3 n=19 v=100
2304828 Off ch=3 n=26 v=0
2304857 Off ch=3 n=19 v=0
2304985 On ch=3 n=7 v=100
2305308 Off ch=3 n=7 v=0
2306279 On ch=3 n=13 v=100
2306452 Off ch=3 n=13 v=0
2306747 On ch=3 n=9 v=100
2306987 Off ch=3 n=9 v=0
2307047 On ch=3 n=52 v=100
2307047 On ch=3 n=52 v=100
2307060 On ch=3 n=12 v=100
2307104 On ch=3 n=24 v=100
2307125 On ch=3 n=17 v=100
2307254 Off ch=3 n=12 v=0
2307286 Off ch=3 n=52 v=0
2307286 Off ch=3 n=52 v=0
2307287 Off ch=3 n=24 v=0
2307287 Off ch=3 n=17 v=0
2321764 On ch=3 n=1 v=100
2323262 Off ch=3 n=1 v=0
2323842 On ch=3 n=2 v=100
2327631 On ch=3 n=46 v=100
2328096 Off ch=3 n=2 v=0
2328217 On ch=3 n=1 v=100
2329063 Off ch=3 n=1 v=0
2329073 Off ch=3 n=46 v=0
2335230 On ch=3 n=45 v=100
2335311 Off ch=3 n=45 v=0
2337724 On ch=3 n=7 v=100
2337879 Off ch=3 n=7 v=0
2338495 On ch=3 n=18 v=100
2338536 Off ch=3 n=18 v=0
2338537 On ch=3 n=7 v=100
2338866 Off ch=3 n=7 v=0
2348392 On ch=3 n=3 v=100
2349582 On ch=3 n=38 v=100
2349641 Off ch=3 n=3 v=0
2349696 Off ch=3 n=38 v=0
2350143 On ch=3 n=7 v=100
2350989 On ch=3 n=17 v=100
2350990 On ch=3 n=38 v=100
2350999 Off ch=3 n=7 v=0
2351019 Off ch=3 n=17 v=0
2351078 Off ch=3 n=38 v=0
2352764 On ch=3 n=15 v=100
2352799 Off ch=3 n=15 v=0
2352800 On ch=3 n=17 v=100
2353079 Off ch=3 n=17 v=0
2353828 On ch=3 n=7 v=100
2354178 On ch=3 n=13 v=100
2354178 Off ch=3 n=7 v=0
2354265 Off ch=3 n=13 v=0
2354461 On ch=3 n=14 v=100
2354545 Off ch=3 n=14 v=0
2354730 On ch=3 n=20 v=100
2354773 On ch=3 n=3 v=100
2354823 Off ch=3 n=3 v=0
2354825 Off ch=3 n=20 v=0
2354890 On ch=3 n=10 v=100
2354920 On ch=3 n=60 v=100
2355324 On ch=3 n=7 v=100
2355372 Off ch=3 n=10 v=0
2355471 On ch=3 n=20 v=100
2355522 Off ch=3 n=60 v=0
2355613 Off ch=3 n=7 v=0
2355622 On ch=3 n=7 v=100
2356011 Off ch=3 n=20 v=0
2356016 Off ch=3 n=7 v=0
2356026 On ch=3 n=9 v=100
2356169 Off ch=3 n=9 v=0
2356172 On ch=3 n=16 v=100
2356356 Off ch=3 n=16 v=0
2356365 On ch=3 n=8 v=100
2356439 Off ch=3 n=8 v=0
2356443 On ch=3 n=14 v=100
2356453 On ch=3 n=18 v=100
2356636 On ch=3 n=40 v=100
2356700 Off ch=3 n=14 v=0
2356715 On ch=3 n=8 v=100
2356726 On ch=3 n=6 v=100
2356748 Off ch=3 n=18 v=0
2356994 Off ch=3 n=40 v=0
2356998 On ch=3 n=12 v=100
2357013 Off ch=3 n=8 v=0
2357054 Off ch=3 n=6 v=0
2357319 Off ch=3 n=12 v=0
2357627 On ch=3 n=20 v=100
2357832 Off ch=3 n=20 v=0
2358209 On ch=3 n=48 v=100
2358214 On ch=3 n=25 v=100
2358256 On ch=3 n=48 v=100
2358256 On ch=3 n=48 v=100
2358291 Off ch=3 n=25 v=0
2358376 On ch=3 n=17 v=100
2358377 Off ch=3 n=48 v=0
2358603 Off ch=3 n=17 v=0
2358654 On ch=3 n=19 v=100
2358706 On ch=3 n=13 v=100
2358741 On ch=3 n=17 v=100
2358875 Off ch=3 n=48 v=0
2358875 Off ch=3 n=48 v=0
2359062 Off ch=3 n=19 v=0
2359072 Off ch=3 n=13 v=0
2359085 On ch=3 n=8 v=100
2359127 Off ch=3 n=17 v=0
2359290 On ch=3 n=10 v=100
2359337 Off ch=3 n=8 v=0
2359716 Off ch=3 n=10 v=0
2359720 On ch=3 n=15 v=100
2359896 Off ch=3 n=15 v=0
2360131 On ch=3 n=9 v=100
2360341 Off ch=3 n=9 v=0
2360345 On ch=3 n=14 v=100
2360521 Off ch=3 n=14 v=0
2360565 On ch=3 n=6 v=100
2360568 On ch=3 n=14 v=100
2360758 On ch=3 n=39 v=100
2360843 Off ch=3 n=6 v=0
2360847 Off ch=3 n=14 v=0
2360847 Off ch=3 n=39 v=0
2361052 On ch=3 n=14 v=100
2361052 On ch=3 n=39 v=100
2361116 Off ch=3 n=14 v=0
2361167 Off ch=3 n=39 v=0
2362171 On ch=3 n=23 v=100
2362259 Off ch=3 n=23 v=0
2363663 On ch=3 n=24 v=100
2363762 Off ch=3 n=24 v=0
2363768 On ch=3 n=9 v=100
2364394 On ch=3 n=37 v=100
2364448 Off ch=3 n=9 v=0
2364460 Off ch=3 n=37 v=0
2364524 On ch=3 n=30 v=100
2364587 Off ch=3 n=30 v=0
2364722 On ch=3 n=18 v=100
2364811 On ch=3 n=26 v=100
2364825 Off ch=3 n=18 v=0
2364873 Off ch=3 n=26 v=0
2364878 On ch=3 n=9 v=100
2365331 Off ch=3 n=9 v=0
2366986 On ch=3 n=13 v=100
2367361 Off ch=3 n=13 v=0
2367827 On ch=3 n=29 v=100
2367844 On ch=3 n=19 v=100
2367974 Off ch=3 n=29 v=0
2368140 Off ch=3 n=19 v=0
2368430 On ch=3 n=29 v=100
2368611 Off ch=3 n=29 v=0
2369664 On ch=3 n=14 v=100
2369708 Off ch=3 n=14 v=0
2369710 On ch=3 n=1 v=100
2371880 Off ch=3 n=1 v=0
2372465 On ch=3 n=2 v=100
2374157 Off ch=3 n=2 v=0
2374259 On ch=3 n=1 v=100
2374522 Off ch=3 n=1 v=0
2375076 On ch=3 n=16 v=100
2375136 On ch=3 n=31 v=100
2375312 Off ch=3 n=16 v=0
2375493 On ch=3 n=34 v=100
2375517 Off ch=3 n=31 v=0
2375874 Off ch=3 n=34 v=0
2376646 On ch=3 n=44 v=100
2376707 On ch=3 n=38 v=100
2376767 Off ch=3 n=44 v=0
2376792 Off ch=3 n=38 v=0
2377017 On ch=3 n=14 v=100
2377421 On ch=3 n=33 v=100
2377421 On ch=3 n=33 v=100
2377503 Off ch=3 n=14 v=0
2377638 Off ch=3 n=33 v=0
2377638 Off ch=3 n=33 v=0
2378217 On ch=3 n=35 v=100
2378218 On ch=3 n=46 v=100
2378305 Off ch=3 n=35 v=0
2378337 Off ch=3 n=46 v=0
2386118 On ch=3 n=37 v=100
2386188 On ch=3 n=48 v=100
2386258 Off ch=3 n=37 v=0
2386549 Off ch=3 n=48 v=0
2388929 On ch=3 n=47 v=100
2389290 Off ch=3 n=47 v=0
2396110 On ch=3 n=6 v=100
2396862 On ch=3 n=6 v=100
2396862 Off ch=3 n=6 v=0
2397193 On ch=3 n=29 v=100
2397290 Off ch=3 n=6 v=0
2397330 Off ch=3 n=29 v=0
2397754 On ch=3 n=4 v=100
2398546 Off ch=3 n=4 v=0
2398621 On ch=3 n=4 v=100
2398905 Off ch=3 n=4 v=0
2399002 On ch=3 n=32 v=100
2399041 On ch=3 n=8 v=100
2399176 Off ch=3 n=32 v=0
2399176 Off ch=3 n=8 v=0
2401809 On ch=3 n=55 v=100
2401825 On ch=3 n=32 v=100
2401838 On ch=3 n=36 v=100
2401853 On ch=3 n=21 v=100
2401859 On ch=3 n=14 v=100
2401860 On ch=3 n=26 v=100
2401877 On ch=3 n=41 v=100
2401932 Off ch=3 n=14 v=0
2401937 Off ch=3 n=21 v=0
2401943 Off ch=3 n=36 v=0
2401945 Off ch=3 n=55 v=0
2401970 Off ch=3 n=26 v=0
2401971 Off ch=3 n=32 v=0
2402032 Off ch=3 n=41 v=0
2403256 On ch=3 n=18 v=100
2403297 Off ch=3 n=18 v=0
2404542 On ch=3 n=12 v=100
2404620 Off ch=3 n=12 v=0
2404631 On ch=3 n=11 v=100
2404831 On ch=3 n=17 v=100
2404831 Off ch=3 n=11 v=0
2405080 On ch=3 n=18 v=100
2405086 Off ch=3 n=17 v=0
2405122 Off ch=3 n=18 v=0
2405180 On ch=3 n=6 v=100
2406315 Off ch=3 n=6 v=0
2407030 On ch=3 n=8 v=100
2407394 Off ch=3 n=8 v=0
2407430 On ch=3 n=8 v=100
2408020 On ch=3 n=20 v=100
2408033 On ch=3 n=23 v=100
2408036 Off ch=3 n=8 v=0
2408105 Off ch=3 n=23 v=0
2408107 Off ch=3 n=20 v=0
2408109 On ch=3 n=1 v=100
2411925 Off ch=3 n=1 v=0
2417136 On ch=3 n=2 v=100
2419520 Off ch=3 n=2 v=0
2419571 On ch=3 n=6 v=100
2419644 Off ch=3 n=6 v=0
2424752 On ch=3 n=11 v=100
2424921 On ch=3 n=45 v=100
2424975 On ch=3 n=7 v=100
2424976 Off ch=3 n=11 v=0
2425027 Off ch=3 n=45 v=0
2425609 On ch=3 n=13 v=100
2425619 Off ch=3 n=7 v=0
2425864 On ch=3 n=6 v=100
2425902 Off ch=3 n=13 v=0
2426280 On ch=3 n=28 v=100
2426314 On ch=3 n=13 v=100
2426320 Off ch=3 n=6 v=0
2426553 Off ch=3 n=28 v=0
2426555 Off ch=3 n=13 v=0
2426559 On ch=3 n=20 v=100
2426747 Off ch=3 n=20 v=0
2426921 On ch=3 n=37 v=100
2427035 On ch=3 n=24 v=100
2427278 Off ch=3 n=24 v=0
2427291 Off ch=3 n=37 v=0
2429029 On ch=3 n=4 v=100
2429853 On ch=3 n=11 v=100
2429855 Off ch=3 n=4 v=0
2429919 Off ch=3 n=11 v=0
2430333 On ch=3 n=20 v=100
2430360 Off ch=3 n=20 v=0
2430420 On ch=3 n=20 v=100
2430469 On ch=3 n=23 v=100
2430470 On ch=3 n=12 v=100
2430744 Off ch=3 n=12 v=0
2430745 Off ch=3 n=20 v=0
2430843 Off ch=3 n=23 v=0
2433005 On ch=3 n=29 v=100
2433024 On ch=3 n=9 v=100
2433171 Off ch=3 n=29 v=0
2433692 Off ch=3 n=9 v=0
2433991 On ch=3 n=16 v=100
2434080 On ch=3 n=23 v=100
2434080 On ch=3 n=23 v=100
2434095 Off ch=3 n=16 v=0
2434096 On ch=3 n=11 v=100
2434513 Off ch=3 n=11 v=0
2434590 On ch=3 n=5 v=100
2434620 Off ch=3 n=23 v=0
2434620 Off ch=3 n=23 v=0
2436243 On ch=3 n=15 v=100
2436245 Off ch=3 n=5 v=0
2436334 On ch=3 n=9 v=100
2436348 Off ch=3 n=15 v=0
2436984 Off ch=3 n=9 v=0
2437109 On ch=3 n=3 v=100
2437224 Off ch=3 n=3 v=0
2437284 On ch=3 n=10 v=100
2437291 On ch=3 n=10 v=100
2437455 Off ch=3 n=10 v=0
2437464 On ch=3 n=4 v=100
2437473 Off ch=3 n=10 v=0
2438282 On ch=3 n=20 v=100
2438285 Off ch=3 n=4 v=0
2438287 On ch=3 n=46 v=100
2438403 On ch=3 n=9 v=100
2438453 Off ch=3 n=20 v=0
2438614 Off ch=3 n=46 v=0
2438663 On ch=3 n=14 v=100
2438693 Off ch=3 n=9 v=0
2438698 On ch=3 n=3 v=100
2438957 Off ch=3 n=14 v=0
2439406 On ch=3 n=24 v=100
2439496 On ch=3 n=20 v=100
2439583 On ch=3 n=10 v=100
2439588 Off ch=3 n=3 v=0
2439858 Off ch=3 n=24 v=0
2439928 On ch=3 n=2 v=100
2439939 Off ch=3 n=10 v=0
2439960 Off ch=3 n=20 v=0
2440573 On ch=3 n=56 v=100
2440618 On ch=3 n=40 v=100
2440681 On ch=3 n=40 v=100
2440681 On ch=3 n=40 v=100
2440689 Off ch=3 n=2 v=0
2440746 Off ch=3 n=56 v=0
2440751 Off ch=3 n=40 v=0
2440758 On ch=3 n=7 v=100
2440931 Off ch=3 n=7 v=0
2440959 Off ch=3 n=40 v=0
2440959 Off ch=3 n=40 v=0
2441032 On ch=3 n=40 v=100
2441110 On ch=3 n=23 v=100
2441244 Off ch=3 n=40 v=0
2441248 On ch=3 n=7 v=100
2441526 Off ch=3 n=23 v=0
2442106 Off ch=3 n=7 v=0
2442461 On ch=3 n=20 v=100
2442603 Off ch=3 n=20 v=0
2444307 On ch=3 n=35 v=100
2444326 On ch=3 n=9 v=100
2444482 Off ch=3 n=35 v=0
2444851 Off ch=3 n=9 v=0
2445057 On ch=3 n=20 v=100
2445242 Off ch=3 n=20 v=0
2445841 On ch=3 n=2 v=100
2445936 Off ch=3 n=2 v=0
2445939 On ch=3 n=26 v=100
2446027 Off ch=3 n=26 v=0
2446902 On ch=3 n=14 v=100
2446944 On ch=3 n=13 v=100
2446946 On ch=3 n=17 v=100
2446955 Off ch=3 n=14 v=0
2447312 Off ch=3 n=13 v=0
2447383 On ch=3 n=7 v=100
2447386 Off ch=3 n=17 v=0
2448013 Off ch=3 n=7 v=0
2448017 On ch=3 n=13 v=100
2448235 Off ch=3 n=13 v=0
2449247 On ch=3 n=20 v=100
2449320 Off ch=3 n=20 v=0
2450633 On ch=3 n=8 v=100
2451293 On ch=3 n=16 v=100
2451293 Off ch=3 n=8 v=0
2451300 On ch=3 n=21 v=100
2451586 Off ch=3 n=16 v=0
2451624 Off ch=3 n=21 v=0
2451769 On ch=3 n=11 v=100
2452265 Off ch=3 n=11 v=0
2452568 On ch=3 n=24 v=100
2452651 On ch=3 n=8 v=100
2452893 Off ch=3 n=24 v=0
2452893 Off ch=3 n=8 v=0
2453047 On ch=3 n=6 v=100
2453555 Off ch=3 n=6 v=0
2454136 On ch=3 n=32 v=100
2454136 On ch=3 n=32 v=100
2454215 Off ch=3 n=32 v=0
2454272 Off ch=3 n=32 v=0
2454606 On ch=3 n=16 v=100
2454672 On ch=3 n=12 v=100
2454886 Off ch=3 n=16 v=0
2455175 Off ch=3 n=12 v=0
2456500 On ch=3 n=23 v=100
2456543 Off ch=3 n=23 v=0
2456871 On ch=3 n=28 v=100
2456958 Off ch=3 n=28 v=0
2457437 On ch=3 n=44 v=100
2457438 On ch=3 n=38 v=100
2457566 Off ch=3 n=38 v=0
2457592 Off ch=3 n=44 v=0
2457766 On ch=3 n=8 v=100
2458468 Off ch=3 n=8 v=0
2459393 On ch=3 n=1 v=100
2460284 Off ch=3 n=1 v=0
2461208 On ch=3 n=42 v=100
2461230 On ch=3 n=5 v=100
2461259 Off ch=3 n=42 v=0
2461726 On ch=3 n=27 v=100
2461759 On ch=3 n=55 v=100
2461773 Off ch=3 n=5 v=0
2461781 Off ch=3 n=27 v=0
2461894 Off ch=3 n=55 v=0
2461907 On ch=3 n=10 v=100
2462160 Off ch=3 n=10 v=0
2462166 On ch=3 n=2 v=100
2462244 Off ch=3 n=2 v=0
2462248 On ch=3 n=5 v=100
2462384 Off ch=3 n=5 v=0
2462408 On ch=3 n=7 v=100
2462964 Off ch=3 n=7 v=0
2462977 On ch=3 n=26 v=100
2463263 Off ch=3 n=26 v=0
2463564 On ch=3 n=17 v=100
2463629 On ch=3 n=13 v=100
2463651 Off ch=3 n=17 v=0
2463962 Off ch=3 n=13 v=0
2468324 On ch=3 n=21 v=100
2468438 Off ch=3 n=21 v=0
2468501 On ch=3 n=7 v=100
2470182 Off ch=3 n=7 v=0
2470190 On ch=3 n=8 v=100
2470376 On ch=3 n=26 v=100
2470417 Off ch=3 n=8 v=0
2470471 On ch=3 n=9 v=100
2470629 Off ch=3 n=26 v=0
2470629 Off ch=3 n=9 v=0
2470632 On ch=3 n=9 v=100
2471224 Off ch=3 n=9 v=0
2474156 On ch=3 n=50 v=100
2474238 Off ch=3 n=50 v=0
2475921 On ch=3 n=59 v=100
2475921 On ch=3 n=51 v=100
2475998 Off ch=3 n=59 v=0
2476010 Off ch=3 n=51 v=0
2478787 On ch=3 n=56 v=100
2478797 On ch=3 n=54 v=100
2478858 Off ch=3 n=56 v=0
2478904 Off ch=3 n=54 v=0
2480252 On ch=3 n=26 v=100
2480631 Off ch=3 n=26 v=0
2480771 On ch=3 n=26 v=100
2482699 On ch=3 n=8 v=100
2482706 Off ch=3 n=26 v=0
2482994 On ch=3 n=4 v=100
2482996 Off ch=3 n=8 v=0
2483060 On ch=3 n=2 v=100
2483060 Off ch=3 n=4 v=0
2485527 On ch=3 n=6 v=100
2485531 Off ch=3 n=2 v=0
2485830 On ch=3 n=47 v=100
2486026 Off ch=3 n=6 v=0
2486028 On ch=3 n=3 v=100
2486590 Off ch=3 n=47 v=0
2488368 On ch=3 n=56 v=100
2488481 On ch=3 n=9 v=100
2488499 Off ch=3 n=3 v=0
2488579 Off ch=3 n=56 v=0
2488787 On ch=3 n=81 v=100
2488868 Off ch=3 n=9 v=0
2488920 Off ch=3 n=81 v=0
2494479 On ch=3 n=11 v=100
2494739 Off ch=3 n=11 v=0
2494822 On ch=3 n=11 v=100
2495381 Off ch=3 n=11 v=0
2495414 On ch=3 n=11 v=100
2495834 Off ch=3 n=11 v=0
2495936 On ch=3 n=11 v=100
2496978 Off ch=3 n=11 v=0
2503778 On ch=3 n=28 v=100
2504038 Off ch=3 n=28 v=0
2504625 On ch=3 n=40 v=100
2504859 Off ch=3 n=40 v=0
2504945 On ch=3 n=26 v=100
2504948 On ch=3 n=36 v=100
2505069 On ch=3 n=25 v=100
2505274 Off ch=3 n=26 v=0
2505373 Off ch=3 n=36 v=0
2505373 Off ch=3 n=25 v=0
2506354 On ch=3 n=27 v=100
2506373 On ch=3 n=36 v=100
2506373 On ch=3 n=36 v=100
2506459 Off ch=3 n=36 v=0
2506486 Off ch=3 n=27 v=0
2506501 Off ch=3 n=36 v=0
2506672 On ch=3 n=18 v=100
2506681 On ch=3 n=14 v=100
2506681 On ch=3 n=14 v=100
2506753 On ch=3 n=8 v=100
2506753 On ch=3 n=8 v=100
2506759 Off ch=3 n=14 v=0
2506759 Off ch=3 n=14 v=0
2506769 Off ch=3 n=18 v=0
2506773 On ch=3 n=35 v=100
2506838 On ch=3 n=35 v=100
2506855 On ch=3 n=31 v=100
2506856 On ch=3 n=6 v=100
2506856 On ch=3 n=6 v=100
2506858 Off ch=3 n=8 v=0
2506858 Off ch=3 n=8 v=0
2506955 Off ch=3 n=35 v=0
2506997 Off ch=3 n=35 v=0
2507009 Off ch=3 n=6 v=0
2507009 Off ch=3 n=6 v=0
2507041 Off ch=3 n=31 v=0
2507047 On ch=3 n=5 v=100
2507200 Off ch=3 n=5 v=0
2507201 On ch=3 n=5 v=100
2507377 Off ch=3 n=5 v=0
2507485 On ch=3 n=6 v=100
2507758 On ch=3 n=14 v=100
2507830 Off ch=3 n=6 v=0
2507840 Off ch=3 n=14 v=0
2507861 On ch=3 n=31 v=100
2507882 On ch=3 n=33 v=100
2507882 On ch=3 n=29 v=100
2507964 Off ch=3 n=33 v=0
2507976 Off ch=3 n=31 v=0
2507996 Off ch=3 n=29 v=0
2508165 On ch=3 n=11 v=100
2508179 On ch=3 n=19 v=100
2508390 On ch=3 n=13 v=100
2508392 On ch=3 n=12 v=100
2508395 Off ch=3 n=11 v=0
2508477 Off ch=3 n=19 v=0
2508972 Off ch=3 n=13 v=0
2508974 On ch=3 n=14 v=100
2509292 Off ch=3 n=12 v=0
2509393 On ch=3 n=29 v=100
2509403 Off ch=3 n=14 v=0
2509451 On ch=3 n=29 v=100
2509464 Off ch=3 n=29 v=0
2509503 Off ch=3 n=29 v=0
2512113 On ch=3 n=34 v=100
2512166 Off ch=3 n=34 v=0
2512193 On ch=3 n=31 v=100
2512233 On ch=3 n=33 v=100
2512265 Off ch=3 n=31 v=0
2512281 On ch=3 n=31 v=100
2512306 Off ch=3 n=33 v=0
2512315 On ch=3 n=39 v=100
2512338 Off ch=3 n=31 v=0
2512353 On ch=3 n=34 v=100
2512385 Off ch=3 n=39 v=0
2512404 On ch=3 n=35 v=100
2512424 Off ch=3 n=34 v=0
2512441 On ch=3 n=38 v=100
2512466 Off ch=3 n=35 v=0
2512506 Off ch=3 n=38 v=0
2512533 On ch=3 n=31 v=100
2512573 On ch=3 n=30 v=100
2512605 Off ch=3 n=31 v=0
2512635 On ch=3 n=37 v=100
2512646 Off ch=3 n=30 v=0
2512704 Off ch=3 n=37 v=0
2512716 On ch=3 n=27 v=100
2512766 Off ch=3 n=27 v=0
2512776 On ch=3 n=30 v=100
2512813 On ch=3 n=30 v=100
2512826 Off ch=3 n=30 v=0
2512873 On ch=3 n=32 v=100
2512886 Off ch=3 n=30 v=0
2512913 On ch=3 n=31 v=100
2512940 Off ch=3 n=32 v=0
2512953 On ch=3 n=33 v=100
2512985 Off ch=3 n=31 v=0
2513026 Off ch=3 n=33 v=0
2513036 On ch=3 n=37 v=100
2513073 On ch=3 n=35 v=100
2513105 Off ch=3 n=37 v=0
2513123 On ch=3 n=34 v=100
2513145 Off ch=3 n=35 v=0
2513186 Off ch=3 n=34 v=0
2513253 On ch=3 n=28 v=100
2513293 On ch=3 n=31 v=100
2513306 Off ch=3 n=28 v=0
2513353 On ch=3 n=34 v=100
2513365 Off ch=3 n=31 v=0
2513420 Off ch=3 n=34 v=0
2513436 On ch=3 n=27 v=100
2513486 Off ch=3 n=27 v=0
2513496 On ch=3 n=30 v=100
2513533 On ch=3 n=30 v=100
2513546 Off ch=3 n=30 v=0
2513606 Off ch=3 n=30 v=0
2513615 On ch=3 n=30 v=100
2513666 Off ch=3 n=30 v=0
2514327 On ch=3 n=10 v=100
2514482 On ch=3 n=19 v=100
2514556 Off ch=3 n=10 v=0
2514569 Off ch=3 n=19 v=0
2514919 On ch=3 n=20 v=100
2515136 Off ch=3 n=20 v=0
2519170 On ch=3 n=44 v=100
2519313 Off ch=3 n=44 v=0
2519538 On ch=3 n=6 v=100
2519547 On ch=3 n=44 v=100
2519824 Off ch=3 n=6 v=0
2519889 Off ch=3 n=44 v=0
2521470 On ch=3 n=5 v=100
2523062 Off ch=3 n=5 v=0
2524614 On ch=3 n=32 v=100
2524959 Off ch=3 n=32 v=0
2524977 On ch=3 n=41 v=100
2524980 On ch=3 n=19 v=100
2525192 Off ch=3 n=19 v=0
2525269 On ch=3 n=52 v=100
2525364 Off ch=3 n=41 v=0
2525447 Off ch=3 n=52 v=0
2526607 On ch=3 n=57 v=100
2526712 Off ch=3 n=57 v=0
2526924 On ch=3 n=38 v=100
2527023 Off ch=3 n=38 v=0
2532310 On ch=3 n=8 v=100
2532499 Off ch=3 n=8 v=0
2539636 On ch=3 n=19 v=100
2539763 Off ch=3 n=19 v=0
2539949 On ch=3 n=30 v=100
2540047 Off ch=3 n=30 v=0
2540051 On ch=3 n=18 v=100
2540061 On ch=3 n=31 v=100
2540348 Off ch=3 n=18 v=0
2540396 Off ch=3 n=31 v=0
2540522 On ch=3 n=11 v=100
2540874 Off ch=3 n=11 v=0
2542222 On ch=3 n=9 v=100
2542673 Off ch=3 n=9 v=0
2542690 On ch=3 n=25 v=100
2542726 On ch=3 n=18 v=100
2542740 Off ch=3 n=25 v=0
2542829 Off ch=3 n=18 v=0
2542969 On ch=3 n=26 v=100
2543043 Off ch=3 n=26 v=0
2543060 On ch=3 n=34 v=100
2543106 On ch=3 n=9 v=100
2543182 Off ch=3 n=34 v=0
2543774 Off ch=3 n=9 v=0
2543779 On ch=3 n=15 v=100
2543868 Off ch=3 n=15 v=0
2545275 On ch=3 n=22 v=100
2545363 Off ch=3 n=22 v=0
2546497 On ch=3 n=12 v=100
2546673 Off ch=3 n=12 v=0
2546677 On ch=3 n=9 v=100
2547056 On ch=3 n=6 v=100
2547103 Off ch=3 n=9 v=0
2547264 On ch=3 n=12 v=100
2547308 Off ch=3 n=6 v=0
2547321 On ch=3 n=12 v=100
2547331 On ch=3 n=19 v=100
2547425 On ch=3 n=48 v=100
2547425 On ch=3 n=48 v=100
2547655 Off ch=3 n=12 v=0
2547686 Off ch=3 n=12 v=0
2547744 Off ch=3 n=19 v=0
2547793 On ch=3 n=20 v=100
2548017 Off ch=3 n=20 v=0
2548152 Off ch=3 n=48 v=0
2548152 Off ch=3 n=48 v=0
2549021 On ch=3 n=13 v=100
2549281 On ch=3 n=6 v=100
2549322 On ch=3 n=6 v=100
2549337 Off ch=3 n=13 v=0
2549341 On ch=3 n=43 v=100
2549587 On ch=3 n=17 v=100
2549608 Off ch=3 n=6 v=0
2549619 Off ch=3 n=6 v=0
2549634 On ch=3 n=14 v=100
2549634 On ch=3 n=20 v=100
2549698 Off ch=3 n=43 v=0
2549883 Off ch=3 n=17 v=0
2549893 Off ch=3 n=14 v=0
2549897 On ch=3 n=9 v=100
2549941 Off ch=3 n=20 v=0
2549971 Off ch=3 n=9 v=0
2549977 On ch=3 n=11 v=100
2550015 On ch=3 n=43 v=100
2550296 Off ch=3 n=11 v=0
2550352 Off ch=3 n=43 v=0
2550456 On ch=3 n=24 v=100
2550458 On ch=3 n=5 v=100
2550499 Off ch=3 n=5 v=0
2550575 Off ch=3 n=24 v=0
2551177 On ch=3 n=10 v=100
2551851 Off ch=3 n=10 v=0
2551961 On ch=3 n=23 v=100
2552064 Off ch=3 n=23 v=0
2552072 On ch=3 n=17 v=100
2552293 On ch=3 n=15 v=100
2552339 Off ch=3 n=17 v=0
2552390 On ch=3 n=7 v=100
2552391 Off ch=3 n=15 v=0
2552931 Off ch=3 n=7 v=0
2552935 On ch=3 n=6 v=100
2553110 Off ch=3 n=6 v=0
2553166 On ch=3 n=9 v=100
2553339 Off ch=3 n=9 v=0
2554380 On ch=3 n=6 v=100
2555276 Off ch=3 n=6 v=0
2555278 On ch=3 n=3 v=100
2555333 Off ch=3 n=3 v=0
2555338 On ch=3 n=7 v=100
2555668 Off ch=3 n=7 v=0
2555698 On ch=3 n=7 v=100
2555811 Off ch=3 n=7 v=0
2555925 On ch=3 n=3 v=100
2556964 Off ch=3 n=3 v=0
2556980 On ch=3 n=9 v=100
2557484 Off ch=3 n=9 v=0
2559369 On ch=3 n=9 v=100
2559569 Off ch=3 n=9 v=0
2559970 On ch=3 n=1 v=100
2560048 Off ch=3 n=1 v=0
2560066 On ch=3 n=5 v=100
2560842 On ch=3 n=3 v=100
2560855 Off ch=3 n=5 v=0
2561334 Off ch=3 n=3 v=0
2564754 On ch=3 n=16 v=100
2564852 On ch=3 n=17 v=100
2564919 Off ch=3 n=16 v=0
2565003 On ch=3 n=19 v=100
2565003 On ch=3 n=8 v=100
2565009 Off ch=3 n=17 v=0
2565037 Off ch=3 n=8 v=0
2565088 Off ch=3 n=19 v=0
2565107 On ch=3 n=8 v=100
2565356 On ch=3 n=4 v=100
2565356 Off ch=3 n=8 v=0
2566497 On ch=3 n=11 v=100
2566498 Off ch=3 n=4 v=0
2566793 Off ch=3 n=11 v=0
2566999 On ch=3 n=21 v=100
2567109 On ch=3 n=27 v=100
2567112 Off ch=3 n=21 v=0
2567172 On ch=3 n=9 v=100
2567178 Off ch=3 n=27 v=0
2567326 On ch=3 n=13 v=100
2567332 Off ch=3 n=9 v=0
2567649 Off ch=3 n=13 v=0
2567770 On ch=3 n=15 v=100
2568381 Off ch=3 n=15 v=0
2568397 On ch=3 n=7 v=100
2568451 Off ch=3 n=7 v=0
2568539 On ch=3 n=19 v=100
2568666 Off ch=3 n=19 v=0
2569298 On ch=3 n=27 v=100
2569541 Off ch=3 n=27 v=0
2571293 On ch=3 n=15 v=100
2572004 Off ch=3 n=15 v=0
2572972 On ch=3 n=25 v=100
2573098 Off ch=3 n=25 v=0
2574063 On ch=3 n=5 v=100
2574063 On ch=3 n=5 v=100
2574096 On ch=3 n=8 v=100
2574278 On ch=3 n=5 v=100
2574278 On ch=3 n=5 v=100
2574318 Off ch=3 n=5 v=0
2574318 Off ch=3 n=5 v=0
2574496 Off ch=3 n=8 v=0
2574726 Off ch=3 n=5 v=0
2574726 Off ch=3 n=5 v=0
2576027 On ch=3 n=3 v=100
2576750 Off ch=3 n=3 v=0
2579111 On ch=3 n=11 v=100
2579294 Off ch=3 n=11 v=0
2579325 On ch=3 n=9 v=100
2579910 Off ch=3 n=9 v=0
2580891 On ch=3 n=35 v=100
2580916 On ch=3 n=15 v=100
2581035 On ch=3 n=36 v=100
2581035 On ch=3 n=36 v=100
2581070 Off ch=3 n=35 v=0
2581070 Off ch=3 n=15 v=0
2581076 On ch=3 n=24 v=100
2581341 Off ch=3 n=24 v=0
2581355 Off ch=3 n=36 v=0
2581355 Off ch=3 n=36 v=0
2581395 On ch=3 n=22 v=100
2581493 Off ch=3 n=22 v=0
2583369 On ch=3 n=42 v=100
2583389 On ch=3 n=13 v=100
2583451 Off ch=3 n=42 v=0
2583807 Off ch=3 n=13 v=0
2584240 On ch=3 n=21 v=100
2584390 Off ch=3 n=21 v=0
2593165 On ch=3 n=2 v=100
2595546 On ch=3 n=34 v=100
2595621 Off ch=3 n=2 v=0
2595633 Off ch=3 n=34 v=0
2596325 On ch=3 n=50 v=100
2596546 Off ch=3 n=50 v=0
2596944 On ch=3 n=6 v=100
2597320 On ch=3 n=11 v=100
2597325 Off ch=3 n=6 v=0
2597461 On ch=3 n=35 v=100
2597495 On ch=3 n=6 v=100
2597495 Off ch=3 n=11 v=0
2597655 Off ch=3 n=35 v=0
2597749 On ch=3 n=34 v=100
2597906 On ch=3 n=10 v=100
2597907 Off ch=3 n=6 v=0
2597934 Off ch=3 n=34 v=0
2598108 Off ch=3 n=10 v=0
2598119 On ch=3 n=9 v=100
2598854 Off ch=3 n=9 v=0
2598868 On ch=3 n=7 v=100
2599404 On ch=3 n=9 v=100
2599404 Off ch=3 n=7 v=0
2599414 Off ch=3 n=9 v=0
2599445 On ch=3 n=9 v=100
2599858 Off ch=3 n=9 v=0
2599961 On ch=3 n=12 v=100
2599994 On ch=3 n=6 v=100
2599995 Off ch=3 n=12 v=0
2600239 Off ch=3 n=6 v=0
2600701 On ch=3 n=10 v=100
2601226 Off ch=3 n=10 v=0
2603169 On ch=3 n=0 v=100
2604474 Off ch=3 n=0 v=0
2604696 On ch=3 n=36 v=100
2604709 Off ch=3 n=36 v=0
2604748 On ch=3 n=36 v=100
2604775 On ch=3 n=35 v=100
2604809 Off ch=3 n=36 v=0
2604819 Off ch=3 n=35 v=0
2605010 On ch=3 n=44 v=100
2605274 On ch=3 n=24 v=100
2605324 On ch=3 n=6 v=100
2605351 Off ch=3 n=44 v=0
2605713 Off ch=3 n=6 v=0
2605714 Off ch=3 n=24 v=0
2605721 On ch=3 n=1 v=100
2606538 Off ch=3 n=1 v=0
2612579 On ch=3 n=4 v=100
2613459 On ch=3 n=7 v=100
2615752 On ch=3 n=6 v=100
2615969 Off ch=3 n=4 v=0
2616415 On ch=3 n=8 v=100
2616416 Off ch=3 n=7 v=0
2617325 Off ch=3 n=6 v=0
2619268 On ch=3 n=9 v=100
2619354 Off ch=3 n=8 v=0
2621605 On ch=3 n=3 v=100
2622367 Off ch=3 n=9 v=0
2625696 On ch=3 n=9 v=100
2626445 On ch=3 n=8 v=100
2626491 Off ch=3 n=3 v=0
2627304 On ch=3 n=10 v=100
2627319 Off ch=3 n=9 v=0
2627697 On ch=3 n=9 v=100
2627736 Off ch=3 n=8 v=0
2628156 Off ch=3 n=10 v=0
2629425 On ch=3 n=7 v=100
2630111 Off ch=3 n=9 v=0
2631568 Off ch=3 n=7 v=0
2631575 On ch=3 n=8 v=100
2632266 Off ch=3 n=8 v=0
2632547 On ch=3 n=21 v=100
2632547 On ch=3 n=21 v=100
2633675 On ch=3 n=19 v=100
2633737 On ch=3 n=16 v=100
2633737 On ch=3 n=16 v=100
2633897 Off ch=3 n=21 v=0
2633897 Off ch=3 n=21 v=0
2634000 Off ch=3 n=19 v=0
2634402 Off ch=3 n=16 v=0
2634402 Off ch=3 n=16 v=0
2635052 On ch=3 n=10 v=100
2635325 Off ch=3 n=10 v=0
2635523 On ch=3 n=11 v=100
2635551 On ch=3 n=35 v=100
2635607 On ch=3 n=9 v=100
2635610 Off ch=3 n=11 v=0
2635653 Off ch=3 n=35 v=0
2635991 On ch=3 n=14 v=100
2635992 Off ch=3 n=9 v=0
2636240 On ch=3 n=5 v=100
2636242 Off ch=3 n=14 v=0
2636558 Off ch=3 n=5 v=0
2636588 On ch=3 n=10 v=100
2636611 On ch=3 n=33 v=100
2636695 Off ch=3 n=10 v=0
2636731 Off ch=3 n=33 v=0
2637686 On ch=3 n=20 v=100
2637877 Off ch=3 n=20 v=0
2638032 On ch=3 n=15 v=100
2638167 Off ch=3 n=15 v=0
2638230 On ch=3 n=1 v=100
2641166 Off ch=3 n=1 v=0
2641169 On ch=3 n=2 v=100
2641411 Off ch=3 n=2 v=0
2641561 On ch=3 n=16 v=100
2641690 Off ch=3 n=16 v=0
2642041 On ch=3 n=43 v=100
2642590 Off ch=3 n=43 v=0
2642715 On ch=3 n=4 v=100
2642749 On ch=3 n=25 v=100
2642749 On ch=3 n=25 v=100
2642810 Off ch=3 n=4 v=0
2642812 On ch=3 n=7 v=100
2643081 On ch=3 n=9 v=100
2643091 Off ch=3 n=7 v=0
2643132 Off ch=3 n=25 v=0
2643132 Off ch=3 n=25 v=0
2643194 Off ch=3 n=9 v=0
2652436 On ch=3 n=4 v=100
2652639 Off ch=3 n=4 v=0
2652896 On ch=3 n=8 v=100
2653541 On ch=3 n=19 v=100
2653607 Off ch=3 n=8 v=0
2653634 Off ch=3 n=19 v=0
2655260 On ch=3 n=4 v=100
2656056 Off ch=3 n=4 v=0
2657629 On ch=3 n=38 v=100
2658064 Off ch=3 n=38 v=0
2658091 On ch=3 n=38 v=100
2658163 On ch=3 n=17 v=100
2658189 On ch=3 n=32 v=100
2658230 Off ch=3 n=38 v=0
2658277 Off ch=3 n=17 v=0
2658281 Off ch=3 n=32 v=0
2666312 On ch=3 n=9 v=100
2666399 On ch=3 n=27 v=100
2666533 Off ch=3 n=9 v=0
2666595 Off ch=3 n=27 v=0
2670336 On ch=3 n=33 v=100
2670336 On ch=3 n=46 v=100
2670504 Off ch=3 n=33 v=0
2670530 Off ch=3 n=46 v=0
2671019 On ch=3 n=9 v=100
2671158 Off ch=3 n=9 v=0
2675323 On ch=3 n=10 v=100
2675492 Off ch=3 n=10 v=0
2675917 On ch=3 n=8 v=100
2676151 Off ch=3 n=8 v=0
2676156 On ch=3 n=4 v=100
2676204 Off ch=3 n=4 v=0
2676209 On ch=3 n=9 v=100
2676356 Off ch=3 n=9 v=0
2682387 On ch=3 n=6 v=100
2682894 On ch=3 n=43 v=100
2683016 Off ch=3 n=6 v=0
2683048 Off ch=3 n=43 v=0
2686400 On ch=3 n=35 v=100
2686543 Off ch=3 n=35 v=0
2686848 On ch=3 n=23 v=100
2687134 Off ch=3 n=23 v=0
2687135 On ch=3 n=8 v=100
2687759 Off ch=3 n=8 v=0
2687761 On ch=3 n=12 v=100
2688054 On ch=3 n=9 v=100
2688055 Off ch=3 n=12 v=0
2688211 On ch=3 n=6 v=100
2688213 Off ch=3 n=9 v=0
2688310 Off ch=3 n=6 v=0
2688338 On ch=3 n=8 v=100
2688598 Off ch=3 n=8 v=0
2688626 On ch=3 n=8 v=100
2688680 Off ch=3 n=8 v=0
2688698 On ch=3 n=8 v=100
2689048 Off ch=3 n=8 v=0
2689049 On ch=3 n=6 v=100
2689297 Off ch=3 n=6 v=0
2689322 On ch=3 n=52 v=100
2689365 On ch=3 n=7 v=100
2689649 Off ch=3 n=52 v=0
2689910 On ch=3 n=10 v=100
2689919 Off ch=3 n=7 v=0
2690032 Off ch=3 n=10 v=0
2690043 On ch=3 n=7 v=100
2690209 On ch=3 n=7 v=100
2690211 Off ch=3 n=7 v=0
2690436 Off ch=3 n=7 v=0
2690437 On ch=3 n=0 v=100
2690485 Off ch=3 n=0 v=0
2690490 On ch=3 n=6 v=100
2690574 Off ch=3 n=6 v=0
2690576 On ch=3 n=2 v=100
2690712 Off ch=3 n=2 v=0
2690716 On ch=3 n=5 v=100
2690794 Off ch=3 n=5 v=0
2690799 On ch=3 n=10 v=100
2691053 Off ch=3 n=10 v=0
2691169 On ch=3 n=7 v=100
2691692 On ch=3 n=45 v=100
2691729 Off ch=3 n=7 v=0
2691740 Off ch=3 n=45 v=0
2693571 On ch=3 n=8 v=100
2694233 Off ch=3 n=8 v=0
2694351 On ch=3 n=44 v=100
2694377 On ch=3 n=33 v=100
2694505 Off ch=3 n=33 v=0
2694506 Off ch=3 n=44 v=0
2694985 On ch=3 n=23 v=100
2695071 Off ch=3 n=23 v=0
2695397 On ch=3 n=20 v=100
2695440 Off ch=3 n=20 v=0
2696148 On ch=3 n=5 v=100
2698298 Off ch=3 n=5 v=0
2699048 On ch=3 n=5 v=100
2699263 Off ch=3 n=5 v=0
2699357 On ch=3 n=11 v=100
2699406 Off ch=3 n=11 v=0
2699440 On ch=3 n=18 v=100
2699549 On ch=3 n=49 v=100
2699605 On ch=3 n=42 v=100
2699637 On ch=3 n=35 v=100
2699647 Off ch=3 n=18 v=0
2699732 On ch=3 n=25 v=100
2699743 On ch=3 n=30 v=100
2699826 Off ch=3 n=35 v=0
2699833 Off ch=3 n=42 v=0
2699843 Off ch=3 n=25 v=0
2699862 Off ch=3 n=30 v=0
2699868 Off ch=3 n=49 v=0
2702002 On ch=3 n=5 v=100
2702008 On ch=3 n=18 v=100
2702283 Off ch=3 n=5 v=0
2702343 Off ch=3 n=18 v=0
2702938 On ch=3 n=9 v=100
2702940 On ch=3 n=22 v=100
2703290 Off ch=3 n=9 v=0
2703452 Off ch=3 n=22 v=0
2703562 On ch=3 n=18 v=100
2703656 On ch=3 n=19 v=100
2703665 Off ch=3 n=18 v=0
2703977 On ch=3 n=12 v=100
2704027 Off ch=3 n=19 v=0
2704101 On ch=3 n=9 v=100
2704102 Off ch=3 n=12 v=0
2704425 Off ch=3 n=9 v=0
2704523 On ch=3 n=13 v=100
2704698 Off ch=3 n=13 v=0
2704988 On ch=3 n=14 v=100
2705041 Off ch=3 n=14 v=0
2705043 On ch=3 n=4 v=100
2705109 Off ch=3 n=4 v=0
2705869 On ch=3 n=18 v=100
2705985 Off ch=3 n=18 v=0
2707346 On ch=3 n=22 v=100
2707656 Off ch=3 n=22 v=0
2707685 On ch=3 n=12 v=100
2707836 On ch=3 n=14 v=100
2707836 Off ch=3 n=12 v=0
2708370 Off ch=3 n=14 v=0
2708750 On ch=3 n=16 v=100
2709045 Off ch=3 n=16 v=0
2709070 On ch=3 n=7 v=100
2709523 On ch=3 n=19 v=100
2709551 Off ch=3 n=7 v=0
2709556 Off ch=3 n=19 v=0
2711209 On ch=3 n=6 v=100
2711483 On ch=3 n=44 v=100
2711564 On ch=3 n=10 v=100
2711564 Off ch=3 n=6 v=0
2711581 Off ch=3 n=44 v=0
2711773 On ch=3 n=10 v=100
2711775 Off ch=3 n=10 v=0
2712006 Off ch=3 n=10 v=0
2713865 On ch=3 n=2 v=100
2713982 Off ch=3 n=2 v=0
2714048 On ch=3 n=15 v=100
2714158 Off ch=3 n=15 v=0
2714748 On ch=3 n=20 v=100
2714791 Off ch=3 n=20 v=0
2715487 On ch=3 n=21 v=100
2715586 On ch=3 n=8 v=100
2715595 Off ch=3 n=21 v=0
2716224 Off ch=3 n=8 v=0
2716280 On ch=3 n=19 v=100
2716371 Off ch=3 n=19 v=0
2716511 On ch=3 n=26 v=100
2716605 On ch=3 n=18 v=100
2716617 Off ch=3 n=26 v=0
2716618 On ch=3 n=12 v=100
2716933 Off ch=3 n=18 v=0
2716933 Off ch=3 n=12 v=0
2717011 On ch=3 n=12 v=100
2717011 On ch=3 n=18 v=100
2717155 Off ch=3 n=12 v=0
2717156 On ch=3 n=16 v=100
2717157 On ch=3 n=9 v=100
2717207 Off ch=3 n=18 v=0
2717307 Off ch=3 n=9 v=0
2717318 On ch=3 n=10 v=100
2717326 Off ch=3 n=16 v=0
2717966 Off ch=3 n=10 v=0
2720456 On ch=3 n=23 v=100
2720602 Off ch=3 n=23 v=0
2721025 On ch=3 n=5 v=100
2721588 Off ch=3 n=5 v=0
2723658 On ch=3 n=28 v=100
2723660 On ch=3 n=40 v=100
2723828 Off ch=3 n=28 v=0
2723836 On ch=3 n=30 v=100
2723859 Off ch=3 n=40 v=0
2723947 Off ch=3 n=30 v=0
2724087 On ch=3 n=24 v=100
2724218 Off ch=3 n=24 v=0
2724738 On ch=3 n=44 v=100
2725037 Off ch=3 n=44 v=0
2726940 On ch=3 n=18 v=100
2727027 On ch=3 n=12 v=100
2727045 Off ch=3 n=18 v=0
2727238 On ch=3 n=12 v=100
2727243 Off ch=3 n=12 v=0
2727389 Off ch=3 n=12 v=0
2727427 On ch=3 n=11 v=100
2727780 Off ch=3 n=11 v=0
2740084 On ch=3 n=16 v=100
2740084 On ch=3 n=43 v=100
2740178 On ch=3 n=10 v=100
2740195 Off ch=3 n=16 v=0
2740252 Off ch=3 n=43 v=0
2740406 On ch=3 n=3 v=100
2740407 Off ch=3 n=10 v=0
2740554 Off ch=3 n=3 v=0
2740590 On ch=3 n=6 v=100
2741716 On ch=3 n=26 v=100
2742029 On ch=3 n=4 v=100
2742032 Off ch=3 n=6 v=0
2742084 Off ch=3 n=26 v=0
2742381 Off ch=3 n=4 v=0
2748728 On ch=3 n=5 v=100
2749195 On ch=3 n=36 v=100
2749244 Off ch=3 n=5 v=0
2749246 On ch=3 n=39 v=100
2749256 Off ch=3 n=36 v=0
2749417 On ch=3 n=20 v=100
2749632 Off ch=3 n=20 v=0
2749634 Off ch=3 n=39 v=0
2749644 On ch=3 n=15 v=100
2749717 On ch=3 n=8 v=100
2749770 Off ch=3 n=15 v=0
2749971 Off ch=3 n=8 v=0
2749982 On ch=3 n=34 v=100
2750318 Off ch=3 n=34 v=0
2754615 On ch=3 n=9 v=100
2754816 On ch=3 n=13 v=100
2754842 Off ch=3 n=9 v=0
2755137 Off ch=3 n=13 v=0
2755363 On ch=3 n=38 v=100
2755504 Off ch=3 n=38 v=0
2759521 On ch=3 n=21 v=100
2759743 Off ch=3 n=21 v=0
2760088 On ch=3 n=15 v=100
2760101 On ch=3 n=25 v=100
2760180 Off ch=3 n=15 v=0
2760521 On ch=3 n=23 v=100
2760534 On ch=3 n=15 v=100
2760534 Off ch=3 n=25 v=0
2760601 Off ch=3 n=23 v=0
2760640 Off ch=3 n=15 v=0
2760667 On ch=3 n=29 v=100
2760719 Off ch=3 n=29 v=0
2760727 On ch=3 n=38 v=100
2760778 On ch=3 n=27 v=100
2760779 Off ch=3 n=38 v=0
2760820 Off ch=3 n=27 v=0
2760847 On ch=3 n=30 v=100
2760909 On ch=3 n=30 v=100
2760920 Off ch=3 n=30 v=0
2760928 On ch=3 n=29 v=100
2760967 On ch=3 n=28 v=100
2760979 Off ch=3 n=30 v=0
2760987 On ch=3 n=30 v=100
2761000 Off ch=3 n=29 v=0
2761040 Off ch=3 n=28 v=0
2761049 Off ch=3 n=30 v=0
2761053 On ch=3 n=23 v=100
2761100 Off ch=3 n=23 v=0
2761109 On ch=3 n=29 v=100
2761180 Off ch=3 n=29 v=0
2761187 On ch=3 n=21 v=100
2761249 On ch=3 n=33 v=100
2761249 Off ch=3 n=21 v=0
2761300 Off ch=3 n=33 v=0
2761326 On ch=3 n=30 v=100
2761387 On ch=3 n=30 v=100
2761400 Off ch=3 n=30 v=0
2761448 On ch=3 n=32 v=100
2761449 Off ch=3 n=30 v=0
2761500 Off ch=3 n=32 v=0
2761507 On ch=3 n=29 v=100
2761559 Off ch=3 n=29 v=0
2761566 On ch=3 n=30 v=100
2761620 Off ch=3 n=30 v=0
2761627 On ch=3 n=25 v=100
2761680 Off ch=3 n=25 v=0
2761687 On ch=3 n=25 v=100
2761707 On ch=3 n=28 v=100
2761730 On ch=3 n=31 v=100
2761740 Off ch=3 n=25 v=0
2761781 Off ch=3 n=28 v=0
2761791 Off ch=3 n=31 v=0
2761829 On ch=3 n=28 v=100
2761867 On ch=3 n=27 v=100
2761899 Off ch=3 n=28 v=0
2761927 On ch=3 n=25 v=100
2761940 Off ch=3 n=27 v=0
2761947 On ch=3 n=30 v=100
2761980 Off ch=3 n=25 v=0
2761989 On ch=3 n=29 v=100
2762016 Off ch=3 n=30 v=0
2762048 On ch=3 n=27 v=100
2762060 Off ch=3 n=29 v=0
2762120 Off ch=3 n=27 v=0
2762129 On ch=3 n=24 v=100
2762167 On ch=3 n=29 v=100
2762200 Off ch=3 n=24 v=0
2762236 Off ch=3 n=29 v=0
2762252 On ch=3 n=25 v=100
2762307 On ch=3 n=28 v=100
2762319 Off ch=3 n=25 v=0
2762347 On ch=3 n=23 v=100
2762367 On ch=3 n=25 v=100
2762380 Off ch=3 n=28 v=0
2762400 Off ch=3 n=23 v=0
2762408 On ch=3 n=27 v=100
2762440 Off ch=3 n=25 v=0
2762480 Off ch=3 n=27 v=0
2762493 On ch=3 n=25 v=100
2762547 Off ch=3 n=25 v=0
2762567 On ch=3 n=28 v=100
2762620 Off ch=3 n=28 v=0
2762667 On ch=3 n=32 v=100
2762709 On ch=3 n=27 v=100
2762719 Off ch=3 n=32 v=0
2762780 Off ch=3 n=27 v=0
2762791 On ch=3 n=35 v=100
2762827 On ch=3 n=27 v=100
2762860 Off ch=3 n=35 v=0
2762877 Off ch=3 n=27 v=0
2762909 On ch=3 n=28 v=100
2762947 On ch=3 n=27 v=100
2762967 On ch=3 n=28 v=100
2762979 Off ch=3 n=28 v=0
2763007 On ch=3 n=25 v=100
2763020 Off ch=3 n=27 v=0
2763027 On ch=3 n=28 v=100
2763040 Off ch=3 n=28 v=0
2763060 Off ch=3 n=25 v=0
2763069 On ch=3 n=29 v=100
2763080 Off ch=3 n=28 v=0
2763140 Off ch=3 n=29 v=0
2763147 On ch=3 n=23 v=100
2763200 Off ch=3 n=23 v=0
2763208 On ch=3 n=21 v=100
2763249 On ch=3 n=27 v=100
2763260 Off ch=3 n=21 v=0
2763316 Off ch=3 n=27 v=0
2763332 On ch=3 n=25 v=100
2763387 On ch=3 n=29 v=100
2763399 Off ch=3 n=25 v=0
2763448 On ch=3 n=28 v=100
2763464 Off ch=3 n=29 v=0
2763488 On ch=3 n=33 v=100
2763521 Off ch=3 n=28 v=0
2763546 Off ch=3 n=33 v=0
2763552 On ch=3 n=23 v=100
2763568 On ch=3 n=31 v=100
2763600 Off ch=3 n=23 v=0
2763615 On ch=3 n=29 v=100
2763639 Off ch=3 n=31 v=0
2763647 On ch=3 n=27 v=100
2763700 Off ch=3 n=29 v=0
2763703 On ch=3 n=24 v=100
2763720 Off ch=3 n=27 v=0
2763772 Off ch=3 n=24 v=0
2763788 On ch=3 n=39 v=100
2763840 Off ch=3 n=39 v=0
2763847 On ch=3 n=25 v=100
2763929 Off ch=3 n=25 v=0
2763958 On ch=3 n=12 v=100
2764293 Off ch=3 n=12 v=0
2764294 On ch=3 n=5 v=100
2764468 On ch=3 n=17 v=100
2764531 Off ch=3 n=5 v=0
2764586 Off ch=3 n=17 v=0
2765399 On ch=3 n=25 v=100
2765431 On ch=3 n=30 v=100
2765473 On ch=3 n=26 v=100
2765678 Off ch=3 n=25 v=0
2765800 Off ch=3 n=30 v=0
2765802 Off ch=3 n=26 v=0
2765805 On ch=3 n=37 v=100
2765826 On ch=3 n=39 v=100
2765872 Off ch=3 n=37 v=0
2765872 Off ch=3 n=39 v=0
2765940 On ch=3 n=37 v=100
2765940 On ch=3 n=39 v=100
2765960 On ch=3 n=38 v=100
2766254 Off ch=3 n=37 v=0
2766269 On ch=3 n=38 v=100
2766459 Off ch=3 n=39 v=0
2766528 Off ch=3 n=38 v=0
2766528 Off ch=3 n=38 v=0
2766629 On ch=3 n=38 v=100
2766629 On ch=3 n=38 v=100
2766670 Off ch=3 n=38 v=0
2766694 Off ch=3 n=38 v=0
2767250 On ch=3 n=5 v=100
2768883 Off ch=3 n=5 v=0
2768891 On ch=3 n=41 v=100
2768891 On ch=3 n=41 v=100
2769099 On ch=3 n=30 v=100
2769428 Off ch=3 n=30 v=0
2769479 Off ch=3 n=41 v=0
2769479 Off ch=3 n=41 v=0
2769500 On ch=3 n=3 v=100
2770597 On ch=3 n=25 v=100
2770626 Off ch=3 n=3 v=0
2770642 On ch=3 n=3 v=100
2770720 Off ch=3 n=25 v=0
2771050 Off ch=3 n=3 v=0
2771737 On ch=3 n=10 v=100
2771929 Off ch=3 n=10 v=0
2772263 On ch=3 n=14 v=100
2772311 On ch=3 n=16 v=100
2772311 On ch=3 n=16 v=100
2772360 On ch=3 n=13 v=100
2772370 Off ch=3 n=14 v=0
2772670 On ch=3 n=9 v=100
2772676 Off ch=3 n=13 v=0
2772687 Off ch=3 n=16 v=0
2772687 Off ch=3 n=16 v=0
2773288 Off ch=3 n=9 v=0
2782489 On ch=3 n=32 v=100
2782638 Off ch=3 n=32 v=0
2782677 On ch=3 n=19 v=100
2782773 On ch=3 n=7 v=100
2782803 Off ch=3 n=19 v=0
2783234 Off ch=3 n=7 v=0
2783322 On ch=3 n=7 v=100
2783389 Off ch=3 n=7 v=0
2783390 On ch=3 n=10 v=100
2783553 Off ch=3 n=10 v=0
2783575 On ch=3 n=10 v=100
2783992 Off ch=3 n=10 v=0
2784019 On ch=3 n=11 v=100
2784530 Off ch=3 n=11 v=0
2785213 On ch=3 n=28 v=100
2785390 Off ch=3 n=28 v=0
2785392 On ch=3 n=7 v=100
2785860 On ch=3 n=14 v=100
2785877 Off ch=3 n=7 v=0
2785918 Off ch=3 n=14 v=0
2792034 On ch=3 n=19 v=100
2792304 Off ch=3 n=19 v=0
2792311 On ch=3 n=6 v=100
2792487 On ch=3 n=6 v=100
2792492 Off ch=3 n=6 v=0
2792702 On ch=3 n=10 v=100
2792702 On ch=3 n=18 v=100
2792703 Off ch=3 n=6 v=0
2792981 On ch=3 n=5 v=100
2792988 Off ch=3 n=10 v=0
2793037 Off ch=3 n=18 v=0
2793951 Off ch=3 n=5 v=0
2799901 On ch=3 n=4 v=100
2801262 On ch=3 n=5 v=100
2801263 Off ch=3 n=4 v=0
2802443 Off ch=3 n=5 v=0
2802512 On ch=3 n=16 v=100
2802514 On ch=3 n=20 v=100
2802634 On ch=3 n=16 v=100
2802634 Off ch=3 n=16 v=0
2802672 Off ch=3 n=20 v=0
2802685 On ch=3 n=22 v=100
2802700 Off ch=3 n=16 v=0
2803024 Off ch=3 n=22 v=0
2803256 On ch=3 n=8 v=100
2803353 Off ch=3 n=8 v=0
2803354 On ch=3 n=11 v=100
2803489 Off ch=3 n=11 v=0
2803684 On ch=3 n=9 v=100
2803858 Off ch=3 n=9 v=0
2803945 On ch=3 n=1 v=100
2804679 On ch=3 n=16 v=100
2804683 On ch=3 n=11 v=100
2804699 Off ch=3 n=1 v=0
2805033 Off ch=3 n=11 v=0
2805038 On ch=3 n=3 v=100
2805138 Off ch=3 n=16 v=0
2805727 Off ch=3 n=3 v=0
2805766 On ch=3 n=3 v=100
2805928 Off ch=3 n=3 v=0
2806036 On ch=3 n=8 v=100
2806202 Off ch=3 n=8 v=0
2806503 On ch=3 n=9 v=100
2806621 Off ch=3 n=9 v=0
2806665 On ch=3 n=15 v=100
2806843 Off ch=3 n=15 v=0
2807610 On ch=3 n=10 v=100
2808075 Off ch=3 n=10 v=0
2808222 On ch=3 n=20 v=100
2808455 Off ch=3 n=20 v=0
2808790 On ch=3 n=31 v=100
2808857 On ch=3 n=26 v=100
2808874 On ch=3 n=10 v=100
2808908 Off ch=3 n=31 v=0
2808923 Off ch=3 n=10 v=0
2808924 Off ch=3 n=26 v=0
2809024 On ch=3 n=7 v=100
2809285 On ch=3 n=7 v=100
2809292 Off ch=3 n=7 v=0
2809482 Off ch=3 n=7 v=0
2809497 On ch=3 n=9 v=100
2810265 On ch=3 n=35 v=100
2810325 Off ch=3 n=9 v=0
2810325 Off ch=3 n=35 v=0
2810357 On ch=3 n=9 v=100
2810357 On ch=3 n=35 v=100
2810420 On ch=3 n=4 v=100
2810430 Off ch=3 n=9 v=0
2810567 Off ch=3 n=35 v=0
2810934 Off ch=3 n=4 v=0
2811037 On ch=3 n=7 v=100
2811413 On ch=3 n=6 v=100
2811413 Off ch=3 n=7 v=0
2812130 Off ch=3 n=6 v=0
2812134 On ch=3 n=4 v=100
2812551 Off ch=3 n=4 v=0
2815128 On ch=3 n=17 v=100
2815280 On ch=3 n=5 v=100
2815377 Off ch=3 n=17 v=0
2816372 On ch=3 n=7 v=100
2816379 Off ch=3 n=5 v=0
2816569 Off ch=3 n=7 v=0
2816583 On ch=3 n=11 v=100
2816701 Off ch=3 n=11 v=0
2816803 On ch=3 n=6 v=100
2817197 On ch=3 n=54 v=100
2817265 On ch=3 n=33 v=100
2817318 On ch=3 n=47 v=100
2817369 On ch=3 n=4 v=100
2817399 Off ch=3 n=6 v=0
2817423 On ch=3 n=41 v=100
2817437 Off ch=3 n=33 v=0
2817577 Off ch=3 n=54 v=0
2817596 Off ch=3 n=47 v=0
2817596 Off ch=3 n=4 v=0
2817605 On ch=3 n=15 v=100
2817632 Off ch=3 n=41 v=0
2817742 Off ch=3 n=15 v=0
2819024 On ch=3 n=2 v=100
2819580 Off ch=3 n=2 v=0
2819581 On ch=3 n=4 v=100
2820049 On ch=3 n=27 v=100
2820108 On ch=3 n=43 v=100
2820122 On ch=3 n=4 v=100
2820149 Off ch=3 n=4 v=0
2820169 On ch=3 n=36 v=100
2820217 Off ch=3 n=27 v=0
2820235 Off ch=3 n=4 v=0
2820235 Off ch=3 n=43 v=0
2820246 Off ch=3 n=36 v=0
2822723 On ch=3 n=25 v=100
2822873 Off ch=3 n=25 v=0
2824244 On ch=3 n=2 v=100
2824396 On ch=3 n=8 v=100
2824396 Off ch=3 n=2 v=0
2825064 Off ch=3 n=8 v=0
2825124 On ch=3 n=17 v=100
2825272 On ch=3 n=7 v=100
2825272 On ch=3 n=20 v=100
2825279 Off ch=3 n=17 v=0
2825562 On ch=3 n=18 v=100
2825566 Off ch=3 n=7 v=0
2825611 Off ch=3 n=20 v=0
2825830 On ch=3 n=26 v=100
2825831 Off ch=3 n=18 v=0
2825887 Off ch=3 n=26 v=0
2826322 On ch=3 n=10 v=100
2826571 Off ch=3 n=10 v=0
2826574 On ch=3 n=7 v=100
2826909 Off ch=3 n=7 v=0
2826913 On ch=3 n=10 v=100
2827432 On ch=3 n=8 v=100
2827433 Off ch=3 n=10 v=0
2827833 Off ch=3 n=8 v=0
2827835 On ch=3 n=16 v=100
2827890 On ch=3 n=6 v=100
2827894 Off ch=3 n=16 v=0
2828320 Off ch=3 n=6 v=0
2828321 On ch=3 n=13 v=100
2828543 On ch=3 n=18 v=100
2828551 Off ch=3 n=13 v=0
2828559 On ch=3 n=15 v=100
2828679 On ch=3 n=21 v=100
2828687 On ch=3 n=1 v=100
2828690 Off ch=3 n=15 v=0
2828692 Off ch=3 n=18 v=0
2828744 Off ch=3 n=21 v=0
2829660 On ch=3 n=27 v=100
2829732 On ch=3 n=3 v=100
2829737 Off ch=3 n=1 v=0
2829747 Off ch=3 n=27 v=0
2829818 On ch=3 n=26 v=100
2829824 On ch=3 n=20 v=100
2829825 On ch=3 n=26 v=100
2829863 Off ch=3 n=3 v=0
2829870 Off ch=3 n=26 v=0
2829873 Off ch=3 n=20 v=0
2829929 Off ch=3 n=26 v=0
2830107 On ch=3 n=17 v=100
2830340 Off ch=3 n=17 v=0
2830425 On ch=3 n=25 v=100
2830505 Off ch=3 n=25 v=0
2831560 On ch=3 n=8 v=100
2831674 Off ch=3 n=8 v=0
2831677 On ch=3 n=11 v=100
2831944 On ch=3 n=10 v=100
2831945 Off ch=3 n=11 v=0
2832514 On ch=3 n=9 v=100
2832525 Off ch=3 n=10 v=0
2832642 Off ch=3 n=9 v=0
2832645 On ch=3 n=40 v=100
2832714 Off ch=3 n=40 v=0
2832721 On ch=3 n=6 v=100
2833009 Off ch=3 n=6 v=0
2833010 On ch=3 n=18 v=100
2833143 Off ch=3 n=18 v=0
2834289 On ch=3 n=15 v=100
2834358 Off ch=3 n=15 v=0
2834362 On ch=3 n=6 v=100
2834710 Off ch=3 n=6 v=0
2835187 On ch=3 n=33 v=100
2835187 On ch=3 n=33 v=100
2835370 Off ch=3 n=33 v=0
2835370 Off ch=3 n=33 v=0
2835442 On ch=3 n=23 v=100
2835502 On ch=3 n=41 v=100
2835595 On ch=3 n=39 v=100
2835595 On ch=3 n=39 v=100
2835609 Off ch=3 n=23 v=0
2835614 On ch=3 n=31 v=100
2835731 On ch=3 n=38 v=100
2835794 Off ch=3 n=31 v=0
2835828 Off ch=3 n=41 v=0
2835845 Off ch=3 n=39 v=0
2835845 Off ch=3 n=39 v=0
2835875 Off ch=3 n=38 v=0
2837100 On ch=3 n=25 v=100
2837234 Off ch=3 n=25 v=0
2837299 On ch=3 n=13 v=100
2837356 On ch=3 n=8 v=100
2837401 Off ch=3 n=13 v=0
2837645 On ch=3 n=32 v=100
2837645 On ch=3 n=32 v=100
2837730 On ch=3 n=19 v=100
2837799 On ch=3 n=16 v=100
2837799 On ch=3 n=16 v=100
2837831 Off ch=3 n=8 v=0
2838060 Off ch=3 n=32 v=0
2838060 Off ch=3 n=32 v=0
2838148 On ch=3 n=13 v=100
2838176 Off ch=3 n=19 v=0
2838216 Off ch=3 n=16 v=0
2838216 Off ch=3 n=16 v=0
2838365 Off ch=3 n=13 v=0
2838410 On ch=3 n=13 v=100
2838585 Off ch=3 n=13 v=0
2839494 On ch=3 n=25 v=100
2839505 On ch=3 n=5 v=100
2839591 Off ch=3 n=25 v=0
2840004 Off ch=3 n=5 v=0
2841686 On ch=3 n=54 v=100
2841903 Off ch=3 n=54 v=0
2842302 On ch=3 n=7 v=100
2842678 On ch=3 n=13 v=100
2842684 Off ch=3 n=7 v=0
2842809 On ch=3 n=33 v=100
2842861 Off ch=3 n=13 v=0
2842872 On ch=3 n=20 v=100
2842921 On ch=3 n=17 v=100
2843020 On ch=3 n=20 v=100
2843318 Off ch=3 n=33 v=0
2843318 Off ch=3 n=20 v=0
2843318 Off ch=3 n=17 v=0
2843425 Off ch=3 n=20 v=0
2843440 On ch=3 n=29 v=100
2843440 On ch=3 n=29 v=100
2843508 On ch=3 n=6 v=100
2843781 Off ch=3 n=6 v=0
2843891 On ch=3 n=4 v=100
2844245 Off ch=3 n=29 v=0
2844245 Off ch=3 n=29 v=0
2844829 Off ch=3 n=4 v=0
2844899 On ch=3 n=14 v=100
2845329 Off ch=3 n=14 v=0
2846725 On ch=3 n=11 v=100
2846956 Off ch=3 n=11 v=0
2847842 On ch=3 n=22 v=100
2847918 Off ch=3 n=22 v=0
2850193 On ch=3 n=7 v=100
2850490 Off ch=3 n=7 v=0
2850546 On ch=3 n=12 v=100
2851023 On ch=3 n=8 v=100
2851210 On ch=3 n=21 v=100
2851225 Off ch=3 n=12 v=0
2851256 Off ch=3 n=8 v=0
2851311 Off ch=3 n=21 v=0
2851325 On ch=3 n=9 v=100
2851546 Off ch=3 n=9 v=0
2851670 On ch=3 n=6 v=100
2852014 On ch=3 n=25 v=100
2852166 Off ch=3 n=6 v=0
2852168 On ch=3 n=8 v=100
2852191 Off ch=3 n=25 v=0
2852208 Off ch=3 n=8 v=0
2852548 On ch=3 n=11 v=100
2852592 On ch=3 n=14 v=100
2852723 Off ch=3 n=11 v=0
2852746 Off ch=3 n=14 v=0
2853500 On ch=3 n=22 v=100
2853521 On ch=3 n=26 v=100
2853566 Off ch=3 n=22 v=0
2853577 Off ch=3 n=26 v=0
2854705 On ch=3 n=45 v=100
2854719 On ch=3 n=29 v=100
2854780 On ch=3 n=38 v=100
2854783 Off ch=3 n=45 v=0
2854783 Off ch=3 n=29 v=0
2854865 Off ch=3 n=38 v=0
2854871 On ch=3 n=36 v=100
2854903 On ch=3 n=29 v=100
2855017 Off ch=3 n=36 v=0
2855018 Off ch=3 n=29 v=0
2855490 On ch=3 n=7 v=100
2855588 On ch=3 n=6 v=100
2855604 Off ch=3 n=7 v=0
2855882 Off ch=3 n=6 v=0
2855884 On ch=3 n=9 v=100
2855986 On ch=3 n=8 v=100
2856000 Off ch=3 n=9 v=0
2856669 On ch=3 n=14 v=100
2856682 Off ch=3 n=8 v=0
2856762 On ch=3 n=18 v=100
2856775 Off ch=3 n=14 v=0
2856827 On ch=3 n=15 v=100
2856876 Off ch=3 n=18 v=0
2856878 On ch=3 n=10 v=100
2857297 Off ch=3 n=15 v=0
2857299 Off ch=3 n=10 v=0
2857300 On ch=3 n=16 v=100
2857390 Off ch=3 n=16 v=0
2857535 On ch=3 n=36 v=100
2857601 Off ch=3 n=36 v=0
2857660 On ch=3 n=9 v=100
2858348 Off ch=3 n=9 v=0
2858354 On ch=3 n=10 v=100
2858432 Off ch=3 n=10 v=0
2858688 On ch=3 n=3 v=100
2859911 Off ch=3 n=3 v=0
2860004 On ch=3 n=13 v=100
2860432 On ch=3 n=15 v=100
2860451 Off ch=3 n=13 v=0
2860516 On ch=3 n=10 v=100
2860656 On ch=3 n=6 v=100
2861209 Off ch=3 n=15 v=0
2861502 Off ch=3 n=10 v=0
2861590 Off ch=3 n=6 v=0
2867129 On ch=3 n=7 v=100
2867235 Off ch=3 n=7 v=0
2867265 On ch=3 n=22 v=100
2867355 Off ch=3 n=22 v=0
2867416 On ch=3 n=10 v=100
2867524 On ch=3 n=18 v=100
2867555 On ch=3 n=9 v=100
2867586 Off ch=3 n=10 v=0
2867796 Off ch=3 n=18 v=0
2867837 Off ch=3 n=9 v=0
2867845 On ch=3 n=16 v=100
2867884 Off ch=3 n=16 v=0
2867891 On ch=3 n=42 v=100
2868003 Off ch=3 n=42 v=0
2869487 On ch=3 n=20 v=100
2869526 On ch=3 n=18 v=100
2869815 Off ch=3 n=20 v=0
2869901 On ch=3 n=29 v=100
2870146 Off ch=3 n=18 v=0
2870219 Off ch=3 n=29 v=0
2871151 On ch=3 n=62 v=100
2871291 On ch=3 n=13 v=100
2871355 Off ch=3 n=13 v=0
2871362 Off ch=3 n=62 v=0
2871373 On ch=3 n=11 v=100
2871767 On ch=3 n=24 v=100
2871786 Off ch=3 n=11 v=0
2871873 Off ch=3 n=24 v=0
2872005 On ch=3 n=2 v=100
2873278 On ch=3 n=19 v=100
2873278 On ch=3 n=19 v=100
2873300 Off ch=3 n=2 v=0
2873623 On ch=3 n=11 v=100
2873726 Off ch=3 n=19 v=0
2873726 Off ch=3 n=19 v=0
2873957 On ch=3 n=14 v=100
2873962 Off ch=3 n=11 v=0
2874165 Off ch=3 n=14 v=0
2874363 On ch=3 n=4 v=100
2874426 Off ch=3 n=4 v=0
2874520 On ch=3 n=4 v=100
2874956 On ch=3 n=27 v=100
2874960 Off ch=3 n=4 v=0
2875050 On ch=3 n=13 v=100
2875158 Off ch=3 n=27 v=0
2875645 Off ch=3 n=13 v=0
2875879 On ch=3 n=9 v=100
2875879 On ch=3 n=17 v=100
2876159 Off ch=3 n=9 v=0
2876196 Off ch=3 n=17 v=0
2876268 On ch=3 n=27 v=100
2876332 Off ch=3 n=27 v=0
2876458 On ch=3 n=40 v=100
2876574 Off ch=3 n=40 v=0
2876594 On ch=3 n=2 v=100
2876746 Off ch=3 n=2 v=0
2876795 On ch=3 n=9 v=100
2876986 On ch=3 n=5 v=100
2877832 On ch=3 n=3 v=100
2878250 Off ch=3 n=9 v=0
2878250 Off ch=3 n=5 v=0
2878671 Off ch=3 n=3 v=0
2878761 On ch=3 n=13 v=100
2878895 Off ch=3 n=13 v=0
2878898 On ch=3 n=8 v=100
2879029 Off ch=3 n=8 v=0
2879308 On ch=3 n=8 v=100
2879495 Off ch=3 n=8 v=0
2879503 On ch=3 n=17 v=100
2879631 On ch=3 n=10 v=100
2879989 Off ch=3 n=10 v=0
2879993 Off ch=3 n=17 v=0
2884009 On ch=3 n=8 v=100
2884056 Off ch=3 n=8 v=0
2884089 On ch=3 n=9 v=100
2884335 On ch=3 n=4 v=100
2884335 Off ch=3 n=9 v=0
2884895 Off ch=3 n=4 v=0
2884897 On ch=3 n=3 v=100
2886092 On ch=3 n=6 v=100
2886092 Off ch=3 n=3 v=0
2886692 Off ch=3 n=6 v=0
2887702 On ch=3 n=11 v=100
2887805 Off ch=3 n=11 v=0
2889250 On ch=3 n=23 v=100
2889592 Off ch=3 n=23 v=0
2889595 On ch=3 n=37 v=100
2889840 Off ch=3 n=37 v=0
2889855 On ch=3 n=26 v=100
2889980 Off ch=3 n=26 v=0
2891184 On ch=3 n=27 v=100
2891268 Off ch=3 n=27 v=0
2891750 On ch=3 n=2 v=100
2891856 Off ch=3 n=2 v=0
2892638 On ch=3 n=12 v=100
2892818 Off ch=3 n=12 v=0
2892820 On ch=3 n=5 v=100
2892820 On ch=3 n=22 v=100
2892967 On ch=3 n=1 v=100
2892967 On ch=3 n=1 v=100
2892974 Off ch=3 n=5 v=0
2893015 Off ch=3 n=22 v=0
2893113 On ch=3 n=40 v=100
2893795 On ch=3 n=1 v=100
2893795 On ch=3 n=1 v=100
2893831 Off ch=3 n=1 v=0
2893831 Off ch=3 n=1 v=0
2894053 Off ch=3 n=40 v=0
2894797 On ch=3 n=3 v=100
2894800 On ch=3 n=46 v=100
2894814 Off ch=3 n=1 v=0
2894814 Off ch=3 n=1 v=0
2895394 On ch=3 n=2 v=100
2895490 Off ch=3 n=3 v=0
2896073 Off ch=3 n=46 v=0
2896305 On ch=3 n=41 v=100
2896319 Off ch=3 n=2 v=0
2896552 On ch=3 n=1 v=100
2897103 On ch=3 n=2 v=100
2897119 Off ch=3 n=41 v=0
2897140 Off ch=3 n=1 v=0
2897494 On ch=3 n=6 v=100
2897512 Off ch=3 n=2 v=0
2897762 Off ch=3 n=6 v=0
2897774 On ch=3 n=7 v=100
2898487 Off ch=3 n=7 v=0
2898499 On ch=3 n=2 v=100
2902569 Off ch=3 n=2 v=0
2902605 On ch=3 n=2 v=100
2903103 Off ch=3 n=2 v=0
2903132 On ch=3 n=2 v=100
2903919 On ch=3 n=8 v=100
2903919 Off ch=3 n=2 v=0
2905529 Off ch=3 n=8 v=0
2905530 On ch=3 n=11 v=100
2906094 Off ch=3 n=11 v=0
2906131 On ch=3 n=11 v=100
2906213 On ch=3 n=6 v=100
2906213 Off ch=3 n=11 v=0
2907139 On ch=3 n=6 v=100
2907161 Off ch=3 n=6 v=0
2907181 On ch=3 n=15 v=100
2907185 Off ch=3 n=6 v=0
2907733 Off ch=3 n=15 v=0
2907832 On ch=3 n=19 v=100
2908072 Off ch=3 n=19 v=0
2908165 On ch=3 n=10 v=100
2908387 Off ch=3 n=10 v=0
2908499 On ch=3 n=30 v=100
2908657 On ch=3 n=26 v=100
2908757 Off ch=3 n=30 v=0
2908775 Off ch=3 n=26 v=0
2908906 On ch=3 n=7 v=100
2909148 On ch=3 n=12 v=100
2909148 Off ch=3 n=7 v=0
2909210 On ch=3 n=32 v=100
2909227 Off ch=3 n=12 v=0
2909267 Off ch=3 n=32 v=0
2909272 On ch=3 n=11 v=100
2909283 On ch=3 n=6 v=100
2909355 Off ch=3 n=11 v=0
2909574 Off ch=3 n=6 v=0
2909615 On ch=3 n=29 v=100
2909880 Off ch=3 n=29 v=0
2910064 On ch=3 n=29 v=100
2910335 Off ch=3 n=29 v=0
2910666 On ch=3 n=48 v=100
2910828 Off ch=3 n=48 v=0
2910849 On ch=3 n=11 v=100
2910862 On ch=3 n=11 v=100
2911327 Off ch=3 n=11 v=0
2911327 Off ch=3 n=11 v=0
2911363 On ch=3 n=11 v=100
2911363 On ch=3 n=11 v=100
2911412 Off ch=3 n=11 v=0
2911516 Off ch=3 n=11 v=0
2911681 On ch=3 n=12 v=100
2912095 Off ch=3 n=12 v=0
2912117 On ch=3 n=12 v=100
2912798 Off ch=3 n=12 v=0
2912953 On ch=3 n=24 v=100
2913077 Off ch=3 n=24 v=0
2914618 On ch=3 n=16 v=100
2914665 On ch=3 n=14 v=100
2914678 Off ch=3 n=16 v=0
2914794 Off ch=3 n=14 v=0
2915432 On ch=3 n=9 v=100
2915697 Off ch=3 n=9 v=0
2915949 On ch=3 n=24 v=100
2915965 On ch=3 n=13 v=100
2915986 On ch=3 n=13 v=100
2916041 Off ch=3 n=13 v=0
2916046 Off ch=3 n=24 v=0
2916075 Off ch=3 n=13 v=0
2916093 On ch=3 n=5 v=100
2916199 Off ch=3 n=5 v=0
2916884 On ch=3 n=19 v=100
2917542 Off ch=3 n=19 v=0
2917543 On ch=3 n=13 v=100
2917634 On ch=3 n=5 v=100
2917768 On ch=3 n=12 v=100
2917783 Off ch=3 n=13 v=0
2917871 On ch=3 n=7 v=100
2917877 Off ch=3 n=5 v=0
2917918 Off ch=3 n=12 v=0
2918035 On ch=3 n=7 v=100
2918049 Off ch=3 n=7 v=0
2918494 Off ch=3 n=7 v=0
2919410 On ch=3 n=5 v=100
2920112 On ch=3 n=7 v=100
2920113 Off ch=3 n=5 v=0
2920145 On ch=3 n=21 v=100
2920168 Off ch=3 n=7 v=0
2920394 Off ch=3 n=21 v=0
2921606 On ch=3 n=9 v=100
2922064 On ch=3 n=10 v=100
2922064 Off ch=3 n=9 v=0
2922366 On ch=3 n=12 v=100
2922381 Off ch=3 n=10 v=0
2922770 Off ch=3 n=12 v=0
2922801 On ch=3 n=12 v=100
2922935 Off ch=3 n=12 v=0
2922975 On ch=3 n=18 v=100
2923614 Off ch=3 n=18 v=0
2923925 On ch=3 n=10 v=100
2924212 Off ch=3 n=10 v=0
2924215 On ch=3 n=9 v=100
2924637 On ch=3 n=14 v=100
2924637 Off ch=3 n=9 v=0
2924742 On ch=3 n=10 v=100
2924756 Off ch=3 n=14 v=0
2924985 Off ch=3 n=10 v=0
2925075 On ch=3 n=16 v=100
2925096 On ch=3 n=2 v=100
2925255 Off ch=3 n=16 v=0
2925736 Off ch=3 n=2 v=0
2925831 On ch=3 n=2 v=100
2926795 Off ch=3 n=2 v=0
2932003 On ch=3 n=85 v=100
2932370 Off ch=3 n=85 v=0
2932825 On ch=3 n=68 v=100
2933400 Off ch=3 n=68 v=0
2933411 On ch=3 n=30 v=100
2933655 Off ch=3 n=30 v=0
2933764 On ch=3 n=4 v=100
2935028 Off ch=3 n=4 v=0
2935094 On ch=3 n=4 v=100
2935767 On ch=3 n=22 v=100
2935792 Off ch=3 n=4 v=0
2935837 Off ch=3 n=22 v=0
2943188 On ch=3 n=5 v=100
2945141 Off ch=3 n=5 v=0
2945143 On ch=3 n=6 v=100
2947995 On ch=3 n=2 v=100
2948000 Off ch=3 n=6 v=0
2948142 On ch=3 n=28 v=100
2948154 Off ch=3 n=2 v=0
2948158 On ch=3 n=16 v=100
2948225 Off ch=3 n=28 v=0
2948333 Off ch=3 n=16 v=0
2948418 On ch=3 n=53 v=100
2948860 Off ch=3 n=53 v=0
2949284 On ch=3 n=53 v=100
2949332 On ch=3 n=39 v=100
2949339 On ch=3 n=48 v=100
2949530 Off ch=3 n=53 v=0
2949531 Off ch=3 n=39 v=0
2949579 Off ch=3 n=48 v=0
2949768 On ch=3 n=31 v=100
2949800 On ch=3 n=10 v=100
2949800 On ch=3 n=33 v=100
2949809 On ch=3 n=37 v=100
2949983 Off ch=3 n=10 v=0
2949984 Off ch=3 n=31 v=0
2950037 Off ch=3 n=33 v=0
2950065 Off ch=3 n=37 v=0
2951742 On ch=3 n=8 v=100
2952274 On ch=3 n=7 v=100
2952275 Off ch=3 n=8 v=0
2952548 Off ch=3 n=7 v=0
2954660 On ch=3 n=6 v=100
2955274 Off ch=3 n=6 v=0
2955904 On ch=3 n=25 v=100
2955991 Off ch=3 n=25 v=0
2956032 On ch=3 n=33 v=100
2956128 On ch=3 n=25 v=100
2956134 On ch=3 n=29 v=100
2956180 Off ch=3 n=33 v=0
2956193 On ch=3 n=30 v=100
2956332 Off ch=3 n=25 v=0
2956333 On ch=3 n=38 v=100
2956424 Off ch=3 n=29 v=0
2956434 On ch=3 n=27 v=100
2956495 Off ch=3 n=30 v=0
2956542 Off ch=3 n=27 v=0
2956625 Off ch=3 n=38 v=0
2956878 On ch=3 n=13 v=100
2956899 On ch=3 n=6 v=100
2957036 Off ch=3 n=13 v=0
2958034 On ch=3 n=13 v=100
2958150 Off ch=3 n=6 v=0
2958168 Off ch=3 n=13 v=0
2958504 On ch=3 n=31 v=100
2958706 Off ch=3 n=31 v=0
2958707 On ch=3 n=21 v=100
2958708 On ch=3 n=33 v=100
2959051 Off ch=3 n=21 v=0
2959123 Off ch=3 n=33 v=0
2962177 On ch=3 n=37 v=100
2962269 Off ch=3 n=37 v=0
2962899 On ch=3 n=46 v=100
2962899 On ch=3 n=46 v=100
2962982 On ch=3 n=28 v=100
2963083 On ch=3 n=12 v=100
2963275 Off ch=3 n=12 v=0
2963281 Off ch=3 n=28 v=0
2963335 Off ch=3 n=46 v=0
2963335 Off ch=3 n=46 v=0
2964751 On ch=3 n=19 v=100
2965133 Off ch=3 n=19 v=0
2969195 On ch=3 n=6 v=100
2969437 Off ch=3 n=6 v=0
2969482 On ch=3 n=7 v=100
2969949 On ch=3 n=24 v=100
2969981 Off ch=3 n=7 v=0
2970043 Off ch=3 n=24 v=0
2970727 On ch=3 n=28 v=100
2970743 On ch=3 n=5 v=100
2970781 Off ch=3 n=28 v=0
2971666 Off ch=3 n=5 v=0
2972535 On ch=3 n=14 v=100
2972929 Off ch=3 n=14 v=0
2973028 On ch=3 n=7 v=100
2973541 On ch=3 n=6 v=100
2973541 Off ch=3 n=7 v=0
2974935 On ch=3 n=4 v=100
2974939 Off ch=3 n=6 v=0
2975333 Off ch=3 n=4 v=0
2975478 On ch=3 n=10 v=100
2975539 Off ch=3 n=10 v=0
2976641 On ch=3 n=11 v=100
2976641 On ch=3 n=17 v=100
2976641 On ch=3 n=24 v=100
2976698 On ch=3 n=48 v=100
2976698 On ch=3 n=48 v=100
2976834 Off ch=3 n=11 v=0
2976880 Off ch=3 n=17 v=0
2976934 Off ch=3 n=24 v=0
2976964 On ch=3 n=21 v=100
2977165 Off ch=3 n=21 v=0
2977167 On ch=3 n=14 v=100
2977278 Off ch=3 n=48 v=0
2977278 Off ch=3 n=48 v=0
2977591 Off ch=3 n=14 v=0
2977592 On ch=3 n=9 v=100
2978264 On ch=3 n=37 v=100
2978434 Off ch=3 n=9 v=0
2978477 Off ch=3 n=37 v=0
2979583 On ch=3 n=20 v=100
2979716 Off ch=3 n=20 v=0
2987458 On ch=3 n=18 v=100
2987568 Off ch=3 n=18 v=0
2987600 On ch=3 n=20 v=100
2987603 On ch=3 n=27 v=100
2987799 Off ch=3 n=20 v=0
2987827 Off ch=3 n=27 v=0
2988097 On ch=3 n=8 v=100
2989200 Off ch=3 n=8 v=0
2990361 On ch=3 n=29 v=100
2990506 Off ch=3 n=29 v=0
2990673 On ch=3 n=10 v=100
2990740 Off ch=3 n=10 v=0
2990755 On ch=3 n=11 v=100
2991364 Off ch=3 n=11 v=0
2991370 On ch=3 n=25 v=100
2991594 On ch=3 n=9 v=100
2991606 Off ch=3 n=25 v=0
2992052 Off ch=3 n=9 v=0
2992417 On ch=3 n=11 v=100
2992948 Off ch=3 n=11 v=0
2992949 On ch=3 n=4 v=100
2993379 Off ch=3 n=4 v=0
2993383 On ch=3 n=29 v=100
2993400 On ch=3 n=3 v=100
2993495 Off ch=3 n=29 v=0
2994195 Off ch=3 n=3 v=0
2994684 On ch=3 n=5 v=100
2994962 Off ch=3 n=5 v=0
2995245 On ch=3 n=2 v=100
2995743 On ch=3 n=2 v=100
2995747 Off ch=3 n=2 v=0
2996892 On ch=3 n=2 v=100
2996893 Off ch=3 n=2 v=0
2997257 Off ch=3 n=2 v=0
2997405 On ch=3 n=2 v=100
2997795 Off ch=3 n=2 v=0
2997807 On ch=3 n=8 v=100
2998574 Off ch=3 n=8 v=0
2998663 On ch=3 n=8 v=100
2999007 On ch=3 n=9 v=100
2999019 Off ch=3 n=8 v=0
2999063 Off ch=3 n=9 v=0
2999155 On ch=3 n=11 v=100
2999338 On ch=3 n=15 v=100
2999349 Off ch=3 n=11 v=0
2999353 On ch=3 n=11 v=100
2999380 Off ch=3 n=15 v=0
2999680 Off ch=3 n=11 v=0
3000267 On ch=3 n=8 v=100
3000507 Off ch=3 n=8 v=0
3000508 On ch=3 n=6 v=100
3001428 Off ch=3 n=6 v=0
3001457 On ch=3 n=10 v=100
3002162 Off ch=3 n=10 v=0
3002164 On ch=3 n=3 v=100
3002338 Off ch=3 n=3 v=0
3002342 On ch=3 n=6 v=100
3002449 Off ch=3 n=6 v=0
3002513 On ch=3 n=40 v=100
3002595 On ch=3 n=33 v=100
3002611 On ch=3 n=28 v=100
3002726 Off ch=3 n=40 v=0
3002726 Off ch=3 n=33 v=0
3002726 Off ch=3 n=28 v=0
3003491 On ch=3 n=44 v=100
3003705 Off ch=3 n=44 v=0
3003746 On ch=3 n=44 v=100
3003764 Off ch=3 n=44 v=0
3003767 On ch=3 n=12 v=100
3004280 Off ch=3 n=12 v=0
3004298 On ch=3 n=15 v=100
3004424 Off ch=3 n=15 v=0
3004948 On ch=3 n=14 v=100
3005396 Off ch=3 n=14 v=0
3005400 On ch=3 n=23 v=100
3005664 Off ch=3 n=23 v=0
3005694 On ch=3 n=19 v=100
3005822 Off ch=3 n=19 v=0
3005882 On ch=3 n=8 v=100
3005975 On ch=3 n=55 v=100
3006109 Off ch=3 n=8 v=0
3006187 On ch=3 n=40 v=100
3006192 On ch=3 n=40 v=100
3006475 Off ch=3 n=55 v=0
3006531 Off ch=3 n=40 v=0
3006596 Off ch=3 n=40 v=0
3008748 On ch=3 n=1 v=100
3009678 Off ch=3 n=1 v=0
3011115 On ch=3 n=4 v=100
3014114 Off ch=3 n=4 v=0
3014721 On ch=3 n=20 v=100
3014827 Off ch=3 n=20 v=0
3015006 On ch=3 n=6 v=100
3015630 On ch=3 n=11 v=100
3015635 Off ch=3 n=6 v=0
3015781 Off ch=3 n=11 v=0
3015807 On ch=3 n=11 v=100
3016169 Off ch=3 n=11 v=0
3026774 On ch=3 n=5 v=100
3026808 Off ch=3 n=5 v=0
3026816 On ch=3 n=2 v=100
3026915 On ch=3 n=37 v=100
3026963 Off ch=3 n=2 v=0
3026969 Off ch=3 n=37 v=0
3028573 On ch=3 n=5 v=100
3029111 Off ch=3 n=5 v=0
3030287 On ch=3 n=14 v=100
3031347 Off ch=3 n=14 v=0
3031912 On ch=3 n=10 v=100
3032174 Off ch=3 n=10 v=0
3032184 On ch=3 n=17 v=100
3032515 On ch=3 n=30 v=100
3032529 Off ch=3 n=17 v=0
3032589 Off ch=3 n=30 v=0
3032602 On ch=3 n=17 v=100
3032703 Off ch=3 n=17 v=0
3032711 On ch=3 n=21 v=100
3032770 Off ch=3 n=21 v=0
3032780 On ch=3 n=17 v=100
3032953 Off ch=3 n=17 v=0
3032986 On ch=3 n=5 v=100
3033101 Off ch=3 n=5 v=0
3033104 On ch=3 n=3 v=100
3034180 Off ch=3 n=3 v=0
3037461 On ch=3 n=6 v=100
3037763 Off ch=3 n=6 v=0
3038800 On ch=3 n=20 v=100
3038844 Off ch=3 n=20 v=0
3044120 On ch=3 n=6 v=100
3045126 Off ch=3 n=6 v=0
3045320 On ch=3 n=25 v=100
3045365 On ch=3 n=16 v=100
3045659 Off ch=3 n=25 v=0
3045659 Off ch=3 n=16 v=0
3045913 On ch=3 n=15 v=100
3046033 Off ch=3 n=15 v=0
3047656 On ch=3 n=9 v=100
3047952 Off ch=3 n=9 v=0
3048718 On ch=3 n=7 v=100
3049518 Off ch=3 n=7 v=0
3050448 On ch=3 n=4 v=100
3053427 Off ch=3 n=4 v=0
3054092 On ch=3 n=23 v=100
3054204 Off ch=3 n=23 v=0
3054383 On ch=3 n=7 v=100
3055008 On ch=3 n=10 v=100
3055013 Off ch=3 n=7 v=0
3055159 Off ch=3 n=10 v=0
3055185 On ch=3 n=13 v=100
3055552 Off ch=3 n=13 v=0
3063325 On ch=3 n=5 v=100
3063536 On ch=3 n=41 v=100
3063584 Off ch=3 n=5 v=0
3063591 Off ch=3 n=41 v=0
3063693 On ch=3 n=49 v=100
3063835 Off ch=3 n=49 v=0
3067195 On ch=3 n=4 v=100
3068085 Off ch=3 n=4 v=0
3068151 On ch=3 n=3 v=100
3068311 Off ch=3 n=3 v=0
3068348 On ch=3 n=9 v=100
3068348 On ch=3 n=2 v=100
3068450 Off ch=3 n=9 v=0
3068854 On ch=3 n=20 v=100
3068915 On ch=3 n=13 v=100
3069008 On ch=3 n=8 v=100
3069011 Off ch=3 n=2 v=0
3069341 On ch=3 n=1 v=100
3069357 Off ch=3 n=8 v=0
3069359 Off ch=3 n=20 v=0
3069361 Off ch=3 n=13 v=0
3070025 Off ch=3 n=1 v=0
3070106 On ch=3 n=6 v=100
3070369 On ch=3 n=19 v=100
3070873 Off ch=3 n=6 v=0
3071511 Off ch=3 n=19 v=0
3071565 On ch=3 n=12 v=100
3071660 On ch=3 n=6 v=100
3071739 On ch=3 n=44 v=100
3071760 On ch=3 n=35 v=100
3071818 On ch=3 n=36 v=100
3071824 On ch=3 n=23 v=100
3071825 Off ch=3 n=6 v=0
3071826 Off ch=3 n=12 v=0
3071892 Off ch=3 n=44 v=0
3071892 Off ch=3 n=35 v=0
3071892 Off ch=3 n=23 v=0
3071907 Off ch=3 n=36 v=0
3072842 On ch=3 n=4 v=100
3073251 Off ch=3 n=4 v=0
3073317 On ch=3 n=4 v=100
3073400 On ch=3 n=7 v=100
3073402 Off ch=3 n=4 v=0
3073402 Off ch=3 n=7 v=0
3073552 On ch=3 n=7 v=100
3074217 Off ch=3 n=7 v=0
3085156 On ch=3 n=28 v=100
3085168 On ch=3 n=37 v=100
3085440 Off ch=3 n=28 v=0
3085513 Off ch=3 n=37 v=0
3085586 On ch=3 n=37 v=100
3085773 Off ch=3 n=37 v=0
3087379 On ch=3 n=5 v=100
3087961 Off ch=3 n=5 v=0
3087963 On ch=3 n=5 v=100
3089147 Off ch=3 n=5 v=0
3091418 On ch=3 n=4 v=100
3091694 Off ch=3 n=4 v=0
3093314 On ch=3 n=46 v=100
3093675 Off ch=3 n=46 v=0
3101692 On ch=3 n=46 v=100
3102053 Off ch=3 n=46 v=0
3102400 On ch=3 n=61 v=100
3102519 Off ch=3 n=61 v=0
3106313 On ch=3 n=45 v=100
3106674 Off ch=3 n=45 v=0
3107021 On ch=3 n=61 v=100
3107140 Off ch=3 n=61 v=0
3107587 On ch=3 n=26 v=100
3109097 Off ch=3 n=26 v=0
3109164 On ch=3 n=26 v=100
3109441 On ch=3 n=9 v=100
3109456 Off ch=3 n=26 v=0
3109857 Off ch=3 n=9 v=0
3109859 On ch=3 n=5 v=100
3109962 Off ch=3 n=5 v=0
3112121 On ch=3 n=6 v=100
3112188 Off ch=3 n=6 v=0
3112961 On ch=3 n=23 v=100
3113058 Off ch=3 n=23 v=0
3113350 On ch=3 n=26 v=100
3113393 Off ch=3 n=26 v=0
3113512 On ch=3 n=6 v=100
3113688 On ch=3 n=8 v=100
3113690 Off ch=3 n=6 v=0
3113976 Off ch=3 n=8 v=0
3114000 On ch=3 n=2 v=100
3114380 On ch=3 n=20 v=100
3114550 Off ch=3 n=2 v=0
3114604 Off ch=3 n=20 v=0
3114772 On ch=3 n=26 v=100
3114869 Off ch=3 n=26 v=0
3114898 On ch=3 n=7 v=100
3115154 Off ch=3 n=7 v=0
3115167 On ch=3 n=17 v=100
3115230 Off ch=3 n=17 v=0
3115356 On ch=3 n=10 v=100
3115453 Off ch=3 n=10 v=0
3115510 On ch=3 n=8 v=100
3115669 On ch=3 n=11 v=100
3115690 Off ch=3 n=8 v=0
3116064 On ch=3 n=5 v=100
3116064 Off ch=3 n=11 v=0
3116552 Off ch=3 n=5 v=0
3117124 On ch=3 n=21 v=100
3117167 Off ch=3 n=21 v=0
3118458 On ch=3 n=29 v=100
3118594 Off ch=3 n=29 v=0
3118946 On ch=3 n=4 v=100
3119763 Off ch=3 n=4 v=0
3120446 On ch=3 n=16 v=100
3120493 On ch=3 n=13 v=100
3120506 Off ch=3 n=16 v=0
3120622 Off ch=3 n=13 v=0
3121322 On ch=3 n=11 v=100
3121622 Off ch=3 n=11 v=0
3121849 On ch=3 n=26 v=100
3121866 On ch=3 n=24 v=100
3121879 On ch=3 n=16 v=100
3121941 Off ch=3 n=24 v=0
3121946 Off ch=3 n=26 v=0
3121975 Off ch=3 n=16 v=0
3121993 On ch=3 n=4 v=100
3122115 Off ch=3 n=4 v=0
3122800 On ch=3 n=18 v=100
3123457 Off ch=3 n=18 v=0
3123459 On ch=3 n=13 v=100
3123495 On ch=3 n=7 v=100
3123698 Off ch=3 n=13 v=0
3123922 On ch=3 n=7 v=100
3123936 Off ch=3 n=7 v=0
3124406 Off ch=3 n=7 v=0
3125255 On ch=3 n=10 v=100
3125546 Off ch=3 n=10 v=0
3125852 On ch=3 n=15 v=100
3126717 Off ch=3 n=15 v=0
3126727 On ch=3 n=5 v=100
3127432 On ch=3 n=7 v=100
3127433 Off ch=3 n=5 v=0
3127465 On ch=3 n=20 v=100
3127488 Off ch=3 n=7 v=0
3127714 Off ch=3 n=20 v=0
3129004 On ch=3 n=9 v=100
3129467 On ch=3 n=12 v=100
3129467 Off ch=3 n=9 v=0
3129731 On ch=3 n=14 v=100
3129746 Off ch=3 n=12 v=0
3130620 Off ch=3 n=14 v=0
3130933 On ch=3 n=8 v=100
3131221 Off ch=3 n=8 v=0
3131223 On ch=3 n=9 v=100
3131643 On ch=3 n=11 v=100
3131654 Off ch=3 n=9 v=0
3131751 On ch=3 n=10 v=100
3131765 Off ch=3 n=11 v=0
3132073 Off ch=3 n=10 v=0
3134885 On ch=3 n=12 v=100
3134885 On ch=3 n=29 v=100
3135189 Off ch=3 n=12 v=0
3135225 Off ch=3 n=29 v=0
3141800 On ch=3 n=14 v=100
3142245 Off ch=3 n=14 v=0
3142272 On ch=3 n=28 v=100
3142276 On ch=3 n=38 v=100
3142321 On ch=3 n=47 v=100
3142330 On ch=3 n=15 v=100
3142332 On ch=3 n=18 v=100
3142365 Off ch=3 n=28 v=0
3142385 Off ch=3 n=38 v=0
3142397 Off ch=3 n=18 v=0
3142428 Off ch=3 n=15 v=0
3142464 Off ch=3 n=47 v=0
3143369 On ch=3 n=62 v=100
3143634 Off ch=3 n=62 v=0
3143745 On ch=3 n=36 v=100
3144049 Off ch=3 n=36 v=0
3144077 On ch=3 n=9 v=100
3144663 On ch=3 n=39 v=100
3144663 On ch=3 n=39 v=100
3144674 On ch=3 n=47 v=100
3144706 Off ch=3 n=9 v=0
3144733 On ch=3 n=25 v=100
3144738 On ch=3 n=5 v=100
3144912 Off ch=3 n=5 v=0
3144920 Off ch=3 n=47 v=0
3144937 Off ch=3 n=25 v=0
3144949 Off ch=3 n=39 v=0
3144949 Off ch=3 n=39 v=0
3144972 On ch=3 n=28 v=100
3144972 On ch=3 n=53 v=100
3145099 Off ch=3 n=28 v=0
3145105 On ch=3 n=26 v=100
3145147 On ch=3 n=20 v=100
3145147 On ch=3 n=20 v=100
3145175 Off ch=3 n=53 v=0
3145212 On ch=3 n=11 v=100
3145268 On ch=3 n=24 v=100
3145496 Off ch=3 n=26 v=0
3145625 Off ch=3 n=11 v=0
3145672 Off ch=3 n=20 v=0
3145672 Off ch=3 n=20 v=0
3145808 Off ch=3 n=24 v=0
3146381 On ch=3 n=39 v=100
3146497 Off ch=3 n=39 v=0
3147940 On ch=3 n=17 v=100
3147984 Off ch=3 n=17 v=0
3148785 On ch=3 n=18 v=100
3149265 Off ch=3 n=18 v=0
3149403 On ch=3 n=15 v=100
3149440 On ch=3 n=8 v=100
3149712 Off ch=3 n=15 v=0
3149712 Off ch=3 n=8 v=0
3149714 On ch=3 n=4 v=100
3149915 Off ch=3 n=4 v=0
3150455 On ch=3 n=25 v=100
3150787 On ch=3 n=34 v=100
3150790 Off ch=3 n=25 v=0
3150872 Off ch=3 n=34 v=0
3151036 On ch=3 n=3 v=100
3151705 Off ch=3 n=3 v=0
3151747 On ch=3 n=25 v=100
3151863 Off ch=3 n=25 v=0
3152821 On ch=3 n=7 v=100
3153133 Off ch=3 n=7 v=0
3153236 On ch=3 n=9 v=100
3153968 Off ch=3 n=9 v=0
3154992 On ch=3 n=28 v=100
3155165 Off ch=3 n=28 v=0
3155297 On ch=3 n=9 v=100
3155349 Off ch=3 n=9 v=0
3155355 On ch=3 n=13 v=100
3155823 Off ch=3 n=13 v=0
3157477 On ch=3 n=7 v=100
3159557 On ch=3 n=31 v=100
3159977 On ch=3 n=1 v=100
3159977 Off ch=3 n=7 v=0
3160201 Off ch=3 n=31 v=0
3160798 Off ch=3 n=1 v=0
3186519 On ch=3 n=19 v=100
3186594 Off ch=3 n=19 v=0
3187218 On ch=3 n=4 v=100
3187559 On ch=3 n=7 v=100
3187745 Off ch=3 n=4 v=0
3187745 Off ch=3 n=7 v=0
3187777 On ch=3 n=4 v=100
3188475 Off ch=3 n=4 v=0
3188476 On ch=3 n=4 v=100
3188695 Off ch=3 n=4 v=0
3188697 On ch=3 n=1 v=100
3188786 On ch=3 n=34 v=100
3188876 Off ch=3 n=1 v=0
3188895 Off ch=3 n=34 v=0
3189456 On ch=3 n=9 v=100
3189789 Off ch=3 n=9 v=0
3189841 On ch=3 n=17 v=100
3189937 Off ch=3 n=17 v=0
3190031 On ch=3 n=13 v=100
3190455 Off ch=3 n=13 v=0
3190459 On ch=3 n=15 v=100
3190532 Off ch=3 n=15 v=0
3190598 On ch=3 n=22 v=100
3190671 On ch=3 n=24 v=100
3190691 Off ch=3 n=22 v=0
3190756 Off ch=3 n=24 v=0
3190779 On ch=3 n=9 v=100
3191318 On ch=3 n=26 v=100
3191319 On ch=3 n=15 v=100
3191436 On ch=3 n=5 v=100
3191436 Off ch=3 n=9 v=0
3191450 Off ch=3 n=15 v=0
3191468 Off ch=3 n=26 v=0
3191567 Off ch=3 n=5 v=0
3191595 On ch=3 n=7 v=100
3192727 On ch=3 n=9 v=100
3192734 Off ch=3 n=7 v=0
3193235 Off ch=3 n=9 v=0
3197069 On ch=3 n=8 v=100
3198660 Off ch=3 n=8 v=0
3202657 On ch=3 n=4 v=100
3203135 Off ch=3 n=4 v=0
3203136 On ch=3 n=5 v=100
3204278 Off ch=3 n=5 v=0
3204281 On ch=3 n=2 v=100
3204677 Off ch=3 n=2 v=0
3205515 On ch=3 n=9 v=100
3207608 Off ch=3 n=9 v=0
3207648 On ch=3 n=9 v=100
3208150 Off ch=3 n=9 v=0
3211752 On ch=3 n=2 v=100
3212995 Off ch=3 n=2 v=0
3213024 On ch=3 n=2 v=100
3215064 Off ch=3 n=2 v=0
3220591 On ch=3 n=11 v=100
3221189 Off ch=3 n=11 v=0
3221368 On ch=3 n=23 v=100
3223914 Off ch=3 n=23 v=0
3223949 On ch=3 n=23 v=100
3224161 Off ch=3 n=23 v=0
3224275 On ch=3 n=23 v=100
3224591 Off ch=3 n=23 v=0
3225953 On ch=3 n=49 v=100
3225967 On ch=3 n=55 v=100
3226040 Off ch=3 n=49 v=0
3226040 Off ch=3 n=55 v=0
3228354 On ch=3 n=50 v=100
3228368 On ch=3 n=56 v=100
3228441 Off ch=3 n=50 v=0
3228441 Off ch=3 n=56 v=0
3250962 On ch=3 n=3 v=100
3251356 Off ch=3 n=3 v=0
3251358 On ch=3 n=11 v=100
3251607 Off ch=3 n=11 v=0
3253281 On ch=3 n=11 v=100
3253936 Off ch=3 n=11 v=0
3254051 On ch=3 n=11 v=100
3254100 Off ch=3 n=11 v=0
3254108 On ch=3 n=3 v=100
3255329 On ch=3 n=23 v=100
3255335 Off ch=3 n=3 v=0
3255702 On ch=3 n=12 v=100
3255758 Off ch=3 n=23 v=0
3255852 Off ch=3 n=12 v=0
3256160 On ch=3 n=42 v=100
3256219 On ch=3 n=5 v=100
3256352 Off ch=3 n=5 v=0
3256361 Off ch=3 n=42 v=0
3256530 On ch=3 n=15 v=100
3256608 Off ch=3 n=15 v=0
3256613 On ch=3 n=11 v=100
3257318 Off ch=3 n=11 v=0
3257397 On ch=3 n=27 v=100
3257466 Off ch=3 n=27 v=0
3257791 On ch=3 n=16 v=100
3257950 Off ch=3 n=16 v=0
3258235 On ch=3 n=28 v=100
3258351 Off ch=3 n=28 v=0
3259368 On ch=3 n=22 v=100
3259696 Off ch=3 n=22 v=0
3266644 On ch=3 n=19 v=100
3266779 Off ch=3 n=19 v=0
3267468 On ch=3 n=8 v=100
3267849 On ch=3 n=52 v=100
3267857 On ch=3 n=16 v=100
3267906 On ch=3 n=5 v=100
3267925 Off ch=3 n=8 v=0
3267940 Off ch=3 n=16 v=0
3268180 Off ch=3 n=52 v=0
3268601 Off ch=3 n=5 v=0
3272829 On ch=3 n=4 v=100
3273367 Off ch=3 n=4 v=0
3273886 On ch=3 n=36 v=100
3273886 On ch=3 n=36 v=100
3273894 On ch=3 n=59 v=100
3273894 On ch=3 n=59 v=100
3273902 On ch=3 n=36 v=100
3273914 On ch=3 n=2 v=100
3273914 On ch=3 n=2 v=100
3273992 Off ch=3 n=36 v=0
3273992 Off ch=3 n=36 v=0
3274011 Off ch=3 n=36 v=0
3274045 Off ch=3 n=59 v=0
3274045 Off ch=3 n=59 v=0
3275762 Off ch=3 n=2 v=0
3275762 Off ch=3 n=2 v=0
3277452 On ch=3 n=4 v=100
3278099 Off ch=3 n=4 v=0
3282666 On ch=3 n=18 v=100
3283026 On ch=3 n=21 v=100
3283033 Off ch=3 n=18 v=0
3283106 Off ch=3 n=21 v=0
3283131 On ch=3 n=23 v=100
3283420 Off ch=3 n=23 v=0
3283474 On ch=3 n=18 v=100
3283597 On ch=3 n=30 v=100
3283636 Off ch=3 n=18 v=0
3283645 On ch=3 n=29 v=100
3283645 On ch=3 n=29 v=100
3283671 On ch=3 n=27 v=100
3283745 Off ch=3 n=30 v=0
3283815 Off ch=3 n=27 v=0
3283825 On ch=3 n=21 v=100
3283844 Off ch=3 n=29 v=0
3283844 Off ch=3 n=29 v=0
3283905 Off ch=3 n=21 v=0
3284118 On ch=3 n=52 v=100
3286019 Off ch=3 n=52 v=0
3288438 On ch=3 n=7 v=100
3289408 Off ch=3 n=7 v=0
3290306 On ch=3 n=49 v=100
3290343 On ch=3 n=19 v=100
3290371 Off ch=3 n=49 v=0
3290676 Off ch=3 n=19 v=0
3291886 On ch=3 n=21 v=100
3292008 Off ch=3 n=21 v=0
3292032 On ch=3 n=40 v=100
3292275 Off ch=3 n=40 v=0
3292283 On ch=3 n=17 v=100
3292571 Off ch=3 n=17 v=0
3292814 On ch=3 n=7 v=100
3293829 Off ch=3 n=7 v=0
3295648 On ch=3 n=27 v=100
3295692 Off ch=3 n=27 v=0
3297054 On ch=3 n=20 v=100
3297141 Off ch=3 n=20 v=0
3297491 On ch=3 n=4 v=100
3297871 Off ch=3 n=4 v=0
3297873 On ch=3 n=7 v=100
3300138 Off ch=3 n=7 v=0
3300285 On ch=3 n=1 v=100
3301788 Off ch=3 n=1 v=0
3302082 On ch=3 n=5 v=100
3302495 Off ch=3 n=5 v=0
3316588 On ch=3 n=31 v=100
3316588 On ch=3 n=31 v=100
3316599 On ch=3 n=4 v=100
3316730 On ch=3 n=7 v=100
3316732 Off ch=3 n=4 v=0
3316747 Off ch=3 n=31 v=0
3316747 Off ch=3 n=31 v=0
3317266 Off ch=3 n=7 v=0
3317267 On ch=3 n=4 v=100
3318406 Off ch=3 n=4 v=0
3318407 On ch=3 n=5 v=100
3319083 Off ch=3 n=5 v=0
3319084 On ch=3 n=10 v=100
3319225 Off ch=3 n=10 v=0
3320092 On ch=3 n=3 v=100
3320754 Off ch=3 n=3 v=0
3320887 On ch=3 n=19 v=100
3320985 Off ch=3 n=19 v=0
3321449 On ch=3 n=42 v=100
3321665 Off ch=3 n=42 v=0
3321903 On ch=3 n=48 v=100
3322441 Off ch=3 n=48 v=0
3323565 On ch=3 n=69 v=100
3324186 On ch=3 n=14 v=100
3324199 Off ch=3 n=69 v=0
3324207 On ch=3 n=6 v=100
3324291 Off ch=3 n=14 v=0
3325346 Off ch=3 n=6 v=0
3325408 On ch=3 n=53 v=100
3326190 Off ch=3 n=53 v=0
3327079 On ch=3 n=30 v=100
3327272 On ch=3 n=9 v=100
3327273 Off ch=3 n=30 v=0
3327369 Off ch=3 n=9 v=0
3329156 On ch=3 n=4 v=100
3330821 Off ch=3 n=4 v=0
3331441 On ch=3 n=28 v=100
3331759 Off ch=3 n=28 v=0
3334383 On ch=3 n=20 v=100
3334824 On ch=3 n=26 v=100
3334861 Off ch=3 n=20 v=0
3334943 On ch=3 n=23 v=100
3335009 On ch=3 n=13 v=100
3335327 Off ch=3 n=26 v=0
3335327 Off ch=3 n=23 v=0
3335327 Off ch=3 n=13 v=0
3337300 On ch=3 n=54 v=100
3337579 On ch=3 n=27 v=100
3337696 Off ch=3 n=27 v=0
3337698 Off ch=3 n=54 v=0
3338042 On ch=3 n=24 v=100
3338120 On ch=3 n=18 v=100
3338190 On ch=3 n=11 v=100
3338481 Off ch=3 n=24 v=0
3338481 Off ch=3 n=18 v=0
3338481 Off ch=3 n=11 v=0
3338926 On ch=3 n=3 v=100
3340457 Off ch=3 n=3 v=0
3340552 On ch=3 n=4 v=100
3345870 On ch=3 n=14 v=100
3345881 Off ch=3 n=4 v=0
3345976 Off ch=3 n=14 v=0
3346019 On ch=3 n=24 v=100
3346170 Off ch=3 n=24 v=0
3347562 On ch=3 n=37 v=100
3347604 On ch=3 n=50 v=100
3347607 On ch=3 n=35 v=100
3347630 On ch=3 n=31 v=100
3347714 Off ch=3 n=35 v=0
3347714 Off ch=3 n=31 v=0
3347715 Off ch=3 n=37 v=0
3347784 Off ch=3 n=50 v=0
3348609 On ch=3 n=17 v=100
3348612 On ch=3 n=33 v=100
3348625 On ch=3 n=31 v=100
3348651 On ch=3 n=14 v=100
3348653 Off ch=3 n=17 v=0
3348663 On ch=3 n=15 v=100
3348742 Off ch=3 n=31 v=0
3348742 Off ch=3 n=14 v=0
3348743 Off ch=3 n=33 v=0
3348757 On ch=3 n=16 v=100
3348762 Off ch=3 n=15 v=0
3348920 Off ch=3 n=16 v=0
3348925 On ch=3 n=10 v=100
3349607 On ch=3 n=21 v=100
3349723 On ch=3 n=17 v=100
3349784 On ch=3 n=11 v=100
3349805 Off ch=3 n=10 v=0
3350090 Off ch=3 n=21 v=0
3350090 Off ch=3 n=17 v=0
3350090 Off ch=3 n=11 v=0
3350094 On ch=3 n=7 v=100
3350175 Off ch=3 n=7 v=0
3350197 On ch=3 n=41 v=100
3350394 Off ch=3 n=41 v=0
3351433 On ch=3 n=19 v=100
3351578 On ch=3 n=13 v=100
3351578 On ch=3 n=13 v=100
3351628 Off ch=3 n=19 v=0
3351630 On ch=3 n=9 v=100
3352086 Off ch=3 n=9 v=0
3352099 Off ch=3 n=13 v=0
3352099 Off ch=3 n=13 v=0
3352111 On ch=3 n=3 v=100
3353320 Off ch=3 n=3 v=0
3353332 On ch=3 n=13 v=100
3353390 Off ch=3 n=13 v=0
3353530 On ch=3 n=18 v=100
3353621 Off ch=3 n=18 v=0
3353681 On ch=3 n=9 v=100
3354413 Off ch=3 n=9 v=0
3354419 On ch=3 n=20 v=100
3354497 Off ch=3 n=20 v=0
3355756 On ch=3 n=16 v=100
3355837 Off ch=3 n=16 v=0
3355953 On ch=3 n=43 v=100
3355953 On ch=3 n=43 v=100
3355979 On ch=3 n=16 v=100
3356102 Off ch=3 n=16 v=0
3356148 Off ch=3 n=43 v=0
3356148 Off ch=3 n=43 v=0
3356266 On ch=3 n=20 v=100
3356268 On ch=3 n=21 v=100
3356375 Off ch=3 n=20 v=0
3356407 Off ch=3 n=21 v=0
3357116 On ch=3 n=16 v=100
3357116 On ch=3 n=16 v=100
3357196 On ch=3 n=9 v=100
3357196 On ch=3 n=12 v=100
3357196 On ch=3 n=26 v=100
3357396 On ch=3 n=32 v=100
3357396 On ch=3 n=32 v=100
3357455 Off ch=3 n=9 v=0
3357456 Off ch=3 n=16 v=0
3357456 Off ch=3 n=16 v=0
3357506 Off ch=3 n=12 v=0
3357568 Off ch=3 n=26 v=0
3357590 Off ch=3 n=32 v=0
3357590 Off ch=3 n=32 v=0
3358931 On ch=3 n=23 v=100
3358975 Off ch=3 n=23 v=0
3359678 On ch=3 n=17 v=100
3359756 Off ch=3 n=17 v=0
3359761 On ch=3 n=7 v=100
3360424 Off ch=3 n=7 v=0
3360497 On ch=3 n=36 v=100
3360593 Off ch=3 n=36 v=0
3360709 On ch=3 n=19 v=100
3360802 On ch=3 n=17 v=100
3360802 On ch=3 n=17 v=100
3360816 Off ch=3 n=19 v=0
3360817 On ch=3 n=12 v=100
3361268 Off ch=3 n=12 v=0
3361270 On ch=3 n=14 v=100
3361320 Off ch=3 n=17 v=0
3361320 Off ch=3 n=17 v=0
3361431 On ch=3 n=9 v=100
3361453 Off ch=3 n=14 v=0
3362087 Off ch=3 n=9 v=0
3362213 On ch=3 n=3 v=100
3362328 Off ch=3 n=3 v=0
3362405 On ch=3 n=10 v=100
3362409 On ch=3 n=10 v=100
3362572 Off ch=3 n=10 v=0
3362582 On ch=3 n=4 v=100
3362591 Off ch=3 n=10 v=0
3363400 On ch=3 n=18 v=100
3363403 Off ch=3 n=4 v=0
3363405 On ch=3 n=42 v=100
3363521 On ch=3 n=9 v=100
3363571 Off ch=3 n=18 v=0
3363733 Off ch=3 n=42 v=0
3363781 On ch=3 n=11 v=100
3363811 Off ch=3 n=9 v=0
3363816 On ch=3 n=3 v=100
3364073 Off ch=3 n=11 v=0
3364539 On ch=3 n=28 v=100
3364606 On ch=3 n=20 v=100
3364606 On ch=3 n=20 v=100
3364692 On ch=3 n=10 v=100
3364700 Off ch=3 n=3 v=0
3365038 On ch=3 n=2 v=100
3365043 Off ch=3 n=28 v=0
3365049 Off ch=3 n=10 v=0
3365070 Off ch=3 n=20 v=0
3365070 Off ch=3 n=20 v=0
3365798 Off ch=3 n=2 v=0
3365910 On ch=3 n=6 v=100
3366027 On ch=3 n=38 v=100
3366082 Off ch=3 n=6 v=0
3366110 Off ch=3 n=38 v=0
3366147 On ch=3 n=38 v=100
3366227 On ch=3 n=23 v=100
3366362 Off ch=3 n=38 v=0
3366366 On ch=3 n=6 v=100
3366653 Off ch=3 n=23 v=0
3367234 Off ch=3 n=6 v=0
3367590 On ch=3 n=21 v=100
3367734 Off ch=3 n=21 v=0
3369656 On ch=3 n=10 v=100
3370196 Off ch=3 n=10 v=0
3371182 On ch=3 n=2 v=100
3371269 On ch=3 n=31 v=100
3371277 Off ch=3 n=2 v=0
3371280 On ch=3 n=27 v=100
3371368 Off ch=3 n=31 v=0
3371368 Off ch=3 n=27 v=0
3372344 On ch=3 n=2 v=100
3372451 Off ch=3 n=2 v=0
3373696 On ch=3 n=7 v=100
3373722 Off ch=3 n=7 v=0
3373757 On ch=3 n=7 v=100
3375365 Off ch=3 n=7 v=0
3375367 On ch=3 n=7 v=100
3376124 Off ch=3 n=7 v=0
3376964 On ch=3 n=11 v=100
3377042 Off ch=3 n=11 v=0
3378856 On ch=3 n=2 v=100
3379134 Off ch=3 n=2 v=0
3379376 On ch=3 n=9 v=100
3379706 Off ch=3 n=9 v=0
3383242 On ch=3 n=12 v=100
3383869 Off ch=3 n=12 v=0
3383910 On ch=3 n=23 v=100
3384005 Off ch=3 n=23 v=0
3384497 On ch=3 n=41 v=100
3384695 Off ch=3 n=41 v=0
3384723 On ch=3 n=10 v=100
3384864 On ch=3 n=40 v=100
3384881 On ch=3 n=26 v=100
3384890 On ch=3 n=14 v=100
3384891 Off ch=3 n=10 v=0
3384895 On ch=3 n=29 v=100
3384908 On ch=3 n=45 v=100
3384928 On ch=3 n=44 v=100
3384951 On ch=3 n=46 v=100
3384968 On ch=3 n=39 v=100
3384986 On ch=3 n=37 v=100
3384989 Off ch=3 n=14 v=0
3385000 Off ch=3 n=40 v=0
3385001 Off ch=3 n=29 v=0
3385001 Off ch=3 n=26 v=0
3385013 Off ch=3 n=45 v=0
3385052 Off ch=3 n=44 v=0
3385052 Off ch=3 n=46 v=0
3385052 Off ch=3 n=39 v=0
3385055 Off ch=3 n=37 v=0
3385925 On ch=3 n=30 v=100
3385925 On ch=3 n=30 v=100
3385930 On ch=3 n=48 v=100
3385930 On ch=3 n=48 v=100
3386018 On ch=3 n=43 v=100
3386116 Off ch=3 n=30 v=0
3386116 Off ch=3 n=30 v=0
3386179 Off ch=3 n=43 v=0
3386235 Off ch=3 n=48 v=0
3386235 Off ch=3 n=48 v=0
3387474 On ch=3 n=31 v=100
3387625 Off ch=3 n=31 v=0
3387667 On ch=3 n=21 v=100
3387737 On ch=3 n=8 v=100
3387738 Off ch=3 n=21 v=0
3388374 Off ch=3 n=8 v=0
3388423 On ch=3 n=8 v=100
3390345 On ch=3 n=49 v=100
3390349 Off ch=3 n=8 v=0
3390725 Off ch=3 n=49 v=0
3390952 On ch=3 n=5 v=100
3391287 On ch=3 n=33 v=100
3391426 Off ch=3 n=5 v=0
3391465 Off ch=3 n=33 v=0
3391474 On ch=3 n=4 v=100
3392648 Off ch=3 n=4 v=0
3414623 On ch=3 n=5 v=100
3414676 Off ch=3 n=5 v=0
3423833 On ch=3 n=8 v=100
3424315 Off ch=3 n=8 v=0
3424341 On ch=3 n=17 v=100
3424635 Off ch=3 n=17 v=0
3424953 On ch=3 n=16 v=100
3425488 On ch=3 n=11 v=100
3425488 Off ch=3 n=16 v=0
3425639 Off ch=3 n=11 v=0
3425669 On ch=3 n=22 v=100
3425992 Off ch=3 n=22 v=0
3427379 On ch=3 n=37 v=100
3427439 On ch=3 n=22 v=100
3427454 On ch=3 n=19 v=100
3427559 Off ch=3 n=37 v=0
3427559 Off ch=3 n=22 v=0
3427576 Off ch=3 n=19 v=0
3427812 On ch=3 n=35 v=100
3427834 On ch=3 n=15 v=100
3427982 Off ch=3 n=15 v=0
3427987 Off ch=3 n=35 v=0
3428717 On ch=3 n=7 v=100
3428783 Off ch=3 n=7 v=0
3428785 On ch=3 n=14 v=100
3428839 Off ch=3 n=14 v=0
3429398 On ch=3 n=16 v=100
3429553 On ch=3 n=12 v=100
3429616 Off ch=3 n=16 v=0
3430016 Off ch=3 n=12 v=0
3430018 On ch=3 n=13 v=100
3430095 On ch=3 n=10 v=100
3430143 Off ch=3 n=13 v=0
3430184 Off ch=3 n=10 v=0
3430188 On ch=3 n=8 v=100
3430454 Off ch=3 n=8 v=0
3430457 On ch=3 n=20 v=100
3430560 Off ch=3 n=20 v=0
3430670 On ch=3 n=20 v=100
3430816 On ch=3 n=9 v=100
3431186 Off ch=3 n=20 v=0
3431186 Off ch=3 n=9 v=0
3431837 On ch=3 n=35 v=100
3431846 On ch=3 n=8 v=100
3432093 Off ch=3 n=8 v=0
3432116 Off ch=3 n=35 v=0
3433030 On ch=3 n=33 v=100
3433042 On ch=3 n=31 v=100
3433053 On ch=3 n=45 v=100
3433060 On ch=3 n=36 v=100
3433102 Off ch=3 n=33 v=0
3433157 Off ch=3 n=31 v=0
3433235 Off ch=3 n=36 v=0
3433240 On ch=3 n=20 v=100
3433282 Off ch=3 n=45 v=0
3433449 Off ch=3 n=20 v=0
3433488 On ch=3 n=13 v=100
3433529 Off ch=3 n=13 v=0
3433649 On ch=3 n=10 v=100
3434122 Off ch=3 n=10 v=0
3434911 On ch=3 n=24 v=100
3435000 Off ch=3 n=24 v=0
3435033 On ch=3 n=7 v=100
3435349 Off ch=3 n=7 v=0
3436039 On ch=3 n=13 v=100
3436086 Off ch=3 n=13 v=0
3436880 On ch=3 n=24 v=100
3436924 Off ch=3 n=24 v=0
3437052 On ch=3 n=13 v=100
3437088 On ch=3 n=13 v=100
3437101 Off ch=3 n=13 v=0
3437212 Off ch=3 n=13 v=0
3437603 On ch=3 n=44 v=100
3437626 On ch=3 n=18 v=100
3437648 On ch=3 n=15 v=100
3437694 Off ch=3 n=44 v=0
3437724 On ch=3 n=22 v=100
3437766 Off ch=3 n=18 v=0
3437766 Off ch=3 n=15 v=0
3437769 On ch=3 n=9 v=100
3437878 Off ch=3 n=22 v=0
3438726 On ch=3 n=19 v=100
3438732 Off ch=3 n=9 v=0
3438733 On ch=3 n=5 v=100
3438911 Off ch=3 n=5 v=0
3438937 Off ch=3 n=19 v=0
3439735 On ch=3 n=15 v=100
3439768 On ch=3 n=25 v=100
3439785 Off ch=3 n=15 v=0
3439793 On ch=3 n=12 v=100
3439935 Off ch=3 n=25 v=0
3440461 Off ch=3 n=12 v=0
3440521 On ch=3 n=33 v=100
3440586 Off ch=3 n=33 v=0
3440731 On ch=3 n=18 v=100
3440824 Off ch=3 n=18 v=0
3441164 On ch=3 n=22 v=100
3441196 On ch=3 n=26 v=100
3441339 Off ch=3 n=22 v=0
3441386 Off ch=3 n=26 v=0
3441526 On ch=3 n=28 v=100
3441654 On ch=3 n=36 v=100
3441678 On ch=3 n=25 v=100
3441680 Off ch=3 n=28 v=0
3441711 On ch=3 n=41 v=100
3441712 On ch=3 n=30 v=100
3441715 On ch=3 n=20 v=100
3441717 On ch=3 n=18 v=100
3441718 On ch=3 n=41 v=100
3441799 Off ch=3 n=18 v=0
3441805 Off ch=3 n=36 v=0
3441806 Off ch=3 n=25 v=0
3441826 Off ch=3 n=20 v=0
3441897 Off ch=3 n=30 v=0
3441919 Off ch=3 n=41 v=0
3441972 Off ch=3 n=41 v=0
3443208 On ch=3 n=16 v=100
3443278 Off ch=3 n=16 v=0
3444481 On ch=3 n=8 v=100
3444744 Off ch=3 n=8 v=0
3447396 On ch=3 n=14 v=100
3448228 Off ch=3 n=14 v=0
3453817 On ch=3 n=2 v=100
3453817 On ch=3 n=2 v=100
3456199 On ch=3 n=47 v=100
3456220 On ch=3 n=34 v=100
3456220 On ch=3 n=34 v=100
3456298 Off ch=3 n=2 v=0
3456298 Off ch=3 n=2 v=0
3456312 Off ch=3 n=47 v=0
3456323 Off ch=3 n=34 v=0
3456323 Off ch=3 n=34 v=0
3458132 On ch=3 n=4 v=100
3458393 Off ch=3 n=4 v=0
3459423 On ch=3 n=63 v=100
3459423 On ch=3 n=63 v=100
3459560 Off ch=3 n=63 v=0
3459560 Off ch=3 n=63 v=0
3459926 On ch=3 n=69 v=100
3460037 Off ch=3 n=69 v=0
3461194 On ch=3 n=63 v=100
3461194 On ch=3 n=63 v=100
3461328 Off ch=3 n=63 v=0
3461328 Off ch=3 n=63 v=0
3461676 On ch=3 n=65 v=100
3461676 On ch=3 n=65 v=100
3461806 Off ch=3 n=65 v=0
3461806 Off ch=3 n=65 v=0
3461995 On ch=3 n=56 v=100
3461995 On ch=3 n=56 v=100
3462124 Off ch=3 n=56 v=0
3462124 Off ch=3 n=56 v=0
3462153 On ch=3 n=64 v=100
3462153 On ch=3 n=64 v=100
3462282 Off ch=3 n=64 v=0
3462282 Off ch=3 n=64 v=0
3462631 On ch=3 n=57 v=100
3462640 On ch=3 n=41 v=100
3462725 Off ch=3 n=41 v=0
3462759 Off ch=3 n=57 v=0
3462807 On ch=3 n=59 v=100
3462913 Off ch=3 n=59 v=0
3462956 On ch=3 n=44 v=100
3463042 Off ch=3 n=44 v=0
3463108 On ch=3 n=58 v=100
3463108 On ch=3 n=58 v=100
3463236 Off ch=3 n=58 v=0
3463236 Off ch=3 n=58 v=0
3463266 On ch=3 n=59 v=100
3463277 On ch=3 n=57 v=100
3463396 Off ch=3 n=59 v=0
3463439 Off ch=3 n=57 v=0
3463480 On ch=3 n=38 v=100
3463554 Off ch=3 n=38 v=0
3463744 On ch=3 n=68 v=100
3463871 Off ch=3 n=68 v=0
3463895 On ch=3 n=57 v=100
3463895 On ch=3 n=57 v=100
3464031 Off ch=3 n=57 v=0
3464031 Off ch=3 n=57 v=0
3464061 On ch=3 n=56 v=100
3464061 On ch=3 n=56 v=100
3464189 Off ch=3 n=56 v=0
3464189 Off ch=3 n=56 v=0
3464215 On ch=3 n=64 v=100
3464215 On ch=3 n=64 v=100
3464348 Off ch=3 n=64 v=0
3464348 Off ch=3 n=64 v=0
3464537 On ch=3 n=54 v=100
3464537 On ch=3 n=54 v=100
3464664 Off ch=3 n=54 v=0
3464664 Off ch=3 n=54 v=0
3464840 On ch=3 n=60 v=100
3464840 On ch=3 n=60 v=100
3464977 Off ch=3 n=60 v=0
3464977 Off ch=3 n=60 v=0
3465155 On ch=3 n=67 v=100
3465155 On ch=3 n=67 v=100
3465294 Off ch=3 n=67 v=0
3465294 Off ch=3 n=67 v=0
3465326 On ch=3 n=70 v=100
3465326 On ch=3 n=70 v=100
3465453 Off ch=3 n=70 v=0
3465453 Off ch=3 n=70 v=0
3465812 On ch=3 n=52 v=100
3465943 Off ch=3 n=52 v=0
3466121 On ch=3 n=53 v=100
3466213 Off ch=3 n=53 v=0
3466288 On ch=3 n=43 v=100
3466417 Off ch=3 n=43 v=0
3466442 On ch=3 n=63 v=100
3466563 Off ch=3 n=63 v=0
3466587 On ch=3 n=55 v=100
3466587 On ch=3 n=55 v=100
3466720 Off ch=3 n=55 v=0
3466720 Off ch=3 n=55 v=0
3466768 On ch=3 n=50 v=100
3466892 Off ch=3 n=50 v=0
3466908 On ch=3 n=71 v=100
3466908 On ch=3 n=71 v=100
3467042 Off ch=3 n=71 v=0
3467042 Off ch=3 n=71 v=0
3467243 On ch=3 n=60 v=100
3467330 Off ch=3 n=60 v=0
3467543 On ch=3 n=60 v=100
3467543 On ch=3 n=60 v=100
3467678 Off ch=3 n=60 v=0
3467678 Off ch=3 n=60 v=0
3467700 On ch=3 n=62 v=100
3467700 On ch=3 n=62 v=100
3467838 Off ch=3 n=62 v=0
3467838 Off ch=3 n=62 v=0
3467859 On ch=3 n=58 v=100
3467859 On ch=3 n=58 v=100
3467996 Off ch=3 n=58 v=0
3467996 Off ch=3 n=58 v=0
3468504 On ch=3 n=65 v=100
3468629 Off ch=3 n=65 v=0
3469623 On ch=3 n=46 v=100
3469710 Off ch=3 n=46 v=0
3469774 On ch=3 n=72 v=100
3469774 On ch=3 n=72 v=100
3469904 Off ch=3 n=72 v=0
3469904 Off ch=3 n=72 v=0
3470571 On ch=3 n=62 v=100
3470699 Off ch=3 n=62 v=0
3471367 On ch=3 n=62 v=100
3471493 Off ch=3 n=62 v=0
3472151 On ch=3 n=46 v=100
3472272 Off ch=3 n=46 v=0
3472761 On ch=3 n=67 v=100
3472890 Off ch=3 n=67 v=0
3472923 On ch=3 n=65 v=100
3473050 Off ch=3 n=65 v=0
3473081 On ch=3 n=59 v=100
3473081 On ch=3 n=59 v=100
3473209 Off ch=3 n=59 v=0
3473209 Off ch=3 n=59 v=0
3473717 On ch=3 n=68 v=100
3473843 Off ch=3 n=68 v=0
3474200 On ch=3 n=51 v=100
3474200 On ch=3 n=51 v=100
3474322 Off ch=3 n=51 v=0
3474322 Off ch=3 n=51 v=0
3474679 On ch=3 n=50 v=100
3474777 Off ch=3 n=50 v=0
3474989 On ch=3 n=62 v=100
3475113 Off ch=3 n=62 v=0
3475147 On ch=3 n=53 v=100
3475276 Off ch=3 n=53 v=0
3475449 On ch=3 n=60 v=100
3475619 Off ch=3 n=60 v=0
3475771 On ch=3 n=65 v=100
3475771 On ch=3 n=65 v=100
3475893 Off ch=3 n=65 v=0
3475893 Off ch=3 n=65 v=0
3476082 On ch=3 n=55 v=100
3476082 On ch=3 n=55 v=100
3476211 Off ch=3 n=55 v=0
3476211 Off ch=3 n=55 v=0
3476241 On ch=3 n=64 v=100
3476241 On ch=3 n=64 v=100
3476371 Off ch=3 n=64 v=0
3476371 Off ch=3 n=64 v=0
3476728 On ch=3 n=52 v=100
3476848 Off ch=3 n=52 v=0
3477333 On ch=3 n=56 v=100
3477333 On ch=3 n=56 v=100
3477466 Off ch=3 n=56 v=0
3477466 Off ch=3 n=56 v=0
3477488 On ch=3 n=58 v=100
3477488 On ch=3 n=58 v=100
3477623 Off ch=3 n=58 v=0
3477623 Off ch=3 n=58 v=0
3477658 On ch=3 n=63 v=100
3477785 Off ch=3 n=63 v=0
3480037 On ch=3 n=51 v=100
3480166 Off ch=3 n=51 v=0
3480823 On ch=3 n=55 v=100
3480823 On ch=3 n=55 v=100
3480995 On ch=3 n=43 v=100
3481002 Off ch=3 n=55 v=0
3481002 Off ch=3 n=55 v=0
3481083 Off ch=3 n=43 v=0
3481166 On ch=3 n=62 v=100
3481279 Off ch=3 n=62 v=0
3481626 On ch=3 n=63 v=100
3481626 On ch=3 n=63 v=100
3481755 Off ch=3 n=63 v=0
3481755 Off ch=3 n=63 v=0
3481795 On ch=3 n=69 v=100
3481913 Off ch=3 n=69 v=0
3482433 On ch=3 n=62 v=100
3482523 Off ch=3 n=62 v=0
3484100 On ch=3 n=4 v=100
3484612 Off ch=3 n=4 v=0
3484686 On ch=3 n=4 v=100
3484986 On ch=3 n=18 v=100
3484992 Off ch=3 n=4 v=0
3485372 Off ch=3 n=18 v=0
3485402 On ch=3 n=4 v=100
3486579 Off ch=3 n=4 v=0
3486881 On ch=3 n=16 v=100
3487407 Off ch=3 n=16 v=0
3487447 On ch=3 n=16 v=100
3488173 Off ch=3 n=16 v=0
3488202 On ch=3 n=16 v=100
3489933 Off ch=3 n=16 v=0
3491270 On ch=3 n=2 v=100
3493604 On ch=3 n=67 v=100
3493735 Off ch=3 n=2 v=0
3493990 Off ch=3 n=67 v=0
3497242 On ch=3 n=29 v=100
3502711 Off ch=3 n=29 v=0
3502714 On ch=3 n=4 v=100
3504408 Off ch=3 n=4 v=0
3504996 On ch=3 n=52 v=100
3505097 Off ch=3 n=52 v=0
3506991 On ch=3 n=43 v=100
3507356 Off ch=3 n=43 v=0
3508372 On ch=3 n=3 v=100
3509139 Off ch=3 n=3 v=0
3513078 On ch=3 n=1 v=100
3513173 On ch=3 n=25 v=100
3513322 Off ch=3 n=1 v=0
3513333 On ch=3 n=10 v=100
3513731 Off ch=3 n=25 v=0
3513793 On ch=3 n=33 v=100
3514257 Off ch=3 n=10 v=0
3514327 Off ch=3 n=33 v=0
3514704 On ch=3 n=33 v=100
3514708 On ch=3 n=21 v=100
3514808 On ch=3 n=42 v=100
3514829 Off ch=3 n=21 v=0
3514853 Off ch=3 n=33 v=0
3515391 Off ch=3 n=42 v=0
3515425 On ch=3 n=42 v=100
3515705 Off ch=3 n=42 v=0
3515747 On ch=3 n=42 v=100
3515961 Off ch=3 n=42 v=0
3515988 On ch=3 n=42 v=100
3516031 On ch=3 n=12 v=100
3516047 Off ch=3 n=42 v=0
3516150 Off ch=3 n=12 v=0
3516177 On ch=3 n=12 v=100
3516454 Off ch=3 n=12 v=0
3516455 On ch=3 n=5 v=100
3516561 Off ch=3 n=5 v=0
3519025 On ch=3 n=6 v=100
3519627 Off ch=3 n=6 v=0
3519629 On ch=3 n=5 v=100
3519694 Off ch=3 n=5 v=0
3520638 On ch=3 n=24 v=100
3520732 Off ch=3 n=24 v=0
3521014 On ch=3 n=27 v=100
3521096 Off ch=3 n=27 v=0
3521184 On ch=3 n=10 v=100
3521328 Off ch=3 n=10 v=0
3522552 On ch=3 n=18 v=100
3522629 Off ch=3 n=18 v=0
3522755 On ch=3 n=15 v=100
3522813 On ch=3 n=13 v=100
3523022 On ch=3 n=13 v=100
3523030 Off ch=3 n=15 v=0
3523068 Off ch=3 n=13 v=0
3523555 Off ch=3 n=13 v=0
3523586 On ch=3 n=20 v=100
3523676 Off ch=3 n=20 v=0
3523732 On ch=3 n=10 v=100
3524331 Off ch=3 n=10 v=0
3524346 On ch=3 n=9 v=100
3524426 Off ch=3 n=9 v=0
3525514 On ch=3 n=9 v=100
3526479 Off ch=3 n=9 v=0
3527485 On ch=3 n=5 v=100
3527600 On ch=3 n=7 v=100
3527600 Off ch=3 n=5 v=0
3527980 Off ch=3 n=7 v=0
3527996 On ch=3 n=1 v=100
3528461 Off ch=3 n=1 v=0
3528598 On ch=3 n=0 v=100
3530427 Off ch=3 n=0 v=0
3531047 On ch=3 n=2 v=100
3531945 Off ch=3 n=2 v=0
3532024 On ch=3 n=2 v=100
3532033 Off ch=3 n=2 v=0
3532166 On ch=3 n=5 v=100
3532262 Off ch=3 n=5 v=0
3532307 On ch=3 n=5 v=100
3533146 Off ch=3 n=5 v=0
3533297 On ch=3 n=22 v=100
3533389 Off ch=3 n=22 v=0
3534036 On ch=3 n=11 v=100
3534357 On ch=3 n=10 v=100
3534445 Off ch=3 n=11 v=0
3534576 On ch=3 n=21 v=100
3534628 On ch=3 n=16 v=100
3534638 Off ch=3 n=10 v=0
3534806 Off ch=3 n=21 v=0
3534810 On ch=3 n=46 v=100
3534818 Off ch=3 n=16 v=0
3534851 On ch=3 n=30 v=100
3534943 Off ch=3 n=46 v=0
3534988 Off ch=3 n=30 v=0
3535851 On ch=3 n=13 v=100
3535882 On ch=3 n=15 v=100
3535886 On ch=3 n=9 v=100
3536157 Off ch=3 n=13 v=0
3536171 Off ch=3 n=9 v=0
3536202 Off ch=3 n=15 v=0
3536500 On ch=3 n=42 v=100
3536636 Off ch=3 n=42 v=0
3536642 On ch=3 n=12 v=100
3536772 Off ch=3 n=12 v=0
3536776 On ch=3 n=11 v=100
3537067 Off ch=3 n=11 v=0
3544093 On ch=3 n=8 v=100
3544689 Off ch=3 n=8 v=0
3544691 On ch=3 n=10 v=100
3544691 On ch=3 n=23 v=100
3544850 Off ch=3 n=10 v=0
3544896 On ch=3 n=6 v=100
3544943 Off ch=3 n=23 v=0
3545346 Off ch=3 n=6 v=0
3545353 On ch=3 n=6 v=100
3545698 Off ch=3 n=6 v=0
3545699 On ch=3 n=20 v=100
3545938 Off ch=3 n=20 v=0
3561279 On ch=3 n=3 v=100
3561764 On ch=3 n=33 v=100
3561821 Off ch=3 n=3 v=0
3561837 Off ch=3 n=33 v=0
3568616 On ch=3 n=29 v=100
3568658 On ch=3 n=13 v=100
3568938 Off ch=3 n=29 v=0
3568948 Off ch=3 n=13 v=0
3578632 On ch=3 n=46 v=100
3578781 On ch=3 n=26 v=100
3578857 Off ch=3 n=46 v=0
3578904 Off ch=3 n=26 v=0
3578909 On ch=3 n=15 v=100
3579177 Off ch=3 n=15 v=0
3579431 On ch=3 n=4 v=100
3580070 Off ch=3 n=4 v=0
3580357 On ch=3 n=26 v=100
3580361 On ch=3 n=9 v=100
3580855 Off ch=3 n=9 v=0
3580915 Off ch=3 n=26 v=0
3580916 On ch=3 n=9 v=100
3580916 On ch=3 n=40 v=100
3580916 On ch=3 n=15 v=100
3580949 Off ch=3 n=9 v=0
3580960 Off ch=3 n=15 v=0
3580982 Off ch=3 n=40 v=0
3581163 On ch=3 n=8 v=100
3581268 On ch=3 n=22 v=100
3581416 Off ch=3 n=8 v=0
3581422 On ch=3 n=9 v=100
3581434 Off ch=3 n=22 v=0
3581494 Off ch=3 n=9 v=0
3582208 On ch=3 n=34 v=100
3582272 Off ch=3 n=34 v=0
3582392 On ch=3 n=5 v=100
3582393 On ch=3 n=40 v=100
3582677 Off ch=3 n=5 v=0
3582718 Off ch=3 n=40 v=0
3583481 On ch=3 n=4 v=100
3584327 Off ch=3 n=4 v=0
3585006 On ch=3 n=16 v=100
3585053 On ch=3 n=12 v=100
3585053 On ch=3 n=9 v=100
3585066 Off ch=3 n=16 v=0
3585160 Off ch=3 n=9 v=0
3585173 Off ch=3 n=12 v=0
3585886 On ch=3 n=8 v=100
3585886 On ch=3 n=35 v=100
3586156 Off ch=3 n=8 v=0
3586195 Off ch=3 n=35 v=0
3586407 On ch=3 n=15 v=100
3586407 On ch=3 n=15 v=100
3586468 On ch=3 n=20 v=100
3586468 On ch=3 n=20 v=100
3586469 On ch=3 n=8 v=100
3586751 Off ch=3 n=15 v=0
3586751 Off ch=3 n=15 v=0
3586762 Off ch=3 n=8 v=0
3586809 Off ch=3 n=20 v=0
3586809 Off ch=3 n=20 v=0
3586965 On ch=3 n=7 v=100
3587107 Off ch=3 n=7 v=0
3587893 On ch=3 n=2 v=100
3587973 Off ch=3 n=2 v=0
3587979 On ch=3 n=7 v=100
3588397 Off ch=3 n=7 v=0
3588402 On ch=3 n=8 v=100
3588731 Off ch=3 n=8 v=0
3588761 On ch=3 n=3 v=100
3588872 Off ch=3 n=3 v=0
3588986 On ch=3 n=2 v=100
3590030 Off ch=3 n=2 v=0
3590046 On ch=3 n=10 v=100
3590525 Off ch=3 n=10 v=0
3592410 On ch=3 n=9 v=100
3592604 Off ch=3 n=9 v=0
3592894 On ch=3 n=5 v=100
3594021 Off ch=3 n=5 v=0
3594022 On ch=3 n=3 v=100
3594513 Off ch=3 n=3 v=0
3594515 On ch=3 n=12 v=100
3594689 On ch=3 n=11 v=100
3594689 On ch=3 n=11 v=100
3594839 Off ch=3 n=12 v=0
3594985 On ch=3 n=4 v=100
3594985 On ch=3 n=4 v=100
3594985 Off ch=3 n=11 v=0
3594985 Off ch=3 n=11 v=0
3595510 On ch=3 n=5 v=100
3595511 Off ch=3 n=4 v=0
3595511 Off ch=3 n=4 v=0
3595752 Off ch=3 n=5 v=0
3596205 On ch=3 n=11 v=100
3596225 Off ch=3 n=11 v=0
3596296 On ch=3 n=11 v=100
3596658 Off ch=3 n=11 v=0
3596714 On ch=3 n=11 v=100
3596794 On ch=3 n=12 v=100
3596794 Off ch=3 n=11 v=0
3596816 On ch=3 n=25 v=100
3596836 On ch=3 n=16 v=100
3596837 On ch=3 n=13 v=100
3596967 Off ch=3 n=12 v=0
3596986 Off ch=3 n=13 v=0
3597000 Off ch=3 n=25 v=0
3597009 Off ch=3 n=16 v=0
3613213 On ch=3 n=2 v=100
3614722 Off ch=3 n=2 v=0
3615278 On ch=3 n=2 v=100
3617107 Off ch=3 n=2 v=0
3617139 On ch=3 n=2 v=100
3619515 Off ch=3 n=2 v=0
3619762 On ch=3 n=1 v=100
3620608 Off ch=3 n=1 v=0
3633756 On ch=3 n=8 v=100
3633838 On ch=3 n=46 v=100
3633912 Off ch=3 n=8 v=0
3634016 Off ch=3 n=46 v=0
3634530 On ch=3 n=16 v=100
3634570 Off ch=3 n=16 v=0
3634571 On ch=3 n=7 v=100
3634896 Off ch=3 n=7 v=0
3637382 On ch=3 n=7 v=100
3637566 Off ch=3 n=7 v=0
3637568 On ch=3 n=6 v=100
3639204 Off ch=3 n=6 v=0
3639244 On ch=3 n=10 v=100
3639245 On ch=3 n=6 v=100
3639411 Off ch=3 n=6 v=0
3639412 On ch=3 n=7 v=100
3639452 Off ch=3 n=10 v=0
3639681 Off ch=3 n=7 v=0
3640054 On ch=3 n=5 v=100
3640497 Off ch=3 n=5 v=0
3642371 On ch=3 n=5 v=100
3642661 Off ch=3 n=5 v=0
3645269 On ch=3 n=9 v=100
3645539 Off ch=3 n=9 v=0
3645580 On ch=3 n=9 v=100
3646129 On ch=3 n=17 v=100
3646129 On ch=3 n=30 v=100
3646137 Off ch=3 n=9 v=0
3646159 Off ch=3 n=17 v=0
3646172 Off ch=3 n=30 v=0
3655894 On ch=3 n=11 v=100
3656333 Off ch=3 n=11 v=0
3657849 On ch=3 n=58 v=100
3658103 Off ch=3 n=58 v=0
3658761 On ch=3 n=33 v=100
3658944 Off ch=3 n=33 v=0
3659528 On ch=3 n=68 v=100
3659611 On ch=3 n=55 v=100
3659631 On ch=3 n=31 v=100
3659717 Off ch=3 n=68 v=0
3659717 Off ch=3 n=55 v=0
3659717 Off ch=3 n=31 v=0
3659792 On ch=3 n=68 v=100
3659860 Off ch=3 n=68 v=0
3659921 On ch=3 n=27 v=100
3659992 Off ch=3 n=27 v=0
3660253 On ch=3 n=9 v=100
3660504 Off ch=3 n=9 v=0
3660521 On ch=3 n=14 v=100
3660765 On ch=3 n=20 v=100
3660892 Off ch=3 n=14 v=0
3660909 Off ch=3 n=20 v=0
3660914 On ch=3 n=8 v=100
3661077 Off ch=3 n=8 v=0
3661078 On ch=3 n=17 v=100
3661161 Off ch=3 n=17 v=0
3661248 On ch=3 n=8 v=100
3662908 Off ch=3 n=8 v=0
3663038 On ch=3 n=7 v=100
3663406 On ch=3 n=13 v=100
3663414 Off ch=3 n=7 v=0
3663510 Off ch=3 n=13 v=0
3663844 On ch=3 n=34 v=100
3663864 On ch=3 n=43 v=100
3663976 On ch=3 n=23 v=100
3664073 Off ch=3 n=43 v=0
3664085 Off ch=3 n=34 v=0
3664085 Off ch=3 n=23 v=0
3664154 On ch=3 n=44 v=100
3664234 On ch=3 n=38 v=100
3664360 Off ch=3 n=44 v=0
3664360 Off ch=3 n=38 v=0
3664977 On ch=3 n=43 v=100
3665132 On ch=3 n=36 v=100
3665258 Off ch=3 n=43 v=0
3665258 Off ch=3 n=36 v=0
3665338 On ch=3 n=51 v=100
3665436 Off ch=3 n=51 v=0
3665594 On ch=3 n=53 v=100
3665659 On ch=3 n=17 v=100
3665739 Off ch=3 n=17 v=0
3665741 Off ch=3 n=53 v=0
3665861 On ch=3 n=16 v=100
3665885 On ch=3 n=6 v=100
3665976 Off ch=3 n=16 v=0
3667195 Off ch=3 n=6 v=0
3667299 On ch=3 n=3 v=100
3667774 On ch=3 n=6 v=100
3667779 Off ch=3 n=3 v=0
3668759 Off ch=3 n=6 v=0
3669410 On ch=3 n=28 v=100
3672782 Off ch=3 n=28 v=0
3672844 On ch=3 n=28 v=100
3675904 Off ch=3 n=28 v=0
3679234 On ch=3 n=13 v=100
3680191 Off ch=3 n=13 v=0
3680218 On ch=3 n=13 v=100
3680482 Off ch=3 n=13 v=0
3680515 On ch=3 n=13 v=100
3681226 Off ch=3 n=13 v=0
3681288 On ch=3 n=13 v=100
3681799 Off ch=3 n=13 v=0
3682777 On ch=3 n=41 v=100
3682855 Off ch=3 n=41 v=0
3723455 On ch=3 n=3 v=100
3723486 Off ch=3 n=3 v=0
3725200 On ch=3 n=26 v=100
3725262 On ch=3 n=31 v=100
3725266 Off ch=3 n=26 v=0
3725459 Off ch=3 n=31 v=0
3726450 On ch=3 n=27 v=100
3726557 Off ch=3 n=27 v=0
3726617 On ch=3 n=27 v=100
3726686 Off ch=3 n=27 v=0
3730402 On ch=3 n=22 v=100
3730494 Off ch=3 n=22 v=0
3730633 On ch=3 n=33 v=100
3730669 On ch=3 n=23 v=100
3730935 On ch=3 n=30 v=100
3730958 Off ch=3 n=23 v=0
3730959 Off ch=3 n=33 v=0
3731011 Off ch=3 n=30 v=0
3731240 On ch=3 n=27 v=100
3731350 Off ch=3 n=27 v=0
3731352 On ch=3 n=4 v=100
3731972 On ch=3 n=3 v=100
3731973 Off ch=3 n=4 v=0
3732670 On ch=3 n=26 v=100
3732685 Off ch=3 n=3 v=0
3732956 On ch=3 n=16 v=100
3732976 Off ch=3 n=26 v=0
3733931 On ch=3 n=4 v=100
3733934 Off ch=3 n=16 v=0
3734419 On ch=3 n=8 v=100
3734420 On ch=3 n=17 v=100
3734422 Off ch=3 n=4 v=0
3734702 Off ch=3 n=8 v=0
3734705 On ch=3 n=5 v=100
3734775 Off ch=3 n=17 v=0
3735664 Off ch=3 n=5 v=0
3736084 On ch=3 n=47 v=100
3736435 Off ch=3 n=47 v=0
3736798 On ch=3 n=51 v=100
3736887 Off ch=3 n=51 v=0
3737888 On ch=3 n=3 v=100
3738168 Off ch=3 n=3 v=0
3739113 On ch=3 n=42 v=100
3739448 Off ch=3 n=42 v=0
3739811 On ch=3 n=48 v=100
3739901 Off ch=3 n=48 v=0
3743947 On ch=3 n=1 v=100
3744030 On ch=3 n=1 v=100
3746027 Off ch=3 n=1 v=0
3749504 On ch=3 n=5 v=100
3749506 Off ch=3 n=1 v=0
3752360 Off ch=3 n=5 v=0
3752361 On ch=3 n=1 v=100
3753898 Off ch=3 n=1 v=0
3753968 On ch=3 n=1 v=100
3757837 Off ch=3 n=1 v=0
3769297 On ch=3 n=61 v=100
3769420 Off ch=3 n=61 v=0
3769623 On ch=3 n=58 v=100
3769744 Off ch=3 n=58 v=0
3770245 On ch=3 n=62 v=100
3770245 On ch=3 n=62 v=100
3770379 Off ch=3 n=62 v=0
3770379 Off ch=3 n=62 v=0
3770401 On ch=3 n=61 v=100
3770401 On ch=3 n=61 v=100
3770539 Off ch=3 n=61 v=0
3770539 Off ch=3 n=61 v=0
3770570 On ch=3 n=58 v=100
3770570 On ch=3 n=58 v=100
3770697 Off ch=3 n=58 v=0
3770697 Off ch=3 n=58 v=0
3771187 On ch=3 n=57 v=100
3771187 On ch=3 n=57 v=100
3771333 Off ch=3 n=57 v=0
3771333 Off ch=3 n=57 v=0
3771539 On ch=3 n=65 v=100
3771650 Off ch=3 n=65 v=0
3771839 On ch=3 n=55 v=100
3772009 Off ch=3 n=55 v=0
3772786 On ch=3 n=59 v=100
3772786 On ch=3 n=59 v=100
3772919 Off ch=3 n=59 v=0
3772919 Off ch=3 n=59 v=0
3772954 On ch=3 n=61 v=100
3772954 On ch=3 n=61 v=100
3773082 Off ch=3 n=61 v=0
3773082 Off ch=3 n=61 v=0
3773103 On ch=3 n=60 v=100
3773236 Off ch=3 n=60 v=0
3773272 On ch=3 n=60 v=100
3773272 On ch=3 n=60 v=100
3773399 Off ch=3 n=60 v=0
3773399 Off ch=3 n=60 v=0
3773588 On ch=3 n=66 v=100
3773588 On ch=3 n=66 v=100
3773717 Off ch=3 n=66 v=0
3773717 Off ch=3 n=66 v=0
3773748 On ch=3 n=56 v=100
3773748 On ch=3 n=56 v=100
3773876 Off ch=3 n=56 v=0
3773876 Off ch=3 n=56 v=0
3774541 On ch=3 n=63 v=100
3774541 On ch=3 n=63 v=100
3774670 Off ch=3 n=63 v=0
3774670 Off ch=3 n=63 v=0
3774692 On ch=3 n=64 v=100
3774692 On ch=3 n=64 v=100
3774830 Off ch=3 n=64 v=0
3774830 Off ch=3 n=64 v=0
3775339 On ch=3 n=56 v=100
3775339 On ch=3 n=56 v=100
3775466 Off ch=3 n=56 v=0
3775466 Off ch=3 n=56 v=0
3775488 On ch=3 n=62 v=100
3775621 Off ch=3 n=62 v=0
3776439 On ch=3 n=58 v=100
3776439 On ch=3 n=58 v=100
3776578 Off ch=3 n=58 v=0
3776578 Off ch=3 n=58 v=0
3776927 On ch=3 n=60 v=100
3776927 On ch=3 n=60 v=100
3777055 Off ch=3 n=60 v=0
3777055 Off ch=3 n=60 v=0
3777077 On ch=3 n=62 v=100
3777077 On ch=3 n=62 v=100
3777237 Off ch=3 n=62 v=0
3777237 Off ch=3 n=62 v=0
3777246 On ch=3 n=53 v=100
3777246 On ch=3 n=53 v=100
3777371 Off ch=3 n=53 v=0
3777371 Off ch=3 n=53 v=0
3778034 On ch=3 n=61 v=100
3778034 On ch=3 n=61 v=100
3778167 Off ch=3 n=61 v=0
3778167 Off ch=3 n=61 v=0
3778497 On ch=3 n=53 v=100
3778641 Off ch=3 n=53 v=0
3785411 On ch=3 n=10 v=100
3785876 Off ch=3 n=10 v=0
3785877 On ch=3 n=10 v=100
3785877 On ch=3 n=29 v=100
3786009 Off ch=3 n=10 v=0
3786063 On ch=3 n=6 v=100
3786110 Off ch=3 n=29 v=0
3786290 Off ch=3 n=6 v=0
3786412 On ch=3 n=8 v=100
3788023 Off ch=3 n=8 v=0
3788025 On ch=3 n=8 v=100
3788025 On ch=3 n=14 v=100
3788187 Off ch=3 n=8 v=0
3788207 Off ch=3 n=14 v=0
3788319 On ch=3 n=13 v=100
3788581 Off ch=3 n=13 v=0
3789949 On ch=3 n=27 v=100
3790088 Off ch=3 n=27 v=0
3800490 On ch=3 n=51 v=100
3800602 Off ch=3 n=51 v=0
3801307 On ch=3 n=33 v=100
3801613 Off ch=3 n=33 v=0
3802333 On ch=3 n=6 v=100
3805176 Off ch=3 n=6 v=0
3805304 On ch=3 n=9 v=100
3805533 On ch=3 n=4 v=100
3805539 Off ch=3 n=9 v=0
3806708 On ch=3 n=33 v=100
3806732 On ch=3 n=14 v=100
3806767 Off ch=3 n=4 v=0
3806784 Off ch=3 n=33 v=0
3806984 Off ch=3 n=14 v=0
3807890 On ch=3 n=21 v=100
3807890 On ch=3 n=21 v=100
3808022 Off ch=3 n=21 v=0
3808022 Off ch=3 n=21 v=0
3809357 On ch=3 n=33 v=100
3809428 Off ch=3 n=33 v=0
3809675 On ch=3 n=25 v=100
3810142 On ch=3 n=45 v=100
3810223 On ch=3 n=30 v=100
3810228 Off ch=3 n=25 v=0
3810229 On ch=3 n=8 v=100
3810420 On ch=3 n=11 v=100
3810422 Off ch=3 n=8 v=0
3810431 Off ch=3 n=45 v=0
3810451 Off ch=3 n=30 v=0
3810776 Off ch=3 n=11 v=0
3815537 On ch=3 n=36 v=100
3815619 Off ch=3 n=36 v=0
3820080 On ch=3 n=9 v=100
3820410 Off ch=3 n=9 v=0
3820438 On ch=3 n=16 v=100
3820607 Off ch=3 n=16 v=0
3820818 On ch=3 n=8 v=100
3821734 On ch=3 n=44 v=100
3821753 Off ch=3 n=8 v=0
3821755 On ch=3 n=1 v=100
3821822 Off ch=3 n=44 v=0
3822799 Off ch=3 n=1 v=0
3822800 On ch=3 n=2 v=100
3823002 Off ch=3 n=2 v=0
3823903 On ch=3 n=28 v=100
3824079 On ch=3 n=13 v=100
3824079 Off ch=3 n=28 v=0
3824715 On ch=3 n=26 v=100
3824724 Off ch=3 n=13 v=0
3824758 Off ch=3 n=26 v=0
3824884 On ch=3 n=4 v=100
3824884 On ch=3 n=27 v=100
3824936 On ch=3 n=57 v=100
3824973 On ch=3 n=7 v=100
3824986 Off ch=3 n=4 v=0
3825054 Off ch=3 n=27 v=0
3825152 Off ch=3 n=57 v=0
3825162 Off ch=3 n=7 v=0
3829543 On ch=3 n=36 v=100
3829625 Off ch=3 n=36 v=0
3833754 On ch=3 n=31 v=100
3833901 Off ch=3 n=31 v=0
3834355 On ch=3 n=9 v=100
3834398 On ch=3 n=9 v=100
3834401 Off ch=3 n=9 v=0
3834611 Off ch=3 n=9 v=0
3834640 On ch=3 n=9 v=100
3835467 Off ch=3 n=9 v=0
3843427 On ch=3 n=15 v=100
3843432 On ch=3 n=13 v=100
3843662 Off ch=3 n=13 v=0
3843708 Off ch=3 n=15 v=0
3845641 On ch=3 n=5 v=100
3848523 Off ch=3 n=5 v=0
3848526 On ch=3 n=10 v=100
3848740 Off ch=3 n=10 v=0
3849393 On ch=3 n=22 v=100
3849484 Off ch=3 n=22 v=0
3849647 On ch=3 n=8 v=100
3850028 On ch=3 n=5 v=100
3850028 Off ch=3 n=8 v=0
3850143 Off ch=3 n=5 v=0
3852259 On ch=3 n=11 v=100
3852327 On ch=3 n=19 v=100
3852339 Off ch=3 n=11 v=0
3852345 On ch=3 n=10 v=100
3852466 Off ch=3 n=19 v=0
3852981 Off ch=3 n=10 v=0
3853037 On ch=3 n=20 v=100
3853127 Off ch=3 n=20 v=0
3853158 On ch=3 n=14 v=100
3853465 On ch=3 n=40 v=100
3853616 On ch=3 n=22 v=100
3853616 On ch=3 n=22 v=100
3853643 On ch=3 n=13 v=100
3853643 On ch=3 n=13 v=100
3853682 On ch=3 n=9 v=100
3853690 Off ch=3 n=14 v=0
3853720 Off ch=3 n=40 v=0
3853896 Off ch=3 n=13 v=0
3853896 Off ch=3 n=13 v=0
3853921 Off ch=3 n=9 v=0
3853952 Off ch=3 n=22 v=0
3853952 Off ch=3 n=22 v=0
3854048 On ch=3 n=14 v=100
3854124 Off ch=3 n=14 v=0
3855365 On ch=3 n=10 v=100
3855509 Off ch=3 n=10 v=0
3855764 On ch=3 n=32 v=100
3855917 Off ch=3 n=32 v=0
3856852 On ch=3 n=15 v=100
3856889 On ch=3 n=4 v=100
3856956 Off ch=3 n=15 v=0
3856956 Off ch=3 n=4 v=0
3856958 On ch=3 n=5 v=100
3857366 Off ch=3 n=5 v=0
3857386 On ch=3 n=5 v=100
3857905 Off ch=3 n=5 v=0
3857972 On ch=3 n=5 v=100
3858724 On ch=3 n=13 v=100
3858724 On ch=3 n=17 v=100
3858724 Off ch=3 n=5 v=0
3858892 Off ch=3 n=13 v=0
3858953 Off ch=3 n=17 v=0
3861397 On ch=3 n=8 v=100
3861506 Off ch=3 n=8 v=0
3861508 On ch=3 n=11 v=100
3861868 On ch=3 n=33 v=100
3861877 On ch=3 n=41 v=100
3861894 Off ch=3 n=11 v=0
3861907 Off ch=3 n=33 v=0
3862368 Off ch=3 n=41 v=0
3862403 On ch=3 n=41 v=100
3863012 On ch=3 n=32 v=100
3863036 On ch=3 n=21 v=100
3863057 Off ch=3 n=41 v=0
3863158 Off ch=3 n=21 v=0
3863162 Off ch=3 n=32 v=0
3863540 On ch=3 n=33 v=100
3863611 On ch=3 n=10 v=100
3864064 On ch=3 n=25 v=100
3864064 On ch=3 n=25 v=100
3864069 Off ch=3 n=33 v=0
3864161 On ch=3 n=14 v=100
3864521 Off ch=3 n=10 v=0
3864533 On ch=3 n=2 v=100
3864570 Off ch=3 n=14 v=0
3864638 Off ch=3 n=25 v=0
3864638 Off ch=3 n=25 v=0
3865524 Off ch=3 n=2 v=0
3866531 On ch=3 n=47 v=100
3866899 Off ch=3 n=47 v=0
3868822 On ch=3 n=58 v=100
3868913 Off ch=3 n=58 v=0
3869278 On ch=3 n=46 v=100
3869646 Off ch=3 n=46 v=0
3871567 On ch=3 n=58 v=100
3871658 Off ch=3 n=58 v=0
3872023 On ch=3 n=46 v=100
3872391 Off ch=3 n=46 v=0
3874313 On ch=3 n=58 v=100
3874404 Off ch=3 n=58 v=0
3874769 On ch=3 n=46 v=100
3875137 Off ch=3 n=46 v=0
3877068 On ch=3 n=39 v=100
3877142 Off ch=3 n=39 v=0
3877510 On ch=3 n=46 v=100
3877878 Off ch=3 n=46 v=0
3878289 On ch=3 n=3 v=100
3879080 On ch=3 n=2 v=100
3879086 Off ch=3 n=3 v=0
3879871 Off ch=3 n=2 v=0
3879909 On ch=3 n=2 v=100
3879909 On ch=3 n=7 v=100
3880003 Off ch=3 n=7 v=0
3880545 Off ch=3 n=2 v=0
3880547 On ch=3 n=22 v=100
3884463 Off ch=3 n=22 v=0
3884532 On ch=3 n=22 v=100
3888835 Off ch=3 n=22 v=0
3888872 On ch=3 n=22 v=100
3890138 Off ch=3 n=22 v=0
3893631 On ch=3 n=46 v=100
3893738 Off ch=3 n=46 v=0
3897335 On ch=3 n=36 v=100
3897407 Off ch=3 n=36 v=0
3902418 On ch=3 n=4 v=100
3904025 Off ch=3 n=4 v=0
3906420 On ch=3 n=1 v=100
3907951 Off ch=3 n=1 v=0
3908397 On ch=3 n=15 v=100
3909018 Off ch=3 n=15 v=0
3915496 On ch=3 n=6 v=100
3916403 On ch=3 n=22 v=100
3916414 Off ch=3 n=6 v=0
3916945 Off ch=3 n=22 v=0
3917038 On ch=3 n=25 v=100
3917300 Off ch=3 n=25 v=0
3917417 On ch=3 n=36 v=100
3917501 Off ch=3 n=36 v=0
3917710 On ch=3 n=33 v=100
3918265 Off ch=3 n=33 v=0
3918303 On ch=3 n=37 v=100
3918575 Off ch=3 n=37 v=0
3918602 On ch=3 n=37 v=100
3918819 Off ch=3 n=37 v=0
3918872 On ch=3 n=37 v=100
3918915 On ch=3 n=11 v=100
3918932 Off ch=3 n=37 v=0
3919332 Off ch=3 n=11 v=0
3919334 On ch=3 n=4 v=100
3919441 Off ch=3 n=4 v=0
3920510 On ch=3 n=5 v=100
3921815 On ch=3 n=39 v=100
3922032 Off ch=3 n=5 v=0
3922065 Off ch=3 n=39 v=0
3923249 On ch=3 n=17 v=100
3923296 On ch=3 n=5 v=100
3923472 Off ch=3 n=17 v=0
3923970 Off ch=3 n=5 v=0
3923972 On ch=3 n=3 v=100
3924039 Off ch=3 n=3 v=0
3924910 On ch=3 n=15 v=100
3924988 Off ch=3 n=15 v=0
3926216 On ch=3 n=3 v=100
3927361 Off ch=3 n=3 v=0
3927367 On ch=3 n=12 v=100
3927444 Off ch=3 n=12 v=0
3927572 On ch=3 n=11 v=100
3927598 On ch=3 n=15 v=100
3927817 Off ch=3 n=11 v=0
3927856 On ch=3 n=3 v=100
3927873 Off ch=3 n=15 v=0
3930220 On ch=3 n=22 v=100
3930318 Off ch=3 n=3 v=0
3930320 On ch=3 n=11 v=100
3930592 Off ch=3 n=22 v=0
3930808 Off ch=3 n=11 v=0
3930839 On ch=3 n=19 v=100
3930929 Off ch=3 n=19 v=0
3930985 On ch=3 n=9 v=100
3931484 On ch=3 n=20 v=100
3931619 Off ch=3 n=9 v=0
3931625 On ch=3 n=11 v=100
3931636 Off ch=3 n=20 v=0
3931705 Off ch=3 n=11 v=0
3933829 On ch=3 n=10 v=100
3933943 On ch=3 n=7 v=100
3933943 Off ch=3 n=10 v=0
3934324 Off ch=3 n=7 v=0
3934488 On ch=3 n=19 v=100
3934578 Off ch=3 n=19 v=0
3935229 On ch=3 n=9 v=100
3935584 On ch=3 n=10 v=100
3935671 Off ch=3 n=9 v=0
3935865 Off ch=3 n=10 v=0
3935874 On ch=3 n=11 v=100
3935914 Off ch=3 n=11 v=0
3936925 On ch=3 n=41 v=100
3937061 Off ch=3 n=41 v=0
3937067 On ch=3 n=13 v=100
3937197 Off ch=3 n=13 v=0
3937201 On ch=3 n=11 v=100
3937492 Off ch=3 n=11 v=0
3944631 On ch=3 n=9 v=100
3945221 Off ch=3 n=9 v=0
3945233 On ch=3 n=10 v=100
3945233 On ch=3 n=39 v=100
3945386 Off ch=3 n=10 v=0
3945440 On ch=3 n=8 v=100
3945667 Off ch=3 n=39 v=0
3945667 Off ch=3 n=8 v=0
3945668 On ch=3 n=31 v=100
3945739 Off ch=3 n=31 v=0
3945800 On ch=3 n=31 v=100
3945800 On ch=3 n=8 v=100
3945884 Off ch=3 n=31 v=0
3947418 Off ch=3 n=8 v=0
3947420 On ch=3 n=5 v=100
3947651 Off ch=3 n=5 v=0
3947658 On ch=3 n=3 v=100
3948005 Off ch=3 n=3 v=0
3948007 On ch=3 n=20 v=100
3948245 Off ch=3 n=20 v=0
3950186 On ch=3 n=9 v=100
3950313 On ch=3 n=27 v=100
3950343 Off ch=3 n=9 v=0
3952357 Off ch=3 n=27 v=0
3952386 On ch=3 n=4 v=100
3953566 Off ch=3 n=4 v=0
3954471 On ch=3 n=34 v=100
3954575 Off ch=3 n=34 v=0
3958669 On ch=3 n=54 v=100
3958669 On ch=3 n=54 v=100
3958806 Off ch=3 n=54 v=0
3958806 Off ch=3 n=54 v=0
3958987 On ch=3 n=55 v=100
3958987 On ch=3 n=55 v=100
3959126 Off ch=3 n=55 v=0
3959126 Off ch=3 n=55 v=0
3959305 On ch=3 n=61 v=100
3959442 Off ch=3 n=61 v=0
3959464 On ch=3 n=65 v=100
3959591 Off ch=3 n=65 v=0
3960258 On ch=3 n=60 v=100
3960258 On ch=3 n=60 v=100
3960396 Off ch=3 n=60 v=0
3960396 Off ch=3 n=60 v=0
3961396 On ch=3 n=64 v=100
3961487 Off ch=3 n=64 v=0
3961850 On ch=3 n=61 v=100
3961850 On ch=3 n=61 v=100
3961976 Off ch=3 n=61 v=0
3961976 Off ch=3 n=61 v=0
3962643 On ch=3 n=54 v=100
3962643 On ch=3 n=54 v=100
3962781 Off ch=3 n=54 v=0
3962781 Off ch=3 n=54 v=0
3963121 On ch=3 n=59 v=100
3963121 On ch=3 n=59 v=100
3963248 Off ch=3 n=59 v=0
3963248 Off ch=3 n=59 v=0
3963441 On ch=3 n=69 v=100
3963441 On ch=3 n=69 v=100
3963575 Off ch=3 n=69 v=0
3963575 Off ch=3 n=69 v=0
3964077 On ch=3 n=64 v=100
3964202 Off ch=3 n=64 v=0
3964234 On ch=3 n=63 v=100
3964234 On ch=3 n=63 v=100
3964370 Off ch=3 n=63 v=0
3964370 Off ch=3 n=63 v=0
3964393 On ch=3 n=62 v=100
3964393 On ch=3 n=62 v=100
3964529 Off ch=3 n=62 v=0
3964529 Off ch=3 n=62 v=0
3965028 On ch=3 n=54 v=100
3965028 On ch=3 n=54 v=100
3965166 Off ch=3 n=54 v=0
3965166 Off ch=3 n=54 v=0
3965187 On ch=3 n=56 v=100
3965315 Off ch=3 n=56 v=0
3965506 On ch=3 n=58 v=100
3965506 On ch=3 n=58 v=100
3965633 Off ch=3 n=58 v=0
3965633 Off ch=3 n=58 v=0
3965824 On ch=3 n=58 v=100
3965824 On ch=3 n=58 v=100
3965951 Off ch=3 n=58 v=0
3965951 Off ch=3 n=58 v=0
3965983 On ch=3 n=66 v=100
3965983 On ch=3 n=66 v=100
3966120 Off ch=3 n=66 v=0
3966120 Off ch=3 n=66 v=0
3966460 On ch=3 n=65 v=100
3966460 On ch=3 n=65 v=100
3966588 Off ch=3 n=65 v=0
3966588 Off ch=3 n=65 v=0
3966778 On ch=3 n=56 v=100
3966778 On ch=3 n=56 v=100
3966906 Off ch=3 n=56 v=0
3966906 Off ch=3 n=56 v=0
3967095 On ch=3 n=54 v=100
3967095 On ch=3 n=54 v=100
3967233 Off ch=3 n=54 v=0
3967233 Off ch=3 n=54 v=0
3967254 On ch=3 n=62 v=100
3967381 Off ch=3 n=62 v=0
3967414 On ch=3 n=55 v=100
3967414 On ch=3 n=55 v=100
3967541 Off ch=3 n=55 v=0
3967541 Off ch=3 n=55 v=0
3967573 On ch=3 n=60 v=100
3967703 Off ch=3 n=60 v=0
3967732 On ch=3 n=61 v=100
3967860 Off ch=3 n=61 v=0
3967891 On ch=3 n=63 v=100
3967891 On ch=3 n=63 v=100
3967911 On ch=3 n=52 v=100
3968008 Off ch=3 n=52 v=0
3968026 Off ch=3 n=63 v=0
3968026 Off ch=3 n=63 v=0
3968684 On ch=3 n=50 v=100
3968684 On ch=3 n=50 v=100
3968822 Off ch=3 n=50 v=0
3968822 Off ch=3 n=50 v=0
3968843 On ch=3 n=50 v=100
3968972 Off ch=3 n=50 v=0
3969424 On ch=3 n=56 v=100
3969596 Off ch=3 n=56 v=0
3970105 On ch=3 n=58 v=100
3970138 On ch=3 n=47 v=100
3970230 Off ch=3 n=47 v=0
3970231 Off ch=3 n=58 v=0
3970262 On ch=3 n=58 v=100
3970262 On ch=3 n=58 v=100
3970399 Off ch=3 n=58 v=0
3970399 Off ch=3 n=58 v=0
3970421 On ch=3 n=67 v=100
3970536 On ch=3 n=55 v=100
3970541 Off ch=3 n=67 v=0
3970717 Off ch=3 n=55 v=0
3971217 On ch=3 n=64 v=100
3971217 On ch=3 n=64 v=100
3971343 Off ch=3 n=64 v=0
3971343 Off ch=3 n=64 v=0
3974682 On ch=3 n=19 v=100
3974756 Off ch=3 n=19 v=0
3974822 On ch=3 n=15 v=100
3974931 Off ch=3 n=15 v=0
3974949 On ch=3 n=12 v=100
3975008 On ch=3 n=7 v=100
3975008 Off ch=3 n=12 v=0
3975322 Off ch=3 n=7 v=0
3975342 On ch=3 n=5 v=100
3976335 Off ch=3 n=5 v=0
3977342 On ch=3 n=16 v=100
3977433 On ch=3 n=10 v=100
3977451 On ch=3 n=14 v=100
3977455 On ch=3 n=29 v=100
3977818 Off ch=3 n=16 v=0
3977822 Off ch=3 n=10 v=0
3977915 Off ch=3 n=14 v=0
3977985 Off ch=3 n=29 v=0
3978215 On ch=3 n=56 v=100
3978224 On ch=3 n=25 v=100
3978299 Off ch=3 n=25 v=0
3978358 Off ch=3 n=56 v=0
3980130 On ch=3 n=3 v=100
3980387 Off ch=3 n=3 v=0
3983562 On ch=3 n=2 v=100
3987675 Off ch=3 n=2 v=0
3992973 On ch=3 n=2 v=100
3994477 Off ch=3 n=2 v=0
3996630 On ch=3 n=3 v=100
3997472 Off ch=3 n=3 v=0
3997519 On ch=3 n=3 v=100
3997553 Off ch=3 n=3 v=0
3997675 On ch=3 n=26 v=100
3997745 On ch=3 n=1 v=100
3997757 Off ch=3 n=26 v=0
3998568 On ch=3 n=10 v=100
3998606 On ch=3 n=9 v=100
3998655 Off ch=3 n=1 v=0
3998724 Off ch=3 n=10 v=0
3999256 On ch=3 n=1 v=100
3999259 Off ch=3 n=9 v=0
4001149 Off ch=3 n=1 v=0
4001287 On ch=3 n=2 v=100
4001732 Off ch=3 n=2 v=0
4008965 On ch=3 n=17 v=100
4008965 On ch=3 n=24 v=100
4008966 On ch=3 n=49 v=100
4008966 On ch=3 n=49 v=100
4008998 On ch=3 n=13 v=100
4009127 Off ch=3 n=17 v=0
4009148 Off ch=3 n=24 v=0
4009192 Off ch=3 n=13 v=0
4009211 Off ch=3 n=49 v=0
4009211 Off ch=3 n=49 v=0
4009265 On ch=3 n=10 v=100
4009504 Off ch=3 n=10 v=0
4009695 On ch=3 n=22 v=100
4009808 On ch=3 n=16 v=100
4009834 Off ch=3 n=22 v=0
4009976 Off ch=3 n=16 v=0
4010968 On ch=3 n=8 v=100
4011291 Off ch=3 n=8 v=0
4011419 On ch=3 n=21 v=100
4011448 On ch=3 n=27 v=100
4011492 Off ch=3 n=21 v=0
4011503 Off ch=3 n=27 v=0
4012692 On ch=3 n=37 v=100
4012707 On ch=3 n=36 v=100
4012758 On ch=3 n=46 v=100
4012758 On ch=3 n=46 v=100
4012809 Off ch=3 n=37 v=0
4012825 On ch=3 n=29 v=100
4012826 On ch=3 n=20 v=100
4012940 Off ch=3 n=20 v=0
4012946 Off ch=3 n=36 v=0
4012959 On ch=3 n=21 v=100
4012971 Off ch=3 n=29 v=0
4013033 Off ch=3 n=46 v=0
4013033 Off ch=3 n=46 v=0
4013119 On ch=3 n=33 v=100
4013119 Off ch=3 n=21 v=0
4013268 Off ch=3 n=33 v=0
4013731 On ch=3 n=8 v=100
4013791 On ch=3 n=9 v=100
4013816 Off ch=3 n=8 v=0
4014093 Off ch=3 n=9 v=0
4014095 On ch=3 n=9 v=100
4014196 On ch=3 n=11 v=100
4014211 Off ch=3 n=9 v=0
4014386 On ch=3 n=14 v=100
4014851 Off ch=3 n=11 v=0
4014862 On ch=3 n=11 v=100
4014913 Off ch=3 n=14 v=0
4014968 On ch=3 n=14 v=100
4014983 Off ch=3 n=11 v=0
4015031 On ch=3 n=16 v=100
4015031 On ch=3 n=16 v=100
4015081 Off ch=3 n=14 v=0
4015083 On ch=3 n=9 v=100
4015561 Off ch=3 n=9 v=0
4015564 On ch=3 n=19 v=100
4015577 Off ch=3 n=16 v=0
4015577 Off ch=3 n=16 v=0
4015668 Off ch=3 n=19 v=0
4015673 On ch=3 n=5 v=100
4015918 Off ch=3 n=5 v=0
4023284 On ch=3 n=41 v=100
4023432 Off ch=3 n=41 v=0
4023498 On ch=3 n=41 v=100
4023572 Off ch=3 n=41 v=0
4024500 On ch=3 n=25 v=100
4024502 On ch=3 n=35 v=100
4024624 On ch=3 n=25 v=100
4024829 Off ch=3 n=25 v=0
4024928 Off ch=3 n=35 v=0
4024928 Off ch=3 n=25 v=0
4025195 On ch=3 n=2 v=100
4026159 Off ch=3 n=2 v=0
4026649 On ch=3 n=9 v=100
4027024 On ch=3 n=10 v=100
4027144 Off ch=3 n=9 v=0
4027252 Off ch=3 n=10 v=0
4027279 On ch=3 n=19 v=100
4027280 On ch=3 n=18 v=100
4027366 On ch=3 n=8 v=100
4027472 Off ch=3 n=19 v=0
4027503 Off ch=3 n=18 v=0
4027737 On ch=3 n=6 v=100
4027879 Off ch=3 n=8 v=0
4028523 Off ch=3 n=6 v=0
4028620 On ch=3 n=7 v=100
4028777 On ch=3 n=8 v=100
4028779 Off ch=3 n=7 v=0
4028821 Off ch=3 n=8 v=0
4028828 On ch=3 n=7 v=100
4028992 On ch=3 n=36 v=100
4029297 Off ch=3 n=7 v=0
4029370 On ch=3 n=8 v=100
4029564 Off ch=3 n=8 v=0
4029565 Off ch=3 n=36 v=0
4029566 On ch=3 n=3 v=100
4030788 On ch=3 n=7 v=100
4030789 Off ch=3 n=3 v=0
4031396 Off ch=3 n=7 v=0
4031398 On ch=3 n=7 v=100
4031786 Off ch=3 n=7 v=0
4031840 On ch=3 n=13 v=100
4031879 On ch=3 n=15 v=100
4031879 On ch=3 n=15 v=100
4031892 On ch=3 n=13 v=100
4031896 Off ch=3 n=13 v=0
4032126 On ch=3 n=7 v=100
4032129 Off ch=3 n=13 v=0
4032147 Off ch=3 n=15 v=0
4032147 Off ch=3 n=15 v=0
4032409 Off ch=3 n=7 v=0
4032998 On ch=3 n=26 v=100
4033140 Off ch=3 n=26 v=0
4033893 On ch=3 n=13 v=100
4034281 Off ch=3 n=13 v=0
4035190 On ch=3 n=6 v=100
4036432 Off ch=3 n=6 v=0
4036455 On ch=3 n=20 v=100
4036768 On ch=3 n=4 v=100
4036770 Off ch=3 n=20 v=0
4037083 On ch=3 n=6 v=100
4037083 Off ch=3 n=4 v=0
4037356 On ch=3 n=15 v=100
4037393 Off ch=3 n=6 v=0
4037398 Off ch=3 n=15 v=0
4037938 On ch=3 n=29 v=100
4038084 Off ch=3 n=29 v=0
4041647 On ch=3 n=20 v=100
4041858 Off ch=3 n=20 v=0
4045142 On ch=3 n=7 v=100
4045383 On ch=3 n=3 v=100
4045384 Off ch=3 n=7 v=0
4045865 Off ch=3 n=3 v=0
4045871 On ch=3 n=9 v=100
4045938 Off ch=3 n=9 v=0
4045939 On ch=3 n=6 v=100
4047392 Off ch=3 n=6 v=0
4047403 On ch=3 n=1 v=100
4047519 Off ch=3 n=1 v=0
4047922 On ch=3 n=9 v=100
4048091 Off ch=3 n=9 v=0
4050060 On ch=3 n=11 v=100
4050544 Off ch=3 n=11 v=0
4050560 On ch=3 n=3 v=100
4051603 Off ch=3 n=3 v=0
4051717 On ch=3 n=2 v=100
4051827 Off ch=3 n=2 v=0
4051858 On ch=3 n=9 v=100
4052187 Off ch=3 n=9 v=0
4052192 On ch=3 n=7 v=100
4052610 Off ch=3 n=7 v=0
4052616 On ch=3 n=5 v=100
4052696 Off ch=3 n=5 v=0
4053482 On ch=3 n=8 v=100
4053624 Off ch=3 n=8 v=0
4053780 On ch=3 n=20 v=100
4053780 On ch=3 n=20 v=100
4053827 On ch=3 n=8 v=100
4053838 On ch=3 n=14 v=100
4053838 On ch=3 n=14 v=100
4054120 Off ch=3 n=8 v=0
4054121 Off ch=3 n=20 v=0
4054121 Off ch=3 n=20 v=0
4054183 Off ch=3 n=14 v=0
4054183 Off ch=3 n=14 v=0
4054394 On ch=3 n=34 v=100
4054433 On ch=3 n=8 v=100
4054703 Off ch=3 n=34 v=0
4054703 Off ch=3 n=8 v=0
4055531 On ch=3 n=22 v=100
4055532 On ch=3 n=38 v=100
4055575 Off ch=3 n=22 v=0
4055581 On ch=3 n=15 v=100
4055593 Off ch=3 n=38 v=0
4055659 Off ch=3 n=15 v=0
4055829 On ch=3 n=23 v=100
4055912 On ch=3 n=22 v=100
4055912 On ch=3 n=22 v=100
4055936 On ch=3 n=8 v=100
4056212 Off ch=3 n=23 v=0
4056221 Off ch=3 n=8 v=0
4056232 Off ch=3 n=22 v=0
4056232 Off ch=3 n=22 v=0
4056418 On ch=3 n=26 v=100
4056513 Off ch=3 n=26 v=0
4056986 On ch=3 n=24 v=100
4057030 Off ch=3 n=24 v=0
4057637 On ch=3 n=5 v=100
4058148 On ch=3 n=20 v=100
4058173 On ch=3 n=11 v=100
4058173 Off ch=3 n=5 v=0
4058373 Off ch=3 n=20 v=0
4058549 On ch=3 n=10 v=100
4058565 Off ch=3 n=11 v=0
4058749 On ch=3 n=11 v=100
4058758 Off ch=3 n=10 v=0
4058761 On ch=3 n=6 v=100
4058873 Off ch=3 n=6 v=0
4058879 Off ch=3 n=11 v=0
4058999 On ch=3 n=21 v=100
4059063 Off ch=3 n=21 v=0
4059075 On ch=3 n=8 v=100
4059331 Off ch=3 n=8 v=0
4059360 On ch=3 n=26 v=100
4059456 Off ch=3 n=26 v=0
4059619 On ch=3 n=20 v=100
4059673 On ch=3 n=2 v=100
4059843 Off ch=3 n=20 v=0
4060230 Off ch=3 n=2 v=0
4060254 On ch=3 n=8 v=100
4060540 On ch=3 n=6 v=100
4060541 Off ch=3 n=8 v=0
4060718 Off ch=3 n=6 v=0
4060836 On ch=3 n=26 v=100
4060879 Off ch=3 n=26 v=0
4061171 On ch=3 n=24 v=100
4061262 Off ch=3 n=24 v=0
4062123 On ch=3 n=6 v=100
4062190 Off ch=3 n=6 v=0
4062192 On ch=3 n=6 v=100
4062709 On ch=3 n=19 v=100
4062893 Off ch=3 n=6 v=0
4062940 Off ch=3 n=19 v=0
4065422 On ch=3 n=3 v=100
4065529 Off ch=3 n=3 v=0
4065531 On ch=3 n=11 v=100
4065942 On ch=3 n=26 v=100
4065946 Off ch=3 n=11 v=0
4065989 Off ch=3 n=26 v=0
4066016 On ch=3 n=26 v=100
4067713 Off ch=3 n=26 v=0
4068012 On ch=3 n=63 v=100
4068100 Off ch=3 n=63 v=0
4068163 On ch=3 n=61 v=100
4068200 On ch=3 n=48 v=100
4068261 Off ch=3 n=61 v=0
4068288 Off ch=3 n=48 v=0
4070716 On ch=3 n=63 v=100
4070804 Off ch=3 n=63 v=0
4070876 On ch=3 n=45 v=100
4070982 Off ch=3 n=45 v=0
4071329 On ch=3 n=48 v=100
4071689 Off ch=3 n=48 v=0
4073456 On ch=3 n=63 v=100
4073544 Off ch=3 n=63 v=0
4073604 On ch=3 n=63 v=100
4073722 Off ch=3 n=63 v=0
4074069 On ch=3 n=47 v=100
4074429 Off ch=3 n=47 v=0
4077936 On ch=3 n=2 v=100
4079027 On ch=3 n=6 v=100
4079049 Off ch=3 n=2 v=0
4079282 Off ch=3 n=6 v=0
4081307 On ch=3 n=8 v=100
4082106 Off ch=3 n=8 v=0
4082133 On ch=3 n=8 v=100
4082958 Off ch=3 n=8 v=0
4083381 On ch=3 n=2 v=100
4085692 Off ch=3 n=2 v=0
4086009 On ch=3 n=2 v=100
4088377 On ch=3 n=43 v=100
4088397 On ch=3 n=28 v=100
4088473 Off ch=3 n=2 v=0
4088488 Off ch=3 n=43 v=0
4088536 Off ch=3 n=28 v=0
4105275 On ch=3 n=4 v=100
4105482 On ch=3 n=42 v=100
4105533 Off ch=3 n=4 v=0
4105541 Off ch=3 n=42 v=0
4105654 On ch=3 n=48 v=100
4105796 Off ch=3 n=48 v=0
4107180 On ch=3 n=7 v=100
4107534 Off ch=3 n=7 v=0
4107539 On ch=3 n=23 v=100
4107974 Off ch=3 n=23 v=0
4108235 On ch=3 n=27 v=100
4108658 Off ch=3 n=27 v=0
4108680 On ch=3 n=13 v=100
4109056 Off ch=3 n=13 v=0
4109641 On ch=3 n=60 v=100
4109848 Off ch=3 n=60 v=0
4110379 On ch=3 n=33 v=100
4110557 Off ch=3 n=33 v=0
4112664 On ch=3 n=5 v=100
4112719 Off ch=3 n=5 v=0
4113398 On ch=3 n=12 v=100
4113648 Off ch=3 n=12 v=0
4113694 On ch=3 n=30 v=100
4113751 On ch=3 n=7 v=100
4113767 Off ch=3 n=30 v=0
4113916 Off ch=3 n=7 v=0
4113920 On ch=3 n=7 v=100
4114352 Off ch=3 n=7 v=0
4114566 On ch=3 n=42 v=100
4114671 Off ch=3 n=42 v=0
4114724 On ch=3 n=11 v=100
4114934 Off ch=3 n=11 v=0
4115020 On ch=3 n=30 v=100
4115077 On ch=3 n=7 v=100
4115093 Off ch=3 n=30 v=0
4115242 Off ch=3 n=7 v=0
4115246 On ch=3 n=7 v=100
4115679 Off ch=3 n=7 v=0
4115893 On ch=3 n=42 v=100
4115898 On ch=3 n=42 v=100
4115998 Off ch=3 n=42 v=0
4116252 Off ch=3 n=42 v=0
4123069 On ch=3 n=62 v=100
4123139 On ch=3 n=51 v=100
4123452 Off ch=3 n=62 v=0
4124309 Off ch=3 n=51 v=0
4126140 On ch=3 n=22 v=100
4126980 Off ch=3 n=22 v=0
4127056 On ch=3 n=12 v=100
4127413 Off ch=3 n=12 v=0
4127414 On ch=3 n=23 v=100
4127600 On ch=3 n=6 v=100
4127613 Off ch=3 n=23 v=0
4128250 Off ch=3 n=6 v=0
4128322 On ch=3 n=5 v=100
4128809 Off ch=3 n=5 v=0
4128834 On ch=3 n=17 v=100
4128914 Off ch=3 n=17 v=0
4129152 On ch=3 n=14 v=100
4129458 Off ch=3 n=14 v=0
4129602 On ch=3 n=11 v=100
4129982 Off ch=3 n=11 v=0
4129983 On ch=3 n=11 v=100
4130045 Off ch=3 n=11 v=0
4130696 On ch=3 n=14 v=100
4130798 Off ch=3 n=14 v=0
4130802 On ch=3 n=14 v=100
4130882 Off ch=3 n=14 v=0
4131108 On ch=3 n=23 v=100
4131192 On ch=3 n=19 v=100
4131248 On ch=3 n=14 v=100
4131508 Off ch=3 n=14 v=0
4131509 Off ch=3 n=23 v=0
4131517 Off ch=3 n=19 v=0
4131756 On ch=3 n=31 v=100
4131884 Off ch=3 n=31 v=0
4132595 On ch=3 n=16 v=100
4132682 On ch=3 n=28 v=100
4132683 Off ch=3 n=16 v=0
4132863 On ch=3 n=9 v=100
4132865 Off ch=3 n=28 v=0
4132976 On ch=3 n=13 v=100
4132976 Off ch=3 n=9 v=0
4133022 Off ch=3 n=13 v=0
4133025 On ch=3 n=22 v=100
4133878 On ch=3 n=2 v=100
4135347 Off ch=3 n=22 v=0
4136321 On ch=3 n=6 v=100
4136354 Off ch=3 n=2 v=0
4136924 Off ch=3 n=6 v=0
4137722 On ch=3 n=6 v=100
4139153 On ch=3 n=8 v=100
4139412 Off ch=3 n=6 v=0
4139733 Off ch=3 n=8 v=0
4139744 On ch=3 n=5 v=100
4139812 On ch=3 n=3 v=100
4139816 Off ch=3 n=5 v=0
4140252 On ch=3 n=10 v=100
4140252 Off ch=3 n=3 v=0
4140362 Off ch=3 n=10 v=0
4140379 On ch=3 n=3 v=100
4140892 On ch=3 n=1 v=100
4140892 Off ch=3 n=3 v=0
4140932 On ch=3 n=33 v=100
4140956 Off ch=3 n=1 v=0
4140958 On ch=3 n=15 v=100
4141046 Off ch=3 n=33 v=0
4141094 Off ch=3 n=15 v=0
4141308 On ch=3 n=11 v=100
4141526 Off ch=3 n=11 v=0
4141739 On ch=3 n=23 v=100
4141753 On ch=3 n=43 v=100
4141822 Off ch=3 n=23 v=0
4141905 Off ch=3 n=43 v=0
4141989 On ch=3 n=7 v=100
4143212 Off ch=3 n=7 v=0
4143364 On ch=3 n=16 v=100
4143365 On ch=3 n=4 v=100
4143609 Off ch=3 n=4 v=0
4143613 On ch=3 n=3 v=100
4143788 Off ch=3 n=16 v=0
4144789 Off ch=3 n=3 v=0
4145625 On ch=3 n=11 v=100
4145625 On ch=3 n=16 v=100
4145625 On ch=3 n=24 v=100
4145836 Off ch=3 n=11 v=0
4145864 Off ch=3 n=16 v=0
4145894 Off ch=3 n=24 v=0
4149610 On ch=3 n=33 v=100
4149681 On ch=3 n=32 v=100
4149685 Off ch=3 n=33 v=0
4149716 On ch=3 n=35 v=100
4149748 Off ch=3 n=32 v=0
4149775 On ch=3 n=28 v=100
4149788 Off ch=3 n=35 v=0
4149816 On ch=3 n=30 v=100
4149828 Off ch=3 n=28 v=0
4149875 On ch=3 n=29 v=100
4149889 Off ch=3 n=30 v=0
4149943 Off ch=3 n=29 v=0
4149954 On ch=3 n=32 v=100
4150015 On ch=3 n=31 v=100
4150028 Off ch=3 n=32 v=0
4150076 On ch=3 n=29 v=100
4150087 Off ch=3 n=31 v=0
4150095 On ch=3 n=28 v=100
4150148 Off ch=3 n=29 v=0
4150156 On ch=3 n=31 v=100
4150168 Off ch=3 n=28 v=0
4150228 Off ch=3 n=31 v=0
4150235 On ch=3 n=27 v=100
4150257 On ch=3 n=31 v=100
4150286 Off ch=3 n=27 v=0
4150295 On ch=3 n=30 v=100
4150328 Off ch=3 n=31 v=0
4150337 On ch=3 n=30 v=100
4150368 Off ch=3 n=30 v=0
4150395 On ch=3 n=37 v=100
4150407 Off ch=3 n=30 v=0
4150419 On ch=3 n=38 v=100
4150457 On ch=3 n=31 v=100
4150464 Off ch=3 n=37 v=0
4150487 Off ch=3 n=38 v=0
4150529 Off ch=3 n=31 v=0
4150538 On ch=3 n=43 v=100
4150595 On ch=3 n=35 v=100
4150606 Off ch=3 n=43 v=0
4150668 Off ch=3 n=35 v=0
4150675 On ch=3 n=31 v=100
4150716 On ch=3 n=29 v=100
4150728 Off ch=3 n=31 v=0
4150735 On ch=3 n=29 v=100
4150775 On ch=3 n=28 v=100
4150788 Off ch=3 n=29 v=0
4150803 Off ch=3 n=29 v=0
4150815 On ch=3 n=28 v=100
4150828 Off ch=3 n=28 v=0
4150875 On ch=3 n=26 v=100
4150888 Off ch=3 n=28 v=0
4150949 Off ch=3 n=26 v=0
4152641 On ch=3 n=12 v=100
4152957 Off ch=3 n=12 v=0
4153683 On ch=3 n=14 v=100
4153969 Off ch=3 n=14 v=0
4153997 On ch=3 n=17 v=100
4154099 Off ch=3 n=17 v=0
4162893 On ch=3 n=5 v=100
4164197 Off ch=3 n=5 v=0
4171842 On ch=3 n=42 v=100
4171953 On ch=3 n=42 v=100
4171953 On ch=3 n=42 v=100
4172100 On ch=3 n=27 v=100
4172241 Off ch=3 n=42 v=0
4172411 Off ch=3 n=27 v=0
4172444 On ch=3 n=60 v=100
4172444 On ch=3 n=60 v=100
4172574 Off ch=3 n=42 v=0
4172574 Off ch=3 n=60 v=0
4172574 Off ch=3 n=42 v=0
4172574 Off ch=3 n=60 v=0
4172638 On ch=3 n=60 v=100
4172638 On ch=3 n=42 v=100
4172679 Off ch=3 n=42 v=0
4172936 Off ch=3 n=60 v=0
4173259 On ch=3 n=38 v=100
4173440 Off ch=3 n=38 v=0
4173468 On ch=3 n=38 v=100
4173796 Off ch=3 n=38 v=0
4174098 On ch=3 n=20 v=100
4174250 Off ch=3 n=20 v=0
4174542 On ch=3 n=32 v=100
4175116 Off ch=3 n=32 v=0
4175526 On ch=3 n=25 v=100
4175788 Off ch=3 n=25 v=0
4175883 On ch=3 n=14 v=100
4176078 Off ch=3 n=14 v=0
4176083 On ch=3 n=11 v=100
4176260 On ch=3 n=11 v=100
4176506 Off ch=3 n=11 v=0
4188693 Off ch=3 n=11 v=0
4188697 On ch=3 n=29 v=100
4190698 Off ch=3 n=29 v=0
4190736 On ch=3 n=29 v=100
4191997 On ch=3 n=8 v=100
4192006 Off ch=3 n=29 v=0
4192216 On ch=3 n=11 v=100
4192462 Off ch=3 n=8 v=0
4192639 Off ch=3 n=11 v=0
4192640 On ch=3 n=26 v=100
4192980 On ch=3 n=5 v=100
4192991 Off ch=3 n=26 v=0
4193830 Off ch=3 n=5 v=0
4207970 On ch=3 n=6 v=100
4208512 Off ch=3 n=6 v=0
4209063 On ch=3 n=1 v=100
4210588 Off ch=3 n=1 v=0
4213406 On ch=3 n=2 v=100
4213659 On ch=3 n=32 v=100
4213690 Off ch=3 n=2 v=0
4213692 On ch=3 n=4 v=100
4213871 Off ch=3 n=32 v=0
4214867 Off ch=3 n=4 v=0
4214872 On ch=3 n=4 v=100
4216080 Off ch=3 n=4 v=0
4216103 On ch=3 n=4 v=100
4216697 Off ch=3 n=4 v=0
4216699 On ch=3 n=4 v=100
4217007 Off ch=3 n=4 v=0
4218277 On ch=3 n=2 v=100
4220742 Off ch=3 n=2 v=0
4220755 On ch=3 n=6 v=100
4222119 On ch=3 n=31 v=100
4222124 Off ch=3 n=6 v=0
4222209 On ch=3 n=25 v=100
4222209 On ch=3 n=33 v=100
4222211 Off ch=3 n=31 v=0
4222281 Off ch=3 n=25 v=0
4222298 Off ch=3 n=33 v=0
4222820 On ch=3 n=14 v=100
4223014 Off ch=3 n=14 v=0
4223386 On ch=3 n=22 v=100
4223614 On ch=3 n=20 v=100
4223880 Off ch=3 n=22 v=0
4224110 Off ch=3 n=20 v=0
4230958 On ch=3 n=20 v=100
4231104 Off ch=3 n=20 v=0
4231182 On ch=3 n=8 v=100
4231392 Off ch=3 n=8 v=0
4231461 On ch=3 n=26 v=100
4232129 Off ch=3 n=26 v=0
4232568 On ch=3 n=13 v=100
4232961 On ch=3 n=18 v=100
4233012 Off ch=3 n=13 v=0
4233023 On ch=3 n=13 v=100
4233023 Off ch=3 n=18 v=0
4233439 Off ch=3 n=13 v=0
4235151 On ch=3 n=4 v=100
4235573 Off ch=3 n=4 v=0
4235574 On ch=3 n=7 v=100
4236234 Off ch=3 n=7 v=0
4236282 On ch=3 n=3 v=100
4236282 On ch=3 n=7 v=100
4236282 Off ch=3 n=7 v=0
4236796 On ch=3 n=5 v=100
4236797 Off ch=3 n=3 v=0
4237465 Off ch=3 n=5 v=0
4240084 On ch=3 n=18 v=100
4240606 Off ch=3 n=18 v=0
4241435 On ch=3 n=9 v=100
4241977 Off ch=3 n=9 v=0
4242071 On ch=3 n=9 v=100
4242071 On ch=3 n=9 v=100
4242311 Off ch=3 n=9 v=0
4242690 Off ch=3 n=9 v=0
4242743 On ch=3 n=5 v=100
4243723 Off ch=3 n=5 v=0
4243731 On ch=3 n=4 v=100
4243920 Off ch=3 n=4 v=0
4244144 On ch=3 n=20 v=100
4244155 On ch=3 n=31 v=100
4244278 On ch=3 n=12 v=100
4244280 Off ch=3 n=20 v=0
4244296 Off ch=3 n=31 v=0
4244384 Off ch=3 n=12 v=0
4244394 On ch=3 n=24 v=100
4244517 Off ch=3 n=24 v=0
4245359 On ch=3 n=7 v=100
4245510 On ch=3 n=19 v=100
4245514 Off ch=3 n=7 v=0
4245694 On ch=3 n=16 v=100
4245695 Off ch=3 n=19 v=0
4245804 On ch=3 n=11 v=100
4245804 On ch=3 n=31 v=100
4245805 Off ch=3 n=16 v=0
4245968 Off ch=3 n=11 v=0
4246029 Off ch=3 n=31 v=0
4250960 On ch=3 n=7 v=100
4251536 Off ch=3 n=7 v=0
4251546 On ch=3 n=22 v=100
4251557 On ch=3 n=12 v=100
4251629 Off ch=3 n=22 v=0
4251767 On ch=3 n=38 v=100
4251934 On ch=3 n=7 v=100
4251992 Off ch=3 n=12 v=0
4252355 Off ch=3 n=38 v=0
4252358 On ch=3 n=20 v=100
4252368 Off ch=3 n=7 v=0
4252450 On ch=3 n=2 v=100
4252568 Off ch=3 n=20 v=0
4253518 On ch=3 n=9 v=100
4253594 Off ch=3 n=2 v=0
4253638 On ch=3 n=30 v=100
4253648 Off ch=3 n=9 v=0
4253650 On ch=3 n=2 v=100
4253729 Off ch=3 n=30 v=0
4254738 On ch=3 n=10 v=100
4254740 Off ch=3 n=2 v=0
4255746 Off ch=3 n=10 v=0
4255747 On ch=3 n=11 v=100
4255983 Off ch=3 n=11 v=0
4258549 On ch=3 n=24 v=100
4258619 Off ch=3 n=24 v=0
4258621 On ch=3 n=8 v=100
4259521 Off ch=3 n=8 v=0
4259564 On ch=3 n=8 v=100
4260066 On ch=3 n=2 v=100
4260078 Off ch=3 n=8 v=0
4261306 Off ch=3 n=2 v=0
4261364 On ch=3 n=2 v=100
4261613 On ch=3 n=18 v=100
4261650 On ch=3 n=5 v=100
4261652 Off ch=3 n=2 v=0
4261754 Off ch=3 n=18 v=0
4261756 Off ch=3 n=5 v=0
4264494 On ch=3 n=10 v=100
4264732 On ch=3 n=14 v=100
4264732 Off ch=3 n=10 v=0
4264846 On ch=3 n=1 v=100
4264846 Off ch=3 n=14 v=0
4265512 Off ch=3 n=1 v=0
4265515 On ch=3 n=17 v=100
4265920 Off ch=3 n=17 v=0
4265989 On ch=3 n=17 v=100
4266107 Off ch=3 n=17 v=0
4266390 On ch=3 n=8 v=100
4266609 Off ch=3 n=8 v=0
4266614 On ch=3 n=9 v=100
4266775 Off ch=3 n=9 v=0
4266809 On ch=3 n=9 v=100
4267026 Off ch=3 n=9 v=0
4267104 On ch=3 n=37 v=100
4267104 On ch=3 n=37 v=100
4267241 On ch=3 n=18 v=100
4267313 Off ch=3 n=18 v=0
4267325 On ch=3 n=20 v=100
4267325 Off ch=3 n=37 v=0
4267325 Off ch=3 n=37 v=0
4267457 On ch=3 n=23 v=100
4267463 Off ch=3 n=20 v=0
4267618 Off ch=3 n=23 v=0
4269225 On ch=3 n=10 v=100
4269560 On ch=3 n=9 v=100
4269567 Off ch=3 n=10 v=0
4269829 Off ch=3 n=9 v=0
4270253 On ch=3 n=12 v=100
4270316 Off ch=3 n=12 v=0
4270652 On ch=3 n=19 v=100
4270740 On ch=3 n=28 v=100
4270763 Off ch=3 n=19 v=0
4270958 Off ch=3 n=28 v=0
4271437 On ch=3 n=46 v=100
4271555 Off ch=3 n=46 v=0
4271609 On ch=3 n=17 v=100
4271702 Off ch=3 n=17 v=0
4272229 On ch=3 n=7 v=100
4272673 On ch=3 n=7 v=100
4272677 Off ch=3 n=7 v=0
4272727 On ch=3 n=10 v=100
4272728 Off ch=3 n=7 v=0
4272779 Off ch=3 n=10 v=0
4272788 On ch=3 n=9 v=100
4272832 On ch=3 n=3 v=100
4272832 Off ch=3 n=9 v=0
4272890 On ch=3 n=6 v=100
4272896 Off ch=3 n=3 v=0
4273143 Off ch=3 n=6 v=0
4273949 On ch=3 n=12 v=100
4273964 Off ch=3 n=12 v=0
4274025 On ch=3 n=12 v=100
4274269 On ch=3 n=22 v=100
4274269 On ch=3 n=22 v=100
4274281 Off ch=3 n=12 v=0
4274329 Off ch=3 n=22 v=0
4274329 Off ch=3 n=22 v=0
4278240 On ch=3 n=26 v=100
4278242 On ch=3 n=27 v=100
4278482 On ch=3 n=5 v=100
4278579 Off ch=3 n=27 v=0
4278621 Off ch=3 n=26 v=0
4279326 Off ch=3 n=5 v=0
4279362 On ch=3 n=5 v=100
4279399 Off ch=3 n=5 v=0
4279932 On ch=3 n=45 v=100
4280032 Off ch=3 n=45 v=0
4280368 On ch=3 n=47 v=100
4280729 Off ch=3 n=47 v=0
4285871 On ch=3 n=37 v=100
4285876 On ch=3 n=42 v=100
4285895 On ch=3 n=1 v=100
4285972 Off ch=3 n=37 v=0
4285992 Off ch=3 n=42 v=0
4288363 Off ch=3 n=1 v=0
4288543 On ch=3 n=25 v=100
4288573 On ch=3 n=37 v=100
4288667 Off ch=3 n=25 v=0
4288742 Off ch=3 n=37 v=0
4288747 On ch=3 n=24 v=100
4288964 Off ch=3 n=24 v=0
4288997 On ch=3 n=12 v=100
4289042 Off ch=3 n=12 v=0
4289057 On ch=3 n=18 v=100
4289143 On ch=3 n=14 v=100
4289392 On ch=3 n=36 v=100
4289466 Off ch=3 n=18 v=0
4289480 On ch=3 n=11 v=100
4289496 Off ch=3 n=14 v=0
4289539 Off ch=3 n=36 v=0
4289729 On ch=3 n=5 v=100
4289732 Off ch=3 n=11 v=0
4289859 Off ch=3 n=5 v=0
4290113 On ch=3 n=11 v=100
4290158 Off ch=3 n=11 v=0
4290591 On ch=3 n=18 v=100
4290662 On ch=3 n=7 v=100
4290662 On ch=3 n=16 v=100
4290945 Off ch=3 n=7 v=0
4290948 Off ch=3 n=18 v=0
4290982 Off ch=3 n=16 v=0
4291662 On ch=3 n=20 v=100
4291732 On ch=3 n=23 v=100
4291740 Off ch=3 n=20 v=0
4291751 On ch=3 n=10 v=100
4291899 Off ch=3 n=23 v=0
4292312 Off ch=3 n=10 v=0
4292370 On ch=3 n=19 v=100
4292460 Off ch=3 n=19 v=0
4292491 On ch=3 n=14 v=100
4292993 On ch=3 n=25 v=100
4293019 Off ch=3 n=14 v=0
4293057 Off ch=3 n=25 v=0
4293211 On ch=3 n=13 v=100
4293287 Off ch=3 n=13 v=0
4294522 On ch=3 n=11 v=100
4294674 Off ch=3 n=11 v=0
4294755 On ch=3 n=31 v=100
4294820 Off ch=3 n=31 v=0
4295119 On ch=3 n=23 v=100
4295216 Off ch=3 n=23 v=0
4296449 On ch=3 n=16 v=100
4296486 On ch=3 n=6 v=100
4296553 Off ch=3 n=6 v=0
4296554 Off ch=3 n=16 v=0
4296555 On ch=3 n=6 v=100
4297069 On ch=3 n=20 v=100
4297239 Off ch=3 n=6 v=0
4297274 Off ch=3 n=20 v=0
4299722 On ch=3 n=5 v=100
4299825 Off ch=3 n=5 v=0
4299827 On ch=3 n=12 v=100
4300234 On ch=3 n=39 v=100
4300238 Off ch=3 n=12 v=0
4300281 Off ch=3 n=39 v=0
4300356 On ch=3 n=25 v=100
4300853 Off ch=3 n=25 v=0
4300881 On ch=3 n=25 v=100
4302090 Off ch=3 n=25 v=0
4302747 On ch=3 n=63 v=100
4302835 Off ch=3 n=63 v=0
4302893 On ch=3 n=60 v=100
4302907 On ch=3 n=47 v=100
4303001 Off ch=3 n=47 v=0
4303013 Off ch=3 n=60 v=0
4303360 On ch=3 n=47 v=100
4303720 Off ch=3 n=47 v=0
4305878 On ch=3 n=47 v=100
4306238 Off ch=3 n=47 v=0
4311274 On ch=3 n=0 v=100
4311506 Off ch=3 n=0 v=0
4311635 On ch=3 n=2 v=100
4312708 On ch=3 n=6 v=100
4312729 Off ch=3 n=2 v=0
4312960 Off ch=3 n=6 v=0
4314984 On ch=3 n=9 v=100
4315355 Off ch=3 n=9 v=0
4315368 On ch=3 n=1 v=100
4317479 Off ch=3 n=1 v=0
4318013 On ch=3 n=15 v=100
4325891 On ch=3 n=16 v=100
4325902 Off ch=3 n=15 v=0
4326806 On ch=3 n=26 v=100
4326949 Off ch=3 n=16 v=0
4327334 Off ch=3 n=26 v=0
4328102 On ch=3 n=10 v=100
4328158 On ch=3 n=7 v=100
4328618 Off ch=3 n=10 v=0
4328618 Off ch=3 n=7 v=0
4331316 On ch=3 n=2 v=100
4333637 Off ch=3 n=2 v=0
4346099 On ch=3 n=50 v=100
4346212 Off ch=3 n=50 v=0
4347380 On ch=3 n=4 v=100
4347494 Off ch=3 n=4 v=0
4367829 On ch=3 n=36 v=100
4367936 Off ch=3 n=36 v=0
4368848 On ch=3 n=34 v=100
4368930 Off ch=3 n=34 v=0
4368932 On ch=3 n=2 v=100
4369752 Off ch=3 n=2 v=0
4369753 On ch=3 n=2 v=100
4369984 Off ch=3 n=2 v=0
4371725 On ch=3 n=47 v=100
4371726 On ch=3 n=36 v=100
4371833 Off ch=3 n=36 v=0
4371979 Off ch=3 n=47 v=0
4372663 On ch=3 n=6 v=100
4373341 Off ch=3 n=6 v=0
4373351 On ch=3 n=2 v=100
4373429 On ch=3 n=3 v=100
4373433 Off ch=3 n=2 v=0
4373996 Off ch=3 n=3 v=0
4374090 On ch=3 n=46 v=100
4374092 On ch=3 n=37 v=100
4374199 Off ch=3 n=37 v=0
4374322 Off ch=3 n=46 v=0
4375853 On ch=3 n=24 v=100
4375969 Off ch=3 n=24 v=0
4376021 On ch=3 n=14 v=100
4376117 On ch=3 n=13 v=100
4376128 Off ch=3 n=14 v=0
4376526 Off ch=3 n=13 v=0
4376602 On ch=3 n=13 v=100
4376756 Off ch=3 n=13 v=0
4376765 On ch=3 n=7 v=100
4376898 Off ch=3 n=7 v=0
4377293 On ch=3 n=13 v=100
4377717 Off ch=3 n=13 v=0
4378264 On ch=3 n=5 v=100
4379550 On ch=3 n=24 v=100
4379617 On ch=3 n=21 v=100
4379714 Off ch=3 n=5 v=0
4379782 On ch=3 n=21 v=100
4379782 On ch=3 n=28 v=100
4380119 Off ch=3 n=24 v=0
4380128 Off ch=3 n=21 v=0
4380264 On ch=3 n=55 v=100
4380317 Off ch=3 n=21 v=0
4380389 Off ch=3 n=28 v=0
4380435 Off ch=3 n=55 v=0
4381293 On ch=3 n=6 v=100
4381913 Off ch=3 n=6 v=0
4381943 On ch=3 n=6 v=100
4382462 Off ch=3 n=6 v=0
4382464 On ch=3 n=3 v=100
4385428 On ch=3 n=7 v=100
4385428 Off ch=3 n=3 v=0
4386929 Off ch=3 n=7 v=0
4386932 On ch=3 n=9 v=100
4387422 Off ch=3 n=9 v=0
4387422 Off ch=3 n=7 v=0
4387423 On ch=3 n=7 v=100
4387468 On ch=3 n=7 v=100
4389186 Off ch=3 n=7 v=0
4389224 On ch=3 n=7 v=100
4389574 Off ch=3 n=7 v=0
4392403 On ch=3 n=21 v=100
4392446 Off ch=3 n=21 v=0
4393431 On ch=3 n=22 v=100
4393558 Off ch=3 n=22 v=0
4394672 On ch=3 n=7 v=100
4394998 Off ch=3 n=7 v=0
4396536 On ch=3 n=7 v=100
4397723 Off ch=3 n=7 v=0
4398579 On ch=3 n=11 v=100
4398993 On ch=3 n=63 v=100
4399220 On ch=3 n=26 v=100
4399290 On ch=3 n=26 v=100
4399347 Off ch=3 n=11 v=0
4399424 Off ch=3 n=63 v=0
4399424 Off ch=3 n=26 v=0
4399508 Off ch=3 n=26 v=0
4400590 On ch=3 n=59 v=100
4400653 On ch=3 n=23 v=100
4400728 Off ch=3 n=23 v=0
4400736 Off ch=3 n=59 v=0
4400910 On ch=3 n=19 v=100
4401040 On ch=3 n=15 v=100
4401125 On ch=3 n=11 v=100
4401137 On ch=3 n=18 v=100
4401500 Off ch=3 n=19 v=0
4401500 Off ch=3 n=15 v=0
4401515 Off ch=3 n=11 v=0
4401605 Off ch=3 n=18 v=0
4402603 On ch=3 n=5 v=100
4403566 Off ch=3 n=5 v=0
4403586 On ch=3 n=7 v=100
4403699 On ch=3 n=41 v=100
4403898 Off ch=3 n=7 v=0
4403899 On ch=3 n=10 v=100
4403957 Off ch=3 n=41 v=0
4403957 Off ch=3 n=10 v=0
4403975 On ch=3 n=17 v=100
4404084 Off ch=3 n=17 v=0
4404148 On ch=3 n=15 v=100
4404224 Off ch=3 n=15 v=0
4415238 On ch=3 n=26 v=100
4415249 On ch=3 n=22 v=100
4415294 Off ch=3 n=26 v=0
4415321 Off ch=3 n=22 v=0
4416627 On ch=3 n=14 v=100
4416796 Off ch=3 n=14 v=0
4417091 On ch=3 n=9 v=100
4417333 Off ch=3 n=9 v=0
4417402 On ch=3 n=13 v=100
4417468 On ch=3 n=13 v=100
4417599 Off ch=3 n=13 v=0
4417632 Off ch=3 n=13 v=0
4435079 On ch=3 n=2 v=100
4437216 Off ch=3 n=2 v=0
4443229 On ch=3 n=10 v=100
4444198 Off ch=3 n=10 v=0
4444530 On ch=3 n=2 v=100
4449570 On ch=3 n=1 v=100
4449597 Off ch=3 n=2 v=0
4450107 Off ch=3 n=1 v=0
4456520 On ch=3 n=8 v=100
4456611 Off ch=3 n=8 v=0
4456614 On ch=3 n=14 v=100
4456766 On ch=3 n=13 v=100
4456796 On ch=3 n=10 v=100
4456823 Off ch=3 n=14 v=0
4456861 On ch=3 n=7 v=100
4456865 Off ch=3 n=13 v=0
4456885 Off ch=3 n=10 v=0
4457088 Off ch=3 n=7 v=0
4457517 On ch=3 n=7 v=100
4457836 Off ch=3 n=7 v=0
4457872 On ch=3 n=7 v=100
4458251 Off ch=3 n=7 v=0
4458271 On ch=3 n=12 v=100
4458340 Off ch=3 n=12 v=0
4458389 On ch=3 n=10 v=100
4458450 Off ch=3 n=10 v=0
4458540 On ch=3 n=25 v=100
4458596 On ch=3 n=19 v=100
4458633 On ch=3 n=20 v=100
4458634 On ch=3 n=30 v=100
4458637 On ch=3 n=18 v=100
4458766 Off ch=3 n=25 v=0
4458767 Off ch=3 n=19 v=0
4458786 Off ch=3 n=18 v=0
4458806 Off ch=3 n=20 v=0
4458913 On ch=3 n=21 v=100
4458923 Off ch=3 n=30 v=0
4459002 On ch=3 n=49 v=100
4459076 On ch=3 n=31 v=100
4459087 Off ch=3 n=21 v=0
4459091 On ch=3 n=33 v=100
4459094 On ch=3 n=23 v=100
4459216 Off ch=3 n=23 v=0
4459284 Off ch=3 n=49 v=0
4459320 Off ch=3 n=31 v=0
4459395 Off ch=3 n=33 v=0
4460706 On ch=3 n=16 v=100
4460752 On ch=3 n=8 v=100
4460906 Off ch=3 n=16 v=0
4461674 On ch=3 n=20 v=100
4461678 Off ch=3 n=8 v=0
4461928 On ch=3 n=33 v=100
4462008 Off ch=3 n=20 v=0
4462075 Off ch=3 n=33 v=0
4462118 On ch=3 n=13 v=100
4462214 On ch=3 n=7 v=100
4462250 Off ch=3 n=13 v=0
4462464 On ch=3 n=10 v=100
4462467 Off ch=3 n=7 v=0
4463218 Off ch=3 n=10 v=0
4463271 On ch=3 n=17 v=100
4463427 Off ch=3 n=17 v=0
4472444 On ch=3 n=20 v=100
4472493 On ch=3 n=18 v=100
4472560 On ch=3 n=11 v=100
4472584 On ch=3 n=18 v=100
4472938 Off ch=3 n=18 v=0
4472940 Off ch=3 n=11 v=0
4472944 Off ch=3 n=20 v=0
4473032 On ch=3 n=11 v=100
4473192 Off ch=3 n=18 v=0
4473381 On ch=3 n=26 v=100
4473438 Off ch=3 n=11 v=0
4473447 Off ch=3 n=26 v=0
4473574 On ch=3 n=22 v=100
4473574 On ch=3 n=34 v=100
4473709 Off ch=3 n=22 v=0
4473762 Off ch=3 n=34 v=0
4474103 On ch=3 n=2 v=100
4475499 On ch=3 n=7 v=100
4475517 Off ch=3 n=2 v=0
4475857 On ch=3 n=27 v=100
4475894 Off ch=3 n=7 v=0
4475894 Off ch=3 n=27 v=0
4475943 On ch=3 n=27 v=100
4475943 On ch=3 n=5 v=100
4475943 On ch=3 n=7 v=100
4475992 Off ch=3 n=7 v=0
4476019 Off ch=3 n=27 v=0
4476633 Off ch=3 n=5 v=0
4476767 On ch=3 n=8 v=100
4476781 On ch=3 n=6 v=100
4476818 Off ch=3 n=8 v=0
4477040 Off ch=3 n=6 v=0
4478448 On ch=3 n=24 v=100
4478466 On ch=3 n=10 v=100
4478601 Off ch=3 n=24 v=0
4479145 Off ch=3 n=10 v=0
4479190 On ch=3 n=30 v=100
4479296 Off ch=3 n=30 v=0
4479444 On ch=3 n=21 v=100
4479531 On ch=3 n=23 v=100
4479552 Off ch=3 n=21 v=0
4479943 On ch=3 n=11 v=100
4479994 Off ch=3 n=23 v=0
4480087 Off ch=3 n=11 v=0
4480097 On ch=3 n=9 v=100
4481112 Off ch=3 n=9 v=0
4481721 On ch=3 n=16 v=100
4482067 Off ch=3 n=16 v=0
4482077 On ch=3 n=25 v=100
4482079 On ch=3 n=38 v=100
4482216 Off ch=3 n=25 v=0
4482376 Off ch=3 n=38 v=0
4484799 On ch=3 n=4 v=100
4484845 Off ch=3 n=4 v=0
4485375 On ch=3 n=3 v=100
4486512 Off ch=3 n=3 v=0
4491360 On ch=3 n=24 v=100
4491360 On ch=3 n=24 v=100
4491416 On ch=3 n=9 v=100
4491716 Off ch=3 n=9 v=0
4491730 Off ch=3 n=24 v=0
4491730 Off ch=3 n=24 v=0
4492440 On ch=3 n=10 v=100
4493200 Off ch=3 n=10 v=0
4493202 On ch=3 n=6 v=100
4493448 On ch=3 n=7 v=100
4493449 Off ch=3 n=6 v=0
4493879 Off ch=3 n=7 v=0
4495129 On ch=3 n=59 v=100
4495129 On ch=3 n=59 v=100
4495267 Off ch=3 n=59 v=0
4495267 Off ch=3 n=59 v=0
4495934 On ch=3 n=62 v=100
4495934 On ch=3 n=62 v=100
4496040 Off ch=3 n=62 v=0
4496040 Off ch=3 n=62 v=0
4496268 On ch=3 n=68 v=100
4496379 Off ch=3 n=68 v=0
4496410 On ch=3 n=64 v=100
4496535 Off ch=3 n=64 v=0
4496727 On ch=3 n=64 v=100
4496727 On ch=3 n=64 v=100
4496853 Off ch=3 n=64 v=0
4496853 Off ch=3 n=64 v=0
4498333 On ch=3 n=70 v=100
4498447 Off ch=3 n=70 v=0
4499103 On ch=3 n=63 v=100
4499236 Off ch=3 n=63 v=0
4500375 On ch=3 n=57 v=100
4500508 Off ch=3 n=57 v=0
4502769 On ch=3 n=52 v=100
4502769 On ch=3 n=52 v=100
4502893 Off ch=3 n=52 v=0
4502893 Off ch=3 n=52 v=0
4502919 On ch=3 n=69 v=100
4503052 Off ch=3 n=69 v=0
4503237 On ch=3 n=59 v=100
4503370 Off ch=3 n=59 v=0
4505939 On ch=3 n=62 v=100
4506073 Off ch=3 n=62 v=0
4506266 On ch=3 n=62 v=100
4506391 Off ch=3 n=62 v=0
4507067 On ch=3 n=61 v=100
4507067 On ch=3 n=61 v=100
4507168 Off ch=3 n=61 v=0
4507168 Off ch=3 n=61 v=0
4507216 On ch=3 n=48 v=100
4507315 Off ch=3 n=48 v=0
4507538 On ch=3 n=58 v=100
4507663 Off ch=3 n=58 v=0
4508023 On ch=3 n=66 v=100
4508023 On ch=3 n=66 v=100
4508121 Off ch=3 n=66 v=0
4508121 Off ch=3 n=66 v=0
4508492 On ch=3 n=62 v=100
4508617 Off ch=3 n=62 v=0
4511448 On ch=3 n=63 v=100
4511448 On ch=3 n=63 v=100
4511553 Off ch=3 n=63 v=0
4511553 Off ch=3 n=63 v=0
4512402 On ch=3 n=66 v=100
4512402 On ch=3 n=66 v=100
4512529 Off ch=3 n=66 v=0
4512529 Off ch=3 n=66 v=0
4512568 On ch=3 n=53 v=100
4512655 Off ch=3 n=53 v=0
4513202 On ch=3 n=58 v=100
4513202 On ch=3 n=58 v=100
4513318 Off ch=3 n=58 v=0
4513318 Off ch=3 n=58 v=0
4513628 On ch=3 n=6 v=100
4514978 Off ch=3 n=6 v=0
4515591 On ch=3 n=8 v=100
4516596 Off ch=3 n=8 v=0
4518225 On ch=3 n=1 v=100
4520614 Off ch=3 n=1 v=0
4523266 On ch=3 n=0 v=100
4523923 On ch=3 n=1 v=100
4523927 Off ch=3 n=0 v=0
4525652 Off ch=3 n=1 v=0
4526593 On ch=3 n=5 v=100
4526674 Off ch=3 n=5 v=0
4526678 On ch=3 n=8 v=100
4526891 Off ch=3 n=8 v=0
4528914 On ch=3 n=6 v=100
4529147 On ch=3 n=2 v=100
4529169 Off ch=3 n=6 v=0
4530260 Off ch=3 n=2 v=0
4533934 On ch=3 n=48 v=100
4534294 Off ch=3 n=48 v=0
4536697 On ch=3 n=46 v=100
4537033 Off ch=3 n=46 v=0
4537371 On ch=3 n=49 v=100
4537458 Off ch=3 n=49 v=0
4537945 On ch=3 n=26 v=100
4539750 On ch=3 n=12 v=100
4539764 Off ch=3 n=26 v=0
4540167 Off ch=3 n=12 v=0
4540169 On ch=3 n=6 v=100
4540276 Off ch=3 n=6 v=0
4542492 On ch=3 n=14 v=100
4542556 On ch=3 n=7 v=100
4543022 Off ch=3 n=14 v=0
4543043 Off ch=3 n=7 v=0
4543109 On ch=3 n=8 v=100
4543232 On ch=3 n=0 v=100
4543232 On ch=3 n=13 v=100
4543241 Off ch=3 n=8 v=0
4543287 Off ch=3 n=0 v=0
4543288 On ch=3 n=20 v=100
4543289 On ch=3 n=6 v=100
4543312 Off ch=3 n=13 v=0
4543356 Off ch=3 n=6 v=0
4543383 Off ch=3 n=20 v=0
4543404 On ch=3 n=39 v=100
4543621 Off ch=3 n=39 v=0
4544550 On ch=3 n=28 v=100
4544637 Off ch=3 n=28 v=0
4544953 On ch=3 n=19 v=100
4544993 Off ch=3 n=19 v=0
4545110 On ch=3 n=7 v=100
4545291 On ch=3 n=7 v=100
4545291 Off ch=3 n=7 v=0
4545577 Off ch=3 n=7 v=0
4545790 On ch=3 n=28 v=100
4545861 Off ch=3 n=28 v=0
4545906 On ch=3 n=10 v=100
4546159 Off ch=3 n=10 v=0
4546173 On ch=3 n=22 v=100
4546229 Off ch=3 n=22 v=0
4546363 On ch=3 n=2 v=100
4546450 Off ch=3 n=2 v=0
4546536 On ch=3 n=8 v=100
4546554 On ch=3 n=9 v=100
4546554 Off ch=3 n=8 v=0
4546746 On ch=3 n=10 v=100
4546766 Off ch=3 n=9 v=0
4547135 On ch=3 n=4 v=100
4547135 Off ch=3 n=10 v=0
4547626 Off ch=3 n=4 v=0
4548652 On ch=3 n=15 v=100
4548735 Off ch=3 n=15 v=0
4548807 On ch=3 n=50 v=100
4548868 On ch=3 n=45 v=100
4548874 On ch=3 n=35 v=100
4548876 On ch=3 n=9 v=100
4548946 Off ch=3 n=50 v=0
4549024 Off ch=3 n=9 v=0
4549052 On ch=3 n=41 v=100
4549164 Off ch=3 n=35 v=0
4549190 Off ch=3 n=41 v=0
4549195 Off ch=3 n=45 v=0
4549507 On ch=3 n=33 v=100
4549823 On ch=3 n=13 v=100
4549890 On ch=3 n=11 v=100
4550278 Off ch=3 n=13 v=0
4550278 Off ch=3 n=11 v=0
4550279 Off ch=3 n=33 v=0
4550305 On ch=3 n=7 v=100
4550572 Off ch=3 n=7 v=0
4553588 On ch=3 n=5 v=100
4554138 Off ch=3 n=5 v=0
4554554 On ch=3 n=22 v=100
4554822 Off ch=3 n=22 v=0
4555119 On ch=3 n=40 v=100
4555262 Off ch=3 n=40 v=0
4555334 On ch=3 n=40 v=100
4555836 Off ch=3 n=40 v=0
4556194 On ch=3 n=42 v=100
4556405 On ch=3 n=39 v=100
4556502 Off ch=3 n=42 v=0
4556521 On ch=3 n=27 v=100
4556777 Off ch=3 n=39 v=0
4556777 Off ch=3 n=27 v=0
4556827 On ch=3 n=27 v=100
4556827 On ch=3 n=39 v=100
4556911 Off ch=3 n=27 v=0
4556960 Off ch=3 n=39 v=0
4558644 On ch=3 n=29 v=100
4558695 On ch=3 n=11 v=100
4558696 Off ch=3 n=29 v=0
4558914 On ch=3 n=20 v=100
4559107 On ch=3 n=8 v=100
4559121 Off ch=3 n=11 v=0
4559162 Off ch=3 n=20 v=0
4559696 Off ch=3 n=8 v=0
4560099 On ch=3 n=33 v=100
4560111 On ch=3 n=22 v=100
4560209 Off ch=3 n=33 v=0
4560209 Off ch=3 n=22 v=0
4560991 On ch=3 n=19 v=100
4561009 Off ch=3 n=19 v=0
4561059 On ch=3 n=19 v=100
4561102 Off ch=3 n=19 v=0
4573640 On ch=3 n=5 v=100
4574190 Off ch=3 n=5 v=0
4574606 On ch=3 n=22 v=100
4574874 Off ch=3 n=22 v=0
4575174 On ch=3 n=40 v=100
4575314 Off ch=3 n=40 v=0
4575386 On ch=3 n=40 v=100
4575747 On ch=3 n=37 v=100
4575880 Off ch=3 n=40 v=0
4575900 Off ch=3 n=37 v=0
4576240 On ch=3 n=41 v=100
4576451 On ch=3 n=39 v=100
4576451 On ch=3 n=39 v=100
4576548 Off ch=3 n=41 v=0
4576594 On ch=3 n=27 v=100
4576900 Off ch=3 n=27 v=0
4576984 Off ch=3 n=39 v=0
4576984 Off ch=3 n=39 v=0
4589957 On ch=3 n=12 v=100
4590422 Off ch=3 n=12 v=0
4590430 On ch=3 n=14 v=100
4590496 Off ch=3 n=14 v=0
4590505 On ch=3 n=11 v=100
4591200 Off ch=3 n=11 v=0
4591281 On ch=3 n=32 v=100
4591336 On ch=3 n=16 v=100
4591419 Off ch=3 n=32 v=0
4591508 Off ch=3 n=16 v=0
4596387 On ch=3 n=24 v=100
4596423 On ch=3 n=17 v=100
4596423 On ch=3 n=17 v=100
4596443 On ch=3 n=16 v=100
4596475 On ch=3 n=6 v=100
4596642 Off ch=3 n=24 v=0
4596642 Off ch=3 n=6 v=0
4596643 Off ch=3 n=16 v=0
4596654 Off ch=3 n=17 v=0
4596654 Off ch=3 n=17 v=0
4602698 On ch=3 n=47 v=100
4603671 Off ch=3 n=47 v=0
4603794 On ch=3 n=9 v=100
4603978 Off ch=3 n=9 v=0
4604017 On ch=3 n=5 v=100
4604052 On ch=3 n=28 v=100
4604063 Off ch=3 n=5 v=0
4604066 On ch=3 n=14 v=100
4604130 Off ch=3 n=28 v=0
4604134 Off ch=3 n=14 v=0
4624599 On ch=3 n=6 v=100
4624888 Off ch=3 n=6 v=0
4624890 On ch=3 n=6 v=100
4625091 Off ch=3 n=6 v=0
4625539 On ch=3 n=12 v=100
4625723 Off ch=3 n=12 v=0
4625727 On ch=3 n=21 v=100
4625789 On ch=3 n=11 v=100
4625923 Off ch=3 n=21 v=0
4626037 Off ch=3 n=11 v=0
4626064 On ch=3 n=17 v=100
4626065 On ch=3 n=24 v=100
4626151 On ch=3 n=9 v=100
4626260 Off ch=3 n=17 v=0
4626290 Off ch=3 n=24 v=0
4626497 Off ch=3 n=9 v=0
4626526 On ch=3 n=9 v=100
4626575 On ch=3 n=9 v=100
4626721 Off ch=3 n=9 v=0
4626787 On ch=3 n=26 v=100
4626870 Off ch=3 n=9 v=0
4626880 Off ch=3 n=26 v=0
4627100 On ch=3 n=10 v=100
4627419 Off ch=3 n=10 v=0
4627782 On ch=3 n=23 v=100
4627797 On ch=3 n=12 v=100
4627869 Off ch=3 n=23 v=0
4627874 Off ch=3 n=12 v=0
4630656 On ch=3 n=20 v=100
4631009 Off ch=3 n=20 v=0
4631402 On ch=3 n=16 v=100
4631420 On ch=3 n=4 v=100
4631443 Off ch=3 n=16 v=0
4631455 Off ch=3 n=4 v=0
4631470 On ch=3 n=14 v=100
4632225 On ch=3 n=24 v=100
4632256 Off ch=3 n=14 v=0
4632457 Off ch=3 n=24 v=0
4632623 On ch=3 n=22 v=100
4632752 On ch=3 n=27 v=100
4632774 On ch=3 n=29 v=100
4632803 Off ch=3 n=22 v=0
4632903 Off ch=3 n=27 v=0
4632922 On ch=3 n=26 v=100
4633052 Off ch=3 n=29 v=0
4633107 Off ch=3 n=26 v=0
4633259 On ch=3 n=56 v=100
4633325 On ch=3 n=27 v=100
4633388 Off ch=3 n=56 v=0
4633487 Off ch=3 n=27 v=0
4633784 On ch=3 n=17 v=100
4633881 Off ch=3 n=17 v=0
4633971 On ch=3 n=26 v=100
4633993 On ch=3 n=41 v=100
4634167 Off ch=3 n=26 v=0
4634596 Off ch=3 n=41 v=0
4636565 On ch=3 n=15 v=100
4636619 On ch=3 n=21 v=100
4636856 Off ch=3 n=15 v=0
4637011 On ch=3 n=3 v=100
4637028 Off ch=3 n=21 v=0
4637622 Off ch=3 n=3 v=0
4638106 On ch=3 n=7 v=100
4638660 Off ch=3 n=7 v=0
4638713 On ch=3 n=6 v=100
4638747 Off ch=3 n=6 v=0
4638904 On ch=3 n=9 v=100
4639600 On ch=3 n=18 v=100
4639607 Off ch=3 n=9 v=0
4639810 Off ch=3 n=18 v=0
4639912 On ch=3 n=23 v=100
4639955 On ch=3 n=10 v=100
4640211 Off ch=3 n=23 v=0
4640212 On ch=3 n=11 v=100
4640214 On ch=3 n=38 v=100
4640465 Off ch=3 n=10 v=0
4640503 Off ch=3 n=11 v=0
4640517 Off ch=3 n=38 v=0
4640551 On ch=3 n=38 v=100
4640599 Off ch=3 n=38 v=0
4640702 On ch=3 n=34 v=100
4640753 On ch=3 n=8 v=100
4640948 Off ch=3 n=34 v=0
4641717 Off ch=3 n=8 v=0
4641799 On ch=3 n=2 v=100
4641841 Off ch=3 n=2 v=0
4646561 On ch=3 n=4 v=100
4647647 On ch=3 n=35 v=100
4647731 Off ch=3 n=4 v=0
4647749 Off ch=3 n=35 v=0
4648159 On ch=3 n=12 v=100
4651835 Off ch=3 n=12 v=0
4652251 On ch=3 n=48 v=100
4652606 Off ch=3 n=48 v=0
4652966 On ch=3 n=49 v=100
4653064 Off ch=3 n=49 v=0
4653142 On ch=3 n=50 v=100
4653243 Off ch=3 n=50 v=0
4655410 On ch=3 n=62 v=100
4655517 Off ch=3 n=62 v=0
4655551 On ch=3 n=42 v=100
4655625 Off ch=3 n=42 v=0
4655731 On ch=3 n=26 v=100
4655788 On ch=3 n=26 v=100
4656062 Off ch=3 n=26 v=0
4657077 Off ch=3 n=26 v=0
4657104 On ch=3 n=26 v=100
4657538 Off ch=3 n=26 v=0
4657587 On ch=3 n=26 v=100
4657630 On ch=3 n=10 v=100
4657646 Off ch=3 n=26 v=0
4658051 Off ch=3 n=10 v=0
4658052 On ch=3 n=5 v=100
4658158 Off ch=3 n=5 v=0
4660631 On ch=3 n=17 v=100
4660679 On ch=3 n=5 v=100
4660856 Off ch=3 n=17 v=0
4661373 Off ch=3 n=5 v=0
4661375 On ch=3 n=5 v=100
4661440 Off ch=3 n=5 v=0
4661598 On ch=3 n=43 v=100
4661966 Off ch=3 n=43 v=0
4662635 On ch=3 n=24 v=100
4662729 Off ch=3 n=24 v=0
4663011 On ch=3 n=28 v=100
4663094 Off ch=3 n=28 v=0
4663182 On ch=3 n=10 v=100
4663326 Off ch=3 n=10 v=0
4664558 On ch=3 n=2 v=100
4665703 Off ch=3 n=2 v=0
4665709 On ch=3 n=12 v=100
4665786 Off ch=3 n=12 v=0
4665914 On ch=3 n=11 v=100
4665940 On ch=3 n=15 v=100
4666159 Off ch=3 n=11 v=0
4666198 On ch=3 n=3 v=100
4666215 Off ch=3 n=15 v=0
4668591 On ch=3 n=19 v=100
4668658 Off ch=3 n=3 v=0
4668660 On ch=3 n=11 v=100
4668931 Off ch=3 n=19 v=0
4669148 Off ch=3 n=11 v=0
4669179 On ch=3 n=22 v=100
4669269 Off ch=3 n=22 v=0
4669325 On ch=3 n=10 v=100
4669828 On ch=3 n=21 v=100
4669959 Off ch=3 n=10 v=0
4669965 On ch=3 n=11 v=100
4669976 Off ch=3 n=21 v=0
4670045 Off ch=3 n=11 v=0
4670740 On ch=3 n=18 v=100
4670782 Off ch=3 n=18 v=0
4672131 On ch=3 n=8 v=100
4672245 On ch=3 n=7 v=100
4672245 Off ch=3 n=8 v=0
4672628 Off ch=3 n=7 v=0
4672794 On ch=3 n=19 v=100
4672884 Off ch=3 n=19 v=0
4673537 On ch=3 n=8 v=100
4673896 On ch=3 n=11 v=100
4673984 Off ch=3 n=8 v=0
4674108 On ch=3 n=24 v=100
4674173 Off ch=3 n=11 v=0
4674344 On ch=3 n=48 v=100
4674345 Off ch=3 n=24 v=0
4674390 On ch=3 n=27 v=100
4674485 Off ch=3 n=48 v=0
4674522 Off ch=3 n=27 v=0
4675498 On ch=3 n=9 v=100
4675815 Off ch=3 n=9 v=0
4676123 On ch=3 n=14 v=100
4676252 Off ch=3 n=14 v=0
4676256 On ch=3 n=13 v=100
4676638 On ch=3 n=28 v=100
4676697 On ch=3 n=58 v=100
4676707 On ch=3 n=11 v=100
4676711 Off ch=3 n=13 v=0
4676900 Off ch=3 n=11 v=0
4676909 Off ch=3 n=28 v=0
4677037 On ch=3 n=25 v=100
4677048 Off ch=3 n=58 v=0
4677131 Off ch=3 n=25 v=0
4677271 On ch=3 n=26 v=100
4677325 On ch=3 n=32 v=100
4677377 On ch=3 n=17 v=100
4677377 Off ch=3 n=26 v=0
4677601 Off ch=3 n=32 v=0
4677601 Off ch=3 n=17 v=0
4677602 On ch=3 n=17 v=100
4677604 On ch=3 n=16 v=100
4677689 Off ch=3 n=16 v=0
4677715 Off ch=3 n=17 v=0
4678886 On ch=3 n=34 v=100
4678901 On ch=3 n=57 v=100
4678987 Off ch=3 n=34 v=0
4678997 On ch=3 n=2 v=100
4679040 Off ch=3 n=57 v=0
4679120 Off ch=3 n=2 v=0
4679821 On ch=3 n=17 v=100
4680266 Off ch=3 n=17 v=0
4680660 On ch=3 n=3 v=100
4681369 On ch=3 n=12 v=100
4681370 Off ch=3 n=3 v=0
4681449 On ch=3 n=6 v=100
4681453 Off ch=3 n=12 v=0
4681700 Off ch=3 n=6 v=0
4681739 On ch=3 n=3 v=100
4681904 On ch=3 n=8 v=100
4682003 Off ch=3 n=3 v=0
4682522 Off ch=3 n=8 v=0
4682817 On ch=3 n=15 v=100
4683174 Off ch=3 n=15 v=0
4683190 On ch=3 n=24 v=100
4683197 On ch=3 n=32 v=100
4683291 On ch=3 n=19 v=100
4683317 Off ch=3 n=24 v=0
4683339 Off ch=3 n=32 v=0
4683350 On ch=3 n=42 v=100
4683353 Off ch=3 n=19 v=0
4683476 Off ch=3 n=42 v=0
4684826 On ch=3 n=14 v=100
4684950 On ch=3 n=35 v=100
4684986 On ch=3 n=10 v=100
4684999 Off ch=3 n=14 v=0
4685165 Off ch=3 n=35 v=0
4685654 On ch=3 n=13 v=100
4685664 Off ch=3 n=10 v=0
4685762 On ch=3 n=8 v=100
4685778 Off ch=3 n=13 v=0
4686077 Off ch=3 n=8 v=0
4687395 On ch=3 n=8 v=100
4687614 Off ch=3 n=8 v=0
4687616 On ch=3 n=11 v=100
4688405 Off ch=3 n=11 v=0
4689752 On ch=3 n=5 v=100
4692519 Off ch=3 n=5 v=0
4692548 On ch=3 n=5 v=100
4694964 Off ch=3 n=5 v=0
4695003 On ch=3 n=5 v=100
4695485 Off ch=3 n=5 v=0
4698743 On ch=3 n=31 v=100
4698775 On ch=3 n=41 v=100
4698988 Off ch=3 n=31 v=0
4698988 Off ch=3 n=41 v=0
4718283 On ch=3 n=9 v=100
4718520 Off ch=3 n=9 v=0
4722129 On ch=3 n=15 v=100
4722580 Off ch=3 n=15 v=0
4725210 On ch=3 n=47 v=100
4725437 On ch=3 n=31 v=100
4725437 On ch=3 n=31 v=100
4725683 Off ch=3 n=47 v=0
4725866 On ch=3 n=31 v=100
4725866 On ch=3 n=31 v=100
4725907 Off ch=3 n=31 v=0
4725907 Off ch=3 n=31 v=0
4726443 Off ch=3 n=31 v=0
4726443 Off ch=3 n=31 v=0
4726764 On ch=3 n=47 v=100
4726764 On ch=3 n=47 v=100
4727016 On ch=3 n=28 v=100
4727360 Off ch=3 n=28 v=0
4727476 Off ch=3 n=47 v=0
4727476 Off ch=3 n=47 v=0
4728087 On ch=3 n=31 v=100
4728373 Off ch=3 n=31 v=0
4728608 On ch=3 n=34 v=100
4728805 On ch=3 n=42 v=100
4728976 Off ch=3 n=34 v=0
4729391 Off ch=3 n=42 v=0
4729830 On ch=3 n=16 v=100
4729944 Off ch=3 n=16 v=0
4729946 On ch=3 n=32 v=100
4730024 Off ch=3 n=32 v=0
4730203 On ch=3 n=5 v=100
4730307 Off ch=3 n=5 v=0
4730310 On ch=3 n=8 v=100
4731103 On ch=3 n=5 v=100
4731103 On ch=3 n=18 v=100
4731104 Off ch=3 n=8 v=0
4731181 Off ch=3 n=5 v=0
4731183 On ch=3 n=8 v=100
4731191 Off ch=3 n=18 v=0
4731219 Off ch=3 n=8 v=0
4731263 On ch=3 n=29 v=100
4731388 On ch=3 n=37 v=100
4731456 On ch=3 n=21 v=100
4731457 Off ch=3 n=29 v=0
4731469 Off ch=3 n=37 v=0
4731758 Off ch=3 n=21 v=0
4731760 On ch=3 n=12 v=100
4732721 Off ch=3 n=12 v=0
4732724 On ch=3 n=15 v=100
4732925 Off ch=3 n=15 v=0
4733113 On ch=3 n=35 v=100
4733221 Off ch=3 n=35 v=0
4733224 On ch=3 n=17 v=100
4733279 Off ch=3 n=17 v=0
4733284 On ch=3 n=15 v=100
4733334 Off ch=3 n=15 v=0
4733839 On ch=3 n=5 v=100
4733839 On ch=3 n=3 v=100
4733944 Off ch=3 n=5 v=0
4733957 Off ch=3 n=3 v=0
4733969 On ch=3 n=16 v=100
4734078 On ch=3 n=15 v=100
4734083 Off ch=3 n=16 v=0
4734427 Off ch=3 n=15 v=0
4734687 On ch=3 n=7 v=100
4734999 On ch=3 n=31 v=100
4735001 Off ch=3 n=7 v=0
4735073 Off ch=3 n=31 v=0
4735311 On ch=3 n=6 v=100
4735567 On ch=3 n=9 v=100
4735569 Off ch=3 n=6 v=0
4736084 Off ch=3 n=9 v=0
4736282 On ch=3 n=26 v=100
4736599 On ch=3 n=2 v=100
4736983 Off ch=3 n=26 v=0
4737453 Off ch=3 n=2 v=0
4737537 On ch=3 n=29 v=100
4737599 Off ch=3 n=29 v=0
4737602 On ch=3 n=8 v=100
4737738 Off ch=3 n=8 v=0
4738244 On ch=3 n=43 v=100
4738279 On ch=3 n=14 v=100
4738334 Off ch=3 n=43 v=0
4738334 Off ch=3 n=14 v=0
4738335 On ch=3 n=10 v=100
4738829 Off ch=3 n=10 v=0
4738984 On ch=3 n=42 v=100
4739157 Off ch=3 n=42 v=0
4739468 On ch=3 n=15 v=100
4739639 Off ch=3 n=15 v=0
4739652 On ch=3 n=16 v=100
4739663 On ch=3 n=43 v=100
4739716 On ch=3 n=31 v=100
4739721 On ch=3 n=16 v=100
4739725 Off ch=3 n=16 v=0
4739913 Off ch=3 n=16 v=0
4739916 Off ch=3 n=43 v=0
4739986 Off ch=3 n=31 v=0
4740201 On ch=3 n=5 v=100
4740902 Off ch=3 n=5 v=0
4740961 On ch=3 n=5 v=100
4742304 Off ch=3 n=5 v=0
4742378 On ch=3 n=20 v=100
4743072 Off ch=3 n=20 v=0
4748245 On ch=3 n=20 v=100
4748438 On ch=3 n=3 v=100
4748444 On ch=3 n=50 v=100
4748447 Off ch=3 n=20 v=0
4748582 On ch=3 n=12 v=100
4748739 Off ch=3 n=3 v=0
4748981 On ch=3 n=5 v=100
4749037 Off ch=3 n=50 v=0
4749163 Off ch=3 n=12 v=0
4749494 Off ch=3 n=5 v=0
4749925 On ch=3 n=29 v=100
4749984 On ch=3 n=28 v=100
4750070 On ch=3 n=19 v=100
4750113 Off ch=3 n=29 v=0
4750114 Off ch=3 n=28 v=0
4750127 Off ch=3 n=19 v=0
4750171 On ch=3 n=37 v=100
4750304 Off ch=3 n=37 v=0
4750331 On ch=3 n=37 v=100
4750331 On ch=3 n=24 v=100
4750424 Off ch=3 n=37 v=0
4750471 Off ch=3 n=24 v=0
4750770 On ch=3 n=27 v=100
4750900 Off ch=3 n=27 v=0
4751069 On ch=3 n=28 v=100
4751203 Off ch=3 n=28 v=0
4751507 On ch=3 n=29 v=100
4751636 Off ch=3 n=29 v=0
4751646 On ch=3 n=24 v=100
4751775 Off ch=3 n=24 v=0
4751781 On ch=3 n=25 v=100
4751907 Off ch=3 n=25 v=0
4752099 On ch=3 n=23 v=100
4752209 Off ch=3 n=23 v=0
4752255 On ch=3 n=15 v=100
4752384 On ch=3 n=20 v=100
4752387 On ch=3 n=26 v=100
4752397 Off ch=3 n=15 v=0
4752480 Off ch=3 n=20 v=0
4752510 Off ch=3 n=26 v=0
4752557 On ch=3 n=15 v=100
4752823 Off ch=3 n=15 v=0
4752835 On ch=3 n=24 v=100
4752969 On ch=3 n=26 v=100
4753002 On ch=3 n=38 v=100
4753002 Off ch=3 n=24 v=0
4753006 On ch=3 n=11 v=100
4753019 On ch=3 n=57 v=100
4753020 On ch=3 n=38 v=100
4753091 Off ch=3 n=26 v=0
4753092 Off ch=3 n=11 v=0
4753116 Off ch=3 n=38 v=0
4753164 Off ch=3 n=38 v=0
4753441 Off ch=3 n=57 v=0
4753777 On ch=3 n=17 v=100
4753884 Off ch=3 n=17 v=0
4754482 On ch=3 n=23 v=100
4754560 Off ch=3 n=23 v=0
4754719 On ch=3 n=32 v=100
4755038 Off ch=3 n=32 v=0
4755197 On ch=3 n=31 v=100
4755454 Off ch=3 n=31 v=0
4756264 On ch=3 n=48 v=100
4756339 On ch=3 n=24 v=100
4756378 Off ch=3 n=48 v=0
4756475 Off ch=3 n=24 v=0
4756516 On ch=3 n=24 v=100
4756594 Off ch=3 n=24 v=0
4756922 On ch=3 n=56 v=100
4757154 On ch=3 n=32 v=100
4757209 On ch=3 n=47 v=100
4757364 On ch=3 n=15 v=100
4757397 Off ch=3 n=56 v=0
4757407 Off ch=3 n=32 v=0
4757608 Off ch=3 n=47 v=0
4757719 On ch=3 n=45 v=100
4757767 Off ch=3 n=15 v=0
4757838 On ch=3 n=30 v=100
4758043 Off ch=3 n=45 v=0
4758043 Off ch=3 n=30 v=0
4758151 On ch=3 n=45 v=100
4758151 On ch=3 n=30 v=100
4758179 Off ch=3 n=45 v=0
4758203 Off ch=3 n=30 v=0
4758253 On ch=3 n=27 v=100
4758255 On ch=3 n=37 v=100
4758377 On ch=3 n=27 v=100
4758578 Off ch=3 n=27 v=0
4758681 Off ch=3 n=37 v=0
4758681 Off ch=3 n=27 v=0
4759999 On ch=3 n=14 v=100
4760274 On ch=3 n=14 v=100
4760285 Off ch=3 n=14 v=0
4760599 Off ch=3 n=14 v=0
4760614 On ch=3 n=6 v=100
4760825 On ch=3 n=10 v=100
4760839 Off ch=3 n=6 v=0
4761384 Off ch=3 n=10 v=0
4762472 On ch=3 n=48 v=100
4763461 Off ch=3 n=48 v=0
4765316 On ch=3 n=12 v=100
4765982 Off ch=3 n=12 v=0
4767197 On ch=3 n=25 v=100
4767200 On ch=3 n=49 v=100
4767400 Off ch=3 n=25 v=0
4767439 On ch=3 n=26 v=100
4767454 Off ch=3 n=49 v=0
4767534 Off ch=3 n=26 v=0
4767845 On ch=3 n=27 v=100
4767972 Off ch=3 n=27 v=0
4770945 On ch=3 n=2 v=100
4772792 Off ch=3 n=2 v=0
4776404 On ch=3 n=4 v=100
4777672 Off ch=3 n=4 v=0
4777738 On ch=3 n=4 v=100
4778041 Off ch=3 n=4 v=0
4783186 On ch=3 n=5 v=100
4783210 On ch=3 n=3 v=100
4783378 Off ch=3 n=5 v=0
4783378 Off ch=3 n=3 v=0
4783420 On ch=3 n=3 v=100
4783564 Off ch=3 n=3 v=0
4783935 On ch=3 n=8 v=100
4785164 On ch=3 n=29 v=100
4785267 Off ch=3 n=8 v=0
4785267 Off ch=3 n=29 v=0
4785342 On ch=3 n=29 v=100
4785439 Off ch=3 n=29 v=0
4787522 On ch=3 n=8 v=100
4787524 On ch=3 n=38 v=100
4787566 On ch=3 n=32 v=100
4787595 Off ch=3 n=8 v=0
4787605 Off ch=3 n=38 v=0
4787750 Off ch=3 n=32 v=0
4788536 On ch=3 n=37 v=100
4788579 On ch=3 n=9 v=100
4788747 Off ch=3 n=37 v=0
4789080 Off ch=3 n=9 v=0
4789100 On ch=3 n=26 v=100
4789175 Off ch=3 n=26 v=0
4790901 On ch=3 n=34 v=100
4791263 Off ch=3 n=34 v=0
4791280 On ch=3 n=6 v=100
4791501 Off ch=3 n=6 v=0
4791514 On ch=3 n=24 v=100
4791630 Off ch=3 n=24 v=0
4791690 On ch=3 n=42 v=100
4791709 On ch=3 n=62 v=100
4791803 Off ch=3 n=42 v=0
4791907 Off ch=3 n=62 v=0
4793269 On ch=3 n=44 v=100
4793367 Off ch=3 n=44 v=0
4793394 On ch=3 n=1 v=100
4800015 Off ch=3 n=1 v=0
4800756 On ch=3 n=9 v=100
4800915 Off ch=3 n=9 v=0
4803121 On ch=3 n=54 v=100
4803121 On ch=3 n=54 v=100
4803260 On ch=3 n=28 v=100
4803272 On ch=3 n=41 v=100
4803272 On ch=3 n=41 v=100
4803357 Off ch=3 n=54 v=0
4803357 Off ch=3 n=54 v=0
4803373 Off ch=3 n=28 v=0
4803398 Off ch=3 n=41 v=0
4803398 Off ch=3 n=41 v=0
4803665 On ch=3 n=13 v=100
4803665 On ch=3 n=20 v=100
4803705 Off ch=3 n=13 v=0
4803752 On ch=3 n=23 v=100
4803826 Off ch=3 n=20 v=0
4803839 Off ch=3 n=23 v=0
4803861 On ch=3 n=12 v=100
4804080 Off ch=3 n=12 v=0
4804831 On ch=3 n=8 v=100
4805925 Off ch=3 n=8 v=0
4806080 On ch=3 n=25 v=100
4806339 On ch=3 n=2 v=100
4806391 Off ch=3 n=25 v=0
4806415 Off ch=3 n=2 v=0
4806550 On ch=3 n=6 v=100
4807185 Off ch=3 n=6 v=0
4807334 On ch=3 n=20 v=100
4807518 Off ch=3 n=20 v=0
4807571 On ch=3 n=17 v=100
4807619 Off ch=3 n=17 v=0
4808499 On ch=3 n=32 v=100
4808608 On ch=3 n=38 v=100
4808788 Off ch=3 n=32 v=0
4808795 On ch=3 n=32 v=100
4808819 Off ch=3 n=38 v=0
4808845 Off ch=3 n=32 v=0
4808976 On ch=3 n=21 v=100
4809047 Off ch=3 n=21 v=0
4809816 On ch=3 n=40 v=100
4809943 On ch=3 n=17 v=100
4810123 Off ch=3 n=17 v=0
4810207 Off ch=3 n=40 v=0
4810713 On ch=3 n=7 v=100
4810927 On ch=3 n=54 v=100
4810995 Off ch=3 n=7 v=0
4811034 On ch=3 n=20 v=100
4811112 Off ch=3 n=54 v=0
4811112 Off ch=3 n=20 v=0
4811271 On ch=3 n=14 v=100
4811364 Off ch=3 n=14 v=0
4811771 On ch=3 n=19 v=100
4812165 On ch=3 n=14 v=100
4812170 Off ch=3 n=19 v=0
4812290 Off ch=3 n=14 v=0
4812703 On ch=3 n=23 v=100
4812704 On ch=3 n=44 v=100
4812848 Off ch=3 n=23 v=0
4812852 On ch=3 n=14 v=100
4812919 Off ch=3 n=44 v=0
4813066 Off ch=3 n=14 v=0
4813762 On ch=3 n=24 v=100
4814088 Off ch=3 n=24 v=0
4824174 On ch=3 n=11 v=100
4824753 Off ch=3 n=11 v=0
4824765 On ch=3 n=25 v=100
4825034 Off ch=3 n=25 v=0
4826200 On ch=3 n=32 v=100
4826239 On ch=3 n=13 v=100
4826540 Off ch=3 n=32 v=0
4826540 Off ch=3 n=13 v=0
4826822 On ch=3 n=15 v=100
4827852 Off ch=3 n=15 v=0
4832659 On ch=3 n=15 v=100
4832733 Off ch=3 n=15 v=0
4832753 On ch=3 n=22 v=100
4832947 Off ch=3 n=22 v=0
4842541 On ch=3 n=28 v=100
4842725 Off ch=3 n=28 v=0
4845585 On ch=3 n=13 v=100
4845611 On ch=3 n=12 v=100
4845673 On ch=3 n=35 v=100
4845695 Off ch=3 n=13 v=0
4845709 Off ch=3 n=12 v=0
4845759 Off ch=3 n=35 v=0
4846948 On ch=3 n=24 v=100
4847000 On ch=3 n=8 v=100
4847296 Off ch=3 n=8 v=0
4847298 Off ch=3 n=24 v=0
4847693 On ch=3 n=3 v=100
4848584 Off ch=3 n=3 v=0
4849830 On ch=3 n=5 v=100
4850157 Off ch=3 n=5 v=0
4850158 On ch=3 n=2 v=100
4851320 On ch=3 n=4 v=100
4851323 Off ch=3 n=2 v=0
4852987 On ch=3 n=2 v=100
4852987 Off ch=3 n=4 v=0
4854276 On ch=3 n=2 v=100
4854289 Off ch=3 n=2 v=0
4854859 Off ch=3 n=2 v=0
4856206 On ch=3 n=13 v=100
4856385 Off ch=3 n=13 v=0
4857063 On ch=3 n=33 v=100
4857158 On ch=3 n=30 v=100
4857222 On ch=3 n=19 v=100
4857306 Off ch=3 n=33 v=0
4857461 On ch=3 n=19 v=100
4857468 Off ch=3 n=30 v=0
4857470 Off ch=3 n=19 v=0
4857559 Off ch=3 n=19 v=0
4857700 On ch=3 n=18 v=100
4857796 Off ch=3 n=18 v=0
4857840 On ch=3 n=23 v=100
4857840 On ch=3 n=11 v=100
4858238 Off ch=3 n=11 v=0
4858307 On ch=3 n=23 v=100
4858453 Off ch=3 n=23 v=0
4858459 On ch=3 n=18 v=100
4858471 Off ch=3 n=23 v=0
4858543 Off ch=3 n=18 v=0
4859182 On ch=3 n=24 v=100
4859225 Off ch=3 n=24 v=0
4861280 On ch=3 n=4 v=100
4862854 Off ch=3 n=4 v=0
4863631 On ch=3 n=0 v=100
4864151 Off ch=3 n=0 v=0
4865036 On ch=3 n=5 v=100
4866249 Off ch=3 n=5 v=0
4876489 On ch=3 n=5 v=100
4876839 Off ch=3 n=5 v=0
4876841 On ch=3 n=2 v=100
4879218 On ch=3 n=39 v=100
4879238 On ch=3 n=26 v=100
4879315 Off ch=3 n=2 v=0
4879330 Off ch=3 n=39 v=0
4879377 Off ch=3 n=26 v=0
4885064 On ch=3 n=4 v=100
4885277 On ch=3 n=40 v=100
4885324 Off ch=3 n=4 v=0
4885331 Off ch=3 n=40 v=0
4885445 On ch=3 n=47 v=100
4885588 Off ch=3 n=47 v=0
4887781 On ch=3 n=9 v=100
4888028 Off ch=3 n=9 v=0
4888159 On ch=3 n=26 v=100
4888418 Off ch=3 n=26 v=0
4889966 On ch=3 n=23 v=100
4890019 Off ch=3 n=23 v=0
4900513 On ch=3 n=25 v=100
4900675 Off ch=3 n=25 v=0
4901197 On ch=3 n=22 v=100
4901330 Off ch=3 n=22 v=0
4903852 On ch=3 n=7 v=100
4904475 On ch=3 n=11 v=100
4904479 Off ch=3 n=7 v=0
4904625 Off ch=3 n=11 v=0
4904651 On ch=3 n=11 v=100
4905013 Off ch=3 n=11 v=0
4910545 On ch=3 n=5 v=100
4910806 Off ch=3 n=5 v=0
4910914 On ch=3 n=46 v=100
4911057 Off ch=3 n=46 v=0
4913058 On ch=3 n=14 v=100
4914121 Off ch=3 n=14 v=0
4914675 On ch=3 n=9 v=100
4914941 Off ch=3 n=9 v=0
4914951 On ch=3 n=19 v=100
4915117 On ch=3 n=35 v=100
4915117 On ch=3 n=35 v=100
4915164 On ch=3 n=13 v=100
4915164 On ch=3 n=13 v=100
4915220 On ch=3 n=23 v=100
4915224 On ch=3 n=14 v=100
4915226 Off ch=3 n=19 v=0
4915364 Off ch=3 n=13 v=0
4915364 Off ch=3 n=13 v=0
4915386 Off ch=3 n=14 v=0
4915438 On ch=3 n=36 v=100
4915464 Off ch=3 n=23 v=0
4915479 Off ch=3 n=35 v=0
4915479 Off ch=3 n=35 v=0
4915517 Off ch=3 n=36 v=0
4915521 On ch=3 n=26 v=100
4915631 Off ch=3 n=26 v=0
4915706 On ch=3 n=11 v=100
4915881 Off ch=3 n=11 v=0
4917125 On ch=3 n=7 v=100
4917241 On ch=3 n=34 v=100
4917279 Off ch=3 n=7 v=0
4917334 Off ch=3 n=34 v=0
4917880 On ch=3 n=16 v=100
4917920 Off ch=3 n=16 v=0
4917921 On ch=3 n=5 v=100
4918253 Off ch=3 n=5 v=0
4919810 On ch=3 n=8 v=100
4920663 On ch=3 n=17 v=100
4920664 On ch=3 n=36 v=100
4920664 On ch=3 n=25 v=100
4920666 On ch=3 n=37 v=100
4920673 Off ch=3 n=8 v=0
4920693 Off ch=3 n=17 v=0
4920700 Off ch=3 n=25 v=0
4920708 Off ch=3 n=36 v=0
4920749 Off ch=3 n=37 v=0
4966694 On ch=3 n=6 v=100
4967002 Off ch=3 n=6 v=0
4967607 On ch=3 n=11 v=100
4968047 Off ch=3 n=11 v=0
4969547 On ch=3 n=54 v=100
4969805 Off ch=3 n=54 v=0
4970461 On ch=3 n=33 v=100
4970644 Off ch=3 n=33 v=0
4970726 On ch=3 n=16 v=100
4970768 On ch=3 n=2 v=100
4971098 Off ch=3 n=16 v=0
4971430 On ch=3 n=2 v=100
4971432 Off ch=3 n=2 v=0
4972219 Off ch=3 n=2 v=0
4972809 On ch=3 n=26 v=100
4972863 Off ch=3 n=26 v=0
4973070 On ch=3 n=27 v=100
4973141 Off ch=3 n=27 v=0
4973410 On ch=3 n=6 v=100
4973655 Off ch=3 n=6 v=0
4973673 On ch=3 n=12 v=100
4973919 On ch=3 n=18 v=100
4974046 Off ch=3 n=12 v=0
4974063 Off ch=3 n=18 v=0
4974068 On ch=3 n=9 v=100
4974227 On ch=3 n=24 v=100
4974231 Off ch=3 n=9 v=0
4974318 Off ch=3 n=24 v=0
4974407 On ch=3 n=9 v=100
4975993 Off ch=3 n=9 v=0
4976170 On ch=3 n=6 v=100
4976538 On ch=3 n=13 v=100
4976546 Off ch=3 n=6 v=0
4976642 Off ch=3 n=13 v=0
4976679 On ch=3 n=27 v=100
4976828 Off ch=3 n=27 v=0
4978066 On ch=3 n=34 v=100
4978102 On ch=3 n=47 v=100
4978210 Off ch=3 n=34 v=0
4978216 On ch=3 n=28 v=100
4978216 On ch=3 n=41 v=100
4978307 Off ch=3 n=47 v=0
4978318 Off ch=3 n=28 v=0
4978359 Off ch=3 n=41 v=0
4978387 On ch=3 n=46 v=100
4978467 On ch=3 n=37 v=100
4978593 Off ch=3 n=37 v=0
4978595 Off ch=3 n=46 v=0
4979053 On ch=3 n=50 v=100
4979202 On ch=3 n=36 v=100
4979325 Off ch=3 n=50 v=0
4979325 Off ch=3 n=36 v=0
4980916 On ch=3 n=50 v=100
4981065 On ch=3 n=36 v=100
4981188 Off ch=3 n=50 v=0
4981188 Off ch=3 n=36 v=0
4982215 On ch=3 n=49 v=100
4982349 On ch=3 n=37 v=100
4982491 Off ch=3 n=49 v=0
4982491 Off ch=3 n=37 v=0
4985763 On ch=3 n=48 v=100
4985898 On ch=3 n=37 v=100
4986025 Off ch=3 n=37 v=0
4986026 Off ch=3 n=48 v=0
4986318 On ch=3 n=2 v=100
4987462 Off ch=3 n=2 v=0
4993240 On ch=3 n=23 v=100
4996817 Off ch=3 n=23 v=0
4996860 On ch=3 n=23 v=100
4997944 Off ch=3 n=23 v=0
4998281 On ch=3 n=44 v=100
4998528 On ch=3 n=46 v=100
4998531 On ch=3 n=54 v=100
4998732 Off ch=3 n=44 v=0
4998762 Off ch=3 n=46 v=0
4998880 Off ch=3 n=54 v=0
5000376 On ch=3 n=26 v=100
5000421 Off ch=3 n=26 v=0
5019097 On ch=3 n=6 v=100
5019491 On ch=3 n=23 v=100
5019561 Off ch=3 n=6 v=0
5019601 Off ch=3 n=23 v=0
5019695 On ch=3 n=34 v=100
5019905 Off ch=3 n=34 v=0
5022145 On ch=3 n=27 v=100
5022186 On ch=3 n=24 v=100
5022193 On ch=3 n=14 v=100
5022251 On ch=3 n=23 v=100
5022466 Off ch=3 n=27 v=0
5022585 Off ch=3 n=14 v=0
5022691 Off ch=3 n=24 v=0
5022741 Off ch=3 n=23 v=0
5023616 On ch=3 n=11 v=100
5024141 Off ch=3 n=11 v=0
5026692 On ch=3 n=24 v=100
5026819 Off ch=3 n=24 v=0
5027609 On ch=3 n=14 v=100
5027653 Off ch=3 n=14 v=0
5027666 On ch=3 n=18 v=100
5027990 On ch=3 n=22 v=100
5027997 Off ch=3 n=18 v=0
5028072 Off ch=3 n=22 v=0
5029043 On ch=3 n=37 v=100
5029110 On ch=3 n=38 v=100
5029216 Off ch=3 n=37 v=0
5029301 Off ch=3 n=38 v=0
5029431 On ch=3 n=18 v=100
5031784 Off ch=3 n=18 v=0
5031934 On ch=3 n=18 v=100
5032488 Off ch=3 n=18 v=0
5032542 On ch=3 n=18 v=100
5034702 On ch=3 n=17 v=100
5034705 Off ch=3 n=18 v=0
5034713 On ch=3 n=11 v=100
5034799 Off ch=3 n=17 v=0
5035393 Off ch=3 n=11 v=0
5035437 On ch=3 n=11 v=100
5037452 Off ch=3 n=11 v=0
5037541 On ch=3 n=11 v=100
5038084 Off ch=3 n=11 v=0
5038155 On ch=3 n=11 v=100
5038573 Off ch=3 n=11 v=0
5038684 On ch=3 n=11 v=100
5039738 Off ch=3 n=11 v=0
5039826 On ch=3 n=30 v=100
5039900 Off ch=3 n=30 v=0
5040040 On ch=3 n=32 v=100
5040087 Off ch=3 n=32 v=0
5041339 On ch=3 n=8 v=100
5041411 On ch=3 n=13 v=100
5041412 Off ch=3 n=8 v=0
5041509 Off ch=3 n=13 v=0
5041519 On ch=3 n=14 v=100
5041987 Off ch=3 n=14 v=0
5045684 On ch=3 n=38 v=100
5045724 Off ch=3 n=38 v=0
5045756 On ch=3 n=38 v=100
5046130 On ch=3 n=34 v=100
5046399 Off ch=3 n=38 v=0
5046605 Off ch=3 n=34 v=0
5046683 On ch=3 n=26 v=100
5046685 On ch=3 n=35 v=100
5046807 On ch=3 n=25 v=100
5047012 Off ch=3 n=26 v=0
5047111 Off ch=3 n=35 v=0
5047111 Off ch=3 n=25 v=0
5047979 On ch=3 n=14 v=100
5048250 On ch=3 n=24 v=100
5048265 Off ch=3 n=14 v=0
5048299 On ch=3 n=15 v=100
5048453 On ch=3 n=7 v=100
5048457 On ch=3 n=21 v=100
5048599 Off ch=3 n=24 v=0
5048644 On ch=3 n=10 v=100
5048657 Off ch=3 n=7 v=0
5048658 Off ch=3 n=15 v=0
5048691 Off ch=3 n=21 v=0
5049060 On ch=3 n=6 v=100
5049060 Off ch=3 n=10 v=0
5049120 Off ch=3 n=6 v=0
5049720 On ch=3 n=29 v=100
5049739 On ch=3 n=22 v=100
5049834 Off ch=3 n=29 v=0
5049837 Off ch=3 n=22 v=0
5049916 On ch=3 n=47 v=100
5049988 Off ch=3 n=47 v=0
5051460 On ch=3 n=28 v=100
5051607 Off ch=3 n=28 v=0
5053990 On ch=3 n=23 v=100
5054072 Off ch=3 n=23 v=0
5054112 On ch=3 n=25 v=100
5054201 Off ch=3 n=25 v=0
5054219 On ch=3 n=14 v=100
5054615 Off ch=3 n=14 v=0
5054701 On ch=3 n=17 v=100
5054895 Off ch=3 n=17 v=0
5056130 On ch=3 n=30 v=100
5056201 Off ch=3 n=30 v=0
5056391 On ch=3 n=2 v=100
5056779 Off ch=3 n=2 v=0
5062449 On ch=3 n=8 v=100
5062552 Off ch=3 n=8 v=0
5062840 On ch=3 n=51 v=100
5062893 On ch=3 n=12 v=100
5062947 Off ch=3 n=51 v=0
5063010 Off ch=3 n=12 v=0
5065050 On ch=3 n=12 v=100
5065413 Off ch=3 n=12 v=0
5065440 On ch=3 n=12 v=100
5065589 On ch=3 n=6 v=100
5065594 Off ch=3 n=12 v=0
5066097 On ch=3 n=44 v=100
5066220 Off ch=3 n=6 v=0
5066252 Off ch=3 n=44 v=0
5066541 On ch=3 n=7 v=100
5067667 Off ch=3 n=7 v=0
5068805 On ch=3 n=17 v=100
5068943 Off ch=3 n=17 v=0
5068945 On ch=3 n=2 v=100
5069339 On ch=3 n=10 v=100
5069341 On ch=3 n=6 v=100
5069796 Off ch=3 n=2 v=0
5070665 Off ch=3 n=6 v=0
5070860 Off ch=3 n=10 v=0
5070909 On ch=3 n=1 v=100
5071033 On ch=3 n=14 v=100
5071058 Off ch=3 n=1 v=0
5071258 Off ch=3 n=14 v=0
5072954 On ch=3 n=2 v=100
5075097 Off ch=3 n=2 v=0
5076873 On ch=3 n=11 v=100
5077140 On ch=3 n=19 v=100
5077171 Off ch=3 n=11 v=0
5077175 On ch=3 n=7 v=100
5077307 Off ch=3 n=19 v=0
5077693 Off ch=3 n=7 v=0
5077699 On ch=3 n=13 v=100
5078928 Off ch=3 n=13 v=0
5078963 On ch=3 n=21 v=100
5079048 Off ch=3 n=21 v=0
5079322 On ch=3 n=53 v=100
5079333 On ch=3 n=11 v=100
5079404 Off ch=3 n=53 v=0
5079787 On ch=3 n=28 v=100
5079933 Off ch=3 n=11 v=0
5079951 Off ch=3 n=28 v=0
5079958 On ch=3 n=9 v=100
5080209 Off ch=3 n=9 v=0
5081104 On ch=3 n=33 v=100
5081253 On ch=3 n=53 v=100
5081253 On ch=3 n=53 v=100
5081260 On ch=3 n=19 v=100
5081260 On ch=3 n=29 v=100
5081260 On ch=3 n=29 v=100
5081261 Off ch=3 n=33 v=0
5081502 Off ch=3 n=19 v=0
5081551 Off ch=3 n=29 v=0
5081551 Off ch=3 n=29 v=0
5081563 On ch=3 n=25 v=100
5081563 On ch=3 n=25 v=100
5081575 On ch=3 n=15 v=100
5081768 Off ch=3 n=15 v=0
5081780 Off ch=3 n=53 v=0
5081780 Off ch=3 n=25 v=0
5081780 Off ch=3 n=53 v=0
5081780 Off ch=3 n=25 v=0
5082452 On ch=3 n=11 v=100
5082549 On ch=3 n=14 v=100
5082554 Off ch=3 n=11 v=0
5082836 Off ch=3 n=14 v=0
5082866 On ch=3 n=4 v=100
5083096 Off ch=3 n=4 v=0
5087155 On ch=3 n=19 v=100
5087280 On ch=3 n=26 v=100
5087293 Off ch=3 n=19 v=0
5087484 On ch=3 n=33 v=100
5087510 Off ch=3 n=26 v=0
5087664 Off ch=3 n=33 v=0
5087838 On ch=3 n=22 v=100
5088176 On ch=3 n=13 v=100
5088207 Off ch=3 n=22 v=0
5089129 Off ch=3 n=13 v=0
5089135 On ch=3 n=14 v=100
5089315 On ch=3 n=13 v=100
5089323 Off ch=3 n=14 v=0
5089431 Off ch=3 n=13 v=0
5089434 On ch=3 n=14 v=100
5089671 Off ch=3 n=14 v=0
5089686 On ch=3 n=33 v=100
5089860 On ch=3 n=12 v=100
5090132 Off ch=3 n=33 v=0
5090132 Off ch=3 n=12 v=0
5090424 On ch=3 n=34 v=100
5090452 On ch=3 n=5 v=100
5090512 Off ch=3 n=34 v=0
5090521 On ch=3 n=7 v=100
5090524 Off ch=3 n=5 v=0
5091045 On ch=3 n=12 v=100
5091070 Off ch=3 n=7 v=0
5091452 Off ch=3 n=12 v=0
5091667 On ch=3 n=13 v=100
5092086 Off ch=3 n=13 v=0
5092087 On ch=3 n=10 v=100
5092289 On ch=3 n=4 v=100
5092298 Off ch=3 n=10 v=0
5092751 Off ch=3 n=4 v=0
5092860 On ch=3 n=25 v=100
5092915 On ch=3 n=39 v=100
5092972 Off ch=3 n=25 v=0
5092997 Off ch=3 n=39 v=0
5093124 On ch=3 n=20 v=100
5093153 On ch=3 n=10 v=100
5093202 Off ch=3 n=20 v=0
5093408 Off ch=3 n=10 v=0
5093416 On ch=3 n=20 v=100
5093499 Off ch=3 n=20 v=0
5094171 On ch=3 n=5 v=100
5094173 On ch=3 n=17 v=100
5094452 Off ch=3 n=5 v=0
5094516 Off ch=3 n=17 v=0
5095250 On ch=3 n=37 v=100
5095251 On ch=3 n=23 v=100
5095408 Off ch=3 n=23 v=0
5095455 Off ch=3 n=37 v=0
5095528 On ch=3 n=36 v=100
5095542 On ch=3 n=28 v=100
5095557 On ch=3 n=19 v=100
5095666 Off ch=3 n=28 v=0
5095667 Off ch=3 n=36 v=0
5095689 Off ch=3 n=19 v=0
5096488 On ch=3 n=21 v=100
5096488 On ch=3 n=32 v=100
5096796 On ch=3 n=2 v=100
5096857 Off ch=3 n=21 v=0
5096918 Off ch=3 n=32 v=0
5097456 Off ch=3 n=2 v=0
5097518 On ch=3 n=21 v=100
5097518 On ch=3 n=16 v=100
5097718 Off ch=3 n=16 v=0
5097789 On ch=3 n=6 v=100
5097790 Off ch=3 n=21 v=0
5098078 Off ch=3 n=6 v=0
5098079 On ch=3 n=2 v=100
5099319 On ch=3 n=2 v=100
5099322 Off ch=3 n=2 v=0
5101922 Off ch=3 n=2 v=0
5101924 On ch=3 n=6 v=100
5102270 Off ch=3 n=6 v=0
5102275 On ch=3 n=12 v=100
5102497 Off ch=3 n=12 v=0
5103513 On ch=3 n=24 v=100
5103585 Off ch=3 n=24 v=0
5104646 On ch=3 n=39 v=100
5104698 On ch=3 n=37 v=100
5104698 On ch=3 n=37 v=100
5104716 On ch=3 n=27 v=100
5104753 On ch=3 n=43 v=100
5104930 Off ch=3 n=39 v=0
5104931 Off ch=3 n=27 v=0
5104932 On ch=3 n=24 v=100
5104951 Off ch=3 n=37 v=0
5104951 Off ch=3 n=37 v=0
5104994 Off ch=3 n=43 v=0
5105102 Off ch=3 n=24 v=0
5105108 On ch=3 n=33 v=100
5105154 On ch=3 n=30 v=100
5105282 On ch=3 n=12 v=100
5105282 Off ch=3 n=33 v=0
5105395 Off ch=3 n=30 v=0
5105395 Off ch=3 n=12 v=0
5105396 On ch=3 n=7 v=100
5106549 Off ch=3 n=7 v=0
5106550 On ch=3 n=46 v=100
5106680 Off ch=3 n=46 v=0
5106971 On ch=3 n=8 v=100
5107412 On ch=3 n=40 v=100
5107521 On ch=3 n=13 v=100
5107523 Off ch=3 n=8 v=0
5107577 Off ch=3 n=40 v=0
5107745 On ch=3 n=44 v=100
5107845 Off ch=3 n=13 v=0
5107858 On ch=3 n=15 v=100
5107858 Off ch=3 n=44 v=0
5107974 On ch=3 n=19 v=100
5107974 On ch=3 n=19 v=100
5108018 Off ch=3 n=15 v=0
5108025 On ch=3 n=12 v=100
5108411 Off ch=3 n=12 v=0
5108450 Off ch=3 n=19 v=0
5108450 Off ch=3 n=19 v=0
5108598 On ch=3 n=12 v=100
5109110 Off ch=3 n=12 v=0
5109495 On ch=3 n=22 v=100
5109505 On ch=3 n=7 v=100
5109540 Off ch=3 n=22 v=0
5109752 Off ch=3 n=7 v=0
5110365 On ch=3 n=17 v=100
5110378 On ch=3 n=18 v=100
5110421 Off ch=3 n=17 v=0
5110433 Off ch=3 n=18 v=0
5110481 On ch=3 n=31 v=100
5110481 On ch=3 n=20 v=100
5110481 On ch=3 n=31 v=100
5110481 On ch=3 n=20 v=100
5110492 On ch=3 n=19 v=100
5110542 Off ch=3 n=20 v=0
5110542 Off ch=3 n=20 v=0
5110543 Off ch=3 n=19 v=0
5110604 Off ch=3 n=31 v=0
5110604 Off ch=3 n=31 v=0
5110936 On ch=3 n=14 v=100
5111009 On ch=3 n=10 v=100
5111191 Off ch=3 n=14 v=0
5111479 Off ch=3 n=10 v=0
5112677 On ch=3 n=16 v=100
5112723 Off ch=3 n=16 v=0
5113063 On ch=3 n=30 v=100
5113165 Off ch=3 n=30 v=0
5113616 On ch=3 n=38 v=100
5113741 Off ch=3 n=38 v=0
5114629 On ch=3 n=3 v=100
5114860 Off ch=3 n=3 v=0
5115085 On ch=3 n=6 v=100
5115132 Off ch=3 n=6 v=0
5115186 On ch=3 n=11 v=100
5115516 Off ch=3 n=11 v=0
5115520 On ch=3 n=8 v=100
5116094 Off ch=3 n=8 v=0
5116416 On ch=3 n=30 v=100
5116561 Off ch=3 n=30 v=0
5117536 On ch=3 n=3 v=100
5117594 Off ch=3 n=3 v=0
5118459 On ch=3 n=19 v=100
5118503 Off ch=3 n=19 v=0
5124264 On ch=3 n=27 v=100
5124369 Off ch=3 n=27 v=0
5125733 On ch=3 n=3 v=100
5126150 Off ch=3 n=3 v=0
5126154 On ch=3 n=2 v=100
5126760 On ch=3 n=38 v=100
5126819 Off ch=3 n=2 v=0
5126827 Off ch=3 n=38 v=0
5127157 On ch=3 n=10 v=100
5128022 Off ch=3 n=10 v=0
5128615 On ch=3 n=9 v=100
5129081 Off ch=3 n=9 v=0
5131041 On ch=3 n=48 v=100
5131401 Off ch=3 n=48 v=0
5131812 On ch=3 n=5 v=100
5132704 On ch=3 n=17 v=100
5132779 On ch=3 n=8 v=100
5132786 Off ch=3 n=5 v=0
5133063 On ch=3 n=7 v=100
5133064 Off ch=3 n=17 v=0
5133064 Off ch=3 n=8 v=0
5133246 On ch=3 n=5 v=100
5133249 Off ch=3 n=7 v=0
5133465 On ch=3 n=17 v=100
5133466 Off ch=3 n=5 v=0
5134787 On ch=3 n=17 v=100
5134788 Off ch=3 n=17 v=0
5136818 Off ch=3 n=17 v=0
5136954 On ch=3 n=17 v=100
5141619 Off ch=3 n=17 v=0
5141680 On ch=3 n=17 v=100
5143517 On ch=3 n=6 v=100
5143579 Off ch=3 n=17 v=0
5144522 Off ch=3 n=6 v=0
5147923 On ch=3 n=21 v=100
5148068 On ch=3 n=16 v=100
5148104 Off ch=3 n=21 v=0
5148105 On ch=3 n=10 v=100
5148296 Off ch=3 n=16 v=0
5148297 Off ch=3 n=10 v=0
5149562 On ch=3 n=20 v=100
5149800 Off ch=3 n=20 v=0
5149802 On ch=3 n=3 v=100
5150149 Off ch=3 n=3 v=0
5150156 On ch=3 n=5 v=100
5150387 Off ch=3 n=5 v=0
5150389 On ch=3 n=8 v=100
5151920 On ch=3 n=31 v=100
5152004 Off ch=3 n=8 v=0
5152004 Off ch=3 n=31 v=0
5152059 On ch=3 n=31 v=100
5152130 Off ch=3 n=31 v=0
5152131 On ch=3 n=8 v=100
5152131 On ch=3 n=39 v=100
5152358 Off ch=3 n=8 v=0
5152412 On ch=3 n=10 v=100
5152565 Off ch=3 n=39 v=0
5152565 Off ch=3 n=10 v=0
5152572 On ch=3 n=9 v=100
5153165 Off ch=3 n=9 v=0
5160263 On ch=3 n=11 v=100
5160554 Off ch=3 n=11 v=0
5160558 On ch=3 n=12 v=100
5160687 Off ch=3 n=12 v=0
5160695 On ch=3 n=43 v=100
5160830 Off ch=3 n=43 v=0
5162006 On ch=3 n=36 v=100
5162024 On ch=3 n=27 v=100
5162047 On ch=3 n=47 v=100
5162091 Off ch=3 n=36 v=0
5162142 Off ch=3 n=27 v=0
5162162 On ch=3 n=22 v=100
5162189 Off ch=3 n=47 v=0
5162190 On ch=3 n=11 v=100
5162196 On ch=3 n=23 v=100
5162362 On ch=3 n=10 v=100
5162364 Off ch=3 n=11 v=0
5162368 Off ch=3 n=22 v=0
5162452 Off ch=3 n=23 v=0
5162556 On ch=3 n=10 v=100
5162643 Off ch=3 n=10 v=0
5162997 Off ch=3 n=10 v=0
5163650 On ch=3 n=19 v=100
5163740 Off ch=3 n=19 v=0
5163904 On ch=3 n=7 v=100
5164283 On ch=3 n=7 v=100
5164283 Off ch=3 n=7 v=0
5164398 Off ch=3 n=7 v=0
5166495 On ch=3 n=9 v=100
5166556 On ch=3 n=24 v=100
5166568 Off ch=3 n=9 v=0
5166574 On ch=3 n=10 v=100
5166710 Off ch=3 n=24 v=0
5167214 Off ch=3 n=10 v=0
5167270 On ch=3 n=22 v=100
5167360 Off ch=3 n=22 v=0
5167391 On ch=3 n=20 v=100
5167849 On ch=3 n=22 v=100
5167916 On ch=3 n=15 v=100
5168157 Off ch=3 n=20 v=0
5168191 Off ch=3 n=15 v=0
5168194 Off ch=3 n=22 v=0
5168317 On ch=3 n=19 v=100
5168394 Off ch=3 n=19 v=0
5169618 On ch=3 n=14 v=100
5169693 Off ch=3 n=14 v=0
5170132 On ch=3 n=43 v=100
5170132 On ch=3 n=43 v=100
5170669 Off ch=3 n=43 v=0
5170669 Off ch=3 n=43 v=0
5170732 On ch=3 n=4 v=100
5170799 Off ch=3 n=4 v=0
5170801 On ch=3 n=5 v=100
5171308 On ch=3 n=16 v=100
5171475 Off ch=3 n=5 v=0
5171504 Off ch=3 n=16 v=0
5172698 On ch=3 n=40 v=100
5172731 On ch=3 n=4 v=100
5172960 Off ch=3 n=40 v=0
5174299 Off ch=3 n=4 v=0
5175361 On ch=3 n=5 v=100
5175480 Off ch=3 n=5 v=0
5175482 On ch=3 n=12 v=100
5175881 On ch=3 n=26 v=100
5175899 Off ch=3 n=12 v=0
5175942 Off ch=3 n=26 v=0
5175977 On ch=3 n=26 v=100
5177680 Off ch=3 n=26 v=0
5177965 On ch=3 n=51 v=100
5178057 Off ch=3 n=51 v=0
5178128 On ch=3 n=62 v=100
5178143 On ch=3 n=48 v=100
5178232 Off ch=3 n=48 v=0
5178245 Off ch=3 n=62 v=0
5178592 On ch=3 n=43 v=100
5178953 Off ch=3 n=43 v=0
5180704 On ch=3 n=48 v=100
5180797 Off ch=3 n=48 v=0
5180868 On ch=3 n=67 v=100
5180972 Off ch=3 n=67 v=0
5182215 On ch=3 n=67 v=100
5182319 Off ch=3 n=67 v=0
5182679 On ch=3 n=47 v=100
5183039 Off ch=3 n=47 v=0
5183615 On ch=3 n=27 v=100
5188664 Off ch=3 n=27 v=0
5188766 On ch=3 n=5 v=100
5188775 Off ch=3 n=5 v=0
5188804 On ch=3 n=5 v=100
5189044 Off ch=3 n=5 v=0
5189155 On ch=3 n=64 v=100
5189279 Off ch=3 n=64 v=0
5189314 On ch=3 n=63 v=100
5189439 Off ch=3 n=63 v=0
5189585 On ch=3 n=51 v=100
5189585 On ch=3 n=51 v=100
5189650 On ch=3 n=48 v=100
5189743 Off ch=3 n=48 v=0
5189756 Off ch=3 n=51 v=0
5189756 Off ch=3 n=51 v=0
5189791 On ch=3 n=64 v=100
5189915 Off ch=3 n=64 v=0
5189950 On ch=3 n=65 v=100
5189968 On ch=3 n=55 v=100
5190068 Off ch=3 n=55 v=0
5190075 Off ch=3 n=65 v=0
5190105 On ch=3 n=54 v=100
5190228 Off ch=3 n=54 v=0
5190422 On ch=3 n=60 v=100
5190542 Off ch=3 n=60 v=0
5190581 On ch=3 n=57 v=100
5190701 Off ch=3 n=57 v=0
5191465 On ch=3 n=63 v=100
5191465 On ch=3 n=63 v=100
5191590 Off ch=3 n=63 v=0
5191590 Off ch=3 n=63 v=0
5191620 On ch=3 n=56 v=100
5191746 Off ch=3 n=56 v=0
5192415 On ch=3 n=55 v=100
5192415 On ch=3 n=55 v=100
5192535 On ch=3 n=56 v=100
5192542 Off ch=3 n=55 v=0
5192542 Off ch=3 n=55 v=0
5192688 Off ch=3 n=56 v=0
5192767 On ch=3 n=44 v=100
5192851 Off ch=3 n=44 v=0
5192893 On ch=3 n=70 v=100
5193019 Off ch=3 n=70 v=0
5193328 On ch=3 n=54 v=100
5193480 Off ch=3 n=54 v=0
5193530 On ch=3 n=64 v=100
5193654 Off ch=3 n=64 v=0
5193844 On ch=3 n=54 v=100
5193879 On ch=3 n=44 v=100
5193963 Off ch=3 n=44 v=0
5193971 Off ch=3 n=54 v=0
5194004 On ch=3 n=68 v=100
5194130 Off ch=3 n=68 v=0
5194441 On ch=3 n=60 v=100
5194596 Off ch=3 n=60 v=0
5194797 On ch=3 n=52 v=100
5194797 On ch=3 n=52 v=100
5194925 Off ch=3 n=52 v=0
5194925 Off ch=3 n=52 v=0
5195509 On ch=3 n=61 v=100
5195509 On ch=3 n=61 v=100
5195634 Off ch=3 n=61 v=0
5195634 Off ch=3 n=61 v=0
5195824 On ch=3 n=60 v=100
5195945 Off ch=3 n=60 v=0
5196144 On ch=3 n=70 v=100
5196144 On ch=3 n=70 v=100
5196271 Off ch=3 n=70 v=0
5196271 Off ch=3 n=70 v=0
5196936 On ch=3 n=55 v=100
5196936 On ch=3 n=55 v=100
5197063 Off ch=3 n=55 v=0
5197063 Off ch=3 n=55 v=0
5197375 On ch=3 n=63 v=100
5197375 On ch=3 n=63 v=100
5197551 Off ch=3 n=63 v=0
5197551 Off ch=3 n=63 v=0
5197572 On ch=3 n=36 v=100
5197647 Off ch=3 n=36 v=0
5197731 On ch=3 n=56 v=100
5197731 On ch=3 n=56 v=100
5197869 Off ch=3 n=56 v=0
5197869 Off ch=3 n=56 v=0
5198168 On ch=3 n=59 v=100
5198168 On ch=3 n=59 v=100
5198336 Off ch=3 n=59 v=0
5198336 Off ch=3 n=59 v=0
5198526 On ch=3 n=56 v=100
5198526 On ch=3 n=56 v=100
5198654 Off ch=3 n=56 v=0
5198654 Off ch=3 n=56 v=0
5198686 On ch=3 n=63 v=100
5198686 On ch=3 n=63 v=100
5198823 Off ch=3 n=63 v=0
5198823 Off ch=3 n=63 v=0
5201051 On ch=3 n=61 v=100
5201173 Off ch=3 n=61 v=0
5201830 On ch=3 n=66 v=100
5201952 Off ch=3 n=66 v=0
5202204 On ch=3 n=3 v=100
5202464 Off ch=3 n=3 v=0
5207431 On ch=3 n=7 v=100
5208202 Off ch=3 n=7 v=0
5208204 On ch=3 n=10 v=100
5208451 Off ch=3 n=10 v=0
5214553 On ch=3 n=29 v=100
5214589 On ch=3 n=6 v=100
5214697 Off ch=3 n=29 v=0
5215265 Off ch=3 n=6 v=0
5215970 On ch=3 n=4 v=100
5217005 Off ch=3 n=4 v=0
5217007 On ch=3 n=26 v=100
5217328 On ch=3 n=19 v=100
5217328 Off ch=3 n=26 v=0
5218991 Off ch=3 n=19 v=0
5218997 On ch=3 n=23 v=100
5219403 Off ch=3 n=23 v=0
5219405 On ch=3 n=18 v=100
5219896 Off ch=3 n=18 v=0
5220845 On ch=3 n=4 v=100
5221023 Off ch=3 n=4 v=0
5221085 On ch=3 n=13 v=100
5221192 On ch=3 n=8 v=100
5221195 Off ch=3 n=13 v=0
5221270 On ch=3 n=33 v=100
5221302 On ch=3 n=7 v=100
5221302 Off ch=3 n=8 v=0
5221333 Off ch=3 n=33 v=0
5221413 Off ch=3 n=7 v=0
5221640 On ch=3 n=29 v=100
5221768 Off ch=3 n=29 v=0
5221875 On ch=3 n=19 v=100
5221986 Off ch=3 n=19 v=0
5224570 On ch=3 n=23 v=100
5224580 On ch=3 n=18 v=100
5224862 Off ch=3 n=23 v=0
5224882 On ch=3 n=23 v=100
5224898 On ch=3 n=20 v=100
5224898 On ch=3 n=24 v=100
5224913 Off ch=3 n=18 v=0
5224925 Off ch=3 n=23 v=0
5224936 Off ch=3 n=20 v=0
5224947 Off ch=3 n=24 v=0
5226504 On ch=3 n=6 v=100
5227139 Off ch=3 n=6 v=0
5227188 On ch=3 n=5 v=100
5227422 Off ch=3 n=5 v=0
5229573 On ch=3 n=33 v=100
5229608 On ch=3 n=25 v=100
5229870 Off ch=3 n=25 v=0
5229932 Off ch=3 n=33 v=0
5230216 On ch=3 n=25 v=100
5230315 Off ch=3 n=25 v=0
5230319 On ch=3 n=4 v=100
5230474 Off ch=3 n=4 v=0
5230929 On ch=3 n=45 v=100
5230956 On ch=3 n=33 v=100
5231123 Off ch=3 n=45 v=0
5231123 Off ch=3 n=33 v=0
5234902 On ch=3 n=36 v=100
5234951 On ch=3 n=11 v=100
5234964 Off ch=3 n=36 v=0
5234964 Off ch=3 n=11 v=0
5235031 On ch=3 n=36 v=100
5235031 On ch=3 n=11 v=100
5235139 Off ch=3 n=36 v=0
5235221 Off ch=3 n=11 v=0
5236108 On ch=3 n=25 v=100
5236150 Off ch=3 n=25 v=0
5236587 On ch=3 n=40 v=100
5236588 On ch=3 n=5 v=100
5236664 Off ch=3 n=5 v=0
5236698 On ch=3 n=7 v=100
5236737 Off ch=3 n=40 v=0
5236897 Off ch=3 n=7 v=0
5237020 On ch=3 n=16 v=100
5237061 Off ch=3 n=16 v=0
5239379 On ch=3 n=3 v=100
5240291 Off ch=3 n=3 v=0
5258381 On ch=3 n=4 v=100
5258594 On ch=3 n=39 v=100
5258640 Off ch=3 n=4 v=0
5258646 Off ch=3 n=39 v=0
5258758 On ch=3 n=48 v=100
5258901 Off ch=3 n=48 v=0
5261094 On ch=3 n=8 v=100
5261338 Off ch=3 n=8 v=0
5261431 On ch=3 n=31 v=100
5261468 On ch=3 n=25 v=100
5261526 Off ch=3 n=31 v=0
5261725 Off ch=3 n=25 v=0
5263258 On ch=3 n=24 v=100
5263314 Off ch=3 n=24 v=0
5268497 On ch=3 n=47 v=100
5268533 On ch=3 n=20 v=100
5268561 Off ch=3 n=47 v=0
5268865 Off ch=3 n=20 v=0
5269648 On ch=3 n=25 v=100
5269769 Off ch=3 n=25 v=0
5269847 On ch=3 n=42 v=100
5270032 Off ch=3 n=42 v=0
5270045 On ch=3 n=19 v=100
5270175 On ch=3 n=107 v=100
5270351 Off ch=3 n=19 v=0
5270455 Off ch=3 n=107 v=0
5275454 On ch=3 n=4 v=100
5276100 Off ch=3 n=4 v=0
5276111 On ch=3 n=2 v=100
5276518 Off ch=3 n=2 v=0
5276978 On ch=3 n=20 v=100
5277022 Off ch=3 n=20 v=0
5280790 On ch=3 n=60 v=100
5280830 On ch=3 n=16 v=100
5280969 Off ch=3 n=60 v=0
5281037 Off ch=3 n=16 v=0
5281103 On ch=3 n=40 v=100
5281352 On ch=3 n=18 v=100
5281534 Off ch=3 n=18 v=0
5281535 Off ch=3 n=40 v=0
5282091 On ch=3 n=4 v=100
5282370 Off ch=3 n=4 v=0
5282569 On ch=3 n=16 v=100
5282593 On ch=3 n=7 v=100
5282593 On ch=3 n=15 v=100
5282857 Off ch=3 n=7 v=0
5282866 Off ch=3 n=16 v=0
5282901 Off ch=3 n=15 v=0
5283073 On ch=3 n=15 v=100
5283083 On ch=3 n=25 v=100
5283395 On ch=3 n=38 v=100
5283450 Off ch=3 n=15 v=0
5283546 Off ch=3 n=25 v=0
5283570 Off ch=3 n=38 v=0
5283598 On ch=3 n=17 v=100
5283630 On ch=3 n=24 v=100
5283642 Off ch=3 n=17 v=0
5283648 On ch=3 n=15 v=100
5283799 Off ch=3 n=24 v=0
5284219 Off ch=3 n=15 v=0
5284265 On ch=3 n=25 v=100
5284356 Off ch=3 n=25 v=0
5284499 On ch=3 n=27 v=100
5284511 On ch=3 n=61 v=100
5284546 On ch=3 n=13 v=100
5284555 Off ch=3 n=27 v=0
5284797 Off ch=3 n=61 v=0
5284912 Off ch=3 n=13 v=0
5285258 On ch=3 n=41 v=100
5285258 On ch=3 n=41 v=100
5285339 On ch=3 n=13 v=100
5285341 On ch=3 n=28 v=100
5285746 Off ch=3 n=13 v=0
5285855 On ch=3 n=9 v=100
5285868 Off ch=3 n=28 v=0
5286120 Off ch=3 n=41 v=0
5286120 Off ch=3 n=41 v=0
5286250 Off ch=3 n=9 v=0
5286254 On ch=3 n=15 v=100
5286403 On ch=3 n=12 v=100
5286424 On ch=3 n=18 v=100
5286434 On ch=3 n=8 v=100
5286461 Off ch=3 n=15 v=0
5286501 On ch=3 n=7 v=100
5286503 Off ch=3 n=12 v=0
5286503 Off ch=3 n=18 v=0
5286515 Off ch=3 n=8 v=0
5287033 Off ch=3 n=7 v=0
5287073 On ch=3 n=7 v=100
5287704 Off ch=3 n=7 v=0
5287721 On ch=3 n=24 v=100
5287757 On ch=3 n=6 v=100
5288003 Off ch=3 n=24 v=0
5289118 Off ch=3 n=6 v=0
5289129 On ch=3 n=44 v=100
5289130 On ch=3 n=12 v=100
5289179 Off ch=3 n=12 v=0
5289212 Off ch=3 n=44 v=0
5289293 On ch=3 n=5 v=100
5289450 Off ch=3 n=5 v=0
5289516 On ch=3 n=4 v=100
5289677 Off ch=3 n=4 v=0
5289678 On ch=3 n=2 v=100
5290342 Off ch=3 n=2 v=0
5290343 On ch=3 n=15 v=100
5290833 On ch=3 n=17 v=100
5290833 On ch=3 n=17 v=100
5290859 Off ch=3 n=15 v=0
5290884 On ch=3 n=11 v=100
5291283 Off ch=3 n=11 v=0
5291294 Off ch=3 n=17 v=0
5291294 Off ch=3 n=17 v=0
5291387 On ch=3 n=13 v=100
5291543 On ch=3 n=4 v=100
5291555 Off ch=3 n=13 v=0
5291821 Off ch=3 n=4 v=0
5291832 On ch=3 n=5 v=100
5292926 On ch=3 n=10 v=100
5292926 Off ch=3 n=5 v=0
5293386 Off ch=3 n=10 v=0
5293982 On ch=3 n=16 v=100
5294328 Off ch=3 n=16 v=0
5294338 On ch=3 n=25 v=100
5294348 On ch=3 n=40 v=100
5294477 Off ch=3 n=25 v=0
5294636 Off ch=3 n=40 v=0
5297141 On ch=3 n=3 v=100
5297205 Off ch=3 n=3 v=0
5297251 On ch=3 n=2 v=100
5299227 On ch=3 n=32 v=100
5299295 On ch=3 n=3 v=100
5299302 Off ch=3 n=2 v=0
5299415 Off ch=3 n=32 v=0
5300629 Off ch=3 n=3 v=0
5301891 On ch=3 n=18 v=100
5302527 On ch=3 n=3 v=100
5302636 Off ch=3 n=18 v=0
5303039 Off ch=3 n=3 v=0
5309053 On ch=3 n=25 v=100
5309053 On ch=3 n=25 v=100
5309109 On ch=3 n=8 v=100
5309412 Off ch=3 n=8 v=0
5309425 Off ch=3 n=25 v=0
5309425 Off ch=3 n=25 v=0
5310700 On ch=3 n=11 v=100
5311462 Off ch=3 n=11 v=0
5311464 On ch=3 n=6 v=100
5311699 On ch=3 n=8 v=100
5311700 Off ch=3 n=6 v=0
5312157 Off ch=3 n=8 v=0
5312325 On ch=3 n=66 v=100
5312326 On ch=3 n=43 v=100
5312454 Off ch=3 n=43 v=0
5312477 Off ch=3 n=66 v=0
5312506 On ch=3 n=16 v=100
5312910 Off ch=3 n=16 v=0
5313562 On ch=3 n=44 v=100
5313713 Off ch=3 n=44 v=0
5314272 On ch=3 n=7 v=100
5314655 Off ch=3 n=7 v=0
5317166 On ch=3 n=16 v=100
5317172 On ch=3 n=22 v=100
5317342 Off ch=3 n=16 v=0
5317363 On ch=3 n=35 v=100
5317373 Off ch=3 n=22 v=0
5317465 Off ch=3 n=35 v=0
5324407 On ch=3 n=24 v=100
5325527 On ch=3 n=32 v=100
5325544 Off ch=3 n=24 v=0
5325564 On ch=3 n=24 v=100
5325609 On ch=3 n=23 v=100
5325633 Off ch=3 n=32 v=0
5325654 On ch=3 n=15 v=100
5325679 Off ch=3 n=24 v=0
5325724 Off ch=3 n=23 v=0
5325916 Off ch=3 n=15 v=0
5326197 On ch=3 n=56 v=100
5326628 Off ch=3 n=56 v=0
5326639 On ch=3 n=26 v=100
5327106 On ch=3 n=42 v=100
5327243 Off ch=3 n=26 v=0
5327275 Off ch=3 n=42 v=0
5327314 On ch=3 n=34 v=100
5327374 Off ch=3 n=34 v=0
5327429 On ch=3 n=34 v=100
5327439 On ch=3 n=29 v=100
5327498 Off ch=3 n=34 v=0
5327499 Off ch=3 n=29 v=0
5327568 On ch=3 n=29 v=100
5327633 Off ch=3 n=29 v=0
5329267 On ch=3 n=19 v=100
5329507 On ch=3 n=19 v=100
5329532 Off ch=3 n=19 v=0
5329660 Off ch=3 n=19 v=0
5329920 On ch=3 n=24 v=100
5330203 Off ch=3 n=24 v=0
5333144 On ch=3 n=27 v=100
5333212 Off ch=3 n=27 v=0
5334244 On ch=3 n=43 v=100
5334244 On ch=3 n=43 v=100
5334258 On ch=3 n=24 v=100
5334363 On ch=3 n=21 v=100
5334462 Off ch=3 n=24 v=0
5334462 Off ch=3 n=21 v=0
5334505 Off ch=3 n=43 v=0
5334505 Off ch=3 n=43 v=0
5334567 On ch=3 n=24 v=100
5334708 Off ch=3 n=24 v=0
5334903 On ch=3 n=31 v=100
5335124 Off ch=3 n=31 v=0
5335215 On ch=3 n=7 v=100
5335458 Off ch=3 n=7 v=0
5335470 On ch=3 n=12 v=100
5335577 On ch=3 n=14 v=100
5335629 Off ch=3 n=12 v=0
5335631 On ch=3 n=10 v=100
5335897 Off ch=3 n=14 v=0
5335984 On ch=3 n=29 v=100
5335986 Off ch=3 n=10 v=0
5336086 On ch=3 n=60 v=100
5336086 On ch=3 n=60 v=100
5336198 Off ch=3 n=29 v=0
5336201 On ch=3 n=25 v=100
5336273 On ch=3 n=24 v=100
5336296 Off ch=3 n=25 v=0
5336379 Off ch=3 n=24 v=0
5336519 On ch=3 n=18 v=100
5336532 Off ch=3 n=60 v=0
5336532 Off ch=3 n=60 v=0
5336751 Off ch=3 n=18 v=0
5336843 On ch=3 n=48 v=100
5336996 Off ch=3 n=48 v=0
5339380 On ch=3 n=21 v=100
5339577 On ch=3 n=42 v=100
5339593 Off ch=3 n=21 v=0
5339612 On ch=3 n=40 v=100
5339612 On ch=3 n=40 v=100
5339685 On ch=3 n=35 v=100
5339685 On ch=3 n=35 v=100
5339782 Off ch=3 n=42 v=0
5339783 Off ch=3 n=40 v=0
5339783 Off ch=3 n=40 v=0
5340007 On ch=3 n=15 v=100
5340027 On ch=3 n=30 v=100
5340198 Off ch=3 n=35 v=0
5340198 Off ch=3 n=35 v=0
5340225 Off ch=3 n=15 v=0
5340308 Off ch=3 n=30 v=0
5340801 On ch=3 n=51 v=100
5340922 On ch=3 n=36 v=100
5341012 On ch=3 n=3 v=100
5341012 Off ch=3 n=51 v=0
5341021 Off ch=3 n=36 v=0
5341824 Off ch=3 n=3 v=0
5342085 On ch=3 n=2 v=100
5343460 Off ch=3 n=2 v=0
5343464 On ch=3 n=3 v=100
5344368 On ch=3 n=1 v=100
5344368 Off ch=3 n=3 v=0
5345168 Off ch=3 n=1 v=0
5345172 On ch=3 n=6 v=100
5346913 On ch=3 n=43 v=100
5346988 On ch=3 n=2 v=100
5347011 Off ch=3 n=6 v=0
5347078 Off ch=3 n=43 v=0
5349436 Off ch=3 n=2 v=0
5350660 On ch=3 n=11 v=100
5350895 On ch=3 n=10 v=100
5350897 Off ch=3 n=11 v=0
5351097 On ch=3 n=42 v=100
5351110 On ch=3 n=6 v=100
5351110 Off ch=3 n=10 v=0
5351191 Off ch=3 n=42 v=0
5351466 Off ch=3 n=6 v=0
5353295 On ch=3 n=64 v=100
5353436 On ch=3 n=8 v=100
5353500 Off ch=3 n=64 v=0
5353918 Off ch=3 n=8 v=0
5353943 On ch=3 n=17 v=100
5354238 Off ch=3 n=17 v=0
5354556 On ch=3 n=16 v=100
5355090 On ch=3 n=11 v=100
5355090 Off ch=3 n=16 v=0
5355241 Off ch=3 n=11 v=0
5355271 On ch=3 n=22 v=100
5355594 Off ch=3 n=22 v=0
5356813 On ch=3 n=37 v=100
5356873 On ch=3 n=22 v=100
5356888 On ch=3 n=19 v=100
5356993 Off ch=3 n=37 v=0
5356993 Off ch=3 n=22 v=0
5357010 Off ch=3 n=19 v=0
5357250 On ch=3 n=35 v=100
5357272 On ch=3 n=15 v=100
5357417 Off ch=3 n=15 v=0
5357418 Off ch=3 n=35 v=0
5358155 On ch=3 n=7 v=100
5358221 Off ch=3 n=7 v=0
5358223 On ch=3 n=14 v=100
5358277 Off ch=3 n=14 v=0
5358798 On ch=3 n=16 v=100
5358954 On ch=3 n=12 v=100
5359017 Off ch=3 n=16 v=0
5359417 Off ch=3 n=12 v=0
5359419 On ch=3 n=13 v=100
5359495 On ch=3 n=16 v=100
5359495 On ch=3 n=16 v=100
5359544 Off ch=3 n=13 v=0
5359589 On ch=3 n=8 v=100
5359855 Off ch=3 n=8 v=0
5359858 On ch=3 n=20 v=100
5359868 Off ch=3 n=16 v=0
5359868 Off ch=3 n=16 v=0
5359961 Off ch=3 n=20 v=0
5360070 On ch=3 n=21 v=100
5360217 On ch=3 n=9 v=100
5360587 Off ch=3 n=21 v=0
5360587 Off ch=3 n=9 v=0
5361240 On ch=3 n=35 v=100
5361249 On ch=3 n=8 v=100
5361496 Off ch=3 n=8 v=0
5361519 Off ch=3 n=35 v=0
5362432 On ch=3 n=33 v=100
5362443 On ch=3 n=31 v=100
5362455 On ch=3 n=45 v=100
5362462 On ch=3 n=36 v=100
5362504 Off ch=3 n=33 v=0
5362558 Off ch=3 n=31 v=0
5362637 Off ch=3 n=36 v=0
5362642 On ch=3 n=20 v=100
5362684 Off ch=3 n=45 v=0
5362851 Off ch=3 n=20 v=0
5362890 On ch=3 n=13 v=100
5362931 Off ch=3 n=13 v=0
5363047 On ch=3 n=10 v=100
5363520 Off ch=3 n=10 v=0
5364309 On ch=3 n=24 v=100
5364398 Off ch=3 n=24 v=0
5364431 On ch=3 n=7 v=100
5364747 Off ch=3 n=7 v=0
5365437 On ch=3 n=16 v=100
5365484 Off ch=3 n=16 v=0
5366451 On ch=3 n=13 v=100
5366487 On ch=3 n=13 v=100
5366500 Off ch=3 n=13 v=0
5366611 Off ch=3 n=13 v=0
5367002 On ch=3 n=44 v=100
5367025 On ch=3 n=18 v=100
5367047 On ch=3 n=15 v=100
5367093 Off ch=3 n=44 v=0
5367122 On ch=3 n=22 v=100
5367165 Off ch=3 n=18 v=0
5367165 Off ch=3 n=15 v=0
5367168 On ch=3 n=10 v=100
5367276 Off ch=3 n=22 v=0
5368125 On ch=3 n=19 v=100
5368131 Off ch=3 n=10 v=0
5368132 On ch=3 n=5 v=100
5368310 Off ch=3 n=5 v=0
5368336 Off ch=3 n=19 v=0
5369134 On ch=3 n=15 v=100
5369167 On ch=3 n=25 v=100
5369184 Off ch=3 n=15 v=0
5369192 On ch=3 n=12 v=100
5369334 Off ch=3 n=25 v=0
5369860 Off ch=3 n=12 v=0
5369920 On ch=3 n=33 v=100
5369985 Off ch=3 n=33 v=0
5370130 On ch=3 n=18 v=100
5370223 Off ch=3 n=18 v=0
5370563 On ch=3 n=22 v=100
5370595 On ch=3 n=26 v=100
5370738 Off ch=3 n=22 v=0
5370785 Off ch=3 n=26 v=0
5370925 On ch=3 n=28 v=100
5371053 On ch=3 n=33 v=100
5371077 On ch=3 n=20 v=100
5371079 Off ch=3 n=28 v=0
5371097 On ch=3 n=23 v=100
5371111 On ch=3 n=26 v=100
5371111 On ch=3 n=39 v=100
5371116 On ch=3 n=15 v=100
5371116 On ch=3 n=40 v=100
5371195 Off ch=3 n=15 v=0
5371201 Off ch=3 n=33 v=0
5371202 Off ch=3 n=20 v=0
5371219 Off ch=3 n=23 v=0
5371293 Off ch=3 n=26 v=0
5371315 Off ch=3 n=39 v=0
5371367 Off ch=3 n=40 v=0
5372604 On ch=3 n=16 v=100
5372674 Off ch=3 n=16 v=0
5373440 On ch=3 n=8 v=100
5373704 Off ch=3 n=8 v=0
5376356 On ch=3 n=13 v=100
5377196 Off ch=3 n=13 v=0
5377353 On ch=3 n=5 v=100
5378986 Off ch=3 n=5 v=0
5379120 On ch=3 n=5 v=100
5380785 Off ch=3 n=5 v=0
5382641 On ch=3 n=4 v=100
5383184 Off ch=3 n=4 v=0
5389231 On ch=3 n=25 v=100
5389387 Off ch=3 n=25 v=0
5389954 On ch=3 n=33 v=100
5390286 On ch=3 n=45 v=100
5390348 Off ch=3 n=33 v=0
5390353 On ch=3 n=5 v=100
5390473 Off ch=3 n=45 v=0
5390553 On ch=3 n=37 v=100
5390583 On ch=3 n=32 v=100
5390583 On ch=3 n=32 v=100
5390584 Off ch=3 n=5 v=0
5390874 On ch=3 n=26 v=100
5390893 Off ch=3 n=37 v=0
5390959 On ch=3 n=33 v=100
5390959 On ch=3 n=33 v=100
5391107 Off ch=3 n=32 v=0
5391107 Off ch=3 n=32 v=0
5391140 Off ch=3 n=26 v=0
5391156 On ch=3 n=19 v=100
5391363 Off ch=3 n=33 v=0
5391363 Off ch=3 n=33 v=0
5391387 Off ch=3 n=19 v=0
5391457 On ch=3 n=26 v=100
5391459 On ch=3 n=35 v=100
5391581 On ch=3 n=25 v=100
5391786 Off ch=3 n=26 v=0
5391885 Off ch=3 n=35 v=0
5391885 Off ch=3 n=25 v=0
5392039 On ch=3 n=7 v=100
5393422 Off ch=3 n=7 v=0
5396186 On ch=3 n=50 v=100
5396355 Off ch=3 n=50 v=0
5396401 On ch=3 n=23 v=100
5396427 On ch=3 n=4 v=100
5396497 Off ch=3 n=23 v=0
5396670 On ch=3 n=8 v=100
5396672 Off ch=3 n=4 v=0
5397007 Off ch=3 n=8 v=0
5397544 On ch=3 n=6 v=100
5397738 On ch=3 n=18 v=100
5397777 Off ch=3 n=6 v=0
5397786 Off ch=3 n=18 v=0
5398425 On ch=3 n=33 v=100
5398444 On ch=3 n=23 v=100
5398551 Off ch=3 n=33 v=0
5398584 Off ch=3 n=23 v=0
5399131 On ch=3 n=33 v=100
5399150 On ch=3 n=23 v=100
5399257 Off ch=3 n=33 v=0
5399290 Off ch=3 n=23 v=0
5400500 On ch=3 n=15 v=100
5400742 Off ch=3 n=15 v=0
5401572 On ch=3 n=10 v=100
5402356 Off ch=3 n=10 v=0
5402391 On ch=3 n=10 v=100
5403014 On ch=3 n=30 v=100
5403099 On ch=3 n=20 v=100
5403133 On ch=3 n=17 v=100
5403171 Off ch=3 n=10 v=0
5403272 Off ch=3 n=30 v=0
5403281 On ch=3 n=7 v=100
5403312 Off ch=3 n=20 v=0
5403317 Off ch=3 n=17 v=0
5403408 Off ch=3 n=7 v=0
5403865 On ch=3 n=28 v=100
5404012 Off ch=3 n=28 v=0
5406580 On ch=3 n=23 v=100
5406669 Off ch=3 n=23 v=0
5406686 On ch=3 n=14 v=100
5407038 On ch=3 n=7 v=100
5407042 Off ch=3 n=14 v=0
5407975 Off ch=3 n=7 v=0
5407977 On ch=3 n=1 v=100
5410435 On ch=3 n=28 v=100
5410445 On ch=3 n=5 v=100
5410446 Off ch=3 n=1 v=0
5410513 Off ch=3 n=28 v=0
5412219 On ch=3 n=41 v=100
5412333 Off ch=3 n=5 v=0
5412386 Off ch=3 n=41 v=0
5412462 On ch=3 n=16 v=100
5412673 Off ch=3 n=16 v=0
5413828 On ch=3 n=17 v=100
5413858 Off ch=3 n=17 v=0
5413912 On ch=3 n=30 v=100
5414002 Off ch=3 n=30 v=0
5417110 On ch=3 n=5 v=100
5417257 On ch=3 n=40 v=100
5417291 On ch=3 n=28 v=100
5417296 On ch=3 n=16 v=100
5417302 Off ch=3 n=5 v=0
5417368 Off ch=3 n=16 v=0
5417370 On ch=3 n=23 v=100
5417471 Off ch=3 n=40 v=0
5417641 Off ch=3 n=28 v=0
5417643 On ch=3 n=22 v=100
5417652 Off ch=3 n=23 v=0
5417840 Off ch=3 n=22 v=0
5418745 On ch=3 n=29 v=100
5419098 Off ch=3 n=29 v=0
5419519 On ch=3 n=8 v=100
5419775 Off ch=3 n=8 v=0
5422086 On ch=3 n=4 v=100
5422513 Off ch=3 n=4 v=0
5422578 On ch=3 n=3 v=100
5422731 Off ch=3 n=3 v=0
5422776 On ch=3 n=3 v=100
5424085 Off ch=3 n=3 v=0
5426196 On ch=3 n=10 v=100
5426926 Off ch=3 n=10 v=0
5427614 On ch=3 n=18 v=100
5427836 Off ch=3 n=18 v=0
5428879 On ch=3 n=4 v=100
5429621 On ch=3 n=26 v=100
5429912 On ch=3 n=5 v=100
5429919 Off ch=3 n=4 v=0
5429957 Off ch=3 n=26 v=0
5430124 Off ch=3 n=5 v=0
5433915 On ch=3 n=5 v=100
5435425 Off ch=3 n=5 v=0
5435482 On ch=3 n=5 v=100
5435740 On ch=3 n=11 v=100
5435972 Off ch=3 n=5 v=0
5436291 Off ch=3 n=11 v=0
5436908 On ch=3 n=17 v=100
5437205 Off ch=3 n=17 v=0
5449714 On ch=3 n=3 v=100
5450139 Off ch=3 n=3 v=0
5450672 On ch=3 n=13 v=100
5450765 Off ch=3 n=13 v=0
5451408 On ch=3 n=4 v=100
5452674 Off ch=3 n=4 v=0
5452702 On ch=3 n=11 v=100
5453226 On ch=3 n=11 v=100
5453278 Off ch=3 n=11 v=0
5453351 On ch=3 n=14 v=100
5453542 Off ch=3 n=11 v=0
5453766 On ch=3 n=4 v=100
5453768 Off ch=3 n=14 v=0
5453913 Off ch=3 n=4 v=0
5455219 On ch=3 n=1 v=100
5456006 Off ch=3 n=1 v=0
5456251 On ch=3 n=32 v=100
5456273 On ch=3 n=12 v=100
5456447 Off ch=3 n=32 v=0
5456520 Off ch=3 n=12 v=0
5456820 On ch=3 n=36 v=100
5457045 Off ch=3 n=36 v=0
5457199 On ch=3 n=8 v=100
5457652 Off ch=3 n=8 v=0
5458199 On ch=3 n=9 v=100
5458267 On ch=3 n=20 v=100
5458267 Off ch=3 n=9 v=0
5458272 On ch=3 n=8 v=100
5458311 Off ch=3 n=20 v=0
5458912 Off ch=3 n=8 v=0
5459445 On ch=3 n=6 v=100
5459831 Off ch=3 n=6 v=0
5459845 On ch=3 n=5 v=100
5460023 Off ch=3 n=5 v=0
5470470 On ch=3 n=9 v=100
5470657 Off ch=3 n=9 v=0
5471617 On ch=3 n=48 v=100
5471680 On ch=3 n=8 v=100
5471923 Off ch=3 n=48 v=0
5471924 Off ch=3 n=8 v=0
5472663 On ch=3 n=8 v=100
5472793 Off ch=3 n=8 v=0
5472798 On ch=3 n=12 v=100
5472959 On ch=3 n=18 v=100
5472962 Off ch=3 n=12 v=0
5473163 On ch=3 n=13 v=100
5473195 Off ch=3 n=18 v=0
5473265 On ch=3 n=22 v=100
5473359 Off ch=3 n=13 v=0
5473388 On ch=3 n=10 v=100
5473439 Off ch=3 n=22 v=0
5473699 Off ch=3 n=10 v=0
5476256 On ch=3 n=21 v=100
5476626 On ch=3 n=11 v=100
5476636 Off ch=3 n=21 v=0
5476890 Off ch=3 n=11 v=0
5477074 On ch=3 n=9 v=100
5477329 Off ch=3 n=9 v=0
5483183 On ch=3 n=6 v=100
5483683 On ch=3 n=20 v=100
5483726 Off ch=3 n=6 v=0
5483730 On ch=3 n=8 v=100
5483920 Off ch=3 n=8 v=0
5483921 Off ch=3 n=20 v=0
5484082 On ch=3 n=3 v=100
5484159 Off ch=3 n=3 v=0
5484200 On ch=3 n=2 v=100
5488596 On ch=3 n=18 v=100
5488610 Off ch=3 n=2 v=0
5489023 On ch=3 n=19 v=100
5489100 Off ch=3 n=18 v=0
5489240 Off ch=3 n=19 v=0
5489878 On ch=3 n=17 v=100
5490123 On ch=3 n=9 v=100
5490123 Off ch=3 n=17 v=0
5490622 Off ch=3 n=9 v=0
5490660 On ch=3 n=9 v=100
5491401 On ch=3 n=18 v=100
5491412 Off ch=3 n=9 v=0
5491414 On ch=3 n=13 v=100
5491415 On ch=3 n=8 v=100
5491493 Off ch=3 n=18 v=0
5491493 Off ch=3 n=8 v=0
5491526 Off ch=3 n=13 v=0
5492976 On ch=3 n=8 v=100
5493220 Off ch=3 n=8 v=0
5493350 On ch=3 n=59 v=100
5493512 On ch=3 n=40 v=100
5493512 On ch=3 n=40 v=100
5493536 On ch=3 n=35 v=100
5493536 On ch=3 n=35 v=100
5493549 On ch=3 n=12 v=100
5493750 Off ch=3 n=59 v=0
5493750 Off ch=3 n=12 v=0
5493776 Off ch=3 n=35 v=0
5493776 Off ch=3 n=35 v=0
5493875 Off ch=3 n=40 v=0
5493875 Off ch=3 n=40 v=0
5494105 On ch=3 n=13 v=100
5494562 Off ch=3 n=13 v=0
5495176 On ch=3 n=10 v=100
5495426 Off ch=3 n=10 v=0
5496977 On ch=3 n=22 v=100
5497007 On ch=3 n=10 v=100
5497016 On ch=3 n=14 v=100
5497206 Off ch=3 n=22 v=0
5497400 Off ch=3 n=10 v=0
5497447 Off ch=3 n=14 v=0
5499450 On ch=3 n=2 v=100
5499735 Off ch=3 n=2 v=0
5500668 On ch=3 n=24 v=100
5500838 Off ch=3 n=24 v=0
5502831 On ch=3 n=19 v=100
5504262 On ch=3 n=19 v=100
5504262 Off ch=3 n=19 v=0
5504945 On ch=3 n=5 v=100
5504948 Off ch=3 n=19 v=0
5507813 On ch=3 n=27 v=100
5507829 Off ch=3 n=5 v=0
5507960 On ch=3 n=38 v=100
5508005 Off ch=3 n=27 v=0
5508043 Off ch=3 n=38 v=0
5514299 On ch=3 n=51 v=100
5514697 Off ch=3 n=51 v=0
5515056 On ch=3 n=6 v=100
5515502 Off ch=3 n=6 v=0
5518935 On ch=3 n=22 v=100
5518957 On ch=3 n=25 v=100
5518996 Off ch=3 n=22 v=0
5519086 Off ch=3 n=25 v=0
5519087 On ch=3 n=16 v=100
5519440 Off ch=3 n=16 v=0
5520877 On ch=3 n=9 v=100
5520946 On ch=3 n=23 v=100
5520981 Off ch=3 n=9 v=0
5521046 Off ch=3 n=23 v=0
5522886 On ch=3 n=15 v=100
5522982 Off ch=3 n=15 v=0
5523256 On ch=3 n=23 v=100
5523765 Off ch=3 n=23 v=0
5524105 On ch=3 n=19 v=100
5524543 Off ch=3 n=19 v=0
5526160 On ch=3 n=13 v=100
5526657 Off ch=3 n=13 v=0
5527412 On ch=3 n=8 v=100
5527747 On ch=3 n=16 v=100
5527759 On ch=3 n=8 v=100
5527761 Off ch=3 n=8 v=0
5527847 Off ch=3 n=16 v=0
5527847 Off ch=3 n=8 v=0
5528040 On ch=3 n=18 v=100
5528124 Off ch=3 n=18 v=0
5528351 On ch=3 n=2 v=100
5528399 Off ch=3 n=2 v=0
5528465 On ch=3 n=11 v=100
5528495 On ch=3 n=55 v=100
5528913 On ch=3 n=9 v=100
5528948 Off ch=3 n=11 v=0
5529047 On ch=3 n=20 v=100
5529101 Off ch=3 n=55 v=0
5529189 Off ch=3 n=9 v=0
5529198 On ch=3 n=7 v=100
5529565 Off ch=3 n=20 v=0
5529568 Off ch=3 n=7 v=0
5529622 On ch=3 n=8 v=100
5529798 Off ch=3 n=8 v=0
5537429 On ch=3 n=6 v=100
5537983 On ch=3 n=13 v=100
5537984 Off ch=3 n=6 v=0
5538037 On ch=3 n=17 v=100
5538082 Off ch=3 n=13 v=0
5538124 On ch=3 n=16 v=100
5538125 Off ch=3 n=17 v=0
5538304 Off ch=3 n=16 v=0
5538312 On ch=3 n=27 v=100
5538415 Off ch=3 n=27 v=0
5538476 On ch=3 n=63 v=100
5538525 On ch=3 n=11 v=100
5538570 Off ch=3 n=63 v=0
5538979 On ch=3 n=21 v=100
5538988 Off ch=3 n=11 v=0
5539077 Off ch=3 n=21 v=0
5539171 On ch=3 n=50 v=100
5539183 On ch=3 n=10 v=100
5539276 Off ch=3 n=50 v=0
5539860 Off ch=3 n=10 v=0
5540460 On ch=3 n=24 v=100
5540526 On ch=3 n=22 v=100
5540548 On ch=3 n=7 v=100
5540711 Off ch=3 n=24 v=0
5540711 Off ch=3 n=22 v=0
5540711 Off ch=3 n=7 v=0
5589997 On ch=3 n=31 v=100
5590007 On ch=3 n=7 v=100
5590025 On ch=3 n=6 v=100
5590059 Off ch=3 n=31 v=0
5590065 Off ch=3 n=7 v=0
5590302 On ch=3 n=21 v=100
5590333 Off ch=3 n=6 v=0
5590348 Off ch=3 n=21 v=0
5590836 On ch=3 n=1 v=100
5592051 On ch=3 n=1 v=100
5592147 Off ch=3 n=1 v=0
5593625 Off ch=3 n=1 v=0
5593872 On ch=3 n=2 v=100
5598071 Off ch=3 n=2 v=0
5598651 On ch=3 n=1 v=100
5600132 Off ch=3 n=1 v=0
5601255 On ch=3 n=5 v=100
5602922 Off ch=3 n=5 v=0
5602924 On ch=3 n=1 v=100
5603099 Off ch=3 n=1 v=0
5622927 On ch=3 n=15 v=100
5622951 On ch=3 n=7 v=100
5622982 Off ch=3 n=15 v=0
5623198 On ch=3 n=34 v=100
5623208 On ch=3 n=24 v=100
5623218 On ch=3 n=16 v=100
5623239 Off ch=3 n=7 v=0
5623247 Off ch=3 n=34 v=0
5623250 Off ch=3 n=24 v=0
5623258 Off ch=3 n=16 v=0
5627004 On ch=3 n=17 v=100
5627005 On ch=3 n=37 v=100
5627037 On ch=3 n=18 v=100
5627166 Off ch=3 n=17 v=0
5627256 Off ch=3 n=18 v=0
5627260 Off ch=3 n=37 v=0
5627294 On ch=3 n=7 v=100
5627530 Off ch=3 n=7 v=0
5627838 On ch=3 n=13 v=100
5628001 Off ch=3 n=13 v=0
5628970 On ch=3 n=7 v=100
5629293 Off ch=3 n=7 v=0
5629421 On ch=3 n=19 v=100
5629450 On ch=3 n=26 v=100
5629494 Off ch=3 n=19 v=0
5629506 Off ch=3 n=26 v=0
5630663 On ch=3 n=44 v=100
5630725 On ch=3 n=31 v=100
5630830 On ch=3 n=53 v=100
5630832 On ch=3 n=19 v=100
5630950 Off ch=3 n=19 v=0
5630968 Off ch=3 n=44 v=0
5630969 On ch=3 n=24 v=100
5630980 Off ch=3 n=31 v=0
5631041 Off ch=3 n=53 v=0
5631120 Off ch=3 n=24 v=0
5631382 On ch=3 n=7 v=100
5631471 On ch=3 n=8 v=100
5631492 Off ch=3 n=7 v=0
5631772 Off ch=3 n=8 v=0
5631774 On ch=3 n=10 v=100
5631877 On ch=3 n=10 v=100
5631893 Off ch=3 n=10 v=0
5632766 On ch=3 n=19 v=100
5632787 Off ch=3 n=10 v=0
5632836 On ch=3 n=14 v=100
5632886 Off ch=3 n=19 v=0
5632888 On ch=3 n=10 v=100
5633047 On ch=3 n=51 v=100
5633092 On ch=3 n=14 v=100
5633097 Off ch=3 n=14 v=0
5633116 Off ch=3 n=10 v=0
5633165 Off ch=3 n=51 v=0
5633633 On ch=3 n=12 v=100
5633868 Off ch=3 n=14 v=0
5633900 Off ch=3 n=12 v=0
5633903 On ch=3 n=18 v=100
5634007 Off ch=3 n=18 v=0
5634157 On ch=3 n=31 v=100
5634252 Off ch=3 n=31 v=0
5634295 On ch=3 n=9 v=100
5634991 Off ch=3 n=9 v=0
5634997 On ch=3 n=19 v=100
5635079 Off ch=3 n=19 v=0
5635429 On ch=3 n=12 v=100
5635891 On ch=3 n=5 v=100
5635902 Off ch=3 n=12 v=0
5635963 On ch=3 n=11 v=100
5636111 Off ch=3 n=5 v=0
5636113 On ch=3 n=5 v=100
5636995 Off ch=3 n=11 v=0
5637124 On ch=3 n=12 v=100
5637129 Off ch=3 n=5 v=0
5637152 On ch=3 n=27 v=100
5637230 Off ch=3 n=12 v=0
5637251 Off ch=3 n=27 v=0
5637311 On ch=3 n=18 v=100
5637381 On ch=3 n=15 v=100
5637402 Off ch=3 n=18 v=0
5637445 Off ch=3 n=15 v=0
5637776 On ch=3 n=25 v=100
5637819 Off ch=3 n=25 v=0
5638500 On ch=3 n=22 v=100
5638582 Off ch=3 n=22 v=0
5638594 On ch=3 n=13 v=100
5638643 Off ch=3 n=13 v=0
5646607 On ch=3 n=41 v=100
5646648 Off ch=3 n=41 v=0
5646710 On ch=3 n=41 v=100
5647226 Off ch=3 n=41 v=0
5649035 On ch=3 n=5 v=100
5649090 Off ch=3 n=5 v=0
5649848 On ch=3 n=11 v=100
5650035 Off ch=3 n=11 v=0
5650069 On ch=3 n=9 v=100
5650715 Off ch=3 n=9 v=0
5651143 On ch=3 n=9 v=100
5651726 On ch=3 n=24 v=100
5651726 On ch=3 n=24 v=100
5651741 On ch=3 n=14 v=100
5651750 Off ch=3 n=9 v=0
5652044 On ch=3 n=11 v=100
5652071 Off ch=3 n=14 v=0
5652143 Off ch=3 n=24 v=0
5652143 Off ch=3 n=24 v=0
5652436 Off ch=3 n=11 v=0
5653952 On ch=3 n=15 v=100
5654101 On ch=3 n=32 v=100
5654124 Off ch=3 n=15 v=0
5654130 On ch=3 n=23 v=100
5654255 Off ch=3 n=32 v=0
5654255 Off ch=3 n=23 v=0
5654265 On ch=3 n=6 v=100
5654978 On ch=3 n=35 v=100
5655002 Off ch=3 n=6 v=0
5655007 On ch=3 n=34 v=100
5655008 On ch=3 n=16 v=100
5655084 Off ch=3 n=35 v=0
5655141 Off ch=3 n=16 v=0
5655172 Off ch=3 n=34 v=0
5655181 On ch=3 n=25 v=100
5655295 Off ch=3 n=25 v=0
5657173 On ch=3 n=18 v=100
5657582 Off ch=3 n=18 v=0
5665525 On ch=3 n=21 v=100
5665535 On ch=3 n=15 v=100
5665713 Off ch=3 n=15 v=0
5665745 Off ch=3 n=21 v=0
5666406 On ch=3 n=22 v=100
5666487 Off ch=3 n=22 v=0
5666598 On ch=3 n=20 v=100
5666647 Off ch=3 n=20 v=0
5666705 On ch=3 n=8 v=100
5667113 On ch=3 n=22 v=100
5667294 Off ch=3 n=8 v=0
5667298 On ch=3 n=13 v=100
5667633 Off ch=3 n=22 v=0
5667772 Off ch=3 n=13 v=0
5674209 On ch=3 n=10 v=100
5674316 Off ch=3 n=10 v=0
5674369 On ch=3 n=31 v=100
5674541 Off ch=3 n=31 v=0
5674841 On ch=3 n=33 v=100
5675145 Off ch=3 n=33 v=0
5675180 On ch=3 n=33 v=100
5675297 Off ch=3 n=33 v=0
5675362 On ch=3 n=17 v=100
5675465 Off ch=3 n=17 v=0
5675735 On ch=3 n=1 v=100
5676062 On ch=3 n=13 v=100
5676116 Off ch=3 n=1 v=0
5677742 On ch=3 n=41 v=100
5678042 Off ch=3 n=13 v=0
5678149 On ch=3 n=46 v=100
5678151 On ch=3 n=41 v=100
5678250 Off ch=3 n=41 v=0
5678289 Off ch=3 n=41 v=0
5678341 Off ch=3 n=46 v=0
5678363 On ch=3 n=3 v=100
5679001 On ch=3 n=2 v=100
5679001 Off ch=3 n=3 v=0
5679309 Off ch=3 n=2 v=0
5679316 On ch=3 n=7 v=100
5679830 On ch=3 n=7 v=100
5679833 Off ch=3 n=7 v=0
5681571 On ch=3 n=4 v=100
5681582 Off ch=3 n=7 v=0
5682716 On ch=3 n=7 v=100
5682721 Off ch=3 n=4 v=0
5684311 Off ch=3 n=7 v=0
5684337 On ch=3 n=4 v=100
5685770 On ch=3 n=8 v=100
5685776 Off ch=3 n=4 v=0
5686720 Off ch=3 n=8 v=0
5687965 On ch=3 n=3 v=100
5688694 Off ch=3 n=3 v=0
5688697 On ch=3 n=4 v=100
5696910 Off ch=3 n=4 v=0
5696954 On ch=3 n=4 v=100
5696976 Off ch=3 n=4 v=0
5702061 On ch=3 n=32 v=100
5702311 Off ch=3 n=32 v=0
5702457 On ch=3 n=26 v=100
5702459 On ch=3 n=31 v=100
5702581 On ch=3 n=24 v=100
5702774 Off ch=3 n=26 v=0
5702820 Off ch=3 n=24 v=0
5702821 Off ch=3 n=31 v=0
5704023 On ch=3 n=19 v=100
5704125 Off ch=3 n=19 v=0
5704153 On ch=3 n=15 v=100
5704428 On ch=3 n=12 v=100
5704439 Off ch=3 n=15 v=0
5704695 On ch=3 n=21 v=100
5704892 On ch=3 n=9 v=100
5704906 Off ch=3 n=12 v=0
5704947 Off ch=3 n=21 v=0
5705458 Off ch=3 n=9 v=0
5706831 On ch=3 n=14 v=100
5706881 Off ch=3 n=14 v=0
5707484 On ch=3 n=36 v=100
5707567 On ch=3 n=21 v=100
5707571 On ch=3 n=22 v=100
5707649 Off ch=3 n=36 v=0
5707728 Off ch=3 n=21 v=0
5707807 Off ch=3 n=22 v=0
5707904 On ch=3 n=31 v=100
5707932 On ch=3 n=31 v=100
5707972 On ch=3 n=39 v=100
5708172 Off ch=3 n=31 v=0
5708176 Off ch=3 n=31 v=0
5708331 On ch=3 n=4 v=100
5708802 Off ch=3 n=4 v=0
5708917 Off ch=3 n=39 v=0
5711442 On ch=3 n=28 v=100
5711636 Off ch=3 n=28 v=0
5712366 On ch=3 n=4 v=100
5712705 On ch=3 n=2 v=100
5712705 Off ch=3 n=4 v=0
5712994 Off ch=3 n=2 v=0
5713022 On ch=3 n=38 v=100
5713066 On ch=3 n=8 v=100
5713232 Off ch=3 n=38 v=0
5713566 Off ch=3 n=8 v=0
5713586 On ch=3 n=28 v=100
5713661 Off ch=3 n=28 v=0
5715304 On ch=3 n=29 v=100
5715650 Off ch=3 n=29 v=0
5715849 On ch=3 n=26 v=100
5715865 On ch=3 n=19 v=100
5715931 Off ch=3 n=26 v=0
5715943 Off ch=3 n=19 v=0
5716970 On ch=3 n=5 v=100
5720559 Off ch=3 n=5 v=0
5720592 On ch=3 n=6 v=100
5722501 On ch=3 n=44 v=100
5722547 On ch=3 n=5 v=100
5722581 Off ch=3 n=6 v=0
5722601 Off ch=3 n=44 v=0
5723150 Off ch=3 n=5 v=0
5726224 On ch=3 n=2 v=100
5727462 Off ch=3 n=2 v=0
5732671 On ch=3 n=16 v=100
5733026 Off ch=3 n=16 v=0
5733091 On ch=3 n=16 v=100
5733121 Off ch=3 n=16 v=0
5733122 On ch=3 n=2 v=100
5737079 On ch=3 n=9 v=100
5737080 Off ch=3 n=2 v=0
5737493 Off ch=3 n=9 v=0
5737495 On ch=3 n=7 v=100
5737706 Off ch=3 n=7 v=0
5739028 On ch=3 n=8 v=100
5739327 On ch=3 n=12 v=100
5739340 Off ch=3 n=8 v=0
5739438 On ch=3 n=10 v=100
5739449 Off ch=3 n=12 v=0
5739938 On ch=3 n=35 v=100
5740104 On ch=3 n=14 v=100
5740117 Off ch=3 n=10 v=0
5740153 Off ch=3 n=35 v=0
5740277 Off ch=3 n=14 v=0
5741720 On ch=3 n=41 v=100
5741843 On ch=3 n=17 v=100
5741846 Off ch=3 n=41 v=0
5741857 On ch=3 n=33 v=100
5741876 On ch=3 n=28 v=100
5741906 Off ch=3 n=17 v=0
5741997 Off ch=3 n=33 v=0
5742014 Off ch=3 n=28 v=0
5742025 On ch=3 n=16 v=100
5742380 Off ch=3 n=16 v=0
5742628 On ch=3 n=10 v=100
5742702 On ch=3 n=4 v=100
5743261 Off ch=3 n=10 v=0
5743426 Off ch=3 n=4 v=0
5743465 On ch=3 n=6 v=100
5743711 On ch=3 n=12 v=100
5743716 Off ch=3 n=6 v=0
5743795 On ch=3 n=4 v=100
5743795 Off ch=3 n=12 v=0
5743812 On ch=3 n=11 v=100
5744240 Off ch=3 n=4 v=0
5744241 On ch=3 n=3 v=100
5744426 Off ch=3 n=11 v=0
5744506 Off ch=3 n=3 v=0
5745407 On ch=3 n=12 v=100
5746421 On ch=3 n=3 v=100
5746426 Off ch=3 n=12 v=0
5746510 Off ch=3 n=3 v=0
5746527 On ch=3 n=19 v=100
5746557 On ch=3 n=27 v=100
5746562 On ch=3 n=26 v=100
5746624 Off ch=3 n=19 v=0
5746637 Off ch=3 n=26 v=0
5746654 Off ch=3 n=27 v=0
5746883 On ch=3 n=16 v=100
5746907 On ch=3 n=8 v=100
5747181 Off ch=3 n=8 v=0
5747190 Off ch=3 n=16 v=0
5747827 On ch=3 n=16 v=100
5747943 On ch=3 n=14 v=100
5747956 Off ch=3 n=16 v=0
5747997 Off ch=3 n=14 v=0
5748675 On ch=3 n=9 v=100
5749078 On ch=3 n=2 v=100
5749151 Off ch=3 n=9 v=0
5749843 Off ch=3 n=2 v=0
5749844 On ch=3 n=2 v=100
5750075 Off ch=3 n=2 v=0
5750077 On ch=3 n=5 v=100
5750500 Off ch=3 n=5 v=0
5750856 On ch=3 n=31 v=100
5750992 Off ch=3 n=31 v=0
5751887 On ch=3 n=6 v=100
5753512 Off ch=3 n=6 v=0
5753515 On ch=3 n=12 v=100
5753693 Off ch=3 n=12 v=0
5754142 On ch=3 n=37 v=100
5754282 Off ch=3 n=37 v=0
5754316 On ch=3 n=22 v=100
5754369 Off ch=3 n=22 v=0
5754632 On ch=3 n=15 v=100
5754748 On ch=3 n=13 v=100
5754761 Off ch=3 n=15 v=0
5754808 Off ch=3 n=13 v=0
5755483 On ch=3 n=4 v=100
5756302 Off ch=3 n=4 v=0
5756658 On ch=3 n=30 v=100
5756794 Off ch=3 n=30 v=0
5758125 On ch=3 n=21 v=100
5758168 Off ch=3 n=21 v=0
5758771 On ch=3 n=4 v=100
5759260 On ch=3 n=9 v=100
5759260 Off ch=3 n=4 v=0
5759631 On ch=3 n=10 v=100
5759653 Off ch=3 n=9 v=0
5759846 On ch=3 n=7 v=100
5759850 Off ch=3 n=10 v=0
5759859 Off ch=3 n=7 v=0
5759968 On ch=3 n=6 v=100
5760055 Off ch=3 n=6 v=0
5760181 On ch=3 n=16 v=100
5760245 Off ch=3 n=16 v=0
5760257 On ch=3 n=9 v=100
5760513 Off ch=3 n=9 v=0
5760542 On ch=3 n=25 v=100
5760638 Off ch=3 n=25 v=0
5760801 On ch=3 n=21 v=100
5760855 On ch=3 n=2 v=100
5761054 Off ch=3 n=21 v=0
5761412 Off ch=3 n=2 v=0
5761436 On ch=3 n=8 v=100
5761722 On ch=3 n=6 v=100
5761723 Off ch=3 n=8 v=0
5761900 Off ch=3 n=6 v=0
5762019 On ch=3 n=26 v=100
5762062 Off ch=3 n=26 v=0
5762375 On ch=3 n=25 v=100
5762462 Off ch=3 n=25 v=0
5763319 On ch=3 n=4 v=100
5763386 Off ch=3 n=4 v=0
5763388 On ch=3 n=5 v=100
5763901 On ch=3 n=20 v=100
5764060 Off ch=3 n=5 v=0
5764109 Off ch=3 n=20 v=0
5766516 On ch=3 n=4 v=100
5766619 Off ch=3 n=4 v=0
5766621 On ch=3 n=11 v=100
5767022 On ch=3 n=24 v=100
5767038 Off ch=3 n=11 v=0
5767081 Off ch=3 n=24 v=0
5767124 On ch=3 n=24 v=100
5768862 Off ch=3 n=24 v=0
5771998 On ch=3 n=48 v=100
5772098 Off ch=3 n=48 v=0
5772460 On ch=3 n=45 v=100
5772797 Off ch=3 n=45 v=0
5774741 On ch=3 n=65 v=100
5774857 Off ch=3 n=65 v=0
5775206 On ch=3 n=48 v=100
5775566 Off ch=3 n=48 v=0
5777487 On ch=3 n=65 v=100
5777603 Off ch=3 n=65 v=0
5777952 On ch=3 n=45 v=100
5778289 Off ch=3 n=45 v=0
5780698 On ch=3 n=48 v=100
5781058 Off ch=3 n=48 v=0
5782241 On ch=3 n=48 v=100
5782593 Off ch=3 n=48 v=0
5789386 On ch=3 n=21 v=100
5789733 Off ch=3 n=21 v=0
5790694 On ch=3 n=32 v=100
5790877 Off ch=3 n=32 v=0
5791871 On ch=3 n=17 v=100
5791914 Off ch=3 n=17 v=0
5795434 On ch=3 n=28 v=100
5795511 On ch=3 n=22 v=100
5795712 On ch=3 n=21 v=100
5796060 Off ch=3 n=28 v=0
5796062 Off ch=3 n=22 v=0
5796130 On ch=3 n=5 v=100
5796289 Off ch=3 n=21 v=0
5796383 Off ch=3 n=5 v=0
5796720 On ch=3 n=9 v=100
5797017 Off ch=3 n=9 v=0
5797018 On ch=3 n=6 v=100
5797520 Off ch=3 n=6 v=0
5798079 On ch=3 n=3 v=100
5798184 Off ch=3 n=3 v=0
5798769 On ch=3 n=10 v=100
5799418 Off ch=3 n=10 v=0
5799428 On ch=3 n=13 v=100
5799591 Off ch=3 n=13 v=0
5799649 On ch=3 n=13 v=100
5800053 On ch=3 n=14 v=100
5800064 Off ch=3 n=13 v=0
5800160 Off ch=3 n=14 v=0
5800211 On ch=3 n=21 v=100
5800334 Off ch=3 n=21 v=0
5801235 On ch=3 n=36 v=100
5801274 On ch=3 n=36 v=100
5801274 On ch=3 n=36 v=100
5801289 On ch=3 n=25 v=100
5801377 Off ch=3 n=25 v=0
5801378 Off ch=3 n=36 v=0
5801447 Off ch=3 n=36 v=0
5801447 Off ch=3 n=36 v=0
5802304 On ch=3 n=39 v=100
5802431 Off ch=3 n=39 v=0
5803334 On ch=3 n=39 v=100
5803461 Off ch=3 n=39 v=0
5804365 On ch=3 n=38 v=100
5804439 Off ch=3 n=38 v=0
5810434 On ch=3 n=1 v=100
5811963 Off ch=3 n=1 v=0
5812251 On ch=3 n=7 v=100
5812600 Off ch=3 n=7 v=0
5820649 On ch=3 n=5 v=100
5821557 On ch=3 n=21 v=100
5821568 Off ch=3 n=5 v=0
5822099 Off ch=3 n=21 v=0
5822192 On ch=3 n=26 v=100
5822454 Off ch=3 n=26 v=0
5822571 On ch=3 n=38 v=100
5822656 Off ch=3 n=38 v=0
5822864 On ch=3 n=34 v=100
5823419 Off ch=3 n=34 v=0
5823494 On ch=3 n=34 v=100
5823503 Off ch=3 n=34 v=0
5823783 On ch=3 n=20 v=100
5823934 Off ch=3 n=20 v=0
5824251 On ch=3 n=36 v=100
5824566 On ch=3 n=6 v=100
5824584 Off ch=3 n=36 v=0
5827362 Off ch=3 n=6 v=0
5830088 On ch=3 n=4 v=100
5831678 Off ch=3 n=4 v=0
5839267 On ch=3 n=2 v=100
5839470 Off ch=3 n=2 v=0
5839727 On ch=3 n=9 v=100
5840372 On ch=3 n=21 v=100
5840438 Off ch=3 n=9 v=0
5840464 Off ch=3 n=21 v=0
5842655 On ch=3 n=5 v=100
5843445 Off ch=3 n=5 v=0
5845025 On ch=3 n=37 v=100
5845580 On ch=3 n=31 v=100
5845619 Off ch=3 n=37 v=0
5845672 Off ch=3 n=31 v=0
5849070 On ch=3 n=28 v=100
5849176 Off ch=3 n=28 v=0
5854514 On ch=3 n=36 v=100
5854547 On ch=3 n=36 v=100
5854587 On ch=3 n=38 v=100
5854588 On ch=3 n=50 v=100
5854683 Off ch=3 n=36 v=0
5854697 Off ch=3 n=38 v=0
5854702 Off ch=3 n=36 v=0
5854722 Off ch=3 n=50 v=0
5855193 On ch=3 n=7 v=100
5855496 Off ch=3 n=7 v=0
5855907 On ch=3 n=9 v=100
5856175 On ch=3 n=8 v=100
5856180 Off ch=3 n=9 v=0
5856576 Off ch=3 n=8 v=0
5856605 On ch=3 n=10 v=100
5856754 On ch=3 n=7 v=100
5856759 Off ch=3 n=10 v=0
5857105 On ch=3 n=5 v=100
5857105 Off ch=3 n=7 v=0
5857775 Off ch=3 n=5 v=0
5857776 On ch=3 n=6 v=100
5857935 On ch=3 n=47 v=100
5858051 Off ch=3 n=6 v=0
5858083 Off ch=3 n=47 v=0
5865335 On ch=3 n=4 v=100
5868328 Off ch=3 n=4 v=0
5870031 On ch=3 n=19 v=100
5870337 Off ch=3 n=19 v=0
5871373 On ch=3 n=29 v=100
5871493 Off ch=3 n=29 v=0
5871778 On ch=3 n=18 v=100
5871805 On ch=3 n=32 v=100
5872068 Off ch=3 n=18 v=0
5872118 Off ch=3 n=32 v=0
5872668 On ch=3 n=5 v=100
5873541 Off ch=3 n=5 v=0
5875378 On ch=3 n=2 v=100
5876626 Off ch=3 n=2 v=0
5877087 On ch=3 n=23 v=100
5877131 Off ch=3 n=23 v=0
5878720 On ch=3 n=2 v=100
5880551 Off ch=3 n=2 v=0
5880578 On ch=3 n=43 v=100
5880614 On ch=3 n=39 v=100
5880815 Off ch=3 n=43 v=0
5881042 Off ch=3 n=39 v=0
5882139 On ch=3 n=60 v=100
5882140 On ch=3 n=46 v=100
5882272 Off ch=3 n=46 v=0
5882292 Off ch=3 n=60 v=0
5882318 On ch=3 n=16 v=100
5882319 On ch=3 n=21 v=100
5882647 Off ch=3 n=16 v=0
5882723 Off ch=3 n=21 v=0
5883677 On ch=3 n=7 v=100
5884060 Off ch=3 n=7 v=0
5886575 On ch=3 n=15 v=100
5886581 On ch=3 n=20 v=100
5886751 Off ch=3 n=15 v=0
5886773 On ch=3 n=35 v=100
5886782 Off ch=3 n=20 v=0
5886874 Off ch=3 n=35 v=0
5887591 On ch=3 n=3 v=100
5888705 On ch=3 n=17 v=100
5888708 Off ch=3 n=3 v=0
5892917 On ch=3 n=16 v=100
5892923 Off ch=3 n=17 v=0
5895365 Off ch=3 n=16 v=0
5895399 On ch=3 n=16 v=100
5895911 Off ch=3 n=16 v=0
5896397 On ch=3 n=39 v=100
5896504 Off ch=3 n=39 v=0
5910990 On ch=3 n=7 v=100
5911287 Off ch=3 n=7 v=0
5911453 On ch=3 n=11 v=100
5911528 Off ch=3 n=11 v=0
5911579 On ch=3 n=7 v=100
5911661 Off ch=3 n=7 v=0
5911802 On ch=3 n=14 v=100
5911899 Off ch=3 n=14 v=0
5912668 On ch=3 n=9 v=100
5912668 On ch=3 n=23 v=100
5912921 Off ch=3 n=9 v=0
5913001 Off ch=3 n=23 v=0
5914888 On ch=3 n=17 v=100
5915430 Off ch=3 n=17 v=0
5915814 On ch=3 n=22 v=100
5915895 Off ch=3 n=22 v=0
5918697 On ch=3 n=3 v=100
5919313 Off ch=3 n=3 v=0
5919393 On ch=3 n=9 v=100
5921137 On ch=3 n=3 v=100
5921140 Off ch=3 n=9 v=0
5921852 On ch=3 n=37 v=100
5921864 On ch=3 n=24 v=100
5921887 On ch=3 n=16 v=100
5921897 Off ch=3 n=3 v=0
5921897 Off ch=3 n=37 v=0
5921897 Off ch=3 n=24 v=0
5921897 Off ch=3 n=16 v=0
5921957 On ch=3 n=37 v=100
5921957 On ch=3 n=3 v=100
5922016 Off ch=3 n=37 v=0
5922242 On ch=3 n=6 v=100
5922242 Off ch=3 n=3 v=0
5925085 On ch=3 n=3 v=100
5925085 Off ch=3 n=6 v=0
5925432 Off ch=3 n=3 v=0
5925434 On ch=3 n=2 v=100
5926237 Off ch=3 n=2 v=0
5926697 On ch=3 n=2 v=100
5926890 Off ch=3 n=2 v=0
5926981 On ch=3 n=23 v=100
5927000 On ch=3 n=36 v=100
5927043 Off ch=3 n=23 v=0
5927049 On ch=3 n=14 v=100
5927061 Off ch=3 n=36 v=0
5927127 On ch=3 n=50 v=100
5927128 Off ch=3 n=14 v=0
5927307 Off ch=3 n=50 v=0
5928110 On ch=3 n=35 v=100
5928319 Off ch=3 n=35 v=0
5928872 On ch=3 n=33 v=100
5928990 On ch=3 n=20 v=100
5929023 On ch=3 n=7 v=100
5929132 Off ch=3 n=33 v=0
5929132 Off ch=3 n=20 v=0
5929132 Off ch=3 n=7 v=0
5929190 On ch=3 n=8 v=100
5929719 Off ch=3 n=8 v=0
5929721 On ch=3 n=5 v=100
5929793 Off ch=3 n=5 v=0
5933953 On ch=3 n=60 v=100
5934027 Off ch=3 n=60 v=0
5935169 On ch=3 n=63 v=100
5935252 Off ch=3 n=63 v=0
5937113 On ch=3 n=23 v=100
5937492 Off ch=3 n=23 v=0
5937612 On ch=3 n=23 v=100
5940424 Off ch=3 n=23 v=0
5940603 On ch=3 n=9 v=100
5941200 Off ch=3 n=9 v=0
5949135 On ch=3 n=2 v=100
5951511 Off ch=3 n=2 v=0
5956222 On ch=3 n=17 v=100
5956668 Off ch=3 n=17 v=0
5957062 On ch=3 n=26 v=100
5957251 Off ch=3 n=26 v=0
5957357 On ch=3 n=26 v=100
5959326 On ch=3 n=18 v=100
5959336 Off ch=3 n=26 v=0
5959882 Off ch=3 n=18 v=0
5959929 On ch=3 n=37 v=100
5960191 Off ch=3 n=37 v=0
5962193 On ch=3 n=17 v=100
5962764 Off ch=3 n=17 v=0
5962784 On ch=3 n=26 v=100
5963103 On ch=3 n=2 v=100
5963133 Off ch=3 n=26 v=0
5963873 On ch=3 n=20 v=100
5963873 Off ch=3 n=2 v=0
5964075 Off ch=3 n=20 v=0
5964586 On ch=3 n=17 v=100
5966898 Off ch=3 n=17 v=0
5966947 On ch=3 n=20 v=100
5967502 On ch=3 n=26 v=100
5967511 Off ch=3 n=20 v=0
5968466 Off ch=3 n=26 v=0
5968730 On ch=3 n=15 v=100
5969109 Off ch=3 n=15 v=0
5969258 On ch=3 n=26 v=100
5969258 On ch=3 n=23 v=100
5969258 On ch=3 n=18 v=100
5969449 Off ch=3 n=18 v=0
5969480 Off ch=3 n=23 v=0
5969715 Off ch=3 n=26 v=0
5970005 On ch=3 n=46 v=100
5971081 Off ch=3 n=46 v=0
5971156 On ch=3 n=32 v=100
5971160 On ch=3 n=24 v=100
5971402 Off ch=3 n=24 v=0
5971481 Off ch=3 n=32 v=0
5972763 On ch=3 n=12 v=100
5973044 Off ch=3 n=12 v=0
5973130 On ch=3 n=42 v=100
5973437 Off ch=3 n=42 v=0
5973517 On ch=3 n=18 v=100
5973581 On ch=3 n=3 v=100
5973784 Off ch=3 n=18 v=0
5973784 Off ch=3 n=3 v=0
5973887 On ch=3 n=25 v=100
5973928 Off ch=3 n=25 v=0
5975530 On ch=3 n=15 v=100
5975716 Off ch=3 n=15 v=0
5976503 On ch=3 n=13 v=100
5976600 Off ch=3 n=13 v=0
5976603 On ch=3 n=14 v=100
5976681 Off ch=3 n=14 v=0
5976895 On ch=3 n=15 v=100
5977017 On ch=3 n=12 v=100
5977017 On ch=3 n=12 v=100
5977029 On ch=3 n=9 v=100
5977395 Off ch=3 n=15 v=0
5977395 Off ch=3 n=9 v=0
5977399 On ch=3 n=11 v=100
5977450 Off ch=3 n=12 v=0
5977450 Off ch=3 n=12 v=0
5977645 Off ch=3 n=11 v=0
5977911 On ch=3 n=31 v=100
5978008 Off ch=3 n=31 v=0
5978338 On ch=3 n=12 v=100
5978365 On ch=3 n=32 v=100
5978447 Off ch=3 n=12 v=0
5978448 On ch=3 n=12 v=100
5978468 Off ch=3 n=32 v=0
5978645 Off ch=3 n=12 v=0
5979240 On ch=3 n=44 v=100
5979351 Off ch=3 n=44 v=0
5981648 On ch=3 n=7 v=100
5981947 Off ch=3 n=7 v=0
5982765 On ch=3 n=18 v=100
5982765 On ch=3 n=18 v=100
5982819 On ch=3 n=13 v=100
5982819 On ch=3 n=13 v=100
5982998 Off ch=3 n=18 v=0
5982998 Off ch=3 n=18 v=0
5983034 Off ch=3 n=13 v=0
5983034 Off ch=3 n=13 v=0
5989568 On ch=3 n=20 v=100
5989711 Off ch=3 n=20 v=0
5989789 On ch=3 n=9 v=100
5990013 Off ch=3 n=9 v=0
5990055 On ch=3 n=24 v=100
5990303 Off ch=3 n=24 v=0
5990333 On ch=3 n=2 v=100
5990525 On ch=3 n=5 v=100
5990526 Off ch=3 n=2 v=0
5991192 Off ch=3 n=5 v=0
5993001 On ch=3 n=18 v=100
5993521 Off ch=3 n=18 v=0
5994342 On ch=3 n=5 v=100
5994507 On ch=3 n=9 v=100
5994514 Off ch=3 n=5 v=0
5995216 Off ch=3 n=9 v=0
5995264 On ch=3 n=6 v=100
5995801 Off ch=3 n=6 v=0
5996015 On ch=3 n=21 v=100
5996148 On ch=3 n=13 v=100
5996150 Off ch=3 n=21 v=0
5996221 Off ch=3 n=13 v=0
5996229 On ch=3 n=24 v=100
5996355 Off ch=3 n=24 v=0
5997213 On ch=3 n=6 v=100
5997365 On ch=3 n=16 v=100
5997368 Off ch=3 n=6 v=0
5997549 On ch=3 n=17 v=100
5997550 Off ch=3 n=16 v=0
5997657 On ch=3 n=16 v=100
5997660 Off ch=3 n=17 v=0
5997868 On ch=3 n=6 v=100
5998292 Off ch=3 n=6 v=0
5998293 Off ch=3 n=16 v=0
5998302 On ch=3 n=27 v=100
5998302 On ch=3 n=21 v=100
5998317 On ch=3 n=12 v=100
5998390 Off ch=3 n=21 v=0
5998439 Off ch=3 n=27 v=0
5998528 On ch=3 n=38 v=100
5998695 On ch=3 n=9 v=100
5998751 Off ch=3 n=12 v=0
5999115 Off ch=3 n=38 v=0
5999118 On ch=3 n=20 v=100
5999128 Off ch=3 n=9 v=0
5999210 On ch=3 n=4 v=100
5999328 Off ch=3 n=20 v=0
6000295 On ch=3 n=6 v=100
6000354 Off ch=3 n=4 v=0
6000396 On ch=3 n=31 v=100
6000409 Off ch=3 n=6 v=0
6000410 On ch=3 n=2 v=100
6000489 Off ch=3 n=31 v=0
6001193 Off ch=3 n=2 v=0
6001275 On ch=3 n=2 v=100
6001551 On ch=3 n=10 v=100
6001553 Off ch=3 n=2 v=0
6002528 Off ch=3 n=10 v=0
6002530 On ch=3 n=12 v=100
6002765 Off ch=3 n=12 v=0
6005297 On ch=3 n=34 v=100
6005398 Off ch=3 n=34 v=0
6005400 On ch=3 n=8 v=100
6006298 Off ch=3 n=8 v=0
6006417 On ch=3 n=8 v=100
6007023 Off ch=3 n=8 v=0
6009547 On ch=3 n=9 v=100
6009781 On ch=3 n=13 v=100
6009781 Off ch=3 n=9 v=0
6009895 On ch=3 n=1 v=100
6009895 Off ch=3 n=13 v=0
6010561 Off ch=3 n=1 v=0
6010564 On ch=3 n=17 v=100
6010969 Off ch=3 n=17 v=0
6011019 On ch=3 n=17 v=100
6011135 Off ch=3 n=17 v=0
6011419 On ch=3 n=6 v=100
6011637 Off ch=3 n=6 v=0
6011643 On ch=3 n=8 v=100
6012041 Off ch=3 n=8 v=0
6012198 On ch=3 n=16 v=100
6012249 On ch=3 n=16 v=100
6012250 On ch=3 n=27 v=100
6012256 On ch=3 n=15 v=100
6012328 Off ch=3 n=15 v=0
6012331 Off ch=3 n=16 v=0
6012331 Off ch=3 n=16 v=0
6012339 On ch=3 n=21 v=100
6012357 Off ch=3 n=27 v=0
6012472 On ch=3 n=22 v=100
6012478 Off ch=3 n=21 v=0
6012619 Off ch=3 n=22 v=0
6014261 On ch=3 n=10 v=100
6014597 On ch=3 n=9 v=100
6014608 Off ch=3 n=10 v=0
6014871 Off ch=3 n=9 v=0
6015295 On ch=3 n=10 v=100
6015356 Off ch=3 n=10 v=0
6015668 On ch=3 n=22 v=100
6015776 Off ch=3 n=22 v=0
6016092 On ch=3 n=18 v=100
6016185 Off ch=3 n=18 v=0
6016712 On ch=3 n=7 v=100
6017159 On ch=3 n=4 v=100
6017161 Off ch=3 n=7 v=0
6017210 On ch=3 n=10 v=100
6017212 Off ch=3 n=4 v=0
6017263 Off ch=3 n=10 v=0
6017266 On ch=3 n=9 v=100
6017315 On ch=3 n=3 v=100
6017315 Off ch=3 n=9 v=0
6017373 On ch=3 n=7 v=100
6017379 Off ch=3 n=3 v=0
6017626 Off ch=3 n=7 v=0
6018427 On ch=3 n=13 v=100
6018442 Off ch=3 n=13 v=0
6018557 On ch=3 n=13 v=100
6018774 On ch=3 n=42 v=100
6018774 On ch=3 n=42 v=100
6018818 Off ch=3 n=13 v=0
6018866 Off ch=3 n=42 v=0
6018866 Off ch=3 n=42 v=0
6022740 On ch=3 n=26 v=100
6022742 On ch=3 n=11 v=100
6022976 Off ch=3 n=11 v=0
6022981 On ch=3 n=3 v=100
6023097 Off ch=3 n=26 v=0
6023809 Off ch=3 n=3 v=0
6023845 On ch=3 n=3 v=100
6023882 Off ch=3 n=3 v=0
6024710 On ch=3 n=46 v=100
6025071 Off ch=3 n=46 v=0
6030766 On ch=3 n=28 v=100
6030813 On ch=3 n=2 v=100
6030814 Off ch=3 n=28 v=0
6030848 On ch=3 n=11 v=100
6030852 Off ch=3 n=2 v=0
6031034 On ch=3 n=13 v=100
6031046 Off ch=3 n=11 v=0
6031139 Off ch=3 n=13 v=0
6031289 On ch=3 n=21 v=100
6031396 Off ch=3 n=21 v=0
6032479 On ch=3 n=33 v=100
6032480 On ch=3 n=37 v=100
6032661 Off ch=3 n=37 v=0
6032708 Off ch=3 n=33 v=0
6032797 On ch=3 n=43 v=100
6032865 On ch=3 n=32 v=100
6032976 On ch=3 n=55 v=100
6032997 On ch=3 n=40 v=100
6033068 Off ch=3 n=43 v=0
6033112 Off ch=3 n=32 v=0
6033146 Off ch=3 n=40 v=0
6033168 Off ch=3 n=55 v=0
6033638 On ch=3 n=42 v=100
6033853 Off ch=3 n=42 v=0
6033854 On ch=3 n=32 v=100
6033920 On ch=3 n=29 v=100
6034068 Off ch=3 n=32 v=0
6034070 Off ch=3 n=29 v=0
6034438 On ch=3 n=11 v=100
6034878 Off ch=3 n=11 v=0
6034945 On ch=3 n=11 v=100
6034966 Off ch=3 n=11 v=0
6035686 On ch=3 n=26 v=100
6035847 Off ch=3 n=26 v=0
6036322 On ch=3 n=3 v=100
6036628 Off ch=3 n=3 v=0
6037497 On ch=3 n=3 v=100
6037544 Off ch=3 n=3 v=0
6037595 On ch=3 n=3 v=100
6038426 Off ch=3 n=3 v=0
6038499 On ch=3 n=12 v=100
6038886 On ch=3 n=5 v=100
6038892 Off ch=3 n=12 v=0
6041739 Off ch=3 n=5 v=0
6041786 On ch=3 n=9 v=100
6041843 On ch=3 n=8 v=100
6041844 Off ch=3 n=9 v=0
6042086 Off ch=3 n=8 v=0
6044006 On ch=3 n=21 v=100
6044007 On ch=3 n=31 v=100
6044172 Off ch=3 n=21 v=0
6044337 Off ch=3 n=31 v=0
6044562 On ch=3 n=21 v=100
6044687 Off ch=3 n=21 v=0
6044688 On ch=3 n=17 v=100
6044801 Off ch=3 n=17 v=0
6044910 On ch=3 n=14 v=100
6045455 On ch=3 n=7 v=100
6045459 Off ch=3 n=14 v=0
6045481 On ch=3 n=6 v=100
6045500 Off ch=3 n=7 v=0
6046426 On ch=3 n=12 v=100
6046426 Off ch=3 n=6 v=0
6046672 Off ch=3 n=12 v=0
6046713 On ch=3 n=12 v=100
6047137 Off ch=3 n=12 v=0
6047139 On ch=3 n=7 v=100
6048566 On ch=3 n=6 v=100
6048568 Off ch=3 n=7 v=0
6048765 Off ch=3 n=6 v=0
6048767 On ch=3 n=11 v=100
6048945 Off ch=3 n=11 v=0
6049395 On ch=3 n=37 v=100
6049535 Off ch=3 n=37 v=0
6049569 On ch=3 n=22 v=100
6049622 Off ch=3 n=22 v=0
6049707 On ch=3 n=16 v=100
6049865 Off ch=3 n=16 v=0
6050460 On ch=3 n=31 v=100
6050518 On ch=3 n=33 v=100
6050518 On ch=3 n=33 v=100
6050526 On ch=3 n=21 v=100
6050526 On ch=3 n=21 v=100
6050536 On ch=3 n=6 v=100
6050727 Off ch=3 n=6 v=0
6050736 Off ch=3 n=31 v=0
6050752 Off ch=3 n=21 v=0
6050752 Off ch=3 n=21 v=0
6050779 On ch=3 n=51 v=100
6050788 Off ch=3 n=33 v=0
6050788 Off ch=3 n=33 v=0
6050817 On ch=3 n=33 v=100
6050843 On ch=3 n=19 v=100
6050913 Off ch=3 n=33 v=0
6050913 Off ch=3 n=19 v=0
6050918 Off ch=3 n=51 v=0
6052610 On ch=3 n=6 v=100
6052760 On ch=3 n=3 v=100
6052771 Off ch=3 n=6 v=0
6053693 Off ch=3 n=3 v=0
6053724 On ch=3 n=3 v=100
6054295 Off ch=3 n=3 v=0
6054297 On ch=3 n=4 v=100
6054419 Off ch=3 n=4 v=0
6054421 On ch=3 n=2 v=100
6054553 Off ch=3 n=2 v=0
6054778 On ch=3 n=42 v=100
6054876 Off ch=3 n=42 v=0
6056070 On ch=3 n=37 v=100
6056177 Off ch=3 n=37 v=0
6057262 On ch=3 n=37 v=100
6057369 Off ch=3 n=37 v=0
6057492 On ch=3 n=35 v=100
6057534 On ch=3 n=26 v=100
6057545 On ch=3 n=45 v=100
6057636 Off ch=3 n=35 v=0
6057643 Off ch=3 n=26 v=0
6057644 On ch=3 n=36 v=100
6057754 Off ch=3 n=45 v=0
6057787 Off ch=3 n=36 v=0
6058912 On ch=3 n=30 v=100
6059052 Off ch=3 n=30 v=0
6059061 On ch=3 n=12 v=100
6059708 Off ch=3 n=12 v=0
6060156 On ch=3 n=25 v=100
6060346 On ch=3 n=30 v=100
6060348 On ch=3 n=21 v=100
6060709 Off ch=3 n=25 v=0
6060857 Off ch=3 n=21 v=0
6060941 Off ch=3 n=30 v=0
6064560 On ch=3 n=15 v=100
6064608 Off ch=3 n=15 v=0
6065600 On ch=3 n=21 v=100
6065723 Off ch=3 n=21 v=0
6066855 On ch=3 n=21 v=100
6067207 Off ch=3 n=21 v=0
6069434 On ch=3 n=29 v=100
6069446 On ch=3 n=2 v=100
6069513 Off ch=3 n=29 v=0
6071687 Off ch=3 n=2 v=0
6071700 On ch=3 n=1 v=100
6071784 Off ch=3 n=1 v=0
6072884 On ch=3 n=2 v=100
6075232 On ch=3 n=35 v=100
6075331 Off ch=3 n=2 v=0
6075358 Off ch=3 n=35 v=0
6081483 On ch=3 n=10 v=100
6082078 Off ch=3 n=10 v=0
6082257 On ch=3 n=23 v=100
6085090 Off ch=3 n=23 v=0
6085216 On ch=3 n=23 v=100
6085598 Off ch=3 n=23 v=0
6113451 On ch=3 n=0 v=100
6113657 On ch=3 n=1 v=100
6113668 Off ch=3 n=0 v=0
6114327 On ch=3 n=2 v=100
6114329 Off ch=3 n=1 v=0
6115335 On ch=3 n=1 v=100
6115398 Off ch=3 n=2 v=0
6115959 Off ch=3 n=1 v=0
6115961 On ch=3 n=0 v=100
6117308 On ch=3 n=5 v=100
6117308 Off ch=3 n=0 v=0
6118197 Off ch=3 n=5 v=0
6118253 On ch=3 n=5 v=100
6119777 Off ch=3 n=5 v=0
6119779 On ch=3 n=0 v=100
6119833 Off ch=3 n=0 v=0
6122816 On ch=3 n=1 v=100
6123227 On ch=3 n=2 v=100
6123227 Off ch=3 n=1 v=0
6124346 Off ch=3 n=2 v=0
6124497 On ch=3 n=0 v=100
6124915 Off ch=3 n=0 v=0
6124922 On ch=3 n=2 v=100
6125446 Off ch=3 n=2 v=0
6125478 On ch=3 n=2 v=100
6126594 Off ch=3 n=2 v=0
6126647 On ch=3 n=11 v=100
6127346 On ch=3 n=29 v=100
6127357 Off ch=3 n=11 v=0
6127358 On ch=3 n=17 v=100
6127435 Off ch=3 n=17 v=0
6127436 Off ch=3 n=29 v=0
6127463 On ch=3 n=8 v=100
6127596 Off ch=3 n=8 v=0
6127847 On ch=3 n=11 v=100
6128475 On ch=3 n=4 v=100
6128497 Off ch=3 n=11 v=0
6128734 Off ch=3 n=4 v=0
6128742 On ch=3 n=11 v=100
6128985 Off ch=3 n=11 v=0
6129432 On ch=3 n=1 v=100
6129478 Off ch=3 n=1 v=0
6129505 On ch=3 n=1 v=100
6130152 Off ch=3 n=1 v=0
6130158 On ch=3 n=16 v=100
6130158 On ch=3 n=9 v=100
6130158 On ch=3 n=23 v=100
6130419 On ch=3 n=5 v=100
6130422 Off ch=3 n=9 v=0
6130490 Off ch=3 n=16 v=0
6130605 Off ch=3 n=23 v=0
6131085 Off ch=3 n=5 v=0
6131117 On ch=3 n=5 v=100
6131287 Off ch=3 n=5 v=0
6132535 On ch=3 n=18 v=100
6132682 Off ch=3 n=18 v=0
6132714 On ch=3 n=5 v=100
6133398 Off ch=3 n=5 v=0
6133733 On ch=3 n=6 v=100
6134502 Off ch=3 n=6 v=0
6134503 On ch=3 n=7 v=100
6134726 On ch=3 n=3 v=100
6134741 Off ch=3 n=7 v=0
6134937 Off ch=3 n=3 v=0
6134965 On ch=3 n=3 v=100
6135530 Off ch=3 n=3 v=0
6135600 On ch=3 n=3 v=100
6135693 On ch=3 n=37 v=100
6135842 Off ch=3 n=3 v=0
6135869 Off ch=3 n=37 v=0
6136049 On ch=3 n=18 v=100
6136055 On ch=3 n=10 v=100
6136174 Off ch=3 n=10 v=0
6136188 Off ch=3 n=18 v=0
6137067 On ch=3 n=28 v=100
6137133 Off ch=3 n=28 v=0
6137578 On ch=3 n=14 v=100
6137676 Off ch=3 n=14 v=0
6137680 On ch=3 n=13 v=100
6138275 Off ch=3 n=13 v=0
6138276 On ch=3 n=7 v=100
6138454 Off ch=3 n=7 v=0
6138455 On ch=3 n=3 v=100
6140380 Off ch=3 n=3 v=0
6140383 On ch=3 n=5 v=100
6140504 On ch=3 n=6 v=100
6140504 Off ch=3 n=5 v=0
6141193 On ch=3 n=8 v=100
6141213 On ch=3 n=2 v=100
6141218 Off ch=3 n=6 v=0
6141362 Off ch=3 n=8 v=0
6141362 Off ch=3 n=2 v=0
6143013 On ch=3 n=7 v=100
6144021 Off ch=3 n=7 v=0
6144023 On ch=3 n=6 v=100
6144484 Off ch=3 n=6 v=0
6144525 On ch=3 n=9 v=100
6144852 Off ch=3 n=9 v=0
6147628 On ch=3 n=42 v=100
6147765 On ch=3 n=33 v=100
6147789 On ch=3 n=25 v=100
6147909 Off ch=3 n=33 v=0
6147926 Off ch=3 n=42 v=0
6147928 Off ch=3 n=25 v=0
6147937 On ch=3 n=16 v=100
6148284 Off ch=3 n=16 v=0
6149169 On ch=3 n=10 v=100
6149630 On ch=3 n=5 v=100
6149630 Off ch=3 n=10 v=0
6150726 Off ch=3 n=5 v=0
6150737 On ch=3 n=3 v=100
6151003 On ch=3 n=14 v=100
6151015 Off ch=3 n=3 v=0
6151171 Off ch=3 n=14 v=0
6151264 On ch=3 n=18 v=100
6151264 On ch=3 n=18 v=100
6151275 On ch=3 n=11 v=100
6151673 Off ch=3 n=11 v=0
6151698 On ch=3 n=15 v=100
6151725 Off ch=3 n=18 v=0
6151725 Off ch=3 n=18 v=0
6152214 Off ch=3 n=15 v=0
6152215 On ch=3 n=2 v=100
6152862 Off ch=3 n=2 v=0
6152864 On ch=3 n=3 v=100
6153024 Off ch=3 n=3 v=0
6153091 On ch=3 n=5 v=100
6153239 Off ch=3 n=5 v=0
6153444 On ch=3 n=6 v=100
6154547 On ch=3 n=25 v=100
6154793 Off ch=3 n=6 v=0
6154829 Off ch=3 n=25 v=0
6154846 On ch=3 n=8 v=100
6154948 Off ch=3 n=8 v=0
6158204 On ch=3 n=7 v=100
6158267 On ch=3 n=8 v=100
6158268 Off ch=3 n=7 v=0
6158444 On ch=3 n=8 v=100
6158456 On ch=3 n=13 v=100
6158456 On ch=3 n=15 v=100
6158460 Off ch=3 n=8 v=0
6158498 On ch=3 n=15 v=100
6158519 Off ch=3 n=8 v=0
6158525 Off ch=3 n=15 v=0
6158540 Off ch=3 n=13 v=0
6158704 Off ch=3 n=15 v=0
6158706 On ch=3 n=10 v=100
6158835 On ch=3 n=42 v=100
6158835 On ch=3 n=42 v=100
6159103 Off ch=3 n=10 v=0
6159121 On ch=3 n=16 v=100
6159212 On ch=3 n=13 v=100
6159622 Off ch=3 n=13 v=0
6159623 Off ch=3 n=16 v=0
6159712 Off ch=3 n=42 v=0
6159712 Off ch=3 n=42 v=0
6160266 On ch=3 n=15 v=100
6160647 Off ch=3 n=15 v=0
6166348 On ch=3 n=22 v=100
6166405 Off ch=3 n=22 v=0
6166546 On ch=3 n=26 v=100
6166638 Off ch=3 n=26 v=0
6166687 On ch=3 n=15 v=100
6167105 On ch=3 n=26 v=100
6167105 On ch=3 n=26 v=100
6167210 Off ch=3 n=15 v=0
6167408 On ch=3 n=9 v=100
6167410 On ch=3 n=19 v=100
6167719 Off ch=3 n=9 v=0
6167732 Off ch=3 n=26 v=0
6167732 Off ch=3 n=26 v=0
6167848 Off ch=3 n=19 v=0
6167923 On ch=3 n=16 v=100
6167933 On ch=3 n=7 v=100
6168198 Off ch=3 n=7 v=0
6168221 Off ch=3 n=16 v=0
6168425 On ch=3 n=4 v=100
6168704 Off ch=3 n=4 v=0
6168751 On ch=3 n=21 v=100
6168799 Off ch=3 n=21 v=0
6169266 On ch=3 n=17 v=100
6169266 On ch=3 n=39 v=100
6169266 On ch=3 n=39 v=100
6169448 Off ch=3 n=17 v=0
6169590 On ch=3 n=53 v=100
6169590 On ch=3 n=39 v=100
6169590 On ch=3 n=53 v=100
6169698 Off ch=3 n=39 v=0
6169698 Off ch=3 n=39 v=0
6169764 On ch=3 n=17 v=100
6169804 Off ch=3 n=39 v=0
6169834 Off ch=3 n=53 v=0
6169834 Off ch=3 n=53 v=0
6169894 On ch=3 n=47 v=100
6169983 Off ch=3 n=17 v=0
6169994 Off ch=3 n=47 v=0
6170013 On ch=3 n=15 v=100
6170066 On ch=3 n=20 v=100
6170069 Off ch=3 n=15 v=0
6170182 On ch=3 n=23 v=100
6170228 On ch=3 n=22 v=100
6170477 On ch=3 n=12 v=100
6170481 Off ch=3 n=20 v=0
6170536 Off ch=3 n=23 v=0
6170558 Off ch=3 n=22 v=0
6170658 On ch=3 n=9 v=100
6170746 Off ch=3 n=12 v=0
6171102 Off ch=3 n=9 v=0
6171729 On ch=3 n=25 v=100
6171807 Off ch=3 n=25 v=0
6172448 On ch=3 n=11 v=100
6172494 Off ch=3 n=11 v=0
6174046 On ch=3 n=20 v=100
6174121 Off ch=3 n=20 v=0
6174138 On ch=3 n=10 v=100
6174621 Off ch=3 n=10 v=0
6174676 On ch=3 n=10 v=100
6174826 Off ch=3 n=10 v=0
6174887 On ch=3 n=32 v=100
6175015 Off ch=3 n=32 v=0
6175113 On ch=3 n=22 v=100
6175220 Off ch=3 n=22 v=0
6175223 On ch=3 n=12 v=100
6175575 On ch=3 n=10 v=100
6175577 Off ch=3 n=12 v=0
6176144 Off ch=3 n=10 v=0
6177354 On ch=3 n=1 v=100
6179202 Off ch=3 n=1 v=0
6179700 On ch=3 n=37 v=100
6179738 On ch=3 n=29 v=100
6179749 On ch=3 n=13 v=100
6179799 Off ch=3 n=37 v=0
6179838 Off ch=3 n=29 v=0
6179866 Off ch=3 n=13 v=0
6180728 On ch=3 n=17 v=100
6180728 On ch=3 n=14 v=100
6181803 Off ch=3 n=14 v=0
6181970 Off ch=3 n=17 v=0
6182043 On ch=3 n=33 v=100
6182155 Off ch=3 n=33 v=0
6182187 On ch=3 n=18 v=100
6182347 Off ch=3 n=18 v=0
6182965 On ch=3 n=16 v=100
6183073 On ch=3 n=7 v=100
6183089 Off ch=3 n=16 v=0
6184056 Off ch=3 n=7 v=0
6184799 On ch=3 n=18 v=100
6184835 On ch=3 n=17 v=100
6184841 Off ch=3 n=18 v=0
6185086 On ch=3 n=10 v=100
6185086 Off ch=3 n=17 v=0
6185285 Off ch=3 n=10 v=0
6185296 On ch=3 n=12 v=100
6185374 Off ch=3 n=12 v=0
6188363 On ch=3 n=40 v=100
6188392 On ch=3 n=38 v=100
6188424 On ch=3 n=24 v=100
6188452 On ch=3 n=32 v=100
6188462 On ch=3 n=10 v=100
6188517 Off ch=3 n=40 v=0
6188642 Off ch=3 n=38 v=0
6188656 Off ch=3 n=10 v=0
6188658 Off ch=3 n=24 v=0
6188691 Off ch=3 n=32 v=0
6188791 On ch=3 n=4 v=100
6189074 Off ch=3 n=4 v=0
6189136 On ch=3 n=4 v=100
6189919 Off ch=3 n=4 v=0
6190339 On ch=3 n=31 v=100
6190379 On ch=3 n=7 v=100
6190519 Off ch=3 n=31 v=0
6190850 On ch=3 n=7 v=100
6190850 Off ch=3 n=7 v=0
6191601 Off ch=3 n=7 v=0
6191889 On ch=3 n=41 v=100
6191914 Off ch=3 n=41 v=0
6191942 On ch=3 n=41 v=100
6191947 On ch=3 n=39 v=100
6192064 Off ch=3 n=41 v=0
6192110 Off ch=3 n=39 v=0
6192146 On ch=3 n=39 v=100
6192177 Off ch=3 n=39 v=0
6206807 On ch=3 n=4 v=100
6208454 Off ch=3 n=4 v=0
6208684 On ch=3 n=5 v=100
6210295 Off ch=3 n=5 v=0
6211952 On ch=3 n=17 v=100
6212081 Off ch=3 n=17 v=0
6212282 On ch=3 n=13 v=100
6212418 Off ch=3 n=13 v=0
6212560 On ch=3 n=16 v=100
6212734 Off ch=3 n=16 v=0
6213718 On ch=3 n=9 v=100
6213802 Off ch=3 n=9 v=0
6213869 On ch=3 n=4 v=100
6214181 On ch=3 n=13 v=100
6214183 Off ch=3 n=4 v=0
6214430 On ch=3 n=11 v=100
6214431 Off ch=3 n=13 v=0
6214814 On ch=3 n=11 v=100
6214817 Off ch=3 n=11 v=0
6214901 Off ch=3 n=11 v=0
6215095 On ch=3 n=10 v=100
6215372 Off ch=3 n=10 v=0
6217271 On ch=3 n=19 v=100
6217423 Off ch=3 n=19 v=0
6217764 On ch=3 n=45 v=100
6217764 On ch=3 n=45 v=100
6217840 On ch=3 n=25 v=100
6217854 On ch=3 n=6 v=100
6217921 Off ch=3 n=25 v=0
6217942 Off ch=3 n=45 v=0
6217942 Off ch=3 n=45 v=0
6218949 On ch=3 n=33 v=100
6218981 Off ch=3 n=6 v=0
6218985 Off ch=3 n=33 v=0
6219650 On ch=3 n=40 v=100
6219679 Off ch=3 n=40 v=0
6219709 On ch=3 n=26 v=100
6219709 On ch=3 n=40 v=100
6220070 Off ch=3 n=26 v=0
6220263 Off ch=3 n=40 v=0
6220333 On ch=3 n=25 v=100
6220335 On ch=3 n=35 v=100
6220397 On ch=3 n=30 v=100
6220662 Off ch=3 n=25 v=0
6220761 Off ch=3 n=35 v=0
6220761 Off ch=3 n=30 v=0
6223106 On ch=3 n=19 v=100
6223312 Off ch=3 n=19 v=0
6223537 On ch=3 n=3 v=100
6223632 Off ch=3 n=3 v=0
6223633 On ch=3 n=1 v=100
6223689 Off ch=3 n=1 v=0
6223773 On ch=3 n=4 v=100
6226375 Off ch=3 n=4 v=0
6226463 On ch=3 n=11 v=100
6226789 Off ch=3 n=11 v=0
6227266 On ch=3 n=32 v=100
6227294 On ch=3 n=20 v=100
6227376 Off ch=3 n=32 v=0
6227383 Off ch=3 n=20 v=0
6228165 On ch=3 n=3 v=100
6228809 On ch=3 n=5 v=100
6228809 Off ch=3 n=3 v=0
6229038 Off ch=3 n=5 v=0
6229762 On ch=3 n=27 v=100
6229909 Off ch=3 n=27 v=0
6232328 On ch=3 n=17 v=100
6232464 Off ch=3 n=17 v=0
6232483 On ch=3 n=10 v=100
6232695 Off ch=3 n=10 v=0
6232719 On ch=3 n=38 v=100
6232821 On ch=3 n=10 v=100
6232948 Off ch=3 n=10 v=0
6232952 Off ch=3 n=38 v=0
6234024 On ch=3 n=18 v=100
6234242 Off ch=3 n=18 v=0
6235352 On ch=3 n=2 v=100
6236288 Off ch=3 n=2 v=0
6237635 On ch=3 n=43 v=100
6237751 Off ch=3 n=43 v=0
6238322 On ch=3 n=21 v=100
6238523 On ch=3 n=13 v=100
6238625 On ch=3 n=28 v=100
6238857 Off ch=3 n=21 v=0
6238913 Off ch=3 n=13 v=0
6239011 On ch=3 n=39 v=100
6239021 Off ch=3 n=28 v=0
6239027 On ch=3 n=28 v=100
6239154 Off ch=3 n=39 v=0
6239154 Off ch=3 n=28 v=0
6239177 On ch=3 n=42 v=100
6239205 On ch=3 n=51 v=100
6239213 On ch=3 n=5 v=100
6239403 Off ch=3 n=5 v=0
6239435 On ch=3 n=8 v=100
6239468 Off ch=3 n=51 v=0
6239477 Off ch=3 n=42 v=0
6240067 On ch=3 n=35 v=100
6240067 Off ch=3 n=8 v=0
6240434 Off ch=3 n=35 v=0
6240544 On ch=3 n=55 v=100
6240816 Off ch=3 n=55 v=0
6240862 On ch=3 n=6 v=100
6241691 On ch=3 n=2 v=100
6241692 Off ch=3 n=6 v=0
6241936 On ch=3 n=36 v=100
6241974 Off ch=3 n=2 v=0
6241981 Off ch=3 n=36 v=0
6243060 On ch=3 n=16 v=100
6243499 Off ch=3 n=16 v=0
6250052 On ch=3 n=25 v=100
6250052 On ch=3 n=25 v=100
6250092 On ch=3 n=11 v=100
6250337 Off ch=3 n=11 v=0
6250354 Off ch=3 n=25 v=0
6250354 Off ch=3 n=25 v=0
6256212 On ch=3 n=31 v=100
6258616 Off ch=3 n=31 v=0
6258710 On ch=3 n=4 v=100
6258767 On ch=3 n=32 v=100
6258855 On ch=3 n=3 v=100
6258856 Off ch=3 n=4 v=0
6258872 Off ch=3 n=32 v=0
6261227 Off ch=3 n=3 v=0
6261243 On ch=3 n=24 v=100
6261243 On ch=3 n=29 v=100
6261343 On ch=3 n=32 v=100
6261343 On ch=3 n=27 v=100
6261365 Off ch=3 n=24 v=0
6261384 Off ch=3 n=29 v=0
6261450 Off ch=3 n=27 v=0
6261466 Off ch=3 n=32 v=0
6262477 On ch=3 n=31 v=100
6262970 Off ch=3 n=31 v=0
6264171 On ch=3 n=25 v=100
6264476 Off ch=3 n=25 v=0
6264826 On ch=3 n=8 v=100
6265798 On ch=3 n=2 v=100
6265806 Off ch=3 n=8 v=0
6267111 On ch=3 n=3 v=100
6267112 Off ch=3 n=2 v=0
6267416 Off ch=3 n=3 v=0
6267418 On ch=3 n=7 v=100
6267420 On ch=3 n=14 v=100
6267667 Off ch=3 n=7 v=0
6267705 Off ch=3 n=14 v=0
6267891 On ch=3 n=23 v=100
6268367 Off ch=3 n=23 v=0
6270253 On ch=3 n=22 v=100
6270305 On ch=3 n=29 v=100
6270305 On ch=3 n=29 v=100
6270355 Off ch=3 n=22 v=0
6270395 On ch=3 n=18 v=100
6270670 Off ch=3 n=18 v=0
6270684 Off ch=3 n=29 v=0
6270684 Off ch=3 n=29 v=0
6271160 On ch=3 n=18 v=100
6271181 Off ch=3 n=18 v=0
6271236 On ch=3 n=18 v=100
6271338 Off ch=3 n=18 v=0
6272811 On ch=3 n=3 v=100
6274007 Off ch=3 n=3 v=0
6274305 On ch=3 n=9 v=100
6274944 On ch=3 n=9 v=100
6274947 Off ch=3 n=9 v=0
6275150 Off ch=3 n=9 v=0
6275159 On ch=3 n=25 v=100
6275290 Off ch=3 n=25 v=0
6275326 On ch=3 n=25 v=100
6275491 On ch=3 n=27 v=100
6276041 Off ch=3 n=25 v=0
6276106 On ch=3 n=26 v=100
6276221 Off ch=3 n=27 v=0
6276241 Off ch=3 n=26 v=0
6276415 On ch=3 n=7 v=100
6276535 On ch=3 n=34 v=100
6276703 Off ch=3 n=7 v=0
6276725 Off ch=3 n=34 v=0
6277594 On ch=3 n=10 v=100
6277971 Off ch=3 n=10 v=0
6277973 On ch=3 n=7 v=100
6279250 Off ch=3 n=7 v=0
6279264 On ch=3 n=13 v=100
6279780 On ch=3 n=37 v=100
6279884 Off ch=3 n=13 v=0
6279887 On ch=3 n=9 v=100
6279946 Off ch=3 n=37 v=0
6280039 On ch=3 n=24 v=100
6280074 On ch=3 n=12 v=100
6280080 Off ch=3 n=9 v=0
6280279 Off ch=3 n=24 v=0
6280426 Off ch=3 n=12 v=0
6280951 On ch=3 n=9 v=100
6281167 Off ch=3 n=9 v=0
6281168 On ch=3 n=9 v=100
6281315 Off ch=3 n=9 v=0
6281316 On ch=3 n=11 v=100
6281507 Off ch=3 n=11 v=0
6281517 On ch=3 n=8 v=100
6281743 On ch=3 n=8 v=100
6281745 Off ch=3 n=8 v=0
6281943 On ch=3 n=2 v=100
6281944 Off ch=3 n=8 v=0
6283755 Off ch=3 n=2 v=0
6283788 On ch=3 n=8 v=100
6283947 Off ch=3 n=8 v=0
6283948 On ch=3 n=8 v=100
6283950 On ch=3 n=15 v=100
6284127 Off ch=3 n=8 v=0
6284152 Off ch=3 n=15 v=0
6284821 On ch=3 n=35 v=100
6284821 On ch=3 n=25 v=100
6284920 On ch=3 n=25 v=100
6285125 Off ch=3 n=25 v=0
6285247 Off ch=3 n=35 v=0
6285249 Off ch=3 n=25 v=0
6285329 On ch=3 n=34 v=100
6285595 Off ch=3 n=34 v=0
6286159 On ch=3 n=35 v=100
6286296 On ch=3 n=30 v=100
6286448 Off ch=3 n=35 v=0
6286464 Off ch=3 n=30 v=0
6286548 On ch=3 n=30 v=100
6286908 Off ch=3 n=30 v=0
6286928 On ch=3 n=11 v=100
6287246 Off ch=3 n=11 v=0
6287673 On ch=3 n=6 v=100
6289884 Off ch=3 n=6 v=0
6290838 On ch=3 n=5 v=100
6290838 On ch=3 n=20 v=100
6291116 On ch=3 n=19 v=100
6291120 Off ch=3 n=5 v=0
6291154 Off ch=3 n=20 v=0
6291161 Off ch=3 n=19 v=0
6292149 On ch=3 n=49 v=100
6293576 Off ch=3 n=49 v=0
6294223 On ch=3 n=8 v=100
6294568 On ch=3 n=25 v=100
6294638 Off ch=3 n=8 v=0
6294682 Off ch=3 n=25 v=0
6294701 On ch=3 n=35 v=100
6294770 On ch=3 n=27 v=100
6294882 Off ch=3 n=35 v=0
6294904 Off ch=3 n=27 v=0
6295918 On ch=3 n=8 v=100
6296508 Off ch=3 n=8 v=0
6296511 On ch=3 n=6 v=100
6297246 Off ch=3 n=6 v=0
6301204 On ch=3 n=16 v=100
6301219 On ch=3 n=5 v=100
6301283 Off ch=3 n=16 v=0
6301353 Off ch=3 n=5 v=0
6301403 On ch=3 n=10 v=100
6302256 Off ch=3 n=10 v=0
6304015 On ch=3 n=34 v=100
6304015 On ch=3 n=34 v=100
6304128 On ch=3 n=35 v=100
6304135 On ch=3 n=39 v=100
6304135 On ch=3 n=39 v=100
6304327 Off ch=3 n=34 v=0
6304327 Off ch=3 n=34 v=0
6304333 Off ch=3 n=35 v=0
6304388 Off ch=3 n=39 v=0
6304388 Off ch=3 n=39 v=0
6318047 On ch=3 n=45 v=100
6318118 On ch=3 n=12 v=100
6318151 Off ch=3 n=45 v=0
6318190 Off ch=3 n=12 v=0
6319192 On ch=3 n=6 v=100
6320003 On ch=3 n=4 v=100
6320003 Off ch=3 n=6 v=0
6320213 On ch=3 n=36 v=100
6320259 Off ch=3 n=4 v=0
6320267 Off ch=3 n=36 v=0
6320380 On ch=3 n=46 v=100
6320522 Off ch=3 n=46 v=0
6322536 On ch=3 n=13 v=100
6322544 On ch=3 n=5 v=100
6322604 Off ch=3 n=13 v=0
6322605 Off ch=3 n=5 v=0
6331010 On ch=3 n=51 v=100
6331024 On ch=3 n=51 v=100
6331098 Off ch=3 n=51 v=0
6331098 Off ch=3 n=51 v=0
6337701 On ch=3 n=13 v=100
6337855 Off ch=3 n=13 v=0
6346289 On ch=3 n=4 v=100
6346676 Off ch=3 n=4 v=0
6347020 On ch=3 n=10 v=100
6347126 Off ch=3 n=10 v=0
6349283 On ch=3 n=15 v=100
6349578 Off ch=3 n=15 v=0
6350202 On ch=3 n=26 v=100
6350376 Off ch=3 n=26 v=0
6350661 On ch=3 n=17 v=100
6350776 Off ch=3 n=17 v=0
6350782 On ch=3 n=18 v=100
6350836 Off ch=3 n=18 v=0
6352442 On ch=3 n=11 v=100
6353134 On ch=3 n=14 v=100
6353139 Off ch=3 n=11 v=0
6353243 Off ch=3 n=14 v=0
6353256 On ch=3 n=6 v=100
6353454 Off ch=3 n=6 v=0
6353472 On ch=3 n=9 v=100
6353661 Off ch=3 n=9 v=0
6353671 On ch=3 n=12 v=100
6353728 On ch=3 n=16 v=100
6353773 Off ch=3 n=12 v=0
6353936 On ch=3 n=13 v=100
6353936 On ch=3 n=32 v=100
6353936 Off ch=3 n=16 v=0
6354140 Off ch=3 n=13 v=0
6354142 On ch=3 n=18 v=100
6354189 Off ch=3 n=32 v=0
6354242 Off ch=3 n=18 v=0
6354355 On ch=3 n=27 v=100
6354473 Off ch=3 n=27 v=0
6354535 On ch=3 n=15 v=100
6354869 On ch=3 n=4 v=100
6354898 Off ch=3 n=15 v=0
6356500 On ch=3 n=14 v=100
6356506 Off ch=3 n=4 v=0
6356643 On ch=3 n=21 v=100
6356645 Off ch=3 n=14 v=0
6356646 On ch=3 n=15 v=100
6356688 Off ch=3 n=15 v=0
6356694 On ch=3 n=18 v=100
6356705 Off ch=3 n=21 v=0
6356778 Off ch=3 n=18 v=0
6357762 On ch=3 n=4 v=100
6358299 Off ch=3 n=4 v=0
6358675 On ch=3 n=48 v=100
6358728 On ch=3 n=31 v=100
6358729 On ch=3 n=37 v=100
6358830 Off ch=3 n=48 v=0
6358894 Off ch=3 n=31 v=0
6358912 On ch=3 n=17 v=100
6358928 Off ch=3 n=37 v=0
6359071 Off ch=3 n=17 v=0
6359100 On ch=3 n=20 v=100
6359138 Off ch=3 n=20 v=0
6359145 On ch=3 n=22 v=100
6359234 On ch=3 n=23 v=100
6359235 On ch=3 n=14 v=100
6359235 On ch=3 n=17 v=100
6359554 Off ch=3 n=22 v=0
6359556 On ch=3 n=9 v=100
6359558 Off ch=3 n=14 v=0
6359622 Off ch=3 n=17 v=0
6359697 Off ch=3 n=23 v=0
6359794 On ch=3 n=10 v=100
6359841 Off ch=3 n=9 v=0
6360186 Off ch=3 n=10 v=0
6360287 On ch=3 n=4 v=100
6362180 Off ch=3 n=4 v=0
6362223 On ch=3 n=4 v=100
6363464 Off ch=3 n=4 v=0
6364058 On ch=3 n=22 v=100
6364149 Off ch=3 n=22 v=0
6367026 On ch=3 n=18 v=100
6367245 On ch=3 n=58 v=100
6367245 On ch=3 n=58 v=100
6367258 Off ch=3 n=18 v=0
6367398 On ch=3 n=25 v=100
6367481 On ch=3 n=23 v=100
6367503 Off ch=3 n=25 v=0
6367504 On ch=3 n=11 v=100
6367576 Off ch=3 n=23 v=0
6367690 Off ch=3 n=58 v=0
6367690 Off ch=3 n=58 v=0
6367813 Off ch=3 n=11 v=0
6367845 On ch=3 n=11 v=100
6367899 On ch=3 n=14 v=100
6368156 On ch=3 n=17 v=100
6368168 Off ch=3 n=11 v=0
6368170 On ch=3 n=11 v=100
6368222 Off ch=3 n=14 v=0
6368329 Off ch=3 n=11 v=0
6368341 On ch=3 n=7 v=100
6368344 Off ch=3 n=17 v=0
6368584 Off ch=3 n=7 v=0
6368675 On ch=3 n=31 v=100
6368896 Off ch=3 n=31 v=0
6369091 On ch=3 n=24 v=100
6369232 Off ch=3 n=24 v=0
6369314 On ch=3 n=44 v=100
6369334 On ch=3 n=23 v=100
6369334 On ch=3 n=23 v=100
6369337 On ch=3 n=39 v=100
6369337 On ch=3 n=39 v=100
6369434 Off ch=3 n=23 v=0
6369442 On ch=3 n=45 v=100
6369493 Off ch=3 n=44 v=0
6369538 Off ch=3 n=23 v=0
6369607 Off ch=3 n=45 v=0
6369631 Off ch=3 n=39 v=0
6369631 Off ch=3 n=39 v=0
6370586 On ch=3 n=29 v=100
6370655 Off ch=3 n=29 v=0
6379583 On ch=3 n=4 v=100
6379931 Off ch=3 n=4 v=0
6379933 On ch=3 n=2 v=100
6382411 Off ch=3 n=2 v=0
6406456 On ch=3 n=50 v=100
6406748 Off ch=3 n=50 v=0
6408930 On ch=3 n=1 v=100
6409776 Off ch=3 n=1 v=0
6409814 On ch=3 n=4 v=100
6409864 On ch=3 n=1 v=100
6409958 Off ch=3 n=4 v=0
6410029 On ch=3 n=2 v=100
6412026 Off ch=3 n=1 v=0
6412301 Off ch=3 n=2 v=0
6412331 On ch=3 n=2 v=100
6414133 Off ch=3 n=2 v=0
6414713 On ch=3 n=1 v=100
6416028 Off ch=3 n=1 v=0
6425785 On ch=3 n=14 v=100
6425794 On ch=3 n=24 v=100
6425794 On ch=3 n=24 v=100
6425809 On ch=3 n=10 v=100
6425828 On ch=3 n=14 v=100
6425958 Off ch=3 n=14 v=0
6425960 Off ch=3 n=10 v=0
6425979 Off ch=3 n=24 v=0
6425979 Off ch=3 n=24 v=0
6426033 Off ch=3 n=14 v=0
6426100 On ch=3 n=8 v=100
6426340 Off ch=3 n=8 v=0
6426653 On ch=3 n=14 v=100
6426815 Off ch=3 n=14 v=0
6427794 On ch=3 n=7 v=100
6428117 Off ch=3 n=7 v=0
6428245 On ch=3 n=19 v=100
6428274 On ch=3 n=26 v=100
6428318 Off ch=3 n=19 v=0
6428330 Off ch=3 n=26 v=0
6429488 On ch=3 n=44 v=100
6429548 On ch=3 n=32 v=100
6429653 On ch=3 n=53 v=100
6429655 On ch=3 n=19 v=100
6429773 Off ch=3 n=19 v=0
6429791 Off ch=3 n=44 v=0
6429792 On ch=3 n=24 v=100
6429804 Off ch=3 n=32 v=0
6429864 Off ch=3 n=53 v=0
6429943 Off ch=3 n=24 v=0
6430205 On ch=3 n=8 v=100
6430303 On ch=3 n=8 v=100
6430318 Off ch=3 n=8 v=0
6430597 Off ch=3 n=8 v=0
6430599 On ch=3 n=8 v=100
6430700 On ch=3 n=9 v=100
6430715 Off ch=3 n=8 v=0
6431570 On ch=3 n=18 v=100
6431582 Off ch=3 n=9 v=0
6431639 On ch=3 n=16 v=100
6431639 On ch=3 n=16 v=100
6431689 Off ch=3 n=18 v=0
6431691 On ch=3 n=10 v=100
6432127 Off ch=3 n=10 v=0
6432130 On ch=3 n=20 v=100
6432142 Off ch=3 n=16 v=0
6432142 Off ch=3 n=16 v=0
6432234 Off ch=3 n=20 v=0
6432384 On ch=3 n=28 v=100
6432465 Off ch=3 n=28 v=0
6432524 On ch=3 n=9 v=100
6433221 Off ch=3 n=9 v=0
6433227 On ch=3 n=16 v=100
6433325 Off ch=3 n=16 v=0
6433328 On ch=3 n=7 v=100
6433507 On ch=3 n=7 v=100
6433509 Off ch=3 n=7 v=0
6433850 Off ch=3 n=7 v=0
6433852 On ch=3 n=46 v=100
6433997 Off ch=3 n=46 v=0
6434190 On ch=3 n=13 v=100
6434659 On ch=3 n=5 v=100
6434670 Off ch=3 n=13 v=0
6434731 On ch=3 n=11 v=100
6434879 Off ch=3 n=5 v=0
6434881 On ch=3 n=5 v=100
6435769 Off ch=3 n=11 v=0
6435925 Off ch=3 n=5 v=0
6435926 On ch=3 n=9 v=100
6435947 On ch=3 n=33 v=100
6436021 Off ch=3 n=9 v=0
6436044 Off ch=3 n=33 v=0
6436205 On ch=3 n=9 v=100
6436304 Off ch=3 n=9 v=0
6436633 On ch=3 n=25 v=100
6436676 Off ch=3 n=25 v=0
6437358 On ch=3 n=16 v=100
6437452 On ch=3 n=20 v=100
6437459 Off ch=3 n=16 v=0
6437514 Off ch=3 n=20 v=0
6440708 On ch=3 n=55 v=100
6440715 On ch=3 n=15 v=100
6440918 Off ch=3 n=15 v=0
6440937 Off ch=3 n=55 v=0
6442539 On ch=3 n=20 v=100
6442583 Off ch=3 n=20 v=0
6443312 On ch=3 n=14 v=100
6443383 On ch=3 n=26 v=100
6443395 Off ch=3 n=14 v=0
6443401 On ch=3 n=11 v=100
6443549 Off ch=3 n=26 v=0
6443609 On ch=3 n=16 v=100
6443658 Off ch=3 n=11 v=0
6443688 Off ch=3 n=16 v=0
6443833 On ch=3 n=30 v=100
6443905 On ch=3 n=26 v=100
6443933 On ch=3 n=7 v=100
6443939 Off ch=3 n=30 v=0
6443958 Off ch=3 n=26 v=0
6443958 Off ch=3 n=7 v=0
6443993 On ch=3 n=26 v=100
6443993 On ch=3 n=7 v=100
6444088 Off ch=3 n=26 v=0
6444498 On ch=3 n=13 v=100
6444555 Off ch=3 n=7 v=0
6444555 Off ch=3 n=13 v=0
6444615 On ch=3 n=13 v=100
6444801 Off ch=3 n=13 v=0
6444802 On ch=3 n=12 v=100
6445231 Off ch=3 n=12 v=0
6445442 On ch=3 n=10 v=100
6445836 On ch=3 n=5 v=100
6445838 Off ch=3 n=10 v=0
6446634 Off ch=3 n=5 v=0
6446944 On ch=3 n=12 v=100
6447181 Off ch=3 n=12 v=0
6447358 On ch=3 n=13 v=100
6447594 Off ch=3 n=13 v=0
6447596 On ch=3 n=19 v=100
6448545 Off ch=3 n=19 v=0
6448788 On ch=3 n=10 v=100
6448975 Off ch=3 n=10 v=0
6448983 On ch=3 n=9 v=100
6449724 Off ch=3 n=9 v=0
6449741 On ch=3 n=31 v=100
6449758 On ch=3 n=18 v=100
6449893 Off ch=3 n=31 v=0
6450003 On ch=3 n=21 v=100
6450004 Off ch=3 n=18 v=0
6450106 Off ch=3 n=21 v=0
6451062 On ch=3 n=9 v=100
6451387 Off ch=3 n=9 v=0
6453314 On ch=3 n=25 v=100
6453359 Off ch=3 n=25 v=0
6453375 On ch=3 n=46 v=100
6453376 On ch=3 n=23 v=100
6453443 On ch=3 n=8 v=100
6453444 Off ch=3 n=23 v=0
6453530 Off ch=3 n=46 v=0
6453592 Off ch=3 n=8 v=0
6453635 On ch=3 n=13 v=100
6453728 Off ch=3 n=13 v=0
6453782 On ch=3 n=20 v=100
6454422 On ch=3 n=5 v=100
6454930 Off ch=3 n=20 v=0
6455195 Off ch=3 n=5 v=0
6455290 On ch=3 n=5 v=100
6456173 Off ch=3 n=5 v=0
6459506 On ch=3 n=37 v=100
6459507 On ch=3 n=27 v=100
6459831 Off ch=3 n=27 v=0
6459958 Off ch=3 n=37 v=0
6464230 On ch=3 n=28 v=100
6464463 Off ch=3 n=28 v=0
6467660 On ch=3 n=18 v=100
6467735 On ch=3 n=16 v=100
6467743 Off ch=3 n=18 v=0
6467750 On ch=3 n=9 v=100
6467846 Off ch=3 n=16 v=0
6468359 Off ch=3 n=9 v=0
6468419 On ch=3 n=25 v=100
6468473 Off ch=3 n=25 v=0
6468492 On ch=3 n=19 v=100
6468581 On ch=3 n=18 v=100
6468584 On ch=3 n=30 v=100
6468590 Off ch=3 n=19 v=0
6468829 Off ch=3 n=18 v=0
6468902 Off ch=3 n=30 v=0
6469672 On ch=3 n=10 v=100
6469853 Off ch=3 n=10 v=0
6470687 On ch=3 n=16 v=100
6470707 On ch=3 n=5 v=100
6470866 Off ch=3 n=16 v=0
6471847 Off ch=3 n=5 v=0
6472027 On ch=3 n=4 v=100
6472492 Off ch=3 n=4 v=0
6472494 On ch=3 n=5 v=100
6475305 Off ch=3 n=5 v=0
6475306 On ch=3 n=5 v=100
6476489 Off ch=3 n=5 v=0
6477904 On ch=3 n=14 v=100
6478118 Off ch=3 n=14 v=0
6479796 On ch=3 n=27 v=100
6479977 Off ch=3 n=27 v=0
6481916 On ch=3 n=28 v=100
6482056 Off ch=3 n=28 v=0
6482961 On ch=3 n=17 v=100
6483175 Off ch=3 n=17 v=0
6484883 On ch=3 n=16 v=100
6484928 Off ch=3 n=16 v=0
6485540 On ch=3 n=21 v=100
6485724 Off ch=3 n=21 v=0
6485792 On ch=3 n=24 v=100
6485823 Off ch=3 n=24 v=0
6485910 On ch=3 n=3 v=100
6487330 Off ch=3 n=3 v=0
6499548 On ch=3 n=4 v=100
6499761 On ch=3 n=39 v=100
6499808 Off ch=3 n=4 v=0
6499816 Off ch=3 n=39 v=0
6499929 On ch=3 n=46 v=100
6500072 Off ch=3 n=46 v=0
6501481 On ch=3 n=5 v=100
6501709 Off ch=3 n=5 v=0
6501716 On ch=3 n=14 v=100
6502668 Off ch=3 n=14 v=0
6502670 On ch=3 n=20 v=100
6502925 Off ch=3 n=20 v=0
6503648 On ch=3 n=8 v=100
6503804 On ch=3 n=17 v=100
6503815 Off ch=3 n=8 v=0
6503906 Off ch=3 n=17 v=0
6503951 On ch=3 n=27 v=100
6504088 Off ch=3 n=27 v=0
6504471 On ch=3 n=12 v=100
6504485 On ch=3 n=8 v=100
6504584 Off ch=3 n=12 v=0
6504725 Off ch=3 n=8 v=0
6504877 On ch=3 n=24 v=100
6504950 Off ch=3 n=24 v=0
6505947 On ch=3 n=55 v=100
6505965 On ch=3 n=34 v=100
6506007 On ch=3 n=27 v=100
6506099 Off ch=3 n=55 v=0
6506099 Off ch=3 n=27 v=0
6506100 Off ch=3 n=34 v=0
6506190 On ch=3 n=21 v=100
6506342 Off ch=3 n=21 v=0
6506347 On ch=3 n=38 v=100
6506485 On ch=3 n=27 v=100
6506520 On ch=3 n=10 v=100
6506520 Off ch=3 n=38 v=0
6506521 On ch=3 n=29 v=100
6506653 Off ch=3 n=10 v=0
6506665 Off ch=3 n=27 v=0
6506718 On ch=3 n=3 v=100
6506808 Off ch=3 n=29 v=0
6507192 Off ch=3 n=3 v=0
6507617 On ch=3 n=5 v=100
6508413 On ch=3 n=51 v=100
6508413 On ch=3 n=51 v=100
6508438 On ch=3 n=5 v=100
6508438 Off ch=3 n=5 v=0
6508561 On ch=3 n=26 v=100
6508602 Off ch=3 n=5 v=0
6508614 On ch=3 n=35 v=100
6508619 On ch=3 n=15 v=100
6508729 Off ch=3 n=51 v=0
6508729 Off ch=3 n=51 v=0
6508729 Off ch=3 n=15 v=0
6508731 On ch=3 n=8 v=100
6508754 Off ch=3 n=26 v=0
6508810 Off ch=3 n=35 v=0
6509010 On ch=3 n=18 v=100
6509010 Off ch=3 n=8 v=0
6509549 On ch=3 n=14 v=100
6509579 Off ch=3 n=18 v=0
6509595 Off ch=3 n=14 v=0
6509609 On ch=3 n=46 v=100
6509749 Off ch=3 n=46 v=0
6510162 On ch=3 n=14 v=100
6510243 Off ch=3 n=14 v=0
6510244 On ch=3 n=10 v=100
6510696 On ch=3 n=27 v=100
6510835 Off ch=3 n=10 v=0
6510852 Off ch=3 n=27 v=0
6512035 On ch=3 n=18 v=100
6512156 On ch=3 n=8 v=100
6512156 Off ch=3 n=18 v=0
6512631 Off ch=3 n=8 v=0
6512806 On ch=3 n=9 v=100
6513005 Off ch=3 n=9 v=0
6513127 On ch=3 n=12 v=100
6513169 Off ch=3 n=12 v=0
6513316 On ch=3 n=8 v=100
6514056 Off ch=3 n=8 v=0
6514077 On ch=3 n=51 v=100
6514138 Off ch=3 n=51 v=0
6514194 On ch=3 n=51 v=100
6514266 Off ch=3 n=51 v=0
6514589 On ch=3 n=17 v=100
6514806 Off ch=3 n=17 v=0
6514810 On ch=3 n=34 v=100
6515149 Off ch=3 n=34 v=0
6517712 On ch=3 n=12 v=100
6517924 Off ch=3 n=12 v=0
6518267 On ch=3 n=42 v=100
6518499 Off ch=3 n=42 v=0
6518861 On ch=3 n=6 v=100
6519089 Off ch=3 n=6 v=0
6519169 On ch=3 n=6 v=100
6519615 Off ch=3 n=6 v=0
6520033 On ch=3 n=39 v=100
6520033 On ch=3 n=39 v=100
6520134 On ch=3 n=11 v=100
6520535 Off ch=3 n=11 v=0
6520803 On ch=3 n=40 v=100
6520803 On ch=3 n=40 v=100
6520868 Off ch=3 n=39 v=0
6520868 Off ch=3 n=39 v=0
6520897 On ch=3 n=32 v=100
6520897 On ch=3 n=32 v=100
6520909 On ch=3 n=11 v=100
6521110 Off ch=3 n=11 v=0
6521123 Off ch=3 n=32 v=0
6521123 Off ch=3 n=32 v=0
6521143 Off ch=3 n=40 v=0
6521143 Off ch=3 n=40 v=0
6522825 On ch=3 n=10 v=100
6523074 Off ch=3 n=10 v=0
6523412 On ch=3 n=17 v=100
6523503 Off ch=3 n=17 v=0
6524040 On ch=3 n=24 v=100
6524165 Off ch=3 n=24 v=0
6524288 On ch=3 n=6 v=100
6524996 On ch=3 n=16 v=100
6525026 Off ch=3 n=6 v=0
6525075 Off ch=3 n=16 v=0
6526042 On ch=3 n=19 v=100
6526213 Off ch=3 n=19 v=0
6526219 On ch=3 n=28 v=100
6526391 Off ch=3 n=28 v=0
6526461 On ch=3 n=46 v=100
6526704 Off ch=3 n=46 v=0
6526804 On ch=3 n=30 v=100
6526927 Off ch=3 n=30 v=0
6526997 On ch=3 n=30 v=100
6527072 On ch=3 n=3 v=100
6527082 Off ch=3 n=30 v=0
6529451 Off ch=3 n=3 v=0
6529465 On ch=3 n=34 v=100
6529804 On ch=3 n=34 v=100
6529836 Off ch=3 n=34 v=0
6529955 Off ch=3 n=34 v=0
6532251 On ch=3 n=11 v=100
6532923 Off ch=3 n=11 v=0
6532947 On ch=3 n=6 v=100
6533079 Off ch=3 n=6 v=0
6533523 On ch=3 n=15 v=100
6533688 Off ch=3 n=15 v=0
6534715 On ch=3 n=38 v=100
6534798 Off ch=3 n=38 v=0
6536036 On ch=3 n=31 v=100
6536242 Off ch=3 n=31 v=0
6537061 On ch=3 n=28 v=100
6537090 On ch=3 n=56 v=100
6537123 Off ch=3 n=28 v=0
6537229 Off ch=3 n=56 v=0
6537258 On ch=3 n=56 v=100
6537492 Off ch=3 n=56 v=0
6538154 On ch=3 n=20 v=100
6538341 Off ch=3 n=20 v=0
6538452 On ch=3 n=5 v=100
6538911 Off ch=3 n=5 v=0
6543899 On ch=3 n=5 v=100
6544165 Off ch=3 n=5 v=0
6546136 On ch=3 n=12 v=100
6546452 On ch=3 n=9 v=100
6546466 Off ch=3 n=12 v=0
6546562 On ch=3 n=10 v=100
6546574 Off ch=3 n=9 v=0
6546994 Off ch=3 n=10 v=0
6546996 On ch=3 n=11 v=100
6547284 Off ch=3 n=11 v=0
6547565 On ch=3 n=16 v=100
6548182 On ch=3 n=11 v=100
6548195 Off ch=3 n=16 v=0
6548463 On ch=3 n=9 v=100
6548463 Off ch=3 n=11 v=0
6548908 Off ch=3 n=9 v=0
6550202 On ch=3 n=21 v=100
6550427 On ch=3 n=7 v=100
6550451 Off ch=3 n=21 v=0
6550482 On ch=3 n=6 v=100
6550483 Off ch=3 n=7 v=0
6551183 Off ch=3 n=6 v=0
6552060 On ch=3 n=7 v=100
6552530 On ch=3 n=7 v=100
6552544 Off ch=3 n=7 v=0
6552760 On ch=3 n=11 v=100
6552962 Off ch=3 n=7 v=0
6552999 Off ch=3 n=11 v=0
6553000 On ch=3 n=22 v=100
6553612 Off ch=3 n=22 v=0
6554297 On ch=3 n=5 v=100
6554408 Off ch=3 n=5 v=0
6554426 On ch=3 n=13 v=100
6554455 On ch=3 n=24 v=100
6554460 On ch=3 n=13 v=100
6554516 Off ch=3 n=13 v=0
6554536 Off ch=3 n=13 v=0
6554552 Off ch=3 n=24 v=0
6554794 On ch=3 n=20 v=100
6554804 On ch=3 n=9 v=100
6555080 Off ch=3 n=9 v=0
6555107 Off ch=3 n=20 v=0
6555772 On ch=3 n=14 v=100
6555888 On ch=3 n=13 v=100
6555901 Off ch=3 n=14 v=0
6555948 Off ch=3 n=13 v=0
6556635 On ch=3 n=4 v=100
6557442 Off ch=3 n=4 v=0
6557794 On ch=3 n=28 v=100
6557929 Off ch=3 n=28 v=0
6559221 On ch=3 n=21 v=100
6559264 Off ch=3 n=21 v=0
6559836 On ch=3 n=4 v=100
6560324 On ch=3 n=11 v=100
6560324 Off ch=3 n=4 v=0
6560697 On ch=3 n=14 v=100
6560719 Off ch=3 n=11 v=0
6560933 Off ch=3 n=14 v=0
6561005 On ch=3 n=14 v=100
6561111 Off ch=3 n=14 v=0
6561237 On ch=3 n=17 v=100
6561300 Off ch=3 n=17 v=0
6561313 On ch=3 n=8 v=100
6561569 Off ch=3 n=8 v=0
6561598 On ch=3 n=26 v=100
6561695 Off ch=3 n=26 v=0
6561863 On ch=3 n=20 v=100
6561917 On ch=3 n=2 v=100
6562087 Off ch=3 n=20 v=0
6562474 Off ch=3 n=2 v=0
6562498 On ch=3 n=7 v=100
6562784 On ch=3 n=6 v=100
6562789 Off ch=3 n=7 v=0
6562965 Off ch=3 n=6 v=0
6563081 On ch=3 n=26 v=100
6563124 Off ch=3 n=26 v=0
6563423 On ch=3 n=24 v=100
6563514 Off ch=3 n=24 v=0
6564359 On ch=3 n=15 v=100
6564376 On ch=3 n=3 v=100
6564443 Off ch=3 n=3 v=0
6564444 Off ch=3 n=15 v=0
6564445 On ch=3 n=5 v=100
6564953 On ch=3 n=18 v=100
6565134 Off ch=3 n=5 v=0
6565181 Off ch=3 n=18 v=0
6567629 On ch=3 n=6 v=100
6567732 Off ch=3 n=6 v=0
6567734 On ch=3 n=11 v=100
6568135 On ch=3 n=27 v=100
6568151 Off ch=3 n=11 v=0
6569962 Off ch=3 n=27 v=0
6570409 On ch=3 n=61 v=100
6570528 Off ch=3 n=61 v=0
6570875 On ch=3 n=47 v=100
6571235 Off ch=3 n=47 v=0
6572855 On ch=3 n=4 v=100
6573131 Off ch=3 n=4 v=0
6575163 On ch=3 n=5 v=100
6576347 Off ch=3 n=5 v=0
6576348 On ch=3 n=5 v=100
6576931 Off ch=3 n=5 v=0
6578562 On ch=3 n=22 v=100
6578575 On ch=3 n=40 v=100
6578716 Off ch=3 n=22 v=0
6578716 Off ch=3 n=40 v=0
6578789 On ch=3 n=22 v=100
6578789 On ch=3 n=40 v=100
6578854 On ch=3 n=28 v=100
6578961 Off ch=3 n=22 v=0
6579136 Off ch=3 n=40 v=0
6579160 Off ch=3 n=28 v=0
6586909 On ch=3 n=2 v=100
6587198 Off ch=3 n=2 v=0
6590639 On ch=3 n=48 v=100
6590777 Off ch=3 n=48 v=0
6591376 On ch=3 n=5 v=100
6591635 Off ch=3 n=5 v=0
6595206 On ch=3 n=46 v=100
6595206 On ch=3 n=46 v=100
6595587 Off ch=3 n=46 v=0
6595587 Off ch=3 n=46 v=0
6596109 On ch=3 n=23 v=100
6596242 Off ch=3 n=23 v=0
6596381 On ch=3 n=30 v=100
6596470 On ch=3 n=37 v=100
6596492 Off ch=3 n=30 v=0
6596500 On ch=3 n=26 v=100
6596660 Off ch=3 n=37 v=0
6596662 Off ch=3 n=26 v=0
6598655 On ch=3 n=24 v=100
6598766 Off ch=3 n=24 v=0
6600647 On ch=3 n=11 v=100
6601272 On ch=3 n=13 v=100
6601293 Off ch=3 n=11 v=0
6601404 On ch=3 n=21 v=100
6601404 On ch=3 n=21 v=100
6601454 Off ch=3 n=13 v=0
6601456 On ch=3 n=12 v=100
6601877 Off ch=3 n=12 v=0
6601878 On ch=3 n=25 v=100
6601892 Off ch=3 n=21 v=0
6601892 Off ch=3 n=21 v=0
6601984 Off ch=3 n=25 v=0
6602124 On ch=3 n=19 v=100
6602215 Off ch=3 n=19 v=0
6602271 On ch=3 n=8 v=100
6602794 On ch=3 n=23 v=100
6602941 Off ch=3 n=8 v=0
6602949 On ch=3 n=14 v=100
6602960 Off ch=3 n=23 v=0
6603024 Off ch=3 n=14 v=0
6603736 On ch=3 n=20 v=100
6603780 Off ch=3 n=20 v=0
6604368 On ch=3 n=15 v=100
6604477 Off ch=3 n=15 v=0
6604543 On ch=3 n=3 v=100
6604822 On ch=3 n=11 v=100
6604822 Off ch=3 n=3 v=0
6604935 Off ch=3 n=11 v=0
6604937 On ch=3 n=6 v=100
6605615 Off ch=3 n=6 v=0
6605616 On ch=3 n=8 v=100
6605878 Off ch=3 n=8 v=0
6606145 On ch=3 n=33 v=100
6606229 Off ch=3 n=33 v=0
6607318 On ch=3 n=9 v=100
6607991 Off ch=3 n=9 v=0
6608094 On ch=3 n=6 v=100
6608406 Off ch=3 n=6 v=0
6609613 On ch=3 n=21 v=100
6609727 Off ch=3 n=21 v=0
6610008 On ch=3 n=22 v=100
6610344 Off ch=3 n=22 v=0
6610867 On ch=3 n=11 v=100
6611411 On ch=3 n=21 v=100
6611419 On ch=3 n=20 v=100
6611452 Off ch=3 n=11 v=0
6611459 Off ch=3 n=21 v=0
6611500 Off ch=3 n=20 v=0
6611550 On ch=3 n=20 v=100
6611739 Off ch=3 n=20 v=0
6611762 On ch=3 n=3 v=100
6612193 On ch=3 n=22 v=100
6612283 On ch=3 n=14 v=100
6612355 On ch=3 n=10 v=100
6612363 Off ch=3 n=3 v=0
6612626 Off ch=3 n=22 v=0
6612696 On ch=3 n=1 v=100
6612712 Off ch=3 n=10 v=0
6612716 Off ch=3 n=14 v=0
6613431 Off ch=3 n=1 v=0
6613563 On ch=3 n=4 v=100
6613732 Off ch=3 n=4 v=0
6614884 On ch=3 n=10 v=100
6614977 On ch=3 n=23 v=100
6614996 Off ch=3 n=10 v=0
6615040 Off ch=3 n=23 v=0
6615666 On ch=3 n=13 v=100
6615857 Off ch=3 n=13 v=0
6615861 On ch=3 n=8 v=100
6616835 Off ch=3 n=8 v=0
6616935 On ch=3 n=8 v=100
6616954 Off ch=3 n=8 v=0
6616998 On ch=3 n=10 v=100
6617414 Off ch=3 n=10 v=0
6617504 On ch=3 n=6 v=100
6617717 Off ch=3 n=6 v=0
6617720 On ch=3 n=2 v=100
6618004 Off ch=3 n=2 v=0
6618055 On ch=3 n=2 v=100
6618477 Off ch=3 n=2 v=0
6618530 On ch=3 n=2 v=100
6618565 Off ch=3 n=2 v=0
6618620 On ch=3 n=2 v=100
6619080 Off ch=3 n=2 v=0
6619081 On ch=3 n=7 v=100
6619428 Off ch=3 n=7 v=0
6619478 On ch=3 n=7 v=100
6620390 On ch=3 n=14 v=100
6620419 Off ch=3 n=7 v=0
6620503 On ch=3 n=11 v=100
6620538 Off ch=3 n=14 v=0
6620899 Off ch=3 n=11 v=0
6620903 On ch=3 n=10 v=100
6621079 On ch=3 n=11 v=100
6621159 Off ch=3 n=10 v=0
6621245 On ch=3 n=10 v=100
6621246 Off ch=3 n=11 v=0
6621326 On ch=3 n=5 v=100
6621506 Off ch=3 n=10 v=0
6622971 On ch=3 n=6 v=100
6622973 Off ch=3 n=5 v=0
6623040 On ch=3 n=7 v=100
6623334 Off ch=3 n=6 v=0
6623346 Off ch=3 n=7 v=0
6623693 On ch=3 n=14 v=100
6624877 Off ch=3 n=14 v=0
6625000 On ch=3 n=26 v=100
6625020 On ch=3 n=21 v=100
6625138 Off ch=3 n=21 v=0
6625139 Off ch=3 n=26 v=0
6625458 On ch=3 n=19 v=100
6625532 Off ch=3 n=19 v=0
6626171 On ch=3 n=6 v=100
6626494 Off ch=3 n=6 v=0
6627318 On ch=3 n=8 v=100
6628034 Off ch=3 n=8 v=0
6628037 On ch=3 n=6 v=100
6628217 On ch=3 n=9 v=100
6628223 Off ch=3 n=6 v=0
6629109 On ch=3 n=24 v=100
6629241 Off ch=3 n=9 v=0
6629643 Off ch=3 n=24 v=0
6629688 On ch=3 n=24 v=100
6629688 On ch=3 n=16 v=100
6629688 On ch=3 n=24 v=100
6629821 Off ch=3 n=24 v=0
6629880 Off ch=3 n=16 v=0
6629902 On ch=3 n=34 v=100
6630005 Off ch=3 n=24 v=0
6630078 Off ch=3 n=34 v=0
6630180 On ch=3 n=9 v=100
6630246 Off ch=3 n=9 v=0
6630344 On ch=3 n=9 v=100
6630344 On ch=3 n=3 v=100
6630372 Off ch=3 n=9 v=0
6631076 On ch=3 n=17 v=100
6631086 Off ch=3 n=3 v=0
6631086 Off ch=3 n=17 v=0
6631130 On ch=3 n=3 v=100
6631770 Off ch=3 n=3 v=0
6631814 On ch=3 n=8 v=100
6632101 Off ch=3 n=8 v=0
6632103 On ch=3 n=38 v=100
6632831 Off ch=3 n=38 v=0
6632837 On ch=3 n=14 v=100
6632953 Off ch=3 n=14 v=0
6632966 On ch=3 n=7 v=100
6633016 Off ch=3 n=7 v=0
6633065 On ch=3 n=10 v=100
6633233 Off ch=3 n=10 v=0
6633311 On ch=3 n=14 v=100
6633311 On ch=3 n=20 v=100
6633379 Off ch=3 n=14 v=0
6633388 On ch=3 n=13 v=100
6633391 Off ch=3 n=20 v=0
6633433 On ch=3 n=22 v=100
6633450 Off ch=3 n=13 v=0
6633568 On ch=3 n=27 v=100
6633568 On ch=3 n=27 v=100
6633597 On ch=3 n=9 v=100
6633938 Off ch=3 n=22 v=0
6633944 Off ch=3 n=9 v=0
6633983 Off ch=3 n=27 v=0
6633983 Off ch=3 n=27 v=0
6635002 On ch=3 n=5 v=100
6636952 Off ch=3 n=5 v=0
6636995 On ch=3 n=5 v=100
6638445 On ch=3 n=10 v=100
6638463 Off ch=3 n=5 v=0
6638649 On ch=3 n=25 v=100
6638690 Off ch=3 n=10 v=0
6640690 Off ch=3 n=25 v=0
6640727 On ch=3 n=25 v=100
6643259 Off ch=3 n=25 v=0
6643289 On ch=3 n=25 v=100
6653848 Off ch=3 n=25 v=0
6653968 On ch=3 n=25 v=100
6657101 Off ch=3 n=25 v=0
6658104 On ch=3 n=9 v=100
6658388 Off ch=3 n=9 v=0
6659423 On ch=3 n=11 v=100
6659741 Off ch=3 n=11 v=0
6659794 On ch=3 n=4 v=100
6661440 On ch=3 n=16 v=100
6661471 Off ch=3 n=4 v=0
6661683 Off ch=3 n=16 v=0
6661951 On ch=3 n=33 v=100
6662041 Off ch=3 n=33 v=0
6662043 On ch=3 n=14 v=100
6662260 On ch=3 n=26 v=100
6662262 Off ch=3 n=14 v=0
6662276 On ch=3 n=27 v=100
6662393 On ch=3 n=7 v=100
6662400 Off ch=3 n=26 v=0
6662422 Off ch=3 n=27 v=0
6662771 Off ch=3 n=7 v=0
6662785 On ch=3 n=10 v=100
6663033 Off ch=3 n=10 v=0
6665406 On ch=3 n=18 v=100
6665569 On ch=3 n=35 v=100
6665825 Off ch=3 n=18 v=0
6665856 Off ch=3 n=35 v=0
6666122 On ch=3 n=0 v=100
6666153 Off ch=3 n=0 v=0
6666182 On ch=3 n=5 v=100
6666635 On ch=3 n=6 v=100
6666635 Off ch=3 n=5 v=0
6666714 On ch=3 n=10 v=100
6666718 Off ch=3 n=6 v=0
6666996 Off ch=3 n=10 v=0
6667350 On ch=3 n=15 v=100
6667710 Off ch=3 n=15 v=0
6667712 On ch=3 n=21 v=100
6667720 On ch=3 n=22 v=100
6667739 On ch=3 n=35 v=100
6667856 Off ch=3 n=22 v=0
6667878 Off ch=3 n=35 v=0
6667889 On ch=3 n=46 v=100
6667892 Off ch=3 n=21 v=0
6668015 Off ch=3 n=46 v=0
6669195 On ch=3 n=8 v=100
6669659 Off ch=3 n=8 v=0
6669668 On ch=3 n=13 v=100
6670008 On ch=3 n=12 v=100
6670009 Off ch=3 n=13 v=0
6670288 On ch=3 n=12 v=100
6670299 Off ch=3 n=12 v=0
6670397 On ch=3 n=10 v=100
6670410 Off ch=3 n=12 v=0
6670704 Off ch=3 n=10 v=0
6670842 On ch=3 n=28 v=100
6671113 Off ch=3 n=28 v=0
6671122 On ch=3 n=39 v=100
6671272 Off ch=3 n=39 v=0
6673024 On ch=3 n=19 v=100
6673161 On ch=3 n=15 v=100
6673353 Off ch=3 n=19 v=0
6673355 On ch=3 n=20 v=100
6673356 On ch=3 n=13 v=100
6673569 Off ch=3 n=15 v=0
6673724 Off ch=3 n=13 v=0
6673857 Off ch=3 n=20 v=0
6674021 On ch=3 n=13 v=100
6674397 On ch=3 n=19 v=100
6674492 Off ch=3 n=13 v=0
6674512 Off ch=3 n=19 v=0
6674869 On ch=3 n=28 v=100
6674914 Off ch=3 n=28 v=0
6678037 On ch=3 n=31 v=100
6678199 On ch=3 n=8 v=100
6678202 Off ch=3 n=31 v=0
6679204 Off ch=3 n=8 v=0
6679208 On ch=3 n=20 v=100
6679312 Off ch=3 n=20 v=0
6679546 On ch=3 n=54 v=100
6679590 On ch=3 n=31 v=100
6679660 On ch=3 n=6 v=100
6679685 Off ch=3 n=54 v=0
6679690 On ch=3 n=46 v=100
6679690 On ch=3 n=46 v=100
6679718 Off ch=3 n=31 v=0
6679735 On ch=3 n=14 v=100
6679748 Off ch=3 n=6 v=0
6679821 Off ch=3 n=14 v=0
6679894 Off ch=3 n=46 v=0
6679894 Off ch=3 n=46 v=0
6680260 On ch=3 n=13 v=100
6680496 On ch=3 n=5 v=100
6680502 Off ch=3 n=13 v=0
6682073 On ch=3 n=9 v=100
6682074 Off ch=3 n=5 v=0
6682189 On ch=3 n=16 v=100
6682192 Off ch=3 n=9 v=0
6682248 Off ch=3 n=16 v=0
6683762 On ch=3 n=33 v=100
6683792 On ch=3 n=48 v=100
6683923 Off ch=3 n=33 v=0
6684211 On ch=3 n=21 v=100
6684315 On ch=3 n=11 v=100
6684453 Off ch=3 n=48 v=0
6684591 On ch=3 n=36 v=100
6684674 Off ch=3 n=11 v=0
6684677 On ch=3 n=12 v=100
6684680 Off ch=3 n=21 v=0
6684710 Off ch=3 n=36 v=0
6684799 Off ch=3 n=12 v=0
6684801 On ch=3 n=4 v=100
6685117 On ch=3 n=9 v=100
6685119 Off ch=3 n=4 v=0
6685594 Off ch=3 n=9 v=0
6686040 On ch=3 n=19 v=100
6686126 Off ch=3 n=19 v=0
6686797 On ch=3 n=12 v=100
6686841 Off ch=3 n=12 v=0
6687658 On ch=3 n=20 v=100
6687702 Off ch=3 n=20 v=0
6688393 On ch=3 n=13 v=100
6688695 Off ch=3 n=13 v=0
6688697 On ch=3 n=10 v=100
6689056 Off ch=3 n=10 v=0
6689353 On ch=3 n=19 v=100
6689445 On ch=3 n=26 v=100
6689458 Off ch=3 n=19 v=0
6689543 Off ch=3 n=26 v=0
6692621 On ch=3 n=2 v=100
6695100 Off ch=3 n=2 v=0
6697368 On ch=3 n=23 v=100
6697559 Off ch=3 n=23 v=0
6698943 On ch=3 n=8 v=100
6699347 On ch=3 n=26 v=100
6699361 Off ch=3 n=8 v=0
6699592 Off ch=3 n=26 v=0
6704974 On ch=3 n=44 v=100
6704993 On ch=3 n=3 v=100
6705052 Off ch=3 n=44 v=0
6705244 Off ch=3 n=3 v=0
6705674 On ch=3 n=3 v=100
6706637 Off ch=3 n=3 v=0
6707226 On ch=3 n=9 v=100
6707304 On ch=3 n=8 v=100
6707336 Off ch=3 n=9 v=0
6707860 Off ch=3 n=8 v=0
6707904 On ch=3 n=2 v=100
6708086 Off ch=3 n=2 v=0
6710140 On ch=3 n=25 v=100
6710157 On ch=3 n=4 v=100
6710265 Off ch=3 n=25 v=0
6710835 Off ch=3 n=4 v=0
6712090 On ch=3 n=26 v=100
6712114 On ch=3 n=2 v=100
6712161 Off ch=3 n=26 v=0
6712606 On ch=3 n=46 v=100
6712668 Off ch=3 n=2 v=0
6712736 Off ch=3 n=46 v=0
6712841 On ch=3 n=11 v=100
6712963 On ch=3 n=12 v=100
6712967 Off ch=3 n=11 v=0
6713151 Off ch=3 n=12 v=0
6714749 On ch=3 n=25 v=100
6714833 On ch=3 n=8 v=100
6714977 Off ch=3 n=25 v=0
6714978 Off ch=3 n=8 v=0
6716268 On ch=3 n=12 v=100
6716392 Off ch=3 n=12 v=0
6718973 On ch=3 n=6 v=100
6719159 Off ch=3 n=6 v=0
6719161 On ch=3 n=11 v=100
6719903 Off ch=3 n=11 v=0
6731841 On ch=3 n=24 v=100
6731875 On ch=3 n=53 v=100
6731886 On ch=3 n=50 v=100
6731972 Off ch=3 n=24 v=0
6732006 Off ch=3 n=53 v=0
6732032 Off ch=3 n=50 v=0
6734279 On ch=3 n=24 v=100
6734485 On ch=3 n=22 v=100
6734507 Off ch=3 n=24 v=0
6734516 On ch=3 n=16 v=100
6734663 Off ch=3 n=22 v=0
6734663 Off ch=3 n=16 v=0
6735042 On ch=3 n=23 v=100
6735243 Off ch=3 n=23 v=0
6735244 On ch=3 n=14 v=100
6735352 Off ch=3 n=14 v=0
6736418 On ch=3 n=14 v=100
6736462 On ch=3 n=20 v=100
6736498 On ch=3 n=18 v=100
6736536 Off ch=3 n=14 v=0
6736777 Off ch=3 n=20 v=0
6736777 Off ch=3 n=18 v=0
6738132 On ch=3 n=25 v=100
6738205 On ch=3 n=23 v=100
6738431 Off ch=3 n=25 v=0
6738563 Off ch=3 n=23 v=0
6738741 On ch=3 n=24 v=100
6738788 Off ch=3 n=24 v=0
6739156 On ch=3 n=5 v=100
6740670 Off ch=3 n=5 v=0
6740671 On ch=3 n=6 v=100
6741231 Off ch=3 n=6 v=0
6743717 On ch=3 n=14 v=100
6743854 Off ch=3 n=14 v=0
6743858 On ch=3 n=11 v=100
6744119 Off ch=3 n=11 v=0
6744272 On ch=3 n=12 v=100
6744342 On ch=3 n=18 v=100
6744343 Off ch=3 n=12 v=0
6744414 Off ch=3 n=18 v=0
6744419 On ch=3 n=15 v=100
6744647 Off ch=3 n=15 v=0
6745057 On ch=3 n=38 v=100
6745152 Off ch=3 n=38 v=0
6749638 On ch=3 n=23 v=100
6750283 On ch=3 n=9 v=100
6750428 Off ch=3 n=23 v=0
6750805 On ch=3 n=29 v=100
6750808 Off ch=3 n=9 v=0
6750970 Off ch=3 n=29 v=0
6761151 On ch=3 n=3 v=100
6761719 On ch=3 n=1 v=100
6761723 Off ch=3 n=3 v=0
6761800 Off ch=3 n=1 v=0
6761810 On ch=3 n=7 v=100
6762369 Off ch=3 n=7 v=0
6762940 On ch=3 n=2 v=100
6763028 Off ch=3 n=2 v=0
6764257 On ch=3 n=36 v=100
6764577 Off ch=3 n=36 v=0
6764581 On ch=3 n=2 v=100
6765792 Off ch=3 n=2 v=0
6765974 On ch=3 n=11 v=100
6766453 Off ch=3 n=11 v=0
6766724 On ch=3 n=24 v=100
6766778 On ch=3 n=12 v=100
6766778 On ch=3 n=12 v=100
6766936 On ch=3 n=20 v=100
6766936 On ch=3 n=20 v=100
6767160 On ch=3 n=40 v=100
6767160 On ch=3 n=40 v=100
6767181 Off ch=3 n=12 v=0
6767181 Off ch=3 n=12 v=0
6767262 Off ch=3 n=24 v=0
6767415 Off ch=3 n=20 v=0
6767415 Off ch=3 n=20 v=0
6767541 Off ch=3 n=40 v=0
6767541 Off ch=3 n=40 v=0
6769243 On ch=3 n=38 v=100
6769393 Off ch=3 n=38 v=0
6769402 On ch=3 n=28 v=100
6769673 Off ch=3 n=28 v=0
6769811 On ch=3 n=9 v=100
6770111 On ch=3 n=13 v=100
6770124 Off ch=3 n=9 v=0
6770222 On ch=3 n=12 v=100
6770233 Off ch=3 n=13 v=0
6770512 On ch=3 n=14 v=100
6770514 Off ch=3 n=12 v=0
6770853 Off ch=3 n=14 v=0
6770862 On ch=3 n=8 v=100
6771326 Off ch=3 n=8 v=0
6772428 On ch=3 n=43 v=100
6772567 On ch=3 n=38 v=100
6772584 On ch=3 n=28 v=100
6772681 Off ch=3 n=43 v=0
6772710 Off ch=3 n=38 v=0
6772717 Off ch=3 n=28 v=0
6772733 On ch=3 n=14 v=100
6773086 Off ch=3 n=14 v=0
6773418 On ch=3 n=4 v=100
6773870 Off ch=3 n=4 v=0
6773875 On ch=3 n=4 v=100
6774139 Off ch=3 n=4 v=0
6774178 On ch=3 n=7 v=100
6774425 On ch=3 n=8 v=100
6774429 Off ch=3 n=7 v=0
6774507 Off ch=3 n=8 v=0
6774508 On ch=3 n=4 v=100
6775226 Off ch=3 n=4 v=0
6776124 On ch=3 n=7 v=100
6776594 On ch=3 n=6 v=100
6776608 Off ch=3 n=7 v=0
6776765 On ch=3 n=10 v=100
6776945 Off ch=3 n=6 v=0
6776982 Off ch=3 n=10 v=0
6776984 On ch=3 n=18 v=100
6777631 Off ch=3 n=18 v=0
6778325 On ch=3 n=4 v=100
6778443 Off ch=3 n=4 v=0
6778459 On ch=3 n=17 v=100
6778461 On ch=3 n=13 v=100
6778490 On ch=3 n=27 v=100
6778550 Off ch=3 n=13 v=0
6778563 Off ch=3 n=17 v=0
6778588 Off ch=3 n=27 v=0
6778815 On ch=3 n=17 v=100
6778840 On ch=3 n=7 v=100
6779116 Off ch=3 n=7 v=0
6779125 Off ch=3 n=17 v=0
6779754 On ch=3 n=16 v=100
6779871 On ch=3 n=18 v=100
6779884 Off ch=3 n=16 v=0
6779931 Off ch=3 n=18 v=0
6780779 On ch=3 n=36 v=100
6780842 Off ch=3 n=36 v=0
6781268 On ch=3 n=24 v=100
6781293 On ch=3 n=6 v=100
6781334 Off ch=3 n=24 v=0
6781520 On ch=3 n=10 v=100
6781522 Off ch=3 n=6 v=0
6781801 On ch=3 n=16 v=100
6781816 Off ch=3 n=10 v=0
6782101 On ch=3 n=10 v=100
6782386 Off ch=3 n=16 v=0
6782523 On ch=3 n=43 v=100
6782788 Off ch=3 n=10 v=0
6782827 Off ch=3 n=43 v=0
6783068 On ch=3 n=9 v=100
6783070 On ch=3 n=22 v=100
6783429 Off ch=3 n=9 v=0
6783576 Off ch=3 n=22 v=0
6783683 On ch=3 n=17 v=100
6783786 Off ch=3 n=17 v=0
6783789 On ch=3 n=11 v=100
6784055 Off ch=3 n=11 v=0
6784073 On ch=3 n=17 v=100
6784189 On ch=3 n=17 v=100
6784256 Off ch=3 n=17 v=0
6784412 Off ch=3 n=17 v=0
6784920 On ch=3 n=6 v=100
6784986 Off ch=3 n=6 v=0
6785225 On ch=3 n=24 v=100
6785320 Off ch=3 n=24 v=0
6785794 On ch=3 n=15 v=100
6785942 Off ch=3 n=15 v=0
6786217 On ch=3 n=21 v=100
6786337 Off ch=3 n=21 v=0
6786386 On ch=3 n=3 v=100
6786652 On ch=3 n=6 v=100
6786653 Off ch=3 n=3 v=0
6786804 Off ch=3 n=6 v=0
6787153 On ch=3 n=10 v=100
6787451 Off ch=3 n=10 v=0
6801522 On ch=3 n=5 v=100
6802196 Off ch=3 n=5 v=0
6803034 On ch=3 n=7 v=100
6803301 Off ch=3 n=7 v=0
6803303 On ch=3 n=10 v=100
6803616 Off ch=3 n=10 v=0
6803617 On ch=3 n=2 v=100
6803778 Off ch=3 n=2 v=0
6803779 On ch=3 n=7 v=100
6804072 On ch=3 n=6 v=100
6804074 Off ch=3 n=7 v=0
6804526 On ch=3 n=6 v=100
6804544 Off ch=3 n=6 v=0
6804910 Off ch=3 n=6 v=0
6805717 On ch=3 n=15 v=100
6805941 Off ch=3 n=15 v=0
6806065 On ch=3 n=18 v=100
6806152 Off ch=3 n=18 v=0
6806212 On ch=3 n=12 v=100
6806914 Off ch=3 n=12 v=0
6806926 On ch=3 n=18 v=100
6807005 Off ch=3 n=18 v=0
6808828 On ch=3 n=11 v=100
6809193 Off ch=3 n=11 v=0
6809199 On ch=3 n=23 v=100
6809239 Off ch=3 n=23 v=0
6809787 On ch=3 n=47 v=100
6809932 Off ch=3 n=47 v=0
6809943 On ch=3 n=10 v=100
6810019 Off ch=3 n=10 v=0
6810025 On ch=3 n=11 v=100
6810282 Off ch=3 n=11 v=0
6810283 On ch=3 n=7 v=100
6811676 Off ch=3 n=7 v=0
6811677 On ch=3 n=10 v=100
6811952 On ch=3 n=54 v=100
6812023 Off ch=3 n=10 v=0
6812033 Off ch=3 n=54 v=0
6812086 On ch=3 n=33 v=100
6812208 Off ch=3 n=33 v=0
6812309 On ch=3 n=11 v=100
6812357 Off ch=3 n=11 v=0
6812412 On ch=3 n=14 v=100
6812969 Off ch=3 n=14 v=0
6817821 On ch=3 n=15 v=100
6818038 On ch=3 n=11 v=100
6818070 Off ch=3 n=15 v=0
6818803 Off ch=3 n=11 v=0
6819365 On ch=3 n=15 v=100
6819679 Off ch=3 n=15 v=0
6819764 On ch=3 n=3 v=100
6820332 Off ch=3 n=3 v=0
6820333 On ch=3 n=6 v=100
6821167 Off ch=3 n=6 v=0
6822069 On ch=3 n=2 v=100
6824232 Off ch=3 n=2 v=0
6824669 On ch=3 n=6 v=100
6826313 Off ch=3 n=6 v=0
6826376 On ch=3 n=20 v=100
6826554 Off ch=3 n=20 v=0
6826624 On ch=3 n=20 v=100
6826694 Off ch=3 n=20 v=0
6826946 On ch=3 n=43 v=100
6827321 Off ch=3 n=43 v=0
6827629 On ch=3 n=21 v=100
6827964 Off ch=3 n=21 v=0
6829348 On ch=3 n=47 v=100
6829378 On ch=3 n=7 v=100
6829493 Off ch=3 n=47 v=0
6830004 On ch=3 n=10 v=100
6830008 Off ch=3 n=7 v=0
6830153 Off ch=3 n=10 v=0
6830158 On ch=3 n=10 v=100
6830557 On ch=3 n=10 v=100
6830561 Off ch=3 n=10 v=0
6830807 On ch=3 n=4 v=100
6830807 Off ch=3 n=10 v=0
6831497 Off ch=3 n=4 v=0
6832393 On ch=3 n=57 v=100
6832405 On ch=3 n=53 v=100
6832466 Off ch=3 n=57 v=0
6832509 Off ch=3 n=53 v=0
6833417 On ch=3 n=43 v=100
6833538 Off ch=3 n=43 v=0
6833855 On ch=3 n=27 v=100
6834225 Off ch=3 n=27 v=0
6834359 On ch=3 n=27 v=100
6836281 On ch=3 n=8 v=100
6836288 Off ch=3 n=27 v=0
6836576 On ch=3 n=6 v=100
6836578 Off ch=3 n=8 v=0
6836939 On ch=3 n=50 v=100
6837139 Off ch=3 n=6 v=0
6837141 On ch=3 n=2 v=100
6837708 Off ch=3 n=50 v=0
6839479 On ch=3 n=56 v=100
6839592 On ch=3 n=9 v=100
6839610 Off ch=3 n=2 v=0
6839690 Off ch=3 n=56 v=0
6839898 On ch=3 n=81 v=100
6839979 Off ch=3 n=9 v=0
6840031 Off ch=3 n=81 v=0
6845595 On ch=3 n=8 v=100
6845878 Off ch=3 n=8 v=0
6845950 On ch=3 n=8 v=100
6846505 Off ch=3 n=8 v=0
6846534 On ch=3 n=8 v=100
6846954 Off ch=3 n=8 v=0
6847026 On ch=3 n=8 v=100
6847430 Off ch=3 n=8 v=0
6847433 On ch=3 n=4 v=100
6848075 Off ch=3 n=4 v=0
6848077 On ch=3 n=2 v=100
6848529 Off ch=3 n=2 v=0
6854566 On ch=3 n=3 v=100
6854976 On ch=3 n=24 v=100
6855125 Off ch=3 n=3 v=0
6855136 On ch=3 n=10 v=100
6855499 Off ch=3 n=24 v=0
6855578 On ch=3 n=31 v=100
6856038 Off ch=3 n=10 v=0
6856041 On ch=3 n=7 v=100
6856043 On ch=3 n=10 v=100
6856109 Off ch=3 n=31 v=0
6856288 Off ch=3 n=7 v=0
6856289 On ch=3 n=4 v=100
6856329 Off ch=3 n=10 v=0
6857202 Off ch=3 n=4 v=0
6857400 On ch=3 n=35 v=100
6857403 On ch=3 n=19 v=100
6857503 On ch=3 n=41 v=100
6857524 Off ch=3 n=19 v=0
6857548 Off ch=3 n=35 v=0
6858005 Off ch=3 n=41 v=0
6858077 On ch=3 n=41 v=100
6858146 Off ch=3 n=41 v=0
6858175 On ch=3 n=41 v=100
6858365 Off ch=3 n=41 v=0
6858410 On ch=3 n=41 v=100
6858661 On ch=3 n=33 v=100
6858674 On ch=3 n=10 v=100
6858691 Off ch=3 n=41 v=0
6858700 Off ch=3 n=33 v=0
6859068 Off ch=3 n=10 v=0
6859070 On ch=3 n=8 v=100
6859184 Off ch=3 n=8 v=0
6861662 On ch=3 n=19 v=100
6861711 On ch=3 n=5 v=100
6861892 Off ch=3 n=19 v=0
6862402 Off ch=3 n=5 v=0
6862404 On ch=3 n=4 v=100
6862471 Off ch=3 n=4 v=0
6863165 On ch=3 n=24 v=100
6863256 Off ch=3 n=24 v=0
6863555 On ch=3 n=26 v=100
6863598 Off ch=3 n=26 v=0
6863714 On ch=3 n=6 v=100
6863890 On ch=3 n=8 v=100
6863895 Off ch=3 n=6 v=0
6864181 Off ch=3 n=8 v=0
6864205 On ch=3 n=2 v=100
6864870 Off ch=3 n=2 v=0
6865033 On ch=3 n=20 v=100
6865118 Off ch=3 n=20 v=0
6865158 On ch=3 n=10 v=100
6865414 Off ch=3 n=10 v=0
6865426 On ch=3 n=21 v=100
6865490 Off ch=3 n=21 v=0
6865616 On ch=3 n=9 v=100
6865740 Off ch=3 n=9 v=0
6866539 On ch=3 n=2 v=100
6867668 Off ch=3 n=2 v=0
6868644 On ch=3 n=9 v=100
6868849 On ch=3 n=9 v=100
6868868 Off ch=3 n=9 v=0
6869231 On ch=3 n=5 v=100
6869231 Off ch=3 n=9 v=0
6869769 Off ch=3 n=5 v=0
6870350 On ch=3 n=20 v=100
6870399 Off ch=3 n=20 v=0
6870825 On ch=3 n=17 v=100
6870908 Off ch=3 n=17 v=0
6870923 On ch=3 n=57 v=100
6871036 On ch=3 n=51 v=100
6871045 On ch=3 n=36 v=100
6871049 On ch=3 n=10 v=100
6871197 Off ch=3 n=10 v=0
6871206 On ch=3 n=28 v=100
6871337 Off ch=3 n=57 v=0
6871337 Off ch=3 n=36 v=0
6871364 Off ch=3 n=28 v=0
6871368 Off ch=3 n=51 v=0
6871685 On ch=3 n=35 v=100
6871887 On ch=3 n=25 v=100
6872036 On ch=3 n=15 v=100
6872081 On ch=3 n=11 v=100
6872451 Off ch=3 n=15 v=0
6872452 Off ch=3 n=35 v=0
6872453 Off ch=3 n=25 v=0
6872455 Off ch=3 n=11 v=0
6872477 On ch=3 n=9 v=100
6872478 On ch=3 n=28 v=100
6872749 Off ch=3 n=9 v=0
6872846 Off ch=3 n=28 v=0
6873545 On ch=3 n=22 v=100
6873545 On ch=3 n=22 v=100
6873622 On ch=3 n=13 v=100
6873668 On ch=3 n=11 v=100
6874050 Off ch=3 n=13 v=0
6874067 Off ch=3 n=22 v=0
6874067 Off ch=3 n=22 v=0
6874071 Off ch=3 n=11 v=0
6875108 On ch=3 n=14 v=100
6875284 On ch=3 n=12 v=100
6875301 Off ch=3 n=14 v=0
6875343 On ch=3 n=22 v=100
6875964 Off ch=3 n=12 v=0
6876140 On ch=3 n=10 v=100
6876142 Off ch=3 n=22 v=0
6876187 On ch=3 n=13 v=100
6876234 Off ch=3 n=10 v=0
6876387 Off ch=3 n=13 v=0
6876649 On ch=3 n=6 v=100
6876653 On ch=3 n=19 v=100
6876820 On ch=3 n=24 v=100
6876934 Off ch=3 n=6 v=0
6876988 Off ch=3 n=19 v=0
6877015 Off ch=3 n=24 v=0
6877171 On ch=3 n=13 v=100
6877680 On ch=3 n=41 v=100
6877727 Off ch=3 n=13 v=0
6877738 Off ch=3 n=41 v=0
6877810 On ch=3 n=30 v=100
6877883 Off ch=3 n=30 v=0
6878024 On ch=3 n=9 v=100
6878072 Off ch=3 n=9 v=0
6878082 On ch=3 n=21 v=100
6878082 On ch=3 n=8 v=100
6878800 Off ch=3 n=8 v=0
6879086 On ch=3 n=4 v=100
6879091 Off ch=3 n=21 v=0
6879370 On ch=3 n=7 v=100
6879371 Off ch=3 n=4 v=0
6879811 Off ch=3 n=7 v=0
6879823 On ch=3 n=5 v=100
6879868 On ch=3 n=17 v=100
6880027 Off ch=3 n=5 v=0
6880050 Off ch=3 n=17 v=0
6880799 On ch=3 n=17 v=100
6881011 Off ch=3 n=17 v=0
6881015 On ch=3 n=35 v=100
6881065 On ch=3 n=46 v=100
6881272 On ch=3 n=33 v=100
6881285 Off ch=3 n=35 v=0
6881286 Off ch=3 n=46 v=0
6881436 Off ch=3 n=33 v=0
6882157 On ch=3 n=10 v=100
6882481 Off ch=3 n=10 v=0
6884346 On ch=3 n=11 v=100
6884802 Off ch=3 n=11 v=0
6884931 On ch=3 n=18 v=100
6885093 Off ch=3 n=18 v=0
6885096 On ch=3 n=5 v=100
6886014 Off ch=3 n=5 v=0
6886056 On ch=3 n=5 v=100
6887539 Off ch=3 n=5 v=0
6887547 On ch=3 n=10 v=100
6888381 Off ch=3 n=10 v=0
6888503 On ch=3 n=5 v=100
6888787 Off ch=3 n=5 v=0
6888789 On ch=3 n=4 v=100
6889958 On ch=3 n=5 v=100
6889959 Off ch=3 n=4 v=0
6891318 Off ch=3 n=5 v=0
6898113 On ch=3 n=4 v=100
6899021 On ch=3 n=18 v=100
6899075 On ch=3 n=10 v=100
6899082 Off ch=3 n=4 v=0
6899361 Off ch=3 n=18 v=0
6899361 Off ch=3 n=10 v=0
6899362 On ch=3 n=7 v=100
6899539 Off ch=3 n=7 v=0
6899540 On ch=3 n=5 v=100
6899712 Off ch=3 n=5 v=0
6899741 On ch=3 n=18 v=100
6900076 On ch=3 n=7 v=100
6900126 Off ch=3 n=18 v=0
6900561 Off ch=3 n=7 v=0
6900571 On ch=3 n=21 v=100
6900668 Off ch=3 n=21 v=0
6901382 On ch=3 n=13 v=100
6901925 On ch=3 n=11 v=100
6901932 Off ch=3 n=13 v=0
6902339 Off ch=3 n=11 v=0
6902361 On ch=3 n=9 v=100
6902524 On ch=3 n=10 v=100
6902526 Off ch=3 n=9 v=0
6902618 Off ch=3 n=10 v=0
6902686 On ch=3 n=10 v=100
6903029 On ch=3 n=48 v=100
6903038 On ch=3 n=16 v=100
6903049 Off ch=3 n=10 v=0
6903145 Off ch=3 n=16 v=0
6903182 On ch=3 n=32 v=100
6903190 Off ch=3 n=48 v=0
6903349 Off ch=3 n=32 v=0
6904549 On ch=3 n=53 v=100
6904569 On ch=3 n=33 v=100
6904586 On ch=3 n=45 v=100
6904699 Off ch=3 n=53 v=0
6904702 On ch=3 n=26 v=100
6904709 On ch=3 n=37 v=100
6904801 Off ch=3 n=45 v=0
6904811 Off ch=3 n=33 v=0
6904811 Off ch=3 n=26 v=0
6904852 Off ch=3 n=37 v=0
6904880 On ch=3 n=42 v=100
6904960 On ch=3 n=37 v=100
6905086 Off ch=3 n=37 v=0
6905088 Off ch=3 n=42 v=0
6905728 On ch=3 n=49 v=100
6905873 On ch=3 n=40 v=100
6905990 Off ch=3 n=40 v=0
6905991 Off ch=3 n=49 v=0
6907458 On ch=3 n=3 v=100
6907773 Off ch=3 n=3 v=0
6907775 On ch=3 n=5 v=100
6908047 Off ch=3 n=5 v=0
6908773 On ch=3 n=4 v=100
6911009 On ch=3 n=2 v=100
6911031 Off ch=3 n=4 v=0
6913425 Off ch=3 n=2 v=0
6913426 On ch=3 n=2 v=100
6913572 Off ch=3 n=2 v=0
6914528 On ch=3 n=51 v=100
6914534 On ch=3 n=19 v=100
6914534 On ch=3 n=33 v=100
6914604 Off ch=3 n=19 v=0
6914630 Off ch=3 n=33 v=0
6914669 Off ch=3 n=51 v=0
6914674 On ch=3 n=24 v=100
6914711 On ch=3 n=30 v=100
6914720 On ch=3 n=6 v=100
6914911 Off ch=3 n=6 v=0
6914921 Off ch=3 n=24 v=0
6914987 Off ch=3 n=30 v=0
6915583 On ch=3 n=11 v=100
6915949 Off ch=3 n=11 v=0
6916226 On ch=3 n=15 v=100
6916237 On ch=3 n=4 v=100
6916319 Off ch=3 n=15 v=0
6916410 On ch=3 n=18 v=100
6916641 Off ch=3 n=4 v=0
6916735 Off ch=3 n=18 v=0
6917636 On ch=3 n=16 v=100
6918027 Off ch=3 n=16 v=0
6918059 On ch=3 n=64 v=100
6918077 On ch=3 n=49 v=100
6918209 Off ch=3 n=49 v=0
6918210 Off ch=3 n=64 v=0
6920415 On ch=3 n=17 v=100
6920486 On ch=3 n=8 v=100
6920772 Off ch=3 n=8 v=0
6920777 Off ch=3 n=17 v=0
6920780 On ch=3 n=3 v=100
6921156 On ch=3 n=6 v=100
6921357 On ch=3 n=4 v=100
6921361 Off ch=3 n=3 v=0
6922081 On ch=3 n=2 v=100
6922081 Off ch=3 n=6 v=0
6922081 Off ch=3 n=4 v=0
6922398 On ch=3 n=31 v=100
6922506 Off ch=3 n=2 v=0
6922523 Off ch=3 n=31 v=0
6922974 On ch=3 n=4 v=100
6923165 Off ch=3 n=4 v=0
6923388 On ch=3 n=14 v=100
6923813 Off ch=3 n=14 v=0
6923819 On ch=3 n=16 v=100
6923909 Off ch=3 n=16 v=0
6923975 On ch=3 n=21 v=100
6924052 On ch=3 n=25 v=100
6924073 Off ch=3 n=21 v=0
6924136 Off ch=3 n=25 v=0
6924159 On ch=3 n=8 v=100
6924709 On ch=3 n=27 v=100
6924711 On ch=3 n=16 v=100
6924828 On ch=3 n=5 v=100
6924828 Off ch=3 n=8 v=0
6924842 Off ch=3 n=16 v=0
6924860 Off ch=3 n=27 v=0
6924959 Off ch=3 n=5 v=0
6924987 On ch=3 n=7 v=100
6926119 On ch=3 n=9 v=100
6926134 Off ch=3 n=7 v=0
6926634 Off ch=3 n=9 v=0
6930675 On ch=3 n=9 v=100
6932254 Off ch=3 n=9 v=0
6936110 On ch=3 n=5 v=100
6937698 Off ch=3 n=5 v=0
6937701 On ch=3 n=3 v=100
6938097 Off ch=3 n=3 v=0
6938922 On ch=3 n=8 v=100
6940928 Off ch=3 n=8 v=0
6940956 On ch=3 n=8 v=100
6941458 Off ch=3 n=8 v=0
6945185 On ch=3 n=4 v=100
6946382 Off ch=3 n=4 v=0
6946762 On ch=3 n=46 v=100
6946907 Off ch=3 n=46 v=0
6953259 On ch=3 n=51 v=100
6953373 Off ch=3 n=51 v=0
6953815 On ch=3 n=6 v=100
6954568 On ch=3 n=9 v=100
6954570 Off ch=3 n=6 v=0
6954761 Off ch=3 n=9 v=0
6954763 On ch=3 n=21 v=100
6955247 On ch=3 n=23 v=100
6955474 Off ch=3 n=21 v=0
6955675 Off ch=3 n=23 v=0
6957016 On ch=3 n=3 v=100
6957093 Off ch=3 n=3 v=0
6958664 On ch=3 n=9 v=100
6958841 Off ch=3 n=9 v=0
6959224 On ch=3 n=13 v=100
6959308 Off ch=3 n=13 v=0
6960534 On ch=3 n=33 v=100
6960690 Off ch=3 n=33 v=0
6961003 On ch=3 n=17 v=100
6961521 On ch=3 n=21 v=100
6961529 Off ch=3 n=17 v=0
6961621 On ch=3 n=4 v=100
6961673 Off ch=3 n=21 v=0
6962791 On ch=3 n=6 v=100
6962839 Off ch=3 n=4 v=0
6963460 Off ch=3 n=6 v=0
6963490 On ch=3 n=6 v=100
6963553 Off ch=3 n=6 v=0
6963704 On ch=3 n=8 v=100
6964020 Off ch=3 n=8 v=0
6964021 On ch=3 n=2 v=100
6965165 Off ch=3 n=2 v=0
6965166 On ch=3 n=5 v=100
6966273 Off ch=3 n=5 v=0
6968883 On ch=3 n=6 v=100
6969207 On ch=3 n=1 v=100
6969207 Off ch=3 n=6 v=0
6969275 Off ch=3 n=1 v=0
6969276 On ch=3 n=7 v=100
6970191 Off ch=3 n=7 v=0
6970628 On ch=3 n=47 v=100
6970659 On ch=3 n=27 v=100
6970716 Off ch=3 n=47 v=0
6970781 Off ch=3 n=27 v=0
6970863 On ch=3 n=22 v=100
6971243 Off ch=3 n=22 v=0
6971521 On ch=3 n=15 v=100
6971598 Off ch=3 n=15 v=0
6972037 On ch=3 n=24 v=100
6972149 Off ch=3 n=24 v=0
6973747 On ch=3 n=12 v=100
6974220 Off ch=3 n=12 v=0
6974330 On ch=3 n=47 v=100
6974379 On ch=3 n=39 v=100
6974380 On ch=3 n=52 v=100
6974572 Off ch=3 n=47 v=0
6974579 Off ch=3 n=39 v=0
6974627 Off ch=3 n=52 v=0
6975052 On ch=3 n=50 v=100
6975201 Off ch=3 n=50 v=0
6976920 On ch=3 n=36 v=100
6977010 Off ch=3 n=36 v=0
6977109 On ch=3 n=17 v=100
6977291 Off ch=3 n=17 v=0
6977400 On ch=3 n=31 v=100
6977647 Off ch=3 n=31 v=0
6977654 On ch=3 n=63 v=100
6978250 Off ch=3 n=63 v=0
6980983 On ch=3 n=2 v=100
6982044 Off ch=3 n=2 v=0
6987051 On ch=3 n=27 v=100
6987088 On ch=3 n=15 v=100
6987379 Off ch=3 n=15 v=0
6987383 Off ch=3 n=27 v=0
6990318 On ch=3 n=10 v=100
6990626 On ch=3 n=11 v=100
6990640 Off ch=3 n=10 v=0
6990737 On ch=3 n=10 v=100
6990748 Off ch=3 n=11 v=0
6991167 Off ch=3 n=10 v=0
6991169 On ch=3 n=8 v=100
6991457 Off ch=3 n=8 v=0
6991769 On ch=3 n=14 v=100
6992643 On ch=3 n=12 v=100
6992658 Off ch=3 n=14 v=0
6992922 On ch=3 n=9 v=100
6992922 Off ch=3 n=12 v=0
6993385 Off ch=3 n=9 v=0
6994675 On ch=3 n=20 v=100
6994901 On ch=3 n=9 v=100
6994924 Off ch=3 n=20 v=0
6994956 On ch=3 n=5 v=100
6994956 Off ch=3 n=9 v=0
6995656 Off ch=3 n=5 v=0
6995672 On ch=3 n=15 v=100
6996537 Off ch=3 n=15 v=0
6996837 On ch=3 n=9 v=100
6997126 Off ch=3 n=9 v=0
6997976 On ch=3 n=7 v=100
6998446 On ch=3 n=7 v=100
6998460 Off ch=3 n=7 v=0
6998684 On ch=3 n=13 v=100
6998887 Off ch=3 n=7 v=0
6998923 Off ch=3 n=13 v=0
6998925 On ch=3 n=21 v=100
6999536 Off ch=3 n=21 v=0
7000221 On ch=3 n=4 v=100
7000343 Off ch=3 n=4 v=0
7000361 On ch=3 n=16 v=100
7000390 On ch=3 n=26 v=100
7000395 On ch=3 n=24 v=100
7000457 Off ch=3 n=16 v=0
7000470 Off ch=3 n=24 v=0
7000487 Off ch=3 n=26 v=0
7000714 On ch=3 n=11 v=100
7001014 Off ch=3 n=11 v=0
7001697 On ch=3 n=15 v=100
7001813 On ch=3 n=11 v=100
7001826 Off ch=3 n=15 v=0
7001873 Off ch=3 n=11 v=0
7002557 On ch=3 n=4 v=100
7003376 Off ch=3 n=4 v=0
7003735 On ch=3 n=32 v=100
7003868 Off ch=3 n=32 v=0
7005159 On ch=3 n=21 v=100
7005202 Off ch=3 n=21 v=0
7005804 On ch=3 n=5 v=100
7006291 Off ch=3 n=5 v=0
7006292 On ch=3 n=10 v=100
7006651 On ch=3 n=7 v=100
7006670 Off ch=3 n=10 v=0
7006861 Off ch=3 n=7 v=0
7006899 On ch=3 n=6 v=100
7007135 Off ch=3 n=6 v=0
7007165 On ch=3 n=26 v=100
7007262 Off ch=3 n=26 v=0
7007448 On ch=3 n=8 v=100
7007734 On ch=3 n=5 v=100
7007736 Off ch=3 n=8 v=0
7007913 Off ch=3 n=5 v=0
7008032 On ch=3 n=26 v=100
7008075 Off ch=3 n=26 v=0
7008374 On ch=3 n=21 v=100
7008469 Off ch=3 n=21 v=0
7008812 On ch=3 n=42 v=100
7009107 Off ch=3 n=42 v=0
7009158 On ch=3 n=8 v=100
7009223 Off ch=3 n=8 v=0
7009227 On ch=3 n=7 v=100
7009723 On ch=3 n=19 v=100
7009876 Off ch=3 n=7 v=0
7009905 Off ch=3 n=19 v=0
7012232 On ch=3 n=5 v=100
7012331 On ch=3 n=2 v=100
7012333 Off ch=3 n=5 v=0
7012600 Off ch=3 n=2 v=0
7012635 On ch=3 n=2 v=100
7013623 Off ch=3 n=2 v=0
7013650 On ch=3 n=11 v=100
7014051 On ch=3 n=42 v=100
7014069 Off ch=3 n=11 v=0
7014112 Off ch=3 n=42 v=0
7014145 On ch=3 n=42 v=100
7015077 Off ch=3 n=42 v=0
7015180 On ch=3 n=18 v=100
7015904 Off ch=3 n=18 v=0
7015917 On ch=3 n=3 v=100
7016856 Off ch=3 n=3 v=0
7019656 On ch=3 n=44 v=100
7019992 Off ch=3 n=44 v=0
7027088 On ch=3 n=21 v=100
7027438 Off ch=3 n=21 v=0
7028458 On ch=3 n=22 v=100
7028579 Off ch=3 n=22 v=0
7029571 On ch=3 n=15 v=100
7029619 Off ch=3 n=15 v=0
7033284 On ch=3 n=59 v=100
7033418 On ch=3 n=4 v=100
7033454 Off ch=3 n=59 v=0
7033999 Off ch=3 n=4 v=0
7034023 On ch=3 n=8 v=100
7034604 On ch=3 n=50 v=100
7034806 On ch=3 n=38 v=100
7034876 Off ch=3 n=8 v=0
7034888 On ch=3 n=18 v=100
7034914 Off ch=3 n=50 v=0
7035019 Off ch=3 n=38 v=0
7035225 Off ch=3 n=18 v=0
7035248 On ch=3 n=63 v=100
7035248 On ch=3 n=63 v=100
7035383 Off ch=3 n=63 v=0
7035383 Off ch=3 n=63 v=0
7035734 On ch=3 n=60 v=100
7035734 On ch=3 n=60 v=100
7035862 Off ch=3 n=60 v=0
7035862 Off ch=3 n=60 v=0
7038764 On ch=3 n=43 v=100
7038769 On ch=3 n=69 v=100
7038849 Off ch=3 n=43 v=0
7038879 Off ch=3 n=69 v=0
7040673 On ch=3 n=50 v=100
7040791 Off ch=3 n=50 v=0
7040808 On ch=3 n=58 v=100
7040819 On ch=3 n=47 v=100
7040905 Off ch=3 n=58 v=0
7040921 Off ch=3 n=47 v=0
7055816 On ch=3 n=1 v=100
7058206 Off ch=3 n=1 v=0
7066022 On ch=3 n=3 v=100
7066103 Off ch=3 n=3 v=0
7066107 On ch=3 n=7 v=100
7066320 Off ch=3 n=7 v=0
7068343 On ch=3 n=6 v=100
7068533 Off ch=3 n=6 v=0
7068565 On ch=3 n=1 v=100
7069651 Off ch=3 n=1 v=0
7073319 On ch=3 n=48 v=100
7073678 Off ch=3 n=48 v=0
7074025 On ch=3 n=58 v=100
7074140 Off ch=3 n=58 v=0
7074214 On ch=3 n=46 v=100
7074299 Off ch=3 n=46 v=0
7076029 On ch=3 n=47 v=100
7076388 Off ch=3 n=47 v=0
7078768 On ch=3 n=48 v=100
7079128 Off ch=3 n=48 v=0
7079475 On ch=3 n=41 v=100
7079574 Off ch=3 n=41 v=0
7079658 On ch=3 n=54 v=100
7079770 Off ch=3 n=54 v=0
7080035 On ch=3 n=25 v=100
7081832 On ch=3 n=12 v=100
7081838 Off ch=3 n=25 v=0
7082250 Off ch=3 n=12 v=0
7082252 On ch=3 n=4 v=100
7082355 Off ch=3 n=4 v=0
7084768 On ch=3 n=19 v=100
7084805 On ch=3 n=5 v=100
7084990 Off ch=3 n=19 v=0
7085514 Off ch=3 n=5 v=0
7087016 On ch=3 n=30 v=100
7087041 On ch=3 n=12 v=100
7087134 Off ch=3 n=12 v=0
7087135 Off ch=3 n=30 v=0
7087146 On ch=3 n=7 v=100
7087428 Off ch=3 n=7 v=0
7087497 On ch=3 n=28 v=100
7087538 On ch=3 n=6 v=100
7087609 Off ch=3 n=28 v=0
7088647 Off ch=3 n=6 v=0
7088773 On ch=3 n=21 v=100
7089129 Off ch=3 n=21 v=0
7095229 On ch=3 n=20 v=100
7095273 Off ch=3 n=20 v=0
7096849 On ch=3 n=43 v=100
7096884 On ch=3 n=34 v=100
7097085 Off ch=3 n=43 v=0
7097587 Off ch=3 n=34 v=0
7099303 On ch=3 n=25 v=100
7099398 Off ch=3 n=25 v=0
7099817 On ch=3 n=10 v=100
7099865 Off ch=3 n=10 v=0
7099878 On ch=3 n=22 v=100
7099959 Off ch=3 n=22 v=0
7100415 On ch=3 n=7 v=100
7100421 On ch=3 n=20 v=100
7100696 Off ch=3 n=7 v=0
7100756 Off ch=3 n=20 v=0
7101338 On ch=3 n=11 v=100
7101340 On ch=3 n=24 v=100
7101700 Off ch=3 n=11 v=0
7101727 On ch=3 n=64 v=100
7101727 On ch=3 n=64 v=100
7101791 On ch=3 n=76 v=100
7101849 Off ch=3 n=24 v=0
7101880 Off ch=3 n=76 v=0
7101925 Off ch=3 n=64 v=0
7101925 Off ch=3 n=64 v=0
7101954 On ch=3 n=20 v=100
7102057 Off ch=3 n=20 v=0
7102059 On ch=3 n=18 v=100
7102060 On ch=3 n=11 v=100
7102325 Off ch=3 n=11 v=0
7102370 On ch=3 n=14 v=100
7102420 Off ch=3 n=18 v=0
7102493 On ch=3 n=11 v=100
7102495 Off ch=3 n=14 v=0
7102928 Off ch=3 n=11 v=0
7102999 On ch=3 n=15 v=100
7103174 Off ch=3 n=15 v=0
7103695 On ch=3 n=17 v=100
7103759 Off ch=3 n=17 v=0
7104000 On ch=3 n=20 v=100
7104103 Off ch=3 n=20 v=0
7104564 On ch=3 n=18 v=100
7104687 Off ch=3 n=18 v=0
7104742 On ch=3 n=41 v=100
7104956 On ch=3 n=36 v=100
7104964 Off ch=3 n=41 v=0
7105135 Off ch=3 n=36 v=0
7106296 On ch=3 n=11 v=100
7106448 Off ch=3 n=11 v=0
7106449 On ch=3 n=6 v=100
7106998 On ch=3 n=5 v=100
7106998 Off ch=3 n=6 v=0
7107158 Off ch=3 n=5 v=0
7107164 On ch=3 n=7 v=100
7107682 Off ch=3 n=7 v=0
7107684 On ch=3 n=3 v=100
7108270 On ch=3 n=33 v=100
7108327 On ch=3 n=2 v=100
7108327 Off ch=3 n=3 v=0
7108423 On ch=3 n=11 v=100
7108461 Off ch=3 n=33 v=0
7108740 Off ch=3 n=2 v=0
7109053 Off ch=3 n=11 v=0
7109137 On ch=3 n=11 v=100
7109500 Off ch=3 n=11 v=0
7109502 On ch=3 n=2 v=100
7109539 On ch=3 n=36 v=100
7109543 Off ch=3 n=2 v=0
7109756 Off ch=3 n=36 v=0
7110917 On ch=3 n=7 v=100
7111092 On ch=3 n=11 v=100
7111093 Off ch=3 n=7 v=0
7111293 Off ch=3 n=11 v=0
7111729 On ch=3 n=7 v=100
7112610 On ch=3 n=33 v=100
7112626 Off ch=3 n=7 v=0
7112632 On ch=3 n=9 v=100
7112710 Off ch=3 n=33 v=0
7112829 Off ch=3 n=9 v=0
7114040 On ch=3 n=9 v=100
7114339 Off ch=3 n=9 v=0
7114352 On ch=3 n=18 v=100
7114470 Off ch=3 n=18 v=0
7114949 On ch=3 n=16 v=100
7115046 On ch=3 n=13 v=100
7115047 Off ch=3 n=16 v=0
7115112 Off ch=3 n=13 v=0
7115118 On ch=3 n=25 v=100
7115181 Off ch=3 n=25 v=0
7116646 On ch=3 n=0 v=100
7116702 Off ch=3 n=0 v=0
7117658 On ch=3 n=7 v=100
7121759 Off ch=3 n=7 v=0
7121816 On ch=3 n=7 v=100
7122179 On ch=3 n=26 v=100
7122179 Off ch=3 n=7 v=0
7122189 On ch=3 n=8 v=100
7122485 Off ch=3 n=8 v=0
7122596 Off ch=3 n=26 v=0
7123351 On ch=3 n=5 v=100
7123888 Off ch=3 n=5 v=0
7125937 On ch=3 n=14 v=100
7126078 On ch=3 n=4 v=100
7126082 Off ch=3 n=14 v=0
7126838 Off ch=3 n=4 v=0
7126843 On ch=3 n=3 v=100
7127867 Off ch=3 n=3 v=0
7127869 On ch=3 n=14 v=100
7127913 Off ch=3 n=14 v=0
7129052 On ch=3 n=30 v=100
7129233 Off ch=3 n=30 v=0
7129523 On ch=3 n=17 v=100
7129645 On ch=3 n=34 v=100
7129778 Off ch=3 n=17 v=0
7129795 Off ch=3 n=34 v=0
7130261 On ch=3 n=13 v=100
7130636 Off ch=3 n=13 v=0
7132273 On ch=3 n=12 v=100
7132275 On ch=3 n=6 v=100
7132384 Off ch=3 n=6 v=0
7132398 Off ch=3 n=12 v=0
7133379 On ch=3 n=9 v=100
7133703 Off ch=3 n=9 v=0
7133721 On ch=3 n=25 v=100
7133757 On ch=3 n=20 v=100
7133771 Off ch=3 n=25 v=0
7133860 Off ch=3 n=20 v=0
7134005 On ch=3 n=18 v=100
7134090 Off ch=3 n=18 v=0
7134156 On ch=3 n=6 v=100
7134825 Off ch=3 n=6 v=0
7134836 On ch=3 n=22 v=100
7134918 Off ch=3 n=22 v=0
7144215 On ch=3 n=13 v=100
7144263 Off ch=3 n=13 v=0
7144955 On ch=3 n=23 v=100
7145044 Off ch=3 n=23 v=0
7146223 On ch=3 n=13 v=100
7146398 Off ch=3 n=13 v=0
7146402 On ch=3 n=9 v=100
7146781 On ch=3 n=8 v=100
7146783 Off ch=3 n=9 v=0
7146913 On ch=3 n=21 v=100
7146987 On ch=3 n=13 v=100
7147033 Off ch=3 n=8 v=0
7147046 On ch=3 n=11 v=100
7147057 On ch=3 n=15 v=100
7147364 Off ch=3 n=21 v=0
7147367 Off ch=3 n=13 v=0
7147392 Off ch=3 n=11 v=0
7147450 Off ch=3 n=15 v=0
7147483 On ch=3 n=63 v=100
7147498 On ch=3 n=19 v=100
7147573 Off ch=3 n=63 v=0
7147662 On ch=3 n=43 v=100
7147724 Off ch=3 n=19 v=0
7147725 On ch=3 n=39 v=100
7147809 On ch=3 n=20 v=100
7147905 Off ch=3 n=43 v=0
7147905 Off ch=3 n=39 v=0
7147930 Off ch=3 n=20 v=0
7148839 On ch=3 n=43 v=100
7148848 On ch=3 n=13 v=100
7149111 On ch=3 n=19 v=100
7149145 Off ch=3 n=13 v=0
7149157 On ch=3 n=15 v=100
7149157 On ch=3 n=21 v=100
7149222 Off ch=3 n=43 v=0
7149399 Off ch=3 n=19 v=0
7149409 Off ch=3 n=15 v=0
7149413 On ch=3 n=11 v=100
7149446 Off ch=3 n=21 v=0
7149487 Off ch=3 n=11 v=0
7149499 On ch=3 n=12 v=100
7149530 On ch=3 n=45 v=100
7149534 On ch=3 n=20 v=100
7149812 Off ch=3 n=12 v=0
7149901 Off ch=3 n=20 v=0
7149946 Off ch=3 n=45 v=0
7150500 On ch=3 n=10 v=100
7151031 On ch=3 n=53 v=100
7151121 Off ch=3 n=10 v=0
7151133 Off ch=3 n=53 v=0
7151227 On ch=3 n=21 v=100
7151315 On ch=3 n=10 v=100
7151325 Off ch=3 n=21 v=0
7151781 Off ch=3 n=10 v=0
7151891 On ch=3 n=25 v=100
7151981 On ch=3 n=18 v=100
7151994 Off ch=3 n=25 v=0
7152219 On ch=3 n=14 v=100
7152264 Off ch=3 n=18 v=0
7152317 On ch=3 n=6 v=100
7152318 Off ch=3 n=14 v=0
7152898 Off ch=3 n=6 v=0
7152909 On ch=3 n=9 v=100
7153089 Off ch=3 n=9 v=0
7153096 On ch=3 n=7 v=100
7153103 On ch=3 n=21 v=100
7153474 Off ch=3 n=7 v=0
7153476 On ch=3 n=8 v=100
7153618 Off ch=3 n=21 v=0
7153717 On ch=3 n=10 v=100
7153759 Off ch=3 n=8 v=0
7154203 Off ch=3 n=10 v=0
7154269 On ch=3 n=20 v=100
7154270 On ch=3 n=6 v=100
7154320 Off ch=3 n=6 v=0
7154363 Off ch=3 n=20 v=0
7154538 On ch=3 n=14 v=100
7154620 Off ch=3 n=14 v=0
7154682 On ch=3 n=4 v=100
7155227 Off ch=3 n=4 v=0
7155707 On ch=3 n=6 v=100
7157117 Off ch=3 n=6 v=0
7157268 On ch=3 n=10 v=100
7157329 Off ch=3 n=10 v=0
7157361 On ch=3 n=6 v=100
7157985 On ch=3 n=4 v=100
7158033 Off ch=3 n=6 v=0
7159180 On ch=3 n=13 v=100
7159221 On ch=3 n=6 v=100
7159221 Off ch=3 n=4 v=0
7159314 On ch=3 n=7 v=100
7159320 Off ch=3 n=6 v=0
7159325 Off ch=3 n=13 v=0
7159448 Off ch=3 n=7 v=0
7159464 On ch=3 n=17 v=100
7159655 Off ch=3 n=17 v=0
7159970 On ch=3 n=26 v=100
7160068 Off ch=3 n=26 v=0
7161602 On ch=3 n=15 v=100
7161690 Off ch=3 n=15 v=0
7162087 On ch=3 n=13 v=100
7162265 Off ch=3 n=13 v=0
7163839 On ch=3 n=4 v=100
7163916 Off ch=3 n=4 v=0
7164030 On ch=3 n=4 v=100
7165284 Off ch=3 n=4 v=0
7166522 On ch=3 n=25 v=100
7166714 On ch=3 n=23 v=100
7166951 Off ch=3 n=25 v=0
7167349 Off ch=3 n=23 v=0
7167351 On ch=3 n=9 v=100
7167542 On ch=3 n=6 v=100
7167544 Off ch=3 n=9 v=0
7168297 Off ch=3 n=6 v=0
7168547 On ch=3 n=38 v=100
7168685 Off ch=3 n=38 v=0
7169602 On ch=3 n=38 v=100
7169728 Off ch=3 n=38 v=0
7170187 On ch=3 n=8 v=100
7171678 Off ch=3 n=8 v=0
7171750 On ch=3 n=0 v=100
7171776 Off ch=3 n=0 v=0
7172499 On ch=3 n=40 v=100
7172626 Off ch=3 n=40 v=0
7173813 On ch=3 n=38 v=100
7173939 Off ch=3 n=38 v=0
7193246 On ch=3 n=4 v=100
7193969 Off ch=3 n=4 v=0
7194724 On ch=3 n=6 v=100
7196789 On ch=3 n=8 v=100
7196790 Off ch=3 n=6 v=0
7197057 Off ch=3 n=8 v=0
7197063 On ch=3 n=5 v=100
7198067 On ch=3 n=2 v=100
7198071 Off ch=3 n=5 v=0
7200152 Off ch=3 n=2 v=0
7200185 On ch=3 n=2 v=100
7200549 On ch=3 n=3 v=100
7200549 Off ch=3 n=2 v=0
7200722 Off ch=3 n=3 v=0
7200752 On ch=3 n=13 v=100
7201048 Off ch=3 n=13 v=0
7201878 On ch=3 n=25 v=100
7201882 On ch=3 n=27 v=100
7201882 On ch=3 n=27 v=100
7201905 On ch=3 n=17 v=100
7201924 On ch=3 n=1 v=100
7201978 On ch=3 n=21 v=100
7201994 Off ch=3 n=25 v=0
7201996 Off ch=3 n=17 v=0
7202011 Off ch=3 n=27 v=0
7202011 Off ch=3 n=27 v=0
7202081 Off ch=3 n=1 v=0
7202135 Off ch=3 n=21 v=0
7203669 On ch=3 n=30 v=100
7203695 On ch=3 n=8 v=100
7203763 Off ch=3 n=30 v=0
7203978 On ch=3 n=22 v=100
7203998 Off ch=3 n=8 v=0
7204010 On ch=3 n=9 v=100
7204189 Off ch=3 n=22 v=0
7204471 Off ch=3 n=9 v=0
7205675 On ch=3 n=39 v=100
7205878 On ch=3 n=33 v=100
7205898 On ch=3 n=24 v=100
7205990 Off ch=3 n=39 v=0
7206019 Off ch=3 n=33 v=0
7206036 Off ch=3 n=24 v=0
7206046 On ch=3 n=14 v=100
7206399 Off ch=3 n=14 v=0
7206647 On ch=3 n=9 v=100
7206721 On ch=3 n=4 v=100
7207338 Off ch=3 n=9 v=0
7207503 Off ch=3 n=4 v=0
7207542 On ch=3 n=7 v=100
7207789 On ch=3 n=10 v=100
7207793 Off ch=3 n=7 v=0
7207871 Off ch=3 n=10 v=0
7207872 On ch=3 n=4 v=100
7207890 On ch=3 n=11 v=100
7208317 On ch=3 n=3 v=100
7208317 Off ch=3 n=4 v=0
7208502 Off ch=3 n=11 v=0
7208583 Off ch=3 n=3 v=0
7209482 On ch=3 n=7 v=100
7209952 On ch=3 n=6 v=100
7209966 Off ch=3 n=7 v=0
7210199 On ch=3 n=7 v=100
7210378 Off ch=3 n=6 v=0
7210415 On ch=3 n=19 v=100
7210415 Off ch=3 n=7 v=0
7210967 On ch=3 n=3 v=100
7210971 Off ch=3 n=19 v=0
7211054 Off ch=3 n=3 v=0
7211072 On ch=3 n=21 v=100
7211073 On ch=3 n=5 v=100
7211102 On ch=3 n=31 v=100
7211107 On ch=3 n=13 v=100
7211143 Off ch=3 n=5 v=0
7211168 Off ch=3 n=21 v=0
7211182 Off ch=3 n=13 v=0
7211215 Off ch=3 n=31 v=0
7211440 On ch=3 n=42 v=100
7211440 On ch=3 n=42 v=100
7211453 On ch=3 n=8 v=100
7211731 Off ch=3 n=8 v=0
7211820 Off ch=3 n=42 v=0
7211820 Off ch=3 n=42 v=0
7212428 On ch=3 n=14 v=100
7212544 On ch=3 n=13 v=100
7212557 Off ch=3 n=14 v=0
7212604 Off ch=3 n=13 v=0
7213151 On ch=3 n=25 v=100
7213163 On ch=3 n=14 v=100
7213177 On ch=3 n=6 v=100
7213221 Off ch=3 n=25 v=0
7213239 Off ch=3 n=14 v=0
7213239 Off ch=3 n=6 v=0
7214984 On ch=3 n=8 v=100
7215131 On ch=3 n=14 v=100
7215635 Off ch=3 n=8 v=0
7215718 Off ch=3 n=14 v=0
7215726 On ch=3 n=5 v=100
7215767 Off ch=3 n=5 v=0
7215789 On ch=3 n=11 v=100
7215912 Off ch=3 n=11 v=0
7216076 On ch=3 n=27 v=100
7216169 On ch=3 n=17 v=100
7216421 Off ch=3 n=27 v=0
7216800 Off ch=3 n=17 v=0
7216895 On ch=3 n=31 v=100
7217156 Off ch=3 n=31 v=0
7217248 On ch=3 n=24 v=100
7217418 On ch=3 n=19 v=100
7217428 Off ch=3 n=24 v=0
7217743 On ch=3 n=18 v=100
7217745 Off ch=3 n=19 v=0
7219216 On ch=3 n=30 v=100
7219261 On ch=3 n=26 v=100
7219262 Off ch=3 n=18 v=0
7219381 Off ch=3 n=30 v=0
7219519 Off ch=3 n=26 v=0
7222757 On ch=3 n=6 v=100
7222821 On ch=3 n=5 v=100
7222867 On ch=3 n=5 v=100
7222896 Off ch=3 n=6 v=0
7223043 Off ch=3 n=5 v=0
7223048 Off ch=3 n=5 v=0
7223754 On ch=3 n=8 v=100
7223846 On ch=3 n=25 v=100
7223849 Off ch=3 n=8 v=0
7224029 On ch=3 n=6 v=100
7224171 Off ch=3 n=25 v=0
7224707 Off ch=3 n=6 v=0
7224727 On ch=3 n=6 v=100
7224880 On ch=3 n=41 v=100
7224942 Off ch=3 n=6 v=0
7224988 Off ch=3 n=41 v=0
7226679 On ch=3 n=3 v=100
7226905 Off ch=3 n=3 v=0
7226912 On ch=3 n=8 v=100
7227811 Off ch=3 n=8 v=0
7228568 On ch=3 n=24 v=100
7228689 On ch=3 n=23 v=100
7228705 Off ch=3 n=24 v=0
7228727 On ch=3 n=13 v=100
7228789 Off ch=3 n=23 v=0
7228789 Off ch=3 n=13 v=0
7228832 On ch=3 n=12 v=100
7229311 Off ch=3 n=12 v=0
7229924 On ch=3 n=8 v=100
7230024 On ch=3 n=11 v=100
7230789 Off ch=3 n=8 v=0
7230898 On ch=3 n=21 v=100
7230997 Off ch=3 n=11 v=0
7231005 On ch=3 n=41 v=100
7231189 On ch=3 n=3 v=100
7231189 On ch=3 n=3 v=100
7231189 Off ch=3 n=21 v=0
7231396 Off ch=3 n=41 v=0
7231809 On ch=3 n=12 v=100
7231838 On ch=3 n=5 v=100
7231838 On ch=3 n=5 v=100
7231838 Off ch=3 n=3 v=0
7231838 Off ch=3 n=3 v=0
7232050 Off ch=3 n=12 v=0
7232257 On ch=3 n=23 v=100
7232362 Off ch=3 n=5 v=0
7232362 Off ch=3 n=5 v=0
7232364 On ch=3 n=14 v=100
7232575 Off ch=3 n=23 v=0
7232595 Off ch=3 n=14 v=0
7232710 On ch=3 n=21 v=100
7232729 On ch=3 n=20 v=100
7232729 On ch=3 n=12 v=100
7232859 Off ch=3 n=21 v=0
7232933 On ch=3 n=13 v=100
7232933 Off ch=3 n=12 v=0
7232960 Off ch=3 n=20 v=0
7233055 On ch=3 n=16 v=100
7233106 Off ch=3 n=13 v=0
7233210 Off ch=3 n=16 v=0
7233673 On ch=3 n=18 v=100
7233713 On ch=3 n=10 v=100
7233847 On ch=3 n=38 v=100
7233847 Off ch=3 n=10 v=0
7233850 Off ch=3 n=18 v=0
7233998 Off ch=3 n=38 v=0
7234002 On ch=3 n=24 v=100
7234145 On ch=3 n=27 v=100
7234145 On ch=3 n=27 v=100
7234171 Off ch=3 n=24 v=0
7234172 On ch=3 n=52 v=100
7234172 On ch=3 n=52 v=100
7234188 On ch=3 n=25 v=100
7234295 Off ch=3 n=27 v=0
7234295 Off ch=3 n=27 v=0
7234299 Off ch=3 n=25 v=0
7234302 On ch=3 n=37 v=100
7234389 Off ch=3 n=52 v=0
7234389 Off ch=3 n=52 v=0
7234428 Off ch=3 n=37 v=0
7235659 On ch=3 n=30 v=100
7235806 Off ch=3 n=30 v=0
7235843 On ch=3 n=14 v=100
7235939 On ch=3 n=4 v=100
7235950 Off ch=3 n=14 v=0
7236197 On ch=3 n=16 v=100
7236199 Off ch=3 n=4 v=0
7236481 Off ch=3 n=16 v=0
7237039 On ch=3 n=5 v=100
7237633 Off ch=3 n=5 v=0
7237635 On ch=3 n=8 v=100
7237955 On ch=3 n=22 v=100
7237963 Off ch=3 n=8 v=0
7238142 On ch=3 n=20 v=100
7238144 On ch=3 n=30 v=100
7238484 Off ch=3 n=22 v=0
7238634 Off ch=3 n=20 v=0
7238656 On ch=3 n=55 v=100
7238766 Off ch=3 n=30 v=0
7238781 Off ch=3 n=55 v=0
7246172 On ch=3 n=3 v=100
7246942 Off ch=3 n=3 v=0
7268813 On ch=3 n=33 v=100
7269088 Off ch=3 n=33 v=0
7270024 On ch=3 n=25 v=100
7270144 On ch=3 n=15 v=100
7270444 On ch=3 n=28 v=100
7270607 Off ch=3 n=25 v=0
7270619 Off ch=3 n=15 v=0
7270738 Off ch=3 n=28 v=0
7271043 On ch=3 n=3 v=100
7271494 Off ch=3 n=3 v=0
7271627 On ch=3 n=0 v=100
7273478 Off ch=3 n=0 v=0
7273523 On ch=3 n=9 v=100
7274054 On ch=3 n=1 v=100
7274086 Off ch=3 n=9 v=0
7274983 Off ch=3 n=1 v=0
7275151 On ch=3 n=6 v=100
7276109 Off ch=3 n=6 v=0
7278239 On ch=3 n=17 v=100
7278246 On ch=3 n=6 v=100
7278452 On ch=3 n=5 v=100
7278462 Off ch=3 n=6 v=0
7278527 Off ch=3 n=17 v=0
7278673 On ch=3 n=3 v=100
7278673 Off ch=3 n=5 v=0
7278796 On ch=3 n=12 v=100
7278802 Off ch=3 n=3 v=0
7278898 Off ch=3 n=12 v=0
7280002 On ch=3 n=27 v=100
7280093 Off ch=3 n=27 v=0
7280206 On ch=3 n=50 v=100
7280212 On ch=3 n=29 v=100
7280227 On ch=3 n=27 v=100
7280387 Off ch=3 n=29 v=0
7280407 Off ch=3 n=27 v=0
7280556 Off ch=3 n=50 v=0
7280910 On ch=3 n=25 v=100
7281069 On ch=3 n=35 v=100
7281069 On ch=3 n=35 v=100
7281123 Off ch=3 n=25 v=0
7281142 On ch=3 n=29 v=100
7281142 On ch=3 n=29 v=100
7281143 On ch=3 n=23 v=100
7281338 On ch=3 n=42 v=100
7281416 Off ch=3 n=23 v=0
7281423 Off ch=3 n=35 v=0
7281423 Off ch=3 n=35 v=0
7281483 Off ch=3 n=29 v=0
7281483 Off ch=3 n=29 v=0
7281521 Off ch=3 n=42 v=0
7284823 On ch=3 n=16 v=100
7285468 On ch=3 n=7 v=100
7285468 Off ch=3 n=16 v=0
7285586 Off ch=3 n=7 v=0
7285605 On ch=3 n=5 v=100
7285757 Off ch=3 n=5 v=0
7286348 On ch=3 n=40 v=100
7286370 On ch=3 n=17 v=100
7286465 Off ch=3 n=40 v=0
7286465 Off ch=3 n=17 v=0
7286680 On ch=3 n=40 v=100
7286765 Off ch=3 n=40 v=0
7289846 On ch=3 n=61 v=100
7289998 On ch=3 n=8 v=100
7290068 Off ch=3 n=61 v=0
7290489 Off ch=3 n=8 v=0
7290513 On ch=3 n=17 v=100
7290809 Off ch=3 n=17 v=0
7291250 On ch=3 n=15 v=100
7291787 On ch=3 n=9 v=100
7291787 Off ch=3 n=15 v=0
7291938 Off ch=3 n=9 v=0
7291967 On ch=3 n=21 v=100
7292290 Off ch=3 n=21 v=0
7293760 On ch=3 n=32 v=100
7293836 On ch=3 n=14 v=100
7293941 Off ch=3 n=32 v=0
7293961 Off ch=3 n=14 v=0
7294195 On ch=3 n=43 v=100
7294217 On ch=3 n=19 v=100
7294334 Off ch=3 n=19 v=0
7294335 Off ch=3 n=43 v=0
7294768 On ch=3 n=18 v=100
7294858 Off ch=3 n=18 v=0
7295097 On ch=3 n=11 v=100
7295152 Off ch=3 n=11 v=0
7295677 On ch=3 n=23 v=100
7295823 On ch=3 n=9 v=100
7295854 Off ch=3 n=23 v=0
7295854 Off ch=3 n=9 v=0
7295885 On ch=3 n=9 v=100
7296100 Off ch=3 n=9 v=0
7296140 On ch=3 n=9 v=100
7296340 On ch=3 n=12 v=100
7296341 Off ch=3 n=9 v=0
7296415 On ch=3 n=18 v=100
7296465 Off ch=3 n=12 v=0
7296775 On ch=3 n=16 v=100
7296784 Off ch=3 n=18 v=0
7296878 Off ch=3 n=16 v=0
7296987 On ch=3 n=25 v=100
7297128 On ch=3 n=12 v=100
7297490 Off ch=3 n=12 v=0
7297492 Off ch=3 n=25 v=0
7298157 On ch=3 n=7 v=100
7298403 On ch=3 n=16 v=100
7298438 Off ch=3 n=7 v=0
7298463 Off ch=3 n=16 v=0
7299430 On ch=3 n=34 v=100
7299452 On ch=3 n=21 v=100
7299467 On ch=3 n=46 v=100
7299564 Off ch=3 n=34 v=0
7299566 Off ch=3 n=21 v=0
7299652 On ch=3 n=17 v=100
7299694 Off ch=3 n=46 v=0
7299842 Off ch=3 n=17 v=0
7301164 On ch=3 n=35 v=100
7301290 Off ch=3 n=35 v=0
7301293 On ch=3 n=15 v=100
7301345 Off ch=3 n=15 v=0
7301439 On ch=3 n=8 v=100
7301782 Off ch=3 n=8 v=0
7302043 On ch=3 n=7 v=100
7303167 Off ch=3 n=7 v=0
7303717 On ch=3 n=26 v=100
7303806 Off ch=3 n=26 v=0
7305316 On ch=3 n=23 v=100
7305352 On ch=3 n=14 v=100
7305399 Off ch=3 n=23 v=0
7305458 Off ch=3 n=14 v=0
7305836 On ch=3 n=24 v=100
7305893 On ch=3 n=7 v=100
7306179 Off ch=3 n=7 v=0
7306182 Off ch=3 n=24 v=0
7306997 On ch=3 n=14 v=100
7307030 On ch=3 n=28 v=100
7307041 Off ch=3 n=14 v=0
7307047 On ch=3 n=16 v=100
7307110 Off ch=3 n=16 v=0
7307115 On ch=3 n=15 v=100
7307118 Off ch=3 n=28 v=0
7307649 Off ch=3 n=15 v=0
7307709 On ch=3 n=35 v=100
7307775 Off ch=3 n=35 v=0
7307919 On ch=3 n=20 v=100
7308008 Off ch=3 n=20 v=0
7308015 On ch=3 n=5 v=100
7308436 Off ch=3 n=5 v=0
7308438 On ch=3 n=21 v=100
7308632 On ch=3 n=29 v=100
7308649 Off ch=3 n=21 v=0
7308657 On ch=3 n=14 v=100
7308658 On ch=3 n=27 v=100
7308722 Off ch=3 n=29 v=0
7308741 Off ch=3 n=14 v=0
7308760 Off ch=3 n=27 v=0
7308916 On ch=3 n=5 v=100
7310539 Off ch=3 n=5 v=0
7311027 On ch=3 n=44 v=100
7311027 On ch=3 n=44 v=100
7311077 On ch=3 n=21 v=100
7311077 On ch=3 n=21 v=100
7311110 On ch=3 n=25 v=100
7311110 On ch=3 n=25 v=100
7311182 Off ch=3 n=44 v=0
7311182 Off ch=3 n=44 v=0
7311252 Off ch=3 n=21 v=0
7311252 Off ch=3 n=21 v=0
7311299 Off ch=3 n=25 v=0
7311299 Off ch=3 n=25 v=0
7311439 On ch=3 n=29 v=100
7311560 On ch=3 n=39 v=100
7311592 On ch=3 n=33 v=100
7311593 Off ch=3 n=29 v=0
7311625 On ch=3 n=40 v=100
7311709 Off ch=3 n=39 v=0
7311739 Off ch=3 n=33 v=0
7311938 Off ch=3 n=40 v=0
7313121 On ch=3 n=18 v=100
7313191 Off ch=3 n=18 v=0
7314360 On ch=3 n=8 v=100
7314622 Off ch=3 n=8 v=0
7316862 On ch=3 n=2 v=100
7317946 Off ch=3 n=2 v=0
7318423 On ch=3 n=8 v=100
7319080 Off ch=3 n=8 v=0
7319601 On ch=3 n=8 v=100
7319800 On ch=3 n=33 v=100
7319874 Off ch=3 n=8 v=0
7319916 Off ch=3 n=33 v=0
7328436 On ch=3 n=7 v=100
7328849 Off ch=3 n=7 v=0
7330089 On ch=3 n=41 v=100
7330167 On ch=3 n=35 v=100
7330238 On ch=3 n=36 v=100
7330239 On ch=3 n=20 v=100
7330368 Off ch=3 n=20 v=0
7330373 Off ch=3 n=35 v=0
7330375 Off ch=3 n=41 v=0
7330424 On ch=3 n=41 v=100
7330499 Off ch=3 n=36 v=0
7330580 Off ch=3 n=41 v=0
7330654 On ch=3 n=8 v=100
7330895 On ch=3 n=40 v=100
7331020 Off ch=3 n=8 v=0
7331046 On ch=3 n=8 v=100
7331046 On ch=3 n=23 v=100
7331046 On ch=3 n=14 v=100
7331193 Off ch=3 n=40 v=0
7331268 Off ch=3 n=8 v=0
7331269 On ch=3 n=8 v=100
7331332 Off ch=3 n=14 v=0
7331370 Off ch=3 n=23 v=0
7331815 On ch=3 n=27 v=100
7331960 Off ch=3 n=8 v=0
7331966 On ch=3 n=13 v=100
7331978 Off ch=3 n=27 v=0
7332050 Off ch=3 n=13 v=0
7333837 On ch=3 n=31 v=100
7333889 On ch=3 n=4 v=100
7334161 Off ch=3 n=31 v=0
7334161 Off ch=3 n=4 v=0
7335467 On ch=3 n=32 v=100
7335468 On ch=3 n=43 v=100
7335538 Off ch=3 n=32 v=0
7335564 Off ch=3 n=43 v=0
7335623 On ch=3 n=27 v=100
7335738 Off ch=3 n=27 v=0
7337198 On ch=3 n=8 v=100
7337355 On ch=3 n=23 v=100
7337359 Off ch=3 n=8 v=0
7339293 Off ch=3 n=23 v=0
7339296 On ch=3 n=13 v=100
7339714 Off ch=3 n=13 v=0
7340604 On ch=3 n=20 v=100
7340677 Off ch=3 n=20 v=0
7341926 On ch=3 n=51 v=100
7341971 On ch=3 n=26 v=100
7341978 On ch=3 n=46 v=100
7341978 On ch=3 n=46 v=100
7342064 On ch=3 n=28 v=100
7342064 On ch=3 n=28 v=100
7342091 On ch=3 n=21 v=100
7342192 Off ch=3 n=26 v=0
7342192 Off ch=3 n=21 v=0
7342200 Off ch=3 n=51 v=0
7342201 On ch=3 n=29 v=100
7342231 Off ch=3 n=28 v=0
7342231 Off ch=3 n=28 v=0
7342269 Off ch=3 n=46 v=0
7342269 Off ch=3 n=46 v=0
7342338 Off ch=3 n=29 v=0
7342509 On ch=3 n=30 v=100
7342661 On ch=3 n=6 v=100
7342842 Off ch=3 n=30 v=0
7343523 On ch=3 n=22 v=100
7343525 Off ch=3 n=6 v=0
7343535 On ch=3 n=18 v=100
7343582 Off ch=3 n=22 v=0
7343582 Off ch=3 n=18 v=0
7343583 On ch=3 n=3 v=100
7343707 Off ch=3 n=3 v=0
7345020 On ch=3 n=26 v=100
7345084 Off ch=3 n=26 v=0
7345111 On ch=3 n=26 v=100
7345111 On ch=3 n=2 v=100
7345142 Off ch=3 n=26 v=0
7345755 Off ch=3 n=2 v=0
7345855 On ch=3 n=2 v=100
7346037 On ch=3 n=36 v=100
7346134 Off ch=3 n=2 v=0
7346215 Off ch=3 n=36 v=0
7347539 On ch=3 n=15 v=100
7347789 Off ch=3 n=15 v=0
7347831 On ch=3 n=65 v=100
7348058 On ch=3 n=38 v=100
7348111 On ch=3 n=26 v=100
7348149 On ch=3 n=31 v=100
7348149 On ch=3 n=31 v=100
7348160 On ch=3 n=12 v=100
7348342 On ch=3 n=12 v=100
7348348 Off ch=3 n=12 v=0
7348354 Off ch=3 n=65 v=0
7348375 Off ch=3 n=38 v=0
7348476 Off ch=3 n=26 v=0
7348536 Off ch=3 n=31 v=0
7348536 Off ch=3 n=31 v=0
7348818 On ch=3 n=35 v=100
7348964 Off ch=3 n=12 v=0
7348980 On ch=3 n=13 v=100
7348995 Off ch=3 n=35 v=0
7354483 Off ch=3 n=13 v=0
7354582 On ch=3 n=13 v=100
7355001 Off ch=3 n=13 v=0
7355056 On ch=3 n=29 v=100
7357223 Off ch=3 n=29 v=0
7357300 On ch=3 n=29 v=100
7366608 Off ch=3 n=29 v=0
7366704 On ch=3 n=29 v=100
7367192 Off ch=3 n=29 v=0
7368566 On ch=3 n=15 v=100
7369367 Off ch=3 n=15 v=0
7369420 On ch=3 n=15 v=100
7372508 Off ch=3 n=15 v=0
7374366 On ch=3 n=12 v=100
7374729 Off ch=3 n=12 v=0
7375473 On ch=3 n=18 v=100
7375562 Off ch=3 n=18 v=0
7375563 On ch=3 n=10 v=100
7375617 On ch=3 n=38 v=100
7375663 Off ch=3 n=10 v=0
7375672 On ch=3 n=10 v=100
7375841 Off ch=3 n=38 v=0
7375895 On ch=3 n=9 v=100
7375897 Off ch=3 n=10 v=0
7375985 Off ch=3 n=9 v=0
7376063 On ch=3 n=9 v=100
7376063 On ch=3 n=26 v=100
7376116 Off ch=3 n=9 v=0
7376148 Off ch=3 n=26 v=0
7376490 On ch=3 n=18 v=100
7376571 On ch=3 n=19 v=100
7376938 Off ch=3 n=18 v=0
7376987 Off ch=3 n=19 v=0
7377127 On ch=3 n=5 v=100
7377773 On ch=3 n=17 v=100
7377785 On ch=3 n=31 v=100
7377989 On ch=3 n=3 v=100
7377995 Off ch=3 n=5 v=0
7378151 Off ch=3 n=17 v=0
7378221 Off ch=3 n=31 v=0
7378455 On ch=3 n=3 v=100
7378455 Off ch=3 n=3 v=0
7378596 Off ch=3 n=3 v=0
7378984 On ch=3 n=16 v=100
7379036 On ch=3 n=5 v=100
7379357 Off ch=3 n=5 v=0
7379361 Off ch=3 n=16 v=0
7379556 On ch=3 n=3 v=100
7380572 Off ch=3 n=3 v=0
7382740 On ch=3 n=19 v=100
7383043 Off ch=3 n=19 v=0
7383877 On ch=3 n=21 v=100
7384179 On ch=3 n=49 v=100
7384207 Off ch=3 n=21 v=0
7384244 Off ch=3 n=49 v=0
7388251 On ch=3 n=24 v=100
7388308 Off ch=3 n=24 v=0
7389587 On ch=3 n=26 v=100
7389786 On ch=3 n=26 v=100
7389845 Off ch=3 n=26 v=0
7389880 Off ch=3 n=26 v=0
7389975 On ch=3 n=9 v=100
7390185 Off ch=3 n=9 v=0
7390225 On ch=3 n=9 v=100
7390237 Off ch=3 n=9 v=0
7392360 On ch=3 n=48 v=100
7392503 Off ch=3 n=48 v=0
7392624 On ch=3 n=5 v=100
7392884 Off ch=3 n=5 v=0
7403022 On ch=3 n=28 v=100
7403072 On ch=3 n=42 v=100
7403084 On ch=3 n=2 v=100
7403161 Off ch=3 n=28 v=0
7403181 Off ch=3 n=42 v=0
7405560 Off ch=3 n=2 v=0
7406304 On ch=3 n=16 v=100
7406515 On ch=3 n=3 v=100
7406533 Off ch=3 n=16 v=0
7407234 Off ch=3 n=3 v=0
7407421 On ch=3 n=19 v=100
7407588 Off ch=3 n=19 v=0
7409109 On ch=3 n=17 v=100
7409153 Off ch=3 n=17 v=0
7410828 On ch=3 n=16 v=100
7411042 Off ch=3 n=16 v=0
7411949 On ch=3 n=27 v=100
7412089 Off ch=3 n=27 v=0
7413858 On ch=3 n=29 v=100
7414042 Off ch=3 n=29 v=0
7415678 On ch=3 n=14 v=100
7415892 Off ch=3 n=14 v=0
7417063 On ch=3 n=4 v=100
7418726 On ch=3 n=33 v=100
7418727 Off ch=3 n=4 v=0
7419064 Off ch=3 n=33 v=0
7419795 On ch=3 n=34 v=100
7419915 Off ch=3 n=34 v=0
7420437 On ch=3 n=15 v=100
7421494 On ch=3 n=8 v=100
7421496 Off ch=3 n=15 v=0
7421784 Off ch=3 n=8 v=0
7421786 On ch=3 n=6 v=100
7421818 Off ch=3 n=6 v=0
7421941 On ch=3 n=6 v=100
7422153 Off ch=3 n=6 v=0
7423040 On ch=3 n=3 v=100
7424482 Off ch=3 n=3 v=0
7426002 On ch=3 n=9 v=100
7426384 Off ch=3 n=9 v=0
7426657 On ch=3 n=11 v=100
7427102 Off ch=3 n=11 v=0
7427360 On ch=3 n=7 v=100
7427389 On ch=3 n=17 v=100
7427544 On ch=3 n=12 v=100
7427605 Off ch=3 n=7 v=0
7427861 Off ch=3 n=12 v=0
7427863 On ch=3 n=12 v=100
7427863 On ch=3 n=23 v=100
7427865 Off ch=3 n=17 v=0
7428301 Off ch=3 n=12 v=0
7428334 On ch=3 n=10 v=100
7428396 Off ch=3 n=23 v=0
7428479 Off ch=3 n=10 v=0
7428561 On ch=3 n=8 v=100
7428977 Off ch=3 n=8 v=0
7428997 On ch=3 n=8 v=100
7429780 On ch=3 n=3 v=100
7429780 Off ch=3 n=8 v=0
7430320 On ch=3 n=39 v=100
7430320 On ch=3 n=39 v=100
7430416 Off ch=3 n=3 v=0
7430418 On ch=3 n=7 v=100
7430418 On ch=3 n=7 v=100
7430486 Off ch=3 n=39 v=0
7430486 Off ch=3 n=39 v=0
7430761 On ch=3 n=16 v=100
7430843 Off ch=3 n=7 v=0
7430843 Off ch=3 n=7 v=0
7430850 On ch=3 n=9 v=100
7430850 On ch=3 n=9 v=100
7430856 Off ch=3 n=16 v=0
7430939 Off ch=3 n=9 v=0
7430939 Off ch=3 n=9 v=0
7435007 On ch=3 n=10 v=100
7435023 On ch=3 n=17 v=100
7435164 Off ch=3 n=10 v=0
7435183 Off ch=3 n=17 v=0
7435724 On ch=3 n=39 v=100
7435852 Off ch=3 n=39 v=0
7435938 On ch=3 n=39 v=100
7435938 On ch=3 n=31 v=100
7436165 Off ch=3 n=39 v=0
7436373 On ch=3 n=18 v=100
7436419 Off ch=3 n=31 v=0
7436674 Off ch=3 n=18 v=0
7439016 On ch=3 n=10 v=100
7439694 Off ch=3 n=10 v=0
7440035 On ch=3 n=9 v=100
7440035 On ch=3 n=20 v=100
7440128 Off ch=3 n=9 v=0
7440154 Off ch=3 n=20 v=0
7440326 On ch=3 n=49 v=100
7440513 On ch=3 n=28 v=100
7440588 On ch=3 n=22 v=100
7440672 On ch=3 n=22 v=100
7440702 On ch=3 n=17 v=100
7440703 On ch=3 n=12 v=100
7440752 Off ch=3 n=49 v=0
7441038 Off ch=3 n=22 v=0
7441042 Off ch=3 n=28 v=0
7441045 Off ch=3 n=12 v=0
7441118 Off ch=3 n=22 v=0
7441132 On ch=3 n=18 v=100
7441201 Off ch=3 n=17 v=0
7441672 Off ch=3 n=18 v=0
7441817 On ch=3 n=30 v=100
7441989 Off ch=3 n=30 v=0
7443129 On ch=3 n=12 v=100
7443746 Off ch=3 n=12 v=0
7444935 On ch=3 n=17 v=100
7445128 Off ch=3 n=17 v=0
7446685 On ch=3 n=31 v=100
7446921 Off ch=3 n=31 v=0
7447802 On ch=3 n=4 v=100
7448342 Off ch=3 n=4 v=0
7448387 On ch=3 n=26 v=100
7448465 Off ch=3 n=26 v=0
7448658 On ch=3 n=17 v=100
7448922 Off ch=3 n=17 v=0
7448966 On ch=3 n=28 v=100
7449599 On ch=3 n=2 v=100
7449601 Off ch=3 n=28 v=0
7449984 Off ch=3 n=2 v=0
7450533 On ch=3 n=4 v=100
7450651 Off ch=3 n=4 v=0
7461736 On ch=3 n=28 v=100
7461883 Off ch=3 n=28 v=0
7464259 On ch=3 n=24 v=100
7464343 Off ch=3 n=24 v=0
7464384 On ch=3 n=19 v=100
7464457 On ch=3 n=15 v=100
7464477 Off ch=3 n=19 v=0
7464893 Off ch=3 n=15 v=0
7464966 On ch=3 n=17 v=100
7465157 Off ch=3 n=17 v=0
7466317 On ch=3 n=34 v=100
7466654 Off ch=3 n=34 v=0
7466778 On ch=3 n=16 v=100
7466783 On ch=3 n=36 v=100
7466789 On ch=3 n=13 v=100
7466872 Off ch=3 n=13 v=0
7466873 Off ch=3 n=16 v=0
7466887 Off ch=3 n=36 v=0
7467216 On ch=3 n=24 v=100
7467250 On ch=3 n=9 v=100
7467467 Off ch=3 n=24 v=0
7468775 Off ch=3 n=9 v=0
7468858 On ch=3 n=7 v=100
7469770 Off ch=3 n=7 v=0
7469801 On ch=3 n=26 v=100
7469856 Off ch=3 n=26 v=0
7469861 On ch=3 n=9 v=100
7470245 Off ch=3 n=9 v=0
7470386 On ch=3 n=7 v=100
7471526 Off ch=3 n=7 v=0
7475883 On ch=3 n=9 v=100
7476211 Off ch=3 n=9 v=0
7476212 On ch=3 n=8 v=100
7476250 Off ch=3 n=8 v=0
7476560 On ch=3 n=4 v=100
7477775 Off ch=3 n=4 v=0
7477804 On ch=3 n=4 v=100
7478326 On ch=3 n=5 v=100
7478328 Off ch=3 n=4 v=0
7478729 On ch=3 n=9 v=100
7478753 Off ch=3 n=5 v=0
7482055 On ch=3 n=56 v=100
7483313 On ch=3 n=4 v=100
7483341 Off ch=3 n=9 v=0
7483725 Off ch=3 n=56 v=0
7483725 Off ch=3 n=4 v=0
7483776 On ch=3 n=4 v=100
7485218 Off ch=3 n=4 v=0
7486418 On ch=3 n=0 v=100
7486650 Off ch=3 n=0 v=0
7487973 On ch=3 n=0 v=100
7488178 Off ch=3 n=0 v=0
7489500 On ch=3 n=0 v=100
7489705 Off ch=3 n=0 v=0
7491029 On ch=3 n=1 v=100
7491261 Off ch=3 n=1 v=0
7492583 On ch=3 n=2 v=100
7492815 Off ch=3 n=2 v=0
7492946 On ch=3 n=1 v=100
7497283 On ch=3 n=47 v=100
7497312 On ch=3 n=2 v=100
7497312 Off ch=3 n=1 v=0
7497485 Off ch=3 n=47 v=0
7499784 Off ch=3 n=2 v=0
7501006 On ch=3 n=0 v=100
7501238 Off ch=3 n=0 v=0
7502562 On ch=3 n=0 v=100
7502794 Off ch=3 n=0 v=0
7504118 On ch=3 n=0 v=100
7504350 Off ch=3 n=0 v=0
7505674 On ch=3 n=0 v=100
7505906 Off ch=3 n=0 v=0
7507230 On ch=3 n=0 v=100
7507462 Off ch=3 n=0 v=0
7508826 On ch=3 n=2 v=100
7509910 On ch=3 n=7 v=100
7509931 Off ch=3 n=2 v=0
7510165 Off ch=3 n=7 v=0
7512187 On ch=3 n=7 v=100
7512400 Off ch=3 n=7 v=0
7512404 On ch=3 n=3 v=100
7512485 Off ch=3 n=3 v=0
7512907 On ch=3 n=2 v=100
7515068 On ch=3 n=6 v=100
7515072 Off ch=3 n=2 v=0
7519909 Off ch=3 n=6 v=0
7522436 On ch=3 n=28 v=100
7522486 On ch=3 n=41 v=100
7522500 On ch=3 n=2 v=100
7522577 Off ch=3 n=28 v=0
7522597 Off ch=3 n=41 v=0
7524994 Off ch=3 n=2 v=0
7524996 On ch=3 n=2 v=100
7525481 On ch=3 n=56 v=100
7525664 Off ch=3 n=2 v=0
7525666 On ch=3 n=5 v=100
7525764 Off ch=3 n=56 v=0
7525774 Off ch=3 n=5 v=0
7525776 On ch=3 n=10 v=100
7526067 Off ch=3 n=10 v=0
7526375 On ch=3 n=15 v=100
7527240 Off ch=3 n=15 v=0
7527268 On ch=3 n=16 v=100
7527358 Off ch=3 n=16 v=0
7527389 On ch=3 n=41 v=100
7527567 Off ch=3 n=41 v=0
7528768 On ch=3 n=19 v=100
7528855 Off ch=3 n=19 v=0
7529986 On ch=3 n=15 v=100
7530018 On ch=3 n=19 v=100
7530188 Off ch=3 n=15 v=0
7530188 Off ch=3 n=19 v=0
7530192 On ch=3 n=9 v=100
7530568 On ch=3 n=6 v=100
7530571 Off ch=3 n=9 v=0
7530759 On ch=3 n=47 v=100
7530777 On ch=3 n=13 v=100
7530820 Off ch=3 n=6 v=0
7530833 On ch=3 n=11 v=100
7530843 On ch=3 n=18 v=100
7530850 On ch=3 n=26 v=100
7530903 Off ch=3 n=47 v=0
7531020 On ch=3 n=51 v=100
7531020 On ch=3 n=51 v=100
7531156 Off ch=3 n=13 v=0
7531178 Off ch=3 n=11 v=0
7531236 Off ch=3 n=18 v=0
7531291 On ch=3 n=21 v=100
7531354 Off ch=3 n=26 v=0
7531516 Off ch=3 n=21 v=0
7531594 On ch=3 n=27 v=100
7531596 On ch=3 n=27 v=100
7531596 On ch=3 n=27 v=100
7531660 Off ch=3 n=51 v=0
7531660 Off ch=3 n=51 v=0
7531690 Off ch=3 n=27 v=0
7531719 Off ch=3 n=27 v=0
7531719 Off ch=3 n=27 v=0
7531917 On ch=3 n=13 v=100
7531995 Off ch=3 n=13 v=0
7532629 On ch=3 n=7 v=100
7532902 On ch=3 n=20 v=100
7532926 Off ch=3 n=7 v=0
7532943 On ch=3 n=14 v=100
7533163 Off ch=3 n=20 v=0
7533173 Off ch=3 n=14 v=0
7533177 On ch=3 n=8 v=100
7533415 Off ch=3 n=8 v=0
7534087 On ch=3 n=10 v=100
7534348 Off ch=3 n=10 v=0
7534423 On ch=3 n=10 v=100
7534613 Off ch=3 n=10 v=0
7534721 On ch=3 n=19 v=100
7534804 On ch=3 n=11 v=100
7534810 Off ch=3 n=19 v=0
7535256 Off ch=3 n=11 v=0
7535364 On ch=3 n=21 v=100
7535456 On ch=3 n=18 v=100
7535469 Off ch=3 n=21 v=0
7535694 On ch=3 n=14 v=100
7535739 Off ch=3 n=18 v=0
7535792 On ch=3 n=6 v=100
7535793 Off ch=3 n=14 v=0
7536350 Off ch=3 n=6 v=0
7536360 On ch=3 n=9 v=100
7536536 Off ch=3 n=9 v=0
7536545 On ch=3 n=9 v=100
7536551 On ch=3 n=21 v=100
7536940 Off ch=3 n=9 v=0
7536949 On ch=3 n=7 v=100
7537039 On ch=3 n=61 v=100
7537091 Off ch=3 n=21 v=0
7537191 On ch=3 n=9 v=100
7537237 Off ch=3 n=7 v=0
7537642 Off ch=3 n=61 v=0
7537672 Off ch=3 n=9 v=0
7537708 On ch=3 n=33 v=100
7537708 On ch=3 n=33 v=100
7537816 Off ch=3 n=33 v=0
7537816 Off ch=3 n=33 v=0
7538003 On ch=3 n=14 v=100
7538088 Off ch=3 n=14 v=0
7538274 On ch=3 n=9 v=100
7538360 On ch=3 n=9 v=100
7538361 Off ch=3 n=9 v=0
7538425 Off ch=3 n=9 v=0
7538816 On ch=3 n=10 v=100
7539315 Off ch=3 n=10 v=0
7540879 On ch=3 n=19 v=100
7541318 Off ch=3 n=19 v=0
7541659 On ch=3 n=22 v=100
7542167 Off ch=3 n=22 v=0
7542424 On ch=3 n=19 v=100
7542425 On ch=3 n=15 v=100
7542509 Off ch=3 n=19 v=0
7542521 Off ch=3 n=15 v=0
7544361 On ch=3 n=24 v=100
7544426 On ch=3 n=11 v=100
7544460 Off ch=3 n=24 v=0
7544530 Off ch=3 n=11 v=0
7545020 On ch=3 n=24 v=100
7545032 On ch=3 n=20 v=100
7545103 Off ch=3 n=24 v=0
7545148 On ch=3 n=9 v=100
7545683 Off ch=3 n=9 v=0
7545687 Off ch=3 n=20 v=0
7546590 On ch=3 n=16 v=100
7546943 On ch=3 n=25 v=100
7546943 Off ch=3 n=16 v=0
7547071 Off ch=3 n=25 v=0
7550524 On ch=3 n=4 v=100
7550999 Off ch=3 n=4 v=0
7551359 On ch=3 n=54 v=100
7551649 Off ch=3 n=54 v=0
7553365 On ch=3 n=3 v=100
7554508 Off ch=3 n=3 v=0
7559764 On ch=3 n=10 v=100
7560316 Off ch=3 n=10 v=0
7562735 On ch=3 n=6 v=100
7562785 Off ch=3 n=6 v=0
7563157 On ch=3 n=27 v=100
7563159 On ch=3 n=18 v=100
7563218 Off ch=3 n=18 v=0
7563220 On ch=3 n=9 v=100
7563224 Off ch=3 n=27 v=0
7563261 Off ch=3 n=9 v=0
7563374 On ch=3 n=7 v=100
7563384 On ch=3 n=8 v=100
7563544 On ch=3 n=31 v=100
7563581 On ch=3 n=4 v=100
7563583 Off ch=3 n=8 v=0
7563607 Off ch=3 n=7 v=0
7563701 Off ch=3 n=4 v=0
7563702 Off ch=3 n=31 v=0
7564158 On ch=3 n=9 v=100
7564194 On ch=3 n=10 v=100
7564202 Off ch=3 n=9 v=0
7564233 Off ch=3 n=10 v=0
7579431 On ch=3 n=50 v=100
7579450 On ch=3 n=22 v=100
7579473 On ch=3 n=46 v=100
7579521 On ch=3 n=2 v=100
7579590 Off ch=3 n=22 v=0
7579593 Off ch=3 n=50 v=0
7579617 Off ch=3 n=46 v=0
7581256 On ch=3 n=42 v=100
7581428 Off ch=3 n=2 v=0
7581468 Off ch=3 n=42 v=0
7586593 On ch=3 n=5 v=100
7586884 Off ch=3 n=5 v=0
7589828 On ch=3 n=6 v=100
7590160 Off ch=3 n=6 v=0
7590161 On ch=3 n=13 v=100
7590201 Off ch=3 n=13 v=0
7590705 On ch=3 n=46 v=100
7590809 On ch=3 n=8 v=100
7590882 Off ch=3 n=46 v=0
7590966 Off ch=3 n=8 v=0
7595993 On ch=3 n=13 v=100
7596095 Off ch=3 n=13 v=0
7596104 On ch=3 n=3 v=100
7596166 Off ch=3 n=3 v=0
7596168 On ch=3 n=7 v=100
7596350 Off ch=3 n=7 v=0
7596371 On ch=3 n=6 v=100
7598120 On ch=3 n=3 v=100
7598121 Off ch=3 n=6 v=0
7599090 On ch=3 n=2 v=100
7599094 Off ch=3 n=3 v=0
7600194 On ch=3 n=8 v=100
7600221 Off ch=3 n=2 v=0
7600509 On ch=3 n=5 v=100
7600515 Off ch=3 n=8 v=0
7601032 On ch=3 n=47 v=100
7601051 Off ch=3 n=5 v=0
7601054 On ch=3 n=4 v=100
7601185 On ch=3 n=40 v=100
7601230 On ch=3 n=28 v=100
7601278 On ch=3 n=5 v=100
7601289 Off ch=3 n=4 v=0
7601332 Off ch=3 n=40 v=0
7601386 Off ch=3 n=47 v=0
7601446 Off ch=3 n=28 v=0
7602344 Off ch=3 n=5 v=0
7602925 On ch=3 n=18 v=100
7602960 Off ch=3 n=18 v=0
7602964 On ch=3 n=4 v=100
7603772 Off ch=3 n=4 v=0
7603807 On ch=3 n=13 v=100
7603876 On ch=3 n=36 v=100
7603934 On ch=3 n=4 v=100
7603961 Off ch=3 n=13 v=0
7603986 Off ch=3 n=36 v=0
7604781 Off ch=3 n=4 v=0
7604843 On ch=3 n=4 v=100
7605067 On ch=3 n=14 v=100
7605077 Off ch=3 n=4 v=0
7605259 On ch=3 n=9 v=100
7605260 Off ch=3 n=14 v=0
7605304 Off ch=3 n=9 v=0
7607647 On ch=3 n=9 v=100
7607970 Off ch=3 n=9 v=0
7607973 On ch=3 n=27 v=100
7608009 On ch=3 n=52 v=100
7608078 On ch=3 n=21 v=100
7608080 Off ch=3 n=27 v=0
7608192 Off ch=3 n=52 v=0
7608407 Off ch=3 n=21 v=0
7608495 On ch=3 n=11 v=100
7608504 Off ch=3 n=11 v=0
7608580 On ch=3 n=11 v=100
7608880 Off ch=3 n=11 v=0
7608910 On ch=3 n=9 v=100
7608910 On ch=3 n=16 v=100
7609201 Off ch=3 n=9 v=0
7609269 On ch=3 n=40 v=100
7609368 Off ch=3 n=16 v=0
7609436 On ch=3 n=47 v=100
7609559 Off ch=3 n=40 v=0
7609894 Off ch=3 n=47 v=0
7610152 On ch=3 n=18 v=100
7610189 On ch=3 n=17 v=100
7610385 Off ch=3 n=18 v=0
7610385 Off ch=3 n=17 v=0
7610393 On ch=3 n=35 v=100
7610474 Off ch=3 n=35 v=0
7611222 On ch=3 n=11 v=100
7611525 Off ch=3 n=11 v=0
7611863 On ch=3 n=51 v=100
7611977 On ch=3 n=11 v=100
7612107 Off ch=3 n=11 v=0
7612112 Off ch=3 n=51 v=0
7612142 On ch=3 n=48 v=100
7612177 On ch=3 n=37 v=100
7612399 Off ch=3 n=48 v=0
7612550 On ch=3 n=1 v=100
7612642 Off ch=3 n=37 v=0
7613421 On ch=3 n=6 v=100
7613473 Off ch=3 n=1 v=0
7613473 Off ch=3 n=6 v=0
7613527 On ch=3 n=6 v=100
7613923 On ch=3 n=35 v=100
7613931 Off ch=3 n=6 v=0
7614006 Off ch=3 n=35 v=0
7614043 On ch=3 n=35 v=100
7614044 On ch=3 n=1 v=100
7614070 Off ch=3 n=35 v=0
7615909 Off ch=3 n=1 v=0
7616045 On ch=3 n=3 v=100
7616185 Off ch=3 n=3 v=0
7616212 On ch=3 n=3 v=100
7616488 Off ch=3 n=3 v=0
7617999 On ch=3 n=20 v=100
7618043 Off ch=3 n=20 v=0
7622542 On ch=3 n=24 v=100
7622592 On ch=3 n=16 v=100
7622865 Off ch=3 n=24 v=0
7622897 Off ch=3 n=16 v=0
7623052 On ch=3 n=7 v=100
7623780 On ch=3 n=13 v=100
7623780 Off ch=3 n=7 v=0
7623861 On ch=3 n=7 v=100
7623861 On ch=3 n=28 v=100
7623862 Off ch=3 n=13 v=0
7623902 Off ch=3 n=7 v=0
7623980 Off ch=3 n=28 v=0
7624034 On ch=3 n=27 v=100
7624171 Off ch=3 n=27 v=0
7624943 On ch=3 n=6 v=100
7625985 Off ch=3 n=6 v=0
7629404 On ch=3 n=13 v=100
7629418 On ch=3 n=8 v=100
7629482 Off ch=3 n=13 v=0
7629562 On ch=3 n=4 v=100
7629563 Off ch=3 n=8 v=0
7630475 Off ch=3 n=4 v=0
7630526 On ch=3 n=10 v=100
7630811 Off ch=3 n=10 v=0
7638835 On ch=3 n=14 v=100
7640793 On ch=3 n=11 v=100
7640796 Off ch=3 n=14 v=0
7641133 Off ch=3 n=11 v=0
7647512 On ch=3 n=2 v=100
7648174 Off ch=3 n=2 v=0
7650096 On ch=3 n=3 v=100
7650384 Off ch=3 n=3 v=0
7650425 On ch=3 n=3 v=100
7650995 Off ch=3 n=3 v=0
7651022 On ch=3 n=3 v=100
7651567 Off ch=3 n=3 v=0
7657995 On ch=3 n=12 v=100
7658351 Off ch=3 n=12 v=0
7658437 On ch=3 n=12 v=100
7658867 Off ch=3 n=12 v=0
7658870 On ch=3 n=8 v=100
7659087 Off ch=3 n=8 v=0
7660425 On ch=3 n=10 v=100
7660723 On ch=3 n=13 v=100
7660739 Off ch=3 n=10 v=0
7660837 On ch=3 n=9 v=100
7660847 Off ch=3 n=13 v=0
7661266 Off ch=3 n=9 v=0
7661268 On ch=3 n=9 v=100
7661557 Off ch=3 n=9 v=0
7661868 On ch=3 n=15 v=100
7662752 On ch=3 n=10 v=100
7662767 Off ch=3 n=15 v=0
7663069 On ch=3 n=9 v=100
7663069 Off ch=3 n=10 v=0
7663526 Off ch=3 n=9 v=0
7664820 On ch=3 n=20 v=100
7665045 On ch=3 n=5 v=100
7665068 Off ch=3 n=20 v=0
7665100 On ch=3 n=6 v=100
7665100 Off ch=3 n=5 v=0
7665799 Off ch=3 n=6 v=0
7666682 On ch=3 n=7 v=100
7667152 On ch=3 n=6 v=100
7667166 Off ch=3 n=7 v=0
7667389 On ch=3 n=12 v=100
7667592 Off ch=3 n=6 v=0
7667629 Off ch=3 n=12 v=0
7667631 On ch=3 n=18 v=100
7668289 Off ch=3 n=18 v=0
7668974 On ch=3 n=3 v=100
7669096 Off ch=3 n=3 v=0
7669113 On ch=3 n=21 v=100
7669114 On ch=3 n=5 v=100
7669143 On ch=3 n=28 v=100
7669148 On ch=3 n=15 v=100
7669184 Off ch=3 n=5 v=0
7669209 Off ch=3 n=21 v=0
7669224 Off ch=3 n=15 v=0
7669255 Off ch=3 n=28 v=0
7669457 On ch=3 n=37 v=100
7669494 On ch=3 n=8 v=100
7669768 Off ch=3 n=37 v=0
7669770 Off ch=3 n=8 v=0
7670480 On ch=3 n=15 v=100
7670596 On ch=3 n=18 v=100
7670609 Off ch=3 n=15 v=0
7670656 Off ch=3 n=18 v=0
7670795 On ch=3 n=6 v=100
7672020 Off ch=3 n=6 v=0
7672095 On ch=3 n=6 v=100
7672193 Off ch=3 n=6 v=0
7672223 On ch=3 n=6 v=100
7672479 Off ch=3 n=6 v=0
7673033 On ch=3 n=4 v=100
7673854 Off ch=3 n=4 v=0
7674212 On ch=3 n=29 v=100
7674347 Off ch=3 n=29 v=0
7675646 On ch=3 n=21 v=100
7675689 Off ch=3 n=21 v=0
7676296 On ch=3 n=5 v=100
7676786 On ch=3 n=10 v=100
7676786 Off ch=3 n=5 v=0
7677159 On ch=3 n=9 v=100
7677181 Off ch=3 n=10 v=0
7677373 On ch=3 n=11 v=100
7677376 Off ch=3 n=9 v=0
7677387 Off ch=3 n=11 v=0
7677484 On ch=3 n=11 v=100
7677571 Off ch=3 n=11 v=0
7677697 On ch=3 n=21 v=100
7677761 Off ch=3 n=21 v=0
7677773 On ch=3 n=8 v=100
7678029 Off ch=3 n=8 v=0
7678058 On ch=3 n=26 v=100
7678154 Off ch=3 n=26 v=0
7678319 On ch=3 n=21 v=100
7678372 On ch=3 n=3 v=100
7678542 Off ch=3 n=21 v=0
7678929 Off ch=3 n=3 v=0
7678953 On ch=3 n=8 v=100
7679239 On ch=3 n=5 v=100
7679239 Off ch=3 n=8 v=0
7679417 Off ch=3 n=5 v=0
7679536 On ch=3 n=26 v=100
7679579 Off ch=3 n=26 v=0
7679892 On ch=3 n=25 v=100
7679979 Off ch=3 n=25 v=0
7681088 On ch=3 n=6 v=100
7681155 Off ch=3 n=6 v=0
7681157 On ch=3 n=6 v=100
7681691 On ch=3 n=18 v=100
7681879 Off ch=3 n=6 v=0
7681914 Off ch=3 n=18 v=0
7684313 On ch=3 n=44 v=100
7684436 On ch=3 n=5 v=100
7684506 Off ch=3 n=44 v=0
7685248 On ch=3 n=33 v=100
7685382 Off ch=3 n=5 v=0
7685453 Off ch=3 n=33 v=0
7685464 On ch=3 n=14 v=100
7685681 Off ch=3 n=14 v=0
7685742 On ch=3 n=9 v=100
7685954 On ch=3 n=5 v=100
7685960 Off ch=3 n=9 v=0
7686394 Off ch=3 n=5 v=0
7686407 On ch=3 n=5 v=100
7686694 Off ch=3 n=5 v=0
7686740 On ch=3 n=5 v=100
7686979 Off ch=3 n=5 v=0
7687104 On ch=3 n=40 v=100
7687330 Off ch=3 n=40 v=0
7689418 On ch=3 n=8 v=100
7689969 On ch=3 n=6 v=100
7689971 Off ch=3 n=8 v=0
7691468 Off ch=3 n=6 v=0
7691469 On ch=3 n=9 v=100
7691494 Off ch=3 n=9 v=0
7691539 On ch=3 n=9 v=100
7691642 Off ch=3 n=9 v=0
7691643 On ch=3 n=8 v=100
7692205 Off ch=3 n=8 v=0
7693633 On ch=3 n=20 v=100
7693676 Off ch=3 n=20 v=0
7703711 On ch=3 n=21 v=100
7703742 On ch=3 n=52 v=100
7703742 On ch=3 n=26 v=100
7703758 Off ch=3 n=21 v=0
7703791 Off ch=3 n=26 v=0
7703816 On ch=3 n=15 v=100
7703974 Off ch=3 n=52 v=0
7704104 On ch=3 n=11 v=100
7704104 Off ch=3 n=15 v=0
7704392 Off ch=3 n=11 v=0
7708935 On ch=3 n=6 v=100
7710016 Off ch=3 n=6 v=0
7710289 On ch=3 n=16 v=100
7710826 Off ch=3 n=16 v=0
7711232 On ch=3 n=19 v=100
7711772 Off ch=3 n=19 v=0
7711780 On ch=3 n=24 v=100
7711780 On ch=3 n=28 v=100
7711873 Off ch=3 n=28 v=0
7711882 On ch=3 n=28 v=100
7711885 Off ch=3 n=24 v=0
7711923 On ch=3 n=29 v=100
7711961 Off ch=3 n=28 v=0
7711969 On ch=3 n=32 v=100
7712016 Off ch=3 n=29 v=0
7712026 On ch=3 n=26 v=100
7712051 Off ch=3 n=32 v=0
7712085 On ch=3 n=14 v=100
7712111 Off ch=3 n=26 v=0
7712244 Off ch=3 n=14 v=0
7712259 On ch=3 n=40 v=100
7712260 On ch=3 n=30 v=100
7712298 On ch=3 n=59 v=100
7712455 Off ch=3 n=30 v=0
7712496 Off ch=3 n=40 v=0
7712666 On ch=3 n=31 v=100
7712678 On ch=3 n=37 v=100
7712698 On ch=3 n=35 v=100
7712700 Off ch=3 n=59 v=0
7712822 Off ch=3 n=31 v=0
7712842 Off ch=3 n=37 v=0
7712852 Off ch=3 n=35 v=0
7712937 On ch=3 n=24 v=100
7712986 Off ch=3 n=24 v=0
7719813 On ch=3 n=30 v=100
7719964 Off ch=3 n=30 v=0
7721214 On ch=3 n=9 v=100
7722475 Off ch=3 n=9 v=0
7722477 On ch=3 n=8 v=100
7722526 Off ch=3 n=8 v=0
7722534 On ch=3 n=8 v=100
7722687 Off ch=3 n=8 v=0
7722700 On ch=3 n=6 v=100
7722792 On ch=3 n=11 v=100
7722793 Off ch=3 n=6 v=0
7722874 Off ch=3 n=11 v=0
7723229 On ch=3 n=10 v=100
7723342 On ch=3 n=8 v=100
7723343 Off ch=3 n=10 v=0
7723890 On ch=3 n=5 v=100
7723890 Off ch=3 n=8 v=0
7724751 On ch=3 n=18 v=100
7724753 Off ch=3 n=5 v=0
7724865 On ch=3 n=51 v=100
7724865 On ch=3 n=51 v=100
7724903 Off ch=3 n=18 v=0
7724910 On ch=3 n=10 v=100
7724995 Off ch=3 n=10 v=0
7724996 On ch=3 n=7 v=100
7724996 On ch=3 n=7 v=100
7725251 Off ch=3 n=51 v=0
7725251 Off ch=3 n=51 v=0
7726007 On ch=3 n=7 v=100
7726016 Off ch=3 n=7 v=0
7726016 Off ch=3 n=7 v=0
7726077 On ch=3 n=14 v=100
7726077 Off ch=3 n=7 v=0
7726299 Off ch=3 n=14 v=0
7727159 On ch=3 n=18 v=100
7727201 On ch=3 n=11 v=100
7727284 On ch=3 n=16 v=100
7727332 Off ch=3 n=18 v=0
7727332 Off ch=3 n=11 v=0
7727334 On ch=3 n=14 v=100
7727336 On ch=3 n=9 v=100
7727616 Off ch=3 n=16 v=0
7727616 Off ch=3 n=9 v=0
7727619 On ch=3 n=9 v=100
7727686 Off ch=3 n=14 v=0
7727769 On ch=3 n=10 v=100
7727772 Off ch=3 n=9 v=0
7728061 Off ch=3 n=10 v=0
7728433 On ch=3 n=19 v=100
7728626 On ch=3 n=23 v=100
7728698 On ch=3 n=52 v=100
7728854 Off ch=3 n=19 v=0
7728918 Off ch=3 n=23 v=0
7729033 Off ch=3 n=52 v=0
7729174 On ch=3 n=17 v=100
7729237 Off ch=3 n=17 v=0
7729241 On ch=3 n=13 v=100
7729343 Off ch=3 n=13 v=0
7730118 On ch=3 n=15 v=100
7730321 Off ch=3 n=15 v=0
7730802 On ch=3 n=20 v=100
7730840 Off ch=3 n=20 v=0
7731234 On ch=3 n=19 v=100
7731381 Off ch=3 n=19 v=0
7731525 On ch=3 n=6 v=100
7731809 Off ch=3 n=6 v=0
7731810 On ch=3 n=14 v=100
7732405 Off ch=3 n=14 v=0
7734141 On ch=3 n=8 v=100
7734678 On ch=3 n=12 v=100
7734789 On ch=3 n=2 v=100
7734789 Off ch=3 n=8 v=0
7734805 Off ch=3 n=12 v=0
7735992 Off ch=3 n=2 v=0
7749332 On ch=3 n=8 v=100
7749332 On ch=3 n=23 v=100
7749414 Off ch=3 n=8 v=0
7749451 Off ch=3 n=23 v=0
7752487 On ch=3 n=13 v=100
7752701 Off ch=3 n=13 v=0
7752860 On ch=3 n=4 v=100
7754482 Off ch=3 n=4 v=0
7755871 On ch=3 n=4 v=100
7755881 On ch=3 n=26 v=100
7756469 Off ch=3 n=4 v=0
7756849 On ch=3 n=20 v=100
7757009 Off ch=3 n=26 v=0
7757029 Off ch=3 n=20 v=0
7757853 On ch=3 n=7 v=100
7758035 Off ch=3 n=7 v=0
7758713 On ch=3 n=23 v=100
7758996 On ch=3 n=21 v=100
7759002 Off ch=3 n=23 v=0
7759094 Off ch=3 n=21 v=0
7759109 On ch=3 n=23 v=100
7759174 Off ch=3 n=23 v=0
7759227 On ch=3 n=9 v=100
7759739 On ch=3 n=18 v=100
7759835 Off ch=3 n=9 v=0
7759842 On ch=3 n=18 v=100
7759851 Off ch=3 n=18 v=0
7759925 Off ch=3 n=18 v=0
7764223 On ch=3 n=56 v=100
7764264 On ch=3 n=30 v=100
7764388 Off ch=3 n=56 v=0
7764392 On ch=3 n=19 v=100
7764863 Off ch=3 n=30 v=0
7764863 Off ch=3 n=19 v=0
7764971 On ch=3 n=49 v=100
7765647 Off ch=3 n=49 v=0
7768845 On ch=3 n=21 v=100
7769035 Off ch=3 n=21 v=0
7770152 On ch=3 n=23 v=100
7770235 Off ch=3 n=23 v=0
7770500 On ch=3 n=23 v=100
7770655 Off ch=3 n=23 v=0
7771058 On ch=3 n=27 v=100
7771363 Off ch=3 n=27 v=0
7771367 On ch=3 n=1 v=100
7771458 Off ch=3 n=1 v=0
7782702 On ch=3 n=20 v=100
7782940 Off ch=3 n=20 v=0
7782941 On ch=3 n=6 v=100
7783286 Off ch=3 n=6 v=0
7783293 On ch=3 n=6 v=100
7783515 On ch=3 n=43 v=100
7783697 On ch=3 n=23 v=100
7783744 Off ch=3 n=6 v=0
7783789 On ch=3 n=10 v=100
7783949 Off ch=3 n=43 v=0
7783949 Off ch=3 n=23 v=0
7783949 Off ch=3 n=10 v=0
7783951 On ch=3 n=8 v=100
7784541 Off ch=3 n=8 v=0
7784978 On ch=3 n=8 v=100
7786032 Off ch=3 n=8 v=0
7786091 On ch=3 n=12 v=100
7786091 On ch=3 n=8 v=100
7786133 Off ch=3 n=8 v=0
7786373 On ch=3 n=17 v=100
7786382 Off ch=3 n=12 v=0
7786384 On ch=3 n=3 v=100
7786450 Off ch=3 n=17 v=0
7787423 Off ch=3 n=3 v=0
7787480 On ch=3 n=5 v=100
7787480 On ch=3 n=3 v=100
7787486 Off ch=3 n=3 v=0
7787822 On ch=3 n=21 v=100
7787890 Off ch=3 n=5 v=0
7787917 Off ch=3 n=21 v=0
7788046 On ch=3 n=3 v=100
7788618 Off ch=3 n=3 v=0
7788670 On ch=3 n=3 v=100
7792613 Off ch=3 n=3 v=0
7794725 On ch=3 n=55 v=100
7794836 Off ch=3 n=55 v=0
7795278 On ch=3 n=52 v=100
7795349 On ch=3 n=39 v=100
7795430 Off ch=3 n=52 v=0
7795432 Off ch=3 n=39 v=0
7795663 On ch=3 n=54 v=100
7795749 Off ch=3 n=54 v=0
7797486 On ch=3 n=37 v=100
7797549 On ch=3 n=28 v=100
7797947 On ch=3 n=16 v=100
7797953 Off ch=3 n=37 v=0
7797992 Off ch=3 n=28 v=0
7797996 On ch=3 n=12 v=100
7798015 On ch=3 n=19 v=100
7798015 On ch=3 n=19 v=100
7798038 On ch=3 n=14 v=100
7798384 Off ch=3 n=12 v=0
7798386 Off ch=3 n=16 v=0
7798454 Off ch=3 n=14 v=0
7798492 Off ch=3 n=19 v=0
7798492 Off ch=3 n=19 v=0
7799504 On ch=3 n=27 v=100
7799681 On ch=3 n=37 v=100
7799688 Off ch=3 n=27 v=0
7799758 Off ch=3 n=37 v=0
7799772 On ch=3 n=12 v=100
7800007 Off ch=3 n=12 v=0
7800630 On ch=3 n=27 v=100
7800694 On ch=3 n=27 v=100
7800787 Off ch=3 n=27 v=0
7800802 Off ch=3 n=27 v=0
7800825 On ch=3 n=12 v=100
7801253 Off ch=3 n=12 v=0
7801275 On ch=3 n=13 v=100
7801781 Off ch=3 n=13 v=0
7804738 On ch=3 n=29 v=100
7805058 On ch=3 n=37 v=100
7805077 On ch=3 n=21 v=100
7805078 Off ch=3 n=29 v=0
7805082 On ch=3 n=25 v=100
7805126 Off ch=3 n=37 v=0
7805151 Off ch=3 n=21 v=0
7805170 Off ch=3 n=25 v=0
7805349 On ch=3 n=24 v=100
7805690 Off ch=3 n=24 v=0
7805822 On ch=3 n=14 v=100
7806390 Off ch=3 n=14 v=0
7806844 On ch=3 n=13 v=100
7806847 On ch=3 n=31 v=100
7807034 Off ch=3 n=13 v=0
7807080 Off ch=3 n=31 v=0
7808438 On ch=3 n=2 v=100
7808543 Off ch=3 n=2 v=0
7809014 On ch=3 n=8 v=100
7809842 Off ch=3 n=8 v=0
7810143 On ch=3 n=23 v=100
7810240 Off ch=3 n=23 v=0
7811055 On ch=3 n=13 v=100
7811503 Off ch=3 n=13 v=0
7813239 On ch=3 n=24 v=100
7813525 On ch=3 n=13 v=100
7813561 Off ch=3 n=24 v=0
7813940 Off ch=3 n=13 v=0
7813941 On ch=3 n=9 v=100
7814077 Off ch=3 n=9 v=0
7814092 On ch=3 n=7 v=100
7814941 Off ch=3 n=7 v=0
7814944 On ch=3 n=11 v=100
7815220 Off ch=3 n=11 v=0
7815253 On ch=3 n=36 v=100
7815309 On ch=3 n=23 v=100
7815317 Off ch=3 n=36 v=0
7815415 Off ch=3 n=23 v=0
7815640 On ch=3 n=43 v=100
7815746 Off ch=3 n=43 v=0
7817254 On ch=3 n=48 v=100
7817383 On ch=3 n=27 v=100
7817383 On ch=3 n=27 v=100
7817405 On ch=3 n=19 v=100
7817571 On ch=3 n=30 v=100
7817583 Off ch=3 n=19 v=0
7817593 Off ch=3 n=48 v=0
7817596 Off ch=3 n=27 v=0
7817596 Off ch=3 n=27 v=0
7817648 Off ch=3 n=30 v=0
7819368 On ch=3 n=16 v=100
7819466 Off ch=3 n=16 v=0
7820031 On ch=3 n=8 v=100
7820070 Off ch=3 n=8 v=0
7820618 On ch=3 n=16 v=100
7820714 Off ch=3 n=16 v=0
7821905 On ch=3 n=11 v=100
7821970 Off ch=3 n=11 v=0
7822289 On ch=3 n=25 v=100
7822308 Off ch=3 n=25 v=0
7822694 On ch=3 n=5 v=100
7823032 Off ch=3 n=5 v=0
7823033 On ch=3 n=6 v=100
7825921 On ch=3 n=39 v=100
7825936 On ch=3 n=5 v=100
7825937 Off ch=3 n=6 v=0
7826036 Off ch=3 n=39 v=0
7826516 Off ch=3 n=5 v=0
7827556 On ch=3 n=20 v=100
7827626 Off ch=3 n=20 v=0
7827905 On ch=3 n=22 v=100
7828010 Off ch=3 n=22 v=0
7828219 On ch=3 n=29 v=100
7828470 Off ch=3 n=29 v=0
7829356 On ch=3 n=4 v=100
7829908 Off ch=3 n=4 v=0
7829954 On ch=3 n=22 v=100
7830029 Off ch=3 n=22 v=0
7830238 On ch=3 n=15 v=100
7830496 Off ch=3 n=15 v=0
7830538 On ch=3 n=24 v=100
7831267 Off ch=3 n=24 v=0
7833228 On ch=3 n=52 v=100
7833452 Off ch=3 n=52 v=0
7833518 On ch=3 n=40 v=100
7833546 On ch=3 n=38 v=100
7833605 On ch=3 n=27 v=100
7833605 On ch=3 n=34 v=100
7833713 Off ch=3 n=27 v=0
7833718 Off ch=3 n=38 v=0
7833728 Off ch=3 n=40 v=0
7833764 Off ch=3 n=34 v=0
7834809 On ch=3 n=26 v=100
7834935 Off ch=3 n=26 v=0
7834974 On ch=3 n=21 v=100
7835010 Off ch=3 n=21 v=0
7835337 On ch=3 n=12 v=100
7835604 Off ch=3 n=12 v=0
7835628 On ch=3 n=10 v=100
7835628 On ch=3 n=10 v=100
7835746 On ch=3 n=56 v=100
7836018 On ch=3 n=28 v=100
7836018 On ch=3 n=28 v=100
7836069 Off ch=3 n=10 v=0
7836069 Off ch=3 n=10 v=0
7836071 On ch=3 n=10 v=100
7836254 On ch=3 n=60 v=100
7836254 On ch=3 n=60 v=100
7836264 On ch=3 n=5 v=100
7836264 Off ch=3 n=10 v=0
7836271 Off ch=3 n=56 v=0
7836292 Off ch=3 n=28 v=0
7836292 Off ch=3 n=28 v=0
7836336 Off ch=3 n=5 v=0
7836350 On ch=3 n=8 v=100
7836393 On ch=3 n=39 v=100
7836424 On ch=3 n=2 v=100
7836424 On ch=3 n=2 v=100
7836428 Off ch=3 n=8 v=0
7836521 Off ch=3 n=39 v=0
7836555 Off ch=3 n=60 v=0
7836555 Off ch=3 n=60 v=0
7838882 Off ch=3 n=2 v=0
7838882 Off ch=3 n=2 v=0
7839904 On ch=3 n=3 v=100
7841251 Off ch=3 n=3 v=0
7841339 On ch=3 n=28 v=100
7841371 Off ch=3 n=28 v=0
7841438 On ch=3 n=21 v=100
7841594 Off ch=3 n=21 v=0
7844507 On ch=3 n=15 v=100
7844547 Off ch=3 n=15 v=0
7846240 On ch=3 n=15 v=100
7846454 Off ch=3 n=15 v=0
7846741 On ch=3 n=6 v=100
7847161 On ch=3 n=21 v=100
7847252 Off ch=3 n=6 v=0
7847289 Off ch=3 n=21 v=0
7847998 On ch=3 n=43 v=100
7848366 Off ch=3 n=43 v=0
7848735 On ch=3 n=27 v=100
7848918 Off ch=3 n=27 v=0
7851790 On ch=3 n=13 v=100
7851903 Off ch=3 n=13 v=0
7852457 On ch=3 n=23 v=100
7852457 On ch=3 n=23 v=100
7852509 On ch=3 n=7 v=100
7852821 Off ch=3 n=7 v=0
7852850 Off ch=3 n=23 v=0
7852850 Off ch=3 n=23 v=0
7854479 On ch=3 n=12 v=100
7854667 Off ch=3 n=12 v=0
7854910 On ch=3 n=1 v=100
7855868 Off ch=3 n=1 v=0
7855923 On ch=3 n=1 v=100
7856518 Off ch=3 n=1 v=0
7856981 On ch=3 n=42 v=100
7857076 On ch=3 n=32 v=100
7857149 On ch=3 n=20 v=100
7857154 Off ch=3 n=42 v=0
7857196 Off ch=3 n=32 v=0
7857247 Off ch=3 n=20 v=0
7857391 On ch=3 n=19 v=100
7857474 Off ch=3 n=19 v=0
7857535 On ch=3 n=8 v=100
7858163 Off ch=3 n=8 v=0
7858169 On ch=3 n=21 v=100
7858253 Off ch=3 n=21 v=0
7862405 On ch=3 n=41 v=100
7862699 On ch=3 n=30 v=100
7862839 On ch=3 n=19 v=100
7863011 On ch=3 n=20 v=100
7863347 Off ch=3 n=30 v=0
7863349 Off ch=3 n=41 v=0
7863349 Off ch=3 n=19 v=0
7863417 On ch=3 n=7 v=100
7863571 Off ch=3 n=20 v=0
7863951 Off ch=3 n=7 v=0
7863955 On ch=3 n=5 v=100
7864547 Off ch=3 n=5 v=0
7865105 On ch=3 n=10 v=100
7865751 Off ch=3 n=10 v=0
7865760 On ch=3 n=24 v=100
7865910 Off ch=3 n=24 v=0
7865967 On ch=3 n=24 v=100
7866237 Off ch=3 n=24 v=0
7866304 On ch=3 n=28 v=100
7866454 Off ch=3 n=28 v=0
7866483 On ch=3 n=15 v=100
7866579 On ch=3 n=5 v=100
7866590 Off ch=3 n=15 v=0
7866699 Off ch=3 n=5 v=0
7867860 On ch=3 n=43 v=100
7867973 On ch=3 n=46 v=100
7867975 On ch=3 n=28 v=100
7867979 On ch=3 n=30 v=100
7868086 Off ch=3 n=28 v=0
7868101 On ch=3 n=32 v=100
7868125 Off ch=3 n=43 v=0
7868130 Off ch=3 n=30 v=0
7868178 Off ch=3 n=46 v=0
7868314 Off ch=3 n=32 v=0
7868322 On ch=3 n=32 v=100
7868373 Off ch=3 n=32 v=0
7868419 On ch=3 n=19 v=100
7868420 On ch=3 n=12 v=100
7868489 On ch=3 n=35 v=100
7868554 Off ch=3 n=12 v=0
7868596 Off ch=3 n=19 v=0
7868664 Off ch=3 n=35 v=0
7869065 On ch=3 n=13 v=100
7869171 On ch=3 n=15 v=100
7869221 Off ch=3 n=13 v=0
7869270 On ch=3 n=15 v=100
7869305 On ch=3 n=16 v=100
7869311 On ch=3 n=13 v=100
7869334 Off ch=3 n=15 v=0
7869558 On ch=3 n=32 v=100
7869573 Off ch=3 n=15 v=0
7869695 On ch=3 n=14 v=100
7869737 Off ch=3 n=13 v=0
7869788 Off ch=3 n=16 v=0
7869910 Off ch=3 n=32 v=0
7869999 On ch=3 n=30 v=100
7869999 Off ch=3 n=14 v=0
7870107 Off ch=3 n=30 v=0
7870247 On ch=3 n=30 v=100
7870319 Off ch=3 n=30 v=0
7870328 On ch=3 n=11 v=100
7870465 On ch=3 n=11 v=100
7870466 Off ch=3 n=11 v=0
7870955 On ch=3 n=24 v=100
7871031 Off ch=3 n=11 v=0
7871051 On ch=3 n=16 v=100
7871062 Off ch=3 n=24 v=0
7871135 Off ch=3 n=16 v=0
7871352 On ch=3 n=7 v=100
7872473 Off ch=3 n=7 v=0
7873086 On ch=3 n=14 v=100
7873552 On ch=3 n=16 v=100
7873554 Off ch=3 n=14 v=0
7873610 Off ch=3 n=16 v=0
7873612 On ch=3 n=22 v=100
7873637 On ch=3 n=27 v=100
7873810 Off ch=3 n=22 v=0
7873986 Off ch=3 n=27 v=0
7875170 On ch=3 n=6 v=100
7875343 On ch=3 n=10 v=100
7875345 Off ch=3 n=6 v=0
7875569 Off ch=3 n=10 v=0
7875628 On ch=3 n=10 v=100
7875885 Off ch=3 n=10 v=0
7876322 On ch=3 n=7 v=100
7876838 Off ch=3 n=7 v=0
7882155 On ch=3 n=10 v=100
7883495 Off ch=3 n=10 v=0
7883578 On ch=3 n=19 v=100
7883662 Off ch=3 n=19 v=0
7883663 On ch=3 n=10 v=100
7883826 Off ch=3 n=10 v=0
7883831 On ch=3 n=18 v=100
7883848 On ch=3 n=13 v=100
7883975 Off ch=3 n=18 v=0
7884223 Off ch=3 n=13 v=0
7884240 On ch=3 n=9 v=100
7884491 Off ch=3 n=9 v=0
7884752 On ch=3 n=27 v=100
7884823 Off ch=3 n=27 v=0
7885825 On ch=3 n=31 v=100
7886008 Off ch=3 n=31 v=0
7886664 On ch=3 n=55 v=100
7886919 Off ch=3 n=55 v=0
7888434 On ch=3 n=11 v=100
7888873 Off ch=3 n=11 v=0
7896585 On ch=3 n=38 v=100
7896644 On ch=3 n=19 v=100
7896672 Off ch=3 n=19 v=0
7896674 Off ch=3 n=38 v=0
7896682 On ch=3 n=6 v=100
7897520 Off ch=3 n=6 v=0
7900064 On ch=3 n=38 v=100
7900142 On ch=3 n=6 v=100
7900276 Off ch=3 n=38 v=0
7900458 Off ch=3 n=6 v=0
7900460 On ch=3 n=22 v=100
7900495 Off ch=3 n=22 v=0
7902542 On ch=3 n=5 v=100
7902874 Off ch=3 n=5 v=0
7902875 On ch=3 n=18 v=100
7902916 Off ch=3 n=18 v=0
7903421 On ch=3 n=47 v=100
7903525 On ch=3 n=8 v=100
7903598 Off ch=3 n=47 v=0
7903682 Off ch=3 n=8 v=0
7906932 On ch=3 n=26 v=100
7906944 On ch=3 n=6 v=100
7906962 Off ch=3 n=26 v=0
7906994 On ch=3 n=8 v=100
7906995 Off ch=3 n=6 v=0
7907135 Off ch=3 n=8 v=0
7907137 On ch=3 n=4 v=100
7907339 Off ch=3 n=4 v=0
7907360 On ch=3 n=7 v=100
7909093 On ch=3 n=51 v=100
7909161 Off ch=3 n=7 v=0
7909281 Off ch=3 n=51 v=0
7915187 On ch=3 n=7 v=100
7915270 On ch=3 n=46 v=100
7915343 Off ch=3 n=7 v=0
7915447 Off ch=3 n=46 v=0
7915947 On ch=3 n=18 v=100
7915988 Off ch=3 n=18 v=0
7915989 On ch=3 n=7 v=100
7916297 Off ch=3 n=7 v=0
7917109 On ch=3 n=0 v=100
7917262 Off ch=3 n=0 v=0
7917822 On ch=3 n=6 v=100
7918145 Off ch=3 n=6 v=0
7918273 On ch=3 n=22 v=100
7918300 On ch=3 n=25 v=100
7918346 Off ch=3 n=22 v=0
7918354 Off ch=3 n=25 v=0
7919478 On ch=3 n=35 v=100
7919609 On ch=3 n=27 v=100
7919639 On ch=3 n=38 v=100
7919647 On ch=3 n=35 v=100
7919750 Off ch=3 n=35 v=0
7919773 On ch=3 n=26 v=100
7919780 Off ch=3 n=27 v=0
7919819 Off ch=3 n=38 v=0
7919840 Off ch=3 n=35 v=0
7919929 Off ch=3 n=26 v=0
7919935 On ch=3 n=38 v=100
7919967 On ch=3 n=32 v=100
7920082 Off ch=3 n=38 v=0
7920082 Off ch=3 n=32 v=0
7920555 On ch=3 n=11 v=100
7920631 On ch=3 n=9 v=100
7920662 Off ch=3 n=11 v=0
7921228 Off ch=3 n=9 v=0
7921229 On ch=3 n=10 v=100
7922129 On ch=3 n=16 v=100
7922148 Off ch=3 n=10 v=0
7922198 On ch=3 n=16 v=100
7922198 On ch=3 n=16 v=100
7922248 Off ch=3 n=16 v=0
7922250 On ch=3 n=9 v=100
7922697 Off ch=3 n=9 v=0
7922700 On ch=3 n=20 v=100
7922713 Off ch=3 n=16 v=0
7922713 Off ch=3 n=16 v=0
7922804 Off ch=3 n=20 v=0
7922952 On ch=3 n=36 v=100
7923051 Off ch=3 n=36 v=0
7923104 On ch=3 n=8 v=100
7923646 On ch=3 n=25 v=100
7923792 Off ch=3 n=8 v=0
7923799 On ch=3 n=13 v=100
7923810 Off ch=3 n=25 v=0
7923883 Off ch=3 n=13 v=0
7924211 On ch=3 n=12 v=100
7924643 On ch=3 n=14 v=100
7924662 Off ch=3 n=12 v=0
7924729 On ch=3 n=11 v=100
7924879 On ch=3 n=5 v=100
7925425 Off ch=3 n=14 v=0
7925768 Off ch=3 n=11 v=0
7925920 Off ch=3 n=5 v=0
7925921 On ch=3 n=8 v=100
7926015 Off ch=3 n=8 v=0
7926200 On ch=3 n=10 v=100
7926299 Off ch=3 n=10 v=0
7927365 On ch=3 n=21 v=100
7927446 Off ch=3 n=21 v=0
7927460 On ch=3 n=13 v=100
7927508 Off ch=3 n=13 v=0
7927778 On ch=3 n=22 v=100
7927867 Off ch=3 n=22 v=0
7936810 On ch=3 n=20 v=100
7936854 Off ch=3 n=20 v=0
7937669 On ch=3 n=12 v=100
7937878 On ch=3 n=14 v=100
7937927 Off ch=3 n=12 v=0
7937957 Off ch=3 n=14 v=0
7938101 On ch=3 n=25 v=100
7938204 Off ch=3 n=25 v=0
7938253 On ch=3 n=9 v=100
7938659 Off ch=3 n=9 v=0
7939751 On ch=3 n=9 v=100
7939923 Off ch=3 n=9 v=0
7940072 On ch=3 n=12 v=100
7940120 On ch=3 n=37 v=100
7940149 On ch=3 n=17 v=100
7940151 Off ch=3 n=12 v=0
7940305 Off ch=3 n=37 v=0
7940321 On ch=3 n=6 v=100
7940336 Off ch=3 n=17 v=0
7941116 Off ch=3 n=6 v=0
7941426 On ch=3 n=13 v=100
7941661 Off ch=3 n=13 v=0
7941838 On ch=3 n=18 v=100
7941997 Off ch=3 n=18 v=0
7942305 On ch=3 n=11 v=100
7942468 Off ch=3 n=11 v=0
7942472 On ch=3 n=9 v=100
7943216 Off ch=3 n=9 v=0
7943246 On ch=3 n=10 v=100
7943445 Off ch=3 n=10 v=0
7943992 On ch=3 n=24 v=100
7943999 On ch=3 n=37 v=100
7944004 On ch=3 n=13 v=100
7944151 On ch=3 n=55 v=100
7944197 Off ch=3 n=13 v=0
7944209 Off ch=3 n=24 v=0
7944216 On ch=3 n=25 v=100
7944268 On ch=3 n=18 v=100
7944281 Off ch=3 n=37 v=0
7944465 Off ch=3 n=55 v=0
7944498 On ch=3 n=15 v=100
7944513 On ch=3 n=21 v=100
7944514 Off ch=3 n=25 v=0
7944514 Off ch=3 n=18 v=0
7944603 Off ch=3 n=15 v=0
7944616 Off ch=3 n=21 v=0
7946844 On ch=3 n=2 v=100
7948467 On ch=3 n=40 v=100
7948564 Off ch=3 n=2 v=0
7948581 Off ch=3 n=40 v=0
7958774 On ch=3 n=5 v=100
7958987 On ch=3 n=44 v=100
7959034 Off ch=3 n=5 v=0
7959041 Off ch=3 n=44 v=0
7959155 On ch=3 n=47 v=100
7959298 Off ch=3 n=47 v=0
7960707 On ch=3 n=6 v=100
7960935 Off ch=3 n=6 v=0
7960942 On ch=3 n=15 v=100
7961893 Off ch=3 n=15 v=0
7961894 On ch=3 n=14 v=100
7961894 On ch=3 n=14 v=100
7961924 On ch=3 n=20 v=100
7962123 Off ch=3 n=20 v=0
7962140 Off ch=3 n=14 v=0
7962140 Off ch=3 n=14 v=0
7962906 On ch=3 n=10 v=100
7963062 On ch=3 n=18 v=100
7963073 Off ch=3 n=10 v=0
7963164 Off ch=3 n=18 v=0
7963209 On ch=3 n=29 v=100
7963346 Off ch=3 n=29 v=0
7963757 On ch=3 n=7 v=100
7963990 Off ch=3 n=7 v=0
7964142 On ch=3 n=20 v=100
7964214 Off ch=3 n=20 v=0
7965211 On ch=3 n=56 v=100
7965229 On ch=3 n=37 v=100
7965271 On ch=3 n=28 v=100
7965363 Off ch=3 n=56 v=0
7965364 Off ch=3 n=37 v=0
7965364 Off ch=3 n=28 v=0
7965467 On ch=3 n=21 v=100
7965620 Off ch=3 n=21 v=0
7965625 On ch=3 n=36 v=100
7965760 On ch=3 n=18 v=100
7965798 On ch=3 n=9 v=100
7965798 On ch=3 n=13 v=100
7965799 On ch=3 n=26 v=100
7965799 Off ch=3 n=36 v=0
7965932 Off ch=3 n=9 v=0
7965939 Off ch=3 n=18 v=0
7965948 Off ch=3 n=13 v=0
7965997 On ch=3 n=3 v=100
7966087 Off ch=3 n=26 v=0
7966470 Off ch=3 n=3 v=0
7966896 On ch=3 n=5 v=100
7967750 On ch=3 n=5 v=100
7967751 Off ch=3 n=5 v=0
7967878 On ch=3 n=27 v=100
7967878 On ch=3 n=27 v=100
7967906 On ch=3 n=29 v=100
7967920 Off ch=3 n=5 v=0
7967932 On ch=3 n=35 v=100
7967937 On ch=3 n=15 v=100
7968047 Off ch=3 n=29 v=0
7968047 Off ch=3 n=15 v=0
7968049 On ch=3 n=7 v=100
7968049 On ch=3 n=7 v=100
7968074 Off ch=3 n=27 v=0
7968074 Off ch=3 n=27 v=0
7968137 Off ch=3 n=35 v=0
7968331 On ch=3 n=20 v=100
7968331 Off ch=3 n=7 v=0
7968331 Off ch=3 n=7 v=0
7968332 On ch=3 n=8 v=100
7968674 Off ch=3 n=8 v=0
7968841 On ch=3 n=15 v=100
7968869 Off ch=3 n=20 v=0
7968889 Off ch=3 n=15 v=0
7969445 On ch=3 n=15 v=100
7969568 On ch=3 n=20 v=100
7969568 On ch=3 n=20 v=100
7969618 Off ch=3 n=15 v=0
7969620 On ch=3 n=12 v=100
7970032 Off ch=3 n=12 v=0
7970035 On ch=3 n=15 v=100
7970046 Off ch=3 n=20 v=0
7970046 Off ch=3 n=20 v=0
7970134 Off ch=3 n=15 v=0
7970276 On ch=3 n=23 v=100
7970363 Off ch=3 n=23 v=0
7970396 On ch=3 n=60 v=100
7970422 On ch=3 n=9 v=100
7970523 Off ch=3 n=60 v=0
7971114 Off ch=3 n=9 v=0
7971121 On ch=3 n=27 v=100
7971201 Off ch=3 n=27 v=0
7972009 On ch=3 n=6 v=100
7972966 Off ch=3 n=6 v=0
7973741 On ch=3 n=46 v=100
7973741 On ch=3 n=46 v=100
7973755 On ch=3 n=10 v=100
7973803 On ch=3 n=6 v=100
7973805 On ch=3 n=15 v=100
7973805 On ch=3 n=15 v=100
7973806 Off ch=3 n=10 v=0
7974083 On ch=3 n=13 v=100
7974084 Off ch=3 n=6 v=0
7974087 Off ch=3 n=46 v=0
7974087 Off ch=3 n=46 v=0
7974129 Off ch=3 n=15 v=0
7974129 Off ch=3 n=15 v=0
7974450 On ch=3 n=13 v=100
7974451 Off ch=3 n=13 v=0
7974516 On ch=3 n=47 v=100
7974551 On ch=3 n=5 v=100
7974551 Off ch=3 n=13 v=0
7974680 On ch=3 n=16 v=100
7974680 Off ch=3 n=47 v=0
7974744 Off ch=3 n=5 v=0
7974839 On ch=3 n=40 v=100
7974875 Off ch=3 n=16 v=0
7975001 Off ch=3 n=40 v=0
7975670 On ch=3 n=11 v=100
7976066 On ch=3 n=11 v=100
7976067 Off ch=3 n=11 v=0
7976140 Off ch=3 n=11 v=0
7976227 On ch=3 n=36 v=100
7976227 On ch=3 n=36 v=100
7976349 On ch=3 n=27 v=100
7976365 On ch=3 n=22 v=100
7976381 On ch=3 n=28 v=100
7976518 Off ch=3 n=22 v=0
7976523 Off ch=3 n=27 v=0
7976536 Off ch=3 n=36 v=0
7976536 Off ch=3 n=36 v=0
7976599 Off ch=3 n=28 v=0
7976835 On ch=3 n=16 v=100
7977117 Off ch=3 n=16 v=0
7979336 On ch=3 n=15 v=100
7979438 Off ch=3 n=15 v=0
7979728 On ch=3 n=10 v=100
7979951 On ch=3 n=26 v=100
7979993 Off ch=3 n=10 v=0
7980039 Off ch=3 n=26 v=0
7980041 On ch=3 n=6 v=100
7980533 Off ch=3 n=6 v=0
7980570 On ch=3 n=6 v=100
7980869 Off ch=3 n=6 v=0
7980871 On ch=3 n=6 v=100
7980984 Off ch=3 n=6 v=0
7986754 On ch=3 n=25 v=100
7986852 Off ch=3 n=25 v=0
7987833 On ch=3 n=11 v=100
7988019 Off ch=3 n=11 v=0
7988021 On ch=3 n=13 v=100
7988153 On ch=3 n=7 v=100
7988205 Off ch=3 n=13 v=0
7988816 Off ch=3 n=7 v=0
7988819 On ch=3 n=12 v=100
7988833 On ch=3 n=17 v=100
7988841 On ch=3 n=19 v=100
7988905 Off ch=3 n=12 v=0
7988916 Off ch=3 n=19 v=0
7988921 Off ch=3 n=17 v=0
7988931 On ch=3 n=9 v=100
7989012 On ch=3 n=10 v=100
7989050 Off ch=3 n=9 v=0
7989201 Off ch=3 n=10 v=0
7989203 On ch=3 n=4 v=100
7989292 Off ch=3 n=4 v=0
7989350 On ch=3 n=7 v=100
7989465 On ch=3 n=24 v=100
7989619 Off ch=3 n=7 v=0
7989619 Off ch=3 n=24 v=0
7989675 On ch=3 n=24 v=100
7990030 Off ch=3 n=24 v=0
7990057 On ch=3 n=16 v=100
7990289 Off ch=3 n=16 v=0
7990943 On ch=3 n=19 v=100
7991139 Off ch=3 n=19 v=0
7992542 On ch=3 n=31 v=100
7992590 On ch=3 n=40 v=100
7992775 Off ch=3 n=31 v=0
7992777 On ch=3 n=26 v=100
7992799 Off ch=3 n=40 v=0
7992848 On ch=3 n=35 v=100
7992893 Off ch=3 n=26 v=0
7992938 On ch=3 n=62 v=100
7993056 Off ch=3 n=35 v=0
7993056 Off ch=3 n=62 v=0
7993086 On ch=3 n=62 v=100
7993372 Off ch=3 n=62 v=0
7993951 On ch=3 n=38 v=100
7994018 On ch=3 n=31 v=100
7994021 On ch=3 n=49 v=100
7994029 On ch=3 n=4 v=100
7994220 Off ch=3 n=4 v=0
7994221 Off ch=3 n=38 v=0
7994256 Off ch=3 n=31 v=0
7994334 Off ch=3 n=49 v=0
7994744 On ch=3 n=13 v=100
7994885 Off ch=3 n=13 v=0
7995819 On ch=3 n=12 v=100
7995890 Off ch=3 n=12 v=0
7995910 On ch=3 n=10 v=100
7996005 Off ch=3 n=10 v=0
7997433 On ch=3 n=6 v=100
7998003 Off ch=3 n=6 v=0
7998881 On ch=3 n=9 v=100
7999044 Off ch=3 n=9 v=0
8000461 On ch=3 n=11 v=100
8001103 Off ch=3 n=11 v=0
8001643 On ch=3 n=5 v=100
8001841 Off ch=3 n=5 v=0
8001943 On ch=3 n=3 v=100
8002527 On ch=3 n=21 v=100
8002586 Off ch=3 n=3 v=0
8002586 Off ch=3 n=21 v=0
8002637 On ch=3 n=16 v=100
8002637 On ch=3 n=21 v=100
8002637 On ch=3 n=38 v=100
8002647 Off ch=3 n=16 v=0
8002669 Off ch=3 n=21 v=0
8002712 On ch=3 n=3 v=100
8002888 Off ch=3 n=38 v=0
8003012 On ch=3 n=3 v=100
8003050 Off ch=3 n=3 v=0
8003596 Off ch=3 n=3 v=0
8008254 On ch=3 n=3 v=100
8009892 Off ch=3 n=3 v=0
8009953 On ch=3 n=3 v=100
8010716 Off ch=3 n=3 v=0
8011308 On ch=3 n=9 v=100
8011557 Off ch=3 n=9 v=0
8011558 On ch=3 n=5 v=100
8013418 Off ch=3 n=5 v=0
8014616 On ch=3 n=30 v=100
8014746 Off ch=3 n=30 v=0
8016067 On ch=3 n=4 v=100
8018464 Off ch=3 n=4 v=0
8024648 On ch=3 n=5 v=100
8026459 Off ch=3 n=5 v=0
8057222 On ch=3 n=5 v=100
8058189 On ch=3 n=10 v=100
8058195 Off ch=3 n=5 v=0
8058474 On ch=3 n=6 v=100
8058474 Off ch=3 n=10 v=0
8058658 Off ch=3 n=6 v=0
8058659 On ch=3 n=6 v=100
8058840 Off ch=3 n=6 v=0
8058843 On ch=3 n=35 v=100
8058851 On ch=3 n=17 v=100
8058908 Off ch=3 n=35 v=0
8059186 On ch=3 n=4 v=100
8059233 Off ch=3 n=17 v=0
8060161 Off ch=3 n=4 v=0
8061561 On ch=3 n=18 v=100
8063579 Off ch=3 n=18 v=0
8063608 On ch=3 n=18 v=100
8066290 Off ch=3 n=18 v=0
8066345 On ch=3 n=18 v=100
8067355 On ch=3 n=2 v=100
8067355 On ch=3 n=2 v=100
8067358 Off ch=3 n=18 v=0
8067535 On ch=3 n=41 v=100
8068231 On ch=3 n=33 v=100
8068477 Off ch=3 n=2 v=0
8068477 Off ch=3 n=2 v=0
8068479 On ch=3 n=1 v=100
8068479 On ch=3 n=1 v=100
8069169 Off ch=3 n=41 v=0
8069554 Off ch=3 n=33 v=0
8069652 On ch=3 n=44 v=100
8069657 On ch=3 n=34 v=100
8069749 Off ch=3 n=1 v=0
8069749 Off ch=3 n=1 v=0
8069752 On ch=3 n=22 v=100
8069770 Off ch=3 n=34 v=0
8069820 Off ch=3 n=44 v=0
8072706 Off ch=3 n=22 v=0
8072733 On ch=3 n=22 v=100
8074287 Off ch=3 n=22 v=0
8081703 On ch=3 n=29 v=100
8081703 On ch=3 n=29 v=100
8082253 Off ch=3 n=29 v=0
8082253 Off ch=3 n=29 v=0
8084439 On ch=3 n=3 v=100
8086827 Off ch=3 n=3 v=0
8089658 On ch=3 n=7 v=100
8089836 Off ch=3 n=7 v=0
8090397 On ch=3 n=6 v=100
8090725 Off ch=3 n=6 v=0
8090923 On ch=3 n=6 v=100
8092026 On ch=3 n=28 v=100
8092090 On ch=3 n=47 v=100
8092242 Off ch=3 n=6 v=0
8092327 Off ch=3 n=28 v=0
8092378 Off ch=3 n=47 v=0
8093039 On ch=3 n=7 v=100
8093258 Off ch=3 n=7 v=0
8093873 On ch=3 n=2 v=100
8095370 Off ch=3 n=2 v=0
8095509 On ch=3 n=14 v=100
8095679 Off ch=3 n=14 v=0
8095689 On ch=3 n=23 v=100
8095752 Off ch=3 n=23 v=0
8095757 On ch=3 n=34 v=100
8095866 On ch=3 n=37 v=100
8095903 On ch=3 n=44 v=100
8095903 On ch=3 n=44 v=100
8095914 Off ch=3 n=34 v=0
8095917 On ch=3 n=30 v=100
8095943 Off ch=3 n=37 v=0
8096019 On ch=3 n=19 v=100
8096019 On ch=3 n=19 v=100
8096126 On ch=3 n=22 v=100
8096132 Off ch=3 n=30 v=0
8096197 Off ch=3 n=19 v=0
8096197 Off ch=3 n=19 v=0
8096232 Off ch=3 n=44 v=0
8096232 Off ch=3 n=44 v=0
8096387 Off ch=3 n=22 v=0
8096398 On ch=3 n=13 v=100
8096658 Off ch=3 n=13 v=0
8097196 On ch=3 n=15 v=100
8097315 On ch=3 n=13 v=100
8097727 Off ch=3 n=15 v=0
8097732 On ch=3 n=11 v=100
8097992 Off ch=3 n=13 v=0
8098222 Off ch=3 n=11 v=0
8099956 On ch=3 n=49 v=100
8100043 On ch=3 n=13 v=100
8100068 On ch=3 n=5 v=100
8100144 Off ch=3 n=49 v=0
8100146 Off ch=3 n=13 v=0
8100146 Off ch=3 n=5 v=0
8100148 On ch=3 n=1 v=100
8100936 On ch=3 n=57 v=100
8100936 On ch=3 n=57 v=100
8101033 On ch=3 n=34 v=100
8101070 On ch=3 n=4 v=100
8101070 On ch=3 n=21 v=100
8101070 On ch=3 n=4 v=100
8101073 Off ch=3 n=1 v=0
8101185 Off ch=3 n=34 v=0
8101195 Off ch=3 n=4 v=0
8101195 Off ch=3 n=4 v=0
8101201 Off ch=3 n=57 v=0
8101201 Off ch=3 n=57 v=0
8101325 Off ch=3 n=21 v=0
8101589 On ch=3 n=44 v=100
8101668 Off ch=3 n=44 v=0
8102256 On ch=3 n=34 v=100
8102575 Off ch=3 n=34 v=0
8102577 On ch=3 n=33 v=100
8102664 Off ch=3 n=33 v=0
8102668 On ch=3 n=12 v=100
8102745 Off ch=3 n=12 v=0
8102766 On ch=3 n=9 v=100
8103007 On ch=3 n=51 v=100
8103007 On ch=3 n=51 v=100
8103018 On ch=3 n=21 v=100
8103049 Off ch=3 n=9 v=0
8103055 On ch=3 n=12 v=100
8103065 Off ch=3 n=21 v=0
8103119 Off ch=3 n=51 v=0
8103119 Off ch=3 n=51 v=0
8103299 On ch=3 n=49 v=100
8103305 Off ch=3 n=12 v=0
8103306 On ch=3 n=35 v=100
8103350 Off ch=3 n=49 v=0
8103351 Off ch=3 n=35 v=0
8103700 On ch=3 n=40 v=100
8103707 On ch=3 n=27 v=100
8103723 On ch=3 n=21 v=100
8103738 On ch=3 n=31 v=100
8103791 Off ch=3 n=27 v=0
8103862 Off ch=3 n=21 v=0
8103863 Off ch=3 n=40 v=0
8103977 Off ch=3 n=31 v=0
8104014 On ch=3 n=7 v=100
8104053 On ch=3 n=9 v=100
8104054 Off ch=3 n=7 v=0
8104460 Off ch=3 n=9 v=0
8104581 On ch=3 n=44 v=100
8104680 Off ch=3 n=44 v=0
8106695 On ch=3 n=20 v=100
8106840 Off ch=3 n=20 v=0
8108708 On ch=3 n=47 v=100
8108851 Off ch=3 n=47 v=0
8108972 On ch=3 n=5 v=100
8109231 Off ch=3 n=5 v=0
8114180 On ch=3 n=23 v=100
8114977 Off ch=3 n=23 v=0
8120705 On ch=3 n=69 v=100
8120705 On ch=3 n=69 v=100
8120830 Off ch=3 n=69 v=0
8120830 Off ch=3 n=69 v=0
8121655 On ch=3 n=64 v=100
8121793 Off ch=3 n=64 v=0
8122608 On ch=3 n=64 v=100
8122737 Off ch=3 n=64 v=0
8122925 On ch=3 n=64 v=100
8123063 Off ch=3 n=64 v=0
8125820 On ch=3 n=45 v=100
8125900 Off ch=3 n=45 v=0
8127298 On ch=3 n=1 v=100
8128194 On ch=3 n=21 v=100
8128251 On ch=3 n=28 v=100
8128263 Off ch=3 n=1 v=0
8128364 Off ch=3 n=21 v=0
8128432 Off ch=3 n=28 v=0
8128589 On ch=3 n=6 v=100
8129348 Off ch=3 n=6 v=0
8129356 On ch=3 n=6 v=100
8129624 Off ch=3 n=6 v=0
8130555 On ch=3 n=5 v=100
8131945 Off ch=3 n=5 v=0
8136742 On ch=3 n=2 v=100
8137978 On ch=3 n=1 v=100
8138030 Off ch=3 n=2 v=0
8139488 Off ch=3 n=1 v=0
8139675 On ch=3 n=2 v=100
8143891 Off ch=3 n=2 v=0
8144471 On ch=3 n=1 v=100
8145949 Off ch=3 n=1 v=0
8152869 On ch=3 n=37 v=100
8152870 On ch=3 n=17 v=100
8152904 On ch=3 n=14 v=100
8153035 Off ch=3 n=17 v=0
8153107 Off ch=3 n=14 v=0
8153157 Off ch=3 n=37 v=0
8153177 On ch=3 n=7 v=100
8153410 Off ch=3 n=7 v=0
8153715 On ch=3 n=15 v=100
8153883 Off ch=3 n=15 v=0
8154922 On ch=3 n=8 v=100
8155246 Off ch=3 n=8 v=0
8155383 On ch=3 n=25 v=100
8155406 On ch=3 n=19 v=100
8155448 Off ch=3 n=25 v=0
8155461 Off ch=3 n=19 v=0
8156616 On ch=3 n=41 v=100
8156616 On ch=3 n=41 v=100
8156664 On ch=3 n=39 v=100
8156692 On ch=3 n=41 v=100
8156692 On ch=3 n=41 v=100
8156786 On ch=3 n=39 v=100
8156794 On ch=3 n=20 v=100
8156898 Off ch=3 n=20 v=0
8156921 On ch=3 n=25 v=100
8156935 Off ch=3 n=39 v=0
8156946 Off ch=3 n=41 v=0
8156946 Off ch=3 n=41 v=0
8156968 Off ch=3 n=39 v=0
8156986 Off ch=3 n=41 v=0
8156986 Off ch=3 n=41 v=0
8157070 On ch=3 n=31 v=100
8157077 Off ch=3 n=25 v=0
8157230 Off ch=3 n=31 v=0
8157694 On ch=3 n=8 v=100
8157776 On ch=3 n=8 v=100
8157808 Off ch=3 n=8 v=0
8158371 Off ch=3 n=8 v=0
8158372 On ch=3 n=10 v=100
8159294 Off ch=3 n=10 v=0
8159297 On ch=3 n=10 v=100
8159409 On ch=3 n=18 v=100
8159434 Off ch=3 n=10 v=0
8159543 On ch=3 n=20 v=100
8159543 On ch=3 n=20 v=100
8159601 Off ch=3 n=18 v=0
8159604 On ch=3 n=10 v=100
8160026 Off ch=3 n=10 v=0
8160029 On ch=3 n=17 v=100
8160042 Off ch=3 n=20 v=0
8160042 Off ch=3 n=20 v=0
8160134 Off ch=3 n=17 v=0
8160240 On ch=3 n=12 v=100
8160754 Off ch=3 n=12 v=0
8161445 On ch=3 n=21 v=100
8161488 Off ch=3 n=21 v=0
8162992 On ch=3 n=19 v=100
8163091 Off ch=3 n=19 v=0
8163759 On ch=3 n=11 v=100
8164237 On ch=3 n=5 v=100
8164239 Off ch=3 n=11 v=0
8164554 Off ch=3 n=5 v=0
8164556 On ch=3 n=11 v=100
8164655 On ch=3 n=14 v=100
8164678 Off ch=3 n=11 v=0
8164895 On ch=3 n=52 v=100
8164895 On ch=3 n=52 v=100
8165031 Off ch=3 n=14 v=0
8165237 On ch=3 n=16 v=100
8165396 On ch=3 n=40 v=100
8165412 Off ch=3 n=16 v=0
8165430 On ch=3 n=33 v=100
8165430 On ch=3 n=33 v=100
8165525 On ch=3 n=23 v=100
8165562 Off ch=3 n=52 v=0
8165562 Off ch=3 n=52 v=0
8165585 Off ch=3 n=33 v=0
8165585 Off ch=3 n=33 v=0
8165592 Off ch=3 n=40 v=0
8165604 Off ch=3 n=23 v=0
8167106 On ch=3 n=15 v=100
8167162 On ch=3 n=11 v=100
8167163 Off ch=3 n=15 v=0
8167280 On ch=3 n=5 v=100
8167281 Off ch=3 n=11 v=0
8168868 Off ch=3 n=5 v=0
8171348 On ch=3 n=21 v=100
8171394 Off ch=3 n=21 v=0
8171766 On ch=3 n=12 v=100
8172125 On ch=3 n=39 v=100
8172246 Off ch=3 n=12 v=0
8172320 Off ch=3 n=39 v=0
8172411 On ch=3 n=21 v=100
8172584 On ch=3 n=18 v=100
8172834 On ch=3 n=17 v=100
8172984 Off ch=3 n=21 v=0
8173224 On ch=3 n=17 v=100
8173359 Off ch=3 n=18 v=0
8173467 On ch=3 n=34 v=100
8173602 Off ch=3 n=17 v=0
8173733 Off ch=3 n=17 v=0
8173878 Off ch=3 n=34 v=0
8175948 On ch=3 n=38 v=100
8176099 Off ch=3 n=38 v=0
8176107 On ch=3 n=30 v=100
8176380 Off ch=3 n=30 v=0
8176518 On ch=3 n=9 v=100
8176818 On ch=3 n=12 v=100
8176831 Off ch=3 n=9 v=0
8176929 On ch=3 n=12 v=100
8176940 Off ch=3 n=12 v=0
8177219 On ch=3 n=14 v=100
8177221 Off ch=3 n=12 v=0
8177560 Off ch=3 n=14 v=0
8177569 On ch=3 n=7 v=100
8178044 Off ch=3 n=7 v=0
8179418 On ch=3 n=44 v=100
8179641 On ch=3 n=23 v=100
8179733 Off ch=3 n=44 v=0
8179769 Off ch=3 n=23 v=0
8179791 On ch=3 n=17 v=100
8180116 Off ch=3 n=17 v=0
8180445 On ch=3 n=4 v=100
8180931 Off ch=3 n=4 v=0
8180934 On ch=3 n=3 v=100
8181198 Off ch=3 n=3 v=0
8181237 On ch=3 n=6 v=100
8181484 On ch=3 n=11 v=100
8181488 Off ch=3 n=6 v=0
8181567 On ch=3 n=4 v=100
8181567 Off ch=3 n=11 v=0
8181584 On ch=3 n=11 v=100
8182012 Off ch=3 n=4 v=0
8182013 On ch=3 n=3 v=100
8182197 Off ch=3 n=11 v=0
8182278 Off ch=3 n=3 v=0
8183176 On ch=3 n=7 v=100
8183643 On ch=3 n=6 v=100
8183657 Off ch=3 n=7 v=0
8183889 On ch=3 n=7 v=100
8184069 Off ch=3 n=6 v=0
8184106 Off ch=3 n=7 v=0
8184107 On ch=3 n=18 v=100
8184764 Off ch=3 n=18 v=0
8185449 On ch=3 n=4 v=100
8185570 Off ch=3 n=4 v=0
8185589 On ch=3 n=13 v=100
8185618 On ch=3 n=27 v=100
8185681 Off ch=3 n=13 v=0
8185716 Off ch=3 n=27 v=0
8185956 On ch=3 n=43 v=100
8185956 On ch=3 n=43 v=100
8185968 On ch=3 n=7 v=100
8186246 Off ch=3 n=7 v=0
8186331 Off ch=3 n=43 v=0
8186331 Off ch=3 n=43 v=0
8188095 On ch=3 n=5 v=100
8188350 Off ch=3 n=5 v=0
8188377 On ch=3 n=5 v=100
8188695 Off ch=3 n=5 v=0
8188697 On ch=3 n=3 v=100
8189613 Off ch=3 n=3 v=0
8189615 On ch=3 n=19 v=100
8189796 Off ch=3 n=19 v=0
8189808 On ch=3 n=12 v=100
8190244 On ch=3 n=43 v=100
8190371 On ch=3 n=6 v=100
8190389 Off ch=3 n=12 v=0
8190675 On ch=3 n=0 v=100
8190678 Off ch=3 n=43 v=0
8190681 Off ch=3 n=6 v=0
8190716 On ch=3 n=12 v=100
8190825 Off ch=3 n=0 v=0
8190834 On ch=3 n=17 v=100
8190849 On ch=3 n=1 v=100
8190918 Off ch=3 n=12 v=0
8190937 Off ch=3 n=17 v=0
8191987 Off ch=3 n=1 v=0
8192050 On ch=3 n=59 v=100
8193225 Off ch=3 n=59 v=0
8195835 On ch=3 n=43 v=100
8196199 Off ch=3 n=43 v=0
8197030 On ch=3 n=19 v=100
8197147 Off ch=3 n=19 v=0
8197297 On ch=3 n=11 v=100
8197369 Off ch=3 n=11 v=0
8197378 On ch=3 n=10 v=100
8197720 Off ch=3 n=10 v=0
8199135 On ch=3 n=17 v=100
8199185 Off ch=3 n=17 v=0
8204180 On ch=3 n=18 v=100
8205226 Off ch=3 n=18 v=0
8205621 On ch=3 n=16 v=100
8205771 On ch=3 n=29 v=100
8205801 On ch=3 n=36 v=100
8206029 Off ch=3 n=29 v=0
8206120 Off ch=3 n=36 v=0
8206129 Off ch=3 n=16 v=0
8207038 On ch=3 n=15 v=100
8207145 On ch=3 n=13 v=100
8207156 On ch=3 n=23 v=100
8207241 Off ch=3 n=15 v=0
8207242 Off ch=3 n=13 v=0
8207265 Off ch=3 n=23 v=0
8207322 On ch=3 n=5 v=100
8210087 On ch=3 n=39 v=100
8210106 Off ch=3 n=5 v=0
8210108 On ch=3 n=2 v=100
8210205 Off ch=3 n=39 v=0
8212569 Off ch=3 n=2 v=0
8212571 On ch=3 n=4 v=100
8212743 Off ch=3 n=4 v=0
8212763 On ch=3 n=18 v=100
8212862 Off ch=3 n=18 v=0
8212904 On ch=3 n=28 v=100
8213056 Off ch=3 n=28 v=0
8214217 On ch=3 n=48 v=100
8214217 On ch=3 n=48 v=100
8214262 On ch=3 n=37 v=100
8214298 On ch=3 n=39 v=100
8214298 On ch=3 n=39 v=100
8214405 Off ch=3 n=37 v=0
8214417 On ch=3 n=23 v=100
8214509 Off ch=3 n=23 v=0
8214515 On ch=3 n=25 v=100
8214516 Off ch=3 n=48 v=0
8214516 Off ch=3 n=48 v=0
8214535 Off ch=3 n=39 v=0
8214535 Off ch=3 n=39 v=0
8214693 On ch=3 n=36 v=100
8214745 Off ch=3 n=25 v=0
8214855 Off ch=3 n=36 v=0
8214979 On ch=3 n=11 v=100
8215664 Off ch=3 n=11 v=0
8215676 On ch=3 n=12 v=100
8216185 Off ch=3 n=12 v=0
8216187 On ch=3 n=7 v=100
8217732 On ch=3 n=4 v=100
8217739 Off ch=3 n=7 v=0
8217866 Off ch=3 n=4 v=0
8217946 On ch=3 n=7 v=100
8218959 On ch=3 n=36 v=100
8219075 Off ch=3 n=7 v=0
8219093 Off ch=3 n=36 v=0
8219204 On ch=3 n=17 v=100
8219318 On ch=3 n=18 v=100
8219318 On ch=3 n=18 v=100
8219368 Off ch=3 n=17 v=0
8219413 On ch=3 n=8 v=100
8219683 Off ch=3 n=8 v=0
8219684 On ch=3 n=23 v=100
8219695 Off ch=3 n=18 v=0
8219695 Off ch=3 n=18 v=0
8219794 Off ch=3 n=23 v=0
8220600 On ch=3 n=33 v=100
8220643 On ch=3 n=6 v=100
8220917 Off ch=3 n=33 v=0
8221028 Off ch=3 n=6 v=0
8221029 On ch=3 n=15 v=100
8221492 On ch=3 n=17 v=100
8221516 On ch=3 n=16 v=100
8221518 Off ch=3 n=15 v=0
8221581 Off ch=3 n=17 v=0
8221583 Off ch=3 n=16 v=0
8221950 On ch=3 n=31 v=100
8221950 On ch=3 n=31 v=100
8222004 On ch=3 n=37 v=100
8222037 On ch=3 n=50 v=100
8222037 On ch=3 n=50 v=100
8222164 Off ch=3 n=31 v=0
8222164 Off ch=3 n=31 v=0
8222183 On ch=3 n=25 v=100
8222222 Off ch=3 n=37 v=0
8222408 Off ch=3 n=25 v=0
8222484 On ch=3 n=21 v=100
8222575 On ch=3 n=18 v=100
8222715 Off ch=3 n=50 v=0
8222715 Off ch=3 n=50 v=0
8222926 On ch=3 n=10 v=100
8222952 Off ch=3 n=21 v=0
8222990 Off ch=3 n=18 v=0
8223092 On ch=3 n=14 v=100
8223139 Off ch=3 n=10 v=0
8223545 Off ch=3 n=14 v=0
8223552 On ch=3 n=22 v=100
8223740 Off ch=3 n=22 v=0
8224944 On ch=3 n=24 v=100
8225033 Off ch=3 n=24 v=0
8225066 On ch=3 n=6 v=100
8225382 Off ch=3 n=6 v=0
8227116 On ch=3 n=13 v=100
8227152 On ch=3 n=16 v=100
8227165 Off ch=3 n=13 v=0
8227276 Off ch=3 n=16 v=0
8227714 On ch=3 n=6 v=100
8228001 Off ch=3 n=6 v=0
8228850 On ch=3 n=26 v=100
8228871 On ch=3 n=14 v=100
8229017 Off ch=3 n=26 v=0
8229541 Off ch=3 n=14 v=0
8229808 On ch=3 n=21 v=100
8229897 Off ch=3 n=21 v=0
8229904 On ch=3 n=6 v=100
8230329 Off ch=3 n=6 v=0
8230331 On ch=3 n=20 v=100
8230542 Off ch=3 n=20 v=0
8230551 On ch=3 n=19 v=100
8230601 On ch=3 n=9 v=100
8230603 Off ch=3 n=19 v=0
8232299 On ch=3 n=6 v=100
8232306 Off ch=3 n=9 v=0
8232630 Off ch=3 n=6 v=0
8232642 On ch=3 n=17 v=100
8232921 On ch=3 n=17 v=100
8233189 On ch=3 n=7 v=100
8233225 Off ch=3 n=17 v=0
8233261 Off ch=3 n=17 v=0
8233355 On ch=3 n=13 v=100
8233356 Off ch=3 n=7 v=0
8233482 On ch=3 n=17 v=100
8233482 On ch=3 n=17 v=100
8233499 On ch=3 n=6 v=100
8233505 Off ch=3 n=13 v=0
8233734 On ch=3 n=27 v=100
8233776 On ch=3 n=6 v=100
8233781 Off ch=3 n=6 v=0
8233813 Off ch=3 n=17 v=0
8233813 Off ch=3 n=17 v=0
8233857 Off ch=3 n=27 v=0
8234375 Off ch=3 n=6 v=0
8235084 On ch=3 n=37 v=100
8235167 On ch=3 n=25 v=100
8235176 On ch=3 n=13 v=100
8235239 Off ch=3 n=37 v=0
8235309 Off ch=3 n=13 v=0
8235356 Off ch=3 n=25 v=0
8235496 On ch=3 n=28 v=100
8235617 On ch=3 n=37 v=100
8235649 On ch=3 n=33 v=100
8235650 Off ch=3 n=28 v=0
8235682 On ch=3 n=28 v=100
8235682 On ch=3 n=39 v=100
8235687 On ch=3 n=15 v=100
8235766 Off ch=3 n=37 v=0
8235766 Off ch=3 n=15 v=0
8235796 Off ch=3 n=33 v=0
8235864 Off ch=3 n=28 v=0
8235886 Off ch=3 n=39 v=0
8237169 On ch=3 n=20 v=100
8237241 Off ch=3 n=20 v=0
8238439 On ch=3 n=9 v=100
8238703 Off ch=3 n=9 v=0
8238966 On ch=3 n=49 v=100
8239217 Off ch=3 n=49 v=0
8241347 On ch=3 n=14 v=100
8242055 Off ch=3 n=14 v=0
8280802 On ch=3 n=7 v=100
8281309 Off ch=3 n=7 v=0
8281483 On ch=3 n=22 v=100
8284282 Off ch=3 n=22 v=0
8284390 On ch=3 n=22 v=100
8284768 Off ch=3 n=22 v=0
8286156 On ch=3 n=55 v=100
8286229 Off ch=3 n=55 v=0
8296993 On ch=3 n=13 v=100
8297056 On ch=3 n=8 v=100
8297253 Off ch=3 n=13 v=0
8297883 Off ch=3 n=8 v=0
8297905 On ch=3 n=1 v=100
8299428 Off ch=3 n=1 v=0
8303586 On ch=3 n=34 v=100
8303645 On ch=3 n=8 v=100
8303816 Off ch=3 n=34 v=0
8304270 On ch=3 n=24 v=100
8304294 Off ch=3 n=8 v=0
8304389 Off ch=3 n=24 v=0
8306892 On ch=3 n=4 v=100
8306939 Off ch=3 n=4 v=0
8307018 On ch=3 n=17 v=100
8307351 Off ch=3 n=17 v=0
8308309 On ch=3 n=19 v=100
8308439 Off ch=3 n=19 v=0
8308706 On ch=3 n=5 v=100
8309046 Off ch=3 n=5 v=0
8309260 On ch=3 n=10 v=100
8309423 Off ch=3 n=10 v=0
8309509 On ch=3 n=38 v=100
8309706 Off ch=3 n=38 v=0
8309710 On ch=3 n=6 v=100
8311213 Off ch=3 n=6 v=0
8311359 On ch=3 n=8 v=100
8311646 Off ch=3 n=8 v=0
8311693 On ch=3 n=23 v=100
8311693 On ch=3 n=8 v=100
8311699 On ch=3 n=9 v=100
8311703 Off ch=3 n=8 v=0
8311909 Off ch=3 n=23 v=0
8312185 Off ch=3 n=9 v=0
8312224 On ch=3 n=14 v=100
8312376 Off ch=3 n=14 v=0
8312405 On ch=3 n=11 v=100
8312940 Off ch=3 n=11 v=0
8313173 On ch=3 n=9 v=100
8313909 On ch=3 n=14 v=100
8313998 Off ch=3 n=9 v=0
8314001 On ch=3 n=8 v=100
8314020 Off ch=3 n=14 v=0
8314175 On ch=3 n=18 v=100
8314188 Off ch=3 n=8 v=0
8314225 On ch=3 n=16 v=100
8314262 Off ch=3 n=18 v=0
8314265 On ch=3 n=9 v=100
8314271 Off ch=3 n=16 v=0
8314432 Off ch=3 n=9 v=0
8314435 On ch=3 n=3 v=100
8315624 On ch=3 n=41 v=100
8315639 Off ch=3 n=3 v=0
8315767 Off ch=3 n=41 v=0
8315828 On ch=3 n=41 v=100
8315831 On ch=3 n=9 v=100
8316229 Off ch=3 n=41 v=0
8316955 On ch=3 n=9 v=100
8316955 Off ch=3 n=9 v=0
8316978 On ch=3 n=26 v=100
8317069 Off ch=3 n=9 v=0
8317080 Off ch=3 n=26 v=0
8317684 On ch=3 n=20 v=100
8317743 On ch=3 n=6 v=100
8317989 On ch=3 n=14 v=100
8318021 Off ch=3 n=6 v=0
8318028 Off ch=3 n=20 v=0
8318048 Off ch=3 n=14 v=0
8318315 On ch=3 n=39 v=100
8318398 Off ch=3 n=39 v=0
8318437 On ch=3 n=39 v=100
8318575 Off ch=3 n=39 v=0
8318836 On ch=3 n=18 v=100
8318908 Off ch=3 n=18 v=0
8319530 On ch=3 n=5 v=100
8321751 Off ch=3 n=5 v=0
8322468 On ch=3 n=20 v=100
8322511 Off ch=3 n=20 v=0
8322840 On ch=3 n=23 v=100
8322926 Off ch=3 n=23 v=0
8323405 On ch=3 n=43 v=100
8323406 On ch=3 n=34 v=100
8323534 Off ch=3 n=34 v=0
8323560 Off ch=3 n=43 v=0
8323734 On ch=3 n=7 v=100
8324372 Off ch=3 n=7 v=0
8326154 On ch=3 n=43 v=100
8326164 On ch=3 n=8 v=100
8326201 Off ch=3 n=43 v=0
8326723 Off ch=3 n=8 v=0
8326847 On ch=3 n=9 v=100
8327101 Off ch=3 n=9 v=0
8327106 On ch=3 n=6 v=100
8327184 Off ch=3 n=6 v=0
8327188 On ch=3 n=2 v=100
8327324 On ch=3 n=7 v=100
8327324 Off ch=3 n=2 v=0
8327409 Off ch=3 n=7 v=0
8327414 On ch=3 n=6 v=100
8327786 On ch=3 n=7 v=100
8327788 Off ch=3 n=6 v=0
8327953 Off ch=3 n=7 v=0
8327963 On ch=3 n=12 v=100
8327964 On ch=3 n=26 v=100
8328076 On ch=3 n=7 v=100
8328084 Off ch=3 n=12 v=0
8328117 Off ch=3 n=26 v=0
8328385 On ch=3 n=53 v=100
8328630 Off ch=3 n=7 v=0
8328674 Off ch=3 n=53 v=0
8328699 On ch=3 n=5 v=100
8329165 Off ch=3 n=5 v=0
8329167 On ch=3 n=17 v=100
8329167 On ch=3 n=17 v=100
8329294 On ch=3 n=10 v=100
8329297 Off ch=3 n=17 v=0
8329334 Off ch=3 n=17 v=0
8329968 On ch=3 n=17 v=100
8330093 Off ch=3 n=10 v=0
8330102 On ch=3 n=11 v=100
8330131 Off ch=3 n=17 v=0
8330138 Off ch=3 n=11 v=0
8330150 On ch=3 n=8 v=100
8330198 On ch=3 n=20 v=100
8330219 On ch=3 n=7 v=100
8330243 Off ch=3 n=8 v=0
8330269 Off ch=3 n=20 v=0
8330289 On ch=3 n=14 v=100
8330313 Off ch=3 n=7 v=0
8330489 Off ch=3 n=14 v=0
8330490 On ch=3 n=8 v=100
8331002 Off ch=3 n=8 v=0
8331004 On ch=3 n=12 v=100
8331045 On ch=3 n=13 v=100
8331046 Off ch=3 n=12 v=0
8331084 On ch=3 n=3 v=100
8331085 Off ch=3 n=13 v=0
8331167 On ch=3 n=10 v=100
8331170 Off ch=3 n=3 v=0
8331359 Off ch=3 n=10 v=0
8331404 On ch=3 n=10 v=100
8331725 Off ch=3 n=10 v=0
8331727 On ch=3 n=8 v=100
8332351 Off ch=3 n=8 v=0
8332352 On ch=3 n=24 v=100
8332629 Off ch=3 n=24 v=0
8332930 On ch=3 n=31 v=100
8333076 Off ch=3 n=31 v=0
8341772 On ch=3 n=56 v=100
8341907 Off ch=3 n=56 v=0
8342305 On ch=3 n=19 v=100
8342398 Off ch=3 n=19 v=0
8343156 On ch=3 n=15 v=100
8343279 Off ch=3 n=15 v=0
8344776 On ch=3 n=28 v=100
8344873 Off ch=3 n=28 v=0
8344901 On ch=3 n=28 v=100
8344901 On ch=3 n=36 v=100
8344955 On ch=3 n=21 v=100
8345037 Off ch=3 n=28 v=0
8345240 Off ch=3 n=36 v=0
8345241 Off ch=3 n=21 v=0
8345252 On ch=3 n=2 v=100
8346393 Off ch=3 n=2 v=0
8347039 On ch=3 n=34 v=100
8347069 On ch=3 n=36 v=100
8347110 Off ch=3 n=34 v=0
8347110 Off ch=3 n=36 v=0
8347145 On ch=3 n=34 v=100
8347145 On ch=3 n=36 v=100
8347414 Off ch=3 n=34 v=0
8347673 On ch=3 n=28 v=100
8347799 Off ch=3 n=36 v=0
8348009 On ch=3 n=24 v=100
8348132 Off ch=3 n=28 v=0
8348164 Off ch=3 n=24 v=0
8348199 On ch=3 n=33 v=100
8348440 Off ch=3 n=33 v=0
8350419 On ch=3 n=21 v=100
8350609 Off ch=3 n=21 v=0
8351857 On ch=3 n=17 v=100
8351959 Off ch=3 n=17 v=0
8351988 On ch=3 n=14 v=100
8352261 On ch=3 n=11 v=100
8352270 Off ch=3 n=14 v=0
8352527 On ch=3 n=21 v=100
8352686 On ch=3 n=10 v=100
8352729 Off ch=3 n=11 v=0
8352771 Off ch=3 n=21 v=0
8353215 Off ch=3 n=10 v=0
8353225 On ch=3 n=8 v=100
8353700 Off ch=3 n=8 v=0
8353707 On ch=3 n=6 v=100
8353778 Off ch=3 n=6 v=0
8354077 On ch=3 n=10 v=100
8354752 Off ch=3 n=10 v=0
8354759 On ch=3 n=13 v=100
8354831 Off ch=3 n=13 v=0
8354834 On ch=3 n=11 v=100
8355528 Off ch=3 n=11 v=0
8355738 On ch=3 n=16 v=100
8355840 Off ch=3 n=16 v=0
8355869 On ch=3 n=14 v=100
8356142 On ch=3 n=11 v=100
8356151 Off ch=3 n=14 v=0
8356311 Off ch=3 n=11 v=0
8356370 On ch=3 n=11 v=100
8356460 On ch=3 n=22 v=100
8356614 On ch=3 n=10 v=100
8356657 Off ch=3 n=11 v=0
8356699 Off ch=3 n=22 v=0
8357143 Off ch=3 n=10 v=0
8357153 On ch=3 n=8 v=100
8357628 Off ch=3 n=8 v=0
8357635 On ch=3 n=6 v=100
8357706 Off ch=3 n=6 v=0
8358005 On ch=3 n=11 v=100
8358680 Off ch=3 n=11 v=0
8358687 On ch=3 n=13 v=100
8358759 Off ch=3 n=13 v=0
8358762 On ch=3 n=11 v=100
8359456 Off ch=3 n=11 v=0
8359666 On ch=3 n=16 v=100
8359768 Off ch=3 n=16 v=0
8359797 On ch=3 n=14 v=100
8360070 On ch=3 n=12 v=100
8360079 Off ch=3 n=14 v=0
8360239 Off ch=3 n=12 v=0
8360298 On ch=3 n=12 v=100
8360388 On ch=3 n=22 v=100
8360541 On ch=3 n=10 v=100
8360585 Off ch=3 n=12 v=0
8360627 Off ch=3 n=22 v=0
8361071 Off ch=3 n=10 v=0
8361081 On ch=3 n=8 v=100
8361556 Off ch=3 n=8 v=0
8361563 On ch=3 n=6 v=100
8361634 Off ch=3 n=6 v=0
8361933 On ch=3 n=11 v=100
8362608 Off ch=3 n=11 v=0
8362615 On ch=3 n=13 v=100
8362687 Off ch=3 n=13 v=0
8362690 On ch=3 n=11 v=100
8363384 Off ch=3 n=11 v=0
8363594 On ch=3 n=16 v=100
8363696 Off ch=3 n=16 v=0
8363725 On ch=3 n=14 v=100
8363998 On ch=3 n=11 v=100
8364007 Off ch=3 n=14 v=0
8364167 Off ch=3 n=11 v=0
8364226 On ch=3 n=11 v=100
8364316 On ch=3 n=22 v=100
8364470 On ch=3 n=10 v=100
8364513 Off ch=3 n=11 v=0
8364555 Off ch=3 n=22 v=0
8364999 Off ch=3 n=10 v=0
8365009 On ch=3 n=8 v=100
8365484 Off ch=3 n=8 v=0
8365491 On ch=3 n=6 v=100
8365562 Off ch=3 n=6 v=0
8365861 On ch=3 n=6 v=100
8365861 On ch=3 n=9 v=100
8365893 Off ch=3 n=6 v=0
8365906 Off ch=3 n=9 v=0
8365925 On ch=3 n=30 v=100
8365960 On ch=3 n=13 v=100
8366236 Off ch=3 n=30 v=0
8366237 Off ch=3 n=13 v=0
8366244 On ch=3 n=11 v=100
8366310 Off ch=3 n=11 v=0
8366319 On ch=3 n=11 v=100
8367013 Off ch=3 n=11 v=0
8367094 On ch=3 n=32 v=100
8367117 On ch=3 n=16 v=100
8367241 Off ch=3 n=32 v=0
8367311 Off ch=3 n=16 v=0
8367969 On ch=3 n=47 v=100
8367989 On ch=3 n=7 v=100
8368134 Off ch=3 n=47 v=0
8368663 Off ch=3 n=7 v=0
8373108 On ch=3 n=9 v=100
8373379 Off ch=3 n=9 v=0
8376005 On ch=3 n=8 v=100
8376354 Off ch=3 n=8 v=0
8376355 On ch=3 n=9 v=100
8376768 Off ch=3 n=9 v=0
8378361 On ch=3 n=15 v=100
8378865 Off ch=3 n=15 v=0
8379481 On ch=3 n=30 v=100
8379647 On ch=3 n=32 v=100
8379675 Off ch=3 n=30 v=0
8380101 Off ch=3 n=32 v=0
8380452 On ch=3 n=24 v=100
8380549 Off ch=3 n=24 v=0
8381230 On ch=3 n=21 v=100
8381253 On ch=3 n=7 v=100
8381386 Off ch=3 n=21 v=0
8381513 Off ch=3 n=7 v=0
8382245 On ch=3 n=33 v=100
8382263 On ch=3 n=6 v=100
8382330 Off ch=3 n=33 v=0
8383494 Off ch=3 n=6 v=0
8383578 On ch=3 n=36 v=100
8383796 On ch=3 n=40 v=100
8383855 Off ch=3 n=36 v=0
8383942 Off ch=3 n=40 v=0
8384659 On ch=3 n=27 v=100
8384821 Off ch=3 n=27 v=0
8385610 On ch=3 n=2 v=100
8389976 Off ch=3 n=2 v=0
8390435 On ch=3 n=21 v=100
8390644 Off ch=3 n=21 v=0
8391964 On ch=3 n=19 v=100
8392163 Off ch=3 n=19 v=0
8411137 On ch=3 n=40 v=100
8411289 Off ch=3 n=40 v=0
8411312 On ch=3 n=19 v=100
8411468 Off ch=3 n=19 v=0
8411482 On ch=3 n=33 v=100
8411569 Off ch=3 n=33 v=0
8412158 On ch=3 n=27 v=100
8412493 Off ch=3 n=27 v=0
8412496 On ch=3 n=32 v=100
8413187 Off ch=3 n=32 v=0
8413224 On ch=3 n=28 v=100
8413351 Off ch=3 n=28 v=0
8413686 On ch=3 n=49 v=100
8414102 On ch=3 n=51 v=100
8414271 Off ch=3 n=49 v=0
8414752 On ch=3 n=28 v=100
8414857 Off ch=3 n=51 v=0
8414881 On ch=3 n=38 v=100
8414886 Off ch=3 n=28 v=0
8415044 Off ch=3 n=38 v=0
8415113 On ch=3 n=7 v=100
8415330 On ch=3 n=14 v=100
8415834 Off ch=3 n=7 v=0
8415911 Off ch=3 n=14 v=0
8415925 On ch=3 n=2 v=100
8415965 Off ch=3 n=2 v=0
8415987 On ch=3 n=13 v=100
8416109 Off ch=3 n=13 v=0
8416431 On ch=3 n=33 v=100
8416540 On ch=3 n=17 v=100
8416766 Off ch=3 n=33 v=0
8417171 Off ch=3 n=17 v=0
8417235 On ch=3 n=38 v=100
8417265 On ch=3 n=29 v=100
8417514 Off ch=3 n=38 v=0
8417518 Off ch=3 n=29 v=0
8417613 On ch=3 n=22 v=100
8417782 On ch=3 n=15 v=100
8417792 Off ch=3 n=22 v=0
8418328 On ch=3 n=18 v=100
8418333 Off ch=3 n=15 v=0
8419887 On ch=3 n=28 v=100
8419931 Off ch=3 n=18 v=0
8419933 On ch=3 n=25 v=100
8420051 Off ch=3 n=28 v=0
8420187 Off ch=3 n=25 v=0
8424133 On ch=3 n=5 v=100
8424224 On ch=3 n=26 v=100
8424226 Off ch=3 n=5 v=0
8424406 On ch=3 n=9 v=100
8424548 Off ch=3 n=26 v=0
8425682 Off ch=3 n=9 v=0
8426920 On ch=3 n=45 v=100
8427254 On ch=3 n=26 v=100
8427262 Off ch=3 n=45 v=0
8427293 On ch=3 n=14 v=100
8427558 On ch=3 n=15 v=100
8427591 Off ch=3 n=26 v=0
8427594 Off ch=3 n=14 v=0
8427600 Off ch=3 n=15 v=0
8428077 On ch=3 n=35 v=100
8428254 Off ch=3 n=35 v=0
8429386 On ch=3 n=57 v=100
8429669 On ch=3 n=60 v=100
8429964 Off ch=3 n=57 v=0
8430594 On ch=3 n=39 v=100
8430631 On ch=3 n=23 v=100
8430646 On ch=3 n=31 v=100
8430646 On ch=3 n=31 v=100
8430671 Off ch=3 n=60 v=0
8430672 On ch=3 n=23 v=100
8430673 On ch=3 n=33 v=100
8430744 Off ch=3 n=39 v=0
8430754 Off ch=3 n=23 v=0
8430806 Off ch=3 n=31 v=0
8430806 Off ch=3 n=31 v=0
8430996 Off ch=3 n=23 v=0
8431051 Off ch=3 n=33 v=0
8432676 On ch=3 n=2 v=100
8434042 Off ch=3 n=2 v=0
8437041 On ch=3 n=29 v=100
8437138 Off ch=3 n=29 v=0
8437143 On ch=3 n=12 v=100
8437276 Off ch=3 n=12 v=0
8437418 On ch=3 n=20 v=100
8437463 On ch=3 n=32 v=100
8437587 Off ch=3 n=20 v=0
8437608 Off ch=3 n=32 v=0
8438591 On ch=3 n=17 v=100
8438671 Off ch=3 n=17 v=0
8438708 On ch=3 n=17 v=100
8438727 Off ch=3 n=17 v=0
8438740 On ch=3 n=3 v=100
8439052 On ch=3 n=14 v=100
8439053 Off ch=3 n=3 v=0
8439302 On ch=3 n=10 v=100
8439302 Off ch=3 n=14 v=0
8439705 On ch=3 n=11 v=100
8439708 Off ch=3 n=10 v=0
8439793 Off ch=3 n=11 v=0
8439987 On ch=3 n=11 v=100
8440263 Off ch=3 n=11 v=0
8442547 On ch=3 n=14 v=100
8442547 On ch=3 n=14 v=100
8442571 On ch=3 n=6 v=100
8442852 Off ch=3 n=6 v=0
8442872 Off ch=3 n=14 v=0
8442872 Off ch=3 n=14 v=0
8443500 On ch=3 n=21 v=100
8443510 On ch=3 n=22 v=100
8443510 On ch=3 n=9 v=100
8443586 Off ch=3 n=21 v=0
8443859 Off ch=3 n=9 v=0
8444000 Off ch=3 n=22 v=0
8444110 On ch=3 n=21 v=100
8444213 Off ch=3 n=21 v=0
8444215 On ch=3 n=19 v=100
8444216 On ch=3 n=12 v=100
8444482 Off ch=3 n=12 v=0
8444527 On ch=3 n=12 v=100
8444576 Off ch=3 n=19 v=0
8444650 On ch=3 n=10 v=100
8444652 Off ch=3 n=12 v=0
8445081 Off ch=3 n=10 v=0
8445108 On ch=3 n=20 v=100
8445108 On ch=3 n=10 v=100
8445139 Off ch=3 n=10 v=0
8445295 Off ch=3 n=20 v=0
8445791 On ch=3 n=14 v=100
8445856 Off ch=3 n=14 v=0
8446099 On ch=3 n=22 v=100
8446199 Off ch=3 n=22 v=0
8446708 On ch=3 n=15 v=100
8446857 Off ch=3 n=15 v=0
8447135 On ch=3 n=23 v=100
8447253 Off ch=3 n=23 v=0
8448815 On ch=3 n=22 v=100
8448880 On ch=3 n=21 v=100
8449184 Off ch=3 n=22 v=0
8449191 Off ch=3 n=21 v=0
8449220 On ch=3 n=10 v=100
8449371 On ch=3 n=16 v=100
8449371 Off ch=3 n=10 v=0
8449911 Off ch=3 n=16 v=0
8450284 On ch=3 n=17 v=100
8450578 Off ch=3 n=17 v=0
8450600 On ch=3 n=3 v=100
8450653 On ch=3 n=8 v=100
8450656 Off ch=3 n=3 v=0
8450662 On ch=3 n=7 v=100
8450726 Off ch=3 n=8 v=0
8451712 On ch=3 n=33 v=100
8451744 Off ch=3 n=7 v=0
8451748 Off ch=3 n=33 v=0
8451750 On ch=3 n=11 v=100
8451924 Off ch=3 n=11 v=0
8451926 On ch=3 n=5 v=100
8452096 Off ch=3 n=5 v=0
8452153 On ch=3 n=5 v=100
8452256 Off ch=3 n=5 v=0
8454713 On ch=3 n=9 v=100
8454997 Off ch=3 n=9 v=0
8455031 On ch=3 n=35 v=100
8455262 Off ch=3 n=35 v=0
8455792 On ch=3 n=2 v=100
8456443 On ch=3 n=42 v=100
8456562 Off ch=3 n=2 v=0
8456577 Off ch=3 n=42 v=0
8458016 On ch=3 n=5 v=100
8458553 Off ch=3 n=5 v=0
8459778 On ch=3 n=55 v=100
8459778 On ch=3 n=55 v=100
8459899 On ch=3 n=31 v=100
8459941 On ch=3 n=29 v=100
8460149 Off ch=3 n=31 v=0
8460150 On ch=3 n=47 v=100
8460165 On ch=3 n=52 v=100
8460177 Off ch=3 n=55 v=0
8460177 Off ch=3 n=55 v=0
8460224 Off ch=3 n=29 v=0
8460226 On ch=3 n=17 v=100
8460236 Off ch=3 n=47 v=0
8460254 Off ch=3 n=52 v=0
8460373 Off ch=3 n=17 v=0
8460592 On ch=3 n=24 v=100
8460693 On ch=3 n=9 v=100
8460693 Off ch=3 n=24 v=0
8460925 Off ch=3 n=9 v=0
8462748 On ch=3 n=4 v=100
8463046 Off ch=3 n=4 v=0
8463048 On ch=3 n=4 v=100
8463524 On ch=3 n=4 v=100
8463528 Off ch=3 n=4 v=0
8465135 Off ch=3 n=4 v=0
8465137 On ch=3 n=3 v=100
8465362 On ch=3 n=2 v=100
8467359 Off ch=3 n=3 v=0
8467548 Off ch=3 n=2 v=0
8467692 On ch=3 n=5 v=100
8468073 Off ch=3 n=5 v=0
8468095 On ch=3 n=6 v=100
8468246 Off ch=3 n=6 v=0
8468248 On ch=3 n=5 v=100
8468303 On ch=3 n=7 v=100
8468303 Off ch=3 n=5 v=0
8468663 On ch=3 n=12 v=100
8468666 Off ch=3 n=7 v=0
8468724 On ch=3 n=6 v=100
8468741 Off ch=3 n=12 v=0
8469002 Off ch=3 n=6 v=0
8475502 On ch=3 n=4 v=100
8475773 Off ch=3 n=4 v=0
8476753 On ch=3 n=9 v=100
8476764 On ch=3 n=34 v=100
8476784 On ch=3 n=59 v=100
8476902 Off ch=3 n=9 v=0
8476966 Off ch=3 n=34 v=0
8476983 On ch=3 n=16 v=100
8476992 Off ch=3 n=59 v=0
8477250 On ch=3 n=1 v=100
8477263 Off ch=3 n=16 v=0
8480680 Off ch=3 n=1 v=0
8480683 On ch=3 n=3 v=100
8481058 Off ch=3 n=3 v=0
8481210 On ch=3 n=12 v=100
8481401 On ch=3 n=13 v=100
8481502 Off ch=3 n=12 v=0
8481637 On ch=3 n=5 v=100
8481682 Off ch=3 n=13 v=0
8481903 Off ch=3 n=5 v=0
8481968 On ch=3 n=27 v=100
8482297 Off ch=3 n=27 v=0
8482595 On ch=3 n=30 v=100
8482596 On ch=3 n=28 v=100
8482892 Off ch=3 n=30 v=0
8482955 Off ch=3 n=28 v=0
8483084 On ch=3 n=10 v=100
8484094 On ch=3 n=9 v=100
8484095 Off ch=3 n=10 v=0
8485154 Off ch=3 n=9 v=0
8485403 On ch=3 n=20 v=100
8485741 On ch=3 n=30 v=100
8485751 Off ch=3 n=20 v=0
8485794 Off ch=3 n=30 v=0
8485857 On ch=3 n=30 v=100
8486242 Off ch=3 n=30 v=0
8486316 On ch=3 n=30 v=100
8487800 Off ch=3 n=30 v=0
8487897 On ch=3 n=8 v=100
8487935 On ch=3 n=73 v=100
8487935 On ch=3 n=73 v=100
8488079 On ch=3 n=35 v=100
8488116 Off ch=3 n=8 v=0
8488131 On ch=3 n=17 v=100
8488281 On ch=3 n=16 v=100
8488285 Off ch=3 n=35 v=0
8488325 On ch=3 n=17 v=100
8488326 Off ch=3 n=17 v=0
8488357 On ch=3 n=29 v=100
8488402 Off ch=3 n=73 v=0
8488402 Off ch=3 n=73 v=0
8488435 On ch=3 n=10 v=100
8488476 Off ch=3 n=16 v=0
8488491 Off ch=3 n=17 v=0
8488491 Off ch=3 n=29 v=0
8488491 Off ch=3 n=10 v=0
8488520 On ch=3 n=17 v=100
8488520 On ch=3 n=29 v=100
8488520 On ch=3 n=10 v=100
8488549 Off ch=3 n=17 v=0
8488780 Off ch=3 n=29 v=0
8489610 Off ch=3 n=10 v=0
8489633 On ch=3 n=48 v=100
8489731 Off ch=3 n=48 v=0
8489817 On ch=3 n=48 v=100
8490674 Off ch=3 n=48 v=0
8490681 On ch=3 n=59 v=100
8491087 Off ch=3 n=59 v=0
8491410 On ch=3 n=16 v=100
8492094 Off ch=3 n=16 v=0
8492096 On ch=3 n=7 v=100
8496167 Off ch=3 n=7 v=0
8496268 On ch=3 n=11 v=100
8500874 Off ch=3 n=11 v=0
8500930 On ch=3 n=11 v=100
8501292 Off ch=3 n=11 v=0
8501363 On ch=3 n=1 v=100
8502303 Off ch=3 n=1 v=0
8502381 On ch=3 n=30 v=100
8502381 On ch=3 n=30 v=100
8502403 On ch=3 n=22 v=100
8502475 Off ch=3 n=22 v=0
8502487 Off ch=3 n=30 v=0
8502487 Off ch=3 n=30 v=0
8502684 On ch=3 n=6 v=100
8503196 Off ch=3 n=6 v=0
8509869 On ch=3 n=36 v=100
8509904 On ch=3 n=6 v=100
8510050 Off ch=3 n=36 v=0
8510319 Off ch=3 n=6 v=0
8514549 On ch=3 n=27 v=100
8514604 On ch=3 n=38 v=100
8514744 Off ch=3 n=27 v=0
8514842 Off ch=3 n=38 v=0
8514878 On ch=3 n=38 v=100
8514897 Off ch=3 n=38 v=0
8514929 On ch=3 n=38 v=100
8514963 Off ch=3 n=38 v=0
8515000 On ch=3 n=38 v=100
8515050 Off ch=3 n=38 v=0
8515102 On ch=3 n=38 v=100
8515146 Off ch=3 n=38 v=0
8515192 On ch=3 n=38 v=100
8515301 Off ch=3 n=38 v=0
8515391 On ch=3 n=11 v=100
8516658 On ch=3 n=14 v=100
8516682 Off ch=3 n=11 v=0
8517138 On ch=3 n=35 v=100
8517144 On ch=3 n=31 v=100
8517176 Off ch=3 n=14 v=0
8517281 On ch=3 n=29 v=100
8517417 Off ch=3 n=31 v=0
8517454 On ch=3 n=35 v=100
8517532 On ch=3 n=36 v=100
8517537 Off ch=3 n=29 v=0
8517611 Off ch=3 n=35 v=0
8517848 On ch=3 n=38 v=100
8517912 Off ch=3 n=35 v=0
8518012 Off ch=3 n=36 v=0
8518059 On ch=3 n=23 v=100
8518318 Off ch=3 n=23 v=0
8518328 Off ch=3 n=38 v=0
8518877 On ch=3 n=27 v=100
8518877 On ch=3 n=28 v=100
8518891 On ch=3 n=39 v=100
8518891 On ch=3 n=39 v=100
8519178 Off ch=3 n=27 v=0
8519187 On ch=3 n=24 v=100
8519224 Off ch=3 n=28 v=0
8519228 On ch=3 n=40 v=100
8519445 Off ch=3 n=24 v=0
8519527 Off ch=3 n=39 v=0
8519527 Off ch=3 n=39 v=0
8519624 Off ch=3 n=40 v=0
8521392 On ch=3 n=29 v=100
8521486 Off ch=3 n=29 v=0
8523239 On ch=3 n=26 v=100
8523596 On ch=3 n=15 v=100
8524223 Off ch=3 n=26 v=0
8524441 Off ch=3 n=15 v=0
8530845 On ch=3 n=11 v=100
8531010 Off ch=3 n=11 v=0
8531138 On ch=3 n=9 v=100
8531993 Off ch=3 n=9 v=0
8534324 On ch=3 n=25 v=100
8534481 Off ch=3 n=25 v=0
8535710 On ch=3 n=17 v=100
8536153 Off ch=3 n=17 v=0
8536986 On ch=3 n=15 v=100
8536991 On ch=3 n=20 v=100
8537154 Off ch=3 n=15 v=0
8537175 Off ch=3 n=20 v=0
8537610 On ch=3 n=11 v=100
8537845 Off ch=3 n=11 v=0
8538495 On ch=3 n=10 v=100
8538496 On ch=3 n=7 v=100
8539436 On ch=3 n=7 v=100
8539436 Off ch=3 n=7 v=0
8539692 Off ch=3 n=10 v=0
8539723 Off ch=3 n=7 v=0
8542193 On ch=3 n=22 v=100
8542288 Off ch=3 n=22 v=0
8542321 On ch=3 n=22 v=100
8542523 Off ch=3 n=22 v=0
8542574 On ch=3 n=22 v=100
8542594 Off ch=3 n=22 v=0
8544046 On ch=3 n=15 v=100
8544366 On ch=3 n=12 v=100
8544377 Off ch=3 n=15 v=0
8544633 On ch=3 n=23 v=100
8544823 On ch=3 n=9 v=100
8544837 Off ch=3 n=12 v=0
8544878 Off ch=3 n=23 v=0
8545385 Off ch=3 n=9 v=0
8550518 On ch=3 n=30 v=100
8550519 On ch=3 n=34 v=100
8550519 On ch=3 n=30 v=100
8550519 On ch=3 n=33 v=100
8550556 Off ch=3 n=30 v=0
8550562 Off ch=3 n=30 v=0
8550576 Off ch=3 n=34 v=0
8550585 Off ch=3 n=33 v=0
8550996 On ch=3 n=8 v=100
8551804 Off ch=3 n=8 v=0
8552265 On ch=3 n=23 v=100
8552476 Off ch=3 n=23 v=0
8554410 On ch=3 n=53 v=100
8554480 On ch=3 n=9 v=100
8554645 Off ch=3 n=53 v=0
8554922 Off ch=3 n=9 v=0
8554924 On ch=3 n=8 v=100
8555172 On ch=3 n=12 v=100
8555173 Off ch=3 n=8 v=0
8555422 Off ch=3 n=12 v=0
8555833 On ch=3 n=24 v=100
8556154 Off ch=3 n=24 v=0
8556302 On ch=3 n=18 v=100
8556345 Off ch=3 n=18 v=0
8556430 On ch=3 n=52 v=100
8556526 Off ch=3 n=52 v=0
8556546 On ch=3 n=23 v=100
8556594 Off ch=3 n=23 v=0
8559134 On ch=3 n=31 v=100
8559282 Off ch=3 n=31 v=0
8560751 On ch=3 n=38 v=100
8560823 Off ch=3 n=38 v=0
8560898 On ch=3 n=24 v=100
8560901 On ch=3 n=29 v=100
8560997 Off ch=3 n=24 v=0
8561013 Off ch=3 n=29 v=0
8561729 On ch=3 n=6 v=100
8561789 On ch=3 n=8 v=100
8561789 Off ch=3 n=6 v=0
8562151 On ch=3 n=21 v=100
8562192 On ch=3 n=12 v=100
8562205 Off ch=3 n=8 v=0
8562395 Off ch=3 n=21 v=0
8562676 Off ch=3 n=12 v=0
8563751 On ch=3 n=13 v=100
8564024 Off ch=3 n=13 v=0
8564052 On ch=3 n=17 v=100
8564154 Off ch=3 n=17 v=0
8565899 On ch=3 n=42 v=100
8566004 On ch=3 n=44 v=100
8566370 Off ch=3 n=42 v=0
8566370 Off ch=3 n=44 v=0
8566399 On ch=3 n=42 v=100
8566399 On ch=3 n=44 v=100
8566418 Off ch=3 n=42 v=0
8566429 Off ch=3 n=44 v=0
8566516 On ch=3 n=44 v=100
8566535 Off ch=3 n=44 v=0
8566564 On ch=3 n=44 v=100
8566751 Off ch=3 n=44 v=0
8567317 On ch=3 n=42 v=100
8567581 Off ch=3 n=42 v=0
8567635 On ch=3 n=42 v=100
8567839 Off ch=3 n=42 v=0
8571497 On ch=3 n=11 v=100
8572354 Off ch=3 n=11 v=0
8572431 On ch=3 n=11 v=100
8573019 On ch=3 n=21 v=100
8573019 Off ch=3 n=11 v=0
8573507 Off ch=3 n=21 v=0
8573520 On ch=3 n=3 v=100
8573948 On ch=3 n=5 v=100
8574018 Off ch=3 n=3 v=0
8574339 On ch=3 n=3 v=100
8574392 Off ch=3 n=5 v=0
8574804 Off ch=3 n=3 v=0
8578929 On ch=3 n=2 v=100
8581278 Off ch=3 n=2 v=0
8584687 On ch=3 n=38 v=100
8584769 Off ch=3 n=38 v=0
8588334 On ch=3 n=3 v=100
8589602 Off ch=3 n=3 v=0
8590043 On ch=3 n=4 v=100
8590714 Off ch=3 n=4 v=0
8590841 On ch=3 n=18 v=100
8590875 On ch=3 n=15 v=100
8590882 Off ch=3 n=18 v=0
8591520 Off ch=3 n=15 v=0
8591521 On ch=3 n=27 v=100
8591693 Off ch=3 n=27 v=0
8592595 On ch=3 n=7 v=100
8593673 Off ch=3 n=7 v=0
8593884 On ch=3 n=21 v=100
8594067 Off ch=3 n=21 v=0
8594081 On ch=3 n=9 v=100
8594411 Off ch=3 n=9 v=0
8595160 On ch=3 n=21 v=100
8595166 On ch=3 n=19 v=100
8595209 Off ch=3 n=21 v=0
8595219 Off ch=3 n=19 v=0
8599259 On ch=3 n=32 v=100
8599340 Off ch=3 n=32 v=0
8601494 On ch=3 n=4 v=100
8601972 Off ch=3 n=4 v=0
8602015 On ch=3 n=4 v=100
8602031 Off ch=3 n=4 v=0
8603386 On ch=3 n=2 v=100
8603557 Off ch=3 n=2 v=0
8603558 On ch=3 n=2 v=100
8604117 Off ch=3 n=2 v=0
8604597 On ch=3 n=9 v=100
8605422 Off ch=3 n=9 v=0
8605449 On ch=3 n=9 v=100
8606248 Off ch=3 n=9 v=0
8608270 On ch=3 n=6 v=100
8608505 On ch=3 n=2 v=100
8608531 Off ch=3 n=6 v=0
8609605 Off ch=3 n=2 v=0
8611806 On ch=3 n=48 v=100
8612166 Off ch=3 n=48 v=0
8612394 On ch=3 n=58 v=100
8612477 Off ch=3 n=58 v=0
8612783 On ch=3 n=25 v=100
8614519 Off ch=3 n=25 v=0
8614554 On ch=3 n=25 v=100
8614597 On ch=3 n=12 v=100
8614613 Off ch=3 n=25 v=0
8615013 Off ch=3 n=12 v=0
8615014 On ch=3 n=4 v=100
8615120 Off ch=3 n=4 v=0
8617597 On ch=3 n=16 v=100
8617632 On ch=3 n=6 v=100
8617823 Off ch=3 n=16 v=0
8618338 Off ch=3 n=6 v=0
8618340 On ch=3 n=6 v=100
8618407 Off ch=3 n=6 v=0
8619350 On ch=3 n=28 v=100
8619437 Off ch=3 n=28 v=0
8619750 On ch=3 n=26 v=100
8619793 Off ch=3 n=26 v=0
8619912 On ch=3 n=6 v=100
8620085 On ch=3 n=9 v=100
8620090 Off ch=3 n=6 v=0
8620376 Off ch=3 n=9 v=0
8620400 On ch=3 n=1 v=100
8621065 Off ch=3 n=1 v=0
8621228 On ch=3 n=24 v=100
8621316 Off ch=3 n=24 v=0
8621356 On ch=3 n=8 v=100
8621612 Off ch=3 n=8 v=0
8621625 On ch=3 n=24 v=100
8621687 Off ch=3 n=24 v=0
8621814 On ch=3 n=3 v=100
8621901 Off ch=3 n=3 v=0
8621969 On ch=3 n=8 v=100
8621977 On ch=3 n=9 v=100
8621979 Off ch=3 n=8 v=0
8622174 On ch=3 n=9 v=100
8622194 Off ch=3 n=9 v=0
8622557 On ch=3 n=5 v=100
8622557 Off ch=3 n=9 v=0
8622872 Off ch=3 n=5 v=0
8623375 On ch=3 n=17 v=100
8623419 Off ch=3 n=17 v=0
8623858 On ch=3 n=15 v=100
8623943 Off ch=3 n=15 v=0
8624035 On ch=3 n=42 v=100
8624080 On ch=3 n=13 v=100
8624174 Off ch=3 n=42 v=0
8624195 Off ch=3 n=13 v=0
8624272 On ch=3 n=23 v=100
8624374 Off ch=3 n=23 v=0
8624429 On ch=3 n=12 v=100
8624738 Off ch=3 n=12 v=0
8624981 On ch=3 n=64 v=100
8625447 Off ch=3 n=64 v=0
8626473 On ch=3 n=17 v=100
8626812 On ch=3 n=43 v=100
8626822 Off ch=3 n=17 v=0
8626939 Off ch=3 n=43 v=0
8627247 On ch=3 n=8 v=100
8627446 Off ch=3 n=8 v=0
8627552 On ch=3 n=31 v=100
8628191 Off ch=3 n=31 v=0
8628659 On ch=3 n=4 v=100
8628871 On ch=3 n=37 v=100
8628918 Off ch=3 n=4 v=0
8628926 Off ch=3 n=37 v=0
8629032 On ch=3 n=47 v=100
8629175 Off ch=3 n=47 v=0
8638757 On ch=3 n=21 v=100
8638818 On ch=3 n=21 v=100
8638978 Off ch=3 n=21 v=0
8639291 On ch=3 n=2 v=100
8640032 Off ch=3 n=21 v=0
8640032 Off ch=3 n=2 v=0
8641255 On ch=3 n=11 v=100
8641660 Off ch=3 n=11 v=0
8641962 On ch=3 n=17 v=100
8642058 Off ch=3 n=17 v=0
8643043 On ch=3 n=2 v=100
8644375 Off ch=3 n=2 v=0
8645165 On ch=3 n=23 v=100
8645334 Off ch=3 n=23 v=0
8645916 On ch=3 n=35 v=100
8646024 On ch=3 n=20 v=100
8646101 On ch=3 n=42 v=100
8646231 Off ch=3 n=35 v=0
8646245 Off ch=3 n=20 v=0
8646285 Off ch=3 n=42 v=0
8652297 On ch=3 n=2 v=100
8652616 Off ch=3 n=2 v=0
8654175 On ch=3 n=5 v=100
8655533 On ch=3 n=7 v=100
8655533 Off ch=3 n=5 v=0
8656005 Off ch=3 n=7 v=0
8667053 On ch=3 n=38 v=100
8667571 Off ch=3 n=38 v=0
8668135 On ch=3 n=28 v=100
8668210 Off ch=3 n=28 v=0
8668244 On ch=3 n=28 v=100
8668500 Off ch=3 n=28 v=0
8668535 On ch=3 n=28 v=100
8668580 Off ch=3 n=28 v=0
8668948 On ch=3 n=19 v=100
8668949 On ch=3 n=19 v=100
8669109 Off ch=3 n=19 v=0
8669169 Off ch=3 n=19 v=0
8670088 On ch=3 n=14 v=100
8670412 Off ch=3 n=14 v=0
8670478 On ch=3 n=14 v=100
8670502 Off ch=3 n=14 v=0
8671310 On ch=3 n=6 v=100
8671359 Off ch=3 n=6 v=0
8671418 On ch=3 n=8 v=100
8671538 Off ch=3 n=8 v=0
8671572 On ch=3 n=8 v=100
8672058 On ch=3 n=24 v=100
8672064 Off ch=3 n=8 v=0
8672182 Off ch=3 n=24 v=0
8672322 On ch=3 n=5 v=100
8672609 Off ch=3 n=5 v=0
8672611 On ch=3 n=3 v=100
8674596 Off ch=3 n=3 v=0
8675475 On ch=3 n=3 v=100
8676838 Off ch=3 n=3 v=0
8681880 On ch=3 n=21 v=100
8682013 Off ch=3 n=21 v=0
8682796 On ch=3 n=11 v=100
8682799 On ch=3 n=24 v=100
8682928 Off ch=3 n=11 v=0
8682964 Off ch=3 n=24 v=0
8683068 On ch=3 n=20 v=100
8683113 On ch=3 n=31 v=100
8683240 Off ch=3 n=20 v=0
8683261 Off ch=3 n=31 v=0
8684223 On ch=3 n=12 v=100
8684307 Off ch=3 n=12 v=0
8684368 On ch=3 n=12 v=100
8684378 Off ch=3 n=12 v=0
8684391 On ch=3 n=6 v=100
8684705 On ch=3 n=14 v=100
8684707 Off ch=3 n=6 v=0
8684957 On ch=3 n=10 v=100
8684962 Off ch=3 n=14 v=0
8685337 On ch=3 n=14 v=100
8685340 Off ch=3 n=10 v=0
8685424 Off ch=3 n=14 v=0
8685617 On ch=3 n=11 v=100
8685892 Off ch=3 n=11 v=0
8688163 On ch=3 n=2 v=100
8688695 Off ch=3 n=2 v=0
8688698 On ch=3 n=4 v=100
8689959 On ch=3 n=43 v=100
8689963 On ch=3 n=34 v=100
8690143 Off ch=3 n=4 v=0
8690157 On ch=3 n=1 v=100
8690176 Off ch=3 n=34 v=0
8690260 Off ch=3 n=43 v=0
8693225 Off ch=3 n=1 v=0
8693520 On ch=3 n=14 v=100
8693548 On ch=3 n=20 v=100
8693566 On ch=3 n=41 v=100
8693609 Off ch=3 n=14 v=0
8693625 Off ch=3 n=20 v=0
8693635 Off ch=3 n=41 v=0
8693964 On ch=3 n=21 v=100
8694014 Off ch=3 n=21 v=0
8694018 On ch=3 n=20 v=100
8694103 Off ch=3 n=20 v=0
8695235 On ch=3 n=13 v=100
8695279 On ch=3 n=19 v=100
8695298 Off ch=3 n=13 v=0
8695369 Off ch=3 n=19 v=0
8695464 On ch=3 n=9 v=100
8695505 Off ch=3 n=9 v=0
8695699 On ch=3 n=10 v=100
8695921 Off ch=3 n=10 v=0
8696385 On ch=3 n=18 v=100
8696419 On ch=3 n=12 v=100
8696447 Off ch=3 n=18 v=0
8696514 On ch=3 n=2 v=100
8696515 Off ch=3 n=12 v=0
8696668 On ch=3 n=14 v=100
8696860 Off ch=3 n=2 v=0
8697451 On ch=3 n=6 v=100
8697596 Off ch=3 n=14 v=0
8697640 Off ch=3 n=6 v=0
8697673 On ch=3 n=30 v=100
8697755 Off ch=3 n=30 v=0
8697903 On ch=3 n=20 v=100
8697968 On ch=3 n=17 v=100
8697968 On ch=3 n=17 v=100
8697981 Off ch=3 n=20 v=0
8697984 On ch=3 n=10 v=100
8698432 Off ch=3 n=10 v=0
8698434 On ch=3 n=18 v=100
8698484 Off ch=3 n=17 v=0
8698484 Off ch=3 n=17 v=0
8698541 On ch=3 n=9 v=100
8698553 Off ch=3 n=18 v=0
8699444 On ch=3 n=8 v=100
8699459 Off ch=3 n=9 v=0
8699560 Off ch=3 n=8 v=0
8699562 On ch=3 n=9 v=100
8699845 On ch=3 n=7 v=100
8699864 Off ch=3 n=9 v=0
8699954 Off ch=3 n=7 v=0
8700215 On ch=3 n=23 v=100
8700318 On ch=3 n=44 v=100
8700356 On ch=3 n=36 v=100
8700367 Off ch=3 n=23 v=0
8700368 On ch=3 n=44 v=100
8700368 On ch=3 n=44 v=100
8700386 On ch=3 n=23 v=100
8700484 Off ch=3 n=44 v=0
8700484 Off ch=3 n=23 v=0
8700594 Off ch=3 n=36 v=0
8700682 Off ch=3 n=44 v=0
8700682 Off ch=3 n=44 v=0
8701933 On ch=3 n=19 v=100
8702006 Off ch=3 n=19 v=0
8702328 On ch=3 n=15 v=100
8702455 On ch=3 n=31 v=100
8702499 Off ch=3 n=15 v=0
8702624 On ch=3 n=32 v=100
8702624 Off ch=3 n=31 v=0
8702863 Off ch=3 n=32 v=0
8702930 On ch=3 n=32 v=100
8703339 Off ch=3 n=32 v=0
8703359 On ch=3 n=13 v=100
8703363 On ch=3 n=19 v=100
8703566 Off ch=3 n=13 v=0
8703605 Off ch=3 n=19 v=0
8725609 On ch=3 n=1 v=100
8726834 On ch=3 n=5 v=100
8726838 Off ch=3 n=1 v=0
8727280 Off ch=3 n=5 v=0
8727281 On ch=3 n=3 v=100
8727554 Off ch=3 n=3 v=0
8728134 On ch=3 n=2 v=100
8729028 On ch=3 n=4 v=100
8729050 Off ch=3 n=2 v=0
8730401 Off ch=3 n=4 v=0
8732096 On ch=3 n=1 v=100
8734087 On ch=3 n=6 v=100
8734176 Off ch=3 n=1 v=0
8734226 Off ch=3 n=6 v=0
8734264 On ch=3 n=1 v=100
8735655 On ch=3 n=1 v=100
8735690 Off ch=3 n=1 v=0
8736553 Off ch=3 n=1 v=0
8736558 On ch=3 n=36 v=100
8736640 Off ch=3 n=36 v=0
8742644 On ch=3 n=4 v=100
8743316 Off ch=3 n=4 v=0
8743442 On ch=3 n=20 v=100
8743476 On ch=3 n=12 v=100
8743484 Off ch=3 n=20 v=0
8744121 Off ch=3 n=12 v=0
8744122 On ch=3 n=27 v=100
8744244 Off ch=3 n=27 v=0
8745143 On ch=3 n=7 v=100
8746214 Off ch=3 n=7 v=0
8746215 On ch=3 n=19 v=100
8746557 On ch=3 n=7 v=100
8746598 Off ch=3 n=19 v=0
8746843 Off ch=3 n=7 v=0
8748612 On ch=3 n=1 v=100
8750207 Off ch=3 n=1 v=0
8751764 On ch=3 n=36 v=100
8751846 Off ch=3 n=36 v=0
8751850 On ch=3 n=1 v=100
8752188 Off ch=3 n=1 v=0
8752577 On ch=3 n=5 v=100
8752837 Off ch=3 n=5 v=0
8752838 On ch=3 n=21 v=100
8752838 On ch=3 n=2 v=100
8753616 Off ch=3 n=2 v=0
8753925 On ch=3 n=15 v=100
8754079 On ch=3 n=8 v=100
8754085 Off ch=3 n=21 v=0
8754108 Off ch=3 n=15 v=0
8754317 On ch=3 n=6 v=100
8754318 Off ch=3 n=8 v=0
8760626 Off ch=3 n=6 v=0
8774557 On ch=3 n=32 v=100
8774578 On ch=3 n=3 v=100
8774628 Off ch=3 n=32 v=0
8775064 On ch=3 n=35 v=100
8775131 Off ch=3 n=3 v=0
8775156 Off ch=3 n=35 v=0
8778988 On ch=3 n=32 v=100
8779009 On ch=3 n=3 v=100
8779059 Off ch=3 n=32 v=0
8779496 On ch=3 n=35 v=100
8779563 Off ch=3 n=3 v=0
8779588 Off ch=3 n=35 v=0
8788583 On ch=3 n=32 v=100
8788604 On ch=3 n=3 v=100
8788654 Off ch=3 n=32 v=0
8789092 On ch=3 n=36 v=100
8789158 Off ch=3 n=3 v=0
8789182 Off ch=3 n=36 v=0
8794301 On ch=3 n=32 v=100
8794322 On ch=3 n=3 v=100
8794372 Off ch=3 n=32 v=0
8794809 On ch=3 n=35 v=100
8794876 Off ch=3 n=3 v=0
8794901 Off ch=3 n=35 v=0
8799012 On ch=3 n=2 v=100
8799364 On ch=3 n=2 v=100
8801361 Off ch=3 n=2 v=0
8802282 On ch=3 n=0 v=100
8802310 Off ch=3 n=2 v=0
8808625 Off ch=3 n=0 v=0
8808632 On ch=3 n=3 v=100
8810045 Off ch=3 n=3 v=0
8810084 On ch=3 n=3 v=100
8810219 On ch=3 n=54 v=100
8810465 On ch=3 n=9 v=100
8810492 Off ch=3 n=3 v=0
8811715 Off ch=3 n=54 v=0
8814568 On ch=3 n=50 v=100
8815049 On ch=3 n=7 v=100
8815098 Off ch=3 n=9 v=0
8815213 Off ch=3 n=50 v=0
8816813 Off ch=3 n=7 v=0
8816834 On ch=3 n=5 v=100
8817036 On ch=3 n=8 v=100
8817038 Off ch=3 n=5 v=0
8817182 On ch=3 n=6 v=100
8817183 Off ch=3 n=8 v=0
8817214 On ch=3 n=6 v=100
8817233 Off ch=3 n=6 v=0
8817497 Off ch=3 n=6 v=0
8821197 On ch=3 n=8 v=100
8821288 On ch=3 n=44 v=100
8821354 Off ch=3 n=8 v=0
8821458 Off ch=3 n=44 v=0
8821968 On ch=3 n=13 v=100
8822008 Off ch=3 n=13 v=0
8822009 On ch=3 n=7 v=100
8822267 On ch=3 n=32 v=100
8822341 Off ch=3 n=7 v=0
8822357 Off ch=3 n=32 v=0
8824046 On ch=3 n=4 v=100
8824336 Off ch=3 n=4 v=0
8826945 On ch=3 n=6 v=100
8827763 Off ch=3 n=6 v=0
8827788 On ch=3 n=14 v=100
8827789 On ch=3 n=46 v=100
8827817 Off ch=3 n=14 v=0
8827848 Off ch=3 n=46 v=0
8845681 On ch=3 n=3 v=100
8846561 Off ch=3 n=3 v=0
8846565 On ch=3 n=3 v=100
8846629 Off ch=3 n=3 v=0
8849683 On ch=3 n=17 v=100
8850073 On ch=3 n=31 v=100
8850131 Off ch=3 n=17 v=0
8851032 Off ch=3 n=31 v=0
8851033 On ch=3 n=1 v=100
8851343 Off ch=3 n=1 v=0
8853372 On ch=3 n=63 v=100
8853457 Off ch=3 n=63 v=0
8853660 On ch=3 n=45 v=100
8853758 Off ch=3 n=45 v=0
8874329 On ch=3 n=27 v=100
8874478 Off ch=3 n=27 v=0
8874515 On ch=3 n=15 v=100
8874611 On ch=3 n=6 v=100
8874622 Off ch=3 n=15 v=0
8874967 Off ch=3 n=6 v=0
8875015 On ch=3 n=2 v=100
8876495 Off ch=3 n=2 v=0
8876532 On ch=3 n=21 v=100
8876619 On ch=3 n=9 v=100
8876621 Off ch=3 n=21 v=0
8876781 On ch=3 n=19 v=100
8876782 Off ch=3 n=9 v=0
8876804 On ch=3 n=12 v=100
8876932 Off ch=3 n=19 v=0
8877178 Off ch=3 n=12 v=0
8877196 On ch=3 n=10 v=100
8877718 Off ch=3 n=10 v=0
8878217 On ch=3 n=30 v=100
8878217 On ch=3 n=30 v=100
8878308 On ch=3 n=17 v=100
8878308 On ch=3 n=14 v=100
8878361 On ch=3 n=29 v=100
8878361 On ch=3 n=29 v=100
8878398 Off ch=3 n=17 v=0
8878400 Off ch=3 n=30 v=0
8878400 Off ch=3 n=30 v=0
8878436 Off ch=3 n=14 v=0
8878524 On ch=3 n=6 v=100
8878524 Off ch=3 n=29 v=0
8878524 Off ch=3 n=29 v=0
8878954 On ch=3 n=19 v=100
8879005 Off ch=3 n=6 v=0
8879336 Off ch=3 n=19 v=0
8879343 On ch=3 n=7 v=100
8879519 On ch=3 n=4 v=100
8879520 Off ch=3 n=7 v=0
8879730 On ch=3 n=11 v=100
8879730 On ch=3 n=18 v=100
8879730 Off ch=3 n=4 v=0
8880016 Off ch=3 n=11 v=0
8880018 On ch=3 n=4 v=100
8880066 Off ch=3 n=18 v=0
8880974 Off ch=3 n=4 v=0
8888423 On ch=3 n=3 v=100
8889623 Off ch=3 n=3 v=0
8897634 On ch=3 n=24 v=100
8897801 Off ch=3 n=24 v=0
8897804 On ch=3 n=33 v=100
8897893 Off ch=3 n=33 v=0
8898475 On ch=3 n=31 v=100
8899507 Off ch=3 n=31 v=0
8899544 On ch=3 n=25 v=100
8899623 Off ch=3 n=25 v=0
8899645 On ch=3 n=31 v=100
8899772 Off ch=3 n=31 v=0
8900107 On ch=3 n=49 v=100
8900523 On ch=3 n=54 v=100
8900693 Off ch=3 n=49 v=0
8901174 On ch=3 n=28 v=100
8901279 Off ch=3 n=54 v=0
8901303 On ch=3 n=39 v=100
8901308 Off ch=3 n=28 v=0
8901465 Off ch=3 n=39 v=0
8901533 On ch=3 n=7 v=100
8901747 On ch=3 n=14 v=100
8902252 Off ch=3 n=7 v=0
8902328 Off ch=3 n=14 v=0
8902342 On ch=3 n=2 v=100
8902382 Off ch=3 n=2 v=0
8902403 On ch=3 n=11 v=100
8902526 Off ch=3 n=11 v=0
8903423 On ch=3 n=28 v=100
8903515 On ch=3 n=17 v=100
8903740 Off ch=3 n=28 v=0
8904145 Off ch=3 n=17 v=0
8904210 On ch=3 n=38 v=100
8904240 On ch=3 n=29 v=100
8904489 Off ch=3 n=38 v=0
8904493 Off ch=3 n=29 v=0
8904588 On ch=3 n=23 v=100
8904757 On ch=3 n=15 v=100
8904767 Off ch=3 n=23 v=0
8905303 On ch=3 n=18 v=100
8905309 Off ch=3 n=15 v=0
8906871 On ch=3 n=35 v=100
8906914 On ch=3 n=27 v=100
8906915 Off ch=3 n=18 v=0
8907034 Off ch=3 n=35 v=0
8907173 Off ch=3 n=27 v=0
8911131 On ch=3 n=5 v=100
8911221 On ch=3 n=26 v=100
8911223 Off ch=3 n=5 v=0
8911403 On ch=3 n=10 v=100
8911545 Off ch=3 n=26 v=0
8912690 Off ch=3 n=10 v=0
8913928 On ch=3 n=43 v=100
8914261 On ch=3 n=25 v=100
8914269 Off ch=3 n=43 v=0
8914326 On ch=3 n=8 v=100
8914600 Off ch=3 n=25 v=0
8914603 Off ch=3 n=8 v=0
8914988 On ch=3 n=55 v=100
8915141 Off ch=3 n=55 v=0
8915180 On ch=3 n=39 v=100
8915366 Off ch=3 n=39 v=0
8919648 On ch=3 n=2 v=100
8920977 Off ch=3 n=2 v=0
8921749 On ch=3 n=2 v=100
8924488 Off ch=3 n=2 v=0
8924495 On ch=3 n=19 v=100
8924622 Off ch=3 n=19 v=0
8925381 On ch=3 n=12 v=100
8925514 Off ch=3 n=12 v=0
8925662 On ch=3 n=18 v=100
8925833 Off ch=3 n=18 v=0
8926783 On ch=3 n=32 v=100
8926820 On ch=3 n=18 v=100
8926903 Off ch=3 n=32 v=0
8926904 Off ch=3 n=18 v=0
8926953 On ch=3 n=18 v=100
8926965 Off ch=3 n=18 v=0
8926985 On ch=3 n=4 v=100
8927297 On ch=3 n=14 v=100
8927298 Off ch=3 n=4 v=0
8927548 On ch=3 n=8 v=100
8927548 Off ch=3 n=14 v=0
8927952 On ch=3 n=11 v=100
8927955 Off ch=3 n=8 v=0
8928040 Off ch=3 n=11 v=0
8928238 On ch=3 n=10 v=100
8928510 Off ch=3 n=10 v=0
8931064 On ch=3 n=23 v=100
8931073 On ch=3 n=38 v=100
8931126 Off ch=3 n=23 v=0
8931137 Off ch=3 n=38 v=0
8931467 On ch=3 n=18 v=100
8931530 Off ch=3 n=18 v=0
8931540 On ch=3 n=22 v=100
8931622 Off ch=3 n=22 v=0
8932722 On ch=3 n=14 v=100
8932776 Off ch=3 n=14 v=0
8932909 On ch=3 n=28 v=100
8932928 On ch=3 n=13 v=100
8933005 Off ch=3 n=28 v=0
8933027 On ch=3 n=5 v=100
8933030 Off ch=3 n=13 v=0
8933164 On ch=3 n=10 v=100
8933502 On ch=3 n=13 v=100
8934045 Off ch=3 n=5 v=0
8934191 Off ch=3 n=10 v=0
8934262 On ch=3 n=12 v=100
8934281 Off ch=3 n=13 v=0
8934737 Off ch=3 n=12 v=0
8935071 On ch=3 n=5 v=100
8935267 Off ch=3 n=5 v=0
8935318 On ch=3 n=27 v=100
8935418 Off ch=3 n=27 v=0
8935563 On ch=3 n=19 v=100
8935654 On ch=3 n=16 v=100
8935654 On ch=3 n=16 v=100
8935667 Off ch=3 n=19 v=0
8935670 On ch=3 n=11 v=100
8936110 Off ch=3 n=11 v=0
8936112 On ch=3 n=16 v=100
8936162 Off ch=3 n=16 v=0
8936162 Off ch=3 n=16 v=0
8936200 Off ch=3 n=16 v=0
8936223 On ch=3 n=10 v=100
8937130 Off ch=3 n=10 v=0
8937131 On ch=3 n=7 v=100
8937698 On ch=3 n=8 v=100
8937716 Off ch=3 n=7 v=0
8937812 Off ch=3 n=8 v=0
8938283 On ch=3 n=33 v=100
8938435 Off ch=3 n=33 v=0
8938436 On ch=3 n=24 v=100
8938543 On ch=3 n=46 v=100
8938586 On ch=3 n=35 v=100
8938596 Off ch=3 n=24 v=0
8938597 On ch=3 n=48 v=100
8938606 On ch=3 n=34 v=100
8938615 On ch=3 n=24 v=100
8938719 Off ch=3 n=24 v=0
8938721 Off ch=3 n=46 v=0
8938828 Off ch=3 n=34 v=0
8938837 Off ch=3 n=35 v=0
8938915 Off ch=3 n=48 v=0
8940152 On ch=3 n=28 v=100
8940163 On ch=3 n=22 v=100
8940209 Off ch=3 n=28 v=0
8940236 Off ch=3 n=22 v=0
8941307 On ch=3 n=13 v=100
8941394 Off ch=3 n=13 v=0
8941396 On ch=3 n=8 v=100
8941859 On ch=3 n=7 v=100
8941870 Off ch=3 n=8 v=0
8942577 Off ch=3 n=7 v=0
8942686 On ch=3 n=8 v=100
8943522 Off ch=3 n=8 v=0
8943917 On ch=3 n=9 v=100
8944223 Off ch=3 n=9 v=0
8945729 On ch=3 n=12 v=100
8945794 On ch=3 n=26 v=100
8945806 Off ch=3 n=12 v=0
8945812 On ch=3 n=8 v=100
8945959 Off ch=3 n=26 v=0
8946343 On ch=3 n=54 v=100
8946414 Off ch=3 n=8 v=0
8946424 Off ch=3 n=54 v=0
8946489 On ch=3 n=18 v=100
8946556 Off ch=3 n=18 v=0
8946699 On ch=3 n=20 v=100
8946784 Off ch=3 n=20 v=0
8946800 On ch=3 n=12 v=100
8948137 Off ch=3 n=12 v=0
8948699 On ch=3 n=12 v=100
8949020 Off ch=3 n=12 v=0
8950816 On ch=3 n=1 v=100
8952340 On ch=3 n=8 v=100
8952340 Off ch=3 n=1 v=0
8952656 Off ch=3 n=8 v=0
8953376 On ch=3 n=41 v=100
8953396 On ch=3 n=2 v=100
8953474 Off ch=3 n=41 v=0
8955777 On ch=3 n=19 v=100
8955854 On ch=3 n=10 v=100
8955867 Off ch=3 n=2 v=0
8956277 Off ch=3 n=19 v=0
8958680 Off ch=3 n=10 v=0
8958781 On ch=3 n=13 v=100
8960967 Off ch=3 n=13 v=0
8961286 On ch=3 n=1 v=100
8962209 Off ch=3 n=1 v=0
8962211 On ch=3 n=0 v=100
8962811 Off ch=3 n=0 v=0
8962848 On ch=3 n=14 v=100
8962914 On ch=3 n=11 v=100
8962915 Off ch=3 n=14 v=0
8963002 Off ch=3 n=11 v=0
8963006 On ch=3 n=9 v=100
8963416 On ch=3 n=11 v=100
8963419 Off ch=3 n=9 v=0
8963472 Off ch=3 n=11 v=0
8963669 On ch=3 n=3 v=100
8963964 Off ch=3 n=3 v=0
8964200 On ch=3 n=33 v=100
8964556 Off ch=3 n=33 v=0
8983324 On ch=3 n=3 v=100
8984204 Off ch=3 n=3 v=0
8984208 On ch=3 n=3 v=100
8984272 Off ch=3 n=3 v=0
8987326 On ch=3 n=17 v=100
8987716 On ch=3 n=31 v=100
8987774 Off ch=3 n=17 v=0
8988675 Off ch=3 n=31 v=0
8988676 On ch=3 n=1 v=100
8988986 Off ch=3 n=1 v=0
8991015 On ch=3 n=63 v=100
8991100 Off ch=3 n=63 v=0
8991303 On ch=3 n=45 v=100
8991401 Off ch=3 n=45 v=0
9011971 On ch=3 n=27 v=100
9012120 Off ch=3 n=27 v=0
9012157 On ch=3 n=15 v=100
9012253 On ch=3 n=6 v=100
9012264 Off ch=3 n=15 v=0
9012609 Off ch=3 n=6 v=0
9012683 On ch=3 n=2 v=100
9014163 Off ch=3 n=2 v=0
9014200 On ch=3 n=21 v=100
9014287 On ch=3 n=9 v=100
9014289 Off ch=3 n=21 v=0
9014449 On ch=3 n=19 v=100
9014450 Off ch=3 n=9 v=0
9014472 On ch=3 n=12 v=100
9014600 Off ch=3 n=19 v=0
9014846 Off ch=3 n=12 v=0
9014864 On ch=3 n=10 v=100
9015386 Off ch=3 n=10 v=0
9015885 On ch=3 n=30 v=100
9015885 On ch=3 n=30 v=100
9015976 On ch=3 n=17 v=100
9015976 On ch=3 n=14 v=100
9016029 On ch=3 n=29 v=100
9016029 On ch=3 n=29 v=100
9016066 Off ch=3 n=17 v=0
9016068 Off ch=3 n=30 v=0
9016068 Off ch=3 n=30 v=0
9016104 Off ch=3 n=14 v=0
9016192 On ch=3 n=6 v=100
9016192 Off ch=3 n=29 v=0
9016192 Off ch=3 n=29 v=0
9016622 On ch=3 n=19 v=100
9016673 Off ch=3 n=6 v=0
9017004 Off ch=3 n=19 v=0
9017011 On ch=3 n=7 v=100
9017187 On ch=3 n=4 v=100
9017188 Off ch=3 n=7 v=0
9017398 On ch=3 n=11 v=100
9017398 On ch=3 n=18 v=100
9017398 Off ch=3 n=4 v=0
9017684 Off ch=3 n=11 v=0
9017686 On ch=3 n=4 v=100
9017734 Off ch=3 n=18 v=0
9018642 Off ch=3 n=4 v=0
9026088 On ch=3 n=3 v=100
9027288 Off ch=3 n=3 v=0
9038688 On ch=3 n=67 v=100
9039072 Off ch=3 n=67 v=0
9039237 On ch=3 n=30 v=100
9039755 Off ch=3 n=30 v=0
9040235 On ch=3 n=36 v=100
9040277 On ch=3 n=50 v=100
9040286 On ch=3 n=12 v=100
9040479 Off ch=3 n=12 v=0
9040497 Off ch=3 n=36 v=0
9040625 Off ch=3 n=50 v=0
9042359 On ch=3 n=11 v=100
9042416 Off ch=3 n=11 v=0
9045228 On ch=3 n=5 v=100
9045613 Off ch=3 n=5 v=0
9045621 On ch=3 n=4 v=100
9046293 Off ch=3 n=4 v=0
9046298 On ch=3 n=28 v=100
9046310 On ch=3 n=33 v=100
9046311 On ch=3 n=33 v=100
9046390 Off ch=3 n=28 v=0
9046458 Off ch=3 n=33 v=0
9046478 Off ch=3 n=33 v=0
9046795 On ch=3 n=5 v=100
9046898 Off ch=3 n=5 v=0
9047821 On ch=3 n=9 v=100
9048337 On ch=3 n=20 v=100
9048371 On ch=3 n=8 v=100
9048404 Off ch=3 n=9 v=0
9048515 Off ch=3 n=8 v=0
9048516 Off ch=3 n=20 v=0
9064766 On ch=3 n=14 v=100
9065079 On ch=3 n=13 v=100
9065090 Off ch=3 n=14 v=0
9065267 Off ch=3 n=13 v=0
9065268 On ch=3 n=4 v=100
9066508 On ch=3 n=28 v=100
9066518 Off ch=3 n=4 v=0
9066579 Off ch=3 n=28 v=0
9067493 On ch=3 n=2 v=100
9067750 Off ch=3 n=2 v=0
9067752 On ch=3 n=6 v=100
9068703 Off ch=3 n=6 v=0
9068859 On ch=3 n=1 v=100
9068868 Off ch=3 n=1 v=0
9068985 On ch=3 n=1 v=100
9069889 On ch=3 n=10 v=100
9069894 Off ch=3 n=1 v=0
9069902 Off ch=3 n=10 v=0
9069970 On ch=3 n=10 v=100
9070512 Off ch=3 n=10 v=0
9070551 On ch=3 n=0 v=100
9071753 On ch=3 n=19 v=100
9071788 On ch=3 n=9 v=100
9071793 On ch=3 n=21 v=100
9071799 Off ch=3 n=0 v=0
9072076 On ch=3 n=1 v=100
9072076 Off ch=3 n=19 v=0
9072081 Off ch=3 n=9 v=0
9072143 Off ch=3 n=21 v=0
9072621 Off ch=3 n=1 v=0
9072758 On ch=3 n=2 v=100
9073234 Off ch=3 n=2 v=0
9073237 On ch=3 n=4 v=100
9074905 Off ch=3 n=4 v=0
9074982 On ch=3 n=4 v=100
9075040 On ch=3 n=2 v=100
9075042 Off ch=3 n=4 v=0
9075950 Off ch=3 n=2 v=0
9075983 On ch=3 n=2 v=100
9076586 Off ch=3 n=2 v=0
9076588 On ch=3 n=9 v=100
9079715 Off ch=3 n=9 v=0
9080584 On ch=3 n=32 v=100
9080906 Off ch=3 n=32 v=0
9081449 On ch=3 n=26 v=100
9081613 Off ch=3 n=26 v=0
9086012 On ch=3 n=14 v=100
9086085 On ch=3 n=25 v=100
9086153 On ch=3 n=32 v=100
9086153 On ch=3 n=32 v=100
9086173 On ch=3 n=17 v=100
9086246 Off ch=3 n=14 v=0
9086455 Off ch=3 n=25 v=0
9086455 Off ch=3 n=17 v=0
9086467 On ch=3 n=12 v=100
9086467 On ch=3 n=12 v=100
9086558 Off ch=3 n=32 v=0
9086558 Off ch=3 n=32 v=0
9086643 On ch=3 n=10 v=100
9086646 Off ch=3 n=12 v=0
9086646 Off ch=3 n=12 v=0
9086799 Off ch=3 n=10 v=0
9086868 On ch=3 n=10 v=100
9086899 Off ch=3 n=10 v=0
9086948 On ch=3 n=10 v=100
9087668 On ch=3 n=14 v=100
9087682 Off ch=3 n=10 v=0
9087955 Off ch=3 n=14 v=0
9088270 On ch=3 n=13 v=100
9088300 On ch=3 n=12 v=100
9088303 On ch=3 n=4 v=100
9088581 Off ch=3 n=13 v=0
9088582 Off ch=3 n=4 v=0
9088645 Off ch=3 n=12 v=0
9090125 On ch=3 n=39 v=100
9090423 Off ch=3 n=39 v=0
9090531 On ch=3 n=58 v=100
9090801 Off ch=3 n=58 v=0
9091888 On ch=3 n=7 v=100
9092040 Off ch=3 n=7 v=0
9095355 On ch=3 n=16 v=100
9095855 Off ch=3 n=16 v=0
9100671 On ch=3 n=22 v=100
9102076 On ch=3 n=14 v=100
9102086 Off ch=3 n=22 v=0
9104264 Off ch=3 n=14 v=0
9104907 On ch=3 n=47 v=100
9104943 Off ch=3 n=47 v=0
9105033 On ch=3 n=47 v=100
9105090 Off ch=3 n=47 v=0
9119842 On ch=3 n=11 v=100
9120174 Off ch=3 n=11 v=0
9120233 On ch=3 n=11 v=100
9120675 Off ch=3 n=11 v=0
9120677 On ch=3 n=8 v=100
9120895 Off ch=3 n=8 v=0
9122216 On ch=3 n=8 v=100
9122517 On ch=3 n=12 v=100
9122531 Off ch=3 n=8 v=0
9122630 On ch=3 n=10 v=100
9122641 Off ch=3 n=12 v=0
9123130 On ch=3 n=35 v=100
9123296 On ch=3 n=14 v=100
9123309 Off ch=3 n=10 v=0
9123345 Off ch=3 n=35 v=0
9123469 Off ch=3 n=14 v=0
9124903 On ch=3 n=41 v=100
9125026 On ch=3 n=19 v=100
9125029 Off ch=3 n=41 v=0
9125040 On ch=3 n=34 v=100
9125062 On ch=3 n=23 v=100
9125089 Off ch=3 n=19 v=0
9125183 Off ch=3 n=34 v=0
9125190 Off ch=3 n=23 v=0
9125206 On ch=3 n=15 v=100
9125561 Off ch=3 n=15 v=0
9125847 On ch=3 n=3 v=100
9126571 Off ch=3 n=3 v=0
9126610 On ch=3 n=6 v=100
9126857 On ch=3 n=10 v=100
9126861 Off ch=3 n=6 v=0
9126940 On ch=3 n=4 v=100
9126940 Off ch=3 n=10 v=0
9127384 On ch=3 n=3 v=100
9127386 Off ch=3 n=4 v=0
9127491 Off ch=3 n=3 v=0
9127884 On ch=3 n=17 v=100
9128329 Off ch=3 n=17 v=0
9129015 On ch=3 n=2 v=100
9129063 On ch=3 n=47 v=100
9129093 On ch=3 n=48 v=100
9129130 On ch=3 n=46 v=100
9129132 On ch=3 n=29 v=100
9129138 Off ch=3 n=2 v=0
9129143 On ch=3 n=9 v=100
9129227 Off ch=3 n=29 v=0
9129234 Off ch=3 n=48 v=0
9129234 Off ch=3 n=47 v=0
9129245 Off ch=3 n=9 v=0
9129250 Off ch=3 n=46 v=0
9130420 On ch=3 n=17 v=100
9130446 On ch=3 n=16 v=100
9130531 Off ch=3 n=16 v=0
9130533 Off ch=3 n=17 v=0
9130534 On ch=3 n=17 v=100
9130758 On ch=3 n=29 v=100
9130758 Off ch=3 n=17 v=0
9130869 Off ch=3 n=29 v=0
9131005 On ch=3 n=22 v=100
9131087 On ch=3 n=59 v=100
9131099 Off ch=3 n=22 v=0
9131230 On ch=3 n=43 v=100
9131236 On ch=3 n=11 v=100
9131424 On ch=3 n=13 v=100
9131429 Off ch=3 n=11 v=0
9131437 Off ch=3 n=59 v=0
9131517 Off ch=3 n=43 v=0
9131870 Off ch=3 n=13 v=0
9131875 On ch=3 n=20 v=100
9132026 Off ch=3 n=20 v=0
9133343 On ch=3 n=31 v=100
9133358 On ch=3 n=23 v=100
9133367 On ch=3 n=47 v=100
9133461 Off ch=3 n=31 v=0
9133462 Off ch=3 n=23 v=0
9133495 On ch=3 n=14 v=100
9133503 Off ch=3 n=47 v=0
9133507 On ch=3 n=16 v=100
9133675 On ch=3 n=12 v=100
9133681 Off ch=3 n=14 v=0
9133738 Off ch=3 n=16 v=0
9133869 On ch=3 n=9 v=100
9133954 Off ch=3 n=12 v=0
9134311 Off ch=3 n=9 v=0
9134960 On ch=3 n=19 v=100
9135051 Off ch=3 n=19 v=0
9135212 On ch=3 n=7 v=100
9135586 On ch=3 n=5 v=100
9135586 Off ch=3 n=7 v=0
9135701 Off ch=3 n=5 v=0
9137810 On ch=3 n=9 v=100
9137878 On ch=3 n=24 v=100
9137890 Off ch=3 n=9 v=0
9137896 On ch=3 n=10 v=100
9138031 Off ch=3 n=24 v=0
9138536 Off ch=3 n=10 v=0
9138592 On ch=3 n=20 v=100
9138682 Off ch=3 n=20 v=0
9138713 On ch=3 n=13 v=100
9139068 On ch=3 n=32 v=100
9139176 On ch=3 n=23 v=100
9139201 On ch=3 n=15 v=100
9139250 Off ch=3 n=13 v=0
9139307 Off ch=3 n=32 v=0
9139459 Off ch=3 n=15 v=0
9139516 Off ch=3 n=23 v=0
9139612 On ch=3 n=15 v=100
9139689 Off ch=3 n=15 v=0
9141719 On ch=3 n=9 v=100
9141794 Off ch=3 n=9 v=0
9142168 On ch=3 n=38 v=100
9142168 On ch=3 n=38 v=100
9142417 On ch=3 n=38 v=100
9142417 On ch=3 n=38 v=100
9142550 Off ch=3 n=38 v=0
9142550 Off ch=3 n=38 v=0
9142795 Off ch=3 n=38 v=0
9142795 Off ch=3 n=38 v=0
9142916 On ch=3 n=15 v=100
9142934 On ch=3 n=4 v=100
9143001 Off ch=3 n=15 v=0
9143001 Off ch=3 n=4 v=0
9143003 On ch=3 n=7 v=100
9143684 Off ch=3 n=7 v=0
9146207 On ch=3 n=6 v=100
9146329 Off ch=3 n=6 v=0
9146331 On ch=3 n=11 v=100
9146726 On ch=3 n=29 v=100
9146745 Off ch=3 n=11 v=0
9146788 Off ch=3 n=29 v=0
9146823 On ch=3 n=29 v=100
9146962 On ch=3 n=37 v=100
9146962 Off ch=3 n=29 v=0
9147246 On ch=3 n=45 v=100
9147345 On ch=3 n=7 v=100
9147346 Off ch=3 n=37 v=0
9147895 Off ch=3 n=45 v=0
9147896 Off ch=3 n=7 v=0
9147900 On ch=3 n=10 v=100
9148425 On ch=3 n=26 v=100
9148425 On ch=3 n=26 v=100
9148455 On ch=3 n=15 v=100
9148814 Off ch=3 n=10 v=0
9148826 On ch=3 n=2 v=100
9148863 Off ch=3 n=15 v=0
9148975 Off ch=3 n=26 v=0
9148975 Off ch=3 n=26 v=0
9149819 Off ch=3 n=2 v=0
9150382 On ch=3 n=51 v=100
9150392 On ch=3 n=58 v=100
9150477 Off ch=3 n=58 v=0
9150489 Off ch=3 n=51 v=0
9150816 On ch=3 n=27 v=100
9150895 Off ch=3 n=27 v=0
9153123 On ch=3 n=44 v=100
9153491 Off ch=3 n=44 v=0
9165455 On ch=3 n=20 v=100
9167360 Off ch=3 n=20 v=0
9167392 On ch=3 n=20 v=100
9170190 Off ch=3 n=20 v=0
9170266 On ch=3 n=20 v=100
9174536 Off ch=3 n=20 v=0
9174589 On ch=3 n=20 v=100
9175321 Off ch=3 n=20 v=0
9175354 On ch=3 n=20 v=100
9175851 Off ch=3 n=20 v=0
9190321 On ch=3 n=62 v=100
9191951 Off ch=3 n=62 v=0
9192911 On ch=3 n=16 v=100
9193253 On ch=3 n=43 v=100
9193263 Off ch=3 n=16 v=0
9193377 Off ch=3 n=43 v=0
9193688 On ch=3 n=10 v=100
9193888 Off ch=3 n=10 v=0
9193994 On ch=3 n=40 v=100
9194323 Off ch=3 n=40 v=0
9194514 On ch=3 n=12 v=100
9194651 Off ch=3 n=12 v=0
9204543 On ch=3 n=5 v=100
9204755 On ch=3 n=41 v=100
9204803 Off ch=3 n=5 v=0
9204811 Off ch=3 n=41 v=0
9204924 On ch=3 n=47 v=100
9205067 Off ch=3 n=47 v=0
9206475 On ch=3 n=5 v=100
9206703 Off ch=3 n=5 v=0
9206710 On ch=3 n=13 v=100
9207720 Off ch=3 n=13 v=0
9207721 On ch=3 n=18 v=100
9207950 Off ch=3 n=18 v=0
9208878 On ch=3 n=8 v=100
9209169 On ch=3 n=18 v=100
9209180 Off ch=3 n=8 v=0
9209271 Off ch=3 n=18 v=0
9209316 On ch=3 n=29 v=100
9209453 Off ch=3 n=29 v=0
9209836 On ch=3 n=15 v=100
9209850 On ch=3 n=6 v=100
9209946 Off ch=3 n=15 v=0
9210103 Off ch=3 n=6 v=0
9210261 On ch=3 n=15 v=100
9210328 Off ch=3 n=15 v=0
9211325 On ch=3 n=55 v=100
9211344 On ch=3 n=39 v=100
9211385 On ch=3 n=28 v=100
9211478 Off ch=3 n=55 v=0
9211478 Off ch=3 n=39 v=0
9211478 Off ch=3 n=28 v=0
9211486 On ch=3 n=38 v=100
9211560 Off ch=3 n=38 v=0
9211582 On ch=3 n=18 v=100
9211733 Off ch=3 n=18 v=0
9211888 On ch=3 n=11 v=100
9211912 On ch=3 n=30 v=100
9212047 Off ch=3 n=11 v=0
9212111 On ch=3 n=3 v=100
9212235 Off ch=3 n=30 v=0
9212585 Off ch=3 n=3 v=0
9213010 On ch=3 n=5 v=100
9213473 Off ch=3 n=5 v=0
9213486 On ch=3 n=5 v=100
9213634 On ch=3 n=26 v=100
9213651 Off ch=3 n=5 v=0
9213668 On ch=3 n=15 v=100
9213778 Off ch=3 n=26 v=0
9213778 Off ch=3 n=15 v=0
9213781 On ch=3 n=8 v=100
9214062 On ch=3 n=20 v=100
9214062 Off ch=3 n=8 v=0
9214063 On ch=3 n=9 v=100
9214414 Off ch=3 n=9 v=0
9214581 On ch=3 n=12 v=100
9214611 Off ch=3 n=20 v=0
9214625 Off ch=3 n=12 v=0
9214641 On ch=3 n=57 v=100
9214773 Off ch=3 n=57 v=0
9215176 On ch=3 n=15 v=100
9215313 On ch=3 n=18 v=100
9215313 On ch=3 n=18 v=100
9215363 Off ch=3 n=15 v=0
9215365 On ch=3 n=11 v=100
9215783 Off ch=3 n=11 v=0
9215784 On ch=3 n=15 v=100
9215799 Off ch=3 n=18 v=0
9215799 Off ch=3 n=18 v=0
9215884 Off ch=3 n=15 v=0
9216000 On ch=3 n=21 v=100
9216113 Off ch=3 n=21 v=0
9216153 On ch=3 n=53 v=100
9216177 On ch=3 n=8 v=100
9216278 Off ch=3 n=53 v=0
9216880 Off ch=3 n=8 v=0
9216887 On ch=3 n=23 v=100
9216966 Off ch=3 n=23 v=0
9218098 On ch=3 n=9 v=100
9218098 On ch=3 n=29 v=100
9218178 Off ch=3 n=9 v=0
9218204 On ch=3 n=19 v=100
9218204 Off ch=3 n=29 v=0
9218266 On ch=3 n=19 v=100
9218270 On ch=3 n=11 v=100
9218380 On ch=3 n=53 v=100
9218491 On ch=3 n=34 v=100
9218644 Off ch=3 n=11 v=0
9218678 Off ch=3 n=19 v=0
9218778 Off ch=3 n=19 v=0
9219129 Off ch=3 n=53 v=0
9219237 Off ch=3 n=34 v=0
9219295 On ch=3 n=9 v=100
9220095 On ch=3 n=8 v=100
9220098 Off ch=3 n=9 v=0
9220311 On ch=3 n=15 v=100
9220348 Off ch=3 n=8 v=0
9220444 Off ch=3 n=15 v=0
9220487 On ch=3 n=31 v=100
9220542 On ch=3 n=35 v=100
9220630 On ch=3 n=16 v=100
9220630 Off ch=3 n=31 v=0
9220882 Off ch=3 n=35 v=0
9220892 On ch=3 n=8 v=100
9220896 Off ch=3 n=16 v=0
9221788 On ch=3 n=34 v=100
9221820 Off ch=3 n=8 v=0
9221864 Off ch=3 n=34 v=0
9223200 On ch=3 n=35 v=100
9223236 On ch=3 n=29 v=100
9223337 On ch=3 n=45 v=100
9223338 On ch=3 n=23 v=100
9223456 Off ch=3 n=23 v=0
9223459 Off ch=3 n=35 v=0
9223478 On ch=3 n=22 v=100
9223479 Off ch=3 n=29 v=0
9223535 Off ch=3 n=45 v=0
9223640 Off ch=3 n=22 v=0
9223646 On ch=3 n=29 v=100
9223702 On ch=3 n=25 v=100
9223768 On ch=3 n=22 v=100
9223772 Off ch=3 n=29 v=0
9223786 On ch=3 n=21 v=100
9223916 Off ch=3 n=22 v=0
9223920 Off ch=3 n=25 v=0
9223957 Off ch=3 n=21 v=0
9224103 On ch=3 n=12 v=100
9224164 Off ch=3 n=12 v=0
9224179 On ch=3 n=16 v=100
9224211 Off ch=3 n=16 v=0
9224235 On ch=3 n=8 v=100
9224532 Off ch=3 n=8 v=0
9224572 On ch=3 n=10 v=100
9224653 Off ch=3 n=10 v=0
9224655 On ch=3 n=5 v=100
9225092 Off ch=3 n=5 v=0
9225111 On ch=3 n=7 v=100
9225832 Off ch=3 n=7 v=0
9226286 On ch=3 n=7 v=100
9226497 On ch=3 n=9 v=100
9226507 On ch=3 n=19 v=100
9226508 On ch=3 n=14 v=100
9226509 On ch=3 n=18 v=100
9226513 Off ch=3 n=7 v=0
9226551 On ch=3 n=13 v=100
9226578 Off ch=3 n=9 v=0
9226588 Off ch=3 n=18 v=0
9226607 Off ch=3 n=14 v=0
9226670 Off ch=3 n=19 v=0
9226760 Off ch=3 n=13 v=0
9226762 On ch=3 n=8 v=100
9226889 On ch=3 n=38 v=100
9227155 Off ch=3 n=8 v=0
9227172 On ch=3 n=16 v=100
9227255 On ch=3 n=12 v=100
9227538 On ch=3 n=8 v=100
9227674 Off ch=3 n=12 v=0
9227675 Off ch=3 n=16 v=0
9227676 Off ch=3 n=38 v=0
9227698 Off ch=3 n=8 v=0
9228079 On ch=3 n=3 v=100
9229158 Off ch=3 n=3 v=0
9229400 On ch=3 n=14 v=100
9229781 On ch=3 n=22 v=100
9229791 Off ch=3 n=14 v=0
9229838 Off ch=3 n=22 v=0
9229979 On ch=3 n=27 v=100
9230071 Off ch=3 n=27 v=0
9230120 On ch=3 n=15 v=100
9230538 On ch=3 n=29 v=100
9230641 Off ch=3 n=15 v=0
9230830 On ch=3 n=13 v=100
9230833 On ch=3 n=22 v=100
9231165 Off ch=3 n=29 v=0
9231179 Off ch=3 n=13 v=0
9231269 Off ch=3 n=22 v=0
9231382 On ch=3 n=15 v=100
9231392 On ch=3 n=8 v=100
9231396 On ch=3 n=40 v=100
9231628 Off ch=3 n=8 v=0
9231652 Off ch=3 n=15 v=0
9231686 Off ch=3 n=40 v=0
9231854 On ch=3 n=6 v=100
9232128 Off ch=3 n=6 v=0
9232176 On ch=3 n=21 v=100
9232224 Off ch=3 n=21 v=0
9232661 On ch=3 n=32 v=100
9232690 On ch=3 n=17 v=100
9232690 On ch=3 n=39 v=100
9232690 On ch=3 n=39 v=100
9232823 Off ch=3 n=32 v=0
9232874 Off ch=3 n=17 v=0
9233013 On ch=3 n=38 v=100
9233014 On ch=3 n=50 v=100
9233014 On ch=3 n=50 v=100
9233119 Off ch=3 n=39 v=0
9233119 Off ch=3 n=39 v=0
9233185 On ch=3 n=17 v=100
9233225 Off ch=3 n=38 v=0
9233256 Off ch=3 n=50 v=0
9233256 Off ch=3 n=50 v=0
9233315 On ch=3 n=47 v=100
9233395 Off ch=3 n=17 v=0
9233414 Off ch=3 n=47 v=0
9233434 On ch=3 n=9 v=100
9233444 On ch=3 n=19 v=100
9233479 On ch=3 n=28 v=100
9233487 Off ch=3 n=9 v=0
9233502 Off ch=3 n=19 v=0
9233599 On ch=3 n=19 v=100
9233600 On ch=3 n=14 v=100
9233917 Off ch=3 n=28 v=0
9233918 Off ch=3 n=14 v=0
9233932 On ch=3 n=8 v=100
9233991 Off ch=3 n=19 v=0
9234115 On ch=3 n=10 v=100
9234202 Off ch=3 n=8 v=0
9234556 Off ch=3 n=10 v=0
9235180 On ch=3 n=23 v=100
9235258 Off ch=3 n=23 v=0
9235955 On ch=3 n=16 v=100
9236002 Off ch=3 n=16 v=0
9237549 On ch=3 n=20 v=100
9237625 Off ch=3 n=20 v=0
9237641 On ch=3 n=10 v=100
9238123 Off ch=3 n=10 v=0
9238178 On ch=3 n=10 v=100
9238328 Off ch=3 n=10 v=0
9238404 On ch=3 n=31 v=100
9238516 Off ch=3 n=31 v=0
9238615 On ch=3 n=22 v=100
9238722 Off ch=3 n=22 v=0
9238725 On ch=3 n=12 v=100
9239077 On ch=3 n=10 v=100
9239079 Off ch=3 n=12 v=0
9239646 Off ch=3 n=10 v=0
9240857 On ch=3 n=4 v=100
9241063 Off ch=3 n=4 v=0
9242151 On ch=3 n=3 v=100
9243808 Off ch=3 n=3 v=0
9244357 On ch=3 n=29 v=100
9244370 On ch=3 n=14 v=100
9244370 On ch=3 n=50 v=100
9244442 Off ch=3 n=29 v=0
9244487 Off ch=3 n=14 v=0
9244504 Off ch=3 n=50 v=0
9244971 On ch=3 n=2 v=100
9245905 Off ch=3 n=2 v=0
9246290 On ch=3 n=12 v=100
9247153 On ch=3 n=12 v=100
9247415 Off ch=3 n=12 v=0
9247419 On ch=3 n=14 v=100
9247533 Off ch=3 n=12 v=0
9247548 Off ch=3 n=14 v=0
9247655 On ch=3 n=40 v=100
9247768 Off ch=3 n=40 v=0
9247786 On ch=3 n=21 v=100
9247956 Off ch=3 n=21 v=0
9248575 On ch=3 n=18 v=100
9248681 On ch=3 n=7 v=100
9248697 Off ch=3 n=18 v=0
9249286 Off ch=3 n=7 v=0
9249316 On ch=3 n=7 v=100
9249680 Off ch=3 n=7 v=0
9250787 On ch=3 n=15 v=100
9250823 On ch=3 n=16 v=100
9250829 Off ch=3 n=15 v=0
9251077 Off ch=3 n=16 v=0
9251078 On ch=3 n=8 v=100
9251276 Off ch=3 n=8 v=0
9251873 On ch=3 n=9 v=100
9251914 Off ch=3 n=9 v=0
9251916 On ch=3 n=7 v=100
9251975 Off ch=3 n=7 v=0
9253207 On ch=3 n=18 v=100
9253248 Off ch=3 n=18 v=0
9254937 On ch=3 n=39 v=100
9254967 On ch=3 n=40 v=100
9254998 On ch=3 n=24 v=100
9255025 On ch=3 n=33 v=100
9255025 On ch=3 n=33 v=100
9255036 On ch=3 n=10 v=100
9255091 Off ch=3 n=39 v=0
9255216 Off ch=3 n=40 v=0
9255230 Off ch=3 n=10 v=0
9255232 Off ch=3 n=24 v=0
9255270 Off ch=3 n=33 v=0
9255270 Off ch=3 n=33 v=0
9255367 On ch=3 n=7 v=100
9255641 On ch=3 n=29 v=100
9255655 Off ch=3 n=7 v=0
9256218 Off ch=3 n=29 v=0
9257292 On ch=3 n=3 v=100
9257292 On ch=3 n=3 v=100
9257332 On ch=3 n=43 v=100
9257369 On ch=3 n=4 v=100
9257369 On ch=3 n=4 v=100
9257413 Off ch=3 n=3 v=0
9257413 Off ch=3 n=3 v=0
9257489 Off ch=3 n=43 v=0
9260486 Off ch=3 n=4 v=0
9260486 Off ch=3 n=4 v=0
9260558 On ch=3 n=4 v=100
9263906 Off ch=3 n=4 v=0
9263972 On ch=3 n=46 v=100
9264960 Off ch=3 n=46 v=0
9264970 On ch=3 n=65 v=100
9265104 Off ch=3 n=65 v=0
9265272 On ch=3 n=33 v=100
9265630 Off ch=3 n=33 v=0
9268955 On ch=3 n=3 v=100
9269019 Off ch=3 n=3 v=0
9269023 On ch=3 n=3 v=100
9269875 Off ch=3 n=3 v=0
9278371 On ch=3 n=13 v=100
9278372 On ch=3 n=29 v=100
9278392 On ch=3 n=10 v=100
9278401 Off ch=3 n=13 v=0
9278473 Off ch=3 n=29 v=0
9279019 On ch=3 n=57 v=100
9279028 Off ch=3 n=10 v=0
9279045 On ch=3 n=34 v=100
9279109 On ch=3 n=9 v=100
9279228 Off ch=3 n=57 v=0
9279248 Off ch=3 n=34 v=0
9279260 Off ch=3 n=9 v=0
9281863 On ch=3 n=6 v=100
9281960 Off ch=3 n=6 v=0
9281966 On ch=3 n=8 v=100
9282054 Off ch=3 n=8 v=0
9283837 On ch=3 n=8 v=100
9284169 Off ch=3 n=8 v=0
9284170 On ch=3 n=13 v=100
9284210 Off ch=3 n=13 v=0
9284815 On ch=3 n=7 v=100
9284962 Off ch=3 n=7 v=0
9285871 On ch=3 n=10 v=100
9285946 On ch=3 n=3 v=100
9286392 Off ch=3 n=10 v=0
9287089 Off ch=3 n=3 v=0
9289458 On ch=3 n=5 v=100
9292328 Off ch=3 n=5 v=0
9295095 On ch=3 n=5 v=100
9295344 On ch=3 n=7 v=100
9295359 Off ch=3 n=5 v=0
9295411 On ch=3 n=43 v=100
9295422 On ch=3 n=8 v=100
9295423 Off ch=3 n=7 v=0
9295503 Off ch=3 n=43 v=0
9296287 Off ch=3 n=8 v=0
9296288 On ch=3 n=10 v=100
9296491 Off ch=3 n=10 v=0
9296514 On ch=3 n=6 v=100
9298722 On ch=3 n=4 v=100
9298725 Off ch=3 n=6 v=0
9300295 On ch=3 n=4 v=100
9300322 Off ch=3 n=4 v=0
9302010 Off ch=3 n=4 v=0
9303211 On ch=3 n=1 v=100
9303444 Off ch=3 n=1 v=0
9304766 On ch=3 n=0 v=100
9304999 Off ch=3 n=0 v=0
9305128 On ch=3 n=2 v=100
9306219 On ch=3 n=7 v=100
9306241 Off ch=3 n=2 v=0
9306474 Off ch=3 n=7 v=0
9308509 On ch=3 n=9 v=100
9308711 Off ch=3 n=9 v=0
9308715 On ch=3 n=3 v=100
9308796 Off ch=3 n=3 v=0
9309213 On ch=3 n=3 v=100
9309304 On ch=3 n=3 v=100
9309305 Off ch=3 n=3 v=0
9309410 Off ch=3 n=3 v=0
9309418 On ch=3 n=1 v=100
9311778 Off ch=3 n=1 v=0
9312094 On ch=3 n=3 v=100
9314435 On ch=3 n=40 v=100
9314532 Off ch=3 n=3 v=0
9314566 Off ch=3 n=40 v=0
9317564 On ch=3 n=25 v=100
9317565 On ch=3 n=5 v=100
9317647 Off ch=3 n=5 v=0
9317725 Off ch=3 n=25 v=0
9318994 On ch=3 n=23 v=100
9319120 Off ch=3 n=23 v=0
9320772 On ch=3 n=16 v=100
9320985 Off ch=3 n=16 v=0
9322398 On ch=3 n=6 v=100
9323581 Off ch=3 n=6 v=0
9323582 On ch=3 n=5 v=100
9323857 On ch=3 n=5 v=100
9323857 Off ch=3 n=5 v=0
9325187 On ch=3 n=6 v=100
9325245 Off ch=3 n=5 v=0
9325398 On ch=3 n=6 v=100
9325404 Off ch=3 n=6 v=0
9327957 Off ch=3 n=6 v=0
9327959 On ch=3 n=4 v=100
9328442 Off ch=3 n=4 v=0
9328595 On ch=3 n=6 v=100
9331407 Off ch=3 n=6 v=0
9331438 On ch=3 n=5 v=100
9331506 Off ch=3 n=5 v=0
9331540 On ch=3 n=5 v=100
9332427 On ch=3 n=16 v=100
9332586 Off ch=3 n=5 v=0
9332606 Off ch=3 n=16 v=0
9333439 On ch=3 n=10 v=100
9333620 Off ch=3 n=10 v=0
9334194 On ch=3 n=6 v=100
9334636 Off ch=3 n=6 v=0
9334683 On ch=3 n=6 v=100
9334701 Off ch=3 n=6 v=0
9334728 On ch=3 n=6 v=100
9337143 Off ch=3 n=6 v=0
9337186 On ch=3 n=6 v=100
9339886 Off ch=3 n=6 v=0
9340104 On ch=3 n=30 v=100
9340165 On ch=3 n=18 v=100
9340404 On ch=3 n=21 v=100
9340411 Off ch=3 n=30 v=0
9340413 Off ch=3 n=18 v=0
9340502 Off ch=3 n=21 v=0
9340517 On ch=3 n=18 v=100
9340580 Off ch=3 n=18 v=0
9340637 On ch=3 n=9 v=100
9341139 On ch=3 n=23 v=100
9341285 Off ch=3 n=9 v=0
9341291 On ch=3 n=21 v=100
9341304 Off ch=3 n=23 v=0
9341375 Off ch=3 n=21 v=0
9342020 On ch=3 n=21 v=100
9342063 Off ch=3 n=21 v=0
9350155 On ch=3 n=60 v=100
9350198 On ch=3 n=26 v=100
9350279 On ch=3 n=20 v=100
9350313 Off ch=3 n=60 v=0
9350504 On ch=3 n=23 v=100
9350856 Off ch=3 n=26 v=0
9350856 Off ch=3 n=20 v=0
9350924 On ch=3 n=6 v=100
9351119 Off ch=3 n=23 v=0
9351751 Off ch=3 n=6 v=0
9351756 On ch=3 n=10 v=100
9352376 Off ch=3 n=10 v=0
9352385 On ch=3 n=14 v=100
9352534 Off ch=3 n=14 v=0
9352604 On ch=3 n=14 v=100
9352695 Off ch=3 n=14 v=0
9352735 On ch=3 n=14 v=100
9353015 On ch=3 n=14 v=100
9353026 Off ch=3 n=14 v=0
9353122 Off ch=3 n=14 v=0
9353173 On ch=3 n=22 v=100
9353295 Off ch=3 n=22 v=0
9354503 On ch=3 n=55 v=100
9354536 On ch=3 n=38 v=100
9354551 On ch=3 n=35 v=100
9354551 On ch=3 n=35 v=100
9354566 On ch=3 n=23 v=100
9354653 Off ch=3 n=55 v=0
9354653 Off ch=3 n=38 v=0
9354654 Off ch=3 n=23 v=0
9354724 Off ch=3 n=35 v=0
9354724 Off ch=3 n=35 v=0
9354888 On ch=3 n=36 v=100
9354995 Off ch=3 n=36 v=0
9355897 On ch=3 n=38 v=100
9356023 Off ch=3 n=38 v=0
9356928 On ch=3 n=41 v=100
9357051 Off ch=3 n=41 v=0
9357953 On ch=3 n=39 v=100
9358079 Off ch=3 n=39 v=0
9358983 On ch=3 n=38 v=100
9359109 Off ch=3 n=38 v=0
9360013 On ch=3 n=39 v=100
9360139 Off ch=3 n=39 v=0
9361043 On ch=3 n=38 v=100
9361169 Off ch=3 n=38 v=0
9362071 On ch=3 n=39 v=100
9362197 Off ch=3 n=39 v=0
9363101 On ch=3 n=41 v=100
9363224 Off ch=3 n=41 v=0
9364126 On ch=3 n=41 v=100
9364249 Off ch=3 n=41 v=0
9365151 On ch=3 n=39 v=100
9365286 Off ch=3 n=39 v=0
9366179 On ch=3 n=41 v=100
9366302 Off ch=3 n=41 v=0
9367204 On ch=3 n=42 v=100
9367327 Off ch=3 n=42 v=0
9368229 On ch=3 n=42 v=100
9368352 Off ch=3 n=42 v=0
9369254 On ch=3 n=37 v=100
9369389 Off ch=3 n=37 v=0
9370284 On ch=3 n=38 v=100
9370410 Off ch=3 n=38 v=0
9371221 On ch=3 n=44 v=100
9371385 Off ch=3 n=44 v=0
9372150 On ch=3 n=45 v=100
9372287 On ch=3 n=41 v=100
9372410 Off ch=3 n=41 v=0
9372412 Off ch=3 n=45 v=0
9373175 On ch=3 n=46 v=100
9373312 On ch=3 n=43 v=100
9373435 Off ch=3 n=43 v=0
9373437 Off ch=3 n=46 v=0
9374207 On ch=3 n=43 v=100
9374339 On ch=3 n=37 v=100
9374468 Off ch=3 n=43 v=0
9374474 Off ch=3 n=37 v=0
9375065 On ch=3 n=3 v=100
9376260 Off ch=3 n=3 v=0
9376405 On ch=3 n=45 v=100
9376568 On ch=3 n=38 v=100
9376694 Off ch=3 n=38 v=0
9376695 Off ch=3 n=45 v=0
9377458 On ch=3 n=45 v=100
9377596 On ch=3 n=41 v=100
9377719 Off ch=3 n=41 v=0
9377721 Off ch=3 n=45 v=0
9378487 On ch=3 n=42 v=100
9378617 On ch=3 n=35 v=100
9378691 Off ch=3 n=42 v=0
9378691 Off ch=3 n=35 v=0
9383493 On ch=3 n=5 v=100
9384109 Off ch=3 n=5 v=0
9385876 On ch=3 n=25 v=100
9385959 Off ch=3 n=25 v=0
9385997 On ch=3 n=34 v=100
9386097 On ch=3 n=24 v=100
9386103 On ch=3 n=30 v=100
9386130 On ch=3 n=14 v=100
9386161 On ch=3 n=26 v=100
9386287 Off ch=3 n=34 v=0
9386300 Off ch=3 n=24 v=0
9386300 Off ch=3 n=14 v=0
9386391 Off ch=3 n=30 v=0
9386402 On ch=3 n=35 v=100
9386402 On ch=3 n=29 v=100
9386451 Off ch=3 n=26 v=0
9386510 Off ch=3 n=29 v=0
9386525 Off ch=3 n=35 v=0
9387766 On ch=3 n=16 v=100
9387953 Off ch=3 n=16 v=0
9388023 On ch=3 n=13 v=100
9388370 Off ch=3 n=13 v=0
9388384 On ch=3 n=20 v=100
9388477 Off ch=3 n=20 v=0
9390969 On ch=3 n=27 v=100
9391122 Off ch=3 n=27 v=0
9393248 On ch=3 n=8 v=100
9393493 On ch=3 n=2 v=100
9393493 Off ch=3 n=8 v=0
9393741 Off ch=3 n=2 v=0
9393744 On ch=3 n=4 v=100
9394680 Off ch=3 n=4 v=0
9394683 On ch=3 n=9 v=100
9394982 On ch=3 n=20 v=100
9395017 On ch=3 n=12 v=100
9395031 Off ch=3 n=9 v=0
9395225 Off ch=3 n=20 v=0
9395482 On ch=3 n=15 v=100
9395484 Off ch=3 n=12 v=0
9395714 On ch=3 n=5 v=100
9395725 Off ch=3 n=15 v=0
9396114 On ch=3 n=4 v=100
9396114 Off ch=3 n=5 v=0
9396424 Off ch=3 n=4 v=0
9396434 On ch=3 n=22 v=100
9396474 Off ch=3 n=22 v=0
9396477 On ch=3 n=14 v=100
9396575 Off ch=3 n=14 v=0
9397423 On ch=3 n=14 v=100
9397423 On ch=3 n=14 v=100
9397519 On ch=3 n=3 v=100
9398071 Off ch=3 n=3 v=0
9398110 Off ch=3 n=14 v=0
9398110 Off ch=3 n=14 v=0
9398358 On ch=3 n=36 v=100
9398358 On ch=3 n=25 v=100
9398457 On ch=3 n=27 v=100
9398660 Off ch=3 n=25 v=0
9398782 Off ch=3 n=36 v=0
9398784 Off ch=3 n=27 v=0
9398948 On ch=3 n=41 v=100
9399488 Off ch=3 n=41 v=0
9404456 On ch=3 n=49 v=100
9404569 Off ch=3 n=49 v=0
9405241 On ch=3 n=28 v=100
9405405 Off ch=3 n=28 v=0
9407112 On ch=3 n=18 v=100
9407388 On ch=3 n=25 v=100
9407421 On ch=3 n=17 v=100
9407476 Off ch=3 n=18 v=0
9407621 On ch=3 n=13 v=100
9407642 Off ch=3 n=17 v=0
9407643 On ch=3 n=43 v=100
9407646 Off ch=3 n=25 v=0
9407772 Off ch=3 n=13 v=0
9407899 Off ch=3 n=43 v=0
9409711 On ch=3 n=22 v=100
9409836 On ch=3 n=16 v=100
9409836 Off ch=3 n=22 v=0
9409908 Off ch=3 n=16 v=0
9411701 On ch=3 n=17 v=100
9411701 On ch=3 n=17 v=100
9411712 On ch=3 n=4 v=100
9411900 Off ch=3 n=4 v=0
9411919 Off ch=3 n=17 v=0
9411919 Off ch=3 n=17 v=0
9412029 On ch=3 n=3 v=100
9413077 Off ch=3 n=3 v=0
9413270 On ch=3 n=21 v=100
9413425 Off ch=3 n=21 v=0
9413427 On ch=3 n=33 v=100
9413507 Off ch=3 n=33 v=0
9415994 On ch=3 n=8 v=100
9416360 Off ch=3 n=8 v=0
9416387 On ch=3 n=14 v=100
9416598 Off ch=3 n=14 v=0
9416624 On ch=3 n=24 v=100
9416661 Off ch=3 n=24 v=0
9417054 On ch=3 n=11 v=100
9417217 Off ch=3 n=11 v=0
9417842 On ch=3 n=8 v=100
9418153 Off ch=3 n=8 v=0
9418267 On ch=3 n=26 v=100
9418366 Off ch=3 n=26 v=0
9420541 On ch=3 n=38 v=100
9420583 Off ch=3 n=38 v=0
9420619 On ch=3 n=38 v=100
9420965 Off ch=3 n=38 v=0
9421071 On ch=3 n=38 v=100
9421112 Off ch=3 n=38 v=0
9422105 On ch=3 n=22 v=100
9422226 On ch=3 n=11 v=100
9422229 Off ch=3 n=22 v=0
9422582 On ch=3 n=6 v=100
9422615 Off ch=3 n=11 v=0
9424384 On ch=3 n=9 v=100
9424384 Off ch=3 n=6 v=0
9424678 On ch=3 n=4 v=100
9424678 Off ch=3 n=9 v=0
9425141 Off ch=3 n=4 v=0
9425210 On ch=3 n=33 v=100
9425268 On ch=3 n=10 v=100
9425354 Off ch=3 n=33 v=0
9425568 On ch=3 n=20 v=100
9425711 On ch=3 n=21 v=100
9425756 Off ch=3 n=10 v=0
9425855 On ch=3 n=38 v=100
9426084 On ch=3 n=12 v=100
9426090 Off ch=3 n=20 v=0
9426266 Off ch=3 n=21 v=0
9426371 On ch=3 n=49 v=100
9426541 Off ch=3 n=38 v=0
9426556 Off ch=3 n=12 v=0
9426584 Off ch=3 n=49 v=0
9434768 On ch=3 n=8 v=100
9435004 On ch=3 n=16 v=100
9435015 Off ch=3 n=8 v=0
9435109 Off ch=3 n=16 v=0
9436424 On ch=3 n=41 v=100
9436459 On ch=3 n=34 v=100
9436466 On ch=3 n=31 v=100
9436561 On ch=3 n=19 v=100
9436678 Off ch=3 n=19 v=0
9436684 On ch=3 n=30 v=100
9436690 Off ch=3 n=41 v=0
9436712 Off ch=3 n=34 v=0
9436766 Off ch=3 n=31 v=0
9436862 On ch=3 n=43 v=100
9436908 Off ch=3 n=30 v=0
9437026 Off ch=3 n=43 v=0
9437029 On ch=3 n=26 v=100
9437030 On ch=3 n=10 v=100
9437098 On ch=3 n=35 v=100
9437175 Off ch=3 n=10 v=0
9437237 Off ch=3 n=26 v=0
9437271 Off ch=3 n=35 v=0
9437492 On ch=3 n=12 v=100
9438218 On ch=3 n=12 v=100
9438221 Off ch=3 n=12 v=0
9438883 Off ch=3 n=12 v=0
9438911 On ch=3 n=13 v=100
9439021 On ch=3 n=15 v=100
9439072 Off ch=3 n=13 v=0
9439074 On ch=3 n=8 v=100
9439194 On ch=3 n=44 v=100
9439243 Off ch=3 n=15 v=0
9439245 Off ch=3 n=8 v=0
9439248 On ch=3 n=6 v=100
9439464 On ch=3 n=14 v=100
9439476 Off ch=3 n=44 v=0
9439478 Off ch=3 n=6 v=0
9439483 On ch=3 n=27 v=100
9439657 Off ch=3 n=14 v=0
9439694 On ch=3 n=23 v=100
9439711 Off ch=3 n=27 v=0
9439809 Off ch=3 n=23 v=0
9439870 On ch=3 n=28 v=100
9439971 Off ch=3 n=28 v=0
9440012 On ch=3 n=10 v=100
9440170 Off ch=3 n=10 v=0
9440252 On ch=3 n=27 v=100
9440274 On ch=3 n=38 v=100
9440311 Off ch=3 n=27 v=0
9440317 On ch=3 n=15 v=100
9440328 Off ch=3 n=38 v=0
9440401 Off ch=3 n=15 v=0
9440408 On ch=3 n=46 v=100
9440590 Off ch=3 n=46 v=0
9441445 On ch=3 n=28 v=100
9441540 Off ch=3 n=28 v=0
9441737 On ch=3 n=7 v=100
9441745 On ch=3 n=22 v=100
9442024 Off ch=3 n=7 v=0
9442131 Off ch=3 n=22 v=0
9442407 On ch=3 n=21 v=100
9442420 On ch=3 n=5 v=100
9442528 Off ch=3 n=5 v=0
9442531 Off ch=3 n=21 v=0
9442536 On ch=3 n=10 v=100
9443092 Off ch=3 n=10 v=0
9443094 On ch=3 n=6 v=100
9443167 Off ch=3 n=6 v=0
9443552 On ch=3 n=15 v=100
9444088 Off ch=3 n=15 v=0
9444089 On ch=3 n=6 v=100
9444874 On ch=3 n=20 v=100
9444886 Off ch=3 n=6 v=0
9444888 On ch=3 n=13 v=100
9444912 Off ch=3 n=20 v=0
9445179 Off ch=3 n=13 v=0
9445981 On ch=3 n=6 v=100
9446226 Off ch=3 n=6 v=0
9447184 On ch=3 n=2 v=100
9451536 Off ch=3 n=2 v=0
9451837 On ch=3 n=6 v=100
9452165 On ch=3 n=33 v=100
9452307 Off ch=3 n=6 v=0
9452347 Off ch=3 n=33 v=0
9452519 On ch=3 n=41 v=100
9452583 Off ch=3 n=41 v=0
9452771 On ch=3 n=4 v=100
9453860 Off ch=3 n=4 v=0
9453957 On ch=3 n=32 v=100
9453994 On ch=3 n=29 v=100
9453996 On ch=3 n=11 v=100
9454135 On ch=3 n=38 v=100
9454190 Off ch=3 n=11 v=0
9454200 Off ch=3 n=32 v=0
9454256 Off ch=3 n=29 v=0
9454289 Off ch=3 n=38 v=0
9455997 On ch=3 n=18 v=100
9456038 Off ch=3 n=18 v=0
9457275 On ch=3 n=14 v=100
9457353 Off ch=3 n=14 v=0
9457363 On ch=3 n=8 v=100
9457564 On ch=3 n=17 v=100
9457564 Off ch=3 n=8 v=0
9457812 On ch=3 n=17 v=100
9457819 Off ch=3 n=17 v=0
9457855 Off ch=3 n=17 v=0
9458531 On ch=3 n=8 v=100
9459512 On ch=3 n=17 v=100
9459529 Off ch=3 n=8 v=0
9459635 Off ch=3 n=17 v=0
9460257 On ch=3 n=20 v=100
9460417 Off ch=3 n=20 v=0
9460448 On ch=3 n=38 v=100
9460561 Off ch=3 n=38 v=0
9460631 On ch=3 n=13 v=100
9460801 On ch=3 n=15 v=100
9461059 Off ch=3 n=13 v=0
9461065 On ch=3 n=21 v=100
9461192 On ch=3 n=19 v=100
9461584 Off ch=3 n=15 v=0
9461842 Off ch=3 n=21 v=0
9461842 Off ch=3 n=19 v=0
9462705 On ch=3 n=15 v=100
9462733 On ch=3 n=32 v=100
9462822 Off ch=3 n=15 v=0
9462833 Off ch=3 n=32 v=0
9463386 On ch=3 n=1 v=100
9465229 Off ch=3 n=1 v=0
9466334 On ch=3 n=9 v=100
9466901 Off ch=3 n=9 v=0
9466903 On ch=3 n=11 v=100
9467250 Off ch=3 n=11 v=0
9467254 On ch=3 n=24 v=100
9467361 Off ch=3 n=24 v=0
9467502 On ch=3 n=26 v=100
9467587 Off ch=3 n=26 v=0
9467648 On ch=3 n=12 v=100
9467877 On ch=3 n=39 v=100
9468025 Off ch=3 n=12 v=0
9468035 On ch=3 n=13 v=100
9468093 Off ch=3 n=39 v=0
9468385 Off ch=3 n=13 v=0
9468401 On ch=3 n=21 v=100
9468477 Off ch=3 n=21 v=0
9523946 On ch=3 n=28 v=100
9524047 Off ch=3 n=28 v=0
9524536 On ch=3 n=38 v=100
9524536 On ch=3 n=46 v=100
9524629 On ch=3 n=51 v=100
9524709 Off ch=3 n=38 v=0
9524749 Off ch=3 n=46 v=0
9524822 Off ch=3 n=51 v=0
9525453 On ch=3 n=36 v=100
9525805 Off ch=3 n=36 v=0
9525874 On ch=3 n=36 v=100
9526027 Off ch=3 n=36 v=0
9526092 On ch=3 n=13 v=100
9526432 Off ch=3 n=13 v=0
9536084 On ch=3 n=44 v=100
9536183 Off ch=3 n=44 v=0
9536304 On ch=3 n=8 v=100
9536713 On ch=3 n=7 v=100
9536714 Off ch=3 n=8 v=0
9536753 Off ch=3 n=7 v=0
9536790 On ch=3 n=31 v=100
9536869 Off ch=3 n=31 v=0
9536910 On ch=3 n=28 v=100
9536961 On ch=3 n=3 v=100
9536975 Off ch=3 n=28 v=0
9537276 Off ch=3 n=3 v=0
9537283 On ch=3 n=13 v=100
9537300 On ch=3 n=27 v=100
9537333 On ch=3 n=45 v=100
9537353 Off ch=3 n=13 v=0
9537384 Off ch=3 n=27 v=0
9537515 Off ch=3 n=45 v=0
9537753 On ch=3 n=35 v=100
9537754 On ch=3 n=49 v=100
9537798 Off ch=3 n=35 v=0
9537799 On ch=3 n=12 v=100
9537805 Off ch=3 n=49 v=0
9537985 On ch=3 n=51 v=100
9538030 On ch=3 n=21 v=100
9538049 Off ch=3 n=12 v=0
9538055 On ch=3 n=9 v=100
9538087 Off ch=3 n=21 v=0
9538097 Off ch=3 n=51 v=0
9538305 On ch=3 n=8 v=100
9538336 Off ch=3 n=9 v=0
9538344 Off ch=3 n=8 v=0
9538357 On ch=3 n=12 v=100
9538434 Off ch=3 n=12 v=0
9538438 On ch=3 n=33 v=100
9538525 Off ch=3 n=33 v=0
9538527 On ch=3 n=32 v=100
9538848 Off ch=3 n=32 v=0
9539420 On ch=3 n=39 v=100
9539516 Off ch=3 n=39 v=0
9539767 On ch=3 n=19 v=100
9539767 On ch=3 n=19 v=100
9539909 On ch=3 n=4 v=100
9540101 Off ch=3 n=4 v=0
9540124 Off ch=3 n=19 v=0
9540124 Off ch=3 n=19 v=0
9541171 On ch=3 n=34 v=100
9541171 On ch=3 n=34 v=100
9541255 On ch=3 n=36 v=100
9541255 On ch=3 n=36 v=100
9541260 On ch=3 n=21 v=100
9541357 On ch=3 n=34 v=100
9541554 Off ch=3 n=34 v=0
9541554 Off ch=3 n=34 v=0
9541564 Off ch=3 n=21 v=0
9541605 Off ch=3 n=36 v=0
9541605 Off ch=3 n=36 v=0
9541620 Off ch=3 n=34 v=0
9541860 On ch=3 n=19 v=100
9542471 Off ch=3 n=19 v=0
9542502 On ch=3 n=19 v=100
9542762 Off ch=3 n=19 v=0
9543453 On ch=3 n=18 v=100
9543893 Off ch=3 n=18 v=0
9544008 On ch=3 n=25 v=100
9544078 Off ch=3 n=25 v=0
9544118 On ch=3 n=25 v=100
9544231 Off ch=3 n=25 v=0
9551063 On ch=3 n=22 v=100
9551142 Off ch=3 n=22 v=0
9551766 On ch=3 n=9 v=100
9552113 On ch=3 n=10 v=100
9552200 Off ch=3 n=9 v=0
9552324 On ch=3 n=18 v=100
9552383 Off ch=3 n=10 v=0
9552397 On ch=3 n=13 v=100
9552397 On ch=3 n=23 v=100
9552715 Off ch=3 n=13 v=0
9552716 Off ch=3 n=18 v=0
9552819 Off ch=3 n=23 v=0
9552829 On ch=3 n=4 v=100
9552829 On ch=3 n=7 v=100
9552878 Off ch=3 n=7 v=0
9552885 Off ch=3 n=4 v=0
9552900 On ch=3 n=49 v=100
9552919 On ch=3 n=18 v=100
9553013 On ch=3 n=53 v=100
9553013 On ch=3 n=53 v=100
9553034 Off ch=3 n=49 v=0
9553089 On ch=3 n=39 v=100
9553129 Off ch=3 n=18 v=0
9553195 On ch=3 n=39 v=100
9553195 On ch=3 n=39 v=100
9553304 Off ch=3 n=53 v=0
9553304 Off ch=3 n=39 v=0
9553304 Off ch=3 n=53 v=0
9553447 On ch=3 n=18 v=100
9553628 Off ch=3 n=39 v=0
9553628 Off ch=3 n=39 v=0
9553628 Off ch=3 n=18 v=0
9554095 On ch=3 n=21 v=100
9554143 Off ch=3 n=21 v=0
9554189 On ch=3 n=4 v=100
9554189 On ch=3 n=38 v=100
9554467 Off ch=3 n=4 v=0
9554504 Off ch=3 n=38 v=0
9554618 On ch=3 n=19 v=100
9554692 On ch=3 n=13 v=100
9554913 Off ch=3 n=19 v=0
9554954 Off ch=3 n=13 v=0
9555045 On ch=3 n=21 v=100
9555142 On ch=3 n=13 v=100
9555163 On ch=3 n=26 v=100
9555502 Off ch=3 n=21 v=0
9555504 Off ch=3 n=13 v=0
9555703 On ch=3 n=17 v=100
9555818 Off ch=3 n=26 v=0
9556254 Off ch=3 n=17 v=0
9556273 On ch=3 n=30 v=100
9556394 Off ch=3 n=30 v=0
9556555 On ch=3 n=17 v=100
9556950 Off ch=3 n=17 v=0
9557505 On ch=3 n=42 v=100
9557505 On ch=3 n=42 v=100
9557587 On ch=3 n=16 v=100
9557589 On ch=3 n=12 v=100
9557946 Off ch=3 n=12 v=0
9558047 Off ch=3 n=16 v=0
9558065 On ch=3 n=9 v=100
9558332 Off ch=3 n=42 v=0
9558332 Off ch=3 n=42 v=0
9558461 Off ch=3 n=9 v=0
9558463 On ch=3 n=15 v=100
9558627 On ch=3 n=11 v=100
9558637 On ch=3 n=22 v=100
9558680 Off ch=3 n=15 v=0
9558698 On ch=3 n=5 v=100
9558703 Off ch=3 n=11 v=0
9558704 Off ch=3 n=22 v=0
9558920 Off ch=3 n=5 v=0
9559360 On ch=3 n=6 v=100
9560072 Off ch=3 n=6 v=0
9560091 On ch=3 n=5 v=100
9560528 Off ch=3 n=5 v=0
9560530 On ch=3 n=9 v=100
9560611 Off ch=3 n=9 v=0
9560651 On ch=3 n=7 v=100
9560944 Off ch=3 n=7 v=0
9560968 On ch=3 n=13 v=100
9560999 Off ch=3 n=13 v=0
9561015 On ch=3 n=10 v=100
9561076 Off ch=3 n=10 v=0
9561262 On ch=3 n=24 v=100
9561264 On ch=3 n=17 v=100
9561412 Off ch=3 n=17 v=0
9561477 Off ch=3 n=24 v=0
9561539 On ch=3 n=22 v=100
9561626 On ch=3 n=59 v=100
9561692 On ch=3 n=30 v=100
9561712 On ch=3 n=28 v=100
9561713 Off ch=3 n=22 v=0
9561717 On ch=3 n=36 v=100
9561834 Off ch=3 n=59 v=0
9561855 Off ch=3 n=30 v=0
9561936 Off ch=3 n=28 v=0
9562012 Off ch=3 n=36 v=0
9563322 On ch=3 n=36 v=100
9563366 On ch=3 n=9 v=100
9563398 Off ch=3 n=36 v=0
9564285 On ch=3 n=21 v=100
9564289 Off ch=3 n=9 v=0
9564547 On ch=3 n=33 v=100
9564642 Off ch=3 n=21 v=0
9564694 Off ch=3 n=33 v=0
9564737 On ch=3 n=14 v=100
9564833 On ch=3 n=6 v=100
9564870 Off ch=3 n=14 v=0
9565088 On ch=3 n=8 v=100
9565088 Off ch=3 n=6 v=0
9565884 Off ch=3 n=8 v=0
9565929 On ch=3 n=23 v=100
9565929 On ch=3 n=23 v=100
9565954 On ch=3 n=20 v=100
9566099 Off ch=3 n=20 v=0
9566134 Off ch=3 n=23 v=0
9566134 Off ch=3 n=23 v=0
9566286 On ch=3 n=2 v=100
9567314 On ch=3 n=40 v=100
9567491 Off ch=3 n=2 v=0
9567531 On ch=3 n=29 v=100
9567692 On ch=3 n=14 v=100
9567741 On ch=3 n=12 v=100
9567764 On ch=3 n=20 v=100
9568077 Off ch=3 n=40 v=0
9568107 Off ch=3 n=29 v=0
9568110 Off ch=3 n=14 v=0
9568120 Off ch=3 n=12 v=0
9568212 On ch=3 n=11 v=100
9568368 Off ch=3 n=20 v=0
9568553 On ch=3 n=25 v=100
9568611 Off ch=3 n=11 v=0
9568620 Off ch=3 n=25 v=0
9568747 On ch=3 n=20 v=100
9568747 On ch=3 n=35 v=100
9568869 Off ch=3 n=20 v=0
9568925 Off ch=3 n=35 v=0
9569406 On ch=3 n=6 v=100
9570387 On ch=3 n=15 v=100
9570424 Off ch=3 n=6 v=0
9570427 On ch=3 n=5 v=100
9570679 Off ch=3 n=15 v=0
9570679 Off ch=3 n=5 v=0
9572088 On ch=3 n=23 v=100
9572106 On ch=3 n=9 v=100
9572241 Off ch=3 n=23 v=0
9572774 Off ch=3 n=9 v=0
9572832 On ch=3 n=23 v=100
9572925 Off ch=3 n=23 v=0
9573065 On ch=3 n=22 v=100
9573156 On ch=3 n=19 v=100
9573175 Off ch=3 n=22 v=0
9573565 On ch=3 n=15 v=100
9573612 Off ch=3 n=19 v=0
9573717 On ch=3 n=9 v=100
9573740 Off ch=3 n=15 v=0
9574773 Off ch=3 n=9 v=0
9575408 On ch=3 n=16 v=100
9575754 Off ch=3 n=16 v=0
9575764 On ch=3 n=25 v=100
9575766 On ch=3 n=38 v=100
9575783 On ch=3 n=34 v=100
9575903 Off ch=3 n=25 v=0
9575927 Off ch=3 n=34 v=0
9576062 Off ch=3 n=38 v=0
9578674 On ch=3 n=9 v=100
9579000 Off ch=3 n=9 v=0
9579020 On ch=3 n=10 v=100
9579078 On ch=3 n=7 v=100
9579078 Off ch=3 n=10 v=0
9579535 Off ch=3 n=7 v=0
9579538 On ch=3 n=7 v=100
9580544 Off ch=3 n=7 v=0
9582190 On ch=3 n=8 v=100
9582190 On ch=3 n=2 v=100
9582332 On ch=3 n=6 v=100
9582337 Off ch=3 n=2 v=0
9582357 Off ch=3 n=8 v=0
9583046 On ch=3 n=6 v=100
9583046 Off ch=3 n=6 v=0
9583167 Off ch=3 n=6 v=0
9583170 On ch=3 n=3 v=100
9585105 Off ch=3 n=3 v=0
9585469 On ch=3 n=27 v=100
9585723 Off ch=3 n=27 v=0
9585894 On ch=3 n=63 v=100
9586172 Off ch=3 n=63 v=0
9599303 On ch=3 n=4 v=100
9600218 Off ch=3 n=4 v=0
9600336 On ch=3 n=35 v=100
9600705 Off ch=3 n=35 v=0
9601528 On ch=3 n=5 v=100
9603364 On ch=3 n=5 v=100
9603389 Off ch=3 n=5 v=0
9603594 Off ch=3 n=5 v=0
9603628 On ch=3 n=15 v=100
9603732 Off ch=3 n=15 v=0
9604404 On ch=3 n=26 v=100
9604433 On ch=3 n=9 v=100
9604571 Off ch=3 n=26 v=0
9604741 Off ch=3 n=9 v=0
9611324 On ch=3 n=12 v=100
9611454 Off ch=3 n=12 v=0
9611775 On ch=3 n=11 v=100
9612029 Off ch=3 n=11 v=0
9612160 On ch=3 n=3 v=100
9612503 Off ch=3 n=3 v=0
9612510 On ch=3 n=8 v=100
9612732 On ch=3 n=43 v=100
9612914 On ch=3 n=30 v=100
9612941 On ch=3 n=19 v=100
9612961 Off ch=3 n=8 v=0
9612971 On ch=3 n=13 v=100
9613015 On ch=3 n=10 v=100
9613170 Off ch=3 n=19 v=0
9613173 Off ch=3 n=43 v=0
9613173 Off ch=3 n=30 v=0
9613173 Off ch=3 n=13 v=0
9613173 Off ch=3 n=10 v=0
9613175 On ch=3 n=6 v=100
9613424 On ch=3 n=11 v=100
9613434 Off ch=3 n=6 v=0
9613589 Off ch=3 n=11 v=0
9618042 On ch=3 n=15 v=100
9619709 Off ch=3 n=15 v=0
9620295 On ch=3 n=36 v=100
9620295 On ch=3 n=45 v=100
9620409 Off ch=3 n=36 v=0
9620575 Off ch=3 n=45 v=0
9621322 On ch=3 n=51 v=100
9621323 On ch=3 n=42 v=100
9621452 Off ch=3 n=42 v=0
9621554 Off ch=3 n=51 v=0
9622222 On ch=3 n=48 v=100
9622224 On ch=3 n=38 v=100
9622350 Off ch=3 n=38 v=0
9622480 Off ch=3 n=48 v=0
9623116 On ch=3 n=48 v=100
9623117 On ch=3 n=38 v=100
9623243 Off ch=3 n=38 v=0
9623371 Off ch=3 n=48 v=0
9624147 On ch=3 n=39 v=100
9624147 On ch=3 n=47 v=100
9624273 Off ch=3 n=39 v=0
9624402 Off ch=3 n=47 v=0
9625043 On ch=3 n=42 v=100
9625045 On ch=3 n=38 v=100
9625171 Off ch=3 n=38 v=0
9625251 Off ch=3 n=42 v=0
9625286 On ch=3 n=35 v=100
9625322 On ch=3 n=26 v=100
9625332 On ch=3 n=43 v=100
9625358 On ch=3 n=42 v=100
9625423 Off ch=3 n=35 v=0
9625423 Off ch=3 n=26 v=0
9625538 Off ch=3 n=43 v=0
9625581 Off ch=3 n=42 v=0
9626721 On ch=3 n=30 v=100
9626870 Off ch=3 n=30 v=0
9626907 On ch=3 n=14 v=100
9627003 On ch=3 n=6 v=100
9627012 Off ch=3 n=14 v=0
9627379 Off ch=3 n=6 v=0
9627531 On ch=3 n=9 v=100
9629091 Off ch=3 n=9 v=0
9629239 On ch=3 n=27 v=100
9629310 Off ch=3 n=27 v=0
9629601 On ch=3 n=4 v=100
9629762 On ch=3 n=55 v=100
9629937 Off ch=3 n=4 v=0
9629949 On ch=3 n=6 v=100
9630179 Off ch=3 n=55 v=0
9632158 Off ch=3 n=6 v=0
9633785 On ch=3 n=11 v=100
9634224 Off ch=3 n=11 v=0
9636882 On ch=3 n=28 v=100
9636961 Off ch=3 n=28 v=0
9650421 On ch=3 n=38 v=100
9650480 On ch=3 n=17 v=100
9650500 On ch=3 n=8 v=100
9650509 Off ch=3 n=38 v=0
9650510 Off ch=3 n=17 v=0
9651355 Off ch=3 n=8 v=0
9653943 On ch=3 n=5 v=100
9654234 Off ch=3 n=5 v=0
9657176 On ch=3 n=5 v=100
9657404 Off ch=3 n=5 v=0
9657934 On ch=3 n=45 v=100
9658038 On ch=3 n=8 v=100
9658111 Off ch=3 n=45 v=0
9658195 Off ch=3 n=8 v=0
9661565 On ch=3 n=6 v=100
9661829 On ch=3 n=5 v=100
9661836 On ch=3 n=43 v=100
9661848 Off ch=3 n=6 v=0
9661906 On ch=3 n=8 v=100
9661908 Off ch=3 n=5 v=0
9661996 Off ch=3 n=43 v=0
9662790 Off ch=3 n=8 v=0
9662792 On ch=3 n=6 v=100
9662995 Off ch=3 n=6 v=0
9663048 On ch=3 n=9 v=100
9664170 Off ch=3 n=9 v=0
9667416 On ch=3 n=16 v=100
9667589 Off ch=3 n=16 v=0
9667599 On ch=3 n=21 v=100
9667657 Off ch=3 n=21 v=0
9667665 On ch=3 n=36 v=100
9667666 On ch=3 n=18 v=100
9667767 Off ch=3 n=18 v=0
9667780 On ch=3 n=29 v=100
9667825 Off ch=3 n=36 v=0
9667840 On ch=3 n=17 v=100
9667854 Off ch=3 n=29 v=0
9668194 Off ch=3 n=17 v=0
9668204 On ch=3 n=9 v=100
9668462 Off ch=3 n=9 v=0
9668645 On ch=3 n=6 v=100
9668852 On ch=3 n=6 v=100
9668873 Off ch=3 n=6 v=0
9670687 Off ch=3 n=6 v=0
9678824 On ch=3 n=5 v=100
9679846 On ch=3 n=6 v=100
9679848 Off ch=3 n=5 v=0
9680064 Off ch=3 n=6 v=0
9681030 On ch=3 n=39 v=100
9681224 On ch=3 n=13 v=100
9681268 On ch=3 n=19 v=100
9681300 On ch=3 n=31 v=100
9681593 Off ch=3 n=39 v=0
9681593 Off ch=3 n=13 v=0
9681794 Off ch=3 n=19 v=0
9681880 Off ch=3 n=31 v=0
9681973 On ch=3 n=1 v=100
9683715 Off ch=3 n=1 v=0
9684271 On ch=3 n=15 v=100
9684542 Off ch=3 n=15 v=0
9685099 On ch=3 n=21 v=100
9685238 Off ch=3 n=21 v=0
9686048 On ch=3 n=45 v=100
9686232 Off ch=3 n=45 v=0
9686442 On ch=3 n=32 v=100
9686803 Off ch=3 n=32 v=0
9689301 On ch=3 n=30 v=100
9689448 Off ch=3 n=30 v=0
9689803 On ch=3 n=11 v=100
9689833 On ch=3 n=19 v=100
9689858 Off ch=3 n=11 v=0
9689871 On ch=3 n=10 v=100
9689871 On ch=3 n=15 v=100
9690002 On ch=3 n=7 v=100
9690021 Off ch=3 n=10 v=0
9690023 Off ch=3 n=19 v=0
9690054 Off ch=3 n=15 v=0
9690117 Off ch=3 n=7 v=0
9690119 On ch=3 n=2 v=100
9690363 Off ch=3 n=2 v=0
9690368 On ch=3 n=5 v=100
9691183 Off ch=3 n=5 v=0
9691234 On ch=3 n=5 v=100
9691940 Off ch=3 n=5 v=0
9691941 On ch=3 n=1 v=100
9692670 Off ch=3 n=1 v=0
9692817 On ch=3 n=3 v=100
9692900 Off ch=3 n=3 v=0
9692903 On ch=3 n=6 v=100
9693228 Off ch=3 n=6 v=0
9697073 On ch=3 n=10 v=100
9697392 Off ch=3 n=10 v=0
9697439 On ch=3 n=10 v=100
9698244 Off ch=3 n=10 v=0
9699031 On ch=3 n=13 v=100
9699206 Off ch=3 n=13 v=0
9699845 On ch=3 n=3 v=100
9700243 Off ch=3 n=3 v=0
9701771 On ch=3 n=5 v=100
9701928 On ch=3 n=5 v=100
9701930 Off ch=3 n=5 v=0
9702177 Off ch=3 n=5 v=0
9702205 On ch=3 n=49 v=100
9702430 Off ch=3 n=49 v=0
9702793 On ch=3 n=18 v=100
9702830 On ch=3 n=30 v=100
9702868 Off ch=3 n=18 v=0
9702937 Off ch=3 n=30 v=0
9704594 On ch=3 n=35 v=100
9704594 On ch=3 n=25 v=100
9704693 On ch=3 n=26 v=100
9704896 Off ch=3 n=25 v=0
9705018 Off ch=3 n=35 v=0
9705020 Off ch=3 n=26 v=0
9705039 On ch=3 n=46 v=100
9705039 On ch=3 n=46 v=100
9705087 On ch=3 n=20 v=100
9705129 On ch=3 n=37 v=100
9705244 Off ch=3 n=20 v=0
9705259 Off ch=3 n=46 v=0
9705259 Off ch=3 n=46 v=0
9705282 Off ch=3 n=37 v=0
9705515 On ch=3 n=50 v=100
9705515 On ch=3 n=50 v=100
9705588 On ch=3 n=23 v=100
9705805 Off ch=3 n=23 v=0
9705924 Off ch=3 n=50 v=0
9705924 Off ch=3 n=50 v=0
9706251 On ch=3 n=38 v=100
9706398 Off ch=3 n=38 v=0
9706913 On ch=3 n=36 v=100
9706962 On ch=3 n=10 v=100
9707264 Off ch=3 n=36 v=0
9707270 Off ch=3 n=10 v=0
9710647 On ch=3 n=47 v=100
9711007 Off ch=3 n=47 v=0
9718835 On ch=3 n=12 v=100
9719488 Off ch=3 n=12 v=0
9719498 On ch=3 n=25 v=100
9719613 On ch=3 n=15 v=100
9719630 Off ch=3 n=25 v=0
9719668 On ch=3 n=6 v=100
9719675 Off ch=3 n=15 v=0
9719897 On ch=3 n=6 v=100
9719897 Off ch=3 n=6 v=0
9722691 Off ch=3 n=6 v=0
9722720 On ch=3 n=6 v=100
9725127 Off ch=3 n=6 v=0
9725176 On ch=3 n=6 v=100
9725623 On ch=3 n=7 v=100
9725624 Off ch=3 n=6 v=0
9726000 Off ch=3 n=7 v=0
9726015 On ch=3 n=4 v=100
9726558 On ch=3 n=56 v=100
9726594 Off ch=3 n=4 v=0
9726703 On ch=3 n=51 v=100
9726731 Off ch=3 n=56 v=0
9726876 Off ch=3 n=51 v=0
9727922 On ch=3 n=5 v=100
9730823 On ch=3 n=2 v=100
9730827 Off ch=3 n=5 v=0
9731982 Off ch=3 n=2 v=0
9732403 On ch=3 n=3 v=100
9732484 Off ch=3 n=3 v=0
9732488 On ch=3 n=7 v=100
9732701 Off ch=3 n=7 v=0
9734724 On ch=3 n=6 v=100
9734958 On ch=3 n=3 v=100
9734979 Off ch=3 n=6 v=0
9735811 Off ch=3 n=3 v=0
9746910 On ch=3 n=6 v=100
9747741 On ch=3 n=9 v=100
9747747 Off ch=3 n=6 v=0
9748013 On ch=3 n=6 v=100
9748014 Off ch=3 n=9 v=0
9748718 On ch=3 n=10 v=100
9748718 Off ch=3 n=6 v=0
9749336 Off ch=3 n=10 v=0
9752357 On ch=3 n=42 v=100
9752479 Off ch=3 n=42 v=0
9753005 On ch=3 n=6 v=100
9753243 Off ch=3 n=6 v=0
9755408 On ch=3 n=6 v=100
9755715 On ch=3 n=31 v=100
9755854 Off ch=3 n=6 v=0
9755877 Off ch=3 n=31 v=0
9756023 On ch=3 n=5 v=100
9756023 On ch=3 n=7 v=100
9757373 Off ch=3 n=5 v=0
9757536 Off ch=3 n=7 v=0
9757616 On ch=3 n=2 v=100
9757687 On ch=3 n=42 v=100
9757755 Off ch=3 n=2 v=0
9757766 Off ch=3 n=42 v=0
9759325 On ch=3 n=2 v=100
9759325 On ch=3 n=11 v=100
9759483 Off ch=3 n=2 v=0
9759502 Off ch=3 n=11 v=0
9764029 On ch=3 n=8 v=100
9764053 On ch=3 n=21 v=100
9764185 Off ch=3 n=8 v=0
9764189 On ch=3 n=44 v=100
9764247 Off ch=3 n=21 v=0
9764268 Off ch=3 n=44 v=0
9764401 On ch=3 n=21 v=100
9764429 On ch=3 n=4 v=100
9764507 On ch=3 n=5 v=100
9764547 Off ch=3 n=4 v=0
9764578 Off ch=3 n=21 v=0
9764839 On ch=3 n=15 v=100
9764845 Off ch=3 n=5 v=0
9764945 Off ch=3 n=15 v=0
9765180 On ch=3 n=21 v=100
9765248 Off ch=3 n=21 v=0
9765336 On ch=3 n=11 v=100
9765534 Off ch=3 n=11 v=0
9765684 On ch=3 n=5 v=100
9765747 Off ch=3 n=5 v=0
9766191 On ch=3 n=20 v=100
9766235 Off ch=3 n=20 v=0
9766252 On ch=3 n=5 v=100
9766256 On ch=3 n=41 v=100
9766256 On ch=3 n=41 v=100
9766421 On ch=3 n=22 v=100
9766531 Off ch=3 n=5 v=0
9766546 Off ch=3 n=22 v=0
9766614 Off ch=3 n=41 v=0
9766614 Off ch=3 n=41 v=0
9766673 On ch=3 n=5 v=100
9766677 On ch=3 n=29 v=100
9766919 On ch=3 n=46 v=100
9766957 Off ch=3 n=5 v=0
9766997 Off ch=3 n=29 v=0
9767301 On ch=3 n=32 v=100
9767301 On ch=3 n=32 v=100
9767478 On ch=3 n=38 v=100
9767478 On ch=3 n=38 v=100
9767526 Off ch=3 n=46 v=0
9767610 On ch=3 n=27 v=100
9767809 Off ch=3 n=32 v=0
9767809 Off ch=3 n=32 v=0
9767902 Off ch=3 n=27 v=0
9768005 Off ch=3 n=38 v=0
9768005 Off ch=3 n=38 v=0
9768309 On ch=3 n=56 v=100
9768547 On ch=3 n=24 v=100
9768561 On ch=3 n=37 v=100
9768662 Off ch=3 n=56 v=0
9768955 Off ch=3 n=24 v=0
9769260 Off ch=3 n=37 v=0
9771833 On ch=3 n=11 v=100
9771997 Off ch=3 n=11 v=0
9772138 On ch=3 n=8 v=100
9772328 Off ch=3 n=8 v=0
9772367 On ch=3 n=6 v=100
9772700 Off ch=3 n=6 v=0
9775204 On ch=3 n=27 v=100
9775398 Off ch=3 n=27 v=0
9776166 On ch=3 n=37 v=100
9776208 On ch=3 n=9 v=100
9776379 Off ch=3 n=37 v=0
9776709 Off ch=3 n=9 v=0
9776729 On ch=3 n=26 v=100
9776804 Off ch=3 n=26 v=0
9778438 On ch=3 n=33 v=100
9778793 Off ch=3 n=33 v=0
9779029 On ch=3 n=3 v=100
9779323 Off ch=3 n=3 v=0
9779520 On ch=3 n=11 v=100
9779576 Off ch=3 n=11 v=0
9779579 On ch=3 n=8 v=100
9779976 Off ch=3 n=8 v=0
9779980 On ch=3 n=14 v=100
9780074 Off ch=3 n=14 v=0
9780098 On ch=3 n=7 v=100
9788040 Off ch=3 n=7 v=0
9788078 On ch=3 n=1 v=100
9789009 Off ch=3 n=1 v=0
9789011 On ch=3 n=17 v=100
9789626 Off ch=3 n=17 v=0
9790227 On ch=3 n=34 v=100
9790529 Off ch=3 n=34 v=0
9790927 On ch=3 n=15 v=100
9790931 On ch=3 n=3 v=100
9791076 Off ch=3 n=3 v=0
9791114 Off ch=3 n=15 v=0
9794627 On ch=3 n=6 v=100
9794766 Off ch=3 n=6 v=0
9794768 On ch=3 n=7 v=100
9795285 Off ch=3 n=7 v=0
9795296 On ch=3 n=5 v=100
9796298 Off ch=3 n=5 v=0
9796299 On ch=3 n=12 v=100
9796589 Off ch=3 n=12 v=0
9796590 On ch=3 n=11 v=100
9796635 Off ch=3 n=11 v=0
9796910 On ch=3 n=15 v=100
9797750 On ch=3 n=7 v=100
9797754 Off ch=3 n=15 v=0
9797843 Off ch=3 n=7 v=0
9797852 On ch=3 n=10 v=100
9797963 On ch=3 n=18 v=100
9798012 Off ch=3 n=10 v=0
9798057 On ch=3 n=13 v=100
9798141 Off ch=3 n=18 v=0
9798181 On ch=3 n=4 v=100
9798181 Off ch=3 n=13 v=0
9798938 Off ch=3 n=4 v=0
9798990 On ch=3 n=4 v=100
9799500 Off ch=3 n=4 v=0
9799501 On ch=3 n=18 v=100
9799601 Off ch=3 n=18 v=0
9799616 On ch=3 n=19 v=100
9799718 Off ch=3 n=19 v=0
9799796 On ch=3 n=77 v=100
9799827 On ch=3 n=10 v=100
9799890 Off ch=3 n=77 v=0
9800443 Off ch=3 n=10 v=0
9801023 On ch=3 n=22 v=100
9801080 On ch=3 n=6 v=100
9801322 On ch=3 n=17 v=100
9801430 Off ch=3 n=6 v=0
9801437 Off ch=3 n=22 v=0
9801456 Off ch=3 n=17 v=0
9802326 On ch=3 n=40 v=100
9802342 On ch=3 n=33 v=100
9802368 On ch=3 n=40 v=100
9802370 On ch=3 n=45 v=100
9802461 Off ch=3 n=40 v=0
9802560 Off ch=3 n=33 v=0
9802576 On ch=3 n=19 v=100
9802625 Off ch=3 n=40 v=0
9802675 Off ch=3 n=45 v=0
9802782 Off ch=3 n=19 v=0
9802811 On ch=3 n=16 v=100
9802866 Off ch=3 n=16 v=0
9802873 On ch=3 n=18 v=100
9802962 On ch=3 n=12 v=100
9803296 Off ch=3 n=18 v=0
9803303 On ch=3 n=28 v=100
9803316 Off ch=3 n=12 v=0
9803321 On ch=3 n=20 v=100
9803404 On ch=3 n=15 v=100
9803417 Off ch=3 n=28 v=0
9803468 Off ch=3 n=20 v=0
9803582 Off ch=3 n=15 v=0
9803585 On ch=3 n=12 v=100
9804029 Off ch=3 n=12 v=0
9804047 On ch=3 n=9 v=100
9804239 Off ch=3 n=9 v=0
9804407 On ch=3 n=3 v=100
9805590 On ch=3 n=19 v=100
9805590 Off ch=3 n=3 v=0
9805798 On ch=3 n=42 v=100
9805806 Off ch=3 n=19 v=0
9806139 Off ch=3 n=42 v=0
9808347 On ch=3 n=8 v=100
9809459 Off ch=3 n=8 v=0
9809505 On ch=3 n=5 v=100
9810515 Off ch=3 n=5 v=0
9810550 On ch=3 n=5 v=100
9810620 Off ch=3 n=5 v=0
9810624 On ch=3 n=10 v=100
9811363 Off ch=3 n=10 v=0
9811384 On ch=3 n=10 v=100
9811504 Off ch=3 n=10 v=0
9811507 On ch=3 n=9 v=100
9812738 Off ch=3 n=9 v=0
9812741 On ch=3 n=7 v=100
9812932 Off ch=3 n=7 v=0
9813551 On ch=3 n=9 v=100
9814207 Off ch=3 n=9 v=0
9814746 On ch=3 n=36 v=100
9814754 On ch=3 n=31 v=100
9814815 Off ch=3 n=36 v=0
9814823 Off ch=3 n=31 v=0
9818840 On ch=3 n=24 v=100
9819377 Off ch=3 n=24 v=0
9819706 On ch=3 n=19 v=100
9819975 On ch=3 n=4 v=100
9819975 Off ch=3 n=19 v=0
9819979 On ch=3 n=20 v=100
9820056 Off ch=3 n=4 v=0
9820068 Off ch=3 n=20 v=0
9820363 On ch=3 n=4 v=100
9820590 Off ch=3 n=4 v=0
9820692 On ch=3 n=4 v=100
9820831 On ch=3 n=4 v=100
9820839 Off ch=3 n=4 v=0
9821375 Off ch=3 n=4 v=0
9821579 On ch=3 n=13 v=100
9822030 Off ch=3 n=13 v=0
9822747 On ch=3 n=6 v=100
9823291 On ch=3 n=56 v=100
9823436 Off ch=3 n=6 v=0
9823438 Off ch=3 n=56 v=0
9823517 On ch=3 n=56 v=100
9823517 On ch=3 n=8 v=100
9823579 Off ch=3 n=56 v=0
9823607 Off ch=3 n=8 v=0
9823666 On ch=3 n=11 v=100
9824222 Off ch=3 n=11 v=0
9824240 On ch=3 n=20 v=100
9824322 On ch=3 n=15 v=100
9824586 Off ch=3 n=20 v=0
9824676 On ch=3 n=40 v=100
9824696 On ch=3 n=17 v=100
9824778 Off ch=3 n=15 v=0
9824801 Off ch=3 n=40 v=0
9825006 Off ch=3 n=17 v=0
9825029 On ch=3 n=37 v=100
9825031 On ch=3 n=27 v=100
9825050 On ch=3 n=44 v=100
9825119 On ch=3 n=21 v=100
9825333 Off ch=3 n=27 v=0
9825369 Off ch=3 n=44 v=0
9825416 Off ch=3 n=21 v=0
9825418 Off ch=3 n=37 v=0
9827075 On ch=3 n=13 v=100
9827306 Off ch=3 n=13 v=0
9827454 On ch=3 n=27 v=100
9827483 On ch=3 n=14 v=100
9827604 Off ch=3 n=14 v=0
9827605 Off ch=3 n=27 v=0
9830245 On ch=3 n=2 v=100
9831478 Off ch=3 n=2 v=0
9832875 On ch=3 n=43 v=100
9833181 Off ch=3 n=43 v=0
9833827 On ch=3 n=19 v=100
9833923 Off ch=3 n=19 v=0
9835117 On ch=3 n=15 v=100
9835331 On ch=3 n=6 v=100
9835342 Off ch=3 n=15 v=0
9835480 Off ch=3 n=6 v=0
9835688 On ch=3 n=27 v=100
9835724 On ch=3 n=18 v=100
9835792 Off ch=3 n=27 v=0
9836113 Off ch=3 n=18 v=0
9837713 On ch=3 n=21 v=100
9837746 On ch=3 n=11 v=100
9838024 Off ch=3 n=21 v=0
9838037 Off ch=3 n=11 v=0
9838341 On ch=3 n=15 v=100
9839198 Off ch=3 n=15 v=0
9839498 On ch=3 n=10 v=100
9839787 Off ch=3 n=10 v=0
9840948 On ch=3 n=25 v=100
9841028 Off ch=3 n=25 v=0
9841035 On ch=3 n=8 v=100
9841626 On ch=3 n=51 v=100
9841727 Off ch=3 n=8 v=0
9841753 Off ch=3 n=51 v=0
9841786 On ch=3 n=21 v=100
9841873 Off ch=3 n=21 v=0
9842035 On ch=3 n=2 v=100
9844417 On ch=3 n=41 v=100
9844514 Off ch=3 n=2 v=0
9844519 On ch=3 n=17 v=100
9844547 Off ch=3 n=41 v=0
9844586 On ch=3 n=19 v=100
9844586 On ch=3 n=19 v=100
9844597 Off ch=3 n=17 v=0
9844600 On ch=3 n=11 v=100
9845009 Off ch=3 n=11 v=0
9845011 On ch=3 n=16 v=100
9845061 Off ch=3 n=19 v=0
9845061 Off ch=3 n=19 v=0
9845181 Off ch=3 n=16 v=0
9845604 On ch=3 n=52 v=100
9845731 Off ch=3 n=52 v=0
9845747 On ch=3 n=14 v=100
9845761 On ch=3 n=21 v=100
9845791 Off ch=3 n=14 v=0
9845958 On ch=3 n=9 v=100
9846264 On ch=3 n=33 v=100
9846309 Off ch=3 n=9 v=0
9846310 On ch=3 n=6 v=100
9846310 Off ch=3 n=21 v=0
9846501 On ch=3 n=35 v=100
9846547 On ch=3 n=25 v=100
9846568 On ch=3 n=26 v=100
9846592 Off ch=3 n=6 v=0
9846594 On ch=3 n=28 v=100
9846597 Off ch=3 n=33 v=0
9846704 Off ch=3 n=25 v=0
9846707 Off ch=3 n=35 v=0
9846721 On ch=3 n=4 v=100
9846740 Off ch=3 n=28 v=0
9846765 Off ch=3 n=26 v=0
9846886 Off ch=3 n=4 v=0
9846896 On ch=3 n=4 v=100
9847363 Off ch=3 n=4 v=0
9847786 On ch=3 n=2 v=100
9847786 On ch=3 n=2 v=100
9848134 On ch=3 n=31 v=100
9848134 On ch=3 n=31 v=100
9848257 Off ch=3 n=2 v=0
9848257 Off ch=3 n=2 v=0
9848301 On ch=3 n=39 v=100
9848301 On ch=3 n=39 v=100
9848447 Off ch=3 n=31 v=0
9848447 Off ch=3 n=31 v=0
9848591 Off ch=3 n=39 v=0
9848591 Off ch=3 n=39 v=0
9848625 On ch=3 n=20 v=100
9848777 Off ch=3 n=20 v=0
9848869 On ch=3 n=33 v=100
9848870 On ch=3 n=24 v=100
9848960 Off ch=3 n=24 v=0
9848976 Off ch=3 n=33 v=0
9850018 On ch=3 n=18 v=100
9850087 Off ch=3 n=18 v=0
9850247 On ch=3 n=6 v=100
9850553 Off ch=3 n=6 v=0
9850967 On ch=3 n=27 v=100
9851107 Off ch=3 n=27 v=0
9851149 On ch=3 n=17 v=100
9851239 On ch=3 n=10 v=100
9851249 Off ch=3 n=17 v=0
9851541 Off ch=3 n=10 v=0
9852091 On ch=3 n=1 v=100
9852186 Off ch=3 n=1 v=0
9852880 On ch=3 n=2 v=100
9854679 Off ch=3 n=2 v=0
9854744 On ch=3 n=9 v=100
9855093 On ch=3 n=22 v=100
9855199 On ch=3 n=24 v=100
9855217 Off ch=3 n=9 v=0
9855598 On ch=3 n=6 v=100
9855616 Off ch=3 n=22 v=0
9855780 Off ch=3 n=24 v=0
9856196 Off ch=3 n=6 v=0
9856962 On ch=3 n=2 v=100
9856988 On ch=3 n=21 v=100
9856988 On ch=3 n=21 v=100
9857009 Off ch=3 n=2 v=0
9857011 On ch=3 n=6 v=100
9857284 On ch=3 n=12 v=100
9857285 Off ch=3 n=6 v=0
9857325 Off ch=3 n=21 v=0
9857325 Off ch=3 n=21 v=0
9857649 On ch=3 n=10 v=100
9857649 Off ch=3 n=12 v=0
9857791 Off ch=3 n=10 v=0
9857793 On ch=3 n=7 v=100
9858371 Off ch=3 n=7 v=0
9858374 On ch=3 n=6 v=100
9858527 On ch=3 n=8 v=100
9858527 On ch=3 n=7 v=100
9858530 Off ch=3 n=6 v=0
9858730 On ch=3 n=9 v=100
9858735 Off ch=3 n=7 v=0
9858871 Off ch=3 n=8 v=0
9859432 On ch=3 n=16 v=100
9859468 Off ch=3 n=9 v=0
9859469 On ch=3 n=3 v=100
9859501 Off ch=3 n=16 v=0
9859714 Off ch=3 n=3 v=0
9859716 On ch=3 n=8 v=100
9860337 Off ch=3 n=8 v=0
9860386 On ch=3 n=8 v=100
9860436 On ch=3 n=1 v=100
9860436 Off ch=3 n=8 v=0
9861091 Off ch=3 n=1 v=0
9861093 On ch=3 n=2 v=100
9861230 Off ch=3 n=2 v=0
9861246 On ch=3 n=8 v=100
9861338 Off ch=3 n=8 v=0
9873100 On ch=3 n=3 v=100
9874196 Off ch=3 n=3 v=0
9874743 On ch=3 n=33 v=100
9874765 On ch=3 n=8 v=100
9874847 Off ch=3 n=33 v=0
9875217 On ch=3 n=38 v=100
9875268 Off ch=3 n=8 v=0
9875275 Off ch=3 n=38 v=0
9875355 On ch=3 n=36 v=100
9875411 On ch=3 n=15 v=100
9875443 Off ch=3 n=36 v=0
9875453 Off ch=3 n=15 v=0
9875915 On ch=3 n=10 v=100
9876137 Off ch=3 n=10 v=0
9876331 On ch=3 n=10 v=100
9876347 On ch=3 n=33 v=100
9876372 Off ch=3 n=10 v=0
9876377 On ch=3 n=7 v=100
9876389 Off ch=3 n=33 v=0
9876472 Off ch=3 n=7 v=0
9876486 On ch=3 n=9 v=100
9876755 Off ch=3 n=9 v=0
9876759 On ch=3 n=12 v=100
9877003 On ch=3 n=33 v=100
9877092 On ch=3 n=26 v=100
9877231 Off ch=3 n=12 v=0
9877349 Off ch=3 n=33 v=0
9877578 On ch=3 n=17 v=100
9877651 Off ch=3 n=26 v=0
9877960 On ch=3 n=12 v=100
9877961 Off ch=3 n=17 v=0
9878037 Off ch=3 n=12 v=0
9879157 On ch=3 n=22 v=100
9879257 Off ch=3 n=22 v=0
9879936 On ch=3 n=1 v=100
9879995 Off ch=3 n=1 v=0
9880000 On ch=3 n=5 v=100
9880998 On ch=3 n=42 v=100
9881222 On ch=3 n=5 v=100
9881227 Off ch=3 n=5 v=0
9881309 Off ch=3 n=42 v=0
9881506 Off ch=3 n=5 v=0
9882181 On ch=3 n=34 v=100
9882289 Off ch=3 n=34 v=0
9883103 On ch=3 n=12 v=100
9883233 Off ch=3 n=12 v=0
9883294 On ch=3 n=17 v=100
9883320 On ch=3 n=12 v=100
9883347 Off ch=3 n=17 v=0
9883384 Off ch=3 n=12 v=0
9883445 On ch=3 n=12 v=100
9883445 On ch=3 n=19 v=100
9883457 On ch=3 n=16 v=100
9883463 Off ch=3 n=12 v=0
9883481 Off ch=3 n=19 v=0
9883766 Off ch=3 n=16 v=0
9883773 On ch=3 n=12 v=100
9884171 Off ch=3 n=12 v=0
9884822 On ch=3 n=35 v=100
9884822 On ch=3 n=25 v=100
9884921 On ch=3 n=26 v=100
9885126 Off ch=3 n=25 v=0
9885251 Off ch=3 n=35 v=0
9885253 Off ch=3 n=26 v=0
9885325 On ch=3 n=38 v=100
9885530 Off ch=3 n=38 v=0
9885590 On ch=3 n=52 v=100
9885590 On ch=3 n=38 v=100
9885619 Off ch=3 n=38 v=0
9885874 Off ch=3 n=52 v=0
9886506 On ch=3 n=40 v=100
9886572 On ch=3 n=29 v=100
9886578 On ch=3 n=47 v=100
9886583 On ch=3 n=3 v=100
9886774 Off ch=3 n=3 v=0
9886783 Off ch=3 n=40 v=0
9886810 Off ch=3 n=29 v=0
9886888 Off ch=3 n=47 v=0
9887298 On ch=3 n=11 v=100
9887439 Off ch=3 n=11 v=0
9888372 On ch=3 n=8 v=100
9888443 Off ch=3 n=8 v=0
9888463 On ch=3 n=10 v=100
9888562 Off ch=3 n=10 v=0
9890011 On ch=3 n=7 v=100
9890581 Off ch=3 n=7 v=0
9891457 On ch=3 n=9 v=100
9891620 Off ch=3 n=9 v=0
9893043 On ch=3 n=13 v=100
9893187 Off ch=3 n=13 v=0
9902115 On ch=3 n=11 v=100
9902686 Off ch=3 n=11 v=0
9903226 On ch=3 n=5 v=100
9903423 Off ch=3 n=5 v=0
9903525 On ch=3 n=3 v=100
9904111 On ch=3 n=21 v=100
9904170 Off ch=3 n=3 v=0
9904170 Off ch=3 n=21 v=0
9904221 On ch=3 n=16 v=100
9904221 On ch=3 n=21 v=100
9904221 On ch=3 n=37 v=100
9904231 Off ch=3 n=16 v=0
9904253 Off ch=3 n=21 v=0
9904296 On ch=3 n=5 v=100
9904471 Off ch=3 n=37 v=0
9904596 On ch=3 n=3 v=100
9904663 Off ch=3 n=5 v=0
9905180 Off ch=3 n=3 v=0
9910425 On ch=3 n=9 v=100
9910674 Off ch=3 n=9 v=0
9910675 On ch=3 n=6 v=100
9912531 Off ch=3 n=6 v=0
9913729 On ch=3 n=30 v=100
9913859 Off ch=3 n=30 v=0
9924349 On ch=3 n=28 v=100
9924389 On ch=3 n=9 v=100
9924510 Off ch=3 n=28 v=0
9924986 Off ch=3 n=9 v=0
9925166 On ch=3 n=10 v=100
9925600 On ch=3 n=26 v=100
9925602 Off ch=3 n=10 v=0
9927660 Off ch=3 n=26 v=0
9928851 On ch=3 n=17 v=100
9929489 Off ch=3 n=17 v=0
9929613 On ch=3 n=17 v=100
9929993 Off ch=3 n=17 v=0
9931392 On ch=3 n=48 v=100
9931453 On ch=3 n=54 v=100
9931465 Off ch=3 n=48 v=0
9931634 Off ch=3 n=54 v=0
9934925 On ch=3 n=55 v=100
9935033 Off ch=3 n=55 v=0
9960782 On ch=3 n=5 v=100
9963656 Off ch=3 n=5 v=0
9963657 On ch=3 n=1 v=100
9963718 Off ch=3 n=1 v=0
9963824 On ch=3 n=4 v=100
9963911 Off ch=3 n=4 v=0
9964214 On ch=3 n=14 v=100
9964280 Off ch=3 n=14 v=0
9964281 On ch=3 n=8 v=100
9964466 On ch=3 n=6 v=100
9964478 Off ch=3 n=8 v=0
9965359 Off ch=3 n=6 v=0
9965802 On ch=3 n=10 v=100
9966692 Off ch=3 n=10 v=0
9966709 On ch=3 n=2 v=100
9969417 On ch=3 n=31 v=100
9969418 Off ch=3 n=2 v=0
9969482 On ch=3 n=31 v=100
9969511 Off ch=3 n=31 v=0
9969638 Off ch=3 n=31 v=0
9980634 On ch=3 n=29 v=100
9980812 Off ch=3 n=29 v=0
9980890 On ch=3 n=29 v=100
9981143 Off ch=3 n=29 v=0
9981707 On ch=3 n=31 v=100
9982108 Off ch=3 n=31 v=0
9982114 On ch=3 n=5 v=100
9982344 On ch=3 n=34 v=100
9982344 Off ch=3 n=5 v=0
9982692 On ch=3 n=33 v=100
9982842 Off ch=3 n=34 v=0
9983109 Off ch=3 n=33 v=0
9983248 On ch=3 n=39 v=100
9983272 On ch=3 n=31 v=100
9983456 Off ch=3 n=39 v=0
9983472 On ch=3 n=33 v=100
9983475 Off ch=3 n=31 v=0
9983496 On ch=3 n=47 v=100
9983584 Off ch=3 n=33 v=0
9983888 On ch=3 n=48 v=100
9984110 Off ch=3 n=47 v=0
9984153 On ch=3 n=42 v=100
9984297 Off ch=3 n=48 v=0
9984314 On ch=3 n=45 v=100
9984490 On ch=3 n=43 v=100
9984589 Off ch=3 n=42 v=0
9984671 Off ch=3 n=45 v=0
9984692 On ch=3 n=49 v=100
9985086 Off ch=3 n=43 v=0
9985164 Off ch=3 n=49 v=0
9985500 On ch=3 n=41 v=100
9985765 On ch=3 n=48 v=100
9985765 On ch=3 n=48 v=100
9985804 Off ch=3 n=41 v=0
9985913 On ch=3 n=30 v=100
9986271 Off ch=3 n=30 v=0
9986328 On ch=3 n=50 v=100
9986434 Off ch=3 n=48 v=0
9986434 Off ch=3 n=48 v=0
9986627 On ch=3 n=32 v=100
9986778 On ch=3 n=17 v=100
9986797 Off ch=3 n=50 v=0
9986825 Off ch=3 n=32 v=0
9986842 On ch=3 n=18 v=100
9986938 On ch=3 n=19 v=100
9987174 Off ch=3 n=17 v=0
9987296 Off ch=3 n=18 v=0
9987375 On ch=3 n=17 v=100
9987476 Off ch=3 n=19 v=0
9987781 Off ch=3 n=17 v=0
9987782 On ch=3 n=12 v=100
9987976 Off ch=3 n=12 v=0
9987982 On ch=3 n=15 v=100
9988153 On ch=3 n=16 v=100
9988153 On ch=3 n=26 v=100
9988184 Off ch=3 n=15 v=0
9988189 On ch=3 n=40 v=100
9988350 On ch=3 n=14 v=100
9988366 Off ch=3 n=16 v=0
9988402 Off ch=3 n=26 v=0
9988516 Off ch=3 n=40 v=0
9988617 Off ch=3 n=14 v=0
9988637 On ch=3 n=7 v=100
9989089 On ch=3 n=30 v=100
9989091 On ch=3 n=35 v=100
9989091 On ch=3 n=35 v=100
9989172 On ch=3 n=19 v=100
9989213 Off ch=3 n=7 v=0
9989223 On ch=3 n=22 v=100
9989333 Off ch=3 n=30 v=0
9989333 Off ch=3 n=19 v=0
9989418 Off ch=3 n=35 v=0
9989418 Off ch=3 n=35 v=0
9989547 Off ch=3 n=22 v=0
9989853 On ch=3 n=19 v=100
9991166 On ch=3 n=1 v=100
9991167 Off ch=3 n=19 v=0
9991470 On ch=3 n=41 v=100
9991483 Off ch=3 n=1 v=0
9991507 On ch=3 n=37 v=100
9991513 On ch=3 n=19 v=100
9991594 Off ch=3 n=41 v=0
9991609 Off ch=3 n=19 v=0
9991618 Off ch=3 n=37 v=0
9991830 On ch=3 n=21 v=100
9992050 Off ch=3 n=21 v=0
9992223 On ch=3 n=21 v=100
9992695 Off ch=3 n=21 v=0
9992739 On ch=3 n=23 v=100
9992883 On ch=3 n=18 v=100
9993014 Off ch=3 n=23 v=0
9993110 Off ch=3 n=18 v=0
9993223 On ch=3 n=18 v=100
9993688 Off ch=3 n=18 v=0
9993738 On ch=3 n=39 v=100
9993738 On ch=3 n=20 v=100
9993824 Off ch=3 n=20 v=0
9993843 On ch=3 n=23 v=100
9993906 Off ch=3 n=39 v=0
9994301 Off ch=3 n=23 v=0
9994596 On ch=3 n=9 v=100
9994784 On ch=3 n=8 v=100
9994785 Off ch=3 n=9 v=0
9995078 Off ch=3 n=8 v=0
9995173 On ch=3 n=15 v=100
9995414 On ch=3 n=5 v=100
9995436 Off ch=3 n=15 v=0
9995859 On ch=3 n=7 v=100
9995869 Off ch=3 n=5 v=0
9995932 Off ch=3 n=7 v=0
9996005 On ch=3 n=7 v=100
9996066 Off ch=3 n=7 v=0
9996147 On ch=3 n=7 v=100
9997540 Off ch=3 n=7 v=0
9997546 On ch=3 n=0 v=100
9998189 On ch=3 n=14 v=100
9998189 On ch=3 n=14 v=100
9998209 On ch=3 n=11 v=100
9998225 Off ch=3 n=0 v=0
9998501 On ch=3 n=1 v=100
9998505 Off ch=3 n=11 v=0
9998527 Off ch=3 n=14 v=0
9998527 Off ch=3 n=14 v=0
9999483 On ch=3 n=33 v=100
9999487 Off ch=3 n=1 v=0
9999489 On ch=3 n=8 v=100
9999549 On ch=3 n=16 v=100
9999551 Off ch=3 n=8 v=0
9999569 On ch=3 n=42 v=100
9999584 Off ch=3 n=33 v=0
9999596 On ch=3 n=21 v=100
9999620 On ch=3 n=28 v=100
9999620 On ch=3 n=28 v=100
9999629 Off ch=3 n=16 v=0
9999631 On ch=3 n=9 v=100
9999647 On ch=3 n=33 v=100
9999824 Off ch=3 n=9 v=0
9999829 Off ch=3 n=21 v=0
9999837 Off ch=3 n=42 v=0
9999868 Off ch=3 n=28 v=0
9999868 Off ch=3 n=28 v=0
9999896 Off ch=3 n=33 v=0
9999924 On ch=3 n=32 v=100
9999961 On ch=3 n=18 v=100
10000074 Off ch=3 n=32 v=0
10000490 Off ch=3 n=18 v=0
10001203 On ch=3 n=53 v=100
10001547 On ch=3 n=48 v=100
10001599 Off ch=3 n=53 v=0
10001700 On ch=3 n=50 v=100
10002005 Off ch=3 n=48 v=0
10002033 On ch=3 n=50 v=100
10002196 Off ch=3 n=50 v=0
10002620 On ch=3 n=21 v=100
10002628 Off ch=3 n=50 v=0
10002853 Off ch=3 n=21 v=0
10003007 On ch=3 n=6 v=100
10004380 Off ch=3 n=6 v=0
10006470 On ch=3 n=56 v=100
10006684 On ch=3 n=21 v=100
10006684 Off ch=3 n=56 v=0
10006708 On ch=3 n=4 v=100
10006780 Off ch=3 n=21 v=0
10006952 On ch=3 n=8 v=100
10006955 Off ch=3 n=4 v=0
10007293 Off ch=3 n=8 v=0
10011305 On ch=3 n=2 v=100
10011535 Off ch=3 n=2 v=0
10012184 On ch=3 n=33 v=100
10012200 On ch=3 n=23 v=100
10012307 Off ch=3 n=23 v=0
10012308 Off ch=3 n=33 v=0
10013538 On ch=3 n=19 v=100
10013589 On ch=3 n=15 v=100
10013820 Off ch=3 n=15 v=0
10013826 Off ch=3 n=19 v=0
10014604 On ch=3 n=9 v=100
10015415 Off ch=3 n=9 v=0
10015448 On ch=3 n=9 v=100
10016167 On ch=3 n=21 v=100
10016167 On ch=3 n=21 v=100
10016181 On ch=3 n=15 v=100
10016199 On ch=3 n=20 v=100
10016199 On ch=3 n=20 v=100
10016211 Off ch=3 n=9 v=0
10016341 Off ch=3 n=15 v=0
10016354 On ch=3 n=10 v=100
10016382 Off ch=3 n=21 v=0
10016382 Off ch=3 n=21 v=0
10016388 Off ch=3 n=20 v=0
10016388 Off ch=3 n=20 v=0
10016478 Off ch=3 n=10 v=0
10016931 On ch=3 n=28 v=100
10017082 Off ch=3 n=28 v=0
10019642 On ch=3 n=28 v=100
10019732 Off ch=3 n=28 v=0
10019767 On ch=3 n=12 v=100
10020173 Off ch=3 n=12 v=0
10020176 On ch=3 n=6 v=100
10020695 On ch=3 n=6 v=100
10022693 Off ch=3 n=6 v=0
10022991 Off ch=3 n=6 v=0
10023066 On ch=3 n=21 v=100
10023152 Off ch=3 n=21 v=0
10023809 On ch=3 n=15 v=100
10023809 On ch=3 n=15 v=100
10023820 On ch=3 n=6 v=100
10024083 Off ch=3 n=6 v=0
10024131 Off ch=3 n=15 v=0
10024131 Off ch=3 n=15 v=0
10024545 On ch=3 n=3 v=100
10024546 On ch=3 n=27 v=100
10024546 On ch=3 n=10 v=100
10024745 Off ch=3 n=27 v=0
10024854 Off ch=3 n=3 v=0
10024856 On ch=3 n=3 v=100
10024904 Off ch=3 n=10 v=0
10025225 Off ch=3 n=3 v=0
10025918 On ch=3 n=10 v=100
10026731 Off ch=3 n=10 v=0
10026776 On ch=3 n=10 v=100
10027397 On ch=3 n=1 v=100
10027397 Off ch=3 n=10 v=0
10027541 Off ch=3 n=1 v=0
10029702 On ch=3 n=26 v=100
10029804 On ch=3 n=1 v=100
10029835 Off ch=3 n=26 v=0
10030423 Off ch=3 n=1 v=0
10030425 On ch=3 n=31 v=100
10030911 On ch=3 n=4 v=100
10030956 Off ch=3 n=31 v=0
10030995 Off ch=3 n=4 v=0
10031404 On ch=3 n=15 v=100
10031439 On ch=3 n=6 v=100
10031723 Off ch=3 n=6 v=0
10031730 Off ch=3 n=15 v=0
10031783 On ch=3 n=41 v=100
10031783 On ch=3 n=41 v=100
10031850 On ch=3 n=22 v=100
10031864 On ch=3 n=16 v=100
10031865 On ch=3 n=5 v=100
10031975 Off ch=3 n=22 v=0
10032140 Off ch=3 n=41 v=0
10032140 Off ch=3 n=41 v=0
10032144 Off ch=3 n=5 v=0
10032161 On ch=3 n=17 v=100
10032195 Off ch=3 n=16 v=0
10032205 Off ch=3 n=17 v=0
10032649 On ch=3 n=5 v=100
10032712 Off ch=3 n=5 v=0
10032823 On ch=3 n=13 v=100
10033059 Off ch=3 n=13 v=0
10033147 On ch=3 n=21 v=100
10033215 Off ch=3 n=21 v=0
10033450 On ch=3 n=14 v=100
10033544 On ch=3 n=8 v=100
10033556 Off ch=3 n=14 v=0
10033722 On ch=3 n=8 v=100
10033817 On ch=3 n=19 v=100
10033891 Off ch=3 n=8 v=0
10033972 Off ch=3 n=8 v=0
10034002 Off ch=3 n=19 v=0
10034132 On ch=3 n=44 v=100
10034153 On ch=3 n=22 v=100
10034211 Off ch=3 n=44 v=0
10034215 On ch=3 n=10 v=100
10034348 Off ch=3 n=22 v=0
10034372 Off ch=3 n=10 v=0
10034663 On ch=3 n=24 v=100
10034783 Off ch=3 n=24 v=0
10039368 On ch=3 n=12 v=100
10039387 On ch=3 n=2 v=100
10039545 Off ch=3 n=12 v=0
10039545 Off ch=3 n=2 v=0
10046449 On ch=3 n=43 v=100
10046461 On ch=3 n=1 v=100
10046529 Off ch=3 n=43 v=0
10046600 Off ch=3 n=1 v=0
10046679 On ch=3 n=7 v=100
10046842 On ch=3 n=5 v=100
10048190 Off ch=3 n=7 v=0
10048190 Off ch=3 n=5 v=0
10048336 On ch=3 n=30 v=100
10048358 On ch=3 n=5 v=100
10048498 Off ch=3 n=30 v=0
10048805 Off ch=3 n=5 v=0
10053315 On ch=3 n=5 v=100
10053540 Off ch=3 n=5 v=0
10056460 On ch=3 n=4 v=100
10056685 Off ch=3 n=4 v=0
10057188 On ch=3 n=38 v=100
10057210 On ch=3 n=48 v=100
10057278 Off ch=3 n=38 v=0
10057331 Off ch=3 n=48 v=0
10058901 On ch=3 n=48 v=100
10059019 Off ch=3 n=48 v=0
10059104 On ch=3 n=9 v=100
10059933 On ch=3 n=6 v=100
10059933 Off ch=3 n=9 v=0
10060647 On ch=3 n=13 v=100
10060654 On ch=3 n=18 v=100
10060654 Off ch=3 n=6 v=0
10060940 Off ch=3 n=13 v=0
10060943 On ch=3 n=5 v=100
10060988 Off ch=3 n=18 v=0
10061770 Off ch=3 n=5 v=0
10070655 On ch=3 n=26 v=100
10070838 Off ch=3 n=26 v=0
10073251 On ch=3 n=12 v=100
10073363 Off ch=3 n=12 v=0
10073910 On ch=3 n=23 v=100
10073972 On ch=3 n=6 v=100
10074291 Off ch=3 n=6 v=0
10074293 Off ch=3 n=23 v=0
10075766 On ch=3 n=13 v=100
10075942 Off ch=3 n=13 v=0
10076121 On ch=3 n=43 v=100
10076121 On ch=3 n=43 v=100
10076199 On ch=3 n=18 v=100
10076300 Off ch=3 n=18 v=0
10076387 Off ch=3 n=43 v=0
10076387 Off ch=3 n=43 v=0
10076646 On ch=3 n=12 v=100
10076710 Off ch=3 n=12 v=0
10077649 On ch=3 n=16 v=100
10077828 Off ch=3 n=16 v=0
10078592 On ch=3 n=28 v=100
10078656 On ch=3 n=18 v=100
10078895 On ch=3 n=19 v=100
10078902 Off ch=3 n=28 v=0
10078904 Off ch=3 n=18 v=0
10078993 Off ch=3 n=19 v=0
10079137 On ch=3 n=21 v=100
10079234 Off ch=3 n=21 v=0
10079276 On ch=3 n=11 v=100
10079934 Off ch=3 n=11 v=0
10079940 On ch=3 n=22 v=100
10080023 Off ch=3 n=22 v=0
10084156 On ch=3 n=56 v=100
10084298 On ch=3 n=31 v=100
10084331 Off ch=3 n=56 v=0
10084347 On ch=3 n=25 v=100
10084510 On ch=3 n=14 v=100
10084683 On ch=3 n=9 v=100
10084691 Off ch=3 n=31 v=0
10084693 Off ch=3 n=25 v=0
10084760 Off ch=3 n=14 v=0
10084997 Off ch=3 n=9 v=0
10084998 On ch=3 n=6 v=100
10085677 Off ch=3 n=6 v=0
10086263 On ch=3 n=11 v=100
10086914 Off ch=3 n=11 v=0
10086923 On ch=3 n=31 v=100
10087068 Off ch=3 n=31 v=0
10087188 On ch=3 n=1 v=100
10087891 On ch=3 n=19 v=100
10087940 Off ch=3 n=1 v=0
10088010 On ch=3 n=25 v=100
10088110 Off ch=3 n=19 v=0
10088110 Off ch=3 n=25 v=0
10088144 On ch=3 n=10 v=100
10088144 On ch=3 n=19 v=100
10088144 On ch=3 n=15 v=100
10088144 On ch=3 n=25 v=100
10088289 On ch=3 n=2 v=100
10088291 Off ch=3 n=10 v=0
10088318 Off ch=3 n=19 v=0
10088371 Off ch=3 n=15 v=0
10088440 Off ch=3 n=25 v=0
10088957 Off ch=3 n=2 v=0
10089017 On ch=3 n=2 v=100
10089187 Off ch=3 n=2 v=0
10089259 On ch=3 n=2 v=100
10090671 Off ch=3 n=2 v=0
10090705 On ch=3 n=5 v=100
10090975 On ch=3 n=15 v=100
10090986 Off ch=3 n=5 v=0
10091081 Off ch=3 n=15 v=0
10091119 On ch=3 n=32 v=100
10091267 Off ch=3 n=32 v=0
10092465 On ch=3 n=38 v=100
10092500 On ch=3 n=44 v=100
10092557 On ch=3 n=42 v=100
10092610 Off ch=3 n=38 v=0
10092611 On ch=3 n=23 v=100
10092618 On ch=3 n=36 v=100
10092708 Off ch=3 n=44 v=0
10092720 Off ch=3 n=23 v=0
10092726 Off ch=3 n=42 v=0
10092759 Off ch=3 n=36 v=0
10092869 On ch=3 n=37 v=100
10092995 Off ch=3 n=37 v=0
10093784 On ch=3 n=38 v=100
10093890 Off ch=3 n=38 v=0
10096585 On ch=3 n=37 v=100
10096726 Off ch=3 n=37 v=0
10098329 On ch=3 n=37 v=100
10098470 Off ch=3 n=37 v=0
10099938 On ch=3 n=49 v=100
10100073 On ch=3 n=38 v=100
10100214 Off ch=3 n=38 v=0
10100215 Off ch=3 n=49 v=0
10103127 On ch=3 n=52 v=100
10103297 On ch=3 n=39 v=100
10103390 Off ch=3 n=39 v=0
10103392 Off ch=3 n=52 v=0
10104434 On ch=3 n=4 v=100
10106067 Off ch=3 n=4 v=0
10106192 On ch=3 n=15 v=100
10106580 On ch=3 n=34 v=100
10106599 Off ch=3 n=15 v=0
10106600 On ch=3 n=2 v=100
10106689 Off ch=3 n=34 v=0
10109065 On ch=3 n=26 v=100
10109083 Off ch=3 n=2 v=0
10114584 Off ch=3 n=26 v=0
10114629 On ch=3 n=26 v=100
10115657 Off ch=3 n=26 v=0
10115690 On ch=3 n=26 v=100
10116195 Off ch=3 n=26 v=0
10117722 On ch=3 n=48 v=100
10117803 Off ch=3 n=48 v=0
10118173 On ch=3 n=48 v=100
10118533 Off ch=3 n=48 v=0
10119540 On ch=3 n=60 v=100
10119636 Off ch=3 n=60 v=0
10120175 On ch=3 n=48 v=100
10120535 Off ch=3 n=48 v=0
10121542 On ch=3 n=60 v=100
10121638 Off ch=3 n=60 v=0
10121725 On ch=3 n=49 v=100
10121807 Off ch=3 n=49 v=0
10122180 On ch=3 n=48 v=100
10122537 Off ch=3 n=48 v=0
10122948 On ch=3 n=5 v=100
10123910 On ch=3 n=8 v=100
10123917 Off ch=3 n=5 v=0
10124190 On ch=3 n=5 v=100
10124192 Off ch=3 n=8 v=0
10124678 On ch=3 n=17 v=100
10124681 Off ch=3 n=5 v=0
10125629 On ch=3 n=26 v=100
10125650 Off ch=3 n=17 v=0
10125920 On ch=3 n=3 v=100
10125936 Off ch=3 n=26 v=0
10126122 Off ch=3 n=3 v=0
10126154 On ch=3 n=3 v=100
10126683 Off ch=3 n=3 v=0
10128032 On ch=3 n=5 v=100
10129868 On ch=3 n=2 v=100
10129878 Off ch=3 n=5 v=0
10132242 On ch=3 n=36 v=100
10132339 Off ch=3 n=2 v=0
10132342 On ch=3 n=14 v=100
10132369 Off ch=3 n=36 v=0
10132465 Off ch=3 n=14 v=0
10132547 On ch=3 n=14 v=100
10132647 Off ch=3 n=14 v=0
10132675 On ch=3 n=14 v=100
10133199 Off ch=3 n=14 v=0
10133204 On ch=3 n=6 v=100
10134205 On ch=3 n=38 v=100
10134209 Off ch=3 n=6 v=0
10134434 Off ch=3 n=38 v=0
10134919 On ch=3 n=20 v=100
10135098 On ch=3 n=8 v=100
10135110 Off ch=3 n=20 v=0
10135649 Off ch=3 n=8 v=0
10135742 On ch=3 n=5 v=100
10135952 On ch=3 n=12 v=100
10135995 Off ch=3 n=5 v=0
10136002 Off ch=3 n=12 v=0
10136028 On ch=3 n=6 v=100
10136204 On ch=3 n=12 v=100
10136247 Off ch=3 n=6 v=0
10136254 Off ch=3 n=12 v=0
10136354 On ch=3 n=16 v=100
10136498 Off ch=3 n=16 v=0
10136614 On ch=3 n=36 v=100
10136633 On ch=3 n=33 v=100
10136678 On ch=3 n=6 v=100
10136840 Off ch=3 n=33 v=0
10136846 Off ch=3 n=36 v=0
10136846 Off ch=3 n=6 v=0
10136953 On ch=3 n=28 v=100
10137114 Off ch=3 n=28 v=0
10138410 On ch=3 n=19 v=100
10138425 On ch=3 n=14 v=100
10138620 Off ch=3 n=14 v=0
10138629 Off ch=3 n=19 v=0
10139387 On ch=3 n=11 v=100
10139486 Off ch=3 n=11 v=0
10139489 On ch=3 n=14 v=100
10139566 Off ch=3 n=14 v=0
10139836 On ch=3 n=6 v=100
10139961 Off ch=3 n=6 v=0
10139962 On ch=3 n=3 v=100
10140755 Off ch=3 n=3 v=0
10140889 On ch=3 n=8 v=100
10141038 Off ch=3 n=8 v=0
10141059 On ch=3 n=7 v=100
10141399 On ch=3 n=31 v=100
10141411 On ch=3 n=6 v=100
10141413 Off ch=3 n=7 v=0
10141476 Off ch=3 n=31 v=0
10141477 Off ch=3 n=6 v=0
10141485 On ch=3 n=3 v=100
10142527 On ch=3 n=6 v=100
10142530 Off ch=3 n=3 v=0
10142576 Off ch=3 n=6 v=0
10142585 On ch=3 n=13 v=100
10142745 Off ch=3 n=13 v=0
10142747 On ch=3 n=15 v=100
10142901 Off ch=3 n=15 v=0
10143047 On ch=3 n=22 v=100
10143138 Off ch=3 n=22 v=0
10143141 On ch=3 n=15 v=100
10143155 On ch=3 n=7 v=100
10143292 On ch=3 n=12 v=100
10143324 Off ch=3 n=7 v=0
10143331 On ch=3 n=10 v=100
10143331 Off ch=3 n=15 v=0
10143336 Off ch=3 n=12 v=0
10145128 Off ch=3 n=10 v=0
10145895 On ch=3 n=35 v=100
10146165 Off ch=3 n=35 v=0
10150193 On ch=3 n=21 v=100
10150410 Off ch=3 n=21 v=0
10150773 On ch=3 n=14 v=100
10150960 Off ch=3 n=14 v=0
10151000 On ch=3 n=14 v=100
10151167 On ch=3 n=26 v=100
10151179 On ch=3 n=18 v=100
10151179 Off ch=3 n=14 v=0
10151266 Off ch=3 n=26 v=0
10151294 On ch=3 n=34 v=100
10151305 Off ch=3 n=18 v=0
10151365 Off ch=3 n=34 v=0
10151376 On ch=3 n=17 v=100
10151390 On ch=3 n=42 v=100
10151815 Off ch=3 n=17 v=0
10151816 On ch=3 n=20 v=100
10151908 On ch=3 n=9 v=100
10151936 Off ch=3 n=42 v=0
10152128 Off ch=3 n=9 v=0
10152129 Off ch=3 n=20 v=0
10153387 On ch=3 n=9 v=100
10153414 On ch=3 n=12 v=100
10153420 Off ch=3 n=9 v=0
10153647 Off ch=3 n=12 v=0
10153832 On ch=3 n=28 v=100
10153859 On ch=3 n=32 v=100
10153965 Off ch=3 n=28 v=0
10153965 Off ch=3 n=32 v=0
10154753 On ch=3 n=8 v=100
10155598 On ch=3 n=44 v=100
10155600 Off ch=3 n=8 v=0
10155650 On ch=3 n=20 v=100
10155651 On ch=3 n=24 v=100
10155656 Off ch=3 n=44 v=0
10156013 Off ch=3 n=20 v=0
10156061 Off ch=3 n=24 v=0
10156064 On ch=3 n=34 v=100
10156155 On ch=3 n=14 v=100
10156261 Off ch=3 n=34 v=0
10156286 Off ch=3 n=14 v=0
10156290 On ch=3 n=7 v=100
10156959 Off ch=3 n=7 v=0
10156961 On ch=3 n=8 v=100
10157282 On ch=3 n=25 v=100
10157284 Off ch=3 n=8 v=0
10157511 On ch=3 n=4 v=100
10157534 Off ch=3 n=25 v=0
10157701 Off ch=3 n=4 v=0
10157784 On ch=3 n=4 v=100
10158221 On ch=3 n=5 v=100
10158223 Off ch=3 n=4 v=0
10158400 Off ch=3 n=5 v=0
10158401 On ch=3 n=39 v=100
10158503 Off ch=3 n=39 v=0
10158576 On ch=3 n=39 v=100
10158803 Off ch=3 n=39 v=0
10158813 On ch=3 n=2 v=100
10158989 On ch=3 n=3 v=100
10158991 Off ch=3 n=2 v=0
10159072 Off ch=3 n=3 v=0
10159081 On ch=3 n=57 v=100
10159446 Off ch=3 n=57 v=0
10167944 On ch=3 n=20 v=100
10168083 Off ch=3 n=20 v=0
10172699 On ch=3 n=7 v=100
10172965 Off ch=3 n=7 v=0
10172990 On ch=3 n=25 v=100
10173266 Off ch=3 n=25 v=0
10174238 On ch=3 n=40 v=100
10174270 On ch=3 n=33 v=100
10174315 On ch=3 n=34 v=100
10174321 On ch=3 n=27 v=100
10174429 Off ch=3 n=40 v=0
10174429 Off ch=3 n=33 v=0
10174429 Off ch=3 n=27 v=0
10174480 Off ch=3 n=34 v=0
10174573 On ch=3 n=55 v=100
10174739 On ch=3 n=33 v=100
10174784 Off ch=3 n=55 v=0
10174847 On ch=3 n=22 v=100
10175084 Off ch=3 n=33 v=0
10175183 On ch=3 n=19 v=100
10175219 Off ch=3 n=22 v=0
10175227 Off ch=3 n=19 v=0
10179183 On ch=3 n=2 v=100
10180126 Off ch=3 n=2 v=0
10180172 On ch=3 n=12 v=100
10182119 Off ch=3 n=12 v=0
10182120 On ch=3 n=2 v=100
10183228 Off ch=3 n=2 v=0
10183230 On ch=3 n=9 v=100
10186051 On ch=3 n=20 v=100
10186483 Off ch=3 n=9 v=0
10186485 On ch=3 n=1 v=100
10186571 Off ch=3 n=20 v=0
10188695 Off ch=3 n=1 v=0
10188697 On ch=3 n=0 v=100
10188952 Off ch=3 n=0 v=0
10190397 On ch=3 n=10 v=100
10190473 Off ch=3 n=10 v=0
10190479 On ch=3 n=28 v=100
10190992 Off ch=3 n=28 v=0
10191067 On ch=3 n=20 v=100
10191134 Off ch=3 n=20 v=0
10191260 On ch=3 n=8 v=100
10191347 On ch=3 n=50 v=100
10191418 Off ch=3 n=8 v=0
10191429 Off ch=3 n=50 v=0
10191491 On ch=3 n=16 v=100
10191558 Off ch=3 n=16 v=0
10191701 On ch=3 n=23 v=100
10191786 Off ch=3 n=23 v=0
10191802 On ch=3 n=13 v=100
10192856 Off ch=3 n=13 v=0
10196459 On ch=3 n=52 v=100
10196489 On ch=3 n=28 v=100
10196548 Off ch=3 n=52 v=0
10196553 Off ch=3 n=28 v=0
10199102 On ch=3 n=54 v=100
10204858 On ch=3 n=50 v=100
10204861 Off ch=3 n=54 v=0
10207084 Off ch=3 n=50 v=0
10209126 On ch=3 n=4 v=100
10210345 Off ch=3 n=4 v=0
10219147 On ch=3 n=12 v=100
10219483 Off ch=3 n=12 v=0
10219757 On ch=3 n=15 v=100
10220590 Off ch=3 n=15 v=0
10221942 On ch=3 n=12 v=100
10222761 Off ch=3 n=12 v=0
10222763 On ch=3 n=8 v=100
10222986 Off ch=3 n=8 v=0
10224901 On ch=3 n=37 v=100
10224943 On ch=3 n=33 v=100
10224947 On ch=3 n=29 v=100
10225034 On ch=3 n=56 v=100
10225169 Off ch=3 n=29 v=0
10225173 Off ch=3 n=37 v=0
10225188 On ch=3 n=19 v=100
10225198 Off ch=3 n=33 v=0
10225260 Off ch=3 n=56 v=0
10225343 Off ch=3 n=19 v=0
10225626 On ch=3 n=12 v=100
10226127 Off ch=3 n=12 v=0
10226819 On ch=3 n=21 v=100
10226862 Off ch=3 n=21 v=0
10227662 On ch=3 n=16 v=100
10227708 Off ch=3 n=16 v=0
10228343 On ch=3 n=21 v=100
10228432 Off ch=3 n=21 v=0
10228877 On ch=3 n=10 v=100
10229350 On ch=3 n=2 v=100
10229350 Off ch=3 n=10 v=0
10229669 Off ch=3 n=2 v=0
10229671 On ch=3 n=13 v=100
10229709 On ch=3 n=17 v=100
10229793 Off ch=3 n=13 v=0
10229796 On ch=3 n=12 v=100
10230017 On ch=3 n=47 v=100
10230017 On ch=3 n=47 v=100
10230155 Off ch=3 n=17 v=0
10230156 Off ch=3 n=12 v=0
10230486 On ch=3 n=42 v=100
10230528 On ch=3 n=34 v=100
10230544 On ch=3 n=36 v=100
10230544 On ch=3 n=36 v=100
10230671 Off ch=3 n=47 v=0
10230671 Off ch=3 n=47 v=0
10230708 Off ch=3 n=34 v=0
10230711 Off ch=3 n=42 v=0
10230760 Off ch=3 n=36 v=0
10230760 Off ch=3 n=36 v=0
10231404 On ch=3 n=20 v=100
10231447 Off ch=3 n=20 v=0
10231906 On ch=3 n=44 v=100
10232025 Off ch=3 n=44 v=0
10232112 On ch=3 n=22 v=100
10232128 On ch=3 n=21 v=100
10232184 On ch=3 n=8 v=100
10232187 Off ch=3 n=21 v=0
10232188 Off ch=3 n=22 v=0
10232663 Off ch=3 n=8 v=0
10232683 On ch=3 n=9 v=100
10233230 Off ch=3 n=9 v=0
10233233 On ch=3 n=8 v=100
10233368 On ch=3 n=14 v=100
10233384 Off ch=3 n=8 v=0
10233583 Off ch=3 n=14 v=0
10233584 On ch=3 n=7 v=100
10234842 Off ch=3 n=7 v=0
10234843 On ch=3 n=12 v=100
10234875 Off ch=3 n=12 v=0
10234878 On ch=3 n=14 v=100
10235173 Off ch=3 n=14 v=0
10235948 On ch=3 n=10 v=100
10236174 Off ch=3 n=10 v=0
10236285 On ch=3 n=10 v=100
10236356 Off ch=3 n=10 v=0
10236663 On ch=3 n=8 v=100
10237017 Off ch=3 n=8 v=0
10237050 On ch=3 n=6 v=100
10237267 On ch=3 n=27 v=100
10237294 On ch=3 n=6 v=100
10237297 Off ch=3 n=6 v=0
10237306 Off ch=3 n=27 v=0
10237831 Off ch=3 n=6 v=0
10238485 On ch=3 n=16 v=100
10238491 On ch=3 n=8 v=100
10238746 Off ch=3 n=8 v=0
10238775 Off ch=3 n=16 v=0
10240286 On ch=3 n=37 v=100
10240335 On ch=3 n=14 v=100
10240410 Off ch=3 n=37 v=0
10240410 Off ch=3 n=14 v=0
10240428 On ch=3 n=2 v=100
10241664 Off ch=3 n=2 v=0
10241666 On ch=3 n=12 v=100
10242345 Off ch=3 n=12 v=0
10242903 On ch=3 n=25 v=100
10243021 On ch=3 n=8 v=100
10243530 Off ch=3 n=8 v=0
10243536 Off ch=3 n=25 v=0
10243833 On ch=3 n=9 v=100
10244194 Off ch=3 n=9 v=0
10244824 On ch=3 n=18 v=100
10245060 Off ch=3 n=18 v=0
10245076 On ch=3 n=20 v=100
10245097 On ch=3 n=28 v=100
10245195 Off ch=3 n=20 v=0
10245220 Off ch=3 n=28 v=0
10247708 On ch=3 n=12 v=100
10247963 Off ch=3 n=12 v=0
10249181 On ch=3 n=6 v=100
10249210 Off ch=3 n=6 v=0
10251188 On ch=3 n=5 v=100
10251361 On ch=3 n=12 v=100
10251375 Off ch=3 n=5 v=0
10251377 On ch=3 n=3 v=100
10251406 On ch=3 n=37 v=100
10251413 On ch=3 n=29 v=100
10251437 On ch=3 n=6 v=100
10251437 On ch=3 n=41 v=100
10251438 Off ch=3 n=12 v=0
10251438 Off ch=3 n=3 v=0
10251487 Off ch=3 n=6 v=0
10251487 Off ch=3 n=29 v=0
10251490 On ch=3 n=7 v=100
10251507 Off ch=3 n=37 v=0
10251575 Off ch=3 n=41 v=0
10251835 On ch=3 n=10 v=100
10251835 Off ch=3 n=7 v=0
10252020 Off ch=3 n=10 v=0
10255648 On ch=3 n=3 v=100
10255908 Off ch=3 n=3 v=0
10256163 On ch=3 n=55 v=100
10256282 Off ch=3 n=55 v=0
10258802 On ch=3 n=61 v=100
10258802 On ch=3 n=61 v=100
10258939 Off ch=3 n=61 v=0
10258939 Off ch=3 n=61 v=0
10258966 On ch=3 n=67 v=100
10258966 On ch=3 n=67 v=100
10259098 Off ch=3 n=67 v=0
10259098 Off ch=3 n=67 v=0
10262083 On ch=3 n=70 v=100
10262083 On ch=3 n=70 v=100
10262212 Off ch=3 n=70 v=0
10262212 Off ch=3 n=70 v=0
10262245 On ch=3 n=56 v=100
10262394 Off ch=3 n=56 v=0
10262404 On ch=3 n=63 v=100
10262404 On ch=3 n=63 v=100
10262562 On ch=3 n=55 v=100
10262562 On ch=3 n=55 v=100
10262569 Off ch=3 n=63 v=0
10262569 Off ch=3 n=63 v=0
10262689 Off ch=3 n=55 v=0
10262689 Off ch=3 n=55 v=0
10263040 On ch=3 n=60 v=100
10263040 On ch=3 n=60 v=100
10263166 Off ch=3 n=60 v=0
10263166 Off ch=3 n=60 v=0
10263198 On ch=3 n=61 v=100
10263325 Off ch=3 n=61 v=0
10263913 On ch=3 n=6 v=100
10263960 Off ch=3 n=6 v=0
10264101 On ch=3 n=37 v=100
10264175 Off ch=3 n=37 v=0
10264198 On ch=3 n=65 v=100
10264198 On ch=3 n=65 v=100
10264334 Off ch=3 n=65 v=0
10264334 Off ch=3 n=65 v=0
10264533 On ch=3 n=46 v=100
10264618 Off ch=3 n=46 v=0
10264983 On ch=3 n=53 v=100
10264983 On ch=3 n=53 v=100
10265131 Off ch=3 n=53 v=0
10265131 Off ch=3 n=53 v=0
10265163 On ch=3 n=68 v=100
10265289 Off ch=3 n=68 v=0
10265495 On ch=3 n=67 v=100
10265639 On ch=3 n=56 v=100
10265646 Off ch=3 n=67 v=0
10265647 On ch=3 n=46 v=100
10265729 Off ch=3 n=46 v=0
10265764 Off ch=3 n=56 v=0
10265957 On ch=3 n=59 v=100
10265957 On ch=3 n=59 v=100
10266085 Off ch=3 n=59 v=0
10266085 Off ch=3 n=59 v=0
10266106 On ch=3 n=60 v=100
10266106 On ch=3 n=60 v=100
10266243 Off ch=3 n=60 v=0
10266243 Off ch=3 n=60 v=0
10266274 On ch=3 n=59 v=100
10266274 On ch=3 n=59 v=100
10266402 Off ch=3 n=59 v=0
10266402 Off ch=3 n=59 v=0
10267059 On ch=3 n=52 v=100
10267059 On ch=3 n=52 v=100
10267196 Off ch=3 n=52 v=0
10267196 Off ch=3 n=52 v=0
10267221 On ch=3 n=59 v=100
10267221 On ch=3 n=59 v=100
10267355 Off ch=3 n=59 v=0
10267355 Off ch=3 n=59 v=0
10267546 On ch=3 n=58 v=100
10267546 On ch=3 n=58 v=100
10267683 Off ch=3 n=58 v=0
10267683 Off ch=3 n=58 v=0
10268490 On ch=3 n=51 v=100
10268490 On ch=3 n=51 v=100
10268628 Off ch=3 n=51 v=0
10268628 Off ch=3 n=51 v=0
10268664 On ch=3 n=61 v=100
10268786 Off ch=3 n=61 v=0
10268807 On ch=3 n=64 v=100
10268807 On ch=3 n=64 v=100
10268944 Off ch=3 n=64 v=0
10268944 Off ch=3 n=64 v=0
10268976 On ch=3 n=62 v=100
10268976 On ch=3 n=62 v=100
10269103 Off ch=3 n=62 v=0
10269103 Off ch=3 n=62 v=0
10269132 On ch=3 n=69 v=100
10269132 On ch=3 n=69 v=100
10269262 Off ch=3 n=69 v=0
10269262 Off ch=3 n=69 v=0
10269294 On ch=3 n=61 v=100
10269421 Off ch=3 n=61 v=0
10269454 On ch=3 n=69 v=100
10269454 On ch=3 n=69 v=100
10269580 Off ch=3 n=69 v=0
10269580 Off ch=3 n=69 v=0
10269611 On ch=3 n=62 v=100
10269739 Off ch=3 n=62 v=0
10270725 On ch=3 n=54 v=100
10270855 Off ch=3 n=54 v=0
10270887 On ch=3 n=56 v=100
10270887 On ch=3 n=56 v=100
10271052 On ch=3 n=64 v=100
10271052 Off ch=3 n=56 v=0
10271052 Off ch=3 n=56 v=0
10271174 Off ch=3 n=64 v=0
10271365 On ch=3 n=64 v=100
10271365 On ch=3 n=64 v=100
10271530 Off ch=3 n=64 v=0
10271530 Off ch=3 n=64 v=0
10271839 On ch=3 n=64 v=100
10271839 On ch=3 n=64 v=100
10271968 Off ch=3 n=64 v=0
10271968 Off ch=3 n=64 v=0
10272008 On ch=3 n=72 v=100
10272125 Off ch=3 n=72 v=0
10272149 On ch=3 n=60 v=100
10272149 On ch=3 n=60 v=100
10272318 On ch=3 n=56 v=100
10272325 Off ch=3 n=60 v=0
10272325 Off ch=3 n=60 v=0
10272326 On ch=3 n=46 v=100
10272410 Off ch=3 n=46 v=0
10272446 Off ch=3 n=56 v=0
10272649 On ch=3 n=61 v=100
10272806 Off ch=3 n=61 v=0
10272955 On ch=3 n=70 v=100
10272955 On ch=3 n=70 v=100
10273082 Off ch=3 n=70 v=0
10273082 Off ch=3 n=70 v=0
10273123 On ch=3 n=58 v=100
10273265 Off ch=3 n=58 v=0
10273274 On ch=3 n=62 v=100
10273274 On ch=3 n=62 v=100
10273434 On ch=3 n=57 v=100
10273434 On ch=3 n=57 v=100
10273440 Off ch=3 n=62 v=0
10273440 Off ch=3 n=62 v=0
10273595 Off ch=3 n=57 v=0
10273595 Off ch=3 n=57 v=0
10274062 On ch=3 n=49 v=100
10274062 On ch=3 n=49 v=100
10274189 Off ch=3 n=49 v=0
10274189 Off ch=3 n=49 v=0
10274233 On ch=3 n=59 v=100
10274350 Off ch=3 n=59 v=0
10274380 On ch=3 n=58 v=100
10274380 On ch=3 n=58 v=100
10274510 Off ch=3 n=58 v=0
10274510 Off ch=3 n=58 v=0
10274596 On ch=3 n=33 v=100
10274670 Off ch=3 n=33 v=0
10274861 On ch=3 n=56 v=100
10274861 On ch=3 n=56 v=100
10274989 Off ch=3 n=56 v=0
10274989 Off ch=3 n=56 v=0
10275336 On ch=3 n=53 v=100
10275336 On ch=3 n=53 v=100
10275464 Off ch=3 n=53 v=0
10275464 Off ch=3 n=53 v=0
10275508 On ch=3 n=59 v=100
10275625 Off ch=3 n=59 v=0
10276237 On ch=3 n=67 v=100
10276237 On ch=3 n=67 v=100
10276365 Off ch=3 n=67 v=0
10276365 Off ch=3 n=67 v=0
10276404 On ch=3 n=51 v=100
10276491 Off ch=3 n=51 v=0
10276546 On ch=3 n=62 v=100
10276546 On ch=3 n=62 v=100
10276715 On ch=3 n=54 v=100
10276715 On ch=3 n=54 v=100
10276723 Off ch=3 n=62 v=0
10276723 Off ch=3 n=62 v=0
10276843 Off ch=3 n=54 v=0
10276843 Off ch=3 n=54 v=0
10283373 On ch=3 n=6 v=100
10285321 Off ch=3 n=6 v=0
10291996 On ch=3 n=16 v=100
10292033 On ch=3 n=36 v=100
10292123 Off ch=3 n=16 v=0
10292422 Off ch=3 n=36 v=0
10292562 On ch=3 n=30 v=100
10292792 Off ch=3 n=30 v=0
10292824 On ch=3 n=30 v=100
10292896 Off ch=3 n=30 v=0
10293406 On ch=3 n=31 v=100
10293536 Off ch=3 n=31 v=0
10294064 On ch=3 n=51 v=100
10294077 On ch=3 n=52 v=100
10294149 Off ch=3 n=51 v=0
10294149 Off ch=3 n=52 v=0
10295278 On ch=3 n=57 v=100
10295351 Off ch=3 n=57 v=0
10301335 On ch=3 n=42 v=100
10301388 On ch=3 n=19 v=100
10301401 Off ch=3 n=42 v=0
10301544 Off ch=3 n=19 v=0
10301558 On ch=3 n=32 v=100
10301645 Off ch=3 n=32 v=0
10302234 On ch=3 n=26 v=100
10302570 Off ch=3 n=26 v=0
10302573 On ch=3 n=32 v=100
10303202 Off ch=3 n=32 v=0
10303297 On ch=3 n=30 v=100
10303376 Off ch=3 n=30 v=0
10303397 On ch=3 n=35 v=100
10303525 Off ch=3 n=35 v=0
10303858 On ch=3 n=49 v=100
10304293 On ch=3 n=43 v=100
10304444 Off ch=3 n=49 v=0
10304660 On ch=3 n=34 v=100
10304780 Off ch=3 n=43 v=0
10304814 On ch=3 n=40 v=100
10304819 Off ch=3 n=34 v=0
10304976 Off ch=3 n=40 v=0
10305060 On ch=3 n=6 v=100
10305336 On ch=3 n=20 v=100
10305357 On ch=3 n=36 v=100
10305357 Off ch=3 n=6 v=0
10305414 Off ch=3 n=20 v=0
10305416 On ch=3 n=7 v=100
10305503 Off ch=3 n=36 v=0
10305895 Off ch=3 n=7 v=0
10312134 On ch=3 n=8 v=100
10312322 Off ch=3 n=8 v=0
10312366 On ch=3 n=8 v=100
10312623 On ch=3 n=8 v=100
10312846 Off ch=3 n=8 v=0
10312850 On ch=3 n=7 v=100
10313087 On ch=3 n=15 v=100
10313261 Off ch=3 n=8 v=0
10313593 Off ch=3 n=7 v=0
10313677 Off ch=3 n=15 v=0
10313685 On ch=3 n=2 v=100
10313725 Off ch=3 n=2 v=0
10313752 On ch=3 n=11 v=100
10313857 On ch=3 n=27 v=100
10313881 Off ch=3 n=11 v=0
10313983 On ch=3 n=16 v=100
10314229 Off ch=3 n=27 v=0
10314888 Off ch=3 n=16 v=0
10314953 On ch=3 n=38 v=100
10314989 On ch=3 n=27 v=100
10315246 On ch=3 n=42 v=100
10315251 Off ch=3 n=38 v=0
10315251 Off ch=3 n=27 v=0
10315565 Off ch=3 n=42 v=0
10315585 On ch=3 n=16 v=100
10316109 Off ch=3 n=16 v=0
10316122 On ch=3 n=17 v=100
10317608 Off ch=3 n=17 v=0
10323485 On ch=3 n=20 v=100
10324250 Off ch=3 n=20 v=0
10328269 On ch=3 n=8 v=100
10330906 Off ch=3 n=8 v=0
10331141 On ch=3 n=26 v=100
10333255 Off ch=3 n=26 v=0
10333258 On ch=3 n=3 v=100
10334992 On ch=3 n=27 v=100
10335030 On ch=3 n=3 v=100
10335041 Off ch=3 n=3 v=0
10335080 Off ch=3 n=27 v=0
10337129 On ch=3 n=13 v=100
10337130 Off ch=3 n=3 v=0
10337772 Off ch=3 n=13 v=0
10350266 On ch=3 n=53 v=100
10350339 Off ch=3 n=53 v=0
10351469 On ch=3 n=51 v=100
10351469 On ch=3 n=46 v=100
10351542 Off ch=3 n=51 v=0
10351557 Off ch=3 n=46 v=0
10352680 On ch=3 n=50 v=100
10352755 Off ch=3 n=50 v=0
10354246 On ch=3 n=51 v=100
10354319 Off ch=3 n=51 v=0
10355445 On ch=3 n=52 v=100
10355451 On ch=3 n=57 v=100
10355520 Off ch=3 n=52 v=0
10355557 Off ch=3 n=57 v=0
10357965 On ch=3 n=22 v=100
10358344 Off ch=3 n=22 v=0
10358455 On ch=3 n=22 v=100
10358671 Off ch=3 n=22 v=0
10358706 On ch=3 n=22 v=100
10361208 Off ch=3 n=22 v=0
10361306 On ch=3 n=7 v=100
10361577 Off ch=3 n=7 v=0
10362368 On ch=3 n=6 v=100
10363417 Off ch=3 n=6 v=0
10363420 On ch=3 n=1 v=100
10364419 On ch=3 n=35 v=100
10364498 Off ch=3 n=1 v=0
10364501 On ch=3 n=2 v=100
10364508 Off ch=3 n=35 v=0
10365481 On ch=3 n=34 v=100
10365560 Off ch=3 n=2 v=0
10365563 On ch=3 n=2 v=100
10365571 Off ch=3 n=34 v=0
10366645 Off ch=3 n=2 v=0
10367449 On ch=3 n=51 v=100
10367563 Off ch=3 n=51 v=0
10371573 On ch=3 n=4 v=100
10371583 On ch=3 n=51 v=100
10371716 On ch=3 n=14 v=100
10371873 Off ch=3 n=4 v=0
10372116 On ch=3 n=5 v=100
10372164 Off ch=3 n=51 v=0
10372302 Off ch=3 n=14 v=0
10372629 Off ch=3 n=5 v=0
10374330 On ch=3 n=12 v=100
10374987 Off ch=3 n=12 v=0
10376417 On ch=3 n=9 v=100
10376580 Off ch=3 n=9 v=0
10385148 On ch=3 n=6 v=100
10385718 Off ch=3 n=6 v=0
10387167 On ch=3 n=11 v=100
10387266 Off ch=3 n=11 v=0
10387286 On ch=3 n=8 v=100
10387357 Off ch=3 n=8 v=0
10388275 On ch=3 n=17 v=100
10388416 Off ch=3 n=17 v=0
10391316 On ch=3 n=29 v=100
10391343 On ch=3 n=42 v=100
10391352 On ch=3 n=4 v=100
10391544 Off ch=3 n=4 v=0
10391555 Off ch=3 n=29 v=0
10391621 Off ch=3 n=42 v=0
10392221 On ch=3 n=56 v=100
10392492 On ch=3 n=37 v=100
10392523 Off ch=3 n=56 v=0
10392523 Off ch=3 n=37 v=0
10392555 On ch=3 n=37 v=100
10392576 On ch=3 n=24 v=100
10392786 Off ch=3 n=37 v=0
10392787 Off ch=3 n=24 v=0
10392858 On ch=3 n=28 v=100
10393167 Off ch=3 n=28 v=0
10393486 On ch=3 n=5 v=100
10394339 On ch=3 n=5 v=100
10394343 Off ch=3 n=5 v=0
10394834 Off ch=3 n=5 v=0
10395598 On ch=3 n=15 v=100
10395789 Off ch=3 n=15 v=0
10396095 On ch=3 n=2 v=100
10398483 On ch=3 n=35 v=100
10398560 Off ch=3 n=2 v=0
10398596 Off ch=3 n=35 v=0
10398798 On ch=3 n=10 v=100
10399466 Off ch=3 n=10 v=0
10399467 On ch=3 n=7 v=100
10399676 On ch=3 n=17 v=100
10399681 Off ch=3 n=7 v=0
10399736 On ch=3 n=11 v=100
10399772 Off ch=3 n=17 v=0
10399900 On ch=3 n=2 v=100
10400057 Off ch=3 n=2 v=0
10400058 Off ch=3 n=11 v=0
10400179 On ch=3 n=10 v=100
10401008 Off ch=3 n=10 v=0
10401103 On ch=3 n=6 v=100
10401752 Off ch=3 n=6 v=0
10401754 On ch=3 n=9 v=100
10402161 Off ch=3 n=9 v=0
10407449 On ch=3 n=4 v=100
10407497 Off ch=3 n=4 v=0
10407581 On ch=3 n=1 v=100
10408317 On ch=3 n=15 v=100
10408320 On ch=3 n=10 v=100
10408337 Off ch=3 n=1 v=0
10408666 On ch=3 n=4 v=100
10408668 Off ch=3 n=10 v=0
10408745 Off ch=3 n=15 v=0
10409564 Off ch=3 n=4 v=0
10409567 On ch=3 n=21 v=100
10409577 On ch=3 n=31 v=100
10409624 Off ch=3 n=21 v=0
10409688 Off ch=3 n=31 v=0
10410185 On ch=3 n=48 v=100
10410353 Off ch=3 n=48 v=0
10411243 On ch=3 n=44 v=100
10411514 Off ch=3 n=44 v=0
10417369 On ch=3 n=63 v=100
10418337 On ch=3 n=12 v=100
10418449 Off ch=3 n=63 v=0
10418479 On ch=3 n=14 v=100
10418531 Off ch=3 n=12 v=0
10418539 Off ch=3 n=14 v=0
10418686 On ch=3 n=18 v=100
10418817 On ch=3 n=14 v=100
10418824 Off ch=3 n=18 v=0
10419017 On ch=3 n=41 v=100
10419022 On ch=3 n=49 v=100
10419053 On ch=3 n=9 v=100
10419062 Off ch=3 n=14 v=0
10419155 Off ch=3 n=41 v=0
10419220 Off ch=3 n=49 v=0
10419624 Off ch=3 n=9 v=0
10419636 On ch=3 n=13 v=100
10420105 On ch=3 n=16 v=100
10420122 Off ch=3 n=13 v=0
10420152 Off ch=3 n=16 v=0
10420276 On ch=3 n=9 v=100
10420814 Off ch=3 n=9 v=0
10421972 On ch=3 n=10 v=100
10422670 Off ch=3 n=10 v=0
10422760 On ch=3 n=43 v=100
10422882 Off ch=3 n=43 v=0
10424310 On ch=3 n=37 v=100
10424364 On ch=3 n=25 v=100
10424398 On ch=3 n=29 v=100
10424489 Off ch=3 n=37 v=0
10424588 Off ch=3 n=25 v=0
10424658 Off ch=3 n=29 v=0
10425012 On ch=3 n=53 v=100
10425012 On ch=3 n=53 v=100
10425111 On ch=3 n=24 v=100
10425313 Off ch=3 n=24 v=0
10425355 On ch=3 n=31 v=100
10425377 Off ch=3 n=53 v=0
10425377 Off ch=3 n=53 v=0
10425448 Off ch=3 n=31 v=0
10425748 On ch=3 n=27 v=100
10425876 Off ch=3 n=27 v=0
10427915 On ch=3 n=19 v=100
10428384 Off ch=3 n=19 v=0
10428755 On ch=3 n=24 v=100
10428905 Off ch=3 n=24 v=0
10430139 On ch=3 n=16 v=100
10430563 On ch=3 n=27 v=100
10430564 Off ch=3 n=16 v=0
10430614 Off ch=3 n=27 v=0
10431117 On ch=3 n=20 v=100
10431119 On ch=3 n=10 v=100
10431397 Off ch=3 n=10 v=0
10431451 Off ch=3 n=20 v=0
10431939 On ch=3 n=16 v=100
10431970 Off ch=3 n=16 v=0
10433763 On ch=3 n=5 v=100
10435322 Off ch=3 n=5 v=0
10435387 On ch=3 n=0 v=100
10435460 On ch=3 n=78 v=100
10435476 On ch=3 n=41 v=100
10435491 Off ch=3 n=0 v=0
10435646 Off ch=3 n=78 v=0
10435646 Off ch=3 n=41 v=0
10435675 On ch=3 n=41 v=100
10435675 On ch=3 n=78 v=100
10435737 Off ch=3 n=41 v=0
10435761 Off ch=3 n=78 v=0
10435857 On ch=3 n=19 v=100
10435878 On ch=3 n=23 v=100
10435878 On ch=3 n=23 v=100
10435911 On ch=3 n=14 v=100
10436275 Off ch=3 n=14 v=0
10436282 Off ch=3 n=19 v=0
10436332 Off ch=3 n=23 v=0
10436332 Off ch=3 n=23 v=0
10436956 On ch=3 n=12 v=100
10437414 Off ch=3 n=12 v=0
10437474 On ch=3 n=12 v=100
10437643 Off ch=3 n=12 v=0
10437844 On ch=3 n=10 v=100
10437970 On ch=3 n=5 v=100
10437974 Off ch=3 n=10 v=0
10438537 Off ch=3 n=5 v=0
10438541 On ch=3 n=11 v=100
10438569 Off ch=3 n=11 v=0
10440114 On ch=3 n=11 v=100
10440359 Off ch=3 n=11 v=0
10440366 On ch=3 n=4 v=100
10440698 On ch=3 n=43 v=100
10440700 Off ch=3 n=4 v=0
10440705 On ch=3 n=11 v=100
10440760 Off ch=3 n=43 v=0
10441222 On ch=3 n=7 v=100
10441223 Off ch=3 n=11 v=0
10441609 Off ch=3 n=7 v=0
10441612 On ch=3 n=9 v=100
10441665 On ch=3 n=6 v=100
10441668 Off ch=3 n=9 v=0
10442083 Off ch=3 n=6 v=0
10442093 On ch=3 n=15 v=100
10442925 Off ch=3 n=15 v=0
10443507 On ch=3 n=36 v=100
10443803 Off ch=3 n=36 v=0
10444406 On ch=3 n=21 v=100
10444560 Off ch=3 n=21 v=0
10444896 On ch=3 n=11 v=100
10446064 On ch=3 n=38 v=100
10446076 Off ch=3 n=11 v=0
10446079 On ch=3 n=2 v=100
10446176 Off ch=3 n=38 v=0
10448544 Off ch=3 n=2 v=0
10448548 On ch=3 n=8 v=100
10449734 Off ch=3 n=8 v=0
10449738 On ch=3 n=29 v=100
10449894 Off ch=3 n=29 v=0
10450021 On ch=3 n=55 v=100
10450255 Off ch=3 n=55 v=0
10451432 On ch=3 n=2 v=100
10453241 Off ch=3 n=2 v=0
10453242 On ch=3 n=1 v=100
10453544 Off ch=3 n=1 v=0
10473790 On ch=3 n=46 v=100
10474151 Off ch=3 n=46 v=0
10476489 On ch=3 n=45 v=100
10476850 Off ch=3 n=45 v=0
10481001 On ch=3 n=48 v=100
10481361 Off ch=3 n=48 v=0
10482377 On ch=3 n=3 v=100
10483170 On ch=3 n=39 v=100
10483312 On ch=3 n=18 v=100
10483318 Off ch=3 n=3 v=0
10483337 On ch=3 n=29 v=100
10483411 On ch=3 n=3 v=100
10483423 Off ch=3 n=39 v=0
10483423 Off ch=3 n=18 v=0
10483456 Off ch=3 n=29 v=0
10483579 On ch=3 n=42 v=100
10483687 Off ch=3 n=3 v=0
10483730 Off ch=3 n=42 v=0
10486313 On ch=3 n=6 v=100
10486400 Off ch=3 n=6 v=0
10486406 On ch=3 n=4 v=100
10487167 On ch=3 n=4 v=100
10487167 Off ch=3 n=4 v=0
10489259 Off ch=3 n=4 v=0
10489300 On ch=3 n=6 v=100
10489614 Off ch=3 n=6 v=0
10490581 On ch=3 n=17 v=100
10490656 Off ch=3 n=17 v=0
10490706 On ch=3 n=10 v=100
10490853 On ch=3 n=3 v=100
10490853 Off ch=3 n=10 v=0
10491156 Off ch=3 n=3 v=0
10491759 On ch=3 n=6 v=100
10492258 Off ch=3 n=6 v=0
10492259 On ch=3 n=9 v=100
10492852 Off ch=3 n=9 v=0
10492866 On ch=3 n=16 v=100
10492913 Off ch=3 n=16 v=0
10493053 On ch=3 n=27 v=100
10493127 Off ch=3 n=27 v=0
10493209 On ch=3 n=14 v=100
10493674 On ch=3 n=5 v=100
10493677 Off ch=3 n=14 v=0
10493952 Off ch=3 n=5 v=0
10493954 On ch=3 n=12 v=100
10494072 Off ch=3 n=12 v=0
10494208 On ch=3 n=35 v=100
10494266 On ch=3 n=17 v=100
10494309 On ch=3 n=6 v=100
10494350 Off ch=3 n=35 v=0
10494601 Off ch=3 n=17 v=0
10494605 Off ch=3 n=6 v=0
10495906 On ch=3 n=9 v=100
10495936 On ch=3 n=18 v=100
10496311 Off ch=3 n=9 v=0
10496458 Off ch=3 n=18 v=0
10496990 On ch=3 n=30 v=100
10497085 On ch=3 n=9 v=100
10497360 Off ch=3 n=30 v=0
10497360 Off ch=3 n=9 v=0
10497385 On ch=3 n=35 v=100
10497386 On ch=3 n=15 v=100
10497829 Off ch=3 n=15 v=0
10498172 Off ch=3 n=35 v=0
10498491 On ch=3 n=24 v=100
10498509 On ch=3 n=22 v=100
10498615 Off ch=3 n=24 v=0
10498616 Off ch=3 n=22 v=0
10499649 On ch=3 n=5 v=100
10500186 On ch=3 n=10 v=100
10500186 Off ch=3 n=5 v=0
10500549 On ch=3 n=8 v=100
10500568 Off ch=3 n=10 v=0
10500768 Off ch=3 n=8 v=0
10501775 On ch=3 n=2 v=100
10502903 Off ch=3 n=2 v=0
10503780 On ch=3 n=3 v=100
10503867 Off ch=3 n=3 v=0
10503993 On ch=3 n=21 v=100
10504057 Off ch=3 n=21 v=0
10504069 On ch=3 n=8 v=100
10504325 Off ch=3 n=8 v=0
10504365 On ch=3 n=22 v=100
10504450 Off ch=3 n=22 v=0
10504614 On ch=3 n=2 v=100
10505286 Off ch=3 n=2 v=0
10505310 On ch=3 n=7 v=100
10505596 On ch=3 n=6 v=100
10505596 Off ch=3 n=7 v=0
10505774 Off ch=3 n=6 v=0
10505893 On ch=3 n=26 v=100
10505936 Off ch=3 n=26 v=0
10506225 On ch=3 n=23 v=100
10506320 Off ch=3 n=23 v=0
10507093 On ch=3 n=8 v=100
10507160 Off ch=3 n=8 v=0
10509303 On ch=3 n=5 v=100
10509406 Off ch=3 n=5 v=0
10509408 On ch=3 n=13 v=100
10509811 On ch=3 n=32 v=100
10509826 Off ch=3 n=13 v=0
10509882 Off ch=3 n=32 v=0
10510179 On ch=3 n=25 v=100
10511927 Off ch=3 n=25 v=0
10512372 On ch=3 n=45 v=100
10512712 Off ch=3 n=45 v=0
10519158 On ch=3 n=9 v=100
10519247 Off ch=3 n=9 v=0
10520496 On ch=3 n=21 v=100
10520831 Off ch=3 n=21 v=0
10522265 On ch=3 n=27 v=100
10522391 Off ch=3 n=27 v=0
10524530 On ch=3 n=7 v=100
10524844 On ch=3 n=1 v=100
10524844 Off ch=3 n=7 v=0
10526368 Off ch=3 n=1 v=0
10528163 On ch=3 n=12 v=100
10528432 On ch=3 n=20 v=100
10528462 Off ch=3 n=12 v=0
10528598 Off ch=3 n=20 v=0
10529023 On ch=3 n=13 v=100
10530351 Off ch=3 n=13 v=0
10530367 On ch=3 n=20 v=100
10530452 Off ch=3 n=20 v=0
10530595 On ch=3 n=24 v=100
10530662 Off ch=3 n=24 v=0
10530724 On ch=3 n=53 v=100
10530735 On ch=3 n=8 v=100
10530806 Off ch=3 n=53 v=0
10531198 On ch=3 n=26 v=100
10531345 Off ch=3 n=8 v=0
10531351 On ch=3 n=10 v=100
10531363 Off ch=3 n=26 v=0
10531427 Off ch=3 n=10 v=0
10533437 On ch=3 n=20 v=100
10533870 Off ch=3 n=20 v=0
10538095 On ch=3 n=19 v=100
10538528 Off ch=3 n=19 v=0
10539539 On ch=3 n=11 v=100
10539884 Off ch=3 n=11 v=0
10539966 On ch=3 n=7 v=100
10540339 Off ch=3 n=7 v=0
10540340 On ch=3 n=6 v=100
10542245 Off ch=3 n=6 v=0
10542246 On ch=3 n=4 v=100
10543054 On ch=3 n=7 v=100
10543054 Off ch=3 n=4 v=0
10543302 Off ch=3 n=7 v=0
10544299 On ch=3 n=18 v=100
10544387 On ch=3 n=10 v=100
10544402 On ch=3 n=16 v=100
10544402 On ch=3 n=18 v=100
10544762 Off ch=3 n=18 v=0
10544773 Off ch=3 n=10 v=0
10544861 Off ch=3 n=16 v=0
10544992 Off ch=3 n=18 v=0
10545166 On ch=3 n=55 v=100
10545174 On ch=3 n=25 v=100
10545249 Off ch=3 n=25 v=0
10545308 Off ch=3 n=55 v=0
10545505 On ch=3 n=4 v=100
10547092 On ch=3 n=45 v=100
10548716 Off ch=3 n=4 v=0
10548717 Off ch=3 n=45 v=0
10548823 On ch=3 n=2 v=100
10551043 Off ch=3 n=2 v=0
10551109 On ch=3 n=2 v=100
10552184 Off ch=3 n=2 v=0
10552864 On ch=3 n=15 v=100
10552930 On ch=3 n=19 v=100
10553020 Off ch=3 n=15 v=0
10553066 Off ch=3 n=19 v=0
10553339 On ch=3 n=5 v=100
10553584 Off ch=3 n=5 v=0
10555274 On ch=3 n=28 v=100
10555641 On ch=3 n=22 v=100
10555652 Off ch=3 n=28 v=0
10555665 On ch=3 n=5 v=100
10555845 Off ch=3 n=22 v=0
10556475 On ch=3 n=35 v=100
10556609 Off ch=3 n=5 v=0
10556615 On ch=3 n=11 v=100
10556648 Off ch=3 n=35 v=0
10556669 Off ch=3 n=11 v=0
10556692 On ch=3 n=6 v=100
10557485 Off ch=3 n=6 v=0
10557486 On ch=3 n=8 v=100
10557710 On ch=3 n=3 v=100
10557724 Off ch=3 n=8 v=0
10558776 Off ch=3 n=3 v=0
10559488 On ch=3 n=8 v=100
10560767 Off ch=3 n=8 v=0
10561039 On ch=3 n=18 v=100
10561101 On ch=3 n=13 v=100
10561179 Off ch=3 n=18 v=0
10561241 Off ch=3 n=13 v=0
10562145 On ch=3 n=11 v=100
10562629 Off ch=3 n=11 v=0
10562631 On ch=3 n=0 v=100
10562661 Off ch=3 n=0 v=0
10562728 On ch=3 n=5 v=100
10563016 On ch=3 n=11 v=100
10563023 Off ch=3 n=5 v=0
10563042 Off ch=3 n=11 v=0
10563139 On ch=3 n=5 v=100
10563195 Off ch=3 n=5 v=0
10564054 On ch=3 n=66 v=100
10564054 On ch=3 n=66 v=100
10564149 Off ch=3 n=66 v=0
10564149 Off ch=3 n=66 v=0
10566544 On ch=3 n=10 v=100
10566853 Off ch=3 n=10 v=0
10566857 On ch=3 n=13 v=100
10567127 On ch=3 n=29 v=100
10567451 Off ch=3 n=13 v=0
10567452 On ch=3 n=8 v=100
10567507 Off ch=3 n=29 v=0
10567612 Off ch=3 n=8 v=0
10569356 On ch=3 n=10 v=100
10569801 Off ch=3 n=10 v=0
10576121 On ch=3 n=42 v=100
10576139 On ch=3 n=5 v=100
10576196 On ch=3 n=9 v=100
10576216 Off ch=3 n=42 v=0
10576216 Off ch=3 n=5 v=0
10576640 Off ch=3 n=9 v=0
10576645 On ch=3 n=6 v=100
10576897 Off ch=3 n=6 v=0
10585441 On ch=3 n=6 v=100
10585573 Off ch=3 n=6 v=0
10586234 On ch=3 n=18 v=100
10586575 Off ch=3 n=18 v=0
10588927 On ch=3 n=17 v=100
10589056 Off ch=3 n=17 v=0
10589210 On ch=3 n=12 v=100
10589236 On ch=3 n=19 v=100
10589343 Off ch=3 n=12 v=0
10589360 Off ch=3 n=19 v=0
10589489 On ch=3 n=18 v=100
10589499 On ch=3 n=95 v=100
10589678 Off ch=3 n=18 v=0
10589753 Off ch=3 n=95 v=0
10589935 On ch=3 n=3 v=100
10590848 Off ch=3 n=3 v=0
10591456 On ch=3 n=32 v=100
10591538 Off ch=3 n=32 v=0
10591561 On ch=3 n=50 v=100
10591641 Off ch=3 n=50 v=0
10591684 On ch=3 n=17 v=100
10591684 On ch=3 n=50 v=100
10591703 Off ch=3 n=17 v=0
10591716 On ch=3 n=5 v=100
10591772 Off ch=3 n=50 v=0
10592028 On ch=3 n=16 v=100
10592030 Off ch=3 n=5 v=0
10592281 On ch=3 n=11 v=100
10592286 Off ch=3 n=16 v=0
10592662 On ch=3 n=14 v=100
10592665 Off ch=3 n=11 v=0
10592749 Off ch=3 n=14 v=0
10592942 On ch=3 n=11 v=100
10593216 Off ch=3 n=11 v=0
10594607 On ch=3 n=41 v=100
10594693 Off ch=3 n=41 v=0
10595783 On ch=3 n=19 v=100
10595792 On ch=3 n=35 v=100
10595844 Off ch=3 n=19 v=0
10595856 Off ch=3 n=35 v=0
10596199 On ch=3 n=17 v=100
10596251 Off ch=3 n=17 v=0
10596261 On ch=3 n=20 v=100
10596340 Off ch=3 n=20 v=0
10596594 On ch=3 n=4 v=100
10597131 Off ch=3 n=4 v=0
10597988 On ch=3 n=16 v=100
10598083 Off ch=3 n=16 v=0
10598205 On ch=3 n=37 v=100
10598229 On ch=3 n=12 v=100
10598306 Off ch=3 n=37 v=0
10598326 Off ch=3 n=12 v=0
10598327 On ch=3 n=6 v=100
10598617 On ch=3 n=7 v=100
10598623 Off ch=3 n=6 v=0
10600010 Off ch=3 n=7 v=0
10600011 On ch=3 n=8 v=100
10600169 Off ch=3 n=8 v=0
10600173 On ch=3 n=8 v=100
10600173 On ch=3 n=14 v=100
10600236 On ch=3 n=16 v=100
10600238 Off ch=3 n=8 v=0
10600254 Off ch=3 n=14 v=0
10600428 On ch=3 n=3 v=100
10600429 Off ch=3 n=16 v=0
10600637 On ch=3 n=6 v=100
10600638 Off ch=3 n=3 v=0
10601183 Off ch=3 n=6 v=0
10601185 On ch=3 n=11 v=100
10601459 Off ch=3 n=11 v=0
10601807 On ch=3 n=13 v=100
10601879 On ch=3 n=25 v=100
10601891 Off ch=3 n=13 v=0
10601897 On ch=3 n=8 v=100
10602043 Off ch=3 n=25 v=0
10602596 Off ch=3 n=8 v=0
10602652 On ch=3 n=25 v=100
10602733 Off ch=3 n=25 v=0
10602888 On ch=3 n=6 v=100
10603601 Off ch=3 n=6 v=0
10603604 On ch=3 n=7 v=100
10604198 Off ch=3 n=7 v=0
10604203 On ch=3 n=19 v=100
10604294 On ch=3 n=17 v=100
10604294 On ch=3 n=17 v=100
10604307 Off ch=3 n=19 v=0
10604310 On ch=3 n=9 v=100
10604777 Off ch=3 n=9 v=0
10604779 On ch=3 n=15 v=100
10604829 Off ch=3 n=17 v=0
10604829 Off ch=3 n=17 v=0
10604877 On ch=3 n=10 v=100
10604892 Off ch=3 n=15 v=0
10604946 On ch=3 n=14 v=100
10604998 Off ch=3 n=10 v=0
10605009 On ch=3 n=11 v=100
10605474 Off ch=3 n=14 v=0
10605649 On ch=3 n=9 v=100
10605664 Off ch=3 n=11 v=0
10605765 Off ch=3 n=9 v=0
10605767 On ch=3 n=9 v=100
10606044 On ch=3 n=8 v=100
10606076 Off ch=3 n=9 v=0
10606130 Off ch=3 n=8 v=0
10606744 On ch=3 n=20 v=100
10606828 On ch=3 n=44 v=100
10606892 On ch=3 n=30 v=100
10606901 Off ch=3 n=20 v=0
10606903 On ch=3 n=36 v=100
10606903 On ch=3 n=36 v=100
10606921 On ch=3 n=22 v=100
10607039 Off ch=3 n=22 v=0
10607105 Off ch=3 n=44 v=0
10607136 Off ch=3 n=30 v=0
10607167 Off ch=3 n=36 v=0
10607167 Off ch=3 n=36 v=0
10608363 On ch=3 n=24 v=100
10608374 On ch=3 n=18 v=100
10608419 Off ch=3 n=24 v=0
10608441 Off ch=3 n=18 v=0
10608578 On ch=3 n=7 v=100
10608903 Off ch=3 n=7 v=0
10609909 On ch=3 n=13 v=100
10610076 Off ch=3 n=13 v=0
10610381 On ch=3 n=8 v=100
10610621 Off ch=3 n=8 v=0
10610692 On ch=3 n=15 v=100
10610760 On ch=3 n=28 v=100
10610864 On ch=3 n=2 v=100
10610864 Off ch=3 n=15 v=0
10610929 Off ch=3 n=28 v=0
10613263 On ch=3 n=35 v=100
10613342 Off ch=3 n=2 v=0
10613392 Off ch=3 n=35 v=0
10619279 On ch=3 n=38 v=100
10619362 Off ch=3 n=38 v=0
10623274 On ch=3 n=4 v=100
10623937 Off ch=3 n=4 v=0
10624063 On ch=3 n=19 v=100
10624097 On ch=3 n=13 v=100
10624107 Off ch=3 n=19 v=0
10624743 Off ch=3 n=13 v=0
10624745 On ch=3 n=25 v=100
10624871 Off ch=3 n=25 v=0
10625736 On ch=3 n=8 v=100
10626703 On ch=3 n=14 v=100
10626713 Off ch=3 n=8 v=0
10626754 Off ch=3 n=14 v=0
10630617 On ch=3 n=38 v=100
10630700 Off ch=3 n=38 v=0
10632970 On ch=3 n=2 v=100
10633637 On ch=3 n=3 v=100
10633637 Off ch=3 n=2 v=0
10634005 On ch=3 n=36 v=100
10634086 Off ch=3 n=3 v=0
10634118 Off ch=3 n=36 v=0
10635181 On ch=3 n=7 v=100
10635325 Off ch=3 n=7 v=0
10635329 On ch=3 n=4 v=100
10637329 Off ch=3 n=4 v=0
10637405 On ch=3 n=4 v=100
10637789 On ch=3 n=27 v=100
10637839 On ch=3 n=11 v=100
10637846 Off ch=3 n=4 v=0
10637910 On ch=3 n=30 v=100
10637921 On ch=3 n=8 v=100
10637922 On ch=3 n=24 v=100
10637922 Off ch=3 n=27 v=0
10637923 Off ch=3 n=11 v=0
10637965 Off ch=3 n=30 v=0
10638202 Off ch=3 n=8 v=0
10638312 On ch=3 n=42 v=100
10638322 Off ch=3 n=24 v=0
10638359 On ch=3 n=35 v=100
10638368 On ch=3 n=15 v=100
10638403 Off ch=3 n=42 v=0
10638579 On ch=3 n=43 v=100
10638623 Off ch=3 n=15 v=0
10638649 Off ch=3 n=35 v=0
10638763 Off ch=3 n=43 v=0
10639164 On ch=3 n=34 v=100
10639914 On ch=3 n=34 v=100
10639916 Off ch=3 n=34 v=0
10639951 On ch=3 n=34 v=100
10639951 On ch=3 n=34 v=100
10639962 On ch=3 n=15 v=100
10640163 Off ch=3 n=15 v=0
10640164 Off ch=3 n=34 v=0
10640180 Off ch=3 n=34 v=0
10640180 Off ch=3 n=34 v=0
10641846 On ch=3 n=13 v=100
10641880 On ch=3 n=11 v=100
10642012 Off ch=3 n=13 v=0
10642012 Off ch=3 n=11 v=0
10642324 On ch=3 n=9 v=100
10642434 On ch=3 n=13 v=100
10642455 Off ch=3 n=9 v=0
10642455 Off ch=3 n=13 v=0
10642581 On ch=3 n=9 v=100
10642581 On ch=3 n=13 v=100
10642610 Off ch=3 n=9 v=0
10642696 On ch=3 n=17 v=100
10642751 On ch=3 n=10 v=100
10642751 Off ch=3 n=13 v=0
10642757 On ch=3 n=18 v=100
10642757 On ch=3 n=18 v=100
10642993 On ch=3 n=47 v=100
10642993 On ch=3 n=47 v=100
10643142 Off ch=3 n=17 v=0
10643157 Off ch=3 n=10 v=0
10643230 Off ch=3 n=18 v=0
10643230 Off ch=3 n=18 v=0
10643246 On ch=3 n=15 v=100
10643462 On ch=3 n=43 v=100
10643483 Off ch=3 n=47 v=0
10643483 Off ch=3 n=47 v=0
10643515 On ch=3 n=23 v=100
10643613 Off ch=3 n=15 v=0
10643734 Off ch=3 n=43 v=0
10643788 Off ch=3 n=23 v=0
10643831 On ch=3 n=23 v=100
10643887 Off ch=3 n=23 v=0
10644209 On ch=3 n=15 v=100
10644745 Off ch=3 n=15 v=0
10644763 On ch=3 n=5 v=100
10645282 Off ch=3 n=5 v=0
10645966 On ch=3 n=10 v=100
10647128 Off ch=3 n=10 v=0
10647130 On ch=3 n=5 v=100
10648688 Off ch=3 n=5 v=0
10648956 On ch=3 n=3 v=100
10649351 On ch=3 n=10 v=100
10649351 Off ch=3 n=3 v=0
10649648 Off ch=3 n=10 v=0
10649756 On ch=3 n=14 v=100
10649793 Off ch=3 n=14 v=0
10649794 On ch=3 n=8 v=100
10650838 Off ch=3 n=8 v=0
10651691 On ch=3 n=20 v=100
10651891 Off ch=3 n=20 v=0
10652960 On ch=3 n=38 v=100
10652961 On ch=3 n=43 v=100
10652964 On ch=3 n=9 v=100
10653094 Off ch=3 n=9 v=0
10653121 Off ch=3 n=43 v=0
10653181 Off ch=3 n=38 v=0
10653219 On ch=3 n=10 v=100
10653432 Off ch=3 n=10 v=0
10653452 On ch=3 n=20 v=100
10653549 Off ch=3 n=20 v=0
10655932 On ch=3 n=29 v=100
10656080 Off ch=3 n=29 v=0
10657323 On ch=3 n=14 v=100
10657494 Off ch=3 n=14 v=0
10657498 On ch=3 n=0 v=100
10658556 Off ch=3 n=0 v=0
10658562 On ch=3 n=15 v=100
10658784 Off ch=3 n=15 v=0
10659901 On ch=3 n=6 v=100
10660668 Off ch=3 n=6 v=0
10660725 On ch=3 n=1 v=100
10661304 On ch=3 n=1 v=100
10661304 Off ch=3 n=1 v=0
10661588 Off ch=3 n=1 v=0
10661632 On ch=3 n=5 v=100
10663242 Off ch=3 n=5 v=0
10669309 On ch=3 n=11 v=100
10669814 On ch=3 n=14 v=100
10669820 Off ch=3 n=11 v=0
10669914 Off ch=3 n=14 v=0
10669921 On ch=3 n=15 v=100
10670752 On ch=3 n=11 v=100
10671002 Off ch=3 n=15 v=0
10671240 Off ch=3 n=11 v=0
10671412 On ch=3 n=35 v=100
10671442 On ch=3 n=30 v=100
10671456 On ch=3 n=36 v=100
10671477 On ch=3 n=16 v=100
10671539 Off ch=3 n=35 v=0
10671539 Off ch=3 n=36 v=0
10671559 Off ch=3 n=30 v=0
10671559 Off ch=3 n=16 v=0
10673421 On ch=3 n=42 v=100
10673421 On ch=3 n=42 v=100
10673686 On ch=3 n=19 v=100
10674060 Off ch=3 n=19 v=0
10674157 Off ch=3 n=42 v=0
10674157 Off ch=3 n=42 v=0
10680160 On ch=3 n=35 v=100
10680183 Off ch=3 n=35 v=0
10680260 On ch=3 n=35 v=100
10680523 On ch=3 n=33 v=100
10680691 Off ch=3 n=35 v=0
10680960 Off ch=3 n=33 v=0
10681088 On ch=3 n=2 v=100
10682259 Off ch=3 n=2 v=0
10682302 On ch=3 n=2 v=100
10683480 On ch=3 n=44 v=100
10683498 On ch=3 n=32 v=100
10683577 Off ch=3 n=2 v=0
10683592 Off ch=3 n=44 v=0
10683683 Off ch=3 n=32 v=0
10686026 On ch=3 n=6 v=100
10686026 On ch=3 n=21 v=100
10686108 Off ch=3 n=6 v=0
10686145 Off ch=3 n=21 v=0
10701169 On ch=3 n=24 v=100
10701298 Off ch=3 n=24 v=0
10702972 On ch=3 n=15 v=100
10703182 Off ch=3 n=15 v=0
10704726 On ch=3 n=39 v=100
10704726 On ch=3 n=39 v=100
10704729 On ch=3 n=4 v=100
10704729 On ch=3 n=4 v=100
10704786 On ch=3 n=49 v=100
10704883 On ch=3 n=26 v=100
10704883 On ch=3 n=26 v=100
10704892 Off ch=3 n=4 v=0
10704892 Off ch=3 n=4 v=0
10704943 Off ch=3 n=39 v=0
10704943 Off ch=3 n=39 v=0
10705205 On ch=3 n=5 v=100
10705205 On ch=3 n=5 v=100
10705305 Off ch=3 n=49 v=0
10705600 On ch=3 n=15 v=100
10705755 Off ch=3 n=26 v=0
10705755 Off ch=3 n=5 v=0
10705755 Off ch=3 n=26 v=0
10705755 Off ch=3 n=5 v=0
10705776 Off ch=3 n=15 v=0
10706202 On ch=3 n=6 v=100
10706384 Off ch=3 n=6 v=0
10707173 On ch=3 n=30 v=100
10707173 On ch=3 n=30 v=100
10707226 On ch=3 n=17 v=100
10707254 On ch=3 n=25 v=100
10707254 On ch=3 n=25 v=100
10707465 On ch=3 n=16 v=100
10707470 Off ch=3 n=30 v=0
10707470 Off ch=3 n=30 v=0
10707471 Off ch=3 n=17 v=0
10707507 Off ch=3 n=25 v=0
10707507 Off ch=3 n=25 v=0
10707564 Off ch=3 n=16 v=0
10707579 On ch=3 n=25 v=100
10707641 Off ch=3 n=25 v=0
10707699 On ch=3 n=10 v=100
10708341 Off ch=3 n=10 v=0
10708347 On ch=3 n=20 v=100
10708431 Off ch=3 n=20 v=0
10709076 On ch=3 n=24 v=100
10709119 Off ch=3 n=24 v=0
10712862 On ch=3 n=58 v=100
10712906 On ch=3 n=26 v=100
10713035 Off ch=3 n=58 v=0
10713051 On ch=3 n=17 v=100
10713213 On ch=3 n=20 v=100
10713565 Off ch=3 n=26 v=0
10713565 Off ch=3 n=17 v=0
10713633 On ch=3 n=5 v=100
10713791 Off ch=3 n=20 v=0
10714460 Off ch=3 n=5 v=0
10714465 On ch=3 n=10 v=100
10715084 Off ch=3 n=10 v=0
10715093 On ch=3 n=14 v=100
10715242 Off ch=3 n=14 v=0
10715306 On ch=3 n=14 v=100
10715697 On ch=3 n=12 v=100
10715708 Off ch=3 n=14 v=0
10715804 Off ch=3 n=12 v=0
10715855 On ch=3 n=23 v=100
10715977 Off ch=3 n=23 v=0
10717242 On ch=3 n=44 v=100
10717361 On ch=3 n=30 v=100
10717362 On ch=3 n=27 v=100
10717363 On ch=3 n=34 v=100
10717468 Off ch=3 n=27 v=0
10717483 On ch=3 n=25 v=100
10717507 Off ch=3 n=44 v=0
10717512 Off ch=3 n=30 v=0
10717564 Off ch=3 n=34 v=0
10717654 Off ch=3 n=25 v=0
10717705 On ch=3 n=29 v=100
10717755 Off ch=3 n=29 v=0
10717770 On ch=3 n=20 v=100
10717972 Off ch=3 n=20 v=0
10718442 On ch=3 n=13 v=100
10718547 On ch=3 n=14 v=100
10718597 Off ch=3 n=13 v=0
10718666 On ch=3 n=14 v=100
10718666 On ch=3 n=14 v=100
10718687 On ch=3 n=11 v=100
10718710 Off ch=3 n=14 v=0
10718720 On ch=3 n=26 v=100
10718934 On ch=3 n=29 v=100
10719063 On ch=3 n=13 v=100
10719102 Off ch=3 n=11 v=0
10719136 Off ch=3 n=14 v=0
10719136 Off ch=3 n=14 v=0
10719205 Off ch=3 n=26 v=0
10719275 Off ch=3 n=29 v=0
10719364 On ch=3 n=30 v=100
10719364 Off ch=3 n=13 v=0
10719472 Off ch=3 n=30 v=0
10719612 On ch=3 n=32 v=100
10719684 Off ch=3 n=32 v=0
10719693 On ch=3 n=12 v=100
10719830 On ch=3 n=11 v=100
10719831 Off ch=3 n=12 v=0
10720320 On ch=3 n=26 v=100
10720395 Off ch=3 n=11 v=0
10720415 On ch=3 n=18 v=100
10720427 Off ch=3 n=26 v=0
10720499 Off ch=3 n=18 v=0
10720716 On ch=3 n=8 v=100
10721840 Off ch=3 n=8 v=0
10722476 On ch=3 n=11 v=100
10722778 On ch=3 n=8 v=100
10722905 Off ch=3 n=11 v=0
10722922 Off ch=3 n=8 v=0
10722924 On ch=3 n=7 v=100
10723062 Off ch=3 n=7 v=0
10723141 On ch=3 n=7 v=100
10724710 Off ch=3 n=7 v=0
10725676 On ch=3 n=5 v=100
10725676 On ch=3 n=20 v=100
10725955 On ch=3 n=19 v=100
10725959 Off ch=3 n=5 v=0
10725994 Off ch=3 n=20 v=0
10726000 Off ch=3 n=19 v=0
10726988 On ch=3 n=49 v=100
10728414 Off ch=3 n=49 v=0
10729069 On ch=3 n=9 v=100
10729413 On ch=3 n=25 v=100
10729483 Off ch=3 n=9 v=0
10729527 Off ch=3 n=25 v=0
10729547 On ch=3 n=35 v=100
10729616 On ch=3 n=28 v=100
10729728 Off ch=3 n=35 v=0
10729750 Off ch=3 n=28 v=0
10730833 On ch=3 n=5 v=100
10731424 Off ch=3 n=5 v=0
10731427 On ch=3 n=7 v=100
10731810 Off ch=3 n=7 v=0
10731813 On ch=3 n=2 v=100
10732077 Off ch=3 n=2 v=0
10732197 On ch=3 n=5 v=100
10732242 Off ch=3 n=5 v=0
10736153 On ch=3 n=5 v=100
10736290 Off ch=3 n=5 v=0
10736340 On ch=3 n=15 v=100
10736598 Off ch=3 n=15 v=0
10736610 On ch=3 n=4 v=100
10737094 Off ch=3 n=4 v=0
10743224 On ch=3 n=17 v=100
10743245 On ch=3 n=10 v=100
10743254 Off ch=3 n=17 v=0
10743821 Off ch=3 n=10 v=0
10744591 On ch=3 n=39 v=100
10744623 On ch=3 n=6 v=100
10744766 Off ch=3 n=39 v=0
10744913 Off ch=3 n=6 v=0
10746694 On ch=3 n=5 v=100
10747016 Off ch=3 n=5 v=0
10747017 On ch=3 n=16 v=100
10747057 Off ch=3 n=16 v=0
10747658 On ch=3 n=7 v=100
10747813 Off ch=3 n=7 v=0
10753113 On ch=3 n=6 v=100
10753237 Off ch=3 n=6 v=0
10753785 On ch=3 n=7 v=100
10755500 Off ch=3 n=7 v=0
10755521 On ch=3 n=4 v=100
10755724 Off ch=3 n=4 v=0
10755726 On ch=3 n=8 v=100
10756515 On ch=3 n=45 v=100
10756603 On ch=3 n=3 v=100
10756605 Off ch=3 n=8 v=0
10756663 On ch=3 n=5 v=100
10756675 Off ch=3 n=45 v=0
10756682 Off ch=3 n=3 v=0
10756908 Off ch=3 n=5 v=0
10762176 On ch=3 n=2 v=100
10762507 On ch=3 n=11 v=100
10762612 Off ch=3 n=2 v=0
10762662 On ch=3 n=3 v=100
10762700 On ch=3 n=17 v=100
10762745 Off ch=3 n=11 v=0
10762755 Off ch=3 n=3 v=0
10762877 Off ch=3 n=17 v=0
10764192 On ch=3 n=4 v=100
10764499 On ch=3 n=33 v=100
10764638 Off ch=3 n=4 v=0
10764691 Off ch=3 n=33 v=0
10764985 On ch=3 n=3 v=100
10766040 On ch=3 n=59 v=100
10766222 Off ch=3 n=3 v=0
10766252 Off ch=3 n=59 v=0
10767264 On ch=3 n=2 v=100
10771191 Off ch=3 n=2 v=0
10774220 On ch=3 n=15 v=100
10774299 Off ch=3 n=15 v=0
10774309 On ch=3 n=10 v=100
10774509 On ch=3 n=18 v=100
10774509 Off ch=3 n=10 v=0
10774758 On ch=3 n=18 v=100
10774764 Off ch=3 n=18 v=0
10774800 Off ch=3 n=18 v=0
10775561 On ch=3 n=8 v=100
10775925 Off ch=3 n=8 v=0
10775975 On ch=3 n=8 v=100
10776556 On ch=3 n=17 v=100
10776572 Off ch=3 n=8 v=0
10776680 Off ch=3 n=17 v=0
10777296 On ch=3 n=18 v=100
10777456 Off ch=3 n=18 v=0
10777488 On ch=3 n=33 v=100
10777600 Off ch=3 n=33 v=0
10777673 On ch=3 n=15 v=100
10777840 On ch=3 n=13 v=100
10778917 Off ch=3 n=15 v=0
10778917 Off ch=3 n=13 v=0
10778939 On ch=3 n=6 v=100
10779401 Off ch=3 n=6 v=0
10784076 On ch=3 n=6 v=100
10786513 Off ch=3 n=6 v=0
10787345 On ch=3 n=14 v=100
10787373 On ch=3 n=29 v=100
10787412 On ch=3 n=33 v=100
10787462 Off ch=3 n=14 v=0
10787473 Off ch=3 n=29 v=0
10787495 Off ch=3 n=33 v=0
10788023 On ch=3 n=1 v=100
10789865 Off ch=3 n=1 v=0
10791073 On ch=3 n=10 v=100
10791648 On ch=3 n=12 v=100
10791650 Off ch=3 n=10 v=0
10791999 Off ch=3 n=12 v=0
10792003 On ch=3 n=21 v=100
10792109 Off ch=3 n=21 v=0
10792250 On ch=3 n=26 v=100
10792335 Off ch=3 n=26 v=0
10792396 On ch=3 n=11 v=100
10792599 On ch=3 n=39 v=100
10792746 Off ch=3 n=11 v=0
10792756 On ch=3 n=10 v=100
10792814 Off ch=3 n=39 v=0
10793105 Off ch=3 n=10 v=0
10793120 On ch=3 n=18 v=100
10793196 Off ch=3 n=18 v=0
10794751 On ch=3 n=14 v=100
10794797 Off ch=3 n=14 v=0
10795491 On ch=3 n=23 v=100
10795569 Off ch=3 n=23 v=0
10796220 On ch=3 n=9 v=100
10796573 On ch=3 n=11 v=100
10796656 Off ch=3 n=9 v=0
10796786 On ch=3 n=21 v=100
10796842 Off ch=3 n=11 v=0
10797107 On ch=3 n=5 v=100
10797107 Off ch=3 n=21 v=0
10798672 On ch=3 n=26 v=100
10798688 Off ch=3 n=5 v=0
10798689 On ch=3 n=38 v=100
10798787 Off ch=3 n=26 v=0
10798890 Off ch=3 n=38 v=0
10798900 On ch=3 n=9 v=100
10798952 Off ch=3 n=9 v=0
10798991 On ch=3 n=22 v=100
10799090 On ch=3 n=55 v=100
10799202 Off ch=3 n=22 v=0
10799274 On ch=3 n=25 v=100
10799278 On ch=3 n=29 v=100
10799368 Off ch=3 n=25 v=0
10799374 Off ch=3 n=55 v=0
10799401 Off ch=3 n=29 v=0
10800141 On ch=3 n=10 v=100
10800615 On ch=3 n=14 v=100
10800874 Off ch=3 n=10 v=0
10800938 Off ch=3 n=14 v=0
10800972 On ch=3 n=21 v=100
10801109 On ch=3 n=27 v=100
10801383 Off ch=3 n=21 v=0
10801566 On ch=3 n=14 v=100
10801660 Off ch=3 n=27 v=0
10801977 Off ch=3 n=14 v=0
10802053 On ch=3 n=14 v=100
10802161 Off ch=3 n=14 v=0
10802209 On ch=3 n=22 v=100
10802305 Off ch=3 n=22 v=0
10802443 On ch=3 n=22 v=100
10802490 On ch=3 n=14 v=100
10802500 Off ch=3 n=22 v=0
10802880 Off ch=3 n=14 v=0
10803445 On ch=3 n=40 v=100
10803445 On ch=3 n=40 v=100
10803528 On ch=3 n=16 v=100
10803529 On ch=3 n=13 v=100
10803944 Off ch=3 n=13 v=0
10804032 Off ch=3 n=16 v=0
10804051 On ch=3 n=8 v=100
10804368 Off ch=3 n=40 v=0
10804368 Off ch=3 n=40 v=0
10804452 Off ch=3 n=8 v=0
10804456 On ch=3 n=14 v=100
10804602 On ch=3 n=20 v=100
10804618 On ch=3 n=18 v=100
10804631 On ch=3 n=13 v=100
10804639 On ch=3 n=8 v=100
10804660 Off ch=3 n=14 v=0
10804698 On ch=3 n=7 v=100
10804702 Off ch=3 n=18 v=0
10804702 Off ch=3 n=13 v=0
10804704 Off ch=3 n=20 v=0
10804714 Off ch=3 n=8 v=0
10804890 On ch=3 n=7 v=100
10804891 Off ch=3 n=7 v=0
10805054 Off ch=3 n=7 v=0
10805107 On ch=3 n=6 v=100
10806474 Off ch=3 n=6 v=0
10806479 On ch=3 n=19 v=100
10806522 Off ch=3 n=19 v=0
10806686 On ch=3 n=6 v=100
10806840 Off ch=3 n=6 v=0
10806909 On ch=3 n=7 v=100
10807089 On ch=3 n=6 v=100
10807093 Off ch=3 n=7 v=0
10807428 Off ch=3 n=6 v=0
10807456 On ch=3 n=6 v=100
10808018 On ch=3 n=7 v=100
10808047 Off ch=3 n=6 v=0
10808108 On ch=3 n=19 v=100
10808146 Off ch=3 n=7 v=0
10808573 Off ch=3 n=19 v=0
10808663 On ch=3 n=10 v=100
10809291 Off ch=3 n=10 v=0
10810175 On ch=3 n=15 v=100
10810521 Off ch=3 n=15 v=0
10810531 On ch=3 n=25 v=100
10810550 On ch=3 n=33 v=100
10810643 On ch=3 n=15 v=100
10810670 Off ch=3 n=25 v=0
10810696 Off ch=3 n=33 v=0
10810710 Off ch=3 n=15 v=0
10820634 On ch=3 n=32 v=100
10820691 On ch=3 n=5 v=100
10820817 Off ch=3 n=32 v=0
10820823 Off ch=3 n=5 v=0
10821754 On ch=3 n=11 v=100
10822533 Off ch=3 n=11 v=0
10822535 On ch=3 n=8 v=100
10822766 On ch=3 n=8 v=100
10822767 Off ch=3 n=8 v=0
10823255 Off ch=3 n=8 v=0
10823423 On ch=3 n=62 v=100
10823424 On ch=3 n=42 v=100
10823552 Off ch=3 n=42 v=0
10823575 Off ch=3 n=62 v=0
10823604 On ch=3 n=17 v=100
10824009 Off ch=3 n=17 v=0
10824583 On ch=3 n=45 v=100
10824734 Off ch=3 n=45 v=0
10825293 On ch=3 n=8 v=100
10825676 Off ch=3 n=8 v=0
10825989 On ch=3 n=21 v=100
10826030 Off ch=3 n=21 v=0
10826252 On ch=3 n=55 v=100
10826328 On ch=3 n=18 v=100
10826375 Off ch=3 n=55 v=0
10826375 Off ch=3 n=18 v=0
10826789 On ch=3 n=7 v=100
10827860 Off ch=3 n=7 v=0
10827884 On ch=3 n=27 v=100
10827948 Off ch=3 n=27 v=0
10830131 On ch=3 n=16 v=100
10830307 Off ch=3 n=16 v=0
10830335 On ch=3 n=36 v=100
10830430 Off ch=3 n=36 v=0
10833722 On ch=3 n=20 v=100
10833957 Off ch=3 n=20 v=0
10833958 On ch=3 n=5 v=100
10834304 Off ch=3 n=5 v=0
10834311 On ch=3 n=7 v=100
10834535 On ch=3 n=45 v=100
10834715 On ch=3 n=24 v=100
10834762 Off ch=3 n=7 v=0
10834808 On ch=3 n=10 v=100
10834967 Off ch=3 n=45 v=0
10834967 Off ch=3 n=24 v=0
10834967 Off ch=3 n=10 v=0
10834969 On ch=3 n=7 v=100
10835546 Off ch=3 n=7 v=0
10836008 On ch=3 n=8 v=100
10837077 Off ch=3 n=8 v=0
10837135 On ch=3 n=10 v=100
10837135 On ch=3 n=8 v=100
10837173 Off ch=3 n=8 v=0
10837523 Off ch=3 n=10 v=0
10839361 On ch=3 n=30 v=100
10839361 On ch=3 n=30 v=100
10839931 Off ch=3 n=30 v=0
10839931 Off ch=3 n=30 v=0
10851874 On ch=3 n=37 v=100
10851938 Off ch=3 n=37 v=0
10863150 On ch=3 n=4 v=100
10863386 Off ch=3 n=4 v=0
10868118 On ch=3 n=13 v=100
10869069 Off ch=3 n=13 v=0
10869134 On ch=3 n=13 v=100
10869446 Off ch=3 n=13 v=0
10874309 On ch=3 n=22 v=100
10875022 On ch=3 n=6 v=100
10875025 Off ch=3 n=22 v=0
10875304 Off ch=3 n=6 v=0
10875305 On ch=3 n=14 v=100
10875769 Off ch=3 n=14 v=0
10876110 On ch=3 n=19 v=100
10876257 Off ch=3 n=19 v=0
10876258 On ch=3 n=25 v=100
10876328 Off ch=3 n=25 v=0
10876704 On ch=3 n=32 v=100
10876741 On ch=3 n=32 v=100
10876911 Off ch=3 n=32 v=0
10876912 Off ch=3 n=32 v=0
10878205 On ch=3 n=40 v=100
10878213 On ch=3 n=44 v=100
10878278 Off ch=3 n=40 v=0
10878477 Off ch=3 n=44 v=0
10878651 On ch=3 n=14 v=100
10878901 Off ch=3 n=14 v=0
10878925 On ch=3 n=25 v=100
10879002 Off ch=3 n=25 v=0
10879161 On ch=3 n=5 v=100
10879225 Off ch=3 n=5 v=0
10879262 On ch=3 n=52 v=100
10879557 Off ch=3 n=52 v=0
10902484 On ch=3 n=9 v=100
10902814 Off ch=3 n=9 v=0
10903056 On ch=3 n=3 v=100
10903373 Off ch=3 n=3 v=0
10905177 On ch=3 n=11 v=100
10905255 Off ch=3 n=11 v=0
10906100 On ch=3 n=7 v=100
10906859 Off ch=3 n=7 v=0
10906861 On ch=3 n=7 v=100
10907088 On ch=3 n=49 v=100
10907119 On ch=3 n=24 v=100
10907120 Off ch=3 n=7 v=0
10907213 On ch=3 n=56 v=100
10907254 Off ch=3 n=49 v=0
10907254 Off ch=3 n=24 v=0
10907254 Off ch=3 n=56 v=0
10907316 On ch=3 n=37 v=100
10907316 On ch=3 n=56 v=100
10907316 On ch=3 n=24 v=100
10907370 On ch=3 n=5 v=100
10907397 Off ch=3 n=24 v=0
10907419 Off ch=3 n=37 v=0
10907460 Off ch=3 n=56 v=0
10907992 On ch=3 n=5 v=100
10908011 Off ch=3 n=5 v=0
10909691 On ch=3 n=32 v=100
10909730 On ch=3 n=3 v=100
10909730 Off ch=3 n=5 v=0
10909766 Off ch=3 n=32 v=0
10910883 On ch=3 n=52 v=100
10910972 Off ch=3 n=3 v=0
10910972 Off ch=3 n=52 v=0
10911034 On ch=3 n=2 v=100
10911133 Off ch=3 n=2 v=0
10917622 On ch=3 n=20 v=100
10917656 On ch=3 n=15 v=100
10917761 Off ch=3 n=20 v=0
10917762 On ch=3 n=6 v=100
10917851 Off ch=3 n=15 v=0
10918068 On ch=3 n=22 v=100
10918110 Off ch=3 n=6 v=0
10918134 On ch=3 n=39 v=100
10918456 Off ch=3 n=22 v=0
10918472 Off ch=3 n=39 v=0
10918504 On ch=3 n=39 v=100
10918634 Off ch=3 n=39 v=0
10919004 On ch=3 n=45 v=100
10919185 On ch=3 n=43 v=100
10919204 On ch=3 n=43 v=100
10919204 On ch=3 n=43 v=100
10919292 Off ch=3 n=45 v=0
10919342 On ch=3 n=26 v=100
10919359 Off ch=3 n=43 v=0
10919647 Off ch=3 n=26 v=0
10919668 Off ch=3 n=43 v=0
10919668 Off ch=3 n=43 v=0
10919729 On ch=3 n=43 v=100
10919834 Off ch=3 n=43 v=0
10921370 On ch=3 n=15 v=100
10921693 On ch=3 n=12 v=100
10921702 Off ch=3 n=15 v=0
10921976 On ch=3 n=21 v=100
10922166 On ch=3 n=10 v=100
10922179 Off ch=3 n=12 v=0
10922221 Off ch=3 n=21 v=0
10922664 Off ch=3 n=10 v=0
10922675 On ch=3 n=8 v=100
10923150 Off ch=3 n=8 v=0
10923159 On ch=3 n=9 v=100
10923228 Off ch=3 n=9 v=0
10923527 On ch=3 n=14 v=100
10924391 Off ch=3 n=14 v=0
10924437 On ch=3 n=11 v=100
10924691 Off ch=3 n=11 v=0
10924700 On ch=3 n=11 v=100
10925379 Off ch=3 n=11 v=0
10925459 On ch=3 n=33 v=100
10925514 On ch=3 n=16 v=100
10925624 Off ch=3 n=33 v=0
10925687 Off ch=3 n=16 v=0
10926160 On ch=3 n=6 v=100
10926418 Off ch=3 n=6 v=0
10926422 On ch=3 n=2 v=100
10928890 On ch=3 n=18 v=100
10928902 Off ch=3 n=2 v=0
10928905 On ch=3 n=18 v=100
10929021 Off ch=3 n=18 v=0
10929511 Off ch=3 n=18 v=0
10929556 On ch=3 n=11 v=100
10929810 Off ch=3 n=11 v=0
10929819 On ch=3 n=11 v=100
10930498 Off ch=3 n=11 v=0
10930578 On ch=3 n=33 v=100
10930633 On ch=3 n=16 v=100
10930743 Off ch=3 n=33 v=0
10930805 Off ch=3 n=16 v=0
10931279 On ch=3 n=14 v=100
10932147 Off ch=3 n=14 v=0
10932193 On ch=3 n=11 v=100
10932447 Off ch=3 n=11 v=0
10932456 On ch=3 n=11 v=100
10933135 Off ch=3 n=11 v=0
10933215 On ch=3 n=33 v=100
10933270 On ch=3 n=16 v=100
10933380 Off ch=3 n=33 v=0
10933442 Off ch=3 n=16 v=0
10935228 On ch=3 n=16 v=100
10935264 On ch=3 n=24 v=100
10935267 Off ch=3 n=16 v=0
10935324 On ch=3 n=10 v=100
10935349 Off ch=3 n=24 v=0
10935602 Off ch=3 n=10 v=0
10936299 On ch=3 n=6 v=100
10936974 Off ch=3 n=6 v=0
10942528 On ch=3 n=7 v=100
10943187 On ch=3 n=17 v=100
10943197 Off ch=3 n=7 v=0
10943206 On ch=3 n=7 v=100
10943246 Off ch=3 n=17 v=0
10943420 On ch=3 n=28 v=100
10943477 Off ch=3 n=7 v=0
10943485 Off ch=3 n=28 v=0
10945945 On ch=3 n=38 v=100
10945954 On ch=3 n=20 v=100
10946025 Off ch=3 n=38 v=0
10946435 Off ch=3 n=20 v=0
10946851 On ch=3 n=26 v=100
10946991 Off ch=3 n=26 v=0
10948222 On ch=3 n=17 v=100
10948656 On ch=3 n=24 v=100
10948657 Off ch=3 n=17 v=0
10948712 Off ch=3 n=24 v=0
10950241 On ch=3 n=22 v=100
10950491 Off ch=3 n=22 v=0
10950639 On ch=3 n=24 v=100
10950715 Off ch=3 n=24 v=0
10950888 On ch=3 n=12 v=100
10951123 Off ch=3 n=12 v=0
10951771 On ch=3 n=12 v=100
10951772 On ch=3 n=7 v=100
10952710 Off ch=3 n=7 v=0
10952716 On ch=3 n=5 v=100
10952951 Off ch=3 n=12 v=0
10952982 Off ch=3 n=5 v=0
10954405 On ch=3 n=31 v=100
10954742 Off ch=3 n=31 v=0
10954747 On ch=3 n=18 v=100
10954964 Off ch=3 n=18 v=0
10955257 On ch=3 n=31 v=100
10955432 On ch=3 n=29 v=100
10955728 Off ch=3 n=31 v=0
10955741 Off ch=3 n=29 v=0
10956397 On ch=3 n=42 v=100
10956397 On ch=3 n=34 v=100
10956421 Off ch=3 n=42 v=0
10956439 Off ch=3 n=34 v=0
10957908 On ch=3 n=29 v=100
10958005 Off ch=3 n=29 v=0
10958736 On ch=3 n=14 v=100
10958900 Off ch=3 n=14 v=0
10961723 On ch=3 n=26 v=100
10961916 Off ch=3 n=26 v=0
10962665 On ch=3 n=2 v=100
10963799 Off ch=3 n=2 v=0
10963827 On ch=3 n=39 v=100
10963870 On ch=3 n=9 v=100
10964032 Off ch=3 n=39 v=0
10964353 Off ch=3 n=9 v=0
10964373 On ch=3 n=26 v=100
10964447 Off ch=3 n=26 v=0
10966161 On ch=3 n=28 v=100
10966298 Off ch=3 n=28 v=0
10966310 On ch=3 n=3 v=100
10967892 Off ch=3 n=3 v=0
10967894 On ch=3 n=1 v=100
10971551 On ch=3 n=1 v=100
10971552 Off ch=3 n=1 v=0
10973762 Off ch=3 n=1 v=0
10973763 On ch=3 n=3 v=100
10974362 On ch=3 n=2 v=100
10974384 Off ch=3 n=3 v=0
10974520 Off ch=3 n=2 v=0
10974521 On ch=3 n=4 v=100
10975701 On ch=3 n=13 v=100
10976352 On ch=3 n=1 v=100
10976366 Off ch=3 n=4 v=0
10976662 Off ch=3 n=13 v=0
10980903 Off ch=3 n=1 v=0
10980948 On ch=3 n=1 v=100
10983229 Off ch=3 n=1 v=0
10983299 On ch=3 n=1 v=100
10984859 Off ch=3 n=1 v=0
10988896 On ch=3 n=6 v=100
10989500 On ch=3 n=1 v=100
10989503 Off ch=3 n=6 v=0
10991072 Off ch=3 n=1 v=0
10991073 On ch=3 n=14 v=100
10991682 Off ch=3 n=14 v=0
10991753 On ch=3 n=14 v=100
10999713 Off ch=3 n=14 v=0
10999772 On ch=3 n=14 v=100
11000859 Off ch=3 n=14 v=0
11002657 On ch=3 n=12 v=100
11003733 On ch=3 n=22 v=100
11003768 On ch=3 n=11 v=100
11003783 Off ch=3 n=12 v=0
11003812 Off ch=3 n=22 v=0
11003813 Off ch=3 n=11 v=0
11004038 On ch=3 n=5 v=100
11004858 Off ch=3 n=5 v=0
11004910 On ch=3 n=5 v=100
11005665 Off ch=3 n=5 v=0
11006485 On ch=3 n=21 v=100
11006746 Off ch=3 n=21 v=0
11007028 On ch=3 n=36 v=100
11007463 Off ch=3 n=36 v=0
11008034 On ch=3 n=42 v=100
11008185 On ch=3 n=27 v=100
11008260 Off ch=3 n=42 v=0
11008260 Off ch=3 n=27 v=0
11008298 On ch=3 n=42 v=100
11008335 Off ch=3 n=42 v=0
11008367 On ch=3 n=27 v=100
11008367 On ch=3 n=42 v=100
11008443 On ch=3 n=44 v=100
11008569 Off ch=3 n=27 v=0
11008728 Off ch=3 n=42 v=0
11008869 Off ch=3 n=44 v=0
11011104 On ch=3 n=12 v=100
11011268 Off ch=3 n=12 v=0
11011410 On ch=3 n=8 v=100
11011613 Off ch=3 n=8 v=0
11011652 On ch=3 n=7 v=100
11012016 Off ch=3 n=7 v=0
11014526 On ch=3 n=22 v=100
11014582 Off ch=3 n=22 v=0
11015969 On ch=3 n=25 v=100
11016030 On ch=3 n=27 v=100
11016046 Off ch=3 n=25 v=0
11016184 Off ch=3 n=27 v=0
11016943 On ch=3 n=3 v=100
11018080 Off ch=3 n=3 v=0
11018107 On ch=3 n=40 v=100
11018109 On ch=3 n=38 v=100
11018154 On ch=3 n=11 v=100
11018322 Off ch=3 n=38 v=0
11018375 Off ch=3 n=40 v=0
11018609 Off ch=3 n=11 v=0
11018629 On ch=3 n=26 v=100
11018704 Off ch=3 n=26 v=0
11021684 On ch=3 n=32 v=100
11021811 Off ch=3 n=32 v=0
11022729 On ch=3 n=29 v=100
11022845 Off ch=3 n=29 v=0
11023560 On ch=3 n=9 v=100
11023632 On ch=3 n=14 v=100
11023635 Off ch=3 n=9 v=0
11024067 Off ch=3 n=14 v=0
11024678 On ch=3 n=4 v=100
11024678 On ch=3 n=4 v=100
11025528 On ch=3 n=47 v=100
11025861 On ch=3 n=6 v=100
11025861 On ch=3 n=6 v=100
11025861 Off ch=3 n=4 v=0
11025861 Off ch=3 n=4 v=0
11027264 Off ch=3 n=47 v=0
11027448 Off ch=3 n=6 v=0
11027448 Off ch=3 n=6 v=0
11027449 On ch=3 n=5 v=100
11028570 Off ch=3 n=5 v=0
11028715 On ch=3 n=20 v=100
11029043 Off ch=3 n=20 v=0
11029353 On ch=3 n=44 v=100
11029353 On ch=3 n=44 v=100
11029737 Off ch=3 n=44 v=0
11029737 Off ch=3 n=44 v=0
11030061 On ch=3 n=24 v=100
11030183 Off ch=3 n=24 v=0
11030201 On ch=3 n=4 v=100
11030201 On ch=3 n=9 v=100
11030531 Off ch=3 n=4 v=0
11030571 Off ch=3 n=9 v=0
11034792 On ch=3 n=26 v=100
11034830 On ch=3 n=20 v=100
11035004 Off ch=3 n=26 v=0
11035006 Off ch=3 n=20 v=0
11035023 On ch=3 n=22 v=100
11035107 Off ch=3 n=22 v=0
11035253 On ch=3 n=19 v=100
11035330 Off ch=3 n=19 v=0
11035380 On ch=3 n=54 v=100
11035391 On ch=3 n=11 v=100
11035461 Off ch=3 n=54 v=0
11035992 Off ch=3 n=11 v=0
11035998 On ch=3 n=12 v=100
11036073 Off ch=3 n=12 v=0
11037919 On ch=3 n=6 v=100
11038213 Off ch=3 n=6 v=0
11038324 On ch=3 n=8 v=100
11038529 On ch=3 n=2 v=100
11038531 Off ch=3 n=8 v=0
11043638 On ch=3 n=7 v=100
11043731 Off ch=3 n=2 v=0
11044098 On ch=3 n=7 v=100
11044189 Off ch=3 n=7 v=0
11044649 Off ch=3 n=7 v=0
11044650 On ch=3 n=7 v=100
11045252 On ch=3 n=2 v=100
11045252 On ch=3 n=2 v=100
11045263 Off ch=3 n=7 v=0
11045627 On ch=3 n=1 v=100
11045627 On ch=3 n=1 v=100
11045643 On ch=3 n=42 v=100
11045663 Off ch=3 n=2 v=0
11045663 Off ch=3 n=2 v=0
11046110 On ch=3 n=1 v=100
11046110 On ch=3 n=1 v=100
11046160 Off ch=3 n=1 v=0
11046160 Off ch=3 n=1 v=0
11046642 Off ch=3 n=42 v=0
11046782 On ch=3 n=9 v=100
11046787 Off ch=3 n=1 v=0
11046787 Off ch=3 n=1 v=0
11047420 Off ch=3 n=9 v=0
11047525 On ch=3 n=6 v=100
11048242 On ch=3 n=8 v=100
11048257 Off ch=3 n=6 v=0
11048721 Off ch=3 n=8 v=0
11048724 On ch=3 n=13 v=100
11048811 Off ch=3 n=13 v=0
11049852 On ch=3 n=7 v=100
11050175 Off ch=3 n=7 v=0
11050307 On ch=3 n=18 v=100
11050329 On ch=3 n=23 v=100
11050376 Off ch=3 n=18 v=0
11050387 Off ch=3 n=23 v=0
11051539 On ch=3 n=45 v=100
11051611 On ch=3 n=34 v=100
11051719 On ch=3 n=60 v=100
11051728 On ch=3 n=23 v=100
11051835 Off ch=3 n=23 v=0
11051853 Off ch=3 n=45 v=0
11051855 On ch=3 n=21 v=100
11051862 Off ch=3 n=34 v=0
11051927 Off ch=3 n=60 v=0
11052008 Off ch=3 n=21 v=0
11054409 On ch=3 n=6 v=100
11054808 Off ch=3 n=6 v=0
11054834 On ch=3 n=6 v=100
11054953 On ch=3 n=6 v=100
11054955 Off ch=3 n=6 v=0
11055164 On ch=3 n=4 v=100
11055165 Off ch=3 n=6 v=0
11055491 Off ch=3 n=4 v=0
11055542 On ch=3 n=4 v=100
11056031 On ch=3 n=16 v=100
11056037 Off ch=3 n=4 v=0
11056112 On ch=3 n=10 v=100
11056135 Off ch=3 n=16 v=0
11056135 Off ch=3 n=10 v=0
11056199 On ch=3 n=16 v=100
11056646 Off ch=3 n=16 v=0
11056722 On ch=3 n=3 v=100
11056905 Off ch=3 n=3 v=0
11056907 On ch=3 n=2 v=100
11057299 On ch=3 n=28 v=100
11057301 On ch=3 n=15 v=100
11057301 Off ch=3 n=2 v=0
11057350 Off ch=3 n=15 v=0
11057362 Off ch=3 n=28 v=0
11057435 On ch=3 n=43 v=100
11057562 Off ch=3 n=43 v=0
11058115 On ch=3 n=23 v=100
11058155 Off ch=3 n=23 v=0
11058216 On ch=3 n=13 v=100
11058257 On ch=3 n=17 v=100
11058547 Off ch=3 n=13 v=0
11058593 Off ch=3 n=17 v=0
11062705 On ch=3 n=57 v=100
11062778 Off ch=3 n=57 v=0
11065228 On ch=3 n=2 v=100
11066342 On ch=3 n=2 v=100
11066342 Off ch=3 n=2 v=0
11067111 Off ch=3 n=2 v=0
11067153 On ch=3 n=44 v=100
11067306 Off ch=3 n=44 v=0
11068386 On ch=3 n=30 v=100
11068453 On ch=3 n=5 v=100
11068521 Off ch=3 n=30 v=0
11068522 Off ch=3 n=5 v=0
11069506 On ch=3 n=3 v=100
11075054 Off ch=3 n=3 v=0
11075055 On ch=3 n=0 v=100
11076028 On ch=3 n=0 v=100
11078025 Off ch=3 n=0 v=0
11078274 Off ch=3 n=0 v=0
11083635 On ch=3 n=5 v=100
11084564 On ch=3 n=17 v=100
11084610 On ch=3 n=10 v=100
11084616 Off ch=3 n=5 v=0
11084893 On ch=3 n=6 v=100
11084894 Off ch=3 n=17 v=0
11084894 Off ch=3 n=10 v=0
11085583 On ch=3 n=9 v=100
11085583 Off ch=3 n=6 v=0
11086404 Off ch=3 n=9 v=0
11087339 On ch=3 n=38 v=100
11087339 On ch=3 n=38 v=100
11087482 Off ch=3 n=38 v=0
11087482 Off ch=3 n=38 v=0
11087985 On ch=3 n=3 v=100
11088193 Off ch=3 n=3 v=0
11092110 On ch=3 n=4 v=100
11092335 Off ch=3 n=4 v=0
11093317 On ch=3 n=4 v=100
11093542 Off ch=3 n=4 v=0
11096216 On ch=3 n=4 v=100
11096440 Off ch=3 n=4 v=0
11098602 On ch=3 n=6 v=100
11098602 On ch=3 n=6 v=100
11098909 On ch=3 n=32 v=100
11098959 On ch=3 n=41 v=100
11098959 On ch=3 n=41 v=100
11099048 Off ch=3 n=6 v=0
11099048 Off ch=3 n=6 v=0
11099071 Off ch=3 n=32 v=0
11099216 On ch=3 n=7 v=100
11099217 On ch=3 n=5 v=100
11099257 Off ch=3 n=41 v=0
11099257 Off ch=3 n=41 v=0
11100554 Off ch=3 n=5 v=0
11100716 Off ch=3 n=7 v=0
11100797 On ch=3 n=5 v=100
11100892 Off ch=3 n=5 v=0
11102448 On ch=3 n=17 v=100
11102609 Off ch=3 n=17 v=0
11107202 On ch=3 n=26 v=100
11107314 Off ch=3 n=26 v=0
11107606 On ch=3 n=23 v=100
11107643 On ch=3 n=9 v=100
11107708 On ch=3 n=19 v=100
11107708 Off ch=3 n=9 v=0
11107712 On ch=3 n=45 v=100
11107765 Off ch=3 n=19 v=0
11107768 Off ch=3 n=23 v=0
11107786 Off ch=3 n=45 v=0
11107952 On ch=3 n=3 v=100
11108033 On ch=3 n=7 v=100
11108086 Off ch=3 n=3 v=0
11108400 On ch=3 n=15 v=100
11108412 Off ch=3 n=7 v=0
11108506 Off ch=3 n=15 v=0
11108739 On ch=3 n=23 v=100
11108807 Off ch=3 n=23 v=0
11108895 On ch=3 n=10 v=100
11109087 Off ch=3 n=10 v=0
11109237 On ch=3 n=5 v=100
11109300 Off ch=3 n=5 v=0
11109744 On ch=3 n=23 v=100
11109788 Off ch=3 n=23 v=0
11109805 On ch=3 n=5 v=100
11109809 On ch=3 n=43 v=100
11109809 On ch=3 n=43 v=100
11109974 On ch=3 n=23 v=100
11110084 Off ch=3 n=5 v=0
11110099 Off ch=3 n=23 v=0
11110166 Off ch=3 n=43 v=0
11110166 Off ch=3 n=43 v=0
11110226 On ch=3 n=6 v=100
11110230 On ch=3 n=38 v=100
11110511 Off ch=3 n=6 v=0
11110551 Off ch=3 n=38 v=0
11110965 On ch=3 n=5 v=100
11113129 Off ch=3 n=5 v=0
11113878 On ch=3 n=5 v=100
11114091 Off ch=3 n=5 v=0
11114185 On ch=3 n=11 v=100
11114234 Off ch=3 n=11 v=0
11114268 On ch=3 n=19 v=100
11114376 On ch=3 n=45 v=100
11114414 On ch=3 n=56 v=100
11114463 On ch=3 n=35 v=100
11114475 Off ch=3 n=19 v=0
11114491 On ch=3 n=40 v=100
11114570 On ch=3 n=32 v=100
11114654 Off ch=3 n=35 v=0
11114662 Off ch=3 n=56 v=0
11114674 Off ch=3 n=40 v=0
11114690 Off ch=3 n=32 v=0
11114696 Off ch=3 n=45 v=0
11116778 On ch=3 n=5 v=100
11117058 Off ch=3 n=5 v=0
11117367 On ch=3 n=35 v=100
11117386 On ch=3 n=11 v=100
11117471 Off ch=3 n=35 v=0
11117717 Off ch=3 n=11 v=0
11117976 On ch=3 n=10 v=100
11117978 On ch=3 n=23 v=100
11118338 Off ch=3 n=10 v=0
11118485 Off ch=3 n=23 v=0
11118592 On ch=3 n=18 v=100
11118695 Off ch=3 n=18 v=0
11118698 On ch=3 n=11 v=100
11118964 Off ch=3 n=11 v=0
11118983 On ch=3 n=11 v=100
11119099 On ch=3 n=15 v=100
11119130 Off ch=3 n=11 v=0
11119317 Off ch=3 n=15 v=0
11119780 On ch=3 n=14 v=100
11119834 Off ch=3 n=14 v=0
11119836 On ch=3 n=9 v=100
11119891 Off ch=3 n=9 v=0
11120131 On ch=3 n=20 v=100
11120234 Off ch=3 n=20 v=0
11120660 On ch=3 n=17 v=100
11120660 On ch=3 n=42 v=100
11120776 Off ch=3 n=17 v=0
11120799 Off ch=3 n=42 v=0
11121035 On ch=3 n=17 v=100
11121051 On ch=3 n=36 v=100
11121156 Off ch=3 n=17 v=0
11121230 Off ch=3 n=36 v=0
11122963 On ch=3 n=22 v=100
11123285 Off ch=3 n=22 v=0
11123316 On ch=3 n=10 v=100
11123465 On ch=3 n=16 v=100
11123465 Off ch=3 n=10 v=0
11124007 Off ch=3 n=16 v=0
11124204 On ch=3 n=27 v=100
11124229 Off ch=3 n=27 v=0
11124273 On ch=3 n=27 v=100
11124322 Off ch=3 n=27 v=0
11124391 On ch=3 n=17 v=100
11124675 Off ch=3 n=17 v=0
11124711 On ch=3 n=7 v=100
11125165 On ch=3 n=22 v=100
11125193 Off ch=3 n=7 v=0
11125199 Off ch=3 n=22 v=0
11126885 On ch=3 n=5 v=100
11126938 Off ch=3 n=5 v=0
11142838 On ch=3 n=2 v=100
11145319 Off ch=3 n=2 v=0
11145670 On ch=3 n=15 v=100
11145749 Off ch=3 n=15 v=0
11145879 On ch=3 n=5 v=100
11146057 Off ch=3 n=5 v=0
11146341 On ch=3 n=14 v=100
11146371 On ch=3 n=6 v=100
11146506 Off ch=3 n=14 v=0
11146506 Off ch=3 n=6 v=0
11147351 On ch=3 n=13 v=100
11147430 Off ch=3 n=13 v=0
11147432 On ch=3 n=14 v=100
11147987 Off ch=3 n=14 v=0
11148051 On ch=3 n=14 v=100
11148179 Off ch=3 n=14 v=0
11148229 On ch=3 n=19 v=100
11148330 Off ch=3 n=19 v=0
11148468 On ch=3 n=21 v=100
11148573 On ch=3 n=15 v=100
11148574 Off ch=3 n=21 v=0
11148763 Off ch=3 n=15 v=0
11148765 On ch=3 n=2 v=100
11149307 On ch=3 n=42 v=100
11149431 Off ch=3 n=2 v=0
11149438 On ch=3 n=17 v=100
11149714 On ch=3 n=15 v=100
11149742 Off ch=3 n=42 v=0
11149764 Off ch=3 n=17 v=0
11149877 On ch=3 n=13 v=100
11149888 Off ch=3 n=15 v=0
11149947 Off ch=3 n=13 v=0
11150228 On ch=3 n=5 v=100
11150801 On ch=3 n=4 v=100
11150819 Off ch=3 n=5 v=0
11151566 Off ch=3 n=4 v=0
11151679 On ch=3 n=38 v=100
11151873 Off ch=3 n=38 v=0
11152543 On ch=3 n=31 v=100
11152543 On ch=3 n=31 v=100
11153135 Off ch=3 n=31 v=0
11153135 Off ch=3 n=31 v=0
11155311 On ch=3 n=28 v=100
11155355 On ch=3 n=16 v=100
11155597 On ch=3 n=37 v=100
11155641 Off ch=3 n=28 v=0
11155642 Off ch=3 n=16 v=0
11155690 On ch=3 n=32 v=100
11155694 On ch=3 n=11 v=100
11155879 Off ch=3 n=11 v=0
11155918 Off ch=3 n=37 v=0
11155941 Off ch=3 n=32 v=0
11156001 On ch=3 n=13 v=100
11156231 Off ch=3 n=13 v=0
11157464 On ch=3 n=7 v=100
11157936 Off ch=3 n=7 v=0
11159062 On ch=3 n=9 v=100
11159130 Off ch=3 n=9 v=0
11159428 On ch=3 n=3 v=100
11160544 Off ch=3 n=3 v=0
11161062 On ch=3 n=6 v=100
11162010 Off ch=3 n=6 v=0
11163509 On ch=3 n=23 v=100
11163541 On ch=3 n=13 v=100
11163547 Off ch=3 n=23 v=0
11163631 On ch=3 n=8 v=100
11163641 Off ch=3 n=13 v=0
11164858 On ch=3 n=22 v=100
11164869 On ch=3 n=12 v=100
11164872 Off ch=3 n=8 v=0
11164933 Off ch=3 n=12 v=0
11164941 Off ch=3 n=22 v=0
11166953 On ch=3 n=26 v=100
11167004 On ch=3 n=22 v=100
11167014 Off ch=3 n=26 v=0
11167082 On ch=3 n=6 v=100
11167118 Off ch=3 n=22 v=0
11167186 Off ch=3 n=6 v=0
11167666 On ch=3 n=48 v=100
11167666 On ch=3 n=48 v=100
11167678 On ch=3 n=12 v=100
11167678 On ch=3 n=12 v=100
11167759 On ch=3 n=11 v=100
11167759 On ch=3 n=11 v=100
11167759 Off ch=3 n=12 v=0
11167759 Off ch=3 n=12 v=0
11167915 On ch=3 n=8 v=100
11167949 Off ch=3 n=11 v=0
11167949 Off ch=3 n=11 v=0
11168196 Off ch=3 n=8 v=0
11168197 On ch=3 n=8 v=100
11168197 On ch=3 n=8 v=100
11168519 Off ch=3 n=8 v=0
11168519 Off ch=3 n=8 v=0
11168520 Off ch=3 n=48 v=0
11168520 Off ch=3 n=48 v=0
11169340 On ch=3 n=19 v=100
11169647 Off ch=3 n=19 v=0
11175515 On ch=3 n=3 v=100
11176162 Off ch=3 n=3 v=0
11176210 On ch=3 n=17 v=100
11176210 On ch=3 n=4 v=100
11176220 Off ch=3 n=17 v=0
11176958 Off ch=3 n=4 v=0
11181934 On ch=3 n=49 v=100
11182046 Off ch=3 n=49 v=0
11191627 On ch=3 n=11 v=100
11191919 Off ch=3 n=11 v=0
11191923 On ch=3 n=13 v=100
11192053 Off ch=3 n=13 v=0
11192059 On ch=3 n=41 v=100
11192195 Off ch=3 n=41 v=0
11193382 On ch=3 n=32 v=100
11193516 Off ch=3 n=32 v=0
11193550 On ch=3 n=12 v=100
11193561 On ch=3 n=24 v=100
11193729 On ch=3 n=13 v=100
11193735 Off ch=3 n=12 v=0
11193796 Off ch=3 n=24 v=0
11193872 On ch=3 n=9 v=100
11193998 Off ch=3 n=13 v=0
11194356 Off ch=3 n=9 v=0
11195009 On ch=3 n=18 v=100
11195099 Off ch=3 n=18 v=0
11195262 On ch=3 n=7 v=100
11195641 On ch=3 n=6 v=100
11195641 Off ch=3 n=7 v=0
11195756 Off ch=3 n=6 v=0
11197844 On ch=3 n=9 v=100
11197912 On ch=3 n=23 v=100
11197924 Off ch=3 n=9 v=0
11197930 On ch=3 n=10 v=100
11198066 Off ch=3 n=23 v=0
11198572 Off ch=3 n=10 v=0
11198628 On ch=3 n=19 v=100
11198718 Off ch=3 n=19 v=0
11198749 On ch=3 n=13 v=100
11199206 On ch=3 n=19 v=100
11199234 On ch=3 n=13 v=100
11199307 Off ch=3 n=13 v=0
11199490 Off ch=3 n=13 v=0
11199515 Off ch=3 n=19 v=0
11199643 On ch=3 n=17 v=100
11199731 Off ch=3 n=17 v=0
11200958 On ch=3 n=14 v=100
11201033 Off ch=3 n=14 v=0
11201557 On ch=3 n=41 v=100
11202175 Off ch=3 n=41 v=0
11202222 On ch=3 n=15 v=100
11202240 On ch=3 n=3 v=100
11202288 On ch=3 n=13 v=100
11202288 On ch=3 n=13 v=100
11202307 Off ch=3 n=15 v=0
11202307 Off ch=3 n=3 v=0
11202309 On ch=3 n=4 v=100
11202877 Off ch=3 n=4 v=0
11202983 Off ch=3 n=13 v=0
11202983 Off ch=3 n=13 v=0
11203563 On ch=3 n=26 v=100
11203648 Off ch=3 n=26 v=0
11205348 On ch=3 n=44 v=100
11205471 On ch=3 n=5 v=100
11205541 Off ch=3 n=44 v=0
11206283 On ch=3 n=29 v=100
11206416 Off ch=3 n=5 v=0
11206487 Off ch=3 n=29 v=0
11206498 On ch=3 n=20 v=100
11206769 Off ch=3 n=20 v=0
11206787 On ch=3 n=9 v=100
11206986 On ch=3 n=4 v=100
11207005 Off ch=3 n=9 v=0
11207277 Off ch=3 n=4 v=0
11207306 On ch=3 n=4 v=100
11207442 Off ch=3 n=4 v=0
11207455 On ch=3 n=5 v=100
11207742 Off ch=3 n=5 v=0
11207806 On ch=3 n=5 v=100
11208045 Off ch=3 n=5 v=0
11210464 On ch=3 n=7 v=100
11212038 Off ch=3 n=7 v=0
11212107 On ch=3 n=35 v=100
11212165 On ch=3 n=8 v=100
11212272 Off ch=3 n=35 v=0
11212460 On ch=3 n=20 v=100
11212605 On ch=3 n=16 v=100
11212613 Off ch=3 n=8 v=0
11212989 On ch=3 n=16 v=100
11213003 Off ch=3 n=20 v=0
11213053 Off ch=3 n=16 v=0
11213195 On ch=3 n=49 v=100
11213382 Off ch=3 n=16 v=0
11213384 On ch=3 n=6 v=100
11213405 Off ch=3 n=49 v=0
11213640 On ch=3 n=14 v=100
11213651 Off ch=3 n=6 v=0
11213747 Off ch=3 n=14 v=0
11213916 On ch=3 n=22 v=100
11213989 Off ch=3 n=22 v=0
11215038 On ch=3 n=44 v=100
11215093 On ch=3 n=38 v=100
11215099 On ch=3 n=26 v=100
11215201 On ch=3 n=20 v=100
11215318 Off ch=3 n=20 v=0
11215322 Off ch=3 n=44 v=0
11215323 Off ch=3 n=26 v=0
11215324 On ch=3 n=26 v=100
11215344 Off ch=3 n=38 v=0
11215504 Off ch=3 n=26 v=0
11215638 On ch=3 n=20 v=100
11215639 On ch=3 n=13 v=100
11215670 On ch=3 n=21 v=100
11215670 On ch=3 n=29 v=100
11215802 Off ch=3 n=13 v=0
11215833 Off ch=3 n=20 v=0
11215860 Off ch=3 n=21 v=0
11215889 Off ch=3 n=29 v=0
11216123 On ch=3 n=12 v=100
11216840 On ch=3 n=14 v=100
11216843 Off ch=3 n=12 v=0
11217209 Off ch=3 n=14 v=0
11217998 On ch=3 n=11 v=100
11218239 Off ch=3 n=11 v=0
11218298 On ch=3 n=11 v=100
11218408 On ch=3 n=12 v=100
11218458 Off ch=3 n=11 v=0
11218460 On ch=3 n=6 v=100
11218589 On ch=3 n=45 v=100
11218625 Off ch=3 n=12 v=0
11218627 Off ch=3 n=6 v=0
11218630 On ch=3 n=6 v=100
11218848 On ch=3 n=12 v=100
11218861 Off ch=3 n=6 v=0
11218866 On ch=3 n=28 v=100
11218868 Off ch=3 n=45 v=0
11219045 Off ch=3 n=12 v=0
11219088 On ch=3 n=20 v=100
11219107 Off ch=3 n=28 v=0
11219196 Off ch=3 n=20 v=0
11220589 On ch=3 n=39 v=100
11220636 Off ch=3 n=39 v=0
11221522 On ch=3 n=11 v=100
11221686 Off ch=3 n=11 v=0
11221740 On ch=3 n=11 v=100
11221795 On ch=3 n=23 v=100
11221812 Off ch=3 n=11 v=0
11221813 On ch=3 n=22 v=100
11221814 On ch=3 n=36 v=100
11221857 Off ch=3 n=23 v=0
11221857 Off ch=3 n=22 v=0
11221863 On ch=3 n=13 v=100
11221875 Off ch=3 n=36 v=0
11221947 Off ch=3 n=13 v=0
11221954 On ch=3 n=48 v=100
11222130 Off ch=3 n=48 v=0
11222986 On ch=3 n=28 v=100
11223081 Off ch=3 n=28 v=0
11223268 On ch=3 n=24 v=100
11223269 On ch=3 n=19 v=100
11223278 On ch=3 n=7 v=100
11223501 Off ch=3 n=7 v=0
11223525 Off ch=3 n=19 v=0
11223608 Off ch=3 n=24 v=0
11223884 On ch=3 n=22 v=100
11223897 On ch=3 n=7 v=100
11224005 Off ch=3 n=7 v=0
11224008 Off ch=3 n=22 v=0
11224013 On ch=3 n=9 v=100
11224550 Off ch=3 n=9 v=0
11224552 On ch=3 n=5 v=100
11224624 Off ch=3 n=5 v=0
11225012 On ch=3 n=16 v=100
11225546 Off ch=3 n=16 v=0
11225547 On ch=3 n=5 v=100
11226329 On ch=3 n=16 v=100
11226334 On ch=3 n=14 v=100
11226341 Off ch=3 n=5 v=0
11226368 Off ch=3 n=16 v=0
11226634 Off ch=3 n=14 v=0
11227019 On ch=3 n=2 v=100
11229500 Off ch=3 n=2 v=0
11229888 On ch=3 n=6 v=100
11230132 Off ch=3 n=6 v=0
11231406 On ch=3 n=7 v=100
11232156 On ch=3 n=6 v=100
11232157 Off ch=3 n=7 v=0
11232488 On ch=3 n=33 v=100
11232627 Off ch=3 n=6 v=0
11232667 Off ch=3 n=33 v=0
11238205 On ch=3 n=5 v=100
11238597 On ch=3 n=2 v=100
11238601 Off ch=3 n=5 v=0
11240098 On ch=3 n=6 v=100
11240099 Off ch=3 n=2 v=0
11240495 Off ch=3 n=6 v=0
11240563 On ch=3 n=6 v=100
11240844 Off ch=3 n=6 v=0
11240942 On ch=3 n=32 v=100
11240979 On ch=3 n=30 v=100
11240981 On ch=3 n=10 v=100
11241173 Off ch=3 n=10 v=0
11241186 Off ch=3 n=32 v=0
11241258 Off ch=3 n=30 v=0
11242984 On ch=3 n=18 v=100
11243025 Off ch=3 n=18 v=0
11244252 On ch=3 n=7 v=100
11244311 Off ch=3 n=7 v=0
11244313 On ch=3 n=37 v=100
11244313 On ch=3 n=12 v=100
11244355 Off ch=3 n=12 v=0
11244376 Off ch=3 n=37 v=0
11244951 On ch=3 n=8 v=100
11245149 Off ch=3 n=8 v=0
11245150 On ch=3 n=17 v=100
11245398 On ch=3 n=18 v=100
11245404 Off ch=3 n=17 v=0
11245440 Off ch=3 n=18 v=0
11247303 On ch=3 n=7 v=100
11248280 On ch=3 n=18 v=100
11248296 Off ch=3 n=7 v=0
11248402 Off ch=3 n=18 v=0
11249019 On ch=3 n=20 v=100
11249178 Off ch=3 n=20 v=0
11249210 On ch=3 n=40 v=100
11249323 Off ch=3 n=40 v=0
11249396 On ch=3 n=16 v=100
11249564 On ch=3 n=14 v=100
11250637 Off ch=3 n=16 v=0
11250637 Off ch=3 n=14 v=0
11251496 On ch=3 n=13 v=100
11251523 On ch=3 n=29 v=100
11251562 On ch=3 n=33 v=100
11251612 Off ch=3 n=13 v=0
11251623 Off ch=3 n=29 v=0
11251645 Off ch=3 n=33 v=0
11252176 On ch=3 n=2 v=100
11252353 On ch=3 n=1 v=100
11252355 Off ch=3 n=2 v=0
11253897 Off ch=3 n=1 v=0
11255103 On ch=3 n=10 v=100
11255669 Off ch=3 n=10 v=0
11255671 On ch=3 n=12 v=100
11256025 Off ch=3 n=12 v=0
11256028 On ch=3 n=22 v=100
11256135 Off ch=3 n=22 v=0
11256276 On ch=3 n=22 v=100
11256346 Off ch=3 n=22 v=0
11256422 On ch=3 n=10 v=100
11256572 Off ch=3 n=10 v=0
11256627 On ch=3 n=10 v=100
11257109 Off ch=3 n=10 v=0
11257126 On ch=3 n=20 v=100
11257201 Off ch=3 n=20 v=0
11257914 On ch=3 n=19 v=100
11257959 Off ch=3 n=19 v=0
11258753 On ch=3 n=11 v=100
11258799 Off ch=3 n=11 v=0
11259447 On ch=3 n=25 v=100
11259525 Off ch=3 n=25 v=0
11260159 On ch=3 n=9 v=100
11260515 On ch=3 n=11 v=100
11260601 Off ch=3 n=9 v=0
11260724 On ch=3 n=18 v=100
11260780 On ch=3 n=20 v=100
11260784 Off ch=3 n=11 v=0
11261033 Off ch=3 n=18 v=0
11261192 On ch=3 n=15 v=100
11261195 Off ch=3 n=20 v=0
11261248 Off ch=3 n=15 v=0
11261267 On ch=3 n=46 v=100
11261278 On ch=3 n=17 v=100
11261368 Off ch=3 n=46 v=0
11261426 On ch=3 n=51 v=100
11261426 On ch=3 n=51 v=100
11261457 On ch=3 n=38 v=100
11261497 Off ch=3 n=17 v=0
11261563 On ch=3 n=41 v=100
11261563 On ch=3 n=41 v=100
11261672 Off ch=3 n=51 v=0
11261672 Off ch=3 n=38 v=0
11261672 Off ch=3 n=51 v=0
11261814 On ch=3 n=20 v=100
11261996 Off ch=3 n=41 v=0
11261996 Off ch=3 n=41 v=0
11261996 Off ch=3 n=20 v=0
11262467 On ch=3 n=20 v=100
11262511 Off ch=3 n=20 v=0
11262558 On ch=3 n=5 v=100
11262558 On ch=3 n=38 v=100
11262837 Off ch=3 n=5 v=0
11262873 Off ch=3 n=38 v=0
11263003 On ch=3 n=41 v=100
11263037 On ch=3 n=14 v=100
11263061 On ch=3 n=7 v=100
11263293 Off ch=3 n=41 v=0
11263297 Off ch=3 n=7 v=0
11263307 Off ch=3 n=14 v=0
11263418 On ch=3 n=22 v=100
11263510 On ch=3 n=13 v=100
11263533 On ch=3 n=28 v=100
11263855 Off ch=3 n=22 v=0
11263858 Off ch=3 n=13 v=0
11264054 On ch=3 n=15 v=100
11264126 Off ch=3 n=28 v=0
11264575 Off ch=3 n=15 v=0
11264624 On ch=3 n=25 v=100
11264715 Off ch=3 n=25 v=0
11264857 On ch=3 n=24 v=100
11264868 On ch=3 n=66 v=100
11264904 On ch=3 n=14 v=100
11264914 Off ch=3 n=24 v=0
11265174 Off ch=3 n=66 v=0
11265292 Off ch=3 n=14 v=0
11265911 On ch=3 n=7 v=100
11265935 On ch=3 n=36 v=100
11265938 On ch=3 n=11 v=100
11265938 On ch=3 n=26 v=100
11266071 Off ch=3 n=7 v=0
11266341 Off ch=3 n=11 v=0
11266457 On ch=3 n=9 v=100
11266471 Off ch=3 n=26 v=0
11266721 Off ch=3 n=36 v=0
11266844 On ch=3 n=18 v=100
11266847 Off ch=3 n=9 v=0
11266957 On ch=3 n=19 v=100
11266998 On ch=3 n=29 v=100
11267008 On ch=3 n=14 v=100
11267008 On ch=3 n=14 v=100
11267034 On ch=3 n=11 v=100
11267060 Off ch=3 n=18 v=0
11267340 Off ch=3 n=19 v=0
11267352 Off ch=3 n=11 v=0
11267387 Off ch=3 n=14 v=0
11267387 Off ch=3 n=14 v=0
11267512 On ch=3 n=4 v=100
11267539 Off ch=3 n=29 v=0
11267827 Off ch=3 n=4 v=0
11268345 On ch=3 n=5 v=100
11268430 On ch=3 n=6 v=100
11268431 Off ch=3 n=5 v=0
11268698 On ch=3 n=15 v=100
11268719 Off ch=3 n=6 v=0
11268724 On ch=3 n=9 v=100
11268835 Off ch=3 n=9 v=0
11268837 Off ch=3 n=15 v=0
11270127 On ch=3 n=10 v=100
11270689 Off ch=3 n=10 v=0
11270885 On ch=3 n=15 v=100
11270972 On ch=3 n=2 v=100
11270985 Off ch=3 n=15 v=0
11271076 Off ch=3 n=2 v=0
11271077 On ch=3 n=5 v=100
11272311 Off ch=3 n=5 v=0
11272443 On ch=3 n=2 v=100
11274280 Off ch=3 n=2 v=0
11275258 On ch=3 n=21 v=100
11275339 On ch=3 n=5 v=100
11275849 Off ch=3 n=21 v=0
11277662 Off ch=3 n=5 v=0
11277663 On ch=3 n=16 v=100
11277692 On ch=3 n=7 v=100
11277865 Off ch=3 n=16 v=0
11278115 On ch=3 n=11 v=100
11278196 Off ch=3 n=7 v=0
11278366 Off ch=3 n=11 v=0
11284549 On ch=3 n=3 v=100
11285441 Off ch=3 n=3 v=0
11285470 On ch=3 n=3 v=100
11285988 Off ch=3 n=3 v=0
11288620 On ch=3 n=4 v=100
11289759 Off ch=3 n=4 v=0
11289834 On ch=3 n=5 v=100
11290572 Off ch=3 n=5 v=0
11295786 On ch=3 n=35 v=100
11295825 On ch=3 n=27 v=100
11296023 Off ch=3 n=35 v=0
11296023 Off ch=3 n=27 v=0
11296024 On ch=3 n=21 v=100
11296291 Off ch=3 n=21 v=0
11296293 On ch=3 n=21 v=100
11296293 On ch=3 n=16 v=100
11296355 Off ch=3 n=21 v=0
11296369 Off ch=3 n=16 v=0
11296542 On ch=3 n=35 v=100
11296591 On ch=3 n=1 v=100
11296689 Off ch=3 n=1 v=0
11296779 On ch=3 n=1 v=100
11296789 Off ch=3 n=35 v=0
11297483 On ch=3 n=13 v=100
11297492 Off ch=3 n=1 v=0
11298124 Off ch=3 n=13 v=0
11298140 On ch=3 n=7 v=100
11299322 On ch=3 n=2 v=100
11299379 Off ch=3 n=7 v=0
11300674 On ch=3 n=31 v=100
11300739 Off ch=3 n=2 v=0
11300752 Off ch=3 n=31 v=0
11305617 On ch=3 n=27 v=100
11305654 Off ch=3 n=27 v=0
11306401 On ch=3 n=6 v=100
11307540 Off ch=3 n=6 v=0
11311309 On ch=3 n=31 v=100
11311431 On ch=3 n=21 v=100
11311445 On ch=3 n=14 v=100
11311450 On ch=3 n=27 v=100
11311792 Off ch=3 n=14 v=0
11311795 Off ch=3 n=31 v=0
11311833 Off ch=3 n=21 v=0
11311999 Off ch=3 n=27 v=0
11313027 On ch=3 n=23 v=100
11313099 Off ch=3 n=23 v=0
11313334 On ch=3 n=10 v=100
11314518 Off ch=3 n=10 v=0
11315502 On ch=3 n=22 v=100
11315592 Off ch=3 n=22 v=0
11315810 On ch=3 n=12 v=100
11316338 Off ch=3 n=12 v=0
11316826 On ch=3 n=20 v=100
11316898 Off ch=3 n=20 v=0
11317144 On ch=3 n=9 v=100
11317328 On ch=3 n=5 v=100
11317334 Off ch=3 n=9 v=0
11318922 Off ch=3 n=5 v=0
11318923 On ch=3 n=13 v=100
11319723 Off ch=3 n=13 v=0
11320286 On ch=3 n=25 v=100
11320457 Off ch=3 n=25 v=0
11322897 On ch=3 n=27 v=100
11323045 Off ch=3 n=27 v=0
11330462 On ch=3 n=18 v=100
11330601 On ch=3 n=11 v=100
11330620 Off ch=3 n=18 v=0
11330939 Off ch=3 n=11 v=0
11330956 On ch=3 n=17 v=100
11331281 On ch=3 n=25 v=100
11331343 Off ch=3 n=17 v=0
11331350 On ch=3 n=9 v=100
11331356 Off ch=3 n=25 v=0
11331358 On ch=3 n=18 v=100
11331438 On ch=3 n=13 v=100
11331440 Off ch=3 n=9 v=0
11331472 Off ch=3 n=18 v=0
11331643 Off ch=3 n=13 v=0
11331672 On ch=3 n=13 v=100
11331710 Off ch=3 n=13 v=0
11332875 On ch=3 n=4 v=100
11334531 Off ch=3 n=4 v=0
11334540 On ch=3 n=43 v=100
11334702 Off ch=3 n=43 v=0
11337685 On ch=3 n=35 v=100
11337685 On ch=3 n=26 v=100
11337784 On ch=3 n=26 v=100
11337989 Off ch=3 n=26 v=0
11338111 Off ch=3 n=35 v=0
11338113 Off ch=3 n=26 v=0
11338115 On ch=3 n=38 v=100
11338501 On ch=3 n=45 v=100
11338595 Off ch=3 n=38 v=0
11338595 Off ch=3 n=45 v=0
11338625 On ch=3 n=38 v=100
11338625 On ch=3 n=45 v=100
11338666 Off ch=3 n=38 v=0
11338688 Off ch=3 n=45 v=0
11339272 On ch=3 n=3 v=100
11339788 Off ch=3 n=3 v=0
11346334 On ch=3 n=5 v=100
11346695 On ch=3 n=7 v=100
11346698 Off ch=3 n=5 v=0
11348131 Off ch=3 n=7 v=0
11348162 On ch=3 n=14 v=100
11348834 Off ch=3 n=14 v=0
11349214 On ch=3 n=12 v=100
11349294 Off ch=3 n=12 v=0
11349299 On ch=3 n=5 v=100
11349649 On ch=3 n=9 v=100
11349659 Off ch=3 n=5 v=0
11350037 On ch=3 n=8 v=100
11350039 Off ch=3 n=9 v=0
11350587 Off ch=3 n=8 v=0
11350671 On ch=3 n=11 v=100
11351334 On ch=3 n=9 v=100
11351338 Off ch=3 n=11 v=0
11352375 On ch=3 n=44 v=100
11352375 On ch=3 n=44 v=100
11352566 Off ch=3 n=9 v=0
11352580 On ch=3 n=11 v=100
11352831 Off ch=3 n=11 v=0
11352965 On ch=3 n=11 v=100
11353034 Off ch=3 n=44 v=0
11353034 Off ch=3 n=44 v=0
11353665 Off ch=3 n=11 v=0
11355495 On ch=3 n=10 v=100
11355858 Off ch=3 n=10 v=0
11356603 On ch=3 n=19 v=100
11356696 Off ch=3 n=19 v=0
11356697 On ch=3 n=12 v=100
11356797 Off ch=3 n=12 v=0
11356806 On ch=3 n=12 v=100
11356900 On ch=3 n=36 v=100
11357023 Off ch=3 n=12 v=0
11357038 On ch=3 n=23 v=100
11357111 Off ch=3 n=36 v=0
11357111 Off ch=3 n=23 v=0
11357176 On ch=3 n=36 v=100
11357176 On ch=3 n=23 v=100
11357284 On ch=3 n=17 v=100
11357545 Off ch=3 n=36 v=0
11357613 Off ch=3 n=23 v=0
11357700 Off ch=3 n=17 v=0
11357840 On ch=3 n=4 v=100
11359362 Off ch=3 n=4 v=0
11359363 On ch=3 n=4 v=100
11359506 Off ch=3 n=4 v=0
11359877 On ch=3 n=18 v=100
11359931 On ch=3 n=5 v=100
11360251 Off ch=3 n=5 v=0
11360255 Off ch=3 n=18 v=0
11361087 On ch=3 n=34 v=100
11361087 On ch=3 n=34 v=100
11361115 On ch=3 n=31 v=100
11361125 On ch=3 n=19 v=100
11361132 On ch=3 n=10 v=100
11361324 Off ch=3 n=10 v=0
11361342 Off ch=3 n=34 v=0
11361342 Off ch=3 n=34 v=0
11361345 Off ch=3 n=19 v=0
11361381 Off ch=3 n=31 v=0
11362735 On ch=3 n=16 v=100
11363037 Off ch=3 n=16 v=0
11363318 On ch=3 n=23 v=100
11363438 Off ch=3 n=23 v=0
11364476 On ch=3 n=23 v=100
11364791 Off ch=3 n=23 v=0
11374797 On ch=3 n=34 v=100
11374826 On ch=3 n=11 v=100
11374982 Off ch=3 n=34 v=0
11375010 Off ch=3 n=11 v=0
11376553 On ch=3 n=29 v=100
11376565 On ch=3 n=57 v=100
11376642 Off ch=3 n=29 v=0
11376741 Off ch=3 n=57 v=0
11377250 On ch=3 n=8 v=100
11377743 On ch=3 n=8 v=100
11377743 Off ch=3 n=8 v=0
11378443 Off ch=3 n=8 v=0
11378473 On ch=3 n=15 v=100
11378566 On ch=3 n=11 v=100
11378568 Off ch=3 n=15 v=0
11379110 On ch=3 n=7 v=100
11379113 Off ch=3 n=11 v=0
11379288 Off ch=3 n=7 v=0
11379960 On ch=3 n=20 v=100
11379987 On ch=3 n=13 v=100
11380143 Off ch=3 n=20 v=0
11380143 Off ch=3 n=13 v=0
11382264 On ch=3 n=6 v=100
11382384 Off ch=3 n=6 v=0
11382387 On ch=3 n=7 v=100
11382586 On ch=3 n=18 v=100
11382590 Off ch=3 n=7 v=0
11382638 On ch=3 n=13 v=100
11382639 Off ch=3 n=18 v=0
11382780 Off ch=3 n=13 v=0
11382783 On ch=3 n=6 v=100
11383080 Off ch=3 n=6 v=0
11383081 On ch=3 n=6 v=100
11383406 Off ch=3 n=6 v=0
11383459 On ch=3 n=35 v=100
11384087 On ch=3 n=8 v=100
11384087 Off ch=3 n=35 v=0
11384347 On ch=3 n=27 v=100
11384347 On ch=3 n=27 v=100
11384431 Off ch=3 n=8 v=0
11384440 On ch=3 n=17 v=100
11384485 On ch=3 n=28 v=100
11384485 On ch=3 n=28 v=100
11384709 Off ch=3 n=17 v=0
11384812 Off ch=3 n=27 v=0
11384812 Off ch=3 n=27 v=0
11384822 On ch=3 n=13 v=100
11384893 Off ch=3 n=28 v=0
11384893 Off ch=3 n=28 v=0
11384928 Off ch=3 n=13 v=0
11384936 On ch=3 n=7 v=100
11385867 Off ch=3 n=7 v=0
11387471 On ch=3 n=9 v=100
11388037 On ch=3 n=14 v=100
11388063 Off ch=3 n=9 v=0
11388231 On ch=3 n=16 v=100
11388232 Off ch=3 n=14 v=0
11388682 On ch=3 n=24 v=100
11388739 Off ch=3 n=16 v=0
11388835 Off ch=3 n=24 v=0
11388911 On ch=3 n=24 v=100
11389085 Off ch=3 n=24 v=0
11389271 On ch=3 n=31 v=100
11389318 On ch=3 n=25 v=100
11389388 On ch=3 n=15 v=100
11389389 On ch=3 n=9 v=100
11389550 Off ch=3 n=31 v=0
11389571 Off ch=3 n=25 v=0
11389715 On ch=3 n=11 v=100
11389734 Off ch=3 n=9 v=0
11389750 Off ch=3 n=11 v=0
11389750 Off ch=3 n=15 v=0
11389791 On ch=3 n=15 v=100
11389791 On ch=3 n=11 v=100
11389846 Off ch=3 n=15 v=0
11389888 On ch=3 n=16 v=100
11389898 Off ch=3 n=11 v=0
11390287 On ch=3 n=12 v=100
11390300 Off ch=3 n=16 v=0
11390593 On ch=3 n=13 v=100
11390692 Off ch=3 n=12 v=0
11391528 Off ch=3 n=13 v=0
11391530 On ch=3 n=8 v=100
11392247 On ch=3 n=31 v=100
11392295 Off ch=3 n=8 v=0
11392304 Off ch=3 n=31 v=0
11392966 On ch=3 n=2 v=100
11394043 Off ch=3 n=2 v=0
11399307 On ch=3 n=0 v=100
11399368 Off ch=3 n=0 v=0
11399372 On ch=3 n=4 v=100
11399659 On ch=3 n=9 v=100
11399660 Off ch=3 n=4 v=0
11399771 On ch=3 n=7 v=100
11399775 Off ch=3 n=9 v=0
11400936 Off ch=3 n=7 v=0
11401267 On ch=3 n=13 v=100
11402327 Off ch=3 n=13 v=0
11403414 On ch=3 n=5 v=100
11404198 Off ch=3 n=5 v=0
11404249 On ch=3 n=5 v=100
11404606 Off ch=3 n=5 v=0
11405487 On ch=3 n=25 v=100
11405595 Off ch=3 n=25 v=0
11405648 On ch=3 n=25 v=100
11405722 Off ch=3 n=25 v=0
11406475 On ch=3 n=29 v=100
11406589 Off ch=3 n=29 v=0
11409934 On ch=3 n=51 v=100
11411150 Off ch=3 n=51 v=0
11411569 On ch=3 n=29 v=100
11411639 On ch=3 n=12 v=100
11411762 Off ch=3 n=29 v=0
11411873 On ch=3 n=18 v=100
11411873 On ch=3 n=18 v=100
11411895 Off ch=3 n=12 v=0
11411901 On ch=3 n=14 v=100
11412090 Off ch=3 n=14 v=0
11412111 Off ch=3 n=18 v=0
11412111 Off ch=3 n=18 v=0
11412646 On ch=3 n=25 v=100
11412691 Off ch=3 n=25 v=0
11412694 On ch=3 n=2 v=100
11413041 Off ch=3 n=2 v=0
11413043 On ch=3 n=6 v=100
11415907 On ch=3 n=7 v=100
11415907 Off ch=3 n=6 v=0
11417143 Off ch=3 n=7 v=0
11419900 On ch=3 n=10 v=100
11421240 Off ch=3 n=10 v=0
11421983 On ch=3 n=15 v=100
11422249 On ch=3 n=16 v=100
11422276 On ch=3 n=6 v=100
11422282 Off ch=3 n=15 v=0
11422288 Off ch=3 n=16 v=0
11423074 Off ch=3 n=6 v=0
11423075 On ch=3 n=16 v=100
11423610 Off ch=3 n=16 v=0
11423992 On ch=3 n=11 v=100
11424065 Off ch=3 n=11 v=0
11424067 On ch=3 n=9 v=100
11424615 Off ch=3 n=9 v=0
11424623 On ch=3 n=6 v=100
11424623 On ch=3 n=24 v=100
11424731 Off ch=3 n=6 v=0
11424765 Off ch=3 n=24 v=0
11425020 On ch=3 n=24 v=100
11425127 On ch=3 n=8 v=100
11425399 Off ch=3 n=24 v=0
11425404 Off ch=3 n=8 v=0
11425602 On ch=3 n=28 v=100
11425697 Off ch=3 n=28 v=0
11426715 On ch=3 n=15 v=100
11426788 On ch=3 n=34 v=100
11426799 Off ch=3 n=15 v=0
11426805 On ch=3 n=26 v=100
11426805 On ch=3 n=22 v=100
11426848 Off ch=3 n=34 v=0
11426849 Off ch=3 n=22 v=0
11426851 On ch=3 n=11 v=100
11426869 Off ch=3 n=26 v=0
11426924 Off ch=3 n=11 v=0
11426991 On ch=3 n=11 v=100
11427130 Off ch=3 n=11 v=0
11427172 On ch=3 n=26 v=100
11427272 Off ch=3 n=26 v=0
11427333 On ch=3 n=20 v=100
11427424 On ch=3 n=30 v=100
11427441 Off ch=3 n=20 v=0
11427485 On ch=3 n=17 v=100
11427653 Off ch=3 n=30 v=0
11427654 On ch=3 n=40 v=100
11427658 On ch=3 n=7 v=100
11427672 Off ch=3 n=17 v=0
11427889 Off ch=3 n=7 v=0
11427892 On ch=3 n=7 v=100
11427894 On ch=3 n=14 v=100
11427943 Off ch=3 n=40 v=0
11428059 Off ch=3 n=7 v=0
11428061 On ch=3 n=12 v=100
11428112 Off ch=3 n=14 v=0
11428222 Off ch=3 n=12 v=0
11428258 On ch=3 n=13 v=100
11428907 On ch=3 n=12 v=100
11428910 Off ch=3 n=13 v=0
11429636 Off ch=3 n=12 v=0
11429860 On ch=3 n=31 v=100
11429950 On ch=3 n=15 v=100
11430096 On ch=3 n=41 v=100
11430099 Off ch=3 n=31 v=0
11430129 Off ch=3 n=15 v=0
11430209 On ch=3 n=28 v=100
11430264 Off ch=3 n=41 v=0
11430379 On ch=3 n=41 v=100
11430415 On ch=3 n=35 v=100
11430444 Off ch=3 n=28 v=0
11430446 On ch=3 n=43 v=100
11430450 On ch=3 n=19 v=100
11430561 Off ch=3 n=19 v=0
11430562 Off ch=3 n=41 v=0
11430669 Off ch=3 n=35 v=0
11430733 Off ch=3 n=43 v=0
11431782 On ch=3 n=24 v=100
11431855 Off ch=3 n=24 v=0
11432024 On ch=3 n=14 v=100
11432120 On ch=3 n=7 v=100
11432131 Off ch=3 n=14 v=0
11432345 On ch=3 n=51 v=100
11432372 Off ch=3 n=7 v=0
11432379 On ch=3 n=16 v=100
11432537 Off ch=3 n=51 v=0
11432668 Off ch=3 n=16 v=0
11432675 On ch=3 n=9 v=100
11432869 Off ch=3 n=9 v=0
11432903 On ch=3 n=23 v=100
11432929 On ch=3 n=17 v=100
11432975 On ch=3 n=24 v=100
11433092 Off ch=3 n=23 v=0
11433103 On ch=3 n=13 v=100
11433125 Off ch=3 n=17 v=0
11433158 Off ch=3 n=24 v=0
11433214 On ch=3 n=34 v=100
11433294 Off ch=3 n=13 v=0
11433295 On ch=3 n=34 v=100
11433300 On ch=3 n=14 v=100
11433306 Off ch=3 n=34 v=0
11433343 Off ch=3 n=14 v=0
11433347 On ch=3 n=24 v=100
11433369 Off ch=3 n=34 v=0
11433619 On ch=3 n=16 v=100
11433628 Off ch=3 n=24 v=0
11433701 Off ch=3 n=16 v=0
11433716 On ch=3 n=19 v=100
11433821 On ch=3 n=13 v=100
11433822 Off ch=3 n=19 v=0
11433919 Off ch=3 n=13 v=0
11434052 On ch=3 n=23 v=100
11434223 Off ch=3 n=23 v=0
11434512 On ch=3 n=35 v=100
11435205 Off ch=3 n=35 v=0
11435219 On ch=3 n=5 v=100
11436798 Off ch=3 n=5 v=0
11436967 On ch=3 n=21 v=100
11436996 On ch=3 n=23 v=100
11437009 On ch=3 n=23 v=100
11437029 Off ch=3 n=21 v=0
11437031 On ch=3 n=18 v=100
11437041 On ch=3 n=54 v=100
11437115 Off ch=3 n=18 v=0
11437116 Off ch=3 n=23 v=0
11437123 Off ch=3 n=23 v=0
11437166 Off ch=3 n=54 v=0
11437584 On ch=3 n=18 v=100
11437625 On ch=3 n=16 v=100
11437652 On ch=3 n=11 v=100
11437656 On ch=3 n=23 v=100
11437844 On ch=3 n=10 v=100
11437854 Off ch=3 n=11 v=0
11437856 Off ch=3 n=16 v=0
11437863 Off ch=3 n=18 v=0
11437919 Off ch=3 n=23 v=0
11438214 Off ch=3 n=10 v=0
11438216 On ch=3 n=9 v=100
11438437 Off ch=3 n=9 v=0
11439913 On ch=3 n=40 v=100
11440029 Off ch=3 n=40 v=0
11445173 On ch=3 n=21 v=100
11445209 Off ch=3 n=21 v=0
11445220 On ch=3 n=28 v=100
11445380 Off ch=3 n=28 v=0
11446422 On ch=3 n=33 v=100
11446467 On ch=3 n=40 v=100
11446473 On ch=3 n=27 v=100
11446581 Off ch=3 n=33 v=0
11446581 Off ch=3 n=27 v=0
11446625 Off ch=3 n=40 v=0
11446754 On ch=3 n=54 v=100
11446974 Off ch=3 n=54 v=0
11447055 On ch=3 n=58 v=100
11447277 Off ch=3 n=58 v=0
11449134 On ch=3 n=35 v=100
11449613 Off ch=3 n=35 v=0
11449662 On ch=3 n=17 v=100
11449925 Off ch=3 n=17 v=0
11450129 On ch=3 n=19 v=100
11450133 On ch=3 n=33 v=100
11450202 Off ch=3 n=19 v=0
11450223 Off ch=3 n=33 v=0
11450248 On ch=3 n=6 v=100
11450798 Off ch=3 n=6 v=0
11451698 On ch=3 n=29 v=100
11451950 Off ch=3 n=29 v=0
11452053 On ch=3 n=35 v=100
11452101 Off ch=3 n=35 v=0
11452153 On ch=3 n=23 v=100
11452260 Off ch=3 n=23 v=0
11452542 On ch=3 n=21 v=100
11452613 Off ch=3 n=21 v=0
11453667 On ch=3 n=6 v=100
11454325 On ch=3 n=45 v=100
11454518 On ch=3 n=28 v=100
11454530 On ch=3 n=48 v=100
11454536 Off ch=3 n=6 v=0
11454538 On ch=3 n=11 v=100
11454729 Off ch=3 n=11 v=0
11454737 Off ch=3 n=45 v=0
11454776 Off ch=3 n=28 v=0
11454815 Off ch=3 n=48 v=0
11454885 On ch=3 n=11 v=100
11455144 Off ch=3 n=11 v=0
11455558 On ch=3 n=19 v=100
11456051 On ch=3 n=28 v=100
11456127 Off ch=3 n=19 v=0
11456142 On ch=3 n=20 v=100
11456142 On ch=3 n=20 v=100
11456214 On ch=3 n=13 v=100
11456220 On ch=3 n=21 v=100
11456570 Off ch=3 n=28 v=0
11456586 Off ch=3 n=13 v=0
11456600 Off ch=3 n=20 v=0
11456600 Off ch=3 n=20 v=0
11456706 Off ch=3 n=21 v=0
11456740 On ch=3 n=44 v=100
11456808 On ch=3 n=43 v=100
11456838 On ch=3 n=23 v=100
11456868 On ch=3 n=18 v=100
11456970 On ch=3 n=5 v=100
11456972 Off ch=3 n=18 v=0
11456973 Off ch=3 n=43 v=0
11456975 Off ch=3 n=23 v=0
11456983 Off ch=3 n=44 v=0
11457028 Off ch=3 n=5 v=0
11457218 On ch=3 n=24 v=100
11457239 On ch=3 n=19 v=100
11457328 Off ch=3 n=24 v=0
11457329 Off ch=3 n=19 v=0
11457525 On ch=3 n=40 v=100
11457602 On ch=3 n=34 v=100
11457745 Off ch=3 n=34 v=0
11457746 Off ch=3 n=40 v=0
11458129 On ch=3 n=13 v=100
11458330 On ch=3 n=10 v=100
11458334 Off ch=3 n=13 v=0
11458464 Off ch=3 n=10 v=0
11458540 On ch=3 n=17 v=100
11458719 Off ch=3 n=17 v=0
11458753 On ch=3 n=7 v=100
11458819 Off ch=3 n=7 v=0
11458834 On ch=3 n=12 v=100
11458857 On ch=3 n=23 v=100
11458869 Off ch=3 n=12 v=0
11458884 On ch=3 n=20 v=100
11459017 Off ch=3 n=23 v=0
11459049 On ch=3 n=24 v=100
11459055 Off ch=3 n=20 v=0
11459321 Off ch=3 n=24 v=0
11459508 On ch=3 n=17 v=100
11459673 Off ch=3 n=17 v=0
11460323 On ch=3 n=14 v=100
11460365 On ch=3 n=10 v=100
11460368 Off ch=3 n=14 v=0
11460598 Off ch=3 n=10 v=0
11460629 On ch=3 n=10 v=100
11460860 Off ch=3 n=10 v=0
11460997 On ch=3 n=16 v=100
11461544 Off ch=3 n=16 v=0
11462511 On ch=3 n=19 v=100
11462916 Off ch=3 n=19 v=0
11462972 On ch=3 n=15 v=100
11463353 Off ch=3 n=15 v=0
11464712 On ch=3 n=21 v=100
11464781 Off ch=3 n=21 v=0
11464835 On ch=3 n=34 v=100
11464845 On ch=3 n=35 v=100
11465072 Off ch=3 n=35 v=0
11465095 Off ch=3 n=34 v=0
11465483 On ch=3 n=53 v=100
11465511 On ch=3 n=18 v=100
11465635 Off ch=3 n=53 v=0
11465680 Off ch=3 n=18 v=0
11465754 On ch=3 n=21 v=100
11465779 Off ch=3 n=21 v=0
11474581 On ch=3 n=41 v=100
11474680 Off ch=3 n=41 v=0
11475027 On ch=3 n=49 v=100
11475387 Off ch=3 n=49 v=0
11477298 On ch=3 n=58 v=100
11477413 Off ch=3 n=58 v=0
11477760 On ch=3 n=47 v=100
11478092 Off ch=3 n=47 v=0
11480677 On ch=3 n=1 v=100
11481763 Off ch=3 n=1 v=0
11481795 On ch=3 n=7 v=100
11481985 Off ch=3 n=7 v=0
11484007 On ch=3 n=7 v=100
11484220 Off ch=3 n=7 v=0
11484224 On ch=3 n=3 v=100
11484305 Off ch=3 n=3 v=0
11493976 On ch=3 n=5 v=100
11495319 Off ch=3 n=5 v=0
11518159 On ch=3 n=47 v=100
11518175 On ch=3 n=57 v=100
11518261 Off ch=3 n=47 v=0
11518272 Off ch=3 n=57 v=0
11518289 On ch=3 n=56 v=100
11518408 Off ch=3 n=56 v=0
11520829 On ch=3 n=62 v=100
11520942 Off ch=3 n=62 v=0
11524044 On ch=3 n=55 v=100
11524132 Off ch=3 n=55 v=0
11524171 On ch=3 n=60 v=100
11524171 On ch=3 n=60 v=100
11524299 Off ch=3 n=60 v=0
11524299 Off ch=3 n=60 v=0
11524650 On ch=3 n=64 v=100
11524777 Off ch=3 n=64 v=0
11524785 On ch=3 n=16 v=100
11524844 Off ch=3 n=16 v=0
11524914 On ch=3 n=16 v=100
11525035 On ch=3 n=36 v=100
11525140 On ch=3 n=52 v=100
11525166 Off ch=3 n=16 v=0
11525180 On ch=3 n=7 v=100
11525248 Off ch=3 n=36 v=0
11525451 Off ch=3 n=52 v=0
11526051 Off ch=3 n=7 v=0
11526083 On ch=3 n=4 v=100
11526598 On ch=3 n=56 v=100
11526634 Off ch=3 n=4 v=0
11526743 On ch=3 n=54 v=100
11526768 Off ch=3 n=56 v=0
11526917 Off ch=3 n=54 v=0
11532103 On ch=3 n=19 v=100
11532175 On ch=3 n=18 v=100
11532187 Off ch=3 n=19 v=0
11532190 On ch=3 n=10 v=100
11532286 Off ch=3 n=18 v=0
11532787 Off ch=3 n=10 v=0
11532848 On ch=3 n=22 v=100
11532901 Off ch=3 n=22 v=0
11532920 On ch=3 n=20 v=100
11533009 On ch=3 n=16 v=100
11533011 On ch=3 n=30 v=100
11533018 Off ch=3 n=20 v=0
11533257 Off ch=3 n=16 v=0
11533318 Off ch=3 n=30 v=0
11534100 On ch=3 n=10 v=100
11534281 Off ch=3 n=10 v=0
11535110 On ch=3 n=16 v=100
11535130 On ch=3 n=24 v=100
11535289 Off ch=3 n=16 v=0
11535600 On ch=3 n=5 v=100
11536219 Off ch=3 n=24 v=0
11536228 Off ch=3 n=5 v=0
11536408 On ch=3 n=4 v=100
11536891 Off ch=3 n=4 v=0
11536893 On ch=3 n=5 v=100
11539465 On ch=3 n=8 v=100
11539471 Off ch=3 n=5 v=0
11539633 On ch=3 n=5 v=100
11539691 Off ch=3 n=8 v=0
11541021 On ch=3 n=4 v=100
11541021 Off ch=3 n=5 v=0
11541296 Off ch=3 n=4 v=0
11541297 On ch=3 n=5 v=100
11542476 Off ch=3 n=5 v=0
11542572 On ch=3 n=4 v=100
11544237 Off ch=3 n=4 v=0
11545559 On ch=3 n=14 v=100
11545773 Off ch=3 n=14 v=0
11547452 On ch=3 n=29 v=100
11547631 Off ch=3 n=29 v=0
11548898 On ch=3 n=28 v=100
11549038 Off ch=3 n=28 v=0
11549964 On ch=3 n=15 v=100
11550178 Off ch=3 n=15 v=0
11550826 On ch=3 n=43 v=100
11550920 On ch=3 n=2 v=100
11550930 On ch=3 n=41 v=100
11550987 Off ch=3 n=43 v=0
11551003 Off ch=3 n=2 v=0
11551091 Off ch=3 n=41 v=0
11551312 On ch=3 n=18 v=100
11551396 On ch=3 n=1 v=100
11551405 Off ch=3 n=18 v=0
11552267 Off ch=3 n=1 v=0
11553244 On ch=3 n=17 v=100
11553288 Off ch=3 n=17 v=0
11553768 On ch=3 n=9 v=100
11553882 On ch=3 n=2 v=100
11553882 Off ch=3 n=9 v=0
11554402 Off ch=3 n=2 v=0
11556074 On ch=3 n=14 v=100
11556087 On ch=3 n=7 v=100
11556188 Off ch=3 n=14 v=0
11556191 Off ch=3 n=7 v=0
11556274 On ch=3 n=6 v=100
11556586 Off ch=3 n=6 v=0
11563477 On ch=3 n=30 v=100
11563641 Off ch=3 n=30 v=0
11563711 On ch=3 n=4 v=100
11563948 Off ch=3 n=4 v=0
11564046 On ch=3 n=4 v=100
11564835 On ch=3 n=8 v=100
11564853 Off ch=3 n=4 v=0
11565083 Off ch=3 n=8 v=0
11565091 On ch=3 n=4 v=100
11565900 On ch=3 n=5 v=100
11565904 Off ch=3 n=4 v=0
11567061 Off ch=3 n=5 v=0
11567066 On ch=3 n=19 v=100
11567116 On ch=3 n=60 v=100
11567247 Off ch=3 n=19 v=0
11567673 On ch=3 n=54 v=100
11568232 Off ch=3 n=60 v=0
11568235 Off ch=3 n=54 v=0
11568912 On ch=3 n=58 v=100
11569188 On ch=3 n=54 v=100
11569407 Off ch=3 n=58 v=0
11569580 Off ch=3 n=54 v=0
11569621 On ch=3 n=16 v=100
11569700 Off ch=3 n=16 v=0
11569881 On ch=3 n=1 v=100
11570067 Off ch=3 n=1 v=0
11574467 On ch=3 n=57 v=100
11574467 On ch=3 n=57 v=100
11574590 Off ch=3 n=57 v=0
11574590 Off ch=3 n=57 v=0
11574597 On ch=3 n=55 v=100
11574597 On ch=3 n=55 v=100
11574749 Off ch=3 n=55 v=0
11574749 Off ch=3 n=55 v=0
11574943 On ch=3 n=59 v=100
11574943 On ch=3 n=59 v=100
11575109 Off ch=3 n=59 v=0
11575109 Off ch=3 n=59 v=0
11576972 On ch=3 n=62 v=100
11576972 On ch=3 n=62 v=100
11577110 Off ch=3 n=62 v=0
11577110 Off ch=3 n=62 v=0
11578566 On ch=3 n=53 v=100
11578684 Off ch=3 n=53 v=0
11579246 On ch=3 n=6 v=100
11579898 Off ch=3 n=6 v=0
11579908 On ch=3 n=2 v=100
11579985 On ch=3 n=3 v=100
11579989 Off ch=3 n=2 v=0
11580495 On ch=3 n=40 v=100
11580553 Off ch=3 n=3 v=0
11580561 Off ch=3 n=40 v=0
11580909 On ch=3 n=10 v=100
11581930 Off ch=3 n=10 v=0
11604366 On ch=3 n=0 v=100
11605022 On ch=3 n=3 v=100
11605026 Off ch=3 n=0 v=0
11606789 Off ch=3 n=3 v=0
11607742 On ch=3 n=3 v=100
11607823 Off ch=3 n=3 v=0
11607827 On ch=3 n=7 v=100
11608040 Off ch=3 n=7 v=0
11610064 On ch=3 n=6 v=100
11610254 Off ch=3 n=6 v=0
11610286 On ch=3 n=1 v=100
11611363 Off ch=3 n=1 v=0
11614974 On ch=3 n=48 v=100
11615334 Off ch=3 n=48 v=0
11615630 On ch=3 n=58 v=100
11615745 Off ch=3 n=58 v=0
11615819 On ch=3 n=45 v=100
11615903 Off ch=3 n=45 v=0
11617633 On ch=3 n=48 v=100
11617993 Off ch=3 n=48 v=0
11618477 On ch=3 n=46 v=100
11618563 Off ch=3 n=46 v=0
11620293 On ch=3 n=48 v=100
11620653 Off ch=3 n=48 v=0
11620949 On ch=3 n=58 v=100
11621064 Off ch=3 n=58 v=0
11621138 On ch=3 n=45 v=100
11621222 Off ch=3 n=45 v=0
11622952 On ch=3 n=48 v=100
11623312 Off ch=3 n=48 v=0
11623608 On ch=3 n=58 v=100
11623608 On ch=3 n=58 v=100
11623723 Off ch=3 n=58 v=0
11623723 Off ch=3 n=58 v=0
11624071 On ch=3 n=43 v=100
11624403 Off ch=3 n=43 v=0
11624929 On ch=3 n=58 v=100
11625007 Off ch=3 n=58 v=0
11626685 On ch=3 n=45 v=100
11627046 Off ch=3 n=45 v=0
11627054 On ch=3 n=49 v=100
11627079 On ch=3 n=8 v=100
11627105 On ch=3 n=5 v=100
11627132 Off ch=3 n=49 v=0
11627308 Off ch=3 n=8 v=0
11628823 Off ch=3 n=5 v=0
11628876 On ch=3 n=5 v=100
11629118 On ch=3 n=12 v=100
11629352 Off ch=3 n=5 v=0
11629655 Off ch=3 n=12 v=0
11643437 On ch=3 n=8 v=100
11644917 Off ch=3 n=8 v=0
11645222 On ch=3 n=7 v=100
11645383 On ch=3 n=8 v=100
11645404 Off ch=3 n=7 v=0
11645710 Off ch=3 n=8 v=0
11645722 On ch=3 n=4 v=100
11645978 On ch=3 n=17 v=100
11645981 Off ch=3 n=4 v=0
11646027 Off ch=3 n=17 v=0
11648958 On ch=3 n=6 v=100
11649505 Off ch=3 n=6 v=0
11649931 On ch=3 n=25 v=100
11650041 Off ch=3 n=25 v=0
11650257 On ch=3 n=29 v=100
11650332 Off ch=3 n=29 v=0
11650336 On ch=3 n=16 v=100
11650360 On ch=3 n=28 v=100
11650633 Off ch=3 n=16 v=0
11650681 Off ch=3 n=28 v=0
11651518 On ch=3 n=34 v=100
11651538 On ch=3 n=12 v=100
11651609 Off ch=3 n=34 v=0
11652203 Off ch=3 n=12 v=0
11653598 On ch=3 n=4 v=100
11654363 Off ch=3 n=4 v=0
11654436 On ch=3 n=4 v=100
11654913 Off ch=3 n=4 v=0
11656539 On ch=3 n=6 v=100
11657080 Off ch=3 n=6 v=0
11657498 On ch=3 n=8 v=100
11657532 Off ch=3 n=8 v=0
11657533 On ch=3 n=14 v=100
11657613 Off ch=3 n=14 v=0
11657651 On ch=3 n=14 v=100
11657679 On ch=3 n=12 v=100
11657697 Off ch=3 n=14 v=0
11657820 Off ch=3 n=12 v=0
11657821 On ch=3 n=6 v=100
11658033 Off ch=3 n=6 v=0
11658063 On ch=3 n=7 v=100
11658871 Off ch=3 n=7 v=0
11658880 On ch=3 n=5 v=100
11659463 On ch=3 n=14 v=100
11659471 Off ch=3 n=5 v=0
11659481 On ch=3 n=21 v=100
11659500 Off ch=3 n=14 v=0
11659638 Off ch=3 n=21 v=0
11660930 On ch=3 n=11 v=100
11661141 On ch=3 n=37 v=100
11661151 Off ch=3 n=11 v=0
11661191 On ch=3 n=8 v=100
11661374 Off ch=3 n=37 v=0
11662431 Off ch=3 n=8 v=0
11662434 On ch=3 n=17 v=100
11662624 On ch=3 n=9 v=100
11662646 Off ch=3 n=17 v=0
11663564 Off ch=3 n=9 v=0
11663584 On ch=3 n=10 v=100
11664031 On ch=3 n=39 v=100
11664057 On ch=3 n=17 v=100
11664062 Off ch=3 n=10 v=0
11664117 Off ch=3 n=39 v=0
11664132 Off ch=3 n=17 v=0
11665591 On ch=3 n=28 v=100
11665617 On ch=3 n=36 v=100
11665773 Off ch=3 n=28 v=0
11665793 On ch=3 n=17 v=100
11665833 Off ch=3 n=36 v=0
11665969 Off ch=3 n=17 v=0
11666011 On ch=3 n=8 v=100
11666052 Off ch=3 n=8 v=0
11666237 On ch=3 n=35 v=100
11666378 Off ch=3 n=35 v=0
11667596 On ch=3 n=27 v=100
11667895 On ch=3 n=2 v=100
11668015 Off ch=3 n=27 v=0
11670291 On ch=3 n=33 v=100
11670344 On ch=3 n=28 v=100
11670367 Off ch=3 n=2 v=0
11670379 Off ch=3 n=33 v=0
11670465 Off ch=3 n=28 v=0
11670467 On ch=3 n=2 v=100
11670786 On ch=3 n=11 v=100
11670787 Off ch=3 n=2 v=0
11671264 Off ch=3 n=11 v=0
11672805 On ch=3 n=15 v=100
11672822 On ch=3 n=7 v=100
11672959 Off ch=3 n=15 v=0
11673073 On ch=3 n=9 v=100
11673074 Off ch=3 n=7 v=0
11673672 Off ch=3 n=9 v=0
11673870 On ch=3 n=31 v=100
11673900 On ch=3 n=9 v=100
11673901 On ch=3 n=31 v=100
11674081 Off ch=3 n=31 v=0
11674087 Off ch=3 n=9 v=0
11674120 Off ch=3 n=31 v=0
11674358 On ch=3 n=37 v=100
11674556 Off ch=3 n=37 v=0
11674912 On ch=3 n=15 v=100
11675142 Off ch=3 n=15 v=0
11675539 On ch=3 n=15 v=100
11675879 Off ch=3 n=15 v=0
11675881 On ch=3 n=4 v=100
11676175 Off ch=3 n=4 v=0
11676660 On ch=3 n=22 v=100
11676768 Off ch=3 n=22 v=0
11676899 On ch=3 n=23 v=100
11677013 On ch=3 n=11 v=100
11677029 Off ch=3 n=23 v=0
11677206 On ch=3 n=0 v=100
11677210 Off ch=3 n=11 v=0
11677244 On ch=3 n=28 v=100
11677245 Off ch=3 n=0 v=0
11677292 Off ch=3 n=28 v=0
11681856 On ch=3 n=9 v=100
11681994 Off ch=3 n=9 v=0
11689185 On ch=3 n=18 v=100
11689312 Off ch=3 n=18 v=0
11689593 On ch=3 n=20 v=100
11689658 Off ch=3 n=20 v=0
11689661 On ch=3 n=12 v=100
11689661 On ch=3 n=37 v=100
11689713 Off ch=3 n=12 v=0
11689737 Off ch=3 n=37 v=0
11689888 On ch=3 n=10 v=100
11690239 Off ch=3 n=10 v=0
11690929 On ch=3 n=10 v=100
11691344 Off ch=3 n=10 v=0
11692830 On ch=3 n=23 v=100
11692918 Off ch=3 n=23 v=0
11693737 On ch=3 n=12 v=100
11693755 Off ch=3 n=12 v=0
11693846 On ch=3 n=12 v=100
11693862 On ch=3 n=6 v=100
11694118 Off ch=3 n=6 v=0
11694123 Off ch=3 n=12 v=0
11694162 On ch=3 n=14 v=100
11694337 Off ch=3 n=14 v=0
11694341 On ch=3 n=9 v=100
11694720 On ch=3 n=7 v=100
11694778 Off ch=3 n=9 v=0
11694925 On ch=3 n=17 v=100
11694971 Off ch=3 n=7 v=0
11694984 On ch=3 n=7 v=100
11694991 On ch=3 n=30 v=100
11695038 On ch=3 n=53 v=100
11695083 Off ch=3 n=17 v=0
11695083 Off ch=3 n=7 v=0
11695097 Off ch=3 n=30 v=0
11695305 On ch=3 n=18 v=100
11695393 On ch=3 n=47 v=100
11695441 On ch=3 n=45 v=100
11695441 On ch=3 n=45 v=100
11695455 Off ch=3 n=18 v=0
11695458 On ch=3 n=37 v=100
11695545 On ch=3 n=23 v=100
11695606 Off ch=3 n=53 v=0
11695638 Off ch=3 n=47 v=0
11695638 Off ch=3 n=37 v=0
11695654 Off ch=3 n=23 v=0
11695667 Off ch=3 n=45 v=0
11695667 Off ch=3 n=45 v=0
11696522 On ch=3 n=14 v=100
11696822 On ch=3 n=12 v=100
11696825 Off ch=3 n=14 v=0
11696847 On ch=3 n=3 v=100
11697094 On ch=3 n=18 v=100
11697127 Off ch=3 n=3 v=0
11697137 Off ch=3 n=12 v=0
11697142 On ch=3 n=16 v=100
11697391 Off ch=3 n=18 v=0
11697401 Off ch=3 n=16 v=0
11697405 On ch=3 n=9 v=100
11697479 Off ch=3 n=9 v=0
11697483 On ch=3 n=20 v=100
11697485 On ch=3 n=36 v=100
11697485 On ch=3 n=36 v=100
11697523 On ch=3 n=7 v=100
11697529 On ch=3 n=19 v=100
11697804 Off ch=3 n=20 v=0
11697804 Off ch=3 n=7 v=0
11697846 Off ch=3 n=36 v=0
11697846 Off ch=3 n=36 v=0
11697892 Off ch=3 n=19 v=0
11697979 On ch=3 n=24 v=100
11697981 On ch=3 n=5 v=100
11698022 Off ch=3 n=5 v=0
11698097 Off ch=3 n=24 v=0
11698700 On ch=3 n=10 v=100
11699379 Off ch=3 n=10 v=0
11699489 On ch=3 n=24 v=100
11699594 Off ch=3 n=24 v=0
11699600 On ch=3 n=18 v=100
11699827 On ch=3 n=13 v=100
11699867 Off ch=3 n=18 v=0
11700471 Off ch=3 n=13 v=0
11700475 On ch=3 n=6 v=100
11700650 Off ch=3 n=6 v=0
11700664 On ch=3 n=7 v=100
11700863 Off ch=3 n=7 v=0
11701904 On ch=3 n=7 v=100
11702925 Off ch=3 n=7 v=0
11702929 On ch=3 n=7 v=100
11703394 Off ch=3 n=7 v=0
11703508 On ch=3 n=2 v=100
11704550 Off ch=3 n=2 v=0
11704567 On ch=3 n=9 v=100
11705087 Off ch=3 n=9 v=0
11705091 On ch=3 n=32 v=100
11705171 Off ch=3 n=32 v=0
11705784 On ch=3 n=30 v=100
11705803 On ch=3 n=21 v=100
11705903 Off ch=3 n=21 v=0
11705908 Off ch=3 n=30 v=0
11706919 On ch=3 n=7 v=100
11707121 Off ch=3 n=7 v=0
11707522 On ch=3 n=3 v=100
11707638 Off ch=3 n=3 v=0
11707649 On ch=3 n=6 v=100
11709127 Off ch=3 n=6 v=0
11709128 On ch=3 n=3 v=100
11709619 Off ch=3 n=3 v=0
11709621 On ch=3 n=15 v=100
11709688 On ch=3 n=7 v=100
11709699 Off ch=3 n=15 v=0
11709843 On ch=3 n=5 v=100
11709844 Off ch=3 n=7 v=0
11710085 Off ch=3 n=5 v=0
11710522 On ch=3 n=39 v=100
11710559 Off ch=3 n=39 v=0
11710620 On ch=3 n=39 v=100
11710620 On ch=3 n=13 v=100
11710655 Off ch=3 n=39 v=0
11710942 Off ch=3 n=13 v=0
11710976 On ch=3 n=88 v=100
11710976 On ch=3 n=88 v=100
11711042 On ch=3 n=15 v=100
11711113 Off ch=3 n=15 v=0
11711114 On ch=3 n=12 v=100
11711156 On ch=3 n=16 v=100
11711157 On ch=3 n=13 v=100
11711217 Off ch=3 n=88 v=0
11711217 Off ch=3 n=88 v=0
11711287 Off ch=3 n=12 v=0
11711306 Off ch=3 n=13 v=0
11711329 Off ch=3 n=16 v=0
11735556 On ch=3 n=1 v=100
11737065 Off ch=3 n=1 v=0
11737621 On ch=3 n=3 v=100
11741092 Off ch=3 n=3 v=0
11747656 On ch=3 n=3 v=100
11747892 Off ch=3 n=3 v=0
11751319 On ch=3 n=7 v=100
11753194 Off ch=3 n=7 v=0
11753224 On ch=3 n=7 v=100
11753837 Off ch=3 n=7 v=0
11753838 On ch=3 n=5 v=100
11754581 Off ch=3 n=5 v=0
11754582 On ch=3 n=33 v=100
11756764 Off ch=3 n=33 v=0
11756827 On ch=3 n=33 v=100
11758684 On ch=3 n=19 v=100
11758727 Off ch=3 n=33 v=0
11758976 Off ch=3 n=19 v=0
11760657 On ch=3 n=30 v=100
11761469 Off ch=3 n=30 v=0
11761471 On ch=3 n=4 v=100
11761947 Off ch=3 n=4 v=0
11763407 On ch=3 n=17 v=100
11763843 Off ch=3 n=17 v=0
11764696 On ch=3 n=16 v=100
11764786 On ch=3 n=8 v=100
11765169 Off ch=3 n=16 v=0
11765604 Off ch=3 n=8 v=0
11767950 On ch=3 n=25 v=100
11768137 Off ch=3 n=25 v=0
11768163 On ch=3 n=33 v=100
11768415 On ch=3 n=28 v=100
11768421 Off ch=3 n=33 v=0
11768422 On ch=3 n=14 v=100
11768691 Off ch=3 n=14 v=0
11768735 Off ch=3 n=28 v=0
11770845 On ch=3 n=10 v=100
11770960 On ch=3 n=13 v=100
11770964 Off ch=3 n=10 v=0
11771505 On ch=3 n=9 v=100
11771510 Off ch=3 n=13 v=0
11771810 Off ch=3 n=9 v=0
11771829 On ch=3 n=7 v=100
11772018 Off ch=3 n=7 v=0
11772030 On ch=3 n=9 v=100
11772085 On ch=3 n=25 v=100
11772129 Off ch=3 n=9 v=0
11772188 On ch=3 n=4 v=100
11772190 Off ch=3 n=25 v=0
11772366 Off ch=3 n=4 v=0
11772369 On ch=3 n=16 v=100
11772473 Off ch=3 n=16 v=0
11772476 On ch=3 n=14 v=100
11772690 Off ch=3 n=14 v=0
11772692 On ch=3 n=20 v=100
11772799 Off ch=3 n=20 v=0
11772898 On ch=3 n=24 v=100
11772991 Off ch=3 n=24 v=0
11773021 On ch=3 n=14 v=100
11773548 On ch=3 n=26 v=100
11773550 On ch=3 n=18 v=100
11773557 Off ch=3 n=14 v=0
11773591 Off ch=3 n=18 v=0
11773599 On ch=3 n=18 v=100
11773610 Off ch=3 n=26 v=0
11773682 Off ch=3 n=18 v=0
11774467 On ch=3 n=1 v=100
11775677 Off ch=3 n=1 v=0
11776893 On ch=3 n=14 v=100
11776978 Off ch=3 n=14 v=0
11776981 On ch=3 n=11 v=100
11777205 Off ch=3 n=11 v=0
11777209 On ch=3 n=27 v=100
11777314 Off ch=3 n=27 v=0
11777456 On ch=3 n=18 v=100
11777532 Off ch=3 n=18 v=0
11777604 On ch=3 n=9 v=100
11778102 Off ch=3 n=9 v=0
11778108 On ch=3 n=33 v=100
11778154 On ch=3 n=16 v=100
11778163 Off ch=3 n=33 v=0
11778238 Off ch=3 n=16 v=0
11779517 On ch=3 n=28 v=100
11779553 On ch=3 n=47 v=100
11779648 Off ch=3 n=28 v=0
11779689 Off ch=3 n=47 v=0
11779694 On ch=3 n=23 v=100
11779860 On ch=3 n=12 v=100
11779929 Off ch=3 n=23 v=0
11780054 On ch=3 n=11 v=100
11780141 Off ch=3 n=12 v=0
11780462 Off ch=3 n=11 v=0
11782678 On ch=3 n=19 v=100
11782723 Off ch=3 n=19 v=0
11783436 On ch=3 n=20 v=100
11783512 Off ch=3 n=20 v=0
11783528 On ch=3 n=11 v=100
11784235 Off ch=3 n=11 v=0
11784296 On ch=3 n=26 v=100
11784373 Off ch=3 n=26 v=0
11784519 On ch=3 n=24 v=100
11784626 Off ch=3 n=24 v=0
11784629 On ch=3 n=11 v=100
11784988 On ch=3 n=10 v=100
11784990 Off ch=3 n=11 v=0
11785557 Off ch=3 n=10 v=0
11786766 On ch=3 n=1 v=100
11788608 Off ch=3 n=1 v=0
11789050 On ch=3 n=57 v=100
11789050 On ch=3 n=57 v=100
11789136 On ch=3 n=33 v=100
11789158 On ch=3 n=32 v=100
11789169 On ch=3 n=15 v=100
11789169 On ch=3 n=15 v=100
11789219 Off ch=3 n=33 v=0
11789241 Off ch=3 n=57 v=0
11789241 Off ch=3 n=57 v=0
11789258 Off ch=3 n=32 v=0
11789286 Off ch=3 n=15 v=0
11789286 Off ch=3 n=15 v=0
11790141 On ch=3 n=16 v=100
11790141 On ch=3 n=13 v=100
11791216 Off ch=3 n=13 v=0
11791383 Off ch=3 n=16 v=0
11791456 On ch=3 n=40 v=100
11791569 Off ch=3 n=40 v=0
11791603 On ch=3 n=19 v=100
11791610 On ch=3 n=16 v=100
11791760 Off ch=3 n=19 v=0
11791779 Off ch=3 n=16 v=0
11792485 On ch=3 n=7 v=100
11793088 Off ch=3 n=7 v=0
11793130 On ch=3 n=7 v=100
11793501 Off ch=3 n=7 v=0
11794356 On ch=3 n=15 v=100
11794392 On ch=3 n=17 v=100
11794398 Off ch=3 n=15 v=0
11794647 On ch=3 n=10 v=100
11794647 Off ch=3 n=17 v=0
11794846 Off ch=3 n=10 v=0
11794857 On ch=3 n=12 v=100
11794935 Off ch=3 n=12 v=0
11796142 On ch=3 n=18 v=100
11796183 Off ch=3 n=18 v=0
11798176 On ch=3 n=15 v=100
11798269 Off ch=3 n=15 v=0
11798350 On ch=3 n=28 v=100
11798502 On ch=3 n=31 v=100
11798557 On ch=3 n=37 v=100
11798581 Off ch=3 n=28 v=0
11798582 On ch=3 n=42 v=100
11798584 On ch=3 n=45 v=100
11798589 On ch=3 n=20 v=100
11798702 Off ch=3 n=20 v=0
11798804 Off ch=3 n=31 v=0
11798817 Off ch=3 n=37 v=0
11798845 Off ch=3 n=42 v=0
11798877 Off ch=3 n=45 v=0
11799925 On ch=3 n=21 v=100
11799998 Off ch=3 n=21 v=0
11800167 On ch=3 n=16 v=100
11800263 On ch=3 n=7 v=100
11800274 Off ch=3 n=16 v=0
11800491 On ch=3 n=45 v=100
11800513 Off ch=3 n=7 v=0
11800520 On ch=3 n=13 v=100
11800710 Off ch=3 n=45 v=0
11800816 On ch=3 n=19 v=100
11800991 On ch=3 n=8 v=100
11800991 On ch=3 n=16 v=100
11800993 Off ch=3 n=13 v=0
11801341 On ch=3 n=13 v=100
11801346 Off ch=3 n=19 v=0
11801368 Off ch=3 n=8 v=0
11801527 Off ch=3 n=16 v=0
11801717 On ch=3 n=35 v=100
11801824 Off ch=3 n=13 v=0
11801882 Off ch=3 n=35 v=0
11801951 On ch=3 n=7 v=100
11803549 Off ch=3 n=7 v=0
11810365 On ch=3 n=56 v=100
11810451 Off ch=3 n=56 v=0
11812770 On ch=3 n=56 v=100
11812879 Off ch=3 n=56 v=0
11814218 On ch=3 n=27 v=100
11814605 Off ch=3 n=27 v=0
11814657 On ch=3 n=27 v=100
11816339 On ch=3 n=16 v=100
11816341 Off ch=3 n=27 v=0
11817371 Off ch=3 n=16 v=0
11817398 On ch=3 n=9 v=100
11817515 Off ch=3 n=9 v=0
11837075 On ch=3 n=54 v=100
11837075 On ch=3 n=54 v=100
11837204 Off ch=3 n=54 v=0
11837204 Off ch=3 n=54 v=0
11837235 On ch=3 n=63 v=100
11837357 Off ch=3 n=63 v=0
11837863 On ch=3 n=54 v=100
11837863 On ch=3 n=54 v=100
11837992 Off ch=3 n=54 v=0
11837992 Off ch=3 n=54 v=0
11838046 On ch=3 n=64 v=100
11838144 Off ch=3 n=64 v=0
11838681 On ch=3 n=69 v=100
11838789 Off ch=3 n=69 v=0
11838842 On ch=3 n=70 v=100
11838966 Off ch=3 n=70 v=0
11839000 On ch=3 n=67 v=100
11839125 Off ch=3 n=67 v=0
11839314 On ch=3 n=66 v=100
11839314 On ch=3 n=66 v=100
11839444 Off ch=3 n=66 v=0
11839444 Off ch=3 n=66 v=0
11839791 On ch=3 n=62 v=100
11839791 On ch=3 n=62 v=100
11839921 Off ch=3 n=62 v=0
11839921 Off ch=3 n=62 v=0
11840427 On ch=3 n=58 v=100
11840554 Off ch=3 n=58 v=0
11840749 On ch=3 n=66 v=100
11840749 On ch=3 n=66 v=100
11840880 Off ch=3 n=66 v=0
11840880 Off ch=3 n=66 v=0
11840909 On ch=3 n=72 v=100
11841038 Off ch=3 n=72 v=0
11841063 On ch=3 n=66 v=100
11841063 On ch=3 n=66 v=100
11841190 Off ch=3 n=66 v=0
11841190 Off ch=3 n=66 v=0
11842180 On ch=3 n=62 v=100
11842300 Off ch=3 n=62 v=0
11842340 On ch=3 n=69 v=100
11842340 On ch=3 n=69 v=100
11842470 Off ch=3 n=69 v=0
11842470 Off ch=3 n=69 v=0
11842976 On ch=3 n=65 v=100
11843098 Off ch=3 n=65 v=0
11845823 On ch=3 n=58 v=100
11845823 On ch=3 n=58 v=100
11845945 Off ch=3 n=58 v=0
11845945 Off ch=3 n=58 v=0
11845981 On ch=3 n=68 v=100
11846110 Off ch=3 n=68 v=0
11846140 On ch=3 n=71 v=100
11846270 Off ch=3 n=71 v=0
11846298 On ch=3 n=69 v=100
11846423 Off ch=3 n=69 v=0
11846453 On ch=3 n=63 v=100
11846453 On ch=3 n=63 v=100
11846590 Off ch=3 n=63 v=0
11846590 Off ch=3 n=63 v=0
11846617 On ch=3 n=68 v=100
11846617 On ch=3 n=68 v=100
11846739 Off ch=3 n=68 v=0
11846739 Off ch=3 n=68 v=0
11847239 On ch=3 n=59 v=100
11847239 On ch=3 n=59 v=100
11847366 Off ch=3 n=59 v=0
11847366 Off ch=3 n=59 v=0
11847557 On ch=3 n=59 v=100
11847557 On ch=3 n=59 v=100
11847684 Off ch=3 n=59 v=0
11847684 Off ch=3 n=59 v=0
11848184 On ch=3 n=67 v=100
11848311 Off ch=3 n=67 v=0
11848502 On ch=3 n=67 v=100
11848616 Off ch=3 n=67 v=0
11849451 On ch=3 n=64 v=100
11849576 Off ch=3 n=64 v=0
11849769 On ch=3 n=68 v=100
11849769 On ch=3 n=68 v=100
11849894 Off ch=3 n=68 v=0
11849894 Off ch=3 n=68 v=0
11850392 On ch=3 n=60 v=100
11850392 On ch=3 n=60 v=100
11850526 Off ch=3 n=60 v=0
11850526 Off ch=3 n=60 v=0
11850555 On ch=3 n=60 v=100
11850555 On ch=3 n=60 v=100
11850680 Off ch=3 n=60 v=0
11850680 Off ch=3 n=60 v=0
11850714 On ch=3 n=62 v=100
11850839 Off ch=3 n=62 v=0
11851032 On ch=3 n=66 v=100
11851032 On ch=3 n=66 v=100
11851156 Off ch=3 n=66 v=0
11851156 Off ch=3 n=66 v=0
11851346 On ch=3 n=66 v=100
11851346 On ch=3 n=66 v=100
11851475 Off ch=3 n=66 v=0
11851475 Off ch=3 n=66 v=0
11851506 On ch=3 n=66 v=100
11851638 Off ch=3 n=66 v=0
11851669 On ch=3 n=67 v=100
11851793 Off ch=3 n=67 v=0
11851827 On ch=3 n=69 v=100
11851958 Off ch=3 n=69 v=0
11851986 On ch=3 n=65 v=100
11852012 On ch=3 n=56 v=100
11852101 Off ch=3 n=56 v=0
11852110 Off ch=3 n=65 v=0
11852609 On ch=3 n=57 v=100
11852609 On ch=3 n=57 v=100
11852738 Off ch=3 n=57 v=0
11852738 Off ch=3 n=57 v=0
11852772 On ch=3 n=71 v=100
11852901 Off ch=3 n=71 v=0
11852931 On ch=3 n=65 v=100
11852957 On ch=3 n=56 v=100
11853046 Off ch=3 n=56 v=0
11853055 Off ch=3 n=65 v=0
11853554 On ch=3 n=61 v=100
11853554 On ch=3 n=61 v=100
11853687 Off ch=3 n=61 v=0
11853687 Off ch=3 n=61 v=0
11853717 On ch=3 n=60 v=100
11853842 Off ch=3 n=60 v=0
11853876 On ch=3 n=61 v=100
11854000 Off ch=3 n=61 v=0
11854194 On ch=3 n=66 v=100
11854194 On ch=3 n=66 v=100
11854318 Off ch=3 n=66 v=0
11854318 Off ch=3 n=66 v=0
11854508 On ch=3 n=64 v=100
11854508 On ch=3 n=64 v=100
11854638 Off ch=3 n=64 v=0
11854638 Off ch=3 n=64 v=0
11854668 On ch=3 n=64 v=100
11854796 Off ch=3 n=64 v=0
11854831 On ch=3 n=67 v=100
11854955 Off ch=3 n=67 v=0
11854988 On ch=3 n=68 v=100
11855120 Off ch=3 n=68 v=0
11855148 On ch=3 n=65 v=100
11855174 On ch=3 n=56 v=100
11855263 Off ch=3 n=56 v=0
11855272 Off ch=3 n=65 v=0
11855770 On ch=3 n=54 v=100
11855770 On ch=3 n=54 v=100
11855899 Off ch=3 n=54 v=0
11855899 Off ch=3 n=54 v=0
11855930 On ch=3 n=63 v=100
11855930 On ch=3 n=63 v=100
11856052 Off ch=3 n=63 v=0
11856052 Off ch=3 n=63 v=0
11856903 On ch=3 n=64 v=100
11857024 Off ch=3 n=64 v=0
11857170 On ch=3 n=58 v=100
11857341 Off ch=3 n=58 v=0
11857690 On ch=3 n=67 v=100
11857690 On ch=3 n=67 v=100
11857819 Off ch=3 n=67 v=0
11857819 Off ch=3 n=67 v=0
11858486 On ch=3 n=73 v=100
11858602 Off ch=3 n=73 v=0
11861212 On ch=3 n=3 v=100
11861878 On ch=3 n=22 v=100
11861880 Off ch=3 n=3 v=0
11861885 On ch=3 n=8 v=100
11862160 Off ch=3 n=8 v=0
11862186 Off ch=3 n=22 v=0
11866996 On ch=3 n=7 v=100
11867870 Off ch=3 n=7 v=0
11867876 On ch=3 n=3 v=100
11868372 Off ch=3 n=3 v=0
11872356 On ch=3 n=2 v=100
11874820 Off ch=3 n=2 v=0
11875657 On ch=3 n=42 v=100
11875693 On ch=3 n=31 v=100
11875887 Off ch=3 n=42 v=0
11876027 Off ch=3 n=31 v=0
11878499 On ch=3 n=22 v=100
11878594 Off ch=3 n=22 v=0
11879016 On ch=3 n=15 v=100
11879068 Off ch=3 n=15 v=0
11879078 On ch=3 n=17 v=100
11879155 Off ch=3 n=17 v=0
11879582 On ch=3 n=14 v=100
11879606 On ch=3 n=7 v=100
11879612 On ch=3 n=19 v=100
11879641 Off ch=3 n=14 v=0
11879887 Off ch=3 n=7 v=0
11879950 Off ch=3 n=19 v=0
11880547 On ch=3 n=22 v=100
11880547 On ch=3 n=10 v=100
11880912 Off ch=3 n=10 v=0
11881059 Off ch=3 n=22 v=0
11881171 On ch=3 n=19 v=100
11881263 On ch=3 n=20 v=100
11881263 On ch=3 n=20 v=100
11881272 Off ch=3 n=19 v=0
11881275 On ch=3 n=11 v=100
11881541 Off ch=3 n=11 v=0
11881586 On ch=3 n=12 v=100
11881636 Off ch=3 n=20 v=0
11881636 Off ch=3 n=20 v=0
11881709 On ch=3 n=9 v=100
11881711 Off ch=3 n=12 v=0
11882030 Off ch=3 n=9 v=0
11882057 On ch=3 n=16 v=100
11882057 On ch=3 n=9 v=100
11882057 Off ch=3 n=9 v=0
11882259 Off ch=3 n=16 v=0
11882548 On ch=3 n=14 v=100
11882602 Off ch=3 n=14 v=0
11882603 On ch=3 n=4 v=100
11882670 Off ch=3 n=4 v=0
11882910 On ch=3 n=18 v=100
11883005 Off ch=3 n=18 v=0
11883434 On ch=3 n=17 v=100
11883548 Off ch=3 n=17 v=0
11884909 On ch=3 n=22 v=100
11885219 Off ch=3 n=22 v=0
11885248 On ch=3 n=12 v=100
11885399 On ch=3 n=14 v=100
11885399 Off ch=3 n=12 v=0
11885935 Off ch=3 n=14 v=0
11886303 On ch=3 n=15 v=100
11886598 Off ch=3 n=15 v=0
11886623 On ch=3 n=7 v=100
11887102 Off ch=3 n=7 v=0
11888804 On ch=3 n=6 v=100
11889158 Off ch=3 n=6 v=0
11890040 On ch=3 n=8 v=100
11890851 On ch=3 n=14 v=100
11890855 Off ch=3 n=8 v=0
11890909 On ch=3 n=7 v=100
11890910 Off ch=3 n=14 v=0
11891181 Off ch=3 n=7 v=0
11891207 On ch=3 n=12 v=100
11891305 Off ch=3 n=12 v=0
11891361 On ch=3 n=12 v=100
11891611 Off ch=3 n=12 v=0
11891988 On ch=3 n=27 v=100
11892083 Off ch=3 n=27 v=0
11892696 On ch=3 n=3 v=100
11899393 Off ch=3 n=3 v=0
11899395 On ch=3 n=4 v=100
11901387 Off ch=3 n=4 v=0
11901388 On ch=3 n=6 v=100
11905746 On ch=3 n=4 v=100
11905797 Off ch=3 n=6 v=0
11910030 On ch=3 n=5 v=100
11912026 Off ch=3 n=4 v=0
11912055 Off ch=3 n=5 v=0
11912059 On ch=3 n=4 v=100
11914866 Off ch=3 n=4 v=0
11914868 On ch=3 n=2 v=100
11915146 On ch=3 n=89 v=100
11915348 On ch=3 n=26 v=100
11915374 Off ch=3 n=2 v=0
11915374 Off ch=3 n=89 v=0
11915374 Off ch=3 n=26 v=0
11915404 On ch=3 n=2 v=100
11915404 On ch=3 n=89 v=100
11915404 On ch=3 n=26 v=100
11915408 On ch=3 n=43 v=100
11915422 Off ch=3 n=2 v=0
11915559 Off ch=3 n=89 v=0
11915723 Off ch=3 n=43 v=0
11915723 Off ch=3 n=26 v=0
11915762 On ch=3 n=43 v=100
11915869 Off ch=3 n=43 v=0
11917184 On ch=3 n=13 v=100
11917263 Off ch=3 n=13 v=0
11917592 On ch=3 n=30 v=100
11917714 Off ch=3 n=30 v=0
11917847 On ch=3 n=35 v=100
11917847 On ch=3 n=35 v=100
11918109 On ch=3 n=6 v=100
11918334 Off ch=3 n=6 v=0
11918444 Off ch=3 n=35 v=0
11918444 Off ch=3 n=35 v=0
11918451 On ch=3 n=19 v=100
11918601 Off ch=3 n=19 v=0
11918627 On ch=3 n=35 v=100
11918724 Off ch=3 n=35 v=0
11919169 On ch=3 n=14 v=100
11919306 Off ch=3 n=14 v=0
11919378 On ch=3 n=32 v=100
11919777 Off ch=3 n=32 v=0
11919991 On ch=3 n=38 v=100
11920212 Off ch=3 n=38 v=0
11920280 On ch=3 n=53 v=100
11920633 Off ch=3 n=53 v=0
11920741 On ch=3 n=8 v=100
11921131 Off ch=3 n=8 v=0
11922307 On ch=3 n=18 v=100
11922347 On ch=3 n=2 v=100
11922355 Off ch=3 n=18 v=0
11924815 Off ch=3 n=2 v=0
11929115 On ch=3 n=3 v=100
11931571 Off ch=3 n=3 v=0
11933348 On ch=3 n=12 v=100
11933380 Off ch=3 n=12 v=0
11935498 On ch=3 n=20 v=100
11935648 Off ch=3 n=20 v=0
11937975 On ch=3 n=18 v=100
11938073 Off ch=3 n=18 v=0
11938584 On ch=3 n=9 v=100
11938820 On ch=3 n=20 v=100
11938821 Off ch=3 n=9 v=0
11941078 On ch=3 n=8 v=100
11941078 Off ch=3 n=20 v=0
11941208 Off ch=3 n=8 v=0
11941473 On ch=3 n=9 v=100
11941782 Off ch=3 n=9 v=0
11942353 On ch=3 n=7 v=100
11942938 On ch=3 n=11 v=100
11943305 Off ch=3 n=7 v=0
11943547 On ch=3 n=22 v=100
11943577 On ch=3 n=17 v=100
11943686 Off ch=3 n=11 v=0
11943784 Off ch=3 n=22 v=0
11943785 Off ch=3 n=17 v=0
11943826 On ch=3 n=11 v=100
11943860 On ch=3 n=17 v=100
11944057 Off ch=3 n=11 v=0
11944186 Off ch=3 n=17 v=0
11945450 On ch=3 n=14 v=100
11945581 Off ch=3 n=14 v=0
11945582 On ch=3 n=10 v=100
11945881 Off ch=3 n=10 v=0
11945920 On ch=3 n=9 v=100
11946132 Off ch=3 n=9 v=0
11946155 On ch=3 n=30 v=100
11946194 Off ch=3 n=30 v=0
11948964 On ch=3 n=39 v=100
11949063 Off ch=3 n=39 v=0
11949097 On ch=3 n=39 v=100
11949146 On ch=3 n=40 v=100
11949430 Off ch=3 n=39 v=0
11949469 Off ch=3 n=40 v=0
11950010 On ch=3 n=37 v=100
11950045 On ch=3 n=32 v=100
11950255 Off ch=3 n=37 v=0
11950462 On ch=3 n=33 v=100
11950487 Off ch=3 n=32 v=0
11950886 Off ch=3 n=33 v=0
11952254 On ch=3 n=18 v=100
11952280 On ch=3 n=5 v=100
11952294 Off ch=3 n=18 v=0
11952578 Off ch=3 n=5 v=0
11953386 On ch=3 n=16 v=100
11953672 Off ch=3 n=16 v=0
11959247 On ch=3 n=9 v=100
11959613 Off ch=3 n=9 v=0
11960832 On ch=3 n=19 v=100
11960899 On ch=3 n=12 v=100
11961056 On ch=3 n=19 v=100
11961240 Off ch=3 n=19 v=0
11961243 Off ch=3 n=12 v=0
11961267 Off ch=3 n=19 v=0
11962228 On ch=3 n=31 v=100
11962522 On ch=3 n=2 v=100
11962561 Off ch=3 n=31 v=0
11963283 On ch=3 n=27 v=100
11963298 Off ch=3 n=2 v=0
11963458 On ch=3 n=9 v=100
11963462 Off ch=3 n=27 v=0
11963946 On ch=3 n=9 v=100
11963949 Off ch=3 n=9 v=0
11963954 On ch=3 n=39 v=100
11964066 Off ch=3 n=9 v=0
11964095 Off ch=3 n=39 v=0
11964130 On ch=3 n=13 v=100
11964498 Off ch=3 n=13 v=0
11965418 On ch=3 n=23 v=100
11965484 On ch=3 n=21 v=100
11965648 Off ch=3 n=23 v=0
11965649 Off ch=3 n=21 v=0
11966012 On ch=3 n=26 v=100
11966029 On ch=3 n=39 v=100
11966065 Off ch=3 n=26 v=0
11966065 Off ch=3 n=39 v=0
11966111 On ch=3 n=26 v=100
11966111 On ch=3 n=39 v=100
11966239 Off ch=3 n=26 v=0
11966642 Off ch=3 n=39 v=0
11967315 On ch=3 n=32 v=100
11967423 Off ch=3 n=32 v=0
11967459 On ch=3 n=32 v=100
11967648 Off ch=3 n=32 v=0
11972465 On ch=3 n=25 v=100
11973014 Off ch=3 n=25 v=0
11975925 On ch=3 n=2 v=100
11976157 Off ch=3 n=2 v=0
11976617 On ch=3 n=5 v=100
11977977 On ch=3 n=7 v=100
11977977 Off ch=3 n=5 v=0
11978449 Off ch=3 n=7 v=0
11985651 On ch=3 n=15 v=100
11985972 On ch=3 n=12 v=100
11985983 Off ch=3 n=15 v=0
11986255 On ch=3 n=22 v=100
11986440 On ch=3 n=9 v=100
11986456 Off ch=3 n=12 v=0
11986497 Off ch=3 n=22 v=0
11986655 Off ch=3 n=9 v=0
11986661 On ch=3 n=8 v=100
11986917 Off ch=3 n=8 v=0
11988091 On ch=3 n=7 v=100
11989425 Off ch=3 n=7 v=0
11989727 On ch=3 n=10 v=100
11990377 Off ch=3 n=10 v=0
11991735 On ch=3 n=34 v=100
11991805 On ch=3 n=25 v=100
11991838 On ch=3 n=26 v=100
11991915 Off ch=3 n=34 v=0
11992015 Off ch=3 n=25 v=0
11992066 Off ch=3 n=26 v=0
11992522 On ch=3 n=26 v=100
11992524 On ch=3 n=50 v=100
11992723 Off ch=3 n=26 v=0
11992762 On ch=3 n=29 v=100
11992778 Off ch=3 n=50 v=0
11992857 Off ch=3 n=29 v=0
11993144 On ch=3 n=30 v=100
11993272 Off ch=3 n=30 v=0
11995299 On ch=3 n=32 v=100
11995309 On ch=3 n=19 v=100
11995371 Off ch=3 n=32 v=0
11995722 Off ch=3 n=19 v=0
11996107 On ch=3 n=22 v=100
11996141 On ch=3 n=16 v=100
11996237 Off ch=3 n=16 v=0
11996238 Off ch=3 n=22 v=0
11996405 On ch=3 n=7 v=100
11996405 On ch=3 n=7 v=100
11996660 On ch=3 n=40 v=100
11996768 On ch=3 n=9 v=100
11996768 On ch=3 n=9 v=100
11996771 Off ch=3 n=7 v=0
11996771 Off ch=3 n=7 v=0
11996792 Off ch=3 n=40 v=0
11996958 On ch=3 n=12 v=100
11996966 Off ch=3 n=9 v=0
11996966 Off ch=3 n=9 v=0
11997185 Off ch=3 n=12 v=0
11997188 On ch=3 n=11 v=100
11997351 Off ch=3 n=11 v=0
11997375 On ch=3 n=18 v=100
11997512 Off ch=3 n=18 v=0
11997525 On ch=3 n=11 v=100
11997834 Off ch=3 n=11 v=0
11997995 On ch=3 n=22 v=100
11998063 On ch=3 n=41 v=100
11998077 Off ch=3 n=22 v=0
11998196 Off ch=3 n=41 v=0
11998346 On ch=3 n=48 v=100
11998475 Off ch=3 n=48 v=0
11998722 On ch=3 n=12 v=100
11998929 Off ch=3 n=12 v=0
11999180 On ch=3 n=16 v=100
11999275 Off ch=3 n=16 v=0
11999356 On ch=3 n=29 v=100
11999411 On ch=3 n=22 v=100
11999674 Off ch=3 n=29 v=0
11999674 Off ch=3 n=22 v=0
12000286 On ch=3 n=4 v=100
12000376 Off ch=3 n=4 v=0
12000415 On ch=3 n=10 v=100
12000684 On ch=3 n=8 v=100
12000711 Off ch=3 n=10 v=0
12001376 Off ch=3 n=8 v=0
12001377 On ch=3 n=10 v=100
12001623 On ch=3 n=10 v=100
12001631 Off ch=3 n=10 v=0
12001794 On ch=3 n=1 v=100
12001798 Off ch=3 n=10 v=0
12001872 On ch=3 n=11 v=100
12001873 Off ch=3 n=1 v=0
12002050 Off ch=3 n=11 v=0
12002528 On ch=3 n=57 v=100
12002644 On ch=3 n=39 v=100
12002644 On ch=3 n=39 v=100
12002664 On ch=3 n=32 v=100
12002664 On ch=3 n=32 v=100
12002677 On ch=3 n=11 v=100
12002878 Off ch=3 n=11 v=0
12002879 Off ch=3 n=57 v=0
12002890 Off ch=3 n=32 v=0
12002890 Off ch=3 n=32 v=0
12002995 Off ch=3 n=39 v=0
12002995 Off ch=3 n=39 v=0
12003232 On ch=3 n=22 v=100
12003779 Off ch=3 n=22 v=0
12004338 On ch=3 n=6 v=100
12004567 Off ch=3 n=6 v=0
12005516 On ch=3 n=33 v=100
12005575 Off ch=3 n=33 v=0
12006111 On ch=3 n=18 v=100
12006140 On ch=3 n=10 v=100
12006271 On ch=3 n=15 v=100
12006342 Off ch=3 n=18 v=0
12006538 Off ch=3 n=10 v=0
12006590 Off ch=3 n=15 v=0
12009310 On ch=3 n=2 v=100
12009594 Off ch=3 n=2 v=0
12010529 On ch=3 n=25 v=100
12010698 Off ch=3 n=25 v=0
12011270 On ch=3 n=33 v=100
12011578 On ch=3 n=34 v=100
12011651 Off ch=3 n=33 v=0
12012123 Off ch=3 n=34 v=0
12012693 On ch=3 n=38 v=100
12013319 Off ch=3 n=38 v=0
12013407 On ch=3 n=38 v=100
12013471 Off ch=3 n=38 v=0
12013611 On ch=3 n=26 v=100
12013613 On ch=3 n=36 v=100
12013735 On ch=3 n=25 v=100
12013940 Off ch=3 n=26 v=0
12014035 Off ch=3 n=25 v=0
12014039 Off ch=3 n=36 v=0
12015449 On ch=3 n=6 v=100
12015569 Off ch=3 n=6 v=0
12015913 On ch=3 n=43 v=100
12016100 Off ch=3 n=43 v=0
12016145 On ch=3 n=21 v=100
12016169 On ch=3 n=7 v=100
12016240 Off ch=3 n=21 v=0
12016380 Off ch=3 n=7 v=0
12016382 On ch=3 n=6 v=100
12019140 Off ch=3 n=6 v=0
12019169 On ch=3 n=6 v=100
12021525 Off ch=3 n=6 v=0
12021558 On ch=3 n=6 v=100
12021573 Off ch=3 n=6 v=0
12021601 On ch=3 n=6 v=100
12022050 Off ch=3 n=6 v=0
12022052 On ch=3 n=5 v=100
12022090 On ch=3 n=3 v=100
12022092 Off ch=3 n=5 v=0
12022655 Off ch=3 n=3 v=0
12023302 On ch=3 n=37 v=100
12023322 On ch=3 n=29 v=100
12023428 Off ch=3 n=29 v=0
12023429 Off ch=3 n=37 v=0
12024190 On ch=3 n=16 v=100
12024225 On ch=3 n=13 v=100
12024468 Off ch=3 n=13 v=0
12024470 Off ch=3 n=16 v=0
12025630 On ch=3 n=28 v=100
12025777 Off ch=3 n=28 v=0
12028234 On ch=3 n=37 v=100
12028419 Off ch=3 n=37 v=0
12029494 On ch=3 n=21 v=100
12029566 Off ch=3 n=21 v=0
12029579 On ch=3 n=10 v=100
12029834 Off ch=3 n=10 v=0
12029836 On ch=3 n=12 v=100
12030395 On ch=3 n=15 v=100
12030400 Off ch=3 n=12 v=0
12030802 Off ch=3 n=15 v=0
12031013 On ch=3 n=33 v=100
12031036 On ch=3 n=7 v=100
12031114 Off ch=3 n=33 v=0
12032063 Off ch=3 n=7 v=0
12032448 On ch=3 n=13 v=100
12033381 Off ch=3 n=13 v=0
12033388 On ch=3 n=7 v=100
12033475 Off ch=3 n=7 v=0
12033490 On ch=3 n=2 v=100
12033915 On ch=3 n=5 v=100
12033915 On ch=3 n=8 v=100
12034363 Off ch=3 n=2 v=0
12035206 Off ch=3 n=5 v=0
12035365 Off ch=3 n=8 v=0
12035447 On ch=3 n=2 v=100
12035527 On ch=3 n=44 v=100
12035596 Off ch=3 n=2 v=0
12035597 On ch=3 n=18 v=100
12035617 Off ch=3 n=44 v=0
12035702 Off ch=3 n=18 v=0
12036568 On ch=3 n=36 v=100
12036614 On ch=3 n=7 v=100
12036894 Off ch=3 n=36 v=0
12036906 Off ch=3 n=7 v=0
12038211 On ch=3 n=4 v=100
12038437 Off ch=3 n=4 v=0
12040139 On ch=3 n=12 v=100
12040700 Off ch=3 n=12 v=0
12047789 On ch=3 n=2 v=100
12048825 On ch=3 n=6 v=100
12048826 Off ch=3 n=2 v=0
12049892 Off ch=3 n=6 v=0
12052070 On ch=3 n=32 v=100
12052103 On ch=3 n=37 v=100
12052223 Off ch=3 n=32 v=0
12052386 Off ch=3 n=37 v=0
12052747 On ch=3 n=54 v=100
12052956 On ch=3 n=42 v=100
12053108 Off ch=3 n=54 v=0
12053444 Off ch=3 n=42 v=0
12053782 On ch=3 n=48 v=100
12053848 Off ch=3 n=48 v=0
12053921 On ch=3 n=48 v=100
12053921 On ch=3 n=2 v=100
12054281 Off ch=3 n=48 v=0
12054708 Off ch=3 n=2 v=0
12054710 On ch=3 n=4 v=100
12055002 Off ch=3 n=4 v=0
12055005 On ch=3 n=2 v=100
12056586 Off ch=3 n=2 v=0
12056588 On ch=3 n=2 v=100
12057376 Off ch=3 n=2 v=0
12057476 On ch=3 n=26 v=100
12057478 On ch=3 n=36 v=100
12057601 On ch=3 n=25 v=100
12057805 Off ch=3 n=26 v=0
12057904 Off ch=3 n=36 v=0
12057904 Off ch=3 n=25 v=0
12058683 On ch=3 n=14 v=100
12059006 On ch=3 n=11 v=100
12059017 Off ch=3 n=14 v=0
12059270 On ch=3 n=22 v=100
12059459 On ch=3 n=8 v=100
12059473 Off ch=3 n=11 v=0
12059515 Off ch=3 n=22 v=0
12059807 Off ch=3 n=8 v=0
12059810 On ch=3 n=3 v=100
12060717 Off ch=3 n=3 v=0
12060720 On ch=3 n=2 v=100
12060968 On ch=3 n=9 v=100
12060968 Off ch=3 n=2 v=0
12061212 Off ch=3 n=9 v=0
12063301 On ch=3 n=29 v=100
12063448 Off ch=3 n=29 v=0
12067022 On ch=3 n=21 v=100
12067221 Off ch=3 n=21 v=0
12067881 On ch=3 n=2 v=100
12069677 Off ch=3 n=2 v=0
12074613 On ch=3 n=5 v=100
12074818 Off ch=3 n=5 v=0
12074828 On ch=3 n=8 v=100
12075305 On ch=3 n=7 v=100
12075326 Off ch=3 n=8 v=0
12075543 Off ch=3 n=7 v=0
12075561 On ch=3 n=7 v=100
12076502 On ch=3 n=31 v=100
12076517 On ch=3 n=4 v=100
12076518 Off ch=3 n=7 v=0
12076642 Off ch=3 n=31 v=0
12077626 Off ch=3 n=4 v=0
12077643 On ch=3 n=8 v=100
12078073 Off ch=3 n=8 v=0
12079026 On ch=3 n=30 v=100
12079045 On ch=3 n=32 v=100
12079168 Off ch=3 n=30 v=0
12079399 Off ch=3 n=32 v=0
12079482 On ch=3 n=21 v=100
12079539 Off ch=3 n=21 v=0
12081010 On ch=3 n=22 v=100
12081088 On ch=3 n=28 v=100
12081109 On ch=3 n=28 v=100
12081109 On ch=3 n=28 v=100
12081202 Off ch=3 n=22 v=0
12081205 Off ch=3 n=28 v=0
12081209 On ch=3 n=20 v=100
12081478 Off ch=3 n=20 v=0
12081479 On ch=3 n=26 v=100
12081479 On ch=3 n=29 v=100
12081510 Off ch=3 n=28 v=0
12081510 Off ch=3 n=28 v=0
12081604 Off ch=3 n=26 v=0
12081748 Off ch=3 n=29 v=0
12082259 On ch=3 n=16 v=100
12082428 Off ch=3 n=16 v=0
12083888 On ch=3 n=25 v=100
12083911 On ch=3 n=24 v=100
12083997 Off ch=3 n=25 v=0
12084056 Off ch=3 n=24 v=0
12084112 On ch=3 n=33 v=100
12084268 Off ch=3 n=33 v=0
12084441 On ch=3 n=15 v=100
12084449 On ch=3 n=24 v=100
12084489 Off ch=3 n=15 v=0
12084497 Off ch=3 n=24 v=0
12084885 On ch=3 n=10 v=100
12084912 On ch=3 n=25 v=100
12084912 On ch=3 n=25 v=100
12084935 Off ch=3 n=10 v=0
12084951 On ch=3 n=23 v=100
12085155 Off ch=3 n=23 v=0
12085177 Off ch=3 n=25 v=0
12085177 Off ch=3 n=25 v=0
12085439 On ch=3 n=2 v=100
12086729 Off ch=3 n=2 v=0
12086737 On ch=3 n=4 v=100
12086839 Off ch=3 n=4 v=0
12086842 On ch=3 n=37 v=100
12086842 On ch=3 n=9 v=100
12086883 Off ch=3 n=9 v=0
12086905 Off ch=3 n=37 v=0
12087103 On ch=3 n=6 v=100
12087942 On ch=3 n=25 v=100
12088035 Off ch=3 n=6 v=0
12088059 Off ch=3 n=25 v=0
12088184 On ch=3 n=50 v=100
12088186 On ch=3 n=17 v=100
12088261 Off ch=3 n=17 v=0
12088332 Off ch=3 n=50 v=0
12088550 On ch=3 n=12 v=100
12088586 On ch=3 n=4 v=100
12088594 Off ch=3 n=12 v=0
12088885 Off ch=3 n=4 v=0
12089831 On ch=3 n=1 v=100
12090261 Off ch=3 n=1 v=0
12090743 On ch=3 n=2 v=100
12093122 On ch=3 n=28 v=100
12093200 Off ch=3 n=2 v=0
12093202 On ch=3 n=3 v=100
12093235 Off ch=3 n=28 v=0
12093339 Off ch=3 n=3 v=0
12093441 On ch=3 n=10 v=100
12093577 On ch=3 n=11 v=100
12093617 Off ch=3 n=10 v=0
12093617 Off ch=3 n=11 v=0
12093666 On ch=3 n=10 v=100
12093666 On ch=3 n=11 v=100
12094133 Off ch=3 n=10 v=0
12094146 Off ch=3 n=11 v=0
12094657 On ch=3 n=32 v=100
12094908 Off ch=3 n=32 v=0
12095109 On ch=3 n=29 v=100
12095340 On ch=3 n=13 v=100
12095372 On ch=3 n=7 v=100
12095375 Off ch=3 n=29 v=0
12095609 On ch=3 n=14 v=100
12095613 Off ch=3 n=13 v=0
12095682 Off ch=3 n=7 v=0
12095692 Off ch=3 n=14 v=0
12095697 On ch=3 n=33 v=100
12095737 On ch=3 n=10 v=100
12095755 Off ch=3 n=33 v=0
12095815 On ch=3 n=6 v=100
12095816 Off ch=3 n=10 v=0
12096054 Off ch=3 n=6 v=0
12096176 On ch=3 n=22 v=100
12096194 On ch=3 n=31 v=100
12096292 Off ch=3 n=22 v=0
12096456 Off ch=3 n=31 v=0
12096678 On ch=3 n=20 v=100
12096918 Off ch=3 n=20 v=0
12097015 On ch=3 n=15 v=100
12097560 On ch=3 n=2 v=100
12097564 Off ch=3 n=15 v=0
12097609 Off ch=3 n=2 v=0
12097612 On ch=3 n=6 v=100
12098524 On ch=3 n=12 v=100
12098524 Off ch=3 n=6 v=0
12098745 Off ch=3 n=12 v=0
12098777 On ch=3 n=12 v=100
12099225 Off ch=3 n=12 v=0
12099226 On ch=3 n=7 v=100
12100979 Off ch=3 n=7 v=0
12100981 On ch=3 n=12 v=100
12101160 Off ch=3 n=12 v=0
12101987 On ch=3 n=7 v=100
12103099 Off ch=3 n=7 v=0
12103866 On ch=3 n=2 v=100
12103913 Off ch=3 n=2 v=0
12103915 On ch=3 n=12 v=100
12104188 On ch=3 n=14 v=100
12104228 Off ch=3 n=12 v=0
12104563 On ch=3 n=12 v=100
12104564 Off ch=3 n=14 v=0
12104597 Off ch=3 n=12 v=0
12104605 On ch=3 n=7 v=100
12105236 Off ch=3 n=7 v=0
12105239 On ch=3 n=7 v=100
12105351 Off ch=3 n=7 v=0
12111125 On ch=3 n=25 v=100
12111223 Off ch=3 n=25 v=0
12112204 On ch=3 n=11 v=100
12112390 Off ch=3 n=11 v=0
12112392 On ch=3 n=13 v=100
12112527 On ch=3 n=7 v=100
12112576 Off ch=3 n=13 v=0
12113187 Off ch=3 n=7 v=0
12113190 On ch=3 n=12 v=100
12113204 On ch=3 n=17 v=100
12113212 On ch=3 n=19 v=100
12113276 Off ch=3 n=12 v=0
12113287 Off ch=3 n=19 v=0
12113292 Off ch=3 n=17 v=0
12113302 On ch=3 n=10 v=100
12113383 On ch=3 n=10 v=100
12113423 Off ch=3 n=10 v=0
12113572 Off ch=3 n=10 v=0
12113574 On ch=3 n=7 v=100
12113663 Off ch=3 n=7 v=0
12113721 On ch=3 n=7 v=100
12113835 On ch=3 n=24 v=100
12113990 Off ch=3 n=7 v=0
12113990 Off ch=3 n=24 v=0
12114048 On ch=3 n=24 v=100
12114403 Off ch=3 n=24 v=0
12114430 On ch=3 n=16 v=100
12114662 Off ch=3 n=16 v=0
12115316 On ch=3 n=18 v=100
12115512 Off ch=3 n=18 v=0
12116923 On ch=3 n=32 v=100
12116977 On ch=3 n=40 v=100
12117156 Off ch=3 n=32 v=0
12117180 Off ch=3 n=40 v=0
12117333 On ch=3 n=40 v=100
12117345 Off ch=3 n=40 v=0
12117398 On ch=3 n=40 v=100
12117540 Off ch=3 n=40 v=0
12118409 On ch=3 n=29 v=100
12118412 On ch=3 n=47 v=100
12118420 On ch=3 n=3 v=100
12118611 Off ch=3 n=3 v=0
12118647 Off ch=3 n=29 v=0
12118725 Off ch=3 n=47 v=0
12119134 On ch=3 n=14 v=100
12119276 Off ch=3 n=14 v=0
12120204 On ch=3 n=9 v=100
12120274 Off ch=3 n=9 v=0
12120295 On ch=3 n=10 v=100
12120393 Off ch=3 n=10 v=0
12121820 On ch=3 n=6 v=100
12122390 Off ch=3 n=6 v=0
12133227 On ch=3 n=1 v=100
12133230 On ch=3 n=10 v=100
12133454 Off ch=3 n=1 v=0
12133462 On ch=3 n=34 v=100
12133516 Off ch=3 n=10 v=0
12135658 On ch=3 n=21 v=100
12135669 Off ch=3 n=34 v=0
12135672 On ch=3 n=5 v=100
12135745 Off ch=3 n=21 v=0
12138486 Off ch=3 n=5 v=0
12138608 On ch=3 n=5 v=100
12138636 On ch=3 n=24 v=100
12138704 Off ch=3 n=5 v=0
12139091 Off ch=3 n=24 v=0
12141311 On ch=3 n=15 v=100
12143113 On ch=3 n=12 v=100
12143116 Off ch=3 n=15 v=0
12145235 Off ch=3 n=12 v=0
12145243 On ch=3 n=11 v=100
12147941 On ch=3 n=9 v=100
12147941 Off ch=3 n=11 v=0
12149713 Off ch=3 n=9 v=0
12156715 On ch=3 n=3 v=100
12157949 Off ch=3 n=3 v=0
12163426 On ch=3 n=12 v=100
12164247 Off ch=3 n=12 v=0
12164249 On ch=3 n=8 v=100
12164472 Off ch=3 n=8 v=0
12165797 On ch=3 n=8 v=100
12166098 On ch=3 n=12 v=100
12166111 Off ch=3 n=8 v=0
12166209 On ch=3 n=10 v=100
12166220 Off ch=3 n=12 v=0
12166642 Off ch=3 n=10 v=0
12166644 On ch=3 n=9 v=100
12166920 Off ch=3 n=9 v=0
12167232 On ch=3 n=16 v=100
12168118 On ch=3 n=10 v=100
12168133 Off ch=3 n=16 v=0
12168435 On ch=3 n=10 v=100
12168435 Off ch=3 n=10 v=0
12168902 Off ch=3 n=10 v=0
12170196 On ch=3 n=21 v=100
12170422 On ch=3 n=7 v=100
12170444 Off ch=3 n=21 v=0
12170476 On ch=3 n=5 v=100
12170477 Off ch=3 n=7 v=0
12171179 Off ch=3 n=5 v=0
12172085 On ch=3 n=7 v=100
12172557 On ch=3 n=7 v=100
12172571 Off ch=3 n=7 v=0
12172790 On ch=3 n=13 v=100
12172991 Off ch=3 n=7 v=0
12173018 Off ch=3 n=13 v=0
12173020 On ch=3 n=18 v=100
12173675 Off ch=3 n=18 v=0
12174346 On ch=3 n=4 v=100
12174468 Off ch=3 n=4 v=0
12174486 On ch=3 n=13 v=100
12174515 On ch=3 n=24 v=100
12174520 On ch=3 n=13 v=100
12174576 Off ch=3 n=13 v=0
12174596 Off ch=3 n=13 v=0
12174612 Off ch=3 n=24 v=0
12174828 On ch=3 n=37 v=100
12174865 On ch=3 n=10 v=100
12175141 Off ch=3 n=37 v=0
12175143 Off ch=3 n=10 v=0
12175880 On ch=3 n=11 v=100
12175992 On ch=3 n=13 v=100
12176005 Off ch=3 n=11 v=0
12176052 Off ch=3 n=13 v=0
12176736 On ch=3 n=4 v=100
12177554 Off ch=3 n=4 v=0
12177906 On ch=3 n=30 v=100
12178042 Off ch=3 n=30 v=0
12178084 On ch=3 n=25 v=100
12178160 Off ch=3 n=25 v=0
12179360 On ch=3 n=21 v=100
12179403 Off ch=3 n=21 v=0
12180006 On ch=3 n=4 v=100
12180498 On ch=3 n=9 v=100
12180498 Off ch=3 n=4 v=0
12180869 On ch=3 n=11 v=100
12180891 Off ch=3 n=9 v=0
12181083 On ch=3 n=9 v=100
12181089 Off ch=3 n=11 v=0
12181098 Off ch=3 n=9 v=0
12181182 On ch=3 n=2 v=100
12181269 Off ch=3 n=2 v=0
12181396 On ch=3 n=21 v=100
12181458 Off ch=3 n=21 v=0
12181471 On ch=3 n=6 v=100
12181727 Off ch=3 n=6 v=0
12181767 On ch=3 n=23 v=100
12181849 Off ch=3 n=23 v=0
12182018 On ch=3 n=2 v=100
12182684 Off ch=3 n=2 v=0
12182708 On ch=3 n=8 v=100
12182994 On ch=3 n=4 v=100
12182996 Off ch=3 n=8 v=0
12183173 Off ch=3 n=4 v=0
12183291 On ch=3 n=24 v=100
12183333 Off ch=3 n=24 v=0
12183640 On ch=3 n=15 v=100
12183723 Off ch=3 n=15 v=0
12184198 On ch=3 n=12 v=100
12184303 Off ch=3 n=12 v=0
12184304 On ch=3 n=6 v=100
12184815 On ch=3 n=19 v=100
12184996 Off ch=3 n=6 v=0
12185045 Off ch=3 n=19 v=0
12187478 On ch=3 n=6 v=100
12187597 Off ch=3 n=6 v=0
12187599 On ch=3 n=12 v=100
12188011 On ch=3 n=53 v=100
12188016 Off ch=3 n=12 v=0
12188171 On ch=3 n=38 v=100
12188594 Off ch=3 n=53 v=0
12188685 Off ch=3 n=38 v=0
12188698 On ch=3 n=41 v=100
12188763 Off ch=3 n=41 v=0
12188837 On ch=3 n=41 v=100
12189090 On ch=3 n=36 v=100
12189374 Off ch=3 n=41 v=0
12189387 Off ch=3 n=36 v=0
12189941 On ch=3 n=24 v=100
12190112 On ch=3 n=32 v=100
12190212 Off ch=3 n=24 v=0
12190242 Off ch=3 n=32 v=0
12190761 On ch=3 n=21 v=100
12190930 Off ch=3 n=21 v=0
12191865 On ch=3 n=3 v=100
12192150 Off ch=3 n=3 v=0
12194213 On ch=3 n=22 v=100
12194234 On ch=3 n=13 v=100
12194400 On ch=3 n=23 v=100
12194402 Off ch=3 n=22 v=0
12194599 Off ch=3 n=13 v=0
12194632 Off ch=3 n=23 v=0
12195595 On ch=3 n=25 v=100
12195757 On ch=3 n=22 v=100
12195818 On ch=3 n=27 v=100
12195913 Off ch=3 n=25 v=0
12196059 Off ch=3 n=22 v=0
12196061 On ch=3 n=11 v=100
12196067 Off ch=3 n=27 v=0
12196606 On ch=3 n=8 v=100
12196608 Off ch=3 n=11 v=0
12196715 Off ch=3 n=8 v=0
12196741 On ch=3 n=12 v=100
12197112 Off ch=3 n=12 v=0
12202167 On ch=3 n=18 v=100
12202329 Off ch=3 n=18 v=0
12202932 On ch=3 n=20 v=100
12203019 Off ch=3 n=20 v=0
12204955 On ch=3 n=26 v=100
12204957 On ch=3 n=35 v=100
12205079 On ch=3 n=25 v=100
12205284 Off ch=3 n=26 v=0
12205383 Off ch=3 n=35 v=0
12205383 Off ch=3 n=25 v=0
12206608 On ch=3 n=32 v=100
12206609 On ch=3 n=14 v=100
12206709 Off ch=3 n=14 v=0
12206741 On ch=3 n=27 v=100
12206760 On ch=3 n=4 v=100
12206765 Off ch=3 n=32 v=0
12206912 Off ch=3 n=27 v=0
12207070 On ch=3 n=5 v=100
12207070 Off ch=3 n=4 v=0
12207459 On ch=3 n=14 v=100
12207470 Off ch=3 n=5 v=0
12207700 On ch=3 n=12 v=100
12207702 Off ch=3 n=14 v=0
12207960 On ch=3 n=20 v=100
12208152 On ch=3 n=9 v=100
12208166 Off ch=3 n=12 v=0
12208201 Off ch=3 n=20 v=0
12208500 Off ch=3 n=9 v=0
12208503 On ch=3 n=4 v=100
12209439 Off ch=3 n=4 v=0
12209442 On ch=3 n=2 v=100
12209690 On ch=3 n=8 v=100
12209690 Off ch=3 n=2 v=0
12209935 Off ch=3 n=8 v=0
12212085 On ch=3 n=28 v=100
12212233 Off ch=3 n=28 v=0
12214387 On ch=3 n=3 v=100
12215539 Off ch=3 n=3 v=0
12215744 On ch=3 n=24 v=100
12215828 Off ch=3 n=24 v=0
12215867 On ch=3 n=25 v=100
12215960 Off ch=3 n=25 v=0
12215970 On ch=3 n=16 v=100
12216372 Off ch=3 n=16 v=0
12216444 On ch=3 n=16 v=100
12216643 Off ch=3 n=16 v=0
12217799 On ch=3 n=34 v=100
12218136 Off ch=3 n=34 v=0
12218166 On ch=3 n=19 v=100
12218181 On ch=3 n=15 v=100
12218264 Off ch=3 n=19 v=0
12218264 Off ch=3 n=15 v=0
12218604 On ch=3 n=18 v=100
12218638 On ch=3 n=9 v=100
12218750 Off ch=3 n=18 v=0
12220143 Off ch=3 n=9 v=0
12220204 On ch=3 n=8 v=100
12221095 Off ch=3 n=8 v=0
12221126 On ch=3 n=26 v=100
12221181 Off ch=3 n=26 v=0
12221186 On ch=3 n=9 v=100
12221570 Off ch=3 n=9 v=0
12221711 On ch=3 n=6 v=100
12222218 Off ch=3 n=6 v=0
12222227 On ch=3 n=13 v=100
12222422 Off ch=3 n=13 v=0
12227027 On ch=3 n=57 v=100
12227277 On ch=3 n=41 v=100
12227324 On ch=3 n=25 v=100
12227331 On ch=3 n=14 v=100
12227338 On ch=3 n=39 v=100
12227524 Off ch=3 n=14 v=0
12227536 Off ch=3 n=57 v=0
12227561 Off ch=3 n=25 v=0
12227568 Off ch=3 n=41 v=0
12227619 Off ch=3 n=39 v=0
12227740 On ch=3 n=9 v=100
12228140 On ch=3 n=14 v=100
12228157 Off ch=3 n=9 v=0
12228175 On ch=3 n=39 v=100
12228218 On ch=3 n=5 v=100
12228219 Off ch=3 n=14 v=0
12228333 Off ch=3 n=39 v=0
12228422 On ch=3 n=30 v=100
12228556 Off ch=3 n=5 v=0
12228584 Off ch=3 n=30 v=0
12229420 On ch=3 n=10 v=100
12229999 Off ch=3 n=10 v=0
12232201 On ch=3 n=7 v=100
12232529 Off ch=3 n=7 v=0
12232530 On ch=3 n=12 v=100
12232571 Off ch=3 n=12 v=0
12233117 On ch=3 n=35 v=100
12233172 On ch=3 n=5 v=100
12233201 Off ch=3 n=35 v=0
12233325 Off ch=3 n=5 v=0
12233341 On ch=3 n=48 v=100
12233555 Off ch=3 n=48 v=0
12234697 On ch=3 n=22 v=100
12234968 Off ch=3 n=22 v=0
12234978 On ch=3 n=7 v=100
12235245 Off ch=3 n=7 v=0
12235796 On ch=3 n=13 v=100
12236839 Off ch=3 n=13 v=0
12240453 On ch=3 n=49 v=100
12240596 Off ch=3 n=49 v=0
12240717 On ch=3 n=5 v=100
12240977 Off ch=3 n=5 v=0
12248610 On ch=3 n=28 v=100
12248660 On ch=3 n=41 v=100
12248674 On ch=3 n=2 v=100
12248751 Off ch=3 n=28 v=0
12248771 Off ch=3 n=41 v=0
12251167 Off ch=3 n=2 v=0
12252191 On ch=3 n=2 v=100
12253597 Off ch=3 n=2 v=0
12253684 On ch=3 n=24 v=100
12253715 Off ch=3 n=24 v=0
12253783 On ch=3 n=22 v=100
12253967 Off ch=3 n=22 v=0
12254583 On ch=3 n=16 v=100
12254628 Off ch=3 n=16 v=0
12256337 On ch=3 n=16 v=100
12256551 Off ch=3 n=16 v=0
12257180 On ch=3 n=20 v=100
12257606 Off ch=3 n=20 v=0
12259368 On ch=3 n=29 v=100
12259551 Off ch=3 n=29 v=0
12261227 On ch=3 n=14 v=100
12261441 Off ch=3 n=14 v=0
12262805 On ch=3 n=6 v=100
12263988 Off ch=3 n=6 v=0
12263989 On ch=3 n=5 v=100
12266816 Off ch=3 n=5 v=0
12266818 On ch=3 n=4 v=100
12267283 Off ch=3 n=4 v=0
12267463 On ch=3 n=5 v=100
12267472 On ch=3 n=23 v=100
12268052 On ch=3 n=5 v=100
12268067 Off ch=3 n=5 v=0
12268446 On ch=3 n=15 v=100
12268606 Off ch=3 n=23 v=0
12268606 Off ch=3 n=5 v=0
12268626 Off ch=3 n=15 v=0
12269461 On ch=3 n=10 v=100
12269642 Off ch=3 n=10 v=0
12270303 On ch=3 n=30 v=100
12270372 On ch=3 n=42 v=100
12270461 On ch=3 n=18 v=100
12270621 On ch=3 n=85 v=100
12270621 On ch=3 n=85 v=100
12270621 On ch=3 n=85 v=100
12270687 Off ch=3 n=18 v=0
12270688 On ch=3 n=21 v=100
12270693 Off ch=3 n=42 v=0
12270694 Off ch=3 n=30 v=0
12270786 Off ch=3 n=21 v=0
12270804 On ch=3 n=24 v=100
12270859 Off ch=3 n=24 v=0
12270919 On ch=3 n=9 v=100
12270966 Off ch=3 n=85 v=0
12270966 Off ch=3 n=85 v=0
12270966 Off ch=3 n=85 v=0
12271434 On ch=3 n=17 v=100
12271530 Off ch=3 n=9 v=0
12271537 On ch=3 n=18 v=100
12271545 Off ch=3 n=17 v=0
12271620 Off ch=3 n=18 v=0
12271969 On ch=3 n=9 v=100
12272321 Off ch=3 n=9 v=0
12272371 On ch=3 n=9 v=100
12274097 Off ch=3 n=9 v=0
12274139 On ch=3 n=9 v=100
12275010 On ch=3 n=17 v=100
12276594 On ch=3 n=4 v=100
12276595 Off ch=3 n=9 v=0
12280638 Off ch=3 n=17 v=0
12280638 Off ch=3 n=4 v=0
12280668 On ch=3 n=4 v=100
12281281 Off ch=3 n=4 v=0
12286467 On ch=3 n=6 v=100
12287982 Off ch=3 n=6 v=0
12287992 On ch=3 n=10 v=100
12288351 Off ch=3 n=10 v=0
12288357 On ch=3 n=5 v=100
12288454 Off ch=3 n=5 v=0
12290241 On ch=3 n=14 v=100
12290265 On ch=3 n=3 v=100
12290400 On ch=3 n=5 v=100
12290454 Off ch=3 n=14 v=0
12290797 Off ch=3 n=3 v=0
12290949 Off ch=3 n=5 v=0
12290959 On ch=3 n=2 v=100
12291766 On ch=3 n=14 v=100
12291846 On ch=3 n=10 v=100
12291848 Off ch=3 n=2 v=0
12292177 On ch=3 n=2 v=100
12292193 Off ch=3 n=10 v=0
12292197 Off ch=3 n=14 v=0
12292922 Off ch=3 n=2 v=0
12292924 On ch=3 n=7 v=100
12293837 On ch=3 n=12 v=100
12293874 Off ch=3 n=7 v=0
12293880 Off ch=3 n=12 v=0
12295714 On ch=3 n=1 v=100
12296924 Off ch=3 n=1 v=0
12296925 On ch=3 n=1 v=100
12299363 On ch=3 n=0 v=100
12301361 Off ch=3 n=1 v=0
12301768 On ch=3 n=24 v=100
12301792 Off ch=3 n=0 v=0
12301792 Off ch=3 n=24 v=0
12301843 On ch=3 n=24 v=100
12301902 Off ch=3 n=24 v=0
12301910 On ch=3 n=59 v=100
12302037 Off ch=3 n=59 v=0
12302388 On ch=3 n=60 v=100
12302388 On ch=3 n=60 v=100
12302516 Off ch=3 n=60 v=0
12302516 Off ch=3 n=60 v=0
12302555 On ch=3 n=57 v=100
12302555 On ch=3 n=57 v=100
12302646 Off ch=3 n=57 v=0
12302646 Off ch=3 n=57 v=0
12304622 On ch=3 n=49 v=100
12304741 Off ch=3 n=49 v=0
12304770 On ch=3 n=50 v=100
12304871 Off ch=3 n=50 v=0
12316478 On ch=3 n=3 v=100
12316559 Off ch=3 n=3 v=0
12316563 On ch=3 n=7 v=100
12316776 Off ch=3 n=7 v=0
12318180 On ch=3 n=6 v=100
12318413 On ch=3 n=2 v=100
12318435 Off ch=3 n=6 v=0
12319526 Off ch=3 n=2 v=0
12322097 On ch=3 n=48 v=100
12322457 Off ch=3 n=48 v=0
12322804 On ch=3 n=58 v=100
12322919 Off ch=3 n=58 v=0
12324830 On ch=3 n=48 v=100
12325190 Off ch=3 n=48 v=0
12328247 On ch=3 n=63 v=100
12328254 On ch=3 n=42 v=100
12328340 Off ch=3 n=42 v=0
12328353 Off ch=3 n=63 v=0
12328799 On ch=3 n=25 v=100
12330601 On ch=3 n=9 v=100
12330615 Off ch=3 n=25 v=0
12331018 Off ch=3 n=9 v=0
12331020 On ch=3 n=5 v=100
12331123 Off ch=3 n=5 v=0
12333609 On ch=3 n=12 v=100
12333609 On ch=3 n=12 v=100
12333715 On ch=3 n=4 v=100
12334283 Off ch=3 n=4 v=0
12334285 On ch=3 n=4 v=100
12334306 Off ch=3 n=12 v=0
12334306 Off ch=3 n=12 v=0
12334352 Off ch=3 n=4 v=0
12335494 On ch=3 n=9 v=100
12335569 Off ch=3 n=9 v=0
12337396 On ch=3 n=17 v=100
12337472 Off ch=3 n=17 v=0
12337568 On ch=3 n=26 v=100
12337625 On ch=3 n=16 v=100
12337775 On ch=3 n=32 v=100
12337833 On ch=3 n=14 v=100
12337883 Off ch=3 n=16 v=0
12337909 Off ch=3 n=26 v=0
12338015 Off ch=3 n=32 v=0
12338365 Off ch=3 n=14 v=0
12338396 On ch=3 n=22 v=100
12338484 Off ch=3 n=22 v=0
12338543 On ch=3 n=10 v=100
12339197 Off ch=3 n=10 v=0
12339203 On ch=3 n=13 v=100
12339282 Off ch=3 n=13 v=0
12339732 On ch=3 n=6 v=100
12340408 Off ch=3 n=6 v=0
12340661 On ch=3 n=18 v=100
12340703 Off ch=3 n=18 v=0
12341783 On ch=3 n=11 v=100
12342134 Off ch=3 n=11 v=0
12342176 On ch=3 n=41 v=100
12342920 Off ch=3 n=41 v=0
12343108 On ch=3 n=19 v=100
12343198 Off ch=3 n=19 v=0
12343845 On ch=3 n=11 v=100
12344196 On ch=3 n=12 v=100
12344283 Off ch=3 n=11 v=0
12344411 On ch=3 n=22 v=100
12344477 Off ch=3 n=12 v=0
12344644 Off ch=3 n=22 v=0
12344690 On ch=3 n=30 v=100
12344821 Off ch=3 n=30 v=0
12345992 On ch=3 n=42 v=100
12346128 Off ch=3 n=42 v=0
12346130 On ch=3 n=14 v=100
12346264 Off ch=3 n=14 v=0
12346268 On ch=3 n=11 v=100
12346559 Off ch=3 n=11 v=0
12354971 On ch=3 n=16 v=100
12355190 Off ch=3 n=16 v=0
12361576 On ch=3 n=44 v=100
12361922 Off ch=3 n=44 v=0
12362449 On ch=3 n=57 v=100
12362547 Off ch=3 n=57 v=0
12364665 On ch=3 n=50 v=100
12364748 Off ch=3 n=50 v=0
12365785 On ch=3 n=7 v=100
12367076 Off ch=3 n=7 v=0
12367237 On ch=3 n=10 v=100
12367699 Off ch=3 n=10 v=0
12370046 On ch=3 n=10 v=100
12370899 Off ch=3 n=10 v=0
12372601 On ch=3 n=18 v=100
12372743 Off ch=3 n=18 v=0
12374107 On ch=3 n=4 v=100
12374287 Off ch=3 n=4 v=0
12374423 On ch=3 n=34 v=100
12374521 Off ch=3 n=34 v=0
12374523 On ch=3 n=16 v=100
12374605 Off ch=3 n=16 v=0
12383949 On ch=3 n=11 v=100
12384856 Off ch=3 n=11 v=0
12385267 On ch=3 n=12 v=100
12385872 On ch=3 n=5 v=100
12385875 Off ch=3 n=12 v=0
12386352 Off ch=3 n=5 v=0
12386640 On ch=3 n=12 v=100
12386811 Off ch=3 n=12 v=0
12386928 On ch=3 n=12 v=100
12387540 On ch=3 n=19 v=100
12387616 Off ch=3 n=12 v=0
12387665 Off ch=3 n=19 v=0
12388266 On ch=3 n=11 v=100
12388858 Off ch=3 n=11 v=0
12388916 On ch=3 n=11 v=100
12389123 Off ch=3 n=11 v=0
12389159 On ch=3 n=30 v=100
12389159 On ch=3 n=11 v=100
12389456 Off ch=3 n=11 v=0
12389528 Off ch=3 n=30 v=0
12389635 On ch=3 n=30 v=100
12389788 Off ch=3 n=30 v=0
12389820 On ch=3 n=13 v=100
12389834 Off ch=3 n=13 v=0
12389911 On ch=3 n=13 v=100
12389996 Off ch=3 n=13 v=0
12390118 On ch=3 n=6 v=100
12390564 Off ch=3 n=6 v=0
12390625 On ch=3 n=6 v=100
12390680 Off ch=3 n=6 v=0
12390718 On ch=3 n=12 v=100
12390718 On ch=3 n=4 v=100
12390831 Off ch=3 n=12 v=0
12391768 Off ch=3 n=4 v=0
12392134 On ch=3 n=52 v=100
12392198 Off ch=3 n=52 v=0
12392241 On ch=3 n=52 v=100
12392538 On ch=3 n=23 v=100
12392713 Off ch=3 n=52 v=0
12392713 Off ch=3 n=23 v=0
12392966 On ch=3 n=10 v=100
12392966 On ch=3 n=21 v=100
12393159 On ch=3 n=14 v=100
12393171 Off ch=3 n=10 v=0
12393268 Off ch=3 n=21 v=0
12393352 On ch=3 n=38 v=100
12393354 Off ch=3 n=14 v=0
12393399 On ch=3 n=35 v=100
12393400 On ch=3 n=23 v=100
12393605 Off ch=3 n=23 v=0
12393629 Off ch=3 n=35 v=0
12393638 Off ch=3 n=38 v=0
12393895 On ch=3 n=11 v=100
12393959 Off ch=3 n=11 v=0
12393990 On ch=3 n=8 v=100
12393998 On ch=3 n=20 v=100
12394037 On ch=3 n=8 v=100
12394038 Off ch=3 n=8 v=0
12394326 Off ch=3 n=20 v=0
12395872 Off ch=3 n=8 v=0
12395874 On ch=3 n=18 v=100
12396122 On ch=3 n=13 v=100
12396129 Off ch=3 n=18 v=0
12396672 Off ch=3 n=13 v=0
12398130 On ch=3 n=12 v=100
12398247 On ch=3 n=27 v=100
12398247 On ch=3 n=27 v=100
12398296 Off ch=3 n=12 v=0
12398298 On ch=3 n=8 v=100
12398576 On ch=3 n=15 v=100
12398582 Off ch=3 n=8 v=0
12398604 Off ch=3 n=27 v=0
12398604 Off ch=3 n=27 v=0
12398890 Off ch=3 n=15 v=0
12398895 On ch=3 n=13 v=100
12399213 On ch=3 n=13 v=100
12399213 Off ch=3 n=13 v=0
12399557 Off ch=3 n=13 v=0
12399671 On ch=3 n=13 v=100
12399885 On ch=3 n=5 v=100
12399888 Off ch=3 n=13 v=0
12400499 On ch=3 n=4 v=100
12400499 Off ch=3 n=5 v=0
12400704 Off ch=3 n=4 v=0
12400706 On ch=3 n=9 v=100
12400798 Off ch=3 n=9 v=0
12401683 On ch=3 n=21 v=100
12401684 On ch=3 n=21 v=100
12401874 Off ch=3 n=21 v=0
12401911 Off ch=3 n=21 v=0
12402166 On ch=3 n=48 v=100
12402498 On ch=3 n=15 v=100
12402498 On ch=3 n=39 v=100
12402619 Off ch=3 n=48 v=0
12402664 Off ch=3 n=15 v=0
12402688 On ch=3 n=15 v=100
12402787 Off ch=3 n=39 v=0
12402854 On ch=3 n=9 v=100
12403146 Off ch=3 n=15 v=0
12403146 Off ch=3 n=9 v=0
12403176 On ch=3 n=11 v=100
12403447 Off ch=3 n=11 v=0
12403518 On ch=3 n=11 v=100
12403528 Off ch=3 n=11 v=0
12403613 On ch=3 n=19 v=100
12403628 On ch=3 n=11 v=100
12403721 Off ch=3 n=19 v=0
12403946 Off ch=3 n=11 v=0
12403947 On ch=3 n=31 v=100
12404015 Off ch=3 n=31 v=0
12404058 On ch=3 n=9 v=100
12407072 On ch=3 n=32 v=100
12407101 Off ch=3 n=9 v=0
12407102 On ch=3 n=11 v=100
12407186 Off ch=3 n=32 v=0
12407882 Off ch=3 n=11 v=0
12408687 On ch=3 n=42 v=100
12408687 On ch=3 n=42 v=100
12408795 On ch=3 n=8 v=100
12409086 Off ch=3 n=8 v=0
12409100 Off ch=3 n=42 v=0
12409100 Off ch=3 n=42 v=0
12409336 On ch=3 n=26 v=100
12409353 On ch=3 n=24 v=100
12409367 On ch=3 n=16 v=100
12409428 Off ch=3 n=24 v=0
12409433 Off ch=3 n=26 v=0
12409462 Off ch=3 n=16 v=0
12409480 On ch=3 n=3 v=100
12409602 Off ch=3 n=3 v=0
12410279 On ch=3 n=17 v=100
12410932 Off ch=3 n=17 v=0
12410944 On ch=3 n=8 v=100
12410968 Off ch=3 n=8 v=0
12411806 On ch=3 n=8 v=100
12412268 Off ch=3 n=8 v=0
12412269 On ch=3 n=5 v=100
12414226 On ch=3 n=4 v=100
12414230 Off ch=3 n=5 v=0
12414482 On ch=3 n=5 v=100
12414483 Off ch=3 n=4 v=0
12414515 On ch=3 n=21 v=100
12414538 Off ch=3 n=5 v=0
12414758 Off ch=3 n=21 v=0
12416056 On ch=3 n=8 v=100
12416523 On ch=3 n=12 v=100
12416523 Off ch=3 n=8 v=0
12416820 On ch=3 n=16 v=100
12416835 Off ch=3 n=12 v=0
12417716 Off ch=3 n=16 v=0
12418028 On ch=3 n=10 v=100
12418314 Off ch=3 n=10 v=0
12418318 On ch=3 n=11 v=100
12418737 On ch=3 n=13 v=100
12418748 Off ch=3 n=11 v=0
12418846 On ch=3 n=10 v=100
12418859 Off ch=3 n=13 v=0
12419160 Off ch=3 n=10 v=0
12423321 On ch=3 n=10 v=100
12423321 On ch=3 n=32 v=100
12423585 Off ch=3 n=10 v=0
12423622 Off ch=3 n=32 v=0
12426828 On ch=3 n=2 v=100
12431248 Off ch=3 n=2 v=0
12433080 On ch=3 n=6 v=100
12433893 Off ch=3 n=6 v=0
12433964 On ch=3 n=6 v=100
12434062 Off ch=3 n=6 v=0
12434186 On ch=3 n=28 v=100
12434226 On ch=3 n=2 v=100
12434248 Off ch=3 n=28 v=0
12435104 On ch=3 n=16 v=100
12435153 Off ch=3 n=2 v=0
12435153 Off ch=3 n=16 v=0
12435221 On ch=3 n=16 v=100
12435401 Off ch=3 n=16 v=0
12436006 On ch=3 n=1 v=100
12437752 Off ch=3 n=1 v=0
12437875 On ch=3 n=3 v=100
12438125 On ch=3 n=16 v=100
12438345 Off ch=3 n=3 v=0
12438374 Off ch=3 n=16 v=0
12438872 On ch=3 n=2 v=100
12439932 Off ch=3 n=2 v=0
12441402 On ch=3 n=64 v=100
12441828 Off ch=3 n=64 v=0
12442627 On ch=3 n=62 v=100
12443204 Off ch=3 n=62 v=0
12443212 On ch=3 n=30 v=100
12443459 Off ch=3 n=30 v=0
12443568 On ch=3 n=16 v=100
12443742 Off ch=3 n=16 v=0
12443835 On ch=3 n=38 v=100
12443931 Off ch=3 n=38 v=0
12444624 On ch=3 n=49 v=100
12444671 On ch=3 n=38 v=100
12444678 On ch=3 n=49 v=100
12444869 Off ch=3 n=49 v=0
12444870 Off ch=3 n=38 v=0
12444911 Off ch=3 n=49 v=0
12445024 On ch=3 n=12 v=100
12445498 Off ch=3 n=12 v=0
12447049 On ch=3 n=27 v=100
12447159 Off ch=3 n=27 v=0
12447599 On ch=3 n=14 v=100
12447675 Off ch=3 n=14 v=0
12448137 On ch=3 n=20 v=100
12448551 Off ch=3 n=20 v=0
12449469 On ch=3 n=16 v=100
12449707 On ch=3 n=3 v=100
12449712 Off ch=3 n=16 v=0
12449841 On ch=3 n=3 v=100
12449843 Off ch=3 n=3 v=0
12449900 Off ch=3 n=3 v=0
12449904 On ch=3 n=19 v=100
12450056 Off ch=3 n=19 v=0
12450057 On ch=3 n=11 v=100
12450488 Off ch=3 n=11 v=0
12450495 On ch=3 n=6 v=100
12450613 On ch=3 n=27 v=100
12450720 Off ch=3 n=6 v=0
12450734 Off ch=3 n=27 v=0
12451164 On ch=3 n=40 v=100
12451180 On ch=3 n=33 v=100
12451304 Off ch=3 n=40 v=0
12451305 Off ch=3 n=33 v=0
12451328 On ch=3 n=27 v=100
12451435 Off ch=3 n=27 v=0
12451640 On ch=3 n=11 v=100
12451773 Off ch=3 n=11 v=0
12451793 On ch=3 n=11 v=100
12452258 Off ch=3 n=11 v=0
12452724 On ch=3 n=7 v=100
12453851 Off ch=3 n=7 v=0
12458538 On ch=3 n=50 v=100
12458650 Off ch=3 n=50 v=0
12461878 On ch=3 n=4 v=100
12461992 Off ch=3 n=4 v=0
12469322 On ch=3 n=7 v=100
12469514 Off ch=3 n=7 v=0
12469534 On ch=3 n=5 v=100
12470494 Off ch=3 n=5 v=0
12471588 On ch=3 n=5 v=100
12472207 Off ch=3 n=5 v=0
12472253 On ch=3 n=5 v=100
12477943 Off ch=3 n=5 v=0
12477945 On ch=3 n=1 v=100
12478013 Off ch=3 n=1 v=0
12478024 On ch=3 n=6 v=100
12478197 On ch=3 n=7 v=100
12478204 Off ch=3 n=6 v=0
12479894 Off ch=3 n=7 v=0
12479928 On ch=3 n=7 v=100
12480278 Off ch=3 n=7 v=0
12480280 On ch=3 n=2 v=100
12480648 Off ch=3 n=2 v=0
12484563 On ch=3 n=55 v=100
12484609 On ch=3 n=58 v=100
12484669 Off ch=3 n=55 v=0
12484682 Off ch=3 n=58 v=0
12505331 On ch=3 n=2 v=100
12505725 Off ch=3 n=2 v=0
12505727 On ch=3 n=7 v=100
12505949 Off ch=3 n=7 v=0
12507615 On ch=3 n=11 v=100
12508271 Off ch=3 n=11 v=0
12508386 On ch=3 n=14 v=100
12508432 Off ch=3 n=14 v=0
12508443 On ch=3 n=3 v=100
12509682 On ch=3 n=23 v=100
12509688 Off ch=3 n=3 v=0
12510055 On ch=3 n=12 v=100
12510111 Off ch=3 n=23 v=0
12510205 Off ch=3 n=12 v=0
12510513 On ch=3 n=42 v=100
12510572 On ch=3 n=5 v=100
12510705 Off ch=3 n=5 v=0
12510714 Off ch=3 n=42 v=0
12510883 On ch=3 n=15 v=100
12510961 Off ch=3 n=15 v=0
12510966 On ch=3 n=11 v=100
12511665 Off ch=3 n=11 v=0
12511744 On ch=3 n=27 v=100
12511813 Off ch=3 n=27 v=0
12512138 On ch=3 n=16 v=100
12512294 Off ch=3 n=16 v=0
12512580 On ch=3 n=28 v=100
12512688 Off ch=3 n=28 v=0
12513713 On ch=3 n=22 v=100
12514041 Off ch=3 n=22 v=0
12515829 On ch=3 n=4 v=100
12516151 Off ch=3 n=4 v=0
12519578 On ch=3 n=3 v=100
12521960 Off ch=3 n=3 v=0
12521962 On ch=3 n=3 v=100
12522402 Off ch=3 n=3 v=0
12522536 On ch=3 n=1 v=100
12524094 Off ch=3 n=1 v=0
12524095 On ch=3 n=8 v=100
12524107 Off ch=3 n=8 v=0
12524139 On ch=3 n=8 v=100
12524139 On ch=3 n=1 v=100
12524215 Off ch=3 n=8 v=0
12525030 Off ch=3 n=1 v=0
12525199 On ch=3 n=5 v=100
12525299 Off ch=3 n=5 v=0
12525370 On ch=3 n=5 v=100
12526208 Off ch=3 n=5 v=0
12526211 On ch=3 n=2 v=100
12526256 Off ch=3 n=2 v=0
12526387 On ch=3 n=16 v=100
12526521 Off ch=3 n=16 v=0
12527515 On ch=3 n=6 v=100
12528263 On ch=3 n=7 v=100
12528272 Off ch=3 n=6 v=0
12529579 On ch=3 n=12 v=100
12529880 Off ch=3 n=7 v=0
12529884 On ch=3 n=10 v=100
12529920 Off ch=3 n=12 v=0
12530165 Off ch=3 n=10 v=0
12530202 On ch=3 n=19 v=100
12530202 On ch=3 n=10 v=100
12530214 Off ch=3 n=10 v=0
12530309 On ch=3 n=4 v=100
12530312 Off ch=3 n=19 v=0
12531296 On ch=3 n=0 v=100
12531297 Off ch=3 n=4 v=0
12531398 Off ch=3 n=0 v=0
12531402 On ch=3 n=26 v=100
12531479 On ch=3 n=1 v=100
12531721 Off ch=3 n=1 v=0
12531722 On ch=3 n=3 v=100
12531992 On ch=3 n=2 v=100
12531995 Off ch=3 n=3 v=0
12531999 Off ch=3 n=26 v=0
12533052 Off ch=3 n=2 v=0
12533055 On ch=3 n=13 v=100
12534460 On ch=3 n=37 v=100
12534460 Off ch=3 n=13 v=0
12534711 Off ch=3 n=37 v=0
12534714 On ch=3 n=38 v=100
12535818 Off ch=3 n=38 v=0
12543032 On ch=3 n=33 v=100
12543738 Off ch=3 n=33 v=0
12543883 On ch=3 n=3 v=100
12546286 Off ch=3 n=3 v=0
12548567 On ch=3 n=21 v=100
12550761 Off ch=3 n=21 v=0
12550764 On ch=3 n=3 v=100
12552417 Off ch=3 n=3 v=0
12553267 On ch=3 n=4 v=100
12555830 On ch=3 n=9 v=100
12555830 On ch=3 n=9 v=100
12555865 On ch=3 n=51 v=100
12556089 Off ch=3 n=4 v=0
12556234 On ch=3 n=8 v=100
12556234 On ch=3 n=8 v=100
12556300 Off ch=3 n=9 v=0
12556300 Off ch=3 n=9 v=0
12556408 Off ch=3 n=51 v=0
12556548 Off ch=3 n=8 v=0
12556548 Off ch=3 n=8 v=0
12556623 On ch=3 n=47 v=100
12556738 On ch=3 n=38 v=100
12556799 Off ch=3 n=47 v=0
12556836 Off ch=3 n=38 v=0
12558213 On ch=3 n=77 v=100
12558484 Off ch=3 n=77 v=0
12558682 On ch=3 n=6 v=100
12559018 On ch=3 n=14 v=100
12559072 Off ch=3 n=6 v=0
12559079 Off ch=3 n=14 v=0
12559385 On ch=3 n=9 v=100
12559497 On ch=3 n=9 v=100
12559498 Off ch=3 n=9 v=0
12560474 Off ch=3 n=9 v=0
12561108 On ch=3 n=19 v=100
12562003 Off ch=3 n=19 v=0
12562005 On ch=3 n=12 v=100
12562250 Off ch=3 n=12 v=0
12562319 On ch=3 n=18 v=100
12562713 Off ch=3 n=18 v=0
12562885 On ch=3 n=27 v=100
12563483 Off ch=3 n=27 v=0
12563512 On ch=3 n=34 v=100
12563793 Off ch=3 n=34 v=0
12563802 On ch=3 n=7 v=100
12564042 Off ch=3 n=7 v=0
12564067 On ch=3 n=19 v=100
12564463 On ch=3 n=17 v=100
12564463 Off ch=3 n=19 v=0
12564876 On ch=3 n=12 v=100
12564876 Off ch=3 n=17 v=0
12564919 Off ch=3 n=12 v=0
12565734 On ch=3 n=9 v=100
12566507 Off ch=3 n=9 v=0
12569521 On ch=3 n=8 v=100
12569850 On ch=3 n=9 v=100
12569862 Off ch=3 n=8 v=0
12570693 Off ch=3 n=9 v=0
12570703 On ch=3 n=4 v=100
12570737 On ch=3 n=17 v=100
12570740 On ch=3 n=37 v=100
12570769 Off ch=3 n=4 v=0
12570886 Off ch=3 n=17 v=0
12570920 Off ch=3 n=37 v=0
12571795 On ch=3 n=6 v=100
12572734 Off ch=3 n=6 v=0
12573777 On ch=3 n=22 v=100
12573786 On ch=3 n=17 v=100
12573952 Off ch=3 n=22 v=0
12574051 Off ch=3 n=17 v=0
12574086 On ch=3 n=8 v=100
12574406 Off ch=3 n=8 v=0
12574417 On ch=3 n=26 v=100
12574476 On ch=3 n=26 v=100
12574681 Off ch=3 n=26 v=0
12574805 Off ch=3 n=26 v=0
12575822 On ch=3 n=20 v=100
12576111 Off ch=3 n=20 v=0
12576269 On ch=3 n=2 v=100
12576544 Off ch=3 n=2 v=0
12576545 On ch=3 n=6 v=100
12576622 Off ch=3 n=6 v=0
12577353 On ch=3 n=7 v=100
12578389 Off ch=3 n=7 v=0
12578391 On ch=3 n=5 v=100
12579192 Off ch=3 n=5 v=0
12582259 On ch=3 n=6 v=100
12583022 Off ch=3 n=6 v=0
12583024 On ch=3 n=39 v=100
12583207 Off ch=3 n=39 v=0
12583217 On ch=3 n=9 v=100
12583269 Off ch=3 n=9 v=0
12583312 On ch=3 n=20 v=100
12583408 On ch=3 n=52 v=100
12583520 Off ch=3 n=20 v=0
12583592 On ch=3 n=33 v=100
12583692 Off ch=3 n=52 v=0
12583743 Off ch=3 n=33 v=0
12584372 On ch=3 n=20 v=100
12584390 On ch=3 n=14 v=100
12584476 Off ch=3 n=20 v=0
12584889 On ch=3 n=21 v=100
12584928 Off ch=3 n=14 v=0
12584941 Off ch=3 n=21 v=0
12585051 On ch=3 n=25 v=100
12585146 On ch=3 n=15 v=100
12585152 On ch=3 n=15 v=100
12585485 Off ch=3 n=15 v=0
12585489 Off ch=3 n=25 v=0
12585539 On ch=3 n=7 v=100
12585580 Off ch=3 n=15 v=0
12588189 Off ch=3 n=7 v=0
12588291 On ch=3 n=33 v=100
12588329 On ch=3 n=12 v=100
12588352 Off ch=3 n=33 v=0
12588842 Off ch=3 n=12 v=0
12588890 On ch=3 n=30 v=100
12588980 Off ch=3 n=30 v=0
12589120 On ch=3 n=24 v=100
12589167 On ch=3 n=15 v=100
12589177 Off ch=3 n=24 v=0
12589553 Off ch=3 n=15 v=0
12590167 On ch=3 n=10 v=100
12590189 On ch=3 n=37 v=100
12590191 On ch=3 n=13 v=100
12590193 On ch=3 n=25 v=100
12590327 Off ch=3 n=10 v=0
12590612 Off ch=3 n=13 v=0
12590717 On ch=3 n=9 v=100
12590723 Off ch=3 n=25 v=0
12590967 Off ch=3 n=37 v=0
12591090 On ch=3 n=17 v=100
12591093 Off ch=3 n=9 v=0
12591249 On ch=3 n=12 v=100
12591275 On ch=3 n=15 v=100
12591279 On ch=3 n=9 v=100
12591306 Off ch=3 n=17 v=0
12591344 On ch=3 n=8 v=100
12591348 Off ch=3 n=15 v=0
12591349 Off ch=3 n=12 v=0
12591360 Off ch=3 n=9 v=0
12591572 Off ch=3 n=8 v=0
12597771 On ch=3 n=6 v=100
12602467 Off ch=3 n=6 v=0
12602500 On ch=3 n=6 v=100
12603478 Off ch=3 n=6 v=0
12603559 On ch=3 n=8 v=100
12603874 Off ch=3 n=8 v=0
12603908 On ch=3 n=8 v=100
12604280 Off ch=3 n=8 v=0
12604299 On ch=3 n=5 v=100
12604735 Off ch=3 n=5 v=0
12604737 On ch=3 n=9 v=100
12604818 Off ch=3 n=9 v=0
12604864 On ch=3 n=8 v=100
12605166 Off ch=3 n=8 v=0
12605170 On ch=3 n=26 v=100
12605190 On ch=3 n=14 v=100
12605282 Off ch=3 n=26 v=0
12605326 Off ch=3 n=14 v=0
12605416 On ch=3 n=24 v=100
12605509 On ch=3 n=24 v=100
12605513 On ch=3 n=17 v=100
12605640 Off ch=3 n=24 v=0
12605666 Off ch=3 n=17 v=0
12605727 Off ch=3 n=24 v=0
12605790 On ch=3 n=24 v=100
12605895 On ch=3 n=41 v=100
12605955 On ch=3 n=32 v=100
12605966 Off ch=3 n=24 v=0
12605969 On ch=3 n=55 v=100
12605973 On ch=3 n=23 v=100
12606090 Off ch=3 n=23 v=0
12606091 Off ch=3 n=41 v=0
12606096 On ch=3 n=39 v=100
12606192 Off ch=3 n=32 v=0
12606225 Off ch=3 n=55 v=0
12606252 Off ch=3 n=39 v=0
12607504 On ch=3 n=27 v=100
12607540 On ch=3 n=10 v=100
12607568 Off ch=3 n=27 v=0
12607969 Off ch=3 n=10 v=0
12607971 On ch=3 n=4 v=100
12608501 On ch=3 n=11 v=100
12608532 Off ch=3 n=4 v=0
12609028 Off ch=3 n=11 v=0
12609031 On ch=3 n=23 v=100
12609244 On ch=3 n=30 v=100
12609338 Off ch=3 n=23 v=0
12609390 Off ch=3 n=30 v=0
12609433 On ch=3 n=12 v=100
12609529 On ch=3 n=7 v=100
12609540 Off ch=3 n=12 v=0
12609783 On ch=3 n=9 v=100
12609786 Off ch=3 n=7 v=0
12610311 On ch=3 n=58 v=100
12610335 Off ch=3 n=9 v=0
12610712 On ch=3 n=31 v=100
12610923 On ch=3 n=10 v=100
12610946 On ch=3 n=20 v=100
12611192 Off ch=3 n=58 v=0
12611288 Off ch=3 n=31 v=0
12611302 Off ch=3 n=10 v=0
12611394 On ch=3 n=11 v=100
12611555 Off ch=3 n=20 v=0
12611792 Off ch=3 n=11 v=0
12611874 On ch=3 n=38 v=100
12611925 On ch=3 n=19 v=100
12611925 On ch=3 n=37 v=100
12612040 Off ch=3 n=38 v=0
12612048 Off ch=3 n=19 v=0
12612103 Off ch=3 n=37 v=0
12612536 On ch=3 n=13 v=100
12612667 On ch=3 n=7 v=100
12612715 On ch=3 n=6 v=100
12612737 Off ch=3 n=13 v=0
12612761 Off ch=3 n=7 v=0
12612781 On ch=3 n=17 v=100
12612807 Off ch=3 n=6 v=0
12612818 On ch=3 n=12 v=100
12612943 Off ch=3 n=17 v=0
12613610 On ch=3 n=4 v=100
12613611 Off ch=3 n=12 v=0
12613634 On ch=3 n=15 v=100
12613703 Off ch=3 n=4 v=0
12613831 Off ch=3 n=15 v=0
12613891 On ch=3 n=7 v=100
12614879 On ch=3 n=38 v=100
12614909 Off ch=3 n=7 v=0
12614910 On ch=3 n=5 v=100
12615164 Off ch=3 n=38 v=0
12615164 Off ch=3 n=5 v=0
12616593 On ch=3 n=23 v=100
12616611 On ch=3 n=10 v=100
12616746 Off ch=3 n=23 v=0
12617284 Off ch=3 n=10 v=0
12617344 On ch=3 n=26 v=100
12617435 Off ch=3 n=26 v=0
12617572 On ch=3 n=21 v=100
12617659 On ch=3 n=20 v=100
12617680 Off ch=3 n=21 v=0
12618071 On ch=3 n=15 v=100
12618118 Off ch=3 n=20 v=0
12618223 On ch=3 n=8 v=100
12618246 Off ch=3 n=15 v=0
12618883 Off ch=3 n=8 v=0
12620575 On ch=3 n=10 v=100
12620974 Off ch=3 n=10 v=0
12621861 On ch=3 n=16 v=100
12622207 Off ch=3 n=16 v=0
12622217 On ch=3 n=25 v=100
12622219 On ch=3 n=38 v=100
12622236 On ch=3 n=34 v=100
12622356 Off ch=3 n=25 v=0
12622381 Off ch=3 n=34 v=0
12622516 Off ch=3 n=38 v=0
12625128 On ch=3 n=9 v=100
12625453 Off ch=3 n=9 v=0
12625473 On ch=3 n=10 v=100
12625531 On ch=3 n=7 v=100
12625531 Off ch=3 n=10 v=0
12625988 Off ch=3 n=7 v=0
12625991 On ch=3 n=6 v=100
12626997 Off ch=3 n=6 v=0
12628648 On ch=3 n=8 v=100
12628648 On ch=3 n=2 v=100
12628789 On ch=3 n=6 v=100
12628794 Off ch=3 n=2 v=0
12628814 Off ch=3 n=8 v=0
12629499 On ch=3 n=5 v=100
12629499 Off ch=3 n=6 v=0
12629621 Off ch=3 n=5 v=0
12629655 On ch=3 n=4 v=100
12631566 On ch=3 n=19 v=100
12631591 Off ch=3 n=4 v=0
12631720 Off ch=3 n=19 v=0
12631945 On ch=3 n=27 v=100
12632199 Off ch=3 n=27 v=0
12632346 On ch=3 n=63 v=100
12632647 Off ch=3 n=63 v=0
12632847 On ch=3 n=4 v=100
12633764 Off ch=3 n=4 v=0
12633882 On ch=3 n=35 v=100
12634251 Off ch=3 n=35 v=0
12635075 On ch=3 n=5 v=100
12636911 On ch=3 n=6 v=100
12636927 Off ch=3 n=5 v=0
12637142 Off ch=3 n=6 v=0
12637176 On ch=3 n=15 v=100
12637280 Off ch=3 n=15 v=0
12638348 On ch=3 n=14 v=100
12638440 On ch=3 n=18 v=100
12638477 Off ch=3 n=14 v=0
12638721 Off ch=3 n=18 v=0
12638818 On ch=3 n=12 v=100
12639073 Off ch=3 n=12 v=0
12639203 On ch=3 n=3 v=100
12639717 On ch=3 n=7 v=100
12639717 Off ch=3 n=3 v=0
12639807 Off ch=3 n=7 v=0
12639819 On ch=3 n=7 v=100
12640557 Off ch=3 n=7 v=0
12640631 On ch=3 n=8 v=100
12640742 On ch=3 n=4 v=100
12640880 Off ch=3 n=8 v=0
12640958 Off ch=3 n=4 v=0
12640960 On ch=3 n=5 v=100
12641209 On ch=3 n=42 v=100
12641253 Off ch=3 n=5 v=0
12641266 On ch=3 n=5 v=100
12641412 On ch=3 n=25 v=100
12641460 Off ch=3 n=5 v=0
12641515 On ch=3 n=8 v=100
12641673 Off ch=3 n=42 v=0
12641673 Off ch=3 n=25 v=0
12641673 Off ch=3 n=8 v=0
12641680 On ch=3 n=9 v=100
12641835 Off ch=3 n=9 v=0
12642243 On ch=3 n=9 v=100
12642688 Off ch=3 n=9 v=0
12645036 On ch=3 n=4 v=100
12645140 Off ch=3 n=4 v=0
12645202 On ch=3 n=4 v=100
12646115 Off ch=3 n=4 v=0
12646117 On ch=3 n=8 v=100
12647571 Off ch=3 n=8 v=0
12647659 On ch=3 n=4 v=100
12647843 Off ch=3 n=4 v=0
12647844 On ch=3 n=5 v=100
12648540 Off ch=3 n=5 v=0
12650022 On ch=3 n=5 v=100
12650806 On ch=3 n=17 v=100
12650855 On ch=3 n=11 v=100
12650862 Off ch=3 n=5 v=0
12651140 On ch=3 n=6 v=100
12651140 Off ch=3 n=17 v=0
12651143 Off ch=3 n=11 v=0
12651867 On ch=3 n=13 v=100
12651867 Off ch=3 n=6 v=0
12652773 Off ch=3 n=13 v=0
12653972 On ch=3 n=6 v=100
12653972 On ch=3 n=6 v=100
12654279 On ch=3 n=30 v=100
12654321 On ch=3 n=41 v=100
12654321 On ch=3 n=41 v=100
12654417 Off ch=3 n=6 v=0
12654417 Off ch=3 n=6 v=0
12654441 Off ch=3 n=30 v=0
12654541 On ch=3 n=22 v=100
12654576 Off ch=3 n=41 v=0
12654576 Off ch=3 n=41 v=0
12654587 On ch=3 n=6 v=100
12654795 Off ch=3 n=22 v=0
12655232 Off ch=3 n=6 v=0
12655701 On ch=3 n=47 v=100
12655885 Off ch=3 n=47 v=0
12655888 On ch=3 n=18 v=100
12655903 On ch=3 n=31 v=100
12655919 On ch=3 n=25 v=100
12656028 Off ch=3 n=31 v=0
12656049 Off ch=3 n=25 v=0
12656057 Off ch=3 n=18 v=0
12656065 On ch=3 n=14 v=100
12656355 Off ch=3 n=14 v=0
12657569 On ch=3 n=9 v=100
12657895 Off ch=3 n=9 v=0
12660522 On ch=3 n=12 v=100
12660721 Off ch=3 n=12 v=0
12660750 On ch=3 n=6 v=100
12660979 Off ch=3 n=6 v=0
12664738 On ch=3 n=10 v=100
12665028 Off ch=3 n=10 v=0
12665054 On ch=3 n=11 v=100
12665484 Off ch=3 n=11 v=0
12665485 On ch=3 n=11 v=100
12665672 Off ch=3 n=11 v=0
12665749 On ch=3 n=13 v=100
12666339 On ch=3 n=35 v=100
12666389 Off ch=3 n=13 v=0
12666392 Off ch=3 n=35 v=0
12666455 On ch=3 n=35 v=100
12666457 On ch=3 n=22 v=100
12666534 Off ch=3 n=35 v=0
12666559 Off ch=3 n=22 v=0
12666706 On ch=3 n=14 v=100
12666736 On ch=3 n=10 v=100
12666785 Off ch=3 n=14 v=0
12666845 On ch=3 n=26 v=100
12666993 Off ch=3 n=10 v=0
12666999 On ch=3 n=14 v=100
12667011 Off ch=3 n=26 v=0
12667082 Off ch=3 n=14 v=0
12667867 On ch=3 n=39 v=100
12667933 On ch=3 n=4 v=100
12668228 Off ch=3 n=4 v=0
12668240 Off ch=3 n=39 v=0
12669813 On ch=3 n=10 v=100
12669813 On ch=3 n=51 v=100
12669985 Off ch=3 n=10 v=0
12670104 Off ch=3 n=51 v=0
12672562 On ch=3 n=2 v=100
12675035 Off ch=3 n=2 v=0
12675681 On ch=3 n=16 v=100
12675735 Off ch=3 n=16 v=0
12675755 On ch=3 n=19 v=100
12675832 Off ch=3 n=19 v=0
12676284 On ch=3 n=6 v=100
12676290 On ch=3 n=18 v=100
12676556 Off ch=3 n=6 v=0
12676619 Off ch=3 n=18 v=0
12677182 On ch=3 n=10 v=100
12677184 On ch=3 n=21 v=100
12677547 Off ch=3 n=10 v=0
12677688 Off ch=3 n=21 v=0
12677798 On ch=3 n=17 v=100
12677892 On ch=3 n=22 v=100
12677892 On ch=3 n=22 v=100
12677901 Off ch=3 n=17 v=0
12677904 On ch=3 n=11 v=100
12678170 Off ch=3 n=11 v=0
12678215 On ch=3 n=13 v=100
12678264 Off ch=3 n=22 v=0
12678264 Off ch=3 n=22 v=0
12678339 On ch=3 n=10 v=100
12678340 Off ch=3 n=13 v=0
12678663 Off ch=3 n=10 v=0
12678761 On ch=3 n=16 v=100
12678962 Off ch=3 n=16 v=0
12679307 On ch=3 n=6 v=100
12679373 Off ch=3 n=6 v=0
12680134 On ch=3 n=17 v=100
12680134 On ch=3 n=41 v=100
12680250 Off ch=3 n=17 v=0
12680273 Off ch=3 n=41 v=0
12680359 On ch=3 n=39 v=100
12680512 On ch=3 n=19 v=100
12680519 Off ch=3 n=39 v=0
12680529 On ch=3 n=33 v=100
12680634 Off ch=3 n=19 v=0
12680648 Off ch=3 n=33 v=0
12685595 On ch=3 n=4 v=100
12685807 On ch=3 n=40 v=100
12685854 Off ch=3 n=4 v=0
12685861 Off ch=3 n=40 v=0
12686452 On ch=3 n=49 v=100
12686594 Off ch=3 n=49 v=0
12691267 On ch=3 n=6 v=100
12691943 Off ch=3 n=6 v=0
12696293 On ch=3 n=3 v=100
12697447 Off ch=3 n=3 v=0
12702378 On ch=3 n=23 v=100
12702757 Off ch=3 n=23 v=0
12702868 On ch=3 n=23 v=100
12705674 Off ch=3 n=23 v=0
12705854 On ch=3 n=6 v=100
12706363 Off ch=3 n=6 v=0
12712865 On ch=3 n=11 v=100
12714075 Off ch=3 n=11 v=0
12714240 On ch=3 n=41 v=100
12714372 Off ch=3 n=41 v=0
12714624 On ch=3 n=7 v=100
12715394 On ch=3 n=10 v=100
12715395 Off ch=3 n=7 v=0
12715576 Off ch=3 n=10 v=0
12715578 On ch=3 n=22 v=100
12715902 On ch=3 n=22 v=100
12716108 Off ch=3 n=22 v=0
12716190 Off ch=3 n=22 v=0
12717523 On ch=3 n=4 v=100
12717600 Off ch=3 n=4 v=0
12719056 On ch=3 n=9 v=100
12719291 Off ch=3 n=9 v=0
12720016 On ch=3 n=2 v=100
12720338 Off ch=3 n=2 v=0
12721191 On ch=3 n=22 v=100
12721327 Off ch=3 n=22 v=0
12721330 On ch=3 n=7 v=100
12721920 Off ch=3 n=7 v=0
12722009 On ch=3 n=11 v=100
12722148 Off ch=3 n=11 v=0
12722151 On ch=3 n=3 v=100
12723558 Off ch=3 n=3 v=0
12723559 On ch=3 n=8 v=100
12723653 On ch=3 n=14 v=100
12723680 On ch=3 n=36 v=100
12723741 Off ch=3 n=8 v=0
12723758 Off ch=3 n=14 v=0
12723806 Off ch=3 n=36 v=0
12723942 On ch=3 n=10 v=100
12724599 Off ch=3 n=10 v=0
12725189 On ch=3 n=17 v=100
12725302 On ch=3 n=7 v=100
12725567 Off ch=3 n=17 v=0
12725571 Off ch=3 n=7 v=0
12725574 On ch=3 n=14 v=100
12725584 On ch=3 n=18 v=100
12725831 Off ch=3 n=14 v=0
12725840 On ch=3 n=5 v=100
12725885 Off ch=3 n=18 v=0
12725989 Off ch=3 n=5 v=0
12725991 On ch=3 n=7 v=100
12726267 Off ch=3 n=7 v=0
12726268 On ch=3 n=18 v=100
12726269 On ch=3 n=4 v=100
12726416 Off ch=3 n=4 v=0
12726457 Off ch=3 n=18 v=0
12726736 On ch=3 n=21 v=100
12726981 Off ch=3 n=21 v=0
12727328 On ch=3 n=36 v=100
12727334 On ch=3 n=53 v=100
12727364 On ch=3 n=38 v=100
12727364 On ch=3 n=42 v=100
12727397 On ch=3 n=47 v=100
12727519 Off ch=3 n=36 v=0
12727545 Off ch=3 n=38 v=0
12727546 On ch=3 n=18 v=100
12727549 Off ch=3 n=53 v=0
12727608 Off ch=3 n=42 v=0
12727772 Off ch=3 n=18 v=0
12727821 On ch=3 n=17 v=100
12727870 On ch=3 n=12 v=100
12727903 On ch=3 n=12 v=100
12728135 Off ch=3 n=47 v=0
12728227 Off ch=3 n=17 v=0
12728237 Off ch=3 n=12 v=0
12728250 On ch=3 n=7 v=100
12728297 Off ch=3 n=12 v=0
12728465 On ch=3 n=11 v=100
12728502 Off ch=3 n=7 v=0
12728881 Off ch=3 n=11 v=0
12728885 On ch=3 n=18 v=100
12729055 Off ch=3 n=18 v=0
12729105 On ch=3 n=5 v=100
12729255 On ch=3 n=16 v=100
12729383 Off ch=3 n=5 v=0
12729387 Off ch=3 n=16 v=0
12729470 On ch=3 n=16 v=100
12729512 Off ch=3 n=16 v=0
12730599 On ch=3 n=23 v=100
12730687 Off ch=3 n=23 v=0
12732102 On ch=3 n=21 v=100
12732198 Off ch=3 n=21 v=0
12732204 On ch=3 n=8 v=100
12732881 Off ch=3 n=8 v=0
12732944 On ch=3 n=27 v=100
12733019 Off ch=3 n=27 v=0
12733158 On ch=3 n=18 v=100
12733247 On ch=3 n=25 v=100
12733261 Off ch=3 n=18 v=0
12733297 Off ch=3 n=25 v=0
12733314 On ch=3 n=9 v=100
12733768 Off ch=3 n=9 v=0
12734231 On ch=3 n=12 v=100
12734575 Off ch=3 n=12 v=0
12734701 On ch=3 n=30 v=100
12734749 On ch=3 n=16 v=100
12735033 Off ch=3 n=30 v=0
12735047 Off ch=3 n=16 v=0
12735330 On ch=3 n=21 v=100
12735456 Off ch=3 n=21 v=0
12737951 On ch=3 n=69 v=100
12738212 Off ch=3 n=69 v=0
12738347 On ch=3 n=15 v=100
12738431 Off ch=3 n=15 v=0
12739203 On ch=3 n=18 v=100
12739322 Off ch=3 n=18 v=0
12744867 On ch=3 n=9 v=100
12745056 Off ch=3 n=9 v=0
12749634 On ch=3 n=28 v=100
12749681 On ch=3 n=5 v=100
12749682 Off ch=3 n=28 v=0
12749716 On ch=3 n=12 v=100
12749720 Off ch=3 n=5 v=0
12749897 On ch=3 n=22 v=100
12749913 Off ch=3 n=12 v=0
12750027 Off ch=3 n=22 v=0
12750157 On ch=3 n=21 v=100
12750264 Off ch=3 n=21 v=0
12751506 On ch=3 n=44 v=100
12751571 On ch=3 n=31 v=100
12751791 Off ch=3 n=31 v=0
12751794 Off ch=3 n=44 v=0
12752268 On ch=3 n=41 v=100
12752417 Off ch=3 n=41 v=0
12752529 On ch=3 n=29 v=100
12752661 Off ch=3 n=29 v=0
12754199 On ch=3 n=3 v=100
12754199 On ch=3 n=3 v=100
12754373 On ch=3 n=37 v=100
12754401 On ch=3 n=5 v=100
12754401 On ch=3 n=5 v=100
12754450 Off ch=3 n=3 v=0
12754450 Off ch=3 n=3 v=0
12754537 Off ch=3 n=37 v=0
12754910 Off ch=3 n=5 v=0
12754910 Off ch=3 n=5 v=0
12755112 On ch=3 n=44 v=100
12755193 On ch=3 n=49 v=100
12755202 Off ch=3 n=44 v=0
12755205 On ch=3 n=2 v=100
12755269 Off ch=3 n=49 v=0
12755355 Off ch=3 n=2 v=0
12755404 On ch=3 n=10 v=100
12755591 On ch=3 n=6 v=100
12756466 On ch=3 n=3 v=100
12756922 Off ch=3 n=10 v=0
12756922 Off ch=3 n=6 v=0
12757337 Off ch=3 n=3 v=0
12759344 On ch=3 n=17 v=100
12759406 Off ch=3 n=17 v=0
12759436 On ch=3 n=22 v=100
12760124 On ch=3 n=37 v=100
12760225 Off ch=3 n=22 v=0
12760283 On ch=3 n=49 v=100
12760300 Off ch=3 n=37 v=0
12760505 On ch=3 n=20 v=100
12760565 On ch=3 n=18 v=100
12760707 Off ch=3 n=49 v=0
12760820 On ch=3 n=18 v=100
12760954 Off ch=3 n=20 v=0
12761202 On ch=3 n=19 v=100
12761339 Off ch=3 n=18 v=0
12761463 On ch=3 n=40 v=100
12761576 Off ch=3 n=18 v=0
12761745 Off ch=3 n=19 v=0
12761839 Off ch=3 n=40 v=0
12763900 On ch=3 n=38 v=100
12764051 Off ch=3 n=38 v=0
12764156 On ch=3 n=27 v=100
12764273 Off ch=3 n=27 v=0
12764411 On ch=3 n=11 v=100
12764712 On ch=3 n=11 v=100
12764724 Off ch=3 n=11 v=0
12764823 On ch=3 n=12 v=100
12764833 Off ch=3 n=11 v=0
12765112 On ch=3 n=12 v=100
12765114 Off ch=3 n=12 v=0
12765453 Off ch=3 n=12 v=0
12765462 On ch=3 n=7 v=100
12765927 Off ch=3 n=7 v=0
12767215 On ch=3 n=42 v=100
12767402 On ch=3 n=19 v=100
12767405 Off ch=3 n=42 v=0
12767416 On ch=3 n=32 v=100
12767438 On ch=3 n=24 v=100
12767465 Off ch=3 n=19 v=0
12767558 Off ch=3 n=32 v=0
12767565 Off ch=3 n=24 v=0
12767581 On ch=3 n=15 v=100
12767938 Off ch=3 n=15 v=0
12768264 On ch=3 n=4 v=100
12768648 Off ch=3 n=4 v=0
12768649 On ch=3 n=3 v=100
12768913 Off ch=3 n=3 v=0
12768952 On ch=3 n=6 v=100
12769197 On ch=3 n=12 v=100
12769203 Off ch=3 n=6 v=0
12769282 On ch=3 n=5 v=100
12769282 Off ch=3 n=12 v=0
12769998 Off ch=3 n=5 v=0
12770391 On ch=3 n=17 v=100
12770836 Off ch=3 n=17 v=0
12771518 On ch=3 n=2 v=100
12771518 On ch=3 n=2 v=100
12771598 On ch=3 n=51 v=100
12771598 On ch=3 n=51 v=100
12771621 On ch=3 n=45 v=100
12771641 Off ch=3 n=2 v=0
12771641 Off ch=3 n=2 v=0
12771646 On ch=3 n=10 v=100
12771689 On ch=3 n=39 v=100
12771689 On ch=3 n=39 v=100
12771734 Off ch=3 n=51 v=0
12771734 Off ch=3 n=51 v=0
12771740 Off ch=3 n=45 v=0
12771748 Off ch=3 n=10 v=0
12771772 Off ch=3 n=39 v=0
12771772 Off ch=3 n=39 v=0
12772931 On ch=3 n=17 v=100
12772957 On ch=3 n=16 v=100
12773042 Off ch=3 n=16 v=0
12773044 Off ch=3 n=17 v=0
12773045 On ch=3 n=14 v=100
12773273 On ch=3 n=27 v=100
12773273 Off ch=3 n=14 v=0
12773383 Off ch=3 n=27 v=0
12773523 On ch=3 n=25 v=100
12773617 Off ch=3 n=25 v=0
12773677 On ch=3 n=11 v=100
12774181 Off ch=3 n=11 v=0
12774185 On ch=3 n=13 v=100
12774315 Off ch=3 n=13 v=0
12775681 On ch=3 n=27 v=100
12775721 On ch=3 n=48 v=100
12775815 Off ch=3 n=27 v=0
12775848 On ch=3 n=15 v=100
12775856 Off ch=3 n=48 v=0
12775861 On ch=3 n=24 v=100
12776028 On ch=3 n=12 v=100
12776036 Off ch=3 n=15 v=0
12776094 Off ch=3 n=24 v=0
12776214 On ch=3 n=8 v=100
12776302 Off ch=3 n=12 v=0
12776657 Off ch=3 n=8 v=0
12777311 On ch=3 n=18 v=100
12777400 Off ch=3 n=18 v=0
12777565 On ch=3 n=8 v=100
12777943 On ch=3 n=5 v=100
12777943 Off ch=3 n=8 v=0
12778058 Off ch=3 n=5 v=0
12784219 On ch=3 n=1 v=100
12784368 Off ch=3 n=1 v=0
12784531 On ch=3 n=24 v=100
12784611 Off ch=3 n=24 v=0
12785696 On ch=3 n=10 v=100
12785795 Off ch=3 n=10 v=0
12785947 On ch=3 n=8 v=100
12786041 Off ch=3 n=8 v=0
12786042 On ch=3 n=5 v=100
12786199 On ch=3 n=11 v=100
12786549 On ch=3 n=13 v=100
12787094 Off ch=3 n=5 v=0
12787240 Off ch=3 n=11 v=0
12787306 On ch=3 n=12 v=100
12787325 Off ch=3 n=13 v=0
12787769 Off ch=3 n=12 v=0
12787965 On ch=3 n=43 v=100
12788106 On ch=3 n=16 v=100
12788109 Off ch=3 n=43 v=0
12788192 On ch=3 n=25 v=100
12788204 Off ch=3 n=16 v=0
12788210 On ch=3 n=11 v=100
12788356 Off ch=3 n=25 v=0
12788748 On ch=3 n=12 v=100
12788798 Off ch=3 n=11 v=0
12789357 On ch=3 n=50 v=100
12789406 On ch=3 n=9 v=100
12789425 On ch=3 n=12 v=100
12789430 Off ch=3 n=12 v=0
12789474 Off ch=3 n=50 v=0
12789634 Off ch=3 n=9 v=0
12789636 On ch=3 n=19 v=100
12789675 Off ch=3 n=12 v=0
12789680 Off ch=3 n=19 v=0
12789683 On ch=3 n=9 v=100
12790304 On ch=3 n=10 v=100
12790320 Off ch=3 n=9 v=0
12790423 Off ch=3 n=10 v=0
12790425 On ch=3 n=7 v=100
12790706 On ch=3 n=8 v=100
12790717 Off ch=3 n=7 v=0
12790815 Off ch=3 n=8 v=0
12791076 On ch=3 n=24 v=100
12791156 On ch=3 n=53 v=100
12791216 On ch=3 n=32 v=100
12791216 On ch=3 n=32 v=100
12791228 Off ch=3 n=24 v=0
12791247 On ch=3 n=19 v=100
12791365 Off ch=3 n=19 v=0
12791367 Off ch=3 n=53 v=0
12791396 On ch=3 n=50 v=100
12791472 Off ch=3 n=32 v=0
12791472 Off ch=3 n=32 v=0
12791504 Off ch=3 n=50 v=0
12792688 On ch=3 n=26 v=100
12792700 On ch=3 n=28 v=100
12792744 Off ch=3 n=26 v=0
12792775 Off ch=3 n=28 v=0
12792901 On ch=3 n=7 v=100
12793224 Off ch=3 n=7 v=0
12794184 On ch=3 n=13 v=100
12794348 Off ch=3 n=13 v=0
12794654 On ch=3 n=8 v=100
12794894 Off ch=3 n=8 v=0
12794965 On ch=3 n=14 v=100
12795031 On ch=3 n=14 v=100
12795032 On ch=3 n=11 v=100
12795163 Off ch=3 n=14 v=0
12795182 Off ch=3 n=11 v=0
12795206 Off ch=3 n=14 v=0
12801642 On ch=3 n=2 v=100
12803145 Off ch=3 n=2 v=0
12803704 On ch=3 n=2 v=100
12805545 Off ch=3 n=2 v=0
12805575 On ch=3 n=2 v=100
12806643 On ch=3 n=7 v=100
12806649 Off ch=3 n=2 v=0
12807400 Off ch=3 n=7 v=0
12807421 On ch=3 n=5 v=100
12807624 Off ch=3 n=5 v=0
12807626 On ch=3 n=8 v=100
12808412 On ch=3 n=42 v=100
12808501 On ch=3 n=6 v=100
12808503 Off ch=3 n=8 v=0
12808561 On ch=3 n=5 v=100
12808573 Off ch=3 n=42 v=0
12808580 Off ch=3 n=6 v=0
12808844 Off ch=3 n=5 v=0
12812442 On ch=3 n=3 v=100
12812930 Off ch=3 n=3 v=0
12813051 On ch=3 n=1 v=100
12814937 Off ch=3 n=1 v=0
12815029 On ch=3 n=6 v=100
12815465 Off ch=3 n=6 v=0
12815505 On ch=3 n=6 v=100
12815505 On ch=3 n=1 v=100
12815559 Off ch=3 n=6 v=0
12816417 Off ch=3 n=1 v=0
12816721 On ch=3 n=3 v=100
12817331 On ch=3 n=62 v=100
12817533 On ch=3 n=16 v=100
12817537 Off ch=3 n=3 v=0
12817649 Off ch=3 n=62 v=0
12817779 Off ch=3 n=16 v=0
12818394 On ch=3 n=7 v=100
12819522 Off ch=3 n=7 v=0
12819739 On ch=3 n=18 v=100
12819811 On ch=3 n=37 v=100
12819823 Off ch=3 n=18 v=0
12819840 On ch=3 n=11 v=100
12819907 Off ch=3 n=37 v=0
12820397 On ch=3 n=12 v=100
12820398 Off ch=3 n=11 v=0
12820535 Off ch=3 n=12 v=0
12820544 On ch=3 n=30 v=100
12820616 Off ch=3 n=30 v=0
12820756 On ch=3 n=30 v=100
12820864 On ch=3 n=14 v=100
12820864 Off ch=3 n=30 v=0
12821023 On ch=3 n=29 v=100
12821125 On ch=3 n=12 v=100
12821167 Off ch=3 n=14 v=0
12821458 On ch=3 n=34 v=100
12821528 On ch=3 n=14 v=100
12821548 Off ch=3 n=29 v=0
12821551 Off ch=3 n=12 v=0
12821625 Off ch=3 n=34 v=0
12821641 On ch=3 n=13 v=100
12821691 Off ch=3 n=14 v=0
12821790 Off ch=3 n=13 v=0
12822270 On ch=3 n=18 v=100
12822446 Off ch=3 n=18 v=0
12822493 On ch=3 n=29 v=100
12822543 Off ch=3 n=29 v=0
12822594 On ch=3 n=23 v=100
12822684 On ch=3 n=35 v=100
12822736 On ch=3 n=29 v=100
12822742 On ch=3 n=43 v=100
12822742 On ch=3 n=43 v=100
12822763 On ch=3 n=43 v=100
12822765 Off ch=3 n=23 v=0
12822780 On ch=3 n=27 v=100
12822885 Off ch=3 n=35 v=0
12822886 Off ch=3 n=27 v=0
12822887 Off ch=3 n=29 v=0
12822946 Off ch=3 n=43 v=0
12823006 Off ch=3 n=43 v=0
12823006 Off ch=3 n=43 v=0
12824290 On ch=3 n=28 v=100
12824439 Off ch=3 n=28 v=0
12824476 On ch=3 n=13 v=100
12824572 On ch=3 n=11 v=100
12824581 Off ch=3 n=13 v=0
12824929 Off ch=3 n=11 v=0
12824986 On ch=3 n=11 v=100
12825090 On ch=3 n=9 v=100
12825090 Off ch=3 n=11 v=0
12825253 Off ch=3 n=9 v=0
12825261 On ch=3 n=19 v=100
12825261 On ch=3 n=19 v=100
12825276 On ch=3 n=11 v=100
12825503 Off ch=3 n=11 v=0
12825553 On ch=3 n=13 v=100
12825555 Off ch=3 n=19 v=0
12825555 Off ch=3 n=19 v=0
12826097 Off ch=3 n=13 v=0
12826774 On ch=3 n=25 v=100
12826980 On ch=3 n=7 v=100
12826980 Off ch=3 n=25 v=0
12827416 On ch=3 n=18 v=100
12827459 Off ch=3 n=7 v=0
12827798 Off ch=3 n=18 v=0
12827805 On ch=3 n=5 v=100
12827986 Off ch=3 n=5 v=0
12827987 On ch=3 n=6 v=100
12828195 On ch=3 n=10 v=100
12828195 On ch=3 n=18 v=100
12828196 Off ch=3 n=6 v=0
12828474 On ch=3 n=5 v=100
12828481 Off ch=3 n=10 v=0
12828535 Off ch=3 n=18 v=0
12829273 On ch=3 n=5 v=100
12829275 Off ch=3 n=5 v=0
12829327 Off ch=3 n=5 v=0
12839248 On ch=3 n=4 v=100
12840604 On ch=3 n=5 v=100
12840605 Off ch=3 n=4 v=0
12841811 Off ch=3 n=5 v=0
12850393 On ch=3 n=6 v=100
12853228 Off ch=3 n=6 v=0
12857723 On ch=3 n=17 v=100
12857723 On ch=3 n=25 v=100
12857805 On ch=3 n=8 v=100
12857808 Off ch=3 n=17 v=0
12857831 Off ch=3 n=25 v=0
12857883 Off ch=3 n=8 v=0
12857920 On ch=3 n=11 v=100
12858105 Off ch=3 n=11 v=0
12858151 On ch=3 n=5 v=100
12860636 Off ch=3 n=5 v=0
12870060 On ch=3 n=36 v=100
12870172 Off ch=3 n=36 v=0
12870180 On ch=3 n=36 v=100
12870247 On ch=3 n=2 v=100
12870347 Off ch=3 n=36 v=0
12871259 On ch=3 n=3 v=100
12871259 Off ch=3 n=2 v=0
12872465 Off ch=3 n=3 v=0
12873794 On ch=3 n=7 v=100
12874098 Off ch=3 n=7 v=0
12874107 On ch=3 n=4 v=100
12874477 Off ch=3 n=4 v=0
12877871 On ch=3 n=30 v=100
12877948 Off ch=3 n=30 v=0
12877966 On ch=3 n=27 v=100
12878012 Off ch=3 n=27 v=0
12878037 On ch=3 n=25 v=100
12878090 Off ch=3 n=25 v=0
12878108 On ch=3 n=25 v=100
12878161 Off ch=3 n=25 v=0
12878168 On ch=3 n=25 v=100
12878207 On ch=3 n=30 v=100
12878221 Off ch=3 n=25 v=0
12878281 Off ch=3 n=30 v=0
12878361 On ch=3 n=34 v=100
12878406 On ch=3 n=28 v=100
12878414 Off ch=3 n=34 v=0
12878462 On ch=3 n=28 v=100
12878475 Off ch=3 n=28 v=0
12878536 Off ch=3 n=28 v=0
12878544 On ch=3 n=30 v=100
12878614 Off ch=3 n=30 v=0
12878622 On ch=3 n=30 v=100
12878682 On ch=3 n=31 v=100
12878692 Off ch=3 n=30 v=0
12878702 On ch=3 n=30 v=100
12878743 On ch=3 n=33 v=100
12878754 Off ch=3 n=31 v=0
12878775 Off ch=3 n=30 v=0
12878815 Off ch=3 n=33 v=0
12878822 On ch=3 n=28 v=100
12878865 On ch=3 n=28 v=100
12878875 Off ch=3 n=28 v=0
12878935 Off ch=3 n=28 v=0
12878953 On ch=3 n=31 v=100
12879014 On ch=3 n=31 v=100
12879025 Off ch=3 n=31 v=0
12879074 On ch=3 n=30 v=100
12879086 Off ch=3 n=31 v=0
12879133 On ch=3 n=23 v=100
12879144 Off ch=3 n=30 v=0
12879186 Off ch=3 n=23 v=0
12879193 On ch=3 n=16 v=100
12880209 On ch=3 n=20 v=100
12880289 On ch=3 n=12 v=100
12880293 Off ch=3 n=16 v=0
12880520 Off ch=3 n=20 v=0
12880540 Off ch=3 n=12 v=0
12880703 On ch=3 n=35 v=100
12880718 On ch=3 n=28 v=100
12880746 On ch=3 n=23 v=100
12880830 Off ch=3 n=35 v=0
12880830 Off ch=3 n=28 v=0
12880830 Off ch=3 n=23 v=0
12884893 On ch=3 n=41 v=100
12884991 On ch=3 n=40 v=100
12885151 On ch=3 n=26 v=100
12885188 On ch=3 n=17 v=100
12885269 Off ch=3 n=41 v=0
12885369 Off ch=3 n=26 v=0
12885490 Off ch=3 n=40 v=0
12885490 Off ch=3 n=17 v=0
12885517 On ch=3 n=40 v=100
12885548 Off ch=3 n=40 v=0
12885600 On ch=3 n=40 v=100
12885637 Off ch=3 n=40 v=0
12886292 On ch=3 n=25 v=100
12886537 Off ch=3 n=25 v=0
12889171 On ch=3 n=17 v=100
12891534 Off ch=3 n=17 v=0
12898756 On ch=3 n=12 v=100
12899330 Off ch=3 n=12 v=0
12901609 On ch=3 n=49 v=100
12901721 Off ch=3 n=49 v=0
12902423 On ch=3 n=15 v=100
12902480 Off ch=3 n=15 v=0
12902520 On ch=3 n=15 v=100
12902531 Off ch=3 n=15 v=0
12902545 On ch=3 n=32 v=100
12902899 Off ch=3 n=32 v=0
12904597 On ch=3 n=28 v=100
12904672 Off ch=3 n=28 v=0
12904692 On ch=3 n=9 v=100
12905022 On ch=3 n=37 v=100
12905192 Off ch=3 n=9 v=0
12905223 Off ch=3 n=37 v=0
12905246 On ch=3 n=7 v=100
12906635 Off ch=3 n=7 v=0
12907388 On ch=3 n=23 v=100
12907587 Off ch=3 n=23 v=0
12907721 On ch=3 n=5 v=100
12910581 Off ch=3 n=5 v=0
12912965 On ch=3 n=35 v=100
12912965 On ch=3 n=35 v=100
12912977 On ch=3 n=23 v=100
12913084 On ch=3 n=26 v=100
12913090 Off ch=3 n=23 v=0
12913117 Off ch=3 n=35 v=0
12913117 Off ch=3 n=35 v=0
12913129 On ch=3 n=18 v=100
12913190 On ch=3 n=54 v=100
12913354 Off ch=3 n=26 v=0
12913354 Off ch=3 n=18 v=0
12913359 On ch=3 n=13 v=100
12913410 Off ch=3 n=54 v=0
12913531 Off ch=3 n=13 v=0
12915433 On ch=3 n=14 v=100
12915643 Off ch=3 n=14 v=0
12915669 On ch=3 n=14 v=100
12915843 Off ch=3 n=14 v=0
12915881 On ch=3 n=10 v=100
12915956 Off ch=3 n=10 v=0
12916352 On ch=3 n=6 v=100
12916516 Off ch=3 n=6 v=0
12922944 On ch=3 n=40 v=100
12923385 On ch=3 n=34 v=100
12923683 Off ch=3 n=40 v=0
12923707 Off ch=3 n=34 v=0
12924442 On ch=3 n=20 v=100
12924594 Off ch=3 n=20 v=0
12925206 On ch=3 n=36 v=100
12925481 Off ch=3 n=36 v=0
12925697 On ch=3 n=5 v=100
12927928 Off ch=3 n=5 v=0
12928550 On ch=3 n=21 v=100
12928634 Off ch=3 n=21 v=0
12928753 On ch=3 n=4 v=100
12929950 Off ch=3 n=4 v=0
12930047 On ch=3 n=35 v=100
12930348 Off ch=3 n=35 v=0
12930639 On ch=3 n=19 v=100
12930646 On ch=3 n=7 v=100
12930926 Off ch=3 n=7 v=0
12930986 Off ch=3 n=19 v=0
12931598 On ch=3 n=10 v=100
12931712 Off ch=3 n=10 v=0
12931713 On ch=3 n=9 v=100
12932498 Off ch=3 n=9 v=0
12932594 On ch=3 n=9 v=100
12932716 Off ch=3 n=9 v=0
12932908 On ch=3 n=12 v=100
12932916 On ch=3 n=35 v=100
12933221 On ch=3 n=6 v=100
12933224 Off ch=3 n=12 v=0
12933411 On ch=3 n=27 v=100
12933421 Off ch=3 n=35 v=0
12933421 Off ch=3 n=6 v=0
12933484 Off ch=3 n=27 v=0
12933663 On ch=3 n=12 v=100
12933749 Off ch=3 n=12 v=0
12933822 On ch=3 n=12 v=100
12934245 On ch=3 n=16 v=100
12934309 Off ch=3 n=12 v=0
12934463 Off ch=3 n=16 v=0
12934993 On ch=3 n=30 v=100
12935059 On ch=3 n=4 v=100
12935059 Off ch=3 n=30 v=0
12935126 Off ch=3 n=4 v=0
12935283 On ch=3 n=21 v=100
12935381 Off ch=3 n=21 v=0
12935815 On ch=3 n=46 v=100
12935816 On ch=3 n=20 v=100
12935933 Off ch=3 n=20 v=0
12935955 Off ch=3 n=46 v=0
12936209 On ch=3 n=31 v=100
12936388 Off ch=3 n=31 v=0
12937872 On ch=3 n=23 v=100
12938181 Off ch=3 n=23 v=0
12938218 On ch=3 n=12 v=100
12938367 On ch=3 n=14 v=100
12938367 Off ch=3 n=12 v=0
12938910 Off ch=3 n=14 v=0
12939225 On ch=3 n=16 v=100
12939509 Off ch=3 n=16 v=0
12939544 On ch=3 n=7 v=100
12939998 On ch=3 n=19 v=100
12940026 Off ch=3 n=7 v=0
12940031 Off ch=3 n=19 v=0
12941684 On ch=3 n=6 v=100
12941958 On ch=3 n=44 v=100
12942039 On ch=3 n=10 v=100
12942039 Off ch=3 n=6 v=0
12942056 Off ch=3 n=44 v=0
12942248 On ch=3 n=14 v=100
12942250 Off ch=3 n=10 v=0
12942473 Off ch=3 n=14 v=0
12944329 On ch=3 n=3 v=100
12944446 Off ch=3 n=3 v=0
12944512 On ch=3 n=16 v=100
12944623 Off ch=3 n=16 v=0
12945179 On ch=3 n=20 v=100
12945222 Off ch=3 n=20 v=0
12945919 On ch=3 n=24 v=100
12945999 On ch=3 n=21 v=100
12946010 Off ch=3 n=24 v=0
12946018 On ch=3 n=8 v=100
12946164 Off ch=3 n=21 v=0
12946679 Off ch=3 n=8 v=0
12946736 On ch=3 n=19 v=100
12946826 Off ch=3 n=19 v=0
12946966 On ch=3 n=24 v=100
12947060 On ch=3 n=21 v=100
12947060 On ch=3 n=21 v=100
12947072 Off ch=3 n=24 v=0
12947073 On ch=3 n=12 v=100
12947487 Off ch=3 n=12 v=0
12947489 On ch=3 n=14 v=100
12947539 Off ch=3 n=21 v=0
12947539 Off ch=3 n=21 v=0
12947648 On ch=3 n=10 v=100
12947663 Off ch=3 n=14 v=0
12948296 Off ch=3 n=10 v=0
12950099 On ch=3 n=24 v=100
12950216 Off ch=3 n=24 v=0
12952165 On ch=3 n=26 v=100
12952179 On ch=3 n=40 v=100
12952336 Off ch=3 n=26 v=0
12952367 Off ch=3 n=40 v=0
12952595 On ch=3 n=23 v=100
12952727 Off ch=3 n=23 v=0
12953078 On ch=3 n=47 v=100
12953078 On ch=3 n=47 v=100
12953609 Off ch=3 n=47 v=0
12953609 Off ch=3 n=47 v=0
12954027 On ch=3 n=10 v=100
12954074 Off ch=3 n=10 v=0
12955223 On ch=3 n=18 v=100
12955332 Off ch=3 n=18 v=0
12955532 On ch=3 n=7 v=100
12956156 On ch=3 n=9 v=100
12956161 Off ch=3 n=7 v=0
12956307 Off ch=3 n=9 v=0
12956334 On ch=3 n=12 v=100
12956678 Off ch=3 n=12 v=0
12962832 On ch=3 n=44 v=100
12962903 On ch=3 n=12 v=100
12962936 Off ch=3 n=44 v=0
12962975 Off ch=3 n=12 v=0
12964867 On ch=3 n=45 v=100
12964938 On ch=3 n=12 v=100
12964971 Off ch=3 n=45 v=0
12965010 Off ch=3 n=12 v=0
12966901 On ch=3 n=44 v=100
12966972 On ch=3 n=12 v=100
12967005 Off ch=3 n=44 v=0
12967044 Off ch=3 n=12 v=0
12968935 On ch=3 n=44 v=100
12969006 On ch=3 n=12 v=100
12969039 Off ch=3 n=44 v=0
12969078 Off ch=3 n=12 v=0
12970970 On ch=3 n=44 v=100
12971041 On ch=3 n=12 v=100
12971074 Off ch=3 n=44 v=0
12971113 Off ch=3 n=12 v=0
12973005 On ch=3 n=44 v=100
12973076 On ch=3 n=12 v=100
12973109 Off ch=3 n=44 v=0
12973148 Off ch=3 n=12 v=0
12975039 On ch=3 n=44 v=100
12975110 On ch=3 n=12 v=100
12975143 Off ch=3 n=44 v=0
12975182 Off ch=3 n=12 v=0
12977074 On ch=3 n=42 v=100
12977145 On ch=3 n=12 v=100
12977180 Off ch=3 n=42 v=0
12977220 Off ch=3 n=12 v=0
12978231 On ch=3 n=6 v=100
12979042 On ch=3 n=4 v=100
12979042 Off ch=3 n=6 v=0
12979251 On ch=3 n=35 v=100
12979298 Off ch=3 n=4 v=0
12979306 Off ch=3 n=35 v=0
12979407 On ch=3 n=46 v=100
12979550 Off ch=3 n=46 v=0
12983480 On ch=3 n=13 v=100
12983582 Off ch=3 n=13 v=0
12983655 On ch=3 n=13 v=100
12983681 On ch=3 n=4 v=100
12983682 Off ch=3 n=13 v=0
12985206 Off ch=3 n=4 v=0
12986465 On ch=3 n=13 v=100
12987403 Off ch=3 n=13 v=0
12988415 On ch=3 n=9 v=100
12988674 Off ch=3 n=9 v=0
12988684 On ch=3 n=17 v=100
12989020 On ch=3 n=29 v=100
12989034 Off ch=3 n=17 v=0
12989094 Off ch=3 n=29 v=0
12989107 On ch=3 n=16 v=100
12989204 Off ch=3 n=16 v=0
12989217 On ch=3 n=19 v=100
12989275 Off ch=3 n=19 v=0
12989285 On ch=3 n=16 v=100
12989458 Off ch=3 n=16 v=0
12994650 On ch=3 n=12 v=100
12995070 Off ch=3 n=12 v=0
12995076 On ch=3 n=14 v=100
12995691 Off ch=3 n=14 v=0
12995847 On ch=3 n=22 v=100
12995978 Off ch=3 n=22 v=0
12996457 On ch=3 n=45 v=100
12996554 Off ch=3 n=45 v=0
12997475 On ch=3 n=30 v=100
12997763 Off ch=3 n=30 v=0
12998135 On ch=3 n=22 v=100
12998289 Off ch=3 n=22 v=0
12998572 On ch=3 n=31 v=100
12998998 Off ch=3 n=31 v=0
13005004 On ch=3 n=40 v=100
13005126 Off ch=3 n=40 v=0
13005174 On ch=3 n=40 v=100
13005386 Off ch=3 n=40 v=0
13005433 On ch=3 n=40 v=100
13005501 On ch=3 n=48 v=100
13005585 Off ch=3 n=40 v=0
13005597 Off ch=3 n=48 v=0
13005647 On ch=3 n=48 v=100
13005716 Off ch=3 n=48 v=0
13007713 On ch=3 n=16 v=100
13007815 Off ch=3 n=16 v=0
13007843 On ch=3 n=14 v=100
13008118 On ch=3 n=12 v=100
13008126 Off ch=3 n=14 v=0
13008389 On ch=3 n=19 v=100
13008577 On ch=3 n=9 v=100
13008590 Off ch=3 n=12 v=0
13008624 Off ch=3 n=19 v=0
13009163 Off ch=3 n=9 v=0
13010693 On ch=3 n=11 v=100
13011014 Off ch=3 n=11 v=0
13011015 On ch=3 n=7 v=100
13011111 Off ch=3 n=7 v=0
13012738 On ch=3 n=31 v=100
13012746 On ch=3 n=61 v=100
13012820 On ch=3 n=21 v=100
13012823 On ch=3 n=26 v=100
13012901 Off ch=3 n=31 v=0
13012981 Off ch=3 n=61 v=0
13012981 Off ch=3 n=21 v=0
13013037 Off ch=3 n=26 v=0
13013505 On ch=3 n=28 v=100
13013690 Off ch=3 n=28 v=0
13013729 On ch=3 n=30 v=100
13013824 Off ch=3 n=30 v=0
13014149 On ch=3 n=34 v=100
13014267 Off ch=3 n=34 v=0
13016346 On ch=3 n=12 v=100
13016777 Off ch=3 n=12 v=0
13017049 On ch=3 n=41 v=100
13017116 On ch=3 n=26 v=100
13017194 Off ch=3 n=41 v=0
13017206 Off ch=3 n=26 v=0
13017320 On ch=3 n=20 v=100
13017369 Off ch=3 n=20 v=0
13017580 On ch=3 n=34 v=100
13017756 Off ch=3 n=34 v=0
13018051 On ch=3 n=16 v=100
13018249 Off ch=3 n=16 v=0
13018589 On ch=3 n=22 v=100
13018651 On ch=3 n=16 v=100
13019009 Off ch=3 n=16 v=0
13019016 Off ch=3 n=22 v=0
13020242 On ch=3 n=12 v=100
13020726 Off ch=3 n=12 v=0
13020807 On ch=3 n=12 v=100
13020983 Off ch=3 n=12 v=0
13021179 On ch=3 n=10 v=100
13021305 On ch=3 n=5 v=100
13021309 Off ch=3 n=10 v=0
13021872 Off ch=3 n=5 v=0
13021877 On ch=3 n=11 v=100
13021904 Off ch=3 n=11 v=0
13029506 On ch=3 n=10 v=100
13029755 Off ch=3 n=10 v=0
13029758 On ch=3 n=4 v=100
13030090 On ch=3 n=33 v=100
13030092 Off ch=3 n=4 v=0
13030097 On ch=3 n=9 v=100
13030152 Off ch=3 n=33 v=0
13030606 On ch=3 n=8 v=100
13030608 Off ch=3 n=9 v=0
13030983 Off ch=3 n=8 v=0
13030986 On ch=3 n=9 v=100
13031039 On ch=3 n=7 v=100
13031042 Off ch=3 n=9 v=0
13031464 Off ch=3 n=7 v=0
13031474 On ch=3 n=13 v=100
13032330 Off ch=3 n=13 v=0
13032920 On ch=3 n=42 v=100
13033212 Off ch=3 n=42 v=0
13033589 On ch=3 n=26 v=100
13033672 Off ch=3 n=26 v=0
13033874 On ch=3 n=22 v=100
13034027 Off ch=3 n=22 v=0
13034354 On ch=3 n=9 v=100
13036731 Off ch=3 n=9 v=0
13036769 On ch=3 n=2 v=100
13037047 On ch=3 n=38 v=100
13037388 Off ch=3 n=2 v=0
13037429 Off ch=3 n=38 v=0
13045029 On ch=3 n=49 v=100
13045172 Off ch=3 n=49 v=0
13045293 On ch=3 n=4 v=100
13045553 Off ch=3 n=4 v=0
13049762 On ch=3 n=12 v=100
13049911 On ch=3 n=1 v=100
13049912 Off ch=3 n=12 v=0
13050579 On ch=3 n=12 v=100
13050579 On ch=3 n=12 v=100
13050579 Off ch=3 n=1 v=0
13050818 Off ch=3 n=12 v=0
13050818 Off ch=3 n=12 v=0
13050821 On ch=3 n=10 v=100
13050821 On ch=3 n=10 v=100
13050967 On ch=3 n=7 v=100
13050972 Off ch=3 n=10 v=0
13050972 Off ch=3 n=10 v=0
13051595 Off ch=3 n=7 v=0
13053560 On ch=3 n=5 v=100
13053625 Off ch=3 n=5 v=0
13053634 On ch=3 n=2 v=100
13054053 On ch=3 n=10 v=100
13054055 On ch=3 n=7 v=100
13054510 Off ch=3 n=2 v=0
13055380 Off ch=3 n=7 v=0
13055575 Off ch=3 n=10 v=0
13055624 On ch=3 n=0 v=100
13055744 On ch=3 n=14 v=100
13055770 Off ch=3 n=0 v=0
13055970 Off ch=3 n=14 v=0
13057861 On ch=3 n=1 v=100
13058702 Off ch=3 n=1 v=0
13058704 On ch=3 n=5 v=100
13059296 Off ch=3 n=5 v=0
13060188 On ch=3 n=7 v=100
13061019 Off ch=3 n=7 v=0
13061021 On ch=3 n=3 v=100
13061653 Off ch=3 n=3 v=0
13062308 On ch=3 n=13 v=100
13062627 Off ch=3 n=13 v=0
13063223 On ch=3 n=9 v=100
13063622 On ch=3 n=24 v=100
13063783 Off ch=3 n=9 v=0
13063784 On ch=3 n=16 v=100
13064482 Off ch=3 n=24 v=0
13064484 Off ch=3 n=16 v=0
13064500 On ch=3 n=20 v=100
13064585 Off ch=3 n=20 v=0
13064675 On ch=3 n=20 v=100
13064759 Off ch=3 n=20 v=0
13064820 On ch=3 n=11 v=100
13064994 Off ch=3 n=11 v=0
13065044 On ch=3 n=11 v=100
13065335 On ch=3 n=25 v=100
13065486 Off ch=3 n=11 v=0
13065492 On ch=3 n=18 v=100
13065505 Off ch=3 n=25 v=0
13065561 Off ch=3 n=18 v=0
13067420 On ch=3 n=12 v=100
13067742 On ch=3 n=8 v=100
13067744 Off ch=3 n=12 v=0
13068070 Off ch=3 n=8 v=0
13068696 On ch=3 n=7 v=100
13069818 Off ch=3 n=7 v=0
13070034 On ch=3 n=18 v=100
13070106 On ch=3 n=25 v=100
13070118 Off ch=3 n=18 v=0
13070138 On ch=3 n=10 v=100
13070214 Off ch=3 n=25 v=0
13070681 On ch=3 n=11 v=100
13070682 Off ch=3 n=10 v=0
13070819 Off ch=3 n=11 v=0
13070828 On ch=3 n=30 v=100
13070900 Off ch=3 n=30 v=0
13071040 On ch=3 n=29 v=100
13071150 On ch=3 n=13 v=100
13071150 Off ch=3 n=29 v=0
13071250 On ch=3 n=21 v=100
13071368 On ch=3 n=15 v=100
13071416 On ch=3 n=14 v=100
13071458 Off ch=3 n=13 v=0
13071801 Off ch=3 n=15 v=0
13071811 On ch=3 n=14 v=100
13071834 Off ch=3 n=14 v=0
13071839 Off ch=3 n=21 v=0
13071924 On ch=3 n=13 v=100
13071974 Off ch=3 n=14 v=0
13072073 Off ch=3 n=13 v=0
13072484 On ch=3 n=33 v=100
13072549 On ch=3 n=19 v=100
13072591 On ch=3 n=12 v=100
13072656 Off ch=3 n=33 v=0
13072725 Off ch=3 n=12 v=0
13072726 Off ch=3 n=19 v=0
13072772 On ch=3 n=32 v=100
13072823 Off ch=3 n=32 v=0
13072874 On ch=3 n=26 v=100
13073027 On ch=3 n=43 v=100
13073027 On ch=3 n=43 v=100
13073044 On ch=3 n=44 v=100
13073045 Off ch=3 n=26 v=0
13073061 On ch=3 n=29 v=100
13073085 On ch=3 n=41 v=100
13073167 Off ch=3 n=29 v=0
13073227 Off ch=3 n=44 v=0
13073287 Off ch=3 n=43 v=0
13073287 Off ch=3 n=43 v=0
13073317 Off ch=3 n=41 v=0
13074442 On ch=3 n=5 v=100
13074551 On ch=3 n=15 v=100
13074562 Off ch=3 n=5 v=0
13074658 Off ch=3 n=15 v=0
13074695 On ch=3 n=29 v=100
13074844 Off ch=3 n=29 v=0
13074907 On ch=3 n=14 v=100
13075152 Off ch=3 n=14 v=0
13079454 On ch=3 n=43 v=100
13079456 On ch=3 n=24 v=100
13079694 Off ch=3 n=24 v=0
13079810 Off ch=3 n=43 v=0
13079844 On ch=3 n=43 v=100
13079885 Off ch=3 n=43 v=0
13080464 On ch=3 n=37 v=100
13080705 On ch=3 n=41 v=100
13080903 Off ch=3 n=37 v=0
13081197 Off ch=3 n=41 v=0
13081239 On ch=3 n=41 v=100
13081250 Off ch=3 n=41 v=0
13081547 On ch=3 n=22 v=100
13081558 On ch=3 n=40 v=100
13081815 Off ch=3 n=22 v=0
13081861 Off ch=3 n=40 v=0
13082851 On ch=3 n=11 v=100
13082852 On ch=3 n=27 v=100
13082881 On ch=3 n=11 v=100
13082896 Off ch=3 n=11 v=0
13082942 Off ch=3 n=27 v=0
13084552 Off ch=3 n=11 v=0
13090575 On ch=3 n=2 v=100
13090989 Off ch=3 n=2 v=0
13092680 On ch=3 n=49 v=100
13092803 Off ch=3 n=49 v=0
13093193 On ch=3 n=6 v=100
13094193 On ch=3 n=28 v=100
13094287 Off ch=3 n=6 v=0
13094310 Off ch=3 n=28 v=0
13094792 On ch=3 n=44 v=100
13095198 Off ch=3 n=44 v=0
13096935 On ch=3 n=22 v=100
13096994 Off ch=3 n=22 v=0
13097314 On ch=3 n=7 v=100
13098887 Off ch=3 n=7 v=0
13098965 On ch=3 n=7 v=100
13099531 Off ch=3 n=7 v=0
13099761 On ch=3 n=27 v=100
13100040 Off ch=3 n=27 v=0
13100156 On ch=3 n=14 v=100
13100196 On ch=3 n=6 v=100
13100209 Off ch=3 n=14 v=0
13100338 Off ch=3 n=6 v=0
13104378 On ch=3 n=12 v=100
13104654 Off ch=3 n=12 v=0
13104836 On ch=3 n=15 v=100
13104932 On ch=3 n=13 v=100
13104935 Off ch=3 n=15 v=0
13105000 On ch=3 n=3 v=100
13105003 Off ch=3 n=13 v=0
13106157 On ch=3 n=41 v=100
13106205 Off ch=3 n=3 v=0
13106208 On ch=3 n=9 v=100
13106238 Off ch=3 n=41 v=0
13106534 On ch=3 n=14 v=100
13106536 Off ch=3 n=9 v=0
13106785 On ch=3 n=6 v=100
13106787 Off ch=3 n=14 v=0
13107103 Off ch=3 n=6 v=0
13107118 On ch=3 n=17 v=100
13107135 Off ch=3 n=17 v=0
13107212 On ch=3 n=17 v=100
13107296 Off ch=3 n=17 v=0
13108245 On ch=3 n=30 v=100
13108277 On ch=3 n=19 v=100
13108468 Off ch=3 n=30 v=0
13108468 Off ch=3 n=19 v=0
13108622 On ch=3 n=16 v=100
13108757 Off ch=3 n=16 v=0
13108820 On ch=3 n=1 v=100
13112243 Off ch=3 n=1 v=0
13112393 On ch=3 n=18 v=100
13112525 Off ch=3 n=18 v=0
13112871 On ch=3 n=41 v=100
13112871 On ch=3 n=41 v=100
13113422 Off ch=3 n=41 v=0
13113422 Off ch=3 n=41 v=0
13113547 On ch=3 n=5 v=100
13113585 On ch=3 n=34 v=100
13113642 Off ch=3 n=5 v=0
13113644 On ch=3 n=7 v=100
13113644 On ch=3 n=16 v=100
13113680 Off ch=3 n=34 v=0
13113913 On ch=3 n=8 v=100
13113923 Off ch=3 n=7 v=0
13113976 Off ch=3 n=16 v=0
13114026 Off ch=3 n=8 v=0
13127079 On ch=3 n=45 v=100
13127194 Off ch=3 n=45 v=0
13134629 On ch=3 n=20 v=100
13134731 On ch=3 n=16 v=100
13134783 Off ch=3 n=20 v=0
13134917 Off ch=3 n=16 v=0
13137049 On ch=3 n=47 v=100
13137205 Off ch=3 n=47 v=0
13137298 On ch=3 n=18 v=100
13137524 Off ch=3 n=18 v=0
13137583 On ch=3 n=52 v=100
13137664 On ch=3 n=21 v=100
13137752 On ch=3 n=22 v=100
13137770 Off ch=3 n=21 v=0
13137817 On ch=3 n=33 v=100
13137821 On ch=3 n=24 v=100
13137840 Off ch=3 n=22 v=0
13137841 On ch=3 n=30 v=100
13137926 Off ch=3 n=24 v=0
13137948 Off ch=3 n=33 v=0
13137951 Off ch=3 n=52 v=0
13138070 On ch=3 n=8 v=100
13138073 Off ch=3 n=30 v=0
13138143 On ch=3 n=13 v=100
13138418 Off ch=3 n=8 v=0
13138420 On ch=3 n=12 v=100
13138472 Off ch=3 n=13 v=0
13138515 On ch=3 n=51 v=100
13138515 On ch=3 n=51 v=100
13138515 On ch=3 n=51 v=100
13138579 Off ch=3 n=12 v=0
13138590 On ch=3 n=14 v=100
13138712 Off ch=3 n=14 v=0
13138822 On ch=3 n=33 v=100
13138955 On ch=3 n=18 v=100
13139045 Off ch=3 n=33 v=0
13139056 Off ch=3 n=51 v=0
13139056 Off ch=3 n=51 v=0
13139056 Off ch=3 n=51 v=0
13139091 Off ch=3 n=18 v=0
13139238 On ch=3 n=24 v=100
13139379 Off ch=3 n=24 v=0
13139452 On ch=3 n=32 v=100
13139472 On ch=3 n=18 v=100
13139573 Off ch=3 n=18 v=0
13139581 Off ch=3 n=32 v=0
13139599 On ch=3 n=6 v=100
13140314 On ch=3 n=4 v=100
13140320 Off ch=3 n=6 v=0
13141460 On ch=3 n=33 v=100
13141504 On ch=3 n=6 v=100
13141519 Off ch=3 n=4 v=0
13141529 Off ch=3 n=33 v=0
13142279 On ch=3 n=44 v=100
13142283 On ch=3 n=30 v=100
13142283 Off ch=3 n=6 v=0
13142290 On ch=3 n=41 v=100
13142365 Off ch=3 n=30 v=0
13142380 Off ch=3 n=41 v=0
13142400 Off ch=3 n=44 v=0
13143415 On ch=3 n=27 v=100
13143479 Off ch=3 n=27 v=0
13174198 On ch=3 n=9 v=100
13174512 Off ch=3 n=9 v=0
13174591 On ch=3 n=17 v=100
13174656 On ch=3 n=15 v=100
13174790 Off ch=3 n=17 v=0
13174809 Off ch=3 n=15 v=0
13175916 On ch=3 n=21 v=100
13175991 Off ch=3 n=21 v=0
13176970 On ch=3 n=41 v=100
13177028 On ch=3 n=31 v=100
13177029 On ch=3 n=40 v=100
13177029 On ch=3 n=40 v=100
13177132 On ch=3 n=25 v=100
13177247 Off ch=3 n=25 v=0
13177252 Off ch=3 n=41 v=0
13177252 Off ch=3 n=31 v=0
13177257 On ch=3 n=23 v=100
13177367 Off ch=3 n=40 v=0
13177367 Off ch=3 n=40 v=0
13177430 Off ch=3 n=23 v=0
13177436 On ch=3 n=30 v=100
13177598 Off ch=3 n=30 v=0
13177618 On ch=3 n=14 v=100
13177688 On ch=3 n=37 v=100
13177776 Off ch=3 n=14 v=0
13177844 Off ch=3 n=37 v=0
13177852 On ch=3 n=10 v=100
13178118 Off ch=3 n=10 v=0
13178120 On ch=3 n=10 v=100
13178806 On ch=3 n=22 v=100
13178913 Off ch=3 n=10 v=0
13178927 Off ch=3 n=22 v=0
13179879 On ch=3 n=7 v=100
13180425 Off ch=3 n=7 v=0
13180430 On ch=3 n=13 v=100
13180565 Off ch=3 n=13 v=0
13180649 On ch=3 n=7 v=100
13181035 Off ch=3 n=7 v=0
13181040 On ch=3 n=12 v=100
13181221 Off ch=3 n=12 v=0
13181226 On ch=3 n=9 v=100
13181830 Off ch=3 n=9 v=0
13181840 On ch=3 n=24 v=100
13181941 Off ch=3 n=24 v=0
13181993 On ch=3 n=7 v=100
13183758 Off ch=3 n=7 v=0
13183849 On ch=3 n=9 v=100
13184328 On ch=3 n=13 v=100
13184328 Off ch=3 n=9 v=0
13185543 Off ch=3 n=13 v=0
13187037 On ch=3 n=44 v=100
13187037 On ch=3 n=44 v=100
13187048 On ch=3 n=27 v=100
13187100 Off ch=3 n=27 v=0
13187119 Off ch=3 n=44 v=0
13187119 Off ch=3 n=44 v=0
13187370 On ch=3 n=51 v=100
13187376 On ch=3 n=38 v=100
13187447 Off ch=3 n=38 v=0
13187450 Off ch=3 n=51 v=0
13191578 On ch=3 n=8 v=100
13191833 Off ch=3 n=8 v=0
13191835 On ch=3 n=2 v=100
13193656 On ch=3 n=50 v=100
13193683 On ch=3 n=21 v=100
13193753 Off ch=3 n=2 v=0
13193802 Off ch=3 n=50 v=0
13193817 On ch=3 n=9 v=100
13193824 Off ch=3 n=21 v=0
13193887 Off ch=3 n=9 v=0
13194699 On ch=3 n=29 v=100
13194882 Off ch=3 n=29 v=0
13196222 On ch=3 n=5 v=100
13196863 Off ch=3 n=5 v=0
13197024 On ch=3 n=9 v=100
13197493 Off ch=3 n=9 v=0
13198540 On ch=3 n=7 v=100
13198714 Off ch=3 n=7 v=0
13198775 On ch=3 n=7 v=100
13198951 Off ch=3 n=7 v=0
13198955 On ch=3 n=8 v=100
13199518 Off ch=3 n=8 v=0
13199531 On ch=3 n=5 v=100
13202388 Off ch=3 n=5 v=0
13202428 On ch=3 n=10 v=100
13203048 Off ch=3 n=10 v=0
13203061 On ch=3 n=7 v=100
13203322 Off ch=3 n=7 v=0
13203519 On ch=3 n=15 v=100
13203633 On ch=3 n=16 v=100
13203683 Off ch=3 n=15 v=0
13203976 On ch=3 n=21 v=100
13203989 Off ch=3 n=16 v=0
13204082 Off ch=3 n=21 v=0
13204187 On ch=3 n=9 v=100
13204837 Off ch=3 n=9 v=0
13204878 On ch=3 n=23 v=100
13204981 On ch=3 n=5 v=100
13205258 Off ch=3 n=5 v=0
13205262 Off ch=3 n=23 v=0
13205745 On ch=3 n=26 v=100
13205792 On ch=3 n=11 v=100
13205827 On ch=3 n=7 v=100
13205831 Off ch=3 n=26 v=0
13206098 Off ch=3 n=11 v=0
13206102 Off ch=3 n=7 v=0
13206105 On ch=3 n=15 v=100
13206347 On ch=3 n=11 v=100
13206347 Off ch=3 n=15 v=0
13206393 Off ch=3 n=11 v=0
13207309 On ch=3 n=43 v=100
13207309 On ch=3 n=43 v=100
13207322 On ch=3 n=23 v=100
13207338 On ch=3 n=37 v=100
13207338 On ch=3 n=47 v=100
13207372 On ch=3 n=51 v=100
13207372 On ch=3 n=51 v=100
13207433 Off ch=3 n=23 v=0
13207520 Off ch=3 n=37 v=0
13207523 On ch=3 n=17 v=100
13207537 Off ch=3 n=43 v=0
13207537 Off ch=3 n=43 v=0
13207584 Off ch=3 n=47 v=0
13207696 Off ch=3 n=17 v=0
13207881 On ch=3 n=30 v=100
13207895 On ch=3 n=7 v=100
13207895 On ch=3 n=9 v=100
13207895 On ch=3 n=17 v=100
13207895 On ch=3 n=29 v=100
13207940 Off ch=3 n=51 v=0
13207940 Off ch=3 n=51 v=0
13207987 Off ch=3 n=30 v=0
13207994 Off ch=3 n=7 v=0
13208007 On ch=3 n=8 v=100
13208010 Off ch=3 n=9 v=0
13208048 Off ch=3 n=17 v=0
13208073 Off ch=3 n=29 v=0
13208168 Off ch=3 n=8 v=0
13208174 On ch=3 n=9 v=100
13208603 Off ch=3 n=9 v=0
13208607 On ch=3 n=4 v=100
13209385 Off ch=3 n=4 v=0
13209422 On ch=3 n=4 v=100
13212711 Off ch=3 n=4 v=0
13212781 On ch=3 n=4 v=100
13213553 Off ch=3 n=4 v=0
13213569 On ch=3 n=14 v=100
13213745 Off ch=3 n=14 v=0
13213860 On ch=3 n=3 v=100
13214622 On ch=3 n=27 v=100
13214659 On ch=3 n=13 v=100
13214754 On ch=3 n=8 v=100
13214756 Off ch=3 n=3 v=0
13214886 Off ch=3 n=27 v=0
13215085 On ch=3 n=2 v=100
13215102 Off ch=3 n=8 v=0
13215105 Off ch=3 n=13 v=0
13215828 Off ch=3 n=2 v=0
13216451 On ch=3 n=6 v=100
13219202 On ch=3 n=50 v=100
13219244 Off ch=3 n=6 v=0
13219622 Off ch=3 n=50 v=0
13220568 On ch=3 n=47 v=100
13220663 Off ch=3 n=47 v=0
13222183 On ch=3 n=6 v=100
13225839 Off ch=3 n=6 v=0
13227342 On ch=3 n=19 v=100
13227675 Off ch=3 n=19 v=0
13228779 On ch=3 n=21 v=100
13228902 Off ch=3 n=21 v=0
13229798 On ch=3 n=2 v=100
13232552 Off ch=3 n=2 v=0
13232601 On ch=3 n=2 v=100
13232634 Off ch=3 n=2 v=0
13244139 On ch=3 n=5 v=100
13245103 On ch=3 n=12 v=100
13245110 Off ch=3 n=5 v=0
13245387 On ch=3 n=4 v=100
13245388 Off ch=3 n=12 v=0
13245596 Off ch=3 n=4 v=0
13245597 On ch=3 n=6 v=100
13245778 Off ch=3 n=6 v=0
13245785 On ch=3 n=19 v=100
13246122 On ch=3 n=7 v=100
13246172 Off ch=3 n=19 v=0
13246601 On ch=3 n=20 v=100
13246602 Off ch=3 n=7 v=0
13246790 Off ch=3 n=20 v=0
13247475 On ch=3 n=10 v=100
13248194 On ch=3 n=23 v=100
13248196 Off ch=3 n=10 v=0
13248284 Off ch=3 n=23 v=0
13248390 On ch=3 n=33 v=100
13248533 Off ch=3 n=33 v=0
13249440 On ch=3 n=2 v=100
13251829 On ch=3 n=37 v=100
13251896 Off ch=3 n=2 v=0
13251917 Off ch=3 n=37 v=0
13252227 On ch=3 n=35 v=100
13252245 On ch=3 n=43 v=100
13252245 On ch=3 n=43 v=100
13252267 On ch=3 n=47 v=100
13252267 On ch=3 n=47 v=100
13252291 On ch=3 n=28 v=100
13252291 On ch=3 n=28 v=100
13252353 Off ch=3 n=35 v=0
13252354 On ch=3 n=24 v=100
13252362 On ch=3 n=33 v=100
13252465 Off ch=3 n=24 v=0
13252478 Off ch=3 n=28 v=0
13252478 Off ch=3 n=28 v=0
13252487 Off ch=3 n=47 v=0
13252487 Off ch=3 n=47 v=0
13252495 On ch=3 n=25 v=100
13252499 Off ch=3 n=43 v=0
13252499 Off ch=3 n=43 v=0
13252560 Off ch=3 n=33 v=0
13252652 Off ch=3 n=25 v=0
13252657 On ch=3 n=32 v=100
13252805 On ch=3 n=20 v=100
13252807 On ch=3 n=10 v=100
13252807 Off ch=3 n=32 v=0
13252941 Off ch=3 n=10 v=0
13252982 Off ch=3 n=20 v=0
13253089 On ch=3 n=5 v=100
13253192 Off ch=3 n=5 v=0
13253229 On ch=3 n=5 v=100
13254459 Off ch=3 n=5 v=0
13254461 On ch=3 n=2 v=100
13254540 Off ch=3 n=2 v=0
13254913 On ch=3 n=15 v=100
13255012 On ch=3 n=13 v=100
13255062 Off ch=3 n=15 v=0
13255137 On ch=3 n=46 v=100
13255184 Off ch=3 n=13 v=0
13255541 On ch=3 n=37 v=100
13255541 On ch=3 n=37 v=100
13255668 On ch=3 n=15 v=100
13255754 Off ch=3 n=46 v=0
13255756 On ch=3 n=4 v=100
13255767 Off ch=3 n=15 v=0
13255792 Off ch=3 n=37 v=0
13255792 Off ch=3 n=37 v=0
13257030 Off ch=3 n=4 v=0
13257032 On ch=3 n=26 v=100
13257229 On ch=3 n=13 v=100
13257296 Off ch=3 n=26 v=0
13257936 On ch=3 n=10 v=100
13257937 Off ch=3 n=13 v=0
13258086 On ch=3 n=54 v=100
13258112 Off ch=3 n=10 v=0
13258126 On ch=3 n=34 v=100
13258232 Off ch=3 n=54 v=0
13259512 Off ch=3 n=34 v=0
13259516 On ch=3 n=4 v=100
13259560 Off ch=3 n=4 v=0
13260249 On ch=3 n=51 v=100
13260553 Off ch=3 n=51 v=0
13260753 On ch=3 n=62 v=100
13261209 On ch=3 n=19 v=100
13261312 Off ch=3 n=62 v=0
13262628 Off ch=3 n=19 v=0
13278196 On ch=3 n=5 v=100
13278437 Off ch=3 n=5 v=0
13278617 On ch=3 n=20 v=100
13280171 Off ch=3 n=20 v=0
13280172 On ch=3 n=5 v=100
13280456 On ch=3 n=16 v=100
13280458 Off ch=3 n=5 v=0
13280988 On ch=3 n=8 v=100
13280989 Off ch=3 n=16 v=0
13281327 On ch=3 n=23 v=100
13281364 On ch=3 n=10 v=100
13281370 Off ch=3 n=8 v=0
13281472 Off ch=3 n=23 v=0
13281487 Off ch=3 n=10 v=0
13282176 On ch=3 n=16 v=100
13282326 Off ch=3 n=16 v=0
13282327 On ch=3 n=6 v=100
13283026 Off ch=3 n=6 v=0
13283028 On ch=3 n=18 v=100
13283398 On ch=3 n=9 v=100
13283398 Off ch=3 n=18 v=0
13284024 Off ch=3 n=9 v=0
13285971 On ch=3 n=49 v=100
13286047 Off ch=3 n=49 v=0
13286188 On ch=3 n=49 v=100
13286188 On ch=3 n=49 v=100
13286370 Off ch=3 n=49 v=0
13286370 Off ch=3 n=49 v=0
13286433 On ch=3 n=52 v=100
13286550 Off ch=3 n=52 v=0
13286568 On ch=3 n=55 v=100
13286665 Off ch=3 n=55 v=0
13286772 On ch=3 n=51 v=100
13287029 Off ch=3 n=51 v=0
13287464 On ch=3 n=9 v=100
13288462 Off ch=3 n=9 v=0
13300424 On ch=3 n=1 v=100
13302509 Off ch=3 n=1 v=0
13302522 On ch=3 n=8 v=100
13302882 Off ch=3 n=8 v=0
13304911 On ch=3 n=7 v=100
13305131 On ch=3 n=2 v=100
13305153 Off ch=3 n=7 v=0
13306218 Off ch=3 n=2 v=0
13309885 On ch=3 n=47 v=100
13310244 Off ch=3 n=47 v=0
13310591 On ch=3 n=63 v=100
13310710 Off ch=3 n=63 v=0
13312625 On ch=3 n=47 v=100
13312984 Off ch=3 n=47 v=0
13313331 On ch=3 n=63 v=100
13313450 Off ch=3 n=63 v=0
13315364 On ch=3 n=47 v=100
13315724 Off ch=3 n=47 v=0
13318632 On ch=3 n=63 v=100
13318751 Off ch=3 n=63 v=0
13319555 On ch=3 n=11 v=100
13320251 Off ch=3 n=11 v=0
13320406 On ch=3 n=17 v=100
13320465 Off ch=3 n=17 v=0
13320592 On ch=3 n=17 v=100
13320716 On ch=3 n=34 v=100
13320822 On ch=3 n=53 v=100
13320847 Off ch=3 n=17 v=0
13320859 On ch=3 n=7 v=100
13320929 Off ch=3 n=34 v=0
13321132 Off ch=3 n=53 v=0
13321713 Off ch=3 n=7 v=0
13321737 On ch=3 n=5 v=100
13322112 Off ch=3 n=5 v=0
13322223 On ch=3 n=10 v=100
13322233 Off ch=3 n=10 v=0
13322269 On ch=3 n=10 v=100
13322965 Off ch=3 n=10 v=0
13323256 On ch=3 n=58 v=100
13323351 Off ch=3 n=58 v=0
13323862 On ch=3 n=46 v=100
13324222 Off ch=3 n=46 v=0
13326136 On ch=3 n=61 v=100
13326136 On ch=3 n=61 v=100
13326255 Off ch=3 n=61 v=0
13326255 Off ch=3 n=61 v=0
13326601 On ch=3 n=46 v=100
13326961 Off ch=3 n=46 v=0
13331932 On ch=3 n=2 v=100
13333023 On ch=3 n=6 v=100
13333045 Off ch=3 n=2 v=0
13333278 Off ch=3 n=6 v=0
13335300 On ch=3 n=7 v=100
13335562 Off ch=3 n=7 v=0
13341322 On ch=3 n=5 v=100
13341535 On ch=3 n=46 v=100
13341582 Off ch=3 n=5 v=0
13341590 Off ch=3 n=46 v=0
13341703 On ch=3 n=47 v=100
13341846 Off ch=3 n=47 v=0
13344039 On ch=3 n=9 v=100
13344284 Off ch=3 n=9 v=0
13344418 On ch=3 n=26 v=100
13344674 Off ch=3 n=26 v=0
13346266 On ch=3 n=24 v=100
13346323 Off ch=3 n=24 v=0
13351419 On ch=3 n=20 v=100
13351720 Off ch=3 n=20 v=0
13352776 On ch=3 n=22 v=100
13352897 Off ch=3 n=22 v=0
13353177 On ch=3 n=17 v=100
13353480 Off ch=3 n=17 v=0
13357758 On ch=3 n=24 v=100
13357932 Off ch=3 n=24 v=0
13358606 On ch=3 n=38 v=100
13359214 Off ch=3 n=38 v=0
13359269 On ch=3 n=38 v=100
13359399 Off ch=3 n=38 v=0
13359562 On ch=3 n=27 v=100
13359564 On ch=3 n=38 v=100
13359687 On ch=3 n=27 v=100
13359889 Off ch=3 n=27 v=0
13359987 Off ch=3 n=38 v=0
13359987 Off ch=3 n=27 v=0
13361003 On ch=3 n=14 v=100
13361003 On ch=3 n=35 v=100
13361003 On ch=3 n=36 v=100
13361064 Off ch=3 n=14 v=0
13361087 Off ch=3 n=35 v=0
13361130 Off ch=3 n=36 v=0
13361300 On ch=3 n=12 v=100
13361572 On ch=3 n=30 v=100
13361720 Off ch=3 n=12 v=0
13361758 Off ch=3 n=30 v=0
13361764 On ch=3 n=5 v=100
13361917 Off ch=3 n=5 v=0
13361918 On ch=3 n=4 v=100
13362091 On ch=3 n=7 v=100
13362095 Off ch=3 n=4 v=0
13362453 Off ch=3 n=7 v=0
13362484 On ch=3 n=29 v=100
13362485 On ch=3 n=27 v=100
13362582 Off ch=3 n=29 v=0
13362609 Off ch=3 n=27 v=0
13362794 On ch=3 n=9 v=100
13362808 On ch=3 n=17 v=100
13363019 On ch=3 n=12 v=100
13363024 Off ch=3 n=9 v=0
13363104 Off ch=3 n=17 v=0
13364034 Off ch=3 n=12 v=0
13364041 On ch=3 n=28 v=100
13364094 Off ch=3 n=28 v=0
13364101 On ch=3 n=28 v=100
13364167 Off ch=3 n=28 v=0
13364248 On ch=3 n=43 v=100
13364301 On ch=3 n=33 v=100
13364313 Off ch=3 n=43 v=0
13364361 On ch=3 n=26 v=100
13364373 Off ch=3 n=33 v=0
13364383 On ch=3 n=25 v=100
13364434 On ch=3 n=25 v=100
13364434 Off ch=3 n=26 v=0
13364454 Off ch=3 n=25 v=0
13364493 Off ch=3 n=25 v=0
13364501 On ch=3 n=20 v=100
13364522 On ch=3 n=27 v=100
13364554 Off ch=3 n=20 v=0
13364561 On ch=3 n=23 v=100
13364594 Off ch=3 n=27 v=0
13364601 On ch=3 n=25 v=100
13364614 Off ch=3 n=23 v=0
13364621 On ch=3 n=28 v=100
13364641 On ch=3 n=26 v=100
13364654 Off ch=3 n=25 v=0
13364662 On ch=3 n=23 v=100
13364674 Off ch=3 n=28 v=0
13364701 On ch=3 n=29 v=100
13364714 Off ch=3 n=26 v=0
13364734 Off ch=3 n=23 v=0
13364741 On ch=3 n=28 v=100
13364761 On ch=3 n=28 v=100
13364773 Off ch=3 n=29 v=0
13364814 Off ch=3 n=28 v=0
13364821 On ch=3 n=23 v=100
13364834 Off ch=3 n=28 v=0
13364894 Off ch=3 n=23 v=0
13364920 On ch=3 n=29 v=100
13364961 On ch=3 n=28 v=100
13364981 On ch=3 n=28 v=100
13364992 Off ch=3 n=29 v=0
13365021 On ch=3 n=35 v=100
13365034 Off ch=3 n=28 v=0
13365054 Off ch=3 n=28 v=0
13365070 On ch=3 n=33 v=100
13365094 Off ch=3 n=35 v=0
13365120 On ch=3 n=29 v=100
13365134 Off ch=3 n=33 v=0
13365172 Off ch=3 n=29 v=0
13365221 On ch=3 n=32 v=100
13365243 On ch=3 n=29 v=100
13365292 Off ch=3 n=32 v=0
13365314 Off ch=3 n=29 v=0
13365321 On ch=3 n=30 v=100
13365375 Off ch=3 n=30 v=0
13365401 On ch=3 n=26 v=100
13365442 On ch=3 n=29 v=100
13365453 Off ch=3 n=26 v=0
13365502 On ch=3 n=31 v=100
13365514 Off ch=3 n=29 v=0
13365574 Off ch=3 n=31 v=0
13365584 On ch=3 n=24 v=100
13365634 Off ch=3 n=24 v=0
13365644 On ch=3 n=32 v=100
13365689 Off ch=3 n=32 v=0
13365701 On ch=3 n=13 v=100
13365739 On ch=3 n=26 v=100
13365807 On ch=3 n=12 v=100
13365807 Off ch=3 n=13 v=0
13365820 Off ch=3 n=26 v=0
13365891 Off ch=3 n=12 v=0
13366451 On ch=3 n=25 v=100
13366486 On ch=3 n=11 v=100
13366716 Off ch=3 n=11 v=0
13366725 Off ch=3 n=25 v=0
13367079 On ch=3 n=20 v=100
13367296 Off ch=3 n=20 v=0
13368160 On ch=3 n=22 v=100
13368195 Off ch=3 n=22 v=0
13368357 On ch=3 n=41 v=100
13368451 Off ch=3 n=41 v=0
13371333 On ch=3 n=37 v=100
13371474 Off ch=3 n=37 v=0
13371700 On ch=3 n=11 v=100
13371995 On ch=3 n=9 v=100
13372027 Off ch=3 n=11 v=0
13372222 Off ch=3 n=9 v=0
13375949 On ch=3 n=32 v=100
13376294 Off ch=3 n=32 v=0
13376315 On ch=3 n=20 v=100
13376315 On ch=3 n=45 v=100
13376527 Off ch=3 n=20 v=0
13376604 On ch=3 n=51 v=100
13376699 Off ch=3 n=45 v=0
13376782 Off ch=3 n=51 v=0
13378170 On ch=3 n=43 v=100
13378257 Off ch=3 n=43 v=0
13382403 On ch=3 n=63 v=100
13382526 Off ch=3 n=63 v=0
13382542 On ch=3 n=54 v=100
13382542 On ch=3 n=54 v=100
13382690 Off ch=3 n=54 v=0
13382690 Off ch=3 n=54 v=0
13382721 On ch=3 n=52 v=100
13382721 On ch=3 n=52 v=100
13382842 Off ch=3 n=52 v=0
13382842 Off ch=3 n=52 v=0
13383383 On ch=3 n=58 v=100
13383383 On ch=3 n=58 v=100
13383512 Off ch=3 n=58 v=0
13383512 Off ch=3 n=58 v=0
13383551 On ch=3 n=61 v=100
13383551 On ch=3 n=61 v=100
13383672 Off ch=3 n=61 v=0
13383672 Off ch=3 n=61 v=0
13383703 On ch=3 n=57 v=100
13383703 On ch=3 n=57 v=100
13383830 Off ch=3 n=57 v=0
13383830 Off ch=3 n=57 v=0
13383861 On ch=3 n=62 v=100
13383985 Off ch=3 n=62 v=0
13384678 On ch=3 n=58 v=100
13384678 On ch=3 n=58 v=100
13384811 Off ch=3 n=58 v=0
13384811 Off ch=3 n=58 v=0
13384833 On ch=3 n=54 v=100
13384833 On ch=3 n=54 v=100
13384992 On ch=3 n=64 v=100
13384992 On ch=3 n=64 v=100
13385011 Off ch=3 n=54 v=0
13385011 Off ch=3 n=54 v=0
13385128 Off ch=3 n=64 v=0
13385128 Off ch=3 n=64 v=0
13385159 On ch=3 n=55 v=100
13385282 Off ch=3 n=55 v=0
13385785 On ch=3 n=53 v=100
13385785 On ch=3 n=53 v=100
13385956 On ch=3 n=63 v=100
13385961 Off ch=3 n=53 v=0
13385961 Off ch=3 n=53 v=0
13386081 Off ch=3 n=63 v=0
13386108 On ch=3 n=71 v=100
13386108 On ch=3 n=71 v=100
13386240 Off ch=3 n=71 v=0
13386240 Off ch=3 n=71 v=0
13386272 On ch=3 n=57 v=100
13386272 On ch=3 n=57 v=100
13386398 Off ch=3 n=57 v=0
13386398 Off ch=3 n=57 v=0
13386425 On ch=3 n=53 v=100
13386425 On ch=3 n=53 v=100
13386557 Off ch=3 n=53 v=0
13386557 Off ch=3 n=53 v=0
13386746 On ch=3 n=61 v=100
13386746 On ch=3 n=61 v=100
13386876 Off ch=3 n=61 v=0
13386876 Off ch=3 n=61 v=0
13386907 On ch=3 n=60 v=100
13386907 On ch=3 n=60 v=100
13387034 Off ch=3 n=60 v=0
13387034 Off ch=3 n=60 v=0
13387057 On ch=3 n=58 v=100
13387057 On ch=3 n=58 v=100
13387193 Off ch=3 n=58 v=0
13387193 Off ch=3 n=58 v=0
13387223 On ch=3 n=58 v=100
13387223 On ch=3 n=58 v=100
13387352 Off ch=3 n=58 v=0
13387352 Off ch=3 n=58 v=0
13387390 On ch=3 n=63 v=100
13387390 On ch=3 n=63 v=100
13387511 Off ch=3 n=63 v=0
13387511 Off ch=3 n=63 v=0
13387535 On ch=3 n=64 v=100
13387535 On ch=3 n=64 v=100
13387669 Off ch=3 n=64 v=0
13387669 Off ch=3 n=64 v=0
13388019 On ch=3 n=63 v=100
13388147 Off ch=3 n=63 v=0
13388185 On ch=3 n=61 v=100
13388306 Off ch=3 n=61 v=0
13388330 On ch=3 n=64 v=100
13388330 On ch=3 n=64 v=100
13388465 Off ch=3 n=64 v=0
13388465 Off ch=3 n=64 v=0
13388496 On ch=3 n=63 v=100
13388619 Off ch=3 n=63 v=0
13389583 On ch=3 n=61 v=100
13389707 Off ch=3 n=61 v=0
13389723 On ch=3 n=60 v=100
13389723 On ch=3 n=60 v=100
13389862 Off ch=3 n=60 v=0
13389862 Off ch=3 n=60 v=0
13390209 On ch=3 n=54 v=100
13390209 On ch=3 n=54 v=100
13390340 Off ch=3 n=54 v=0
13390340 Off ch=3 n=54 v=0
13390364 On ch=3 n=69 v=100
13390364 On ch=3 n=69 v=100
13390498 Off ch=3 n=69 v=0
13390498 Off ch=3 n=69 v=0
13390530 On ch=3 n=59 v=100
13390530 On ch=3 n=59 v=100
13390657 Off ch=3 n=59 v=0
13390657 Off ch=3 n=59 v=0
13390841 On ch=3 n=66 v=100
13390841 On ch=3 n=66 v=100
13390975 Off ch=3 n=66 v=0
13390975 Off ch=3 n=66 v=0
13391005 On ch=3 n=62 v=100
13391175 Off ch=3 n=62 v=0
13391331 On ch=3 n=53 v=100
13391453 Off ch=3 n=53 v=0
13391474 On ch=3 n=61 v=100
13391474 On ch=3 n=61 v=100
13391651 On ch=3 n=52 v=100
13391651 Off ch=3 n=61 v=0
13391651 Off ch=3 n=61 v=0
13391747 Off ch=3 n=52 v=0
13391952 On ch=3 n=64 v=100
13391952 On ch=3 n=64 v=100
13392088 Off ch=3 n=64 v=0
13392088 Off ch=3 n=64 v=0
13392119 On ch=3 n=63 v=100
13392119 On ch=3 n=63 v=100
13392247 Off ch=3 n=63 v=0
13392247 Off ch=3 n=63 v=0
13392270 On ch=3 n=58 v=100
13392416 Off ch=3 n=58 v=0
13392428 On ch=3 n=52 v=100
13392428 On ch=3 n=52 v=100
13392566 Off ch=3 n=52 v=0
13392566 Off ch=3 n=52 v=0
13392756 On ch=3 n=58 v=100
13392756 On ch=3 n=58 v=100
13392882 Off ch=3 n=58 v=0
13392882 Off ch=3 n=58 v=0
13398370 On ch=3 n=2 v=100
13399841 Off ch=3 n=2 v=0
13399843 On ch=3 n=12 v=100
13399964 Off ch=3 n=12 v=0
13402593 On ch=3 n=22 v=100
13402686 Off ch=3 n=22 v=0
13402905 On ch=3 n=2 v=100
13405378 Off ch=3 n=2 v=0
13405379 On ch=3 n=5 v=100
13405432 On ch=3 n=40 v=100
13405471 Off ch=3 n=5 v=0
13405471 Off ch=3 n=40 v=0
13405526 On ch=3 n=5 v=100
13405526 On ch=3 n=40 v=100
13405859 Off ch=3 n=5 v=0
13405862 On ch=3 n=9 v=100
13405986 Off ch=3 n=40 v=0
13406017 Off ch=3 n=9 v=0
13407550 On ch=3 n=19 v=100
13407550 On ch=3 n=19 v=100
13407578 On ch=3 n=20 v=100
13407579 On ch=3 n=13 v=100
13407763 Off ch=3 n=19 v=0
13407814 Off ch=3 n=19 v=0
13407920 Off ch=3 n=13 v=0
13407987 Off ch=3 n=20 v=0
13409233 On ch=3 n=8 v=100
13409452 Off ch=3 n=8 v=0
13410243 On ch=3 n=22 v=100
13410679 Off ch=3 n=22 v=0
13411642 On ch=3 n=8 v=100
13411885 Off ch=3 n=8 v=0
13411933 On ch=3 n=8 v=100
13412095 Off ch=3 n=8 v=0
13413340 On ch=3 n=37 v=100
13413364 On ch=3 n=38 v=100
13413532 Off ch=3 n=37 v=0
13413535 On ch=3 n=25 v=100
13413550 On ch=3 n=17 v=100
13413566 Off ch=3 n=38 v=0
13413603 On ch=3 n=2 v=100
13413608 Off ch=3 n=25 v=0
13413608 Off ch=3 n=17 v=0
13416013 On ch=3 n=24 v=100
13416014 Off ch=3 n=2 v=0
13416179 Off ch=3 n=24 v=0
13416247 On ch=3 n=25 v=100
13416360 On ch=3 n=13 v=100
13416365 On ch=3 n=17 v=100
13416659 Off ch=3 n=25 v=0
13416681 On ch=3 n=11 v=100
13416684 Off ch=3 n=13 v=0
13416747 Off ch=3 n=17 v=0
13416949 On ch=3 n=9 v=100
13416966 Off ch=3 n=11 v=0
13417163 On ch=3 n=4 v=100
13417163 Off ch=3 n=9 v=0
13417710 On ch=3 n=5 v=100
13417712 Off ch=3 n=4 v=0
13417823 On ch=3 n=3 v=100
13417856 Off ch=3 n=5 v=0
13418227 Off ch=3 n=3 v=0
13418228 On ch=3 n=11 v=100
13418385 Off ch=3 n=11 v=0
13419076 On ch=3 n=24 v=100
13419166 Off ch=3 n=24 v=0
13420396 On ch=3 n=2 v=100
13422851 Off ch=3 n=2 v=0
13424267 On ch=3 n=51 v=100
13424422 Off ch=3 n=51 v=0
13424514 On ch=3 n=19 v=100
13424729 On ch=3 n=58 v=100
13424729 On ch=3 n=58 v=100
13424742 Off ch=3 n=19 v=0
13424882 On ch=3 n=26 v=100
13424969 On ch=3 n=21 v=100
13424988 Off ch=3 n=26 v=0
13425044 On ch=3 n=28 v=100
13425061 Off ch=3 n=21 v=0
13425194 Off ch=3 n=28 v=0
13425218 On ch=3 n=9 v=100
13425290 Off ch=3 n=58 v=0
13425290 Off ch=3 n=58 v=0
13425298 On ch=3 n=14 v=100
13425556 On ch=3 n=18 v=100
13425568 Off ch=3 n=9 v=0
13425570 On ch=3 n=12 v=100
13425622 Off ch=3 n=14 v=0
13425730 Off ch=3 n=12 v=0
13425742 On ch=3 n=7 v=100
13425745 Off ch=3 n=18 v=0
13425985 Off ch=3 n=7 v=0
13426076 On ch=3 n=32 v=100
13426207 On ch=3 n=13 v=100
13426208 On ch=3 n=17 v=100
13426271 On ch=3 n=35 v=100
13426297 Off ch=3 n=32 v=0
13426311 Off ch=3 n=13 v=0
13426345 Off ch=3 n=17 v=0
13426386 On ch=3 n=52 v=100
13426386 On ch=3 n=52 v=100
13426486 Off ch=3 n=35 v=0
13426492 On ch=3 n=28 v=100
13426633 Off ch=3 n=28 v=0
13426695 On ch=3 n=41 v=100
13426695 On ch=3 n=41 v=100
13426736 On ch=3 n=22 v=100
13426736 On ch=3 n=23 v=100
13426739 On ch=3 n=38 v=100
13426836 Off ch=3 n=22 v=0
13426938 Off ch=3 n=52 v=0
13426938 Off ch=3 n=52 v=0
13426940 Off ch=3 n=23 v=0
13426954 Off ch=3 n=41 v=0
13426954 Off ch=3 n=41 v=0
13427039 Off ch=3 n=38 v=0
13427989 On ch=3 n=18 v=100
13428060 Off ch=3 n=18 v=0
13445195 On ch=3 n=8 v=100
13445221 Off ch=3 n=8 v=0
13446505 On ch=3 n=7 v=100
13446802 Off ch=3 n=7 v=0
13446967 On ch=3 n=11 v=100
13447043 Off ch=3 n=11 v=0
13447094 On ch=3 n=7 v=100
13447176 Off ch=3 n=7 v=0
13447316 On ch=3 n=16 v=100
13447411 Off ch=3 n=16 v=0
13448194 On ch=3 n=10 v=100
13448194 On ch=3 n=24 v=100
13448447 Off ch=3 n=10 v=0
13448526 Off ch=3 n=24 v=0
13450092 On ch=3 n=17 v=100
13450129 Off ch=3 n=17 v=0
13450347 On ch=3 n=26 v=100
13450462 Off ch=3 n=26 v=0
13450465 On ch=3 n=6 v=100
13450597 Off ch=3 n=6 v=0
13450980 On ch=3 n=22 v=100
13451061 Off ch=3 n=22 v=0
13453874 On ch=3 n=4 v=100
13454160 Off ch=3 n=4 v=0
13454161 On ch=3 n=3 v=100
13454600 Off ch=3 n=3 v=0
13454734 On ch=3 n=1 v=100
13456603 On ch=3 n=13 v=100
13456625 Off ch=3 n=1 v=0
13456625 Off ch=3 n=13 v=0
13456670 On ch=3 n=13 v=100
13457050 On ch=3 n=55 v=100
13457147 Off ch=3 n=13 v=0
13457147 Off ch=3 n=55 v=0
13457230 On ch=3 n=13 v=100
13457230 On ch=3 n=55 v=100
13457250 On ch=3 n=1 v=100
13457297 Off ch=3 n=13 v=0
13457361 Off ch=3 n=55 v=0
13458156 Off ch=3 n=1 v=0
13458577 On ch=3 n=3 v=100
13459411 Off ch=3 n=3 v=0
13459413 On ch=3 n=2 v=100
13459450 On ch=3 n=3 v=100
13459450 Off ch=3 n=2 v=0
13459657 Off ch=3 n=3 v=0
13459737 On ch=3 n=9 v=100
13461478 On ch=3 n=6 v=100
13461481 Off ch=3 n=9 v=0
13462140 On ch=3 n=38 v=100
13462152 On ch=3 n=26 v=100
13462172 Off ch=3 n=6 v=0
13462176 On ch=3 n=16 v=100
13462186 Off ch=3 n=38 v=0
13462186 Off ch=3 n=26 v=0
13462186 Off ch=3 n=16 v=0
13462231 On ch=3 n=38 v=100
13462231 On ch=3 n=6 v=100
13462290 Off ch=3 n=38 v=0
13462555 Off ch=3 n=6 v=0
13467459 On ch=3 n=4 v=100
13467796 Off ch=3 n=4 v=0
13467798 On ch=3 n=2 v=100
13468824 On ch=3 n=26 v=100
13468859 Off ch=3 n=2 v=0
13468859 Off ch=3 n=26 v=0
13468934 On ch=3 n=2 v=100
13468934 On ch=3 n=26 v=100
13468943 Off ch=3 n=2 v=0
13468962 Off ch=3 n=26 v=0
13469004 On ch=3 n=36 v=100
13469053 On ch=3 n=15 v=100
13469065 Off ch=3 n=36 v=0
13469136 Off ch=3 n=15 v=0
13470127 On ch=3 n=43 v=100
13470334 Off ch=3 n=43 v=0
13470879 On ch=3 n=36 v=100
13471000 On ch=3 n=20 v=100
13471033 On ch=3 n=7 v=100
13471142 Off ch=3 n=36 v=0
13471142 Off ch=3 n=20 v=0
13471142 Off ch=3 n=7 v=0
13471200 On ch=3 n=8 v=100
13471729 Off ch=3 n=8 v=0
13471731 On ch=3 n=5 v=100
13471745 On ch=3 n=36 v=100
13471803 Off ch=3 n=5 v=0
13471830 Off ch=3 n=36 v=0
13475969 On ch=3 n=61 v=100
13475980 On ch=3 n=54 v=100
13476042 Off ch=3 n=61 v=0
13476093 Off ch=3 n=54 v=0
13476722 On ch=3 n=23 v=100
13477101 Off ch=3 n=23 v=0
13477225 On ch=3 n=23 v=100
13480040 Off ch=3 n=23 v=0
13480219 On ch=3 n=9 v=100
13480816 Off ch=3 n=9 v=0
13501432 On ch=3 n=8 v=100
13501686 Off ch=3 n=8 v=0
13502686 On ch=3 n=19 v=100
13502759 Off ch=3 n=19 v=0
13503953 On ch=3 n=39 v=100
13504164 On ch=3 n=28 v=100
13504164 On ch=3 n=42 v=100
13504165 On ch=3 n=22 v=100
13504252 Off ch=3 n=22 v=0
13504257 Off ch=3 n=39 v=0
13504270 On ch=3 n=28 v=100
13504291 Off ch=3 n=28 v=0
13504318 Off ch=3 n=42 v=0
13504442 Off ch=3 n=28 v=0
13504593 On ch=3 n=25 v=100
13504593 On ch=3 n=25 v=100
13504623 On ch=3 n=20 v=100
13504623 On ch=3 n=11 v=100
13504623 On ch=3 n=20 v=100
13504693 On ch=3 n=32 v=100
13504693 On ch=3 n=32 v=100
13504756 Off ch=3 n=11 v=0
13504772 Off ch=3 n=25 v=0
13504772 Off ch=3 n=25 v=0
13504797 Off ch=3 n=20 v=0
13504797 Off ch=3 n=20 v=0
13504848 Off ch=3 n=32 v=0
13504848 Off ch=3 n=32 v=0
13505528 On ch=3 n=25 v=100
13505546 On ch=3 n=16 v=100
13505566 On ch=3 n=33 v=100
13505630 Off ch=3 n=25 v=0
13505632 Off ch=3 n=16 v=0
13505639 On ch=3 n=22 v=100
13505655 Off ch=3 n=33 v=0
13505851 Off ch=3 n=22 v=0
13505853 On ch=3 n=7 v=100
13506268 Off ch=3 n=7 v=0
13506275 On ch=3 n=17 v=100
13506367 Off ch=3 n=17 v=0
13506479 On ch=3 n=37 v=100
13506575 Off ch=3 n=37 v=0
13506637 On ch=3 n=11 v=100
13507166 On ch=3 n=26 v=100
13507263 Off ch=3 n=11 v=0
13507281 On ch=3 n=14 v=100
13507292 Off ch=3 n=26 v=0
13507325 Off ch=3 n=14 v=0
13508052 On ch=3 n=25 v=100
13508065 On ch=3 n=36 v=100
13508089 On ch=3 n=13 v=100
13508089 On ch=3 n=25 v=100
13508092 On ch=3 n=47 v=100
13508134 Off ch=3 n=25 v=0
13508144 Off ch=3 n=13 v=0
13508150 Off ch=3 n=36 v=0
13508166 Off ch=3 n=25 v=0
13508198 Off ch=3 n=47 v=0
13508577 On ch=3 n=16 v=100
13508696 On ch=3 n=11 v=100
13508702 Off ch=3 n=16 v=0
13508741 Off ch=3 n=11 v=0
13508871 On ch=3 n=21 v=100
13508914 Off ch=3 n=21 v=0
13509702 On ch=3 n=24 v=100
13509767 Off ch=3 n=24 v=0
13510438 On ch=3 n=7 v=100
13510754 Off ch=3 n=7 v=0
13510787 On ch=3 n=24 v=100
13510876 Off ch=3 n=24 v=0
13511666 On ch=3 n=10 v=100
13512139 Off ch=3 n=10 v=0
13512254 On ch=3 n=13 v=100
13512255 On ch=3 n=17 v=100
13512296 Off ch=3 n=13 v=0
13512304 Off ch=3 n=17 v=0
13512335 On ch=3 n=20 v=100
13512502 On ch=3 n=45 v=100
13512544 Off ch=3 n=20 v=0
13512549 On ch=3 n=36 v=100
13512627 On ch=3 n=31 v=100
13512629 On ch=3 n=23 v=100
13512682 On ch=3 n=33 v=100
13512724 Off ch=3 n=36 v=0
13512728 Off ch=3 n=23 v=0
13512731 Off ch=3 n=45 v=0
13512743 Off ch=3 n=31 v=0
13512754 Off ch=3 n=33 v=0
13513675 On ch=3 n=35 v=100
13513675 On ch=3 n=35 v=100
13513698 On ch=3 n=7 v=100
13513945 Off ch=3 n=7 v=0
13513958 Off ch=3 n=35 v=0
13513958 Off ch=3 n=35 v=0
13514605 On ch=3 n=22 v=100
13514605 On ch=3 n=9 v=100
13514974 Off ch=3 n=9 v=0
13515121 Off ch=3 n=22 v=0
13515230 On ch=3 n=18 v=100
13515323 On ch=3 n=16 v=100
13515323 On ch=3 n=16 v=100
13515333 Off ch=3 n=18 v=0
13515336 On ch=3 n=8 v=100
13515602 Off ch=3 n=8 v=0
13515647 On ch=3 n=13 v=100
13515696 Off ch=3 n=16 v=0
13515696 Off ch=3 n=16 v=0
13515772 Off ch=3 n=13 v=0
13515774 On ch=3 n=11 v=100
13516173 On ch=3 n=16 v=100
13516236 Off ch=3 n=11 v=0
13516392 Off ch=3 n=16 v=0
13516919 On ch=3 n=14 v=100
13516973 Off ch=3 n=14 v=0
13516975 On ch=3 n=11 v=100
13517041 Off ch=3 n=11 v=0
13517281 On ch=3 n=22 v=100
13517373 Off ch=3 n=22 v=0
13517907 On ch=3 n=35 v=100
13517912 On ch=3 n=16 v=100
13518059 Off ch=3 n=16 v=0
13518082 Off ch=3 n=35 v=0
13518320 On ch=3 n=19 v=100
13518337 On ch=3 n=21 v=100
13518337 On ch=3 n=39 v=100
13518442 Off ch=3 n=19 v=0
13518457 Off ch=3 n=21 v=0
13518517 Off ch=3 n=39 v=0
13519907 On ch=3 n=21 v=100
13520230 Off ch=3 n=21 v=0
13520260 On ch=3 n=11 v=100
13520410 On ch=3 n=15 v=100
13520410 Off ch=3 n=11 v=0
13520946 Off ch=3 n=15 v=0
13521264 On ch=3 n=16 v=100
13521560 Off ch=3 n=16 v=0
13521584 On ch=3 n=9 v=100
13522004 On ch=3 n=59 v=100
13522075 Off ch=3 n=9 v=0
13522227 Off ch=3 n=59 v=0
13528976 On ch=3 n=22 v=100
13529202 On ch=3 n=21 v=100
13529535 Off ch=3 n=22 v=0
13529692 Off ch=3 n=21 v=0
13530073 On ch=3 n=1 v=100
13530603 Off ch=3 n=1 v=0
13531187 On ch=3 n=6 v=100
13533103 Off ch=3 n=6 v=0
13533485 On ch=3 n=5 v=100
13533765 On ch=3 n=13 v=100
13533776 Off ch=3 n=5 v=0
13533872 Off ch=3 n=13 v=0
13533909 On ch=3 n=27 v=100
13534058 Off ch=3 n=27 v=0
13535320 On ch=3 n=44 v=100
13535414 On ch=3 n=40 v=100
13535431 On ch=3 n=24 v=100
13535438 On ch=3 n=38 v=100
13535528 Off ch=3 n=44 v=0
13535540 Off ch=3 n=24 v=0
13535542 Off ch=3 n=40 v=0
13535579 Off ch=3 n=38 v=0
13535609 On ch=3 n=41 v=100
13535689 On ch=3 n=37 v=100
13535815 Off ch=3 n=37 v=0
13535817 Off ch=3 n=41 v=0
13536848 On ch=3 n=51 v=100
13536998 On ch=3 n=38 v=100
13537074 Off ch=3 n=38 v=0
13537078 Off ch=3 n=51 v=0
13537369 On ch=3 n=54 v=100
13537527 On ch=3 n=38 v=100
13537648 Off ch=3 n=54 v=0
13537648 Off ch=3 n=38 v=0
13538112 On ch=3 n=47 v=100
13538269 On ch=3 n=38 v=100
13538390 Off ch=3 n=47 v=0
13538390 Off ch=3 n=38 v=0
13539416 On ch=3 n=42 v=100
13539572 On ch=3 n=36 v=100
13539695 Off ch=3 n=42 v=0
13539695 Off ch=3 n=36 v=0
13541468 On ch=3 n=9 v=100
13544437 Off ch=3 n=9 v=0
13548560 On ch=3 n=4 v=100
13548915 On ch=3 n=9 v=100
13549036 On ch=3 n=7 v=100
13549069 Off ch=3 n=4 v=0
13549267 Off ch=3 n=9 v=0
13549321 Off ch=3 n=7 v=0
13551537 On ch=3 n=7 v=100
13551893 Off ch=3 n=7 v=0
13551895 On ch=3 n=10 v=100
13551895 On ch=3 n=24 v=100
13551895 On ch=3 n=13 v=100
13551895 On ch=3 n=46 v=100
13552053 Off ch=3 n=10 v=0
13552101 Off ch=3 n=13 v=0
13552107 On ch=3 n=6 v=100
13552154 Off ch=3 n=24 v=0
13552334 Off ch=3 n=46 v=0
13552558 Off ch=3 n=6 v=0
13552568 On ch=3 n=3 v=100
13552908 Off ch=3 n=3 v=0
13552913 On ch=3 n=22 v=100
13553148 Off ch=3 n=22 v=0
13553625 On ch=3 n=41 v=100
13553684 On ch=3 n=5 v=100
13553767 Off ch=3 n=41 v=0
13554084 Off ch=3 n=5 v=0
13556168 On ch=3 n=30 v=100
13557346 Off ch=3 n=30 v=0
13565998 On ch=3 n=9 v=100
13566330 Off ch=3 n=9 v=0
13568141 On ch=3 n=12 v=100
13568284 On ch=3 n=5 v=100
13568296 Off ch=3 n=12 v=0
13568825 Off ch=3 n=5 v=0
13568828 On ch=3 n=10 v=100
13569376 Off ch=3 n=10 v=0
13569468 On ch=3 n=46 v=100
13569579 Off ch=3 n=46 v=0
13570552 On ch=3 n=48 v=100
13570562 On ch=3 n=27 v=100
13570765 Off ch=3 n=27 v=0
13570804 On ch=3 n=25 v=100
13570828 Off ch=3 n=48 v=0
13570900 Off ch=3 n=25 v=0
13571215 On ch=3 n=29 v=100
13571343 Off ch=3 n=29 v=0
13571368 On ch=3 n=5 v=100
13572044 Off ch=3 n=5 v=0
13574711 On ch=3 n=25 v=100
13574904 Off ch=3 n=25 v=0
13575649 On ch=3 n=4 v=100
13576323 Off ch=3 n=4 v=0
13578668 On ch=3 n=22 v=100
13578724 Off ch=3 n=22 v=0
13578808 On ch=3 n=7 v=100
13578864 Off ch=3 n=7 v=0
13578880 On ch=3 n=15 v=100
13579498 Off ch=3 n=15 v=0
13579620 On ch=3 n=13 v=100
13579936 On ch=3 n=8 v=100
13579942 Off ch=3 n=13 v=0
13579953 Off ch=3 n=8 v=0
13580015 On ch=3 n=8 v=100
13580142 Off ch=3 n=8 v=0
13580143 On ch=3 n=16 v=100
13580197 Off ch=3 n=16 v=0
13580203 On ch=3 n=20 v=100
13580316 Off ch=3 n=20 v=0
13580523 On ch=3 n=15 v=100
13580963 On ch=3 n=19 v=100
13581066 Off ch=3 n=15 v=0
13581079 Off ch=3 n=19 v=0
13584543 On ch=3 n=3 v=100
13585023 On ch=3 n=5 v=100
13585035 Off ch=3 n=3 v=0
13585814 Off ch=3 n=5 v=0
13585832 On ch=3 n=1 v=100
13585910 Off ch=3 n=1 v=0
13586311 On ch=3 n=9 v=100
13586511 Off ch=3 n=9 v=0
13588255 On ch=3 n=9 v=100
13588763 Off ch=3 n=9 v=0
13588778 On ch=3 n=2 v=100
13589815 Off ch=3 n=2 v=0
13589928 On ch=3 n=7 v=100
13590401 Off ch=3 n=7 v=0
13590405 On ch=3 n=8 v=100
13590606 Off ch=3 n=8 v=0
13590833 On ch=3 n=9 v=100
13591033 Off ch=3 n=9 v=0
13593112 On ch=3 n=32 v=100
13593192 Off ch=3 n=32 v=0
13593196 On ch=3 n=9 v=100
13593703 Off ch=3 n=9 v=0
13593719 On ch=3 n=2 v=100
13594752 Off ch=3 n=2 v=0
13594866 On ch=3 n=4 v=100
13594978 Off ch=3 n=4 v=0
13595012 On ch=3 n=8 v=100
13595342 Off ch=3 n=8 v=0
13595346 On ch=3 n=6 v=100
13596373 Off ch=3 n=6 v=0
13597414 On ch=3 n=10 v=100
13597587 Off ch=3 n=10 v=0
13597663 On ch=3 n=7 v=100
13597723 On ch=3 n=73 v=100
13597838 Off ch=3 n=7 v=0
13597842 On ch=3 n=6 v=100
13597880 Off ch=3 n=73 v=0
13598379 On ch=3 n=10 v=100
13598382 Off ch=3 n=6 v=0
13598768 Off ch=3 n=10 v=0
13598781 On ch=3 n=9 v=100
13599042 Off ch=3 n=9 v=0
13599240 On ch=3 n=12 v=100
13599352 On ch=3 n=19 v=100
13599352 On ch=3 n=19 v=100
13599402 Off ch=3 n=12 v=0
13599447 On ch=3 n=11 v=100
13599699 Off ch=3 n=11 v=0
13599703 On ch=3 n=21 v=100
13599714 Off ch=3 n=19 v=0
13599714 Off ch=3 n=19 v=0
13599806 Off ch=3 n=21 v=0
13599889 On ch=3 n=41 v=100
13599901 On ch=3 n=9 v=100
13599947 Off ch=3 n=41 v=0
13600550 Off ch=3 n=9 v=0
13601150 On ch=3 n=25 v=100
13601165 On ch=3 n=34 v=100
13601264 On ch=3 n=3 v=100
13601269 Off ch=3 n=25 v=0
13601548 Off ch=3 n=3 v=0
13601549 Off ch=3 n=34 v=0
13601551 On ch=3 n=14 v=100
13601791 On ch=3 n=11 v=100
13601791 Off ch=3 n=14 v=0
13601837 Off ch=3 n=11 v=0
13602463 On ch=3 n=15 v=100
13602544 Off ch=3 n=15 v=0
13602590 On ch=3 n=3 v=100
13602682 Off ch=3 n=3 v=0
13602826 On ch=3 n=26 v=100
13602845 On ch=3 n=41 v=100
13602850 On ch=3 n=27 v=100
13602948 Off ch=3 n=26 v=0
13602951 Off ch=3 n=27 v=0
13602967 Off ch=3 n=41 v=0
13603033 On ch=3 n=20 v=100
13603263 Off ch=3 n=20 v=0
13603299 On ch=3 n=19 v=100
13603299 On ch=3 n=19 v=100
13603349 On ch=3 n=13 v=100
13603394 On ch=3 n=12 v=100
13603728 Off ch=3 n=13 v=0
13603741 On ch=3 n=7 v=100
13603746 Off ch=3 n=19 v=0
13603746 Off ch=3 n=19 v=0
13603773 Off ch=3 n=12 v=0
13603940 On ch=3 n=10 v=100
13603992 Off ch=3 n=7 v=0
13604362 Off ch=3 n=10 v=0
13604376 On ch=3 n=19 v=100
13604556 Off ch=3 n=19 v=0
13604598 On ch=3 n=5 v=100
13604878 Off ch=3 n=5 v=0
13604930 On ch=3 n=10 v=100
13604958 Off ch=3 n=10 v=0
13606029 On ch=3 n=25 v=100
13606118 Off ch=3 n=25 v=0
13607303 On ch=3 n=39 v=100
13607479 Off ch=3 n=39 v=0
13607516 On ch=3 n=15 v=100
13607605 Off ch=3 n=15 v=0
13607612 On ch=3 n=10 v=100
13607920 On ch=3 n=5 v=100
13607927 Off ch=3 n=10 v=0
13609531 On ch=3 n=10 v=100
13609544 Off ch=3 n=5 v=0
13609870 On ch=3 n=30 v=100
13609916 Off ch=3 n=10 v=0
13609928 Off ch=3 n=30 v=0
13610203 On ch=3 n=22 v=100
13610306 Off ch=3 n=22 v=0
13610307 On ch=3 n=12 v=100
13610511 On ch=3 n=31 v=100
13610531 On ch=3 n=45 v=100
13610562 On ch=3 n=2 v=100
13610565 Off ch=3 n=12 v=0
13610639 Off ch=3 n=31 v=0
13610659 Off ch=3 n=45 v=0
13613044 On ch=3 n=2 v=100
13613044 Off ch=3 n=2 v=0
13613282 On ch=3 n=4 v=100
13613282 Off ch=3 n=2 v=0
13614924 On ch=3 n=1 v=100
13614933 Off ch=3 n=4 v=0
13615727 Off ch=3 n=1 v=0
13616252 On ch=3 n=33 v=100
13616274 On ch=3 n=29 v=100
13616285 On ch=3 n=14 v=100
13616335 Off ch=3 n=33 v=0
13616374 Off ch=3 n=29 v=0
13616401 Off ch=3 n=14 v=0
13617275 On ch=3 n=12 v=100
13617643 Off ch=3 n=12 v=0
13617648 On ch=3 n=6 v=100
13620531 Off ch=3 n=6 v=0
13620542 On ch=3 n=13 v=100
13621008 On ch=3 n=13 v=100
13621271 Off ch=3 n=13 v=0
13621437 Off ch=3 n=13 v=0
13621511 On ch=3 n=33 v=100
13621623 Off ch=3 n=33 v=0
13621644 On ch=3 n=19 v=100
13621814 Off ch=3 n=19 v=0
13622417 On ch=3 n=16 v=100
13622523 On ch=3 n=7 v=100
13622539 Off ch=3 n=16 v=0
13622580 Off ch=3 n=7 v=0
13625186 On ch=3 n=40 v=100
13625324 On ch=3 n=32 v=100
13625346 On ch=3 n=25 v=100
13625466 Off ch=3 n=32 v=0
13625483 Off ch=3 n=40 v=0
13625485 Off ch=3 n=25 v=0
13625495 On ch=3 n=15 v=100
13625841 Off ch=3 n=15 v=0
13626432 On ch=3 n=10 v=100
13626893 On ch=3 n=5 v=100
13626893 Off ch=3 n=10 v=0
13627986 Off ch=3 n=5 v=0
13627997 On ch=3 n=4 v=100
13628263 On ch=3 n=13 v=100
13628275 Off ch=3 n=4 v=0
13628431 Off ch=3 n=13 v=0
13628524 On ch=3 n=18 v=100
13628524 On ch=3 n=18 v=100
13628535 On ch=3 n=11 v=100
13628933 Off ch=3 n=11 v=0
13628958 On ch=3 n=15 v=100
13628980 Off ch=3 n=18 v=0
13628980 Off ch=3 n=18 v=0
13629474 Off ch=3 n=15 v=0
13629475 On ch=3 n=2 v=100
13630139 Off ch=3 n=2 v=0
13630140 On ch=3 n=5 v=100
13630301 Off ch=3 n=5 v=0
13630367 On ch=3 n=5 v=100
13630524 Off ch=3 n=5 v=0
13630743 On ch=3 n=6 v=100
13631858 On ch=3 n=24 v=100
13632104 Off ch=3 n=6 v=0
13632135 Off ch=3 n=24 v=0
13632157 On ch=3 n=7 v=100
13632788 Off ch=3 n=7 v=0
13632825 On ch=3 n=7 v=100
13633344 On ch=3 n=9 v=100
13633355 On ch=3 n=13 v=100
13633356 On ch=3 n=13 v=100
13633357 Off ch=3 n=7 v=0
13633408 On ch=3 n=17 v=100
13633425 Off ch=3 n=9 v=0
13633428 Off ch=3 n=13 v=0
13633454 Off ch=3 n=13 v=0
13633611 On ch=3 n=10 v=100
13633611 Off ch=3 n=17 v=0
13634003 Off ch=3 n=10 v=0
13634027 On ch=3 n=6 v=100
13634202 On ch=3 n=8 v=100
13634339 Off ch=3 n=6 v=0
13634363 Off ch=3 n=8 v=0
13634974 On ch=3 n=15 v=100
13635357 On ch=3 n=22 v=100
13635367 Off ch=3 n=15 v=0
13635414 Off ch=3 n=22 v=0
13635419 On ch=3 n=2 v=100
13636229 Off ch=3 n=2 v=0
13636230 On ch=3 n=1 v=100
13636461 Off ch=3 n=1 v=0
13636607 On ch=3 n=26 v=100
13636699 Off ch=3 n=26 v=0
13636719 On ch=3 n=17 v=100
13637170 On ch=3 n=25 v=100
13637273 Off ch=3 n=17 v=0
13637470 On ch=3 n=13 v=100
13637473 On ch=3 n=22 v=100
13637781 Off ch=3 n=25 v=0
13637815 Off ch=3 n=13 v=0
13637909 Off ch=3 n=22 v=0
13637986 On ch=3 n=13 v=100
13638019 On ch=3 n=15 v=100
13638029 On ch=3 n=7 v=100
13638033 On ch=3 n=41 v=100
13638267 Off ch=3 n=13 v=0
13638267 Off ch=3 n=7 v=0
13638291 Off ch=3 n=15 v=0
13638325 Off ch=3 n=41 v=0
13638492 On ch=3 n=4 v=100
13638770 Off ch=3 n=4 v=0
13639333 On ch=3 n=17 v=100
13639333 On ch=3 n=37 v=100
13639515 Off ch=3 n=17 v=0
13639653 On ch=3 n=47 v=100
13639763 Off ch=3 n=37 v=0
13639828 On ch=3 n=19 v=100
13639898 Off ch=3 n=47 v=0
13639957 On ch=3 n=46 v=100
13640047 Off ch=3 n=19 v=0
13640058 Off ch=3 n=46 v=0
13640077 On ch=3 n=15 v=100
13640133 Off ch=3 n=15 v=0
13640145 On ch=3 n=27 v=100
13640145 On ch=3 n=27 v=100
13640246 On ch=3 n=13 v=100
13640246 On ch=3 n=13 v=100
13640288 On ch=3 n=11 v=100
13640291 On ch=3 n=21 v=100
13640521 Off ch=3 n=27 v=0
13640521 Off ch=3 n=27 v=0
13640524 Off ch=3 n=11 v=0
13640540 On ch=3 n=11 v=100
13640544 Off ch=3 n=13 v=0
13640544 Off ch=3 n=13 v=0
13640623 Off ch=3 n=21 v=0
13640723 On ch=3 n=10 v=100
13640809 Off ch=3 n=11 v=0
13641165 Off ch=3 n=10 v=0
13641796 On ch=3 n=22 v=100
13641875 Off ch=3 n=22 v=0
13642515 On ch=3 n=16 v=100
13642561 Off ch=3 n=16 v=0
13643870 On ch=3 n=11 v=100
13644514 Off ch=3 n=11 v=0
13644801 On ch=3 n=24 v=100
13644907 Off ch=3 n=24 v=0
13644911 On ch=3 n=13 v=100
13645262 Off ch=3 n=13 v=0
13645264 On ch=3 n=9 v=100
13645841 Off ch=3 n=9 v=0
13647046 On ch=3 n=1 v=100
13648895 Off ch=3 n=1 v=0
13649449 On ch=3 n=32 v=100
13649460 On ch=3 n=15 v=100
13649549 Off ch=3 n=32 v=0
13649577 Off ch=3 n=15 v=0
13650437 On ch=3 n=12 v=100
13650805 Off ch=3 n=12 v=0
13650810 On ch=3 n=6 v=100
13653653 Off ch=3 n=6 v=0
13653664 On ch=3 n=13 v=100
13654318 On ch=3 n=19 v=100
13654318 Off ch=3 n=13 v=0
13654409 Off ch=3 n=19 v=0
13654516 On ch=3 n=33 v=100
13654628 Off ch=3 n=33 v=0
13654647 On ch=3 n=20 v=100
13654817 Off ch=3 n=20 v=0
13655420 On ch=3 n=16 v=100
13655526 On ch=3 n=6 v=100
13655542 Off ch=3 n=16 v=0
13656130 Off ch=3 n=6 v=0
13656206 On ch=3 n=6 v=100
13656570 Off ch=3 n=6 v=0
13657590 On ch=3 n=17 v=100
13657626 On ch=3 n=17 v=100
13657633 Off ch=3 n=17 v=0
13657880 Off ch=3 n=17 v=0
13657881 On ch=3 n=9 v=100
13658080 Off ch=3 n=9 v=0
13658090 On ch=3 n=20 v=100
13658167 Off ch=3 n=20 v=0
13659394 On ch=3 n=18 v=100
13659435 Off ch=3 n=18 v=0
13661123 On ch=3 n=39 v=100
13661148 On ch=3 n=34 v=100
13661184 On ch=3 n=24 v=100
13661212 On ch=3 n=32 v=100
13661222 On ch=3 n=11 v=100
13661277 Off ch=3 n=39 v=0
13661416 Off ch=3 n=11 v=0
13661418 Off ch=3 n=24 v=0
13661419 Off ch=3 n=34 v=0
13661454 Off ch=3 n=32 v=0
13661553 On ch=3 n=5 v=100
13661815 Off ch=3 n=5 v=0
13661871 On ch=3 n=5 v=100
13662651 Off ch=3 n=5 v=0
13662968 On ch=3 n=56 v=100
13663009 On ch=3 n=28 v=100
13663061 On ch=3 n=5 v=100
13663138 Off ch=3 n=56 v=0
13663196 Off ch=3 n=28 v=0
13663527 Off ch=3 n=5 v=0
13665084 On ch=3 n=13 v=100
13665303 Off ch=3 n=13 v=0
13665309 On ch=3 n=3 v=100
13669733 Off ch=3 n=3 v=0
13669734 On ch=3 n=6 v=100
13670167 Off ch=3 n=6 v=0
13670361 On ch=3 n=5 v=100
13673214 Off ch=3 n=5 v=0
13673736 On ch=3 n=10 v=100
13674090 On ch=3 n=10 v=100
13674118 Off ch=3 n=10 v=0
13674251 On ch=3 n=19 v=100
13674364 Off ch=3 n=10 v=0
13674374 On ch=3 n=11 v=100
13674375 On ch=3 n=22 v=100
13674709 On ch=3 n=15 v=100
13674713 Off ch=3 n=19 v=0
13674713 Off ch=3 n=11 v=0
13674824 On ch=3 n=22 v=100
13674825 Off ch=3 n=22 v=0
13674869 Off ch=3 n=22 v=0
13674870 Off ch=3 n=15 v=0
13674907 On ch=3 n=17 v=100
13674910 On ch=3 n=31 v=100
13675094 Off ch=3 n=17 v=0
13675168 On ch=3 n=42 v=100
13675262 Off ch=3 n=31 v=0
13675285 Off ch=3 n=42 v=0
13676507 On ch=3 n=7 v=100
13677570 On ch=3 n=8 v=100
13677626 Off ch=3 n=7 v=0
13678754 Off ch=3 n=8 v=0
13678758 On ch=3 n=9 v=100
13678790 Off ch=3 n=9 v=0
13678793 On ch=3 n=11 v=100
13679018 Off ch=3 n=11 v=0
13679541 On ch=3 n=3 v=100
13680946 On ch=3 n=6 v=100
13680947 Off ch=3 n=3 v=0
13681146 On ch=3 n=63 v=100
13681162 Off ch=3 n=6 v=0
13681177 On ch=3 n=3 v=100
13681282 Off ch=3 n=63 v=0
13683530 Off ch=3 n=3 v=0
13684312 On ch=3 n=10 v=100
13684847 On ch=3 n=10 v=100
13684855 Off ch=3 n=10 v=0
13685059 On ch=3 n=11 v=100
13685066 Off ch=3 n=10 v=0
13685107 On ch=3 n=26 v=100
13685175 Off ch=3 n=11 v=0
13685177 On ch=3 n=7 v=100
13685334 Off ch=3 n=26 v=0
13686304 Off ch=3 n=7 v=0
13686307 On ch=3 n=7 v=100
13686568 Off ch=3 n=7 v=0
13686569 On ch=3 n=6 v=100
13687072 Off ch=3 n=6 v=0
13687084 On ch=3 n=11 v=100
13687390 Off ch=3 n=11 v=0
13687892 On ch=3 n=9 v=100
13688432 Off ch=3 n=9 v=0
13688545 On ch=3 n=15 v=100
13688589 Off ch=3 n=15 v=0
13688850 On ch=3 n=21 v=100
13688902 Off ch=3 n=21 v=0
13689321 On ch=3 n=8 v=100
13690397 Off ch=3 n=8 v=0
13690417 On ch=3 n=35 v=100
13690443 On ch=3 n=12 v=100
13690485 Off ch=3 n=35 v=0
13690485 Off ch=3 n=12 v=0
13692630 On ch=3 n=31 v=100
13692681 On ch=3 n=21 v=100
13692957 Off ch=3 n=31 v=0
13692975 Off ch=3 n=21 v=0
13692985 On ch=3 n=3 v=100
13693250 Off ch=3 n=3 v=0
13693253 On ch=3 n=7 v=100
13693662 Off ch=3 n=7 v=0
TrkEnd    
MTrk    
0 PrCh ch=4 p=46 
0 Meta TrkName "LTR" 
16019 On ch=4 n=17 v=100
16181 Off ch=4 n=17 v=0
23862 On ch=4 n=15 v=100
24075 Off ch=4 n=15 v=0
29320 On ch=4 n=4 v=100
29922 Off ch=4 n=4 v=0
29925 On ch=4 n=2 v=100
30117 Off ch=4 n=2 v=0
41605 On ch=4 n=37 v=100
41792 Off ch=4 n=37 v=0
43576 On ch=4 n=4 v=100
44189 Off ch=4 n=4 v=0
44194 On ch=4 n=5 v=100
44472 Off ch=4 n=5 v=0
44473 On ch=4 n=3 v=100
45401 Off ch=4 n=3 v=0
45403 On ch=4 n=2 v=100
47025 On ch=4 n=39 v=100
47229 On ch=4 n=15 v=100
47230 Off ch=4 n=2 v=0
47287 Off ch=4 n=39 v=0
47808 Off ch=4 n=15 v=0
52140 On ch=4 n=55 v=100
52295 Off ch=4 n=55 v=0
55748 On ch=4 n=55 v=100
55903 Off ch=4 n=55 v=0
68382 On ch=4 n=1 v=100
68581 Off ch=4 n=1 v=0
74378 On ch=4 n=64 v=100
74565 Off ch=4 n=64 v=0
75411 On ch=4 n=65 v=100
75597 Off ch=4 n=65 v=0
76432 On ch=4 n=67 v=100
76617 Off ch=4 n=67 v=0
77524 On ch=4 n=4 v=100
77967 Off ch=4 n=4 v=0
77969 On ch=4 n=0 v=100
87106 Off ch=4 n=0 v=0
87107 On ch=4 n=9 v=100
87417 Off ch=4 n=9 v=0
87419 On ch=4 n=12 v=100
87647 Off ch=4 n=12 v=0
87664 On ch=4 n=7 v=100
87782 Off ch=4 n=7 v=0
87882 On ch=4 n=31 v=100
87964 Off ch=4 n=31 v=0
88046 On ch=4 n=36 v=100
88125 Off ch=4 n=36 v=0
88211 On ch=4 n=34 v=100
88285 Off ch=4 n=34 v=0
88370 On ch=4 n=25 v=100
88443 Off ch=4 n=25 v=0
88523 On ch=4 n=36 v=100
88615 Off ch=4 n=36 v=0
88680 On ch=4 n=30 v=100
88761 Off ch=4 n=30 v=0
88851 On ch=4 n=30 v=100
88927 Off ch=4 n=30 v=0
89002 On ch=4 n=37 v=100
89002 On ch=4 n=37 v=100
89101 Off ch=4 n=37 v=0
89101 Off ch=4 n=37 v=0
89165 On ch=4 n=33 v=100
89244 Off ch=4 n=33 v=0
89320 On ch=4 n=29 v=100
89414 Off ch=4 n=29 v=0
89483 On ch=4 n=38 v=100
89576 Off ch=4 n=38 v=0
89644 On ch=4 n=33 v=100
89734 Off ch=4 n=33 v=0
89806 On ch=4 n=33 v=100
89880 Off ch=4 n=33 v=0
89956 On ch=4 n=28 v=100
90037 Off ch=4 n=28 v=0
90119 On ch=4 n=37 v=100
90214 Off ch=4 n=37 v=0
90280 On ch=4 n=31 v=100
90358 Off ch=4 n=31 v=0
90439 On ch=4 n=38 v=100
90531 Off ch=4 n=38 v=0
90757 On ch=4 n=28 v=100
90831 Off ch=4 n=28 v=0
90913 On ch=4 n=32 v=100
90993 Off ch=4 n=32 v=0
91072 On ch=4 n=43 v=100
91168 Off ch=4 n=43 v=0
91232 On ch=4 n=31 v=100
91326 Off ch=4 n=31 v=0
91386 On ch=4 n=32 v=100
91471 Off ch=4 n=32 v=0
91556 On ch=4 n=45 v=100
91621 Off ch=4 n=45 v=0
91868 On ch=4 n=32 v=100
91940 Off ch=4 n=32 v=0
92023 On ch=4 n=28 v=100
92107 Off ch=4 n=28 v=0
92190 On ch=4 n=31 v=100
92265 Off ch=4 n=31 v=0
92341 On ch=4 n=28 v=100
92425 Off ch=4 n=28 v=0
92505 On ch=4 n=35 v=100
92593 Off ch=4 n=35 v=0
92665 On ch=4 n=33 v=100
92756 Off ch=4 n=33 v=0
92827 On ch=4 n=27 v=100
92902 Off ch=4 n=27 v=0
92980 On ch=4 n=39 v=100
93070 Off ch=4 n=39 v=0
93140 On ch=4 n=33 v=100
93219 Off ch=4 n=33 v=0
93295 On ch=4 n=28 v=100
93379 Off ch=4 n=28 v=0
93457 On ch=4 n=38 v=100
93548 Off ch=4 n=38 v=0
93617 On ch=4 n=33 v=100
93696 Off ch=4 n=33 v=0
93771 On ch=4 n=27 v=100
93856 Off ch=4 n=27 v=0
93938 On ch=4 n=49 v=100
94010 Off ch=4 n=49 v=0
94095 On ch=4 n=30 v=100
94174 Off ch=4 n=30 v=0
94253 On ch=4 n=34 v=100
94333 Off ch=4 n=34 v=0
94531 On ch=4 n=34 v=100
94664 Off ch=4 n=34 v=0
94886 On ch=4 n=41 v=100
94975 Off ch=4 n=41 v=0
97205 On ch=4 n=9 v=100
97766 Off ch=4 n=9 v=0
102833 On ch=4 n=12 v=100
103037 Off ch=4 n=12 v=0
106161 On ch=4 n=21 v=100
106478 On ch=4 n=46 v=100
106517 Off ch=4 n=21 v=0
106519 On ch=4 n=9 v=100
106778 Off ch=4 n=46 v=0
106803 Off ch=4 n=9 v=0
107141 On ch=4 n=47 v=100
107145 On ch=4 n=10 v=100
107438 Off ch=4 n=10 v=0
107478 Off ch=4 n=47 v=0
108074 On ch=4 n=58 v=100
108075 On ch=4 n=8 v=100
108203 Off ch=4 n=8 v=0
108206 On ch=4 n=5 v=100
108218 Off ch=4 n=58 v=0
109300 Off ch=4 n=5 v=0
109506 On ch=4 n=33 v=100
109717 Off ch=4 n=33 v=0
109724 On ch=4 n=5 v=100
114482 Off ch=4 n=5 v=0
124390 On ch=4 n=19 v=100
124554 Off ch=4 n=19 v=0
128455 On ch=4 n=39 v=100
128689 Off ch=4 n=39 v=0
129450 On ch=4 n=13 v=100
129606 Off ch=4 n=13 v=0
135138 On ch=4 n=22 v=100
135666 Off ch=4 n=22 v=0
135669 On ch=4 n=6 v=100
135859 Off ch=4 n=6 v=0
144430 On ch=4 n=47 v=100
144472 On ch=4 n=5 v=100
144542 Off ch=4 n=47 v=0
145018 Off ch=4 n=5 v=0
151116 On ch=4 n=38 v=100
151202 Off ch=4 n=38 v=0
156350 On ch=4 n=11 v=100
156531 Off ch=4 n=11 v=0
156763 On ch=4 n=48 v=100
156805 On ch=4 n=9 v=100
156833 On ch=4 n=18 v=100
156914 Off ch=4 n=48 v=0
156932 Off ch=4 n=9 v=0
157218 Off ch=4 n=18 v=0
164767 On ch=4 n=15 v=100
164936 Off ch=4 n=15 v=0
166938 On ch=4 n=11 v=100
167078 Off ch=4 n=11 v=0
168948 On ch=4 n=12 v=100
168981 Off ch=4 n=12 v=0
170312 On ch=4 n=50 v=100
170403 Off ch=4 n=50 v=0
171778 On ch=4 n=17 v=100
172097 Off ch=4 n=17 v=0
172744 On ch=4 n=16 v=100
173271 Off ch=4 n=16 v=0
174146 On ch=4 n=23 v=100
174255 On ch=4 n=17 v=100
174270 Off ch=4 n=23 v=0
174377 Off ch=4 n=17 v=0
176549 On ch=4 n=15 v=100
176827 Off ch=4 n=15 v=0
185283 On ch=4 n=25 v=100
185302 On ch=4 n=6 v=100
185455 Off ch=4 n=25 v=0
185902 Off ch=4 n=6 v=0
187090 On ch=4 n=4 v=100
187421 Off ch=4 n=4 v=0
187423 On ch=4 n=2 v=100
187739 Off ch=4 n=2 v=0
188886 On ch=4 n=5 v=100
189796 Off ch=4 n=5 v=0
197875 On ch=4 n=18 v=100
198040 Off ch=4 n=18 v=0
204446 On ch=4 n=4 v=100
204763 Off ch=4 n=4 v=0
205492 On ch=4 n=4 v=100
205874 Off ch=4 n=4 v=0
214001 On ch=4 n=41 v=100
214014 On ch=4 n=36 v=100
214167 Off ch=4 n=41 v=0
214194 Off ch=4 n=36 v=0
216383 On ch=4 n=15 v=100
216537 Off ch=4 n=15 v=0
218901 On ch=4 n=9 v=100
218902 On ch=4 n=35 v=100
219034 Off ch=4 n=9 v=0
219063 Off ch=4 n=35 v=0
219199 On ch=4 n=22 v=100
219283 Off ch=4 n=22 v=0
219299 On ch=4 n=29 v=100
219524 Off ch=4 n=29 v=0
221460 On ch=4 n=15 v=100
221594 Off ch=4 n=15 v=0
221742 On ch=4 n=16 v=100
221972 Off ch=4 n=16 v=0
222003 On ch=4 n=13 v=100
222435 Off ch=4 n=13 v=0
222438 On ch=4 n=5 v=100
222493 Off ch=4 n=5 v=0
223257 On ch=4 n=8 v=100
223507 Off ch=4 n=8 v=0
225458 On ch=4 n=4 v=100
226097 Off ch=4 n=4 v=0
242074 On ch=4 n=20 v=100
242182 Off ch=4 n=20 v=0
255503 On ch=4 n=25 v=100
255658 Off ch=4 n=25 v=0
265518 On ch=4 n=6 v=100
265775 On ch=4 n=22 v=100
265829 Off ch=4 n=6 v=0
266000 Off ch=4 n=22 v=0
266001 On ch=4 n=5 v=100
268022 On ch=4 n=3 v=100
268022 Off ch=4 n=5 v=0
272612 Off ch=4 n=3 v=0
272614 On ch=4 n=6 v=100
272871 On ch=4 n=22 v=100
272925 Off ch=4 n=6 v=0
273096 Off ch=4 n=22 v=0
305510 On ch=4 n=4 v=100
305742 Off ch=4 n=4 v=0
306526 On ch=4 n=3 v=100
307736 Off ch=4 n=3 v=0
309089 On ch=4 n=35 v=100
309100 On ch=4 n=3 v=100
309184 Off ch=4 n=35 v=0
313511 Off ch=4 n=3 v=0
317541 On ch=4 n=11 v=100
317683 Off ch=4 n=11 v=0
319332 On ch=4 n=18 v=100
319502 Off ch=4 n=18 v=0
320499 On ch=4 n=0 v=100
325124 Off ch=4 n=0 v=0
327974 On ch=4 n=25 v=100
328080 On ch=4 n=28 v=100
328086 Off ch=4 n=25 v=0
328108 On ch=4 n=51 v=100
328303 Off ch=4 n=28 v=0
328309 On ch=4 n=21 v=100
328510 Off ch=4 n=21 v=0
328520 On ch=4 n=27 v=100
328588 On ch=4 n=40 v=100
328698 On ch=4 n=41 v=100
328760 Off ch=4 n=27 v=0
329042 Off ch=4 n=51 v=0
329061 Off ch=4 n=40 v=0
329318 Off ch=4 n=41 v=0
344306 On ch=4 n=35 v=100
344435 Off ch=4 n=35 v=0
344943 On ch=4 n=2 v=100
345812 Off ch=4 n=2 v=0
352062 On ch=4 n=4 v=100
352213 Off ch=4 n=4 v=0
352384 On ch=4 n=11 v=100
352537 Off ch=4 n=11 v=0
352958 On ch=4 n=50 v=100
353173 Off ch=4 n=50 v=0
360069 On ch=4 n=12 v=100
360166 Off ch=4 n=12 v=0
366418 On ch=4 n=12 v=100
366536 Off ch=4 n=12 v=0
367211 On ch=4 n=6 v=100
367243 Off ch=4 n=6 v=0
367251 On ch=4 n=12 v=100
367430 Off ch=4 n=12 v=0
369228 On ch=4 n=11 v=100
369523 Off ch=4 n=11 v=0
379238 On ch=4 n=9 v=100
380398 Off ch=4 n=9 v=0
385138 On ch=4 n=7 v=100
385627 Off ch=4 n=7 v=0
404842 On ch=4 n=14 v=100
405309 Off ch=4 n=14 v=0
434686 On ch=4 n=34 v=100
434799 Off ch=4 n=34 v=0
434809 On ch=4 n=29 v=100
435049 On ch=4 n=23 v=100
435122 Off ch=4 n=29 v=0
435134 Off ch=4 n=23 v=0
440320 On ch=4 n=11 v=100
442459 On ch=4 n=8 v=100
442462 Off ch=4 n=11 v=0
442768 On ch=4 n=9 v=100
442768 Off ch=4 n=8 v=0
443215 Off ch=4 n=9 v=0
443227 On ch=4 n=12 v=100
444587 Off ch=4 n=12 v=0
453477 On ch=4 n=5 v=100
453484 On ch=4 n=33 v=100
453991 Off ch=4 n=5 v=0
453997 On ch=4 n=6 v=100
454146 Off ch=4 n=33 v=0
454408 Off ch=4 n=6 v=0
454415 On ch=4 n=4 v=100
454703 Off ch=4 n=4 v=0
455568 On ch=4 n=7 v=100
455768 On ch=4 n=11 v=100
455774 Off ch=4 n=7 v=0
455904 Off ch=4 n=11 v=0
456825 On ch=4 n=11 v=100
457314 Off ch=4 n=11 v=0
463019 On ch=4 n=6 v=100
464244 On ch=4 n=12 v=100
466008 Off ch=4 n=6 v=0
466678 Off ch=4 n=12 v=0
466681 On ch=4 n=4 v=100
468666 Off ch=4 n=4 v=0
468667 On ch=4 n=7 v=100
468809 Off ch=4 n=7 v=0
475598 On ch=4 n=1 v=100
476152 Off ch=4 n=1 v=0
484810 On ch=4 n=10 v=100
485279 On ch=4 n=51 v=100
485364 Off ch=4 n=10 v=0
485609 On ch=4 n=11 v=100
488235 Off ch=4 n=51 v=0
489651 On ch=4 n=10 v=100
489787 Off ch=4 n=11 v=0
490181 Off ch=4 n=10 v=0
503569 On ch=4 n=2 v=100
503917 Off ch=4 n=2 v=0
505433 On ch=4 n=2 v=100
506206 Off ch=4 n=2 v=0
507565 On ch=4 n=2 v=100
507952 Off ch=4 n=2 v=0
516703 On ch=4 n=31 v=100
516704 On ch=4 n=5 v=100
518405 On ch=4 n=9 v=100
518409 Off ch=4 n=5 v=0
518854 Off ch=4 n=31 v=0
519796 Off ch=4 n=9 v=0
519798 On ch=4 n=12 v=100
519807 Off ch=4 n=12 v=0
519876 On ch=4 n=12 v=100
520817 On ch=4 n=25 v=100
520971 Off ch=4 n=12 v=0
520997 Off ch=4 n=25 v=0
525179 On ch=4 n=24 v=100
525559 On ch=4 n=18 v=100
525559 Off ch=4 n=24 v=0
526690 Off ch=4 n=18 v=0
526697 On ch=4 n=13 v=100
527665 Off ch=4 n=13 v=0
529392 On ch=4 n=30 v=100
529417 On ch=4 n=11 v=100
529493 On ch=4 n=10 v=100
529499 Off ch=4 n=30 v=0
529499 Off ch=4 n=11 v=0
529873 On ch=4 n=9 v=100
529873 Off ch=4 n=10 v=0
529874 On ch=4 n=46 v=100
530002 Off ch=4 n=9 v=0
530039 On ch=4 n=25 v=100
530078 Off ch=4 n=46 v=0
530183 Off ch=4 n=25 v=0
531922 On ch=4 n=23 v=100
532158 Off ch=4 n=23 v=0
540290 On ch=4 n=17 v=100
540524 On ch=4 n=8 v=100
540529 Off ch=4 n=17 v=0
542786 Off ch=4 n=8 v=0
542877 On ch=4 n=5 v=100
543099 Off ch=4 n=5 v=0
544105 On ch=4 n=44 v=100
544206 On ch=4 n=24 v=100
544250 Off ch=4 n=44 v=0
544589 On ch=4 n=28 v=100
544597 Off ch=4 n=24 v=0
544721 Off ch=4 n=28 v=0
550527 On ch=4 n=5 v=100
551353 Off ch=4 n=5 v=0
551357 On ch=4 n=5 v=100
551481 Off ch=4 n=5 v=0
552100 On ch=4 n=5 v=100
553223 Off ch=4 n=5 v=0
553258 On ch=4 n=3 v=100
553569 Off ch=4 n=3 v=0
555220 On ch=4 n=20 v=100
555297 Off ch=4 n=20 v=0
556561 On ch=4 n=3 v=100
556756 Off ch=4 n=3 v=0
556759 On ch=4 n=2 v=100
557038 Off ch=4 n=2 v=0
613026 On ch=4 n=9 v=100
613164 Off ch=4 n=9 v=0
617280 On ch=4 n=5 v=100
617631 Off ch=4 n=5 v=0
626132 On ch=4 n=16 v=100
626478 Off ch=4 n=16 v=0
629832 On ch=4 n=28 v=100
629844 On ch=4 n=2 v=100
629892 Off ch=4 n=28 v=0
631113 On ch=4 n=3 v=100
631123 Off ch=4 n=2 v=0
632796 On ch=4 n=24 v=100
632844 On ch=4 n=9 v=100
632846 Off ch=4 n=3 v=0
632855 Off ch=4 n=24 v=0
633159 Off ch=4 n=9 v=0
633161 On ch=4 n=1 v=100
633351 Off ch=4 n=1 v=0
636539 On ch=4 n=31 v=100
636649 Off ch=4 n=31 v=0
638416 On ch=4 n=28 v=100
638578 Off ch=4 n=28 v=0
638584 On ch=4 n=9 v=100
638823 Off ch=4 n=9 v=0
645222 On ch=4 n=2 v=100
650720 Off ch=4 n=2 v=0
650725 On ch=4 n=4 v=100
651204 Off ch=4 n=4 v=0
671739 On ch=4 n=35 v=100
671871 Off ch=4 n=35 v=0
682829 On ch=4 n=32 v=100
682851 On ch=4 n=12 v=100
683068 Off ch=4 n=12 v=0
683076 Off ch=4 n=32 v=0
688047 On ch=4 n=24 v=100
688408 Off ch=4 n=24 v=0
688793 On ch=4 n=18 v=100
688978 Off ch=4 n=18 v=0
690868 On ch=4 n=31 v=100
691108 Off ch=4 n=31 v=0
692768 On ch=4 n=8 v=100
692774 On ch=4 n=45 v=100
693278 Off ch=4 n=8 v=0
693279 On ch=4 n=6 v=100
694324 Off ch=4 n=45 v=0
698035 Off ch=4 n=6 v=0
698077 On ch=4 n=10 v=100
698450 On ch=4 n=39 v=100
698649 Off ch=4 n=10 v=0
698674 Off ch=4 n=39 v=0
698864 On ch=4 n=7 v=100
700463 Off ch=4 n=7 v=0
702679 On ch=4 n=19 v=100
702841 Off ch=4 n=19 v=0
704635 On ch=4 n=20 v=100
704803 Off ch=4 n=20 v=0
707740 On ch=4 n=25 v=100
707879 Off ch=4 n=25 v=0
708155 On ch=4 n=39 v=100
708193 On ch=4 n=20 v=100
708250 Off ch=4 n=39 v=0
708537 On ch=4 n=31 v=100
708672 Off ch=4 n=20 v=0
708737 Off ch=4 n=31 v=0
708899 On ch=4 n=17 v=100
709200 Off ch=4 n=17 v=0
713094 On ch=4 n=16 v=100
713258 Off ch=4 n=16 v=0
717001 On ch=4 n=5 v=100
718743 Off ch=4 n=5 v=0
721188 On ch=4 n=23 v=100
721310 Off ch=4 n=23 v=0
721328 On ch=4 n=2 v=100
721618 Off ch=4 n=2 v=0
728684 On ch=4 n=13 v=100
729061 Off ch=4 n=13 v=0
731217 On ch=4 n=5 v=100
731737 Off ch=4 n=5 v=0
731739 On ch=4 n=4 v=100
732358 Off ch=4 n=4 v=0
733591 On ch=4 n=4 v=100
733698 Off ch=4 n=4 v=0
756349 On ch=4 n=8 v=100
756495 Off ch=4 n=8 v=0
756497 On ch=4 n=3 v=100
757087 On ch=4 n=5 v=100
757087 Off ch=4 n=3 v=0
757191 Off ch=4 n=5 v=0
771161 On ch=4 n=12 v=100
771321 Off ch=4 n=12 v=0
775522 On ch=4 n=18 v=100
776153 Off ch=4 n=18 v=0
776216 On ch=4 n=18 v=100
776759 Off ch=4 n=18 v=0
787451 On ch=4 n=51 v=100
787666 Off ch=4 n=51 v=0
791336 On ch=4 n=8 v=100
791542 Off ch=4 n=8 v=0
791849 On ch=4 n=22 v=100
792475 Off ch=4 n=22 v=0
796915 On ch=4 n=14 v=100
797062 Off ch=4 n=14 v=0
797776 On ch=4 n=22 v=100
798172 Off ch=4 n=22 v=0
823818 On ch=4 n=14 v=100
824171 Off ch=4 n=14 v=0
831101 On ch=4 n=7 v=100
831909 Off ch=4 n=7 v=0
835079 On ch=4 n=14 v=100
835221 Off ch=4 n=14 v=0
839266 On ch=4 n=33 v=100
839337 Off ch=4 n=33 v=0
840089 On ch=4 n=67 v=100
840274 Off ch=4 n=67 v=0
844197 On ch=4 n=4 v=100
844902 Off ch=4 n=4 v=0
849475 On ch=4 n=30 v=100
849763 Off ch=4 n=30 v=0
855248 On ch=4 n=11 v=100
855395 Off ch=4 n=11 v=0
861355 On ch=4 n=16 v=100
861521 Off ch=4 n=16 v=0
865616 On ch=4 n=4 v=100
865815 On ch=4 n=20 v=100
865971 Off ch=4 n=4 v=0
865993 Off ch=4 n=20 v=0
882972 On ch=4 n=60 v=100
883086 Off ch=4 n=60 v=0
893929 On ch=4 n=33 v=100
894093 Off ch=4 n=33 v=0
910418 On ch=4 n=52 v=100
910671 Off ch=4 n=52 v=0
914826 On ch=4 n=3 v=100
915413 Off ch=4 n=3 v=0
926281 On ch=4 n=0 v=100
926357 Off ch=4 n=0 v=0
926359 On ch=4 n=0 v=100
928871 On ch=4 n=8 v=100
928875 Off ch=4 n=0 v=0
928906 Off ch=4 n=8 v=0
950557 On ch=4 n=8 v=100
951131 On ch=4 n=10 v=100
951134 Off ch=4 n=8 v=0
951180 Off ch=4 n=10 v=0
954619 On ch=4 n=11 v=100
954843 Off ch=4 n=11 v=0
971780 On ch=4 n=1 v=100
972094 Off ch=4 n=1 v=0
976024 On ch=4 n=3 v=100
977108 Off ch=4 n=3 v=0
978262 On ch=4 n=3 v=100
978603 Off ch=4 n=3 v=0
1017659 On ch=4 n=22 v=100
1017659 On ch=4 n=38 v=100
1018496 Off ch=4 n=22 v=0
1018822 Off ch=4 n=38 v=0
1023611 On ch=4 n=8 v=100
1023832 Off ch=4 n=8 v=0
1023862 On ch=4 n=8 v=100
1024583 Off ch=4 n=8 v=0
1030316 On ch=4 n=9 v=100
1030448 Off ch=4 n=9 v=0
1046250 On ch=4 n=2 v=100
1052278 Off ch=4 n=2 v=0
1053132 On ch=4 n=7 v=100
1053910 Off ch=4 n=7 v=0
1053912 On ch=4 n=0 v=100
1057570 Off ch=4 n=0 v=0
1057572 On ch=4 n=7 v=100
1058350 Off ch=4 n=7 v=0
1064536 On ch=4 n=11 v=100
1065146 Off ch=4 n=11 v=0
1066092 On ch=4 n=8 v=100
1066465 Off ch=4 n=8 v=0
1066467 On ch=4 n=1 v=100
1071647 Off ch=4 n=1 v=0
1072317 On ch=4 n=4 v=100
1072442 Off ch=4 n=4 v=0
1072444 On ch=4 n=8 v=100
1072817 Off ch=4 n=8 v=0
1077143 On ch=4 n=38 v=100
1077284 Off ch=4 n=38 v=0
1080073 On ch=4 n=8 v=100
1080224 Off ch=4 n=8 v=0
1080395 On ch=4 n=8 v=100
1080545 Off ch=4 n=8 v=0
1083621 On ch=4 n=2 v=100
1089603 On ch=4 n=4 v=100
1089661 Off ch=4 n=2 v=0
1089670 Off ch=4 n=4 v=0
1104579 On ch=4 n=50 v=100
1104684 On ch=4 n=40 v=100
1104775 Off ch=4 n=50 v=0
1104851 Off ch=4 n=40 v=0
1105108 On ch=4 n=17 v=100
1105391 Off ch=4 n=17 v=0
1118714 On ch=4 n=51 v=100
1118935 Off ch=4 n=51 v=0
1119436 On ch=4 n=11 v=100
1119588 Off ch=4 n=11 v=0
1119757 On ch=4 n=8 v=100
1119908 Off ch=4 n=8 v=0
1130018 On ch=4 n=35 v=100
1130105 Off ch=4 n=35 v=0
1130106 On ch=4 n=24 v=100
1130520 On ch=4 n=40 v=100
1130657 On ch=4 n=22 v=100
1130660 Off ch=4 n=24 v=0
1130677 Off ch=4 n=40 v=0
1131065 Off ch=4 n=22 v=0
1131401 On ch=4 n=33 v=100
1131492 Off ch=4 n=33 v=0
1131493 On ch=4 n=24 v=100
1132039 Off ch=4 n=24 v=0
1132096 On ch=4 n=13 v=100
1132340 Off ch=4 n=13 v=0
1138506 On ch=4 n=5 v=100
1139137 On ch=4 n=7 v=100
1139141 Off ch=4 n=5 v=0
1139681 Off ch=4 n=7 v=0
1140225 On ch=4 n=6 v=100
1140832 Off ch=4 n=6 v=0
1143801 On ch=4 n=46 v=100
1144042 Off ch=4 n=46 v=0
1144090 On ch=4 n=43 v=100
1144281 Off ch=4 n=43 v=0
1144729 On ch=4 n=2 v=100
1144773 Off ch=4 n=2 v=0
1149536 On ch=4 n=5 v=100
1150107 Off ch=4 n=5 v=0
1150109 On ch=4 n=3 v=100
1151024 On ch=4 n=53 v=100
1151052 On ch=4 n=4 v=100
1151052 Off ch=4 n=3 v=0
1151074 On ch=4 n=46 v=100
1151156 Off ch=4 n=53 v=0
1151156 Off ch=4 n=4 v=0
1151157 On ch=4 n=4 v=100
1151180 Off ch=4 n=46 v=0
1152199 On ch=4 n=37 v=100
1152233 Off ch=4 n=4 v=0
1152235 On ch=4 n=5 v=100
1152260 Off ch=4 n=37 v=0
1152806 Off ch=4 n=5 v=0
1157618 On ch=4 n=12 v=100
1157739 Off ch=4 n=12 v=0
1158111 On ch=4 n=2 v=100
1158308 Off ch=4 n=2 v=0
1161108 On ch=4 n=1 v=100
1161559 Off ch=4 n=1 v=0
1161561 On ch=4 n=0 v=100
1168224 Off ch=4 n=0 v=0
1168226 On ch=4 n=1 v=100
1168679 Off ch=4 n=1 v=0
1185280 On ch=4 n=17 v=100
1185438 Off ch=4 n=17 v=0
1194867 On ch=4 n=5 v=100
1195853 Off ch=4 n=5 v=0
1197636 On ch=4 n=40 v=100
1198245 Off ch=4 n=40 v=0
1198546 On ch=4 n=33 v=100
1198751 On ch=4 n=6 v=100
1199133 On ch=4 n=41 v=100
1199179 Off ch=4 n=33 v=0
1199179 Off ch=4 n=6 v=0
1199181 On ch=4 n=6 v=100
1199236 Off ch=4 n=41 v=0
1203409 Off ch=4 n=6 v=0
1203453 On ch=4 n=33 v=100
1203658 On ch=4 n=5 v=100
1204086 Off ch=4 n=33 v=0
1204086 Off ch=4 n=5 v=0
1204099 On ch=4 n=42 v=100
1204817 Off ch=4 n=42 v=0
1205055 On ch=4 n=55 v=100
1205109 On ch=4 n=53 v=100
1205200 On ch=4 n=34 v=100
1205447 Off ch=4 n=53 v=0
1205466 Off ch=4 n=55 v=0
1205489 Off ch=4 n=34 v=0
1205496 On ch=4 n=39 v=100
1206385 Off ch=4 n=39 v=0
1226398 On ch=4 n=55 v=100
1226442 Off ch=4 n=55 v=0
1226630 On ch=4 n=55 v=100
1226800 Off ch=4 n=55 v=0
1229973 On ch=4 n=2 v=100
1230414 Off ch=4 n=2 v=0
1232383 On ch=4 n=4 v=100
1238181 Off ch=4 n=4 v=0
1239126 On ch=4 n=4 v=100
1239663 Off ch=4 n=4 v=0
1239665 On ch=4 n=1 v=100
1242613 On ch=4 n=53 v=100
1244029 Off ch=4 n=1 v=0
1244038 On ch=4 n=47 v=100
1244105 On ch=4 n=4 v=100
1244428 Off ch=4 n=53 v=0
1244488 Off ch=4 n=47 v=0
1244516 Off ch=4 n=4 v=0
1244683 On ch=4 n=5 v=100
1245566 Off ch=4 n=5 v=0
1272068 On ch=4 n=22 v=100
1272128 Off ch=4 n=22 v=0
1314903 On ch=4 n=2 v=100
1315051 Off ch=4 n=2 v=0
1315053 On ch=4 n=0 v=100
1318199 Off ch=4 n=0 v=0
1318379 On ch=4 n=2 v=100
1318961 Off ch=4 n=2 v=0
1318963 On ch=4 n=1 v=100
1319049 Off ch=4 n=1 v=0
1319593 On ch=4 n=8 v=100
1319655 Off ch=4 n=8 v=0
1331702 On ch=4 n=21 v=100
1331873 Off ch=4 n=21 v=0
1345462 On ch=4 n=42 v=100
1345825 Off ch=4 n=42 v=0
1352300 On ch=4 n=8 v=100
1353954 Off ch=4 n=8 v=0
1353956 On ch=4 n=3 v=100
1354696 On ch=4 n=3 v=100
1356693 Off ch=4 n=3 v=0
1361314 Off ch=4 n=3 v=0
1361346 On ch=4 n=25 v=100
1361402 Off ch=4 n=25 v=0
1361526 On ch=4 n=14 v=100
1361688 Off ch=4 n=14 v=0
1364453 On ch=4 n=8 v=100
1365414 Off ch=4 n=8 v=0
1366211 On ch=4 n=13 v=100
1366572 Off ch=4 n=13 v=0
1367101 On ch=4 n=15 v=100
1367269 Off ch=4 n=15 v=0
1368855 On ch=4 n=3 v=100
1370910 Off ch=4 n=3 v=0
1370926 On ch=4 n=2 v=100
1371066 On ch=4 n=17 v=100
1372924 On ch=4 n=4 v=100
1372924 Off ch=4 n=2 v=0
1373585 Off ch=4 n=17 v=0
1373974 On ch=4 n=11 v=100
1374032 Off ch=4 n=4 v=0
1374043 Off ch=4 n=11 v=0
1375027 On ch=4 n=9 v=100
1375385 Off ch=4 n=9 v=0
1375955 On ch=4 n=10 v=100
1376414 Off ch=4 n=10 v=0
1379182 On ch=4 n=50 v=100
1379236 On ch=4 n=8 v=100
1379618 Off ch=4 n=50 v=0
1379638 Off ch=4 n=8 v=0
1381628 On ch=4 n=1 v=100
1381653 On ch=4 n=44 v=100
1381687 Off ch=4 n=1 v=0
1381689 On ch=4 n=17 v=100
1381715 Off ch=4 n=44 v=0
1382053 Off ch=4 n=17 v=0
1408765 On ch=4 n=4 v=100
1410030 On ch=4 n=3 v=100
1412027 Off ch=4 n=4 v=0
1413130 Off ch=4 n=3 v=0
1413139 On ch=4 n=8 v=100
1414857 Off ch=4 n=8 v=0
1420414 On ch=4 n=16 v=100
1420429 On ch=4 n=4 v=100
1420493 Off ch=4 n=16 v=0
1421403 On ch=4 n=2 v=100
1421405 Off ch=4 n=4 v=0
1425361 Off ch=4 n=2 v=0
1427766 On ch=4 n=40 v=100
1427928 Off ch=4 n=40 v=0
1428648 On ch=4 n=53 v=100
1428859 Off ch=4 n=53 v=0
1441711 On ch=4 n=49 v=100
1441715 On ch=4 n=16 v=100
1441780 On ch=4 n=10 v=100
1442082 Off ch=4 n=16 v=0
1442307 Off ch=4 n=49 v=0
1442860 On ch=4 n=3 v=100
1443485 On ch=4 n=14 v=100
1443524 Off ch=4 n=10 v=0
1443885 On ch=4 n=3 v=100
1443897 Off ch=4 n=3 v=0
1444226 Off ch=4 n=14 v=0
1447384 On ch=4 n=48 v=100
1447511 Off ch=4 n=3 v=0
1447532 Off ch=4 n=48 v=0
1449409 On ch=4 n=34 v=100
1449591 Off ch=4 n=34 v=0
1455641 On ch=4 n=4 v=100
1457153 Off ch=4 n=4 v=0
1462730 On ch=4 n=50 v=100
1464457 Off ch=4 n=50 v=0
1481306 On ch=4 n=7 v=100
1483083 Off ch=4 n=7 v=0
1517126 On ch=4 n=29 v=100
1517198 Off ch=4 n=29 v=0
1534193 On ch=4 n=12 v=100
1534335 Off ch=4 n=12 v=0
1535958 On ch=4 n=8 v=100
1536750 Off ch=4 n=8 v=0
1552118 On ch=4 n=16 v=100
1552470 Off ch=4 n=16 v=0
1556957 On ch=4 n=14 v=100
1557311 Off ch=4 n=14 v=0
1569371 On ch=4 n=3 v=100
1570824 Off ch=4 n=3 v=0
1570826 On ch=4 n=3 v=100
1574411 Off ch=4 n=3 v=0
1574413 On ch=4 n=3 v=100
1575077 Off ch=4 n=3 v=0
1575963 On ch=4 n=57 v=100
1575963 On ch=4 n=57 v=100
1576166 Off ch=4 n=57 v=0
1576166 Off ch=4 n=57 v=0
1578024 On ch=4 n=60 v=100
1578203 Off ch=4 n=60 v=0
1579050 On ch=4 n=64 v=100
1579228 Off ch=4 n=64 v=0
1620264 On ch=4 n=3 v=100
1620877 Off ch=4 n=3 v=0
1620883 On ch=4 n=4 v=100
1622178 Off ch=4 n=4 v=0
1622180 On ch=4 n=2 v=100
1625584 Off ch=4 n=2 v=0
1625586 On ch=4 n=1 v=100
1625875 Off ch=4 n=1 v=0
1625877 On ch=4 n=14 v=100
1626457 Off ch=4 n=14 v=0
1637487 On ch=4 n=1 v=100
1637686 Off ch=4 n=1 v=0
1646522 On ch=4 n=66 v=100
1646695 Off ch=4 n=66 v=0
1646885 On ch=4 n=4 v=100
1647549 Off ch=4 n=4 v=0
1647551 On ch=4 n=4 v=100
1653478 Off ch=4 n=4 v=0
1653480 On ch=4 n=2 v=100
1653513 On ch=4 n=32 v=100
1653638 On ch=4 n=4 v=100
1653648 Off ch=4 n=2 v=0
1653738 Off ch=4 n=32 v=0
1654182 Off ch=4 n=4 v=0
1660942 On ch=4 n=1 v=100
1663237 Off ch=4 n=1 v=0
1663239 On ch=4 n=3 v=100
1663990 Off ch=4 n=3 v=0
1755211 On ch=4 n=15 v=100
1755260 Off ch=4 n=15 v=0
1772489 On ch=4 n=17 v=100
1773227 Off ch=4 n=17 v=0
1774031 On ch=4 n=17 v=100
1775067 Off ch=4 n=17 v=0
1775380 On ch=4 n=12 v=100
1775433 Off ch=4 n=12 v=0
1775438 On ch=4 n=20 v=100
1775961 On ch=4 n=19 v=100
1775968 Off ch=4 n=20 v=0
1776029 Off ch=4 n=19 v=0
1788171 On ch=4 n=13 v=100
1788352 Off ch=4 n=13 v=0
1810242 On ch=4 n=28 v=100
1810259 On ch=4 n=7 v=100
1810379 Off ch=4 n=28 v=0
1810379 Off ch=4 n=7 v=0
1820868 On ch=4 n=5 v=100
1821750 Off ch=4 n=5 v=0
1825432 On ch=4 n=2 v=100
1825745 Off ch=4 n=2 v=0
1828202 On ch=4 n=3 v=100
1828337 Off ch=4 n=3 v=0
1834747 On ch=4 n=2 v=100
1835486 On ch=4 n=3 v=100
1835489 Off ch=4 n=2 v=0
1835906 On ch=4 n=24 v=100
1835973 Off ch=4 n=3 v=0
1835975 On ch=4 n=16 v=100
1836006 Off ch=4 n=24 v=0
1836432 On ch=4 n=21 v=100
1836749 Off ch=4 n=16 v=0
1837129 On ch=4 n=35 v=100
1837519 On ch=4 n=6 v=100
1837760 Off ch=4 n=21 v=0
1838026 Off ch=4 n=35 v=0
1838128 Off ch=4 n=6 v=0
1838130 On ch=4 n=3 v=100
1838593 On ch=4 n=33 v=100
1838595 On ch=4 n=35 v=100
1838617 Off ch=4 n=3 v=0
1838619 On ch=4 n=5 v=100
1838713 Off ch=4 n=35 v=0
1838726 Off ch=4 n=33 v=0
1839262 Off ch=4 n=5 v=0
1852020 On ch=4 n=17 v=100
1852087 Off ch=4 n=17 v=0
1852551 On ch=4 n=13 v=100
1852848 Off ch=4 n=13 v=0
1853010 On ch=4 n=18 v=100
1853396 On ch=4 n=50 v=100
1853415 On ch=4 n=3 v=100
1853420 Off ch=4 n=18 v=0
1853510 Off ch=4 n=50 v=0
1854815 Off ch=4 n=3 v=0
1857358 On ch=4 n=4 v=100
1859147 Off ch=4 n=4 v=0
1859153 On ch=4 n=10 v=100
1859855 Off ch=4 n=10 v=0
1859856 On ch=4 n=10 v=100
1860428 Off ch=4 n=10 v=0
1860566 On ch=4 n=12 v=100
1860823 Off ch=4 n=12 v=0
1863768 On ch=4 n=14 v=100
1866043 Off ch=4 n=14 v=0
1867622 On ch=4 n=5 v=100
1870890 On ch=4 n=45 v=100
1870893 Off ch=4 n=5 v=0
1871327 On ch=4 n=6 v=100
1871451 On ch=4 n=31 v=100
1871456 Off ch=4 n=6 v=0
1871457 Off ch=4 n=45 v=0
1871458 On ch=4 n=19 v=100
1871504 Off ch=4 n=31 v=0
1871921 Off ch=4 n=19 v=0
1876536 On ch=4 n=6 v=100
1876887 On ch=4 n=24 v=100
1877025 Off ch=4 n=6 v=0
1877042 Off ch=4 n=24 v=0
1883939 On ch=4 n=3 v=100
1884420 Off ch=4 n=3 v=0
1884422 On ch=4 n=0 v=100
1891126 Off ch=4 n=0 v=0
1891152 On ch=4 n=3 v=100
1891632 Off ch=4 n=3 v=0
1894944 On ch=4 n=2 v=100
1895332 On ch=4 n=0 v=100
1895370 Off ch=4 n=2 v=0
1895454 Off ch=4 n=0 v=0
1901746 On ch=4 n=39 v=100
1901827 Off ch=4 n=39 v=0
1908557 On ch=4 n=6 v=100
1908858 On ch=4 n=37 v=100
1908864 On ch=4 n=9 v=100
1908884 On ch=4 n=37 v=100
1908905 On ch=4 n=19 v=100
1908911 Off ch=4 n=6 v=0
1908951 On ch=4 n=6 v=100
1908956 Off ch=4 n=9 v=0
1908963 Off ch=4 n=37 v=0
1908985 Off ch=4 n=37 v=0
1909215 Off ch=4 n=19 v=0
1909215 Off ch=4 n=6 v=0
1911948 On ch=4 n=4 v=100
1912099 Off ch=4 n=4 v=0
1912268 On ch=4 n=11 v=100
1912420 Off ch=4 n=11 v=0
1926105 On ch=4 n=70 v=100
1926105 On ch=4 n=70 v=100
1926119 On ch=4 n=50 v=100
1926189 Off ch=4 n=50 v=0
1926309 Off ch=4 n=70 v=0
1926309 Off ch=4 n=70 v=0
1941779 On ch=4 n=6 v=100
1942369 Off ch=4 n=6 v=0
1942370 On ch=4 n=2 v=100
1946610 On ch=4 n=37 v=100
1946666 Off ch=4 n=2 v=0
1946668 On ch=4 n=6 v=100
1946717 Off ch=4 n=37 v=0
1947260 Off ch=4 n=6 v=0
1950832 On ch=4 n=9 v=100
1951648 Off ch=4 n=9 v=0
1957569 On ch=4 n=10 v=100
1958117 Off ch=4 n=10 v=0
1958119 On ch=4 n=2 v=100
1958988 On ch=4 n=14 v=100
1959010 Off ch=4 n=2 v=0
1959642 On ch=4 n=7 v=100
1959644 Off ch=4 n=14 v=0
1959697 On ch=4 n=14 v=100
1959735 On ch=4 n=8 v=100
1959740 Off ch=4 n=7 v=0
1959967 Off ch=4 n=14 v=0
1960182 Off ch=4 n=8 v=0
1960707 On ch=4 n=10 v=100
1961243 On ch=4 n=6 v=100
1961244 Off ch=4 n=10 v=0
1962153 On ch=4 n=23 v=100
1962188 Off ch=4 n=6 v=0
1962193 Off ch=4 n=23 v=0
1963259 On ch=4 n=3 v=100
1963410 Off ch=4 n=3 v=0
1963579 On ch=4 n=10 v=100
1963731 Off ch=4 n=10 v=0
1969879 On ch=4 n=10 v=100
1970015 On ch=4 n=3 v=100
1970028 Off ch=4 n=10 v=0
1971375 Off ch=4 n=3 v=0
1971380 On ch=4 n=3 v=100
1972388 On ch=4 n=29 v=100
1972422 On ch=4 n=12 v=100
1972480 Off ch=4 n=3 v=0
1972496 Off ch=4 n=12 v=0
1972504 Off ch=4 n=29 v=0
1972960 On ch=4 n=13 v=100
1974001 Off ch=4 n=13 v=0
1974333 On ch=4 n=10 v=100
1974823 Off ch=4 n=10 v=0
1982811 On ch=4 n=17 v=100
1982980 Off ch=4 n=17 v=0
1985431 On ch=4 n=4 v=100
1986324 Off ch=4 n=4 v=0
1989966 On ch=4 n=9 v=100
1990109 Off ch=4 n=9 v=0
1998103 On ch=4 n=18 v=100
1998104 On ch=4 n=24 v=100
1998229 Off ch=4 n=18 v=0
1998250 Off ch=4 n=24 v=0
1998519 On ch=4 n=37 v=100
1998556 On ch=4 n=24 v=100
1998614 Off ch=4 n=37 v=0
1998842 Off ch=4 n=24 v=0
1998926 On ch=4 n=7 v=100
1999118 Off ch=4 n=7 v=0
1999271 On ch=4 n=4 v=100
1999735 Off ch=4 n=4 v=0
2023053 On ch=4 n=3 v=100
2023420 Off ch=4 n=3 v=0
2023848 On ch=4 n=3 v=100
2025519 Off ch=4 n=3 v=0
2025521 On ch=4 n=21 v=100
2025689 Off ch=4 n=21 v=0
2025693 On ch=4 n=4 v=100
2030069 Off ch=4 n=4 v=0
2030071 On ch=4 n=21 v=100
2030240 Off ch=4 n=21 v=0
2030244 On ch=4 n=12 v=100
2030277 On ch=4 n=7 v=100
2030297 Off ch=4 n=12 v=0
2030479 Off ch=4 n=7 v=0
2036612 On ch=4 n=1 v=100
2037635 Off ch=4 n=1 v=0
2037637 On ch=4 n=4 v=100
2038303 Off ch=4 n=4 v=0
2038308 On ch=4 n=8 v=100
2039262 Off ch=4 n=8 v=0
2042619 On ch=4 n=36 v=100
2042619 On ch=4 n=36 v=100
2042714 Off ch=4 n=36 v=0
2042714 Off ch=4 n=36 v=0
2042773 On ch=4 n=34 v=100
2042773 On ch=4 n=34 v=100
2042875 Off ch=4 n=34 v=0
2042875 Off ch=4 n=34 v=0
2042938 On ch=4 n=33 v=100
2043029 Off ch=4 n=33 v=0
2057296 On ch=4 n=68 v=100
2057479 Off ch=4 n=68 v=0
2059354 On ch=4 n=65 v=100
2059541 Off ch=4 n=65 v=0
2060396 On ch=4 n=32 v=100
2060588 Off ch=4 n=32 v=0
2081488 On ch=4 n=16 v=100
2081649 Off ch=4 n=16 v=0
2082176 On ch=4 n=17 v=100
2082363 Off ch=4 n=17 v=0
2085898 On ch=4 n=24 v=100
2086101 Off ch=4 n=24 v=0
2088255 On ch=4 n=11 v=100
2088354 Off ch=4 n=11 v=0
2088900 On ch=4 n=7 v=100
2090661 Off ch=4 n=7 v=0
2090679 On ch=4 n=16 v=100
2092344 Off ch=4 n=16 v=0
2092345 On ch=4 n=2 v=100
2094165 Off ch=4 n=2 v=0
2095168 On ch=4 n=8 v=100
2095739 Off ch=4 n=8 v=0
2096617 On ch=4 n=4 v=100
2096869 Off ch=4 n=4 v=0
2096871 On ch=4 n=7 v=100
2097613 Off ch=4 n=7 v=0
2098354 On ch=4 n=7 v=100
2098685 Off ch=4 n=7 v=0
2099357 On ch=4 n=32 v=100
2099412 On ch=4 n=29 v=100
2099603 On ch=4 n=27 v=100
2099708 Off ch=4 n=32 v=0
2100318 Off ch=4 n=29 v=0
2100318 Off ch=4 n=27 v=0
2100320 On ch=4 n=14 v=100
2100431 Off ch=4 n=14 v=0
2100441 On ch=4 n=7 v=100
2100510 On ch=4 n=2 v=100
2100510 Off ch=4 n=7 v=0
2100765 Off ch=4 n=2 v=0
2100908 On ch=4 n=9 v=100
2101480 Off ch=4 n=9 v=0
2107763 On ch=4 n=2 v=100
2109251 Off ch=4 n=2 v=0
2121069 On ch=4 n=50 v=100
2121215 Off ch=4 n=50 v=0
2125957 On ch=4 n=2 v=100
2126160 Off ch=4 n=2 v=0
2127170 On ch=4 n=69 v=100
2127345 Off ch=4 n=69 v=0
2129672 On ch=4 n=9 v=100
2129808 Off ch=4 n=9 v=0
2134422 On ch=4 n=8 v=100
2134562 Off ch=4 n=8 v=0
2145470 On ch=4 n=20 v=100
2145606 Off ch=4 n=20 v=0
2145611 On ch=4 n=25 v=100
2146798 Off ch=4 n=25 v=0
2150273 On ch=4 n=17 v=100
2150324 Off ch=4 n=17 v=0
2153012 On ch=4 n=27 v=100
2153068 Off ch=4 n=27 v=0
2167306 On ch=4 n=32 v=100
2167371 Off ch=4 n=32 v=0
2167611 On ch=4 n=33 v=100
2167690 Off ch=4 n=33 v=0
2167756 On ch=4 n=40 v=100
2167756 On ch=4 n=40 v=100
2167849 Off ch=4 n=40 v=0
2167849 Off ch=4 n=40 v=0
2167914 On ch=4 n=28 v=100
2167994 Off ch=4 n=28 v=0
2168227 On ch=4 n=31 v=100
2168311 Off ch=4 n=31 v=0
2168392 On ch=4 n=31 v=100
2168484 Off ch=4 n=31 v=0
2168546 On ch=4 n=38 v=100
2168641 Off ch=4 n=38 v=0
2168707 On ch=4 n=33 v=100
2168785 Off ch=4 n=33 v=0
2168859 On ch=4 n=33 v=100
2168937 Off ch=4 n=33 v=0
2169016 On ch=4 n=43 v=100
2169110 Off ch=4 n=43 v=0
2169178 On ch=4 n=31 v=100
2169252 Off ch=4 n=31 v=0
2169341 On ch=4 n=31 v=100
2169428 Off ch=4 n=31 v=0
2169488 On ch=4 n=32 v=100
2169586 Off ch=4 n=32 v=0
2169973 On ch=4 n=40 v=100
2170060 Off ch=4 n=40 v=0
2170282 On ch=4 n=28 v=100
2170366 Off ch=4 n=28 v=0
2170449 On ch=4 n=30 v=100
2170524 Off ch=4 n=30 v=0
2170600 On ch=4 n=45 v=100
2170600 On ch=4 n=45 v=100
2170697 Off ch=4 n=45 v=0
2170697 Off ch=4 n=45 v=0
2170758 On ch=4 n=33 v=100
2170843 Off ch=4 n=33 v=0
2170923 On ch=4 n=45 v=100
2170987 Off ch=4 n=45 v=0
2171035 On ch=4 n=44 v=100
2171164 Off ch=4 n=44 v=0
2172297 On ch=4 n=13 v=100
2172850 Off ch=4 n=13 v=0
2178665 On ch=4 n=4 v=100
2178920 On ch=4 n=18 v=100
2178974 Off ch=4 n=4 v=0
2179146 Off ch=4 n=18 v=0
2180143 On ch=4 n=13 v=100
2180654 Off ch=4 n=13 v=0
2181541 On ch=4 n=13 v=100
2182183 Off ch=4 n=13 v=0
2184634 On ch=4 n=13 v=100
2184826 Off ch=4 n=13 v=0
2187609 On ch=4 n=2 v=100
2188394 Off ch=4 n=2 v=0
2188400 On ch=4 n=0 v=100
2188695 Off ch=4 n=0 v=0
2188697 On ch=4 n=2 v=100
2191496 Off ch=4 n=2 v=0
2191529 On ch=4 n=6 v=100
2193257 Off ch=4 n=6 v=0
2196616 On ch=4 n=3 v=100
2197997 Off ch=4 n=3 v=0
2208093 On ch=4 n=14 v=100
2208283 Off ch=4 n=14 v=0
2208515 On ch=4 n=14 v=100
2208698 Off ch=4 n=14 v=0
2211834 On ch=4 n=9 v=100
2212236 On ch=4 n=4 v=100
2212837 Off ch=4 n=9 v=0
2221572 Off ch=4 n=4 v=0
2221574 On ch=4 n=9 v=100
2222577 Off ch=4 n=9 v=0
2235330 On ch=4 n=8 v=100
2236153 Off ch=4 n=8 v=0
2242024 On ch=4 n=10 v=100
2242552 Off ch=4 n=10 v=0
2246000 On ch=4 n=36 v=100
2246152 Off ch=4 n=36 v=0
2246203 On ch=4 n=36 v=100
2246245 Off ch=4 n=36 v=0
2283235 On ch=4 n=0 v=100
2283383 Off ch=4 n=0 v=0
2283385 On ch=4 n=0 v=100
2287004 Off ch=4 n=0 v=0
2287006 On ch=4 n=4 v=100
2287154 Off ch=4 n=4 v=0
2291550 On ch=4 n=3 v=100
2291895 Off ch=4 n=3 v=0
2294090 On ch=4 n=54 v=100
2294112 Off ch=4 n=54 v=0
2294376 On ch=4 n=54 v=100
2294394 Off ch=4 n=54 v=0
2296808 On ch=4 n=3 v=100
2297228 Off ch=4 n=3 v=0
2299657 On ch=4 n=6 v=100
2300048 Off ch=4 n=6 v=0
2304851 On ch=4 n=19 v=100
2304852 On ch=4 n=26 v=100
2304977 Off ch=4 n=19 v=0
2305003 Off ch=4 n=26 v=0
2305266 On ch=4 n=36 v=100
2305310 On ch=4 n=19 v=100
2305359 Off ch=4 n=36 v=0
2305617 On ch=4 n=37 v=100
2305617 On ch=4 n=6 v=100
2305735 Off ch=4 n=19 v=0
2305751 Off ch=4 n=6 v=0
2305804 Off ch=4 n=37 v=0
2306042 On ch=4 n=8 v=100
2306235 Off ch=4 n=8 v=0
2323262 On ch=4 n=11 v=100
2323840 Off ch=4 n=11 v=0
2329428 On ch=4 n=68 v=100
2329638 Off ch=4 n=68 v=0
2339007 On ch=4 n=2 v=100
2339379 Off ch=4 n=2 v=0
2339381 On ch=4 n=0 v=100
2346330 Off ch=4 n=0 v=0
2346332 On ch=4 n=2 v=100
2346704 Off ch=4 n=2 v=0
2354282 On ch=4 n=17 v=100
2354460 Off ch=4 n=17 v=0
2363064 On ch=4 n=13 v=100
2363225 Off ch=4 n=13 v=0
2366573 On ch=4 n=2 v=100
2366890 Off ch=4 n=2 v=0
2367504 On ch=4 n=21 v=100
2367819 Off ch=4 n=21 v=0
2377497 On ch=4 n=31 v=100
2377582 Off ch=4 n=31 v=0
2378848 On ch=4 n=4 v=100
2379066 Off ch=4 n=4 v=0
2386898 On ch=4 n=15 v=100
2386947 Off ch=4 n=15 v=0
2389638 On ch=4 n=24 v=100
2389722 Off ch=4 n=24 v=0
2391175 On ch=4 n=3 v=100
2391858 Off ch=4 n=3 v=0
2392283 On ch=4 n=62 v=100
2392283 On ch=4 n=62 v=100
2392303 On ch=4 n=57 v=100
2392303 On ch=4 n=57 v=100
2392409 Off ch=4 n=62 v=0
2392409 Off ch=4 n=62 v=0
2392485 Off ch=4 n=57 v=0
2392485 Off ch=4 n=57 v=0
2393315 On ch=4 n=62 v=100
2393315 On ch=4 n=62 v=100
2393331 On ch=4 n=56 v=100
2393331 On ch=4 n=56 v=100
2393442 Off ch=4 n=62 v=0
2393442 Off ch=4 n=62 v=0
2393517 Off ch=4 n=56 v=0
2393517 Off ch=4 n=56 v=0
2395278 On ch=4 n=8 v=100
2395375 On ch=4 n=1 v=100
2395378 Off ch=4 n=8 v=0
2395702 Off ch=4 n=1 v=0
2403784 On ch=4 n=14 v=100
2404161 Off ch=4 n=14 v=0
2411927 On ch=4 n=0 v=100
2412352 On ch=4 n=1 v=100
2412383 Off ch=4 n=0 v=0
2416676 Off ch=4 n=1 v=0
2416678 On ch=4 n=0 v=100
2417134 Off ch=4 n=0 v=0
2419646 On ch=4 n=14 v=100
2419961 On ch=4 n=31 v=100
2420035 Off ch=4 n=14 v=0
2420037 On ch=4 n=5 v=100
2420081 Off ch=4 n=31 v=0
2424354 Off ch=4 n=5 v=0
2424356 On ch=4 n=14 v=100
2424749 Off ch=4 n=14 v=0
2425593 On ch=4 n=59 v=100
2425694 Off ch=4 n=59 v=0
2432335 On ch=4 n=14 v=100
2432480 Off ch=4 n=14 v=0
2442113 On ch=4 n=17 v=100
2442462 Off ch=4 n=17 v=0
2446205 On ch=4 n=17 v=100
2446903 Off ch=4 n=17 v=0
2448384 On ch=4 n=11 v=100
2448550 Off ch=4 n=11 v=0
2448840 On ch=4 n=10 v=100
2448862 On ch=4 n=17 v=100
2448958 Off ch=4 n=10 v=0
2449247 Off ch=4 n=17 v=0
2454306 On ch=4 n=18 v=100
2454473 Off ch=4 n=18 v=0
2456636 On ch=4 n=10 v=100
2456776 Off ch=4 n=10 v=0
2474702 On ch=4 n=2 v=100
2475444 Off ch=4 n=2 v=0
2488879 On ch=4 n=4 v=100
2489603 On ch=4 n=5 v=100
2489603 Off ch=4 n=4 v=0
2490382 Off ch=4 n=5 v=0
2490383 On ch=4 n=3 v=100
2494409 On ch=4 n=17 v=100
2494480 Off ch=4 n=3 v=0
2494495 Off ch=4 n=17 v=0
2497896 On ch=4 n=4 v=100
2498417 Off ch=4 n=4 v=0
2498422 On ch=4 n=5 v=100
2502715 Off ch=4 n=5 v=0
2502717 On ch=4 n=4 v=100
2503238 Off ch=4 n=4 v=0
2504663 On ch=4 n=47 v=100
2504905 Off ch=4 n=47 v=0
2509506 On ch=4 n=10 v=100
2509977 Off ch=4 n=10 v=0
2509982 On ch=4 n=9 v=100
2511485 Off ch=4 n=9 v=0
2511487 On ch=4 n=10 v=100
2511962 Off ch=4 n=10 v=0
2519990 On ch=4 n=24 v=100
2520254 Off ch=4 n=24 v=0
2520259 On ch=4 n=11 v=100
2520286 On ch=4 n=17 v=100
2520304 Off ch=4 n=11 v=0
2520767 On ch=4 n=14 v=100
2521263 On ch=4 n=49 v=100
2521302 Off ch=4 n=17 v=0
2521368 On ch=4 n=12 v=100
2521371 Off ch=4 n=14 v=0
2521467 Off ch=4 n=12 v=0
2521503 Off ch=4 n=49 v=0
2523064 On ch=4 n=18 v=100
2523074 On ch=4 n=19 v=100
2523144 Off ch=4 n=18 v=0
2523308 On ch=4 n=30 v=100
2523393 Off ch=4 n=19 v=0
2523396 On ch=4 n=22 v=100
2523397 On ch=4 n=7 v=100
2523451 Off ch=4 n=30 v=0
2523451 Off ch=4 n=7 v=0
2523469 Off ch=4 n=22 v=0
2533257 On ch=4 n=10 v=100
2533388 On ch=4 n=43 v=100
2533395 Off ch=4 n=10 v=0
2533400 On ch=4 n=49 v=100
2533401 On ch=4 n=14 v=100
2533444 Off ch=4 n=43 v=0
2533956 Off ch=4 n=14 v=0
2533959 On ch=4 n=18 v=100
2534693 Off ch=4 n=18 v=0
2534722 Off ch=4 n=49 v=0
2535296 On ch=4 n=3 v=100
2535322 Off ch=4 n=3 v=0
2535885 On ch=4 n=18 v=100
2536549 Off ch=4 n=18 v=0
2537464 On ch=4 n=18 v=100
2537797 Off ch=4 n=18 v=0
2540970 On ch=4 n=4 v=100
2541217 Off ch=4 n=4 v=0
2544315 On ch=4 n=14 v=100
2544474 Off ch=4 n=14 v=0
2550672 On ch=4 n=16 v=100
2550834 Off ch=4 n=16 v=0
2553450 On ch=4 n=3 v=100
2554231 Off ch=4 n=3 v=0
2554233 On ch=4 n=6 v=100
2554384 Off ch=4 n=6 v=0
2555812 On ch=4 n=5 v=100
2555923 Off ch=4 n=5 v=0
2557690 On ch=4 n=2 v=100
2558091 Off ch=4 n=2 v=0
2569873 On ch=4 n=8 v=100
2571323 Off ch=4 n=8 v=0
2574726 On ch=4 n=5 v=100
2575423 On ch=4 n=4 v=100
2575470 Off ch=4 n=5 v=0
2576025 Off ch=4 n=4 v=0
2580021 On ch=4 n=29 v=100
2580456 Off ch=4 n=29 v=0
2580520 On ch=4 n=24 v=100
2580870 Off ch=4 n=24 v=0
2606498 On ch=4 n=18 v=100
2606526 On ch=4 n=11 v=100
2606534 On ch=4 n=2 v=100
2606591 Off ch=4 n=18 v=0
2606592 Off ch=4 n=11 v=0
2612582 Off ch=4 n=2 v=0
2634637 On ch=4 n=21 v=100
2634796 Off ch=4 n=21 v=0
2635340 On ch=4 n=11 v=100
2635515 Off ch=4 n=11 v=0
2637880 On ch=4 n=9 v=100
2637991 Off ch=4 n=9 v=0
2643195 On ch=4 n=5 v=100
2643543 On ch=4 n=17 v=100
2644068 Off ch=4 n=5 v=0
2644070 On ch=4 n=2 v=100
2644571 Off ch=4 n=17 v=0
2648531 Off ch=4 n=2 v=0
2648533 On ch=4 n=12 v=100
2648807 On ch=4 n=42 v=100
2648915 On ch=4 n=4 v=100
2648916 Off ch=4 n=12 v=0
2648939 Off ch=4 n=42 v=0
2649326 On ch=4 n=7 v=100
2649838 Off ch=4 n=4 v=0
2650030 Off ch=4 n=7 v=0
2650035 On ch=4 n=6 v=100
2650910 Off ch=4 n=6 v=0
2652158 On ch=4 n=13 v=100
2652296 Off ch=4 n=13 v=0
2652641 On ch=4 n=9 v=100
2652894 Off ch=4 n=9 v=0
2653612 On ch=4 n=29 v=100
2653763 Off ch=4 n=29 v=0
2653790 On ch=4 n=29 v=100
2653791 On ch=4 n=28 v=100
2654494 Off ch=4 n=29 v=0
2654494 Off ch=4 n=28 v=0
2654497 On ch=4 n=8 v=100
2655253 Off ch=4 n=8 v=0
2657613 On ch=4 n=12 v=100
2658060 Off ch=4 n=12 v=0
2658344 On ch=4 n=16 v=100
2658475 On ch=4 n=13 v=100
2658476 Off ch=4 n=16 v=0
2658739 Off ch=4 n=13 v=0
2666081 On ch=4 n=19 v=100
2666311 Off ch=4 n=19 v=0
2671160 On ch=4 n=0 v=100
2671320 Off ch=4 n=0 v=0
2671322 On ch=4 n=1 v=100
2675264 On ch=4 n=12 v=100
2675278 Off ch=4 n=1 v=0
2675325 Off ch=4 n=12 v=0
2676353 On ch=4 n=2 v=100
2682329 On ch=4 n=12 v=100
2682387 Off ch=4 n=2 v=0
2682406 Off ch=4 n=12 v=0
2683391 On ch=4 n=16 v=100
2683769 Off ch=4 n=16 v=0
2695167 On ch=4 n=15 v=100
2695330 Off ch=4 n=15 v=0
2698299 On ch=4 n=8 v=100
2699040 Off ch=4 n=8 v=0
2701773 On ch=4 n=11 v=100
2701831 Off ch=4 n=11 v=0
2702446 On ch=4 n=17 v=100
2702614 Off ch=4 n=17 v=0
2709032 On ch=4 n=11 v=100
2709069 Off ch=4 n=11 v=0
2709541 On ch=4 n=23 v=100
2709764 Off ch=4 n=23 v=0
2709779 On ch=4 n=32 v=100
2710181 Off ch=4 n=32 v=0
2710463 On ch=4 n=48 v=100
2710710 Off ch=4 n=48 v=0
2710998 On ch=4 n=23 v=100
2711207 Off ch=4 n=23 v=0
2714897 On ch=4 n=14 v=100
2715048 Off ch=4 n=14 v=0
2718150 On ch=4 n=60 v=100
2718522 On ch=4 n=45 v=100
2718711 Off ch=4 n=45 v=0
2718715 Off ch=4 n=60 v=0
2718758 On ch=4 n=54 v=100
2719390 Off ch=4 n=54 v=0
2719392 On ch=4 n=36 v=100
2719500 Off ch=4 n=36 v=0
2720601 On ch=4 n=14 v=100
2721029 Off ch=4 n=14 v=0
2721588 On ch=4 n=35 v=100
2721658 On ch=4 n=4 v=100
2721661 Off ch=4 n=35 v=0
2722233 Off ch=4 n=4 v=0
2722234 On ch=4 n=26 v=100
2722902 Off ch=4 n=26 v=0
2723568 On ch=4 n=30 v=100
2723658 Off ch=4 n=30 v=0
2726105 On ch=4 n=11 v=100
2726452 Off ch=4 n=11 v=0
2733500 On ch=4 n=3 v=100
2738289 On ch=4 n=6 v=100
2738800 Off ch=4 n=3 v=0
2738994 Off ch=4 n=6 v=0
2738999 On ch=4 n=6 v=100
2739868 Off ch=4 n=6 v=0
2739869 On ch=4 n=20 v=100
2740084 Off ch=4 n=20 v=0
2751405 On ch=4 n=21 v=100
2751425 On ch=4 n=22 v=100
2751592 Off ch=4 n=21 v=0
2751835 On ch=4 n=44 v=100
2752078 On ch=4 n=20 v=100
2752078 Off ch=4 n=22 v=0
2752302 On ch=4 n=30 v=100
2752344 On ch=4 n=19 v=100
2752517 Off ch=4 n=20 v=0
2752557 Off ch=4 n=44 v=0
2752640 Off ch=4 n=30 v=0
2752814 On ch=4 n=16 v=100
2752915 Off ch=4 n=19 v=0
2754209 On ch=4 n=22 v=100
2754219 Off ch=4 n=16 v=0
2754255 Off ch=4 n=22 v=0
2754293 On ch=4 n=22 v=100
2754487 Off ch=4 n=22 v=0
2771924 On ch=4 n=3 v=100
2772088 On ch=4 n=26 v=100
2772249 Off ch=4 n=3 v=0
2772348 Off ch=4 n=26 v=0
2778975 On ch=4 n=5 v=100
2779268 Off ch=4 n=5 v=0
2784893 On ch=4 n=37 v=100
2785245 Off ch=4 n=37 v=0
2785917 On ch=4 n=2 v=100
2792047 Off ch=4 n=2 v=0
2798918 On ch=4 n=40 v=100
2799130 Off ch=4 n=40 v=0
2799517 On ch=4 n=4 v=100
2799904 Off ch=4 n=4 v=0
2808521 On ch=4 n=16 v=100
2808691 Off ch=4 n=16 v=0
2820234 On ch=4 n=7 v=100
2820413 Off ch=4 n=7 v=0
2830167 On ch=4 n=28 v=100
2830366 Off ch=4 n=28 v=0
2833148 On ch=4 n=6 v=100
2834154 Off ch=4 n=6 v=0
2836722 On ch=4 n=30 v=100
2836729 On ch=4 n=12 v=100
2836781 Off ch=4 n=30 v=0
2836781 Off ch=4 n=12 v=0
2845329 On ch=4 n=15 v=100
2845803 On ch=4 n=19 v=100
2846314 Off ch=4 n=15 v=0
2846733 Off ch=4 n=19 v=0
2852776 On ch=4 n=3 v=100
2852966 Off ch=4 n=3 v=0
2852970 On ch=4 n=21 v=100
2853500 Off ch=4 n=21 v=0
2867474 On ch=4 n=24 v=100
2867747 Off ch=4 n=24 v=0
2868323 On ch=4 n=18 v=100
2868484 Off ch=4 n=18 v=0
2869129 On ch=4 n=30 v=100
2869353 Off ch=4 n=30 v=0
2880283 On ch=4 n=4 v=100
2880862 Off ch=4 n=4 v=0
2881375 On ch=4 n=51 v=100
2884006 Off ch=4 n=51 v=0
2886696 On ch=4 n=54 v=100
2887120 On ch=4 n=49 v=100
2887699 Off ch=4 n=54 v=0
2887704 Off ch=4 n=49 v=0
2887917 On ch=4 n=26 v=100
2888393 Off ch=4 n=26 v=0
2891234 On ch=4 n=7 v=100
2891746 Off ch=4 n=7 v=0
2891859 On ch=4 n=10 v=100
2891909 Off ch=4 n=10 v=0
2909265 On ch=4 n=50 v=100
2909398 Off ch=4 n=50 v=0
2915839 On ch=4 n=15 v=100
2915990 Off ch=4 n=15 v=0
2936276 On ch=4 n=3 v=100
2942229 On ch=4 n=40 v=100
2942279 Off ch=4 n=3 v=0
2942324 Off ch=4 n=40 v=0
2950103 On ch=4 n=9 v=100
2950326 Off ch=4 n=9 v=0
2950343 On ch=4 n=2 v=100
2951740 Off ch=4 n=2 v=0
2959053 On ch=4 n=3 v=100
2962224 Off ch=4 n=3 v=0
2965143 On ch=4 n=8 v=100
2965362 On ch=4 n=9 v=100
2966777 Off ch=4 n=8 v=0
2966778 On ch=4 n=7 v=100
2966778 Off ch=4 n=9 v=0
2967064 On ch=4 n=5 v=100
2967064 Off ch=4 n=7 v=0
2967190 Off ch=4 n=5 v=0
2967196 On ch=4 n=10 v=100
2968825 Off ch=4 n=10 v=0
2969061 On ch=4 n=8 v=100
2969197 Off ch=4 n=8 v=0
2970168 On ch=4 n=40 v=100
2970388 Off ch=4 n=40 v=0
2970418 On ch=4 n=40 v=100
2970436 On ch=4 n=43 v=100
2970584 Off ch=4 n=40 v=0
2970614 Off ch=4 n=43 v=0
2979767 On ch=4 n=6 v=100
2980576 On ch=4 n=5 v=100
2980578 Off ch=4 n=6 v=0
2980902 Off ch=4 n=5 v=0
2980910 On ch=4 n=5 v=100
2982166 On ch=4 n=21 v=100
2983812 On ch=4 n=9 v=100
2983812 Off ch=4 n=5 v=0
2984545 Off ch=4 n=21 v=0
2984972 Off ch=4 n=9 v=0
2989456 On ch=4 n=31 v=100
2989499 On ch=4 n=18 v=100
2989537 On ch=4 n=38 v=100
2989570 Off ch=4 n=31 v=0
2989571 Off ch=4 n=18 v=0
2989714 Off ch=4 n=38 v=0
2992054 On ch=4 n=1 v=100
2992412 Off ch=4 n=1 v=0
3003523 On ch=4 n=49 v=100
3003705 Off ch=4 n=49 v=0
3004422 On ch=4 n=3 v=100
3004945 Off ch=4 n=3 v=0
3014111 On ch=4 n=12 v=100
3014335 Off ch=4 n=12 v=0
3038942 On ch=4 n=17 v=100
3039102 Off ch=4 n=17 v=0
3041368 On ch=4 n=9 v=100
3042739 Off ch=4 n=9 v=0
3053424 On ch=4 n=12 v=100
3053648 Off ch=4 n=12 v=0
3066924 On ch=4 n=53 v=100
3066924 On ch=4 n=53 v=100
3067056 Off ch=4 n=53 v=0
3067056 Off ch=4 n=53 v=0
3072247 On ch=4 n=5 v=100
3072860 Off ch=4 n=5 v=0
3074185 On ch=4 n=10 v=100
3074339 Off ch=4 n=10 v=0
3074341 On ch=4 n=1 v=100
3076029 On ch=4 n=1 v=100
3078026 Off ch=4 n=1 v=0
3079298 On ch=4 n=11 v=100
3079314 Off ch=4 n=1 v=0
3079316 On ch=4 n=5 v=100
3079324 Off ch=4 n=11 v=0
3079597 Off ch=4 n=5 v=0
3079599 On ch=4 n=2 v=100
3079684 On ch=4 n=1 v=100
3079684 Off ch=4 n=2 v=0
3083655 Off ch=4 n=1 v=0
3083657 On ch=4 n=4 v=100
3084363 Off ch=4 n=4 v=0
3086324 On ch=4 n=11 v=100
3086476 Off ch=4 n=11 v=0
3086646 On ch=4 n=4 v=100
3086796 Off ch=4 n=4 v=0
3090796 On ch=4 n=0 v=100
3090837 On ch=4 n=10 v=100
3090839 Off ch=4 n=0 v=0
3090915 Off ch=4 n=10 v=0
3090917 On ch=4 n=13 v=100
3091416 Off ch=4 n=13 v=0
3092915 On ch=4 n=17 v=100
3092965 Off ch=4 n=17 v=0
3095658 On ch=4 n=15 v=100
3095707 Off ch=4 n=15 v=0
3097536 On ch=4 n=15 v=100
3097585 Off ch=4 n=15 v=0
3099415 On ch=4 n=15 v=100
3099464 Off ch=4 n=15 v=0
3104035 On ch=4 n=17 v=100
3104085 Off ch=4 n=17 v=0
3105915 On ch=4 n=15 v=100
3105964 Off ch=4 n=15 v=0
3107498 On ch=4 n=35 v=100
3107560 On ch=4 n=21 v=100
3107758 Off ch=4 n=35 v=0
3107758 Off ch=4 n=21 v=0
3109961 On ch=4 n=25 v=100
3111166 Off ch=4 n=25 v=0
3111171 On ch=4 n=19 v=100
3111307 Off ch=4 n=19 v=0
3116897 On ch=4 n=18 v=100
3117058 Off ch=4 n=18 v=0
3121743 On ch=4 n=11 v=100
3121895 Off ch=4 n=11 v=0
3141091 On ch=4 n=40 v=100
3141137 On ch=4 n=35 v=100
3141214 Off ch=4 n=40 v=0
3141251 Off ch=4 n=35 v=0
3148082 On ch=4 n=12 v=100
3148242 Off ch=4 n=12 v=0
3148377 On ch=4 n=12 v=100
3148539 On ch=4 n=25 v=100
3148598 Off ch=4 n=12 v=0
3148615 Off ch=4 n=25 v=0
3176061 On ch=4 n=5 v=100
3176656 Off ch=4 n=5 v=0
3176661 On ch=4 n=3 v=100
3183089 Off ch=4 n=3 v=0
3185479 On ch=4 n=3 v=100
3185898 Off ch=4 n=3 v=0
3186573 On ch=4 n=4 v=100
3187210 Off ch=4 n=4 v=0
3188982 On ch=4 n=13 v=100
3189128 Off ch=4 n=13 v=0
3193236 On ch=4 n=11 v=100
3197016 Off ch=4 n=11 v=0
3198750 On ch=4 n=32 v=100
3199000 On ch=4 n=14 v=100
3199415 Off ch=4 n=32 v=0
3200820 Off ch=4 n=14 v=0
3202453 On ch=4 n=16 v=100
3202660 Off ch=4 n=16 v=0
3204683 On ch=4 n=7 v=100
3205512 Off ch=4 n=7 v=0
3208144 On ch=4 n=3 v=100
3211393 Off ch=4 n=3 v=0
3211397 On ch=4 n=3 v=100
3211753 Off ch=4 n=3 v=0
3215057 On ch=4 n=5 v=100
3215375 Off ch=4 n=5 v=0
3215799 On ch=4 n=62 v=100
3215799 On ch=4 n=62 v=100
3216003 Off ch=4 n=62 v=0
3216003 Off ch=4 n=62 v=0
3216846 On ch=4 n=66 v=100
3217028 Off ch=4 n=66 v=0
3217541 On ch=4 n=66 v=100
3217723 Off ch=4 n=66 v=0
3218235 On ch=4 n=74 v=100
3218418 Off ch=4 n=74 v=0
3219252 On ch=4 n=64 v=100
3219252 On ch=4 n=64 v=100
3219450 Off ch=4 n=64 v=0
3219450 Off ch=4 n=64 v=0
3221181 On ch=4 n=3 v=100
3221379 Off ch=4 n=3 v=0
3252820 On ch=4 n=12 v=100
3252961 Off ch=4 n=12 v=0
3260719 On ch=4 n=12 v=100
3260732 On ch=4 n=4 v=100
3260800 Off ch=4 n=12 v=0
3262437 Off ch=4 n=4 v=0
3262443 On ch=4 n=3 v=100
3264334 Off ch=4 n=3 v=0
3264346 On ch=4 n=4 v=100
3265744 Off ch=4 n=4 v=0
3265761 On ch=4 n=17 v=100
3266589 Off ch=4 n=17 v=0
3275762 On ch=4 n=1 v=100
3277467 Off ch=4 n=1 v=0
3278101 On ch=4 n=1 v=100
3282139 Off ch=4 n=1 v=0
3282142 On ch=4 n=1 v=100
3282653 Off ch=4 n=1 v=0
3295395 On ch=4 n=12 v=100
3295550 Off ch=4 n=12 v=0
3300126 On ch=4 n=9 v=100
3300282 Off ch=4 n=9 v=0
3301790 On ch=4 n=32 v=100
3301907 Off ch=4 n=32 v=0
3302491 On ch=4 n=1 v=100
3302666 Off ch=4 n=1 v=0
3302668 On ch=4 n=0 v=100
3306882 Off ch=4 n=0 v=0
3306884 On ch=4 n=0 v=100
3307059 Off ch=4 n=0 v=0
3314072 On ch=4 n=4 v=100
3314686 Off ch=4 n=4 v=0
3314692 On ch=4 n=5 v=100
3316612 Off ch=4 n=5 v=0
3319222 On ch=4 n=3 v=100
3319620 Off ch=4 n=3 v=0
3331707 On ch=4 n=8 v=100
3333489 Off ch=4 n=8 v=0
3346391 On ch=4 n=39 v=100
3346407 On ch=4 n=13 v=100
3346414 On ch=4 n=9 v=100
3346468 Off ch=4 n=13 v=0
3346474 Off ch=4 n=39 v=0
3346481 Off ch=4 n=9 v=0
3349967 On ch=4 n=22 v=100
3349991 On ch=4 n=25 v=100
3350104 Off ch=4 n=25 v=0
3350119 Off ch=4 n=22 v=0
3350815 On ch=4 n=17 v=100
3351383 Off ch=4 n=17 v=0
3354955 On ch=4 n=14 v=100
3355098 Off ch=4 n=14 v=0
3359072 On ch=4 n=13 v=100
3359213 Off ch=4 n=13 v=0
3367242 On ch=4 n=18 v=100
3367591 Off ch=4 n=18 v=0
3376110 On ch=4 n=25 v=100
3376122 On ch=4 n=11 v=100
3376221 Off ch=4 n=25 v=0
3376223 On ch=4 n=9 v=100
3376359 Off ch=4 n=11 v=0
3376750 Off ch=4 n=9 v=0
3379745 On ch=4 n=2 v=100
3379764 Off ch=4 n=2 v=0
3379855 On ch=4 n=2 v=100
3380778 On ch=4 n=4 v=100
3380779 Off ch=4 n=2 v=0
3382877 On ch=4 n=37 v=100
3382916 Off ch=4 n=4 v=0
3382918 On ch=4 n=3 v=100
3382968 Off ch=4 n=37 v=0
3383139 Off ch=4 n=3 v=0
3387172 On ch=4 n=13 v=100
3387182 On ch=4 n=12 v=100
3387182 On ch=4 n=7 v=100
3387236 Off ch=4 n=7 v=0
3387238 Off ch=4 n=13 v=0
3387255 Off ch=4 n=12 v=0
3406650 On ch=4 n=36 v=100
3406867 Off ch=4 n=36 v=0
3412838 On ch=4 n=4 v=100
3413969 Off ch=4 n=4 v=0
3414678 On ch=4 n=12 v=100
3414791 Off ch=4 n=12 v=0
3414814 On ch=4 n=2 v=100
3415249 Off ch=4 n=2 v=0
3415290 On ch=4 n=2 v=100
3415816 Off ch=4 n=2 v=0
3415818 On ch=4 n=0 v=100
3420995 Off ch=4 n=0 v=0
3420997 On ch=4 n=2 v=100
3421997 Off ch=4 n=2 v=0
3422361 On ch=4 n=56 v=100
3422694 Off ch=4 n=56 v=0
3422908 On ch=4 n=42 v=100
3423175 On ch=4 n=2 v=100
3423182 Off ch=4 n=42 v=0
3423463 On ch=4 n=27 v=100
3423481 Off ch=4 n=2 v=0
3423610 Off ch=4 n=27 v=0
3423623 On ch=4 n=22 v=100
3423846 Off ch=4 n=22 v=0
3424316 On ch=4 n=11 v=100
3424353 Off ch=4 n=11 v=0
3431515 On ch=4 n=17 v=100
3431684 Off ch=4 n=17 v=0
3436080 On ch=4 n=40 v=100
3436263 Off ch=4 n=40 v=0
3439193 On ch=4 n=17 v=100
3439353 Off ch=4 n=17 v=0
3440840 On ch=4 n=35 v=100
3440880 On ch=4 n=9 v=100
3441093 Off ch=4 n=35 v=0
3441093 Off ch=4 n=9 v=0
3441117 On ch=4 n=31 v=100
3441339 Off ch=4 n=31 v=0
3443275 On ch=4 n=16 v=100
3443410 Off ch=4 n=16 v=0
3443558 On ch=4 n=16 v=100
3443788 Off ch=4 n=16 v=0
3443819 On ch=4 n=13 v=100
3444248 Off ch=4 n=13 v=0
3444251 On ch=4 n=5 v=100
3444306 Off ch=4 n=5 v=0
3444742 On ch=4 n=7 v=100
3445147 Off ch=4 n=7 v=0
3448317 On ch=4 n=8 v=100
3448567 Off ch=4 n=8 v=0
3450520 On ch=4 n=4 v=100
3451159 Off ch=4 n=4 v=0
3451417 On ch=4 n=64 v=100
3451538 Off ch=4 n=64 v=0
3458492 On ch=4 n=41 v=100
3458584 Off ch=4 n=41 v=0
3458806 On ch=4 n=33 v=100
3458806 On ch=4 n=33 v=100
3458940 Off ch=4 n=33 v=0
3458940 Off ch=4 n=33 v=0
3458970 On ch=4 n=28 v=100
3459047 Off ch=4 n=28 v=0
3459124 On ch=4 n=39 v=100
3459216 Off ch=4 n=39 v=0
3459455 On ch=4 n=26 v=100
3459540 Off ch=4 n=26 v=0
3459595 On ch=4 n=31 v=100
3459595 On ch=4 n=31 v=100
3459694 Off ch=4 n=31 v=0
3459694 Off ch=4 n=31 v=0
3459774 On ch=4 n=30 v=100
3459858 Off ch=4 n=30 v=0
3459919 On ch=4 n=31 v=100
3460006 Off ch=4 n=31 v=0
3460251 On ch=4 n=27 v=100
3460334 Off ch=4 n=27 v=0
3460409 On ch=4 n=28 v=100
3460485 Off ch=4 n=28 v=0
3460556 On ch=4 n=39 v=100
3460645 Off ch=4 n=39 v=0
3460713 On ch=4 n=35 v=100
3460801 Off ch=4 n=35 v=0
3460876 On ch=4 n=33 v=100
3461005 Off ch=4 n=33 v=0
3461210 On ch=4 n=35 v=100
3461300 Off ch=4 n=35 v=0
3461373 On ch=4 n=37 v=100
3461460 Off ch=4 n=37 v=0
3461542 On ch=4 n=34 v=100
3461629 Off ch=4 n=34 v=0
3461700 On ch=4 n=37 v=100
3461778 Off ch=4 n=37 v=0
3461845 On ch=4 n=32 v=100
3461941 Off ch=4 n=32 v=0
3462177 On ch=4 n=26 v=100
3462262 Off ch=4 n=26 v=0
3462338 On ch=4 n=26 v=100
3462414 Off ch=4 n=26 v=0
3462655 On ch=4 n=27 v=100
3462739 Off ch=4 n=27 v=0
3462800 On ch=4 n=23 v=100
3462880 Off ch=4 n=23 v=0
3462972 On ch=4 n=32 v=100
3463059 Off ch=4 n=32 v=0
3463131 On ch=4 n=35 v=100
3463217 Off ch=4 n=35 v=0
3463276 On ch=4 n=30 v=100
3463368 Off ch=4 n=30 v=0
3463592 On ch=4 n=35 v=100
3463681 Off ch=4 n=35 v=0
3463754 On ch=4 n=36 v=100
3463845 Off ch=4 n=36 v=0
3463911 On ch=4 n=36 v=100
3463911 On ch=4 n=36 v=100
3464007 Off ch=4 n=36 v=0
3464007 Off ch=4 n=36 v=0
3464084 On ch=4 n=37 v=100
3464168 Off ch=4 n=37 v=0
3464243 On ch=4 n=34 v=100
3464323 Off ch=4 n=34 v=0
3464409 On ch=4 n=25 v=100
3464483 Off ch=4 n=25 v=0
3464562 On ch=4 n=39 v=100
3464641 Off ch=4 n=39 v=0
3464860 On ch=4 n=48 v=100
3464950 Off ch=4 n=48 v=0
3465177 On ch=4 n=37 v=100
3465266 Off ch=4 n=37 v=0
3465348 On ch=4 n=34 v=100
3465426 Off ch=4 n=34 v=0
3465493 On ch=4 n=32 v=100
3465588 Off ch=4 n=32 v=0
3465807 On ch=4 n=27 v=100
3465906 Off ch=4 n=27 v=0
3465996 On ch=4 n=40 v=100
3466130 Off ch=4 n=40 v=0
3466143 On ch=4 n=37 v=100
3466227 Off ch=4 n=37 v=0
3466288 On ch=4 n=35 v=100
3466385 Off ch=4 n=35 v=0
3466445 On ch=4 n=37 v=100
3466445 On ch=4 n=37 v=100
3466538 Off ch=4 n=37 v=0
3466538 Off ch=4 n=37 v=0
3466778 On ch=4 n=35 v=100
3466863 Off ch=4 n=35 v=0
3466938 On ch=4 n=32 v=100
3467014 Off ch=4 n=32 v=0
3467255 On ch=4 n=27 v=100
3467329 Off ch=4 n=27 v=0
3467414 On ch=4 n=38 v=100
3467497 Off ch=4 n=38 v=0
3467559 On ch=4 n=33 v=100
3467650 Off ch=4 n=33 v=0
3467739 On ch=4 n=30 v=100
3467807 Off ch=4 n=30 v=0
3468036 On ch=4 n=42 v=100
3468036 On ch=4 n=42 v=100
3468129 Off ch=4 n=42 v=0
3468129 Off ch=4 n=42 v=0
3468209 On ch=4 n=28 v=100
3468284 Off ch=4 n=28 v=0
3468678 On ch=4 n=43 v=100
3468768 Off ch=4 n=43 v=0
3468835 On ch=4 n=40 v=100
3468926 Off ch=4 n=40 v=0
3469149 On ch=4 n=43 v=100
3469241 Off ch=4 n=43 v=0
3469308 On ch=4 n=41 v=100
3469400 Off ch=4 n=41 v=0
3469481 On ch=4 n=33 v=100
3469554 Off ch=4 n=33 v=0
3469639 On ch=4 n=31 v=100
3469724 Off ch=4 n=31 v=0
3469798 On ch=4 n=37 v=100
3469876 Off ch=4 n=37 v=0
3469958 On ch=4 n=26 v=100
3470038 Off ch=4 n=26 v=0
3470275 On ch=4 n=24 v=100
3470350 Off ch=4 n=24 v=0
3470427 On ch=4 n=44 v=100
3470517 Off ch=4 n=44 v=0
3470898 On ch=4 n=38 v=100
3470989 Off ch=4 n=38 v=0
3471081 On ch=4 n=31 v=100
3471146 Off ch=4 n=31 v=0
3471230 On ch=4 n=36 v=100
3471313 Off ch=4 n=36 v=0
3471374 On ch=4 n=37 v=100
3471374 On ch=4 n=37 v=100
3471472 Off ch=4 n=37 v=0
3471472 Off ch=4 n=37 v=0
3471565 On ch=4 n=23 v=100
3471610 Off ch=4 n=23 v=0
3471690 On ch=4 n=34 v=100
3471773 Off ch=4 n=34 v=0
3471992 On ch=4 n=27 v=100
3472076 Off ch=4 n=27 v=0
3472154 On ch=4 n=36 v=100
3472254 Off ch=4 n=36 v=0
3472343 On ch=4 n=30 v=100
3472385 Off ch=4 n=30 v=0
3472626 On ch=4 n=26 v=100
3472711 Off ch=4 n=26 v=0
3472771 On ch=4 n=34 v=100
3472867 Off ch=4 n=34 v=0
3473103 On ch=4 n=25 v=100
3473177 Off ch=4 n=25 v=0
3473255 On ch=4 n=41 v=100
3473344 Off ch=4 n=41 v=0
3473572 On ch=4 n=38 v=100
3473661 Off ch=4 n=38 v=0
3473725 On ch=4 n=32 v=100
3473817 Off ch=4 n=32 v=0
3474044 On ch=4 n=40 v=100
3474137 Off ch=4 n=40 v=0
3474362 On ch=4 n=38 v=100
3474452 Off ch=4 n=38 v=0
3474535 On ch=4 n=34 v=100
3474609 Off ch=4 n=34 v=0
3474694 On ch=4 n=32 v=100
3474777 Off ch=4 n=32 v=0
3474840 On ch=4 n=37 v=100
3474929 Off ch=4 n=37 v=0
3474997 On ch=4 n=34 v=100
3475092 Off ch=4 n=34 v=0
3475156 On ch=4 n=28 v=100
3475255 Off ch=4 n=28 v=0
3475347 On ch=4 n=25 v=100
3475392 Off ch=4 n=25 v=0
3475457 On ch=4 n=38 v=100
3475555 Off ch=4 n=38 v=0
3475616 On ch=4 n=42 v=100
3475616 On ch=4 n=42 v=100
3475715 Off ch=4 n=42 v=0
3475715 Off ch=4 n=42 v=0
3475789 On ch=4 n=28 v=100
3475864 Off ch=4 n=28 v=0
3475947 On ch=4 n=23 v=100
3476021 Off ch=4 n=23 v=0
3476106 On ch=4 n=33 v=100
3476191 Off ch=4 n=33 v=0
3476265 On ch=4 n=37 v=100
3476343 Off ch=4 n=37 v=0
3476732 On ch=4 n=38 v=100
3476829 Off ch=4 n=38 v=0
3476919 On ch=4 n=29 v=100
3476963 Off ch=4 n=29 v=0
3477202 On ch=4 n=29 v=100
3477287 Off ch=4 n=29 v=0
3477507 On ch=4 n=35 v=100
3477594 Off ch=4 n=35 v=0
3477838 On ch=4 n=23 v=100
3477912 Off ch=4 n=23 v=0
3477983 On ch=4 n=40 v=100
3478071 Off ch=4 n=40 v=0
3478143 On ch=4 n=38 v=100
3478234 Off ch=4 n=38 v=0
3478309 On ch=4 n=37 v=100
3478399 Off ch=4 n=37 v=0
3478474 On ch=4 n=25 v=100
3478548 Off ch=4 n=25 v=0
3478619 On ch=4 n=38 v=100
3478709 Off ch=4 n=38 v=0
3478791 On ch=4 n=33 v=100
3478864 Off ch=4 n=33 v=0
3478958 On ch=4 n=28 v=100
3479028 Off ch=4 n=28 v=0
3479267 On ch=4 n=27 v=100
3479341 Off ch=4 n=27 v=0
3479412 On ch=4 n=38 v=100
3479502 Off ch=4 n=38 v=0
3479729 On ch=4 n=40 v=100
3479822 Off ch=4 n=40 v=0
3480046 On ch=4 n=31 v=100
3480046 On ch=4 n=31 v=100
3480144 Off ch=4 n=31 v=0
3480144 Off ch=4 n=31 v=0
3480206 On ch=4 n=37 v=100
3480302 Off ch=4 n=37 v=0
3480378 On ch=4 n=38 v=100
3480453 Off ch=4 n=38 v=0
3480538 On ch=4 n=32 v=100
3480621 Off ch=4 n=32 v=0
3480703 On ch=4 n=27 v=100
3480772 Off ch=4 n=27 v=0
3480842 On ch=4 n=41 v=100
3480842 On ch=4 n=41 v=100
3480938 Off ch=4 n=41 v=0
3480938 Off ch=4 n=41 v=0
3481155 On ch=4 n=35 v=100
3481247 Off ch=4 n=35 v=0
3481317 On ch=4 n=35 v=100
3481406 Off ch=4 n=35 v=0
3481491 On ch=4 n=36 v=100
3481571 Off ch=4 n=36 v=0
3481657 On ch=4 n=25 v=100
3481725 Off ch=4 n=25 v=0
3481970 On ch=4 n=27 v=100
3482044 Off ch=4 n=27 v=0
3482257 On ch=4 n=41 v=100
3482257 On ch=4 n=41 v=100
3482286 On ch=4 n=50 v=100
3482286 On ch=4 n=50 v=100
3482354 Off ch=4 n=41 v=0
3482354 Off ch=4 n=41 v=0
3482375 Off ch=4 n=50 v=0
3482375 Off ch=4 n=50 v=0
3482428 On ch=4 n=32 v=100
3482513 Off ch=4 n=32 v=0
3483063 On ch=4 n=33 v=100
3483146 Off ch=4 n=33 v=0
3504422 On ch=4 n=15 v=100
3504471 Off ch=4 n=15 v=0
3506590 On ch=4 n=15 v=100
3506640 Off ch=4 n=15 v=0
3516559 On ch=4 n=25 v=100
3517746 Off ch=4 n=25 v=0
3524865 On ch=4 n=13 v=100
3525026 Off ch=4 n=13 v=0
3535778 On ch=4 n=16 v=100
3535909 Off ch=4 n=16 v=0
3537506 On ch=4 n=62 v=100
3537676 Off ch=4 n=62 v=0
3538499 On ch=4 n=66 v=100
3538499 On ch=4 n=66 v=100
3538696 Off ch=4 n=66 v=0
3538696 Off ch=4 n=66 v=0
3539544 On ch=4 n=65 v=100
3539726 Off ch=4 n=65 v=0
3546818 On ch=4 n=2 v=100
3547417 Off ch=4 n=2 v=0
3547419 On ch=4 n=1 v=100
3549135 On ch=4 n=5 v=100
3549149 Off ch=4 n=1 v=0
3552516 Off ch=4 n=5 v=0
3552562 On ch=4 n=5 v=100
3553963 Off ch=4 n=5 v=0
3553965 On ch=4 n=19 v=100
3554138 On ch=4 n=5 v=100
3554197 Off ch=4 n=19 v=0
3554457 Off ch=4 n=5 v=0
3562288 On ch=4 n=5 v=100
3564008 Off ch=4 n=5 v=0
3564010 On ch=4 n=4 v=100
3564055 Off ch=4 n=4 v=0
3564280 On ch=4 n=8 v=100
3564475 Off ch=4 n=8 v=0
3570768 On ch=4 n=19 v=100
3571186 Off ch=4 n=19 v=0
3573193 On ch=4 n=8 v=100
3573371 On ch=4 n=8 v=100
3573371 Off ch=4 n=8 v=0
3573456 Off ch=4 n=8 v=0
3573470 On ch=4 n=10 v=100
3574158 On ch=4 n=12 v=100
3574161 On ch=4 n=40 v=100
3574163 Off ch=4 n=10 v=0
3574763 Off ch=4 n=12 v=0
3574769 On ch=4 n=7 v=100
3575123 Off ch=4 n=40 v=0
3575124 Off ch=4 n=7 v=0
3575125 On ch=4 n=17 v=100
3576696 Off ch=4 n=17 v=0
3579176 On ch=4 n=20 v=100
3579306 On ch=4 n=55 v=100
3579375 Off ch=4 n=20 v=0
3579377 On ch=4 n=10 v=100
3579411 Off ch=4 n=55 v=0
3579430 Off ch=4 n=10 v=0
3580072 On ch=4 n=8 v=100
3580189 On ch=4 n=57 v=100
3580190 On ch=4 n=8 v=100
3580194 Off ch=4 n=8 v=0
3580362 Off ch=4 n=8 v=0
3580398 Off ch=4 n=57 v=0
3581956 On ch=4 n=19 v=100
3582117 Off ch=4 n=19 v=0
3586295 On ch=4 n=13 v=100
3586451 Off ch=4 n=13 v=0
3587106 On ch=4 n=4 v=100
3587744 Off ch=4 n=4 v=0
3587746 On ch=4 n=5 v=100
3587897 Off ch=4 n=5 v=0
3588873 On ch=4 n=5 v=100
3588984 Off ch=4 n=5 v=0
3590731 On ch=4 n=3 v=100
3591132 Off ch=4 n=3 v=0
3594458 On ch=4 n=19 v=100
3594747 Off ch=4 n=19 v=0
3594806 On ch=4 n=12 v=100
3595075 Off ch=4 n=12 v=0
3614698 On ch=4 n=12 v=100
3615274 Off ch=4 n=12 v=0
3620974 On ch=4 n=61 v=100
3621190 Off ch=4 n=61 v=0
3627272 On ch=4 n=1 v=100
3628004 Off ch=4 n=1 v=0
3628050 On ch=4 n=1 v=100
3628103 Off ch=4 n=1 v=0
3628105 On ch=4 n=0 v=100
3632627 Off ch=4 n=0 v=0
3632629 On ch=4 n=1 v=100
3633361 Off ch=4 n=1 v=0
3633407 On ch=4 n=1 v=100
3633460 Off ch=4 n=1 v=0
3639682 On ch=4 n=3 v=100
3640052 Off ch=4 n=3 v=0
3640499 On ch=4 n=3 v=100
3642369 Off ch=4 n=3 v=0
3684743 On ch=4 n=51 v=100
3684843 Off ch=4 n=51 v=0
3686729 On ch=4 n=51 v=100
3686829 Off ch=4 n=51 v=0
3692530 On ch=4 n=1 v=100
3694144 Off ch=4 n=1 v=0
3694146 On ch=4 n=0 v=100
3700294 Off ch=4 n=0 v=0
3700296 On ch=4 n=1 v=100
3701910 Off ch=4 n=1 v=0
3701912 On ch=4 n=0 v=100
3708059 Off ch=4 n=0 v=0
3708061 On ch=4 n=1 v=100
3709675 Off ch=4 n=1 v=0
3709677 On ch=4 n=0 v=100
3715825 Off ch=4 n=0 v=0
3715827 On ch=4 n=1 v=100
3717442 Off ch=4 n=1 v=0
3721679 On ch=4 n=37 v=100
3721897 Off ch=4 n=37 v=0
3724073 On ch=4 n=31 v=100
3724161 Off ch=4 n=31 v=0
3758132 On ch=4 n=4 v=100
3759039 Off ch=4 n=4 v=0
3769149 On ch=4 n=38 v=100
3769240 Off ch=4 n=38 v=0
3769464 On ch=4 n=31 v=100
3769548 Off ch=4 n=31 v=0
3769632 On ch=4 n=31 v=100
3769716 Off ch=4 n=31 v=0
3769784 On ch=4 n=36 v=100
3769875 Off ch=4 n=36 v=0
3770100 On ch=4 n=37 v=100
3770100 On ch=4 n=37 v=100
3770200 Off ch=4 n=37 v=0
3770200 Off ch=4 n=37 v=0
3770274 On ch=4 n=26 v=100
3770349 Off ch=4 n=26 v=0
3770420 On ch=4 n=49 v=100
3770514 Off ch=4 n=49 v=0
3770592 On ch=4 n=25 v=100
3770676 Off ch=4 n=25 v=0
3770752 On ch=4 n=37 v=100
3770826 Off ch=4 n=37 v=0
3770910 On ch=4 n=27 v=100
3770984 Off ch=4 n=27 v=0
3771056 On ch=4 n=35 v=100
3771154 Off ch=4 n=35 v=0
3771229 On ch=4 n=30 v=100
3771310 Off ch=4 n=30 v=0
3771373 On ch=4 n=35 v=100
3771466 Off ch=4 n=35 v=0
3771689 On ch=4 n=46 v=100
3771689 On ch=4 n=46 v=100
3771784 Off ch=4 n=46 v=0
3771784 Off ch=4 n=46 v=0
3771849 On ch=4 n=38 v=100
3771940 Off ch=4 n=38 v=0
3772026 On ch=4 n=26 v=100
3772107 Off ch=4 n=26 v=0
3772185 On ch=4 n=37 v=100
3772256 Off ch=4 n=37 v=0
3772485 On ch=4 n=39 v=100
3772578 Off ch=4 n=39 v=0
3772658 On ch=4 n=28 v=100
3772734 Off ch=4 n=28 v=0
3773120 On ch=4 n=47 v=100
3773120 On ch=4 n=47 v=100
3773214 Off ch=4 n=47 v=0
3773214 Off ch=4 n=47 v=0
3773301 On ch=4 n=20 v=100
3773378 Off ch=4 n=20 v=0
3773612 On ch=4 n=32 v=100
3773691 Off ch=4 n=32 v=0
3773915 On ch=4 n=46 v=100
3773915 On ch=4 n=46 v=100
3774010 Off ch=4 n=46 v=0
3774010 Off ch=4 n=46 v=0
3774088 On ch=4 n=33 v=100
3774165 Off ch=4 n=33 v=0
3774248 On ch=4 n=25 v=100
3774321 Off ch=4 n=25 v=0
3774393 On ch=4 n=37 v=100
3774490 Off ch=4 n=37 v=0
3774566 On ch=4 n=27 v=100
3774641 Off ch=4 n=27 v=0
3774709 On ch=4 n=46 v=100
3774709 On ch=4 n=46 v=100
3774804 Off ch=4 n=46 v=0
3774804 Off ch=4 n=46 v=0
3774883 On ch=4 n=31 v=100
3774961 Off ch=4 n=31 v=0
3775363 On ch=4 n=29 v=100
3775442 Off ch=4 n=29 v=0
3775497 On ch=4 n=36 v=100
3775497 On ch=4 n=36 v=100
3775599 Off ch=4 n=36 v=0
3775599 Off ch=4 n=36 v=0
3775822 On ch=4 n=47 v=100
3775822 On ch=4 n=47 v=100
3775918 Off ch=4 n=47 v=0
3775918 Off ch=4 n=47 v=0
3776140 On ch=4 n=49 v=100
3776140 On ch=4 n=49 v=100
3776236 Off ch=4 n=49 v=0
3776236 Off ch=4 n=49 v=0
3776476 On ch=4 n=24 v=100
3776553 Off ch=4 n=24 v=0
3776633 On ch=4 n=35 v=100
3776707 Off ch=4 n=35 v=0
3777094 On ch=4 n=47 v=100
3777094 On ch=4 n=47 v=100
3777190 Off ch=4 n=47 v=0
3777190 Off ch=4 n=47 v=0
3777268 On ch=4 n=29 v=100
3777351 Off ch=4 n=29 v=0
3777745 On ch=4 n=30 v=100
3777825 Off ch=4 n=30 v=0
3777891 On ch=4 n=36 v=100
3777987 Off ch=4 n=36 v=0
3778063 On ch=4 n=26 v=100
3778138 Off ch=4 n=26 v=0
3778208 On ch=4 n=34 v=100
3778305 Off ch=4 n=34 v=0
3778524 On ch=4 n=40 v=100
3778524 On ch=4 n=40 v=100
3778659 Off ch=4 n=40 v=0
3778659 Off ch=4 n=40 v=0
3778702 On ch=4 n=47 v=100
3778774 Off ch=4 n=47 v=0
3779055 On ch=4 n=14 v=100
3779111 Off ch=4 n=14 v=0
3789104 On ch=4 n=44 v=100
3789602 Off ch=4 n=44 v=0
3789610 On ch=4 n=30 v=100
3789638 On ch=4 n=43 v=100
3789695 On ch=4 n=27 v=100
3789701 Off ch=4 n=30 v=0
3789710 On ch=4 n=55 v=100
3789714 On ch=4 n=46 v=100
3789806 Off ch=4 n=27 v=0
3789807 Off ch=4 n=43 v=0
3789820 Off ch=4 n=46 v=0
3789831 Off ch=4 n=55 v=0
3791820 On ch=4 n=0 v=100
3792040 Off ch=4 n=0 v=0
3792042 On ch=4 n=0 v=100
3796497 Off ch=4 n=0 v=0
3796499 On ch=4 n=1 v=100
3796719 Off ch=4 n=1 v=0
3808014 On ch=4 n=53 v=100
3808357 On ch=4 n=21 v=100
3809228 Off ch=4 n=53 v=0
3809245 On ch=4 n=22 v=100
3809248 Off ch=4 n=21 v=0
3809339 Off ch=4 n=22 v=0
3811203 On ch=4 n=4 v=100
3811717 Off ch=4 n=4 v=0
3811738 On ch=4 n=2 v=100
3815410 Off ch=4 n=2 v=0
3815412 On ch=4 n=9 v=100
3815478 Off ch=4 n=9 v=0
3830857 On ch=4 n=3 v=100
3831614 Off ch=4 n=3 v=0
3835551 On ch=4 n=30 v=100
3835587 On ch=4 n=23 v=100
3835620 On ch=4 n=12 v=100
3835777 Off ch=4 n=30 v=0
3835779 Off ch=4 n=23 v=0
3842419 Off ch=4 n=12 v=0
3842531 On ch=4 n=12 v=100
3842741 Off ch=4 n=12 v=0
3844441 On ch=4 n=5 v=100
3845028 On ch=4 n=4 v=100
3845028 Off ch=4 n=5 v=0
3845640 Off ch=4 n=4 v=0
3851657 On ch=4 n=13 v=100
3851817 Off ch=4 n=13 v=0
3860192 On ch=4 n=24 v=100
3861392 Off ch=4 n=24 v=0
3867247 On ch=4 n=19 v=100
3867330 Off ch=4 n=19 v=0
3869994 On ch=4 n=17 v=100
3870044 Off ch=4 n=17 v=0
3893651 On ch=4 n=52 v=100
3893741 Off ch=4 n=52 v=0
3919436 On ch=4 n=26 v=100
3920371 Off ch=4 n=26 v=0
3920372 On ch=4 n=21 v=100
3920465 Off ch=4 n=21 v=0
3932146 On ch=4 n=13 v=100
3932307 Off ch=4 n=13 v=0
3936490 On ch=4 n=11 v=100
3936632 Off ch=4 n=11 v=0
3939960 On ch=4 n=67 v=100
3940143 Off ch=4 n=67 v=0
3958534 On ch=4 n=33 v=100
3958628 Off ch=4 n=33 v=0
3958698 On ch=4 n=34 v=100
3958774 Off ch=4 n=34 v=0
3958853 On ch=4 n=32 v=100
3958933 Off ch=4 n=32 v=0
3959019 On ch=4 n=37 v=100
3959106 Off ch=4 n=37 v=0
3959333 On ch=4 n=26 v=100
3959409 Off ch=4 n=26 v=0
3959496 On ch=4 n=34 v=100
3959584 Off ch=4 n=34 v=0
3959645 On ch=4 n=35 v=100
3959742 Off ch=4 n=35 v=0
3959813 On ch=4 n=27 v=100
3959887 Off ch=4 n=27 v=0
3959970 On ch=4 n=30 v=100
3960046 Off ch=4 n=30 v=0
3960124 On ch=4 n=33 v=100
3960205 Off ch=4 n=33 v=0
3960285 On ch=4 n=45 v=100
3960379 Off ch=4 n=45 v=0
3960446 On ch=4 n=61 v=100
3960525 Off ch=4 n=61 v=0
3960917 On ch=4 n=40 v=100
3960917 On ch=4 n=40 v=100
3961017 Off ch=4 n=40 v=0
3961017 Off ch=4 n=40 v=0
3961233 On ch=4 n=36 v=100
3961331 Off ch=4 n=36 v=0
3961562 On ch=4 n=29 v=100
3961635 Off ch=4 n=29 v=0
3961675 On ch=4 n=37 v=100
3961794 Off ch=4 n=37 v=0
3961870 On ch=4 n=23 v=100
3961954 Off ch=4 n=23 v=0
3962028 On ch=4 n=38 v=100
3962127 Off ch=4 n=38 v=0
3962186 On ch=4 n=36 v=100
3962285 Off ch=4 n=36 v=0
3962357 On ch=4 n=30 v=100
3962431 Off ch=4 n=30 v=0
3962506 On ch=4 n=28 v=100
3962590 Off ch=4 n=28 v=0
3962668 On ch=4 n=45 v=100
3962764 Off ch=4 n=45 v=0
3962840 On ch=4 n=33 v=100
3962923 Off ch=4 n=33 v=0
3962987 On ch=4 n=35 v=100
3963080 Off ch=4 n=35 v=0
3963141 On ch=4 n=26 v=100
3963226 Off ch=4 n=26 v=0
3963466 On ch=4 n=39 v=100
3963558 Off ch=4 n=39 v=0
3963618 On ch=4 n=35 v=100
3963716 Off ch=4 n=35 v=0
3963785 On ch=4 n=35 v=100
3963785 On ch=4 n=35 v=100
3963875 Off ch=4 n=35 v=0
3963875 Off ch=4 n=35 v=0
3963947 On ch=4 n=27 v=100
3964020 Off ch=4 n=27 v=0
3964060 On ch=4 n=33 v=100
3964180 Off ch=4 n=33 v=0
3964262 On ch=4 n=37 v=100
3964352 Off ch=4 n=37 v=0
3964413 On ch=4 n=34 v=100
3964512 Off ch=4 n=34 v=0
3964573 On ch=4 n=32 v=100
3964657 Off ch=4 n=32 v=0
3964742 On ch=4 n=32 v=100
3964816 Off ch=4 n=32 v=0
3964891 On ch=4 n=30 v=100
3964975 Off ch=4 n=30 v=0
3965053 On ch=4 n=45 v=100
3965149 Off ch=4 n=45 v=0
3965226 On ch=4 n=29 v=100
3965308 Off ch=4 n=29 v=0
3965372 On ch=4 n=37 v=100
3965464 Off ch=4 n=37 v=0
3965537 On ch=4 n=32 v=100
3965611 Off ch=4 n=32 v=0
3965695 On ch=4 n=34 v=100
3965770 Off ch=4 n=34 v=0
3965845 On ch=4 n=28 v=100
3965929 Off ch=4 n=28 v=0
3966008 On ch=4 n=41 v=100
3966103 Off ch=4 n=41 v=0
3966332 On ch=4 n=34 v=100
3966406 Off ch=4 n=34 v=0
3966483 On ch=4 n=29 v=100
3966565 Off ch=4 n=29 v=0
3966640 On ch=4 n=33 v=100
3966732 Off ch=4 n=33 v=0
3966967 On ch=4 n=36 v=100
3967042 Off ch=4 n=36 v=0
3967115 On ch=4 n=40 v=100
3967115 On ch=4 n=40 v=100
3967217 Off ch=4 n=40 v=0
3967217 Off ch=4 n=40 v=0
3967291 On ch=4 n=33 v=100
3967377 Off ch=4 n=33 v=0
3967435 On ch=4 n=28 v=100
3967519 Off ch=4 n=28 v=0
3967752 On ch=4 n=33 v=100
3967850 Off ch=4 n=33 v=0
3967912 On ch=4 n=28 v=100
3967996 Off ch=4 n=28 v=0
3968072 On ch=4 n=34 v=100
3968163 Off ch=4 n=34 v=0
3968231 On ch=4 n=30 v=100
3968314 Off ch=4 n=30 v=0
3968398 On ch=4 n=28 v=100
3968472 Off ch=4 n=28 v=0
3968710 On ch=4 n=45 v=100
3968806 Off ch=4 n=45 v=0
3969023 On ch=4 n=31 v=100
3969116 Off ch=4 n=31 v=0
3969193 On ch=4 n=21 v=100
3969234 Off ch=4 n=21 v=0
3969495 On ch=4 n=41 v=100
3969586 Off ch=4 n=41 v=0
3969660 On ch=4 n=36 v=100
3969745 Off ch=4 n=36 v=0
3969770 On ch=4 n=36 v=100
3969883 Off ch=4 n=36 v=0
3969973 On ch=4 n=33 v=100
3970049 Off ch=4 n=33 v=0
3970131 On ch=4 n=27 v=100
3970208 Off ch=4 n=27 v=0
3970287 On ch=4 n=42 v=100
3970382 Off ch=4 n=42 v=0
3970766 On ch=4 n=36 v=100
3970850 Off ch=4 n=36 v=0
3970935 On ch=4 n=33 v=100
3971017 Off ch=4 n=33 v=0
3971091 On ch=4 n=32 v=100
3971176 Off ch=4 n=32 v=0
3971242 On ch=4 n=32 v=100
3971330 Off ch=4 n=32 v=0
3987677 On ch=4 n=11 v=100
3988119 On ch=4 n=10 v=100
3988255 Off ch=4 n=11 v=0
3992112 On ch=4 n=7 v=100
3992112 Off ch=4 n=10 v=0
3992435 Off ch=4 n=7 v=0
3992448 On ch=4 n=11 v=100
3993000 Off ch=4 n=11 v=0
4010016 On ch=4 n=16 v=100
4010321 Off ch=4 n=16 v=0
4010477 On ch=4 n=37 v=100
4010542 On ch=4 n=20 v=100
4010660 Off ch=4 n=37 v=0
4010908 On ch=4 n=23 v=100
4010913 On ch=4 n=35 v=100
4010963 Off ch=4 n=20 v=0
4010972 Off ch=4 n=23 v=0
4011012 Off ch=4 n=35 v=0
4011281 On ch=4 n=25 v=100
4011299 On ch=4 n=19 v=100
4011424 Off ch=4 n=25 v=0
4011425 Off ch=4 n=19 v=0
4023540 On ch=4 n=8 v=100
4024396 Off ch=4 n=8 v=0
4040363 On ch=4 n=3 v=100
4040554 Off ch=4 n=3 v=0
4049453 On ch=4 n=3 v=100
4049854 Off ch=4 n=3 v=0
4051605 On ch=4 n=5 v=100
4051716 Off ch=4 n=5 v=0
4052692 On ch=4 n=6 v=100
4052843 Off ch=4 n=6 v=0
4052845 On ch=4 n=4 v=100
4053483 Off ch=4 n=4 v=0
4054144 On ch=4 n=13 v=100
4054289 Off ch=4 n=13 v=0
4057129 On ch=4 n=18 v=100
4057297 Off ch=4 n=18 v=0
4064219 On ch=4 n=24 v=100
4065424 Off ch=4 n=24 v=0
4067542 On ch=4 n=36 v=100
4067542 On ch=4 n=22 v=100
4067740 Off ch=4 n=22 v=0
4067803 Off ch=4 n=36 v=0
4069298 On ch=4 n=27 v=100
4069354 Off ch=4 n=27 v=0
4072038 On ch=4 n=18 v=100
4072087 Off ch=4 n=18 v=0
4074778 On ch=4 n=15 v=100
4074827 Off ch=4 n=15 v=0
4079283 On ch=4 n=3 v=100
4079614 Off ch=4 n=3 v=0
4079616 On ch=4 n=3 v=100
4080205 Off ch=4 n=3 v=0
4080206 On ch=4 n=3 v=100
4080310 Off ch=4 n=3 v=0
4112721 On ch=4 n=3 v=100
4113400 Off ch=4 n=3 v=0
4116587 On ch=4 n=3 v=100
4122589 On ch=4 n=28 v=100
4122647 Off ch=4 n=3 v=0
4122759 Off ch=4 n=28 v=0
4131896 On ch=4 n=37 v=100
4132332 Off ch=4 n=37 v=0
4132352 On ch=4 n=51 v=100
4132588 Off ch=4 n=51 v=0
4136908 On ch=4 n=2 v=100
4136950 Off ch=4 n=2 v=0
4136951 On ch=4 n=5 v=100
4137666 Off ch=4 n=5 v=0
4137683 On ch=4 n=28 v=100
4137683 On ch=4 n=9 v=100
4137731 Off ch=4 n=9 v=0
4137755 Off ch=4 n=28 v=0
4145582 On ch=4 n=19 v=100
4145818 Off ch=4 n=19 v=0
4150952 On ch=4 n=50 v=100
4150983 On ch=4 n=13 v=100
4151182 Off ch=4 n=50 v=0
4151714 On ch=4 n=15 v=100
4152255 Off ch=4 n=13 v=0
4152330 On ch=4 n=8 v=100
4152330 Off ch=4 n=15 v=0
4152881 On ch=4 n=6 v=100
4152883 Off ch=4 n=8 v=0
4153647 Off ch=4 n=6 v=0
4195778 On ch=4 n=5 v=100
4195839 Off ch=4 n=5 v=0
4195851 On ch=4 n=4 v=100
4196108 On ch=4 n=1 v=100
4196124 Off ch=4 n=4 v=0
4199480 On ch=4 n=4 v=100
4199485 Off ch=4 n=1 v=0
4201336 Off ch=4 n=4 v=0
4205374 On ch=4 n=4 v=100
4207088 Off ch=4 n=4 v=0
4217004 On ch=4 n=5 v=100
4217402 Off ch=4 n=5 v=0
4228702 On ch=4 n=5 v=100
4228946 Off ch=4 n=5 v=0
4228962 On ch=4 n=4 v=100
4230359 Off ch=4 n=4 v=0
4233440 On ch=4 n=14 v=100
4234886 On ch=4 n=12 v=100
4234886 Off ch=4 n=14 v=0
4235148 Off ch=4 n=12 v=0
4237467 On ch=4 n=24 v=100
4239391 Off ch=4 n=24 v=0
4239429 On ch=4 n=8 v=100
4239804 Off ch=4 n=8 v=0
4239805 On ch=4 n=9 v=100
4240116 Off ch=4 n=9 v=0
4240959 On ch=4 n=10 v=100
4241436 Off ch=4 n=10 v=0
4243921 On ch=4 n=10 v=100
4244077 Off ch=4 n=10 v=0
4244518 On ch=4 n=11 v=100
4245360 Off ch=4 n=11 v=0
4245968 On ch=4 n=8 v=100
4246352 Off ch=4 n=8 v=0
4246356 On ch=4 n=2 v=100
4250572 Off ch=4 n=2 v=0
4250574 On ch=4 n=8 v=100
4250958 Off ch=4 n=8 v=0
4255986 On ch=4 n=3 v=100
4256144 On ch=4 n=4 v=100
4256145 Off ch=4 n=3 v=0
4256268 Off ch=4 n=4 v=0
4256269 On ch=4 n=5 v=100
4257068 Off ch=4 n=5 v=0
4257109 On ch=4 n=8 v=100
4258549 Off ch=4 n=8 v=0
4261753 On ch=4 n=15 v=100
4262116 On ch=4 n=34 v=100
4262176 Off ch=4 n=15 v=0
4262178 On ch=4 n=6 v=100
4262209 Off ch=4 n=34 v=0
4262612 On ch=4 n=23 v=100
4262964 Off ch=4 n=6 v=0
4263152 On ch=4 n=8 v=100
4264024 On ch=4 n=67 v=100
4264025 Off ch=4 n=23 v=0
4264068 Off ch=4 n=8 v=0
4264070 On ch=4 n=15 v=100
4264375 Off ch=4 n=67 v=0
4264492 Off ch=4 n=15 v=0
4266110 On ch=4 n=13 v=100
4266388 Off ch=4 n=13 v=0
4267028 On ch=4 n=12 v=100
4267178 Off ch=4 n=12 v=0
4270928 On ch=4 n=5 v=100
4271450 Off ch=4 n=5 v=0
4273229 On ch=4 n=19 v=100
4273753 Off ch=4 n=19 v=0
4273758 On ch=4 n=20 v=100
4273895 Off ch=4 n=20 v=0
4274283 On ch=4 n=5 v=100
4274318 Off ch=4 n=5 v=0
4274320 On ch=4 n=19 v=100
4274489 Off ch=4 n=19 v=0
4274491 On ch=4 n=5 v=100
4275266 On ch=4 n=45 v=100
4275392 On ch=4 n=1 v=100
4275396 Off ch=4 n=5 v=0
4275416 Off ch=4 n=45 v=0
4278062 Off ch=4 n=1 v=0
4278066 On ch=4 n=22 v=100
4278235 Off ch=4 n=22 v=0
4291128 On ch=4 n=20 v=100
4291296 Off ch=4 n=20 v=0
4298526 On ch=4 n=25 v=100
4299723 Off ch=4 n=25 v=0
4301919 On ch=4 n=22 v=100
4302117 Off ch=4 n=22 v=0
4306587 On ch=4 n=25 v=100
4306642 Off ch=4 n=25 v=0
4312963 On ch=4 n=4 v=100
4313292 Off ch=4 n=4 v=0
4313294 On ch=4 n=3 v=100
4313881 On ch=4 n=4 v=100
4313882 Off ch=4 n=3 v=0
4313985 Off ch=4 n=4 v=0
4327360 On ch=4 n=3 v=100
4328102 Off ch=4 n=3 v=0
4330780 On ch=4 n=62 v=100
4330780 On ch=4 n=62 v=100
4330983 Off ch=4 n=62 v=0
4330983 Off ch=4 n=62 v=0
4333636 On ch=4 n=3 v=100
4334344 Off ch=4 n=3 v=0
4335823 On ch=4 n=63 v=100
4336002 Off ch=4 n=63 v=0
4337875 On ch=4 n=64 v=100
4338063 Off ch=4 n=64 v=0
4351401 On ch=4 n=34 v=100
4351618 Off ch=4 n=34 v=0
4376912 On ch=4 n=5 v=100
4377273 Off ch=4 n=5 v=0
4392511 On ch=4 n=11 v=100
4392652 Off ch=4 n=11 v=0
4393207 On ch=4 n=15 v=100
4393298 Off ch=4 n=15 v=0
4395801 On ch=4 n=13 v=100
4396186 Off ch=4 n=13 v=0
4397722 On ch=4 n=5 v=100
4398577 Off ch=4 n=5 v=0
4413199 On ch=4 n=5 v=100
4413967 Off ch=4 n=5 v=0
4415316 On ch=4 n=29 v=100
4415316 On ch=4 n=22 v=100
4415457 Off ch=4 n=22 v=0
4415581 On ch=4 n=21 v=100
4415637 Off ch=4 n=29 v=0
4416061 Off ch=4 n=21 v=0
4416282 On ch=4 n=14 v=100
4416587 Off ch=4 n=14 v=0
4437210 On ch=4 n=4 v=100
4442397 Off ch=4 n=4 v=0
4442463 On ch=4 n=4 v=100
4443228 Off ch=4 n=4 v=0
4444157 On ch=4 n=34 v=100
4444209 On ch=4 n=30 v=100
4444357 On ch=4 n=3 v=100
4444542 Off ch=4 n=34 v=0
4444542 Off ch=4 n=30 v=0
4444542 Off ch=4 n=3 v=0
4450109 On ch=4 n=4 v=100
4450818 On ch=4 n=7 v=100
4450826 Off ch=4 n=4 v=0
4450828 On ch=4 n=1 v=100
4450843 Off ch=4 n=7 v=0
4455801 Off ch=4 n=1 v=0
4455803 On ch=4 n=4 v=100
4456517 Off ch=4 n=4 v=0
4456752 On ch=4 n=30 v=100
4456865 Off ch=4 n=30 v=0
4460379 On ch=4 n=42 v=100
4460387 On ch=4 n=10 v=100
4460437 Off ch=4 n=42 v=0
4460439 Off ch=4 n=10 v=0
4463548 On ch=4 n=1 v=100
4465262 Off ch=4 n=1 v=0
4465264 On ch=4 n=1 v=100
4465362 On ch=4 n=1 v=100
4467360 Off ch=4 n=1 v=0
4470540 Off ch=4 n=1 v=0
4470542 On ch=4 n=1 v=100
4472244 On ch=4 n=41 v=100
4472256 Off ch=4 n=1 v=0
4472315 On ch=4 n=29 v=100
4472584 Off ch=4 n=41 v=0
4472584 Off ch=4 n=29 v=0
4473440 On ch=4 n=32 v=100
4473564 Off ch=4 n=32 v=0
4477343 On ch=4 n=17 v=100
4477512 Off ch=4 n=17 v=0
4481093 On ch=4 n=32 v=100
4481113 On ch=4 n=7 v=100
4481149 On ch=4 n=35 v=100
4481165 Off ch=4 n=32 v=0
4481166 Off ch=4 n=7 v=0
4481171 On ch=4 n=7 v=100
4481172 On ch=4 n=44 v=100
4481328 Off ch=4 n=35 v=0
4481331 Off ch=4 n=7 v=0
4481333 On ch=4 n=19 v=100
4481403 Off ch=4 n=44 v=0
4481693 Off ch=4 n=19 v=0
4494053 On ch=4 n=31 v=100
4494124 Off ch=4 n=31 v=0
4494197 On ch=4 n=29 v=100
4494285 Off ch=4 n=29 v=0
4494369 On ch=4 n=39 v=100
4494440 Off ch=4 n=39 v=0
4494512 On ch=4 n=40 v=100
4494607 Off ch=4 n=40 v=0
4494672 On ch=4 n=38 v=100
4494805 Off ch=4 n=38 v=0
4494842 On ch=4 n=33 v=100
4494918 Off ch=4 n=33 v=0
4495004 On ch=4 n=40 v=100
4495077 Off ch=4 n=40 v=0
4495162 On ch=4 n=26 v=100
4495239 Off ch=4 n=26 v=0
4495313 On ch=4 n=48 v=100
4495399 Off ch=4 n=48 v=0
4495466 On ch=4 n=43 v=100
4495600 Off ch=4 n=43 v=0
4495637 On ch=4 n=32 v=100
4495716 Off ch=4 n=32 v=0
4496101 On ch=4 n=29 v=100
4496183 Off ch=4 n=29 v=0
4496273 On ch=4 n=39 v=100
4496350 Off ch=4 n=39 v=0
4496413 On ch=4 n=37 v=100
4496506 Off ch=4 n=37 v=0
4496584 On ch=4 n=47 v=100
4496671 Off ch=4 n=47 v=0
4496738 On ch=4 n=31 v=100
4496829 Off ch=4 n=31 v=0
4496902 On ch=4 n=47 v=100
4496989 Off ch=4 n=47 v=0
4497056 On ch=4 n=40 v=100
4497190 Off ch=4 n=40 v=0
4497227 On ch=4 n=32 v=100
4497306 Off ch=4 n=32 v=0
4497863 On ch=4 n=37 v=100
4497940 Off ch=4 n=37 v=0
4497996 On ch=4 n=37 v=100
4497996 On ch=4 n=37 v=100
4498100 Off ch=4 n=37 v=0
4498100 Off ch=4 n=37 v=0
4498340 On ch=4 n=42 v=100
4498419 Off ch=4 n=42 v=0
4498658 On ch=4 n=32 v=100
4498736 Off ch=4 n=32 v=0
4498979 On ch=4 n=33 v=100
4499048 Off ch=4 n=33 v=0
4499106 On ch=4 n=35 v=100
4499106 On ch=4 n=35 v=100
4499211 Off ch=4 n=35 v=0
4499211 Off ch=4 n=35 v=0
4499285 On ch=4 n=47 v=100
4499372 Off ch=4 n=47 v=0
4499439 On ch=4 n=42 v=100
4499573 Off ch=4 n=42 v=0
4499610 On ch=4 n=32 v=100
4499689 Off ch=4 n=32 v=0
4500250 On ch=4 n=34 v=100
4500320 Off ch=4 n=34 v=0
4500378 On ch=4 n=37 v=100
4500378 On ch=4 n=37 v=100
4500483 Off ch=4 n=37 v=0
4500483 Off ch=4 n=37 v=0
4500567 On ch=4 n=47 v=100
4500644 Off ch=4 n=47 v=0
4500710 On ch=4 n=35 v=100
4500710 On ch=4 n=35 v=100
4500804 Off ch=4 n=35 v=0
4500804 Off ch=4 n=35 v=0
4500874 On ch=4 n=49 v=100
4500962 Off ch=4 n=49 v=0
4501029 On ch=4 n=42 v=100
4501163 Off ch=4 n=42 v=0
4501200 On ch=4 n=32 v=100
4501279 Off ch=4 n=32 v=0
4501662 On ch=4 n=28 v=100
4501746 Off ch=4 n=28 v=0
4501836 On ch=4 n=36 v=100
4501911 Off ch=4 n=36 v=0
4502472 On ch=4 n=36 v=100
4502548 Off ch=4 n=36 v=0
4502794 On ch=4 n=28 v=100
4502864 Off ch=4 n=28 v=0
4502922 On ch=4 n=35 v=100
4502922 On ch=4 n=35 v=100
4503028 Off ch=4 n=35 v=0
4503028 Off ch=4 n=35 v=0
4503111 On ch=4 n=45 v=100
4503188 Off ch=4 n=45 v=0
4503240 On ch=4 n=37 v=100
4503240 On ch=4 n=37 v=100
4503345 Off ch=4 n=37 v=0
4503345 Off ch=4 n=37 v=0
4503419 On ch=4 n=47 v=100
4503506 Off ch=4 n=47 v=0
4503572 On ch=4 n=35 v=100
4503572 On ch=4 n=35 v=100
4503666 Off ch=4 n=35 v=0
4503666 Off ch=4 n=35 v=0
4503736 On ch=4 n=49 v=100
4503824 Off ch=4 n=49 v=0
4503891 On ch=4 n=42 v=100
4504025 Off ch=4 n=42 v=0
4504062 On ch=4 n=32 v=100
4504141 Off ch=4 n=32 v=0
4504525 On ch=4 n=29 v=100
4504609 Off ch=4 n=29 v=0
4504701 On ch=4 n=40 v=100
4504773 Off ch=4 n=40 v=0
4504838 On ch=4 n=34 v=100
4504934 Off ch=4 n=34 v=0
4505815 On ch=4 n=30 v=100
4505885 Off ch=4 n=30 v=0
4505943 On ch=4 n=35 v=100
4505943 On ch=4 n=35 v=100
4506048 Off ch=4 n=35 v=0
4506048 Off ch=4 n=35 v=0
4506131 On ch=4 n=46 v=100
4506209 Off ch=4 n=46 v=0
4506276 On ch=4 n=33 v=100
4506367 Off ch=4 n=33 v=0
4506440 On ch=4 n=47 v=100
4506527 Off ch=4 n=47 v=0
4506594 On ch=4 n=42 v=100
4506728 Off ch=4 n=42 v=0
4506765 On ch=4 n=34 v=100
4506844 Off ch=4 n=34 v=0
4506908 On ch=4 n=30 v=100
4506993 Off ch=4 n=30 v=0
4507226 On ch=4 n=30 v=100
4507226 On ch=4 n=30 v=100
4507246 On ch=4 n=44 v=100
4507246 On ch=4 n=44 v=100
4507312 Off ch=4 n=30 v=0
4507312 Off ch=4 n=30 v=0
4507321 Off ch=4 n=44 v=0
4507321 Off ch=4 n=44 v=0
4507401 On ch=4 n=37 v=100
4507479 Off ch=4 n=37 v=0
4507540 On ch=4 n=36 v=100
4507540 On ch=4 n=36 v=100
4507639 Off ch=4 n=36 v=0
4507639 Off ch=4 n=36 v=0
4507722 On ch=4 n=45 v=100
4507799 Off ch=4 n=45 v=0
4507866 On ch=4 n=40 v=100
4508000 Off ch=4 n=40 v=0
4508183 On ch=4 n=39 v=100
4508266 Off ch=4 n=39 v=0
4508355 On ch=4 n=39 v=100
4508432 Off ch=4 n=39 v=0
4508495 On ch=4 n=33 v=100
4508495 On ch=4 n=33 v=100
4508593 Off ch=4 n=33 v=0
4508593 Off ch=4 n=33 v=0
4508832 On ch=4 n=42 v=100
4508911 Off ch=4 n=42 v=0
4509150 On ch=4 n=32 v=100
4509228 Off ch=4 n=32 v=0
4509471 On ch=4 n=34 v=100
4509542 Off ch=4 n=34 v=0
4509616 On ch=4 n=26 v=100
4509705 Off ch=4 n=26 v=0
4509788 On ch=4 n=40 v=100
4509860 Off ch=4 n=40 v=0
4509931 On ch=4 n=42 v=100
4510065 Off ch=4 n=42 v=0
4510091 On ch=4 n=26 v=100
4510091 On ch=4 n=26 v=100
4510181 Off ch=4 n=26 v=0
4510181 Off ch=4 n=26 v=0
4510197 On ch=4 n=36 v=100
4510279 Off ch=4 n=36 v=0
4510343 On ch=4 n=38 v=100
4510477 Off ch=4 n=38 v=0
4510514 On ch=4 n=33 v=100
4510591 Off ch=4 n=33 v=0
4510676 On ch=4 n=42 v=100
4510749 Off ch=4 n=42 v=0
4510821 On ch=4 n=46 v=100
4510912 Off ch=4 n=46 v=0
4510979 On ch=4 n=42 v=100
4511113 Off ch=4 n=42 v=0
4511150 On ch=4 n=34 v=100
4511229 Off ch=4 n=34 v=0
4511614 On ch=4 n=28 v=100
4511696 Off ch=4 n=28 v=0
4511786 On ch=4 n=37 v=100
4511863 Off ch=4 n=37 v=0
4512426 On ch=4 n=28 v=100
4512497 Off ch=4 n=28 v=0
4512583 On ch=4 n=30 v=100
4512702 Off ch=4 n=30 v=0
4512739 On ch=4 n=27 v=100
4512816 Off ch=4 n=27 v=0
4512886 On ch=4 n=34 v=100
4512977 Off ch=4 n=34 v=0
4513218 On ch=4 n=26 v=100
4513299 Off ch=4 n=26 v=0
4513362 On ch=4 n=27 v=100
4513445 Off ch=4 n=27 v=0
4514980 On ch=4 n=9 v=100
4515612 Off ch=4 n=9 v=0
4516597 On ch=4 n=7 v=100
4516913 Off ch=4 n=7 v=0
4516915 On ch=4 n=6 v=100
4517583 Off ch=4 n=6 v=0
4517591 On ch=4 n=4 v=100
4518211 Off ch=4 n=4 v=0
4527885 On ch=4 n=4 v=100
4527988 On ch=4 n=3 v=100
4527989 Off ch=4 n=4 v=0
4528580 Off ch=4 n=3 v=0
4528582 On ch=4 n=3 v=100
4528913 Off ch=4 n=3 v=0
4533536 On ch=4 n=15 v=100
4533585 Off ch=4 n=15 v=0
4536276 On ch=4 n=15 v=100
4536325 Off ch=4 n=15 v=0
4537855 On ch=4 n=36 v=100
4537918 On ch=4 n=22 v=100
4538116 Off ch=4 n=22 v=0
4538117 Off ch=4 n=36 v=0
4540271 On ch=4 n=31 v=100
4540672 Off ch=4 n=31 v=0
4540675 On ch=4 n=19 v=100
4541363 Off ch=4 n=19 v=0
4543045 On ch=4 n=2 v=100
4543114 Off ch=4 n=2 v=0
4547927 On ch=4 n=18 v=100
4548094 Off ch=4 n=18 v=0
4550128 On ch=4 n=26 v=100
4550348 Off ch=4 n=26 v=0
4550578 On ch=4 n=1 v=100
4550651 On ch=4 n=3 v=100
4550700 Off ch=4 n=1 v=0
4551092 Off ch=4 n=3 v=0
4556724 On ch=4 n=50 v=100
4556777 Off ch=4 n=50 v=0
4556827 On ch=4 n=50 v=100
4557040 Off ch=4 n=50 v=0
4561102 On ch=4 n=3 v=100
4561160 Off ch=4 n=3 v=0
4561165 On ch=4 n=4 v=100
4562634 On ch=4 n=2 v=100
4562634 Off ch=4 n=4 v=0
4568047 Off ch=4 n=2 v=0
4568049 On ch=4 n=3 v=100
4568107 Off ch=4 n=3 v=0
4568112 On ch=4 n=5 v=100
4569581 Off ch=4 n=5 v=0
4570669 On ch=4 n=14 v=100
4571744 Off ch=4 n=14 v=0
4576817 On ch=4 n=49 v=100
4577070 Off ch=4 n=49 v=0
4577165 On ch=4 n=9 v=100
4578796 Off ch=4 n=9 v=0
4578798 On ch=4 n=3 v=100
4580561 On ch=4 n=3 v=100
4580564 Off ch=4 n=3 v=0
4588299 Off ch=4 n=3 v=0
4588301 On ch=4 n=9 v=100
4589957 Off ch=4 n=9 v=0
4597596 On ch=4 n=0 v=100
4598316 On ch=4 n=54 v=100
4598366 Off ch=4 n=0 v=0
4598368 On ch=4 n=0 v=100
4598558 Off ch=4 n=54 v=0
4602816 Off ch=4 n=0 v=0
4602818 On ch=4 n=4 v=100
4603711 Off ch=4 n=4 v=0
4604515 On ch=4 n=15 v=100
4604717 Off ch=4 n=15 v=0
4604943 On ch=4 n=10 v=100
4605079 Off ch=4 n=10 v=0
4605082 On ch=4 n=0 v=100
4605799 On ch=4 n=17 v=100
4605802 Off ch=4 n=0 v=0
4607173 On ch=4 n=14 v=100
4607177 Off ch=4 n=17 v=0
4608462 On ch=4 n=29 v=100
4608479 On ch=4 n=11 v=100
4608491 Off ch=4 n=14 v=0
4608608 Off ch=4 n=29 v=0
4608634 Off ch=4 n=11 v=0
4608753 On ch=4 n=11 v=100
4609528 Off ch=4 n=11 v=0
4609566 On ch=4 n=11 v=100
4610163 Off ch=4 n=11 v=0
4610166 On ch=4 n=9 v=100
4610473 Off ch=4 n=9 v=0
4610475 On ch=4 n=4 v=100
4614814 Off ch=4 n=4 v=0
4614816 On ch=4 n=8 v=100
4615121 Off ch=4 n=8 v=0
4615122 On ch=4 n=8 v=100
4617386 On ch=4 n=6 v=100
4617417 Off ch=4 n=8 v=0
4623347 On ch=4 n=8 v=100
4623348 Off ch=4 n=6 v=0
4623684 On ch=4 n=20 v=100
4623841 Off ch=4 n=8 v=0
4623862 Off ch=4 n=20 v=0
4625106 On ch=4 n=38 v=100
4625114 On ch=4 n=27 v=100
4625196 Off ch=4 n=27 v=0
4625204 Off ch=4 n=38 v=0
4625205 On ch=4 n=10 v=100
4625215 On ch=4 n=24 v=100
4625414 Off ch=4 n=10 v=0
4625554 Off ch=4 n=24 v=0
4626872 On ch=4 n=11 v=100
4627033 Off ch=4 n=11 v=0
4627036 On ch=4 n=29 v=100
4627110 Off ch=4 n=29 v=0
4627407 On ch=4 n=18 v=100
4627537 Off ch=4 n=18 v=0
4627540 On ch=4 n=7 v=100
4627794 Off ch=4 n=7 v=0
4627828 On ch=4 n=31 v=100
4627911 On ch=4 n=11 v=100
4628034 Off ch=4 n=31 v=0
4629275 Off ch=4 n=11 v=0
4629302 On ch=4 n=34 v=100
4629302 On ch=4 n=11 v=100
4629353 Off ch=4 n=11 v=0
4629427 Off ch=4 n=34 v=0
4634167 On ch=4 n=12 v=100
4634797 Off ch=4 n=12 v=0
4636098 On ch=4 n=14 v=100
4636615 Off ch=4 n=14 v=0
4637623 On ch=4 n=17 v=100
4637795 On ch=4 n=4 v=100
4637849 Off ch=4 n=17 v=0
4638104 Off ch=4 n=4 v=0
4643635 On ch=4 n=11 v=100
4644200 Off ch=4 n=11 v=0
4645774 On ch=4 n=35 v=100
4645864 Off ch=4 n=35 v=0
4646217 On ch=4 n=40 v=100
4646217 On ch=4 n=40 v=100
4646308 Off ch=4 n=40 v=0
4646308 Off ch=4 n=40 v=0
4646345 On ch=4 n=31 v=100
4646426 Off ch=4 n=31 v=0
4646491 On ch=4 n=36 v=100
4646580 Off ch=4 n=36 v=0
4647845 On ch=4 n=40 v=100
4647936 Off ch=4 n=40 v=0
4658156 On ch=4 n=25 v=100
4659343 Off ch=4 n=25 v=0
4670486 On ch=4 n=13 v=100
4670647 Off ch=4 n=13 v=0
4675259 On ch=4 n=11 v=100
4675399 Off ch=4 n=11 v=0
4682497 On ch=4 n=17 v=100
4682817 Off ch=4 n=17 v=0
4723705 On ch=4 n=1 v=100
4723961 On ch=4 n=26 v=100
4724346 Off ch=4 n=1 v=0
4724970 On ch=4 n=39 v=100
4725096 Off ch=4 n=26 v=0
4725197 Off ch=4 n=39 v=0
4725802 On ch=4 n=44 v=100
4725989 Off ch=4 n=44 v=0
4726328 On ch=4 n=28 v=100
4726457 Off ch=4 n=28 v=0
4727318 On ch=4 n=52 v=100
4727574 Off ch=4 n=52 v=0
4728594 On ch=4 n=39 v=100
4728705 Off ch=4 n=39 v=0
4762444 On ch=4 n=0 v=100
4762470 Off ch=4 n=0 v=0
4762479 On ch=4 n=2 v=100
4763335 Off ch=4 n=2 v=0
4763672 On ch=4 n=8 v=100
4764370 On ch=4 n=5 v=100
4764387 Off ch=4 n=8 v=0
4765252 Off ch=4 n=5 v=0
4773073 On ch=4 n=5 v=100
4773144 On ch=4 n=1 v=100
4773144 Off ch=4 n=5 v=0
4773216 Off ch=4 n=1 v=0
4773218 On ch=4 n=5 v=100
4776190 Off ch=4 n=5 v=0
4776205 On ch=4 n=47 v=100
4776232 On ch=4 n=4 v=100
4776415 Off ch=4 n=4 v=0
4776430 Off ch=4 n=47 v=0
4778068 On ch=4 n=0 v=100
4778452 Off ch=4 n=0 v=0
4778454 On ch=4 n=4 v=100
4778601 Off ch=4 n=4 v=0
4778624 On ch=4 n=1 v=100
4782798 Off ch=4 n=1 v=0
4782800 On ch=4 n=0 v=100
4783184 Off ch=4 n=0 v=0
4783526 On ch=4 n=44 v=100
4783565 On ch=4 n=47 v=100
4783574 On ch=4 n=4 v=100
4783588 On ch=4 n=52 v=100
4783756 Off ch=4 n=44 v=0
4783757 Off ch=4 n=4 v=0
4783781 Off ch=4 n=52 v=0
4783784 Off ch=4 n=47 v=0
4783799 On ch=4 n=40 v=100
4783799 On ch=4 n=3 v=100
4783934 Off ch=4 n=3 v=0
4783972 Off ch=4 n=40 v=0
4785439 On ch=4 n=3 v=100
4786309 On ch=4 n=46 v=100
4786343 Off ch=4 n=3 v=0
4786345 On ch=4 n=4 v=100
4786391 Off ch=4 n=46 v=0
4786916 Off ch=4 n=4 v=0
4789215 On ch=4 n=34 v=100
4789382 Off ch=4 n=34 v=0
4800017 On ch=4 n=10 v=100
4800060 Off ch=4 n=10 v=0
4800098 On ch=4 n=10 v=100
4800757 Off ch=4 n=10 v=0
4802703 On ch=4 n=14 v=100
4803062 Off ch=4 n=14 v=0
4803953 On ch=4 n=35 v=100
4804096 Off ch=4 n=35 v=0
4807188 On ch=4 n=35 v=100
4807319 Off ch=4 n=35 v=0
4808062 On ch=4 n=30 v=100
4808113 Off ch=4 n=30 v=0
4810992 On ch=4 n=38 v=100
4810992 On ch=4 n=38 v=100
4811227 Off ch=4 n=38 v=0
4811227 Off ch=4 n=38 v=0
4814936 On ch=4 n=18 v=100
4815293 Off ch=4 n=18 v=0
4815295 On ch=4 n=2 v=100
4815952 Off ch=4 n=2 v=0
4816009 On ch=4 n=3 v=100
4816009 On ch=4 n=2 v=100
4816010 Off ch=4 n=2 v=0
4816609 Off ch=4 n=3 v=0
4816611 On ch=4 n=0 v=100
4822185 Off ch=4 n=0 v=0
4822187 On ch=4 n=2 v=100
4822844 Off ch=4 n=2 v=0
4822899 On ch=4 n=3 v=100
4822899 On ch=4 n=2 v=100
4822900 Off ch=4 n=2 v=0
4823499 Off ch=4 n=3 v=0
4825209 On ch=4 n=27 v=100
4825309 Off ch=4 n=27 v=0
4827853 On ch=4 n=1 v=100
4828043 Off ch=4 n=1 v=0
4828045 On ch=4 n=17 v=100
4832465 Off ch=4 n=17 v=0
4832468 On ch=4 n=1 v=100
4832658 Off ch=4 n=1 v=0
4834205 On ch=4 n=3 v=100
4835444 Off ch=4 n=3 v=0
4835445 On ch=4 n=2 v=100
4839936 Off ch=4 n=2 v=0
4842796 On ch=4 n=17 v=100
4843140 Off ch=4 n=17 v=0
4856391 On ch=4 n=6 v=100
4857206 Off ch=4 n=6 v=0
4858976 On ch=4 n=14 v=100
4859118 Off ch=4 n=14 v=0
4862856 On ch=4 n=9 v=100
4863087 Off ch=4 n=9 v=0
4863089 On ch=4 n=6 v=100
4863280 Off ch=4 n=6 v=0
4863282 On ch=4 n=13 v=100
4863631 Off ch=4 n=13 v=0
4873955 On ch=4 n=3 v=100
4874568 Off ch=4 n=3 v=0
4874574 On ch=4 n=4 v=100
4876500 Off ch=4 n=4 v=0
4891933 On ch=4 n=17 v=100
4892510 Off ch=4 n=17 v=0
4892512 On ch=4 n=7 v=100
4893371 Off ch=4 n=7 v=0
4893373 On ch=4 n=2 v=100
4893475 Off ch=4 n=2 v=0
4893477 On ch=4 n=2 v=100
4896357 Off ch=4 n=2 v=0
4896358 On ch=4 n=7 v=100
4899146 Off ch=4 n=7 v=0
4899150 On ch=4 n=17 v=100
4899725 Off ch=4 n=17 v=0
4900422 On ch=4 n=28 v=100
4900512 Off ch=4 n=28 v=0
4903297 On ch=4 n=14 v=100
4903579 Off ch=4 n=14 v=0
4918598 On ch=4 n=9 v=100
4919278 Off ch=4 n=9 v=0
4987463 On ch=4 n=6 v=100
4987763 Off ch=4 n=6 v=0
4987765 On ch=4 n=0 v=100
4992936 Off ch=4 n=0 v=0
4992938 On ch=4 n=6 v=100
4993238 Off ch=4 n=6 v=0
5000338 On ch=4 n=27 v=100
5000394 Off ch=4 n=27 v=0
5000519 On ch=4 n=17 v=100
5000685 Off ch=4 n=17 v=0
5005057 On ch=4 n=7 v=100
5005450 Off ch=4 n=7 v=0
5010175 On ch=4 n=13 v=100
5010198 On ch=4 n=34 v=100
5010351 Off ch=4 n=13 v=0
5010948 On ch=4 n=4 v=100
5011943 Off ch=4 n=34 v=0
5012661 On ch=4 n=43 v=100
5012662 On ch=4 n=36 v=100
5012727 On ch=4 n=12 v=100
5012765 Off ch=4 n=4 v=0
5012985 Off ch=4 n=36 v=0
5013063 Off ch=4 n=43 v=0
5016494 On ch=4 n=22 v=100
5016622 Off ch=4 n=12 v=0
5016627 On ch=4 n=7 v=100
5016789 Off ch=4 n=22 v=0
5016789 Off ch=4 n=7 v=0
5017926 On ch=4 n=9 v=100
5018129 Off ch=4 n=9 v=0
5021757 On ch=4 n=11 v=100
5022247 Off ch=4 n=11 v=0
5022563 On ch=4 n=14 v=100
5023609 Off ch=4 n=14 v=0
5024114 On ch=4 n=28 v=100
5024138 On ch=4 n=3 v=100
5024210 Off ch=4 n=28 v=0
5025216 Off ch=4 n=3 v=0
5025221 On ch=4 n=11 v=100
5025221 On ch=4 n=2 v=100
5026252 Off ch=4 n=2 v=0
5026498 On ch=4 n=9 v=100
5026512 Off ch=4 n=11 v=0
5026647 Off ch=4 n=9 v=0
5042005 On ch=4 n=5 v=100
5042860 Off ch=4 n=5 v=0
5056176 On ch=4 n=6 v=100
5056392 Off ch=4 n=6 v=0
5063333 On ch=4 n=0 v=100
5063409 On ch=4 n=1 v=100
5063455 Off ch=4 n=0 v=0
5063855 Off ch=4 n=1 v=0
5067717 On ch=4 n=13 v=100
5068082 Off ch=4 n=13 v=0
5072322 On ch=4 n=19 v=100
5072477 Off ch=4 n=19 v=0
5072534 On ch=4 n=19 v=100
5072960 Off ch=4 n=19 v=0
5075098 On ch=4 n=6 v=100
5076844 Off ch=4 n=6 v=0
5082653 On ch=4 n=17 v=100
5082875 Off ch=4 n=17 v=0
5083093 On ch=4 n=6 v=100
5085610 Off ch=4 n=6 v=0
5085613 On ch=4 n=3 v=100
5086255 On ch=4 n=7 v=100
5086256 Off ch=4 n=3 v=0
5087165 Off ch=4 n=7 v=0
5089563 On ch=4 n=31 v=100
5089861 Off ch=4 n=31 v=0
5093932 On ch=4 n=17 v=100
5094079 Off ch=4 n=17 v=0
5096474 On ch=4 n=47 v=100
5096605 Off ch=4 n=47 v=0
5102646 On ch=4 n=10 v=100
5102815 Off ch=4 n=10 v=0
5103111 On ch=4 n=10 v=100
5103127 On ch=4 n=18 v=100
5103223 Off ch=4 n=10 v=0
5103512 Off ch=4 n=18 v=0
5110637 On ch=4 n=15 v=100
5110805 Off ch=4 n=15 v=0
5112814 On ch=4 n=11 v=100
5112954 Off ch=4 n=11 v=0
5116190 On ch=4 n=54 v=100
5116279 Off ch=4 n=54 v=0
5117653 On ch=4 n=17 v=100
5117971 Off ch=4 n=17 v=0
5118618 On ch=4 n=17 v=100
5118676 Off ch=4 n=17 v=0
5123706 On ch=4 n=17 v=100
5124177 Off ch=4 n=17 v=0
5125026 On ch=4 n=13 v=100
5125181 On ch=4 n=13 v=100
5125183 Off ch=4 n=13 v=0
5125573 Off ch=4 n=13 v=0
5145830 On ch=4 n=46 v=100
5147623 Off ch=4 n=46 v=0
5157593 On ch=4 n=66 v=100
5157593 On ch=4 n=66 v=100
5157790 Off ch=4 n=66 v=0
5157790 Off ch=4 n=66 v=0
5158623 On ch=4 n=66 v=100
5158623 On ch=4 n=66 v=100
5158820 Off ch=4 n=66 v=0
5158820 Off ch=4 n=66 v=0
5159670 On ch=4 n=67 v=100
5159670 On ch=4 n=67 v=100
5159850 Off ch=4 n=67 v=0
5159850 Off ch=4 n=67 v=0
5161123 On ch=4 n=12 v=100
5161265 Off ch=4 n=12 v=0
5165894 On ch=4 n=13 v=100
5166056 Off ch=4 n=13 v=0
5174343 On ch=4 n=23 v=100
5174437 Off ch=4 n=23 v=0
5174438 On ch=4 n=26 v=100
5175366 Off ch=4 n=26 v=0
5177509 On ch=4 n=37 v=100
5177509 On ch=4 n=22 v=100
5177707 Off ch=4 n=22 v=0
5177770 Off ch=4 n=37 v=0
5179301 On ch=4 n=26 v=100
5179358 Off ch=4 n=26 v=0
5183388 On ch=4 n=15 v=100
5183437 Off ch=4 n=15 v=0
5189180 On ch=4 n=34 v=100
5189269 Off ch=4 n=34 v=0
5189298 On ch=4 n=31 v=100
5189416 Off ch=4 n=31 v=0
5189496 On ch=4 n=39 v=100
5189584 On ch=4 n=46 v=100
5189589 Off ch=4 n=39 v=0
5189655 On ch=4 n=28 v=100
5189728 Off ch=4 n=46 v=0
5189734 Off ch=4 n=28 v=0
5189816 On ch=4 n=34 v=100
5189905 Off ch=4 n=34 v=0
5189932 On ch=4 n=31 v=100
5190052 Off ch=4 n=31 v=0
5190137 On ch=4 n=27 v=100
5190211 Off ch=4 n=27 v=0
5190289 On ch=4 n=39 v=100
5190383 Off ch=4 n=39 v=0
5190613 On ch=4 n=32 v=100
5190698 Off ch=4 n=32 v=0
5190761 On ch=4 n=40 v=100
5190761 On ch=4 n=40 v=100
5190860 Off ch=4 n=40 v=0
5190860 Off ch=4 n=40 v=0
5191078 On ch=4 n=34 v=100
5191177 Off ch=4 n=34 v=0
5191203 On ch=4 n=28 v=100
5191263 Off ch=4 n=28 v=0
5191329 On ch=4 n=36 v=100
5191422 Off ch=4 n=36 v=0
5191487 On ch=4 n=24 v=100
5191567 Off ch=4 n=24 v=0
5191653 On ch=4 n=30 v=100
5191736 Off ch=4 n=30 v=0
5191804 On ch=4 n=41 v=100
5191804 On ch=4 n=41 v=100
5191900 Off ch=4 n=41 v=0
5191900 Off ch=4 n=41 v=0
5192118 On ch=4 n=39 v=100
5192217 Off ch=4 n=39 v=0
5192280 On ch=4 n=36 v=100
5192359 Off ch=4 n=36 v=0
5192436 On ch=4 n=28 v=100
5192520 Off ch=4 n=28 v=0
5192912 On ch=4 n=33 v=100
5193010 Off ch=4 n=33 v=0
5193074 On ch=4 n=29 v=100
5193147 Off ch=4 n=29 v=0
5193230 On ch=4 n=33 v=100
5193314 Off ch=4 n=33 v=0
5193389 On ch=4 n=35 v=100
5193480 Off ch=4 n=35 v=0
5193556 On ch=4 n=32 v=100
5193644 Off ch=4 n=32 v=0
5193707 On ch=4 n=38 v=100
5193806 Off ch=4 n=38 v=0
5194024 On ch=4 n=34 v=100
5194123 Off ch=4 n=34 v=0
5194186 On ch=4 n=29 v=100
5194259 Off ch=4 n=29 v=0
5194342 On ch=4 n=32 v=100
5194426 Off ch=4 n=32 v=0
5194501 On ch=4 n=35 v=100
5194598 Off ch=4 n=35 v=0
5194666 On ch=4 n=33 v=100
5194743 Off ch=4 n=33 v=0
5194822 On ch=4 n=30 v=100
5194903 Off ch=4 n=30 v=0
5194947 On ch=4 n=13 v=100
5195082 On ch=4 n=4 v=100
5195234 Off ch=4 n=13 v=0
5195491 Off ch=4 n=4 v=0
5195532 On ch=4 n=37 v=100
5195623 Off ch=4 n=37 v=0
5195846 On ch=4 n=39 v=100
5195944 Off ch=4 n=39 v=0
5196014 On ch=4 n=33 v=100
5196088 Off ch=4 n=33 v=0
5196163 On ch=4 n=33 v=100
5196260 Off ch=4 n=33 v=0
5196322 On ch=4 n=30 v=100
5196398 Off ch=4 n=30 v=0
5196481 On ch=4 n=34 v=100
5196565 Off ch=4 n=34 v=0
5196640 On ch=4 n=37 v=100
5196738 Off ch=4 n=37 v=0
5196805 On ch=4 n=33 v=100
5196882 Off ch=4 n=33 v=0
5196958 On ch=4 n=31 v=100
5197050 Off ch=4 n=31 v=0
5197125 On ch=4 n=29 v=100
5197200 Off ch=4 n=29 v=0
5197276 On ch=4 n=33 v=100
5197360 Off ch=4 n=33 v=0
5197439 On ch=4 n=39 v=100
5197532 Off ch=4 n=39 v=0
5197753 On ch=4 n=28 v=100
5197844 Off ch=4 n=28 v=0
5198061 On ch=4 n=42 v=100
5198076 On ch=4 n=38 v=100
5198151 Off ch=4 n=42 v=0
5198168 Off ch=4 n=38 v=0
5198236 On ch=4 n=33 v=100
5198314 Off ch=4 n=33 v=0
5198399 On ch=4 n=35 v=100
5198472 Off ch=4 n=35 v=0
5198548 On ch=4 n=27 v=100
5198632 Off ch=4 n=27 v=0
5198712 On ch=4 n=43 v=100
5198802 Off ch=4 n=43 v=0
5198868 On ch=4 n=28 v=100
5198943 Off ch=4 n=28 v=0
5200437 On ch=4 n=40 v=100
5200535 Off ch=4 n=40 v=0
5200596 On ch=4 n=53 v=100
5200690 Off ch=4 n=53 v=0
5200755 On ch=4 n=35 v=100
5200840 Off ch=4 n=35 v=0
5201074 On ch=4 n=38 v=100
5201165 Off ch=4 n=38 v=0
5201384 On ch=4 n=28 v=100
5201458 Off ch=4 n=28 v=0
5201675 On ch=4 n=30 v=100
5201789 Off ch=4 n=30 v=0
5201872 On ch=4 n=31 v=100
5201952 Off ch=4 n=31 v=0
5202012 On ch=4 n=41 v=100
5202101 Off ch=4 n=41 v=0
5202642 On ch=4 n=36 v=100
5202732 Off ch=4 n=36 v=0
5204106 On ch=4 n=3 v=100
5204198 Off ch=4 n=3 v=0
5204200 On ch=4 n=3 v=100
5205084 Off ch=4 n=3 v=0
5208458 On ch=4 n=2 v=100
5209279 Off ch=4 n=2 v=0
5209281 On ch=4 n=0 v=100
5213792 Off ch=4 n=0 v=0
5213794 On ch=4 n=2 v=100
5213963 Off ch=4 n=2 v=0
5215266 On ch=4 n=2 v=100
5215831 Off ch=4 n=2 v=0
5215907 On ch=4 n=2 v=100
5215958 Off ch=4 n=2 v=0
5219966 On ch=4 n=10 v=100
5220018 Off ch=4 n=10 v=0
5220056 On ch=4 n=12 v=100
5220354 Off ch=4 n=12 v=0
5235223 On ch=4 n=15 v=100
5235426 Off ch=4 n=15 v=0
5265257 On ch=4 n=29 v=100
5265346 Off ch=4 n=29 v=0
5265531 On ch=4 n=19 v=100
5266717 Off ch=4 n=19 v=0
5267430 On ch=4 n=14 v=100
5267812 Off ch=4 n=14 v=0
5276719 On ch=4 n=15 v=100
5276880 Off ch=4 n=15 v=0
5282428 On ch=4 n=18 v=100
5282587 Off ch=4 n=18 v=0
5284903 On ch=4 n=7 v=100
5285289 Off ch=4 n=7 v=0
5291285 On ch=4 n=31 v=100
5291287 On ch=4 n=41 v=100
5291375 Off ch=4 n=31 v=0
5291387 Off ch=4 n=41 v=0
5293367 On ch=4 n=32 v=100
5293387 On ch=4 n=9 v=100
5293423 On ch=4 n=35 v=100
5293439 Off ch=4 n=32 v=0
5293440 Off ch=4 n=9 v=0
5293445 On ch=4 n=6 v=100
5293446 On ch=4 n=39 v=100
5293602 Off ch=4 n=35 v=0
5293605 Off ch=4 n=6 v=0
5293607 On ch=4 n=19 v=100
5293638 Off ch=4 n=39 v=0
5293945 Off ch=4 n=19 v=0
5317882 On ch=4 n=5 v=100
5318111 On ch=4 n=4 v=100
5318112 Off ch=4 n=5 v=0
5318992 Off ch=4 n=4 v=0
5320532 On ch=4 n=47 v=100
5322390 Off ch=4 n=47 v=0
5331678 On ch=4 n=7 v=100
5332596 Off ch=4 n=7 v=0
5332600 On ch=4 n=24 v=100
5333144 Off ch=4 n=24 v=0
5337569 On ch=4 n=14 v=100
5337716 Off ch=4 n=14 v=0
5338428 On ch=4 n=22 v=100
5338824 Off ch=4 n=22 v=0
5351468 On ch=4 n=22 v=100
5351680 Off ch=4 n=22 v=0
5351964 On ch=4 n=51 v=100
5352202 Off ch=4 n=51 v=0
5352511 On ch=4 n=42 v=100
5352778 On ch=4 n=3 v=100
5352785 Off ch=4 n=42 v=0
5353066 On ch=4 n=27 v=100
5353084 Off ch=4 n=3 v=0
5353213 Off ch=4 n=27 v=0
5353226 On ch=4 n=22 v=100
5353449 Off ch=4 n=22 v=0
5353919 On ch=4 n=11 v=100
5353956 Off ch=4 n=11 v=0
5360916 On ch=4 n=17 v=100
5361085 Off ch=4 n=17 v=0
5365478 On ch=4 n=40 v=100
5365661 Off ch=4 n=40 v=0
5368592 On ch=4 n=17 v=100
5368752 Off ch=4 n=17 v=0
5370239 On ch=4 n=34 v=100
5370279 On ch=4 n=8 v=100
5370492 Off ch=4 n=34 v=0
5370492 Off ch=4 n=8 v=0
5370516 On ch=4 n=31 v=100
5370738 Off ch=4 n=31 v=0
5372671 On ch=4 n=16 v=100
5372806 Off ch=4 n=16 v=0
5372954 On ch=4 n=18 v=100
5373184 Off ch=4 n=18 v=0
5373215 On ch=4 n=12 v=100
5373297 Off ch=4 n=12 v=0
5373701 On ch=4 n=7 v=100
5374106 Off ch=4 n=7 v=0
5377285 On ch=4 n=12 v=100
5377352 Off ch=4 n=12 v=0
5378984 On ch=4 n=7 v=100
5379122 Off ch=4 n=7 v=0
5380783 On ch=4 n=7 v=100
5380841 Off ch=4 n=7 v=0
5391223 On ch=4 n=55 v=100
5391451 Off ch=4 n=55 v=0
5397005 On ch=4 n=37 v=100
5397181 Off ch=4 n=37 v=0
5397423 On ch=4 n=7 v=100
5397542 Off ch=4 n=7 v=0
5413955 On ch=4 n=3 v=100
5417084 Off ch=4 n=3 v=0
5420969 On ch=4 n=12 v=100
5421040 Off ch=4 n=12 v=0
5421084 On ch=4 n=12 v=100
5421273 Off ch=4 n=12 v=0
5421276 On ch=4 n=4 v=100
5422086 Off ch=4 n=4 v=0
5424087 On ch=4 n=2 v=100
5424670 Off ch=4 n=2 v=0
5424680 On ch=4 n=8 v=100
5425233 On ch=4 n=30 v=100
5425332 On ch=4 n=28 v=100
5425459 Off ch=4 n=8 v=0
5426048 Off ch=4 n=30 v=0
5426090 On ch=4 n=38 v=100
5426213 Off ch=4 n=28 v=0
5426275 Off ch=4 n=38 v=0
5426928 On ch=4 n=8 v=100
5427251 Off ch=4 n=8 v=0
5427876 On ch=4 n=6 v=100
5428628 Off ch=4 n=6 v=0
5428630 On ch=4 n=5 v=100
5428882 Off ch=4 n=5 v=0
5430123 On ch=4 n=9 v=100
5430695 Off ch=4 n=9 v=0
5431782 On ch=4 n=2 v=100
5432269 On ch=4 n=1 v=100
5432269 Off ch=4 n=2 v=0
5433919 Off ch=4 n=1 v=0
5436304 On ch=4 n=6 v=100
5436649 Off ch=4 n=6 v=0
5436654 On ch=4 n=31 v=100
5436757 On ch=4 n=9 v=100
5436781 Off ch=4 n=31 v=0
5436906 Off ch=4 n=9 v=0
5437185 On ch=4 n=9 v=100
5437382 Off ch=4 n=9 v=0
5437438 On ch=4 n=9 v=100
5437841 Off ch=4 n=9 v=0
5438665 On ch=4 n=5 v=100
5439662 On ch=4 n=2 v=100
5439666 Off ch=4 n=5 v=0
5443714 Off ch=4 n=2 v=0
5443717 On ch=4 n=3 v=100
5445896 On ch=4 n=4 v=100
5445896 Off ch=4 n=3 v=0
5445983 Off ch=4 n=4 v=0
5446043 On ch=4 n=4 v=100
5448563 Off ch=4 n=4 v=0
5448641 On ch=4 n=4 v=100
5449322 On ch=4 n=29 v=100
5449447 Off ch=4 n=4 v=0
5449487 Off ch=4 n=29 v=0
5449619 On ch=4 n=22 v=100
5449708 Off ch=4 n=22 v=0
5450139 On ch=4 n=14 v=100
5450670 Off ch=4 n=14 v=0
5450741 On ch=4 n=12 v=100
5450810 On ch=4 n=10 v=100
5450830 Off ch=4 n=12 v=0
5450903 Off ch=4 n=10 v=0
5458915 On ch=4 n=10 v=100
5459446 Off ch=4 n=10 v=0
5460598 On ch=4 n=18 v=100
5460714 On ch=4 n=13 v=100
5460716 Off ch=4 n=18 v=0
5460790 Off ch=4 n=13 v=0
5460827 On ch=4 n=6 v=100
5461644 Off ch=4 n=6 v=0
5461647 On ch=4 n=6 v=100
5465849 On ch=4 n=32 v=100
5465907 On ch=4 n=9 v=100
5465909 On ch=4 n=8 v=100
5465914 Off ch=4 n=6 v=0
5465993 Off ch=4 n=32 v=0
5467360 Off ch=4 n=9 v=0
5467601 Off ch=4 n=8 v=0
5467623 On ch=4 n=15 v=100
5467806 On ch=4 n=9 v=100
5467978 Off ch=4 n=15 v=0
5468390 On ch=4 n=8 v=100
5468391 Off ch=4 n=9 v=0
5470122 On ch=4 n=26 v=100
5470187 Off ch=4 n=8 v=0
5470200 Off ch=4 n=26 v=0
5470212 On ch=4 n=16 v=100
5470350 Off ch=4 n=16 v=0
5473917 On ch=4 n=18 v=100
5474306 Off ch=4 n=18 v=0
5483003 On ch=4 n=37 v=100
5483183 Off ch=4 n=37 v=0
5483909 On ch=4 n=7 v=100
5484078 Off ch=4 n=7 v=0
5502401 On ch=4 n=9 v=100
5502748 Off ch=4 n=9 v=0
5502759 On ch=4 n=13 v=100
5502829 Off ch=4 n=13 v=0
5518228 On ch=4 n=6 v=100
5518758 Off ch=4 n=6 v=0
5519440 On ch=4 n=21 v=100
5519796 Off ch=4 n=21 v=0
5519798 On ch=4 n=43 v=100
5520821 On ch=4 n=10 v=100
5520845 Off ch=4 n=43 v=0
5520876 Off ch=4 n=10 v=0
5527860 On ch=4 n=18 v=100
5528039 Off ch=4 n=18 v=0
5529831 On ch=4 n=1 v=100
5530292 Off ch=4 n=1 v=0
5530294 On ch=4 n=0 v=100
5536956 Off ch=4 n=0 v=0
5536958 On ch=4 n=1 v=100
5537419 Off ch=4 n=1 v=0
5540193 On ch=4 n=18 v=100
5540364 Off ch=4 n=18 v=0
5598073 On ch=4 n=11 v=100
5598651 Off ch=4 n=11 v=0
5628043 On ch=4 n=16 v=100
5628317 Off ch=4 n=16 v=0
5628544 On ch=4 n=20 v=100
5628911 On ch=4 n=28 v=100
5628913 On ch=4 n=35 v=100
5628965 Off ch=4 n=20 v=0
5628974 Off ch=4 n=28 v=0
5629011 Off ch=4 n=35 v=0
5629283 On ch=4 n=23 v=100
5629301 On ch=4 n=18 v=100
5629426 Off ch=4 n=23 v=0
5629427 Off ch=4 n=18 v=0
5637555 On ch=4 n=10 v=100
5637714 Off ch=4 n=10 v=0
5640585 On ch=4 n=14 v=100
5640962 Off ch=4 n=14 v=0
5640964 On ch=4 n=2 v=100
5644856 Off ch=4 n=2 v=0
5644858 On ch=4 n=14 v=100
5645235 Off ch=4 n=14 v=0
5647051 On ch=4 n=47 v=100
5647291 Off ch=4 n=47 v=0
5652937 On ch=4 n=27 v=100
5653905 Off ch=4 n=27 v=0
5654995 On ch=4 n=29 v=100
5655079 Off ch=4 n=29 v=0
5657809 On ch=4 n=20 v=100
5657980 On ch=4 n=3 v=100
5658036 Off ch=4 n=20 v=0
5658290 Off ch=4 n=3 v=0
5658292 On ch=4 n=4 v=100
5661477 On ch=4 n=41 v=100
5662410 On ch=4 n=8 v=100
5662412 Off ch=4 n=4 v=0
5662651 Off ch=4 n=41 v=0
5664878 Off ch=4 n=8 v=0
5664881 On ch=4 n=17 v=100
5664991 On ch=4 n=4 v=100
5665332 Off ch=4 n=17 v=0
5665332 Off ch=4 n=4 v=0
5667707 On ch=4 n=3 v=100
5668528 Off ch=4 n=3 v=0
5668530 On ch=4 n=0 v=100
5673393 Off ch=4 n=0 v=0
5673395 On ch=4 n=3 v=100
5674216 Off ch=4 n=3 v=0
5675654 On ch=4 n=35 v=100
5675785 Off ch=4 n=35 v=0
5697065 On ch=4 n=4 v=100
5700342 Off ch=4 n=4 v=0
5700344 On ch=4 n=10 v=100
5701460 Off ch=4 n=10 v=0
5702096 On ch=4 n=46 v=100
5702344 Off ch=4 n=46 v=0
5706275 On ch=4 n=8 v=100
5706792 Off ch=4 n=8 v=0
5713775 On ch=4 n=24 v=100
5713864 Off ch=4 n=24 v=0
5729329 On ch=4 n=58 v=100
5729461 Off ch=4 n=58 v=0
5742380 On ch=4 n=17 v=100
5742697 Off ch=4 n=17 v=0
5746608 On ch=4 n=10 v=100
5746760 Off ch=4 n=10 v=0
5758266 On ch=4 n=17 v=100
5758434 Off ch=4 n=17 v=0
5765340 On ch=4 n=25 v=100
5766517 Off ch=4 n=25 v=0
5768691 On ch=4 n=37 v=100
5768691 On ch=4 n=23 v=100
5768889 Off ch=4 n=23 v=0
5768948 Off ch=4 n=37 v=0
5786663 On ch=4 n=13 v=100
5787610 Off ch=4 n=13 v=0
5788032 On ch=4 n=16 v=100
5788407 Off ch=4 n=16 v=0
5791009 On ch=4 n=15 v=100
5791099 Off ch=4 n=15 v=0
5791637 On ch=4 n=18 v=100
5791800 Off ch=4 n=18 v=0
5797514 On ch=4 n=6 v=100
5798082 Off ch=4 n=6 v=0
5824178 On ch=4 n=43 v=100
5824353 Off ch=4 n=43 v=0
5827364 On ch=4 n=7 v=100
5827928 Off ch=4 n=7 v=0
5827933 On ch=4 n=5 v=100
5828569 Off ch=4 n=5 v=0
5836421 On ch=4 n=11 v=100
5836498 On ch=4 n=50 v=100
5836814 Off ch=4 n=11 v=0
5836816 On ch=4 n=2 v=100
5838488 On ch=4 n=10 v=100
5838488 Off ch=4 n=50 v=0
5838488 Off ch=4 n=2 v=0
5838489 On ch=4 n=3 v=100
5838505 On ch=4 n=7 v=100
5838521 Off ch=4 n=3 v=0
5838526 Off ch=4 n=10 v=0
5839127 Off ch=4 n=7 v=0
5839464 On ch=4 n=8 v=100
5839725 Off ch=4 n=8 v=0
5840443 On ch=4 n=29 v=100
5840586 Off ch=4 n=29 v=0
5840613 On ch=4 n=29 v=100
5840614 On ch=4 n=29 v=100
5841205 On ch=4 n=8 v=100
5841330 Off ch=4 n=29 v=0
5841345 Off ch=4 n=29 v=0
5842157 Off ch=4 n=8 v=0
5845009 On ch=4 n=13 v=100
5845459 Off ch=4 n=13 v=0
5845738 On ch=4 n=10 v=100
5845865 On ch=4 n=13 v=100
5845912 Off ch=4 n=10 v=0
5846129 Off ch=4 n=13 v=0
5850639 On ch=4 n=45 v=100
5850802 Off ch=4 n=45 v=0
5858180 On ch=4 n=7 v=100
5858427 On ch=4 n=57 v=100
5858574 Off ch=4 n=7 v=0
5858576 On ch=4 n=10 v=100
5859509 Off ch=4 n=57 v=0
5859517 On ch=4 n=3 v=100
5859517 Off ch=4 n=10 v=0
5860083 On ch=4 n=51 v=100
5860367 On ch=4 n=43 v=100
5860391 On ch=4 n=2 v=100
5860393 On ch=4 n=47 v=100
5860396 Off ch=4 n=3 v=0
5860441 Off ch=4 n=51 v=0
5860536 Off ch=4 n=43 v=0
5862586 Off ch=4 n=2 v=0
5862588 On ch=4 n=7 v=100
5862933 Off ch=4 n=47 v=0
5862982 Off ch=4 n=7 v=0
5863234 On ch=4 n=15 v=100
5863612 Off ch=4 n=15 v=0
5865114 On ch=4 n=14 v=100
5865338 Off ch=4 n=14 v=0
5868315 On ch=4 n=13 v=100
5868363 Off ch=4 n=13 v=0
5868364 On ch=4 n=6 v=100
5868448 Off ch=4 n=6 v=0
5868471 On ch=4 n=4 v=100
5869047 Off ch=4 n=4 v=0
5869050 On ch=4 n=30 v=100
5869106 Off ch=4 n=30 v=0
5876827 On ch=4 n=22 v=100
5876989 Off ch=4 n=22 v=0
5906823 On ch=4 n=19 v=100
5906899 Off ch=4 n=19 v=0
5906911 On ch=4 n=13 v=100
5907060 Off ch=4 n=13 v=0
5907071 On ch=4 n=9 v=100
5907263 On ch=4 n=33 v=100
5907266 Off ch=4 n=9 v=0
5907524 Off ch=4 n=33 v=0
5908015 On ch=4 n=7 v=100
5908203 Off ch=4 n=7 v=0
5909092 On ch=4 n=13 v=100
5909180 Off ch=4 n=13 v=0
5909182 On ch=4 n=17 v=100
5909681 Off ch=4 n=17 v=0
5909799 On ch=4 n=17 v=100
5910154 Off ch=4 n=17 v=0
5911661 On ch=4 n=37 v=100
5911819 Off ch=4 n=37 v=0
5911896 On ch=4 n=22 v=100
5912666 Off ch=4 n=22 v=0
5917096 On ch=4 n=20 v=100
5918700 Off ch=4 n=20 v=0
5926239 On ch=4 n=0 v=100
5926695 Off ch=4 n=0 v=0
5927551 On ch=4 n=17 v=100
5927723 Off ch=4 n=17 v=0
5930217 On ch=4 n=17 v=100
5930594 Off ch=4 n=17 v=0
5940412 On ch=4 n=1 v=100
5940611 Off ch=4 n=1 v=0
5946238 On ch=4 n=65 v=100
5946425 Off ch=4 n=65 v=0
5946878 On ch=4 n=4 v=100
5947542 Off ch=4 n=4 v=0
5947544 On ch=4 n=4 v=100
5949194 Off ch=4 n=4 v=0
5951512 On ch=4 n=3 v=100
5955818 Off ch=4 n=3 v=0
5955820 On ch=4 n=3 v=100
5956220 Off ch=4 n=3 v=0
5975164 On ch=4 n=19 v=100
5975237 Off ch=4 n=19 v=0
5975255 On ch=4 n=8 v=100
5975419 Off ch=4 n=8 v=0
5977570 On ch=4 n=31 v=100
5977663 Off ch=4 n=31 v=0
5978005 On ch=4 n=27 v=100
5978039 On ch=4 n=30 v=100
5978306 Off ch=4 n=30 v=0
5978310 Off ch=4 n=27 v=0
5978660 On ch=4 n=4 v=100
5979316 Off ch=4 n=4 v=0
5979575 On ch=4 n=38 v=100
5979768 Off ch=4 n=38 v=0
5979872 On ch=4 n=50 v=100
5980113 Off ch=4 n=50 v=0
5981333 On ch=4 n=17 v=100
5981430 Off ch=4 n=17 v=0
5987098 On ch=4 n=4 v=100
5988943 Off ch=4 n=4 v=0
5991194 On ch=4 n=19 v=100
5992352 Off ch=4 n=19 v=0
5992357 On ch=4 n=8 v=100
5992721 Off ch=4 n=8 v=0
5992722 On ch=4 n=9 v=100
5993032 Off ch=4 n=9 v=0
5993872 On ch=4 n=9 v=100
5994343 Off ch=4 n=9 v=0
5995793 On ch=4 n=10 v=100
5995949 Off ch=4 n=10 v=0
5996355 On ch=4 n=11 v=100
5997214 Off ch=4 n=11 v=0
6002768 On ch=4 n=6 v=100
6002926 On ch=4 n=4 v=100
6002927 Off ch=4 n=6 v=0
6003050 Off ch=4 n=4 v=0
6003051 On ch=4 n=5 v=100
6003852 Off ch=4 n=5 v=0
6003892 On ch=4 n=8 v=100
6005328 Off ch=4 n=8 v=0
6007020 On ch=4 n=15 v=100
6007383 On ch=4 n=37 v=100
6007444 Off ch=4 n=15 v=0
6007446 On ch=4 n=7 v=100
6007475 Off ch=4 n=37 v=0
6007875 On ch=4 n=26 v=100
6008236 On ch=4 n=8 v=100
6008249 Off ch=4 n=7 v=0
6009076 On ch=4 n=67 v=100
6009078 Off ch=4 n=26 v=0
6009120 Off ch=4 n=8 v=0
6009122 On ch=4 n=15 v=100
6009427 Off ch=4 n=67 v=0
6009545 Off ch=4 n=15 v=0
6011139 On ch=4 n=13 v=100
6011417 Off ch=4 n=13 v=0
6012043 On ch=4 n=11 v=100
6012193 Off ch=4 n=11 v=0
6017712 On ch=4 n=18 v=100
6018232 Off ch=4 n=18 v=0
6018820 On ch=4 n=5 v=100
6018855 Off ch=4 n=5 v=0
6018857 On ch=4 n=19 v=100
6019026 Off ch=4 n=19 v=0
6019028 On ch=4 n=5 v=100
6019766 On ch=4 n=45 v=100
6019892 On ch=4 n=1 v=100
6019896 Off ch=4 n=5 v=0
6019916 Off ch=4 n=45 v=0
6022562 Off ch=4 n=1 v=0
6022566 On ch=4 n=22 v=100
6022735 Off ch=4 n=22 v=0
6035851 On ch=4 n=4 v=100
6036333 Off ch=4 n=4 v=0
6036630 On ch=4 n=5 v=100
6037495 Off ch=4 n=5 v=0
6038428 On ch=4 n=9 v=100
6038497 Off ch=4 n=9 v=0
6056576 On ch=4 n=4 v=100
6057171 Off ch=4 n=4 v=0
6064675 On ch=4 n=17 v=100
6064827 Off ch=4 n=17 v=0
6065378 On ch=4 n=15 v=100
6065469 Off ch=4 n=15 v=0
6068081 On ch=4 n=15 v=100
6068455 Off ch=4 n=15 v=0
6068861 On ch=4 n=16 v=100
6069444 Off ch=4 n=16 v=0
6071781 On ch=4 n=9 v=100
6072160 Off ch=4 n=9 v=0
6082070 On ch=4 n=1 v=100
6082269 Off ch=4 n=1 v=0
6091230 On ch=4 n=0 v=100
6091760 Off ch=4 n=0 v=0
6091762 On ch=4 n=41 v=100
6091763 On ch=4 n=98 v=100
6094413 On ch=4 n=0 v=100
6096888 Off ch=4 n=41 v=0
6097291 On ch=4 n=46 v=100
6097533 Off ch=4 n=98 v=0
6097676 Off ch=4 n=0 v=0
6097678 On ch=4 n=1 v=100
6097815 Off ch=4 n=46 v=0
6098208 Off ch=4 n=1 v=0
6099434 On ch=4 n=14 v=100
6099944 Off ch=4 n=14 v=0
6099946 On ch=4 n=3 v=100
6100591 Off ch=4 n=3 v=0
6100593 On ch=4 n=8 v=100
6100594 On ch=4 n=24 v=100
6100801 Off ch=4 n=8 v=0
6100926 Off ch=4 n=24 v=0
6100937 On ch=4 n=19 v=100
6101795 Off ch=4 n=19 v=0
6101804 On ch=4 n=3 v=100
6102342 On ch=4 n=54 v=100
6102956 On ch=4 n=2 v=100
6102973 Off ch=4 n=3 v=0
6103049 Off ch=4 n=54 v=0
6104768 On ch=4 n=1 v=100
6104770 Off ch=4 n=2 v=0
6104805 On ch=4 n=40 v=100
6105445 On ch=4 n=1 v=100
6105445 Off ch=4 n=1 v=0
6105846 Off ch=4 n=40 v=0
6106306 On ch=4 n=3 v=100
6106315 Off ch=4 n=1 v=0
6107197 Off ch=4 n=3 v=0
6107198 On ch=4 n=7 v=100
6109669 On ch=4 n=6 v=100
6109671 Off ch=4 n=7 v=0
6109797 Off ch=4 n=6 v=0
6109803 On ch=4 n=16 v=100
6110342 Off ch=4 n=16 v=0
6122039 On ch=4 n=3 v=100
6122814 Off ch=4 n=3 v=0
6124346 On ch=4 n=6 v=100
6124497 Off ch=4 n=6 v=0
6133400 On ch=4 n=8 v=100
6133727 Off ch=4 n=8 v=0
6148312 On ch=4 n=19 v=100
6148663 Off ch=4 n=19 v=0
6148665 On ch=4 n=6 v=100
6148668 On ch=4 n=57 v=100
6149109 Off ch=4 n=6 v=0
6149116 On ch=4 n=32 v=100
6149163 Off ch=4 n=57 v=0
6149188 Off ch=4 n=32 v=0
6151171 On ch=4 n=41 v=100
6151183 On ch=4 n=32 v=100
6151271 Off ch=4 n=41 v=0
6151273 Off ch=4 n=32 v=0
6154946 On ch=4 n=42 v=100
6155207 Off ch=4 n=42 v=0
6158161 On ch=4 n=58 v=100
6158161 On ch=4 n=58 v=100
6158368 Off ch=4 n=58 v=0
6158368 Off ch=4 n=58 v=0
6158455 On ch=4 n=27 v=100
6158562 Off ch=4 n=27 v=0
6159674 On ch=4 n=8 v=100
6160268 Off ch=4 n=8 v=0
6168204 On ch=4 n=17 v=100
6168363 Off ch=4 n=17 v=0
6172473 On ch=4 n=35 v=100
6172488 On ch=4 n=29 v=100
6172649 Off ch=4 n=35 v=0
6172671 Off ch=4 n=29 v=0
6173429 On ch=4 n=12 v=100
6173573 Off ch=4 n=12 v=0
6185754 On ch=4 n=13 v=100
6186131 Off ch=4 n=13 v=0
6194031 On ch=4 n=3 v=100
6194809 Off ch=4 n=3 v=0
6194811 On ch=4 n=1 v=100
6195852 On ch=4 n=5 v=100
6195855 Off ch=4 n=1 v=0
6196558 Off ch=4 n=5 v=0
6196560 On ch=4 n=0 v=100
6201386 Off ch=4 n=0 v=0
6201388 On ch=4 n=6 v=100
6202061 On ch=4 n=1 v=100
6202064 Off ch=4 n=6 v=0
6205716 Off ch=4 n=1 v=0
6205719 On ch=4 n=4 v=100
6206430 Off ch=4 n=4 v=0
6206432 On ch=4 n=5 v=100
6206807 Off ch=4 n=5 v=0
6208427 On ch=4 n=15 v=100
6208641 Off ch=4 n=15 v=0
6208643 On ch=4 n=2 v=100
6208684 Off ch=4 n=2 v=0
6210293 On ch=4 n=8 v=100
6211035 Off ch=4 n=8 v=0
6212459 On ch=4 n=10 v=100
6212557 Off ch=4 n=10 v=0
6214909 On ch=4 n=16 v=100
6215097 Off ch=4 n=16 v=0
6215626 On ch=4 n=19 v=100
6215785 Off ch=4 n=19 v=0
6216252 On ch=4 n=6 v=100
6217166 Off ch=4 n=6 v=0
6220076 On ch=4 n=46 v=100
6220293 Off ch=4 n=46 v=0
6244036 On ch=4 n=34 v=100
6244075 On ch=4 n=39 v=100
6244153 Off ch=4 n=34 v=0
6244187 Off ch=4 n=39 v=0
6250700 On ch=4 n=11 v=100
6250931 On ch=4 n=30 v=100
6250968 On ch=4 n=8 v=100
6251012 Off ch=4 n=11 v=0
6251027 Off ch=4 n=30 v=0
6251291 On ch=4 n=54 v=100
6251366 Off ch=4 n=8 v=0
6251611 On ch=4 n=8 v=100
6254256 Off ch=4 n=54 v=0
6255636 On ch=4 n=9 v=100
6255772 Off ch=4 n=8 v=0
6256212 Off ch=4 n=9 v=0
6285303 On ch=4 n=36 v=100
6285475 Off ch=4 n=36 v=0
6286158 On ch=4 n=50 v=100
6286329 Off ch=4 n=50 v=0
6287246 On ch=4 n=2 v=100
6287675 Off ch=4 n=2 v=0
6291259 On ch=4 n=18 v=100
6291428 Off ch=4 n=18 v=0
6298200 On ch=4 n=10 v=100
6298808 Off ch=4 n=10 v=0
6299978 On ch=4 n=14 v=100
6300309 On ch=4 n=11 v=100
6300811 Off ch=4 n=14 v=0
6300993 On ch=4 n=33 v=100
6301125 Off ch=4 n=11 v=0
6301148 On ch=4 n=8 v=100
6301149 Off ch=4 n=33 v=0
6301211 Off ch=4 n=8 v=0
6302260 On ch=4 n=5 v=100
6302599 Off ch=4 n=5 v=0
6302603 On ch=4 n=4 v=100
6303197 Off ch=4 n=4 v=0
6304322 On ch=4 n=6 v=100
6304334 On ch=4 n=2 v=100
6304392 Off ch=4 n=6 v=0
6310383 Off ch=4 n=2 v=0
6322997 On ch=4 n=17 v=100
6323060 Off ch=4 n=17 v=0
6326304 On ch=4 n=51 v=100
6326460 Off ch=4 n=51 v=0
6331110 On ch=4 n=55 v=100
6331265 Off ch=4 n=55 v=0
6333876 On ch=4 n=16 v=100
6334398 On ch=4 n=38 v=100
6334455 On ch=4 n=2 v=100
6334456 Off ch=4 n=16 v=0
6334661 Off ch=4 n=38 v=0
6337720 On ch=4 n=6 v=100
6337723 Off ch=4 n=2 v=0
6337855 Off ch=4 n=6 v=0
6337884 On ch=4 n=6 v=100
6339418 Off ch=4 n=6 v=0
6339424 On ch=4 n=6 v=100
6340060 Off ch=4 n=6 v=0
6346670 On ch=4 n=9 v=100
6346681 On ch=4 n=42 v=100
6346964 On ch=4 n=16 v=100
6346967 Off ch=4 n=9 v=0
6347010 Off ch=4 n=42 v=0
6347019 Off ch=4 n=16 v=0
6348025 On ch=4 n=15 v=100
6348406 Off ch=4 n=15 v=0
6357235 On ch=4 n=16 v=100
6357361 Off ch=4 n=16 v=0
6364953 On ch=4 n=22 v=100
6365349 Off ch=4 n=22 v=0
6366062 On ch=4 n=12 v=100
6366204 Off ch=4 n=12 v=0
6370654 On ch=4 n=23 v=100
6371198 Off ch=4 n=23 v=0
6371202 On ch=4 n=7 v=100
6372120 Off ch=4 n=7 v=0
6377038 On ch=4 n=3 v=100
6377650 Off ch=4 n=3 v=0
6377656 On ch=4 n=5 v=100
6379600 Off ch=4 n=5 v=0
6382409 On ch=4 n=2 v=100
6384484 Off ch=4 n=2 v=0
6384486 On ch=4 n=5 v=100
6385147 Off ch=4 n=5 v=0
6386584 On ch=4 n=62 v=100
6386762 Off ch=4 n=62 v=0
6408353 On ch=4 n=63 v=100
6408567 Off ch=4 n=63 v=0
6414135 On ch=4 n=12 v=100
6414713 Off ch=4 n=12 v=0
6426857 On ch=4 n=17 v=100
6427140 Off ch=4 n=17 v=0
6427302 On ch=4 n=33 v=100
6427367 On ch=4 n=19 v=100
6427485 Off ch=4 n=33 v=0
6427733 On ch=4 n=29 v=100
6427743 On ch=4 n=38 v=100
6427790 Off ch=4 n=19 v=0
6427798 Off ch=4 n=29 v=0
6427836 Off ch=4 n=38 v=0
6428108 On ch=4 n=22 v=100
6428125 On ch=4 n=18 v=100
6428250 Off ch=4 n=22 v=0
6428251 Off ch=4 n=18 v=0
6436410 On ch=4 n=15 v=100
6436571 Off ch=4 n=15 v=0
6442681 On ch=4 n=11 v=100
6442825 Off ch=4 n=11 v=0
6447180 On ch=4 n=28 v=100
6447466 Off ch=4 n=28 v=0
6452337 On ch=4 n=4 v=100
6453042 Off ch=4 n=4 v=0
6459498 On ch=4 n=32 v=100
6459569 Off ch=4 n=32 v=0
6467082 On ch=4 n=13 v=100
6467224 Off ch=4 n=13 v=0
6468526 On ch=4 n=31 v=100
6468756 Off ch=4 n=31 v=0
6468845 On ch=4 n=7 v=100
6469667 Off ch=4 n=7 v=0
6479373 On ch=4 n=15 v=100
6479725 Off ch=4 n=15 v=0
6484058 On ch=4 n=14 v=100
6484415 Off ch=4 n=14 v=0
6504250 On ch=4 n=9 v=100
6504465 Off ch=4 n=9 v=0
6504691 On ch=4 n=22 v=100
6504882 Off ch=4 n=22 v=0
6507388 On ch=4 n=41 v=100
6507641 Off ch=4 n=41 v=0
6508567 On ch=4 n=37 v=100
6508732 Off ch=4 n=37 v=0
6511144 On ch=4 n=19 v=100
6511313 Off ch=4 n=19 v=0
6515244 On ch=4 n=16 v=100
6515323 Off ch=4 n=16 v=0
6515398 On ch=4 n=4 v=100
6515589 Off ch=4 n=4 v=0
6515593 On ch=4 n=4 v=100
6515634 Off ch=4 n=4 v=0
6515636 On ch=4 n=4 v=100
6515825 Off ch=4 n=4 v=0
6515829 On ch=4 n=4 v=100
6515870 Off ch=4 n=4 v=0
6515872 On ch=4 n=4 v=100
6516063 Off ch=4 n=4 v=0
6516064 On ch=4 n=19 v=100
6516755 On ch=4 n=33 v=100
6516814 Off ch=4 n=19 v=0
6516846 Off ch=4 n=33 v=0
6516847 On ch=4 n=51 v=100
6516862 On ch=4 n=33 v=100
6516904 On ch=4 n=40 v=100
6517113 Off ch=4 n=33 v=0
6517170 Off ch=4 n=51 v=0
6517207 Off ch=4 n=40 v=0
6535377 On ch=4 n=4 v=100
6535527 Off ch=4 n=4 v=0
6538890 On ch=4 n=9 v=100
6539081 On ch=4 n=53 v=100
6539082 Off ch=4 n=9 v=0
6539174 On ch=4 n=57 v=100
6539323 On ch=4 n=10 v=100
6540358 Off ch=4 n=57 v=0
6540664 Off ch=4 n=53 v=0
6543381 On ch=4 n=7 v=100
6543464 Off ch=4 n=10 v=0
6543903 Off ch=4 n=7 v=0
6554511 On ch=4 n=12 v=100
6554659 Off ch=4 n=12 v=0
6559330 On ch=4 n=18 v=100
6559491 Off ch=4 n=18 v=0
6566468 On ch=4 n=25 v=100
6567630 Off ch=4 n=25 v=0
6569791 On ch=4 n=35 v=100
6569791 On ch=4 n=21 v=100
6569989 Off ch=4 n=21 v=0
6570051 Off ch=4 n=35 v=0
6573133 On ch=4 n=13 v=100
6573632 Off ch=4 n=13 v=0
6573634 On ch=4 n=10 v=100
6573710 On ch=4 n=0 v=100
6573712 Off ch=4 n=10 v=0
6573753 Off ch=4 n=0 v=0
6577520 On ch=4 n=3 v=100
6577670 Off ch=4 n=3 v=0
6577840 On ch=4 n=11 v=100
6577992 Off ch=4 n=11 v=0
6579957 On ch=4 n=4 v=100
6580663 Off ch=4 n=4 v=0
6580665 On ch=4 n=1 v=100
6584636 On ch=4 n=2 v=100
6584636 Off ch=4 n=1 v=0
6584721 Off ch=4 n=2 v=0
6584723 On ch=4 n=5 v=100
6584996 On ch=4 n=11 v=100
6585004 Off ch=4 n=5 v=0
6585006 On ch=4 n=1 v=100
6585022 Off ch=4 n=11 v=0
6585793 On ch=4 n=51 v=100
6586915 Off ch=4 n=1 v=0
6587052 Off ch=4 n=51 v=0
6589714 On ch=4 n=50 v=100
6589927 Off ch=4 n=50 v=0
6593790 On ch=4 n=13 v=100
6594137 Off ch=4 n=13 v=0
6596661 On ch=4 n=30 v=100
6596751 Off ch=4 n=30 v=0
6597417 On ch=4 n=21 v=100
6598656 Off ch=4 n=21 v=0
6599806 On ch=4 n=58 v=100
6599833 On ch=4 n=56 v=100
6599833 On ch=4 n=43 v=100
6599970 On ch=4 n=51 v=100
6599979 Off ch=4 n=58 v=0
6600001 Off ch=4 n=43 v=0
6600022 On ch=4 n=46 v=100
6600075 Off ch=4 n=56 v=0
6600456 Off ch=4 n=51 v=0
6600479 Off ch=4 n=46 v=0
6603479 On ch=4 n=12 v=100
6603639 Off ch=4 n=12 v=0
6613908 On ch=4 n=11 v=100
6614063 Off ch=4 n=11 v=0
6625324 On ch=4 n=6 v=100
6625458 Off ch=4 n=6 v=0
6625512 On ch=4 n=7 v=100
6626169 Off ch=4 n=7 v=0
6630996 On ch=4 n=51 v=100
6631065 On ch=4 n=31 v=100
6631086 Off ch=4 n=51 v=0
6631086 Off ch=4 n=31 v=0
6631131 On ch=4 n=51 v=100
6631131 On ch=4 n=31 v=100
6631189 Off ch=4 n=31 v=0
6631190 Off ch=4 n=51 v=0
6634214 On ch=4 n=20 v=100
6634390 Off ch=4 n=20 v=0
6658797 On ch=4 n=19 v=100
6658968 Off ch=4 n=19 v=0
6667006 On ch=4 n=18 v=100
6667350 Off ch=4 n=18 v=0
6682757 On ch=4 n=20 v=100
6682925 Off ch=4 n=20 v=0
6686838 On ch=4 n=36 v=100
6687023 Off ch=4 n=36 v=0
6687800 On ch=4 n=14 v=100
6687958 Off ch=4 n=14 v=0
6698326 On ch=4 n=7 v=100
6698407 Off ch=4 n=7 v=0
6699573 On ch=4 n=23 v=100
6699652 Off ch=4 n=23 v=0
6699674 On ch=4 n=28 v=100
6699771 Off ch=4 n=28 v=0
6702435 On ch=4 n=13 v=100
6702622 Off ch=4 n=13 v=0
6704176 On ch=4 n=13 v=100
6704637 Off ch=4 n=13 v=0
6705242 On ch=4 n=5 v=100
6705680 Off ch=4 n=5 v=0
6709690 On ch=4 n=18 v=100
6709801 On ch=4 n=12 v=100
6710159 Off ch=4 n=18 v=0
6710159 Off ch=4 n=12 v=0
6710833 On ch=4 n=16 v=100
6711321 On ch=4 n=21 v=100
6711415 Off ch=4 n=16 v=0
6711434 Off ch=4 n=21 v=0
6713442 On ch=4 n=14 v=100
6713824 On ch=4 n=1 v=100
6713835 Off ch=4 n=14 v=0
6714653 Off ch=4 n=1 v=0
6714654 On ch=4 n=10 v=100
6714817 Off ch=4 n=10 v=0
6714990 On ch=4 n=23 v=100
6715236 Off ch=4 n=23 v=0
6716415 On ch=4 n=10 v=100
6716524 On ch=4 n=7 v=100
6716527 Off ch=4 n=10 v=0
6716984 On ch=4 n=9 v=100
6716988 Off ch=4 n=7 v=0
6718919 On ch=4 n=30 v=100
6718974 Off ch=4 n=9 v=0
6719020 Off ch=4 n=30 v=0
6720606 On ch=4 n=1 v=100
6720734 On ch=4 n=52 v=100
6721147 Off ch=4 n=1 v=0
6721152 On ch=4 n=0 v=100
6725449 Off ch=4 n=0 v=0
6725451 On ch=4 n=1 v=100
6725655 Off ch=4 n=52 v=0
6725715 Off ch=4 n=1 v=0
6731465 On ch=4 n=0 v=100
6731756 Off ch=4 n=0 v=0
6731757 On ch=4 n=47 v=100
6731943 Off ch=4 n=47 v=0
6734767 On ch=4 n=50 v=100
6735027 Off ch=4 n=50 v=0
6743026 On ch=4 n=6 v=100
6743200 Off ch=4 n=6 v=0
6744653 On ch=4 n=15 v=100
6744723 Off ch=4 n=15 v=0
6744745 On ch=4 n=22 v=100
6744840 Off ch=4 n=22 v=0
6746828 On ch=4 n=12 v=100
6746981 Off ch=4 n=12 v=0
6747430 On ch=4 n=22 v=100
6747490 Off ch=4 n=22 v=0
6751392 On ch=4 n=11 v=100
6751520 Off ch=4 n=11 v=0
6751899 On ch=4 n=3 v=100
6752026 On ch=4 n=28 v=100
6752083 On ch=4 n=45 v=100
6752097 Off ch=4 n=3 v=0
6752099 On ch=4 n=0 v=100
6752120 Off ch=4 n=28 v=0
6752219 Off ch=4 n=45 v=0
6753432 On ch=4 n=44 v=100
6756998 Off ch=4 n=0 v=0
6757089 On ch=4 n=0 v=100
6758097 Off ch=4 n=44 v=0
6758440 On ch=4 n=2 v=100
6758442 Off ch=4 n=0 v=0
6758968 Off ch=4 n=2 v=0
6758970 On ch=4 n=11 v=100
6759099 Off ch=4 n=11 v=0
6759478 On ch=4 n=3 v=100
6759675 Off ch=4 n=3 v=0
6773086 On ch=4 n=16 v=100
6773413 Off ch=4 n=16 v=0
6778544 On ch=4 n=9 v=100
6778694 Off ch=4 n=9 v=0
6781066 On ch=4 n=7 v=100
6781123 Off ch=4 n=7 v=0
6786798 On ch=4 n=5 v=100
6786997 On ch=4 n=36 v=100
6786997 On ch=4 n=20 v=100
6787153 Off ch=4 n=5 v=0
6787175 Off ch=4 n=20 v=0
6787220 Off ch=4 n=36 v=0
6796193 On ch=4 n=6 v=100
6796577 Off ch=4 n=6 v=0
6796579 On ch=4 n=2 v=100
6800799 Off ch=4 n=2 v=0
6800801 On ch=4 n=6 v=100
6801185 Off ch=4 n=6 v=0
6802181 On ch=4 n=7 v=100
6802887 Off ch=4 n=7 v=0
6804922 On ch=4 n=6 v=100
6805716 Off ch=4 n=6 v=0
6807365 On ch=4 n=15 v=100
6807526 Off ch=4 n=15 v=0
6809337 On ch=4 n=13 v=100
6809497 Off ch=4 n=13 v=0
6819713 On ch=4 n=21 v=100
6819776 Off ch=4 n=21 v=0
6821171 On ch=4 n=5 v=100
6821849 On ch=4 n=55 v=100
6822072 Off ch=4 n=5 v=0
6822195 Off ch=4 n=55 v=0
6824227 On ch=4 n=24 v=100
6824665 Off ch=4 n=24 v=0
6826623 On ch=4 n=3 v=100
6826776 Off ch=4 n=3 v=0
6828667 On ch=4 n=13 v=100
6829032 Off ch=4 n=13 v=0
6839990 On ch=4 n=4 v=100
6840713 Off ch=4 n=4 v=0
6840714 On ch=4 n=5 v=100
6841493 Off ch=4 n=5 v=0
6841495 On ch=4 n=3 v=100
6845525 On ch=4 n=17 v=100
6845596 Off ch=4 n=3 v=0
6845611 Off ch=4 n=17 v=0
6848508 On ch=4 n=17 v=100
6848529 On ch=4 n=4 v=100
6848684 Off ch=4 n=17 v=0
6850447 On ch=4 n=7 v=100
6851380 On ch=4 n=4 v=100
6851382 Off ch=4 n=4 v=0
6853059 Off ch=4 n=7 v=0
6853467 Off ch=4 n=4 v=0
6853502 On ch=4 n=4 v=100
6854584 Off ch=4 n=4 v=0
6859183 On ch=4 n=25 v=100
6860406 Off ch=4 n=25 v=0
6860408 On ch=4 n=19 v=100
6860547 Off ch=4 n=19 v=0
6865787 On ch=4 n=5 v=100
6866543 Off ch=4 n=5 v=0
6867669 On ch=4 n=4 v=100
6868590 Off ch=4 n=4 v=0
6870118 On ch=4 n=17 v=100
6870275 Off ch=4 n=17 v=0
6872313 On ch=4 n=24 v=100
6872522 Off ch=4 n=24 v=0
6872758 On ch=4 n=2 v=100
6873420 Off ch=4 n=2 v=0
6877019 On ch=4 n=18 v=100
6877184 Off ch=4 n=18 v=0
6880048 On ch=4 n=27 v=100
6880581 Off ch=4 n=27 v=0
6880593 On ch=4 n=16 v=100
6880800 Off ch=4 n=16 v=0
6883126 On ch=4 n=14 v=100
6883494 Off ch=4 n=14 v=0
6883804 On ch=4 n=16 v=100
6884348 Off ch=4 n=16 v=0
6891315 On ch=4 n=4 v=100
6891714 Off ch=4 n=4 v=0
6892099 On ch=4 n=40 v=100
6892309 Off ch=4 n=40 v=0
6900671 On ch=4 n=41 v=100
6901035 Off ch=4 n=41 v=0
6903600 On ch=4 n=35 v=100
6903699 Off ch=4 n=35 v=0
6915876 On ch=4 n=42 v=100
6915958 Off ch=4 n=42 v=0
6922608 On ch=4 n=22 v=100
6922776 Off ch=4 n=22 v=0
6926635 On ch=4 n=11 v=100
6930462 Off ch=4 n=11 v=0
6932285 On ch=4 n=32 v=100
6932535 On ch=4 n=15 v=100
6932943 Off ch=4 n=32 v=0
6934361 Off ch=4 n=15 v=0
6935906 On ch=4 n=15 v=100
6936113 Off ch=4 n=15 v=0
6938103 On ch=4 n=7 v=100
6938920 Off ch=4 n=7 v=0
6941452 On ch=4 n=4 v=100
6944729 Off ch=4 n=4 v=0
6944731 On ch=4 n=3 v=100
6945187 Off ch=4 n=3 v=0
6946384 On ch=4 n=7 v=100
6946595 Off ch=4 n=7 v=0
6947027 On ch=4 n=70 v=100
6947211 Off ch=4 n=70 v=0
6949088 On ch=4 n=68 v=100
6949270 Off ch=4 n=68 v=0
6955717 On ch=4 n=16 v=100
6956079 Off ch=4 n=16 v=0
6957097 On ch=4 n=27 v=100
6958662 Off ch=4 n=27 v=0
6958837 On ch=4 n=15 v=100
6959029 On ch=4 n=9 v=100
6959177 Off ch=4 n=15 v=0
6959226 Off ch=4 n=9 v=0
6966501 On ch=4 n=3 v=100
6968717 Off ch=4 n=3 v=0
6975194 On ch=4 n=7 v=100
6975817 On ch=4 n=3 v=100
6975853 Off ch=4 n=7 v=0
6976710 Off ch=4 n=3 v=0
7000441 On ch=4 n=11 v=100
7000593 Off ch=4 n=11 v=0
7005300 On ch=4 n=20 v=100
7005468 Off ch=4 n=20 v=0
7011035 On ch=4 n=27 v=100
7012233 Off ch=4 n=27 v=0
7024390 On ch=4 n=12 v=100
7025349 Off ch=4 n=12 v=0
7025770 On ch=4 n=15 v=100
7026115 Off ch=4 n=15 v=0
7028707 On ch=4 n=14 v=100
7028800 Off ch=4 n=14 v=0
7029342 On ch=4 n=19 v=100
7029505 Off ch=4 n=19 v=0
7035263 On ch=4 n=35 v=100
7035263 On ch=4 n=35 v=100
7035358 Off ch=4 n=35 v=0
7035358 Off ch=4 n=35 v=0
7035424 On ch=4 n=41 v=100
7035514 Off ch=4 n=41 v=0
7035757 On ch=4 n=25 v=100
7035836 Off ch=4 n=25 v=0
7035902 On ch=4 n=36 v=100
7035983 Off ch=4 n=36 v=0
7036234 On ch=4 n=25 v=100
7036307 Off ch=4 n=25 v=0
7036733 On ch=4 n=42 v=100
7036815 Off ch=4 n=42 v=0
7037190 On ch=4 n=28 v=100
7037265 Off ch=4 n=28 v=0
7037347 On ch=4 n=17 v=100
7037423 Off ch=4 n=17 v=0
7037493 On ch=4 n=29 v=100
7037587 Off ch=4 n=29 v=0
7037653 On ch=4 n=40 v=100
7037787 Off ch=4 n=40 v=0
7037983 On ch=4 n=34 v=100
7038062 Off ch=4 n=34 v=0
7038301 On ch=4 n=30 v=100
7038376 Off ch=4 n=30 v=0
7038438 On ch=4 n=34 v=100
7038534 Off ch=4 n=34 v=0
7038610 On ch=4 n=35 v=100
7038697 Off ch=4 n=35 v=0
7038779 On ch=4 n=29 v=100
7038858 Off ch=4 n=29 v=0
7038924 On ch=4 n=44 v=100
7039057 Off ch=4 n=44 v=0
7039241 On ch=4 n=40 v=100
7039241 On ch=4 n=40 v=100
7039376 Off ch=4 n=40 v=0
7039376 Off ch=4 n=40 v=0
7039413 On ch=4 n=36 v=100
7039492 Off ch=4 n=36 v=0
7039574 On ch=4 n=34 v=100
7039695 Off ch=4 n=34 v=0
7039877 On ch=4 n=30 v=100
7039877 On ch=4 n=30 v=100
7039972 Off ch=4 n=30 v=0
7039972 Off ch=4 n=30 v=0
7040038 On ch=4 n=35 v=100
7040172 Off ch=4 n=35 v=0
7040209 On ch=4 n=28 v=100
7040288 Off ch=4 n=28 v=0
7040356 On ch=4 n=31 v=100
7040447 Off ch=4 n=31 v=0
7040680 On ch=4 n=31 v=100
7040768 Off ch=4 n=31 v=0
7040832 On ch=4 n=26 v=100
7040915 Off ch=4 n=26 v=0
7041093 On ch=4 n=7 v=100
7041720 Off ch=4 n=7 v=0
7042274 On ch=4 n=6 v=100
7042590 Off ch=4 n=6 v=0
7042592 On ch=4 n=6 v=100
7044060 On ch=4 n=6 v=100
7044066 Off ch=4 n=6 v=0
7044275 Off ch=4 n=6 v=0
7067314 On ch=4 n=4 v=100
7067417 On ch=4 n=4 v=100
7067418 Off ch=4 n=4 v=0
7068009 Off ch=4 n=4 v=0
7068011 On ch=4 n=3 v=100
7068342 Off ch=4 n=3 v=0
7072920 On ch=4 n=17 v=100
7072970 Off ch=4 n=17 v=0
7075630 On ch=4 n=13 v=100
7075679 Off ch=4 n=13 v=0
7079946 On ch=4 n=36 v=100
7080008 On ch=4 n=21 v=100
7080206 Off ch=4 n=36 v=0
7080206 Off ch=4 n=21 v=0
7082354 On ch=4 n=26 v=100
7083526 Off ch=4 n=26 v=0
7083530 On ch=4 n=21 v=100
7083667 Off ch=4 n=21 v=0
7087302 On ch=4 n=22 v=100
7087468 Off ch=4 n=22 v=0
7094960 On ch=4 n=15 v=100
7095133 Off ch=4 n=15 v=0
7100858 On ch=4 n=22 v=100
7101027 Off ch=4 n=22 v=0
7114444 On ch=4 n=16 v=100
7114901 On ch=4 n=31 v=100
7114904 Off ch=4 n=16 v=0
7114962 Off ch=4 n=31 v=0
7115990 On ch=4 n=14 v=100
7116083 Off ch=4 n=14 v=0
7116088 On ch=4 n=1 v=100
7116410 Off ch=4 n=1 v=0
7116420 On ch=4 n=21 v=100
7116644 Off ch=4 n=21 v=0
7116704 On ch=4 n=2 v=100
7117657 Off ch=4 n=2 v=0
7122652 On ch=4 n=17 v=100
7122654 On ch=4 n=3 v=100
7122744 Off ch=4 n=3 v=0
7122745 On ch=4 n=14 v=100
7122753 Off ch=4 n=17 v=0
7123363 Off ch=4 n=14 v=0
7123882 On ch=4 n=23 v=100
7125547 On ch=4 n=13 v=100
7125558 Off ch=4 n=23 v=0
7125667 Off ch=4 n=13 v=0
7129801 On ch=4 n=22 v=100
7130118 Off ch=4 n=22 v=0
7130732 On ch=4 n=2 v=100
7131049 Off ch=4 n=2 v=0
7132386 On ch=4 n=7 v=100
7133101 On ch=4 n=15 v=100
7133112 Off ch=4 n=7 v=0
7133380 Off ch=4 n=15 v=0
7134929 On ch=4 n=5 v=100
7136374 Off ch=4 n=5 v=0
7136376 On ch=4 n=0 v=100
7141550 Off ch=4 n=0 v=0
7141552 On ch=4 n=5 v=100
7142999 Off ch=4 n=5 v=0
7143172 On ch=4 n=20 v=100
7143344 Off ch=4 n=20 v=0
7144041 On ch=4 n=33 v=100
7144222 Off ch=4 n=33 v=0
7149992 On ch=4 n=17 v=100
7150167 Off ch=4 n=17 v=0
7154593 On ch=4 n=14 v=100
7154680 Off ch=4 n=14 v=0
7155231 On ch=4 n=23 v=100
7155390 Off ch=4 n=23 v=0
7161688 On ch=4 n=10 v=100
7161737 On ch=4 n=18 v=100
7161885 Off ch=4 n=10 v=0
7162091 Off ch=4 n=18 v=0
7162267 On ch=4 n=29 v=100
7163839 Off ch=4 n=29 v=0
7166118 On ch=4 n=16 v=100
7166480 Off ch=4 n=16 v=0
7193968 On ch=4 n=4 v=100
7194849 Off ch=4 n=4 v=0
7206399 On ch=4 n=18 v=100
7206716 Off ch=4 n=18 v=0
7211152 On ch=4 n=12 v=100
7211306 Off ch=4 n=12 v=0
7219520 On ch=4 n=1 v=100
7219669 Off ch=4 n=1 v=0
7219671 On ch=4 n=1 v=100
7222818 Off ch=4 n=1 v=0
7222993 On ch=4 n=3 v=100
7223581 Off ch=4 n=3 v=0
7223583 On ch=4 n=2 v=100
7223731 Off ch=4 n=2 v=0
7225966 On ch=4 n=4 v=100
7226474 Off ch=4 n=4 v=0
7229768 On ch=4 n=20 v=100
7229941 Off ch=4 n=20 v=0
7230805 On ch=4 n=33 v=100
7231198 Off ch=4 n=33 v=0
7241648 On ch=4 n=36 v=100
7241842 Off ch=4 n=36 v=0
7242378 On ch=4 n=36 v=100
7242662 Off ch=4 n=36 v=0
7251943 On ch=4 n=14 v=100
7252057 Off ch=4 n=14 v=0
7254136 On ch=4 n=31 v=100
7254332 Off ch=4 n=31 v=0
7254757 On ch=4 n=31 v=100
7254999 Off ch=4 n=31 v=0
7255953 On ch=4 n=40 v=100
7256258 Off ch=4 n=40 v=0
7256344 On ch=4 n=40 v=100
7256447 Off ch=4 n=40 v=0
7259366 On ch=4 n=47 v=100
7259436 On ch=4 n=23 v=100
7259627 Off ch=4 n=47 v=0
7259635 Off ch=4 n=23 v=0
7282028 On ch=4 n=38 v=100
7282162 On ch=4 n=52 v=100
7282166 Off ch=4 n=38 v=0
7282550 Off ch=4 n=52 v=0
7283569 On ch=4 n=53 v=100
7283948 On ch=4 n=37 v=100
7283963 Off ch=4 n=53 v=0
7284144 Off ch=4 n=37 v=0
7286806 On ch=4 n=21 v=100
7286854 Off ch=4 n=21 v=0
7287386 On ch=4 n=4 v=100
7288911 Off ch=4 n=4 v=0
7288989 On ch=4 n=41 v=100
7288989 On ch=4 n=4 v=100
7289192 On ch=4 n=8 v=100
7289192 Off ch=4 n=4 v=0
7289290 Off ch=4 n=41 v=0
7289290 Off ch=4 n=8 v=0
7289358 On ch=4 n=41 v=100
7289358 On ch=4 n=8 v=100
7289815 On ch=4 n=23 v=100
7289817 Off ch=4 n=8 v=0
7289818 Off ch=4 n=41 v=0
7290003 Off ch=4 n=23 v=0
7290492 On ch=4 n=11 v=100
7290527 Off ch=4 n=11 v=0
7297822 On ch=4 n=16 v=100
7297990 Off ch=4 n=16 v=0
7306462 On ch=4 n=15 v=100
7306616 Off ch=4 n=15 v=0
7310564 On ch=4 n=8 v=100
7311007 Off ch=4 n=8 v=0
7313188 On ch=4 n=17 v=100
7313323 Off ch=4 n=17 v=0
7313471 On ch=4 n=16 v=100
7313702 Off ch=4 n=16 v=0
7313733 On ch=4 n=14 v=100
7314159 Off ch=4 n=14 v=0
7314162 On ch=4 n=3 v=100
7314217 Off ch=4 n=3 v=0
7314620 On ch=4 n=7 v=100
7315027 Off ch=4 n=7 v=0
7315904 On ch=4 n=23 v=100
7315904 On ch=4 n=5 v=100
7316706 Off ch=4 n=5 v=0
7316907 Off ch=4 n=23 v=0
7317944 On ch=4 n=3 v=100
7318111 Off ch=4 n=3 v=0
7320600 On ch=4 n=3 v=100
7321293 Off ch=4 n=3 v=0
7321295 On ch=4 n=4 v=100
7324305 On ch=4 n=3 v=100
7324305 Off ch=4 n=4 v=0
7326494 Off ch=4 n=3 v=0
7326497 On ch=4 n=6 v=100
7327055 Off ch=4 n=6 v=0
7327233 On ch=4 n=6 v=100
7327269 Off ch=4 n=6 v=0
7328916 On ch=4 n=12 v=100
7328994 Off ch=4 n=12 v=0
7330577 On ch=4 n=4 v=100
7330667 Off ch=4 n=4 v=0
7332504 On ch=4 n=22 v=100
7332688 Off ch=4 n=22 v=0
7336303 On ch=4 n=10 v=100
7336812 Off ch=4 n=10 v=0
7339714 On ch=4 n=22 v=100
7340061 Off ch=4 n=22 v=0
7340424 On ch=4 n=20 v=100
7340609 Off ch=4 n=20 v=0
7346145 On ch=4 n=5 v=100
7346352 On ch=4 n=8 v=100
7346357 Off ch=4 n=5 v=0
7347539 Off ch=4 n=8 v=0
7367192 On ch=4 n=4 v=100
7368567 Off ch=4 n=4 v=0
7372968 On ch=4 n=8 v=100
7373108 Off ch=4 n=8 v=0
7374873 On ch=4 n=18 v=100
7375041 Off ch=4 n=18 v=0
7376117 On ch=4 n=4 v=100
7376505 Off ch=4 n=4 v=0
7384925 On ch=4 n=13 v=100
7385305 Off ch=4 n=13 v=0
7385820 On ch=4 n=9 v=100
7386080 Off ch=4 n=9 v=0
7386265 On ch=4 n=29 v=100
7386354 Off ch=4 n=29 v=0
7409608 On ch=4 n=14 v=100
7409962 Off ch=4 n=14 v=0
7414113 On ch=4 n=16 v=100
7414465 Off ch=4 n=16 v=0
7418693 On ch=4 n=27 v=100
7418726 On ch=4 n=11 v=100
7418920 Off ch=4 n=27 v=0
7418943 Off ch=4 n=11 v=0
7419097 On ch=4 n=13 v=100
7419625 Off ch=4 n=13 v=0
7434336 On ch=4 n=42 v=100
7434606 Off ch=4 n=42 v=0
7434660 On ch=4 n=42 v=100
7434755 Off ch=4 n=42 v=0
7438766 On ch=4 n=6 v=100
7438886 Off ch=4 n=6 v=0
7438893 On ch=4 n=6 v=100
7438985 Off ch=4 n=6 v=0
7442582 On ch=4 n=11 v=100
7442692 Off ch=4 n=11 v=0
7442727 On ch=4 n=22 v=100
7442902 Off ch=4 n=22 v=0
7442979 On ch=4 n=16 v=100
7443257 Off ch=4 n=16 v=0
7449973 On ch=4 n=6 v=100
7450542 Off ch=4 n=6 v=0
7450640 On ch=4 n=4 v=100
7451028 Off ch=4 n=4 v=0
7451030 On ch=4 n=4 v=100
7453855 On ch=4 n=53 v=100
7454287 Off ch=4 n=4 v=0
7454288 On ch=4 n=4 v=100
7456980 Off ch=4 n=53 v=0
7458112 Off ch=4 n=4 v=0
7460527 On ch=4 n=6 v=100
7460767 Off ch=4 n=6 v=0
7460769 On ch=4 n=4 v=100
7460814 Off ch=4 n=4 v=0
7461029 On ch=4 n=8 v=100
7461233 Off ch=4 n=8 v=0
7473156 On ch=4 n=51 v=100
7473243 Off ch=4 n=51 v=0
7510166 On ch=4 n=4 v=100
7510497 Off ch=4 n=4 v=0
7510500 On ch=4 n=4 v=100
7511083 On ch=4 n=4 v=100
7511083 Off ch=4 n=4 v=0
7511187 Off ch=4 n=4 v=0
7527802 On ch=4 n=15 v=100
7527965 Off ch=4 n=15 v=0
7533587 On ch=4 n=14 v=100
7533748 Off ch=4 n=14 v=0
7538066 On ch=4 n=17 v=100
7538257 Off ch=4 n=17 v=0
7544531 On ch=4 n=10 v=100
7544583 On ch=4 n=9 v=100
7544586 Off ch=4 n=10 v=0
7545029 Off ch=4 n=9 v=0
7545682 On ch=4 n=10 v=100
7546267 Off ch=4 n=10 v=0
7546281 On ch=4 n=20 v=100
7546591 Off ch=4 n=20 v=0
7547260 On ch=4 n=6 v=100
7547790 Off ch=4 n=6 v=0
7562786 On ch=4 n=6 v=100
7563177 Off ch=4 n=6 v=0
7564233 On ch=4 n=2 v=100
7566086 On ch=4 n=10 v=100
7566092 Off ch=4 n=2 v=0
7566606 Off ch=4 n=10 v=0
7566608 On ch=4 n=3 v=100
7573266 Off ch=4 n=3 v=0
7573268 On ch=4 n=2 v=100
7573871 Off ch=4 n=2 v=0
7573873 On ch=4 n=4 v=100
7576030 On ch=4 n=4 v=100
7578026 Off ch=4 n=4 v=0
7579463 Off ch=4 n=4 v=0
7581429 On ch=4 n=2 v=100
7581552 Off ch=4 n=2 v=0
7581554 On ch=4 n=4 v=100
7582230 Off ch=4 n=4 v=0
7586886 On ch=4 n=3 v=100
7587236 Off ch=4 n=3 v=0
7588394 On ch=4 n=3 v=100
7589482 Off ch=4 n=3 v=0
7605352 On ch=4 n=3 v=100
7606831 Off ch=4 n=3 v=0
7606836 On ch=4 n=4 v=100
7607748 Off ch=4 n=4 v=0
7618117 On ch=4 n=16 v=100
7618266 Off ch=4 n=16 v=0
7626701 On ch=4 n=11 v=100
7627120 Off ch=4 n=11 v=0
7628272 On ch=4 n=12 v=100
7628607 On ch=4 n=11 v=100
7628846 Off ch=4 n=12 v=0
7629302 On ch=4 n=9 v=100
7629325 Off ch=4 n=11 v=0
7629348 On ch=4 n=9 v=100
7629349 Off ch=4 n=9 v=0
7629411 Off ch=4 n=9 v=0
7634348 On ch=4 n=1 v=100
7635628 Off ch=4 n=1 v=0
7635630 On ch=4 n=0 v=100
7638503 Off ch=4 n=0 v=0
7638505 On ch=4 n=1 v=100
7638834 Off ch=4 n=1 v=0
7641292 On ch=4 n=19 v=100
7641408 Off ch=4 n=19 v=0
7641427 On ch=4 n=25 v=100
7641575 Off ch=4 n=25 v=0
7643542 On ch=4 n=22 v=100
7643867 Off ch=4 n=22 v=0
7654906 On ch=4 n=59 v=100
7654906 On ch=4 n=59 v=100
7655037 Off ch=4 n=59 v=0
7655037 Off ch=4 n=59 v=0
7669195 On ch=4 n=11 v=100
7669347 Off ch=4 n=11 v=0
7675785 On ch=4 n=14 v=100
7675945 Off ch=4 n=14 v=0
7683216 On ch=4 n=27 v=100
7684416 Off ch=4 n=27 v=0
7693660 On ch=4 n=18 v=100
7693708 On ch=4 n=6 v=100
7693708 Off ch=4 n=18 v=0
7694214 On ch=4 n=1 v=100
7694259 Off ch=4 n=6 v=0
7695096 Off ch=4 n=1 v=0
7695098 On ch=4 n=0 v=100
7701370 Off ch=4 n=0 v=0
7701372 On ch=4 n=0 v=100
7702254 Off ch=4 n=0 v=0
7702255 On ch=4 n=6 v=100
7702474 Off ch=4 n=6 v=0
7702475 On ch=4 n=9 v=100
7702583 Off ch=4 n=9 v=0
7704817 On ch=4 n=5 v=100
7705037 On ch=4 n=24 v=100
7705037 Off ch=4 n=5 v=0
7705548 Off ch=4 n=24 v=0
7705550 On ch=4 n=6 v=100
7707011 On ch=4 n=7 v=100
7707012 Off ch=4 n=6 v=0
7707195 Off ch=4 n=7 v=0
7707201 On ch=4 n=6 v=100
7708347 Off ch=4 n=6 v=0
7708351 On ch=4 n=5 v=100
7708805 On ch=4 n=53 v=100
7708873 Off ch=4 n=5 v=0
7708889 Off ch=4 n=53 v=0
7713168 On ch=4 n=11 v=100
7713385 On ch=4 n=29 v=100
7713479 Off ch=4 n=11 v=0
7713568 On ch=4 n=22 v=100
7713578 Off ch=4 n=29 v=0
7715265 Off ch=4 n=22 v=0
7715269 On ch=4 n=31 v=100
7715330 Off ch=4 n=31 v=0
7715351 On ch=4 n=17 v=100
7715930 On ch=4 n=14 v=100
7715935 Off ch=4 n=17 v=0
7716017 Off ch=4 n=14 v=0
7720135 On ch=4 n=57 v=100
7720204 On ch=4 n=24 v=100
7720491 On ch=4 n=19 v=100
7720503 Off ch=4 n=24 v=0
7720569 Off ch=4 n=57 v=0
7720697 On ch=4 n=19 v=100
7720697 Off ch=4 n=19 v=0
7720740 Off ch=4 n=19 v=0
7720776 On ch=4 n=19 v=100
7721115 Off ch=4 n=19 v=0
7722854 On ch=4 n=23 v=100
7722968 Off ch=4 n=23 v=0
7726430 On ch=4 n=22 v=100
7726506 On ch=4 n=22 v=100
7726519 Off ch=4 n=22 v=0
7726521 Off ch=4 n=22 v=0
7726849 On ch=4 n=22 v=100
7726968 Off ch=4 n=22 v=0
7730431 On ch=4 n=15 v=100
7730605 On ch=4 n=53 v=100
7730802 Off ch=4 n=15 v=0
7730827 Off ch=4 n=53 v=0
7732407 On ch=4 n=6 v=100
7732592 Off ch=4 n=6 v=0
7732607 On ch=4 n=2 v=100
7732796 On ch=4 n=57 v=100
7732886 On ch=4 n=55 v=100
7733151 On ch=4 n=14 v=100
7733157 Off ch=4 n=2 v=0
7733470 Off ch=4 n=57 v=0
7733471 Off ch=4 n=14 v=0
7733476 On ch=4 n=11 v=100
7733481 Off ch=4 n=55 v=0
7734144 Off ch=4 n=11 v=0
7735992 On ch=4 n=4 v=100
7736218 Off ch=4 n=4 v=0
7738927 On ch=4 n=6 v=100
7739810 On ch=4 n=8 v=100
7739834 Off ch=4 n=6 v=0
7740341 Off ch=4 n=8 v=0
7740396 On ch=4 n=8 v=100
7740573 Off ch=4 n=8 v=0
7740575 On ch=4 n=0 v=100
7744031 On ch=4 n=1 v=100
7746028 Off ch=4 n=0 v=0
7746074 Off ch=4 n=1 v=0
7746076 On ch=4 n=6 v=100
7746967 On ch=4 n=8 v=100
7746991 Off ch=4 n=6 v=0
7747498 Off ch=4 n=8 v=0
7747565 On ch=4 n=8 v=100
7747742 Off ch=4 n=8 v=0
7750959 On ch=4 n=14 v=100
7751292 Off ch=4 n=14 v=0
7758034 On ch=4 n=7 v=100
7758774 Off ch=4 n=7 v=0
7758830 On ch=4 n=27 v=100
7759043 Off ch=4 n=27 v=0
7760362 On ch=4 n=13 v=100
7760504 Off ch=4 n=13 v=0
7771459 On ch=4 n=1 v=100
7771722 Off ch=4 n=1 v=0
7771973 On ch=4 n=4 v=100
7773683 Off ch=4 n=4 v=0
7773685 On ch=4 n=1 v=100
7777604 On ch=4 n=4 v=100
7777609 Off ch=4 n=1 v=0
7778030 Off ch=4 n=4 v=0
7779665 On ch=4 n=48 v=100
7781422 Off ch=4 n=48 v=0
7801812 On ch=4 n=3 v=100
7803087 Off ch=4 n=3 v=0
7807050 On ch=4 n=5 v=100
7807655 Off ch=4 n=5 v=0
7808545 On ch=4 n=8 v=100
7809025 Off ch=4 n=8 v=0
7820077 On ch=4 n=29 v=100
7820188 Off ch=4 n=29 v=0
7820261 On ch=4 n=20 v=100
7820414 Off ch=4 n=20 v=0
7833776 On ch=4 n=31 v=100
7834323 Off ch=4 n=31 v=0
7844999 On ch=4 n=15 v=100
7845357 Off ch=4 n=15 v=0
7848989 On ch=4 n=16 v=100
7849335 Off ch=4 n=16 v=0
7854666 On ch=4 n=7 v=100
7854912 Off ch=4 n=7 v=0
7856521 On ch=4 n=7 v=100
7857070 Off ch=4 n=7 v=0
7857076 On ch=4 n=27 v=100
7857181 Off ch=4 n=27 v=0
7858697 On ch=4 n=12 v=100
7858838 Off ch=4 n=12 v=0
7866847 On ch=4 n=43 v=100
7866921 Off ch=4 n=43 v=0
7869529 On ch=4 n=31 v=100
7869830 Off ch=4 n=31 v=0
7872475 On ch=4 n=23 v=100
7872630 Off ch=4 n=23 v=0
7878047 On ch=4 n=4 v=100
7879566 Off ch=4 n=4 v=0
7879911 On ch=4 n=2 v=100
7880109 Off ch=4 n=2 v=0
7880111 On ch=4 n=1 v=100
7880437 On ch=4 n=1 v=100
7880437 Off ch=4 n=1 v=0
7882153 Off ch=4 n=1 v=0
7899209 On ch=4 n=3 v=100
7900137 Off ch=4 n=3 v=0
7901111 On ch=4 n=4 v=100
7902196 Off ch=4 n=4 v=0
7916644 On ch=4 n=3 v=100
7917112 Off ch=4 n=3 v=0
7917264 On ch=4 n=7 v=100
7917456 Off ch=4 n=7 v=0
7917540 On ch=4 n=24 v=100
7917769 On ch=4 n=37 v=100
7917826 Off ch=4 n=24 v=0
7917864 Off ch=4 n=37 v=0
7918131 On ch=4 n=26 v=100
7918153 On ch=4 n=19 v=100
7918278 Off ch=4 n=26 v=0
7918279 Off ch=4 n=19 v=0
7926407 On ch=4 n=16 v=100
7926566 Off ch=4 n=16 v=0
7936952 On ch=4 n=12 v=100
7937091 Off ch=4 n=12 v=0
7941662 On ch=4 n=32 v=100
7941940 Off ch=4 n=32 v=0
7943208 On ch=4 n=17 v=100
7943428 Off ch=4 n=17 v=0
7945715 On ch=4 n=1 v=100
7946843 Off ch=4 n=1 v=0
7963509 On ch=4 n=8 v=100
7963724 Off ch=4 n=8 v=0
7963956 On ch=4 n=21 v=100
7964146 Off ch=4 n=21 v=0
7968901 On ch=4 n=51 v=100
7969038 Off ch=4 n=51 v=0
7971443 On ch=4 n=16 v=100
7971602 Off ch=4 n=16 v=0
7981421 On ch=4 n=16 v=100
7981916 Off ch=4 n=16 v=0
7991142 On ch=4 n=3 v=100
7991520 Off ch=4 n=3 v=0
7991562 On ch=4 n=10 v=100
7992539 Off ch=4 n=10 v=0
7998004 On ch=4 n=4 v=100
7998880 Off ch=4 n=4 v=0
8001835 On ch=4 n=5 v=100
8001950 Off ch=4 n=5 v=0
8003596 On ch=4 n=6 v=100
8004020 Off ch=4 n=6 v=0
8004025 On ch=4 n=3 v=100
8008254 Off ch=4 n=3 v=0
8010716 On ch=4 n=18 v=100
8010787 On ch=4 n=5 v=100
8010889 Off ch=4 n=18 v=0
8011309 Off ch=4 n=5 v=0
8013417 On ch=4 n=7 v=100
8013592 Off ch=4 n=7 v=0
8014725 On ch=4 n=3 v=100
8016067 Off ch=4 n=3 v=0
8018461 On ch=4 n=2 v=100
8019100 Off ch=4 n=2 v=0
8019102 On ch=4 n=4 v=100
8019763 Off ch=4 n=4 v=0
8020187 On ch=4 n=61 v=100
8020187 On ch=4 n=61 v=100
8020390 Off ch=4 n=61 v=0
8020390 Off ch=4 n=61 v=0
8026921 On ch=4 n=61 v=100
8027107 Off ch=4 n=61 v=0
8027936 On ch=4 n=60 v=100
8027936 On ch=4 n=60 v=100
8028140 Off ch=4 n=60 v=0
8028140 Off ch=4 n=60 v=0
8047778 On ch=4 n=43 v=100
8047990 Off ch=4 n=43 v=0
8054531 On ch=4 n=1 v=100
8056248 Off ch=4 n=1 v=0
8061154 On ch=4 n=47 v=100
8061245 Off ch=4 n=47 v=0
8076476 On ch=4 n=6 v=100
8078114 Off ch=4 n=6 v=0
8078124 On ch=4 n=3 v=100
8078473 On ch=4 n=3 v=100
8078473 Off ch=4 n=3 v=0
8079590 Off ch=4 n=3 v=0
8079591 On ch=4 n=5 v=100
8080796 Off ch=4 n=5 v=0
8080797 On ch=4 n=3 v=100
8080860 Off ch=4 n=3 v=0
8080862 On ch=4 n=1 v=100
8080994 Off ch=4 n=1 v=0
8081957 On ch=4 n=5 v=100
8082218 Off ch=4 n=5 v=0
8088086 On ch=4 n=3 v=100
8088776 Off ch=4 n=3 v=0
8092243 On ch=4 n=5 v=100
8092387 Off ch=4 n=5 v=0
8092423 On ch=4 n=5 v=100
8093041 Off ch=4 n=5 v=0
8120732 On ch=4 n=25 v=100
8120807 Off ch=4 n=25 v=0
8120890 On ch=4 n=32 v=100
8120965 Off ch=4 n=32 v=0
8121049 On ch=4 n=28 v=100
8121130 Off ch=4 n=28 v=0
8121365 On ch=4 n=30 v=100
8121457 Off ch=4 n=30 v=0
8121683 On ch=4 n=28 v=100
8121761 Off ch=4 n=28 v=0
8121840 On ch=4 n=44 v=100
8121916 Off ch=4 n=44 v=0
8122319 On ch=4 n=32 v=100
8122400 Off ch=4 n=32 v=0
8122631 On ch=4 n=33 v=100
8122727 Off ch=4 n=33 v=0
8122953 On ch=4 n=25 v=100
8123031 Off ch=4 n=25 v=0
8123113 On ch=4 n=38 v=100
8123178 Off ch=4 n=38 v=0
8123229 On ch=4 n=39 v=100
8123358 Off ch=4 n=39 v=0
8123388 On ch=4 n=42 v=100
8123513 Off ch=4 n=42 v=0
8123587 On ch=4 n=35 v=100
8123674 Off ch=4 n=35 v=0
8123748 On ch=4 n=31 v=100
8123826 Off ch=4 n=31 v=0
8123907 On ch=4 n=46 v=100
8123982 Off ch=4 n=46 v=0
8124235 On ch=4 n=32 v=100
8124316 Off ch=4 n=32 v=0
8124382 On ch=4 n=36 v=100
8124460 Off ch=4 n=36 v=0
8124538 On ch=4 n=36 v=100
8124626 Off ch=4 n=36 v=0
8124694 On ch=4 n=45 v=100
8124694 On ch=4 n=45 v=100
8124784 Off ch=4 n=45 v=0
8124784 Off ch=4 n=45 v=0
8125002 On ch=4 n=34 v=100
8125082 Off ch=4 n=34 v=0
8125164 On ch=4 n=34 v=100
8125240 Off ch=4 n=34 v=0
8125327 On ch=4 n=41 v=100
8125416 Off ch=4 n=41 v=0
8125757 On ch=4 n=32 v=100
8125878 Off ch=4 n=32 v=0
8125957 On ch=4 n=36 v=100
8126049 Off ch=4 n=36 v=0
8126116 On ch=4 n=41 v=100
8126192 Off ch=4 n=41 v=0
8128505 On ch=4 n=34 v=100
8128584 Off ch=4 n=34 v=0
8133245 On ch=4 n=59 v=100
8133458 Off ch=4 n=59 v=0
8143893 On ch=4 n=11 v=100
8144471 Off ch=4 n=11 v=0
8153925 On ch=4 n=18 v=100
8154229 Off ch=4 n=18 v=0
8154383 On ch=4 n=34 v=100
8154448 On ch=4 n=19 v=100
8154583 Off ch=4 n=34 v=0
8154866 On ch=4 n=31 v=100
8154926 Off ch=4 n=19 v=0
8154965 Off ch=4 n=31 v=0
8155242 On ch=4 n=21 v=100
8155382 Off ch=4 n=21 v=0
8161191 On ch=4 n=12 v=100
8161348 Off ch=4 n=12 v=0
8162105 On ch=4 n=39 v=100
8162339 Off ch=4 n=39 v=0
8166429 On ch=4 n=18 v=100
8166597 Off ch=4 n=18 v=0
8174389 On ch=4 n=10 v=100
8174792 Off ch=4 n=10 v=0
8180116 On ch=4 n=16 v=100
8180440 Off ch=4 n=16 v=0
8185664 On ch=4 n=13 v=100
8185825 Off ch=4 n=13 v=0
8213283 On ch=4 n=15 v=100
8213290 On ch=4 n=9 v=100
8213344 Off ch=4 n=15 v=0
8213357 Off ch=4 n=9 v=0
8220330 On ch=4 n=13 v=100
8220470 Off ch=4 n=13 v=0
8226064 On ch=4 n=40 v=100
8226310 Off ch=4 n=40 v=0
8228282 On ch=4 n=15 v=100
8228436 Off ch=4 n=15 v=0
8234609 On ch=4 n=8 v=100
8235064 Off ch=4 n=8 v=0
8237236 On ch=4 n=15 v=100
8237371 Off ch=4 n=15 v=0
8237517 On ch=4 n=17 v=100
8237747 Off ch=4 n=17 v=0
8237778 On ch=4 n=13 v=100
8238206 Off ch=4 n=13 v=0
8238209 On ch=4 n=7 v=100
8238264 Off ch=4 n=7 v=0
8238701 On ch=4 n=6 v=100
8239106 Off ch=4 n=6 v=0
8243316 On ch=4 n=4 v=100
8244000 Off ch=4 n=4 v=0
8244002 On ch=4 n=4 v=100
8244867 On ch=4 n=14 v=100
8244891 Off ch=4 n=4 v=0
8244934 Off ch=4 n=14 v=0
8245708 On ch=4 n=12 v=100
8245820 Off ch=4 n=12 v=0
8246018 On ch=4 n=10 v=100
8246114 Off ch=4 n=10 v=0
8248314 On ch=4 n=43 v=100
8248417 Off ch=4 n=43 v=0
8248491 On ch=4 n=43 v=100
8248737 Off ch=4 n=43 v=0
8249813 On ch=4 n=36 v=100
8250028 Off ch=4 n=36 v=0
8250225 On ch=4 n=36 v=100
8250421 Off ch=4 n=36 v=0
8251065 On ch=4 n=38 v=100
8251166 Off ch=4 n=38 v=0
8251220 On ch=4 n=38 v=100
8251450 Off ch=4 n=38 v=0
8252150 On ch=4 n=42 v=100
8252405 Off ch=4 n=42 v=0
8252437 On ch=4 n=34 v=100
8252690 Off ch=4 n=34 v=0
8252883 On ch=4 n=34 v=100
8253079 Off ch=4 n=34 v=0
8253665 On ch=4 n=39 v=100
8253772 Off ch=4 n=39 v=0
8253858 On ch=4 n=39 v=100
8254090 Off ch=4 n=39 v=0
8254092 On ch=4 n=39 v=100
8254336 Off ch=4 n=39 v=0
8254996 On ch=4 n=36 v=100
8255258 Off ch=4 n=36 v=0
8255615 On ch=4 n=36 v=100
8255811 Off ch=4 n=36 v=0
8257369 On ch=4 n=42 v=100
8257630 Off ch=4 n=42 v=0
8257923 On ch=4 n=35 v=100
8258204 Off ch=4 n=35 v=0
8258669 On ch=4 n=35 v=100
8258865 Off ch=4 n=35 v=0
8259451 On ch=4 n=39 v=100
8259558 Off ch=4 n=39 v=0
8259644 On ch=4 n=39 v=100
8259876 Off ch=4 n=39 v=0
8260231 On ch=4 n=35 v=100
8260501 Off ch=4 n=35 v=0
8260854 On ch=4 n=35 v=100
8261050 Off ch=4 n=35 v=0
8261647 On ch=4 n=39 v=100
8261751 Off ch=4 n=39 v=0
8261837 On ch=4 n=39 v=100
8262068 Off ch=4 n=39 v=0
8262071 On ch=4 n=41 v=100
8262315 Off ch=4 n=41 v=0
8262687 On ch=4 n=36 v=100
8262949 Off ch=4 n=36 v=0
8263298 On ch=4 n=36 v=100
8263494 Off ch=4 n=36 v=0
8264090 On ch=4 n=45 v=100
8264187 Off ch=4 n=45 v=0
8264265 On ch=4 n=45 v=100
8264535 Off ch=4 n=45 v=0
8265327 On ch=4 n=31 v=100
8265547 Off ch=4 n=31 v=0
8265905 On ch=4 n=31 v=100
8266101 Off ch=4 n=31 v=0
8266860 On ch=4 n=45 v=100
8266960 Off ch=4 n=45 v=0
8267062 On ch=4 n=45 v=100
8267305 Off ch=4 n=45 v=0
8267652 On ch=4 n=38 v=100
8268129 Off ch=4 n=38 v=0
8269952 On ch=4 n=4 v=100
8274899 Off ch=4 n=4 v=0
8274901 On ch=4 n=3 v=100
8275565 Off ch=4 n=3 v=0
8278764 On ch=4 n=64 v=100
8278943 Off ch=4 n=64 v=0
8279499 On ch=4 n=63 v=100
8279675 Off ch=4 n=63 v=0
8281302 On ch=4 n=6 v=100
8281495 Off ch=4 n=6 v=0
8290790 On ch=4 n=16 v=100
8291366 On ch=4 n=3 v=100
8291369 Off ch=4 n=16 v=0
8296414 Off ch=4 n=3 v=0
8296422 On ch=4 n=5 v=100
8297055 Off ch=4 n=5 v=0
8299432 On ch=4 n=20 v=100
8299604 Off ch=4 n=20 v=0
8317426 On ch=4 n=13 v=100
8317579 Off ch=4 n=13 v=0
8322604 On ch=4 n=13 v=100
8322744 Off ch=4 n=13 v=0
8333154 On ch=4 n=0 v=100
8339005 Off ch=4 n=0 v=0
8341098 On ch=4 n=16 v=100
8341470 Off ch=4 n=16 v=0
8344638 On ch=4 n=40 v=100
8344719 Off ch=4 n=40 v=0
8344755 On ch=4 n=40 v=100
8344868 Off ch=4 n=40 v=0
8348426 On ch=4 n=6 v=100
8349726 Off ch=4 n=6 v=0
8349785 On ch=4 n=6 v=100
8349785 On ch=4 n=6 v=100
8350102 On ch=4 n=45 v=100
8350102 On ch=4 n=45 v=100
8350287 On ch=4 n=5 v=100
8350315 Off ch=4 n=6 v=0
8350315 Off ch=4 n=6 v=0
8350339 Off ch=4 n=5 v=0
8350350 On ch=4 n=13 v=100
8350398 Off ch=4 n=45 v=0
8350398 Off ch=4 n=45 v=0
8350422 Off ch=4 n=13 v=0
8354061 On ch=4 n=41 v=100
8354168 Off ch=4 n=41 v=0
8357989 On ch=4 n=42 v=100
8358096 Off ch=4 n=42 v=0
8361917 On ch=4 n=42 v=100
8362024 Off ch=4 n=42 v=0
8368676 On ch=4 n=1 v=100
8368861 Off ch=4 n=1 v=0
8368863 On ch=4 n=0 v=100
8372918 Off ch=4 n=0 v=0
8372920 On ch=4 n=0 v=100
8373105 Off ch=4 n=0 v=0
8373374 On ch=4 n=11 v=100
8373985 Off ch=4 n=11 v=0
8376781 On ch=4 n=7 v=100
8377778 Off ch=4 n=7 v=0
8377780 On ch=4 n=14 v=100
8377941 Off ch=4 n=14 v=0
8377947 On ch=4 n=12 v=100
8378275 Off ch=4 n=12 v=0
8383856 On ch=4 n=8 v=100
8384671 Off ch=4 n=8 v=0
8420188 On ch=4 n=0 v=100
8420336 Off ch=4 n=0 v=0
8420338 On ch=4 n=0 v=100
8423958 Off ch=4 n=0 v=0
8423960 On ch=4 n=3 v=100
8424108 Off ch=4 n=3 v=0
8428508 On ch=4 n=3 v=100
8428859 Off ch=4 n=3 v=0
8434041 On ch=4 n=5 v=100
8434415 Off ch=4 n=5 v=0
8434417 On ch=4 n=6 v=100
8435000 Off ch=4 n=6 v=0
8435002 On ch=4 n=8 v=100
8435798 Off ch=4 n=8 v=0
8437317 On ch=4 n=8 v=100
8437415 Off ch=4 n=8 v=0
8437637 On ch=4 n=47 v=100
8438507 Off ch=4 n=47 v=0
8439801 On ch=4 n=15 v=100
8439989 Off ch=4 n=15 v=0
8440516 On ch=4 n=18 v=100
8440677 Off ch=4 n=18 v=0
8443008 On ch=4 n=17 v=100
8443164 Off ch=4 n=17 v=0
8450565 On ch=4 n=11 v=100
8450602 Off ch=4 n=11 v=0
8452359 On ch=4 n=20 v=100
8452440 On ch=4 n=54 v=100
8452557 On ch=4 n=49 v=100
8453233 Off ch=4 n=20 v=0
8453819 Off ch=4 n=49 v=0
8453963 Off ch=4 n=54 v=0
8454008 On ch=4 n=3 v=100
8454711 Off ch=4 n=3 v=0
8455035 On ch=4 n=2 v=100
8455200 Off ch=4 n=2 v=0
8455310 On ch=4 n=5 v=100
8455424 Off ch=4 n=5 v=0
8455430 On ch=4 n=24 v=100
8455497 Off ch=4 n=24 v=0
8467539 On ch=4 n=8 v=100
8467699 Off ch=4 n=8 v=0
8469631 On ch=4 n=4 v=100
8470566 On ch=4 n=2 v=100
8470585 Off ch=4 n=4 v=0
8470933 Off ch=4 n=2 v=0
8470935 On ch=4 n=1 v=100
8474904 On ch=4 n=6 v=100
8474908 Off ch=4 n=1 v=0
8475037 Off ch=4 n=6 v=0
8475039 On ch=4 n=2 v=100
8475402 On ch=4 n=7 v=100
8475406 Off ch=4 n=2 v=0
8475498 Off ch=4 n=7 v=0
8488288 On ch=4 n=14 v=100
8488431 Off ch=4 n=14 v=0
8505793 On ch=4 n=6 v=100
8506122 Off ch=4 n=6 v=0
8506541 On ch=4 n=2 v=100
8507281 Off ch=4 n=2 v=0
8509029 On ch=4 n=7 v=100
8509807 Off ch=4 n=7 v=0
8514573 On ch=4 n=40 v=100
8514763 Off ch=4 n=40 v=0
8517100 On ch=4 n=40 v=100
8517310 Off ch=4 n=40 v=0
8519967 On ch=4 n=11 v=100
8520119 Off ch=4 n=11 v=0
8520288 On ch=4 n=4 v=100
8520439 Off ch=4 n=4 v=0
8521631 On ch=4 n=16 v=100
8523219 Off ch=4 n=16 v=0
8524443 On ch=4 n=26 v=100
8525176 On ch=4 n=18 v=100
8525763 Off ch=4 n=26 v=0
8525765 On ch=4 n=16 v=100
8526987 Off ch=4 n=18 v=0
8526987 Off ch=4 n=16 v=0
8527042 On ch=4 n=16 v=100
8527279 Off ch=4 n=16 v=0
8527330 On ch=4 n=10 v=100
8528165 On ch=4 n=26 v=100
8528258 Off ch=4 n=10 v=0
8528274 Off ch=4 n=26 v=0
8528746 On ch=4 n=4 v=100
8530232 Off ch=4 n=4 v=0
8538350 On ch=4 n=31 v=100
8538491 Off ch=4 n=31 v=0
8539726 On ch=4 n=29 v=100
8539838 On ch=4 n=26 v=100
8539912 Off ch=4 n=29 v=0
8539990 Off ch=4 n=26 v=0
8539993 On ch=4 n=33 v=100
8540133 On ch=4 n=33 v=100
8540163 Off ch=4 n=33 v=0
8540167 On ch=4 n=20 v=100
8540244 Off ch=4 n=33 v=0
8540673 Off ch=4 n=20 v=0
8541118 On ch=4 n=14 v=100
8541281 Off ch=4 n=14 v=0
8541282 On ch=4 n=28 v=100
8541390 Off ch=4 n=28 v=0
8542513 On ch=4 n=14 v=100
8542523 Off ch=4 n=14 v=0
8542574 On ch=4 n=14 v=100
8542613 Off ch=4 n=14 v=0
8542933 On ch=4 n=11 v=100
8543086 Off ch=4 n=11 v=0
8543254 On ch=4 n=4 v=100
8543405 Off ch=4 n=4 v=0
8546162 On ch=4 n=1 v=100
8546376 Off ch=4 n=1 v=0
8553488 On ch=4 n=23 v=100
8554160 Off ch=4 n=23 v=0
8554207 On ch=4 n=9 v=100
8554479 Off ch=4 n=9 v=0
8555425 On ch=4 n=11 v=100
8555833 Off ch=4 n=11 v=0
8568542 On ch=4 n=61 v=100
8568793 On ch=4 n=56 v=100
8570650 Off ch=4 n=61 v=0
8570900 Off ch=4 n=56 v=0
8571384 On ch=4 n=46 v=100
8571384 On ch=4 n=44 v=100
8571445 Off ch=4 n=44 v=0
8571525 Off ch=4 n=46 v=0
8581323 On ch=4 n=3 v=100
8584681 Off ch=4 n=3 v=0
8599345 On ch=4 n=3 v=100
8601491 Off ch=4 n=3 v=0
8601567 On ch=4 n=12 v=100
8601972 Off ch=4 n=12 v=0
8602015 On ch=4 n=12 v=100
8602030 On ch=4 n=37 v=100
8602703 On ch=4 n=3 v=100
8602710 Off ch=4 n=12 v=0
8602890 Off ch=4 n=37 v=0
8602890 Off ch=4 n=3 v=0
8607243 On ch=4 n=3 v=100
8607347 Off ch=4 n=3 v=0
8607348 On ch=4 n=3 v=100
8607936 Off ch=4 n=3 v=0
8607938 On ch=4 n=4 v=100
8608269 Off ch=4 n=4 v=0
8612693 On ch=4 n=36 v=100
8612756 On ch=4 n=21 v=100
8612954 Off ch=4 n=36 v=0
8612954 Off ch=4 n=21 v=0
8615118 On ch=4 n=25 v=100
8616305 Off ch=4 n=25 v=0
8616310 On ch=4 n=20 v=100
8616446 Off ch=4 n=20 v=0
8623127 On ch=4 n=14 v=100
8623296 Off ch=4 n=14 v=0
8624878 On ch=4 n=1 v=100
8625092 Off ch=4 n=1 v=0
8626454 On ch=4 n=50 v=100
8626593 Off ch=4 n=50 v=0
8629349 On ch=4 n=1 v=100
8630931 Off ch=4 n=1 v=0
8630933 On ch=4 n=0 v=100
8631361 On ch=4 n=0 v=100
8633359 Off ch=4 n=0 v=0
8636396 On ch=4 n=1 v=100
8636406 Off ch=4 n=0 v=0
8637217 Off ch=4 n=1 v=0
8641723 On ch=4 n=25 v=100
8641781 Off ch=4 n=25 v=0
8642603 On ch=4 n=19 v=100
8642874 Off ch=4 n=19 v=0
8672180 On ch=4 n=11 v=100
8672331 Off ch=4 n=11 v=0
8676837 On ch=4 n=5 v=100
8677211 Off ch=4 n=5 v=0
8677213 On ch=4 n=6 v=100
8677791 Off ch=4 n=6 v=0
8677793 On ch=4 n=8 v=100
8678589 Off ch=4 n=8 v=0
8682158 On ch=4 n=9 v=100
8682727 Off ch=4 n=9 v=0
8682970 On ch=4 n=7 v=100
8683065 Off ch=4 n=7 v=0
8685432 On ch=4 n=18 v=100
8685618 Off ch=4 n=18 v=0
8686144 On ch=4 n=14 v=100
8686308 Off ch=4 n=14 v=0
8694964 On ch=4 n=14 v=100
8695126 Off ch=4 n=14 v=0
8702000 On ch=4 n=19 v=100
8702000 On ch=4 n=9 v=100
8702045 Off ch=4 n=9 v=0
8702059 Off ch=4 n=19 v=0
8702080 On ch=4 n=7 v=100
8702288 Off ch=4 n=7 v=0
8704942 On ch=4 n=3 v=100
8705974 Off ch=4 n=3 v=0
8706008 On ch=4 n=3 v=100
8706228 Off ch=4 n=3 v=0
8727554 On ch=4 n=12 v=100
8728132 Off ch=4 n=12 v=0
8730395 On ch=4 n=4 v=100
8732093 Off ch=4 n=4 v=0
8822632 On ch=4 n=4 v=100
8824044 Off ch=4 n=4 v=0
8830554 On ch=4 n=11 v=100
8831399 Off ch=4 n=11 v=0
8831402 On ch=4 n=9 v=100
8841670 Off ch=4 n=9 v=0
8841672 On ch=4 n=11 v=100
8842518 Off ch=4 n=11 v=0
8856793 On ch=4 n=16 v=100
8857314 On ch=4 n=37 v=100
8857371 On ch=4 n=2 v=100
8857372 Off ch=4 n=16 v=0
8857576 Off ch=4 n=37 v=0
8860130 Off ch=4 n=2 v=0
8860167 On ch=4 n=7 v=100
8860362 On ch=4 n=4 v=100
8860367 Off ch=4 n=7 v=0
8860668 Off ch=4 n=4 v=0
8867062 On ch=4 n=2 v=100
8867885 Off ch=4 n=2 v=0
8867887 On ch=4 n=1 v=100
8874328 Off ch=4 n=1 v=0
8878065 On ch=4 n=46 v=100
8878395 Off ch=4 n=46 v=0
8890144 On ch=4 n=40 v=100
8890351 Off ch=4 n=40 v=0
8907174 On ch=4 n=0 v=100
8907322 Off ch=4 n=0 v=0
8907324 On ch=4 n=1 v=100
8910954 Off ch=4 n=1 v=0
8910956 On ch=4 n=4 v=100
8911104 Off ch=4 n=4 v=0
8916341 On ch=4 n=4 v=100
8917124 Off ch=4 n=4 v=0
8917126 On ch=4 n=6 v=100
8917710 Off ch=4 n=6 v=0
8917755 On ch=4 n=8 v=100
8918546 Off ch=4 n=8 v=0
8920976 On ch=4 n=8 v=100
8921748 Off ch=4 n=8 v=0
8924757 On ch=4 n=9 v=100
8925315 Off ch=4 n=9 v=0
8925555 On ch=4 n=11 v=100
8925659 Off ch=4 n=11 v=0
8928048 On ch=4 n=14 v=100
8928236 Off ch=4 n=14 v=0
8928763 On ch=4 n=18 v=100
8928922 Off ch=4 n=18 v=0
8932453 On ch=4 n=12 v=100
8932612 Off ch=4 n=12 v=0
8940229 On ch=4 n=19 v=100
8940762 Off ch=4 n=19 v=0
8941032 On ch=4 n=9 v=100
8941254 Off ch=4 n=9 v=0
8945122 On ch=4 n=14 v=100
8945290 Off ch=4 n=14 v=0
8949049 On ch=4 n=5 v=100
8950781 Off ch=4 n=5 v=0
8952560 On ch=4 n=22 v=100
8952680 Off ch=4 n=22 v=0
8952698 On ch=4 n=0 v=100
8953313 Off ch=4 n=0 v=0
8994436 On ch=4 n=16 v=100
8994957 On ch=4 n=37 v=100
8995014 On ch=4 n=2 v=100
8995015 Off ch=4 n=16 v=0
8995219 Off ch=4 n=37 v=0
8997773 Off ch=4 n=2 v=0
8997810 On ch=4 n=7 v=100
8998005 On ch=4 n=4 v=100
8998010 Off ch=4 n=7 v=0
8998311 Off ch=4 n=4 v=0
9004704 On ch=4 n=2 v=100
9005527 Off ch=4 n=2 v=0
9005529 On ch=4 n=1 v=100
9011970 Off ch=4 n=1 v=0
9015733 On ch=4 n=46 v=100
9016063 Off ch=4 n=46 v=0
9027809 On ch=4 n=40 v=100
9028016 Off ch=4 n=40 v=0
9038688 On ch=4 n=7 v=100
9039011 Off ch=4 n=7 v=0
9039238 On ch=4 n=9 v=100
9039698 Off ch=4 n=9 v=0
9040763 On ch=4 n=24 v=100
9041136 Off ch=4 n=24 v=0
9041143 On ch=4 n=28 v=100
9041361 Off ch=4 n=28 v=0
9041377 On ch=4 n=32 v=100
9042135 On ch=4 n=21 v=100
9042203 Off ch=4 n=32 v=0
9042224 On ch=4 n=33 v=100
9042251 Off ch=4 n=21 v=0
9042355 Off ch=4 n=33 v=0
9044901 On ch=4 n=6 v=100
9045178 Off ch=4 n=6 v=0
9046309 On ch=4 n=12 v=100
9046396 Off ch=4 n=12 v=0
9067310 On ch=4 n=4 v=100
9067462 Off ch=4 n=4 v=0
9079857 On ch=4 n=10 v=100
9080010 Off ch=4 n=10 v=0
9088585 On ch=4 n=15 v=100
9088753 Off ch=4 n=15 v=0
9104435 On ch=4 n=19 v=100
9104546 Off ch=4 n=19 v=0
9104567 On ch=4 n=25 v=100
9104720 Off ch=4 n=25 v=0
9106735 On ch=4 n=24 v=100
9106887 On ch=4 n=50 v=100
9107066 Off ch=4 n=24 v=0
9107115 Off ch=4 n=50 v=0
9116464 On ch=4 n=62 v=100
9116578 Off ch=4 n=62 v=0
9125561 On ch=4 n=13 v=100
9125834 Off ch=4 n=13 v=0
9132453 On ch=4 n=8 v=100
9132590 Off ch=4 n=8 v=0
9137208 On ch=4 n=14 v=100
9137369 Off ch=4 n=14 v=0
9140614 On ch=4 n=5 v=100
9141401 Off ch=4 n=5 v=0
9144884 On ch=4 n=22 v=100
9145022 Off ch=4 n=22 v=0
9145025 On ch=4 n=25 v=100
9146212 Off ch=4 n=25 v=0
9156005 On ch=4 n=2 v=100
9156755 Off ch=4 n=2 v=0
9156757 On ch=4 n=3 v=100
9163880 Off ch=4 n=3 v=0
9163882 On ch=4 n=3 v=100
9164633 Off ch=4 n=3 v=0
9175974 On ch=4 n=52 v=100
9176053 Off ch=4 n=52 v=0
9189551 On ch=4 n=16 v=100
9190129 Off ch=4 n=16 v=0
9192892 On ch=4 n=44 v=100
9193035 Off ch=4 n=44 v=0
9209615 On ch=4 n=9 v=100
9209830 Off ch=4 n=9 v=0
9210069 On ch=4 n=24 v=100
9210260 Off ch=4 n=24 v=0
9212782 On ch=4 n=41 v=100
9213034 Off ch=4 n=41 v=0
9217185 On ch=4 n=16 v=100
9217357 Off ch=4 n=16 v=0
9218178 On ch=4 n=14 v=100
9218270 Off ch=4 n=14 v=0
9222118 On ch=4 n=20 v=100
9222129 On ch=4 n=7 v=100
9222135 On ch=4 n=42 v=100
9222182 Off ch=4 n=7 v=0
9222183 Off ch=4 n=20 v=0
9222190 Off ch=4 n=42 v=0
9223786 On ch=4 n=34 v=100
9224010 Off ch=4 n=34 v=0
9227723 On ch=4 n=7 v=100
9228079 Off ch=4 n=7 v=0
9229156 On ch=4 n=8 v=100
9229402 Off ch=4 n=8 v=0
9231634 On ch=4 n=17 v=100
9231795 Off ch=4 n=17 v=0
9235980 On ch=4 n=38 v=100
9235983 On ch=4 n=30 v=100
9236155 Off ch=4 n=38 v=0
9236177 Off ch=4 n=30 v=0
9236931 On ch=4 n=16 v=100
9237096 Off ch=4 n=16 v=0
9241040 On ch=4 n=1 v=100
9242169 Off ch=4 n=1 v=0
9252355 On ch=4 n=14 v=100
9252732 Off ch=4 n=14 v=0
9282056 On ch=4 n=3 v=100
9283491 Off ch=4 n=3 v=0
9306475 On ch=4 n=3 v=100
9306806 Off ch=4 n=3 v=0
9306808 On ch=4 n=2 v=100
9307398 On ch=4 n=6 v=100
9307398 Off ch=4 n=2 v=0
9307502 Off ch=4 n=6 v=0
9319191 On ch=4 n=13 v=100
9319541 Off ch=4 n=13 v=0
9333625 On ch=4 n=9 v=100
9334194 Off ch=4 n=9 v=0
9339892 On ch=4 n=4 v=100
9340149 Off ch=4 n=4 v=0
9341818 On ch=4 n=13 v=100
9341958 Off ch=4 n=13 v=0
9348089 On ch=4 n=3 v=100
9348708 Off ch=4 n=3 v=0
9376246 On ch=4 n=23 v=100
9376290 Off ch=4 n=23 v=0
9398803 On ch=4 n=58 v=100
9398854 Off ch=4 n=58 v=0
9398931 On ch=4 n=58 v=100
9399103 Off ch=4 n=58 v=0
9406907 On ch=4 n=31 v=100
9407070 Off ch=4 n=31 v=0
9408467 On ch=4 n=25 v=100
9409341 Off ch=4 n=25 v=0
9409349 On ch=4 n=37 v=100
9409419 Off ch=4 n=37 v=0
9409425 On ch=4 n=22 v=100
9409698 Off ch=4 n=22 v=0
9409985 On ch=4 n=23 v=100
9410389 Off ch=4 n=23 v=0
9410397 On ch=4 n=23 v=100
9410830 Off ch=4 n=23 v=0
9411275 On ch=4 n=18 v=100
9411719 Off ch=4 n=18 v=0
9411902 On ch=4 n=21 v=100
9412024 Off ch=4 n=21 v=0
9413057 On ch=4 n=14 v=100
9413179 Off ch=4 n=14 v=0
9421677 On ch=4 n=34 v=100
9421739 Off ch=4 n=34 v=0
9421769 On ch=4 n=34 v=100
9421789 Off ch=4 n=34 v=0
9426589 On ch=4 n=0 v=100
9427426 Off ch=4 n=0 v=0
9427428 On ch=4 n=0 v=100
9433927 Off ch=4 n=0 v=0
9433929 On ch=4 n=0 v=100
9434766 Off ch=4 n=0 v=0
9435121 On ch=4 n=26 v=100
9435280 Off ch=4 n=26 v=0
9440835 On ch=4 n=19 v=100
9441004 Off ch=4 n=19 v=0
9456517 On ch=4 n=13 v=100
9456894 Off ch=4 n=13 v=0
9468927 On ch=4 n=16 v=100
9469092 Off ch=4 n=16 v=0
9469195 On ch=4 n=35 v=100
9469321 Off ch=4 n=35 v=0
9470061 On ch=4 n=14 v=100
9470174 Off ch=4 n=14 v=0
9473848 On ch=4 n=14 v=100
9473961 Off ch=4 n=14 v=0
9477272 On ch=4 n=17 v=100
9477385 Off ch=4 n=17 v=0
9482822 On ch=4 n=39 v=100
9482927 Off ch=4 n=39 v=0
9482963 On ch=4 n=39 v=100
9483217 Off ch=4 n=39 v=0
9484520 On ch=4 n=49 v=100
9484720 Off ch=4 n=49 v=0
9485710 On ch=4 n=49 v=100
9485755 Off ch=4 n=49 v=0
9486482 On ch=4 n=36 v=100
9486704 Off ch=4 n=36 v=0
9486863 On ch=4 n=36 v=100
9487059 Off ch=4 n=36 v=0
9487657 On ch=4 n=41 v=100
9487758 Off ch=4 n=41 v=0
9487840 On ch=4 n=41 v=100
9488107 Off ch=4 n=41 v=0
9491082 On ch=4 n=30 v=100
9491341 Off ch=4 n=30 v=0
9491964 On ch=4 n=30 v=100
9492160 Off ch=4 n=30 v=0
9492742 On ch=4 n=47 v=100
9492849 Off ch=4 n=47 v=0
9492915 On ch=4 n=47 v=100
9493165 On ch=4 n=31 v=100
9493183 Off ch=4 n=47 v=0
9493372 Off ch=4 n=31 v=0
9494116 On ch=4 n=31 v=100
9494312 Off ch=4 n=31 v=0
9494963 On ch=4 n=36 v=100
9495070 Off ch=4 n=36 v=0
9495157 On ch=4 n=36 v=100
9495372 Off ch=4 n=36 v=0
9496013 On ch=4 n=50 v=100
9496260 Off ch=4 n=50 v=0
9497477 On ch=4 n=44 v=100
9497847 Off ch=4 n=44 v=0
9498516 On ch=4 n=18 v=100
9498658 Off ch=4 n=18 v=0
9502915 On ch=4 n=40 v=100
9503021 Off ch=4 n=40 v=0
9503103 On ch=4 n=40 v=100
9503344 Off ch=4 n=40 v=0
9513540 On ch=4 n=20 v=100
9513615 Off ch=4 n=20 v=0
9519858 On ch=4 n=12 v=100
9519905 On ch=4 n=4 v=100
9519937 Off ch=4 n=12 v=0
9519957 Off ch=4 n=4 v=0
9543737 On ch=4 n=25 v=100
9544078 Off ch=4 n=25 v=0
9544546 On ch=4 n=17 v=100
9544642 Off ch=4 n=17 v=0
9550200 On ch=4 n=38 v=100
9550228 On ch=4 n=36 v=100
9550397 Off ch=4 n=36 v=0
9550429 Off ch=4 n=38 v=0
9554524 On ch=4 n=16 v=100
9554686 Off ch=4 n=16 v=0
9556948 On ch=4 n=7 v=100
9557537 Off ch=4 n=7 v=0
9558588 On ch=4 n=32 v=100
9558700 Off ch=4 n=32 v=0
9561164 On ch=4 n=34 v=100
9561393 Off ch=4 n=34 v=0
9562997 On ch=4 n=41 v=100
9563004 On ch=4 n=21 v=100
9563005 On ch=4 n=8 v=100
9563056 Off ch=4 n=41 v=0
9563057 Off ch=4 n=8 v=0
9563067 Off ch=4 n=21 v=0
9568613 On ch=4 n=34 v=100
9568737 Off ch=4 n=34 v=0
9570976 On ch=4 n=21 v=100
9571151 Off ch=4 n=21 v=0
9574753 On ch=4 n=32 v=100
9574773 On ch=4 n=3 v=100
9574825 Off ch=4 n=32 v=0
9574831 Off ch=4 n=3 v=0
9574832 On ch=4 n=7 v=100
9575275 Off ch=4 n=7 v=0
9575279 On ch=4 n=24 v=100
9575380 Off ch=4 n=24 v=0
9586179 On ch=4 n=8 v=100
9587809 Off ch=4 n=8 v=0
9587811 On ch=4 n=3 v=100
9588231 Off ch=4 n=3 v=0
9588262 On ch=4 n=3 v=100
9597449 Off ch=4 n=3 v=0
9597451 On ch=4 n=8 v=100
9599081 Off ch=4 n=8 v=0
9604808 On ch=4 n=40 v=100
9605155 Off ch=4 n=40 v=0
9608276 On ch=4 n=42 v=100
9608379 Off ch=4 n=42 v=0
9608442 On ch=4 n=42 v=100
9608735 Off ch=4 n=42 v=0
9609305 On ch=4 n=33 v=100
9609515 Off ch=4 n=33 v=0
9610125 On ch=4 n=33 v=100
9610318 Off ch=4 n=33 v=0
9654236 On ch=4 n=3 v=100
9654585 Off ch=4 n=3 v=0
9655744 On ch=4 n=3 v=100
9656830 Off ch=4 n=3 v=0
9670688 On ch=4 n=0 v=100
9671586 Off ch=4 n=0 v=0
9671588 On ch=4 n=0 v=100
9677925 Off ch=4 n=0 v=0
9677927 On ch=4 n=0 v=100
9678825 Off ch=4 n=0 v=0
9700285 On ch=4 n=3 v=100
9700899 Off ch=4 n=3 v=0
9700905 On ch=4 n=6 v=100
9701771 Off ch=4 n=6 v=0
9711385 On ch=4 n=6 v=100
9711711 On ch=4 n=21 v=100
9712225 Off ch=4 n=6 v=0
9712227 On ch=4 n=3 v=100
9712855 Off ch=4 n=21 v=0
9714859 On ch=4 n=50 v=100
9715459 On ch=4 n=2 v=100
9715459 Off ch=4 n=3 v=0
9715857 Off ch=4 n=50 v=0
9717649 Off ch=4 n=2 v=0
9717659 On ch=4 n=8 v=100
9718620 Off ch=4 n=8 v=0
9733696 On ch=4 n=5 v=100
9733798 On ch=4 n=3 v=100
9733799 Off ch=4 n=5 v=0
9734390 Off ch=4 n=3 v=0
9734392 On ch=4 n=3 v=100
9734723 Off ch=4 n=3 v=0
9735794 On ch=4 n=0 v=100
9736458 Off ch=4 n=0 v=0
9736460 On ch=4 n=0 v=100
9737100 Off ch=4 n=0 v=0
9744755 On ch=4 n=4 v=100
9746140 Off ch=4 n=4 v=0
9753218 On ch=4 n=28 v=100
9753258 Off ch=4 n=28 v=0
9760356 On ch=4 n=4 v=100
9762447 Off ch=4 n=4 v=0
9762456 On ch=4 n=5 v=100
9763376 Off ch=4 n=5 v=0
9763377 On ch=4 n=8 v=100
9763934 Off ch=4 n=8 v=0
9765923 On ch=4 n=18 v=100
9766093 Off ch=4 n=18 v=0
9769056 On ch=4 n=49 v=100
9769315 Off ch=4 n=49 v=0
9769691 On ch=4 n=11 v=100
9769843 Off ch=4 n=11 v=0
9770012 On ch=4 n=4 v=100
9770163 Off ch=4 n=4 v=0
9776845 On ch=4 n=34 v=100
9777009 Off ch=4 n=34 v=0
9792256 On ch=4 n=7 v=100
9792739 Off ch=4 n=7 v=0
9800751 On ch=4 n=16 v=100
9800919 Off ch=4 n=16 v=0
9813479 On ch=4 n=42 v=100
9813538 Off ch=4 n=42 v=0
9814207 On ch=4 n=7 v=100
9814364 Off ch=4 n=7 v=0
9814688 On ch=4 n=9 v=100
9814706 On ch=4 n=28 v=100
9814786 Off ch=4 n=9 v=0
9814797 Off ch=4 n=28 v=0
9820061 On ch=4 n=14 v=100
9820331 Off ch=4 n=14 v=0
9821378 On ch=4 n=11 v=100
9821569 Off ch=4 n=11 v=0
9822032 On ch=4 n=3 v=100
9822498 On ch=4 n=39 v=100
9822504 Off ch=4 n=3 v=0
9822527 On ch=4 n=9 v=100
9822740 Off ch=4 n=39 v=0
9822744 Off ch=4 n=9 v=0
9823609 On ch=4 n=9 v=100
9823664 Off ch=4 n=9 v=0
9829813 On ch=4 n=8 v=100
9830258 Off ch=4 n=8 v=0
9831474 On ch=4 n=4 v=100
9832519 Off ch=4 n=4 v=0
9840554 On ch=4 n=21 v=100
9840722 Off ch=4 n=21 v=0
9847339 On ch=4 n=42 v=100
9847589 Off ch=4 n=42 v=0
9850086 On ch=4 n=23 v=100
9850281 Off ch=4 n=23 v=0
9850586 On ch=4 n=9 v=100
9850803 Off ch=4 n=9 v=0
9852188 On ch=4 n=4 v=100
9852879 Off ch=4 n=4 v=0
9861729 On ch=4 n=1 v=100
9861888 Off ch=4 n=1 v=0
9862373 On ch=4 n=1 v=100
9862529 Off ch=4 n=1 v=0
9862531 On ch=4 n=1 v=100
9868599 Off ch=4 n=1 v=0
9868601 On ch=4 n=1 v=100
9868760 Off ch=4 n=1 v=0
9869245 On ch=4 n=2 v=100
9869401 Off ch=4 n=2 v=0
9869416 On ch=4 n=18 v=100
9869917 Off ch=4 n=18 v=0
9872889 On ch=4 n=11 v=100
9872926 Off ch=4 n=11 v=0
9890582 On ch=4 n=5 v=100
9891456 Off ch=4 n=5 v=0
9893149 On ch=4 n=7 v=100
9894871 Off ch=4 n=7 v=0
9894873 On ch=4 n=0 v=100
9900370 Off ch=4 n=0 v=0
9900372 On ch=4 n=7 v=100
9902112 Off ch=4 n=7 v=0
9903417 On ch=4 n=6 v=100
9903532 Off ch=4 n=6 v=0
9905181 On ch=4 n=6 v=100
9905604 Off ch=4 n=6 v=0
9905609 On ch=4 n=3 v=100
9909903 Off ch=4 n=3 v=0
9909905 On ch=4 n=5 v=100
9910426 Off ch=4 n=5 v=0
9912530 On ch=4 n=7 v=100
9912705 Off ch=4 n=7 v=0
9913838 On ch=4 n=3 v=100
9915807 Off ch=4 n=3 v=0
9915809 On ch=4 n=4 v=100
9916470 Off ch=4 n=4 v=0
9916910 On ch=4 n=65 v=100
9917095 Off ch=4 n=65 v=0
9917925 On ch=4 n=61 v=100
9917925 On ch=4 n=61 v=100
9918128 Off ch=4 n=61 v=0
9918128 Off ch=4 n=61 v=0
9918953 On ch=4 n=61 v=100
9918953 On ch=4 n=61 v=100
9919157 Off ch=4 n=61 v=0
9919157 Off ch=4 n=61 v=0
9920010 On ch=4 n=61 v=100
9920187 Off ch=4 n=61 v=0
9921004 On ch=4 n=61 v=100
9921004 On ch=4 n=61 v=100
9921208 Off ch=4 n=61 v=0
9921208 Off ch=4 n=61 v=0
9922061 On ch=4 n=61 v=100
9922238 Off ch=4 n=61 v=0
9924978 On ch=4 n=2 v=100
9925177 Off ch=4 n=2 v=0
9931475 On ch=4 n=53 v=100
9931633 Off ch=4 n=53 v=0
9935118 On ch=4 n=47 v=100
9935206 Off ch=4 n=47 v=0
9960066 On ch=4 n=1 v=100
9960589 Off ch=4 n=1 v=0
9960600 On ch=4 n=8 v=100
9960783 Off ch=4 n=8 v=0
9970019 On ch=4 n=33 v=100
9970051 On ch=4 n=4 v=100
9970206 Off ch=4 n=33 v=0
9970458 Off ch=4 n=4 v=0
9970464 On ch=4 n=2 v=100
9974506 Off ch=4 n=2 v=0
9974508 On ch=4 n=4 v=100
9975044 Off ch=4 n=4 v=0
9982961 On ch=4 n=51 v=100
9983158 Off ch=4 n=51 v=0
9988105 On ch=4 n=37 v=100
9988357 Off ch=4 n=37 v=0
10007295 On ch=4 n=49 v=100
10007410 Off ch=4 n=49 v=0
10007421 On ch=4 n=28 v=100
10010722 On ch=4 n=45 v=100
10010759 Off ch=4 n=28 v=0
10010763 On ch=4 n=37 v=100
10010797 Off ch=4 n=45 v=0
10010939 Off ch=4 n=37 v=0
10011181 On ch=4 n=6 v=100
10011300 Off ch=4 n=6 v=0
10025224 On ch=4 n=5 v=100
10025916 Off ch=4 n=5 v=0
10032303 On ch=4 n=20 v=100
10032471 Off ch=4 n=20 v=0
10034863 On ch=4 n=4 v=100
10035440 Off ch=4 n=4 v=0
10035441 On ch=4 n=4 v=100
10036361 Off ch=4 n=4 v=0
10036370 On ch=4 n=4 v=100
10038516 Off ch=4 n=4 v=0
10041185 On ch=4 n=4 v=100
10041706 Off ch=4 n=4 v=0
10041711 On ch=4 n=3 v=100
10041756 On ch=4 n=36 v=100
10045259 On ch=4 n=16 v=100
10045264 Off ch=4 n=3 v=0
10045894 Off ch=4 n=36 v=0
10045897 On ch=4 n=4 v=100
10045998 Off ch=4 n=16 v=0
10046416 Off ch=4 n=4 v=0
10053300 On ch=4 n=32 v=100
10053340 Off ch=4 n=32 v=0
10056445 On ch=4 n=32 v=100
10056485 Off ch=4 n=32 v=0
10062540 On ch=4 n=4 v=100
10063925 Off ch=4 n=4 v=0
10064415 On ch=4 n=3 v=100
10066727 Off ch=4 n=3 v=0
10066740 On ch=4 n=8 v=100
10067703 Off ch=4 n=8 v=0
10070909 On ch=4 n=17 v=100
10071261 Off ch=4 n=17 v=0
10077834 On ch=4 n=6 v=100
10078640 Off ch=4 n=6 v=0
10080450 On ch=4 n=14 v=100
10080589 Off ch=4 n=14 v=0
10091500 On ch=4 n=43 v=100
10091574 Off ch=4 n=43 v=0
10134429 On ch=4 n=12 v=100
10134919 Off ch=4 n=12 v=0
10137872 On ch=4 n=13 v=100
10138315 Off ch=4 n=13 v=0
10145235 On ch=4 n=19 v=100
10145662 Off ch=4 n=19 v=0
10145667 On ch=4 n=28 v=100
10145951 Off ch=4 n=28 v=0
10152129 On ch=4 n=3 v=100
10152291 On ch=4 n=20 v=100
10152311 On ch=4 n=4 v=100
10152313 Off ch=4 n=3 v=0
10152469 Off ch=4 n=20 v=0
10152652 On ch=4 n=5 v=100
10152670 Off ch=4 n=4 v=0
10153383 Off ch=4 n=5 v=0
10158543 On ch=4 n=43 v=100
10158582 On ch=4 n=37 v=100
10158752 Off ch=4 n=43 v=0
10158774 Off ch=4 n=37 v=0
10159817 On ch=4 n=6 v=100
10160732 Off ch=4 n=6 v=0
10160734 On ch=4 n=5 v=100
10162373 On ch=4 n=4 v=100
10162374 Off ch=4 n=5 v=0
10163239 Off ch=4 n=4 v=0
10163241 On ch=4 n=2 v=100
10167417 On ch=4 n=5 v=100
10167445 Off ch=4 n=2 v=0
10167965 On ch=4 n=3 v=100
10167972 Off ch=4 n=5 v=0
10171276 On ch=4 n=18 v=100
10171776 Off ch=4 n=3 v=0
10171778 On ch=4 n=6 v=100
10172306 Off ch=4 n=18 v=0
10172654 Off ch=4 n=6 v=0
10173720 On ch=4 n=32 v=100
10174258 Off ch=4 n=32 v=0
10175295 On ch=4 n=46 v=100
10175353 On ch=4 n=36 v=100
10175393 Off ch=4 n=46 v=0
10175416 Off ch=4 n=36 v=0
10176631 On ch=4 n=0 v=100
10178290 Off ch=4 n=0 v=0
10189794 On ch=4 n=17 v=100
10189955 Off ch=4 n=17 v=0
10226564 On ch=4 n=12 v=100
10226721 Off ch=4 n=12 v=0
10227482 On ch=4 n=36 v=100
10227674 Off ch=4 n=36 v=0
10231513 On ch=4 n=19 v=100
10231684 Off ch=4 n=19 v=0
10242463 On ch=4 n=13 v=100
10242903 Off ch=4 n=13 v=0
10243495 On ch=4 n=47 v=100
10243532 On ch=4 n=9 v=100
10243824 Off ch=4 n=9 v=0
10243838 Off ch=4 n=47 v=0
10244177 On ch=4 n=10 v=100
10244198 On ch=4 n=52 v=100
10244460 Off ch=4 n=10 v=0
10244462 On ch=4 n=23 v=100
10244527 Off ch=4 n=52 v=0
10244824 Off ch=4 n=23 v=0
10247950 On ch=4 n=13 v=100
10248154 Off ch=4 n=13 v=0
10253222 On ch=4 n=10 v=100
10253783 Off ch=4 n=10 v=0
10256011 On ch=4 n=41 v=100
10256100 Off ch=4 n=41 v=0
10256322 On ch=4 n=27 v=100
10256408 Off ch=4 n=27 v=0
10256495 On ch=4 n=36 v=100
10256577 Off ch=4 n=36 v=0
10256655 On ch=4 n=27 v=100
10256728 Off ch=4 n=27 v=0
10256788 On ch=4 n=19 v=100
10256802 On ch=4 n=11 v=100
10256884 Off ch=4 n=19 v=0
10258249 Off ch=4 n=11 v=0
10258663 On ch=4 n=35 v=100
10258753 Off ch=4 n=35 v=0
10258820 On ch=4 n=31 v=100
10258820 On ch=4 n=31 v=100
10258919 Off ch=4 n=31 v=0
10258919 Off ch=4 n=31 v=0
10258993 On ch=4 n=24 v=100
10259067 Off ch=4 n=24 v=0
10259154 On ch=4 n=41 v=100
10259229 Off ch=4 n=41 v=0
10259312 On ch=4 n=28 v=100
10259387 Off ch=4 n=28 v=0
10259788 On ch=4 n=37 v=100
10259866 Off ch=4 n=37 v=0
10259948 On ch=4 n=30 v=100
10260025 Off ch=4 n=30 v=0
10260107 On ch=4 n=40 v=100
10260180 Off ch=4 n=40 v=0
10260250 On ch=4 n=43 v=100
10260384 Off ch=4 n=43 v=0
10260410 On ch=4 n=29 v=100
10260500 Off ch=4 n=29 v=0
10260516 On ch=4 n=38 v=100
10260598 Off ch=4 n=38 v=0
10260663 On ch=4 n=38 v=100
10260796 Off ch=4 n=38 v=0
10260833 On ch=4 n=33 v=100
10260910 Off ch=4 n=33 v=0
10261153 On ch=4 n=26 v=100
10261230 Off ch=4 n=26 v=0
10261298 On ch=4 n=43 v=100
10261432 Off ch=4 n=43 v=0
10261478 On ch=4 n=28 v=100
10261548 Off ch=4 n=28 v=0
10261787 On ch=4 n=33 v=100
10261864 Off ch=4 n=33 v=0
10261950 On ch=4 n=28 v=100
10262025 Off ch=4 n=28 v=0
10262108 On ch=4 n=25 v=100
10262186 Off ch=4 n=25 v=0
10262254 On ch=4 n=32 v=100
10262351 Off ch=4 n=32 v=0
10262416 On ch=4 n=38 v=100
10262508 Off ch=4 n=38 v=0
10262584 On ch=4 n=30 v=100
10262668 Off ch=4 n=30 v=0
10262744 On ch=4 n=40 v=100
10262863 Off ch=4 n=40 v=0
10262902 On ch=4 n=34 v=100
10262980 Off ch=4 n=34 v=0
10263206 On ch=4 n=31 v=100
10263296 Off ch=4 n=31 v=0
10263371 On ch=4 n=38 v=100
10263460 Off ch=4 n=38 v=0
10263538 On ch=4 n=30 v=100
10263622 Off ch=4 n=30 v=0
10263698 On ch=4 n=35 v=100
10263775 Off ch=4 n=35 v=0
10264056 On ch=4 n=36 v=100
10264148 Off ch=4 n=36 v=0
10264235 On ch=4 n=23 v=100
10264304 Off ch=4 n=23 v=0
10264380 On ch=4 n=36 v=100
10264469 Off ch=4 n=36 v=0
10264549 On ch=4 n=27 v=100
10264622 Off ch=4 n=27 v=0
10264866 On ch=4 n=32 v=100
10264948 Off ch=4 n=32 v=0
10265026 On ch=4 n=29 v=100
10265103 Off ch=4 n=29 v=0
10265335 On ch=4 n=33 v=100
10265423 Off ch=4 n=33 v=0
10265494 On ch=4 n=33 v=100
10265582 Off ch=4 n=33 v=0
10265661 On ch=4 n=26 v=100
10265741 Off ch=4 n=26 v=0
10265821 On ch=4 n=31 v=100
10265894 Off ch=4 n=31 v=0
10266297 On ch=4 n=25 v=100
10266375 Off ch=4 n=25 v=0
10266444 On ch=4 n=43 v=100
10266530 Off ch=4 n=43 v=0
10266602 On ch=4 n=41 v=100
10266699 Off ch=4 n=41 v=0
10266760 On ch=4 n=39 v=100
10266854 Off ch=4 n=39 v=0
10267079 On ch=4 n=32 v=100
10267176 Off ch=4 n=32 v=0
10267237 On ch=4 n=30 v=100
10267333 Off ch=4 n=30 v=0
10267409 On ch=4 n=30 v=100
10267489 Off ch=4 n=30 v=0
10267558 On ch=4 n=31 v=100
10267653 Off ch=4 n=31 v=0
10267727 On ch=4 n=28 v=100
10267806 Off ch=4 n=28 v=0
10267876 On ch=4 n=40 v=100
10267960 Off ch=4 n=40 v=0
10268045 On ch=4 n=30 v=100
10268124 Off ch=4 n=30 v=0
10268191 On ch=4 n=39 v=100
10268284 Off ch=4 n=39 v=0
10268507 On ch=4 n=38 v=100
10268507 On ch=4 n=38 v=100
10268606 Off ch=4 n=38 v=0
10268606 Off ch=4 n=38 v=0
10268825 On ch=4 n=36 v=100
10268916 Off ch=4 n=36 v=0
10268998 On ch=4 n=26 v=100
10269004 On ch=4 n=45 v=100
10269072 Off ch=4 n=26 v=0
10269149 Off ch=4 n=45 v=0
10269153 On ch=4 n=37 v=100
10269237 Off ch=4 n=37 v=0
10269303 On ch=4 n=33 v=100
10269393 Off ch=4 n=33 v=0
10269478 On ch=4 n=51 v=100
10269549 Off ch=4 n=51 v=0
10269620 On ch=4 n=31 v=100
10269710 Off ch=4 n=31 v=0
10269786 On ch=4 n=37 v=100
10269874 Off ch=4 n=37 v=0
10269952 On ch=4 n=30 v=100
10270036 Off ch=4 n=30 v=0
10270112 On ch=4 n=37 v=100
10270191 Off ch=4 n=37 v=0
10270445 On ch=4 n=47 v=100
10270502 Off ch=4 n=47 v=0
10270579 On ch=4 n=33 v=100
10270666 Off ch=4 n=33 v=0
10270735 On ch=4 n=32 v=100
10270822 Off ch=4 n=32 v=0
10270901 On ch=4 n=35 v=100
10270989 Off ch=4 n=35 v=0
10271055 On ch=4 n=35 v=100
10271152 Off ch=4 n=35 v=0
10271228 On ch=4 n=31 v=100
10271302 Off ch=4 n=31 v=0
10271545 On ch=4 n=35 v=100
10271626 Off ch=4 n=35 v=0
10271705 On ch=4 n=31 v=100
10271778 Off ch=4 n=31 v=0
10271867 On ch=4 n=49 v=100
10271938 Off ch=4 n=49 v=0
10272009 On ch=4 n=38 v=100
10272103 Off ch=4 n=38 v=0
10272340 On ch=4 n=28 v=100
10272424 Off ch=4 n=28 v=0
10272500 On ch=4 n=37 v=100
10272579 Off ch=4 n=37 v=0
10272645 On ch=4 n=30 v=100
10272734 Off ch=4 n=30 v=0
10272971 On ch=4 n=33 v=100
10273058 Off ch=4 n=33 v=0
10273124 On ch=4 n=35 v=100
10273220 Off ch=4 n=35 v=0
10273288 On ch=4 n=37 v=100
10273379 Off ch=4 n=37 v=0
10273455 On ch=4 n=28 v=100
10273535 Off ch=4 n=28 v=0
10273782 On ch=4 n=21 v=100
10273845 Off ch=4 n=21 v=0
10273927 On ch=4 n=32 v=100
10274003 Off ch=4 n=32 v=0
10274086 On ch=4 n=32 v=100
10274168 Off ch=4 n=32 v=0
10274231 On ch=4 n=30 v=100
10274328 Off ch=4 n=30 v=0
10274404 On ch=4 n=30 v=100
10274487 Off ch=4 n=30 v=0
10274706 On ch=4 n=42 v=100
10274706 On ch=4 n=42 v=100
10274804 Off ch=4 n=42 v=0
10274804 Off ch=4 n=42 v=0
10274883 On ch=4 n=30 v=100
10274967 Off ch=4 n=30 v=0
10275043 On ch=4 n=27 v=100
10275120 Off ch=4 n=27 v=0
10275202 On ch=4 n=32 v=100
10275278 Off ch=4 n=32 v=0
10275361 On ch=4 n=35 v=100
10275442 Off ch=4 n=35 v=0
10275505 On ch=4 n=30 v=100
10275603 Off ch=4 n=30 v=0
10275679 On ch=4 n=27 v=100
10275756 Off ch=4 n=27 v=0
10275838 On ch=4 n=30 v=100
10275914 Off ch=4 n=30 v=0
10275997 On ch=4 n=39 v=100
10276078 Off ch=4 n=39 v=0
10276111 On ch=4 n=21 v=100
10276179 Off ch=4 n=21 v=0
10276252 On ch=4 n=35 v=100
10276340 Off ch=4 n=35 v=0
10276420 On ch=4 n=31 v=100
10276494 Off ch=4 n=31 v=0
10276565 On ch=4 n=43 v=100
10276655 Off ch=4 n=43 v=0
10276737 On ch=4 n=26 v=100
10276821 Off ch=4 n=26 v=0
10276897 On ch=4 n=31 v=100
10276971 Off ch=4 n=31 v=0
10277040 On ch=4 n=33 v=100
10277040 On ch=4 n=33 v=100
10277133 Off ch=4 n=33 v=0
10277133 Off ch=4 n=33 v=0
10277223 On ch=4 n=46 v=100
10277286 Off ch=4 n=46 v=0
10277368 On ch=4 n=38 v=100
10277441 Off ch=4 n=38 v=0
10277675 On ch=4 n=37 v=100
10277770 Off ch=4 n=37 v=0
10283269 On ch=4 n=36 v=100
10283353 Off ch=4 n=36 v=0
10285321 On ch=4 n=1 v=100
10287645 On ch=4 n=4 v=100
10287645 Off ch=4 n=1 v=0
10288726 Off ch=4 n=4 v=0
10288774 On ch=4 n=4 v=100
10290738 On ch=4 n=43 v=100
10291375 On ch=4 n=18 v=100
10291584 Off ch=4 n=4 v=0
10291729 Off ch=4 n=18 v=0
10291735 Off ch=4 n=43 v=0
10293428 On ch=4 n=38 v=100
10293493 On ch=4 n=33 v=100
10293597 Off ch=4 n=38 v=0
10293616 Off ch=4 n=33 v=0
10305873 On ch=4 n=30 v=100
10305892 On ch=4 n=4 v=100
10306022 Off ch=4 n=30 v=0
10309855 Off ch=4 n=4 v=0
10309882 On ch=4 n=4 v=100
10311102 Off ch=4 n=4 v=0
10311159 On ch=4 n=4 v=100
10311247 On ch=4 n=31 v=100
10311958 Off ch=4 n=4 v=0
10312147 Off ch=4 n=31 v=0
10317607 On ch=4 n=3 v=100
10318017 Off ch=4 n=3 v=0
10322839 On ch=4 n=9 v=100
10323075 Off ch=4 n=9 v=0
10323078 On ch=4 n=3 v=100
10323493 Off ch=4 n=3 v=0
10323971 On ch=4 n=6 v=100
10327157 Off ch=4 n=6 v=0
10327159 On ch=4 n=5 v=100
10327804 Off ch=4 n=5 v=0
10339873 On ch=4 n=2 v=100
10340112 Off ch=4 n=2 v=0
10340117 On ch=4 n=3 v=100
10344955 On ch=4 n=37 v=100
10345184 On ch=4 n=15 v=100
10345187 Off ch=4 n=3 v=0
10345242 Off ch=4 n=37 v=0
10345763 Off ch=4 n=15 v=0
10353794 On ch=4 n=2 v=100
10354164 Off ch=4 n=2 v=0
10355278 On ch=4 n=53 v=100
10355435 Off ch=4 n=53 v=0
10361197 On ch=4 n=6 v=100
10361312 Off ch=4 n=6 v=0
10367962 On ch=4 n=69 v=100
10368146 Off ch=4 n=69 v=0
10369615 On ch=4 n=4 v=100
10370284 Off ch=4 n=4 v=0
10370286 On ch=4 n=2 v=100
10371437 Off ch=4 n=2 v=0
10372803 On ch=4 n=4 v=100
10373795 Off ch=4 n=4 v=0
10376581 On ch=4 n=5 v=100
10377460 Off ch=4 n=5 v=0
10377463 On ch=4 n=36 v=100
10378112 On ch=4 n=4 v=100
10378114 Off ch=4 n=36 v=0
10381656 Off ch=4 n=4 v=0
10381657 On ch=4 n=4 v=100
10382470 On ch=4 n=2 v=100
10382475 Off ch=4 n=4 v=0
10384270 Off ch=4 n=2 v=0
10384272 On ch=4 n=5 v=100
10385147 Off ch=4 n=5 v=0
10388886 On ch=4 n=3 v=100
10390070 Off ch=4 n=3 v=0
10390075 On ch=4 n=2 v=100
10391277 Off ch=4 n=2 v=0
10400059 On ch=4 n=11 v=100
10401008 Off ch=4 n=11 v=0
10402160 On ch=4 n=11 v=100
10403591 On ch=4 n=6 v=100
10403593 Off ch=4 n=11 v=0
10405678 On ch=4 n=5 v=100
10405678 Off ch=4 n=6 v=0
10407450 Off ch=4 n=5 v=0
10420162 On ch=4 n=5 v=100
10420271 Off ch=4 n=5 v=0
10453558 On ch=4 n=2 v=100
10454899 Off ch=4 n=2 v=0
10454903 On ch=4 n=4 v=100
10455565 Off ch=4 n=4 v=0
10491170 On ch=4 n=24 v=100
10491258 Off ch=4 n=24 v=0
10491285 On ch=4 n=24 v=100
10491748 Off ch=4 n=24 v=0
10494058 On ch=4 n=15 v=100
10494223 Off ch=4 n=15 v=0
10496557 On ch=4 n=3 v=100
10496958 On ch=4 n=0 v=100
10497005 Off ch=4 n=3 v=0
10497078 Off ch=4 n=0 v=0
10499143 On ch=4 n=18 v=100
10499310 Off ch=4 n=18 v=0
10500852 On ch=4 n=5 v=100
10501774 Off ch=4 n=5 v=0
10502900 On ch=4 n=5 v=100
10503646 Off ch=4 n=5 v=0
10507964 On ch=4 n=21 v=100
10508102 Off ch=4 n=21 v=0
10508106 On ch=4 n=24 v=100
10509304 Off ch=4 n=24 v=0
10511756 On ch=4 n=38 v=100
10511756 On ch=4 n=25 v=100
10511954 Off ch=4 n=25 v=0
10512018 Off ch=4 n=38 v=0
10519559 On ch=4 n=13 v=100
10519924 Off ch=4 n=13 v=0
10522479 On ch=4 n=29 v=100
10523159 Off ch=4 n=29 v=0
10523247 On ch=4 n=33 v=100
10523312 On ch=4 n=39 v=100
10523599 Off ch=4 n=33 v=0
10523602 On ch=4 n=3 v=100
10524487 Off ch=4 n=39 v=0
10524488 Off ch=4 n=3 v=0
10524506 On ch=4 n=24 v=100
10524628 Off ch=4 n=24 v=0
10526403 On ch=4 n=5 v=100
10528134 Off ch=4 n=5 v=0
10531867 On ch=4 n=15 v=100
10532034 Off ch=4 n=15 v=0
10564648 On ch=4 n=4 v=100
10565120 Off ch=4 n=4 v=0
10565124 On ch=4 n=3 v=100
10565135 On ch=4 n=37 v=100
10565384 On ch=4 n=3 v=100
10565385 Off ch=4 n=3 v=0
10565440 Off ch=4 n=37 v=0
10565881 Off ch=4 n=3 v=0
10569825 On ch=4 n=9 v=100
10570466 On ch=4 n=5 v=100
10570467 Off ch=4 n=9 v=0
10571247 Off ch=4 n=5 v=0
10571249 On ch=4 n=1 v=100
10573981 Off ch=4 n=1 v=0
10573983 On ch=4 n=5 v=100
10574764 Off ch=4 n=5 v=0
10574767 On ch=4 n=9 v=100
10575075 On ch=4 n=24 v=100
10575204 Off ch=4 n=9 v=0
10575817 Off ch=4 n=24 v=0
10575938 On ch=4 n=24 v=100
10576144 Off ch=4 n=24 v=0
10576876 On ch=4 n=2 v=100
10577140 Off ch=4 n=2 v=0
10577777 On ch=4 n=0 v=100
10577892 Off ch=4 n=0 v=0
10577894 On ch=4 n=0 v=100
10584421 Off ch=4 n=0 v=0
10584423 On ch=4 n=2 v=100
10584687 Off ch=4 n=2 v=0
10585324 On ch=4 n=0 v=100
10585439 Off ch=4 n=0 v=0
10585568 On ch=4 n=11 v=100
10585861 Off ch=4 n=11 v=0
10586617 On ch=4 n=7 v=100
10587387 Off ch=4 n=7 v=0
10587389 On ch=4 n=5 v=100
10587729 Off ch=4 n=5 v=0
10587731 On ch=4 n=7 v=100
10588092 Off ch=4 n=7 v=0
10589385 On ch=4 n=10 v=100
10589486 Off ch=4 n=10 v=0
10592757 On ch=4 n=18 v=100
10592943 Off ch=4 n=18 v=0
10593469 On ch=4 n=15 v=100
10593620 Off ch=4 n=15 v=0
10597718 On ch=4 n=18 v=100
10597878 Off ch=4 n=18 v=0
10608441 On ch=4 n=25 v=100
10608585 Off ch=4 n=25 v=0
10608899 On ch=4 n=20 v=100
10609366 Off ch=4 n=20 v=0
10609673 On ch=4 n=8 v=100
10609867 Off ch=4 n=8 v=0
10642617 On ch=4 n=38 v=100
10643106 Off ch=4 n=38 v=0
10644039 On ch=4 n=3 v=100
10644207 Off ch=4 n=3 v=0
10645284 On ch=4 n=2 v=100
10645960 Off ch=4 n=2 v=0
10656160 On ch=4 n=47 v=100
10656255 Off ch=4 n=47 v=0
10663283 On ch=4 n=3 v=100
10664834 On ch=4 n=2 v=100
10664840 Off ch=4 n=3 v=0
10669109 Off ch=4 n=2 v=0
10672422 On ch=4 n=4 v=100
10672573 Off ch=4 n=4 v=0
10672742 On ch=4 n=9 v=100
10672894 Off ch=4 n=9 v=0
10673363 On ch=4 n=50 v=100
10673610 Off ch=4 n=50 v=0
10673993 On ch=4 n=48 v=100
10674198 Off ch=4 n=48 v=0
10686244 On ch=4 n=1 v=100
10686777 On ch=4 n=3 v=100
10686777 Off ch=4 n=1 v=0
10687195 On ch=4 n=3 v=100
10687265 On ch=4 n=25 v=100
10687273 Off ch=4 n=3 v=0
10687285 On ch=4 n=1 v=100
10687288 Off ch=4 n=3 v=0
10687387 Off ch=4 n=25 v=0
10688694 Off ch=4 n=1 v=0
10688698 On ch=4 n=3 v=100
10692619 On ch=4 n=0 v=100
10692624 Off ch=4 n=3 v=0
10698601 On ch=4 n=0 v=100
10698603 Off ch=4 n=0 v=0
10699960 Off ch=4 n=0 v=0
10701369 On ch=4 n=14 v=100
10701719 Off ch=4 n=14 v=0
10706383 On ch=4 n=7 v=100
10707210 Off ch=4 n=7 v=0
10707297 On ch=4 n=21 v=100
10707532 Off ch=4 n=21 v=0
10708869 On ch=4 n=12 v=100
10709011 Off ch=4 n=12 v=0
10710729 On ch=4 n=3 v=100
10711339 Off ch=4 n=3 v=0
10721834 On ch=4 n=25 v=100
10721995 Off ch=4 n=25 v=0
10726098 On ch=4 n=18 v=100
10726267 Off ch=4 n=18 v=0
10732974 On ch=4 n=11 v=100
10733581 Off ch=4 n=11 v=0
10734747 On ch=4 n=17 v=100
10735081 On ch=4 n=10 v=100
10735716 Off ch=4 n=17 v=0
10736110 Off ch=4 n=10 v=0
10744915 On ch=4 n=3 v=100
10746348 Off ch=4 n=3 v=0
10764877 On ch=4 n=3 v=100
10764984 Off ch=4 n=3 v=0
10766220 On ch=4 n=4 v=100
10766839 Off ch=4 n=4 v=0
10766842 On ch=4 n=6 v=100
10767263 Off ch=4 n=6 v=0
10771192 On ch=4 n=2 v=100
10771296 Off ch=4 n=2 v=0
10773460 On ch=4 n=14 v=100
10773837 Off ch=4 n=14 v=0
10779378 On ch=4 n=2 v=100
10779799 Off ch=4 n=2 v=0
10779801 On ch=4 n=2 v=100
10783653 Off ch=4 n=2 v=0
10783655 On ch=4 n=2 v=100
10784076 Off ch=4 n=2 v=0
10793648 On ch=4 n=18 v=100
10793810 Off ch=4 n=18 v=0
10794574 On ch=4 n=29 v=100
10794596 On ch=4 n=36 v=100
10794770 Off ch=4 n=29 v=0
10794773 Off ch=4 n=36 v=0
10802878 On ch=4 n=8 v=100
10803477 Off ch=4 n=8 v=0
10804508 On ch=4 n=43 v=100
10804704 Off ch=4 n=43 v=0
10808564 On ch=4 n=34 v=100
10808566 On ch=4 n=39 v=100
10808654 Off ch=4 n=34 v=0
10808666 Off ch=4 n=39 v=0
10809271 On ch=4 n=30 v=100
10809291 On ch=4 n=3 v=100
10809343 Off ch=4 n=30 v=0
10809349 Off ch=4 n=3 v=0
10809350 On ch=4 n=7 v=100
10809754 On ch=4 n=31 v=100
10809794 Off ch=4 n=7 v=0
10809796 On ch=4 n=19 v=100
10809807 Off ch=4 n=31 v=0
10810147 Off ch=4 n=19 v=0
10810773 On ch=4 n=5 v=100
10812354 Off ch=4 n=5 v=0
10831344 On ch=4 n=48 v=100
10832428 Off ch=4 n=48 v=0
10839397 On ch=4 n=5 v=100
10839658 Off ch=4 n=5 v=0
10843251 On ch=4 n=1 v=100
10843383 Off ch=4 n=1 v=0
10843385 On ch=4 n=3 v=100
10843448 Off ch=4 n=3 v=0
10843449 On ch=4 n=5 v=100
10844654 Off ch=4 n=5 v=0
10844655 On ch=4 n=3 v=100
10846212 Off ch=4 n=3 v=0
10846221 On ch=4 n=5 v=100
10847854 Off ch=4 n=5 v=0
10848445 On ch=4 n=52 v=100
10848525 Off ch=4 n=52 v=0
10863362 On ch=4 n=27 v=100
10863385 On ch=4 n=9 v=100
10863388 On ch=4 n=23 v=100
10863541 Off ch=4 n=27 v=0
10863550 Off ch=4 n=9 v=0
10863557 On ch=4 n=12 v=100
10863676 Off ch=4 n=23 v=0
10864449 Off ch=4 n=12 v=0
10864501 On ch=4 n=12 v=100
10866073 On ch=4 n=39 v=100
10866510 On ch=4 n=1 v=100
10866514 Off ch=4 n=12 v=0
10866625 On ch=4 n=43 v=100
10866738 Off ch=4 n=39 v=0
10867617 Off ch=4 n=1 v=0
10867740 On ch=4 n=2 v=100
10867740 Off ch=4 n=43 v=0
10868119 Off ch=4 n=2 v=0
10869448 On ch=4 n=8 v=100
10869748 Off ch=4 n=8 v=0
10869750 On ch=4 n=2 v=100
10874007 Off ch=4 n=2 v=0
10874009 On ch=4 n=7 v=100
10874309 Off ch=4 n=7 v=0
10880402 On ch=4 n=8 v=100
10881356 Off ch=4 n=8 v=0
10881370 On ch=4 n=5 v=100
10881957 Off ch=4 n=5 v=0
10887708 On ch=4 n=2 v=100
10891703 On ch=4 n=3 v=100
10891704 Off ch=4 n=2 v=0
10897865 On ch=4 n=2 v=100
10897869 Off ch=4 n=3 v=0
10898273 On ch=4 n=19 v=100
10898776 Off ch=4 n=2 v=0
10898778 On ch=4 n=5 v=100
10899299 Off ch=4 n=19 v=0
10899646 Off ch=4 n=5 v=0
10900579 On ch=4 n=2 v=100
10902409 Off ch=4 n=2 v=0
10905474 On ch=4 n=9 v=100
10905865 On ch=4 n=11 v=100
10906001 Off ch=4 n=9 v=0
10906102 Off ch=4 n=11 v=0
10911136 On ch=4 n=2 v=100
10917167 Off ch=4 n=2 v=0
10920254 On ch=4 n=11 v=100
10920406 Off ch=4 n=11 v=0
10920576 On ch=4 n=4 v=100
10920726 Off ch=4 n=4 v=0
10923511 On ch=4 n=39 v=100
10923621 Off ch=4 n=39 v=0
10926144 On ch=4 n=41 v=100
10926285 Off ch=4 n=41 v=0
10926335 On ch=4 n=25 v=100
10926431 Off ch=4 n=25 v=0
10931263 On ch=4 n=41 v=100
10931404 Off ch=4 n=41 v=0
10935805 On ch=4 n=7 v=100
10936178 Off ch=4 n=7 v=0
10936180 On ch=4 n=5 v=100
10936314 Off ch=4 n=5 v=0
10936975 On ch=4 n=1 v=100
10942149 Off ch=4 n=1 v=0
10942151 On ch=4 n=7 v=100
10942525 Off ch=4 n=7 v=0
10943472 On ch=4 n=10 v=100
10944078 Off ch=4 n=10 v=0
10951625 On ch=4 n=39 v=100
10951771 Off ch=4 n=39 v=0
10952990 On ch=4 n=30 v=100
10953172 On ch=4 n=27 v=100
10953253 Off ch=4 n=30 v=0
10953354 Off ch=4 n=27 v=0
10953428 On ch=4 n=17 v=100
10954309 Off ch=4 n=17 v=0
10956902 On ch=4 n=8 v=100
10957051 Off ch=4 n=8 v=0
10957223 On ch=4 n=4 v=100
10957374 Off ch=4 n=4 v=0
10961188 On ch=4 n=6 v=100
10961337 On ch=4 n=20 v=100
10961337 On ch=4 n=2 v=100
10961339 Off ch=4 n=6 v=0
10961348 On ch=4 n=26 v=100
10961429 Off ch=4 n=2 v=0
10961441 Off ch=4 n=20 v=0
10961459 Off ch=4 n=26 v=0
10964507 On ch=4 n=36 v=100
10964667 Off ch=4 n=36 v=0
10984857 On ch=4 n=4 v=100
10986751 Off ch=4 n=4 v=0
10986752 On ch=4 n=2 v=100
10987062 Off ch=4 n=2 v=0
10987064 On ch=4 n=0 v=100
10988900 Off ch=4 n=0 v=0
11000853 On ch=4 n=4 v=100
11001257 Off ch=4 n=4 v=0
11001259 On ch=4 n=3 v=100
11002655 Off ch=4 n=3 v=0
11003815 On ch=4 n=11 v=100
11003986 On ch=4 n=19 v=100
11003994 Off ch=4 n=11 v=0
11004038 Off ch=4 n=19 v=0
11005667 On ch=4 n=6 v=100
11006281 Off ch=4 n=6 v=0
11008973 On ch=4 n=10 v=100
11009125 Off ch=4 n=10 v=0
11009294 On ch=4 n=3 v=100
11009445 Off ch=4 n=3 v=0
11022062 On ch=4 n=31 v=100
11022160 On ch=4 n=18 v=100
11022290 Off ch=4 n=31 v=0
11022695 Off ch=4 n=18 v=0
11024070 On ch=4 n=17 v=100
11024563 Off ch=4 n=17 v=0
11030530 On ch=4 n=3 v=100
11031430 On ch=4 n=1 v=100
11031444 Off ch=4 n=3 v=0
11034475 On ch=4 n=16 v=100
11034480 On ch=4 n=4 v=100
11034481 Off ch=4 n=1 v=0
11034514 Off ch=4 n=16 v=0
11034748 On ch=4 n=6 v=100
11034794 Off ch=4 n=4 v=0
11034800 Off ch=4 n=6 v=0
11036519 On ch=4 n=12 v=100
11036677 Off ch=4 n=12 v=0
11048851 On ch=4 n=18 v=100
11049157 Off ch=4 n=18 v=0
11049377 On ch=4 n=20 v=100
11049798 On ch=4 n=33 v=100
11049856 Off ch=4 n=20 v=0
11049873 Off ch=4 n=33 v=0
11050183 On ch=4 n=17 v=100
11050309 Off ch=4 n=17 v=0
11057850 On ch=4 n=20 v=100
11058018 Off ch=4 n=20 v=0
11058849 On ch=4 n=16 v=100
11059395 Off ch=4 n=16 v=0
11067591 On ch=4 n=18 v=100
11067758 Off ch=4 n=18 v=0
11069382 On ch=4 n=9 v=100
11069505 Off ch=4 n=9 v=0
11074751 On ch=4 n=53 v=100
11075220 Off ch=4 n=53 v=0
11081870 On ch=4 n=4 v=100
11083252 Off ch=4 n=4 v=0
11088167 On ch=4 n=35 v=100
11088208 Off ch=4 n=35 v=0
11092310 On ch=4 n=29 v=100
11092349 Off ch=4 n=29 v=0
11093517 On ch=4 n=32 v=100
11093557 Off ch=4 n=32 v=0
11094608 On ch=4 n=46 v=100
11094693 Off ch=4 n=46 v=0
11103481 On ch=4 n=4 v=100
11105629 Off ch=4 n=4 v=0
11105638 On ch=4 n=4 v=100
11106558 Off ch=4 n=4 v=0
11106559 On ch=4 n=6 v=100
11107087 On ch=4 n=9 v=100
11107124 Off ch=4 n=6 v=0
11107131 Off ch=4 n=9 v=0
11109485 On ch=4 n=14 v=100
11109646 Off ch=4 n=14 v=0
11113131 On ch=4 n=9 v=100
11113870 Off ch=4 n=9 v=0
11116548 On ch=4 n=9 v=100
11116606 Off ch=4 n=9 v=0
11117188 On ch=4 n=18 v=100
11117358 Off ch=4 n=18 v=0
11124673 On ch=4 n=11 v=100
11124710 Off ch=4 n=11 v=0
11125183 On ch=4 n=22 v=100
11125410 Off ch=4 n=22 v=0
11125421 On ch=4 n=33 v=100
11125821 Off ch=4 n=33 v=0
11126049 On ch=4 n=55 v=100
11126411 Off ch=4 n=55 v=0
11126772 On ch=4 n=12 v=100
11126883 Off ch=4 n=12 v=0
11128425 On ch=4 n=4 v=100
11129925 Off ch=4 n=4 v=0
11129927 On ch=4 n=3 v=100
11131362 On ch=4 n=6 v=100
11132520 On ch=4 n=44 v=100
11132550 Off ch=4 n=6 v=0
11132557 Off ch=4 n=3 v=0
11132561 On ch=4 n=53 v=100
11132590 On ch=4 n=11 v=100
11132608 Off ch=4 n=44 v=0
11132684 Off ch=4 n=53 v=0
11132983 Off ch=4 n=11 v=0
11139174 On ch=4 n=6 v=100
11139810 Off ch=4 n=6 v=0
11139816 On ch=4 n=5 v=100
11140700 On ch=4 n=5 v=100
11141246 Off ch=4 n=5 v=0
11141261 Off ch=4 n=5 v=0
11141306 On ch=4 n=5 v=100
11142838 Off ch=4 n=5 v=0
11146779 On ch=4 n=12 v=100
11146920 Off ch=4 n=12 v=0
11156247 On ch=4 n=30 v=100
11156422 Off ch=4 n=30 v=0
11156442 On ch=4 n=47 v=100
11157400 Off ch=4 n=47 v=0
11157960 On ch=4 n=48 v=100
11158613 Off ch=4 n=48 v=0
11165834 On ch=4 n=17 v=100
11166211 Off ch=4 n=17 v=0
11167187 On ch=4 n=10 v=100
11167239 On ch=4 n=13 v=100
11167242 Off ch=4 n=10 v=0
11167677 Off ch=4 n=13 v=0
11168518 On ch=4 n=9 v=100
11169097 Off ch=4 n=9 v=0
11169101 On ch=4 n=25 v=100
11169215 On ch=4 n=19 v=100
11169216 Off ch=4 n=25 v=0
11169367 Off ch=4 n=19 v=0
11170050 On ch=4 n=4 v=100
11171668 Off ch=4 n=4 v=0
11176102 On ch=4 n=31 v=100
11176162 Off ch=4 n=31 v=0
11184490 On ch=4 n=67 v=100
11184664 Off ch=4 n=67 v=0
11186539 On ch=4 n=67 v=100
11186713 Off ch=4 n=67 v=0
11190630 On ch=4 n=70 v=100
11190814 Off ch=4 n=70 v=0
11192489 On ch=4 n=10 v=100
11192625 Off ch=4 n=10 v=0
11197243 On ch=4 n=12 v=100
11197405 Off ch=4 n=12 v=0
11204258 On ch=4 n=27 v=100
11205451 Off ch=4 n=27 v=0
11213753 On ch=4 n=18 v=100
11213916 Off ch=4 n=18 v=0
11217210 On ch=4 n=6 v=100
11217981 Off ch=4 n=6 v=0
11222385 On ch=4 n=14 v=100
11222545 Off ch=4 n=14 v=0
11232794 On ch=4 n=15 v=100
11233191 Off ch=4 n=15 v=0
11233193 On ch=4 n=4 v=100
11237500 Off ch=4 n=4 v=0
11237502 On ch=4 n=15 v=100
11237899 Off ch=4 n=15 v=0
11243497 On ch=4 n=13 v=100
11243872 Off ch=4 n=13 v=0
11257674 On ch=4 n=11 v=100
11257818 Off ch=4 n=11 v=0
11258576 On ch=4 n=29 v=100
11258598 On ch=4 n=35 v=100
11258759 Off ch=4 n=29 v=0
11258774 Off ch=4 n=35 v=0
11262893 On ch=4 n=15 v=100
11263055 Off ch=4 n=15 v=0
11265290 On ch=4 n=8 v=100
11265886 Off ch=4 n=8 v=0
11278313 On ch=4 n=19 v=100
11278534 Off ch=4 n=19 v=0
11281349 On ch=4 n=15 v=100
11281917 Off ch=4 n=15 v=0
11281921 On ch=4 n=5 v=100
11282445 On ch=4 n=5 v=100
11282446 Off ch=4 n=5 v=0
11284552 Off ch=4 n=5 v=0
11285990 On ch=4 n=5 v=100
11286409 Off ch=4 n=5 v=0
11290526 On ch=4 n=2 v=100
11290725 Off ch=4 n=2 v=0
11290727 On ch=4 n=1 v=100
11294897 Off ch=4 n=1 v=0
11294900 On ch=4 n=3 v=100
11295095 Off ch=4 n=3 v=0
11296357 On ch=4 n=10 v=100
11296541 Off ch=4 n=10 v=0
11300714 On ch=4 n=8 v=100
11300949 Off ch=4 n=8 v=0
11300951 On ch=4 n=4 v=100
11305231 Off ch=4 n=4 v=0
11305234 On ch=4 n=6 v=100
11305620 Off ch=4 n=6 v=0
11305655 On ch=4 n=6 v=100
11306397 Off ch=4 n=6 v=0
11307540 On ch=4 n=4 v=100
11309849 Off ch=4 n=4 v=0
11312071 On ch=4 n=15 v=100
11312315 Off ch=4 n=15 v=0
11312320 On ch=4 n=60 v=100
11312375 On ch=4 n=24 v=100
11312824 Off ch=4 n=60 v=0
11312917 Off ch=4 n=24 v=0
11312920 On ch=4 n=29 v=100
11313008 Off ch=4 n=29 v=0
11314538 On ch=4 n=22 v=100
11315291 Off ch=4 n=22 v=0
11315294 On ch=4 n=26 v=100
11315298 On ch=4 n=50 v=100
11315411 Off ch=4 n=26 v=0
11315417 On ch=4 n=29 v=100
11315435 Off ch=4 n=50 v=0
11315500 Off ch=4 n=29 v=0
11316616 On ch=4 n=24 v=100
11316716 Off ch=4 n=24 v=0
11316722 On ch=4 n=29 v=100
11316745 On ch=4 n=16 v=100
11316805 Off ch=4 n=16 v=0
11316808 Off ch=4 n=29 v=0
11323410 On ch=4 n=2 v=100
11329438 Off ch=4 n=2 v=0
11348802 On ch=4 n=17 v=100
11349171 Off ch=4 n=17 v=0
11349173 On ch=4 n=13 v=100
11349213 Off ch=4 n=13 v=0
11350588 On ch=4 n=9 v=100
11350670 Off ch=4 n=9 v=0
11354088 On ch=4 n=18 v=100
11354256 Off ch=4 n=18 v=0
11356003 On ch=4 n=16 v=100
11356164 Off ch=4 n=16 v=0
11366224 On ch=4 n=14 v=100
11366485 Off ch=4 n=14 v=0
11366486 On ch=4 n=3 v=100
11366853 Off ch=4 n=3 v=0
11366855 On ch=4 n=6 v=100
11366984 On ch=4 n=1 v=100
11366989 Off ch=4 n=6 v=0
11370807 Off ch=4 n=1 v=0
11375837 On ch=4 n=44 v=100
11376004 Off ch=4 n=44 v=0
11380761 On ch=4 n=43 v=100
11380761 On ch=4 n=24 v=100
11380955 On ch=4 n=33 v=100
11381211 Off ch=4 n=24 v=0
11381284 Off ch=4 n=43 v=0
11381284 Off ch=4 n=33 v=0
11386806 On ch=4 n=13 v=100
11387054 Off ch=4 n=13 v=0
11392541 On ch=4 n=13 v=100
11392691 On ch=4 n=4 v=100
11392695 Off ch=4 n=13 v=0
11392975 Off ch=4 n=4 v=0
11393951 On ch=4 n=45 v=100
11394041 On ch=4 n=4 v=100
11394130 Off ch=4 n=45 v=0
11396806 Off ch=4 n=4 v=0
11396870 On ch=4 n=4 v=100
11397441 Off ch=4 n=4 v=0
11397445 On ch=4 n=3 v=100
11397862 On ch=4 n=13 v=100
11397868 Off ch=4 n=3 v=0
11398101 Off ch=4 n=13 v=0
11426136 On ch=4 n=11 v=100
11426299 Off ch=4 n=11 v=0
11431855 On ch=4 n=17 v=100
11432018 Off ch=4 n=17 v=0
11432870 On ch=4 n=36 v=100
11432870 On ch=4 n=36 v=100
11433115 Off ch=4 n=36 v=0
11433115 Off ch=4 n=36 v=0
11437140 On ch=4 n=40 v=100
11437145 On ch=4 n=58 v=100
11437228 Off ch=4 n=58 v=0
11437259 Off ch=4 n=40 v=0
11440297 On ch=4 n=2 v=100
11440459 Off ch=4 n=2 v=0
11440461 On ch=4 n=0 v=100
11444614 Off ch=4 n=0 v=0
11444616 On ch=4 n=2 v=100
11444778 Off ch=4 n=2 v=0
11445867 On ch=4 n=31 v=100
11446410 Off ch=4 n=31 v=0
11461615 On ch=4 n=28 v=100
11461702 Off ch=4 n=28 v=0
11463348 On ch=4 n=9 v=100
11464270 Off ch=4 n=9 v=0
11464275 On ch=4 n=20 v=100
11464513 Off ch=4 n=20 v=0
11464552 On ch=4 n=20 v=100
11464718 Off ch=4 n=20 v=0
11466153 On ch=4 n=19 v=100
11466269 Off ch=4 n=19 v=0
11466286 On ch=4 n=31 v=100
11466436 Off ch=4 n=31 v=0
11481986 On ch=4 n=3 v=100
11482317 Off ch=4 n=3 v=0
11482319 On ch=4 n=3 v=100
11482910 On ch=4 n=4 v=100
11482911 Off ch=4 n=3 v=0
11483014 Off ch=4 n=4 v=0
11507795 On ch=4 n=4 v=100
11508015 Off ch=4 n=4 v=0
11508070 On ch=4 n=4 v=100
11508864 Off ch=4 n=4 v=0
11508953 On ch=4 n=4 v=100
11509490 Off ch=4 n=4 v=0
11509492 On ch=4 n=8 v=100
11509926 On ch=4 n=4 v=100
11510944 Off ch=4 n=8 v=0
11512860 Off ch=4 n=4 v=0
11514806 On ch=4 n=7 v=100
11515015 On ch=4 n=6 v=100
11515021 Off ch=4 n=7 v=0
11516482 Off ch=4 n=6 v=0
11516484 On ch=4 n=6 v=100
11516800 Off ch=4 n=6 v=0
11517354 On ch=4 n=8 v=100
11517987 Off ch=4 n=8 v=0
11518165 On ch=4 n=26 v=100
11518248 Off ch=4 n=26 v=0
11518310 On ch=4 n=28 v=100
11518401 Off ch=4 n=28 v=0
11518632 On ch=4 n=31 v=100
11518724 Off ch=4 n=31 v=0
11518792 On ch=4 n=32 v=100
11518871 Off ch=4 n=32 v=0
11518897 On ch=4 n=37 v=100
11519042 Off ch=4 n=37 v=0
11519112 On ch=4 n=29 v=100
11519203 Off ch=4 n=29 v=0
11519270 On ch=4 n=42 v=100
11519270 On ch=4 n=42 v=100
11519361 Off ch=4 n=42 v=0
11519361 Off ch=4 n=42 v=0
11519747 On ch=4 n=36 v=100
11519826 Off ch=4 n=36 v=0
11519863 On ch=4 n=40 v=100
11519863 On ch=4 n=40 v=100
11519998 Off ch=4 n=40 v=0
11519998 Off ch=4 n=40 v=0
11520062 On ch=4 n=30 v=100
11520151 Off ch=4 n=30 v=0
11520386 On ch=4 n=34 v=100
11520481 Off ch=4 n=34 v=0
11520543 On ch=4 n=30 v=100
11520617 Off ch=4 n=30 v=0
11520857 On ch=4 n=34 v=100
11520936 Off ch=4 n=34 v=0
11521132 On ch=4 n=40 v=100
11521266 Off ch=4 n=40 v=0
11521333 On ch=4 n=35 v=100
11521426 Off ch=4 n=35 v=0
11521496 On ch=4 n=17 v=100
11521572 Off ch=4 n=17 v=0
11521655 On ch=4 n=28 v=100
11521730 Off ch=4 n=28 v=0
11522132 On ch=4 n=34 v=100
11522211 Off ch=4 n=34 v=0
11522248 On ch=4 n=39 v=100
11522382 Off ch=4 n=39 v=0
11522449 On ch=4 n=43 v=100
11522525 Off ch=4 n=43 v=0
11522770 On ch=4 n=46 v=100
11522844 Off ch=4 n=46 v=0
11522921 On ch=4 n=35 v=100
11523019 Off ch=4 n=35 v=0
11523089 On ch=4 n=25 v=100
11523163 Off ch=4 n=25 v=0
11523361 On ch=4 n=39 v=100
11523495 Off ch=4 n=39 v=0
11523726 On ch=4 n=25 v=100
11523799 Off ch=4 n=25 v=0
11524197 On ch=4 n=25 v=100
11524276 Off ch=4 n=25 v=0
11524362 On ch=4 n=34 v=100
11524435 Off ch=4 n=34 v=0
11524518 On ch=4 n=41 v=100
11524609 Off ch=4 n=41 v=0
11524675 On ch=4 n=35 v=100
11524675 On ch=4 n=35 v=100
11524770 Off ch=4 n=35 v=0
11524770 Off ch=4 n=35 v=0
11528228 On ch=4 n=5 v=100
11529115 Off ch=4 n=5 v=0
11531522 On ch=4 n=15 v=100
11531664 Off ch=4 n=15 v=0
11532954 On ch=4 n=31 v=100
11533184 Off ch=4 n=31 v=0
11533273 On ch=4 n=7 v=100
11534095 Off ch=4 n=7 v=0
11547027 On ch=4 n=15 v=100
11547379 Off ch=4 n=15 v=0
11552418 On ch=4 n=15 v=100
11552789 Off ch=4 n=15 v=0
11554220 On ch=4 n=60 v=100
11554433 Off ch=4 n=60 v=0
11556647 On ch=4 n=2 v=100
11557525 Off ch=4 n=2 v=0
11557527 On ch=4 n=0 v=100
11562592 Off ch=4 n=0 v=0
11562594 On ch=4 n=2 v=100
11563478 Off ch=4 n=2 v=0
11569733 On ch=4 n=11 v=100
11569850 Off ch=4 n=11 v=0
11573855 On ch=4 n=41 v=100
11573930 Off ch=4 n=41 v=0
11573998 On ch=4 n=28 v=100
11574080 Off ch=4 n=28 v=0
11574169 On ch=4 n=32 v=100
11574245 Off ch=4 n=32 v=0
11574487 On ch=4 n=31 v=100
11574565 Off ch=4 n=31 v=0
11574799 On ch=4 n=36 v=100
11574882 Off ch=4 n=36 v=0
11575282 On ch=4 n=34 v=100
11575361 Off ch=4 n=34 v=0
11575442 On ch=4 n=37 v=100
11575563 Off ch=4 n=37 v=0
11575600 On ch=4 n=33 v=100
11575677 Off ch=4 n=33 v=0
11575918 On ch=4 n=33 v=100
11575995 Off ch=4 n=33 v=0
11576058 On ch=4 n=41 v=100
11576058 On ch=4 n=41 v=100
11576157 Off ch=4 n=41 v=0
11576157 Off ch=4 n=41 v=0
11576225 On ch=4 n=39 v=100
11576316 Off ch=4 n=39 v=0
11576514 On ch=4 n=44 v=100
11576647 Off ch=4 n=44 v=0
11576685 On ch=4 n=32 v=100
11576762 Off ch=4 n=32 v=0
11576851 On ch=4 n=44 v=100
11576919 Off ch=4 n=44 v=0
11577004 On ch=4 n=27 v=100
11577082 Off ch=4 n=27 v=0
11577165 On ch=4 n=43 v=100
11577237 Off ch=4 n=43 v=0
11577627 On ch=4 n=32 v=100
11577710 Off ch=4 n=32 v=0
11577946 On ch=4 n=32 v=100
11578024 Off ch=4 n=32 v=0
11578117 On ch=4 n=30 v=100
11578181 Off ch=4 n=30 v=0
11578249 On ch=4 n=35 v=100
11578249 On ch=4 n=35 v=100
11578342 Off ch=4 n=35 v=0
11578342 Off ch=4 n=35 v=0
11578574 On ch=4 n=33 v=100
11578661 Off ch=4 n=33 v=0
11578726 On ch=4 n=29 v=100
11578809 Off ch=4 n=29 v=0
11578987 On ch=4 n=11 v=100
11579241 Off ch=4 n=11 v=0
11579976 On ch=4 n=42 v=100
11580053 Off ch=4 n=42 v=0
11580550 On ch=4 n=9 v=100
11580931 Off ch=4 n=9 v=0
11581931 On ch=4 n=6 v=100
11582247 Off ch=4 n=6 v=0
11582249 On ch=4 n=6 v=100
11582918 Off ch=4 n=6 v=0
11582926 On ch=4 n=4 v=100
11583650 On ch=4 n=6 v=100
11583656 Off ch=4 n=4 v=0
11583865 Off ch=4 n=6 v=0
11609034 On ch=4 n=5 v=100
11609137 On ch=4 n=2 v=100
11609138 Off ch=4 n=5 v=0
11609730 Off ch=4 n=2 v=0
11609732 On ch=4 n=3 v=100
11610063 Off ch=4 n=3 v=0
11614576 On ch=4 n=15 v=100
11614625 Off ch=4 n=15 v=0
11617235 On ch=4 n=15 v=100
11617284 Off ch=4 n=15 v=0
11619895 On ch=4 n=15 v=100
11619944 Off ch=4 n=15 v=0
11630758 On ch=4 n=52 v=100
11630758 On ch=4 n=52 v=100
11630931 Off ch=4 n=52 v=0
11630931 Off ch=4 n=52 v=0
11637637 On ch=4 n=5 v=100
11638204 Off ch=4 n=5 v=0
11638206 On ch=4 n=1 v=100
11641112 On ch=4 n=23 v=100
11641281 Off ch=4 n=1 v=0
11641283 On ch=4 n=8 v=100
11641605 Off ch=4 n=23 v=0
11641859 Off ch=4 n=8 v=0
11641861 On ch=4 n=1 v=100
11643085 Off ch=4 n=1 v=0
11643087 On ch=4 n=1 v=100
11643441 Off ch=4 n=1 v=0
11647025 On ch=4 n=26 v=100
11647427 Off ch=4 n=26 v=0
11647429 On ch=4 n=19 v=100
11648749 On ch=4 n=22 v=100
11648758 Off ch=4 n=19 v=0
11648803 On ch=4 n=34 v=100
11648839 Off ch=4 n=22 v=0
11648841 On ch=4 n=24 v=100
11648887 Off ch=4 n=34 v=0
11648954 Off ch=4 n=24 v=0
11649522 On ch=4 n=23 v=100
11649797 Off ch=4 n=23 v=0
11664654 On ch=4 n=22 v=100
11664817 Off ch=4 n=22 v=0
11667563 On ch=4 n=34 v=100
11667858 Off ch=4 n=34 v=0
11673537 On ch=4 n=11 v=100
11673824 Off ch=4 n=11 v=0
11676174 On ch=4 n=3 v=100
11676251 Off ch=4 n=3 v=0
11682987 On ch=4 n=10 v=100
11683304 On ch=4 n=35 v=100
11683304 Off ch=4 n=10 v=0
11683318 On ch=4 n=21 v=100
11683359 Off ch=4 n=35 v=0
11684394 On ch=4 n=40 v=100
11684498 Off ch=4 n=21 v=0
11684515 Off ch=4 n=40 v=0
11685732 On ch=4 n=16 v=100
11686344 Off ch=4 n=16 v=0
11687105 On ch=4 n=18 v=100
11687411 Off ch=4 n=18 v=0
11690336 On ch=4 n=1 v=100
11690652 Off ch=4 n=1 v=0
11691881 On ch=4 n=16 v=100
11692020 Off ch=4 n=16 v=0
11698195 On ch=4 n=17 v=100
11698357 Off ch=4 n=17 v=0
11700973 On ch=4 n=4 v=100
11701755 Off ch=4 n=4 v=0
11701757 On ch=4 n=4 v=100
11701908 Off ch=4 n=4 v=0
11703395 On ch=4 n=6 v=100
11703506 Off ch=4 n=6 v=0
11705296 On ch=4 n=2 v=100
11705729 Off ch=4 n=2 v=0
11737041 On ch=4 n=11 v=100
11737619 Off ch=4 n=11 v=0
11741057 On ch=4 n=34 v=100
11741795 On ch=4 n=4 v=100
11742789 Off ch=4 n=34 v=0
11743495 On ch=4 n=55 v=100
11743502 On ch=4 n=38 v=100
11743578 On ch=4 n=14 v=100
11743621 Off ch=4 n=4 v=0
11743750 Off ch=4 n=38 v=0
11743917 Off ch=4 n=55 v=0
11744031 On ch=4 n=12 v=100
11746027 Off ch=4 n=14 v=0
11746537 Off ch=4 n=12 v=0
11746589 On ch=4 n=12 v=100
11747358 On ch=4 n=23 v=100
11747485 Off ch=4 n=12 v=0
11747492 On ch=4 n=9 v=100
11747654 Off ch=4 n=23 v=0
11747657 Off ch=4 n=9 v=0
11761947 On ch=4 n=3 v=100
11762712 Off ch=4 n=3 v=0
11762761 On ch=4 n=3 v=100
11763409 Off ch=4 n=3 v=0
11765925 On ch=4 n=15 v=100
11766266 Off ch=4 n=15 v=0
11774165 On ch=4 n=10 v=100
11774305 Off ch=4 n=10 v=0
11778628 On ch=4 n=12 v=100
11778770 Off ch=4 n=12 v=0
11781834 On ch=4 n=38 v=100
11782064 Off ch=4 n=38 v=0
11782818 On ch=4 n=16 v=100
11782983 Off ch=4 n=16 v=0
11795315 On ch=4 n=14 v=100
11795692 Off ch=4 n=14 v=0
11796823 On ch=4 n=1 v=100
11796868 On ch=4 n=43 v=100
11797088 Off ch=4 n=1 v=0
11797090 On ch=4 n=11 v=100
11797305 Off ch=4 n=43 v=0
11798130 Off ch=4 n=11 v=0
11799998 On ch=4 n=19 v=100
11800145 Off ch=4 n=19 v=0
11818327 On ch=4 n=7 v=100
11819111 Off ch=4 n=7 v=0
11836498 On ch=4 n=33 v=100
11836568 Off ch=4 n=33 v=0
11836625 On ch=4 n=18 v=100
11836697 Off ch=4 n=18 v=0
11836789 On ch=4 n=30 v=100
11836868 Off ch=4 n=30 v=0
11836955 On ch=4 n=23 v=100
11837013 Off ch=4 n=23 v=0
11837102 On ch=4 n=34 v=100
11837181 Off ch=4 n=34 v=0
11837263 On ch=4 n=25 v=100
11837341 Off ch=4 n=25 v=0
11837423 On ch=4 n=34 v=100
11837491 Off ch=4 n=34 v=0
11837573 On ch=4 n=33 v=100
11837650 Off ch=4 n=33 v=0
11837733 On ch=4 n=25 v=100
11837802 Off ch=4 n=25 v=0
11837890 On ch=4 n=34 v=100
11837969 Off ch=4 n=34 v=0
11838050 On ch=4 n=26 v=100
11838129 Off ch=4 n=26 v=0
11838212 On ch=4 n=27 v=100
11838277 Off ch=4 n=27 v=0
11838361 On ch=4 n=35 v=100
11838431 Off ch=4 n=35 v=0
11838519 On ch=4 n=29 v=100
11838519 On ch=4 n=29 v=100
11838624 Off ch=4 n=29 v=0
11838624 Off ch=4 n=29 v=0
11838705 On ch=4 n=37 v=100
11838783 Off ch=4 n=37 v=0
11838866 On ch=4 n=26 v=100
11838942 Off ch=4 n=26 v=0
11839026 On ch=4 n=27 v=100
11839101 Off ch=4 n=27 v=0
11839185 On ch=4 n=41 v=100
11839259 Off ch=4 n=41 v=0
11839335 On ch=4 n=26 v=100
11839419 Off ch=4 n=26 v=0
11839811 On ch=4 n=30 v=100
11839895 Off ch=4 n=30 v=0
11840138 On ch=4 n=36 v=100
11840233 Off ch=4 n=36 v=0
11840298 On ch=4 n=26 v=100
11840363 Off ch=4 n=26 v=0
11840448 On ch=4 n=31 v=100
11840448 On ch=4 n=31 v=100
11840546 Off ch=4 n=31 v=0
11840546 Off ch=4 n=31 v=0
11840608 On ch=4 n=26 v=100
11840678 Off ch=4 n=26 v=0
11840771 On ch=4 n=28 v=100
11840850 Off ch=4 n=28 v=0
11840932 On ch=4 n=27 v=100
11841009 Off ch=4 n=27 v=0
11841089 On ch=4 n=30 v=100
11841168 Off ch=4 n=30 v=0
11841251 On ch=4 n=29 v=100
11841323 Off ch=4 n=29 v=0
11841401 On ch=4 n=24 v=100
11841486 Off ch=4 n=24 v=0
11841568 On ch=4 n=37 v=100
11841658 Off ch=4 n=37 v=0
11841727 On ch=4 n=27 v=100
11841804 Off ch=4 n=27 v=0
11841888 On ch=4 n=33 v=100
11841977 Off ch=4 n=33 v=0
11842045 On ch=4 n=27 v=100
11842122 Off ch=4 n=27 v=0
11842205 On ch=4 n=32 v=100
11842281 Off ch=4 n=32 v=0
11842359 On ch=4 n=29 v=100
11842440 Off ch=4 n=29 v=0
11842519 On ch=4 n=29 v=100
11842598 Off ch=4 n=29 v=0
11842681 On ch=4 n=37 v=100
11842771 Off ch=4 n=37 v=0
11842840 On ch=4 n=27 v=100
11842917 Off ch=4 n=27 v=0
11843160 On ch=4 n=26 v=100
11843225 Off ch=4 n=26 v=0
11843309 On ch=4 n=32 v=100
11843309 On ch=4 n=32 v=100
11843408 Off ch=4 n=32 v=0
11843408 Off ch=4 n=32 v=0
11843468 On ch=4 n=18 v=100
11843540 Off ch=4 n=18 v=0
11843633 On ch=4 n=34 v=100
11843712 Off ch=4 n=34 v=0
11843794 On ch=4 n=36 v=100
11843794 On ch=4 n=36 v=100
11843885 Off ch=4 n=36 v=0
11843885 Off ch=4 n=36 v=0
11843905 On ch=4 n=32 v=100
11844017 Off ch=4 n=32 v=0
11844109 On ch=4 n=32 v=100
11844188 Off ch=4 n=32 v=0
11844272 On ch=4 n=31 v=100
11844362 Off ch=4 n=31 v=0
11844427 On ch=4 n=36 v=100
11844517 Off ch=4 n=36 v=0
11844582 On ch=4 n=32 v=100
11844658 Off ch=4 n=32 v=0
11844903 On ch=4 n=39 v=100
11844990 Off ch=4 n=39 v=0
11845225 On ch=4 n=28 v=100
11845301 Off ch=4 n=28 v=0
11845387 On ch=4 n=27 v=100
11845451 Off ch=4 n=27 v=0
11845693 On ch=4 n=34 v=100
11845767 Off ch=4 n=34 v=0
11845843 On ch=4 n=31 v=100
11845928 Off ch=4 n=31 v=0
11846004 On ch=4 n=26 v=100
11846081 Off ch=4 n=26 v=0
11846163 On ch=4 n=27 v=100
11846240 Off ch=4 n=27 v=0
11846477 On ch=4 n=48 v=100
11846554 Off ch=4 n=48 v=0
11846641 On ch=4 n=30 v=100
11846717 Off ch=4 n=30 v=0
11846802 On ch=4 n=24 v=100
11846868 Off ch=4 n=24 v=0
11846959 On ch=4 n=26 v=100
11847035 Off ch=4 n=26 v=0
11847118 On ch=4 n=28 v=100
11847185 Off ch=4 n=28 v=0
11847427 On ch=4 n=31 v=100
11847496 Off ch=4 n=31 v=0
11847577 On ch=4 n=26 v=100
11847661 Off ch=4 n=26 v=0
11847744 On ch=4 n=30 v=100
11847814 Off ch=4 n=30 v=0
11847901 On ch=4 n=29 v=100
11847980 Off ch=4 n=29 v=0
11848058 On ch=4 n=40 v=100
11848130 Off ch=4 n=40 v=0
11848213 On ch=4 n=30 v=100
11848289 Off ch=4 n=30 v=0
11848372 On ch=4 n=29 v=100
11848440 Off ch=4 n=29 v=0
11848523 On ch=4 n=28 v=100
11848607 Off ch=4 n=28 v=0
11848848 On ch=4 n=30 v=100
11848918 Off ch=4 n=30 v=0
11849005 On ch=4 n=29 v=100
11849084 Off ch=4 n=29 v=0
11849161 On ch=4 n=44 v=100
11849245 Off ch=4 n=44 v=0
11849318 On ch=4 n=31 v=100
11849392 Off ch=4 n=31 v=0
11849476 On ch=4 n=24 v=100
11849552 Off ch=4 n=24 v=0
11849636 On ch=4 n=26 v=100
11849711 Off ch=4 n=26 v=0
11849784 On ch=4 n=35 v=100
11849881 Off ch=4 n=35 v=0
11850262 On ch=4 n=34 v=100
11850336 Off ch=4 n=34 v=0
11850413 On ch=4 n=31 v=100
11850497 Off ch=4 n=31 v=0
11850577 On ch=4 n=34 v=100
11850656 Off ch=4 n=34 v=0
11850740 On ch=4 n=40 v=100
11850836 Off ch=4 n=40 v=0
11850896 On ch=4 n=28 v=100
11850973 Off ch=4 n=28 v=0
11851214 On ch=4 n=33 v=100
11851291 Off ch=4 n=33 v=0
11851371 On ch=4 n=34 v=100
11851464 Off ch=4 n=34 v=0
11851535 On ch=4 n=28 v=100
11851610 Off ch=4 n=28 v=0
11851692 On ch=4 n=26 v=100
11851769 Off ch=4 n=26 v=0
11851852 On ch=4 n=26 v=100
11851928 Off ch=4 n=26 v=0
11852012 On ch=4 n=31 v=100
11852088 Off ch=4 n=31 v=0
11852170 On ch=4 n=30 v=100
11852237 Off ch=4 n=30 v=0
11852479 On ch=4 n=34 v=100
11852553 Off ch=4 n=34 v=0
11852630 On ch=4 n=30 v=100
11852714 Off ch=4 n=30 v=0
11852797 On ch=4 n=26 v=100
11852873 Off ch=4 n=26 v=0
11852957 On ch=4 n=31 v=100
11853033 Off ch=4 n=31 v=0
11853115 On ch=4 n=30 v=100
11853182 Off ch=4 n=30 v=0
11853424 On ch=4 n=34 v=100
11853498 Off ch=4 n=34 v=0
11853575 On ch=4 n=31 v=100
11853659 Off ch=4 n=31 v=0
11853739 On ch=4 n=34 v=100
11853818 Off ch=4 n=34 v=0
11853902 On ch=4 n=40 v=100
11853998 Off ch=4 n=40 v=0
11854058 On ch=4 n=28 v=100
11854135 Off ch=4 n=28 v=0
11854376 On ch=4 n=33 v=100
11854453 Off ch=4 n=33 v=0
11854534 On ch=4 n=31 v=100
11854622 Off ch=4 n=31 v=0
11854697 On ch=4 n=28 v=100
11854772 Off ch=4 n=28 v=0
11854854 On ch=4 n=26 v=100
11854931 Off ch=4 n=26 v=0
11855014 On ch=4 n=26 v=100
11855090 Off ch=4 n=26 v=0
11855174 On ch=4 n=31 v=100
11855250 Off ch=4 n=31 v=0
11855332 On ch=4 n=30 v=100
11855399 Off ch=4 n=30 v=0
11855640 On ch=4 n=34 v=100
11855715 Off ch=4 n=34 v=0
11855797 On ch=4 n=34 v=100
11855876 Off ch=4 n=34 v=0
11855958 On ch=4 n=25 v=100
11856036 Off ch=4 n=25 v=0
11856119 On ch=4 n=27 v=100
11856184 Off ch=4 n=27 v=0
11856269 On ch=4 n=32 v=100
11856337 Off ch=4 n=32 v=0
11856426 On ch=4 n=29 v=100
11856426 On ch=4 n=29 v=100
11856531 Off ch=4 n=29 v=0
11856531 Off ch=4 n=29 v=0
11856614 On ch=4 n=26 v=100
11856689 Off ch=4 n=26 v=0
11856931 On ch=4 n=29 v=100
11857022 Off ch=4 n=29 v=0
11857092 On ch=4 n=33 v=100
11857159 Off ch=4 n=33 v=0
11857244 On ch=4 n=33 v=100
11857327 Off ch=4 n=33 v=0
11857557 On ch=4 n=32 v=100
11857636 Off ch=4 n=32 v=0
11857723 On ch=4 n=29 v=100
11857796 Off ch=4 n=29 v=0
11857876 On ch=4 n=37 v=100
11857969 Off ch=4 n=37 v=0
11858036 On ch=4 n=31 v=100
11858127 Off ch=4 n=31 v=0
11858196 On ch=4 n=36 v=100
11858271 Off ch=4 n=36 v=0
11858348 On ch=4 n=32 v=100
11858432 Off ch=4 n=32 v=0
11858676 On ch=4 n=20 v=100
11858737 Off ch=4 n=20 v=0
11858805 On ch=4 n=37 v=100
11858901 Off ch=4 n=37 v=0
11858966 On ch=4 n=42 v=100
11859060 Off ch=4 n=42 v=0
11859121 On ch=4 n=42 v=100
11859218 Off ch=4 n=42 v=0
11859284 On ch=4 n=33 v=100
11859370 Off ch=4 n=33 v=0
11859392 On ch=4 n=38 v=100
11859458 On ch=4 n=28 v=100
11859519 Off ch=4 n=38 v=0
11859536 Off ch=4 n=28 v=0
11859608 On ch=4 n=34 v=100
11859682 Off ch=4 n=34 v=0
11859762 On ch=4 n=62 v=100
11859841 Off ch=4 n=62 v=0
11859925 On ch=4 n=32 v=100
11860001 Off ch=4 n=32 v=0
11860392 On ch=4 n=37 v=100
11860463 Off ch=4 n=37 v=0
11860548 On ch=4 n=39 v=100
11860548 On ch=4 n=39 v=100
11860644 Off ch=4 n=39 v=0
11860644 Off ch=4 n=39 v=0
11860718 On ch=4 n=28 v=100
11860804 Off ch=4 n=28 v=0
11861025 On ch=4 n=43 v=100
11861114 Off ch=4 n=43 v=0
11862154 On ch=4 n=5 v=100
11862509 Off ch=4 n=5 v=0
11862511 On ch=4 n=0 v=100
11866641 Off ch=4 n=0 v=0
11866643 On ch=4 n=5 v=100
11866998 Off ch=4 n=5 v=0
11868352 On ch=4 n=35 v=100
11868443 Off ch=4 n=35 v=0
11868505 On ch=4 n=36 v=100
11868595 Off ch=4 n=36 v=0
11870163 On ch=4 n=9 v=100
11870724 Off ch=4 n=9 v=0
11880051 On ch=4 n=18 v=100
11880219 Off ch=4 n=18 v=0
11886585 On ch=4 n=14 v=100
11886622 Off ch=4 n=14 v=0
11887092 On ch=4 n=23 v=100
11887319 Off ch=4 n=23 v=0
11887329 On ch=4 n=34 v=100
11887734 Off ch=4 n=34 v=0
11887792 On ch=4 n=45 v=100
11887927 Off ch=4 n=45 v=0
11888066 On ch=4 n=46 v=100
11888304 Off ch=4 n=46 v=0
11888589 On ch=4 n=23 v=100
11888802 Off ch=4 n=23 v=0
11889173 On ch=4 n=4 v=100
11890039 Off ch=4 n=4 v=0
11915784 On ch=4 n=42 v=100
11916001 Off ch=4 n=42 v=0
11916426 On ch=4 n=12 v=100
11916792 Off ch=4 n=12 v=0
11921291 On ch=4 n=6 v=100
11922308 Off ch=4 n=6 v=0
11928036 On ch=4 n=8 v=100
11928753 Off ch=4 n=8 v=0
11938089 On ch=4 n=28 v=100
11938091 On ch=4 n=23 v=100
11938160 Off ch=4 n=28 v=0
11938160 Off ch=4 n=23 v=0
11938213 On ch=4 n=38 v=100
11938213 On ch=4 n=23 v=100
11938244 Off ch=4 n=23 v=0
11938272 On ch=4 n=11 v=100
11938316 Off ch=4 n=38 v=0
11938595 Off ch=4 n=11 v=0
11941209 On ch=4 n=9 v=100
11941358 Off ch=4 n=9 v=0
11941362 On ch=4 n=20 v=100
11941482 Off ch=4 n=20 v=0
11941777 On ch=4 n=14 v=100
11942203 On ch=4 n=24 v=100
11942356 Off ch=4 n=14 v=0
11942375 Off ch=4 n=24 v=0
11944206 On ch=4 n=14 v=100
11945445 Off ch=4 n=14 v=0
11948138 On ch=4 n=2 v=100
11948288 Off ch=4 n=2 v=0
11948458 On ch=4 n=10 v=100
11948610 Off ch=4 n=10 v=0
11950314 On ch=4 n=42 v=100
11950508 Off ch=4 n=42 v=0
11950695 On ch=4 n=55 v=100
11950899 On ch=4 n=43 v=100
11950946 Off ch=4 n=55 v=0
11951119 Off ch=4 n=43 v=0
11951530 On ch=4 n=12 v=100
11951895 Off ch=4 n=12 v=0
11952595 On ch=4 n=7 v=100
11953378 Off ch=4 n=7 v=0
11953705 On ch=4 n=2 v=100
11957853 On ch=4 n=2 v=100
11957854 Off ch=4 n=2 v=0
11958631 Off ch=4 n=2 v=0
11958633 On ch=4 n=2 v=100
11959246 Off ch=4 n=2 v=0
11967475 On ch=4 n=53 v=100
11967692 Off ch=4 n=53 v=0
11984532 On ch=4 n=11 v=100
11984684 Off ch=4 n=11 v=0
11984853 On ch=4 n=4 v=100
11985004 Off ch=4 n=4 v=0
11998986 On ch=4 n=1 v=100
11999081 Off ch=4 n=1 v=0
12008385 On ch=4 n=4 v=100
12009070 Off ch=4 n=4 v=0
12013168 On ch=4 n=42 v=100
12013319 Off ch=4 n=42 v=0
12013407 On ch=4 n=42 v=100
12013505 Off ch=4 n=42 v=0
12028207 On ch=4 n=3 v=100
12028398 Off ch=4 n=3 v=0
12040692 On ch=4 n=2 v=100
12041054 Off ch=4 n=2 v=0
12041056 On ch=4 n=1 v=100
12041954 On ch=4 n=50 v=100
12042671 Off ch=4 n=1 v=0
12042673 On ch=4 n=2 v=100
12047307 Off ch=4 n=50 v=0
12047437 Off ch=4 n=2 v=0
12047439 On ch=4 n=2 v=100
12047787 Off ch=4 n=2 v=0
12065734 On ch=4 n=4 v=100
12065926 Off ch=4 n=4 v=0
12080998 On ch=4 n=9 v=100
12081108 Off ch=4 n=9 v=0
12084731 On ch=4 n=12 v=100
12084887 Off ch=4 n=12 v=0
12095566 On ch=4 n=50 v=100
12095699 Off ch=4 n=50 v=0
12105784 On ch=4 n=17 v=100
12106296 Off ch=4 n=17 v=0
12115515 On ch=4 n=3 v=100
12115893 Off ch=4 n=3 v=0
12115943 On ch=4 n=10 v=100
12116921 Off ch=4 n=10 v=0
12122391 On ch=4 n=4 v=100
12123271 Off ch=4 n=4 v=0
12123273 On ch=4 n=3 v=100
12124505 On ch=4 n=3 v=100
12124510 Off ch=4 n=3 v=0
12125830 On ch=4 n=6 v=100
12125832 Off ch=4 n=3 v=0
12126033 Off ch=4 n=6 v=0
12126038 On ch=4 n=11 v=100
12131684 Off ch=4 n=11 v=0
12131693 On ch=4 n=35 v=100
12132380 Off ch=4 n=35 v=0
12132383 On ch=4 n=10 v=100
12133228 Off ch=4 n=10 v=0
12174571 On ch=4 n=11 v=100
12174716 Off ch=4 n=11 v=0
12179499 On ch=4 n=17 v=100
12179669 Off ch=4 n=17 v=0
12186137 On ch=4 n=22 v=100
12186274 Off ch=4 n=22 v=0
12186278 On ch=4 n=25 v=100
12187483 Off ch=4 n=25 v=0
12197156 On ch=4 n=2 v=100
12197553 Off ch=4 n=2 v=0
12197555 On ch=4 n=9 v=100
12201182 Off ch=4 n=9 v=0
12233318 On ch=4 n=34 v=100
12233445 Off ch=4 n=34 v=0
12255096 On ch=4 n=14 v=100
12255453 Off ch=4 n=14 v=0
12259622 On ch=4 n=15 v=100
12259974 Off ch=4 n=15 v=0
12269646 On ch=4 n=8 v=100
12270445 Off ch=4 n=8 v=0
12270532 On ch=4 n=22 v=100
12270753 Off ch=4 n=22 v=0
12281277 On ch=4 n=3 v=100
12284407 Off ch=4 n=3 v=0
12284409 On ch=4 n=3 v=100
12284792 Off ch=4 n=3 v=0
12285991 On ch=4 n=37 v=100
12286100 Off ch=4 n=37 v=0
12288450 On ch=4 n=5 v=100
12289115 Off ch=4 n=5 v=0
12289116 On ch=4 n=5 v=100
12290134 On ch=4 n=9 v=100
12290134 Off ch=4 n=5 v=0
12290265 Off ch=4 n=9 v=0
12291707 On ch=4 n=31 v=100
12292008 Off ch=4 n=31 v=0
12293883 On ch=4 n=6 v=100
12295734 Off ch=4 n=6 v=0
12301917 On ch=4 n=33 v=100
12301917 On ch=4 n=33 v=100
12302012 Off ch=4 n=33 v=0
12302012 Off ch=4 n=33 v=0
12302078 On ch=4 n=39 v=100
12302169 Off ch=4 n=39 v=0
12302252 On ch=4 n=34 v=100
12302325 Off ch=4 n=34 v=0
12302411 On ch=4 n=25 v=100
12302490 Off ch=4 n=25 v=0
12302888 On ch=4 n=25 v=100
12302961 Off ch=4 n=25 v=0
12303192 On ch=4 n=30 v=100
12303285 Off ch=4 n=30 v=0
12303366 On ch=4 n=23 v=100
12303441 Off ch=4 n=23 v=0
12303669 On ch=4 n=42 v=100
12303669 On ch=4 n=42 v=100
12303760 Off ch=4 n=42 v=0
12303760 Off ch=4 n=42 v=0
12303826 On ch=4 n=30 v=100
12303826 On ch=4 n=30 v=100
12303922 Off ch=4 n=30 v=0
12303922 Off ch=4 n=30 v=0
12304002 On ch=4 n=34 v=100
12304123 Off ch=4 n=34 v=0
12304159 On ch=4 n=30 v=100
12304238 Off ch=4 n=30 v=0
12304306 On ch=4 n=30 v=100
12304398 Off ch=4 n=30 v=0
12304630 On ch=4 n=31 v=100
12304718 Off ch=4 n=31 v=0
12304782 On ch=4 n=27 v=100
12304865 Off ch=4 n=27 v=0
12305043 On ch=4 n=8 v=100
12305676 Off ch=4 n=8 v=0
12306230 On ch=4 n=6 v=100
12306546 Off ch=4 n=6 v=0
12306548 On ch=4 n=5 v=100
12308016 On ch=4 n=7 v=100
12308022 Off ch=4 n=5 v=0
12308230 Off ch=4 n=7 v=0
12317770 On ch=4 n=4 v=100
12317873 On ch=4 n=20 v=100
12317874 Off ch=4 n=4 v=0
12317925 On ch=4 n=4 v=100
12317929 Off ch=4 n=20 v=0
12318179 Off ch=4 n=4 v=0
12321699 On ch=4 n=15 v=100
12321748 Off ch=4 n=15 v=0
12324432 On ch=4 n=15 v=100
12324481 Off ch=4 n=15 v=0
12327165 On ch=4 n=15 v=100
12327214 Off ch=4 n=15 v=0
12328710 On ch=4 n=36 v=100
12328772 On ch=4 n=22 v=100
12328970 Off ch=4 n=36 v=0
12328970 Off ch=4 n=22 v=0
12331122 On ch=4 n=25 v=100
12332328 Off ch=4 n=25 v=0
12332330 On ch=4 n=19 v=100
12332471 Off ch=4 n=19 v=0
12340426 On ch=4 n=8 v=100
12340566 Off ch=4 n=8 v=0
12345561 On ch=4 n=9 v=100
12345698 Off ch=4 n=9 v=0
12346986 On ch=4 n=66 v=100
12347169 Off ch=4 n=66 v=0
12355189 On ch=4 n=4 v=100
12356036 On ch=4 n=10 v=100
12356092 Off ch=4 n=4 v=0
12356549 Off ch=4 n=10 v=0
12356551 On ch=4 n=2 v=100
12357275 On ch=4 n=1 v=100
12357278 Off ch=4 n=2 v=0
12360114 Off ch=4 n=1 v=0
12361152 On ch=4 n=20 v=100
12361206 Off ch=4 n=20 v=0
12363904 On ch=4 n=17 v=100
12363954 Off ch=4 n=17 v=0
12367985 On ch=4 n=4 v=100
12369692 Off ch=4 n=4 v=0
12371394 On ch=4 n=14 v=100
12371788 On ch=4 n=17 v=100
12371791 Off ch=4 n=14 v=0
12371945 Off ch=4 n=17 v=0
12372811 On ch=4 n=8 v=100
12373763 Off ch=4 n=8 v=0
12373774 On ch=4 n=20 v=100
12374108 Off ch=4 n=20 v=0
12374295 On ch=4 n=3 v=100
12374377 Off ch=4 n=3 v=0
12374607 On ch=4 n=4 v=100
12376325 Off ch=4 n=4 v=0
12376327 On ch=4 n=1 v=100
12382229 Off ch=4 n=1 v=0
12382233 On ch=4 n=4 v=100
12383951 Off ch=4 n=4 v=0
12393552 On ch=4 n=11 v=100
12393862 Off ch=4 n=11 v=0
12401577 On ch=4 n=33 v=100
12401666 Off ch=4 n=33 v=0
12409228 On ch=4 n=15 v=100
12409384 Off ch=4 n=15 v=0
12444105 On ch=4 n=49 v=100
12444119 On ch=4 n=54 v=100
12444211 Off ch=4 n=49 v=0
12444211 Off ch=4 n=54 v=0
12453854 On ch=4 n=3 v=100
12456850 Off ch=4 n=3 v=0
12456852 On ch=4 n=4 v=100
12457516 Off ch=4 n=4 v=0
12457964 On ch=4 n=66 v=100
12458126 Off ch=4 n=66 v=0
12465923 On ch=4 n=35 v=100
12466141 Off ch=4 n=35 v=0
12487984 On ch=4 n=16 v=100
12488505 On ch=4 n=37 v=100
12488559 On ch=4 n=4 v=100
12488563 Off ch=4 n=16 v=0
12488792 Off ch=4 n=37 v=0
12493640 Off ch=4 n=4 v=0
12493645 On ch=4 n=6 v=100
12494268 Off ch=4 n=6 v=0
12507154 On ch=4 n=12 v=100
12507295 Off ch=4 n=12 v=0
12515061 On ch=4 n=17 v=100
12515078 On ch=4 n=5 v=100
12515146 Off ch=4 n=17 v=0
12515838 Off ch=4 n=5 v=0
12516153 On ch=4 n=4 v=100
12516855 Off ch=4 n=4 v=0
12516860 On ch=4 n=5 v=100
12517416 Off ch=4 n=5 v=0
12517420 On ch=4 n=4 v=100
12518791 Off ch=4 n=4 v=0
12518823 On ch=4 n=17 v=100
12519487 On ch=4 n=39 v=100
12519577 Off ch=4 n=17 v=0
12519589 Off ch=4 n=39 v=0
12527318 On ch=4 n=9 v=100
12527440 Off ch=4 n=9 v=0
12535902 On ch=4 n=6 v=100
12536481 On ch=4 n=6 v=100
12536633 Off ch=4 n=6 v=0
12537600 On ch=4 n=23 v=100
12537797 On ch=4 n=3 v=100
12537827 Off ch=4 n=6 v=0
12538484 On ch=4 n=30 v=100
12538523 On ch=4 n=2 v=100
12538606 Off ch=4 n=3 v=0
12538735 On ch=4 n=9 v=100
12538771 Off ch=4 n=23 v=0
12538827 On ch=4 n=29 v=100
12538831 Off ch=4 n=30 v=0
12538865 On ch=4 n=2 v=100
12538952 Off ch=4 n=2 v=0
12539070 On ch=4 n=9 v=100
12539118 Off ch=4 n=9 v=0
12539164 Off ch=4 n=29 v=0
12539170 On ch=4 n=30 v=100
12539209 On ch=4 n=2 v=100
12539296 Off ch=4 n=2 v=0
12539420 On ch=4 n=9 v=100
12539457 Off ch=4 n=9 v=0
12539513 On ch=4 n=29 v=100
12539516 Off ch=4 n=30 v=0
12539551 On ch=4 n=2 v=100
12539643 Off ch=4 n=2 v=0
12539762 On ch=4 n=22 v=100
12539800 Off ch=4 n=9 v=0
12539859 Off ch=4 n=29 v=0
12539989 Off ch=4 n=2 v=0
12540372 On ch=4 n=12 v=100
12541032 Off ch=4 n=22 v=0
12541688 On ch=4 n=12 v=100
12541735 On ch=4 n=36 v=100
12541735 Off ch=4 n=12 v=0
12542761 Off ch=4 n=12 v=0
12543004 Off ch=4 n=36 v=0
12543032 On ch=4 n=34 v=100
12543032 On ch=4 n=31 v=100
12543047 Off ch=4 n=31 v=0
12543067 Off ch=4 n=34 v=0
12548526 On ch=4 n=19 v=100
12548581 Off ch=4 n=19 v=0
12556788 On ch=4 n=18 v=100
12557101 Off ch=4 n=18 v=0
12560474 On ch=4 n=6 v=100
12561102 Off ch=4 n=6 v=0
12565010 On ch=4 n=30 v=100
12565092 Off ch=4 n=30 v=0
12565094 On ch=4 n=33 v=100
12565359 Off ch=4 n=33 v=0
12569435 On ch=4 n=2 v=100
12569519 Off ch=4 n=2 v=0
12570767 On ch=4 n=7 v=100
12571220 Off ch=4 n=7 v=0
12575515 On ch=4 n=37 v=100
12575635 Off ch=4 n=37 v=0
12577262 On ch=4 n=25 v=100
12577350 Off ch=4 n=25 v=0
12579836 On ch=4 n=31 v=100
12580032 Off ch=4 n=31 v=0
12580459 On ch=4 n=31 v=100
12580672 Off ch=4 n=31 v=0
12580774 On ch=4 n=46 v=100
12581034 Off ch=4 n=46 v=0
12581868 On ch=4 n=37 v=100
12582260 Off ch=4 n=37 v=0
12582958 On ch=4 n=49 v=100
12583086 Off ch=4 n=49 v=0
12589551 On ch=4 n=7 v=100
12590142 Off ch=4 n=7 v=0
12591142 On ch=4 n=42 v=100
12591236 On ch=4 n=28 v=100
12591349 Off ch=4 n=28 v=0
12591350 Off ch=4 n=42 v=0
12607166 On ch=4 n=42 v=100
12607173 On ch=4 n=21 v=100
12607174 On ch=4 n=8 v=100
12607224 Off ch=4 n=42 v=0
12607226 Off ch=4 n=8 v=0
12607237 Off ch=4 n=21 v=0
12611792 On ch=4 n=35 v=100
12611915 Off ch=4 n=35 v=0
12615462 On ch=4 n=15 v=100
12615628 Off ch=4 n=15 v=0
12618885 On ch=4 n=4 v=100
12620583 Off ch=4 n=4 v=0
12620956 On ch=4 n=32 v=100
12620977 On ch=4 n=3 v=100
12621028 Off ch=4 n=32 v=0
12621034 Off ch=4 n=3 v=0
12621035 On ch=4 n=48 v=100
12621035 On ch=4 n=6 v=100
12621479 Off ch=4 n=6 v=0
12621481 On ch=4 n=18 v=100
12621547 Off ch=4 n=48 v=0
12621832 Off ch=4 n=18 v=0
12641837 On ch=4 n=4 v=100
12642284 Off ch=4 n=4 v=0
12644824 On ch=4 n=12 v=100
12645036 Off ch=4 n=12 v=0
12648516 On ch=4 n=9 v=100
12648783 Off ch=4 n=9 v=0
12648824 On ch=4 n=3 v=100
12649463 Off ch=4 n=3 v=0
12656353 On ch=4 n=16 v=100
12656543 Off ch=4 n=16 v=0
12656547 On ch=4 n=28 v=100
12656596 Off ch=4 n=28 v=0
12658575 On ch=4 n=7 v=100
12659242 On ch=4 n=4 v=100
12659292 Off ch=4 n=7 v=0
12659952 Off ch=4 n=4 v=0
12659986 On ch=4 n=4 v=100
12660171 Off ch=4 n=4 v=0
12660538 On ch=4 n=17 v=100
12660761 Off ch=4 n=17 v=0
12660976 On ch=4 n=6 v=100
12663358 Off ch=4 n=6 v=0
12663361 On ch=4 n=6 v=100
12663495 On ch=4 n=5 v=100
12663500 Off ch=4 n=6 v=0
12664009 Off ch=4 n=5 v=0
12664020 On ch=4 n=6 v=100
12664738 Off ch=4 n=6 v=0
12667566 On ch=4 n=12 v=100
12667710 Off ch=4 n=12 v=0
12667836 On ch=4 n=27 v=100
12667892 Off ch=4 n=27 v=0
12676688 On ch=4 n=15 v=100
12676849 Off ch=4 n=15 v=0
12682699 On ch=4 n=13 v=100
12683046 Off ch=4 n=13 v=0
12688784 On ch=4 n=5 v=100
12688859 Off ch=4 n=5 v=0
12688862 On ch=4 n=3 v=100
12688952 On ch=4 n=2 v=100
12688954 Off ch=4 n=3 v=0
12690967 Off ch=4 n=2 v=0
12690973 On ch=4 n=3 v=100
12691054 Off ch=4 n=3 v=0
12691086 On ch=4 n=3 v=100
12691266 Off ch=4 n=3 v=0
12691945 On ch=4 n=3 v=100
12693817 On ch=4 n=3 v=100
12693817 Off ch=4 n=3 v=0
12695117 On ch=4 n=3 v=100
12695117 Off ch=4 n=3 v=0
12696011 Off ch=4 n=3 v=0
12696013 On ch=4 n=18 v=100
12696298 Off ch=4 n=18 v=0
12697450 On ch=4 n=22 v=100
12697585 Off ch=4 n=22 v=0
12705663 On ch=4 n=1 v=100
12705862 Off ch=4 n=1 v=0
12716241 On ch=4 n=17 v=100
12716587 Off ch=4 n=17 v=0
12717600 On ch=4 n=29 v=100
12718854 Off ch=4 n=29 v=0
12718857 On ch=4 n=20 v=100
12719057 Off ch=4 n=20 v=0
12724945 On ch=4 n=15 v=100
12725107 Off ch=4 n=15 v=0
12731503 On ch=4 n=17 v=100
12731663 Off ch=4 n=17 v=0
12737304 On ch=4 n=17 v=100
12737635 Off ch=4 n=17 v=0
12740711 On ch=4 n=17 v=100
12741378 Off ch=4 n=17 v=0
12741872 On ch=4 n=3 v=100
12741898 Off ch=4 n=3 v=0
12742574 On ch=4 n=48 v=100
12742605 On ch=4 n=18 v=100
12743344 Off ch=4 n=18 v=0
12743347 On ch=4 n=14 v=100
12743856 On ch=4 n=36 v=100
12743899 Off ch=4 n=48 v=0
12743899 Off ch=4 n=14 v=0
12743905 On ch=4 n=15 v=100
12743909 Off ch=4 n=36 v=0
12744072 Off ch=4 n=15 v=0
12744768 On ch=4 n=23 v=100
12744877 Off ch=4 n=23 v=0
12753082 On ch=4 n=4 v=100
12753968 Off ch=4 n=4 v=0
12762356 On ch=4 n=11 v=100
12762749 Off ch=4 n=11 v=0
12767938 On ch=4 n=16 v=100
12768259 Off ch=4 n=16 v=0
12774751 On ch=4 n=9 v=100
12774887 Off ch=4 n=9 v=0
12785437 On ch=4 n=16 v=100
12785606 Off ch=4 n=16 v=0
12792735 On ch=4 n=32 v=100
12792767 On ch=4 n=17 v=100
12792768 On ch=4 n=22 v=100
12792887 Off ch=4 n=32 v=0
12792893 Off ch=4 n=17 v=0
12792911 Off ch=4 n=22 v=0
12793182 On ch=4 n=38 v=100
12793220 On ch=4 n=30 v=100
12793229 On ch=4 n=20 v=100
12793275 Off ch=4 n=38 v=0
12793283 Off ch=4 n=30 v=0
12793650 Off ch=4 n=20 v=0
12793957 On ch=4 n=8 v=100
12794142 Off ch=4 n=8 v=0
12803124 On ch=4 n=11 v=100
12803702 Off ch=4 n=11 v=0
12818239 On ch=4 n=26 v=100
12818408 Off ch=4 n=26 v=0
12822207 On ch=4 n=30 v=100
12822446 Off ch=4 n=30 v=0
12826450 On ch=4 n=37 v=100
12826802 Off ch=4 n=37 v=0
12838666 On ch=4 n=42 v=100
12838878 Off ch=4 n=42 v=0
12838954 On ch=4 n=40 v=100
12838988 On ch=4 n=3 v=100
12839256 Off ch=4 n=40 v=0
12839257 Off ch=4 n=3 v=0
12841799 On ch=4 n=5 v=100
12843743 Off ch=4 n=5 v=0
12843749 On ch=4 n=5 v=100
12844367 Off ch=4 n=5 v=0
12847647 On ch=4 n=0 v=100
12848679 Off ch=4 n=0 v=0
12848681 On ch=4 n=0 v=100
12850384 Off ch=4 n=0 v=0
12853226 On ch=4 n=1 v=100
12853894 On ch=4 n=1 v=100
12853897 Off ch=4 n=1 v=0
12856206 Off ch=4 n=1 v=0
12856208 On ch=4 n=5 v=100
12856383 Off ch=4 n=5 v=0
12856385 On ch=4 n=13 v=100
12856932 Off ch=4 n=13 v=0
12857158 On ch=4 n=13 v=100
12857343 Off ch=4 n=13 v=0
12869918 On ch=4 n=27 v=100
12869983 Off ch=4 n=27 v=0
12881145 On ch=4 n=46 v=100
12881145 On ch=4 n=46 v=100
12881342 On ch=4 n=22 v=100
12881342 On ch=4 n=22 v=100
12881402 Off ch=4 n=46 v=0
12881402 Off ch=4 n=46 v=0
12881458 Off ch=4 n=22 v=0
12881458 Off ch=4 n=22 v=0
12882032 On ch=4 n=58 v=100
12882267 Off ch=4 n=58 v=0
12886295 On ch=4 n=54 v=100
12886544 Off ch=4 n=54 v=0
12886586 On ch=4 n=54 v=100
12886644 Off ch=4 n=54 v=0
12891536 On ch=4 n=1 v=100
12891898 Off ch=4 n=1 v=0
12891900 On ch=4 n=2 v=100
12898400 Off ch=4 n=2 v=0
12898402 On ch=4 n=1 v=100
12898764 Off ch=4 n=1 v=0
12904397 On ch=4 n=33 v=100
12904562 Off ch=4 n=33 v=0
12913578 On ch=4 n=36 v=100
12915099 Off ch=4 n=36 v=0
12918372 On ch=4 n=5 v=100
12921054 Off ch=4 n=5 v=0
12921057 On ch=4 n=6 v=100
12921993 Off ch=4 n=6 v=0
12922008 On ch=4 n=4 v=100
12922423 On ch=4 n=17 v=100
12922480 Off ch=4 n=4 v=0
12922488 Off ch=4 n=17 v=0
12922869 On ch=4 n=52 v=100
12923130 Off ch=4 n=52 v=0
12928045 On ch=4 n=32 v=100
12928344 Off ch=4 n=32 v=0
12931094 On ch=4 n=10 v=100
12931241 Off ch=4 n=10 v=0
12939507 On ch=4 n=11 v=100
12939543 Off ch=4 n=11 v=0
12940016 On ch=4 n=22 v=100
12940244 Off ch=4 n=22 v=0
12940254 On ch=4 n=32 v=100
12940656 Off ch=4 n=32 v=0
12940945 On ch=4 n=51 v=100
12941185 Off ch=4 n=51 v=0
12941473 On ch=4 n=22 v=100
12941682 Off ch=4 n=22 v=0
12945328 On ch=4 n=13 v=100
12945480 Off ch=4 n=13 v=0
12948414 On ch=4 n=63 v=100
12948463 On ch=4 n=39 v=100
12948572 On ch=4 n=55 v=100
12948703 Off ch=4 n=63 v=0
12948734 Off ch=4 n=39 v=0
12948754 Off ch=4 n=55 v=0
12948766 On ch=4 n=45 v=100
12948817 On ch=4 n=56 v=100
12948851 Off ch=4 n=45 v=0
12948867 On ch=4 n=43 v=100
12948887 On ch=4 n=58 v=100
12949033 Off ch=4 n=56 v=0
12949033 Off ch=4 n=43 v=0
12949060 Off ch=4 n=58 v=0
12950215 On ch=4 n=20 v=100
12951408 Off ch=4 n=20 v=0
12952074 On ch=4 n=30 v=100
12952164 Off ch=4 n=30 v=0
12954406 On ch=4 n=13 v=100
12954750 Off ch=4 n=13 v=0
12955478 On ch=4 n=60 v=100
12955705 Off ch=4 n=60 v=0
12987489 On ch=4 n=0 v=100
12987805 Off ch=4 n=0 v=0
12998798 On ch=4 n=42 v=100
12999006 Off ch=4 n=42 v=0
12999654 On ch=4 n=5 v=100
13000162 On ch=4 n=33 v=100
13000225 Off ch=4 n=5 v=0
13000227 On ch=4 n=0 v=100
13000283 Off ch=4 n=33 v=0
13004549 Off ch=4 n=0 v=0
13004551 On ch=4 n=4 v=100
13005126 Off ch=4 n=4 v=0
13006126 On ch=4 n=11 v=100
13006279 Off ch=4 n=11 v=0
13006448 On ch=4 n=4 v=100
13006598 Off ch=4 n=4 v=0
13019783 On ch=4 n=50 v=100
13019895 Off ch=4 n=50 v=0
13022359 On ch=4 n=5 v=100
13022361 On ch=4 n=36 v=100
13022867 Off ch=4 n=5 v=0
13023026 On ch=4 n=7 v=100
13023233 Off ch=4 n=36 v=0
13027542 On ch=4 n=36 v=100
13028048 Off ch=4 n=7 v=0
13028419 Off ch=4 n=36 v=0
13033585 On ch=4 n=47 v=100
13033651 Off ch=4 n=47 v=0
13037398 On ch=4 n=8 v=100
13037793 On ch=4 n=14 v=100
13038323 Off ch=4 n=8 v=0
13038325 On ch=4 n=2 v=100
13038989 Off ch=4 n=14 v=0
13043144 On ch=4 n=6 v=100
13043641 Off ch=4 n=2 v=0
13043835 Off ch=4 n=6 v=0
13043851 On ch=4 n=8 v=100
13044804 Off ch=4 n=8 v=0
13052453 On ch=4 n=15 v=100
13052820 Off ch=4 n=15 v=0
13057200 On ch=4 n=19 v=100
13057355 Off ch=4 n=19 v=0
13057436 On ch=4 n=19 v=100
13057867 Off ch=4 n=19 v=0
13059294 On ch=4 n=3 v=100
13060185 Off ch=4 n=3 v=0
13061641 On ch=4 n=5 v=100
13062075 On ch=4 n=9 v=100
13062075 Off ch=4 n=5 v=0
13062279 Off ch=4 n=9 v=0
13066007 On ch=4 n=14 v=100
13066175 Off ch=4 n=14 v=0
13068535 On ch=4 n=20 v=100
13068710 Off ch=4 n=20 v=0
13074235 On ch=4 n=23 v=100
13074289 Off ch=4 n=23 v=0
13082016 On ch=4 n=9 v=100
13082672 On ch=4 n=12 v=100
13082685 Off ch=4 n=9 v=0
13082849 Off ch=4 n=12 v=0
13084604 On ch=4 n=4 v=100
13084909 Off ch=4 n=4 v=0
13084911 On ch=4 n=3 v=100
13085204 On ch=4 n=48 v=100
13086113 On ch=4 n=43 v=100
13088025 Off ch=4 n=3 v=0
13089881 On ch=4 n=15 v=100
13090075 Off ch=4 n=43 v=0
13090177 Off ch=4 n=48 v=0
13090267 Off ch=4 n=15 v=0
13090269 On ch=4 n=5 v=100
13090574 Off ch=4 n=5 v=0
13097148 On ch=4 n=28 v=100
13097320 Off ch=4 n=28 v=0
13103964 On ch=4 n=19 v=100
13104116 Off ch=4 n=19 v=0
13104652 On ch=4 n=12 v=100
13104840 Off ch=4 n=12 v=0
13108473 On ch=4 n=13 v=100
13108581 Off ch=4 n=13 v=0
13114027 On ch=4 n=5 v=100
13114896 Off ch=4 n=5 v=0
13114898 On ch=4 n=8 v=100
13114947 On ch=4 n=19 v=100
13114949 Off ch=4 n=8 v=0
13115552 Off ch=4 n=19 v=0
13115554 On ch=4 n=7 v=100
13119806 On ch=4 n=44 v=100
13119864 Off ch=4 n=7 v=0
13119866 On ch=4 n=19 v=100
13119955 Off ch=4 n=44 v=0
13120471 Off ch=4 n=19 v=0
13120473 On ch=4 n=3 v=100
13125283 On ch=4 n=6 v=100
13125787 Off ch=4 n=3 v=0
13125981 Off ch=4 n=6 v=0
13125997 On ch=4 n=7 v=100
13126923 Off ch=4 n=7 v=0
13128070 On ch=4 n=1 v=100
13128895 Off ch=4 n=1 v=0
13128897 On ch=4 n=1 v=100
13131361 On ch=4 n=1 v=100
13133359 Off ch=4 n=1 v=0
13134627 Off ch=4 n=1 v=0
13136328 On ch=4 n=12 v=100
13136468 Off ch=4 n=12 v=0
13143483 On ch=4 n=23 v=100
13144006 Off ch=4 n=23 v=0
13144010 On ch=4 n=7 v=100
13144919 Off ch=4 n=7 v=0
13167585 On ch=4 n=5 v=100
13168203 Off ch=4 n=5 v=0
13168208 On ch=4 n=5 v=100
13168486 Off ch=4 n=5 v=0
13168487 On ch=4 n=3 v=100
13169418 Off ch=4 n=3 v=0
13169420 On ch=4 n=2 v=100
13173615 Off ch=4 n=2 v=0
13173617 On ch=4 n=16 v=100
13174194 Off ch=4 n=16 v=0
13174846 On ch=4 n=9 v=100
13175079 Off ch=4 n=9 v=0
13175372 On ch=4 n=21 v=100
13175384 On ch=4 n=25 v=100
13175468 Off ch=4 n=21 v=0
13175911 Off ch=4 n=25 v=0
13178907 On ch=4 n=11 v=100
13179475 Off ch=4 n=11 v=0
13185966 On ch=4 n=17 v=100
13186137 Off ch=4 n=17 v=0
13188037 On ch=4 n=9 v=100
13188694 Off ch=4 n=9 v=0
13188697 On ch=4 n=10 v=100
13188921 On ch=4 n=7 v=100
13188935 Off ch=4 n=10 v=0
13189184 Off ch=4 n=7 v=0
13189190 On ch=4 n=21 v=100
13189510 Off ch=4 n=21 v=0
13189512 On ch=4 n=20 v=100
13190034 Off ch=4 n=20 v=0
13190262 On ch=4 n=16 v=100
13190641 Off ch=4 n=16 v=0
13197503 On ch=4 n=6 v=100
13197761 Off ch=4 n=6 v=0
13197763 On ch=4 n=4 v=100
13198173 On ch=4 n=5 v=100
13198178 Off ch=4 n=4 v=0
13198430 Off ch=4 n=5 v=0
13205453 On ch=4 n=17 v=100
13205616 Off ch=4 n=17 v=0
13221439 On ch=4 n=8 v=100
13221486 Off ch=4 n=8 v=0
13221489 On ch=4 n=9 v=100
13221799 Off ch=4 n=9 v=0
13226187 On ch=4 n=15 v=100
13226572 Off ch=4 n=15 v=0
13229032 On ch=4 n=14 v=100
13229122 Off ch=4 n=14 v=0
13229623 On ch=4 n=13 v=100
13229784 Off ch=4 n=13 v=0
13246758 On ch=4 n=39 v=100
13247110 Off ch=4 n=39 v=0
13248771 On ch=4 n=44 v=100
13248847 Off ch=4 n=44 v=0
13262630 On ch=4 n=2 v=100
13264280 Off ch=4 n=2 v=0
13264282 On ch=4 n=2 v=100
13264420 Off ch=4 n=2 v=0
13264422 On ch=4 n=10 v=100
13264773 Off ch=4 n=10 v=0
13264775 On ch=4 n=0 v=100
13270422 Off ch=4 n=0 v=0
13270424 On ch=4 n=10 v=100
13270775 Off ch=4 n=10 v=0
13270777 On ch=4 n=4 v=100
13271300 Off ch=4 n=4 v=0
13272755 On ch=4 n=61 v=100
13272755 On ch=4 n=61 v=100
13272959 Off ch=4 n=61 v=0
13272959 Off ch=4 n=61 v=0
13273801 On ch=4 n=66 v=100
13273989 Off ch=4 n=66 v=0
13274833 On ch=4 n=67 v=100
13275019 Off ch=4 n=67 v=0
13278430 On ch=4 n=1 v=100
13278629 Off ch=4 n=1 v=0
13283912 On ch=4 n=39 v=100
13284061 Off ch=4 n=39 v=0
13284128 On ch=4 n=6 v=100
13284229 On ch=4 n=12 v=100
13284239 Off ch=4 n=6 v=0
13285818 Off ch=4 n=12 v=0
13285834 On ch=4 n=38 v=100
13285913 Off ch=4 n=38 v=0
13285980 On ch=4 n=28 v=100
13286062 Off ch=4 n=28 v=0
13286191 On ch=4 n=29 v=100
13286263 Off ch=4 n=29 v=0
13286435 On ch=4 n=34 v=100
13286527 Off ch=4 n=34 v=0
13286592 On ch=4 n=26 v=100
13286675 Off ch=4 n=26 v=0
13286853 On ch=4 n=7 v=100
13287476 Off ch=4 n=7 v=0
13288463 On ch=4 n=7 v=100
13288779 Off ch=4 n=7 v=0
13288781 On ch=4 n=5 v=100
13290254 On ch=4 n=6 v=100
13290260 Off ch=4 n=5 v=0
13290469 Off ch=4 n=6 v=0
13303881 On ch=4 n=8 v=100
13303985 On ch=4 n=3 v=100
13303985 Off ch=4 n=8 v=0
13304577 Off ch=4 n=3 v=0
13304579 On ch=4 n=3 v=100
13304910 Off ch=4 n=3 v=0
13314965 On ch=4 n=15 v=100
13315015 Off ch=4 n=15 v=0
13319528 On ch=4 n=22 v=100
13319726 Off ch=4 n=22 v=0
13320284 On ch=4 n=27 v=100
13320369 Off ch=4 n=27 v=0
13322799 On ch=4 n=36 v=100
13322800 On ch=4 n=23 v=100
13322992 Off ch=4 n=23 v=0
13323054 Off ch=4 n=36 v=0
13324571 On ch=4 n=15 v=100
13324620 Off ch=4 n=15 v=0
13327310 On ch=4 n=13 v=100
13327359 Off ch=4 n=13 v=0
13333279 On ch=4 n=3 v=100
13333610 Off ch=4 n=3 v=0
13333612 On ch=4 n=4 v=100
13334196 On ch=4 n=5 v=100
13334197 Off ch=4 n=4 v=0
13334300 Off ch=4 n=5 v=0
13348227 On ch=4 n=26 v=100
13348309 Off ch=4 n=26 v=0
13348493 On ch=4 n=19 v=100
13349704 Off ch=4 n=19 v=0
13350413 On ch=4 n=15 v=100
13350785 Off ch=4 n=15 v=0
13354768 On ch=4 n=0 v=100
13355417 On ch=4 n=51 v=100
13355542 On ch=4 n=0 v=100
13355561 Off ch=4 n=0 v=0
13355615 Off ch=4 n=51 v=0
13355754 Off ch=4 n=0 v=0
13357539 On ch=4 n=43 v=100
13357670 Off ch=4 n=43 v=0
13357705 On ch=4 n=43 v=100
13357866 Off ch=4 n=43 v=0
13359126 On ch=4 n=47 v=100
13359214 Off ch=4 n=47 v=0
13359269 On ch=4 n=47 v=100
13359432 Off ch=4 n=47 v=0
13372349 On ch=4 n=20 v=100
13372598 On ch=4 n=16 v=100
13372613 Off ch=4 n=20 v=0
13373878 Off ch=4 n=16 v=0
13373914 On ch=4 n=16 v=100
13373917 On ch=4 n=19 v=100
13374017 Off ch=4 n=16 v=0
13374191 On ch=4 n=28 v=100
13374274 On ch=4 n=44 v=100
13374314 On ch=4 n=18 v=100
13374487 Off ch=4 n=19 v=0
13374529 Off ch=4 n=28 v=0
13374656 On ch=4 n=34 v=100
13374752 On ch=4 n=21 v=100
13374752 On ch=4 n=17 v=100
13374753 Off ch=4 n=18 v=0
13374807 Off ch=4 n=34 v=0
13374808 Off ch=4 n=44 v=0
13374808 Off ch=4 n=17 v=0
13374831 Off ch=4 n=21 v=0
13382267 On ch=4 n=31 v=100
13382353 Off ch=4 n=31 v=0
13382572 On ch=4 n=35 v=100
13382670 Off ch=4 n=35 v=0
13382744 On ch=4 n=30 v=100
13382748 On ch=4 n=56 v=100
13382826 Off ch=4 n=30 v=0
13382848 Off ch=4 n=56 v=0
13383081 On ch=4 n=37 v=100
13383168 Off ch=4 n=37 v=0
13383407 On ch=4 n=26 v=100
13383492 Off ch=4 n=26 v=0
13383567 On ch=4 n=26 v=100
13383649 Off ch=4 n=26 v=0
13383725 On ch=4 n=29 v=100
13383811 Off ch=4 n=29 v=0
13384030 On ch=4 n=40 v=100
13384164 Off ch=4 n=40 v=0
13384193 On ch=4 n=40 v=100
13384285 Off ch=4 n=40 v=0
13384346 On ch=4 n=36 v=100
13384346 On ch=4 n=36 v=100
13384364 On ch=4 n=53 v=100
13384364 On ch=4 n=53 v=100
13384444 Off ch=4 n=36 v=0
13384444 Off ch=4 n=36 v=0
13384465 Off ch=4 n=53 v=0
13384465 Off ch=4 n=53 v=0
13384851 On ch=4 n=39 v=100
13384940 Off ch=4 n=39 v=0
13385023 On ch=4 n=25 v=100
13385107 Off ch=4 n=25 v=0
13385169 On ch=4 n=36 v=100
13385265 Off ch=4 n=36 v=0
13385327 On ch=4 n=33 v=100
13385426 Off ch=4 n=33 v=0
13385500 On ch=4 n=29 v=100
13385577 Off ch=4 n=29 v=0
13385645 On ch=4 n=37 v=100
13385735 Off ch=4 n=37 v=0
13385802 On ch=4 n=42 v=100
13385802 On ch=4 n=42 v=100
13385897 Off ch=4 n=42 v=0
13385897 Off ch=4 n=42 v=0
13385962 On ch=4 n=33 v=100
13386061 Off ch=4 n=33 v=0
13386121 On ch=4 n=38 v=100
13386215 Off ch=4 n=38 v=0
13386294 On ch=4 n=28 v=100
13386300 On ch=4 n=50 v=100
13386368 Off ch=4 n=28 v=0
13386438 On ch=4 n=31 v=100
13386446 Off ch=4 n=50 v=0
13386537 Off ch=4 n=31 v=0
13386770 On ch=4 n=29 v=100
13386852 Off ch=4 n=29 v=0
13386919 On ch=4 n=32 v=100
13387010 Off ch=4 n=32 v=0
13387088 On ch=4 n=40 v=100
13387164 Off ch=4 n=40 v=0
13387247 On ch=4 n=26 v=100
13387332 Off ch=4 n=26 v=0
13387406 On ch=4 n=27 v=100
13387488 Off ch=4 n=27 v=0
13387552 On ch=4 n=35 v=100
13387651 Off ch=4 n=35 v=0
13387870 On ch=4 n=35 v=100
13387968 Off ch=4 n=35 v=0
13388028 On ch=4 n=31 v=100
13388028 On ch=4 n=31 v=100
13388127 Off ch=4 n=31 v=0
13388127 Off ch=4 n=31 v=0
13388193 On ch=4 n=31 v=100
13388281 Off ch=4 n=31 v=0
13388347 On ch=4 n=35 v=100
13388446 Off ch=4 n=35 v=0
13388828 On ch=4 n=40 v=100
13388920 Off ch=4 n=40 v=0
13388981 On ch=4 n=38 v=100
13388981 On ch=4 n=38 v=100
13389000 On ch=4 n=56 v=100
13389000 On ch=4 n=56 v=100
13389078 Off ch=4 n=38 v=0
13389078 Off ch=4 n=38 v=0
13389100 Off ch=4 n=56 v=0
13389100 Off ch=4 n=56 v=0
13389425 On ch=4 n=33 v=100
13389524 Off ch=4 n=33 v=0
13389742 On ch=4 n=40 v=100
13389742 On ch=4 n=40 v=100
13389836 Off ch=4 n=40 v=0
13389836 Off ch=4 n=40 v=0
13389907 On ch=4 n=31 v=100
13390001 Off ch=4 n=31 v=0
13390067 On ch=4 n=30 v=100
13390160 Off ch=4 n=30 v=0
13390220 On ch=4 n=36 v=100
13390319 Off ch=4 n=36 v=0
13390379 On ch=4 n=36 v=100
13390473 Off ch=4 n=36 v=0
13390552 On ch=4 n=26 v=100
13390627 Off ch=4 n=26 v=0
13390711 On ch=4 n=35 v=100
13390792 Off ch=4 n=35 v=0
13390870 On ch=4 n=29 v=100
13390955 Off ch=4 n=29 v=0
13391015 On ch=4 n=39 v=100
13391108 Off ch=4 n=39 v=0
13391180 On ch=4 n=31 v=100
13391273 Off ch=4 n=31 v=0
13391811 On ch=4 n=41 v=100
13391907 Off ch=4 n=41 v=0
13391969 On ch=4 n=31 v=100
13392068 Off ch=4 n=31 v=0
13392287 On ch=4 n=29 v=100
13392287 On ch=4 n=29 v=100
13392307 On ch=4 n=48 v=100
13392307 On ch=4 n=48 v=100
13392369 Off ch=4 n=29 v=0
13392369 Off ch=4 n=29 v=0
13392447 On ch=4 n=33 v=100
13392450 Off ch=4 n=48 v=0
13392450 Off ch=4 n=48 v=0
13392545 Off ch=4 n=33 v=0
13392604 On ch=4 n=38 v=100
13392604 On ch=4 n=38 v=100
13392699 Off ch=4 n=38 v=0
13392699 Off ch=4 n=38 v=0
13392782 On ch=4 n=40 v=100
13392943 Off ch=4 n=40 v=0
13393773 On ch=4 n=3 v=100
13398367 Off ch=4 n=3 v=0
13412445 On ch=4 n=19 v=100
13412607 Off ch=4 n=19 v=0
13419982 On ch=4 n=23 v=100
13420378 Off ch=4 n=23 v=0
13423548 On ch=4 n=13 v=100
13423692 Off ch=4 n=13 v=0
13428057 On ch=4 n=23 v=100
13428601 Off ch=4 n=23 v=0
13428605 On ch=4 n=6 v=100
13429292 Off ch=4 n=6 v=0
13429328 On ch=4 n=6 v=100
13429532 Off ch=4 n=6 v=0
13442339 On ch=4 n=17 v=100
13442415 Off ch=4 n=17 v=0
13442427 On ch=4 n=13 v=100
13442574 Off ch=4 n=13 v=0
13442585 On ch=4 n=8 v=100
13442777 On ch=4 n=38 v=100
13442780 Off ch=4 n=8 v=0
13443021 Off ch=4 n=38 v=0
13443486 On ch=4 n=38 v=100
13443506 On ch=4 n=7 v=100
13443623 Off ch=4 n=38 v=0
13443694 Off ch=4 n=7 v=0
13444606 On ch=4 n=13 v=100
13444695 Off ch=4 n=13 v=0
13444697 On ch=4 n=17 v=100
13445196 Off ch=4 n=17 v=0
13445314 On ch=4 n=16 v=100
13445670 Off ch=4 n=16 v=0
13447176 On ch=4 n=32 v=100
13447333 Off ch=4 n=32 v=0
13447418 On ch=4 n=22 v=100
13448192 Off ch=4 n=22 v=0
13452289 On ch=4 n=20 v=100
13453877 Off ch=4 n=20 v=0
13462540 On ch=4 n=8 v=100
13462831 Off ch=4 n=8 v=0
13462833 On ch=4 n=3 v=100
13467165 Off ch=4 n=3 v=0
13467167 On ch=4 n=8 v=100
13467458 Off ch=4 n=8 v=0
13469577 On ch=4 n=17 v=100
13469740 Off ch=4 n=17 v=0
13472227 On ch=4 n=17 v=100
13472604 Off ch=4 n=17 v=0
13480028 On ch=4 n=1 v=100
13480227 Off ch=4 n=1 v=0
13483362 On ch=4 n=70 v=100
13483542 Off ch=4 n=70 v=0
13487125 On ch=4 n=4 v=100
13487789 Off ch=4 n=4 v=0
13487791 On ch=4 n=3 v=100
13488721 Off ch=4 n=3 v=0
13494448 On ch=4 n=4 v=100
13497164 On ch=4 n=9 v=100
13497164 Off ch=4 n=4 v=0
13497690 On ch=4 n=5 v=100
13497690 Off ch=4 n=9 v=0
13498989 Off ch=4 n=5 v=0
13499823 On ch=4 n=1 v=100
13500354 Off ch=4 n=1 v=0
13501024 On ch=4 n=6 v=100
13501429 Off ch=4 n=6 v=0
13501723 On ch=4 n=13 v=100
13502148 Off ch=4 n=13 v=0
13502179 On ch=4 n=15 v=100
13502409 Off ch=4 n=15 v=0
13502557 On ch=4 n=18 v=100
13502692 Off ch=4 n=18 v=0
13504868 On ch=4 n=8 v=100
13505336 Off ch=4 n=8 v=0
13507701 On ch=4 n=16 v=100
13507854 Off ch=4 n=16 v=0
13509524 On ch=4 n=38 v=100
13509553 On ch=4 n=43 v=100
13509708 Off ch=4 n=38 v=0
13509723 Off ch=4 n=43 v=0
13514109 On ch=4 n=19 v=100
13514278 Off ch=4 n=19 v=0
13521546 On ch=4 n=11 v=100
13521581 Off ch=4 n=11 v=0
13522070 On ch=4 n=23 v=100
13522256 On ch=4 n=8 v=100
13522257 Off ch=4 n=23 v=0
13523063 Off ch=4 n=8 v=0
13523339 On ch=4 n=4 v=100
13523571 Off ch=4 n=4 v=0
13523676 On ch=4 n=4 v=100
13525210 Off ch=4 n=4 v=0
13525221 On ch=4 n=37 v=100
13525324 On ch=4 n=3 v=100
13525637 Off ch=4 n=37 v=0
13525829 On ch=4 n=3 v=100
13525830 Off ch=4 n=3 v=0
13526186 Off ch=4 n=3 v=0
13530605 On ch=4 n=6 v=100
13531185 Off ch=4 n=6 v=0
13534327 On ch=4 n=22 v=100
13534388 Off ch=4 n=22 v=0
13561490 On ch=4 n=2 v=100
13566003 Off ch=4 n=2 v=0
13576324 On ch=4 n=0 v=100
13577799 Off ch=4 n=0 v=0
13577801 On ch=4 n=0 v=100
13578564 Off ch=4 n=0 v=0
13587621 On ch=4 n=3 v=100
13588048 Off ch=4 n=3 v=0
13589817 On ch=4 n=6 v=100
13589927 Off ch=4 n=6 v=0
13592562 On ch=4 n=3 v=100
13592989 Off ch=4 n=3 v=0
13594754 On ch=4 n=6 v=100
13594865 Off ch=4 n=6 v=0
13596369 On ch=4 n=5 v=100
13596520 Off ch=4 n=5 v=0
13596522 On ch=4 n=3 v=100
13597304 Off ch=4 n=3 v=0
13600894 On ch=4 n=22 v=100
13601056 Off ch=4 n=22 v=0
13606908 On ch=4 n=16 v=100
13607068 Off ch=4 n=16 v=0
13625841 On ch=4 n=18 v=100
13626181 On ch=4 n=39 v=100
13626211 Off ch=4 n=18 v=0
13626213 On ch=4 n=6 v=100
13626216 On ch=4 n=34 v=100
13626364 On ch=4 n=30 v=100
13626372 Off ch=4 n=39 v=0
13626373 Off ch=4 n=6 v=0
13626378 On ch=4 n=7 v=100
13626395 Off ch=4 n=34 v=0
13626431 Off ch=4 n=7 v=0
13626451 Off ch=4 n=30 v=0
13628431 On ch=4 n=41 v=100
13628443 On ch=4 n=32 v=100
13628531 Off ch=4 n=41 v=0
13628533 Off ch=4 n=32 v=0
13633355 On ch=4 n=29 v=100
13633482 Off ch=4 n=29 v=0
13634387 On ch=4 n=8 v=100
13634976 Off ch=4 n=8 v=0
13638273 On ch=4 n=15 v=100
13638435 Off ch=4 n=15 v=0
13642541 On ch=4 n=28 v=100
13642736 Off ch=4 n=28 v=0
13643487 On ch=4 n=17 v=100
13643648 Off ch=4 n=17 v=0
13658547 On ch=4 n=13 v=100
13658924 Off ch=4 n=13 v=0
13676036 On ch=4 n=14 v=100
13676162 Off ch=4 n=14 v=0
13687359 On ch=4 n=6 v=100
13687890 Off ch=4 n=6 v=0
TrkEnd    
