MFile 1 3 960 
MTrk    
0 Tempo 1000000  
TrkEnd    
MTrk    
0 PrCh ch=1 p=42 
0 Meta TrkName "IS3EU-4_DR" 
20594 On ch=1 n=12 v=100
20664 Off ch=1 n=12 v=0
21262 On ch=1 n=13 v=100
21446 On ch=1 n=20 v=100
21633 Off ch=1 n=13 v=0
21771 Off ch=1 n=20 v=0
102101 On ch=1 n=34 v=100
102881 Off ch=1 n=34 v=0
243106 On ch=1 n=31 v=100
243487 Off ch=1 n=31 v=0
415700 On ch=1 n=17 v=100
415700 On ch=1 n=17 v=100
415982 Off ch=1 n=17 v=0
415982 Off ch=1 n=17 v=0
455377 On ch=1 n=20 v=100
455518 Off ch=1 n=20 v=0
TrkEnd    
MTrk    
0 PrCh ch=2 p=1 
0 Meta TrkName "L2-5_DRe" 
269211 On ch=2 n=8 v=100
269469 Off ch=2 n=8 v=0
421722 On ch=2 n=9 v=100
422128 Off ch=2 n=9 v=0
583149 On ch=2 n=30 v=100
583300 Off ch=2 n=30 v=0
585439 On ch=2 n=40 v=100
585710 Off ch=2 n=40 v=0
TrkEnd    
