MFile 1 7 960 
MTrk    
0 Tempo 100000  
TrkEnd    
MTrk    
0 PrCh ch=6 p=53 
0 Meta TrkName "ATAC" 
1251422 On ch=6 n=57 v=127
1251767 Off ch=6 n=57 v=0
1527836 On ch=6 n=57 v=127
1529349 Off ch=6 n=57 v=0
TrkEnd    
MTrk    
0 PrCh ch=5 p=53 
0 Meta TrkName "GENE" 
98407 On ch=5 n=50 v=127
131406 Off ch=5 n=50 v=0
134210 On ch=5 n=50 v=127
140438 Off ch=5 n=50 v=0
158073 On ch=5 n=50 v=127
165672 Off ch=5 n=50 v=0
188113 On ch=5 n=50 v=127
244567 Off ch=5 n=50 v=0
253339 On ch=5 n=50 v=127
266322 Off ch=5 n=50 v=0
268746 On ch=5 n=50 v=127
273686 Off ch=5 n=50 v=0
311452 On ch=5 n=50 v=127
313260 Off ch=5 n=50 v=0
323685 On ch=5 n=50 v=127
325284 Off ch=5 n=50 v=0
338276 On ch=5 n=50 v=127
341589 Off ch=5 n=50 v=0
342829 On ch=5 n=50 v=127
342907 Off ch=5 n=50 v=0
346803 On ch=5 n=50 v=127
351887 Off ch=5 n=50 v=0
357361 On ch=5 n=50 v=127
359929 Off ch=5 n=50 v=0
361239 On ch=5 n=50 v=127
365725 Off ch=5 n=50 v=0
367486 On ch=5 n=50 v=127
373156 On ch=5 n=50 v=127
374896 Off ch=5 n=50 v=0
377152 On ch=5 n=50 v=127
379546 Off ch=5 n=50 v=0
390103 On ch=5 n=50 v=127
390197 Off ch=5 n=50 v=0
391182 On ch=5 n=50 v=127
394215 Off ch=5 n=50 v=0
417534 Off ch=5 n=50 v=0
421602 On ch=5 n=50 v=127
424281 Off ch=5 n=50 v=0
438357 On ch=5 n=50 v=127
440161 Off ch=5 n=50 v=0
729917 On ch=5 n=50 v=127
741027 On ch=5 n=50 v=127
741033 Off ch=5 n=50 v=0
762596 Off ch=5 n=50 v=0
764001 On ch=5 n=50 v=127
765409 On ch=5 n=50 v=127
765488 Off ch=5 n=50 v=0
780863 Off ch=5 n=50 v=0
859659 On ch=5 n=50 v=127
866720 Off ch=5 n=50 v=0
867392 On ch=5 n=50 v=127
870271 Off ch=5 n=50 v=0
876695 On ch=5 n=50 v=127
888079 Off ch=5 n=50 v=0
889860 On ch=5 n=50 v=127
895480 Off ch=5 n=50 v=0
987595 On ch=5 n=50 v=127
1007266 Off ch=5 n=50 v=0
1030576 On ch=5 n=50 v=127
1104359 Off ch=5 n=50 v=0
1181411 On ch=5 n=50 v=127
1187948 Off ch=5 n=50 v=0
1281643 On ch=5 n=50 v=127
1287464 On ch=5 n=50 v=127
1297253 Off ch=5 n=50 v=0
1297253 Off ch=5 n=50 v=0
1310942 On ch=5 n=50 v=127
1310942 On ch=5 n=50 v=127
1319346 Off ch=5 n=50 v=0
1319346 Off ch=5 n=50 v=0
1351287 On ch=5 n=50 v=127
1361904 Off ch=5 n=50 v=0
1642477 On ch=5 n=50 v=127
1649401 Off ch=5 n=50 v=0
1655597 On ch=5 n=50 v=127
1664068 Off ch=5 n=50 v=0
1728954 On ch=5 n=50 v=127
1756377 Off ch=5 n=50 v=0
1757079 On ch=5 n=50 v=127
1770176 Off ch=5 n=50 v=0
1771412 On ch=5 n=50 v=127
1777254 Off ch=5 n=50 v=0
1790817 On ch=5 n=50 v=127
1802696 Off ch=5 n=50 v=0
TrkEnd    
MTrk    
0 PrCh ch=1 p=43 
0 Meta TrkName "LINE" 
16745 On ch=1 n=16 v=100
17019 Off ch=1 n=16 v=0
17241 On ch=1 n=11 v=100
17307 Off ch=1 n=11 v=0
30863 On ch=1 n=8 v=100
31365 Off ch=1 n=8 v=0
33222 On ch=1 n=10 v=100
33928 Off ch=1 n=10 v=0
45138 On ch=1 n=5 v=100
45344 Off ch=1 n=5 v=0
47439 On ch=1 n=26 v=100
47510 Off ch=1 n=26 v=0
52174 On ch=1 n=19 v=100
52484 Off ch=1 n=19 v=0
56132 On ch=1 n=12 v=100
56218 Off ch=1 n=12 v=0
58841 On ch=1 n=36 v=100
58914 Off ch=1 n=36 v=0
59537 On ch=1 n=16 v=100
60054 Off ch=1 n=16 v=0
70841 On ch=1 n=10 v=100
71485 Off ch=1 n=10 v=0
71535 On ch=1 n=10 v=100
71619 Off ch=1 n=10 v=0
81395 On ch=1 n=25 v=100
82017 Off ch=1 n=25 v=0
85466 On ch=1 n=57 v=100
85736 Off ch=1 n=57 v=0
93557 On ch=1 n=9 v=100
93705 Off ch=1 n=9 v=0
104139 On ch=1 n=10 v=100
104477 Off ch=1 n=10 v=0
127448 On ch=1 n=7 v=100
127878 Off ch=1 n=7 v=0
129736 On ch=1 n=6 v=100
130292 Off ch=1 n=6 v=0
132081 On ch=1 n=15 v=100
132434 Off ch=1 n=15 v=0
136401 On ch=1 n=9 v=100
136707 Off ch=1 n=9 v=0
136719 On ch=1 n=27 v=100
137260 Off ch=1 n=27 v=0
143973 On ch=1 n=12 v=100
144595 Off ch=1 n=12 v=0
162673 On ch=1 n=39 v=100
162775 Off ch=1 n=39 v=0
170254 On ch=1 n=34 v=100
170468 Off ch=1 n=34 v=0
170663 On ch=1 n=38 v=100
171255 Off ch=1 n=38 v=0
184428 On ch=1 n=5 v=100
184610 Off ch=1 n=5 v=0
204065 On ch=1 n=10 v=100
204493 Off ch=1 n=10 v=0
208924 On ch=1 n=29 v=100
208988 Off ch=1 n=29 v=0
209081 On ch=1 n=29 v=100
209201 Off ch=1 n=29 v=0
223065 On ch=1 n=8 v=100
223067 On ch=1 n=46 v=100
223191 Off ch=1 n=8 v=0
223194 On ch=1 n=16 v=100
223212 Off ch=1 n=46 v=0
223578 Off ch=1 n=16 v=0
226340 On ch=1 n=42 v=100
226465 Off ch=1 n=42 v=0
259909 On ch=1 n=5 v=100
260966 Off ch=1 n=5 v=0
286550 On ch=1 n=54 v=100
286757 Off ch=1 n=54 v=0
290636 On ch=1 n=7 v=100
291065 Off ch=1 n=7 v=0
296255 On ch=1 n=7 v=100
296488 Off ch=1 n=7 v=0
296683 On ch=1 n=14 v=100
297035 Off ch=1 n=14 v=0
330126 On ch=1 n=20 v=100
330243 Off ch=1 n=20 v=0
332642 On ch=1 n=26 v=100
332875 Off ch=1 n=26 v=0
341441 On ch=1 n=13 v=100
341574 Off ch=1 n=13 v=0
344233 On ch=1 n=42 v=100
344315 Off ch=1 n=42 v=0
465311 On ch=1 n=44 v=100
465783 Off ch=1 n=44 v=0
470712 On ch=1 n=14 v=100
471050 Off ch=1 n=14 v=0
471163 On ch=1 n=11 v=100
471704 Off ch=1 n=11 v=0
473006 On ch=1 n=38 v=100
473186 Off ch=1 n=38 v=0
503051 On ch=1 n=9 v=100
503485 Off ch=1 n=9 v=0
516978 On ch=1 n=9 v=100
517257 Off ch=1 n=9 v=0
517493 On ch=1 n=14 v=100
517610 Off ch=1 n=14 v=0
523937 On ch=1 n=15 v=100
524369 Off ch=1 n=15 v=0
538768 On ch=1 n=21 v=100
538768 On ch=1 n=16 v=100
538821 Off ch=1 n=16 v=0
538842 Off ch=1 n=21 v=0
538895 On ch=1 n=13 v=100
538958 Off ch=1 n=13 v=0
544235 On ch=1 n=1 v=100
544391 Off ch=1 n=1 v=0
544584 On ch=1 n=20 v=100
544630 Off ch=1 n=20 v=0
547630 On ch=1 n=15 v=100
547963 Off ch=1 n=15 v=0
561025 On ch=1 n=13 v=100
561054 On ch=1 n=66 v=100
561124 Off ch=1 n=13 v=0
561132 On ch=1 n=12 v=100
561301 Off ch=1 n=66 v=0
561766 Off ch=1 n=12 v=0
576641 On ch=1 n=2 v=100
577528 Off ch=1 n=2 v=0
621305 On ch=1 n=13 v=100
621536 Off ch=1 n=13 v=0
628793 On ch=1 n=15 v=100
628952 Off ch=1 n=15 v=0
628999 On ch=1 n=15 v=100
629077 Off ch=1 n=15 v=0
639851 On ch=1 n=18 v=100
639935 Off ch=1 n=18 v=0
640457 On ch=1 n=15 v=100
640592 Off ch=1 n=15 v=0
679490 On ch=1 n=6 v=100
679710 Off ch=1 n=6 v=0
679712 On ch=1 n=8 v=100
680268 Off ch=1 n=8 v=0
683732 On ch=1 n=8 v=100
683825 Off ch=1 n=8 v=0
700978 On ch=1 n=16 v=100
701112 Off ch=1 n=16 v=0
706342 On ch=1 n=10 v=100
706926 Off ch=1 n=10 v=0
711998 On ch=1 n=12 v=100
712178 Off ch=1 n=12 v=0
713649 On ch=1 n=26 v=100
713903 Off ch=1 n=26 v=0
715530 On ch=1 n=22 v=100
716064 Off ch=1 n=22 v=0
725841 On ch=1 n=15 v=100
725910 Off ch=1 n=15 v=0
727583 On ch=1 n=39 v=100
727806 Off ch=1 n=39 v=0
727812 On ch=1 n=26 v=100
727818 On ch=1 n=50 v=100
728312 Off ch=1 n=26 v=0
728472 Off ch=1 n=50 v=0
737940 On ch=1 n=10 v=100
738696 Off ch=1 n=10 v=0
745614 On ch=1 n=2 v=100
745686 Off ch=1 n=2 v=0
767940 On ch=1 n=12 v=100
768067 Off ch=1 n=12 v=0
772577 On ch=1 n=29 v=100
772687 Off ch=1 n=29 v=0
774020 On ch=1 n=82 v=100
774166 Off ch=1 n=82 v=0
796751 On ch=1 n=0 v=100
796840 Off ch=1 n=0 v=0
806846 On ch=1 n=34 v=100
806962 Off ch=1 n=34 v=0
824184 On ch=1 n=12 v=100
825180 Off ch=1 n=12 v=0
831445 On ch=1 n=40 v=100
831900 Off ch=1 n=40 v=0
841849 On ch=1 n=20 v=100
842077 Off ch=1 n=20 v=0
910329 On ch=1 n=4 v=100
910763 Off ch=1 n=4 v=0
912058 On ch=1 n=14 v=100
912718 Off ch=1 n=14 v=0
912721 On ch=1 n=21 v=100
912784 On ch=1 n=17 v=100
912790 Off ch=1 n=21 v=0
913034 Off ch=1 n=17 v=0
913040 On ch=1 n=11 v=100
913299 On ch=1 n=11 v=100
913307 Off ch=1 n=11 v=0
913663 Off ch=1 n=11 v=0
914331 On ch=1 n=18 v=100
914397 Off ch=1 n=18 v=0
922692 On ch=1 n=10 v=100
923145 Off ch=1 n=10 v=0
956727 On ch=1 n=26 v=100
956950 Off ch=1 n=26 v=0
970710 On ch=1 n=31 v=100
970772 Off ch=1 n=31 v=0
999516 On ch=1 n=24 v=100
999760 Off ch=1 n=24 v=0
999842 On ch=1 n=21 v=100
999923 Off ch=1 n=21 v=0
1000036 On ch=1 n=20 v=100
1000383 Off ch=1 n=20 v=0
1002745 On ch=1 n=8 v=100
1002883 Off ch=1 n=8 v=0
1008234 On ch=1 n=19 v=100
1008515 Off ch=1 n=19 v=0
1009505 On ch=1 n=14 v=100
1009536 Off ch=1 n=14 v=0
1009737 On ch=1 n=14 v=100
1009932 Off ch=1 n=14 v=0
1013157 On ch=1 n=5 v=100
1013254 Off ch=1 n=5 v=0
1016592 On ch=1 n=20 v=100
1016656 Off ch=1 n=20 v=0
1029419 On ch=1 n=14 v=100
1029542 Off ch=1 n=14 v=0
1047838 On ch=1 n=10 v=100
1047921 Off ch=1 n=10 v=0
1047988 On ch=1 n=10 v=100
1048359 Off ch=1 n=10 v=0
1050277 On ch=1 n=10 v=100
1051139 Off ch=1 n=10 v=0
1053179 On ch=1 n=26 v=100
1053671 On ch=1 n=32 v=100
1053679 On ch=1 n=27 v=100
1053682 Off ch=1 n=26 v=0
1053728 Off ch=1 n=32 v=0
1054001 Off ch=1 n=27 v=0
1055541 On ch=1 n=23 v=100
1055628 Off ch=1 n=23 v=0
1064896 On ch=1 n=6 v=100
1065150 Off ch=1 n=6 v=0
1065804 On ch=1 n=33 v=100
1065913 Off ch=1 n=33 v=0
1081985 On ch=1 n=4 v=100
1082552 Off ch=1 n=4 v=0
1083349 On ch=1 n=11 v=100
1084002 Off ch=1 n=11 v=0
1089610 On ch=1 n=53 v=100
1089814 On ch=1 n=48 v=100
1090098 Off ch=1 n=48 v=0
1090104 Off ch=1 n=53 v=0
1098620 On ch=1 n=12 v=100
1098690 Off ch=1 n=12 v=0
1147896 On ch=1 n=9 v=100
1148509 On ch=1 n=9 v=100
1148509 Off ch=1 n=9 v=0
1148731 Off ch=1 n=9 v=0
1156754 On ch=1 n=14 v=100
1156813 Off ch=1 n=14 v=0
1158101 On ch=1 n=8 v=100
1158766 Off ch=1 n=8 v=0
1179578 On ch=1 n=5 v=100
1180763 On ch=1 n=10 v=100
1180766 Off ch=1 n=5 v=0
1181005 Off ch=1 n=10 v=0
1188561 On ch=1 n=5 v=100
1188692 Off ch=1 n=5 v=0
1199470 On ch=1 n=19 v=100
1199586 Off ch=1 n=19 v=0
1199597 On ch=1 n=10 v=100
1199833 Off ch=1 n=10 v=0
1199847 On ch=1 n=39 v=100
1199989 Off ch=1 n=39 v=0
1203193 On ch=1 n=63 v=100
1203404 Off ch=1 n=63 v=0
1203697 On ch=1 n=41 v=100
1203858 Off ch=1 n=41 v=0
1208175 On ch=1 n=5 v=100
1209194 Off ch=1 n=5 v=0
1227016 On ch=1 n=23 v=100
1227111 Off ch=1 n=23 v=0
1227549 On ch=1 n=42 v=100
1227632 Off ch=1 n=42 v=0
1227633 On ch=1 n=19 v=100
1227903 Off ch=1 n=19 v=0
1233406 On ch=1 n=7 v=100
1234125 Off ch=1 n=7 v=0
1243087 On ch=1 n=10 v=100
1243266 Off ch=1 n=10 v=0
1256735 On ch=1 n=11 v=100
1256990 Off ch=1 n=11 v=0
1264267 On ch=1 n=15 v=100
1264393 Off ch=1 n=15 v=0
1270354 On ch=1 n=14 v=100
1270646 Off ch=1 n=14 v=0
1275412 On ch=1 n=43 v=100
1275506 Off ch=1 n=43 v=0
1305811 On ch=1 n=3 v=100
1306117 Off ch=1 n=3 v=0
1308615 On ch=1 n=17 v=100
1308894 Off ch=1 n=17 v=0
1337551 On ch=1 n=15 v=100
1337630 Off ch=1 n=15 v=0
1354491 On ch=1 n=26 v=100
1354642 Off ch=1 n=26 v=0
1355065 On ch=1 n=16 v=100
1355295 Off ch=1 n=16 v=0
1363332 On ch=1 n=21 v=100
1363404 Off ch=1 n=21 v=0
1363627 On ch=1 n=24 v=100
1364047 Off ch=1 n=24 v=0
1368117 On ch=1 n=18 v=100
1368372 Off ch=1 n=18 v=0
1368765 On ch=1 n=10 v=100
1368958 Off ch=1 n=10 v=0
1375621 On ch=1 n=54 v=100
1375907 Off ch=1 n=54 v=0
1390230 On ch=1 n=12 v=100
1390353 Off ch=1 n=12 v=0
1392475 On ch=1 n=11 v=100
1392785 Off ch=1 n=11 v=0
1399331 On ch=1 n=23 v=100
1399356 On ch=1 n=1 v=100
1399390 Off ch=1 n=23 v=0
1399422 Off ch=1 n=1 v=0
1406992 On ch=1 n=6 v=100
1407308 Off ch=1 n=6 v=0
1407988 On ch=1 n=12 v=100
1408176 Off ch=1 n=12 v=0
1409098 On ch=1 n=19 v=100
1409215 Off ch=1 n=19 v=0
1411139 On ch=1 n=48 v=100
1411435 Off ch=1 n=48 v=0
1421670 On ch=1 n=17 v=100
1421856 Off ch=1 n=17 v=0
1423101 On ch=1 n=12 v=100
1423191 Off ch=1 n=12 v=0
1427955 On ch=1 n=5 v=100
1429367 Off ch=1 n=5 v=0
1439795 On ch=1 n=21 v=100
1439879 Off ch=1 n=21 v=0
1440558 On ch=1 n=34 v=100
1440696 Off ch=1 n=34 v=0
1442571 On ch=1 n=39 v=100
1442780 Off ch=1 n=39 v=0
1445275 On ch=1 n=13 v=100
1445620 Off ch=1 n=13 v=0
1448147 On ch=1 n=16 v=100
1448335 Off ch=1 n=16 v=0
1472089 On ch=1 n=30 v=100
1472187 Off ch=1 n=30 v=0
1474156 On ch=1 n=12 v=100
1474811 Off ch=1 n=12 v=0
1474974 On ch=1 n=11 v=100
1475146 Off ch=1 n=11 v=0
1475151 On ch=1 n=4 v=100
1475320 Off ch=1 n=4 v=0
1480716 On ch=1 n=28 v=100
1480769 Off ch=1 n=28 v=0
1509242 On ch=1 n=12 v=100
1509253 Off ch=1 n=12 v=0
1509312 On ch=1 n=12 v=100
1509588 Off ch=1 n=12 v=0
1509598 On ch=1 n=10 v=100
1510670 Off ch=1 n=10 v=0
1512919 On ch=1 n=8 v=100
1513868 Off ch=1 n=8 v=0
1544572 On ch=1 n=8 v=100
1545301 Off ch=1 n=8 v=0
1599456 On ch=1 n=13 v=100
1599631 Off ch=1 n=13 v=0
1601346 On ch=1 n=10 v=100
1602483 Off ch=1 n=10 v=0
1603465 On ch=1 n=31 v=100
1603621 Off ch=1 n=31 v=0
1638991 On ch=1 n=52 v=100
1639177 Off ch=1 n=52 v=0
1639181 On ch=1 n=30 v=100
1639275 Off ch=1 n=30 v=0
1649720 On ch=1 n=13 v=100
1650023 Off ch=1 n=13 v=0
1665560 On ch=1 n=9 v=100
1665740 Off ch=1 n=9 v=0
1672809 On ch=1 n=39 v=100
1672937 Off ch=1 n=39 v=0
1683715 On ch=1 n=14 v=100
1684109 Off ch=1 n=14 v=0
1694952 On ch=1 n=8 v=100
1695176 Off ch=1 n=8 v=0
1706116 On ch=1 n=23 v=100
1706283 Off ch=1 n=23 v=0
1749011 On ch=1 n=7 v=100
1749601 Off ch=1 n=7 v=0
1755130 On ch=1 n=10 v=100
1755558 Off ch=1 n=10 v=0
1759337 On ch=1 n=7 v=100
1760143 Off ch=1 n=7 v=0
1782031 On ch=1 n=19 v=100
1782112 Off ch=1 n=19 v=0
1786120 On ch=1 n=50 v=100
1786136 On ch=1 n=56 v=100
1786178 On ch=1 n=61 v=100
1786360 Off ch=1 n=50 v=0
1786437 Off ch=1 n=61 v=0
1786438 Off ch=1 n=56 v=0
1786447 On ch=1 n=20 v=100
1786615 Off ch=1 n=20 v=0
1799286 On ch=1 n=20 v=100
1799517 Off ch=1 n=20 v=0
TrkEnd    
MTrk    
0 PrCh ch=2 p=40 
0 Meta TrkName "SINE" 
51514 On ch=2 n=9 v=100
52059 Off ch=2 n=9 v=0
83759 On ch=2 n=16 v=100
83893 Off ch=2 n=16 v=0
142463 On ch=2 n=10 v=100
142895 Off ch=2 n=10 v=0
179819 On ch=2 n=10 v=100
179849 Off ch=2 n=10 v=0
261325 On ch=2 n=29 v=100
261389 Off ch=2 n=29 v=0
264995 On ch=2 n=23 v=100
265072 Off ch=2 n=23 v=0
269543 On ch=2 n=31 v=100
269644 Off ch=2 n=31 v=0
272560 On ch=2 n=15 v=100
272638 Off ch=2 n=15 v=0
295227 On ch=2 n=21 v=100
295291 Off ch=2 n=21 v=0
303679 On ch=2 n=12 v=100
303796 Off ch=2 n=12 v=0
308028 On ch=2 n=18 v=100
308304 Off ch=2 n=18 v=0
435125 On ch=2 n=58 v=100
435276 Off ch=2 n=58 v=0
463688 On ch=2 n=12 v=100
463799 Off ch=2 n=12 v=0
470546 On ch=2 n=10 v=100
470709 Off ch=2 n=10 v=0
487019 On ch=2 n=8 v=100
487443 Off ch=2 n=8 v=0
487760 On ch=2 n=12 v=100
488278 Off ch=2 n=12 v=0
546327 On ch=2 n=11 v=100
546422 Off ch=2 n=11 v=0
625766 On ch=2 n=6 v=100
625958 Off ch=2 n=6 v=0
652849 On ch=2 n=19 v=100
653006 Off ch=2 n=19 v=0
724720 On ch=2 n=10 v=100
725192 Off ch=2 n=10 v=0
725220 On ch=2 n=30 v=100
725441 Off ch=2 n=30 v=0
751243 On ch=2 n=5 v=100
751596 Off ch=2 n=5 v=0
774044 On ch=2 n=12 v=100
774241 Off ch=2 n=12 v=0
774243 On ch=2 n=36 v=100
774243 On ch=2 n=24 v=100
774343 Off ch=2 n=24 v=0
774419 Off ch=2 n=36 v=0
790001 On ch=2 n=12 v=100
790204 Off ch=2 n=12 v=0
792069 On ch=2 n=34 v=100
792205 Off ch=2 n=34 v=0
806817 On ch=2 n=14 v=100
806885 Off ch=2 n=14 v=0
806901 On ch=2 n=20 v=100
806935 Off ch=2 n=20 v=0
828476 On ch=2 n=26 v=100
828562 Off ch=2 n=26 v=0
856715 On ch=2 n=13 v=100
856977 Off ch=2 n=13 v=0
890715 On ch=2 n=6 v=100
890797 Off ch=2 n=6 v=0
949149 On ch=2 n=31 v=100
949223 Off ch=2 n=31 v=0
954275 On ch=2 n=3 v=100
954337 Off ch=2 n=3 v=0
963636 On ch=2 n=21 v=100
963797 Off ch=2 n=21 v=0
974650 On ch=2 n=13 v=100
974811 Off ch=2 n=13 v=0
1008081 On ch=2 n=27 v=100
1008123 Off ch=2 n=27 v=0
1072281 On ch=2 n=10 v=100
1072708 Off ch=2 n=10 v=0
1076481 On ch=2 n=9 v=100
1076553 Off ch=2 n=9 v=0
1076554 On ch=2 n=15 v=100
1076961 Off ch=2 n=15 v=0
1094754 On ch=2 n=41 v=100
1094817 Off ch=2 n=41 v=0
1094913 On ch=2 n=15 v=100
1095087 Off ch=2 n=15 v=0
1119670 On ch=2 n=9 v=100
1120191 Off ch=2 n=9 v=0
1122261 On ch=2 n=12 v=100
1122470 Off ch=2 n=12 v=0
1177243 On ch=2 n=13 v=100
1177615 Off ch=2 n=13 v=0
1177816 On ch=2 n=15 v=100
1177997 Off ch=2 n=15 v=0
1178349 On ch=2 n=8 v=100
1178398 Off ch=2 n=8 v=0
1187613 On ch=2 n=14 v=100
1187682 Off ch=2 n=14 v=0
1198676 On ch=2 n=38 v=100
1198737 Off ch=2 n=38 v=0
1199323 On ch=2 n=13 v=100
1199480 Off ch=2 n=13 v=0
1200332 On ch=2 n=22 v=100
1200486 Off ch=2 n=22 v=0
1209748 On ch=2 n=3 v=100
1210215 Off ch=2 n=3 v=0
1245885 On ch=2 n=30 v=100
1245933 Off ch=2 n=30 v=0
1343101 On ch=2 n=28 v=100
1343198 Off ch=2 n=28 v=0
1343932 On ch=2 n=11 v=100
1344130 Off ch=2 n=11 v=0
1406911 On ch=2 n=11 v=100
1407007 Off ch=2 n=11 v=0
1412433 On ch=2 n=41 v=100
1412526 Off ch=2 n=41 v=0
1415177 On ch=2 n=11 v=100
1415333 Off ch=2 n=11 v=0
1533975 On ch=2 n=18 v=100
1534074 Off ch=2 n=18 v=0
1554211 On ch=2 n=10 v=100
1554344 Off ch=2 n=10 v=0
1583666 On ch=2 n=7 v=100
1583695 Off ch=2 n=7 v=0
1587273 On ch=2 n=19 v=100
1587480 Off ch=2 n=19 v=0
1630352 On ch=2 n=7 v=100
1630852 Off ch=2 n=7 v=0
1677986 On ch=2 n=36 v=100
1678087 Off ch=2 n=36 v=0
1730298 On ch=2 n=6 v=100
1730315 On ch=2 n=25 v=100
1730669 Off ch=2 n=6 v=0
1730765 Off ch=2 n=25 v=0
1787766 On ch=2 n=18 v=100
1787944 Off ch=2 n=18 v=0
1792837 On ch=2 n=14 v=100
1792842 On ch=2 n=36 v=100
1792970 Off ch=2 n=14 v=0
1792986 Off ch=2 n=36 v=0
1795817 On ch=2 n=27 v=100
1795860 Off ch=2 n=27 v=0
TrkEnd    
MTrk    
0 PrCh ch=3 p=42 
0 Meta TrkName "DNA" 
277 On ch=3 n=4 v=100
482 Off ch=3 n=4 v=0
560 On ch=3 n=22 v=100
679 Off ch=3 n=22 v=0
681 On ch=3 n=5 v=100
912 Off ch=3 n=5 v=0
913 On ch=3 n=31 v=100
1005 Off ch=3 n=31 v=0
1016 On ch=3 n=18 v=100
1316 Off ch=3 n=18 v=0
1744 On ch=3 n=18 v=100
2007 On ch=3 n=11 v=100
2015 Off ch=3 n=18 v=0
2045 Off ch=3 n=11 v=0
2236 On ch=3 n=44 v=100
2326 On ch=3 n=11 v=100
2395 Off ch=3 n=44 v=0
2716 Off ch=3 n=11 v=0
3243 On ch=3 n=19 v=100
3280 On ch=3 n=9 v=100
3516 Off ch=3 n=19 v=0
3801 Off ch=3 n=9 v=0
4631 On ch=3 n=29 v=100
4646 On ch=3 n=10 v=100
4674 Off ch=3 n=29 v=0
5153 Off ch=3 n=10 v=0
5882 On ch=3 n=19 v=100
5934 On ch=3 n=16 v=100
5978 On ch=3 n=22 v=100
5978 On ch=3 n=22 v=100
5991 On ch=3 n=20 v=100
6316 Off ch=3 n=19 v=0
6388 Off ch=3 n=16 v=0
6478 Off ch=3 n=20 v=0
6530 On ch=3 n=45 v=100
6601 Off ch=3 n=22 v=0
6601 Off ch=3 n=22 v=0
6969 On ch=3 n=25 v=100
7018 On ch=3 n=21 v=100
7018 On ch=3 n=21 v=100
7019 On ch=3 n=12 v=100
7019 On ch=3 n=12 v=100
7041 On ch=3 n=19 v=100
7290 Off ch=3 n=45 v=0
7421 Off ch=3 n=12 v=0
7421 Off ch=3 n=12 v=0
7423 Off ch=3 n=25 v=0
7497 Off ch=3 n=19 v=0
7534 Off ch=3 n=21 v=0
7534 Off ch=3 n=21 v=0
8477 On ch=3 n=26 v=100
8589 On ch=3 n=19 v=100
8630 Off ch=3 n=26 v=0
8632 On ch=3 n=11 v=100
8846 Off ch=3 n=11 v=0
8847 Off ch=3 n=19 v=0
8848 On ch=3 n=4 v=100
9071 Off ch=3 n=4 v=0
9072 On ch=3 n=21 v=100
9259 On ch=3 n=28 v=100
9321 On ch=3 n=36 v=100
9326 Off ch=3 n=21 v=0
9377 Off ch=3 n=28 v=0
9506 Off ch=3 n=36 v=0
9590 On ch=3 n=15 v=100
9711 Off ch=3 n=15 v=0
9771 On ch=3 n=18 v=100
9912 Off ch=3 n=18 v=0
10437 On ch=3 n=28 v=100
10706 Off ch=3 n=28 v=0
10725 On ch=3 n=8 v=100
12026 Off ch=3 n=8 v=0
12174 On ch=3 n=34 v=100
12272 Off ch=3 n=34 v=0
14765 On ch=3 n=12 v=100
15080 Off ch=3 n=12 v=0
15503 On ch=3 n=10 v=100
15746 On ch=3 n=24 v=100
15788 Off ch=3 n=10 v=0
15861 Off ch=3 n=24 v=0
15879 On ch=3 n=11 v=100
16011 Off ch=3 n=11 v=0
17014 On ch=3 n=21 v=100
17020 On ch=3 n=13 v=100
17217 Off ch=3 n=13 v=0
17237 Off ch=3 n=21 v=0
17605 On ch=3 n=21 v=100
17605 On ch=3 n=33 v=100
17605 On ch=3 n=37 v=100
17605 On ch=3 n=40 v=100
17710 Off ch=3 n=21 v=0
17737 Off ch=3 n=33 v=0
17756 Off ch=3 n=37 v=0
17801 Off ch=3 n=40 v=0
17972 On ch=3 n=24 v=100
18154 Off ch=3 n=24 v=0
18672 On ch=3 n=11 v=100
19009 On ch=3 n=14 v=100
19058 Off ch=3 n=11 v=0
19250 Off ch=3 n=14 v=0
19255 On ch=3 n=8 v=100
19295 On ch=3 n=13 v=100
19482 Off ch=3 n=8 v=0
19887 Off ch=3 n=13 v=0
19942 On ch=3 n=33 v=100
20312 Off ch=3 n=33 v=0
21108 On ch=3 n=18 v=100
21129 On ch=3 n=41 v=100
21130 On ch=3 n=33 v=100
21269 Off ch=3 n=18 v=0
21293 Off ch=3 n=33 v=0
21330 Off ch=3 n=41 v=0
23896 On ch=3 n=11 v=100
24624 On ch=3 n=25 v=100
25006 Off ch=3 n=11 v=0
25009 On ch=3 n=2 v=100
25097 Off ch=3 n=25 v=0
25152 Off ch=3 n=2 v=0
25828 On ch=3 n=39 v=100
25836 On ch=3 n=24 v=100
25914 Off ch=3 n=24 v=0
26047 Off ch=3 n=39 v=0
26795 On ch=3 n=26 v=100
26844 On ch=3 n=13 v=100
26888 On ch=3 n=16 v=100
27102 Off ch=3 n=26 v=0
27102 Off ch=3 n=13 v=0
27102 Off ch=3 n=16 v=0
27489 On ch=3 n=23 v=100
27874 Off ch=3 n=23 v=0
27951 On ch=3 n=19 v=100
28252 On ch=3 n=13 v=100
28470 On ch=3 n=30 v=100
28475 Off ch=3 n=19 v=0
28582 Off ch=3 n=13 v=0
28601 Off ch=3 n=30 v=0
29328 On ch=3 n=10 v=100
29880 Off ch=3 n=10 v=0
29890 On ch=3 n=10 v=100
30863 Off ch=3 n=10 v=0
31396 On ch=3 n=0 v=100
31420 Off ch=3 n=0 v=0
33119 On ch=3 n=17 v=100
33156 Off ch=3 n=17 v=0
33928 On ch=3 n=27 v=100
33941 On ch=3 n=20 v=100
33945 On ch=3 n=18 v=100
34029 Off ch=3 n=27 v=0
34046 Off ch=3 n=18 v=0
34055 Off ch=3 n=20 v=0
34902 On ch=3 n=18 v=100
35023 Off ch=3 n=18 v=0
35721 On ch=3 n=17 v=100
35948 Off ch=3 n=17 v=0
35956 On ch=3 n=8 v=100
36379 On ch=3 n=32 v=100
36461 Off ch=3 n=8 v=0
36530 Off ch=3 n=32 v=0
37286 On ch=3 n=33 v=100
37507 Off ch=3 n=33 v=0
38350 On ch=3 n=12 v=100
38793 On ch=3 n=41 v=100
38852 On ch=3 n=29 v=100
38956 Off ch=3 n=12 v=0
38974 Off ch=3 n=29 v=0
38981 Off ch=3 n=41 v=0
39306 On ch=3 n=7 v=100
39740 Off ch=3 n=7 v=0
40671 On ch=3 n=21 v=100
40749 On ch=3 n=16 v=100
40768 On ch=3 n=18 v=100
40823 On ch=3 n=28 v=100
41160 Off ch=3 n=21 v=0
41163 Off ch=3 n=16 v=0
41212 Off ch=3 n=18 v=0
41302 On ch=3 n=34 v=100
41372 Off ch=3 n=28 v=0
41457 Off ch=3 n=34 v=0
41469 On ch=3 n=26 v=100
41638 Off ch=3 n=26 v=0
41667 On ch=3 n=9 v=100
41754 On ch=3 n=11 v=100
41759 Off ch=3 n=9 v=0
42436 On ch=3 n=11 v=100
42438 Off ch=3 n=11 v=0
43586 On ch=3 n=19 v=100
43592 Off ch=3 n=11 v=0
43709 Off ch=3 n=19 v=0
44841 On ch=3 n=19 v=100
45026 Off ch=3 n=19 v=0
45243 On ch=3 n=30 v=100
45243 On ch=3 n=30 v=100
45313 On ch=3 n=23 v=100
45452 On ch=3 n=23 v=100
45459 On ch=3 n=27 v=100
45459 On ch=3 n=27 v=100
45831 Off ch=3 n=30 v=0
45831 Off ch=3 n=30 v=0
45834 Off ch=3 n=23 v=0
45969 Off ch=3 n=23 v=0
46059 Off ch=3 n=27 v=0
46059 Off ch=3 n=27 v=0
46994 On ch=3 n=13 v=100
47079 Off ch=3 n=13 v=0
47618 On ch=3 n=18 v=100
47759 On ch=3 n=25 v=100
47786 Off ch=3 n=18 v=0
47909 On ch=3 n=17 v=100
48203 Off ch=3 n=17 v=0
48208 Off ch=3 n=25 v=0
48775 On ch=3 n=52 v=100
48998 Off ch=3 n=52 v=0
49868 On ch=3 n=54 v=100
50079 Off ch=3 n=54 v=0
50191 On ch=3 n=21 v=100
50205 On ch=3 n=11 v=100
50314 Off ch=3 n=21 v=0
50484 Off ch=3 n=11 v=0
51376 On ch=3 n=39 v=100
51513 Off ch=3 n=39 v=0
52615 On ch=3 n=28 v=100
52633 On ch=3 n=28 v=100
52961 Off ch=3 n=28 v=0
53040 Off ch=3 n=28 v=0
53065 On ch=3 n=16 v=100
53275 Off ch=3 n=16 v=0
54394 On ch=3 n=26 v=100
54448 Off ch=3 n=26 v=0
54772 On ch=3 n=28 v=100
54783 On ch=3 n=47 v=100
54787 On ch=3 n=18 v=100
54968 Off ch=3 n=18 v=0
54975 Off ch=3 n=28 v=0
55004 Off ch=3 n=47 v=0
55637 On ch=3 n=12 v=100
55777 On ch=3 n=21 v=100
55867 On ch=3 n=8 v=100
55873 Off ch=3 n=12 v=0
55900 Off ch=3 n=21 v=0
56070 Off ch=3 n=8 v=0
56240 On ch=3 n=38 v=100
56312 On ch=3 n=24 v=100
56388 On ch=3 n=17 v=100
56488 On ch=3 n=41 v=100
56527 Off ch=3 n=38 v=0
56530 Off ch=3 n=24 v=0
56556 Off ch=3 n=17 v=0
56574 Off ch=3 n=41 v=0
56680 On ch=3 n=10 v=100
57698 Off ch=3 n=10 v=0
58855 On ch=3 n=13 v=100
58909 On ch=3 n=14 v=100
58916 Off ch=3 n=13 v=0
59342 On ch=3 n=8 v=100
59344 Off ch=3 n=14 v=0
59467 Off ch=3 n=8 v=0
59493 On ch=3 n=5 v=100
59546 Off ch=3 n=5 v=0
60484 On ch=3 n=12 v=100
60497 On ch=3 n=4 v=100
60565 Off ch=3 n=12 v=0
60565 Off ch=3 n=4 v=0
60616 On ch=3 n=18 v=100
60778 On ch=3 n=8 v=100
60826 On ch=3 n=17 v=100
60989 Off ch=3 n=18 v=0
61041 Off ch=3 n=8 v=0
61068 Off ch=3 n=17 v=0
62277 On ch=3 n=10 v=100
62816 Off ch=3 n=10 v=0
62819 On ch=3 n=12 v=100
62871 Off ch=3 n=12 v=0
62973 On ch=3 n=11 v=100
63131 Off ch=3 n=11 v=0
63132 On ch=3 n=13 v=100
63586 Off ch=3 n=13 v=0
65223 On ch=3 n=11 v=100
65583 Off ch=3 n=11 v=0
65604 On ch=3 n=12 v=100
65787 Off ch=3 n=12 v=0
65791 On ch=3 n=11 v=100
65979 Off ch=3 n=11 v=0
66602 On ch=3 n=31 v=100
66685 On ch=3 n=10 v=100
66753 Off ch=3 n=31 v=0
67034 Off ch=3 n=10 v=0
67042 On ch=3 n=13 v=100
67212 Off ch=3 n=13 v=0
67262 On ch=3 n=9 v=100
68199 Off ch=3 n=9 v=0
69173 On ch=3 n=14 v=100
69302 Off ch=3 n=14 v=0
69546 On ch=3 n=51 v=100
69546 On ch=3 n=51 v=100
69675 On ch=3 n=34 v=100
69955 Off ch=3 n=34 v=0
69993 Off ch=3 n=51 v=0
69993 Off ch=3 n=51 v=0
70212 On ch=3 n=17 v=100
70292 Off ch=3 n=17 v=0
70341 On ch=3 n=8 v=100
70840 Off ch=3 n=8 v=0
71605 On ch=3 n=11 v=100
71610 On ch=3 n=15 v=100
71710 Off ch=3 n=11 v=0
71713 On ch=3 n=17 v=100
71736 Off ch=3 n=15 v=0
71883 Off ch=3 n=17 v=0
72758 On ch=3 n=11 v=100
73130 On ch=3 n=37 v=100
73198 On ch=3 n=9 v=100
73202 Off ch=3 n=11 v=0
73672 Off ch=3 n=37 v=0
73673 Off ch=3 n=9 v=0
74319 On ch=3 n=40 v=100
74319 On ch=3 n=7 v=100
74532 Off ch=3 n=7 v=0
74800 Off ch=3 n=40 v=0
79109 On ch=3 n=10 v=100
79322 Off ch=3 n=10 v=0
79325 On ch=3 n=27 v=100
79501 Off ch=3 n=27 v=0
80014 On ch=3 n=9 v=100
80735 Off ch=3 n=9 v=0
81330 On ch=3 n=21 v=100
81393 Off ch=3 n=21 v=0
82585 On ch=3 n=32 v=100
82587 On ch=3 n=30 v=100
82717 Off ch=3 n=32 v=0
82735 Off ch=3 n=30 v=0
84027 On ch=3 n=36 v=100
84205 On ch=3 n=8 v=100
84205 On ch=3 n=8 v=100
84247 Off ch=3 n=36 v=0
84777 Off ch=3 n=8 v=0
84777 Off ch=3 n=8 v=0
84882 On ch=3 n=13 v=100
85010 Off ch=3 n=13 v=0
85049 On ch=3 n=13 v=100
85051 On ch=3 n=24 v=100
85154 Off ch=3 n=13 v=0
85179 Off ch=3 n=24 v=0
85813 On ch=3 n=9 v=100
85921 Off ch=3 n=9 v=0
86033 On ch=3 n=9 v=100
86087 Off ch=3 n=9 v=0
87418 On ch=3 n=18 v=100
87556 On ch=3 n=7 v=100
87588 Off ch=3 n=18 v=0
87743 On ch=3 n=9 v=100
87791 On ch=3 n=30 v=100
87808 Off ch=3 n=7 v=0
87984 Off ch=3 n=9 v=0
87987 On ch=3 n=15 v=100
88216 Off ch=3 n=30 v=0
88217 Off ch=3 n=15 v=0
88546 On ch=3 n=22 v=100
88568 On ch=3 n=13 v=100
88596 On ch=3 n=26 v=100
88642 Off ch=3 n=22 v=0
88758 Off ch=3 n=13 v=0
88866 On ch=3 n=13 v=100
88912 Off ch=3 n=26 v=0
89258 On ch=3 n=5 v=100
89260 Off ch=3 n=13 v=0
89344 Off ch=3 n=5 v=0
90814 On ch=3 n=21 v=100
90845 On ch=3 n=12 v=100
90900 On ch=3 n=52 v=100
90945 Off ch=3 n=21 v=0
90968 Off ch=3 n=12 v=0
90970 On ch=3 n=8 v=100
91250 Off ch=3 n=52 v=0
91550 On ch=3 n=10 v=100
91556 Off ch=3 n=8 v=0
91958 On ch=3 n=41 v=100
92129 Off ch=3 n=10 v=0
92150 Off ch=3 n=41 v=0
93008 On ch=3 n=16 v=100
93105 On ch=3 n=32 v=100
93117 On ch=3 n=42 v=100
93117 On ch=3 n=42 v=100
93141 On ch=3 n=5 v=100
93141 Off ch=3 n=16 v=0
93197 Off ch=3 n=32 v=0
93198 Off ch=3 n=5 v=0
93284 Off ch=3 n=42 v=0
93284 Off ch=3 n=42 v=0
93354 On ch=3 n=42 v=100
93354 On ch=3 n=11 v=100
93539 Off ch=3 n=11 v=0
93544 Off ch=3 n=42 v=0
93739 On ch=3 n=26 v=100
94110 Off ch=3 n=26 v=0
94196 On ch=3 n=8 v=100
94245 Off ch=3 n=8 v=0
94260 On ch=3 n=9 v=100
94692 Off ch=3 n=9 v=0
95141 On ch=3 n=8 v=100
95525 On ch=3 n=19 v=100
95525 Off ch=3 n=8 v=0
95815 Off ch=3 n=19 v=0
95870 On ch=3 n=44 v=100
95870 On ch=3 n=44 v=100
95882 On ch=3 n=20 v=100
96095 Off ch=3 n=20 v=0
96267 Off ch=3 n=44 v=0
96267 Off ch=3 n=44 v=0
97401 On ch=3 n=8 v=100
98067 Off ch=3 n=8 v=0
98075 On ch=3 n=11 v=100
98145 On ch=3 n=28 v=100
98219 Off ch=3 n=11 v=0
98276 Off ch=3 n=28 v=0
99704 On ch=3 n=53 v=100
99927 Off ch=3 n=53 v=0
99962 On ch=3 n=53 v=100
99985 On ch=3 n=25 v=100
100099 Off ch=3 n=53 v=0
100100 Off ch=3 n=25 v=0
100101 On ch=3 n=7 v=100
101095 On ch=3 n=16 v=100
101100 Off ch=3 n=7 v=0
101611 Off ch=3 n=16 v=0
101772 On ch=3 n=27 v=100
101901 Off ch=3 n=27 v=0
101924 On ch=3 n=13 v=100
102384 Off ch=3 n=13 v=0
102458 On ch=3 n=30 v=100
102789 Off ch=3 n=30 v=0
103085 On ch=3 n=37 v=100
103169 Off ch=3 n=37 v=0
103173 On ch=3 n=14 v=100
103416 Off ch=3 n=14 v=0
104661 On ch=3 n=26 v=100
104800 On ch=3 n=14 v=100
104806 Off ch=3 n=26 v=0
105469 Off ch=3 n=14 v=0
106505 On ch=3 n=14 v=100
106586 On ch=3 n=7 v=100
106586 Off ch=3 n=14 v=0
107287 On ch=3 n=4 v=100
107287 Off ch=3 n=7 v=0
107729 Off ch=3 n=4 v=0
107737 On ch=3 n=6 v=100
108086 On ch=3 n=8 v=100
108087 Off ch=3 n=6 v=0
108260 Off ch=3 n=8 v=0
108324 On ch=3 n=9 v=100
108840 Off ch=3 n=9 v=0
109278 On ch=3 n=9 v=100
109691 Off ch=3 n=9 v=0
109731 On ch=3 n=9 v=100
110066 Off ch=3 n=9 v=0
110067 On ch=3 n=6 v=100
110677 On ch=3 n=18 v=100
110719 On ch=3 n=7 v=100
110725 Off ch=3 n=6 v=0
110732 Off ch=3 n=18 v=0
111874 On ch=3 n=6 v=100
111877 Off ch=3 n=7 v=0
111934 Off ch=3 n=6 v=0
111981 On ch=3 n=16 v=100
112102 On ch=3 n=45 v=100
112108 Off ch=3 n=16 v=0
112119 On ch=3 n=41 v=100
112119 On ch=3 n=56 v=100
112133 On ch=3 n=25 v=100
112180 Off ch=3 n=41 v=0
112245 Off ch=3 n=45 v=0
112245 Off ch=3 n=56 v=0
112267 Off ch=3 n=25 v=0
113210 On ch=3 n=12 v=100
113376 Off ch=3 n=12 v=0
114754 On ch=3 n=34 v=100
114860 Off ch=3 n=34 v=0
114924 On ch=3 n=28 v=100
114939 On ch=3 n=21 v=100
115020 Off ch=3 n=28 v=0
115433 Off ch=3 n=21 v=0
115472 On ch=3 n=11 v=100
115546 Off ch=3 n=11 v=0
115580 On ch=3 n=11 v=100
115667 Off ch=3 n=11 v=0
115700 On ch=3 n=13 v=100
116023 On ch=3 n=12 v=100
116023 Off ch=3 n=13 v=0
116162 On ch=3 n=15 v=100
116162 Off ch=3 n=12 v=0
116657 Off ch=3 n=15 v=0
116660 On ch=3 n=19 v=100
116918 Off ch=3 n=19 v=0
117018 On ch=3 n=10 v=100
117765 Off ch=3 n=10 v=0
125246 On ch=3 n=8 v=100
125299 Off ch=3 n=8 v=0
126144 On ch=3 n=11 v=100
126182 Off ch=3 n=11 v=0
126190 On ch=3 n=13 v=100
126674 On ch=3 n=8 v=100
126682 Off ch=3 n=13 v=0
126702 On ch=3 n=23 v=100
126742 On ch=3 n=15 v=100
126744 Off ch=3 n=8 v=0
127029 Off ch=3 n=23 v=0
127030 Off ch=3 n=15 v=0
127046 On ch=3 n=10 v=100
127308 On ch=3 n=17 v=100
127316 Off ch=3 n=10 v=0
127440 Off ch=3 n=17 v=0
127879 On ch=3 n=16 v=100
128036 On ch=3 n=12 v=100
128480 Off ch=3 n=16 v=0
128647 On ch=3 n=56 v=100
128647 On ch=3 n=56 v=100
128676 On ch=3 n=26 v=100
128677 Off ch=3 n=12 v=0
128730 Off ch=3 n=26 v=0
128812 Off ch=3 n=56 v=0
128812 Off ch=3 n=56 v=0
130806 On ch=3 n=42 v=100
130900 Off ch=3 n=42 v=0
131632 On ch=3 n=22 v=100
132247 Off ch=3 n=22 v=0
132417 On ch=3 n=23 v=100
132738 Off ch=3 n=23 v=0
133884 On ch=3 n=2 v=100
134057 Off ch=3 n=2 v=0
134702 On ch=3 n=38 v=100
134873 Off ch=3 n=38 v=0
136073 On ch=3 n=22 v=100
136113 On ch=3 n=12 v=100
136351 Off ch=3 n=22 v=0
136389 Off ch=3 n=12 v=0
137290 On ch=3 n=14 v=100
137323 Off ch=3 n=14 v=0
137403 On ch=3 n=14 v=100
137567 On ch=3 n=18 v=100
137573 Off ch=3 n=14 v=0
137684 Off ch=3 n=18 v=0
137689 On ch=3 n=10 v=100
137936 Off ch=3 n=10 v=0
138366 On ch=3 n=49 v=100
138463 On ch=3 n=37 v=100
138500 On ch=3 n=39 v=100
138509 On ch=3 n=34 v=100
138716 Off ch=3 n=49 v=0
138727 Off ch=3 n=37 v=0
138742 Off ch=3 n=34 v=0
138786 Off ch=3 n=39 v=0
142890 On ch=3 n=12 v=100
143212 Off ch=3 n=12 v=0
144737 On ch=3 n=20 v=100
144966 Off ch=3 n=20 v=0
146068 On ch=3 n=22 v=100
146161 Off ch=3 n=22 v=0
146162 On ch=3 n=14 v=100
146306 Off ch=3 n=14 v=0
146323 On ch=3 n=11 v=100
146833 On ch=3 n=35 v=100
146988 Off ch=3 n=11 v=0
147211 On ch=3 n=31 v=100
147230 On ch=3 n=23 v=100
147236 Off ch=3 n=35 v=0
147327 Off ch=3 n=31 v=0
147466 Off ch=3 n=23 v=0
149399 On ch=3 n=20 v=100
149867 Off ch=3 n=20 v=0
150507 On ch=3 n=19 v=100
150974 On ch=3 n=31 v=100
150977 Off ch=3 n=19 v=0
151356 On ch=3 n=27 v=100
151459 On ch=3 n=17 v=100
151466 Off ch=3 n=31 v=0
151549 Off ch=3 n=27 v=0
151924 Off ch=3 n=17 v=0
153950 On ch=3 n=35 v=100
153955 On ch=3 n=19 v=100
153980 On ch=3 n=21 v=100
154089 Off ch=3 n=19 v=0
154123 Off ch=3 n=35 v=0
154332 Off ch=3 n=21 v=0
154376 On ch=3 n=21 v=100
154460 Off ch=3 n=21 v=0
156636 On ch=3 n=33 v=100
156701 Off ch=3 n=33 v=0
159597 On ch=3 n=37 v=100
159678 Off ch=3 n=37 v=0
162500 On ch=3 n=40 v=100
162571 On ch=3 n=5 v=100
162755 Off ch=3 n=5 v=0
162764 Off ch=3 n=40 v=0
165897 On ch=3 n=9 v=100
166081 On ch=3 n=8 v=100
166084 Off ch=3 n=9 v=0
166165 Off ch=3 n=8 v=0
166548 On ch=3 n=13 v=100
166638 Off ch=3 n=13 v=0
166643 On ch=3 n=21 v=100
166749 Off ch=3 n=21 v=0
166991 On ch=3 n=28 v=100
167322 Off ch=3 n=28 v=0
167329 On ch=3 n=37 v=100
167555 Off ch=3 n=37 v=0
169599 On ch=3 n=13 v=100
170117 Off ch=3 n=13 v=0
171264 On ch=3 n=8 v=100
172344 Off ch=3 n=8 v=0
173182 On ch=3 n=36 v=100
173258 On ch=3 n=35 v=100
173296 On ch=3 n=29 v=100
173425 Off ch=3 n=36 v=0
173426 Off ch=3 n=35 v=0
173442 Off ch=3 n=29 v=0
174680 On ch=3 n=20 v=100
174756 Off ch=3 n=20 v=0
174759 On ch=3 n=27 v=100
175011 Off ch=3 n=27 v=0
175165 On ch=3 n=12 v=100
175452 Off ch=3 n=12 v=0
175805 On ch=3 n=15 v=100
175854 Off ch=3 n=15 v=0
176319 On ch=3 n=20 v=100
176948 Off ch=3 n=20 v=0
177714 On ch=3 n=8 v=100
178544 Off ch=3 n=8 v=0
179614 On ch=3 n=47 v=100
179818 Off ch=3 n=47 v=0
179984 On ch=3 n=9 v=100
179988 On ch=3 n=9 v=100
180337 Off ch=3 n=9 v=0
180343 On ch=3 n=21 v=100
180359 On ch=3 n=20 v=100
180380 Off ch=3 n=9 v=0
180405 Off ch=3 n=21 v=0
180423 Off ch=3 n=20 v=0
180638 On ch=3 n=11 v=100
181091 Off ch=3 n=11 v=0
181568 On ch=3 n=43 v=100
181659 On ch=3 n=31 v=100
181665 On ch=3 n=28 v=100
181901 Off ch=3 n=28 v=0
181906 Off ch=3 n=43 v=0
181959 Off ch=3 n=31 v=0
182615 On ch=3 n=33 v=100
182900 Off ch=3 n=33 v=0
183579 On ch=3 n=18 v=100
183647 On ch=3 n=37 v=100
183738 Off ch=3 n=18 v=0
183767 Off ch=3 n=37 v=0
184125 On ch=3 n=37 v=100
184125 On ch=3 n=19 v=100
184125 On ch=3 n=37 v=100
184125 On ch=3 n=19 v=100
184409 Off ch=3 n=19 v=0
184409 Off ch=3 n=19 v=0
184684 Off ch=3 n=37 v=0
184684 Off ch=3 n=37 v=0
184708 On ch=3 n=24 v=100
184851 On ch=3 n=15 v=100
185165 Off ch=3 n=24 v=0
185190 On ch=3 n=15 v=100
185199 On ch=3 n=18 v=100
185208 On ch=3 n=21 v=100
185216 On ch=3 n=27 v=100
185382 Off ch=3 n=15 v=0
185512 Off ch=3 n=15 v=0
185552 Off ch=3 n=18 v=0
185553 On ch=3 n=37 v=100
185553 On ch=3 n=37 v=100
185594 Off ch=3 n=27 v=0
185642 On ch=3 n=23 v=100
185683 Off ch=3 n=21 v=0
185801 On ch=3 n=24 v=100
185901 Off ch=3 n=23 v=0
185943 Off ch=3 n=37 v=0
185943 Off ch=3 n=37 v=0
185946 On ch=3 n=30 v=100
185948 Off ch=3 n=24 v=0
186017 Off ch=3 n=30 v=0
186133 On ch=3 n=8 v=100
186535 On ch=3 n=32 v=100
186634 Off ch=3 n=8 v=0
186642 On ch=3 n=46 v=100
186642 On ch=3 n=46 v=100
186650 Off ch=3 n=32 v=0
186665 On ch=3 n=42 v=100
186795 On ch=3 n=22 v=100
186934 Off ch=3 n=42 v=0
186943 On ch=3 n=7 v=100
186949 Off ch=3 n=46 v=0
186949 Off ch=3 n=46 v=0
186953 Off ch=3 n=22 v=0
187250 Off ch=3 n=7 v=0
189147 On ch=3 n=7 v=100
189377 Off ch=3 n=7 v=0
189447 On ch=3 n=13 v=100
189660 Off ch=3 n=13 v=0
194396 On ch=3 n=12 v=100
194396 On ch=3 n=47 v=100
194504 Off ch=3 n=12 v=0
194505 On ch=3 n=8 v=100
194518 Off ch=3 n=47 v=0
195158 On ch=3 n=11 v=100
195177 Off ch=3 n=8 v=0
195559 Off ch=3 n=11 v=0
195570 On ch=3 n=13 v=100
195702 On ch=3 n=43 v=100
195773 Off ch=3 n=13 v=0
195910 Off ch=3 n=43 v=0
196127 On ch=3 n=13 v=100
196564 On ch=3 n=22 v=100
196579 On ch=3 n=13 v=100
196596 Off ch=3 n=13 v=0
196599 On ch=3 n=25 v=100
196704 Off ch=3 n=22 v=0
196924 Off ch=3 n=13 v=0
197052 On ch=3 n=21 v=100
197059 On ch=3 n=22 v=100
197166 Off ch=3 n=25 v=0
197176 On ch=3 n=16 v=100
197422 On ch=3 n=24 v=100
197562 Off ch=3 n=21 v=0
197624 Off ch=3 n=22 v=0
197636 Off ch=3 n=16 v=0
197717 Off ch=3 n=24 v=0
198186 On ch=3 n=12 v=100
198529 Off ch=3 n=12 v=0
198571 On ch=3 n=28 v=100
198736 Off ch=3 n=28 v=0
198844 On ch=3 n=22 v=100
198847 On ch=3 n=39 v=100
198847 On ch=3 n=39 v=100
198880 On ch=3 n=18 v=100
199165 Off ch=3 n=22 v=0
199165 Off ch=3 n=18 v=0
199264 Off ch=3 n=39 v=0
199264 Off ch=3 n=39 v=0
199733 On ch=3 n=35 v=100
199830 Off ch=3 n=35 v=0
200324 On ch=3 n=24 v=100
200478 On ch=3 n=15 v=100
200613 On ch=3 n=27 v=100
200828 Off ch=3 n=24 v=0
200837 Off ch=3 n=15 v=0
200888 Off ch=3 n=27 v=0
200924 On ch=3 n=19 v=100
201105 On ch=3 n=55 v=100
201163 Off ch=3 n=19 v=0
201219 On ch=3 n=47 v=100
201344 Off ch=3 n=55 v=0
201360 Off ch=3 n=47 v=0
201633 On ch=3 n=38 v=100
201633 On ch=3 n=38 v=100
201650 On ch=3 n=23 v=100
201659 On ch=3 n=28 v=100
201715 Off ch=3 n=23 v=0
201730 Off ch=3 n=38 v=0
201730 Off ch=3 n=38 v=0
201732 On ch=3 n=18 v=100
201876 On ch=3 n=19 v=100
202083 On ch=3 n=30 v=100
202195 Off ch=3 n=28 v=0
202195 Off ch=3 n=18 v=0
202218 Off ch=3 n=19 v=0
202218 Off ch=3 n=30 v=0
202278 On ch=3 n=19 v=100
202278 On ch=3 n=30 v=100
202359 Off ch=3 n=19 v=0
202367 On ch=3 n=53 v=100
202370 On ch=3 n=24 v=100
202536 Off ch=3 n=30 v=0
202556 Off ch=3 n=24 v=0
202716 Off ch=3 n=53 v=0
203168 On ch=3 n=22 v=100
203742 On ch=3 n=20 v=100
203744 Off ch=3 n=22 v=0
204063 Off ch=3 n=20 v=0
204503 On ch=3 n=17 v=100
204521 On ch=3 n=12 v=100
204637 Off ch=3 n=12 v=0
204638 Off ch=3 n=17 v=0
204970 On ch=3 n=44 v=100
205009 On ch=3 n=37 v=100
205014 On ch=3 n=24 v=100
205217 Off ch=3 n=44 v=0
205287 Off ch=3 n=24 v=0
205373 Off ch=3 n=37 v=0
206160 On ch=3 n=20 v=100
206448 Off ch=3 n=20 v=0
207013 On ch=3 n=21 v=100
207146 Off ch=3 n=21 v=0
207149 On ch=3 n=22 v=100
207329 On ch=3 n=30 v=100
207611 On ch=3 n=17 v=100
207614 Off ch=3 n=22 v=0
207739 On ch=3 n=31 v=100
207932 Off ch=3 n=30 v=0
208046 On ch=3 n=18 v=100
208109 Off ch=3 n=17 v=0
208193 Off ch=3 n=31 v=0
208264 On ch=3 n=40 v=100
208266 On ch=3 n=24 v=100
208274 On ch=3 n=32 v=100
208276 On ch=3 n=17 v=100
208284 On ch=3 n=4 v=100
208284 Off ch=3 n=18 v=0
208475 On ch=3 n=19 v=100
208475 Off ch=3 n=4 v=0
208500 Off ch=3 n=17 v=0
208533 Off ch=3 n=24 v=0
208576 Off ch=3 n=32 v=0
208609 Off ch=3 n=40 v=0
208626 Off ch=3 n=19 v=0
209176 On ch=3 n=30 v=100
209197 On ch=3 n=29 v=100
209281 Off ch=3 n=30 v=0
209281 Off ch=3 n=29 v=0
210018 On ch=3 n=25 v=100
210199 On ch=3 n=44 v=100
210201 Off ch=3 n=25 v=0
210203 On ch=3 n=33 v=100
210255 Off ch=3 n=33 v=0
210258 Off ch=3 n=44 v=0
210282 On ch=3 n=26 v=100
210962 Off ch=3 n=26 v=0
211257 On ch=3 n=54 v=100
211416 On ch=3 n=48 v=100
211513 Off ch=3 n=54 v=0
211590 Off ch=3 n=48 v=0
212807 On ch=3 n=22 v=100
213605 On ch=3 n=37 v=100
213673 Off ch=3 n=22 v=0
213673 Off ch=3 n=37 v=0
213752 On ch=3 n=22 v=100
213752 On ch=3 n=14 v=100
213752 On ch=3 n=37 v=100
213803 Off ch=3 n=22 v=0
213884 Off ch=3 n=14 v=0
213971 On ch=3 n=50 v=100
214014 On ch=3 n=33 v=100
214022 Off ch=3 n=37 v=0
214025 On ch=3 n=33 v=100
214077 Off ch=3 n=33 v=0
214079 Off ch=3 n=33 v=0
214080 Off ch=3 n=50 v=0
215164 On ch=3 n=20 v=100
215388 Off ch=3 n=20 v=0
219314 On ch=3 n=23 v=100
219321 On ch=3 n=13 v=100
219452 Off ch=3 n=13 v=0
219468 Off ch=3 n=23 v=0
219499 On ch=3 n=39 v=100
219627 Off ch=3 n=39 v=0
219649 On ch=3 n=19 v=100
219706 On ch=3 n=8 v=100
219901 Off ch=3 n=19 v=0
220198 On ch=3 n=8 v=100
220201 Off ch=3 n=8 v=0
220581 Off ch=3 n=8 v=0
220692 On ch=3 n=8 v=100
220717 Off ch=3 n=8 v=0
220983 On ch=3 n=26 v=100
221036 On ch=3 n=11 v=100
221469 Off ch=3 n=26 v=0
221508 Off ch=3 n=11 v=0
221921 On ch=3 n=19 v=100
221984 Off ch=3 n=19 v=0
223950 On ch=3 n=10 v=100
224430 Off ch=3 n=10 v=0
225492 On ch=3 n=22 v=100
225583 On ch=3 n=37 v=100
225605 On ch=3 n=28 v=100
225634 On ch=3 n=31 v=100
225652 On ch=3 n=16 v=100
225654 Off ch=3 n=22 v=0
225698 Off ch=3 n=16 v=0
225698 Off ch=3 n=31 v=0
225701 Off ch=3 n=37 v=0
225701 Off ch=3 n=28 v=0
225705 On ch=3 n=27 v=100
225705 On ch=3 n=27 v=100
225827 On ch=3 n=12 v=100
226106 Off ch=3 n=12 v=0
226119 Off ch=3 n=27 v=0
226119 Off ch=3 n=27 v=0
226226 On ch=3 n=20 v=100
226272 On ch=3 n=15 v=100
226296 On ch=3 n=13 v=100
226415 Off ch=3 n=15 v=0
226417 Off ch=3 n=20 v=0
226435 Off ch=3 n=13 v=0
226679 On ch=3 n=44 v=100
226718 On ch=3 n=10 v=100
226880 Off ch=3 n=44 v=0
227125 On ch=3 n=10 v=100
227170 Off ch=3 n=10 v=0
227193 Off ch=3 n=10 v=0
227210 On ch=3 n=24 v=100
227266 Off ch=3 n=24 v=0
233356 On ch=3 n=48 v=100
233408 On ch=3 n=45 v=100
233465 Off ch=3 n=48 v=0
233465 Off ch=3 n=45 v=0
233526 On ch=3 n=48 v=100
233526 On ch=3 n=45 v=100
233583 Off ch=3 n=48 v=0
233724 Off ch=3 n=45 v=0
243997 On ch=3 n=44 v=100
244142 Off ch=3 n=44 v=0
246815 On ch=3 n=29 v=100
246902 Off ch=3 n=29 v=0
253034 On ch=3 n=39 v=100
253055 On ch=3 n=31 v=100
253226 Off ch=3 n=31 v=0
253228 Off ch=3 n=39 v=0
255487 On ch=3 n=22 v=100
255712 Off ch=3 n=22 v=0
255781 On ch=3 n=22 v=100
255864 On ch=3 n=12 v=100
255864 Off ch=3 n=22 v=0
256085 On ch=3 n=47 v=100
256088 On ch=3 n=9 v=100
256090 Off ch=3 n=12 v=0
256118 On ch=3 n=34 v=100
256184 Off ch=3 n=9 v=0
256187 On ch=3 n=30 v=100
256195 Off ch=3 n=34 v=0
256205 Off ch=3 n=47 v=0
256314 Off ch=3 n=30 v=0
256842 On ch=3 n=28 v=100
257266 Off ch=3 n=28 v=0
257278 On ch=3 n=36 v=100
257451 Off ch=3 n=36 v=0
258867 On ch=3 n=9 v=100
259846 Off ch=3 n=9 v=0
261779 On ch=3 n=14 v=100
261791 On ch=3 n=45 v=100
261891 Off ch=3 n=14 v=0
262067 Off ch=3 n=45 v=0
262736 On ch=3 n=11 v=100
262945 Off ch=3 n=11 v=0
262948 On ch=3 n=7 v=100
262988 On ch=3 n=16 v=100
263006 On ch=3 n=13 v=100
263007 Off ch=3 n=7 v=0
263154 Off ch=3 n=16 v=0
263324 On ch=3 n=13 v=100
263342 Off ch=3 n=13 v=0
263509 Off ch=3 n=13 v=0
263641 On ch=3 n=13 v=100
263785 Off ch=3 n=13 v=0
264983 On ch=3 n=36 v=100
265044 Off ch=3 n=36 v=0
266580 On ch=3 n=21 v=100
267116 Off ch=3 n=21 v=0
267158 On ch=3 n=49 v=100
267316 Off ch=3 n=49 v=0
267576 On ch=3 n=27 v=100
267621 On ch=3 n=19 v=100
267621 On ch=3 n=42 v=100
267674 Off ch=3 n=27 v=0
267692 Off ch=3 n=19 v=0
267711 Off ch=3 n=42 v=0
267975 On ch=3 n=43 v=100
268014 On ch=3 n=27 v=100
268017 On ch=3 n=39 v=100
268047 On ch=3 n=20 v=100
268138 On ch=3 n=22 v=100
268199 Off ch=3 n=43 v=0
268205 Off ch=3 n=27 v=0
268205 Off ch=3 n=20 v=0
268208 On ch=3 n=12 v=100
268210 On ch=3 n=57 v=100
268338 Off ch=3 n=39 v=0
268377 Off ch=3 n=22 v=0
268379 Off ch=3 n=12 v=0
268441 Off ch=3 n=57 v=0
269849 On ch=3 n=24 v=100
269972 Off ch=3 n=24 v=0
270022 On ch=3 n=23 v=100
270228 Off ch=3 n=23 v=0
270417 On ch=3 n=9 v=100
270718 Off ch=3 n=9 v=0
270722 On ch=3 n=15 v=100
271087 Off ch=3 n=15 v=0
271146 On ch=3 n=48 v=100
271158 On ch=3 n=23 v=100
271174 On ch=3 n=14 v=100
271238 Off ch=3 n=48 v=0
271239 Off ch=3 n=14 v=0
271242 Off ch=3 n=23 v=0
271443 On ch=3 n=52 v=100
271559 On ch=3 n=45 v=100
271591 On ch=3 n=31 v=100
271595 On ch=3 n=30 v=100
271672 On ch=3 n=43 v=100
271687 Off ch=3 n=52 v=0
271763 Off ch=3 n=45 v=0
271764 Off ch=3 n=30 v=0
271765 Off ch=3 n=31 v=0
271765 Off ch=3 n=43 v=0
271792 On ch=3 n=31 v=100
271792 On ch=3 n=43 v=100
271816 Off ch=3 n=31 v=0
271846 Off ch=3 n=43 v=0
274778 On ch=3 n=18 v=100
274851 On ch=3 n=17 v=100
274960 On ch=3 n=21 v=100
275012 On ch=3 n=17 v=100
275018 Off ch=3 n=18 v=0
275377 Off ch=3 n=17 v=0
275380 On ch=3 n=15 v=100
275385 On ch=3 n=19 v=100
275435 Off ch=3 n=21 v=0
275457 Off ch=3 n=17 v=0
275539 Off ch=3 n=15 v=0
275564 Off ch=3 n=19 v=0
275636 On ch=3 n=19 v=100
276068 On ch=3 n=31 v=100
276098 Off ch=3 n=19 v=0
276122 Off ch=3 n=31 v=0
277878 On ch=3 n=35 v=100
278223 On ch=3 n=28 v=100
278524 Off ch=3 n=35 v=0
278796 Off ch=3 n=28 v=0
279896 On ch=3 n=24 v=100
280537 Off ch=3 n=24 v=0
283145 On ch=3 n=13 v=100
283400 On ch=3 n=14 v=100
283474 Off ch=3 n=13 v=0
283476 On ch=3 n=30 v=100
283477 On ch=3 n=13 v=100
283484 Off ch=3 n=14 v=0
283519 On ch=3 n=19 v=100
283661 Off ch=3 n=13 v=0
283746 Off ch=3 n=30 v=0
283800 On ch=3 n=12 v=100
283962 On ch=3 n=15 v=100
284185 Off ch=3 n=19 v=0
284250 Off ch=3 n=12 v=0
284266 On ch=3 n=20 v=100
284295 Off ch=3 n=15 v=0
284584 Off ch=3 n=20 v=0
284637 On ch=3 n=6 v=100
284878 Off ch=3 n=6 v=0
287053 On ch=3 n=12 v=100
287440 On ch=3 n=33 v=100
287440 On ch=3 n=33 v=100
287472 On ch=3 n=31 v=100
287541 On ch=3 n=24 v=100
287613 Off ch=3 n=12 v=0
287686 On ch=3 n=30 v=100
287968 Off ch=3 n=31 v=0
287998 Off ch=3 n=33 v=0
287998 Off ch=3 n=33 v=0
288011 Off ch=3 n=24 v=0
288148 On ch=3 n=24 v=100
288287 On ch=3 n=17 v=100
288343 Off ch=3 n=30 v=0
288383 On ch=3 n=35 v=100
288652 Off ch=3 n=24 v=0
288704 Off ch=3 n=17 v=0
288730 On ch=3 n=38 v=100
288865 Off ch=3 n=35 v=0
288900 Off ch=3 n=38 v=0
289065 On ch=3 n=36 v=100
289089 Off ch=3 n=36 v=0
289215 On ch=3 n=36 v=100
289286 Off ch=3 n=36 v=0
292891 On ch=3 n=9 v=100
292977 On ch=3 n=10 v=100
292978 Off ch=3 n=9 v=0
293684 Off ch=3 n=10 v=0
293830 On ch=3 n=9 v=100
293844 On ch=3 n=21 v=100
293848 On ch=3 n=4 v=100
293857 On ch=3 n=51 v=100
293933 On ch=3 n=14 v=100
293963 Off ch=3 n=9 v=0
293963 Off ch=3 n=4 v=0
293981 Off ch=3 n=21 v=0
294047 Off ch=3 n=14 v=0
294109 On ch=3 n=24 v=100
294211 Off ch=3 n=51 v=0
294223 Off ch=3 n=24 v=0
295332 On ch=3 n=40 v=100
295357 On ch=3 n=29 v=100
295416 Off ch=3 n=40 v=0
295457 Off ch=3 n=29 v=0
295871 On ch=3 n=24 v=100
295923 Off ch=3 n=24 v=0
296428 On ch=3 n=35 v=100
296428 On ch=3 n=35 v=100
296472 On ch=3 n=25 v=100
296472 On ch=3 n=25 v=100
296490 On ch=3 n=6 v=100
296675 Off ch=3 n=35 v=0
296675 Off ch=3 n=35 v=0
296688 Off ch=3 n=6 v=0
296700 Off ch=3 n=25 v=0
296700 Off ch=3 n=25 v=0
300554 On ch=3 n=20 v=100
301046 On ch=3 n=54 v=100
301056 On ch=3 n=43 v=100
301078 Off ch=3 n=20 v=0
301127 Off ch=3 n=54 v=0
301136 Off ch=3 n=43 v=0
301502 On ch=3 n=8 v=100
302228 On ch=3 n=21 v=100
302239 Off ch=3 n=8 v=0
302239 Off ch=3 n=21 v=0
302271 On ch=3 n=19 v=100
302271 On ch=3 n=21 v=100
302271 On ch=3 n=24 v=100
302410 Off ch=3 n=19 v=0
302422 Off ch=3 n=21 v=0
302481 Off ch=3 n=24 v=0
303918 On ch=3 n=23 v=100
304384 Off ch=3 n=23 v=0
304817 On ch=3 n=13 v=100
304866 On ch=3 n=7 v=100
305187 Off ch=3 n=13 v=0
305187 Off ch=3 n=7 v=0
305251 On ch=3 n=18 v=100
305312 Off ch=3 n=18 v=0
307929 On ch=3 n=21 v=100
308012 On ch=3 n=20 v=100
308012 On ch=3 n=20 v=100
308265 Off ch=3 n=21 v=0
308323 Off ch=3 n=20 v=0
308323 Off ch=3 n=20 v=0
309120 On ch=3 n=28 v=100
309224 On ch=3 n=19 v=100
309230 On ch=3 n=13 v=100
309368 Off ch=3 n=28 v=0
309602 Off ch=3 n=13 v=0
309677 On ch=3 n=32 v=100
309771 Off ch=3 n=19 v=0
309817 Off ch=3 n=32 v=0
310224 On ch=3 n=10 v=100
310958 Off ch=3 n=10 v=0
311649 On ch=3 n=43 v=100
311780 Off ch=3 n=43 v=0
315064 On ch=3 n=14 v=100
315064 On ch=3 n=25 v=100
315068 On ch=3 n=18 v=100
315141 Off ch=3 n=14 v=0
315154 Off ch=3 n=18 v=0
315170 Off ch=3 n=25 v=0
315204 On ch=3 n=17 v=100
315326 Off ch=3 n=17 v=0
316416 On ch=3 n=30 v=100
316483 Off ch=3 n=30 v=0
316586 On ch=3 n=34 v=100
316648 On ch=3 n=17 v=100
316674 On ch=3 n=25 v=100
316836 Off ch=3 n=34 v=0
316836 Off ch=3 n=17 v=0
316917 Off ch=3 n=25 v=0
317559 On ch=3 n=23 v=100
317625 On ch=3 n=22 v=100
317625 On ch=3 n=22 v=100
317637 On ch=3 n=11 v=100
317993 Off ch=3 n=11 v=0
318042 Off ch=3 n=23 v=0
318217 Off ch=3 n=22 v=0
318217 Off ch=3 n=22 v=0
318929 On ch=3 n=9 v=100
319343 On ch=3 n=18 v=100
319425 Off ch=3 n=9 v=0
319436 Off ch=3 n=18 v=0
320344 On ch=3 n=39 v=100
320371 On ch=3 n=42 v=100
320466 Off ch=3 n=39 v=0
320584 Off ch=3 n=42 v=0
329499 On ch=3 n=36 v=100
329582 Off ch=3 n=36 v=0
331421 On ch=3 n=18 v=100
331507 On ch=3 n=11 v=100
331523 On ch=3 n=18 v=100
331836 Off ch=3 n=18 v=0
331839 Off ch=3 n=11 v=0
331970 Off ch=3 n=18 v=0
332880 On ch=3 n=9 v=100
333773 Off ch=3 n=9 v=0
333953 On ch=3 n=16 v=100
334022 Off ch=3 n=16 v=0
339648 On ch=3 n=48 v=100
339722 Off ch=3 n=48 v=0
341408 On ch=3 n=22 v=100
341578 Off ch=3 n=22 v=0
343908 On ch=3 n=50 v=100
344046 Off ch=3 n=50 v=0
344142 On ch=3 n=50 v=100
344155 On ch=3 n=22 v=100
344183 Off ch=3 n=50 v=0
344186 Off ch=3 n=22 v=0
344233 On ch=3 n=22 v=100
344251 Off ch=3 n=22 v=0
344991 On ch=3 n=19 v=100
345117 Off ch=3 n=19 v=0
345133 On ch=3 n=26 v=100
345135 On ch=3 n=39 v=100
345196 Off ch=3 n=26 v=0
345228 Off ch=3 n=39 v=0
353948 On ch=3 n=14 v=100
354254 Off ch=3 n=14 v=0
368357 On ch=3 n=31 v=100
368447 Off ch=3 n=31 v=0
380606 On ch=3 n=55 v=100
380714 Off ch=3 n=55 v=0
380844 On ch=3 n=55 v=100
380849 On ch=3 n=49 v=100
380896 Off ch=3 n=55 v=0
381062 Off ch=3 n=49 v=0
384659 On ch=3 n=28 v=100
384728 Off ch=3 n=28 v=0
384829 On ch=3 n=28 v=100
384845 On ch=3 n=17 v=100
384870 Off ch=3 n=28 v=0
385519 Off ch=3 n=17 v=0
414952 On ch=3 n=48 v=100
414961 Off ch=3 n=48 v=0
415023 On ch=3 n=48 v=100
415144 Off ch=3 n=48 v=0
428749 On ch=3 n=59 v=100
428756 On ch=3 n=29 v=100
428789 On ch=3 n=7 v=100
428928 Off ch=3 n=29 v=0
428982 Off ch=3 n=7 v=0
428990 Off ch=3 n=59 v=0
428992 On ch=3 n=17 v=100
429141 On ch=3 n=19 v=100
429141 On ch=3 n=19 v=100
429173 On ch=3 n=18 v=100
429208 Off ch=3 n=17 v=0
429250 On ch=3 n=20 v=100
429595 Off ch=3 n=18 v=0
429614 Off ch=3 n=19 v=0
429614 Off ch=3 n=19 v=0
429825 Off ch=3 n=20 v=0
429973 On ch=3 n=21 v=100
430091 Off ch=3 n=21 v=0
430108 On ch=3 n=19 v=100
430144 On ch=3 n=23 v=100
430150 Off ch=3 n=19 v=0
430323 Off ch=3 n=23 v=0
430526 On ch=3 n=25 v=100
430548 On ch=3 n=11 v=100
430622 Off ch=3 n=25 v=0
430759 Off ch=3 n=11 v=0
430819 On ch=3 n=31 v=100
430841 On ch=3 n=8 v=100
430973 Off ch=3 n=31 v=0
431309 On ch=3 n=11 v=100
431343 On ch=3 n=7 v=100
431350 Off ch=3 n=8 v=0
431357 Off ch=3 n=11 v=0
431572 Off ch=3 n=7 v=0
435641 On ch=3 n=8 v=100
436040 Off ch=3 n=8 v=0
442145 On ch=3 n=12 v=100
442329 On ch=3 n=25 v=100
442753 Off ch=3 n=12 v=0
442753 Off ch=3 n=25 v=0
442842 On ch=3 n=12 v=100
442842 On ch=3 n=34 v=100
442842 On ch=3 n=25 v=100
442888 Off ch=3 n=12 v=0
443262 Off ch=3 n=25 v=0
443489 Off ch=3 n=34 v=0
447517 On ch=3 n=20 v=100
447542 On ch=3 n=10 v=100
447633 Off ch=3 n=20 v=0
447913 On ch=3 n=37 v=100
448039 Off ch=3 n=10 v=0
448098 Off ch=3 n=37 v=0
448302 On ch=3 n=13 v=100
448333 Off ch=3 n=13 v=0
449991 On ch=3 n=47 v=100
450264 Off ch=3 n=47 v=0
450486 On ch=3 n=28 v=100
450596 Off ch=3 n=28 v=0
452622 On ch=3 n=34 v=100
452771 Off ch=3 n=34 v=0
452832 On ch=3 n=31 v=100
453081 Off ch=3 n=31 v=0
453961 On ch=3 n=28 v=100
454222 Off ch=3 n=28 v=0
455702 On ch=3 n=20 v=100
455812 Off ch=3 n=20 v=0
456494 On ch=3 n=62 v=100
456605 On ch=3 n=59 v=100
456690 Off ch=3 n=62 v=0
456750 On ch=3 n=11 v=100
456760 On ch=3 n=20 v=100
456835 Off ch=3 n=59 v=0
456947 Off ch=3 n=11 v=0
456975 Off ch=3 n=20 v=0
458688 On ch=3 n=7 v=100
459255 On ch=3 n=27 v=100
459265 Off ch=3 n=7 v=0
459267 On ch=3 n=41 v=100
459273 On ch=3 n=7 v=100
459316 On ch=3 n=47 v=100
459449 Off ch=3 n=7 v=0
459458 Off ch=3 n=27 v=0
459491 Off ch=3 n=41 v=0
459497 On ch=3 n=18 v=100
459539 Off ch=3 n=47 v=0
459757 Off ch=3 n=18 v=0
459930 On ch=3 n=45 v=100
459961 On ch=3 n=10 v=100
460022 Off ch=3 n=45 v=0
460617 Off ch=3 n=10 v=0
460668 On ch=3 n=37 v=100
460844 Off ch=3 n=37 v=0
463619 On ch=3 n=21 v=100
463673 Off ch=3 n=21 v=0
466250 On ch=3 n=41 v=100
466341 On ch=3 n=9 v=100
466478 Off ch=3 n=41 v=0
466817 Off ch=3 n=9 v=0
467747 On ch=3 n=21 v=100
467792 Off ch=3 n=21 v=0
468282 On ch=3 n=28 v=100
468348 Off ch=3 n=28 v=0
468798 On ch=3 n=19 v=100
468866 Off ch=3 n=19 v=0
468869 On ch=3 n=20 v=100
468906 Off ch=3 n=20 v=0
470247 On ch=3 n=15 v=100
470502 Off ch=3 n=15 v=0
473554 On ch=3 n=32 v=100
473628 On ch=3 n=16 v=100
473741 Off ch=3 n=32 v=0
473969 Off ch=3 n=16 v=0
473971 On ch=3 n=11 v=100
474561 On ch=3 n=14 v=100
474562 Off ch=3 n=11 v=0
474707 Off ch=3 n=14 v=0
474732 On ch=3 n=8 v=100
474795 On ch=3 n=13 v=100
474843 Off ch=3 n=8 v=0
474858 Off ch=3 n=13 v=0
475903 On ch=3 n=15 v=100
476301 On ch=3 n=5 v=100
476329 Off ch=3 n=15 v=0
476837 Off ch=3 n=5 v=0
476846 On ch=3 n=10 v=100
477203 Off ch=3 n=10 v=0
477205 On ch=3 n=3 v=100
477351 On ch=3 n=10 v=100
477384 Off ch=3 n=3 v=0
477917 On ch=3 n=6 v=100
477926 Off ch=3 n=10 v=0
478379 Off ch=3 n=6 v=0
480283 On ch=3 n=4 v=100
480404 On ch=3 n=22 v=100
480463 Off ch=3 n=4 v=0
480463 Off ch=3 n=22 v=0
480517 On ch=3 n=22 v=100
480517 On ch=3 n=3 v=100
480553 Off ch=3 n=22 v=0
481270 Off ch=3 n=3 v=0
481271 On ch=3 n=9 v=100
481536 Off ch=3 n=9 v=0
485669 On ch=3 n=25 v=100
485670 On ch=3 n=36 v=100
485715 On ch=3 n=31 v=100
485863 Off ch=3 n=25 v=0
485873 On ch=3 n=26 v=100
485949 Off ch=3 n=36 v=0
485960 Off ch=3 n=31 v=0
486097 On ch=3 n=18 v=100
486273 On ch=3 n=39 v=100
486345 Off ch=3 n=26 v=0
486373 Off ch=3 n=18 v=0
486397 Off ch=3 n=39 v=0
491745 On ch=3 n=41 v=100
491864 Off ch=3 n=41 v=0
494481 On ch=3 n=26 v=100
494632 On ch=3 n=29 v=100
494638 Off ch=3 n=26 v=0
494791 Off ch=3 n=29 v=0
495806 On ch=3 n=5 v=100
496436 Off ch=3 n=5 v=0
496439 On ch=3 n=6 v=100
498172 Off ch=3 n=6 v=0
498624 On ch=3 n=38 v=100
499104 Off ch=3 n=38 v=0
499116 On ch=3 n=35 v=100
499234 On ch=3 n=33 v=100
499317 Off ch=3 n=35 v=0
499414 Off ch=3 n=33 v=0
502971 On ch=3 n=29 v=100
503049 Off ch=3 n=29 v=0
505082 On ch=3 n=7 v=100
505881 Off ch=3 n=7 v=0
505890 On ch=3 n=9 v=100
506536 Off ch=3 n=9 v=0
506539 On ch=3 n=3 v=100
506594 Off ch=3 n=3 v=0
506979 On ch=3 n=22 v=100
507198 Off ch=3 n=22 v=0
509132 On ch=3 n=44 v=100
509245 Off ch=3 n=44 v=0
510009 On ch=3 n=22 v=100
510056 Off ch=3 n=22 v=0
510420 On ch=3 n=13 v=100
510500 Off ch=3 n=13 v=0
511307 On ch=3 n=28 v=100
511413 Off ch=3 n=28 v=0
511561 On ch=3 n=37 v=100
511800 Off ch=3 n=37 v=0
511847 On ch=3 n=13 v=100
511897 Off ch=3 n=13 v=0
511908 On ch=3 n=18 v=100
512018 Off ch=3 n=18 v=0
512174 On ch=3 n=7 v=100
512382 Off ch=3 n=7 v=0
512396 On ch=3 n=9 v=100
512863 Off ch=3 n=9 v=0
512869 On ch=3 n=34 v=100
513012 Off ch=3 n=34 v=0
513106 On ch=3 n=36 v=100
513115 On ch=3 n=34 v=100
513172 Off ch=3 n=36 v=0
513176 Off ch=3 n=34 v=0
515061 On ch=3 n=54 v=100
515263 Off ch=3 n=54 v=0
516272 On ch=3 n=29 v=100
516390 Off ch=3 n=29 v=0
517256 On ch=3 n=12 v=100
517490 Off ch=3 n=12 v=0
518639 On ch=3 n=11 v=100
518846 On ch=3 n=29 v=100
518965 On ch=3 n=17 v=100
519051 Off ch=3 n=11 v=0
519089 On ch=3 n=29 v=100
519090 On ch=3 n=13 v=100
519095 On ch=3 n=17 v=100
519437 Off ch=3 n=17 v=0
519439 Off ch=3 n=29 v=0
519475 Off ch=3 n=13 v=0
519535 Off ch=3 n=17 v=0
519698 Off ch=3 n=29 v=0
519917 On ch=3 n=12 v=100
520018 On ch=3 n=22 v=100
520143 Off ch=3 n=12 v=0
520158 Off ch=3 n=22 v=0
527789 On ch=3 n=33 v=100
527805 On ch=3 n=26 v=100
527906 Off ch=3 n=33 v=0
527970 Off ch=3 n=26 v=0
528063 On ch=3 n=24 v=100
528430 Off ch=3 n=24 v=0
530476 On ch=3 n=17 v=100
530670 Off ch=3 n=17 v=0
531621 On ch=3 n=9 v=100
531968 Off ch=3 n=9 v=0
531976 On ch=3 n=11 v=100
532396 Off ch=3 n=11 v=0
532399 On ch=3 n=32 v=100
532538 Off ch=3 n=32 v=0
534955 On ch=3 n=6 v=100
535066 Off ch=3 n=6 v=0
535134 On ch=3 n=42 v=100
535141 On ch=3 n=21 v=100
535387 Off ch=3 n=21 v=0
535434 Off ch=3 n=42 v=0
535463 On ch=3 n=30 v=100
535679 On ch=3 n=21 v=100
535692 On ch=3 n=9 v=100
535692 Off ch=3 n=30 v=0
535792 Off ch=3 n=21 v=0
536382 Off ch=3 n=9 v=0
536991 On ch=3 n=47 v=100
537305 Off ch=3 n=47 v=0
539501 On ch=3 n=10 v=100
540695 Off ch=3 n=10 v=0
542566 On ch=3 n=41 v=100
542648 Off ch=3 n=41 v=0
542705 On ch=3 n=18 v=100
542950 Off ch=3 n=18 v=0
542995 On ch=3 n=16 v=100
542995 On ch=3 n=18 v=100
543228 Off ch=3 n=16 v=0
543261 Off ch=3 n=18 v=0
543354 On ch=3 n=10 v=100
543744 On ch=3 n=12 v=100
543890 Off ch=3 n=10 v=0
544007 Off ch=3 n=12 v=0
544119 On ch=3 n=21 v=100
544183 Off ch=3 n=21 v=0
545049 On ch=3 n=36 v=100
545234 On ch=3 n=35 v=100
545330 Off ch=3 n=36 v=0
545390 Off ch=3 n=35 v=0
546328 On ch=3 n=6 v=100
546408 Off ch=3 n=6 v=0
547343 On ch=3 n=7 v=100
547549 Off ch=3 n=7 v=0
556205 On ch=3 n=24 v=100
556237 On ch=3 n=20 v=100
556367 Off ch=3 n=24 v=0
556367 Off ch=3 n=20 v=0
558345 On ch=3 n=54 v=100
558461 On ch=3 n=34 v=100
558495 On ch=3 n=34 v=100
558630 Off ch=3 n=54 v=0
558631 Off ch=3 n=34 v=0
558633 Off ch=3 n=34 v=0
562474 On ch=3 n=8 v=100
562962 Off ch=3 n=8 v=0
564725 On ch=3 n=11 v=100
564885 Off ch=3 n=11 v=0
564906 On ch=3 n=6 v=100
564969 Off ch=3 n=6 v=0
564977 On ch=3 n=9 v=100
565056 On ch=3 n=12 v=100
565056 Off ch=3 n=9 v=0
565277 On ch=3 n=41 v=100
565464 On ch=3 n=13 v=100
565465 Off ch=3 n=12 v=0
565782 Off ch=3 n=41 v=0
565782 Off ch=3 n=13 v=0
565784 On ch=3 n=14 v=100
565898 On ch=3 n=19 v=100
565899 Off ch=3 n=14 v=0
567042 Off ch=3 n=19 v=0
567049 On ch=3 n=13 v=100
567584 Off ch=3 n=13 v=0
569640 On ch=3 n=22 v=100
569705 On ch=3 n=10 v=100
569792 Off ch=3 n=22 v=0
569967 Off ch=3 n=10 v=0
570070 On ch=3 n=10 v=100
570287 On ch=3 n=46 v=100
570365 Off ch=3 n=10 v=0
570474 Off ch=3 n=46 v=0
570761 On ch=3 n=37 v=100
570780 On ch=3 n=20 v=100
570857 Off ch=3 n=37 v=0
571029 Off ch=3 n=20 v=0
571031 On ch=3 n=19 v=100
571185 Off ch=3 n=19 v=0
571640 On ch=3 n=39 v=100
571664 On ch=3 n=42 v=100
571736 Off ch=3 n=39 v=0
571747 Off ch=3 n=42 v=0
572006 On ch=3 n=16 v=100
572734 Off ch=3 n=16 v=0
572939 On ch=3 n=43 v=100
573021 Off ch=3 n=43 v=0
573059 On ch=3 n=20 v=100
573512 Off ch=3 n=20 v=0
573562 On ch=3 n=20 v=100
573724 Off ch=3 n=20 v=0
573904 On ch=3 n=9 v=100
574591 Off ch=3 n=9 v=0
574600 On ch=3 n=4 v=100
575333 On ch=3 n=19 v=100
575343 Off ch=3 n=4 v=0
575343 Off ch=3 n=19 v=0
575390 On ch=3 n=3 v=100
575391 On ch=3 n=19 v=100
575451 Off ch=3 n=19 v=0
576038 On ch=3 n=14 v=100
576038 Off ch=3 n=3 v=0
576196 Off ch=3 n=14 v=0
576227 On ch=3 n=14 v=100
576451 On ch=3 n=11 v=100
576515 Off ch=3 n=14 v=0
576525 Off ch=3 n=11 v=0
577470 On ch=3 n=16 v=100
577537 Off ch=3 n=16 v=0
578074 On ch=3 n=33 v=100
578092 On ch=3 n=40 v=100
578162 Off ch=3 n=33 v=0
578162 Off ch=3 n=40 v=0
578267 On ch=3 n=33 v=100
578267 On ch=3 n=55 v=100
578267 On ch=3 n=40 v=100
578267 On ch=3 n=1 v=100
578279 Off ch=3 n=33 v=0
578333 Off ch=3 n=40 v=0
578372 Off ch=3 n=55 v=0
578983 On ch=3 n=20 v=100
578999 On ch=3 n=8 v=100
578999 On ch=3 n=8 v=100
579010 On ch=3 n=15 v=100
579015 Off ch=3 n=1 v=0
579085 On ch=3 n=24 v=100
579085 On ch=3 n=24 v=100
579345 On ch=3 n=2 v=100
579347 Off ch=3 n=8 v=0
579347 Off ch=3 n=8 v=0
579399 Off ch=3 n=15 v=0
579436 Off ch=3 n=20 v=0
579514 Off ch=3 n=24 v=0
579514 Off ch=3 n=24 v=0
580039 Off ch=3 n=2 v=0
580069 On ch=3 n=2 v=100
580219 On ch=3 n=25 v=100
580231 Off ch=3 n=2 v=0
580231 Off ch=3 n=25 v=0
580302 On ch=3 n=25 v=100
580385 Off ch=3 n=25 v=0
580462 On ch=3 n=25 v=100
580559 Off ch=3 n=25 v=0
581665 On ch=3 n=37 v=100
581861 Off ch=3 n=37 v=0
581865 On ch=3 n=7 v=100
581932 Off ch=3 n=7 v=0
582910 On ch=3 n=38 v=100
582969 On ch=3 n=31 v=100
582969 On ch=3 n=31 v=100
582984 On ch=3 n=31 v=100
583071 Off ch=3 n=38 v=0
583078 On ch=3 n=45 v=100
583078 On ch=3 n=45 v=100
583122 On ch=3 n=26 v=100
583122 On ch=3 n=26 v=100
583128 On ch=3 n=17 v=100
583216 Off ch=3 n=31 v=0
583234 Off ch=3 n=31 v=0
583234 Off ch=3 n=31 v=0
583305 On ch=3 n=39 v=100
583305 On ch=3 n=39 v=100
583348 Off ch=3 n=45 v=0
583348 Off ch=3 n=45 v=0
583420 Off ch=3 n=17 v=0
583426 On ch=3 n=33 v=100
583455 Off ch=3 n=26 v=0
583455 Off ch=3 n=26 v=0
583502 Off ch=3 n=39 v=0
583502 Off ch=3 n=39 v=0
583615 Off ch=3 n=33 v=0
583721 On ch=3 n=9 v=100
583855 On ch=3 n=56 v=100
584291 On ch=3 n=10 v=100
584293 Off ch=3 n=9 v=0
584736 On ch=3 n=30 v=100
584796 Off ch=3 n=56 v=0
584811 Off ch=3 n=10 v=0
584896 Off ch=3 n=30 v=0
585695 On ch=3 n=26 v=100
585851 Off ch=3 n=26 v=0
585935 On ch=3 n=34 v=100
586056 Off ch=3 n=34 v=0
586222 On ch=3 n=6 v=100
586250 Off ch=3 n=6 v=0
586255 On ch=3 n=24 v=100
586479 Off ch=3 n=24 v=0
586576 On ch=3 n=27 v=100
586830 On ch=3 n=19 v=100
586936 On ch=3 n=29 v=100
587202 On ch=3 n=32 v=100
587211 Off ch=3 n=27 v=0
587314 Off ch=3 n=19 v=0
587456 Off ch=3 n=29 v=0
587679 Off ch=3 n=32 v=0
588449 On ch=3 n=11 v=100
588834 Off ch=3 n=11 v=0
589173 On ch=3 n=9 v=100
589332 Off ch=3 n=9 v=0
589375 On ch=3 n=9 v=100
589648 Off ch=3 n=9 v=0
591353 On ch=3 n=6 v=100
591484 Off ch=3 n=6 v=0
591865 On ch=3 n=28 v=100
592275 On ch=3 n=31 v=100
592373 Off ch=3 n=28 v=0
592431 Off ch=3 n=31 v=0
592605 On ch=3 n=26 v=100
592605 On ch=3 n=26 v=100
592619 On ch=3 n=21 v=100
592752 Off ch=3 n=21 v=0
592830 Off ch=3 n=26 v=0
592830 Off ch=3 n=26 v=0
593542 On ch=3 n=21 v=100
593578 On ch=3 n=30 v=100
593581 On ch=3 n=17 v=100
593746 Off ch=3 n=21 v=0
593753 Off ch=3 n=17 v=0
593820 Off ch=3 n=30 v=0
594011 On ch=3 n=28 v=100
594140 On ch=3 n=27 v=100
594210 On ch=3 n=29 v=100
594263 Off ch=3 n=28 v=0
594313 On ch=3 n=25 v=100
594768 Off ch=3 n=29 v=0
594776 Off ch=3 n=27 v=0
594801 Off ch=3 n=25 v=0
594940 On ch=3 n=30 v=100
595011 Off ch=3 n=30 v=0
595034 On ch=3 n=30 v=100
595228 Off ch=3 n=30 v=0
597232 On ch=3 n=21 v=100
597341 On ch=3 n=26 v=100
597365 Off ch=3 n=21 v=0
597440 Off ch=3 n=26 v=0
597841 On ch=3 n=14 v=100
597995 Off ch=3 n=14 v=0
598677 On ch=3 n=43 v=100
598759 Off ch=3 n=43 v=0
600552 On ch=3 n=15 v=100
600564 On ch=3 n=11 v=100
600694 On ch=3 n=9 v=100
600875 Off ch=3 n=15 v=0
600926 Off ch=3 n=9 v=0
600934 Off ch=3 n=11 v=0
604943 On ch=3 n=24 v=100
605061 Off ch=3 n=24 v=0
606168 On ch=3 n=35 v=100
606189 On ch=3 n=33 v=100
606239 On ch=3 n=17 v=100
606278 Off ch=3 n=35 v=0
606278 Off ch=3 n=33 v=0
606278 Off ch=3 n=17 v=0
606339 On ch=3 n=33 v=100
606339 On ch=3 n=17 v=100
606503 Off ch=3 n=33 v=0
606571 Off ch=3 n=17 v=0
608673 On ch=3 n=18 v=100
608843 On ch=3 n=22 v=100
608843 On ch=3 n=22 v=100
608990 On ch=3 n=50 v=100
609045 On ch=3 n=42 v=100
609045 On ch=3 n=42 v=100
609049 On ch=3 n=47 v=100
609056 On ch=3 n=37 v=100
609062 On ch=3 n=18 v=100
609062 Off ch=3 n=18 v=0
609127 Off ch=3 n=22 v=0
609127 Off ch=3 n=22 v=0
609217 Off ch=3 n=18 v=0
609223 Off ch=3 n=50 v=0
609231 Off ch=3 n=37 v=0
609269 Off ch=3 n=42 v=0
609269 Off ch=3 n=42 v=0
609316 Off ch=3 n=47 v=0
610010 On ch=3 n=20 v=100
610106 On ch=3 n=11 v=100
610414 Off ch=3 n=11 v=0
610419 Off ch=3 n=20 v=0
612089 On ch=3 n=6 v=100
612580 Off ch=3 n=6 v=0
612583 On ch=3 n=6 v=100
613341 Off ch=3 n=6 v=0
613348 On ch=3 n=6 v=100
613940 Off ch=3 n=6 v=0
615867 On ch=3 n=20 v=100
615918 On ch=3 n=29 v=100
616007 Off ch=3 n=20 v=0
616007 Off ch=3 n=29 v=0
616154 On ch=3 n=20 v=100
616154 On ch=3 n=19 v=100
616154 On ch=3 n=29 v=100
616375 Off ch=3 n=20 v=0
616425 Off ch=3 n=19 v=0
616451 Off ch=3 n=29 v=0
616748 On ch=3 n=11 v=100
616949 Off ch=3 n=11 v=0
618381 On ch=3 n=31 v=100
618623 On ch=3 n=29 v=100
618686 Off ch=3 n=31 v=0
618726 Off ch=3 n=29 v=0
620811 On ch=3 n=40 v=100
620848 On ch=3 n=35 v=100
620859 On ch=3 n=34 v=100
620953 On ch=3 n=41 v=100
620971 Off ch=3 n=40 v=0
621082 Off ch=3 n=35 v=0
621110 Off ch=3 n=34 v=0
621136 Off ch=3 n=41 v=0
621245 On ch=3 n=42 v=100
621367 Off ch=3 n=42 v=0
621550 On ch=3 n=25 v=100
621662 On ch=3 n=21 v=100
621664 Off ch=3 n=25 v=0
621770 On ch=3 n=12 v=100
621792 Off ch=3 n=21 v=0
622106 On ch=3 n=22 v=100
622435 Off ch=3 n=12 v=0
622843 Off ch=3 n=22 v=0
622910 On ch=3 n=24 v=100
623095 Off ch=3 n=24 v=0
625690 On ch=3 n=12 v=100
625769 Off ch=3 n=12 v=0
625960 On ch=3 n=10 v=100
626619 Off ch=3 n=10 v=0
629981 On ch=3 n=31 v=100
630492 Off ch=3 n=31 v=0
631679 On ch=3 n=17 v=100
631815 On ch=3 n=8 v=100
631815 Off ch=3 n=17 v=0
631967 On ch=3 n=14 v=100
631969 Off ch=3 n=8 v=0
632619 On ch=3 n=10 v=100
632619 Off ch=3 n=14 v=0
633275 Off ch=3 n=10 v=0
633297 On ch=3 n=20 v=100
633580 Off ch=3 n=20 v=0
634998 On ch=3 n=25 v=100
635045 On ch=3 n=14 v=100
635045 On ch=3 n=41 v=100
635174 Off ch=3 n=25 v=0
635178 Off ch=3 n=14 v=0
635260 Off ch=3 n=41 v=0
635591 On ch=3 n=5 v=100
635644 Off ch=3 n=5 v=0
635647 On ch=3 n=8 v=100
636004 On ch=3 n=35 v=100
636086 Off ch=3 n=8 v=0
636213 On ch=3 n=16 v=100
636343 Off ch=3 n=16 v=0
636397 Off ch=3 n=35 v=0
637007 On ch=3 n=31 v=100
637289 Off ch=3 n=31 v=0
637304 On ch=3 n=26 v=100
637868 Off ch=3 n=26 v=0
637990 On ch=3 n=36 v=100
638019 On ch=3 n=30 v=100
638218 On ch=3 n=34 v=100
638250 Off ch=3 n=36 v=0
638251 Off ch=3 n=30 v=0
638256 Off ch=3 n=34 v=0
638325 On ch=3 n=34 v=100
638528 Off ch=3 n=34 v=0
639306 On ch=3 n=22 v=100
639541 On ch=3 n=19 v=100
639544 Off ch=3 n=22 v=0
639624 On ch=3 n=20 v=100
639720 Off ch=3 n=19 v=0
639732 Off ch=3 n=20 v=0
639926 On ch=3 n=11 v=100
639933 On ch=3 n=28 v=100
640361 Off ch=3 n=11 v=0
640419 Off ch=3 n=28 v=0
640521 On ch=3 n=28 v=100
640590 On ch=3 n=9 v=100
640604 Off ch=3 n=28 v=0
640765 Off ch=3 n=9 v=0
640768 On ch=3 n=27 v=100
641011 Off ch=3 n=27 v=0
642566 On ch=3 n=7 v=100
642613 Off ch=3 n=7 v=0
642615 On ch=3 n=15 v=100
642771 Off ch=3 n=15 v=0
642887 On ch=3 n=12 v=100
643054 Off ch=3 n=12 v=0
643092 On ch=3 n=18 v=100
643476 Off ch=3 n=18 v=0
644184 On ch=3 n=18 v=100
644334 Off ch=3 n=18 v=0
644340 On ch=3 n=25 v=100
644394 Off ch=3 n=25 v=0
644436 On ch=3 n=16 v=100
644586 Off ch=3 n=16 v=0
645011 On ch=3 n=8 v=100
645120 On ch=3 n=31 v=100
645120 On ch=3 n=31 v=100
645170 On ch=3 n=49 v=100
645170 On ch=3 n=49 v=100
645218 On ch=3 n=22 v=100
645218 On ch=3 n=22 v=100
645221 Off ch=3 n=8 v=0
645224 On ch=3 n=22 v=100
645283 Off ch=3 n=31 v=0
645283 Off ch=3 n=31 v=0
645380 On ch=3 n=13 v=100
645384 Off ch=3 n=49 v=0
645384 Off ch=3 n=49 v=0
645385 Off ch=3 n=22 v=0
645417 Off ch=3 n=22 v=0
645417 Off ch=3 n=22 v=0
645741 On ch=3 n=35 v=100
645777 Off ch=3 n=13 v=0
645779 On ch=3 n=25 v=100
645779 On ch=3 n=25 v=100
645807 On ch=3 n=23 v=100
645914 On ch=3 n=38 v=100
646067 Off ch=3 n=23 v=0
646084 Off ch=3 n=25 v=0
646084 Off ch=3 n=25 v=0
646090 Off ch=3 n=35 v=0
646116 Off ch=3 n=38 v=0
647245 On ch=3 n=34 v=100
647245 On ch=3 n=34 v=100
647375 On ch=3 n=9 v=100
647915 Off ch=3 n=9 v=0
647928 Off ch=3 n=34 v=0
647928 Off ch=3 n=34 v=0
647941 On ch=3 n=9 v=100
648178 Off ch=3 n=9 v=0
649560 On ch=3 n=18 v=100
649797 Off ch=3 n=18 v=0
650292 On ch=3 n=19 v=100
650441 Off ch=3 n=19 v=0
650452 On ch=3 n=12 v=100
650956 On ch=3 n=21 v=100
650956 Off ch=3 n=12 v=0
650999 Off ch=3 n=21 v=0
652276 On ch=3 n=17 v=100
652294 On ch=3 n=17 v=100
652389 Off ch=3 n=17 v=0
652740 Off ch=3 n=17 v=0
653251 On ch=3 n=24 v=100
653347 Off ch=3 n=24 v=0
653482 On ch=3 n=16 v=100
653567 Off ch=3 n=16 v=0
654778 On ch=3 n=14 v=100
654960 On ch=3 n=12 v=100
654962 Off ch=3 n=14 v=0
655467 Off ch=3 n=12 v=0
657032 On ch=3 n=33 v=100
657190 Off ch=3 n=33 v=0
657706 On ch=3 n=15 v=100
657874 Off ch=3 n=15 v=0
658724 On ch=3 n=24 v=100
659124 On ch=3 n=17 v=100
659342 Off ch=3 n=24 v=0
659389 Off ch=3 n=17 v=0
659599 On ch=3 n=8 v=100
660214 Off ch=3 n=8 v=0
660289 On ch=3 n=23 v=100
660396 On ch=3 n=11 v=100
660478 On ch=3 n=27 v=100
660608 Off ch=3 n=23 v=0
660651 Off ch=3 n=11 v=0
660659 On ch=3 n=13 v=100
660677 Off ch=3 n=27 v=0
661444 On ch=3 n=35 v=100
661454 Off ch=3 n=13 v=0
661460 On ch=3 n=21 v=100
661506 Off ch=3 n=35 v=0
661573 Off ch=3 n=21 v=0
663207 On ch=3 n=28 v=100
663548 On ch=3 n=20 v=100
663589 On ch=3 n=18 v=100
663594 Off ch=3 n=28 v=0
663595 On ch=3 n=14 v=100
663606 On ch=3 n=25 v=100
663785 Off ch=3 n=20 v=0
663828 Off ch=3 n=14 v=0
663872 Off ch=3 n=18 v=0
663910 Off ch=3 n=25 v=0
663986 On ch=3 n=52 v=100
664034 On ch=3 n=44 v=100
664064 On ch=3 n=46 v=100
664190 Off ch=3 n=52 v=0
664237 Off ch=3 n=44 v=0
664261 Off ch=3 n=46 v=0
665125 On ch=3 n=23 v=100
665203 Off ch=3 n=23 v=0
665383 On ch=3 n=27 v=100
665385 On ch=3 n=23 v=100
665759 Off ch=3 n=23 v=0
665847 Off ch=3 n=27 v=0
666134 On ch=3 n=11 v=100
666592 Off ch=3 n=11 v=0
666593 On ch=3 n=6 v=100
667151 On ch=3 n=21 v=100
667158 Off ch=3 n=6 v=0
667280 Off ch=3 n=21 v=0
668043 On ch=3 n=17 v=100
668194 On ch=3 n=17 v=100
668237 On ch=3 n=5 v=100
668242 Off ch=3 n=17 v=0
668373 On ch=3 n=8 v=100
668379 Off ch=3 n=17 v=0
668389 Off ch=3 n=5 v=0
668945 Off ch=3 n=8 v=0
669071 On ch=3 n=38 v=100
669300 On ch=3 n=20 v=100
669304 On ch=3 n=25 v=100
669304 On ch=3 n=25 v=100
669352 On ch=3 n=15 v=100
669355 On ch=3 n=23 v=100
669650 Off ch=3 n=38 v=0
669688 Off ch=3 n=20 v=0
669696 Off ch=3 n=15 v=0
669748 Off ch=3 n=25 v=0
669748 Off ch=3 n=25 v=0
669814 Off ch=3 n=23 v=0
671528 On ch=3 n=11 v=100
671954 Off ch=3 n=11 v=0
672411 On ch=3 n=36 v=100
672415 On ch=3 n=15 v=100
672483 On ch=3 n=40 v=100
672483 On ch=3 n=40 v=100
672559 On ch=3 n=26 v=100
672559 On ch=3 n=26 v=100
672567 Off ch=3 n=15 v=0
672639 On ch=3 n=36 v=100
672639 On ch=3 n=36 v=100
672648 Off ch=3 n=36 v=0
672649 On ch=3 n=5 v=100
672836 Off ch=3 n=40 v=0
672836 Off ch=3 n=40 v=0
672841 Off ch=3 n=5 v=0
672842 On ch=3 n=16 v=100
672853 Off ch=3 n=26 v=0
672853 Off ch=3 n=26 v=0
672956 Off ch=3 n=36 v=0
672956 Off ch=3 n=36 v=0
672973 Off ch=3 n=16 v=0
673178 On ch=3 n=42 v=100
673360 Off ch=3 n=42 v=0
673460 On ch=3 n=32 v=100
673489 On ch=3 n=35 v=100
673627 Off ch=3 n=35 v=0
673629 Off ch=3 n=32 v=0
674647 On ch=3 n=11 v=100
674843 Off ch=3 n=11 v=0
674900 On ch=3 n=11 v=100
675232 Off ch=3 n=11 v=0
676340 On ch=3 n=16 v=100
677067 Off ch=3 n=16 v=0
677624 On ch=3 n=10 v=100
677929 Off ch=3 n=10 v=0
677976 On ch=3 n=10 v=100
678014 On ch=3 n=17 v=100
678079 Off ch=3 n=10 v=0
678093 Off ch=3 n=17 v=0
678599 On ch=3 n=29 v=100
678781 Off ch=3 n=29 v=0
678948 On ch=3 n=12 v=100
679127 Off ch=3 n=12 v=0
679133 On ch=3 n=3 v=100
679211 Off ch=3 n=3 v=0
682996 On ch=3 n=35 v=100
683044 On ch=3 n=5 v=100
683211 On ch=3 n=22 v=100
683294 Off ch=3 n=5 v=0
683297 Off ch=3 n=35 v=0
683579 Off ch=3 n=22 v=0
683840 On ch=3 n=20 v=100
684023 Off ch=3 n=20 v=0
685471 On ch=3 n=15 v=100
685682 On ch=3 n=11 v=100
685689 Off ch=3 n=15 v=0
686354 Off ch=3 n=11 v=0
687762 On ch=3 n=11 v=100
687762 On ch=3 n=26 v=100
687842 Off ch=3 n=11 v=0
687860 On ch=3 n=11 v=100
687863 Off ch=3 n=26 v=0
688208 On ch=3 n=30 v=100
688345 Off ch=3 n=11 v=0
688364 Off ch=3 n=30 v=0
688492 On ch=3 n=6 v=100
688981 Off ch=3 n=6 v=0
690357 On ch=3 n=10 v=100
690545 Off ch=3 n=10 v=0
690549 On ch=3 n=5 v=100
690757 Off ch=3 n=5 v=0
690862 On ch=3 n=16 v=100
690862 On ch=3 n=26 v=100
690982 On ch=3 n=31 v=100
690984 On ch=3 n=21 v=100
690985 Off ch=3 n=16 v=0
691005 Off ch=3 n=26 v=0
691357 Off ch=3 n=21 v=0
691445 On ch=3 n=34 v=100
691472 Off ch=3 n=31 v=0
691473 On ch=3 n=19 v=100
691658 Off ch=3 n=34 v=0
691660 Off ch=3 n=19 v=0
691819 On ch=3 n=23 v=100
692468 Off ch=3 n=23 v=0
692478 On ch=3 n=20 v=100
692601 Off ch=3 n=20 v=0
693535 On ch=3 n=21 v=100
693928 Off ch=3 n=21 v=0
693956 On ch=3 n=36 v=100
694076 Off ch=3 n=36 v=0
694108 On ch=3 n=5 v=100
694939 On ch=3 n=19 v=100
694939 Off ch=3 n=5 v=0
695435 Off ch=3 n=19 v=0
695437 On ch=3 n=11 v=100
696340 On ch=3 n=7 v=100
696343 Off ch=3 n=11 v=0
696346 On ch=3 n=8 v=100
696383 Off ch=3 n=8 v=0
696400 Off ch=3 n=7 v=0
697741 On ch=3 n=20 v=100
697746 On ch=3 n=27 v=100
697746 On ch=3 n=27 v=100
697788 On ch=3 n=16 v=100
698078 On ch=3 n=29 v=100
698147 Off ch=3 n=20 v=0
698167 Off ch=3 n=16 v=0
698197 Off ch=3 n=27 v=0
698197 Off ch=3 n=27 v=0
698300 Off ch=3 n=29 v=0
698426 On ch=3 n=16 v=100
699064 Off ch=3 n=16 v=0
699160 On ch=3 n=28 v=100
699258 Off ch=3 n=28 v=0
700543 On ch=3 n=34 v=100
700760 Off ch=3 n=34 v=0
701210 On ch=3 n=26 v=100
701210 On ch=3 n=26 v=100
701425 Off ch=3 n=26 v=0
701425 Off ch=3 n=26 v=0
701568 On ch=3 n=11 v=100
701821 Off ch=3 n=11 v=0
703559 On ch=3 n=6 v=100
704597 Off ch=3 n=6 v=0
704717 On ch=3 n=26 v=100
704734 On ch=3 n=10 v=100
704844 Off ch=3 n=26 v=0
704844 Off ch=3 n=10 v=0
704858 On ch=3 n=19 v=100
704924 On ch=3 n=27 v=100
704926 On ch=3 n=23 v=100
705035 Off ch=3 n=19 v=0
705141 Off ch=3 n=23 v=0
705192 Off ch=3 n=27 v=0
705641 On ch=3 n=52 v=100
705841 Off ch=3 n=52 v=0
708149 On ch=3 n=25 v=100
708677 Off ch=3 n=25 v=0
709992 On ch=3 n=20 v=100
710162 On ch=3 n=31 v=100
710636 Off ch=3 n=20 v=0
710751 Off ch=3 n=31 v=0
710860 On ch=3 n=33 v=100
710907 Off ch=3 n=33 v=0
715330 On ch=3 n=13 v=100
715417 Off ch=3 n=13 v=0
719783 On ch=3 n=28 v=100
719836 Off ch=3 n=28 v=0
719909 On ch=3 n=9 v=100
719970 Off ch=3 n=9 v=0
719979 On ch=3 n=9 v=100
720135 Off ch=3 n=9 v=0
720226 On ch=3 n=31 v=100
720248 On ch=3 n=11 v=100
720361 Off ch=3 n=31 v=0
720752 Off ch=3 n=11 v=0
720989 On ch=3 n=9 v=100
721364 Off ch=3 n=9 v=0
721669 On ch=3 n=17 v=100
721677 On ch=3 n=26 v=100
721887 Off ch=3 n=17 v=0
721927 Off ch=3 n=26 v=0
722319 On ch=3 n=21 v=100
722567 On ch=3 n=19 v=100
722736 On ch=3 n=40 v=100
722912 Off ch=3 n=21 v=0
722966 Off ch=3 n=19 v=0
723131 Off ch=3 n=40 v=0
723646 On ch=3 n=18 v=100
723850 Off ch=3 n=18 v=0
724159 On ch=3 n=32 v=100
724210 On ch=3 n=38 v=100
724214 On ch=3 n=48 v=100
724241 Off ch=3 n=32 v=0
724253 On ch=3 n=22 v=100
724329 Off ch=3 n=38 v=0
724351 Off ch=3 n=48 v=0
724506 Off ch=3 n=22 v=0
725200 On ch=3 n=35 v=100
725450 Off ch=3 n=35 v=0
726393 On ch=3 n=12 v=100
726518 Off ch=3 n=12 v=0
726526 On ch=3 n=22 v=100
726601 Off ch=3 n=22 v=0
726602 On ch=3 n=8 v=100
726939 Off ch=3 n=8 v=0
728545 On ch=3 n=10 v=100
728861 Off ch=3 n=10 v=0
729286 On ch=3 n=18 v=100
729746 Off ch=3 n=18 v=0
730680 On ch=3 n=38 v=100
730743 On ch=3 n=27 v=100
730910 On ch=3 n=43 v=100
731000 Off ch=3 n=38 v=0
731003 Off ch=3 n=27 v=0
731023 Off ch=3 n=43 v=0
731384 On ch=3 n=14 v=100
731810 Off ch=3 n=14 v=0
733188 On ch=3 n=3 v=100
733933 Off ch=3 n=3 v=0
733990 On ch=3 n=43 v=100
734043 On ch=3 n=21 v=100
734043 On ch=3 n=30 v=100
734099 On ch=3 n=32 v=100
734294 Off ch=3 n=43 v=0
734313 Off ch=3 n=21 v=0
734366 Off ch=3 n=30 v=0
734401 Off ch=3 n=32 v=0
734934 On ch=3 n=8 v=100
735740 On ch=3 n=14 v=100
735741 Off ch=3 n=8 v=0
736038 Off ch=3 n=14 v=0
737393 On ch=3 n=39 v=100
737413 On ch=3 n=35 v=100
737485 Off ch=3 n=39 v=0
737537 On ch=3 n=16 v=100
737583 On ch=3 n=19 v=100
737585 Off ch=3 n=16 v=0
737586 Off ch=3 n=35 v=0
737872 Off ch=3 n=19 v=0
741392 On ch=3 n=20 v=100
741899 Off ch=3 n=20 v=0
742612 On ch=3 n=33 v=100
742625 On ch=3 n=33 v=100
742715 Off ch=3 n=33 v=0
742920 Off ch=3 n=33 v=0
744444 On ch=3 n=6 v=100
744682 Off ch=3 n=6 v=0
744686 On ch=3 n=7 v=100
745058 Off ch=3 n=7 v=0
745410 On ch=3 n=24 v=100
745634 Off ch=3 n=24 v=0
745676 On ch=3 n=15 v=100
745713 Off ch=3 n=15 v=0
745990 On ch=3 n=29 v=100
746070 Off ch=3 n=29 v=0
746895 On ch=3 n=19 v=100
746961 On ch=3 n=25 v=100
746996 On ch=3 n=14 v=100
747015 On ch=3 n=22 v=100
747366 Off ch=3 n=14 v=0
747377 Off ch=3 n=19 v=0
747392 Off ch=3 n=25 v=0
747392 Off ch=3 n=22 v=0
747553 On ch=3 n=22 v=100
747553 On ch=3 n=25 v=100
747585 Off ch=3 n=22 v=0
747596 Off ch=3 n=25 v=0
747888 On ch=3 n=48 v=100
748236 Off ch=3 n=48 v=0
749020 On ch=3 n=14 v=100
749260 Off ch=3 n=14 v=0
749263 On ch=3 n=12 v=100
749535 Off ch=3 n=12 v=0
749600 On ch=3 n=35 v=100
749779 Off ch=3 n=35 v=0
753767 On ch=3 n=35 v=100
753814 On ch=3 n=5 v=100
753845 Off ch=3 n=35 v=0
754035 Off ch=3 n=5 v=0
754492 On ch=3 n=18 v=100
754622 Off ch=3 n=18 v=0
754814 On ch=3 n=41 v=100
754830 On ch=3 n=12 v=100
754924 Off ch=3 n=41 v=0
755374 Off ch=3 n=12 v=0
756147 On ch=3 n=23 v=100
756187 On ch=3 n=18 v=100
756207 On ch=3 n=25 v=100
756509 Off ch=3 n=18 v=0
756515 Off ch=3 n=23 v=0
756621 Off ch=3 n=25 v=0
758029 On ch=3 n=38 v=100
758029 On ch=3 n=38 v=100
758053 On ch=3 n=15 v=100
758053 On ch=3 n=15 v=100
758065 On ch=3 n=4 v=100
758256 Off ch=3 n=4 v=0
758270 Off ch=3 n=15 v=0
758270 Off ch=3 n=15 v=0
758335 Off ch=3 n=38 v=0
758335 Off ch=3 n=38 v=0
760348 On ch=3 n=20 v=100
760561 On ch=3 n=19 v=100
760585 Off ch=3 n=20 v=0
760613 On ch=3 n=18 v=100
760613 On ch=3 n=18 v=100
760720 On ch=3 n=21 v=100
761019 On ch=3 n=20 v=100
761019 On ch=3 n=20 v=100
761039 Off ch=3 n=19 v=0
761092 Off ch=3 n=18 v=0
761092 Off ch=3 n=18 v=0
761240 Off ch=3 n=21 v=0
761470 Off ch=3 n=20 v=0
761470 Off ch=3 n=20 v=0
761494 On ch=3 n=23 v=100
762007 Off ch=3 n=23 v=0
766116 On ch=3 n=10 v=100
766207 On ch=3 n=37 v=100
766252 Off ch=3 n=10 v=0
766302 On ch=3 n=20 v=100
766302 On ch=3 n=20 v=100
766306 On ch=3 n=13 v=100
766306 On ch=3 n=13 v=100
766337 Off ch=3 n=37 v=0
766339 On ch=3 n=33 v=100
766339 On ch=3 n=29 v=100
766339 On ch=3 n=9 v=100
766339 On ch=3 n=29 v=100
766339 On ch=3 n=33 v=100
766339 On ch=3 n=29 v=100
766394 Off ch=3 n=13 v=0
766394 Off ch=3 n=13 v=0
766398 Off ch=3 n=9 v=0
766405 Off ch=3 n=20 v=0
766405 Off ch=3 n=20 v=0
766411 Off ch=3 n=29 v=0
766423 Off ch=3 n=29 v=0
766423 Off ch=3 n=29 v=0
766453 Off ch=3 n=33 v=0
766453 Off ch=3 n=33 v=0
766516 On ch=3 n=33 v=100
766516 On ch=3 n=33 v=100
766561 On ch=3 n=29 v=100
766766 Off ch=3 n=29 v=0
766811 Off ch=3 n=33 v=0
766811 Off ch=3 n=33 v=0
767531 On ch=3 n=35 v=100
767649 On ch=3 n=33 v=100
767672 Off ch=3 n=35 v=0
767758 Off ch=3 n=33 v=0
768972 On ch=3 n=39 v=100
769089 On ch=3 n=9 v=100
769193 Off ch=3 n=39 v=0
769827 Off ch=3 n=9 v=0
769831 On ch=3 n=33 v=100
769897 Off ch=3 n=33 v=0
769902 On ch=3 n=11 v=100
770064 Off ch=3 n=11 v=0
770070 On ch=3 n=21 v=100
770120 Off ch=3 n=21 v=0
770728 On ch=3 n=39 v=100
770892 On ch=3 n=18 v=100
771076 On ch=3 n=33 v=100
771107 On ch=3 n=38 v=100
771194 Off ch=3 n=18 v=0
771199 Off ch=3 n=39 v=0
771229 Off ch=3 n=33 v=0
771252 Off ch=3 n=38 v=0
771306 On ch=3 n=22 v=100
771307 On ch=3 n=10 v=100
771307 On ch=3 n=35 v=100
771458 Off ch=3 n=10 v=0
771478 Off ch=3 n=22 v=0
771521 Off ch=3 n=35 v=0
772484 On ch=3 n=20 v=100
772491 On ch=3 n=16 v=100
772522 Off ch=3 n=20 v=0
772524 Off ch=3 n=16 v=0
773251 On ch=3 n=37 v=100
773431 Off ch=3 n=37 v=0
773623 On ch=3 n=42 v=100
773684 On ch=3 n=31 v=100
773804 On ch=3 n=38 v=100
773812 Off ch=3 n=42 v=0
773812 Off ch=3 n=31 v=0
773817 On ch=3 n=17 v=100
773919 Off ch=3 n=38 v=0
773964 On ch=3 n=17 v=100
773981 Off ch=3 n=17 v=0
774030 Off ch=3 n=17 v=0
774238 On ch=3 n=25 v=100
774367 On ch=3 n=32 v=100
774391 Off ch=3 n=25 v=0
774438 On ch=3 n=37 v=100
774496 Off ch=3 n=32 v=0
774641 On ch=3 n=18 v=100
774641 Off ch=3 n=37 v=0
774810 Off ch=3 n=18 v=0
777736 On ch=3 n=18 v=100
777978 Off ch=3 n=18 v=0
778168 On ch=3 n=17 v=100
778283 Off ch=3 n=17 v=0
779728 On ch=3 n=39 v=100
779760 On ch=3 n=21 v=100
779856 Off ch=3 n=39 v=0
779856 Off ch=3 n=21 v=0
779920 On ch=3 n=39 v=100
779952 On ch=3 n=25 v=100
780140 Off ch=3 n=39 v=0
780140 Off ch=3 n=25 v=0
780241 On ch=3 n=21 v=100
780241 On ch=3 n=39 v=100
780241 On ch=3 n=25 v=100
780376 Off ch=3 n=21 v=0
780412 On ch=3 n=8 v=100
780425 Off ch=3 n=39 v=0
780582 Off ch=3 n=25 v=0
780614 Off ch=3 n=8 v=0
780929 On ch=3 n=0 v=100
780995 Off ch=3 n=0 v=0
781736 On ch=3 n=19 v=100
781893 Off ch=3 n=19 v=0
784434 On ch=3 n=21 v=100
784523 Off ch=3 n=21 v=0
784656 On ch=3 n=25 v=100
784656 On ch=3 n=31 v=100
784696 Off ch=3 n=25 v=0
784743 Off ch=3 n=31 v=0
784869 On ch=3 n=25 v=100
784903 On ch=3 n=7 v=100
784950 Off ch=3 n=25 v=0
784957 Off ch=3 n=7 v=0
784961 On ch=3 n=7 v=100
785068 Off ch=3 n=7 v=0
785104 On ch=3 n=7 v=100
785230 Off ch=3 n=7 v=0
785259 On ch=3 n=23 v=100
785342 On ch=3 n=10 v=100
785669 Off ch=3 n=23 v=0
785669 Off ch=3 n=10 v=0
786192 On ch=3 n=26 v=100
786213 On ch=3 n=18 v=100
786213 On ch=3 n=18 v=100
786243 On ch=3 n=31 v=100
786243 On ch=3 n=31 v=100
786271 On ch=3 n=26 v=100
786271 On ch=3 n=26 v=100
786312 On ch=3 n=10 v=100
786550 On ch=3 n=19 v=100
786550 On ch=3 n=19 v=100
786638 Off ch=3 n=18 v=0
786638 Off ch=3 n=18 v=0
786648 Off ch=3 n=10 v=0
786684 Off ch=3 n=26 v=0
786767 Off ch=3 n=26 v=0
786767 Off ch=3 n=26 v=0
786803 Off ch=3 n=31 v=0
786803 Off ch=3 n=31 v=0
786856 On ch=3 n=24 v=100
787229 Off ch=3 n=19 v=0
787229 Off ch=3 n=19 v=0
787339 On ch=3 n=23 v=100
787404 Off ch=3 n=24 v=0
787410 On ch=3 n=25 v=100
787535 Off ch=3 n=23 v=0
787653 Off ch=3 n=25 v=0
789890 On ch=3 n=19 v=100
789913 On ch=3 n=22 v=100
789974 On ch=3 n=19 v=100
789974 On ch=3 n=19 v=100
789993 On ch=3 n=11 v=100
789999 On ch=3 n=25 v=100
790105 Off ch=3 n=19 v=0
790156 Off ch=3 n=22 v=0
790176 Off ch=3 n=11 v=0
790204 Off ch=3 n=19 v=0
790204 Off ch=3 n=19 v=0
790268 Off ch=3 n=25 v=0
792135 On ch=3 n=17 v=100
792153 On ch=3 n=25 v=100
792226 Off ch=3 n=17 v=0
792270 Off ch=3 n=25 v=0
795481 On ch=3 n=20 v=100
795783 Off ch=3 n=20 v=0
795969 On ch=3 n=15 v=100
796085 On ch=3 n=8 v=100
796276 On ch=3 n=64 v=100
796276 On ch=3 n=64 v=100
796352 On ch=3 n=18 v=100
796352 On ch=3 n=26 v=100
796394 On ch=3 n=24 v=100
796451 On ch=3 n=43 v=100
796500 Off ch=3 n=15 v=0
796505 Off ch=3 n=8 v=0
796518 On ch=3 n=33 v=100
796533 Off ch=3 n=18 v=0
796581 Off ch=3 n=24 v=0
796588 Off ch=3 n=26 v=0
796698 Off ch=3 n=64 v=0
796698 Off ch=3 n=64 v=0
796727 Off ch=3 n=33 v=0
796728 Off ch=3 n=43 v=0
796734 On ch=3 n=3 v=100
796840 Off ch=3 n=3 v=0
797103 On ch=3 n=29 v=100
797168 On ch=3 n=15 v=100
797219 On ch=3 n=11 v=100
797352 On ch=3 n=25 v=100
797427 Off ch=3 n=29 v=0
797571 Off ch=3 n=15 v=0
797579 Off ch=3 n=11 v=0
797646 Off ch=3 n=25 v=0
798155 On ch=3 n=32 v=100
798170 On ch=3 n=15 v=100
798229 Off ch=3 n=32 v=0
798414 Off ch=3 n=15 v=0
798713 On ch=3 n=30 v=100
798805 On ch=3 n=26 v=100
798874 On ch=3 n=22 v=100
798946 On ch=3 n=23 v=100
799229 Off ch=3 n=30 v=0
799283 Off ch=3 n=26 v=0
799313 Off ch=3 n=22 v=0
799464 On ch=3 n=9 v=100
799597 On ch=3 n=43 v=100
799618 Off ch=3 n=23 v=0
799619 On ch=3 n=35 v=100
799620 On ch=3 n=21 v=100
799718 Off ch=3 n=9 v=0
799794 On ch=3 n=23 v=100
799856 Off ch=3 n=35 v=0
799959 Off ch=3 n=21 v=0
799994 Off ch=3 n=23 v=0
799996 Off ch=3 n=43 v=0
800687 On ch=3 n=32 v=100
800778 On ch=3 n=17 v=100
800823 On ch=3 n=20 v=100
800823 On ch=3 n=20 v=100
800835 On ch=3 n=16 v=100
801042 Off ch=3 n=32 v=0
801163 Off ch=3 n=17 v=0
801175 Off ch=3 n=16 v=0
801210 Off ch=3 n=20 v=0
801210 Off ch=3 n=20 v=0
801593 On ch=3 n=43 v=100
802001 Off ch=3 n=43 v=0
802100 On ch=3 n=14 v=100
802472 Off ch=3 n=14 v=0
805048 On ch=3 n=26 v=100
805167 Off ch=3 n=26 v=0
805179 On ch=3 n=21 v=100
805321 On ch=3 n=16 v=100
805457 On ch=3 n=21 v=100
805675 Off ch=3 n=21 v=0
805733 Off ch=3 n=16 v=0
805768 On ch=3 n=18 v=100
805775 Off ch=3 n=21 v=0
805777 On ch=3 n=4 v=100
806099 Off ch=3 n=4 v=0
806113 On ch=3 n=50 v=100
806155 Off ch=3 n=18 v=0
806343 On ch=3 n=32 v=100
806362 On ch=3 n=52 v=100
806392 On ch=3 n=50 v=100
806392 On ch=3 n=50 v=100
806422 Off ch=3 n=50 v=0
806434 On ch=3 n=51 v=100
806441 Off ch=3 n=32 v=0
806461 On ch=3 n=24 v=100
806468 On ch=3 n=44 v=100
806472 On ch=3 n=46 v=100
806480 On ch=3 n=10 v=100
806511 Off ch=3 n=52 v=0
806672 Off ch=3 n=10 v=0
806682 Off ch=3 n=51 v=0
806685 Off ch=3 n=24 v=0
806734 On ch=3 n=36 v=100
806735 Off ch=3 n=46 v=0
806762 Off ch=3 n=50 v=0
806762 Off ch=3 n=50 v=0
806772 Off ch=3 n=44 v=0
806818 On ch=3 n=19 v=100
806885 Off ch=3 n=36 v=0
806901 On ch=3 n=33 v=100
806902 Off ch=3 n=19 v=0
806964 Off ch=3 n=33 v=0
808363 On ch=3 n=8 v=100
808864 On ch=3 n=12 v=100
808864 Off ch=3 n=8 v=0
809123 Off ch=3 n=12 v=0
809430 On ch=3 n=7 v=100
809977 Off ch=3 n=7 v=0
810150 On ch=3 n=11 v=100
810164 On ch=3 n=17 v=100
810171 On ch=3 n=26 v=100
810557 Off ch=3 n=11 v=0
810613 Off ch=3 n=17 v=0
810743 Off ch=3 n=26 v=0
810974 On ch=3 n=7 v=100
811596 Off ch=3 n=7 v=0
811727 On ch=3 n=40 v=100
811868 Off ch=3 n=40 v=0
812221 On ch=3 n=19 v=100
812271 Off ch=3 n=19 v=0
812994 On ch=3 n=27 v=100
813041 Off ch=3 n=27 v=0
813099 On ch=3 n=51 v=100
813368 Off ch=3 n=51 v=0
813402 On ch=3 n=16 v=100
813471 On ch=3 n=22 v=100
813854 Off ch=3 n=16 v=0
813854 Off ch=3 n=22 v=0
813981 On ch=3 n=22 v=100
814066 Off ch=3 n=22 v=0
818556 On ch=3 n=24 v=100
818611 Off ch=3 n=24 v=0
819092 On ch=3 n=8 v=100
819561 Off ch=3 n=8 v=0
819776 On ch=3 n=19 v=100
819956 Off ch=3 n=19 v=0
821774 On ch=3 n=4 v=100
821820 On ch=3 n=36 v=100
821821 On ch=3 n=19 v=100
821823 Off ch=3 n=4 v=0
821884 On ch=3 n=12 v=100
821907 Off ch=3 n=19 v=0
822018 Off ch=3 n=36 v=0
822110 Off ch=3 n=12 v=0
822342 On ch=3 n=21 v=100
823159 On ch=3 n=19 v=100
823250 Off ch=3 n=21 v=0
823305 Off ch=3 n=19 v=0
826262 On ch=3 n=32 v=100
826284 On ch=3 n=18 v=100
826284 On ch=3 n=18 v=100
826421 On ch=3 n=12 v=100
826469 Off ch=3 n=32 v=0
826488 On ch=3 n=34 v=100
826488 On ch=3 n=34 v=100
826504 On ch=3 n=13 v=100
826506 On ch=3 n=8 v=100
826732 On ch=3 n=37 v=100
826732 On ch=3 n=37 v=100
826870 Off ch=3 n=12 v=0
826886 Off ch=3 n=8 v=0
826921 Off ch=3 n=18 v=0
826921 Off ch=3 n=18 v=0
826932 Off ch=3 n=13 v=0
827479 Off ch=3 n=34 v=0
827479 Off ch=3 n=37 v=0
827479 Off ch=3 n=34 v=0
827479 Off ch=3 n=37 v=0
827522 On ch=3 n=37 v=100
827522 On ch=3 n=34 v=100
827522 On ch=3 n=37 v=100
827522 On ch=3 n=34 v=100
827609 On ch=3 n=22 v=100
827718 On ch=3 n=14 v=100
827745 On ch=3 n=22 v=100
827745 On ch=3 n=22 v=100
827899 Off ch=3 n=34 v=0
827899 Off ch=3 n=34 v=0
828112 Off ch=3 n=14 v=0
828114 Off ch=3 n=22 v=0
828183 Off ch=3 n=37 v=0
828183 Off ch=3 n=37 v=0
828204 Off ch=3 n=22 v=0
828204 Off ch=3 n=22 v=0
828218 On ch=3 n=49 v=100
828222 On ch=3 n=24 v=100
828318 On ch=3 n=21 v=100
828321 Off ch=3 n=24 v=0
828356 Off ch=3 n=49 v=0
828416 Off ch=3 n=21 v=0
828423 On ch=3 n=34 v=100
828562 Off ch=3 n=34 v=0
829348 On ch=3 n=16 v=100
829398 On ch=3 n=16 v=100
829741 Off ch=3 n=16 v=0
829904 On ch=3 n=13 v=100
829957 On ch=3 n=19 v=100
830048 On ch=3 n=17 v=100
830110 Off ch=3 n=16 v=0
830325 Off ch=3 n=13 v=0
830325 Off ch=3 n=19 v=0
830325 Off ch=3 n=17 v=0
830400 On ch=3 n=13 v=100
830400 On ch=3 n=19 v=100
830400 On ch=3 n=17 v=100
830411 Off ch=3 n=13 v=0
830471 Off ch=3 n=19 v=0
830592 On ch=3 n=31 v=100
830790 Off ch=3 n=17 v=0
830925 Off ch=3 n=31 v=0
831542 On ch=3 n=22 v=100
831763 On ch=3 n=11 v=100
831764 On ch=3 n=28 v=100
832122 Off ch=3 n=22 v=0
832191 Off ch=3 n=11 v=0
832411 Off ch=3 n=28 v=0
832806 On ch=3 n=25 v=100
832843 On ch=3 n=16 v=100
833074 Off ch=3 n=25 v=0
833289 Off ch=3 n=16 v=0
833531 On ch=3 n=41 v=100
833678 Off ch=3 n=41 v=0
835165 On ch=3 n=6 v=100
836034 Off ch=3 n=6 v=0
836037 On ch=3 n=8 v=100
836047 On ch=3 n=14 v=100
836074 On ch=3 n=18 v=100
836075 Off ch=3 n=8 v=0
836229 Off ch=3 n=14 v=0
836589 Off ch=3 n=18 v=0
837428 On ch=3 n=24 v=100
837903 On ch=3 n=36 v=100
838082 On ch=3 n=38 v=100
838082 On ch=3 n=38 v=100
838084 Off ch=3 n=24 v=0
838106 On ch=3 n=35 v=100
838128 Off ch=3 n=36 v=0
838296 Off ch=3 n=35 v=0
838309 Off ch=3 n=38 v=0
838309 Off ch=3 n=38 v=0
839276 On ch=3 n=14 v=100
839277 On ch=3 n=24 v=100
839359 Off ch=3 n=14 v=0
839372 Off ch=3 n=24 v=0
839745 On ch=3 n=25 v=100
839771 On ch=3 n=16 v=100
839806 On ch=3 n=11 v=100
839806 On ch=3 n=14 v=100
839807 On ch=3 n=16 v=100
839807 On ch=3 n=28 v=100
839891 Off ch=3 n=25 v=0
839906 Off ch=3 n=16 v=0
839907 Off ch=3 n=11 v=0
839933 Off ch=3 n=16 v=0
839965 Off ch=3 n=14 v=0
840033 Off ch=3 n=28 v=0
840785 On ch=3 n=11 v=100
840940 Off ch=3 n=11 v=0
841548 On ch=3 n=14 v=100
841640 On ch=3 n=13 v=100
841994 Off ch=3 n=14 v=0
842037 Off ch=3 n=13 v=0
843722 On ch=3 n=22 v=100
843804 On ch=3 n=10 v=100
843853 On ch=3 n=11 v=100
843858 On ch=3 n=8 v=100
843957 On ch=3 n=15 v=100
844233 Off ch=3 n=10 v=0
844242 Off ch=3 n=22 v=0
844247 Off ch=3 n=8 v=0
844293 Off ch=3 n=11 v=0
844294 On ch=3 n=32 v=100
844295 On ch=3 n=17 v=100
844377 Off ch=3 n=15 v=0
844429 Off ch=3 n=17 v=0
844436 On ch=3 n=16 v=100
844456 Off ch=3 n=32 v=0
844539 On ch=3 n=9 v=100
844923 Off ch=3 n=16 v=0
844924 On ch=3 n=17 v=100
844939 Off ch=3 n=9 v=0
845183 Off ch=3 n=17 v=0
847025 On ch=3 n=11 v=100
847025 On ch=3 n=11 v=100
847068 On ch=3 n=20 v=100
847255 Off ch=3 n=11 v=0
847255 Off ch=3 n=11 v=0
847295 Off ch=3 n=20 v=0
848676 On ch=3 n=43 v=100
848832 Off ch=3 n=43 v=0
849057 On ch=3 n=34 v=100
849133 Off ch=3 n=34 v=0
850010 On ch=3 n=33 v=100
850178 On ch=3 n=19 v=100
850212 On ch=3 n=31 v=100
850218 On ch=3 n=17 v=100
850218 On ch=3 n=17 v=100
850235 On ch=3 n=11 v=100
850463 Off ch=3 n=33 v=0
850527 Off ch=3 n=11 v=0
850529 Off ch=3 n=19 v=0
850540 On ch=3 n=32 v=100
850568 Off ch=3 n=17 v=0
850568 Off ch=3 n=17 v=0
850725 Off ch=3 n=31 v=0
850935 Off ch=3 n=32 v=0
851804 On ch=3 n=33 v=100
851804 On ch=3 n=33 v=100
851996 On ch=3 n=23 v=100
851996 On ch=3 n=23 v=100
852035 On ch=3 n=26 v=100
852035 On ch=3 n=26 v=100
852051 On ch=3 n=17 v=100
852130 On ch=3 n=15 v=100
852137 On ch=3 n=31 v=100
852491 Off ch=3 n=17 v=0
852494 Off ch=3 n=33 v=0
852494 Off ch=3 n=23 v=0
852494 Off ch=3 n=33 v=0
852494 Off ch=3 n=23 v=0
852563 Off ch=3 n=15 v=0
852650 Off ch=3 n=26 v=0
852650 Off ch=3 n=26 v=0
852807 On ch=3 n=6 v=100
852834 Off ch=3 n=31 v=0
853179 Off ch=3 n=6 v=0
854128 On ch=3 n=23 v=100
854151 On ch=3 n=19 v=100
854283 Off ch=3 n=23 v=0
854314 Off ch=3 n=19 v=0
854537 On ch=3 n=2 v=100
854631 Off ch=3 n=2 v=0
854632 On ch=3 n=7 v=100
854716 On ch=3 n=25 v=100
854716 Off ch=3 n=7 v=0
854753 On ch=3 n=19 v=100
854826 Off ch=3 n=25 v=0
855003 Off ch=3 n=19 v=0
855163 On ch=3 n=48 v=100
855557 Off ch=3 n=48 v=0
855577 On ch=3 n=9 v=100
855828 Off ch=3 n=9 v=0
855871 On ch=3 n=31 v=100
856047 Off ch=3 n=31 v=0
856060 On ch=3 n=42 v=100
856094 On ch=3 n=9 v=100
856283 Off ch=3 n=42 v=0
856287 Off ch=3 n=9 v=0
856318 On ch=3 n=25 v=100
856572 Off ch=3 n=25 v=0
856615 On ch=3 n=15 v=100
856984 Off ch=3 n=15 v=0
857007 On ch=3 n=33 v=100
857160 Off ch=3 n=33 v=0
857177 On ch=3 n=26 v=100
857367 On ch=3 n=26 v=100
857373 Off ch=3 n=26 v=0
857717 Off ch=3 n=26 v=0
857718 On ch=3 n=23 v=100
857886 Off ch=3 n=23 v=0
858277 On ch=3 n=12 v=100
858281 On ch=3 n=36 v=100
858464 Off ch=3 n=12 v=0
858517 Off ch=3 n=36 v=0
858712 On ch=3 n=43 v=100
859351 Off ch=3 n=43 v=0
861031 On ch=3 n=27 v=100
861091 Off ch=3 n=27 v=0
863625 On ch=3 n=8 v=100
863919 Off ch=3 n=8 v=0
864185 On ch=3 n=9 v=100
864807 Off ch=3 n=9 v=0
864947 On ch=3 n=27 v=100
865112 Off ch=3 n=27 v=0
871198 On ch=3 n=40 v=100
871198 On ch=3 n=40 v=100
871211 On ch=3 n=40 v=100
871212 On ch=3 n=37 v=100
871377 Off ch=3 n=37 v=0
871413 Off ch=3 n=40 v=0
871429 Off ch=3 n=40 v=0
871429 Off ch=3 n=40 v=0
873265 On ch=3 n=23 v=100
873408 On ch=3 n=20 v=100
873634 On ch=3 n=34 v=100
873763 Off ch=3 n=23 v=0
873841 Off ch=3 n=20 v=0
873903 Off ch=3 n=34 v=0
875350 On ch=3 n=8 v=100
875453 Off ch=3 n=8 v=0
875530 On ch=3 n=8 v=100
875648 On ch=3 n=25 v=100
875787 Off ch=3 n=8 v=0
875788 Off ch=3 n=25 v=0
875820 On ch=3 n=25 v=100
875868 On ch=3 n=31 v=100
875909 On ch=3 n=12 v=100
875909 On ch=3 n=25 v=100
875910 On ch=3 n=30 v=100
875913 Off ch=3 n=25 v=0
876059 Off ch=3 n=12 v=0
876065 Off ch=3 n=31 v=0
876080 Off ch=3 n=25 v=0
876131 Off ch=3 n=30 v=0
876281 On ch=3 n=27 v=100
876312 On ch=3 n=48 v=100
876316 On ch=3 n=16 v=100
876503 Off ch=3 n=16 v=0
876505 Off ch=3 n=27 v=0
876730 Off ch=3 n=48 v=0
877535 On ch=3 n=20 v=100
877588 On ch=3 n=14 v=100
877588 On ch=3 n=22 v=100
877851 Off ch=3 n=20 v=0
877853 Off ch=3 n=14 v=0
877886 Off ch=3 n=22 v=0
878278 On ch=3 n=21 v=100
878278 On ch=3 n=18 v=100
878401 On ch=3 n=22 v=100
878405 Off ch=3 n=18 v=0
878455 Off ch=3 n=21 v=0
878621 Off ch=3 n=22 v=0
879809 On ch=3 n=33 v=100
880018 Off ch=3 n=33 v=0
881891 On ch=3 n=40 v=100
881891 On ch=3 n=40 v=100
881902 On ch=3 n=35 v=100
881912 On ch=3 n=26 v=100
882198 Off ch=3 n=26 v=0
882228 Off ch=3 n=35 v=0
882257 On ch=3 n=18 v=100
882301 Off ch=3 n=40 v=0
882301 Off ch=3 n=40 v=0
882364 Off ch=3 n=18 v=0
884481 On ch=3 n=22 v=100
884623 Off ch=3 n=22 v=0
884684 On ch=3 n=26 v=100
884741 On ch=3 n=32 v=100
884926 Off ch=3 n=26 v=0
885049 Off ch=3 n=32 v=0
885819 On ch=3 n=35 v=100
886008 Off ch=3 n=35 v=0
886696 On ch=3 n=33 v=100
886771 On ch=3 n=18 v=100
886855 On ch=3 n=17 v=100
887067 Off ch=3 n=33 v=0
887155 Off ch=3 n=18 v=0
887287 Off ch=3 n=17 v=0
887290 On ch=3 n=22 v=100
887540 Off ch=3 n=22 v=0
888393 On ch=3 n=21 v=100
888767 Off ch=3 n=21 v=0
889175 On ch=3 n=18 v=100
889467 Off ch=3 n=18 v=0
892428 On ch=3 n=48 v=100
892547 Off ch=3 n=48 v=0
892596 On ch=3 n=46 v=100
892696 Off ch=3 n=46 v=0
892923 On ch=3 n=22 v=100
892923 On ch=3 n=26 v=100
893036 Off ch=3 n=22 v=0
893050 Off ch=3 n=26 v=0
893109 On ch=3 n=9 v=100
893114 On ch=3 n=20 v=100
893322 Off ch=3 n=9 v=0
893368 Off ch=3 n=20 v=0
893601 On ch=3 n=32 v=100
893739 Off ch=3 n=32 v=0
893756 On ch=3 n=25 v=100
893756 On ch=3 n=43 v=100
893845 On ch=3 n=19 v=100
893848 On ch=3 n=9 v=100
893848 Off ch=3 n=25 v=0
893874 Off ch=3 n=43 v=0
894168 Off ch=3 n=9 v=0
894362 Off ch=3 n=19 v=0
894377 On ch=3 n=18 v=100
894481 Off ch=3 n=18 v=0
895538 On ch=3 n=38 v=100
895847 Off ch=3 n=38 v=0
895880 On ch=3 n=19 v=100
896103 On ch=3 n=18 v=100
896128 On ch=3 n=31 v=100
896150 Off ch=3 n=19 v=0
896157 Off ch=3 n=18 v=0
896311 On ch=3 n=35 v=100
896380 Off ch=3 n=31 v=0
896429 Off ch=3 n=35 v=0
897304 On ch=3 n=22 v=100
897354 On ch=3 n=24 v=100
897356 On ch=3 n=14 v=100
897584 Off ch=3 n=22 v=0
897735 Off ch=3 n=14 v=0
897874 Off ch=3 n=24 v=0
899447 On ch=3 n=8 v=100
900708 Off ch=3 n=8 v=0
900825 On ch=3 n=40 v=100
900845 On ch=3 n=25 v=100
900845 On ch=3 n=32 v=100
900937 Off ch=3 n=40 v=0
900969 Off ch=3 n=25 v=0
901017 Off ch=3 n=32 v=0
901514 On ch=3 n=46 v=100
901514 On ch=3 n=46 v=100
901576 On ch=3 n=34 v=100
901612 On ch=3 n=24 v=100
901629 On ch=3 n=19 v=100
901756 Off ch=3 n=34 v=0
901771 Off ch=3 n=19 v=0
901774 Off ch=3 n=24 v=0
901876 On ch=3 n=40 v=100
902083 Off ch=3 n=46 v=0
902083 Off ch=3 n=46 v=0
902083 Off ch=3 n=40 v=0
902510 On ch=3 n=27 v=100
902636 On ch=3 n=23 v=100
903063 Off ch=3 n=27 v=0
903069 On ch=3 n=21 v=100
903161 Off ch=3 n=23 v=0
903236 Off ch=3 n=21 v=0
903303 On ch=3 n=15 v=100
903397 Off ch=3 n=15 v=0
903399 On ch=3 n=2 v=100
903533 On ch=3 n=2 v=100
903534 Off ch=3 n=2 v=0
903764 Off ch=3 n=2 v=0
903765 On ch=3 n=2 v=100
904585 Off ch=3 n=2 v=0
904587 On ch=3 n=2 v=100
905511 On ch=3 n=9 v=100
905546 Off ch=3 n=2 v=0
905974 Off ch=3 n=9 v=0
906370 On ch=3 n=20 v=100
906523 Off ch=3 n=20 v=0
906692 On ch=3 n=21 v=100
906692 On ch=3 n=17 v=100
906713 On ch=3 n=27 v=100
906754 Off ch=3 n=17 v=0
906760 On ch=3 n=13 v=100
906784 Off ch=3 n=21 v=0
906859 Off ch=3 n=27 v=0
907134 On ch=3 n=27 v=100
907211 Off ch=3 n=13 v=0
907217 On ch=3 n=20 v=100
907222 Off ch=3 n=27 v=0
907353 Off ch=3 n=20 v=0
907719 On ch=3 n=27 v=100
907963 Off ch=3 n=27 v=0
907968 On ch=3 n=6 v=100
908188 On ch=3 n=8 v=100
908190 Off ch=3 n=6 v=0
908431 On ch=3 n=20 v=100
908449 On ch=3 n=21 v=100
908449 On ch=3 n=44 v=100
908452 Off ch=3 n=8 v=0
908549 Off ch=3 n=20 v=0
908600 Off ch=3 n=21 v=0
908699 On ch=3 n=34 v=100
908723 Off ch=3 n=44 v=0
908770 Off ch=3 n=34 v=0
909509 On ch=3 n=9 v=100
909595 On ch=3 n=5 v=100
909596 Off ch=3 n=9 v=0
909688 On ch=3 n=19 v=100
909705 On ch=3 n=13 v=100
909706 On ch=3 n=20 v=100
909707 Off ch=3 n=5 v=0
909794 On ch=3 n=7 v=100
909837 Off ch=3 n=19 v=0
909839 Off ch=3 n=13 v=0
909858 Off ch=3 n=20 v=0
910008 Off ch=3 n=7 v=0
910012 On ch=3 n=54 v=100
910221 Off ch=3 n=54 v=0
910276 On ch=3 n=8 v=100
910763 Off ch=3 n=8 v=0
913243 On ch=3 n=40 v=100
913412 Off ch=3 n=40 v=0
914570 On ch=3 n=41 v=100
914682 Off ch=3 n=41 v=0
915748 On ch=3 n=12 v=100
916213 Off ch=3 n=12 v=0
916223 On ch=3 n=11 v=100
916465 Off ch=3 n=11 v=0
916660 On ch=3 n=28 v=100
916803 Off ch=3 n=28 v=0
918378 On ch=3 n=18 v=100
918421 Off ch=3 n=18 v=0
918642 On ch=3 n=52 v=100
918714 On ch=3 n=13 v=100
918783 Off ch=3 n=13 v=0
918789 Off ch=3 n=52 v=0
918869 On ch=3 n=20 v=100
918893 On ch=3 n=5 v=100
918999 Off ch=3 n=20 v=0
920237 Off ch=3 n=5 v=0
920479 On ch=3 n=37 v=100
920501 On ch=3 n=9 v=100
920542 Off ch=3 n=37 v=0
920542 Off ch=3 n=9 v=0
920603 On ch=3 n=7 v=100
920867 Off ch=3 n=7 v=0
920869 On ch=3 n=8 v=100
921190 Off ch=3 n=8 v=0
922171 On ch=3 n=47 v=100
922192 On ch=3 n=36 v=100
922283 Off ch=3 n=47 v=0
922283 Off ch=3 n=36 v=0
922298 On ch=3 n=45 v=100
922299 On ch=3 n=29 v=100
922361 Off ch=3 n=29 v=0
922384 On ch=3 n=51 v=100
922391 On ch=3 n=42 v=100
922397 Off ch=3 n=45 v=0
922440 On ch=3 n=27 v=100
922486 Off ch=3 n=42 v=0
922494 Off ch=3 n=27 v=0
922498 Off ch=3 n=51 v=0
922606 On ch=3 n=30 v=100
922776 Off ch=3 n=30 v=0
923980 On ch=3 n=18 v=100
923980 On ch=3 n=18 v=100
923983 On ch=3 n=15 v=100
924209 Off ch=3 n=15 v=0
924264 On ch=3 n=19 v=100
924264 On ch=3 n=19 v=100
924322 Off ch=3 n=18 v=0
924322 Off ch=3 n=18 v=0
924816 On ch=3 n=23 v=100
924856 Off ch=3 n=19 v=0
924856 Off ch=3 n=19 v=0
925069 Off ch=3 n=23 v=0
925202 On ch=3 n=10 v=100
925307 Off ch=3 n=10 v=0
925335 On ch=3 n=10 v=100
925616 Off ch=3 n=10 v=0
927084 On ch=3 n=29 v=100
927234 Off ch=3 n=29 v=0
927283 On ch=3 n=8 v=100
927457 Off ch=3 n=8 v=0
927932 On ch=3 n=4 v=100
927995 Off ch=3 n=4 v=0
928108 On ch=3 n=34 v=100
928303 On ch=3 n=17 v=100
928364 On ch=3 n=18 v=100
928364 On ch=3 n=18 v=100
928393 On ch=3 n=10 v=100
928628 Off ch=3 n=34 v=0
928637 On ch=3 n=32 v=100
928754 Off ch=3 n=10 v=0
928758 Off ch=3 n=17 v=0
928814 Off ch=3 n=18 v=0
928814 Off ch=3 n=18 v=0
928842 Off ch=3 n=32 v=0
929220 On ch=3 n=25 v=100
929220 On ch=3 n=25 v=100
929262 On ch=3 n=19 v=100
929483 On ch=3 n=24 v=100
929748 Off ch=3 n=19 v=0
929786 Off ch=3 n=25 v=0
929786 Off ch=3 n=25 v=0
929862 Off ch=3 n=24 v=0
930887 On ch=3 n=13 v=100
931525 Off ch=3 n=13 v=0
935009 On ch=3 n=6 v=100
935055 On ch=3 n=6 v=100
935058 Off ch=3 n=6 v=0
935155 Off ch=3 n=6 v=0
935165 On ch=3 n=5 v=100
936199 On ch=3 n=32 v=100
936233 On ch=3 n=13 v=100
936236 Off ch=3 n=5 v=0
936381 Off ch=3 n=32 v=0
936381 Off ch=3 n=13 v=0
936411 On ch=3 n=13 v=100
936411 On ch=3 n=19 v=100
936451 Off ch=3 n=13 v=0
936500 Off ch=3 n=19 v=0
936546 On ch=3 n=10 v=100
936981 Off ch=3 n=10 v=0
937087 On ch=3 n=20 v=100
937088 On ch=3 n=41 v=100
937263 Off ch=3 n=20 v=0
937327 Off ch=3 n=41 v=0
938222 On ch=3 n=43 v=100
938382 On ch=3 n=29 v=100
938515 On ch=3 n=23 v=100
938625 On ch=3 n=20 v=100
938730 Off ch=3 n=43 v=0
938949 Off ch=3 n=29 v=0
939044 Off ch=3 n=23 v=0
939135 Off ch=3 n=20 v=0
939498 On ch=3 n=34 v=100
939534 On ch=3 n=20 v=100
939594 On ch=3 n=18 v=100
939723 Off ch=3 n=34 v=0
939948 Off ch=3 n=20 v=0
939983 Off ch=3 n=18 v=0
940005 On ch=3 n=5 v=100
940302 Off ch=3 n=5 v=0
940512 On ch=3 n=14 v=100
940707 On ch=3 n=12 v=100
940748 Off ch=3 n=14 v=0
940750 On ch=3 n=5 v=100
940792 Off ch=3 n=12 v=0
940977 On ch=3 n=8 v=100
940977 On ch=3 n=8 v=100
940985 Off ch=3 n=5 v=0
940988 On ch=3 n=34 v=100
940988 On ch=3 n=34 v=100
941054 On ch=3 n=30 v=100
941054 On ch=3 n=30 v=100
941057 On ch=3 n=23 v=100
941106 Off ch=3 n=8 v=0
941106 Off ch=3 n=8 v=0
941144 Off ch=3 n=34 v=0
941144 Off ch=3 n=34 v=0
941159 On ch=3 n=10 v=100
941183 On ch=3 n=16 v=100
941534 Off ch=3 n=10 v=0
941535 Off ch=3 n=23 v=0
941656 Off ch=3 n=16 v=0
941725 Off ch=3 n=30 v=0
941725 Off ch=3 n=30 v=0
943382 On ch=3 n=22 v=100
943424 On ch=3 n=8 v=100
943466 Off ch=3 n=22 v=0
943763 Off ch=3 n=8 v=0
943808 On ch=3 n=23 v=100
943963 Off ch=3 n=23 v=0
944083 On ch=3 n=11 v=100
944833 Off ch=3 n=11 v=0
946335 On ch=3 n=38 v=100
946588 Off ch=3 n=38 v=0
946615 On ch=3 n=28 v=100
946615 On ch=3 n=42 v=100
946739 Off ch=3 n=28 v=0
946826 Off ch=3 n=42 v=0
946909 On ch=3 n=4 v=100
947230 Off ch=3 n=4 v=0
950686 On ch=3 n=11 v=100
950894 On ch=3 n=22 v=100
950953 On ch=3 n=18 v=100
950959 On ch=3 n=24 v=100
950959 On ch=3 n=24 v=100
951025 On ch=3 n=12 v=100
951050 Off ch=3 n=11 v=0
951081 On ch=3 n=20 v=100
951437 Off ch=3 n=12 v=0
951450 Off ch=3 n=18 v=0
951457 Off ch=3 n=22 v=0
951516 Off ch=3 n=24 v=0
951516 Off ch=3 n=24 v=0
951612 Off ch=3 n=20 v=0
952395 On ch=3 n=39 v=100
952412 On ch=3 n=26 v=100
952414 On ch=3 n=30 v=100
952509 Off ch=3 n=39 v=0
952513 Off ch=3 n=26 v=0
952516 On ch=3 n=13 v=100
952556 Off ch=3 n=30 v=0
952645 On ch=3 n=47 v=100
952737 On ch=3 n=28 v=100
952747 On ch=3 n=18 v=100
952754 Off ch=3 n=13 v=0
952808 Off ch=3 n=47 v=0
952812 On ch=3 n=25 v=100
952812 On ch=3 n=29 v=100
952812 Off ch=3 n=18 v=0
952849 Off ch=3 n=28 v=0
952922 On ch=3 n=11 v=100
953029 Off ch=3 n=25 v=0
953064 Off ch=3 n=29 v=0
953149 Off ch=3 n=11 v=0
953663 On ch=3 n=39 v=100
953702 On ch=3 n=26 v=100
953744 On ch=3 n=17 v=100
953746 On ch=3 n=20 v=100
953859 Off ch=3 n=39 v=0
953926 Off ch=3 n=26 v=0
953969 Off ch=3 n=17 v=0
954007 Off ch=3 n=20 v=0
954280 On ch=3 n=8 v=100
954280 On ch=3 n=32 v=100
954345 Off ch=3 n=8 v=0
954393 Off ch=3 n=32 v=0
954553 On ch=3 n=36 v=100
954661 Off ch=3 n=36 v=0
955681 On ch=3 n=25 v=100
955683 On ch=3 n=52 v=100
955703 On ch=3 n=31 v=100
955709 On ch=3 n=24 v=100
955819 On ch=3 n=45 v=100
955819 Off ch=3 n=25 v=0
955868 Off ch=3 n=52 v=0
955985 Off ch=3 n=24 v=0
956029 Off ch=3 n=31 v=0
956074 Off ch=3 n=45 v=0
956356 On ch=3 n=24 v=100
956404 On ch=3 n=16 v=100
956447 On ch=3 n=9 v=100
956588 Off ch=3 n=24 v=0
956653 Off ch=3 n=16 v=0
956653 Off ch=3 n=9 v=0
956686 On ch=3 n=9 v=100
956844 Off ch=3 n=9 v=0
957217 On ch=3 n=36 v=100
957375 On ch=3 n=31 v=100
957387 Off ch=3 n=36 v=0
957488 On ch=3 n=8 v=100
957565 Off ch=3 n=31 v=0
958601 Off ch=3 n=8 v=0
960109 On ch=3 n=9 v=100
960564 On ch=3 n=30 v=100
960564 On ch=3 n=30 v=100
960588 On ch=3 n=16 v=100
960706 On ch=3 n=14 v=100
960707 On ch=3 n=16 v=100
960720 Off ch=3 n=9 v=0
961048 Off ch=3 n=16 v=0
961059 On ch=3 n=11 v=100
961098 Off ch=3 n=14 v=0
961133 Off ch=3 n=30 v=0
961133 Off ch=3 n=30 v=0
961164 Off ch=3 n=16 v=0
961403 Off ch=3 n=11 v=0
962090 On ch=3 n=28 v=100
962269 Off ch=3 n=28 v=0
962359 On ch=3 n=7 v=100
962389 Off ch=3 n=7 v=0
962391 On ch=3 n=9 v=100
962526 On ch=3 n=10 v=100
962529 Off ch=3 n=9 v=0
962730 Off ch=3 n=10 v=0
962873 On ch=3 n=11 v=100
963406 Off ch=3 n=11 v=0
963412 On ch=3 n=11 v=100
963538 Off ch=3 n=11 v=0
965909 On ch=3 n=11 v=100
966300 Off ch=3 n=11 v=0
966301 On ch=3 n=14 v=100
966462 On ch=3 n=21 v=100
966481 Off ch=3 n=14 v=0
967069 Off ch=3 n=21 v=0
967924 On ch=3 n=23 v=100
968238 Off ch=3 n=23 v=0
968262 On ch=3 n=24 v=100
968396 Off ch=3 n=24 v=0
969388 On ch=3 n=11 v=100
969675 Off ch=3 n=11 v=0
970134 On ch=3 n=9 v=100
970277 On ch=3 n=18 v=100
970301 Off ch=3 n=9 v=0
970409 Off ch=3 n=18 v=0
970617 On ch=3 n=16 v=100
970723 On ch=3 n=8 v=100
970726 Off ch=3 n=16 v=0
970829 On ch=3 n=48 v=100
970860 Off ch=3 n=8 v=0
970861 On ch=3 n=7 v=100
970871 On ch=3 n=30 v=100
970917 Off ch=3 n=48 v=0
970921 On ch=3 n=47 v=100
970921 On ch=3 n=47 v=100
971051 Off ch=3 n=7 v=0
971068 On ch=3 n=32 v=100
971115 Off ch=3 n=30 v=0
971127 On ch=3 n=8 v=100
971280 Off ch=3 n=32 v=0
971280 Off ch=3 n=8 v=0
971288 On ch=3 n=20 v=100
971351 Off ch=3 n=47 v=0
971351 Off ch=3 n=47 v=0
971712 Off ch=3 n=20 v=0
973712 On ch=3 n=12 v=100
973917 On ch=3 n=8 v=100
973920 Off ch=3 n=12 v=0
974646 Off ch=3 n=8 v=0
974814 On ch=3 n=16 v=100
974904 Off ch=3 n=16 v=0
975193 On ch=3 n=18 v=100
975242 Off ch=3 n=18 v=0
975246 On ch=3 n=11 v=100
975348 Off ch=3 n=11 v=0
975468 On ch=3 n=38 v=100
975768 Off ch=3 n=38 v=0
976467 On ch=3 n=13 v=100
976701 Off ch=3 n=13 v=0
976719 On ch=3 n=32 v=100
976978 On ch=3 n=17 v=100
977017 Off ch=3 n=32 v=0
977061 Off ch=3 n=17 v=0
977209 On ch=3 n=12 v=100
977301 Off ch=3 n=12 v=0
977311 On ch=3 n=5 v=100
977405 Off ch=3 n=5 v=0
977406 On ch=3 n=7 v=100
977474 Off ch=3 n=7 v=0
977874 On ch=3 n=22 v=100
978047 Off ch=3 n=22 v=0
978078 On ch=3 n=22 v=100
978108 Off ch=3 n=22 v=0
978170 On ch=3 n=22 v=100
978172 On ch=3 n=8 v=100
978200 Off ch=3 n=22 v=0
978407 Off ch=3 n=8 v=0
978449 On ch=3 n=8 v=100
978639 Off ch=3 n=8 v=0
979464 On ch=3 n=12 v=100
979492 Off ch=3 n=12 v=0
979537 On ch=3 n=12 v=100
979601 Off ch=3 n=12 v=0
979658 On ch=3 n=20 v=100
979697 Off ch=3 n=20 v=0
979787 On ch=3 n=20 v=100
979787 On ch=3 n=16 v=100
979919 Off ch=3 n=20 v=0
980090 On ch=3 n=10 v=100
980103 Off ch=3 n=16 v=0
980221 On ch=3 n=26 v=100
980367 Off ch=3 n=10 v=0
980367 Off ch=3 n=26 v=0
980406 On ch=3 n=17 v=100
980406 On ch=3 n=15 v=100
980406 On ch=3 n=26 v=100
980750 Off ch=3 n=26 v=0
980915 Off ch=3 n=17 v=0
981023 On ch=3 n=10 v=100
981025 Off ch=3 n=15 v=0
981146 Off ch=3 n=10 v=0
981174 On ch=3 n=11 v=100
981371 On ch=3 n=14 v=100
981546 Off ch=3 n=11 v=0
981572 Off ch=3 n=14 v=0
981573 On ch=3 n=5 v=100
982812 On ch=3 n=24 v=100
982919 Off ch=3 n=5 v=0
982961 Off ch=3 n=24 v=0
984305 On ch=3 n=23 v=100
984488 Off ch=3 n=23 v=0
984855 On ch=3 n=10 v=100
985597 Off ch=3 n=10 v=0
985663 On ch=3 n=36 v=100
985919 Off ch=3 n=36 v=0
986732 On ch=3 n=15 v=100
986982 Off ch=3 n=15 v=0
986985 On ch=3 n=14 v=100
987075 On ch=3 n=29 v=100
987134 On ch=3 n=36 v=100
987134 On ch=3 n=36 v=100
987177 On ch=3 n=11 v=100
987177 Off ch=3 n=14 v=0
987370 On ch=3 n=11 v=100
987370 Off ch=3 n=11 v=0
987376 Off ch=3 n=29 v=0
987480 Off ch=3 n=36 v=0
987480 Off ch=3 n=36 v=0
987508 Off ch=3 n=11 v=0
988259 On ch=3 n=32 v=100
988317 Off ch=3 n=32 v=0
988339 On ch=3 n=23 v=100
988411 Off ch=3 n=23 v=0
989576 On ch=3 n=12 v=100
989790 Off ch=3 n=12 v=0
989814 On ch=3 n=66 v=100
990016 Off ch=3 n=66 v=0
990885 On ch=3 n=31 v=100
991130 On ch=3 n=28 v=100
991293 Off ch=3 n=31 v=0
991309 On ch=3 n=59 v=100
991309 On ch=3 n=59 v=100
991315 Off ch=3 n=28 v=0
991335 On ch=3 n=33 v=100
991349 On ch=3 n=25 v=100
991362 On ch=3 n=9 v=100
991446 Off ch=3 n=33 v=0
991458 Off ch=3 n=59 v=0
991458 Off ch=3 n=59 v=0
991471 Off ch=3 n=9 v=0
991473 On ch=3 n=8 v=100
991473 Off ch=3 n=25 v=0
992710 On ch=3 n=35 v=100
992729 On ch=3 n=41 v=100
992730 On ch=3 n=44 v=100
992740 On ch=3 n=9 v=100
992742 Off ch=3 n=8 v=0
992746 On ch=3 n=35 v=100
992746 On ch=3 n=43 v=100
992748 On ch=3 n=38 v=100
992798 Off ch=3 n=35 v=0
992817 Off ch=3 n=9 v=0
992822 Off ch=3 n=41 v=0
992827 Off ch=3 n=35 v=0
992837 Off ch=3 n=44 v=0
992844 Off ch=3 n=43 v=0
992857 Off ch=3 n=38 v=0
993335 On ch=3 n=20 v=100
993520 On ch=3 n=35 v=100
993520 On ch=3 n=21 v=100
993544 On ch=3 n=32 v=100
993571 Off ch=3 n=20 v=0
993625 On ch=3 n=15 v=100
993627 Off ch=3 n=21 v=0
993644 Off ch=3 n=35 v=0
993666 Off ch=3 n=15 v=0
993668 On ch=3 n=15 v=100
993774 Off ch=3 n=32 v=0
993774 Off ch=3 n=15 v=0
993846 On ch=3 n=19 v=100
993939 On ch=3 n=32 v=100
993944 Off ch=3 n=19 v=0
993963 On ch=3 n=19 v=100
994014 Off ch=3 n=32 v=0
994049 Off ch=3 n=19 v=0
994065 On ch=3 n=18 v=100
994138 Off ch=3 n=18 v=0
994172 On ch=3 n=25 v=100
994344 On ch=3 n=23 v=100
994420 Off ch=3 n=25 v=0
994441 On ch=3 n=22 v=100
994442 Off ch=3 n=23 v=0
994500 Off ch=3 n=22 v=0
995606 On ch=3 n=7 v=100
995873 Off ch=3 n=7 v=0
996001 On ch=3 n=7 v=100
996104 Off ch=3 n=7 v=0
996430 On ch=3 n=6 v=100
996589 Off ch=3 n=6 v=0
996600 On ch=3 n=14 v=100
996628 Off ch=3 n=14 v=0
996657 On ch=3 n=5 v=100
997002 Off ch=3 n=5 v=0
997011 On ch=3 n=19 v=100
997867 Off ch=3 n=19 v=0
998913 On ch=3 n=17 v=100
999290 On ch=3 n=16 v=100
999356 Off ch=3 n=17 v=0
999385 Off ch=3 n=16 v=0
999905 On ch=3 n=14 v=100
1000025 Off ch=3 n=14 v=0
1000513 On ch=3 n=31 v=100
1000513 On ch=3 n=31 v=100
1001068 Off ch=3 n=31 v=0
1001068 Off ch=3 n=31 v=0
1005659 On ch=3 n=14 v=100
1005667 On ch=3 n=15 v=100
1005802 Off ch=3 n=14 v=0
1005832 Off ch=3 n=15 v=0
1005967 On ch=3 n=6 v=100
1006099 Off ch=3 n=6 v=0
1006174 On ch=3 n=39 v=100
1006263 Off ch=3 n=39 v=0
1006266 On ch=3 n=17 v=100
1006520 Off ch=3 n=17 v=0
1006667 On ch=3 n=14 v=100
1007139 Off ch=3 n=14 v=0
1007901 On ch=3 n=31 v=100
1008078 Off ch=3 n=31 v=0
1008508 On ch=3 n=33 v=100
1008558 On ch=3 n=21 v=100
1008562 Off ch=3 n=33 v=0
1008819 On ch=3 n=23 v=100
1008822 Off ch=3 n=21 v=0
1008993 Off ch=3 n=23 v=0
1009001 On ch=3 n=36 v=100
1009094 Off ch=3 n=36 v=0
1009484 On ch=3 n=9 v=100
1009525 Off ch=3 n=9 v=0
1011018 On ch=3 n=15 v=100
1011186 On ch=3 n=21 v=100
1011187 Off ch=3 n=15 v=0
1011242 On ch=3 n=10 v=100
1011325 Off ch=3 n=21 v=0
1011496 Off ch=3 n=10 v=0
1011526 On ch=3 n=17 v=100
1011526 On ch=3 n=19 v=100
1011871 Off ch=3 n=17 v=0
1011918 Off ch=3 n=19 v=0
1013448 On ch=3 n=21 v=100
1013552 On ch=3 n=12 v=100
1013658 On ch=3 n=39 v=100
1013717 Off ch=3 n=21 v=0
1013752 Off ch=3 n=12 v=0
1013795 Off ch=3 n=39 v=0
1013844 On ch=3 n=11 v=100
1014210 On ch=3 n=13 v=100
1014259 Off ch=3 n=11 v=0
1014318 Off ch=3 n=13 v=0
1014320 On ch=3 n=17 v=100
1014729 On ch=3 n=16 v=100
1014770 Off ch=3 n=17 v=0
1015382 Off ch=3 n=16 v=0
1016588 On ch=3 n=29 v=100
1016592 On ch=3 n=21 v=100
1016661 Off ch=3 n=29 v=0
1016674 Off ch=3 n=21 v=0
1017414 On ch=3 n=27 v=100
1017735 On ch=3 n=34 v=100
1017834 Off ch=3 n=27 v=0
1017857 Off ch=3 n=34 v=0
1018311 On ch=3 n=9 v=100
1018772 Off ch=3 n=9 v=0
1019041 On ch=3 n=29 v=100
1019048 On ch=3 n=12 v=100
1019114 On ch=3 n=8 v=100
1019121 On ch=3 n=20 v=100
1019473 Off ch=3 n=8 v=0
1019479 Off ch=3 n=12 v=0
1019601 Off ch=3 n=20 v=0
1019624 Off ch=3 n=29 v=0
1020409 On ch=3 n=20 v=100
1020569 Off ch=3 n=20 v=0
1020571 On ch=3 n=7 v=100
1020916 Off ch=3 n=7 v=0
1020918 On ch=3 n=11 v=100
1021337 On ch=3 n=22 v=100
1021360 Off ch=3 n=11 v=0
1021564 Off ch=3 n=22 v=0
1022759 On ch=3 n=15 v=100
1022940 Off ch=3 n=15 v=0
1024378 On ch=3 n=26 v=100
1025171 Off ch=3 n=26 v=0
1025672 On ch=3 n=14 v=100
1025888 Off ch=3 n=14 v=0
1025966 On ch=3 n=14 v=100
1026035 On ch=3 n=30 v=100
1026073 Off ch=3 n=14 v=0
1026150 Off ch=3 n=30 v=0
1026796 On ch=3 n=41 v=100
1026796 On ch=3 n=52 v=100
1026813 On ch=3 n=33 v=100
1026895 Off ch=3 n=41 v=0
1026895 Off ch=3 n=33 v=0
1026928 Off ch=3 n=52 v=0
1026996 On ch=3 n=30 v=100
1027318 Off ch=3 n=30 v=0
1027671 On ch=3 n=13 v=100
1027830 Off ch=3 n=13 v=0
1027866 On ch=3 n=13 v=100
1028133 On ch=3 n=21 v=100
1028270 Off ch=3 n=13 v=0
1028570 Off ch=3 n=21 v=0
1028820 On ch=3 n=10 v=100
1029289 On ch=3 n=13 v=100
1029294 Off ch=3 n=10 v=0
1029519 On ch=3 n=14 v=100
1029521 Off ch=3 n=13 v=0
1029680 Off ch=3 n=14 v=0
1029682 On ch=3 n=10 v=100
1029969 Off ch=3 n=10 v=0
1030360 On ch=3 n=25 v=100
1030422 Off ch=3 n=25 v=0
1031722 On ch=3 n=10 v=100
1031879 Off ch=3 n=10 v=0
1031932 On ch=3 n=7 v=100
1032150 On ch=3 n=26 v=100
1032220 On ch=3 n=14 v=100
1032277 Off ch=3 n=7 v=0
1032792 Off ch=3 n=26 v=0
1032876 Off ch=3 n=14 v=0
1033988 On ch=3 n=45 v=100
1034105 Off ch=3 n=45 v=0
1035018 On ch=3 n=21 v=100
1035438 Off ch=3 n=21 v=0
1036328 On ch=3 n=25 v=100
1036370 On ch=3 n=22 v=100
1036517 Off ch=3 n=25 v=0
1036531 Off ch=3 n=22 v=0
1036617 On ch=3 n=25 v=100
1036654 Off ch=3 n=25 v=0
1036656 On ch=3 n=13 v=100
1036695 Off ch=3 n=13 v=0
1036701 On ch=3 n=27 v=100
1036751 On ch=3 n=29 v=100
1036768 Off ch=3 n=27 v=0
1036799 On ch=3 n=23 v=100
1036819 Off ch=3 n=29 v=0
1037002 Off ch=3 n=23 v=0
1037049 On ch=3 n=7 v=100
1037192 Off ch=3 n=7 v=0
1038376 On ch=3 n=33 v=100
1038376 On ch=3 n=41 v=100
1038386 On ch=3 n=34 v=100
1038485 Off ch=3 n=33 v=0
1038520 Off ch=3 n=41 v=0
1038523 On ch=3 n=10 v=100
1038592 Off ch=3 n=34 v=0
1038885 Off ch=3 n=10 v=0
1038886 On ch=3 n=13 v=100
1039141 Off ch=3 n=13 v=0
1039162 On ch=3 n=30 v=100
1039297 Off ch=3 n=30 v=0
1040191 On ch=3 n=22 v=100
1040256 Off ch=3 n=22 v=0
1040635 On ch=3 n=9 v=100
1040969 On ch=3 n=9 v=100
1041155 Off ch=3 n=9 v=0
1041977 Off ch=3 n=9 v=0
1042294 On ch=3 n=9 v=100
1042308 On ch=3 n=10 v=100
1042418 Off ch=3 n=9 v=0
1042534 Off ch=3 n=10 v=0
1043326 On ch=3 n=37 v=100
1043357 On ch=3 n=19 v=100
1043438 Off ch=3 n=37 v=0
1043442 Off ch=3 n=19 v=0
1043592 On ch=3 n=23 v=100
1043802 On ch=3 n=21 v=100
1043805 Off ch=3 n=23 v=0
1043932 Off ch=3 n=21 v=0
1044286 On ch=3 n=11 v=100
1044454 Off ch=3 n=11 v=0
1044627 On ch=3 n=40 v=100
1044744 Off ch=3 n=40 v=0
1044832 On ch=3 n=12 v=100
1045812 Off ch=3 n=12 v=0
1046556 On ch=3 n=38 v=100
1046638 Off ch=3 n=38 v=0
1046761 On ch=3 n=9 v=100
1046818 Off ch=3 n=9 v=0
1046824 On ch=3 n=7 v=100
1047398 On ch=3 n=39 v=100
1047425 Off ch=3 n=7 v=0
1047501 Off ch=3 n=39 v=0
1047689 On ch=3 n=10 v=100
1047738 On ch=3 n=16 v=100
1047738 Off ch=3 n=10 v=0
1047831 Off ch=3 n=16 v=0
1048359 On ch=3 n=14 v=100
1048521 Off ch=3 n=14 v=0
1048522 On ch=3 n=16 v=100
1048663 Off ch=3 n=16 v=0
1050084 On ch=3 n=9 v=100
1050273 Off ch=3 n=9 v=0
1051144 On ch=3 n=25 v=100
1051144 On ch=3 n=25 v=100
1051209 On ch=3 n=17 v=100
1051369 On ch=3 n=16 v=100
1051732 Off ch=3 n=17 v=0
1051751 Off ch=3 n=25 v=0
1051751 Off ch=3 n=25 v=0
1051803 On ch=3 n=11 v=100
1051922 Off ch=3 n=16 v=0
1052053 Off ch=3 n=11 v=0
1052092 On ch=3 n=18 v=100
1052180 Off ch=3 n=18 v=0
1052316 On ch=3 n=36 v=100
1052317 On ch=3 n=25 v=100
1052520 Off ch=3 n=25 v=0
1052560 Off ch=3 n=36 v=0
1054001 On ch=3 n=19 v=100
1054412 Off ch=3 n=19 v=0
1054416 On ch=3 n=4 v=100
1054946 Off ch=3 n=4 v=0
1054948 On ch=3 n=12 v=100
1055479 Off ch=3 n=12 v=0
1055611 On ch=3 n=24 v=100
1055807 On ch=3 n=19 v=100
1056000 On ch=3 n=24 v=100
1056155 Off ch=3 n=24 v=0
1056225 Off ch=3 n=19 v=0
1056255 Off ch=3 n=24 v=0
1056590 On ch=3 n=20 v=100
1056787 Off ch=3 n=20 v=0
1056802 On ch=3 n=9 v=100
1057267 Off ch=3 n=9 v=0
1057271 On ch=3 n=19 v=100
1057408 On ch=3 n=14 v=100
1057414 Off ch=3 n=19 v=0
1057611 Off ch=3 n=14 v=0
1059586 On ch=3 n=28 v=100
1059586 On ch=3 n=28 v=100
1059630 On ch=3 n=51 v=100
1059639 On ch=3 n=9 v=100
1059671 On ch=3 n=57 v=100
1059671 On ch=3 n=57 v=100
1059777 Off ch=3 n=28 v=0
1059777 Off ch=3 n=9 v=0
1059777 Off ch=3 n=28 v=0
1059803 Off ch=3 n=51 v=0
1059875 Off ch=3 n=57 v=0
1059875 Off ch=3 n=57 v=0
1060707 On ch=3 n=20 v=100
1060785 Off ch=3 n=20 v=0
1060789 On ch=3 n=5 v=100
1060943 Off ch=3 n=5 v=0
1061296 On ch=3 n=32 v=100
1061307 On ch=3 n=42 v=100
1061344 On ch=3 n=39 v=100
1061532 Off ch=3 n=32 v=0
1061562 Off ch=3 n=42 v=0
1061636 Off ch=3 n=39 v=0
1061670 On ch=3 n=62 v=100
1061670 On ch=3 n=62 v=100
1061774 On ch=3 n=48 v=100
1061823 On ch=3 n=6 v=100
1061857 On ch=3 n=44 v=100
1061958 Off ch=3 n=48 v=0
1061987 Off ch=3 n=62 v=0
1061987 Off ch=3 n=62 v=0
1061996 Off ch=3 n=6 v=0
1062037 Off ch=3 n=44 v=0
1062087 On ch=3 n=8 v=100
1062892 Off ch=3 n=8 v=0
1063332 On ch=3 n=6 v=100
1063681 Off ch=3 n=6 v=0
1063746 On ch=3 n=11 v=100
1063756 On ch=3 n=34 v=100
1063789 On ch=3 n=20 v=100
1063848 Off ch=3 n=11 v=0
1064049 Off ch=3 n=20 v=0
1064078 Off ch=3 n=34 v=0
1065455 On ch=3 n=20 v=100
1065753 Off ch=3 n=20 v=0
1065922 On ch=3 n=9 v=100
1066199 Off ch=3 n=9 v=0
1066204 On ch=3 n=11 v=100
1066742 Off ch=3 n=11 v=0
1066751 On ch=3 n=17 v=100
1067208 Off ch=3 n=17 v=0
1067304 On ch=3 n=24 v=100
1068083 On ch=3 n=31 v=100
1068105 Off ch=3 n=24 v=0
1068248 On ch=3 n=19 v=100
1068342 Off ch=3 n=31 v=0
1068342 Off ch=3 n=19 v=0
1068374 On ch=3 n=13 v=100
1068375 On ch=3 n=31 v=100
1068375 On ch=3 n=19 v=100
1068695 Off ch=3 n=31 v=0
1068799 Off ch=3 n=13 v=0
1068857 On ch=3 n=11 v=100
1068863 Off ch=3 n=19 v=0
1068978 Off ch=3 n=11 v=0
1069742 On ch=3 n=21 v=100
1069944 On ch=3 n=11 v=100
1069957 Off ch=3 n=21 v=0
1070376 On ch=3 n=8 v=100
1070376 Off ch=3 n=11 v=0
1070686 Off ch=3 n=8 v=0
1070688 On ch=3 n=9 v=100
1070776 On ch=3 n=26 v=100
1070818 Off ch=3 n=9 v=0
1070909 Off ch=3 n=26 v=0
1071765 On ch=3 n=24 v=100
1071881 Off ch=3 n=24 v=0
1071972 On ch=3 n=10 v=100
1072286 Off ch=3 n=10 v=0
1073520 On ch=3 n=17 v=100
1073690 Off ch=3 n=17 v=0
1074054 On ch=3 n=10 v=100
1074406 Off ch=3 n=10 v=0
1074924 On ch=3 n=21 v=100
1074981 On ch=3 n=30 v=100
1074988 Off ch=3 n=21 v=0
1075003 On ch=3 n=29 v=100
1075004 On ch=3 n=35 v=100
1075034 On ch=3 n=40 v=100
1075096 Off ch=3 n=30 v=0
1075158 Off ch=3 n=29 v=0
1075180 Off ch=3 n=35 v=0
1075211 Off ch=3 n=40 v=0
1075457 On ch=3 n=43 v=100
1075577 Off ch=3 n=43 v=0
1079116 On ch=3 n=13 v=100
1079453 Off ch=3 n=13 v=0
1079463 On ch=3 n=12 v=100
1079784 Off ch=3 n=12 v=0
1080318 On ch=3 n=21 v=100
1080359 Off ch=3 n=21 v=0
1082768 On ch=3 n=12 v=100
1082977 Off ch=3 n=12 v=0
1082980 On ch=3 n=7 v=100
1083082 Off ch=3 n=7 v=0
1083127 On ch=3 n=16 v=100
1083234 On ch=3 n=8 v=100
1083239 Off ch=3 n=16 v=0
1083327 Off ch=3 n=8 v=0
1083923 On ch=3 n=49 v=100
1084002 Off ch=3 n=49 v=0
1084030 On ch=3 n=49 v=100
1084097 On ch=3 n=12 v=100
1084099 Off ch=3 n=49 v=0
1084381 On ch=3 n=21 v=100
1084382 Off ch=3 n=12 v=0
1084535 Off ch=3 n=21 v=0
1085451 On ch=3 n=20 v=100
1085488 Off ch=3 n=20 v=0
1085499 On ch=3 n=4 v=100
1085715 On ch=3 n=31 v=100
1085716 Off ch=3 n=4 v=0
1085932 Off ch=3 n=31 v=0
1086190 On ch=3 n=12 v=100
1086563 On ch=3 n=14 v=100
1086566 Off ch=3 n=12 v=0
1086708 Off ch=3 n=14 v=0
1086939 On ch=3 n=8 v=100
1087244 Off ch=3 n=8 v=0
1087249 On ch=3 n=4 v=100
1087322 On ch=3 n=10 v=100
1087324 Off ch=3 n=4 v=0
1087426 Off ch=3 n=10 v=0
1087789 On ch=3 n=11 v=100
1087795 On ch=3 n=22 v=100
1087795 On ch=3 n=22 v=100
1087848 On ch=3 n=16 v=100
1088245 Off ch=3 n=11 v=0
1088275 On ch=3 n=10 v=100
1088298 Off ch=3 n=16 v=0
1088341 Off ch=3 n=22 v=0
1088341 Off ch=3 n=22 v=0
1088474 Off ch=3 n=10 v=0
1088512 On ch=3 n=6 v=100
1088738 Off ch=3 n=6 v=0
1088884 On ch=3 n=31 v=100
1089027 Off ch=3 n=31 v=0
1089453 On ch=3 n=13 v=100
1089615 Off ch=3 n=13 v=0
1090435 On ch=3 n=33 v=100
1090436 On ch=3 n=36 v=100
1090436 On ch=3 n=36 v=100
1090447 On ch=3 n=10 v=100
1090640 Off ch=3 n=10 v=0
1090654 Off ch=3 n=36 v=0
1090654 Off ch=3 n=36 v=0
1090695 On ch=3 n=19 v=100
1090703 Off ch=3 n=33 v=0
1090798 On ch=3 n=3 v=100
1090970 On ch=3 n=15 v=100
1090982 Off ch=3 n=19 v=0
1091202 Off ch=3 n=3 v=0
1091275 Off ch=3 n=15 v=0
1092422 On ch=3 n=8 v=100
1093033 On ch=3 n=16 v=100
1093040 Off ch=3 n=8 v=0
1093065 Off ch=3 n=16 v=0
1094077 On ch=3 n=17 v=100
1094342 On ch=3 n=9 v=100
1094367 Off ch=3 n=17 v=0
1094711 Off ch=3 n=9 v=0
1097010 On ch=3 n=34 v=100
1097123 Off ch=3 n=34 v=0
1097649 On ch=3 n=12 v=100
1098521 Off ch=3 n=12 v=0
1098609 On ch=3 n=17 v=100
1098647 On ch=3 n=22 v=100
1098688 Off ch=3 n=17 v=0
1098758 Off ch=3 n=22 v=0
1100093 On ch=3 n=10 v=100
1101006 Off ch=3 n=10 v=0
1101025 On ch=3 n=34 v=100
1101162 Off ch=3 n=34 v=0
1101764 On ch=3 n=29 v=100
1101877 On ch=3 n=33 v=100
1102080 Off ch=3 n=29 v=0
1102121 Off ch=3 n=33 v=0
1102839 On ch=3 n=21 v=100
1103069 Off ch=3 n=21 v=0
1103081 On ch=3 n=17 v=100
1103440 Off ch=3 n=17 v=0
1103444 On ch=3 n=25 v=100
1103605 Off ch=3 n=25 v=0
1103614 On ch=3 n=11 v=100
1103649 Off ch=3 n=11 v=0
1103687 On ch=3 n=31 v=100
1103696 On ch=3 n=22 v=100
1103755 Off ch=3 n=31 v=0
1103755 Off ch=3 n=22 v=0
1104440 On ch=3 n=27 v=100
1104656 Off ch=3 n=27 v=0
1105913 On ch=3 n=50 v=100
1105932 On ch=3 n=17 v=100
1105948 On ch=3 n=7 v=100
1105985 Off ch=3 n=50 v=0
1106041 On ch=3 n=14 v=100
1106044 Off ch=3 n=17 v=0
1106490 Off ch=3 n=7 v=0
1106582 Off ch=3 n=14 v=0
1108529 On ch=3 n=16 v=100
1108822 On ch=3 n=18 v=100
1108823 Off ch=3 n=16 v=0
1108943 On ch=3 n=32 v=100
1108958 Off ch=3 n=18 v=0
1108958 Off ch=3 n=32 v=0
1109011 On ch=3 n=18 v=100
1109011 On ch=3 n=32 v=100
1109282 On ch=3 n=16 v=100
1109282 On ch=3 n=16 v=100
1109307 Off ch=3 n=18 v=0
1109315 On ch=3 n=8 v=100
1109651 Off ch=3 n=32 v=0
1109651 Off ch=3 n=8 v=0
1109712 Off ch=3 n=16 v=0
1109712 Off ch=3 n=16 v=0
1110397 On ch=3 n=6 v=100
1110815 Off ch=3 n=6 v=0
1110890 On ch=3 n=29 v=100
1111069 On ch=3 n=10 v=100
1111152 Off ch=3 n=29 v=0
1111215 Off ch=3 n=10 v=0
1111233 On ch=3 n=12 v=100
1111317 Off ch=3 n=12 v=0
1112708 On ch=3 n=28 v=100
1113183 Off ch=3 n=28 v=0
1113818 On ch=3 n=13 v=100
1113818 On ch=3 n=22 v=100
1113868 Off ch=3 n=13 v=0
1113880 Off ch=3 n=22 v=0
1114764 On ch=3 n=34 v=100
1114774 On ch=3 n=8 v=100
1114820 Off ch=3 n=34 v=0
1115352 Off ch=3 n=8 v=0
1115375 On ch=3 n=17 v=100
1115882 Off ch=3 n=17 v=0
1115911 On ch=3 n=17 v=100
1116246 Off ch=3 n=17 v=0
1117091 On ch=3 n=14 v=100
1117091 On ch=3 n=33 v=100
1117356 Off ch=3 n=14 v=0
1117391 Off ch=3 n=33 v=0
1118320 On ch=3 n=27 v=100
1118343 On ch=3 n=9 v=100
1118461 Off ch=3 n=27 v=0
1119134 Off ch=3 n=9 v=0
1119136 On ch=3 n=16 v=100
1119289 Off ch=3 n=16 v=0
1120208 On ch=3 n=31 v=100
1120498 Off ch=3 n=31 v=0
1122087 On ch=3 n=34 v=100
1122239 Off ch=3 n=34 v=0
1122514 On ch=3 n=22 v=100
1122589 On ch=3 n=13 v=100
1122594 On ch=3 n=17 v=100
1122755 Off ch=3 n=22 v=0
1122755 Off ch=3 n=13 v=0
1122777 Off ch=3 n=17 v=0
1124440 On ch=3 n=45 v=100
1124526 On ch=3 n=30 v=100
1124567 On ch=3 n=25 v=100
1124596 On ch=3 n=38 v=100
1124736 Off ch=3 n=30 v=0
1124747 Off ch=3 n=45 v=0
1124747 Off ch=3 n=25 v=0
1124749 On ch=3 n=24 v=100
1124861 Off ch=3 n=38 v=0
1124959 On ch=3 n=14 v=100
1125132 Off ch=3 n=24 v=0
1125340 On ch=3 n=26 v=100
1125342 Off ch=3 n=14 v=0
1125415 Off ch=3 n=26 v=0
1125468 On ch=3 n=42 v=100
1125484 On ch=3 n=28 v=100
1125484 On ch=3 n=27 v=100
1125581 Off ch=3 n=28 v=0
1125590 Off ch=3 n=42 v=0
1125593 Off ch=3 n=27 v=0
1128549 On ch=3 n=6 v=100
1128549 On ch=3 n=51 v=100
1128716 Off ch=3 n=6 v=0
1128825 Off ch=3 n=51 v=0
1128876 On ch=3 n=17 v=100
1129002 On ch=3 n=18 v=100
1129120 Off ch=3 n=17 v=0
1129156 Off ch=3 n=18 v=0
1129686 On ch=3 n=9 v=100
1130826 Off ch=3 n=9 v=0
1130832 On ch=3 n=40 v=100
1130899 On ch=3 n=31 v=100
1130998 Off ch=3 n=40 v=0
1131202 Off ch=3 n=31 v=0
1132121 On ch=3 n=40 v=100
1132332 Off ch=3 n=40 v=0
1132658 On ch=3 n=35 v=100
1132821 Off ch=3 n=35 v=0
1132825 On ch=3 n=40 v=100
1132942 Off ch=3 n=40 v=0
1134557 On ch=3 n=35 v=100
1134759 Off ch=3 n=35 v=0
1136075 On ch=3 n=35 v=100
1136082 On ch=3 n=26 v=100
1136320 Off ch=3 n=26 v=0
1136418 Off ch=3 n=35 v=0
1136848 On ch=3 n=8 v=100
1136868 On ch=3 n=19 v=100
1136891 On ch=3 n=5 v=100
1136898 Off ch=3 n=8 v=0
1137083 Off ch=3 n=5 v=0
1137083 Off ch=3 n=19 v=0
1137820 On ch=3 n=26 v=100
1138020 Off ch=3 n=26 v=0
1139914 On ch=3 n=8 v=100
1140335 On ch=3 n=10 v=100
1140336 Off ch=3 n=8 v=0
1140861 Off ch=3 n=10 v=0
1140967 On ch=3 n=5 v=100
1141265 Off ch=3 n=5 v=0
1141549 On ch=3 n=2 v=100
1142750 Off ch=3 n=2 v=0
1142835 On ch=3 n=2 v=100
1144887 Off ch=3 n=2 v=0
1144919 On ch=3 n=29 v=100
1145166 Off ch=3 n=29 v=0
1145273 On ch=3 n=34 v=100
1145273 On ch=3 n=34 v=100
1145412 Off ch=3 n=34 v=0
1145412 Off ch=3 n=34 v=0
1145533 On ch=3 n=29 v=100
1145559 On ch=3 n=13 v=100
1145673 On ch=3 n=45 v=100
1145673 On ch=3 n=45 v=100
1145676 Off ch=3 n=29 v=0
1145690 Off ch=3 n=13 v=0
1145728 On ch=3 n=26 v=100
1145728 On ch=3 n=41 v=100
1145780 Off ch=3 n=26 v=0
1145834 Off ch=3 n=41 v=0
1145937 Off ch=3 n=45 v=0
1145937 Off ch=3 n=45 v=0
1146914 On ch=3 n=8 v=100
1147317 Off ch=3 n=8 v=0
1147318 On ch=3 n=10 v=100
1147565 On ch=3 n=17 v=100
1147565 Off ch=3 n=10 v=0
1147755 Off ch=3 n=17 v=0
1147759 On ch=3 n=6 v=100
1147898 Off ch=3 n=6 v=0
1148751 On ch=3 n=22 v=100
1148878 Off ch=3 n=22 v=0
1148907 On ch=3 n=12 v=100
1149142 Off ch=3 n=12 v=0
1149153 On ch=3 n=15 v=100
1149162 On ch=3 n=19 v=100
1149164 On ch=3 n=17 v=100
1149233 Off ch=3 n=17 v=0
1149234 Off ch=3 n=15 v=0
1149245 Off ch=3 n=19 v=0
1149426 On ch=3 n=20 v=100
1149546 Off ch=3 n=20 v=0
1150083 On ch=3 n=12 v=100
1150083 On ch=3 n=18 v=100
1150083 On ch=3 n=23 v=100
1150450 Off ch=3 n=12 v=0
1150540 Off ch=3 n=18 v=0
1150703 Off ch=3 n=23 v=0
1150868 On ch=3 n=24 v=100
1150998 On ch=3 n=20 v=100
1151201 Off ch=3 n=24 v=0
1151600 On ch=3 n=15 v=100
1151641 On ch=3 n=13 v=100
1151651 On ch=3 n=19 v=100
1151803 Off ch=3 n=20 v=0
1151969 Off ch=3 n=15 v=0
1152056 Off ch=3 n=13 v=0
1152118 Off ch=3 n=19 v=0
1153567 On ch=3 n=34 v=100
1153664 Off ch=3 n=34 v=0
1154068 On ch=3 n=40 v=100
1154191 On ch=3 n=14 v=100
1154221 On ch=3 n=21 v=100
1154221 On ch=3 n=26 v=100
1154222 On ch=3 n=12 v=100
1154317 Off ch=3 n=40 v=0
1154322 Off ch=3 n=14 v=0
1154332 Off ch=3 n=12 v=0
1154355 Off ch=3 n=21 v=0
1154413 Off ch=3 n=26 v=0
1155319 On ch=3 n=36 v=100
1155433 Off ch=3 n=36 v=0
1155743 On ch=3 n=10 v=100
1155967 On ch=3 n=48 v=100
1155967 On ch=3 n=48 v=100
1156056 Off ch=3 n=10 v=0
1156059 On ch=3 n=32 v=100
1156189 Off ch=3 n=32 v=0
1156210 Off ch=3 n=48 v=0
1156210 Off ch=3 n=48 v=0
1156752 On ch=3 n=31 v=100
1156877 Off ch=3 n=31 v=0
1157033 On ch=3 n=38 v=100
1157156 Off ch=3 n=38 v=0
1158026 On ch=3 n=27 v=100
1158026 On ch=3 n=40 v=100
1158031 On ch=3 n=18 v=100
1158078 Off ch=3 n=18 v=0
1158092 Off ch=3 n=27 v=0
1158151 Off ch=3 n=40 v=0
1159645 On ch=3 n=14 v=100
1159923 On ch=3 n=20 v=100
1159923 On ch=3 n=49 v=100
1159923 On ch=3 n=58 v=100
1159954 Off ch=3 n=14 v=0
1159966 Off ch=3 n=20 v=0
1160089 On ch=3 n=6 v=100
1160113 Off ch=3 n=49 v=0
1160136 Off ch=3 n=58 v=0
1160215 Off ch=3 n=6 v=0
1160594 On ch=3 n=10 v=100
1161154 On ch=3 n=47 v=100
1161175 Off ch=3 n=10 v=0
1161205 On ch=3 n=10 v=100
1161225 Off ch=3 n=47 v=0
1161768 Off ch=3 n=10 v=0
1166987 On ch=3 n=19 v=100
1167032 Off ch=3 n=19 v=0
1167244 On ch=3 n=46 v=100
1167394 On ch=3 n=43 v=100
1167396 Off ch=3 n=46 v=0
1167498 Off ch=3 n=43 v=0
1167638 On ch=3 n=26 v=100
1167726 On ch=3 n=41 v=100
1167726 On ch=3 n=41 v=100
1167762 Off ch=3 n=26 v=0
1167782 On ch=3 n=23 v=100
1168020 Off ch=3 n=23 v=0
1168040 On ch=3 n=28 v=100
1168044 Off ch=3 n=41 v=0
1168044 Off ch=3 n=41 v=0
1168084 Off ch=3 n=28 v=0
1169215 On ch=3 n=20 v=100
1169424 Off ch=3 n=20 v=0
1169435 On ch=3 n=50 v=100
1169458 On ch=3 n=31 v=100
1169491 On ch=3 n=26 v=100
1169518 On ch=3 n=54 v=100
1169648 Off ch=3 n=50 v=0
1169648 Off ch=3 n=31 v=0
1169649 Off ch=3 n=26 v=0
1169651 On ch=3 n=12 v=100
1169784 Off ch=3 n=54 v=0
1170797 On ch=3 n=36 v=100
1170812 Off ch=3 n=12 v=0
1170827 On ch=3 n=32 v=100
1170945 Off ch=3 n=36 v=0
1170967 Off ch=3 n=32 v=0
1172670 On ch=3 n=26 v=100
1172782 Off ch=3 n=26 v=0
1174823 On ch=3 n=31 v=100
1174885 On ch=3 n=38 v=100
1174885 On ch=3 n=38 v=100
1174919 Off ch=3 n=31 v=0
1174947 On ch=3 n=18 v=100
1175017 Off ch=3 n=18 v=0
1175025 On ch=3 n=24 v=100
1175111 Off ch=3 n=38 v=0
1175111 Off ch=3 n=38 v=0
1175128 Off ch=3 n=24 v=0
1175172 On ch=3 n=16 v=100
1175360 On ch=3 n=13 v=100
1175384 Off ch=3 n=16 v=0
1175927 Off ch=3 n=13 v=0
1177597 On ch=3 n=15 v=100
1177812 Off ch=3 n=15 v=0
1179102 On ch=3 n=24 v=100
1179145 On ch=3 n=23 v=100
1179157 On ch=3 n=12 v=100
1179157 Off ch=3 n=24 v=0
1179214 Off ch=3 n=23 v=0
1179583 Off ch=3 n=12 v=0
1180998 On ch=3 n=12 v=100
1181000 On ch=3 n=39 v=100
1181066 On ch=3 n=15 v=100
1181066 Off ch=3 n=12 v=0
1181074 Off ch=3 n=39 v=0
1181181 Off ch=3 n=15 v=0
1182128 On ch=3 n=34 v=100
1182171 Off ch=3 n=34 v=0
1182219 On ch=3 n=34 v=100
1182219 On ch=3 n=34 v=100
1182271 On ch=3 n=17 v=100
1182314 On ch=3 n=11 v=100
1182314 On ch=3 n=11 v=100
1182443 Off ch=3 n=34 v=0
1182443 Off ch=3 n=17 v=0
1182443 Off ch=3 n=34 v=0
1182474 Off ch=3 n=11 v=0
1182474 Off ch=3 n=11 v=0
1183892 On ch=3 n=15 v=100
1184096 Off ch=3 n=15 v=0
1184450 On ch=3 n=33 v=100
1184450 On ch=3 n=50 v=100
1184450 On ch=3 n=50 v=100
1184489 On ch=3 n=32 v=100
1184489 On ch=3 n=32 v=100
1184709 Off ch=3 n=33 v=0
1184737 Off ch=3 n=32 v=0
1184737 Off ch=3 n=32 v=0
1184817 On ch=3 n=32 v=100
1184837 On ch=3 n=47 v=100
1184837 On ch=3 n=47 v=100
1184863 On ch=3 n=41 v=100
1184863 Off ch=3 n=32 v=0
1184910 Off ch=3 n=50 v=0
1184910 Off ch=3 n=50 v=0
1184951 Off ch=3 n=47 v=0
1184951 Off ch=3 n=47 v=0
1184986 On ch=3 n=44 v=100
1185012 On ch=3 n=37 v=100
1185019 Off ch=3 n=41 v=0
1185034 On ch=3 n=10 v=100
1185114 Off ch=3 n=37 v=0
1185163 On ch=3 n=48 v=100
1185163 On ch=3 n=48 v=100
1185164 Off ch=3 n=44 v=0
1185222 Off ch=3 n=10 v=0
1185239 On ch=3 n=18 v=100
1185298 Off ch=3 n=18 v=0
1185328 Off ch=3 n=48 v=0
1185328 Off ch=3 n=48 v=0
1185346 On ch=3 n=30 v=100
1185716 Off ch=3 n=30 v=0
1186864 On ch=3 n=19 v=100
1187096 On ch=3 n=17 v=100
1187128 Off ch=3 n=19 v=0
1187133 Off ch=3 n=17 v=0
1187134 On ch=3 n=9 v=100
1187614 Off ch=3 n=9 v=0
1187693 On ch=3 n=27 v=100
1187952 Off ch=3 n=27 v=0
1188072 On ch=3 n=10 v=100
1188260 Off ch=3 n=10 v=0
1188792 On ch=3 n=7 v=100
1188971 Off ch=3 n=7 v=0
1188981 On ch=3 n=8 v=100
1189451 Off ch=3 n=8 v=0
1190284 On ch=3 n=16 v=100
1190423 Off ch=3 n=16 v=0
1193700 On ch=3 n=33 v=100
1193710 On ch=3 n=29 v=100
1193710 On ch=3 n=29 v=100
1193765 On ch=3 n=22 v=100
1193791 On ch=3 n=15 v=100
1193797 On ch=3 n=48 v=100
1193896 Off ch=3 n=22 v=0
1193903 Off ch=3 n=15 v=0
1193906 Off ch=3 n=33 v=0
1193958 Off ch=3 n=29 v=0
1193958 Off ch=3 n=29 v=0
1193959 On ch=3 n=22 v=100
1194004 Off ch=3 n=48 v=0
1194410 Off ch=3 n=22 v=0
1194423 On ch=3 n=27 v=100
1194724 Off ch=3 n=27 v=0
1194736 On ch=3 n=11 v=100
1194819 Off ch=3 n=11 v=0
1194841 On ch=3 n=10 v=100
1195014 On ch=3 n=37 v=100
1195053 Off ch=3 n=10 v=0
1195149 Off ch=3 n=37 v=0
1195184 On ch=3 n=28 v=100
1195344 On ch=3 n=14 v=100
1195351 Off ch=3 n=28 v=0
1195481 On ch=3 n=10 v=100
1195484 Off ch=3 n=14 v=0
1195571 Off ch=3 n=10 v=0
1195574 On ch=3 n=12 v=100
1196321 On ch=3 n=9 v=100
1196322 Off ch=3 n=12 v=0
1196654 On ch=3 n=22 v=100
1196654 Off ch=3 n=9 v=0
1196941 Off ch=3 n=22 v=0
1197894 On ch=3 n=24 v=100
1198197 Off ch=3 n=24 v=0
1198220 On ch=3 n=41 v=100
1198478 Off ch=3 n=41 v=0
1198705 On ch=3 n=29 v=100
1198838 Off ch=3 n=29 v=0
1200026 On ch=3 n=13 v=100
1200329 Off ch=3 n=13 v=0
1202104 On ch=3 n=11 v=100
1202347 Off ch=3 n=11 v=0
1203093 On ch=3 n=30 v=100
1203104 On ch=3 n=20 v=100
1203167 Off ch=3 n=30 v=0
1203171 Off ch=3 n=20 v=0
1203404 On ch=3 n=9 v=100
1203486 Off ch=3 n=9 v=0
1203488 On ch=3 n=14 v=100
1203716 Off ch=3 n=14 v=0
1203828 On ch=3 n=16 v=100
1204283 On ch=3 n=35 v=100
1204297 Off ch=3 n=16 v=0
1204341 Off ch=3 n=35 v=0
1204436 On ch=3 n=20 v=100
1204618 Off ch=3 n=20 v=0
1205113 On ch=3 n=32 v=100
1205201 Off ch=3 n=32 v=0
1205357 On ch=3 n=36 v=100
1205398 On ch=3 n=9 v=100
1205536 Off ch=3 n=36 v=0
1205558 Off ch=3 n=9 v=0
1205722 On ch=3 n=16 v=100
1205997 Off ch=3 n=16 v=0
1207176 On ch=3 n=44 v=100
1207299 On ch=3 n=32 v=100
1207328 On ch=3 n=32 v=100
1207476 Off ch=3 n=44 v=0
1207560 Off ch=3 n=32 v=0
1207578 Off ch=3 n=32 v=0
1210720 On ch=3 n=37 v=100
1210821 Off ch=3 n=37 v=0
1211606 On ch=3 n=19 v=100
1211672 On ch=3 n=7 v=100
1211672 Off ch=3 n=19 v=0
1212070 Off ch=3 n=7 v=0
1212083 On ch=3 n=7 v=100
1212729 Off ch=3 n=7 v=0
1212743 On ch=3 n=18 v=100
1213210 Off ch=3 n=18 v=0
1213833 On ch=3 n=10 v=100
1214403 Off ch=3 n=10 v=0
1214481 On ch=3 n=10 v=100
1214490 Off ch=3 n=10 v=0
1214588 On ch=3 n=31 v=100
1214603 On ch=3 n=27 v=100
1214721 Off ch=3 n=31 v=0
1214855 Off ch=3 n=27 v=0
1214994 On ch=3 n=15 v=100
1215042 On ch=3 n=1 v=100
1215046 Off ch=3 n=15 v=0
1215124 Off ch=3 n=1 v=0
1215125 On ch=3 n=16 v=100
1215192 Off ch=3 n=16 v=0
1216780 On ch=3 n=25 v=100
1216891 Off ch=3 n=25 v=0
1217464 On ch=3 n=27 v=100
1217538 Off ch=3 n=27 v=0
1218029 On ch=3 n=2 v=100
1219220 On ch=3 n=31 v=100
1219225 Off ch=3 n=2 v=0
1219227 On ch=3 n=15 v=100
1219236 On ch=3 n=21 v=100
1219279 Off ch=3 n=31 v=0
1219302 Off ch=3 n=15 v=0
1219324 Off ch=3 n=21 v=0
1219350 On ch=3 n=35 v=100
1219439 On ch=3 n=54 v=100
1219524 Off ch=3 n=35 v=0
1219534 On ch=3 n=6 v=100
1219577 Off ch=3 n=54 v=0
1220119 Off ch=3 n=6 v=0
1220121 On ch=3 n=26 v=100
1220164 On ch=3 n=30 v=100
1220206 Off ch=3 n=26 v=0
1220215 Off ch=3 n=30 v=0
1221108 On ch=3 n=33 v=100
1221380 Off ch=3 n=33 v=0
1221383 On ch=3 n=27 v=100
1221453 Off ch=3 n=27 v=0
1221462 On ch=3 n=23 v=100
1221553 Off ch=3 n=23 v=0
1221558 On ch=3 n=10 v=100
1221956 On ch=3 n=18 v=100
1221957 Off ch=3 n=10 v=0
1222123 Off ch=3 n=18 v=0
1222127 On ch=3 n=3 v=100
1223280 Off ch=3 n=3 v=0
1223915 On ch=3 n=36 v=100
1224019 Off ch=3 n=36 v=0
1224032 On ch=3 n=51 v=100
1224084 Off ch=3 n=51 v=0
1224177 On ch=3 n=38 v=100
1224438 Off ch=3 n=38 v=0
1224846 On ch=3 n=7 v=100
1225042 On ch=3 n=47 v=100
1225352 On ch=3 n=11 v=100
1225353 Off ch=3 n=7 v=0
1225536 Off ch=3 n=47 v=0
1225609 On ch=3 n=34 v=100
1225689 Off ch=3 n=11 v=0
1225732 On ch=3 n=24 v=100
1225822 Off ch=3 n=34 v=0
1225831 On ch=3 n=12 v=100
1225850 On ch=3 n=16 v=100
1225982 Off ch=3 n=24 v=0
1225982 Off ch=3 n=12 v=0
1226050 Off ch=3 n=16 v=0
1227007 On ch=3 n=35 v=100
1227090 Off ch=3 n=35 v=0
1227106 On ch=3 n=11 v=100
1227553 Off ch=3 n=11 v=0
1228699 On ch=3 n=34 v=100
1228699 On ch=3 n=34 v=100
1228780 On ch=3 n=17 v=100
1228863 On ch=3 n=21 v=100
1228863 On ch=3 n=21 v=100
1228885 On ch=3 n=13 v=100
1228891 On ch=3 n=17 v=100
1228894 On ch=3 n=34 v=100
1229259 Off ch=3 n=17 v=0
1229261 Off ch=3 n=13 v=0
1229323 Off ch=3 n=17 v=0
1229345 Off ch=3 n=34 v=0
1229345 Off ch=3 n=34 v=0
1229400 Off ch=3 n=21 v=0
1229400 Off ch=3 n=21 v=0
1229465 Off ch=3 n=34 v=0
1230102 On ch=3 n=11 v=100
1231139 On ch=3 n=6 v=100
1231141 Off ch=3 n=11 v=0
1231360 Off ch=3 n=6 v=0
1231786 On ch=3 n=9 v=100
1232366 Off ch=3 n=9 v=0
1232380 On ch=3 n=6 v=100
1232924 On ch=3 n=5 v=100
1232925 Off ch=3 n=6 v=0
1232961 Off ch=3 n=5 v=0
1234123 On ch=3 n=22 v=100
1234129 On ch=3 n=32 v=100
1234509 Off ch=3 n=22 v=0
1234575 On ch=3 n=18 v=100
1234747 Off ch=3 n=32 v=0
1234787 On ch=3 n=25 v=100
1234791 On ch=3 n=9 v=100
1235175 Off ch=3 n=18 v=0
1235179 Off ch=3 n=9 v=0
1235346 Off ch=3 n=25 v=0
1236035 On ch=3 n=20 v=100
1236519 Off ch=3 n=20 v=0
1236535 On ch=3 n=29 v=100
1236652 On ch=3 n=43 v=100
1236679 On ch=3 n=48 v=100
1236788 Off ch=3 n=29 v=0
1236805 Off ch=3 n=48 v=0
1236809 Off ch=3 n=43 v=0
1238278 On ch=3 n=53 v=100
1238278 On ch=3 n=53 v=100
1238301 On ch=3 n=40 v=100
1238342 On ch=3 n=34 v=100
1238444 On ch=3 n=24 v=100
1238514 Off ch=3 n=40 v=0
1238521 On ch=3 n=38 v=100
1238523 On ch=3 n=45 v=100
1238572 Off ch=3 n=53 v=0
1238572 Off ch=3 n=53 v=0
1238603 Off ch=3 n=34 v=0
1238704 Off ch=3 n=24 v=0
1238742 Off ch=3 n=38 v=0
1238792 Off ch=3 n=45 v=0
1239738 On ch=3 n=34 v=100
1239738 On ch=3 n=34 v=100
1239753 On ch=3 n=18 v=100
1239976 Off ch=3 n=18 v=0
1240013 Off ch=3 n=34 v=0
1240013 Off ch=3 n=34 v=0
1240116 On ch=3 n=22 v=100
1240116 On ch=3 n=22 v=100
1240145 On ch=3 n=27 v=100
1240168 On ch=3 n=14 v=100
1240172 On ch=3 n=29 v=100
1240176 On ch=3 n=21 v=100
1240320 Off ch=3 n=14 v=0
1240326 Off ch=3 n=27 v=0
1240340 Off ch=3 n=22 v=0
1240340 Off ch=3 n=22 v=0
1240363 Off ch=3 n=21 v=0
1240450 Off ch=3 n=29 v=0
1241363 On ch=3 n=24 v=100
1241363 On ch=3 n=24 v=100
1241375 On ch=3 n=21 v=100
1241477 Off ch=3 n=21 v=0
1241541 Off ch=3 n=24 v=0
1241541 Off ch=3 n=24 v=0
1243068 On ch=3 n=32 v=100
1243157 Off ch=3 n=32 v=0
1243442 On ch=3 n=52 v=100
1243459 On ch=3 n=52 v=100
1244094 On ch=3 n=20 v=100
1244415 On ch=3 n=41 v=100
1244560 Off ch=3 n=52 v=0
1244613 Off ch=3 n=52 v=0
1244747 On ch=3 n=11 v=100
1244754 Off ch=3 n=20 v=0
1244822 Off ch=3 n=41 v=0
1245039 On ch=3 n=41 v=100
1245039 On ch=3 n=41 v=100
1245212 On ch=3 n=28 v=100
1245212 On ch=3 n=28 v=100
1245278 On ch=3 n=31 v=100
1245338 Off ch=3 n=11 v=0
1245596 On ch=3 n=38 v=100
1245643 Off ch=3 n=41 v=0
1245643 Off ch=3 n=41 v=0
1245651 Off ch=3 n=31 v=0
1245680 Off ch=3 n=28 v=0
1245680 Off ch=3 n=28 v=0
1245775 Off ch=3 n=38 v=0
1245930 On ch=3 n=6 v=100
1246129 Off ch=3 n=6 v=0
1247839 On ch=3 n=21 v=100
1248044 Off ch=3 n=21 v=0
1248048 On ch=3 n=18 v=100
1248366 On ch=3 n=29 v=100
1248410 On ch=3 n=18 v=100
1248414 On ch=3 n=14 v=100
1248429 Off ch=3 n=18 v=0
1248604 Off ch=3 n=29 v=0
1248779 On ch=3 n=20 v=100
1248795 Off ch=3 n=14 v=0
1248844 Off ch=3 n=18 v=0
1248958 Off ch=3 n=20 v=0
1249129 On ch=3 n=22 v=100
1249412 Off ch=3 n=22 v=0
1249515 On ch=3 n=9 v=100
1249836 Off ch=3 n=9 v=0
1250296 On ch=3 n=40 v=100
1250328 On ch=3 n=47 v=100
1250329 On ch=3 n=31 v=100
1250502 Off ch=3 n=40 v=0
1250527 Off ch=3 n=31 v=0
1250583 Off ch=3 n=47 v=0
1254053 On ch=3 n=33 v=100
1254156 Off ch=3 n=33 v=0
1254168 On ch=3 n=22 v=100
1254298 Off ch=3 n=22 v=0
1254424 On ch=3 n=13 v=100
1254611 Off ch=3 n=13 v=0
1254614 On ch=3 n=18 v=100
1255147 Off ch=3 n=18 v=0
1255148 On ch=3 n=9 v=100
1255574 On ch=3 n=15 v=100
1255593 Off ch=3 n=9 v=0
1256056 On ch=3 n=19 v=100
1256059 Off ch=3 n=15 v=0
1256162 Off ch=3 n=19 v=0
1256168 On ch=3 n=13 v=100
1256368 Off ch=3 n=13 v=0
1256422 On ch=3 n=18 v=100
1256578 Off ch=3 n=18 v=0
1257302 On ch=3 n=6 v=100
1257638 On ch=3 n=26 v=100
1257702 On ch=3 n=21 v=100
1257731 Off ch=3 n=6 v=0
1257861 On ch=3 n=12 v=100
1257868 Off ch=3 n=26 v=0
1257896 Off ch=3 n=21 v=0
1257959 Off ch=3 n=12 v=0
1259565 On ch=3 n=11 v=100
1259982 Off ch=3 n=11 v=0
1260365 On ch=3 n=10 v=100
1260600 Off ch=3 n=10 v=0
1261370 On ch=3 n=47 v=100
1261409 On ch=3 n=22 v=100
1261410 On ch=3 n=30 v=100
1261415 On ch=3 n=12 v=100
1261608 Off ch=3 n=12 v=0
1261619 Off ch=3 n=47 v=0
1261625 Off ch=3 n=22 v=0
1261657 Off ch=3 n=30 v=0
1261742 On ch=3 n=19 v=100
1261891 On ch=3 n=3 v=100
1261920 Off ch=3 n=19 v=0
1261958 Off ch=3 n=3 v=0
1261959 On ch=3 n=5 v=100
1262212 Off ch=3 n=5 v=0
1262213 On ch=3 n=9 v=100
1262851 Off ch=3 n=9 v=0
1262856 On ch=3 n=6 v=100
1263027 Off ch=3 n=6 v=0
1264862 On ch=3 n=5 v=100
1265139 Off ch=3 n=5 v=0
1265155 On ch=3 n=28 v=100
1265234 Off ch=3 n=28 v=0
1265283 On ch=3 n=22 v=100
1265397 Off ch=3 n=22 v=0
1266568 On ch=3 n=10 v=100
1267141 Off ch=3 n=10 v=0
1268553 On ch=3 n=9 v=100
1268638 Off ch=3 n=9 v=0
1269972 On ch=3 n=27 v=100
1270065 Off ch=3 n=27 v=0
1270894 On ch=3 n=25 v=100
1270921 On ch=3 n=7 v=100
1271006 Off ch=3 n=25 v=0
1271349 Off ch=3 n=7 v=0
1271394 On ch=3 n=15 v=100
1271475 Off ch=3 n=15 v=0
1271479 On ch=3 n=18 v=100
1271632 Off ch=3 n=18 v=0
1271681 On ch=3 n=21 v=100
1271958 Off ch=3 n=21 v=0
1274427 On ch=3 n=5 v=100
1274740 Off ch=3 n=5 v=0
1274846 On ch=3 n=31 v=100
1275054 Off ch=3 n=31 v=0
1275288 On ch=3 n=44 v=100
1275309 On ch=3 n=9 v=100
1275481 Off ch=3 n=44 v=0
1275491 Off ch=3 n=9 v=0
1276042 On ch=3 n=10 v=100
1276553 Off ch=3 n=10 v=0
1276556 On ch=3 n=13 v=100
1276960 Off ch=3 n=13 v=0
1277746 On ch=3 n=18 v=100
1277769 On ch=3 n=12 v=100
1277952 Off ch=3 n=12 v=0
1277957 Off ch=3 n=18 v=0
1278882 On ch=3 n=48 v=100
1278973 Off ch=3 n=48 v=0
1278993 On ch=3 n=17 v=100
1279068 Off ch=3 n=17 v=0
1279530 On ch=3 n=24 v=100
1279542 On ch=3 n=6 v=100
1279607 Off ch=3 n=24 v=0
1280709 Off ch=3 n=6 v=0
1280734 On ch=3 n=21 v=100
1280808 On ch=3 n=20 v=100
1280819 Off ch=3 n=21 v=0
1280970 Off ch=3 n=20 v=0
1281419 On ch=3 n=32 v=100
1281749 Off ch=3 n=32 v=0
1281807 On ch=3 n=20 v=100
1282252 Off ch=3 n=20 v=0
1284002 On ch=3 n=12 v=100
1284196 Off ch=3 n=12 v=0
1284201 On ch=3 n=17 v=100
1284245 Off ch=3 n=17 v=0
1284259 On ch=3 n=11 v=100
1284647 Off ch=3 n=11 v=0
1284652 On ch=3 n=12 v=100
1284897 Off ch=3 n=12 v=0
1284987 On ch=3 n=20 v=100
1285018 On ch=3 n=9 v=100
1285188 Off ch=3 n=20 v=0
1285903 Off ch=3 n=9 v=0
1285904 On ch=3 n=4 v=100
1285976 Off ch=3 n=4 v=0
1286384 On ch=3 n=15 v=100
1286516 Off ch=3 n=15 v=0
1286743 On ch=3 n=14 v=100
1287136 Off ch=3 n=14 v=0
1288879 On ch=3 n=28 v=100
1289090 On ch=3 n=28 v=100
1289299 Off ch=3 n=28 v=0
1289350 Off ch=3 n=28 v=0
1289562 On ch=3 n=5 v=100
1289597 Off ch=3 n=5 v=0
1290049 On ch=3 n=26 v=100
1290098 Off ch=3 n=26 v=0
1290796 On ch=3 n=14 v=100
1291674 Off ch=3 n=14 v=0
1291679 On ch=3 n=13 v=100
1291733 Off ch=3 n=13 v=0
1291742 On ch=3 n=18 v=100
1291904 Off ch=3 n=18 v=0
1291967 On ch=3 n=18 v=100
1292052 Off ch=3 n=18 v=0
1292500 On ch=3 n=11 v=100
1293057 Off ch=3 n=11 v=0
1293291 On ch=3 n=24 v=100
1293340 On ch=3 n=6 v=100
1293525 Off ch=3 n=24 v=0
1293536 On ch=3 n=28 v=100
1293685 Off ch=3 n=6 v=0
1293764 Off ch=3 n=28 v=0
1293791 On ch=3 n=34 v=100
1294115 Off ch=3 n=34 v=0
1294122 On ch=3 n=26 v=100
1294128 On ch=3 n=27 v=100
1294282 Off ch=3 n=27 v=0
1294295 Off ch=3 n=26 v=0
1294389 On ch=3 n=40 v=100
1294516 Off ch=3 n=40 v=0
1295054 On ch=3 n=45 v=100
1295057 On ch=3 n=27 v=100
1295166 Off ch=3 n=27 v=0
1295188 Off ch=3 n=45 v=0
1295676 On ch=3 n=9 v=100
1295966 Off ch=3 n=9 v=0
1295967 On ch=3 n=7 v=100
1296470 Off ch=3 n=7 v=0
1297299 On ch=3 n=29 v=100
1297337 On ch=3 n=18 v=100
1297467 On ch=3 n=49 v=100
1297500 Off ch=3 n=29 v=0
1297617 Off ch=3 n=18 v=0
1297629 On ch=3 n=19 v=100
1297644 Off ch=3 n=49 v=0
1297702 Off ch=3 n=19 v=0
1297775 On ch=3 n=30 v=100
1297829 On ch=3 n=22 v=100
1297858 On ch=3 n=14 v=100
1297932 On ch=3 n=9 v=100
1297935 Off ch=3 n=30 v=0
1297935 Off ch=3 n=22 v=0
1297938 Off ch=3 n=14 v=0
1298299 Off ch=3 n=9 v=0
1298300 On ch=3 n=4 v=100
1299999 Off ch=3 n=4 v=0
1300002 On ch=3 n=4 v=100
1300298 Off ch=3 n=4 v=0
1300341 On ch=3 n=4 v=100
1300782 Off ch=3 n=4 v=0
1300783 On ch=3 n=9 v=100
1301202 On ch=3 n=4 v=100
1301204 Off ch=3 n=9 v=0
1301389 On ch=3 n=16 v=100
1301463 Off ch=3 n=4 v=0
1301472 Off ch=3 n=16 v=0
1301473 On ch=3 n=18 v=100
1301474 On ch=3 n=26 v=100
1301551 Off ch=3 n=18 v=0
1301554 On ch=3 n=11 v=100
1301576 Off ch=3 n=26 v=0
1302571 Off ch=3 n=11 v=0
1306117 On ch=3 n=7 v=100
1306700 On ch=3 n=5 v=100
1306700 Off ch=3 n=7 v=0
1307425 Off ch=3 n=5 v=0
1308799 On ch=3 n=37 v=100
1308920 Off ch=3 n=37 v=0
1309272 On ch=3 n=25 v=100
1309610 On ch=3 n=18 v=100
1309696 Off ch=3 n=25 v=0
1309874 On ch=3 n=35 v=100
1310091 Off ch=3 n=18 v=0
1310132 Off ch=3 n=35 v=0
1311862 On ch=3 n=48 v=100
1311931 On ch=3 n=45 v=100
1312012 Off ch=3 n=45 v=0
1312018 Off ch=3 n=48 v=0
1312069 On ch=3 n=19 v=100
1313068 Off ch=3 n=19 v=0
1313203 On ch=3 n=22 v=100
1313237 On ch=3 n=17 v=100
1313478 Off ch=3 n=22 v=0
1313482 Off ch=3 n=17 v=0
1314161 On ch=3 n=15 v=100
1314325 Off ch=3 n=15 v=0
1314352 On ch=3 n=35 v=100
1314354 On ch=3 n=17 v=100
1314354 On ch=3 n=17 v=100
1314356 On ch=3 n=36 v=100
1314356 On ch=3 n=36 v=100
1314388 On ch=3 n=14 v=100
1314514 Off ch=3 n=17 v=0
1314514 Off ch=3 n=17 v=0
1314527 On ch=3 n=32 v=100
1314587 Off ch=3 n=35 v=0
1314686 Off ch=3 n=14 v=0
1314705 Off ch=3 n=36 v=0
1314705 Off ch=3 n=36 v=0
1314713 Off ch=3 n=32 v=0
1315734 On ch=3 n=11 v=100
1316165 On ch=3 n=9 v=100
1316167 Off ch=3 n=11 v=0
1316248 Off ch=3 n=9 v=0
1316464 On ch=3 n=39 v=100
1316567 Off ch=3 n=39 v=0
1316657 On ch=3 n=8 v=100
1317434 On ch=3 n=14 v=100
1317464 On ch=3 n=35 v=100
1317464 On ch=3 n=35 v=100
1317473 Off ch=3 n=8 v=0
1317476 On ch=3 n=4 v=100
1317488 On ch=3 n=37 v=100
1317488 On ch=3 n=37 v=100
1317666 On ch=3 n=5 v=100
1317666 Off ch=3 n=4 v=0
1317675 Off ch=3 n=14 v=0
1317710 Off ch=3 n=35 v=0
1317710 Off ch=3 n=35 v=0
1317734 Off ch=3 n=5 v=0
1317768 Off ch=3 n=37 v=0
1317768 Off ch=3 n=37 v=0
1320855 On ch=3 n=14 v=100
1320949 On ch=3 n=15 v=100
1320982 Off ch=3 n=14 v=0
1320989 Off ch=3 n=15 v=0
1321312 On ch=3 n=15 v=100
1321370 On ch=3 n=22 v=100
1321733 Off ch=3 n=15 v=0
1321866 Off ch=3 n=22 v=0
1322560 On ch=3 n=10 v=100
1322795 Off ch=3 n=10 v=0
1323045 On ch=3 n=21 v=100
1323286 On ch=3 n=27 v=100
1323444 Off ch=3 n=21 v=0
1323470 Off ch=3 n=27 v=0
1323601 On ch=3 n=17 v=100
1323639 Off ch=3 n=17 v=0
1324340 On ch=3 n=11 v=100
1324498 Off ch=3 n=11 v=0
1324504 On ch=3 n=8 v=100
1324673 Off ch=3 n=8 v=0
1330205 On ch=3 n=7 v=100
1330513 Off ch=3 n=7 v=0
1330715 On ch=3 n=21 v=100
1330787 On ch=3 n=15 v=100
1330787 On ch=3 n=15 v=100
1330805 On ch=3 n=10 v=100
1331167 Off ch=3 n=10 v=0
1331176 Off ch=3 n=21 v=0
1331224 Off ch=3 n=15 v=0
1331224 Off ch=3 n=15 v=0
1331629 On ch=3 n=8 v=100
1332059 Off ch=3 n=8 v=0
1333302 On ch=3 n=33 v=100
1333304 On ch=3 n=49 v=100
1333418 Off ch=3 n=33 v=0
1333451 Off ch=3 n=49 v=0
1334262 On ch=3 n=16 v=100
1334442 On ch=3 n=9 v=100
1334449 Off ch=3 n=16 v=0
1334686 On ch=3 n=10 v=100
1334712 Off ch=3 n=9 v=0
1335466 Off ch=3 n=10 v=0
1336777 On ch=3 n=17 v=100
1336826 Off ch=3 n=17 v=0
1336837 On ch=3 n=20 v=100
1336911 Off ch=3 n=20 v=0
1337633 On ch=3 n=32 v=100
1337750 Off ch=3 n=32 v=0
1337890 On ch=3 n=16 v=100
1339090 Off ch=3 n=16 v=0
1339475 On ch=3 n=12 v=100
1339770 On ch=3 n=37 v=100
1339775 On ch=3 n=29 v=100
1339792 On ch=3 n=25 v=100
1339810 Off ch=3 n=12 v=0
1339932 Off ch=3 n=29 v=0
1339932 Off ch=3 n=25 v=0
1339982 Off ch=3 n=37 v=0
1340396 On ch=3 n=10 v=100
1340622 On ch=3 n=13 v=100
1340629 Off ch=3 n=10 v=0
1340888 Off ch=3 n=13 v=0
1340910 On ch=3 n=16 v=100
1341096 On ch=3 n=16 v=100
1341110 Off ch=3 n=16 v=0
1341177 Off ch=3 n=16 v=0
1341178 On ch=3 n=2 v=100
1341216 On ch=3 n=40 v=100
1341223 Off ch=3 n=2 v=0
1341335 Off ch=3 n=40 v=0
1341372 On ch=3 n=12 v=100
1341702 Off ch=3 n=12 v=0
1342156 On ch=3 n=8 v=100
1342303 Off ch=3 n=8 v=0
1342753 On ch=3 n=9 v=100
1342820 Off ch=3 n=9 v=0
1343198 On ch=3 n=9 v=100
1343209 On ch=3 n=32 v=100
1343228 On ch=3 n=23 v=100
1343240 On ch=3 n=28 v=100
1343243 Off ch=3 n=9 v=0
1343253 On ch=3 n=43 v=100
1343253 On ch=3 n=43 v=100
1343273 Off ch=3 n=32 v=0
1343274 On ch=3 n=11 v=100
1343274 Off ch=3 n=23 v=0
1343476 Off ch=3 n=11 v=0
1343485 Off ch=3 n=28 v=0
1343506 On ch=3 n=16 v=100
1343527 Off ch=3 n=43 v=0
1343527 Off ch=3 n=43 v=0
1343592 Off ch=3 n=16 v=0
1343596 On ch=3 n=10 v=100
1343767 On ch=3 n=13 v=100
1343786 Off ch=3 n=10 v=0
1343924 Off ch=3 n=13 v=0
1344323 On ch=3 n=30 v=100
1344389 Off ch=3 n=30 v=0
1345507 On ch=3 n=18 v=100
1346523 Off ch=3 n=18 v=0
1346527 On ch=3 n=18 v=100
1346802 On ch=3 n=8 v=100
1346808 Off ch=3 n=18 v=0
1346984 On ch=3 n=10 v=100
1347445 Off ch=3 n=8 v=0
1347445 Off ch=3 n=10 v=0
1347475 On ch=3 n=8 v=100
1347475 On ch=3 n=10 v=100
1347484 Off ch=3 n=8 v=0
1347779 Off ch=3 n=10 v=0
1347810 On ch=3 n=5 v=100
1348071 On ch=3 n=25 v=100
1348178 On ch=3 n=8 v=100
1348190 Off ch=3 n=5 v=0
1348212 Off ch=3 n=25 v=0
1348411 Off ch=3 n=8 v=0
1348412 On ch=3 n=21 v=100
1348614 Off ch=3 n=21 v=0
1348621 On ch=3 n=20 v=100
1348848 Off ch=3 n=20 v=0
1349133 On ch=3 n=27 v=100
1349331 Off ch=3 n=27 v=0
1351609 On ch=3 n=26 v=100
1351812 Off ch=3 n=26 v=0
1351869 On ch=3 n=26 v=100
1351948 Off ch=3 n=26 v=0
1352502 On ch=3 n=32 v=100
1352623 Off ch=3 n=32 v=0
1352776 On ch=3 n=32 v=100
1352791 Off ch=3 n=32 v=0
1353097 On ch=3 n=38 v=100
1353250 Off ch=3 n=38 v=0
1353882 On ch=3 n=29 v=100
1353930 On ch=3 n=35 v=100
1353962 On ch=3 n=38 v=100
1353969 On ch=3 n=24 v=100
1354115 Off ch=3 n=29 v=0
1354219 Off ch=3 n=24 v=0
1354227 Off ch=3 n=35 v=0
1354293 Off ch=3 n=38 v=0
1354639 On ch=3 n=12 v=100
1354998 Off ch=3 n=12 v=0
1356036 On ch=3 n=28 v=100
1356265 Off ch=3 n=28 v=0
1356331 On ch=3 n=24 v=100
1356331 On ch=3 n=24 v=100
1356355 On ch=3 n=17 v=100
1356654 Off ch=3 n=17 v=0
1356669 Off ch=3 n=24 v=0
1356669 Off ch=3 n=24 v=0
1357585 On ch=3 n=38 v=100
1357726 Off ch=3 n=38 v=0
1357928 On ch=3 n=31 v=100
1357944 On ch=3 n=43 v=100
1357953 On ch=3 n=27 v=100
1357978 On ch=3 n=19 v=100
1357979 On ch=3 n=33 v=100
1358076 Off ch=3 n=27 v=0
1358076 Off ch=3 n=19 v=0
1358077 Off ch=3 n=31 v=0
1358095 Off ch=3 n=33 v=0
1358136 Off ch=3 n=43 v=0
1358459 On ch=3 n=34 v=100
1358490 On ch=3 n=33 v=100
1358530 On ch=3 n=29 v=100
1358530 On ch=3 n=29 v=100
1358542 On ch=3 n=21 v=100
1358715 Off ch=3 n=34 v=0
1358784 Off ch=3 n=21 v=0
1358808 Off ch=3 n=33 v=0
1358862 Off ch=3 n=29 v=0
1358862 Off ch=3 n=29 v=0
1359762 On ch=3 n=9 v=100
1360184 Off ch=3 n=9 v=0
1360203 On ch=3 n=37 v=100
1360222 On ch=3 n=30 v=100
1360363 Off ch=3 n=37 v=0
1360755 On ch=3 n=35 v=100
1360825 Off ch=3 n=30 v=0
1360839 Off ch=3 n=35 v=0
1361957 On ch=3 n=11 v=100
1362532 Off ch=3 n=11 v=0
1363405 On ch=3 n=15 v=100
1363592 Off ch=3 n=15 v=0
1364880 On ch=3 n=18 v=100
1364903 On ch=3 n=13 v=100
1365133 Off ch=3 n=13 v=0
1365139 On ch=3 n=10 v=100
1365141 Off ch=3 n=18 v=0
1365546 Off ch=3 n=10 v=0
1365620 On ch=3 n=7 v=100
1365828 Off ch=3 n=7 v=0
1365853 On ch=3 n=5 v=100
1365987 Off ch=3 n=5 v=0
1365995 On ch=3 n=11 v=100
1366083 Off ch=3 n=11 v=0
1366093 On ch=3 n=26 v=100
1366104 On ch=3 n=17 v=100
1366105 On ch=3 n=10 v=100
1366154 Off ch=3 n=10 v=0
1366166 Off ch=3 n=17 v=0
1366169 Off ch=3 n=26 v=0
1366387 On ch=3 n=12 v=100
1366579 Off ch=3 n=12 v=0
1369234 On ch=3 n=16 v=100
1369268 On ch=3 n=22 v=100
1369268 On ch=3 n=22 v=100
1369306 On ch=3 n=17 v=100
1369637 Off ch=3 n=16 v=0
1369668 Off ch=3 n=17 v=0
1369711 Off ch=3 n=22 v=0
1369711 Off ch=3 n=22 v=0
1369751 On ch=3 n=7 v=100
1369979 Off ch=3 n=7 v=0
1370285 On ch=3 n=9 v=100
1370818 Off ch=3 n=9 v=0
1371226 On ch=3 n=20 v=100
1371388 Off ch=3 n=20 v=0
1372092 On ch=3 n=9 v=100
1372134 On ch=3 n=34 v=100
1372175 On ch=3 n=19 v=100
1372192 Off ch=3 n=9 v=0
1372329 Off ch=3 n=34 v=0
1372544 On ch=3 n=13 v=100
1372583 Off ch=3 n=19 v=0
1372632 Off ch=3 n=13 v=0
1373226 On ch=3 n=25 v=100
1373310 On ch=3 n=22 v=100
1373356 On ch=3 n=31 v=100
1373371 Off ch=3 n=25 v=0
1373371 Off ch=3 n=22 v=0
1373371 Off ch=3 n=31 v=0
1373405 On ch=3 n=22 v=100
1373405 On ch=3 n=31 v=100
1373405 On ch=3 n=25 v=100
1373416 On ch=3 n=21 v=100
1373740 Off ch=3 n=25 v=0
1373754 Off ch=3 n=22 v=0
1373784 Off ch=3 n=21 v=0
1373842 Off ch=3 n=31 v=0
1373989 On ch=3 n=24 v=100
1374170 Off ch=3 n=24 v=0
1374249 On ch=3 n=24 v=100
1374259 On ch=3 n=62 v=100
1374319 Off ch=3 n=24 v=0
1374483 Off ch=3 n=62 v=0
1374980 On ch=3 n=16 v=100
1375166 On ch=3 n=7 v=100
1375166 Off ch=3 n=16 v=0
1375486 Off ch=3 n=7 v=0
1375500 On ch=3 n=10 v=100
1375620 Off ch=3 n=10 v=0
1375626 On ch=3 n=11 v=100
1375870 Off ch=3 n=11 v=0
1376949 On ch=3 n=14 v=100
1377154 Off ch=3 n=14 v=0
1377253 On ch=3 n=23 v=100
1377267 On ch=3 n=33 v=100
1377267 On ch=3 n=33 v=100
1377442 Off ch=3 n=23 v=0
1377449 On ch=3 n=5 v=100
1377581 Off ch=3 n=5 v=0
1377592 Off ch=3 n=33 v=0
1377592 Off ch=3 n=33 v=0
1378590 On ch=3 n=11 v=100
1379033 Off ch=3 n=11 v=0
1379085 On ch=3 n=16 v=100
1379335 Off ch=3 n=16 v=0
1382168 On ch=3 n=11 v=100
1382313 Off ch=3 n=11 v=0
1382463 On ch=3 n=37 v=100
1382463 On ch=3 n=37 v=100
1382481 On ch=3 n=30 v=100
1382506 On ch=3 n=9 v=100
1382694 Off ch=3 n=9 v=0
1382695 Off ch=3 n=30 v=0
1382711 Off ch=3 n=37 v=0
1382711 Off ch=3 n=37 v=0
1383226 On ch=3 n=51 v=100
1383309 On ch=3 n=45 v=100
1383474 Off ch=3 n=51 v=0
1383495 Off ch=3 n=45 v=0
1384101 On ch=3 n=24 v=100
1384123 On ch=3 n=17 v=100
1384213 Off ch=3 n=24 v=0
1384287 Off ch=3 n=17 v=0
1384290 On ch=3 n=20 v=100
1384303 On ch=3 n=26 v=100
1384377 Off ch=3 n=20 v=0
1384849 Off ch=3 n=26 v=0
1385443 On ch=3 n=25 v=100
1385582 On ch=3 n=15 v=100
1385661 On ch=3 n=23 v=100
1385983 Off ch=3 n=25 v=0
1385998 Off ch=3 n=15 v=0
1386109 Off ch=3 n=23 v=0
1386233 On ch=3 n=22 v=100
1386401 On ch=3 n=37 v=100
1386428 Off ch=3 n=22 v=0
1386433 On ch=3 n=12 v=100
1386480 On ch=3 n=24 v=100
1386614 On ch=3 n=19 v=100
1386634 Off ch=3 n=12 v=0
1386635 Off ch=3 n=37 v=0
1386739 On ch=3 n=29 v=100
1386948 Off ch=3 n=24 v=0
1386966 Off ch=3 n=19 v=0
1387099 Off ch=3 n=29 v=0
1388438 On ch=3 n=20 v=100
1388569 Off ch=3 n=20 v=0
1388932 On ch=3 n=10 v=100
1389481 Off ch=3 n=10 v=0
1390187 On ch=3 n=39 v=100
1390196 On ch=3 n=20 v=100
1390362 Off ch=3 n=20 v=0
1390383 On ch=3 n=51 v=100
1390405 Off ch=3 n=39 v=0
1390421 On ch=3 n=40 v=100
1390512 Off ch=3 n=51 v=0
1390709 On ch=3 n=22 v=100
1390710 Off ch=3 n=40 v=0
1390849 Off ch=3 n=22 v=0
1391810 On ch=3 n=19 v=100
1391830 On ch=3 n=9 v=100
1391946 Off ch=3 n=9 v=0
1391949 Off ch=3 n=19 v=0
1395274 On ch=3 n=10 v=100
1396041 Off ch=3 n=10 v=0
1397105 On ch=3 n=14 v=100
1397253 Off ch=3 n=14 v=0
1397278 On ch=3 n=23 v=100
1397363 Off ch=3 n=23 v=0
1397516 On ch=3 n=20 v=100
1397603 Off ch=3 n=20 v=0
1397755 On ch=3 n=8 v=100
1397872 Off ch=3 n=8 v=0
1397873 On ch=3 n=11 v=100
1398011 Off ch=3 n=11 v=0
1398305 On ch=3 n=22 v=100
1398310 On ch=3 n=7 v=100
1398448 Off ch=3 n=7 v=0
1398450 On ch=3 n=5 v=100
1398492 Off ch=3 n=22 v=0
1398869 Off ch=3 n=5 v=0
1401597 On ch=3 n=29 v=100
1401723 On ch=3 n=25 v=100
1401832 On ch=3 n=15 v=100
1401841 On ch=3 n=30 v=100
1401973 Off ch=3 n=29 v=0
1402197 Off ch=3 n=25 v=0
1402215 Off ch=3 n=15 v=0
1402486 Off ch=3 n=30 v=0
1404236 On ch=3 n=5 v=100
1404770 Off ch=3 n=5 v=0
1405521 On ch=3 n=8 v=100
1405775 On ch=3 n=8 v=100
1405775 Off ch=3 n=8 v=0
1406155 On ch=3 n=50 v=100
1406222 On ch=3 n=16 v=100
1406236 On ch=3 n=39 v=100
1406240 Off ch=3 n=8 v=0
1406241 On ch=3 n=4 v=100
1406427 Off ch=3 n=50 v=0
1406430 Off ch=3 n=4 v=0
1406435 On ch=3 n=7 v=100
1406438 Off ch=3 n=16 v=0
1406529 Off ch=3 n=39 v=0
1406639 Off ch=3 n=7 v=0
1406649 On ch=3 n=10 v=100
1406692 Off ch=3 n=10 v=0
1406700 On ch=3 n=5 v=100
1406773 Off ch=3 n=5 v=0
1406787 On ch=3 n=21 v=100
1406787 On ch=3 n=24 v=100
1406874 On ch=3 n=18 v=100
1406894 Off ch=3 n=21 v=0
1406915 Off ch=3 n=24 v=0
1406999 Off ch=3 n=18 v=0
1407316 On ch=3 n=5 v=100
1407696 Off ch=3 n=5 v=0
1407702 On ch=3 n=4 v=100
1407987 Off ch=3 n=4 v=0
1408155 On ch=3 n=11 v=100
1408169 On ch=3 n=12 v=100
1408210 Off ch=3 n=11 v=0
1408211 Off ch=3 n=12 v=0
1408951 On ch=3 n=10 v=100
1408992 Off ch=3 n=10 v=0
1409076 On ch=3 n=29 v=100
1409123 On ch=3 n=22 v=100
1409176 Off ch=3 n=29 v=0
1409305 On ch=3 n=12 v=100
1409615 On ch=3 n=22 v=100
1409666 Off ch=3 n=22 v=0
1409698 Off ch=3 n=12 v=0
1409711 Off ch=3 n=22 v=0
1411064 On ch=3 n=32 v=100
1411151 Off ch=3 n=32 v=0
1411513 On ch=3 n=25 v=100
1411563 Off ch=3 n=25 v=0
1412296 On ch=3 n=28 v=100
1412495 Off ch=3 n=28 v=0
1413929 On ch=3 n=11 v=100
1414258 On ch=3 n=31 v=100
1414346 Off ch=3 n=11 v=0
1414347 On ch=3 n=25 v=100
1414377 On ch=3 n=41 v=100
1414523 Off ch=3 n=31 v=0
1414584 Off ch=3 n=25 v=0
1414789 Off ch=3 n=41 v=0
1415058 On ch=3 n=34 v=100
1415171 Off ch=3 n=34 v=0
1415341 On ch=3 n=31 v=100
1415691 Off ch=3 n=31 v=0
1416231 On ch=3 n=25 v=100
1416309 Off ch=3 n=25 v=0
1417132 On ch=3 n=12 v=100
1417183 Off ch=3 n=12 v=0
1417850 On ch=3 n=18 v=100
1417859 On ch=3 n=18 v=100
1417903 Off ch=3 n=18 v=0
1418177 Off ch=3 n=18 v=0
1421296 On ch=3 n=8 v=100
1421366 Off ch=3 n=8 v=0
1421825 On ch=3 n=18 v=100
1421904 On ch=3 n=11 v=100
1421916 On ch=3 n=18 v=100
1422305 Off ch=3 n=18 v=0
1422320 Off ch=3 n=11 v=0
1422395 Off ch=3 n=18 v=0
1422620 On ch=3 n=16 v=100
1422739 On ch=3 n=28 v=100
1422739 On ch=3 n=28 v=100
1422804 Off ch=3 n=16 v=0
1422805 On ch=3 n=7 v=100
1422898 On ch=3 n=12 v=100
1422898 On ch=3 n=12 v=100
1422899 Off ch=3 n=28 v=0
1422899 Off ch=3 n=28 v=0
1422901 Off ch=3 n=7 v=0
1423003 Off ch=3 n=12 v=0
1423003 Off ch=3 n=12 v=0
1425367 On ch=3 n=9 v=100
1425592 Off ch=3 n=9 v=0
1426575 On ch=3 n=28 v=100
1426584 On ch=3 n=14 v=100
1426814 Off ch=3 n=14 v=0
1426844 On ch=3 n=8 v=100
1426850 Off ch=3 n=28 v=0
1427943 Off ch=3 n=8 v=0
1429402 On ch=3 n=9 v=100
1429494 Off ch=3 n=9 v=0
1430533 On ch=3 n=11 v=100
1430707 Off ch=3 n=11 v=0
1430715 On ch=3 n=2 v=100
1430754 Off ch=3 n=2 v=0
1430757 On ch=3 n=13 v=100
1431001 Off ch=3 n=13 v=0
1431466 On ch=3 n=47 v=100
1431466 On ch=3 n=47 v=100
1431491 On ch=3 n=9 v=100
1431675 Off ch=3 n=9 v=0
1431695 Off ch=3 n=47 v=0
1431695 Off ch=3 n=47 v=0
1432166 On ch=3 n=12 v=100
1432564 Off ch=3 n=12 v=0
1434007 On ch=3 n=39 v=100
1434042 On ch=3 n=40 v=100
1434045 On ch=3 n=15 v=100
1434151 Off ch=3 n=15 v=0
1434161 Off ch=3 n=39 v=0
1434161 Off ch=3 n=40 v=0
1434525 On ch=3 n=6 v=100
1435027 Off ch=3 n=6 v=0
1435032 On ch=3 n=8 v=100
1436268 Off ch=3 n=8 v=0
1436271 On ch=3 n=8 v=100
1436583 Off ch=3 n=8 v=0
1437938 On ch=3 n=34 v=100
1438030 Off ch=3 n=34 v=0
1438690 On ch=3 n=21 v=100
1438739 On ch=3 n=17 v=100
1438988 Off ch=3 n=21 v=0
1438995 Off ch=3 n=17 v=0
1439676 On ch=3 n=33 v=100
1439766 Off ch=3 n=33 v=0
1439886 On ch=3 n=9 v=100
1440514 Off ch=3 n=9 v=0
1441745 On ch=3 n=34 v=100
1441745 On ch=3 n=22 v=100
1441801 Off ch=3 n=22 v=0
1441805 On ch=3 n=7 v=100
1441808 Off ch=3 n=34 v=0
1442415 Off ch=3 n=7 v=0
1442843 On ch=3 n=33 v=100
1442959 Off ch=3 n=33 v=0
1443616 On ch=3 n=25 v=100
1443629 On ch=3 n=25 v=100
1443713 Off ch=3 n=25 v=0
1443767 On ch=3 n=13 v=100
1443842 On ch=3 n=17 v=100
1444207 Off ch=3 n=25 v=0
1444220 Off ch=3 n=13 v=0
1444343 Off ch=3 n=17 v=0
1444381 On ch=3 n=5 v=100
1444447 On ch=3 n=25 v=100
1444447 On ch=3 n=25 v=100
1444475 On ch=3 n=41 v=100
1444475 On ch=3 n=41 v=100
1444478 Off ch=3 n=5 v=0
1444597 Off ch=3 n=25 v=0
1444597 Off ch=3 n=25 v=0
1444674 On ch=3 n=25 v=100
1444863 Off ch=3 n=41 v=0
1444863 Off ch=3 n=41 v=0
1444952 Off ch=3 n=25 v=0
1445698 On ch=3 n=36 v=100
1445704 On ch=3 n=39 v=100
1445953 Off ch=3 n=36 v=0
1446100 Off ch=3 n=39 v=0
1446659 On ch=3 n=13 v=100
1446689 On ch=3 n=8 v=100
1446701 Off ch=3 n=13 v=0
1446809 Off ch=3 n=8 v=0
1446827 On ch=3 n=16 v=100
1447001 On ch=3 n=3 v=100
1447007 Off ch=3 n=16 v=0
1448146 Off ch=3 n=3 v=0
1448147 On ch=3 n=48 v=100
1448487 Off ch=3 n=48 v=0
1449180 On ch=3 n=42 v=100
1449239 On ch=3 n=27 v=100
1449348 On ch=3 n=44 v=100
1449348 On ch=3 n=32 v=100
1449437 Off ch=3 n=42 v=0
1449437 Off ch=3 n=27 v=0
1449452 Off ch=3 n=32 v=0
1449472 Off ch=3 n=44 v=0
1450244 On ch=3 n=37 v=100
1450265 On ch=3 n=38 v=100
1450300 On ch=3 n=14 v=100
1450306 On ch=3 n=43 v=100
1450373 Off ch=3 n=37 v=0
1450398 Off ch=3 n=14 v=0
1450399 On ch=3 n=7 v=100
1450399 Off ch=3 n=38 v=0
1450444 Off ch=3 n=43 v=0
1450724 Off ch=3 n=7 v=0
1450731 On ch=3 n=10 v=100
1451017 On ch=3 n=36 v=100
1451053 Off ch=3 n=10 v=0
1451056 On ch=3 n=12 v=100
1451057 On ch=3 n=31 v=100
1451151 Off ch=3 n=12 v=0
1451152 Off ch=3 n=36 v=0
1451183 Off ch=3 n=31 v=0
1451213 On ch=3 n=37 v=100
1451229 On ch=3 n=39 v=100
1451310 Off ch=3 n=37 v=0
1451469 On ch=3 n=34 v=100
1451476 On ch=3 n=5 v=100
1451659 On ch=3 n=22 v=100
1451659 Off ch=3 n=5 v=0
1451665 Off ch=3 n=39 v=0
1451755 Off ch=3 n=34 v=0
1451852 Off ch=3 n=22 v=0
1452352 On ch=3 n=10 v=100
1452594 Off ch=3 n=10 v=0
1453467 On ch=3 n=19 v=100
1453747 Off ch=3 n=19 v=0
1454274 On ch=3 n=9 v=100
1454368 Off ch=3 n=9 v=0
1454489 On ch=3 n=30 v=100
1454651 Off ch=3 n=30 v=0
1454757 On ch=3 n=13 v=100
1454921 Off ch=3 n=13 v=0
1455389 On ch=3 n=16 v=100
1455561 Off ch=3 n=16 v=0
1456913 On ch=3 n=5 v=100
1456947 On ch=3 n=15 v=100
1456951 Off ch=3 n=5 v=0
1457042 Off ch=3 n=15 v=0
1457045 On ch=3 n=6 v=100
1457323 On ch=3 n=8 v=100
1457323 Off ch=3 n=6 v=0
1457471 On ch=3 n=16 v=100
1457473 Off ch=3 n=8 v=0
1457560 Off ch=3 n=16 v=0
1457567 On ch=3 n=14 v=100
1457596 Off ch=3 n=14 v=0
1457618 On ch=3 n=19 v=100
1457670 Off ch=3 n=19 v=0
1457685 On ch=3 n=13 v=100
1457845 Off ch=3 n=13 v=0
1457848 On ch=3 n=26 v=100
1457852 On ch=3 n=9 v=100
1457911 Off ch=3 n=26 v=0
1457912 On ch=3 n=16 v=100
1457932 Off ch=3 n=9 v=0
1457957 Off ch=3 n=16 v=0
1457959 On ch=3 n=12 v=100
1457992 Off ch=3 n=12 v=0
1458010 On ch=3 n=12 v=100
1458091 Off ch=3 n=12 v=0
1458096 On ch=3 n=13 v=100
1458266 Off ch=3 n=13 v=0
1459356 On ch=3 n=16 v=100
1459433 Off ch=3 n=16 v=0
1459450 On ch=3 n=10 v=100
1460034 Off ch=3 n=10 v=0
1461634 On ch=3 n=43 v=100
1461744 Off ch=3 n=43 v=0
1465693 On ch=3 n=15 v=100
1466074 Off ch=3 n=15 v=0
1466647 On ch=3 n=8 v=100
1466977 Off ch=3 n=8 v=0
1467084 On ch=3 n=33 v=100
1467153 On ch=3 n=58 v=100
1467297 On ch=3 n=36 v=100
1467300 Off ch=3 n=33 v=0
1467406 On ch=3 n=34 v=100
1467411 On ch=3 n=15 v=100
1467603 Off ch=3 n=15 v=0
1467611 Off ch=3 n=58 v=0
1467617 Off ch=3 n=36 v=0
1467626 On ch=3 n=16 v=100
1467640 On ch=3 n=18 v=100
1467644 On ch=3 n=7 v=100
1467647 Off ch=3 n=34 v=0
1467955 Off ch=3 n=7 v=0
1467990 Off ch=3 n=16 v=0
1468034 Off ch=3 n=18 v=0
1468812 On ch=3 n=22 v=100
1468835 Off ch=3 n=22 v=0
1468873 On ch=3 n=22 v=100
1469007 Off ch=3 n=22 v=0
1469197 On ch=3 n=18 v=100
1469295 Off ch=3 n=18 v=0
1469455 On ch=3 n=14 v=100
1469807 Off ch=3 n=14 v=0
1470238 On ch=3 n=33 v=100
1470310 Off ch=3 n=33 v=0
1470313 On ch=3 n=14 v=100
1470776 On ch=3 n=26 v=100
1470776 Off ch=3 n=14 v=0
1471024 Off ch=3 n=26 v=0
1471066 On ch=3 n=28 v=100
1471170 Off ch=3 n=28 v=0
1471740 On ch=3 n=38 v=100
1471895 Off ch=3 n=38 v=0
1472100 On ch=3 n=27 v=100
1472101 On ch=3 n=20 v=100
1472103 On ch=3 n=11 v=100
1472279 Off ch=3 n=11 v=0
1472304 Off ch=3 n=20 v=0
1472367 Off ch=3 n=27 v=0
1472377 On ch=3 n=34 v=100
1472444 Off ch=3 n=34 v=0
1472470 On ch=3 n=26 v=100
1472584 On ch=3 n=22 v=100
1472705 Off ch=3 n=26 v=0
1472758 On ch=3 n=12 v=100
1472787 Off ch=3 n=22 v=0
1472794 On ch=3 n=20 v=100
1472801 Off ch=3 n=12 v=0
1472802 On ch=3 n=8 v=100
1473269 Off ch=3 n=8 v=0
1473284 On ch=3 n=46 v=100
1473372 Off ch=3 n=20 v=0
1473372 Off ch=3 n=46 v=0
1473469 On ch=3 n=46 v=100
1473469 On ch=3 n=20 v=100
1473522 Off ch=3 n=20 v=0
1473551 Off ch=3 n=46 v=0
1474766 On ch=3 n=22 v=100
1474795 On ch=3 n=12 v=100
1474972 Off ch=3 n=22 v=0
1474972 Off ch=3 n=12 v=0
1475310 On ch=3 n=28 v=100
1475310 On ch=3 n=28 v=100
1475441 On ch=3 n=11 v=100
1475707 On ch=3 n=37 v=100
1475711 On ch=3 n=45 v=100
1475742 Off ch=3 n=28 v=0
1475742 Off ch=3 n=28 v=0
1475771 Off ch=3 n=11 v=0
1475828 Off ch=3 n=37 v=0
1475852 Off ch=3 n=45 v=0
1476060 On ch=3 n=35 v=100
1476310 On ch=3 n=40 v=100
1476312 Off ch=3 n=35 v=0
1476395 Off ch=3 n=40 v=0
1476453 On ch=3 n=20 v=100
1476481 On ch=3 n=13 v=100
1476653 Off ch=3 n=13 v=0
1476658 Off ch=3 n=20 v=0
1477271 On ch=3 n=31 v=100
1477271 On ch=3 n=31 v=100
1477317 On ch=3 n=18 v=100
1477600 Off ch=3 n=18 v=0
1477612 Off ch=3 n=31 v=0
1477612 Off ch=3 n=31 v=0
1477884 On ch=3 n=6 v=100
1478745 Off ch=3 n=6 v=0
1479636 On ch=3 n=23 v=100
1479789 Off ch=3 n=23 v=0
1479842 On ch=3 n=19 v=100
1479909 Off ch=3 n=19 v=0
1479962 On ch=3 n=19 v=100
1480026 Off ch=3 n=19 v=0
1480036 On ch=3 n=24 v=100
1480187 Off ch=3 n=24 v=0
1480727 On ch=3 n=6 v=100
1481120 Off ch=3 n=6 v=0
1481223 On ch=3 n=9 v=100
1481502 Off ch=3 n=9 v=0
1481939 On ch=3 n=21 v=100
1482097 Off ch=3 n=21 v=0
1482123 On ch=3 n=18 v=100
1482345 Off ch=3 n=18 v=0
1482403 On ch=3 n=14 v=100
1482616 On ch=3 n=34 v=100
1482639 Off ch=3 n=14 v=0
1482712 On ch=3 n=41 v=100
1482712 On ch=3 n=41 v=100
1482731 On ch=3 n=12 v=100
1482823 Off ch=3 n=34 v=0
1482944 Off ch=3 n=12 v=0
1482961 Off ch=3 n=41 v=0
1482961 Off ch=3 n=41 v=0
1483485 On ch=3 n=27 v=100
1483754 Off ch=3 n=27 v=0
1483795 On ch=3 n=18 v=100
1483795 On ch=3 n=27 v=100
1484062 On ch=3 n=46 v=100
1484144 Off ch=3 n=27 v=0
1484155 On ch=3 n=31 v=100
1484259 Off ch=3 n=18 v=0
1484325 Off ch=3 n=46 v=0
1484440 Off ch=3 n=31 v=0
1484976 On ch=3 n=12 v=100
1485288 Off ch=3 n=12 v=0
1486098 On ch=3 n=1 v=100
1487254 Off ch=3 n=1 v=0
1488530 On ch=3 n=35 v=100
1488649 On ch=3 n=19 v=100
1488661 Off ch=3 n=35 v=0
1488725 Off ch=3 n=19 v=0
1488733 On ch=3 n=33 v=100
1488903 Off ch=3 n=33 v=0
1488921 On ch=3 n=37 v=100
1488922 On ch=3 n=6 v=100
1489025 On ch=3 n=12 v=100
1489027 Off ch=3 n=6 v=0
1489283 On ch=3 n=21 v=100
1489283 Off ch=3 n=12 v=0
1489285 Off ch=3 n=37 v=0
1489472 Off ch=3 n=21 v=0
1491462 On ch=3 n=29 v=100
1491559 On ch=3 n=21 v=100
1491578 Off ch=3 n=29 v=0
1491952 Off ch=3 n=21 v=0
1492020 On ch=3 n=20 v=100
1492097 Off ch=3 n=20 v=0
1492337 On ch=3 n=9 v=100
1492466 Off ch=3 n=9 v=0
1492476 On ch=3 n=8 v=100
1492858 Off ch=3 n=8 v=0
1493166 On ch=3 n=29 v=100
1493227 Off ch=3 n=29 v=0
1493995 On ch=3 n=21 v=100
1494012 On ch=3 n=56 v=100
1494031 Off ch=3 n=21 v=0
1494036 On ch=3 n=5 v=100
1494216 Off ch=3 n=56 v=0
1494452 Off ch=3 n=5 v=0
1494487 On ch=3 n=4 v=100
1494949 On ch=3 n=17 v=100
1494968 Off ch=3 n=4 v=0
1495010 On ch=3 n=10 v=100
1495036 Off ch=3 n=17 v=0
1495541 On ch=3 n=31 v=100
1495614 Off ch=3 n=10 v=0
1495626 Off ch=3 n=31 v=0
1496435 On ch=3 n=11 v=100
1496653 Off ch=3 n=11 v=0
1496912 On ch=3 n=28 v=100
1496932 On ch=3 n=19 v=100
1496973 Off ch=3 n=28 v=0
1496973 Off ch=3 n=19 v=0
1497078 On ch=3 n=14 v=100
1497177 Off ch=3 n=14 v=0
1497279 On ch=3 n=26 v=100
1497347 On ch=3 n=9 v=100
1497363 Off ch=3 n=26 v=0
1497927 Off ch=3 n=9 v=0
1497932 On ch=3 n=12 v=100
1498056 Off ch=3 n=12 v=0
1499720 On ch=3 n=23 v=100
1499793 Off ch=3 n=23 v=0
1500034 On ch=3 n=8 v=100
1500460 Off ch=3 n=8 v=0
1500463 On ch=3 n=8 v=100
1500569 On ch=3 n=15 v=100
1500636 Off ch=3 n=8 v=0
1500661 Off ch=3 n=15 v=0
1501654 On ch=3 n=20 v=100
1501943 Off ch=3 n=20 v=0
1502495 On ch=3 n=5 v=100
1502625 On ch=3 n=48 v=100
1502647 On ch=3 n=28 v=100
1502647 On ch=3 n=38 v=100
1502647 Off ch=3 n=5 v=0
1502648 On ch=3 n=13 v=100
1502650 On ch=3 n=45 v=100
1502711 Off ch=3 n=13 v=0
1502724 Off ch=3 n=48 v=0
1502727 Off ch=3 n=28 v=0
1502745 Off ch=3 n=38 v=0
1502847 Off ch=3 n=45 v=0
1503594 On ch=3 n=10 v=100
1503780 Off ch=3 n=10 v=0
1504066 On ch=3 n=12 v=100
1504685 On ch=3 n=49 v=100
1504685 On ch=3 n=49 v=100
1504872 Off ch=3 n=12 v=0
1504986 On ch=3 n=21 v=100
1505009 On ch=3 n=15 v=100
1505009 On ch=3 n=32 v=100
1505109 Off ch=3 n=49 v=0
1505109 Off ch=3 n=49 v=0
1505118 Off ch=3 n=21 v=0
1505135 On ch=3 n=14 v=100
1505137 Off ch=3 n=15 v=0
1505162 Off ch=3 n=32 v=0
1505181 On ch=3 n=31 v=100
1505516 Off ch=3 n=14 v=0
1505753 Off ch=3 n=31 v=0
1509003 On ch=3 n=7 v=100
1509061 Off ch=3 n=7 v=0
1511037 On ch=3 n=9 v=100
1511051 On ch=3 n=11 v=100
1511162 Off ch=3 n=9 v=0
1511468 On ch=3 n=34 v=100
1511505 On ch=3 n=13 v=100
1511526 Off ch=3 n=11 v=0
1511721 Off ch=3 n=13 v=0
1511722 Off ch=3 n=34 v=0
1511827 On ch=3 n=49 v=100
1511841 On ch=3 n=21 v=100
1511940 Off ch=3 n=49 v=0
1511941 Off ch=3 n=21 v=0
1511949 On ch=3 n=11 v=100
1512267 On ch=3 n=33 v=100
1512298 Off ch=3 n=11 v=0
1512370 On ch=3 n=17 v=100
1512370 On ch=3 n=23 v=100
1512502 Off ch=3 n=33 v=0
1512639 Off ch=3 n=17 v=0
1512700 Off ch=3 n=23 v=0
1514724 On ch=3 n=18 v=100
1514749 Off ch=3 n=18 v=0
1515202 On ch=3 n=14 v=100
1515389 Off ch=3 n=14 v=0
1515655 On ch=3 n=7 v=100
1515810 On ch=3 n=18 v=100
1515811 Off ch=3 n=7 v=0
1516709 Off ch=3 n=18 v=0
1518000 On ch=3 n=52 v=100
1518016 On ch=3 n=46 v=100
1518043 On ch=3 n=27 v=100
1518078 On ch=3 n=30 v=100
1518166 Off ch=3 n=46 v=0
1518189 Off ch=3 n=52 v=0
1518277 Off ch=3 n=27 v=0
1518353 Off ch=3 n=30 v=0
1518378 On ch=3 n=7 v=100
1519249 Off ch=3 n=7 v=0
1519259 On ch=3 n=46 v=100
1519307 On ch=3 n=24 v=100
1519441 On ch=3 n=18 v=100
1519441 On ch=3 n=18 v=100
1519474 On ch=3 n=10 v=100
1519482 On ch=3 n=14 v=100
1519532 Off ch=3 n=46 v=0
1519839 Off ch=3 n=10 v=0
1519840 Off ch=3 n=24 v=0
1519841 On ch=3 n=15 v=100
1519885 Off ch=3 n=14 v=0
1519916 Off ch=3 n=18 v=0
1519916 Off ch=3 n=18 v=0
1520295 Off ch=3 n=15 v=0
1520843 On ch=3 n=15 v=100
1520969 Off ch=3 n=15 v=0
1521014 On ch=3 n=35 v=100
1521237 Off ch=3 n=35 v=0
1522438 On ch=3 n=45 v=100
1522438 On ch=3 n=45 v=100
1522663 On ch=3 n=35 v=100
1522748 Off ch=3 n=35 v=0
1522796 On ch=3 n=13 v=100
1522798 Off ch=3 n=45 v=0
1522798 Off ch=3 n=45 v=0
1522928 On ch=3 n=15 v=100
1522928 Off ch=3 n=13 v=0
1522945 On ch=3 n=13 v=100
1523017 On ch=3 n=8 v=100
1523030 Off ch=3 n=15 v=0
1523031 Off ch=3 n=13 v=0
1523188 Off ch=3 n=8 v=0
1523191 On ch=3 n=11 v=100
1523383 On ch=3 n=15 v=100
1523401 On ch=3 n=8 v=100
1523401 Off ch=3 n=11 v=0
1523484 On ch=3 n=16 v=100
1523488 Off ch=3 n=8 v=0
1523489 Off ch=3 n=15 v=0
1523549 Off ch=3 n=16 v=0
1523558 On ch=3 n=59 v=100
1523667 On ch=3 n=32 v=100
1523778 On ch=3 n=33 v=100
1523778 Off ch=3 n=32 v=0
1523818 On ch=3 n=46 v=100
1523858 Off ch=3 n=33 v=0
1523919 On ch=3 n=24 v=100
1523919 On ch=3 n=24 v=100
1523936 On ch=3 n=22 v=100
1524036 Off ch=3 n=22 v=0
1524038 Off ch=3 n=46 v=0
1524048 Off ch=3 n=59 v=0
1524107 Off ch=3 n=24 v=0
1524107 Off ch=3 n=24 v=0
1524296 On ch=3 n=19 v=100
1524498 Off ch=3 n=19 v=0
1526112 On ch=3 n=27 v=100
1526112 On ch=3 n=27 v=100
1526251 On ch=3 n=17 v=100
1526332 On ch=3 n=38 v=100
1526332 On ch=3 n=38 v=100
1526506 Off ch=3 n=17 v=0
1526510 Off ch=3 n=27 v=0
1526510 Off ch=3 n=27 v=0
1526599 Off ch=3 n=38 v=0
1526599 Off ch=3 n=38 v=0
1526820 On ch=3 n=8 v=100
1527011 On ch=3 n=4 v=100
1527054 Off ch=3 n=8 v=0
1527062 Off ch=3 n=4 v=0
1533986 On ch=3 n=37 v=100
1533987 On ch=3 n=20 v=100
1533987 On ch=3 n=32 v=100
1533988 On ch=3 n=16 v=100
1534082 Off ch=3 n=16 v=0
1534096 Off ch=3 n=20 v=0
1534147 Off ch=3 n=32 v=0
1534218 Off ch=3 n=37 v=0
1534370 On ch=3 n=41 v=100
1534505 Off ch=3 n=41 v=0
1535218 On ch=3 n=7 v=100
1535454 Off ch=3 n=7 v=0
1535498 On ch=3 n=8 v=100
1535886 Off ch=3 n=8 v=0
1535887 On ch=3 n=0 v=100
1535920 Off ch=3 n=0 v=0
1535978 On ch=3 n=17 v=100
1536200 Off ch=3 n=17 v=0
1536202 On ch=3 n=10 v=100
1537322 Off ch=3 n=10 v=0
1537326 On ch=3 n=11 v=100
1537731 Off ch=3 n=11 v=0
1537971 On ch=3 n=18 v=100
1538108 On ch=3 n=13 v=100
1538113 On ch=3 n=27 v=100
1538487 Off ch=3 n=18 v=0
1538551 Off ch=3 n=13 v=0
1538741 Off ch=3 n=27 v=0
1539728 On ch=3 n=12 v=100
1539779 Off ch=3 n=12 v=0
1539783 On ch=3 n=20 v=100
1539860 Off ch=3 n=20 v=0
1540285 On ch=3 n=14 v=100
1540386 Off ch=3 n=14 v=0
1540497 On ch=3 n=34 v=100
1540497 On ch=3 n=36 v=100
1540528 On ch=3 n=14 v=100
1540551 On ch=3 n=23 v=100
1540598 Off ch=3 n=34 v=0
1540647 Off ch=3 n=36 v=0
1540668 On ch=3 n=16 v=100
1540766 Off ch=3 n=14 v=0
1540827 Off ch=3 n=23 v=0
1540854 Off ch=3 n=16 v=0
1542222 On ch=3 n=7 v=100
1542342 Off ch=3 n=7 v=0
1542398 On ch=3 n=9 v=100
1542685 On ch=3 n=27 v=100
1542750 On ch=3 n=5 v=100
1542753 Off ch=3 n=9 v=0
1542928 Off ch=3 n=27 v=0
1542929 On ch=3 n=10 v=100
1542929 Off ch=3 n=5 v=0
1543590 Off ch=3 n=10 v=0
1543938 On ch=3 n=27 v=100
1543997 Off ch=3 n=27 v=0
1544467 On ch=3 n=14 v=100
1544575 Off ch=3 n=14 v=0
1545275 On ch=3 n=39 v=100
1545388 Off ch=3 n=39 v=0
1545397 On ch=3 n=25 v=100
1545573 On ch=3 n=29 v=100
1545634 On ch=3 n=18 v=100
1545740 Off ch=3 n=25 v=0
1545747 On ch=3 n=23 v=100
1546100 Off ch=3 n=29 v=0
1546101 Off ch=3 n=18 v=0
1546103 Off ch=3 n=23 v=0
1546138 On ch=3 n=23 v=100
1546171 On ch=3 n=22 v=100
1546280 Off ch=3 n=23 v=0
1546301 Off ch=3 n=22 v=0
1546883 On ch=3 n=8 v=100
1546907 Off ch=3 n=8 v=0
1547082 On ch=3 n=35 v=100
1547082 On ch=3 n=35 v=100
1547084 On ch=3 n=15 v=100
1547084 On ch=3 n=15 v=100
1547253 Off ch=3 n=15 v=0
1547253 Off ch=3 n=15 v=0
1547255 On ch=3 n=3 v=100
1547496 Off ch=3 n=3 v=0
1547498 On ch=3 n=19 v=100
1547498 On ch=3 n=19 v=100
1547687 On ch=3 n=25 v=100
1547750 Off ch=3 n=19 v=0
1547750 Off ch=3 n=19 v=0
1547752 Off ch=3 n=35 v=0
1547752 Off ch=3 n=35 v=0
1547774 Off ch=3 n=25 v=0
1548097 On ch=3 n=35 v=100
1548097 On ch=3 n=35 v=100
1548165 On ch=3 n=17 v=100
1548327 On ch=3 n=24 v=100
1548374 Off ch=3 n=17 v=0
1548502 Off ch=3 n=24 v=0
1548505 Off ch=3 n=35 v=0
1548505 Off ch=3 n=35 v=0
1548634 On ch=3 n=12 v=100
1549258 Off ch=3 n=12 v=0
1549493 On ch=3 n=45 v=100
1549604 Off ch=3 n=45 v=0
1550441 On ch=3 n=19 v=100
1550511 On ch=3 n=13 v=100
1550559 On ch=3 n=20 v=100
1550868 Off ch=3 n=19 v=0
1550868 Off ch=3 n=13 v=0
1550868 Off ch=3 n=20 v=0
1551040 On ch=3 n=19 v=100
1551040 On ch=3 n=20 v=100
1551051 Off ch=3 n=19 v=0
1551152 Off ch=3 n=20 v=0
1551757 On ch=3 n=16 v=100
1551768 On ch=3 n=15 v=100
1551817 Off ch=3 n=16 v=0
1552178 Off ch=3 n=15 v=0
1552549 On ch=3 n=13 v=100
1552656 On ch=3 n=14 v=100
1552657 Off ch=3 n=13 v=0
1552744 Off ch=3 n=14 v=0
1552745 On ch=3 n=13 v=100
1552807 On ch=3 n=25 v=100
1552812 Off ch=3 n=13 v=0
1553026 Off ch=3 n=25 v=0
1553846 On ch=3 n=21 v=100
1553847 On ch=3 n=18 v=100
1554065 Off ch=3 n=18 v=0
1554095 Off ch=3 n=21 v=0
1554557 On ch=3 n=23 v=100
1554730 On ch=3 n=19 v=100
1554743 Off ch=3 n=23 v=0
1555050 Off ch=3 n=19 v=0
1555107 On ch=3 n=14 v=100
1555135 Off ch=3 n=14 v=0
1555170 On ch=3 n=14 v=100
1555182 On ch=3 n=9 v=100
1555205 Off ch=3 n=14 v=0
1555339 Off ch=3 n=9 v=0
1555340 On ch=3 n=7 v=100
1555346 On ch=3 n=54 v=100
1555504 Off ch=3 n=7 v=0
1555698 Off ch=3 n=54 v=0
1556158 On ch=3 n=12 v=100
1556201 On ch=3 n=6 v=100
1556430 Off ch=3 n=6 v=0
1556436 Off ch=3 n=12 v=0
1556466 On ch=3 n=25 v=100
1556680 On ch=3 n=13 v=100
1556685 Off ch=3 n=25 v=0
1556747 Off ch=3 n=13 v=0
1556748 On ch=3 n=14 v=100
1556835 On ch=3 n=13 v=100
1556836 Off ch=3 n=14 v=0
1556943 Off ch=3 n=13 v=0
1557048 On ch=3 n=15 v=100
1557126 Off ch=3 n=15 v=0
1563620 On ch=3 n=19 v=100
1563896 Off ch=3 n=19 v=0
1563934 On ch=3 n=36 v=100
1564025 Off ch=3 n=36 v=0
1565176 On ch=3 n=21 v=100
1565365 Off ch=3 n=21 v=0
1565528 On ch=3 n=15 v=100
1565595 On ch=3 n=8 v=100
1565597 Off ch=3 n=15 v=0
1565643 Off ch=3 n=8 v=0
1565644 On ch=3 n=9 v=100
1565800 Off ch=3 n=9 v=0
1567500 On ch=3 n=14 v=100
1567788 On ch=3 n=24 v=100
1567790 Off ch=3 n=14 v=0
1567922 Off ch=3 n=24 v=0
1567962 On ch=3 n=43 v=100
1568014 On ch=3 n=7 v=100
1568220 On ch=3 n=34 v=100
1568248 Off ch=3 n=43 v=0
1568248 Off ch=3 n=7 v=0
1568381 Off ch=3 n=34 v=0
1568437 On ch=3 n=32 v=100
1568507 On ch=3 n=9 v=100
1568611 Off ch=3 n=32 v=0
1569492 Off ch=3 n=9 v=0
1569494 On ch=3 n=15 v=100
1569605 Off ch=3 n=15 v=0
1574542 On ch=3 n=4 v=100
1574777 Off ch=3 n=4 v=0
1576341 On ch=3 n=29 v=100
1576348 On ch=3 n=39 v=100
1576349 On ch=3 n=38 v=100
1576352 On ch=3 n=23 v=100
1576405 Off ch=3 n=29 v=0
1576586 Off ch=3 n=23 v=0
1576629 Off ch=3 n=39 v=0
1576687 Off ch=3 n=38 v=0
1579444 On ch=3 n=11 v=100
1580150 Off ch=3 n=11 v=0
1580453 On ch=3 n=56 v=100
1580753 On ch=3 n=29 v=100
1580783 On ch=3 n=21 v=100
1580819 On ch=3 n=30 v=100
1580919 Off ch=3 n=56 v=0
1581012 Off ch=3 n=21 v=0
1581017 Off ch=3 n=29 v=0
1581041 Off ch=3 n=30 v=0
1581176 On ch=3 n=16 v=100
1581517 Off ch=3 n=16 v=0
1581581 On ch=3 n=12 v=100
1582003 Off ch=3 n=12 v=0
1583430 On ch=3 n=10 v=100
1583487 Off ch=3 n=10 v=0
1583493 On ch=3 n=10 v=100
1583604 Off ch=3 n=10 v=0
1584061 On ch=3 n=33 v=100
1584131 On ch=3 n=22 v=100
1584204 On ch=3 n=25 v=100
1584351 Off ch=3 n=33 v=0
1584358 Off ch=3 n=22 v=0
1584384 Off ch=3 n=25 v=0
1584718 On ch=3 n=24 v=100
1584750 On ch=3 n=21 v=100
1584750 On ch=3 n=21 v=100
1584810 On ch=3 n=16 v=100
1585114 Off ch=3 n=24 v=0
1585130 On ch=3 n=14 v=100
1585136 Off ch=3 n=16 v=0
1585161 Off ch=3 n=21 v=0
1585161 Off ch=3 n=21 v=0
1585594 Off ch=3 n=14 v=0
1585827 On ch=3 n=24 v=100
1585848 On ch=3 n=38 v=100
1586092 Off ch=3 n=24 v=0
1586132 Off ch=3 n=38 v=0
1586414 On ch=3 n=14 v=100
1586431 On ch=3 n=15 v=100
1586470 On ch=3 n=21 v=100
1586564 Off ch=3 n=14 v=0
1586605 Off ch=3 n=15 v=0
1586649 On ch=3 n=41 v=100
1586681 Off ch=3 n=21 v=0
1587227 On ch=3 n=21 v=100
1587479 Off ch=3 n=41 v=0
1587480 Off ch=3 n=21 v=0
1587982 On ch=3 n=35 v=100
1587982 On ch=3 n=35 v=100
1588007 On ch=3 n=4 v=100
1588256 On ch=3 n=24 v=100
1588259 Off ch=3 n=4 v=0
1588423 On ch=3 n=18 v=100
1588441 Off ch=3 n=35 v=0
1588441 Off ch=3 n=35 v=0
1588642 Off ch=3 n=24 v=0
1588952 Off ch=3 n=18 v=0
1591299 On ch=3 n=10 v=100
1591317 Off ch=3 n=10 v=0
1591505 On ch=3 n=10 v=100
1592330 Off ch=3 n=10 v=0
1593005 On ch=3 n=22 v=100
1593159 On ch=3 n=27 v=100
1593160 On ch=3 n=11 v=100
1593179 On ch=3 n=12 v=100
1593551 Off ch=3 n=11 v=0
1593591 Off ch=3 n=22 v=0
1593596 Off ch=3 n=12 v=0
1593687 On ch=3 n=26 v=100
1593807 Off ch=3 n=27 v=0
1593883 Off ch=3 n=26 v=0
1593892 On ch=3 n=8 v=100
1594613 Off ch=3 n=8 v=0
1594614 On ch=3 n=7 v=100
1594866 On ch=3 n=7 v=100
1594866 Off ch=3 n=7 v=0
1595742 Off ch=3 n=7 v=0
1597275 On ch=3 n=19 v=100
1597508 Off ch=3 n=19 v=0
1597563 On ch=3 n=18 v=100
1597664 Off ch=3 n=18 v=0
1597711 On ch=3 n=24 v=100
1597711 On ch=3 n=18 v=100
1597719 Off ch=3 n=18 v=0
1597742 Off ch=3 n=24 v=0
1597902 On ch=3 n=33 v=100
1597916 On ch=3 n=26 v=100
1597990 Off ch=3 n=33 v=0
1598004 Off ch=3 n=26 v=0
1598693 On ch=3 n=20 v=100
1598829 On ch=3 n=10 v=100
1598920 On ch=3 n=43 v=100
1598920 On ch=3 n=43 v=100
1599016 On ch=3 n=26 v=100
1599138 On ch=3 n=34 v=100
1599187 On ch=3 n=24 v=100
1599192 Off ch=3 n=20 v=0
1599205 Off ch=3 n=10 v=0
1599232 Off ch=3 n=26 v=0
1599263 Off ch=3 n=43 v=0
1599263 Off ch=3 n=43 v=0
1599345 Off ch=3 n=24 v=0
1599346 Off ch=3 n=34 v=0
1603763 On ch=3 n=22 v=100
1603834 On ch=3 n=17 v=100
1604109 Off ch=3 n=17 v=0
1604114 Off ch=3 n=22 v=0
1604132 On ch=3 n=10 v=100
1604979 Off ch=3 n=10 v=0
1604985 On ch=3 n=9 v=100
1605138 On ch=3 n=26 v=100
1605439 Off ch=3 n=9 v=0
1605523 Off ch=3 n=26 v=0
1607181 On ch=3 n=18 v=100
1607612 Off ch=3 n=18 v=0
1607613 On ch=3 n=15 v=100
1607737 Off ch=3 n=15 v=0
1607742 On ch=3 n=26 v=100
1607791 On ch=3 n=18 v=100
1607940 Off ch=3 n=18 v=0
1607941 On ch=3 n=16 v=100
1607942 Off ch=3 n=26 v=0
1607985 On ch=3 n=22 v=100
1608001 Off ch=3 n=16 v=0
1608085 On ch=3 n=10 v=100
1608360 Off ch=3 n=22 v=0
1608469 Off ch=3 n=10 v=0
1608849 On ch=3 n=36 v=100
1608882 On ch=3 n=36 v=100
1608886 On ch=3 n=19 v=100
1609015 Off ch=3 n=36 v=0
1609055 On ch=3 n=51 v=100
1609144 Off ch=3 n=19 v=0
1609209 Off ch=3 n=36 v=0
1609249 On ch=3 n=11 v=100
1609329 Off ch=3 n=51 v=0
1609894 Off ch=3 n=11 v=0
1610226 On ch=3 n=13 v=100
1610290 Off ch=3 n=13 v=0
1611204 On ch=3 n=14 v=100
1611233 On ch=3 n=23 v=100
1611241 Off ch=3 n=14 v=0
1611261 On ch=3 n=5 v=100
1611390 Off ch=3 n=23 v=0
1611456 Off ch=3 n=5 v=0
1612301 On ch=3 n=12 v=100
1612975 Off ch=3 n=12 v=0
1613037 On ch=3 n=12 v=100
1613164 On ch=3 n=14 v=100
1613268 Off ch=3 n=12 v=0
1613336 On ch=3 n=15 v=100
1613339 Off ch=3 n=14 v=0
1613446 Off ch=3 n=15 v=0
1614039 On ch=3 n=14 v=100
1614198 Off ch=3 n=14 v=0
1614246 On ch=3 n=17 v=100
1614358 On ch=3 n=16 v=100
1614380 Off ch=3 n=17 v=0
1614381 On ch=3 n=9 v=100
1614467 On ch=3 n=9 v=100
1614468 Off ch=3 n=16 v=0
1614468 Off ch=3 n=9 v=0
1614576 On ch=3 n=15 v=100
1614595 Off ch=3 n=9 v=0
1615436 Off ch=3 n=15 v=0
1615437 On ch=3 n=3 v=100
1615470 Off ch=3 n=3 v=0
1615496 On ch=3 n=17 v=100
1615611 Off ch=3 n=17 v=0
1615810 On ch=3 n=12 v=100
1616206 On ch=3 n=9 v=100
1616206 Off ch=3 n=12 v=0
1616471 On ch=3 n=19 v=100
1616474 Off ch=3 n=9 v=0
1616563 Off ch=3 n=19 v=0
1616618 On ch=3 n=22 v=100
1616683 Off ch=3 n=22 v=0
1617193 On ch=3 n=12 v=100
1617285 On ch=3 n=8 v=100
1617289 Off ch=3 n=12 v=0
1617651 Off ch=3 n=8 v=0
1617652 On ch=3 n=11 v=100
1618036 Off ch=3 n=11 v=0
1618164 On ch=3 n=11 v=100
1618251 On ch=3 n=11 v=100
1618519 Off ch=3 n=11 v=0
1618630 Off ch=3 n=11 v=0
1619612 On ch=3 n=30 v=100
1619684 On ch=3 n=34 v=100
1619909 Off ch=3 n=30 v=0
1619943 Off ch=3 n=34 v=0
1620402 On ch=3 n=9 v=100
1620808 On ch=3 n=12 v=100
1620811 Off ch=3 n=9 v=0
1621487 Off ch=3 n=12 v=0
1621504 On ch=3 n=11 v=100
1621943 On ch=3 n=21 v=100
1621989 Off ch=3 n=11 v=0
1622030 Off ch=3 n=21 v=0
1622802 On ch=3 n=19 v=100
1622985 Off ch=3 n=19 v=0
1623032 On ch=3 n=1 v=100
1623098 Off ch=3 n=1 v=0
1623157 On ch=3 n=28 v=100
1623369 Off ch=3 n=28 v=0
1623426 On ch=3 n=37 v=100
1623465 On ch=3 n=31 v=100
1623527 On ch=3 n=40 v=100
1623578 Off ch=3 n=37 v=0
1623662 Off ch=3 n=31 v=0
1623850 Off ch=3 n=40 v=0
1624589 On ch=3 n=7 v=100
1624795 Off ch=3 n=7 v=0
1624828 On ch=3 n=5 v=100
1624863 Off ch=3 n=5 v=0
1626774 On ch=3 n=3 v=100
1626835 Off ch=3 n=3 v=0
1626838 On ch=3 n=2 v=100
1627507 On ch=3 n=11 v=100
1627710 On ch=3 n=2 v=100
1627716 Off ch=3 n=2 v=0
1627920 Off ch=3 n=11 v=0
1628243 Off ch=3 n=2 v=0
1628245 On ch=3 n=9 v=100
1628927 Off ch=3 n=9 v=0
1628928 On ch=3 n=10 v=100
1629417 Off ch=3 n=10 v=0
1629879 On ch=3 n=21 v=100
1629977 Off ch=3 n=21 v=0
1630846 On ch=3 n=20 v=100
1630853 On ch=3 n=42 v=100
1631006 Off ch=3 n=20 v=0
1631041 Off ch=3 n=42 v=0
1631416 On ch=3 n=10 v=100
1631600 Off ch=3 n=10 v=0
1632003 On ch=3 n=17 v=100
1632234 On ch=3 n=7 v=100
1632235 Off ch=3 n=17 v=0
1632356 Off ch=3 n=7 v=0
1632371 On ch=3 n=8 v=100
1632433 Off ch=3 n=8 v=0
1632758 On ch=3 n=22 v=100
1633183 Off ch=3 n=22 v=0
1633911 On ch=3 n=8 v=100
1634123 Off ch=3 n=8 v=0
1634124 On ch=3 n=7 v=100
1634645 Off ch=3 n=7 v=0
1636676 On ch=3 n=30 v=100
1637057 Off ch=3 n=30 v=0
1637065 On ch=3 n=19 v=100
1637154 Off ch=3 n=19 v=0
1637166 On ch=3 n=9 v=100
1637353 On ch=3 n=16 v=100
1637353 Off ch=3 n=9 v=0
1637557 On ch=3 n=18 v=100
1637558 Off ch=3 n=16 v=0
1637631 Off ch=3 n=18 v=0
1638516 On ch=3 n=15 v=100
1638709 Off ch=3 n=15 v=0
1638720 On ch=3 n=36 v=100
1638750 On ch=3 n=17 v=100
1638953 Off ch=3 n=17 v=0
1638961 Off ch=3 n=36 v=0
1639773 On ch=3 n=14 v=100
1639968 Off ch=3 n=14 v=0
1640077 On ch=3 n=25 v=100
1640078 On ch=3 n=38 v=100
1640352 Off ch=3 n=25 v=0
1640380 On ch=3 n=16 v=100
1640418 Off ch=3 n=38 v=0
1640690 Off ch=3 n=16 v=0
1641142 On ch=3 n=13 v=100
1641889 Off ch=3 n=13 v=0
1642038 On ch=3 n=30 v=100
1642050 On ch=3 n=12 v=100
1642057 On ch=3 n=21 v=100
1642120 Off ch=3 n=30 v=0
1642382 Off ch=3 n=12 v=0
1642452 Off ch=3 n=21 v=0
1642782 On ch=3 n=43 v=100
1642809 On ch=3 n=29 v=100
1642831 On ch=3 n=30 v=100
1642831 On ch=3 n=30 v=100
1642838 On ch=3 n=50 v=100
1642838 On ch=3 n=50 v=100
1642844 On ch=3 n=11 v=100
1642991 Off ch=3 n=11 v=0
1642994 Off ch=3 n=43 v=0
1643019 Off ch=3 n=29 v=0
1643044 Off ch=3 n=30 v=0
1643044 Off ch=3 n=30 v=0
1643116 Off ch=3 n=50 v=0
1643116 Off ch=3 n=50 v=0
1644280 On ch=3 n=8 v=100
1644834 Off ch=3 n=8 v=0
1644836 On ch=3 n=7 v=100
1645195 Off ch=3 n=7 v=0
1645604 On ch=3 n=3 v=100
1645896 On ch=3 n=10 v=100
1645919 Off ch=3 n=3 v=0
1645946 Off ch=3 n=10 v=0
1646080 On ch=3 n=12 v=100
1646406 Off ch=3 n=12 v=0
1647653 On ch=3 n=29 v=100
1647742 On ch=3 n=39 v=100
1647747 On ch=3 n=19 v=100
1648019 Off ch=3 n=19 v=0
1648035 Off ch=3 n=29 v=0
1648087 Off ch=3 n=39 v=0
1650029 On ch=3 n=15 v=100
1650230 Off ch=3 n=15 v=0
1650567 On ch=3 n=3 v=100
1650675 On ch=3 n=4 v=100
1650675 Off ch=3 n=3 v=0
1650859 Off ch=3 n=4 v=0
1650863 On ch=3 n=11 v=100
1650914 Off ch=3 n=11 v=0
1651017 On ch=3 n=7 v=100
1651017 On ch=3 n=11 v=100
1651052 Off ch=3 n=7 v=0
1651354 On ch=3 n=18 v=100
1651536 Off ch=3 n=11 v=0
1651536 Off ch=3 n=18 v=0
1651602 On ch=3 n=18 v=100
1651603 On ch=3 n=11 v=100
1651603 On ch=3 n=18 v=100
1651603 On ch=3 n=8 v=100
1651614 Off ch=3 n=11 v=0
1651652 Off ch=3 n=18 v=0
1651690 On ch=3 n=5 v=100
1651692 Off ch=3 n=8 v=0
1651736 Off ch=3 n=18 v=0
1651815 On ch=3 n=6 v=100
1651817 Off ch=3 n=5 v=0
1652618 On ch=3 n=24 v=100
1652690 Off ch=3 n=6 v=0
1652712 Off ch=3 n=24 v=0
1653111 On ch=3 n=31 v=100
1653161 Off ch=3 n=31 v=0
1653710 On ch=3 n=11 v=100
1654430 On ch=3 n=14 v=100
1654432 Off ch=3 n=11 v=0
1654583 Off ch=3 n=14 v=0
1654611 On ch=3 n=29 v=100
1654677 Off ch=3 n=29 v=0
1654679 On ch=3 n=18 v=100
1655019 On ch=3 n=27 v=100
1655030 Off ch=3 n=18 v=0
1655046 On ch=3 n=23 v=100
1655090 Off ch=3 n=27 v=0
1655474 Off ch=3 n=23 v=0
1658427 On ch=3 n=37 v=100
1658449 On ch=3 n=61 v=100
1658449 On ch=3 n=61 v=100
1658457 On ch=3 n=21 v=100
1658461 On ch=3 n=4 v=100
1658627 Off ch=3 n=37 v=0
1658649 Off ch=3 n=4 v=0
1658693 Off ch=3 n=21 v=0
1658808 Off ch=3 n=61 v=0
1658808 Off ch=3 n=61 v=0
1659109 On ch=3 n=12 v=100
1659540 Off ch=3 n=12 v=0
1661095 On ch=3 n=44 v=100
1661095 On ch=3 n=44 v=100
1661117 On ch=3 n=21 v=100
1661171 On ch=3 n=40 v=100
1661334 On ch=3 n=8 v=100
1661406 Off ch=3 n=21 v=0
1661500 Off ch=3 n=44 v=0
1661500 Off ch=3 n=44 v=0
1661524 Off ch=3 n=8 v=0
1661534 Off ch=3 n=40 v=0
1661968 On ch=3 n=11 v=100
1662268 Off ch=3 n=11 v=0
1662273 On ch=3 n=9 v=100
1662401 Off ch=3 n=9 v=0
1665807 On ch=3 n=38 v=100
1665940 Off ch=3 n=38 v=0
1672773 On ch=3 n=41 v=100
1672773 On ch=3 n=41 v=100
1672843 On ch=3 n=28 v=100
1672843 On ch=3 n=28 v=100
1672854 On ch=3 n=11 v=100
1673045 Off ch=3 n=11 v=0
1673063 Off ch=3 n=41 v=0
1673063 Off ch=3 n=41 v=0
1673073 Off ch=3 n=28 v=0
1673073 Off ch=3 n=28 v=0
1673224 On ch=3 n=13 v=100
1673754 On ch=3 n=48 v=100
1673789 Off ch=3 n=13 v=0
1673854 Off ch=3 n=48 v=0
1673867 On ch=3 n=23 v=100
1674023 Off ch=3 n=23 v=0
1674026 On ch=3 n=35 v=100
1674236 Off ch=3 n=35 v=0
1674245 On ch=3 n=13 v=100
1674245 On ch=3 n=23 v=100
1674757 Off ch=3 n=13 v=0
1674762 On ch=3 n=26 v=100
1674823 Off ch=3 n=23 v=0
1674843 On ch=3 n=56 v=100
1674892 On ch=3 n=23 v=100
1674898 Off ch=3 n=26 v=0
1674903 On ch=3 n=43 v=100
1675017 On ch=3 n=60 v=100
1675069 Off ch=3 n=56 v=0
1675146 Off ch=3 n=23 v=0
1675254 Off ch=3 n=43 v=0
1675302 Off ch=3 n=60 v=0
1675943 On ch=3 n=22 v=100
1676173 Off ch=3 n=22 v=0
1676273 On ch=3 n=33 v=100
1676343 Off ch=3 n=33 v=0
1680196 On ch=3 n=6 v=100
1680620 Off ch=3 n=6 v=0
1680700 On ch=3 n=36 v=100
1680835 On ch=3 n=30 v=100
1680840 Off ch=3 n=36 v=0
1680975 On ch=3 n=62 v=100
1681071 Off ch=3 n=30 v=0
1681107 Off ch=3 n=62 v=0
1682543 On ch=3 n=25 v=100
1682590 Off ch=3 n=25 v=0
1683340 On ch=3 n=13 v=100
1683455 Off ch=3 n=13 v=0
1684123 On ch=3 n=31 v=100
1684123 On ch=3 n=31 v=100
1684156 On ch=3 n=18 v=100
1684159 On ch=3 n=32 v=100
1684311 On ch=3 n=76 v=100
1684333 On ch=3 n=43 v=100
1684386 Off ch=3 n=18 v=0
1684414 Off ch=3 n=32 v=0
1684439 Off ch=3 n=31 v=0
1684439 Off ch=3 n=31 v=0
1684499 Off ch=3 n=76 v=0
1684576 Off ch=3 n=43 v=0
1684857 On ch=3 n=21 v=100
1685415 Off ch=3 n=21 v=0
1686270 On ch=3 n=5 v=100
1686390 On ch=3 n=12 v=100
1686409 On ch=3 n=21 v=100
1686415 On ch=3 n=7 v=100
1686415 Off ch=3 n=5 v=0
1686579 On ch=3 n=24 v=100
1686582 Off ch=3 n=7 v=0
1686604 Off ch=3 n=12 v=0
1686621 On ch=3 n=38 v=100
1686670 On ch=3 n=18 v=100
1686689 Off ch=3 n=21 v=0
1686708 Off ch=3 n=24 v=0
1686738 Off ch=3 n=38 v=0
1686906 Off ch=3 n=18 v=0
1687785 On ch=3 n=11 v=100
1688396 On ch=3 n=27 v=100
1688410 On ch=3 n=32 v=100
1688473 Off ch=3 n=11 v=0
1688478 On ch=3 n=8 v=100
1688484 Off ch=3 n=27 v=0
1688513 Off ch=3 n=32 v=0
1689386 Off ch=3 n=8 v=0
1690433 On ch=3 n=4 v=100
1690735 Off ch=3 n=4 v=0
1691162 On ch=3 n=15 v=100
1691398 Off ch=3 n=15 v=0
1693548 On ch=3 n=9 v=100
1693860 Off ch=3 n=9 v=0
1694188 On ch=3 n=20 v=100
1694428 Off ch=3 n=20 v=0
1695251 On ch=3 n=11 v=100
1695729 Off ch=3 n=11 v=0
1696412 On ch=3 n=21 v=100
1696470 Off ch=3 n=21 v=0
1697780 On ch=3 n=10 v=100
1699022 Off ch=3 n=10 v=0
1700065 On ch=3 n=14 v=100
1700190 Off ch=3 n=14 v=0
1700660 On ch=3 n=22 v=100
1700919 Off ch=3 n=22 v=0
1701538 On ch=3 n=23 v=100
1701749 On ch=3 n=18 v=100
1701770 Off ch=3 n=23 v=0
1702034 Off ch=3 n=18 v=0
1702236 On ch=3 n=22 v=100
1702335 On ch=3 n=15 v=100
1702352 Off ch=3 n=22 v=0
1702354 On ch=3 n=25 v=100
1702492 Off ch=3 n=15 v=0
1702931 Off ch=3 n=25 v=0
1703184 On ch=3 n=30 v=100
1703210 On ch=3 n=20 v=100
1703213 On ch=3 n=34 v=100
1703394 Off ch=3 n=30 v=0
1703528 Off ch=3 n=20 v=0
1703592 Off ch=3 n=34 v=0
1703749 On ch=3 n=33 v=100
1704084 Off ch=3 n=33 v=0
1704275 On ch=3 n=44 v=100
1704336 Off ch=3 n=44 v=0
1704339 On ch=3 n=19 v=100
1704402 Off ch=3 n=19 v=0
1704556 On ch=3 n=6 v=100
1704709 Off ch=3 n=6 v=0
1704710 On ch=3 n=11 v=100
1705023 On ch=3 n=10 v=100
1705030 Off ch=3 n=11 v=0
1705363 Off ch=3 n=10 v=0
1705371 On ch=3 n=21 v=100
1705501 Off ch=3 n=21 v=0
1705590 On ch=3 n=20 v=100
1705658 Off ch=3 n=20 v=0
1706355 On ch=3 n=34 v=100
1706425 Off ch=3 n=34 v=0
1706480 On ch=3 n=24 v=100
1706559 Off ch=3 n=24 v=0
1706560 On ch=3 n=8 v=100
1706984 Off ch=3 n=8 v=0
1707006 On ch=3 n=4 v=100
1707007 On ch=3 n=45 v=100
1707032 On ch=3 n=5 v=100
1707053 Off ch=3 n=4 v=0
1707101 Off ch=3 n=45 v=0
1707151 Off ch=3 n=5 v=0
1707153 On ch=3 n=4 v=100
1707253 Off ch=3 n=4 v=0
1707254 On ch=3 n=9 v=100
1707517 On ch=3 n=17 v=100
1707517 Off ch=3 n=9 v=0
1707945 Off ch=3 n=17 v=0
1709232 On ch=3 n=15 v=100
1709239 On ch=3 n=53 v=100
1709268 Off ch=3 n=15 v=0
1709269 Off ch=3 n=53 v=0
1709342 On ch=3 n=53 v=100
1709417 On ch=3 n=9 v=100
1709464 Off ch=3 n=53 v=0
1709722 Off ch=3 n=9 v=0
1710529 On ch=3 n=30 v=100
1710698 Off ch=3 n=30 v=0
1710865 On ch=3 n=8 v=100
1711012 On ch=3 n=53 v=100
1711219 Off ch=3 n=8 v=0
1711225 On ch=3 n=8 v=100
1711890 Off ch=3 n=53 v=0
1711944 Off ch=3 n=8 v=0
1712405 On ch=3 n=58 v=100
1712544 Off ch=3 n=58 v=0
1712675 On ch=3 n=33 v=100
1712726 On ch=3 n=10 v=100
1712736 On ch=3 n=45 v=100
1712876 Off ch=3 n=33 v=0
1712878 Off ch=3 n=10 v=0
1712939 Off ch=3 n=45 v=0
1713180 On ch=3 n=14 v=100
1713206 On ch=3 n=11 v=100
1713415 Off ch=3 n=14 v=0
1713557 On ch=3 n=22 v=100
1713581 Off ch=3 n=11 v=0
1713764 Off ch=3 n=22 v=0
1714398 On ch=3 n=28 v=100
1714561 Off ch=3 n=28 v=0
1714634 On ch=3 n=9 v=100
1715512 Off ch=3 n=9 v=0
1717557 On ch=3 n=48 v=100
1717625 Off ch=3 n=48 v=0
1717796 On ch=3 n=34 v=100
1717963 On ch=3 n=30 v=100
1717982 On ch=3 n=16 v=100
1718011 Off ch=3 n=34 v=0
1718015 On ch=3 n=13 v=100
1718104 Off ch=3 n=30 v=0
1718238 Off ch=3 n=13 v=0
1718239 Off ch=3 n=16 v=0
1718268 On ch=3 n=35 v=100
1718331 Off ch=3 n=35 v=0
1719058 On ch=3 n=17 v=100
1719627 On ch=3 n=21 v=100
1719700 Off ch=3 n=17 v=0
1719713 Off ch=3 n=21 v=0
1719717 On ch=3 n=21 v=100
1719972 Off ch=3 n=21 v=0
1720055 On ch=3 n=19 v=100
1720112 On ch=3 n=35 v=100
1720127 Off ch=3 n=19 v=0
1720360 Off ch=3 n=35 v=0
1721110 On ch=3 n=37 v=100
1721159 On ch=3 n=26 v=100
1721159 On ch=3 n=26 v=100
1721183 On ch=3 n=18 v=100
1721327 On ch=3 n=31 v=100
1721422 Off ch=3 n=18 v=0
1721436 Off ch=3 n=37 v=0
1721448 Off ch=3 n=26 v=0
1721448 Off ch=3 n=26 v=0
1721464 Off ch=3 n=31 v=0
1725865 On ch=3 n=40 v=100
1725909 On ch=3 n=14 v=100
1725909 On ch=3 n=17 v=100
1726186 Off ch=3 n=14 v=0
1726193 Off ch=3 n=40 v=0
1726234 Off ch=3 n=17 v=0
1726857 On ch=3 n=38 v=100
1726909 On ch=3 n=43 v=100
1726915 On ch=3 n=14 v=100
1726950 On ch=3 n=35 v=100
1727036 On ch=3 n=26 v=100
1727213 Off ch=3 n=14 v=0
1727222 Off ch=3 n=38 v=0
1727249 Off ch=3 n=26 v=0
1727255 Off ch=3 n=35 v=0
1727274 Off ch=3 n=43 v=0
1727309 On ch=3 n=18 v=100
1727369 Off ch=3 n=18 v=0
1727370 On ch=3 n=11 v=100
1727689 Off ch=3 n=11 v=0
1727690 On ch=3 n=15 v=100
1727886 Off ch=3 n=15 v=0
1728056 On ch=3 n=18 v=100
1728103 Off ch=3 n=18 v=0
1728106 On ch=3 n=9 v=100
1728470 On ch=3 n=11 v=100
1728622 Off ch=3 n=9 v=0
1728666 On ch=3 n=12 v=100
1728669 Off ch=3 n=11 v=0
1728765 Off ch=3 n=12 v=0
1729555 On ch=3 n=37 v=100
1729608 On ch=3 n=25 v=100
1729690 Off ch=3 n=37 v=0
1729690 Off ch=3 n=25 v=0
1729719 On ch=3 n=25 v=100
1729719 On ch=3 n=43 v=100
1729907 Off ch=3 n=25 v=0
1730000 Off ch=3 n=43 v=0
1730782 On ch=3 n=15 v=100
1730837 On ch=3 n=19 v=100
1731091 Off ch=3 n=15 v=0
1731092 On ch=3 n=9 v=100
1731101 On ch=3 n=18 v=100
1731138 Off ch=3 n=19 v=0
1731392 Off ch=3 n=9 v=0
1731474 Off ch=3 n=18 v=0
1732194 On ch=3 n=37 v=100
1732194 On ch=3 n=37 v=100
1732249 On ch=3 n=46 v=100
1732249 On ch=3 n=46 v=100
1732300 On ch=3 n=30 v=100
1732300 On ch=3 n=30 v=100
1732321 On ch=3 n=23 v=100
1732359 Off ch=3 n=37 v=0
1732359 Off ch=3 n=37 v=0
1732365 Off ch=3 n=30 v=0
1732365 Off ch=3 n=30 v=0
1732401 Off ch=3 n=46 v=0
1732401 Off ch=3 n=46 v=0
1732441 On ch=3 n=29 v=100
1732447 Off ch=3 n=23 v=0
1732453 On ch=3 n=24 v=100
1732518 Off ch=3 n=24 v=0
1732524 Off ch=3 n=29 v=0
1732952 On ch=3 n=36 v=100
1733571 Off ch=3 n=36 v=0
1733668 On ch=3 n=16 v=100
1733744 On ch=3 n=12 v=100
1733744 Off ch=3 n=16 v=0
1733818 Off ch=3 n=12 v=0
1733819 On ch=3 n=4 v=100
1735067 Off ch=3 n=4 v=0
1735070 On ch=3 n=27 v=100
1735600 Off ch=3 n=27 v=0
1736287 On ch=3 n=10 v=100
1737136 Off ch=3 n=10 v=0
1737143 On ch=3 n=16 v=100
1737203 Off ch=3 n=16 v=0
1738519 On ch=3 n=44 v=100
1738569 On ch=3 n=18 v=100
1738693 Off ch=3 n=18 v=0
1738698 On ch=3 n=4 v=100
1738699 Off ch=3 n=44 v=0
1739931 Off ch=3 n=4 v=0
1739932 On ch=3 n=8 v=100
1741339 Off ch=3 n=8 v=0
1741644 On ch=3 n=22 v=100
1741644 On ch=3 n=22 v=100
1741666 On ch=3 n=14 v=100
1741795 Off ch=3 n=14 v=0
1741812 Off ch=3 n=22 v=0
1741812 Off ch=3 n=22 v=0
1742806 On ch=3 n=7 v=100
1743135 On ch=3 n=9 v=100
1743140 Off ch=3 n=7 v=0
1743805 Off ch=3 n=9 v=0
1744392 On ch=3 n=16 v=100
1744485 Off ch=3 n=16 v=0
1744775 On ch=3 n=37 v=100
1744822 On ch=3 n=39 v=100
1744828 On ch=3 n=26 v=100
1744960 Off ch=3 n=26 v=0
1744963 Off ch=3 n=37 v=0
1744991 Off ch=3 n=39 v=0
1745477 On ch=3 n=27 v=100
1745536 Off ch=3 n=27 v=0
1745620 On ch=3 n=16 v=100
1745630 On ch=3 n=22 v=100
1745734 On ch=3 n=30 v=100
1745972 Off ch=3 n=16 v=0
1746017 On ch=3 n=34 v=100
1746018 Off ch=3 n=22 v=0
1746061 Off ch=3 n=30 v=0
1746332 Off ch=3 n=34 v=0
1747474 On ch=3 n=33 v=100
1747474 On ch=3 n=33 v=100
1747495 On ch=3 n=23 v=100
1747552 Off ch=3 n=23 v=0
1747556 On ch=3 n=36 v=100
1747607 Off ch=3 n=33 v=0
1747607 Off ch=3 n=33 v=0
1747635 Off ch=3 n=36 v=0
1747637 On ch=3 n=8 v=100
1747733 Off ch=3 n=8 v=0
1747737 On ch=3 n=6 v=100
1748496 On ch=3 n=21 v=100
1748499 Off ch=3 n=6 v=0
1748502 On ch=3 n=32 v=100
1748672 Off ch=3 n=21 v=0
1748737 Off ch=3 n=32 v=0
1749868 On ch=3 n=12 v=100
1750243 Off ch=3 n=12 v=0
1750803 On ch=3 n=16 v=100
1750891 Off ch=3 n=16 v=0
1750892 On ch=3 n=15 v=100
1750947 On ch=3 n=7 v=100
1751044 Off ch=3 n=15 v=0
1751215 On ch=3 n=32 v=100
1751264 Off ch=3 n=7 v=0
1751405 Off ch=3 n=32 v=0
1751412 On ch=3 n=20 v=100
1751728 Off ch=3 n=20 v=0
1751730 On ch=3 n=7 v=100
1752621 Off ch=3 n=7 v=0
1752622 On ch=3 n=7 v=100
1753029 Off ch=3 n=7 v=0
1753149 On ch=3 n=35 v=100
1753298 Off ch=3 n=35 v=0
1755093 On ch=3 n=51 v=100
1755561 On ch=3 n=12 v=100
1755590 Off ch=3 n=51 v=0
1755895 On ch=3 n=13 v=100
1755908 Off ch=3 n=12 v=0
1756065 Off ch=3 n=13 v=0
1758090 On ch=3 n=27 v=100
1758488 Off ch=3 n=27 v=0
1760504 On ch=3 n=38 v=100
1760583 On ch=3 n=48 v=100
1760590 On ch=3 n=28 v=100
1760784 Off ch=3 n=38 v=0
1760870 Off ch=3 n=28 v=0
1761016 Off ch=3 n=48 v=0
1761667 On ch=3 n=5 v=100
1761722 Off ch=3 n=5 v=0
1761723 On ch=3 n=9 v=100
1761988 Off ch=3 n=9 v=0
1762205 On ch=3 n=11 v=100
1762322 Off ch=3 n=11 v=0
1762328 On ch=3 n=27 v=100
1762488 Off ch=3 n=27 v=0
1762638 On ch=3 n=20 v=100
1762757 Off ch=3 n=20 v=0
1765091 On ch=3 n=62 v=100
1765167 On ch=3 n=35 v=100
1765188 On ch=3 n=20 v=100
1765274 Off ch=3 n=62 v=0
1765275 Off ch=3 n=20 v=0
1765277 Off ch=3 n=35 v=0
1765278 On ch=3 n=7 v=100
1765536 On ch=3 n=8 v=100
1765536 Off ch=3 n=7 v=0
1765609 On ch=3 n=2 v=100
1765609 Off ch=3 n=8 v=0
1765901 Off ch=3 n=2 v=0
1765904 On ch=3 n=5 v=100
1765984 Off ch=3 n=5 v=0
1765987 On ch=3 n=22 v=100
1766003 On ch=3 n=55 v=100
1766067 Off ch=3 n=22 v=0
1766180 Off ch=3 n=55 v=0
1766814 On ch=3 n=21 v=100
1767246 Off ch=3 n=21 v=0
1767288 On ch=3 n=10 v=100
1767531 Off ch=3 n=10 v=0
1767539 On ch=3 n=12 v=100
1767547 On ch=3 n=36 v=100
1767549 On ch=3 n=64 v=100
1767549 On ch=3 n=64 v=100
1767551 On ch=3 n=58 v=100
1767623 Off ch=3 n=12 v=0
1767640 Off ch=3 n=36 v=0
1767659 Off ch=3 n=58 v=0
1767684 On ch=3 n=5 v=100
1767747 Off ch=3 n=5 v=0
1767752 On ch=3 n=8 v=100
1767844 Off ch=3 n=64 v=0
1767844 Off ch=3 n=64 v=0
1767964 Off ch=3 n=8 v=0
1768005 On ch=3 n=25 v=100
1768302 Off ch=3 n=25 v=0
1768654 On ch=3 n=33 v=100
1768682 On ch=3 n=21 v=100
1768766 On ch=3 n=29 v=100
1768849 On ch=3 n=65 v=100
1768946 Off ch=3 n=21 v=0
1768954 Off ch=3 n=33 v=0
1768975 Off ch=3 n=29 v=0
1769131 Off ch=3 n=65 v=0
1770164 On ch=3 n=47 v=100
1770164 On ch=3 n=47 v=100
1770206 On ch=3 n=37 v=100
1770282 Off ch=3 n=37 v=0
1770310 Off ch=3 n=47 v=0
1770310 Off ch=3 n=47 v=0
1770485 On ch=3 n=37 v=100
1770796 Off ch=3 n=37 v=0
1770830 On ch=3 n=20 v=100
1770845 On ch=3 n=16 v=100
1770917 Off ch=3 n=20 v=0
1770917 Off ch=3 n=16 v=0
1771211 On ch=3 n=24 v=100
1771213 On ch=3 n=31 v=100
1771226 On ch=3 n=36 v=100
1771272 Off ch=3 n=24 v=0
1771286 Off ch=3 n=31 v=0
1771290 Off ch=3 n=36 v=0
1771717 On ch=3 n=22 v=100
1771901 On ch=3 n=7 v=100
1771906 Off ch=3 n=22 v=0
1772181 On ch=3 n=23 v=100
1772292 Off ch=3 n=7 v=0
1772685 Off ch=3 n=23 v=0
1772696 On ch=3 n=25 v=100
1772812 Off ch=3 n=25 v=0
1773100 On ch=3 n=56 v=100
1773192 On ch=3 n=62 v=100
1773236 On ch=3 n=45 v=100
1773272 On ch=3 n=30 v=100
1773364 On ch=3 n=35 v=100
1773401 Off ch=3 n=56 v=0
1773402 Off ch=3 n=62 v=0
1773538 Off ch=3 n=45 v=0
1773554 Off ch=3 n=30 v=0
1773592 Off ch=3 n=35 v=0
1774051 On ch=3 n=20 v=100
1774170 On ch=3 n=51 v=100
1774207 On ch=3 n=11 v=100
1774212 On ch=3 n=45 v=100
1774214 Off ch=3 n=20 v=0
1774412 Off ch=3 n=51 v=0
1774417 Off ch=3 n=11 v=0
1774449 Off ch=3 n=45 v=0
1774778 On ch=3 n=11 v=100
1774957 On ch=3 n=19 v=100
1774957 On ch=3 n=19 v=100
1774963 Off ch=3 n=11 v=0
1775056 On ch=3 n=12 v=100
1775454 Off ch=3 n=12 v=0
1775458 On ch=3 n=2 v=100
1775485 Off ch=3 n=19 v=0
1775485 Off ch=3 n=19 v=0
1775500 Off ch=3 n=2 v=0
1776126 On ch=3 n=37 v=100
1776161 On ch=3 n=44 v=100
1776161 On ch=3 n=44 v=100
1776189 On ch=3 n=16 v=100
1776197 On ch=3 n=43 v=100
1776206 On ch=3 n=2 v=100
1776408 Off ch=3 n=2 v=0
1776417 Off ch=3 n=16 v=0
1776420 Off ch=3 n=37 v=0
1776469 Off ch=3 n=43 v=0
1776499 Off ch=3 n=44 v=0
1776499 Off ch=3 n=44 v=0
1778283 On ch=3 n=8 v=100
1778511 On ch=3 n=32 v=100
1778561 Off ch=3 n=8 v=0
1778562 On ch=3 n=11 v=100
1778882 Off ch=3 n=32 v=0
1779231 Off ch=3 n=11 v=0
1780262 On ch=3 n=11 v=100
1780263 On ch=3 n=24 v=100
1780299 Off ch=3 n=11 v=0
1780325 Off ch=3 n=24 v=0
1781706 On ch=3 n=35 v=100
1781848 Off ch=3 n=35 v=0
1782754 On ch=3 n=34 v=100
1782821 Off ch=3 n=34 v=0
1784803 On ch=3 n=37 v=100
1784841 On ch=3 n=21 v=100
1785160 Off ch=3 n=21 v=0
1785162 Off ch=3 n=37 v=0
1785824 On ch=3 n=52 v=100
1785850 On ch=3 n=50 v=100
1785850 On ch=3 n=50 v=100
1785882 On ch=3 n=46 v=100
1785901 On ch=3 n=8 v=100
1785913 On ch=3 n=52 v=100
1786030 Off ch=3 n=46 v=0
1786086 Off ch=3 n=52 v=0
1786094 Off ch=3 n=8 v=0
1786132 Off ch=3 n=50 v=0
1786132 Off ch=3 n=50 v=0
1786144 Off ch=3 n=52 v=0
1787380 On ch=3 n=28 v=100
1787397 On ch=3 n=16 v=100
1787490 Off ch=3 n=28 v=0
1787493 Off ch=3 n=16 v=0
1787656 On ch=3 n=12 v=100
1787664 On ch=3 n=11 v=100
1787725 Off ch=3 n=12 v=0
1787737 Off ch=3 n=11 v=0
1788393 On ch=3 n=32 v=100
1788464 Off ch=3 n=32 v=0
1789388 On ch=3 n=20 v=100
1789388 On ch=3 n=20 v=100
1789435 On ch=3 n=12 v=100
1789504 On ch=3 n=10 v=100
1789504 On ch=3 n=27 v=100
1789504 On ch=3 n=10 v=100
1789679 On ch=3 n=34 v=100
1789679 On ch=3 n=34 v=100
1789808 Off ch=3 n=12 v=0
1789814 Off ch=3 n=20 v=0
1789814 Off ch=3 n=20 v=0
1789823 Off ch=3 n=10 v=0
1789823 Off ch=3 n=10 v=0
1789947 On ch=3 n=29 v=100
1789974 Off ch=3 n=27 v=0
1789977 On ch=3 n=40 v=100
1789980 On ch=3 n=22 v=100
1790125 Off ch=3 n=34 v=0
1790125 Off ch=3 n=34 v=0
1790230 Off ch=3 n=29 v=0
1790236 Off ch=3 n=22 v=0
1790276 Off ch=3 n=40 v=0
1791926 On ch=3 n=48 v=100
1791971 On ch=3 n=31 v=100
1791973 On ch=3 n=8 v=100
1792033 On ch=3 n=22 v=100
1792093 On ch=3 n=34 v=100
1792165 Off ch=3 n=8 v=0
1792172 Off ch=3 n=48 v=0
1792177 On ch=3 n=27 v=100
1792294 Off ch=3 n=31 v=0
1792308 On ch=3 n=29 v=100
1792414 Off ch=3 n=22 v=0
1792425 On ch=3 n=58 v=100
1792499 Off ch=3 n=34 v=0
1792559 Off ch=3 n=27 v=0
1792607 Off ch=3 n=29 v=0
1792767 Off ch=3 n=58 v=0
1792972 On ch=3 n=34 v=100
1792972 On ch=3 n=18 v=100
1793110 Off ch=3 n=18 v=0
1793136 Off ch=3 n=34 v=0
1793242 On ch=3 n=20 v=100
1793461 On ch=3 n=27 v=100
1793622 Off ch=3 n=20 v=0
1793750 Off ch=3 n=27 v=0
1794773 On ch=3 n=16 v=100
1795649 Off ch=3 n=16 v=0
1796628 On ch=3 n=19 v=100
1796659 On ch=3 n=20 v=100
1796660 On ch=3 n=22 v=100
1796741 Off ch=3 n=19 v=0
1796899 Off ch=3 n=20 v=0
1797018 Off ch=3 n=22 v=0
1797228 On ch=3 n=45 v=100
1797270 On ch=3 n=49 v=100
1797291 Off ch=3 n=45 v=0
1797332 On ch=3 n=43 v=100
1797334 On ch=3 n=23 v=100
1797334 On ch=3 n=37 v=100
1797535 Off ch=3 n=49 v=0
1797565 Off ch=3 n=23 v=0
1797615 Off ch=3 n=37 v=0
1797744 Off ch=3 n=43 v=0
1797959 On ch=3 n=10 v=100
1798324 Off ch=3 n=10 v=0
1798332 On ch=3 n=15 v=100
1798384 Off ch=3 n=15 v=0
1798390 On ch=3 n=26 v=100
1798545 Off ch=3 n=26 v=0
1798788 On ch=3 n=12 v=100
1798802 On ch=3 n=45 v=100
1798929 Off ch=3 n=12 v=0
1798945 Off ch=3 n=45 v=0
1799519 On ch=3 n=4 v=100
1800000 Off ch=3 n=4 v=0
TrkEnd    
MTrk    
0 PrCh ch=4 p=46 
0 Meta TrkName "LTR" 
26925 On ch=4 n=55 v=100
27135 Off ch=4 n=55 v=0
36707 On ch=4 n=24 v=100
37356 Off ch=4 n=24 v=0
49148 On ch=4 n=23 v=100
49730 Off ch=4 n=23 v=0
60210 On ch=4 n=50 v=100
60566 Off ch=4 n=50 v=0
72718 On ch=4 n=44 v=100
72914 Off ch=4 n=44 v=0
81330 On ch=4 n=36 v=100
81421 Off ch=4 n=36 v=0
82106 On ch=4 n=19 v=100
82479 Off ch=4 n=19 v=0
113414 On ch=4 n=24 v=100
113437 On ch=4 n=21 v=100
113641 Off ch=4 n=21 v=0
113647 Off ch=4 n=24 v=0
113660 On ch=4 n=15 v=100
113777 Off ch=4 n=15 v=0
117765 On ch=4 n=2 v=100
118187 Off ch=4 n=2 v=0
118189 On ch=4 n=0 v=100
124820 Off ch=4 n=0 v=0
124823 On ch=4 n=2 v=100
125245 Off ch=4 n=2 v=0
178519 On ch=4 n=9 v=100
178649 Off ch=4 n=9 v=0
199734 On ch=4 n=35 v=100
199850 Off ch=4 n=35 v=0
205790 On ch=4 n=17 v=100
206158 Off ch=4 n=17 v=0
226131 On ch=4 n=28 v=100
226415 Off ch=4 n=28 v=0
302183 On ch=4 n=42 v=100
302239 Off ch=4 n=42 v=0
302271 On ch=4 n=42 v=100
302548 Off ch=4 n=42 v=0
309206 On ch=4 n=18 v=100
309367 Off ch=4 n=18 v=0
322133 On ch=4 n=8 v=100
322359 Off ch=4 n=8 v=0
357076 On ch=4 n=38 v=100
357156 Off ch=4 n=38 v=0
359241 On ch=4 n=39 v=100
359383 Off ch=4 n=39 v=0
382231 On ch=4 n=62 v=100
382296 Off ch=4 n=62 v=0
384829 On ch=4 n=16 v=100
384924 Off ch=4 n=16 v=0
429089 On ch=4 n=36 v=100
429430 Off ch=4 n=36 v=0
430758 On ch=4 n=12 v=100
430837 Off ch=4 n=12 v=0
453878 On ch=4 n=37 v=100
453917 On ch=4 n=23 v=100
454041 Off ch=4 n=23 v=0
454053 Off ch=4 n=37 v=0
478378 On ch=4 n=3 v=100
478540 Off ch=4 n=3 v=0
478582 On ch=4 n=3 v=100
480282 Off ch=4 n=3 v=0
480517 On ch=4 n=26 v=100
480537 Off ch=4 n=26 v=0
536385 On ch=4 n=6 v=100
536593 Off ch=4 n=6 v=0
536595 On ch=4 n=8 v=100
537224 Off ch=4 n=8 v=0
545096 On ch=4 n=52 v=100
545327 Off ch=4 n=52 v=0
546277 On ch=4 n=30 v=100
546422 Off ch=4 n=30 v=0
575253 On ch=4 n=51 v=100
575343 Off ch=4 n=51 v=0
594609 On ch=4 n=23 v=100
594836 Off ch=4 n=23 v=0
609206 On ch=4 n=57 v=100
609391 Off ch=4 n=57 v=0
692606 On ch=4 n=7 v=100
693532 Off ch=4 n=7 v=0
726066 On ch=4 n=38 v=100
726395 Off ch=4 n=38 v=0
773976 On ch=4 n=9 v=100
774040 Off ch=4 n=9 v=0
811255 On ch=4 n=18 v=100
811649 Off ch=4 n=18 v=0
821808 On ch=4 n=30 v=100
821870 Off ch=4 n=30 v=0
882270 On ch=4 n=14 v=100
882448 Off ch=4 n=14 v=0
882522 On ch=4 n=14 v=100
883265 Off ch=4 n=14 v=0
889085 On ch=4 n=33 v=100
889085 On ch=4 n=33 v=100
889534 Off ch=4 n=33 v=0
889534 Off ch=4 n=33 v=0
903254 On ch=4 n=19 v=100
903403 Off ch=4 n=19 v=0
910266 On ch=4 n=12 v=100
910327 Off ch=4 n=12 v=0
910761 On ch=4 n=12 v=100
910929 Off ch=4 n=12 v=0
910954 On ch=4 n=9 v=100
911228 Off ch=4 n=9 v=0
913663 On ch=4 n=11 v=100
914169 On ch=4 n=29 v=100
914330 Off ch=4 n=11 v=0
914352 Off ch=4 n=29 v=0
924330 On ch=4 n=14 v=100
924808 Off ch=4 n=14 v=0
927450 On ch=4 n=7 v=100
927940 Off ch=4 n=7 v=0
929172 On ch=4 n=33 v=100
929172 On ch=4 n=33 v=100
929516 Off ch=4 n=33 v=0
929516 Off ch=4 n=33 v=0
934077 On ch=4 n=14 v=100
934432 Off ch=4 n=14 v=0
934663 On ch=4 n=24 v=100
934832 Off ch=4 n=24 v=0
939747 On ch=4 n=32 v=100
939747 On ch=4 n=32 v=100
940301 On ch=4 n=15 v=100
940301 On ch=4 n=15 v=100
940303 On ch=4 n=34 v=100
940303 On ch=4 n=34 v=100
940451 Off ch=4 n=32 v=0
940451 Off ch=4 n=32 v=0
940512 Off ch=4 n=15 v=0
940512 Off ch=4 n=15 v=0
940542 Off ch=4 n=34 v=0
940542 Off ch=4 n=34 v=0
962134 On ch=4 n=17 v=100
962269 Off ch=4 n=17 v=0
963615 On ch=4 n=35 v=100
963796 Off ch=4 n=35 v=0
971728 On ch=4 n=15 v=100
972183 Off ch=4 n=15 v=0
994226 On ch=4 n=35 v=100
994448 Off ch=4 n=35 v=0
1000551 On ch=4 n=16 v=100
1001028 Off ch=4 n=16 v=0
1010597 On ch=4 n=12 v=100
1010843 On ch=4 n=33 v=100
1010940 Off ch=4 n=12 v=0
1010955 Off ch=4 n=33 v=0
1013319 On ch=4 n=17 v=100
1013322 On ch=4 n=11 v=100
1013449 Off ch=4 n=11 v=0
1013475 Off ch=4 n=17 v=0
1015379 On ch=4 n=22 v=100
1015598 On ch=4 n=18 v=100
1015738 Off ch=4 n=18 v=0
1015739 Off ch=4 n=22 v=0
1059031 On ch=4 n=23 v=100
1059450 Off ch=4 n=23 v=0
1059565 On ch=4 n=11 v=100
1059621 Off ch=4 n=11 v=0
1062033 On ch=4 n=7 v=100
1062092 Off ch=4 n=7 v=0
1062896 On ch=4 n=4 v=100
1063306 Off ch=4 n=4 v=0
1066974 On ch=4 n=20 v=100
1067238 Off ch=4 n=20 v=0
1079854 On ch=4 n=30 v=100
1079983 Off ch=4 n=30 v=0
1093067 On ch=4 n=8 v=100
1093325 Off ch=4 n=8 v=0
1093967 On ch=4 n=7 v=100
1094074 Off ch=4 n=7 v=0
1101160 On ch=4 n=23 v=100
1101780 Off ch=4 n=23 v=0
1104671 On ch=4 n=23 v=100
1104727 Off ch=4 n=23 v=0
1104730 On ch=4 n=23 v=100
1104769 Off ch=4 n=23 v=0
1105441 On ch=4 n=19 v=100
1105559 Off ch=4 n=19 v=0
1110833 On ch=4 n=0 v=100
1110874 Off ch=4 n=0 v=0
1110876 On ch=4 n=2 v=100
1111067 Off ch=4 n=2 v=0
1134780 On ch=4 n=15 v=100
1135359 Off ch=4 n=15 v=0
1154185 On ch=4 n=22 v=100
1154345 Off ch=4 n=22 v=0
1160217 On ch=4 n=9 v=100
1160610 Off ch=4 n=9 v=0
1161767 On ch=4 n=0 v=100
1162223 Off ch=4 n=0 v=0
1162225 On ch=4 n=0 v=100
1166518 On ch=4 n=0 v=100
1166549 Off ch=4 n=0 v=0
1166978 Off ch=4 n=0 v=0
1171960 On ch=4 n=34 v=100
1171998 On ch=4 n=18 v=100
1172336 Off ch=4 n=18 v=0
1172349 Off ch=4 n=34 v=0
1178049 On ch=4 n=32 v=100
1178126 Off ch=4 n=32 v=0
1201326 On ch=4 n=6 v=100
1201881 Off ch=4 n=6 v=0
1205564 On ch=4 n=11 v=100
1205617 On ch=4 n=12 v=100
1205621 Off ch=4 n=11 v=0
1205720 Off ch=4 n=12 v=0
1207549 On ch=4 n=15 v=100
1207746 Off ch=4 n=15 v=0
1225842 On ch=4 n=24 v=100
1226072 Off ch=4 n=24 v=0
1237364 On ch=4 n=33 v=100
1237489 Off ch=4 n=33 v=0
1246690 On ch=4 n=0 v=100
1247019 Off ch=4 n=0 v=0
1255115 On ch=4 n=17 v=100
1255115 On ch=4 n=17 v=100
1255616 Off ch=4 n=17 v=0
1255616 Off ch=4 n=17 v=0
1264624 On ch=4 n=31 v=100
1264675 On ch=4 n=21 v=100
1264858 Off ch=4 n=31 v=0
1264858 Off ch=4 n=21 v=0
1271998 On ch=4 n=17 v=100
1272236 On ch=4 n=28 v=100
1272335 Off ch=4 n=17 v=0
1272354 Off ch=4 n=28 v=0
1274327 On ch=4 n=28 v=100
1274328 On ch=4 n=22 v=100
1274416 Off ch=4 n=22 v=0
1274426 Off ch=4 n=28 v=0
1274733 On ch=4 n=26 v=100
1274764 On ch=4 n=21 v=100
1275026 Off ch=4 n=21 v=0
1275027 Off ch=4 n=26 v=0
1282353 On ch=4 n=46 v=100
1282491 Off ch=4 n=46 v=0
1296997 On ch=4 n=12 v=100
1297039 Off ch=4 n=12 v=0
1297054 On ch=4 n=32 v=100
1297299 Off ch=4 n=32 v=0
1310104 On ch=4 n=53 v=100
1310109 On ch=4 n=44 v=100
1310385 Off ch=4 n=44 v=0
1310405 On ch=4 n=28 v=100
1310447 Off ch=4 n=53 v=0
1310473 Off ch=4 n=28 v=0
1314891 On ch=4 n=22 v=100
1315735 Off ch=4 n=22 v=0
1333473 On ch=4 n=19 v=100
1333659 On ch=4 n=27 v=100
1333832 Off ch=4 n=19 v=0
1333854 Off ch=4 n=27 v=0
1337627 On ch=4 n=43 v=100
1337797 Off ch=4 n=43 v=0
1340256 On ch=4 n=27 v=100
1340356 Off ch=4 n=27 v=0
1379337 On ch=4 n=0 v=100
1379586 Off ch=4 n=0 v=0
1379613 On ch=4 n=0 v=100
1379665 Off ch=4 n=0 v=0
1379722 On ch=4 n=17 v=100
1380176 On ch=4 n=50 v=100
1380219 Off ch=4 n=17 v=0
1380254 On ch=4 n=43 v=100
1380625 Off ch=4 n=50 v=0
1381178 Off ch=4 n=43 v=0
1381241 On ch=4 n=43 v=100
1381831 Off ch=4 n=43 v=0
1381836 On ch=4 n=0 v=100
1382084 Off ch=4 n=0 v=0
1382111 On ch=4 n=0 v=100
1382163 Off ch=4 n=0 v=0
1392119 On ch=4 n=27 v=100
1392130 On ch=4 n=15 v=100
1392180 Off ch=4 n=27 v=0
1392181 Off ch=4 n=15 v=0
1421790 On ch=4 n=22 v=100
1422092 Off ch=4 n=22 v=0
1439046 On ch=4 n=7 v=100
1439305 On ch=4 n=21 v=100
1439416 Off ch=4 n=7 v=0
1439430 Off ch=4 n=21 v=0
1444254 On ch=4 n=28 v=100
1444261 On ch=4 n=7 v=100
1444384 Off ch=4 n=7 v=0
1444397 Off ch=4 n=28 v=0
1444480 On ch=4 n=5 v=100
1444597 Off ch=4 n=5 v=0
1445595 On ch=4 n=37 v=100
1445823 Off ch=4 n=37 v=0
1462700 On ch=4 n=45 v=100
1462750 Off ch=4 n=45 v=0
1474813 On ch=4 n=22 v=100
1474998 Off ch=4 n=22 v=0
1475405 On ch=4 n=13 v=100
1475700 Off ch=4 n=13 v=0
1485778 On ch=4 n=41 v=100
1485929 Off ch=4 n=41 v=0
1497014 On ch=4 n=10 v=100
1497084 Off ch=4 n=10 v=0
1501946 On ch=4 n=16 v=100
1502220 Off ch=4 n=16 v=0
1502221 On ch=4 n=19 v=100
1502446 Off ch=4 n=19 v=0
1503560 On ch=4 n=13 v=100
1503599 Off ch=4 n=13 v=0
1503777 On ch=4 n=21 v=100
1504062 Off ch=4 n=21 v=0
1504882 On ch=4 n=23 v=100
1505001 Off ch=4 n=23 v=0
1506811 On ch=4 n=37 v=100
1506899 On ch=4 n=31 v=100
1507089 Off ch=4 n=37 v=0
1507098 Off ch=4 n=31 v=0
1520336 On ch=4 n=11 v=100
1520489 Off ch=4 n=11 v=0
1520592 On ch=4 n=5 v=100
1520682 On ch=4 n=36 v=100
1520840 Off ch=4 n=5 v=0
1520885 Off ch=4 n=36 v=0
1526248 On ch=4 n=20 v=100
1526548 Off ch=4 n=20 v=0
1526599 On ch=4 n=8 v=100
1526820 Off ch=4 n=8 v=0
1527044 On ch=4 n=16 v=100
1527240 Off ch=4 n=16 v=0
1527433 On ch=4 n=3 v=100
1528518 Off ch=4 n=3 v=0
1528619 On ch=4 n=3 v=100
1530245 On ch=4 n=2 v=100
1530245 Off ch=4 n=3 v=0
1533423 Off ch=4 n=2 v=0
1533424 On ch=4 n=7 v=100
1533684 Off ch=4 n=7 v=0
1546909 On ch=4 n=11 v=100
1546976 On ch=4 n=9 v=100
1546980 Off ch=4 n=11 v=0
1547019 Off ch=4 n=9 v=0
1552492 On ch=4 n=4 v=100
1552537 Off ch=4 n=4 v=0
1556955 On ch=4 n=8 v=100
1557027 Off ch=4 n=8 v=0
1557195 On ch=4 n=23 v=100
1557245 Off ch=4 n=23 v=0
1557250 On ch=4 n=2 v=100
1563280 On ch=4 n=20 v=100
1563281 Off ch=4 n=2 v=0
1563602 Off ch=4 n=20 v=0
1580146 On ch=4 n=21 v=100
1580297 On ch=4 n=14 v=100
1580686 Off ch=4 n=21 v=0
1580687 Off ch=4 n=14 v=0
1583362 On ch=4 n=12 v=100
1583435 Off ch=4 n=12 v=0
1585805 On ch=4 n=27 v=100
1585997 Off ch=4 n=27 v=0
1599166 On ch=4 n=33 v=100
1599345 Off ch=4 n=33 v=0
1600498 On ch=4 n=48 v=100
1600528 On ch=4 n=45 v=100
1600546 On ch=4 n=54 v=100
1600652 Off ch=4 n=45 v=0
1600657 Off ch=4 n=48 v=0
1600672 Off ch=4 n=54 v=0
1607851 On ch=4 n=26 v=100
1607956 Off ch=4 n=26 v=0
1630105 On ch=4 n=25 v=100
1630109 On ch=4 n=23 v=100
1630122 On ch=4 n=17 v=100
1630204 Off ch=4 n=23 v=0
1630215 Off ch=4 n=25 v=0
1630350 Off ch=4 n=17 v=0
1635980 On ch=4 n=10 v=100
1636589 Off ch=4 n=10 v=0
1665719 On ch=4 n=45 v=100
1665827 Off ch=4 n=45 v=0
1730925 On ch=4 n=41 v=100
1731180 Off ch=4 n=41 v=0
1743788 On ch=4 n=15 v=100
1744279 On ch=4 n=29 v=100
1744412 Off ch=4 n=15 v=0
1744447 Off ch=4 n=29 v=0
1773552 On ch=4 n=20 v=100
1773820 Off ch=4 n=20 v=0
1774738 On ch=4 n=30 v=100
1774825 Off ch=4 n=30 v=0
1793187 On ch=4 n=20 v=100
1793461 Off ch=4 n=20 v=0
1797845 On ch=4 n=19 v=100
1797896 Off ch=4 n=19 v=0
TrkEnd    
