MFile 1 7 960 
MTrk    
0 Tempo 100000  
TrkEnd    
MTrk    
0 PrCh ch=6 p=53 
0 Meta TrkName "ATAC" 
52203 On ch=6 n=57 v=127
53935 Off ch=6 n=57 v=0
54273 On ch=6 n=57 v=127
55835 Off ch=6 n=57 v=0
56238 On ch=6 n=57 v=127
57907 Off ch=6 n=57 v=0
58312 On ch=6 n=57 v=127
59703 Off ch=6 n=57 v=0
60103 On ch=6 n=57 v=127
61096 Off ch=6 n=57 v=0
145247 On ch=6 n=57 v=127
145550 Off ch=6 n=57 v=0
146094 On ch=6 n=57 v=127
146382 Off ch=6 n=57 v=0
171823 On ch=6 n=57 v=127
172507 Off ch=6 n=57 v=0
188323 On ch=6 n=57 v=127
189826 Off ch=6 n=57 v=0
190663 On ch=6 n=57 v=127
191368 Off ch=6 n=57 v=0
191817 On ch=6 n=57 v=127
193041 Off ch=6 n=57 v=0
194925 On ch=6 n=57 v=127
196012 Off ch=6 n=57 v=0
272231 On ch=6 n=57 v=127
272545 Off ch=6 n=57 v=0
521770 On ch=6 n=57 v=127
522159 Off ch=6 n=57 v=0
522643 On ch=6 n=57 v=127
522921 Off ch=6 n=57 v=0
779077 On ch=6 n=57 v=127
779255 Off ch=6 n=57 v=0
822897 On ch=6 n=57 v=127
823352 Off ch=6 n=57 v=0
823853 On ch=6 n=57 v=127
824156 Off ch=6 n=57 v=0
848233 On ch=6 n=57 v=127
848773 Off ch=6 n=57 v=0
861309 On ch=6 n=57 v=127
861810 Off ch=6 n=57 v=0
878748 On ch=6 n=57 v=127
879330 Off ch=6 n=57 v=0
880180 On ch=6 n=57 v=127
880721 Off ch=6 n=57 v=0
881135 On ch=6 n=57 v=127
883148 Off ch=6 n=57 v=0
884601 On ch=6 n=57 v=127
886124 Off ch=6 n=57 v=0
887472 On ch=6 n=57 v=127
887885 Off ch=6 n=57 v=0
888021 On ch=6 n=57 v=127
888838 Off ch=6 n=57 v=0
889031 On ch=6 n=57 v=127
892039 Off ch=6 n=57 v=0
892174 On ch=6 n=57 v=127
892665 Off ch=6 n=57 v=0
893868 On ch=6 n=57 v=127
894233 Off ch=6 n=57 v=0
1305966 On ch=6 n=57 v=127
1306270 Off ch=6 n=57 v=0
1306578 On ch=6 n=57 v=127
1306857 Off ch=6 n=57 v=0
1598961 On ch=6 n=57 v=127
1599322 Off ch=6 n=57 v=0
1670970 On ch=6 n=57 v=127
1671309 Off ch=6 n=57 v=0
1671466 On ch=6 n=57 v=127
1671799 Off ch=6 n=57 v=0
2055313 On ch=6 n=57 v=127
2055484 Off ch=6 n=57 v=0
2055683 On ch=6 n=57 v=127
2055855 Off ch=6 n=57 v=0
2216851 On ch=6 n=57 v=127
2217176 Off ch=6 n=57 v=0
2217816 On ch=6 n=57 v=127
2218147 Off ch=6 n=57 v=0
2258087 On ch=6 n=57 v=127
2258705 Off ch=6 n=57 v=0
2434023 On ch=6 n=57 v=127
2434220 Off ch=6 n=57 v=0
2434392 On ch=6 n=57 v=127
2434582 Off ch=6 n=57 v=0
2597370 On ch=6 n=57 v=127
2597515 Off ch=6 n=57 v=0
2597739 On ch=6 n=57 v=127
2597886 Off ch=6 n=57 v=0
2598161 On ch=6 n=57 v=127
2598586 Off ch=6 n=57 v=0
2598971 On ch=6 n=57 v=127
2599455 Off ch=6 n=57 v=0
2606742 On ch=6 n=57 v=127
2607038 Off ch=6 n=57 v=0
2607658 On ch=6 n=57 v=127
2607950 Off ch=6 n=57 v=0
2708208 On ch=6 n=57 v=127
2709279 Off ch=6 n=57 v=0
2858241 On ch=6 n=57 v=127
2859234 Off ch=6 n=57 v=0
3223270 On ch=6 n=57 v=127
3223503 Off ch=6 n=57 v=0
3223866 On ch=6 n=57 v=127
3224136 Off ch=6 n=57 v=0
3518492 On ch=6 n=57 v=127
3518958 Off ch=6 n=57 v=0
3521481 On ch=6 n=57 v=127
3523284 Off ch=6 n=57 v=0
4195452 On ch=6 n=57 v=127
4196062 Off ch=6 n=57 v=0
4631209 On ch=6 n=57 v=127
4631459 Off ch=6 n=57 v=0
4654106 On ch=6 n=57 v=127
4654351 Off ch=6 n=57 v=0
4767381 On ch=6 n=57 v=127
4767532 Off ch=6 n=57 v=0
5074877 On ch=6 n=57 v=127
5075366 Off ch=6 n=57 v=0
5102664 On ch=6 n=57 v=127
5103238 Off ch=6 n=57 v=0
5105463 On ch=6 n=57 v=127
5105665 Off ch=6 n=57 v=0
5105849 On ch=6 n=57 v=127
5106054 Off ch=6 n=57 v=0
5117860 On ch=6 n=57 v=127
5118550 Off ch=6 n=57 v=0
5151340 On ch=6 n=57 v=127
5151768 Off ch=6 n=57 v=0
5234478 On ch=6 n=57 v=127
5234643 Off ch=6 n=57 v=0
5234850 On ch=6 n=57 v=127
5235017 Off ch=6 n=57 v=0
5378360 On ch=6 n=57 v=127
5378672 Off ch=6 n=57 v=0
5627458 On ch=6 n=57 v=127
5627879 Off ch=6 n=57 v=0
5968363 On ch=6 n=57 v=127
5968944 Off ch=6 n=57 v=0
6063515 On ch=6 n=57 v=127
6063755 Off ch=6 n=57 v=0
6234754 On ch=6 n=57 v=127
6235254 Off ch=6 n=57 v=0
6249065 On ch=6 n=57 v=127
6249382 Off ch=6 n=57 v=0
6250661 On ch=6 n=57 v=127
6251264 Off ch=6 n=57 v=0
6253895 On ch=6 n=57 v=127
6254202 Off ch=6 n=57 v=0
6267073 On ch=6 n=57 v=127
6267749 Off ch=6 n=57 v=0
6501852 On ch=6 n=57 v=127
6502237 Off ch=6 n=57 v=0
6539340 On ch=6 n=57 v=127
6539541 Off ch=6 n=57 v=0
6724080 On ch=6 n=57 v=127
6724279 Off ch=6 n=57 v=0
6920730 On ch=6 n=57 v=127
6921164 Off ch=6 n=57 v=0
6925671 On ch=6 n=57 v=127
6926282 Off ch=6 n=57 v=0
6926473 On ch=6 n=57 v=127
6927264 Off ch=6 n=57 v=0
6928046 On ch=6 n=57 v=127
6928319 Off ch=6 n=57 v=0
7015972 On ch=6 n=57 v=127
7016180 Off ch=6 n=57 v=0
7114774 On ch=6 n=57 v=127
7115693 Off ch=6 n=57 v=0
8262486 On ch=6 n=57 v=127
8263148 Off ch=6 n=57 v=0
8552609 On ch=6 n=57 v=127
8553387 Off ch=6 n=57 v=0
8713942 On ch=6 n=57 v=127
8715770 Off ch=6 n=57 v=0
8772361 On ch=6 n=57 v=127
8772698 Off ch=6 n=57 v=0
9093342 On ch=6 n=57 v=127
9093497 Off ch=6 n=57 v=0
9094321 On ch=6 n=57 v=127
9094473 Off ch=6 n=57 v=0
9476639 On ch=6 n=57 v=127
9477014 Off ch=6 n=57 v=0
9477444 On ch=6 n=57 v=127
9477817 Off ch=6 n=57 v=0
9494319 On ch=6 n=57 v=127
9494866 Off ch=6 n=57 v=0
9639534 On ch=6 n=57 v=127
9640622 Off ch=6 n=57 v=0
9889769 On ch=6 n=57 v=127
9890043 Off ch=6 n=57 v=0
10116182 On ch=6 n=57 v=127
10117733 Off ch=6 n=57 v=0
10325958 On ch=6 n=57 v=127
10326122 Off ch=6 n=57 v=0
10326538 On ch=6 n=57 v=127
10326695 Off ch=6 n=57 v=0
10483671 On ch=6 n=57 v=127
10484008 Off ch=6 n=57 v=0
TrkEnd    
MTrk    
0 PrCh ch=5 p=53 
0 Meta TrkName "GENE" 
130313 On ch=5 n=50 v=127
153709 Off ch=5 n=50 v=0
177792 On ch=5 n=50 v=127
207168 Off ch=5 n=50 v=0
224316 On ch=5 n=50 v=127
275705 Off ch=5 n=50 v=0
278597 On ch=5 n=50 v=127
315504 Off ch=5 n=50 v=0
448937 On ch=5 n=50 v=127
481133 Off ch=5 n=50 v=0
485484 On ch=5 n=50 v=127
535794 Off ch=5 n=50 v=0
536753 On ch=5 n=50 v=127
593961 Off ch=5 n=50 v=0
654393 On ch=5 n=50 v=127
657978 Off ch=5 n=50 v=0
665934 On ch=5 n=50 v=127
667711 Off ch=5 n=50 v=0
673722 On ch=5 n=50 v=127
675289 Off ch=5 n=50 v=0
684041 On ch=5 n=50 v=127
684116 Off ch=5 n=50 v=0
686523 On ch=5 n=50 v=127
688561 Off ch=5 n=50 v=0
696118 On ch=5 n=50 v=127
697308 Off ch=5 n=50 v=0
703998 On ch=5 n=50 v=127
705795 Off ch=5 n=50 v=0
713859 On ch=5 n=50 v=127
715962 Off ch=5 n=50 v=0
722539 On ch=5 n=50 v=127
723841 Off ch=5 n=50 v=0
902040 On ch=5 n=50 v=127
905182 Off ch=5 n=50 v=0
914652 On ch=5 n=50 v=127
957811 Off ch=5 n=50 v=0
986943 On ch=5 n=50 v=127
1031536 Off ch=5 n=50 v=0
1036796 On ch=5 n=50 v=127
1039060 Off ch=5 n=50 v=0
1068900 On ch=5 n=50 v=127
1071867 Off ch=5 n=50 v=0
1083706 On ch=5 n=50 v=127
1088105 Off ch=5 n=50 v=0
1088940 On ch=5 n=50 v=127
1102052 Off ch=5 n=50 v=0
1103003 On ch=5 n=50 v=127
1115854 Off ch=5 n=50 v=0
1126374 On ch=5 n=50 v=127
1168613 Off ch=5 n=50 v=0
1199994 On ch=5 n=50 v=127
1218931 Off ch=5 n=50 v=0
1314154 On ch=5 n=50 v=127
1328685 Off ch=5 n=50 v=0
1329334 On ch=5 n=50 v=127
1371806 Off ch=5 n=50 v=0
1378957 On ch=5 n=50 v=127
1407311 Off ch=5 n=50 v=0
1633548 On ch=5 n=50 v=127
1647242 Off ch=5 n=50 v=0
1649504 On ch=5 n=50 v=127
1677427 Off ch=5 n=50 v=0
1686716 On ch=5 n=50 v=127
1702240 Off ch=5 n=50 v=0
1703068 On ch=5 n=50 v=127
1708820 Off ch=5 n=50 v=0
1710772 On ch=5 n=50 v=127
1717130 Off ch=5 n=50 v=0
1718368 On ch=5 n=50 v=127
1721960 Off ch=5 n=50 v=0
1726536 On ch=5 n=50 v=127
1748151 Off ch=5 n=50 v=0
2333759 On ch=5 n=50 v=127
2338610 Off ch=5 n=50 v=0
2623419 On ch=5 n=50 v=127
2641643 Off ch=5 n=50 v=0
2987857 On ch=5 n=50 v=127
2997085 Off ch=5 n=50 v=0
3010975 On ch=5 n=50 v=127
3102298 Off ch=5 n=50 v=0
3141828 On ch=5 n=50 v=127
3228664 Off ch=5 n=50 v=0
3258371 On ch=5 n=50 v=127
3271632 Off ch=5 n=50 v=0
3273161 On ch=5 n=50 v=127
3288333 On ch=5 n=50 v=127
3288342 Off ch=5 n=50 v=0
3312177 Off ch=5 n=50 v=0
3333358 On ch=5 n=50 v=127
3403938 Off ch=5 n=50 v=0
3549319 On ch=5 n=50 v=127
3589178 Off ch=5 n=50 v=0
3653215 On ch=5 n=50 v=127
3656175 Off ch=5 n=50 v=0
3684166 On ch=5 n=50 v=127
3768495 Off ch=5 n=50 v=0
3775726 On ch=5 n=50 v=127
3844507 Off ch=5 n=50 v=0
3859671 On ch=5 n=50 v=127
3859798 On ch=5 n=50 v=127
3922661 Off ch=5 n=50 v=0
3922702 Off ch=5 n=50 v=0
3924319 On ch=5 n=50 v=127
3927758 Off ch=5 n=50 v=0
4061234 On ch=5 n=50 v=127
4174872 Off ch=5 n=50 v=0
4221663 On ch=5 n=50 v=127
4225099 Off ch=5 n=50 v=0
4822816 On ch=5 n=50 v=127
4843269 Off ch=5 n=50 v=0
4844246 On ch=5 n=50 v=127
4847645 Off ch=5 n=50 v=0
4850032 On ch=5 n=50 v=127
4850032 On ch=5 n=50 v=127
4896364 Off ch=5 n=50 v=0
4896364 Off ch=5 n=50 v=0
4907566 On ch=5 n=50 v=127
4957567 Off ch=5 n=50 v=0
4965044 On ch=5 n=50 v=127
4990240 Off ch=5 n=50 v=0
4993409 On ch=5 n=50 v=127
5000228 Off ch=5 n=50 v=0
5048559 On ch=5 n=50 v=127
5050572 Off ch=5 n=50 v=0
5054618 On ch=5 n=50 v=127
5061383 Off ch=5 n=50 v=0
5086996 On ch=5 n=50 v=127
5088799 Off ch=5 n=50 v=0
5188707 On ch=5 n=50 v=127
5192480 Off ch=5 n=50 v=0
5319710 On ch=5 n=50 v=127
5324988 Off ch=5 n=50 v=0
5344843 On ch=5 n=50 v=127
5368544 Off ch=5 n=50 v=0
5373742 On ch=5 n=50 v=127
5409908 Off ch=5 n=50 v=0
5413605 On ch=5 n=50 v=127
5417476 Off ch=5 n=50 v=0
5471163 On ch=5 n=50 v=127
5471706 On ch=5 n=50 v=127
5481069 Off ch=5 n=50 v=0
5481099 Off ch=5 n=50 v=0
5521474 On ch=5 n=50 v=127
5522427 Off ch=5 n=50 v=0
5565617 On ch=5 n=50 v=127
5670467 Off ch=5 n=50 v=0
5807976 On ch=5 n=50 v=127
5814376 Off ch=5 n=50 v=0
5816916 On ch=5 n=50 v=127
5840668 Off ch=5 n=50 v=0
5997198 On ch=5 n=50 v=127
6006881 Off ch=5 n=50 v=0
6014392 On ch=5 n=50 v=127
6038810 Off ch=5 n=50 v=0
6088690 On ch=5 n=50 v=127
6196263 Off ch=5 n=50 v=0
6277440 On ch=5 n=50 v=127
6352406 Off ch=5 n=50 v=0
6360300 On ch=5 n=50 v=127
6389441 Off ch=5 n=50 v=0
6390213 On ch=5 n=50 v=127
6392239 Off ch=5 n=50 v=0
6401370 On ch=5 n=50 v=127
6437845 Off ch=5 n=50 v=0
6438073 On ch=5 n=50 v=127
6444460 Off ch=5 n=50 v=0
6451504 On ch=5 n=50 v=127
6473894 Off ch=5 n=50 v=0
6574772 On ch=5 n=50 v=127
6578396 Off ch=5 n=50 v=0
6579511 On ch=5 n=50 v=127
6603142 Off ch=5 n=50 v=0
6604679 On ch=5 n=50 v=127
6618914 Off ch=5 n=50 v=0
6624479 On ch=5 n=50 v=127
6697993 Off ch=5 n=50 v=0
6896150 On ch=5 n=50 v=127
7081681 Off ch=5 n=50 v=0
7086664 On ch=5 n=50 v=127
7160370 Off ch=5 n=50 v=0
7265887 On ch=5 n=50 v=127
7303804 Off ch=5 n=50 v=0
7349884 On ch=5 n=50 v=127
7552463 Off ch=5 n=50 v=0
7565247 On ch=5 n=50 v=127
7599019 Off ch=5 n=50 v=0
7643243 On ch=5 n=50 v=127
7655397 Off ch=5 n=50 v=0
7655448 On ch=5 n=50 v=127
7661489 Off ch=5 n=50 v=0
7665660 On ch=5 n=50 v=127
7665660 On ch=5 n=50 v=127
7695017 Off ch=5 n=50 v=0
7695017 Off ch=5 n=50 v=0
7735358 On ch=5 n=50 v=127
7748797 Off ch=5 n=50 v=0
7798050 On ch=5 n=50 v=127
7848208 Off ch=5 n=50 v=0
7848462 On ch=5 n=50 v=127
7856814 Off ch=5 n=50 v=0
7862693 On ch=5 n=50 v=127
7869086 Off ch=5 n=50 v=0
7882519 On ch=5 n=50 v=127
7889468 Off ch=5 n=50 v=0
7891151 On ch=5 n=50 v=127
7931924 Off ch=5 n=50 v=0
7944582 On ch=5 n=50 v=127
7949163 Off ch=5 n=50 v=0
8241617 On ch=5 n=50 v=127
8259480 Off ch=5 n=50 v=0
8259677 On ch=5 n=50 v=127
8264994 Off ch=5 n=50 v=0
8264998 On ch=5 n=50 v=127
8282832 Off ch=5 n=50 v=0
8293395 On ch=5 n=50 v=127
8320681 Off ch=5 n=50 v=0
8324318 On ch=5 n=50 v=127
8373737 Off ch=5 n=50 v=0
8373775 On ch=5 n=50 v=127
8378786 Off ch=5 n=50 v=0
8404740 On ch=5 n=50 v=127
8404740 On ch=5 n=50 v=127
8404740 On ch=5 n=50 v=127
8431509 Off ch=5 n=50 v=0
8431509 Off ch=5 n=50 v=0
8440801 Off ch=5 n=50 v=0
8511970 On ch=5 n=50 v=127
8513983 Off ch=5 n=50 v=0
8535076 On ch=5 n=50 v=127
8701799 Off ch=5 n=50 v=0
8762059 On ch=5 n=50 v=127
8783183 Off ch=5 n=50 v=0
8784016 On ch=5 n=50 v=127
8827657 Off ch=5 n=50 v=0
8895512 On ch=5 n=50 v=127
8899302 Off ch=5 n=50 v=0
9052804 On ch=5 n=50 v=127
9055805 Off ch=5 n=50 v=0
9180981 On ch=5 n=50 v=127
9186937 Off ch=5 n=50 v=0
9206357 On ch=5 n=50 v=127
9209024 Off ch=5 n=50 v=0
9209269 On ch=5 n=50 v=127
9213798 Off ch=5 n=50 v=0
9216590 On ch=5 n=50 v=127
9259291 Off ch=5 n=50 v=0
9281903 On ch=5 n=50 v=127
9285183 Off ch=5 n=50 v=0
9649948 On ch=5 n=50 v=127
9650070 Off ch=5 n=50 v=0
9711299 On ch=5 n=50 v=127
9714559 Off ch=5 n=50 v=0
10196535 On ch=5 n=50 v=127
10216607 Off ch=5 n=50 v=0
10219447 On ch=5 n=50 v=127
10225938 Off ch=5 n=50 v=0
10225997 On ch=5 n=50 v=127
10255999 Off ch=5 n=50 v=0
10259976 On ch=5 n=50 v=127
10285930 Off ch=5 n=50 v=0
10312788 On ch=5 n=50 v=127
10359258 Off ch=5 n=50 v=0
TrkEnd    
MTrk    
0 PrCh ch=1 p=43 
0 Meta TrkName "LINE" 
543 On ch=1 n=14 v=100
692 Off ch=1 n=14 v=0
5404 On ch=1 n=17 v=100
5584 Off ch=1 n=17 v=0
32790 On ch=1 n=17 v=100
32854 Off ch=1 n=17 v=0
32860 On ch=1 n=24 v=100
33006 Off ch=1 n=24 v=0
33379 On ch=1 n=25 v=100
33761 Off ch=1 n=25 v=0
33786 On ch=1 n=26 v=100
34113 Off ch=1 n=26 v=0
34116 On ch=1 n=26 v=100
34318 Off ch=1 n=26 v=0
65687 On ch=1 n=3 v=100
66524 Off ch=1 n=3 v=0
94869 On ch=1 n=30 v=100
95227 Off ch=1 n=30 v=0
96990 On ch=1 n=27 v=100
97003 On ch=1 n=37 v=100
97192 Off ch=1 n=27 v=0
97233 Off ch=1 n=37 v=0
101629 On ch=1 n=61 v=100
101629 On ch=1 n=17 v=100
101864 Off ch=1 n=17 v=0
101898 Off ch=1 n=61 v=0
119529 On ch=1 n=11 v=100
119843 Off ch=1 n=11 v=0
120029 On ch=1 n=16 v=100
120231 Off ch=1 n=16 v=0
143018 On ch=1 n=10 v=100
143069 Off ch=1 n=10 v=0
147191 On ch=1 n=13 v=100
147386 Off ch=1 n=13 v=0
160388 On ch=1 n=36 v=100
160484 Off ch=1 n=36 v=0
168846 On ch=1 n=10 v=100
168982 On ch=1 n=13 v=100
169416 Off ch=1 n=10 v=0
169601 Off ch=1 n=13 v=0
169604 On ch=1 n=17 v=100
169666 Off ch=1 n=17 v=0
170666 On ch=1 n=18 v=100
170733 Off ch=1 n=18 v=0
171233 On ch=1 n=13 v=100
171823 Off ch=1 n=13 v=0
174567 On ch=1 n=42 v=100
174655 Off ch=1 n=42 v=0
177052 On ch=1 n=12 v=100
177778 Off ch=1 n=12 v=0
219106 On ch=1 n=2 v=100
221800 Off ch=1 n=2 v=0
243731 On ch=1 n=9 v=100
244455 Off ch=1 n=9 v=0
256762 On ch=1 n=28 v=100
256855 Off ch=1 n=28 v=0
269211 On ch=1 n=8 v=100
269469 Off ch=1 n=8 v=0
279511 On ch=1 n=49 v=100
279661 Off ch=1 n=49 v=0
279896 On ch=1 n=39 v=100
280171 Off ch=1 n=39 v=0
282666 On ch=1 n=8 v=100
283186 On ch=1 n=5 v=100
283186 Off ch=1 n=8 v=0
283256 Off ch=1 n=5 v=0
285533 On ch=1 n=7 v=100
285615 Off ch=1 n=7 v=0
302963 On ch=1 n=2 v=100
303012 Off ch=1 n=2 v=0
309669 On ch=1 n=40 v=100
309796 Off ch=1 n=40 v=0
327086 On ch=1 n=15 v=100
327475 Off ch=1 n=15 v=0
350220 On ch=1 n=4 v=100
350289 Off ch=1 n=4 v=0
356584 On ch=1 n=8 v=100
357129 On ch=1 n=22 v=100
357132 Off ch=1 n=8 v=0
357205 Off ch=1 n=22 v=0
357233 On ch=1 n=22 v=100
357581 Off ch=1 n=22 v=0
360204 On ch=1 n=19 v=100
360356 Off ch=1 n=19 v=0
361139 On ch=1 n=10 v=100
361288 Off ch=1 n=10 v=0
361493 On ch=1 n=9 v=100
361902 Off ch=1 n=9 v=0
419280 On ch=1 n=60 v=100
419323 On ch=1 n=53 v=100
419589 Off ch=1 n=53 v=0
419695 Off ch=1 n=60 v=0
421722 On ch=1 n=9 v=100
422128 Off ch=1 n=9 v=0
437211 On ch=1 n=10 v=100
437436 Off ch=1 n=10 v=0
443435 On ch=1 n=21 v=100
443520 Off ch=1 n=21 v=0
499575 On ch=1 n=41 v=100
499743 Off ch=1 n=41 v=0
505183 On ch=1 n=1 v=100
505325 Off ch=1 n=1 v=0
505331 On ch=1 n=4 v=100
506802 On ch=1 n=58 v=100
507687 On ch=1 n=61 v=100
508492 Off ch=1 n=4 v=0
508501 On ch=1 n=4 v=100
509345 Off ch=1 n=58 v=0
509348 Off ch=1 n=61 v=0
509373 Off ch=1 n=4 v=0
509375 On ch=1 n=7 v=100
509738 Off ch=1 n=7 v=0
523350 On ch=1 n=3 v=100
525111 Off ch=1 n=3 v=0
546484 On ch=1 n=19 v=100
546755 Off ch=1 n=19 v=0
552889 On ch=1 n=9 v=100
553307 Off ch=1 n=9 v=0
557161 On ch=1 n=28 v=100
557231 Off ch=1 n=28 v=0
568513 On ch=1 n=40 v=100
568817 Off ch=1 n=40 v=0
568933 On ch=1 n=40 v=100
568976 Off ch=1 n=40 v=0
583149 On ch=1 n=30 v=100
583300 Off ch=1 n=30 v=0
585439 On ch=1 n=40 v=100
585710 Off ch=1 n=40 v=0
617390 On ch=1 n=5 v=100
617673 Off ch=1 n=5 v=0
617675 On ch=1 n=6 v=100
618048 Off ch=1 n=6 v=0
618061 On ch=1 n=6 v=100
618867 Off ch=1 n=6 v=0
618868 On ch=1 n=7 v=100
619383 Off ch=1 n=7 v=0
620799 On ch=1 n=10 v=100
621899 Off ch=1 n=10 v=0
623073 On ch=1 n=1 v=100
626974 Off ch=1 n=1 v=0
626986 On ch=1 n=1 v=100
627677 Off ch=1 n=1 v=0
632523 On ch=1 n=4 v=100
635012 Off ch=1 n=4 v=0
640086 On ch=1 n=10 v=100
640443 Off ch=1 n=10 v=0
642057 On ch=1 n=10 v=100
642489 Off ch=1 n=10 v=0
642495 On ch=1 n=7 v=100
642701 Off ch=1 n=7 v=0
642703 On ch=1 n=21 v=100
642756 Off ch=1 n=21 v=0
646962 On ch=1 n=8 v=100
647743 Off ch=1 n=8 v=0
678670 On ch=1 n=8 v=100
678731 Off ch=1 n=8 v=0
678809 On ch=1 n=8 v=100
678821 Off ch=1 n=8 v=0
726077 On ch=1 n=31 v=100
726162 Off ch=1 n=31 v=0
751794 On ch=1 n=23 v=100
751872 Off ch=1 n=23 v=0
752197 On ch=1 n=22 v=100
752335 Off ch=1 n=22 v=0
752351 On ch=1 n=14 v=100
752478 Off ch=1 n=14 v=0
753408 On ch=1 n=24 v=100
753454 Off ch=1 n=24 v=0
753455 On ch=1 n=16 v=100
753562 Off ch=1 n=16 v=0
753938 On ch=1 n=51 v=100
753940 On ch=1 n=9 v=100
754065 Off ch=1 n=9 v=0
754182 Off ch=1 n=51 v=0
768346 On ch=1 n=6 v=100
773436 Off ch=1 n=6 v=0
799690 On ch=1 n=6 v=100
804752 Off ch=1 n=6 v=0
808814 On ch=1 n=26 v=100
809010 Off ch=1 n=26 v=0
894322 On ch=1 n=16 v=100
894457 Off ch=1 n=16 v=0
894462 On ch=1 n=16 v=100
894710 Off ch=1 n=16 v=0
895137 On ch=1 n=20 v=100
895357 Off ch=1 n=20 v=0
896430 On ch=1 n=24 v=100
896537 Off ch=1 n=24 v=0
898236 On ch=1 n=43 v=100
898324 Off ch=1 n=43 v=0
898755 On ch=1 n=10 v=100
899154 On ch=1 n=13 v=100
899154 Off ch=1 n=10 v=0
899487 Off ch=1 n=13 v=0
919903 On ch=1 n=11 v=100
920206 Off ch=1 n=11 v=0
921654 On ch=1 n=11 v=100
922170 Off ch=1 n=11 v=0
945335 On ch=1 n=8 v=100
945395 Off ch=1 n=8 v=0
946413 On ch=1 n=17 v=100
946646 Off ch=1 n=17 v=0
959980 On ch=1 n=18 v=100
960131 Off ch=1 n=18 v=0
960139 On ch=1 n=10 v=100
961574 Off ch=1 n=10 v=0
964612 On ch=1 n=20 v=100
964846 Off ch=1 n=20 v=0
965556 On ch=1 n=27 v=100
966127 Off ch=1 n=27 v=0
973373 On ch=1 n=4 v=100
973507 Off ch=1 n=4 v=0
977083 On ch=1 n=16 v=100
977335 Off ch=1 n=16 v=0
989272 On ch=1 n=29 v=100
989465 Off ch=1 n=29 v=0
989818 On ch=1 n=8 v=100
990217 Off ch=1 n=8 v=0
1003777 On ch=1 n=24 v=100
1003920 Off ch=1 n=24 v=0
1008297 On ch=1 n=33 v=100
1008367 Off ch=1 n=33 v=0
1020442 On ch=1 n=9 v=100
1021079 Off ch=1 n=9 v=0
1021336 On ch=1 n=7 v=100
1021512 Off ch=1 n=7 v=0
1022316 On ch=1 n=22 v=100
1022492 Off ch=1 n=22 v=0
1027702 On ch=1 n=12 v=100
1028304 Off ch=1 n=12 v=0
1028664 On ch=1 n=14 v=100
1029153 Off ch=1 n=14 v=0
1062516 On ch=1 n=53 v=100
1062516 On ch=1 n=53 v=100
1062853 On ch=1 n=9 v=100
1062853 On ch=1 n=9 v=100
1063142 Off ch=1 n=53 v=0
1063142 Off ch=1 n=53 v=0
1063194 Off ch=1 n=9 v=0
1063194 Off ch=1 n=9 v=0
1066630 On ch=1 n=18 v=100
1066759 Off ch=1 n=18 v=0
1075074 On ch=1 n=7 v=100
1075661 Off ch=1 n=7 v=0
1075662 On ch=1 n=8 v=100
1076049 Off ch=1 n=8 v=0
1076050 On ch=1 n=5 v=100
1077535 Off ch=1 n=5 v=0
1091874 On ch=1 n=23 v=100
1091933 Off ch=1 n=23 v=0
1091955 On ch=1 n=48 v=100
1092112 Off ch=1 n=48 v=0
1092484 On ch=1 n=41 v=100
1092594 Off ch=1 n=41 v=0
1095115 On ch=1 n=10 v=100
1095782 Off ch=1 n=10 v=0
1098408 On ch=1 n=43 v=100
1098491 Off ch=1 n=43 v=0
1119231 On ch=1 n=10 v=100
1119364 Off ch=1 n=10 v=0
1144690 On ch=1 n=9 v=100
1144964 Off ch=1 n=9 v=0
1146739 On ch=1 n=12 v=100
1146865 Off ch=1 n=12 v=0
1189250 On ch=1 n=9 v=100
1189342 Off ch=1 n=9 v=0
1198773 On ch=1 n=12 v=100
1199012 Off ch=1 n=12 v=0
1214279 On ch=1 n=24 v=100
1214511 Off ch=1 n=24 v=0
1229244 On ch=1 n=10 v=100
1229340 On ch=1 n=10 v=100
1229342 Off ch=1 n=10 v=0
1229455 Off ch=1 n=10 v=0
1240801 On ch=1 n=11 v=100
1241033 Off ch=1 n=11 v=0
1246648 On ch=1 n=51 v=100
1246654 On ch=1 n=45 v=100
1246765 Off ch=1 n=45 v=0
1246782 Off ch=1 n=51 v=0
1270057 On ch=1 n=6 v=100
1271124 Off ch=1 n=6 v=0
1295200 On ch=1 n=7 v=100
1295535 Off ch=1 n=7 v=0
1317136 On ch=1 n=20 v=100
1317441 Off ch=1 n=20 v=0
1334274 On ch=1 n=14 v=100
1335020 Off ch=1 n=14 v=0
1336432 On ch=1 n=7 v=100
1336591 Off ch=1 n=7 v=0
1341876 On ch=1 n=3 v=100
1342321 Off ch=1 n=3 v=0
1342327 On ch=1 n=0 v=100
1342505 Off ch=1 n=0 v=0
1349910 On ch=1 n=22 v=100
1350112 Off ch=1 n=22 v=0
1371885 On ch=1 n=47 v=100
1371935 On ch=1 n=11 v=100
1372117 Off ch=1 n=47 v=0
1372605 On ch=1 n=10 v=100
1372614 Off ch=1 n=11 v=0
1372704 Off ch=1 n=10 v=0
1372756 On ch=1 n=14 v=100
1373177 On ch=1 n=23 v=100
1373181 Off ch=1 n=14 v=0
1373504 Off ch=1 n=23 v=0
1373692 On ch=1 n=16 v=100
1374135 Off ch=1 n=16 v=0
1388404 On ch=1 n=17 v=100
1388577 Off ch=1 n=17 v=0
1388592 On ch=1 n=22 v=100
1388659 Off ch=1 n=22 v=0
1392900 On ch=1 n=9 v=100
1392997 Off ch=1 n=9 v=0
1393037 On ch=1 n=9 v=100
1393212 Off ch=1 n=9 v=0
1394286 On ch=1 n=32 v=100
1394498 Off ch=1 n=32 v=0
1398154 On ch=1 n=3 v=100
1403963 Off ch=1 n=3 v=0
1408004 On ch=1 n=8 v=100
1408566 On ch=1 n=17 v=100
1408570 Off ch=1 n=8 v=0
1408616 Off ch=1 n=17 v=0
1414821 On ch=1 n=37 v=100
1414829 On ch=1 n=48 v=100
1414899 On ch=1 n=21 v=100
1414934 Off ch=1 n=21 v=0
1414937 Off ch=1 n=37 v=0
1414954 Off ch=1 n=48 v=0
1436534 On ch=1 n=6 v=100
1436804 Off ch=1 n=6 v=0
1436819 On ch=1 n=9 v=100
1437230 Off ch=1 n=9 v=0
1438806 On ch=1 n=12 v=100
1438926 Off ch=1 n=12 v=0
1441489 On ch=1 n=13 v=100
1441808 Off ch=1 n=13 v=0
1441883 On ch=1 n=15 v=100
1442709 Off ch=1 n=15 v=0
1452921 On ch=1 n=39 v=100
1453052 Off ch=1 n=39 v=0
1453438 On ch=1 n=14 v=100
1453571 Off ch=1 n=14 v=0
1453583 On ch=1 n=10 v=100
1453919 On ch=1 n=52 v=100
1454036 Off ch=1 n=10 v=0
1454063 Off ch=1 n=52 v=0
1454510 On ch=1 n=11 v=100
1454604 Off ch=1 n=11 v=0
1462172 On ch=1 n=46 v=100
1462172 On ch=1 n=46 v=100
1462855 Off ch=1 n=46 v=0
1462855 Off ch=1 n=46 v=0
1471716 On ch=1 n=14 v=100
1472183 Off ch=1 n=14 v=0
1518225 On ch=1 n=5 v=100
1518409 Off ch=1 n=5 v=0
1526227 On ch=1 n=6 v=100
1529801 Off ch=1 n=6 v=0
1554499 On ch=1 n=9 v=100
1554808 Off ch=1 n=9 v=0
1564390 On ch=1 n=14 v=100
1564483 Off ch=1 n=14 v=0
1565193 On ch=1 n=2 v=100
1568428 Off ch=1 n=2 v=0
1594262 On ch=1 n=11 v=100
1594464 On ch=1 n=15 v=100
1594471 Off ch=1 n=11 v=0
1594678 Off ch=1 n=15 v=0
1596171 On ch=1 n=17 v=100
1596508 Off ch=1 n=17 v=0
1599590 On ch=1 n=9 v=100
1600693 Off ch=1 n=9 v=0
1601854 On ch=1 n=9 v=100
1602114 Off ch=1 n=9 v=0
1630360 On ch=1 n=37 v=100
1630379 On ch=1 n=30 v=100
1630782 Off ch=1 n=37 v=0
1630912 Off ch=1 n=30 v=0
1635791 On ch=1 n=12 v=100
1635882 Off ch=1 n=12 v=0
1668876 On ch=1 n=19 v=100
1669078 Off ch=1 n=19 v=0
1671723 On ch=1 n=32 v=100
1671884 Off ch=1 n=32 v=0
1671927 On ch=1 n=32 v=100
1671996 Off ch=1 n=32 v=0
1689523 On ch=1 n=12 v=100
1689664 Off ch=1 n=12 v=0
1693947 On ch=1 n=18 v=100
1693999 Off ch=1 n=18 v=0
1704554 On ch=1 n=14 v=100
1704662 Off ch=1 n=14 v=0
1705088 On ch=1 n=9 v=100
1705431 Off ch=1 n=9 v=0
1712253 On ch=1 n=16 v=100
1712502 Off ch=1 n=16 v=0
1720573 On ch=1 n=9 v=100
1720751 Off ch=1 n=9 v=0
1740962 On ch=1 n=4 v=100
1741491 Off ch=1 n=4 v=0
1749359 On ch=1 n=19 v=100
1749632 Off ch=1 n=19 v=0
1754264 On ch=1 n=56 v=100
1754473 Off ch=1 n=56 v=0
1767989 On ch=1 n=29 v=100
1768124 Off ch=1 n=29 v=0
1775875 On ch=1 n=22 v=100
1776039 Off ch=1 n=22 v=0
1776132 On ch=1 n=22 v=100
1776151 Off ch=1 n=22 v=0
1777354 On ch=1 n=14 v=100
1777596 Off ch=1 n=14 v=0
1787175 On ch=1 n=6 v=100
1787257 Off ch=1 n=6 v=0
1787836 On ch=1 n=6 v=100
1788056 Off ch=1 n=6 v=0
1790352 On ch=1 n=13 v=100
1790448 Off ch=1 n=13 v=0
1806759 On ch=1 n=49 v=100
1806761 On ch=1 n=43 v=100
1806874 Off ch=1 n=43 v=0
1806899 Off ch=1 n=49 v=0
1849224 On ch=1 n=8 v=100
1850228 Off ch=1 n=8 v=0
1852147 On ch=1 n=24 v=100
1852344 Off ch=1 n=24 v=0
1854045 On ch=1 n=72 v=100
1854103 On ch=1 n=50 v=100
1854593 Off ch=1 n=50 v=0
1854621 Off ch=1 n=72 v=0
1860168 On ch=1 n=4 v=100
1860508 Off ch=1 n=4 v=0
1889824 On ch=1 n=15 v=100
1889882 Off ch=1 n=15 v=0
1895400 On ch=1 n=15 v=100
1895523 Off ch=1 n=15 v=0
1897038 On ch=1 n=17 v=100
1897088 Off ch=1 n=17 v=0
1912903 On ch=1 n=15 v=100
1912938 Off ch=1 n=15 v=0
1912941 On ch=1 n=7 v=100
1914105 Off ch=1 n=7 v=0
1921104 On ch=1 n=44 v=100
1921200 Off ch=1 n=44 v=0
1922964 On ch=1 n=28 v=100
1923034 On ch=1 n=26 v=100
1923109 Off ch=1 n=26 v=0
1923132 Off ch=1 n=28 v=0
1939225 On ch=1 n=32 v=100
1939413 Off ch=1 n=32 v=0
1939524 On ch=1 n=32 v=100
1939630 Off ch=1 n=32 v=0
1940996 On ch=1 n=12 v=100
1941182 Off ch=1 n=12 v=0
1941186 On ch=1 n=10 v=100
1941708 Off ch=1 n=10 v=0
1945424 On ch=1 n=35 v=100
1946140 Off ch=1 n=35 v=0
1946146 On ch=1 n=31 v=100
1946170 On ch=1 n=37 v=100
1946216 Off ch=1 n=31 v=0
1946226 Off ch=1 n=37 v=0
1949134 On ch=1 n=40 v=100
1949280 Off ch=1 n=40 v=0
1995621 On ch=1 n=24 v=100
1995677 Off ch=1 n=24 v=0
1995759 On ch=1 n=24 v=100
1996004 Off ch=1 n=24 v=0
2014705 On ch=1 n=6 v=100
2014736 Off ch=1 n=6 v=0
2024418 On ch=1 n=40 v=100
2024497 Off ch=1 n=40 v=0
2050219 On ch=1 n=30 v=100
2050277 Off ch=1 n=30 v=0
2061459 On ch=1 n=35 v=100
2061542 Off ch=1 n=35 v=0
2081490 On ch=1 n=7 v=100
2082284 Off ch=1 n=7 v=0
2099654 On ch=1 n=56 v=100
2099894 Off ch=1 n=56 v=0
2107843 On ch=1 n=11 v=100
2108192 Off ch=1 n=11 v=0
2138077 On ch=1 n=8 v=100
2138954 Off ch=1 n=8 v=0
2196769 On ch=1 n=43 v=100
2197107 Off ch=1 n=43 v=0
2197172 On ch=1 n=43 v=100
2197359 On ch=1 n=65 v=100
2197632 Off ch=1 n=43 v=0
2197680 Off ch=1 n=65 v=0
2198370 On ch=1 n=33 v=100
2198394 On ch=1 n=18 v=100
2198478 Off ch=1 n=33 v=0
2198491 Off ch=1 n=18 v=0
2227350 On ch=1 n=4 v=100
2227590 Off ch=1 n=4 v=0
2229283 On ch=1 n=15 v=100
2229313 Off ch=1 n=15 v=0
2229344 On ch=1 n=15 v=100
2229436 On ch=1 n=6 v=100
2229437 Off ch=1 n=15 v=0
2229585 Off ch=1 n=6 v=0
2231125 On ch=1 n=15 v=100
2231166 Off ch=1 n=15 v=0
2242874 On ch=1 n=9 v=100
2243063 Off ch=1 n=9 v=0
2274106 On ch=1 n=50 v=100
2274350 Off ch=1 n=50 v=0
2281383 On ch=1 n=36 v=100
2281478 Off ch=1 n=36 v=0
2281653 On ch=1 n=36 v=100
2281683 Off ch=1 n=36 v=0
2308118 On ch=1 n=37 v=100
2308223 Off ch=1 n=37 v=0
2321523 On ch=1 n=18 v=100
2321870 Off ch=1 n=18 v=0
2332577 On ch=1 n=35 v=100
2332866 Off ch=1 n=35 v=0
2345980 On ch=1 n=63 v=100
2346101 On ch=1 n=48 v=100
2346144 On ch=1 n=44 v=100
2346282 Off ch=1 n=63 v=0
2346288 Off ch=1 n=44 v=0
2346289 Off ch=1 n=48 v=0
2349079 On ch=1 n=33 v=100
2349423 Off ch=1 n=33 v=0
2357782 On ch=1 n=9 v=100
2358118 Off ch=1 n=9 v=0
2362357 On ch=1 n=3 v=100
2362510 Off ch=1 n=3 v=0
2362588 On ch=1 n=3 v=100
2363265 Off ch=1 n=3 v=0
2390724 On ch=1 n=28 v=100
2390791 Off ch=1 n=28 v=0
2395696 On ch=1 n=46 v=100
2396427 Off ch=1 n=46 v=0
2462461 On ch=1 n=4 v=100
2463288 Off ch=1 n=4 v=0
2473157 On ch=1 n=22 v=100
2473239 Off ch=1 n=22 v=0
2474213 On ch=1 n=7 v=100
2474607 Off ch=1 n=7 v=0
2476822 On ch=1 n=19 v=100
2476936 Off ch=1 n=19 v=0
2477091 On ch=1 n=10 v=100
2477231 Off ch=1 n=10 v=0
2477295 On ch=1 n=10 v=100
2477467 Off ch=1 n=10 v=0
2478337 On ch=1 n=12 v=100
2478440 Off ch=1 n=12 v=0
2483629 On ch=1 n=9 v=100
2484449 Off ch=1 n=9 v=0
2488913 On ch=1 n=4 v=100
2489224 Off ch=1 n=4 v=0
2498189 On ch=1 n=26 v=100
2499108 Off ch=1 n=26 v=0
2499174 On ch=1 n=28 v=100
2499300 Off ch=1 n=28 v=0
2499365 On ch=1 n=27 v=100
2499542 On ch=1 n=25 v=100
2499544 Off ch=1 n=27 v=0
2499682 Off ch=1 n=25 v=0
2521347 On ch=1 n=21 v=100
2521682 Off ch=1 n=21 v=0
2521683 On ch=1 n=12 v=100
2521724 Off ch=1 n=12 v=0
2522478 On ch=1 n=16 v=100
2522524 Off ch=1 n=16 v=0
2534364 On ch=1 n=15 v=100
2535156 Off ch=1 n=15 v=0
2542893 On ch=1 n=19 v=100
2542910 Off ch=1 n=19 v=0
2543048 On ch=1 n=19 v=100
2543174 Off ch=1 n=19 v=0
2556839 On ch=1 n=5 v=100
2557912 Off ch=1 n=5 v=0
2566399 On ch=1 n=52 v=100
2566470 On ch=1 n=7 v=100
2566644 On ch=1 n=14 v=100
2566646 Off ch=1 n=52 v=0
2566649 Off ch=1 n=7 v=0
2566665 On ch=1 n=60 v=100
2566798 On ch=1 n=39 v=100
2566815 Off ch=1 n=14 v=0
2566871 Off ch=1 n=60 v=0
2566896 Off ch=1 n=39 v=0
2567667 On ch=1 n=11 v=100
2568419 Off ch=1 n=11 v=0
2580505 On ch=1 n=12 v=100
2580556 Off ch=1 n=12 v=0
2582260 On ch=1 n=11 v=100
2582638 Off ch=1 n=11 v=0
2634890 On ch=1 n=46 v=100
2635151 Off ch=1 n=46 v=0
2721038 On ch=1 n=16 v=100
2721137 Off ch=1 n=16 v=0
2721367 On ch=1 n=15 v=100
2721514 Off ch=1 n=15 v=0
2729649 On ch=1 n=7 v=100
2729664 On ch=1 n=47 v=100
2730184 On ch=1 n=9 v=100
2730184 Off ch=1 n=7 v=0
2730626 Off ch=1 n=47 v=0
2730910 Off ch=1 n=9 v=0
2754541 On ch=1 n=47 v=100
2754639 Off ch=1 n=47 v=0
2791517 On ch=1 n=5 v=100
2792570 Off ch=1 n=5 v=0
2806356 On ch=1 n=38 v=100
2806397 On ch=1 n=21 v=100
2806461 Off ch=1 n=21 v=0
2806464 Off ch=1 n=38 v=0
2810602 On ch=1 n=24 v=100
2810652 Off ch=1 n=24 v=0
2816777 On ch=1 n=38 v=100
2817581 Off ch=1 n=38 v=0
2823679 On ch=1 n=43 v=100
2823780 Off ch=1 n=43 v=0
2873176 On ch=1 n=11 v=100
2873997 Off ch=1 n=11 v=0
2876824 On ch=1 n=55 v=100
2876889 On ch=1 n=5 v=100
2877411 Off ch=1 n=55 v=0
2880041 Off ch=1 n=5 v=0
2881161 On ch=1 n=6 v=100
2881892 Off ch=1 n=6 v=0
2898330 On ch=1 n=65 v=100
2898424 Off ch=1 n=65 v=0
2898468 On ch=1 n=65 v=100
2898535 Off ch=1 n=65 v=0
2918954 On ch=1 n=4 v=100
2919111 Off ch=1 n=4 v=0
2922661 On ch=1 n=10 v=100
2924584 Off ch=1 n=10 v=0
2930329 On ch=1 n=16 v=100
2933943 Off ch=1 n=16 v=0
2935439 On ch=1 n=9 v=100
2935801 Off ch=1 n=9 v=0
2936987 On ch=1 n=15 v=100
2937131 Off ch=1 n=15 v=0
2937184 On ch=1 n=16 v=100
2938132 Off ch=1 n=16 v=0
2945525 On ch=1 n=31 v=100
2945728 Off ch=1 n=31 v=0
2983951 On ch=1 n=24 v=100
2984137 Off ch=1 n=24 v=0
2999260 On ch=1 n=31 v=100
2999418 Off ch=1 n=31 v=0
3004084 On ch=1 n=21 v=100
3004142 Off ch=1 n=21 v=0
3011290 On ch=1 n=15 v=100
3011477 Off ch=1 n=15 v=0
3018741 On ch=1 n=32 v=100
3018959 Off ch=1 n=32 v=0
3027832 On ch=1 n=9 v=100
3027932 On ch=1 n=52 v=100
3028472 Off ch=1 n=9 v=0
3028629 Off ch=1 n=52 v=0
3043828 On ch=1 n=6 v=100
3044813 Off ch=1 n=6 v=0
3049133 On ch=1 n=2 v=100
3049210 Off ch=1 n=2 v=0
3049727 On ch=1 n=24 v=100
3050471 Off ch=1 n=24 v=0
3050509 On ch=1 n=40 v=100
3050616 Off ch=1 n=40 v=0
3050623 On ch=1 n=12 v=100
3050847 Off ch=1 n=12 v=0
3061986 On ch=1 n=18 v=100
3062437 Off ch=1 n=18 v=0
3086422 On ch=1 n=5 v=100
3086660 Off ch=1 n=5 v=0
3089601 On ch=1 n=7 v=100
3089682 On ch=1 n=8 v=100
3089686 Off ch=1 n=7 v=0
3089849 Off ch=1 n=8 v=0
3089856 On ch=1 n=7 v=100
3089993 Off ch=1 n=7 v=0
3100566 On ch=1 n=22 v=100
3100693 Off ch=1 n=22 v=0
3108754 On ch=1 n=9 v=100
3109086 Off ch=1 n=9 v=0
3109443 On ch=1 n=10 v=100
3109659 Off ch=1 n=10 v=0
3117953 On ch=1 n=8 v=100
3118157 Off ch=1 n=8 v=0
3121496 On ch=1 n=10 v=100
3121724 Off ch=1 n=10 v=0
3151168 On ch=1 n=14 v=100
3151276 Off ch=1 n=14 v=0
3162330 On ch=1 n=19 v=100
3162415 Off ch=1 n=19 v=0
3162518 On ch=1 n=17 v=100
3162625 Off ch=1 n=17 v=0
3174500 On ch=1 n=16 v=100
3174539 Off ch=1 n=16 v=0
3183360 On ch=1 n=7 v=100
3183467 Off ch=1 n=7 v=0
3216836 On ch=1 n=16 v=100
3217291 Off ch=1 n=16 v=0
3227205 On ch=1 n=56 v=100
3227208 On ch=1 n=54 v=100
3227233 On ch=1 n=46 v=100
3227238 On ch=1 n=65 v=100
3227341 Off ch=1 n=54 v=0
3227349 Off ch=1 n=46 v=0
3227367 Off ch=1 n=65 v=0
3227398 Off ch=1 n=56 v=0
3227410 On ch=1 n=67 v=100
3227449 On ch=1 n=47 v=100
3227576 Off ch=1 n=47 v=0
3227588 Off ch=1 n=67 v=0
3234101 On ch=1 n=4 v=100
3234225 On ch=1 n=7 v=100
3234227 Off ch=1 n=4 v=0
3234316 Off ch=1 n=7 v=0
3242336 On ch=1 n=4 v=100
3242535 Off ch=1 n=4 v=0
3245081 On ch=1 n=43 v=100
3245179 Off ch=1 n=43 v=0
3251632 On ch=1 n=8 v=100
3252818 Off ch=1 n=8 v=0
3272508 On ch=1 n=17 v=100
3272742 Off ch=1 n=17 v=0
3272746 On ch=1 n=7 v=100
3272882 Off ch=1 n=7 v=0
3274024 On ch=1 n=9 v=100
3274467 Off ch=1 n=9 v=0
3275958 On ch=1 n=11 v=100
3276003 On ch=1 n=54 v=100
3276303 On ch=1 n=11 v=100
3276303 Off ch=1 n=11 v=0
3276798 Off ch=1 n=11 v=0
3276804 On ch=1 n=21 v=100
3276898 Off ch=1 n=54 v=0
3276927 Off ch=1 n=21 v=0
3279188 On ch=1 n=17 v=100
3279357 Off ch=1 n=17 v=0
3282530 On ch=1 n=18 v=100
3282648 Off ch=1 n=18 v=0
3283753 On ch=1 n=22 v=100
3284125 Off ch=1 n=22 v=0
3306136 On ch=1 n=53 v=100
3306430 Off ch=1 n=53 v=0
3325847 On ch=1 n=42 v=100
3326051 Off ch=1 n=42 v=0
3362505 On ch=1 n=14 v=100
3362761 Off ch=1 n=14 v=0
3364491 On ch=1 n=4 v=100
3364713 Off ch=1 n=4 v=0
3381570 On ch=1 n=48 v=100
3381590 On ch=1 n=47 v=100
3381709 Off ch=1 n=48 v=0
3381747 Off ch=1 n=47 v=0
3382247 On ch=1 n=50 v=100
3382618 Off ch=1 n=50 v=0
3418761 On ch=1 n=20 v=100
3418845 Off ch=1 n=20 v=0
3418894 On ch=1 n=20 v=100
3418907 Off ch=1 n=20 v=0
3459412 On ch=1 n=9 v=100
3459531 Off ch=1 n=9 v=0
3477337 On ch=1 n=8 v=100
3477942 Off ch=1 n=8 v=0
3488185 On ch=1 n=20 v=100
3488490 Off ch=1 n=20 v=0
3493681 On ch=1 n=23 v=100
3493792 Off ch=1 n=23 v=0
3494931 On ch=1 n=16 v=100
3495039 Off ch=1 n=16 v=0
3501512 On ch=1 n=11 v=100
3501601 Off ch=1 n=11 v=0
3503633 On ch=1 n=12 v=100
3503729 Off ch=1 n=12 v=0
3556537 On ch=1 n=49 v=100
3556762 Off ch=1 n=49 v=0
3586325 On ch=1 n=7 v=100
3586615 Off ch=1 n=7 v=0
3597149 On ch=1 n=47 v=100
3597271 Off ch=1 n=47 v=0
3622310 On ch=1 n=22 v=100
3622568 Off ch=1 n=22 v=0
3625408 On ch=1 n=4 v=100
3625459 Off ch=1 n=4 v=0
3630086 On ch=1 n=6 v=100
3631199 Off ch=1 n=6 v=0
3637104 On ch=1 n=51 v=100
3637253 Off ch=1 n=51 v=0
3665850 On ch=1 n=36 v=100
3666007 Off ch=1 n=36 v=0
3709875 On ch=1 n=16 v=100
3711140 Off ch=1 n=16 v=0
3715007 On ch=1 n=7 v=100
3715540 Off ch=1 n=7 v=0
3739242 On ch=1 n=21 v=100
3739414 Off ch=1 n=21 v=0
3744565 On ch=1 n=49 v=100
3744939 On ch=1 n=6 v=100
3745965 Off ch=1 n=49 v=0
3746781 Off ch=1 n=6 v=0
3778269 On ch=1 n=4 v=100
3778356 On ch=1 n=15 v=100
3778413 Off ch=1 n=4 v=0
3778426 Off ch=1 n=15 v=0
3779737 On ch=1 n=22 v=100
3779773 Off ch=1 n=22 v=0
3790564 On ch=1 n=29 v=100
3790685 Off ch=1 n=29 v=0
3801149 On ch=1 n=27 v=100
3801365 Off ch=1 n=27 v=0
3810767 On ch=1 n=17 v=100
3810892 Off ch=1 n=17 v=0
3831776 On ch=1 n=34 v=100
3831993 Off ch=1 n=34 v=0
3834974 On ch=1 n=19 v=100
3835286 Off ch=1 n=19 v=0
3845572 On ch=1 n=44 v=100
3846265 Off ch=1 n=44 v=0
3888034 On ch=1 n=10 v=100
3888035 On ch=1 n=30 v=100
3888104 Off ch=1 n=10 v=0
3888118 Off ch=1 n=30 v=0
3888121 On ch=1 n=58 v=100
3888122 On ch=1 n=12 v=100
3888318 Off ch=1 n=12 v=0
3888342 Off ch=1 n=58 v=0
3899005 On ch=1 n=22 v=100
3899077 Off ch=1 n=22 v=0
3915912 On ch=1 n=7 v=100
3915965 Off ch=1 n=7 v=0
3937648 On ch=1 n=22 v=100
3937693 On ch=1 n=26 v=100
3937693 Off ch=1 n=22 v=0
3937865 Off ch=1 n=26 v=0
4008714 On ch=1 n=4 v=100
4008759 Off ch=1 n=4 v=0
4025892 On ch=1 n=4 v=100
4027241 Off ch=1 n=4 v=0
4031787 On ch=1 n=2 v=100
4032979 On ch=1 n=3 v=100
4032979 Off ch=1 n=2 v=0
4035068 Off ch=1 n=3 v=0
4077874 On ch=1 n=10 v=100
4078030 Off ch=1 n=10 v=0
4099140 On ch=1 n=11 v=100
4100038 Off ch=1 n=11 v=0
4135580 On ch=1 n=5 v=100
4136803 On ch=1 n=3 v=100
4136803 Off ch=1 n=5 v=0
4137132 Off ch=1 n=3 v=0
4179105 On ch=1 n=13 v=100
4179473 Off ch=1 n=13 v=0
4184563 On ch=1 n=7 v=100
4184753 Off ch=1 n=7 v=0
4184754 On ch=1 n=7 v=100
4185599 Off ch=1 n=7 v=0
4191771 On ch=1 n=11 v=100
4191817 Off ch=1 n=11 v=0
4193385 On ch=1 n=7 v=100
4193615 Off ch=1 n=7 v=0
4197255 On ch=1 n=29 v=100
4197354 Off ch=1 n=29 v=0
4197398 On ch=1 n=29 v=100
4202983 Off ch=1 n=29 v=0
4205566 On ch=1 n=41 v=100
4206021 Off ch=1 n=41 v=0
4206216 On ch=1 n=13 v=100
4206376 Off ch=1 n=13 v=0
4235715 On ch=1 n=10 v=100
4235742 Off ch=1 n=10 v=0
4235771 On ch=1 n=10 v=100
4236846 Off ch=1 n=10 v=0
4236874 On ch=1 n=10 v=100
4237022 Off ch=1 n=10 v=0
4237024 On ch=1 n=6 v=100
4237166 Off ch=1 n=6 v=0
4240943 On ch=1 n=3 v=100
4243392 Off ch=1 n=3 v=0
4243393 On ch=1 n=3 v=100
4244246 Off ch=1 n=3 v=0
4252602 On ch=1 n=5 v=100
4252784 On ch=1 n=4 v=100
4252787 Off ch=1 n=5 v=0
4254780 Off ch=1 n=4 v=0
4258401 On ch=1 n=7 v=100
4258596 On ch=1 n=4 v=100
4258599 Off ch=1 n=7 v=0
4260592 Off ch=1 n=4 v=0
4278807 On ch=1 n=8 v=100
4284311 Off ch=1 n=8 v=0
4287932 On ch=1 n=3 v=100
4288170 Off ch=1 n=3 v=0
4300829 On ch=1 n=3 v=100
4301858 Off ch=1 n=3 v=0
4302169 On ch=1 n=12 v=100
4302609 Off ch=1 n=12 v=0
4303203 On ch=1 n=3 v=100
4305702 Off ch=1 n=3 v=0
4345967 On ch=1 n=6 v=100
4346317 Off ch=1 n=6 v=0
4348073 On ch=1 n=46 v=100
4348233 Off ch=1 n=46 v=0
4367624 On ch=1 n=49 v=100
4367786 Off ch=1 n=49 v=0
4368502 On ch=1 n=4 v=100
4369544 Off ch=1 n=4 v=0
4369855 On ch=1 n=8 v=100
4370300 Off ch=1 n=8 v=0
4370870 On ch=1 n=9 v=100
4371110 Off ch=1 n=9 v=0
4371841 On ch=1 n=3 v=100
4374150 Off ch=1 n=3 v=0
4409660 On ch=1 n=41 v=100
4409893 Off ch=1 n=41 v=0
4410078 On ch=1 n=45 v=100
4410288 Off ch=1 n=45 v=0
4416121 On ch=1 n=6 v=100
4416532 Off ch=1 n=6 v=0
4422444 On ch=1 n=25 v=100
4422545 Off ch=1 n=25 v=0
4427092 On ch=1 n=51 v=100
4427092 On ch=1 n=51 v=100
4427319 Off ch=1 n=51 v=0
4427319 Off ch=1 n=51 v=0
4465731 On ch=1 n=39 v=100
4465959 Off ch=1 n=39 v=0
4466119 On ch=1 n=47 v=100
4466366 Off ch=1 n=47 v=0
4476812 On ch=1 n=8 v=100
4477197 Off ch=1 n=8 v=0
4512486 On ch=1 n=21 v=100
4512545 Off ch=1 n=21 v=0
4520172 On ch=1 n=8 v=100
4520485 Off ch=1 n=8 v=0
4524018 On ch=1 n=31 v=100
4524371 Off ch=1 n=31 v=0
4524429 On ch=1 n=22 v=100
4524645 On ch=1 n=6 v=100
4524645 Off ch=1 n=22 v=0
4524780 Off ch=1 n=6 v=0
4524782 On ch=1 n=2 v=100
4524823 Off ch=1 n=2 v=0
4524825 On ch=1 n=2 v=100
4524866 Off ch=1 n=2 v=0
4524868 On ch=1 n=3 v=100
4524909 Off ch=1 n=3 v=0
4524911 On ch=1 n=8 v=100
4528124 Off ch=1 n=8 v=0
4529301 On ch=1 n=56 v=100
4531537 On ch=1 n=4 v=100
4531539 Off ch=1 n=56 v=0
4531951 On ch=1 n=47 v=100
4531967 Off ch=1 n=4 v=0
4532539 Off ch=1 n=47 v=0
4579144 On ch=1 n=19 v=100
4579254 Off ch=1 n=19 v=0
4604730 On ch=1 n=57 v=100
4604975 Off ch=1 n=57 v=0
4626509 On ch=1 n=20 v=100
4626653 Off ch=1 n=20 v=0
4629210 On ch=1 n=53 v=100
4629311 Off ch=1 n=53 v=0
4664999 On ch=1 n=16 v=100
4665059 Off ch=1 n=16 v=0
4686259 On ch=1 n=30 v=100
4686456 Off ch=1 n=30 v=0
4687604 On ch=1 n=21 v=100
4687672 Off ch=1 n=21 v=0
4702843 On ch=1 n=20 v=100
4702892 Off ch=1 n=20 v=0
4712909 On ch=1 n=16 v=100
4712969 Off ch=1 n=16 v=0
4714878 On ch=1 n=2 v=100
4717022 Off ch=1 n=2 v=0
4727421 On ch=1 n=0 v=100
4730707 On ch=1 n=0 v=100
4732705 Off ch=1 n=0 v=0
4733109 Off ch=1 n=0 v=0
4749700 On ch=1 n=27 v=100
4749767 Off ch=1 n=27 v=0
4756466 On ch=1 n=48 v=100
4756712 Off ch=1 n=48 v=0
4758245 On ch=1 n=58 v=100
4758350 Off ch=1 n=58 v=0
4762675 On ch=1 n=7 v=100
4763085 Off ch=1 n=7 v=0
4784144 On ch=1 n=7 v=100
4784533 Off ch=1 n=7 v=0
4785990 On ch=1 n=19 v=100
4786208 On ch=1 n=10 v=100
4786208 Off ch=1 n=19 v=0
4786346 Off ch=1 n=10 v=0
4786353 On ch=1 n=5 v=100
4786390 Off ch=1 n=5 v=0
4786392 On ch=1 n=7 v=100
4786432 Off ch=1 n=7 v=0
4786435 On ch=1 n=7 v=100
4786475 Off ch=1 n=7 v=0
4786478 On ch=1 n=7 v=100
4786519 Off ch=1 n=7 v=0
4786521 On ch=1 n=8 v=100
4789244 On ch=1 n=10 v=100
4789245 Off ch=1 n=8 v=0
4789564 Off ch=1 n=10 v=0
4790022 On ch=1 n=57 v=100
4790203 Off ch=1 n=57 v=0
4804003 On ch=1 n=38 v=100
4804093 Off ch=1 n=38 v=0
4808780 On ch=1 n=21 v=100
4808982 Off ch=1 n=21 v=0
4820404 On ch=1 n=13 v=100
4821170 Off ch=1 n=13 v=0
4844897 On ch=1 n=19 v=100
4845024 Off ch=1 n=19 v=0
4868857 On ch=1 n=6 v=100
4869967 Off ch=1 n=6 v=0
4874064 On ch=1 n=8 v=100
4874245 Off ch=1 n=8 v=0
4885646 On ch=1 n=11 v=100
4885768 Off ch=1 n=11 v=0
4887459 On ch=1 n=35 v=100
4887586 Off ch=1 n=35 v=0
4906623 On ch=1 n=6 v=100
4907135 Off ch=1 n=6 v=0
4929205 On ch=1 n=7 v=100
4929217 On ch=1 n=37 v=100
4929495 Off ch=1 n=7 v=0
4929555 Off ch=1 n=37 v=0
4931147 On ch=1 n=9 v=100
4931716 Off ch=1 n=9 v=0
4936204 On ch=1 n=62 v=100
4936528 Off ch=1 n=62 v=0
4957686 On ch=1 n=8 v=100
4957803 Off ch=1 n=8 v=0
4980048 On ch=1 n=14 v=100
4980378 Off ch=1 n=14 v=0
4980965 On ch=1 n=9 v=100
4981038 Off ch=1 n=9 v=0
4981067 On ch=1 n=9 v=100
4981129 Off ch=1 n=9 v=0
4986912 On ch=1 n=9 v=100
4987370 Off ch=1 n=9 v=0
4988568 On ch=1 n=9 v=100
4988997 On ch=1 n=9 v=100
4989016 Off ch=1 n=9 v=0
4989021 Off ch=1 n=9 v=0
4989114 On ch=1 n=9 v=100
4989223 Off ch=1 n=9 v=0
4989226 On ch=1 n=7 v=100
4989355 Off ch=1 n=7 v=0
5004679 On ch=1 n=46 v=100
5005046 Off ch=1 n=46 v=0
5018209 On ch=1 n=18 v=100
5018355 Off ch=1 n=18 v=0
5018360 On ch=1 n=24 v=100
5018533 Off ch=1 n=24 v=0
5018534 On ch=1 n=23 v=100
5018747 Off ch=1 n=23 v=0
5018750 On ch=1 n=28 v=100
5018878 Off ch=1 n=28 v=0
5019996 On ch=1 n=49 v=100
5020027 On ch=1 n=4 v=100
5020281 Off ch=1 n=49 v=0
5020286 Off ch=1 n=4 v=0
5022600 On ch=1 n=13 v=100
5022898 Off ch=1 n=13 v=0
5031862 On ch=1 n=5 v=100
5032177 Off ch=1 n=5 v=0
5035272 On ch=1 n=8 v=100
5036153 Off ch=1 n=8 v=0
5062110 On ch=1 n=33 v=100
5062197 Off ch=1 n=33 v=0
5084260 On ch=1 n=4 v=100
5085034 Off ch=1 n=4 v=0
5111223 On ch=1 n=48 v=100
5111361 Off ch=1 n=48 v=0
5136336 On ch=1 n=7 v=100
5136496 Off ch=1 n=7 v=0
5136606 On ch=1 n=18 v=100
5136617 On ch=1 n=15 v=100
5136670 Off ch=1 n=18 v=0
5136685 Off ch=1 n=15 v=0
5159757 On ch=1 n=4 v=100
5160015 Off ch=1 n=4 v=0
5161226 On ch=1 n=4 v=100
5164157 Off ch=1 n=4 v=0
5170359 On ch=1 n=49 v=100
5170378 On ch=1 n=4 v=100
5170517 Off ch=1 n=49 v=0
5170535 Off ch=1 n=4 v=0
5171355 On ch=1 n=51 v=100
5171790 Off ch=1 n=51 v=0
5173949 On ch=1 n=18 v=100
5174310 Off ch=1 n=18 v=0
5174970 On ch=1 n=17 v=100
5175084 Off ch=1 n=17 v=0
5175095 On ch=1 n=19 v=100
5175457 Off ch=1 n=19 v=0
5183030 On ch=1 n=13 v=100
5183425 On ch=1 n=9 v=100
5183428 Off ch=1 n=13 v=0
5183583 Off ch=1 n=9 v=0
5184724 On ch=1 n=11 v=100
5185110 On ch=1 n=7 v=100
5185110 Off ch=1 n=11 v=0
5185505 Off ch=1 n=7 v=0
5209666 On ch=1 n=8 v=100
5209870 Off ch=1 n=8 v=0
5213075 On ch=1 n=13 v=100
5213150 Off ch=1 n=13 v=0
5255004 On ch=1 n=15 v=100
5255164 Off ch=1 n=15 v=0
5257281 On ch=1 n=56 v=100
5257281 On ch=1 n=56 v=100
5257420 On ch=1 n=8 v=100
5257420 On ch=1 n=8 v=100
5257620 Off ch=1 n=56 v=0
5257620 Off ch=1 n=56 v=0
5257763 On ch=1 n=11 v=100
5257763 Off ch=1 n=8 v=0
5257763 Off ch=1 n=8 v=0
5257843 Off ch=1 n=11 v=0
5268477 On ch=1 n=7 v=100
5268528 Off ch=1 n=7 v=0
5272093 On ch=1 n=33 v=100
5272205 Off ch=1 n=33 v=0
5304085 On ch=1 n=4 v=100
5304981 Off ch=1 n=4 v=0
5318893 On ch=1 n=42 v=100
5319000 Off ch=1 n=42 v=0
5327383 On ch=1 n=4 v=100
5327715 Off ch=1 n=4 v=0
5345347 On ch=1 n=13 v=100
5345548 Off ch=1 n=13 v=0
5346319 On ch=1 n=15 v=100
5346377 Off ch=1 n=15 v=0
5406797 On ch=1 n=44 v=100
5407811 Off ch=1 n=44 v=0
5411126 On ch=1 n=7 v=100
5411654 Off ch=1 n=7 v=0
5425861 On ch=1 n=16 v=100
5425916 On ch=1 n=51 v=100
5426135 Off ch=1 n=16 v=0
5426179 Off ch=1 n=51 v=0
5426279 On ch=1 n=18 v=100
5426585 Off ch=1 n=18 v=0
5427147 On ch=1 n=15 v=100
5427456 Off ch=1 n=15 v=0
5432734 On ch=1 n=17 v=100
5432945 Off ch=1 n=17 v=0
5437821 On ch=1 n=41 v=100
5438121 Off ch=1 n=41 v=0
5442603 On ch=1 n=17 v=100
5442855 Off ch=1 n=17 v=0
5451891 On ch=1 n=8 v=100
5451942 Off ch=1 n=8 v=0
5474233 On ch=1 n=6 v=100
5474351 Off ch=1 n=6 v=0
5482741 On ch=1 n=49 v=100
5483386 Off ch=1 n=49 v=0
5514465 On ch=1 n=14 v=100
5515855 Off ch=1 n=14 v=0
5515928 On ch=1 n=14 v=100
5515952 Off ch=1 n=14 v=0
5526415 On ch=1 n=46 v=100
5526720 Off ch=1 n=46 v=0
5536852 On ch=1 n=6 v=100
5537003 Off ch=1 n=6 v=0
5539547 On ch=1 n=26 v=100
5539847 Off ch=1 n=26 v=0
5540187 On ch=1 n=13 v=100
5540268 Off ch=1 n=13 v=0
5540689 On ch=1 n=12 v=100
5540842 Off ch=1 n=12 v=0
5541125 On ch=1 n=7 v=100
5541379 Off ch=1 n=7 v=0
5541412 On ch=1 n=15 v=100
5541605 Off ch=1 n=15 v=0
5561467 On ch=1 n=11 v=100
5562375 Off ch=1 n=11 v=0
5610999 On ch=1 n=31 v=100
5611219 Off ch=1 n=31 v=0
5611573 On ch=1 n=5 v=100
5611920 Off ch=1 n=5 v=0
5652496 On ch=1 n=53 v=100
5652692 Off ch=1 n=53 v=0
5665629 On ch=1 n=12 v=100
5665644 Off ch=1 n=12 v=0
5665674 On ch=1 n=12 v=100
5665803 Off ch=1 n=12 v=0
5668201 On ch=1 n=54 v=100
5668711 Off ch=1 n=54 v=0
5671420 On ch=1 n=14 v=100
5671792 Off ch=1 n=14 v=0
5678623 On ch=1 n=27 v=100
5678694 Off ch=1 n=27 v=0
5696067 On ch=1 n=23 v=100
5696087 On ch=1 n=8 v=100
5696166 Off ch=1 n=23 v=0
5696249 Off ch=1 n=8 v=0
5696277 On ch=1 n=12 v=100
5696490 Off ch=1 n=12 v=0
5696508 On ch=1 n=9 v=100
5696989 Off ch=1 n=9 v=0
5712994 On ch=1 n=10 v=100
5713383 Off ch=1 n=10 v=0
5740785 On ch=1 n=9 v=100
5741014 Off ch=1 n=9 v=0
5741324 On ch=1 n=43 v=100
5741496 Off ch=1 n=43 v=0
5751889 On ch=1 n=9 v=100
5752916 Off ch=1 n=9 v=0
5768542 On ch=1 n=10 v=100
5768653 Off ch=1 n=10 v=0
5768706 On ch=1 n=8 v=100
5768839 Off ch=1 n=8 v=0
5769704 On ch=1 n=21 v=100
5770326 Off ch=1 n=21 v=0
5770577 On ch=1 n=13 v=100
5770692 Off ch=1 n=13 v=0
5773263 On ch=1 n=27 v=100
5773363 Off ch=1 n=27 v=0
5773408 On ch=1 n=27 v=100
5773512 Off ch=1 n=27 v=0
5793146 On ch=1 n=7 v=100
5793246 Off ch=1 n=7 v=0
5793247 On ch=1 n=5 v=100
5793289 On ch=1 n=10 v=100
5793289 Off ch=1 n=5 v=0
5793475 Off ch=1 n=10 v=0
5814998 On ch=1 n=9 v=100
5815429 Off ch=1 n=9 v=0
5816114 On ch=1 n=52 v=100
5816116 On ch=1 n=50 v=100
5816285 Off ch=1 n=50 v=0
5816392 Off ch=1 n=52 v=0
5817958 On ch=1 n=25 v=100
5818056 Off ch=1 n=25 v=0
5854686 On ch=1 n=30 v=100
5854887 Off ch=1 n=30 v=0
5868145 On ch=1 n=16 v=100
5868252 Off ch=1 n=16 v=0
5910506 On ch=1 n=51 v=100
5910785 Off ch=1 n=51 v=0
5927721 On ch=1 n=7 v=100
5927898 On ch=1 n=11 v=100
5927899 Off ch=1 n=7 v=0
5928252 Off ch=1 n=11 v=0
5947268 On ch=1 n=2 v=100
5947411 On ch=1 n=1 v=100
5947465 Off ch=1 n=2 v=0
5947783 Off ch=1 n=1 v=0
5958705 On ch=1 n=44 v=100
5958810 Off ch=1 n=44 v=0
5967302 On ch=1 n=4 v=100
5968450 Off ch=1 n=4 v=0
5968463 On ch=1 n=5 v=100
5968516 On ch=1 n=6 v=100
5968555 Off ch=1 n=5 v=0
5968609 Off ch=1 n=6 v=0
5968622 On ch=1 n=5 v=100
5968675 On ch=1 n=6 v=100
5968715 Off ch=1 n=5 v=0
5968728 On ch=1 n=5 v=100
5968768 Off ch=1 n=6 v=0
5968821 Off ch=1 n=5 v=0
5968834 On ch=1 n=7 v=100
5969003 Off ch=1 n=7 v=0
5970707 On ch=1 n=7 v=100
5970809 Off ch=1 n=7 v=0
5993713 On ch=1 n=8 v=100
5993861 On ch=1 n=27 v=100
5993920 Off ch=1 n=8 v=0
5993931 Off ch=1 n=27 v=0
6006895 On ch=1 n=10 v=100
6007373 Off ch=1 n=10 v=0
6007406 On ch=1 n=10 v=100
6007489 Off ch=1 n=10 v=0
6008084 On ch=1 n=16 v=100
6008841 Off ch=1 n=16 v=0
6025166 On ch=1 n=8 v=100
6025530 Off ch=1 n=8 v=0
6118086 On ch=1 n=27 v=100
6118434 Off ch=1 n=27 v=0
6118461 On ch=1 n=27 v=100
6118533 Off ch=1 n=27 v=0
6130194 On ch=1 n=8 v=100
6130423 Off ch=1 n=8 v=0
6132296 On ch=1 n=15 v=100
6132404 Off ch=1 n=15 v=0
6151980 On ch=1 n=12 v=100
6152222 Off ch=1 n=12 v=0
6162658 On ch=1 n=29 v=100
6163222 Off ch=1 n=29 v=0
6175333 On ch=1 n=10 v=100
6175972 Off ch=1 n=10 v=0
6192689 On ch=1 n=9 v=100
6192889 Off ch=1 n=9 v=0
6194002 On ch=1 n=16 v=100
6194133 Off ch=1 n=16 v=0
6211273 On ch=1 n=43 v=100
6211509 Off ch=1 n=43 v=0
6232470 On ch=1 n=13 v=100
6232682 On ch=1 n=16 v=100
6232684 Off ch=1 n=13 v=0
6233026 Off ch=1 n=16 v=0
6314080 On ch=1 n=15 v=100
6314184 On ch=1 n=52 v=100
6314411 Off ch=1 n=15 v=0
6314412 On ch=1 n=10 v=100
6314673 Off ch=1 n=52 v=0
6314714 Off ch=1 n=10 v=0
6322378 On ch=1 n=42 v=100
6322462 Off ch=1 n=42 v=0
6329681 On ch=1 n=44 v=100
6329772 Off ch=1 n=44 v=0
6353159 On ch=1 n=7 v=100
6353595 Off ch=1 n=7 v=0
6373023 On ch=1 n=27 v=100
6373026 On ch=1 n=31 v=100
6373073 Off ch=1 n=27 v=0
6373079 Off ch=1 n=31 v=0
6381973 On ch=1 n=24 v=100
6382043 Off ch=1 n=24 v=0
6389620 On ch=1 n=12 v=100
6389776 Off ch=1 n=12 v=0
6390586 On ch=1 n=34 v=100
6390849 Off ch=1 n=34 v=0
6391117 On ch=1 n=15 v=100
6391599 Off ch=1 n=15 v=0
6416111 On ch=1 n=9 v=100
6416156 Off ch=1 n=9 v=0
6445421 On ch=1 n=20 v=100
6445491 Off ch=1 n=20 v=0
6479473 On ch=1 n=18 v=100
6479666 Off ch=1 n=18 v=0
6479957 On ch=1 n=53 v=100
6480343 Off ch=1 n=53 v=0
6482824 On ch=1 n=6 v=100
6483652 Off ch=1 n=6 v=0
6483689 On ch=1 n=16 v=100
6483935 Off ch=1 n=16 v=0
6488001 On ch=1 n=48 v=100
6488067 On ch=1 n=38 v=100
6488170 Off ch=1 n=48 v=0
6488170 Off ch=1 n=38 v=0
6488282 On ch=1 n=41 v=100
6488788 Off ch=1 n=41 v=0
6488854 On ch=1 n=14 v=100
6488871 On ch=1 n=46 v=100
6489087 Off ch=1 n=14 v=0
6489132 Off ch=1 n=46 v=0
6490151 On ch=1 n=23 v=100
6490241 Off ch=1 n=23 v=0
6492161 On ch=1 n=9 v=100
6492400 Off ch=1 n=9 v=0
6492401 On ch=1 n=11 v=100
6492722 Off ch=1 n=11 v=0
6501450 On ch=1 n=8 v=100
6501550 Off ch=1 n=8 v=0
6530609 On ch=1 n=56 v=100
6530614 On ch=1 n=59 v=100
6530709 On ch=1 n=4 v=100
6530930 Off ch=1 n=56 v=0
6531444 Off ch=1 n=59 v=0
6531964 Off ch=1 n=4 v=0
6545575 On ch=1 n=14 v=100
6545627 Off ch=1 n=14 v=0
6550496 On ch=1 n=6 v=100
6550949 Off ch=1 n=6 v=0
6553161 On ch=1 n=14 v=100
6553208 Off ch=1 n=14 v=0
6603300 On ch=1 n=18 v=100
6603571 Off ch=1 n=18 v=0
6672015 On ch=1 n=19 v=100
6672274 Off ch=1 n=19 v=0
6678316 On ch=1 n=12 v=100
6678552 Off ch=1 n=12 v=0
6678557 On ch=1 n=19 v=100
6678629 Off ch=1 n=19 v=0
6678635 On ch=1 n=11 v=100
6678712 On ch=1 n=26 v=100
6678804 On ch=1 n=13 v=100
6678804 Off ch=1 n=11 v=0
6679208 Off ch=1 n=13 v=0
6679216 Off ch=1 n=26 v=0
6698402 On ch=1 n=17 v=100
6698742 Off ch=1 n=17 v=0
6700534 On ch=1 n=9 v=100
6701398 Off ch=1 n=9 v=0
6702898 On ch=1 n=16 v=100
6703044 Off ch=1 n=16 v=0
6703871 On ch=1 n=11 v=100
6704101 Off ch=1 n=11 v=0
6713912 On ch=1 n=2 v=100
6714289 Off ch=1 n=2 v=0
6714293 On ch=1 n=5 v=100
6714467 Off ch=1 n=5 v=0
6714495 On ch=1 n=5 v=100
6714650 Off ch=1 n=5 v=0
6722604 On ch=1 n=8 v=100
6722871 Off ch=1 n=8 v=0
6723792 On ch=1 n=24 v=100
6723983 Off ch=1 n=24 v=0
6726438 On ch=1 n=9 v=100
6726513 Off ch=1 n=9 v=0
6726515 On ch=1 n=6 v=100
6726581 Off ch=1 n=6 v=0
6728793 On ch=1 n=24 v=100
6728873 Off ch=1 n=24 v=0
6746406 On ch=1 n=39 v=100
6746472 Off ch=1 n=39 v=0
6757235 On ch=1 n=9 v=100
6757593 Off ch=1 n=9 v=0
6806029 On ch=1 n=10 v=100
6806260 Off ch=1 n=10 v=0
6825239 On ch=1 n=10 v=100
6825533 Off ch=1 n=10 v=0
6858728 On ch=1 n=36 v=100
6858857 Off ch=1 n=36 v=0
6862265 On ch=1 n=33 v=100
6862358 Off ch=1 n=33 v=0
6862905 On ch=1 n=9 v=100
6863121 On ch=1 n=12 v=100
6863125 Off ch=1 n=9 v=0
6863903 Off ch=1 n=12 v=0
6878753 On ch=1 n=11 v=100
6879064 Off ch=1 n=11 v=0
6892979 On ch=1 n=11 v=100
6893120 Off ch=1 n=11 v=0
6893224 On ch=1 n=39 v=100
6893278 Off ch=1 n=39 v=0
6900145 On ch=1 n=16 v=100
6900482 Off ch=1 n=16 v=0
6964111 On ch=1 n=12 v=100
6964154 Off ch=1 n=12 v=0
6981474 On ch=1 n=12 v=100
6981903 Off ch=1 n=12 v=0
6982533 On ch=1 n=10 v=100
6982758 Off ch=1 n=10 v=0
6991511 On ch=1 n=30 v=100
6991511 On ch=1 n=30 v=100
6991711 Off ch=1 n=30 v=0
6991711 Off ch=1 n=30 v=0
7016217 On ch=1 n=14 v=100
7016573 Off ch=1 n=14 v=0
7040389 On ch=1 n=12 v=100
7040927 Off ch=1 n=12 v=0
7044984 On ch=1 n=11 v=100
7045577 Off ch=1 n=11 v=0
7058360 On ch=1 n=47 v=100
7058384 On ch=1 n=10 v=100
7058560 Off ch=1 n=47 v=0
7058830 Off ch=1 n=10 v=0
7076710 On ch=1 n=6 v=100
7077255 Off ch=1 n=6 v=0
7085867 On ch=1 n=35 v=100
7085955 Off ch=1 n=35 v=0
7086049 On ch=1 n=35 v=100
7086110 Off ch=1 n=35 v=0
7111752 On ch=1 n=25 v=100
7111836 Off ch=1 n=25 v=0
7121875 On ch=1 n=41 v=100
7121883 On ch=1 n=38 v=100
7121893 On ch=1 n=41 v=100
7121970 Off ch=1 n=41 v=0
7121977 Off ch=1 n=38 v=0
7121986 Off ch=1 n=41 v=0
7122663 On ch=1 n=51 v=100
7122683 On ch=1 n=48 v=100
7122837 Off ch=1 n=51 v=0
7122895 Off ch=1 n=48 v=0
7143710 On ch=1 n=13 v=100
7143848 Off ch=1 n=13 v=0
7144619 On ch=1 n=9 v=100
7145356 Off ch=1 n=9 v=0
7161045 On ch=1 n=4 v=100
7161733 Off ch=1 n=4 v=0
7177156 On ch=1 n=2 v=100
7177972 Off ch=1 n=2 v=0
7194165 On ch=1 n=20 v=100
7194383 Off ch=1 n=20 v=0
7207424 On ch=1 n=23 v=100
7207424 On ch=1 n=18 v=100
7207533 Off ch=1 n=18 v=0
7207567 Off ch=1 n=23 v=0
7229241 On ch=1 n=34 v=100
7229542 Off ch=1 n=34 v=0
7243900 On ch=1 n=8 v=100
7244190 On ch=1 n=33 v=100
7244206 Off ch=1 n=8 v=0
7244297 Off ch=1 n=33 v=0
7255013 On ch=1 n=6 v=100
7256017 Off ch=1 n=6 v=0
7271466 On ch=1 n=17 v=100
7271544 Off ch=1 n=17 v=0
7280088 On ch=1 n=8 v=100
7280135 Off ch=1 n=8 v=0
7282402 On ch=1 n=35 v=100
7282418 Off ch=1 n=35 v=0
7282465 On ch=1 n=35 v=100
7282465 On ch=1 n=1 v=100
7282594 Off ch=1 n=35 v=0
7283603 Off ch=1 n=1 v=0
7292802 On ch=1 n=19 v=100
7293177 Off ch=1 n=19 v=0
7293783 On ch=1 n=23 v=100
7294069 Off ch=1 n=23 v=0
7298104 On ch=1 n=21 v=100
7298145 Off ch=1 n=21 v=0
7300261 On ch=1 n=10 v=100
7300555 Off ch=1 n=10 v=0
7306570 On ch=1 n=38 v=100
7306716 Off ch=1 n=38 v=0
7311020 On ch=1 n=28 v=100
7311166 Off ch=1 n=28 v=0
7329600 On ch=1 n=37 v=100
7329609 On ch=1 n=52 v=100
7329783 Off ch=1 n=37 v=0
7330146 Off ch=1 n=52 v=0
7330158 On ch=1 n=8 v=100
7331173 Off ch=1 n=8 v=0
7331177 On ch=1 n=59 v=100
7331437 Off ch=1 n=59 v=0
7347660 On ch=1 n=26 v=100
7347728 Off ch=1 n=26 v=0
7358227 On ch=1 n=45 v=100
7358650 Off ch=1 n=45 v=0
7381142 On ch=1 n=9 v=100
7381294 Off ch=1 n=9 v=0
7381467 On ch=1 n=9 v=100
7381792 On ch=1 n=59 v=100
7381852 On ch=1 n=56 v=100
7382146 Off ch=1 n=9 v=0
7382184 Off ch=1 n=56 v=0
7382199 Off ch=1 n=59 v=0
7412133 On ch=1 n=8 v=100
7413005 On ch=1 n=6 v=100
7413009 Off ch=1 n=8 v=0
7413518 Off ch=1 n=6 v=0
7413520 On ch=1 n=9 v=100
7413928 Off ch=1 n=9 v=0
7443020 On ch=1 n=8 v=100
7443320 Off ch=1 n=8 v=0
7443326 On ch=1 n=2 v=100
7443476 Off ch=1 n=2 v=0
7443477 On ch=1 n=6 v=100
7444580 Off ch=1 n=6 v=0
7458503 On ch=1 n=2 v=100
7458608 Off ch=1 n=2 v=0
7458650 On ch=1 n=2 v=100
7458764 Off ch=1 n=2 v=0
7461241 On ch=1 n=11 v=100
7461617 Off ch=1 n=11 v=0
7480040 On ch=1 n=4 v=100
7480059 On ch=1 n=48 v=100
7480912 Off ch=1 n=4 v=0
7481161 Off ch=1 n=48 v=0
7498235 On ch=1 n=13 v=100
7498289 Off ch=1 n=13 v=0
7506138 On ch=1 n=10 v=100
7506396 Off ch=1 n=10 v=0
7511265 On ch=1 n=1 v=100
7512691 Off ch=1 n=1 v=0
7528098 On ch=1 n=4 v=100
7528591 Off ch=1 n=4 v=0
7535034 On ch=1 n=28 v=100
7535216 Off ch=1 n=28 v=0
7538141 On ch=1 n=11 v=100
7538944 Off ch=1 n=11 v=0
7576994 On ch=1 n=13 v=100
7577386 Off ch=1 n=13 v=0
7582977 On ch=1 n=9 v=100
7583423 Off ch=1 n=9 v=0
7587662 On ch=1 n=49 v=100
7587735 On ch=1 n=18 v=100
7587965 Off ch=1 n=49 v=0
7587971 Off ch=1 n=18 v=0
7595935 On ch=1 n=25 v=100
7596182 Off ch=1 n=25 v=0
7618091 On ch=1 n=16 v=100
7618197 Off ch=1 n=16 v=0
7618812 On ch=1 n=14 v=100
7619051 Off ch=1 n=14 v=0
7620634 On ch=1 n=8 v=100
7621268 Off ch=1 n=8 v=0
7621288 On ch=1 n=4 v=100
7621362 Off ch=1 n=4 v=0
7663813 On ch=1 n=52 v=100
7663892 On ch=1 n=11 v=100
7663902 On ch=1 n=53 v=100
7664028 Off ch=1 n=52 v=0
7664032 Off ch=1 n=11 v=0
7664056 Off ch=1 n=53 v=0
7664663 On ch=1 n=19 v=100
7664968 Off ch=1 n=19 v=0
7695366 On ch=1 n=58 v=100
7695561 Off ch=1 n=58 v=0
7696342 On ch=1 n=17 v=100
7696479 Off ch=1 n=17 v=0
7696544 On ch=1 n=57 v=100
7696891 Off ch=1 n=57 v=0
7697309 On ch=1 n=58 v=100
7697310 On ch=1 n=59 v=100
7697356 On ch=1 n=52 v=100
7697750 Off ch=1 n=52 v=0
7697755 Off ch=1 n=58 v=0
7697909 Off ch=1 n=59 v=0
7698447 On ch=1 n=23 v=100
7698501 Off ch=1 n=23 v=0
7700958 On ch=1 n=50 v=100
7701077 Off ch=1 n=50 v=0
7705701 On ch=1 n=48 v=100
7705820 Off ch=1 n=48 v=0
7706737 On ch=1 n=4 v=100
7709518 Off ch=1 n=4 v=0
7713246 On ch=1 n=48 v=100
7713365 Off ch=1 n=48 v=0
7718000 On ch=1 n=44 v=100
7718119 Off ch=1 n=44 v=0
7722139 On ch=1 n=48 v=100
7722258 Off ch=1 n=48 v=0
7726855 On ch=1 n=48 v=100
7726974 Off ch=1 n=48 v=0
7739163 On ch=1 n=35 v=100
7739350 Off ch=1 n=35 v=0
7741689 On ch=1 n=31 v=100
7741864 Off ch=1 n=31 v=0
7771999 On ch=1 n=44 v=100
7772147 Off ch=1 n=44 v=0
7786868 On ch=1 n=24 v=100
7786962 Off ch=1 n=24 v=0
7802516 On ch=1 n=5 v=100
7804142 Off ch=1 n=5 v=0
7855366 On ch=1 n=9 v=100
7855628 Off ch=1 n=9 v=0
7855629 On ch=1 n=8 v=100
7855664 Off ch=1 n=8 v=0
7855995 On ch=1 n=46 v=100
7856066 On ch=1 n=10 v=100
7856202 Off ch=1 n=46 v=0
7856221 Off ch=1 n=10 v=0
7860293 On ch=1 n=50 v=100
7860317 On ch=1 n=43 v=100
7860455 Off ch=1 n=50 v=0
7860513 Off ch=1 n=43 v=0
7877173 On ch=1 n=6 v=100
7878056 Off ch=1 n=6 v=0
7885959 On ch=1 n=9 v=100
7886013 Off ch=1 n=9 v=0
7906261 On ch=1 n=26 v=100
7906366 Off ch=1 n=26 v=0
7915583 On ch=1 n=11 v=100
7916224 Off ch=1 n=11 v=0
7932044 On ch=1 n=2 v=100
7933319 Off ch=1 n=2 v=0
7933339 On ch=1 n=12 v=100
7934221 Off ch=1 n=12 v=0
7934265 On ch=1 n=48 v=100
7935048 Off ch=1 n=48 v=0
7936247 On ch=1 n=5 v=100
7936600 On ch=1 n=7 v=100
7936601 Off ch=1 n=5 v=0
7936792 Off ch=1 n=7 v=0
7938064 On ch=1 n=12 v=100
7938227 Off ch=1 n=12 v=0
7938528 On ch=1 n=2 v=100
7938848 Off ch=1 n=2 v=0
7939463 On ch=1 n=14 v=100
7939707 Off ch=1 n=14 v=0
7946452 On ch=1 n=12 v=100
7947284 Off ch=1 n=12 v=0
7950018 On ch=1 n=22 v=100
7950269 Off ch=1 n=22 v=0
7950448 On ch=1 n=25 v=100
7950716 Off ch=1 n=25 v=0
7953504 On ch=1 n=45 v=100
7953542 On ch=1 n=25 v=100
7953593 On ch=1 n=10 v=100
7953657 Off ch=1 n=45 v=0
7953969 Off ch=1 n=25 v=0
7953969 Off ch=1 n=10 v=0
7954021 On ch=1 n=25 v=100
7954021 On ch=1 n=10 v=100
7954037 Off ch=1 n=10 v=0
7954038 Off ch=1 n=25 v=0
7954956 On ch=1 n=25 v=100
7955368 Off ch=1 n=25 v=0
7980058 On ch=1 n=6 v=100
7980251 Off ch=1 n=6 v=0
7980289 On ch=1 n=6 v=100
7980511 Off ch=1 n=6 v=0
7998039 On ch=1 n=37 v=100
7998147 Off ch=1 n=37 v=0
8001993 On ch=1 n=22 v=100
8002296 Off ch=1 n=22 v=0
8031751 On ch=1 n=34 v=100
8032006 Off ch=1 n=34 v=0
8032034 On ch=1 n=34 v=100
8032125 Off ch=1 n=34 v=0
8036495 On ch=1 n=6 v=100
8037230 Off ch=1 n=6 v=0
8045690 On ch=1 n=9 v=100
8046070 Off ch=1 n=9 v=0
8055997 On ch=1 n=30 v=100
8056095 Off ch=1 n=30 v=0
8056104 On ch=1 n=5 v=100
8056450 Off ch=1 n=5 v=0
8056478 On ch=1 n=7 v=100
8057053 Off ch=1 n=7 v=0
8064712 On ch=1 n=34 v=100
8064809 Off ch=1 n=34 v=0
8093127 On ch=1 n=2 v=100
8093837 Off ch=1 n=2 v=0
8093839 On ch=1 n=0 v=100
8093880 Off ch=1 n=0 v=0
8093882 On ch=1 n=2 v=100
8097097 Off ch=1 n=2 v=0
8097708 On ch=1 n=14 v=100
8097795 Off ch=1 n=14 v=0
8104631 On ch=1 n=15 v=100
8104833 Off ch=1 n=15 v=0
8119806 On ch=1 n=44 v=100
8119875 On ch=1 n=20 v=100
8120021 Off ch=1 n=44 v=0
8120138 On ch=1 n=28 v=100
8120206 Off ch=1 n=20 v=0
8120332 Off ch=1 n=28 v=0
8129387 On ch=1 n=8 v=100
8129457 Off ch=1 n=8 v=0
8129465 On ch=1 n=14 v=100
8129578 Off ch=1 n=14 v=0
8164268 On ch=1 n=29 v=100
8164369 Off ch=1 n=29 v=0
8235753 On ch=1 n=51 v=100
8235835 Off ch=1 n=51 v=0
8248538 On ch=1 n=43 v=100
8248697 Off ch=1 n=43 v=0
8259858 On ch=1 n=13 v=100
8260396 Off ch=1 n=13 v=0
8285638 On ch=1 n=5 v=100
8286505 Off ch=1 n=5 v=0
8311663 On ch=1 n=3 v=100
8315393 Off ch=1 n=3 v=0
8328694 On ch=1 n=27 v=100
8328851 Off ch=1 n=27 v=0
8328867 On ch=1 n=39 v=100
8329040 Off ch=1 n=39 v=0
8329125 On ch=1 n=38 v=100
8329365 Off ch=1 n=38 v=0
8333033 On ch=1 n=36 v=100
8333469 Off ch=1 n=36 v=0
8334520 On ch=1 n=28 v=100
8334963 Off ch=1 n=28 v=0
8335907 On ch=1 n=23 v=100
8336024 Off ch=1 n=23 v=0
8336470 On ch=1 n=20 v=100
8336625 Off ch=1 n=20 v=0
8370954 On ch=1 n=13 v=100
8371687 Off ch=1 n=13 v=0
8395185 On ch=1 n=7 v=100
8395680 Off ch=1 n=7 v=0
8407857 On ch=1 n=7 v=100
8408583 Off ch=1 n=7 v=0
8421201 On ch=1 n=22 v=100
8421285 Off ch=1 n=22 v=0
8449061 On ch=1 n=4 v=100
8449963 On ch=1 n=3 v=100
8449963 Off ch=1 n=4 v=0
8450371 On ch=1 n=5 v=100
8450371 Off ch=1 n=3 v=0
8451273 Off ch=1 n=5 v=0
8457157 On ch=1 n=13 v=100
8457964 Off ch=1 n=13 v=0
8476704 On ch=1 n=9 v=100
8478594 Off ch=1 n=9 v=0
8478636 On ch=1 n=9 v=100
8478730 Off ch=1 n=9 v=0
8478765 On ch=1 n=5 v=100
8478856 Off ch=1 n=5 v=0
8478930 On ch=1 n=5 v=100
8480377 Off ch=1 n=5 v=0
8480964 On ch=1 n=5 v=100
8483370 Off ch=1 n=5 v=0
8483418 On ch=1 n=5 v=100
8483590 Off ch=1 n=5 v=0
8484389 On ch=1 n=9 v=100
8485535 Off ch=1 n=9 v=0
8491833 On ch=1 n=9 v=100
8491862 Off ch=1 n=9 v=0
8491917 On ch=1 n=9 v=100
8492502 On ch=1 n=45 v=100
8492523 On ch=1 n=12 v=100
8492527 Off ch=1 n=9 v=0
8493017 Off ch=1 n=12 v=0
8493055 Off ch=1 n=45 v=0
8501755 On ch=1 n=10 v=100
8502178 Off ch=1 n=10 v=0
8507814 On ch=1 n=10 v=100
8507959 Off ch=1 n=10 v=0
8508079 On ch=1 n=55 v=100
8508121 On ch=1 n=10 v=100
8508457 Off ch=1 n=55 v=0
8508524 Off ch=1 n=10 v=0
8508963 On ch=1 n=58 v=100
8509017 On ch=1 n=8 v=100
8509225 Off ch=1 n=58 v=0
8509291 Off ch=1 n=8 v=0
8515281 On ch=1 n=28 v=100
8515281 On ch=1 n=6 v=100
8515364 Off ch=1 n=6 v=0
8515373 Off ch=1 n=28 v=0
8515408 On ch=1 n=36 v=100
8515408 On ch=1 n=28 v=100
8515418 Off ch=1 n=28 v=0
8515434 Off ch=1 n=36 v=0
8529523 On ch=1 n=6 v=100
8529601 Off ch=1 n=6 v=0
8529694 On ch=1 n=9 v=100
8529850 Off ch=1 n=9 v=0
8550165 On ch=1 n=56 v=100
8550519 Off ch=1 n=56 v=0
8561504 On ch=1 n=45 v=100
8561510 On ch=1 n=29 v=100
8561561 Off ch=1 n=29 v=0
8561566 Off ch=1 n=45 v=0
8561615 On ch=1 n=25 v=100
8561624 On ch=1 n=38 v=100
8561670 Off ch=1 n=25 v=0
8561718 Off ch=1 n=38 v=0
8646238 On ch=1 n=18 v=100
8646585 Off ch=1 n=18 v=0
8653654 On ch=1 n=27 v=100
8653834 Off ch=1 n=27 v=0
8684732 On ch=1 n=16 v=100
8684954 Off ch=1 n=16 v=0
8706694 On ch=1 n=25 v=100
8707031 Off ch=1 n=25 v=0
8707083 On ch=1 n=19 v=100
8707139 Off ch=1 n=19 v=0
8729704 On ch=1 n=21 v=100
8729760 Off ch=1 n=21 v=0
8758870 On ch=1 n=33 v=100
8759007 Off ch=1 n=33 v=0
8780332 On ch=1 n=5 v=100
8780742 Off ch=1 n=5 v=0
8783345 On ch=1 n=22 v=100
8783408 Off ch=1 n=22 v=0
8808012 On ch=1 n=49 v=100
8808180 Off ch=1 n=49 v=0
8809466 On ch=1 n=23 v=100
8809746 Off ch=1 n=23 v=0
8833378 On ch=1 n=33 v=100
8833711 Off ch=1 n=33 v=0
8845331 On ch=1 n=5 v=100
8845528 Off ch=1 n=5 v=0
8858261 On ch=1 n=4 v=100
8859886 Off ch=1 n=4 v=0
8859931 On ch=1 n=4 v=100
8859946 Off ch=1 n=4 v=0
8900955 On ch=1 n=12 v=100
8901170 Off ch=1 n=12 v=0
8930771 On ch=1 n=14 v=100
8931042 Off ch=1 n=14 v=0
8931238 On ch=1 n=17 v=100
8931343 Off ch=1 n=17 v=0
8933844 On ch=1 n=2 v=100
8933892 Off ch=1 n=2 v=0
8955038 On ch=1 n=2 v=100
8955091 Off ch=1 n=2 v=0
8957525 On ch=1 n=16 v=100
8957709 Off ch=1 n=16 v=0
8957775 On ch=1 n=16 v=100
8958269 Off ch=1 n=16 v=0
8965551 On ch=1 n=68 v=100
8965954 Off ch=1 n=68 v=0
9003476 On ch=1 n=15 v=100
9003659 Off ch=1 n=15 v=0
9038431 On ch=1 n=32 v=100
9038479 Off ch=1 n=32 v=0
9038544 On ch=1 n=46 v=100
9038661 Off ch=1 n=46 v=0
9068807 On ch=1 n=19 v=100
9068869 Off ch=1 n=19 v=0
9068901 On ch=1 n=19 v=100
9068914 Off ch=1 n=19 v=0
9072211 On ch=1 n=9 v=100
9072384 Off ch=1 n=9 v=0
9090353 On ch=1 n=12 v=100
9090579 Off ch=1 n=12 v=0
9118144 On ch=1 n=9 v=100
9118447 Off ch=1 n=9 v=0
9118710 On ch=1 n=9 v=100
9119157 Off ch=1 n=9 v=0
9123482 On ch=1 n=7 v=100
9123666 Off ch=1 n=7 v=0
9146883 On ch=1 n=10 v=100
9147030 Off ch=1 n=10 v=0
9150952 On ch=1 n=7 v=100
9151091 Off ch=1 n=7 v=0
9209691 On ch=1 n=9 v=100
9209747 On ch=1 n=12 v=100
9209748 Off ch=1 n=9 v=0
9210215 Off ch=1 n=12 v=0
9220606 On ch=1 n=14 v=100
9220748 Off ch=1 n=14 v=0
9221420 On ch=1 n=6 v=100
9221676 Off ch=1 n=6 v=0
9235515 On ch=1 n=27 v=100
9236145 Off ch=1 n=27 v=0
9246468 On ch=1 n=9 v=100
9247270 Off ch=1 n=9 v=0
9252759 On ch=1 n=24 v=100
9252852 Off ch=1 n=24 v=0
9276550 On ch=1 n=12 v=100
9276730 Off ch=1 n=12 v=0
9277673 On ch=1 n=3 v=100
9278264 Off ch=1 n=3 v=0
9286293 On ch=1 n=18 v=100
9286464 Off ch=1 n=18 v=0
9299936 On ch=1 n=7 v=100
9300091 Off ch=1 n=7 v=0
9300127 On ch=1 n=7 v=100
9300193 Off ch=1 n=7 v=0
9306017 On ch=1 n=11 v=100
9306213 Off ch=1 n=11 v=0
9306583 On ch=1 n=2 v=100
9308081 Off ch=1 n=2 v=0
9308083 On ch=1 n=1 v=100
9308227 On ch=1 n=23 v=100
9308274 Off ch=1 n=1 v=0
9308393 Off ch=1 n=23 v=0
9312383 On ch=1 n=32 v=100
9312555 Off ch=1 n=32 v=0
9321690 On ch=1 n=8 v=100
9322052 Off ch=1 n=8 v=0
9326464 On ch=1 n=35 v=100
9326745 Off ch=1 n=35 v=0
9337449 On ch=1 n=11 v=100
9337510 Off ch=1 n=11 v=0
9337587 On ch=1 n=11 v=100
9337619 Off ch=1 n=11 v=0
9345407 On ch=1 n=50 v=100
9345427 On ch=1 n=55 v=100
9345443 On ch=1 n=44 v=100
9345542 Off ch=1 n=50 v=0
9345542 Off ch=1 n=44 v=0
9345676 Off ch=1 n=55 v=0
9346525 On ch=1 n=37 v=100
9346540 On ch=1 n=35 v=100
9346622 Off ch=1 n=37 v=0
9346628 Off ch=1 n=35 v=0
9355712 On ch=1 n=3 v=100
9355904 Off ch=1 n=3 v=0
9381399 On ch=1 n=10 v=100
9381536 Off ch=1 n=10 v=0
9394880 On ch=1 n=17 v=100
9395081 Off ch=1 n=17 v=0
9398071 On ch=1 n=9 v=100
9398331 Off ch=1 n=9 v=0
9401816 On ch=1 n=17 v=100
9402383 Off ch=1 n=17 v=0
9421128 On ch=1 n=5 v=100
9421237 Off ch=1 n=5 v=0
9421392 On ch=1 n=16 v=100
9421444 Off ch=1 n=16 v=0
9443758 On ch=1 n=9 v=100
9443866 Off ch=1 n=9 v=0
9444440 On ch=1 n=5 v=100
9444513 Off ch=1 n=5 v=0
9445574 On ch=1 n=9 v=100
9445608 Off ch=1 n=9 v=0
9459063 On ch=1 n=7 v=100
9459571 Off ch=1 n=7 v=0
9460131 On ch=1 n=29 v=100
9461213 Off ch=1 n=29 v=0
9464466 On ch=1 n=30 v=100
9464977 Off ch=1 n=30 v=0
9475096 On ch=1 n=39 v=100
9475225 On ch=1 n=51 v=100
9475239 Off ch=1 n=39 v=0
9475250 On ch=1 n=37 v=100
9475352 Off ch=1 n=37 v=0
9475356 Off ch=1 n=51 v=0
9481198 On ch=1 n=55 v=100
9481331 Off ch=1 n=55 v=0
9481789 On ch=1 n=42 v=100
9481888 Off ch=1 n=42 v=0
9488468 On ch=1 n=12 v=100
9488779 On ch=1 n=50 v=100
9488908 Off ch=1 n=12 v=0
9488924 Off ch=1 n=50 v=0
9489360 On ch=1 n=13 v=100
9489600 Off ch=1 n=13 v=0
9517454 On ch=1 n=3 v=100
9522429 Off ch=1 n=3 v=0
9523470 On ch=1 n=9 v=100
9523744 Off ch=1 n=9 v=0
9531916 On ch=1 n=7 v=100
9532462 Off ch=1 n=7 v=0
9591498 On ch=1 n=26 v=100
9591592 Off ch=1 n=26 v=0
9619783 On ch=1 n=12 v=100
9619921 Off ch=1 n=12 v=0
9620492 On ch=1 n=34 v=100
9620605 Off ch=1 n=34 v=0
9650156 On ch=1 n=4 v=100
9650591 Off ch=1 n=4 v=0
9670236 On ch=1 n=19 v=100
9670588 On ch=1 n=19 v=100
9670589 Off ch=1 n=19 v=0
9672254 Off ch=1 n=19 v=0
9679330 On ch=1 n=7 v=100
9680592 On ch=1 n=7 v=100
9680594 Off ch=1 n=7 v=0
9680675 Off ch=1 n=7 v=0
9718759 On ch=1 n=14 v=100
9718801 Off ch=1 n=14 v=0
9718828 On ch=1 n=14 v=100
9719195 Off ch=1 n=14 v=0
9730742 On ch=1 n=13 v=100
9730809 Off ch=1 n=13 v=0
9789121 On ch=1 n=6 v=100
9789257 Off ch=1 n=6 v=0
9789345 On ch=1 n=6 v=100
9790310 Off ch=1 n=6 v=0
9798861 On ch=1 n=9 v=100
9799239 Off ch=1 n=9 v=0
9860955 On ch=1 n=7 v=100
9861247 Off ch=1 n=7 v=0
9875176 On ch=1 n=17 v=100
9875231 Off ch=1 n=17 v=0
9877743 On ch=1 n=32 v=100
9878049 Off ch=1 n=32 v=0
9915471 On ch=1 n=27 v=100
9915531 Off ch=1 n=27 v=0
9926915 On ch=1 n=9 v=100
9927318 On ch=1 n=57 v=100
9927884 Off ch=1 n=9 v=0
9927956 Off ch=1 n=57 v=0
9940682 On ch=1 n=5 v=100
9940901 Off ch=1 n=5 v=0
9975733 On ch=1 n=7 v=100
9975825 Off ch=1 n=7 v=0
10027204 On ch=1 n=10 v=100
10027562 Off ch=1 n=10 v=0
10027565 On ch=1 n=11 v=100
10027681 Off ch=1 n=11 v=0
10034376 On ch=1 n=13 v=100
10034462 Off ch=1 n=13 v=0
10034474 On ch=1 n=11 v=100
10034864 Off ch=1 n=11 v=0
10046225 On ch=1 n=55 v=100
10046387 Off ch=1 n=55 v=0
10060762 On ch=1 n=10 v=100
10060940 Off ch=1 n=10 v=0
10079092 On ch=1 n=43 v=100
10079218 Off ch=1 n=43 v=0
10102951 On ch=1 n=10 v=100
10103365 Off ch=1 n=10 v=0
10129281 On ch=1 n=12 v=100
10129433 Off ch=1 n=12 v=0
10133611 On ch=1 n=17 v=100
10133668 Off ch=1 n=17 v=0
10134750 On ch=1 n=17 v=100
10134922 Off ch=1 n=17 v=0
10216821 On ch=1 n=4 v=100
10217041 On ch=1 n=12 v=100
10217043 Off ch=1 n=4 v=0
10217268 Off ch=1 n=12 v=0
10233941 On ch=1 n=16 v=100
10233941 On ch=1 n=16 v=100
10233994 On ch=1 n=20 v=100
10233994 On ch=1 n=20 v=100
10234022 On ch=1 n=20 v=100
10234022 On ch=1 n=20 v=100
10234114 Off ch=1 n=16 v=0
10234114 Off ch=1 n=16 v=0
10234162 On ch=1 n=19 v=100
10234162 On ch=1 n=19 v=100
10234215 Off ch=1 n=20 v=0
10234215 Off ch=1 n=20 v=0
10234276 Off ch=1 n=20 v=0
10234276 Off ch=1 n=20 v=0
10234411 Off ch=1 n=19 v=0
10234411 Off ch=1 n=19 v=0
10234471 On ch=1 n=14 v=100
10234503 On ch=1 n=15 v=100
10234665 Off ch=1 n=14 v=0
10234733 Off ch=1 n=15 v=0
10242306 On ch=1 n=21 v=100
10242450 Off ch=1 n=21 v=0
10251896 On ch=1 n=2 v=100
10251977 Off ch=1 n=2 v=0
10272232 On ch=1 n=10 v=100
10272629 Off ch=1 n=10 v=0
10277683 On ch=1 n=19 v=100
10278133 Off ch=1 n=19 v=0
10288551 On ch=1 n=44 v=100
10288556 On ch=1 n=63 v=100
10288562 On ch=1 n=56 v=100
10288989 Off ch=1 n=44 v=0
10289060 Off ch=1 n=63 v=0
10289072 Off ch=1 n=56 v=0
10289160 On ch=1 n=56 v=100
10289283 Off ch=1 n=56 v=0
10340862 On ch=1 n=27 v=100
10341070 Off ch=1 n=27 v=0
10356845 On ch=1 n=61 v=100
10356901 On ch=1 n=48 v=100
10357081 Off ch=1 n=48 v=0
10357099 Off ch=1 n=61 v=0
10403717 On ch=1 n=30 v=100
10403784 Off ch=1 n=30 v=0
10445715 On ch=1 n=27 v=100
10445885 Off ch=1 n=27 v=0
10451860 On ch=1 n=42 v=100
10451951 Off ch=1 n=42 v=0
10472578 On ch=1 n=5 v=100
10472750 Off ch=1 n=5 v=0
10494869 On ch=1 n=32 v=100
10494951 Off ch=1 n=32 v=0
10494994 On ch=1 n=17 v=100
10495107 Off ch=1 n=17 v=0
10496167 On ch=1 n=6 v=100
10496256 On ch=1 n=55 v=100
10496610 On ch=1 n=9 v=100
10496612 Off ch=1 n=6 v=0
10496789 Off ch=1 n=55 v=0
10497109 Off ch=1 n=9 v=0
10511964 On ch=1 n=9 v=100
10512868 Off ch=1 n=9 v=0
10513003 On ch=1 n=26 v=100
10513080 Off ch=1 n=26 v=0
10515123 On ch=1 n=35 v=100
10515145 Off ch=1 n=35 v=0
10515262 On ch=1 n=35 v=100
10515428 Off ch=1 n=35 v=0
10540395 On ch=1 n=20 v=100
10540483 Off ch=1 n=20 v=0
10546700 On ch=1 n=15 v=100
10546825 Off ch=1 n=15 v=0
10552642 On ch=1 n=7 v=100
10552913 Off ch=1 n=7 v=0
10553236 On ch=1 n=4 v=100
10553698 Off ch=1 n=4 v=0
10567665 On ch=1 n=33 v=100
10567764 Off ch=1 n=33 v=0
TrkEnd    
MTrk    
0 PrCh ch=2 p=40 
0 Meta TrkName "SINE" 
39715 On ch=2 n=15 v=100
39772 Off ch=2 n=15 v=0
154182 On ch=2 n=3 v=100
154533 Off ch=2 n=3 v=0
156793 On ch=2 n=8 v=100
156978 Off ch=2 n=8 v=0
170746 On ch=2 n=8 v=100
171228 Off ch=2 n=8 v=0
200103 On ch=2 n=13 v=100
200226 Off ch=2 n=13 v=0
201203 On ch=2 n=20 v=100
201446 Off ch=2 n=20 v=0
201741 On ch=2 n=22 v=100
202050 Off ch=2 n=22 v=0
212897 On ch=2 n=34 v=100
212982 Off ch=2 n=34 v=0
213000 On ch=2 n=27 v=100
213147 Off ch=2 n=27 v=0
252213 On ch=2 n=19 v=100
252536 Off ch=2 n=19 v=0
260215 On ch=2 n=20 v=100
260494 Off ch=2 n=20 v=0
327496 On ch=2 n=23 v=100
327576 Off ch=2 n=23 v=0
327655 On ch=2 n=8 v=100
327851 Off ch=2 n=8 v=0
336783 On ch=2 n=25 v=100
336847 Off ch=2 n=25 v=0
350623 On ch=2 n=34 v=100
350718 Off ch=2 n=34 v=0
362825 On ch=2 n=25 v=100
363007 Off ch=2 n=25 v=0
369900 On ch=2 n=32 v=100
370055 Off ch=2 n=32 v=0
378127 On ch=2 n=21 v=100
378179 Off ch=2 n=21 v=0
388269 On ch=2 n=23 v=100
388308 Off ch=2 n=23 v=0
389757 On ch=2 n=36 v=100
389838 Off ch=2 n=36 v=0
389898 On ch=2 n=36 v=100
389907 Off ch=2 n=36 v=0
420088 On ch=2 n=22 v=100
420265 Off ch=2 n=22 v=0
425219 On ch=2 n=12 v=100
425443 Off ch=2 n=12 v=0
429255 On ch=2 n=16 v=100
429595 Off ch=2 n=16 v=0
443074 On ch=2 n=12 v=100
443246 Off ch=2 n=12 v=0
516231 On ch=2 n=19 v=100
516414 Off ch=2 n=19 v=0
567903 On ch=2 n=19 v=100
568129 Off ch=2 n=19 v=0
610646 On ch=2 n=22 v=100
610713 Off ch=2 n=22 v=0
645917 On ch=2 n=12 v=100
646461 Off ch=2 n=12 v=0
752008 On ch=2 n=10 v=100
752253 Off ch=2 n=10 v=0
808792 On ch=2 n=32 v=100
809016 Off ch=2 n=32 v=0
1063192 On ch=2 n=15 v=100
1063258 Off ch=2 n=15 v=0
1144550 On ch=2 n=44 v=100
1144646 Off ch=2 n=44 v=0
1153475 On ch=2 n=9 v=100
1154035 Off ch=2 n=9 v=0
1213537 On ch=2 n=14 v=100
1213703 Off ch=2 n=14 v=0
1213979 On ch=2 n=13 v=100
1214324 Off ch=2 n=13 v=0
1242922 On ch=2 n=8 v=100
1243117 Off ch=2 n=8 v=0
1296489 On ch=2 n=29 v=100
1296506 On ch=2 n=16 v=100
1296568 Off ch=2 n=29 v=0
1296569 Off ch=2 n=16 v=0
1307596 On ch=2 n=26 v=100
1307653 Off ch=2 n=26 v=0
1350128 On ch=2 n=17 v=100
1350177 Off ch=2 n=17 v=0
1350207 On ch=2 n=17 v=100
1350383 Off ch=2 n=17 v=0
1360584 On ch=2 n=19 v=100
1360618 Off ch=2 n=19 v=0
1361986 On ch=2 n=20 v=100
1362024 Off ch=2 n=20 v=0
1364001 On ch=2 n=13 v=100
1364305 Off ch=2 n=13 v=0
1386298 On ch=2 n=8 v=100
1386385 Off ch=2 n=8 v=0
1455417 On ch=2 n=13 v=100
1455472 Off ch=2 n=13 v=0
1455480 On ch=2 n=10 v=100
1455786 Off ch=2 n=10 v=0
1478431 On ch=2 n=24 v=100
1478661 Off ch=2 n=24 v=0
1492795 On ch=2 n=0 v=100
1492988 Off ch=2 n=0 v=0
1533511 On ch=2 n=18 v=100
1533748 Off ch=2 n=18 v=0
1562691 On ch=2 n=10 v=100
1562730 Off ch=2 n=10 v=0
1575229 On ch=2 n=18 v=100
1575322 Off ch=2 n=18 v=0
1583205 On ch=2 n=20 v=100
1583293 Off ch=2 n=20 v=0
1584457 On ch=2 n=16 v=100
1584564 Off ch=2 n=16 v=0
1603144 On ch=2 n=13 v=100
1603300 Off ch=2 n=13 v=0
1605714 On ch=2 n=16 v=100
1606053 Off ch=2 n=16 v=0
1640630 On ch=2 n=14 v=100
1640763 Off ch=2 n=14 v=0
1645188 On ch=2 n=10 v=100
1645376 Off ch=2 n=10 v=0
1686054 On ch=2 n=20 v=100
1686114 Off ch=2 n=20 v=0
1690927 On ch=2 n=12 v=100
1691259 Off ch=2 n=12 v=0
1719554 On ch=2 n=11 v=100
1719649 Off ch=2 n=11 v=0
1782675 On ch=2 n=6 v=100
1782782 Off ch=2 n=6 v=0
1801771 On ch=2 n=9 v=100
1801973 Off ch=2 n=9 v=0
1816944 On ch=2 n=32 v=100
1817061 Off ch=2 n=32 v=0
1878427 On ch=2 n=17 v=100
1878525 On ch=2 n=12 v=100
1878527 Off ch=2 n=17 v=0
1878825 Off ch=2 n=12 v=0
1886475 On ch=2 n=23 v=100
1886508 Off ch=2 n=23 v=0
1937673 On ch=2 n=21 v=100
1937747 Off ch=2 n=21 v=0
1947246 On ch=2 n=12 v=100
1947299 Off ch=2 n=12 v=0
1993266 On ch=2 n=6 v=100
1993348 Off ch=2 n=6 v=0
2041015 On ch=2 n=6 v=100
2041562 Off ch=2 n=6 v=0
2061100 On ch=2 n=20 v=100
2061230 Off ch=2 n=20 v=0
2061265 On ch=2 n=20 v=100
2061400 Off ch=2 n=20 v=0
2061410 On ch=2 n=8 v=100
2061517 Off ch=2 n=8 v=0
2084876 On ch=2 n=31 v=100
2084929 Off ch=2 n=31 v=0
2084933 On ch=2 n=26 v=100
2085078 Off ch=2 n=26 v=0
2103015 On ch=2 n=13 v=100
2103190 Off ch=2 n=13 v=0
2219105 On ch=2 n=19 v=100
2219111 On ch=2 n=21 v=100
2219146 Off ch=2 n=19 v=0
2219153 Off ch=2 n=21 v=0
2220839 On ch=2 n=12 v=100
2220960 Off ch=2 n=12 v=0
2225974 On ch=2 n=6 v=100
2226427 Off ch=2 n=6 v=0
2235084 On ch=2 n=18 v=100
2235462 Off ch=2 n=18 v=0
2236152 On ch=2 n=19 v=100
2236425 Off ch=2 n=19 v=0
2256454 On ch=2 n=5 v=100
2256597 Off ch=2 n=5 v=0
2258358 On ch=2 n=11 v=100
2258547 Off ch=2 n=11 v=0
2260545 On ch=2 n=9 v=100
2260751 Off ch=2 n=9 v=0
2390522 On ch=2 n=7 v=100
2390782 Off ch=2 n=7 v=0
2418848 On ch=2 n=19 v=100
2419125 Off ch=2 n=19 v=0
2515306 On ch=2 n=3 v=100
2515334 Off ch=2 n=3 v=0
2532533 On ch=2 n=5 v=100
2532648 Off ch=2 n=5 v=0
2534035 On ch=2 n=9 v=100
2534345 Off ch=2 n=9 v=0
2535488 On ch=2 n=12 v=100
2535907 Off ch=2 n=12 v=0
2547603 On ch=2 n=32 v=100
2547670 Off ch=2 n=32 v=0
2548894 On ch=2 n=11 v=100
2549204 Off ch=2 n=11 v=0
2558192 On ch=2 n=21 v=100
2558481 Off ch=2 n=21 v=0
2649427 On ch=2 n=20 v=100
2649572 Off ch=2 n=20 v=0
2654769 On ch=2 n=18 v=100
2654924 Off ch=2 n=18 v=0
2694391 On ch=2 n=11 v=100
2694446 Off ch=2 n=11 v=0
2699465 On ch=2 n=13 v=100
2699814 Off ch=2 n=13 v=0
2737183 On ch=2 n=3 v=100
2737211 Off ch=2 n=3 v=0
2778291 On ch=2 n=9 v=100
2778348 Off ch=2 n=9 v=0
2792833 On ch=2 n=21 v=100
2793217 Off ch=2 n=21 v=0
2841839 On ch=2 n=14 v=100
2842000 Off ch=2 n=14 v=0
2842408 On ch=2 n=13 v=100
2842937 Off ch=2 n=13 v=0
2842997 On ch=2 n=22 v=100
2843140 On ch=2 n=24 v=100
2843295 Off ch=2 n=22 v=0
2843315 Off ch=2 n=24 v=0
2843916 On ch=2 n=19 v=100
2843987 Off ch=2 n=19 v=0
2872168 On ch=2 n=6 v=100
2872730 Off ch=2 n=6 v=0
2913491 On ch=2 n=14 v=100
2913552 Off ch=2 n=14 v=0
3022729 On ch=2 n=7 v=100
3022924 Off ch=2 n=7 v=0
3032112 On ch=2 n=7 v=100
3032663 Off ch=2 n=7 v=0
3069898 On ch=2 n=12 v=100
3070254 Off ch=2 n=12 v=0
3090087 On ch=2 n=14 v=100
3090140 Off ch=2 n=14 v=0
3132332 On ch=2 n=21 v=100
3132492 Off ch=2 n=21 v=0
3176929 On ch=2 n=4 v=100
3176995 Off ch=2 n=4 v=0
3186861 On ch=2 n=14 v=100
3187015 Off ch=2 n=14 v=0
3190468 On ch=2 n=19 v=100
3190603 Off ch=2 n=19 v=0
3201027 On ch=2 n=25 v=100
3201072 Off ch=2 n=25 v=0
3225341 On ch=2 n=25 v=100
3225381 Off ch=2 n=25 v=0
3254357 On ch=2 n=6 v=100
3254478 Off ch=2 n=6 v=0
3254703 On ch=2 n=5 v=100
3255182 Off ch=2 n=5 v=0
3405687 On ch=2 n=14 v=100
3406019 Off ch=2 n=14 v=0
3481446 On ch=2 n=25 v=100
3481515 Off ch=2 n=25 v=0
3560968 On ch=2 n=16 v=100
3561131 Off ch=2 n=16 v=0
3570771 On ch=2 n=10 v=100
3571346 Off ch=2 n=10 v=0
3576750 On ch=2 n=7 v=100
3576833 Off ch=2 n=7 v=0
3578195 On ch=2 n=3 v=100
3578195 On ch=2 n=3 v=100
3578298 Off ch=2 n=3 v=0
3578298 Off ch=2 n=3 v=0
3578304 On ch=2 n=9 v=100
3578304 On ch=2 n=9 v=100
3578567 Off ch=2 n=9 v=0
3578567 Off ch=2 n=9 v=0
3579114 On ch=2 n=9 v=100
3579226 Off ch=2 n=9 v=0
3598011 On ch=2 n=27 v=100
3598028 On ch=2 n=23 v=100
3598164 Off ch=2 n=23 v=0
3598177 Off ch=2 n=27 v=0
3600324 On ch=2 n=19 v=100
3600515 Off ch=2 n=19 v=0
3602254 On ch=2 n=18 v=100
3602485 Off ch=2 n=18 v=0
3623776 On ch=2 n=16 v=100
3624018 Off ch=2 n=16 v=0
3625376 On ch=2 n=6 v=100
3625451 Off ch=2 n=6 v=0
3694170 On ch=2 n=11 v=100
3694623 Off ch=2 n=11 v=0
3696278 On ch=2 n=12 v=100
3696415 Off ch=2 n=12 v=0
3772952 On ch=2 n=27 v=100
3773007 Off ch=2 n=27 v=0
3834611 On ch=2 n=15 v=100
3834965 Off ch=2 n=15 v=0
3890224 On ch=2 n=50 v=100
3890297 Off ch=2 n=50 v=0
3897644 On ch=2 n=10 v=100
3897683 Off ch=2 n=10 v=0
3920703 On ch=2 n=12 v=100
3921270 Off ch=2 n=12 v=0
3928071 On ch=2 n=15 v=100
3928331 Off ch=2 n=15 v=0
3953283 On ch=2 n=12 v=100
3953393 Off ch=2 n=12 v=0
3965707 On ch=2 n=5 v=100
3965922 Off ch=2 n=5 v=0
4047898 On ch=2 n=6 v=100
4048467 Off ch=2 n=6 v=0
4065773 On ch=2 n=12 v=100
4065972 Off ch=2 n=12 v=0
4113442 On ch=2 n=12 v=100
4113457 Off ch=2 n=12 v=0
4113487 On ch=2 n=12 v=100
4113487 On ch=2 n=12 v=100
4113637 On ch=2 n=12 v=100
4113637 On ch=2 n=12 v=100
4113643 Off ch=2 n=12 v=0
4113643 Off ch=2 n=12 v=0
4113911 Off ch=2 n=12 v=0
4113911 Off ch=2 n=12 v=0
4114106 On ch=2 n=13 v=100
4114172 Off ch=2 n=13 v=0
4129246 On ch=2 n=30 v=100
4129299 On ch=2 n=22 v=100
4129331 Off ch=2 n=30 v=0
4129412 Off ch=2 n=22 v=0
4144201 On ch=2 n=17 v=100
4144390 Off ch=2 n=17 v=0
4144396 On ch=2 n=13 v=100
4144645 Off ch=2 n=13 v=0
4176041 On ch=2 n=13 v=100
4176432 Off ch=2 n=13 v=0
4337585 On ch=2 n=29 v=100
4337658 Off ch=2 n=29 v=0
4444849 On ch=2 n=32 v=100
4444923 Off ch=2 n=32 v=0
4601792 On ch=2 n=22 v=100
4601852 Off ch=2 n=22 v=0
4780450 On ch=2 n=2 v=100
4780679 Off ch=2 n=2 v=0
4802807 On ch=2 n=15 v=100
4802946 Off ch=2 n=15 v=0
4838341 On ch=2 n=4 v=100
4838920 Off ch=2 n=4 v=0
4865458 On ch=2 n=2 v=100
4866042 Off ch=2 n=2 v=0
4884162 On ch=2 n=14 v=100
4884351 Off ch=2 n=14 v=0
4962840 On ch=2 n=13 v=100
4963042 Off ch=2 n=13 v=0
5002192 On ch=2 n=25 v=100
5002384 Off ch=2 n=25 v=0
5006580 On ch=2 n=14 v=100
5006823 Off ch=2 n=14 v=0
5008368 On ch=2 n=17 v=100
5008619 Off ch=2 n=17 v=0
5009685 On ch=2 n=9 v=100
5009939 Off ch=2 n=9 v=0
5011377 On ch=2 n=7 v=100
5011450 Off ch=2 n=7 v=0
5041577 On ch=2 n=28 v=100
5041841 Off ch=2 n=28 v=0
5053430 On ch=2 n=21 v=100
5053505 Off ch=2 n=21 v=0
5054518 On ch=2 n=29 v=100
5054561 Off ch=2 n=29 v=0
5058635 On ch=2 n=7 v=100
5058783 Off ch=2 n=7 v=0
5058874 On ch=2 n=7 v=100
5059047 Off ch=2 n=7 v=0
5064129 On ch=2 n=15 v=100
5064311 Off ch=2 n=15 v=0
5064698 On ch=2 n=8 v=100
5065039 Off ch=2 n=8 v=0
5065053 On ch=2 n=16 v=100
5065183 Off ch=2 n=16 v=0
5090863 On ch=2 n=12 v=100
5091214 On ch=2 n=2 v=100
5091215 Off ch=2 n=12 v=0
5091265 Off ch=2 n=2 v=0
5107604 On ch=2 n=5 v=100
5108037 Off ch=2 n=5 v=0
5136153 On ch=2 n=10 v=100
5136343 Off ch=2 n=10 v=0
5136493 On ch=2 n=6 v=100
5136616 On ch=2 n=10 v=100
5136620 Off ch=2 n=6 v=0
5136669 Off ch=2 n=10 v=0
5195560 On ch=2 n=34 v=100
5195683 Off ch=2 n=34 v=0
5195834 On ch=2 n=10 v=100
5196347 Off ch=2 n=10 v=0
5201193 On ch=2 n=9 v=100
5201306 Off ch=2 n=9 v=0
5207241 On ch=2 n=19 v=100
5207589 Off ch=2 n=19 v=0
5248844 On ch=2 n=8 v=100
5249209 Off ch=2 n=8 v=0
5358625 On ch=2 n=28 v=100
5358703 Off ch=2 n=28 v=0
5368004 On ch=2 n=8 v=100
5368031 Off ch=2 n=8 v=0
5420764 On ch=2 n=10 v=100
5420910 Off ch=2 n=10 v=0
5422047 On ch=2 n=13 v=100
5422401 Off ch=2 n=13 v=0
5438732 On ch=2 n=26 v=100
5438824 Off ch=2 n=26 v=0
5469240 On ch=2 n=6 v=100
5469463 Off ch=2 n=6 v=0
5469805 On ch=2 n=14 v=100
5469962 Off ch=2 n=14 v=0
5470136 On ch=2 n=6 v=100
5470214 Off ch=2 n=6 v=0
5511503 On ch=2 n=26 v=100
5511623 Off ch=2 n=26 v=0
5555557 On ch=2 n=2 v=100
5556131 Off ch=2 n=2 v=0
5572136 On ch=2 n=20 v=100
5572264 Off ch=2 n=20 v=0
5669104 On ch=2 n=24 v=100
5669198 Off ch=2 n=24 v=0
5688477 On ch=2 n=20 v=100
5688671 Off ch=2 n=20 v=0
5705700 On ch=2 n=9 v=100
5706046 Off ch=2 n=9 v=0
5709747 On ch=2 n=23 v=100
5709903 Off ch=2 n=23 v=0
5723952 On ch=2 n=36 v=100
5724192 Off ch=2 n=36 v=0
5739770 On ch=2 n=33 v=100
5739834 Off ch=2 n=33 v=0
5750300 On ch=2 n=24 v=100
5750373 Off ch=2 n=24 v=0
5795394 On ch=2 n=32 v=100
5795487 Off ch=2 n=32 v=0
5814930 On ch=2 n=25 v=100
5814993 Off ch=2 n=25 v=0
5835110 On ch=2 n=41 v=100
5835209 Off ch=2 n=41 v=0
5933993 On ch=2 n=31 v=100
5934236 Off ch=2 n=31 v=0
6013905 On ch=2 n=24 v=100
6013942 Off ch=2 n=24 v=0
6100424 On ch=2 n=9 v=100
6100597 Off ch=2 n=9 v=0
6100616 On ch=2 n=10 v=100
6101147 Off ch=2 n=10 v=0
6131397 On ch=2 n=3 v=100
6131984 Off ch=2 n=3 v=0
6143611 On ch=2 n=18 v=100
6143888 Off ch=2 n=18 v=0
6151553 On ch=2 n=13 v=100
6151564 On ch=2 n=10 v=100
6151627 Off ch=2 n=13 v=0
6151628 Off ch=2 n=10 v=0
6161434 On ch=2 n=12 v=100
6161947 Off ch=2 n=12 v=0
6206548 On ch=2 n=26 v=100
6206666 Off ch=2 n=26 v=0
6208887 On ch=2 n=25 v=100
6209022 Off ch=2 n=25 v=0
6269988 On ch=2 n=36 v=100
6270056 Off ch=2 n=36 v=0
6278745 On ch=2 n=10 v=100
6278862 Off ch=2 n=10 v=0
6279977 On ch=2 n=28 v=100
6280040 Off ch=2 n=28 v=0
6310535 On ch=2 n=24 v=100
6310750 Off ch=2 n=24 v=0
6320798 On ch=2 n=35 v=100
6320877 Off ch=2 n=35 v=0
6335549 On ch=2 n=7 v=100
6335965 Off ch=2 n=7 v=0
6356717 On ch=2 n=20 v=100
6356862 Off ch=2 n=20 v=0
6373078 On ch=2 n=25 v=100
6373230 Off ch=2 n=25 v=0
6381850 On ch=2 n=20 v=100
6382035 Off ch=2 n=20 v=0
6410257 On ch=2 n=9 v=100
6410758 Off ch=2 n=9 v=0
6443045 On ch=2 n=26 v=100
6443094 Off ch=2 n=26 v=0
6443100 On ch=2 n=4 v=100
6443653 Off ch=2 n=4 v=0
6443658 On ch=2 n=11 v=100
6443816 Off ch=2 n=11 v=0
6445430 On ch=2 n=6 v=100
6445785 Off ch=2 n=6 v=0
6445796 On ch=2 n=9 v=100
6445939 Off ch=2 n=9 v=0
6490472 On ch=2 n=9 v=100
6491037 Off ch=2 n=9 v=0
6560813 On ch=2 n=12 v=100
6560872 Off ch=2 n=12 v=0
6563574 On ch=2 n=21 v=100
6563655 Off ch=2 n=21 v=0
6672706 On ch=2 n=15 v=100
6673060 Off ch=2 n=15 v=0
6706775 On ch=2 n=11 v=100
6706819 Off ch=2 n=11 v=0
6713230 On ch=2 n=27 v=100
6713318 Off ch=2 n=27 v=0
6714818 On ch=2 n=25 v=100
6714900 Off ch=2 n=25 v=0
6714922 On ch=2 n=30 v=100
6715001 Off ch=2 n=30 v=0
6732746 On ch=2 n=27 v=100
6732872 Off ch=2 n=27 v=0
6745894 On ch=2 n=13 v=100
6746020 Off ch=2 n=13 v=0
6747052 On ch=2 n=25 v=100
6747169 Off ch=2 n=25 v=0
6750756 On ch=2 n=27 v=100
6750777 Off ch=2 n=27 v=0
6753009 On ch=2 n=19 v=100
6753145 Off ch=2 n=19 v=0
6768778 On ch=2 n=13 v=100
6769150 Off ch=2 n=13 v=0
6821088 On ch=2 n=21 v=100
6821242 Off ch=2 n=21 v=0
6882585 On ch=2 n=19 v=100
6882656 Off ch=2 n=19 v=0
6885445 On ch=2 n=16 v=100
6885811 Off ch=2 n=16 v=0
6905289 On ch=2 n=7 v=100
6905463 Off ch=2 n=7 v=0
6905788 On ch=2 n=9 v=100
6906137 Off ch=2 n=9 v=0
6963417 On ch=2 n=14 v=100
6963506 Off ch=2 n=14 v=0
6973912 On ch=2 n=31 v=100
6973968 Off ch=2 n=31 v=0
7077432 On ch=2 n=36 v=100
7077555 Off ch=2 n=36 v=0
7085444 On ch=2 n=8 v=100
7085566 Off ch=2 n=8 v=0
7085664 On ch=2 n=8 v=100
7085675 Off ch=2 n=8 v=0
7117978 On ch=2 n=11 v=100
7118365 Off ch=2 n=11 v=0
7120588 On ch=2 n=11 v=100
7120755 Off ch=2 n=11 v=0
7145317 On ch=2 n=36 v=100
7145364 On ch=2 n=25 v=100
7145443 Off ch=2 n=36 v=0
7145468 Off ch=2 n=25 v=0
7151161 On ch=2 n=19 v=100
7151387 Off ch=2 n=19 v=0
7154518 On ch=2 n=39 v=100
7154522 On ch=2 n=30 v=100
7154642 Off ch=2 n=30 v=0
7154655 Off ch=2 n=39 v=0
7229217 On ch=2 n=17 v=100
7229451 Off ch=2 n=17 v=0
7240917 On ch=2 n=15 v=100
7241179 Off ch=2 n=15 v=0
7241234 On ch=2 n=15 v=100
7241534 Off ch=2 n=15 v=0
7402298 On ch=2 n=10 v=100
7402657 Off ch=2 n=10 v=0
7423416 On ch=2 n=15 v=100
7423481 Off ch=2 n=15 v=0
7425974 On ch=2 n=25 v=100
7426234 Off ch=2 n=25 v=0
7501427 On ch=2 n=9 v=100
7501590 Off ch=2 n=9 v=0
7501763 On ch=2 n=11 v=100
7502222 Off ch=2 n=11 v=0
7515886 On ch=2 n=19 v=100
7516020 Off ch=2 n=19 v=0
7615206 On ch=2 n=36 v=100
7615342 Off ch=2 n=36 v=0
7636885 On ch=2 n=10 v=100
7637079 Off ch=2 n=10 v=0
7652173 On ch=2 n=20 v=100
7652261 Off ch=2 n=20 v=0
7664270 On ch=2 n=7 v=100
7664336 Off ch=2 n=7 v=0
7664347 On ch=2 n=12 v=100
7664622 Off ch=2 n=12 v=0
7695562 On ch=2 n=7 v=100
7695606 Off ch=2 n=7 v=0
7698465 On ch=2 n=4 v=100
7698509 Off ch=2 n=4 v=0
7730924 On ch=2 n=9 v=100
7731369 Off ch=2 n=9 v=0
7731989 On ch=2 n=6 v=100
7732178 Off ch=2 n=6 v=0
7740840 On ch=2 n=8 v=100
7740993 Off ch=2 n=8 v=0
7762375 On ch=2 n=10 v=100
7762405 Off ch=2 n=10 v=0
7846356 On ch=2 n=11 v=100
7846547 Off ch=2 n=11 v=0
7861742 On ch=2 n=5 v=100
7862249 Off ch=2 n=5 v=0
7890472 On ch=2 n=15 v=100
7890520 Off ch=2 n=15 v=0
7894866 On ch=2 n=31 v=100
7894999 Off ch=2 n=31 v=0
7926405 On ch=2 n=10 v=100
7926697 Off ch=2 n=10 v=0
7942451 On ch=2 n=18 v=100
7942835 Off ch=2 n=18 v=0
7997516 On ch=2 n=15 v=100
7997612 Off ch=2 n=15 v=0
8007387 On ch=2 n=7 v=100
8007557 Off ch=2 n=7 v=0
8008330 On ch=2 n=10 v=100
8008675 Off ch=2 n=10 v=0
8039981 On ch=2 n=25 v=100
8040045 Off ch=2 n=25 v=0
8084502 On ch=2 n=34 v=100
8084563 Off ch=2 n=34 v=0
8097789 On ch=2 n=7 v=100
8097980 Off ch=2 n=7 v=0
8136326 On ch=2 n=33 v=100
8136611 Off ch=2 n=33 v=0
8138011 On ch=2 n=38 v=100
8138161 Off ch=2 n=38 v=0
8159826 On ch=2 n=18 v=100
8160200 Off ch=2 n=18 v=0
8186953 On ch=2 n=27 v=100
8187103 Off ch=2 n=27 v=0
8196751 On ch=2 n=21 v=100
8196837 Off ch=2 n=21 v=0
8199510 On ch=2 n=7 v=100
8199583 Off ch=2 n=7 v=0
8200412 On ch=2 n=8 v=100
8200476 Off ch=2 n=8 v=0
8200482 On ch=2 n=12 v=100
8200661 Off ch=2 n=12 v=0
8206862 On ch=2 n=13 v=100
8207325 Off ch=2 n=13 v=0
8221692 On ch=2 n=14 v=100
8222056 Off ch=2 n=14 v=0
8435336 On ch=2 n=16 v=100
8435524 Off ch=2 n=16 v=0
8538045 On ch=2 n=17 v=100
8538399 Off ch=2 n=17 v=0
8547595 On ch=2 n=16 v=100
8547668 Off ch=2 n=16 v=0
8588213 On ch=2 n=14 v=100
8588291 Off ch=2 n=14 v=0
8605727 On ch=2 n=61 v=100
8605783 Off ch=2 n=61 v=0
8771059 On ch=2 n=32 v=100
8771186 Off ch=2 n=32 v=0
8773880 On ch=2 n=2 v=100
8774441 Off ch=2 n=2 v=0
8852521 On ch=2 n=4 v=100
8853069 Off ch=2 n=4 v=0
8854084 On ch=2 n=32 v=100
8854179 Off ch=2 n=32 v=0
8861775 On ch=2 n=8 v=100
8861864 Off ch=2 n=8 v=0
8871351 On ch=2 n=11 v=100
8871469 Off ch=2 n=11 v=0
8923403 On ch=2 n=20 v=100
8923408 On ch=2 n=40 v=100
8923494 Off ch=2 n=20 v=0
8923510 Off ch=2 n=40 v=0
8926564 On ch=2 n=34 v=100
8926574 On ch=2 n=27 v=100
8926620 Off ch=2 n=34 v=0
8926621 Off ch=2 n=27 v=0
8929200 On ch=2 n=19 v=100
8929504 Off ch=2 n=19 v=0
8944467 On ch=2 n=29 v=100
8944568 Off ch=2 n=29 v=0
8954686 On ch=2 n=29 v=100
8954847 Off ch=2 n=29 v=0
9003004 On ch=2 n=14 v=100
9003350 Off ch=2 n=14 v=0
9005386 On ch=2 n=16 v=100
9005426 Off ch=2 n=16 v=0
9009598 On ch=2 n=17 v=100
9009607 On ch=2 n=14 v=100
9009666 Off ch=2 n=14 v=0
9009670 Off ch=2 n=17 v=0
9068291 On ch=2 n=6 v=100
9068869 Off ch=2 n=6 v=0
9092791 On ch=2 n=6 v=100
9092882 Off ch=2 n=6 v=0
9108626 On ch=2 n=11 v=100
9108712 Off ch=2 n=11 v=0
9156029 On ch=2 n=2 v=100
9156603 Off ch=2 n=2 v=0
9206673 On ch=2 n=3 v=100
9206704 Off ch=2 n=3 v=0
9214244 On ch=2 n=11 v=100
9214597 Off ch=2 n=11 v=0
9266189 On ch=2 n=3 v=100
9266775 Off ch=2 n=3 v=0
9266992 On ch=2 n=15 v=100
9267178 Off ch=2 n=15 v=0
9282682 On ch=2 n=14 v=100
9282734 Off ch=2 n=14 v=0
9285395 On ch=2 n=8 v=100
9285913 Off ch=2 n=8 v=0
9316436 On ch=2 n=15 v=100
9316620 Off ch=2 n=15 v=0
9322343 On ch=2 n=7 v=100
9322574 Off ch=2 n=7 v=0
9322575 On ch=2 n=10 v=100
9322784 Off ch=2 n=10 v=0
9338524 On ch=2 n=5 v=100
9338562 Off ch=2 n=5 v=0
9347844 On ch=2 n=18 v=100
9348214 Off ch=2 n=18 v=0
9366609 On ch=2 n=9 v=100
9367096 Off ch=2 n=9 v=0
9494737 On ch=2 n=22 v=100
9494984 Off ch=2 n=22 v=0
9498237 On ch=2 n=23 v=100
9498306 Off ch=2 n=23 v=0
9504499 On ch=2 n=13 v=100
9504982 Off ch=2 n=13 v=0
9511435 On ch=2 n=12 v=100
9511634 Off ch=2 n=12 v=0
9538370 On ch=2 n=18 v=100
9538615 Off ch=2 n=18 v=0
9543748 On ch=2 n=17 v=100
9543898 Off ch=2 n=17 v=0
9587469 On ch=2 n=12 v=100
9587546 Off ch=2 n=12 v=0
9611133 On ch=2 n=8 v=100
9611670 Off ch=2 n=8 v=0
9622644 On ch=2 n=28 v=100
9622746 Off ch=2 n=28 v=0
9661325 On ch=2 n=29 v=100
9661600 Off ch=2 n=29 v=0
9722750 On ch=2 n=22 v=100
9722831 Off ch=2 n=22 v=0
9760528 On ch=2 n=16 v=100
9760567 Off ch=2 n=16 v=0
9780108 On ch=2 n=15 v=100
9780474 Off ch=2 n=15 v=0
9838406 On ch=2 n=16 v=100
9838453 Off ch=2 n=16 v=0
9856772 On ch=2 n=16 v=100
9857146 Off ch=2 n=16 v=0
9890136 On ch=2 n=27 v=100
9890314 Off ch=2 n=27 v=0
9891745 On ch=2 n=6 v=100
9892132 Off ch=2 n=6 v=0
9915007 On ch=2 n=6 v=100
9915520 Off ch=2 n=6 v=0
9923359 On ch=2 n=8 v=100
9923758 Off ch=2 n=8 v=0
9944632 On ch=2 n=12 v=100
9944704 Off ch=2 n=12 v=0
9991116 On ch=2 n=5 v=100
9991515 Off ch=2 n=5 v=0
10008277 On ch=2 n=16 v=100
10008470 Off ch=2 n=16 v=0
10049253 On ch=2 n=23 v=100
10049517 Off ch=2 n=23 v=0
10073489 On ch=2 n=11 v=100
10073940 Off ch=2 n=11 v=0
10076970 On ch=2 n=17 v=100
10077183 Off ch=2 n=17 v=0
10087115 On ch=2 n=51 v=100
10087215 Off ch=2 n=51 v=0
10125298 On ch=2 n=13 v=100
10125731 Off ch=2 n=13 v=0
10130706 On ch=2 n=9 v=100
10130888 Off ch=2 n=9 v=0
10132052 On ch=2 n=10 v=100
10132148 Off ch=2 n=10 v=0
10134920 On ch=2 n=10 v=100
10134936 Off ch=2 n=10 v=0
10134975 On ch=2 n=10 v=100
10135112 Off ch=2 n=10 v=0
10155716 On ch=2 n=14 v=100
10155856 Off ch=2 n=14 v=0
10291870 On ch=2 n=7 v=100
10292256 Off ch=2 n=7 v=0
10330322 On ch=2 n=31 v=100
10330422 Off ch=2 n=31 v=0
10344324 On ch=2 n=10 v=100
10344871 Off ch=2 n=10 v=0
10353276 On ch=2 n=14 v=100
10353440 Off ch=2 n=14 v=0
10397715 On ch=2 n=15 v=100
10397813 Off ch=2 n=15 v=0
10400571 On ch=2 n=18 v=100
10400734 Off ch=2 n=18 v=0
10440393 On ch=2 n=16 v=100
10440730 Off ch=2 n=16 v=0
10474145 On ch=2 n=35 v=100
10474339 Off ch=2 n=35 v=0
10513020 On ch=2 n=9 v=100
10513576 Off ch=2 n=9 v=0
10515262 On ch=2 n=28 v=100
10515441 Off ch=2 n=28 v=0
10524416 On ch=2 n=10 v=100
10524969 Off ch=2 n=10 v=0
10530320 On ch=2 n=3 v=100
10530897 Off ch=2 n=3 v=0
10535021 On ch=2 n=25 v=100
10535075 Off ch=2 n=25 v=0
10562355 On ch=2 n=29 v=100
10562434 Off ch=2 n=29 v=0
10567919 On ch=2 n=22 v=100
10568009 Off ch=2 n=22 v=0
10607424 On ch=2 n=12 v=100
10607558 Off ch=2 n=12 v=0
10622519 On ch=2 n=7 v=100
10623007 Off ch=2 n=7 v=0
10623076 On ch=2 n=7 v=100
10623090 Off ch=2 n=7 v=0
10633151 On ch=2 n=9 v=100
10633390 Off ch=2 n=9 v=0
TrkEnd    
MTrk    
0 PrCh ch=3 p=42 
0 Meta TrkName "DNA" 
15 On ch=3 n=25 v=100
145 On ch=3 n=20 v=100
407 Off ch=3 n=25 v=0
460 Off ch=3 n=20 v=0
706 On ch=3 n=2 v=100
3156 On ch=3 n=33 v=100
3231 Off ch=3 n=2 v=0
3243 On ch=3 n=8 v=100
3322 Off ch=3 n=33 v=0
4058 On ch=3 n=41 v=100
4203 Off ch=3 n=8 v=0
4206 On ch=3 n=4 v=100
4678 Off ch=3 n=41 v=0
5279 On ch=3 n=60 v=100
5335 On ch=3 n=32 v=100
5401 Off ch=3 n=4 v=0
5411 Off ch=3 n=32 v=0
5530 Off ch=3 n=60 v=0
5587 On ch=3 n=25 v=100
5759 Off ch=3 n=25 v=0
6949 On ch=3 n=4 v=100
7027 Off ch=3 n=4 v=0
7030 On ch=3 n=5 v=100
7211 On ch=3 n=9 v=100
7215 Off ch=3 n=5 v=0
7846 On ch=3 n=30 v=100
7846 On ch=3 n=30 v=100
7878 On ch=3 n=20 v=100
7878 On ch=3 n=20 v=100
7881 Off ch=3 n=9 v=0
7886 On ch=3 n=43 v=100
7915 On ch=3 n=20 v=100
7944 On ch=3 n=15 v=100
7961 On ch=3 n=24 v=100
7961 On ch=3 n=24 v=100
8096 Off ch=3 n=30 v=0
8096 Off ch=3 n=20 v=0
8096 Off ch=3 n=20 v=0
8096 Off ch=3 n=30 v=0
8096 Off ch=3 n=20 v=0
8122 Off ch=3 n=43 v=0
8122 Off ch=3 n=15 v=0
8160 On ch=3 n=15 v=100
8160 On ch=3 n=15 v=100
8162 Off ch=3 n=24 v=0
8162 Off ch=3 n=24 v=0
8294 On ch=3 n=34 v=100
8522 On ch=3 n=7 v=100
8522 On ch=3 n=7 v=100
8565 Off ch=3 n=15 v=0
8565 Off ch=3 n=15 v=0
8850 Off ch=3 n=34 v=0
8913 On ch=3 n=6 v=100
8913 On ch=3 n=16 v=100
8917 Off ch=3 n=7 v=0
8917 Off ch=3 n=7 v=0
9131 On ch=3 n=15 v=100
9145 Off ch=3 n=6 v=0
9245 Off ch=3 n=16 v=0
9372 Off ch=3 n=15 v=0
9375 On ch=3 n=14 v=100
10596 Off ch=3 n=14 v=0
10605 On ch=3 n=30 v=100
10709 Off ch=3 n=30 v=0
11766 On ch=3 n=14 v=100
11909 On ch=3 n=36 v=100
12021 Off ch=3 n=14 v=0
12024 On ch=3 n=13 v=100
12071 Off ch=3 n=36 v=0
12154 Off ch=3 n=13 v=0
12157 On ch=3 n=5 v=100
12363 On ch=3 n=17 v=100
12375 Off ch=3 n=5 v=0
12378 On ch=3 n=11 v=100
12490 Off ch=3 n=17 v=0
13592 Off ch=3 n=11 v=0
13594 On ch=3 n=14 v=100
13889 On ch=3 n=14 v=100
13924 Off ch=3 n=14 v=0
14138 On ch=3 n=11 v=100
14140 Off ch=3 n=14 v=0
14351 Off ch=3 n=11 v=0
14368 On ch=3 n=8 v=100
14526 On ch=3 n=38 v=100
14586 Off ch=3 n=8 v=0
14644 On ch=3 n=28 v=100
14645 On ch=3 n=49 v=100
14655 On ch=3 n=9 v=100
14861 Off ch=3 n=38 v=0
14865 Off ch=3 n=9 v=0
14882 Off ch=3 n=28 v=0
15039 On ch=3 n=7 v=100
15124 Off ch=3 n=49 v=0
17491 Off ch=3 n=7 v=0
17787 On ch=3 n=6 v=100
18007 On ch=3 n=23 v=100
18021 Off ch=3 n=6 v=0
18026 On ch=3 n=20 v=100
18095 On ch=3 n=12 v=100
18143 Off ch=3 n=23 v=0
18145 On ch=3 n=6 v=100
18275 On ch=3 n=29 v=100
18474 Off ch=3 n=20 v=0
18474 Off ch=3 n=12 v=0
18474 Off ch=3 n=6 v=0
18484 On ch=3 n=11 v=100
18516 Off ch=3 n=29 v=0
18752 Off ch=3 n=11 v=0
19221 On ch=3 n=67 v=100
19390 Off ch=3 n=67 v=0
19487 On ch=3 n=34 v=100
19933 Off ch=3 n=34 v=0
19936 On ch=3 n=5 v=100
19971 Off ch=3 n=5 v=0
20069 On ch=3 n=40 v=100
20205 Off ch=3 n=40 v=0
20594 On ch=3 n=12 v=100
20612 On ch=3 n=8 v=100
20662 On ch=3 n=13 v=100
20664 Off ch=3 n=12 v=0
20664 Off ch=3 n=8 v=0
21262 On ch=3 n=13 v=100
21318 Off ch=3 n=13 v=0
21446 On ch=3 n=20 v=100
21530 On ch=3 n=20 v=100
21633 Off ch=3 n=13 v=0
21647 On ch=3 n=9 v=100
21647 On ch=3 n=25 v=100
21771 Off ch=3 n=20 v=0
21988 Off ch=3 n=9 v=0
21990 Off ch=3 n=20 v=0
22169 Off ch=3 n=25 v=0
22359 On ch=3 n=5 v=100
22443 On ch=3 n=49 v=100
22456 Off ch=3 n=5 v=0
22457 On ch=3 n=5 v=100
22486 Off ch=3 n=49 v=0
22661 Off ch=3 n=5 v=0
33010 On ch=3 n=8 v=100
33140 On ch=3 n=11 v=100
33275 Off ch=3 n=8 v=0
33345 Off ch=3 n=11 v=0
36508 On ch=3 n=17 v=100
36810 On ch=3 n=10 v=100
36812 Off ch=3 n=17 v=0
36869 Off ch=3 n=10 v=0
36874 On ch=3 n=8 v=100
37134 Off ch=3 n=8 v=0
37136 On ch=3 n=11 v=100
37173 Off ch=3 n=11 v=0
37179 On ch=3 n=12 v=100
37330 Off ch=3 n=12 v=0
37475 On ch=3 n=25 v=100
37800 On ch=3 n=21 v=100
37816 Off ch=3 n=25 v=0
37834 On ch=3 n=12 v=100
37847 Off ch=3 n=21 v=0
38074 On ch=3 n=26 v=100
38162 Off ch=3 n=12 v=0
38194 Off ch=3 n=26 v=0
38213 On ch=3 n=61 v=100
38470 On ch=3 n=35 v=100
38484 On ch=3 n=10 v=100
38663 On ch=3 n=13 v=100
38663 Off ch=3 n=61 v=0
38663 Off ch=3 n=10 v=0
38673 Off ch=3 n=35 v=0
39137 Off ch=3 n=13 v=0
39561 On ch=3 n=16 v=100
39603 Off ch=3 n=16 v=0
39714 On ch=3 n=36 v=100
39715 On ch=3 n=22 v=100
39719 On ch=3 n=18 v=100
39796 Off ch=3 n=18 v=0
39808 Off ch=3 n=22 v=0
39844 Off ch=3 n=36 v=0
40538 On ch=3 n=4 v=100
44182 Off ch=3 n=4 v=0
44184 On ch=3 n=4 v=100
45166 On ch=3 n=17 v=100
45171 On ch=3 n=53 v=100
45367 On ch=3 n=4 v=100
45368 Off ch=3 n=4 v=0
45394 Off ch=3 n=17 v=0
45446 Off ch=3 n=53 v=0
47011 On ch=3 n=3 v=100
47015 Off ch=3 n=4 v=0
47751 On ch=3 n=2 v=100
47754 Off ch=3 n=3 v=0
48538 Off ch=3 n=2 v=0
48567 On ch=3 n=2 v=100
49065 Off ch=3 n=2 v=0
49101 On ch=3 n=2 v=100
52964 On ch=3 n=8 v=100
52988 Off ch=3 n=2 v=0
54285 On ch=3 n=27 v=100
54285 On ch=3 n=27 v=100
54310 Off ch=3 n=8 v=0
54616 On ch=3 n=31 v=100
54894 On ch=3 n=22 v=100
54894 On ch=3 n=22 v=100
54971 Off ch=3 n=27 v=0
54971 Off ch=3 n=27 v=0
55257 Off ch=3 n=31 v=0
56020 On ch=3 n=29 v=100
56027 Off ch=3 n=22 v=0
56027 Off ch=3 n=22 v=0
56263 On ch=3 n=27 v=100
56790 On ch=3 n=32 v=100
56831 Off ch=3 n=29 v=0
56893 On ch=3 n=22 v=100
56959 Off ch=3 n=27 v=0
57326 Off ch=3 n=32 v=0
58084 On ch=3 n=31 v=100
58096 Off ch=3 n=22 v=0
58669 On ch=3 n=23 v=100
59039 Off ch=3 n=31 v=0
59881 On ch=3 n=29 v=100
59881 On ch=3 n=29 v=100
59889 Off ch=3 n=23 v=0
60125 On ch=3 n=23 v=100
60503 On ch=3 n=19 v=100
60503 On ch=3 n=19 v=100
60692 Off ch=3 n=29 v=0
60692 Off ch=3 n=29 v=0
61316 Off ch=3 n=23 v=0
61417 On ch=3 n=5 v=100
61461 Off ch=3 n=19 v=0
61461 Off ch=3 n=19 v=0
62124 Off ch=3 n=5 v=0
62202 On ch=3 n=5 v=100
62761 Off ch=3 n=5 v=0
62764 On ch=3 n=7 v=100
65665 Off ch=3 n=7 v=0
66520 On ch=3 n=7 v=100
67202 Off ch=3 n=7 v=0
67260 On ch=3 n=7 v=100
67268 On ch=3 n=7 v=100
67302 Off ch=3 n=7 v=0
68991 Off ch=3 n=7 v=0
69029 On ch=3 n=7 v=100
69379 Off ch=3 n=7 v=0
69466 On ch=3 n=14 v=100
70151 Off ch=3 n=14 v=0
70211 On ch=3 n=14 v=100
70330 Off ch=3 n=14 v=0
70666 On ch=3 n=9 v=100
70711 Off ch=3 n=9 v=0
70712 On ch=3 n=13 v=100
70999 Off ch=3 n=13 v=0
71508 On ch=3 n=32 v=100
71638 Off ch=3 n=32 v=0
71781 On ch=3 n=22 v=100
71942 Off ch=3 n=22 v=0
71991 On ch=3 n=34 v=100
71998 On ch=3 n=66 v=100
72093 Off ch=3 n=34 v=0
72181 Off ch=3 n=66 v=0
72850 On ch=3 n=7 v=100
73033 Off ch=3 n=7 v=0
73290 On ch=3 n=10 v=100
73374 Off ch=3 n=10 v=0
76705 On ch=3 n=20 v=100
76830 Off ch=3 n=20 v=0
76831 On ch=3 n=13 v=100
76896 Off ch=3 n=13 v=0
76897 On ch=3 n=6 v=100
76958 On ch=3 n=21 v=100
76958 Off ch=3 n=6 v=0
77087 On ch=3 n=26 v=100
77090 Off ch=3 n=21 v=0
77192 Off ch=3 n=26 v=0
77275 On ch=3 n=19 v=100
77596 Off ch=3 n=19 v=0
77601 On ch=3 n=14 v=100
77747 Off ch=3 n=14 v=0
79073 On ch=3 n=9 v=100
79236 Off ch=3 n=9 v=0
79245 On ch=3 n=9 v=100
79375 Off ch=3 n=9 v=0
79376 On ch=3 n=7 v=100
79834 On ch=3 n=35 v=100
79834 On ch=3 n=35 v=100
79860 Off ch=3 n=7 v=0
79863 On ch=3 n=25 v=100
79880 On ch=3 n=47 v=100
79912 On ch=3 n=22 v=100
80042 Off ch=3 n=25 v=0
80082 Off ch=3 n=35 v=0
80082 Off ch=3 n=35 v=0
80140 Off ch=3 n=47 v=0
80197 Off ch=3 n=22 v=0
80452 On ch=3 n=5 v=100
81348 Off ch=3 n=5 v=0
82579 On ch=3 n=35 v=100
82800 Off ch=3 n=35 v=0
82843 On ch=3 n=34 v=100
82939 On ch=3 n=31 v=100
83120 Off ch=3 n=34 v=0
83122 Off ch=3 n=31 v=0
92818 On ch=3 n=3 v=100
93817 On ch=3 n=14 v=100
94033 Off ch=3 n=3 v=0
94036 Off ch=3 n=14 v=0
94120 On ch=3 n=14 v=100
94361 Off ch=3 n=14 v=0
95496 On ch=3 n=10 v=100
95536 Off ch=3 n=10 v=0
96617 On ch=3 n=8 v=100
96878 On ch=3 n=15 v=100
96879 Off ch=3 n=8 v=0
97000 Off ch=3 n=15 v=0
97193 On ch=3 n=15 v=100
97696 Off ch=3 n=15 v=0
97707 On ch=3 n=10 v=100
97942 Off ch=3 n=10 v=0
98074 On ch=3 n=56 v=100
98074 On ch=3 n=56 v=100
98090 On ch=3 n=7 v=100
98142 On ch=3 n=45 v=100
98142 On ch=3 n=45 v=100
98226 Off ch=3 n=7 v=0
98228 On ch=3 n=3 v=100
98228 On ch=3 n=3 v=100
98298 Off ch=3 n=45 v=0
98298 Off ch=3 n=45 v=0
98642 Off ch=3 n=56 v=0
98642 Off ch=3 n=56 v=0
100748 Off ch=3 n=3 v=0
100748 Off ch=3 n=3 v=0
100812 On ch=3 n=3 v=100
101306 On ch=3 n=24 v=100
101373 On ch=3 n=11 v=100
101379 Off ch=3 n=3 v=0
101393 On ch=3 n=26 v=100
101484 Off ch=3 n=11 v=0
101485 Off ch=3 n=24 v=0
101503 Off ch=3 n=26 v=0
101549 On ch=3 n=8 v=100
101587 On ch=3 n=8 v=100
101596 Off ch=3 n=8 v=0
101628 Off ch=3 n=8 v=0
101870 On ch=3 n=36 v=100
101903 On ch=3 n=18 v=100
101911 On ch=3 n=16 v=100
102061 On ch=3 n=23 v=100
102101 On ch=3 n=34 v=100
102167 Off ch=3 n=36 v=0
102422 Off ch=3 n=18 v=0
102493 Off ch=3 n=16 v=0
102585 Off ch=3 n=23 v=0
102881 Off ch=3 n=34 v=0
103704 On ch=3 n=8 v=100
104828 Off ch=3 n=8 v=0
104859 On ch=3 n=15 v=100
104859 On ch=3 n=8 v=100
104876 Off ch=3 n=8 v=0
104885 Off ch=3 n=15 v=0
104943 On ch=3 n=15 v=100
105069 On ch=3 n=13 v=100
105072 Off ch=3 n=15 v=0
105087 Off ch=3 n=13 v=0
105139 On ch=3 n=13 v=100
105153 On ch=3 n=7 v=100
105455 Off ch=3 n=7 v=0
105461 Off ch=3 n=13 v=0
105517 On ch=3 n=10 v=100
105744 Off ch=3 n=10 v=0
105747 On ch=3 n=11 v=100
106367 Off ch=3 n=11 v=0
106673 On ch=3 n=27 v=100
106951 Off ch=3 n=27 v=0
106952 On ch=3 n=28 v=100
107112 Off ch=3 n=28 v=0
107681 On ch=3 n=29 v=100
107868 Off ch=3 n=29 v=0
107877 On ch=3 n=21 v=100
107877 On ch=3 n=21 v=100
107904 On ch=3 n=11 v=100
108149 On ch=3 n=32 v=100
108219 Off ch=3 n=11 v=0
108266 On ch=3 n=13 v=100
108336 Off ch=3 n=21 v=0
108336 Off ch=3 n=21 v=0
108376 Off ch=3 n=32 v=0
108575 Off ch=3 n=13 v=0
109605 On ch=3 n=30 v=100
109878 Off ch=3 n=30 v=0
110094 On ch=3 n=22 v=100
110131 On ch=3 n=11 v=100
110133 Off ch=3 n=22 v=0
110415 Off ch=3 n=11 v=0
110472 On ch=3 n=37 v=100
110593 Off ch=3 n=37 v=0
110596 On ch=3 n=10 v=100
111285 On ch=3 n=9 v=100
111286 Off ch=3 n=10 v=0
112403 On ch=3 n=46 v=100
112403 On ch=3 n=46 v=100
112444 Off ch=3 n=9 v=0
112451 On ch=3 n=7 v=100
112461 On ch=3 n=34 v=100
112517 On ch=3 n=28 v=100
112535 Off ch=3 n=7 v=0
112634 On ch=3 n=31 v=100
112673 Off ch=3 n=46 v=0
112673 Off ch=3 n=46 v=0
112843 Off ch=3 n=28 v=0
112844 Off ch=3 n=34 v=0
112863 On ch=3 n=13 v=100
112955 Off ch=3 n=31 v=0
113139 Off ch=3 n=13 v=0
113141 On ch=3 n=12 v=100
113183 Off ch=3 n=12 v=0
113605 On ch=3 n=5 v=100
113606 On ch=3 n=5 v=100
113799 Off ch=3 n=5 v=0
113827 Off ch=3 n=5 v=0
114091 On ch=3 n=15 v=100
114095 On ch=3 n=21 v=100
114125 On ch=3 n=9 v=100
114125 On ch=3 n=16 v=100
114135 Off ch=3 n=15 v=0
114146 Off ch=3 n=21 v=0
114263 Off ch=3 n=9 v=0
114282 Off ch=3 n=16 v=0
115131 On ch=3 n=11 v=100
115446 On ch=3 n=7 v=100
115448 Off ch=3 n=11 v=0
115714 Off ch=3 n=7 v=0
115720 On ch=3 n=8 v=100
116028 Off ch=3 n=8 v=0
116670 On ch=3 n=40 v=100
116691 On ch=3 n=28 v=100
116862 Off ch=3 n=28 v=0
116865 Off ch=3 n=40 v=0
117419 On ch=3 n=12 v=100
118556 Off ch=3 n=12 v=0
118989 On ch=3 n=19 v=100
119159 On ch=3 n=7 v=100
119160 Off ch=3 n=19 v=0
119331 On ch=3 n=21 v=100
119391 Off ch=3 n=7 v=0
119492 Off ch=3 n=21 v=0
119842 On ch=3 n=15 v=100
120029 Off ch=3 n=15 v=0
120268 On ch=3 n=12 v=100
120706 Off ch=3 n=12 v=0
120781 On ch=3 n=7 v=100
121483 Off ch=3 n=7 v=0
121485 On ch=3 n=16 v=100
121572 On ch=3 n=10 v=100
121573 Off ch=3 n=16 v=0
121651 Off ch=3 n=10 v=0
121656 On ch=3 n=15 v=100
121831 Off ch=3 n=15 v=0
127953 On ch=3 n=14 v=100
128375 On ch=3 n=12 v=100
128437 Off ch=3 n=14 v=0
128552 Off ch=3 n=12 v=0
128712 On ch=3 n=16 v=100
129178 Off ch=3 n=16 v=0
129197 On ch=3 n=11 v=100
129261 Off ch=3 n=11 v=0
129372 On ch=3 n=24 v=100
129615 On ch=3 n=13 v=100
129943 Off ch=3 n=24 v=0
129961 Off ch=3 n=13 v=0
130036 On ch=3 n=13 v=100
130076 Off ch=3 n=13 v=0
131241 On ch=3 n=36 v=100
131241 On ch=3 n=36 v=100
131259 On ch=3 n=13 v=100
131435 Off ch=3 n=13 v=0
131446 Off ch=3 n=36 v=0
131446 Off ch=3 n=36 v=0
131622 On ch=3 n=30 v=100
131626 On ch=3 n=26 v=100
131752 Off ch=3 n=26 v=0
131775 Off ch=3 n=30 v=0
131786 On ch=3 n=27 v=100
132726 Off ch=3 n=27 v=0
132784 On ch=3 n=27 v=100
132786 On ch=3 n=17 v=100
133258 Off ch=3 n=17 v=0
133305 On ch=3 n=37 v=100
133365 Off ch=3 n=27 v=0
133470 Off ch=3 n=37 v=0
133477 On ch=3 n=6 v=100
133477 On ch=3 n=6 v=100
133613 On ch=3 n=14 v=100
134599 Off ch=3 n=6 v=0
134599 Off ch=3 n=6 v=0
134602 On ch=3 n=7 v=100
134602 On ch=3 n=7 v=100
134759 Off ch=3 n=14 v=0
135085 On ch=3 n=29 v=100
135102 Off ch=3 n=7 v=0
135102 Off ch=3 n=7 v=0
135286 Off ch=3 n=29 v=0
135574 On ch=3 n=10 v=100
136085 Off ch=3 n=10 v=0
136176 On ch=3 n=33 v=100
136290 Off ch=3 n=33 v=0
138012 On ch=3 n=20 v=100
138051 On ch=3 n=13 v=100
138125 Off ch=3 n=20 v=0
138136 On ch=3 n=9 v=100
138138 On ch=3 n=14 v=100
138151 Off ch=3 n=13 v=0
138395 Off ch=3 n=9 v=0
138429 Off ch=3 n=14 v=0
138507 On ch=3 n=8 v=100
138625 Off ch=3 n=8 v=0
138997 On ch=3 n=22 v=100
139195 Off ch=3 n=22 v=0
139232 On ch=3 n=28 v=100
139462 Off ch=3 n=28 v=0
139475 On ch=3 n=11 v=100
140171 Off ch=3 n=11 v=0
140172 On ch=3 n=16 v=100
140286 On ch=3 n=11 v=100
140326 Off ch=3 n=16 v=0
140514 On ch=3 n=17 v=100
140528 Off ch=3 n=11 v=0
140626 On ch=3 n=14 v=100
140637 Off ch=3 n=17 v=0
141580 On ch=3 n=9 v=100
141732 Off ch=3 n=14 v=0
141916 Off ch=3 n=9 v=0
141921 On ch=3 n=13 v=100
142126 On ch=3 n=10 v=100
142181 Off ch=3 n=13 v=0
142287 On ch=3 n=47 v=100
142329 On ch=3 n=14 v=100
142333 Off ch=3 n=10 v=0
142358 On ch=3 n=13 v=100
142592 Off ch=3 n=47 v=0
142593 Off ch=3 n=14 v=0
143059 On ch=3 n=7 v=100
143062 Off ch=3 n=13 v=0
143343 Off ch=3 n=7 v=0
143670 On ch=3 n=2 v=100
143810 On ch=3 n=3 v=100
143810 Off ch=3 n=2 v=0
144745 Off ch=3 n=3 v=0
144918 On ch=3 n=10 v=100
145233 Off ch=3 n=10 v=0
146365 On ch=3 n=11 v=100
147096 Off ch=3 n=11 v=0
147730 On ch=3 n=9 v=100
147893 Off ch=3 n=9 v=0
147897 On ch=3 n=10 v=100
148493 Off ch=3 n=10 v=0
148539 On ch=3 n=10 v=100
148795 Off ch=3 n=10 v=0
148838 On ch=3 n=8 v=100
149286 Off ch=3 n=8 v=0
149289 On ch=3 n=8 v=100
149392 Off ch=3 n=8 v=0
150773 On ch=3 n=12 v=100
150823 On ch=3 n=19 v=100
150824 Off ch=3 n=12 v=0
150943 On ch=3 n=23 v=100
150951 On ch=3 n=9 v=100
150955 Off ch=3 n=19 v=0
151328 Off ch=3 n=9 v=0
151330 On ch=3 n=15 v=100
151373 Off ch=3 n=23 v=0
151715 On ch=3 n=27 v=100
151789 Off ch=3 n=15 v=0
151791 On ch=3 n=11 v=100
151802 Off ch=3 n=27 v=0
152216 On ch=3 n=44 v=100
152236 On ch=3 n=13 v=100
152237 Off ch=3 n=11 v=0
152328 Off ch=3 n=44 v=0
152910 Off ch=3 n=13 v=0
153838 On ch=3 n=14 v=100
154034 On ch=3 n=16 v=100
154040 Off ch=3 n=14 v=0
154178 Off ch=3 n=16 v=0
154536 On ch=3 n=18 v=100
154716 On ch=3 n=14 v=100
154752 Off ch=3 n=18 v=0
154874 On ch=3 n=30 v=100
154914 Off ch=3 n=14 v=0
154917 On ch=3 n=14 v=100
155003 Off ch=3 n=30 v=0
155007 Off ch=3 n=14 v=0
155043 On ch=3 n=29 v=100
155109 On ch=3 n=28 v=100
155164 On ch=3 n=14 v=100
155299 On ch=3 n=47 v=100
155325 Off ch=3 n=29 v=0
155346 Off ch=3 n=28 v=0
155349 On ch=3 n=32 v=100
155349 On ch=3 n=32 v=100
155373 On ch=3 n=10 v=100
155374 Off ch=3 n=14 v=0
155563 Off ch=3 n=10 v=0
155567 On ch=3 n=26 v=100
155572 Off ch=3 n=47 v=0
155574 Off ch=3 n=32 v=0
155574 Off ch=3 n=32 v=0
156025 Off ch=3 n=26 v=0
156116 On ch=3 n=34 v=100
156519 Off ch=3 n=34 v=0
156591 On ch=3 n=34 v=100
156797 Off ch=3 n=34 v=0
157174 On ch=3 n=33 v=100
157204 On ch=3 n=34 v=100
157283 Off ch=3 n=33 v=0
157333 Off ch=3 n=34 v=0
157474 On ch=3 n=11 v=100
158543 Off ch=3 n=11 v=0
158625 On ch=3 n=10 v=100
158664 Off ch=3 n=10 v=0
159327 On ch=3 n=11 v=100
159347 On ch=3 n=47 v=100
159552 Off ch=3 n=11 v=0
159554 On ch=3 n=10 v=100
159665 Off ch=3 n=47 v=0
159678 Off ch=3 n=10 v=0
160308 On ch=3 n=20 v=100
160400 On ch=3 n=17 v=100
160429 Off ch=3 n=20 v=0
160589 On ch=3 n=9 v=100
160761 Off ch=3 n=17 v=0
161471 Off ch=3 n=9 v=0
161486 On ch=3 n=22 v=100
161556 On ch=3 n=3 v=100
161572 Off ch=3 n=22 v=0
161638 Off ch=3 n=3 v=0
161640 On ch=3 n=5 v=100
162496 Off ch=3 n=5 v=0
162498 On ch=3 n=8 v=100
162809 On ch=3 n=11 v=100
162810 Off ch=3 n=8 v=0
162893 Off ch=3 n=11 v=0
163572 On ch=3 n=31 v=100
163625 Off ch=3 n=31 v=0
164235 On ch=3 n=14 v=100
164273 Off ch=3 n=14 v=0
164276 On ch=3 n=10 v=100
164309 On ch=3 n=19 v=100
164357 On ch=3 n=7 v=100
164357 Off ch=3 n=10 v=0
164460 Off ch=3 n=19 v=0
164476 Off ch=3 n=7 v=0
165171 On ch=3 n=14 v=100
165206 On ch=3 n=13 v=100
165206 On ch=3 n=23 v=100
165278 Off ch=3 n=14 v=0
165294 Off ch=3 n=13 v=0
165313 Off ch=3 n=23 v=0
165603 On ch=3 n=8 v=100
165709 Off ch=3 n=8 v=0
165713 On ch=3 n=5 v=100
165947 Off ch=3 n=5 v=0
166960 On ch=3 n=23 v=100
167509 Off ch=3 n=23 v=0
168222 On ch=3 n=4 v=100
168758 Off ch=3 n=4 v=0
170416 On ch=3 n=14 v=100
170664 Off ch=3 n=14 v=0
171500 On ch=3 n=32 v=100
171747 On ch=3 n=16 v=100
171815 On ch=3 n=10 v=100
171961 On ch=3 n=20 v=100
172096 Off ch=3 n=32 v=0
172187 On ch=3 n=12 v=100
172193 Off ch=3 n=16 v=0
172197 Off ch=3 n=10 v=0
172252 Off ch=3 n=20 v=0
172470 Off ch=3 n=12 v=0
172471 On ch=3 n=9 v=100
172626 Off ch=3 n=9 v=0
173189 On ch=3 n=26 v=100
173241 Off ch=3 n=26 v=0
173325 On ch=3 n=18 v=100
173560 Off ch=3 n=18 v=0
173562 On ch=3 n=1 v=100
173578 On ch=3 n=28 v=100
173645 Off ch=3 n=1 v=0
173684 On ch=3 n=12 v=100
173684 Off ch=3 n=28 v=0
174348 Off ch=3 n=12 v=0
178232 On ch=3 n=30 v=100
178245 On ch=3 n=35 v=100
178307 Off ch=3 n=30 v=0
178318 Off ch=3 n=35 v=0
178695 On ch=3 n=26 v=100
178726 On ch=3 n=19 v=100
178878 Off ch=3 n=26 v=0
179031 On ch=3 n=22 v=100
179031 Off ch=3 n=19 v=0
179143 Off ch=3 n=22 v=0
179234 On ch=3 n=22 v=100
179253 Off ch=3 n=22 v=0
179468 On ch=3 n=14 v=100
179742 Off ch=3 n=14 v=0
179746 On ch=3 n=26 v=100
180192 Off ch=3 n=26 v=0
181206 On ch=3 n=20 v=100
181343 Off ch=3 n=20 v=0
181434 On ch=3 n=20 v=100
181905 On ch=3 n=34 v=100
181932 On ch=3 n=13 v=100
181932 Off ch=3 n=20 v=0
182057 Off ch=3 n=34 v=0
182057 Off ch=3 n=13 v=0
183418 On ch=3 n=25 v=100
183466 On ch=3 n=33 v=100
183558 Off ch=3 n=25 v=0
183573 Off ch=3 n=33 v=0
183781 On ch=3 n=32 v=100
184023 On ch=3 n=35 v=100
184254 Off ch=3 n=32 v=0
184273 On ch=3 n=24 v=100
184354 On ch=3 n=38 v=100
184382 On ch=3 n=53 v=100
184385 On ch=3 n=51 v=100
184458 Off ch=3 n=35 v=0
184491 Off ch=3 n=24 v=0
184534 Off ch=3 n=38 v=0
184575 Off ch=3 n=51 v=0
184619 Off ch=3 n=53 v=0
185081 On ch=3 n=44 v=100
185104 On ch=3 n=20 v=100
185107 On ch=3 n=35 v=100
185116 On ch=3 n=11 v=100
185309 Off ch=3 n=11 v=0
185320 Off ch=3 n=20 v=0
185324 Off ch=3 n=44 v=0
185382 Off ch=3 n=35 v=0
186156 On ch=3 n=8 v=100
186349 Off ch=3 n=8 v=0
196368 On ch=3 n=19 v=100
197337 Off ch=3 n=19 v=0
197400 On ch=3 n=14 v=100
197780 Off ch=3 n=14 v=0
197809 On ch=3 n=11 v=100
197916 On ch=3 n=20 v=100
198030 Off ch=3 n=11 v=0
198054 Off ch=3 n=20 v=0
198059 On ch=3 n=20 v=100
198546 Off ch=3 n=20 v=0
198975 On ch=3 n=21 v=100
199138 Off ch=3 n=21 v=0
200001 On ch=3 n=35 v=100
200077 On ch=3 n=21 v=100
200104 On ch=3 n=22 v=100
200226 Off ch=3 n=35 v=0
200226 Off ch=3 n=21 v=0
200253 Off ch=3 n=22 v=0
200541 On ch=3 n=33 v=100
200541 On ch=3 n=33 v=100
200623 On ch=3 n=19 v=100
200623 On ch=3 n=19 v=100
200665 On ch=3 n=12 v=100
200665 On ch=3 n=12 v=100
200683 On ch=3 n=10 v=100
200683 On ch=3 n=10 v=100
201020 Off ch=3 n=33 v=0
201020 Off ch=3 n=33 v=0
201022 Off ch=3 n=10 v=0
201022 Off ch=3 n=10 v=0
201068 Off ch=3 n=12 v=0
201068 Off ch=3 n=12 v=0
201087 Off ch=3 n=19 v=0
201087 Off ch=3 n=19 v=0
201429 On ch=3 n=40 v=100
201446 On ch=3 n=7 v=100
201496 Off ch=3 n=40 v=0
201514 On ch=3 n=16 v=100
201514 Off ch=3 n=7 v=0
201668 Off ch=3 n=16 v=0
202934 On ch=3 n=30 v=100
202975 On ch=3 n=15 v=100
203097 Off ch=3 n=30 v=0
203097 Off ch=3 n=15 v=0
203111 On ch=3 n=40 v=100
203252 Off ch=3 n=40 v=0
203362 On ch=3 n=20 v=100
203412 On ch=3 n=5 v=100
203691 Off ch=3 n=20 v=0
203757 On ch=3 n=16 v=100
203808 On ch=3 n=6 v=100
203809 Off ch=3 n=5 v=0
204165 Off ch=3 n=6 v=0
204166 Off ch=3 n=16 v=0
204187 On ch=3 n=26 v=100
204216 On ch=3 n=31 v=100
204216 On ch=3 n=31 v=100
204226 Off ch=3 n=26 v=0
204237 On ch=3 n=23 v=100
204452 On ch=3 n=12 v=100
204453 Off ch=3 n=23 v=0
204524 Off ch=3 n=31 v=0
204524 Off ch=3 n=31 v=0
204905 On ch=3 n=10 v=100
204906 Off ch=3 n=12 v=0
205198 Off ch=3 n=10 v=0
208006 On ch=3 n=43 v=100
208160 On ch=3 n=46 v=100
208160 On ch=3 n=16 v=100
208269 On ch=3 n=30 v=100
208336 Off ch=3 n=16 v=0
208342 Off ch=3 n=43 v=0
208431 Off ch=3 n=46 v=0
208610 Off ch=3 n=30 v=0
209294 On ch=3 n=11 v=100
209360 Off ch=3 n=11 v=0
209385 On ch=3 n=22 v=100
209514 Off ch=3 n=22 v=0
209564 On ch=3 n=30 v=100
209582 On ch=3 n=6 v=100
209672 Off ch=3 n=30 v=0
209680 On ch=3 n=32 v=100
209688 On ch=3 n=47 v=100
209691 Off ch=3 n=6 v=0
209693 On ch=3 n=21 v=100
209745 Off ch=3 n=32 v=0
209874 Off ch=3 n=21 v=0
209893 Off ch=3 n=47 v=0
209903 On ch=3 n=8 v=100
209944 On ch=3 n=13 v=100
209951 Off ch=3 n=8 v=0
210358 On ch=3 n=10 v=100
210381 Off ch=3 n=13 v=0
211430 Off ch=3 n=10 v=0
211434 On ch=3 n=19 v=100
211514 Off ch=3 n=19 v=0
212650 On ch=3 n=36 v=100
212736 Off ch=3 n=36 v=0
212992 On ch=3 n=16 v=100
213102 On ch=3 n=21 v=100
213108 Off ch=3 n=16 v=0
213109 On ch=3 n=19 v=100
213158 Off ch=3 n=21 v=0
213206 On ch=3 n=10 v=100
213206 On ch=3 n=15 v=100
213217 Off ch=3 n=19 v=0
213239 On ch=3 n=20 v=100
213371 Off ch=3 n=10 v=0
213399 Off ch=3 n=15 v=0
213420 Off ch=3 n=20 v=0
213591 On ch=3 n=15 v=100
214321 Off ch=3 n=15 v=0
214354 On ch=3 n=14 v=100
214559 Off ch=3 n=14 v=0
214620 On ch=3 n=48 v=100
214640 On ch=3 n=45 v=100
214641 On ch=3 n=35 v=100
214736 Off ch=3 n=48 v=0
214736 Off ch=3 n=35 v=0
214751 Off ch=3 n=45 v=0
215671 On ch=3 n=23 v=100
216020 On ch=3 n=9 v=100
216027 Off ch=3 n=23 v=0
216114 On ch=3 n=27 v=100
216222 Off ch=3 n=9 v=0
216486 Off ch=3 n=27 v=0
217405 On ch=3 n=8 v=100
217519 Off ch=3 n=8 v=0
218118 On ch=3 n=12 v=100
218192 On ch=3 n=15 v=100
218227 On ch=3 n=2 v=100
218227 On ch=3 n=37 v=100
218235 Off ch=3 n=12 v=0
218518 Off ch=3 n=15 v=0
218557 On ch=3 n=14 v=100
218586 On ch=3 n=7 v=100
218586 Off ch=3 n=2 v=0
218828 Off ch=3 n=37 v=0
218828 Off ch=3 n=7 v=0
218829 On ch=3 n=10 v=100
218859 Off ch=3 n=14 v=0
218894 On ch=3 n=15 v=100
218898 Off ch=3 n=10 v=0
219108 Off ch=3 n=15 v=0
221974 On ch=3 n=42 v=100
222052 On ch=3 n=59 v=100
222109 Off ch=3 n=42 v=0
222734 Off ch=3 n=59 v=0
224877 On ch=3 n=11 v=100
225087 Off ch=3 n=11 v=0
225550 On ch=3 n=7 v=100
226691 Off ch=3 n=7 v=0
227224 On ch=3 n=14 v=100
227456 Off ch=3 n=14 v=0
227555 On ch=3 n=16 v=100
227744 Off ch=3 n=16 v=0
227854 On ch=3 n=45 v=100
227879 On ch=3 n=18 v=100
228029 Off ch=3 n=45 v=0
228112 On ch=3 n=16 v=100
228122 Off ch=3 n=18 v=0
228166 On ch=3 n=7 v=100
228361 Off ch=3 n=16 v=0
229383 On ch=3 n=12 v=100
229397 Off ch=3 n=7 v=0
230011 Off ch=3 n=12 v=0
230012 On ch=3 n=6 v=100
231368 On ch=3 n=11 v=100
231382 Off ch=3 n=6 v=0
231921 On ch=3 n=27 v=100
231922 On ch=3 n=20 v=100
231927 Off ch=3 n=11 v=0
232053 Off ch=3 n=20 v=0
232079 Off ch=3 n=27 v=0
233745 On ch=3 n=15 v=100
233930 On ch=3 n=14 v=100
233931 On ch=3 n=18 v=100
233987 Off ch=3 n=15 v=0
234302 Off ch=3 n=14 v=0
234443 Off ch=3 n=18 v=0
234457 On ch=3 n=8 v=100
234922 On ch=3 n=14 v=100
234958 Off ch=3 n=8 v=0
235077 On ch=3 n=31 v=100
235162 Off ch=3 n=14 v=0
235279 On ch=3 n=13 v=100
235750 Off ch=3 n=31 v=0
235786 Off ch=3 n=13 v=0
236245 On ch=3 n=21 v=100
236358 Off ch=3 n=21 v=0
236360 On ch=3 n=21 v=100
236574 Off ch=3 n=21 v=0
236711 On ch=3 n=38 v=100
236943 Off ch=3 n=38 v=0
236956 On ch=3 n=26 v=100
237065 Off ch=3 n=26 v=0
237095 On ch=3 n=7 v=100
237281 Off ch=3 n=7 v=0
237283 On ch=3 n=17 v=100
237485 Off ch=3 n=17 v=0
237488 On ch=3 n=9 v=100
238100 On ch=3 n=5 v=100
238103 Off ch=3 n=9 v=0
238129 On ch=3 n=51 v=100
238136 Off ch=3 n=5 v=0
238142 On ch=3 n=21 v=100
238191 On ch=3 n=40 v=100
238219 On ch=3 n=24 v=100
238222 Off ch=3 n=21 v=0
238325 Off ch=3 n=51 v=0
238447 Off ch=3 n=40 v=0
238450 On ch=3 n=34 v=100
238453 Off ch=3 n=24 v=0
238519 Off ch=3 n=34 v=0
239943 On ch=3 n=7 v=100
240091 Off ch=3 n=7 v=0
240097 On ch=3 n=10 v=100
240432 On ch=3 n=43 v=100
240468 On ch=3 n=23 v=100
240469 Off ch=3 n=10 v=0
240472 On ch=3 n=11 v=100
240664 Off ch=3 n=11 v=0
240734 On ch=3 n=5 v=100
240736 Off ch=3 n=43 v=0
240738 Off ch=3 n=23 v=0
241155 Off ch=3 n=5 v=0
241242 On ch=3 n=40 v=100
241395 Off ch=3 n=40 v=0
241401 On ch=3 n=7 v=100
241959 On ch=3 n=12 v=100
242422 On ch=3 n=6 v=100
242423 Off ch=3 n=7 v=0
242516 Off ch=3 n=12 v=0
242806 Off ch=3 n=6 v=0
243056 On ch=3 n=45 v=100
243106 On ch=3 n=31 v=100
243150 On ch=3 n=26 v=100
243205 On ch=3 n=20 v=100
243209 On ch=3 n=23 v=100
243429 Off ch=3 n=45 v=0
243487 Off ch=3 n=31 v=0
243551 Off ch=3 n=26 v=0
243553 Off ch=3 n=20 v=0
243602 Off ch=3 n=23 v=0
244489 On ch=3 n=13 v=100
244489 On ch=3 n=33 v=100
244627 Off ch=3 n=13 v=0
244639 On ch=3 n=18 v=100
244683 Off ch=3 n=33 v=0
245024 On ch=3 n=8 v=100
245026 Off ch=3 n=18 v=0
245144 Off ch=3 n=8 v=0
246209 On ch=3 n=39 v=100
246238 On ch=3 n=17 v=100
246344 Off ch=3 n=39 v=0
246349 Off ch=3 n=17 v=0
246351 On ch=3 n=19 v=100
246405 Off ch=3 n=19 v=0
248083 On ch=3 n=23 v=100
248212 Off ch=3 n=23 v=0
248224 On ch=3 n=10 v=100
249150 On ch=3 n=9 v=100
249152 Off ch=3 n=10 v=0
249402 On ch=3 n=19 v=100
249551 Off ch=3 n=9 v=0
249557 Off ch=3 n=19 v=0
249642 On ch=3 n=19 v=100
249642 On ch=3 n=19 v=100
250013 Off ch=3 n=19 v=0
250170 Off ch=3 n=19 v=0
250706 On ch=3 n=10 v=100
251722 Off ch=3 n=10 v=0
252143 On ch=3 n=25 v=100
252223 On ch=3 n=24 v=100
252542 Off ch=3 n=25 v=0
252661 Off ch=3 n=24 v=0
252808 On ch=3 n=10 v=100
253443 Off ch=3 n=10 v=0
253498 On ch=3 n=10 v=100
253570 Off ch=3 n=10 v=0
254493 On ch=3 n=14 v=100
254533 On ch=3 n=27 v=100
254558 On ch=3 n=15 v=100
254560 Off ch=3 n=14 v=0
254633 On ch=3 n=13 v=100
254649 Off ch=3 n=15 v=0
254654 Off ch=3 n=27 v=0
254665 On ch=3 n=16 v=100
255019 Off ch=3 n=13 v=0
255023 On ch=3 n=33 v=100
255160 Off ch=3 n=16 v=0
255176 On ch=3 n=12 v=100
255177 Off ch=3 n=33 v=0
255247 Off ch=3 n=12 v=0
256487 On ch=3 n=38 v=100
256650 Off ch=3 n=38 v=0
256796 On ch=3 n=24 v=100
256865 Off ch=3 n=24 v=0
256929 On ch=3 n=9 v=100
258390 Off ch=3 n=9 v=0
259381 On ch=3 n=55 v=100
259499 On ch=3 n=41 v=100
259836 Off ch=3 n=55 v=0
259836 Off ch=3 n=41 v=0
260082 On ch=3 n=32 v=100
260245 On ch=3 n=24 v=100
260245 On ch=3 n=35 v=100
260374 Off ch=3 n=32 v=0
260575 Off ch=3 n=24 v=0
260902 On ch=3 n=43 v=100
260940 On ch=3 n=35 v=100
261057 Off ch=3 n=35 v=0
261073 Off ch=3 n=35 v=0
261080 Off ch=3 n=43 v=0
261569 On ch=3 n=17 v=100
262140 Off ch=3 n=17 v=0
262177 On ch=3 n=14 v=100
262470 On ch=3 n=12 v=100
262481 Off ch=3 n=14 v=0
262662 On ch=3 n=12 v=100
262867 Off ch=3 n=12 v=0
263061 Off ch=3 n=12 v=0
263112 On ch=3 n=9 v=100
263936 Off ch=3 n=9 v=0
265694 On ch=3 n=8 v=100
266531 Off ch=3 n=8 v=0
266810 On ch=3 n=49 v=100
266811 On ch=3 n=49 v=100
266811 On ch=3 n=49 v=100
266823 On ch=3 n=4 v=100
266919 On ch=3 n=31 v=100
267000 Off ch=3 n=4 v=0
267010 Off ch=3 n=31 v=0
267013 Off ch=3 n=49 v=0
267050 Off ch=3 n=49 v=0
267050 Off ch=3 n=49 v=0
267237 On ch=3 n=5 v=100
267576 On ch=3 n=21 v=100
267613 Off ch=3 n=5 v=0
267623 Off ch=3 n=21 v=0
268038 On ch=3 n=18 v=100
268135 On ch=3 n=11 v=100
268369 On ch=3 n=17 v=100
268466 Off ch=3 n=11 v=0
268476 Off ch=3 n=18 v=0
268520 Off ch=3 n=17 v=0
268798 On ch=3 n=4 v=100
268983 Off ch=3 n=4 v=0
270523 On ch=3 n=17 v=100
270638 On ch=3 n=12 v=100
270740 On ch=3 n=45 v=100
270806 Off ch=3 n=17 v=0
270836 On ch=3 n=28 v=100
270901 Off ch=3 n=12 v=0
270917 Off ch=3 n=28 v=0
270922 Off ch=3 n=45 v=0
271453 On ch=3 n=10 v=100
272100 Off ch=3 n=10 v=0
272102 On ch=3 n=8 v=100
272191 On ch=3 n=29 v=100
272261 On ch=3 n=6 v=100
272269 Off ch=3 n=8 v=0
272505 Off ch=3 n=29 v=0
272565 On ch=3 n=15 v=100
272566 Off ch=3 n=6 v=0
272778 On ch=3 n=27 v=100
272803 Off ch=3 n=15 v=0
272847 On ch=3 n=22 v=100
272847 On ch=3 n=22 v=100
272860 On ch=3 n=14 v=100
273094 Off ch=3 n=27 v=0
273278 Off ch=3 n=14 v=0
273326 Off ch=3 n=22 v=0
273326 Off ch=3 n=22 v=0
274363 On ch=3 n=34 v=100
274363 On ch=3 n=34 v=100
274402 On ch=3 n=19 v=100
274670 Off ch=3 n=19 v=0
274690 Off ch=3 n=34 v=0
274690 Off ch=3 n=34 v=0
276649 On ch=3 n=10 v=100
277211 Off ch=3 n=10 v=0
277283 On ch=3 n=9 v=100
277518 On ch=3 n=7 v=100
277521 Off ch=3 n=9 v=0
277811 Off ch=3 n=7 v=0
277824 On ch=3 n=10 v=100
277990 Off ch=3 n=10 v=0
279664 On ch=3 n=27 v=100
279688 On ch=3 n=34 v=100
279690 On ch=3 n=22 v=100
279690 On ch=3 n=41 v=100
279769 Off ch=3 n=27 v=0
279814 Off ch=3 n=22 v=0
279827 Off ch=3 n=34 v=0
279858 Off ch=3 n=41 v=0
281062 On ch=3 n=11 v=100
281083 On ch=3 n=8 v=100
281210 Off ch=3 n=11 v=0
281323 Off ch=3 n=8 v=0
281673 On ch=3 n=15 v=100
281674 On ch=3 n=10 v=100
281698 On ch=3 n=13 v=100
281833 Off ch=3 n=10 v=0
281876 Off ch=3 n=15 v=0
281887 Off ch=3 n=13 v=0
284443 On ch=3 n=12 v=100
284911 Off ch=3 n=12 v=0
285615 On ch=3 n=10 v=100
285904 Off ch=3 n=10 v=0
286054 On ch=3 n=25 v=100
286385 Off ch=3 n=25 v=0
286392 On ch=3 n=13 v=100
286767 Off ch=3 n=13 v=0
287911 On ch=3 n=22 v=100
287932 On ch=3 n=7 v=100
288033 Off ch=3 n=7 v=0
288038 On ch=3 n=12 v=100
288039 Off ch=3 n=22 v=0
288194 Off ch=3 n=12 v=0
288197 On ch=3 n=16 v=100
288459 Off ch=3 n=16 v=0
288464 On ch=3 n=28 v=100
288473 On ch=3 n=12 v=100
288532 On ch=3 n=37 v=100
288532 Off ch=3 n=28 v=0
288532 Off ch=3 n=12 v=0
288545 On ch=3 n=16 v=100
288547 On ch=3 n=19 v=100
288583 On ch=3 n=38 v=100
288583 On ch=3 n=38 v=100
288629 Off ch=3 n=37 v=0
288637 On ch=3 n=30 v=100
288637 On ch=3 n=30 v=100
288646 Off ch=3 n=16 v=0
288658 Off ch=3 n=19 v=0
288659 On ch=3 n=17 v=100
288903 Off ch=3 n=17 v=0
288912 Off ch=3 n=30 v=0
288912 Off ch=3 n=30 v=0
288921 Off ch=3 n=38 v=0
288921 Off ch=3 n=38 v=0
289211 On ch=3 n=17 v=100
289334 On ch=3 n=16 v=100
289415 Off ch=3 n=17 v=0
289433 Off ch=3 n=16 v=0
289441 On ch=3 n=29 v=100
289441 On ch=3 n=29 v=100
289511 On ch=3 n=14 v=100
289548 On ch=3 n=10 v=100
289554 Off ch=3 n=14 v=0
289573 Off ch=3 n=29 v=0
289573 Off ch=3 n=29 v=0
290040 Off ch=3 n=10 v=0
290748 On ch=3 n=10 v=100
291163 On ch=3 n=9 v=100
291167 Off ch=3 n=10 v=0
291273 On ch=3 n=17 v=100
291358 Off ch=3 n=9 v=0
291369 Off ch=3 n=17 v=0
292229 On ch=3 n=14 v=100
292329 Off ch=3 n=14 v=0
292439 On ch=3 n=11 v=100
292594 Off ch=3 n=11 v=0
292599 On ch=3 n=14 v=100
293130 On ch=3 n=7 v=100
293134 Off ch=3 n=14 v=0
293801 On ch=3 n=13 v=100
293844 Off ch=3 n=7 v=0
294076 Off ch=3 n=13 v=0
295503 On ch=3 n=29 v=100
296078 On ch=3 n=36 v=100
296177 On ch=3 n=11 v=100
296421 Off ch=3 n=29 v=0
296449 On ch=3 n=11 v=100
296450 Off ch=3 n=11 v=0
296594 Off ch=3 n=36 v=0
296931 Off ch=3 n=11 v=0
298473 On ch=3 n=9 v=100
299180 On ch=3 n=4 v=100
299182 Off ch=3 n=9 v=0
300010 On ch=3 n=7 v=100
300017 Off ch=3 n=4 v=0
300661 On ch=3 n=3 v=100
300666 Off ch=3 n=7 v=0
300900 On ch=3 n=15 v=100
300918 Off ch=3 n=3 v=0
300950 Off ch=3 n=15 v=0
300951 On ch=3 n=10 v=100
301724 Off ch=3 n=10 v=0
302263 On ch=3 n=26 v=100
302345 Off ch=3 n=26 v=0
302350 On ch=3 n=14 v=100
302361 On ch=3 n=16 v=100
302416 Off ch=3 n=14 v=0
302416 Off ch=3 n=16 v=0
302417 On ch=3 n=2 v=100
302420 On ch=3 n=14 v=100
302421 On ch=3 n=60 v=100
302489 Off ch=3 n=2 v=0
302491 On ch=3 n=10 v=100
302501 Off ch=3 n=14 v=0
302623 Off ch=3 n=60 v=0
302786 Off ch=3 n=10 v=0
302788 On ch=3 n=10 v=100
302960 Off ch=3 n=10 v=0
302969 On ch=3 n=6 v=100
303235 Off ch=3 n=6 v=0
303259 On ch=3 n=8 v=100
303609 Off ch=3 n=8 v=0
303619 On ch=3 n=11 v=100
303744 Off ch=3 n=11 v=0
303747 On ch=3 n=22 v=100
303828 Off ch=3 n=22 v=0
304053 On ch=3 n=27 v=100
304130 Off ch=3 n=27 v=0
304556 On ch=3 n=23 v=100
304573 On ch=3 n=14 v=100
304655 Off ch=3 n=23 v=0
304694 Off ch=3 n=14 v=0
304703 On ch=3 n=7 v=100
304817 Off ch=3 n=7 v=0
304873 On ch=3 n=36 v=100
304962 Off ch=3 n=36 v=0
305184 On ch=3 n=15 v=100
305291 On ch=3 n=3 v=100
305292 Off ch=3 n=15 v=0
305402 Off ch=3 n=3 v=0
305413 On ch=3 n=22 v=100
305630 On ch=3 n=9 v=100
305631 Off ch=3 n=22 v=0
306430 Off ch=3 n=9 v=0
306431 On ch=3 n=22 v=100
306506 On ch=3 n=24 v=100
306521 Off ch=3 n=22 v=0
306560 On ch=3 n=27 v=100
306563 On ch=3 n=9 v=100
306635 Off ch=3 n=24 v=0
306714 Off ch=3 n=9 v=0
306716 On ch=3 n=3 v=100
306772 Off ch=3 n=27 v=0
308010 Off ch=3 n=3 v=0
308012 On ch=3 n=8 v=100
308384 Off ch=3 n=8 v=0
308390 On ch=3 n=27 v=100
308683 Off ch=3 n=27 v=0
309399 On ch=3 n=9 v=100
309431 On ch=3 n=9 v=100
309673 Off ch=3 n=9 v=0
309673 Off ch=3 n=9 v=0
309783 On ch=3 n=10 v=100
310922 Off ch=3 n=10 v=0
311668 On ch=3 n=15 v=100
311717 On ch=3 n=11 v=100
311878 On ch=3 n=6 v=100
312028 Off ch=3 n=15 v=0
312080 Off ch=3 n=6 v=0
312081 Off ch=3 n=11 v=0
312484 On ch=3 n=9 v=100
312994 Off ch=3 n=9 v=0
313105 On ch=3 n=33 v=100
313349 On ch=3 n=8 v=100
313351 Off ch=3 n=33 v=0
314274 Off ch=3 n=8 v=0
317750 On ch=3 n=47 v=100
317977 On ch=3 n=36 v=100
318051 On ch=3 n=28 v=100
318054 On ch=3 n=19 v=100
318247 Off ch=3 n=47 v=0
318249 Off ch=3 n=36 v=0
318249 Off ch=3 n=19 v=0
318301 Off ch=3 n=28 v=0
318341 On ch=3 n=9 v=100
318774 Off ch=3 n=9 v=0
319926 On ch=3 n=27 v=100
319974 Off ch=3 n=27 v=0
320021 On ch=3 n=27 v=100
320126 Off ch=3 n=27 v=0
320315 On ch=3 n=6 v=100
320760 On ch=3 n=18 v=100
320792 Off ch=3 n=6 v=0
320811 On ch=3 n=17 v=100
320854 On ch=3 n=21 v=100
321163 Off ch=3 n=18 v=0
321163 Off ch=3 n=17 v=0
321163 Off ch=3 n=21 v=0
321194 On ch=3 n=17 v=100
321194 On ch=3 n=21 v=100
321276 Off ch=3 n=17 v=0
321351 Off ch=3 n=21 v=0
321434 On ch=3 n=25 v=100
321487 Off ch=3 n=25 v=0
321642 On ch=3 n=25 v=100
321643 On ch=3 n=33 v=100
321710 Off ch=3 n=25 v=0
321723 Off ch=3 n=33 v=0
321766 On ch=3 n=13 v=100
322225 Off ch=3 n=13 v=0
322230 On ch=3 n=14 v=100
322894 Off ch=3 n=14 v=0
322941 On ch=3 n=14 v=100
323111 Off ch=3 n=14 v=0
323354 On ch=3 n=12 v=100
323642 Off ch=3 n=12 v=0
324006 On ch=3 n=12 v=100
325231 Off ch=3 n=12 v=0
326474 On ch=3 n=14 v=100
326788 On ch=3 n=9 v=100
326790 Off ch=3 n=14 v=0
327096 Off ch=3 n=9 v=0
327853 On ch=3 n=21 v=100
327911 On ch=3 n=9 v=100
328121 Off ch=3 n=21 v=0
328128 Off ch=3 n=9 v=0
328417 On ch=3 n=5 v=100
328564 On ch=3 n=18 v=100
328570 Off ch=3 n=5 v=0
328775 On ch=3 n=21 v=100
328833 Off ch=3 n=18 v=0
329039 Off ch=3 n=21 v=0
329755 On ch=3 n=15 v=100
330517 Off ch=3 n=15 v=0
330531 On ch=3 n=10 v=100
330890 Off ch=3 n=10 v=0
330892 On ch=3 n=19 v=100
330980 Off ch=3 n=19 v=0
331478 On ch=3 n=50 v=100
331654 Off ch=3 n=50 v=0
333109 On ch=3 n=8 v=100
333488 On ch=3 n=14 v=100
333508 Off ch=3 n=8 v=0
333765 On ch=3 n=19 v=100
333986 On ch=3 n=8 v=100
333991 Off ch=3 n=14 v=0
334018 Off ch=3 n=19 v=0
334778 On ch=3 n=8 v=100
334781 Off ch=3 n=8 v=0
334905 Off ch=3 n=8 v=0
334907 On ch=3 n=16 v=100
334907 On ch=3 n=40 v=100
334930 On ch=3 n=31 v=100
335079 Off ch=3 n=16 v=0
335101 Off ch=3 n=40 v=0
335108 Off ch=3 n=31 v=0
335765 On ch=3 n=44 v=100
335903 On ch=3 n=21 v=100
335905 Off ch=3 n=44 v=0
335956 Off ch=3 n=21 v=0
336149 On ch=3 n=13 v=100
336149 On ch=3 n=29 v=100
336179 Off ch=3 n=13 v=0
336182 On ch=3 n=7 v=100
336196 Off ch=3 n=29 v=0
336492 Off ch=3 n=7 v=0
336549 On ch=3 n=27 v=100
336645 Off ch=3 n=27 v=0
336699 On ch=3 n=28 v=100
336715 On ch=3 n=33 v=100
336736 On ch=3 n=16 v=100
336794 On ch=3 n=28 v=100
336794 On ch=3 n=43 v=100
336794 Off ch=3 n=28 v=0
336794 Off ch=3 n=33 v=0
336794 Off ch=3 n=16 v=0
336932 Off ch=3 n=28 v=0
337034 Off ch=3 n=43 v=0
338502 On ch=3 n=3 v=100
338608 Off ch=3 n=3 v=0
338634 On ch=3 n=8 v=100
339233 Off ch=3 n=8 v=0
342460 On ch=3 n=29 v=100
342468 On ch=3 n=11 v=100
342506 On ch=3 n=19 v=100
342645 Off ch=3 n=11 v=0
342654 On ch=3 n=14 v=100
342676 Off ch=3 n=29 v=0
342920 Off ch=3 n=19 v=0
343118 Off ch=3 n=14 v=0
343910 On ch=3 n=35 v=100
343942 On ch=3 n=19 v=100
343948 On ch=3 n=16 v=100
344136 Off ch=3 n=35 v=0
344198 Off ch=3 n=16 v=0
344222 Off ch=3 n=19 v=0
344250 On ch=3 n=38 v=100
344272 On ch=3 n=12 v=100
344333 Off ch=3 n=38 v=0
344441 On ch=3 n=31 v=100
344493 Off ch=3 n=12 v=0
344505 Off ch=3 n=31 v=0
344878 On ch=3 n=12 v=100
345286 Off ch=3 n=12 v=0
345721 On ch=3 n=2 v=100
346722 On ch=3 n=7 v=100
346722 Off ch=3 n=2 v=0
347949 Off ch=3 n=7 v=0
350219 On ch=3 n=16 v=100
350300 Off ch=3 n=16 v=0
350644 On ch=3 n=44 v=100
350894 Off ch=3 n=44 v=0
351103 On ch=3 n=14 v=100
351283 Off ch=3 n=14 v=0
351324 On ch=3 n=21 v=100
351339 On ch=3 n=8 v=100
351451 Off ch=3 n=21 v=0
351837 On ch=3 n=59 v=100
351837 On ch=3 n=59 v=100
351837 On ch=3 n=59 v=100
351861 On ch=3 n=31 v=100
351933 On ch=3 n=35 v=100
351933 On ch=3 n=35 v=100
351944 Off ch=3 n=8 v=0
351959 On ch=3 n=9 v=100
352132 Off ch=3 n=9 v=0
352138 Off ch=3 n=31 v=0
352200 Off ch=3 n=35 v=0
352200 Off ch=3 n=35 v=0
352267 On ch=3 n=11 v=100
352274 On ch=3 n=23 v=100
352378 Off ch=3 n=11 v=0
352395 Off ch=3 n=23 v=0
352646 Off ch=3 n=59 v=0
352646 Off ch=3 n=59 v=0
352646 Off ch=3 n=59 v=0
352663 On ch=3 n=10 v=100
353204 Off ch=3 n=10 v=0
353248 On ch=3 n=18 v=100
353257 On ch=3 n=31 v=100
353310 Off ch=3 n=18 v=0
353468 Off ch=3 n=31 v=0
353571 On ch=3 n=44 v=100
353599 On ch=3 n=11 v=100
353768 Off ch=3 n=44 v=0
353772 Off ch=3 n=11 v=0
353773 On ch=3 n=11 v=100
354223 Off ch=3 n=11 v=0
355646 On ch=3 n=23 v=100
355999 Off ch=3 n=23 v=0
356127 On ch=3 n=23 v=100
356149 On ch=3 n=26 v=100
356211 On ch=3 n=8 v=100
356332 Off ch=3 n=23 v=0
356342 Off ch=3 n=26 v=0
356584 Off ch=3 n=8 v=0
357587 On ch=3 n=13 v=100
358058 On ch=3 n=16 v=100
358058 Off ch=3 n=13 v=0
358060 On ch=3 n=25 v=100
358178 Off ch=3 n=16 v=0
358282 Off ch=3 n=25 v=0
358957 On ch=3 n=40 v=100
359121 Off ch=3 n=40 v=0
359977 On ch=3 n=17 v=100
360201 Off ch=3 n=17 v=0
360355 On ch=3 n=17 v=100
360509 Off ch=3 n=17 v=0
361075 On ch=3 n=8 v=100
361141 Off ch=3 n=8 v=0
361287 On ch=3 n=9 v=100
361493 Off ch=3 n=9 v=0
362752 On ch=3 n=28 v=100
362752 On ch=3 n=28 v=100
362826 On ch=3 n=31 v=100
362826 On ch=3 n=31 v=100
363007 Off ch=3 n=28 v=0
363007 Off ch=3 n=28 v=0
363039 On ch=3 n=11 v=100
363076 Off ch=3 n=31 v=0
363076 Off ch=3 n=31 v=0
363647 On ch=3 n=10 v=100
363668 Off ch=3 n=11 v=0
363918 Off ch=3 n=10 v=0
363985 On ch=3 n=10 v=100
364353 On ch=3 n=32 v=100
364389 On ch=3 n=10 v=100
364391 Off ch=3 n=10 v=0
364404 Off ch=3 n=32 v=0
364648 Off ch=3 n=10 v=0
364823 On ch=3 n=39 v=100
365009 Off ch=3 n=39 v=0
366324 On ch=3 n=42 v=100
366395 On ch=3 n=32 v=100
366504 Off ch=3 n=42 v=0
366504 Off ch=3 n=32 v=0
366508 On ch=3 n=16 v=100
366686 On ch=3 n=22 v=100
366703 On ch=3 n=29 v=100
366706 On ch=3 n=42 v=100
366713 Off ch=3 n=16 v=0
366780 Off ch=3 n=22 v=0
366780 Off ch=3 n=29 v=0
366785 On ch=3 n=9 v=100
366797 Off ch=3 n=42 v=0
367211 On ch=3 n=47 v=100
367645 On ch=3 n=11 v=100
367648 Off ch=3 n=9 v=0
367714 Off ch=3 n=47 v=0
367725 Off ch=3 n=11 v=0
367727 On ch=3 n=2 v=100
367979 Off ch=3 n=2 v=0
367981 On ch=3 n=5 v=100
368168 Off ch=3 n=5 v=0
369095 On ch=3 n=20 v=100
369302 On ch=3 n=21 v=100
369310 Off ch=3 n=20 v=0
369799 Off ch=3 n=21 v=0
369838 On ch=3 n=31 v=100
369890 Off ch=3 n=31 v=0
370062 On ch=3 n=42 v=100
370167 On ch=3 n=43 v=100
370530 Off ch=3 n=42 v=0
370551 On ch=3 n=20 v=100
370551 Off ch=3 n=43 v=0
370818 Off ch=3 n=20 v=0
371667 On ch=3 n=11 v=100
372313 Off ch=3 n=11 v=0
373556 On ch=3 n=18 v=100
373668 On ch=3 n=34 v=100
373781 Off ch=3 n=18 v=0
373843 Off ch=3 n=34 v=0
374443 On ch=3 n=14 v=100
374502 Off ch=3 n=14 v=0
374565 On ch=3 n=43 v=100
374669 Off ch=3 n=43 v=0
375703 On ch=3 n=8 v=100
376324 Off ch=3 n=8 v=0
376326 On ch=3 n=8 v=100
376388 On ch=3 n=54 v=100
376492 Off ch=3 n=8 v=0
376497 On ch=3 n=41 v=100
376510 On ch=3 n=29 v=100
376513 On ch=3 n=32 v=100
376536 On ch=3 n=40 v=100
376588 Off ch=3 n=54 v=0
376596 Off ch=3 n=41 v=0
376629 Off ch=3 n=29 v=0
376648 Off ch=3 n=32 v=0
376685 Off ch=3 n=40 v=0
377043 On ch=3 n=11 v=100
377281 On ch=3 n=10 v=100
377282 Off ch=3 n=11 v=0
377545 Off ch=3 n=10 v=0
377556 On ch=3 n=13 v=100
377664 Off ch=3 n=13 v=0
378114 On ch=3 n=42 v=100
378125 On ch=3 n=39 v=100
378125 On ch=3 n=40 v=100
378183 Off ch=3 n=42 v=0
378239 Off ch=3 n=39 v=0
378253 Off ch=3 n=40 v=0
379793 On ch=3 n=44 v=100
379907 Off ch=3 n=44 v=0
379924 On ch=3 n=4 v=100
381013 Off ch=3 n=4 v=0
381017 On ch=3 n=35 v=100
381229 On ch=3 n=33 v=100
381286 Off ch=3 n=35 v=0
381290 On ch=3 n=28 v=100
381443 On ch=3 n=49 v=100
381544 On ch=3 n=28 v=100
381546 Off ch=3 n=33 v=0
381546 Off ch=3 n=28 v=0
381583 Off ch=3 n=49 v=0
381609 Off ch=3 n=28 v=0
383248 On ch=3 n=48 v=100
383394 Off ch=3 n=48 v=0
383423 On ch=3 n=9 v=100
384332 Off ch=3 n=9 v=0
384372 On ch=3 n=36 v=100
384435 On ch=3 n=23 v=100
384471 Off ch=3 n=36 v=0
384573 Off ch=3 n=23 v=0
385239 On ch=3 n=59 v=100
385452 Off ch=3 n=59 v=0
385771 On ch=3 n=31 v=100
385938 Off ch=3 n=31 v=0
386016 On ch=3 n=6 v=100
386255 On ch=3 n=10 v=100
386257 Off ch=3 n=6 v=0
386552 On ch=3 n=35 v=100
386601 On ch=3 n=52 v=100
386602 Off ch=3 n=10 v=0
386606 On ch=3 n=34 v=100
386841 Off ch=3 n=35 v=0
386847 Off ch=3 n=34 v=0
387009 Off ch=3 n=52 v=0
387089 On ch=3 n=28 v=100
387089 On ch=3 n=51 v=100
387300 On ch=3 n=14 v=100
387423 Off ch=3 n=28 v=0
387479 Off ch=3 n=51 v=0
387551 Off ch=3 n=14 v=0
387641 On ch=3 n=10 v=100
387702 Off ch=3 n=10 v=0
387704 On ch=3 n=7 v=100
387817 Off ch=3 n=7 v=0
387818 On ch=3 n=13 v=100
388274 Off ch=3 n=13 v=0
389088 On ch=3 n=11 v=100
389531 Off ch=3 n=11 v=0
389545 On ch=3 n=35 v=100
389699 On ch=3 n=20 v=100
389832 Off ch=3 n=35 v=0
389832 Off ch=3 n=20 v=0
390030 On ch=3 n=20 v=100
390207 On ch=3 n=14 v=100
390255 On ch=3 n=18 v=100
390662 Off ch=3 n=20 v=0
390717 Off ch=3 n=14 v=0
390795 Off ch=3 n=18 v=0
390822 On ch=3 n=8 v=100
391243 Off ch=3 n=8 v=0
392300 On ch=3 n=15 v=100
392301 On ch=3 n=31 v=100
392354 Off ch=3 n=15 v=0
392361 Off ch=3 n=31 v=0
393340 On ch=3 n=20 v=100
393369 On ch=3 n=43 v=100
393512 Off ch=3 n=20 v=0
393654 Off ch=3 n=43 v=0
394543 On ch=3 n=10 v=100
394588 On ch=3 n=31 v=100
394791 Off ch=3 n=10 v=0
394791 Off ch=3 n=31 v=0
394888 On ch=3 n=20 v=100
394915 On ch=3 n=20 v=100
395139 Off ch=3 n=20 v=0
395145 Off ch=3 n=20 v=0
399248 On ch=3 n=16 v=100
399302 Off ch=3 n=16 v=0
400415 On ch=3 n=18 v=100
401362 Off ch=3 n=18 v=0
401440 On ch=3 n=16 v=100
401542 Off ch=3 n=16 v=0
401548 On ch=3 n=9 v=100
401692 Off ch=3 n=9 v=0
401697 On ch=3 n=12 v=100
401975 Off ch=3 n=12 v=0
401979 On ch=3 n=11 v=100
402267 Off ch=3 n=11 v=0
402274 On ch=3 n=12 v=100
402502 Off ch=3 n=12 v=0
402516 On ch=3 n=11 v=100
402695 Off ch=3 n=11 v=0
402922 On ch=3 n=20 v=100
402962 On ch=3 n=14 v=100
403327 Off ch=3 n=14 v=0
403353 On ch=3 n=44 v=100
403356 Off ch=3 n=20 v=0
403396 On ch=3 n=35 v=100
403468 On ch=3 n=20 v=100
403503 On ch=3 n=43 v=100
403507 On ch=3 n=18 v=100
403694 Off ch=3 n=18 v=0
403698 Off ch=3 n=20 v=0
403698 Off ch=3 n=35 v=0
403707 Off ch=3 n=44 v=0
403725 Off ch=3 n=43 v=0
403830 On ch=3 n=3 v=100
404278 On ch=3 n=28 v=100
404287 On ch=3 n=28 v=100
404335 Off ch=3 n=3 v=0
404337 On ch=3 n=5 v=100
404341 Off ch=3 n=28 v=0
404349 Off ch=3 n=28 v=0
404440 Off ch=3 n=5 v=0
404811 On ch=3 n=34 v=100
404920 On ch=3 n=14 v=100
404921 Off ch=3 n=34 v=0
405014 On ch=3 n=33 v=100
405015 On ch=3 n=41 v=100
405021 Off ch=3 n=14 v=0
405068 Off ch=3 n=33 v=0
405079 Off ch=3 n=41 v=0
405682 On ch=3 n=18 v=100
405849 Off ch=3 n=18 v=0
406437 On ch=3 n=10 v=100
406963 Off ch=3 n=10 v=0
406964 On ch=3 n=7 v=100
407181 Off ch=3 n=7 v=0
407183 On ch=3 n=7 v=100
407377 Off ch=3 n=7 v=0
407801 On ch=3 n=35 v=100
407875 Off ch=3 n=35 v=0
408499 On ch=3 n=35 v=100
408504 On ch=3 n=31 v=100
408638 Off ch=3 n=31 v=0
408705 Off ch=3 n=35 v=0
409233 On ch=3 n=18 v=100
409608 On ch=3 n=8 v=100
409610 Off ch=3 n=18 v=0
410495 On ch=3 n=26 v=100
410514 On ch=3 n=15 v=100
410515 Off ch=3 n=8 v=0
410580 Off ch=3 n=15 v=0
410584 Off ch=3 n=26 v=0
411492 On ch=3 n=8 v=100
412289 On ch=3 n=63 v=100
412594 Off ch=3 n=8 v=0
412622 On ch=3 n=38 v=100
412653 On ch=3 n=29 v=100
412752 Off ch=3 n=38 v=0
412757 Off ch=3 n=63 v=0
412788 Off ch=3 n=29 v=0
414244 On ch=3 n=7 v=100
415700 On ch=3 n=17 v=100
415700 On ch=3 n=17 v=100
415724 Off ch=3 n=7 v=0
415726 On ch=3 n=9 v=100
415970 Off ch=3 n=9 v=0
415982 Off ch=3 n=17 v=0
415982 Off ch=3 n=17 v=0
416156 On ch=3 n=34 v=100
416798 Off ch=3 n=34 v=0
416913 On ch=3 n=23 v=100
417381 On ch=3 n=31 v=100
417383 Off ch=3 n=23 v=0
417455 Off ch=3 n=31 v=0
417777 On ch=3 n=10 v=100
417869 Off ch=3 n=10 v=0
418190 On ch=3 n=12 v=100
418316 On ch=3 n=18 v=100
418638 Off ch=3 n=12 v=0
418705 Off ch=3 n=18 v=0
418949 On ch=3 n=53 v=100
419111 On ch=3 n=38 v=100
419111 On ch=3 n=38 v=100
419130 On ch=3 n=30 v=100
419147 On ch=3 n=9 v=100
419329 Off ch=3 n=9 v=0
419393 Off ch=3 n=30 v=0
419402 Off ch=3 n=53 v=0
419417 Off ch=3 n=38 v=0
419417 Off ch=3 n=38 v=0
419804 On ch=3 n=25 v=100
419995 On ch=3 n=33 v=100
420033 Off ch=3 n=25 v=0
420052 On ch=3 n=34 v=100
420260 Off ch=3 n=34 v=0
420261 Off ch=3 n=33 v=0
421624 On ch=3 n=19 v=100
422128 Off ch=3 n=19 v=0
422212 On ch=3 n=32 v=100
422212 On ch=3 n=32 v=100
422226 On ch=3 n=8 v=100
422346 On ch=3 n=40 v=100
422414 Off ch=3 n=8 v=0
422425 Off ch=3 n=32 v=0
422425 Off ch=3 n=32 v=0
422442 Off ch=3 n=40 v=0
422514 On ch=3 n=19 v=100
422514 On ch=3 n=26 v=100
422846 Off ch=3 n=19 v=0
422933 On ch=3 n=48 v=100
422936 Off ch=3 n=26 v=0
423084 On ch=3 n=4 v=100
423496 Off ch=3 n=4 v=0
423562 On ch=3 n=35 v=100
424062 Off ch=3 n=48 v=0
424458 On ch=3 n=20 v=100
424493 Off ch=3 n=35 v=0
424742 Off ch=3 n=20 v=0
424744 On ch=3 n=12 v=100
425235 On ch=3 n=26 v=100
425235 On ch=3 n=26 v=100
425242 Off ch=3 n=12 v=0
425246 On ch=3 n=20 v=100
425482 Off ch=3 n=20 v=0
425526 Off ch=3 n=26 v=0
425526 Off ch=3 n=26 v=0
428784 On ch=3 n=20 v=100
428935 Off ch=3 n=20 v=0
429010 On ch=3 n=11 v=100
429072 On ch=3 n=23 v=100
429072 On ch=3 n=23 v=100
429308 Off ch=3 n=11 v=0
429328 On ch=3 n=6 v=100
429391 On ch=3 n=38 v=100
429391 On ch=3 n=38 v=100
429556 Off ch=3 n=23 v=0
429556 Off ch=3 n=23 v=0
429586 On ch=3 n=34 v=100
429595 Off ch=3 n=6 v=0
429693 Off ch=3 n=38 v=0
429693 Off ch=3 n=38 v=0
430013 On ch=3 n=19 v=100
430139 Off ch=3 n=34 v=0
430283 Off ch=3 n=19 v=0
431431 On ch=3 n=7 v=100
432043 Off ch=3 n=7 v=0
432178 On ch=3 n=35 v=100
432284 Off ch=3 n=35 v=0
432326 On ch=3 n=28 v=100
432737 Off ch=3 n=28 v=0
433661 On ch=3 n=11 v=100
433742 On ch=3 n=5 v=100
433756 Off ch=3 n=11 v=0
433858 On ch=3 n=13 v=100
433858 Off ch=3 n=5 v=0
433938 Off ch=3 n=13 v=0
433951 On ch=3 n=7 v=100
434257 Off ch=3 n=7 v=0
437869 On ch=3 n=11 v=100
438038 Off ch=3 n=11 v=0
442388 On ch=3 n=35 v=100
442431 On ch=3 n=22 v=100
442518 On ch=3 n=26 v=100
442518 On ch=3 n=26 v=100
442519 On ch=3 n=18 v=100
442519 On ch=3 n=18 v=100
442551 On ch=3 n=19 v=100
442710 Off ch=3 n=35 v=0
442912 Off ch=3 n=22 v=0
442971 Off ch=3 n=18 v=0
442971 Off ch=3 n=18 v=0
443034 Off ch=3 n=19 v=0
443068 Off ch=3 n=26 v=0
443068 Off ch=3 n=26 v=0
443509 On ch=3 n=60 v=100
443665 Off ch=3 n=60 v=0
443726 On ch=3 n=11 v=100
444367 Off ch=3 n=11 v=0
445124 On ch=3 n=32 v=100
445369 On ch=3 n=28 v=100
445386 On ch=3 n=19 v=100
445492 On ch=3 n=26 v=100
445522 Off ch=3 n=32 v=0
445522 Off ch=3 n=28 v=0
445522 Off ch=3 n=19 v=0
445522 Off ch=3 n=26 v=0
445571 On ch=3 n=32 v=100
445571 On ch=3 n=28 v=100
445571 On ch=3 n=26 v=100
445677 Off ch=3 n=32 v=0
445697 Off ch=3 n=28 v=0
445732 Off ch=3 n=26 v=0
446311 On ch=3 n=7 v=100
446514 Off ch=3 n=7 v=0
447533 On ch=3 n=37 v=100
447533 On ch=3 n=37 v=100
447606 On ch=3 n=31 v=100
447757 On ch=3 n=35 v=100
447757 On ch=3 n=35 v=100
447866 Off ch=3 n=31 v=0
447868 On ch=3 n=12 v=100
447874 Off ch=3 n=37 v=0
447874 Off ch=3 n=37 v=0
447891 Off ch=3 n=35 v=0
447891 Off ch=3 n=35 v=0
448129 Off ch=3 n=12 v=0
448153 On ch=3 n=14 v=100
448392 Off ch=3 n=14 v=0
449604 On ch=3 n=25 v=100
449672 On ch=3 n=17 v=100
449686 Off ch=3 n=25 v=0
449723 Off ch=3 n=17 v=0
449728 On ch=3 n=24 v=100
449812 Off ch=3 n=24 v=0
449828 On ch=3 n=10 v=100
450040 On ch=3 n=33 v=100
450087 Off ch=3 n=10 v=0
450152 Off ch=3 n=33 v=0
450182 On ch=3 n=20 v=100
450369 Off ch=3 n=20 v=0
450450 On ch=3 n=2 v=100
451483 On ch=3 n=1 v=100
451485 Off ch=3 n=2 v=0
452420 On ch=3 n=6 v=100
452425 Off ch=3 n=1 v=0
452612 On ch=3 n=30 v=100
452661 Off ch=3 n=6 v=0
452677 Off ch=3 n=30 v=0
453877 On ch=3 n=30 v=100
453941 On ch=3 n=46 v=100
453942 Off ch=3 n=30 v=0
454145 Off ch=3 n=46 v=0
454250 On ch=3 n=9 v=100
454417 On ch=3 n=20 v=100
454558 On ch=3 n=15 v=100
454563 Off ch=3 n=9 v=0
454592 Off ch=3 n=20 v=0
454681 Off ch=3 n=15 v=0
455094 On ch=3 n=23 v=100
455162 On ch=3 n=23 v=100
455199 On ch=3 n=15 v=100
455377 On ch=3 n=20 v=100
455462 Off ch=3 n=23 v=0
455462 Off ch=3 n=23 v=0
455462 Off ch=3 n=15 v=0
455518 On ch=3 n=44 v=100
455518 Off ch=3 n=20 v=0
455558 On ch=3 n=8 v=100
455619 Off ch=3 n=8 v=0
455620 Off ch=3 n=44 v=0
455625 On ch=3 n=8 v=100
455901 Off ch=3 n=8 v=0
455904 On ch=3 n=15 v=100
455962 Off ch=3 n=15 v=0
456012 On ch=3 n=15 v=100
456100 On ch=3 n=14 v=100
456283 On ch=3 n=5 v=100
456283 Off ch=3 n=15 v=0
456283 Off ch=3 n=14 v=0
456386 On ch=3 n=54 v=100
456410 Off ch=3 n=5 v=0
456412 On ch=3 n=5 v=100
456500 On ch=3 n=8 v=100
456500 Off ch=3 n=5 v=0
456608 Off ch=3 n=8 v=0
456610 On ch=3 n=10 v=100
456654 Off ch=3 n=10 v=0
456658 Off ch=3 n=54 v=0
456806 On ch=3 n=24 v=100
456883 Off ch=3 n=24 v=0
456885 On ch=3 n=8 v=100
457480 Off ch=3 n=8 v=0
457482 On ch=3 n=6 v=100
457686 On ch=3 n=17 v=100
457691 Off ch=3 n=6 v=0
457692 On ch=3 n=21 v=100
457723 Off ch=3 n=17 v=0
457754 Off ch=3 n=21 v=0
457759 On ch=3 n=10 v=100
457853 Off ch=3 n=10 v=0
457863 On ch=3 n=8 v=100
458311 Off ch=3 n=8 v=0
458315 On ch=3 n=32 v=100
458318 On ch=3 n=9 v=100
458321 On ch=3 n=32 v=100
458393 Off ch=3 n=9 v=0
458454 Off ch=3 n=32 v=0
458555 On ch=3 n=22 v=100
458608 On ch=3 n=22 v=100
458654 Off ch=3 n=22 v=0
458655 Off ch=3 n=32 v=0
458746 Off ch=3 n=22 v=0
458755 On ch=3 n=19 v=100
458806 Off ch=3 n=19 v=0
458900 On ch=3 n=29 v=100
458974 Off ch=3 n=29 v=0
459761 On ch=3 n=20 v=100
459881 Off ch=3 n=20 v=0
459895 On ch=3 n=7 v=100
461077 Off ch=3 n=7 v=0
461083 On ch=3 n=18 v=100
461123 Off ch=3 n=18 v=0
461407 On ch=3 n=63 v=100
461642 Off ch=3 n=63 v=0
462841 On ch=3 n=34 v=100
462878 On ch=3 n=34 v=100
462878 On ch=3 n=34 v=100
462879 On ch=3 n=27 v=100
462904 On ch=3 n=20 v=100
463165 Off ch=3 n=20 v=0
463172 Off ch=3 n=27 v=0
463174 Off ch=3 n=34 v=0
463275 Off ch=3 n=34 v=0
463275 Off ch=3 n=34 v=0
463582 On ch=3 n=12 v=100
464256 Off ch=3 n=12 v=0
464267 On ch=3 n=33 v=100
464348 Off ch=3 n=33 v=0
464467 On ch=3 n=36 v=100
464582 Off ch=3 n=36 v=0
464617 On ch=3 n=17 v=100
465015 Off ch=3 n=17 v=0
465456 On ch=3 n=19 v=100
465650 Off ch=3 n=19 v=0
465668 On ch=3 n=11 v=100
465715 Off ch=3 n=11 v=0
468169 On ch=3 n=13 v=100
468345 Off ch=3 n=13 v=0
468378 On ch=3 n=43 v=100
468379 On ch=3 n=36 v=100
468492 Off ch=3 n=36 v=0
468529 On ch=3 n=25 v=100
468549 Off ch=3 n=43 v=0
468708 Off ch=3 n=25 v=0
468748 On ch=3 n=20 v=100
469067 Off ch=3 n=20 v=0
469103 On ch=3 n=20 v=100
469103 On ch=3 n=24 v=100
469103 On ch=3 n=29 v=100
469241 Off ch=3 n=20 v=0
469311 Off ch=3 n=24 v=0
469338 On ch=3 n=24 v=100
469339 On ch=3 n=5 v=100
469388 On ch=3 n=14 v=100
469461 Off ch=3 n=29 v=0
469573 Off ch=3 n=5 v=0
469731 Off ch=3 n=14 v=0
469735 Off ch=3 n=24 v=0
470980 On ch=3 n=25 v=100
471039 On ch=3 n=24 v=100
471039 On ch=3 n=24 v=100
471102 On ch=3 n=17 v=100
471127 On ch=3 n=24 v=100
471127 On ch=3 n=24 v=100
471153 On ch=3 n=11 v=100
471190 On ch=3 n=21 v=100
471194 On ch=3 n=17 v=100
471529 Off ch=3 n=17 v=0
471530 Off ch=3 n=11 v=0
471534 Off ch=3 n=25 v=0
471593 Off ch=3 n=24 v=0
471593 Off ch=3 n=24 v=0
471623 Off ch=3 n=24 v=0
471623 Off ch=3 n=24 v=0
471630 Off ch=3 n=17 v=0
471681 Off ch=3 n=21 v=0
471740 On ch=3 n=11 v=100
472123 Off ch=3 n=11 v=0
472318 On ch=3 n=7 v=100
472783 Off ch=3 n=7 v=0
474283 On ch=3 n=18 v=100
474478 Off ch=3 n=18 v=0
475055 On ch=3 n=16 v=100
475137 Off ch=3 n=16 v=0
475138 On ch=3 n=6 v=100
475473 On ch=3 n=29 v=100
475475 Off ch=3 n=6 v=0
475583 Off ch=3 n=29 v=0
475884 On ch=3 n=16 v=100
475925 Off ch=3 n=16 v=0
475928 On ch=3 n=28 v=100
475929 On ch=3 n=22 v=100
476332 Off ch=3 n=22 v=0
476403 Off ch=3 n=28 v=0
476408 On ch=3 n=32 v=100
476442 On ch=3 n=61 v=100
476449 On ch=3 n=18 v=100
476629 Off ch=3 n=32 v=0
476629 Off ch=3 n=18 v=0
476712 Off ch=3 n=61 v=0
477378 On ch=3 n=35 v=100
477378 On ch=3 n=35 v=100
477399 On ch=3 n=16 v=100
477424 On ch=3 n=22 v=100
477424 On ch=3 n=22 v=100
477430 On ch=3 n=53 v=100
477529 Off ch=3 n=35 v=0
477529 Off ch=3 n=35 v=0
477625 On ch=3 n=25 v=100
477635 Off ch=3 n=16 v=0
477791 Off ch=3 n=22 v=0
477791 Off ch=3 n=22 v=0
477973 Off ch=3 n=53 v=0
477993 Off ch=3 n=25 v=0
479105 On ch=3 n=31 v=100
479133 Off ch=3 n=31 v=0
479213 On ch=3 n=31 v=100
479286 On ch=3 n=35 v=100
479317 On ch=3 n=17 v=100
479355 On ch=3 n=13 v=100
479499 Off ch=3 n=31 v=0
479507 On ch=3 n=24 v=100
479541 Off ch=3 n=35 v=0
479645 Off ch=3 n=17 v=0
479648 Off ch=3 n=13 v=0
479669 Off ch=3 n=24 v=0
481490 On ch=3 n=11 v=100
481801 Off ch=3 n=11 v=0
481803 On ch=3 n=8 v=100
482628 On ch=3 n=9 v=100
482628 Off ch=3 n=8 v=0
482634 On ch=3 n=14 v=100
482733 Off ch=3 n=9 v=0
482747 Off ch=3 n=14 v=0
483830 On ch=3 n=21 v=100
483830 On ch=3 n=21 v=100
483892 On ch=3 n=10 v=100
484238 Off ch=3 n=10 v=0
484263 Off ch=3 n=21 v=0
484263 Off ch=3 n=21 v=0
484668 On ch=3 n=38 v=100
484777 On ch=3 n=19 v=100
484777 On ch=3 n=39 v=100
484890 Off ch=3 n=19 v=0
484950 Off ch=3 n=38 v=0
484989 Off ch=3 n=39 v=0
486529 On ch=3 n=34 v=100
486632 Off ch=3 n=34 v=0
486746 On ch=3 n=12 v=100
487746 Off ch=3 n=12 v=0
487887 On ch=3 n=21 v=100
487895 On ch=3 n=22 v=100
487895 On ch=3 n=47 v=100
487928 Off ch=3 n=21 v=0
487991 Off ch=3 n=22 v=0
488082 Off ch=3 n=47 v=0
488421 On ch=3 n=37 v=100
488422 On ch=3 n=12 v=100
488591 Off ch=3 n=12 v=0
488659 Off ch=3 n=37 v=0
489445 On ch=3 n=15 v=100
489454 On ch=3 n=7 v=100
489655 Off ch=3 n=7 v=0
489736 Off ch=3 n=15 v=0
489942 On ch=3 n=58 v=100
490224 Off ch=3 n=58 v=0
490276 On ch=3 n=15 v=100
490399 Off ch=3 n=15 v=0
490598 On ch=3 n=20 v=100
490611 On ch=3 n=13 v=100
490710 Off ch=3 n=20 v=0
491051 Off ch=3 n=13 v=0
491052 On ch=3 n=5 v=100
492657 Off ch=3 n=5 v=0
493816 On ch=3 n=33 v=100
493966 On ch=3 n=9 v=100
494042 Off ch=3 n=33 v=0
495091 Off ch=3 n=9 v=0
495123 On ch=3 n=30 v=100
495231 Off ch=3 n=30 v=0
495729 On ch=3 n=6 v=100
496923 Off ch=3 n=6 v=0
497762 On ch=3 n=20 v=100
497787 On ch=3 n=30 v=100
497825 Off ch=3 n=20 v=0
498074 Off ch=3 n=30 v=0
500250 On ch=3 n=7 v=100
500544 Off ch=3 n=7 v=0
500558 On ch=3 n=43 v=100
501096 Off ch=3 n=43 v=0
501099 On ch=3 n=12 v=100
501410 Off ch=3 n=12 v=0
502249 On ch=3 n=9 v=100
503747 Off ch=3 n=9 v=0
503956 On ch=3 n=10 v=100
504034 On ch=3 n=39 v=100
504106 On ch=3 n=39 v=100
504106 On ch=3 n=42 v=100
504110 Off ch=3 n=10 v=0
504118 On ch=3 n=42 v=100
504118 On ch=3 n=42 v=100
504132 On ch=3 n=42 v=100
504291 Off ch=3 n=39 v=0
504311 Off ch=3 n=42 v=0
504313 Off ch=3 n=39 v=0
504317 Off ch=3 n=42 v=0
504347 Off ch=3 n=42 v=0
504347 Off ch=3 n=42 v=0
510831 On ch=3 n=9 v=100
510887 On ch=3 n=7 v=100
510995 Off ch=3 n=9 v=0
511072 Off ch=3 n=7 v=0
511255 On ch=3 n=35 v=100
511259 On ch=3 n=8 v=100
511294 On ch=3 n=18 v=100
511380 Off ch=3 n=8 v=0
511414 Off ch=3 n=35 v=0
511590 Off ch=3 n=18 v=0
512062 On ch=3 n=12 v=100
512448 Off ch=3 n=12 v=0
512859 On ch=3 n=10 v=100
513157 On ch=3 n=14 v=100
513190 Off ch=3 n=10 v=0
513281 On ch=3 n=9 v=100
513319 Off ch=3 n=14 v=0
514879 Off ch=3 n=9 v=0
515126 On ch=3 n=23 v=100
515434 Off ch=3 n=23 v=0
515467 On ch=3 n=23 v=100
515479 On ch=3 n=16 v=100
515526 Off ch=3 n=23 v=0
515526 Off ch=3 n=16 v=0
516459 On ch=3 n=13 v=100
516469 On ch=3 n=27 v=100
516512 Off ch=3 n=13 v=0
516722 On ch=3 n=15 v=100
516810 On ch=3 n=21 v=100
516811 On ch=3 n=18 v=100
517175 Off ch=3 n=27 v=0
517204 Off ch=3 n=15 v=0
517289 Off ch=3 n=18 v=0
517372 Off ch=3 n=21 v=0
517811 On ch=3 n=6 v=100
518347 On ch=3 n=21 v=100
518379 Off ch=3 n=6 v=0
518393 On ch=3 n=6 v=100
518544 Off ch=3 n=21 v=0
518641 Off ch=3 n=6 v=0
518728 On ch=3 n=6 v=100
518740 Off ch=3 n=6 v=0
519589 On ch=3 n=11 v=100
519714 Off ch=3 n=11 v=0
519726 On ch=3 n=41 v=100
519759 On ch=3 n=30 v=100
519778 On ch=3 n=30 v=100
519786 On ch=3 n=24 v=100
519925 Off ch=3 n=30 v=0
519930 Off ch=3 n=41 v=0
519931 Off ch=3 n=24 v=0
519965 Off ch=3 n=30 v=0
521121 On ch=3 n=20 v=100
521146 On ch=3 n=19 v=100
521146 On ch=3 n=10 v=100
521215 On ch=3 n=21 v=100
521222 Off ch=3 n=20 v=0
521222 Off ch=3 n=10 v=0
521229 On ch=3 n=10 v=100
521236 Off ch=3 n=19 v=0
521344 Off ch=3 n=21 v=0
521516 On ch=3 n=27 v=100
521683 Off ch=3 n=10 v=0
521731 On ch=3 n=13 v=100
521731 On ch=3 n=13 v=100
521756 On ch=3 n=11 v=100
522058 On ch=3 n=31 v=100
522120 Off ch=3 n=27 v=0
522148 Off ch=3 n=11 v=0
522178 Off ch=3 n=13 v=0
522178 Off ch=3 n=13 v=0
522507 On ch=3 n=8 v=100
522713 On ch=3 n=26 v=100
522873 Off ch=3 n=31 v=0
522889 Off ch=3 n=8 v=0
522891 On ch=3 n=10 v=100
522924 Off ch=3 n=26 v=0
523344 Off ch=3 n=10 v=0
525220 On ch=3 n=10 v=100
525708 Off ch=3 n=10 v=0
525926 On ch=3 n=10 v=100
526014 Off ch=3 n=10 v=0
527254 On ch=3 n=11 v=100
527829 On ch=3 n=17 v=100
527829 Off ch=3 n=11 v=0
527948 Off ch=3 n=17 v=0
528923 On ch=3 n=9 v=100
529370 Off ch=3 n=9 v=0
529385 On ch=3 n=10 v=100
529719 On ch=3 n=23 v=100
529954 Off ch=3 n=10 v=0
530039 Off ch=3 n=23 v=0
531290 On ch=3 n=21 v=100
531363 On ch=3 n=14 v=100
531383 On ch=3 n=30 v=100
531520 Off ch=3 n=21 v=0
531520 Off ch=3 n=14 v=0
531618 Off ch=3 n=30 v=0
531874 On ch=3 n=22 v=100
531930 Off ch=3 n=22 v=0
532078 On ch=3 n=19 v=100
532152 On ch=3 n=9 v=100
532377 Off ch=3 n=19 v=0
532377 Off ch=3 n=9 v=0
532442 On ch=3 n=19 v=100
532442 On ch=3 n=9 v=100
532729 Off ch=3 n=19 v=0
532787 Off ch=3 n=9 v=0
533631 On ch=3 n=38 v=100
533691 On ch=3 n=21 v=100
533750 On ch=3 n=21 v=100
533862 On ch=3 n=18 v=100
534220 Off ch=3 n=21 v=0
534220 Off ch=3 n=21 v=0
534224 Off ch=3 n=38 v=0
534225 On ch=3 n=16 v=100
534279 Off ch=3 n=18 v=0
534289 On ch=3 n=15 v=100
534303 On ch=3 n=21 v=100
534634 Off ch=3 n=16 v=0
534687 Off ch=3 n=15 v=0
534771 Off ch=3 n=21 v=0
537412 On ch=3 n=23 v=100
537578 Off ch=3 n=23 v=0
537818 On ch=3 n=30 v=100
537961 On ch=3 n=20 v=100
538023 Off ch=3 n=30 v=0
538366 On ch=3 n=16 v=100
538366 On ch=3 n=16 v=100
538418 On ch=3 n=10 v=100
538421 Off ch=3 n=20 v=0
538703 Off ch=3 n=10 v=0
538714 Off ch=3 n=16 v=0
538714 Off ch=3 n=16 v=0
539971 On ch=3 n=7 v=100
540845 Off ch=3 n=7 v=0
542232 On ch=3 n=10 v=100
542249 On ch=3 n=56 v=100
542935 Off ch=3 n=10 v=0
542939 On ch=3 n=9 v=100
543205 Off ch=3 n=56 v=0
543339 Off ch=3 n=9 v=0
543452 On ch=3 n=33 v=100
544004 Off ch=3 n=33 v=0
544131 On ch=3 n=36 v=100
544507 Off ch=3 n=36 v=0
544513 On ch=3 n=16 v=100
544791 Off ch=3 n=16 v=0
544796 On ch=3 n=21 v=100
544860 Off ch=3 n=21 v=0
546102 On ch=3 n=22 v=100
546104 On ch=3 n=17 v=100
546149 On ch=3 n=36 v=100
546193 On ch=3 n=39 v=100
546255 Off ch=3 n=17 v=0
546291 Off ch=3 n=22 v=0
546310 Off ch=3 n=36 v=0
546333 Off ch=3 n=39 v=0
546729 On ch=3 n=5 v=100
547593 On ch=3 n=19 v=100
547597 Off ch=3 n=5 v=0
547676 On ch=3 n=6 v=100
547808 Off ch=3 n=19 v=0
547808 Off ch=3 n=6 v=0
547842 On ch=3 n=6 v=100
547842 On ch=3 n=19 v=100
547842 On ch=3 n=30 v=100
548022 Off ch=3 n=6 v=0
548072 Off ch=3 n=19 v=0
548279 Off ch=3 n=30 v=0
549326 On ch=3 n=11 v=100
549426 Off ch=3 n=11 v=0
549462 On ch=3 n=13 v=100
549712 Off ch=3 n=13 v=0
549713 On ch=3 n=4 v=100
549747 On ch=3 n=21 v=100
549760 Off ch=3 n=4 v=0
549764 On ch=3 n=11 v=100
549866 Off ch=3 n=21 v=0
549866 Off ch=3 n=11 v=0
549931 On ch=3 n=21 v=100
549966 Off ch=3 n=21 v=0
552005 On ch=3 n=10 v=100
552085 Off ch=3 n=10 v=0
552264 On ch=3 n=13 v=100
552434 Off ch=3 n=13 v=0
553398 On ch=3 n=10 v=100
554206 Off ch=3 n=10 v=0
555033 On ch=3 n=34 v=100
555159 Off ch=3 n=34 v=0
555261 On ch=3 n=36 v=100
555288 On ch=3 n=47 v=100
555295 On ch=3 n=23 v=100
555364 Off ch=3 n=36 v=0
555389 On ch=3 n=46 v=100
555509 Off ch=3 n=23 v=0
555613 Off ch=3 n=46 v=0
555654 Off ch=3 n=47 v=0
555826 On ch=3 n=34 v=100
555945 On ch=3 n=26 v=100
555997 Off ch=3 n=34 v=0
556011 Off ch=3 n=26 v=0
556191 On ch=3 n=29 v=100
556270 Off ch=3 n=29 v=0
557237 On ch=3 n=7 v=100
558451 Off ch=3 n=7 v=0
558523 On ch=3 n=30 v=100
558567 On ch=3 n=17 v=100
558573 On ch=3 n=42 v=100
558670 Off ch=3 n=30 v=0
558701 Off ch=3 n=17 v=0
558768 Off ch=3 n=42 v=0
561343 On ch=3 n=14 v=100
561584 Off ch=3 n=14 v=0
562049 On ch=3 n=7 v=100
563452 Off ch=3 n=7 v=0
563507 On ch=3 n=16 v=100
563532 On ch=3 n=15 v=100
563600 Off ch=3 n=16 v=0
563947 Off ch=3 n=15 v=0
564001 On ch=3 n=10 v=100
564301 Off ch=3 n=10 v=0
564317 On ch=3 n=12 v=100
564408 Off ch=3 n=12 v=0
566443 On ch=3 n=15 v=100
566545 On ch=3 n=8 v=100
566563 Off ch=3 n=15 v=0
566766 On ch=3 n=35 v=100
566801 Off ch=3 n=8 v=0
566820 Off ch=3 n=35 v=0
566822 On ch=3 n=32 v=100
566908 On ch=3 n=12 v=100
566987 Off ch=3 n=32 v=0
567449 Off ch=3 n=12 v=0
567451 On ch=3 n=14 v=100
567512 Off ch=3 n=14 v=0
567681 On ch=3 n=35 v=100
567823 Off ch=3 n=35 v=0
567826 On ch=3 n=34 v=100
567902 Off ch=3 n=34 v=0
567903 On ch=3 n=16 v=100
567903 On ch=3 n=19 v=100
568156 Off ch=3 n=16 v=0
568186 On ch=3 n=17 v=100
568191 Off ch=3 n=19 v=0
568231 On ch=3 n=19 v=100
568509 On ch=3 n=35 v=100
568644 Off ch=3 n=17 v=0
568693 Off ch=3 n=19 v=0
568768 Off ch=3 n=35 v=0
570254 On ch=3 n=30 v=100
570463 On ch=3 n=7 v=100
570473 Off ch=3 n=30 v=0
571994 Off ch=3 n=7 v=0
572086 On ch=3 n=27 v=100
572209 Off ch=3 n=27 v=0
572418 On ch=3 n=30 v=100
572532 Off ch=3 n=30 v=0
572755 On ch=3 n=26 v=100
572824 Off ch=3 n=26 v=0
572873 On ch=3 n=23 v=100
572956 On ch=3 n=17 v=100
572969 On ch=3 n=21 v=100
573189 Off ch=3 n=23 v=0
573324 Off ch=3 n=17 v=0
573393 Off ch=3 n=21 v=0
573844 On ch=3 n=26 v=100
573940 Off ch=3 n=26 v=0
574472 On ch=3 n=25 v=100
574516 Off ch=3 n=25 v=0
574550 On ch=3 n=37 v=100
574583 Off ch=3 n=37 v=0
574666 On ch=3 n=6 v=100
574952 On ch=3 n=55 v=100
575028 Off ch=3 n=6 v=0
575030 Off ch=3 n=55 v=0
575157 On ch=3 n=55 v=100
575158 On ch=3 n=10 v=100
575228 Off ch=3 n=55 v=0
575771 Off ch=3 n=10 v=0
576404 On ch=3 n=59 v=100
576540 Off ch=3 n=59 v=0
576757 On ch=3 n=13 v=100
577377 Off ch=3 n=13 v=0
577402 On ch=3 n=6 v=100
578243 Off ch=3 n=6 v=0
578245 On ch=3 n=5 v=100
578491 Off ch=3 n=5 v=0
578492 On ch=3 n=10 v=100
578750 On ch=3 n=16 v=100
578753 Off ch=3 n=10 v=0
578803 On ch=3 n=10 v=100
579032 Off ch=3 n=16 v=0
580632 Off ch=3 n=10 v=0
580738 On ch=3 n=25 v=100
581740 On ch=3 n=25 v=100
581742 Off ch=3 n=25 v=0
581760 On ch=3 n=10 v=100
581801 Off ch=3 n=25 v=0
582623 Off ch=3 n=10 v=0
582626 On ch=3 n=14 v=100
582883 On ch=3 n=20 v=100
582885 Off ch=3 n=14 v=0
583043 On ch=3 n=21 v=100
583043 Off ch=3 n=20 v=0
583153 Off ch=3 n=21 v=0
583306 On ch=3 n=9 v=100
583477 Off ch=3 n=9 v=0
583487 On ch=3 n=14 v=100
583533 On ch=3 n=10 v=100
583538 Off ch=3 n=14 v=0
583585 Off ch=3 n=10 v=0
583586 On ch=3 n=7 v=100
584323 On ch=3 n=20 v=100
584325 Off ch=3 n=7 v=0
585444 Off ch=3 n=20 v=0
586828 On ch=3 n=25 v=100
586937 On ch=3 n=35 v=100
587112 Off ch=3 n=25 v=0
587632 Off ch=3 n=35 v=0
587763 On ch=3 n=17 v=100
588176 Off ch=3 n=17 v=0
589333 On ch=3 n=3 v=100
590483 Off ch=3 n=3 v=0
590689 On ch=3 n=41 v=100
590821 Off ch=3 n=41 v=0
590938 On ch=3 n=39 v=100
591140 Off ch=3 n=39 v=0
591324 On ch=3 n=12 v=100
591342 On ch=3 n=7 v=100
591405 On ch=3 n=24 v=100
591411 Off ch=3 n=12 v=0
591412 Off ch=3 n=7 v=0
591515 On ch=3 n=6 v=100
591515 Off ch=3 n=24 v=0
592920 Off ch=3 n=6 v=0
592944 On ch=3 n=7 v=100
593149 Off ch=3 n=7 v=0
594622 On ch=3 n=9 v=100
594667 On ch=3 n=34 v=100
594750 On ch=3 n=6 v=100
594759 Off ch=3 n=9 v=0
595178 Off ch=3 n=34 v=0
595179 Off ch=3 n=6 v=0
595201 On ch=3 n=7 v=100
595363 Off ch=3 n=7 v=0
595818 On ch=3 n=20 v=100
595833 On ch=3 n=33 v=100
596016 Off ch=3 n=20 v=0
596046 Off ch=3 n=33 v=0
596055 On ch=3 n=57 v=100
596227 Off ch=3 n=57 v=0
596767 On ch=3 n=43 v=100
596858 On ch=3 n=34 v=100
596858 On ch=3 n=34 v=100
596898 On ch=3 n=9 v=100
597081 Off ch=3 n=9 v=0
597082 Off ch=3 n=43 v=0
597123 Off ch=3 n=34 v=0
597123 Off ch=3 n=34 v=0
598522 On ch=3 n=61 v=100
598639 On ch=3 n=26 v=100
598639 On ch=3 n=26 v=100
598703 On ch=3 n=13 v=100
598895 Off ch=3 n=13 v=0
598900 Off ch=3 n=61 v=0
598917 Off ch=3 n=26 v=0
598917 Off ch=3 n=26 v=0
599024 On ch=3 n=45 v=100
599188 Off ch=3 n=45 v=0
599225 On ch=3 n=20 v=100
599303 Off ch=3 n=20 v=0
599312 On ch=3 n=4 v=100
599588 On ch=3 n=14 v=100
599620 Off ch=3 n=4 v=0
600082 On ch=3 n=7 v=100
600088 Off ch=3 n=14 v=0
600854 On ch=3 n=22 v=100
600859 Off ch=3 n=7 v=0
601039 Off ch=3 n=22 v=0
601949 On ch=3 n=38 v=100
601949 On ch=3 n=38 v=100
601977 On ch=3 n=30 v=100
602074 On ch=3 n=43 v=100
602075 On ch=3 n=22 v=100
602078 On ch=3 n=22 v=100
602079 Off ch=3 n=30 v=0
602104 Off ch=3 n=38 v=0
602104 Off ch=3 n=38 v=0
602312 Off ch=3 n=22 v=0
602360 Off ch=3 n=22 v=0
602533 On ch=3 n=10 v=100
602538 Off ch=3 n=43 v=0
602766 On ch=3 n=7 v=100
602766 Off ch=3 n=10 v=0
603019 Off ch=3 n=7 v=0
603021 On ch=3 n=7 v=100
603439 Off ch=3 n=7 v=0
603448 On ch=3 n=7 v=100
603839 Off ch=3 n=7 v=0
604463 On ch=3 n=33 v=100
604563 On ch=3 n=18 v=100
604923 Off ch=3 n=33 v=0
604923 Off ch=3 n=18 v=0
604995 On ch=3 n=18 v=100
604995 On ch=3 n=33 v=100
605113 Off ch=3 n=18 v=0
605264 Off ch=3 n=33 v=0
605280 On ch=3 n=13 v=100
605697 On ch=3 n=27 v=100
605864 Off ch=3 n=13 v=0
605940 On ch=3 n=21 v=100
606054 On ch=3 n=29 v=100
606223 Off ch=3 n=27 v=0
606417 Off ch=3 n=21 v=0
607350 Off ch=3 n=29 v=0
607596 On ch=3 n=36 v=100
607684 Off ch=3 n=36 v=0
608895 On ch=3 n=11 v=100
609060 On ch=3 n=8 v=100
609069 Off ch=3 n=11 v=0
609226 On ch=3 n=9 v=100
609430 On ch=3 n=6 v=100
609434 Off ch=3 n=8 v=0
609434 Off ch=3 n=9 v=0
609990 Off ch=3 n=6 v=0
609993 On ch=3 n=10 v=100
610644 Off ch=3 n=10 v=0
610855 On ch=3 n=24 v=100
610898 On ch=3 n=9 v=100
611004 Off ch=3 n=24 v=0
611103 Off ch=3 n=9 v=0
612388 On ch=3 n=7 v=100
612502 Off ch=3 n=7 v=0
612517 On ch=3 n=15 v=100
612837 On ch=3 n=7 v=100
612956 Off ch=3 n=15 v=0
613161 On ch=3 n=13 v=100
613162 Off ch=3 n=7 v=0
613380 Off ch=3 n=13 v=0
613667 On ch=3 n=9 v=100
614041 Off ch=3 n=9 v=0
614244 On ch=3 n=10 v=100
614461 On ch=3 n=22 v=100
614497 Off ch=3 n=10 v=0
614508 On ch=3 n=15 v=100
614691 On ch=3 n=10 v=100
614696 Off ch=3 n=22 v=0
614757 Off ch=3 n=15 v=0
614817 Off ch=3 n=10 v=0
614849 On ch=3 n=3 v=100
615424 Off ch=3 n=3 v=0
615465 On ch=3 n=3 v=100
616063 Off ch=3 n=3 v=0
616124 On ch=3 n=3 v=100
616412 Off ch=3 n=3 v=0
616480 On ch=3 n=24 v=100
616595 On ch=3 n=15 v=100
616597 On ch=3 n=18 v=100
616844 On ch=3 n=35 v=100
616938 Off ch=3 n=24 v=0
616939 Off ch=3 n=15 v=0
616971 On ch=3 n=32 v=100
616985 Off ch=3 n=18 v=0
617140 Off ch=3 n=35 v=0
617285 Off ch=3 n=32 v=0
620169 On ch=3 n=4 v=100
620706 Off ch=3 n=4 v=0
621909 On ch=3 n=6 v=100
622074 Off ch=3 n=6 v=0
622495 On ch=3 n=34 v=100
622540 On ch=3 n=7 v=100
622657 Off ch=3 n=34 v=0
622680 Off ch=3 n=7 v=0
628313 On ch=3 n=19 v=100
628418 On ch=3 n=21 v=100
628485 Off ch=3 n=19 v=0
628884 Off ch=3 n=21 v=0
629222 On ch=3 n=9 v=100
629501 On ch=3 n=13 v=100
629501 Off ch=3 n=9 v=0
629549 Off ch=3 n=13 v=0
629558 On ch=3 n=15 v=100
630274 Off ch=3 n=15 v=0
632507 On ch=3 n=27 v=100
632599 Off ch=3 n=27 v=0
636565 On ch=3 n=34 v=100
636736 Off ch=3 n=34 v=0
636795 On ch=3 n=16 v=100
637341 Off ch=3 n=16 v=0
637344 On ch=3 n=23 v=100
637424 Off ch=3 n=23 v=0
637596 On ch=3 n=41 v=100
637665 On ch=3 n=57 v=100
637790 Off ch=3 n=41 v=0
637957 Off ch=3 n=57 v=0
639763 On ch=3 n=18 v=100
639822 Off ch=3 n=18 v=0
641374 On ch=3 n=22 v=100
641690 Off ch=3 n=22 v=0
644778 On ch=3 n=25 v=100
645290 On ch=3 n=30 v=100
645341 Off ch=3 n=25 v=0
645353 Off ch=3 n=30 v=0
647699 On ch=3 n=16 v=100
647759 Off ch=3 n=16 v=0
649235 On ch=3 n=25 v=100
649564 Off ch=3 n=25 v=0
649778 On ch=3 n=40 v=100
649896 Off ch=3 n=40 v=0
651794 On ch=3 n=23 v=100
651830 On ch=3 n=13 v=100
651834 On ch=3 n=32 v=100
652121 Off ch=3 n=13 v=0
652125 Off ch=3 n=23 v=0
652221 Off ch=3 n=32 v=0
653719 On ch=3 n=26 v=100
654363 Off ch=3 n=26 v=0
660669 On ch=3 n=23 v=100
660862 Off ch=3 n=23 v=0
660901 On ch=3 n=36 v=100
661047 On ch=3 n=39 v=100
661047 On ch=3 n=39 v=100
661063 Off ch=3 n=36 v=0
661074 On ch=3 n=23 v=100
661205 Off ch=3 n=23 v=0
661222 On ch=3 n=14 v=100
661224 Off ch=3 n=39 v=0
661224 Off ch=3 n=39 v=0
661381 Off ch=3 n=14 v=0
663369 On ch=3 n=26 v=100
663552 Off ch=3 n=26 v=0
670711 On ch=3 n=6 v=100
670952 On ch=3 n=23 v=100
670969 Off ch=3 n=6 v=0
671005 Off ch=3 n=23 v=0
676780 On ch=3 n=17 v=100
676827 Off ch=3 n=17 v=0
676890 On ch=3 n=17 v=100
677081 Off ch=3 n=17 v=0
677492 On ch=3 n=6 v=100
677643 Off ch=3 n=6 v=0
677649 On ch=3 n=28 v=100
677811 Off ch=3 n=28 v=0
677882 On ch=3 n=14 v=100
678016 On ch=3 n=13 v=100
678363 On ch=3 n=37 v=100
678378 On ch=3 n=65 v=100
678380 Off ch=3 n=14 v=0
678380 Off ch=3 n=13 v=0
678391 On ch=3 n=12 v=100
678561 Off ch=3 n=37 v=0
678561 Off ch=3 n=12 v=0
678570 On ch=3 n=20 v=100
678583 On ch=3 n=68 v=100
678636 Off ch=3 n=65 v=0
678731 Off ch=3 n=20 v=0
678731 Off ch=3 n=68 v=0
678809 On ch=3 n=68 v=100
678830 On ch=3 n=61 v=100
678830 On ch=3 n=61 v=100
678836 Off ch=3 n=68 v=0
678873 On ch=3 n=9 v=100
679128 Off ch=3 n=9 v=0
679151 On ch=3 n=33 v=100
679179 Off ch=3 n=61 v=0
679179 Off ch=3 n=61 v=0
679244 Off ch=3 n=33 v=0
682710 On ch=3 n=28 v=100
682741 On ch=3 n=28 v=100
682749 On ch=3 n=42 v=100
682749 On ch=3 n=42 v=100
682774 On ch=3 n=28 v=100
682852 On ch=3 n=51 v=100
682955 Off ch=3 n=28 v=0
682961 Off ch=3 n=28 v=0
682973 Off ch=3 n=28 v=0
682998 Off ch=3 n=42 v=0
682998 Off ch=3 n=42 v=0
683024 Off ch=3 n=51 v=0
684932 On ch=3 n=39 v=100
684999 On ch=3 n=38 v=100
685240 Off ch=3 n=39 v=0
685342 Off ch=3 n=38 v=0
688723 On ch=3 n=30 v=100
688963 Off ch=3 n=30 v=0
693110 On ch=3 n=26 v=100
693110 On ch=3 n=26 v=100
693220 On ch=3 n=36 v=100
693220 On ch=3 n=10 v=100
693220 On ch=3 n=22 v=100
693220 On ch=3 n=36 v=100
693329 On ch=3 n=46 v=100
693459 Off ch=3 n=10 v=0
693461 Off ch=3 n=26 v=0
693461 Off ch=3 n=26 v=0
693535 Off ch=3 n=22 v=0
693577 Off ch=3 n=36 v=0
693577 Off ch=3 n=36 v=0
693695 On ch=3 n=25 v=100
693855 Off ch=3 n=46 v=0
693862 Off ch=3 n=25 v=0
694137 On ch=3 n=28 v=100
694276 Off ch=3 n=28 v=0
724901 On ch=3 n=39 v=100
724987 On ch=3 n=16 v=100
725145 Off ch=3 n=16 v=0
725146 Off ch=3 n=39 v=0
725155 On ch=3 n=39 v=100
725386 Off ch=3 n=39 v=0
725987 On ch=3 n=23 v=100
726065 On ch=3 n=51 v=100
726079 On ch=3 n=49 v=100
726151 Off ch=3 n=23 v=0
726162 Off ch=3 n=51 v=0
726211 Off ch=3 n=49 v=0
727367 On ch=3 n=26 v=100
727388 On ch=3 n=13 v=100
727431 On ch=3 n=14 v=100
727442 On ch=3 n=26 v=100
727809 Off ch=3 n=13 v=0
727905 Off ch=3 n=26 v=0
727905 Off ch=3 n=14 v=0
728001 Off ch=3 n=26 v=0
728748 On ch=3 n=10 v=100
728915 On ch=3 n=23 v=100
728915 On ch=3 n=14 v=100
728916 Off ch=3 n=10 v=0
729161 Off ch=3 n=14 v=0
729189 On ch=3 n=14 v=100
729205 Off ch=3 n=23 v=0
730107 Off ch=3 n=14 v=0
730220 On ch=3 n=40 v=100
730349 Off ch=3 n=40 v=0
730729 On ch=3 n=16 v=100
730775 Off ch=3 n=16 v=0
731569 On ch=3 n=3 v=100
732364 On ch=3 n=13 v=100
732403 On ch=3 n=6 v=100
732414 Off ch=3 n=3 v=0
732445 Off ch=3 n=13 v=0
732801 Off ch=3 n=6 v=0
732884 On ch=3 n=18 v=100
732985 Off ch=3 n=18 v=0
738026 On ch=3 n=6 v=100
739421 Off ch=3 n=6 v=0
740086 On ch=3 n=18 v=100
740150 On ch=3 n=10 v=100
740159 Off ch=3 n=18 v=0
740756 Off ch=3 n=10 v=0
741117 On ch=3 n=5 v=100
742132 Off ch=3 n=5 v=0
742134 On ch=3 n=10 v=100
742254 Off ch=3 n=10 v=0
742284 On ch=3 n=9 v=100
742601 Off ch=3 n=9 v=0
742664 On ch=3 n=10 v=100
742788 On ch=3 n=9 v=100
742789 Off ch=3 n=10 v=0
742853 On ch=3 n=3 v=100
742854 Off ch=3 n=9 v=0
743533 Off ch=3 n=3 v=0
743534 On ch=3 n=8 v=100
743730 Off ch=3 n=8 v=0
743810 On ch=3 n=19 v=100
743810 On ch=3 n=28 v=100
743854 On ch=3 n=42 v=100
743854 On ch=3 n=42 v=100
743963 On ch=3 n=6 v=100
743972 Off ch=3 n=19 v=0
744011 Off ch=3 n=28 v=0
744074 On ch=3 n=12 v=100
744075 Off ch=3 n=6 v=0
744121 Off ch=3 n=42 v=0
744121 Off ch=3 n=42 v=0
744283 On ch=3 n=9 v=100
744283 Off ch=3 n=12 v=0
744858 Off ch=3 n=9 v=0
745611 On ch=3 n=44 v=100
745693 Off ch=3 n=44 v=0
748622 On ch=3 n=25 v=100
748640 On ch=3 n=37 v=100
748649 On ch=3 n=16 v=100
748772 Off ch=3 n=16 v=0
748774 Off ch=3 n=25 v=0
748791 On ch=3 n=9 v=100
748796 Off ch=3 n=37 v=0
748993 Off ch=3 n=9 v=0
748998 On ch=3 n=7 v=100
749107 Off ch=3 n=7 v=0
749134 On ch=3 n=15 v=100
749664 Off ch=3 n=15 v=0
749669 On ch=3 n=7 v=100
749785 On ch=3 n=51 v=100
749833 Off ch=3 n=7 v=0
749839 On ch=3 n=23 v=100
749931 Off ch=3 n=51 v=0
750165 Off ch=3 n=23 v=0
750167 On ch=3 n=22 v=100
750348 On ch=3 n=24 v=100
750384 Off ch=3 n=22 v=0
750452 On ch=3 n=12 v=100
750486 On ch=3 n=8 v=100
750626 Off ch=3 n=24 v=0
750626 Off ch=3 n=12 v=0
750626 Off ch=3 n=8 v=0
750684 On ch=3 n=12 v=100
750776 Off ch=3 n=12 v=0
751971 On ch=3 n=28 v=100
752109 Off ch=3 n=28 v=0
752476 On ch=3 n=9 v=100
753346 On ch=3 n=9 v=100
753346 Off ch=3 n=9 v=0
753411 Off ch=3 n=9 v=0
753566 On ch=3 n=12 v=100
753783 Off ch=3 n=12 v=0
754620 On ch=3 n=16 v=100
754665 On ch=3 n=17 v=100
755044 Off ch=3 n=16 v=0
755146 Off ch=3 n=17 v=0
756317 On ch=3 n=10 v=100
756559 Off ch=3 n=10 v=0
756977 On ch=3 n=33 v=100
757043 On ch=3 n=20 v=100
757134 On ch=3 n=11 v=100
757277 Off ch=3 n=33 v=0
757400 On ch=3 n=4 v=100
757402 Off ch=3 n=20 v=0
757402 Off ch=3 n=11 v=0
757530 Off ch=3 n=4 v=0
758954 On ch=3 n=30 v=100
759147 Off ch=3 n=30 v=0
759537 On ch=3 n=25 v=100
759740 Off ch=3 n=25 v=0
759742 On ch=3 n=10 v=100
760011 Off ch=3 n=10 v=0
760083 On ch=3 n=9 v=100
760465 Off ch=3 n=9 v=0
760499 On ch=3 n=19 v=100
760586 Off ch=3 n=19 v=0
760911 On ch=3 n=24 v=100
760913 On ch=3 n=17 v=100
760991 Off ch=3 n=17 v=0
761078 Off ch=3 n=24 v=0
761235 On ch=3 n=34 v=100
761375 Off ch=3 n=34 v=0
762859 On ch=3 n=3 v=100
764020 Off ch=3 n=3 v=0
764066 On ch=3 n=2 v=100
764873 Off ch=3 n=2 v=0
765441 On ch=3 n=2 v=100
765562 On ch=3 n=38 v=100
765618 Off ch=3 n=2 v=0
765618 Off ch=3 n=38 v=0
765681 On ch=3 n=38 v=100
765783 Off ch=3 n=38 v=0
765878 On ch=3 n=15 v=100
766073 Off ch=3 n=15 v=0
766191 On ch=3 n=16 v=100
766339 Off ch=3 n=16 v=0
766344 On ch=3 n=12 v=100
767055 Off ch=3 n=12 v=0
767650 On ch=3 n=34 v=100
767700 On ch=3 n=12 v=100
767714 Off ch=3 n=34 v=0
767982 Off ch=3 n=12 v=0
767994 On ch=3 n=11 v=100
768155 Off ch=3 n=11 v=0
768157 On ch=3 n=13 v=100
768357 Off ch=3 n=13 v=0
773214 On ch=3 n=21 v=100
773440 On ch=3 n=14 v=100
773490 Off ch=3 n=21 v=0
773756 Off ch=3 n=14 v=0
778355 On ch=3 n=16 v=100
778846 On ch=3 n=14 v=100
778889 Off ch=3 n=16 v=0
778895 On ch=3 n=8 v=100
779166 Off ch=3 n=14 v=0
779166 Off ch=3 n=8 v=0
779169 On ch=3 n=4 v=100
779169 On ch=3 n=7 v=100
779255 Off ch=3 n=4 v=0
779262 On ch=3 n=15 v=100
779275 Off ch=3 n=7 v=0
779296 Off ch=3 n=15 v=0
779308 On ch=3 n=11 v=100
779389 Off ch=3 n=11 v=0
779944 On ch=3 n=18 v=100
779991 Off ch=3 n=18 v=0
780442 On ch=3 n=19 v=100
780791 Off ch=3 n=19 v=0
780827 On ch=3 n=27 v=100
781205 Off ch=3 n=27 v=0
781206 On ch=3 n=22 v=100
781275 Off ch=3 n=22 v=0
782809 On ch=3 n=11 v=100
783326 Off ch=3 n=11 v=0
784031 On ch=3 n=7 v=100
784076 Off ch=3 n=7 v=0
784077 On ch=3 n=4 v=100
784325 Off ch=3 n=4 v=0
784328 On ch=3 n=5 v=100
784861 Off ch=3 n=5 v=0
784864 On ch=3 n=5 v=100
785121 On ch=3 n=9 v=100
785123 Off ch=3 n=5 v=0
786207 Off ch=3 n=9 v=0
786940 On ch=3 n=29 v=100
786947 On ch=3 n=50 v=100
787044 Off ch=3 n=29 v=0
787062 Off ch=3 n=50 v=0
787194 On ch=3 n=21 v=100
787391 Off ch=3 n=21 v=0
787424 On ch=3 n=21 v=100
787659 Off ch=3 n=21 v=0
787779 On ch=3 n=9 v=100
787965 Off ch=3 n=9 v=0
787972 On ch=3 n=18 v=100
788043 On ch=3 n=11 v=100
788051 Off ch=3 n=18 v=0
788493 Off ch=3 n=11 v=0
788494 On ch=3 n=10 v=100
789016 On ch=3 n=9 v=100
789051 Off ch=3 n=10 v=0
790490 Off ch=3 n=9 v=0
790494 On ch=3 n=9 v=100
790537 Off ch=3 n=9 v=0
790690 On ch=3 n=42 v=100
790812 Off ch=3 n=42 v=0
795179 On ch=3 n=15 v=100
795329 Off ch=3 n=15 v=0
795333 On ch=3 n=18 v=100
795359 On ch=3 n=12 v=100
795400 Off ch=3 n=18 v=0
795623 On ch=3 n=55 v=100
795712 Off ch=3 n=12 v=0
795827 On ch=3 n=32 v=100
795827 On ch=3 n=32 v=100
795839 On ch=3 n=13 v=100
796014 Off ch=3 n=13 v=0
796048 Off ch=3 n=55 v=0
796049 Off ch=3 n=32 v=0
796049 Off ch=3 n=32 v=0
796181 On ch=3 n=4 v=100
797381 Off ch=3 n=4 v=0
798807 On ch=3 n=13 v=100
799232 Off ch=3 n=13 v=0
799233 On ch=3 n=12 v=100
799658 On ch=3 n=13 v=100
799693 Off ch=3 n=12 v=0
799905 Off ch=3 n=13 v=0
804807 On ch=3 n=14 v=100
804880 Off ch=3 n=14 v=0
804937 On ch=3 n=10 v=100
805179 Off ch=3 n=10 v=0
805269 On ch=3 n=7 v=100
805364 On ch=3 n=19 v=100
805396 Off ch=3 n=7 v=0
805416 On ch=3 n=8 v=100
805497 Off ch=3 n=19 v=0
805889 Off ch=3 n=8 v=0
805892 On ch=3 n=7 v=100
806467 Off ch=3 n=7 v=0
806581 On ch=3 n=32 v=100
806918 Off ch=3 n=32 v=0
807012 On ch=3 n=32 v=100
807069 Off ch=3 n=32 v=0
808708 On ch=3 n=36 v=100
808717 On ch=3 n=43 v=100
808717 On ch=3 n=43 v=100
808755 On ch=3 n=31 v=100
808861 Off ch=3 n=36 v=0
808861 Off ch=3 n=31 v=0
808890 Off ch=3 n=43 v=0
808890 Off ch=3 n=43 v=0
809159 On ch=3 n=6 v=100
809668 On ch=3 n=14 v=100
809669 Off ch=3 n=6 v=0
809903 Off ch=3 n=14 v=0
809914 On ch=3 n=14 v=100
810329 Off ch=3 n=14 v=0
810332 On ch=3 n=3 v=100
811329 On ch=3 n=14 v=100
811552 Off ch=3 n=3 v=0
811558 Off ch=3 n=14 v=0
811605 On ch=3 n=3 v=100
811844 Off ch=3 n=3 v=0
811846 On ch=3 n=1 v=100
811913 Off ch=3 n=1 v=0
863727 On ch=3 n=4 v=100
865063 Off ch=3 n=4 v=0
865099 On ch=3 n=4 v=100
865256 Off ch=3 n=4 v=0
865305 On ch=3 n=4 v=100
865770 Off ch=3 n=4 v=0
896748 On ch=3 n=21 v=100
897203 Off ch=3 n=21 v=0
897479 On ch=3 n=26 v=100
897493 Off ch=3 n=26 v=0
897531 On ch=3 n=26 v=100
897576 Off ch=3 n=26 v=0
897590 On ch=3 n=26 v=100
897866 Off ch=3 n=26 v=0
897868 On ch=3 n=41 v=100
898032 Off ch=3 n=41 v=0
898230 On ch=3 n=35 v=100
898246 On ch=3 n=37 v=100
898252 On ch=3 n=11 v=100
898369 Off ch=3 n=35 v=0
898444 Off ch=3 n=11 v=0
898550 Off ch=3 n=37 v=0
898676 On ch=3 n=18 v=100
898755 Off ch=3 n=18 v=0
899488 On ch=3 n=28 v=100
899639 On ch=3 n=39 v=100
899639 On ch=3 n=56 v=100
899664 Off ch=3 n=28 v=0
899704 On ch=3 n=48 v=100
899706 On ch=3 n=8 v=100
899708 On ch=3 n=42 v=100
899718 On ch=3 n=35 v=100
899766 Off ch=3 n=39 v=0
899770 Off ch=3 n=8 v=0
899781 Off ch=3 n=42 v=0
899794 Off ch=3 n=48 v=0
899811 Off ch=3 n=56 v=0
899857 Off ch=3 n=35 v=0
900514 On ch=3 n=15 v=100
900740 Off ch=3 n=15 v=0
900745 On ch=3 n=8 v=100
901229 On ch=3 n=36 v=100
901361 On ch=3 n=13 v=100
901361 Off ch=3 n=8 v=0
901554 Off ch=3 n=36 v=0
901567 Off ch=3 n=13 v=0
901608 On ch=3 n=33 v=100
901780 Off ch=3 n=33 v=0
902248 On ch=3 n=41 v=100
902248 On ch=3 n=41 v=100
902277 On ch=3 n=30 v=100
902363 On ch=3 n=59 v=100
902570 Off ch=3 n=30 v=0
902580 On ch=3 n=15 v=100
902609 Off ch=3 n=41 v=0
902609 Off ch=3 n=41 v=0
902671 Off ch=3 n=59 v=0
902944 On ch=3 n=17 v=100
902963 Off ch=3 n=15 v=0
903056 On ch=3 n=18 v=100
903174 Off ch=3 n=17 v=0
903213 Off ch=3 n=18 v=0
903617 On ch=3 n=8 v=100
903891 Off ch=3 n=8 v=0
904803 On ch=3 n=33 v=100
904907 Off ch=3 n=33 v=0
905609 On ch=3 n=11 v=100
905847 Off ch=3 n=11 v=0
905850 On ch=3 n=27 v=100
906120 Off ch=3 n=27 v=0
906142 On ch=3 n=10 v=100
907480 Off ch=3 n=10 v=0
907492 On ch=3 n=31 v=100
907714 On ch=3 n=29 v=100
907715 Off ch=3 n=31 v=0
907818 Off ch=3 n=29 v=0
908498 On ch=3 n=28 v=100
908520 On ch=3 n=13 v=100
908584 Off ch=3 n=28 v=0
908656 On ch=3 n=39 v=100
908696 Off ch=3 n=13 v=0
908741 Off ch=3 n=39 v=0
909986 On ch=3 n=4 v=100
909987 On ch=3 n=49 v=100
910125 On ch=3 n=7 v=100
910169 Off ch=3 n=4 v=0
910200 Off ch=3 n=49 v=0
910781 On ch=3 n=8 v=100
910882 Off ch=3 n=7 v=0
910947 On ch=3 n=6 v=100
910950 Off ch=3 n=8 v=0
911470 Off ch=3 n=6 v=0
911471 On ch=3 n=5 v=100
911610 Off ch=3 n=5 v=0
911627 On ch=3 n=18 v=100
911669 Off ch=3 n=18 v=0
911843 On ch=3 n=8 v=100
912249 Off ch=3 n=8 v=0
912356 On ch=3 n=35 v=100
912557 On ch=3 n=47 v=100
912573 On ch=3 n=32 v=100
912574 Off ch=3 n=35 v=0
912583 On ch=3 n=39 v=100
912591 On ch=3 n=36 v=100
912612 On ch=3 n=34 v=100
912612 On ch=3 n=34 v=100
912727 Off ch=3 n=32 v=0
912727 Off ch=3 n=36 v=0
912733 Off ch=3 n=47 v=0
912812 Off ch=3 n=39 v=0
912823 On ch=3 n=21 v=100
913100 Off ch=3 n=21 v=0
913120 Off ch=3 n=34 v=0
913120 Off ch=3 n=34 v=0
913590 On ch=3 n=43 v=100
913767 Off ch=3 n=43 v=0
914179 On ch=3 n=25 v=100
914291 Off ch=3 n=25 v=0
915527 On ch=3 n=12 v=100
915638 Off ch=3 n=12 v=0
915640 On ch=3 n=11 v=100
916057 On ch=3 n=16 v=100
916078 Off ch=3 n=11 v=0
916088 On ch=3 n=4 v=100
916279 Off ch=3 n=16 v=0
916279 Off ch=3 n=4 v=0
916280 On ch=3 n=4 v=100
917131 On ch=3 n=6 v=100
917134 Off ch=3 n=4 v=0
917196 On ch=3 n=36 v=100
917289 Off ch=3 n=6 v=0
917490 On ch=3 n=20 v=100
917540 On ch=3 n=16 v=100
917540 On ch=3 n=16 v=100
917938 Off ch=3 n=36 v=0
917972 Off ch=3 n=20 v=0
918031 On ch=3 n=42 v=100
918056 On ch=3 n=25 v=100
918056 On ch=3 n=32 v=100
918126 On ch=3 n=44 v=100
918126 On ch=3 n=44 v=100
918204 Off ch=3 n=16 v=0
918204 Off ch=3 n=16 v=0
918235 Off ch=3 n=25 v=0
918242 Off ch=3 n=42 v=0
918263 Off ch=3 n=44 v=0
918263 Off ch=3 n=44 v=0
918267 Off ch=3 n=32 v=0
918554 On ch=3 n=42 v=100
918590 On ch=3 n=18 v=100
918596 On ch=3 n=25 v=100
918627 On ch=3 n=54 v=100
918833 Off ch=3 n=42 v=0
918833 Off ch=3 n=18 v=0
918868 Off ch=3 n=25 v=0
918996 Off ch=3 n=54 v=0
919624 On ch=3 n=8 v=100
919873 On ch=3 n=26 v=100
919902 Off ch=3 n=8 v=0
919995 Off ch=3 n=26 v=0
920205 On ch=3 n=19 v=100
920251 Off ch=3 n=19 v=0
920269 On ch=3 n=10 v=100
920407 Off ch=3 n=10 v=0
920411 On ch=3 n=13 v=100
921241 On ch=3 n=16 v=100
921497 On ch=3 n=27 v=100
921597 Off ch=3 n=13 v=0
921641 Off ch=3 n=16 v=0
921687 Off ch=3 n=27 v=0
922151 On ch=3 n=45 v=100
922151 On ch=3 n=45 v=100
922170 On ch=3 n=9 v=100
922500 Off ch=3 n=9 v=0
922507 On ch=3 n=7 v=100
922762 On ch=3 n=12 v=100
922764 Off ch=3 n=45 v=0
922764 Off ch=3 n=45 v=0
922765 Off ch=3 n=7 v=0
923388 Off ch=3 n=12 v=0
923993 On ch=3 n=38 v=100
923995 On ch=3 n=20 v=100
924074 Off ch=3 n=20 v=0
924114 Off ch=3 n=38 v=0
924977 On ch=3 n=10 v=100
925342 On ch=3 n=51 v=100
925380 Off ch=3 n=10 v=0
925384 On ch=3 n=4 v=100
925515 On ch=3 n=15 v=100
925518 On ch=3 n=26 v=100
925528 On ch=3 n=6 v=100
925528 Off ch=3 n=4 v=0
925719 Off ch=3 n=6 v=0
925720 On ch=3 n=7 v=100
925729 Off ch=3 n=15 v=0
925736 Off ch=3 n=51 v=0
925759 Off ch=3 n=26 v=0
926231 On ch=3 n=19 v=100
926255 Off ch=3 n=7 v=0
926529 On ch=3 n=8 v=100
926531 Off ch=3 n=19 v=0
927166 On ch=3 n=23 v=100
927301 On ch=3 n=11 v=100
927302 Off ch=3 n=8 v=0
927325 Off ch=3 n=23 v=0
927814 Off ch=3 n=11 v=0
927993 On ch=3 n=17 v=100
928002 On ch=3 n=46 v=100
928037 On ch=3 n=37 v=100
928042 Off ch=3 n=17 v=0
928120 On ch=3 n=34 v=100
928130 On ch=3 n=23 v=100
928130 On ch=3 n=31 v=100
928136 Off ch=3 n=37 v=0
928206 Off ch=3 n=23 v=0
928208 Off ch=3 n=46 v=0
928208 Off ch=3 n=34 v=0
928234 Off ch=3 n=31 v=0
928407 On ch=3 n=47 v=100
928489 Off ch=3 n=47 v=0
929270 On ch=3 n=7 v=100
929280 On ch=3 n=35 v=100
929281 On ch=3 n=28 v=100
929322 Off ch=3 n=7 v=0
929331 Off ch=3 n=28 v=0
929363 Off ch=3 n=35 v=0
930022 On ch=3 n=15 v=100
930263 Off ch=3 n=15 v=0
930264 On ch=3 n=10 v=100
930673 On ch=3 n=33 v=100
930793 Off ch=3 n=10 v=0
930794 On ch=3 n=7 v=100
930911 Off ch=3 n=33 v=0
930956 On ch=3 n=12 v=100
930961 Off ch=3 n=7 v=0
931159 Off ch=3 n=12 v=0
931555 On ch=3 n=19 v=100
931709 Off ch=3 n=19 v=0
932036 On ch=3 n=19 v=100
932109 On ch=3 n=21 v=100
932370 On ch=3 n=21 v=100
932530 Off ch=3 n=19 v=0
932708 On ch=3 n=31 v=100
932801 Off ch=3 n=21 v=0
933071 On ch=3 n=26 v=100
933127 Off ch=3 n=21 v=0
933327 Off ch=3 n=31 v=0
933637 Off ch=3 n=26 v=0
934093 On ch=3 n=14 v=100
934391 Off ch=3 n=14 v=0
934392 On ch=3 n=11 v=100
934741 Off ch=3 n=11 v=0
934742 On ch=3 n=14 v=100
934888 Off ch=3 n=14 v=0
934896 On ch=3 n=20 v=100
935589 On ch=3 n=32 v=100
935590 Off ch=3 n=20 v=0
935693 Off ch=3 n=32 v=0
936544 On ch=3 n=11 v=100
937610 Off ch=3 n=11 v=0
937634 On ch=3 n=2 v=100
937859 Off ch=3 n=2 v=0
940088 On ch=3 n=4 v=100
941297 Off ch=3 n=4 v=0
941509 On ch=3 n=12 v=100
941729 Off ch=3 n=12 v=0
941744 On ch=3 n=15 v=100
941768 On ch=3 n=3 v=100
941902 Off ch=3 n=15 v=0
941902 Off ch=3 n=3 v=0
941910 On ch=3 n=18 v=100
941998 Off ch=3 n=18 v=0
942035 On ch=3 n=11 v=100
942080 On ch=3 n=5 v=100
942096 Off ch=3 n=11 v=0
942387 Off ch=3 n=5 v=0
942400 On ch=3 n=6 v=100
942560 Off ch=3 n=6 v=0
942868 On ch=3 n=34 v=100
943123 On ch=3 n=24 v=100
943159 Off ch=3 n=34 v=0
943305 Off ch=3 n=24 v=0
943338 On ch=3 n=26 v=100
943390 Off ch=3 n=26 v=0
944370 On ch=3 n=18 v=100
944485 Off ch=3 n=18 v=0
944490 On ch=3 n=17 v=100
944741 Off ch=3 n=17 v=0
944745 On ch=3 n=7 v=100
944924 On ch=3 n=7 v=100
944931 Off ch=3 n=7 v=0
945378 On ch=3 n=14 v=100
945378 Off ch=3 n=7 v=0
945504 Off ch=3 n=14 v=0
945536 On ch=3 n=11 v=100
946039 Off ch=3 n=11 v=0
946761 On ch=3 n=19 v=100
946995 Off ch=3 n=19 v=0
947101 On ch=3 n=26 v=100
947101 On ch=3 n=10 v=100
947163 Off ch=3 n=10 v=0
947165 On ch=3 n=33 v=100
947177 Off ch=3 n=26 v=0
947375 Off ch=3 n=33 v=0
947717 On ch=3 n=15 v=100
947840 Off ch=3 n=15 v=0
948414 On ch=3 n=35 v=100
948560 Off ch=3 n=35 v=0
948568 On ch=3 n=15 v=100
949270 On ch=3 n=6 v=100
949335 Off ch=3 n=15 v=0
949866 Off ch=3 n=6 v=0
949869 On ch=3 n=13 v=100
950158 Off ch=3 n=13 v=0
950235 On ch=3 n=40 v=100
950257 On ch=3 n=30 v=100
950273 On ch=3 n=42 v=100
950276 On ch=3 n=26 v=100
950415 Off ch=3 n=30 v=0
950416 Off ch=3 n=40 v=0
950417 Off ch=3 n=26 v=0
950469 Off ch=3 n=42 v=0
950790 On ch=3 n=42 v=100
950907 Off ch=3 n=42 v=0
951087 On ch=3 n=27 v=100
951225 Off ch=3 n=27 v=0
951254 On ch=3 n=26 v=100
951575 Off ch=3 n=26 v=0
952465 On ch=3 n=33 v=100
952524 On ch=3 n=30 v=100
952531 On ch=3 n=32 v=100
952549 On ch=3 n=22 v=100
952614 Off ch=3 n=33 v=0
952686 Off ch=3 n=30 v=0
952699 Off ch=3 n=22 v=0
952712 Off ch=3 n=32 v=0
953062 On ch=3 n=47 v=100
953116 On ch=3 n=27 v=100
953236 Off ch=3 n=47 v=0
953301 Off ch=3 n=27 v=0
953302 On ch=3 n=17 v=100
953650 On ch=3 n=26 v=100
953666 Off ch=3 n=17 v=0
953753 Off ch=3 n=26 v=0
955806 On ch=3 n=26 v=100
955894 Off ch=3 n=26 v=0
956126 On ch=3 n=28 v=100
956136 On ch=3 n=36 v=100
956250 Off ch=3 n=28 v=0
956265 Off ch=3 n=36 v=0
956753 On ch=3 n=24 v=100
956908 Off ch=3 n=24 v=0
958607 On ch=3 n=15 v=100
958685 On ch=3 n=13 v=100
958685 On ch=3 n=13 v=100
958709 On ch=3 n=8 v=100
958749 On ch=3 n=13 v=100
959045 On ch=3 n=41 v=100
959104 Off ch=3 n=15 v=0
959113 On ch=3 n=27 v=100
959127 Off ch=3 n=8 v=0
959157 Off ch=3 n=13 v=0
959157 Off ch=3 n=13 v=0
959164 On ch=3 n=42 v=100
959166 On ch=3 n=17 v=100
959276 Off ch=3 n=13 v=0
959361 Off ch=3 n=41 v=0
959395 Off ch=3 n=27 v=0
959397 Off ch=3 n=17 v=0
959442 Off ch=3 n=42 v=0
961702 On ch=3 n=20 v=100
961944 Off ch=3 n=20 v=0
962631 On ch=3 n=17 v=100
962864 Off ch=3 n=17 v=0
963281 On ch=3 n=40 v=100
963301 On ch=3 n=32 v=100
963301 On ch=3 n=32 v=100
963356 On ch=3 n=30 v=100
963356 On ch=3 n=30 v=100
963362 On ch=3 n=26 v=100
963425 Off ch=3 n=40 v=0
963612 Off ch=3 n=26 v=0
963643 Off ch=3 n=30 v=0
963643 Off ch=3 n=30 v=0
963663 Off ch=3 n=32 v=0
963663 Off ch=3 n=32 v=0
964878 On ch=3 n=9 v=100
965107 On ch=3 n=11 v=100
965107 Off ch=3 n=9 v=0
965511 Off ch=3 n=11 v=0
966185 On ch=3 n=7 v=100
966254 Off ch=3 n=7 v=0
966788 On ch=3 n=16 v=100
967278 Off ch=3 n=16 v=0
967329 On ch=3 n=32 v=100
967396 On ch=3 n=39 v=100
967400 Off ch=3 n=32 v=0
967424 On ch=3 n=41 v=100
967427 On ch=3 n=42 v=100
967552 On ch=3 n=41 v=100
967670 Off ch=3 n=41 v=0
967673 Off ch=3 n=39 v=0
967685 On ch=3 n=34 v=100
967715 Off ch=3 n=42 v=0
967778 Off ch=3 n=41 v=0
967883 Off ch=3 n=34 v=0
967928 On ch=3 n=27 v=100
968058 Off ch=3 n=27 v=0
968175 On ch=3 n=8 v=100
968438 Off ch=3 n=8 v=0
968440 On ch=3 n=9 v=100
969517 Off ch=3 n=9 v=0
969518 On ch=3 n=8 v=100
969590 Off ch=3 n=8 v=0
970644 On ch=3 n=13 v=100
971331 Off ch=3 n=13 v=0
972811 On ch=3 n=27 v=100
972929 Off ch=3 n=27 v=0
974720 On ch=3 n=10 v=100
974907 Off ch=3 n=10 v=0
974911 On ch=3 n=11 v=100
975612 On ch=3 n=7 v=100
975613 Off ch=3 n=11 v=0
976380 On ch=3 n=9 v=100
976380 Off ch=3 n=7 v=0
976532 Off ch=3 n=9 v=0
976704 On ch=3 n=18 v=100
976900 On ch=3 n=18 v=100
976905 Off ch=3 n=18 v=0
977076 Off ch=3 n=18 v=0
977412 On ch=3 n=20 v=100
978022 Off ch=3 n=20 v=0
978024 On ch=3 n=10 v=100
978467 On ch=3 n=21 v=100
978467 Off ch=3 n=10 v=0
978508 Off ch=3 n=21 v=0
979563 On ch=3 n=7 v=100
980868 Off ch=3 n=7 v=0
980870 On ch=3 n=11 v=100
981239 Off ch=3 n=11 v=0
981865 On ch=3 n=5 v=100
983522 Off ch=3 n=5 v=0
983802 On ch=3 n=9 v=100
984587 On ch=3 n=8 v=100
984596 Off ch=3 n=9 v=0
984900 Off ch=3 n=8 v=0
985669 On ch=3 n=8 v=100
985826 On ch=3 n=10 v=100
985833 Off ch=3 n=8 v=0
985929 On ch=3 n=8 v=100
985932 Off ch=3 n=10 v=0
986031 On ch=3 n=6 v=100
986031 Off ch=3 n=8 v=0
986132 Off ch=3 n=6 v=0
986134 On ch=3 n=5 v=100
986243 Off ch=3 n=5 v=0
986252 On ch=3 n=10 v=100
986418 On ch=3 n=11 v=100
986430 Off ch=3 n=10 v=0
986723 Off ch=3 n=11 v=0
987600 On ch=3 n=30 v=100
987609 On ch=3 n=12 v=100
987717 Off ch=3 n=12 v=0
987724 Off ch=3 n=30 v=0
987893 On ch=3 n=40 v=100
987910 On ch=3 n=42 v=100
987950 Off ch=3 n=40 v=0
987950 Off ch=3 n=42 v=0
987981 On ch=3 n=31 v=100
987981 On ch=3 n=40 v=100
987981 On ch=3 n=42 v=100
988010 Off ch=3 n=31 v=0
988022 Off ch=3 n=40 v=0
988029 On ch=3 n=8 v=100
988084 Off ch=3 n=42 v=0
988162 On ch=3 n=55 v=100
988847 Off ch=3 n=8 v=0
988852 On ch=3 n=9 v=100
989092 On ch=3 n=17 v=100
989147 On ch=3 n=32 v=100
989149 Off ch=3 n=55 v=0
989165 Off ch=3 n=9 v=0
989229 Off ch=3 n=17 v=0
989273 Off ch=3 n=32 v=0
990644 On ch=3 n=50 v=100
990694 On ch=3 n=31 v=100
990716 On ch=3 n=12 v=100
990793 On ch=3 n=36 v=100
990845 Off ch=3 n=50 v=0
990846 Off ch=3 n=31 v=0
990846 Off ch=3 n=12 v=0
991056 Off ch=3 n=36 v=0
991288 On ch=3 n=19 v=100
991371 Off ch=3 n=19 v=0
991629 On ch=3 n=21 v=100
991714 Off ch=3 n=21 v=0
993005 On ch=3 n=24 v=100
993055 On ch=3 n=9 v=100
993203 Off ch=3 n=24 v=0
993309 Off ch=3 n=9 v=0
993312 On ch=3 n=6 v=100
994197 On ch=3 n=30 v=100
994197 On ch=3 n=30 v=100
994242 On ch=3 n=46 v=100
994270 On ch=3 n=30 v=100
994275 Off ch=3 n=6 v=0
994304 On ch=3 n=35 v=100
994365 Off ch=3 n=46 v=0
994381 Off ch=3 n=30 v=0
994381 Off ch=3 n=30 v=0
994385 On ch=3 n=12 v=100
994389 Off ch=3 n=30 v=0
994459 Off ch=3 n=35 v=0
995185 On ch=3 n=29 v=100
995185 Off ch=3 n=12 v=0
995187 On ch=3 n=15 v=100
995188 On ch=3 n=27 v=100
995306 Off ch=3 n=15 v=0
995330 Off ch=3 n=27 v=0
995349 Off ch=3 n=29 v=0
995977 On ch=3 n=11 v=100
995984 On ch=3 n=27 v=100
996365 Off ch=3 n=11 v=0
996485 Off ch=3 n=27 v=0
996822 On ch=3 n=39 v=100
996911 On ch=3 n=19 v=100
996937 On ch=3 n=20 v=100
996940 On ch=3 n=15 v=100
997092 Off ch=3 n=39 v=0
997092 Off ch=3 n=19 v=0
997093 Off ch=3 n=15 v=0
997177 Off ch=3 n=20 v=0
997334 On ch=3 n=13 v=100
997634 Off ch=3 n=13 v=0
997719 On ch=3 n=41 v=100
997904 Off ch=3 n=41 v=0
997951 On ch=3 n=29 v=100
997951 On ch=3 n=29 v=100
998018 On ch=3 n=15 v=100
998130 On ch=3 n=13 v=100
998133 On ch=3 n=16 v=100
998203 On ch=3 n=31 v=100
998504 Off ch=3 n=15 v=0
998546 Off ch=3 n=29 v=0
998546 Off ch=3 n=29 v=0
998554 Off ch=3 n=13 v=0
998667 Off ch=3 n=16 v=0
998770 Off ch=3 n=31 v=0
998986 On ch=3 n=12 v=100
999087 Off ch=3 n=12 v=0
999116 On ch=3 n=12 v=100
999138 Off ch=3 n=12 v=0
1000009 On ch=3 n=13 v=100
1000010 On ch=3 n=36 v=100
1000476 Off ch=3 n=13 v=0
1000533 Off ch=3 n=36 v=0
1001056 On ch=3 n=6 v=100
1001394 On ch=3 n=42 v=100
1001413 On ch=3 n=1 v=100
1001438 Off ch=3 n=6 v=0
1001494 Off ch=3 n=42 v=0
1001780 Off ch=3 n=1 v=0
1002635 On ch=3 n=18 v=100
1002635 On ch=3 n=18 v=100
1003275 Off ch=3 n=18 v=0
1003421 Off ch=3 n=18 v=0
1003463 On ch=3 n=23 v=100
1003636 Off ch=3 n=23 v=0
1003689 On ch=3 n=23 v=100
1003768 Off ch=3 n=23 v=0
1003963 On ch=3 n=14 v=100
1004031 On ch=3 n=22 v=100
1004044 Off ch=3 n=14 v=0
1004050 On ch=3 n=31 v=100
1004050 On ch=3 n=31 v=100
1004068 On ch=3 n=20 v=100
1004138 Off ch=3 n=22 v=0
1004152 Off ch=3 n=20 v=0
1004208 Off ch=3 n=31 v=0
1004208 Off ch=3 n=31 v=0
1004244 On ch=3 n=5 v=100
1004276 On ch=3 n=13 v=100
1004324 Off ch=3 n=5 v=0
1004349 On ch=3 n=17 v=100
1004358 Off ch=3 n=13 v=0
1004436 Off ch=3 n=17 v=0
1004454 On ch=3 n=20 v=100
1004534 Off ch=3 n=20 v=0
1005683 On ch=3 n=36 v=100
1005778 On ch=3 n=17 v=100
1005829 Off ch=3 n=36 v=0
1006195 Off ch=3 n=17 v=0
1006275 On ch=3 n=47 v=100
1006345 On ch=3 n=18 v=100
1006373 On ch=3 n=9 v=100
1006373 On ch=3 n=9 v=100
1006448 On ch=3 n=19 v=100
1006475 Off ch=3 n=47 v=0
1006492 On ch=3 n=27 v=100
1006492 On ch=3 n=27 v=100
1006604 Off ch=3 n=18 v=0
1006604 Off ch=3 n=9 v=0
1006604 Off ch=3 n=9 v=0
1006607 On ch=3 n=39 v=100
1006630 Off ch=3 n=19 v=0
1006726 On ch=3 n=21 v=100
1006929 On ch=3 n=19 v=100
1006947 Off ch=3 n=27 v=0
1006947 Off ch=3 n=27 v=0
1006978 Off ch=3 n=21 v=0
1007135 Off ch=3 n=39 v=0
1007325 Off ch=3 n=19 v=0
1008931 On ch=3 n=36 v=100
1008947 On ch=3 n=37 v=100
1008984 On ch=3 n=47 v=100
1008987 On ch=3 n=34 v=100
1008988 On ch=3 n=46 v=100
1008994 On ch=3 n=31 v=100
1009070 Off ch=3 n=36 v=0
1009164 Off ch=3 n=37 v=0
1009164 Off ch=3 n=31 v=0
1009187 Off ch=3 n=34 v=0
1009224 Off ch=3 n=46 v=0
1009266 On ch=3 n=35 v=100
1009367 Off ch=3 n=47 v=0
1009372 Off ch=3 n=35 v=0
1009442 On ch=3 n=12 v=100
1009942 Off ch=3 n=12 v=0
1010874 On ch=3 n=5 v=100
1011481 Off ch=3 n=5 v=0
1011492 On ch=3 n=7 v=100
1011919 Off ch=3 n=7 v=0
1011921 On ch=3 n=17 v=100
1012032 On ch=3 n=7 v=100
1012271 Off ch=3 n=17 v=0
1012271 Off ch=3 n=7 v=0
1012433 On ch=3 n=14 v=100
1012846 Off ch=3 n=14 v=0
1013078 On ch=3 n=11 v=100
1013499 On ch=3 n=46 v=100
1013607 Off ch=3 n=11 v=0
1013964 On ch=3 n=34 v=100
1014068 Off ch=3 n=46 v=0
1014185 Off ch=3 n=34 v=0
1015145 On ch=3 n=10 v=100
1015569 Off ch=3 n=10 v=0
1015593 On ch=3 n=8 v=100
1016213 Off ch=3 n=8 v=0
1016223 On ch=3 n=12 v=100
1016515 On ch=3 n=12 v=100
1016592 Off ch=3 n=12 v=0
1016619 Off ch=3 n=12 v=0
1017034 On ch=3 n=14 v=100
1017084 On ch=3 n=14 v=100
1017094 Off ch=3 n=14 v=0
1017276 Off ch=3 n=14 v=0
1017280 On ch=3 n=11 v=100
1017336 Off ch=3 n=11 v=0
1017339 On ch=3 n=15 v=100
1017634 Off ch=3 n=15 v=0
1019039 On ch=3 n=41 v=100
1019065 On ch=3 n=38 v=100
1019168 Off ch=3 n=41 v=0
1019189 Off ch=3 n=38 v=0
1019883 On ch=3 n=7 v=100
1020209 Off ch=3 n=7 v=0
1021514 On ch=3 n=21 v=100
1021628 Off ch=3 n=21 v=0
1023066 On ch=3 n=12 v=100
1023170 Off ch=3 n=12 v=0
1023205 On ch=3 n=12 v=100
1023919 Off ch=3 n=12 v=0
1023923 On ch=3 n=29 v=100
1024192 Off ch=3 n=29 v=0
1024741 On ch=3 n=7 v=100
1025050 Off ch=3 n=7 v=0
1025126 On ch=3 n=31 v=100
1025155 Off ch=3 n=31 v=0
1025192 On ch=3 n=31 v=100
1025468 Off ch=3 n=31 v=0
1025971 On ch=3 n=6 v=100
1026432 On ch=3 n=19 v=100
1026530 Off ch=3 n=6 v=0
1026530 Off ch=3 n=19 v=0
1026561 On ch=3 n=19 v=100
1026578 Off ch=3 n=19 v=0
1026821 On ch=3 n=15 v=100
1026821 On ch=3 n=27 v=100
1026866 On ch=3 n=17 v=100
1027094 Off ch=3 n=15 v=0
1027246 Off ch=3 n=17 v=0
1027261 Off ch=3 n=27 v=0
1027546 On ch=3 n=18 v=100
1027746 Off ch=3 n=18 v=0
1028242 On ch=3 n=13 v=100
1028612 On ch=3 n=19 v=100
1028662 Off ch=3 n=13 v=0
1028669 Off ch=3 n=19 v=0
1032225 On ch=3 n=22 v=100
1032342 Off ch=3 n=22 v=0
1032495 On ch=3 n=16 v=100
1032525 On ch=3 n=27 v=100
1032659 Off ch=3 n=16 v=0
1032761 Off ch=3 n=27 v=0
1033359 On ch=3 n=10 v=100
1033829 Off ch=3 n=10 v=0
1033835 On ch=3 n=13 v=100
1034127 Off ch=3 n=13 v=0
1034132 On ch=3 n=12 v=100
1034606 On ch=3 n=17 v=100
1034614 Off ch=3 n=12 v=0
1034803 On ch=3 n=30 v=100
1034885 On ch=3 n=10 v=100
1034890 Off ch=3 n=17 v=0
1035019 Off ch=3 n=30 v=0
1035022 On ch=3 n=12 v=100
1035042 Off ch=3 n=10 v=0
1035362 Off ch=3 n=12 v=0
1035363 On ch=3 n=17 v=100
1035594 Off ch=3 n=17 v=0
1037237 On ch=3 n=20 v=100
1037395 Off ch=3 n=20 v=0
1037675 On ch=3 n=44 v=100
1037675 On ch=3 n=44 v=100
1037703 On ch=3 n=37 v=100
1037975 Off ch=3 n=37 v=0
1038041 Off ch=3 n=44 v=0
1038041 Off ch=3 n=44 v=0
1040755 On ch=3 n=11 v=100
1041006 Off ch=3 n=11 v=0
1041760 On ch=3 n=20 v=100
1041760 On ch=3 n=20 v=100
1041800 On ch=3 n=10 v=100
1041815 On ch=3 n=13 v=100
1042137 Off ch=3 n=10 v=0
1042148 On ch=3 n=26 v=100
1042216 Off ch=3 n=20 v=0
1042216 Off ch=3 n=20 v=0
1042227 Off ch=3 n=13 v=0
1042309 On ch=3 n=18 v=100
1042486 Off ch=3 n=26 v=0
1042488 On ch=3 n=13 v=100
1042509 Off ch=3 n=18 v=0
1042552 On ch=3 n=28 v=100
1042556 Off ch=3 n=13 v=0
1042655 Off ch=3 n=28 v=0
1042707 On ch=3 n=12 v=100
1042766 Off ch=3 n=12 v=0
1042803 On ch=3 n=12 v=100
1042881 Off ch=3 n=12 v=0
1044380 On ch=3 n=9 v=100
1044499 Off ch=3 n=9 v=0
1046549 On ch=3 n=4 v=100
1047282 On ch=3 n=18 v=100
1047289 On ch=3 n=6 v=100
1047295 Off ch=3 n=4 v=0
1047577 Off ch=3 n=6 v=0
1047582 On ch=3 n=8 v=100
1047662 Off ch=3 n=18 v=0
1047787 On ch=3 n=1 v=100
1047788 Off ch=3 n=8 v=0
1049807 Off ch=3 n=1 v=0
1049893 On ch=3 n=1 v=100
1051094 On ch=3 n=2 v=100
1051094 Off ch=3 n=1 v=0
1051349 Off ch=3 n=2 v=0
1057133 On ch=3 n=14 v=100
1057259 Off ch=3 n=14 v=0
1057265 On ch=3 n=10 v=100
1057502 Off ch=3 n=10 v=0
1061096 On ch=3 n=25 v=100
1061204 On ch=3 n=11 v=100
1061229 Off ch=3 n=25 v=0
1061379 Off ch=3 n=11 v=0
1061391 On ch=3 n=11 v=100
1061712 Off ch=3 n=11 v=0
1061715 On ch=3 n=22 v=100
1062061 On ch=3 n=36 v=100
1062148 Off ch=3 n=22 v=0
1062193 On ch=3 n=17 v=100
1062396 Off ch=3 n=36 v=0
1062479 Off ch=3 n=17 v=0
1062481 On ch=3 n=8 v=100
1062744 Off ch=3 n=8 v=0
1062763 On ch=3 n=13 v=100
1062845 Off ch=3 n=13 v=0
1063183 On ch=3 n=24 v=100
1063257 Off ch=3 n=24 v=0
1063267 On ch=3 n=9 v=100
1063621 On ch=3 n=8 v=100
1063624 Off ch=3 n=9 v=0
1064717 Off ch=3 n=8 v=0
1066321 On ch=3 n=24 v=100
1066349 On ch=3 n=10 v=100
1066452 Off ch=3 n=10 v=0
1066453 Off ch=3 n=24 v=0
1066805 On ch=3 n=22 v=100
1066897 On ch=3 n=6 v=100
1067156 Off ch=3 n=6 v=0
1067166 Off ch=3 n=22 v=0
1074957 On ch=3 n=20 v=100
1075060 Off ch=3 n=20 v=0
1077529 On ch=3 n=6 v=100
1077818 Off ch=3 n=6 v=0
1079422 On ch=3 n=13 v=100
1079487 Off ch=3 n=13 v=0
1079660 On ch=3 n=37 v=100
1079661 On ch=3 n=29 v=100
1079714 Off ch=3 n=29 v=0
1079881 Off ch=3 n=37 v=0
1079938 On ch=3 n=9 v=100
1080191 Off ch=3 n=9 v=0
1080397 On ch=3 n=26 v=100
1080500 On ch=3 n=24 v=100
1080500 On ch=3 n=24 v=100
1080532 On ch=3 n=18 v=100
1080893 Off ch=3 n=26 v=0
1080971 Off ch=3 n=18 v=0
1081003 Off ch=3 n=24 v=0
1081003 Off ch=3 n=24 v=0
1081839 On ch=3 n=9 v=100
1082637 Off ch=3 n=9 v=0
1082986 On ch=3 n=9 v=100
1083713 Off ch=3 n=9 v=0
1084366 On ch=3 n=33 v=100
1084450 Off ch=3 n=33 v=0
1085443 On ch=3 n=4 v=100
1087762 Off ch=3 n=4 v=0
1089799 On ch=3 n=19 v=100
1089936 On ch=3 n=21 v=100
1090017 Off ch=3 n=19 v=0
1090029 On ch=3 n=11 v=100
1090029 Off ch=3 n=21 v=0
1090341 On ch=3 n=10 v=100
1090385 Off ch=3 n=11 v=0
1090603 Off ch=3 n=10 v=0
1090611 On ch=3 n=26 v=100
1090620 On ch=3 n=21 v=100
1090629 On ch=3 n=35 v=100
1090681 Off ch=3 n=26 v=0
1090683 Off ch=3 n=21 v=0
1090715 Off ch=3 n=35 v=0
1091242 On ch=3 n=21 v=100
1091383 Off ch=3 n=21 v=0
1091429 On ch=3 n=21 v=100
1091617 Off ch=3 n=21 v=0
1092105 On ch=3 n=19 v=100
1092477 Off ch=3 n=19 v=0
1092646 On ch=3 n=13 v=100
1092680 On ch=3 n=17 v=100
1092684 Off ch=3 n=13 v=0
1092849 Off ch=3 n=17 v=0
1092852 On ch=3 n=9 v=100
1092956 Off ch=3 n=9 v=0
1092958 On ch=3 n=12 v=100
1093000 Off ch=3 n=12 v=0
1093279 On ch=3 n=9 v=100
1093891 Off ch=3 n=9 v=0
1093892 On ch=3 n=5 v=100
1094037 Off ch=3 n=5 v=0
1094266 On ch=3 n=6 v=100
1094964 On ch=3 n=15 v=100
1094966 Off ch=3 n=6 v=0
1095117 Off ch=3 n=15 v=0
1095815 On ch=3 n=17 v=100
1095832 On ch=3 n=25 v=100
1095931 On ch=3 n=12 v=100
1095937 Off ch=3 n=17 v=0
1095974 Off ch=3 n=25 v=0
1096716 Off ch=3 n=12 v=0
1096723 On ch=3 n=8 v=100
1097012 Off ch=3 n=8 v=0
1097133 On ch=3 n=14 v=100
1097498 Off ch=3 n=14 v=0
1097512 On ch=3 n=5 v=100
1097616 On ch=3 n=18 v=100
1097639 On ch=3 n=30 v=100
1097641 Off ch=3 n=5 v=0
1097644 On ch=3 n=10 v=100
1097778 Off ch=3 n=18 v=0
1097786 On ch=3 n=12 v=100
1097787 Off ch=3 n=10 v=0
1097822 Off ch=3 n=30 v=0
1097881 On ch=3 n=14 v=100
1097889 Off ch=3 n=12 v=0
1098063 Off ch=3 n=14 v=0
1098069 On ch=3 n=14 v=100
1098070 On ch=3 n=22 v=100
1098180 Off ch=3 n=14 v=0
1098190 On ch=3 n=16 v=100
1098243 Off ch=3 n=22 v=0
1098353 Off ch=3 n=16 v=0
1099512 On ch=3 n=11 v=100
1099575 Off ch=3 n=11 v=0
1099589 On ch=3 n=8 v=100
1101025 Off ch=3 n=8 v=0
1104696 On ch=3 n=14 v=100
1105600 On ch=3 n=10 v=100
1105600 Off ch=3 n=14 v=0
1105672 On ch=3 n=8 v=100
1105672 Off ch=3 n=10 v=0
1105996 On ch=3 n=5 v=100
1106003 Off ch=3 n=8 v=0
1106830 Off ch=3 n=5 v=0
1106841 On ch=3 n=7 v=100
1107261 On ch=3 n=7 v=100
1107273 Off ch=3 n=7 v=0
1107509 On ch=3 n=10 v=100
1107528 Off ch=3 n=7 v=0
1107777 On ch=3 n=8 v=100
1107779 Off ch=3 n=10 v=0
1107920 Off ch=3 n=8 v=0
1107926 On ch=3 n=25 v=100
1107926 On ch=3 n=34 v=100
1108040 Off ch=3 n=25 v=0
1108058 Off ch=3 n=34 v=0
1108982 On ch=3 n=41 v=100
1108983 On ch=3 n=31 v=100
1108983 On ch=3 n=39 v=100
1109057 Off ch=3 n=31 v=0
1109066 Off ch=3 n=41 v=0
1109088 Off ch=3 n=39 v=0
1110470 On ch=3 n=22 v=100
1110831 On ch=3 n=11 v=100
1111003 Off ch=3 n=22 v=0
1111249 On ch=3 n=21 v=100
1111526 Off ch=3 n=11 v=0
1111565 Off ch=3 n=21 v=0
1111582 On ch=3 n=31 v=100
1111630 On ch=3 n=18 v=100
1111727 On ch=3 n=41 v=100
1111905 Off ch=3 n=18 v=0
1111906 Off ch=3 n=31 v=0
1111928 On ch=3 n=40 v=100
1111931 Off ch=3 n=41 v=0
1112016 Off ch=3 n=40 v=0
1112574 On ch=3 n=64 v=100
1112578 On ch=3 n=37 v=100
1112784 Off ch=3 n=37 v=0
1112838 On ch=3 n=29 v=100
1112879 On ch=3 n=44 v=100
1112998 Off ch=3 n=64 v=0
1113000 Off ch=3 n=29 v=0
1113049 Off ch=3 n=44 v=0
1113062 On ch=3 n=32 v=100
1113195 Off ch=3 n=32 v=0
1113257 On ch=3 n=44 v=100
1113289 On ch=3 n=27 v=100
1113372 Off ch=3 n=44 v=0
1113380 Off ch=3 n=27 v=0
1113383 On ch=3 n=7 v=100
1113745 On ch=3 n=32 v=100
1113798 On ch=3 n=12 v=100
1113805 Off ch=3 n=7 v=0
1114021 Off ch=3 n=32 v=0
1114091 On ch=3 n=7 v=100
1114147 Off ch=3 n=12 v=0
1114159 Off ch=3 n=7 v=0
1114183 On ch=3 n=35 v=100
1114269 On ch=3 n=45 v=100
1114269 On ch=3 n=45 v=100
1114392 On ch=3 n=40 v=100
1114392 On ch=3 n=40 v=100
1114398 Off ch=3 n=35 v=0
1114423 On ch=3 n=27 v=100
1114423 On ch=3 n=27 v=100
1114424 On ch=3 n=23 v=100
1114540 Off ch=3 n=40 v=0
1114540 Off ch=3 n=40 v=0
1114572 Off ch=3 n=23 v=0
1114587 Off ch=3 n=45 v=0
1114587 Off ch=3 n=45 v=0
1114593 Off ch=3 n=27 v=0
1114593 Off ch=3 n=27 v=0
1114899 On ch=3 n=20 v=100
1114921 On ch=3 n=12 v=100
1115002 Off ch=3 n=20 v=0
1115084 Off ch=3 n=12 v=0
1116051 On ch=3 n=13 v=100
1116157 On ch=3 n=34 v=100
1116285 Off ch=3 n=13 v=0
1116286 On ch=3 n=21 v=100
1116316 Off ch=3 n=34 v=0
1116333 Off ch=3 n=21 v=0
1117107 On ch=3 n=26 v=100
1117271 Off ch=3 n=26 v=0
1117741 On ch=3 n=23 v=100
1117761 On ch=3 n=13 v=100
1117809 Off ch=3 n=13 v=0
1117811 Off ch=3 n=23 v=0
1117827 On ch=3 n=19 v=100
1117858 On ch=3 n=15 v=100
1117860 Off ch=3 n=19 v=0
1118035 On ch=3 n=20 v=100
1118060 Off ch=3 n=15 v=0
1118065 On ch=3 n=18 v=100
1118187 Off ch=3 n=20 v=0
1118453 On ch=3 n=16 v=100
1118483 Off ch=3 n=18 v=0
1118565 On ch=3 n=9 v=100
1118573 Off ch=3 n=16 v=0
1118954 Off ch=3 n=9 v=0
1119152 On ch=3 n=21 v=100
1119233 Off ch=3 n=21 v=0
1119369 On ch=3 n=12 v=100
1119369 On ch=3 n=31 v=100
1119437 Off ch=3 n=12 v=0
1119477 Off ch=3 n=31 v=0
1120082 On ch=3 n=28 v=100
1120241 On ch=3 n=8 v=100
1120255 Off ch=3 n=28 v=0
1120661 Off ch=3 n=8 v=0
1120683 On ch=3 n=20 v=100
1120842 Off ch=3 n=20 v=0
1120846 On ch=3 n=10 v=100
1121391 On ch=3 n=17 v=100
1121399 Off ch=3 n=10 v=0
1121511 Off ch=3 n=17 v=0
1131303 On ch=3 n=35 v=100
1131461 Off ch=3 n=35 v=0
1133406 On ch=3 n=20 v=100
1133573 On ch=3 n=7 v=100
1133707 Off ch=3 n=20 v=0
1134584 On ch=3 n=30 v=100
1134699 Off ch=3 n=7 v=0
1134704 On ch=3 n=15 v=100
1134732 Off ch=3 n=30 v=0
1135304 Off ch=3 n=15 v=0
1135528 On ch=3 n=13 v=100
1135618 Off ch=3 n=13 v=0
1135938 On ch=3 n=23 v=100
1135987 On ch=3 n=10 v=100
1135996 Off ch=3 n=23 v=0
1136085 Off ch=3 n=10 v=0
1137727 On ch=3 n=17 v=100
1137758 On ch=3 n=17 v=100
1137990 Off ch=3 n=17 v=0
1137990 Off ch=3 n=17 v=0
1137991 On ch=3 n=22 v=100
1138411 On ch=3 n=5 v=100
1138419 Off ch=3 n=22 v=0
1138799 Off ch=3 n=5 v=0
1138802 On ch=3 n=6 v=100
1139376 Off ch=3 n=6 v=0
1139378 On ch=3 n=6 v=100
1139870 Off ch=3 n=6 v=0
1139881 On ch=3 n=13 v=100
1140143 Off ch=3 n=13 v=0
1142065 On ch=3 n=29 v=100
1142217 Off ch=3 n=29 v=0
1142383 On ch=3 n=13 v=100
1143077 Off ch=3 n=13 v=0
1143250 On ch=3 n=14 v=100
1143693 Off ch=3 n=14 v=0
1144324 On ch=3 n=43 v=100
1144435 On ch=3 n=28 v=100
1144480 On ch=3 n=23 v=100
1144620 Off ch=3 n=43 v=0
1144622 Off ch=3 n=28 v=0
1144622 Off ch=3 n=23 v=0
1148068 On ch=3 n=29 v=100
1148259 Off ch=3 n=29 v=0
1148265 On ch=3 n=13 v=100
1148355 Off ch=3 n=13 v=0
1148390 On ch=3 n=13 v=100
1148987 On ch=3 n=7 v=100
1148989 Off ch=3 n=13 v=0
1149633 On ch=3 n=14 v=100
1149725 Off ch=3 n=7 v=0
1150340 Off ch=3 n=14 v=0
1150859 On ch=3 n=17 v=100
1150869 On ch=3 n=18 v=100
1150931 Off ch=3 n=17 v=0
1150933 Off ch=3 n=18 v=0
1152412 On ch=3 n=21 v=100
1152661 Off ch=3 n=21 v=0
1152870 On ch=3 n=11 v=100
1152964 Off ch=3 n=11 v=0
1153028 On ch=3 n=23 v=100
1153085 On ch=3 n=36 v=100
1153085 On ch=3 n=36 v=100
1153138 Off ch=3 n=23 v=0
1153147 On ch=3 n=28 v=100
1153350 Off ch=3 n=28 v=0
1153368 On ch=3 n=14 v=100
1153475 Off ch=3 n=36 v=0
1153475 Off ch=3 n=36 v=0
1153475 Off ch=3 n=14 v=0
1154038 On ch=3 n=21 v=100
1154042 On ch=3 n=26 v=100
1154267 Off ch=3 n=26 v=0
1154331 Off ch=3 n=21 v=0
1154345 On ch=3 n=27 v=100
1154966 On ch=3 n=23 v=100
1154968 Off ch=3 n=27 v=0
1154974 On ch=3 n=12 v=100
1155279 On ch=3 n=9 v=100
1155282 Off ch=3 n=12 v=0
1155325 Off ch=3 n=23 v=0
1155469 Off ch=3 n=9 v=0
1155471 On ch=3 n=17 v=100
1155566 Off ch=3 n=17 v=0
1155570 On ch=3 n=16 v=100
1155637 Off ch=3 n=16 v=0
1156703 On ch=3 n=17 v=100
1157085 On ch=3 n=13 v=100
1157087 Off ch=3 n=17 v=0
1157620 Off ch=3 n=13 v=0
1157738 On ch=3 n=11 v=100
1158118 Off ch=3 n=11 v=0
1159072 On ch=3 n=35 v=100
1159087 On ch=3 n=33 v=100
1159099 On ch=3 n=33 v=100
1159200 Off ch=3 n=35 v=0
1159307 Off ch=3 n=33 v=0
1159334 Off ch=3 n=33 v=0
1159392 On ch=3 n=12 v=100
1159623 Off ch=3 n=12 v=0
1159630 On ch=3 n=11 v=100
1159664 On ch=3 n=26 v=100
1159850 Off ch=3 n=11 v=0
1160357 On ch=3 n=16 v=100
1160539 Off ch=3 n=26 v=0
1160642 Off ch=3 n=16 v=0
1160664 On ch=3 n=32 v=100
1160896 On ch=3 n=15 v=100
1160897 Off ch=3 n=32 v=0
1161149 Off ch=3 n=15 v=0
1161156 On ch=3 n=18 v=100
1161353 On ch=3 n=26 v=100
1161372 On ch=3 n=14 v=100
1161375 Off ch=3 n=18 v=0
1161460 Off ch=3 n=26 v=0
1161470 Off ch=3 n=14 v=0
1161792 On ch=3 n=25 v=100
1162042 Off ch=3 n=25 v=0
1163172 On ch=3 n=9 v=100
1163203 Off ch=3 n=9 v=0
1163246 On ch=3 n=13 v=100
1163415 On ch=3 n=13 v=100
1163430 Off ch=3 n=13 v=0
1164315 Off ch=3 n=13 v=0
1164316 On ch=3 n=12 v=100
1164764 On ch=3 n=38 v=100
1164764 On ch=3 n=38 v=100
1164785 On ch=3 n=29 v=100
1164793 On ch=3 n=29 v=100
1164818 Off ch=3 n=12 v=0
1164836 Off ch=3 n=29 v=0
1164850 Off ch=3 n=38 v=0
1164850 Off ch=3 n=38 v=0
1164857 Off ch=3 n=29 v=0
1165180 On ch=3 n=14 v=100
1165472 On ch=3 n=23 v=100
1165592 Off ch=3 n=14 v=0
1165608 Off ch=3 n=23 v=0
1165626 On ch=3 n=16 v=100
1165969 Off ch=3 n=16 v=0
1165978 On ch=3 n=45 v=100
1166067 On ch=3 n=15 v=100
1166114 On ch=3 n=18 v=100
1166125 On ch=3 n=20 v=100
1166127 Off ch=3 n=45 v=0
1166550 Off ch=3 n=15 v=0
1166560 Off ch=3 n=18 v=0
1166560 Off ch=3 n=20 v=0
1166603 On ch=3 n=20 v=100
1166603 On ch=3 n=18 v=100
1166603 On ch=3 n=12 v=100
1166676 Off ch=3 n=20 v=0
1166778 Off ch=3 n=18 v=0
1167087 On ch=3 n=14 v=100
1167090 Off ch=3 n=12 v=0
1167099 On ch=3 n=21 v=100
1167200 On ch=3 n=44 v=100
1167291 Off ch=3 n=14 v=0
1167354 Off ch=3 n=21 v=0
1167377 Off ch=3 n=44 v=0
1167439 On ch=3 n=25 v=100
1167734 Off ch=3 n=25 v=0
1167739 On ch=3 n=19 v=100
1167795 Off ch=3 n=19 v=0
1170623 On ch=3 n=48 v=100
1170754 Off ch=3 n=48 v=0
1171016 On ch=3 n=31 v=100
1171024 On ch=3 n=30 v=100
1171056 On ch=3 n=26 v=100
1171127 On ch=3 n=51 v=100
1171260 Off ch=3 n=30 v=0
1171317 Off ch=3 n=31 v=0
1171325 Off ch=3 n=26 v=0
1171479 On ch=3 n=27 v=100
1171513 Off ch=3 n=51 v=0
1171538 On ch=3 n=20 v=100
1171557 Off ch=3 n=27 v=0
1171652 Off ch=3 n=20 v=0
1171754 On ch=3 n=21 v=100
1171922 Off ch=3 n=21 v=0
1172599 On ch=3 n=29 v=100
1172705 Off ch=3 n=29 v=0
1173099 On ch=3 n=19 v=100
1173193 Off ch=3 n=19 v=0
1173202 On ch=3 n=28 v=100
1173202 On ch=3 n=28 v=100
1173267 On ch=3 n=24 v=100
1173396 On ch=3 n=34 v=100
1173396 On ch=3 n=34 v=100
1173435 On ch=3 n=51 v=100
1173435 On ch=3 n=51 v=100
1173524 Off ch=3 n=28 v=0
1173524 Off ch=3 n=28 v=0
1173553 Off ch=3 n=24 v=0
1173628 Off ch=3 n=34 v=0
1173628 Off ch=3 n=34 v=0
1173668 Off ch=3 n=51 v=0
1173668 Off ch=3 n=51 v=0
1174305 On ch=3 n=39 v=100
1174324 On ch=3 n=21 v=100
1174372 On ch=3 n=24 v=100
1174470 Off ch=3 n=39 v=0
1174551 Off ch=3 n=21 v=0
1174624 Off ch=3 n=24 v=0
1174639 On ch=3 n=27 v=100
1174756 Off ch=3 n=27 v=0
1174763 On ch=3 n=31 v=100
1174780 On ch=3 n=14 v=100
1174900 Off ch=3 n=14 v=0
1174903 Off ch=3 n=31 v=0
1174948 On ch=3 n=17 v=100
1175113 Off ch=3 n=17 v=0
1175147 On ch=3 n=28 v=100
1175176 On ch=3 n=9 v=100
1175192 On ch=3 n=46 v=100
1175192 On ch=3 n=46 v=100
1175250 Off ch=3 n=28 v=0
1175251 Off ch=3 n=9 v=0
1175294 On ch=3 n=12 v=100
1175447 Off ch=3 n=12 v=0
1175450 On ch=3 n=7 v=100
1175692 Off ch=3 n=7 v=0
1175757 On ch=3 n=26 v=100
1175802 On ch=3 n=19 v=100
1175996 Off ch=3 n=46 v=0
1175996 Off ch=3 n=46 v=0
1175997 Off ch=3 n=26 v=0
1176166 Off ch=3 n=19 v=0
1176350 On ch=3 n=20 v=100
1176391 On ch=3 n=29 v=100
1176492 On ch=3 n=11 v=100
1176662 Off ch=3 n=20 v=0
1176808 Off ch=3 n=29 v=0
1176808 Off ch=3 n=11 v=0
1177261 On ch=3 n=10 v=100
1177417 Off ch=3 n=10 v=0
1177439 On ch=3 n=13 v=100
1177590 Off ch=3 n=13 v=0
1177721 On ch=3 n=34 v=100
1177954 Off ch=3 n=34 v=0
1178053 On ch=3 n=15 v=100
1178095 Off ch=3 n=15 v=0
1178096 On ch=3 n=15 v=100
1178222 Off ch=3 n=15 v=0
1178714 On ch=3 n=8 v=100
1178913 Off ch=3 n=8 v=0
1178935 On ch=3 n=22 v=100
1179071 On ch=3 n=8 v=100
1179612 On ch=3 n=15 v=100
1179615 Off ch=3 n=8 v=0
1179622 Off ch=3 n=22 v=0
1179950 Off ch=3 n=15 v=0
1180003 On ch=3 n=14 v=100
1180100 Off ch=3 n=14 v=0
1180181 On ch=3 n=12 v=100
1180218 On ch=3 n=30 v=100
1180427 On ch=3 n=17 v=100
1180427 Off ch=3 n=12 v=0
1180632 Off ch=3 n=30 v=0
1180794 Off ch=3 n=17 v=0
1181362 On ch=3 n=44 v=100
1181471 On ch=3 n=26 v=100
1181601 On ch=3 n=40 v=100
1181601 On ch=3 n=40 v=100
1181614 On ch=3 n=25 v=100
1181894 Off ch=3 n=44 v=0
1181894 Off ch=3 n=26 v=0
1181953 Off ch=3 n=25 v=0
1181988 Off ch=3 n=40 v=0
1181988 Off ch=3 n=40 v=0
1182144 On ch=3 n=21 v=100
1182385 On ch=3 n=6 v=100
1182385 Off ch=3 n=21 v=0
1182724 Off ch=3 n=6 v=0
1183060 On ch=3 n=10 v=100
1183245 On ch=3 n=11 v=100
1183251 Off ch=3 n=10 v=0
1183968 Off ch=3 n=11 v=0
1184038 On ch=3 n=22 v=100
1184079 Off ch=3 n=22 v=0
1185025 On ch=3 n=6 v=100
1185347 Off ch=3 n=6 v=0
1185598 On ch=3 n=9 v=100
1185785 Off ch=3 n=9 v=0
1186278 On ch=3 n=34 v=100
1186728 Off ch=3 n=34 v=0
1187265 On ch=3 n=35 v=100
1187265 On ch=3 n=35 v=100
1187277 On ch=3 n=20 v=100
1187286 On ch=3 n=12 v=100
1187286 On ch=3 n=26 v=100
1187286 On ch=3 n=12 v=100
1187323 Off ch=3 n=35 v=0
1187323 Off ch=3 n=35 v=0
1187325 Off ch=3 n=20 v=0
1187481 On ch=3 n=35 v=100
1187573 Off ch=3 n=12 v=0
1187573 Off ch=3 n=12 v=0
1187715 Off ch=3 n=26 v=0
1187744 Off ch=3 n=35 v=0
1187760 On ch=3 n=12 v=100
1187795 On ch=3 n=10 v=100
1187953 Off ch=3 n=12 v=0
1188212 On ch=3 n=7 v=100
1188226 Off ch=3 n=10 v=0
1188377 Off ch=3 n=7 v=0
1188536 On ch=3 n=11 v=100
1188736 Off ch=3 n=11 v=0
1188774 On ch=3 n=25 v=100
1188940 Off ch=3 n=25 v=0
1189004 On ch=3 n=18 v=100
1189057 On ch=3 n=56 v=100
1189202 Off ch=3 n=18 v=0
1189204 On ch=3 n=50 v=100
1189204 On ch=3 n=50 v=100
1189262 On ch=3 n=3 v=100
1189334 On ch=3 n=25 v=100
1189342 On ch=3 n=9 v=100
1189342 Off ch=3 n=3 v=0
1189493 On ch=3 n=9 v=100
1189499 Off ch=3 n=9 v=0
1189509 Off ch=3 n=56 v=0
1189551 Off ch=3 n=50 v=0
1189551 Off ch=3 n=50 v=0
1189583 Off ch=3 n=25 v=0
1189667 Off ch=3 n=9 v=0
1190410 On ch=3 n=15 v=100
1190586 On ch=3 n=16 v=100
1190603 Off ch=3 n=15 v=0
1190634 On ch=3 n=10 v=100
1190730 Off ch=3 n=16 v=0
1190730 Off ch=3 n=10 v=0
1190732 On ch=3 n=27 v=100
1190854 On ch=3 n=22 v=100
1190890 On ch=3 n=36 v=100
1191046 Off ch=3 n=27 v=0
1191067 Off ch=3 n=22 v=0
1191164 Off ch=3 n=36 v=0
1191834 On ch=3 n=8 v=100
1192307 Off ch=3 n=8 v=0
1192333 On ch=3 n=23 v=100
1192482 On ch=3 n=32 v=100
1192521 Off ch=3 n=23 v=0
1192523 On ch=3 n=28 v=100
1192855 Off ch=3 n=28 v=0
1192864 Off ch=3 n=32 v=0
1192918 On ch=3 n=12 v=100
1193076 Off ch=3 n=12 v=0
1193376 On ch=3 n=52 v=100
1193395 On ch=3 n=23 v=100
1193436 On ch=3 n=27 v=100
1193446 On ch=3 n=24 v=100
1193487 Off ch=3 n=27 v=0
1193487 Off ch=3 n=24 v=0
1193488 Off ch=3 n=23 v=0
1193492 Off ch=3 n=52 v=0
1195605 On ch=3 n=13 v=100
1195716 Off ch=3 n=13 v=0
1198081 On ch=3 n=26 v=100
1198183 On ch=3 n=19 v=100
1198245 Off ch=3 n=26 v=0
1198362 On ch=3 n=23 v=100
1198718 Off ch=3 n=19 v=0
1198834 Off ch=3 n=23 v=0
1199109 On ch=3 n=24 v=100
1199367 Off ch=3 n=24 v=0
1200454 On ch=3 n=26 v=100
1200484 On ch=3 n=26 v=100
1200582 On ch=3 n=43 v=100
1200635 Off ch=3 n=26 v=0
1200642 Off ch=3 n=26 v=0
1200644 On ch=3 n=13 v=100
1200738 Off ch=3 n=43 v=0
1200759 Off ch=3 n=13 v=0
1200867 On ch=3 n=15 v=100
1201168 Off ch=3 n=15 v=0
1201356 On ch=3 n=14 v=100
1201859 Off ch=3 n=14 v=0
1203382 On ch=3 n=26 v=100
1203440 Off ch=3 n=26 v=0
1203915 On ch=3 n=3 v=100
1204185 Off ch=3 n=3 v=0
1204187 On ch=3 n=10 v=100
1204962 Off ch=3 n=10 v=0
1204995 On ch=3 n=18 v=100
1205048 Off ch=3 n=18 v=0
1205332 On ch=3 n=13 v=100
1205739 Off ch=3 n=13 v=0
1206456 On ch=3 n=12 v=100
1207065 Off ch=3 n=12 v=0
1207846 On ch=3 n=48 v=100
1207846 On ch=3 n=48 v=100
1208018 On ch=3 n=8 v=100
1208360 On ch=3 n=7 v=100
1208365 Off ch=3 n=8 v=0
1208532 Off ch=3 n=48 v=0
1208532 Off ch=3 n=48 v=0
1209828 On ch=3 n=27 v=100
1209833 Off ch=3 n=7 v=0
1209947 Off ch=3 n=27 v=0
1210154 On ch=3 n=36 v=100
1210248 Off ch=3 n=36 v=0
1210276 On ch=3 n=9 v=100
1210362 Off ch=3 n=9 v=0
1210369 On ch=3 n=8 v=100
1211279 On ch=3 n=7 v=100
1211284 Off ch=3 n=8 v=0
1211419 Off ch=3 n=7 v=0
1211670 On ch=3 n=15 v=100
1211721 Off ch=3 n=15 v=0
1211757 On ch=3 n=9 v=100
1211936 On ch=3 n=6 v=100
1211936 Off ch=3 n=9 v=0
1212001 Off ch=3 n=6 v=0
1212004 On ch=3 n=9 v=100
1212190 Off ch=3 n=9 v=0
1212259 On ch=3 n=8 v=100
1212763 Off ch=3 n=8 v=0
1213663 On ch=3 n=3 v=100
1213978 Off ch=3 n=3 v=0
1214311 On ch=3 n=20 v=100
1214311 On ch=3 n=20 v=100
1214348 On ch=3 n=11 v=100
1214725 Off ch=3 n=11 v=0
1214818 Off ch=3 n=20 v=0
1214818 Off ch=3 n=20 v=0
1214845 On ch=3 n=24 v=100
1215040 Off ch=3 n=24 v=0
1215047 On ch=3 n=9 v=100
1215706 On ch=3 n=16 v=100
1215711 Off ch=3 n=9 v=0
1215752 Off ch=3 n=16 v=0
1216285 On ch=3 n=18 v=100
1216345 On ch=3 n=11 v=100
1216624 Off ch=3 n=18 v=0
1216624 Off ch=3 n=11 v=0
1216676 On ch=3 n=25 v=100
1217019 Off ch=3 n=25 v=0
1217154 On ch=3 n=25 v=100
1217210 Off ch=3 n=25 v=0
1217371 On ch=3 n=37 v=100
1217385 On ch=3 n=40 v=100
1217416 Off ch=3 n=37 v=0
1217431 Off ch=3 n=40 v=0
1217605 On ch=3 n=37 v=100
1217845 Off ch=3 n=37 v=0
1217852 On ch=3 n=6 v=100
1218789 Off ch=3 n=6 v=0
1219827 On ch=3 n=52 v=100
1219885 On ch=3 n=21 v=100
1219982 Off ch=3 n=52 v=0
1220125 Off ch=3 n=21 v=0
1220127 On ch=3 n=20 v=100
1220203 On ch=3 n=17 v=100
1220211 Off ch=3 n=20 v=0
1220246 On ch=3 n=9 v=100
1220389 Off ch=3 n=17 v=0
1221349 Off ch=3 n=9 v=0
1221356 On ch=3 n=8 v=100
1222577 Off ch=3 n=8 v=0
1222694 On ch=3 n=8 v=100
1222737 Off ch=3 n=8 v=0
1223088 On ch=3 n=20 v=100
1223124 On ch=3 n=31 v=100
1223283 Off ch=3 n=20 v=0
1223379 Off ch=3 n=31 v=0
1223393 On ch=3 n=14 v=100
1224579 Off ch=3 n=14 v=0
1224823 On ch=3 n=35 v=100
1224830 On ch=3 n=35 v=100
1224830 On ch=3 n=35 v=100
1224866 On ch=3 n=24 v=100
1224879 On ch=3 n=43 v=100
1224879 On ch=3 n=43 v=100
1224886 On ch=3 n=23 v=100
1225030 Off ch=3 n=35 v=0
1225030 Off ch=3 n=35 v=0
1225090 Off ch=3 n=23 v=0
1225097 Off ch=3 n=35 v=0
1225099 Off ch=3 n=24 v=0
1225157 Off ch=3 n=43 v=0
1225157 Off ch=3 n=43 v=0
1225538 On ch=3 n=37 v=100
1225591 On ch=3 n=31 v=100
1225596 On ch=3 n=23 v=100
1225679 Off ch=3 n=37 v=0
1225690 Off ch=3 n=23 v=0
1225704 On ch=3 n=6 v=100
1225749 Off ch=3 n=31 v=0
1225917 On ch=3 n=7 v=100
1225918 Off ch=3 n=6 v=0
1226457 Off ch=3 n=7 v=0
1226509 On ch=3 n=48 v=100
1226509 On ch=3 n=48 v=100
1226521 On ch=3 n=19 v=100
1226530 On ch=3 n=24 v=100
1226571 Off ch=3 n=19 v=0
1226572 Off ch=3 n=24 v=0
1226588 Off ch=3 n=48 v=0
1226588 Off ch=3 n=48 v=0
1227429 On ch=3 n=47 v=100
1227476 On ch=3 n=10 v=100
1227997 Off ch=3 n=10 v=0
1228004 On ch=3 n=8 v=100
1228148 Off ch=3 n=47 v=0
1228540 On ch=3 n=36 v=100
1228686 Off ch=3 n=8 v=0
1228731 Off ch=3 n=36 v=0
1230736 On ch=3 n=20 v=100
1230968 On ch=3 n=12 v=100
1230969 Off ch=3 n=20 v=0
1231083 Off ch=3 n=12 v=0
1231086 On ch=3 n=5 v=100
1231352 Off ch=3 n=5 v=0
1231375 On ch=3 n=11 v=100
1231564 Off ch=3 n=11 v=0
1231565 On ch=3 n=19 v=100
1231615 On ch=3 n=34 v=100
1231757 On ch=3 n=19 v=100
1231769 Off ch=3 n=19 v=0
1231788 Off ch=3 n=34 v=0
1231825 On ch=3 n=40 v=100
1231874 Off ch=3 n=19 v=0
1231877 On ch=3 n=23 v=100
1231955 Off ch=3 n=40 v=0
1232004 On ch=3 n=18 v=100
1232006 Off ch=3 n=23 v=0
1232083 Off ch=3 n=18 v=0
1232084 On ch=3 n=8 v=100
1232109 On ch=3 n=21 v=100
1232164 On ch=3 n=25 v=100
1232179 Off ch=3 n=8 v=0
1232441 Off ch=3 n=21 v=0
1232482 On ch=3 n=25 v=100
1232507 Off ch=3 n=25 v=0
1232635 Off ch=3 n=25 v=0
1232637 On ch=3 n=38 v=100
1232715 Off ch=3 n=38 v=0
1232721 On ch=3 n=32 v=100
1233097 Off ch=3 n=32 v=0
1233168 On ch=3 n=38 v=100
1233213 On ch=3 n=31 v=100
1233473 Off ch=3 n=31 v=0
1233477 Off ch=3 n=38 v=0
1233485 On ch=3 n=20 v=100
1233741 Off ch=3 n=20 v=0
1234847 On ch=3 n=6 v=100
1235068 On ch=3 n=7 v=100
1235069 Off ch=3 n=6 v=0
1235201 Off ch=3 n=7 v=0
1235221 On ch=3 n=36 v=100
1235351 Off ch=3 n=36 v=0
1235444 On ch=3 n=36 v=100
1235914 Off ch=3 n=36 v=0
1236750 On ch=3 n=60 v=100
1236750 On ch=3 n=60 v=100
1236790 On ch=3 n=33 v=100
1236858 Off ch=3 n=33 v=0
1236942 Off ch=3 n=60 v=0
1236942 Off ch=3 n=60 v=0
1237325 On ch=3 n=24 v=100
1237325 On ch=3 n=24 v=100
1237356 On ch=3 n=23 v=100
1237356 On ch=3 n=23 v=100
1237380 On ch=3 n=15 v=100
1237391 On ch=3 n=24 v=100
1237433 On ch=3 n=27 v=100
1237692 Off ch=3 n=15 v=0
1237724 Off ch=3 n=24 v=0
1237724 Off ch=3 n=24 v=0
1237733 On ch=3 n=9 v=100
1237766 Off ch=3 n=24 v=0
1237788 Off ch=3 n=23 v=0
1237788 Off ch=3 n=23 v=0
1237853 Off ch=3 n=27 v=0
1238093 Off ch=3 n=9 v=0
1238094 On ch=3 n=4 v=100
1238142 Off ch=3 n=4 v=0
1238570 On ch=3 n=8 v=100
1238794 Off ch=3 n=8 v=0
1239558 On ch=3 n=18 v=100
1239642 On ch=3 n=29 v=100
1239653 Off ch=3 n=18 v=0
1239697 Off ch=3 n=29 v=0
1239816 On ch=3 n=13 v=100
1239816 On ch=3 n=10 v=100
1239922 Off ch=3 n=10 v=0
1239935 On ch=3 n=11 v=100
1239944 Off ch=3 n=13 v=0
1240208 Off ch=3 n=11 v=0
1240218 On ch=3 n=8 v=100
1240800 Off ch=3 n=8 v=0
1241062 On ch=3 n=34 v=100
1241334 Off ch=3 n=34 v=0
1241388 On ch=3 n=34 v=100
1241478 Off ch=3 n=34 v=0
1241514 On ch=3 n=7 v=100
1242662 On ch=3 n=15 v=100
1242665 Off ch=3 n=7 v=0
1242746 Off ch=3 n=15 v=0
1244307 On ch=3 n=9 v=100
1245242 Off ch=3 n=9 v=0
1245244 On ch=3 n=10 v=100
1245939 On ch=3 n=20 v=100
1245943 Off ch=3 n=10 v=0
1246022 Off ch=3 n=20 v=0
1246169 On ch=3 n=19 v=100
1246333 Off ch=3 n=19 v=0
1247080 On ch=3 n=19 v=100
1247106 On ch=3 n=12 v=100
1247201 Off ch=3 n=19 v=0
1247311 On ch=3 n=18 v=100
1247397 Off ch=3 n=12 v=0
1247423 Off ch=3 n=18 v=0
1257591 On ch=3 n=23 v=100
1257617 On ch=3 n=9 v=100
1257694 Off ch=3 n=23 v=0
1258008 On ch=3 n=31 v=100
1258106 Off ch=3 n=9 v=0
1258107 On ch=3 n=2 v=100
1258155 Off ch=3 n=2 v=0
1258156 Off ch=3 n=31 v=0
1258982 On ch=3 n=19 v=100
1259288 Off ch=3 n=19 v=0
1260023 On ch=3 n=35 v=100
1260101 On ch=3 n=20 v=100
1260270 Off ch=3 n=20 v=0
1260272 Off ch=3 n=35 v=0
1261136 On ch=3 n=13 v=100
1261319 Off ch=3 n=13 v=0
1262005 On ch=3 n=33 v=100
1262067 Off ch=3 n=33 v=0
1262662 On ch=3 n=47 v=100
1262828 On ch=3 n=9 v=100
1262828 On ch=3 n=19 v=100
1263077 Off ch=3 n=9 v=0
1263103 On ch=3 n=11 v=100
1263122 Off ch=3 n=19 v=0
1263126 Off ch=3 n=47 v=0
1263994 Off ch=3 n=11 v=0
1263998 On ch=3 n=17 v=100
1264057 Off ch=3 n=17 v=0
1264118 On ch=3 n=19 v=100
1264328 Off ch=3 n=19 v=0
1265593 On ch=3 n=10 v=100
1266079 On ch=3 n=11 v=100
1266079 Off ch=3 n=10 v=0
1266745 Off ch=3 n=11 v=0
1266792 On ch=3 n=11 v=100
1266950 Off ch=3 n=11 v=0
1267237 On ch=3 n=11 v=100
1267282 Off ch=3 n=11 v=0
1267283 On ch=3 n=8 v=100
1267520 On ch=3 n=8 v=100
1267521 Off ch=3 n=8 v=0
1268251 Off ch=3 n=8 v=0
1268266 On ch=3 n=18 v=100
1268266 On ch=3 n=22 v=100
1268603 Off ch=3 n=18 v=0
1268647 Off ch=3 n=22 v=0
1269486 On ch=3 n=10 v=100
1270059 Off ch=3 n=10 v=0
1271110 On ch=3 n=30 v=100
1271353 On ch=3 n=15 v=100
1271398 Off ch=3 n=30 v=0
1271421 On ch=3 n=9 v=100
1271824 Off ch=3 n=15 v=0
1271938 On ch=3 n=20 v=100
1271978 On ch=3 n=16 v=100
1272065 Off ch=3 n=9 v=0
1272078 On ch=3 n=16 v=100
1272117 On ch=3 n=26 v=100
1272426 Off ch=3 n=16 v=0
1272440 On ch=3 n=16 v=100
1272464 Off ch=3 n=20 v=0
1272518 Off ch=3 n=16 v=0
1272639 Off ch=3 n=26 v=0
1273073 Off ch=3 n=16 v=0
1274632 On ch=3 n=24 v=100
1274646 On ch=3 n=15 v=100
1274721 Off ch=3 n=24 v=0
1275183 Off ch=3 n=15 v=0
1275310 On ch=3 n=38 v=100
1275624 Off ch=3 n=38 v=0
1275660 On ch=3 n=6 v=100
1276296 On ch=3 n=8 v=100
1276296 Off ch=3 n=6 v=0
1276604 Off ch=3 n=8 v=0
1276606 On ch=3 n=12 v=100
1276795 Off ch=3 n=12 v=0
1276874 On ch=3 n=43 v=100
1276874 On ch=3 n=43 v=100
1276928 On ch=3 n=18 v=100
1277077 Off ch=3 n=18 v=0
1277311 Off ch=3 n=43 v=0
1277311 Off ch=3 n=43 v=0
1278227 On ch=3 n=9 v=100
1278681 On ch=3 n=32 v=100
1278709 Off ch=3 n=9 v=0
1278739 Off ch=3 n=32 v=0
1278910 On ch=3 n=11 v=100
1279344 On ch=3 n=12 v=100
1279546 Off ch=3 n=11 v=0
1279625 Off ch=3 n=12 v=0
1279680 On ch=3 n=26 v=100
1280163 Off ch=3 n=26 v=0
1281158 On ch=3 n=26 v=100
1281189 On ch=3 n=7 v=100
1281190 On ch=3 n=16 v=100
1281228 Off ch=3 n=7 v=0
1281235 Off ch=3 n=16 v=0
1281241 Off ch=3 n=26 v=0
1281873 On ch=3 n=10 v=100
1282191 Off ch=3 n=10 v=0
1282308 On ch=3 n=15 v=100
1282338 On ch=3 n=28 v=100
1282376 Off ch=3 n=15 v=0
1282378 On ch=3 n=6 v=100
1282524 Off ch=3 n=28 v=0
1282528 On ch=3 n=24 v=100
1282529 Off ch=3 n=6 v=0
1282976 Off ch=3 n=24 v=0
1283007 On ch=3 n=44 v=100
1283154 Off ch=3 n=44 v=0
1283291 On ch=3 n=47 v=100
1283492 Off ch=3 n=47 v=0
1283848 On ch=3 n=28 v=100
1283934 Off ch=3 n=28 v=0
1284479 On ch=3 n=17 v=100
1284577 Off ch=3 n=17 v=0
1284638 On ch=3 n=25 v=100
1284772 Off ch=3 n=25 v=0
1284913 On ch=3 n=20 v=100
1284956 Off ch=3 n=20 v=0
1284969 On ch=3 n=17 v=100
1285246 On ch=3 n=26 v=100
1285247 Off ch=3 n=17 v=0
1285331 Off ch=3 n=26 v=0
1286587 On ch=3 n=24 v=100
1286617 On ch=3 n=15 v=100
1286742 Off ch=3 n=15 v=0
1286748 Off ch=3 n=24 v=0
1286751 On ch=3 n=9 v=100
1286860 On ch=3 n=22 v=100
1286862 On ch=3 n=23 v=100
1286885 Off ch=3 n=9 v=0
1286892 On ch=3 n=20 v=100
1287065 Off ch=3 n=23 v=0
1287125 Off ch=3 n=22 v=0
1287474 Off ch=3 n=20 v=0
1287746 On ch=3 n=17 v=100
1287815 Off ch=3 n=17 v=0
1288900 On ch=3 n=14 v=100
1289602 On ch=3 n=7 v=100
1289602 Off ch=3 n=14 v=0
1289679 Off ch=3 n=7 v=0
1289684 On ch=3 n=15 v=100
1290009 Off ch=3 n=15 v=0
1290011 On ch=3 n=15 v=100
1290534 Off ch=3 n=15 v=0
1290538 On ch=3 n=44 v=100
1290593 Off ch=3 n=44 v=0
1290793 On ch=3 n=7 v=100
1291377 Off ch=3 n=7 v=0
1291379 On ch=3 n=6 v=100
1292614 Off ch=3 n=6 v=0
1292616 On ch=3 n=12 v=100
1293110 Off ch=3 n=12 v=0
1294338 On ch=3 n=42 v=100
1294392 On ch=3 n=17 v=100
1294434 Off ch=3 n=42 v=0
1294437 On ch=3 n=18 v=100
1294464 On ch=3 n=21 v=100
1294490 Off ch=3 n=17 v=0
1294922 Off ch=3 n=18 v=0
1294943 On ch=3 n=14 v=100
1295010 Off ch=3 n=21 v=0
1295041 Off ch=3 n=14 v=0
1295479 On ch=3 n=24 v=100
1295535 On ch=3 n=8 v=100
1295722 Off ch=3 n=24 v=0
1295722 Off ch=3 n=8 v=0
1295730 On ch=3 n=15 v=100
1295942 On ch=3 n=10 v=100
1295942 Off ch=3 n=15 v=0
1296079 Off ch=3 n=10 v=0
1296146 On ch=3 n=18 v=100
1296343 Off ch=3 n=18 v=0
1296396 On ch=3 n=38 v=100
1296505 On ch=3 n=18 v=100
1296567 On ch=3 n=14 v=100
1296569 Off ch=3 n=38 v=0
1296585 Off ch=3 n=18 v=0
1296923 Off ch=3 n=14 v=0
1297042 On ch=3 n=29 v=100
1297144 Off ch=3 n=29 v=0
1298317 On ch=3 n=11 v=100
1298628 On ch=3 n=8 v=100
1298630 Off ch=3 n=11 v=0
1299179 On ch=3 n=13 v=100
1299180 Off ch=3 n=8 v=0
1299291 Off ch=3 n=13 v=0
1299305 On ch=3 n=6 v=100
1299395 Off ch=3 n=6 v=0
1299408 On ch=3 n=3 v=100
1299537 Off ch=3 n=3 v=0
1300586 On ch=3 n=24 v=100
1300647 On ch=3 n=25 v=100
1300791 Off ch=3 n=24 v=0
1301023 Off ch=3 n=25 v=0
1302034 On ch=3 n=43 v=100
1302200 Off ch=3 n=43 v=0
1302421 On ch=3 n=11 v=100
1303559 Off ch=3 n=11 v=0
1303935 On ch=3 n=17 v=100
1304071 Off ch=3 n=17 v=0
1304072 On ch=3 n=7 v=100
1304746 Off ch=3 n=7 v=0
1304774 On ch=3 n=7 v=100
1304874 Off ch=3 n=7 v=0
1304924 On ch=3 n=21 v=100
1304965 On ch=3 n=20 v=100
1305223 Off ch=3 n=21 v=0
1305223 Off ch=3 n=20 v=0
1305897 On ch=3 n=16 v=100
1305936 On ch=3 n=25 v=100
1306217 On ch=3 n=48 v=100
1306257 Off ch=3 n=16 v=0
1306332 Off ch=3 n=25 v=0
1306334 On ch=3 n=29 v=100
1306433 On ch=3 n=28 v=100
1306565 On ch=3 n=31 v=100
1306573 On ch=3 n=19 v=100
1306574 On ch=3 n=8 v=100
1306706 Off ch=3 n=48 v=0
1306771 Off ch=3 n=29 v=0
1306858 On ch=3 n=8 v=100
1306859 Off ch=3 n=8 v=0
1306901 Off ch=3 n=28 v=0
1306955 Off ch=3 n=19 v=0
1307055 Off ch=3 n=31 v=0
1307404 Off ch=3 n=8 v=0
1307723 On ch=3 n=35 v=100
1307881 Off ch=3 n=35 v=0
1307919 On ch=3 n=12 v=100
1308193 Off ch=3 n=12 v=0
1308194 On ch=3 n=22 v=100
1308377 On ch=3 n=20 v=100
1308720 Off ch=3 n=22 v=0
1308782 Off ch=3 n=20 v=0
1309552 On ch=3 n=5 v=100
1309838 Off ch=3 n=5 v=0
1309840 On ch=3 n=9 v=100
1309898 Off ch=3 n=9 v=0
1309909 On ch=3 n=9 v=100
1310115 On ch=3 n=30 v=100
1310134 On ch=3 n=13 v=100
1310135 Off ch=3 n=9 v=0
1310287 Off ch=3 n=30 v=0
1310620 Off ch=3 n=13 v=0
1310624 On ch=3 n=10 v=100
1310918 Off ch=3 n=10 v=0
1310921 On ch=3 n=10 v=100
1311139 Off ch=3 n=10 v=0
1315470 On ch=3 n=21 v=100
1315577 On ch=3 n=7 v=100
1315582 Off ch=3 n=21 v=0
1315834 Off ch=3 n=7 v=0
1315884 On ch=3 n=34 v=100
1315895 On ch=3 n=23 v=100
1315947 Off ch=3 n=34 v=0
1316179 Off ch=3 n=23 v=0
1316297 On ch=3 n=23 v=100
1316319 Off ch=3 n=23 v=0
1317743 On ch=3 n=26 v=100
1317905 Off ch=3 n=26 v=0
1317909 On ch=3 n=16 v=100
1317963 Off ch=3 n=16 v=0
1317987 On ch=3 n=2 v=100
1318021 On ch=3 n=18 v=100
1318022 Off ch=3 n=2 v=0
1318064 Off ch=3 n=18 v=0
1318078 On ch=3 n=5 v=100
1318154 Off ch=3 n=5 v=0
1318168 On ch=3 n=26 v=100
1318533 Off ch=3 n=26 v=0
1319164 On ch=3 n=17 v=100
1319228 On ch=3 n=12 v=100
1319232 Off ch=3 n=17 v=0
1319388 Off ch=3 n=12 v=0
1319397 On ch=3 n=4 v=100
1319682 On ch=3 n=23 v=100
1319707 On ch=3 n=12 v=100
1319712 Off ch=3 n=4 v=0
1319718 On ch=3 n=7 v=100
1319745 Off ch=3 n=23 v=0
1319745 Off ch=3 n=7 v=0
1319747 Off ch=3 n=12 v=0
1319750 On ch=3 n=16 v=100
1319834 Off ch=3 n=16 v=0
1319861 On ch=3 n=31 v=100
1319928 On ch=3 n=20 v=100
1320136 Off ch=3 n=31 v=0
1320137 Off ch=3 n=20 v=0
1324813 On ch=3 n=11 v=100
1325633 Off ch=3 n=11 v=0
1325634 On ch=3 n=20 v=100
1325704 Off ch=3 n=20 v=0
1325895 On ch=3 n=22 v=100
1325977 Off ch=3 n=22 v=0
1326589 On ch=3 n=25 v=100
1326648 On ch=3 n=27 v=100
1326858 Off ch=3 n=25 v=0
1326902 Off ch=3 n=27 v=0
1327155 On ch=3 n=15 v=100
1327245 Off ch=3 n=15 v=0
1327298 On ch=3 n=14 v=100
1327635 Off ch=3 n=14 v=0
1331257 On ch=3 n=9 v=100
1331396 Off ch=3 n=9 v=0
1331474 On ch=3 n=9 v=100
1331674 Off ch=3 n=9 v=0
1331675 On ch=3 n=4 v=100
1331877 On ch=3 n=32 v=100
1331878 Off ch=3 n=4 v=0
1331925 On ch=3 n=8 v=100
1332312 Off ch=3 n=32 v=0
1332364 Off ch=3 n=8 v=0
1333412 On ch=3 n=5 v=100
1333757 On ch=3 n=10 v=100
1333771 Off ch=3 n=5 v=0
1334184 Off ch=3 n=10 v=0
1335441 On ch=3 n=21 v=100
1335707 Off ch=3 n=21 v=0
1335709 On ch=3 n=9 v=100
1336146 On ch=3 n=35 v=100
1336146 On ch=3 n=35 v=100
1336220 Off ch=3 n=9 v=0
1336260 On ch=3 n=34 v=100
1336294 On ch=3 n=30 v=100
1336375 Off ch=3 n=34 v=0
1336425 Off ch=3 n=35 v=0
1336425 Off ch=3 n=35 v=0
1336434 Off ch=3 n=30 v=0
1336563 On ch=3 n=20 v=100
1336611 Off ch=3 n=20 v=0
1336856 On ch=3 n=21 v=100
1337037 Off ch=3 n=21 v=0
1337519 On ch=3 n=25 v=100
1337539 On ch=3 n=9 v=100
1337704 Off ch=3 n=25 v=0
1338125 On ch=3 n=34 v=100
1338291 Off ch=3 n=9 v=0
1338374 Off ch=3 n=34 v=0
1338594 On ch=3 n=47 v=100
1338848 Off ch=3 n=47 v=0
1338940 On ch=3 n=14 v=100
1339006 On ch=3 n=22 v=100
1339197 Off ch=3 n=14 v=0
1339197 Off ch=3 n=22 v=0
1339227 On ch=3 n=14 v=100
1339227 On ch=3 n=22 v=100
1339376 Off ch=3 n=14 v=0
1339524 Off ch=3 n=22 v=0
1340429 On ch=3 n=9 v=100
1341570 On ch=3 n=27 v=100
1341612 On ch=3 n=7 v=100
1341613 Off ch=3 n=9 v=0
1341833 Off ch=3 n=27 v=0
1341839 Off ch=3 n=7 v=0
1341840 On ch=3 n=9 v=100
1341866 On ch=3 n=22 v=100
1341871 Off ch=3 n=9 v=0
1341937 Off ch=3 n=22 v=0
1342533 On ch=3 n=8 v=100
1342899 On ch=3 n=43 v=100
1342899 On ch=3 n=43 v=100
1342917 Off ch=3 n=8 v=0
1343088 On ch=3 n=5 v=100
1343738 Off ch=3 n=5 v=0
1343740 On ch=3 n=21 v=100
1343956 Off ch=3 n=43 v=0
1343956 Off ch=3 n=43 v=0
1343972 On ch=3 n=27 v=100
1344077 Off ch=3 n=21 v=0
1344152 Off ch=3 n=27 v=0
1344316 On ch=3 n=21 v=100
1344538 Off ch=3 n=21 v=0
1344890 On ch=3 n=21 v=100
1345405 On ch=3 n=17 v=100
1345408 Off ch=3 n=21 v=0
1346441 Off ch=3 n=17 v=0
1346442 On ch=3 n=17 v=100
1346583 Off ch=3 n=17 v=0
1346593 On ch=3 n=37 v=100
1346593 On ch=3 n=37 v=100
1346640 On ch=3 n=32 v=100
1346672 On ch=3 n=35 v=100
1346672 On ch=3 n=35 v=100
1346674 On ch=3 n=31 v=100
1346676 On ch=3 n=30 v=100
1346783 Off ch=3 n=32 v=0
1346887 Off ch=3 n=30 v=0
1346914 Off ch=3 n=31 v=0
1346932 Off ch=3 n=37 v=0
1346932 Off ch=3 n=37 v=0
1346968 On ch=3 n=35 v=100
1346968 On ch=3 n=35 v=100
1346973 On ch=3 n=26 v=100
1347108 On ch=3 n=43 v=100
1347176 Off ch=3 n=35 v=0
1347176 Off ch=3 n=35 v=0
1347213 Off ch=3 n=26 v=0
1347242 Off ch=3 n=35 v=0
1347242 Off ch=3 n=35 v=0
1347269 Off ch=3 n=43 v=0
1347827 On ch=3 n=34 v=100
1347848 On ch=3 n=22 v=100
1347890 Off ch=3 n=34 v=0
1347890 Off ch=3 n=22 v=0
1347942 On ch=3 n=22 v=100
1347942 On ch=3 n=17 v=100
1348058 Off ch=3 n=22 v=0
1348156 Off ch=3 n=17 v=0
1348691 On ch=3 n=43 v=100
1348748 On ch=3 n=7 v=100
1348768 Off ch=3 n=43 v=0
1349119 Off ch=3 n=7 v=0
1349163 On ch=3 n=18 v=100
1349607 On ch=3 n=26 v=100
1349610 Off ch=3 n=18 v=0
1349741 Off ch=3 n=26 v=0
1349832 On ch=3 n=20 v=100
1349918 Off ch=3 n=20 v=0
1350327 On ch=3 n=22 v=100
1350341 On ch=3 n=22 v=100
1350406 Off ch=3 n=22 v=0
1350658 Off ch=3 n=22 v=0
1352118 On ch=3 n=40 v=100
1352120 On ch=3 n=21 v=100
1352446 On ch=3 n=4 v=100
1352450 Off ch=3 n=21 v=0
1352489 Off ch=3 n=40 v=0
1353075 Off ch=3 n=4 v=0
1353105 On ch=3 n=4 v=100
1353346 On ch=3 n=22 v=100
1353348 Off ch=3 n=4 v=0
1353577 Off ch=3 n=22 v=0
1353584 On ch=3 n=8 v=100
1353692 Off ch=3 n=8 v=0
1355145 On ch=3 n=17 v=100
1355712 Off ch=3 n=17 v=0
1356069 On ch=3 n=14 v=100
1356156 On ch=3 n=47 v=100
1356248 Off ch=3 n=14 v=0
1356260 Off ch=3 n=47 v=0
1356345 On ch=3 n=34 v=100
1356411 On ch=3 n=12 v=100
1356479 Off ch=3 n=34 v=0
1356551 On ch=3 n=41 v=100
1356639 Off ch=3 n=12 v=0
1356858 Off ch=3 n=41 v=0
1357359 On ch=3 n=22 v=100
1357862 Off ch=3 n=22 v=0
1357868 On ch=3 n=11 v=100
1358038 On ch=3 n=29 v=100
1358041 Off ch=3 n=11 v=0
1358206 Off ch=3 n=29 v=0
1358961 On ch=3 n=28 v=100
1359523 Off ch=3 n=28 v=0
1359598 On ch=3 n=17 v=100
1359920 Off ch=3 n=17 v=0
1360022 On ch=3 n=14 v=100
1360580 Off ch=3 n=14 v=0
1362021 On ch=3 n=7 v=100
1362456 On ch=3 n=6 v=100
1362465 Off ch=3 n=7 v=0
1363616 On ch=3 n=9 v=100
1363619 Off ch=3 n=6 v=0
1363885 Off ch=3 n=9 v=0
1364315 On ch=3 n=25 v=100
1364467 Off ch=3 n=25 v=0
1364488 On ch=3 n=9 v=100
1364489 On ch=3 n=51 v=100
1364755 On ch=3 n=13 v=100
1364755 Off ch=3 n=9 v=0
1364836 Off ch=3 n=51 v=0
1364973 Off ch=3 n=13 v=0
1364994 On ch=3 n=17 v=100
1365127 Off ch=3 n=17 v=0
1365374 On ch=3 n=36 v=100
1365374 On ch=3 n=36 v=100
1365390 On ch=3 n=40 v=100
1365414 On ch=3 n=14 v=100
1365532 Off ch=3 n=40 v=0
1365538 On ch=3 n=25 v=100
1365548 Off ch=3 n=36 v=0
1365548 Off ch=3 n=36 v=0
1365550 Off ch=3 n=14 v=0
1365553 On ch=3 n=8 v=100
1365596 Off ch=3 n=25 v=0
1365598 On ch=3 n=35 v=100
1365623 Off ch=3 n=8 v=0
1365639 On ch=3 n=7 v=100
1365821 Off ch=3 n=35 v=0
1366749 On ch=3 n=13 v=100
1366769 Off ch=3 n=7 v=0
1367196 Off ch=3 n=13 v=0
1367205 On ch=3 n=14 v=100
1367443 Off ch=3 n=14 v=0
1367544 On ch=3 n=14 v=100
1368252 Off ch=3 n=14 v=0
1368254 On ch=3 n=10 v=100
1368712 Off ch=3 n=10 v=0
1368722 On ch=3 n=11 v=100
1369017 On ch=3 n=19 v=100
1369018 On ch=3 n=36 v=100
1369019 Off ch=3 n=11 v=0
1369113 Off ch=3 n=19 v=0
1369162 Off ch=3 n=36 v=0
1370181 On ch=3 n=13 v=100
1370714 Off ch=3 n=13 v=0
1370719 On ch=3 n=10 v=100
1370892 On ch=3 n=22 v=100
1370895 On ch=3 n=30 v=100
1370900 Off ch=3 n=10 v=0
1371155 Off ch=3 n=22 v=0
1371201 Off ch=3 n=30 v=0
1372492 On ch=3 n=25 v=100
1372688 Off ch=3 n=25 v=0
1372693 On ch=3 n=24 v=100
1372694 On ch=3 n=47 v=100
1372920 Off ch=3 n=24 v=0
1373079 Off ch=3 n=47 v=0
1374978 On ch=3 n=17 v=100
1375061 On ch=3 n=11 v=100
1375086 Off ch=3 n=17 v=0
1375631 Off ch=3 n=11 v=0
1376825 On ch=3 n=7 v=100
1377102 On ch=3 n=8 v=100
1377102 Off ch=3 n=7 v=0
1377311 On ch=3 n=20 v=100
1377388 Off ch=3 n=8 v=0
1377438 Off ch=3 n=20 v=0
1377498 On ch=3 n=18 v=100
1377595 Off ch=3 n=18 v=0
1377635 On ch=3 n=13 v=100
1377994 On ch=3 n=18 v=100
1377998 Off ch=3 n=13 v=0
1378174 Off ch=3 n=18 v=0
1378180 On ch=3 n=14 v=100
1378264 Off ch=3 n=14 v=0
1378282 On ch=3 n=15 v=100
1378362 Off ch=3 n=15 v=0
1378487 On ch=3 n=11 v=100
1378876 Off ch=3 n=11 v=0
1379741 On ch=3 n=71 v=100
1379939 Off ch=3 n=71 v=0
1380544 On ch=3 n=18 v=100
1380855 Off ch=3 n=18 v=0
1380907 On ch=3 n=18 v=100
1380907 On ch=3 n=6 v=100
1380941 Off ch=3 n=18 v=0
1380986 Off ch=3 n=6 v=0
1381008 On ch=3 n=5 v=100
1382270 Off ch=3 n=5 v=0
1382344 On ch=3 n=15 v=100
1382457 Off ch=3 n=15 v=0
1382465 On ch=3 n=15 v=100
1382635 Off ch=3 n=15 v=0
1382653 On ch=3 n=3 v=100
1383917 Off ch=3 n=3 v=0
1383918 On ch=3 n=9 v=100
1384577 Off ch=3 n=9 v=0
1384578 On ch=3 n=8 v=100
1384691 Off ch=3 n=8 v=0
1384699 On ch=3 n=8 v=100
1384762 Off ch=3 n=8 v=0
1384948 On ch=3 n=24 v=100
1384963 On ch=3 n=12 v=100
1385071 Off ch=3 n=24 v=0
1385117 On ch=3 n=55 v=100
1385171 On ch=3 n=11 v=100
1385172 Off ch=3 n=12 v=0
1385283 On ch=3 n=47 v=100
1385366 Off ch=3 n=11 v=0
1385368 On ch=3 n=10 v=100
1385373 Off ch=3 n=55 v=0
1385385 Off ch=3 n=47 v=0
1385527 On ch=3 n=18 v=100
1385586 Off ch=3 n=10 v=0
1385598 Off ch=3 n=18 v=0
1386316 On ch=3 n=12 v=100
1386316 On ch=3 n=12 v=100
1386985 Off ch=3 n=12 v=0
1386985 Off ch=3 n=12 v=0
1387195 On ch=3 n=48 v=100
1387294 On ch=3 n=34 v=100
1387304 On ch=3 n=24 v=100
1387568 Off ch=3 n=24 v=0
1387575 Off ch=3 n=48 v=0
1387657 On ch=3 n=30 v=100
1387693 Off ch=3 n=34 v=0
1387885 Off ch=3 n=30 v=0
1388214 On ch=3 n=32 v=100
1388394 Off ch=3 n=32 v=0
1388690 On ch=3 n=23 v=100
1388781 On ch=3 n=18 v=100
1388998 Off ch=3 n=23 v=0
1388998 Off ch=3 n=18 v=0
1389225 On ch=3 n=61 v=100
1389462 Off ch=3 n=61 v=0
1390370 On ch=3 n=24 v=100
1390425 On ch=3 n=37 v=100
1390428 On ch=3 n=30 v=100
1390504 Off ch=3 n=24 v=0
1390586 Off ch=3 n=30 v=0
1390685 Off ch=3 n=37 v=0
1390735 On ch=3 n=39 v=100
1390786 On ch=3 n=19 v=100
1390786 On ch=3 n=19 v=100
1390822 On ch=3 n=5 v=100
1391082 On ch=3 n=39 v=100
1391095 Off ch=3 n=5 v=0
1391102 Off ch=3 n=39 v=0
1391111 Off ch=3 n=19 v=0
1391111 Off ch=3 n=19 v=0
1391223 Off ch=3 n=39 v=0
1391276 On ch=3 n=23 v=100
1391343 On ch=3 n=32 v=100
1391373 On ch=3 n=36 v=100
1391396 On ch=3 n=29 v=100
1391398 Off ch=3 n=23 v=0
1391423 On ch=3 n=21 v=100
1391493 Off ch=3 n=36 v=0
1391494 Off ch=3 n=32 v=0
1391497 Off ch=3 n=29 v=0
1391522 On ch=3 n=16 v=100
1391525 Off ch=3 n=21 v=0
1391608 Off ch=3 n=16 v=0
1391737 On ch=3 n=16 v=100
1391819 Off ch=3 n=16 v=0
1393796 On ch=3 n=13 v=100
1394293 Off ch=3 n=13 v=0
1395654 On ch=3 n=10 v=100
1395920 Off ch=3 n=10 v=0
1396309 On ch=3 n=18 v=100
1396858 Off ch=3 n=18 v=0
1397905 On ch=3 n=10 v=100
1398053 On ch=3 n=41 v=100
1398070 On ch=3 n=17 v=100
1398070 Off ch=3 n=10 v=0
1398121 Off ch=3 n=41 v=0
1398121 Off ch=3 n=17 v=0
1404822 On ch=3 n=34 v=100
1404822 On ch=3 n=34 v=100
1404962 On ch=3 n=36 v=100
1404992 On ch=3 n=16 v=100
1405041 On ch=3 n=43 v=100
1405041 On ch=3 n=43 v=100
1405171 Off ch=3 n=34 v=0
1405171 Off ch=3 n=34 v=0
1405269 Off ch=3 n=16 v=0
1405277 Off ch=3 n=36 v=0
1405305 Off ch=3 n=43 v=0
1405305 Off ch=3 n=43 v=0
1406165 On ch=3 n=12 v=100
1406230 On ch=3 n=32 v=100
1406239 On ch=3 n=33 v=100
1406245 Off ch=3 n=12 v=0
1406457 Off ch=3 n=33 v=0
1406477 Off ch=3 n=32 v=0
1406912 On ch=3 n=38 v=100
1406919 On ch=3 n=28 v=100
1406994 Off ch=3 n=28 v=0
1407000 Off ch=3 n=38 v=0
1407705 On ch=3 n=34 v=100
1407760 On ch=3 n=24 v=100
1407840 On ch=3 n=18 v=100
1407840 On ch=3 n=18 v=100
1407920 Off ch=3 n=34 v=0
1407923 Off ch=3 n=24 v=0
1408585 Off ch=3 n=18 v=0
1408585 Off ch=3 n=18 v=0
1410455 On ch=3 n=7 v=100
1410831 Off ch=3 n=7 v=0
1412953 On ch=3 n=23 v=100
1412996 Off ch=3 n=23 v=0
1413005 On ch=3 n=16 v=100
1413539 Off ch=3 n=16 v=0
1415035 On ch=3 n=17 v=100
1415058 Off ch=3 n=17 v=0
1415341 On ch=3 n=17 v=100
1415404 On ch=3 n=16 v=100
1415446 On ch=3 n=10 v=100
1415809 Off ch=3 n=17 v=0
1415830 On ch=3 n=19 v=100
1415852 Off ch=3 n=10 v=0
1415858 Off ch=3 n=16 v=0
1415885 On ch=3 n=10 v=100
1416258 Off ch=3 n=19 v=0
1416492 Off ch=3 n=10 v=0
1416494 On ch=3 n=44 v=100
1416721 Off ch=3 n=44 v=0
1416740 On ch=3 n=38 v=100
1416852 Off ch=3 n=38 v=0
1416949 On ch=3 n=28 v=100
1417038 On ch=3 n=37 v=100
1417038 On ch=3 n=24 v=100
1417041 Off ch=3 n=28 v=0
1417281 On ch=3 n=14 v=100
1417284 Off ch=3 n=24 v=0
1417319 Off ch=3 n=37 v=0
1417520 On ch=3 n=19 v=100
1417520 Off ch=3 n=14 v=0
1417869 Off ch=3 n=19 v=0
1418588 On ch=3 n=45 v=100
1418858 Off ch=3 n=45 v=0
1418948 On ch=3 n=9 v=100
1419035 Off ch=3 n=9 v=0
1419038 On ch=3 n=50 v=100
1419158 On ch=3 n=21 v=100
1419158 On ch=3 n=27 v=100
1419334 On ch=3 n=41 v=100
1419373 Off ch=3 n=50 v=0
1419534 Off ch=3 n=21 v=0
1419687 Off ch=3 n=27 v=0
1419808 Off ch=3 n=41 v=0
1419892 On ch=3 n=41 v=100
1419892 On ch=3 n=32 v=100
1419908 On ch=3 n=36 v=100
1420053 Off ch=3 n=41 v=0
1420131 Off ch=3 n=32 v=0
1420161 Off ch=3 n=36 v=0
1421141 On ch=3 n=14 v=100
1421468 Off ch=3 n=14 v=0
1423235 On ch=3 n=23 v=100
1423256 On ch=3 n=16 v=100
1423361 Off ch=3 n=23 v=0
1423361 Off ch=3 n=16 v=0
1423610 On ch=3 n=8 v=100
1423972 Off ch=3 n=8 v=0
1424082 On ch=3 n=15 v=100
1424446 On ch=3 n=7 v=100
1424448 Off ch=3 n=15 v=0
1424718 Off ch=3 n=7 v=0
1425054 On ch=3 n=22 v=100
1425291 Off ch=3 n=22 v=0
1425301 On ch=3 n=36 v=100
1425341 On ch=3 n=13 v=100
1425404 Off ch=3 n=13 v=0
1425409 Off ch=3 n=36 v=0
1425415 On ch=3 n=22 v=100
1425455 Off ch=3 n=22 v=0
1425651 On ch=3 n=44 v=100
1425680 On ch=3 n=29 v=100
1425696 On ch=3 n=49 v=100
1425711 On ch=3 n=26 v=100
1425754 Off ch=3 n=44 v=0
1425756 Off ch=3 n=29 v=0
1425759 Off ch=3 n=26 v=0
1425761 On ch=3 n=7 v=100
1425781 Off ch=3 n=49 v=0
1425909 On ch=3 n=18 v=100
1426029 Off ch=3 n=7 v=0
1426029 Off ch=3 n=18 v=0
1426060 On ch=3 n=18 v=100
1426060 On ch=3 n=19 v=100
1426413 Off ch=3 n=18 v=0
1426430 On ch=3 n=6 v=100
1426548 Off ch=3 n=19 v=0
1426679 Off ch=3 n=6 v=0
1426712 On ch=3 n=19 v=100
1426912 Off ch=3 n=19 v=0
1426987 On ch=3 n=19 v=100
1427011 On ch=3 n=40 v=100
1427063 Off ch=3 n=19 v=0
1427098 On ch=3 n=34 v=100
1427180 On ch=3 n=9 v=100
1427248 Off ch=3 n=40 v=0
1427628 Off ch=3 n=9 v=0
1427630 Off ch=3 n=34 v=0
1427674 On ch=3 n=9 v=100
1428442 On ch=3 n=35 v=100
1428443 Off ch=3 n=9 v=0
1428463 On ch=3 n=19 v=100
1428463 On ch=3 n=21 v=100
1428491 On ch=3 n=39 v=100
1428571 Off ch=3 n=19 v=0
1428573 Off ch=3 n=35 v=0
1428596 Off ch=3 n=21 v=0
1428646 On ch=3 n=39 v=100
1428670 Off ch=3 n=39 v=0
1428874 Off ch=3 n=39 v=0
1429190 On ch=3 n=10 v=100
1429292 Off ch=3 n=10 v=0
1429369 On ch=3 n=33 v=100
1429481 Off ch=3 n=33 v=0
1429693 On ch=3 n=45 v=100
1429695 On ch=3 n=29 v=100
1429835 Off ch=3 n=29 v=0
1429836 On ch=3 n=11 v=100
1429863 Off ch=3 n=45 v=0
1429872 Off ch=3 n=11 v=0
1429876 On ch=3 n=16 v=100
1429953 On ch=3 n=50 v=100
1429956 Off ch=3 n=16 v=0
1430080 Off ch=3 n=50 v=0
1430206 On ch=3 n=11 v=100
1430391 On ch=3 n=8 v=100
1430393 Off ch=3 n=11 v=0
1431127 On ch=3 n=12 v=100
1431128 Off ch=3 n=8 v=0
1431516 Off ch=3 n=12 v=0
1431523 On ch=3 n=15 v=100
1431891 Off ch=3 n=15 v=0
1433132 On ch=3 n=28 v=100
1433258 Off ch=3 n=28 v=0
1433271 On ch=3 n=10 v=100
1433440 On ch=3 n=11 v=100
1433442 Off ch=3 n=10 v=0
1433626 Off ch=3 n=11 v=0
1433766 On ch=3 n=36 v=100
1433766 On ch=3 n=36 v=100
1433804 On ch=3 n=46 v=100
1433804 On ch=3 n=42 v=100
1433804 On ch=3 n=46 v=100
1433894 Off ch=3 n=36 v=0
1433894 Off ch=3 n=42 v=0
1433894 Off ch=3 n=36 v=0
1434004 Off ch=3 n=46 v=0
1434004 Off ch=3 n=46 v=0
1435520 On ch=3 n=38 v=100
1435603 Off ch=3 n=38 v=0
1435691 On ch=3 n=37 v=100
1435695 On ch=3 n=10 v=100
1435851 Off ch=3 n=10 v=0
1435923 Off ch=3 n=37 v=0
1436009 On ch=3 n=10 v=100
1436269 Off ch=3 n=10 v=0
1437436 On ch=3 n=35 v=100
1437471 On ch=3 n=20 v=100
1437524 On ch=3 n=8 v=100
1437529 On ch=3 n=14 v=100
1437529 On ch=3 n=14 v=100
1437657 Off ch=3 n=20 v=0
1437657 Off ch=3 n=8 v=0
1437658 Off ch=3 n=35 v=0
1437684 Off ch=3 n=14 v=0
1437684 Off ch=3 n=14 v=0
1437780 On ch=3 n=34 v=100
1438043 Off ch=3 n=34 v=0
1438666 On ch=3 n=7 v=100
1438910 Off ch=3 n=7 v=0
1439383 On ch=3 n=11 v=100
1440025 On ch=3 n=10 v=100
1440026 Off ch=3 n=11 v=0
1440259 Off ch=3 n=10 v=0
1440324 On ch=3 n=20 v=100
1440571 Off ch=3 n=20 v=0
1441132 On ch=3 n=14 v=100
1441421 Off ch=3 n=14 v=0
1441465 On ch=3 n=14 v=100
1441478 Off ch=3 n=14 v=0
1441789 On ch=3 n=13 v=100
1441808 On ch=3 n=13 v=100
1441965 Off ch=3 n=13 v=0
1441993 Off ch=3 n=13 v=0
1442709 On ch=3 n=8 v=100
1443010 Off ch=3 n=8 v=0
1443014 On ch=3 n=20 v=100
1443136 Off ch=3 n=20 v=0
1447243 On ch=3 n=11 v=100
1447343 On ch=3 n=27 v=100
1447356 On ch=3 n=11 v=100
1447358 Off ch=3 n=11 v=0
1447454 Off ch=3 n=27 v=0
1447630 Off ch=3 n=11 v=0
1447718 On ch=3 n=11 v=100
1448123 On ch=3 n=31 v=100
1448161 Off ch=3 n=11 v=0
1448162 On ch=3 n=8 v=100
1448190 Off ch=3 n=31 v=0
1448508 Off ch=3 n=8 v=0
1448512 On ch=3 n=13 v=100
1448669 Off ch=3 n=13 v=0
1448670 On ch=3 n=15 v=100
1448769 Off ch=3 n=15 v=0
1449031 On ch=3 n=11 v=100
1449239 On ch=3 n=8 v=100
1449327 Off ch=3 n=11 v=0
1449467 Off ch=3 n=8 v=0
1450686 On ch=3 n=25 v=100
1450853 On ch=3 n=16 v=100
1451171 On ch=3 n=49 v=100
1451226 Off ch=3 n=25 v=0
1451237 On ch=3 n=14 v=100
1451315 Off ch=3 n=16 v=0
1451431 Off ch=3 n=49 v=0
1451455 Off ch=3 n=14 v=0
1451469 On ch=3 n=18 v=100
1451577 Off ch=3 n=18 v=0
1452049 On ch=3 n=10 v=100
1452124 On ch=3 n=31 v=100
1452204 Off ch=3 n=10 v=0
1452207 On ch=3 n=34 v=100
1452220 Off ch=3 n=31 v=0
1452588 On ch=3 n=20 v=100
1452767 Off ch=3 n=34 v=0
1452818 Off ch=3 n=20 v=0
1452825 On ch=3 n=14 v=100
1452982 Off ch=3 n=14 v=0
1452993 On ch=3 n=6 v=100
1453397 Off ch=3 n=6 v=0
1453399 On ch=3 n=10 v=100
1453439 Off ch=3 n=10 v=0
1454797 On ch=3 n=33 v=100
1455024 On ch=3 n=28 v=100
1455036 Off ch=3 n=33 v=0
1455043 On ch=3 n=20 v=100
1455169 Off ch=3 n=20 v=0
1455174 On ch=3 n=24 v=100
1455174 Off ch=3 n=28 v=0
1455228 Off ch=3 n=24 v=0
1455238 On ch=3 n=19 v=100
1455421 Off ch=3 n=19 v=0
1455741 On ch=3 n=37 v=100
1455792 On ch=3 n=21 v=100
1455802 On ch=3 n=29 v=100
1455856 Off ch=3 n=37 v=0
1455972 On ch=3 n=9 v=100
1455976 Off ch=3 n=21 v=0
1456061 Off ch=3 n=29 v=0
1456840 On ch=3 n=9 v=100
1456843 Off ch=3 n=9 v=0
1456937 Off ch=3 n=9 v=0
1457092 On ch=3 n=25 v=100
1457402 Off ch=3 n=25 v=0
1457832 On ch=3 n=12 v=100
1458148 Off ch=3 n=12 v=0
1458729 On ch=3 n=29 v=100
1460074 Off ch=3 n=29 v=0
1460211 On ch=3 n=37 v=100
1460220 On ch=3 n=22 v=100
1460300 On ch=3 n=42 v=100
1460346 Off ch=3 n=22 v=0
1460368 Off ch=3 n=37 v=0
1460439 Off ch=3 n=42 v=0
1460584 On ch=3 n=25 v=100
1460625 On ch=3 n=8 v=100
1460936 Off ch=3 n=8 v=0
1460944 Off ch=3 n=25 v=0
1461097 On ch=3 n=21 v=100
1461483 Off ch=3 n=21 v=0
1461679 On ch=3 n=9 v=100
1462007 On ch=3 n=8 v=100
1462067 Off ch=3 n=9 v=0
1462190 Off ch=3 n=8 v=0
1462254 On ch=3 n=14 v=100
1462632 Off ch=3 n=14 v=0
1462645 On ch=3 n=15 v=100
1462864 Off ch=3 n=15 v=0
1462980 On ch=3 n=8 v=100
1463115 Off ch=3 n=8 v=0
1463129 On ch=3 n=42 v=100
1463178 On ch=3 n=31 v=100
1463216 On ch=3 n=27 v=100
1463320 Off ch=3 n=42 v=0
1463351 Off ch=3 n=31 v=0
1463351 Off ch=3 n=27 v=0
1464638 On ch=3 n=30 v=100
1464670 On ch=3 n=8 v=100
1464825 Off ch=3 n=30 v=0
1465533 Off ch=3 n=8 v=0
1465538 On ch=3 n=2 v=100
1465572 Off ch=3 n=2 v=0
1465807 On ch=3 n=35 v=100
1465839 On ch=3 n=18 v=100
1465841 On ch=3 n=15 v=100
1466020 On ch=3 n=32 v=100
1466067 Off ch=3 n=35 v=0
1466148 Off ch=3 n=15 v=0
1466202 Off ch=3 n=18 v=0
1466226 Off ch=3 n=32 v=0
1466975 On ch=3 n=7 v=100
1467090 On ch=3 n=56 v=100
1467726 On ch=3 n=12 v=100
1467728 Off ch=3 n=7 v=0
1467859 Off ch=3 n=56 v=0
1467954 Off ch=3 n=12 v=0
1468584 On ch=3 n=14 v=100
1469413 Off ch=3 n=14 v=0
1469739 On ch=3 n=14 v=100
1470039 Off ch=3 n=14 v=0
1470161 On ch=3 n=41 v=100
1470304 Off ch=3 n=41 v=0
1473003 On ch=3 n=36 v=100
1473117 Off ch=3 n=36 v=0
1473341 On ch=3 n=20 v=100
1473405 On ch=3 n=15 v=100
1473450 On ch=3 n=26 v=100
1473810 Off ch=3 n=20 v=0
1473816 Off ch=3 n=15 v=0
1474012 Off ch=3 n=26 v=0
1478555 On ch=3 n=27 v=100
1478558 On ch=3 n=17 v=100
1478564 On ch=3 n=16 v=100
1478691 Off ch=3 n=17 v=0
1478715 Off ch=3 n=16 v=0
1478724 Off ch=3 n=27 v=0
1478903 On ch=3 n=46 v=100
1478963 On ch=3 n=26 v=100
1478963 On ch=3 n=26 v=100
1479001 On ch=3 n=14 v=100
1479145 On ch=3 n=9 v=100
1479146 Off ch=3 n=46 v=0
1479167 Off ch=3 n=14 v=0
1479179 Off ch=3 n=26 v=0
1479179 Off ch=3 n=26 v=0
1480044 Off ch=3 n=9 v=0
1480202 On ch=3 n=35 v=100
1480203 On ch=3 n=35 v=100
1480293 Off ch=3 n=35 v=0
1480314 Off ch=3 n=35 v=0
1480456 On ch=3 n=44 v=100
1480491 On ch=3 n=37 v=100
1480682 Off ch=3 n=37 v=0
1480683 Off ch=3 n=44 v=0
1480706 On ch=3 n=35 v=100
1480757 Off ch=3 n=35 v=0
1480856 On ch=3 n=35 v=100
1481061 Off ch=3 n=35 v=0
1481229 On ch=3 n=12 v=100
1481313 Off ch=3 n=12 v=0
1482401 On ch=3 n=21 v=100
1482614 Off ch=3 n=21 v=0
1482659 On ch=3 n=8 v=100
1483497 Off ch=3 n=8 v=0
1483500 On ch=3 n=10 v=100
1484413 Off ch=3 n=10 v=0
1484425 On ch=3 n=7 v=100
1484820 Off ch=3 n=7 v=0
1485130 On ch=3 n=13 v=100
1485332 On ch=3 n=18 v=100
1485332 Off ch=3 n=13 v=0
1485397 Off ch=3 n=18 v=0
1487455 On ch=3 n=6 v=100
1487645 Off ch=3 n=6 v=0
1488388 On ch=3 n=26 v=100
1488464 Off ch=3 n=26 v=0
1488871 On ch=3 n=11 v=100
1489233 Off ch=3 n=11 v=0
1491140 On ch=3 n=10 v=100
1491239 On ch=3 n=22 v=100
1491244 Off ch=3 n=10 v=0
1491279 On ch=3 n=10 v=100
1491431 On ch=3 n=11 v=100
1491434 Off ch=3 n=22 v=0
1491434 Off ch=3 n=10 v=0
1491488 On ch=3 n=12 v=100
1491497 Off ch=3 n=11 v=0
1491707 Off ch=3 n=12 v=0
1491991 On ch=3 n=28 v=100
1492121 Off ch=3 n=28 v=0
1492703 On ch=3 n=25 v=100
1492771 Off ch=3 n=25 v=0
1492986 On ch=3 n=17 v=100
1493775 On ch=3 n=9 v=100
1493912 Off ch=3 n=17 v=0
1494331 On ch=3 n=4 v=100
1494331 On ch=3 n=12 v=100
1494333 Off ch=3 n=9 v=0
1494381 Off ch=3 n=4 v=0
1494398 Off ch=3 n=12 v=0
1496409 On ch=3 n=4 v=100
1496626 Off ch=3 n=4 v=0
1496690 On ch=3 n=9 v=100
1497615 Off ch=3 n=9 v=0
1499111 On ch=3 n=7 v=100
1499345 Off ch=3 n=7 v=0
1500024 On ch=3 n=9 v=100
1500433 On ch=3 n=68 v=100
1500468 On ch=3 n=57 v=100
1500558 On ch=3 n=9 v=100
1500560 Off ch=3 n=9 v=0
1500584 Off ch=3 n=57 v=0
1500585 Off ch=3 n=68 v=0
1500888 Off ch=3 n=9 v=0
1501801 On ch=3 n=14 v=100
1501888 On ch=3 n=14 v=100
1501888 Off ch=3 n=14 v=0
1502123 On ch=3 n=17 v=100
1502129 Off ch=3 n=14 v=0
1502264 Off ch=3 n=17 v=0
1502291 On ch=3 n=25 v=100
1502395 Off ch=3 n=25 v=0
1502398 On ch=3 n=14 v=100
1502852 On ch=3 n=18 v=100
1502852 Off ch=3 n=14 v=0
1502905 Off ch=3 n=18 v=0
1502951 On ch=3 n=50 v=100
1502951 On ch=3 n=50 v=100
1502992 On ch=3 n=27 v=100
1503171 Off ch=3 n=27 v=0
1503184 Off ch=3 n=50 v=0
1503184 Off ch=3 n=50 v=0
1503866 On ch=3 n=32 v=100
1503994 On ch=3 n=37 v=100
1503994 On ch=3 n=37 v=100
1504089 On ch=3 n=19 v=100
1504235 On ch=3 n=25 v=100
1504324 Off ch=3 n=32 v=0
1504363 Off ch=3 n=19 v=0
1504380 Off ch=3 n=37 v=0
1504380 Off ch=3 n=37 v=0
1504449 Off ch=3 n=25 v=0
1505306 On ch=3 n=11 v=100
1505500 On ch=3 n=14 v=100
1505552 Off ch=3 n=11 v=0
1506451 Off ch=3 n=14 v=0
1507345 On ch=3 n=9 v=100
1507713 Off ch=3 n=9 v=0
1507762 On ch=3 n=32 v=100
1507811 On ch=3 n=40 v=100
1507863 On ch=3 n=30 v=100
1507922 Off ch=3 n=32 v=0
1508034 Off ch=3 n=40 v=0
1508038 Off ch=3 n=30 v=0
1508115 On ch=3 n=22 v=100
1508262 On ch=3 n=18 v=100
1508262 Off ch=3 n=22 v=0
1508407 Off ch=3 n=18 v=0
1508442 On ch=3 n=19 v=100
1508609 Off ch=3 n=19 v=0
1508621 On ch=3 n=8 v=100
1508810 Off ch=3 n=8 v=0
1513072 On ch=3 n=16 v=100
1513072 On ch=3 n=19 v=100
1513181 Off ch=3 n=16 v=0
1513197 On ch=3 n=16 v=100
1513201 Off ch=3 n=19 v=0
1513382 Off ch=3 n=16 v=0
1513383 On ch=3 n=9 v=100
1513514 On ch=3 n=34 v=100
1513586 Off ch=3 n=9 v=0
1513588 On ch=3 n=23 v=100
1513589 On ch=3 n=27 v=100
1513604 Off ch=3 n=34 v=0
1513748 Off ch=3 n=23 v=0
1513786 Off ch=3 n=27 v=0
1514304 On ch=3 n=33 v=100
1514364 Off ch=3 n=33 v=0
1515063 On ch=3 n=31 v=100
1515105 On ch=3 n=12 v=100
1515337 Off ch=3 n=31 v=0
1515338 Off ch=3 n=12 v=0
1515395 On ch=3 n=32 v=100
1515494 Off ch=3 n=32 v=0
1515581 On ch=3 n=12 v=100
1515778 On ch=3 n=33 v=100
1516017 On ch=3 n=39 v=100
1516157 Off ch=3 n=12 v=0
1516329 Off ch=3 n=33 v=0
1516404 Off ch=3 n=39 v=0
1516445 On ch=3 n=28 v=100
1516490 Off ch=3 n=28 v=0
1517737 On ch=3 n=13 v=100
1518208 Off ch=3 n=13 v=0
1518439 On ch=3 n=10 v=100
1518857 Off ch=3 n=10 v=0
1520827 On ch=3 n=17 v=100
1521140 Off ch=3 n=17 v=0
1521601 On ch=3 n=29 v=100
1521665 Off ch=3 n=29 v=0
1521730 On ch=3 n=39 v=100
1521873 Off ch=3 n=39 v=0
1521888 On ch=3 n=14 v=100
1521894 On ch=3 n=10 v=100
1522376 Off ch=3 n=10 v=0
1522455 Off ch=3 n=14 v=0
1524142 On ch=3 n=7 v=100
1524545 On ch=3 n=14 v=100
1524545 Off ch=3 n=7 v=0
1524789 Off ch=3 n=14 v=0
1524812 On ch=3 n=12 v=100
1524934 Off ch=3 n=12 v=0
1525019 On ch=3 n=25 v=100
1525129 On ch=3 n=37 v=100
1525129 On ch=3 n=37 v=100
1525178 Off ch=3 n=25 v=0
1525661 On ch=3 n=12 v=100
1525708 Off ch=3 n=37 v=0
1525708 Off ch=3 n=37 v=0
1526196 On ch=3 n=15 v=100
1526223 Off ch=3 n=12 v=0
1526442 Off ch=3 n=15 v=0
1529808 On ch=3 n=8 v=100
1530117 Off ch=3 n=8 v=0
1530188 On ch=3 n=23 v=100
1530222 On ch=3 n=7 v=100
1530265 On ch=3 n=32 v=100
1530265 On ch=3 n=32 v=100
1530274 Off ch=3 n=23 v=0
1530489 Off ch=3 n=7 v=0
1530496 On ch=3 n=40 v=100
1530496 On ch=3 n=16 v=100
1530496 On ch=3 n=40 v=100
1530497 On ch=3 n=23 v=100
1530839 Off ch=3 n=32 v=0
1530839 Off ch=3 n=32 v=0
1530865 Off ch=3 n=16 v=0
1530927 Off ch=3 n=23 v=0
1531140 Off ch=3 n=40 v=0
1531140 Off ch=3 n=40 v=0
1531563 On ch=3 n=8 v=100
1532080 Off ch=3 n=8 v=0
1532082 On ch=3 n=12 v=100
1532622 Off ch=3 n=12 v=0
1532646 On ch=3 n=11 v=100
1532867 Off ch=3 n=11 v=0
1533011 On ch=3 n=23 v=100
1533023 On ch=3 n=40 v=100
1533115 Off ch=3 n=23 v=0
1533131 Off ch=3 n=40 v=0
1533512 On ch=3 n=28 v=100
1533788 Off ch=3 n=28 v=0
1534566 On ch=3 n=18 v=100
1534633 Off ch=3 n=18 v=0
1534649 On ch=3 n=21 v=100
1534840 Off ch=3 n=21 v=0
1534841 On ch=3 n=7 v=100
1534842 On ch=3 n=27 v=100
1534897 Off ch=3 n=7 v=0
1534905 Off ch=3 n=27 v=0
1534914 On ch=3 n=10 v=100
1535330 Off ch=3 n=10 v=0
1535332 On ch=3 n=5 v=100
1535586 Off ch=3 n=5 v=0
1535589 On ch=3 n=6 v=100
1535640 Off ch=3 n=6 v=0
1535654 On ch=3 n=11 v=100
1535818 Off ch=3 n=11 v=0
1535904 On ch=3 n=26 v=100
1535908 On ch=3 n=30 v=100
1536060 Off ch=3 n=26 v=0
1536085 Off ch=3 n=30 v=0
1536388 On ch=3 n=37 v=100
1536432 On ch=3 n=23 v=100
1536481 On ch=3 n=16 v=100
1536481 On ch=3 n=16 v=100
1536634 Off ch=3 n=37 v=0
1536634 Off ch=3 n=23 v=0
1536636 On ch=3 n=25 v=100
1536636 On ch=3 n=25 v=100
1536686 Off ch=3 n=16 v=0
1536686 Off ch=3 n=16 v=0
1536693 On ch=3 n=6 v=100
1536705 Off ch=3 n=25 v=0
1536705 Off ch=3 n=25 v=0
1536969 Off ch=3 n=6 v=0
1537020 On ch=3 n=6 v=100
1537183 Off ch=3 n=6 v=0
1538045 On ch=3 n=45 v=100
1538189 Off ch=3 n=45 v=0
1538514 On ch=3 n=5 v=100
1539582 On ch=3 n=36 v=100
1539710 Off ch=3 n=5 v=0
1539711 On ch=3 n=4 v=100
1539939 Off ch=3 n=36 v=0
1539939 Off ch=3 n=4 v=0
1539962 On ch=3 n=17 v=100
1541104 Off ch=3 n=17 v=0
1541106 On ch=3 n=19 v=100
1541147 Off ch=3 n=19 v=0
1541164 On ch=3 n=18 v=100
1541224 Off ch=3 n=18 v=0
1541392 On ch=3 n=22 v=100
1541738 Off ch=3 n=22 v=0
1541742 On ch=3 n=10 v=100
1542503 Off ch=3 n=10 v=0
1545190 On ch=3 n=19 v=100
1545237 On ch=3 n=8 v=100
1545240 Off ch=3 n=19 v=0
1545392 On ch=3 n=9 v=100
1545393 Off ch=3 n=8 v=0
1545754 On ch=3 n=15 v=100
1545791 Off ch=3 n=9 v=0
1545855 Off ch=3 n=15 v=0
1545862 On ch=3 n=15 v=100
1545988 Off ch=3 n=15 v=0
1545991 On ch=3 n=16 v=100
1546001 On ch=3 n=37 v=100
1546123 On ch=3 n=2 v=100
1546123 Off ch=3 n=16 v=0
1546147 Off ch=3 n=37 v=0
1546254 Off ch=3 n=2 v=0
1547001 On ch=3 n=9 v=100
1547014 On ch=3 n=12 v=100
1547105 Off ch=3 n=9 v=0
1547475 Off ch=3 n=12 v=0
1547524 On ch=3 n=12 v=100
1547678 Off ch=3 n=12 v=0
1547679 On ch=3 n=12 v=100
1547757 Off ch=3 n=12 v=0
1547776 On ch=3 n=12 v=100
1547890 On ch=3 n=29 v=100
1547958 On ch=3 n=21 v=100
1547960 Off ch=3 n=12 v=0
1547995 Off ch=3 n=29 v=0
1547995 Off ch=3 n=21 v=0
1549608 On ch=3 n=7 v=100
1549608 On ch=3 n=7 v=100
1549898 On ch=3 n=7 v=100
1549898 On ch=3 n=7 v=100
1549903 Off ch=3 n=7 v=0
1549903 Off ch=3 n=7 v=0
1550633 Off ch=3 n=7 v=0
1550633 Off ch=3 n=7 v=0
1551762 On ch=3 n=16 v=100
1551798 On ch=3 n=15 v=100
1551822 Off ch=3 n=16 v=0
1552168 Off ch=3 n=15 v=0
1552546 On ch=3 n=25 v=100
1552651 Off ch=3 n=25 v=0
1552694 On ch=3 n=29 v=100
1552886 Off ch=3 n=29 v=0
1553381 On ch=3 n=31 v=100
1553497 Off ch=3 n=31 v=0
1553706 On ch=3 n=48 v=100
1553767 On ch=3 n=27 v=100
1553834 Off ch=3 n=48 v=0
1553901 Off ch=3 n=27 v=0
1553906 On ch=3 n=6 v=100
1553998 On ch=3 n=6 v=100
1553998 Off ch=3 n=6 v=0
1554045 Off ch=3 n=6 v=0
1554100 On ch=3 n=27 v=100
1554265 Off ch=3 n=27 v=0
1554538 On ch=3 n=44 v=100
1554910 On ch=3 n=37 v=100
1555022 Off ch=3 n=37 v=0
1555031 Off ch=3 n=44 v=0
1555866 On ch=3 n=30 v=100
1556158 Off ch=3 n=30 v=0
1556217 On ch=3 n=17 v=100
1556400 Off ch=3 n=17 v=0
1556402 On ch=3 n=10 v=100
1556868 Off ch=3 n=10 v=0
1556873 On ch=3 n=16 v=100
1557067 On ch=3 n=18 v=100
1557067 On ch=3 n=12 v=100
1557067 Off ch=3 n=16 v=0
1557415 Off ch=3 n=12 v=0
1557459 On ch=3 n=19 v=100
1557509 Off ch=3 n=18 v=0
1557617 Off ch=3 n=19 v=0
1557628 On ch=3 n=27 v=100
1557642 On ch=3 n=12 v=100
1557754 Off ch=3 n=27 v=0
1558391 On ch=3 n=9 v=100
1558392 Off ch=3 n=12 v=0
1558597 Off ch=3 n=9 v=0
1559033 On ch=3 n=18 v=100
1559493 Off ch=3 n=18 v=0
1560998 On ch=3 n=6 v=100
1561087 On ch=3 n=14 v=100
1561100 On ch=3 n=7 v=100
1561102 Off ch=3 n=6 v=0
1561153 Off ch=3 n=14 v=0
1561493 Off ch=3 n=7 v=0
1561497 On ch=3 n=9 v=100
1562489 On ch=3 n=32 v=100
1562511 On ch=3 n=31 v=100
1562555 Off ch=3 n=9 v=0
1562678 Off ch=3 n=32 v=0
1562684 On ch=3 n=22 v=100
1562729 Off ch=3 n=22 v=0
1562730 Off ch=3 n=31 v=0
1563568 On ch=3 n=35 v=100
1563676 On ch=3 n=26 v=100
1563686 On ch=3 n=10 v=100
1563768 Off ch=3 n=35 v=0
1563768 Off ch=3 n=10 v=0
1563812 Off ch=3 n=26 v=0
1564120 On ch=3 n=24 v=100
1564317 Off ch=3 n=24 v=0
1564693 On ch=3 n=15 v=100
1564889 Off ch=3 n=15 v=0
1564899 On ch=3 n=15 v=100
1565042 Off ch=3 n=15 v=0
1565045 On ch=3 n=6 v=100
1565194 Off ch=3 n=6 v=0
1568428 On ch=3 n=13 v=100
1568653 Off ch=3 n=13 v=0
1568724 On ch=3 n=13 v=100
1568760 Off ch=3 n=13 v=0
1568861 On ch=3 n=38 v=100
1568956 Off ch=3 n=38 v=0
1569020 On ch=3 n=10 v=100
1569190 Off ch=3 n=10 v=0
1569201 On ch=3 n=21 v=100
1569439 Off ch=3 n=21 v=0
1570359 On ch=3 n=49 v=100
1570519 On ch=3 n=26 v=100
1570519 On ch=3 n=26 v=100
1570538 On ch=3 n=21 v=100
1570848 Off ch=3 n=21 v=0
1570860 Off ch=3 n=49 v=0
1570869 Off ch=3 n=26 v=0
1570869 Off ch=3 n=26 v=0
1571139 On ch=3 n=22 v=100
1571271 Off ch=3 n=22 v=0
1571487 On ch=3 n=9 v=100
1572060 On ch=3 n=15 v=100
1572088 On ch=3 n=31 v=100
1572149 On ch=3 n=30 v=100
1572149 Off ch=3 n=9 v=0
1572172 Off ch=3 n=15 v=0
1572184 Off ch=3 n=31 v=0
1572333 Off ch=3 n=30 v=0
1572473 On ch=3 n=45 v=100
1572624 Off ch=3 n=45 v=0
1572705 On ch=3 n=49 v=100
1572743 On ch=3 n=37 v=100
1572743 On ch=3 n=37 v=100
1572757 On ch=3 n=12 v=100
1572894 Off ch=3 n=49 v=0
1572976 Off ch=3 n=12 v=0
1573008 Off ch=3 n=37 v=0
1573008 Off ch=3 n=37 v=0
1573120 On ch=3 n=32 v=100
1573393 On ch=3 n=35 v=100
1573559 Off ch=3 n=32 v=0
1573790 Off ch=3 n=35 v=0
1573938 On ch=3 n=3 v=100
1573969 Off ch=3 n=3 v=0
1573978 On ch=3 n=14 v=100
1574409 Off ch=3 n=14 v=0
1575153 On ch=3 n=35 v=100
1575229 On ch=3 n=15 v=100
1575321 On ch=3 n=3 v=100
1575323 Off ch=3 n=35 v=0
1575337 Off ch=3 n=15 v=0
1575983 Off ch=3 n=3 v=0
1577515 On ch=3 n=8 v=100
1577903 On ch=3 n=11 v=100
1577903 Off ch=3 n=8 v=0
1578551 Off ch=3 n=11 v=0
1578843 On ch=3 n=15 v=100
1578942 Off ch=3 n=15 v=0
1578996 On ch=3 n=30 v=100
1579448 Off ch=3 n=30 v=0
1579520 On ch=3 n=29 v=100
1579533 On ch=3 n=32 v=100
1579539 On ch=3 n=21 v=100
1579637 Off ch=3 n=29 v=0
1579638 Off ch=3 n=21 v=0
1579640 On ch=3 n=12 v=100
1579672 Off ch=3 n=32 v=0
1579832 On ch=3 n=11 v=100
1579865 Off ch=3 n=12 v=0
1579973 Off ch=3 n=11 v=0
1579983 On ch=3 n=17 v=100
1580087 Off ch=3 n=17 v=0
1580103 On ch=3 n=20 v=100
1580204 Off ch=3 n=20 v=0
1580415 On ch=3 n=10 v=100
1580798 On ch=3 n=44 v=100
1580798 On ch=3 n=44 v=100
1580848 Off ch=3 n=10 v=0
1580860 On ch=3 n=22 v=100
1580936 Off ch=3 n=22 v=0
1580939 On ch=3 n=8 v=100
1580948 Off ch=3 n=44 v=0
1580948 Off ch=3 n=44 v=0
1581108 On ch=3 n=10 v=100
1581158 Off ch=3 n=8 v=0
1581483 Off ch=3 n=10 v=0
1581484 On ch=3 n=12 v=100
1582343 Off ch=3 n=12 v=0
1582346 On ch=3 n=12 v=100
1582445 On ch=3 n=13 v=100
1582445 Off ch=3 n=12 v=0
1582451 On ch=3 n=41 v=100
1582510 Off ch=3 n=13 v=0
1582514 On ch=3 n=19 v=100
1582514 On ch=3 n=32 v=100
1582514 On ch=3 n=18 v=100
1582514 On ch=3 n=42 v=100
1582572 Off ch=3 n=19 v=0
1582576 Off ch=3 n=41 v=0
1582582 Off ch=3 n=18 v=0
1582599 Off ch=3 n=32 v=0
1582639 Off ch=3 n=42 v=0
1583947 On ch=3 n=27 v=100
1584331 Off ch=3 n=27 v=0
1584334 On ch=3 n=23 v=100
1584382 Off ch=3 n=23 v=0
1584590 On ch=3 n=24 v=100
1584796 Off ch=3 n=24 v=0
1585546 On ch=3 n=38 v=100
1585552 On ch=3 n=45 v=100
1585619 Off ch=3 n=45 v=0
1585645 Off ch=3 n=38 v=0
1586115 On ch=3 n=33 v=100
1586559 Off ch=3 n=33 v=0
1586793 On ch=3 n=24 v=100
1586985 Off ch=3 n=24 v=0
1586988 On ch=3 n=21 v=100
1587108 Off ch=3 n=21 v=0
1587135 On ch=3 n=17 v=100
1587277 Off ch=3 n=17 v=0
1588644 On ch=3 n=6 v=100
1588719 On ch=3 n=9 v=100
1588737 Off ch=3 n=6 v=0
1589151 On ch=3 n=9 v=100
1589156 Off ch=3 n=9 v=0
1589192 Off ch=3 n=9 v=0
1589974 On ch=3 n=13 v=100
1590081 On ch=3 n=7 v=100
1590098 Off ch=3 n=13 v=0
1590357 Off ch=3 n=7 v=0
1590361 On ch=3 n=5 v=100
1590575 Off ch=3 n=5 v=0
1591201 On ch=3 n=8 v=100
1591461 Off ch=3 n=8 v=0
1591462 On ch=3 n=4 v=100
1592518 Off ch=3 n=4 v=0
1592551 On ch=3 n=4 v=100
1592717 Off ch=3 n=4 v=0
1592721 On ch=3 n=10 v=100
1593001 Off ch=3 n=10 v=0
1593069 On ch=3 n=10 v=100
1593541 On ch=3 n=5 v=100
1593543 Off ch=3 n=10 v=0
1593592 Off ch=3 n=5 v=0
1593633 On ch=3 n=29 v=100
1593692 Off ch=3 n=29 v=0
1594671 On ch=3 n=7 v=100
1595094 On ch=3 n=4 v=100
1595097 Off ch=3 n=7 v=0
1595867 On ch=3 n=10 v=100
1595869 Off ch=3 n=4 v=0
1596169 Off ch=3 n=10 v=0
1596220 On ch=3 n=11 v=100
1596673 Off ch=3 n=11 v=0
1597448 On ch=3 n=9 v=100
1597932 Off ch=3 n=9 v=0
1599529 On ch=3 n=16 v=100
1599588 Off ch=3 n=16 v=0
1600700 On ch=3 n=6 v=100
1600901 Off ch=3 n=6 v=0
1600904 On ch=3 n=12 v=100
1601126 Off ch=3 n=12 v=0
1601154 On ch=3 n=12 v=100
1601284 Off ch=3 n=12 v=0
1601565 On ch=3 n=9 v=100
1601885 Off ch=3 n=9 v=0
1602690 On ch=3 n=2 v=100
1602729 Off ch=3 n=2 v=0
1603350 On ch=3 n=23 v=100
1603370 On ch=3 n=34 v=100
1603412 On ch=3 n=37 v=100
1603469 Off ch=3 n=23 v=0
1603563 Off ch=3 n=34 v=0
1603663 Off ch=3 n=37 v=0
1603955 On ch=3 n=22 v=100
1604203 Off ch=3 n=22 v=0
1604838 On ch=3 n=18 v=100
1604840 On ch=3 n=9 v=100
1605145 Off ch=3 n=9 v=0
1605183 Off ch=3 n=18 v=0
1605245 On ch=3 n=28 v=100
1605309 On ch=3 n=23 v=100
1605342 On ch=3 n=38 v=100
1605342 On ch=3 n=16 v=100
1605448 On ch=3 n=38 v=100
1605474 Off ch=3 n=28 v=0
1605479 Off ch=3 n=23 v=0
1605489 Off ch=3 n=16 v=0
1605561 Off ch=3 n=38 v=0
1605714 On ch=3 n=28 v=100
1605798 On ch=3 n=43 v=100
1606093 On ch=3 n=16 v=100
1606095 Off ch=3 n=38 v=0
1606191 Off ch=3 n=28 v=0
1606299 Off ch=3 n=43 v=0
1606360 Off ch=3 n=16 v=0
1607184 On ch=3 n=35 v=100
1607356 Off ch=3 n=35 v=0
1607496 On ch=3 n=12 v=100
1607651 On ch=3 n=32 v=100
1607653 Off ch=3 n=12 v=0
1607922 Off ch=3 n=32 v=0
1609008 On ch=3 n=32 v=100
1609220 On ch=3 n=17 v=100
1609565 Off ch=3 n=32 v=0
1609570 Off ch=3 n=17 v=0
1610146 On ch=3 n=13 v=100
1610151 On ch=3 n=27 v=100
1610285 On ch=3 n=39 v=100
1610337 Off ch=3 n=13 v=0
1610338 On ch=3 n=23 v=100
1610371 Off ch=3 n=27 v=0
1610487 Off ch=3 n=23 v=0
1610488 Off ch=3 n=39 v=0
1610685 On ch=3 n=38 v=100
1611098 Off ch=3 n=38 v=0
1611356 On ch=3 n=19 v=100
1611422 On ch=3 n=3 v=100
1611424 Off ch=3 n=19 v=0
1611789 Off ch=3 n=3 v=0
1611936 On ch=3 n=20 v=100
1611938 On ch=3 n=0 v=100
1611940 On ch=3 n=8 v=100
1611985 Off ch=3 n=0 v=0
1611986 On ch=3 n=4 v=100
1612004 Off ch=3 n=8 v=0
1612020 On ch=3 n=20 v=100
1612020 Off ch=3 n=20 v=0
1612112 Off ch=3 n=4 v=0
1612152 Off ch=3 n=20 v=0
1613141 On ch=3 n=8 v=100
1614383 Off ch=3 n=8 v=0
1614473 On ch=3 n=14 v=100
1614587 Off ch=3 n=14 v=0
1614596 On ch=3 n=13 v=100
1614824 Off ch=3 n=13 v=0
1614868 On ch=3 n=13 v=100
1614970 Off ch=3 n=13 v=0
1615385 On ch=3 n=14 v=100
1616383 Off ch=3 n=14 v=0
1616401 On ch=3 n=19 v=100
1616457 Off ch=3 n=19 v=0
1616474 On ch=3 n=6 v=100
1617194 On ch=3 n=4 v=100
1617197 Off ch=3 n=6 v=0
1617263 Off ch=3 n=4 v=0
1617264 On ch=3 n=10 v=100
1617530 On ch=3 n=11 v=100
1617558 Off ch=3 n=10 v=0
1617558 Off ch=3 n=11 v=0
1617611 On ch=3 n=10 v=100
1617611 On ch=3 n=11 v=100
1618105 Off ch=3 n=10 v=0
1618286 Off ch=3 n=11 v=0
1620473 On ch=3 n=20 v=100
1620473 On ch=3 n=5 v=100
1620569 Off ch=3 n=5 v=0
1620639 Off ch=3 n=20 v=0
1620648 On ch=3 n=8 v=100
1621017 Off ch=3 n=8 v=0
1621038 On ch=3 n=5 v=100
1621157 On ch=3 n=54 v=100
1621364 Off ch=3 n=5 v=0
1621399 Off ch=3 n=54 v=0
1621434 On ch=3 n=27 v=100
1621446 Off ch=3 n=27 v=0
1621584 On ch=3 n=27 v=100
1621589 On ch=3 n=16 v=100
1621631 Off ch=3 n=27 v=0
1621646 Off ch=3 n=16 v=0
1621724 On ch=3 n=16 v=100
1621909 Off ch=3 n=16 v=0
1621964 On ch=3 n=26 v=100
1622129 Off ch=3 n=26 v=0
1622212 On ch=3 n=22 v=100
1622307 On ch=3 n=1 v=100
1622307 Off ch=3 n=22 v=0
1622520 Off ch=3 n=1 v=0
1622767 On ch=3 n=32 v=100
1622908 Off ch=3 n=32 v=0
1624552 On ch=3 n=15 v=100
1624758 Off ch=3 n=15 v=0
1624804 On ch=3 n=26 v=100
1625271 Off ch=3 n=26 v=0
1625318 On ch=3 n=38 v=100
1625355 On ch=3 n=19 v=100
1625513 Off ch=3 n=38 v=0
1625514 Off ch=3 n=19 v=0
1626956 On ch=3 n=26 v=100
1627052 Off ch=3 n=26 v=0
1627104 On ch=3 n=26 v=100
1627134 Off ch=3 n=26 v=0
1627154 On ch=3 n=5 v=100
1627315 Off ch=3 n=5 v=0
1627316 On ch=3 n=11 v=100
1627811 On ch=3 n=23 v=100
1627886 On ch=3 n=21 v=100
1627886 On ch=3 n=21 v=100
1627887 Off ch=3 n=11 v=0
1627909 Off ch=3 n=23 v=0
1627949 On ch=3 n=10 v=100
1628030 Off ch=3 n=10 v=0
1628164 On ch=3 n=34 v=100
1628164 On ch=3 n=34 v=100
1628166 Off ch=3 n=21 v=0
1628166 Off ch=3 n=21 v=0
1628212 On ch=3 n=20 v=100
1628214 On ch=3 n=38 v=100
1628306 Off ch=3 n=20 v=0
1628323 Off ch=3 n=34 v=0
1628323 Off ch=3 n=34 v=0
1628388 Off ch=3 n=38 v=0
1630854 On ch=3 n=46 v=100
1630920 On ch=3 n=44 v=100
1630920 On ch=3 n=44 v=100
1630921 On ch=3 n=22 v=100
1630921 On ch=3 n=22 v=100
1630979 Off ch=3 n=46 v=0
1631043 Off ch=3 n=22 v=0
1631043 Off ch=3 n=22 v=0
1631047 On ch=3 n=5 v=100
1631048 On ch=3 n=19 v=100
1631071 On ch=3 n=40 v=100
1631201 Off ch=3 n=5 v=0
1631252 Off ch=3 n=44 v=0
1631252 Off ch=3 n=44 v=0
1631282 Off ch=3 n=19 v=0
1631294 On ch=3 n=28 v=100
1631316 On ch=3 n=8 v=100
1631383 Off ch=3 n=40 v=0
1631406 Off ch=3 n=28 v=0
1631423 On ch=3 n=4 v=100
1631424 Off ch=3 n=8 v=0
1631739 Off ch=3 n=4 v=0
1631803 On ch=3 n=11 v=100
1631853 On ch=3 n=33 v=100
1631886 On ch=3 n=31 v=100
1631893 On ch=3 n=9 v=100
1631894 Off ch=3 n=11 v=0
1632085 On ch=3 n=8 v=100
1632085 Off ch=3 n=9 v=0
1632092 Off ch=3 n=33 v=0
1632146 Off ch=3 n=31 v=0
1632204 On ch=3 n=23 v=100
1632232 Off ch=3 n=8 v=0
1632241 On ch=3 n=31 v=100
1632242 On ch=3 n=11 v=100
1632273 On ch=3 n=19 v=100
1632396 Off ch=3 n=23 v=0
1632396 Off ch=3 n=11 v=0
1632523 Off ch=3 n=31 v=0
1632722 On ch=3 n=18 v=100
1632722 On ch=3 n=18 v=100
1632782 On ch=3 n=16 v=100
1632993 On ch=3 n=28 v=100
1633138 Off ch=3 n=19 v=0
1633217 Off ch=3 n=16 v=0
1633233 Off ch=3 n=18 v=0
1633233 Off ch=3 n=18 v=0
1633357 Off ch=3 n=28 v=0
1634531 On ch=3 n=21 v=100
1634573 On ch=3 n=31 v=100
1634579 Off ch=3 n=21 v=0
1634653 Off ch=3 n=31 v=0
1635569 On ch=3 n=8 v=100
1635580 On ch=3 n=26 v=100
1635580 On ch=3 n=8 v=100
1635634 Off ch=3 n=8 v=0
1635754 Off ch=3 n=8 v=0
1635823 Off ch=3 n=26 v=0
1635883 On ch=3 n=2 v=100
1635918 Off ch=3 n=2 v=0
1635922 On ch=3 n=3 v=100
1636035 Off ch=3 n=3 v=0
1636048 On ch=3 n=40 v=100
1636076 On ch=3 n=12 v=100
1636294 Off ch=3 n=40 v=0
1636301 On ch=3 n=6 v=100
1636301 Off ch=3 n=12 v=0
1636678 On ch=3 n=10 v=100
1636713 On ch=3 n=23 v=100
1636733 On ch=3 n=9 v=100
1636734 Off ch=3 n=6 v=0
1636741 Off ch=3 n=10 v=0
1636835 Off ch=3 n=9 v=0
1636837 Off ch=3 n=23 v=0
1637302 On ch=3 n=38 v=100
1637486 Off ch=3 n=38 v=0
1637776 On ch=3 n=32 v=100
1637984 Off ch=3 n=32 v=0
1639231 On ch=3 n=13 v=100
1639341 Off ch=3 n=13 v=0
1639344 On ch=3 n=8 v=100
1639492 Off ch=3 n=8 v=0
1639548 On ch=3 n=27 v=100
1639560 On ch=3 n=23 v=100
1639627 Off ch=3 n=27 v=0
1639628 Off ch=3 n=23 v=0
1639640 On ch=3 n=13 v=100
1639906 On ch=3 n=20 v=100
1639908 Off ch=3 n=13 v=0
1640141 On ch=3 n=12 v=100
1640144 Off ch=3 n=20 v=0
1640553 Off ch=3 n=12 v=0
1640761 On ch=3 n=12 v=100
1641227 On ch=3 n=8 v=100
1641232 Off ch=3 n=12 v=0
1641776 On ch=3 n=16 v=100
1641786 Off ch=3 n=8 v=0
1641909 Off ch=3 n=16 v=0
1642606 On ch=3 n=29 v=100
1642625 On ch=3 n=33 v=100
1642629 On ch=3 n=25 v=100
1642811 Off ch=3 n=29 v=0
1642816 Off ch=3 n=25 v=0
1642838 Off ch=3 n=33 v=0
1643540 On ch=3 n=30 v=100
1643641 Off ch=3 n=30 v=0
1643665 On ch=3 n=20 v=100
1643665 On ch=3 n=20 v=100
1643870 On ch=3 n=10 v=100
1644222 Off ch=3 n=10 v=0
1644233 Off ch=3 n=20 v=0
1644233 Off ch=3 n=20 v=0
1644371 On ch=3 n=22 v=100
1644371 On ch=3 n=32 v=100
1644462 Off ch=3 n=22 v=0
1644525 Off ch=3 n=32 v=0
1644866 On ch=3 n=16 v=100
1645164 Off ch=3 n=16 v=0
1648476 On ch=3 n=9 v=100
1648908 Off ch=3 n=9 v=0
1649063 On ch=3 n=41 v=100
1649093 On ch=3 n=43 v=100
1649176 Off ch=3 n=41 v=0
1649177 Off ch=3 n=43 v=0
1650550 On ch=3 n=32 v=100
1650592 On ch=3 n=18 v=100
1650914 Off ch=3 n=18 v=0
1650915 Off ch=3 n=32 v=0
1651605 On ch=3 n=13 v=100
1651829 On ch=3 n=32 v=100
1651935 Off ch=3 n=13 v=0
1652098 Off ch=3 n=32 v=0
1652898 On ch=3 n=9 v=100
1653072 Off ch=3 n=9 v=0
1653252 On ch=3 n=19 v=100
1653371 Off ch=3 n=19 v=0
1654092 On ch=3 n=30 v=100
1654284 Off ch=3 n=30 v=0
1654452 On ch=3 n=45 v=100
1654616 Off ch=3 n=45 v=0
1654988 On ch=3 n=9 v=100
1655001 On ch=3 n=59 v=100
1655303 Off ch=3 n=9 v=0
1655308 On ch=3 n=8 v=100
1655964 Off ch=3 n=59 v=0
1656115 Off ch=3 n=8 v=0
1656807 On ch=3 n=57 v=100
1656895 On ch=3 n=13 v=100
1657016 Off ch=3 n=57 v=0
1657036 Off ch=3 n=13 v=0
1657037 On ch=3 n=12 v=100
1657578 On ch=3 n=35 v=100
1657673 On ch=3 n=22 v=100
1657676 Off ch=3 n=12 v=0
1657703 Off ch=3 n=35 v=0
1657776 Off ch=3 n=22 v=0
1657803 On ch=3 n=15 v=100
1658179 Off ch=3 n=15 v=0
1658207 On ch=3 n=23 v=100
1658214 On ch=3 n=24 v=100
1658245 On ch=3 n=25 v=100
1658247 On ch=3 n=13 v=100
1658505 Off ch=3 n=24 v=0
1658539 Off ch=3 n=13 v=0
1658544 Off ch=3 n=23 v=0
1658567 On ch=3 n=30 v=100
1658590 On ch=3 n=24 v=100
1658612 Off ch=3 n=25 v=0
1658718 On ch=3 n=33 v=100
1658767 Off ch=3 n=30 v=0
1658769 Off ch=3 n=24 v=0
1658775 On ch=3 n=26 v=100
1658919 Off ch=3 n=33 v=0
1658923 Off ch=3 n=26 v=0
1660827 On ch=3 n=6 v=100
1661064 Off ch=3 n=6 v=0
1661253 On ch=3 n=65 v=100
1661253 On ch=3 n=65 v=100
1661290 On ch=3 n=35 v=100
1661306 On ch=3 n=30 v=100
1661374 Off ch=3 n=35 v=0
1661410 Off ch=3 n=65 v=0
1661410 Off ch=3 n=65 v=0
1661411 Off ch=3 n=30 v=0
1661416 On ch=3 n=13 v=100
1662484 Off ch=3 n=13 v=0
1662492 On ch=3 n=13 v=100
1662498 On ch=3 n=39 v=100
1662500 On ch=3 n=21 v=100
1662503 On ch=3 n=47 v=100
1662538 Off ch=3 n=13 v=0
1662570 Off ch=3 n=21 v=0
1662626 Off ch=3 n=39 v=0
1662633 On ch=3 n=13 v=100
1662743 Off ch=3 n=47 v=0
1662864 Off ch=3 n=13 v=0
1663059 On ch=3 n=46 v=100
1663126 Off ch=3 n=46 v=0
1663127 On ch=3 n=21 v=100
1663412 Off ch=3 n=21 v=0
1664173 On ch=3 n=21 v=100
1664485 Off ch=3 n=21 v=0
1664516 On ch=3 n=13 v=100
1664850 Off ch=3 n=13 v=0
1665144 On ch=3 n=45 v=100
1665144 On ch=3 n=45 v=100
1665176 On ch=3 n=23 v=100
1665361 On ch=3 n=15 v=100
1665546 Off ch=3 n=23 v=0
1665640 Off ch=3 n=45 v=0
1665640 Off ch=3 n=45 v=0
1665642 On ch=3 n=19 v=100
1665997 Off ch=3 n=15 v=0
1666141 Off ch=3 n=19 v=0
1666158 On ch=3 n=15 v=100
1666214 On ch=3 n=10 v=100
1666216 Off ch=3 n=15 v=0
1666449 Off ch=3 n=10 v=0
1667437 On ch=3 n=12 v=100
1667596 Off ch=3 n=12 v=0
1667628 On ch=3 n=10 v=100
1667874 Off ch=3 n=10 v=0
1667885 On ch=3 n=13 v=100
1667951 Off ch=3 n=13 v=0
1668353 On ch=3 n=33 v=100
1668867 Off ch=3 n=33 v=0
1669084 On ch=3 n=30 v=100
1669162 Off ch=3 n=30 v=0
1669763 On ch=3 n=31 v=100
1670004 Off ch=3 n=31 v=0
1670031 On ch=3 n=19 v=100
1670142 On ch=3 n=11 v=100
1670453 Off ch=3 n=11 v=0
1670455 Off ch=3 n=19 v=0
1670652 On ch=3 n=21 v=100
1670841 On ch=3 n=7 v=100
1670861 Off ch=3 n=21 v=0
1670861 Off ch=3 n=7 v=0
1670989 On ch=3 n=21 v=100
1671361 Off ch=3 n=21 v=0
1671489 On ch=3 n=9 v=100
1671884 Off ch=3 n=9 v=0
1672006 On ch=3 n=22 v=100
1672400 Off ch=3 n=22 v=0
1672676 On ch=3 n=5 v=100
1672996 Off ch=3 n=5 v=0
1672997 On ch=3 n=10 v=100
1673175 Off ch=3 n=10 v=0
1673184 On ch=3 n=4 v=100
1673370 On ch=3 n=11 v=100
1673371 Off ch=3 n=4 v=0
1673573 Off ch=3 n=11 v=0
1673578 On ch=3 n=23 v=100
1673660 On ch=3 n=12 v=100
1673970 Off ch=3 n=23 v=0
1673970 Off ch=3 n=12 v=0
1674193 On ch=3 n=35 v=100
1674285 On ch=3 n=34 v=100
1674440 Off ch=3 n=35 v=0
1674473 Off ch=3 n=34 v=0
1674796 On ch=3 n=11 v=100
1674852 Off ch=3 n=11 v=0
1675447 On ch=3 n=11 v=100
1675935 Off ch=3 n=11 v=0
1675939 On ch=3 n=14 v=100
1676079 Off ch=3 n=14 v=0
1676127 On ch=3 n=8 v=100
1676374 On ch=3 n=23 v=100
1676382 Off ch=3 n=8 v=0
1676440 On ch=3 n=14 v=100
1676441 Off ch=3 n=23 v=0
1676598 Off ch=3 n=14 v=0
1676623 On ch=3 n=19 v=100
1676816 Off ch=3 n=19 v=0
1676975 On ch=3 n=20 v=100
1677201 Off ch=3 n=20 v=0
1677510 On ch=3 n=48 v=100
1678526 Off ch=3 n=48 v=0
1679822 On ch=3 n=23 v=100
1679978 Off ch=3 n=23 v=0
1680103 On ch=3 n=21 v=100
1680228 Off ch=3 n=21 v=0
1680595 On ch=3 n=44 v=100
1680711 On ch=3 n=9 v=100
1680828 Off ch=3 n=44 v=0
1681340 Off ch=3 n=9 v=0
1681353 On ch=3 n=18 v=100
1681478 Off ch=3 n=18 v=0
1681882 On ch=3 n=34 v=100
1681904 On ch=3 n=27 v=100
1681949 On ch=3 n=32 v=100
1681987 On ch=3 n=7 v=100
1681987 On ch=3 n=24 v=100
1682091 Off ch=3 n=27 v=0
1682094 On ch=3 n=7 v=100
1682095 Off ch=3 n=34 v=0
1682114 Off ch=3 n=7 v=0
1682179 Off ch=3 n=24 v=0
1682190 Off ch=3 n=32 v=0
1682574 Off ch=3 n=7 v=0
1683300 On ch=3 n=53 v=100
1683386 On ch=3 n=33 v=100
1683469 Off ch=3 n=53 v=0
1683604 Off ch=3 n=33 v=0
1684026 On ch=3 n=10 v=100
1684980 Off ch=3 n=10 v=0
1685090 On ch=3 n=22 v=100
1685173 Off ch=3 n=22 v=0
1685200 On ch=3 n=6 v=100
1685232 On ch=3 n=12 v=100
1685232 Off ch=3 n=6 v=0
1685786 Off ch=3 n=12 v=0
1685788 On ch=3 n=11 v=100
1686010 Off ch=3 n=11 v=0
1686438 On ch=3 n=46 v=100
1686438 On ch=3 n=46 v=100
1686465 On ch=3 n=25 v=100
1686465 On ch=3 n=25 v=100
1686471 On ch=3 n=22 v=100
1686636 On ch=3 n=51 v=100
1686660 Off ch=3 n=46 v=0
1686660 Off ch=3 n=46 v=0
1686732 Off ch=3 n=22 v=0
1686789 Off ch=3 n=25 v=0
1686789 Off ch=3 n=25 v=0
1686856 Off ch=3 n=51 v=0
1687544 On ch=3 n=10 v=100
1687965 Off ch=3 n=10 v=0
1687974 On ch=3 n=12 v=100
1688006 Off ch=3 n=12 v=0
1688017 On ch=3 n=17 v=100
1688096 On ch=3 n=19 v=100
1688107 Off ch=3 n=17 v=0
1688364 Off ch=3 n=19 v=0
1689121 On ch=3 n=41 v=100
1689121 On ch=3 n=41 v=100
1689151 On ch=3 n=18 v=100
1689185 On ch=3 n=25 v=100
1689185 On ch=3 n=25 v=100
1689275 Off ch=3 n=41 v=0
1689275 Off ch=3 n=41 v=0
1689405 Off ch=3 n=18 v=0
1689497 Off ch=3 n=25 v=0
1689497 Off ch=3 n=25 v=0
1689679 On ch=3 n=20 v=100
1689716 On ch=3 n=54 v=100
1689891 Off ch=3 n=20 v=0
1689972 On ch=3 n=6 v=100
1689984 On ch=3 n=17 v=100
1689995 Off ch=3 n=54 v=0
1690047 Off ch=3 n=6 v=0
1690048 On ch=3 n=6 v=100
1690451 Off ch=3 n=17 v=0
1690613 Off ch=3 n=6 v=0
1691140 On ch=3 n=35 v=100
1691424 Off ch=3 n=35 v=0
1692200 On ch=3 n=15 v=100
1692347 Off ch=3 n=15 v=0
1692359 On ch=3 n=9 v=100
1692388 On ch=3 n=20 v=100
1692919 On ch=3 n=24 v=100
1692926 Off ch=3 n=9 v=0
1693052 Off ch=3 n=20 v=0
1693077 On ch=3 n=11 v=100
1693080 Off ch=3 n=24 v=0
1693310 On ch=3 n=19 v=100
1693378 Off ch=3 n=11 v=0
1693846 Off ch=3 n=19 v=0
1693958 On ch=3 n=13 v=100
1694216 On ch=3 n=30 v=100
1694250 Off ch=3 n=13 v=0
1694251 On ch=3 n=15 v=100
1694254 On ch=3 n=23 v=100
1694270 On ch=3 n=33 v=100
1694270 On ch=3 n=41 v=100
1694410 Off ch=3 n=15 v=0
1694415 Off ch=3 n=30 v=0
1694446 Off ch=3 n=23 v=0
1694468 Off ch=3 n=33 v=0
1694502 Off ch=3 n=41 v=0
1694637 On ch=3 n=7 v=100
1695625 Off ch=3 n=7 v=0
1696061 On ch=3 n=36 v=100
1696141 Off ch=3 n=36 v=0
1696640 On ch=3 n=6 v=100
1696953 Off ch=3 n=6 v=0
1697044 On ch=3 n=6 v=100
1697228 On ch=3 n=11 v=100
1697229 Off ch=3 n=6 v=0
1698070 On ch=3 n=22 v=100
1698116 Off ch=3 n=11 v=0
1698149 On ch=3 n=21 v=100
1698153 Off ch=3 n=22 v=0
1698419 Off ch=3 n=21 v=0
1699230 On ch=3 n=15 v=100
1699409 On ch=3 n=13 v=100
1699412 Off ch=3 n=15 v=0
1699796 Off ch=3 n=13 v=0
1699797 On ch=3 n=7 v=100
1700128 Off ch=3 n=7 v=0
1700138 On ch=3 n=15 v=100
1700354 On ch=3 n=31 v=100
1700408 Off ch=3 n=15 v=0
1700413 On ch=3 n=17 v=100
1700450 Off ch=3 n=31 v=0
1700939 On ch=3 n=18 v=100
1701094 Off ch=3 n=17 v=0
1701403 On ch=3 n=30 v=100
1701405 Off ch=3 n=18 v=0
1701466 Off ch=3 n=30 v=0
1701478 On ch=3 n=8 v=100
1701729 Off ch=3 n=8 v=0
1702431 On ch=3 n=31 v=100
1702567 On ch=3 n=22 v=100
1702599 On ch=3 n=8 v=100
1702663 Off ch=3 n=31 v=0
1702663 Off ch=3 n=22 v=0
1702689 Off ch=3 n=8 v=0
1704046 On ch=3 n=11 v=100
1704456 Off ch=3 n=11 v=0
1704458 On ch=3 n=22 v=100
1704559 Off ch=3 n=22 v=0
1704661 On ch=3 n=14 v=100
1705028 On ch=3 n=19 v=100
1705086 Off ch=3 n=14 v=0
1705095 Off ch=3 n=19 v=0
1705439 On ch=3 n=19 v=100
1705481 On ch=3 n=16 v=100
1705521 Off ch=3 n=19 v=0
1705524 On ch=3 n=30 v=100
1705659 Off ch=3 n=16 v=0
1705839 Off ch=3 n=30 v=0
1706419 On ch=3 n=23 v=100
1706538 Off ch=3 n=23 v=0
1706539 On ch=3 n=8 v=100
1706597 Off ch=3 n=8 v=0
1706676 On ch=3 n=8 v=100
1706793 Off ch=3 n=8 v=0
1706799 On ch=3 n=15 v=100
1706984 On ch=3 n=27 v=100
1707001 Off ch=3 n=15 v=0
1707097 Off ch=3 n=27 v=0
1707214 On ch=3 n=26 v=100
1707225 On ch=3 n=22 v=100
1707278 On ch=3 n=20 v=100
1707288 Off ch=3 n=26 v=0
1707291 Off ch=3 n=22 v=0
1707294 On ch=3 n=34 v=100
1707338 Off ch=3 n=20 v=0
1707357 Off ch=3 n=34 v=0
1707626 On ch=3 n=7 v=100
1708382 Off ch=3 n=7 v=0
1709506 On ch=3 n=23 v=100
1709555 Off ch=3 n=23 v=0
1712503 On ch=3 n=29 v=100
1712559 On ch=3 n=55 v=100
1712783 Off ch=3 n=29 v=0
1712833 Off ch=3 n=55 v=0
1717605 On ch=3 n=20 v=100
1717922 Off ch=3 n=20 v=0
1719333 On ch=3 n=9 v=100
1719577 Off ch=3 n=9 v=0
1719662 On ch=3 n=14 v=100
1719769 Off ch=3 n=14 v=0
1719863 On ch=3 n=9 v=100
1720568 Off ch=3 n=9 v=0
1720686 On ch=3 n=43 v=100
1720758 On ch=3 n=33 v=100
1720763 On ch=3 n=38 v=100
1720905 Off ch=3 n=43 v=0
1720905 Off ch=3 n=33 v=0
1720932 Off ch=3 n=38 v=0
1721109 On ch=3 n=23 v=100
1721109 On ch=3 n=13 v=100
1721169 On ch=3 n=38 v=100
1721200 Off ch=3 n=13 v=0
1721270 On ch=3 n=22 v=100
1721280 Off ch=3 n=23 v=0
1721402 On ch=3 n=46 v=100
1721403 On ch=3 n=35 v=100
1721494 Off ch=3 n=22 v=0
1721504 Off ch=3 n=38 v=0
1721518 Off ch=3 n=46 v=0
1721533 Off ch=3 n=35 v=0
1722293 On ch=3 n=16 v=100
1722470 Off ch=3 n=16 v=0
1723217 On ch=3 n=47 v=100
1723330 Off ch=3 n=47 v=0
1723423 On ch=3 n=31 v=100
1723423 On ch=3 n=7 v=100
1723873 Off ch=3 n=7 v=0
1723878 On ch=3 n=9 v=100
1723951 Off ch=3 n=31 v=0
1724319 Off ch=3 n=9 v=0
1725041 On ch=3 n=18 v=100
1725132 Off ch=3 n=18 v=0
1725280 On ch=3 n=28 v=100
1725402 On ch=3 n=10 v=100
1725514 On ch=3 n=19 v=100
1725761 On ch=3 n=42 v=100
1725885 Off ch=3 n=10 v=0
1725887 Off ch=3 n=28 v=0
1726002 Off ch=3 n=19 v=0
1726175 Off ch=3 n=42 v=0
1727396 On ch=3 n=24 v=100
1727737 Off ch=3 n=24 v=0
1727889 On ch=3 n=37 v=100
1727889 On ch=3 n=37 v=100
1727958 On ch=3 n=20 v=100
1728012 On ch=3 n=19 v=100
1728012 On ch=3 n=19 v=100
1728047 Off ch=3 n=37 v=0
1728047 Off ch=3 n=37 v=0
1728154 On ch=3 n=15 v=100
1728156 On ch=3 n=20 v=100
1728516 Off ch=3 n=20 v=0
1728587 Off ch=3 n=19 v=0
1728587 Off ch=3 n=19 v=0
1728629 Off ch=3 n=15 v=0
1728723 Off ch=3 n=20 v=0
1729448 On ch=3 n=15 v=100
1730180 On ch=3 n=22 v=100
1730233 Off ch=3 n=15 v=0
1730386 Off ch=3 n=22 v=0
1730651 On ch=3 n=50 v=100
1730948 On ch=3 n=15 v=100
1730981 Off ch=3 n=50 v=0
1731310 Off ch=3 n=15 v=0
1732369 On ch=3 n=8 v=100
1732654 Off ch=3 n=8 v=0
1732675 On ch=3 n=12 v=100
1733540 Off ch=3 n=12 v=0
1733823 On ch=3 n=16 v=100
1733868 Off ch=3 n=16 v=0
1733869 On ch=3 n=10 v=100
1734157 Off ch=3 n=10 v=0
1734172 On ch=3 n=12 v=100
1734493 Off ch=3 n=12 v=0
1734563 On ch=3 n=10 v=100
1734726 Off ch=3 n=10 v=0
1734735 On ch=3 n=20 v=100
1734894 On ch=3 n=9 v=100
1734898 Off ch=3 n=20 v=0
1735011 On ch=3 n=36 v=100
1735057 On ch=3 n=59 v=100
1735063 On ch=3 n=10 v=100
1735067 Off ch=3 n=9 v=0
1735260 Off ch=3 n=10 v=0
1735261 On ch=3 n=23 v=100
1735290 Off ch=3 n=36 v=0
1735416 Off ch=3 n=59 v=0
1735505 On ch=3 n=12 v=100
1735811 On ch=3 n=24 v=100
1735827 Off ch=3 n=12 v=0
1735828 Off ch=3 n=23 v=0
1735832 On ch=3 n=21 v=100
1735992 Off ch=3 n=24 v=0
1735992 Off ch=3 n=21 v=0
1737215 On ch=3 n=35 v=100
1737314 On ch=3 n=27 v=100
1737367 On ch=3 n=28 v=100
1737431 Off ch=3 n=35 v=0
1737431 Off ch=3 n=27 v=0
1737431 Off ch=3 n=28 v=0
1737463 On ch=3 n=35 v=100
1737463 On ch=3 n=18 v=100
1737463 On ch=3 n=28 v=100
1737463 On ch=3 n=21 v=100
1737463 On ch=3 n=27 v=100
1737464 On ch=3 n=18 v=100
1737630 On ch=3 n=39 v=100
1737692 Off ch=3 n=35 v=0
1737761 Off ch=3 n=18 v=0
1737762 Off ch=3 n=27 v=0
1737771 Off ch=3 n=18 v=0
1737814 On ch=3 n=35 v=100
1737814 Off ch=3 n=28 v=0
1737837 Off ch=3 n=21 v=0
1737869 Off ch=3 n=39 v=0
1737901 Off ch=3 n=35 v=0
1737964 On ch=3 n=38 v=100
1738239 Off ch=3 n=38 v=0
1738470 On ch=3 n=20 v=100
1738648 Off ch=3 n=20 v=0
1738990 On ch=3 n=28 v=100
1739160 On ch=3 n=9 v=100
1739269 Off ch=3 n=28 v=0
1739347 Off ch=3 n=9 v=0
1739776 On ch=3 n=10 v=100
1739900 On ch=3 n=32 v=100
1740241 Off ch=3 n=10 v=0
1740288 Off ch=3 n=32 v=0
1740545 On ch=3 n=24 v=100
1740657 Off ch=3 n=24 v=0
1741662 On ch=3 n=20 v=100
1741721 Off ch=3 n=20 v=0
1741725 On ch=3 n=10 v=100
1741878 Off ch=3 n=10 v=0
1741880 On ch=3 n=10 v=100
1742259 Off ch=3 n=10 v=0
1742260 On ch=3 n=8 v=100
1743270 Off ch=3 n=8 v=0
1743273 On ch=3 n=8 v=100
1743584 Off ch=3 n=8 v=0
1743586 On ch=3 n=8 v=100
1743650 Off ch=3 n=8 v=0
1743652 On ch=3 n=11 v=100
1743729 Off ch=3 n=11 v=0
1744457 On ch=3 n=16 v=100
1744770 Off ch=3 n=16 v=0
1744773 On ch=3 n=9 v=100
1744912 Off ch=3 n=9 v=0
1744920 On ch=3 n=7 v=100
1745167 Off ch=3 n=7 v=0
1745171 On ch=3 n=7 v=100
1745252 Off ch=3 n=7 v=0
1746511 On ch=3 n=13 v=100
1746651 Off ch=3 n=13 v=0
1746936 On ch=3 n=23 v=100
1746980 On ch=3 n=5 v=100
1746983 On ch=3 n=19 v=100
1746983 On ch=3 n=25 v=100
1746983 On ch=3 n=37 v=100
1747033 Off ch=3 n=23 v=0
1747036 Off ch=3 n=5 v=0
1747045 Off ch=3 n=19 v=0
1747055 On ch=3 n=14 v=100
1747057 Off ch=3 n=25 v=0
1747068 Off ch=3 n=37 v=0
1747376 Off ch=3 n=14 v=0
1748467 On ch=3 n=20 v=100
1749041 Off ch=3 n=20 v=0
1749672 On ch=3 n=3 v=100
1749991 Off ch=3 n=3 v=0
1750078 On ch=3 n=10 v=100
1750303 On ch=3 n=11 v=100
1750303 Off ch=3 n=10 v=0
1750379 Off ch=3 n=11 v=0
1750494 On ch=3 n=25 v=100
1750624 On ch=3 n=40 v=100
1750729 Off ch=3 n=25 v=0
1750742 Off ch=3 n=40 v=0
1751818 On ch=3 n=21 v=100
1752079 Off ch=3 n=21 v=0
1752093 On ch=3 n=10 v=100
1752407 On ch=3 n=13 v=100
1752408 Off ch=3 n=10 v=0
1752483 Off ch=3 n=13 v=0
1752597 On ch=3 n=25 v=100
1752887 On ch=3 n=40 v=100
1752889 Off ch=3 n=25 v=0
1752961 On ch=3 n=7 v=100
1752964 Off ch=3 n=40 v=0
1754076 Off ch=3 n=7 v=0
1754272 On ch=3 n=27 v=100
1754318 On ch=3 n=31 v=100
1754324 On ch=3 n=18 v=100
1754331 On ch=3 n=8 v=100
1754434 Off ch=3 n=27 v=0
1754524 On ch=3 n=65 v=100
1754661 Off ch=3 n=8 v=0
1754782 On ch=3 n=25 v=100
1754791 Off ch=3 n=18 v=0
1754905 Off ch=3 n=31 v=0
1754920 On ch=3 n=20 v=100
1754920 On ch=3 n=20 v=100
1754976 On ch=3 n=23 v=100
1755064 Off ch=3 n=65 v=0
1755128 Off ch=3 n=25 v=0
1755154 On ch=3 n=27 v=100
1755154 On ch=3 n=27 v=100
1755429 Off ch=3 n=20 v=0
1755429 Off ch=3 n=23 v=0
1755429 Off ch=3 n=20 v=0
1755627 Off ch=3 n=27 v=0
1755627 Off ch=3 n=27 v=0
1758284 On ch=3 n=48 v=100
1758378 On ch=3 n=39 v=100
1758493 Off ch=3 n=48 v=0
1758496 Off ch=3 n=39 v=0
1758591 On ch=3 n=11 v=100
1758684 Off ch=3 n=11 v=0
1758685 On ch=3 n=10 v=100
1759362 Off ch=3 n=10 v=0
1759365 On ch=3 n=18 v=100
1759795 Off ch=3 n=18 v=0
1766184 On ch=3 n=29 v=100
1766198 On ch=3 n=12 v=100
1766252 On ch=3 n=15 v=100
1766308 Off ch=3 n=29 v=0
1766312 Off ch=3 n=12 v=0
1766614 Off ch=3 n=15 v=0
1768179 On ch=3 n=20 v=100
1768229 Off ch=3 n=20 v=0
1768265 On ch=3 n=20 v=100
1768265 On ch=3 n=39 v=100
1768304 Off ch=3 n=20 v=0
1768323 Off ch=3 n=39 v=0
1768517 On ch=3 n=19 v=100
1768648 Off ch=3 n=19 v=0
1773068 On ch=3 n=29 v=100
1773262 On ch=3 n=29 v=100
1773341 Off ch=3 n=29 v=0
1773354 Off ch=3 n=29 v=0
1773455 On ch=3 n=15 v=100
1773612 Off ch=3 n=15 v=0
1773685 On ch=3 n=32 v=100
1773774 Off ch=3 n=32 v=0
1773775 On ch=3 n=9 v=100
1774772 Off ch=3 n=9 v=0
1774792 On ch=3 n=25 v=100
1774963 Off ch=3 n=25 v=0
1775130 On ch=3 n=33 v=100
1775130 On ch=3 n=51 v=100
1775273 Off ch=3 n=33 v=0
1775283 On ch=3 n=21 v=100
1775304 On ch=3 n=11 v=100
1775306 Off ch=3 n=51 v=0
1775399 Off ch=3 n=21 v=0
1775815 Off ch=3 n=11 v=0
1776149 On ch=3 n=7 v=100
1776864 Off ch=3 n=7 v=0
1776897 On ch=3 n=6 v=100
1777127 On ch=3 n=11 v=100
1777128 Off ch=3 n=6 v=0
1777366 Off ch=3 n=11 v=0
1778474 On ch=3 n=17 v=100
1779291 Off ch=3 n=17 v=0
1779336 On ch=3 n=10 v=100
1780480 On ch=3 n=21 v=100
1780576 Off ch=3 n=10 v=0
1780582 On ch=3 n=23 v=100
1780614 Off ch=3 n=21 v=0
1780845 Off ch=3 n=23 v=0
1780997 On ch=3 n=25 v=100
1781065 Off ch=3 n=25 v=0
1783063 On ch=3 n=5 v=100
1783844 Off ch=3 n=5 v=0
1784257 On ch=3 n=9 v=100
1784271 On ch=3 n=15 v=100
1784325 Off ch=3 n=9 v=0
1784392 Off ch=3 n=15 v=0
1784395 On ch=3 n=11 v=100
1784482 Off ch=3 n=11 v=0
1784867 On ch=3 n=52 v=100
1785175 Off ch=3 n=52 v=0
1785224 On ch=3 n=22 v=100
1785386 On ch=3 n=16 v=100
1785444 Off ch=3 n=22 v=0
1785519 Off ch=3 n=16 v=0
1787036 On ch=3 n=16 v=100
1787174 Off ch=3 n=16 v=0
1788055 On ch=3 n=13 v=100
1788362 Off ch=3 n=13 v=0
1788382 On ch=3 n=14 v=100
1788508 Off ch=3 n=14 v=0
1788523 On ch=3 n=8 v=100
1789086 On ch=3 n=8 v=100
1789089 Off ch=3 n=8 v=0
1789508 Off ch=3 n=8 v=0
1789510 On ch=3 n=6 v=100
1790139 On ch=3 n=7 v=100
1790139 Off ch=3 n=6 v=0
1790351 Off ch=3 n=7 v=0
1790352 On ch=3 n=23 v=100
1790441 On ch=3 n=14 v=100
1790460 Off ch=3 n=23 v=0
1790731 Off ch=3 n=14 v=0
1791345 On ch=3 n=12 v=100
1791655 On ch=3 n=28 v=100
1791745 Off ch=3 n=12 v=0
1791756 Off ch=3 n=28 v=0
1792546 On ch=3 n=36 v=100
1792614 Off ch=3 n=36 v=0
1792705 On ch=3 n=12 v=100
1792822 On ch=3 n=30 v=100
1792866 Off ch=3 n=12 v=0
1792962 Off ch=3 n=30 v=0
1793144 On ch=3 n=32 v=100
1793299 Off ch=3 n=32 v=0
1793302 On ch=3 n=6 v=100
1793400 Off ch=3 n=6 v=0
1793403 On ch=3 n=10 v=100
1793545 Off ch=3 n=10 v=0
1793562 On ch=3 n=13 v=100
1794022 Off ch=3 n=13 v=0
1794364 On ch=3 n=25 v=100
1794434 On ch=3 n=13 v=100
1794699 Off ch=3 n=25 v=0
1794699 Off ch=3 n=13 v=0
1794766 On ch=3 n=25 v=100
1794766 On ch=3 n=13 v=100
1794766 On ch=3 n=24 v=100
1794766 On ch=3 n=37 v=100
1794929 Off ch=3 n=25 v=0
1794958 Off ch=3 n=13 v=0
1795107 Off ch=3 n=24 v=0
1795265 Off ch=3 n=37 v=0
1795279 On ch=3 n=30 v=100
1795314 On ch=3 n=22 v=100
1795508 Off ch=3 n=22 v=0
1795512 Off ch=3 n=30 v=0
1796526 On ch=3 n=16 v=100
1796713 Off ch=3 n=16 v=0
1799366 On ch=3 n=37 v=100
1799404 On ch=3 n=17 v=100
1799415 On ch=3 n=40 v=100
1799424 On ch=3 n=5 v=100
1799615 Off ch=3 n=5 v=0
1799620 Off ch=3 n=37 v=0
1799631 Off ch=3 n=17 v=0
1799729 Off ch=3 n=40 v=0
1801145 On ch=3 n=22 v=100
1801712 Off ch=3 n=22 v=0
1802035 On ch=3 n=17 v=100
1802169 Off ch=3 n=17 v=0
1803271 On ch=3 n=10 v=100
1803865 Off ch=3 n=10 v=0
1803932 On ch=3 n=22 v=100
1803958 On ch=3 n=8 v=100
1804030 Off ch=3 n=22 v=0
1804055 Off ch=3 n=8 v=0
1804384 On ch=3 n=23 v=100
1804559 Off ch=3 n=23 v=0
1804771 On ch=3 n=7 v=100
1804980 Off ch=3 n=7 v=0
1805150 On ch=3 n=8 v=100
1806033 Off ch=3 n=8 v=0
1806068 On ch=3 n=8 v=100
1806689 Off ch=3 n=8 v=0
1808538 On ch=3 n=7 v=100
1809396 Off ch=3 n=7 v=0
1809618 On ch=3 n=27 v=100
1809753 Off ch=3 n=27 v=0
1809882 On ch=3 n=49 v=100
1810012 Off ch=3 n=49 v=0
1810940 On ch=3 n=18 v=100
1811172 Off ch=3 n=18 v=0
1812133 On ch=3 n=19 v=100
1812211 On ch=3 n=34 v=100
1812371 Off ch=3 n=19 v=0
1812395 Off ch=3 n=34 v=0
1812757 On ch=3 n=25 v=100
1812773 On ch=3 n=19 v=100
1812865 Off ch=3 n=25 v=0
1812905 Off ch=3 n=19 v=0
1812952 On ch=3 n=19 v=100
1813107 On ch=3 n=39 v=100
1813169 Off ch=3 n=19 v=0
1813302 On ch=3 n=12 v=100
1813324 Off ch=3 n=39 v=0
1813678 On ch=3 n=13 v=100
1813738 Off ch=3 n=12 v=0
1813982 Off ch=3 n=13 v=0
1815185 On ch=3 n=29 v=100
1815408 Off ch=3 n=29 v=0
1816222 On ch=3 n=34 v=100
1816440 Off ch=3 n=34 v=0
1816590 On ch=3 n=28 v=100
1816769 Off ch=3 n=28 v=0
1816839 On ch=3 n=12 v=100
1816859 On ch=3 n=37 v=100
1816859 On ch=3 n=37 v=100
1816893 On ch=3 n=24 v=100
1816894 Off ch=3 n=12 v=0
1816943 Off ch=3 n=24 v=0
1816963 Off ch=3 n=37 v=0
1816963 Off ch=3 n=37 v=0
1817051 On ch=3 n=10 v=100
1817173 Off ch=3 n=10 v=0
1817207 On ch=3 n=11 v=100
1817756 Off ch=3 n=11 v=0
1817943 On ch=3 n=12 v=100
1818208 Off ch=3 n=12 v=0
1829297 On ch=3 n=2 v=100
1829453 Off ch=3 n=2 v=0
1829456 On ch=3 n=6 v=100
1829506 On ch=3 n=6 v=100
1829506 Off ch=3 n=6 v=0
1829540 Off ch=3 n=6 v=0
1829562 On ch=3 n=15 v=100
1829606 On ch=3 n=15 v=100
1829611 On ch=3 n=12 v=100
1829973 Off ch=3 n=15 v=0
1829981 Off ch=3 n=12 v=0
1830034 Off ch=3 n=15 v=0
1830156 On ch=3 n=10 v=100
1830264 On ch=3 n=6 v=100
1830268 Off ch=3 n=10 v=0
1831607 Off ch=3 n=6 v=0
1833744 On ch=3 n=10 v=100
1834055 On ch=3 n=30 v=100
1834063 Off ch=3 n=10 v=0
1834161 Off ch=3 n=30 v=0
1834485 On ch=3 n=23 v=100
1834638 Off ch=3 n=23 v=0
1834652 On ch=3 n=10 v=100
1835336 Off ch=3 n=10 v=0
1835498 On ch=3 n=18 v=100
1835679 Off ch=3 n=18 v=0
1835772 On ch=3 n=7 v=100
1836908 Off ch=3 n=7 v=0
1837853 On ch=3 n=16 v=100
1837893 Off ch=3 n=16 v=0
1837899 On ch=3 n=6 v=100
1837940 On ch=3 n=15 v=100
1837998 Off ch=3 n=6 v=0
1837998 Off ch=3 n=15 v=0
1838108 On ch=3 n=13 v=100
1838411 On ch=3 n=20 v=100
1838484 Off ch=3 n=13 v=0
1838484 Off ch=3 n=20 v=0
1838578 On ch=3 n=13 v=100
1838578 On ch=3 n=20 v=100
1838618 Off ch=3 n=13 v=0
1838633 Off ch=3 n=20 v=0
1838683 On ch=3 n=36 v=100
1838851 On ch=3 n=4 v=100
1838855 Off ch=3 n=36 v=0
1839164 On ch=3 n=22 v=100
1839167 Off ch=3 n=4 v=0
1839439 Off ch=3 n=22 v=0
1839848 On ch=3 n=32 v=100
1840103 Off ch=3 n=32 v=0
1840166 On ch=3 n=37 v=100
1840450 Off ch=3 n=37 v=0
1840475 On ch=3 n=12 v=100
1841293 Off ch=3 n=12 v=0
1841351 On ch=3 n=28 v=100
1841497 Off ch=3 n=28 v=0
1842065 On ch=3 n=4 v=100
1842244 Off ch=3 n=4 v=0
1842257 On ch=3 n=9 v=100
1842568 Off ch=3 n=9 v=0
1842570 On ch=3 n=18 v=100
1842668 Off ch=3 n=18 v=0
1842705 On ch=3 n=9 v=100
1843411 Off ch=3 n=9 v=0
1844425 On ch=3 n=22 v=100
1844425 On ch=3 n=22 v=100
1844460 On ch=3 n=10 v=100
1845472 Off ch=3 n=10 v=0
1845656 Off ch=3 n=22 v=0
1845656 Off ch=3 n=22 v=0
1848953 On ch=3 n=34 v=100
1848965 On ch=3 n=14 v=100
1849031 Off ch=3 n=34 v=0
1849288 Off ch=3 n=14 v=0
1850227 On ch=3 n=12 v=100
1850553 On ch=3 n=23 v=100
1850624 On ch=3 n=20 v=100
1850624 Off ch=3 n=12 v=0
1850634 Off ch=3 n=23 v=0
1850695 On ch=3 n=13 v=100
1850696 Off ch=3 n=20 v=0
1850784 Off ch=3 n=13 v=0
1850788 On ch=3 n=20 v=100
1850850 Off ch=3 n=20 v=0
1851037 On ch=3 n=15 v=100
1851284 Off ch=3 n=15 v=0
1851297 On ch=3 n=12 v=100
1851747 Off ch=3 n=12 v=0
1852501 On ch=3 n=16 v=100
1852829 Off ch=3 n=16 v=0
1852985 On ch=3 n=12 v=100
1853074 Off ch=3 n=12 v=0
1853102 On ch=3 n=12 v=100
1853830 Off ch=3 n=12 v=0
1854583 On ch=3 n=19 v=100
1854697 On ch=3 n=17 v=100
1854701 On ch=3 n=9 v=100
1855085 Off ch=3 n=19 v=0
1855101 Off ch=3 n=9 v=0
1855188 Off ch=3 n=17 v=0
1856038 On ch=3 n=5 v=100
1856074 On ch=3 n=10 v=100
1856075 Off ch=3 n=5 v=0
1856253 Off ch=3 n=10 v=0
1856256 On ch=3 n=5 v=100
1857455 On ch=3 n=19 v=100
1857579 Off ch=3 n=5 v=0
1857585 On ch=3 n=8 v=100
1857608 Off ch=3 n=19 v=0
1857646 On ch=3 n=57 v=100
1857971 On ch=3 n=13 v=100
1857973 Off ch=3 n=8 v=0
1858168 Off ch=3 n=57 v=0
1858311 Off ch=3 n=13 v=0
1859611 On ch=3 n=20 v=100
1859847 On ch=3 n=29 v=100
1859849 Off ch=3 n=20 v=0
1859873 On ch=3 n=22 v=100
1859920 Off ch=3 n=29 v=0
1860032 Off ch=3 n=22 v=0
1860053 On ch=3 n=12 v=100
1860197 Off ch=3 n=12 v=0
1860499 On ch=3 n=5 v=100
1860992 Off ch=3 n=5 v=0
1860993 On ch=3 n=7 v=100
1861220 Off ch=3 n=7 v=0
1861221 On ch=3 n=19 v=100
1861309 Off ch=3 n=19 v=0
1861325 On ch=3 n=20 v=100
1861501 Off ch=3 n=20 v=0
1861504 On ch=3 n=23 v=100
1861588 Off ch=3 n=23 v=0
1861590 On ch=3 n=11 v=100
1862087 Off ch=3 n=11 v=0
1862088 On ch=3 n=27 v=100
1862440 On ch=3 n=16 v=100
1862440 Off ch=3 n=27 v=0
1862937 Off ch=3 n=16 v=0
1864401 On ch=3 n=19 v=100
1864544 Off ch=3 n=19 v=0
1864580 On ch=3 n=19 v=100
1864740 On ch=3 n=35 v=100
1864802 Off ch=3 n=19 v=0
1864818 On ch=3 n=17 v=100
1864838 Off ch=3 n=35 v=0
1864876 Off ch=3 n=17 v=0
1864887 On ch=3 n=15 v=100
1864958 Off ch=3 n=15 v=0
1864961 On ch=3 n=8 v=100
1866092 Off ch=3 n=8 v=0
1866094 On ch=3 n=12 v=100
1866803 On ch=3 n=8 v=100
1866804 Off ch=3 n=12 v=0
1866980 Off ch=3 n=8 v=0
1868182 On ch=3 n=49 v=100
1868285 Off ch=3 n=49 v=0
1868897 On ch=3 n=13 v=100
1868962 On ch=3 n=38 v=100
1868962 On ch=3 n=38 v=100
1869066 On ch=3 n=11 v=100
1869080 Off ch=3 n=13 v=0
1869247 On ch=3 n=19 v=100
1869265 Off ch=3 n=11 v=0
1869362 Off ch=3 n=38 v=0
1869362 Off ch=3 n=38 v=0
1869584 On ch=3 n=13 v=100
1869600 Off ch=3 n=19 v=0
1869610 On ch=3 n=18 v=100
1869674 Off ch=3 n=13 v=0
1869681 On ch=3 n=25 v=100
1869682 Off ch=3 n=18 v=0
1869797 Off ch=3 n=25 v=0
1870554 On ch=3 n=27 v=100
1870554 On ch=3 n=37 v=100
1870655 Off ch=3 n=27 v=0
1870682 Off ch=3 n=37 v=0
1871173 On ch=3 n=13 v=100
1871437 Off ch=3 n=13 v=0
1871466 On ch=3 n=10 v=100
1871978 Off ch=3 n=10 v=0
1872106 On ch=3 n=37 v=100
1872108 On ch=3 n=47 v=100
1872109 On ch=3 n=35 v=100
1872248 Off ch=3 n=37 v=0
1872273 Off ch=3 n=35 v=0
1872302 Off ch=3 n=47 v=0
1873965 On ch=3 n=10 v=100
1874716 Off ch=3 n=10 v=0
1874771 On ch=3 n=12 v=100
1875504 Off ch=3 n=12 v=0
1875615 On ch=3 n=10 v=100
1875677 On ch=3 n=11 v=100
1875686 Off ch=3 n=10 v=0
1876008 Off ch=3 n=11 v=0
1877668 On ch=3 n=10 v=100
1878401 On ch=3 n=36 v=100
1878425 Off ch=3 n=10 v=0
1878509 Off ch=3 n=36 v=0
1881224 On ch=3 n=20 v=100
1881367 On ch=3 n=8 v=100
1881367 Off ch=3 n=20 v=0
1881931 On ch=3 n=22 v=100
1881934 Off ch=3 n=8 v=0
1882146 Off ch=3 n=22 v=0
1883015 On ch=3 n=9 v=100
1883946 On ch=3 n=7 v=100
1883950 Off ch=3 n=9 v=0
1884071 Off ch=3 n=7 v=0
1884246 On ch=3 n=31 v=100
1884347 Off ch=3 n=31 v=0
1885584 On ch=3 n=36 v=100
1885626 On ch=3 n=21 v=100
1885639 On ch=3 n=40 v=100
1885645 On ch=3 n=20 v=100
1885721 On ch=3 n=13 v=100
1885721 Off ch=3 n=36 v=0
1885723 Off ch=3 n=20 v=0
1885735 Off ch=3 n=21 v=0
1885877 On ch=3 n=13 v=100
1885877 On ch=3 n=13 v=100
1885881 Off ch=3 n=13 v=0
1885988 On ch=3 n=31 v=100
1885988 On ch=3 n=28 v=100
1885988 On ch=3 n=31 v=100
1886050 On ch=3 n=24 v=100
1886053 On ch=3 n=19 v=100
1886060 Off ch=3 n=13 v=0
1886060 Off ch=3 n=13 v=0
1886194 Off ch=3 n=28 v=0
1886194 Off ch=3 n=19 v=0
1886195 Off ch=3 n=40 v=0
1886246 Off ch=3 n=31 v=0
1886246 Off ch=3 n=31 v=0
1886249 Off ch=3 n=24 v=0
1886414 On ch=3 n=41 v=100
1886506 Off ch=3 n=41 v=0
1886723 On ch=3 n=47 v=100
1886723 On ch=3 n=47 v=100
1886823 On ch=3 n=7 v=100
1886845 On ch=3 n=46 v=100
1887013 Off ch=3 n=7 v=0
1887016 On ch=3 n=18 v=100
1887026 Off ch=3 n=47 v=0
1887026 Off ch=3 n=47 v=0
1887067 Off ch=3 n=46 v=0
1887319 Off ch=3 n=18 v=0
1887401 On ch=3 n=10 v=100
1887858 On ch=3 n=38 v=100
1887859 On ch=3 n=31 v=100
1887945 Off ch=3 n=10 v=0
1887957 Off ch=3 n=38 v=0
1887992 Off ch=3 n=31 v=0
1889994 On ch=3 n=8 v=100
1891068 Off ch=3 n=8 v=0
1892331 On ch=3 n=10 v=100
1892446 Off ch=3 n=10 v=0
1892543 On ch=3 n=10 v=100
1892858 Off ch=3 n=10 v=0
1893148 On ch=3 n=0 v=100
1893216 Off ch=3 n=0 v=0
1893312 On ch=3 n=24 v=100
1893368 Off ch=3 n=24 v=0
1893415 On ch=3 n=29 v=100
1893530 Off ch=3 n=29 v=0
1893542 On ch=3 n=30 v=100
1893629 Off ch=3 n=30 v=0
1893645 On ch=3 n=26 v=100
1893825 Off ch=3 n=26 v=0
1893831 On ch=3 n=8 v=100
1893969 On ch=3 n=27 v=100
1893969 On ch=3 n=27 v=100
1894170 On ch=3 n=5 v=100
1894177 Off ch=3 n=8 v=0
1894374 Off ch=3 n=5 v=0
1894583 Off ch=3 n=27 v=0
1894583 Off ch=3 n=27 v=0
1895016 On ch=3 n=23 v=100
1895052 On ch=3 n=13 v=100
1895284 Off ch=3 n=23 v=0
1895284 Off ch=3 n=13 v=0
1895485 On ch=3 n=39 v=100
1895494 On ch=3 n=24 v=100
1895494 On ch=3 n=40 v=100
1895525 On ch=3 n=38 v=100
1895592 Off ch=3 n=24 v=0
1895596 Off ch=3 n=39 v=0
1895611 Off ch=3 n=40 v=0
1895633 On ch=3 n=17 v=100
1895653 On ch=3 n=27 v=100
1895789 Off ch=3 n=17 v=0
1895797 Off ch=3 n=38 v=0
1895815 Off ch=3 n=27 v=0
1895838 On ch=3 n=21 v=100
1895838 On ch=3 n=27 v=100
1895943 Off ch=3 n=21 v=0
1895957 Off ch=3 n=27 v=0
1895985 On ch=3 n=39 v=100
1896001 On ch=3 n=35 v=100
1896001 On ch=3 n=40 v=100
1896002 On ch=3 n=23 v=100
1896121 Off ch=3 n=23 v=0
1896128 Off ch=3 n=39 v=0
1896138 Off ch=3 n=35 v=0
1896234 Off ch=3 n=40 v=0
1897099 On ch=3 n=15 v=100
1897337 Off ch=3 n=15 v=0
1897339 On ch=3 n=25 v=100
1897339 On ch=3 n=4 v=100
1897378 On ch=3 n=9 v=100
1897379 Off ch=3 n=4 v=0
1897417 Off ch=3 n=25 v=0
1897454 Off ch=3 n=9 v=0
1897544 On ch=3 n=36 v=100
1897640 Off ch=3 n=36 v=0
1897760 On ch=3 n=36 v=100
1897846 On ch=3 n=17 v=100
1897853 Off ch=3 n=36 v=0
1898351 Off ch=3 n=17 v=0
1899706 On ch=3 n=9 v=100
1899819 Off ch=3 n=9 v=0
1900004 On ch=3 n=37 v=100
1900121 Off ch=3 n=37 v=0
1900210 On ch=3 n=37 v=100
1900246 Off ch=3 n=37 v=0
1900301 On ch=3 n=32 v=100
1900320 On ch=3 n=16 v=100
1900387 Off ch=3 n=32 v=0
1900410 Off ch=3 n=16 v=0
1900825 On ch=3 n=17 v=100
1900943 On ch=3 n=23 v=100
1901140 Off ch=3 n=17 v=0
1901179 Off ch=3 n=23 v=0
1902425 On ch=3 n=8 v=100
1902539 Off ch=3 n=8 v=0
1902542 On ch=3 n=11 v=100
1903364 Off ch=3 n=11 v=0
1903365 On ch=3 n=5 v=100
1903913 Off ch=3 n=5 v=0
1903925 On ch=3 n=3 v=100
1905000 On ch=3 n=28 v=100
1905120 Off ch=3 n=3 v=0
1905121 On ch=3 n=8 v=100
1905138 Off ch=3 n=28 v=0
1905172 Off ch=3 n=8 v=0
1905185 On ch=3 n=41 v=100
1905186 On ch=3 n=44 v=100
1905218 On ch=3 n=10 v=100
1905262 Off ch=3 n=44 v=0
1905267 Off ch=3 n=10 v=0
1905278 On ch=3 n=9 v=100
1905329 Off ch=3 n=41 v=0
1905481 Off ch=3 n=9 v=0
1905831 On ch=3 n=9 v=100
1905900 Off ch=3 n=9 v=0
1905996 On ch=3 n=14 v=100
1906043 Off ch=3 n=14 v=0
1906197 On ch=3 n=25 v=100
1906535 Off ch=3 n=25 v=0
1907068 On ch=3 n=13 v=100
1907979 Off ch=3 n=13 v=0
1909342 On ch=3 n=13 v=100
1909514 Off ch=3 n=13 v=0
1909725 On ch=3 n=13 v=100
1910750 Off ch=3 n=13 v=0
1910924 On ch=3 n=13 v=100
1911337 Off ch=3 n=13 v=0
1911340 On ch=3 n=6 v=100
1911714 Off ch=3 n=6 v=0
1911717 On ch=3 n=4 v=100
1912269 Off ch=3 n=4 v=0
1912307 On ch=3 n=4 v=100
1912658 On ch=3 n=15 v=100
1912659 Off ch=3 n=4 v=0
1912742 Off ch=3 n=15 v=0
1914315 On ch=3 n=22 v=100
1914410 Off ch=3 n=22 v=0
1916286 On ch=3 n=11 v=100
1916559 On ch=3 n=13 v=100
1916559 Off ch=3 n=11 v=0
1916663 Off ch=3 n=13 v=0
1916784 On ch=3 n=13 v=100
1916888 Off ch=3 n=13 v=0
1916896 On ch=3 n=10 v=100
1917397 Off ch=3 n=10 v=0
1917403 On ch=3 n=15 v=100
1917506 Off ch=3 n=15 v=0
1917624 On ch=3 n=6 v=100
1917925 Off ch=3 n=6 v=0
1918069 On ch=3 n=13 v=100
1918153 Off ch=3 n=13 v=0
1918159 On ch=3 n=25 v=100
1918377 On ch=3 n=12 v=100
1918381 Off ch=3 n=25 v=0
1918494 Off ch=3 n=12 v=0
1921242 On ch=3 n=15 v=100
1921436 Off ch=3 n=15 v=0
1922329 On ch=3 n=34 v=100
1922451 Off ch=3 n=34 v=0
1922468 On ch=3 n=13 v=100
1922816 Off ch=3 n=13 v=0
1922911 On ch=3 n=13 v=100
1923000 Off ch=3 n=13 v=0
1923196 On ch=3 n=16 v=100
1923197 On ch=3 n=9 v=100
1923406 Off ch=3 n=9 v=0
1923408 On ch=3 n=24 v=100
1923438 Off ch=3 n=16 v=0
1923444 On ch=3 n=15 v=100
1923493 Off ch=3 n=24 v=0
1923509 Off ch=3 n=15 v=0
1923511 On ch=3 n=9 v=100
1923930 Off ch=3 n=9 v=0
1923963 On ch=3 n=26 v=100
1924248 Off ch=3 n=26 v=0
1925278 On ch=3 n=38 v=100
1925279 On ch=3 n=20 v=100
1925343 On ch=3 n=37 v=100
1925345 Off ch=3 n=20 v=0
1925455 Off ch=3 n=37 v=0
1925470 Off ch=3 n=38 v=0
1925688 On ch=3 n=15 v=100
1925768 On ch=3 n=41 v=100
1925791 Off ch=3 n=15 v=0
1925873 On ch=3 n=32 v=100
1926020 Off ch=3 n=41 v=0
1926020 Off ch=3 n=32 v=0
1927386 On ch=3 n=13 v=100
1927434 Off ch=3 n=13 v=0
1927436 On ch=3 n=12 v=100
1927543 On ch=3 n=13 v=100
1927543 Off ch=3 n=12 v=0
1927697 Off ch=3 n=13 v=0
1927702 On ch=3 n=11 v=100
1928461 Off ch=3 n=11 v=0
1928468 On ch=3 n=23 v=100
1928610 Off ch=3 n=23 v=0
1928612 On ch=3 n=8 v=100
1928863 Off ch=3 n=8 v=0
1928876 On ch=3 n=22 v=100
1929016 On ch=3 n=25 v=100
1929083 On ch=3 n=15 v=100
1929134 On ch=3 n=21 v=100
1929139 On ch=3 n=14 v=100
1929140 Off ch=3 n=22 v=0
1929440 Off ch=3 n=25 v=0
1929490 Off ch=3 n=15 v=0
1929575 Off ch=3 n=14 v=0
1929659 Off ch=3 n=21 v=0
1929662 On ch=3 n=49 v=100
1929662 On ch=3 n=49 v=100
1929971 Off ch=3 n=49 v=0
1929971 Off ch=3 n=49 v=0
1930132 On ch=3 n=27 v=100
1930190 On ch=3 n=18 v=100
1930192 Off ch=3 n=27 v=0
1930344 Off ch=3 n=18 v=0
1930735 On ch=3 n=36 v=100
1930927 Off ch=3 n=36 v=0
1931187 On ch=3 n=29 v=100
1931257 Off ch=3 n=29 v=0
1931466 On ch=3 n=32 v=100
1931647 Off ch=3 n=32 v=0
1931648 On ch=3 n=23 v=100
1931728 Off ch=3 n=23 v=0
1931859 On ch=3 n=44 v=100
1931861 On ch=3 n=56 v=100
1931864 On ch=3 n=46 v=100
1931953 Off ch=3 n=46 v=0
1931961 Off ch=3 n=44 v=0
1931974 Off ch=3 n=56 v=0
1932523 On ch=3 n=26 v=100
1932770 Off ch=3 n=26 v=0
1933246 On ch=3 n=3 v=100
1933305 Off ch=3 n=3 v=0
1933312 On ch=3 n=5 v=100
1934256 Off ch=3 n=5 v=0
1934297 On ch=3 n=33 v=100
1934499 Off ch=3 n=33 v=0
1934631 On ch=3 n=1 v=100
1934723 Off ch=3 n=1 v=0
1934919 On ch=3 n=8 v=100
1934953 Off ch=3 n=8 v=0
1934962 On ch=3 n=10 v=100
1935046 Off ch=3 n=10 v=0
1936526 On ch=3 n=21 v=100
1936646 On ch=3 n=8 v=100
1936790 Off ch=3 n=21 v=0
1936790 Off ch=3 n=8 v=0
1936793 On ch=3 n=11 v=100
1936926 On ch=3 n=24 v=100
1936976 Off ch=3 n=11 v=0
1936989 On ch=3 n=9 v=100
1937202 Off ch=3 n=24 v=0
1937300 On ch=3 n=29 v=100
1937427 On ch=3 n=22 v=100
1937427 Off ch=3 n=9 v=0
1937475 Off ch=3 n=29 v=0
1937503 Off ch=3 n=22 v=0
1937659 On ch=3 n=32 v=100
1937659 On ch=3 n=32 v=100
1937693 On ch=3 n=21 v=100
1937759 Off ch=3 n=32 v=0
1937759 Off ch=3 n=32 v=0
1937798 Off ch=3 n=21 v=0
1939039 On ch=3 n=20 v=100
1939065 On ch=3 n=15 v=100
1939215 Off ch=3 n=20 v=0
1939410 Off ch=3 n=15 v=0
1939890 On ch=3 n=13 v=100
1940378 Off ch=3 n=13 v=0
1940452 On ch=3 n=13 v=100
1940650 Off ch=3 n=13 v=0
1943236 On ch=3 n=21 v=100
1943313 Off ch=3 n=21 v=0
1943341 On ch=3 n=21 v=100
1943454 On ch=3 n=18 v=100
1943841 Off ch=3 n=21 v=0
1943900 Off ch=3 n=18 v=0
1943907 On ch=3 n=8 v=100
1944167 Off ch=3 n=8 v=0
1944168 On ch=3 n=8 v=100
1944368 Off ch=3 n=8 v=0
1944371 On ch=3 n=6 v=100
1944685 Off ch=3 n=6 v=0
1945031 On ch=3 n=15 v=100
1945387 Off ch=3 n=15 v=0
1946309 On ch=3 n=10 v=100
1946379 On ch=3 n=12 v=100
1946381 Off ch=3 n=10 v=0
1946545 On ch=3 n=12 v=100
1946551 Off ch=3 n=12 v=0
1946945 On ch=3 n=18 v=100
1946997 On ch=3 n=9 v=100
1947020 Off ch=3 n=12 v=0
1947246 On ch=3 n=22 v=100
1947286 On ch=3 n=14 v=100
1947290 Off ch=3 n=18 v=0
1947290 Off ch=3 n=9 v=0
1947325 Off ch=3 n=22 v=0
1947699 Off ch=3 n=14 v=0
1948641 On ch=3 n=33 v=100
1948684 On ch=3 n=27 v=100
1948687 On ch=3 n=23 v=100
1948881 Off ch=3 n=23 v=0
1948882 Off ch=3 n=33 v=0
1948902 Off ch=3 n=27 v=0
1949824 On ch=3 n=43 v=100
1949995 Off ch=3 n=43 v=0
1950389 On ch=3 n=8 v=100
1950967 On ch=3 n=24 v=100
1950967 On ch=3 n=24 v=100
1950967 Off ch=3 n=8 v=0
1951158 On ch=3 n=23 v=100
1951400 Off ch=3 n=24 v=0
1951400 Off ch=3 n=24 v=0
1951429 Off ch=3 n=23 v=0
1951814 On ch=3 n=13 v=100
1952080 Off ch=3 n=13 v=0
1952400 On ch=3 n=22 v=100
1952566 Off ch=3 n=22 v=0
1952707 On ch=3 n=42 v=100
1952707 On ch=3 n=42 v=100
1952746 On ch=3 n=35 v=100
1952760 On ch=3 n=49 v=100
1952840 Off ch=3 n=35 v=0
1952900 Off ch=3 n=49 v=0
1952928 Off ch=3 n=42 v=0
1952928 Off ch=3 n=42 v=0
1958975 On ch=3 n=26 v=100
1958979 On ch=3 n=13 v=100
1959146 Off ch=3 n=13 v=0
1959191 Off ch=3 n=26 v=0
1959336 On ch=3 n=21 v=100
1959469 Off ch=3 n=21 v=0
1959807 On ch=3 n=26 v=100
1959903 Off ch=3 n=26 v=0
1959909 On ch=3 n=22 v=100
1959964 On ch=3 n=12 v=100
1960040 Off ch=3 n=22 v=0
1960060 On ch=3 n=19 v=100
1960062 Off ch=3 n=12 v=0
1960294 Off ch=3 n=19 v=0
1960853 On ch=3 n=34 v=100
1960905 On ch=3 n=21 v=100
1961299 Off ch=3 n=34 v=0
1961552 Off ch=3 n=21 v=0
1962022 On ch=3 n=49 v=100
1962193 Off ch=3 n=49 v=0
1962735 On ch=3 n=9 v=100
1962892 On ch=3 n=14 v=100
1962894 Off ch=3 n=9 v=0
1963292 Off ch=3 n=14 v=0
1963300 On ch=3 n=14 v=100
1963910 On ch=3 n=15 v=100
1963914 Off ch=3 n=14 v=0
1964159 Off ch=3 n=15 v=0
1964166 On ch=3 n=6 v=100
1964617 Off ch=3 n=6 v=0
1964634 On ch=3 n=39 v=100
1964764 On ch=3 n=16 v=100
1964777 On ch=3 n=24 v=100
1964836 On ch=3 n=25 v=100
1964940 Off ch=3 n=39 v=0
1965178 Off ch=3 n=16 v=0
1965178 Off ch=3 n=24 v=0
1965178 Off ch=3 n=25 v=0
1965205 On ch=3 n=24 v=100
1965205 On ch=3 n=25 v=100
1965354 Off ch=3 n=24 v=0
1965431 Off ch=3 n=25 v=0
1966162 On ch=3 n=21 v=100
1966288 On ch=3 n=42 v=100
1966288 On ch=3 n=42 v=100
1966331 On ch=3 n=14 v=100
1966606 Off ch=3 n=21 v=0
1966742 Off ch=3 n=14 v=0
1966873 Off ch=3 n=42 v=0
1966873 Off ch=3 n=42 v=0
1967744 On ch=3 n=20 v=100
1967853 Off ch=3 n=20 v=0
1967874 On ch=3 n=12 v=100
1968005 Off ch=3 n=12 v=0
1968009 On ch=3 n=13 v=100
1968319 Off ch=3 n=13 v=0
1973685 On ch=3 n=11 v=100
1973864 Off ch=3 n=11 v=0
1973870 On ch=3 n=8 v=100
1974496 Off ch=3 n=8 v=0
1974508 On ch=3 n=14 v=100
1974981 Off ch=3 n=14 v=0
1974986 On ch=3 n=6 v=100
1976183 On ch=3 n=12 v=100
1976189 Off ch=3 n=6 v=0
1976363 Off ch=3 n=12 v=0
1976412 On ch=3 n=23 v=100
1976585 Off ch=3 n=23 v=0
1976671 On ch=3 n=19 v=100
1976890 Off ch=3 n=19 v=0
1977639 On ch=3 n=11 v=100
1977749 Off ch=3 n=11 v=0
1983443 On ch=3 n=26 v=100
1983524 Off ch=3 n=26 v=0
1983533 On ch=3 n=27 v=100
1983621 Off ch=3 n=27 v=0
1985590 On ch=3 n=13 v=100
1985890 Off ch=3 n=13 v=0
1985976 On ch=3 n=8 v=100
1986633 On ch=3 n=15 v=100
1986639 Off ch=3 n=8 v=0
1987338 On ch=3 n=27 v=100
1987370 On ch=3 n=17 v=100
1987373 Off ch=3 n=15 v=0
1987529 Off ch=3 n=27 v=0
1987539 Off ch=3 n=17 v=0
1987700 On ch=3 n=36 v=100
1987746 Off ch=3 n=36 v=0
1988806 On ch=3 n=31 v=100
1989205 Off ch=3 n=31 v=0
1989475 On ch=3 n=20 v=100
1989478 On ch=3 n=28 v=100
1989636 On ch=3 n=23 v=100
1989746 Off ch=3 n=20 v=0
1989759 Off ch=3 n=28 v=0
1989759 Off ch=3 n=23 v=0
1989821 On ch=3 n=23 v=100
1989821 On ch=3 n=28 v=100
1989829 On ch=3 n=21 v=100
1989990 On ch=3 n=18 v=100
1990025 Off ch=3 n=28 v=0
1990377 Off ch=3 n=23 v=0
1990428 Off ch=3 n=21 v=0
1990516 Off ch=3 n=18 v=0
1990817 On ch=3 n=30 v=100
1990981 On ch=3 n=40 v=100
1991037 Off ch=3 n=30 v=0
1991076 Off ch=3 n=40 v=0
1991962 On ch=3 n=18 v=100
1991976 On ch=3 n=38 v=100
1991976 On ch=3 n=38 v=100
1991991 On ch=3 n=17 v=100
1992214 Off ch=3 n=18 v=0
1992214 Off ch=3 n=17 v=0
1992284 Off ch=3 n=38 v=0
1992284 Off ch=3 n=38 v=0
1994843 On ch=3 n=10 v=100
1995508 Off ch=3 n=10 v=0
1995663 On ch=3 n=25 v=100
1995677 Off ch=3 n=25 v=0
1995759 On ch=3 n=14 v=100
1995759 On ch=3 n=25 v=100
1995833 On ch=3 n=11 v=100
1996234 Off ch=3 n=14 v=0
1996237 On ch=3 n=6 v=100
1996242 Off ch=3 n=11 v=0
1996394 Off ch=3 n=25 v=0
1996890 Off ch=3 n=6 v=0
1996892 On ch=3 n=9 v=100
1997099 Off ch=3 n=9 v=0
1998252 On ch=3 n=21 v=100
1998425 Off ch=3 n=21 v=0
1998473 On ch=3 n=12 v=100
1998689 On ch=3 n=22 v=100
1998697 Off ch=3 n=12 v=0
1998821 Off ch=3 n=22 v=0
1998901 On ch=3 n=12 v=100
1999093 Off ch=3 n=12 v=0
1999265 On ch=3 n=13 v=100
1999432 Off ch=3 n=13 v=0
2000170 On ch=3 n=42 v=100
2000190 On ch=3 n=13 v=100
2000237 On ch=3 n=15 v=100
2000303 On ch=3 n=21 v=100
2000305 Off ch=3 n=42 v=0
2000476 On ch=3 n=27 v=100
2000623 Off ch=3 n=13 v=0
2000729 Off ch=3 n=15 v=0
2000814 Off ch=3 n=21 v=0
2000859 Off ch=3 n=27 v=0
2003426 On ch=3 n=20 v=100
2003458 Off ch=3 n=20 v=0
2003528 On ch=3 n=20 v=100
2003594 On ch=3 n=17 v=100
2003602 On ch=3 n=47 v=100
2003606 On ch=3 n=6 v=100
2003780 Off ch=3 n=20 v=0
2003780 Off ch=3 n=6 v=0
2003806 Off ch=3 n=17 v=0
2003852 Off ch=3 n=47 v=0
2003857 On ch=3 n=9 v=100
2003939 On ch=3 n=7 v=100
2003941 Off ch=3 n=9 v=0
2004849 On ch=3 n=7 v=100
2004849 On ch=3 n=14 v=100
2004852 Off ch=3 n=7 v=0
2004907 On ch=3 n=14 v=100
2005206 Off ch=3 n=7 v=0
2005259 Off ch=3 n=14 v=0
2005305 Off ch=3 n=14 v=0
2007198 On ch=3 n=5 v=100
2007722 On ch=3 n=9 v=100
2007726 Off ch=3 n=5 v=0
2007985 Off ch=3 n=9 v=0
2008293 On ch=3 n=20 v=100
2008494 On ch=3 n=29 v=100
2008849 Off ch=3 n=20 v=0
2009061 Off ch=3 n=29 v=0
2009102 On ch=3 n=34 v=100
2009113 On ch=3 n=25 v=100
2009238 Off ch=3 n=25 v=0
2009242 Off ch=3 n=34 v=0
2009464 On ch=3 n=38 v=100
2009692 Off ch=3 n=38 v=0
2014502 On ch=3 n=19 v=100
2014586 Off ch=3 n=19 v=0
2014806 On ch=3 n=12 v=100
2015026 Off ch=3 n=12 v=0
2015045 On ch=3 n=15 v=100
2015141 Off ch=3 n=15 v=0
2015195 On ch=3 n=3 v=100
2015794 Off ch=3 n=3 v=0
2015838 On ch=3 n=30 v=100
2015868 On ch=3 n=6 v=100
2015994 Off ch=3 n=30 v=0
2016411 On ch=3 n=4 v=100
2016415 Off ch=3 n=6 v=0
2016616 Off ch=3 n=4 v=0
2016617 On ch=3 n=3 v=100
2017449 On ch=3 n=6 v=100
2017449 Off ch=3 n=3 v=0
2017496 Off ch=3 n=6 v=0
2017497 On ch=3 n=6 v=100
2018143 Off ch=3 n=6 v=0
2018151 On ch=3 n=26 v=100
2018318 Off ch=3 n=26 v=0
2018483 On ch=3 n=26 v=100
2018587 Off ch=3 n=26 v=0
2019055 On ch=3 n=12 v=100
2019886 Off ch=3 n=12 v=0
2020221 On ch=3 n=6 v=100
2021110 On ch=3 n=4 v=100
2021130 Off ch=3 n=6 v=0
2022289 On ch=3 n=9 v=100
2022311 Off ch=3 n=4 v=0
2022605 Off ch=3 n=9 v=0
2025449 On ch=3 n=20 v=100
2025471 On ch=3 n=15 v=100
2025552 Off ch=3 n=20 v=0
2025552 Off ch=3 n=15 v=0
2026888 On ch=3 n=27 v=100
2027004 Off ch=3 n=27 v=0
2027092 On ch=3 n=13 v=100
2027178 Off ch=3 n=13 v=0
2027182 On ch=3 n=15 v=100
2027320 On ch=3 n=11 v=100
2027330 Off ch=3 n=15 v=0
2027547 On ch=3 n=8 v=100
2027550 Off ch=3 n=11 v=0
2028045 Off ch=3 n=8 v=0
2028053 On ch=3 n=47 v=100
2028117 On ch=3 n=22 v=100
2028277 On ch=3 n=17 v=100
2028367 Off ch=3 n=47 v=0
2028617 Off ch=3 n=22 v=0
2028617 Off ch=3 n=17 v=0
2028651 On ch=3 n=32 v=100
2028651 On ch=3 n=23 v=100
2028705 Off ch=3 n=32 v=0
2028790 Off ch=3 n=23 v=0
2028998 On ch=3 n=26 v=100
2029019 On ch=3 n=22 v=100
2029081 Off ch=3 n=26 v=0
2029092 Off ch=3 n=22 v=0
2030054 On ch=3 n=10 v=100
2030654 Off ch=3 n=10 v=0
2030918 On ch=3 n=13 v=100
2030956 Off ch=3 n=13 v=0
2031049 On ch=3 n=0 v=100
2031232 Off ch=3 n=0 v=0
2031234 On ch=3 n=4 v=100
2031312 On ch=3 n=7 v=100
2031454 Off ch=3 n=4 v=0
2031565 Off ch=3 n=7 v=0
2031639 On ch=3 n=8 v=100
2032268 On ch=3 n=8 v=100
2032271 Off ch=3 n=8 v=0
2032330 Off ch=3 n=8 v=0
2032332 On ch=3 n=0 v=100
2032387 Off ch=3 n=0 v=0
2032388 On ch=3 n=2 v=100
2033191 Off ch=3 n=2 v=0
2033197 On ch=3 n=41 v=100
2033468 Off ch=3 n=41 v=0
2033469 On ch=3 n=25 v=100
2033590 Off ch=3 n=25 v=0
2035511 On ch=3 n=35 v=100
2035529 On ch=3 n=13 v=100
2035659 Off ch=3 n=35 v=0
2035668 Off ch=3 n=13 v=0
2035669 On ch=3 n=13 v=100
2035757 Off ch=3 n=13 v=0
2035769 On ch=3 n=9 v=100
2036946 On ch=3 n=11 v=100
2036946 Off ch=3 n=9 v=0
2037309 Off ch=3 n=11 v=0
2037321 On ch=3 n=10 v=100
2037459 On ch=3 n=7 v=100
2037459 Off ch=3 n=10 v=0
2038390 Off ch=3 n=7 v=0
2038424 On ch=3 n=7 v=100
2038431 On ch=3 n=6 v=100
2038438 Off ch=3 n=7 v=0
2038478 On ch=3 n=4 v=100
2038479 Off ch=3 n=6 v=0
2039368 On ch=3 n=6 v=100
2039374 Off ch=3 n=4 v=0
2039770 On ch=3 n=46 v=100
2039870 On ch=3 n=23 v=100
2039873 Off ch=3 n=6 v=0
2039961 Off ch=3 n=46 v=0
2039961 Off ch=3 n=23 v=0
2040348 On ch=3 n=46 v=100
2040420 On ch=3 n=44 v=100
2040440 On ch=3 n=44 v=100
2040530 Off ch=3 n=44 v=0
2040532 Off ch=3 n=46 v=0
2040532 Off ch=3 n=44 v=0
2040588 On ch=3 n=29 v=100
2040623 On ch=3 n=14 v=100
2040661 Off ch=3 n=29 v=0
2040661 Off ch=3 n=14 v=0
2040735 On ch=3 n=29 v=100
2040735 On ch=3 n=14 v=100
2040771 Off ch=3 n=29 v=0
2041016 Off ch=3 n=14 v=0
2041568 On ch=3 n=16 v=100
2041866 Off ch=3 n=16 v=0
2042183 On ch=3 n=15 v=100
2042211 On ch=3 n=17 v=100
2042253 On ch=3 n=8 v=100
2042276 Off ch=3 n=15 v=0
2042276 Off ch=3 n=17 v=0
2042276 Off ch=3 n=8 v=0
2042323 On ch=3 n=8 v=100
2042323 On ch=3 n=22 v=100
2042428 Off ch=3 n=8 v=0
2042447 Off ch=3 n=22 v=0
2042477 On ch=3 n=22 v=100
2042499 On ch=3 n=43 v=100
2042621 Off ch=3 n=22 v=0
2042640 Off ch=3 n=43 v=0
2043336 On ch=3 n=16 v=100
2043337 On ch=3 n=33 v=100
2043585 Off ch=3 n=16 v=0
2043663 On ch=3 n=14 v=100
2043676 Off ch=3 n=33 v=0
2043733 Off ch=3 n=14 v=0
2046476 On ch=3 n=11 v=100
2047227 Off ch=3 n=11 v=0
2047571 On ch=3 n=25 v=100
2047585 On ch=3 n=20 v=100
2047665 On ch=3 n=35 v=100
2047670 Off ch=3 n=25 v=0
2047670 Off ch=3 n=20 v=0
2047951 Off ch=3 n=35 v=0
2048023 On ch=3 n=12 v=100
2048104 Off ch=3 n=12 v=0
2048457 On ch=3 n=32 v=100
2048898 Off ch=3 n=32 v=0
2048900 On ch=3 n=13 v=100
2049467 On ch=3 n=37 v=100
2049632 Off ch=3 n=13 v=0
2050011 On ch=3 n=12 v=100
2050015 Off ch=3 n=37 v=0
2050223 Off ch=3 n=12 v=0
2050225 On ch=3 n=31 v=100
2050291 Off ch=3 n=31 v=0
2050413 On ch=3 n=24 v=100
2050479 Off ch=3 n=24 v=0
2055882 On ch=3 n=30 v=100
2056263 Off ch=3 n=30 v=0
2057361 On ch=3 n=30 v=100
2057361 On ch=3 n=30 v=100
2057748 Off ch=3 n=30 v=0
2057748 Off ch=3 n=30 v=0
2057959 On ch=3 n=19 v=100
2058288 Off ch=3 n=19 v=0
2058554 On ch=3 n=28 v=100
2058597 On ch=3 n=13 v=100
2058605 On ch=3 n=12 v=100
2058612 On ch=3 n=32 v=100
2058683 Off ch=3 n=28 v=0
2058866 Off ch=3 n=13 v=0
2058881 Off ch=3 n=12 v=0
2058881 Off ch=3 n=32 v=0
2058924 On ch=3 n=12 v=100
2058924 On ch=3 n=32 v=100
2058938 Off ch=3 n=12 v=0
2059153 On ch=3 n=41 v=100
2059162 Off ch=3 n=32 v=0
2059189 Off ch=3 n=41 v=0
2059265 On ch=3 n=41 v=100
2059443 On ch=3 n=17 v=100
2059578 Off ch=3 n=41 v=0
2059586 Off ch=3 n=17 v=0
2059890 On ch=3 n=17 v=100
2059890 On ch=3 n=12 v=100
2060056 Off ch=3 n=17 v=0
2060106 Off ch=3 n=12 v=0
2060772 On ch=3 n=21 v=100
2060828 Off ch=3 n=21 v=0
2060918 On ch=3 n=21 v=100
2060929 Off ch=3 n=21 v=0
2061351 On ch=3 n=15 v=100
2061394 On ch=3 n=14 v=100
2061406 Off ch=3 n=15 v=0
2061517 Off ch=3 n=14 v=0
2061554 On ch=3 n=12 v=100
2062008 Off ch=3 n=12 v=0
2063388 On ch=3 n=33 v=100
2063388 On ch=3 n=33 v=100
2063588 On ch=3 n=16 v=100
2063678 On ch=3 n=22 v=100
2063762 On ch=3 n=39 v=100
2064021 On ch=3 n=20 v=100
2064028 Off ch=3 n=16 v=0
2064051 Off ch=3 n=33 v=0
2064051 Off ch=3 n=33 v=0
2064176 Off ch=3 n=22 v=0
2064345 Off ch=3 n=39 v=0
2064433 Off ch=3 n=20 v=0
2064443 On ch=3 n=22 v=100
2064753 Off ch=3 n=22 v=0
2064776 On ch=3 n=37 v=100
2064779 On ch=3 n=40 v=100
2064960 Off ch=3 n=37 v=0
2064988 Off ch=3 n=40 v=0
2065076 On ch=3 n=25 v=100
2065442 Off ch=3 n=25 v=0
2065904 On ch=3 n=15 v=100
2066145 Off ch=3 n=15 v=0
2066191 On ch=3 n=13 v=100
2066191 On ch=3 n=15 v=100
2066385 Off ch=3 n=13 v=0
2066542 Off ch=3 n=15 v=0
2066548 On ch=3 n=16 v=100
2066619 Off ch=3 n=16 v=0
2072575 On ch=3 n=34 v=100
2072586 On ch=3 n=21 v=100
2072673 Off ch=3 n=21 v=0
2072674 On ch=3 n=8 v=100
2072675 Off ch=3 n=34 v=0
2073275 Off ch=3 n=8 v=0
2073295 On ch=3 n=9 v=100
2073538 Off ch=3 n=9 v=0
2073685 On ch=3 n=30 v=100
2073686 On ch=3 n=42 v=100
2073766 On ch=3 n=9 v=100
2073770 Off ch=3 n=30 v=0
2073795 Off ch=3 n=42 v=0
2073879 Off ch=3 n=9 v=0
2075177 On ch=3 n=28 v=100
2075236 Off ch=3 n=28 v=0
2075390 On ch=3 n=8 v=100
2075721 Off ch=3 n=8 v=0
2075725 On ch=3 n=21 v=100
2075903 Off ch=3 n=21 v=0
2075911 On ch=3 n=14 v=100
2075996 Off ch=3 n=14 v=0
2076299 On ch=3 n=9 v=100
2076343 On ch=3 n=18 v=100
2076343 Off ch=3 n=9 v=0
2076456 On ch=3 n=17 v=100
2076456 Off ch=3 n=18 v=0
2076813 Off ch=3 n=17 v=0
2078364 On ch=3 n=12 v=100
2078409 On ch=3 n=21 v=100
2078428 Off ch=3 n=12 v=0
2078538 Off ch=3 n=21 v=0
2080702 On ch=3 n=6 v=100
2080934 On ch=3 n=13 v=100
2080934 On ch=3 n=13 v=100
2080998 Off ch=3 n=6 v=0
2081329 On ch=3 n=15 v=100
2081434 On ch=3 n=29 v=100
2081546 Off ch=3 n=13 v=0
2081546 Off ch=3 n=13 v=0
2081572 Off ch=3 n=15 v=0
2081593 Off ch=3 n=29 v=0
2082277 On ch=3 n=20 v=100
2082409 Off ch=3 n=20 v=0
2082443 On ch=3 n=11 v=100
2082711 Off ch=3 n=11 v=0
2082781 On ch=3 n=11 v=100
2083213 Off ch=3 n=11 v=0
2083223 On ch=3 n=18 v=100
2083444 Off ch=3 n=18 v=0
2083508 On ch=3 n=18 v=100
2083509 On ch=3 n=36 v=100
2083555 Off ch=3 n=18 v=0
2083671 Off ch=3 n=36 v=0
2083787 On ch=3 n=17 v=100
2083874 On ch=3 n=43 v=100
2084209 Off ch=3 n=17 v=0
2084286 On ch=3 n=40 v=100
2084403 Off ch=3 n=43 v=0
2084555 On ch=3 n=20 v=100
2084580 Off ch=3 n=40 v=0
2084762 Off ch=3 n=20 v=0
2084826 On ch=3 n=33 v=100
2084936 Off ch=3 n=33 v=0
2085545 On ch=3 n=29 v=100
2085787 Off ch=3 n=29 v=0
2086492 On ch=3 n=20 v=100
2086765 Off ch=3 n=20 v=0
2087855 On ch=3 n=8 v=100
2088998 Off ch=3 n=8 v=0
2089061 On ch=3 n=10 v=100
2089061 On ch=3 n=12 v=100
2089392 Off ch=3 n=10 v=0
2089421 Off ch=3 n=12 v=0
2089513 On ch=3 n=12 v=100
2089528 Off ch=3 n=12 v=0
2090731 On ch=3 n=29 v=100
2090888 On ch=3 n=18 v=100
2090928 On ch=3 n=17 v=100
2091120 Off ch=3 n=29 v=0
2091120 Off ch=3 n=18 v=0
2091120 Off ch=3 n=17 v=0
2091153 On ch=3 n=29 v=100
2091153 On ch=3 n=31 v=100
2091266 Off ch=3 n=29 v=0
2091454 Off ch=3 n=31 v=0
2091459 On ch=3 n=7 v=100
2091641 Off ch=3 n=7 v=0
2091898 On ch=3 n=22 v=100
2092036 Off ch=3 n=22 v=0
2092048 On ch=3 n=11 v=100
2092591 On ch=3 n=19 v=100
2092591 Off ch=3 n=11 v=0
2092600 On ch=3 n=27 v=100
2092717 Off ch=3 n=19 v=0
2092740 Off ch=3 n=27 v=0
2093983 On ch=3 n=28 v=100
2093984 On ch=3 n=14 v=100
2094184 Off ch=3 n=28 v=0
2094184 Off ch=3 n=14 v=0
2094234 On ch=3 n=28 v=100
2094234 On ch=3 n=14 v=100
2094697 Off ch=3 n=14 v=0
2094783 Off ch=3 n=28 v=0
2094908 On ch=3 n=4 v=100
2095837 Off ch=3 n=4 v=0
2095851 On ch=3 n=8 v=100
2096274 Off ch=3 n=8 v=0
2096276 On ch=3 n=6 v=100
2096329 Off ch=3 n=6 v=0
2097217 On ch=3 n=30 v=100
2097408 On ch=3 n=13 v=100
2097486 On ch=3 n=10 v=100
2097486 On ch=3 n=10 v=100
2097498 On ch=3 n=7 v=100
2097810 Off ch=3 n=30 v=0
2097867 Off ch=3 n=7 v=0
2097869 Off ch=3 n=13 v=0
2097907 Off ch=3 n=10 v=0
2097907 Off ch=3 n=10 v=0
2098720 On ch=3 n=41 v=100
2098828 Off ch=3 n=41 v=0
2098842 On ch=3 n=36 v=100
2099073 On ch=3 n=20 v=100
2099123 On ch=3 n=37 v=100
2099339 Off ch=3 n=20 v=0
2099344 Off ch=3 n=36 v=0
2099597 Off ch=3 n=37 v=0
2099629 On ch=3 n=39 v=100
2099638 On ch=3 n=43 v=100
2099711 Off ch=3 n=39 v=0
2099729 Off ch=3 n=43 v=0
2101494 On ch=3 n=32 v=100
2101657 Off ch=3 n=32 v=0
2102453 On ch=3 n=32 v=100
2102665 Off ch=3 n=32 v=0
2103209 On ch=3 n=39 v=100
2103278 On ch=3 n=23 v=100
2103335 Off ch=3 n=39 v=0
2103347 Off ch=3 n=23 v=0
2103352 On ch=3 n=10 v=100
2103735 Off ch=3 n=10 v=0
2104158 On ch=3 n=45 v=100
2104205 On ch=3 n=19 v=100
2104212 On ch=3 n=54 v=100
2104287 Off ch=3 n=45 v=0
2104302 Off ch=3 n=19 v=0
2104349 On ch=3 n=25 v=100
2104356 On ch=3 n=38 v=100
2104457 Off ch=3 n=54 v=0
2104671 Off ch=3 n=25 v=0
2104801 Off ch=3 n=38 v=0
2104857 On ch=3 n=8 v=100
2105572 Off ch=3 n=8 v=0
2106164 On ch=3 n=23 v=100
2106346 Off ch=3 n=23 v=0
2106348 On ch=3 n=25 v=100
2106593 Off ch=3 n=25 v=0
2106674 On ch=3 n=21 v=100
2106806 Off ch=3 n=21 v=0
2108455 On ch=3 n=24 v=100
2108549 On ch=3 n=18 v=100
2108631 On ch=3 n=17 v=100
2108673 On ch=3 n=31 v=100
2108984 Off ch=3 n=18 v=0
2108994 Off ch=3 n=24 v=0
2109081 Off ch=3 n=17 v=0
2109181 Off ch=3 n=31 v=0
2109493 On ch=3 n=30 v=100
2109493 On ch=3 n=30 v=100
2109541 On ch=3 n=41 v=100
2109541 On ch=3 n=41 v=100
2109552 On ch=3 n=23 v=100
2109645 On ch=3 n=37 v=100
2109645 On ch=3 n=37 v=100
2109745 On ch=3 n=43 v=100
2109838 Off ch=3 n=23 v=0
2109845 Off ch=3 n=30 v=0
2109845 Off ch=3 n=30 v=0
2109878 On ch=3 n=35 v=100
2109885 On ch=3 n=32 v=100
2109892 Off ch=3 n=41 v=0
2109892 Off ch=3 n=41 v=0
2109959 On ch=3 n=44 v=100
2109959 On ch=3 n=44 v=100
2109971 Off ch=3 n=37 v=0
2109971 Off ch=3 n=37 v=0
2110086 On ch=3 n=35 v=100
2110086 Off ch=3 n=43 v=0
2110183 Off ch=3 n=32 v=0
2110218 Off ch=3 n=35 v=0
2110275 On ch=3 n=21 v=100
2110320 On ch=3 n=18 v=100
2110320 On ch=3 n=18 v=100
2110342 On ch=3 n=14 v=100
2110366 Off ch=3 n=35 v=0
2110368 On ch=3 n=27 v=100
2110443 Off ch=3 n=44 v=0
2110443 Off ch=3 n=44 v=0
2110631 Off ch=3 n=21 v=0
2110642 Off ch=3 n=14 v=0
2110675 Off ch=3 n=18 v=0
2110675 Off ch=3 n=18 v=0
2110707 On ch=3 n=10 v=100
2110729 On ch=3 n=56 v=100
2110729 On ch=3 n=56 v=100
2110812 Off ch=3 n=27 v=0
2110906 On ch=3 n=25 v=100
2110906 On ch=3 n=25 v=100
2110907 Off ch=3 n=10 v=0
2111188 Off ch=3 n=56 v=0
2111188 Off ch=3 n=56 v=0
2111476 On ch=3 n=30 v=100
2111482 Off ch=3 n=25 v=0
2111482 Off ch=3 n=25 v=0
2111624 Off ch=3 n=30 v=0
2111725 On ch=3 n=30 v=100
2112142 On ch=3 n=13 v=100
2112142 On ch=3 n=13 v=100
2112544 On ch=3 n=17 v=100
2112707 Off ch=3 n=30 v=0
2112735 Off ch=3 n=13 v=0
2112735 Off ch=3 n=13 v=0
2112785 Off ch=3 n=17 v=0
2113308 On ch=3 n=20 v=100
2113358 Off ch=3 n=20 v=0
2113465 On ch=3 n=20 v=100
2113822 Off ch=3 n=20 v=0
2114021 On ch=3 n=20 v=100
2114021 On ch=3 n=14 v=100
2114081 Off ch=3 n=20 v=0
2114088 On ch=3 n=27 v=100
2114145 On ch=3 n=9 v=100
2114154 Off ch=3 n=14 v=0
2114194 Off ch=3 n=27 v=0
2114600 Off ch=3 n=9 v=0
2114674 On ch=3 n=5 v=100
2114818 Off ch=3 n=5 v=0
2115246 On ch=3 n=9 v=100
2115502 Off ch=3 n=9 v=0
2115504 On ch=3 n=9 v=100
2115697 On ch=3 n=4 v=100
2115715 Off ch=3 n=9 v=0
2116049 Off ch=3 n=4 v=0
2116341 On ch=3 n=10 v=100
2116423 Off ch=3 n=10 v=0
2116835 On ch=3 n=18 v=100
2116980 Off ch=3 n=18 v=0
2117091 On ch=3 n=18 v=100
2117394 Off ch=3 n=18 v=0
2118384 On ch=3 n=27 v=100
2118463 On ch=3 n=7 v=100
2118466 Off ch=3 n=27 v=0
2119196 Off ch=3 n=7 v=0
2119303 On ch=3 n=5 v=100
2119443 Off ch=3 n=5 v=0
2119541 On ch=3 n=28 v=100
2119713 Off ch=3 n=28 v=0
2119751 On ch=3 n=12 v=100
2119857 Off ch=3 n=12 v=0
2119858 On ch=3 n=8 v=100
2120194 Off ch=3 n=8 v=0
2120295 On ch=3 n=8 v=100
2120551 Off ch=3 n=8 v=0
2120555 On ch=3 n=11 v=100
2121335 Off ch=3 n=11 v=0
2121444 On ch=3 n=17 v=100
2121595 On ch=3 n=15 v=100
2121597 Off ch=3 n=17 v=0
2121801 Off ch=3 n=15 v=0
2121955 On ch=3 n=33 v=100
2122072 On ch=3 n=18 v=100
2122426 On ch=3 n=36 v=100
2122475 Off ch=3 n=33 v=0
2122476 Off ch=3 n=18 v=0
2122615 Off ch=3 n=36 v=0
2123325 On ch=3 n=14 v=100
2123924 Off ch=3 n=14 v=0
2126005 On ch=3 n=15 v=100
2126005 On ch=3 n=15 v=100
2126022 On ch=3 n=4 v=100
2126087 Off ch=3 n=4 v=0
2126088 On ch=3 n=11 v=100
2126099 Off ch=3 n=15 v=0
2126099 Off ch=3 n=15 v=0
2126628 Off ch=3 n=11 v=0
2126629 On ch=3 n=7 v=100
2126754 Off ch=3 n=7 v=0
2126757 On ch=3 n=12 v=100
2126836 On ch=3 n=9 v=100
2126837 Off ch=3 n=12 v=0
2127023 Off ch=3 n=9 v=0
2127359 On ch=3 n=25 v=100
2127388 On ch=3 n=16 v=100
2127494 Off ch=3 n=16 v=0
2127495 Off ch=3 n=25 v=0
2127847 On ch=3 n=15 v=100
2127919 On ch=3 n=9 v=100
2128011 Off ch=3 n=15 v=0
2128203 On ch=3 n=30 v=100
2128208 Off ch=3 n=9 v=0
2128222 On ch=3 n=14 v=100
2128327 Off ch=3 n=30 v=0
2128457 Off ch=3 n=14 v=0
2128533 On ch=3 n=14 v=100
2128986 Off ch=3 n=14 v=0
2129279 On ch=3 n=14 v=100
2129376 On ch=3 n=12 v=100
2129402 Off ch=3 n=14 v=0
2129447 Off ch=3 n=12 v=0
2129463 On ch=3 n=15 v=100
2129772 Off ch=3 n=15 v=0
2130744 On ch=3 n=10 v=100
2130790 On ch=3 n=21 v=100
2130798 Off ch=3 n=10 v=0
2130875 Off ch=3 n=21 v=0
2134550 On ch=3 n=16 v=100
2134927 Off ch=3 n=16 v=0
2136260 On ch=3 n=30 v=100
2136273 On ch=3 n=33 v=100
2136345 Off ch=3 n=30 v=0
2136345 Off ch=3 n=33 v=0
2136382 On ch=3 n=19 v=100
2136661 Off ch=3 n=19 v=0
2137040 On ch=3 n=36 v=100
2137197 On ch=3 n=10 v=100
2137197 Off ch=3 n=36 v=0
2137461 Off ch=3 n=10 v=0
2137500 On ch=3 n=34 v=100
2137644 Off ch=3 n=34 v=0
2137992 On ch=3 n=53 v=100
2138151 Off ch=3 n=53 v=0
2139818 On ch=3 n=21 v=100
2139905 On ch=3 n=23 v=100
2139919 Off ch=3 n=21 v=0
2139999 Off ch=3 n=23 v=0
2140107 On ch=3 n=23 v=100
2140417 Off ch=3 n=23 v=0
2141368 On ch=3 n=14 v=100
2141579 Off ch=3 n=14 v=0
2141626 On ch=3 n=2 v=100
2143957 On ch=3 n=39 v=100
2143966 Off ch=3 n=2 v=0
2143976 On ch=3 n=19 v=100
2144054 Off ch=3 n=39 v=0
2144313 On ch=3 n=16 v=100
2144393 On ch=3 n=13 v=100
2144394 Off ch=3 n=19 v=0
2144396 On ch=3 n=9 v=100
2144407 Off ch=3 n=16 v=0
2144698 Off ch=3 n=9 v=0
2144700 On ch=3 n=21 v=100
2144813 Off ch=3 n=13 v=0
2144840 Off ch=3 n=21 v=0
2146147 On ch=3 n=14 v=100
2146334 Off ch=3 n=14 v=0
2146388 On ch=3 n=5 v=100
2146486 On ch=3 n=9 v=100
2146487 Off ch=3 n=5 v=0
2146738 Off ch=3 n=9 v=0
2146844 On ch=3 n=16 v=100
2147047 Off ch=3 n=16 v=0
2147457 On ch=3 n=17 v=100
2147755 Off ch=3 n=17 v=0
2147764 On ch=3 n=24 v=100
2147857 On ch=3 n=16 v=100
2148125 Off ch=3 n=24 v=0
2148125 Off ch=3 n=16 v=0
2149609 On ch=3 n=10 v=100
2150288 On ch=3 n=21 v=100
2150418 On ch=3 n=14 v=100
2150441 Off ch=3 n=10 v=0
2150676 On ch=3 n=28 v=100
2150807 On ch=3 n=7 v=100
2150871 Off ch=3 n=14 v=0
2150876 Off ch=3 n=21 v=0
2150905 Off ch=3 n=28 v=0
2151114 Off ch=3 n=7 v=0
2151733 On ch=3 n=34 v=100
2151795 On ch=3 n=24 v=100
2151798 On ch=3 n=29 v=100
2151798 On ch=3 n=29 v=100
2151872 On ch=3 n=30 v=100
2151987 Off ch=3 n=34 v=0
2152072 On ch=3 n=39 v=100
2152072 On ch=3 n=39 v=100
2152096 Off ch=3 n=24 v=0
2152134 Off ch=3 n=29 v=0
2152134 Off ch=3 n=29 v=0
2152137 Off ch=3 n=30 v=0
2152272 Off ch=3 n=39 v=0
2152272 Off ch=3 n=39 v=0
2152421 On ch=3 n=31 v=100
2152777 Off ch=3 n=31 v=0
2153133 On ch=3 n=37 v=100
2153384 Off ch=3 n=37 v=0
2153530 On ch=3 n=5 v=100
2154109 On ch=3 n=16 v=100
2154113 Off ch=3 n=5 v=0
2154168 Off ch=3 n=16 v=0
2154222 On ch=3 n=16 v=100
2154232 Off ch=3 n=16 v=0
2154254 On ch=3 n=3 v=100
2154666 On ch=3 n=3 v=100
2154666 Off ch=3 n=3 v=0
2155355 Off ch=3 n=3 v=0
2155749 On ch=3 n=51 v=100
2155787 On ch=3 n=36 v=100
2155810 On ch=3 n=31 v=100
2155900 On ch=3 n=32 v=100
2155937 Off ch=3 n=31 v=0
2155942 Off ch=3 n=51 v=0
2155946 Off ch=3 n=36 v=0
2155946 Off ch=3 n=32 v=0
2156014 On ch=3 n=32 v=100
2156014 On ch=3 n=26 v=100
2156014 On ch=3 n=32 v=100
2156016 Off ch=3 n=26 v=0
2156069 Off ch=3 n=32 v=0
2156093 Off ch=3 n=32 v=0
2156527 On ch=3 n=14 v=100
2157199 Off ch=3 n=14 v=0
2157216 On ch=3 n=28 v=100
2157406 Off ch=3 n=28 v=0
2158786 On ch=3 n=8 v=100
2158860 Off ch=3 n=8 v=0
2158919 On ch=3 n=9 v=100
2159087 On ch=3 n=52 v=100
2159306 Off ch=3 n=9 v=0
2159307 On ch=3 n=10 v=100
2159819 On ch=3 n=30 v=100
2159860 Off ch=3 n=52 v=0
2159915 Off ch=3 n=10 v=0
2159919 On ch=3 n=13 v=100
2159988 Off ch=3 n=30 v=0
2160000 Off ch=3 n=13 v=0
2161554 On ch=3 n=8 v=100
2161572 On ch=3 n=4 v=100
2161592 On ch=3 n=8 v=100
2161625 Off ch=3 n=8 v=0
2161634 Off ch=3 n=4 v=0
2161642 Off ch=3 n=8 v=0
2163047 On ch=3 n=24 v=100
2163340 On ch=3 n=21 v=100
2163342 Off ch=3 n=24 v=0
2163555 Off ch=3 n=21 v=0
2163633 On ch=3 n=16 v=100
2163820 Off ch=3 n=16 v=0
2163891 On ch=3 n=11 v=100
2164183 Off ch=3 n=11 v=0
2164186 On ch=3 n=14 v=100
2164304 Off ch=3 n=14 v=0
2164445 On ch=3 n=46 v=100
2164520 Off ch=3 n=46 v=0
2165550 On ch=3 n=9 v=100
2165926 On ch=3 n=21 v=100
2166099 Off ch=3 n=9 v=0
2166120 Off ch=3 n=21 v=0
2166389 On ch=3 n=9 v=100
2166808 On ch=3 n=18 v=100
2166809 Off ch=3 n=9 v=0
2166856 On ch=3 n=11 v=100
2166856 Off ch=3 n=18 v=0
2166861 On ch=3 n=27 v=100
2166983 Off ch=3 n=11 v=0
2167039 Off ch=3 n=27 v=0
2167924 On ch=3 n=8 v=100
2168329 Off ch=3 n=8 v=0
2168349 On ch=3 n=12 v=100
2168422 On ch=3 n=30 v=100
2168568 Off ch=3 n=12 v=0
2168573 On ch=3 n=15 v=100
2168845 On ch=3 n=31 v=100
2168875 On ch=3 n=9 v=100
2168878 Off ch=3 n=30 v=0
2168887 Off ch=3 n=15 v=0
2169186 Off ch=3 n=9 v=0
2169190 On ch=3 n=12 v=100
2169195 Off ch=3 n=31 v=0
2169676 Off ch=3 n=12 v=0
2169834 On ch=3 n=33 v=100
2169922 Off ch=3 n=33 v=0
2169952 On ch=3 n=33 v=100
2170070 Off ch=3 n=33 v=0
2170074 On ch=3 n=15 v=100
2170074 On ch=3 n=36 v=100
2170354 Off ch=3 n=15 v=0
2170433 Off ch=3 n=36 v=0
2170462 On ch=3 n=8 v=100
2170713 On ch=3 n=17 v=100
2170720 Off ch=3 n=8 v=0
2171193 Off ch=3 n=17 v=0
2176574 On ch=3 n=31 v=100
2177166 Off ch=3 n=31 v=0
2177175 On ch=3 n=8 v=100
2177376 Off ch=3 n=8 v=0
2177377 On ch=3 n=7 v=100
2177630 Off ch=3 n=7 v=0
2177641 On ch=3 n=12 v=100
2178167 Off ch=3 n=12 v=0
2178947 On ch=3 n=21 v=100
2179072 On ch=3 n=11 v=100
2179596 On ch=3 n=52 v=100
2179596 On ch=3 n=52 v=100
2179611 Off ch=3 n=11 v=0
2179613 Off ch=3 n=21 v=0
2179653 On ch=3 n=33 v=100
2179687 On ch=3 n=28 v=100
2179721 On ch=3 n=46 v=100
2179721 On ch=3 n=46 v=100
2179841 Off ch=3 n=52 v=0
2179841 Off ch=3 n=52 v=0
2179843 On ch=3 n=19 v=100
2179844 Off ch=3 n=33 v=0
2179846 Off ch=3 n=28 v=0
2179892 Off ch=3 n=46 v=0
2179892 Off ch=3 n=46 v=0
2179913 On ch=3 n=13 v=100
2179916 Off ch=3 n=19 v=0
2180158 On ch=3 n=20 v=100
2180162 Off ch=3 n=13 v=0
2180386 Off ch=3 n=20 v=0
2181757 On ch=3 n=20 v=100
2181773 On ch=3 n=8 v=100
2181850 Off ch=3 n=20 v=0
2182342 Off ch=3 n=8 v=0
2182345 On ch=3 n=11 v=100
2182770 Off ch=3 n=11 v=0
2183759 On ch=3 n=17 v=100
2183759 On ch=3 n=43 v=100
2184147 Off ch=3 n=17 v=0
2184384 On ch=3 n=9 v=100
2184434 Off ch=3 n=43 v=0
2184753 Off ch=3 n=9 v=0
2184848 On ch=3 n=13 v=100
2185326 On ch=3 n=35 v=100
2185331 Off ch=3 n=13 v=0
2185540 On ch=3 n=26 v=100
2185550 Off ch=3 n=35 v=0
2185832 Off ch=3 n=26 v=0
2186078 On ch=3 n=21 v=100
2186352 On ch=3 n=13 v=100
2186358 Off ch=3 n=21 v=0
2186408 Off ch=3 n=13 v=0
2186412 On ch=3 n=7 v=100
2186606 On ch=3 n=54 v=100
2186702 Off ch=3 n=7 v=0
2186703 On ch=3 n=9 v=100
2186846 Off ch=3 n=54 v=0
2187037 Off ch=3 n=9 v=0
2187103 On ch=3 n=36 v=100
2187220 Off ch=3 n=36 v=0
2187224 On ch=3 n=20 v=100
2187224 On ch=3 n=32 v=100
2187393 Off ch=3 n=20 v=0
2187414 Off ch=3 n=32 v=0
2187632 On ch=3 n=5 v=100
2187907 On ch=3 n=30 v=100
2187964 Off ch=3 n=5 v=0
2188136 On ch=3 n=17 v=100
2188137 On ch=3 n=13 v=100
2188513 On ch=3 n=12 v=100
2188524 Off ch=3 n=30 v=0
2188534 Off ch=3 n=13 v=0
2188640 Off ch=3 n=17 v=0
2189026 Off ch=3 n=12 v=0
2189217 On ch=3 n=35 v=100
2189217 On ch=3 n=10 v=100
2189276 Off ch=3 n=35 v=0
2189475 On ch=3 n=6 v=100
2189485 Off ch=3 n=10 v=0
2189596 On ch=3 n=20 v=100
2189599 On ch=3 n=29 v=100
2189602 Off ch=3 n=6 v=0
2189724 Off ch=3 n=20 v=0
2189739 Off ch=3 n=29 v=0
2190915 On ch=3 n=31 v=100
2191051 Off ch=3 n=31 v=0
2191521 On ch=3 n=10 v=100
2191721 Off ch=3 n=10 v=0
2191828 On ch=3 n=23 v=100
2192032 Off ch=3 n=23 v=0
2192278 On ch=3 n=21 v=100
2192423 Off ch=3 n=21 v=0
2192424 On ch=3 n=7 v=100
2192429 On ch=3 n=52 v=100
2192430 On ch=3 n=32 v=100
2192602 Off ch=3 n=7 v=0
2192629 Off ch=3 n=32 v=0
2192658 On ch=3 n=13 v=100
2192667 Off ch=3 n=52 v=0
2192844 On ch=3 n=17 v=100
2193313 Off ch=3 n=13 v=0
2193756 Off ch=3 n=17 v=0
2193776 On ch=3 n=14 v=100
2194126 Off ch=3 n=14 v=0
2194156 On ch=3 n=36 v=100
2194223 Off ch=3 n=36 v=0
2194987 On ch=3 n=13 v=100
2195134 On ch=3 n=10 v=100
2195145 Off ch=3 n=13 v=0
2195538 Off ch=3 n=10 v=0
2195540 On ch=3 n=9 v=100
2195653 Off ch=3 n=9 v=0
2195673 On ch=3 n=16 v=100
2195823 Off ch=3 n=16 v=0
2195829 On ch=3 n=15 v=100
2196167 Off ch=3 n=15 v=0
2196394 On ch=3 n=7 v=100
2196659 On ch=3 n=33 v=100
2196740 Off ch=3 n=7 v=0
2196745 On ch=3 n=7 v=100
2196755 Off ch=3 n=33 v=0
2196774 Off ch=3 n=7 v=0
2198506 On ch=3 n=8 v=100
2200080 Off ch=3 n=8 v=0
2200275 On ch=3 n=25 v=100
2200620 Off ch=3 n=25 v=0
2200827 On ch=3 n=9 v=100
2200897 Off ch=3 n=9 v=0
2201866 On ch=3 n=28 v=100
2201981 On ch=3 n=24 v=100
2202166 Off ch=3 n=28 v=0
2202166 Off ch=3 n=24 v=0
2202235 On ch=3 n=18 v=100
2202235 On ch=3 n=24 v=100
2202235 On ch=3 n=35 v=100
2202307 Off ch=3 n=18 v=0
2202349 Off ch=3 n=24 v=0
2202395 Off ch=3 n=35 v=0
2202495 On ch=3 n=20 v=100
2202603 Off ch=3 n=20 v=0
2202686 On ch=3 n=11 v=100
2202865 On ch=3 n=40 v=100
2202881 Off ch=3 n=11 v=0
2202898 On ch=3 n=21 v=100
2202982 Off ch=3 n=40 v=0
2202983 Off ch=3 n=21 v=0
2203178 On ch=3 n=30 v=100
2203178 On ch=3 n=30 v=100
2203189 On ch=3 n=16 v=100
2203256 On ch=3 n=10 v=100
2203297 On ch=3 n=19 v=100
2203434 On ch=3 n=38 v=100
2203663 Off ch=3 n=16 v=0
2203674 Off ch=3 n=10 v=0
2203842 Off ch=3 n=19 v=0
2204047 Off ch=3 n=30 v=0
2204047 Off ch=3 n=30 v=0
2204551 Off ch=3 n=38 v=0
2211571 On ch=3 n=16 v=100
2211579 On ch=3 n=17 v=100
2211643 Off ch=3 n=16 v=0
2211643 Off ch=3 n=17 v=0
2211745 On ch=3 n=29 v=100
2211786 Off ch=3 n=29 v=0
2212304 On ch=3 n=16 v=100
2212340 On ch=3 n=39 v=100
2212347 On ch=3 n=8 v=100
2212588 Off ch=3 n=8 v=0
2212597 Off ch=3 n=16 v=0
2212655 Off ch=3 n=39 v=0
2212739 On ch=3 n=41 v=100
2212912 Off ch=3 n=41 v=0
2213201 On ch=3 n=16 v=100
2213384 Off ch=3 n=16 v=0
2213390 On ch=3 n=17 v=100
2213580 Off ch=3 n=17 v=0
2214798 On ch=3 n=17 v=100
2214850 On ch=3 n=12 v=100
2215114 Off ch=3 n=17 v=0
2215245 On ch=3 n=23 v=100
2215505 Off ch=3 n=12 v=0
2215539 Off ch=3 n=23 v=0
2215570 On ch=3 n=13 v=100
2215606 On ch=3 n=7 v=100
2215795 Off ch=3 n=13 v=0
2215954 Off ch=3 n=7 v=0
2218366 On ch=3 n=10 v=100
2218452 On ch=3 n=29 v=100
2218621 Off ch=3 n=10 v=0
2218795 Off ch=3 n=29 v=0
2219160 On ch=3 n=45 v=100
2219160 On ch=3 n=8 v=100
2219402 On ch=3 n=10 v=100
2219410 Off ch=3 n=8 v=0
2219639 Off ch=3 n=45 v=0
2219874 Off ch=3 n=10 v=0
2219876 On ch=3 n=11 v=100
2219894 On ch=3 n=22 v=100
2220026 Off ch=3 n=11 v=0
2220710 On ch=3 n=13 v=100
2220749 Off ch=3 n=22 v=0
2220833 Off ch=3 n=13 v=0
2222971 On ch=3 n=5 v=100
2223032 On ch=3 n=11 v=100
2223135 Off ch=3 n=5 v=0
2223406 On ch=3 n=11 v=100
2223408 Off ch=3 n=11 v=0
2223518 Off ch=3 n=11 v=0
2223546 On ch=3 n=29 v=100
2223561 On ch=3 n=26 v=100
2223563 On ch=3 n=34 v=100
2223682 Off ch=3 n=29 v=0
2223688 Off ch=3 n=26 v=0
2223698 On ch=3 n=10 v=100
2223711 Off ch=3 n=34 v=0
2224768 Off ch=3 n=10 v=0
2225696 On ch=3 n=9 v=100
2225969 Off ch=3 n=9 v=0
2226436 On ch=3 n=9 v=100
2226811 Off ch=3 n=9 v=0
2228014 On ch=3 n=35 v=100
2228301 Off ch=3 n=35 v=0
2228598 On ch=3 n=34 v=100
2228869 Off ch=3 n=34 v=0
2228919 On ch=3 n=36 v=100
2229019 Off ch=3 n=36 v=0
2229174 On ch=3 n=15 v=100
2229272 Off ch=3 n=15 v=0
2229888 On ch=3 n=25 v=100
2230053 Off ch=3 n=25 v=0
2230151 On ch=3 n=45 v=100
2230153 On ch=3 n=36 v=100
2230194 Off ch=3 n=36 v=0
2230203 Off ch=3 n=45 v=0
2230258 On ch=3 n=21 v=100
2230461 Off ch=3 n=21 v=0
2230891 On ch=3 n=9 v=100
2230926 On ch=3 n=4 v=100
2231152 Off ch=3 n=4 v=0
2231157 Off ch=3 n=9 v=0
2232008 On ch=3 n=15 v=100
2232331 Off ch=3 n=15 v=0
2233142 On ch=3 n=15 v=100
2233331 Off ch=3 n=15 v=0
2233406 On ch=3 n=36 v=100
2233574 Off ch=3 n=36 v=0
2233690 On ch=3 n=13 v=100
2233739 On ch=3 n=7 v=100
2233739 Off ch=3 n=13 v=0
2233845 Off ch=3 n=7 v=0
2234913 On ch=3 n=27 v=100
2234913 On ch=3 n=27 v=100
2234936 On ch=3 n=27 v=100
2235086 On ch=3 n=23 v=100
2235341 On ch=3 n=39 v=100
2235454 Off ch=3 n=27 v=0
2235519 Off ch=3 n=27 v=0
2235519 Off ch=3 n=27 v=0
2235525 Off ch=3 n=23 v=0
2235581 On ch=3 n=18 v=100
2235635 On ch=3 n=14 v=100
2235671 Off ch=3 n=39 v=0
2235819 On ch=3 n=23 v=100
2235940 Off ch=3 n=14 v=0
2235942 Off ch=3 n=18 v=0
2236362 Off ch=3 n=23 v=0
2236480 On ch=3 n=30 v=100
2236486 On ch=3 n=35 v=100
2236507 On ch=3 n=16 v=100
2236606 Off ch=3 n=30 v=0
2236675 Off ch=3 n=35 v=0
2236721 Off ch=3 n=16 v=0
2236730 On ch=3 n=8 v=100
2237395 On ch=3 n=5 v=100
2237396 Off ch=3 n=8 v=0
2237592 Off ch=3 n=5 v=0
2237628 On ch=3 n=18 v=100
2237928 Off ch=3 n=18 v=0
2239206 On ch=3 n=30 v=100
2239360 Off ch=3 n=30 v=0
2239432 On ch=3 n=24 v=100
2239507 On ch=3 n=19 v=100
2239519 On ch=3 n=28 v=100
2239519 On ch=3 n=28 v=100
2239620 On ch=3 n=34 v=100
2239620 On ch=3 n=34 v=100
2239630 On ch=3 n=19 v=100
2239980 Off ch=3 n=24 v=0
2239980 Off ch=3 n=19 v=0
2240107 Off ch=3 n=28 v=0
2240107 Off ch=3 n=28 v=0
2240157 On ch=3 n=16 v=100
2240160 Off ch=3 n=19 v=0
2240287 Off ch=3 n=34 v=0
2240287 Off ch=3 n=34 v=0
2240310 Off ch=3 n=16 v=0
2240435 On ch=3 n=33 v=100
2240471 On ch=3 n=26 v=100
2240623 Off ch=3 n=33 v=0
2240623 Off ch=3 n=26 v=0
2241211 On ch=3 n=16 v=100
2241352 Off ch=3 n=16 v=0
2241391 On ch=3 n=24 v=100
2241498 On ch=3 n=48 v=100
2241530 Off ch=3 n=24 v=0
2241533 On ch=3 n=15 v=100
2241586 Off ch=3 n=48 v=0
2242243 Off ch=3 n=15 v=0
2242244 On ch=3 n=34 v=100
2242244 On ch=3 n=34 v=100
2242743 On ch=3 n=10 v=100
2242743 On ch=3 n=10 v=100
2242787 Off ch=3 n=34 v=0
2242787 Off ch=3 n=34 v=0
2242799 Off ch=3 n=10 v=0
2242799 Off ch=3 n=10 v=0
2243140 On ch=3 n=20 v=100
2243216 On ch=3 n=29 v=100
2243271 Off ch=3 n=20 v=0
2243287 Off ch=3 n=29 v=0
2243390 On ch=3 n=21 v=100
2243635 Off ch=3 n=21 v=0
2244603 On ch=3 n=35 v=100
2244631 On ch=3 n=23 v=100
2244698 Off ch=3 n=35 v=0
2244698 Off ch=3 n=23 v=0
2244704 On ch=3 n=17 v=100
2244829 On ch=3 n=9 v=100
2244972 Off ch=3 n=17 v=0
2245001 Off ch=3 n=9 v=0
2245003 On ch=3 n=9 v=100
2245177 On ch=3 n=51 v=100
2245200 Off ch=3 n=9 v=0
2245231 On ch=3 n=11 v=100
2245254 Off ch=3 n=51 v=0
2245826 On ch=3 n=11 v=100
2245826 Off ch=3 n=11 v=0
2245873 On ch=3 n=9 v=100
2245873 Off ch=3 n=11 v=0
2246102 Off ch=3 n=9 v=0
2246208 On ch=3 n=16 v=100
2246332 Off ch=3 n=16 v=0
2246570 On ch=3 n=27 v=100
2246675 Off ch=3 n=27 v=0
2247486 On ch=3 n=40 v=100
2247582 On ch=3 n=23 v=100
2247625 Off ch=3 n=40 v=0
2247629 On ch=3 n=8 v=100
2247631 Off ch=3 n=23 v=0
2247841 On ch=3 n=8 v=100
2247843 Off ch=3 n=8 v=0
2248176 Off ch=3 n=8 v=0
2248206 On ch=3 n=28 v=100
2248280 Off ch=3 n=28 v=0
2248548 On ch=3 n=40 v=100
2248548 On ch=3 n=22 v=100
2248651 Off ch=3 n=22 v=0
2248654 On ch=3 n=18 v=100
2248698 Off ch=3 n=40 v=0
2248730 Off ch=3 n=18 v=0
2248738 On ch=3 n=9 v=100
2249295 Off ch=3 n=9 v=0
2249405 On ch=3 n=12 v=100
2249514 Off ch=3 n=12 v=0
2249527 On ch=3 n=13 v=100
2249622 On ch=3 n=22 v=100
2249959 Off ch=3 n=13 v=0
2249999 On ch=3 n=10 v=100
2250011 Off ch=3 n=22 v=0
2250665 Off ch=3 n=10 v=0
2251004 On ch=3 n=13 v=100
2251295 Off ch=3 n=13 v=0
2251322 On ch=3 n=13 v=100
2251867 Off ch=3 n=13 v=0
2252775 On ch=3 n=31 v=100
2252890 Off ch=3 n=31 v=0
2252894 On ch=3 n=36 v=100
2252920 On ch=3 n=64 v=100
2252934 On ch=3 n=16 v=100
2252955 On ch=3 n=31 v=100
2252962 On ch=3 n=8 v=100
2252962 On ch=3 n=20 v=100
2253036 Off ch=3 n=36 v=0
2253056 On ch=3 n=27 v=100
2253056 Off ch=3 n=16 v=0
2253056 Off ch=3 n=8 v=0
2253057 Off ch=3 n=64 v=0
2253075 Off ch=3 n=20 v=0
2253122 Off ch=3 n=31 v=0
2253343 On ch=3 n=33 v=100
2253364 On ch=3 n=39 v=100
2253439 Off ch=3 n=27 v=0
2253492 Off ch=3 n=33 v=0
2253592 Off ch=3 n=39 v=0
2253768 On ch=3 n=2 v=100
2254065 On ch=3 n=39 v=100
2254080 Off ch=3 n=2 v=0
2254083 On ch=3 n=14 v=100
2254180 Off ch=3 n=39 v=0
2254533 Off ch=3 n=14 v=0
2254694 On ch=3 n=20 v=100
2254701 On ch=3 n=37 v=100
2254743 Off ch=3 n=20 v=0
2254746 On ch=3 n=24 v=100
2254805 On ch=3 n=11 v=100
2254812 Off ch=3 n=37 v=0
2254812 Off ch=3 n=24 v=0
2254896 Off ch=3 n=11 v=0
2254929 On ch=3 n=11 v=100
2255252 Off ch=3 n=11 v=0
2256306 On ch=3 n=12 v=100
2256377 Off ch=3 n=12 v=0
2256601 On ch=3 n=12 v=100
2256844 Off ch=3 n=12 v=0
2258133 On ch=3 n=23 v=100
2258183 On ch=3 n=11 v=100
2258306 On ch=3 n=30 v=100
2258314 Off ch=3 n=23 v=0
2258342 On ch=3 n=19 v=100
2258358 Off ch=3 n=11 v=0
2258377 Off ch=3 n=30 v=0
2258490 Off ch=3 n=19 v=0
2258506 On ch=3 n=17 v=100
2258536 On ch=3 n=16 v=100
2258668 Off ch=3 n=17 v=0
2258980 Off ch=3 n=16 v=0
2259119 On ch=3 n=8 v=100
2259372 Off ch=3 n=8 v=0
2259619 On ch=3 n=18 v=100
2259710 On ch=3 n=14 v=100
2259724 Off ch=3 n=18 v=0
2260389 On ch=3 n=32 v=100
2260389 On ch=3 n=32 v=100
2260408 On ch=3 n=20 v=100
2260425 Off ch=3 n=14 v=0
2260522 Off ch=3 n=20 v=0
2260545 Off ch=3 n=32 v=0
2260545 Off ch=3 n=32 v=0
2260758 On ch=3 n=14 v=100
2260787 Off ch=3 n=14 v=0
2260790 On ch=3 n=11 v=100
2260834 Off ch=3 n=11 v=0
2262202 On ch=3 n=11 v=100
2262319 On ch=3 n=13 v=100
2262319 Off ch=3 n=11 v=0
2262436 Off ch=3 n=13 v=0
2262449 On ch=3 n=10 v=100
2262831 Off ch=3 n=10 v=0
2263906 On ch=3 n=4 v=100
2265119 Off ch=3 n=4 v=0
2265378 On ch=3 n=21 v=100
2265682 On ch=3 n=43 v=100
2265705 Off ch=3 n=21 v=0
2265713 On ch=3 n=21 v=100
2265718 On ch=3 n=28 v=100
2265814 Off ch=3 n=21 v=0
2265818 Off ch=3 n=43 v=0
2265835 Off ch=3 n=28 v=0
2265932 On ch=3 n=27 v=100
2265970 On ch=3 n=8 v=100
2266007 On ch=3 n=20 v=100
2266206 Off ch=3 n=27 v=0
2266276 Off ch=3 n=8 v=0
2266332 Off ch=3 n=20 v=0
2266401 On ch=3 n=28 v=100
2266433 On ch=3 n=15 v=100
2266669 Off ch=3 n=28 v=0
2266834 Off ch=3 n=15 v=0
2268540 On ch=3 n=31 v=100
2268805 Off ch=3 n=31 v=0
2268810 On ch=3 n=36 v=100
2268860 On ch=3 n=29 v=100
2268860 On ch=3 n=29 v=100
2268896 Off ch=3 n=36 v=0
2269053 Off ch=3 n=29 v=0
2269053 Off ch=3 n=29 v=0
2269203 On ch=3 n=19 v=100
2269513 Off ch=3 n=19 v=0
2269616 On ch=3 n=19 v=100
2269669 On ch=3 n=16 v=100
2269682 Off ch=3 n=19 v=0
2269853 On ch=3 n=20 v=100
2269854 Off ch=3 n=16 v=0
2270410 Off ch=3 n=20 v=0
2270510 On ch=3 n=20 v=100
2270691 Off ch=3 n=20 v=0
2270694 On ch=3 n=8 v=100
2271445 Off ch=3 n=8 v=0
2271448 On ch=3 n=6 v=100
2271691 Off ch=3 n=6 v=0
2272302 On ch=3 n=20 v=100
2272329 Off ch=3 n=20 v=0
2273404 On ch=3 n=44 v=100
2273406 On ch=3 n=32 v=100
2273467 Off ch=3 n=32 v=0
2273481 Off ch=3 n=44 v=0
2273485 On ch=3 n=13 v=100
2273821 On ch=3 n=15 v=100
2273824 Off ch=3 n=13 v=0
2273924 Off ch=3 n=15 v=0
2273925 On ch=3 n=12 v=100
2273925 On ch=3 n=16 v=100
2274149 Off ch=3 n=12 v=0
2274185 Off ch=3 n=16 v=0
2274458 On ch=3 n=23 v=100
2274538 Off ch=3 n=23 v=0
2274587 On ch=3 n=23 v=100
2274615 On ch=3 n=18 v=100
2274747 Off ch=3 n=23 v=0
2274747 Off ch=3 n=18 v=0
2274781 On ch=3 n=23 v=100
2274781 On ch=3 n=15 v=100
2274782 On ch=3 n=10 v=100
2274896 On ch=3 n=31 v=100
2275137 On ch=3 n=11 v=100
2275137 Off ch=3 n=10 v=0
2275164 Off ch=3 n=23 v=0
2275183 Off ch=3 n=15 v=0
2275335 Off ch=3 n=31 v=0
2275468 Off ch=3 n=11 v=0
2276014 On ch=3 n=62 v=100
2276321 Off ch=3 n=62 v=0
2277204 On ch=3 n=11 v=100
2277674 Off ch=3 n=11 v=0
2277712 On ch=3 n=16 v=100
2277988 Off ch=3 n=16 v=0
2278009 On ch=3 n=17 v=100
2278080 Off ch=3 n=17 v=0
2278169 On ch=3 n=17 v=100
2278250 Off ch=3 n=17 v=0
2278344 On ch=3 n=15 v=100
2278530 Off ch=3 n=15 v=0
2278665 On ch=3 n=7 v=100
2278665 On ch=3 n=22 v=100
2278779 Off ch=3 n=7 v=0
2278795 Off ch=3 n=22 v=0
2278846 On ch=3 n=17 v=100
2279032 Off ch=3 n=17 v=0
2279420 On ch=3 n=11 v=100
2279558 Off ch=3 n=11 v=0
2279664 On ch=3 n=20 v=100
2279665 On ch=3 n=36 v=100
2279868 Off ch=3 n=20 v=0
2279896 Off ch=3 n=36 v=0
2279897 On ch=3 n=15 v=100
2280078 Off ch=3 n=15 v=0
2280102 On ch=3 n=12 v=100
2280253 Off ch=3 n=12 v=0
2281351 On ch=3 n=49 v=100
2281478 Off ch=3 n=49 v=0
2281536 On ch=3 n=48 v=100
2281566 Off ch=3 n=48 v=0
2281653 On ch=3 n=9 v=100
2281846 Off ch=3 n=9 v=0
2281864 On ch=3 n=9 v=100
2282067 On ch=3 n=20 v=100
2282112 Off ch=3 n=9 v=0
2282112 Off ch=3 n=20 v=0
2282185 On ch=3 n=20 v=100
2282484 On ch=3 n=16 v=100
2282632 Off ch=3 n=20 v=0
2282679 Off ch=3 n=16 v=0
2282884 On ch=3 n=29 v=100
2283341 Off ch=3 n=29 v=0
2283381 On ch=3 n=29 v=100
2283616 Off ch=3 n=29 v=0
2285625 On ch=3 n=14 v=100
2285818 Off ch=3 n=14 v=0
2285845 On ch=3 n=14 v=100
2286023 Off ch=3 n=14 v=0
2286061 On ch=3 n=18 v=100
2286236 Off ch=3 n=18 v=0
2286264 On ch=3 n=19 v=100
2286389 Off ch=3 n=19 v=0
2286430 On ch=3 n=14 v=100
2286504 On ch=3 n=40 v=100
2286634 Off ch=3 n=14 v=0
2286638 On ch=3 n=45 v=100
2286638 On ch=3 n=45 v=100
2286654 On ch=3 n=21 v=100
2286723 On ch=3 n=39 v=100
2286807 On ch=3 n=16 v=100
2286807 Off ch=3 n=21 v=0
2286821 Off ch=3 n=40 v=0
2286841 Off ch=3 n=39 v=0
2286958 Off ch=3 n=45 v=0
2286958 Off ch=3 n=45 v=0
2287006 Off ch=3 n=16 v=0
2287025 On ch=3 n=30 v=100
2287131 On ch=3 n=48 v=100
2287131 Off ch=3 n=30 v=0
2287161 On ch=3 n=26 v=100
2287162 On ch=3 n=24 v=100
2287210 On ch=3 n=40 v=100
2287306 Off ch=3 n=24 v=0
2287311 Off ch=3 n=48 v=0
2287328 Off ch=3 n=26 v=0
2287345 Off ch=3 n=40 v=0
2290011 On ch=3 n=33 v=100
2290022 On ch=3 n=42 v=100
2290159 Off ch=3 n=33 v=0
2290196 Off ch=3 n=42 v=0
2298199 On ch=3 n=15 v=100
2298337 On ch=3 n=11 v=100
2298690 Off ch=3 n=15 v=0
2298814 Off ch=3 n=11 v=0
2298836 On ch=3 n=24 v=100
2298942 On ch=3 n=13 v=100
2299396 Off ch=3 n=24 v=0
2299519 Off ch=3 n=13 v=0
2300710 On ch=3 n=22 v=100
2300730 On ch=3 n=24 v=100
2300742 On ch=3 n=28 v=100
2300796 Off ch=3 n=22 v=0
2300797 Off ch=3 n=24 v=0
2300859 Off ch=3 n=28 v=0
2301316 On ch=3 n=30 v=100
2301416 Off ch=3 n=30 v=0
2304191 On ch=3 n=31 v=100
2304191 On ch=3 n=31 v=100
2304200 On ch=3 n=22 v=100
2304618 Off ch=3 n=22 v=0
2304646 On ch=3 n=15 v=100
2304984 Off ch=3 n=15 v=0
2305081 Off ch=3 n=31 v=0
2305081 Off ch=3 n=31 v=0
2308093 On ch=3 n=29 v=100
2308131 On ch=3 n=32 v=100
2308154 On ch=3 n=25 v=100
2308200 Off ch=3 n=29 v=0
2308242 On ch=3 n=10 v=100
2308257 Off ch=3 n=32 v=0
2308257 Off ch=3 n=25 v=0
2308760 On ch=3 n=45 v=100
2308770 On ch=3 n=32 v=100
2308772 On ch=3 n=34 v=100
2308778 On ch=3 n=34 v=100
2308781 Off ch=3 n=10 v=0
2308792 On ch=3 n=33 v=100
2308844 Off ch=3 n=32 v=0
2308853 Off ch=3 n=34 v=0
2308860 Off ch=3 n=45 v=0
2308860 Off ch=3 n=33 v=0
2308880 On ch=3 n=26 v=100
2308885 Off ch=3 n=34 v=0
2308974 On ch=3 n=12 v=100
2309113 Off ch=3 n=26 v=0
2309460 On ch=3 n=22 v=100
2309481 Off ch=3 n=12 v=0
2309485 Off ch=3 n=22 v=0
2309566 On ch=3 n=37 v=100
2309582 On ch=3 n=17 v=100
2309706 Off ch=3 n=17 v=0
2309712 Off ch=3 n=37 v=0
2311643 On ch=3 n=13 v=100
2312010 On ch=3 n=9 v=100
2312016 Off ch=3 n=13 v=0
2312604 Off ch=3 n=9 v=0
2316003 On ch=3 n=11 v=100
2317296 Off ch=3 n=11 v=0
2318707 On ch=3 n=22 v=100
2319224 Off ch=3 n=22 v=0
2319386 On ch=3 n=11 v=100
2319494 On ch=3 n=29 v=100
2319568 Off ch=3 n=11 v=0
2319584 Off ch=3 n=29 v=0
2320144 On ch=3 n=22 v=100
2320528 On ch=3 n=17 v=100
2320623 Off ch=3 n=22 v=0
2320638 Off ch=3 n=17 v=0
2321196 On ch=3 n=20 v=100
2321427 Off ch=3 n=20 v=0
2323090 On ch=3 n=12 v=100
2323368 Off ch=3 n=12 v=0
2325961 On ch=3 n=14 v=100
2326364 Off ch=3 n=14 v=0
2327516 On ch=3 n=16 v=100
2327529 On ch=3 n=15 v=100
2327632 Off ch=3 n=16 v=0
2327751 Off ch=3 n=15 v=0
2328346 On ch=3 n=9 v=100
2328593 On ch=3 n=21 v=100
2328811 Off ch=3 n=9 v=0
2328844 Off ch=3 n=21 v=0
2331199 On ch=3 n=16 v=100
2331463 Off ch=3 n=16 v=0
2331559 On ch=3 n=10 v=100
2332276 Off ch=3 n=10 v=0
2332313 On ch=3 n=52 v=100
2332355 On ch=3 n=30 v=100
2332355 On ch=3 n=30 v=100
2332392 On ch=3 n=4 v=100
2332561 Off ch=3 n=52 v=0
2332574 Off ch=3 n=4 v=0
2332616 Off ch=3 n=30 v=0
2332616 Off ch=3 n=30 v=0
2339855 On ch=3 n=24 v=100
2340273 Off ch=3 n=24 v=0
2340899 On ch=3 n=12 v=100
2341183 On ch=3 n=21 v=100
2341201 On ch=3 n=35 v=100
2341204 Off ch=3 n=12 v=0
2341205 On ch=3 n=26 v=100
2341206 On ch=3 n=19 v=100
2341366 Off ch=3 n=21 v=0
2341376 Off ch=3 n=19 v=0
2341468 Off ch=3 n=26 v=0
2341503 Off ch=3 n=35 v=0
2341813 On ch=3 n=16 v=100
2341986 Off ch=3 n=16 v=0
2342154 On ch=3 n=30 v=100
2342315 Off ch=3 n=30 v=0
2344110 On ch=3 n=14 v=100
2344158 On ch=3 n=38 v=100
2344246 On ch=3 n=23 v=100
2344253 On ch=3 n=11 v=100
2344267 Off ch=3 n=14 v=0
2344444 Off ch=3 n=11 v=0
2344448 On ch=3 n=12 v=100
2344462 Off ch=3 n=38 v=0
2344479 Off ch=3 n=23 v=0
2344742 Off ch=3 n=12 v=0
2344746 On ch=3 n=11 v=100
2345333 On ch=3 n=5 v=100
2345335 Off ch=3 n=11 v=0
2345550 On ch=3 n=12 v=100
2345550 Off ch=3 n=5 v=0
2345794 On ch=3 n=14 v=100
2345794 Off ch=3 n=12 v=0
2345996 Off ch=3 n=14 v=0
2346337 On ch=3 n=10 v=100
2346338 On ch=3 n=15 v=100
2346435 Off ch=3 n=10 v=0
2346439 On ch=3 n=13 v=100
2346447 Off ch=3 n=15 v=0
2346547 Off ch=3 n=13 v=0
2347588 On ch=3 n=36 v=100
2347624 On ch=3 n=31 v=100
2347661 On ch=3 n=39 v=100
2347661 On ch=3 n=22 v=100
2347703 On ch=3 n=26 v=100
2347892 Off ch=3 n=36 v=0
2347957 Off ch=3 n=31 v=0
2347957 Off ch=3 n=22 v=0
2347990 Off ch=3 n=26 v=0
2348000 Off ch=3 n=39 v=0
2348506 On ch=3 n=25 v=100
2348740 On ch=3 n=54 v=100
2348755 Off ch=3 n=25 v=0
2348758 On ch=3 n=41 v=100
2348789 Off ch=3 n=54 v=0
2348789 Off ch=3 n=41 v=0
2348824 On ch=3 n=54 v=100
2348824 On ch=3 n=41 v=100
2348869 Off ch=3 n=54 v=0
2348894 Off ch=3 n=41 v=0
2350420 On ch=3 n=48 v=100
2350450 On ch=3 n=33 v=100
2350468 On ch=3 n=13 v=100
2350658 Off ch=3 n=13 v=0
2350659 On ch=3 n=12 v=100
2350663 Off ch=3 n=33 v=0
2350672 Off ch=3 n=48 v=0
2350978 Off ch=3 n=12 v=0
2350980 On ch=3 n=6 v=100
2351488 On ch=3 n=9 v=100
2351490 Off ch=3 n=6 v=0
2351785 Off ch=3 n=9 v=0
2351788 On ch=3 n=13 v=100
2351844 Off ch=3 n=13 v=0
2351856 On ch=3 n=11 v=100
2352179 On ch=3 n=16 v=100
2352185 Off ch=3 n=11 v=0
2352348 Off ch=3 n=16 v=0
2352433 On ch=3 n=18 v=100
2352888 Off ch=3 n=18 v=0
2353868 On ch=3 n=23 v=100
2353869 On ch=3 n=23 v=100
2353910 Off ch=3 n=23 v=0
2353922 Off ch=3 n=23 v=0
2354001 On ch=3 n=36 v=100
2354001 On ch=3 n=36 v=100
2354217 On ch=3 n=15 v=100
2354225 On ch=3 n=24 v=100
2354645 Off ch=3 n=15 v=0
2354745 Off ch=3 n=36 v=0
2354745 Off ch=3 n=36 v=0
2354763 On ch=3 n=18 v=100
2354769 Off ch=3 n=24 v=0
2355719 Off ch=3 n=18 v=0
2356915 On ch=3 n=37 v=100
2357074 Off ch=3 n=37 v=0
2357159 On ch=3 n=37 v=100
2357406 Off ch=3 n=37 v=0
2358205 On ch=3 n=8 v=100
2358431 Off ch=3 n=8 v=0
2359769 On ch=3 n=8 v=100
2360924 Off ch=3 n=8 v=0
2361936 On ch=3 n=14 v=100
2361970 On ch=3 n=18 v=100
2361970 On ch=3 n=18 v=100
2361986 On ch=3 n=7 v=100
2362298 On ch=3 n=19 v=100
2362298 Off ch=3 n=14 v=0
2362299 Off ch=3 n=7 v=0
2362436 Off ch=3 n=18 v=0
2362436 Off ch=3 n=18 v=0
2362510 Off ch=3 n=19 v=0
2362588 On ch=3 n=19 v=100
2362666 Off ch=3 n=19 v=0
2363492 On ch=3 n=5 v=100
2363509 On ch=3 n=58 v=100
2363885 On ch=3 n=7 v=100
2363887 Off ch=3 n=5 v=0
2364578 Off ch=3 n=58 v=0
2364625 On ch=3 n=7 v=100
2364627 Off ch=3 n=7 v=0
2364881 On ch=3 n=9 v=100
2364881 Off ch=3 n=7 v=0
2364939 Off ch=3 n=9 v=0
2364959 On ch=3 n=19 v=100
2365113 Off ch=3 n=19 v=0
2365117 On ch=3 n=10 v=100
2365176 On ch=3 n=28 v=100
2365344 Off ch=3 n=10 v=0
2365513 Off ch=3 n=28 v=0
2366813 On ch=3 n=26 v=100
2366830 On ch=3 n=36 v=100
2366830 On ch=3 n=36 v=100
2366906 On ch=3 n=17 v=100
2366954 On ch=3 n=13 v=100
2366954 On ch=3 n=26 v=100
2367318 Off ch=3 n=17 v=0
2367322 Off ch=3 n=26 v=0
2367323 Off ch=3 n=13 v=0
2367398 Off ch=3 n=36 v=0
2367398 Off ch=3 n=36 v=0
2367458 Off ch=3 n=26 v=0
2367640 On ch=3 n=10 v=100
2368108 Off ch=3 n=10 v=0
2368502 On ch=3 n=41 v=100
2368536 On ch=3 n=10 v=100
2368594 Off ch=3 n=41 v=0
2368744 Off ch=3 n=10 v=0
2369052 On ch=3 n=42 v=100
2369171 On ch=3 n=17 v=100
2369217 On ch=3 n=14 v=100
2369402 Off ch=3 n=42 v=0
2369404 Off ch=3 n=14 v=0
2369405 Off ch=3 n=17 v=0
2369601 On ch=3 n=9 v=100
2370224 On ch=3 n=10 v=100
2370237 Off ch=3 n=9 v=0
2371342 Off ch=3 n=10 v=0
2371386 On ch=3 n=11 v=100
2371785 On ch=3 n=37 v=100
2371904 Off ch=3 n=11 v=0
2371919 Off ch=3 n=37 v=0
2373315 On ch=3 n=10 v=100
2373605 On ch=3 n=27 v=100
2373714 On ch=3 n=22 v=100
2373714 On ch=3 n=22 v=100
2373748 On ch=3 n=17 v=100
2373783 Off ch=3 n=10 v=0
2374099 Off ch=3 n=27 v=0
2374230 Off ch=3 n=17 v=0
2374339 Off ch=3 n=22 v=0
2374339 Off ch=3 n=22 v=0
2374365 On ch=3 n=14 v=100
2374657 Off ch=3 n=14 v=0
2374904 On ch=3 n=17 v=100
2375118 Off ch=3 n=17 v=0
2375825 On ch=3 n=6 v=100
2377247 Off ch=3 n=6 v=0
2381044 On ch=3 n=36 v=100
2381138 Off ch=3 n=36 v=0
2381191 On ch=3 n=13 v=100
2381926 Off ch=3 n=13 v=0
2382239 On ch=3 n=35 v=100
2382390 Off ch=3 n=35 v=0
2382473 On ch=3 n=44 v=100
2382653 Off ch=3 n=44 v=0
2383069 On ch=3 n=13 v=100
2383361 Off ch=3 n=13 v=0
2383515 On ch=3 n=13 v=100
2383762 Off ch=3 n=13 v=0
2383771 On ch=3 n=13 v=100
2384061 Off ch=3 n=13 v=0
2384101 On ch=3 n=32 v=100
2384111 Off ch=3 n=32 v=0
2384200 On ch=3 n=32 v=100
2384200 On ch=3 n=32 v=100
2384236 On ch=3 n=7 v=100
2384467 On ch=3 n=18 v=100
2384469 On ch=3 n=13 v=100
2384470 Off ch=3 n=7 v=0
2384492 On ch=3 n=13 v=100
2384650 Off ch=3 n=13 v=0
2384680 Off ch=3 n=13 v=0
2384686 Off ch=3 n=32 v=0
2384686 Off ch=3 n=32 v=0
2384687 Off ch=3 n=18 v=0
2384692 On ch=3 n=8 v=100
2384798 On ch=3 n=14 v=100
2384803 Off ch=3 n=8 v=0
2384941 Off ch=3 n=14 v=0
2384956 On ch=3 n=18 v=100
2385304 Off ch=3 n=18 v=0
2387258 On ch=3 n=19 v=100
2387655 Off ch=3 n=19 v=0
2387700 On ch=3 n=9 v=100
2388153 Off ch=3 n=9 v=0
2388157 On ch=3 n=11 v=100
2388305 On ch=3 n=20 v=100
2388309 Off ch=3 n=11 v=0
2388379 Off ch=3 n=20 v=0
2388384 On ch=3 n=8 v=100
2388971 Off ch=3 n=8 v=0
2389064 On ch=3 n=17 v=100
2389278 Off ch=3 n=17 v=0
2389974 On ch=3 n=8 v=100
2390295 On ch=3 n=16 v=100
2390299 Off ch=3 n=8 v=0
2390526 Off ch=3 n=16 v=0
2390814 On ch=3 n=7 v=100
2391411 Off ch=3 n=7 v=0
2391441 On ch=3 n=27 v=100
2391512 On ch=3 n=18 v=100
2391595 On ch=3 n=10 v=100
2391731 On ch=3 n=27 v=100
2391731 On ch=3 n=27 v=100
2391751 On ch=3 n=25 v=100
2391950 Off ch=3 n=27 v=0
2391955 Off ch=3 n=18 v=0
2391961 Off ch=3 n=10 v=0
2391973 On ch=3 n=16 v=100
2391979 On ch=3 n=25 v=100
2392003 Off ch=3 n=25 v=0
2392068 Off ch=3 n=27 v=0
2392068 Off ch=3 n=27 v=0
2392113 Off ch=3 n=16 v=0
2392159 Off ch=3 n=25 v=0
2392170 On ch=3 n=21 v=100
2392420 On ch=3 n=18 v=100
2392471 Off ch=3 n=21 v=0
2392822 Off ch=3 n=18 v=0
2392883 On ch=3 n=18 v=100
2393294 Off ch=3 n=18 v=0
2394317 On ch=3 n=12 v=100
2394493 Off ch=3 n=12 v=0
2394519 On ch=3 n=15 v=100
2394652 On ch=3 n=13 v=100
2394653 Off ch=3 n=15 v=0
2394660 On ch=3 n=14 v=100
2394706 Off ch=3 n=13 v=0
2395561 Off ch=3 n=14 v=0
2396418 On ch=3 n=12 v=100
2396605 On ch=3 n=21 v=100
2396607 Off ch=3 n=12 v=0
2396673 Off ch=3 n=21 v=0
2396684 On ch=3 n=15 v=100
2396845 Off ch=3 n=15 v=0
2398050 On ch=3 n=11 v=100
2398221 Off ch=3 n=11 v=0
2398232 On ch=3 n=15 v=100
2398447 On ch=3 n=8 v=100
2398454 Off ch=3 n=15 v=0
2399271 Off ch=3 n=8 v=0
2399274 On ch=3 n=11 v=100
2399590 On ch=3 n=9 v=100
2399612 Off ch=3 n=11 v=0
2400217 On ch=3 n=26 v=100
2400253 Off ch=3 n=9 v=0
2400256 On ch=3 n=16 v=100
2400315 On ch=3 n=16 v=100
2400404 Off ch=3 n=26 v=0
2400476 Off ch=3 n=16 v=0
2400507 Off ch=3 n=16 v=0
2401655 On ch=3 n=5 v=100
2401735 Off ch=3 n=5 v=0
2402511 On ch=3 n=27 v=100
2402613 On ch=3 n=13 v=100
2402766 On ch=3 n=24 v=100
2402795 On ch=3 n=14 v=100
2402888 Off ch=3 n=27 v=0
2402891 Off ch=3 n=13 v=0
2402891 Off ch=3 n=24 v=0
2402891 Off ch=3 n=14 v=0
2402933 On ch=3 n=13 v=100
2402933 On ch=3 n=14 v=100
2402933 On ch=3 n=24 v=100
2402995 Off ch=3 n=13 v=0
2403015 Off ch=3 n=14 v=0
2403077 Off ch=3 n=24 v=0
2405892 On ch=3 n=42 v=100
2406057 Off ch=3 n=42 v=0
2406567 On ch=3 n=31 v=100
2406627 Off ch=3 n=31 v=0
2406638 On ch=3 n=26 v=100
2406875 Off ch=3 n=26 v=0
2406928 On ch=3 n=23 v=100
2407059 On ch=3 n=18 v=100
2407376 On ch=3 n=18 v=100
2407395 Off ch=3 n=23 v=0
2407439 Off ch=3 n=18 v=0
2407962 Off ch=3 n=18 v=0
2408107 On ch=3 n=28 v=100
2408127 On ch=3 n=31 v=100
2408130 On ch=3 n=14 v=100
2408133 On ch=3 n=33 v=100
2408267 Off ch=3 n=28 v=0
2408356 Off ch=3 n=14 v=0
2408426 Off ch=3 n=33 v=0
2408563 Off ch=3 n=31 v=0
2408898 On ch=3 n=31 v=100
2409128 On ch=3 n=53 v=100
2409128 On ch=3 n=15 v=100
2409139 Off ch=3 n=31 v=0
2409270 Off ch=3 n=15 v=0
2409280 On ch=3 n=7 v=100
2409318 Off ch=3 n=53 v=0
2409329 On ch=3 n=12 v=100
2409337 Off ch=3 n=7 v=0
2409649 Off ch=3 n=12 v=0
2410263 On ch=3 n=19 v=100
2410422 On ch=3 n=10 v=100
2410531 Off ch=3 n=19 v=0
2410871 On ch=3 n=30 v=100
2410910 Off ch=3 n=10 v=0
2410910 Off ch=3 n=30 v=0
2410981 On ch=3 n=30 v=100
2411031 Off ch=3 n=30 v=0
2413455 On ch=3 n=11 v=100
2413723 Off ch=3 n=11 v=0
2413765 On ch=3 n=24 v=100
2413788 On ch=3 n=19 v=100
2413919 Off ch=3 n=24 v=0
2414010 Off ch=3 n=19 v=0
2414014 On ch=3 n=10 v=100
2414406 Off ch=3 n=10 v=0
2414409 On ch=3 n=16 v=100
2414525 On ch=3 n=26 v=100
2414534 On ch=3 n=8 v=100
2414534 Off ch=3 n=16 v=0
2415026 Off ch=3 n=8 v=0
2415045 On ch=3 n=12 v=100
2415300 Off ch=3 n=26 v=0
2415545 Off ch=3 n=12 v=0
2415570 On ch=3 n=14 v=100
2415831 Off ch=3 n=14 v=0
2415832 On ch=3 n=24 v=100
2415953 On ch=3 n=28 v=100
2415985 Off ch=3 n=24 v=0
2416011 On ch=3 n=12 v=100
2416011 On ch=3 n=12 v=100
2416070 On ch=3 n=19 v=100
2416202 Off ch=3 n=28 v=0
2416259 On ch=3 n=32 v=100
2416259 On ch=3 n=32 v=100
2416392 Off ch=3 n=12 v=0
2416392 Off ch=3 n=12 v=0
2416458 Off ch=3 n=19 v=0
2416514 Off ch=3 n=32 v=0
2416514 Off ch=3 n=32 v=0
2416918 On ch=3 n=32 v=100
2417015 Off ch=3 n=32 v=0
2417878 On ch=3 n=28 v=100
2418043 Off ch=3 n=28 v=0
2418098 On ch=3 n=28 v=100
2418150 On ch=3 n=18 v=100
2418261 Off ch=3 n=28 v=0
2418261 Off ch=3 n=18 v=0
2418424 On ch=3 n=28 v=100
2418433 Off ch=3 n=28 v=0
2418507 On ch=3 n=18 v=100
2418507 On ch=3 n=28 v=100
2418508 On ch=3 n=9 v=100
2418803 Off ch=3 n=18 v=0
2418815 Off ch=3 n=9 v=0
2418848 On ch=3 n=37 v=100
2418862 Off ch=3 n=28 v=0
2419335 Off ch=3 n=37 v=0
2420480 On ch=3 n=13 v=100
2421228 Off ch=3 n=13 v=0
2421289 On ch=3 n=31 v=100
2421413 Off ch=3 n=31 v=0
2424351 On ch=3 n=16 v=100
2424485 On ch=3 n=10 v=100
2424486 Off ch=3 n=16 v=0
2425430 Off ch=3 n=10 v=0
2425518 On ch=3 n=8 v=100
2425734 Off ch=3 n=8 v=0
2426199 On ch=3 n=31 v=100
2426256 Off ch=3 n=31 v=0
2426407 On ch=3 n=36 v=100
2426644 Off ch=3 n=36 v=0
2428964 On ch=3 n=7 v=100
2429094 Off ch=3 n=7 v=0
2429800 On ch=3 n=48 v=100
2431239 Off ch=3 n=48 v=0
2432875 On ch=3 n=10 v=100
2433448 On ch=3 n=21 v=100
2433775 On ch=3 n=21 v=100
2433775 On ch=3 n=21 v=100
2433823 On ch=3 n=15 v=100
2433912 Off ch=3 n=10 v=0
2434188 Off ch=3 n=21 v=0
2434208 On ch=3 n=30 v=100
2434334 Off ch=3 n=15 v=0
2434347 Off ch=3 n=21 v=0
2434347 Off ch=3 n=21 v=0
2434656 On ch=3 n=12 v=100
2434657 Off ch=3 n=30 v=0
2435503 Off ch=3 n=12 v=0
2435772 On ch=3 n=12 v=100
2436049 Off ch=3 n=12 v=0
2436068 On ch=3 n=28 v=100
2436112 Off ch=3 n=28 v=0
2442154 On ch=3 n=17 v=100
2442287 Off ch=3 n=17 v=0
2443556 On ch=3 n=15 v=100
2443653 On ch=3 n=13 v=100
2444011 Off ch=3 n=15 v=0
2444063 Off ch=3 n=13 v=0
2444335 On ch=3 n=31 v=100
2444441 On ch=3 n=13 v=100
2444475 On ch=3 n=15 v=100
2444756 Off ch=3 n=31 v=0
2444768 Off ch=3 n=13 v=0
2444768 Off ch=3 n=15 v=0
2444821 On ch=3 n=13 v=100
2444821 On ch=3 n=15 v=100
2444845 Off ch=3 n=13 v=0
2444883 Off ch=3 n=15 v=0
2445625 On ch=3 n=4 v=100
2445804 On ch=3 n=8 v=100
2445804 Off ch=3 n=4 v=0
2446572 Off ch=3 n=8 v=0
2446856 On ch=3 n=20 v=100
2446969 Off ch=3 n=20 v=0
2449327 On ch=3 n=10 v=100
2449482 On ch=3 n=42 v=100
2449567 On ch=3 n=17 v=100
2449595 On ch=3 n=8 v=100
2449595 Off ch=3 n=10 v=0
2449711 On ch=3 n=9 v=100
2449712 Off ch=3 n=42 v=0
2449712 Off ch=3 n=17 v=0
2449712 Off ch=3 n=8 v=0
2450777 Off ch=3 n=9 v=0
2450778 On ch=3 n=11 v=100
2451402 On ch=3 n=10 v=100
2451405 Off ch=3 n=11 v=0
2451714 Off ch=3 n=10 v=0
2451718 On ch=3 n=11 v=100
2451719 On ch=3 n=24 v=100
2451791 Off ch=3 n=11 v=0
2451847 Off ch=3 n=24 v=0
2451849 On ch=3 n=23 v=100
2451851 On ch=3 n=39 v=100
2451851 On ch=3 n=22 v=100
2451961 Off ch=3 n=22 v=0
2451976 Off ch=3 n=23 v=0
2451981 On ch=3 n=20 v=100
2452122 Off ch=3 n=39 v=0
2452340 Off ch=3 n=20 v=0
2452427 On ch=3 n=28 v=100
2452464 On ch=3 n=28 v=100
2452464 On ch=3 n=28 v=100
2452481 On ch=3 n=21 v=100
2452481 On ch=3 n=21 v=100
2452497 On ch=3 n=17 v=100
2452497 On ch=3 n=17 v=100
2452781 On ch=3 n=21 v=100
2452820 On ch=3 n=19 v=100
2452820 On ch=3 n=19 v=100
2452858 Off ch=3 n=17 v=0
2452858 Off ch=3 n=17 v=0
2452880 Off ch=3 n=28 v=0
2452895 Off ch=3 n=21 v=0
2452895 Off ch=3 n=21 v=0
2452909 On ch=3 n=16 v=100
2452909 On ch=3 n=16 v=100
2452958 On ch=3 n=20 v=100
2452996 Off ch=3 n=28 v=0
2452996 Off ch=3 n=28 v=0
2453025 Off ch=3 n=21 v=0
2453336 Off ch=3 n=16 v=0
2453336 Off ch=3 n=16 v=0
2453341 Off ch=3 n=19 v=0
2453341 Off ch=3 n=19 v=0
2453505 Off ch=3 n=20 v=0
2454277 On ch=3 n=8 v=100
2455611 Off ch=3 n=8 v=0
2456865 On ch=3 n=15 v=100
2456927 On ch=3 n=10 v=100
2456936 Off ch=3 n=15 v=0
2456977 Off ch=3 n=10 v=0
2458394 On ch=3 n=21 v=100
2458468 Off ch=3 n=21 v=0
2458470 On ch=3 n=11 v=100
2459149 Off ch=3 n=11 v=0
2459578 On ch=3 n=28 v=100
2459645 On ch=3 n=24 v=100
2459698 Off ch=3 n=28 v=0
2459867 Off ch=3 n=24 v=0
2459872 On ch=3 n=8 v=100
2461098 Off ch=3 n=8 v=0
2461123 On ch=3 n=26 v=100
2461242 Off ch=3 n=26 v=0
2461260 On ch=3 n=24 v=100
2461803 Off ch=3 n=24 v=0
2462242 On ch=3 n=5 v=100
2462394 Off ch=3 n=5 v=0
2462396 On ch=3 n=4 v=100
2462434 Off ch=3 n=4 v=0
2463296 On ch=3 n=6 v=100
2463985 Off ch=3 n=6 v=0
2464878 On ch=3 n=51 v=100
2464992 On ch=3 n=10 v=100
2465174 Off ch=3 n=51 v=0
2465594 Off ch=3 n=10 v=0
2465647 On ch=3 n=10 v=100
2465930 On ch=3 n=15 v=100
2465935 Off ch=3 n=10 v=0
2465943 Off ch=3 n=15 v=0
2465979 On ch=3 n=15 v=100
2466207 Off ch=3 n=15 v=0
2466565 On ch=3 n=24 v=100
2466693 Off ch=3 n=24 v=0
2466789 On ch=3 n=40 v=100
2466865 Off ch=3 n=40 v=0
2466929 On ch=3 n=33 v=100
2467026 Off ch=3 n=33 v=0
2467051 On ch=3 n=14 v=100
2467500 Off ch=3 n=14 v=0
2467506 On ch=3 n=12 v=100
2467581 Off ch=3 n=12 v=0
2468821 On ch=3 n=9 v=100
2469278 Off ch=3 n=9 v=0
2469654 On ch=3 n=14 v=100
2469669 On ch=3 n=6 v=100
2469746 Off ch=3 n=14 v=0
2470442 Off ch=3 n=6 v=0
2470446 On ch=3 n=8 v=100
2470738 Off ch=3 n=8 v=0
2472253 On ch=3 n=30 v=100
2472330 On ch=3 n=31 v=100
2472409 On ch=3 n=29 v=100
2472495 On ch=3 n=17 v=100
2472503 On ch=3 n=23 v=100
2472509 On ch=3 n=26 v=100
2472754 Off ch=3 n=30 v=0
2472806 Off ch=3 n=29 v=0
2472824 Off ch=3 n=31 v=0
2472856 Off ch=3 n=17 v=0
2472965 Off ch=3 n=23 v=0
2473030 Off ch=3 n=26 v=0
2473237 On ch=3 n=14 v=100
2473396 On ch=3 n=28 v=100
2473421 Off ch=3 n=14 v=0
2474236 Off ch=3 n=28 v=0
2474521 On ch=3 n=24 v=100
2474597 On ch=3 n=11 v=100
2474704 Off ch=3 n=24 v=0
2474704 Off ch=3 n=11 v=0
2475506 On ch=3 n=26 v=100
2475528 On ch=3 n=23 v=100
2475649 On ch=3 n=27 v=100
2476013 Off ch=3 n=26 v=0
2476076 Off ch=3 n=23 v=0
2476224 Off ch=3 n=27 v=0
2476568 On ch=3 n=17 v=100
2476657 Off ch=3 n=17 v=0
2476662 On ch=3 n=7 v=100
2476921 Off ch=3 n=7 v=0
2476930 On ch=3 n=12 v=100
2477087 Off ch=3 n=12 v=0
2477401 On ch=3 n=34 v=100
2477415 On ch=3 n=54 v=100
2477415 On ch=3 n=54 v=100
2477441 On ch=3 n=17 v=100
2477528 Off ch=3 n=34 v=0
2477575 Off ch=3 n=17 v=0
2477580 On ch=3 n=25 v=100
2477732 On ch=3 n=10 v=100
2477904 On ch=3 n=17 v=100
2477924 Off ch=3 n=10 v=0
2477929 Off ch=3 n=54 v=0
2477929 Off ch=3 n=54 v=0
2477930 Off ch=3 n=25 v=0
2478350 Off ch=3 n=17 v=0
2478443 On ch=3 n=10 v=100
2478501 Off ch=3 n=10 v=0
2479137 On ch=3 n=16 v=100
2479240 Off ch=3 n=16 v=0
2480122 On ch=3 n=36 v=100
2480224 Off ch=3 n=36 v=0
2481017 On ch=3 n=40 v=100
2481224 Off ch=3 n=40 v=0
2481513 On ch=3 n=29 v=100
2481513 On ch=3 n=29 v=100
2481568 On ch=3 n=18 v=100
2481612 On ch=3 n=22 v=100
2481771 Off ch=3 n=18 v=0
2481785 Off ch=3 n=29 v=0
2481785 Off ch=3 n=29 v=0
2481807 On ch=3 n=13 v=100
2481807 Off ch=3 n=22 v=0
2481856 Off ch=3 n=13 v=0
2481862 On ch=3 n=11 v=100
2482139 Off ch=3 n=11 v=0
2482185 On ch=3 n=11 v=100
2482812 Off ch=3 n=11 v=0
2482815 On ch=3 n=7 v=100
2482875 Off ch=3 n=7 v=0
2483343 On ch=3 n=14 v=100
2483579 Off ch=3 n=14 v=0
2484450 On ch=3 n=16 v=100
2484738 Off ch=3 n=16 v=0
2484805 On ch=3 n=16 v=100
2484829 On ch=3 n=35 v=100
2484829 On ch=3 n=35 v=100
2484892 On ch=3 n=18 v=100
2484899 Off ch=3 n=16 v=0
2485002 On ch=3 n=10 v=100
2485006 On ch=3 n=18 v=100
2485023 On ch=3 n=25 v=100
2485023 On ch=3 n=25 v=100
2485071 On ch=3 n=14 v=100
2485439 Off ch=3 n=18 v=0
2485490 Off ch=3 n=10 v=0
2485535 Off ch=3 n=35 v=0
2485535 Off ch=3 n=35 v=0
2485541 Off ch=3 n=14 v=0
2485580 Off ch=3 n=18 v=0
2485692 Off ch=3 n=25 v=0
2485692 Off ch=3 n=25 v=0
2486444 On ch=3 n=4 v=100
2486792 Off ch=3 n=4 v=0
2487818 On ch=3 n=26 v=100
2487947 Off ch=3 n=26 v=0
2487984 On ch=3 n=17 v=100
2488908 Off ch=3 n=17 v=0
2489197 On ch=3 n=36 v=100
2489228 On ch=3 n=28 v=100
2489282 Off ch=3 n=36 v=0
2489320 On ch=3 n=55 v=100
2489349 Off ch=3 n=28 v=0
2489508 Off ch=3 n=55 v=0
2491036 On ch=3 n=34 v=100
2491540 On ch=3 n=19 v=100
2491543 On ch=3 n=8 v=100
2491882 Off ch=3 n=34 v=0
2491941 Off ch=3 n=8 v=0
2491969 On ch=3 n=13 v=100
2491999 Off ch=3 n=19 v=0
2492308 Off ch=3 n=13 v=0
2492317 On ch=3 n=10 v=100
2492939 On ch=3 n=35 v=100
2492971 Off ch=3 n=10 v=0
2492980 Off ch=3 n=35 v=0
2495230 On ch=3 n=9 v=100
2496618 On ch=3 n=38 v=100
2496633 Off ch=3 n=9 v=0
2496800 On ch=3 n=19 v=100
2497059 Off ch=3 n=38 v=0
2497077 Off ch=3 n=19 v=0
2497082 On ch=3 n=18 v=100
2497160 On ch=3 n=6 v=100
2497789 Off ch=3 n=6 v=0
2497795 Off ch=3 n=18 v=0
2499689 On ch=3 n=47 v=100
2499795 Off ch=3 n=47 v=0
2500098 On ch=3 n=32 v=100
2500144 On ch=3 n=36 v=100
2500147 On ch=3 n=33 v=100
2500248 Off ch=3 n=33 v=0
2500252 Off ch=3 n=32 v=0
2500271 Off ch=3 n=36 v=0
2501236 On ch=3 n=43 v=100
2501304 Off ch=3 n=43 v=0
2501334 On ch=3 n=7 v=100
2501350 On ch=3 n=30 v=100
2501414 On ch=3 n=10 v=100
2501569 Off ch=3 n=7 v=0
2501723 Off ch=3 n=30 v=0
2501724 Off ch=3 n=10 v=0
2501774 On ch=3 n=13 v=100
2502773 Off ch=3 n=13 v=0
2502776 On ch=3 n=6 v=100
2502809 Off ch=3 n=6 v=0
2502927 On ch=3 n=13 v=100
2502930 On ch=3 n=18 v=100
2502998 On ch=3 n=17 v=100
2503359 Off ch=3 n=13 v=0
2503462 Off ch=3 n=18 v=0
2503481 Off ch=3 n=17 v=0
2504752 On ch=3 n=15 v=100
2504778 On ch=3 n=12 v=100
2504887 Off ch=3 n=15 v=0
2504887 Off ch=3 n=12 v=0
2504888 On ch=3 n=13 v=100
2504954 On ch=3 n=18 v=100
2504961 Off ch=3 n=13 v=0
2505016 On ch=3 n=8 v=100
2505078 Off ch=3 n=8 v=0
2505079 Off ch=3 n=18 v=0
2505081 On ch=3 n=14 v=100
2505259 Off ch=3 n=14 v=0
2505260 On ch=3 n=6 v=100
2505375 On ch=3 n=23 v=100
2505493 Off ch=3 n=6 v=0
2505502 On ch=3 n=20 v=100
2505529 Off ch=3 n=23 v=0
2505756 Off ch=3 n=20 v=0
2505800 On ch=3 n=13 v=100
2506132 Off ch=3 n=13 v=0
2506460 On ch=3 n=43 v=100
2506627 On ch=3 n=31 v=100
2506636 On ch=3 n=36 v=100
2506699 Off ch=3 n=31 v=0
2506706 Off ch=3 n=43 v=0
2506708 Off ch=3 n=36 v=0
2507408 On ch=3 n=47 v=100
2507417 On ch=3 n=41 v=100
2507481 Off ch=3 n=41 v=0
2507484 Off ch=3 n=47 v=0
2507875 On ch=3 n=13 v=100
2507932 Off ch=3 n=13 v=0
2508018 On ch=3 n=13 v=100
2508818 On ch=3 n=38 v=100
2508946 On ch=3 n=18 v=100
2508951 Off ch=3 n=13 v=0
2509091 Off ch=3 n=38 v=0
2509091 Off ch=3 n=18 v=0
2509140 On ch=3 n=31 v=100
2509200 Off ch=3 n=31 v=0
2509544 On ch=3 n=33 v=100
2509588 On ch=3 n=16 v=100
2509650 Off ch=3 n=33 v=0
2509771 Off ch=3 n=16 v=0
2509785 On ch=3 n=19 v=100
2509821 Off ch=3 n=19 v=0
2509917 On ch=3 n=19 v=100
2510444 Off ch=3 n=19 v=0
2511433 On ch=3 n=38 v=100
2511629 Off ch=3 n=38 v=0
2511646 On ch=3 n=6 v=100
2511985 Off ch=3 n=6 v=0
2513503 On ch=3 n=33 v=100
2513836 On ch=3 n=19 v=100
2513877 Off ch=3 n=33 v=0
2513896 On ch=3 n=9 v=100
2514006 On ch=3 n=13 v=100
2514078 Off ch=3 n=19 v=0
2515048 Off ch=3 n=9 v=0
2515072 On ch=3 n=10 v=100
2515220 Off ch=3 n=13 v=0
2515306 On ch=3 n=16 v=100
2515306 On ch=3 n=40 v=100
2515306 Off ch=3 n=10 v=0
2515347 On ch=3 n=21 v=100
2515350 Off ch=3 n=16 v=0
2515406 Off ch=3 n=40 v=0
2515456 Off ch=3 n=21 v=0
2515485 On ch=3 n=11 v=100
2515611 On ch=3 n=11 v=100
2515612 Off ch=3 n=11 v=0
2515815 Off ch=3 n=11 v=0
2515871 On ch=3 n=11 v=100
2516365 Off ch=3 n=11 v=0
2516372 On ch=3 n=23 v=100
2517049 Off ch=3 n=23 v=0
2517835 On ch=3 n=12 v=100
2517967 Off ch=3 n=12 v=0
2517989 On ch=3 n=13 v=100
2518210 Off ch=3 n=13 v=0
2518218 On ch=3 n=8 v=100
2518437 Off ch=3 n=8 v=0
2519621 On ch=3 n=23 v=100
2519895 On ch=3 n=26 v=100
2520023 On ch=3 n=6 v=100
2520023 Off ch=3 n=23 v=0
2520043 Off ch=3 n=26 v=0
2520082 Off ch=3 n=6 v=0
2520086 On ch=3 n=8 v=100
2520205 Off ch=3 n=8 v=0
2520219 On ch=3 n=7 v=100
2520321 On ch=3 n=23 v=100
2520701 Off ch=3 n=7 v=0
2520944 Off ch=3 n=23 v=0
2520959 On ch=3 n=9 v=100
2521064 Off ch=3 n=9 v=0
2521074 On ch=3 n=9 v=100
2521270 Off ch=3 n=9 v=0
2521288 On ch=3 n=32 v=100
2521344 Off ch=3 n=32 v=0
2521724 On ch=3 n=8 v=100
2521970 On ch=3 n=15 v=100
2521970 Off ch=3 n=8 v=0
2522126 On ch=3 n=23 v=100
2522138 Off ch=3 n=15 v=0
2522199 On ch=3 n=37 v=100
2522207 On ch=3 n=22 v=100
2522230 On ch=3 n=23 v=100
2522368 Off ch=3 n=23 v=0
2522372 On ch=3 n=30 v=100
2522395 Off ch=3 n=22 v=0
2522430 Off ch=3 n=23 v=0
2522480 Off ch=3 n=37 v=0
2522506 Off ch=3 n=30 v=0
2522536 On ch=3 n=6 v=100
2522649 Off ch=3 n=6 v=0
2523991 On ch=3 n=34 v=100
2524414 Off ch=3 n=34 v=0
2524415 On ch=3 n=9 v=100
2524863 Off ch=3 n=9 v=0
2524884 On ch=3 n=12 v=100
2524925 On ch=3 n=35 v=100
2524927 Off ch=3 n=12 v=0
2525034 On ch=3 n=29 v=100
2525035 On ch=3 n=35 v=100
2525082 Off ch=3 n=35 v=0
2525112 Off ch=3 n=35 v=0
2525129 Off ch=3 n=29 v=0
2525208 On ch=3 n=11 v=100
2525366 Off ch=3 n=11 v=0
2526888 On ch=3 n=27 v=100
2526908 On ch=3 n=19 v=100
2527046 Off ch=3 n=27 v=0
2527091 Off ch=3 n=19 v=0
2527098 On ch=3 n=10 v=100
2527776 Off ch=3 n=10 v=0
2527778 On ch=3 n=8 v=100
2528030 Off ch=3 n=8 v=0
2528430 On ch=3 n=21 v=100
2528659 On ch=3 n=18 v=100
2528665 Off ch=3 n=21 v=0
2529189 Off ch=3 n=18 v=0
2529708 On ch=3 n=34 v=100
2529747 On ch=3 n=39 v=100
2529793 On ch=3 n=27 v=100
2529960 Off ch=3 n=39 v=0
2529961 Off ch=3 n=27 v=0
2529962 Off ch=3 n=34 v=0
2530214 On ch=3 n=21 v=100
2530473 Off ch=3 n=21 v=0
2530579 On ch=3 n=10 v=100
2531370 Off ch=3 n=10 v=0
2531482 On ch=3 n=10 v=100
2531522 Off ch=3 n=10 v=0
2532645 On ch=3 n=15 v=100
2532814 On ch=3 n=7 v=100
2533016 Off ch=3 n=15 v=0
2534036 Off ch=3 n=7 v=0
2537004 On ch=3 n=7 v=100
2537022 On ch=3 n=29 v=100
2537232 Off ch=3 n=7 v=0
2537399 Off ch=3 n=29 v=0
2537699 On ch=3 n=39 v=100
2537953 Off ch=3 n=39 v=0
2537958 On ch=3 n=8 v=100
2538041 Off ch=3 n=8 v=0
2538046 On ch=3 n=31 v=100
2538386 Off ch=3 n=31 v=0
2538956 On ch=3 n=11 v=100
2539072 On ch=3 n=15 v=100
2539178 Off ch=3 n=11 v=0
2539221 On ch=3 n=31 v=100
2539228 Off ch=3 n=15 v=0
2539245 On ch=3 n=59 v=100
2539247 On ch=3 n=23 v=100
2539285 On ch=3 n=69 v=100
2539436 Off ch=3 n=23 v=0
2539447 Off ch=3 n=31 v=0
2539478 Off ch=3 n=59 v=0
2539645 On ch=3 n=30 v=100
2539646 Off ch=3 n=69 v=0
2539800 On ch=3 n=15 v=100
2539827 Off ch=3 n=30 v=0
2540091 Off ch=3 n=15 v=0
2540133 On ch=3 n=14 v=100
2540306 On ch=3 n=12 v=100
2540306 On ch=3 n=30 v=100
2540308 Off ch=3 n=14 v=0
2540478 On ch=3 n=31 v=100
2540478 Off ch=3 n=12 v=0
2540513 Off ch=3 n=30 v=0
2540523 Off ch=3 n=31 v=0
2541735 On ch=3 n=50 v=100
2541799 On ch=3 n=10 v=100
2542056 Off ch=3 n=50 v=0
2542882 Off ch=3 n=10 v=0
2543048 On ch=3 n=19 v=100
2543392 Off ch=3 n=19 v=0
2543486 On ch=3 n=19 v=100
2543665 Off ch=3 n=19 v=0
2546515 On ch=3 n=13 v=100
2546706 On ch=3 n=28 v=100
2546730 Off ch=3 n=13 v=0
2546777 On ch=3 n=25 v=100
2546794 On ch=3 n=27 v=100
2546868 On ch=3 n=21 v=100
2546952 On ch=3 n=17 v=100
2547097 Off ch=3 n=28 v=0
2547097 Off ch=3 n=25 v=0
2547097 Off ch=3 n=27 v=0
2547097 Off ch=3 n=21 v=0
2547097 Off ch=3 n=17 v=0
2547139 On ch=3 n=21 v=100
2547308 Off ch=3 n=21 v=0
2547421 On ch=3 n=25 v=100
2547421 On ch=3 n=17 v=100
2547421 On ch=3 n=37 v=100
2547432 Off ch=3 n=25 v=0
2547488 Off ch=3 n=17 v=0
2547512 Off ch=3 n=37 v=0
2548731 On ch=3 n=33 v=100
2548895 Off ch=3 n=33 v=0
2549196 On ch=3 n=34 v=100
2549265 Off ch=3 n=34 v=0
2549384 On ch=3 n=14 v=100
2549739 On ch=3 n=39 v=100
2549859 Off ch=3 n=14 v=0
2549866 On ch=3 n=4 v=100
2549904 On ch=3 n=10 v=100
2549954 Off ch=3 n=39 v=0
2549954 Off ch=3 n=4 v=0
2549954 Off ch=3 n=10 v=0
2550060 On ch=3 n=10 v=100
2550061 On ch=3 n=7 v=100
2550492 Off ch=3 n=10 v=0
2550582 Off ch=3 n=7 v=0
2550652 On ch=3 n=3 v=100
2550806 On ch=3 n=16 v=100
2550835 Off ch=3 n=3 v=0
2551134 Off ch=3 n=16 v=0
2553338 On ch=3 n=15 v=100
2553338 On ch=3 n=21 v=100
2553389 On ch=3 n=19 v=100
2553511 Off ch=3 n=15 v=0
2553555 Off ch=3 n=21 v=0
2553569 Off ch=3 n=19 v=0
2553582 On ch=3 n=46 v=100
2553583 On ch=3 n=19 v=100
2553675 On ch=3 n=15 v=100
2553675 Off ch=3 n=19 v=0
2553695 Off ch=3 n=46 v=0
2553761 Off ch=3 n=15 v=0
2553772 On ch=3 n=20 v=100
2553815 Off ch=3 n=20 v=0
2553820 On ch=3 n=6 v=100
2553852 Off ch=3 n=6 v=0
2554367 On ch=3 n=38 v=100
2554445 Off ch=3 n=38 v=0
2555633 On ch=3 n=21 v=100
2555858 Off ch=3 n=21 v=0
2555926 On ch=3 n=18 v=100
2555973 Off ch=3 n=18 v=0
2555979 On ch=3 n=14 v=100
2556727 Off ch=3 n=14 v=0
2558261 On ch=3 n=16 v=100
2558265 On ch=3 n=40 v=100
2558522 Off ch=3 n=16 v=0
2558726 On ch=3 n=15 v=100
2558743 Off ch=3 n=40 v=0
2558913 Off ch=3 n=15 v=0
2558992 On ch=3 n=20 v=100
2559107 On ch=3 n=15 v=100
2559115 Off ch=3 n=20 v=0
2559665 On ch=3 n=19 v=100
2559667 Off ch=3 n=15 v=0
2559825 Off ch=3 n=19 v=0
2560960 On ch=3 n=30 v=100
2561049 Off ch=3 n=30 v=0
2561091 On ch=3 n=25 v=100
2561307 Off ch=3 n=25 v=0
2561338 On ch=3 n=10 v=100
2561867 Off ch=3 n=10 v=0
2561986 On ch=3 n=33 v=100
2562140 On ch=3 n=14 v=100
2562143 Off ch=3 n=33 v=0
2562477 Off ch=3 n=14 v=0
2562479 On ch=3 n=13 v=100
2562513 Off ch=3 n=13 v=0
2563216 On ch=3 n=31 v=100
2563419 Off ch=3 n=31 v=0
2563624 On ch=3 n=10 v=100
2564012 On ch=3 n=22 v=100
2564151 Off ch=3 n=10 v=0
2564221 Off ch=3 n=22 v=0
2564222 On ch=3 n=35 v=100
2564494 Off ch=3 n=35 v=0
2564560 On ch=3 n=35 v=100
2564781 Off ch=3 n=35 v=0
2564795 On ch=3 n=9 v=100
2565074 Off ch=3 n=9 v=0
2565122 On ch=3 n=29 v=100
2565252 On ch=3 n=17 v=100
2565416 Off ch=3 n=29 v=0
2565416 Off ch=3 n=17 v=0
2566030 On ch=3 n=29 v=100
2566161 Off ch=3 n=29 v=0
2566812 On ch=3 n=14 v=100
2566896 Off ch=3 n=14 v=0
2566906 On ch=3 n=35 v=100
2566948 On ch=3 n=20 v=100
2567037 Off ch=3 n=35 v=0
2567039 Off ch=3 n=20 v=0
2567062 On ch=3 n=5 v=100
2567107 On ch=3 n=25 v=100
2567126 Off ch=3 n=5 v=0
2567232 Off ch=3 n=25 v=0
2567274 On ch=3 n=32 v=100
2567317 On ch=3 n=14 v=100
2567399 Off ch=3 n=32 v=0
2567674 Off ch=3 n=14 v=0
2568421 On ch=3 n=12 v=100
2568698 Off ch=3 n=12 v=0
2568701 On ch=3 n=2 v=100
2569780 On ch=3 n=35 v=100
2569780 Off ch=3 n=2 v=0
2569847 Off ch=3 n=35 v=0
2570945 On ch=3 n=11 v=100
2571087 On ch=3 n=35 v=100
2571252 On ch=3 n=8 v=100
2571339 Off ch=3 n=11 v=0
2571756 Off ch=3 n=35 v=0
2571760 On ch=3 n=9 v=100
2571760 Off ch=3 n=8 v=0
2571942 Off ch=3 n=9 v=0
2572025 On ch=3 n=9 v=100
2572315 Off ch=3 n=9 v=0
2572334 On ch=3 n=6 v=100
2572440 On ch=3 n=26 v=100
2572482 On ch=3 n=13 v=100
2572483 Off ch=3 n=6 v=0
2572490 Off ch=3 n=26 v=0
2572509 On ch=3 n=43 v=100
2572941 Off ch=3 n=13 v=0
2572980 On ch=3 n=15 v=100
2573075 Off ch=3 n=43 v=0
2573295 On ch=3 n=6 v=100
2573297 Off ch=3 n=15 v=0
2573453 On ch=3 n=14 v=100
2573454 Off ch=3 n=6 v=0
2573628 On ch=3 n=6 v=100
2573629 Off ch=3 n=14 v=0
2574158 On ch=3 n=12 v=100
2574159 Off ch=3 n=6 v=0
2574279 Off ch=3 n=12 v=0
2574287 On ch=3 n=13 v=100
2574879 On ch=3 n=32 v=100
2574897 Off ch=3 n=13 v=0
2575659 Off ch=3 n=32 v=0
2575695 On ch=3 n=32 v=100
2575875 On ch=3 n=16 v=100
2575963 On ch=3 n=13 v=100
2576204 Off ch=3 n=32 v=0
2576272 On ch=3 n=25 v=100
2576346 Off ch=3 n=16 v=0
2576404 Off ch=3 n=13 v=0
2576497 Off ch=3 n=25 v=0
2577407 On ch=3 n=29 v=100
2577453 On ch=3 n=29 v=100
2577490 Off ch=3 n=29 v=0
2577493 On ch=3 n=13 v=100
2577740 Off ch=3 n=29 v=0
2577752 Off ch=3 n=13 v=0
2577755 On ch=3 n=10 v=100
2577917 On ch=3 n=36 v=100
2577943 Off ch=3 n=10 v=0
2577989 On ch=3 n=39 v=100
2578037 Off ch=3 n=36 v=0
2578103 Off ch=3 n=39 v=0
2578494 On ch=3 n=13 v=100
2578931 Off ch=3 n=13 v=0
2578932 On ch=3 n=11 v=100
2579029 Off ch=3 n=11 v=0
2579043 On ch=3 n=11 v=100
2579233 Off ch=3 n=11 v=0
2579267 On ch=3 n=29 v=100
2579267 On ch=3 n=29 v=100
2579349 On ch=3 n=21 v=100
2579461 On ch=3 n=47 v=100
2579482 Off ch=3 n=21 v=0
2579544 Off ch=3 n=29 v=0
2579544 Off ch=3 n=29 v=0
2579582 Off ch=3 n=47 v=0
2580104 On ch=3 n=44 v=100
2580399 On ch=3 n=9 v=100
2580478 Off ch=3 n=44 v=0
2580522 Off ch=3 n=9 v=0
2580523 On ch=3 n=4 v=100
2580773 Off ch=3 n=4 v=0
2580967 On ch=3 n=23 v=100
2580993 On ch=3 n=17 v=100
2581023 On ch=3 n=18 v=100
2581105 Off ch=3 n=23 v=0
2581105 Off ch=3 n=17 v=0
2581106 Off ch=3 n=18 v=0
2581656 On ch=3 n=9 v=100
2581992 On ch=3 n=26 v=100
2582186 Off ch=3 n=9 v=0
2582186 Off ch=3 n=26 v=0
2582227 On ch=3 n=26 v=100
2582360 Off ch=3 n=26 v=0
2582628 On ch=3 n=10 v=100
2583011 Off ch=3 n=10 v=0
2585331 On ch=3 n=18 v=100
2585332 On ch=3 n=20 v=100
2585380 On ch=3 n=13 v=100
2585381 Off ch=3 n=20 v=0
2585391 Off ch=3 n=18 v=0
2585640 On ch=3 n=17 v=100
2585664 Off ch=3 n=13 v=0
2585702 Off ch=3 n=17 v=0
2585893 On ch=3 n=16 v=100
2586068 Off ch=3 n=16 v=0
2586194 On ch=3 n=10 v=100
2586942 Off ch=3 n=10 v=0
2587078 On ch=3 n=11 v=100
2587339 Off ch=3 n=11 v=0
2588397 On ch=3 n=7 v=100
2588817 On ch=3 n=5 v=100
2588818 Off ch=3 n=7 v=0
2589166 Off ch=3 n=5 v=0
2589666 On ch=3 n=14 v=100
2589838 Off ch=3 n=14 v=0
2590668 On ch=3 n=9 v=100
2590857 Off ch=3 n=9 v=0
2591039 On ch=3 n=10 v=100
2591571 Off ch=3 n=10 v=0
2591613 On ch=3 n=21 v=100
2591755 On ch=3 n=14 v=100
2592086 Off ch=3 n=21 v=0
2592114 Off ch=3 n=14 v=0
2593034 On ch=3 n=35 v=100
2593299 Off ch=3 n=35 v=0
2593429 On ch=3 n=16 v=100
2593554 Off ch=3 n=16 v=0
2593700 On ch=3 n=8 v=100
2594279 Off ch=3 n=8 v=0
2594328 On ch=3 n=7 v=100
2594501 Off ch=3 n=7 v=0
2594531 On ch=3 n=13 v=100
2594563 On ch=3 n=11 v=100
2594579 Off ch=3 n=13 v=0
2594632 On ch=3 n=26 v=100
2594641 Off ch=3 n=11 v=0
2594758 Off ch=3 n=26 v=0
2594973 On ch=3 n=35 v=100
2595149 Off ch=3 n=35 v=0
2595221 On ch=3 n=35 v=100
2595268 On ch=3 n=21 v=100
2595360 Off ch=3 n=35 v=0
2595360 Off ch=3 n=21 v=0
2595394 On ch=3 n=35 v=100
2595394 On ch=3 n=21 v=100
2595556 Off ch=3 n=35 v=0
2595573 Off ch=3 n=21 v=0
2595708 On ch=3 n=10 v=100
2596176 Off ch=3 n=10 v=0
2596198 On ch=3 n=40 v=100
2596267 Off ch=3 n=40 v=0
2600148 On ch=3 n=24 v=100
2600171 On ch=3 n=27 v=100
2600472 On ch=3 n=23 v=100
2600666 Off ch=3 n=24 v=0
2600766 Off ch=3 n=27 v=0
2600811 Off ch=3 n=23 v=0
2600825 On ch=3 n=14 v=100
2600880 On ch=3 n=30 v=100
2601124 Off ch=3 n=14 v=0
2601124 Off ch=3 n=30 v=0
2601159 On ch=3 n=14 v=100
2601159 On ch=3 n=30 v=100
2601197 Off ch=3 n=14 v=0
2601271 Off ch=3 n=30 v=0
2601935 On ch=3 n=14 v=100
2601987 Off ch=3 n=14 v=0
2602386 On ch=3 n=17 v=100
2602737 On ch=3 n=32 v=100
2602739 Off ch=3 n=17 v=0
2602748 Off ch=3 n=32 v=0
2602822 On ch=3 n=32 v=100
2602884 Off ch=3 n=32 v=0
2603285 On ch=3 n=17 v=100
2603357 On ch=3 n=18 v=100
2603388 Off ch=3 n=17 v=0
2603419 Off ch=3 n=18 v=0
2604805 On ch=3 n=14 v=100
2604842 Off ch=3 n=14 v=0
2604848 On ch=3 n=18 v=100
2604877 On ch=3 n=33 v=100
2604960 Off ch=3 n=18 v=0
2604974 Off ch=3 n=33 v=0
2606535 On ch=3 n=21 v=100
2606588 On ch=3 n=17 v=100
2606641 On ch=3 n=14 v=100
2606696 On ch=3 n=9 v=100
2606711 On ch=3 n=18 v=100
2606934 On ch=3 n=43 v=100
2607021 Off ch=3 n=9 v=0
2607022 Off ch=3 n=21 v=0
2607022 Off ch=3 n=17 v=0
2607022 Off ch=3 n=14 v=0
2607083 On ch=3 n=14 v=100
2607092 Off ch=3 n=18 v=0
2607383 On ch=3 n=30 v=100
2607395 Off ch=3 n=14 v=0
2607400 Off ch=3 n=43 v=0
2607530 On ch=3 n=14 v=100
2607554 On ch=3 n=20 v=100
2607966 Off ch=3 n=30 v=0
2608011 Off ch=3 n=14 v=0
2608106 Off ch=3 n=20 v=0
2608198 On ch=3 n=19 v=100
2608331 Off ch=3 n=19 v=0
2609879 On ch=3 n=8 v=100
2610075 Off ch=3 n=8 v=0
2610083 On ch=3 n=7 v=100
2610124 On ch=3 n=21 v=100
2610235 Off ch=3 n=7 v=0
2610239 On ch=3 n=7 v=100
2610443 Off ch=3 n=21 v=0
2610449 On ch=3 n=28 v=100
2610453 Off ch=3 n=7 v=0
2610596 Off ch=3 n=28 v=0
2610818 On ch=3 n=17 v=100
2610869 Off ch=3 n=17 v=0
2610870 On ch=3 n=4 v=100
2611006 On ch=3 n=4 v=100
2611009 Off ch=3 n=4 v=0
2611473 Off ch=3 n=4 v=0
2611475 On ch=3 n=12 v=100
2611543 Off ch=3 n=12 v=0
2611674 On ch=3 n=23 v=100
2611770 Off ch=3 n=23 v=0
2611779 On ch=3 n=10 v=100
2611901 Off ch=3 n=10 v=0
2612057 On ch=3 n=17 v=100
2612062 On ch=3 n=42 v=100
2612173 Off ch=3 n=17 v=0
2612269 Off ch=3 n=42 v=0
2612424 On ch=3 n=9 v=100
2612741 Off ch=3 n=9 v=0
2613700 On ch=3 n=20 v=100
2613896 Off ch=3 n=20 v=0
2613918 On ch=3 n=19 v=100
2614023 On ch=3 n=12 v=100
2614037 On ch=3 n=22 v=100
2614197 Off ch=3 n=19 v=0
2614198 Off ch=3 n=12 v=0
2614224 Off ch=3 n=22 v=0
2614371 On ch=3 n=35 v=100
2614371 On ch=3 n=65 v=100
2614402 On ch=3 n=10 v=100
2614427 Off ch=3 n=35 v=0
2614530 Off ch=3 n=65 v=0
2615068 Off ch=3 n=10 v=0
2615071 On ch=3 n=7 v=100
2615160 On ch=3 n=22 v=100
2615212 On ch=3 n=17 v=100
2615236 On ch=3 n=25 v=100
2615246 Off ch=3 n=7 v=0
2615404 Off ch=3 n=22 v=0
2615406 On ch=3 n=8 v=100
2615438 Off ch=3 n=17 v=0
2615552 Off ch=3 n=25 v=0
2615961 On ch=3 n=25 v=100
2615965 Off ch=3 n=8 v=0
2616002 Off ch=3 n=25 v=0
2616007 On ch=3 n=6 v=100
2616262 Off ch=3 n=6 v=0
2616315 On ch=3 n=27 v=100
2616414 Off ch=3 n=27 v=0
2616447 On ch=3 n=17 v=100
2617090 Off ch=3 n=17 v=0
2617102 On ch=3 n=8 v=100
2617321 Off ch=3 n=8 v=0
2617322 On ch=3 n=23 v=100
2617470 Off ch=3 n=23 v=0
2617472 On ch=3 n=29 v=100
2617606 Off ch=3 n=29 v=0
2618669 On ch=3 n=17 v=100
2619232 Off ch=3 n=17 v=0
2619506 On ch=3 n=6 v=100
2619732 Off ch=3 n=6 v=0
2619775 On ch=3 n=27 v=100
2619775 On ch=3 n=7 v=100
2619915 Off ch=3 n=7 v=0
2619969 Off ch=3 n=27 v=0
2620330 On ch=3 n=11 v=100
2620676 On ch=3 n=46 v=100
2620859 On ch=3 n=23 v=100
2620922 Off ch=3 n=11 v=0
2620985 On ch=3 n=30 v=100
2621019 On ch=3 n=21 v=100
2621089 Off ch=3 n=46 v=0
2621121 Off ch=3 n=23 v=0
2621170 Off ch=3 n=21 v=0
2621170 Off ch=3 n=30 v=0
2625148 On ch=3 n=9 v=100
2625638 On ch=3 n=6 v=100
2625638 On ch=3 n=13 v=100
2625640 Off ch=3 n=9 v=0
2625728 Off ch=3 n=6 v=0
2625742 Off ch=3 n=13 v=0
2627276 On ch=3 n=8 v=100
2627505 On ch=3 n=48 v=100
2627659 Off ch=3 n=8 v=0
2627660 On ch=3 n=7 v=100
2627764 Off ch=3 n=48 v=0
2627957 On ch=3 n=7 v=100
2627968 Off ch=3 n=7 v=0
2628316 Off ch=3 n=7 v=0
2630219 On ch=3 n=10 v=100
2631306 Off ch=3 n=10 v=0
2631748 On ch=3 n=36 v=100
2631786 On ch=3 n=40 v=100
2631787 On ch=3 n=28 v=100
2631822 On ch=3 n=29 v=100
2632035 Off ch=3 n=36 v=0
2632046 Off ch=3 n=28 v=0
2632076 Off ch=3 n=29 v=0
2632104 Off ch=3 n=40 v=0
2632571 On ch=3 n=34 v=100
2632745 Off ch=3 n=34 v=0
2632860 On ch=3 n=17 v=100
2632860 On ch=3 n=17 v=100
2632961 On ch=3 n=14 v=100
2632965 On ch=3 n=21 v=100
2633058 On ch=3 n=32 v=100
2633058 On ch=3 n=32 v=100
2633312 Off ch=3 n=17 v=0
2633312 Off ch=3 n=17 v=0
2633361 On ch=3 n=26 v=100
2633361 Off ch=3 n=14 v=0
2633422 Off ch=3 n=21 v=0
2633524 Off ch=3 n=32 v=0
2633524 Off ch=3 n=32 v=0
2633645 Off ch=3 n=26 v=0
2633848 On ch=3 n=48 v=100
2633915 On ch=3 n=37 v=100
2633935 On ch=3 n=38 v=100
2633936 On ch=3 n=19 v=100
2633986 Off ch=3 n=48 v=0
2634004 Off ch=3 n=37 v=0
2634045 Off ch=3 n=19 v=0
2634047 On ch=3 n=10 v=100
2634155 Off ch=3 n=38 v=0
2634232 On ch=3 n=35 v=100
2634252 Off ch=3 n=10 v=0
2634261 On ch=3 n=35 v=100
2634353 On ch=3 n=12 v=100
2634362 Off ch=3 n=35 v=0
2634367 Off ch=3 n=35 v=0
2634500 On ch=3 n=14 v=100
2634787 Off ch=3 n=12 v=0
2634858 On ch=3 n=32 v=100
2634871 Off ch=3 n=14 v=0
2635009 Off ch=3 n=32 v=0
2635051 On ch=3 n=27 v=100
2635248 On ch=3 n=48 v=100
2635327 Off ch=3 n=27 v=0
2635338 Off ch=3 n=48 v=0
2635421 On ch=3 n=8 v=100
2635459 On ch=3 n=30 v=100
2635659 Off ch=3 n=8 v=0
2635662 On ch=3 n=12 v=100
2635829 Off ch=3 n=30 v=0
2636014 Off ch=3 n=12 v=0
2642935 On ch=3 n=24 v=100
2642949 On ch=3 n=14 v=100
2643037 Off ch=3 n=24 v=0
2643243 Off ch=3 n=14 v=0
2644017 On ch=3 n=21 v=100
2644072 Off ch=3 n=21 v=0
2646136 On ch=3 n=6 v=100
2646960 Off ch=3 n=6 v=0
2648431 On ch=3 n=11 v=100
2649393 On ch=3 n=26 v=100
2649393 On ch=3 n=26 v=100
2649439 Off ch=3 n=11 v=0
2649615 Off ch=3 n=26 v=0
2649615 Off ch=3 n=26 v=0
2651358 On ch=3 n=19 v=100
2651358 On ch=3 n=33 v=100
2651824 Off ch=3 n=19 v=0
2651978 Off ch=3 n=33 v=0
2654418 On ch=3 n=25 v=100
2654535 Off ch=3 n=25 v=0
2654922 On ch=3 n=14 v=100
2655215 On ch=3 n=12 v=100
2655219 Off ch=3 n=14 v=0
2655436 On ch=3 n=31 v=100
2655468 Off ch=3 n=12 v=0
2655507 On ch=3 n=20 v=100
2655771 On ch=3 n=33 v=100
2655793 Off ch=3 n=31 v=0
2655793 Off ch=3 n=20 v=0
2655795 On ch=3 n=22 v=100
2655860 On ch=3 n=32 v=100
2655864 Off ch=3 n=33 v=0
2655875 Off ch=3 n=22 v=0
2655982 Off ch=3 n=32 v=0
2656011 On ch=3 n=4 v=100
2656239 On ch=3 n=7 v=100
2656266 Off ch=3 n=4 v=0
2656619 On ch=3 n=36 v=100
2656682 Off ch=3 n=7 v=0
2656689 On ch=3 n=8 v=100
2656693 Off ch=3 n=36 v=0
2657309 Off ch=3 n=8 v=0
2658112 On ch=3 n=36 v=100
2658443 On ch=3 n=26 v=100
2658476 Off ch=3 n=36 v=0
2658547 Off ch=3 n=26 v=0
2658639 On ch=3 n=27 v=100
2658691 On ch=3 n=9 v=100
2658730 Off ch=3 n=27 v=0
2658744 Off ch=3 n=9 v=0
2658751 On ch=3 n=7 v=100
2658822 Off ch=3 n=7 v=0
2658823 On ch=3 n=8 v=100
2659480 Off ch=3 n=8 v=0
2659513 On ch=3 n=25 v=100
2659739 On ch=3 n=18 v=100
2659746 Off ch=3 n=25 v=0
2659787 Off ch=3 n=18 v=0
2659818 On ch=3 n=23 v=100
2659914 Off ch=3 n=23 v=0
2659954 On ch=3 n=9 v=100
2660150 Off ch=3 n=9 v=0
2660165 On ch=3 n=34 v=100
2660212 On ch=3 n=20 v=100
2660215 On ch=3 n=49 v=100
2660215 On ch=3 n=49 v=100
2660234 On ch=3 n=25 v=100
2660282 Off ch=3 n=34 v=0
2660283 Off ch=3 n=25 v=0
2660285 Off ch=3 n=20 v=0
2660304 Off ch=3 n=49 v=0
2660304 Off ch=3 n=49 v=0
2660462 On ch=3 n=32 v=100
2660506 Off ch=3 n=32 v=0
2661445 On ch=3 n=39 v=100
2661564 Off ch=3 n=39 v=0
2661603 On ch=3 n=14 v=100
2661603 On ch=3 n=39 v=100
2661635 Off ch=3 n=14 v=0
2661663 Off ch=3 n=39 v=0
2661720 On ch=3 n=10 v=100
2662749 Off ch=3 n=10 v=0
2662796 On ch=3 n=8 v=100
2663365 Off ch=3 n=8 v=0
2663669 On ch=3 n=9 v=100
2663955 Off ch=3 n=9 v=0
2664455 On ch=3 n=21 v=100
2664818 Off ch=3 n=21 v=0
2665165 On ch=3 n=9 v=100
2665770 On ch=3 n=36 v=100
2665883 Off ch=3 n=9 v=0
2665979 Off ch=3 n=36 v=0
2666210 On ch=3 n=20 v=100
2666269 On ch=3 n=5 v=100
2666512 Off ch=3 n=20 v=0
2666555 Off ch=3 n=5 v=0
2671761 On ch=3 n=5 v=100
2672423 Off ch=3 n=5 v=0
2674318 On ch=3 n=7 v=100
2674906 Off ch=3 n=7 v=0
2674914 On ch=3 n=9 v=100
2675117 Off ch=3 n=9 v=0
2675857 On ch=3 n=31 v=100
2676040 Off ch=3 n=31 v=0
2676052 On ch=3 n=26 v=100
2676140 On ch=3 n=10 v=100
2676156 Off ch=3 n=26 v=0
2676296 Off ch=3 n=10 v=0
2676357 On ch=3 n=21 v=100
2676357 On ch=3 n=10 v=100
2676599 Off ch=3 n=10 v=0
2676700 Off ch=3 n=21 v=0
2676723 On ch=3 n=11 v=100
2676958 Off ch=3 n=11 v=0
2676963 On ch=3 n=15 v=100
2677148 On ch=3 n=6 v=100
2677149 Off ch=3 n=15 v=0
2677507 Off ch=3 n=6 v=0
2677649 On ch=3 n=20 v=100
2677845 Off ch=3 n=20 v=0
2677854 On ch=3 n=35 v=100
2677898 On ch=3 n=35 v=100
2677901 On ch=3 n=40 v=100
2677948 Off ch=3 n=35 v=0
2677970 Off ch=3 n=35 v=0
2677981 Off ch=3 n=40 v=0
2678562 On ch=3 n=9 v=100
2678808 Off ch=3 n=9 v=0
2678811 On ch=3 n=12 v=100
2679037 Off ch=3 n=12 v=0
2680231 On ch=3 n=45 v=100
2680270 On ch=3 n=37 v=100
2680366 On ch=3 n=12 v=100
2680545 Off ch=3 n=37 v=0
2680554 Off ch=3 n=12 v=0
2680558 On ch=3 n=9 v=100
2680572 Off ch=3 n=45 v=0
2681142 Off ch=3 n=9 v=0
2681764 On ch=3 n=39 v=100
2681948 On ch=3 n=15 v=100
2682038 Off ch=3 n=15 v=0
2682056 Off ch=3 n=39 v=0
2682569 On ch=3 n=33 v=100
2683050 Off ch=3 n=33 v=0
2683068 On ch=3 n=18 v=100
2683239 Off ch=3 n=18 v=0
2683278 On ch=3 n=15 v=100
2683372 Off ch=3 n=15 v=0
2684173 On ch=3 n=23 v=100
2684215 Off ch=3 n=23 v=0
2685198 On ch=3 n=17 v=100
2685259 On ch=3 n=8 v=100
2685283 Off ch=3 n=17 v=0
2685294 Off ch=3 n=8 v=0
2685298 On ch=3 n=14 v=100
2686163 On ch=3 n=18 v=100
2686182 Off ch=3 n=14 v=0
2686192 Off ch=3 n=18 v=0
2686228 On ch=3 n=18 v=100
2686229 On ch=3 n=15 v=100
2686274 Off ch=3 n=18 v=0
2686644 Off ch=3 n=15 v=0
2687954 On ch=3 n=51 v=100
2688131 On ch=3 n=42 v=100
2688192 On ch=3 n=42 v=100
2688221 On ch=3 n=32 v=100
2688254 On ch=3 n=54 v=100
2688263 On ch=3 n=17 v=100
2688442 Off ch=3 n=17 v=0
2688443 Off ch=3 n=42 v=0
2688447 Off ch=3 n=42 v=0
2688449 Off ch=3 n=51 v=0
2688449 Off ch=3 n=32 v=0
2688644 Off ch=3 n=54 v=0
2688750 On ch=3 n=54 v=100
2688759 Off ch=3 n=54 v=0
2690272 On ch=3 n=23 v=100
2690331 Off ch=3 n=23 v=0
2693696 On ch=3 n=27 v=100
2693977 Off ch=3 n=27 v=0
2693985 On ch=3 n=18 v=100
2694333 On ch=3 n=28 v=100
2694371 Off ch=3 n=18 v=0
2694391 On ch=3 n=23 v=100
2694445 Off ch=3 n=28 v=0
2694466 Off ch=3 n=23 v=0
2694583 On ch=3 n=38 v=100
2694604 On ch=3 n=33 v=100
2694669 On ch=3 n=18 v=100
2694689 Off ch=3 n=38 v=0
2694689 Off ch=3 n=33 v=0
2694689 Off ch=3 n=18 v=0
2694742 On ch=3 n=38 v=100
2694742 On ch=3 n=37 v=100
2694785 Off ch=3 n=38 v=0
2694927 On ch=3 n=48 v=100
2694953 On ch=3 n=33 v=100
2695064 Off ch=3 n=37 v=0
2695172 Off ch=3 n=33 v=0
2695176 Off ch=3 n=48 v=0
2695207 On ch=3 n=10 v=100
2695443 On ch=3 n=28 v=100
2695753 Off ch=3 n=10 v=0
2695880 Off ch=3 n=28 v=0
2695993 On ch=3 n=33 v=100
2696022 On ch=3 n=19 v=100
2696045 On ch=3 n=27 v=100
2696045 On ch=3 n=27 v=100
2696066 On ch=3 n=7 v=100
2696122 Off ch=3 n=33 v=0
2696137 Off ch=3 n=19 v=0
2696138 Off ch=3 n=7 v=0
2696180 Off ch=3 n=27 v=0
2696180 Off ch=3 n=27 v=0
2696183 On ch=3 n=7 v=100
2696464 Off ch=3 n=7 v=0
2696472 On ch=3 n=6 v=100
2696607 Off ch=3 n=6 v=0
2696611 On ch=3 n=9 v=100
2696864 On ch=3 n=9 v=100
2696864 Off ch=3 n=9 v=0
2697234 Off ch=3 n=9 v=0
2697235 On ch=3 n=6 v=100
2697475 Off ch=3 n=6 v=0
2697478 On ch=3 n=6 v=100
2697710 Off ch=3 n=6 v=0
2697763 On ch=3 n=5 v=100
2698194 Off ch=3 n=5 v=0
2698864 On ch=3 n=28 v=100
2698886 On ch=3 n=27 v=100
2698886 On ch=3 n=20 v=100
2698975 Off ch=3 n=28 v=0
2699007 Off ch=3 n=20 v=0
2699065 Off ch=3 n=27 v=0
2699106 On ch=3 n=5 v=100
2699166 Off ch=3 n=5 v=0
2699171 On ch=3 n=38 v=100
2699208 On ch=3 n=17 v=100
2699357 Off ch=3 n=38 v=0
2699464 Off ch=3 n=17 v=0
2699465 On ch=3 n=31 v=100
2699465 On ch=3 n=27 v=100
2699971 Off ch=3 n=31 v=0
2700108 On ch=3 n=31 v=100
2700124 Off ch=3 n=27 v=0
2700231 On ch=3 n=24 v=100
2700327 On ch=3 n=15 v=100
2700491 On ch=3 n=23 v=100
2700703 Off ch=3 n=15 v=0
2700704 Off ch=3 n=24 v=0
2700705 Off ch=3 n=31 v=0
2700718 On ch=3 n=20 v=100
2700734 On ch=3 n=12 v=100
2700738 On ch=3 n=20 v=100
2700745 Off ch=3 n=23 v=0
2700856 Off ch=3 n=20 v=0
2701112 Off ch=3 n=12 v=0
2701199 Off ch=3 n=20 v=0
2701212 On ch=3 n=26 v=100
2701337 Off ch=3 n=26 v=0
2701538 On ch=3 n=27 v=100
2701859 Off ch=3 n=27 v=0
2701945 On ch=3 n=28 v=100
2702012 Off ch=3 n=28 v=0
2704462 On ch=3 n=11 v=100
2704539 On ch=3 n=15 v=100
2704680 Off ch=3 n=11 v=0
2704883 Off ch=3 n=15 v=0
2704959 On ch=3 n=15 v=100
2705077 On ch=3 n=23 v=100
2705251 Off ch=3 n=15 v=0
2705251 Off ch=3 n=23 v=0
2705324 On ch=3 n=23 v=100
2705324 On ch=3 n=13 v=100
2705383 On ch=3 n=8 v=100
2705449 Off ch=3 n=23 v=0
2705548 Off ch=3 n=13 v=0
2706048 Off ch=3 n=8 v=0
2706277 On ch=3 n=37 v=100
2706706 Off ch=3 n=37 v=0
2706889 On ch=3 n=27 v=100
2707035 Off ch=3 n=27 v=0
2709369 On ch=3 n=30 v=100
2709835 On ch=3 n=18 v=100
2709905 Off ch=3 n=30 v=0
2709993 Off ch=3 n=18 v=0
2710103 On ch=3 n=12 v=100
2711136 On ch=3 n=28 v=100
2711145 Off ch=3 n=12 v=0
2711203 On ch=3 n=6 v=100
2711239 Off ch=3 n=28 v=0
2711267 Off ch=3 n=6 v=0
2717887 On ch=3 n=11 v=100
2718035 Off ch=3 n=11 v=0
2718046 On ch=3 n=12 v=100
2718437 Off ch=3 n=12 v=0
2719182 On ch=3 n=36 v=100
2719254 Off ch=3 n=36 v=0
2719262 On ch=3 n=24 v=100
2719319 On ch=3 n=20 v=100
2719335 Off ch=3 n=24 v=0
2719337 On ch=3 n=24 v=100
2719447 Off ch=3 n=20 v=0
2719558 Off ch=3 n=24 v=0
2719569 On ch=3 n=15 v=100
2719714 Off ch=3 n=15 v=0
2719715 On ch=3 n=20 v=100
2719804 Off ch=3 n=20 v=0
2719814 On ch=3 n=8 v=100
2719950 Off ch=3 n=8 v=0
2719953 On ch=3 n=4 v=100
2720261 Off ch=3 n=4 v=0
2720279 On ch=3 n=4 v=100
2720377 Off ch=3 n=4 v=0
2720391 On ch=3 n=12 v=100
2720482 On ch=3 n=10 v=100
2720483 Off ch=3 n=12 v=0
2720613 On ch=3 n=12 v=100
2720626 Off ch=3 n=10 v=0
2720666 On ch=3 n=31 v=100
2720694 Off ch=3 n=12 v=0
2720801 Off ch=3 n=31 v=0
2720804 On ch=3 n=18 v=100
2721029 Off ch=3 n=18 v=0
2721161 On ch=3 n=28 v=100
2721178 On ch=3 n=17 v=100
2721179 On ch=3 n=12 v=100
2721181 On ch=3 n=19 v=100
2721246 Off ch=3 n=28 v=0
2721264 Off ch=3 n=12 v=0
2721281 Off ch=3 n=17 v=0
2721281 Off ch=3 n=19 v=0
2721355 On ch=3 n=19 v=100
2721387 Off ch=3 n=19 v=0
2721501 On ch=3 n=45 v=100
2721550 On ch=3 n=10 v=100
2721562 Off ch=3 n=45 v=0
2721783 Off ch=3 n=10 v=0
2722394 On ch=3 n=31 v=100
2722428 On ch=3 n=21 v=100
2722577 Off ch=3 n=31 v=0
2722577 Off ch=3 n=21 v=0
2722675 On ch=3 n=34 v=100
2722778 Off ch=3 n=34 v=0
2722840 On ch=3 n=14 v=100
2723184 Off ch=3 n=14 v=0
2723187 On ch=3 n=15 v=100
2723572 Off ch=3 n=15 v=0
2723623 On ch=3 n=8 v=100
2723686 Off ch=3 n=8 v=0
2723687 On ch=3 n=38 v=100
2723946 Off ch=3 n=38 v=0
2725389 On ch=3 n=23 v=100
2725395 On ch=3 n=3 v=100
2725444 Off ch=3 n=23 v=0
2725936 Off ch=3 n=3 v=0
2726246 On ch=3 n=39 v=100
2726254 On ch=3 n=13 v=100
2726349 Off ch=3 n=13 v=0
2726350 On ch=3 n=5 v=100
2726385 Off ch=3 n=39 v=0
2726634 On ch=3 n=18 v=100
2726650 On ch=3 n=10 v=100
2726650 Off ch=3 n=5 v=0
2726652 On ch=3 n=15 v=100
2726664 On ch=3 n=43 v=100
2726688 On ch=3 n=41 v=100
2726734 Off ch=3 n=18 v=0
2726734 Off ch=3 n=10 v=0
2726755 Off ch=3 n=15 v=0
2726784 Off ch=3 n=43 v=0
2726822 Off ch=3 n=41 v=0
2727643 On ch=3 n=25 v=100
2727889 Off ch=3 n=25 v=0
2727942 On ch=3 n=2 v=100
2728347 On ch=3 n=6 v=100
2728581 Off ch=3 n=2 v=0
2728581 Off ch=3 n=6 v=0
2728638 On ch=3 n=2 v=100
2729422 Off ch=3 n=2 v=0
2730424 On ch=3 n=16 v=100
2731122 On ch=3 n=22 v=100
2731123 Off ch=3 n=16 v=0
2731145 On ch=3 n=10 v=100
2731268 Off ch=3 n=22 v=0
2731370 Off ch=3 n=10 v=0
2731922 On ch=3 n=15 v=100
2732101 Off ch=3 n=15 v=0
2732116 On ch=3 n=19 v=100
2732299 Off ch=3 n=19 v=0
2733495 On ch=3 n=7 v=100
2733724 On ch=3 n=23 v=100
2733724 On ch=3 n=23 v=100
2733808 On ch=3 n=13 v=100
2733826 On ch=3 n=30 v=100
2733826 On ch=3 n=30 v=100
2733840 Off ch=3 n=7 v=0
2733965 On ch=3 n=16 v=100
2733966 Off ch=3 n=13 v=0
2734019 Off ch=3 n=23 v=0
2734019 Off ch=3 n=23 v=0
2734145 Off ch=3 n=30 v=0
2734145 Off ch=3 n=30 v=0
2734262 On ch=3 n=11 v=100
2734262 Off ch=3 n=16 v=0
2734351 Off ch=3 n=11 v=0
2734360 On ch=3 n=3 v=100
2734786 On ch=3 n=52 v=100
2734832 On ch=3 n=33 v=100
2734862 Off ch=3 n=3 v=0
2734864 On ch=3 n=24 v=100
2734883 Off ch=3 n=33 v=0
2734942 On ch=3 n=22 v=100
2734943 Off ch=3 n=24 v=0
2735003 Off ch=3 n=22 v=0
2735013 Off ch=3 n=52 v=0
2735735 On ch=3 n=26 v=100
2736280 Off ch=3 n=26 v=0
2737280 On ch=3 n=54 v=100
2737280 On ch=3 n=17 v=100
2737482 Off ch=3 n=17 v=0
2737522 Off ch=3 n=54 v=0
2737894 On ch=3 n=22 v=100
2737958 On ch=3 n=17 v=100
2737962 Off ch=3 n=22 v=0
2738388 On ch=3 n=20 v=100
2738444 Off ch=3 n=17 v=0
2738474 On ch=3 n=11 v=100
2738961 Off ch=3 n=20 v=0
2738982 Off ch=3 n=11 v=0
2740612 On ch=3 n=24 v=100
2740645 On ch=3 n=42 v=100
2740683 Off ch=3 n=24 v=0
2741094 Off ch=3 n=42 v=0
2741444 On ch=3 n=29 v=100
2741692 Off ch=3 n=29 v=0
2741894 On ch=3 n=32 v=100
2742235 On ch=3 n=15 v=100
2742250 On ch=3 n=51 v=100
2742376 Off ch=3 n=32 v=0
2742376 Off ch=3 n=15 v=0
2742394 Off ch=3 n=51 v=0
2742559 On ch=3 n=30 v=100
2742678 Off ch=3 n=30 v=0
2743240 On ch=3 n=11 v=100
2743552 Off ch=3 n=11 v=0
2743894 On ch=3 n=36 v=100
2743902 On ch=3 n=49 v=100
2743967 Off ch=3 n=36 v=0
2743975 Off ch=3 n=49 v=0
2745132 On ch=3 n=14 v=100
2745208 Off ch=3 n=14 v=0
2745680 On ch=3 n=8 v=100
2745771 On ch=3 n=22 v=100
2745836 Off ch=3 n=8 v=0
2746146 On ch=3 n=23 v=100
2746150 Off ch=3 n=22 v=0
2746486 Off ch=3 n=23 v=0
2746487 On ch=3 n=11 v=100
2746961 On ch=3 n=9 v=100
2747198 On ch=3 n=45 v=100
2747198 Off ch=3 n=11 v=0
2747253 On ch=3 n=9 v=100
2747272 Off ch=3 n=9 v=0
2747408 Off ch=3 n=45 v=0
2747671 Off ch=3 n=9 v=0
2747686 On ch=3 n=14 v=100
2747900 Off ch=3 n=14 v=0
2747918 On ch=3 n=11 v=100
2748206 Off ch=3 n=11 v=0
2749382 On ch=3 n=26 v=100
2749382 On ch=3 n=26 v=100
2749402 On ch=3 n=29 v=100
2749402 On ch=3 n=29 v=100
2749414 On ch=3 n=15 v=100
2749553 Off ch=3 n=26 v=0
2749553 Off ch=3 n=15 v=0
2749553 Off ch=3 n=26 v=0
2749560 On ch=3 n=20 v=100
2749600 Off ch=3 n=29 v=0
2749600 Off ch=3 n=29 v=0
2749602 On ch=3 n=31 v=100
2749728 Off ch=3 n=20 v=0
2749776 On ch=3 n=14 v=100
2749804 Off ch=3 n=31 v=0
2750233 Off ch=3 n=14 v=0
2750533 On ch=3 n=16 v=100
2750740 Off ch=3 n=16 v=0
2750757 On ch=3 n=20 v=100
2750911 Off ch=3 n=20 v=0
2750920 On ch=3 n=15 v=100
2750974 On ch=3 n=42 v=100
2750993 On ch=3 n=36 v=100
2750993 On ch=3 n=36 v=100
2751002 Off ch=3 n=15 v=0
2751006 On ch=3 n=22 v=100
2751008 On ch=3 n=23 v=100
2751135 Off ch=3 n=22 v=0
2751139 Off ch=3 n=42 v=0
2751155 Off ch=3 n=23 v=0
2751169 Off ch=3 n=36 v=0
2751169 Off ch=3 n=36 v=0
2752887 On ch=3 n=18 v=100
2753717 On ch=3 n=35 v=100
2753724 Off ch=3 n=18 v=0
2753769 On ch=3 n=12 v=100
2753772 Off ch=3 n=35 v=0
2754307 On ch=3 n=46 v=100
2754330 Off ch=3 n=12 v=0
2754345 On ch=3 n=32 v=100
2754346 On ch=3 n=41 v=100
2754346 On ch=3 n=45 v=100
2754478 Off ch=3 n=32 v=0
2754484 Off ch=3 n=46 v=0
2754504 Off ch=3 n=41 v=0
2754555 On ch=3 n=11 v=100
2754600 Off ch=3 n=45 v=0
2754747 Off ch=3 n=11 v=0
2754797 On ch=3 n=29 v=100
2754976 Off ch=3 n=29 v=0
2756404 On ch=3 n=20 v=100
2756414 On ch=3 n=9 v=100
2756462 Off ch=3 n=20 v=0
2756992 Off ch=3 n=9 v=0
2759049 On ch=3 n=18 v=100
2759192 Off ch=3 n=18 v=0
2759322 On ch=3 n=34 v=100
2759322 On ch=3 n=10 v=100
2759516 On ch=3 n=12 v=100
2759516 Off ch=3 n=10 v=0
2759573 Off ch=3 n=34 v=0
2759914 Off ch=3 n=12 v=0
2759915 On ch=3 n=12 v=100
2760169 Off ch=3 n=12 v=0
2760174 On ch=3 n=9 v=100
2760716 On ch=3 n=11 v=100
2760718 Off ch=3 n=9 v=0
2760846 Off ch=3 n=11 v=0
2761793 On ch=3 n=6 v=100
2761972 On ch=3 n=15 v=100
2761972 Off ch=3 n=6 v=0
2762066 Off ch=3 n=15 v=0
2762105 On ch=3 n=19 v=100
2762252 Off ch=3 n=19 v=0
2762278 On ch=3 n=7 v=100
2762766 Off ch=3 n=7 v=0
2764991 On ch=3 n=16 v=100
2765118 On ch=3 n=13 v=100
2765118 On ch=3 n=23 v=100
2765159 Off ch=3 n=16 v=0
2765389 On ch=3 n=12 v=100
2765391 Off ch=3 n=13 v=0
2765441 Off ch=3 n=23 v=0
2765514 Off ch=3 n=12 v=0
2765583 On ch=3 n=7 v=100
2765800 Off ch=3 n=7 v=0
2775791 On ch=3 n=27 v=100
2776012 Off ch=3 n=27 v=0
2776056 On ch=3 n=11 v=100
2776572 Off ch=3 n=11 v=0
2777488 On ch=3 n=3 v=100
2777520 Off ch=3 n=3 v=0
2777812 On ch=3 n=11 v=100
2778263 On ch=3 n=23 v=100
2778263 On ch=3 n=23 v=100
2778296 Off ch=3 n=11 v=0
2778298 On ch=3 n=24 v=100
2778370 Off ch=3 n=23 v=0
2778370 Off ch=3 n=23 v=0
2778431 Off ch=3 n=24 v=0
2778996 On ch=3 n=21 v=100
2779318 Off ch=3 n=21 v=0
2780094 On ch=3 n=45 v=100
2780094 On ch=3 n=45 v=100
2780508 Off ch=3 n=45 v=0
2780508 Off ch=3 n=45 v=0
2782047 On ch=3 n=11 v=100
2782047 On ch=3 n=11 v=100
2782631 On ch=3 n=38 v=100
2782710 On ch=3 n=10 v=100
2782710 On ch=3 n=10 v=100
2782710 Off ch=3 n=11 v=0
2782710 Off ch=3 n=11 v=0
2782722 Off ch=3 n=38 v=0
2783017 Off ch=3 n=10 v=0
2783017 Off ch=3 n=10 v=0
2783221 On ch=3 n=18 v=100
2783382 Off ch=3 n=18 v=0
2783383 On ch=3 n=37 v=100
2783535 Off ch=3 n=37 v=0
2784454 On ch=3 n=16 v=100
2784634 On ch=3 n=10 v=100
2784636 Off ch=3 n=16 v=0
2784757 Off ch=3 n=10 v=0
2785338 On ch=3 n=36 v=100
2785732 Off ch=3 n=36 v=0
2786211 On ch=3 n=13 v=100
2786313 On ch=3 n=11 v=100
2786321 Off ch=3 n=13 v=0
2787155 On ch=3 n=18 v=100
2787354 Off ch=3 n=11 v=0
2787849 Off ch=3 n=18 v=0
2787855 On ch=3 n=8 v=100
2788581 Off ch=3 n=8 v=0
2788794 On ch=3 n=31 v=100
2789024 Off ch=3 n=31 v=0
2789091 On ch=3 n=29 v=100
2789225 On ch=3 n=32 v=100
2789245 On ch=3 n=25 v=100
2789248 Off ch=3 n=29 v=0
2789259 On ch=3 n=25 v=100
2789270 On ch=3 n=21 v=100
2789326 Off ch=3 n=25 v=0
2789327 Off ch=3 n=32 v=0
2789328 Off ch=3 n=25 v=0
2789328 Off ch=3 n=21 v=0
2789337 On ch=3 n=9 v=100
2789473 Off ch=3 n=9 v=0
2789480 On ch=3 n=12 v=100
2789968 Off ch=3 n=12 v=0
2789977 On ch=3 n=10 v=100
2790410 On ch=3 n=10 v=100
2790410 Off ch=3 n=10 v=0
2791215 On ch=3 n=40 v=100
2791228 Off ch=3 n=10 v=0
2791229 On ch=3 n=6 v=100
2791322 Off ch=3 n=40 v=0
2791512 Off ch=3 n=6 v=0
2792563 On ch=3 n=7 v=100
2792623 On ch=3 n=10 v=100
2792623 Off ch=3 n=7 v=0
2792727 On ch=3 n=34 v=100
2792979 Off ch=3 n=10 v=0
2792981 On ch=3 n=12 v=100
2793241 On ch=3 n=21 v=100
2793243 Off ch=3 n=34 v=0
2793243 Off ch=3 n=12 v=0
2793247 On ch=3 n=11 v=100
2793991 Off ch=3 n=11 v=0
2794034 On ch=3 n=22 v=100
2794078 Off ch=3 n=21 v=0
2794178 Off ch=3 n=22 v=0
2794965 On ch=3 n=21 v=100
2795024 Off ch=3 n=21 v=0
2796050 On ch=3 n=0 v=100
2796070 On ch=3 n=3 v=100
2796072 Off ch=3 n=0 v=0
2797886 On ch=3 n=20 v=100
2797893 On ch=3 n=10 v=100
2797920 On ch=3 n=2 v=100
2797935 Off ch=3 n=3 v=0
2797963 Off ch=3 n=10 v=0
2797974 Off ch=3 n=20 v=0
2799717 Off ch=3 n=2 v=0
2806593 On ch=3 n=4 v=100
2806660 Off ch=3 n=4 v=0
2806663 On ch=3 n=3 v=100
2807775 Off ch=3 n=3 v=0
2809301 On ch=3 n=8 v=100
2810235 On ch=3 n=36 v=100
2810318 Off ch=3 n=8 v=0
2810325 On ch=3 n=7 v=100
2810631 Off ch=3 n=7 v=0
2810633 On ch=3 n=40 v=100
2810633 On ch=3 n=40 v=100
2810635 Off ch=3 n=36 v=0
2810655 On ch=3 n=46 v=100
2810839 Off ch=3 n=40 v=0
2810839 Off ch=3 n=40 v=0
2810861 Off ch=3 n=46 v=0
2811141 On ch=3 n=26 v=100
2811143 On ch=3 n=17 v=100
2811422 Off ch=3 n=17 v=0
2811479 Off ch=3 n=26 v=0
2811504 On ch=3 n=44 v=100
2811605 Off ch=3 n=44 v=0
2813127 On ch=3 n=36 v=100
2813127 On ch=3 n=36 v=100
2813234 On ch=3 n=26 v=100
2813382 Off ch=3 n=26 v=0
2813524 Off ch=3 n=36 v=0
2813524 Off ch=3 n=36 v=0
2813824 On ch=3 n=11 v=100
2814342 Off ch=3 n=11 v=0
2814369 On ch=3 n=6 v=100
2814412 On ch=3 n=33 v=100
2814412 On ch=3 n=33 v=100
2814436 Off ch=3 n=6 v=0
2814440 On ch=3 n=1 v=100
2814506 Off ch=3 n=1 v=0
2814509 On ch=3 n=9 v=100
2814517 Off ch=3 n=33 v=0
2814517 Off ch=3 n=33 v=0
2814576 Off ch=3 n=9 v=0
2814676 On ch=3 n=18 v=100
2814815 On ch=3 n=50 v=100
2814921 Off ch=3 n=18 v=0
2815005 Off ch=3 n=50 v=0
2815063 On ch=3 n=20 v=100
2815152 Off ch=3 n=20 v=0
2815470 On ch=3 n=39 v=100
2815515 On ch=3 n=24 v=100
2815551 Off ch=3 n=39 v=0
2815551 Off ch=3 n=24 v=0
2815622 On ch=3 n=24 v=100
2815667 On ch=3 n=27 v=100
2815667 On ch=3 n=27 v=100
2815802 Off ch=3 n=24 v=0
2815954 On ch=3 n=15 v=100
2816003 On ch=3 n=16 v=100
2816003 On ch=3 n=16 v=100
2816031 On ch=3 n=9 v=100
2816411 On ch=3 n=8 v=100
2816413 Off ch=3 n=15 v=0
2816415 Off ch=3 n=9 v=0
2816424 Off ch=3 n=27 v=0
2816424 Off ch=3 n=27 v=0
2816548 Off ch=3 n=16 v=0
2816548 Off ch=3 n=16 v=0
2816573 Off ch=3 n=8 v=0
2816580 On ch=3 n=28 v=100
2816590 On ch=3 n=23 v=100
2816667 Off ch=3 n=28 v=0
2816828 Off ch=3 n=23 v=0
2817541 On ch=3 n=10 v=100
2817594 On ch=3 n=9 v=100
2817594 On ch=3 n=25 v=100
2817963 Off ch=3 n=10 v=0
2817970 Off ch=3 n=9 v=0
2818019 On ch=3 n=17 v=100
2818197 Off ch=3 n=25 v=0
2818239 Off ch=3 n=17 v=0
2818482 On ch=3 n=20 v=100
2819087 Off ch=3 n=20 v=0
2819510 On ch=3 n=6 v=100
2819782 On ch=3 n=2 v=100
2819789 Off ch=3 n=6 v=0
2820580 Off ch=3 n=2 v=0
2820635 On ch=3 n=5 v=100
2820638 On ch=3 n=2 v=100
2820875 Off ch=3 n=5 v=0
2821237 On ch=3 n=21 v=100
2821284 Off ch=3 n=2 v=0
2821306 On ch=3 n=14 v=100
2821404 On ch=3 n=29 v=100
2821608 On ch=3 n=9 v=100
2821637 Off ch=3 n=21 v=0
2821710 Off ch=3 n=14 v=0
2821783 Off ch=3 n=29 v=0
2822492 Off ch=3 n=9 v=0
2823927 On ch=3 n=4 v=100
2824051 Off ch=3 n=4 v=0
2824430 On ch=3 n=12 v=100
2824523 On ch=3 n=10 v=100
2824523 Off ch=3 n=12 v=0
2824925 On ch=3 n=16 v=100
2824983 Off ch=3 n=10 v=0
2825012 Off ch=3 n=16 v=0
2829873 On ch=3 n=53 v=100
2830018 On ch=3 n=48 v=100
2830032 On ch=3 n=28 v=100
2830061 On ch=3 n=12 v=100
2830070 On ch=3 n=26 v=100
2830242 Off ch=3 n=12 v=0
2830243 On ch=3 n=8 v=100
2830247 Off ch=3 n=53 v=0
2830251 Off ch=3 n=28 v=0
2830289 Off ch=3 n=26 v=0
2830297 Off ch=3 n=48 v=0
2830398 On ch=3 n=42 v=100
2830444 On ch=3 n=8 v=100
2830489 Off ch=3 n=8 v=0
2830578 Off ch=3 n=42 v=0
2830596 Off ch=3 n=8 v=0
2832732 On ch=3 n=4 v=100
2832734 On ch=3 n=39 v=100
2832833 Off ch=3 n=4 v=0
2832837 On ch=3 n=15 v=100
2832981 On ch=3 n=8 v=100
2832983 Off ch=3 n=39 v=0
2832997 Off ch=3 n=15 v=0
2833429 Off ch=3 n=8 v=0
2838293 On ch=3 n=23 v=100
2838409 Off ch=3 n=23 v=0
2838421 On ch=3 n=12 v=100
2838424 On ch=3 n=26 v=100
2838474 Off ch=3 n=12 v=0
2838485 Off ch=3 n=26 v=0
2839438 On ch=3 n=32 v=100
2839459 On ch=3 n=14 v=100
2839459 On ch=3 n=24 v=100
2839569 Off ch=3 n=32 v=0
2839583 Off ch=3 n=14 v=0
2839613 Off ch=3 n=24 v=0
2840031 On ch=3 n=28 v=100
2840397 Off ch=3 n=28 v=0
2840513 On ch=3 n=21 v=100
2840947 On ch=3 n=29 v=100
2840947 Off ch=3 n=21 v=0
2841078 Off ch=3 n=29 v=0
2841104 On ch=3 n=21 v=100
2841241 On ch=3 n=33 v=100
2841282 Off ch=3 n=21 v=0
2841414 Off ch=3 n=33 v=0
2841481 On ch=3 n=27 v=100
2841725 Off ch=3 n=27 v=0
2841727 On ch=3 n=41 v=100
2841829 Off ch=3 n=41 v=0
2842023 On ch=3 n=9 v=100
2842391 Off ch=3 n=9 v=0
2843332 On ch=3 n=7 v=100
2843338 On ch=3 n=15 v=100
2843738 Off ch=3 n=7 v=0
2843739 Off ch=3 n=15 v=0
2843773 On ch=3 n=15 v=100
2843917 Off ch=3 n=15 v=0
2843990 On ch=3 n=26 v=100
2844056 Off ch=3 n=26 v=0
2844193 On ch=3 n=40 v=100
2844340 Off ch=3 n=40 v=0
2846263 On ch=3 n=32 v=100
2846359 On ch=3 n=34 v=100
2846395 Off ch=3 n=32 v=0
2846395 Off ch=3 n=34 v=0
2846624 On ch=3 n=34 v=100
2846624 On ch=3 n=27 v=100
2846692 Off ch=3 n=34 v=0
2846767 Off ch=3 n=27 v=0
2846803 On ch=3 n=37 v=100
2847088 Off ch=3 n=37 v=0
2847307 On ch=3 n=12 v=100
2847643 On ch=3 n=14 v=100
2847648 Off ch=3 n=12 v=0
2847812 Off ch=3 n=14 v=0
2848717 On ch=3 n=7 v=100
2848819 On ch=3 n=6 v=100
2848921 Off ch=3 n=7 v=0
2849127 Off ch=3 n=6 v=0
2849947 On ch=3 n=2 v=100
2849948 On ch=3 n=16 v=100
2849984 Off ch=3 n=2 v=0
2849987 On ch=3 n=12 v=100
2850002 Off ch=3 n=16 v=0
2850305 Off ch=3 n=12 v=0
2850995 On ch=3 n=22 v=100
2851050 On ch=3 n=9 v=100
2851056 Off ch=3 n=22 v=0
2851389 Off ch=3 n=9 v=0
2851648 On ch=3 n=17 v=100
2851698 On ch=3 n=13 v=100
2851716 On ch=3 n=22 v=100
2852090 Off ch=3 n=17 v=0
2852103 Off ch=3 n=13 v=0
2852104 On ch=3 n=20 v=100
2852110 On ch=3 n=31 v=100
2852300 Off ch=3 n=22 v=0
2852330 Off ch=3 n=20 v=0
2852366 Off ch=3 n=31 v=0
2852468 On ch=3 n=23 v=100
2852495 On ch=3 n=9 v=100
2852588 On ch=3 n=17 v=100
2852600 Off ch=3 n=23 v=0
2853055 Off ch=3 n=9 v=0
2853065 On ch=3 n=7 v=100
2853147 Off ch=3 n=17 v=0
2853362 Off ch=3 n=7 v=0
2853363 On ch=3 n=8 v=100
2853489 Off ch=3 n=8 v=0
2853491 On ch=3 n=21 v=100
2853703 Off ch=3 n=21 v=0
2854730 On ch=3 n=27 v=100
2854810 Off ch=3 n=27 v=0
2854834 On ch=3 n=42 v=100
2855269 Off ch=3 n=42 v=0
2855304 On ch=3 n=9 v=100
2856158 On ch=3 n=18 v=100
2856342 Off ch=3 n=9 v=0
2856540 Off ch=3 n=18 v=0
2856624 On ch=3 n=18 v=100
2856944 Off ch=3 n=18 v=0
2860519 On ch=3 n=17 v=100
2860732 Off ch=3 n=17 v=0
2861039 On ch=3 n=30 v=100
2861350 Off ch=3 n=30 v=0
2861466 On ch=3 n=22 v=100
2861602 Off ch=3 n=22 v=0
2861611 On ch=3 n=14 v=100
2861932 Off ch=3 n=14 v=0
2861939 On ch=3 n=13 v=100
2862129 On ch=3 n=31 v=100
2862310 Off ch=3 n=13 v=0
2862315 On ch=3 n=17 v=100
2862332 Off ch=3 n=31 v=0
2862678 Off ch=3 n=17 v=0
2862782 On ch=3 n=8 v=100
2862993 Off ch=3 n=8 v=0
2863061 On ch=3 n=8 v=100
2863084 Off ch=3 n=8 v=0
2863236 On ch=3 n=1 v=100
2866897 On ch=3 n=10 v=100
2866964 Off ch=3 n=1 v=0
2866973 Off ch=3 n=10 v=0
2867671 On ch=3 n=22 v=100
2867683 Off ch=3 n=22 v=0
2867736 On ch=3 n=22 v=100
2867742 On ch=3 n=24 v=100
2867745 On ch=3 n=5 v=100
2867800 Off ch=3 n=22 v=0
2867801 Off ch=3 n=5 v=0
2867803 On ch=3 n=15 v=100
2867810 Off ch=3 n=24 v=0
2868106 On ch=3 n=44 v=100
2868309 On ch=3 n=35 v=100
2868313 Off ch=3 n=15 v=0
2868363 On ch=3 n=56 v=100
2868373 Off ch=3 n=44 v=0
2868373 Off ch=3 n=35 v=0
2868373 Off ch=3 n=56 v=0
2868453 On ch=3 n=44 v=100
2868453 On ch=3 n=18 v=100
2868453 On ch=3 n=56 v=100
2868454 On ch=3 n=14 v=100
2868454 On ch=3 n=39 v=100
2868492 Off ch=3 n=44 v=0
2868513 Off ch=3 n=18 v=0
2868514 On ch=3 n=14 v=100
2868527 Off ch=3 n=14 v=0
2868537 Off ch=3 n=56 v=0
2868545 Off ch=3 n=14 v=0
2868545 Off ch=3 n=39 v=0
2868574 On ch=3 n=39 v=100
2868574 On ch=3 n=14 v=100
2868595 Off ch=3 n=39 v=0
2868697 Off ch=3 n=14 v=0
2868699 On ch=3 n=11 v=100
2869229 On ch=3 n=16 v=100
2869240 Off ch=3 n=11 v=0
2869442 On ch=3 n=12 v=100
2869486 Off ch=3 n=16 v=0
2869487 On ch=3 n=12 v=100
2869495 Off ch=3 n=12 v=0
2869741 Off ch=3 n=12 v=0
2869820 On ch=3 n=12 v=100
2870294 On ch=3 n=26 v=100
2870295 Off ch=3 n=12 v=0
2870314 On ch=3 n=21 v=100
2870443 On ch=3 n=20 v=100
2870462 Off ch=3 n=26 v=0
2870464 Off ch=3 n=21 v=0
2870572 Off ch=3 n=20 v=0
2870919 On ch=3 n=29 v=100
2871025 On ch=3 n=27 v=100
2871041 On ch=3 n=34 v=100
2871051 On ch=3 n=19 v=100
2871176 Off ch=3 n=29 v=0
2871176 Off ch=3 n=19 v=0
2871190 Off ch=3 n=27 v=0
2871227 Off ch=3 n=34 v=0
2871362 On ch=3 n=13 v=100
2872110 Off ch=3 n=13 v=0
2872732 On ch=3 n=20 v=100
2872883 Off ch=3 n=20 v=0
2874088 On ch=3 n=33 v=100
2874108 On ch=3 n=16 v=100
2874214 Off ch=3 n=33 v=0
2874483 Off ch=3 n=16 v=0
2874486 On ch=3 n=8 v=100
2874741 On ch=3 n=7 v=100
2874743 Off ch=3 n=8 v=0
2874820 Off ch=3 n=7 v=0
2874822 On ch=3 n=23 v=100
2874927 Off ch=3 n=23 v=0
2875055 On ch=3 n=7 v=100
2875079 On ch=3 n=18 v=100
2875114 Off ch=3 n=7 v=0
2875132 Off ch=3 n=18 v=0
2880051 On ch=3 n=11 v=100
2880126 On ch=3 n=17 v=100
2880129 Off ch=3 n=11 v=0
2880314 Off ch=3 n=17 v=0
2880708 On ch=3 n=30 v=100
2881001 Off ch=3 n=30 v=0
2881943 On ch=3 n=15 v=100
2882151 Off ch=3 n=15 v=0
2883235 On ch=3 n=16 v=100
2883989 Off ch=3 n=16 v=0
2884027 On ch=3 n=15 v=100
2884069 Off ch=3 n=15 v=0
2884070 On ch=3 n=24 v=100
2884186 On ch=3 n=35 v=100
2884265 On ch=3 n=10 v=100
2884269 On ch=3 n=22 v=100
2884275 Off ch=3 n=24 v=0
2884397 Off ch=3 n=10 v=0
2884398 Off ch=3 n=35 v=0
2884398 Off ch=3 n=22 v=0
2884540 On ch=3 n=22 v=100
2884540 On ch=3 n=35 v=100
2884540 On ch=3 n=8 v=100
2884542 Off ch=3 n=35 v=0
2884560 Off ch=3 n=22 v=0
2884821 Off ch=3 n=8 v=0
2884846 On ch=3 n=40 v=100
2884851 On ch=3 n=27 v=100
2884888 On ch=3 n=36 v=100
2884888 On ch=3 n=36 v=100
2884939 On ch=3 n=9 v=100
2885101 Off ch=3 n=27 v=0
2885128 Off ch=3 n=9 v=0
2885131 On ch=3 n=23 v=100
2885131 On ch=3 n=23 v=100
2885159 Off ch=3 n=40 v=0
2885209 Off ch=3 n=36 v=0
2885209 Off ch=3 n=36 v=0
2885276 Off ch=3 n=23 v=0
2885276 Off ch=3 n=23 v=0
2885335 On ch=3 n=14 v=100
2885804 Off ch=3 n=14 v=0
2885807 On ch=3 n=10 v=100
2885998 Off ch=3 n=10 v=0
2886010 On ch=3 n=14 v=100
2886269 Off ch=3 n=14 v=0
2886303 On ch=3 n=10 v=100
2886334 Off ch=3 n=10 v=0
2886339 On ch=3 n=29 v=100
2886363 On ch=3 n=12 v=100
2886469 Off ch=3 n=29 v=0
2886666 Off ch=3 n=12 v=0
2886670 On ch=3 n=11 v=100
2887231 On ch=3 n=34 v=100
2887285 On ch=3 n=20 v=100
2887323 On ch=3 n=12 v=100
2887329 Off ch=3 n=11 v=0
2887458 Off ch=3 n=34 v=0
2887458 Off ch=3 n=20 v=0
2887459 On ch=3 n=22 v=100
2887618 Off ch=3 n=12 v=0
2887631 Off ch=3 n=22 v=0
2887664 On ch=3 n=22 v=100
2887785 On ch=3 n=7 v=100
2887790 Off ch=3 n=22 v=0
2887971 Off ch=3 n=7 v=0
2887973 On ch=3 n=4 v=100
2888211 On ch=3 n=20 v=100
2888216 Off ch=3 n=4 v=0
2888481 Off ch=3 n=20 v=0
2888549 On ch=3 n=1 v=100
2888611 Off ch=3 n=1 v=0
2888713 On ch=3 n=16 v=100
2888713 On ch=3 n=18 v=100
2888904 Off ch=3 n=16 v=0
2888933 Off ch=3 n=18 v=0
2889208 On ch=3 n=23 v=100
2889495 Off ch=3 n=23 v=0
2890021 On ch=3 n=32 v=100
2890123 Off ch=3 n=32 v=0
2890164 On ch=3 n=32 v=100
2890164 On ch=3 n=32 v=100
2890201 On ch=3 n=21 v=100
2890262 On ch=3 n=18 v=100
2890263 On ch=3 n=18 v=100
2890685 Off ch=3 n=21 v=0
2890695 Off ch=3 n=18 v=0
2890719 Off ch=3 n=32 v=0
2890719 Off ch=3 n=32 v=0
2890746 Off ch=3 n=18 v=0
2890818 On ch=3 n=5 v=100
2890982 On ch=3 n=19 v=100
2891071 Off ch=3 n=5 v=0
2891098 On ch=3 n=20 v=100
2891101 On ch=3 n=11 v=100
2891107 On ch=3 n=17 v=100
2891463 Off ch=3 n=19 v=0
2891466 Off ch=3 n=11 v=0
2891540 Off ch=3 n=17 v=0
2891615 Off ch=3 n=20 v=0
2892685 On ch=3 n=9 v=100
2893157 Off ch=3 n=9 v=0
2893546 On ch=3 n=9 v=100
2894638 On ch=3 n=28 v=100
2894682 On ch=3 n=39 v=100
2894713 Off ch=3 n=9 v=0
2894713 Off ch=3 n=28 v=0
2894713 Off ch=3 n=39 v=0
2894790 On ch=3 n=28 v=100
2894790 On ch=3 n=38 v=100
2894790 On ch=3 n=39 v=100
2894886 Off ch=3 n=28 v=0
2894902 Off ch=3 n=39 v=0
2894968 Off ch=3 n=38 v=0
2895817 On ch=3 n=24 v=100
2895817 On ch=3 n=24 v=100
2895852 On ch=3 n=18 v=100
2896202 Off ch=3 n=18 v=0
2896220 Off ch=3 n=24 v=0
2896220 Off ch=3 n=24 v=0
2897540 On ch=3 n=12 v=100
2898039 On ch=3 n=39 v=100
2898040 Off ch=3 n=12 v=0
2898041 On ch=3 n=20 v=100
2898043 On ch=3 n=18 v=100
2898177 Off ch=3 n=20 v=0
2898199 Off ch=3 n=18 v=0
2898349 Off ch=3 n=39 v=0
2898402 On ch=3 n=43 v=100
2898424 Off ch=3 n=43 v=0
2898468 On ch=3 n=43 v=100
2898468 On ch=3 n=18 v=100
2898637 Off ch=3 n=43 v=0
2898748 On ch=3 n=34 v=100
2898759 Off ch=3 n=18 v=0
2898797 On ch=3 n=23 v=100
2898914 Off ch=3 n=34 v=0
2898914 Off ch=3 n=23 v=0
2899757 On ch=3 n=11 v=100
2900238 On ch=3 n=27 v=100
2900333 Off ch=3 n=11 v=0
2900352 Off ch=3 n=27 v=0
2900927 On ch=3 n=13 v=100
2901095 Off ch=3 n=13 v=0
2901217 On ch=3 n=13 v=100
2901386 Off ch=3 n=13 v=0
2902838 On ch=3 n=23 v=100
2902863 Off ch=3 n=23 v=0
2902883 On ch=3 n=18 v=100
2903126 On ch=3 n=39 v=100
2903173 On ch=3 n=47 v=100
2903174 On ch=3 n=46 v=100
2903191 On ch=3 n=47 v=100
2903191 On ch=3 n=31 v=100
2903255 Off ch=3 n=18 v=0
2903317 Off ch=3 n=31 v=0
2903325 Off ch=3 n=46 v=0
2903359 Off ch=3 n=39 v=0
2903359 Off ch=3 n=47 v=0
2903369 Off ch=3 n=47 v=0
2903396 On ch=3 n=13 v=100
2903621 On ch=3 n=29 v=100
2903630 Off ch=3 n=13 v=0
2903710 Off ch=3 n=29 v=0
2905255 On ch=3 n=25 v=100
2905414 Off ch=3 n=25 v=0
2905436 On ch=3 n=25 v=100
2905634 Off ch=3 n=25 v=0
2906909 On ch=3 n=14 v=100
2907092 Off ch=3 n=14 v=0
2907148 On ch=3 n=18 v=100
2907318 On ch=3 n=10 v=100
2907339 Off ch=3 n=18 v=0
2907625 On ch=3 n=39 v=100
2907681 Off ch=3 n=10 v=0
2907693 On ch=3 n=18 v=100
2907872 Off ch=3 n=39 v=0
2908090 Off ch=3 n=18 v=0
2911006 On ch=3 n=20 v=100
2911058 Off ch=3 n=20 v=0
2911119 On ch=3 n=20 v=100
2911133 On ch=3 n=12 v=100
2911527 Off ch=3 n=20 v=0
2911533 Off ch=3 n=12 v=0
2912399 On ch=3 n=14 v=100
2912680 On ch=3 n=34 v=100
2912919 Off ch=3 n=14 v=0
2912961 Off ch=3 n=34 v=0
2912970 On ch=3 n=29 v=100
2913039 Off ch=3 n=29 v=0
2913404 On ch=3 n=29 v=100
2913446 On ch=3 n=23 v=100
2913474 On ch=3 n=19 v=100
2913491 On ch=3 n=19 v=100
2913492 Off ch=3 n=29 v=0
2913550 Off ch=3 n=23 v=0
2913550 Off ch=3 n=19 v=0
2913578 Off ch=3 n=19 v=0
2913936 On ch=3 n=13 v=100
2913967 Off ch=3 n=13 v=0
2914153 On ch=3 n=14 v=100
2914243 Off ch=3 n=14 v=0
2914457 On ch=3 n=23 v=100
2914525 Off ch=3 n=23 v=0
2914790 On ch=3 n=20 v=100
2914868 Off ch=3 n=20 v=0
2915122 On ch=3 n=9 v=100
2916035 On ch=3 n=20 v=100
2916067 On ch=3 n=25 v=100
2916174 On ch=3 n=9 v=100
2916194 Off ch=3 n=9 v=0
2916229 Off ch=3 n=20 v=0
2916400 Off ch=3 n=25 v=0
2916441 Off ch=3 n=9 v=0
2916448 On ch=3 n=5 v=100
2916756 Off ch=3 n=5 v=0
2916835 On ch=3 n=18 v=100
2916928 Off ch=3 n=18 v=0
2917030 On ch=3 n=13 v=100
2917231 Off ch=3 n=13 v=0
2917233 On ch=3 n=18 v=100
2917338 Off ch=3 n=18 v=0
2918187 On ch=3 n=14 v=100
2918576 Off ch=3 n=14 v=0
2918741 On ch=3 n=29 v=100
2918827 Off ch=3 n=29 v=0
2918858 On ch=3 n=35 v=100
2918868 Off ch=3 n=35 v=0
2918952 On ch=3 n=35 v=100
2919053 Off ch=3 n=35 v=0
2919310 On ch=3 n=26 v=100
2919454 Off ch=3 n=26 v=0
2919503 On ch=3 n=26 v=100
2919534 Off ch=3 n=26 v=0
2919581 On ch=3 n=26 v=100
2919592 Off ch=3 n=26 v=0
2920054 On ch=3 n=36 v=100
2920124 Off ch=3 n=36 v=0
2920204 On ch=3 n=9 v=100
2920205 On ch=3 n=36 v=100
2920279 Off ch=3 n=36 v=0
2920674 Off ch=3 n=9 v=0
2921251 On ch=3 n=21 v=100
2921437 On ch=3 n=18 v=100
2921731 Off ch=3 n=21 v=0
2921754 Off ch=3 n=18 v=0
2921822 On ch=3 n=18 v=100
2921917 On ch=3 n=19 v=100
2921999 Off ch=3 n=18 v=0
2922001 Off ch=3 n=19 v=0
2922093 On ch=3 n=19 v=100
2922180 On ch=3 n=19 v=100
2922234 Off ch=3 n=19 v=0
2922234 Off ch=3 n=19 v=0
2922273 On ch=3 n=19 v=100
2922280 On ch=3 n=27 v=100
2922615 Off ch=3 n=19 v=0
2922621 Off ch=3 n=27 v=0
2922659 On ch=3 n=19 v=100
2922659 On ch=3 n=27 v=100
2922715 Off ch=3 n=19 v=0
2922848 Off ch=3 n=27 v=0
2935806 On ch=3 n=3 v=100
2937010 Off ch=3 n=3 v=0
2938344 On ch=3 n=13 v=100
2938814 Off ch=3 n=13 v=0
2938843 On ch=3 n=1 v=100
2945073 On ch=3 n=15 v=100
2945125 Off ch=3 n=1 v=0
2945127 On ch=3 n=4 v=100
2945357 Off ch=3 n=15 v=0
2945612 Off ch=3 n=4 v=0
2945730 On ch=3 n=1 v=100
2947571 Off ch=3 n=1 v=0
2948105 On ch=3 n=20 v=100
2948132 On ch=3 n=10 v=100
2948141 On ch=3 n=1 v=100
2948163 Off ch=3 n=20 v=0
2948212 Off ch=3 n=10 v=0
2949030 Off ch=3 n=1 v=0
2949254 On ch=3 n=6 v=100
2950006 On ch=3 n=60 v=100
2950214 Off ch=3 n=6 v=0
2950216 On ch=3 n=2 v=100
2950274 Off ch=3 n=60 v=0
2950616 On ch=3 n=16 v=100
2950617 Off ch=3 n=2 v=0
2950816 Off ch=3 n=16 v=0
2950975 On ch=3 n=10 v=100
2951257 Off ch=3 n=10 v=0
2951259 On ch=3 n=19 v=100
2951358 Off ch=3 n=19 v=0
2951524 On ch=3 n=30 v=100
2951721 Off ch=3 n=30 v=0
2951764 On ch=3 n=8 v=100
2951966 Off ch=3 n=8 v=0
2951968 On ch=3 n=6 v=100
2952235 On ch=3 n=7 v=100
2952235 Off ch=3 n=6 v=0
2952436 Off ch=3 n=7 v=0
2952490 On ch=3 n=20 v=100
2952675 Off ch=3 n=20 v=0
2952684 On ch=3 n=28 v=100
2952723 Off ch=3 n=28 v=0
2953363 On ch=3 n=14 v=100
2953454 Off ch=3 n=14 v=0
2953457 On ch=3 n=23 v=100
2953698 On ch=3 n=40 v=100
2953717 On ch=3 n=25 v=100
2953723 Off ch=3 n=23 v=0
2953838 Off ch=3 n=40 v=0
2953852 Off ch=3 n=25 v=0
2953856 On ch=3 n=0 v=100
2953888 Off ch=3 n=0 v=0
2953889 On ch=3 n=14 v=100
2954067 Off ch=3 n=14 v=0
2954074 On ch=3 n=9 v=100
2954074 On ch=3 n=17 v=100
2954261 Off ch=3 n=9 v=0
2954385 Off ch=3 n=17 v=0
2954587 On ch=3 n=17 v=100
2955009 Off ch=3 n=17 v=0
2955036 On ch=3 n=12 v=100
2955745 Off ch=3 n=12 v=0
2955753 On ch=3 n=29 v=100
2955855 Off ch=3 n=29 v=0
2955858 On ch=3 n=6 v=100
2956537 On ch=3 n=41 v=100
2957033 Off ch=3 n=6 v=0
2957034 On ch=3 n=5 v=100
2957239 Off ch=3 n=41 v=0
2957335 Off ch=3 n=5 v=0
2957345 On ch=3 n=25 v=100
2957515 Off ch=3 n=25 v=0
2958220 On ch=3 n=37 v=100
2958318 Off ch=3 n=37 v=0
2958451 On ch=3 n=29 v=100
2958451 On ch=3 n=29 v=100
2958472 On ch=3 n=24 v=100
2958522 On ch=3 n=80 v=100
2958522 On ch=3 n=80 v=100
2958624 Off ch=3 n=29 v=0
2958624 Off ch=3 n=29 v=0
2958625 Off ch=3 n=24 v=0
2958678 On ch=3 n=12 v=100
2958857 Off ch=3 n=80 v=0
2958857 Off ch=3 n=80 v=0
2958857 Off ch=3 n=12 v=0
2958931 On ch=3 n=12 v=100
2958931 On ch=3 n=80 v=100
2958985 On ch=3 n=45 v=100
2959042 Off ch=3 n=12 v=0
2959067 Off ch=3 n=45 v=0
2959067 Off ch=3 n=80 v=0
2959141 On ch=3 n=80 v=100
2959141 On ch=3 n=45 v=100
2959184 Off ch=3 n=80 v=0
2959272 Off ch=3 n=45 v=0
2960610 On ch=3 n=36 v=100
2960656 On ch=3 n=20 v=100
2960791 Off ch=3 n=20 v=0
2960792 Off ch=3 n=36 v=0
2960919 On ch=3 n=17 v=100
2961309 Off ch=3 n=17 v=0
2961365 On ch=3 n=17 v=100
2961935 Off ch=3 n=17 v=0
2962256 On ch=3 n=10 v=100
2962410 Off ch=3 n=10 v=0
2962413 On ch=3 n=12 v=100
2962617 On ch=3 n=23 v=100
2962618 Off ch=3 n=12 v=0
2962752 Off ch=3 n=23 v=0
2962793 On ch=3 n=31 v=100
2962995 Off ch=3 n=31 v=0
2963001 On ch=3 n=15 v=100
2963305 On ch=3 n=2 v=100
2963311 Off ch=3 n=15 v=0
2963596 Off ch=3 n=2 v=0
2963599 On ch=3 n=7 v=100
2963826 Off ch=3 n=7 v=0
2963846 On ch=3 n=6 v=100
2964194 On ch=3 n=10 v=100
2964194 Off ch=3 n=6 v=0
2964307 Off ch=3 n=10 v=0
2964311 On ch=3 n=9 v=100
2964375 Off ch=3 n=9 v=0
2964383 On ch=3 n=20 v=100
2965435 Off ch=3 n=20 v=0
2965457 On ch=3 n=15 v=100
2965789 Off ch=3 n=15 v=0
2965905 On ch=3 n=33 v=100
2965931 On ch=3 n=34 v=100
2965991 Off ch=3 n=33 v=0
2965991 Off ch=3 n=34 v=0
2966338 On ch=3 n=13 v=100
2966369 Off ch=3 n=13 v=0
2966371 On ch=3 n=9 v=100
2966838 Off ch=3 n=9 v=0
2966840 On ch=3 n=0 v=100
2966895 Off ch=3 n=0 v=0
2966924 On ch=3 n=14 v=100
2966929 On ch=3 n=28 v=100
2967378 Off ch=3 n=14 v=0
2967437 On ch=3 n=10 v=100
2967505 Off ch=3 n=28 v=0
2967508 On ch=3 n=18 v=100
2967517 Off ch=3 n=10 v=0
2967733 On ch=3 n=7 v=100
2967737 Off ch=3 n=18 v=0
2967811 Off ch=3 n=7 v=0
2969002 On ch=3 n=43 v=100
2969127 Off ch=3 n=43 v=0
2970276 On ch=3 n=16 v=100
2970324 On ch=3 n=13 v=100
2970342 Off ch=3 n=16 v=0
2970706 Off ch=3 n=13 v=0
2970727 On ch=3 n=14 v=100
2970995 On ch=3 n=55 v=100
2971077 Off ch=3 n=14 v=0
2971091 On ch=3 n=29 v=100
2971091 On ch=3 n=29 v=100
2971136 Off ch=3 n=55 v=0
2971149 On ch=3 n=42 v=100
2971149 On ch=3 n=42 v=100
2971206 On ch=3 n=10 v=100
2971281 Off ch=3 n=29 v=0
2971281 Off ch=3 n=29 v=0
2971313 Off ch=3 n=10 v=0
2971354 Off ch=3 n=42 v=0
2971354 Off ch=3 n=42 v=0
2972730 On ch=3 n=28 v=100
2973106 Off ch=3 n=28 v=0
2973363 On ch=3 n=31 v=100
2973394 On ch=3 n=18 v=100
2973427 On ch=3 n=17 v=100
2973448 On ch=3 n=12 v=100
2973544 On ch=3 n=42 v=100
2973565 On ch=3 n=31 v=100
2973569 Off ch=3 n=31 v=0
2973569 Off ch=3 n=18 v=0
2973569 Off ch=3 n=17 v=0
2973569 Off ch=3 n=12 v=0
2973711 Off ch=3 n=42 v=0
2973827 Off ch=3 n=31 v=0
2974134 On ch=3 n=22 v=100
2974151 On ch=3 n=14 v=100
2974172 On ch=3 n=9 v=100
2974273 On ch=3 n=36 v=100
2974292 Off ch=3 n=22 v=0
2974292 Off ch=3 n=14 v=0
2974292 Off ch=3 n=9 v=0
2974363 Off ch=3 n=36 v=0
2974394 On ch=3 n=36 v=100
2974468 Off ch=3 n=36 v=0
2975075 On ch=3 n=20 v=100
2975195 On ch=3 n=23 v=100
2975228 On ch=3 n=24 v=100
2975583 Off ch=3 n=20 v=0
2975583 Off ch=3 n=23 v=0
2975583 Off ch=3 n=24 v=0
2975656 On ch=3 n=23 v=100
2975706 Off ch=3 n=23 v=0
2975785 On ch=3 n=24 v=100
2975846 Off ch=3 n=24 v=0
2976675 On ch=3 n=16 v=100
2976782 Off ch=3 n=16 v=0
2976893 On ch=3 n=35 v=100
2976908 On ch=3 n=23 v=100
2976919 On ch=3 n=29 v=100
2976938 On ch=3 n=12 v=100
2976985 Off ch=3 n=35 v=0
2976985 Off ch=3 n=23 v=0
2976986 On ch=3 n=15 v=100
2976991 Off ch=3 n=12 v=0
2976993 Off ch=3 n=29 v=0
2977033 On ch=3 n=13 v=100
2977259 On ch=3 n=10 v=100
2977259 On ch=3 n=10 v=100
2977339 On ch=3 n=33 v=100
2977339 On ch=3 n=33 v=100
2977350 Off ch=3 n=15 v=0
2977353 On ch=3 n=28 v=100
2977403 On ch=3 n=28 v=100
2977405 Off ch=3 n=10 v=0
2977405 Off ch=3 n=10 v=0
2977406 On ch=3 n=14 v=100
2977406 Off ch=3 n=13 v=0
2977489 Off ch=3 n=14 v=0
2977552 Off ch=3 n=28 v=0
2977561 On ch=3 n=3 v=100
2977566 Off ch=3 n=33 v=0
2977566 Off ch=3 n=33 v=0
2977567 Off ch=3 n=28 v=0
2977644 Off ch=3 n=3 v=0
2977682 On ch=3 n=9 v=100
2978188 On ch=3 n=36 v=100
2978266 On ch=3 n=46 v=100
2978266 On ch=3 n=46 v=100
2978316 On ch=3 n=9 v=100
2978316 Off ch=3 n=9 v=0
2978339 Off ch=3 n=36 v=0
2978562 On ch=3 n=9 v=100
2978563 Off ch=3 n=9 v=0
2978645 Off ch=3 n=46 v=0
2978645 Off ch=3 n=46 v=0
2978905 Off ch=3 n=9 v=0
2979131 On ch=3 n=11 v=100
2979681 On ch=3 n=39 v=100
2979767 On ch=3 n=37 v=100
2979768 Off ch=3 n=11 v=0
2980101 Off ch=3 n=39 v=0
2980195 Off ch=3 n=37 v=0
2981303 On ch=3 n=28 v=100
2981321 On ch=3 n=39 v=100
2981325 On ch=3 n=21 v=100
2981382 Off ch=3 n=21 v=0
2981383 Off ch=3 n=28 v=0
2981476 Off ch=3 n=39 v=0
2981703 On ch=3 n=6 v=100
2981882 On ch=3 n=42 v=100
2981921 On ch=3 n=35 v=100
2981925 On ch=3 n=36 v=100
2981925 Off ch=3 n=6 v=0
2981942 On ch=3 n=24 v=100
2982026 Off ch=3 n=42 v=0
2982036 Off ch=3 n=36 v=0
2982038 Off ch=3 n=24 v=0
2982050 Off ch=3 n=35 v=0
2982071 On ch=3 n=34 v=100
2982135 Off ch=3 n=34 v=0
2984415 On ch=3 n=31 v=100
2984616 Off ch=3 n=31 v=0
2994657 On ch=3 n=42 v=100
2994823 Off ch=3 n=42 v=0
2998964 On ch=3 n=23 v=100
2999107 On ch=3 n=14 v=100
2999286 On ch=3 n=15 v=100
2999328 On ch=3 n=17 v=100
2999330 On ch=3 n=9 v=100
2999331 Off ch=3 n=23 v=0
2999331 Off ch=3 n=14 v=0
2999476 Off ch=3 n=9 v=0
2999482 Off ch=3 n=15 v=0
2999507 Off ch=3 n=17 v=0
3001221 On ch=3 n=28 v=100
3001295 Off ch=3 n=28 v=0
3001441 On ch=3 n=9 v=100
3001901 Off ch=3 n=9 v=0
3001902 On ch=3 n=8 v=100
3002827 Off ch=3 n=8 v=0
3002900 On ch=3 n=15 v=100
3003102 Off ch=3 n=15 v=0
3003127 On ch=3 n=11 v=100
3003136 On ch=3 n=31 v=100
3003136 On ch=3 n=14 v=100
3003179 Off ch=3 n=11 v=0
3003339 On ch=3 n=10 v=100
3003342 Off ch=3 n=14 v=0
3003459 Off ch=3 n=31 v=0
3003544 Off ch=3 n=10 v=0
3004825 On ch=3 n=28 v=100
3004843 On ch=3 n=15 v=100
3004962 Off ch=3 n=28 v=0
3005130 Off ch=3 n=15 v=0
3005410 On ch=3 n=31 v=100
3005567 Off ch=3 n=31 v=0
3005596 On ch=3 n=15 v=100
3005785 On ch=3 n=35 v=100
3005793 Off ch=3 n=15 v=0
3005849 Off ch=3 n=35 v=0
3005907 On ch=3 n=19 v=100
3006016 On ch=3 n=19 v=100
3006035 Off ch=3 n=19 v=0
3006196 Off ch=3 n=19 v=0
3006204 On ch=3 n=25 v=100
3006393 Off ch=3 n=25 v=0
3006400 On ch=3 n=13 v=100
3007608 Off ch=3 n=13 v=0
3007610 On ch=3 n=19 v=100
3007610 On ch=3 n=30 v=100
3007636 On ch=3 n=15 v=100
3007862 Off ch=3 n=15 v=0
3007864 Off ch=3 n=19 v=0
3007951 On ch=3 n=11 v=100
3007951 Off ch=3 n=30 v=0
3008677 On ch=3 n=8 v=100
3008677 Off ch=3 n=11 v=0
3009372 Off ch=3 n=8 v=0
3009375 On ch=3 n=9 v=100
3009502 Off ch=3 n=9 v=0
3009503 On ch=3 n=9 v=100
3009856 Off ch=3 n=9 v=0
3011524 On ch=3 n=23 v=100
3011891 Off ch=3 n=23 v=0
3012243 On ch=3 n=15 v=100
3012360 On ch=3 n=47 v=100
3012482 Off ch=3 n=15 v=0
3012486 Off ch=3 n=47 v=0
3012682 On ch=3 n=47 v=100
3012860 Off ch=3 n=47 v=0
3013921 On ch=3 n=5 v=100
3013995 Off ch=3 n=5 v=0
3014320 On ch=3 n=5 v=100
3015415 Off ch=3 n=5 v=0
3017789 On ch=3 n=31 v=100
3017815 On ch=3 n=25 v=100
3017835 On ch=3 n=17 v=100
3017941 Off ch=3 n=25 v=0
3017949 Off ch=3 n=31 v=0
3017949 Off ch=3 n=17 v=0
3017954 On ch=3 n=12 v=100
3018596 Off ch=3 n=12 v=0
3018598 On ch=3 n=22 v=100
3018604 On ch=3 n=39 v=100
3018733 Off ch=3 n=22 v=0
3018772 Off ch=3 n=39 v=0
3019832 On ch=3 n=24 v=100
3020265 Off ch=3 n=24 v=0
3020305 On ch=3 n=13 v=100
3020350 Off ch=3 n=13 v=0
3020565 On ch=3 n=6 v=100
3020818 Off ch=3 n=6 v=0
3020891 On ch=3 n=20 v=100
3021028 Off ch=3 n=20 v=0
3021256 On ch=3 n=28 v=100
3021256 On ch=3 n=28 v=100
3021529 On ch=3 n=7 v=100
3021544 Off ch=3 n=28 v=0
3021544 Off ch=3 n=28 v=0
3022176 On ch=3 n=6 v=100
3022179 Off ch=3 n=7 v=0
3022730 On ch=3 n=14 v=100
3022757 Off ch=3 n=6 v=0
3022758 On ch=3 n=12 v=100
3022948 Off ch=3 n=14 v=0
3022959 On ch=3 n=21 v=100
3023277 Off ch=3 n=12 v=0
3023430 Off ch=3 n=21 v=0
3024657 On ch=3 n=16 v=100
3025083 Off ch=3 n=16 v=0
3025430 On ch=3 n=33 v=100
3025491 On ch=3 n=17 v=100
3025548 Off ch=3 n=17 v=0
3025550 Off ch=3 n=33 v=0
3025608 On ch=3 n=8 v=100
3025723 Off ch=3 n=8 v=0
3026422 On ch=3 n=33 v=100
3026678 Off ch=3 n=33 v=0
3026759 On ch=3 n=10 v=100
3027114 Off ch=3 n=10 v=0
3027116 On ch=3 n=23 v=100
3027371 On ch=3 n=16 v=100
3027673 Off ch=3 n=23 v=0
3027825 Off ch=3 n=16 v=0
3028429 On ch=3 n=10 v=100
3029153 Off ch=3 n=10 v=0
3029159 On ch=3 n=28 v=100
3029161 On ch=3 n=28 v=100
3029212 On ch=3 n=25 v=100
3029241 On ch=3 n=18 v=100
3029258 Off ch=3 n=28 v=0
3029270 Off ch=3 n=28 v=0
3029358 Off ch=3 n=25 v=0
3029358 Off ch=3 n=18 v=0
3029391 On ch=3 n=18 v=100
3029391 On ch=3 n=33 v=100
3029516 Off ch=3 n=18 v=0
3029551 Off ch=3 n=33 v=0
3029674 On ch=3 n=24 v=100
3029769 Off ch=3 n=24 v=0
3029989 On ch=3 n=9 v=100
3030274 On ch=3 n=18 v=100
3030405 Off ch=3 n=9 v=0
3030422 Off ch=3 n=18 v=0
3031905 On ch=3 n=41 v=100
3031932 On ch=3 n=30 v=100
3032019 Off ch=3 n=41 v=0
3032038 Off ch=3 n=30 v=0
3032863 On ch=3 n=12 v=100
3032931 On ch=3 n=7 v=100
3032931 On ch=3 n=12 v=100
3033267 On ch=3 n=41 v=100
3033275 Off ch=3 n=12 v=0
3033275 Off ch=3 n=7 v=0
3033325 Off ch=3 n=12 v=0
3033337 On ch=3 n=27 v=100
3033379 Off ch=3 n=41 v=0
3033786 Off ch=3 n=27 v=0
3033884 On ch=3 n=27 v=100
3034065 Off ch=3 n=27 v=0
3036311 On ch=3 n=8 v=100
3036591 On ch=3 n=34 v=100
3036641 Off ch=3 n=8 v=0
3036645 On ch=3 n=33 v=100
3036694 Off ch=3 n=34 v=0
3036939 Off ch=3 n=33 v=0
3036970 On ch=3 n=32 v=100
3037069 Off ch=3 n=32 v=0
3039311 On ch=3 n=6 v=100
3039558 On ch=3 n=13 v=100
3039558 Off ch=3 n=6 v=0
3039733 Off ch=3 n=13 v=0
3039735 On ch=3 n=11 v=100
3040577 Off ch=3 n=11 v=0
3040581 On ch=3 n=11 v=100
3040636 Off ch=3 n=11 v=0
3041549 On ch=3 n=37 v=100
3041573 On ch=3 n=52 v=100
3041705 Off ch=3 n=37 v=0
3041718 On ch=3 n=7 v=100
3041731 Off ch=3 n=52 v=0
3041856 Off ch=3 n=7 v=0
3041859 On ch=3 n=15 v=100
3042159 On ch=3 n=10 v=100
3042167 Off ch=3 n=15 v=0
3042307 Off ch=3 n=10 v=0
3042593 On ch=3 n=27 v=100
3042879 Off ch=3 n=27 v=0
3045075 On ch=3 n=14 v=100
3045366 On ch=3 n=20 v=100
3045757 Off ch=3 n=14 v=0
3045789 Off ch=3 n=20 v=0
3045833 On ch=3 n=20 v=100
3045888 Off ch=3 n=20 v=0
3045895 On ch=3 n=32 v=100
3045897 On ch=3 n=14 v=100
3046003 Off ch=3 n=14 v=0
3046047 Off ch=3 n=32 v=0
3047823 On ch=3 n=12 v=100
3048100 On ch=3 n=12 v=100
3048104 Off ch=3 n=12 v=0
3048202 Off ch=3 n=12 v=0
3048226 On ch=3 n=9 v=100
3049122 Off ch=3 n=9 v=0
3049203 On ch=3 n=10 v=100
3049610 Off ch=3 n=10 v=0
3050812 On ch=3 n=11 v=100
3051227 On ch=3 n=18 v=100
3051243 Off ch=3 n=11 v=0
3051293 Off ch=3 n=18 v=0
3054589 On ch=3 n=11 v=100
3054707 Off ch=3 n=11 v=0
3054709 On ch=3 n=13 v=100
3054765 Off ch=3 n=13 v=0
3054924 On ch=3 n=17 v=100
3055036 Off ch=3 n=17 v=0
3055038 On ch=3 n=17 v=100
3055266 On ch=3 n=11 v=100
3055266 Off ch=3 n=17 v=0
3056199 Off ch=3 n=11 v=0
3056227 On ch=3 n=11 v=100
3056432 Off ch=3 n=11 v=0
3056480 On ch=3 n=5 v=100
3056849 Off ch=3 n=5 v=0
3056857 On ch=3 n=9 v=100
3057461 Off ch=3 n=9 v=0
3057466 On ch=3 n=13 v=100
3058137 Off ch=3 n=13 v=0
3058141 On ch=3 n=23 v=100
3058264 Off ch=3 n=23 v=0
3058374 On ch=3 n=34 v=100
3058448 Off ch=3 n=34 v=0
3058509 On ch=3 n=35 v=100
3058655 On ch=3 n=23 v=100
3058670 Off ch=3 n=35 v=0
3058738 On ch=3 n=10 v=100
3058745 Off ch=3 n=23 v=0
3059012 Off ch=3 n=10 v=0
3059062 On ch=3 n=10 v=100
3059341 Off ch=3 n=10 v=0
3059657 On ch=3 n=9 v=100
3060081 Off ch=3 n=9 v=0
3061409 On ch=3 n=14 v=100
3061777 Off ch=3 n=14 v=0
3061782 On ch=3 n=8 v=100
3061886 Off ch=3 n=8 v=0
3062633 On ch=3 n=17 v=100
3062791 On ch=3 n=16 v=100
3062792 Off ch=3 n=17 v=0
3062870 On ch=3 n=23 v=100
3062892 Off ch=3 n=16 v=0
3063290 Off ch=3 n=23 v=0
3063299 On ch=3 n=21 v=100
3063781 Off ch=3 n=21 v=0
3063946 On ch=3 n=20 v=100
3063950 On ch=3 n=8 v=100
3064180 On ch=3 n=27 v=100
3064248 Off ch=3 n=8 v=0
3064249 On ch=3 n=27 v=100
3064297 Off ch=3 n=20 v=0
3064354 Off ch=3 n=27 v=0
3064411 Off ch=3 n=27 v=0
3065509 On ch=3 n=10 v=100
3065674 Off ch=3 n=10 v=0
3065681 On ch=3 n=11 v=100
3066096 Off ch=3 n=11 v=0
3066097 On ch=3 n=11 v=100
3066567 Off ch=3 n=11 v=0
3066638 On ch=3 n=11 v=100
3066675 On ch=3 n=31 v=100
3066773 Off ch=3 n=11 v=0
3066842 Off ch=3 n=31 v=0
3067469 On ch=3 n=44 v=100
3067559 Off ch=3 n=44 v=0
3067745 On ch=3 n=18 v=100
3067745 On ch=3 n=7 v=100
3067845 Off ch=3 n=7 v=0
3067850 On ch=3 n=9 v=100
3067861 Off ch=3 n=18 v=0
3068724 Off ch=3 n=9 v=0
3068727 On ch=3 n=9 v=100
3068738 On ch=3 n=23 v=100
3068998 Off ch=3 n=9 v=0
3069001 On ch=3 n=17 v=100
3069237 On ch=3 n=6 v=100
3069242 Off ch=3 n=23 v=0
3069286 Off ch=3 n=17 v=0
3069464 Off ch=3 n=6 v=0
3069555 On ch=3 n=31 v=100
3069679 On ch=3 n=30 v=100
3069681 Off ch=3 n=31 v=0
3069891 On ch=3 n=32 v=100
3069902 On ch=3 n=24 v=100
3070258 Off ch=3 n=30 v=0
3070391 Off ch=3 n=24 v=0
3070467 On ch=3 n=14 v=100
3070487 On ch=3 n=26 v=100
3070616 Off ch=3 n=32 v=0
3070725 Off ch=3 n=14 v=0
3070801 On ch=3 n=25 v=100
3070842 Off ch=3 n=26 v=0
3070870 Off ch=3 n=25 v=0
3070934 On ch=3 n=8 v=100
3071024 Off ch=3 n=8 v=0
3071199 On ch=3 n=29 v=100
3071287 Off ch=3 n=29 v=0
3072333 On ch=3 n=19 v=100
3072537 On ch=3 n=14 v=100
3072625 Off ch=3 n=19 v=0
3072625 Off ch=3 n=14 v=0
3073005 On ch=3 n=14 v=100
3073005 On ch=3 n=19 v=100
3073007 On ch=3 n=23 v=100
3073379 Off ch=3 n=19 v=0
3073440 Off ch=3 n=14 v=0
3073518 Off ch=3 n=23 v=0
3074915 On ch=3 n=18 v=100
3075057 Off ch=3 n=18 v=0
3075073 On ch=3 n=19 v=100
3075197 On ch=3 n=11 v=100
3075200 Off ch=3 n=19 v=0
3075543 Off ch=3 n=11 v=0
3075544 On ch=3 n=13 v=100
3076628 On ch=3 n=14 v=100
3076630 Off ch=3 n=13 v=0
3076744 Off ch=3 n=14 v=0
3077933 On ch=3 n=8 v=100
3078121 Off ch=3 n=8 v=0
3078143 On ch=3 n=21 v=100
3078307 Off ch=3 n=21 v=0
3078517 On ch=3 n=1 v=100
3080660 Off ch=3 n=1 v=0
3080661 On ch=3 n=17 v=100
3080820 Off ch=3 n=17 v=0
3081580 On ch=3 n=4 v=100
3081711 Off ch=3 n=4 v=0
3081727 On ch=3 n=8 v=100
3081804 Off ch=3 n=8 v=0
3081805 On ch=3 n=9 v=100
3081906 Off ch=3 n=9 v=0
3081985 On ch=3 n=0 v=100
3082037 On ch=3 n=7 v=100
3082040 Off ch=3 n=0 v=0
3082293 On ch=3 n=31 v=100
3082313 On ch=3 n=51 v=100
3082313 On ch=3 n=51 v=100
3082322 On ch=3 n=17 v=100
3082322 On ch=3 n=17 v=100
3082338 On ch=3 n=5 v=100
3082346 Off ch=3 n=7 v=0
3082529 On ch=3 n=11 v=100
3082529 Off ch=3 n=5 v=0
3082535 Off ch=3 n=31 v=0
3082536 Off ch=3 n=17 v=0
3082536 Off ch=3 n=17 v=0
3082595 Off ch=3 n=51 v=0
3082595 Off ch=3 n=51 v=0
3082654 Off ch=3 n=11 v=0
3082656 On ch=3 n=10 v=100
3082969 Off ch=3 n=10 v=0
3084109 On ch=3 n=3 v=100
3084627 Off ch=3 n=3 v=0
3084705 On ch=3 n=14 v=100
3085515 Off ch=3 n=14 v=0
3086422 On ch=3 n=17 v=100
3086689 Off ch=3 n=17 v=0
3089978 On ch=3 n=44 v=100
3090027 On ch=3 n=27 v=100
3090061 On ch=3 n=42 v=100
3090131 Off ch=3 n=44 v=0
3090131 Off ch=3 n=27 v=0
3090140 Off ch=3 n=42 v=0
3090142 On ch=3 n=22 v=100
3090376 On ch=3 n=12 v=100
3090420 On ch=3 n=21 v=100
3090767 Off ch=3 n=12 v=0
3090775 Off ch=3 n=22 v=0
3090841 On ch=3 n=26 v=100
3090972 On ch=3 n=25 v=100
3091095 Off ch=3 n=21 v=0
3091224 Off ch=3 n=26 v=0
3091231 Off ch=3 n=25 v=0
3091317 On ch=3 n=25 v=100
3091414 Off ch=3 n=25 v=0
3092077 On ch=3 n=18 v=100
3092151 Off ch=3 n=18 v=0
3092159 On ch=3 n=9 v=100
3092307 On ch=3 n=11 v=100
3092351 Off ch=3 n=9 v=0
3092640 Off ch=3 n=11 v=0
3093538 On ch=3 n=19 v=100
3093793 Off ch=3 n=19 v=0
3094551 On ch=3 n=9 v=100
3095096 Off ch=3 n=9 v=0
3095855 On ch=3 n=20 v=100
3095985 Off ch=3 n=20 v=0
3095989 On ch=3 n=22 v=100
3096284 Off ch=3 n=22 v=0
3096288 On ch=3 n=8 v=100
3096806 On ch=3 n=11 v=100
3096808 Off ch=3 n=8 v=0
3097064 Off ch=3 n=11 v=0
3097559 On ch=3 n=21 v=100
3097682 On ch=3 n=25 v=100
3097728 Off ch=3 n=21 v=0
3097729 On ch=3 n=10 v=100
3097741 Off ch=3 n=25 v=0
3097800 Off ch=3 n=10 v=0
3098390 On ch=3 n=22 v=100
3098566 Off ch=3 n=22 v=0
3098796 On ch=3 n=17 v=100
3098857 Off ch=3 n=17 v=0
3098899 On ch=3 n=17 v=100
3099130 Off ch=3 n=17 v=0
3100845 On ch=3 n=21 v=100
3100887 Off ch=3 n=21 v=0
3101314 On ch=3 n=22 v=100
3101356 Off ch=3 n=22 v=0
3102306 On ch=3 n=41 v=100
3102332 On ch=3 n=33 v=100
3102333 On ch=3 n=16 v=100
3102387 Off ch=3 n=16 v=0
3102404 Off ch=3 n=41 v=0
3102408 Off ch=3 n=33 v=0
3103118 On ch=3 n=28 v=100
3103196 Off ch=3 n=28 v=0
3104332 On ch=3 n=23 v=100
3104401 On ch=3 n=46 v=100
3104493 On ch=3 n=22 v=100
3104637 Off ch=3 n=23 v=0
3104933 Off ch=3 n=46 v=0
3104940 On ch=3 n=9 v=100
3104995 Off ch=3 n=22 v=0
3106120 Off ch=3 n=9 v=0
3106122 On ch=3 n=42 v=100
3106265 On ch=3 n=14 v=100
3106483 On ch=3 n=47 v=100
3106592 On ch=3 n=20 v=100
3106592 Off ch=3 n=14 v=0
3106657 Off ch=3 n=42 v=0
3106749 Off ch=3 n=47 v=0
3106834 Off ch=3 n=20 v=0
3107241 On ch=3 n=7 v=100
3108242 On ch=3 n=61 v=100
3108382 On ch=3 n=44 v=100
3108393 Off ch=3 n=7 v=0
3108394 On ch=3 n=25 v=100
3108480 On ch=3 n=31 v=100
3108480 Off ch=3 n=25 v=0
3108482 Off ch=3 n=44 v=0
3108483 On ch=3 n=15 v=100
3108685 Off ch=3 n=15 v=0
3108710 Off ch=3 n=31 v=0
3108715 Off ch=3 n=61 v=0
3109668 On ch=3 n=10 v=100
3109832 Off ch=3 n=10 v=0
3109833 On ch=3 n=10 v=100
3110286 Off ch=3 n=10 v=0
3110451 On ch=3 n=31 v=100
3110451 On ch=3 n=31 v=100
3110466 On ch=3 n=31 v=100
3110478 On ch=3 n=15 v=100
3110479 On ch=3 n=56 v=100
3110479 On ch=3 n=56 v=100
3110530 Off ch=3 n=31 v=0
3110531 Off ch=3 n=15 v=0
3110532 Off ch=3 n=31 v=0
3110532 Off ch=3 n=31 v=0
3110680 Off ch=3 n=56 v=0
3110680 Off ch=3 n=56 v=0
3111033 On ch=3 n=38 v=100
3111109 On ch=3 n=3 v=100
3111119 Off ch=3 n=38 v=0
3111393 Off ch=3 n=3 v=0
3111436 On ch=3 n=3 v=100
3111871 Off ch=3 n=3 v=0
3111914 On ch=3 n=3 v=100
3112006 Off ch=3 n=3 v=0
3112052 On ch=3 n=3 v=100
3112501 Off ch=3 n=3 v=0
3112907 On ch=3 n=18 v=100
3113121 Off ch=3 n=18 v=0
3113679 On ch=3 n=21 v=100
3113738 Off ch=3 n=21 v=0
3115163 On ch=3 n=29 v=100
3115230 Off ch=3 n=29 v=0
3115231 On ch=3 n=5 v=100
3115477 Off ch=3 n=5 v=0
3115479 On ch=3 n=15 v=100
3115560 On ch=3 n=14 v=100
3115571 Off ch=3 n=15 v=0
3115631 On ch=3 n=43 v=100
3115738 Off ch=3 n=14 v=0
3115750 On ch=3 n=16 v=100
3116007 Off ch=3 n=16 v=0
3116013 On ch=3 n=26 v=100
3116014 On ch=3 n=32 v=100
3116266 Off ch=3 n=26 v=0
3116267 Off ch=3 n=43 v=0
3116303 On ch=3 n=21 v=100
3116303 On ch=3 n=21 v=100
3116350 On ch=3 n=17 v=100
3116368 Off ch=3 n=32 v=0
3116369 On ch=3 n=14 v=100
3116446 Off ch=3 n=17 v=0
3116509 Off ch=3 n=21 v=0
3116509 Off ch=3 n=21 v=0
3117359 Off ch=3 n=14 v=0
3117784 On ch=3 n=4 v=100
3117947 Off ch=3 n=4 v=0
3118187 On ch=3 n=38 v=100
3118187 On ch=3 n=5 v=100
3118284 Off ch=3 n=5 v=0
3118286 On ch=3 n=13 v=100
3118305 Off ch=3 n=38 v=0
3119186 Off ch=3 n=13 v=0
3119231 On ch=3 n=12 v=100
3119583 Off ch=3 n=12 v=0
3119667 On ch=3 n=11 v=100
3120059 Off ch=3 n=11 v=0
3120737 On ch=3 n=16 v=100
3121138 Off ch=3 n=16 v=0
3121149 On ch=3 n=18 v=100
3121157 On ch=3 n=12 v=100
3121217 Off ch=3 n=12 v=0
3121220 Off ch=3 n=18 v=0
3121442 On ch=3 n=38 v=100
3121557 Off ch=3 n=38 v=0
3128658 On ch=3 n=32 v=100
3128723 On ch=3 n=9 v=100
3128790 Off ch=3 n=32 v=0
3129281 On ch=3 n=9 v=100
3129282 Off ch=3 n=9 v=0
3129564 Off ch=3 n=9 v=0
3130164 On ch=3 n=17 v=100
3130273 On ch=3 n=14 v=100
3130320 On ch=3 n=11 v=100
3130329 On ch=3 n=23 v=100
3130555 Off ch=3 n=17 v=0
3130685 On ch=3 n=15 v=100
3130698 Off ch=3 n=14 v=0
3130747 Off ch=3 n=11 v=0
3130815 Off ch=3 n=23 v=0
3130825 On ch=3 n=19 v=100
3130832 Off ch=3 n=15 v=0
3131031 On ch=3 n=2 v=100
3131426 On ch=3 n=13 v=100
3131427 On ch=3 n=18 v=100
3131439 Off ch=3 n=2 v=0
3131450 Off ch=3 n=19 v=0
3131542 Off ch=3 n=13 v=0
3131559 Off ch=3 n=18 v=0
3131641 On ch=3 n=10 v=100
3131731 Off ch=3 n=10 v=0
3131753 On ch=3 n=16 v=100
3131916 Off ch=3 n=16 v=0
3131946 On ch=3 n=20 v=100
3132232 On ch=3 n=38 v=100
3132232 On ch=3 n=38 v=100
3132315 On ch=3 n=17 v=100
3132316 Off ch=3 n=20 v=0
3132370 On ch=3 n=31 v=100
3132405 On ch=3 n=6 v=100
3132405 On ch=3 n=22 v=100
3132462 Off ch=3 n=17 v=0
3132490 Off ch=3 n=38 v=0
3132490 Off ch=3 n=38 v=0
3132508 Off ch=3 n=6 v=0
3132514 Off ch=3 n=31 v=0
3132602 Off ch=3 n=22 v=0
3133836 On ch=3 n=8 v=100
3134994 Off ch=3 n=8 v=0
3136078 On ch=3 n=22 v=100
3136093 On ch=3 n=19 v=100
3136187 On ch=3 n=10 v=100
3136187 Off ch=3 n=22 v=0
3136187 Off ch=3 n=19 v=0
3136819 Off ch=3 n=10 v=0
3136845 On ch=3 n=17 v=100
3136975 On ch=3 n=5 v=100
3136975 Off ch=3 n=17 v=0
3137368 Off ch=3 n=5 v=0
3137369 On ch=3 n=7 v=100
3137410 On ch=3 n=7 v=100
3137413 Off ch=3 n=7 v=0
3137810 Off ch=3 n=7 v=0
3137816 On ch=3 n=11 v=100
3137896 On ch=3 n=25 v=100
3137920 Off ch=3 n=11 v=0
3137980 On ch=3 n=13 v=100
3138091 On ch=3 n=19 v=100
3138436 On ch=3 n=11 v=100
3138438 Off ch=3 n=13 v=0
3138440 Off ch=3 n=25 v=0
3138606 Off ch=3 n=19 v=0
3138681 Off ch=3 n=11 v=0
3139322 On ch=3 n=36 v=100
3139402 Off ch=3 n=36 v=0
3139449 On ch=3 n=36 v=100
3139580 Off ch=3 n=36 v=0
3139596 On ch=3 n=10 v=100
3140011 Off ch=3 n=10 v=0
3141200 On ch=3 n=25 v=100
3141445 Off ch=3 n=25 v=0
3142552 On ch=3 n=20 v=100
3142574 Off ch=3 n=20 v=0
3142624 On ch=3 n=30 v=100
3142764 Off ch=3 n=30 v=0
3142864 On ch=3 n=20 v=100
3142864 On ch=3 n=30 v=100
3142905 Off ch=3 n=20 v=0
3143034 Off ch=3 n=30 v=0
3144999 On ch=3 n=9 v=100
3145260 Off ch=3 n=9 v=0
3145321 On ch=3 n=13 v=100
3145425 On ch=3 n=25 v=100
3145456 Off ch=3 n=13 v=0
3145558 On ch=3 n=36 v=100
3145594 Off ch=3 n=25 v=0
3145602 On ch=3 n=8 v=100
3145822 Off ch=3 n=8 v=0
3145870 Off ch=3 n=36 v=0
3147629 On ch=3 n=13 v=100
3147984 Off ch=3 n=13 v=0
3147997 On ch=3 n=20 v=100
3148054 On ch=3 n=14 v=100
3148056 Off ch=3 n=20 v=0
3148539 On ch=3 n=11 v=100
3148543 On ch=3 n=22 v=100
3148546 Off ch=3 n=14 v=0
3148643 Off ch=3 n=11 v=0
3148655 Off ch=3 n=22 v=0
3148760 On ch=3 n=27 v=100
3148784 On ch=3 n=38 v=100
3148854 Off ch=3 n=27 v=0
3148879 Off ch=3 n=38 v=0
3148899 On ch=3 n=15 v=100
3148997 On ch=3 n=47 v=100
3149012 On ch=3 n=52 v=100
3149105 Off ch=3 n=15 v=0
3149124 Off ch=3 n=47 v=0
3149145 Off ch=3 n=52 v=0
3150053 On ch=3 n=10 v=100
3150514 Off ch=3 n=10 v=0
3150519 On ch=3 n=11 v=100
3151071 Off ch=3 n=11 v=0
3151149 On ch=3 n=30 v=100
3151278 Off ch=3 n=30 v=0
3151280 On ch=3 n=20 v=100
3151513 Off ch=3 n=20 v=0
3152902 On ch=3 n=19 v=100
3152926 On ch=3 n=21 v=100
3152990 Off ch=3 n=19 v=0
3152994 Off ch=3 n=21 v=0
3153005 On ch=3 n=14 v=100
3153741 Off ch=3 n=14 v=0
3154662 On ch=3 n=28 v=100
3154684 On ch=3 n=17 v=100
3154766 Off ch=3 n=28 v=0
3154766 Off ch=3 n=17 v=0
3154806 On ch=3 n=5 v=100
3155048 Off ch=3 n=5 v=0
3155865 On ch=3 n=13 v=100
3156215 Off ch=3 n=13 v=0
3156219 On ch=3 n=10 v=100
3156317 Off ch=3 n=10 v=0
3156444 On ch=3 n=49 v=100
3156453 On ch=3 n=32 v=100
3156476 On ch=3 n=13 v=100
3156511 On ch=3 n=18 v=100
3156605 Off ch=3 n=32 v=0
3156629 Off ch=3 n=49 v=0
3156717 Off ch=3 n=13 v=0
3156777 Off ch=3 n=18 v=0
3158633 On ch=3 n=17 v=100
3158650 On ch=3 n=52 v=100
3158676 Off ch=3 n=17 v=0
3158677 On ch=3 n=17 v=100
3158704 Off ch=3 n=52 v=0
3158760 On ch=3 n=12 v=100
3158760 Off ch=3 n=17 v=0
3159037 On ch=3 n=8 v=100
3159040 Off ch=3 n=12 v=0
3159487 Off ch=3 n=8 v=0
3159498 On ch=3 n=45 v=100
3159696 On ch=3 n=22 v=100
3159796 On ch=3 n=19 v=100
3159811 On ch=3 n=22 v=100
3160086 Off ch=3 n=45 v=0
3160137 Off ch=3 n=22 v=0
3160201 Off ch=3 n=19 v=0
3160270 Off ch=3 n=22 v=0
3160337 On ch=3 n=29 v=100
3160360 On ch=3 n=42 v=100
3160541 Off ch=3 n=29 v=0
3160578 Off ch=3 n=42 v=0
3160847 On ch=3 n=31 v=100
3160893 Off ch=3 n=31 v=0
3161006 On ch=3 n=31 v=100
3161006 On ch=3 n=15 v=100
3161008 On ch=3 n=38 v=100
3161184 Off ch=3 n=31 v=0
3161255 Off ch=3 n=15 v=0
3161285 On ch=3 n=40 v=100
3161291 Off ch=3 n=38 v=0
3161422 Off ch=3 n=40 v=0
3161445 On ch=3 n=6 v=100
3162305 Off ch=3 n=6 v=0
3162562 On ch=3 n=15 v=100
3162635 Off ch=3 n=15 v=0
3163650 On ch=3 n=44 v=100
3163655 On ch=3 n=26 v=100
3163751 Off ch=3 n=26 v=0
3163785 Off ch=3 n=44 v=0
3164218 On ch=3 n=8 v=100
3164329 Off ch=3 n=8 v=0
3164330 On ch=3 n=24 v=100
3164330 On ch=3 n=47 v=100
3164584 Off ch=3 n=24 v=0
3164634 On ch=3 n=10 v=100
3164649 Off ch=3 n=47 v=0
3165254 Off ch=3 n=10 v=0
3165610 On ch=3 n=50 v=100
3165843 Off ch=3 n=50 v=0
3166846 On ch=3 n=16 v=100
3166899 Off ch=3 n=16 v=0
3167796 On ch=3 n=10 v=100
3167982 On ch=3 n=35 v=100
3168097 On ch=3 n=7 v=100
3168103 Off ch=3 n=10 v=0
3168118 Off ch=3 n=35 v=0
3168324 On ch=3 n=25 v=100
3168325 Off ch=3 n=7 v=0
3168438 Off ch=3 n=25 v=0
3168840 On ch=3 n=5 v=100
3168915 Off ch=3 n=5 v=0
3169036 On ch=3 n=20 v=100
3169376 Off ch=3 n=20 v=0
3169874 On ch=3 n=16 v=100
3169874 On ch=3 n=19 v=100
3169941 Off ch=3 n=16 v=0
3169960 Off ch=3 n=19 v=0
3170169 On ch=3 n=39 v=100
3170170 On ch=3 n=36 v=100
3170170 On ch=3 n=33 v=100
3170271 Off ch=3 n=36 v=0
3170304 Off ch=3 n=33 v=0
3170354 Off ch=3 n=39 v=0
3170952 On ch=3 n=8 v=100
3171507 On ch=3 n=13 v=100
3171508 Off ch=3 n=8 v=0
3171588 Off ch=3 n=13 v=0
3171734 On ch=3 n=10 v=100
3172385 Off ch=3 n=10 v=0
3172716 On ch=3 n=28 v=100
3172735 On ch=3 n=23 v=100
3172875 Off ch=3 n=23 v=0
3172886 Off ch=3 n=28 v=0
3175428 On ch=3 n=22 v=100
3175436 On ch=3 n=7 v=100
3175440 On ch=3 n=30 v=100
3175463 Off ch=3 n=7 v=0
3175464 Off ch=3 n=22 v=0
3175466 On ch=3 n=15 v=100
3175468 On ch=3 n=32 v=100
3175516 On ch=3 n=18 v=100
3175605 Off ch=3 n=30 v=0
3175608 Off ch=3 n=15 v=0
3175708 Off ch=3 n=32 v=0
3175709 On ch=3 n=12 v=100
3175721 On ch=3 n=25 v=100
3176073 Off ch=3 n=18 v=0
3176124 Off ch=3 n=12 v=0
3176197 On ch=3 n=12 v=100
3176268 Off ch=3 n=25 v=0
3176630 On ch=3 n=6 v=100
3176630 Off ch=3 n=12 v=0
3176707 Off ch=3 n=6 v=0
3176715 On ch=3 n=14 v=100
3176928 Off ch=3 n=14 v=0
3178191 On ch=3 n=7 v=100
3179343 Off ch=3 n=7 v=0
3180080 On ch=3 n=30 v=100
3180126 On ch=3 n=20 v=100
3180126 On ch=3 n=33 v=100
3180174 On ch=3 n=29 v=100
3180284 Off ch=3 n=30 v=0
3180284 Off ch=3 n=20 v=0
3180313 Off ch=3 n=33 v=0
3180343 Off ch=3 n=29 v=0
3181068 On ch=3 n=14 v=100
3181118 On ch=3 n=9 v=100
3181128 Off ch=3 n=14 v=0
3181409 Off ch=3 n=9 v=0
3182007 On ch=3 n=39 v=100
3182065 Off ch=3 n=39 v=0
3182868 On ch=3 n=9 v=100
3183332 On ch=3 n=24 v=100
3183360 Off ch=3 n=9 v=0
3183444 Off ch=3 n=24 v=0
3183483 On ch=3 n=6 v=100
3183878 Off ch=3 n=6 v=0
3184450 On ch=3 n=33 v=100
3184684 Off ch=3 n=33 v=0
3185081 On ch=3 n=31 v=100
3185118 On ch=3 n=30 v=100
3185301 Off ch=3 n=31 v=0
3185325 Off ch=3 n=30 v=0
3185449 On ch=3 n=11 v=100
3185590 On ch=3 n=35 v=100
3185724 Off ch=3 n=11 v=0
3185779 Off ch=3 n=35 v=0
3185817 On ch=3 n=20 v=100
3186099 Off ch=3 n=20 v=0
3186133 On ch=3 n=10 v=100
3186860 Off ch=3 n=10 v=0
3188802 On ch=3 n=17 v=100
3188934 On ch=3 n=12 v=100
3188936 Off ch=3 n=17 v=0
3189106 Off ch=3 n=12 v=0
3189246 On ch=3 n=29 v=100
3189335 On ch=3 n=36 v=100
3189345 Off ch=3 n=29 v=0
3189350 On ch=3 n=15 v=100
3189450 Off ch=3 n=36 v=0
3189614 Off ch=3 n=15 v=0
3189634 On ch=3 n=36 v=100
3189637 On ch=3 n=33 v=100
3189637 On ch=3 n=33 v=100
3189724 On ch=3 n=12 v=100
3189925 Off ch=3 n=36 v=0
3189943 Off ch=3 n=12 v=0
3189983 Off ch=3 n=33 v=0
3189983 Off ch=3 n=33 v=0
3190145 On ch=3 n=34 v=100
3190244 Off ch=3 n=34 v=0
3190246 On ch=3 n=26 v=100
3190279 On ch=3 n=8 v=100
3190468 On ch=3 n=24 v=100
3190469 On ch=3 n=29 v=100
3190469 Off ch=3 n=26 v=0
3190470 Off ch=3 n=8 v=0
3190641 Off ch=3 n=24 v=0
3190672 Off ch=3 n=29 v=0
3191214 On ch=3 n=26 v=100
3191242 On ch=3 n=26 v=100
3191302 Off ch=3 n=26 v=0
3191342 On ch=3 n=13 v=100
3191347 Off ch=3 n=26 v=0
3191355 On ch=3 n=12 v=100
3191363 On ch=3 n=13 v=100
3191428 Off ch=3 n=13 v=0
3191430 Off ch=3 n=12 v=0
3191442 Off ch=3 n=13 v=0
3192249 On ch=3 n=19 v=100
3192585 Off ch=3 n=19 v=0
3192587 On ch=3 n=13 v=100
3192635 On ch=3 n=10 v=100
3192735 Off ch=3 n=10 v=0
3192738 Off ch=3 n=13 v=0
3193042 On ch=3 n=23 v=100
3193202 On ch=3 n=21 v=100
3193202 On ch=3 n=27 v=100
3193220 Off ch=3 n=23 v=0
3193333 On ch=3 n=39 v=100
3193333 On ch=3 n=39 v=100
3193333 Off ch=3 n=21 v=0
3193357 On ch=3 n=43 v=100
3193357 On ch=3 n=27 v=100
3193357 On ch=3 n=43 v=100
3193367 On ch=3 n=49 v=100
3193386 Off ch=3 n=27 v=0
3193536 Off ch=3 n=27 v=0
3193539 Off ch=3 n=39 v=0
3193539 Off ch=3 n=39 v=0
3193633 Off ch=3 n=43 v=0
3193633 Off ch=3 n=43 v=0
3193668 Off ch=3 n=49 v=0
3194295 On ch=3 n=19 v=100
3194301 On ch=3 n=33 v=100
3194539 Off ch=3 n=19 v=0
3194596 Off ch=3 n=33 v=0
3194621 On ch=3 n=31 v=100
3194801 On ch=3 n=15 v=100
3194941 On ch=3 n=22 v=100
3195286 Off ch=3 n=31 v=0
3195288 Off ch=3 n=15 v=0
3195292 On ch=3 n=21 v=100
3195354 On ch=3 n=29 v=100
3195412 Off ch=3 n=22 v=0
3195428 On ch=3 n=26 v=100
3195430 On ch=3 n=20 v=100
3195549 On ch=3 n=23 v=100
3195755 Off ch=3 n=21 v=0
3195870 Off ch=3 n=29 v=0
3195881 Off ch=3 n=20 v=0
3195937 Off ch=3 n=26 v=0
3196046 Off ch=3 n=23 v=0
3196163 On ch=3 n=29 v=100
3196361 On ch=3 n=10 v=100
3196410 Off ch=3 n=29 v=0
3196586 Off ch=3 n=10 v=0
3196588 On ch=3 n=2 v=100
3196646 Off ch=3 n=2 v=0
3196695 On ch=3 n=13 v=100
3197040 Off ch=3 n=13 v=0
3197046 On ch=3 n=23 v=100
3197287 Off ch=3 n=23 v=0
3197452 On ch=3 n=10 v=100
3197888 On ch=3 n=5 v=100
3197891 Off ch=3 n=10 v=0
3197975 Off ch=3 n=5 v=0
3197985 On ch=3 n=10 v=100
3199134 Off ch=3 n=10 v=0
3199136 On ch=3 n=7 v=100
3199510 Off ch=3 n=7 v=0
3199588 On ch=3 n=41 v=100
3199618 On ch=3 n=36 v=100
3199758 Off ch=3 n=41 v=0
3199759 Off ch=3 n=36 v=0
3200778 On ch=3 n=25 v=100
3200878 On ch=3 n=14 v=100
3201053 Off ch=3 n=25 v=0
3201063 Off ch=3 n=14 v=0
3203585 On ch=3 n=10 v=100
3204005 Off ch=3 n=10 v=0
3204387 On ch=3 n=25 v=100
3204387 On ch=3 n=25 v=100
3204419 On ch=3 n=20 v=100
3204464 On ch=3 n=32 v=100
3204466 On ch=3 n=17 v=100
3204628 Off ch=3 n=20 v=0
3204644 Off ch=3 n=17 v=0
3204647 Off ch=3 n=25 v=0
3204647 Off ch=3 n=25 v=0
3204676 On ch=3 n=9 v=100
3204690 Off ch=3 n=32 v=0
3205334 Off ch=3 n=9 v=0
3207535 On ch=3 n=25 v=100
3207593 On ch=3 n=8 v=100
3207892 Off ch=3 n=25 v=0
3207902 Off ch=3 n=8 v=0
3207947 On ch=3 n=19 v=100
3208186 Off ch=3 n=19 v=0
3210111 On ch=3 n=14 v=100
3210216 Off ch=3 n=14 v=0
3210266 On ch=3 n=16 v=100
3210340 Off ch=3 n=16 v=0
3210344 On ch=3 n=7 v=100
3210428 On ch=3 n=5 v=100
3210433 Off ch=3 n=7 v=0
3210566 On ch=3 n=15 v=100
3210572 Off ch=3 n=5 v=0
3210612 On ch=3 n=31 v=100
3210707 On ch=3 n=20 v=100
3210707 On ch=3 n=20 v=100
3210718 On ch=3 n=20 v=100
3210842 Off ch=3 n=15 v=0
3210861 On ch=3 n=33 v=100
3211020 Off ch=3 n=31 v=0
3211196 Off ch=3 n=20 v=0
3211249 Off ch=3 n=20 v=0
3211249 Off ch=3 n=20 v=0
3211298 On ch=3 n=28 v=100
3211479 Off ch=3 n=33 v=0
3211741 Off ch=3 n=28 v=0
3212029 On ch=3 n=22 v=100
3212223 On ch=3 n=16 v=100
3212381 On ch=3 n=26 v=100
3212619 Off ch=3 n=22 v=0
3212677 On ch=3 n=29 v=100
3212693 Off ch=3 n=16 v=0
3212744 Off ch=3 n=26 v=0
3213078 Off ch=3 n=29 v=0
3214018 On ch=3 n=10 v=100
3214459 Off ch=3 n=10 v=0
3214579 On ch=3 n=16 v=100
3215143 Off ch=3 n=16 v=0
3216635 On ch=3 n=9 v=100
3216636 On ch=3 n=12 v=100
3216697 On ch=3 n=25 v=100
3216839 Off ch=3 n=9 v=0
3216869 Off ch=3 n=12 v=0
3216942 Off ch=3 n=25 v=0
3217443 On ch=3 n=33 v=100
3217443 On ch=3 n=33 v=100
3217531 On ch=3 n=26 v=100
3217633 On ch=3 n=23 v=100
3217633 On ch=3 n=23 v=100
3218077 Off ch=3 n=33 v=0
3218077 Off ch=3 n=33 v=0
3218085 Off ch=3 n=26 v=0
3218150 On ch=3 n=23 v=100
3218153 On ch=3 n=38 v=100
3218156 On ch=3 n=40 v=100
3218161 On ch=3 n=16 v=100
3218180 Off ch=3 n=23 v=0
3218180 Off ch=3 n=23 v=0
3218348 Off ch=3 n=16 v=0
3218360 Off ch=3 n=23 v=0
3218387 Off ch=3 n=40 v=0
3218527 Off ch=3 n=38 v=0
3219854 On ch=3 n=19 v=100
3219922 On ch=3 n=19 v=100
3219940 On ch=3 n=10 v=100
3219946 Off ch=3 n=19 v=0
3220065 Off ch=3 n=19 v=0
3220711 On ch=3 n=26 v=100
3220747 On ch=3 n=30 v=100
3220750 Off ch=3 n=10 v=0
3220805 Off ch=3 n=26 v=0
3220896 Off ch=3 n=30 v=0
3222204 On ch=3 n=7 v=100
3223052 Off ch=3 n=7 v=0
3223055 On ch=3 n=32 v=100
3223126 On ch=3 n=18 v=100
3223242 On ch=3 n=22 v=100
3223341 On ch=3 n=27 v=100
3223629 Off ch=3 n=32 v=0
3223630 Off ch=3 n=18 v=0
3223766 On ch=3 n=21 v=100
3223766 On ch=3 n=21 v=100
3223798 On ch=3 n=15 v=100
3223829 Off ch=3 n=22 v=0
3223871 On ch=3 n=11 v=100
3223877 On ch=3 n=27 v=100
3223884 On ch=3 n=15 v=100
3223942 Off ch=3 n=27 v=0
3224243 Off ch=3 n=15 v=0
3224245 Off ch=3 n=11 v=0
3224289 Off ch=3 n=21 v=0
3224289 Off ch=3 n=21 v=0
3224333 Off ch=3 n=15 v=0
3224387 Off ch=3 n=27 v=0
3225380 On ch=3 n=7 v=100
3225584 On ch=3 n=22 v=100
3225590 Off ch=3 n=7 v=0
3225594 On ch=3 n=10 v=100
3225622 Off ch=3 n=10 v=0
3225623 Off ch=3 n=22 v=0
3226089 On ch=3 n=26 v=100
3226195 Off ch=3 n=26 v=0
3226204 On ch=3 n=19 v=100
3226363 Off ch=3 n=19 v=0
3226373 On ch=3 n=24 v=100
3226654 Off ch=3 n=24 v=0
3226784 On ch=3 n=30 v=100
3226803 On ch=3 n=17 v=100
3226811 On ch=3 n=11 v=100
3226846 Off ch=3 n=30 v=0
3226846 Off ch=3 n=17 v=0
3227163 Off ch=3 n=11 v=0
3228041 On ch=3 n=10 v=100
3228363 Off ch=3 n=10 v=0
3230247 On ch=3 n=4 v=100
3230834 Off ch=3 n=4 v=0
3230929 On ch=3 n=16 v=100
3231079 Off ch=3 n=16 v=0
3231484 On ch=3 n=17 v=100
3231799 Off ch=3 n=17 v=0
3232028 On ch=3 n=27 v=100
3232123 Off ch=3 n=27 v=0
3232549 On ch=3 n=37 v=100
3232560 On ch=3 n=42 v=100
3232637 On ch=3 n=28 v=100
3232651 Off ch=3 n=37 v=0
3232667 On ch=3 n=12 v=100
3232671 Off ch=3 n=42 v=0
3232837 Off ch=3 n=28 v=0
3232837 Off ch=3 n=12 v=0
3232851 On ch=3 n=46 v=100
3233001 Off ch=3 n=46 v=0
3233134 On ch=3 n=21 v=100
3233225 On ch=3 n=9 v=100
3233230 Off ch=3 n=21 v=0
3233489 Off ch=3 n=9 v=0
3233490 On ch=3 n=8 v=100
3233824 Off ch=3 n=8 v=0
3233837 On ch=3 n=16 v=100
3233974 Off ch=3 n=16 v=0
3233982 On ch=3 n=6 v=100
3234095 Off ch=3 n=6 v=0
3234297 On ch=3 n=32 v=100
3234297 On ch=3 n=32 v=100
3234327 On ch=3 n=16 v=100
3234400 On ch=3 n=28 v=100
3234403 On ch=3 n=17 v=100
3234403 On ch=3 n=17 v=100
3234415 Off ch=3 n=16 v=0
3234448 On ch=3 n=81 v=100
3234532 Off ch=3 n=32 v=0
3234532 Off ch=3 n=17 v=0
3234532 Off ch=3 n=32 v=0
3234532 Off ch=3 n=17 v=0
3234553 Off ch=3 n=28 v=0
3234766 Off ch=3 n=81 v=0
3235221 On ch=3 n=34 v=100
3235313 On ch=3 n=11 v=100
3235420 Off ch=3 n=34 v=0
3235729 Off ch=3 n=11 v=0
3235731 On ch=3 n=26 v=100
3235811 Off ch=3 n=26 v=0
3236264 On ch=3 n=6 v=100
3236367 On ch=3 n=8 v=100
3236399 Off ch=3 n=6 v=0
3237808 Off ch=3 n=8 v=0
3237976 On ch=3 n=45 v=100
3238032 On ch=3 n=43 v=100
3238058 On ch=3 n=33 v=100
3238250 Off ch=3 n=45 v=0
3238252 Off ch=3 n=43 v=0
3238255 Off ch=3 n=33 v=0
3238317 On ch=3 n=14 v=100
3238492 Off ch=3 n=14 v=0
3238892 On ch=3 n=27 v=100
3239008 Off ch=3 n=27 v=0
3239171 On ch=3 n=34 v=100
3239223 Off ch=3 n=34 v=0
3239254 On ch=3 n=32 v=100
3239368 Off ch=3 n=32 v=0
3239629 On ch=3 n=4 v=100
3239653 Off ch=3 n=4 v=0
3239662 On ch=3 n=3 v=100
3239770 On ch=3 n=23 v=100
3240171 Off ch=3 n=3 v=0
3240371 Off ch=3 n=23 v=0
3240837 On ch=3 n=24 v=100
3241015 Off ch=3 n=24 v=0
3241879 On ch=3 n=8 v=100
3242334 Off ch=3 n=8 v=0
3242479 On ch=3 n=23 v=100
3242535 On ch=3 n=10 v=100
3242543 Off ch=3 n=23 v=0
3242730 Off ch=3 n=10 v=0
3242750 On ch=3 n=12 v=100
3243089 Off ch=3 n=12 v=0
3243680 On ch=3 n=20 v=100
3243793 On ch=3 n=17 v=100
3243793 On ch=3 n=29 v=100
3243797 On ch=3 n=20 v=100
3244163 Off ch=3 n=20 v=0
3244181 Off ch=3 n=17 v=0
3244290 Off ch=3 n=20 v=0
3244374 Off ch=3 n=29 v=0
3244532 On ch=3 n=6 v=100
3245052 Off ch=3 n=6 v=0
3245057 On ch=3 n=9 v=100
3245059 On ch=3 n=41 v=100
3245081 On ch=3 n=47 v=100
3245154 Off ch=3 n=9 v=0
3245167 Off ch=3 n=41 v=0
3245194 Off ch=3 n=47 v=0
3245533 On ch=3 n=31 v=100
3245593 On ch=3 n=24 v=100
3245600 On ch=3 n=19 v=100
3245623 On ch=3 n=15 v=100
3245755 Off ch=3 n=31 v=0
3245755 Off ch=3 n=15 v=0
3245761 Off ch=3 n=19 v=0
3245779 Off ch=3 n=24 v=0
3246100 On ch=3 n=22 v=100
3246142 On ch=3 n=9 v=100
3246540 Off ch=3 n=9 v=0
3246542 On ch=3 n=9 v=100
3246545 Off ch=3 n=22 v=0
3246849 On ch=3 n=19 v=100
3246974 Off ch=3 n=9 v=0
3246992 Off ch=3 n=19 v=0
3248226 On ch=3 n=6 v=100
3248524 Off ch=3 n=6 v=0
3248525 On ch=3 n=4 v=100
3248618 Off ch=3 n=4 v=0
3248948 On ch=3 n=6 v=100
3249119 Off ch=3 n=6 v=0
3249767 On ch=3 n=48 v=100
3249767 On ch=3 n=22 v=100
3249886 Off ch=3 n=22 v=0
3250015 Off ch=3 n=48 v=0
3250162 On ch=3 n=4 v=100
3250404 Off ch=3 n=4 v=0
3250937 On ch=3 n=22 v=100
3251287 Off ch=3 n=22 v=0
3251383 On ch=3 n=22 v=100
3251594 Off ch=3 n=22 v=0
3254469 On ch=3 n=0 v=100
3254701 Off ch=3 n=0 v=0
3255190 On ch=3 n=22 v=100
3255312 Off ch=3 n=22 v=0
3255313 On ch=3 n=8 v=100
3256371 On ch=3 n=16 v=100
3256440 Off ch=3 n=8 v=0
3256452 On ch=3 n=20 v=100
3256462 Off ch=3 n=16 v=0
3256476 On ch=3 n=25 v=100
3256586 Off ch=3 n=20 v=0
3256617 Off ch=3 n=25 v=0
3257182 On ch=3 n=10 v=100
3258018 Off ch=3 n=10 v=0
3259001 On ch=3 n=29 v=100
3259209 Off ch=3 n=29 v=0
3259215 On ch=3 n=10 v=100
3259911 Off ch=3 n=10 v=0
3259914 On ch=3 n=7 v=100
3260165 On ch=3 n=8 v=100
3260167 Off ch=3 n=7 v=0
3260467 On ch=3 n=25 v=100
3260553 Off ch=3 n=8 v=0
3260588 Off ch=3 n=25 v=0
3261397 On ch=3 n=9 v=100
3262288 On ch=3 n=27 v=100
3262289 Off ch=3 n=9 v=0
3262669 Off ch=3 n=27 v=0
3263838 On ch=3 n=24 v=100
3264013 Off ch=3 n=24 v=0
3264021 On ch=3 n=13 v=100
3264221 On ch=3 n=24 v=100
3264244 Off ch=3 n=13 v=0
3264332 Off ch=3 n=24 v=0
3264680 On ch=3 n=33 v=100
3264751 On ch=3 n=31 v=100
3264805 Off ch=3 n=33 v=0
3264871 Off ch=3 n=31 v=0
3264940 On ch=3 n=7 v=100
3265469 Off ch=3 n=7 v=0
3266164 On ch=3 n=31 v=100
3266310 Off ch=3 n=31 v=0
3269838 On ch=3 n=18 v=100
3269865 On ch=3 n=32 v=100
3269877 On ch=3 n=11 v=100
3270085 Off ch=3 n=11 v=0
3270086 Off ch=3 n=18 v=0
3270123 Off ch=3 n=32 v=0
3271845 On ch=3 n=39 v=100
3271865 On ch=3 n=21 v=100
3271878 On ch=3 n=30 v=100
3271908 On ch=3 n=17 v=100
3271996 Off ch=3 n=39 v=0
3272057 Off ch=3 n=21 v=0
3272061 Off ch=3 n=30 v=0
3272061 Off ch=3 n=17 v=0
3272169 On ch=3 n=17 v=100
3272201 Off ch=3 n=17 v=0
3274452 On ch=3 n=28 v=100
3274544 Off ch=3 n=28 v=0
3274818 On ch=3 n=4 v=100
3274986 Off ch=3 n=4 v=0
3274988 On ch=3 n=8 v=100
3275368 Off ch=3 n=8 v=0
3275384 On ch=3 n=36 v=100
3275521 On ch=3 n=4 v=100
3275550 Off ch=3 n=36 v=0
3275651 Off ch=3 n=4 v=0
3275755 On ch=3 n=9 v=100
3275786 Off ch=3 n=9 v=0
3277078 On ch=3 n=34 v=100
3277141 On ch=3 n=33 v=100
3277149 On ch=3 n=25 v=100
3277245 On ch=3 n=20 v=100
3277285 On ch=3 n=18 v=100
3277285 Off ch=3 n=34 v=0
3277285 Off ch=3 n=25 v=0
3277301 Off ch=3 n=33 v=0
3277339 Off ch=3 n=20 v=0
3277370 Off ch=3 n=18 v=0
3277910 On ch=3 n=17 v=100
3278057 On ch=3 n=17 v=100
3278070 On ch=3 n=22 v=100
3278073 Off ch=3 n=17 v=0
3278225 Off ch=3 n=17 v=0
3278246 Off ch=3 n=22 v=0
3279626 On ch=3 n=17 v=100
3279860 On ch=3 n=24 v=100
3279889 Off ch=3 n=17 v=0
3279922 Off ch=3 n=24 v=0
3279933 On ch=3 n=12 v=100
3280088 Off ch=3 n=12 v=0
3280091 On ch=3 n=12 v=100
3280737 Off ch=3 n=12 v=0
3280739 On ch=3 n=4 v=100
3280780 Off ch=3 n=4 v=0
3282256 On ch=3 n=6 v=100
3282528 Off ch=3 n=6 v=0
3282649 On ch=3 n=9 v=100
3282797 Off ch=3 n=9 v=0
3282798 On ch=3 n=4 v=100
3283210 Off ch=3 n=4 v=0
3283211 On ch=3 n=9 v=100
3283392 On ch=3 n=9 v=100
3283393 Off ch=3 n=9 v=0
3283526 On ch=3 n=10 v=100
3283531 Off ch=3 n=9 v=0
3283825 Off ch=3 n=10 v=0
3284127 On ch=3 n=23 v=100
3284209 Off ch=3 n=23 v=0
3284330 On ch=3 n=23 v=100
3284557 On ch=3 n=21 v=100
3284557 On ch=3 n=21 v=100
3284591 On ch=3 n=15 v=100
3284629 On ch=3 n=10 v=100
3284639 On ch=3 n=38 v=100
3284853 Off ch=3 n=23 v=0
3284936 On ch=3 n=10 v=100
3284941 Off ch=3 n=15 v=0
3284959 Off ch=3 n=10 v=0
3284967 Off ch=3 n=21 v=0
3284967 Off ch=3 n=21 v=0
3285271 Off ch=3 n=38 v=0
3285494 Off ch=3 n=10 v=0
3285497 On ch=3 n=12 v=100
3285844 Off ch=3 n=12 v=0
3285980 On ch=3 n=12 v=100
3286126 Off ch=3 n=12 v=0
3286363 On ch=3 n=27 v=100
3286515 On ch=3 n=29 v=100
3286515 On ch=3 n=29 v=100
3286540 On ch=3 n=17 v=100
3286540 On ch=3 n=23 v=100
3286730 On ch=3 n=39 v=100
3286868 Off ch=3 n=17 v=0
3286869 Off ch=3 n=27 v=0
3286936 Off ch=3 n=23 v=0
3286989 Off ch=3 n=29 v=0
3286989 Off ch=3 n=29 v=0
3287234 On ch=3 n=20 v=100
3287234 On ch=3 n=36 v=100
3287364 Off ch=3 n=39 v=0
3287489 Off ch=3 n=20 v=0
3287594 Off ch=3 n=36 v=0
3305230 On ch=3 n=31 v=100
3305549 Off ch=3 n=31 v=0
3305809 On ch=3 n=3 v=100
3306019 On ch=3 n=21 v=100
3306062 Off ch=3 n=3 v=0
3306086 Off ch=3 n=21 v=0
3306174 On ch=3 n=5 v=100
3307382 Off ch=3 n=5 v=0
3307643 On ch=3 n=17 v=100
3307717 On ch=3 n=20 v=100
3307831 Off ch=3 n=17 v=0
3307831 Off ch=3 n=20 v=0
3307900 On ch=3 n=20 v=100
3307903 On ch=3 n=8 v=100
3308444 Off ch=3 n=20 v=0
3308448 Off ch=3 n=8 v=0
3308858 On ch=3 n=23 v=100
3308868 On ch=3 n=33 v=100
3308869 On ch=3 n=3 v=100
3308947 Off ch=3 n=23 v=0
3308949 Off ch=3 n=3 v=0
3308950 On ch=3 n=4 v=100
3308981 Off ch=3 n=33 v=0
3309256 On ch=3 n=9 v=100
3309258 Off ch=3 n=4 v=0
3309298 On ch=3 n=31 v=100
3309319 On ch=3 n=46 v=100
3309384 Off ch=3 n=9 v=0
3309446 Off ch=3 n=31 v=0
3309477 Off ch=3 n=46 v=0
3309963 On ch=3 n=40 v=100
3309964 On ch=3 n=31 v=100
3309964 On ch=3 n=45 v=100
3309964 On ch=3 n=45 v=100
3310144 On ch=3 n=23 v=100
3310161 Off ch=3 n=31 v=0
3310179 On ch=3 n=12 v=100
3310202 Off ch=3 n=40 v=0
3310341 Off ch=3 n=23 v=0
3310344 Off ch=3 n=12 v=0
3310356 On ch=3 n=25 v=100
3310356 On ch=3 n=25 v=100
3310429 Off ch=3 n=45 v=0
3310429 Off ch=3 n=45 v=0
3310452 Off ch=3 n=25 v=0
3310501 On ch=3 n=32 v=100
3310504 Off ch=3 n=25 v=0
3310527 On ch=3 n=58 v=100
3310529 On ch=3 n=44 v=100
3310533 On ch=3 n=10 v=100
3310735 Off ch=3 n=32 v=0
3310735 Off ch=3 n=10 v=0
3310767 On ch=3 n=9 v=100
3310779 Off ch=3 n=44 v=0
3310907 Off ch=3 n=58 v=0
3311371 Off ch=3 n=9 v=0
3311411 On ch=3 n=9 v=100
3311428 Off ch=3 n=9 v=0
3311444 On ch=3 n=28 v=100
3311449 On ch=3 n=1 v=100
3311518 Off ch=3 n=1 v=0
3311526 Off ch=3 n=28 v=0
3313548 On ch=3 n=28 v=100
3313667 On ch=3 n=15 v=100
3313743 On ch=3 n=12 v=100
3313899 Off ch=3 n=28 v=0
3314020 On ch=3 n=19 v=100
3314074 Off ch=3 n=15 v=0
3314092 On ch=3 n=22 v=100
3314105 Off ch=3 n=12 v=0
3314217 On ch=3 n=29 v=100
3314350 On ch=3 n=34 v=100
3314496 Off ch=3 n=19 v=0
3314610 Off ch=3 n=22 v=0
3314665 Off ch=3 n=29 v=0
3314726 Off ch=3 n=34 v=0
3314728 On ch=3 n=26 v=100
3314728 On ch=3 n=23 v=100
3314853 On ch=3 n=13 v=100
3314855 Off ch=3 n=23 v=0
3314877 Off ch=3 n=26 v=0
3315152 Off ch=3 n=13 v=0
3315163 On ch=3 n=25 v=100
3315428 Off ch=3 n=25 v=0
3315500 On ch=3 n=18 v=100
3315598 Off ch=3 n=18 v=0
3316236 On ch=3 n=7 v=100
3316485 On ch=3 n=12 v=100
3316489 Off ch=3 n=7 v=0
3317040 Off ch=3 n=12 v=0
3317042 On ch=3 n=3 v=100
3317127 Off ch=3 n=3 v=0
3317128 On ch=3 n=14 v=100
3317420 Off ch=3 n=14 v=0
3317421 On ch=3 n=12 v=100
3318218 Off ch=3 n=12 v=0
3318219 On ch=3 n=14 v=100
3318220 On ch=3 n=7 v=100
3318378 Off ch=3 n=7 v=0
3318397 Off ch=3 n=14 v=0
3318489 On ch=3 n=11 v=100
3318575 Off ch=3 n=11 v=0
3319065 On ch=3 n=62 v=100
3319338 On ch=3 n=45 v=100
3319421 On ch=3 n=53 v=100
3319421 On ch=3 n=53 v=100
3319484 Off ch=3 n=62 v=0
3319557 Off ch=3 n=45 v=0
3320053 On ch=3 n=26 v=100
3320080 On ch=3 n=25 v=100
3320142 On ch=3 n=18 v=100
3320223 Off ch=3 n=53 v=0
3320223 Off ch=3 n=53 v=0
3320224 Off ch=3 n=26 v=0
3320239 Off ch=3 n=25 v=0
3320244 On ch=3 n=16 v=100
3320439 On ch=3 n=28 v=100
3320627 Off ch=3 n=18 v=0
3320665 On ch=3 n=6 v=100
3320696 Off ch=3 n=16 v=0
3320731 Off ch=3 n=28 v=0
3321081 Off ch=3 n=6 v=0
3321146 On ch=3 n=29 v=100
3321315 Off ch=3 n=29 v=0
3321538 On ch=3 n=25 v=100
3321634 Off ch=3 n=25 v=0
3321757 On ch=3 n=28 v=100
3321990 On ch=3 n=11 v=100
3321994 Off ch=3 n=28 v=0
3322058 Off ch=3 n=11 v=0
3322066 On ch=3 n=14 v=100
3322505 Off ch=3 n=14 v=0
3322507 On ch=3 n=22 v=100
3322566 On ch=3 n=14 v=100
3322711 Off ch=3 n=22 v=0
3322711 Off ch=3 n=14 v=0
3322804 On ch=3 n=10 v=100
3323530 Off ch=3 n=10 v=0
3323533 On ch=3 n=16 v=100
3323720 Off ch=3 n=16 v=0
3323729 On ch=3 n=22 v=100
3323869 Off ch=3 n=22 v=0
3323870 On ch=3 n=13 v=100
3324041 Off ch=3 n=13 v=0
3324625 On ch=3 n=37 v=100
3324819 Off ch=3 n=37 v=0
3325018 On ch=3 n=7 v=100
3325835 Off ch=3 n=7 v=0
3326045 On ch=3 n=19 v=100
3326048 On ch=3 n=9 v=100
3326218 Off ch=3 n=9 v=0
3326251 On ch=3 n=11 v=100
3326255 Off ch=3 n=19 v=0
3326745 Off ch=3 n=11 v=0
3326747 On ch=3 n=12 v=100
3327284 Off ch=3 n=12 v=0
3327286 On ch=3 n=10 v=100
3327351 On ch=3 n=29 v=100
3327384 On ch=3 n=8 v=100
3327394 Off ch=3 n=10 v=0
3327441 Off ch=3 n=29 v=0
3327446 On ch=3 n=7 v=100
3327446 Off ch=3 n=8 v=0
3328799 Off ch=3 n=7 v=0
3328814 On ch=3 n=10 v=100
3328912 On ch=3 n=17 v=100
3328917 On ch=3 n=14 v=100
3328921 Off ch=3 n=10 v=0
3328955 On ch=3 n=14 v=100
3328983 On ch=3 n=32 v=100
3328983 On ch=3 n=33 v=100
3329007 Off ch=3 n=14 v=0
3329014 Off ch=3 n=17 v=0
3329016 On ch=3 n=9 v=100
3329032 Off ch=3 n=14 v=0
3329083 Off ch=3 n=32 v=0
3329113 Off ch=3 n=33 v=0
3329153 Off ch=3 n=9 v=0
3329339 On ch=3 n=42 v=100
3329375 On ch=3 n=19 v=100
3329398 On ch=3 n=7 v=100
3329577 Off ch=3 n=42 v=0
3329582 Off ch=3 n=7 v=0
3329588 Off ch=3 n=19 v=0
3329609 On ch=3 n=6 v=100
3330256 Off ch=3 n=6 v=0
3330308 On ch=3 n=6 v=100
3330624 Off ch=3 n=6 v=0
3331629 On ch=3 n=18 v=100
3331918 On ch=3 n=24 v=100
3331918 Off ch=3 n=18 v=0
3332145 On ch=3 n=33 v=100
3332315 Off ch=3 n=24 v=0
3332329 On ch=3 n=23 v=100
3332345 Off ch=3 n=33 v=0
3332353 On ch=3 n=21 v=100
3332513 Off ch=3 n=23 v=0
3332567 Off ch=3 n=21 v=0
3342084 On ch=3 n=11 v=100
3342466 Off ch=3 n=11 v=0
3346832 On ch=3 n=38 v=100
3346891 On ch=3 n=35 v=100
3347107 Off ch=3 n=38 v=0
3347134 Off ch=3 n=35 v=0
3348249 On ch=3 n=10 v=100
3348388 On ch=3 n=2 v=100
3348399 Off ch=3 n=10 v=0
3348424 Off ch=3 n=2 v=0
3348426 On ch=3 n=14 v=100
3348564 On ch=3 n=14 v=100
3348625 Off ch=3 n=14 v=0
3348646 On ch=3 n=7 v=100
3348833 On ch=3 n=23 v=100
3349006 Off ch=3 n=14 v=0
3349008 Off ch=3 n=7 v=0
3349030 Off ch=3 n=23 v=0
3349941 On ch=3 n=17 v=100
3350003 On ch=3 n=7 v=100
3350548 On ch=3 n=16 v=100
3350555 Off ch=3 n=7 v=0
3350558 Off ch=3 n=17 v=0
3350665 Off ch=3 n=16 v=0
3350667 On ch=3 n=28 v=100
3350882 Off ch=3 n=28 v=0
3350894 On ch=3 n=20 v=100
3351770 Off ch=3 n=20 v=0
3351818 On ch=3 n=0 v=100
3351840 Off ch=3 n=0 v=0
3351876 On ch=3 n=41 v=100
3351959 Off ch=3 n=41 v=0
3352683 On ch=3 n=24 v=100
3352706 On ch=3 n=20 v=100
3352786 Off ch=3 n=24 v=0
3352787 Off ch=3 n=20 v=0
3352899 On ch=3 n=20 v=100
3353271 Off ch=3 n=20 v=0
3353567 On ch=3 n=8 v=100
3353949 Off ch=3 n=8 v=0
3355156 On ch=3 n=9 v=100
3355503 Off ch=3 n=9 v=0
3357635 On ch=3 n=31 v=100
3357726 Off ch=3 n=31 v=0
3358134 On ch=3 n=15 v=100
3358227 On ch=3 n=12 v=100
3358569 On ch=3 n=37 v=100
3358648 Off ch=3 n=15 v=0
3358648 Off ch=3 n=12 v=0
3358648 Off ch=3 n=37 v=0
3358693 On ch=3 n=37 v=100
3358712 Off ch=3 n=37 v=0
3358726 On ch=3 n=31 v=100
3358729 On ch=3 n=12 v=100
3358734 On ch=3 n=14 v=100
3358895 Off ch=3 n=12 v=0
3358933 Off ch=3 n=14 v=0
3358978 On ch=3 n=6 v=100
3359028 Off ch=3 n=31 v=0
3359308 Off ch=3 n=6 v=0
3359315 On ch=3 n=4 v=100
3359608 Off ch=3 n=4 v=0
3360276 On ch=3 n=26 v=100
3360563 Off ch=3 n=26 v=0
3360564 On ch=3 n=16 v=100
3361426 On ch=3 n=35 v=100
3361486 On ch=3 n=50 v=100
3361487 Off ch=3 n=16 v=0
3361490 On ch=3 n=2 v=100
3361684 Off ch=3 n=2 v=0
3361696 Off ch=3 n=35 v=0
3361804 Off ch=3 n=50 v=0
3361955 On ch=3 n=14 v=100
3362446 On ch=3 n=45 v=100
3362491 Off ch=3 n=14 v=0
3362580 Off ch=3 n=45 v=0
3362756 On ch=3 n=16 v=100
3362801 Off ch=3 n=16 v=0
3363590 On ch=3 n=35 v=100
3363716 Off ch=3 n=35 v=0
3365048 On ch=3 n=35 v=100
3365252 Off ch=3 n=35 v=0
3365422 On ch=3 n=29 v=100
3365486 Off ch=3 n=29 v=0
3365493 On ch=3 n=25 v=100
3365559 On ch=3 n=10 v=100
3365777 On ch=3 n=22 v=100
3365839 Off ch=3 n=25 v=0
3365870 Off ch=3 n=10 v=0
3365888 Off ch=3 n=22 v=0
3365897 On ch=3 n=18 v=100
3366137 Off ch=3 n=18 v=0
3366366 On ch=3 n=19 v=100
3366575 Off ch=3 n=19 v=0
3367335 On ch=3 n=16 v=100
3367375 Off ch=3 n=16 v=0
3367989 On ch=3 n=3 v=100
3368743 On ch=3 n=3 v=100
3368746 Off ch=3 n=3 v=0
3369149 Off ch=3 n=3 v=0
3369154 On ch=3 n=1 v=100
3369596 Off ch=3 n=1 v=0
3369995 On ch=3 n=19 v=100
3370015 On ch=3 n=14 v=100
3370031 On ch=3 n=15 v=100
3370177 Off ch=3 n=14 v=0
3370179 Off ch=3 n=19 v=0
3370215 Off ch=3 n=15 v=0
3370354 On ch=3 n=26 v=100
3370718 Off ch=3 n=26 v=0
3370987 On ch=3 n=25 v=100
3371277 Off ch=3 n=25 v=0
3372035 On ch=3 n=27 v=100
3372035 On ch=3 n=10 v=100
3372352 Off ch=3 n=10 v=0
3372529 Off ch=3 n=27 v=0
3372599 On ch=3 n=18 v=100
3372635 On ch=3 n=8 v=100
3372820 Off ch=3 n=18 v=0
3372867 Off ch=3 n=8 v=0
3375096 On ch=3 n=38 v=100
3375155 On ch=3 n=38 v=100
3375242 Off ch=3 n=38 v=0
3375244 Off ch=3 n=38 v=0
3376511 On ch=3 n=30 v=100
3376843 Off ch=3 n=30 v=0
3376966 On ch=3 n=30 v=100
3377174 On ch=3 n=16 v=100
3377203 On ch=3 n=22 v=100
3377479 On ch=3 n=31 v=100
3377593 Off ch=3 n=30 v=0
3377603 On ch=3 n=13 v=100
3377676 Off ch=3 n=16 v=0
3377758 Off ch=3 n=22 v=0
3377767 On ch=3 n=30 v=100
3377801 Off ch=3 n=31 v=0
3377901 Off ch=3 n=13 v=0
3377968 Off ch=3 n=30 v=0
3378016 On ch=3 n=33 v=100
3378129 On ch=3 n=16 v=100
3378142 On ch=3 n=27 v=100
3378296 Off ch=3 n=33 v=0
3378315 Off ch=3 n=16 v=0
3378360 Off ch=3 n=27 v=0
3380115 On ch=3 n=25 v=100
3380296 Off ch=3 n=25 v=0
3380355 On ch=3 n=25 v=100
3380571 Off ch=3 n=25 v=0
3380789 On ch=3 n=14 v=100
3380835 Off ch=3 n=14 v=0
3381614 On ch=3 n=26 v=100
3381857 On ch=3 n=9 v=100
3381868 On ch=3 n=15 v=100
3381906 On ch=3 n=25 v=100
3382211 Off ch=3 n=9 v=0
3382215 Off ch=3 n=26 v=0
3382276 Off ch=3 n=15 v=0
3382374 Off ch=3 n=25 v=0
3383379 On ch=3 n=18 v=100
3383466 On ch=3 n=13 v=100
3383835 Off ch=3 n=18 v=0
3383835 Off ch=3 n=13 v=0
3384955 On ch=3 n=11 v=100
3385441 On ch=3 n=10 v=100
3385448 Off ch=3 n=11 v=0
3385598 Off ch=3 n=10 v=0
3385939 On ch=3 n=30 v=100
3386130 Off ch=3 n=30 v=0
3386199 On ch=3 n=25 v=100
3386350 Off ch=3 n=25 v=0
3386616 On ch=3 n=13 v=100
3386617 On ch=3 n=28 v=100
3386816 Off ch=3 n=13 v=0
3386841 Off ch=3 n=28 v=0
3387816 On ch=3 n=21 v=100
3388281 Off ch=3 n=21 v=0
3389132 On ch=3 n=43 v=100
3389386 On ch=3 n=26 v=100
3389401 On ch=3 n=39 v=100
3389504 Off ch=3 n=43 v=0
3389507 Off ch=3 n=26 v=0
3389521 Off ch=3 n=39 v=0
3389934 On ch=3 n=19 v=100
3390617 Off ch=3 n=19 v=0
3392026 On ch=3 n=31 v=100
3392037 On ch=3 n=34 v=100
3392045 On ch=3 n=21 v=100
3392301 Off ch=3 n=21 v=0
3392340 Off ch=3 n=31 v=0
3392402 On ch=3 n=27 v=100
3392417 Off ch=3 n=34 v=0
3392529 Off ch=3 n=27 v=0
3393292 On ch=3 n=19 v=100
3393292 On ch=3 n=19 v=100
3393506 On ch=3 n=36 v=100
3393506 On ch=3 n=36 v=100
3393604 Off ch=3 n=19 v=0
3393604 Off ch=3 n=19 v=0
3393665 Off ch=3 n=36 v=0
3393665 Off ch=3 n=36 v=0
3394076 On ch=3 n=6 v=100
3394165 Off ch=3 n=6 v=0
3394172 On ch=3 n=14 v=100
3394583 Off ch=3 n=14 v=0
3394586 On ch=3 n=12 v=100
3394878 Off ch=3 n=12 v=0
3394984 On ch=3 n=22 v=100
3395113 Off ch=3 n=22 v=0
3395177 On ch=3 n=46 v=100
3395467 Off ch=3 n=46 v=0
3395809 On ch=3 n=9 v=100
3396046 Off ch=3 n=9 v=0
3396540 On ch=3 n=51 v=100
3396664 On ch=3 n=43 v=100
3396691 On ch=3 n=37 v=100
3396714 On ch=3 n=20 v=100
3396878 Off ch=3 n=51 v=0
3396879 Off ch=3 n=20 v=0
3396882 On ch=3 n=7 v=100
3396945 Off ch=3 n=37 v=0
3396951 Off ch=3 n=43 v=0
3397209 On ch=3 n=25 v=100
3397387 On ch=3 n=11 v=100
3397388 Off ch=3 n=7 v=0
3397651 On ch=3 n=51 v=100
3397711 Off ch=3 n=25 v=0
3397711 Off ch=3 n=11 v=0
3397717 On ch=3 n=27 v=100
3397741 On ch=3 n=37 v=100
3397768 Off ch=3 n=27 v=0
3397769 On ch=3 n=8 v=100
3397769 Off ch=3 n=51 v=0
3397854 Off ch=3 n=37 v=0
3397960 Off ch=3 n=8 v=0
3397969 On ch=3 n=11 v=100
3398492 On ch=3 n=47 v=100
3398560 On ch=3 n=24 v=100
3398590 Off ch=3 n=11 v=0
3398591 On ch=3 n=16 v=100
3398661 Off ch=3 n=16 v=0
3398665 Off ch=3 n=47 v=0
3398678 Off ch=3 n=24 v=0
3399934 On ch=3 n=44 v=100
3399997 On ch=3 n=30 v=100
3400004 On ch=3 n=28 v=100
3400192 On ch=3 n=54 v=100
3400286 Off ch=3 n=28 v=0
3400290 Off ch=3 n=44 v=0
3400315 Off ch=3 n=30 v=0
3400472 Off ch=3 n=54 v=0
3401848 On ch=3 n=32 v=100
3401950 On ch=3 n=25 v=100
3401952 Off ch=3 n=32 v=0
3402331 On ch=3 n=17 v=100
3402333 Off ch=3 n=25 v=0
3402382 Off ch=3 n=17 v=0
3402811 On ch=3 n=34 v=100
3402976 Off ch=3 n=34 v=0
3405280 On ch=3 n=28 v=100
3405423 On ch=3 n=14 v=100
3405435 Off ch=3 n=28 v=0
3405533 On ch=3 n=32 v=100
3405533 On ch=3 n=32 v=100
3405610 Off ch=3 n=14 v=0
3405619 On ch=3 n=26 v=100
3405619 On ch=3 n=26 v=100
3405863 On ch=3 n=30 v=100
3406042 Off ch=3 n=26 v=0
3406042 Off ch=3 n=26 v=0
3406079 Off ch=3 n=32 v=0
3406079 Off ch=3 n=32 v=0
3406119 On ch=3 n=8 v=100
3406119 Off ch=3 n=30 v=0
3406439 Off ch=3 n=8 v=0
3408928 On ch=3 n=24 v=100
3408969 On ch=3 n=31 v=100
3409078 On ch=3 n=39 v=100
3409123 Off ch=3 n=24 v=0
3409149 Off ch=3 n=31 v=0
3409150 On ch=3 n=17 v=100
3409150 On ch=3 n=17 v=100
3409189 Off ch=3 n=39 v=0
3409432 Off ch=3 n=17 v=0
3409432 Off ch=3 n=17 v=0
3410639 On ch=3 n=16 v=100
3410726 Off ch=3 n=16 v=0
3411227 On ch=3 n=54 v=100
3411237 On ch=3 n=47 v=100
3411246 On ch=3 n=40 v=100
3411401 Off ch=3 n=54 v=0
3411401 Off ch=3 n=40 v=0
3411430 Off ch=3 n=47 v=0
3411940 On ch=3 n=12 v=100
3412105 Off ch=3 n=12 v=0
3412161 On ch=3 n=11 v=100
3412747 Off ch=3 n=11 v=0
3414331 On ch=3 n=41 v=100
3414472 On ch=3 n=14 v=100
3414646 Off ch=3 n=14 v=0
3414651 Off ch=3 n=41 v=0
3416232 On ch=3 n=7 v=100
3416376 Off ch=3 n=7 v=0
3416378 On ch=3 n=8 v=100
3416720 On ch=3 n=14 v=100
3416744 Off ch=3 n=8 v=0
3416984 On ch=3 n=20 v=100
3417171 Off ch=3 n=14 v=0
3417237 Off ch=3 n=20 v=0
3418831 On ch=3 n=29 v=100
3418845 Off ch=3 n=29 v=0
3418894 On ch=3 n=29 v=100
3418901 On ch=3 n=17 v=100
3419372 Off ch=3 n=17 v=0
3419374 On ch=3 n=9 v=100
3419378 On ch=3 n=12 v=100
3419408 Off ch=3 n=29 v=0
3419649 Off ch=3 n=9 v=0
3419701 Off ch=3 n=12 v=0
3420435 On ch=3 n=8 v=100
3420705 Off ch=3 n=8 v=0
3420706 On ch=3 n=17 v=100
3420706 On ch=3 n=31 v=100
3420707 On ch=3 n=32 v=100
3420892 Off ch=3 n=17 v=0
3420941 Off ch=3 n=31 v=0
3420969 Off ch=3 n=32 v=0
3422054 On ch=3 n=19 v=100
3422158 Off ch=3 n=19 v=0
3422160 On ch=3 n=11 v=100
3422666 On ch=3 n=22 v=100
3422673 Off ch=3 n=11 v=0
3422854 Off ch=3 n=22 v=0
3433518 On ch=3 n=6 v=100
3433596 Off ch=3 n=6 v=0
3433636 On ch=3 n=21 v=100
3433725 On ch=3 n=17 v=100
3433783 Off ch=3 n=21 v=0
3433813 On ch=3 n=9 v=100
3433995 Off ch=3 n=9 v=0
3433998 Off ch=3 n=17 v=0
3435079 On ch=3 n=21 v=100
3435163 On ch=3 n=47 v=100
3435231 Off ch=3 n=21 v=0
3435343 On ch=3 n=30 v=100
3435415 On ch=3 n=13 v=100
3435572 On ch=3 n=25 v=100
3435665 Off ch=3 n=47 v=0
3435906 Off ch=3 n=30 v=0
3435906 Off ch=3 n=13 v=0
3435906 Off ch=3 n=25 v=0
3435999 On ch=3 n=25 v=100
3436326 Off ch=3 n=25 v=0
3437033 On ch=3 n=30 v=100
3437168 Off ch=3 n=30 v=0
3437257 On ch=3 n=25 v=100
3437313 On ch=3 n=14 v=100
3437395 Off ch=3 n=25 v=0
3437395 Off ch=3 n=14 v=0
3437503 On ch=3 n=25 v=100
3437503 On ch=3 n=14 v=100
3437503 On ch=3 n=21 v=100
3437841 Off ch=3 n=25 v=0
3437860 Off ch=3 n=14 v=0
3437967 Off ch=3 n=21 v=0
3438319 On ch=3 n=14 v=100
3438486 Off ch=3 n=14 v=0
3439152 On ch=3 n=16 v=100
3439352 Off ch=3 n=16 v=0
3440019 On ch=3 n=35 v=100
3440019 On ch=3 n=35 v=100
3440057 On ch=3 n=25 v=100
3440164 On ch=3 n=19 v=100
3440193 On ch=3 n=15 v=100
3440193 On ch=3 n=15 v=100
3440343 Off ch=3 n=35 v=0
3440343 Off ch=3 n=35 v=0
3440601 Off ch=3 n=25 v=0
3440625 On ch=3 n=17 v=100
3440625 On ch=3 n=17 v=100
3440645 On ch=3 n=11 v=100
3440659 Off ch=3 n=15 v=0
3440659 Off ch=3 n=15 v=0
3440711 Off ch=3 n=19 v=0
3440909 Off ch=3 n=11 v=0
3440936 Off ch=3 n=17 v=0
3440936 Off ch=3 n=17 v=0
3441540 On ch=3 n=24 v=100
3441938 Off ch=3 n=24 v=0
3442454 On ch=3 n=20 v=100
3442685 On ch=3 n=13 v=100
3442693 Off ch=3 n=20 v=0
3442877 On ch=3 n=25 v=100
3443052 Off ch=3 n=13 v=0
3443182 Off ch=3 n=25 v=0
3443214 On ch=3 n=20 v=100
3443361 Off ch=3 n=20 v=0
3443466 On ch=3 n=26 v=100
3443515 On ch=3 n=24 v=100
3443612 On ch=3 n=15 v=100
3443613 On ch=3 n=18 v=100
3443660 On ch=3 n=36 v=100
3443660 On ch=3 n=36 v=100
3443699 On ch=3 n=26 v=100
3443845 Off ch=3 n=26 v=0
3443924 On ch=3 n=21 v=100
3443926 Off ch=3 n=15 v=0
3443929 Off ch=3 n=24 v=0
3443969 Off ch=3 n=18 v=0
3444010 Off ch=3 n=26 v=0
3444118 Off ch=3 n=21 v=0
3444159 Off ch=3 n=36 v=0
3444159 Off ch=3 n=36 v=0
3445196 On ch=3 n=41 v=100
3445485 On ch=3 n=20 v=100
3445535 On ch=3 n=17 v=100
3445583 On ch=3 n=12 v=100
3445794 Off ch=3 n=41 v=0
3445794 Off ch=3 n=20 v=0
3445794 Off ch=3 n=17 v=0
3445794 Off ch=3 n=12 v=0
3445845 On ch=3 n=17 v=100
3445845 On ch=3 n=12 v=100
3445972 On ch=3 n=13 v=100
3446002 Off ch=3 n=12 v=0
3446138 Off ch=3 n=17 v=0
3446330 On ch=3 n=21 v=100
3446331 Off ch=3 n=13 v=0
3446411 Off ch=3 n=21 v=0
3446563 On ch=3 n=6 v=100
3446787 Off ch=3 n=6 v=0
3446790 On ch=3 n=32 v=100
3446917 On ch=3 n=36 v=100
3446969 On ch=3 n=33 v=100
3446970 Off ch=3 n=32 v=0
3447023 On ch=3 n=24 v=100
3447149 Off ch=3 n=36 v=0
3447150 Off ch=3 n=33 v=0
3447364 Off ch=3 n=24 v=0
3447524 On ch=3 n=7 v=100
3447763 On ch=3 n=37 v=100
3447791 On ch=3 n=42 v=100
3447835 On ch=3 n=15 v=100
3447868 On ch=3 n=11 v=100
3447890 Off ch=3 n=7 v=0
3447946 Off ch=3 n=37 v=0
3447947 Off ch=3 n=42 v=0
3448097 Off ch=3 n=15 v=0
3448097 Off ch=3 n=11 v=0
3448182 On ch=3 n=11 v=100
3448182 On ch=3 n=15 v=100
3448182 On ch=3 n=32 v=100
3448315 On ch=3 n=7 v=100
3448325 Off ch=3 n=11 v=0
3448363 Off ch=3 n=15 v=0
3448518 Off ch=3 n=32 v=0
3448668 Off ch=3 n=7 v=0
3448671 On ch=3 n=7 v=100
3448909 Off ch=3 n=7 v=0
3449077 On ch=3 n=12 v=100
3449078 On ch=3 n=19 v=100
3449135 Off ch=3 n=12 v=0
3449148 Off ch=3 n=19 v=0
3452543 On ch=3 n=32 v=100
3452597 On ch=3 n=45 v=100
3452934 Off ch=3 n=32 v=0
3453000 Off ch=3 n=45 v=0
3453537 On ch=3 n=28 v=100
3454123 Off ch=3 n=28 v=0
3454475 On ch=3 n=30 v=100
3454623 On ch=3 n=50 v=100
3454623 Off ch=3 n=30 v=0
3454631 On ch=3 n=32 v=100
3454695 Off ch=3 n=32 v=0
3454712 On ch=3 n=5 v=100
3454725 Off ch=3 n=50 v=0
3454749 Off ch=3 n=5 v=0
3454755 On ch=3 n=15 v=100
3454843 Off ch=3 n=15 v=0
3455604 On ch=3 n=42 v=100
3455621 On ch=3 n=42 v=100
3455683 Off ch=3 n=42 v=0
3455688 Off ch=3 n=42 v=0
3456184 On ch=3 n=19 v=100
3456587 Off ch=3 n=19 v=0
3456835 On ch=3 n=27 v=100
3456913 Off ch=3 n=27 v=0
3457621 On ch=3 n=22 v=100
3458069 Off ch=3 n=22 v=0
3458264 On ch=3 n=38 v=100
3458396 Off ch=3 n=38 v=0
3458951 On ch=3 n=36 v=100
3458989 On ch=3 n=28 v=100
3459258 Off ch=3 n=36 v=0
3459260 Off ch=3 n=28 v=0
3460052 On ch=3 n=16 v=100
3460235 On ch=3 n=24 v=100
3460341 Off ch=3 n=16 v=0
3460359 Off ch=3 n=24 v=0
3460388 On ch=3 n=19 v=100
3460883 Off ch=3 n=19 v=0
3460893 On ch=3 n=19 v=100
3460949 Off ch=3 n=19 v=0
3460962 On ch=3 n=9 v=100
3460997 Off ch=3 n=9 v=0
3463141 On ch=3 n=29 v=100
3463141 On ch=3 n=29 v=100
3463168 On ch=3 n=46 v=100
3463225 On ch=3 n=11 v=100
3463225 On ch=3 n=11 v=100
3463424 Off ch=3 n=29 v=0
3463424 Off ch=3 n=29 v=0
3463462 Off ch=3 n=46 v=0
3463585 Off ch=3 n=11 v=0
3463585 Off ch=3 n=11 v=0
3463644 On ch=3 n=18 v=100
3463644 On ch=3 n=11 v=100
3463647 Off ch=3 n=11 v=0
3463712 Off ch=3 n=18 v=0
3463875 On ch=3 n=21 v=100
3464034 Off ch=3 n=21 v=0
3465601 On ch=3 n=15 v=100
3465796 Off ch=3 n=15 v=0
3466704 On ch=3 n=14 v=100
3467167 Off ch=3 n=14 v=0
3467392 On ch=3 n=34 v=100
3467404 On ch=3 n=25 v=100
3467428 On ch=3 n=40 v=100
3467436 On ch=3 n=30 v=100
3467442 On ch=3 n=18 v=100
3467554 On ch=3 n=23 v=100
3467582 Off ch=3 n=25 v=0
3467582 Off ch=3 n=18 v=0
3467585 On ch=3 n=8 v=100
3467593 Off ch=3 n=34 v=0
3467608 Off ch=3 n=30 v=0
3467671 Off ch=3 n=40 v=0
3467764 Off ch=3 n=23 v=0
3467953 Off ch=3 n=8 v=0
3467963 On ch=3 n=27 v=100
3468106 On ch=3 n=6 v=100
3468108 Off ch=3 n=27 v=0
3468300 Off ch=3 n=6 v=0
3468304 On ch=3 n=10 v=100
3468458 On ch=3 n=30 v=100
3468458 On ch=3 n=44 v=100
3468459 Off ch=3 n=10 v=0
3468528 Off ch=3 n=30 v=0
3468585 Off ch=3 n=44 v=0
3469364 On ch=3 n=19 v=100
3469454 On ch=3 n=13 v=100
3469456 Off ch=3 n=19 v=0
3469852 Off ch=3 n=13 v=0
3469901 On ch=3 n=13 v=100
3469928 Off ch=3 n=13 v=0
3470053 On ch=3 n=22 v=100
3470134 Off ch=3 n=22 v=0
3471027 On ch=3 n=17 v=100
3471806 Off ch=3 n=17 v=0
3471910 On ch=3 n=7 v=100
3472533 Off ch=3 n=7 v=0
3474352 On ch=3 n=8 v=100
3474598 On ch=3 n=21 v=100
3474601 Off ch=3 n=8 v=0
3474616 On ch=3 n=19 v=100
3474728 Off ch=3 n=21 v=0
3475192 Off ch=3 n=19 v=0
3475482 On ch=3 n=9 v=100
3475530 Off ch=3 n=9 v=0
3476731 On ch=3 n=39 v=100
3476731 On ch=3 n=36 v=100
3476759 On ch=3 n=8 v=100
3476864 Off ch=3 n=39 v=0
3476921 Off ch=3 n=36 v=0
3477097 Off ch=3 n=8 v=0
3477161 On ch=3 n=8 v=100
3477177 On ch=3 n=29 v=100
3477207 Off ch=3 n=8 v=0
3477232 On ch=3 n=28 v=100
3477332 Off ch=3 n=29 v=0
3477357 Off ch=3 n=28 v=0
3477920 On ch=3 n=24 v=100
3478328 Off ch=3 n=24 v=0
3479009 On ch=3 n=27 v=100
3479478 Off ch=3 n=27 v=0
3479543 On ch=3 n=14 v=100
3480615 Off ch=3 n=14 v=0
3480779 On ch=3 n=26 v=100
3481377 Off ch=3 n=26 v=0
3482686 On ch=3 n=17 v=100
3482806 Off ch=3 n=17 v=0
3482927 On ch=3 n=23 v=100
3482959 Off ch=3 n=23 v=0
3483000 On ch=3 n=23 v=100
3483010 On ch=3 n=21 v=100
3483063 On ch=3 n=24 v=100
3483137 Off ch=3 n=23 v=0
3483491 Off ch=3 n=21 v=0
3483579 Off ch=3 n=24 v=0
3483602 On ch=3 n=10 v=100
3483922 Off ch=3 n=10 v=0
3483993 On ch=3 n=18 v=100
3484059 On ch=3 n=8 v=100
3484470 Off ch=3 n=18 v=0
3484470 Off ch=3 n=8 v=0
3485178 On ch=3 n=20 v=100
3485243 On ch=3 n=25 v=100
3485588 Off ch=3 n=20 v=0
3485588 Off ch=3 n=25 v=0
3485624 On ch=3 n=20 v=100
3485624 On ch=3 n=25 v=100
3485738 Off ch=3 n=20 v=0
3485802 Off ch=3 n=25 v=0
3486536 On ch=3 n=21 v=100
3486536 On ch=3 n=20 v=100
3486762 Off ch=3 n=21 v=0
3486946 Off ch=3 n=20 v=0
3487620 On ch=3 n=22 v=100
3487808 Off ch=3 n=22 v=0
3487882 On ch=3 n=27 v=100
3487919 On ch=3 n=18 v=100
3488102 Off ch=3 n=18 v=0
3488110 Off ch=3 n=27 v=0
3488516 On ch=3 n=16 v=100
3488538 On ch=3 n=23 v=100
3488623 On ch=3 n=44 v=100
3488623 Off ch=3 n=16 v=0
3488765 Off ch=3 n=23 v=0
3489030 On ch=3 n=20 v=100
3489048 On ch=3 n=15 v=100
3489048 On ch=3 n=15 v=100
3489060 On ch=3 n=10 v=100
3489089 On ch=3 n=13 v=100
3489139 Off ch=3 n=44 v=0
3489195 Off ch=3 n=20 v=0
3489306 On ch=3 n=26 v=100
3489442 Off ch=3 n=10 v=0
3489503 Off ch=3 n=13 v=0
3489531 Off ch=3 n=15 v=0
3489531 Off ch=3 n=15 v=0
3489668 Off ch=3 n=26 v=0
3489846 On ch=3 n=6 v=100
3489920 Off ch=3 n=6 v=0
3489923 On ch=3 n=9 v=100
3490068 Off ch=3 n=9 v=0
3490629 On ch=3 n=18 v=100
3490714 Off ch=3 n=18 v=0
3491077 On ch=3 n=4 v=100
3491450 Off ch=3 n=4 v=0
3491520 On ch=3 n=24 v=100
3492137 Off ch=3 n=24 v=0
3492490 On ch=3 n=41 v=100
3492520 On ch=3 n=49 v=100
3492520 On ch=3 n=49 v=100
3492544 On ch=3 n=30 v=100
3492609 On ch=3 n=32 v=100
3492728 Off ch=3 n=30 v=0
3492733 Off ch=3 n=41 v=0
3492748 Off ch=3 n=32 v=0
3492843 Off ch=3 n=49 v=0
3492843 Off ch=3 n=49 v=0
3493730 On ch=3 n=13 v=100
3494550 Off ch=3 n=13 v=0
3494663 On ch=3 n=18 v=100
3494856 Off ch=3 n=18 v=0
3494895 On ch=3 n=37 v=100
3494895 On ch=3 n=37 v=100
3495051 Off ch=3 n=37 v=0
3495051 Off ch=3 n=37 v=0
3495169 On ch=3 n=15 v=100
3495354 Off ch=3 n=15 v=0
3495356 On ch=3 n=7 v=100
3495356 On ch=3 n=18 v=100
3495983 Off ch=3 n=7 v=0
3496200 Off ch=3 n=18 v=0
3496261 On ch=3 n=7 v=100
3496301 Off ch=3 n=7 v=0
3496307 On ch=3 n=11 v=100
3496993 On ch=3 n=33 v=100
3496996 Off ch=3 n=11 v=0
3497153 On ch=3 n=26 v=100
3497155 Off ch=3 n=33 v=0
3497203 On ch=3 n=11 v=100
3497451 Off ch=3 n=26 v=0
3497615 Off ch=3 n=11 v=0
3497622 On ch=3 n=8 v=100
3497776 Off ch=3 n=8 v=0
3497777 On ch=3 n=8 v=100
3498291 Off ch=3 n=8 v=0
3498731 On ch=3 n=62 v=100
3498738 On ch=3 n=18 v=100
3498790 On ch=3 n=30 v=100
3498927 Off ch=3 n=18 v=0
3498936 On ch=3 n=18 v=100
3498951 Off ch=3 n=30 v=0
3498968 Off ch=3 n=62 v=0
3499360 On ch=3 n=3 v=100
3499360 Off ch=3 n=18 v=0
3499417 Off ch=3 n=3 v=0
3500250 On ch=3 n=29 v=100
3500401 Off ch=3 n=29 v=0
3500455 On ch=3 n=10 v=100
3501481 Off ch=3 n=10 v=0
3501488 On ch=3 n=6 v=100
3501522 Off ch=3 n=6 v=0
3501829 On ch=3 n=9 v=100
3502042 On ch=3 n=18 v=100
3502107 Off ch=3 n=9 v=0
3502126 Off ch=3 n=18 v=0
3503355 On ch=3 n=11 v=100
3503436 On ch=3 n=11 v=100
3503438 Off ch=3 n=11 v=0
3503614 Off ch=3 n=11 v=0
3504615 On ch=3 n=12 v=100
3504626 Off ch=3 n=12 v=0
3504752 On ch=3 n=12 v=100
3505172 Off ch=3 n=12 v=0
3506321 On ch=3 n=10 v=100
3506462 On ch=3 n=12 v=100
3506466 Off ch=3 n=10 v=0
3506743 Off ch=3 n=12 v=0
3506844 On ch=3 n=12 v=100
3507782 Off ch=3 n=12 v=0
3507787 On ch=3 n=11 v=100
3507840 On ch=3 n=31 v=100
3507880 Off ch=3 n=11 v=0
3507905 Off ch=3 n=31 v=0
3508332 On ch=3 n=23 v=100
3508368 On ch=3 n=19 v=100
3508404 On ch=3 n=18 v=100
3508609 Off ch=3 n=23 v=0
3508803 Off ch=3 n=19 v=0
3508882 Off ch=3 n=18 v=0
3509962 On ch=3 n=7 v=100
3510370 Off ch=3 n=7 v=0
3510372 On ch=3 n=6 v=100
3510764 Off ch=3 n=6 v=0
3511191 On ch=3 n=37 v=100
3511436 Off ch=3 n=37 v=0
3511443 On ch=3 n=4 v=100
3511535 On ch=3 n=24 v=100
3511631 Off ch=3 n=4 v=0
3511730 On ch=3 n=41 v=100
3512151 Off ch=3 n=24 v=0
3512551 Off ch=3 n=41 v=0
3513424 On ch=3 n=3 v=100
3513739 Off ch=3 n=3 v=0
3513755 On ch=3 n=26 v=100
3513888 Off ch=3 n=26 v=0
3513894 On ch=3 n=4 v=100
3513895 On ch=3 n=16 v=100
3514024 Off ch=3 n=4 v=0
3514041 Off ch=3 n=16 v=0
3514847 On ch=3 n=41 v=100
3514849 On ch=3 n=29 v=100
3515026 Off ch=3 n=29 v=0
3515127 Off ch=3 n=41 v=0
3515774 On ch=3 n=8 v=100
3517499 On ch=3 n=8 v=100
3518069 Off ch=3 n=8 v=0
3520599 On ch=3 n=4 v=100
3520645 Off ch=3 n=8 v=0
3523352 On ch=3 n=1 v=100
3523358 Off ch=3 n=4 v=0
3523508 On ch=3 n=1 v=100
3523508 Off ch=3 n=1 v=0
3524160 On ch=3 n=41 v=100
3524277 On ch=3 n=2 v=100
3524279 Off ch=3 n=1 v=0
3524300 Off ch=3 n=41 v=0
3524938 On ch=3 n=12 v=100
3525636 On ch=3 n=7 v=100
3525692 Off ch=3 n=2 v=0
3526075 On ch=3 n=8 v=100
3526190 Off ch=3 n=12 v=0
3527021 On ch=3 n=3 v=100
3527039 Off ch=3 n=7 v=0
3529058 Off ch=3 n=8 v=0
3530665 On ch=3 n=29 v=100
3530718 Off ch=3 n=3 v=0
3530725 Off ch=3 n=29 v=0
3531175 On ch=3 n=31 v=100
3531229 On ch=3 n=12 v=100
3531290 Off ch=3 n=31 v=0
3531346 On ch=3 n=25 v=100
3531406 Off ch=3 n=12 v=0
3531470 Off ch=3 n=25 v=0
3531752 On ch=3 n=21 v=100
3532015 Off ch=3 n=21 v=0
3532031 On ch=3 n=40 v=100
3532128 On ch=3 n=22 v=100
3532200 Off ch=3 n=40 v=0
3532208 On ch=3 n=14 v=100
3532208 On ch=3 n=14 v=100
3532236 On ch=3 n=21 v=100
3532236 On ch=3 n=21 v=100
3532253 On ch=3 n=17 v=100
3532601 Off ch=3 n=22 v=0
3532609 Off ch=3 n=14 v=0
3532609 Off ch=3 n=14 v=0
3532671 Off ch=3 n=17 v=0
3532781 Off ch=3 n=21 v=0
3532781 Off ch=3 n=21 v=0
3533561 On ch=3 n=12 v=100
3533898 Off ch=3 n=12 v=0
3533912 On ch=3 n=26 v=100
3534322 Off ch=3 n=26 v=0
3535003 On ch=3 n=11 v=100
3535125 On ch=3 n=27 v=100
3535373 Off ch=3 n=11 v=0
3535374 On ch=3 n=15 v=100
3535449 On ch=3 n=28 v=100
3535451 On ch=3 n=50 v=100
3535710 Off ch=3 n=27 v=0
3535731 On ch=3 n=24 v=100
3535746 Off ch=3 n=15 v=0
3535844 Off ch=3 n=28 v=0
3535870 On ch=3 n=22 v=100
3535963 Off ch=3 n=50 v=0
3536001 Off ch=3 n=24 v=0
3536126 Off ch=3 n=22 v=0
3536320 On ch=3 n=6 v=100
3536643 Off ch=3 n=6 v=0
3536644 On ch=3 n=6 v=100
3537016 Off ch=3 n=6 v=0
3537123 On ch=3 n=6 v=100
3537399 Off ch=3 n=6 v=0
3537609 On ch=3 n=18 v=100
3537804 Off ch=3 n=18 v=0
3537829 On ch=3 n=8 v=100
3538025 Off ch=3 n=8 v=0
3538513 On ch=3 n=16 v=100
3538585 On ch=3 n=19 v=100
3538595 Off ch=3 n=16 v=0
3538595 Off ch=3 n=19 v=0
3538641 On ch=3 n=16 v=100
3538853 Off ch=3 n=16 v=0
3538856 On ch=3 n=3 v=100
3539105 On ch=3 n=35 v=100
3539105 On ch=3 n=35 v=100
3539208 On ch=3 n=29 v=100
3539223 Off ch=3 n=3 v=0
3539367 Off ch=3 n=29 v=0
3539435 Off ch=3 n=35 v=0
3539435 Off ch=3 n=35 v=0
3539439 On ch=3 n=8 v=100
3540180 On ch=3 n=9 v=100
3540180 Off ch=3 n=8 v=0
3540382 Off ch=3 n=9 v=0
3540936 On ch=3 n=14 v=100
3540982 Off ch=3 n=14 v=0
3540991 On ch=3 n=6 v=100
3541113 Off ch=3 n=6 v=0
3541157 On ch=3 n=2 v=100
3542101 Off ch=3 n=2 v=0
3542721 On ch=3 n=19 v=100
3542774 Off ch=3 n=19 v=0
3543107 On ch=3 n=28 v=100
3543205 On ch=3 n=9 v=100
3543321 Off ch=3 n=28 v=0
3543503 Off ch=3 n=9 v=0
3544784 On ch=3 n=14 v=100
3544794 On ch=3 n=19 v=100
3544843 Off ch=3 n=14 v=0
3544900 On ch=3 n=11 v=100
3545004 On ch=3 n=23 v=100
3545047 Off ch=3 n=19 v=0
3545063 On ch=3 n=13 v=100
3545063 Off ch=3 n=11 v=0
3545064 On ch=3 n=21 v=100
3545292 Off ch=3 n=23 v=0
3545414 On ch=3 n=12 v=100
3545414 On ch=3 n=36 v=100
3545467 Off ch=3 n=13 v=0
3545568 Off ch=3 n=21 v=0
3545615 Off ch=3 n=12 v=0
3545770 Off ch=3 n=36 v=0
3545797 On ch=3 n=43 v=100
3545952 Off ch=3 n=43 v=0
3547207 On ch=3 n=19 v=100
3547225 On ch=3 n=25 v=100
3547308 Off ch=3 n=19 v=0
3547879 Off ch=3 n=25 v=0
3549058 On ch=3 n=10 v=100
3549132 On ch=3 n=24 v=100
3549244 Off ch=3 n=10 v=0
3549289 Off ch=3 n=24 v=0
3550116 On ch=3 n=16 v=100
3550164 On ch=3 n=28 v=100
3550422 On ch=3 n=25 v=100
3550504 Off ch=3 n=16 v=0
3550794 On ch=3 n=16 v=100
3550857 Off ch=3 n=28 v=0
3551011 On ch=3 n=32 v=100
3551012 Off ch=3 n=25 v=0
3551098 Off ch=3 n=16 v=0
3551128 Off ch=3 n=32 v=0
3551200 On ch=3 n=30 v=100
3551302 Off ch=3 n=30 v=0
3551964 On ch=3 n=23 v=100
3551974 On ch=3 n=16 v=100
3551974 On ch=3 n=26 v=100
3552214 Off ch=3 n=16 v=0
3552316 On ch=3 n=10 v=100
3552405 Off ch=3 n=23 v=0
3552456 Off ch=3 n=26 v=0
3552536 Off ch=3 n=10 v=0
3552568 On ch=3 n=15 v=100
3553649 Off ch=3 n=15 v=0
3553725 On ch=3 n=15 v=100
3556061 Off ch=3 n=15 v=0
3556062 On ch=3 n=11 v=100
3556255 Off ch=3 n=11 v=0
3556314 On ch=3 n=23 v=100
3556355 On ch=3 n=19 v=100
3556380 Off ch=3 n=23 v=0
3556380 Off ch=3 n=19 v=0
3556424 On ch=3 n=13 v=100
3556461 Off ch=3 n=13 v=0
3556513 On ch=3 n=23 v=100
3556513 On ch=3 n=13 v=100
3556661 Off ch=3 n=23 v=0
3556680 On ch=3 n=7 v=100
3556682 Off ch=3 n=13 v=0
3557239 On ch=3 n=7 v=100
3557241 Off ch=3 n=7 v=0
3557900 Off ch=3 n=7 v=0
3557901 On ch=3 n=39 v=100
3558321 On ch=3 n=15 v=100
3558332 On ch=3 n=9 v=100
3558376 Off ch=3 n=39 v=0
3558416 Off ch=3 n=15 v=0
3558942 Off ch=3 n=9 v=0
3559454 On ch=3 n=28 v=100
3559518 Off ch=3 n=28 v=0
3560462 On ch=3 n=17 v=100
3560570 On ch=3 n=24 v=100
3560572 Off ch=3 n=17 v=0
3561101 On ch=3 n=11 v=100
3561102 Off ch=3 n=24 v=0
3561364 Off ch=3 n=11 v=0
3561365 On ch=3 n=8 v=100
3561845 On ch=3 n=28 v=100
3561964 On ch=3 n=20 v=100
3561978 Off ch=3 n=8 v=0
3561980 On ch=3 n=14 v=100
3562001 Off ch=3 n=28 v=0
3562010 On ch=3 n=39 v=100
3562010 On ch=3 n=39 v=100
3562024 Off ch=3 n=20 v=0
3562031 Off ch=3 n=14 v=0
3562033 On ch=3 n=6 v=100
3562310 On ch=3 n=16 v=100
3562321 On ch=3 n=30 v=100
3562321 Off ch=3 n=6 v=0
3562392 Off ch=3 n=39 v=0
3562392 Off ch=3 n=39 v=0
3562581 Off ch=3 n=16 v=0
3562654 Off ch=3 n=30 v=0
3562727 On ch=3 n=37 v=100
3562819 Off ch=3 n=37 v=0
3563409 On ch=3 n=33 v=100
3563692 On ch=3 n=31 v=100
3563763 Off ch=3 n=33 v=0
3563783 On ch=3 n=18 v=100
3563835 On ch=3 n=14 v=100
3564161 Off ch=3 n=31 v=0
3564329 Off ch=3 n=18 v=0
3564395 Off ch=3 n=14 v=0
3565221 On ch=3 n=8 v=100
3565252 On ch=3 n=9 v=100
3565270 Off ch=3 n=8 v=0
3565817 On ch=3 n=25 v=100
3565825 Off ch=3 n=9 v=0
3565929 Off ch=3 n=25 v=0
3566283 On ch=3 n=20 v=100
3566394 On ch=3 n=19 v=100
3566428 On ch=3 n=8 v=100
3566437 Off ch=3 n=20 v=0
3566582 Off ch=3 n=19 v=0
3566731 On ch=3 n=17 v=100
3566737 Off ch=3 n=8 v=0
3566798 Off ch=3 n=17 v=0
3566802 On ch=3 n=17 v=100
3566962 On ch=3 n=12 v=100
3566965 Off ch=3 n=17 v=0
3567060 On ch=3 n=7 v=100
3567072 Off ch=3 n=12 v=0
3567354 Off ch=3 n=7 v=0
3567357 On ch=3 n=8 v=100
3567544 Off ch=3 n=8 v=0
3567545 On ch=3 n=8 v=100
3567690 Off ch=3 n=8 v=0
3567695 On ch=3 n=9 v=100
3567887 Off ch=3 n=9 v=0
3567888 On ch=3 n=10 v=100
3567888 On ch=3 n=37 v=100
3568429 Off ch=3 n=10 v=0
3568430 On ch=3 n=11 v=100
3568677 Off ch=3 n=37 v=0
3568910 On ch=3 n=9 v=100
3568912 Off ch=3 n=11 v=0
3569143 On ch=3 n=27 v=100
3569173 On ch=3 n=13 v=100
3569183 Off ch=3 n=9 v=0
3569190 Off ch=3 n=27 v=0
3569507 Off ch=3 n=13 v=0
3570468 On ch=3 n=25 v=100
3570501 On ch=3 n=15 v=100
3570767 Off ch=3 n=25 v=0
3570769 Off ch=3 n=15 v=0
3571337 On ch=3 n=45 v=100
3571346 On ch=3 n=15 v=100
3571394 Off ch=3 n=15 v=0
3571397 Off ch=3 n=45 v=0
3571982 On ch=3 n=44 v=100
3572026 On ch=3 n=18 v=100
3572072 Off ch=3 n=18 v=0
3572074 On ch=3 n=13 v=100
3572237 Off ch=3 n=44 v=0
3572736 On ch=3 n=18 v=100
3572897 Off ch=3 n=13 v=0
3573519 On ch=3 n=15 v=100
3573530 Off ch=3 n=18 v=0
3573564 On ch=3 n=45 v=100
3573847 Off ch=3 n=15 v=0
3573917 Off ch=3 n=45 v=0
3574321 On ch=3 n=11 v=100
3574438 Off ch=3 n=11 v=0
3574443 On ch=3 n=31 v=100
3574482 Off ch=3 n=31 v=0
3574576 On ch=3 n=31 v=100
3574604 Off ch=3 n=31 v=0
3574904 On ch=3 n=32 v=100
3575022 On ch=3 n=29 v=100
3575065 Off ch=3 n=32 v=0
3575226 Off ch=3 n=29 v=0
3575255 On ch=3 n=25 v=100
3575371 Off ch=3 n=25 v=0
3575397 On ch=3 n=19 v=100
3575715 Off ch=3 n=19 v=0
3575754 On ch=3 n=11 v=100
3576749 Off ch=3 n=11 v=0
3576759 On ch=3 n=47 v=100
3576843 Off ch=3 n=47 v=0
3577975 On ch=3 n=46 v=100
3578091 Off ch=3 n=46 v=0
3578096 On ch=3 n=31 v=100
3578185 Off ch=3 n=31 v=0
3578289 On ch=3 n=14 v=100
3578424 Off ch=3 n=14 v=0
3578570 On ch=3 n=11 v=100
3579113 Off ch=3 n=11 v=0
3579726 On ch=3 n=12 v=100
3579763 Off ch=3 n=12 v=0
3579860 On ch=3 n=22 v=100
3579939 Off ch=3 n=22 v=0
3580969 On ch=3 n=23 v=100
3581052 Off ch=3 n=23 v=0
3581064 On ch=3 n=13 v=100
3581224 On ch=3 n=26 v=100
3581270 Off ch=3 n=13 v=0
3581717 Off ch=3 n=26 v=0
3583604 On ch=3 n=4 v=100
3583717 On ch=3 n=3 v=100
3583717 Off ch=3 n=4 v=0
3584951 On ch=3 n=22 v=100
3584979 Off ch=3 n=3 v=0
3584999 On ch=3 n=11 v=100
3585172 Off ch=3 n=22 v=0
3585407 Off ch=3 n=11 v=0
3585443 On ch=3 n=19 v=100
3585506 Off ch=3 n=19 v=0
3585562 On ch=3 n=18 v=100
3585651 Off ch=3 n=18 v=0
3585972 On ch=3 n=7 v=100
3586300 On ch=3 n=46 v=100
3586334 Off ch=3 n=7 v=0
3586481 Off ch=3 n=46 v=0
3586618 On ch=3 n=8 v=100
3586756 On ch=3 n=33 v=100
3586894 Off ch=3 n=8 v=0
3586898 On ch=3 n=5 v=100
3586903 On ch=3 n=23 v=100
3587022 Off ch=3 n=5 v=0
3587026 Off ch=3 n=33 v=0
3587060 Off ch=3 n=23 v=0
3587346 On ch=3 n=8 v=100
3587898 On ch=3 n=25 v=100
3588037 Off ch=3 n=8 v=0
3588058 Off ch=3 n=25 v=0
3588480 On ch=3 n=16 v=100
3588514 On ch=3 n=13 v=100
3588712 Off ch=3 n=13 v=0
3588716 Off ch=3 n=16 v=0
3590005 On ch=3 n=26 v=100
3590343 On ch=3 n=46 v=100
3590432 On ch=3 n=29 v=100
3590494 Off ch=3 n=26 v=0
3590512 On ch=3 n=30 v=100
3590514 Off ch=3 n=46 v=0
3590551 Off ch=3 n=29 v=0
3590600 Off ch=3 n=30 v=0
3590833 On ch=3 n=30 v=100
3590978 Off ch=3 n=30 v=0
3591019 On ch=3 n=29 v=100
3591052 On ch=3 n=14 v=100
3591072 Off ch=3 n=29 v=0
3591201 Off ch=3 n=14 v=0
3591225 On ch=3 n=19 v=100
3591318 Off ch=3 n=19 v=0
3591382 On ch=3 n=8 v=100
3592213 On ch=3 n=15 v=100
3592220 Off ch=3 n=8 v=0
3592494 Off ch=3 n=15 v=0
3592500 On ch=3 n=6 v=100
3592870 Off ch=3 n=6 v=0
3593972 On ch=3 n=26 v=100
3594035 On ch=3 n=24 v=100
3594350 Off ch=3 n=26 v=0
3594350 Off ch=3 n=24 v=0
3594481 On ch=3 n=37 v=100
3594483 On ch=3 n=16 v=100
3594566 On ch=3 n=46 v=100
3594739 Off ch=3 n=16 v=0
3594820 On ch=3 n=18 v=100
3594849 Off ch=3 n=37 v=0
3594960 Off ch=3 n=46 v=0
3594960 Off ch=3 n=18 v=0
3595057 On ch=3 n=46 v=100
3595057 On ch=3 n=18 v=100
3595066 Off ch=3 n=46 v=0
3595277 Off ch=3 n=18 v=0
3595286 On ch=3 n=15 v=100
3595383 Off ch=3 n=15 v=0
3595420 On ch=3 n=22 v=100
3595765 Off ch=3 n=22 v=0
3595869 On ch=3 n=27 v=100
3596036 Off ch=3 n=27 v=0
3596756 On ch=3 n=29 v=100
3596834 Off ch=3 n=29 v=0
3596859 On ch=3 n=25 v=100
3597247 Off ch=3 n=25 v=0
3597248 On ch=3 n=9 v=100
3597398 Off ch=3 n=9 v=0
3597436 On ch=3 n=17 v=100
3597436 On ch=3 n=9 v=100
3597700 Off ch=3 n=9 v=0
3597701 On ch=3 n=29 v=100
3597768 On ch=3 n=5 v=100
3597769 Off ch=3 n=17 v=0
3597772 On ch=3 n=48 v=100
3597786 Off ch=3 n=29 v=0
3597804 Off ch=3 n=5 v=0
3597808 On ch=3 n=23 v=100
3598003 Off ch=3 n=48 v=0
3598025 Off ch=3 n=23 v=0
3598170 On ch=3 n=27 v=100
3598210 On ch=3 n=27 v=100
3598533 Off ch=3 n=27 v=0
3598736 Off ch=3 n=27 v=0
3598744 On ch=3 n=13 v=100
3599271 On ch=3 n=14 v=100
3599275 Off ch=3 n=13 v=0
3599284 On ch=3 n=20 v=100
3599284 On ch=3 n=23 v=100
3599323 Off ch=3 n=14 v=0
3599328 Off ch=3 n=20 v=0
3599357 Off ch=3 n=23 v=0
3600517 On ch=3 n=18 v=100
3600665 On ch=3 n=9 v=100
3600690 Off ch=3 n=18 v=0
3601241 On ch=3 n=9 v=100
3601686 Off ch=3 n=9 v=0
3601863 On ch=3 n=19 v=100
3601867 Off ch=3 n=9 v=0
3602262 Off ch=3 n=19 v=0
3602860 On ch=3 n=7 v=100
3603185 Off ch=3 n=7 v=0
3603298 On ch=3 n=11 v=100
3603669 On ch=3 n=40 v=100
3603710 Off ch=3 n=11 v=0
3603712 On ch=3 n=9 v=100
3603892 Off ch=3 n=40 v=0
3603892 Off ch=3 n=9 v=0
3603942 On ch=3 n=11 v=100
3605186 Off ch=3 n=11 v=0
3605308 On ch=3 n=29 v=100
3605407 On ch=3 n=25 v=100
3605583 On ch=3 n=24 v=100
3605583 On ch=3 n=24 v=100
3605603 On ch=3 n=15 v=100
3605965 Off ch=3 n=15 v=0
3605972 Off ch=3 n=29 v=0
3606071 Off ch=3 n=25 v=0
3606132 Off ch=3 n=24 v=0
3606132 Off ch=3 n=24 v=0
3607763 On ch=3 n=13 v=100
3608188 Off ch=3 n=13 v=0
3608262 On ch=3 n=10 v=100
3609141 On ch=3 n=27 v=100
3609432 Off ch=3 n=10 v=0
3609481 Off ch=3 n=27 v=0
3609558 On ch=3 n=15 v=100
3610190 Off ch=3 n=15 v=0
3611921 On ch=3 n=5 v=100
3612174 On ch=3 n=36 v=100
3612336 Off ch=3 n=5 v=0
3612342 On ch=3 n=9 v=100
3612359 Off ch=3 n=36 v=0
3613096 On ch=3 n=1 v=100
3613102 Off ch=3 n=9 v=0
3616767 On ch=3 n=12 v=100
3616831 On ch=3 n=8 v=100
3616834 Off ch=3 n=1 v=0
3616846 Off ch=3 n=12 v=0
3617647 Off ch=3 n=8 v=0
3617729 On ch=3 n=33 v=100
3617734 On ch=3 n=31 v=100
3617844 Off ch=3 n=31 v=0
3617865 Off ch=3 n=33 v=0
3618685 On ch=3 n=42 v=100
3618700 On ch=3 n=4 v=100
3618812 Off ch=3 n=42 v=0
3618867 Off ch=3 n=4 v=0
3619192 On ch=3 n=12 v=100
3619548 Off ch=3 n=12 v=0
3619550 On ch=3 n=23 v=100
3619904 Off ch=3 n=23 v=0
3619906 On ch=3 n=14 v=100
3620685 Off ch=3 n=14 v=0
3620687 On ch=3 n=12 v=100
3620807 Off ch=3 n=12 v=0
3623684 On ch=3 n=23 v=100
3624018 Off ch=3 n=23 v=0
3624118 On ch=3 n=9 v=100
3624381 Off ch=3 n=9 v=0
3624387 On ch=3 n=2 v=100
3624609 Off ch=3 n=2 v=0
3624614 On ch=3 n=5 v=100
3624953 Off ch=3 n=5 v=0
3624955 On ch=3 n=12 v=100
3624987 On ch=3 n=6 v=100
3624990 Off ch=3 n=12 v=0
3625213 Off ch=3 n=6 v=0
3625948 On ch=3 n=10 v=100
3626363 Off ch=3 n=10 v=0
3627503 On ch=3 n=35 v=100
3627503 On ch=3 n=35 v=100
3627514 On ch=3 n=4 v=100
3627709 Off ch=3 n=4 v=0
3627712 On ch=3 n=8 v=100
3627740 Off ch=3 n=35 v=0
3627740 Off ch=3 n=35 v=0
3628175 On ch=3 n=46 v=100
3628244 On ch=3 n=8 v=100
3628287 Off ch=3 n=8 v=0
3628586 Off ch=3 n=46 v=0
3628610 On ch=3 n=30 v=100
3628610 On ch=3 n=30 v=100
3628614 Off ch=3 n=8 v=0
3628622 On ch=3 n=12 v=100
3628622 On ch=3 n=38 v=100
3628690 Off ch=3 n=12 v=0
3628706 Off ch=3 n=38 v=0
3628731 Off ch=3 n=30 v=0
3628731 Off ch=3 n=30 v=0
3628861 On ch=3 n=34 v=100
3628973 On ch=3 n=37 v=100
3628975 On ch=3 n=32 v=100
3628987 Off ch=3 n=34 v=0
3629095 Off ch=3 n=32 v=0
3629108 Off ch=3 n=37 v=0
3629983 On ch=3 n=8 v=100
3630019 On ch=3 n=23 v=100
3630073 Off ch=3 n=8 v=0
3630093 Off ch=3 n=23 v=0
3631205 On ch=3 n=21 v=100
3631437 Off ch=3 n=21 v=0
3631533 On ch=3 n=28 v=100
3631600 On ch=3 n=17 v=100
3631651 On ch=3 n=14 v=100
3631888 Off ch=3 n=28 v=0
3632028 Off ch=3 n=17 v=0
3632032 On ch=3 n=28 v=100
3632063 Off ch=3 n=14 v=0
3632216 Off ch=3 n=28 v=0
3632220 On ch=3 n=23 v=100
3632343 On ch=3 n=43 v=100
3632386 On ch=3 n=27 v=100
3632386 On ch=3 n=27 v=100
3632386 On ch=3 n=34 v=100
3632397 Off ch=3 n=23 v=0
3632399 On ch=3 n=12 v=100
3632585 On ch=3 n=14 v=100
3632585 Off ch=3 n=12 v=0
3632590 Off ch=3 n=43 v=0
3632611 Off ch=3 n=27 v=0
3632611 Off ch=3 n=27 v=0
3632671 Off ch=3 n=34 v=0
3632724 On ch=3 n=37 v=100
3632732 Off ch=3 n=14 v=0
3632807 On ch=3 n=63 v=100
3632936 Off ch=3 n=37 v=0
3632947 On ch=3 n=23 v=100
3632962 On ch=3 n=33 v=100
3633153 Off ch=3 n=63 v=0
3633163 Off ch=3 n=23 v=0
3633246 Off ch=3 n=33 v=0
3634126 On ch=3 n=42 v=100
3634250 Off ch=3 n=42 v=0
3634904 On ch=3 n=33 v=100
3635151 Off ch=3 n=33 v=0
3635258 On ch=3 n=3 v=100
3635670 Off ch=3 n=3 v=0
3635705 On ch=3 n=3 v=100
3636403 Off ch=3 n=3 v=0
3636604 On ch=3 n=23 v=100
3636859 Off ch=3 n=23 v=0
3637011 On ch=3 n=18 v=100
3637083 Off ch=3 n=18 v=0
3637284 On ch=3 n=27 v=100
3637343 Off ch=3 n=27 v=0
3637410 On ch=3 n=8 v=100
3637466 On ch=3 n=20 v=100
3637468 Off ch=3 n=8 v=0
3637533 On ch=3 n=14 v=100
3637627 Off ch=3 n=20 v=0
3637825 On ch=3 n=24 v=100
3637835 On ch=3 n=22 v=100
3637854 Off ch=3 n=14 v=0
3637975 Off ch=3 n=22 v=0
3637998 Off ch=3 n=24 v=0
3638448 On ch=3 n=10 v=100
3638457 On ch=3 n=23 v=100
3638983 Off ch=3 n=10 v=0
3638986 On ch=3 n=15 v=100
3639140 Off ch=3 n=23 v=0
3639382 Off ch=3 n=15 v=0
3639431 On ch=3 n=11 v=100
3639538 Off ch=3 n=11 v=0
3639614 On ch=3 n=37 v=100
3640095 Off ch=3 n=37 v=0
3640944 On ch=3 n=26 v=100
3641055 On ch=3 n=12 v=100
3641176 Off ch=3 n=26 v=0
3641176 Off ch=3 n=12 v=0
3641406 On ch=3 n=20 v=100
3641919 Off ch=3 n=20 v=0
3642054 On ch=3 n=19 v=100
3642102 Off ch=3 n=19 v=0
3642161 On ch=3 n=19 v=100
3642176 On ch=3 n=16 v=100
3642176 On ch=3 n=28 v=100
3642552 Off ch=3 n=19 v=0
3642616 On ch=3 n=12 v=100
3642661 Off ch=3 n=16 v=0
3642784 Off ch=3 n=28 v=0
3642964 Off ch=3 n=12 v=0
3643064 On ch=3 n=18 v=100
3643310 Off ch=3 n=18 v=0
3644048 On ch=3 n=21 v=100
3644275 On ch=3 n=22 v=100
3644351 On ch=3 n=23 v=100
3644351 On ch=3 n=23 v=100
3644400 On ch=3 n=12 v=100
3644410 On ch=3 n=26 v=100
3644413 Off ch=3 n=21 v=0
3644765 Off ch=3 n=22 v=0
3644775 Off ch=3 n=12 v=0
3644871 Off ch=3 n=23 v=0
3644871 Off ch=3 n=23 v=0
3644928 On ch=3 n=8 v=100
3644931 Off ch=3 n=26 v=0
3645857 Off ch=3 n=8 v=0
3645867 On ch=3 n=18 v=100
3646056 Off ch=3 n=18 v=0
3646152 On ch=3 n=28 v=100
3646226 On ch=3 n=19 v=100
3646602 Off ch=3 n=28 v=0
3646603 Off ch=3 n=19 v=0
3646612 On ch=3 n=17 v=100
3646657 On ch=3 n=11 v=100
3646955 Off ch=3 n=17 v=0
3646956 Off ch=3 n=11 v=0
3647362 On ch=3 n=17 v=100
3647441 Off ch=3 n=17 v=0
3647867 On ch=3 n=12 v=100
3647982 Off ch=3 n=12 v=0
3648134 On ch=3 n=21 v=100
3648300 On ch=3 n=11 v=100
3648310 Off ch=3 n=21 v=0
3648611 Off ch=3 n=11 v=0
3648640 On ch=3 n=12 v=100
3649347 Off ch=3 n=12 v=0
3649404 On ch=3 n=57 v=100
3649573 On ch=3 n=6 v=100
3649755 Off ch=3 n=57 v=0
3650649 Off ch=3 n=6 v=0
3650653 On ch=3 n=28 v=100
3650890 Off ch=3 n=28 v=0
3651107 On ch=3 n=20 v=100
3651218 On ch=3 n=31 v=100
3651343 Off ch=3 n=20 v=0
3651372 Off ch=3 n=31 v=0
3651483 On ch=3 n=11 v=100
3652139 Off ch=3 n=11 v=0
3652303 On ch=3 n=28 v=100
3652322 On ch=3 n=25 v=100
3652341 On ch=3 n=22 v=100
3652383 On ch=3 n=30 v=100
3652453 Off ch=3 n=25 v=0
3652455 Off ch=3 n=28 v=0
3652455 Off ch=3 n=22 v=0
3652590 Off ch=3 n=30 v=0
3655318 On ch=3 n=32 v=100
3655331 Off ch=3 n=32 v=0
3655469 On ch=3 n=32 v=100
3655586 On ch=3 n=9 v=100
3655647 Off ch=3 n=32 v=0
3655650 Off ch=3 n=9 v=0
3656983 On ch=3 n=15 v=100
3657355 Off ch=3 n=15 v=0
3657513 On ch=3 n=35 v=100
3657629 Off ch=3 n=35 v=0
3658201 On ch=3 n=27 v=100
3658285 On ch=3 n=10 v=100
3658331 Off ch=3 n=27 v=0
3658348 Off ch=3 n=10 v=0
3658477 On ch=3 n=28 v=100
3658647 Off ch=3 n=28 v=0
3660644 On ch=3 n=10 v=100
3660713 Off ch=3 n=10 v=0
3660743 On ch=3 n=10 v=100
3660954 Off ch=3 n=10 v=0
3661280 On ch=3 n=9 v=100
3661391 On ch=3 n=60 v=100
3661514 On ch=3 n=41 v=100
3661551 On ch=3 n=41 v=100
3661553 On ch=3 n=24 v=100
3661554 On ch=3 n=55 v=100
3661561 Off ch=3 n=9 v=0
3661562 On ch=3 n=10 v=100
3661740 Off ch=3 n=10 v=0
3661741 On ch=3 n=10 v=100
3661745 Off ch=3 n=60 v=0
3661752 Off ch=3 n=41 v=0
3661754 Off ch=3 n=24 v=0
3661804 Off ch=3 n=41 v=0
3661865 Off ch=3 n=55 v=0
3661900 Off ch=3 n=10 v=0
3661910 On ch=3 n=13 v=100
3662089 Off ch=3 n=13 v=0
3662104 On ch=3 n=13 v=100
3662811 Off ch=3 n=13 v=0
3665694 On ch=3 n=47 v=100
3665728 On ch=3 n=12 v=100
3665932 Off ch=3 n=12 v=0
3665936 Off ch=3 n=47 v=0
3665985 On ch=3 n=6 v=100
3666375 Off ch=3 n=6 v=0
3666402 On ch=3 n=24 v=100
3666479 Off ch=3 n=24 v=0
3666488 On ch=3 n=26 v=100
3666592 Off ch=3 n=26 v=0
3666636 On ch=3 n=7 v=100
3666637 On ch=3 n=11 v=100
3666936 On ch=3 n=13 v=100
3666949 Off ch=3 n=7 v=0
3667025 Off ch=3 n=11 v=0
3667093 Off ch=3 n=13 v=0
3668519 On ch=3 n=10 v=100
3668531 On ch=3 n=17 v=100
3668614 On ch=3 n=43 v=100
3668662 Off ch=3 n=10 v=0
3668665 On ch=3 n=12 v=100
3668689 Off ch=3 n=17 v=0
3668751 Off ch=3 n=43 v=0
3669296 Off ch=3 n=12 v=0
3669297 On ch=3 n=10 v=100
3669327 Off ch=3 n=10 v=0
3669329 On ch=3 n=19 v=100
3669335 On ch=3 n=13 v=100
3669378 Off ch=3 n=19 v=0
3670510 On ch=3 n=35 v=100
3670579 Off ch=3 n=13 v=0
3670590 Off ch=3 n=35 v=0
3670592 On ch=3 n=11 v=100
3670655 Off ch=3 n=11 v=0
3670657 On ch=3 n=13 v=100
3670674 On ch=3 n=13 v=100
3670809 Off ch=3 n=13 v=0
3670922 On ch=3 n=43 v=100
3670974 On ch=3 n=18 v=100
3670993 Off ch=3 n=13 v=0
3671047 Off ch=3 n=43 v=0
3671049 Off ch=3 n=18 v=0
3671663 On ch=3 n=19 v=100
3671739 On ch=3 n=12 v=100
3671740 Off ch=3 n=19 v=0
3672100 On ch=3 n=32 v=100
3672180 On ch=3 n=10 v=100
3672183 Off ch=3 n=12 v=0
3672641 Off ch=3 n=32 v=0
3672641 Off ch=3 n=10 v=0
3672686 On ch=3 n=38 v=100
3672874 On ch=3 n=19 v=100
3672879 Off ch=3 n=38 v=0
3672960 On ch=3 n=39 v=100
3673044 Off ch=3 n=19 v=0
3673082 On ch=3 n=26 v=100
3673394 Off ch=3 n=39 v=0
3673395 Off ch=3 n=26 v=0
3673470 On ch=3 n=15 v=100
3673623 On ch=3 n=32 v=100
3673623 Off ch=3 n=15 v=0
3673630 On ch=3 n=23 v=100
3673818 Off ch=3 n=23 v=0
3673834 Off ch=3 n=32 v=0
3674112 On ch=3 n=24 v=100
3674112 On ch=3 n=15 v=100
3674258 Off ch=3 n=15 v=0
3674317 Off ch=3 n=24 v=0
3674322 On ch=3 n=17 v=100
3674323 On ch=3 n=23 v=100
3674330 On ch=3 n=23 v=100
3674410 Off ch=3 n=17 v=0
3674423 Off ch=3 n=23 v=0
3674434 On ch=3 n=27 v=100
3674438 Off ch=3 n=23 v=0
3674476 Off ch=3 n=27 v=0
3674500 On ch=3 n=37 v=100
3674941 On ch=3 n=20 v=100
3674944 Off ch=3 n=37 v=0
3674947 On ch=3 n=14 v=100
3675217 Off ch=3 n=14 v=0
3675245 Off ch=3 n=20 v=0
3675775 On ch=3 n=10 v=100
3675992 Off ch=3 n=10 v=0
3677252 On ch=3 n=45 v=100
3677255 On ch=3 n=34 v=100
3677309 On ch=3 n=29 v=100
3677343 Off ch=3 n=34 v=0
3677356 On ch=3 n=8 v=100
3677376 Off ch=3 n=45 v=0
3677389 On ch=3 n=9 v=100
3677393 Off ch=3 n=8 v=0
3677394 Off ch=3 n=29 v=0
3677540 Off ch=3 n=9 v=0
3677970 On ch=3 n=22 v=100
3677987 On ch=3 n=10 v=100
3678095 Off ch=3 n=22 v=0
3678168 Off ch=3 n=10 v=0
3678171 On ch=3 n=3 v=100
3678265 Off ch=3 n=3 v=0
3678266 On ch=3 n=6 v=100
3678346 On ch=3 n=5 v=100
3678348 Off ch=3 n=6 v=0
3678376 On ch=3 n=11 v=100
3678381 Off ch=3 n=5 v=0
3678880 Off ch=3 n=11 v=0
3679197 On ch=3 n=10 v=100
3679261 Off ch=3 n=10 v=0
3679267 On ch=3 n=11 v=100
3679937 Off ch=3 n=11 v=0
3680082 On ch=3 n=25 v=100
3680152 Off ch=3 n=25 v=0
3680809 On ch=3 n=8 v=100
3681013 Off ch=3 n=8 v=0
3681117 On ch=3 n=15 v=100
3681524 On ch=3 n=13 v=100
3681589 Off ch=3 n=15 v=0
3681615 Off ch=3 n=13 v=0
3681616 On ch=3 n=8 v=100
3681903 Off ch=3 n=8 v=0
3681911 On ch=3 n=8 v=100
3682084 Off ch=3 n=8 v=0
3682593 On ch=3 n=17 v=100
3682694 On ch=3 n=10 v=100
3683177 Off ch=3 n=17 v=0
3683177 Off ch=3 n=10 v=0
3683376 On ch=3 n=12 v=100
3683494 Off ch=3 n=12 v=0
3683504 On ch=3 n=11 v=100
3683514 On ch=3 n=14 v=100
3683589 On ch=3 n=31 v=100
3683589 Off ch=3 n=11 v=0
3683603 Off ch=3 n=14 v=0
3683895 Off ch=3 n=31 v=0
3684789 On ch=3 n=11 v=100
3685185 On ch=3 n=11 v=100
3685193 Off ch=3 n=11 v=0
3685791 Off ch=3 n=11 v=0
3685864 On ch=3 n=34 v=100
3685943 On ch=3 n=33 v=100
3686203 Off ch=3 n=34 v=0
3686283 Off ch=3 n=33 v=0
3686399 On ch=3 n=14 v=100
3686406 On ch=3 n=44 v=100
3686426 On ch=3 n=21 v=100
3686441 On ch=3 n=43 v=100
3686443 Off ch=3 n=14 v=0
3686495 Off ch=3 n=44 v=0
3686495 Off ch=3 n=21 v=0
3686496 On ch=3 n=7 v=100
3686605 Off ch=3 n=43 v=0
3686728 Off ch=3 n=7 v=0
3687434 On ch=3 n=7 v=100
3687737 Off ch=3 n=7 v=0
3687771 On ch=3 n=7 v=100
3688032 Off ch=3 n=7 v=0
3688034 On ch=3 n=13 v=100
3688127 On ch=3 n=13 v=100
3688133 Off ch=3 n=13 v=0
3688370 Off ch=3 n=13 v=0
3689366 On ch=3 n=25 v=100
3689433 Off ch=3 n=25 v=0
3689566 On ch=3 n=29 v=100
3689585 On ch=3 n=45 v=100
3689687 On ch=3 n=41 v=100
3689710 Off ch=3 n=29 v=0
3689730 On ch=3 n=17 v=100
3689736 On ch=3 n=40 v=100
3689754 Off ch=3 n=45 v=0
3689877 Off ch=3 n=41 v=0
3689877 Off ch=3 n=17 v=0
3689893 On ch=3 n=42 v=100
3689897 On ch=3 n=18 v=100
3689899 Off ch=3 n=40 v=0
3689902 On ch=3 n=45 v=100
3690057 Off ch=3 n=18 v=0
3690076 On ch=3 n=18 v=100
3690076 Off ch=3 n=42 v=0
3690099 Off ch=3 n=45 v=0
3690111 On ch=3 n=47 v=100
3690225 Off ch=3 n=18 v=0
3690242 Off ch=3 n=47 v=0
3690244 On ch=3 n=18 v=100
3690261 On ch=3 n=41 v=100
3690271 On ch=3 n=42 v=100
3690364 On ch=3 n=42 v=100
3690388 Off ch=3 n=18 v=0
3690405 Off ch=3 n=42 v=0
3690407 On ch=3 n=27 v=100
3690408 On ch=3 n=17 v=100
3690430 Off ch=3 n=41 v=0
3690490 Off ch=3 n=42 v=0
3690545 Off ch=3 n=17 v=0
3690591 Off ch=3 n=27 v=0
3691522 On ch=3 n=15 v=100
3691585 Off ch=3 n=15 v=0
3692065 On ch=3 n=20 v=100
3692204 Off ch=3 n=20 v=0
3692368 On ch=3 n=13 v=100
3692565 Off ch=3 n=13 v=0
3692577 On ch=3 n=20 v=100
3692720 Off ch=3 n=20 v=0
3692733 On ch=3 n=12 v=100
3693096 Off ch=3 n=12 v=0
3693115 On ch=3 n=9 v=100
3693917 On ch=3 n=19 v=100
3693990 Off ch=3 n=9 v=0
3694007 Off ch=3 n=19 v=0
3696348 On ch=3 n=23 v=100
3696432 Off ch=3 n=23 v=0
3697741 On ch=3 n=9 v=100
3697940 Off ch=3 n=9 v=0
3698260 On ch=3 n=43 v=100
3698380 Off ch=3 n=43 v=0
3698437 On ch=3 n=10 v=100
3698757 On ch=3 n=25 v=100
3698781 Off ch=3 n=10 v=0
3698794 Off ch=3 n=25 v=0
3698869 On ch=3 n=25 v=100
3698869 On ch=3 n=8 v=100
3699009 Off ch=3 n=25 v=0
3699094 On ch=3 n=22 v=100
3699170 On ch=3 n=31 v=100
3699271 Off ch=3 n=8 v=0
3699335 Off ch=3 n=22 v=0
3699377 Off ch=3 n=31 v=0
3699559 On ch=3 n=30 v=100
3699653 Off ch=3 n=30 v=0
3699656 On ch=3 n=23 v=100
3700155 Off ch=3 n=23 v=0
3700172 On ch=3 n=26 v=100
3700255 Off ch=3 n=26 v=0
3700284 On ch=3 n=16 v=100
3700410 Off ch=3 n=16 v=0
3701124 On ch=3 n=15 v=100
3701555 Off ch=3 n=15 v=0
3702034 On ch=3 n=27 v=100
3702093 On ch=3 n=10 v=100
3702254 Off ch=3 n=10 v=0
3702333 On ch=3 n=14 v=100
3702385 Off ch=3 n=27 v=0
3702457 Off ch=3 n=14 v=0
3703500 On ch=3 n=14 v=100
3703529 On ch=3 n=11 v=100
3703601 Off ch=3 n=14 v=0
3704670 Off ch=3 n=11 v=0
3704896 On ch=3 n=29 v=100
3705019 Off ch=3 n=29 v=0
3707261 On ch=3 n=23 v=100
3707435 On ch=3 n=34 v=100
3707468 Off ch=3 n=23 v=0
3707468 Off ch=3 n=34 v=0
3707562 On ch=3 n=23 v=100
3707562 On ch=3 n=34 v=100
3707571 Off ch=3 n=23 v=0
3707650 On ch=3 n=21 v=100
3707664 Off ch=3 n=34 v=0
3708101 Off ch=3 n=21 v=0
3708614 On ch=3 n=29 v=100
3708698 Off ch=3 n=29 v=0
3708799 On ch=3 n=4 v=100
3709091 On ch=3 n=6 v=100
3709092 Off ch=3 n=4 v=0
3709613 On ch=3 n=21 v=100
3709617 Off ch=3 n=6 v=0
3709884 Off ch=3 n=21 v=0
3711125 On ch=3 n=21 v=100
3711142 On ch=3 n=31 v=100
3711160 Off ch=3 n=21 v=0
3711194 Off ch=3 n=31 v=0
3711937 On ch=3 n=9 v=100
3711946 On ch=3 n=40 v=100
3711973 Off ch=3 n=9 v=0
3712009 On ch=3 n=24 v=100
3712013 Off ch=3 n=40 v=0
3712104 Off ch=3 n=24 v=0
3712132 On ch=3 n=41 v=100
3712292 On ch=3 n=29 v=100
3712325 Off ch=3 n=41 v=0
3712494 Off ch=3 n=29 v=0
3713596 On ch=3 n=21 v=100
3713712 Off ch=3 n=21 v=0
3714362 On ch=3 n=16 v=100
3714394 Off ch=3 n=16 v=0
3714546 On ch=3 n=17 v=100
3714995 Off ch=3 n=17 v=0
3715536 On ch=3 n=15 v=100
3715742 Off ch=3 n=15 v=0
3716209 On ch=3 n=27 v=100
3716274 Off ch=3 n=27 v=0
3717201 On ch=3 n=45 v=100
3717224 On ch=3 n=22 v=100
3717254 On ch=3 n=17 v=100
3717258 On ch=3 n=25 v=100
3717340 Off ch=3 n=45 v=0
3717450 Off ch=3 n=22 v=0
3717450 Off ch=3 n=17 v=0
3717466 On ch=3 n=32 v=100
3717489 Off ch=3 n=25 v=0
3717500 On ch=3 n=17 v=100
3717607 Off ch=3 n=32 v=0
3717786 On ch=3 n=11 v=100
3717786 Off ch=3 n=17 v=0
3718593 Off ch=3 n=11 v=0
3718594 On ch=3 n=12 v=100
3718931 Off ch=3 n=12 v=0
3718968 On ch=3 n=15 v=100
3719020 Off ch=3 n=15 v=0
3719031 On ch=3 n=11 v=100
3719136 Off ch=3 n=11 v=0
3719206 On ch=3 n=38 v=100
3719221 On ch=3 n=21 v=100
3719320 Off ch=3 n=38 v=0
3719733 Off ch=3 n=21 v=0
3719735 On ch=3 n=15 v=100
3719934 Off ch=3 n=15 v=0
3720037 On ch=3 n=11 v=100
3720500 On ch=3 n=27 v=100
3720518 On ch=3 n=14 v=100
3720520 Off ch=3 n=11 v=0
3720565 On ch=3 n=27 v=100
3720784 Off ch=3 n=14 v=0
3720810 Off ch=3 n=27 v=0
3720810 Off ch=3 n=27 v=0
3721195 On ch=3 n=3 v=100
3721267 Off ch=3 n=3 v=0
3721295 On ch=3 n=10 v=100
3721602 On ch=3 n=10 v=100
3721614 Off ch=3 n=10 v=0
3721880 Off ch=3 n=10 v=0
3721888 On ch=3 n=7 v=100
3724315 Off ch=3 n=7 v=0
3724351 On ch=3 n=7 v=100
3725526 Off ch=3 n=7 v=0
3725586 On ch=3 n=7 v=100
3726946 Off ch=3 n=7 v=0
3726989 On ch=3 n=7 v=100
3730092 Off ch=3 n=7 v=0
3730196 On ch=3 n=7 v=100
3731605 Off ch=3 n=7 v=0
3731606 On ch=3 n=17 v=100
3732110 Off ch=3 n=17 v=0
3732661 On ch=3 n=11 v=100
3732851 On ch=3 n=11 v=100
3732867 Off ch=3 n=11 v=0
3733251 Off ch=3 n=11 v=0
3733269 On ch=3 n=13 v=100
3733614 Off ch=3 n=13 v=0
3733705 On ch=3 n=11 v=100
3734773 On ch=3 n=10 v=100
3734779 Off ch=3 n=11 v=0
3735648 Off ch=3 n=10 v=0
3735674 On ch=3 n=10 v=100
3735674 On ch=3 n=26 v=100
3735864 Off ch=3 n=10 v=0
3735920 Off ch=3 n=26 v=0
3736551 On ch=3 n=20 v=100
3736589 Off ch=3 n=20 v=0
3737004 On ch=3 n=20 v=100
3737199 Off ch=3 n=20 v=0
3737253 On ch=3 n=10 v=100
3737349 On ch=3 n=12 v=100
3737349 Off ch=3 n=10 v=0
3738224 Off ch=3 n=12 v=0
3738300 On ch=3 n=20 v=100
3738771 Off ch=3 n=20 v=0
3739051 On ch=3 n=24 v=100
3739284 Off ch=3 n=24 v=0
3739302 On ch=3 n=17 v=100
3739740 Off ch=3 n=17 v=0
3739743 On ch=3 n=7 v=100
3739853 Off ch=3 n=7 v=0
3739862 On ch=3 n=9 v=100
3740255 On ch=3 n=10 v=100
3740256 Off ch=3 n=9 v=0
3740352 On ch=3 n=19 v=100
3740415 On ch=3 n=8 v=100
3740426 Off ch=3 n=10 v=0
3740476 Off ch=3 n=19 v=0
3740981 Off ch=3 n=8 v=0
3740984 On ch=3 n=12 v=100
3741063 Off ch=3 n=12 v=0
3742416 On ch=3 n=6 v=100
3743488 On ch=3 n=14 v=100
3743547 On ch=3 n=28 v=100
3743554 Off ch=3 n=6 v=0
3743562 On ch=3 n=29 v=100
3743562 On ch=3 n=24 v=100
3743562 Off ch=3 n=14 v=0
3743626 On ch=3 n=7 v=100
3743636 Off ch=3 n=28 v=0
3743639 Off ch=3 n=24 v=0
3743657 Off ch=3 n=29 v=0
3743803 On ch=3 n=10 v=100
3743803 Off ch=3 n=7 v=0
3744146 Off ch=3 n=10 v=0
3744149 On ch=3 n=6 v=100
3744173 On ch=3 n=22 v=100
3744222 On ch=3 n=15 v=100
3744225 On ch=3 n=22 v=100
3744233 Off ch=3 n=6 v=0
3744253 On ch=3 n=38 v=100
3744264 On ch=3 n=45 v=100
3744312 Off ch=3 n=15 v=0
3744313 Off ch=3 n=22 v=0
3744329 Off ch=3 n=22 v=0
3744352 Off ch=3 n=38 v=0
3744472 Off ch=3 n=45 v=0
3746778 On ch=3 n=7 v=100
3746803 Off ch=3 n=7 v=0
3746878 On ch=3 n=40 v=100
3746888 On ch=3 n=63 v=100
3746895 On ch=3 n=18 v=100
3747064 Off ch=3 n=18 v=0
3747128 Off ch=3 n=40 v=0
3747279 Off ch=3 n=63 v=0
3747999 On ch=3 n=10 v=100
3748341 Off ch=3 n=10 v=0
3748343 On ch=3 n=10 v=100
3748842 Off ch=3 n=10 v=0
3748902 On ch=3 n=20 v=100
3749335 On ch=3 n=8 v=100
3749344 Off ch=3 n=20 v=0
3749713 Off ch=3 n=8 v=0
3749714 On ch=3 n=7 v=100
3749837 Off ch=3 n=7 v=0
3749845 On ch=3 n=19 v=100
3749955 On ch=3 n=11 v=100
3749957 Off ch=3 n=19 v=0
3750298 On ch=3 n=23 v=100
3750298 On ch=3 n=38 v=100
3750298 Off ch=3 n=11 v=0
3750443 On ch=3 n=46 v=100
3750490 Off ch=3 n=23 v=0
3750533 Off ch=3 n=38 v=0
3750553 Off ch=3 n=46 v=0
3751853 On ch=3 n=12 v=100
3752694 Off ch=3 n=12 v=0
3753126 On ch=3 n=6 v=100
3753660 On ch=3 n=14 v=100
3753660 Off ch=3 n=6 v=0
3753892 Off ch=3 n=14 v=0
3754222 On ch=3 n=34 v=100
3754394 Off ch=3 n=34 v=0
3754707 On ch=3 n=34 v=100
3754852 Off ch=3 n=34 v=0
3754956 On ch=3 n=50 v=100
3755063 On ch=3 n=36 v=100
3755163 Off ch=3 n=50 v=0
3755201 Off ch=3 n=36 v=0
3755554 On ch=3 n=33 v=100
3755649 Off ch=3 n=33 v=0
3755672 On ch=3 n=31 v=100
3755725 Off ch=3 n=31 v=0
3755788 On ch=3 n=31 v=100
3755818 Off ch=3 n=31 v=0
3756203 On ch=3 n=23 v=100
3756327 Off ch=3 n=23 v=0
3756329 On ch=3 n=27 v=100
3756704 Off ch=3 n=27 v=0
3757142 On ch=3 n=27 v=100
3757184 On ch=3 n=21 v=100
3757186 On ch=3 n=19 v=100
3757399 Off ch=3 n=19 v=0
3757421 Off ch=3 n=27 v=0
3757484 On ch=3 n=18 v=100
3757494 Off ch=3 n=21 v=0
3757678 Off ch=3 n=18 v=0
3757921 On ch=3 n=37 v=100
3758051 Off ch=3 n=37 v=0
3758174 On ch=3 n=30 v=100
3758348 Off ch=3 n=30 v=0
3758349 On ch=3 n=2 v=100
3758580 Off ch=3 n=2 v=0
3758583 On ch=3 n=7 v=100
3758737 On ch=3 n=4 v=100
3758753 Off ch=3 n=7 v=0
3759979 On ch=3 n=18 v=100
3759980 Off ch=3 n=4 v=0
3760035 On ch=3 n=6 v=100
3760039 Off ch=3 n=18 v=0
3760187 Off ch=3 n=6 v=0
3760189 On ch=3 n=6 v=100
3761238 On ch=3 n=31 v=100
3761238 On ch=3 n=31 v=100
3761478 Off ch=3 n=6 v=0
3761479 On ch=3 n=2 v=100
3761667 On ch=3 n=6 v=100
3761669 Off ch=3 n=2 v=0
3761941 Off ch=3 n=31 v=0
3761941 Off ch=3 n=31 v=0
3762348 On ch=3 n=8 v=100
3762348 Off ch=3 n=6 v=0
3762724 On ch=3 n=6 v=100
3762737 Off ch=3 n=8 v=0
3762947 Off ch=3 n=6 v=0
3764730 On ch=3 n=33 v=100
3764773 On ch=3 n=39 v=100
3764774 On ch=3 n=16 v=100
3764854 On ch=3 n=23 v=100
3764859 Off ch=3 n=16 v=0
3764860 Off ch=3 n=33 v=0
3765032 Off ch=3 n=23 v=0
3765037 On ch=3 n=52 v=100
3765050 On ch=3 n=50 v=100
3765107 Off ch=3 n=39 v=0
3765197 On ch=3 n=44 v=100
3765205 Off ch=3 n=52 v=0
3765240 On ch=3 n=34 v=100
3765241 On ch=3 n=14 v=100
3765243 Off ch=3 n=50 v=0
3765361 Off ch=3 n=44 v=0
3765361 Off ch=3 n=14 v=0
3765366 On ch=3 n=31 v=100
3765403 On ch=3 n=50 v=100
3765403 Off ch=3 n=34 v=0
3765432 On ch=3 n=53 v=100
3765453 Off ch=3 n=31 v=0
3765471 On ch=3 n=53 v=100
3765471 On ch=3 n=53 v=100
3765471 On ch=3 n=53 v=100
3765484 On ch=3 n=11 v=100
3765500 On ch=3 n=42 v=100
3765620 Off ch=3 n=50 v=0
3765679 Off ch=3 n=11 v=0
3765683 Off ch=3 n=53 v=0
3765735 Off ch=3 n=42 v=0
3765849 On ch=3 n=24 v=100
3766065 Off ch=3 n=24 v=0
3766076 Off ch=3 n=53 v=0
3766076 Off ch=3 n=53 v=0
3766076 Off ch=3 n=53 v=0
3766410 On ch=3 n=9 v=100
3767243 Off ch=3 n=9 v=0
3769733 On ch=3 n=16 v=100
3769755 On ch=3 n=12 v=100
3769853 Off ch=3 n=16 v=0
3770197 On ch=3 n=30 v=100
3770319 Off ch=3 n=12 v=0
3770345 Off ch=3 n=30 v=0
3771141 On ch=3 n=26 v=100
3771371 Off ch=3 n=26 v=0
3771410 On ch=3 n=18 v=100
3771410 On ch=3 n=28 v=100
3771416 On ch=3 n=36 v=100
3771637 Off ch=3 n=18 v=0
3771661 Off ch=3 n=36 v=0
3771661 Off ch=3 n=28 v=0
3771696 On ch=3 n=36 v=100
3771753 On ch=3 n=51 v=100
3771789 On ch=3 n=37 v=100
3771789 Off ch=3 n=36 v=0
3771990 Off ch=3 n=51 v=0
3771990 Off ch=3 n=37 v=0
3774683 On ch=3 n=21 v=100
3774725 Off ch=3 n=21 v=0
3774769 On ch=3 n=14 v=100
3775355 On ch=3 n=9 v=100
3775355 Off ch=3 n=14 v=0
3775591 Off ch=3 n=9 v=0
3776503 On ch=3 n=33 v=100
3777046 Off ch=3 n=33 v=0
3777317 On ch=3 n=14 v=100
3777327 On ch=3 n=18 v=100
3777327 On ch=3 n=18 v=100
3777380 On ch=3 n=21 v=100
3777380 On ch=3 n=21 v=100
3777489 On ch=3 n=19 v=100
3777672 On ch=3 n=46 v=100
3777672 On ch=3 n=46 v=100
3777801 Off ch=3 n=14 v=0
3777859 Off ch=3 n=18 v=0
3777859 Off ch=3 n=18 v=0
3777984 Off ch=3 n=19 v=0
3778000 Off ch=3 n=21 v=0
3778000 Off ch=3 n=21 v=0
3778143 Off ch=3 n=46 v=0
3778143 Off ch=3 n=46 v=0
3778567 On ch=3 n=34 v=100
3778585 Off ch=3 n=34 v=0
3778616 On ch=3 n=34 v=100
3778620 On ch=3 n=3 v=100
3778672 Off ch=3 n=3 v=0
3778710 Off ch=3 n=34 v=0
3779491 On ch=3 n=6 v=100
3779764 Off ch=3 n=6 v=0
3780222 On ch=3 n=9 v=100
3780601 Off ch=3 n=9 v=0
3781795 On ch=3 n=23 v=100
3781969 Off ch=3 n=23 v=0
3781992 On ch=3 n=6 v=100
3782672 On ch=3 n=7 v=100
3782689 Off ch=3 n=6 v=0
3783378 On ch=3 n=16 v=100
3783381 Off ch=3 n=7 v=0
3783853 On ch=3 n=27 v=100
3783854 Off ch=3 n=16 v=0
3784076 Off ch=3 n=27 v=0
3784833 On ch=3 n=15 v=100
3784868 Off ch=3 n=15 v=0
3784869 On ch=3 n=18 v=100
3785301 Off ch=3 n=18 v=0
3786443 On ch=3 n=8 v=100
3786686 Off ch=3 n=8 v=0
3788985 On ch=3 n=20 v=100
3789261 Off ch=3 n=20 v=0
3789266 On ch=3 n=20 v=100
3789312 On ch=3 n=26 v=100
3789342 Off ch=3 n=20 v=0
3789353 On ch=3 n=31 v=100
3789390 Off ch=3 n=26 v=0
3789390 Off ch=3 n=31 v=0
3789391 On ch=3 n=14 v=100
3789694 Off ch=3 n=14 v=0
3791384 On ch=3 n=7 v=100
3791466 Off ch=3 n=7 v=0
3791608 On ch=3 n=12 v=100
3792420 Off ch=3 n=12 v=0
3792491 On ch=3 n=12 v=100
3792706 Off ch=3 n=12 v=0
3792935 On ch=3 n=35 v=100
3792935 On ch=3 n=10 v=100
3793292 Off ch=3 n=10 v=0
3793299 On ch=3 n=10 v=100
3793318 On ch=3 n=25 v=100
3793426 Off ch=3 n=35 v=0
3793426 Off ch=3 n=10 v=0
3793445 Off ch=3 n=25 v=0
3794381 On ch=3 n=20 v=100
3794394 On ch=3 n=22 v=100
3794472 Off ch=3 n=20 v=0
3794681 Off ch=3 n=22 v=0
3794723 On ch=3 n=19 v=100
3794787 Off ch=3 n=19 v=0
3794790 On ch=3 n=16 v=100
3794933 Off ch=3 n=16 v=0
3794940 On ch=3 n=20 v=100
3795176 Off ch=3 n=20 v=0
3795244 On ch=3 n=9 v=100
3795360 On ch=3 n=53 v=100
3795375 Off ch=3 n=9 v=0
3795399 On ch=3 n=24 v=100
3795426 On ch=3 n=6 v=100
3795442 On ch=3 n=53 v=100
3795616 Off ch=3 n=6 v=0
3795617 Off ch=3 n=24 v=0
3795621 Off ch=3 n=53 v=0
3795806 Off ch=3 n=53 v=0
3796356 On ch=3 n=16 v=100
3796754 On ch=3 n=17 v=100
3796754 Off ch=3 n=16 v=0
3796922 Off ch=3 n=17 v=0
3796925 On ch=3 n=12 v=100
3797239 On ch=3 n=23 v=100
3797247 Off ch=3 n=12 v=0
3797332 Off ch=3 n=23 v=0
3797513 On ch=3 n=22 v=100
3797863 Off ch=3 n=22 v=0
3798826 On ch=3 n=16 v=100
3798951 Off ch=3 n=16 v=0
3799713 On ch=3 n=36 v=100
3799727 On ch=3 n=12 v=100
3799739 On ch=3 n=13 v=100
3799778 On ch=3 n=18 v=100
3799828 Off ch=3 n=12 v=0
3799836 Off ch=3 n=36 v=0
3800001 On ch=3 n=37 v=100
3800221 Off ch=3 n=13 v=0
3800329 Off ch=3 n=18 v=0
3800418 On ch=3 n=36 v=100
3800457 On ch=3 n=51 v=100
3800461 On ch=3 n=56 v=100
3800466 On ch=3 n=7 v=100
3800655 Off ch=3 n=37 v=0
3800662 Off ch=3 n=7 v=0
3800690 Off ch=3 n=36 v=0
3800796 Off ch=3 n=51 v=0
3800833 On ch=3 n=29 v=100
3800910 On ch=3 n=9 v=100
3800928 Off ch=3 n=56 v=0
3801277 Off ch=3 n=9 v=0
3801280 On ch=3 n=25 v=100
3801281 Off ch=3 n=29 v=0
3801417 Off ch=3 n=25 v=0
3802459 On ch=3 n=13 v=100
3802512 On ch=3 n=18 v=100
3802730 Off ch=3 n=13 v=0
3802841 Off ch=3 n=18 v=0
3803114 On ch=3 n=29 v=100
3803157 On ch=3 n=32 v=100
3803178 Off ch=3 n=29 v=0
3803205 On ch=3 n=32 v=100
3803209 On ch=3 n=23 v=100
3803353 Off ch=3 n=32 v=0
3803356 On ch=3 n=32 v=100
3803360 Off ch=3 n=23 v=0
3803370 On ch=3 n=31 v=100
3803375 Off ch=3 n=32 v=0
3803456 On ch=3 n=17 v=100
3803459 On ch=3 n=32 v=100
3803459 On ch=3 n=32 v=100
3803470 On ch=3 n=26 v=100
3803477 Off ch=3 n=32 v=0
3803479 Off ch=3 n=31 v=0
3803491 On ch=3 n=13 v=100
3803545 On ch=3 n=11 v=100
3803545 Off ch=3 n=17 v=0
3803545 Off ch=3 n=13 v=0
3803545 Off ch=3 n=26 v=0
3803562 Off ch=3 n=32 v=0
3803562 Off ch=3 n=32 v=0
3803724 Off ch=3 n=11 v=0
3803725 On ch=3 n=23 v=100
3803725 On ch=3 n=34 v=100
3803888 Off ch=3 n=23 v=0
3803911 Off ch=3 n=34 v=0
3805067 On ch=3 n=8 v=100
3805278 On ch=3 n=41 v=100
3805291 Off ch=3 n=8 v=0
3805347 On ch=3 n=40 v=100
3805362 On ch=3 n=12 v=100
3805395 On ch=3 n=22 v=100
3805497 Off ch=3 n=41 v=0
3805497 Off ch=3 n=12 v=0
3805583 Off ch=3 n=40 v=0
3805583 Off ch=3 n=22 v=0
3805610 On ch=3 n=22 v=100
3805636 On ch=3 n=17 v=100
3805675 Off ch=3 n=22 v=0
3805844 On ch=3 n=3 v=100
3805867 Off ch=3 n=17 v=0
3807014 Off ch=3 n=3 v=0
3807018 On ch=3 n=22 v=100
3807300 On ch=3 n=13 v=100
3807343 Off ch=3 n=22 v=0
3807430 On ch=3 n=5 v=100
3807430 Off ch=3 n=13 v=0
3807593 On ch=3 n=16 v=100
3807679 Off ch=3 n=5 v=0
3807697 On ch=3 n=7 v=100
3807709 Off ch=3 n=16 v=0
3807772 Off ch=3 n=7 v=0
3807777 On ch=3 n=16 v=100
3807897 Off ch=3 n=16 v=0
3808926 On ch=3 n=9 v=100
3809204 On ch=3 n=10 v=100
3809207 Off ch=3 n=9 v=0
3809694 Off ch=3 n=10 v=0
3809702 On ch=3 n=10 v=100
3809962 Off ch=3 n=10 v=0
3809968 On ch=3 n=12 v=100
3810296 Off ch=3 n=12 v=0
3810913 On ch=3 n=12 v=100
3811023 Off ch=3 n=12 v=0
3813115 On ch=3 n=18 v=100
3813173 On ch=3 n=24 v=100
3813263 On ch=3 n=15 v=100
3813263 Off ch=3 n=18 v=0
3813305 On ch=3 n=18 v=100
3813651 Off ch=3 n=15 v=0
3813659 Off ch=3 n=24 v=0
3813814 Off ch=3 n=18 v=0
3813937 On ch=3 n=24 v=100
3814083 Off ch=3 n=24 v=0
3815655 On ch=3 n=33 v=100
3815783 Off ch=3 n=33 v=0
3816126 On ch=3 n=26 v=100
3816424 Off ch=3 n=26 v=0
3818373 On ch=3 n=6 v=100
3818521 On ch=3 n=12 v=100
3819003 Off ch=3 n=6 v=0
3819006 Off ch=3 n=12 v=0
3819039 On ch=3 n=12 v=100
3819591 Off ch=3 n=12 v=0
3820170 On ch=3 n=44 v=100
3820312 On ch=3 n=41 v=100
3820345 On ch=3 n=40 v=100
3820494 Off ch=3 n=44 v=0
3820544 Off ch=3 n=40 v=0
3820545 Off ch=3 n=41 v=0
3820654 On ch=3 n=9 v=100
3820725 On ch=3 n=11 v=100
3821188 Off ch=3 n=9 v=0
3821243 Off ch=3 n=11 v=0
3821824 On ch=3 n=30 v=100
3821857 On ch=3 n=26 v=100
3821896 On ch=3 n=37 v=100
3821904 On ch=3 n=19 v=100
3822092 Off ch=3 n=30 v=0
3822134 Off ch=3 n=26 v=0
3822151 Off ch=3 n=19 v=0
3822173 Off ch=3 n=37 v=0
3823292 On ch=3 n=30 v=100
3823402 Off ch=3 n=30 v=0
3823764 On ch=3 n=27 v=100
3823850 On ch=3 n=2 v=100
3824255 Off ch=3 n=2 v=0
3824461 Off ch=3 n=27 v=0
3824809 On ch=3 n=12 v=100
3825657 Off ch=3 n=12 v=0
3825675 On ch=3 n=9 v=100
3825739 Off ch=3 n=9 v=0
3826976 On ch=3 n=46 v=100
3827055 On ch=3 n=41 v=100
3827057 On ch=3 n=19 v=100
3827065 On ch=3 n=10 v=100
3827256 Off ch=3 n=10 v=0
3827272 Off ch=3 n=19 v=0
3827274 Off ch=3 n=46 v=0
3827297 Off ch=3 n=41 v=0
3827759 On ch=3 n=5 v=100
3828075 Off ch=3 n=5 v=0
3828088 On ch=3 n=16 v=100
3828238 Off ch=3 n=16 v=0
3832568 On ch=3 n=38 v=100
3832658 On ch=3 n=32 v=100
3832680 On ch=3 n=21 v=100
3832849 Off ch=3 n=32 v=0
3832853 Off ch=3 n=38 v=0
3832857 Off ch=3 n=21 v=0
3833326 On ch=3 n=20 v=100
3833619 Off ch=3 n=20 v=0
3834123 On ch=3 n=27 v=100
3834416 On ch=3 n=31 v=100
3834564 On ch=3 n=17 v=100
3834572 Off ch=3 n=27 v=0
3834683 On ch=3 n=23 v=100
3834960 Off ch=3 n=17 v=0
3834961 Off ch=3 n=31 v=0
3835022 Off ch=3 n=23 v=0
3835469 On ch=3 n=20 v=100
3835507 Off ch=3 n=20 v=0
3836844 On ch=3 n=21 v=100
3836844 On ch=3 n=21 v=100
3836868 On ch=3 n=9 v=100
3837238 Off ch=3 n=9 v=0
3837325 Off ch=3 n=21 v=0
3837325 Off ch=3 n=21 v=0
3840985 On ch=3 n=21 v=100
3841054 Off ch=3 n=21 v=0
3841773 On ch=3 n=27 v=100
3841793 On ch=3 n=13 v=100
3841802 On ch=3 n=55 v=100
3841872 Off ch=3 n=27 v=0
3841872 Off ch=3 n=13 v=0
3842067 Off ch=3 n=55 v=0
3842274 On ch=3 n=3 v=100
3842362 Off ch=3 n=3 v=0
3842378 On ch=3 n=8 v=100
3842378 On ch=3 n=8 v=100
3842670 On ch=3 n=11 v=100
3842748 Off ch=3 n=8 v=0
3842748 Off ch=3 n=8 v=0
3842756 On ch=3 n=7 v=100
3842756 On ch=3 n=7 v=100
3843329 Off ch=3 n=11 v=0
3843584 Off ch=3 n=7 v=0
3843584 Off ch=3 n=7 v=0
3844943 On ch=3 n=14 v=100
3844978 Off ch=3 n=14 v=0
3845067 On ch=3 n=28 v=100
3845122 On ch=3 n=20 v=100
3845176 On ch=3 n=17 v=100
3845427 Off ch=3 n=28 v=0
3845492 Off ch=3 n=20 v=0
3845492 Off ch=3 n=17 v=0
3846369 On ch=3 n=15 v=100
3846934 Off ch=3 n=15 v=0
3847732 On ch=3 n=15 v=100
3848085 Off ch=3 n=15 v=0
3848088 On ch=3 n=5 v=100
3849335 On ch=3 n=10 v=100
3849348 Off ch=3 n=5 v=0
3849471 Off ch=3 n=10 v=0
3849475 On ch=3 n=9 v=100
3850028 Off ch=3 n=9 v=0
3854075 On ch=3 n=10 v=100
3854351 Off ch=3 n=10 v=0
3854454 On ch=3 n=17 v=100
3854709 Off ch=3 n=17 v=0
3854863 On ch=3 n=28 v=100
3854908 Off ch=3 n=28 v=0
3855642 On ch=3 n=20 v=100
3855655 On ch=3 n=30 v=100
3855718 Off ch=3 n=20 v=0
3855736 Off ch=3 n=30 v=0
3856622 On ch=3 n=20 v=100
3856623 On ch=3 n=20 v=100
3857129 Off ch=3 n=20 v=0
3857215 Off ch=3 n=20 v=0
3857242 On ch=3 n=12 v=100
3857634 Off ch=3 n=12 v=0
3857769 On ch=3 n=2 v=100
3857860 Off ch=3 n=2 v=0
3857887 On ch=3 n=5 v=100
3859399 Off ch=3 n=5 v=0
3860194 On ch=3 n=37 v=100
3860380 On ch=3 n=12 v=100
3860380 On ch=3 n=18 v=100
3860545 Off ch=3 n=37 v=0
3860571 Off ch=3 n=12 v=0
3860607 Off ch=3 n=18 v=0
3860893 On ch=3 n=8 v=100
3861105 Off ch=3 n=8 v=0
3861142 On ch=3 n=38 v=100
3861488 Off ch=3 n=38 v=0
3861497 On ch=3 n=17 v=100
3861536 Off ch=3 n=17 v=0
3861538 On ch=3 n=25 v=100
3861578 Off ch=3 n=25 v=0
3862159 On ch=3 n=21 v=100
3862237 Off ch=3 n=21 v=0
3863769 On ch=3 n=40 v=100
3863916 Off ch=3 n=40 v=0
3864043 On ch=3 n=22 v=100
3864075 On ch=3 n=29 v=100
3864076 On ch=3 n=21 v=100
3864310 Off ch=3 n=22 v=0
3864310 Off ch=3 n=21 v=0
3864367 Off ch=3 n=29 v=0
3865336 On ch=3 n=8 v=100
3866269 Off ch=3 n=8 v=0
3866273 On ch=3 n=8 v=100
3866548 On ch=3 n=22 v=100
3866617 Off ch=3 n=8 v=0
3866627 On ch=3 n=7 v=100
3866796 Off ch=3 n=7 v=0
3866807 On ch=3 n=13 v=100
3866843 On ch=3 n=21 v=100
3867008 On ch=3 n=10 v=100
3867009 Off ch=3 n=13 v=0
3867011 Off ch=3 n=22 v=0
3867070 Off ch=3 n=21 v=0
3867656 Off ch=3 n=10 v=0
3868910 On ch=3 n=38 v=100
3869022 Off ch=3 n=38 v=0
3869387 On ch=3 n=29 v=100
3869438 Off ch=3 n=29 v=0
3869946 On ch=3 n=32 v=100
3870051 Off ch=3 n=32 v=0
3870389 On ch=3 n=23 v=100
3870573 On ch=3 n=21 v=100
3870948 Off ch=3 n=23 v=0
3870960 On ch=3 n=23 v=100
3871061 Off ch=3 n=21 v=0
3871346 Off ch=3 n=23 v=0
3872438 On ch=3 n=35 v=100
3872456 On ch=3 n=32 v=100
3872457 On ch=3 n=31 v=100
3872580 Off ch=3 n=35 v=0
3872584 Off ch=3 n=32 v=0
3872601 Off ch=3 n=31 v=0
3872862 On ch=3 n=28 v=100
3872873 On ch=3 n=22 v=100
3872924 Off ch=3 n=28 v=0
3872928 On ch=3 n=12 v=100
3873237 Off ch=3 n=22 v=0
3873259 On ch=3 n=26 v=100
3873526 On ch=3 n=22 v=100
3873652 Off ch=3 n=12 v=0
3873655 On ch=3 n=8 v=100
3873655 On ch=3 n=12 v=100
3873717 Off ch=3 n=26 v=0
3874007 On ch=3 n=16 v=100
3874008 Off ch=3 n=8 v=0
3874009 On ch=3 n=8 v=100
3874056 Off ch=3 n=12 v=0
3874062 Off ch=3 n=22 v=0
3874335 Off ch=3 n=8 v=0
3874347 On ch=3 n=24 v=100
3874388 Off ch=3 n=16 v=0
3874394 Off ch=3 n=24 v=0
3874861 On ch=3 n=21 v=100
3874961 Off ch=3 n=21 v=0
3875717 On ch=3 n=31 v=100
3875832 On ch=3 n=23 v=100
3875832 On ch=3 n=23 v=100
3875881 On ch=3 n=15 v=100
3875907 On ch=3 n=17 v=100
3875965 On ch=3 n=16 v=100
3876292 Off ch=3 n=31 v=0
3876332 Off ch=3 n=15 v=0
3876352 On ch=3 n=17 v=100
3876366 Off ch=3 n=23 v=0
3876366 Off ch=3 n=23 v=0
3876388 Off ch=3 n=17 v=0
3876420 On ch=3 n=15 v=100
3876489 Off ch=3 n=16 v=0
3876493 On ch=3 n=21 v=100
3876697 Off ch=3 n=15 v=0
3876704 Off ch=3 n=17 v=0
3876729 Off ch=3 n=21 v=0
3876756 On ch=3 n=30 v=100
3876852 Off ch=3 n=30 v=0
3878036 On ch=3 n=37 v=100
3878077 On ch=3 n=42 v=100
3878077 On ch=3 n=42 v=100
3878142 On ch=3 n=26 v=100
3878236 Off ch=3 n=37 v=0
3878274 Off ch=3 n=26 v=0
3878299 Off ch=3 n=42 v=0
3878299 Off ch=3 n=42 v=0
3878437 On ch=3 n=39 v=100
3878554 Off ch=3 n=39 v=0
3878844 On ch=3 n=30 v=100
3879090 Off ch=3 n=30 v=0
3879558 On ch=3 n=26 v=100
3879579 On ch=3 n=34 v=100
3879678 Off ch=3 n=26 v=0
3879707 On ch=3 n=23 v=100
3879881 Off ch=3 n=34 v=0
3880050 Off ch=3 n=23 v=0
3880930 On ch=3 n=28 v=100
3880939 On ch=3 n=20 v=100
3881056 On ch=3 n=13 v=100
3881105 On ch=3 n=21 v=100
3881311 Off ch=3 n=20 v=0
3881452 Off ch=3 n=28 v=0
3881463 Off ch=3 n=13 v=0
3881466 On ch=3 n=23 v=100
3881644 Off ch=3 n=21 v=0
3881732 Off ch=3 n=23 v=0
3882342 On ch=3 n=23 v=100
3882357 On ch=3 n=9 v=100
3882401 Off ch=3 n=23 v=0
3882695 On ch=3 n=35 v=100
3882695 On ch=3 n=35 v=100
3882720 On ch=3 n=30 v=100
3882720 On ch=3 n=30 v=100
3882798 On ch=3 n=17 v=100
3882864 On ch=3 n=12 v=100
3882881 On ch=3 n=14 v=100
3882893 Off ch=3 n=9 v=0
3883253 Off ch=3 n=17 v=0
3883279 On ch=3 n=18 v=100
3883288 Off ch=3 n=12 v=0
3883292 Off ch=3 n=35 v=0
3883292 Off ch=3 n=35 v=0
3883380 Off ch=3 n=30 v=0
3883380 Off ch=3 n=30 v=0
3883383 Off ch=3 n=14 v=0
3883415 Off ch=3 n=18 v=0
3884098 On ch=3 n=8 v=100
3884803 Off ch=3 n=8 v=0
3884810 On ch=3 n=3 v=100
3884911 On ch=3 n=8 v=100
3884922 Off ch=3 n=3 v=0
3885113 Off ch=3 n=8 v=0
3885245 On ch=3 n=9 v=100
3885469 Off ch=3 n=9 v=0
3885763 On ch=3 n=18 v=100
3885874 Off ch=3 n=18 v=0
3888406 On ch=3 n=40 v=100
3888584 Off ch=3 n=40 v=0
3889507 On ch=3 n=32 v=100
3889616 Off ch=3 n=32 v=0
3889682 On ch=3 n=28 v=100
3889801 Off ch=3 n=28 v=0
3889987 On ch=3 n=32 v=100
3890043 On ch=3 n=13 v=100
3890067 Off ch=3 n=32 v=0
3890241 Off ch=3 n=13 v=0
3890297 On ch=3 n=19 v=100
3890297 On ch=3 n=19 v=100
3890358 On ch=3 n=14 v=100
3890733 Off ch=3 n=14 v=0
3890782 Off ch=3 n=19 v=0
3890782 Off ch=3 n=19 v=0
3890947 On ch=3 n=19 v=100
3891168 On ch=3 n=30 v=100
3891181 On ch=3 n=22 v=100
3891190 Off ch=3 n=19 v=0
3891253 Off ch=3 n=30 v=0
3891254 Off ch=3 n=22 v=0
3893337 On ch=3 n=32 v=100
3893446 On ch=3 n=32 v=100
3893459 On ch=3 n=30 v=100
3893467 On ch=3 n=23 v=100
3893518 On ch=3 n=32 v=100
3893751 Off ch=3 n=23 v=0
3893763 Off ch=3 n=32 v=0
3893776 Off ch=3 n=32 v=0
3893815 Off ch=3 n=32 v=0
3893844 Off ch=3 n=30 v=0
3897811 On ch=3 n=6 v=100
3897998 Off ch=3 n=6 v=0
3898013 On ch=3 n=20 v=100
3898294 On ch=3 n=20 v=100
3898313 Off ch=3 n=20 v=0
3898508 Off ch=3 n=20 v=0
3900381 On ch=3 n=7 v=100
3900536 Off ch=3 n=7 v=0
3901140 On ch=3 n=13 v=100
3901205 Off ch=3 n=13 v=0
3901330 On ch=3 n=35 v=100
3901406 Off ch=3 n=35 v=0
3901423 On ch=3 n=8 v=100
3903536 Off ch=3 n=8 v=0
3906391 On ch=3 n=24 v=100
3906516 Off ch=3 n=24 v=0
3906540 On ch=3 n=22 v=100
3906625 Off ch=3 n=22 v=0
3907912 On ch=3 n=20 v=100
3907973 On ch=3 n=17 v=100
3908027 Off ch=3 n=20 v=0
3908478 On ch=3 n=25 v=100
3908652 Off ch=3 n=17 v=0
3908676 Off ch=3 n=25 v=0
3910954 On ch=3 n=39 v=100
3911205 Off ch=3 n=39 v=0
3912004 On ch=3 n=22 v=100
3912595 On ch=3 n=39 v=100
3912698 Off ch=3 n=22 v=0
3912711 Off ch=3 n=39 v=0
3914178 On ch=3 n=6 v=100
3914274 On ch=3 n=34 v=100
3914593 Off ch=3 n=6 v=0
3914682 On ch=3 n=15 v=100
3914835 On ch=3 n=17 v=100
3915086 Off ch=3 n=15 v=0
3915089 Off ch=3 n=34 v=0
3915147 Off ch=3 n=17 v=0
3915921 On ch=3 n=7 v=100
3916086 On ch=3 n=28 v=100
3916087 On ch=3 n=6 v=100
3916088 Off ch=3 n=7 v=0
3916121 On ch=3 n=29 v=100
3916126 Off ch=3 n=6 v=0
3916144 On ch=3 n=11 v=100
3916176 Off ch=3 n=28 v=0
3916199 On ch=3 n=29 v=100
3916284 On ch=3 n=8 v=100
3916291 Off ch=3 n=11 v=0
3916350 Off ch=3 n=29 v=0
3916382 Off ch=3 n=8 v=0
3916388 Off ch=3 n=29 v=0
3916389 On ch=3 n=15 v=100
3916552 On ch=3 n=8 v=100
3916602 Off ch=3 n=15 v=0
3916935 Off ch=3 n=8 v=0
3916976 On ch=3 n=12 v=100
3917108 Off ch=3 n=12 v=0
3917207 On ch=3 n=2 v=100
3918165 Off ch=3 n=2 v=0
3919609 On ch=3 n=15 v=100
3919624 On ch=3 n=5 v=100
3919715 Off ch=3 n=15 v=0
3919715 Off ch=3 n=5 v=0
3922823 On ch=3 n=11 v=100
3922837 On ch=3 n=30 v=100
3923045 Off ch=3 n=11 v=0
3923205 Off ch=3 n=30 v=0
3926279 On ch=3 n=48 v=100
3926279 On ch=3 n=48 v=100
3926298 On ch=3 n=23 v=100
3926377 On ch=3 n=13 v=100
3926563 Off ch=3 n=13 v=0
3926573 Off ch=3 n=23 v=0
3926630 Off ch=3 n=48 v=0
3926630 Off ch=3 n=48 v=0
3928872 On ch=3 n=41 v=100
3929110 Off ch=3 n=41 v=0
3929167 On ch=3 n=39 v=100
3929358 Off ch=3 n=39 v=0
3929553 On ch=3 n=7 v=100
3929774 On ch=3 n=16 v=100
3929864 Off ch=3 n=7 v=0
3929880 Off ch=3 n=16 v=0
3930895 On ch=3 n=10 v=100
3931149 Off ch=3 n=10 v=0
3931162 On ch=3 n=15 v=100
3931902 Off ch=3 n=15 v=0
3931987 On ch=3 n=40 v=100
3932015 On ch=3 n=41 v=100
3932045 On ch=3 n=34 v=100
3932236 Off ch=3 n=41 v=0
3932248 On ch=3 n=19 v=100
3932256 Off ch=3 n=34 v=0
3932264 Off ch=3 n=40 v=0
3932411 On ch=3 n=7 v=100
3932440 Off ch=3 n=19 v=0
3932557 Off ch=3 n=7 v=0
3932590 On ch=3 n=35 v=100
3933327 On ch=3 n=15 v=100
3933392 On ch=3 n=27 v=100
3933394 On ch=3 n=16 v=100
3933666 Off ch=3 n=35 v=0
3933795 Off ch=3 n=15 v=0
3933817 Off ch=3 n=16 v=0
3933904 Off ch=3 n=27 v=0
3934660 On ch=3 n=14 v=100
3934728 On ch=3 n=9 v=100
3934728 Off ch=3 n=14 v=0
3935066 Off ch=3 n=9 v=0
3935068 On ch=3 n=3 v=100
3935421 Off ch=3 n=3 v=0
3935506 On ch=3 n=3 v=100
3936368 On ch=3 n=13 v=100
3936370 Off ch=3 n=3 v=0
3936643 On ch=3 n=32 v=100
3936759 On ch=3 n=10 v=100
3936759 On ch=3 n=15 v=100
3936776 Off ch=3 n=13 v=0
3936924 Off ch=3 n=32 v=0
3937147 On ch=3 n=7 v=100
3937156 Off ch=3 n=10 v=0
3937207 Off ch=3 n=15 v=0
3937560 Off ch=3 n=7 v=0
3937804 On ch=3 n=27 v=100
3937863 On ch=3 n=13 v=100
3938120 Off ch=3 n=27 v=0
3938123 Off ch=3 n=13 v=0
3938190 On ch=3 n=10 v=100
3938366 Off ch=3 n=10 v=0
3938383 On ch=3 n=10 v=100
3938689 Off ch=3 n=10 v=0
3938693 On ch=3 n=12 v=100
3938937 On ch=3 n=11 v=100
3938942 Off ch=3 n=12 v=0
3939330 Off ch=3 n=11 v=0
3939337 On ch=3 n=30 v=100
3939429 Off ch=3 n=30 v=0
3940151 On ch=3 n=22 v=100
3940306 Off ch=3 n=22 v=0
3940384 On ch=3 n=26 v=100
3940440 Off ch=3 n=26 v=0
3940509 On ch=3 n=24 v=100
3940630 On ch=3 n=9 v=100
3940681 On ch=3 n=33 v=100
3940785 Off ch=3 n=24 v=0
3940916 Off ch=3 n=9 v=0
3940984 Off ch=3 n=33 v=0
3941169 On ch=3 n=24 v=100
3941274 Off ch=3 n=24 v=0
3941282 On ch=3 n=26 v=100
3941285 On ch=3 n=16 v=100
3941497 Off ch=3 n=16 v=0
3941556 Off ch=3 n=26 v=0
3942647 On ch=3 n=39 v=100
3942811 Off ch=3 n=39 v=0
3942831 On ch=3 n=26 v=100
3942887 On ch=3 n=9 v=100
3942887 On ch=3 n=17 v=100
3942894 Off ch=3 n=26 v=0
3943235 Off ch=3 n=9 v=0
3943476 Off ch=3 n=17 v=0
3943477 On ch=3 n=18 v=100
3943786 Off ch=3 n=18 v=0
3943961 On ch=3 n=15 v=100
3944054 On ch=3 n=18 v=100
3944058 On ch=3 n=19 v=100
3944059 On ch=3 n=13 v=100
3944079 Off ch=3 n=15 v=0
3944183 On ch=3 n=34 v=100
3944375 On ch=3 n=7 v=100
3944392 Off ch=3 n=13 v=0
3944433 Off ch=3 n=18 v=0
3944492 Off ch=3 n=19 v=0
3944545 Off ch=3 n=34 v=0
3944793 Off ch=3 n=7 v=0
3944955 On ch=3 n=36 v=100
3945185 Off ch=3 n=36 v=0
3945205 On ch=3 n=28 v=100
3945205 On ch=3 n=10 v=100
3945268 Off ch=3 n=10 v=0
3945271 On ch=3 n=12 v=100
3945280 Off ch=3 n=28 v=0
3945683 Off ch=3 n=12 v=0
3945786 On ch=3 n=6 v=100
3945994 Off ch=3 n=6 v=0
3946016 On ch=3 n=33 v=100
3946195 Off ch=3 n=33 v=0
3946306 On ch=3 n=18 v=100
3946306 On ch=3 n=30 v=100
3946481 On ch=3 n=11 v=100
3946484 Off ch=3 n=18 v=0
3946537 Off ch=3 n=30 v=0
3947147 Off ch=3 n=11 v=0
3947149 On ch=3 n=10 v=100
3947491 Off ch=3 n=10 v=0
3947503 On ch=3 n=33 v=100
3947594 Off ch=3 n=33 v=0
3950014 On ch=3 n=36 v=100
3950064 On ch=3 n=12 v=100
3950367 On ch=3 n=11 v=100
3950373 Off ch=3 n=12 v=0
3950380 Off ch=3 n=36 v=0
3951217 Off ch=3 n=11 v=0
3951234 On ch=3 n=8 v=100
3951236 On ch=3 n=39 v=100
3951306 Off ch=3 n=8 v=0
3951358 Off ch=3 n=39 v=0
3951928 On ch=3 n=3 v=100
3952944 On ch=3 n=46 v=100
3953128 Off ch=3 n=3 v=0
3953156 On ch=3 n=24 v=100
3953393 Off ch=3 n=46 v=0
3953393 Off ch=3 n=24 v=0
3954076 On ch=3 n=14 v=100
3954144 Off ch=3 n=14 v=0
3954161 On ch=3 n=6 v=100
3954292 On ch=3 n=6 v=100
3954472 Off ch=3 n=6 v=0
3954984 Off ch=3 n=6 v=0
3954987 On ch=3 n=26 v=100
3955258 Off ch=3 n=26 v=0
3956313 On ch=3 n=10 v=100
3956522 Off ch=3 n=10 v=0
3956706 On ch=3 n=28 v=100
3956867 Off ch=3 n=28 v=0
3956937 On ch=3 n=7 v=100
3957056 Off ch=3 n=7 v=0
3957058 On ch=3 n=9 v=100
3957238 On ch=3 n=11 v=100
3957244 Off ch=3 n=9 v=0
3957261 On ch=3 n=13 v=100
3957296 Off ch=3 n=11 v=0
3957891 Off ch=3 n=13 v=0
3958700 On ch=3 n=16 v=100
3958906 Off ch=3 n=16 v=0
3958914 On ch=3 n=10 v=100
3959054 Off ch=3 n=10 v=0
3959203 On ch=3 n=23 v=100
3959327 On ch=3 n=20 v=100
3959328 On ch=3 n=14 v=100
3959696 Off ch=3 n=23 v=0
3959720 Off ch=3 n=14 v=0
3959799 On ch=3 n=61 v=100
3959965 Off ch=3 n=20 v=0
3960538 Off ch=3 n=61 v=0
3960777 On ch=3 n=46 v=100
3960947 Off ch=3 n=46 v=0
3961093 On ch=3 n=44 v=100
3961139 On ch=3 n=29 v=100
3961248 On ch=3 n=50 v=100
3961387 Off ch=3 n=44 v=0
3961388 Off ch=3 n=29 v=0
3961423 Off ch=3 n=50 v=0
3963857 On ch=3 n=47 v=100
3963858 On ch=3 n=5 v=100
3964030 Off ch=3 n=5 v=0
3964046 On ch=3 n=8 v=100
3964061 Off ch=3 n=47 v=0
3964785 Off ch=3 n=8 v=0
3964941 On ch=3 n=3 v=100
3965278 Off ch=3 n=3 v=0
3966222 On ch=3 n=6 v=100
3967174 Off ch=3 n=6 v=0
3967178 On ch=3 n=7 v=100
3967337 Off ch=3 n=7 v=0
3968995 On ch=3 n=23 v=100
3968995 On ch=3 n=23 v=100
3969039 On ch=3 n=16 v=100
3969295 Off ch=3 n=16 v=0
3969343 Off ch=3 n=23 v=0
3969343 Off ch=3 n=23 v=0
3970863 On ch=3 n=17 v=100
3970992 On ch=3 n=23 v=100
3971186 Off ch=3 n=17 v=0
3971201 Off ch=3 n=23 v=0
3971277 On ch=3 n=23 v=100
3971302 Off ch=3 n=23 v=0
3973626 On ch=3 n=26 v=100
3973730 Off ch=3 n=26 v=0
3973778 On ch=3 n=26 v=100
3974213 Off ch=3 n=26 v=0
3976349 On ch=3 n=7 v=100
3976435 Off ch=3 n=7 v=0
3978179 On ch=3 n=24 v=100
3978223 On ch=3 n=23 v=100
3978461 Off ch=3 n=23 v=0
3978463 Off ch=3 n=24 v=0
3978644 On ch=3 n=9 v=100
3978997 Off ch=3 n=9 v=0
3979004 On ch=3 n=6 v=100
3979318 Off ch=3 n=6 v=0
3979320 On ch=3 n=9 v=100
3979774 On ch=3 n=4 v=100
3979979 Off ch=3 n=9 v=0
3982357 Off ch=3 n=4 v=0
3982928 On ch=3 n=8 v=100
3983382 On ch=3 n=8 v=100
3983382 Off ch=3 n=8 v=0
3983656 Off ch=3 n=8 v=0
3983716 On ch=3 n=8 v=100
3984150 Off ch=3 n=8 v=0
3984538 On ch=3 n=3 v=100
3986137 Off ch=3 n=3 v=0
3988279 On ch=3 n=4 v=100
3988334 Off ch=3 n=4 v=0
3988335 On ch=3 n=7 v=100
3988396 On ch=3 n=8 v=100
3988439 Off ch=3 n=7 v=0
3988448 Off ch=3 n=8 v=0
3988483 On ch=3 n=21 v=100
3988555 On ch=3 n=13 v=100
3988741 On ch=3 n=35 v=100
3988898 Off ch=3 n=21 v=0
3988969 Off ch=3 n=13 v=0
3989052 Off ch=3 n=35 v=0
3990060 On ch=3 n=14 v=100
3990070 On ch=3 n=11 v=100
3990116 On ch=3 n=20 v=100
3990455 Off ch=3 n=11 v=0
3990528 Off ch=3 n=14 v=0
3990620 Off ch=3 n=20 v=0
3990705 On ch=3 n=18 v=100
3991023 Off ch=3 n=18 v=0
3991122 On ch=3 n=4 v=100
3991555 Off ch=3 n=4 v=0
3992042 On ch=3 n=11 v=100
3992042 On ch=3 n=74 v=100
3992154 Off ch=3 n=11 v=0
3992347 Off ch=3 n=74 v=0
3992524 On ch=3 n=5 v=100
3993117 Off ch=3 n=5 v=0
3996056 On ch=3 n=5 v=100
3997506 Off ch=3 n=5 v=0
4002716 On ch=3 n=5 v=100
4003023 On ch=3 n=4 v=100
4003027 Off ch=3 n=5 v=0
4003996 On ch=3 n=60 v=100
4004081 On ch=3 n=39 v=100
4004172 On ch=3 n=15 v=100
4004185 Off ch=3 n=4 v=0
4004188 On ch=3 n=27 v=100
4004196 On ch=3 n=10 v=100
4004361 Off ch=3 n=60 v=0
4004387 Off ch=3 n=10 v=0
4004395 Off ch=3 n=39 v=0
4004398 Off ch=3 n=15 v=0
4004444 Off ch=3 n=27 v=0
4005582 On ch=3 n=20 v=100
4005883 Off ch=3 n=20 v=0
4007112 On ch=3 n=22 v=100
4007298 On ch=3 n=22 v=100
4007330 On ch=3 n=16 v=100
4007332 Off ch=3 n=22 v=0
4007530 Off ch=3 n=22 v=0
4007789 Off ch=3 n=16 v=0
4007796 On ch=3 n=24 v=100
4007965 On ch=3 n=30 v=100
4007974 Off ch=3 n=24 v=0
4008221 Off ch=3 n=30 v=0
4008348 On ch=3 n=11 v=100
4008675 Off ch=3 n=11 v=0
4008815 On ch=3 n=7 v=100
4009372 Off ch=3 n=7 v=0
4009375 On ch=3 n=6 v=100
4010238 Off ch=3 n=6 v=0
4010793 On ch=3 n=7 v=100
4011309 Off ch=3 n=7 v=0
4011389 On ch=3 n=33 v=100
4011407 Off ch=3 n=33 v=0
4012105 On ch=3 n=33 v=100
4012119 Off ch=3 n=33 v=0
4015819 On ch=3 n=41 v=100
4016365 Off ch=3 n=41 v=0
4016448 On ch=3 n=26 v=100
4017352 On ch=3 n=49 v=100
4017352 Off ch=3 n=26 v=0
4017474 Off ch=3 n=49 v=0
4017475 On ch=3 n=32 v=100
4018082 Off ch=3 n=32 v=0
4018136 On ch=3 n=32 v=100
4019019 On ch=3 n=38 v=100
4019027 Off ch=3 n=32 v=0
4019507 On ch=3 n=16 v=100
4019664 Off ch=3 n=38 v=0
4019686 On ch=3 n=4 v=100
4019686 Off ch=3 n=16 v=0
4020006 Off ch=3 n=4 v=0
4020035 On ch=3 n=13 v=100
4020596 Off ch=3 n=13 v=0
4020652 On ch=3 n=6 v=100
4021886 Off ch=3 n=6 v=0
4021900 On ch=3 n=24 v=100
4022082 On ch=3 n=20 v=100
4022191 Off ch=3 n=24 v=0
4022214 Off ch=3 n=20 v=0
4034984 On ch=3 n=22 v=100
4035080 Off ch=3 n=22 v=0
4035191 On ch=3 n=5 v=100
4035478 Off ch=3 n=5 v=0
4035756 On ch=3 n=27 v=100
4035922 Off ch=3 n=27 v=0
4036320 On ch=3 n=38 v=100
4036506 On ch=3 n=32 v=100
4036580 Off ch=3 n=38 v=0
4036593 On ch=3 n=26 v=100
4036775 Off ch=3 n=32 v=0
4036779 Off ch=3 n=26 v=0
4036976 On ch=3 n=35 v=100
4036977 On ch=3 n=18 v=100
4037269 Off ch=3 n=18 v=0
4037344 Off ch=3 n=35 v=0
4037792 On ch=3 n=3 v=100
4037981 Off ch=3 n=3 v=0
4040501 On ch=3 n=48 v=100
4040674 On ch=3 n=9 v=100
4040812 Off ch=3 n=48 v=0
4040841 Off ch=3 n=9 v=0
4040877 On ch=3 n=9 v=100
4041123 Off ch=3 n=9 v=0
4042072 On ch=3 n=23 v=100
4042512 Off ch=3 n=23 v=0
4043395 On ch=3 n=6 v=100
4043619 Off ch=3 n=6 v=0
4043780 On ch=3 n=30 v=100
4043780 On ch=3 n=30 v=100
4044125 Off ch=3 n=30 v=0
4044243 Off ch=3 n=30 v=0
4046625 On ch=3 n=35 v=100
4046664 On ch=3 n=21 v=100
4046917 Off ch=3 n=35 v=0
4046920 Off ch=3 n=21 v=0
4047101 On ch=3 n=13 v=100
4047399 Off ch=3 n=13 v=0
4047406 On ch=3 n=7 v=100
4047586 On ch=3 n=15 v=100
4047587 On ch=3 n=6 v=100
4047594 On ch=3 n=12 v=100
4047594 Off ch=3 n=7 v=0
4047742 Off ch=3 n=6 v=0
4047760 Off ch=3 n=12 v=0
4047790 Off ch=3 n=15 v=0
4048393 On ch=3 n=34 v=100
4048437 On ch=3 n=34 v=100
4048525 On ch=3 n=22 v=100
4048565 On ch=3 n=17 v=100
4048620 Off ch=3 n=34 v=0
4048733 Off ch=3 n=34 v=0
4048754 Off ch=3 n=17 v=0
4048763 Off ch=3 n=22 v=0
4050228 On ch=3 n=12 v=100
4051433 Off ch=3 n=12 v=0
4051445 On ch=3 n=9 v=100
4051839 Off ch=3 n=9 v=0
4051918 On ch=3 n=10 v=100
4052193 Off ch=3 n=10 v=0
4052196 On ch=3 n=5 v=100
4052238 Off ch=3 n=5 v=0
4052658 On ch=3 n=12 v=100
4052895 Off ch=3 n=12 v=0
4052910 On ch=3 n=7 v=100
4053236 Off ch=3 n=7 v=0
4053237 On ch=3 n=16 v=100
4053476 Off ch=3 n=16 v=0
4055824 On ch=3 n=60 v=100
4055824 On ch=3 n=60 v=100
4055865 On ch=3 n=26 v=100
4055865 On ch=3 n=26 v=100
4055872 On ch=3 n=6 v=100
4056072 Off ch=3 n=6 v=0
4056123 Off ch=3 n=26 v=0
4056123 Off ch=3 n=26 v=0
4056172 On ch=3 n=6 v=100
4056480 Off ch=3 n=60 v=0
4056480 Off ch=3 n=60 v=0
4057210 On ch=3 n=57 v=100
4057385 Off ch=3 n=6 v=0
4057435 On ch=3 n=19 v=100
4057497 On ch=3 n=17 v=100
4057507 On ch=3 n=23 v=100
4057510 Off ch=3 n=19 v=0
4057511 Off ch=3 n=57 v=0
4057559 Off ch=3 n=17 v=0
4057646 Off ch=3 n=23 v=0
4059003 On ch=3 n=12 v=100
4059250 On ch=3 n=17 v=100
4059252 Off ch=3 n=12 v=0
4059576 Off ch=3 n=17 v=0
4060685 On ch=3 n=31 v=100
4060688 On ch=3 n=35 v=100
4060799 On ch=3 n=37 v=100
4060863 Off ch=3 n=31 v=0
4060931 Off ch=3 n=35 v=0
4060948 Off ch=3 n=37 v=0
4062100 On ch=3 n=62 v=100
4062264 Off ch=3 n=62 v=0
4062616 On ch=3 n=13 v=100
4062738 Off ch=3 n=13 v=0
4062754 On ch=3 n=20 v=100
4062882 On ch=3 n=27 v=100
4062921 On ch=3 n=17 v=100
4062936 Off ch=3 n=20 v=0
4063022 Off ch=3 n=27 v=0
4063318 Off ch=3 n=17 v=0
4063325 On ch=3 n=7 v=100
4063485 On ch=3 n=10 v=100
4063485 Off ch=3 n=7 v=0
4063817 Off ch=3 n=10 v=0
4063822 On ch=3 n=6 v=100
4064427 On ch=3 n=16 v=100
4064455 On ch=3 n=15 v=100
4064455 Off ch=3 n=6 v=0
4064641 Off ch=3 n=16 v=0
4064651 Off ch=3 n=15 v=0
4064686 On ch=3 n=7 v=100
4064794 Off ch=3 n=7 v=0
4064849 On ch=3 n=15 v=100
4064901 Off ch=3 n=15 v=0
4065022 On ch=3 n=8 v=100
4065782 Off ch=3 n=8 v=0
4065955 On ch=3 n=4 v=100
4066099 Off ch=3 n=4 v=0
4066558 On ch=3 n=8 v=100
4066840 Off ch=3 n=8 v=0
4066851 On ch=3 n=8 v=100
4067581 Off ch=3 n=8 v=0
4067631 On ch=3 n=16 v=100
4068572 Off ch=3 n=16 v=0
4068587 On ch=3 n=20 v=100
4069334 Off ch=3 n=20 v=0
4069798 On ch=3 n=43 v=100
4069869 On ch=3 n=40 v=100
4069871 On ch=3 n=33 v=100
4070165 Off ch=3 n=33 v=0
4070172 Off ch=3 n=43 v=0
4070232 Off ch=3 n=40 v=0
4070534 On ch=3 n=32 v=100
4070634 Off ch=3 n=32 v=0
4070663 On ch=3 n=31 v=100
4070872 Off ch=3 n=31 v=0
4070885 On ch=3 n=14 v=100
4071022 Off ch=3 n=14 v=0
4071033 On ch=3 n=42 v=100
4071190 Off ch=3 n=42 v=0
4071259 On ch=3 n=16 v=100
4071398 On ch=3 n=8 v=100
4071399 Off ch=3 n=16 v=0
4071476 Off ch=3 n=8 v=0
4071480 On ch=3 n=9 v=100
4072527 Off ch=3 n=9 v=0
4076231 On ch=3 n=37 v=100
4076258 On ch=3 n=27 v=100
4076309 Off ch=3 n=37 v=0
4076314 Off ch=3 n=27 v=0
4076316 On ch=3 n=11 v=100
4076486 Off ch=3 n=11 v=0
4077573 On ch=3 n=20 v=100
4077583 On ch=3 n=35 v=100
4077823 Off ch=3 n=20 v=0
4077855 Off ch=3 n=35 v=0
4078195 On ch=3 n=12 v=100
4078358 Off ch=3 n=12 v=0
4079322 On ch=3 n=35 v=100
4079350 On ch=3 n=8 v=100
4079466 Off ch=3 n=35 v=0
4079494 On ch=3 n=17 v=100
4079916 Off ch=3 n=8 v=0
4079994 On ch=3 n=34 v=100
4080016 Off ch=3 n=17 v=0
4080032 On ch=3 n=19 v=100
4080343 Off ch=3 n=34 v=0
4080351 Off ch=3 n=19 v=0
4080717 On ch=3 n=44 v=100
4080759 On ch=3 n=30 v=100
4080931 Off ch=3 n=44 v=0
4080932 Off ch=3 n=30 v=0
4080936 On ch=3 n=8 v=100
4081473 On ch=3 n=35 v=100
4081572 Off ch=3 n=8 v=0
4081630 Off ch=3 n=35 v=0
4082153 On ch=3 n=32 v=100
4082153 On ch=3 n=32 v=100
4082164 On ch=3 n=13 v=100
4082423 Off ch=3 n=13 v=0
4082573 Off ch=3 n=32 v=0
4082573 Off ch=3 n=32 v=0
4082851 On ch=3 n=16 v=100
4082986 On ch=3 n=23 v=100
4082988 Off ch=3 n=16 v=0
4083365 On ch=3 n=6 v=100
4083384 Off ch=3 n=23 v=0
4083539 Off ch=3 n=6 v=0
4083544 On ch=3 n=10 v=100
4083875 Off ch=3 n=10 v=0
4086764 On ch=3 n=1 v=100
4086827 Off ch=3 n=1 v=0
4087242 On ch=3 n=11 v=100
4087507 Off ch=3 n=11 v=0
4087987 On ch=3 n=12 v=100
4088232 Off ch=3 n=12 v=0
4089674 On ch=3 n=26 v=100
4089791 Off ch=3 n=26 v=0
4090098 On ch=3 n=3 v=100
4091121 On ch=3 n=3 v=100
4091123 Off ch=3 n=3 v=0
4093587 On ch=3 n=4 v=100
4093588 Off ch=3 n=3 v=0
4093756 On ch=3 n=38 v=100
4093815 Off ch=3 n=4 v=0
4093816 On ch=3 n=12 v=100
4093825 Off ch=3 n=38 v=0
4093932 Off ch=3 n=12 v=0
4093934 On ch=3 n=13 v=100
4094246 On ch=3 n=17 v=100
4094246 Off ch=3 n=13 v=0
4094356 Off ch=3 n=17 v=0
4094398 On ch=3 n=18 v=100
4094581 Off ch=3 n=18 v=0
4094594 On ch=3 n=11 v=100
4095049 On ch=3 n=10 v=100
4095272 Off ch=3 n=11 v=0
4095312 Off ch=3 n=10 v=0
4095314 On ch=3 n=11 v=100
4095316 On ch=3 n=14 v=100
4095352 Off ch=3 n=11 v=0
4095359 On ch=3 n=6 v=100
4095360 Off ch=3 n=14 v=0
4095481 On ch=3 n=37 v=100
4095516 Off ch=3 n=6 v=0
4095565 Off ch=3 n=37 v=0
4095613 On ch=3 n=16 v=100
4095789 On ch=3 n=22 v=100
4095844 On ch=3 n=14 v=100
4095845 On ch=3 n=30 v=100
4095845 On ch=3 n=30 v=100
4095850 Off ch=3 n=16 v=0
4095867 On ch=3 n=18 v=100
4096007 Off ch=3 n=22 v=0
4096010 Off ch=3 n=14 v=0
4096023 On ch=3 n=25 v=100
4096030 On ch=3 n=8 v=100
4096035 Off ch=3 n=18 v=0
4096281 Off ch=3 n=8 v=0
4096286 Off ch=3 n=30 v=0
4096286 Off ch=3 n=30 v=0
4096362 Off ch=3 n=25 v=0
4097125 On ch=3 n=14 v=100
4097258 Off ch=3 n=14 v=0
4098397 On ch=3 n=31 v=100
4098590 On ch=3 n=16 v=100
4098596 Off ch=3 n=31 v=0
4098602 On ch=3 n=24 v=100
4098604 On ch=3 n=17 v=100
4098727 Off ch=3 n=17 v=0
4098736 Off ch=3 n=16 v=0
4098753 Off ch=3 n=24 v=0
4100033 On ch=3 n=12 v=100
4100253 Off ch=3 n=12 v=0
4100348 On ch=3 n=12 v=100
4100789 Off ch=3 n=12 v=0
4101853 On ch=3 n=11 v=100
4101853 On ch=3 n=28 v=100
4101908 Off ch=3 n=11 v=0
4102092 Off ch=3 n=28 v=0
4102163 On ch=3 n=34 v=100
4102438 Off ch=3 n=34 v=0
4102449 On ch=3 n=26 v=100
4102569 Off ch=3 n=26 v=0
4102580 On ch=3 n=23 v=100
4102754 Off ch=3 n=23 v=0
4102755 On ch=3 n=12 v=100
4103020 Off ch=3 n=12 v=0
4103143 On ch=3 n=55 v=100
4103244 Off ch=3 n=55 v=0
4104109 On ch=3 n=30 v=100
4104124 On ch=3 n=22 v=100
4104210 Off ch=3 n=30 v=0
4104338 On ch=3 n=7 v=100
4104344 Off ch=3 n=22 v=0
4104914 Off ch=3 n=7 v=0
4104923 On ch=3 n=9 v=100
4105002 On ch=3 n=17 v=100
4105033 Off ch=3 n=9 v=0
4105331 Off ch=3 n=17 v=0
4105464 On ch=3 n=25 v=100
4105986 Off ch=3 n=25 v=0
4106210 On ch=3 n=24 v=100
4106654 On ch=3 n=26 v=100
4106681 Off ch=3 n=24 v=0
4106691 On ch=3 n=19 v=100
4106693 Off ch=3 n=26 v=0
4106764 Off ch=3 n=19 v=0
4106809 On ch=3 n=16 v=100
4107045 Off ch=3 n=16 v=0
4107172 On ch=3 n=16 v=100
4107297 Off ch=3 n=16 v=0
4107837 On ch=3 n=10 v=100
4108099 Off ch=3 n=10 v=0
4108226 On ch=3 n=10 v=100
4108744 Off ch=3 n=10 v=0
4110057 On ch=3 n=30 v=100
4110119 Off ch=3 n=30 v=0
4110252 On ch=3 n=22 v=100
4110968 Off ch=3 n=22 v=0
4112258 On ch=3 n=39 v=100
4112594 Off ch=3 n=39 v=0
4112850 On ch=3 n=44 v=100
4113034 Off ch=3 n=44 v=0
4113545 On ch=3 n=20 v=100
4113714 Off ch=3 n=20 v=0
4113909 On ch=3 n=5 v=100
4114111 Off ch=3 n=5 v=0
4114651 On ch=3 n=19 v=100
4114728 Off ch=3 n=19 v=0
4114744 On ch=3 n=19 v=100
4114748 On ch=3 n=30 v=100
4114766 On ch=3 n=25 v=100
4114829 Off ch=3 n=19 v=0
4114877 Off ch=3 n=30 v=0
4114948 Off ch=3 n=25 v=0
4115010 On ch=3 n=21 v=100
4115201 Off ch=3 n=21 v=0
4117055 On ch=3 n=26 v=100
4117179 On ch=3 n=6 v=100
4117204 Off ch=3 n=26 v=0
4117222 On ch=3 n=26 v=100
4117226 Off ch=3 n=6 v=0
4117318 Off ch=3 n=26 v=0
4117397 On ch=3 n=8 v=100
4117851 Off ch=3 n=8 v=0
4117852 On ch=3 n=8 v=100
4118135 Off ch=3 n=8 v=0
4118232 On ch=3 n=28 v=100
4118404 Off ch=3 n=28 v=0
4119182 On ch=3 n=15 v=100
4119254 Off ch=3 n=15 v=0
4119256 On ch=3 n=9 v=100
4119747 On ch=3 n=20 v=100
4119804 On ch=3 n=21 v=100
4119812 Off ch=3 n=9 v=0
4119826 Off ch=3 n=20 v=0
4119865 Off ch=3 n=21 v=0
4119910 On ch=3 n=9 v=100
4120148 On ch=3 n=16 v=100
4120155 Off ch=3 n=9 v=0
4120229 Off ch=3 n=16 v=0
4120235 On ch=3 n=10 v=100
4120971 Off ch=3 n=10 v=0
4121499 On ch=3 n=25 v=100
4121557 Off ch=3 n=25 v=0
4121979 On ch=3 n=44 v=100
4121980 On ch=3 n=31 v=100
4121999 On ch=3 n=39 v=100
4122021 On ch=3 n=32 v=100
4122047 Off ch=3 n=31 v=0
4122099 Off ch=3 n=44 v=0
4122100 Off ch=3 n=39 v=0
4122170 On ch=3 n=16 v=100
4122358 On ch=3 n=19 v=100
4122359 Off ch=3 n=32 v=0
4122359 Off ch=3 n=16 v=0
4122361 On ch=3 n=33 v=100
4122445 Off ch=3 n=19 v=0
4122469 On ch=3 n=4 v=100
4122503 Off ch=3 n=33 v=0
4122514 Off ch=3 n=4 v=0
4122517 On ch=3 n=13 v=100
4122567 Off ch=3 n=13 v=0
4122570 On ch=3 n=29 v=100
4122570 On ch=3 n=26 v=100
4122724 Off ch=3 n=26 v=0
4122729 On ch=3 n=22 v=100
4122730 On ch=3 n=7 v=100
4122764 On ch=3 n=39 v=100
4122840 Off ch=3 n=29 v=0
4122840 Off ch=3 n=7 v=0
4122860 On ch=3 n=15 v=100
4122861 Off ch=3 n=22 v=0
4122917 On ch=3 n=17 v=100
4122975 Off ch=3 n=39 v=0
4123068 Off ch=3 n=15 v=0
4123512 On ch=3 n=12 v=100
4123512 Off ch=3 n=17 v=0
4123570 Off ch=3 n=12 v=0
4123581 On ch=3 n=12 v=100
4124077 On ch=3 n=26 v=100
4124089 On ch=3 n=36 v=100
4124097 Off ch=3 n=12 v=0
4124351 Off ch=3 n=26 v=0
4124401 Off ch=3 n=36 v=0
4125285 On ch=3 n=46 v=100
4125327 On ch=3 n=45 v=100
4125346 Off ch=3 n=46 v=0
4125346 Off ch=3 n=45 v=0
4125473 On ch=3 n=46 v=100
4125473 On ch=3 n=45 v=100
4125565 Off ch=3 n=46 v=0
4125638 Off ch=3 n=45 v=0
4125940 On ch=3 n=56 v=100
4125940 On ch=3 n=56 v=100
4126138 On ch=3 n=31 v=100
4126183 On ch=3 n=19 v=100
4126286 Off ch=3 n=56 v=0
4126286 Off ch=3 n=56 v=0
4126290 Off ch=3 n=31 v=0
4126291 On ch=3 n=7 v=100
4126291 Off ch=3 n=19 v=0
4126581 On ch=3 n=40 v=100
4126616 Off ch=3 n=7 v=0
4126619 On ch=3 n=10 v=100
4126623 On ch=3 n=32 v=100
4126719 Off ch=3 n=40 v=0
4126719 Off ch=3 n=10 v=0
4126744 Off ch=3 n=32 v=0
4127061 On ch=3 n=11 v=100
4127308 Off ch=3 n=11 v=0
4127320 On ch=3 n=12 v=100
4127654 Off ch=3 n=12 v=0
4128290 On ch=3 n=13 v=100
4128605 On ch=3 n=45 v=100
4128605 On ch=3 n=45 v=100
4128644 On ch=3 n=33 v=100
4128744 Off ch=3 n=13 v=0
4128751 On ch=3 n=17 v=100
4128756 Off ch=3 n=33 v=0
4128791 Off ch=3 n=45 v=0
4128791 Off ch=3 n=45 v=0
4129036 Off ch=3 n=17 v=0
4129063 On ch=3 n=34 v=100
4129103 Off ch=3 n=34 v=0
4129189 On ch=3 n=34 v=100
4129235 On ch=3 n=28 v=100
4129307 Off ch=3 n=34 v=0
4129332 Off ch=3 n=28 v=0
4129787 On ch=3 n=31 v=100
4129793 On ch=3 n=54 v=100
4130005 Off ch=3 n=31 v=0
4130009 On ch=3 n=50 v=100
4130032 Off ch=3 n=54 v=0
4130181 Off ch=3 n=50 v=0
4130839 On ch=3 n=27 v=100
4130905 Off ch=3 n=27 v=0
4131420 On ch=3 n=7 v=100
4131996 On ch=3 n=8 v=100
4132001 Off ch=3 n=7 v=0
4133050 On ch=3 n=37 v=100
4133110 On ch=3 n=7 v=100
4133111 Off ch=3 n=8 v=0
4133169 Off ch=3 n=37 v=0
4133851 Off ch=3 n=7 v=0
4133991 On ch=3 n=6 v=100
4134089 On ch=3 n=7 v=100
4134089 Off ch=3 n=6 v=0
4134222 On ch=3 n=52 v=100
4134314 Off ch=3 n=7 v=0
4134314 Off ch=3 n=52 v=0
4134388 On ch=3 n=19 v=100
4134401 On ch=3 n=12 v=100
4134483 Off ch=3 n=19 v=0
4134501 Off ch=3 n=12 v=0
4134555 On ch=3 n=27 v=100
4134580 Off ch=3 n=27 v=0
4135160 On ch=3 n=32 v=100
4135181 On ch=3 n=25 v=100
4135292 Off ch=3 n=32 v=0
4135294 Off ch=3 n=25 v=0
4135304 On ch=3 n=8 v=100
4135479 On ch=3 n=32 v=100
4135584 Off ch=3 n=8 v=0
4135803 Off ch=3 n=32 v=0
4137146 On ch=3 n=7 v=100
4137323 Off ch=3 n=7 v=0
4137338 On ch=3 n=30 v=100
4137408 Off ch=3 n=30 v=0
4137764 On ch=3 n=51 v=100
4137848 On ch=3 n=18 v=100
4137902 On ch=3 n=17 v=100
4137937 On ch=3 n=25 v=100
4137996 Off ch=3 n=51 v=0
4137999 On ch=3 n=36 v=100
4138179 Off ch=3 n=18 v=0
4138190 Off ch=3 n=17 v=0
4138253 Off ch=3 n=25 v=0
4138413 Off ch=3 n=36 v=0
4139207 On ch=3 n=22 v=100
4139246 Off ch=3 n=22 v=0
4139248 On ch=3 n=9 v=100
4139315 Off ch=3 n=9 v=0
4139324 On ch=3 n=10 v=100
4139558 On ch=3 n=15 v=100
4139563 Off ch=3 n=10 v=0
4139749 Off ch=3 n=15 v=0
4139751 On ch=3 n=22 v=100
4140002 Off ch=3 n=22 v=0
4140467 On ch=3 n=35 v=100
4140549 On ch=3 n=50 v=100
4140556 Off ch=3 n=35 v=0
4140564 On ch=3 n=32 v=100
4140564 On ch=3 n=29 v=100
4140651 Off ch=3 n=50 v=0
4140672 Off ch=3 n=29 v=0
4140676 On ch=3 n=20 v=100
4140687 Off ch=3 n=32 v=0
4140736 Off ch=3 n=20 v=0
4140738 On ch=3 n=12 v=100
4140739 On ch=3 n=39 v=100
4140741 On ch=3 n=53 v=100
4140874 Off ch=3 n=12 v=0
4140900 Off ch=3 n=39 v=0
4140923 On ch=3 n=14 v=100
4140934 Off ch=3 n=53 v=0
4141149 Off ch=3 n=14 v=0
4141161 On ch=3 n=12 v=100
4141418 Off ch=3 n=12 v=0
4142573 On ch=3 n=20 v=100
4142848 Off ch=3 n=20 v=0
4142851 On ch=3 n=29 v=100
4142884 On ch=3 n=30 v=100
4142906 On ch=3 n=22 v=100
4142906 On ch=3 n=22 v=100
4142923 Off ch=3 n=29 v=0
4142959 On ch=3 n=16 v=100
4142970 Off ch=3 n=30 v=0
4143337 Off ch=3 n=16 v=0
4143371 On ch=3 n=12 v=100
4143390 Off ch=3 n=22 v=0
4143390 Off ch=3 n=22 v=0
4143595 On ch=3 n=18 v=100
4143595 Off ch=3 n=12 v=0
4144199 Off ch=3 n=18 v=0
4144651 On ch=3 n=10 v=100
4144787 Off ch=3 n=10 v=0
4144994 On ch=3 n=25 v=100
4145209 Off ch=3 n=25 v=0
4145706 On ch=3 n=8 v=100
4146381 Off ch=3 n=8 v=0
4146446 On ch=3 n=35 v=100
4146608 Off ch=3 n=35 v=0
4146644 On ch=3 n=31 v=100
4146750 Off ch=3 n=31 v=0
4147900 On ch=3 n=17 v=100
4147900 On ch=3 n=17 v=100
4147914 On ch=3 n=9 v=100
4148637 Off ch=3 n=9 v=0
4148858 Off ch=3 n=17 v=0
4148858 Off ch=3 n=17 v=0
4150488 On ch=3 n=29 v=100
4150488 On ch=3 n=20 v=100
4150680 Off ch=3 n=20 v=0
4150705 On ch=3 n=19 v=100
4150843 Off ch=3 n=29 v=0
4150844 Off ch=3 n=19 v=0
4150851 On ch=3 n=16 v=100
4150851 On ch=3 n=23 v=100
4150935 Off ch=3 n=16 v=0
4150936 On ch=3 n=18 v=100
4151027 On ch=3 n=13 v=100
4151033 Off ch=3 n=23 v=0
4151154 Off ch=3 n=18 v=0
4151591 Off ch=3 n=13 v=0
4151709 On ch=3 n=33 v=100
4151779 Off ch=3 n=33 v=0
4152766 On ch=3 n=5 v=100
4152839 Off ch=3 n=5 v=0
4152857 On ch=3 n=9 v=100
4153365 On ch=3 n=8 v=100
4153371 Off ch=3 n=9 v=0
4153973 On ch=3 n=13 v=100
4153974 Off ch=3 n=8 v=0
4155066 Off ch=3 n=13 v=0
4155072 On ch=3 n=14 v=100
4155816 Off ch=3 n=14 v=0
4156626 On ch=3 n=16 v=100
4156829 Off ch=3 n=16 v=0
4156876 On ch=3 n=16 v=100
4157297 Off ch=3 n=16 v=0
4158351 On ch=3 n=16 v=100
4158569 Off ch=3 n=16 v=0
4158622 On ch=3 n=16 v=100
4158802 Off ch=3 n=16 v=0
4158832 On ch=3 n=8 v=100
4158985 Off ch=3 n=8 v=0
4158987 On ch=3 n=8 v=100
4159508 Off ch=3 n=8 v=0
4159513 On ch=3 n=8 v=100
4160676 Off ch=3 n=8 v=0
4160689 On ch=3 n=13 v=100
4161589 Off ch=3 n=13 v=0
4161645 On ch=3 n=23 v=100
4161895 On ch=3 n=10 v=100
4162214 Off ch=3 n=23 v=0
4163078 On ch=3 n=32 v=100
4163114 Off ch=3 n=10 v=0
4163120 Off ch=3 n=32 v=0
4164330 On ch=3 n=22 v=100
4164511 Off ch=3 n=22 v=0
4164521 On ch=3 n=7 v=100
4164646 Off ch=3 n=7 v=0
4164691 On ch=3 n=13 v=100
4164807 Off ch=3 n=13 v=0
4164817 On ch=3 n=17 v=100
4164893 Off ch=3 n=17 v=0
4164901 On ch=3 n=16 v=100
4165218 Off ch=3 n=16 v=0
4165255 On ch=3 n=16 v=100
4165384 Off ch=3 n=16 v=0
4165852 On ch=3 n=4 v=100
4165922 Off ch=3 n=4 v=0
4165976 On ch=3 n=4 v=100
4168806 Off ch=3 n=4 v=0
4168849 On ch=3 n=12 v=100
4169231 Off ch=3 n=12 v=0
4169355 On ch=3 n=7 v=100
4170036 On ch=3 n=9 v=100
4170036 Off ch=3 n=7 v=0
4170298 On ch=3 n=26 v=100
4170307 On ch=3 n=1 v=100
4170312 Off ch=3 n=9 v=0
4170357 Off ch=3 n=1 v=0
4170361 On ch=3 n=7 v=100
4170415 Off ch=3 n=26 v=0
4170858 Off ch=3 n=7 v=0
4170861 On ch=3 n=7 v=100
4171064 Off ch=3 n=7 v=0
4173688 On ch=3 n=16 v=100
4173959 On ch=3 n=10 v=100
4173993 Off ch=3 n=16 v=0
4173999 Off ch=3 n=10 v=0
4175129 On ch=3 n=45 v=100
4175296 On ch=3 n=33 v=100
4175347 On ch=3 n=42 v=100
4175350 On ch=3 n=32 v=100
4175639 Off ch=3 n=32 v=0
4175643 Off ch=3 n=33 v=0
4175651 Off ch=3 n=45 v=0
4175815 Off ch=3 n=42 v=0
4175835 On ch=3 n=18 v=100
4175888 On ch=3 n=11 v=100
4175889 Off ch=3 n=18 v=0
4176036 Off ch=3 n=11 v=0
4177367 On ch=3 n=30 v=100
4177462 On ch=3 n=24 v=100
4177550 On ch=3 n=21 v=100
4177795 Off ch=3 n=30 v=0
4177899 On ch=3 n=17 v=100
4177899 On ch=3 n=17 v=100
4177907 Off ch=3 n=24 v=0
4177953 On ch=3 n=12 v=100
4177971 Off ch=3 n=21 v=0
4178003 On ch=3 n=24 v=100
4178003 On ch=3 n=24 v=100
4178352 Off ch=3 n=17 v=0
4178352 Off ch=3 n=17 v=0
4178356 Off ch=3 n=12 v=0
4178626 On ch=3 n=12 v=100
4178960 Off ch=3 n=24 v=0
4178960 Off ch=3 n=24 v=0
4179117 Off ch=3 n=12 v=0
4179496 On ch=3 n=18 v=100
4179726 On ch=3 n=30 v=100
4179727 On ch=3 n=21 v=100
4179902 Off ch=3 n=18 v=0
4179931 Off ch=3 n=21 v=0
4179972 Off ch=3 n=30 v=0
4181164 On ch=3 n=12 v=100
4181388 Off ch=3 n=12 v=0
4183932 On ch=3 n=23 v=100
4184057 Off ch=3 n=23 v=0
4184167 On ch=3 n=7 v=100
4184559 Off ch=3 n=7 v=0
4185760 On ch=3 n=43 v=100
4185833 On ch=3 n=29 v=100
4185833 On ch=3 n=29 v=100
4185850 On ch=3 n=19 v=100
4185888 On ch=3 n=18 v=100
4186001 Off ch=3 n=43 v=0
4186252 Off ch=3 n=19 v=0
4186253 On ch=3 n=37 v=100
4186290 On ch=3 n=34 v=100
4186293 On ch=3 n=28 v=100
4186313 Off ch=3 n=18 v=0
4186412 Off ch=3 n=29 v=0
4186412 Off ch=3 n=29 v=0
4186565 Off ch=3 n=37 v=0
4186566 Off ch=3 n=28 v=0
4186620 Off ch=3 n=34 v=0
4187220 On ch=3 n=47 v=100
4187415 On ch=3 n=14 v=100
4187489 Off ch=3 n=47 v=0
4187763 On ch=3 n=45 v=100
4187814 Off ch=3 n=14 v=0
4187817 Off ch=3 n=45 v=0
4187893 On ch=3 n=45 v=100
4187896 On ch=3 n=10 v=100
4187984 Off ch=3 n=45 v=0
4188448 Off ch=3 n=10 v=0
4188533 On ch=3 n=12 v=100
4188540 On ch=3 n=26 v=100
4188674 On ch=3 n=41 v=100
4188674 On ch=3 n=41 v=100
4188693 Off ch=3 n=12 v=0
4188703 On ch=3 n=22 v=100
4188720 Off ch=3 n=26 v=0
4188891 Off ch=3 n=22 v=0
4188911 Off ch=3 n=41 v=0
4188911 Off ch=3 n=41 v=0
4189591 On ch=3 n=17 v=100
4189761 Off ch=3 n=17 v=0
4189960 On ch=3 n=21 v=100
4190338 Off ch=3 n=21 v=0
4190543 On ch=3 n=38 v=100
4190630 Off ch=3 n=38 v=0
4191326 On ch=3 n=17 v=100
4191368 On ch=3 n=14 v=100
4191715 Off ch=3 n=17 v=0
4191759 Off ch=3 n=14 v=0
4191777 On ch=3 n=9 v=100
4192132 Off ch=3 n=9 v=0
4192563 On ch=3 n=6 v=100
4192918 Off ch=3 n=6 v=0
4193764 On ch=3 n=19 v=100
4194010 Off ch=3 n=19 v=0
4203265 On ch=3 n=5 v=100
4203564 Off ch=3 n=5 v=0
4204763 On ch=3 n=19 v=100
4204767 On ch=3 n=10 v=100
4205091 Off ch=3 n=10 v=0
4205138 Off ch=3 n=19 v=0
4205496 On ch=3 n=9 v=100
4205496 On ch=3 n=9 v=100
4205866 On ch=3 n=15 v=100
4205866 On ch=3 n=15 v=100
4205903 On ch=3 n=21 v=100
4205906 Off ch=3 n=9 v=0
4205906 Off ch=3 n=9 v=0
4206019 Off ch=3 n=15 v=0
4206019 Off ch=3 n=15 v=0
4206021 On ch=3 n=12 v=100
4206021 On ch=3 n=12 v=100
4206119 Off ch=3 n=21 v=0
4206222 Off ch=3 n=12 v=0
4206222 Off ch=3 n=12 v=0
4206589 On ch=3 n=17 v=100
4206620 Off ch=3 n=17 v=0
4206704 On ch=3 n=17 v=100
4206765 Off ch=3 n=17 v=0
4206800 On ch=3 n=15 v=100
4206853 Off ch=3 n=15 v=0
4207788 On ch=3 n=34 v=100
4208150 Off ch=3 n=34 v=0
4209318 On ch=3 n=5 v=100
4210220 Off ch=3 n=5 v=0
4210799 On ch=3 n=11 v=100
4210881 On ch=3 n=23 v=100
4210932 Off ch=3 n=11 v=0
4210939 Off ch=3 n=23 v=0
4210954 On ch=3 n=19 v=100
4211334 Off ch=3 n=19 v=0
4211533 On ch=3 n=37 v=100
4211936 Off ch=3 n=37 v=0
4212040 On ch=3 n=34 v=100
4212584 Off ch=3 n=34 v=0
4213352 On ch=3 n=10 v=100
4213365 On ch=3 n=9 v=100
4213470 Off ch=3 n=10 v=0
4214062 On ch=3 n=4 v=100
4214063 Off ch=3 n=9 v=0
4214206 On ch=3 n=4 v=100
4214206 Off ch=3 n=4 v=0
4215322 On ch=3 n=0 v=100
4215322 Off ch=3 n=4 v=0
4215383 Off ch=3 n=0 v=0
4215402 On ch=3 n=10 v=100
4215627 Off ch=3 n=10 v=0
4215760 On ch=3 n=14 v=100
4215992 Off ch=3 n=14 v=0
4216028 On ch=3 n=14 v=100
4216168 Off ch=3 n=14 v=0
4216169 On ch=3 n=10 v=100
4216240 Off ch=3 n=10 v=0
4218811 On ch=3 n=4 v=100
4219463 Off ch=3 n=4 v=0
4219547 On ch=3 n=12 v=100
4219965 Off ch=3 n=12 v=0
4220095 On ch=3 n=11 v=100
4220217 Off ch=3 n=11 v=0
4221144 On ch=3 n=27 v=100
4221146 On ch=3 n=23 v=100
4221178 On ch=3 n=18 v=100
4221343 Off ch=3 n=23 v=0
4221369 Off ch=3 n=18 v=0
4221406 Off ch=3 n=27 v=0
4222407 On ch=3 n=22 v=100
4222523 On ch=3 n=27 v=100
4222544 Off ch=3 n=22 v=0
4222591 On ch=3 n=10 v=100
4222594 On ch=3 n=14 v=100
4222744 Off ch=3 n=27 v=0
4222972 Off ch=3 n=10 v=0
4223049 Off ch=3 n=14 v=0
4226411 On ch=3 n=9 v=100
4226987 On ch=3 n=15 v=100
4227072 Off ch=3 n=9 v=0
4227942 Off ch=3 n=15 v=0
4227951 On ch=3 n=7 v=100
4228603 On ch=3 n=15 v=100
4228619 Off ch=3 n=7 v=0
4228621 On ch=3 n=10 v=100
4228643 Off ch=3 n=15 v=0
4228643 Off ch=3 n=10 v=0
4228716 On ch=3 n=10 v=100
4228716 On ch=3 n=15 v=100
4229287 Off ch=3 n=10 v=0
4229342 On ch=3 n=15 v=100
4229374 Off ch=3 n=15 v=0
4229484 Off ch=3 n=15 v=0
4231275 On ch=3 n=6 v=100
4232661 Off ch=3 n=6 v=0
4234151 On ch=3 n=16 v=100
4234428 Off ch=3 n=16 v=0
4234451 On ch=3 n=11 v=100
4234729 Off ch=3 n=11 v=0
4234777 On ch=3 n=3 v=100
4234902 Off ch=3 n=3 v=0
4235657 On ch=3 n=6 v=100
4235706 Off ch=3 n=6 v=0
4237473 On ch=3 n=9 v=100
4237803 Off ch=3 n=9 v=0
4237805 On ch=3 n=6 v=100
4237905 Off ch=3 n=6 v=0
4237923 On ch=3 n=12 v=100
4238202 On ch=3 n=10 v=100
4238202 Off ch=3 n=12 v=0
4238252 Off ch=3 n=10 v=0
4238271 On ch=3 n=10 v=100
4238322 On ch=3 n=7 v=100
4238322 Off ch=3 n=10 v=0
4238618 On ch=3 n=32 v=100
4238667 On ch=3 n=24 v=100
4238672 Off ch=3 n=7 v=0
4238710 On ch=3 n=9 v=100
4238979 Off ch=3 n=24 v=0
4239020 Off ch=3 n=9 v=0
4239023 Off ch=3 n=32 v=0
4239048 On ch=3 n=24 v=100
4239157 Off ch=3 n=24 v=0
4239355 On ch=3 n=41 v=100
4239447 Off ch=3 n=41 v=0
4239565 On ch=3 n=16 v=100
4239870 On ch=3 n=30 v=100
4239870 On ch=3 n=30 v=100
4239896 On ch=3 n=15 v=100
4239916 Off ch=3 n=16 v=0
4240103 Off ch=3 n=15 v=0
4240105 On ch=3 n=14 v=100
4240160 Off ch=3 n=30 v=0
4240160 Off ch=3 n=30 v=0
4240228 On ch=3 n=31 v=100
4240238 Off ch=3 n=14 v=0
4240346 Off ch=3 n=31 v=0
4256553 On ch=3 n=20 v=100
4256613 On ch=3 n=24 v=100
4256614 Off ch=3 n=20 v=0
4256742 On ch=3 n=4 v=100
4256780 Off ch=3 n=24 v=0
4257008 On ch=3 n=48 v=100
4257185 On ch=3 n=33 v=100
4257186 Off ch=3 n=4 v=0
4257348 On ch=3 n=9 v=100
4257377 Off ch=3 n=48 v=0
4257416 Off ch=3 n=33 v=0
4257449 Off ch=3 n=9 v=0
4257472 On ch=3 n=4 v=100
4258397 Off ch=3 n=4 v=0
4262365 On ch=3 n=20 v=100
4262425 On ch=3 n=24 v=100
4262426 Off ch=3 n=20 v=0
4262554 On ch=3 n=4 v=100
4262592 Off ch=3 n=24 v=0
4262820 On ch=3 n=48 v=100
4262997 On ch=3 n=33 v=100
4262998 Off ch=3 n=4 v=0
4263160 On ch=3 n=9 v=100
4263189 Off ch=3 n=48 v=0
4263228 Off ch=3 n=33 v=0
4263261 Off ch=3 n=9 v=0
4263284 On ch=3 n=4 v=100
4264116 On ch=3 n=30 v=100
4264212 Off ch=3 n=4 v=0
4264214 On ch=3 n=26 v=100
4264252 Off ch=3 n=30 v=0
4264288 Off ch=3 n=26 v=0
4264584 On ch=3 n=1 v=100
4264771 On ch=3 n=2 v=100
4264914 Off ch=3 n=1 v=0
4265211 Off ch=3 n=2 v=0
4265216 On ch=3 n=18 v=100
4265361 On ch=3 n=7 v=100
4265523 Off ch=3 n=18 v=0
4266102 Off ch=3 n=7 v=0
4277376 On ch=3 n=5 v=100
4277667 Off ch=3 n=5 v=0
4277833 On ch=3 n=25 v=100
4277899 On ch=3 n=4 v=100
4277903 Off ch=3 n=25 v=0
4278810 Off ch=3 n=4 v=0
4284308 On ch=3 n=5 v=100
4284585 On ch=3 n=15 v=100
4284644 On ch=3 n=12 v=100
4284707 Off ch=3 n=5 v=0
4284710 On ch=3 n=5 v=100
4284926 Off ch=3 n=15 v=0
4285076 Off ch=3 n=12 v=0
4285901 Off ch=3 n=5 v=0
4286598 On ch=3 n=9 v=100
4287015 On ch=3 n=9 v=100
4287020 Off ch=3 n=9 v=0
4287659 On ch=3 n=8 v=100
4287675 Off ch=3 n=9 v=0
4287931 Off ch=3 n=8 v=0
4288133 On ch=3 n=11 v=100
4288282 Off ch=3 n=11 v=0
4289035 On ch=3 n=8 v=100
4289689 On ch=3 n=5 v=100
4289689 Off ch=3 n=8 v=0
4289759 Off ch=3 n=5 v=0
4289763 On ch=3 n=2 v=100
4290293 On ch=3 n=3 v=100
4290293 Off ch=3 n=2 v=0
4290405 Off ch=3 n=3 v=0
4290507 On ch=3 n=13 v=100
4290617 On ch=3 n=4 v=100
4290640 Off ch=3 n=13 v=0
4291081 On ch=3 n=6 v=100
4291081 Off ch=3 n=4 v=0
4291821 Off ch=3 n=6 v=0
4291823 On ch=3 n=3 v=100
4291969 Off ch=3 n=3 v=0
4293274 On ch=3 n=73 v=100
4294034 Off ch=3 n=73 v=0
4294417 On ch=3 n=17 v=100
4294530 Off ch=3 n=17 v=0
4295000 On ch=3 n=22 v=100
4295363 Off ch=3 n=22 v=0
4296214 On ch=3 n=8 v=100
4296368 Off ch=3 n=8 v=0
4296372 On ch=3 n=11 v=100
4296713 Off ch=3 n=11 v=0
4296829 On ch=3 n=3 v=100
4297117 Off ch=3 n=3 v=0
4297120 On ch=3 n=5 v=100
4297652 On ch=3 n=13 v=100
4297657 Off ch=3 n=5 v=0
4298925 Off ch=3 n=13 v=0
4298952 On ch=3 n=13 v=100
4299188 Off ch=3 n=13 v=0
4299773 On ch=3 n=12 v=100
4299914 Off ch=3 n=12 v=0
4299986 On ch=3 n=19 v=100
4300311 Off ch=3 n=19 v=0
4300351 On ch=3 n=7 v=100
4300827 Off ch=3 n=7 v=0
4301756 On ch=3 n=29 v=100
4301756 On ch=3 n=29 v=100
4301815 On ch=3 n=16 v=100
4301842 On ch=3 n=32 v=100
4301858 On ch=3 n=8 v=100
4301858 On ch=3 n=8 v=100
4302169 Off ch=3 n=8 v=0
4302169 Off ch=3 n=8 v=0
4302180 Off ch=3 n=16 v=0
4302214 Off ch=3 n=29 v=0
4302214 Off ch=3 n=29 v=0
4302265 Off ch=3 n=32 v=0
4302647 On ch=3 n=8 v=100
4303085 Off ch=3 n=8 v=0
4306609 On ch=3 n=72 v=100
4307370 Off ch=3 n=72 v=0
4307605 On ch=3 n=50 v=100
4307687 Off ch=3 n=50 v=0
4307754 On ch=3 n=24 v=100
4307894 Off ch=3 n=24 v=0
4308387 On ch=3 n=25 v=100
4308668 Off ch=3 n=25 v=0
4309525 On ch=3 n=7 v=100
4309698 Off ch=3 n=7 v=0
4309701 On ch=3 n=8 v=100
4310058 Off ch=3 n=8 v=0
4310758 On ch=3 n=14 v=100
4311246 On ch=3 n=2 v=100
4311249 Off ch=3 n=14 v=0
4313944 On ch=3 n=17 v=100
4314102 Off ch=3 n=2 v=0
4314122 On ch=3 n=3 v=100
4314181 Off ch=3 n=17 v=0
4315277 Off ch=3 n=3 v=0
4315321 On ch=3 n=7 v=100
4316257 Off ch=3 n=7 v=0
4316323 On ch=3 n=57 v=100
4316323 On ch=3 n=57 v=100
4316631 On ch=3 n=21 v=100
4316631 On ch=3 n=21 v=100
4316647 On ch=3 n=10 v=100
4316838 Off ch=3 n=10 v=0
4316847 Off ch=3 n=57 v=0
4316847 Off ch=3 n=57 v=0
4316849 Off ch=3 n=21 v=0
4316849 Off ch=3 n=21 v=0
4317163 On ch=3 n=30 v=100
4317183 On ch=3 n=12 v=100
4317340 Off ch=3 n=30 v=0
4317520 Off ch=3 n=12 v=0
4317523 On ch=3 n=6 v=100
4317703 On ch=3 n=10 v=100
4317703 Off ch=3 n=6 v=0
4317990 Off ch=3 n=10 v=0
4317997 On ch=3 n=8 v=100
4318211 Off ch=3 n=8 v=0
4318588 On ch=3 n=19 v=100
4318612 On ch=3 n=8 v=100
4318746 Off ch=3 n=19 v=0
4319117 Off ch=3 n=8 v=0
4319118 On ch=3 n=25 v=100
4319463 On ch=3 n=24 v=100
4319472 Off ch=3 n=25 v=0
4319635 On ch=3 n=33 v=100
4319674 Off ch=3 n=24 v=0
4319865 Off ch=3 n=33 v=0
4319893 On ch=3 n=0 v=100
4319983 Off ch=3 n=0 v=0
4320126 On ch=3 n=31 v=100
4320137 On ch=3 n=24 v=100
4320265 Off ch=3 n=24 v=0
4320274 On ch=3 n=25 v=100
4320275 Off ch=3 n=31 v=0
4320788 Off ch=3 n=25 v=0
4321281 On ch=3 n=51 v=100
4321918 On ch=3 n=50 v=100
4322481 Off ch=3 n=51 v=0
4322557 Off ch=3 n=50 v=0
4323723 On ch=3 n=47 v=100
4323839 Off ch=3 n=47 v=0
4324200 On ch=3 n=17 v=100
4324317 Off ch=3 n=17 v=0
4324343 On ch=3 n=22 v=100
4324650 On ch=3 n=25 v=100
4324654 Off ch=3 n=22 v=0
4324715 Off ch=3 n=25 v=0
4324719 On ch=3 n=4 v=100
4324841 Off ch=3 n=4 v=0
4329353 On ch=3 n=8 v=100
4330427 On ch=3 n=19 v=100
4330427 Off ch=3 n=8 v=0
4330581 Off ch=3 n=19 v=0
4330710 On ch=3 n=49 v=100
4332481 Off ch=3 n=49 v=0
4334477 On ch=3 n=18 v=100
4334612 Off ch=3 n=18 v=0
4334622 On ch=3 n=29 v=100
4334777 Off ch=3 n=29 v=0
4334966 On ch=3 n=17 v=100
4334966 On ch=3 n=25 v=100
4335106 On ch=3 n=36 v=100
4335116 Off ch=3 n=17 v=0
4335141 On ch=3 n=28 v=100
4335145 Off ch=3 n=25 v=0
4335345 Off ch=3 n=36 v=0
4335377 Off ch=3 n=28 v=0
4337593 On ch=3 n=33 v=100
4337593 On ch=3 n=33 v=100
4337661 On ch=3 n=13 v=100
4337790 On ch=3 n=40 v=100
4337830 Off ch=3 n=13 v=0
4337833 On ch=3 n=5 v=100
4337841 Off ch=3 n=33 v=0
4337841 Off ch=3 n=33 v=0
4338089 On ch=3 n=10 v=100
4338090 Off ch=3 n=40 v=0
4338090 Off ch=3 n=5 v=0
4338196 On ch=3 n=24 v=100
4338203 On ch=3 n=14 v=100
4338210 Off ch=3 n=10 v=0
4338253 Off ch=3 n=24 v=0
4338512 On ch=3 n=12 v=100
4338519 Off ch=3 n=14 v=0
4338674 On ch=3 n=12 v=100
4338690 Off ch=3 n=12 v=0
4338869 Off ch=3 n=12 v=0
4338888 On ch=3 n=20 v=100
4339106 Off ch=3 n=20 v=0
4339113 On ch=3 n=15 v=100
4339294 Off ch=3 n=15 v=0
4339491 On ch=3 n=9 v=100
4339829 On ch=3 n=8 v=100
4339830 Off ch=3 n=9 v=0
4340248 On ch=3 n=3 v=100
4340248 Off ch=3 n=8 v=0
4341327 On ch=3 n=36 v=100
4341447 Off ch=3 n=3 v=0
4341448 On ch=3 n=10 v=100
4341468 Off ch=3 n=36 v=0
4341599 Off ch=3 n=10 v=0
4343205 On ch=3 n=76 v=100
4344096 Off ch=3 n=76 v=0
4344477 On ch=3 n=20 v=100
4344587 Off ch=3 n=20 v=0
4345121 On ch=3 n=21 v=100
4345479 Off ch=3 n=21 v=0
4346724 On ch=3 n=4 v=100
4346792 Off ch=3 n=4 v=0
4346841 On ch=3 n=12 v=100
4347199 Off ch=3 n=12 v=0
4347890 On ch=3 n=9 v=100
4348027 Off ch=3 n=9 v=0
4348128 On ch=3 n=16 v=100
4348429 Off ch=3 n=16 v=0
4348469 On ch=3 n=7 v=100
4348655 Off ch=3 n=7 v=0
4348656 On ch=3 n=8 v=100
4349335 Off ch=3 n=8 v=0
4349617 On ch=3 n=48 v=100
4349707 On ch=3 n=24 v=100
4349707 On ch=3 n=24 v=100
4349722 On ch=3 n=11 v=100
4349911 Off ch=3 n=11 v=0
4349923 Off ch=3 n=48 v=0
4349926 Off ch=3 n=24 v=0
4349926 Off ch=3 n=24 v=0
4350259 On ch=3 n=10 v=100
4350597 Off ch=3 n=10 v=0
4350600 On ch=3 n=6 v=100
4350780 On ch=3 n=9 v=100
4350780 Off ch=3 n=6 v=0
4351067 Off ch=3 n=9 v=0
4351072 On ch=3 n=7 v=100
4351287 Off ch=3 n=7 v=0
4351407 On ch=3 n=9 v=100
4351509 On ch=3 n=47 v=100
4351876 On ch=3 n=3 v=100
4351902 Off ch=3 n=9 v=0
4351982 Off ch=3 n=47 v=0
4352690 Off ch=3 n=3 v=0
4352692 On ch=3 n=6 v=100
4352871 Off ch=3 n=6 v=0
4352963 On ch=3 n=6 v=100
4355312 Off ch=3 n=6 v=0
4355575 On ch=3 n=18 v=100
4355599 On ch=3 n=7 v=100
4355733 Off ch=3 n=18 v=0
4356214 On ch=3 n=21 v=100
4356222 Off ch=3 n=7 v=0
4356524 On ch=3 n=14 v=100
4356623 Off ch=3 n=21 v=0
4356704 On ch=3 n=12 v=100
4356720 Off ch=3 n=14 v=0
4356899 Off ch=3 n=12 v=0
4356918 On ch=3 n=19 v=100
4357137 Off ch=3 n=19 v=0
4357144 On ch=3 n=17 v=100
4357316 Off ch=3 n=17 v=0
4357514 On ch=3 n=9 v=100
4357856 On ch=3 n=9 v=100
4357858 Off ch=3 n=9 v=0
4358274 On ch=3 n=3 v=100
4358274 Off ch=3 n=9 v=0
4359369 On ch=3 n=35 v=100
4359490 Off ch=3 n=3 v=0
4359491 On ch=3 n=10 v=100
4359511 Off ch=3 n=35 v=0
4359642 Off ch=3 n=10 v=0
4360379 On ch=3 n=50 v=100
4360486 Off ch=3 n=50 v=0
4361260 On ch=3 n=75 v=100
4362151 Off ch=3 n=75 v=0
4362535 On ch=3 n=22 v=100
4362673 Off ch=3 n=22 v=0
4363182 On ch=3 n=22 v=100
4363545 Off ch=3 n=22 v=0
4364396 On ch=3 n=9 v=100
4364904 Off ch=3 n=9 v=0
4365021 On ch=3 n=11 v=100
4366432 Off ch=3 n=11 v=0
4366469 On ch=3 n=11 v=100
4366590 Off ch=3 n=11 v=0
4366627 On ch=3 n=11 v=100
4366865 Off ch=3 n=11 v=0
4367446 On ch=3 n=14 v=100
4367585 Off ch=3 n=14 v=0
4367657 On ch=3 n=19 v=100
4367982 Off ch=3 n=19 v=0
4368022 On ch=3 n=6 v=100
4368498 Off ch=3 n=6 v=0
4369451 On ch=3 n=28 v=100
4369451 On ch=3 n=28 v=100
4369503 On ch=3 n=16 v=100
4369532 On ch=3 n=32 v=100
4369546 On ch=3 n=7 v=100
4369546 On ch=3 n=7 v=100
4369856 Off ch=3 n=7 v=0
4369856 Off ch=3 n=7 v=0
4369867 Off ch=3 n=16 v=0
4369900 Off ch=3 n=28 v=0
4369900 Off ch=3 n=28 v=0
4369947 Off ch=3 n=32 v=0
4370288 On ch=3 n=8 v=100
4370753 Off ch=3 n=8 v=0
4371073 On ch=3 n=3 v=100
4371843 Off ch=3 n=3 v=0
4375063 On ch=3 n=74 v=100
4375822 Off ch=3 n=74 v=0
4376206 On ch=3 n=17 v=100
4376315 Off ch=3 n=17 v=0
4376838 On ch=3 n=26 v=100
4377119 Off ch=3 n=26 v=0
4377836 On ch=3 n=9 v=100
4378190 Off ch=3 n=9 v=0
4378885 On ch=3 n=13 v=100
4379376 On ch=3 n=3 v=100
4379378 Off ch=3 n=13 v=0
4382081 On ch=3 n=18 v=100
4382238 Off ch=3 n=3 v=0
4382256 On ch=3 n=3 v=100
4382318 Off ch=3 n=18 v=0
4383410 Off ch=3 n=3 v=0
4383454 On ch=3 n=7 v=100
4384107 Off ch=3 n=7 v=0
4384109 On ch=3 n=1 v=100
4384808 On ch=3 n=15 v=100
4384875 On ch=3 n=8 v=100
4384879 Off ch=3 n=1 v=0
4384889 Off ch=3 n=15 v=0
4385169 Off ch=3 n=8 v=0
4385455 On ch=3 n=49 v=100
4385544 On ch=3 n=25 v=100
4385544 On ch=3 n=25 v=100
4385559 On ch=3 n=12 v=100
4385748 Off ch=3 n=12 v=0
4385760 Off ch=3 n=49 v=0
4385762 Off ch=3 n=25 v=0
4385762 Off ch=3 n=25 v=0
4386096 On ch=3 n=12 v=100
4386434 Off ch=3 n=12 v=0
4386437 On ch=3 n=6 v=100
4386617 On ch=3 n=11 v=100
4386617 Off ch=3 n=6 v=0
4386905 Off ch=3 n=11 v=0
4386910 On ch=3 n=7 v=100
4387126 Off ch=3 n=7 v=0
4387505 On ch=3 n=17 v=100
4387528 On ch=3 n=7 v=100
4387662 Off ch=3 n=17 v=0
4388144 On ch=3 n=13 v=100
4388151 Off ch=3 n=7 v=0
4388453 On ch=3 n=11 v=100
4388460 Off ch=3 n=13 v=0
4388634 On ch=3 n=13 v=100
4388637 Off ch=3 n=11 v=0
4388829 Off ch=3 n=13 v=0
4388848 On ch=3 n=19 v=100
4389067 Off ch=3 n=19 v=0
4389074 On ch=3 n=15 v=100
4389255 Off ch=3 n=15 v=0
4389453 On ch=3 n=8 v=100
4389796 On ch=3 n=8 v=100
4389797 Off ch=3 n=8 v=0
4390214 On ch=3 n=3 v=100
4390214 Off ch=3 n=8 v=0
4391308 On ch=3 n=36 v=100
4391428 Off ch=3 n=3 v=0
4391430 On ch=3 n=9 v=100
4391449 Off ch=3 n=36 v=0
4391580 Off ch=3 n=9 v=0
4393407 On ch=3 n=73 v=100
4394100 Off ch=3 n=73 v=0
4394478 On ch=3 n=18 v=100
4394588 Off ch=3 n=18 v=0
4395118 On ch=3 n=21 v=100
4395472 Off ch=3 n=21 v=0
4396346 On ch=3 n=11 v=100
4396511 Off ch=3 n=11 v=0
4396514 On ch=3 n=10 v=100
4396867 Off ch=3 n=10 v=0
4397559 On ch=3 n=13 v=100
4398102 Off ch=3 n=13 v=0
4398142 On ch=3 n=7 v=100
4398626 Off ch=3 n=7 v=0
4400040 On ch=3 n=6 v=100
4400475 Off ch=3 n=6 v=0
4400599 On ch=3 n=15 v=100
4400599 On ch=3 n=15 v=100
4401261 Off ch=3 n=15 v=0
4401261 Off ch=3 n=15 v=0
4401693 On ch=3 n=13 v=100
4401973 On ch=3 n=14 v=100
4402252 Off ch=3 n=13 v=0
4402863 On ch=3 n=4 v=100
4402863 Off ch=3 n=14 v=0
4402908 Off ch=3 n=4 v=0
4404572 On ch=3 n=31 v=100
4404595 On ch=3 n=11 v=100
4404752 Off ch=3 n=31 v=0
4404939 Off ch=3 n=11 v=0
4404942 On ch=3 n=6 v=100
4405133 Off ch=3 n=6 v=0
4405137 On ch=3 n=8 v=100
4405420 Off ch=3 n=8 v=0
4405426 On ch=3 n=12 v=100
4405642 Off ch=3 n=12 v=0
4405884 On ch=3 n=6 v=100
4406412 On ch=3 n=24 v=100
4406670 Off ch=3 n=6 v=0
4406671 On ch=3 n=15 v=100
4406722 Off ch=3 n=24 v=0
4407538 Off ch=3 n=15 v=0
4407862 On ch=3 n=10 v=100
4408139 On ch=3 n=5 v=100
4408139 Off ch=3 n=10 v=0
4408851 On ch=3 n=8 v=100
4408853 Off ch=3 n=5 v=0
4409448 On ch=3 n=15 v=100
4409453 Off ch=3 n=8 v=0
4409654 On ch=3 n=11 v=100
4409661 Off ch=3 n=15 v=0
4409831 On ch=3 n=13 v=100
4409840 Off ch=3 n=11 v=0
4410027 Off ch=3 n=13 v=0
4410046 On ch=3 n=20 v=100
4410265 Off ch=3 n=20 v=0
4410272 On ch=3 n=17 v=100
4410453 Off ch=3 n=17 v=0
4410673 On ch=3 n=8 v=100
4411210 Off ch=3 n=8 v=0
4411218 On ch=3 n=7 v=100
4411908 Off ch=3 n=7 v=0
4413521 On ch=3 n=73 v=100
4414280 Off ch=3 n=73 v=0
4414664 On ch=3 n=17 v=100
4414800 Off ch=3 n=17 v=0
4415314 On ch=3 n=31 v=100
4415316 On ch=3 n=21 v=100
4415666 Off ch=3 n=21 v=0
4415734 Off ch=3 n=31 v=0
4416946 On ch=3 n=4 v=100
4417014 Off ch=3 n=4 v=0
4417060 On ch=3 n=12 v=100
4417424 Off ch=3 n=12 v=0
4417838 On ch=3 n=0 v=100
4419176 On ch=3 n=1 v=100
4419177 Off ch=3 n=0 v=0
4420165 Off ch=3 n=1 v=0
4420452 On ch=3 n=13 v=100
4420978 Off ch=3 n=13 v=0
4421018 On ch=3 n=7 v=100
4421965 Off ch=3 n=7 v=0
4422295 On ch=3 n=38 v=100
4422345 On ch=3 n=9 v=100
4422522 Off ch=3 n=38 v=0
4422525 Off ch=3 n=9 v=0
4422853 On ch=3 n=30 v=100
4422873 On ch=3 n=11 v=100
4423030 Off ch=3 n=30 v=0
4423210 Off ch=3 n=11 v=0
4423213 On ch=3 n=6 v=100
4423393 On ch=3 n=10 v=100
4423393 Off ch=3 n=6 v=0
4423674 Off ch=3 n=10 v=0
4423685 On ch=3 n=7 v=100
4423901 Off ch=3 n=7 v=0
4424278 On ch=3 n=20 v=100
4424302 On ch=3 n=7 v=100
4424436 Off ch=3 n=20 v=0
4424809 On ch=3 n=23 v=100
4424810 Off ch=3 n=7 v=0
4425177 Off ch=3 n=23 v=0
4425185 On ch=3 n=23 v=100
4425311 On ch=3 n=26 v=100
4425394 On ch=3 n=28 v=100
4425402 Off ch=3 n=23 v=0
4425505 On ch=3 n=29 v=100
4425545 Off ch=3 n=26 v=0
4425626 Off ch=3 n=28 v=0
4425713 Off ch=3 n=29 v=0
4425744 On ch=3 n=25 v=100
4425961 On ch=3 n=23 v=100
4425961 On ch=3 n=23 v=100
4425972 On ch=3 n=18 v=100
4426264 Off ch=3 n=25 v=0
4426384 Off ch=3 n=18 v=0
4426455 Off ch=3 n=23 v=0
4426455 Off ch=3 n=23 v=0
4426722 On ch=3 n=14 v=100
4426821 Off ch=3 n=14 v=0
4426824 On ch=3 n=10 v=100
4427129 On ch=3 n=10 v=100
4427140 On ch=3 n=33 v=100
4427158 Off ch=3 n=10 v=0
4427167 On ch=3 n=44 v=100
4427218 Off ch=3 n=10 v=0
4427276 Off ch=3 n=33 v=0
4427308 Off ch=3 n=44 v=0
4427325 On ch=3 n=2 v=100
4427881 Off ch=3 n=2 v=0
4427912 On ch=3 n=2 v=100
4428067 On ch=3 n=15 v=100
4428070 On ch=3 n=11 v=100
4428087 Off ch=3 n=2 v=0
4428417 On ch=3 n=2 v=100
4428420 Off ch=3 n=11 v=0
4428513 Off ch=3 n=15 v=0
4429065 Off ch=3 n=2 v=0
4429097 On ch=3 n=2 v=100
4429272 Off ch=3 n=2 v=0
4429445 On ch=3 n=30 v=100
4429457 On ch=3 n=23 v=100
4429584 Off ch=3 n=23 v=0
4429593 On ch=3 n=27 v=100
4429594 Off ch=3 n=30 v=0
4430133 Off ch=3 n=27 v=0
4430608 On ch=3 n=48 v=100
4431234 On ch=3 n=54 v=100
4431797 Off ch=3 n=48 v=0
4431873 Off ch=3 n=54 v=0
4433045 On ch=3 n=47 v=100
4433161 Off ch=3 n=47 v=0
4433523 On ch=3 n=18 v=100
4433639 Off ch=3 n=18 v=0
4433665 On ch=3 n=22 v=100
4433976 Off ch=3 n=22 v=0
4433991 On ch=3 n=15 v=100
4434185 Off ch=3 n=15 v=0
4434555 On ch=3 n=7 v=100
4435554 On ch=3 n=27 v=100
4435671 Off ch=3 n=7 v=0
4435693 Off ch=3 n=27 v=0
4435722 On ch=3 n=49 v=100
4437209 Off ch=3 n=49 v=0
4439205 On ch=3 n=18 v=100
4439340 Off ch=3 n=18 v=0
4439349 On ch=3 n=29 v=100
4439505 Off ch=3 n=29 v=0
4439694 On ch=3 n=18 v=100
4439694 On ch=3 n=23 v=100
4439836 On ch=3 n=36 v=100
4439846 Off ch=3 n=18 v=0
4439871 On ch=3 n=28 v=100
4439875 Off ch=3 n=23 v=0
4440075 Off ch=3 n=36 v=0
4440107 Off ch=3 n=28 v=0
4440434 On ch=3 n=3 v=100
4442979 Off ch=3 n=3 v=0
4444858 On ch=3 n=35 v=100
4444858 On ch=3 n=35 v=100
4444926 On ch=3 n=15 v=100
4445054 On ch=3 n=41 v=100
4445095 Off ch=3 n=15 v=0
4445098 On ch=3 n=5 v=100
4445109 Off ch=3 n=35 v=0
4445109 Off ch=3 n=35 v=0
4445355 On ch=3 n=11 v=100
4445356 Off ch=3 n=5 v=0
4445400 Off ch=3 n=41 v=0
4445463 On ch=3 n=24 v=100
4445469 On ch=3 n=14 v=100
4445476 Off ch=3 n=11 v=0
4445516 Off ch=3 n=24 v=0
4445779 On ch=3 n=9 v=100
4445785 Off ch=3 n=14 v=0
4445941 On ch=3 n=13 v=100
4445943 Off ch=3 n=9 v=0
4446136 Off ch=3 n=13 v=0
4446155 On ch=3 n=19 v=100
4446374 Off ch=3 n=19 v=0
4446381 On ch=3 n=16 v=100
4446560 Off ch=3 n=16 v=0
4446757 On ch=3 n=9 v=100
4447095 On ch=3 n=8 v=100
4447096 Off ch=3 n=9 v=0
4447514 On ch=3 n=3 v=100
4447514 Off ch=3 n=8 v=0
4448610 On ch=3 n=35 v=100
4448731 Off ch=3 n=3 v=0
4448732 On ch=3 n=10 v=100
4448751 Off ch=3 n=35 v=0
4448883 Off ch=3 n=10 v=0
4450638 On ch=3 n=75 v=100
4451397 Off ch=3 n=75 v=0
4451775 On ch=3 n=25 v=100
4451911 Off ch=3 n=25 v=0
4452417 On ch=3 n=20 v=100
4452769 Off ch=3 n=20 v=0
4453643 On ch=3 n=11 v=100
4453808 Off ch=3 n=11 v=0
4453810 On ch=3 n=9 v=100
4454166 Off ch=3 n=9 v=0
4454858 On ch=3 n=10 v=100
4454999 Off ch=3 n=10 v=0
4455094 On ch=3 n=13 v=100
4455385 Off ch=3 n=13 v=0
4455425 On ch=3 n=8 v=100
4455910 Off ch=3 n=8 v=0
4457317 On ch=3 n=7 v=100
4457753 Off ch=3 n=7 v=0
4457877 On ch=3 n=14 v=100
4457877 On ch=3 n=14 v=100
4458537 Off ch=3 n=14 v=0
4458537 Off ch=3 n=14 v=0
4458968 On ch=3 n=13 v=100
4459239 On ch=3 n=13 v=100
4459518 Off ch=3 n=13 v=0
4460125 Off ch=3 n=13 v=0
4460126 On ch=3 n=6 v=100
4460171 Off ch=3 n=6 v=0
4462008 On ch=3 n=11 v=100
4462352 Off ch=3 n=11 v=0
4462355 On ch=3 n=6 v=100
4462546 Off ch=3 n=6 v=0
4462550 On ch=3 n=9 v=100
4462830 Off ch=3 n=9 v=0
4462836 On ch=3 n=9 v=100
4463051 Off ch=3 n=9 v=0
4463293 On ch=3 n=5 v=100
4464793 On ch=3 n=9 v=100
4464795 Off ch=3 n=5 v=0
4465405 On ch=3 n=45 v=100
4465407 On ch=3 n=13 v=100
4465415 Off ch=3 n=9 v=0
4465720 On ch=3 n=9 v=100
4465727 Off ch=3 n=13 v=0
4465879 Off ch=3 n=45 v=0
4465897 On ch=3 n=12 v=100
4465901 Off ch=3 n=9 v=0
4466093 Off ch=3 n=12 v=0
4466112 On ch=3 n=19 v=100
4466331 Off ch=3 n=19 v=0
4466338 On ch=3 n=22 v=100
4466478 On ch=3 n=2 v=100
4466478 Off ch=3 n=22 v=0
4467425 On ch=3 n=14 v=100
4467425 On ch=3 n=14 v=100
4467448 On ch=3 n=11 v=100
4467452 Off ch=3 n=2 v=0
4467730 On ch=3 n=1 v=100
4467745 Off ch=3 n=11 v=0
4467765 Off ch=3 n=14 v=0
4467765 Off ch=3 n=14 v=0
4469289 On ch=3 n=45 v=100
4469514 On ch=3 n=31 v=100
4469608 On ch=3 n=20 v=100
4469667 Off ch=3 n=1 v=0
4469835 Off ch=3 n=31 v=0
4469844 Off ch=3 n=20 v=0
4469849 Off ch=3 n=45 v=0
4470401 On ch=3 n=1 v=100
4471334 Off ch=3 n=1 v=0
4471571 On ch=3 n=9 v=100
4472617 Off ch=3 n=9 v=0
4474247 On ch=3 n=73 v=100
4474945 Off ch=3 n=73 v=0
4475328 On ch=3 n=24 v=100
4475468 Off ch=3 n=24 v=0
4475975 On ch=3 n=21 v=100
4476326 Off ch=3 n=21 v=0
4477542 On ch=3 n=4 v=100
4477610 Off ch=3 n=4 v=0
4477655 On ch=3 n=11 v=100
4478014 Off ch=3 n=11 v=0
4478706 On ch=3 n=12 v=100
4479232 Off ch=3 n=12 v=0
4479272 On ch=3 n=7 v=100
4480209 Off ch=3 n=7 v=0
4480272 On ch=3 n=59 v=100
4480272 On ch=3 n=59 v=100
4480593 On ch=3 n=19 v=100
4480790 Off ch=3 n=59 v=0
4480790 Off ch=3 n=59 v=0
4480792 Off ch=3 n=19 v=0
4481106 On ch=3 n=31 v=100
4481127 On ch=3 n=10 v=100
4481289 Off ch=3 n=31 v=0
4481464 Off ch=3 n=10 v=0
4481467 On ch=3 n=6 v=100
4481647 On ch=3 n=11 v=100
4481647 Off ch=3 n=6 v=0
4481935 Off ch=3 n=11 v=0
4481938 On ch=3 n=8 v=100
4482156 Off ch=3 n=8 v=0
4482534 On ch=3 n=20 v=100
4482558 On ch=3 n=7 v=100
4482692 Off ch=3 n=20 v=0
4483066 On ch=3 n=22 v=100
4483068 Off ch=3 n=7 v=0
4483359 On ch=3 n=24 v=100
4483421 On ch=3 n=24 v=100
4483433 Off ch=3 n=22 v=0
4483576 Off ch=3 n=24 v=0
4483636 On ch=3 n=27 v=100
4483643 Off ch=3 n=24 v=0
4483763 On ch=3 n=26 v=100
4483830 On ch=3 n=29 v=100
4483870 Off ch=3 n=27 v=0
4483969 On ch=3 n=35 v=100
4483970 Off ch=3 n=26 v=0
4484038 Off ch=3 n=29 v=0
4484048 On ch=3 n=27 v=100
4484222 Off ch=3 n=35 v=0
4484227 On ch=3 n=19 v=100
4484281 On ch=3 n=25 v=100
4484281 On ch=3 n=25 v=100
4484320 On ch=3 n=25 v=100
4484672 Off ch=3 n=27 v=0
4484762 Off ch=3 n=19 v=0
4484834 Off ch=3 n=25 v=0
4484858 Off ch=3 n=25 v=0
4484858 Off ch=3 n=25 v=0
4485044 On ch=3 n=6 v=100
4485092 Off ch=3 n=6 v=0
4491354 On ch=3 n=9 v=100
4491668 On ch=3 n=12 v=100
4491670 On ch=3 n=35 v=100
4491687 Off ch=3 n=9 v=0
4491747 Off ch=3 n=12 v=0
4491795 Off ch=3 n=35 v=0
4491910 On ch=3 n=2 v=100
4492640 On ch=3 n=14 v=100
4492643 On ch=3 n=9 v=100
4492660 Off ch=3 n=2 v=0
4492990 On ch=3 n=2 v=100
4492993 Off ch=3 n=9 v=0
4493086 Off ch=3 n=14 v=0
4493638 Off ch=3 n=2 v=0
4493678 On ch=3 n=2 v=100
4493856 Off ch=3 n=2 v=0
4494077 On ch=3 n=31 v=100
4494088 On ch=3 n=24 v=100
4494216 Off ch=3 n=24 v=0
4494225 On ch=3 n=27 v=100
4494226 Off ch=3 n=31 v=0
4494761 Off ch=3 n=27 v=0
4495232 On ch=3 n=48 v=100
4495867 On ch=3 n=52 v=100
4496424 Off ch=3 n=48 v=0
4496500 Off ch=3 n=52 v=0
4496961 On ch=3 n=40 v=100
4496990 On ch=3 n=4 v=100
4496991 On ch=3 n=39 v=100
4497087 Off ch=3 n=40 v=0
4497087 Off ch=3 n=4 v=0
4497089 On ch=3 n=9 v=100
4497108 Off ch=3 n=39 v=0
4497239 Off ch=3 n=9 v=0
4499002 On ch=3 n=74 v=100
4499762 Off ch=3 n=74 v=0
4500140 On ch=3 n=22 v=100
4500279 Off ch=3 n=22 v=0
4500781 On ch=3 n=21 v=100
4501144 Off ch=3 n=21 v=0
4502017 On ch=3 n=9 v=100
4502189 Off ch=3 n=9 v=0
4502191 On ch=3 n=10 v=100
4502553 Off ch=3 n=10 v=0
4503245 On ch=3 n=13 v=100
4503788 Off ch=3 n=13 v=0
4503828 On ch=3 n=7 v=100
4504744 Off ch=3 n=7 v=0
4504867 On ch=3 n=17 v=100
4504867 On ch=3 n=17 v=100
4505530 Off ch=3 n=17 v=0
4505530 Off ch=3 n=17 v=0
4505962 On ch=3 n=13 v=100
4506232 On ch=3 n=13 v=100
4506511 Off ch=3 n=13 v=0
4507125 Off ch=3 n=13 v=0
4507126 On ch=3 n=4 v=100
4507171 Off ch=3 n=4 v=0
4509059 On ch=3 n=11 v=100
4509373 Off ch=3 n=11 v=0
4509400 On ch=3 n=5 v=100
4509591 Off ch=3 n=5 v=0
4509595 On ch=3 n=10 v=100
4509874 Off ch=3 n=10 v=0
4509880 On ch=3 n=8 v=100
4510094 Off ch=3 n=8 v=0
4510337 On ch=3 n=6 v=100
4511827 On ch=3 n=7 v=100
4511829 Off ch=3 n=6 v=0
4512436 On ch=3 n=21 v=100
4512437 On ch=3 n=7 v=100
4512444 Off ch=3 n=7 v=0
4512481 Off ch=3 n=7 v=0
4512526 Off ch=3 n=21 v=0
4512536 On ch=3 n=13 v=100
4512751 On ch=3 n=11 v=100
4512758 Off ch=3 n=13 v=0
4512926 On ch=3 n=14 v=100
4512935 Off ch=3 n=11 v=0
4513122 Off ch=3 n=14 v=0
4513141 On ch=3 n=20 v=100
4513360 Off ch=3 n=20 v=0
4513367 On ch=3 n=18 v=100
4513548 Off ch=3 n=18 v=0
4513768 On ch=3 n=8 v=100
4515007 Off ch=3 n=8 v=0
4515344 On ch=3 n=7 v=100
4516202 Off ch=3 n=7 v=0
4516204 On ch=3 n=2 v=100
4516338 Off ch=3 n=2 v=0
4517514 On ch=3 n=71 v=100
4518287 Off ch=3 n=71 v=0
4518671 On ch=3 n=24 v=100
4518812 Off ch=3 n=24 v=0
4519310 On ch=3 n=22 v=100
4519679 Off ch=3 n=22 v=0
4520903 On ch=3 n=8 v=100
4521077 Off ch=3 n=8 v=0
4521080 On ch=3 n=11 v=100
4521393 Off ch=3 n=11 v=0
4521966 On ch=3 n=20 v=100
4522005 On ch=3 n=6 v=100
4522088 Off ch=3 n=20 v=0
4522792 Off ch=3 n=6 v=0
4528019 On ch=3 n=28 v=100
4528076 On ch=3 n=28 v=100
4528142 Off ch=3 n=28 v=0
4528160 Off ch=3 n=28 v=0
4528430 On ch=3 n=9 v=100
4528558 Off ch=3 n=9 v=0
4528597 On ch=3 n=9 v=100
4529027 Off ch=3 n=9 v=0
4532549 On ch=3 n=12 v=100
4532770 On ch=3 n=10 v=100
4532774 Off ch=3 n=12 v=0
4532872 Off ch=3 n=10 v=0
4532873 On ch=3 n=14 v=100
4533292 Off ch=3 n=14 v=0
4533371 On ch=3 n=4 v=100
4534607 Off ch=3 n=4 v=0
4537722 On ch=3 n=4 v=100
4537883 Off ch=3 n=4 v=0
4537892 On ch=3 n=8 v=100
4538269 Off ch=3 n=8 v=0
4538343 On ch=3 n=15 v=100
4538429 Off ch=3 n=15 v=0
4538435 On ch=3 n=4 v=100
4538565 Off ch=3 n=4 v=0
4540090 On ch=3 n=13 v=100
4540515 Off ch=3 n=13 v=0
4540518 On ch=3 n=10 v=100
4540548 Off ch=3 n=10 v=0
4541018 On ch=3 n=24 v=100
4541020 On ch=3 n=20 v=100
4541150 On ch=3 n=8 v=100
4541154 Off ch=3 n=20 v=0
4541184 Off ch=3 n=24 v=0
4541193 On ch=3 n=7 v=100
4541370 Off ch=3 n=7 v=0
4541371 Off ch=3 n=8 v=0
4542510 On ch=3 n=33 v=100
4542533 On ch=3 n=11 v=100
4542696 Off ch=3 n=33 v=0
4542871 Off ch=3 n=11 v=0
4542874 On ch=3 n=5 v=100
4543054 On ch=3 n=9 v=100
4543054 Off ch=3 n=5 v=0
4543341 Off ch=3 n=9 v=0
4543347 On ch=3 n=9 v=100
4543562 Off ch=3 n=9 v=0
4543937 On ch=3 n=19 v=100
4543961 On ch=3 n=8 v=100
4544095 Off ch=3 n=19 v=0
4544574 On ch=3 n=13 v=100
4544584 Off ch=3 n=8 v=0
4544886 On ch=3 n=15 v=100
4544894 Off ch=3 n=13 v=0
4545058 On ch=3 n=16 v=100
4545075 Off ch=3 n=15 v=0
4545253 Off ch=3 n=16 v=0
4545278 On ch=3 n=18 v=100
4545492 Off ch=3 n=18 v=0
4545499 On ch=3 n=17 v=100
4545680 Off ch=3 n=17 v=0
4545881 On ch=3 n=9 v=100
4546213 On ch=3 n=7 v=100
4546214 Off ch=3 n=9 v=0
4546631 Off ch=3 n=7 v=0
4546633 On ch=3 n=2 v=100
4547728 On ch=3 n=37 v=100
4547848 Off ch=3 n=2 v=0
4547849 On ch=3 n=10 v=100
4547868 Off ch=3 n=37 v=0
4547997 Off ch=3 n=10 v=0
4548168 On ch=3 n=5 v=100
4548900 Off ch=3 n=5 v=0
4550543 On ch=3 n=69 v=100
4551302 Off ch=3 n=69 v=0
4551686 On ch=3 n=17 v=100
4551795 Off ch=3 n=17 v=0
4552330 On ch=3 n=21 v=100
4552694 Off ch=3 n=21 v=0
4553566 On ch=3 n=8 v=100
4553722 Off ch=3 n=8 v=0
4556328 On ch=3 n=1 v=100
4557531 Off ch=3 n=1 v=0
4557609 On ch=3 n=1 v=100
4559594 Off ch=3 n=1 v=0
4561250 On ch=3 n=14 v=100
4561611 On ch=3 n=11 v=100
4561614 Off ch=3 n=14 v=0
4561810 Off ch=3 n=11 v=0
4561811 On ch=3 n=4 v=100
4562342 Off ch=3 n=4 v=0
4562344 On ch=3 n=6 v=100
4562966 Off ch=3 n=6 v=0
4563016 On ch=3 n=6 v=100
4563712 Off ch=3 n=6 v=0
4563795 On ch=3 n=6 v=100
4565312 Off ch=3 n=6 v=0
4565389 On ch=3 n=6 v=100
4565466 On ch=3 n=4 v=100
4565468 Off ch=3 n=6 v=0
4566003 Off ch=3 n=4 v=0
4566005 On ch=3 n=5 v=100
4567321 On ch=3 n=4 v=100
4567321 Off ch=3 n=5 v=0
4567744 On ch=3 n=5 v=100
4567889 Off ch=3 n=4 v=0
4568276 Off ch=3 n=5 v=0
4568279 On ch=3 n=11 v=100
4568978 Off ch=3 n=11 v=0
4569047 On ch=3 n=10 v=100
4569047 On ch=3 n=11 v=100
4569055 Off ch=3 n=11 v=0
4569302 On ch=3 n=22 v=100
4569404 Off ch=3 n=10 v=0
4569406 On ch=3 n=8 v=100
4569426 Off ch=3 n=22 v=0
4569519 Off ch=3 n=8 v=0
4570650 On ch=3 n=7 v=100
4571113 Off ch=3 n=7 v=0
4571208 On ch=3 n=13 v=100
4571747 On ch=3 n=33 v=100
4571825 Off ch=3 n=13 v=0
4571825 Off ch=3 n=33 v=0
4571903 On ch=3 n=13 v=100
4571903 On ch=3 n=33 v=100
4571943 Off ch=3 n=13 v=0
4571987 Off ch=3 n=33 v=0
4572563 On ch=3 n=18 v=100
4572588 On ch=3 n=30 v=100
4572685 Off ch=3 n=18 v=0
4572751 On ch=3 n=10 v=100
4572845 Off ch=3 n=30 v=0
4572882 Off ch=3 n=10 v=0
4573038 On ch=3 n=4 v=100
4573453 On ch=3 n=2 v=100
4573457 Off ch=3 n=4 v=0
4574047 Off ch=3 n=2 v=0
4574216 On ch=3 n=3 v=100
4574591 Off ch=3 n=3 v=0
4574595 On ch=3 n=4 v=100
4575544 Off ch=3 n=4 v=0
4575546 On ch=3 n=5 v=100
4575658 Off ch=3 n=5 v=0
4575739 On ch=3 n=5 v=100
4577366 On ch=3 n=6 v=100
4577366 Off ch=3 n=5 v=0
4578069 On ch=3 n=21 v=100
4578069 On ch=3 n=17 v=100
4578106 Off ch=3 n=6 v=0
4578253 On ch=3 n=39 v=100
4578469 Off ch=3 n=17 v=0
4578529 Off ch=3 n=21 v=0
4578561 On ch=3 n=6 v=100
4578787 Off ch=3 n=39 v=0
4578920 On ch=3 n=12 v=100
4579070 Off ch=3 n=6 v=0
4579133 On ch=3 n=45 v=100
4579133 On ch=3 n=45 v=100
4579154 Off ch=3 n=12 v=0
4579160 On ch=3 n=30 v=100
4579160 On ch=3 n=30 v=100
4579172 On ch=3 n=16 v=100
4579363 Off ch=3 n=16 v=0
4579372 Off ch=3 n=45 v=0
4579372 Off ch=3 n=45 v=0
4579491 On ch=3 n=30 v=100
4579545 Off ch=3 n=30 v=0
4579545 Off ch=3 n=30 v=0
4579546 On ch=3 n=11 v=100
4579639 Off ch=3 n=30 v=0
4580414 Off ch=3 n=11 v=0
4581429 On ch=3 n=32 v=100
4581443 On ch=3 n=9 v=100
4581580 On ch=3 n=8 v=100
4581584 Off ch=3 n=9 v=0
4581590 Off ch=3 n=32 v=0
4581829 On ch=3 n=9 v=100
4581829 Off ch=3 n=8 v=0
4582647 Off ch=3 n=9 v=0
4582745 On ch=3 n=4 v=100
4583386 Off ch=3 n=4 v=0
4583393 On ch=3 n=4 v=100
4584172 Off ch=3 n=4 v=0
4585550 On ch=3 n=71 v=100
4586309 Off ch=3 n=71 v=0
4586693 On ch=3 n=21 v=100
4586821 Off ch=3 n=21 v=0
4587388 On ch=3 n=23 v=100
4587553 Off ch=3 n=23 v=0
4588413 On ch=3 n=11 v=100
4588943 Off ch=3 n=11 v=0
4589632 On ch=3 n=11 v=100
4589772 Off ch=3 n=11 v=0
4589854 On ch=3 n=5 v=100
4590312 Off ch=3 n=5 v=0
4590605 On ch=3 n=6 v=100
4590764 Off ch=3 n=6 v=0
4590800 On ch=3 n=6 v=100
4591106 Off ch=3 n=6 v=0
4591131 On ch=3 n=7 v=100
4592072 Off ch=3 n=7 v=0
4592134 On ch=3 n=59 v=100
4592134 On ch=3 n=59 v=100
4592446 On ch=3 n=23 v=100
4592446 On ch=3 n=23 v=100
4592462 On ch=3 n=10 v=100
4592654 Off ch=3 n=10 v=0
4592663 Off ch=3 n=59 v=0
4592663 Off ch=3 n=59 v=0
4592665 Off ch=3 n=23 v=0
4592665 Off ch=3 n=23 v=0
4592919 On ch=3 n=2 v=100
4595338 On ch=3 n=34 v=100
4595403 Off ch=3 n=2 v=0
4595427 Off ch=3 n=34 v=0
4595467 On ch=3 n=31 v=100
4595487 On ch=3 n=11 v=100
4595647 Off ch=3 n=31 v=0
4595830 Off ch=3 n=11 v=0
4595833 On ch=3 n=6 v=100
4595958 On ch=3 n=6 v=100
4595958 Off ch=3 n=6 v=0
4596215 Off ch=3 n=6 v=0
4596245 On ch=3 n=6 v=100
4596470 Off ch=3 n=6 v=0
4596541 On ch=3 n=6 v=100
4597965 Off ch=3 n=6 v=0
4597970 On ch=3 n=5 v=100
4599325 On ch=3 n=5 v=100
4599798 Off ch=3 n=5 v=0
4600228 Off ch=3 n=5 v=0
4600229 On ch=3 n=7 v=100
4600287 On ch=3 n=9 v=100
4600287 Off ch=3 n=7 v=0
4600575 Off ch=3 n=9 v=0
4600578 On ch=3 n=8 v=100
4600796 Off ch=3 n=8 v=0
4601193 On ch=3 n=9 v=100
4601806 On ch=3 n=16 v=100
4601815 Off ch=3 n=9 v=0
4602111 On ch=3 n=14 v=100
4602118 Off ch=3 n=16 v=0
4602289 On ch=3 n=12 v=100
4602294 Off ch=3 n=14 v=0
4602485 Off ch=3 n=12 v=0
4602505 On ch=3 n=18 v=100
4602724 Off ch=3 n=18 v=0
4602731 On ch=3 n=15 v=100
4602912 Off ch=3 n=15 v=0
4603108 On ch=3 n=10 v=100
4603445 On ch=3 n=7 v=100
4603447 Off ch=3 n=10 v=0
4603864 On ch=3 n=2 v=100
4603864 Off ch=3 n=7 v=0
4604764 Off ch=3 n=2 v=0
4604766 On ch=3 n=4 v=100
4604834 On ch=3 n=35 v=100
4604954 Off ch=3 n=4 v=0
4604956 On ch=3 n=9 v=100
4604975 Off ch=3 n=35 v=0
4605106 Off ch=3 n=9 v=0
4605296 On ch=3 n=6 v=100
4606030 Off ch=3 n=6 v=0
4607561 On ch=3 n=70 v=100
4608338 Off ch=3 n=70 v=0
4608722 On ch=3 n=18 v=100
4608834 Off ch=3 n=18 v=0
4609363 On ch=3 n=20 v=100
4609727 Off ch=3 n=20 v=0
4610624 On ch=3 n=8 v=100
4610784 Off ch=3 n=8 v=0
4610787 On ch=3 n=9 v=100
4611120 Off ch=3 n=9 v=0
4612995 On ch=3 n=32 v=100
4613070 On ch=3 n=4 v=100
4613095 Off ch=3 n=32 v=0
4613323 Off ch=3 n=4 v=0
4613485 On ch=3 n=6 v=100
4613874 Off ch=3 n=6 v=0
4616275 On ch=3 n=9 v=100
4616411 Off ch=3 n=9 v=0
4616468 On ch=3 n=22 v=100
4616635 On ch=3 n=10 v=100
4616638 Off ch=3 n=22 v=0
4616946 Off ch=3 n=10 v=0
4617987 On ch=3 n=7 v=100
4618122 Off ch=3 n=7 v=0
4618171 On ch=3 n=7 v=100
4618641 Off ch=3 n=7 v=0
4618764 On ch=3 n=13 v=100
4619233 On ch=3 n=32 v=100
4619311 Off ch=3 n=13 v=0
4619311 Off ch=3 n=32 v=0
4619371 On ch=3 n=13 v=100
4619371 On ch=3 n=32 v=100
4619411 Off ch=3 n=13 v=0
4619455 Off ch=3 n=32 v=0
4620032 On ch=3 n=18 v=100
4620033 On ch=3 n=28 v=100
4620057 On ch=3 n=30 v=100
4620154 Off ch=3 n=18 v=0
4620184 Off ch=3 n=28 v=0
4620220 On ch=3 n=11 v=100
4620314 Off ch=3 n=30 v=0
4620351 Off ch=3 n=11 v=0
4620507 On ch=3 n=4 v=100
4620922 On ch=3 n=2 v=100
4620926 Off ch=3 n=4 v=0
4621515 Off ch=3 n=2 v=0
4622189 On ch=3 n=4 v=100
4622884 On ch=3 n=5 v=100
4622885 Off ch=3 n=4 v=0
4623200 On ch=3 n=4 v=100
4623200 Off ch=3 n=5 v=0
4623329 Off ch=3 n=4 v=0
4623719 On ch=3 n=4 v=100
4624007 Off ch=3 n=4 v=0
4624281 On ch=3 n=3 v=100
4624800 On ch=3 n=2 v=100
4624805 Off ch=3 n=3 v=0
4626507 Off ch=3 n=2 v=0
4626647 On ch=3 n=4 v=100
4627116 Off ch=3 n=4 v=0
4628049 On ch=3 n=33 v=100
4628063 On ch=3 n=11 v=100
4628199 On ch=3 n=8 v=100
4628205 Off ch=3 n=11 v=0
4628210 Off ch=3 n=33 v=0
4628449 Off ch=3 n=8 v=0
4628450 On ch=3 n=9 v=100
4629264 Off ch=3 n=9 v=0
4629362 On ch=3 n=4 v=100
4630009 Off ch=3 n=4 v=0
4630016 On ch=3 n=3 v=100
4630462 Off ch=3 n=3 v=0
4630469 On ch=3 n=3 v=100
4631282 On ch=3 n=46 v=100
4631295 On ch=3 n=4 v=100
4631307 Off ch=3 n=3 v=0
4631343 On ch=3 n=16 v=100
4631346 Off ch=3 n=46 v=0
4631364 On ch=3 n=2 v=100
4631366 Off ch=3 n=4 v=0
4631425 Off ch=3 n=16 v=0
4631692 On ch=3 n=5 v=100
4631695 Off ch=3 n=2 v=0
4632158 Off ch=3 n=5 v=0
4633543 On ch=3 n=71 v=100
4634302 Off ch=3 n=71 v=0
4634686 On ch=3 n=19 v=100
4634823 Off ch=3 n=19 v=0
4635332 On ch=3 n=22 v=100
4635695 Off ch=3 n=22 v=0
4636566 On ch=3 n=6 v=100
4636709 Off ch=3 n=6 v=0
4642778 On ch=3 n=9 v=100
4643128 Off ch=3 n=9 v=0
4643825 On ch=3 n=13 v=100
4644366 Off ch=3 n=13 v=0
4644406 On ch=3 n=7 v=100
4644976 On ch=3 n=61 v=100
4645035 On ch=3 n=10 v=100
4645046 Off ch=3 n=7 v=0
4645250 Off ch=3 n=61 v=0
4647538 On ch=3 n=5 v=100
4647538 Off ch=3 n=10 v=0
4648125 Off ch=3 n=5 v=0
4648174 On ch=3 n=5 v=100
4650040 On ch=3 n=37 v=100
4650095 Off ch=3 n=5 v=0
4650097 On ch=3 n=8 v=100
4650105 Off ch=3 n=37 v=0
4650407 Off ch=3 n=8 v=0
4650524 On ch=3 n=11 v=100
4652572 Off ch=3 n=11 v=0
4652597 On ch=3 n=21 v=100
4652713 Off ch=3 n=21 v=0
4658294 On ch=3 n=10 v=100
4659147 Off ch=3 n=10 v=0
4659216 On ch=3 n=13 v=100
4659995 On ch=3 n=4 v=100
4659995 Off ch=3 n=13 v=0
4660019 On ch=3 n=29 v=100
4660068 Off ch=3 n=4 v=0
4660077 Off ch=3 n=29 v=0
4660771 On ch=3 n=33 v=100
4660788 On ch=3 n=5 v=100
4660871 Off ch=3 n=33 v=0
4661123 Off ch=3 n=5 v=0
4661133 On ch=3 n=11 v=100
4661377 On ch=3 n=39 v=100
4661379 Off ch=3 n=11 v=0
4661492 On ch=3 n=1 v=100
4661503 Off ch=3 n=39 v=0
4663883 Off ch=3 n=1 v=0
4664951 On ch=3 n=23 v=100
4664951 On ch=3 n=7 v=100
4664995 Off ch=3 n=7 v=0
4665040 Off ch=3 n=23 v=0
4665050 On ch=3 n=10 v=100
4665320 On ch=3 n=12 v=100
4665462 Off ch=3 n=10 v=0
4665479 Off ch=3 n=12 v=0
4665489 On ch=3 n=19 v=100
4665703 Off ch=3 n=19 v=0
4665710 On ch=3 n=12 v=100
4666012 Off ch=3 n=12 v=0
4666015 On ch=3 n=4 v=100
4666703 Off ch=3 n=4 v=0
4666706 On ch=3 n=4 v=100
4666967 Off ch=3 n=4 v=0
4666969 On ch=3 n=3 v=100
4666999 Off ch=3 n=3 v=0
4667354 On ch=3 n=10 v=100
4668536 Off ch=3 n=10 v=0
4669418 On ch=3 n=2 v=100
4670169 Off ch=3 n=2 v=0
4671170 On ch=3 n=72 v=100
4671864 Off ch=3 n=72 v=0
4672248 On ch=3 n=18 v=100
4672359 Off ch=3 n=18 v=0
4672895 On ch=3 n=21 v=100
4673254 Off ch=3 n=21 v=0
4674127 On ch=3 n=11 v=100
4674652 Off ch=3 n=11 v=0
4675344 On ch=3 n=9 v=100
4675484 Off ch=3 n=9 v=0
4675585 On ch=3 n=13 v=100
4675886 Off ch=3 n=13 v=0
4675926 On ch=3 n=8 v=100
4676863 Off ch=3 n=8 v=0
4676942 On ch=3 n=12 v=100
4677011 Off ch=3 n=12 v=0
4677014 On ch=3 n=12 v=100
4677764 On ch=3 n=5 v=100
4677764 Off ch=3 n=12 v=0
4677779 On ch=3 n=37 v=100
4677837 Off ch=3 n=5 v=0
4677846 Off ch=3 n=37 v=0
4679400 On ch=3 n=13 v=100
4679747 Off ch=3 n=13 v=0
4679750 On ch=3 n=5 v=100
4679870 On ch=3 n=7 v=100
4679873 Off ch=3 n=5 v=0
4680034 Off ch=3 n=7 v=0
4680040 On ch=3 n=9 v=100
4680255 Off ch=3 n=9 v=0
4680603 On ch=3 n=19 v=100
4680626 On ch=3 n=8 v=100
4680732 Off ch=3 n=19 v=0
4680931 Off ch=3 n=8 v=0
4680932 On ch=3 n=3 v=100
4683555 Off ch=3 n=3 v=0
4683577 On ch=3 n=6 v=100
4683858 Off ch=3 n=6 v=0
4684518 On ch=3 n=19 v=100
4684563 Off ch=3 n=19 v=0
4684599 On ch=3 n=5 v=100
4684832 Off ch=3 n=5 v=0
4685133 On ch=3 n=18 v=100
4685177 On ch=3 n=4 v=100
4685181 Off ch=3 n=18 v=0
4685589 Off ch=3 n=4 v=0
4685599 On ch=3 n=9 v=100
4685829 Off ch=3 n=9 v=0
4687556 On ch=3 n=23 v=100
4687556 On ch=3 n=7 v=100
4687600 Off ch=3 n=7 v=0
4687645 Off ch=3 n=23 v=0
4687655 On ch=3 n=14 v=100
4687871 On ch=3 n=10 v=100
4687877 Off ch=3 n=14 v=0
4688048 On ch=3 n=11 v=100
4688053 Off ch=3 n=10 v=0
4688242 Off ch=3 n=11 v=0
4688261 On ch=3 n=18 v=100
4688481 Off ch=3 n=18 v=0
4688488 On ch=3 n=16 v=100
4688669 Off ch=3 n=16 v=0
4688810 On ch=3 n=46 v=100
4688883 On ch=3 n=13 v=100
4688963 Off ch=3 n=46 v=0
4689074 Off ch=3 n=13 v=0
4689107 On ch=3 n=40 v=100
4689128 On ch=3 n=12 v=100
4689221 Off ch=3 n=40 v=0
4689573 On ch=3 n=1 v=100
4689574 Off ch=3 n=12 v=0
4690002 Off ch=3 n=1 v=0
4690003 On ch=3 n=8 v=100
4690395 On ch=3 n=9 v=100
4690396 Off ch=3 n=8 v=0
4691205 Off ch=3 n=9 v=0
4692855 On ch=3 n=70 v=100
4693616 Off ch=3 n=70 v=0
4694000 On ch=3 n=18 v=100
4694109 Off ch=3 n=18 v=0
4694651 On ch=3 n=23 v=100
4695016 Off ch=3 n=23 v=0
4695862 On ch=3 n=10 v=100
4696367 Off ch=3 n=10 v=0
4697060 On ch=3 n=13 v=100
4697599 Off ch=3 n=13 v=0
4697639 On ch=3 n=7 v=100
4698552 Off ch=3 n=7 v=0
4698629 On ch=3 n=15 v=100
4698668 On ch=3 n=21 v=100
4698699 Off ch=3 n=15 v=0
4698855 Off ch=3 n=21 v=0
4698857 On ch=3 n=10 v=100
4698927 On ch=3 n=4 v=100
4698927 Off ch=3 n=10 v=0
4699990 On ch=3 n=8 v=100
4699990 Off ch=3 n=4 v=0
4700949 Off ch=3 n=8 v=0
4700967 On ch=3 n=8 v=100
4701123 On ch=3 n=27 v=100
4701189 On ch=3 n=7 v=100
4701195 Off ch=3 n=8 v=0
4701205 Off ch=3 n=27 v=0
4701697 Off ch=3 n=7 v=0
4701708 On ch=3 n=3 v=100
4701909 On ch=3 n=8 v=100
4701913 Off ch=3 n=3 v=0
4702459 Off ch=3 n=8 v=0
4702494 On ch=3 n=8 v=100
4702884 Off ch=3 n=8 v=0
4702885 On ch=3 n=13 v=100
4703363 Off ch=3 n=13 v=0
4703676 On ch=3 n=14 v=100
4703942 On ch=3 n=13 v=100
4704208 Off ch=3 n=14 v=0
4704505 Off ch=3 n=13 v=0
4705977 On ch=3 n=10 v=100
4706314 Off ch=3 n=10 v=0
4706317 On ch=3 n=5 v=100
4706490 On ch=3 n=12 v=100
4706490 Off ch=3 n=5 v=0
4706721 Off ch=3 n=12 v=0
4706726 On ch=3 n=9 v=100
4706941 Off ch=3 n=9 v=0
4707077 On ch=3 n=4 v=100
4707552 Off ch=3 n=4 v=0
4707806 On ch=3 n=21 v=100
4707829 On ch=3 n=8 v=100
4707959 Off ch=3 n=21 v=0
4708432 Off ch=3 n=8 v=0
4709320 On ch=3 n=5 v=100
4709959 Off ch=3 n=5 v=0
4710118 On ch=3 n=10 v=100
4710255 On ch=3 n=22 v=100
4710339 Off ch=3 n=10 v=0
4710361 Off ch=3 n=22 v=0
4710375 On ch=3 n=5 v=100
4710609 Off ch=3 n=5 v=0
4710851 On ch=3 n=12 v=100
4710980 On ch=3 n=4 v=100
4710984 Off ch=3 n=12 v=0
4711394 Off ch=3 n=4 v=0
4711404 On ch=3 n=10 v=100
4711642 Off ch=3 n=10 v=0
4712862 On ch=3 n=9 v=100
4712862 On ch=3 n=23 v=100
4712905 Off ch=3 n=9 v=0
4712950 Off ch=3 n=23 v=0
4712960 On ch=3 n=11 v=100
4713374 Off ch=3 n=11 v=0
4713398 On ch=3 n=22 v=100
4713573 Off ch=3 n=22 v=0
4713580 On ch=3 n=10 v=100
4713621 Off ch=3 n=10 v=0
4714043 On ch=3 n=8 v=100
4714274 Off ch=3 n=8 v=0
4714469 On ch=3 n=49 v=100
4714525 On ch=3 n=17 v=100
4714558 Off ch=3 n=49 v=0
4714565 Off ch=3 n=17 v=0
4714596 On ch=3 n=14 v=100
4714884 Off ch=3 n=14 v=0
4717013 On ch=3 n=9 v=100
4717067 Off ch=3 n=9 v=0
4717410 On ch=3 n=10 v=100
4718665 Off ch=3 n=10 v=0
4719187 On ch=3 n=39 v=100
4719207 On ch=3 n=35 v=100
4719230 On ch=3 n=30 v=100
4719284 On ch=3 n=17 v=100
4719300 On ch=3 n=32 v=100
4719329 Off ch=3 n=39 v=0
4719331 Off ch=3 n=35 v=0
4719378 Off ch=3 n=30 v=0
4719404 Off ch=3 n=17 v=0
4719436 Off ch=3 n=32 v=0
4720300 On ch=3 n=70 v=100
4721059 Off ch=3 n=70 v=0
4721294 On ch=3 n=53 v=100
4721368 Off ch=3 n=53 v=0
4721444 On ch=3 n=19 v=100
4721553 Off ch=3 n=19 v=0
4722069 On ch=3 n=21 v=100
4722429 Off ch=3 n=21 v=0
4723254 On ch=3 n=6 v=100
4723570 Off ch=3 n=6 v=0
4723618 On ch=3 n=10 v=100
4724129 Off ch=3 n=10 v=0
4724810 On ch=3 n=13 v=100
4725351 Off ch=3 n=13 v=0
4725391 On ch=3 n=8 v=100
4726331 Off ch=3 n=8 v=0
4726424 On ch=3 n=12 v=100
4726465 On ch=3 n=34 v=100
4726493 Off ch=3 n=12 v=0
4726561 Off ch=3 n=34 v=0
4727099 On ch=3 n=11 v=100
4727417 Off ch=3 n=11 v=0
4733106 On ch=3 n=13 v=100
4733903 On ch=3 n=1 v=100
4733905 Off ch=3 n=13 v=0
4733918 On ch=3 n=27 v=100
4733966 Off ch=3 n=1 v=0
4733975 Off ch=3 n=27 v=0
4735924 On ch=3 n=4 v=100
4738073 Off ch=3 n=4 v=0
4738091 On ch=3 n=3 v=100
4738335 Off ch=3 n=3 v=0
4739085 On ch=3 n=2 v=100
4742929 Off ch=3 n=2 v=0
4747582 On ch=3 n=10 v=100
4747924 Off ch=3 n=10 v=0
4747927 On ch=3 n=5 v=100
4748118 Off ch=3 n=5 v=0
4748122 On ch=3 n=9 v=100
4748412 Off ch=3 n=9 v=0
4748418 On ch=3 n=10 v=100
4748633 Off ch=3 n=10 v=0
4749011 On ch=3 n=18 v=100
4749035 On ch=3 n=7 v=100
4749169 Off ch=3 n=18 v=0
4749650 On ch=3 n=20 v=100
4749650 On ch=3 n=20 v=100
4749658 Off ch=3 n=7 v=0
4749704 Off ch=3 n=20 v=0
4749742 Off ch=3 n=20 v=0
4755889 On ch=3 n=16 v=100
4756081 On ch=3 n=10 v=100
4756088 Off ch=3 n=16 v=0
4756243 On ch=3 n=11 v=100
4756261 Off ch=3 n=10 v=0
4756440 Off ch=3 n=11 v=0
4756459 On ch=3 n=22 v=100
4756677 Off ch=3 n=22 v=0
4756684 On ch=3 n=15 v=100
4756865 Off ch=3 n=15 v=0
4757085 On ch=3 n=9 v=100
4758306 Off ch=3 n=9 v=0
4758947 On ch=3 n=46 v=100
4758947 On ch=3 n=46 v=100
4758995 On ch=3 n=28 v=100
4759097 Off ch=3 n=46 v=0
4759097 Off ch=3 n=46 v=0
4759114 Off ch=3 n=28 v=0
4759926 On ch=3 n=73 v=100
4760839 Off ch=3 n=73 v=0
4761223 On ch=3 n=26 v=100
4761361 Off ch=3 n=26 v=0
4761876 On ch=3 n=22 v=100
4762222 Off ch=3 n=22 v=0
4763600 On ch=3 n=9 v=100
4763773 Off ch=3 n=9 v=0
4763775 On ch=3 n=10 v=100
4764114 Off ch=3 n=10 v=0
4764808 On ch=3 n=12 v=100
4765351 Off ch=3 n=12 v=0
4765391 On ch=3 n=8 v=100
4765874 Off ch=3 n=8 v=0
4765992 On ch=3 n=8 v=100
4766455 Off ch=3 n=8 v=0
4766578 On ch=3 n=16 v=100
4766856 On ch=3 n=32 v=100
4767116 Off ch=3 n=16 v=0
4767116 Off ch=3 n=32 v=0
4767229 On ch=3 n=16 v=100
4767229 On ch=3 n=32 v=100
4767327 Off ch=3 n=16 v=0
4767376 Off ch=3 n=32 v=0
4767517 On ch=3 n=58 v=100
4767703 Off ch=3 n=58 v=0
4767896 On ch=3 n=9 v=100
4768351 On ch=3 n=12 v=100
4768357 Off ch=3 n=9 v=0
4768996 Off ch=3 n=12 v=0
4769350 On ch=3 n=33 v=100
4769350 On ch=3 n=33 v=100
4769458 On ch=3 n=17 v=100
4769709 Off ch=3 n=17 v=0
4769745 Off ch=3 n=33 v=0
4769745 Off ch=3 n=33 v=0
4771229 On ch=3 n=21 v=100
4771261 On ch=3 n=27 v=100
4771351 Off ch=3 n=21 v=0
4771366 On ch=3 n=10 v=100
4771461 Off ch=3 n=27 v=0
4771499 Off ch=3 n=10 v=0
4771542 On ch=3 n=43 v=100
4771711 Off ch=3 n=43 v=0
4772524 On ch=3 n=2 v=100
4773915 Off ch=3 n=2 v=0
4774400 On ch=3 n=29 v=100
4774413 On ch=3 n=7 v=100
4774542 On ch=3 n=9 v=100
4774548 Off ch=3 n=7 v=0
4774553 Off ch=3 n=29 v=0
4774804 Off ch=3 n=9 v=0
4774805 On ch=3 n=8 v=100
4775638 Off ch=3 n=8 v=0
4775699 On ch=3 n=5 v=100
4776037 On ch=3 n=6 v=100
4776042 Off ch=3 n=5 v=0
4776086 Off ch=3 n=6 v=0
4776089 On ch=3 n=7 v=100
4777564 Off ch=3 n=7 v=0
4777583 On ch=3 n=2 v=100
4778736 Off ch=3 n=2 v=0
4778737 On ch=3 n=4 v=100
4779653 Off ch=3 n=4 v=0
4780270 On ch=3 n=19 v=100
4780343 Off ch=3 n=19 v=0
4781607 On ch=3 n=72 v=100
4782301 Off ch=3 n=72 v=0
4782685 On ch=3 n=19 v=100
4782796 Off ch=3 n=19 v=0
4783331 On ch=3 n=23 v=100
4783686 Off ch=3 n=23 v=0
4784937 On ch=3 n=7 v=100
4785111 Off ch=3 n=7 v=0
4785113 On ch=3 n=10 v=100
4785475 Off ch=3 n=10 v=0
4789511 On ch=3 n=24 v=100
4789600 Off ch=3 n=24 v=0
4789838 On ch=3 n=9 v=100
4789975 Off ch=3 n=9 v=0
4790048 On ch=3 n=18 v=100
4790374 Off ch=3 n=18 v=0
4790402 On ch=3 n=40 v=100
4790414 On ch=3 n=8 v=100
4790474 Off ch=3 n=40 v=0
4790608 Off ch=3 n=8 v=0
4790736 On ch=3 n=8 v=100
4791449 Off ch=3 n=8 v=0
4791573 On ch=3 n=10 v=100
4792165 On ch=3 n=11 v=100
4792192 Off ch=3 n=10 v=0
4792210 Off ch=3 n=11 v=0
4792236 On ch=3 n=13 v=100
4792281 On ch=3 n=35 v=100
4792299 Off ch=3 n=13 v=0
4792301 On ch=3 n=2 v=100
4792360 Off ch=3 n=35 v=0
4792735 On ch=3 n=5 v=100
4792736 Off ch=3 n=2 v=0
4792940 On ch=3 n=32 v=100
4792966 On ch=3 n=4 v=100
4792970 Off ch=3 n=5 v=0
4792977 Off ch=3 n=32 v=0
4793324 On ch=3 n=30 v=100
4793398 On ch=3 n=19 v=100
4793424 Off ch=3 n=4 v=0
4793687 Off ch=3 n=30 v=0
4793689 On ch=3 n=23 v=100
4793689 On ch=3 n=23 v=100
4793763 On ch=3 n=9 v=100
4793779 On ch=3 n=16 v=100
4794041 On ch=3 n=8 v=100
4794044 Off ch=3 n=19 v=0
4794078 Off ch=3 n=9 v=0
4794125 Off ch=3 n=16 v=0
4794147 Off ch=3 n=23 v=0
4794147 Off ch=3 n=23 v=0
4794208 Off ch=3 n=8 v=0
4796033 On ch=3 n=73 v=100
4796792 Off ch=3 n=73 v=0
4797176 On ch=3 n=20 v=100
4797314 Off ch=3 n=20 v=0
4797820 On ch=3 n=22 v=100
4798180 Off ch=3 n=22 v=0
4799050 On ch=3 n=13 v=100
4799566 Off ch=3 n=13 v=0
4802952 On ch=3 n=10 v=100
4803107 Off ch=3 n=10 v=0
4803110 On ch=3 n=8 v=100
4803995 Off ch=3 n=8 v=0
4804016 On ch=3 n=50 v=100
4804021 On ch=3 n=8 v=100
4804218 Off ch=3 n=8 v=0
4804267 Off ch=3 n=50 v=0
4805921 On ch=3 n=14 v=100
4805971 Off ch=3 n=14 v=0
4806005 On ch=3 n=8 v=100
4806163 Off ch=3 n=8 v=0
4806164 On ch=3 n=1 v=100
4806860 Off ch=3 n=1 v=0
4806903 On ch=3 n=1 v=100
4807043 On ch=3 n=21 v=100
4807056 Off ch=3 n=1 v=0
4807069 On ch=3 n=15 v=100
4807080 On ch=3 n=26 v=100
4807213 Off ch=3 n=21 v=0
4807222 Off ch=3 n=15 v=0
4807227 On ch=3 n=11 v=100
4807279 Off ch=3 n=26 v=0
4807410 Off ch=3 n=11 v=0
4807429 On ch=3 n=13 v=100
4807649 On ch=3 n=24 v=100
4807667 On ch=3 n=14 v=100
4807668 On ch=3 n=8 v=100
4807677 Off ch=3 n=13 v=0
4807783 Off ch=3 n=24 v=0
4807856 On ch=3 n=11 v=100
4807867 Off ch=3 n=8 v=0
4807906 Off ch=3 n=14 v=0
4808761 Off ch=3 n=11 v=0
4808974 On ch=3 n=15 v=100
4809158 Off ch=3 n=15 v=0
4809173 On ch=3 n=18 v=100
4809211 On ch=3 n=33 v=100
4809320 On ch=3 n=36 v=100
4809320 On ch=3 n=36 v=100
4809345 Off ch=3 n=18 v=0
4809387 On ch=3 n=19 v=100
4809479 On ch=3 n=51 v=100
4809567 Off ch=3 n=33 v=0
4809567 Off ch=3 n=19 v=0
4809608 Off ch=3 n=36 v=0
4809608 Off ch=3 n=36 v=0
4809819 Off ch=3 n=51 v=0
4810053 On ch=3 n=32 v=100
4810162 On ch=3 n=32 v=100
4810170 On ch=3 n=21 v=100
4810439 Off ch=3 n=21 v=0
4810445 Off ch=3 n=32 v=0
4810494 Off ch=3 n=32 v=0
4810707 On ch=3 n=30 v=100
4810859 Off ch=3 n=30 v=0
4810875 On ch=3 n=7 v=100
4810918 On ch=3 n=22 v=100
4810933 Off ch=3 n=7 v=0
4810963 On ch=3 n=8 v=100
4811163 Off ch=3 n=8 v=0
4811165 On ch=3 n=10 v=100
4811173 Off ch=3 n=22 v=0
4811381 Off ch=3 n=10 v=0
4811382 On ch=3 n=9 v=100
4813027 On ch=3 n=20 v=100
4813032 Off ch=3 n=9 v=0
4813034 On ch=3 n=11 v=100
4813086 Off ch=3 n=20 v=0
4813910 Off ch=3 n=11 v=0
4815036 On ch=3 n=15 v=100
4815036 On ch=3 n=21 v=100
4815352 Off ch=3 n=15 v=0
4815408 On ch=3 n=49 v=100
4815467 Off ch=3 n=21 v=0
4815604 Off ch=3 n=49 v=0
4815724 On ch=3 n=9 v=100
4816758 Off ch=3 n=9 v=0
4817768 On ch=3 n=17 v=100
4818054 Off ch=3 n=17 v=0
4818057 On ch=3 n=16 v=100
4818112 Off ch=3 n=16 v=0
4818299 On ch=3 n=42 v=100
4818321 On ch=3 n=23 v=100
4818370 On ch=3 n=16 v=100
4818377 On ch=3 n=24 v=100
4818447 Off ch=3 n=42 v=0
4818452 Off ch=3 n=23 v=0
4818457 On ch=3 n=13 v=100
4818530 On ch=3 n=38 v=100
4818585 Off ch=3 n=16 v=0
4818614 Off ch=3 n=24 v=0
4818644 Off ch=3 n=13 v=0
4819151 Off ch=3 n=38 v=0
4821232 On ch=3 n=15 v=100
4821713 On ch=3 n=35 v=100
4821713 On ch=3 n=35 v=100
4821760 Off ch=3 n=15 v=0
4821931 On ch=3 n=16 v=100
4821972 On ch=3 n=36 v=100
4821973 On ch=3 n=15 v=100
4822250 Off ch=3 n=15 v=0
4822254 Off ch=3 n=16 v=0
4822274 Off ch=3 n=35 v=0
4822274 Off ch=3 n=35 v=0
4822355 On ch=3 n=28 v=100
4822581 Off ch=3 n=36 v=0
4822773 Off ch=3 n=28 v=0
4823745 On ch=3 n=7 v=100
4824766 Off ch=3 n=7 v=0
4824949 On ch=3 n=34 v=100
4825078 Off ch=3 n=34 v=0
4825360 On ch=3 n=8 v=100
4825485 On ch=3 n=6 v=100
4825488 Off ch=3 n=8 v=0
4826324 On ch=3 n=8 v=100
4826326 Off ch=3 n=6 v=0
4826695 On ch=3 n=36 v=100
4826765 Off ch=3 n=8 v=0
4826774 On ch=3 n=8 v=100
4826781 Off ch=3 n=36 v=0
4828030 On ch=3 n=31 v=100
4828039 On ch=3 n=16 v=100
4828052 Off ch=3 n=8 v=0
4828079 Off ch=3 n=31 v=0
4828522 On ch=3 n=49 v=100
4828537 On ch=3 n=10 v=100
4828557 Off ch=3 n=16 v=0
4828603 Off ch=3 n=49 v=0
4828617 Off ch=3 n=10 v=0
4828631 On ch=3 n=9 v=100
4829083 On ch=3 n=8 v=100
4829090 Off ch=3 n=9 v=0
4829534 Off ch=3 n=8 v=0
4830993 On ch=3 n=6 v=100
4831302 On ch=3 n=7 v=100
4831307 Off ch=3 n=6 v=0
4831619 Off ch=3 n=7 v=0
4831632 On ch=3 n=14 v=100
4831724 On ch=3 n=15 v=100
4831735 Off ch=3 n=14 v=0
4832167 On ch=3 n=16 v=100
4832196 Off ch=3 n=15 v=0
4832452 Off ch=3 n=16 v=0
4832475 On ch=3 n=36 v=100
4832491 On ch=3 n=35 v=100
4832491 On ch=3 n=36 v=100
4832601 Off ch=3 n=36 v=0
4832616 Off ch=3 n=35 v=0
4832695 Off ch=3 n=36 v=0
4833871 On ch=3 n=4 v=100
4836824 Off ch=3 n=4 v=0
4836827 On ch=3 n=30 v=100
4837093 Off ch=3 n=30 v=0
4837588 On ch=3 n=24 v=100
4837802 On ch=3 n=13 v=100
4837844 Off ch=3 n=24 v=0
4838340 Off ch=3 n=13 v=0
4838827 On ch=3 n=24 v=100
4839058 Off ch=3 n=24 v=0
4839128 On ch=3 n=31 v=100
4839128 On ch=3 n=31 v=100
4839336 Off ch=3 n=31 v=0
4839336 Off ch=3 n=31 v=0
4840627 On ch=3 n=26 v=100
4840627 On ch=3 n=27 v=100
4840679 On ch=3 n=41 v=100
4840849 Off ch=3 n=26 v=0
4840869 On ch=3 n=15 v=100
4840909 Off ch=3 n=27 v=0
4840945 Off ch=3 n=41 v=0
4840963 On ch=3 n=23 v=100
4841326 Off ch=3 n=15 v=0
4841402 Off ch=3 n=23 v=0
4846229 On ch=3 n=36 v=100
4846292 On ch=3 n=8 v=100
4846354 Off ch=3 n=36 v=0
4846354 Off ch=3 n=8 v=0
4846357 On ch=3 n=21 v=100
4846357 On ch=3 n=13 v=100
4846796 Off ch=3 n=13 v=0
4847000 Off ch=3 n=21 v=0
4847006 On ch=3 n=29 v=100
4847017 On ch=3 n=35 v=100
4847081 On ch=3 n=43 v=100
4847248 Off ch=3 n=29 v=0
4847277 Off ch=3 n=35 v=0
4847287 Off ch=3 n=43 v=0
4847777 On ch=3 n=11 v=100
4847858 On ch=3 n=48 v=100
4847899 On ch=3 n=5 v=100
4847902 Off ch=3 n=11 v=0
4848144 Off ch=3 n=48 v=0
4848187 On ch=3 n=10 v=100
4848187 Off ch=3 n=5 v=0
4848467 Off ch=3 n=10 v=0
4848472 On ch=3 n=32 v=100
4848738 Off ch=3 n=32 v=0
4849250 On ch=3 n=17 v=100
4849315 On ch=3 n=37 v=100
4849315 On ch=3 n=37 v=100
4849389 On ch=3 n=24 v=100
4849571 Off ch=3 n=17 v=0
4849614 Off ch=3 n=24 v=0
4849656 Off ch=3 n=37 v=0
4849656 Off ch=3 n=37 v=0
4850819 On ch=3 n=44 v=100
4851100 Off ch=3 n=44 v=0
4851311 On ch=3 n=26 v=100
4851331 On ch=3 n=25 v=100
4851507 Off ch=3 n=25 v=0
4851508 Off ch=3 n=26 v=0
4852368 On ch=3 n=17 v=100
4853187 Off ch=3 n=17 v=0
4853499 On ch=3 n=10 v=100
4853725 Off ch=3 n=10 v=0
4853856 On ch=3 n=18 v=100
4853856 On ch=3 n=17 v=100
4853996 Off ch=3 n=17 v=0
4854016 Off ch=3 n=18 v=0
4854835 On ch=3 n=21 v=100
4854837 On ch=3 n=31 v=100
4854840 On ch=3 n=69 v=100
4854994 Off ch=3 n=21 v=0
4855013 Off ch=3 n=31 v=0
4855083 Off ch=3 n=69 v=0
4855102 On ch=3 n=34 v=100
4855212 On ch=3 n=11 v=100
4855223 Off ch=3 n=34 v=0
4855709 Off ch=3 n=11 v=0
4856083 On ch=3 n=43 v=100
4856091 On ch=3 n=29 v=100
4856226 Off ch=3 n=29 v=0
4856255 Off ch=3 n=43 v=0
4856335 On ch=3 n=23 v=100
4857075 Off ch=3 n=23 v=0
4857202 On ch=3 n=34 v=100
4857273 Off ch=3 n=34 v=0
4858020 On ch=3 n=61 v=100
4858021 On ch=3 n=27 v=100
4858052 On ch=3 n=27 v=100
4858072 On ch=3 n=10 v=100
4858251 Off ch=3 n=10 v=0
4858252 On ch=3 n=32 v=100
4858266 Off ch=3 n=27 v=0
4858322 Off ch=3 n=27 v=0
4858340 Off ch=3 n=61 v=0
4858368 On ch=3 n=26 v=100
4858379 Off ch=3 n=32 v=0
4858526 Off ch=3 n=26 v=0
4858550 On ch=3 n=10 v=100
4859154 Off ch=3 n=10 v=0
4859157 On ch=3 n=7 v=100
4859420 Off ch=3 n=7 v=0
4859426 On ch=3 n=9 v=100
4859772 Off ch=3 n=9 v=0
4859783 On ch=3 n=9 v=100
4860012 Off ch=3 n=9 v=0
4860013 On ch=3 n=14 v=100
4860369 Off ch=3 n=14 v=0
4860387 On ch=3 n=14 v=100
4860536 Off ch=3 n=14 v=0
4860539 On ch=3 n=7 v=100
4861220 On ch=3 n=10 v=100
4861222 Off ch=3 n=7 v=0
4861402 Off ch=3 n=10 v=0
4861404 On ch=3 n=23 v=100
4861589 Off ch=3 n=23 v=0
4862073 On ch=3 n=21 v=100
4862692 Off ch=3 n=21 v=0
4862700 On ch=3 n=29 v=100
4862813 On ch=3 n=33 v=100
4862813 On ch=3 n=33 v=100
4862827 Off ch=3 n=29 v=0
4862831 On ch=3 n=10 v=100
4862970 Off ch=3 n=10 v=0
4862975 On ch=3 n=28 v=100
4862997 Off ch=3 n=33 v=0
4862997 Off ch=3 n=33 v=0
4863476 On ch=3 n=6 v=100
4863484 Off ch=3 n=28 v=0
4864391 On ch=3 n=48 v=100
4864442 Off ch=3 n=6 v=0
4864444 On ch=3 n=33 v=100
4864450 On ch=3 n=10 v=100
4864492 Off ch=3 n=33 v=0
4864644 Off ch=3 n=48 v=0
4864709 Off ch=3 n=10 v=0
4864720 On ch=3 n=5 v=100
4864848 Off ch=3 n=5 v=0
4865281 On ch=3 n=24 v=100
4865437 Off ch=3 n=24 v=0
4867260 On ch=3 n=26 v=100
4867276 On ch=3 n=26 v=100
4867290 On ch=3 n=13 v=100
4867387 Off ch=3 n=26 v=0
4867387 Off ch=3 n=26 v=0
4867388 Off ch=3 n=13 v=0
4867394 On ch=3 n=17 v=100
4867520 On ch=3 n=23 v=100
4867648 Off ch=3 n=17 v=0
4867818 On ch=3 n=32 v=100
4867827 On ch=3 n=11 v=100
4868393 Off ch=3 n=23 v=0
4868393 Off ch=3 n=11 v=0
4868523 Off ch=3 n=32 v=0
4868569 On ch=3 n=24 v=100
4868600 On ch=3 n=20 v=100
4868660 On ch=3 n=25 v=100
4868858 Off ch=3 n=24 v=0
4868861 Off ch=3 n=20 v=0
4869056 Off ch=3 n=25 v=0
4869963 On ch=3 n=7 v=100
4869963 On ch=3 n=19 v=100
4870058 On ch=3 n=41 v=100
4870137 Off ch=3 n=7 v=0
4870188 On ch=3 n=10 v=100
4870214 Off ch=3 n=19 v=0
4870243 Off ch=3 n=41 v=0
4870667 Off ch=3 n=10 v=0
4870684 On ch=3 n=20 v=100
4870915 Off ch=3 n=20 v=0
4870975 On ch=3 n=20 v=100
4871111 Off ch=3 n=20 v=0
4872143 On ch=3 n=9 v=100
4872553 Off ch=3 n=9 v=0
4872621 On ch=3 n=12 v=100
4873310 On ch=3 n=12 v=100
4873310 On ch=3 n=26 v=100
4873311 Off ch=3 n=12 v=0
4873380 Off ch=3 n=12 v=0
4873382 On ch=3 n=10 v=100
4873410 Off ch=3 n=26 v=0
4873718 Off ch=3 n=10 v=0
4875175 On ch=3 n=14 v=100
4875589 Off ch=3 n=14 v=0
4875667 On ch=3 n=14 v=100
4875693 Off ch=3 n=14 v=0
4875718 On ch=3 n=10 v=100
4875745 On ch=3 n=13 v=100
4875757 Off ch=3 n=10 v=0
4876196 Off ch=3 n=13 v=0
4876210 On ch=3 n=6 v=100
4876807 On ch=3 n=19 v=100
4876833 Off ch=3 n=6 v=0
4876834 On ch=3 n=11 v=100
4876946 Off ch=3 n=19 v=0
4877350 Off ch=3 n=11 v=0
4878389 On ch=3 n=15 v=100
4878674 Off ch=3 n=15 v=0
4879615 On ch=3 n=28 v=100
4879672 On ch=3 n=13 v=100
4879719 On ch=3 n=10 v=100
4879728 On ch=3 n=20 v=100
4879890 Off ch=3 n=28 v=0
4880085 Off ch=3 n=13 v=0
4880087 Off ch=3 n=10 v=0
4880198 Off ch=3 n=20 v=0
4880204 On ch=3 n=8 v=100
4880612 Off ch=3 n=8 v=0
4881249 On ch=3 n=32 v=100
4881465 Off ch=3 n=32 v=0
4881480 On ch=3 n=17 v=100
4881662 Off ch=3 n=17 v=0
4882710 On ch=3 n=26 v=100
4882853 Off ch=3 n=26 v=0
4883792 On ch=3 n=17 v=100
4883870 On ch=3 n=10 v=100
4883875 Off ch=3 n=17 v=0
4884137 Off ch=3 n=10 v=0
4884199 On ch=3 n=24 v=100
4884454 Off ch=3 n=24 v=0
4884519 On ch=3 n=7 v=100
4885549 On ch=3 n=24 v=100
4885662 Off ch=3 n=7 v=0
4885684 Off ch=3 n=24 v=0
4885775 On ch=3 n=25 v=100
4885814 On ch=3 n=19 v=100
4885814 On ch=3 n=19 v=100
4885838 On ch=3 n=18 v=100
4885890 On ch=3 n=16 v=100
4885895 On ch=3 n=5 v=100
4885895 On ch=3 n=5 v=100
4885907 On ch=3 n=5 v=100
4885907 Off ch=3 n=25 v=0
4885972 Off ch=3 n=19 v=0
4885972 Off ch=3 n=19 v=0
4885983 Off ch=3 n=18 v=0
4885994 Off ch=3 n=5 v=0
4885994 Off ch=3 n=5 v=0
4886002 Off ch=3 n=16 v=0
4886171 On ch=3 n=11 v=100
4886171 On ch=3 n=25 v=100
4886437 Off ch=3 n=5 v=0
4886488 Off ch=3 n=11 v=0
4886670 Off ch=3 n=25 v=0
4887500 On ch=3 n=35 v=100
4887628 On ch=3 n=18 v=100
4887718 On ch=3 n=26 v=100
4887858 Off ch=3 n=35 v=0
4888050 Off ch=3 n=18 v=0
4888208 Off ch=3 n=26 v=0
4888709 On ch=3 n=8 v=100
4889806 On ch=3 n=21 v=100
4889886 Off ch=3 n=8 v=0
4889901 Off ch=3 n=21 v=0
4890003 On ch=3 n=27 v=100
4890004 On ch=3 n=27 v=100
4890005 On ch=3 n=48 v=100
4890097 Off ch=3 n=27 v=0
4890113 Off ch=3 n=27 v=0
4890191 Off ch=3 n=48 v=0
4890865 On ch=3 n=11 v=100
4891393 On ch=3 n=12 v=100
4891463 Off ch=3 n=11 v=0
4891473 Off ch=3 n=12 v=0
4891852 On ch=3 n=9 v=100
4893101 Off ch=3 n=9 v=0
4893881 On ch=3 n=33 v=100
4894100 Off ch=3 n=33 v=0
4894129 On ch=3 n=26 v=100
4894402 Off ch=3 n=26 v=0
4894626 On ch=3 n=8 v=100
4894906 Off ch=3 n=8 v=0
4895094 On ch=3 n=14 v=100
4895544 Off ch=3 n=14 v=0
4896150 On ch=3 n=12 v=100
4896751 Off ch=3 n=12 v=0
4900497 On ch=3 n=8 v=100
4900698 On ch=3 n=22 v=100
4900824 Off ch=3 n=8 v=0
4901018 Off ch=3 n=22 v=0
4901163 On ch=3 n=20 v=100
4901290 Off ch=3 n=20 v=0
4901322 On ch=3 n=10 v=100
4901667 Off ch=3 n=10 v=0
4901693 On ch=3 n=17 v=100
4901791 Off ch=3 n=17 v=0
4903309 On ch=3 n=19 v=100
4903447 On ch=3 n=16 v=100
4903447 On ch=3 n=16 v=100
4903495 On ch=3 n=14 v=100
4903847 Off ch=3 n=19 v=0
4903871 On ch=3 n=17 v=100
4903871 On ch=3 n=17 v=100
4903884 On ch=3 n=26 v=100
4903884 On ch=3 n=26 v=100
4903903 Off ch=3 n=14 v=0
4903905 On ch=3 n=20 v=100
4903905 On ch=3 n=20 v=100
4903911 Off ch=3 n=16 v=0
4903911 Off ch=3 n=16 v=0
4903974 Off ch=3 n=17 v=0
4903974 Off ch=3 n=17 v=0
4904319 Off ch=3 n=20 v=0
4904319 Off ch=3 n=20 v=0
4904365 Off ch=3 n=26 v=0
4904365 Off ch=3 n=26 v=0
4904414 On ch=3 n=9 v=100
4904901 Off ch=3 n=9 v=0
4904908 On ch=3 n=7 v=100
4905397 Off ch=3 n=7 v=0
4905631 On ch=3 n=17 v=100
4905834 On ch=3 n=30 v=100
4906045 Off ch=3 n=17 v=0
4906064 On ch=3 n=20 v=100
4906115 Off ch=3 n=30 v=0
4906406 Off ch=3 n=20 v=0
4907140 On ch=3 n=20 v=100
4907368 Off ch=3 n=20 v=0
4909635 On ch=3 n=25 v=100
4909635 On ch=3 n=25 v=100
4909695 On ch=3 n=28 v=100
4909695 On ch=3 n=28 v=100
4909712 On ch=3 n=20 v=100
4909965 Off ch=3 n=25 v=0
4909965 Off ch=3 n=20 v=0
4909965 Off ch=3 n=25 v=0
4910004 Off ch=3 n=28 v=0
4910004 Off ch=3 n=28 v=0
4910374 On ch=3 n=47 v=100
4910705 Off ch=3 n=47 v=0
4911151 On ch=3 n=27 v=100
4911151 On ch=3 n=27 v=100
4911230 On ch=3 n=26 v=100
4911257 On ch=3 n=21 v=100
4911258 On ch=3 n=53 v=100
4911322 Off ch=3 n=26 v=0
4911332 Off ch=3 n=21 v=0
4911342 On ch=3 n=16 v=100
4911342 On ch=3 n=11 v=100
4911389 Off ch=3 n=27 v=0
4911389 Off ch=3 n=27 v=0
4911421 Off ch=3 n=53 v=0
4911425 Off ch=3 n=11 v=0
4911448 Off ch=3 n=16 v=0
4911519 On ch=3 n=26 v=100
4912065 Off ch=3 n=26 v=0
4912282 On ch=3 n=8 v=100
4913020 Off ch=3 n=8 v=0
4913634 On ch=3 n=19 v=100
4913693 On ch=3 n=12 v=100
4913966 Off ch=3 n=19 v=0
4913981 Off ch=3 n=12 v=0
4914307 On ch=3 n=8 v=100
4914597 Off ch=3 n=8 v=0
4915538 On ch=3 n=24 v=100
4915845 Off ch=3 n=24 v=0
4916078 On ch=3 n=22 v=100
4916361 Off ch=3 n=22 v=0
4916378 On ch=3 n=11 v=100
4916662 On ch=3 n=41 v=100
4916713 On ch=3 n=25 v=100
4916715 Off ch=3 n=11 v=0
4916779 Off ch=3 n=41 v=0
4916901 On ch=3 n=30 v=100
4916935 Off ch=3 n=25 v=0
4916950 On ch=3 n=9 v=100
4917026 Off ch=3 n=30 v=0
4917027 Off ch=3 n=9 v=0
4917028 On ch=3 n=9 v=100
4917157 On ch=3 n=10 v=100
4917209 Off ch=3 n=9 v=0
4917218 Off ch=3 n=10 v=0
4917300 On ch=3 n=14 v=100
4917733 On ch=3 n=22 v=100
4917738 Off ch=3 n=14 v=0
4917875 Off ch=3 n=22 v=0
4918225 On ch=3 n=28 v=100
4918329 On ch=3 n=18 v=100
4918357 On ch=3 n=27 v=100
4918713 Off ch=3 n=18 v=0
4918717 Off ch=3 n=28 v=0
4918866 Off ch=3 n=27 v=0
4919718 On ch=3 n=11 v=100
4920491 Off ch=3 n=11 v=0
4921304 On ch=3 n=28 v=100
4921422 Off ch=3 n=28 v=0
4921959 On ch=3 n=9 v=100
4922401 Off ch=3 n=9 v=0
4922429 On ch=3 n=15 v=100
4922589 Off ch=3 n=15 v=0
4922749 On ch=3 n=21 v=100
4922963 On ch=3 n=24 v=100
4922969 On ch=3 n=19 v=100
4923041 On ch=3 n=23 v=100
4923348 Off ch=3 n=21 v=0
4923410 Off ch=3 n=19 v=0
4923462 Off ch=3 n=23 v=0
4923466 Off ch=3 n=24 v=0
4924266 On ch=3 n=10 v=100
4924305 Off ch=3 n=10 v=0
4924357 On ch=3 n=32 v=100
4924465 Off ch=3 n=32 v=0
4925495 On ch=3 n=15 v=100
4926258 Off ch=3 n=15 v=0
4926539 On ch=3 n=29 v=100
4926633 On ch=3 n=9 v=100
4927001 Off ch=3 n=29 v=0
4927001 Off ch=3 n=9 v=0
4927018 On ch=3 n=27 v=100
4927223 Off ch=3 n=27 v=0
4928399 On ch=3 n=5 v=100
4928527 Off ch=3 n=5 v=0
4928529 On ch=3 n=17 v=100
4928572 Off ch=3 n=17 v=0
4928579 On ch=3 n=27 v=100
4928587 On ch=3 n=8 v=100
4928636 Off ch=3 n=27 v=0
4928733 Off ch=3 n=8 v=0
4928784 On ch=3 n=18 v=100
4928972 Off ch=3 n=18 v=0
4929487 On ch=3 n=20 v=100
4929505 On ch=3 n=17 v=100
4929593 Off ch=3 n=17 v=0
4929594 Off ch=3 n=20 v=0
4929596 On ch=3 n=20 v=100
4929662 Off ch=3 n=20 v=0
4932952 On ch=3 n=36 v=100
4933017 On ch=3 n=39 v=100
4933057 On ch=3 n=26 v=100
4933058 On ch=3 n=40 v=100
4933061 Off ch=3 n=36 v=0
4933156 Off ch=3 n=26 v=0
4933164 Off ch=3 n=39 v=0
4933201 Off ch=3 n=40 v=0
4933534 On ch=3 n=7 v=100
4934610 Off ch=3 n=7 v=0
4934828 On ch=3 n=36 v=100
4934895 Off ch=3 n=36 v=0
4935116 On ch=3 n=2 v=100
4935149 On ch=3 n=7 v=100
4935151 Off ch=3 n=2 v=0
4935636 Off ch=3 n=7 v=0
4937952 On ch=3 n=24 v=100
4938143 Off ch=3 n=24 v=0
4938366 On ch=3 n=13 v=100
4938876 Off ch=3 n=13 v=0
4939402 On ch=3 n=15 v=100
4939573 Off ch=3 n=15 v=0
4945650 On ch=3 n=19 v=100
4945770 Off ch=3 n=19 v=0
4945783 On ch=3 n=7 v=100
4945965 Off ch=3 n=7 v=0
4946173 On ch=3 n=24 v=100
4946420 Off ch=3 n=24 v=0
4946490 On ch=3 n=11 v=100
4946575 Off ch=3 n=11 v=0
4946577 On ch=3 n=9 v=100
4946700 Off ch=3 n=9 v=0
4948696 On ch=3 n=22 v=100
4948764 Off ch=3 n=22 v=0
4948765 On ch=3 n=15 v=100
4948840 Off ch=3 n=15 v=0
4948844 On ch=3 n=10 v=100
4949520 Off ch=3 n=10 v=0
4949541 On ch=3 n=15 v=100
4949697 Off ch=3 n=15 v=0
4949703 On ch=3 n=23 v=100
4949805 Off ch=3 n=23 v=0
4949965 On ch=3 n=9 v=100
4950590 On ch=3 n=24 v=100
4950708 Off ch=3 n=9 v=0
4950735 Off ch=3 n=24 v=0
4952288 On ch=3 n=12 v=100
4952469 Off ch=3 n=12 v=0
4953042 On ch=3 n=8 v=100
4953414 Off ch=3 n=8 v=0
4954136 On ch=3 n=10 v=100
4954216 Off ch=3 n=10 v=0
4955103 On ch=3 n=11 v=100
4955122 On ch=3 n=32 v=100
4955170 Off ch=3 n=11 v=0
4955176 On ch=3 n=19 v=100
4955238 Off ch=3 n=32 v=0
4955238 Off ch=3 n=19 v=0
4955319 On ch=3 n=47 v=100
4955334 On ch=3 n=38 v=100
4955483 Off ch=3 n=38 v=0
4955486 On ch=3 n=17 v=100
4955486 Off ch=3 n=47 v=0
4955757 On ch=3 n=15 v=100
4955769 Off ch=3 n=17 v=0
4956247 On ch=3 n=21 v=100
4956256 Off ch=3 n=15 v=0
4956336 Off ch=3 n=21 v=0
4957675 On ch=3 n=25 v=100
4957806 Off ch=3 n=25 v=0
4959892 On ch=3 n=38 v=100
4959948 On ch=3 n=15 v=100
4959948 On ch=3 n=24 v=100
4960115 Off ch=3 n=38 v=0
4960259 Off ch=3 n=15 v=0
4960338 Off ch=3 n=24 v=0
4960447 On ch=3 n=18 v=100
4960632 On ch=3 n=24 v=100
4960633 Off ch=3 n=18 v=0
4960757 Off ch=3 n=24 v=0
4960840 On ch=3 n=16 v=100
4961210 On ch=3 n=14 v=100
4961258 Off ch=3 n=16 v=0
4961366 Off ch=3 n=14 v=0
4961369 On ch=3 n=11 v=100
4962273 Off ch=3 n=11 v=0
4963183 On ch=3 n=7 v=100
4963965 Off ch=3 n=7 v=0
4963971 On ch=3 n=4 v=100
4964014 Off ch=3 n=4 v=0
4964302 On ch=3 n=43 v=100
4964357 Off ch=3 n=43 v=0
4964432 On ch=3 n=43 v=100
4964432 On ch=3 n=7 v=100
4964461 Off ch=3 n=43 v=0
4964712 Off ch=3 n=7 v=0
4966811 On ch=3 n=18 v=100
4966853 Off ch=3 n=18 v=0
4967035 On ch=3 n=5 v=100
4967921 Off ch=3 n=5 v=0
4968435 On ch=3 n=8 v=100
4969624 Off ch=3 n=8 v=0
4969680 On ch=3 n=27 v=100
4969728 On ch=3 n=23 v=100
4969911 Off ch=3 n=27 v=0
4969943 Off ch=3 n=23 v=0
4970434 On ch=3 n=8 v=100
4970639 On ch=3 n=23 v=100
4970639 Off ch=3 n=8 v=0
4970811 On ch=3 n=14 v=100
4970872 On ch=3 n=22 v=100
4971181 Off ch=3 n=23 v=0
4971266 Off ch=3 n=14 v=0
4971350 Off ch=3 n=22 v=0
4972014 On ch=3 n=17 v=100
4972422 On ch=3 n=0 v=100
4972423 Off ch=3 n=17 v=0
4974689 On ch=3 n=6 v=100
4974689 Off ch=3 n=0 v=0
4974966 Off ch=3 n=6 v=0
4975050 On ch=3 n=12 v=100
4975539 Off ch=3 n=12 v=0
4975540 On ch=3 n=7 v=100
4975860 On ch=3 n=7 v=100
4975864 Off ch=3 n=7 v=0
4975943 On ch=3 n=34 v=100
4976043 Off ch=3 n=7 v=0
4976051 On ch=3 n=10 v=100
4976260 Off ch=3 n=34 v=0
4976823 On ch=3 n=9 v=100
4976829 Off ch=3 n=10 v=0
4977574 Off ch=3 n=9 v=0
4977581 On ch=3 n=16 v=100
4977899 Off ch=3 n=16 v=0
4978050 On ch=3 n=13 v=100
4978971 On ch=3 n=7 v=100
4978979 Off ch=3 n=13 v=0
4979219 On ch=3 n=11 v=100
4979223 Off ch=3 n=7 v=0
4979327 Off ch=3 n=11 v=0
4979508 On ch=3 n=55 v=100
4979705 On ch=3 n=20 v=100
4979724 On ch=3 n=15 v=100
4979755 On ch=3 n=33 v=100
4979813 Off ch=3 n=55 v=0
4979873 Off ch=3 n=20 v=0
4979998 Off ch=3 n=15 v=0
4980072 Off ch=3 n=33 v=0
4980356 On ch=3 n=3 v=100
4980383 Off ch=3 n=3 v=0
4980389 On ch=3 n=11 v=100
4980971 Off ch=3 n=11 v=0
4981166 On ch=3 n=20 v=100
4981232 Off ch=3 n=20 v=0
4982085 On ch=3 n=6 v=100
4982312 On ch=3 n=9 v=100
4982365 Off ch=3 n=6 v=0
4982579 Off ch=3 n=9 v=0
4982592 On ch=3 n=12 v=100
4982742 Off ch=3 n=12 v=0
4982830 On ch=3 n=22 v=100
4983408 Off ch=3 n=22 v=0
4983994 On ch=3 n=45 v=100
4984191 On ch=3 n=42 v=100
4984200 On ch=3 n=18 v=100
4984276 Off ch=3 n=18 v=0
4984277 Off ch=3 n=45 v=0
4984294 Off ch=3 n=42 v=0
4984476 On ch=3 n=11 v=100
4985492 Off ch=3 n=11 v=0
4985744 On ch=3 n=48 v=100
4986004 On ch=3 n=50 v=100
4986076 Off ch=3 n=48 v=0
4986206 Off ch=3 n=50 v=0
4986210 On ch=3 n=23 v=100
4986373 Off ch=3 n=23 v=0
4986722 On ch=3 n=16 v=100
4986813 Off ch=3 n=16 v=0
4987155 On ch=3 n=39 v=100
4987506 On ch=3 n=22 v=100
4987691 On ch=3 n=17 v=100
4988044 On ch=3 n=12 v=100
4988047 Off ch=3 n=22 v=0
4988052 Off ch=3 n=39 v=0
4988184 Off ch=3 n=17 v=0
4988231 Off ch=3 n=12 v=0
4989354 On ch=3 n=14 v=100
4989446 Off ch=3 n=14 v=0
4989448 On ch=3 n=16 v=100
4989849 Off ch=3 n=16 v=0
4991783 On ch=3 n=14 v=100
4991920 On ch=3 n=15 v=100
4992201 On ch=3 n=25 v=100
4992267 Off ch=3 n=14 v=0
4992283 On ch=3 n=15 v=100
4992286 On ch=3 n=32 v=100
4992286 On ch=3 n=32 v=100
4992372 On ch=3 n=10 v=100
4992381 Off ch=3 n=15 v=0
4992403 On ch=3 n=25 v=100
4992616 Off ch=3 n=25 v=0
4992755 Off ch=3 n=15 v=0
4992776 Off ch=3 n=10 v=0
4992829 On ch=3 n=30 v=100
4992838 On ch=3 n=18 v=100
4992937 Off ch=3 n=32 v=0
4992937 Off ch=3 n=32 v=0
4992941 Off ch=3 n=25 v=0
4993136 Off ch=3 n=18 v=0
4993170 Off ch=3 n=30 v=0
4994052 On ch=3 n=46 v=100
4994206 Off ch=3 n=46 v=0
4994228 On ch=3 n=38 v=100
4994531 Off ch=3 n=38 v=0
4994586 On ch=3 n=32 v=100
4994716 On ch=3 n=50 v=100
4994760 On ch=3 n=44 v=100
4994794 On ch=3 n=37 v=100
4994794 On ch=3 n=37 v=100
4994808 On ch=3 n=31 v=100
4994817 Off ch=3 n=32 v=0
4995039 Off ch=3 n=50 v=0
4995039 Off ch=3 n=31 v=0
4995064 Off ch=3 n=37 v=0
4995064 Off ch=3 n=37 v=0
4995074 Off ch=3 n=44 v=0
4995581 On ch=3 n=9 v=100
4996786 Off ch=3 n=9 v=0
4996977 On ch=3 n=25 v=100
4997196 Off ch=3 n=25 v=0
4997226 On ch=3 n=25 v=100
4997318 Off ch=3 n=25 v=0
4998523 On ch=3 n=31 v=100
4998541 On ch=3 n=18 v=100
4998572 Off ch=3 n=31 v=0
4998588 Off ch=3 n=18 v=0
4998600 On ch=3 n=20 v=100
4999572 Off ch=3 n=20 v=0
5000252 On ch=3 n=28 v=100
5000267 On ch=3 n=41 v=100
5000347 Off ch=3 n=28 v=0
5000492 On ch=3 n=40 v=100
5000554 Off ch=3 n=41 v=0
5000563 On ch=3 n=36 v=100
5000568 On ch=3 n=24 v=100
5000870 Off ch=3 n=24 v=0
5000876 Off ch=3 n=40 v=0
5000946 Off ch=3 n=36 v=0
5002080 On ch=3 n=38 v=100
5002120 On ch=3 n=30 v=100
5002383 Off ch=3 n=38 v=0
5002384 Off ch=3 n=30 v=0
5002649 On ch=3 n=16 v=100
5002649 On ch=3 n=16 v=100
5002662 On ch=3 n=11 v=100
5002680 On ch=3 n=32 v=100
5002829 Off ch=3 n=11 v=0
5002857 Off ch=3 n=16 v=0
5002857 Off ch=3 n=16 v=0
5002941 Off ch=3 n=32 v=0
5003421 On ch=3 n=26 v=100
5003495 On ch=3 n=20 v=100
5003550 On ch=3 n=16 v=100
5003551 On ch=3 n=20 v=100
5003944 Off ch=3 n=26 v=0
5003953 Off ch=3 n=20 v=0
5003959 Off ch=3 n=16 v=0
5004024 Off ch=3 n=20 v=0
5005071 On ch=3 n=7 v=100
5005125 Off ch=3 n=7 v=0
5005126 On ch=3 n=5 v=100
5006058 Off ch=3 n=5 v=0
5006113 On ch=3 n=9 v=100
5006580 On ch=3 n=21 v=100
5006580 On ch=3 n=27 v=100
5006580 On ch=3 n=29 v=100
5006600 Off ch=3 n=9 v=0
5006855 Off ch=3 n=21 v=0
5006894 Off ch=3 n=27 v=0
5006986 Off ch=3 n=29 v=0
5007826 On ch=3 n=22 v=100
5007834 On ch=3 n=24 v=100
5007834 On ch=3 n=24 v=100
5007948 On ch=3 n=18 v=100
5008300 On ch=3 n=18 v=100
5008300 On ch=3 n=18 v=100
5008314 Off ch=3 n=22 v=0
5008334 On ch=3 n=13 v=100
5008373 Off ch=3 n=18 v=0
5008376 Off ch=3 n=24 v=0
5008376 Off ch=3 n=24 v=0
5008559 Off ch=3 n=13 v=0
5008581 Off ch=3 n=18 v=0
5008581 Off ch=3 n=18 v=0
5009970 On ch=3 n=9 v=100
5010764 On ch=3 n=17 v=100
5010858 On ch=3 n=14 v=100
5010860 Off ch=3 n=9 v=0
5011210 On ch=3 n=12 v=100
5011229 Off ch=3 n=17 v=0
5011290 Off ch=3 n=14 v=0
5011317 Off ch=3 n=12 v=0
5011348 On ch=3 n=12 v=100
5011364 Off ch=3 n=12 v=0
5012941 On ch=3 n=3 v=100
5013307 Off ch=3 n=3 v=0
5014257 On ch=3 n=19 v=100
5014470 Off ch=3 n=19 v=0
5014543 On ch=3 n=9 v=100
5015522 Off ch=3 n=9 v=0
5015589 On ch=3 n=25 v=100
5015813 Off ch=3 n=25 v=0
5015819 On ch=3 n=26 v=100
5015991 Off ch=3 n=26 v=0
5016229 On ch=3 n=50 v=100
5016385 Off ch=3 n=50 v=0
5016414 On ch=3 n=29 v=100
5016552 On ch=3 n=27 v=100
5016606 Off ch=3 n=29 v=0
5016617 Off ch=3 n=27 v=0
5016641 On ch=3 n=11 v=100
5016641 On ch=3 n=21 v=100
5016641 On ch=3 n=45 v=100
5016686 Off ch=3 n=11 v=0
5016699 Off ch=3 n=21 v=0
5016788 Off ch=3 n=45 v=0
5019050 On ch=3 n=10 v=100
5019491 Off ch=3 n=10 v=0
5019582 On ch=3 n=10 v=100
5019715 On ch=3 n=12 v=100
5019724 Off ch=3 n=10 v=0
5019774 Off ch=3 n=12 v=0
5019788 On ch=3 n=8 v=100
5020025 Off ch=3 n=8 v=0
5020293 On ch=3 n=6 v=100
5020545 On ch=3 n=30 v=100
5020546 Off ch=3 n=6 v=0
5020699 Off ch=3 n=30 v=0
5020702 On ch=3 n=20 v=100
5020878 Off ch=3 n=20 v=0
5021876 On ch=3 n=9 v=100
5021991 On ch=3 n=11 v=100
5022453 Off ch=3 n=9 v=0
5022535 Off ch=3 n=11 v=0
5024342 On ch=3 n=12 v=100
5025403 On ch=3 n=11 v=100
5025522 Off ch=3 n=12 v=0
5025539 Off ch=3 n=11 v=0
5026209 On ch=3 n=8 v=100
5026475 On ch=3 n=11 v=100
5026889 Off ch=3 n=8 v=0
5027031 Off ch=3 n=11 v=0
5027508 On ch=3 n=41 v=100
5027745 On ch=3 n=17 v=100
5027808 On ch=3 n=14 v=100
5027876 Off ch=3 n=41 v=0
5027876 Off ch=3 n=14 v=0
5027876 Off ch=3 n=17 v=0
5027947 On ch=3 n=17 v=100
5027947 On ch=3 n=14 v=100
5027947 On ch=3 n=41 v=100
5028228 Off ch=3 n=17 v=0
5028228 Off ch=3 n=41 v=0
5028249 On ch=3 n=29 v=100
5028279 Off ch=3 n=14 v=0
5028317 On ch=3 n=26 v=100
5028335 On ch=3 n=17 v=100
5028398 Off ch=3 n=29 v=0
5028471 Off ch=3 n=26 v=0
5028518 Off ch=3 n=17 v=0
5028565 On ch=3 n=18 v=100
5028611 Off ch=3 n=18 v=0
5029221 On ch=3 n=11 v=100
5029506 Off ch=3 n=11 v=0
5030245 On ch=3 n=27 v=100
5030336 Off ch=3 n=27 v=0
5030976 On ch=3 n=8 v=100
5031657 Off ch=3 n=8 v=0
5033082 On ch=3 n=18 v=100
5033225 Off ch=3 n=18 v=0
5033231 On ch=3 n=46 v=100
5033806 On ch=3 n=12 v=100
5033837 Off ch=3 n=46 v=0
5033976 Off ch=3 n=12 v=0
5033984 On ch=3 n=20 v=100
5034164 Off ch=3 n=20 v=0
5034960 On ch=3 n=15 v=100
5035011 Off ch=3 n=15 v=0
5035027 On ch=3 n=10 v=100
5035159 Off ch=3 n=10 v=0
5036163 On ch=3 n=11 v=100
5036237 Off ch=3 n=11 v=0
5037535 On ch=3 n=5 v=100
5037746 On ch=3 n=26 v=100
5037773 Off ch=3 n=5 v=0
5037780 Off ch=3 n=26 v=0
5038623 On ch=3 n=12 v=100
5038637 On ch=3 n=5 v=100
5038637 On ch=3 n=5 v=100
5038672 Off ch=3 n=12 v=0
5038672 Off ch=3 n=5 v=0
5038685 On ch=3 n=20 v=100
5038691 Off ch=3 n=5 v=0
5038783 On ch=3 n=16 v=100
5038797 On ch=3 n=8 v=100
5038802 Off ch=3 n=20 v=0
5038856 Off ch=3 n=16 v=0
5038857 Off ch=3 n=8 v=0
5038869 On ch=3 n=6 v=100
5038869 On ch=3 n=18 v=100
5039145 Off ch=3 n=6 v=0
5039151 On ch=3 n=10 v=100
5039192 Off ch=3 n=18 v=0
5039709 Off ch=3 n=10 v=0
5039714 On ch=3 n=13 v=100
5039718 On ch=3 n=12 v=100
5039726 On ch=3 n=19 v=100
5039730 On ch=3 n=9 v=100
5039779 Off ch=3 n=13 v=0
5039786 Off ch=3 n=9 v=0
5039788 Off ch=3 n=12 v=0
5039789 On ch=3 n=10 v=100
5039809 Off ch=3 n=19 v=0
5040261 Off ch=3 n=10 v=0
5040349 On ch=3 n=10 v=100
5040378 Off ch=3 n=10 v=0
5040409 On ch=3 n=10 v=100
5040891 Off ch=3 n=10 v=0
5040922 On ch=3 n=10 v=100
5041200 Off ch=3 n=10 v=0
5041414 On ch=3 n=38 v=100
5041489 On ch=3 n=33 v=100
5041489 On ch=3 n=33 v=100
5041540 On ch=3 n=31 v=100
5041554 On ch=3 n=47 v=100
5041554 On ch=3 n=47 v=100
5041574 On ch=3 n=44 v=100
5041574 On ch=3 n=44 v=100
5041578 On ch=3 n=34 v=100
5041578 On ch=3 n=34 v=100
5041757 Off ch=3 n=31 v=0
5041764 Off ch=3 n=38 v=0
5041841 Off ch=3 n=33 v=0
5041841 Off ch=3 n=33 v=0
5041873 Off ch=3 n=34 v=0
5041873 Off ch=3 n=34 v=0
5041943 Off ch=3 n=44 v=0
5041943 Off ch=3 n=44 v=0
5042041 On ch=3 n=23 v=100
5042087 Off ch=3 n=47 v=0
5042087 Off ch=3 n=47 v=0
5042162 On ch=3 n=21 v=100
5042276 On ch=3 n=9 v=100
5042276 On ch=3 n=16 v=100
5042367 On ch=3 n=30 v=100
5042530 Off ch=3 n=23 v=0
5042584 Off ch=3 n=21 v=0
5042614 Off ch=3 n=9 v=0
5042657 Off ch=3 n=16 v=0
5042714 On ch=3 n=22 v=100
5042720 Off ch=3 n=30 v=0
5042846 Off ch=3 n=22 v=0
5043830 On ch=3 n=17 v=100
5043899 On ch=3 n=45 v=100
5044083 Off ch=3 n=17 v=0
5044557 On ch=3 n=15 v=100
5044737 Off ch=3 n=45 v=0
5045100 Off ch=3 n=15 v=0
5045194 On ch=3 n=12 v=100
5045302 On ch=3 n=18 v=100
5045417 Off ch=3 n=12 v=0
5045436 Off ch=3 n=18 v=0
5045862 On ch=3 n=17 v=100
5046512 Off ch=3 n=17 v=0
5046523 On ch=3 n=9 v=100
5046643 Off ch=3 n=9 v=0
5046666 On ch=3 n=3 v=100
5046960 Off ch=3 n=3 v=0
5047198 On ch=3 n=13 v=100
5047566 Off ch=3 n=13 v=0
5047632 On ch=3 n=23 v=100
5048126 Off ch=3 n=23 v=0
5052453 On ch=3 n=10 v=100
5052577 Off ch=3 n=10 v=0
5052731 On ch=3 n=26 v=100
5053074 Off ch=3 n=26 v=0
5053099 On ch=3 n=34 v=100
5053197 Off ch=3 n=34 v=0
5053339 On ch=3 n=15 v=100
5053405 On ch=3 n=30 v=100
5053431 On ch=3 n=23 v=100
5053449 On ch=3 n=10 v=100
5053450 On ch=3 n=26 v=100
5053455 Off ch=3 n=15 v=0
5053506 Off ch=3 n=30 v=0
5053532 Off ch=3 n=23 v=0
5053533 Off ch=3 n=10 v=0
5053534 On ch=3 n=9 v=100
5053592 Off ch=3 n=26 v=0
5053942 Off ch=3 n=9 v=0
5054113 On ch=3 n=35 v=100
5054169 Off ch=3 n=35 v=0
5054170 On ch=3 n=9 v=100
5054333 On ch=3 n=10 v=100
5054336 Off ch=3 n=9 v=0
5054479 Off ch=3 n=10 v=0
5056448 On ch=3 n=17 v=100
5056448 On ch=3 n=36 v=100
5056715 Off ch=3 n=17 v=0
5056752 Off ch=3 n=36 v=0
5056754 On ch=3 n=11 v=100
5057624 Off ch=3 n=11 v=0
5057638 On ch=3 n=18 v=100
5058220 On ch=3 n=11 v=100
5058222 Off ch=3 n=18 v=0
5058405 Off ch=3 n=11 v=0
5059781 On ch=3 n=13 v=100
5060089 Off ch=3 n=13 v=0
5061705 On ch=3 n=18 v=100
5061708 On ch=3 n=42 v=100
5061770 Off ch=3 n=18 v=0
5061876 On ch=3 n=15 v=100
5061888 Off ch=3 n=42 v=0
5062088 Off ch=3 n=15 v=0
5062136 On ch=3 n=11 v=100
5062175 On ch=3 n=8 v=100
5062175 On ch=3 n=8 v=100
5062392 On ch=3 n=14 v=100
5062452 On ch=3 n=34 v=100
5062452 On ch=3 n=34 v=100
5062520 Off ch=3 n=8 v=0
5062520 Off ch=3 n=8 v=0
5062522 Off ch=3 n=11 v=0
5062545 Off ch=3 n=14 v=0
5062572 Off ch=3 n=34 v=0
5062572 Off ch=3 n=34 v=0
5062573 On ch=3 n=18 v=100
5062696 Off ch=3 n=18 v=0
5063001 On ch=3 n=34 v=100
5063001 On ch=3 n=34 v=100
5063057 On ch=3 n=17 v=100
5063062 On ch=3 n=13 v=100
5063484 Off ch=3 n=13 v=0
5063529 Off ch=3 n=17 v=0
5063725 Off ch=3 n=34 v=0
5063725 Off ch=3 n=34 v=0
5063754 On ch=3 n=20 v=100
5064130 Off ch=3 n=20 v=0
5064312 On ch=3 n=5 v=100
5064644 On ch=3 n=10 v=100
5064696 Off ch=3 n=5 v=0
5064703 Off ch=3 n=10 v=0
5065053 On ch=3 n=25 v=100
5065053 On ch=3 n=37 v=100
5065055 On ch=3 n=29 v=100
5065220 On ch=3 n=23 v=100
5065226 Off ch=3 n=25 v=0
5065250 Off ch=3 n=29 v=0
5065282 Off ch=3 n=37 v=0
5065343 On ch=3 n=33 v=100
5065353 Off ch=3 n=23 v=0
5065474 Off ch=3 n=33 v=0
5071308 On ch=3 n=39 v=100
5071645 Off ch=3 n=39 v=0
5071784 On ch=3 n=10 v=100
5071973 Off ch=3 n=10 v=0
5071977 On ch=3 n=8 v=100
5073123 On ch=3 n=9 v=100
5073129 Off ch=3 n=8 v=0
5073736 Off ch=3 n=9 v=0
5074435 On ch=3 n=12 v=100
5074906 Off ch=3 n=12 v=0
5075040 On ch=3 n=12 v=100
5075196 Off ch=3 n=12 v=0
5075238 On ch=3 n=12 v=100
5075267 Off ch=3 n=12 v=0
5075347 On ch=3 n=12 v=100
5075549 On ch=3 n=13 v=100
5075549 Off ch=3 n=12 v=0
5075627 Off ch=3 n=13 v=0
5075809 On ch=3 n=12 v=100
5076087 On ch=3 n=16 v=100
5076094 Off ch=3 n=12 v=0
5076372 Off ch=3 n=16 v=0
5076413 On ch=3 n=48 v=100
5076638 On ch=3 n=16 v=100
5076696 Off ch=3 n=16 v=0
5076701 On ch=3 n=11 v=100
5076829 Off ch=3 n=48 v=0
5076830 Off ch=3 n=11 v=0
5082791 On ch=3 n=12 v=100
5082826 On ch=3 n=9 v=100
5083065 Off ch=3 n=12 v=0
5083069 Off ch=3 n=9 v=0
5083076 On ch=3 n=17 v=100
5083146 Off ch=3 n=17 v=0
5083421 On ch=3 n=9 v=100
5084001 On ch=3 n=18 v=100
5084001 Off ch=3 n=9 v=0
5084112 Off ch=3 n=18 v=0
5084181 On ch=3 n=18 v=100
5084242 Off ch=3 n=18 v=0
5085031 On ch=3 n=6 v=100
5086598 On ch=3 n=4 v=100
5086599 Off ch=3 n=6 v=0
5086660 On ch=3 n=22 v=100
5086730 Off ch=3 n=4 v=0
5086768 Off ch=3 n=22 v=0
5089672 On ch=3 n=46 v=100
5089766 On ch=3 n=40 v=100
5089827 Off ch=3 n=46 v=0
5089875 Off ch=3 n=40 v=0
5090141 On ch=3 n=8 v=100
5090648 Off ch=3 n=8 v=0
5090707 On ch=3 n=1 v=100
5090814 On ch=3 n=31 v=100
5090861 Off ch=3 n=1 v=0
5090868 Off ch=3 n=31 v=0
5091271 On ch=3 n=15 v=100
5091388 Off ch=3 n=15 v=0
5092183 On ch=3 n=27 v=100
5092400 Off ch=3 n=27 v=0
5092418 On ch=3 n=34 v=100
5092609 Off ch=3 n=34 v=0
5093094 On ch=3 n=28 v=100
5093535 Off ch=3 n=28 v=0
5093586 On ch=3 n=7 v=100
5094015 Off ch=3 n=7 v=0
5097986 On ch=3 n=6 v=100
5098046 Off ch=3 n=6 v=0
5098107 On ch=3 n=8 v=100
5098818 On ch=3 n=31 v=100
5098821 On ch=3 n=29 v=100
5098860 Off ch=3 n=8 v=0
5098866 On ch=3 n=7 v=100
5099079 Off ch=3 n=29 v=0
5099224 Off ch=3 n=31 v=0
5099253 Off ch=3 n=7 v=0
5099348 On ch=3 n=20 v=100
5099400 On ch=3 n=21 v=100
5099567 Off ch=3 n=20 v=0
5099569 On ch=3 n=6 v=100
5099599 Off ch=3 n=21 v=0
5099934 Off ch=3 n=6 v=0
5100420 On ch=3 n=9 v=100
5101000 On ch=3 n=2 v=100
5101001 Off ch=3 n=9 v=0
5101450 On ch=3 n=5 v=100
5101451 Off ch=3 n=2 v=0
5101502 Off ch=3 n=5 v=0
5101903 On ch=3 n=21 v=100
5102200 Off ch=3 n=21 v=0
5102202 On ch=3 n=14 v=100
5102524 Off ch=3 n=14 v=0
5106024 On ch=3 n=5 v=100
5106476 Off ch=3 n=5 v=0
5106504 On ch=3 n=4 v=100
5106753 On ch=3 n=13 v=100
5106792 Off ch=3 n=4 v=0
5106800 Off ch=3 n=13 v=0
5108034 On ch=3 n=15 v=100
5108134 Off ch=3 n=15 v=0
5108152 On ch=3 n=6 v=100
5108608 Off ch=3 n=6 v=0
5108609 On ch=3 n=6 v=100
5109620 Off ch=3 n=6 v=0
5109621 On ch=3 n=40 v=100
5109621 On ch=3 n=9 v=100
5109662 Off ch=3 n=9 v=0
5109684 Off ch=3 n=40 v=0
5110064 On ch=3 n=53 v=100
5110068 On ch=3 n=22 v=100
5110143 Off ch=3 n=22 v=0
5110208 Off ch=3 n=53 v=0
5110433 On ch=3 n=20 v=100
5110465 On ch=3 n=8 v=100
5110479 Off ch=3 n=20 v=0
5110987 On ch=3 n=9 v=100
5110987 Off ch=3 n=8 v=0
5111203 Off ch=3 n=9 v=0
5111440 On ch=3 n=43 v=100
5111509 Off ch=3 n=43 v=0
5112441 On ch=3 n=37 v=100
5112651 Off ch=3 n=37 v=0
5112653 On ch=3 n=15 v=100
5112831 Off ch=3 n=15 v=0
5114295 On ch=3 n=39 v=100
5114632 Off ch=3 n=39 v=0
5114770 On ch=3 n=10 v=100
5114959 Off ch=3 n=10 v=0
5114963 On ch=3 n=8 v=100
5116117 On ch=3 n=9 v=100
5116123 Off ch=3 n=8 v=0
5116730 Off ch=3 n=9 v=0
5117401 On ch=3 n=14 v=100
5117863 Off ch=3 n=14 v=0
5117947 On ch=3 n=14 v=100
5117969 Off ch=3 n=14 v=0
5118005 On ch=3 n=14 v=100
5118102 Off ch=3 n=14 v=0
5118155 On ch=3 n=14 v=100
5118175 Off ch=3 n=14 v=0
5118215 On ch=3 n=14 v=100
5118291 Off ch=3 n=14 v=0
5118395 On ch=3 n=13 v=100
5118484 Off ch=3 n=13 v=0
5118534 On ch=3 n=13 v=100
5118736 On ch=3 n=10 v=100
5118737 Off ch=3 n=13 v=0
5118817 Off ch=3 n=10 v=0
5118997 On ch=3 n=13 v=100
5119261 On ch=3 n=15 v=100
5119268 Off ch=3 n=13 v=0
5119575 Off ch=3 n=15 v=0
5119606 On ch=3 n=15 v=100
5119721 On ch=3 n=6 v=100
5119725 Off ch=3 n=15 v=0
5119783 Off ch=3 n=6 v=0
5119865 On ch=3 n=50 v=100
5120090 On ch=3 n=21 v=100
5120149 Off ch=3 n=21 v=0
5120154 On ch=3 n=7 v=100
5120285 Off ch=3 n=50 v=0
5120286 Off ch=3 n=7 v=0
5120415 On ch=3 n=9 v=100
5121010 On ch=3 n=28 v=100
5121104 Off ch=3 n=9 v=0
5121141 Off ch=3 n=28 v=0
5124197 On ch=3 n=7 v=100
5125258 On ch=3 n=5 v=100
5125264 Off ch=3 n=7 v=0
5126097 On ch=3 n=13 v=100
5126098 Off ch=3 n=5 v=0
5126213 Off ch=3 n=13 v=0
5126214 On ch=3 n=17 v=100
5126626 On ch=3 n=4 v=100
5126626 Off ch=3 n=17 v=0
5126720 Off ch=3 n=4 v=0
5126721 On ch=3 n=23 v=100
5127325 Off ch=3 n=23 v=0
5127376 On ch=3 n=28 v=100
5127382 On ch=3 n=36 v=100
5127425 On ch=3 n=9 v=100
5127469 Off ch=3 n=28 v=0
5127501 Off ch=3 n=36 v=0
5128084 On ch=3 n=31 v=100
5128092 Off ch=3 n=9 v=0
5128248 Off ch=3 n=31 v=0
5128262 On ch=3 n=6 v=100
5128331 Off ch=3 n=6 v=0
5132441 On ch=3 n=7 v=100
5132736 Off ch=3 n=7 v=0
5132753 On ch=3 n=7 v=100
5132883 Off ch=3 n=7 v=0
5135658 On ch=3 n=11 v=100
5136152 Off ch=3 n=11 v=0
5137535 On ch=3 n=5 v=100
5137801 On ch=3 n=5 v=100
5138001 On ch=3 n=6 v=100
5138040 Off ch=3 n=5 v=0
5138346 Off ch=3 n=5 v=0
5138950 Off ch=3 n=6 v=0
5139006 On ch=3 n=6 v=100
5141085 Off ch=3 n=6 v=0
5146521 On ch=3 n=21 v=100
5146827 Off ch=3 n=21 v=0
5150812 On ch=3 n=17 v=100
5151050 Off ch=3 n=17 v=0
5159095 On ch=3 n=5 v=100
5159253 On ch=3 n=30 v=100
5159254 Off ch=3 n=5 v=0
5159736 Off ch=3 n=30 v=0
5159982 On ch=3 n=30 v=100
5160007 On ch=3 n=20 v=100
5160065 On ch=3 n=5 v=100
5160067 Off ch=3 n=30 v=0
5160272 Off ch=3 n=20 v=0
5160400 Off ch=3 n=5 v=0
5160453 On ch=3 n=5 v=100
5161064 Off ch=3 n=5 v=0
5170188 On ch=3 n=2 v=100
5170379 Off ch=3 n=2 v=0
5170905 On ch=3 n=6 v=100
5170974 Off ch=3 n=6 v=0
5170980 On ch=3 n=8 v=100
5171111 Off ch=3 n=8 v=0
5171113 On ch=3 n=5 v=100
5171273 Off ch=3 n=5 v=0
5171310 On ch=3 n=5 v=100
5171329 Off ch=3 n=5 v=0
5172178 On ch=3 n=16 v=100
5172346 Off ch=3 n=16 v=0
5172375 On ch=3 n=16 v=100
5172375 On ch=3 n=22 v=100
5172521 Off ch=3 n=16 v=0
5172524 On ch=3 n=27 v=100
5172602 Off ch=3 n=22 v=0
5172724 Off ch=3 n=27 v=0
5172981 On ch=3 n=5 v=100
5173702 Off ch=3 n=5 v=0
5173707 On ch=3 n=19 v=100
5173951 Off ch=3 n=19 v=0
5174194 On ch=3 n=43 v=100
5174304 On ch=3 n=1 v=100
5174474 Off ch=3 n=43 v=0
5174974 Off ch=3 n=1 v=0
5175698 On ch=3 n=10 v=100
5176410 Off ch=3 n=10 v=0
5176629 On ch=3 n=35 v=100
5176640 On ch=3 n=11 v=100
5176709 Off ch=3 n=35 v=0
5177695 On ch=3 n=8 v=100
5177794 Off ch=3 n=11 v=0
5177869 Off ch=3 n=8 v=0
5178022 On ch=3 n=13 v=100
5178237 On ch=3 n=12 v=100
5178238 Off ch=3 n=13 v=0
5178506 On ch=3 n=9 v=100
5178546 Off ch=3 n=12 v=0
5178737 Off ch=3 n=9 v=0
5179023 On ch=3 n=28 v=100
5179163 Off ch=3 n=28 v=0
5179268 On ch=3 n=12 v=100
5179413 Off ch=3 n=12 v=0
5180689 On ch=3 n=19 v=100
5180743 Off ch=3 n=19 v=0
5180939 On ch=3 n=27 v=100
5181117 Off ch=3 n=27 v=0
5181386 On ch=3 n=6 v=100
5182436 Off ch=3 n=6 v=0
5182549 On ch=3 n=19 v=100
5182958 Off ch=3 n=19 v=0
5183586 On ch=3 n=7 v=100
5184654 On ch=3 n=34 v=100
5184721 Off ch=3 n=7 v=0
5184739 Off ch=3 n=34 v=0
5185498 On ch=3 n=9 v=100
5185665 On ch=3 n=13 v=100
5185689 Off ch=3 n=9 v=0
5185697 On ch=3 n=11 v=100
5185963 Off ch=3 n=13 v=0
5185963 Off ch=3 n=11 v=0
5185973 On ch=3 n=16 v=100
5186192 Off ch=3 n=16 v=0
5187021 On ch=3 n=9 v=100
5187100 Off ch=3 n=9 v=0
5187101 On ch=3 n=10 v=100
5187401 Off ch=3 n=10 v=0
5187414 On ch=3 n=10 v=100
5187484 Off ch=3 n=10 v=0
5187519 On ch=3 n=7 v=100
5187772 On ch=3 n=23 v=100
5187935 Off ch=3 n=7 v=0
5187962 Off ch=3 n=23 v=0
5187978 On ch=3 n=15 v=100
5188073 Off ch=3 n=15 v=0
5190330 On ch=3 n=39 v=100
5190409 Off ch=3 n=39 v=0
5190854 On ch=3 n=18 v=100
5190854 On ch=3 n=18 v=100
5190866 On ch=3 n=3 v=100
5191057 Off ch=3 n=3 v=0
5191074 Off ch=3 n=18 v=0
5191074 Off ch=3 n=18 v=0
5192568 On ch=3 n=1 v=100
5192885 Off ch=3 n=1 v=0
5194676 On ch=3 n=11 v=100
5194706 On ch=3 n=13 v=100
5194712 Off ch=3 n=11 v=0
5194771 Off ch=3 n=13 v=0
5194781 On ch=3 n=11 v=100
5195109 Off ch=3 n=11 v=0
5196388 On ch=3 n=23 v=100
5196732 Off ch=3 n=23 v=0
5196838 On ch=3 n=22 v=100
5196890 Off ch=3 n=22 v=0
5196988 On ch=3 n=11 v=100
5197160 Off ch=3 n=11 v=0
5197219 On ch=3 n=6 v=100
5197375 On ch=3 n=41 v=100
5197470 Off ch=3 n=6 v=0
5197470 Off ch=3 n=41 v=0
5197510 On ch=3 n=41 v=100
5197510 On ch=3 n=15 v=100
5197523 Off ch=3 n=41 v=0
5197801 Off ch=3 n=15 v=0
5199140 On ch=3 n=45 v=100
5199316 Off ch=3 n=45 v=0
5199544 On ch=3 n=32 v=100
5199592 Off ch=3 n=32 v=0
5199669 On ch=3 n=32 v=100
5199754 Off ch=3 n=32 v=0
5200274 On ch=3 n=8 v=100
5200475 Off ch=3 n=8 v=0
5200481 On ch=3 n=21 v=100
5200481 On ch=3 n=36 v=100
5200599 Off ch=3 n=21 v=0
5200705 Off ch=3 n=36 v=0
5201193 On ch=3 n=28 v=100
5201194 On ch=3 n=30 v=100
5201376 Off ch=3 n=28 v=0
5201411 Off ch=3 n=30 v=0
5201471 On ch=3 n=7 v=100
5202086 On ch=3 n=11 v=100
5202087 Off ch=3 n=7 v=0
5202494 Off ch=3 n=11 v=0
5202497 On ch=3 n=10 v=100
5202539 On ch=3 n=12 v=100
5202539 Off ch=3 n=10 v=0
5202800 Off ch=3 n=12 v=0
5202805 On ch=3 n=11 v=100
5202944 Off ch=3 n=11 v=0
5202982 On ch=3 n=4 v=100
5203239 Off ch=3 n=4 v=0
5203256 On ch=3 n=3 v=100
5203777 Off ch=3 n=3 v=0
5203898 On ch=3 n=3 v=100
5204299 Off ch=3 n=3 v=0
5204301 On ch=3 n=3 v=100
5204760 Off ch=3 n=3 v=0
5204854 On ch=3 n=3 v=100
5205010 Off ch=3 n=3 v=0
5205046 On ch=3 n=3 v=100
5206385 Off ch=3 n=3 v=0
5206386 On ch=3 n=2 v=100
5206564 Off ch=3 n=2 v=0
5206605 On ch=3 n=2 v=100
5206889 Off ch=3 n=2 v=0
5207241 On ch=3 n=29 v=100
5207673 On ch=3 n=25 v=100
5207711 Off ch=3 n=29 v=0
5207748 On ch=3 n=26 v=100
5208063 On ch=3 n=23 v=100
5208069 Off ch=3 n=25 v=0
5208076 Off ch=3 n=26 v=0
5208336 Off ch=3 n=23 v=0
5208375 On ch=3 n=27 v=100
5208537 Off ch=3 n=27 v=0
5209533 On ch=3 n=23 v=100
5209662 Off ch=3 n=23 v=0
5209900 On ch=3 n=29 v=100
5210046 Off ch=3 n=29 v=0
5210105 On ch=3 n=24 v=100
5210129 On ch=3 n=10 v=100
5210315 Off ch=3 n=24 v=0
5210445 On ch=3 n=21 v=100
5210565 Off ch=3 n=10 v=0
5210587 Off ch=3 n=21 v=0
5210978 On ch=3 n=40 v=100
5211122 Off ch=3 n=40 v=0
5211332 On ch=3 n=7 v=100
5211499 Off ch=3 n=7 v=0
5211696 On ch=3 n=20 v=100
5211902 Off ch=3 n=20 v=0
5212014 On ch=3 n=9 v=100
5212315 Off ch=3 n=9 v=0
5213066 On ch=3 n=21 v=100
5213164 Off ch=3 n=21 v=0
5213202 On ch=3 n=22 v=100
5213358 On ch=3 n=19 v=100
5213423 Off ch=3 n=22 v=0
5213434 On ch=3 n=12 v=100
5213450 On ch=3 n=44 v=100
5213590 Off ch=3 n=19 v=0
5213623 Off ch=3 n=12 v=0
5213882 On ch=3 n=10 v=100
5213978 Off ch=3 n=44 v=0
5214039 Off ch=3 n=10 v=0
5215323 On ch=3 n=17 v=100
5215420 Off ch=3 n=17 v=0
5215940 On ch=3 n=0 v=100
5216172 Off ch=3 n=0 v=0
5216174 On ch=3 n=13 v=100
5216560 On ch=3 n=10 v=100
5216601 On ch=3 n=7 v=100
5216610 Off ch=3 n=13 v=0
5216899 On ch=3 n=5 v=100
5216899 Off ch=3 n=7 v=0
5216902 Off ch=3 n=10 v=0
5217215 Off ch=3 n=5 v=0
5217271 On ch=3 n=8 v=100
5217334 On ch=3 n=6 v=100
5217335 Off ch=3 n=8 v=0
5218107 On ch=3 n=9 v=100
5218107 Off ch=3 n=6 v=0
5218186 Off ch=3 n=9 v=0
5218220 On ch=3 n=9 v=100
5218344 On ch=3 n=21 v=100
5218351 Off ch=3 n=9 v=0
5218486 Off ch=3 n=21 v=0
5218523 On ch=3 n=17 v=100
5218837 Off ch=3 n=17 v=0
5219261 On ch=3 n=2 v=100
5222526 Off ch=3 n=2 v=0
5223456 On ch=3 n=20 v=100
5223483 Off ch=3 n=20 v=0
5223649 On ch=3 n=20 v=100
5223891 Off ch=3 n=20 v=0
5227351 On ch=3 n=20 v=100
5227545 Off ch=3 n=20 v=0
5227548 On ch=3 n=31 v=100
5227569 On ch=3 n=22 v=100
5227683 On ch=3 n=24 v=100
5227684 Off ch=3 n=31 v=0
5227944 Off ch=3 n=22 v=0
5228196 On ch=3 n=25 v=100
5228196 On ch=3 n=30 v=100
5228327 Off ch=3 n=24 v=0
5228443 Off ch=3 n=25 v=0
5228499 Off ch=3 n=30 v=0
5230686 On ch=3 n=2 v=100
5231690 On ch=3 n=31 v=100
5231769 Off ch=3 n=2 v=0
5231779 Off ch=3 n=31 v=0
5235553 On ch=3 n=22 v=100
5235833 Off ch=3 n=22 v=0
5236665 On ch=3 n=24 v=100
5236736 Off ch=3 n=24 v=0
5236917 On ch=3 n=37 v=100
5237420 On ch=3 n=15 v=100
5237427 Off ch=3 n=37 v=0
5237575 On ch=3 n=27 v=100
5237602 Off ch=3 n=15 v=0
5237751 Off ch=3 n=27 v=0
5239183 On ch=3 n=31 v=100
5239374 Off ch=3 n=31 v=0
5239385 On ch=3 n=11 v=100
5239506 Off ch=3 n=11 v=0
5240082 On ch=3 n=27 v=100
5240083 On ch=3 n=28 v=100
5240083 On ch=3 n=40 v=100
5240208 Off ch=3 n=27 v=0
5240213 On ch=3 n=22 v=100
5240244 Off ch=3 n=28 v=0
5240319 Off ch=3 n=40 v=0
5240457 Off ch=3 n=22 v=0
5241200 On ch=3 n=8 v=100
5241215 On ch=3 n=52 v=100
5241385 Off ch=3 n=8 v=0
5241498 Off ch=3 n=52 v=0
5242944 On ch=3 n=19 v=100
5243150 On ch=3 n=39 v=100
5243206 Off ch=3 n=19 v=0
5243217 Off ch=3 n=39 v=0
5244672 On ch=3 n=12 v=100
5244742 On ch=3 n=8 v=100
5244886 On ch=3 n=18 v=100
5245061 Off ch=3 n=8 v=0
5245064 Off ch=3 n=12 v=0
5245102 On ch=3 n=19 v=100
5245102 On ch=3 n=22 v=100
5245158 On ch=3 n=40 v=100
5245284 Off ch=3 n=18 v=0
5245310 Off ch=3 n=19 v=0
5245342 Off ch=3 n=22 v=0
5245388 Off ch=3 n=40 v=0
5245583 On ch=3 n=16 v=100
5245722 On ch=3 n=60 v=100
5246156 Off ch=3 n=16 v=0
5246208 Off ch=3 n=60 v=0
5246559 On ch=3 n=14 v=100
5246578 On ch=3 n=28 v=100
5246725 Off ch=3 n=14 v=0
5246837 Off ch=3 n=28 v=0
5248023 On ch=3 n=10 v=100
5248670 Off ch=3 n=10 v=0
5249260 On ch=3 n=14 v=100
5249362 On ch=3 n=46 v=100
5249751 Off ch=3 n=14 v=0
5249808 On ch=3 n=12 v=100
5249819 On ch=3 n=24 v=100
5250166 Off ch=3 n=46 v=0
5250189 Off ch=3 n=12 v=0
5250366 Off ch=3 n=24 v=0
5252486 On ch=3 n=12 v=100
5252588 Off ch=3 n=12 v=0
5252602 On ch=3 n=13 v=100
5252984 Off ch=3 n=13 v=0
5253015 On ch=3 n=16 v=100
5253075 Off ch=3 n=16 v=0
5254584 On ch=3 n=10 v=100
5254734 On ch=3 n=15 v=100
5254803 Off ch=3 n=10 v=0
5254855 Off ch=3 n=15 v=0
5254861 On ch=3 n=8 v=100
5254939 Off ch=3 n=8 v=0
5254945 On ch=3 n=13 v=100
5255008 Off ch=3 n=13 v=0
5255162 On ch=3 n=6 v=100
5256672 Off ch=3 n=6 v=0
5256716 On ch=3 n=6 v=100
5257334 Off ch=3 n=6 v=0
5257336 On ch=3 n=6 v=100
5257341 On ch=3 n=15 v=100
5257404 Off ch=3 n=6 v=0
5257428 Off ch=3 n=15 v=0
5259885 On ch=3 n=1 v=100
5260850 Off ch=3 n=1 v=0
5260902 On ch=3 n=17 v=100
5260987 Off ch=3 n=17 v=0
5261027 On ch=3 n=27 v=100
5261168 Off ch=3 n=27 v=0
5261222 On ch=3 n=5 v=100
5261384 On ch=3 n=6 v=100
5261384 Off ch=3 n=5 v=0
5261960 On ch=3 n=7 v=100
5261962 Off ch=3 n=6 v=0
5262077 On ch=3 n=10 v=100
5262125 Off ch=3 n=7 v=0
5262907 Off ch=3 n=10 v=0
5263515 On ch=3 n=25 v=100
5263938 Off ch=3 n=25 v=0
5264046 On ch=3 n=13 v=100
5264052 On ch=3 n=17 v=100
5264090 Off ch=3 n=13 v=0
5264100 On ch=3 n=17 v=100
5264104 Off ch=3 n=17 v=0
5264267 Off ch=3 n=17 v=0
5264269 On ch=3 n=15 v=100
5264307 On ch=3 n=8 v=100
5264312 Off ch=3 n=15 v=0
5265220 Off ch=3 n=8 v=0
5265228 On ch=3 n=15 v=100
5265259 On ch=3 n=53 v=100
5265296 Off ch=3 n=15 v=0
5265297 On ch=3 n=29 v=100
5265310 On ch=3 n=21 v=100
5265455 Off ch=3 n=21 v=0
5265477 Off ch=3 n=53 v=0
5265483 Off ch=3 n=29 v=0
5265825 On ch=3 n=22 v=100
5265891 Off ch=3 n=22 v=0
5265912 On ch=3 n=16 v=100
5265977 Off ch=3 n=16 v=0
5265984 On ch=3 n=19 v=100
5266027 On ch=3 n=8 v=100
5266351 On ch=3 n=7 v=100
5266352 Off ch=3 n=19 v=0
5266352 Off ch=3 n=8 v=0
5266733 Off ch=3 n=7 v=0
5266734 On ch=3 n=5 v=100
5266790 Off ch=3 n=5 v=0
5266903 On ch=3 n=9 v=100
5267195 Off ch=3 n=9 v=0
5267225 On ch=3 n=11 v=100
5267378 Off ch=3 n=11 v=0
5267385 On ch=3 n=18 v=100
5267561 On ch=3 n=10 v=100
5267568 Off ch=3 n=18 v=0
5268398 On ch=3 n=40 v=100
5268413 On ch=3 n=9 v=100
5268413 Off ch=3 n=10 v=0
5268487 On ch=3 n=51 v=100
5268521 On ch=3 n=16 v=100
5268521 Off ch=3 n=40 v=0
5268521 Off ch=3 n=9 v=0
5268559 On ch=3 n=7 v=100
5268607 Off ch=3 n=51 v=0
5268788 Off ch=3 n=16 v=0
5268992 On ch=3 n=9 v=100
5268999 Off ch=3 n=7 v=0
5270141 Off ch=3 n=9 v=0
5270147 On ch=3 n=8 v=100
5270341 On ch=3 n=42 v=100
5270367 On ch=3 n=25 v=100
5270368 Off ch=3 n=8 v=0
5270398 On ch=3 n=51 v=100
5270538 Off ch=3 n=25 v=0
5270540 Off ch=3 n=42 v=0
5270648 Off ch=3 n=51 v=0
5270772 On ch=3 n=23 v=100
5271161 Off ch=3 n=23 v=0
5271228 On ch=3 n=30 v=100
5271322 Off ch=3 n=30 v=0
5271327 On ch=3 n=28 v=100
5271338 On ch=3 n=20 v=100
5271412 Off ch=3 n=28 v=0
5271533 Off ch=3 n=20 v=0
5271657 On ch=3 n=27 v=100
5271722 Off ch=3 n=27 v=0
5271772 On ch=3 n=18 v=100
5271859 Off ch=3 n=18 v=0
5271877 On ch=3 n=22 v=100
5272035 Off ch=3 n=22 v=0
5272633 On ch=3 n=6 v=100
5273278 Off ch=3 n=6 v=0
5274894 On ch=3 n=28 v=100
5275011 Off ch=3 n=28 v=0
5275163 On ch=3 n=17 v=100
5275264 Off ch=3 n=17 v=0
5275270 On ch=3 n=12 v=100
5275424 On ch=3 n=9 v=100
5275424 Off ch=3 n=12 v=0
5275577 Off ch=3 n=9 v=0
5275579 On ch=3 n=5 v=100
5275943 Off ch=3 n=5 v=0
5275944 On ch=3 n=7 v=100
5277138 Off ch=3 n=7 v=0
5277142 On ch=3 n=4 v=100
5277258 Off ch=3 n=4 v=0
5277277 On ch=3 n=6 v=100
5277762 Off ch=3 n=6 v=0
5278160 On ch=3 n=12 v=100
5278203 Off ch=3 n=12 v=0
5278220 On ch=3 n=46 v=100
5278271 On ch=3 n=17 v=100
5278419 Off ch=3 n=46 v=0
5278744 Off ch=3 n=17 v=0
5280042 On ch=3 n=11 v=100
5281246 Off ch=3 n=11 v=0
5281908 On ch=3 n=11 v=100
5281982 Off ch=3 n=11 v=0
5281987 On ch=3 n=0 v=100
5284719 On ch=3 n=10 v=100
5284724 Off ch=3 n=0 v=0
5284931 On ch=3 n=16 v=100
5284936 Off ch=3 n=10 v=0
5285108 Off ch=3 n=16 v=0
5286967 On ch=3 n=8 v=100
5287075 Off ch=3 n=8 v=0
5287360 On ch=3 n=24 v=100
5287685 Off ch=3 n=24 v=0
5287703 On ch=3 n=16 v=100
5287896 On ch=3 n=48 v=100
5287977 Off ch=3 n=16 v=0
5287997 Off ch=3 n=48 v=0
5289256 On ch=3 n=18 v=100
5289415 Off ch=3 n=18 v=0
5289420 On ch=3 n=11 v=100
5289795 Off ch=3 n=11 v=0
5289796 On ch=3 n=8 v=100
5289798 On ch=3 n=21 v=100
5290029 Off ch=3 n=8 v=0
5290033 On ch=3 n=10 v=100
5290070 Off ch=3 n=21 v=0
5290083 On ch=3 n=27 v=100
5290160 On ch=3 n=32 v=100
5290164 Off ch=3 n=10 v=0
5290174 Off ch=3 n=27 v=0
5290493 On ch=3 n=21 v=100
5290595 Off ch=3 n=32 v=0
5290608 Off ch=3 n=21 v=0
5290625 On ch=3 n=7 v=100
5290625 On ch=3 n=7 v=100
5290780 On ch=3 n=27 v=100
5290830 On ch=3 n=3 v=100
5290830 On ch=3 n=3 v=100
5290833 Off ch=3 n=7 v=0
5290833 Off ch=3 n=7 v=0
5291132 Off ch=3 n=27 v=0
5291870 Off ch=3 n=3 v=0
5291870 Off ch=3 n=3 v=0
5292501 On ch=3 n=5 v=100
5294488 Off ch=3 n=5 v=0
5294720 On ch=3 n=8 v=100
5295291 Off ch=3 n=8 v=0
5295871 On ch=3 n=21 v=100
5296175 Off ch=3 n=21 v=0
5297029 On ch=3 n=14 v=100
5297262 On ch=3 n=21 v=100
5297277 On ch=3 n=6 v=100
5297280 Off ch=3 n=14 v=0
5297392 Off ch=3 n=21 v=0
5297398 On ch=3 n=18 v=100
5297399 Off ch=3 n=6 v=0
5297976 Off ch=3 n=18 v=0
5300170 On ch=3 n=33 v=100
5300275 Off ch=3 n=33 v=0
5300326 On ch=3 n=39 v=100
5300326 On ch=3 n=39 v=100
5300394 On ch=3 n=25 v=100
5300394 On ch=3 n=25 v=100
5300430 On ch=3 n=18 v=100
5300633 Off ch=3 n=25 v=0
5300633 Off ch=3 n=18 v=0
5300633 Off ch=3 n=25 v=0
5300670 Off ch=3 n=39 v=0
5300670 Off ch=3 n=39 v=0
5301903 On ch=3 n=7 v=100
5302465 Off ch=3 n=7 v=0
5302471 On ch=3 n=10 v=100
5303023 Off ch=3 n=10 v=0
5303579 On ch=3 n=39 v=100
5303579 On ch=3 n=39 v=100
5303641 On ch=3 n=37 v=100
5303832 Off ch=3 n=37 v=0
5303859 Off ch=3 n=39 v=0
5303859 Off ch=3 n=39 v=0
5305770 On ch=3 n=40 v=100
5305811 On ch=3 n=47 v=100
5305817 On ch=3 n=30 v=100
5305972 Off ch=3 n=40 v=0
5305972 Off ch=3 n=30 v=0
5306008 Off ch=3 n=47 v=0
5306669 On ch=3 n=30 v=100
5306782 On ch=3 n=32 v=100
5306824 Off ch=3 n=30 v=0
5306832 On ch=3 n=18 v=100
5306896 On ch=3 n=13 v=100
5306896 On ch=3 n=29 v=100
5306896 Off ch=3 n=18 v=0
5306897 Off ch=3 n=32 v=0
5307053 Off ch=3 n=13 v=0
5307132 Off ch=3 n=29 v=0
5309075 On ch=3 n=22 v=100
5309086 On ch=3 n=29 v=100
5309155 Off ch=3 n=22 v=0
5309577 On ch=3 n=53 v=100
5309623 Off ch=3 n=29 v=0
5309648 Off ch=3 n=53 v=0
5310310 On ch=3 n=14 v=100
5310445 Off ch=3 n=14 v=0
5310738 On ch=3 n=25 v=100
5310805 Off ch=3 n=25 v=0
5310809 On ch=3 n=14 v=100
5311092 Off ch=3 n=14 v=0
5311478 On ch=3 n=8 v=100
5313098 On ch=3 n=15 v=100
5313103 Off ch=3 n=8 v=0
5313160 Off ch=3 n=15 v=0
5313161 On ch=3 n=25 v=100
5313365 Off ch=3 n=25 v=0
5314614 On ch=3 n=10 v=100
5314755 Off ch=3 n=10 v=0
5314759 On ch=3 n=14 v=100
5314818 On ch=3 n=15 v=100
5314821 Off ch=3 n=14 v=0
5315061 Off ch=3 n=15 v=0
5315374 On ch=3 n=38 v=100
5315639 Off ch=3 n=38 v=0
5315709 On ch=3 n=23 v=100
5315822 Off ch=3 n=23 v=0
5315982 On ch=3 n=41 v=100
5316325 Off ch=3 n=41 v=0
5317794 On ch=3 n=50 v=100
5317841 On ch=3 n=57 v=100
5317860 On ch=3 n=40 v=100
5317913 On ch=3 n=8 v=100
5317913 On ch=3 n=34 v=100
5317925 On ch=3 n=40 v=100
5317939 On ch=3 n=52 v=100
5318025 On ch=3 n=47 v=100
5318102 Off ch=3 n=8 v=0
5318103 On ch=3 n=16 v=100
5318114 Off ch=3 n=50 v=0
5318114 Off ch=3 n=40 v=0
5318125 Off ch=3 n=34 v=0
5318185 Off ch=3 n=40 v=0
5318247 Off ch=3 n=52 v=0
5318274 Off ch=3 n=47 v=0
5318277 Off ch=3 n=57 v=0
5318475 On ch=3 n=16 v=100
5318651 Off ch=3 n=16 v=0
5318704 Off ch=3 n=16 v=0
5318730 On ch=3 n=14 v=100
5318787 On ch=3 n=49 v=100
5318801 On ch=3 n=8 v=100
5318802 Off ch=3 n=14 v=0
5318969 On ch=3 n=18 v=100
5318976 Off ch=3 n=8 v=0
5318986 Off ch=3 n=49 v=0
5319108 Off ch=3 n=18 v=0
5319136 On ch=3 n=18 v=100
5319465 Off ch=3 n=18 v=0
5320674 On ch=3 n=45 v=100
5320884 On ch=3 n=40 v=100
5321010 Off ch=3 n=45 v=0
5321010 Off ch=3 n=40 v=0
5321131 On ch=3 n=37 v=100
5321174 On ch=3 n=27 v=100
5321197 On ch=3 n=22 v=100
5321336 Off ch=3 n=27 v=0
5321342 Off ch=3 n=37 v=0
5321358 Off ch=3 n=22 v=0
5322339 On ch=3 n=10 v=100
5322590 Off ch=3 n=10 v=0
5322595 On ch=3 n=5 v=100
5323136 Off ch=3 n=5 v=0
5323682 On ch=3 n=18 v=100
5323970 On ch=3 n=10 v=100
5323973 Off ch=3 n=18 v=0
5324010 On ch=3 n=17 v=100
5324013 Off ch=3 n=10 v=0
5324160 Off ch=3 n=17 v=0
5325239 On ch=3 n=11 v=100
5325582 Off ch=3 n=11 v=0
5325635 On ch=3 n=11 v=100
5326024 Off ch=3 n=11 v=0
5326663 On ch=3 n=37 v=100
5326899 Off ch=3 n=37 v=0
5327120 On ch=3 n=21 v=100
5327261 Off ch=3 n=21 v=0
5327270 On ch=3 n=12 v=100
5327376 Off ch=3 n=12 v=0
5327715 On ch=3 n=13 v=100
5327858 On ch=3 n=27 v=100
5327859 Off ch=3 n=13 v=0
5327989 On ch=3 n=8 v=100
5328005 Off ch=3 n=27 v=0
5328363 Off ch=3 n=8 v=0
5328365 On ch=3 n=9 v=100
5328449 Off ch=3 n=9 v=0
5331366 On ch=3 n=25 v=100
5331408 On ch=3 n=33 v=100
5331550 Off ch=3 n=25 v=0
5331568 Off ch=3 n=33 v=0
5331718 On ch=3 n=6 v=100
5332923 Off ch=3 n=6 v=0
5333917 On ch=3 n=9 v=100
5335234 On ch=3 n=19 v=100
5335274 Off ch=3 n=9 v=0
5335280 Off ch=3 n=19 v=0
5335756 On ch=3 n=9 v=100
5335989 Off ch=3 n=9 v=0
5336029 On ch=3 n=26 v=100
5336061 On ch=3 n=25 v=100
5336171 Off ch=3 n=25 v=0
5336175 Off ch=3 n=26 v=0
5336997 On ch=3 n=9 v=100
5337437 Off ch=3 n=9 v=0
5337481 On ch=3 n=11 v=100
5337665 Off ch=3 n=11 v=0
5337946 On ch=3 n=7 v=100
5338324 On ch=3 n=25 v=100
5338325 Off ch=3 n=7 v=0
5338499 Off ch=3 n=25 v=0
5339759 On ch=3 n=8 v=100
5339862 Off ch=3 n=8 v=0
5340350 On ch=3 n=22 v=100
5340400 On ch=3 n=26 v=100
5340645 On ch=3 n=43 v=100
5340725 On ch=3 n=37 v=100
5340739 Off ch=3 n=22 v=0
5340981 Off ch=3 n=26 v=0
5341024 Off ch=3 n=43 v=0
5341072 Off ch=3 n=37 v=0
5341082 On ch=3 n=27 v=100
5341140 On ch=3 n=44 v=100
5341249 Off ch=3 n=27 v=0
5341271 Off ch=3 n=44 v=0
5341711 On ch=3 n=16 v=100
5341743 Off ch=3 n=16 v=0
5341745 On ch=3 n=8 v=100
5342261 On ch=3 n=12 v=100
5342263 Off ch=3 n=8 v=0
5342333 Off ch=3 n=12 v=0
5342337 On ch=3 n=10 v=100
5343017 Off ch=3 n=10 v=0
5343041 On ch=3 n=18 v=100
5343418 On ch=3 n=17 v=100
5343418 Off ch=3 n=18 v=0
5343724 On ch=3 n=12 v=100
5343727 On ch=3 n=26 v=100
5343730 Off ch=3 n=17 v=0
5343738 On ch=3 n=46 v=100
5343826 Off ch=3 n=12 v=0
5343848 Off ch=3 n=26 v=0
5343943 Off ch=3 n=46 v=0
5344133 On ch=3 n=45 v=100
5344133 On ch=3 n=45 v=100
5344207 On ch=3 n=44 v=100
5344207 On ch=3 n=44 v=100
5344221 On ch=3 n=21 v=100
5344263 On ch=3 n=34 v=100
5344263 On ch=3 n=34 v=100
5344348 Off ch=3 n=45 v=0
5344348 Off ch=3 n=45 v=0
5344372 Off ch=3 n=21 v=0
5344448 On ch=3 n=36 v=100
5344488 On ch=3 n=47 v=100
5344515 Off ch=3 n=44 v=0
5344515 Off ch=3 n=44 v=0
5344565 Off ch=3 n=34 v=0
5344565 Off ch=3 n=34 v=0
5344680 Off ch=3 n=36 v=0
5344688 On ch=3 n=18 v=100
5344762 Off ch=3 n=18 v=0
5344767 Off ch=3 n=47 v=0
5345334 On ch=3 n=19 v=100
5345443 Off ch=3 n=19 v=0
5345544 On ch=3 n=7 v=100
5345661 On ch=3 n=7 v=100
5345661 Off ch=3 n=7 v=0
5345960 Off ch=3 n=7 v=0
5345961 On ch=3 n=4 v=100
5346235 On ch=3 n=22 v=100
5346312 Off ch=3 n=4 v=0
5346359 Off ch=3 n=22 v=0
5346684 On ch=3 n=26 v=100
5346876 Off ch=3 n=26 v=0
5347204 On ch=3 n=16 v=100
5347340 On ch=3 n=24 v=100
5347340 On ch=3 n=24 v=100
5347363 Off ch=3 n=16 v=0
5347369 On ch=3 n=14 v=100
5347389 On ch=3 n=30 v=100
5347470 Off ch=3 n=14 v=0
5347484 Off ch=3 n=24 v=0
5347484 Off ch=3 n=24 v=0
5347509 Off ch=3 n=30 v=0
5348386 On ch=3 n=33 v=100
5348497 Off ch=3 n=33 v=0
5348608 On ch=3 n=45 v=100
5348608 On ch=3 n=28 v=100
5348616 On ch=3 n=49 v=100
5348666 Off ch=3 n=28 v=0
5348680 Off ch=3 n=45 v=0
5348748 Off ch=3 n=49 v=0
5349037 On ch=3 n=32 v=100
5349123 Off ch=3 n=32 v=0
5349199 On ch=3 n=1 v=100
5350167 Off ch=3 n=1 v=0
5351257 On ch=3 n=7 v=100
5352210 On ch=3 n=13 v=100
5352210 Off ch=3 n=7 v=0
5352405 Off ch=3 n=13 v=0
5353548 On ch=3 n=28 v=100
5353661 On ch=3 n=6 v=100
5353663 Off ch=3 n=28 v=0
5354572 Off ch=3 n=6 v=0
5354578 On ch=3 n=23 v=100
5354588 On ch=3 n=49 v=100
5354656 Off ch=3 n=23 v=0
5354836 Off ch=3 n=49 v=0
5355665 On ch=3 n=42 v=100
5355903 Off ch=3 n=42 v=0
5355951 On ch=3 n=43 v=100
5356137 Off ch=3 n=43 v=0
5358023 On ch=3 n=32 v=100
5358073 Off ch=3 n=32 v=0
5358321 On ch=3 n=39 v=100
5358356 On ch=3 n=26 v=100
5358411 On ch=3 n=24 v=100
5358629 Off ch=3 n=39 v=0
5358629 Off ch=3 n=26 v=0
5358629 Off ch=3 n=24 v=0
5358644 On ch=3 n=13 v=100
5358644 On ch=3 n=17 v=100
5358892 On ch=3 n=30 v=100
5358904 Off ch=3 n=13 v=0
5358964 Off ch=3 n=17 v=0
5358999 Off ch=3 n=30 v=0
5360647 On ch=3 n=12 v=100
5360647 On ch=3 n=16 v=100
5360861 On ch=3 n=19 v=100
5360861 On ch=3 n=19 v=100
5360905 On ch=3 n=19 v=100
5361016 On ch=3 n=11 v=100
5361016 On ch=3 n=24 v=100
5361016 Off ch=3 n=12 v=0
5361114 Off ch=3 n=16 v=0
5361348 Off ch=3 n=19 v=0
5361363 On ch=3 n=10 v=100
5361386 Off ch=3 n=19 v=0
5361386 Off ch=3 n=19 v=0
5361390 Off ch=3 n=11 v=0
5361447 Off ch=3 n=24 v=0
5361713 On ch=3 n=13 v=100
5361718 Off ch=3 n=10 v=0
5361826 Off ch=3 n=13 v=0
5361828 On ch=3 n=5 v=100
5362056 Off ch=3 n=5 v=0
5362058 On ch=3 n=7 v=100
5362235 On ch=3 n=46 v=100
5362265 On ch=3 n=6 v=100
5362265 Off ch=3 n=7 v=0
5362476 Off ch=3 n=46 v=0
5362809 Off ch=3 n=6 v=0
5362812 On ch=3 n=8 v=100
5362940 Off ch=3 n=8 v=0
5363524 On ch=3 n=37 v=100
5363577 On ch=3 n=8 v=100
5363713 Off ch=3 n=37 v=0
5364591 On ch=3 n=46 v=100
5364981 Off ch=3 n=8 v=0
5365039 Off ch=3 n=46 v=0
5365059 On ch=3 n=10 v=100
5365565 Off ch=3 n=10 v=0
5365892 On ch=3 n=23 v=100
5365898 On ch=3 n=29 v=100
5365898 On ch=3 n=29 v=100
5365940 On ch=3 n=15 v=100
5366187 Off ch=3 n=23 v=0
5366197 Off ch=3 n=15 v=0
5366362 On ch=3 n=38 v=100
5366365 Off ch=3 n=29 v=0
5366365 Off ch=3 n=29 v=0
5366471 On ch=3 n=27 v=100
5366595 Off ch=3 n=38 v=0
5366595 Off ch=3 n=27 v=0
5366645 On ch=3 n=27 v=100
5366645 On ch=3 n=38 v=100
5366711 On ch=3 n=16 v=100
5366872 On ch=3 n=24 v=100
5366875 Off ch=3 n=38 v=0
5367054 Off ch=3 n=27 v=0
5367100 Off ch=3 n=16 v=0
5367177 Off ch=3 n=24 v=0
5367315 On ch=3 n=25 v=100
5367493 Off ch=3 n=25 v=0
5367536 On ch=3 n=21 v=100
5367651 Off ch=3 n=21 v=0
5367764 On ch=3 n=23 v=100
5367878 Off ch=3 n=23 v=0
5367887 On ch=3 n=24 v=100
5367896 On ch=3 n=36 v=100
5367996 Off ch=3 n=24 v=0
5368031 Off ch=3 n=36 v=0
5370043 On ch=3 n=16 v=100
5370073 On ch=3 n=13 v=100
5370239 On ch=3 n=27 v=100
5370257 On ch=3 n=8 v=100
5370257 Off ch=3 n=16 v=0
5370257 Off ch=3 n=13 v=0
5370393 Off ch=3 n=27 v=0
5370968 Off ch=3 n=8 v=0
5371025 On ch=3 n=29 v=100
5371128 Off ch=3 n=29 v=0
5371140 On ch=3 n=14 v=100
5371380 Off ch=3 n=14 v=0
5371393 On ch=3 n=27 v=100
5371528 Off ch=3 n=27 v=0
5372251 On ch=3 n=28 v=100
5372633 On ch=3 n=24 v=100
5372706 On ch=3 n=17 v=100
5372730 Off ch=3 n=28 v=0
5372739 Off ch=3 n=24 v=0
5372739 Off ch=3 n=17 v=0
5372768 On ch=3 n=24 v=100
5372783 Off ch=3 n=24 v=0
5373134 On ch=3 n=20 v=100
5373251 Off ch=3 n=20 v=0
5373612 On ch=3 n=17 v=100
5373642 Off ch=3 n=17 v=0
5374435 On ch=3 n=11 v=100
5375829 Off ch=3 n=11 v=0
5377108 On ch=3 n=27 v=100
5377248 On ch=3 n=13 v=100
5377248 On ch=3 n=13 v=100
5377296 On ch=3 n=12 v=100
5377300 On ch=3 n=26 v=100
5377300 On ch=3 n=26 v=100
5377656 Off ch=3 n=27 v=0
5377661 Off ch=3 n=12 v=0
5377662 Off ch=3 n=13 v=0
5377662 Off ch=3 n=13 v=0
5377765 Off ch=3 n=26 v=0
5377765 Off ch=3 n=26 v=0
5378158 On ch=3 n=38 v=100
5378266 Off ch=3 n=38 v=0
5378300 On ch=3 n=9 v=100
5378376 Off ch=3 n=9 v=0
5378633 On ch=3 n=20 v=100
5378738 On ch=3 n=6 v=100
5378739 Off ch=3 n=20 v=0
5378949 Off ch=3 n=6 v=0
5378950 On ch=3 n=17 v=100
5379843 Off ch=3 n=17 v=0
5379848 On ch=3 n=15 v=100
5380115 Off ch=3 n=15 v=0
5380782 On ch=3 n=48 v=100
5380811 On ch=3 n=28 v=100
5380821 On ch=3 n=23 v=100
5381021 Off ch=3 n=48 v=0
5381112 Off ch=3 n=23 v=0
5381138 Off ch=3 n=28 v=0
5381299 On ch=3 n=7 v=100
5381768 Off ch=3 n=7 v=0
5381769 On ch=3 n=8 v=100
5381912 Off ch=3 n=8 v=0
5382070 On ch=3 n=47 v=100
5382071 On ch=3 n=35 v=100
5382206 Off ch=3 n=35 v=0
5382270 Off ch=3 n=47 v=0
5382524 On ch=3 n=18 v=100
5382530 On ch=3 n=8 v=100
5382836 Off ch=3 n=8 v=0
5382877 Off ch=3 n=18 v=0
5383002 On ch=3 n=5 v=100
5383971 Off ch=3 n=5 v=0
5384229 On ch=3 n=15 v=100
5384531 Off ch=3 n=15 v=0
5384594 On ch=3 n=43 v=100
5384594 On ch=3 n=43 v=100
5384647 On ch=3 n=24 v=100
5384745 Off ch=3 n=24 v=0
5384814 Off ch=3 n=43 v=0
5384814 Off ch=3 n=43 v=0
5386312 On ch=3 n=4 v=100
5387547 Off ch=3 n=4 v=0
5387981 On ch=3 n=14 v=100
5388447 Off ch=3 n=14 v=0
5388457 On ch=3 n=37 v=100
5388632 Off ch=3 n=37 v=0
5388653 On ch=3 n=12 v=100
5388872 On ch=3 n=57 v=100
5389048 Off ch=3 n=12 v=0
5389060 On ch=3 n=9 v=100
5389085 Off ch=3 n=57 v=0
5389230 On ch=3 n=9 v=100
5389230 Off ch=3 n=9 v=0
5389711 On ch=3 n=6 v=100
5389712 Off ch=3 n=9 v=0
5389761 Off ch=3 n=6 v=0
5390987 On ch=3 n=21 v=100
5391103 On ch=3 n=12 v=100
5391123 Off ch=3 n=21 v=0
5391285 Off ch=3 n=12 v=0
5391289 On ch=3 n=6 v=100
5391645 Off ch=3 n=6 v=0
5391657 On ch=3 n=11 v=100
5391737 On ch=3 n=8 v=100
5391750 Off ch=3 n=11 v=0
5392341 On ch=3 n=9 v=100
5392343 Off ch=3 n=8 v=0
5392530 Off ch=3 n=9 v=0
5393373 On ch=3 n=8 v=100
5393560 Off ch=3 n=8 v=0
5393720 On ch=3 n=13 v=100
5393723 On ch=3 n=24 v=100
5393762 Off ch=3 n=13 v=0
5393809 Off ch=3 n=24 v=0
5393816 On ch=3 n=11 v=100
5393864 Off ch=3 n=11 v=0
5394129 On ch=3 n=13 v=100
5394226 Off ch=3 n=13 v=0
5394684 On ch=3 n=27 v=100
5394939 Off ch=3 n=27 v=0
5398536 On ch=3 n=21 v=100
5398617 On ch=3 n=23 v=100
5398934 Off ch=3 n=23 v=0
5398938 Off ch=3 n=21 v=0
5406307 On ch=3 n=34 v=100
5406470 On ch=3 n=20 v=100
5406470 On ch=3 n=20 v=100
5406504 On ch=3 n=23 v=100
5406664 Off ch=3 n=34 v=0
5406678 Off ch=3 n=20 v=0
5406678 Off ch=3 n=20 v=0
5406784 Off ch=3 n=23 v=0
5407804 On ch=3 n=25 v=100
5407893 Off ch=3 n=25 v=0
5409166 On ch=3 n=15 v=100
5409224 Off ch=3 n=15 v=0
5410329 On ch=3 n=20 v=100
5410528 On ch=3 n=20 v=100
5410882 Off ch=3 n=20 v=0
5411066 Off ch=3 n=20 v=0
5417789 On ch=3 n=34 v=100
5417789 On ch=3 n=44 v=100
5417901 On ch=3 n=44 v=100
5417964 Off ch=3 n=34 v=0
5417983 Off ch=3 n=44 v=0
5418029 On ch=3 n=28 v=100
5418029 On ch=3 n=24 v=100
5418063 Off ch=3 n=44 v=0
5418170 On ch=3 n=8 v=100
5418170 Off ch=3 n=24 v=0
5418188 Off ch=3 n=28 v=0
5418684 On ch=3 n=21 v=100
5418684 On ch=3 n=21 v=100
5418762 Off ch=3 n=8 v=0
5418764 On ch=3 n=4 v=100
5419140 On ch=3 n=8 v=100
5419140 Off ch=3 n=4 v=0
5419182 Off ch=3 n=21 v=0
5419182 Off ch=3 n=21 v=0
5419682 On ch=3 n=30 v=100
5419708 Off ch=3 n=8 v=0
5419709 On ch=3 n=14 v=100
5419782 Off ch=3 n=30 v=0
5419782 Off ch=3 n=14 v=0
5420910 On ch=3 n=6 v=100
5421125 On ch=3 n=7 v=100
5421125 Off ch=3 n=6 v=0
5421748 Off ch=3 n=7 v=0
5421756 On ch=3 n=5 v=100
5422046 Off ch=3 n=5 v=0
5422901 On ch=3 n=7 v=100
5423277 Off ch=3 n=7 v=0
5423279 On ch=3 n=6 v=100
5423432 Off ch=3 n=6 v=0
5424392 On ch=3 n=14 v=100
5424907 Off ch=3 n=14 v=0
5424945 On ch=3 n=21 v=100
5425071 Off ch=3 n=21 v=0
5425300 On ch=3 n=34 v=100
5425511 Off ch=3 n=34 v=0
5426138 On ch=3 n=10 v=100
5426138 On ch=3 n=29 v=100
5426228 On ch=3 n=9 v=100
5426231 Off ch=3 n=10 v=0
5426251 Off ch=3 n=29 v=0
5426280 Off ch=3 n=9 v=0
5427725 On ch=3 n=31 v=100
5427747 On ch=3 n=18 v=100
5427747 On ch=3 n=18 v=100
5427762 On ch=3 n=12 v=100
5427856 Off ch=3 n=31 v=0
5428154 Off ch=3 n=12 v=0
5428160 On ch=3 n=29 v=100
5428160 On ch=3 n=29 v=100
5428223 Off ch=3 n=18 v=0
5428223 Off ch=3 n=18 v=0
5428459 Off ch=3 n=29 v=0
5428459 Off ch=3 n=29 v=0
5428599 On ch=3 n=20 v=100
5428643 Off ch=3 n=20 v=0
5428707 On ch=3 n=36 v=100
5428822 Off ch=3 n=36 v=0
5429097 On ch=3 n=32 v=100
5429134 On ch=3 n=12 v=100
5429140 On ch=3 n=10 v=100
5429236 Off ch=3 n=32 v=0
5429592 Off ch=3 n=10 v=0
5429654 Off ch=3 n=12 v=0
5430414 On ch=3 n=22 v=100
5430496 On ch=3 n=15 v=100
5430527 On ch=3 n=14 v=100
5430538 Off ch=3 n=22 v=0
5430538 Off ch=3 n=15 v=0
5430538 Off ch=3 n=14 v=0
5430601 On ch=3 n=22 v=100
5430601 On ch=3 n=15 v=100
5430601 On ch=3 n=14 v=100
5430722 Off ch=3 n=22 v=0
5430932 Off ch=3 n=15 v=0
5430977 Off ch=3 n=14 v=0
5431074 On ch=3 n=24 v=100
5431095 On ch=3 n=12 v=100
5431499 Off ch=3 n=12 v=0
5431685 Off ch=3 n=24 v=0
5431762 On ch=3 n=12 v=100
5432326 On ch=3 n=9 v=100
5432328 Off ch=3 n=12 v=0
5432734 Off ch=3 n=9 v=0
5434117 On ch=3 n=16 v=100
5434451 On ch=3 n=68 v=100
5434669 Off ch=3 n=16 v=0
5434714 Off ch=3 n=68 v=0
5435079 On ch=3 n=8 v=100
5435281 Off ch=3 n=8 v=0
5435297 On ch=3 n=20 v=100
5435357 Off ch=3 n=20 v=0
5435574 On ch=3 n=19 v=100
5435661 Off ch=3 n=19 v=0
5436964 On ch=3 n=27 v=100
5437176 On ch=3 n=13 v=100
5437460 Off ch=3 n=27 v=0
5437461 Off ch=3 n=13 v=0
5437482 On ch=3 n=11 v=100
5437537 Off ch=3 n=11 v=0
5437620 On ch=3 n=13 v=100
5437791 Off ch=3 n=13 v=0
5438689 On ch=3 n=35 v=100
5438689 On ch=3 n=35 v=100
5438702 On ch=3 n=25 v=100
5438722 On ch=3 n=11 v=100
5438729 On ch=3 n=8 v=100
5438732 On ch=3 n=42 v=100
5438775 Off ch=3 n=25 v=0
5438775 Off ch=3 n=11 v=0
5438775 Off ch=3 n=8 v=0
5438825 Off ch=3 n=35 v=0
5438825 Off ch=3 n=35 v=0
5438884 Off ch=3 n=42 v=0
5439166 On ch=3 n=30 v=100
5439303 Off ch=3 n=30 v=0
5439351 On ch=3 n=21 v=100
5439666 Off ch=3 n=21 v=0
5439779 On ch=3 n=15 v=100
5440179 Off ch=3 n=15 v=0
5440256 On ch=3 n=33 v=100
5440544 Off ch=3 n=33 v=0
5440570 On ch=3 n=23 v=100
5440617 On ch=3 n=37 v=100
5440876 Off ch=3 n=23 v=0
5440876 Off ch=3 n=37 v=0
5440937 On ch=3 n=23 v=100
5440937 On ch=3 n=37 v=100
5441014 Off ch=3 n=23 v=0
5441071 Off ch=3 n=37 v=0
5443379 On ch=3 n=9 v=100
5443815 Off ch=3 n=9 v=0
5443818 On ch=3 n=19 v=100
5443854 On ch=3 n=9 v=100
5443854 Off ch=3 n=19 v=0
5444393 Off ch=3 n=9 v=0
5445368 On ch=3 n=41 v=100
5445389 On ch=3 n=22 v=100
5445472 On ch=3 n=34 v=100
5445472 On ch=3 n=34 v=100
5445545 Off ch=3 n=41 v=0
5445585 On ch=3 n=20 v=100
5445797 On ch=3 n=49 v=100
5445890 Off ch=3 n=22 v=0
5445944 Off ch=3 n=20 v=0
5446000 Off ch=3 n=34 v=0
5446000 Off ch=3 n=34 v=0
5446171 Off ch=3 n=49 v=0
5446200 On ch=3 n=21 v=100
5446399 Off ch=3 n=21 v=0
5446598 On ch=3 n=18 v=100
5446785 Off ch=3 n=18 v=0
5446836 On ch=3 n=32 v=100
5446869 On ch=3 n=12 v=100
5447137 Off ch=3 n=12 v=0
5447139 Off ch=3 n=32 v=0
5450177 On ch=3 n=23 v=100
5450261 Off ch=3 n=23 v=0
5450429 On ch=3 n=26 v=100
5450464 On ch=3 n=30 v=100
5450525 On ch=3 n=32 v=100
5450562 Off ch=3 n=26 v=0
5450607 Off ch=3 n=30 v=0
5450646 Off ch=3 n=32 v=0
5451309 On ch=3 n=11 v=100
5451833 Off ch=3 n=11 v=0
5451941 On ch=3 n=11 v=100
5452222 Off ch=3 n=11 v=0
5452678 On ch=3 n=9 v=100
5452706 On ch=3 n=22 v=100
5452831 Off ch=3 n=9 v=0
5452852 Off ch=3 n=22 v=0
5452869 On ch=3 n=14 v=100
5452869 On ch=3 n=26 v=100
5452952 Off ch=3 n=14 v=0
5452954 On ch=3 n=9 v=100
5452963 Off ch=3 n=26 v=0
5454727 Off ch=3 n=9 v=0
5454728 On ch=3 n=3 v=100
5455848 On ch=3 n=11 v=100
5455855 Off ch=3 n=3 v=0
5455921 Off ch=3 n=11 v=0
5455923 On ch=3 n=18 v=100
5456196 On ch=3 n=11 v=100
5456197 Off ch=3 n=18 v=0
5456500 Off ch=3 n=11 v=0
5457188 On ch=3 n=20 v=100
5457383 On ch=3 n=19 v=100
5457386 On ch=3 n=10 v=100
5457600 On ch=3 n=40 v=100
5457616 Off ch=3 n=20 v=0
5457745 Off ch=3 n=10 v=0
5457853 Off ch=3 n=19 v=0
5457949 On ch=3 n=11 v=100
5457956 Off ch=3 n=40 v=0
5458495 On ch=3 n=30 v=100
5458495 On ch=3 n=30 v=100
5458525 On ch=3 n=22 v=100
5458525 On ch=3 n=22 v=100
5458551 Off ch=3 n=11 v=0
5458677 Off ch=3 n=30 v=0
5458677 Off ch=3 n=30 v=0
5458707 On ch=3 n=3 v=100
5458825 Off ch=3 n=3 v=0
5458913 Off ch=3 n=22 v=0
5458913 Off ch=3 n=22 v=0
5459295 On ch=3 n=9 v=100
5459552 Off ch=3 n=9 v=0
5459602 On ch=3 n=23 v=100
5459650 Off ch=3 n=23 v=0
5460100 On ch=3 n=1 v=100
5460772 Off ch=3 n=1 v=0
5461081 On ch=3 n=46 v=100
5461380 Off ch=3 n=46 v=0
5461458 On ch=3 n=23 v=100
5461616 Off ch=3 n=23 v=0
5461801 On ch=3 n=24 v=100
5461849 On ch=3 n=13 v=100
5461995 Off ch=3 n=24 v=0
5462043 On ch=3 n=17 v=100
5462043 On ch=3 n=17 v=100
5462095 On ch=3 n=12 v=100
5462433 Off ch=3 n=13 v=0
5462476 Off ch=3 n=12 v=0
5462526 Off ch=3 n=17 v=0
5462526 Off ch=3 n=17 v=0
5462854 On ch=3 n=21 v=100
5462940 Off ch=3 n=21 v=0
5462967 On ch=3 n=31 v=100
5463017 On ch=3 n=10 v=100
5463146 Off ch=3 n=31 v=0
5464256 On ch=3 n=35 v=100
5464398 Off ch=3 n=10 v=0
5464458 Off ch=3 n=35 v=0
5464662 On ch=3 n=42 v=100
5464739 On ch=3 n=41 v=100
5464791 On ch=3 n=45 v=100
5464810 On ch=3 n=28 v=100
5464833 On ch=3 n=16 v=100
5464842 Off ch=3 n=42 v=0
5464844 On ch=3 n=22 v=100
5464889 Off ch=3 n=41 v=0
5464915 Off ch=3 n=28 v=0
5464915 Off ch=3 n=16 v=0
5464915 Off ch=3 n=22 v=0
5464923 Off ch=3 n=45 v=0
5465013 On ch=3 n=8 v=100
5465287 Off ch=3 n=8 v=0
5465527 On ch=3 n=42 v=100
5465575 Off ch=3 n=42 v=0
5466185 On ch=3 n=16 v=100
5466221 On ch=3 n=30 v=100
5466393 Off ch=3 n=16 v=0
5466466 On ch=3 n=30 v=100
5466855 Off ch=3 n=30 v=0
5467078 Off ch=3 n=30 v=0
5467096 On ch=3 n=16 v=100
5467306 Off ch=3 n=16 v=0
5467421 On ch=3 n=25 v=100
5467421 On ch=3 n=25 v=100
5467548 On ch=3 n=13 v=100
5467559 On ch=3 n=34 v=100
5467559 On ch=3 n=34 v=100
5467863 Off ch=3 n=25 v=0
5467863 Off ch=3 n=25 v=0
5467919 Off ch=3 n=13 v=0
5468111 Off ch=3 n=34 v=0
5468111 Off ch=3 n=34 v=0
5468874 On ch=3 n=44 v=100
5468874 On ch=3 n=44 v=100
5468916 On ch=3 n=41 v=100
5468916 On ch=3 n=41 v=100
5468939 On ch=3 n=23 v=100
5468939 On ch=3 n=23 v=100
5468952 On ch=3 n=16 v=100
5469145 Off ch=3 n=16 v=0
5469146 Off ch=3 n=44 v=0
5469146 Off ch=3 n=44 v=0
5469159 Off ch=3 n=23 v=0
5469159 Off ch=3 n=23 v=0
5469233 Off ch=3 n=41 v=0
5469233 Off ch=3 n=41 v=0
5469464 On ch=3 n=6 v=100
5469537 On ch=3 n=9 v=100
5469804 Off ch=3 n=6 v=0
5469838 Off ch=3 n=9 v=0
5469938 On ch=3 n=11 v=100
5469993 On ch=3 n=14 v=100
5470141 Off ch=3 n=11 v=0
5470168 Off ch=3 n=14 v=0
5470242 On ch=3 n=36 v=100
5470402 Off ch=3 n=36 v=0
5471029 On ch=3 n=21 v=100
5471029 On ch=3 n=20 v=100
5471176 Off ch=3 n=21 v=0
5471194 Off ch=3 n=20 v=0
5471965 On ch=3 n=16 v=100
5472152 Off ch=3 n=16 v=0
5472454 On ch=3 n=50 v=100
5472659 On ch=3 n=19 v=100
5472659 On ch=3 n=13 v=100
5472937 Off ch=3 n=13 v=0
5472948 On ch=3 n=14 v=100
5472948 Off ch=3 n=50 v=0
5472981 Off ch=3 n=19 v=0
5472999 Off ch=3 n=14 v=0
5473041 On ch=3 n=45 v=100
5473139 Off ch=3 n=45 v=0
5473291 On ch=3 n=8 v=100
5473315 Off ch=3 n=8 v=0
5473334 On ch=3 n=11 v=100
5473621 Off ch=3 n=11 v=0
5474096 On ch=3 n=38 v=100
5474096 On ch=3 n=38 v=100
5474703 Off ch=3 n=38 v=0
5474703 Off ch=3 n=38 v=0
5475119 On ch=3 n=9 v=100
5475316 Off ch=3 n=9 v=0
5475432 On ch=3 n=9 v=100
5475495 Off ch=3 n=9 v=0
5475831 On ch=3 n=5 v=100
5477270 Off ch=3 n=5 v=0
5477613 On ch=3 n=19 v=100
5477801 On ch=3 n=19 v=100
5477867 Off ch=3 n=19 v=0
5477893 Off ch=3 n=19 v=0
5479259 On ch=3 n=43 v=100
5479359 Off ch=3 n=43 v=0
5479366 On ch=3 n=19 v=100
5479454 Off ch=3 n=19 v=0
5479469 On ch=3 n=33 v=100
5479748 On ch=3 n=12 v=100
5479900 Off ch=3 n=33 v=0
5480240 Off ch=3 n=12 v=0
5480378 On ch=3 n=35 v=100
5480568 Off ch=3 n=35 v=0
5481501 On ch=3 n=20 v=100
5481562 On ch=3 n=16 v=100
5481597 On ch=3 n=17 v=100
5481610 On ch=3 n=13 v=100
5481660 On ch=3 n=20 v=100
5481891 Off ch=3 n=20 v=0
5482014 Off ch=3 n=16 v=0
5482033 Off ch=3 n=13 v=0
5482074 Off ch=3 n=17 v=0
5482074 Off ch=3 n=20 v=0
5482107 On ch=3 n=17 v=100
5482107 On ch=3 n=20 v=100
5482139 Off ch=3 n=17 v=0
5482694 On ch=3 n=10 v=100
5482729 Off ch=3 n=20 v=0
5482736 Off ch=3 n=10 v=0
5482751 On ch=3 n=19 v=100
5483305 Off ch=3 n=19 v=0
5483423 On ch=3 n=10 v=100
5483634 Off ch=3 n=10 v=0
5483637 On ch=3 n=20 v=100
5483649 On ch=3 n=13 v=100
5483747 Off ch=3 n=20 v=0
5483748 Off ch=3 n=13 v=0
5488536 On ch=3 n=22 v=100
5488799 Off ch=3 n=22 v=0
5495816 On ch=3 n=36 v=100
5495919 Off ch=3 n=36 v=0
5496100 On ch=3 n=41 v=100
5496197 On ch=3 n=34 v=100
5496239 On ch=3 n=53 v=100
5496367 Off ch=3 n=41 v=0
5496431 Off ch=3 n=34 v=0
5496511 Off ch=3 n=53 v=0
5498411 On ch=3 n=7 v=100
5498714 On ch=3 n=10 v=100
5498716 Off ch=3 n=7 v=0
5499166 Off ch=3 n=10 v=0
5499220 On ch=3 n=10 v=100
5499578 Off ch=3 n=10 v=0
5502740 On ch=3 n=52 v=100
5502767 On ch=3 n=31 v=100
5502909 On ch=3 n=16 v=100
5502909 Off ch=3 n=52 v=0
5502909 Off ch=3 n=31 v=0
5503261 Off ch=3 n=16 v=0
5506232 On ch=3 n=28 v=100
5506441 Off ch=3 n=28 v=0
5507524 On ch=3 n=35 v=100
5507566 On ch=3 n=25 v=100
5507821 Off ch=3 n=35 v=0
5507863 Off ch=3 n=25 v=0
5508128 On ch=3 n=25 v=100
5508852 On ch=3 n=25 v=100
5508899 Off ch=3 n=25 v=0
5509192 Off ch=3 n=25 v=0
5510614 On ch=3 n=51 v=100
5510672 On ch=3 n=51 v=100
5510683 On ch=3 n=35 v=100
5510882 On ch=3 n=20 v=100
5510889 Off ch=3 n=51 v=0
5510897 Off ch=3 n=35 v=0
5510898 On ch=3 n=6 v=100
5511025 Off ch=3 n=20 v=0
5511265 Off ch=3 n=6 v=0
5511271 Off ch=3 n=51 v=0
5511383 On ch=3 n=51 v=100
5511385 On ch=3 n=20 v=100
5511385 On ch=3 n=32 v=100
5511437 On ch=3 n=37 v=100
5511465 Off ch=3 n=51 v=0
5511481 Off ch=3 n=20 v=0
5511541 Off ch=3 n=32 v=0
5511604 Off ch=3 n=37 v=0
5511758 On ch=3 n=33 v=100
5511858 On ch=3 n=16 v=100
5512194 On ch=3 n=19 v=100
5512197 On ch=3 n=18 v=100
5512286 Off ch=3 n=16 v=0
5512287 Off ch=3 n=33 v=0
5512291 On ch=3 n=25 v=100
5512321 Off ch=3 n=18 v=0
5512372 Off ch=3 n=19 v=0
5512649 Off ch=3 n=25 v=0
5517221 On ch=3 n=45 v=100
5517337 Off ch=3 n=45 v=0
5517829 On ch=3 n=35 v=100
5517868 On ch=3 n=8 v=100
5517869 On ch=3 n=24 v=100
5518090 Off ch=3 n=35 v=0
5518090 Off ch=3 n=8 v=0
5518203 Off ch=3 n=24 v=0
5525886 On ch=3 n=28 v=100
5525886 On ch=3 n=28 v=100
5525899 On ch=3 n=20 v=100
5525899 On ch=3 n=20 v=100
5525906 On ch=3 n=17 v=100
5526000 Off ch=3 n=28 v=0
5526000 Off ch=3 n=28 v=0
5526184 Off ch=3 n=17 v=0
5526210 Off ch=3 n=20 v=0
5526210 Off ch=3 n=20 v=0
5528638 On ch=3 n=8 v=100
5528863 On ch=3 n=13 v=100
5528866 Off ch=3 n=8 v=0
5528997 Off ch=3 n=13 v=0
5529429 On ch=3 n=36 v=100
5529569 Off ch=3 n=36 v=0
5529731 On ch=3 n=22 v=100
5529811 On ch=3 n=14 v=100
5529977 Off ch=3 n=22 v=0
5529982 On ch=3 n=38 v=100
5530053 Off ch=3 n=14 v=0
5530053 Off ch=3 n=38 v=0
5530113 On ch=3 n=38 v=100
5530147 Off ch=3 n=38 v=0
5530181 On ch=3 n=38 v=100
5530256 Off ch=3 n=38 v=0
5530323 On ch=3 n=38 v=100
5530323 On ch=3 n=22 v=100
5530441 On ch=3 n=19 v=100
5530443 On ch=3 n=12 v=100
5530723 Off ch=3 n=22 v=0
5530726 On ch=3 n=5 v=100
5530733 Off ch=3 n=38 v=0
5530735 Off ch=3 n=12 v=0
5530814 Off ch=3 n=19 v=0
5530844 Off ch=3 n=5 v=0
5530981 On ch=3 n=25 v=100
5531126 Off ch=3 n=25 v=0
5531128 On ch=3 n=42 v=100
5531128 On ch=3 n=20 v=100
5531352 Off ch=3 n=20 v=0
5531411 On ch=3 n=12 v=100
5531659 Off ch=3 n=42 v=0
5531659 Off ch=3 n=12 v=0
5531673 On ch=3 n=23 v=100
5531748 On ch=3 n=23 v=100
5532137 Off ch=3 n=23 v=0
5532229 Off ch=3 n=23 v=0
5532779 On ch=3 n=26 v=100
5532799 On ch=3 n=15 v=100
5532833 On ch=3 n=35 v=100
5532895 Off ch=3 n=26 v=0
5532965 On ch=3 n=34 v=100
5533079 Off ch=3 n=15 v=0
5533355 Off ch=3 n=35 v=0
5534123 On ch=3 n=11 v=100
5534515 Off ch=3 n=34 v=0
5534553 Off ch=3 n=11 v=0
5534773 On ch=3 n=20 v=100
5534939 On ch=3 n=46 v=100
5535001 Off ch=3 n=20 v=0
5535007 On ch=3 n=46 v=100
5535041 Off ch=3 n=46 v=0
5535085 Off ch=3 n=46 v=0
5535393 On ch=3 n=25 v=100
5535458 On ch=3 n=21 v=100
5535458 On ch=3 n=21 v=100
5535471 On ch=3 n=12 v=100
5535515 On ch=3 n=17 v=100
5535525 On ch=3 n=7 v=100
5535531 On ch=3 n=32 v=100
5535652 Off ch=3 n=25 v=0
5535871 Off ch=3 n=7 v=0
5535873 Off ch=3 n=12 v=0
5535919 Off ch=3 n=21 v=0
5535919 Off ch=3 n=21 v=0
5535987 Off ch=3 n=17 v=0
5536113 Off ch=3 n=32 v=0
5537960 On ch=3 n=7 v=100
5538540 On ch=3 n=13 v=100
5538543 Off ch=3 n=7 v=0
5538654 Off ch=3 n=13 v=0
5539193 On ch=3 n=28 v=100
5539220 On ch=3 n=37 v=100
5539229 On ch=3 n=19 v=100
5539409 Off ch=3 n=28 v=0
5539415 Off ch=3 n=19 v=0
5539455 Off ch=3 n=37 v=0
5539458 On ch=3 n=7 v=100
5539756 On ch=3 n=51 v=100
5539758 Off ch=3 n=7 v=0
5539759 On ch=3 n=28 v=100
5539765 On ch=3 n=14 v=100
5539915 On ch=3 n=33 v=100
5539945 On ch=3 n=19 v=100
5539945 Off ch=3 n=14 v=0
5539950 On ch=3 n=15 v=100
5540004 Off ch=3 n=28 v=0
5540056 Off ch=3 n=51 v=0
5540144 Off ch=3 n=33 v=0
5540209 Off ch=3 n=15 v=0
5540245 Off ch=3 n=19 v=0
5540851 On ch=3 n=21 v=100
5541084 Off ch=3 n=21 v=0
5541701 On ch=3 n=10 v=100
5542665 Off ch=3 n=10 v=0
5543203 On ch=3 n=22 v=100
5543230 On ch=3 n=16 v=100
5543233 On ch=3 n=25 v=100
5543345 Off ch=3 n=22 v=0
5543366 Off ch=3 n=16 v=0
5543413 Off ch=3 n=25 v=0
5543856 On ch=3 n=32 v=100
5543891 On ch=3 n=14 v=100
5544094 Off ch=3 n=32 v=0
5544342 On ch=3 n=32 v=100
5544489 Off ch=3 n=14 v=0
5544805 On ch=3 n=18 v=100
5544845 Off ch=3 n=32 v=0
5544879 On ch=3 n=9 v=100
5544900 Off ch=3 n=18 v=0
5544914 On ch=3 n=16 v=100
5544998 Off ch=3 n=9 v=0
5545243 On ch=3 n=17 v=100
5545243 On ch=3 n=17 v=100
5545287 On ch=3 n=11 v=100
5545289 Off ch=3 n=16 v=0
5545299 On ch=3 n=23 v=100
5545677 Off ch=3 n=11 v=0
5545690 Off ch=3 n=17 v=0
5545690 Off ch=3 n=17 v=0
5545757 On ch=3 n=38 v=100
5545828 Off ch=3 n=23 v=0
5545846 Off ch=3 n=38 v=0
5546134 On ch=3 n=13 v=100
5546165 On ch=3 n=10 v=100
5546299 Off ch=3 n=13 v=0
5546333 Off ch=3 n=10 v=0
5546334 On ch=3 n=5 v=100
5546511 On ch=3 n=32 v=100
5546553 Off ch=3 n=5 v=0
5546555 On ch=3 n=12 v=100
5546623 Off ch=3 n=32 v=0
5546639 Off ch=3 n=12 v=0
5546677 On ch=3 n=25 v=100
5546834 Off ch=3 n=25 v=0
5548136 On ch=3 n=5 v=100
5548222 Off ch=3 n=5 v=0
5552488 On ch=3 n=39 v=100
5552724 Off ch=3 n=39 v=0
5552743 On ch=3 n=14 v=100
5553111 On ch=3 n=35 v=100
5553177 Off ch=3 n=14 v=0
5553180 On ch=3 n=16 v=100
5553438 Off ch=3 n=35 v=0
5553449 Off ch=3 n=16 v=0
5553850 On ch=3 n=11 v=100
5554406 Off ch=3 n=11 v=0
5554412 On ch=3 n=11 v=100
5554713 Off ch=3 n=11 v=0
5554724 On ch=3 n=15 v=100
5554785 On ch=3 n=9 v=100
5554788 Off ch=3 n=15 v=0
5555269 Off ch=3 n=9 v=0
5555307 On ch=3 n=9 v=100
5555553 Off ch=3 n=9 v=0
5556055 On ch=3 n=21 v=100
5556131 On ch=3 n=19 v=100
5556158 Off ch=3 n=21 v=0
5556170 Off ch=3 n=19 v=0
5556173 On ch=3 n=7 v=100
5556484 Off ch=3 n=7 v=0
5556486 On ch=3 n=8 v=100
5556537 Off ch=3 n=8 v=0
5557020 On ch=3 n=7 v=100
5557433 On ch=3 n=40 v=100
5557433 On ch=3 n=40 v=100
5557585 Off ch=3 n=7 v=0
5557590 On ch=3 n=28 v=100
5557680 Off ch=3 n=40 v=0
5557680 Off ch=3 n=40 v=0
5557949 Off ch=3 n=28 v=0
5557967 On ch=3 n=10 v=100
5558713 Off ch=3 n=10 v=0
5558724 On ch=3 n=26 v=100
5558866 Off ch=3 n=26 v=0
5558933 On ch=3 n=21 v=100
5559240 Off ch=3 n=21 v=0
5559669 On ch=3 n=37 v=100
5559952 Off ch=3 n=37 v=0
5560870 On ch=3 n=28 v=100
5560939 Off ch=3 n=28 v=0
5560954 On ch=3 n=22 v=100
5561189 On ch=3 n=23 v=100
5561195 Off ch=3 n=22 v=0
5561506 Off ch=3 n=23 v=0
5562372 On ch=3 n=35 v=100
5562561 Off ch=3 n=35 v=0
5562908 On ch=3 n=17 v=100
5563219 Off ch=3 n=17 v=0
5563277 On ch=3 n=17 v=100
5563373 Off ch=3 n=17 v=0
5563513 On ch=3 n=25 v=100
5563577 Off ch=3 n=25 v=0
5563601 On ch=3 n=7 v=100
5564650 Off ch=3 n=7 v=0
5565034 On ch=3 n=56 v=100
5565034 On ch=3 n=22 v=100
5565084 Off ch=3 n=22 v=0
5565148 Off ch=3 n=56 v=0
5565378 On ch=3 n=20 v=100
5565433 Off ch=3 n=20 v=0
5565781 On ch=3 n=24 v=100
5566365 On ch=3 n=42 v=100
5566408 Off ch=3 n=24 v=0
5566408 Off ch=3 n=42 v=0
5566457 On ch=3 n=24 v=100
5566457 On ch=3 n=42 v=100
5566578 Off ch=3 n=24 v=0
5566716 On ch=3 n=12 v=100
5566767 Off ch=3 n=42 v=0
5568027 Off ch=3 n=12 v=0
5568429 On ch=3 n=14 v=100
5568587 On ch=3 n=11 v=100
5568639 Off ch=3 n=14 v=0
5569077 On ch=3 n=37 v=100
5569104 Off ch=3 n=11 v=0
5569182 On ch=3 n=23 v=100
5569198 Off ch=3 n=37 v=0
5569316 On ch=3 n=15 v=100
5569317 Off ch=3 n=23 v=0
5569406 On ch=3 n=21 v=100
5569460 On ch=3 n=16 v=100
5569521 Off ch=3 n=15 v=0
5569580 On ch=3 n=18 v=100
5569846 On ch=3 n=26 v=100
5569862 Off ch=3 n=21 v=0
5569924 Off ch=3 n=16 v=0
5570004 Off ch=3 n=18 v=0
5570226 Off ch=3 n=26 v=0
5570275 On ch=3 n=19 v=100
5570442 Off ch=3 n=19 v=0
5571438 On ch=3 n=33 v=100
5571467 On ch=3 n=29 v=100
5571482 On ch=3 n=29 v=100
5571534 On ch=3 n=21 v=100
5571545 Off ch=3 n=33 v=0
5571590 Off ch=3 n=29 v=0
5571621 Off ch=3 n=29 v=0
5571689 Off ch=3 n=21 v=0
5571735 On ch=3 n=20 v=100
5571865 Off ch=3 n=20 v=0
5572115 On ch=3 n=18 v=100
5572255 Off ch=3 n=18 v=0
5573392 On ch=3 n=28 v=100
5573410 On ch=3 n=20 v=100
5573560 Off ch=3 n=28 v=0
5573643 Off ch=3 n=20 v=0
5573722 On ch=3 n=6 v=100
5573921 Off ch=3 n=6 v=0
5573923 On ch=3 n=9 v=100
5574659 Off ch=3 n=9 v=0
5574704 On ch=3 n=22 v=100
5574983 On ch=3 n=15 v=100
5575044 On ch=3 n=18 v=100
5575064 Off ch=3 n=22 v=0
5575113 Off ch=3 n=15 v=0
5575130 Off ch=3 n=18 v=0
5575937 On ch=3 n=27 v=100
5576038 On ch=3 n=6 v=100
5576523 Off ch=3 n=27 v=0
5576563 On ch=3 n=16 v=100
5576702 Off ch=3 n=6 v=0
5576720 Off ch=3 n=16 v=0
5576866 On ch=3 n=10 v=100
5577293 Off ch=3 n=10 v=0
5577462 On ch=3 n=4 v=100
5577515 Off ch=3 n=4 v=0
5577525 On ch=3 n=7 v=100
5578088 Off ch=3 n=7 v=0
5578092 On ch=3 n=7 v=100
5578187 Off ch=3 n=7 v=0
5578189 On ch=3 n=28 v=100
5578482 Off ch=3 n=28 v=0
5578488 On ch=3 n=10 v=100
5578529 Off ch=3 n=10 v=0
5579487 On ch=3 n=26 v=100
5579540 On ch=3 n=17 v=100
5579632 On ch=3 n=6 v=100
5579860 Off ch=3 n=17 v=0
5579862 Off ch=3 n=6 v=0
5579865 Off ch=3 n=26 v=0
5579897 On ch=3 n=11 v=100
5580214 Off ch=3 n=11 v=0
5580325 On ch=3 n=12 v=100
5580951 On ch=3 n=14 v=100
5580980 Off ch=3 n=12 v=0
5581339 Off ch=3 n=14 v=0
5581342 On ch=3 n=8 v=100
5581539 Off ch=3 n=8 v=0
5582471 On ch=3 n=39 v=100
5582471 On ch=3 n=39 v=100
5582847 On ch=3 n=24 v=100
5582898 On ch=3 n=29 v=100
5582898 On ch=3 n=29 v=100
5583253 Off ch=3 n=24 v=0
5583386 Off ch=3 n=29 v=0
5583386 Off ch=3 n=29 v=0
5583391 Off ch=3 n=39 v=0
5583391 Off ch=3 n=39 v=0
5583740 On ch=3 n=26 v=100
5583841 Off ch=3 n=26 v=0
5584328 On ch=3 n=12 v=100
5584848 Off ch=3 n=12 v=0
5584991 On ch=3 n=24 v=100
5585351 Off ch=3 n=24 v=0
5585417 On ch=3 n=40 v=100
5585468 Off ch=3 n=40 v=0
5585706 On ch=3 n=19 v=100
5585792 Off ch=3 n=19 v=0
5587005 On ch=3 n=5 v=100
5587783 Off ch=3 n=5 v=0
5588087 On ch=3 n=30 v=100
5588408 Off ch=3 n=30 v=0
5589267 On ch=3 n=28 v=100
5589267 On ch=3 n=38 v=100
5589288 On ch=3 n=42 v=100
5589312 Off ch=3 n=28 v=0
5589325 Off ch=3 n=38 v=0
5589358 Off ch=3 n=42 v=0
5589746 On ch=3 n=26 v=100
5589746 On ch=3 n=26 v=100
5589765 On ch=3 n=26 v=100
5589899 On ch=3 n=7 v=100
5589903 Off ch=3 n=26 v=0
5589940 Off ch=3 n=26 v=0
5589940 Off ch=3 n=26 v=0
5590867 On ch=3 n=32 v=100
5590894 Off ch=3 n=7 v=0
5591122 Off ch=3 n=32 v=0
5591198 On ch=3 n=38 v=100
5591267 On ch=3 n=46 v=100
5591355 Off ch=3 n=38 v=0
5591431 Off ch=3 n=46 v=0
5593372 On ch=3 n=8 v=100
5594123 Off ch=3 n=8 v=0
5594522 On ch=3 n=9 v=100
5594854 Off ch=3 n=9 v=0
5594871 On ch=3 n=12 v=100
5595030 Off ch=3 n=12 v=0
5596207 On ch=3 n=24 v=100
5596381 On ch=3 n=12 v=100
5596385 Off ch=3 n=24 v=0
5596481 Off ch=3 n=12 v=0
5596831 On ch=3 n=11 v=100
5599764 Off ch=3 n=11 v=0
5599842 On ch=3 n=11 v=100
5601925 Off ch=3 n=11 v=0
5601979 On ch=3 n=11 v=100
5603524 On ch=3 n=31 v=100
5603560 Off ch=3 n=11 v=0
5603561 On ch=3 n=16 v=100
5603802 On ch=3 n=16 v=100
5603859 Off ch=3 n=16 v=0
5603862 Off ch=3 n=31 v=0
5605038 On ch=3 n=18 v=100
5605038 Off ch=3 n=16 v=0
5605432 On ch=3 n=8 v=100
5605433 Off ch=3 n=18 v=0
5608699 Off ch=3 n=8 v=0
5608701 On ch=3 n=7 v=100
5608862 On ch=3 n=10 v=100
5609045 Off ch=3 n=7 v=0
5609419 On ch=3 n=2 v=100
5609549 On ch=3 n=19 v=100
5609577 Off ch=3 n=10 v=0
5609605 Off ch=3 n=2 v=0
5609725 On ch=3 n=8 v=100
5609727 Off ch=3 n=19 v=0
5610152 On ch=3 n=8 v=100
5610152 Off ch=3 n=8 v=0
5610378 Off ch=3 n=8 v=0
5611248 On ch=3 n=14 v=100
5611308 Off ch=3 n=14 v=0
5613300 On ch=3 n=16 v=100
5613310 On ch=3 n=28 v=100
5613403 On ch=3 n=10 v=100
5613411 Off ch=3 n=16 v=0
5613427 Off ch=3 n=28 v=0
5613507 On ch=3 n=15 v=100
5613511 Off ch=3 n=10 v=0
5613974 Off ch=3 n=15 v=0
5613982 On ch=3 n=35 v=100
5614115 On ch=3 n=18 v=100
5614115 On ch=3 n=28 v=100
5614121 Off ch=3 n=35 v=0
5614168 Off ch=3 n=18 v=0
5614173 On ch=3 n=54 v=100
5614184 Off ch=3 n=28 v=0
5614373 Off ch=3 n=54 v=0
5614419 On ch=3 n=12 v=100
5614482 Off ch=3 n=12 v=0
5615211 On ch=3 n=5 v=100
5615438 On ch=3 n=17 v=100
5615438 On ch=3 n=17 v=100
5615528 On ch=3 n=18 v=100
5615571 Off ch=3 n=5 v=0
5615579 On ch=3 n=19 v=100
5615579 On ch=3 n=19 v=100
5615595 On ch=3 n=25 v=100
5615595 On ch=3 n=25 v=100
5615965 Off ch=3 n=17 v=0
5615965 Off ch=3 n=18 v=0
5615965 Off ch=3 n=17 v=0
5616077 Off ch=3 n=19 v=0
5616077 Off ch=3 n=19 v=0
5616165 On ch=3 n=16 v=100
5616176 Off ch=3 n=25 v=0
5616176 Off ch=3 n=25 v=0
5616610 Off ch=3 n=16 v=0
5616758 On ch=3 n=16 v=100
5616821 Off ch=3 n=16 v=0
5616834 On ch=3 n=15 v=100
5617232 Off ch=3 n=15 v=0
5617381 On ch=3 n=15 v=100
5617394 Off ch=3 n=15 v=0
5617594 On ch=3 n=13 v=100
5617903 On ch=3 n=16 v=100
5617941 Off ch=3 n=13 v=0
5618509 Off ch=3 n=16 v=0
5618519 On ch=3 n=24 v=100
5618583 On ch=3 n=25 v=100
5618626 Off ch=3 n=24 v=0
5618635 Off ch=3 n=25 v=0
5618696 On ch=3 n=8 v=100
5619019 On ch=3 n=12 v=100
5619082 Off ch=3 n=8 v=0
5619082 Off ch=3 n=12 v=0
5619186 On ch=3 n=7 v=100
5619186 On ch=3 n=15 v=100
5619557 Off ch=3 n=7 v=0
5619692 Off ch=3 n=15 v=0
5620535 On ch=3 n=11 v=100
5621146 On ch=3 n=40 v=100
5621232 Off ch=3 n=11 v=0
5621249 Off ch=3 n=40 v=0
5621634 On ch=3 n=32 v=100
5622265 On ch=3 n=16 v=100
5622302 On ch=3 n=24 v=100
5622340 On ch=3 n=25 v=100
5622366 Off ch=3 n=32 v=0
5622658 Off ch=3 n=16 v=0
5622747 Off ch=3 n=24 v=0
5622802 Off ch=3 n=25 v=0
5622957 On ch=3 n=13 v=100
5623398 Off ch=3 n=13 v=0
5623555 On ch=3 n=9 v=100
5624339 Off ch=3 n=9 v=0
5624391 On ch=3 n=40 v=100
5624494 Off ch=3 n=40 v=0
5625267 On ch=3 n=34 v=100
5625320 On ch=3 n=35 v=100
5625339 Off ch=3 n=34 v=0
5625373 On ch=3 n=34 v=100
5625405 Off ch=3 n=35 v=0
5625450 Off ch=3 n=34 v=0
5625839 On ch=3 n=9 v=100
5626212 Off ch=3 n=9 v=0
5626301 On ch=3 n=26 v=100
5626476 Off ch=3 n=26 v=0
5626563 On ch=3 n=27 v=100
5626563 On ch=3 n=27 v=100
5626740 On ch=3 n=5 v=100
5626795 Off ch=3 n=27 v=0
5626795 Off ch=3 n=27 v=0
5627010 Off ch=3 n=5 v=0
5628196 On ch=3 n=48 v=100
5628673 On ch=3 n=3 v=100
5628822 Off ch=3 n=48 v=0
5629070 Off ch=3 n=3 v=0
5629669 On ch=3 n=11 v=100
5630066 Off ch=3 n=11 v=0
5630088 On ch=3 n=16 v=100
5630423 Off ch=3 n=16 v=0
5630463 On ch=3 n=31 v=100
5630566 Off ch=3 n=31 v=0
5632755 On ch=3 n=22 v=100
5632966 Off ch=3 n=22 v=0
5632968 On ch=3 n=25 v=100
5633092 Off ch=3 n=25 v=0
5633097 On ch=3 n=22 v=100
5633259 Off ch=3 n=22 v=0
5633555 On ch=3 n=18 v=100
5633592 On ch=3 n=7 v=100
5633698 Off ch=3 n=18 v=0
5634564 Off ch=3 n=7 v=0
5634578 On ch=3 n=33 v=100
5634790 Off ch=3 n=33 v=0
5638074 On ch=3 n=4 v=100
5638174 Off ch=3 n=4 v=0
5638178 On ch=3 n=9 v=100
5638675 On ch=3 n=6 v=100
5638675 Off ch=3 n=9 v=0
5638991 On ch=3 n=34 v=100
5639027 Off ch=3 n=6 v=0
5639032 On ch=3 n=28 v=100
5639100 On ch=3 n=20 v=100
5639141 Off ch=3 n=34 v=0
5639240 On ch=3 n=34 v=100
5639529 Off ch=3 n=28 v=0
5639529 Off ch=3 n=20 v=0
5639559 On ch=3 n=19 v=100
5639788 Off ch=3 n=34 v=0
5640033 Off ch=3 n=19 v=0
5640381 On ch=3 n=46 v=100
5640381 On ch=3 n=46 v=100
5640404 On ch=3 n=27 v=100
5640404 On ch=3 n=27 v=100
5640461 On ch=3 n=24 v=100
5640461 On ch=3 n=35 v=100
5640470 On ch=3 n=20 v=100
5640474 On ch=3 n=39 v=100
5640474 On ch=3 n=39 v=100
5640559 Off ch=3 n=46 v=0
5640559 Off ch=3 n=46 v=0
5640785 Off ch=3 n=20 v=0
5640793 Off ch=3 n=27 v=0
5640793 Off ch=3 n=27 v=0
5640814 Off ch=3 n=24 v=0
5640890 Off ch=3 n=35 v=0
5640917 On ch=3 n=41 v=100
5640997 On ch=3 n=7 v=100
5641003 Off ch=3 n=39 v=0
5641003 Off ch=3 n=39 v=0
5641099 Off ch=3 n=41 v=0
5641725 Off ch=3 n=7 v=0
5641728 On ch=3 n=12 v=100
5641789 Off ch=3 n=12 v=0
5642610 On ch=3 n=28 v=100
5642771 Off ch=3 n=28 v=0
5642820 On ch=3 n=45 v=100
5642929 Off ch=3 n=45 v=0
5642987 On ch=3 n=13 v=100
5643975 Off ch=3 n=13 v=0
5643979 On ch=3 n=10 v=100
5644375 Off ch=3 n=10 v=0
5644545 On ch=3 n=26 v=100
5644776 Off ch=3 n=26 v=0
5644785 On ch=3 n=12 v=100
5645624 Off ch=3 n=12 v=0
5646626 On ch=3 n=39 v=100
5646689 On ch=3 n=20 v=100
5646935 Off ch=3 n=39 v=0
5647012 Off ch=3 n=20 v=0
5647075 On ch=3 n=20 v=100
5647178 Off ch=3 n=20 v=0
5648148 On ch=3 n=8 v=100
5649189 Off ch=3 n=8 v=0
5649214 On ch=3 n=5 v=100
5649573 On ch=3 n=11 v=100
5649577 Off ch=3 n=5 v=0
5649769 On ch=3 n=12 v=100
5649826 Off ch=3 n=11 v=0
5649830 On ch=3 n=7 v=100
5649977 Off ch=3 n=12 v=0
5649977 Off ch=3 n=7 v=0
5649978 On ch=3 n=12 v=100
5650021 Off ch=3 n=12 v=0
5650024 On ch=3 n=7 v=100
5650280 Off ch=3 n=7 v=0
5650289 On ch=3 n=4 v=100
5651140 Off ch=3 n=4 v=0
5651142 On ch=3 n=12 v=100
5651226 Off ch=3 n=12 v=0
5652730 On ch=3 n=10 v=100
5653110 Off ch=3 n=10 v=0
5653121 On ch=3 n=7 v=100
5653227 Off ch=3 n=7 v=0
5653230 On ch=3 n=15 v=100
5653712 Off ch=3 n=15 v=0
5653713 On ch=3 n=14 v=100
5653992 Off ch=3 n=14 v=0
5654017 On ch=3 n=31 v=100
5654054 On ch=3 n=16 v=100
5654337 On ch=3 n=21 v=100
5654345 Off ch=3 n=31 v=0
5654474 On ch=3 n=10 v=100
5654478 Off ch=3 n=16 v=0
5654520 Off ch=3 n=21 v=0
5654598 Off ch=3 n=10 v=0
5655593 On ch=3 n=35 v=100
5655597 On ch=3 n=19 v=100
5655794 Off ch=3 n=19 v=0
5655979 Off ch=3 n=35 v=0
5656371 On ch=3 n=28 v=100
5656455 On ch=3 n=6 v=100
5656532 Off ch=3 n=28 v=0
5657110 On ch=3 n=8 v=100
5657110 Off ch=3 n=6 v=0
5657417 On ch=3 n=22 v=100
5657465 Off ch=3 n=8 v=0
5657522 On ch=3 n=9 v=100
5657640 Off ch=3 n=22 v=0
5657640 Off ch=3 n=9 v=0
5659576 On ch=3 n=44 v=100
5659726 Off ch=3 n=44 v=0
5660141 On ch=3 n=81 v=100
5660187 On ch=3 n=9 v=100
5660246 Off ch=3 n=81 v=0
5660843 On ch=3 n=8 v=100
5660853 Off ch=3 n=9 v=0
5661241 Off ch=3 n=8 v=0
5661242 On ch=3 n=10 v=100
5661368 Off ch=3 n=10 v=0
5661369 On ch=3 n=9 v=100
5661575 Off ch=3 n=9 v=0
5661576 On ch=3 n=20 v=100
5661708 Off ch=3 n=20 v=0
5662980 On ch=3 n=22 v=100
5662992 On ch=3 n=39 v=100
5663143 Off ch=3 n=22 v=0
5663196 Off ch=3 n=39 v=0
5664443 On ch=3 n=25 v=100
5664443 On ch=3 n=25 v=100
5664456 On ch=3 n=20 v=100
5664559 On ch=3 n=8 v=100
5664787 On ch=3 n=13 v=100
5664796 Off ch=3 n=20 v=0
5664810 On ch=3 n=7 v=100
5664812 Off ch=3 n=8 v=0
5664824 Off ch=3 n=25 v=0
5664824 Off ch=3 n=25 v=0
5664849 Off ch=3 n=13 v=0
5664849 Off ch=3 n=7 v=0
5664852 On ch=3 n=2 v=100
5665644 Off ch=3 n=2 v=0
5665850 On ch=3 n=10 v=100
5665860 Off ch=3 n=10 v=0
5666767 On ch=3 n=13 v=100
5667267 Off ch=3 n=13 v=0
5667592 On ch=3 n=51 v=100
5667645 On ch=3 n=21 v=100
5667749 Off ch=3 n=51 v=0
5667957 Off ch=3 n=21 v=0
5668835 On ch=3 n=17 v=100
5669148 Off ch=3 n=17 v=0
5670876 On ch=3 n=10 v=100
5671090 On ch=3 n=32 v=100
5671441 Off ch=3 n=10 v=0
5671494 Off ch=3 n=32 v=0
5671729 On ch=3 n=24 v=100
5671809 Off ch=3 n=24 v=0
5671824 On ch=3 n=35 v=100
5671884 Off ch=3 n=35 v=0
5671916 On ch=3 n=33 v=100
5672037 On ch=3 n=36 v=100
5672065 On ch=3 n=21 v=100
5672091 Off ch=3 n=33 v=0
5672189 Off ch=3 n=36 v=0
5672260 Off ch=3 n=21 v=0
5672719 On ch=3 n=35 v=100
5672796 On ch=3 n=22 v=100
5672800 On ch=3 n=40 v=100
5672989 On ch=3 n=64 v=100
5673048 Off ch=3 n=35 v=0
5673060 Off ch=3 n=22 v=0
5673147 Off ch=3 n=40 v=0
5673169 Off ch=3 n=64 v=0
5673669 On ch=3 n=32 v=100
5673692 On ch=3 n=23 v=100
5673727 On ch=3 n=29 v=100
5673785 Off ch=3 n=32 v=0
5673787 Off ch=3 n=29 v=0
5673788 Off ch=3 n=23 v=0
5674622 On ch=3 n=39 v=100
5674629 On ch=3 n=26 v=100
5674635 On ch=3 n=34 v=100
5674679 Off ch=3 n=39 v=0
5674695 Off ch=3 n=26 v=0
5674703 Off ch=3 n=34 v=0
5675065 On ch=3 n=37 v=100
5675096 On ch=3 n=41 v=100
5675122 On ch=3 n=27 v=100
5675133 On ch=3 n=24 v=100
5675161 On ch=3 n=16 v=100
5675189 Off ch=3 n=37 v=0
5675189 Off ch=3 n=41 v=0
5675189 Off ch=3 n=24 v=0
5675191 Off ch=3 n=27 v=0
5675423 On ch=3 n=36 v=100
5675438 Off ch=3 n=16 v=0
5675438 Off ch=3 n=36 v=0
5675481 On ch=3 n=36 v=100
5675481 On ch=3 n=36 v=100
5675500 On ch=3 n=31 v=100
5675655 Off ch=3 n=31 v=0
5675674 Off ch=3 n=36 v=0
5675674 Off ch=3 n=36 v=0
5676237 On ch=3 n=3 v=100
5677387 Off ch=3 n=3 v=0
5681319 On ch=3 n=14 v=100
5681445 Off ch=3 n=14 v=0
5684576 On ch=3 n=20 v=100
5684577 On ch=3 n=29 v=100
5684686 On ch=3 n=26 v=100
5684740 Off ch=3 n=20 v=0
5684744 On ch=3 n=25 v=100
5684765 Off ch=3 n=29 v=0
5684779 Off ch=3 n=26 v=0
5684862 Off ch=3 n=25 v=0
5684866 On ch=3 n=24 v=100
5684937 Off ch=3 n=24 v=0
5685830 On ch=3 n=42 v=100
5685886 On ch=3 n=27 v=100
5685969 Off ch=3 n=42 v=0
5686186 On ch=3 n=39 v=100
5686317 Off ch=3 n=27 v=0
5686331 On ch=3 n=10 v=100
5686382 Off ch=3 n=39 v=0
5686927 Off ch=3 n=10 v=0
5686984 On ch=3 n=10 v=100
5687331 On ch=3 n=38 v=100
5687374 Off ch=3 n=10 v=0
5687377 On ch=3 n=11 v=100
5687526 Off ch=3 n=38 v=0
5687527 Off ch=3 n=11 v=0
5688365 On ch=3 n=34 v=100
5688388 On ch=3 n=15 v=100
5688460 Off ch=3 n=34 v=0
5688466 Off ch=3 n=15 v=0
5688478 On ch=3 n=33 v=100
5688479 On ch=3 n=39 v=100
5688541 On ch=3 n=16 v=100
5688541 On ch=3 n=25 v=100
5688683 Off ch=3 n=16 v=0
5688740 Off ch=3 n=33 v=0
5688756 On ch=3 n=10 v=100
5688777 Off ch=3 n=39 v=0
5688786 Off ch=3 n=25 v=0
5688865 Off ch=3 n=10 v=0
5688867 On ch=3 n=9 v=100
5689061 On ch=3 n=8 v=100
5689067 Off ch=3 n=9 v=0
5689353 Off ch=3 n=8 v=0
5689381 On ch=3 n=10 v=100
5689826 Off ch=3 n=10 v=0
5692241 On ch=3 n=7 v=100
5692457 On ch=3 n=8 v=100
5692464 Off ch=3 n=7 v=0
5692988 On ch=3 n=34 v=100
5692999 On ch=3 n=16 v=100
5692999 On ch=3 n=25 v=100
5693017 Off ch=3 n=8 v=0
5693048 Off ch=3 n=34 v=0
5693233 Off ch=3 n=16 v=0
5693286 Off ch=3 n=25 v=0
5694206 On ch=3 n=19 v=100
5694387 Off ch=3 n=19 v=0
5694400 On ch=3 n=24 v=100
5694480 Off ch=3 n=24 v=0
5695379 On ch=3 n=23 v=100
5695490 On ch=3 n=15 v=100
5695545 On ch=3 n=22 v=100
5695812 Off ch=3 n=23 v=0
5695879 Off ch=3 n=15 v=0
5696080 Off ch=3 n=22 v=0
5698394 On ch=3 n=36 v=100
5698512 Off ch=3 n=36 v=0
5698607 On ch=3 n=37 v=100
5698767 On ch=3 n=55 v=100
5698869 On ch=3 n=27 v=100
5698998 Off ch=3 n=37 v=0
5699047 Off ch=3 n=27 v=0
5699048 Off ch=3 n=55 v=0
5700608 On ch=3 n=35 v=100
5700713 Off ch=3 n=35 v=0
5700715 On ch=3 n=46 v=100
5700846 On ch=3 n=19 v=100
5700928 Off ch=3 n=46 v=0
5700935 On ch=3 n=12 v=100
5701144 On ch=3 n=33 v=100
5701307 Off ch=3 n=19 v=0
5701309 Off ch=3 n=12 v=0
5701387 Off ch=3 n=33 v=0
5702024 On ch=3 n=34 v=100
5702192 On ch=3 n=22 v=100
5702373 On ch=3 n=31 v=100
5702729 Off ch=3 n=34 v=0
5702766 Off ch=3 n=22 v=0
5702934 On ch=3 n=44 v=100
5703063 On ch=3 n=21 v=100
5703091 On ch=3 n=17 v=100
5703205 Off ch=3 n=31 v=0
5703283 Off ch=3 n=44 v=0
5703285 Off ch=3 n=21 v=0
5703285 Off ch=3 n=17 v=0
5703465 On ch=3 n=33 v=100
5703524 Off ch=3 n=33 v=0
5703622 On ch=3 n=9 v=100
5703917 Off ch=3 n=9 v=0
5705002 On ch=3 n=20 v=100
5705459 Off ch=3 n=20 v=0
5705621 On ch=3 n=17 v=100
5705640 On ch=3 n=15 v=100
5705671 Off ch=3 n=17 v=0
5705697 On ch=3 n=18 v=100
5706046 Off ch=3 n=15 v=0
5706071 Off ch=3 n=18 v=0
5706103 On ch=3 n=17 v=100
5706103 On ch=3 n=18 v=100
5706103 On ch=3 n=27 v=100
5706103 On ch=3 n=41 v=100
5706128 Off ch=3 n=17 v=0
5706197 Off ch=3 n=18 v=0
5706279 Off ch=3 n=27 v=0
5706330 Off ch=3 n=41 v=0
5707015 On ch=3 n=28 v=100
5707060 On ch=3 n=5 v=100
5707063 Off ch=3 n=28 v=0
5707131 On ch=3 n=12 v=100
5707131 Off ch=3 n=5 v=0
5707301 Off ch=3 n=12 v=0
5708982 On ch=3 n=8 v=100
5709162 Off ch=3 n=8 v=0
5709235 On ch=3 n=27 v=100
5709362 Off ch=3 n=27 v=0
5709704 On ch=3 n=38 v=100
5709747 On ch=3 n=29 v=100
5709909 Off ch=3 n=38 v=0
5709956 Off ch=3 n=29 v=0
5709972 On ch=3 n=7 v=100
5710467 Off ch=3 n=7 v=0
5710715 On ch=3 n=9 v=100
5711256 On ch=3 n=8 v=100
5711257 Off ch=3 n=9 v=0
5711528 Off ch=3 n=8 v=0
5712652 On ch=3 n=32 v=100
5712803 Off ch=3 n=32 v=0
5712879 On ch=3 n=32 v=100
5712950 Off ch=3 n=32 v=0
5714488 On ch=3 n=21 v=100
5714661 Off ch=3 n=21 v=0
5714739 On ch=3 n=19 v=100
5714758 On ch=3 n=19 v=100
5714842 Off ch=3 n=19 v=0
5714847 Off ch=3 n=19 v=0
5714897 On ch=3 n=19 v=100
5714908 Off ch=3 n=19 v=0
5714914 On ch=3 n=47 v=100
5715018 On ch=3 n=5 v=100
5715147 Off ch=3 n=47 v=0
5715725 Off ch=3 n=5 v=0
5716738 On ch=3 n=38 v=100
5717095 Off ch=3 n=38 v=0
5717200 On ch=3 n=10 v=100
5717296 On ch=3 n=57 v=100
5717685 Off ch=3 n=10 v=0
5717691 On ch=3 n=9 v=100
5718225 Off ch=3 n=57 v=0
5718270 Off ch=3 n=9 v=0
5719272 On ch=3 n=23 v=100
5719272 On ch=3 n=23 v=100
5719310 On ch=3 n=18 v=100
5719476 Off ch=3 n=18 v=0
5719586 Off ch=3 n=23 v=0
5719586 Off ch=3 n=23 v=0
5719595 On ch=3 n=34 v=100
5719624 On ch=3 n=21 v=100
5719719 On ch=3 n=54 v=100
5719719 Off ch=3 n=34 v=0
5719720 On ch=3 n=11 v=100
5720119 Off ch=3 n=11 v=0
5720140 Off ch=3 n=21 v=0
5720745 Off ch=3 n=54 v=0
5720777 On ch=3 n=17 v=100
5720919 Off ch=3 n=17 v=0
5720940 On ch=3 n=18 v=100
5721337 Off ch=3 n=18 v=0
5721382 On ch=3 n=18 v=100
5721450 Off ch=3 n=18 v=0
5721548 On ch=3 n=18 v=100
5722201 Off ch=3 n=18 v=0
5722873 On ch=3 n=22 v=100
5723064 Off ch=3 n=22 v=0
5723274 On ch=3 n=38 v=100
5723647 Off ch=3 n=38 v=0
5729743 On ch=3 n=10 v=100
5729914 On ch=3 n=18 v=100
5730086 Off ch=3 n=10 v=0
5730093 On ch=3 n=15 v=100
5730140 On ch=3 n=21 v=100
5730365 On ch=3 n=13 v=100
5730453 Off ch=3 n=18 v=0
5730562 Off ch=3 n=15 v=0
5730613 Off ch=3 n=21 v=0
5730746 Off ch=3 n=13 v=0
5730747 On ch=3 n=3 v=100
5730779 Off ch=3 n=3 v=0
5737446 On ch=3 n=30 v=100
5737561 Off ch=3 n=30 v=0
5738633 On ch=3 n=12 v=100
5739401 Off ch=3 n=12 v=0
5739932 On ch=3 n=8 v=100
5740003 Off ch=3 n=8 v=0
5740005 On ch=3 n=15 v=100
5740145 Off ch=3 n=15 v=0
5740196 On ch=3 n=16 v=100
5740367 Off ch=3 n=16 v=0
5740369 On ch=3 n=24 v=100
5740525 Off ch=3 n=24 v=0
5741117 On ch=3 n=45 v=100
5741294 Off ch=3 n=45 v=0
5742687 On ch=3 n=9 v=100
5742844 On ch=3 n=19 v=100
5742918 Off ch=3 n=9 v=0
5742939 On ch=3 n=15 v=100
5742997 On ch=3 n=17 v=100
5743321 Off ch=3 n=19 v=0
5743345 Off ch=3 n=15 v=0
5743403 Off ch=3 n=17 v=0
5743491 On ch=3 n=10 v=100
5743585 Off ch=3 n=10 v=0
5744028 On ch=3 n=7 v=100
5744037 On ch=3 n=54 v=100
5744356 On ch=3 n=14 v=100
5744497 On ch=3 n=52 v=100
5744545 Off ch=3 n=7 v=0
5744638 Off ch=3 n=54 v=0
5744792 On ch=3 n=3 v=100
5744949 Off ch=3 n=14 v=0
5745080 On ch=3 n=28 v=100
5745081 Off ch=3 n=52 v=0
5745091 Off ch=3 n=3 v=0
5745344 Off ch=3 n=28 v=0
5746202 On ch=3 n=17 v=100
5746251 On ch=3 n=12 v=100
5746468 Off ch=3 n=12 v=0
5746470 Off ch=3 n=17 v=0
5746524 On ch=3 n=9 v=100
5746763 On ch=3 n=23 v=100
5746948 On ch=3 n=13 v=100
5746949 On ch=3 n=23 v=100
5746950 Off ch=3 n=9 v=0
5747304 On ch=3 n=8 v=100
5747304 Off ch=3 n=23 v=0
5747369 Off ch=3 n=13 v=0
5747431 Off ch=3 n=23 v=0
5747469 On ch=3 n=13 v=100
5747470 Off ch=3 n=8 v=0
5747526 Off ch=3 n=13 v=0
5749238 On ch=3 n=15 v=100
5749674 On ch=3 n=6 v=100
5749675 Off ch=3 n=15 v=0
5749722 On ch=3 n=10 v=100
5749722 Off ch=3 n=6 v=0
5750347 Off ch=3 n=10 v=0
5750959 On ch=3 n=28 v=100
5751044 On ch=3 n=22 v=100
5751108 On ch=3 n=17 v=100
5751183 On ch=3 n=23 v=100
5751431 Off ch=3 n=28 v=0
5751441 Off ch=3 n=22 v=0
5751453 On ch=3 n=21 v=100
5751456 Off ch=3 n=17 v=0
5751480 On ch=3 n=15 v=100
5751489 Off ch=3 n=23 v=0
5751658 Off ch=3 n=21 v=0
5751842 Off ch=3 n=15 v=0
5754083 On ch=3 n=8 v=100
5754240 Off ch=3 n=8 v=0
5754400 On ch=3 n=14 v=100
5754699 On ch=3 n=25 v=100
5754927 Off ch=3 n=14 v=0
5754927 Off ch=3 n=25 v=0
5754996 On ch=3 n=14 v=100
5754996 On ch=3 n=18 v=100
5755348 On ch=3 n=7 v=100
5755350 Off ch=3 n=14 v=0
5755409 Off ch=3 n=18 v=0
5755477 Off ch=3 n=7 v=0
5755507 On ch=3 n=7 v=100
5755754 Off ch=3 n=7 v=0
5756014 On ch=3 n=9 v=100
5756168 On ch=3 n=15 v=100
5756616 Off ch=3 n=9 v=0
5756616 Off ch=3 n=15 v=0
5756666 On ch=3 n=15 v=100
5757181 Off ch=3 n=15 v=0
5757450 On ch=3 n=12 v=100
5757706 Off ch=3 n=12 v=0
5758308 On ch=3 n=12 v=100
5758627 On ch=3 n=12 v=100
5758635 Off ch=3 n=12 v=0
5758933 Off ch=3 n=12 v=0
5759046 On ch=3 n=23 v=100
5759069 On ch=3 n=17 v=100
5759235 Off ch=3 n=23 v=0
5759237 Off ch=3 n=17 v=0
5759677 On ch=3 n=14 v=100
5759691 On ch=3 n=17 v=100
5759750 On ch=3 n=12 v=100
5759752 Off ch=3 n=14 v=0
5759901 Off ch=3 n=12 v=0
5759906 Off ch=3 n=17 v=0
5761730 On ch=3 n=12 v=100
5762178 Off ch=3 n=12 v=0
5768365 On ch=3 n=42 v=100
5768491 Off ch=3 n=42 v=0
5768781 On ch=3 n=33 v=100
5769249 Off ch=3 n=33 v=0
5770328 On ch=3 n=6 v=100
5770576 Off ch=3 n=6 v=0
5770697 On ch=3 n=24 v=100
5770777 Off ch=3 n=24 v=0
5771370 On ch=3 n=23 v=100
5771431 Off ch=3 n=23 v=0
5771465 On ch=3 n=23 v=100
5771785 Off ch=3 n=23 v=0
5772071 On ch=3 n=10 v=100
5773238 Off ch=3 n=10 v=0
5773324 On ch=3 n=30 v=100
5773363 Off ch=3 n=30 v=0
5773408 On ch=3 n=30 v=100
5773408 On ch=3 n=7 v=100
5773408 On ch=3 n=15 v=100
5773663 Off ch=3 n=30 v=0
5773705 Off ch=3 n=7 v=0
5773763 Off ch=3 n=15 v=0
5774567 On ch=3 n=35 v=100
5774719 On ch=3 n=18 v=100
5774719 On ch=3 n=18 v=100
5774767 On ch=3 n=32 v=100
5774767 On ch=3 n=32 v=100
5774768 On ch=3 n=8 v=100
5774768 On ch=3 n=17 v=100
5774907 Off ch=3 n=35 v=0
5774926 Off ch=3 n=8 v=0
5774950 Off ch=3 n=17 v=0
5774951 Off ch=3 n=18 v=0
5774951 Off ch=3 n=18 v=0
5775144 Off ch=3 n=32 v=0
5775144 Off ch=3 n=32 v=0
5775357 On ch=3 n=8 v=100
5776248 Off ch=3 n=8 v=0
5777299 On ch=3 n=10 v=100
5777504 On ch=3 n=12 v=100
5777504 Off ch=3 n=10 v=0
5777841 Off ch=3 n=12 v=0
5778116 On ch=3 n=15 v=100
5778967 Off ch=3 n=15 v=0
5778969 On ch=3 n=9 v=100
5779391 Off ch=3 n=9 v=0
5779495 On ch=3 n=6 v=100
5780174 On ch=3 n=24 v=100
5780233 Off ch=3 n=6 v=0
5780259 Off ch=3 n=24 v=0
5780284 On ch=3 n=8 v=100
5780904 Off ch=3 n=8 v=0
5782047 On ch=3 n=12 v=100
5782531 Off ch=3 n=12 v=0
5782539 On ch=3 n=29 v=100
5782649 Off ch=3 n=29 v=0
5788919 On ch=3 n=6 v=100
5790275 Off ch=3 n=6 v=0
5790784 On ch=3 n=23 v=100
5790922 Off ch=3 n=23 v=0
5791121 On ch=3 n=10 v=100
5791221 Off ch=3 n=10 v=0
5791259 On ch=3 n=10 v=100
5791491 Off ch=3 n=10 v=0
5791518 On ch=3 n=16 v=100
5791651 Off ch=3 n=16 v=0
5792625 On ch=3 n=14 v=100
5792794 Off ch=3 n=14 v=0
5792867 On ch=3 n=19 v=100
5793056 Off ch=3 n=19 v=0
5793445 On ch=3 n=20 v=100
5793475 On ch=3 n=13 v=100
5793652 Off ch=3 n=20 v=0
5793785 On ch=3 n=22 v=100
5793846 On ch=3 n=40 v=100
5793885 Off ch=3 n=13 v=0
5793894 On ch=3 n=19 v=100
5793906 On ch=3 n=16 v=100
5793911 Off ch=3 n=22 v=0
5793978 On ch=3 n=44 v=100
5793978 On ch=3 n=44 v=100
5793991 Off ch=3 n=40 v=0
5794003 Off ch=3 n=19 v=0
5794005 On ch=3 n=30 v=100
5794007 On ch=3 n=16 v=100
5794104 Off ch=3 n=16 v=0
5794120 Off ch=3 n=16 v=0
5794133 Off ch=3 n=30 v=0
5794223 Off ch=3 n=44 v=0
5794223 Off ch=3 n=44 v=0
5795299 On ch=3 n=35 v=100
5795349 On ch=3 n=35 v=100
5795411 On ch=3 n=32 v=100
5795487 Off ch=3 n=35 v=0
5795487 Off ch=3 n=35 v=0
5795517 Off ch=3 n=32 v=0
5795831 On ch=3 n=9 v=100
5796095 Off ch=3 n=9 v=0
5796560 On ch=3 n=49 v=100
5796580 On ch=3 n=28 v=100
5796713 Off ch=3 n=28 v=0
5796723 Off ch=3 n=49 v=0
5798121 On ch=3 n=7 v=100
5798279 Off ch=3 n=7 v=0
5798284 On ch=3 n=19 v=100
5798483 Off ch=3 n=19 v=0
5798489 On ch=3 n=25 v=100
5798548 Off ch=3 n=25 v=0
5798592 On ch=3 n=23 v=100
5798777 Off ch=3 n=23 v=0
5798928 On ch=3 n=35 v=100
5799033 Off ch=3 n=35 v=0
5799343 On ch=3 n=23 v=100
5799648 Off ch=3 n=23 v=0
5799875 On ch=3 n=8 v=100
5800089 Off ch=3 n=8 v=0
5802050 On ch=3 n=34 v=100
5802075 Off ch=3 n=34 v=0
5802129 On ch=3 n=34 v=100
5802419 Off ch=3 n=34 v=0
5802589 On ch=3 n=32 v=100
5802600 On ch=3 n=28 v=100
5802605 On ch=3 n=12 v=100
5802636 Off ch=3 n=28 v=0
5802684 Off ch=3 n=32 v=0
5803022 Off ch=3 n=12 v=0
5803575 On ch=3 n=22 v=100
5803611 On ch=3 n=35 v=100
5803663 On ch=3 n=21 v=100
5803803 On ch=3 n=37 v=100
5803822 Off ch=3 n=22 v=0
5803941 Off ch=3 n=35 v=0
5804122 Off ch=3 n=21 v=0
5804325 Off ch=3 n=37 v=0
5805132 On ch=3 n=15 v=100
5805353 On ch=3 n=30 v=100
5805381 On ch=3 n=17 v=100
5805453 Off ch=3 n=15 v=0
5805522 Off ch=3 n=30 v=0
5805522 Off ch=3 n=17 v=0
5805611 On ch=3 n=27 v=100
5805810 On ch=3 n=20 v=100
5806091 Off ch=3 n=20 v=0
5806092 Off ch=3 n=27 v=0
5806241 On ch=3 n=34 v=100
5806558 Off ch=3 n=34 v=0
5809652 On ch=3 n=41 v=100
5809689 On ch=3 n=31 v=100
5809869 Off ch=3 n=41 v=0
5809870 Off ch=3 n=31 v=0
5815438 On ch=3 n=25 v=100
5815511 Off ch=3 n=25 v=0
5815568 On ch=3 n=25 v=100
5815871 Off ch=3 n=25 v=0
5817894 On ch=3 n=59 v=100
5817894 On ch=3 n=59 v=100
5817970 On ch=3 n=12 v=100
5818113 Off ch=3 n=59 v=0
5818113 Off ch=3 n=59 v=0
5818138 Off ch=3 n=12 v=0
5818740 On ch=3 n=9 v=100
5818833 Off ch=3 n=9 v=0
5818835 On ch=3 n=7 v=100
5819162 Off ch=3 n=7 v=0
5819173 On ch=3 n=21 v=100
5819920 On ch=3 n=5 v=100
5819922 Off ch=3 n=21 v=0
5820292 On ch=3 n=12 v=100
5820299 Off ch=3 n=5 v=0
5820440 Off ch=3 n=12 v=0
5820443 On ch=3 n=7 v=100
5820540 Off ch=3 n=7 v=0
5824532 On ch=3 n=35 v=100
5824829 Off ch=3 n=35 v=0
5828098 On ch=3 n=5 v=100
5829859 Off ch=3 n=5 v=0
5830891 On ch=3 n=28 v=100
5831057 On ch=3 n=14 v=100
5831294 Off ch=3 n=28 v=0
5831294 Off ch=3 n=14 v=0
5833233 On ch=3 n=47 v=100
5833258 On ch=3 n=45 v=100
5833303 On ch=3 n=32 v=100
5833310 On ch=3 n=30 v=100
5833400 Off ch=3 n=47 v=0
5833589 Off ch=3 n=30 v=0
5833596 Off ch=3 n=45 v=0
5833636 Off ch=3 n=32 v=0
5833978 On ch=3 n=21 v=100
5833978 On ch=3 n=40 v=100
5834127 Off ch=3 n=21 v=0
5834201 Off ch=3 n=40 v=0
5834358 On ch=3 n=9 v=100
5834504 Off ch=3 n=9 v=0
5834507 On ch=3 n=10 v=100
5834564 Off ch=3 n=10 v=0
5834981 On ch=3 n=28 v=100
5835074 Off ch=3 n=28 v=0
5835135 On ch=3 n=20 v=100
5835150 On ch=3 n=33 v=100
5835188 On ch=3 n=58 v=100
5835224 Off ch=3 n=20 v=0
5835225 Off ch=3 n=33 v=0
5835225 Off ch=3 n=58 v=0
5835285 On ch=3 n=33 v=100
5835285 On ch=3 n=17 v=100
5835285 On ch=3 n=58 v=100
5835325 Off ch=3 n=33 v=0
5835336 Off ch=3 n=17 v=0
5835420 Off ch=3 n=58 v=0
5835489 On ch=3 n=16 v=100
5835622 Off ch=3 n=16 v=0
5836042 On ch=3 n=35 v=100
5836101 Off ch=3 n=35 v=0
5836591 On ch=3 n=12 v=100
5836862 On ch=3 n=19 v=100
5837123 Off ch=3 n=12 v=0
5837334 Off ch=3 n=19 v=0
5837335 On ch=3 n=11 v=100
5837535 Off ch=3 n=11 v=0
5837854 On ch=3 n=37 v=100
5837855 On ch=3 n=35 v=100
5837859 On ch=3 n=34 v=100
5838097 Off ch=3 n=34 v=0
5838101 On ch=3 n=30 v=100
5838102 On ch=3 n=43 v=100
5838131 Off ch=3 n=35 v=0
5838139 On ch=3 n=9 v=100
5838139 On ch=3 n=25 v=100
5838166 Off ch=3 n=37 v=0
5838192 Off ch=3 n=30 v=0
5838195 Off ch=3 n=9 v=0
5838203 Off ch=3 n=43 v=0
5838227 Off ch=3 n=25 v=0
5838366 On ch=3 n=8 v=100
5838497 On ch=3 n=9 v=100
5838497 Off ch=3 n=8 v=0
5838631 Off ch=3 n=9 v=0
5839948 On ch=3 n=39 v=100
5839961 On ch=3 n=33 v=100
5840064 Off ch=3 n=39 v=0
5840194 Off ch=3 n=33 v=0
5840292 On ch=3 n=21 v=100
5840395 Off ch=3 n=21 v=0
5842117 On ch=3 n=46 v=100
5842180 On ch=3 n=24 v=100
5842300 Off ch=3 n=24 v=0
5842301 Off ch=3 n=46 v=0
5842408 On ch=3 n=35 v=100
5842489 Off ch=3 n=35 v=0
5842590 On ch=3 n=33 v=100
5842591 On ch=3 n=35 v=100
5842640 Off ch=3 n=35 v=0
5842645 On ch=3 n=6 v=100
5842645 On ch=3 n=7 v=100
5842678 Off ch=3 n=33 v=0
5842874 Off ch=3 n=6 v=0
5843046 On ch=3 n=14 v=100
5843050 Off ch=3 n=7 v=0
5843306 On ch=3 n=25 v=100
5843306 On ch=3 n=25 v=100
5843342 On ch=3 n=18 v=100
5843396 On ch=3 n=11 v=100
5843396 On ch=3 n=22 v=100
5843401 Off ch=3 n=14 v=0
5843712 Off ch=3 n=18 v=0
5843743 On ch=3 n=17 v=100
5843751 Off ch=3 n=25 v=0
5843751 Off ch=3 n=25 v=0
5843757 Off ch=3 n=11 v=0
5843862 Off ch=3 n=22 v=0
5844207 Off ch=3 n=17 v=0
5844209 On ch=3 n=11 v=100
5844431 Off ch=3 n=11 v=0
5844495 On ch=3 n=13 v=100
5844551 Off ch=3 n=13 v=0
5844754 On ch=3 n=16 v=100
5844859 Off ch=3 n=16 v=0
5845180 On ch=3 n=24 v=100
5845200 On ch=3 n=9 v=100
5845511 Off ch=3 n=9 v=0
5845534 Off ch=3 n=24 v=0
5845538 On ch=3 n=22 v=100
5845654 Off ch=3 n=22 v=0
5845661 On ch=3 n=3 v=100
5846028 Off ch=3 n=3 v=0
5846202 On ch=3 n=7 v=100
5846416 On ch=3 n=29 v=100
5846445 Off ch=3 n=7 v=0
5846455 Off ch=3 n=29 v=0
5849803 On ch=3 n=53 v=100
5849846 On ch=3 n=25 v=100
5849862 On ch=3 n=6 v=100
5849964 Off ch=3 n=25 v=0
5849992 Off ch=3 n=53 v=0
5850697 Off ch=3 n=6 v=0
5850786 On ch=3 n=6 v=100
5850889 Off ch=3 n=6 v=0
5851089 On ch=3 n=0 v=100
5851988 On ch=3 n=13 v=100
5851998 Off ch=3 n=0 v=0
5852018 Off ch=3 n=13 v=0
5852157 On ch=3 n=13 v=100
5852636 Off ch=3 n=13 v=0
5852749 On ch=3 n=13 v=100
5852749 On ch=3 n=15 v=100
5852759 On ch=3 n=1 v=100
5852812 Off ch=3 n=13 v=0
5852833 Off ch=3 n=15 v=0
5854684 Off ch=3 n=1 v=0
5854818 On ch=3 n=3 v=100
5855258 Off ch=3 n=3 v=0
5861030 On ch=3 n=4 v=100
5861346 Off ch=3 n=4 v=0
5861529 On ch=3 n=46 v=100
5861647 On ch=3 n=29 v=100
5861759 On ch=3 n=10 v=100
5861761 Off ch=3 n=46 v=0
5861761 Off ch=3 n=29 v=0
5861978 Off ch=3 n=10 v=0
5862716 On ch=3 n=20 v=100
5862914 Off ch=3 n=20 v=0
5862943 On ch=3 n=12 v=100
5863350 Off ch=3 n=12 v=0
5864427 On ch=3 n=5 v=100
5865683 Off ch=3 n=5 v=0
5867012 On ch=3 n=15 v=100
5867590 On ch=3 n=15 v=100
5867627 Off ch=3 n=15 v=0
5867632 Off ch=3 n=15 v=0
5867703 On ch=3 n=35 v=100
5867703 On ch=3 n=35 v=100
5867743 On ch=3 n=18 v=100
5867794 Off ch=3 n=18 v=0
5867821 Off ch=3 n=35 v=0
5867821 Off ch=3 n=35 v=0
5867908 On ch=3 n=15 v=100
5867959 Off ch=3 n=15 v=0
5867961 On ch=3 n=22 v=100
5868028 On ch=3 n=15 v=100
5868029 Off ch=3 n=22 v=0
5868154 Off ch=3 n=15 v=0
5868259 On ch=3 n=21 v=100
5868329 Off ch=3 n=21 v=0
5869291 On ch=3 n=55 v=100
5869291 On ch=3 n=55 v=100
5869377 On ch=3 n=19 v=100
5869421 On ch=3 n=12 v=100
5869423 Off ch=3 n=19 v=0
5869457 On ch=3 n=15 v=100
5869463 Off ch=3 n=12 v=0
5869485 Off ch=3 n=55 v=0
5869485 Off ch=3 n=55 v=0
5869568 On ch=3 n=17 v=100
5869582 Off ch=3 n=15 v=0
5869677 Off ch=3 n=17 v=0
5869711 On ch=3 n=17 v=100
5869981 Off ch=3 n=17 v=0
5876443 On ch=3 n=49 v=100
5876618 On ch=3 n=34 v=100
5876692 Off ch=3 n=49 v=0
5876695 On ch=3 n=4 v=100
5876752 Off ch=3 n=34 v=0
5876763 Off ch=3 n=4 v=0
5876771 On ch=3 n=9 v=100
5876803 Off ch=3 n=9 v=0
5876833 On ch=3 n=9 v=100
5877318 Off ch=3 n=9 v=0
5877322 On ch=3 n=8 v=100
5877703 Off ch=3 n=8 v=0
5877704 On ch=3 n=1 v=100
5877771 Off ch=3 n=1 v=0
5877772 On ch=3 n=4 v=100
5878439 Off ch=3 n=4 v=0
5878521 On ch=3 n=4 v=100
5881143 On ch=3 n=0 v=100
5881143 Off ch=3 n=4 v=0
5881194 Off ch=3 n=0 v=0
5881196 On ch=3 n=6 v=100
5881779 Off ch=3 n=6 v=0
5881782 On ch=3 n=6 v=100
5881897 Off ch=3 n=6 v=0
5881902 On ch=3 n=6 v=100
5882084 Off ch=3 n=6 v=0
5882809 On ch=3 n=13 v=100
5883014 On ch=3 n=3 v=100
5883014 Off ch=3 n=13 v=0
5883039 Off ch=3 n=3 v=0
5884170 On ch=3 n=24 v=100
5884409 Off ch=3 n=24 v=0
5885079 On ch=3 n=1 v=100
5885218 On ch=3 n=2 v=100
5885246 Off ch=3 n=1 v=0
5885930 On ch=3 n=3 v=100
5886006 Off ch=3 n=2 v=0
5887157 Off ch=3 n=3 v=0
5894986 On ch=3 n=2 v=100
5895511 Off ch=3 n=2 v=0
5905968 On ch=3 n=11 v=100
5906093 Off ch=3 n=11 v=0
5906095 On ch=3 n=20 v=100
5906697 Off ch=3 n=20 v=0
5906704 On ch=3 n=18 v=100
5906870 On ch=3 n=27 v=100
5906906 On ch=3 n=13 v=100
5906926 Off ch=3 n=18 v=0
5907034 Off ch=3 n=27 v=0
5907047 Off ch=3 n=13 v=0
5907049 On ch=3 n=7 v=100
5907109 Off ch=3 n=7 v=0
5907667 On ch=3 n=36 v=100
5907682 On ch=3 n=60 v=100
5907682 On ch=3 n=60 v=100
5907702 On ch=3 n=24 v=100
5907858 Off ch=3 n=36 v=0
5907858 Off ch=3 n=24 v=0
5907902 Off ch=3 n=60 v=0
5907902 Off ch=3 n=60 v=0
5909466 On ch=3 n=14 v=100
5909539 Off ch=3 n=14 v=0
5910873 On ch=3 n=45 v=100
5910941 On ch=3 n=35 v=100
5910951 On ch=3 n=38 v=100
5911045 Off ch=3 n=45 v=0
5911047 Off ch=3 n=35 v=0
5911056 On ch=3 n=15 v=100
5911063 Off ch=3 n=38 v=0
5911387 Off ch=3 n=15 v=0
5911504 On ch=3 n=12 v=100
5911588 On ch=3 n=34 v=100
5911653 On ch=3 n=6 v=100
5911667 Off ch=3 n=12 v=0
5911838 Off ch=3 n=34 v=0
5911852 Off ch=3 n=6 v=0
5911955 On ch=3 n=9 v=100
5912383 On ch=3 n=42 v=100
5912479 Off ch=3 n=9 v=0
5912537 Off ch=3 n=42 v=0
5912542 On ch=3 n=17 v=100
5912749 Off ch=3 n=17 v=0
5915449 On ch=3 n=7 v=100
5915765 Off ch=3 n=7 v=0
5915766 On ch=3 n=2 v=100
5916990 On ch=3 n=9 v=100
5916990 Off ch=3 n=2 v=0
5917469 Off ch=3 n=9 v=0
5918171 On ch=3 n=36 v=100
5918208 On ch=3 n=16 v=100
5918378 On ch=3 n=3 v=100
5918379 Off ch=3 n=36 v=0
5918385 Off ch=3 n=16 v=0
5919168 Off ch=3 n=3 v=0
5919731 On ch=3 n=36 v=100
5919891 Off ch=3 n=36 v=0
5920665 On ch=3 n=52 v=100
5920810 On ch=3 n=35 v=100
5920850 On ch=3 n=35 v=100
5920945 Off ch=3 n=52 v=0
5921028 Off ch=3 n=35 v=0
5921055 Off ch=3 n=35 v=0
5922405 On ch=3 n=6 v=100
5922611 Off ch=3 n=6 v=0
5922612 On ch=3 n=7 v=100
5922899 On ch=3 n=17 v=100
5922919 Off ch=3 n=7 v=0
5923089 On ch=3 n=14 v=100
5923089 Off ch=3 n=17 v=0
5923595 Off ch=3 n=14 v=0
5923657 On ch=3 n=18 v=100
5923817 On ch=3 n=22 v=100
5923878 Off ch=3 n=18 v=0
5923878 Off ch=3 n=22 v=0
5923946 On ch=3 n=18 v=100
5923946 On ch=3 n=22 v=100
5923951 On ch=3 n=31 v=100
5924125 Off ch=3 n=18 v=0
5924204 Off ch=3 n=22 v=0
5924209 Off ch=3 n=31 v=0
5924301 On ch=3 n=31 v=100
5924301 On ch=3 n=8 v=100
5924449 Off ch=3 n=31 v=0
5924468 Off ch=3 n=8 v=0
5924794 On ch=3 n=12 v=100
5925501 On ch=3 n=6 v=100
5925502 Off ch=3 n=12 v=0
5925773 On ch=3 n=2 v=100
5925782 Off ch=3 n=6 v=0
5926851 On ch=3 n=6 v=100
5926851 Off ch=3 n=2 v=0
5927141 Off ch=3 n=6 v=0
5927168 On ch=3 n=6 v=100
5927497 Off ch=3 n=6 v=0
5929087 On ch=3 n=29 v=100
5929306 On ch=3 n=21 v=100
5929587 Off ch=3 n=21 v=0
5929593 Off ch=3 n=29 v=0
5929722 On ch=3 n=15 v=100
5930162 Off ch=3 n=15 v=0
5931140 On ch=3 n=30 v=100
5931194 On ch=3 n=16 v=100
5931313 On ch=3 n=28 v=100
5931503 Off ch=3 n=30 v=0
5931506 On ch=3 n=16 v=100
5931507 Off ch=3 n=16 v=0
5931773 Off ch=3 n=28 v=0
5931966 Off ch=3 n=16 v=0
5932636 On ch=3 n=11 v=100
5933331 Off ch=3 n=11 v=0
5933415 On ch=3 n=9 v=100
5933575 Off ch=3 n=9 v=0
5933576 On ch=3 n=12 v=100
5933576 On ch=3 n=24 v=100
5933674 On ch=3 n=61 v=100
5933779 Off ch=3 n=12 v=0
5933864 Off ch=3 n=24 v=0
5934127 Off ch=3 n=61 v=0
5934177 On ch=3 n=16 v=100
5934235 On ch=3 n=12 v=100
5934244 Off ch=3 n=16 v=0
5934639 Off ch=3 n=12 v=0
5934725 On ch=3 n=3 v=100
5934760 On ch=3 n=18 v=100
5934778 Off ch=3 n=3 v=0
5934902 Off ch=3 n=18 v=0
5935441 On ch=3 n=17 v=100
5935444 On ch=3 n=27 v=100
5935444 On ch=3 n=39 v=100
5935467 On ch=3 n=28 v=100
5935616 Off ch=3 n=17 v=0
5935639 Off ch=3 n=28 v=0
5935647 Off ch=3 n=27 v=0
5935680 Off ch=3 n=39 v=0
5935859 On ch=3 n=53 v=100
5935961 On ch=3 n=9 v=100
5935966 On ch=3 n=33 v=100
5935969 On ch=3 n=7 v=100
5936161 Off ch=3 n=7 v=0
5936166 Off ch=3 n=53 v=0
5936182 Off ch=3 n=9 v=0
5936210 Off ch=3 n=33 v=0
5936260 On ch=3 n=9 v=100
5936365 Off ch=3 n=9 v=0
5942365 On ch=3 n=12 v=100
5942530 On ch=3 n=9 v=100
5942531 Off ch=3 n=12 v=0
5942731 Off ch=3 n=9 v=0
5942747 On ch=3 n=10 v=100
5942806 Off ch=3 n=10 v=0
5942807 On ch=3 n=39 v=100
5942903 On ch=3 n=22 v=100
5942967 On ch=3 n=14 v=100
5943260 Off ch=3 n=39 v=0
5943260 Off ch=3 n=22 v=0
5943417 Off ch=3 n=14 v=0
5943819 On ch=3 n=22 v=100
5944059 On ch=3 n=10 v=100
5944060 On ch=3 n=15 v=100
5944098 Off ch=3 n=22 v=0
5944112 Off ch=3 n=10 v=0
5944113 On ch=3 n=31 v=100
5944125 Off ch=3 n=15 v=0
5944162 Off ch=3 n=31 v=0
5944612 On ch=3 n=8 v=100
5945042 Off ch=3 n=8 v=0
5945053 On ch=3 n=14 v=100
5945145 Off ch=3 n=14 v=0
5945148 On ch=3 n=5 v=100
5945685 Off ch=3 n=5 v=0
5945688 On ch=3 n=13 v=100
5946063 Off ch=3 n=13 v=0
5946196 On ch=3 n=17 v=100
5946372 On ch=3 n=35 v=100
5946378 Off ch=3 n=17 v=0
5946416 On ch=3 n=16 v=100
5946479 Off ch=3 n=35 v=0
5946512 On ch=3 n=11 v=100
5946541 Off ch=3 n=16 v=0
5946548 Off ch=3 n=11 v=0
5946550 On ch=3 n=14 v=100
5946909 Off ch=3 n=14 v=0
5947188 On ch=3 n=16 v=100
5947248 Off ch=3 n=16 v=0
5947880 On ch=3 n=10 v=100
5947880 On ch=3 n=7 v=100
5947898 On ch=3 n=12 v=100
5947920 Off ch=3 n=7 v=0
5947928 Off ch=3 n=10 v=0
5948061 Off ch=3 n=12 v=0
5949023 On ch=3 n=49 v=100
5949071 On ch=3 n=41 v=100
5949106 On ch=3 n=48 v=100
5949186 Off ch=3 n=41 v=0
5949192 Off ch=3 n=49 v=0
5949213 Off ch=3 n=48 v=0
5949300 On ch=3 n=63 v=100
5950043 Off ch=3 n=63 v=0
5950312 On ch=3 n=44 v=100
5950364 On ch=3 n=46 v=100
5950450 Off ch=3 n=44 v=0
5950474 Off ch=3 n=46 v=0
5950580 On ch=3 n=14 v=100
5950580 On ch=3 n=25 v=100
5950580 On ch=3 n=22 v=100
5950681 Off ch=3 n=14 v=0
5950695 Off ch=3 n=25 v=0
5950721 Off ch=3 n=22 v=0
5956757 On ch=3 n=9 v=100
5957069 Off ch=3 n=9 v=0
5957074 On ch=3 n=10 v=100
5957249 On ch=3 n=7 v=100
5957250 Off ch=3 n=10 v=0
5957351 Off ch=3 n=7 v=0
5957762 On ch=3 n=13 v=100
5958003 Off ch=3 n=13 v=0
5958343 On ch=3 n=6 v=100
5958528 On ch=3 n=26 v=100
5958648 Off ch=3 n=6 v=0
5958668 Off ch=3 n=26 v=0
5959108 On ch=3 n=5 v=100
5959608 On ch=3 n=9 v=100
5959609 Off ch=3 n=5 v=0
5960584 On ch=3 n=20 v=100
5960624 Off ch=3 n=9 v=0
5960828 Off ch=3 n=20 v=0
5960890 On ch=3 n=20 v=100
5961295 On ch=3 n=20 v=100
5961332 Off ch=3 n=20 v=0
5961741 Off ch=3 n=20 v=0
5961743 On ch=3 n=28 v=100
5962206 Off ch=3 n=28 v=0
5962210 On ch=3 n=7 v=100
5962462 Off ch=3 n=7 v=0
5962464 On ch=3 n=6 v=100
5962601 On ch=3 n=7 v=100
5962609 Off ch=3 n=6 v=0
5962937 Off ch=3 n=7 v=0
5962956 On ch=3 n=9 v=100
5963100 On ch=3 n=46 v=100
5963155 On ch=3 n=21 v=100
5963182 Off ch=3 n=9 v=0
5963189 On ch=3 n=10 v=100
5963189 On ch=3 n=10 v=100
5963241 Off ch=3 n=46 v=0
5963426 Off ch=3 n=21 v=0
5963428 On ch=3 n=8 v=100
5963659 On ch=3 n=20 v=100
5963659 On ch=3 n=20 v=100
5963715 Off ch=3 n=10 v=0
5963715 Off ch=3 n=10 v=0
5963752 Off ch=3 n=8 v=0
5963939 On ch=3 n=38 v=100
5963955 Off ch=3 n=20 v=0
5963955 Off ch=3 n=20 v=0
5964055 Off ch=3 n=38 v=0
5964584 On ch=3 n=26 v=100
5964612 On ch=3 n=6 v=100
5964691 Off ch=3 n=26 v=0
5965937 On ch=3 n=25 v=100
5966035 Off ch=3 n=6 v=0
5966047 Off ch=3 n=25 v=0
5970781 On ch=3 n=25 v=100
5970793 On ch=3 n=17 v=100
5970811 On ch=3 n=10 v=100
5970883 Off ch=3 n=25 v=0
5970883 Off ch=3 n=17 v=0
5970883 Off ch=3 n=10 v=0
5971330 On ch=3 n=9 v=100
5971589 Off ch=3 n=9 v=0
5971693 On ch=3 n=9 v=100
5972422 On ch=3 n=44 v=100
5972456 Off ch=3 n=9 v=0
5972457 On ch=3 n=12 v=100
5972458 On ch=3 n=35 v=100
5972522 On ch=3 n=39 v=100
5972590 Off ch=3 n=44 v=0
5972590 Off ch=3 n=12 v=0
5972607 On ch=3 n=25 v=100
5972611 Off ch=3 n=35 v=0
5972639 Off ch=3 n=39 v=0
5972737 On ch=3 n=13 v=100
5972737 Off ch=3 n=25 v=0
5973219 Off ch=3 n=13 v=0
5973238 On ch=3 n=12 v=100
5973602 Off ch=3 n=12 v=0
5974763 On ch=3 n=3 v=100
5975183 Off ch=3 n=3 v=0
5977562 On ch=3 n=8 v=100
5978097 Off ch=3 n=8 v=0
5978098 On ch=3 n=10 v=100
5978910 On ch=3 n=8 v=100
5978923 Off ch=3 n=10 v=0
5979169 Off ch=3 n=8 v=0
5981639 On ch=3 n=48 v=100
5981798 Off ch=3 n=48 v=0
5982657 On ch=3 n=53 v=100
5982657 On ch=3 n=53 v=100
5982675 On ch=3 n=52 v=100
5982675 On ch=3 n=52 v=100
5982690 On ch=3 n=47 v=100
5982755 On ch=3 n=43 v=100
5982755 On ch=3 n=35 v=100
5982848 Off ch=3 n=47 v=0
5982850 Off ch=3 n=53 v=0
5982850 Off ch=3 n=53 v=0
5982910 Off ch=3 n=52 v=0
5982910 Off ch=3 n=52 v=0
5982927 Off ch=3 n=35 v=0
5982990 Off ch=3 n=43 v=0
5983051 On ch=3 n=24 v=100
5983427 Off ch=3 n=24 v=0
5983725 On ch=3 n=41 v=100
5983854 On ch=3 n=19 v=100
5983870 On ch=3 n=11 v=100
5983929 Off ch=3 n=41 v=0
5983936 On ch=3 n=22 v=100
5983987 Off ch=3 n=11 v=0
5983987 Off ch=3 n=19 v=0
5983993 On ch=3 n=13 v=100
5984026 Off ch=3 n=13 v=0
5984034 Off ch=3 n=22 v=0
5984461 On ch=3 n=24 v=100
5984617 On ch=3 n=18 v=100
5984911 Off ch=3 n=18 v=0
5984913 Off ch=3 n=24 v=0
5984991 On ch=3 n=36 v=100
5984991 On ch=3 n=36 v=100
5985013 On ch=3 n=17 v=100
5985470 Off ch=3 n=17 v=0
5985563 Off ch=3 n=36 v=0
5985563 Off ch=3 n=36 v=0
5986255 On ch=3 n=13 v=100
5986294 Off ch=3 n=13 v=0
5986312 On ch=3 n=22 v=100
5986415 On ch=3 n=28 v=100
5986464 Off ch=3 n=22 v=0
5986468 On ch=3 n=10 v=100
5986611 On ch=3 n=13 v=100
5986612 Off ch=3 n=28 v=0
5986619 Off ch=3 n=10 v=0
5986927 Off ch=3 n=13 v=0
5988171 On ch=3 n=11 v=100
5988483 Off ch=3 n=11 v=0
5989008 On ch=3 n=22 v=100
5989071 On ch=3 n=23 v=100
5989104 On ch=3 n=13 v=100
5989138 On ch=3 n=19 v=100
5989186 On ch=3 n=36 v=100
5989487 Off ch=3 n=13 v=0
5989493 On ch=3 n=6 v=100
5989493 Off ch=3 n=22 v=0
5989563 Off ch=3 n=23 v=0
5989651 Off ch=3 n=19 v=0
5989761 Off ch=3 n=36 v=0
5990613 Off ch=3 n=6 v=0
5990706 On ch=3 n=20 v=100
5990785 Off ch=3 n=20 v=0
5990796 On ch=3 n=31 v=100
5990965 Off ch=3 n=31 v=0
5991252 On ch=3 n=18 v=100
5991703 Off ch=3 n=18 v=0
5991707 On ch=3 n=30 v=100
5992067 On ch=3 n=15 v=100
5992067 Off ch=3 n=30 v=0
5992232 On ch=3 n=7 v=100
5992267 Off ch=3 n=15 v=0
5993247 On ch=3 n=25 v=100
5993319 Off ch=3 n=7 v=0
5993320 On ch=3 n=4 v=100
5993352 Off ch=3 n=25 v=0
5993471 Off ch=3 n=4 v=0
5993522 On ch=3 n=4 v=100
5993645 Off ch=3 n=4 v=0
5993648 On ch=3 n=4 v=100
5993717 Off ch=3 n=4 v=0
5993922 On ch=3 n=6 v=100
5994178 On ch=3 n=7 v=100
5994183 Off ch=3 n=6 v=0
5994237 On ch=3 n=5 v=100
5994237 Off ch=3 n=7 v=0
5994350 Off ch=3 n=5 v=0
5994381 On ch=3 n=5 v=100
5994764 On ch=3 n=27 v=100
5994768 Off ch=3 n=5 v=0
5994899 Off ch=3 n=27 v=0
5994908 On ch=3 n=10 v=100
5995181 Off ch=3 n=10 v=0
5995188 On ch=3 n=7 v=100
5995409 Off ch=3 n=7 v=0
5995416 On ch=3 n=12 v=100
5995527 Off ch=3 n=12 v=0
5995863 On ch=3 n=14 v=100
5996088 On ch=3 n=9 v=100
5996089 Off ch=3 n=14 v=0
5996547 Off ch=3 n=9 v=0
5996735 On ch=3 n=7 v=100
5996894 Off ch=3 n=7 v=0
5996899 On ch=3 n=5 v=100
5996999 Off ch=3 n=5 v=0
5998202 On ch=3 n=11 v=100
5998431 Off ch=3 n=11 v=0
5998441 On ch=3 n=8 v=100
5998441 On ch=3 n=21 v=100
5998583 On ch=3 n=15 v=100
5998586 Off ch=3 n=8 v=0
5998682 Off ch=3 n=21 v=0
5998745 Off ch=3 n=15 v=0
5998885 On ch=3 n=15 v=100
5999473 Off ch=3 n=15 v=0
6000297 On ch=3 n=8 v=100
6000366 On ch=3 n=17 v=100
6000372 Off ch=3 n=8 v=0
6000691 On ch=3 n=39 v=100
6000731 On ch=3 n=31 v=100
6000764 On ch=3 n=26 v=100
6000764 On ch=3 n=26 v=100
6000766 On ch=3 n=13 v=100
6000766 On ch=3 n=13 v=100
6000784 On ch=3 n=4 v=100
6000789 Off ch=3 n=17 v=0
6000975 Off ch=3 n=4 v=0
6000984 Off ch=3 n=39 v=0
6000985 Off ch=3 n=31 v=0
6000989 On ch=3 n=11 v=100
6000992 Off ch=3 n=13 v=0
6000992 Off ch=3 n=13 v=0
6001019 Off ch=3 n=26 v=0
6001019 Off ch=3 n=26 v=0
6001153 Off ch=3 n=11 v=0
6001246 On ch=3 n=29 v=100
6001507 Off ch=3 n=29 v=0
6001583 On ch=3 n=46 v=100
6001941 Off ch=3 n=46 v=0
6002641 On ch=3 n=38 v=100
6002807 Off ch=3 n=38 v=0
6002811 On ch=3 n=19 v=100
6003107 On ch=3 n=21 v=100
6003140 On ch=3 n=10 v=100
6003143 Off ch=3 n=19 v=0
6003257 Off ch=3 n=21 v=0
6003257 Off ch=3 n=10 v=0
6003285 On ch=3 n=45 v=100
6003314 On ch=3 n=33 v=100
6003325 On ch=3 n=39 v=100
6003325 On ch=3 n=39 v=100
6003353 On ch=3 n=39 v=100
6003374 On ch=3 n=22 v=100
6003385 On ch=3 n=35 v=100
6003440 Off ch=3 n=45 v=0
6003440 Off ch=3 n=33 v=0
6003440 Off ch=3 n=39 v=0
6003440 Off ch=3 n=22 v=0
6003459 Off ch=3 n=39 v=0
6003459 Off ch=3 n=39 v=0
6003477 On ch=3 n=7 v=100
6003517 Off ch=3 n=35 v=0
6003677 Off ch=3 n=7 v=0
6004013 On ch=3 n=14 v=100
6004101 On ch=3 n=11 v=100
6004136 Off ch=3 n=14 v=0
6004398 On ch=3 n=19 v=100
6004564 Off ch=3 n=11 v=0
6004677 Off ch=3 n=19 v=0
6005538 On ch=3 n=7 v=100
6005586 Off ch=3 n=7 v=0
6005734 On ch=3 n=12 v=100
6006173 Off ch=3 n=12 v=0
6008909 On ch=3 n=9 v=100
6009050 Off ch=3 n=9 v=0
6012849 On ch=3 n=20 v=100
6012892 Off ch=3 n=20 v=0
6013362 On ch=3 n=23 v=100
6013641 On ch=3 n=10 v=100
6013648 Off ch=3 n=23 v=0
6013866 Off ch=3 n=10 v=0
6013949 On ch=3 n=30 v=100
6014030 Off ch=3 n=30 v=0
6015894 On ch=3 n=15 v=100
6015977 On ch=3 n=10 v=100
6015981 Off ch=3 n=15 v=0
6016007 Off ch=3 n=10 v=0
6016066 On ch=3 n=10 v=100
6016602 Off ch=3 n=10 v=0
6016685 On ch=3 n=10 v=100
6016686 On ch=3 n=22 v=100
6016751 Off ch=3 n=10 v=0
6016759 On ch=3 n=6 v=100
6016760 On ch=3 n=23 v=100
6016964 Off ch=3 n=6 v=0
6016974 Off ch=3 n=22 v=0
6017024 Off ch=3 n=23 v=0
6017608 On ch=3 n=38 v=100
6017750 Off ch=3 n=38 v=0
6017842 On ch=3 n=10 v=100
6018769 On ch=3 n=5 v=100
6018804 Off ch=3 n=10 v=0
6018972 Off ch=3 n=5 v=0
6019086 On ch=3 n=14 v=100
6019484 Off ch=3 n=14 v=0
6020633 On ch=3 n=11 v=100
6020633 On ch=3 n=13 v=100
6021045 On ch=3 n=4 v=100
6021052 Off ch=3 n=11 v=0
6021100 On ch=3 n=32 v=100
6021100 On ch=3 n=48 v=100
6021104 Off ch=3 n=13 v=0
6021114 Off ch=3 n=4 v=0
6021251 Off ch=3 n=32 v=0
6021333 Off ch=3 n=48 v=0
6021387 On ch=3 n=17 v=100
6021785 On ch=3 n=8 v=100
6021950 Off ch=3 n=17 v=0
6022195 On ch=3 n=20 v=100
6022490 Off ch=3 n=8 v=0
6022535 Off ch=3 n=20 v=0
6023506 On ch=3 n=37 v=100
6023580 Off ch=3 n=37 v=0
6023799 On ch=3 n=13 v=100
6023913 On ch=3 n=8 v=100
6023914 Off ch=3 n=13 v=0
6024196 On ch=3 n=21 v=100
6024571 Off ch=3 n=8 v=0
6024668 Off ch=3 n=21 v=0
6024674 On ch=3 n=30 v=100
6025072 On ch=3 n=21 v=100
6025159 Off ch=3 n=30 v=0
6025530 Off ch=3 n=21 v=0
6027481 On ch=3 n=14 v=100
6027584 Off ch=3 n=14 v=0
6027734 On ch=3 n=43 v=100
6027739 On ch=3 n=30 v=100
6027875 Off ch=3 n=30 v=0
6027958 Off ch=3 n=43 v=0
6028057 On ch=3 n=9 v=100
6028272 Off ch=3 n=9 v=0
6028280 On ch=3 n=12 v=100
6028417 Off ch=3 n=12 v=0
6030397 On ch=3 n=10 v=100
6030921 Off ch=3 n=10 v=0
6030944 On ch=3 n=7 v=100
6030971 Off ch=3 n=7 v=0
6031128 On ch=3 n=13 v=100
6031611 Off ch=3 n=13 v=0
6031881 On ch=3 n=27 v=100
6031881 On ch=3 n=27 v=100
6032013 On ch=3 n=19 v=100
6032019 On ch=3 n=20 v=100
6032019 On ch=3 n=20 v=100
6032317 Off ch=3 n=27 v=0
6032317 Off ch=3 n=19 v=0
6032317 Off ch=3 n=27 v=0
6032423 On ch=3 n=58 v=100
6032427 On ch=3 n=39 v=100
6032486 Off ch=3 n=20 v=0
6032486 Off ch=3 n=20 v=0
6032521 Off ch=3 n=39 v=0
6032610 Off ch=3 n=58 v=0
6033092 On ch=3 n=6 v=100
6033262 Off ch=3 n=6 v=0
6033267 On ch=3 n=13 v=100
6034177 Off ch=3 n=13 v=0
6034205 On ch=3 n=8 v=100
6034802 On ch=3 n=8 v=100
6034810 Off ch=3 n=8 v=0
6034879 Off ch=3 n=8 v=0
6036043 On ch=3 n=28 v=100
6036374 Off ch=3 n=28 v=0
6036430 On ch=3 n=11 v=100
6036507 Off ch=3 n=11 v=0
6036539 On ch=3 n=11 v=100
6036638 On ch=3 n=15 v=100
6036639 Off ch=3 n=11 v=0
6036703 On ch=3 n=15 v=100
6036815 Off ch=3 n=15 v=0
6036926 Off ch=3 n=15 v=0
6036930 On ch=3 n=20 v=100
6036950 On ch=3 n=21 v=100
6036972 Off ch=3 n=20 v=0
6037097 On ch=3 n=11 v=100
6037394 Off ch=3 n=11 v=0
6037396 Off ch=3 n=21 v=0
6037432 On ch=3 n=16 v=100
6037985 On ch=3 n=18 v=100
6037987 Off ch=3 n=16 v=0
6038221 Off ch=3 n=18 v=0
6039226 On ch=3 n=34 v=100
6039345 On ch=3 n=23 v=100
6039620 Off ch=3 n=23 v=0
6039630 Off ch=3 n=34 v=0
6040241 On ch=3 n=26 v=100
6040539 Off ch=3 n=26 v=0
6040543 On ch=3 n=9 v=100
6040829 On ch=3 n=9 v=100
6040952 Off ch=3 n=9 v=0
6041101 Off ch=3 n=9 v=0
6041108 On ch=3 n=18 v=100
6041175 Off ch=3 n=18 v=0
6041479 On ch=3 n=7 v=100
6041809 Off ch=3 n=7 v=0
6041959 On ch=3 n=15 v=100
6042152 On ch=3 n=6 v=100
6042448 Off ch=3 n=15 v=0
6042450 Off ch=3 n=6 v=0
6042458 On ch=3 n=13 v=100
6042681 Off ch=3 n=13 v=0
6042685 On ch=3 n=11 v=100
6043384 Off ch=3 n=11 v=0
6043385 On ch=3 n=24 v=100
6043442 Off ch=3 n=24 v=0
6043468 On ch=3 n=11 v=100
6043652 Off ch=3 n=11 v=0
6043660 On ch=3 n=12 v=100
6043889 Off ch=3 n=12 v=0
6044877 On ch=3 n=33 v=100
6044894 On ch=3 n=34 v=100
6044918 On ch=3 n=29 v=100
6045028 Off ch=3 n=33 v=0
6045029 Off ch=3 n=34 v=0
6045029 Off ch=3 n=29 v=0
6045031 On ch=3 n=11 v=100
6045540 Off ch=3 n=11 v=0
6045542 On ch=3 n=8 v=100
6045994 Off ch=3 n=8 v=0
6045998 On ch=3 n=10 v=100
6046318 On ch=3 n=25 v=100
6046359 On ch=3 n=8 v=100
6046360 Off ch=3 n=10 v=0
6046445 Off ch=3 n=25 v=0
6046568 On ch=3 n=8 v=100
6046568 Off ch=3 n=8 v=0
6046643 Off ch=3 n=8 v=0
6046645 On ch=3 n=13 v=100
6046919 Off ch=3 n=13 v=0
6047252 On ch=3 n=22 v=100
6047563 Off ch=3 n=22 v=0
6048234 On ch=3 n=24 v=100
6048456 Off ch=3 n=24 v=0
6048539 On ch=3 n=8 v=100
6048632 Off ch=3 n=8 v=0
6048685 On ch=3 n=23 v=100
6048738 Off ch=3 n=23 v=0
6048775 On ch=3 n=8 v=100
6049137 Off ch=3 n=8 v=0
6049142 On ch=3 n=6 v=100
6049627 On ch=3 n=18 v=100
6049634 Off ch=3 n=6 v=0
6049637 On ch=3 n=8 v=100
6049703 Off ch=3 n=18 v=0
6049719 On ch=3 n=24 v=100
6049726 Off ch=3 n=8 v=0
6050118 Off ch=3 n=24 v=0
6050881 On ch=3 n=44 v=100
6051234 Off ch=3 n=44 v=0
6051334 On ch=3 n=26 v=100
6051382 Off ch=3 n=26 v=0
6051383 On ch=3 n=25 v=100
6051461 Off ch=3 n=25 v=0
6051533 On ch=3 n=13 v=100
6051747 Off ch=3 n=13 v=0
6051750 On ch=3 n=9 v=100
6051971 Off ch=3 n=9 v=0
6051973 On ch=3 n=17 v=100
6052213 Off ch=3 n=17 v=0
6052785 On ch=3 n=25 v=100
6052966 Off ch=3 n=25 v=0
6053212 On ch=3 n=14 v=100
6053418 Off ch=3 n=14 v=0
6053419 On ch=3 n=16 v=100
6053818 On ch=3 n=15 v=100
6053823 Off ch=3 n=16 v=0
6054154 On ch=3 n=22 v=100
6054167 Off ch=3 n=15 v=0
6054395 Off ch=3 n=22 v=0
6054437 On ch=3 n=22 v=100
6054714 On ch=3 n=29 v=100
6054740 Off ch=3 n=22 v=0
6054742 On ch=3 n=5 v=100
6054743 On ch=3 n=56 v=100
6054743 On ch=3 n=56 v=100
6054807 Off ch=3 n=29 v=0
6054807 Off ch=3 n=5 v=0
6054812 On ch=3 n=8 v=100
6054853 On ch=3 n=9 v=100
6054853 Off ch=3 n=8 v=0
6055026 Off ch=3 n=56 v=0
6055026 Off ch=3 n=56 v=0
6055373 Off ch=3 n=9 v=0
6055453 On ch=3 n=7 v=100
6055632 Off ch=3 n=7 v=0
6056327 On ch=3 n=9 v=100
6056690 On ch=3 n=8 v=100
6056690 Off ch=3 n=9 v=0
6057762 Off ch=3 n=8 v=0
6057851 On ch=3 n=8 v=100
6058700 Off ch=3 n=8 v=0
6058726 On ch=3 n=11 v=100
6058832 Off ch=3 n=11 v=0
6060261 On ch=3 n=24 v=100
6060673 Off ch=3 n=24 v=0
6060681 On ch=3 n=6 v=100
6061538 On ch=3 n=8 v=100
6061542 Off ch=3 n=6 v=0
6061544 On ch=3 n=7 v=100
6061683 On ch=3 n=38 v=100
6061770 On ch=3 n=24 v=100
6061796 Off ch=3 n=8 v=0
6061828 Off ch=3 n=7 v=0
6061850 Off ch=3 n=38 v=0
6061954 On ch=3 n=6 v=100
6062059 Off ch=3 n=24 v=0
6062349 On ch=3 n=12 v=100
6062349 Off ch=3 n=6 v=0
6062680 Off ch=3 n=12 v=0
6062990 On ch=3 n=44 v=100
6063053 On ch=3 n=12 v=100
6063147 Off ch=3 n=44 v=0
6063348 On ch=3 n=8 v=100
6063353 Off ch=3 n=12 v=0
6063540 On ch=3 n=25 v=100
6063647 On ch=3 n=24 v=100
6063653 Off ch=3 n=8 v=0
6063731 Off ch=3 n=25 v=0
6063836 On ch=3 n=6 v=100
6063944 Off ch=3 n=24 v=0
6064231 On ch=3 n=12 v=100
6064231 Off ch=3 n=6 v=0
6064561 Off ch=3 n=12 v=0
6064870 On ch=3 n=44 v=100
6064933 On ch=3 n=6 v=100
6065027 Off ch=3 n=44 v=0
6065583 On ch=3 n=7 v=100
6065585 Off ch=3 n=6 v=0
6065858 Off ch=3 n=7 v=0
6065860 On ch=3 n=15 v=100
6065975 Off ch=3 n=15 v=0
6067065 On ch=3 n=18 v=100
6067112 On ch=3 n=12 v=100
6067313 Off ch=3 n=18 v=0
6067313 Off ch=3 n=12 v=0
6067314 On ch=3 n=30 v=100
6067368 On ch=3 n=4 v=100
6067381 Off ch=3 n=30 v=0
6067867 Off ch=3 n=4 v=0
6067948 On ch=3 n=6 v=100
6068122 Off ch=3 n=6 v=0
6068127 On ch=3 n=6 v=100
6069204 On ch=3 n=6 v=100
6069269 Off ch=3 n=6 v=0
6069272 On ch=3 n=5 v=100
6069277 Off ch=3 n=6 v=0
6070858 Off ch=3 n=5 v=0
6070865 On ch=3 n=8 v=100
6070874 Off ch=3 n=8 v=0
6070982 On ch=3 n=8 v=100
6071166 On ch=3 n=45 v=100
6071263 On ch=3 n=26 v=100
6071263 Off ch=3 n=8 v=0
6071297 Off ch=3 n=45 v=0
6071443 On ch=3 n=16 v=100
6071447 Off ch=3 n=26 v=0
6071667 Off ch=3 n=16 v=0
6072879 On ch=3 n=4 v=100
6073114 Off ch=3 n=4 v=0
6075136 On ch=3 n=17 v=100
6075324 On ch=3 n=19 v=100
6075533 On ch=3 n=16 v=100
6075726 Off ch=3 n=17 v=0
6075726 Off ch=3 n=19 v=0
6075731 On ch=3 n=9 v=100
6075731 On ch=3 n=17 v=100
6076087 Off ch=3 n=16 v=0
6076099 Off ch=3 n=9 v=0
6076109 On ch=3 n=16 v=100
6076156 Off ch=3 n=17 v=0
6076210 Off ch=3 n=16 v=0
6077772 On ch=3 n=27 v=100
6077843 Off ch=3 n=27 v=0
6077906 On ch=3 n=28 v=100
6077981 On ch=3 n=28 v=100
6078346 Off ch=3 n=28 v=0
6078353 Off ch=3 n=28 v=0
6081680 On ch=3 n=24 v=100
6081825 Off ch=3 n=24 v=0
6081828 On ch=3 n=32 v=100
6081910 Off ch=3 n=32 v=0
6081954 On ch=3 n=14 v=100
6082080 On ch=3 n=12 v=100
6082081 On ch=3 n=28 v=100
6082097 Off ch=3 n=14 v=0
6082164 Off ch=3 n=12 v=0
6082175 Off ch=3 n=28 v=0
6082242 On ch=3 n=16 v=100
6082318 On ch=3 n=28 v=100
6082320 On ch=3 n=8 v=100
6082388 On ch=3 n=16 v=100
6082651 Off ch=3 n=16 v=0
6082662 Off ch=3 n=8 v=0
6082865 Off ch=3 n=16 v=0
6082910 Off ch=3 n=28 v=0
6083096 On ch=3 n=0 v=100
6083132 Off ch=3 n=0 v=0
6083154 On ch=3 n=28 v=100
6083165 On ch=3 n=25 v=100
6083176 On ch=3 n=48 v=100
6083232 Off ch=3 n=28 v=0
6083232 Off ch=3 n=25 v=0
6083293 Off ch=3 n=48 v=0
6085571 On ch=3 n=27 v=100
6085702 On ch=3 n=23 v=100
6085722 On ch=3 n=12 v=100
6085724 Off ch=3 n=27 v=0
6085793 Off ch=3 n=23 v=0
6085805 Off ch=3 n=12 v=0
6085806 On ch=3 n=12 v=100
6086356 Off ch=3 n=12 v=0
6089023 On ch=3 n=7 v=100
6090144 Off ch=3 n=7 v=0
6090202 On ch=3 n=41 v=100
6090523 Off ch=3 n=41 v=0
6092263 On ch=3 n=18 v=100
6092441 Off ch=3 n=18 v=0
6092866 On ch=3 n=23 v=100
6093003 On ch=3 n=15 v=100
6093003 On ch=3 n=15 v=100
6093048 On ch=3 n=6 v=100
6093062 On ch=3 n=21 v=100
6093343 On ch=3 n=46 v=100
6093421 On ch=3 n=18 v=100
6093421 On ch=3 n=22 v=100
6093423 Off ch=3 n=6 v=0
6093427 Off ch=3 n=23 v=0
6093494 Off ch=3 n=15 v=0
6093494 Off ch=3 n=15 v=0
6093505 On ch=3 n=42 v=100
6093562 Off ch=3 n=21 v=0
6093647 Off ch=3 n=46 v=0
6093669 Off ch=3 n=18 v=0
6093703 Off ch=3 n=22 v=0
6093848 On ch=3 n=10 v=100
6093850 Off ch=3 n=42 v=0
6094328 Off ch=3 n=10 v=0
6094390 On ch=3 n=18 v=100
6094485 Off ch=3 n=18 v=0
6094486 On ch=3 n=10 v=100
6094537 Off ch=3 n=10 v=0
6094926 On ch=3 n=21 v=100
6095101 Off ch=3 n=21 v=0
6096269 On ch=3 n=10 v=100
6096424 On ch=3 n=14 v=100
6096424 Off ch=3 n=10 v=0
6096659 Off ch=3 n=14 v=0
6096668 On ch=3 n=6 v=100
6097142 Off ch=3 n=6 v=0
6103551 On ch=3 n=9 v=100
6103656 Off ch=3 n=9 v=0
6109851 On ch=3 n=24 v=100
6109899 On ch=3 n=2 v=100
6109909 Off ch=3 n=24 v=0
6110964 On ch=3 n=9 v=100
6110976 Off ch=3 n=2 v=0
6111630 Off ch=3 n=9 v=0
6111713 On ch=3 n=12 v=100
6111842 On ch=3 n=18 v=100
6111842 On ch=3 n=18 v=100
6111931 On ch=3 n=29 v=100
6111931 On ch=3 n=29 v=100
6111954 On ch=3 n=10 v=100
6111958 Off ch=3 n=12 v=0
6112306 Off ch=3 n=18 v=0
6112306 Off ch=3 n=18 v=0
6112346 Off ch=3 n=10 v=0
6112532 Off ch=3 n=29 v=0
6112532 Off ch=3 n=29 v=0
6112849 On ch=3 n=27 v=100
6113086 On ch=3 n=24 v=100
6113325 Off ch=3 n=27 v=0
6113396 Off ch=3 n=24 v=0
6114241 On ch=3 n=11 v=100
6114539 Off ch=3 n=11 v=0
6115177 On ch=3 n=10 v=100
6115469 Off ch=3 n=10 v=0
6115566 On ch=3 n=20 v=100
6115667 Off ch=3 n=20 v=0
6116197 On ch=3 n=31 v=100
6116362 Off ch=3 n=31 v=0
6117225 On ch=3 n=11 v=100
6117582 On ch=3 n=16 v=100
6117625 Off ch=3 n=11 v=0
6117668 On ch=3 n=17 v=100
6117802 On ch=3 n=17 v=100
6118223 Off ch=3 n=17 v=0
6118224 Off ch=3 n=16 v=0
6118319 Off ch=3 n=17 v=0
6118461 On ch=3 n=10 v=100
6119049 Off ch=3 n=10 v=0
6119534 On ch=3 n=10 v=100
6120202 Off ch=3 n=10 v=0
6121507 On ch=3 n=9 v=100
6121716 On ch=3 n=15 v=100
6121761 On ch=3 n=7 v=100
6121763 Off ch=3 n=9 v=0
6121779 Off ch=3 n=15 v=0
6122159 Off ch=3 n=7 v=0
6122161 On ch=3 n=8 v=100
6122384 Off ch=3 n=8 v=0
6122857 On ch=3 n=49 v=100
6123050 On ch=3 n=36 v=100
6123050 On ch=3 n=36 v=100
6123180 On ch=3 n=23 v=100
6123210 On ch=3 n=27 v=100
6123256 On ch=3 n=14 v=100
6123389 Off ch=3 n=49 v=0
6123617 Off ch=3 n=23 v=0
6123620 Off ch=3 n=14 v=0
6123628 On ch=3 n=38 v=100
6123638 Off ch=3 n=36 v=0
6123638 Off ch=3 n=36 v=0
6123668 Off ch=3 n=27 v=0
6123717 Off ch=3 n=38 v=0
6123831 On ch=3 n=25 v=100
6123913 On ch=3 n=27 v=100
6123970 On ch=3 n=24 v=100
6123979 Off ch=3 n=25 v=0
6124409 Off ch=3 n=27 v=0
6124413 Off ch=3 n=24 v=0
6124423 On ch=3 n=13 v=100
6124822 Off ch=3 n=13 v=0
6124996 On ch=3 n=16 v=100
6125717 On ch=3 n=26 v=100
6125759 Off ch=3 n=16 v=0
6125902 Off ch=3 n=26 v=0
6126779 On ch=3 n=30 v=100
6126960 Off ch=3 n=30 v=0
6127008 On ch=3 n=21 v=100
6127524 On ch=3 n=15 v=100
6127526 Off ch=3 n=21 v=0
6127775 On ch=3 n=11 v=100
6127782 On ch=3 n=35 v=100
6127783 Off ch=3 n=15 v=0
6128096 Off ch=3 n=11 v=0
6128109 On ch=3 n=31 v=100
6128134 Off ch=3 n=35 v=0
6128143 On ch=3 n=23 v=100
6128353 Off ch=3 n=31 v=0
6128356 Off ch=3 n=23 v=0
6128603 On ch=3 n=24 v=100
6128777 On ch=3 n=26 v=100
6128895 Off ch=3 n=24 v=0
6128898 On ch=3 n=16 v=100
6128898 On ch=3 n=23 v=100
6129240 Off ch=3 n=26 v=0
6129257 On ch=3 n=24 v=100
6129257 On ch=3 n=28 v=100
6129260 On ch=3 n=27 v=100
6129260 Off ch=3 n=16 v=0
6129347 Off ch=3 n=23 v=0
6129374 Off ch=3 n=24 v=0
6129392 Off ch=3 n=28 v=0
6129494 Off ch=3 n=27 v=0
6130958 On ch=3 n=22 v=100
6131345 Off ch=3 n=22 v=0
6131965 On ch=3 n=23 v=100
6131986 Off ch=3 n=23 v=0
6132039 On ch=3 n=23 v=100
6132101 Off ch=3 n=23 v=0
6132109 On ch=3 n=19 v=100
6132195 Off ch=3 n=19 v=0
6133225 On ch=3 n=10 v=100
6134505 Off ch=3 n=10 v=0
6134720 On ch=3 n=15 v=100
6134884 On ch=3 n=20 v=100
6134886 Off ch=3 n=15 v=0
6135049 On ch=3 n=14 v=100
6135049 On ch=3 n=17 v=100
6135396 Off ch=3 n=20 v=0
6135465 Off ch=3 n=14 v=0
6135517 Off ch=3 n=17 v=0
6136310 On ch=3 n=16 v=100
6136456 Off ch=3 n=16 v=0
6136834 On ch=3 n=21 v=100
6136959 On ch=3 n=27 v=100
6136959 Off ch=3 n=21 v=0
6137151 Off ch=3 n=27 v=0
6137429 On ch=3 n=9 v=100
6137971 On ch=3 n=44 v=100
6138103 Off ch=3 n=9 v=0
6138138 Off ch=3 n=44 v=0
6138600 On ch=3 n=44 v=100
6138717 Off ch=3 n=44 v=0
6139652 On ch=3 n=27 v=100
6139712 On ch=3 n=9 v=100
6139712 Off ch=3 n=27 v=0
6140241 On ch=3 n=36 v=100
6140241 Off ch=3 n=9 v=0
6140699 Off ch=3 n=36 v=0
6141599 On ch=3 n=26 v=100
6141656 Off ch=3 n=26 v=0
6143090 On ch=3 n=20 v=100
6143289 On ch=3 n=31 v=100
6143344 Off ch=3 n=20 v=0
6143463 On ch=3 n=24 v=100
6143820 Off ch=3 n=31 v=0
6143820 Off ch=3 n=24 v=0
6144054 On ch=3 n=5 v=100
6144280 Off ch=3 n=5 v=0
6144599 On ch=3 n=9 v=100
6145852 Off ch=3 n=9 v=0
6146591 On ch=3 n=29 v=100
6146653 On ch=3 n=12 v=100
6146844 Off ch=3 n=29 v=0
6146844 Off ch=3 n=12 v=0
6146885 On ch=3 n=12 v=100
6146954 Off ch=3 n=12 v=0
6147112 On ch=3 n=11 v=100
6147223 Off ch=3 n=11 v=0
6147250 On ch=3 n=36 v=100
6147407 Off ch=3 n=36 v=0
6147949 On ch=3 n=4 v=100
6148420 Off ch=3 n=4 v=0
6148612 On ch=3 n=11 v=100
6149032 On ch=3 n=22 v=100
6149035 On ch=3 n=12 v=100
6149037 Off ch=3 n=11 v=0
6149208 Off ch=3 n=12 v=0
6149209 On ch=3 n=12 v=100
6149244 Off ch=3 n=22 v=0
6149378 Off ch=3 n=12 v=0
6150002 On ch=3 n=12 v=100
6150266 Off ch=3 n=12 v=0
6150369 On ch=3 n=4 v=100
6150622 Off ch=3 n=4 v=0
6150937 On ch=3 n=13 v=100
6151021 On ch=3 n=7 v=100
6151027 Off ch=3 n=13 v=0
6151577 Off ch=3 n=7 v=0
6151619 On ch=3 n=12 v=100
6151626 On ch=3 n=19 v=100
6151630 On ch=3 n=12 v=100
6151680 Off ch=3 n=12 v=0
6151996 Off ch=3 n=12 v=0
6152056 Off ch=3 n=19 v=0
6152264 On ch=3 n=20 v=100
6152306 Off ch=3 n=20 v=0
6152635 On ch=3 n=19 v=100
6152711 On ch=3 n=14 v=100
6152992 Off ch=3 n=19 v=0
6152992 Off ch=3 n=14 v=0
6153628 On ch=3 n=9 v=100
6153781 On ch=3 n=4 v=100
6153781 Off ch=3 n=9 v=0
6154973 Off ch=3 n=4 v=0
6154975 On ch=3 n=10 v=100
6155147 On ch=3 n=26 v=100
6155154 Off ch=3 n=10 v=0
6155161 On ch=3 n=39 v=100
6155207 Off ch=3 n=26 v=0
6155261 Off ch=3 n=39 v=0
6155641 On ch=3 n=20 v=100
6155649 On ch=3 n=8 v=100
6155673 Off ch=3 n=20 v=0
6155854 Off ch=3 n=8 v=0
6155856 On ch=3 n=10 v=100
6156390 Off ch=3 n=10 v=0
6156396 On ch=3 n=6 v=100
6156472 Off ch=3 n=6 v=0
6157141 On ch=3 n=19 v=100
6157338 Off ch=3 n=19 v=0
6157346 On ch=3 n=18 v=100
6157479 On ch=3 n=9 v=100
6157509 Off ch=3 n=18 v=0
6158438 Off ch=3 n=9 v=0
6158444 On ch=3 n=12 v=100
6159342 Off ch=3 n=12 v=0
6160317 On ch=3 n=7 v=100
6160342 Off ch=3 n=7 v=0
6160368 On ch=3 n=19 v=100
6160513 Off ch=3 n=19 v=0
6160519 On ch=3 n=10 v=100
6160707 On ch=3 n=44 v=100
6160769 On ch=3 n=14 v=100
6160771 Off ch=3 n=10 v=0
6160913 Off ch=3 n=44 v=0
6160958 Off ch=3 n=14 v=0
6160959 On ch=3 n=11 v=100
6161425 Off ch=3 n=11 v=0
6161942 On ch=3 n=12 v=100
6162471 Off ch=3 n=12 v=0
6162485 On ch=3 n=11 v=100
6162559 Off ch=3 n=11 v=0
6162561 On ch=3 n=16 v=100
6162651 Off ch=3 n=16 v=0
6162768 On ch=3 n=28 v=100
6162768 On ch=3 n=28 v=100
6162802 On ch=3 n=24 v=100
6163158 Off ch=3 n=24 v=0
6163395 Off ch=3 n=28 v=0
6163395 Off ch=3 n=28 v=0
6165388 On ch=3 n=22 v=100
6165511 Off ch=3 n=22 v=0
6165533 On ch=3 n=7 v=100
6165715 Off ch=3 n=7 v=0
6171762 On ch=3 n=29 v=100
6171840 On ch=3 n=11 v=100
6172463 Off ch=3 n=29 v=0
6172463 Off ch=3 n=11 v=0
6172466 On ch=3 n=29 v=100
6172507 On ch=3 n=18 v=100
6172508 On ch=3 n=19 v=100
6172581 On ch=3 n=13 v=100
6172589 Off ch=3 n=29 v=0
6172645 On ch=3 n=14 v=100
6172960 Off ch=3 n=18 v=0
6173019 On ch=3 n=28 v=100
6173032 Off ch=3 n=19 v=0
6173036 Off ch=3 n=13 v=0
6173104 Off ch=3 n=14 v=0
6173128 Off ch=3 n=28 v=0
6173715 On ch=3 n=17 v=100
6173825 Off ch=3 n=17 v=0
6173852 On ch=3 n=17 v=100
6173862 On ch=3 n=28 v=100
6173936 On ch=3 n=23 v=100
6173938 Off ch=3 n=17 v=0
6174106 Off ch=3 n=28 v=0
6174276 Off ch=3 n=23 v=0
6174344 On ch=3 n=23 v=100
6174495 Off ch=3 n=23 v=0
6174572 On ch=3 n=7 v=100
6174769 Off ch=3 n=7 v=0
6175089 On ch=3 n=14 v=100
6175290 Off ch=3 n=14 v=0
6175978 On ch=3 n=11 v=100
6176036 Off ch=3 n=11 v=0
6176047 On ch=3 n=12 v=100
6176267 Off ch=3 n=12 v=0
6176269 On ch=3 n=5 v=100
6176341 Off ch=3 n=5 v=0
6176344 On ch=3 n=6 v=100
6176677 Off ch=3 n=6 v=0
6177442 On ch=3 n=6 v=100
6177442 On ch=3 n=6 v=100
6177583 On ch=3 n=28 v=100
6177637 On ch=3 n=6 v=100
6177637 On ch=3 n=6 v=100
6177736 Off ch=3 n=6 v=0
6177736 Off ch=3 n=6 v=0
6177760 Off ch=3 n=28 v=0
6177793 Off ch=3 n=6 v=0
6177793 Off ch=3 n=6 v=0
6177794 On ch=3 n=7 v=100
6178052 Off ch=3 n=7 v=0
6178055 On ch=3 n=11 v=100
6178084 Off ch=3 n=11 v=0
6178150 On ch=3 n=10 v=100
6178298 On ch=3 n=27 v=100
6178426 Off ch=3 n=10 v=0
6178438 On ch=3 n=26 v=100
6178439 On ch=3 n=4 v=100
6178452 Off ch=3 n=27 v=0
6178587 Off ch=3 n=4 v=0
6178638 On ch=3 n=15 v=100
6178652 Off ch=3 n=26 v=0
6178870 Off ch=3 n=15 v=0
6179279 On ch=3 n=22 v=100
6179302 On ch=3 n=16 v=100
6179502 Off ch=3 n=16 v=0
6179506 Off ch=3 n=22 v=0
6179565 On ch=3 n=35 v=100
6179629 On ch=3 n=54 v=100
6179733 Off ch=3 n=35 v=0
6179752 Off ch=3 n=54 v=0
6180602 On ch=3 n=7 v=100
6181305 Off ch=3 n=7 v=0
6181307 On ch=3 n=9 v=100
6181307 On ch=3 n=13 v=100
6181407 Off ch=3 n=9 v=0
6181419 Off ch=3 n=13 v=0
6181496 On ch=3 n=6 v=100
6181891 Off ch=3 n=6 v=0
6181892 On ch=3 n=1 v=100
6188455 On ch=3 n=24 v=100
6188466 Off ch=3 n=1 v=0
6188468 On ch=3 n=6 v=100
6188595 Off ch=3 n=6 v=0
6188606 Off ch=3 n=24 v=0
6188643 On ch=3 n=39 v=100
6188708 Off ch=3 n=39 v=0
6188835 On ch=3 n=39 v=100
6189179 Off ch=3 n=39 v=0
6190421 On ch=3 n=14 v=100
6190464 On ch=3 n=13 v=100
6190464 Off ch=3 n=14 v=0
6190673 Off ch=3 n=13 v=0
6190719 On ch=3 n=20 v=100
6190883 Off ch=3 n=20 v=0
6192896 On ch=3 n=38 v=100
6193022 Off ch=3 n=38 v=0
6193235 On ch=3 n=32 v=100
6193338 Off ch=3 n=32 v=0
6193733 On ch=3 n=15 v=100
6193829 On ch=3 n=37 v=100
6194002 Off ch=3 n=15 v=0
6194037 Off ch=3 n=37 v=0
6195371 On ch=3 n=21 v=100
6195810 Off ch=3 n=21 v=0
6196545 On ch=3 n=18 v=100
6196642 Off ch=3 n=18 v=0
6196672 On ch=3 n=12 v=100
6196759 Off ch=3 n=12 v=0
6197576 On ch=3 n=8 v=100
6197929 On ch=3 n=32 v=100
6197970 Off ch=3 n=8 v=0
6198212 Off ch=3 n=32 v=0
6198220 On ch=3 n=12 v=100
6199280 On ch=3 n=28 v=100
6199284 Off ch=3 n=12 v=0
6199395 Off ch=3 n=28 v=0
6200390 On ch=3 n=17 v=100
6200434 Off ch=3 n=17 v=0
6200435 On ch=3 n=18 v=100
6200526 Off ch=3 n=18 v=0
6200815 On ch=3 n=18 v=100
6200889 On ch=3 n=20 v=100
6200897 On ch=3 n=16 v=100
6201140 On ch=3 n=26 v=100
6201270 On ch=3 n=32 v=100
6201275 Off ch=3 n=18 v=0
6201320 Off ch=3 n=16 v=0
6201386 Off ch=3 n=20 v=0
6201419 Off ch=3 n=26 v=0
6201448 Off ch=3 n=32 v=0
6201450 On ch=3 n=27 v=100
6201535 On ch=3 n=9 v=100
6201537 Off ch=3 n=27 v=0
6202680 Off ch=3 n=9 v=0
6205190 On ch=3 n=11 v=100
6205549 Off ch=3 n=11 v=0
6205564 On ch=3 n=37 v=100
6205564 On ch=3 n=37 v=100
6206020 On ch=3 n=11 v=100
6206139 On ch=3 n=15 v=100
6206395 Off ch=3 n=11 v=0
6206427 Off ch=3 n=37 v=0
6206427 Off ch=3 n=37 v=0
6206547 On ch=3 n=38 v=100
6206548 On ch=3 n=34 v=100
6206651 Off ch=3 n=15 v=0
6206711 Off ch=3 n=38 v=0
6206734 Off ch=3 n=34 v=0
6207346 On ch=3 n=13 v=100
6207621 On ch=3 n=8 v=100
6207622 Off ch=3 n=13 v=0
6208310 Off ch=3 n=8 v=0
6208768 On ch=3 n=40 v=100
6208768 On ch=3 n=40 v=100
6208890 On ch=3 n=31 v=100
6208890 On ch=3 n=31 v=100
6209022 Off ch=3 n=40 v=0
6209022 Off ch=3 n=40 v=0
6209029 On ch=3 n=22 v=100
6209041 On ch=3 n=9 v=100
6209061 Off ch=3 n=31 v=0
6209061 Off ch=3 n=31 v=0
6209120 Off ch=3 n=22 v=0
6209273 Off ch=3 n=9 v=0
6209280 On ch=3 n=22 v=100
6209659 Off ch=3 n=22 v=0
6209978 On ch=3 n=38 v=100
6209978 On ch=3 n=19 v=100
6209979 On ch=3 n=12 v=100
6210208 Off ch=3 n=12 v=0
6210335 On ch=3 n=21 v=100
6210337 Off ch=3 n=19 v=0
6210480 Off ch=3 n=38 v=0
6210483 Off ch=3 n=21 v=0
6211018 On ch=3 n=35 v=100
6211220 On ch=3 n=12 v=100
6211400 Off ch=3 n=35 v=0
6211405 On ch=3 n=12 v=100
6211405 Off ch=3 n=12 v=0
6212046 On ch=3 n=16 v=100
6212055 Off ch=3 n=12 v=0
6212058 On ch=3 n=21 v=100
6212059 On ch=3 n=15 v=100
6212059 On ch=3 n=28 v=100
6212158 Off ch=3 n=16 v=0
6212298 Off ch=3 n=15 v=0
6212330 Off ch=3 n=21 v=0
6212415 Off ch=3 n=28 v=0
6213572 On ch=3 n=23 v=100
6213766 Off ch=3 n=23 v=0
6214520 On ch=3 n=11 v=100
6215052 Off ch=3 n=11 v=0
6215720 On ch=3 n=14 v=100
6215905 Off ch=3 n=14 v=0
6215926 On ch=3 n=0 v=100
6216036 Off ch=3 n=0 v=0
6216037 On ch=3 n=7 v=100
6216230 On ch=3 n=1 v=100
6216234 Off ch=3 n=7 v=0
6216267 On ch=3 n=1 v=100
6216429 Off ch=3 n=1 v=0
6216597 Off ch=3 n=1 v=0
6220592 On ch=3 n=31 v=100
6220623 Off ch=3 n=31 v=0
6220714 On ch=3 n=31 v=100
6220714 On ch=3 n=1 v=100
6220731 Off ch=3 n=31 v=0
6220787 Off ch=3 n=1 v=0
6222065 On ch=3 n=43 v=100
6222065 On ch=3 n=43 v=100
6222111 On ch=3 n=13 v=100
6222347 Off ch=3 n=13 v=0
6222412 On ch=3 n=19 v=100
6222902 Off ch=3 n=19 v=0
6223145 Off ch=3 n=43 v=0
6223145 Off ch=3 n=43 v=0
6223147 On ch=3 n=6 v=100
6223861 Off ch=3 n=6 v=0
6223862 On ch=3 n=5 v=100
6223994 On ch=3 n=20 v=100
6224179 Off ch=3 n=5 v=0
6224223 Off ch=3 n=20 v=0
6224953 On ch=3 n=23 v=100
6224963 On ch=3 n=13 v=100
6225020 On ch=3 n=43 v=100
6225147 Off ch=3 n=13 v=0
6225168 Off ch=3 n=23 v=0
6225194 Off ch=3 n=43 v=0
6225342 On ch=3 n=10 v=100
6225788 Off ch=3 n=10 v=0
6226843 On ch=3 n=28 v=100
6227042 Off ch=3 n=28 v=0
6227106 On ch=3 n=9 v=100
6227175 Off ch=3 n=9 v=0
6227189 On ch=3 n=11 v=100
6227311 Off ch=3 n=11 v=0
6227337 On ch=3 n=26 v=100
6227396 Off ch=3 n=26 v=0
6227416 On ch=3 n=11 v=100
6227651 Off ch=3 n=11 v=0
6227698 On ch=3 n=18 v=100
6228088 Off ch=3 n=18 v=0
6228139 On ch=3 n=18 v=100
6228321 Off ch=3 n=18 v=0
6228388 On ch=3 n=16 v=100
6228488 On ch=3 n=26 v=100
6228500 On ch=3 n=31 v=100
6228540 Off ch=3 n=16 v=0
6228641 On ch=3 n=25 v=100
6228810 Off ch=3 n=26 v=0
6228812 On ch=3 n=7 v=100
6228882 Off ch=3 n=31 v=0
6228882 Off ch=3 n=25 v=0
6229183 Off ch=3 n=7 v=0
6229187 On ch=3 n=4 v=100
6229275 Off ch=3 n=4 v=0
6229276 On ch=3 n=10 v=100
6229467 Off ch=3 n=10 v=0
6229498 On ch=3 n=17 v=100
6229661 Off ch=3 n=17 v=0
6229772 On ch=3 n=38 v=100
6229793 On ch=3 n=24 v=100
6229963 Off ch=3 n=38 v=0
6229977 Off ch=3 n=24 v=0
6230080 On ch=3 n=29 v=100
6230155 On ch=3 n=8 v=100
6230155 Off ch=3 n=29 v=0
6231391 Off ch=3 n=8 v=0
6231392 On ch=3 n=9 v=100
6231517 On ch=3 n=25 v=100
6231548 Off ch=3 n=9 v=0
6231675 Off ch=3 n=25 v=0
6231797 On ch=3 n=26 v=100
6232007 Off ch=3 n=26 v=0
6232181 On ch=3 n=12 v=100
6232461 Off ch=3 n=12 v=0
6233032 On ch=3 n=6 v=100
6233102 Off ch=3 n=6 v=0
6233185 On ch=3 n=33 v=100
6233329 Off ch=3 n=33 v=0
6233648 On ch=3 n=29 v=100
6233812 Off ch=3 n=29 v=0
6233818 On ch=3 n=24 v=100
6233919 On ch=3 n=8 v=100
6233922 Off ch=3 n=24 v=0
6234291 Off ch=3 n=8 v=0
6234331 On ch=3 n=8 v=100
6234343 Off ch=3 n=8 v=0
6241705 On ch=3 n=5 v=100
6242040 On ch=3 n=9 v=100
6242054 Off ch=3 n=5 v=0
6242764 On ch=3 n=19 v=100
6243027 Off ch=3 n=9 v=0
6243544 Off ch=3 n=19 v=0
6243546 On ch=3 n=22 v=100
6244092 Off ch=3 n=22 v=0
6244415 On ch=3 n=21 v=100
6244483 On ch=3 n=13 v=100
6244680 On ch=3 n=7 v=100
6244680 Off ch=3 n=21 v=0
6244681 Off ch=3 n=13 v=0
6245282 On ch=3 n=3 v=100
6245284 Off ch=3 n=7 v=0
6246018 On ch=3 n=7 v=100
6246018 Off ch=3 n=3 v=0
6246405 On ch=3 n=13 v=100
6246405 Off ch=3 n=7 v=0
6246427 On ch=3 n=20 v=100
6246431 On ch=3 n=34 v=100
6246435 Off ch=3 n=13 v=0
6246654 Off ch=3 n=20 v=0
6246707 Off ch=3 n=34 v=0
6247265 On ch=3 n=16 v=100
6247349 On ch=3 n=24 v=100
6247363 Off ch=3 n=16 v=0
6247420 Off ch=3 n=24 v=0
6247528 On ch=3 n=17 v=100
6247567 On ch=3 n=18 v=100
6247606 Off ch=3 n=17 v=0
6247608 On ch=3 n=8 v=100
6247755 Off ch=3 n=18 v=0
6247755 Off ch=3 n=8 v=0
6247756 On ch=3 n=8 v=100
6248725 Off ch=3 n=8 v=0
6248728 On ch=3 n=10 v=100
6248790 On ch=3 n=16 v=100
6248790 Off ch=3 n=10 v=0
6248791 On ch=3 n=19 v=100
6248865 On ch=3 n=19 v=100
6248865 Off ch=3 n=16 v=0
6248874 Off ch=3 n=19 v=0
6249017 Off ch=3 n=19 v=0
6249402 On ch=3 n=8 v=100
6250377 On ch=3 n=39 v=100
6250654 Off ch=3 n=8 v=0
6250738 Off ch=3 n=39 v=0
6251302 On ch=3 n=5 v=100
6251466 Off ch=3 n=5 v=0
6251467 On ch=3 n=6 v=100
6253486 Off ch=3 n=6 v=0
6254182 On ch=3 n=7 v=100
6254627 Off ch=3 n=7 v=0
6254628 On ch=3 n=10 v=100
6255664 On ch=3 n=14 v=100
6255675 Off ch=3 n=10 v=0
6255772 On ch=3 n=11 v=100
6255784 Off ch=3 n=14 v=0
6256093 Off ch=3 n=11 v=0
6256653 On ch=3 n=50 v=100
6256838 Off ch=3 n=50 v=0
6258949 On ch=3 n=38 v=100
6259040 Off ch=3 n=38 v=0
6259122 On ch=3 n=11 v=100
6259500 Off ch=3 n=11 v=0
6259505 On ch=3 n=17 v=100
6259595 Off ch=3 n=17 v=0
6260025 On ch=3 n=31 v=100
6260149 Off ch=3 n=31 v=0
6260366 On ch=3 n=29 v=100
6260366 On ch=3 n=29 v=100
6260402 On ch=3 n=11 v=100
6260747 Off ch=3 n=11 v=0
6260764 Off ch=3 n=29 v=0
6260764 Off ch=3 n=29 v=0
6261175 On ch=3 n=26 v=100
6261298 On ch=3 n=31 v=100
6261326 Off ch=3 n=26 v=0
6261395 On ch=3 n=9 v=100
6261470 Off ch=3 n=31 v=0
6262089 On ch=3 n=5 v=100
6262093 Off ch=3 n=9 v=0
6262487 On ch=3 n=65 v=100
6262572 On ch=3 n=9 v=100
6262572 Off ch=3 n=5 v=0
6262920 Off ch=3 n=65 v=0
6262989 Off ch=3 n=9 v=0
6263381 On ch=3 n=20 v=100
6263443 Off ch=3 n=20 v=0
6264129 On ch=3 n=25 v=100
6264435 On ch=3 n=13 v=100
6264441 Off ch=3 n=25 v=0
6264592 On ch=3 n=18 v=100
6264592 Off ch=3 n=13 v=0
6264628 Off ch=3 n=18 v=0
6264630 On ch=3 n=16 v=100
6265093 Off ch=3 n=16 v=0
6265104 On ch=3 n=17 v=100
6265159 Off ch=3 n=17 v=0
6265166 On ch=3 n=6 v=100
6265609 Off ch=3 n=6 v=0
6265611 On ch=3 n=21 v=100
6265793 Off ch=3 n=21 v=0
6265837 On ch=3 n=8 v=100
6266040 Off ch=3 n=8 v=0
6267032 On ch=3 n=11 v=100
6267419 On ch=3 n=19 v=100
6267447 Off ch=3 n=11 v=0
6267454 On ch=3 n=11 v=100
6267463 On ch=3 n=16 v=100
6267474 On ch=3 n=26 v=100
6267658 Off ch=3 n=19 v=0
6267768 Off ch=3 n=11 v=0
6267834 Off ch=3 n=16 v=0
6267950 Off ch=3 n=26 v=0
6268091 On ch=3 n=13 v=100
6269266 Off ch=3 n=13 v=0
6269798 On ch=3 n=57 v=100
6269959 On ch=3 n=43 v=100
6270056 Off ch=3 n=57 v=0
6270056 Off ch=3 n=43 v=0
6270447 On ch=3 n=37 v=100
6270472 On ch=3 n=19 v=100
6270474 On ch=3 n=49 v=100
6270585 On ch=3 n=30 v=100
6270613 Off ch=3 n=19 v=0
6270619 On ch=3 n=10 v=100
6270633 Off ch=3 n=37 v=0
6270687 Off ch=3 n=49 v=0
6270806 Off ch=3 n=30 v=0
6271338 Off ch=3 n=10 v=0
6271341 On ch=3 n=14 v=100
6271480 Off ch=3 n=14 v=0
6271563 On ch=3 n=25 v=100
6271792 Off ch=3 n=25 v=0
6271793 On ch=3 n=40 v=100
6271824 On ch=3 n=30 v=100
6271898 Off ch=3 n=40 v=0
6271998 On ch=3 n=32 v=100
6272035 Off ch=3 n=30 v=0
6272177 On ch=3 n=23 v=100
6272221 Off ch=3 n=32 v=0
6272239 Off ch=3 n=23 v=0
6273351 On ch=3 n=18 v=100
6273448 Off ch=3 n=18 v=0
6273939 On ch=3 n=21 v=100
6273983 On ch=3 n=15 v=100
6273983 On ch=3 n=30 v=100
6274110 Off ch=3 n=21 v=0
6274143 Off ch=3 n=15 v=0
6274172 Off ch=3 n=30 v=0
6274395 On ch=3 n=19 v=100
6274436 Off ch=3 n=19 v=0
6275061 On ch=3 n=13 v=100
6275141 Off ch=3 n=13 v=0
6275261 On ch=3 n=14 v=100
6275307 On ch=3 n=21 v=100
6275469 Off ch=3 n=14 v=0
6275477 On ch=3 n=26 v=100
6275555 Off ch=3 n=21 v=0
6275649 On ch=3 n=23 v=100
6275824 Off ch=3 n=26 v=0
6275835 Off ch=3 n=23 v=0
6276275 On ch=3 n=18 v=100
6276322 Off ch=3 n=18 v=0
6276655 On ch=3 n=19 v=100
6276918 On ch=3 n=36 v=100
6276918 Off ch=3 n=19 v=0
6277086 Off ch=3 n=36 v=0
6277100 On ch=3 n=22 v=100
6277332 Off ch=3 n=22 v=0
6278689 On ch=3 n=37 v=100
6278802 Off ch=3 n=37 v=0
6278863 On ch=3 n=12 v=100
6279202 Off ch=3 n=12 v=0
6279206 On ch=3 n=11 v=100
6279674 Off ch=3 n=11 v=0
6279738 On ch=3 n=11 v=100
6279969 Off ch=3 n=11 v=0
6280035 On ch=3 n=9 v=100
6280598 Off ch=3 n=9 v=0
6286612 On ch=3 n=36 v=100
6286646 On ch=3 n=8 v=100
6286716 Off ch=3 n=36 v=0
6286784 Off ch=3 n=8 v=0
6287122 On ch=3 n=10 v=100
6287184 Off ch=3 n=10 v=0
6287413 On ch=3 n=8 v=100
6288255 On ch=3 n=4 v=100
6288255 Off ch=3 n=8 v=0
6288264 On ch=3 n=35 v=100
6288297 Off ch=3 n=4 v=0
6288384 Off ch=3 n=35 v=0
6289333 On ch=3 n=24 v=100
6289898 Off ch=3 n=24 v=0
6290357 On ch=3 n=39 v=100
6290398 On ch=3 n=26 v=100
6290553 Off ch=3 n=39 v=0
6290628 On ch=3 n=15 v=100
6290629 On ch=3 n=20 v=100
6290754 On ch=3 n=29 v=100
6290891 Off ch=3 n=26 v=0
6290916 Off ch=3 n=15 v=0
6290951 Off ch=3 n=20 v=0
6290985 On ch=3 n=12 v=100
6291054 Off ch=3 n=29 v=0
6291604 On ch=3 n=15 v=100
6291689 Off ch=3 n=12 v=0
6292199 Off ch=3 n=15 v=0
6293002 On ch=3 n=14 v=100
6293188 On ch=3 n=31 v=100
6293197 Off ch=3 n=14 v=0
6293249 On ch=3 n=29 v=100
6293483 On ch=3 n=31 v=100
6293486 On ch=3 n=11 v=100
6293611 Off ch=3 n=31 v=0
6293766 Off ch=3 n=11 v=0
6293770 Off ch=3 n=29 v=0
6293942 Off ch=3 n=31 v=0
6294086 On ch=3 n=11 v=100
6294936 On ch=3 n=11 v=100
6294988 Off ch=3 n=11 v=0
6295201 Off ch=3 n=11 v=0
6296469 On ch=3 n=9 v=100
6296915 Off ch=3 n=9 v=0
6296928 On ch=3 n=8 v=100
6296947 On ch=3 n=24 v=100
6297049 On ch=3 n=10 v=100
6297052 Off ch=3 n=8 v=0
6297197 On ch=3 n=28 v=100
6297221 On ch=3 n=18 v=100
6297245 Off ch=3 n=24 v=0
6297253 On ch=3 n=62 v=100
6297257 Off ch=3 n=10 v=0
6297259 On ch=3 n=4 v=100
6297448 Off ch=3 n=4 v=0
6297456 Off ch=3 n=18 v=0
6297467 Off ch=3 n=28 v=0
6297709 On ch=3 n=21 v=100
6297771 Off ch=3 n=62 v=0
6297847 On ch=3 n=18 v=100
6297888 On ch=3 n=27 v=100
6297957 On ch=3 n=14 v=100
6297972 On ch=3 n=27 v=100
6297972 On ch=3 n=27 v=100
6298011 Off ch=3 n=21 v=0
6298018 On ch=3 n=17 v=100
6298057 Off ch=3 n=18 v=0
6298298 Off ch=3 n=27 v=0
6298422 Off ch=3 n=14 v=0
6298427 On ch=3 n=9 v=100
6298476 Off ch=3 n=17 v=0
6298537 Off ch=3 n=27 v=0
6298537 Off ch=3 n=27 v=0
6298701 Off ch=3 n=9 v=0
6300077 On ch=3 n=25 v=100
6300330 Off ch=3 n=25 v=0
6300332 On ch=3 n=9 v=100
6301114 On ch=3 n=34 v=100
6301123 Off ch=3 n=9 v=0
6301259 On ch=3 n=13 v=100
6301260 On ch=3 n=27 v=100
6301451 Off ch=3 n=13 v=0
6301460 Off ch=3 n=34 v=0
6301570 Off ch=3 n=27 v=0
6301584 On ch=3 n=3 v=100
6301619 On ch=3 n=33 v=100
6301620 Off ch=3 n=3 v=0
6301626 On ch=3 n=20 v=100
6301677 Off ch=3 n=33 v=0
6301686 Off ch=3 n=20 v=0
6301707 On ch=3 n=16 v=100
6301956 On ch=3 n=27 v=100
6301996 Off ch=3 n=16 v=0
6302190 Off ch=3 n=27 v=0
6302240 On ch=3 n=33 v=100
6302246 On ch=3 n=19 v=100
6302294 Off ch=3 n=33 v=0
6302301 On ch=3 n=31 v=100
6302772 Off ch=3 n=19 v=0
6302779 On ch=3 n=19 v=100
6302877 Off ch=3 n=31 v=0
6302959 Off ch=3 n=19 v=0
6302963 On ch=3 n=9 v=100
6303147 Off ch=3 n=9 v=0
6303389 On ch=3 n=15 v=100
6303627 Off ch=3 n=15 v=0
6304740 On ch=3 n=17 v=100
6304912 On ch=3 n=24 v=100
6305009 Off ch=3 n=17 v=0
6305038 Off ch=3 n=24 v=0
6305051 On ch=3 n=14 v=100
6305127 Off ch=3 n=14 v=0
6305129 On ch=3 n=9 v=100
6305421 On ch=3 n=29 v=100
6305456 Off ch=3 n=9 v=0
6305481 On ch=3 n=25 v=100
6305489 On ch=3 n=20 v=100
6305545 Off ch=3 n=29 v=0
6305581 On ch=3 n=7 v=100
6305613 Off ch=3 n=20 v=0
6305629 Off ch=3 n=25 v=0
6306059 Off ch=3 n=7 v=0
6306978 On ch=3 n=5 v=100
6307238 Off ch=3 n=5 v=0
6307537 On ch=3 n=10 v=100
6308291 On ch=3 n=7 v=100
6308292 Off ch=3 n=10 v=0
6308467 On ch=3 n=14 v=100
6308945 Off ch=3 n=7 v=0
6309180 On ch=3 n=8 v=100
6309180 Off ch=3 n=14 v=0
6309475 Off ch=3 n=8 v=0
6310299 On ch=3 n=25 v=100
6310299 On ch=3 n=25 v=100
6310353 On ch=3 n=7 v=100
6310503 On ch=3 n=24 v=100
6310522 Off ch=3 n=7 v=0
6310698 Off ch=3 n=25 v=0
6310698 Off ch=3 n=25 v=0
6310709 Off ch=3 n=24 v=0
6311179 On ch=3 n=61 v=100
6311258 On ch=3 n=20 v=100
6311320 On ch=3 n=20 v=100
6311326 Off ch=3 n=61 v=0
6311378 On ch=3 n=20 v=100
6311505 Off ch=3 n=20 v=0
6311505 Off ch=3 n=20 v=0
6311505 Off ch=3 n=20 v=0
6311610 On ch=3 n=20 v=100
6311610 On ch=3 n=20 v=100
6311610 On ch=3 n=20 v=100
6311695 On ch=3 n=37 v=100
6311802 Off ch=3 n=20 v=0
6311866 Off ch=3 n=20 v=0
6311905 Off ch=3 n=20 v=0
6311931 Off ch=3 n=37 v=0
6312803 On ch=3 n=27 v=100
6312880 On ch=3 n=13 v=100
6313160 On ch=3 n=15 v=100
6313162 Off ch=3 n=13 v=0
6313165 Off ch=3 n=27 v=0
6313319 On ch=3 n=25 v=100
6313414 Off ch=3 n=15 v=0
6313589 Off ch=3 n=25 v=0
6314804 On ch=3 n=27 v=100
6314990 Off ch=3 n=27 v=0
6314995 On ch=3 n=12 v=100
6315452 Off ch=3 n=12 v=0
6315454 On ch=3 n=19 v=100
6315527 On ch=3 n=33 v=100
6315538 Off ch=3 n=19 v=0
6315545 On ch=3 n=5 v=100
6315621 Off ch=3 n=33 v=0
6315621 Off ch=3 n=5 v=0
6315624 On ch=3 n=9 v=100
6316071 On ch=3 n=11 v=100
6316072 Off ch=3 n=9 v=0
6316664 Off ch=3 n=11 v=0
6317578 On ch=3 n=31 v=100
6317579 On ch=3 n=36 v=100
6317735 Off ch=3 n=31 v=0
6317796 Off ch=3 n=36 v=0
6318595 On ch=3 n=15 v=100
6318769 On ch=3 n=13 v=100
6318831 On ch=3 n=7 v=100
6318837 Off ch=3 n=15 v=0
6319052 On ch=3 n=10 v=100
6319060 Off ch=3 n=7 v=0
6319063 Off ch=3 n=13 v=0
6319237 Off ch=3 n=10 v=0
6319483 On ch=3 n=19 v=100
6319813 Off ch=3 n=19 v=0
6319967 On ch=3 n=7 v=100
6320604 On ch=3 n=40 v=100
6320749 Off ch=3 n=7 v=0
6320767 Off ch=3 n=40 v=0
6321317 On ch=3 n=27 v=100
6321608 Off ch=3 n=27 v=0
6321622 On ch=3 n=8 v=100
6322132 On ch=3 n=8 v=100
6322137 Off ch=3 n=8 v=0
6322370 Off ch=3 n=8 v=0
6322397 On ch=3 n=16 v=100
6322399 On ch=3 n=26 v=100
6322577 Off ch=3 n=16 v=0
6322635 Off ch=3 n=26 v=0
6323418 On ch=3 n=10 v=100
6323775 On ch=3 n=11 v=100
6323800 Off ch=3 n=10 v=0
6324480 On ch=3 n=39 v=100
6324544 On ch=3 n=15 v=100
6324609 Off ch=3 n=11 v=0
6324642 Off ch=3 n=39 v=0
6324749 Off ch=3 n=15 v=0
6324900 On ch=3 n=42 v=100
6324952 On ch=3 n=34 v=100
6325040 Off ch=3 n=42 v=0
6325052 Off ch=3 n=34 v=0
6325153 On ch=3 n=15 v=100
6325508 Off ch=3 n=15 v=0
6326185 On ch=3 n=20 v=100
6326501 On ch=3 n=10 v=100
6326501 Off ch=3 n=20 v=0
6326665 Off ch=3 n=10 v=0
6327055 On ch=3 n=26 v=100
6327332 Off ch=3 n=26 v=0
6328492 On ch=3 n=7 v=100
6328743 On ch=3 n=39 v=100
6328802 On ch=3 n=9 v=100
6328802 Off ch=3 n=7 v=0
6328825 Off ch=3 n=39 v=0
6329412 On ch=3 n=8 v=100
6329414 Off ch=3 n=9 v=0
6329533 Off ch=3 n=8 v=0
6329534 On ch=3 n=9 v=100
6329684 Off ch=3 n=9 v=0
6329693 On ch=3 n=15 v=100
6329697 On ch=3 n=39 v=100
6329698 On ch=3 n=13 v=100
6329864 Off ch=3 n=13 v=0
6329880 Off ch=3 n=15 v=0
6329913 Off ch=3 n=39 v=0
6331591 On ch=3 n=10 v=100
6331768 On ch=3 n=6 v=100
6331768 Off ch=3 n=10 v=0
6331927 On ch=3 n=52 v=100
6332074 Off ch=3 n=6 v=0
6332075 On ch=3 n=7 v=100
6332197 On ch=3 n=16 v=100
6332200 Off ch=3 n=7 v=0
6332222 Off ch=3 n=52 v=0
6332239 Off ch=3 n=16 v=0
6332249 On ch=3 n=9 v=100
6332558 On ch=3 n=20 v=100
6332606 Off ch=3 n=9 v=0
6332732 Off ch=3 n=20 v=0
6332742 On ch=3 n=5 v=100
6332776 On ch=3 n=13 v=100
6332778 Off ch=3 n=5 v=0
6333277 Off ch=3 n=13 v=0
6334047 On ch=3 n=24 v=100
6334351 Off ch=3 n=24 v=0
6334355 On ch=3 n=25 v=100
6334796 Off ch=3 n=25 v=0
6334800 On ch=3 n=9 v=100
6335181 On ch=3 n=10 v=100
6335188 Off ch=3 n=9 v=0
6335265 Off ch=3 n=10 v=0
6335292 On ch=3 n=15 v=100
6335410 Off ch=3 n=15 v=0
6336191 On ch=3 n=6 v=100
6336510 Off ch=3 n=6 v=0
6336543 On ch=3 n=19 v=100
6336668 On ch=3 n=16 v=100
6336676 Off ch=3 n=19 v=0
6336888 On ch=3 n=21 v=100
6336941 Off ch=3 n=16 v=0
6336942 On ch=3 n=7 v=100
6336948 Off ch=3 n=21 v=0
6337087 Off ch=3 n=7 v=0
6337119 On ch=3 n=16 v=100
6337138 On ch=3 n=31 v=100
6337263 Off ch=3 n=16 v=0
6337389 Off ch=3 n=31 v=0
6338865 On ch=3 n=7 v=100
6340138 Off ch=3 n=7 v=0
6340172 On ch=3 n=21 v=100
6340209 On ch=3 n=12 v=100
6340405 Off ch=3 n=21 v=0
6340628 Off ch=3 n=12 v=0
6340926 On ch=3 n=8 v=100
6341805 Off ch=3 n=8 v=0
6342767 On ch=3 n=40 v=100
6342767 On ch=3 n=40 v=100
6342780 On ch=3 n=15 v=100
6342898 On ch=3 n=13 v=100
6342915 On ch=3 n=31 v=100
6342922 On ch=3 n=40 v=100
6342922 Off ch=3 n=15 v=0
6343016 Off ch=3 n=40 v=0
6343016 Off ch=3 n=40 v=0
6343022 Off ch=3 n=13 v=0
6343025 On ch=3 n=9 v=100
6343042 Off ch=3 n=31 v=0
6343081 Off ch=3 n=40 v=0
6343134 Off ch=3 n=9 v=0
6343136 On ch=3 n=10 v=100
6343422 On ch=3 n=31 v=100
6343435 Off ch=3 n=10 v=0
6343440 On ch=3 n=7 v=100
6343467 Off ch=3 n=31 v=0
6343467 Off ch=3 n=7 v=0
6344209 On ch=3 n=20 v=100
6344255 On ch=3 n=24 v=100
6344255 On ch=3 n=24 v=100
6344330 On ch=3 n=17 v=100
6344625 On ch=3 n=32 v=100
6344717 Off ch=3 n=20 v=0
6344793 On ch=3 n=23 v=100
6344793 Off ch=3 n=17 v=0
6344805 Off ch=3 n=24 v=0
6344805 Off ch=3 n=24 v=0
6344902 Off ch=3 n=32 v=0
6345212 Off ch=3 n=23 v=0
6345585 On ch=3 n=27 v=100
6346191 Off ch=3 n=27 v=0
6346984 On ch=3 n=14 v=100
6347618 Off ch=3 n=14 v=0
6347935 On ch=3 n=27 v=100
6348300 Off ch=3 n=27 v=0
6348318 On ch=3 n=28 v=100
6348318 On ch=3 n=28 v=100
6348400 On ch=3 n=16 v=100
6348400 On ch=3 n=16 v=100
6348445 On ch=3 n=11 v=100
6348818 Off ch=3 n=11 v=0
6348835 Off ch=3 n=16 v=0
6348835 Off ch=3 n=16 v=0
6348946 Off ch=3 n=28 v=0
6348946 Off ch=3 n=28 v=0
6349139 On ch=3 n=13 v=100
6349263 On ch=3 n=1 v=100
6349266 Off ch=3 n=13 v=0
6349933 Off ch=3 n=1 v=0
6349935 On ch=3 n=11 v=100
6350352 Off ch=3 n=11 v=0
6353006 On ch=3 n=35 v=100
6353075 On ch=3 n=11 v=100
6353138 Off ch=3 n=35 v=0
6353148 Off ch=3 n=11 v=0
6353596 On ch=3 n=30 v=100
6353596 On ch=3 n=32 v=100
6353609 On ch=3 n=18 v=100
6353693 Off ch=3 n=30 v=0
6353711 Off ch=3 n=32 v=0
6353765 On ch=3 n=14 v=100
6354106 On ch=3 n=11 v=100
6354114 Off ch=3 n=18 v=0
6354286 Off ch=3 n=14 v=0
6354369 Off ch=3 n=11 v=0
6354380 On ch=3 n=6 v=100
6354848 On ch=3 n=5 v=100
6354848 Off ch=3 n=6 v=0
6354938 Off ch=3 n=5 v=0
6354956 On ch=3 n=17 v=100
6355108 Off ch=3 n=17 v=0
6355139 On ch=3 n=5 v=100
6355505 Off ch=3 n=5 v=0
6355959 On ch=3 n=6 v=100
6356235 Off ch=3 n=6 v=0
6356237 On ch=3 n=10 v=100
6356691 On ch=3 n=27 v=100
6356704 Off ch=3 n=10 v=0
6356713 On ch=3 n=26 v=100
6356717 On ch=3 n=16 v=100
6356842 Off ch=3 n=16 v=0
6356860 On ch=3 n=18 v=100
6356862 Off ch=3 n=27 v=0
6356980 On ch=3 n=30 v=100
6356985 Off ch=3 n=26 v=0
6356986 On ch=3 n=28 v=100
6357121 Off ch=3 n=18 v=0
6357234 Off ch=3 n=30 v=0
6357278 Off ch=3 n=28 v=0
6357916 On ch=3 n=44 v=100
6358024 Off ch=3 n=44 v=0
6358358 On ch=3 n=26 v=100
6358564 Off ch=3 n=26 v=0
6358581 On ch=3 n=36 v=100
6358673 Off ch=3 n=36 v=0
6358691 On ch=3 n=11 v=100
6359354 Off ch=3 n=11 v=0
6359706 On ch=3 n=19 v=100
6359813 Off ch=3 n=19 v=0
6360953 On ch=3 n=39 v=100
6361036 On ch=3 n=30 v=100
6361061 On ch=3 n=33 v=100
6361070 On ch=3 n=31 v=100
6361206 Off ch=3 n=39 v=0
6361206 Off ch=3 n=30 v=0
6361241 Off ch=3 n=31 v=0
6361253 Off ch=3 n=33 v=0
6361611 On ch=3 n=7 v=100
6362741 Off ch=3 n=7 v=0
6363172 On ch=3 n=38 v=100
6363290 On ch=3 n=29 v=100
6363291 On ch=3 n=46 v=100
6363345 On ch=3 n=32 v=100
6363433 Off ch=3 n=29 v=0
6363436 Off ch=3 n=38 v=0
6363488 Off ch=3 n=46 v=0
6363512 Off ch=3 n=32 v=0
6363609 On ch=3 n=45 v=100
6363689 On ch=3 n=35 v=100
6363707 Off ch=3 n=45 v=0
6363834 Off ch=3 n=35 v=0
6365360 On ch=3 n=20 v=100
6365903 Off ch=3 n=20 v=0
6365916 On ch=3 n=17 v=100
6365920 On ch=3 n=15 v=100
6366043 On ch=3 n=84 v=100
6366043 On ch=3 n=84 v=100
6366136 Off ch=3 n=17 v=0
6366268 Off ch=3 n=15 v=0
6366269 On ch=3 n=11 v=100
6366586 Off ch=3 n=11 v=0
6366597 On ch=3 n=12 v=100
6366722 Off ch=3 n=84 v=0
6366722 Off ch=3 n=84 v=0
6366819 Off ch=3 n=12 v=0
6367020 On ch=3 n=22 v=100
6367020 On ch=3 n=22 v=100
6367194 On ch=3 n=4 v=100
6367425 Off ch=3 n=4 v=0
6367640 On ch=3 n=4 v=100
6367661 Off ch=3 n=22 v=0
6367661 Off ch=3 n=22 v=0
6367980 Off ch=3 n=4 v=0
6367982 On ch=3 n=8 v=100
6368104 On ch=3 n=10 v=100
6368109 Off ch=3 n=8 v=0
6368291 Off ch=3 n=10 v=0
6369184 On ch=3 n=34 v=100
6369184 On ch=3 n=34 v=100
6369285 On ch=3 n=13 v=100
6369477 Off ch=3 n=13 v=0
6369598 Off ch=3 n=34 v=0
6369598 Off ch=3 n=34 v=0
6369844 On ch=3 n=38 v=100
6369928 Off ch=3 n=38 v=0
6370727 On ch=3 n=14 v=100
6370790 On ch=3 n=14 v=100
6370802 Off ch=3 n=14 v=0
6370850 On ch=3 n=23 v=100
6370850 On ch=3 n=23 v=100
6370894 On ch=3 n=16 v=100
6370955 On ch=3 n=21 v=100
6371026 Off ch=3 n=14 v=0
6371357 On ch=3 n=15 v=100
6371362 Off ch=3 n=16 v=0
6371388 Off ch=3 n=23 v=0
6371388 Off ch=3 n=23 v=0
6371599 Off ch=3 n=21 v=0
6372010 Off ch=3 n=15 v=0
6372018 On ch=3 n=11 v=100
6372176 Off ch=3 n=11 v=0
6374226 On ch=3 n=21 v=100
6374242 On ch=3 n=46 v=100
6374350 On ch=3 n=22 v=100
6374354 Off ch=3 n=21 v=0
6374576 Off ch=3 n=46 v=0
6374576 Off ch=3 n=22 v=0
6374580 On ch=3 n=11 v=100
6374894 Off ch=3 n=11 v=0
6374896 On ch=3 n=10 v=100
6375099 On ch=3 n=11 v=100
6375103 Off ch=3 n=10 v=0
6375813 Off ch=3 n=11 v=0
6376733 On ch=3 n=12 v=100
6377674 Off ch=3 n=12 v=0
6377680 On ch=3 n=16 v=100
6377893 Off ch=3 n=16 v=0
6378051 On ch=3 n=4 v=100
6378282 Off ch=3 n=4 v=0
6378633 On ch=3 n=32 v=100
6378737 On ch=3 n=21 v=100
6378932 Off ch=3 n=32 v=0
6378933 On ch=3 n=9 v=100
6378937 Off ch=3 n=21 v=0
6378944 On ch=3 n=30 v=100
6379027 On ch=3 n=10 v=100
6379035 Off ch=3 n=9 v=0
6379050 Off ch=3 n=30 v=0
6379340 On ch=3 n=15 v=100
6379340 Off ch=3 n=10 v=0
6379523 Off ch=3 n=15 v=0
6379633 On ch=3 n=7 v=100
6379854 Off ch=3 n=7 v=0
6380491 On ch=3 n=16 v=100
6380542 On ch=3 n=12 v=100
6380579 On ch=3 n=8 v=100
6380719 Off ch=3 n=16 v=0
6380719 Off ch=3 n=12 v=0
6380719 Off ch=3 n=8 v=0
6380798 On ch=3 n=16 v=100
6380798 On ch=3 n=12 v=100
6381009 Off ch=3 n=16 v=0
6381033 Off ch=3 n=12 v=0
6382421 On ch=3 n=11 v=100
6382822 Off ch=3 n=11 v=0
6383206 On ch=3 n=32 v=100
6383219 On ch=3 n=48 v=100
6383220 On ch=3 n=34 v=100
6383265 Off ch=3 n=32 v=0
6383272 On ch=3 n=15 v=100
6383284 Off ch=3 n=34 v=0
6383334 Off ch=3 n=48 v=0
6383411 Off ch=3 n=15 v=0
6383518 On ch=3 n=34 v=100
6383652 Off ch=3 n=34 v=0
6385049 On ch=3 n=23 v=100
6385061 On ch=3 n=27 v=100
6385393 Off ch=3 n=23 v=0
6385520 Off ch=3 n=27 v=0
6385529 On ch=3 n=57 v=100
6385558 On ch=3 n=26 v=100
6385575 On ch=3 n=48 v=100
6385575 On ch=3 n=48 v=100
6385590 On ch=3 n=10 v=100
6385763 Off ch=3 n=57 v=0
6385774 Off ch=3 n=10 v=0
6385787 Off ch=3 n=26 v=0
6385861 On ch=3 n=11 v=100
6385965 Off ch=3 n=48 v=0
6385965 Off ch=3 n=48 v=0
6386341 Off ch=3 n=11 v=0
6386683 On ch=3 n=20 v=100
6386755 Off ch=3 n=20 v=0
6387024 On ch=3 n=7 v=100
6387150 Off ch=3 n=7 v=0
6387151 On ch=3 n=12 v=100
6387198 Off ch=3 n=12 v=0
6387237 On ch=3 n=12 v=100
6387599 Off ch=3 n=12 v=0
6388794 On ch=3 n=28 v=100
6388851 Off ch=3 n=28 v=0
6389824 On ch=3 n=19 v=100
6389838 Off ch=3 n=19 v=0
6389953 On ch=3 n=35 v=100
6390056 Off ch=3 n=35 v=0
6390869 On ch=3 n=31 v=100
6391120 Off ch=3 n=31 v=0
6392334 On ch=3 n=35 v=100
6392345 On ch=3 n=51 v=100
6392561 Off ch=3 n=35 v=0
6392663 Off ch=3 n=51 v=0
6392847 On ch=3 n=18 v=100
6393093 Off ch=3 n=18 v=0
6393139 On ch=3 n=18 v=100
6393391 Off ch=3 n=18 v=0
6394244 On ch=3 n=27 v=100
6394386 Off ch=3 n=27 v=0
6394676 On ch=3 n=39 v=100
6394881 Off ch=3 n=39 v=0
6395006 On ch=3 n=13 v=100
6395607 Off ch=3 n=13 v=0
6396395 On ch=3 n=19 v=100
6396537 On ch=3 n=14 v=100
6396859 Off ch=3 n=19 v=0
6396912 Off ch=3 n=14 v=0
6397071 On ch=3 n=52 v=100
6397105 On ch=3 n=29 v=100
6397105 On ch=3 n=29 v=100
6397138 On ch=3 n=7 v=100
6397330 Off ch=3 n=7 v=0
6397336 Off ch=3 n=52 v=0
6397341 Off ch=3 n=29 v=0
6397341 Off ch=3 n=29 v=0
6397525 On ch=3 n=12 v=100
6397621 Off ch=3 n=12 v=0
6397670 On ch=3 n=42 v=100
6397670 On ch=3 n=42 v=100
6397720 On ch=3 n=10 v=100
6397922 On ch=3 n=11 v=100
6397935 Off ch=3 n=10 v=0
6397962 Off ch=3 n=42 v=0
6397962 Off ch=3 n=42 v=0
6398002 Off ch=3 n=11 v=0
6398037 On ch=3 n=49 v=100
6398123 Off ch=3 n=49 v=0
6398131 On ch=3 n=13 v=100
6398270 Off ch=3 n=13 v=0
6398411 On ch=3 n=13 v=100
6398486 Off ch=3 n=13 v=0
6398488 On ch=3 n=12 v=100
6398609 Off ch=3 n=12 v=0
6399717 On ch=3 n=13 v=100
6399823 Off ch=3 n=13 v=0
6399828 On ch=3 n=11 v=100
6400545 On ch=3 n=23 v=100
6400545 On ch=3 n=23 v=100
6400557 On ch=3 n=15 v=100
6400557 Off ch=3 n=11 v=0
6400745 On ch=3 n=11 v=100
6400748 Off ch=3 n=15 v=0
6400768 Off ch=3 n=23 v=0
6400768 Off ch=3 n=23 v=0
6400907 On ch=3 n=31 v=100
6400980 Off ch=3 n=11 v=0
6401031 Off ch=3 n=31 v=0
6402192 On ch=3 n=33 v=100
6402452 Off ch=3 n=33 v=0
6404027 On ch=3 n=26 v=100
6404546 Off ch=3 n=26 v=0
6405072 On ch=3 n=19 v=100
6405134 Off ch=3 n=19 v=0
6405170 On ch=3 n=19 v=100
6405340 Off ch=3 n=19 v=0
6405572 On ch=3 n=27 v=100
6405700 Off ch=3 n=27 v=0
6405918 On ch=3 n=10 v=100
6406021 Off ch=3 n=10 v=0
6406270 On ch=3 n=16 v=100
6406463 Off ch=3 n=16 v=0
6407250 On ch=3 n=24 v=100
6407383 Off ch=3 n=24 v=0
6407502 On ch=3 n=56 v=100
6407651 On ch=3 n=55 v=100
6408117 Off ch=3 n=56 v=0
6408131 Off ch=3 n=55 v=0
6408632 On ch=3 n=9 v=100
6408777 Off ch=3 n=9 v=0
6408950 On ch=3 n=26 v=100
6408963 On ch=3 n=19 v=100
6409036 Off ch=3 n=26 v=0
6409038 Off ch=3 n=19 v=0
6409218 On ch=3 n=10 v=100
6409233 On ch=3 n=23 v=100
6409499 Off ch=3 n=10 v=0
6409499 Off ch=3 n=23 v=0
6409526 On ch=3 n=16 v=100
6409526 On ch=3 n=23 v=100
6409546 On ch=3 n=15 v=100
6409585 Off ch=3 n=16 v=0
6409668 Off ch=3 n=23 v=0
6409751 Off ch=3 n=15 v=0
6410199 On ch=3 n=0 v=100
6410259 Off ch=3 n=0 v=0
6410757 On ch=3 n=10 v=100
6411052 Off ch=3 n=10 v=0
6412219 On ch=3 n=21 v=100
6412529 Off ch=3 n=21 v=0
6412728 On ch=3 n=29 v=100
6412788 Off ch=3 n=29 v=0
6412790 On ch=3 n=38 v=100
6412875 Off ch=3 n=38 v=0
6413174 On ch=3 n=6 v=100
6413749 Off ch=3 n=6 v=0
6414160 On ch=3 n=42 v=100
6414172 On ch=3 n=42 v=100
6414252 On ch=3 n=34 v=100
6414254 On ch=3 n=28 v=100
6414256 Off ch=3 n=42 v=0
6414275 Off ch=3 n=42 v=0
6414312 On ch=3 n=30 v=100
6414324 Off ch=3 n=34 v=0
6414327 On ch=3 n=23 v=100
6414340 On ch=3 n=41 v=100
6414411 Off ch=3 n=28 v=0
6414413 Off ch=3 n=30 v=0
6414413 Off ch=3 n=23 v=0
6414516 Off ch=3 n=41 v=0
6415196 On ch=3 n=14 v=100
6415334 Off ch=3 n=14 v=0
6415393 On ch=3 n=14 v=100
6415411 Off ch=3 n=14 v=0
6415570 On ch=3 n=9 v=100
6415687 Off ch=3 n=9 v=0
6415837 On ch=3 n=9 v=100
6415911 On ch=3 n=19 v=100
6415928 On ch=3 n=15 v=100
6415931 Off ch=3 n=9 v=0
6415933 On ch=3 n=32 v=100
6415962 Off ch=3 n=15 v=0
6415963 Off ch=3 n=19 v=0
6415976 Off ch=3 n=32 v=0
6416107 On ch=3 n=32 v=100
6416176 Off ch=3 n=32 v=0
6417787 On ch=3 n=31 v=100
6418178 Off ch=3 n=31 v=0
6418262 On ch=3 n=39 v=100
6418282 On ch=3 n=20 v=100
6418321 On ch=3 n=14 v=100
6418325 On ch=3 n=23 v=100
6418327 On ch=3 n=19 v=100
6418398 Off ch=3 n=39 v=0
6418681 Off ch=3 n=14 v=0
6418689 Off ch=3 n=20 v=0
6418721 On ch=3 n=6 v=100
6418779 Off ch=3 n=19 v=0
6418890 On ch=3 n=41 v=100
6418901 Off ch=3 n=23 v=0
6418923 Off ch=3 n=6 v=0
6418924 On ch=3 n=30 v=100
6419020 Off ch=3 n=41 v=0
6419034 Off ch=3 n=30 v=0
6419478 On ch=3 n=14 v=100
6419531 Off ch=3 n=14 v=0
6420493 On ch=3 n=19 v=100
6420528 Off ch=3 n=19 v=0
6420545 On ch=3 n=6 v=100
6420897 On ch=3 n=33 v=100
6420904 Off ch=3 n=6 v=0
6420918 On ch=3 n=38 v=100
6421021 On ch=3 n=13 v=100
6421089 Off ch=3 n=33 v=0
6421106 On ch=3 n=11 v=100
6421126 On ch=3 n=17 v=100
6421128 On ch=3 n=23 v=100
6421436 Off ch=3 n=13 v=0
6421446 Off ch=3 n=38 v=0
6421446 Off ch=3 n=11 v=0
6421537 Off ch=3 n=17 v=0
6421626 Off ch=3 n=23 v=0
6421719 On ch=3 n=16 v=100
6421785 Off ch=3 n=16 v=0
6422172 On ch=3 n=24 v=100
6422193 On ch=3 n=38 v=100
6422194 On ch=3 n=11 v=100
6422197 On ch=3 n=26 v=100
6422330 On ch=3 n=18 v=100
6422332 Off ch=3 n=11 v=0
6422335 Off ch=3 n=24 v=0
6422345 On ch=3 n=10 v=100
6422408 Off ch=3 n=26 v=0
6422444 Off ch=3 n=18 v=0
6422451 Off ch=3 n=10 v=0
6422460 Off ch=3 n=38 v=0
6422959 On ch=3 n=35 v=100
6423223 Off ch=3 n=35 v=0
6424145 On ch=3 n=10 v=100
6424186 Off ch=3 n=10 v=0
6424189 On ch=3 n=13 v=100
6424219 On ch=3 n=32 v=100
6424227 On ch=3 n=7 v=100
6424227 Off ch=3 n=13 v=0
6424259 Off ch=3 n=32 v=0
6424418 Off ch=3 n=7 v=0
6424840 On ch=3 n=29 v=100
6424895 Off ch=3 n=29 v=0
6427542 On ch=3 n=14 v=100
6427563 Off ch=3 n=14 v=0
6427655 On ch=3 n=14 v=100
6427837 Off ch=3 n=14 v=0
6429793 On ch=3 n=43 v=100
6429848 On ch=3 n=50 v=100
6429852 On ch=3 n=30 v=100
6430005 Off ch=3 n=30 v=0
6430015 Off ch=3 n=43 v=0
6430036 Off ch=3 n=50 v=0
6431638 On ch=3 n=14 v=100
6431943 Off ch=3 n=14 v=0
6431953 On ch=3 n=7 v=100
6432611 On ch=3 n=13 v=100
6432612 Off ch=3 n=7 v=0
6432782 On ch=3 n=8 v=100
6432783 Off ch=3 n=13 v=0
6433231 Off ch=3 n=8 v=0
6434059 On ch=3 n=33 v=100
6434211 On ch=3 n=36 v=100
6434233 Off ch=3 n=33 v=0
6434242 On ch=3 n=17 v=100
6434322 Off ch=3 n=36 v=0
6434357 Off ch=3 n=17 v=0
6434369 On ch=3 n=8 v=100
6434427 On ch=3 n=11 v=100
6434430 Off ch=3 n=8 v=0
6434766 Off ch=3 n=11 v=0
6434788 On ch=3 n=26 v=100
6434826 Off ch=3 n=26 v=0
6434833 On ch=3 n=16 v=100
6434999 Off ch=3 n=16 v=0
6435571 On ch=3 n=14 v=100
6435859 On ch=3 n=28 v=100
6435864 Off ch=3 n=14 v=0
6436210 Off ch=3 n=28 v=0
6436787 On ch=3 n=13 v=100
6437205 Off ch=3 n=13 v=0
6438517 On ch=3 n=21 v=100
6438794 Off ch=3 n=21 v=0
6438856 On ch=3 n=37 v=100
6438928 Off ch=3 n=37 v=0
6439082 On ch=3 n=7 v=100
6439296 Off ch=3 n=7 v=0
6440258 On ch=3 n=32 v=100
6440299 On ch=3 n=15 v=100
6440394 Off ch=3 n=32 v=0
6440399 Off ch=3 n=15 v=0
6440804 On ch=3 n=32 v=100
6440904 Off ch=3 n=32 v=0
6440951 On ch=3 n=8 v=100
6441245 Off ch=3 n=8 v=0
6441454 On ch=3 n=35 v=100
6441454 On ch=3 n=35 v=100
6441518 On ch=3 n=11 v=100
6441575 Off ch=3 n=11 v=0
6441685 Off ch=3 n=35 v=0
6441685 Off ch=3 n=35 v=0
6441729 On ch=3 n=23 v=100
6441768 On ch=3 n=9 v=100
6441826 Off ch=3 n=23 v=0
6442277 Off ch=3 n=9 v=0
6442361 On ch=3 n=26 v=100
6442560 On ch=3 n=9 v=100
6442566 Off ch=3 n=26 v=0
6442594 Off ch=3 n=9 v=0
6442605 On ch=3 n=22 v=100
6442676 Off ch=3 n=22 v=0
6442683 On ch=3 n=22 v=100
6442815 On ch=3 n=41 v=100
6442838 Off ch=3 n=22 v=0
6442840 On ch=3 n=48 v=100
6442853 On ch=3 n=20 v=100
6442867 On ch=3 n=47 v=100
6442924 Off ch=3 n=41 v=0
6442928 Off ch=3 n=48 v=0
6442933 Off ch=3 n=20 v=0
6442960 Off ch=3 n=47 v=0
6443613 On ch=3 n=32 v=100
6443613 On ch=3 n=32 v=100
6443646 On ch=3 n=16 v=100
6443707 Off ch=3 n=16 v=0
6443734 Off ch=3 n=32 v=0
6443734 Off ch=3 n=32 v=0
6444639 On ch=3 n=43 v=100
6444688 On ch=3 n=7 v=100
6444693 Off ch=3 n=43 v=0
6444775 On ch=3 n=7 v=100
6444777 Off ch=3 n=7 v=0
6445164 Off ch=3 n=7 v=0
6445247 On ch=3 n=12 v=100
6445420 Off ch=3 n=12 v=0
6445954 On ch=3 n=12 v=100
6446628 On ch=3 n=20 v=100
6446641 Off ch=3 n=12 v=0
6446767 On ch=3 n=40 v=100
6446834 Off ch=3 n=20 v=0
6446837 On ch=3 n=4 v=100
6446943 Off ch=3 n=40 v=0
6446951 Off ch=3 n=4 v=0
6448222 On ch=3 n=38 v=100
6448223 On ch=3 n=36 v=100
6448235 On ch=3 n=45 v=100
6448274 On ch=3 n=43 v=100
6448346 Off ch=3 n=36 v=0
6448360 Off ch=3 n=38 v=0
6448384 Off ch=3 n=45 v=0
6448402 On ch=3 n=26 v=100
6448415 Off ch=3 n=43 v=0
6448682 Off ch=3 n=26 v=0
6448778 On ch=3 n=27 v=100
6448778 On ch=3 n=26 v=100
6448860 Off ch=3 n=26 v=0
6448877 Off ch=3 n=27 v=0
6449712 On ch=3 n=18 v=100
6450278 On ch=3 n=39 v=100
6450318 On ch=3 n=22 v=100
6450363 On ch=3 n=22 v=100
6450395 Off ch=3 n=18 v=0
6450460 On ch=3 n=13 v=100
6450477 On ch=3 n=19 v=100
6450662 Off ch=3 n=39 v=0
6450662 Off ch=3 n=22 v=0
6450662 Off ch=3 n=22 v=0
6450662 Off ch=3 n=13 v=0
6450662 Off ch=3 n=19 v=0
6450695 On ch=3 n=13 v=100
6450695 On ch=3 n=19 v=100
6450695 On ch=3 n=28 v=100
6450695 On ch=3 n=39 v=100
6450803 Off ch=3 n=13 v=0
6450865 Off ch=3 n=19 v=0
6450892 Off ch=3 n=28 v=0
6450928 Off ch=3 n=39 v=0
6451035 On ch=3 n=13 v=100
6451138 Off ch=3 n=13 v=0
6452207 On ch=3 n=28 v=100
6452379 On ch=3 n=29 v=100
6452543 Off ch=3 n=28 v=0
6452543 Off ch=3 n=29 v=0
6452606 On ch=3 n=28 v=100
6452606 On ch=3 n=29 v=100
6452848 On ch=3 n=24 v=100
6452973 Off ch=3 n=29 v=0
6453054 Off ch=3 n=28 v=0
6453088 On ch=3 n=32 v=100
6453421 Off ch=3 n=24 v=0
6453620 On ch=3 n=27 v=100
6453671 Off ch=3 n=32 v=0
6453704 On ch=3 n=10 v=100
6453772 Off ch=3 n=27 v=0
6454514 Off ch=3 n=10 v=0
6455470 On ch=3 n=21 v=100
6455601 Off ch=3 n=21 v=0
6455929 On ch=3 n=18 v=100
6456167 Off ch=3 n=18 v=0
6456198 On ch=3 n=11 v=100
6456239 On ch=3 n=13 v=100
6456252 Off ch=3 n=11 v=0
6456473 On ch=3 n=22 v=100
6456483 Off ch=3 n=13 v=0
6456499 On ch=3 n=8 v=100
6456692 Off ch=3 n=22 v=0
6456693 Off ch=3 n=8 v=0
6456857 On ch=3 n=11 v=100
6457156 On ch=3 n=17 v=100
6457292 Off ch=3 n=11 v=0
6457330 Off ch=3 n=17 v=0
6464842 On ch=3 n=11 v=100
6465374 On ch=3 n=23 v=100
6465374 On ch=3 n=23 v=100
6465407 Off ch=3 n=11 v=0
6465433 On ch=3 n=23 v=100
6465433 On ch=3 n=23 v=100
6465473 On ch=3 n=14 v=100
6465473 On ch=3 n=14 v=100
6465759 On ch=3 n=12 v=100
6465770 Off ch=3 n=23 v=0
6465770 Off ch=3 n=23 v=0
6465777 Off ch=3 n=14 v=0
6465777 Off ch=3 n=14 v=0
6465817 Off ch=3 n=23 v=0
6465817 Off ch=3 n=23 v=0
6466073 Off ch=3 n=12 v=0
6466104 On ch=3 n=12 v=100
6466299 On ch=3 n=56 v=100
6466412 Off ch=3 n=12 v=0
6466423 On ch=3 n=46 v=100
6466482 On ch=3 n=43 v=100
6466492 On ch=3 n=31 v=100
6466747 Off ch=3 n=31 v=0
6466753 Off ch=3 n=56 v=0
6466754 Off ch=3 n=46 v=0
6466804 Off ch=3 n=43 v=0
6467556 On ch=3 n=37 v=100
6467688 Off ch=3 n=37 v=0
6467807 On ch=3 n=15 v=100
6468572 Off ch=3 n=15 v=0
6468584 On ch=3 n=14 v=100
6468745 On ch=3 n=22 v=100
6468745 Off ch=3 n=14 v=0
6468791 Off ch=3 n=22 v=0
6469139 On ch=3 n=36 v=100
6469311 Off ch=3 n=36 v=0
6469409 On ch=3 n=10 v=100
6470030 On ch=3 n=11 v=100
6470032 Off ch=3 n=10 v=0
6470238 Off ch=3 n=11 v=0
6470241 On ch=3 n=5 v=100
6470251 On ch=3 n=25 v=100
6470406 Off ch=3 n=5 v=0
6470408 On ch=3 n=11 v=100
6470446 Off ch=3 n=25 v=0
6470683 Off ch=3 n=11 v=0
6471821 On ch=3 n=8 v=100
6472078 On ch=3 n=31 v=100
6472085 Off ch=3 n=8 v=0
6472089 On ch=3 n=6 v=100
6472152 Off ch=3 n=31 v=0
6472384 Off ch=3 n=6 v=0
6473498 On ch=3 n=19 v=100
6473876 Off ch=3 n=19 v=0
6474462 On ch=3 n=46 v=100
6474481 On ch=3 n=47 v=100
6474519 On ch=3 n=10 v=100
6474590 Off ch=3 n=46 v=0
6474590 Off ch=3 n=47 v=0
6474752 On ch=3 n=18 v=100
6474855 On ch=3 n=12 v=100
6474866 Off ch=3 n=10 v=0
6474987 On ch=3 n=20 v=100
6475207 Off ch=3 n=18 v=0
6475234 Off ch=3 n=12 v=0
6475273 On ch=3 n=13 v=100
6475286 On ch=3 n=3 v=100
6475319 Off ch=3 n=20 v=0
6475329 Off ch=3 n=13 v=0
6475539 Off ch=3 n=3 v=0
6475542 On ch=3 n=8 v=100
6475688 On ch=3 n=42 v=100
6475810 Off ch=3 n=8 v=0
6475829 Off ch=3 n=42 v=0
6477689 On ch=3 n=9 v=100
6478129 Off ch=3 n=9 v=0
6478292 On ch=3 n=33 v=100
6478326 On ch=3 n=7 v=100
6478366 Off ch=3 n=7 v=0
6478376 Off ch=3 n=33 v=0
6478391 On ch=3 n=7 v=100
6478849 On ch=3 n=22 v=100
6478853 Off ch=3 n=7 v=0
6479333 Off ch=3 n=22 v=0
6479660 On ch=3 n=16 v=100
6479842 Off ch=3 n=16 v=0
6480332 On ch=3 n=21 v=100
6480404 On ch=3 n=29 v=100
6480471 Off ch=3 n=21 v=0
6480479 On ch=3 n=15 v=100
6480647 On ch=3 n=16 v=100
6480647 Off ch=3 n=29 v=0
6480647 Off ch=3 n=15 v=0
6480686 Off ch=3 n=16 v=0
6481492 On ch=3 n=13 v=100
6482558 Off ch=3 n=13 v=0
6484259 On ch=3 n=4 v=100
6484441 Off ch=3 n=4 v=0
6484521 On ch=3 n=4 v=100
6485073 Off ch=3 n=4 v=0
6485089 On ch=3 n=1 v=100
6485588 Off ch=3 n=1 v=0
6486090 On ch=3 n=32 v=100
6486119 On ch=3 n=35 v=100
6486234 Off ch=3 n=32 v=0
6486235 Off ch=3 n=35 v=0
6486319 On ch=3 n=7 v=100
6487064 On ch=3 n=6 v=100
6487067 Off ch=3 n=7 v=0
6487090 On ch=3 n=10 v=100
6487093 Off ch=3 n=6 v=0
6487625 On ch=3 n=8 v=100
6487627 Off ch=3 n=10 v=0
6487761 On ch=3 n=14 v=100
6487838 Off ch=3 n=8 v=0
6487848 Off ch=3 n=14 v=0
6489122 On ch=3 n=18 v=100
6489787 Off ch=3 n=18 v=0
6490256 On ch=3 n=16 v=100
6490495 Off ch=3 n=16 v=0
6490988 On ch=3 n=38 v=100
6491124 Off ch=3 n=38 v=0
6492129 On ch=3 n=13 v=100
6492400 Off ch=3 n=13 v=0
6492625 On ch=3 n=43 v=100
6492689 On ch=3 n=21 v=100
6492689 On ch=3 n=36 v=100
6492977 Off ch=3 n=21 v=0
6492983 Off ch=3 n=43 v=0
6493092 Off ch=3 n=36 v=0
6493178 On ch=3 n=13 v=100
6493777 Off ch=3 n=13 v=0
6493814 On ch=3 n=19 v=100
6493954 Off ch=3 n=19 v=0
6493965 On ch=3 n=28 v=100
6494154 Off ch=3 n=28 v=0
6494177 On ch=3 n=25 v=100
6494378 On ch=3 n=32 v=100
6494378 On ch=3 n=25 v=100
6494378 On ch=3 n=32 v=100
6494378 On ch=3 n=25 v=100
6494379 Off ch=3 n=25 v=0
6494545 On ch=3 n=37 v=100
6494545 On ch=3 n=37 v=100
6494587 Off ch=3 n=25 v=0
6494587 Off ch=3 n=25 v=0
6494637 On ch=3 n=34 v=100
6494637 On ch=3 n=34 v=100
6494739 Off ch=3 n=32 v=0
6494739 Off ch=3 n=32 v=0
6494755 Off ch=3 n=37 v=0
6494755 Off ch=3 n=37 v=0
6494890 On ch=3 n=35 v=100
6494921 Off ch=3 n=34 v=0
6494921 Off ch=3 n=34 v=0
6495085 On ch=3 n=22 v=100
6495151 On ch=3 n=13 v=100
6495341 On ch=3 n=27 v=100
6495377 On ch=3 n=6 v=100
6495379 Off ch=3 n=35 v=0
6495379 Off ch=3 n=22 v=0
6495379 Off ch=3 n=13 v=0
6495484 Off ch=3 n=27 v=0
6495834 On ch=3 n=44 v=100
6495912 Off ch=3 n=6 v=0
6496021 Off ch=3 n=44 v=0
6496265 On ch=3 n=6 v=100
6496528 On ch=3 n=27 v=100
6496528 On ch=3 n=33 v=100
6496534 Off ch=3 n=6 v=0
6496536 On ch=3 n=16 v=100
6496622 On ch=3 n=21 v=100
6496624 On ch=3 n=18 v=100
6496645 Off ch=3 n=16 v=0
6496683 Off ch=3 n=27 v=0
6496748 Off ch=3 n=33 v=0
6496772 Off ch=3 n=18 v=0
6496807 On ch=3 n=38 v=100
6496820 Off ch=3 n=21 v=0
6496903 Off ch=3 n=38 v=0
6498058 On ch=3 n=9 v=100
6498833 Off ch=3 n=9 v=0
6499143 On ch=3 n=50 v=100
6499354 Off ch=3 n=50 v=0
6499361 On ch=3 n=19 v=100
6499407 On ch=3 n=20 v=100
6499639 Off ch=3 n=19 v=0
6499916 Off ch=3 n=20 v=0
6500497 On ch=3 n=36 v=100
6500499 On ch=3 n=25 v=100
6500708 On ch=3 n=6 v=100
6500708 Off ch=3 n=25 v=0
6500741 Off ch=3 n=36 v=0
6501387 Off ch=3 n=6 v=0
6501709 On ch=3 n=27 v=100
6501959 On ch=3 n=19 v=100
6501959 On ch=3 n=19 v=100
6502037 On ch=3 n=19 v=100
6502055 Off ch=3 n=27 v=0
6502061 On ch=3 n=9 v=100
6502061 On ch=3 n=9 v=100
6502133 Off ch=3 n=19 v=0
6502133 Off ch=3 n=19 v=0
6502227 Off ch=3 n=19 v=0
6502399 On ch=3 n=15 v=100
6502412 On ch=3 n=21 v=100
6502412 Off ch=3 n=9 v=0
6502412 Off ch=3 n=9 v=0
6502463 Off ch=3 n=15 v=0
6502608 Off ch=3 n=21 v=0
6502628 On ch=3 n=14 v=100
6502890 Off ch=3 n=14 v=0
6502940 On ch=3 n=12 v=100
6503019 Off ch=3 n=12 v=0
6504523 On ch=3 n=27 v=100
6504526 On ch=3 n=10 v=100
6504952 Off ch=3 n=10 v=0
6505222 Off ch=3 n=27 v=0
6505288 On ch=3 n=34 v=100
6505419 Off ch=3 n=34 v=0
6507454 On ch=3 n=4 v=100
6507597 On ch=3 n=2 v=100
6507600 Off ch=3 n=4 v=0
6507680 Off ch=3 n=2 v=0
6510139 On ch=3 n=22 v=100
6510175 On ch=3 n=18 v=100
6510179 On ch=3 n=24 v=100
6510479 Off ch=3 n=18 v=0
6510483 Off ch=3 n=22 v=0
6510505 On ch=3 n=13 v=100
6510557 Off ch=3 n=24 v=0
6510760 Off ch=3 n=13 v=0
6511712 On ch=3 n=10 v=100
6511883 On ch=3 n=29 v=100
6511953 On ch=3 n=20 v=100
6511953 On ch=3 n=20 v=100
6511974 On ch=3 n=13 v=100
6511984 Off ch=3 n=10 v=0
6512318 Off ch=3 n=29 v=0
6512318 Off ch=3 n=13 v=0
6512337 On ch=3 n=13 v=100
6512380 Off ch=3 n=20 v=0
6512380 Off ch=3 n=20 v=0
6512423 Off ch=3 n=13 v=0
6512588 On ch=3 n=11 v=100
6512849 On ch=3 n=7 v=100
6512849 Off ch=3 n=11 v=0
6512882 Off ch=3 n=7 v=0
6513050 On ch=3 n=38 v=100
6513300 Off ch=3 n=38 v=0
6513810 On ch=3 n=23 v=100
6513926 Off ch=3 n=23 v=0
6513928 On ch=3 n=9 v=100
6514260 On ch=3 n=47 v=100
6514264 Off ch=3 n=9 v=0
6514735 On ch=3 n=23 v=100
6514735 On ch=3 n=10 v=100
6514804 Off ch=3 n=47 v=0
6515144 Off ch=3 n=10 v=0
6515204 Off ch=3 n=23 v=0
6516664 On ch=3 n=16 v=100
6516683 On ch=3 n=46 v=100
6516725 Off ch=3 n=16 v=0
6516735 On ch=3 n=9 v=100
6516862 Off ch=3 n=46 v=0
6517467 Off ch=3 n=9 v=0
6517623 On ch=3 n=11 v=100
6517926 Off ch=3 n=11 v=0
6517927 On ch=3 n=7 v=100
6518211 On ch=3 n=20 v=100
6518350 Off ch=3 n=7 v=0
6518826 Off ch=3 n=20 v=0
6518848 On ch=3 n=7 v=100
6518988 Off ch=3 n=7 v=0
6518995 On ch=3 n=9 v=100
6519110 Off ch=3 n=9 v=0
6519189 On ch=3 n=25 v=100
6519222 On ch=3 n=16 v=100
6519229 Off ch=3 n=25 v=0
6519365 On ch=3 n=18 v=100
6519440 Off ch=3 n=16 v=0
6519453 On ch=3 n=14 v=100
6519453 On ch=3 n=17 v=100
6519453 On ch=3 n=23 v=100
6519799 Off ch=3 n=18 v=0
6519850 Off ch=3 n=14 v=0
6519951 Off ch=3 n=17 v=0
6520013 Off ch=3 n=23 v=0
6520842 On ch=3 n=6 v=100
6521262 Off ch=3 n=6 v=0
6521280 On ch=3 n=9 v=100
6522005 On ch=3 n=10 v=100
6522005 Off ch=3 n=9 v=0
6522065 Off ch=3 n=10 v=0
6522938 On ch=3 n=14 v=100
6523205 Off ch=3 n=14 v=0
6523266 On ch=3 n=15 v=100
6523316 On ch=3 n=14 v=100
6523393 On ch=3 n=18 v=100
6523636 Off ch=3 n=15 v=0
6523761 Off ch=3 n=14 v=0
6524028 Off ch=3 n=18 v=0
6524392 On ch=3 n=7 v=100
6524517 Off ch=3 n=7 v=0
6524529 On ch=3 n=20 v=100
6524656 Off ch=3 n=20 v=0
6525904 On ch=3 n=13 v=100
6526130 Off ch=3 n=13 v=0
6526727 On ch=3 n=36 v=100
6526792 Off ch=3 n=36 v=0
6526862 On ch=3 n=36 v=100
6527108 On ch=3 n=19 v=100
6527291 Off ch=3 n=36 v=0
6527723 Off ch=3 n=19 v=0
6528463 On ch=3 n=0 v=100
6528496 On ch=3 n=10 v=100
6528499 Off ch=3 n=0 v=0
6528785 On ch=3 n=9 v=100
6528786 Off ch=3 n=10 v=0
6528956 Off ch=3 n=9 v=0
6528958 On ch=3 n=7 v=100
6529195 Off ch=3 n=7 v=0
6531918 On ch=3 n=17 v=100
6531975 Off ch=3 n=17 v=0
6535249 On ch=3 n=15 v=100
6535274 On ch=3 n=11 v=100
6535433 Off ch=3 n=15 v=0
6535804 Off ch=3 n=11 v=0
6535805 On ch=3 n=18 v=100
6535901 On ch=3 n=24 v=100
6535912 Off ch=3 n=18 v=0
6535916 On ch=3 n=11 v=100
6536005 Off ch=3 n=24 v=0
6536157 Off ch=3 n=11 v=0
6537448 On ch=3 n=14 v=100
6537631 Off ch=3 n=14 v=0
6537634 On ch=3 n=25 v=100
6537895 Off ch=3 n=25 v=0
6539223 On ch=3 n=7 v=100
6539328 On ch=3 n=34 v=100
6539340 Off ch=3 n=7 v=0
6539343 On ch=3 n=8 v=100
6539432 Off ch=3 n=34 v=0
6539437 On ch=3 n=5 v=100
6539438 Off ch=3 n=8 v=0
6539611 Off ch=3 n=5 v=0
6539615 On ch=3 n=5 v=100
6540027 On ch=3 n=12 v=100
6540031 Off ch=3 n=5 v=0
6540302 On ch=3 n=14 v=100
6540312 Off ch=3 n=12 v=0
6540409 On ch=3 n=9 v=100
6540423 Off ch=3 n=14 v=0
6540725 Off ch=3 n=9 v=0
6541299 On ch=3 n=11 v=100
6541656 Off ch=3 n=11 v=0
6541837 On ch=3 n=28 v=100
6541936 Off ch=3 n=28 v=0
6541986 On ch=3 n=21 v=100
6542010 On ch=3 n=22 v=100
6542045 Off ch=3 n=21 v=0
6542306 Off ch=3 n=22 v=0
6542746 On ch=3 n=36 v=100
6542847 On ch=3 n=28 v=100
6542852 On ch=3 n=44 v=100
6542867 Off ch=3 n=36 v=0
6542879 On ch=3 n=48 v=100
6542885 On ch=3 n=25 v=100
6543029 Off ch=3 n=28 v=0
6543077 Off ch=3 n=25 v=0
6543102 Off ch=3 n=44 v=0
6543109 Off ch=3 n=48 v=0
6543191 On ch=3 n=6 v=100
6544085 Off ch=3 n=6 v=0
6544103 On ch=3 n=7 v=100
6544722 Off ch=3 n=7 v=0
6544723 On ch=3 n=10 v=100
6544890 Off ch=3 n=10 v=0
6544968 On ch=3 n=16 v=100
6545008 Off ch=3 n=16 v=0
6545587 On ch=3 n=13 v=100
6546189 Off ch=3 n=13 v=0
6546242 On ch=3 n=34 v=100
6546309 Off ch=3 n=34 v=0
6547484 On ch=3 n=9 v=100
6547735 Off ch=3 n=9 v=0
6547737 On ch=3 n=6 v=100
6547991 Off ch=3 n=6 v=0
6548280 On ch=3 n=9 v=100
6548534 Off ch=3 n=9 v=0
6549624 On ch=3 n=13 v=100
6549794 Off ch=3 n=13 v=0
6549975 On ch=3 n=12 v=100
6550079 On ch=3 n=15 v=100
6550082 Off ch=3 n=12 v=0
6550251 Off ch=3 n=15 v=0
6550366 On ch=3 n=15 v=100
6550461 Off ch=3 n=15 v=0
6550914 On ch=3 n=33 v=100
6551098 On ch=3 n=17 v=100
6551239 Off ch=3 n=33 v=0
6551275 Off ch=3 n=17 v=0
6552047 On ch=3 n=16 v=100
6552221 Off ch=3 n=16 v=0
6552226 On ch=3 n=23 v=100
6552608 On ch=3 n=16 v=100
6552727 Off ch=3 n=23 v=0
6553156 Off ch=3 n=16 v=0
6553181 On ch=3 n=10 v=100
6553586 Off ch=3 n=10 v=0
6553587 On ch=3 n=12 v=100
6554365 Off ch=3 n=12 v=0
6554606 On ch=3 n=19 v=100
6555067 Off ch=3 n=19 v=0
6556416 On ch=3 n=18 v=100
6556434 On ch=3 n=27 v=100
6556535 Off ch=3 n=18 v=0
6556582 On ch=3 n=33 v=100
6556586 Off ch=3 n=27 v=0
6556640 On ch=3 n=25 v=100
6556787 Off ch=3 n=25 v=0
6556796 Off ch=3 n=33 v=0
6556815 On ch=3 n=14 v=100
6556975 Off ch=3 n=14 v=0
6556977 On ch=3 n=42 v=100
6557017 Off ch=3 n=42 v=0
6557047 On ch=3 n=42 v=100
6557047 On ch=3 n=5 v=100
6557222 On ch=3 n=10 v=100
6557276 Off ch=3 n=5 v=0
6557311 Off ch=3 n=42 v=0
6557377 On ch=3 n=56 v=100
6557377 On ch=3 n=56 v=100
6557447 Off ch=3 n=10 v=0
6557456 On ch=3 n=22 v=100
6557567 Off ch=3 n=22 v=0
6557583 Off ch=3 n=56 v=0
6557583 Off ch=3 n=56 v=0
6557735 On ch=3 n=18 v=100
6557818 On ch=3 n=49 v=100
6558116 Off ch=3 n=18 v=0
6558436 Off ch=3 n=49 v=0
6558876 On ch=3 n=29 v=100
6558876 On ch=3 n=18 v=100
6558972 On ch=3 n=16 v=100
6558985 Off ch=3 n=18 v=0
6559018 Off ch=3 n=29 v=0
6559115 On ch=3 n=14 v=100
6559144 Off ch=3 n=16 v=0
6559314 On ch=3 n=13 v=100
6559318 Off ch=3 n=14 v=0
6559529 On ch=3 n=11 v=100
6559537 Off ch=3 n=13 v=0
6559728 Off ch=3 n=11 v=0
6559751 On ch=3 n=8 v=100
6560125 On ch=3 n=11 v=100
6560127 Off ch=3 n=8 v=0
6560641 Off ch=3 n=11 v=0
6560646 On ch=3 n=12 v=100
6560764 Off ch=3 n=12 v=0
6560813 On ch=3 n=31 v=100
6560902 Off ch=3 n=31 v=0
6561291 On ch=3 n=11 v=100
6561562 On ch=3 n=10 v=100
6561765 Off ch=3 n=11 v=0
6561864 On ch=3 n=13 v=100
6562097 Off ch=3 n=10 v=0
6562512 Off ch=3 n=13 v=0
6563514 On ch=3 n=29 v=100
6563547 On ch=3 n=30 v=100
6563655 Off ch=3 n=29 v=0
6563655 Off ch=3 n=30 v=0
6563925 On ch=3 n=27 v=100
6564021 Off ch=3 n=27 v=0
6564026 On ch=3 n=15 v=100
6564187 Off ch=3 n=15 v=0
6564197 On ch=3 n=17 v=100
6564209 On ch=3 n=8 v=100
6564241 Off ch=3 n=17 v=0
6564401 Off ch=3 n=8 v=0
6564405 On ch=3 n=16 v=100
6564813 On ch=3 n=21 v=100
6564842 Off ch=3 n=16 v=0
6564891 Off ch=3 n=21 v=0
6564907 On ch=3 n=11 v=100
6565215 On ch=3 n=23 v=100
6565237 On ch=3 n=27 v=100
6565293 Off ch=3 n=11 v=0
6565295 On ch=3 n=17 v=100
6565301 Off ch=3 n=27 v=0
6565304 Off ch=3 n=23 v=0
6565389 Off ch=3 n=17 v=0
6566378 On ch=3 n=10 v=100
6567074 Off ch=3 n=10 v=0
6567099 On ch=3 n=15 v=100
6567199 Off ch=3 n=15 v=0
6567236 On ch=3 n=15 v=100
6567236 On ch=3 n=36 v=100
6567236 On ch=3 n=10 v=100
6567278 Off ch=3 n=15 v=0
6567330 Off ch=3 n=36 v=0
6567728 Off ch=3 n=10 v=0
6567730 On ch=3 n=4 v=100
6568051 Off ch=3 n=4 v=0
6568053 On ch=3 n=9 v=100
6568173 Off ch=3 n=9 v=0
6568360 On ch=3 n=6 v=100
6568687 On ch=3 n=31 v=100
6568692 On ch=3 n=29 v=100
6568692 On ch=3 n=29 v=100
6568822 Off ch=3 n=6 v=0
6568843 On ch=3 n=15 v=100
6569003 On ch=3 n=34 v=100
6569127 Off ch=3 n=15 v=0
6569131 Off ch=3 n=31 v=0
6569191 Off ch=3 n=29 v=0
6569191 Off ch=3 n=29 v=0
6569218 Off ch=3 n=34 v=0
6569243 On ch=3 n=36 v=100
6569318 On ch=3 n=10 v=100
6569320 Off ch=3 n=36 v=0
6569829 Off ch=3 n=10 v=0
6569841 On ch=3 n=36 v=100
6570072 Off ch=3 n=36 v=0
6570322 On ch=3 n=26 v=100
6570454 On ch=3 n=14 v=100
6570465 On ch=3 n=20 v=100
6570805 Off ch=3 n=26 v=0
6570838 Off ch=3 n=14 v=0
6570947 On ch=3 n=35 v=100
6571054 Off ch=3 n=20 v=0
6571059 On ch=3 n=48 v=100
6571091 Off ch=3 n=35 v=0
6571148 Off ch=3 n=48 v=0
6571766 On ch=3 n=17 v=100
6571782 On ch=3 n=33 v=100
6571786 On ch=3 n=12 v=100
6571949 Off ch=3 n=12 v=0
6571956 Off ch=3 n=17 v=0
6572031 Off ch=3 n=33 v=0
6572531 On ch=3 n=11 v=100
6572623 On ch=3 n=22 v=100
6572667 On ch=3 n=15 v=100
6572766 Off ch=3 n=11 v=0
6572775 On ch=3 n=14 v=100
6573014 Off ch=3 n=22 v=0
6573128 On ch=3 n=16 v=100
6573135 Off ch=3 n=15 v=0
6573257 Off ch=3 n=14 v=0
6573360 Off ch=3 n=16 v=0
6573363 On ch=3 n=6 v=100
6573410 Off ch=3 n=6 v=0
6573672 On ch=3 n=29 v=100
6573764 On ch=3 n=21 v=100
6573764 On ch=3 n=21 v=100
6573814 On ch=3 n=16 v=100
6573836 On ch=3 n=24 v=100
6574154 Off ch=3 n=29 v=0
6574175 Off ch=3 n=16 v=0
6574243 Off ch=3 n=21 v=0
6574243 Off ch=3 n=21 v=0
6574321 Off ch=3 n=24 v=0
6577369 On ch=3 n=9 v=100
6577845 Off ch=3 n=9 v=0
6578511 On ch=3 n=41 v=100
6578511 On ch=3 n=41 v=100
6578530 On ch=3 n=35 v=100
6578716 Off ch=3 n=35 v=0
6578723 On ch=3 n=18 v=100
6578727 Off ch=3 n=41 v=0
6578727 Off ch=3 n=41 v=0
6578895 Off ch=3 n=18 v=0
6578909 On ch=3 n=32 v=100
6578998 Off ch=3 n=32 v=0
6579358 On ch=3 n=26 v=100
6579616 On ch=3 n=19 v=100
6579616 Off ch=3 n=26 v=0
6579934 Off ch=3 n=19 v=0
6580225 On ch=3 n=9 v=100
6581187 Off ch=3 n=9 v=0
6581296 On ch=3 n=5 v=100
6581883 Off ch=3 n=5 v=0
6581994 On ch=3 n=31 v=100
6582028 On ch=3 n=18 v=100
6582181 Off ch=3 n=31 v=0
6582298 Off ch=3 n=18 v=0
6582305 On ch=3 n=12 v=100
6583203 Off ch=3 n=12 v=0
6584574 On ch=3 n=18 v=100
6584858 Off ch=3 n=18 v=0
6585021 On ch=3 n=18 v=100
6585056 On ch=3 n=17 v=100
6585057 On ch=3 n=18 v=100
6585312 Off ch=3 n=18 v=0
6585361 Off ch=3 n=17 v=0
6585364 On ch=3 n=19 v=100
6585402 Off ch=3 n=18 v=0
6585474 Off ch=3 n=19 v=0
6586014 On ch=3 n=27 v=100
6586115 Off ch=3 n=27 v=0
6586172 On ch=3 n=17 v=100
6586711 Off ch=3 n=17 v=0
6587910 On ch=3 n=44 v=100
6587952 On ch=3 n=27 v=100
6588052 Off ch=3 n=44 v=0
6588196 Off ch=3 n=27 v=0
6589744 On ch=3 n=22 v=100
6589861 On ch=3 n=36 v=100
6590007 Off ch=3 n=22 v=0
6590037 Off ch=3 n=36 v=0
6590107 On ch=3 n=27 v=100
6590141 On ch=3 n=18 v=100
6590179 Off ch=3 n=27 v=0
6590713 Off ch=3 n=18 v=0
6590939 On ch=3 n=18 v=100
6590992 On ch=3 n=23 v=100
6590992 On ch=3 n=23 v=100
6591006 On ch=3 n=18 v=100
6591006 On ch=3 n=18 v=100
6591037 On ch=3 n=15 v=100
6591396 Off ch=3 n=18 v=0
6591482 Off ch=3 n=15 v=0
6591526 Off ch=3 n=18 v=0
6591526 Off ch=3 n=18 v=0
6591555 On ch=3 n=22 v=100
6591583 Off ch=3 n=23 v=0
6591583 Off ch=3 n=23 v=0
6592044 Off ch=3 n=22 v=0
6592253 On ch=3 n=6 v=100
6592533 On ch=3 n=63 v=100
6592586 Off ch=3 n=6 v=0
6592613 Off ch=3 n=63 v=0
6592663 On ch=3 n=4 v=100
6592929 Off ch=3 n=4 v=0
6592981 On ch=3 n=4 v=100
6594203 On ch=3 n=9 v=100
6594205 Off ch=3 n=4 v=0
6595481 Off ch=3 n=9 v=0
6596724 On ch=3 n=9 v=100
6597326 Off ch=3 n=9 v=0
6597327 On ch=3 n=10 v=100
6597743 Off ch=3 n=10 v=0
6597745 On ch=3 n=12 v=100
6597834 Off ch=3 n=12 v=0
6599030 On ch=3 n=10 v=100
6599742 On ch=3 n=15 v=100
6599764 Off ch=3 n=10 v=0
6599854 On ch=3 n=48 v=100
6600095 Off ch=3 n=15 v=0
6600291 On ch=3 n=14 v=100
6600328 Off ch=3 n=48 v=0
6600704 Off ch=3 n=14 v=0
6600717 On ch=3 n=2 v=100
6600777 On ch=3 n=20 v=100
6600824 On ch=3 n=21 v=100
6600824 Off ch=3 n=2 v=0
6600933 Off ch=3 n=20 v=0
6600933 Off ch=3 n=21 v=0
6602010 On ch=3 n=22 v=100
6602282 Off ch=3 n=22 v=0
6603595 On ch=3 n=20 v=100
6603693 On ch=3 n=37 v=100
6603725 Off ch=3 n=20 v=0
6603808 On ch=3 n=26 v=100
6603828 On ch=3 n=13 v=100
6603928 On ch=3 n=54 v=100
6603928 On ch=3 n=54 v=100
6604018 On ch=3 n=18 v=100
6604018 Off ch=3 n=13 v=0
6604022 On ch=3 n=34 v=100
6604024 Off ch=3 n=37 v=0
6604025 Off ch=3 n=26 v=0
6604109 Off ch=3 n=18 v=0
6604133 Off ch=3 n=34 v=0
6604223 Off ch=3 n=54 v=0
6604223 Off ch=3 n=54 v=0
6605524 On ch=3 n=34 v=100
6605543 On ch=3 n=8 v=100
6605617 Off ch=3 n=34 v=0
6605931 Off ch=3 n=8 v=0
6605932 On ch=3 n=5 v=100
6606089 Off ch=3 n=5 v=0
6606112 On ch=3 n=23 v=100
6606169 On ch=3 n=16 v=100
6606558 Off ch=3 n=23 v=0
6606558 Off ch=3 n=16 v=0
6607912 On ch=3 n=14 v=100
6607944 On ch=3 n=10 v=100
6608019 Off ch=3 n=14 v=0
6608028 Off ch=3 n=10 v=0
6608161 On ch=3 n=8 v=100
6608390 On ch=3 n=23 v=100
6608407 Off ch=3 n=8 v=0
6608411 On ch=3 n=18 v=100
6608431 On ch=3 n=18 v=100
6608559 Off ch=3 n=23 v=0
6608559 Off ch=3 n=18 v=0
6608748 Off ch=3 n=18 v=0
6609002 On ch=3 n=17 v=100
6609198 Off ch=3 n=17 v=0
6610131 On ch=3 n=40 v=100
6610245 Off ch=3 n=40 v=0
6610477 On ch=3 n=38 v=100
6610552 Off ch=3 n=38 v=0
6610557 On ch=3 n=10 v=100
6611228 Off ch=3 n=10 v=0
6611261 On ch=3 n=7 v=100
6611580 Off ch=3 n=7 v=0
6611581 On ch=3 n=5 v=100
6612074 On ch=3 n=9 v=100
6612076 Off ch=3 n=5 v=0
6612218 Off ch=3 n=9 v=0
6612223 On ch=3 n=3 v=100
6612518 On ch=3 n=14 v=100
6612539 Off ch=3 n=3 v=0
6612659 On ch=3 n=6 v=100
6612663 Off ch=3 n=14 v=0
6612790 Off ch=3 n=6 v=0
6613699 On ch=3 n=8 v=100
6613969 On ch=3 n=28 v=100
6613971 Off ch=3 n=8 v=0
6614722 Off ch=3 n=28 v=0
6614723 On ch=3 n=34 v=100
6615431 Off ch=3 n=34 v=0
6615434 On ch=3 n=13 v=100
6616070 Off ch=3 n=13 v=0
6616256 On ch=3 n=16 v=100
6616416 Off ch=3 n=16 v=0
6616772 On ch=3 n=25 v=100
6617240 Off ch=3 n=25 v=0
6617496 On ch=3 n=14 v=100
6617721 Off ch=3 n=14 v=0
6617772 On ch=3 n=14 v=100
6617835 Off ch=3 n=14 v=0
6617837 On ch=3 n=13 v=100
6617954 Off ch=3 n=13 v=0
6618016 On ch=3 n=29 v=100
6618019 On ch=3 n=45 v=100
6618288 Off ch=3 n=29 v=0
6618413 Off ch=3 n=45 v=0
6619696 On ch=3 n=3 v=100
6620060 Off ch=3 n=3 v=0
6620181 On ch=3 n=3 v=100
6620435 Off ch=3 n=3 v=0
6620479 On ch=3 n=3 v=100
6621195 Off ch=3 n=3 v=0
6627366 On ch=3 n=31 v=100
6627678 Off ch=3 n=31 v=0
6628194 On ch=3 n=17 v=100
6628446 On ch=3 n=37 v=100
6628479 Off ch=3 n=17 v=0
6628522 On ch=3 n=22 v=100
6628544 Off ch=3 n=37 v=0
6628568 Off ch=3 n=22 v=0
6628570 On ch=3 n=26 v=100
6628580 On ch=3 n=23 v=100
6628587 On ch=3 n=18 v=100
6628613 Off ch=3 n=26 v=0
6628613 Off ch=3 n=23 v=0
6628666 Off ch=3 n=18 v=0
6631582 On ch=3 n=29 v=100
6631638 Off ch=3 n=29 v=0
6632587 On ch=3 n=23 v=100
6632862 Off ch=3 n=23 v=0
6632895 On ch=3 n=10 v=100
6633704 On ch=3 n=12 v=100
6633715 Off ch=3 n=10 v=0
6633925 On ch=3 n=42 v=100
6633944 On ch=3 n=14 v=100
6633956 Off ch=3 n=12 v=0
6634082 Off ch=3 n=42 v=0
6634276 Off ch=3 n=14 v=0
6635747 On ch=3 n=15 v=100
6636616 Off ch=3 n=15 v=0
6638905 On ch=3 n=20 v=100
6639048 Off ch=3 n=20 v=0
6639741 On ch=3 n=16 v=100
6640053 On ch=3 n=22 v=100
6640069 Off ch=3 n=16 v=0
6640133 Off ch=3 n=22 v=0
6640143 On ch=3 n=20 v=100
6640374 Off ch=3 n=20 v=0
6642363 On ch=3 n=24 v=100
6642496 Off ch=3 n=24 v=0
6642499 On ch=3 n=5 v=100
6642656 Off ch=3 n=5 v=0
6642658 On ch=3 n=11 v=100
6642942 Off ch=3 n=11 v=0
6642943 On ch=3 n=13 v=100
6642984 Off ch=3 n=13 v=0
6643159 On ch=3 n=23 v=100
6643264 On ch=3 n=12 v=100
6643572 Off ch=3 n=12 v=0
6643574 On ch=3 n=11 v=100
6643576 Off ch=3 n=23 v=0
6643770 On ch=3 n=19 v=100
6643811 On ch=3 n=23 v=100
6643890 Off ch=3 n=11 v=0
6643934 On ch=3 n=30 v=100
6644058 On ch=3 n=14 v=100
6644108 Off ch=3 n=19 v=0
6644113 Off ch=3 n=23 v=0
6644178 Off ch=3 n=30 v=0
6644533 Off ch=3 n=14 v=0
6646465 On ch=3 n=27 v=100
6646514 On ch=3 n=19 v=100
6646676 Off ch=3 n=27 v=0
6646843 On ch=3 n=14 v=100
6646854 Off ch=3 n=19 v=0
6647391 On ch=3 n=30 v=100
6647572 Off ch=3 n=14 v=0
6647594 Off ch=3 n=30 v=0
6647703 On ch=3 n=25 v=100
6647862 Off ch=3 n=25 v=0
6648425 On ch=3 n=10 v=100
6648866 Off ch=3 n=10 v=0
6650639 On ch=3 n=20 v=100
6650925 Off ch=3 n=20 v=0
6651362 On ch=3 n=34 v=100
6651362 On ch=3 n=34 v=100
6651364 On ch=3 n=12 v=100
6651364 On ch=3 n=12 v=100
6651552 Off ch=3 n=12 v=0
6651552 Off ch=3 n=12 v=0
6651582 On ch=3 n=22 v=100
6651793 Off ch=3 n=22 v=0
6651922 Off ch=3 n=34 v=0
6651922 Off ch=3 n=34 v=0
6653173 On ch=3 n=11 v=100
6653198 On ch=3 n=12 v=100
6653357 Off ch=3 n=11 v=0
6653502 On ch=3 n=28 v=100
6653549 Off ch=3 n=12 v=0
6653555 Off ch=3 n=28 v=0
6653599 On ch=3 n=13 v=100
6653821 On ch=3 n=8 v=100
6653822 Off ch=3 n=13 v=0
6653969 Off ch=3 n=8 v=0
6654060 On ch=3 n=21 v=100
6654196 On ch=3 n=48 v=100
6654364 Off ch=3 n=21 v=0
6654374 On ch=3 n=6 v=100
6654448 Off ch=3 n=48 v=0
6654937 Off ch=3 n=6 v=0
6656239 On ch=3 n=4 v=100
6656802 Off ch=3 n=4 v=0
6656995 On ch=3 n=13 v=100
6657711 Off ch=3 n=13 v=0
6657835 On ch=3 n=30 v=100
6657854 On ch=3 n=12 v=100
6657916 Off ch=3 n=30 v=0
6657917 Off ch=3 n=12 v=0
6657918 On ch=3 n=9 v=100
6658445 On ch=3 n=20 v=100
6658679 Off ch=3 n=9 v=0
6658685 Off ch=3 n=20 v=0
6658735 On ch=3 n=20 v=100
6658794 Off ch=3 n=20 v=0
6658849 On ch=3 n=12 v=100
6658902 Off ch=3 n=12 v=0
6659678 On ch=3 n=31 v=100
6660190 Off ch=3 n=31 v=0
6660232 On ch=3 n=15 v=100
6660359 On ch=3 n=9 v=100
6660368 Off ch=3 n=15 v=0
6660799 Off ch=3 n=9 v=0
6660806 On ch=3 n=17 v=100
6660872 Off ch=3 n=17 v=0
6670887 On ch=3 n=30 v=100
6670901 On ch=3 n=21 v=100
6670903 On ch=3 n=32 v=100
6670998 Off ch=3 n=30 v=0
6670999 Off ch=3 n=21 v=0
6671035 Off ch=3 n=32 v=0
6671103 On ch=3 n=10 v=100
6671173 On ch=3 n=11 v=100
6671183 Off ch=3 n=10 v=0
6671429 Off ch=3 n=11 v=0
6671438 On ch=3 n=6 v=100
6671934 Off ch=3 n=6 v=0
6671937 On ch=3 n=16 v=100
6672214 On ch=3 n=9 v=100
6672230 Off ch=3 n=16 v=0
6672328 Off ch=3 n=9 v=0
6672553 On ch=3 n=30 v=100
6672658 On ch=3 n=18 v=100
6672658 On ch=3 n=18 v=100
6672701 On ch=3 n=25 v=100
6672985 On ch=3 n=29 v=100
6672985 On ch=3 n=29 v=100
6673056 Off ch=3 n=18 v=0
6673056 Off ch=3 n=18 v=0
6673112 Off ch=3 n=30 v=0
6673146 Off ch=3 n=25 v=0
6673185 Off ch=3 n=29 v=0
6673185 Off ch=3 n=29 v=0
6673512 On ch=3 n=20 v=100
6673512 On ch=3 n=34 v=100
6673626 Off ch=3 n=20 v=0
6673746 On ch=3 n=21 v=100
6673836 On ch=3 n=10 v=100
6674028 Off ch=3 n=21 v=0
6674032 Off ch=3 n=10 v=0
6674042 Off ch=3 n=34 v=0
6674050 On ch=3 n=10 v=100
6674500 Off ch=3 n=10 v=0
6674631 On ch=3 n=27 v=100
6674737 Off ch=3 n=27 v=0
6674934 On ch=3 n=21 v=100
6675134 Off ch=3 n=21 v=0
6675145 On ch=3 n=14 v=100
6675276 Off ch=3 n=14 v=0
6675299 On ch=3 n=11 v=100
6675383 Off ch=3 n=11 v=0
6675393 On ch=3 n=25 v=100
6675642 Off ch=3 n=25 v=0
6677214 On ch=3 n=3 v=100
6677336 Off ch=3 n=3 v=0
6677338 On ch=3 n=4 v=100
6678185 Off ch=3 n=4 v=0
6678190 On ch=3 n=18 v=100
6678377 Off ch=3 n=18 v=0
6679169 On ch=3 n=27 v=100
6679216 On ch=3 n=24 v=100
6679219 On ch=3 n=25 v=100
6679408 Off ch=3 n=27 v=0
6679512 Off ch=3 n=24 v=0
6679522 On ch=3 n=17 v=100
6679549 Off ch=3 n=25 v=0
6679615 On ch=3 n=13 v=100
6679615 Off ch=3 n=17 v=0
6679696 Off ch=3 n=13 v=0
6681570 On ch=3 n=32 v=100
6681648 On ch=3 n=18 v=100
6681707 On ch=3 n=20 v=100
6681725 Off ch=3 n=32 v=0
6681934 Off ch=3 n=18 v=0
6682408 On ch=3 n=2 v=100
6682411 Off ch=3 n=20 v=0
6683080 Off ch=3 n=2 v=0
6683082 On ch=3 n=9 v=100
6683323 Off ch=3 n=9 v=0
6684376 On ch=3 n=12 v=100
6684666 Off ch=3 n=12 v=0
6684819 On ch=3 n=23 v=100
6684983 On ch=3 n=24 v=100
6684991 Off ch=3 n=23 v=0
6684992 On ch=3 n=16 v=100
6685031 Off ch=3 n=24 v=0
6685671 Off ch=3 n=16 v=0
6686084 On ch=3 n=10 v=100
6686084 On ch=3 n=16 v=100
6686184 On ch=3 n=23 v=100
6686213 Off ch=3 n=10 v=0
6686244 Off ch=3 n=16 v=0
6686244 Off ch=3 n=23 v=0
6686311 On ch=3 n=16 v=100
6686311 On ch=3 n=23 v=100
6686328 Off ch=3 n=16 v=0
6686436 Off ch=3 n=23 v=0
6687039 On ch=3 n=9 v=100
6687327 Off ch=3 n=9 v=0
6687364 On ch=3 n=11 v=100
6687805 Off ch=3 n=11 v=0
6688716 On ch=3 n=7 v=100
6688780 On ch=3 n=33 v=100
6688799 Off ch=3 n=7 v=0
6688821 On ch=3 n=24 v=100
6688862 On ch=3 n=18 v=100
6688904 On ch=3 n=31 v=100
6688921 Off ch=3 n=33 v=0
6689235 Off ch=3 n=18 v=0
6689244 Off ch=3 n=24 v=0
6689256 On ch=3 n=30 v=100
6689388 Off ch=3 n=31 v=0
6689562 Off ch=3 n=30 v=0
6689578 On ch=3 n=17 v=100
6689714 Off ch=3 n=17 v=0
6689792 On ch=3 n=10 v=100
6690204 Off ch=3 n=10 v=0
6690289 On ch=3 n=33 v=100
6690300 On ch=3 n=10 v=100
6690369 Off ch=3 n=33 v=0
6690756 Off ch=3 n=10 v=0
6690807 On ch=3 n=10 v=100
6691077 Off ch=3 n=10 v=0
6692797 On ch=3 n=5 v=100
6692813 Off ch=3 n=5 v=0
6692860 On ch=3 n=5 v=100
6696174 On ch=3 n=29 v=100
6696189 On ch=3 n=33 v=100
6696209 On ch=3 n=30 v=100
6696236 On ch=3 n=22 v=100
6696258 Off ch=3 n=5 v=0
6696286 Off ch=3 n=29 v=0
6696286 Off ch=3 n=33 v=0
6696286 Off ch=3 n=30 v=0
6696286 Off ch=3 n=22 v=0
6696351 On ch=3 n=33 v=100
6696351 On ch=3 n=22 v=100
6696367 Off ch=3 n=33 v=0
6696387 Off ch=3 n=22 v=0
6696651 On ch=3 n=5 v=100
6696706 Off ch=3 n=5 v=0
6698710 On ch=3 n=35 v=100
6698834 On ch=3 n=19 v=100
6698855 Off ch=3 n=35 v=0
6698855 Off ch=3 n=19 v=0
6698925 On ch=3 n=18 v=100
6698925 On ch=3 n=20 v=100
6699345 Off ch=3 n=18 v=0
6699438 Off ch=3 n=20 v=0
6701608 On ch=3 n=11 v=100
6701608 On ch=3 n=21 v=100
6701608 On ch=3 n=22 v=100
6701849 Off ch=3 n=11 v=0
6701940 Off ch=3 n=21 v=0
6701987 On ch=3 n=24 v=100
6701989 On ch=3 n=29 v=100
6702053 Off ch=3 n=22 v=0
6702073 Off ch=3 n=24 v=0
6702105 Off ch=3 n=29 v=0
6703391 On ch=3 n=44 v=100
6703474 Off ch=3 n=44 v=0
6703542 On ch=3 n=44 v=100
6703542 On ch=3 n=44 v=100
6703618 On ch=3 n=23 v=100
6703800 Off ch=3 n=23 v=0
6703875 Off ch=3 n=44 v=0
6703875 Off ch=3 n=44 v=0
6704101 On ch=3 n=18 v=100
6704101 On ch=3 n=29 v=100
6704195 Off ch=3 n=18 v=0
6704211 Off ch=3 n=29 v=0
6704638 On ch=3 n=23 v=100
6704932 Off ch=3 n=23 v=0
6704934 On ch=3 n=14 v=100
6705169 Off ch=3 n=14 v=0
6705170 On ch=3 n=12 v=100
6705521 Off ch=3 n=12 v=0
6705525 On ch=3 n=14 v=100
6705629 Off ch=3 n=14 v=0
6706748 On ch=3 n=33 v=100
6706758 On ch=3 n=29 v=100
6706819 Off ch=3 n=33 v=0
6706819 Off ch=3 n=29 v=0
6706821 On ch=3 n=42 v=100
6706829 On ch=3 n=22 v=100
6706924 On ch=3 n=6 v=100
6706924 On ch=3 n=6 v=100
6706944 Off ch=3 n=22 v=0
6706946 On ch=3 n=5 v=100
6707068 Off ch=3 n=42 v=0
6707180 Off ch=3 n=5 v=0
6707183 On ch=3 n=18 v=100
6707191 Off ch=3 n=6 v=0
6707191 Off ch=3 n=6 v=0
6707200 On ch=3 n=26 v=100
6707272 Off ch=3 n=18 v=0
6707435 Off ch=3 n=26 v=0
6707573 On ch=3 n=5 v=100
6707685 On ch=3 n=40 v=100
6707830 Off ch=3 n=5 v=0
6707837 On ch=3 n=16 v=100
6707961 Off ch=3 n=40 v=0
6708020 Off ch=3 n=16 v=0
6708676 On ch=3 n=14 v=100
6709367 Off ch=3 n=14 v=0
6710044 On ch=3 n=12 v=100
6710269 Off ch=3 n=12 v=0
6711488 On ch=3 n=23 v=100
6711652 Off ch=3 n=23 v=0
6711954 On ch=3 n=7 v=100
6712829 Off ch=3 n=7 v=0
6713493 On ch=3 n=18 v=100
6713897 Off ch=3 n=18 v=0
6715002 On ch=3 n=36 v=100
6715082 Off ch=3 n=36 v=0
6715161 On ch=3 n=27 v=100
6715598 Off ch=3 n=27 v=0
6715602 On ch=3 n=32 v=100
6715958 Off ch=3 n=32 v=0
6716542 On ch=3 n=3 v=100
6718548 On ch=3 n=42 v=100
6718549 On ch=3 n=44 v=100
6718565 Off ch=3 n=3 v=0
6718566 On ch=3 n=5 v=100
6718669 Off ch=3 n=42 v=0
6718685 Off ch=3 n=44 v=0
6719531 Off ch=3 n=5 v=0
6719707 On ch=3 n=36 v=100
6719744 On ch=3 n=34 v=100
6720010 Off ch=3 n=36 v=0
6720031 Off ch=3 n=34 v=0
6720461 On ch=3 n=12 v=100
6721280 Off ch=3 n=12 v=0
6721282 On ch=3 n=16 v=100
6721331 Off ch=3 n=16 v=0
6722892 On ch=3 n=7 v=100
6723080 On ch=3 n=38 v=100
6723100 Off ch=3 n=7 v=0
6723113 On ch=3 n=23 v=100
6723352 Off ch=3 n=38 v=0
6723391 Off ch=3 n=23 v=0
6723538 On ch=3 n=10 v=100
6723538 On ch=3 n=10 v=100
6723820 Off ch=3 n=10 v=0
6723820 Off ch=3 n=10 v=0
6724448 On ch=3 n=20 v=100
6724790 Off ch=3 n=20 v=0
6725731 On ch=3 n=33 v=100
6725742 On ch=3 n=35 v=100
6725752 On ch=3 n=29 v=100
6725893 Off ch=3 n=29 v=0
6725914 Off ch=3 n=33 v=0
6725944 Off ch=3 n=35 v=0
6726357 On ch=3 n=34 v=100
6726437 Off ch=3 n=34 v=0
6726602 On ch=3 n=24 v=100
6726603 On ch=3 n=17 v=100
6726685 Off ch=3 n=17 v=0
6726702 Off ch=3 n=24 v=0
6726737 On ch=3 n=28 v=100
6726752 On ch=3 n=13 v=100
6726793 Off ch=3 n=28 v=0
6726793 Off ch=3 n=13 v=0
6726866 On ch=3 n=28 v=100
6727128 Off ch=3 n=28 v=0
6728145 On ch=3 n=16 v=100
6728476 Off ch=3 n=16 v=0
6728765 On ch=3 n=43 v=100
6728777 On ch=3 n=30 v=100
6728823 On ch=3 n=26 v=100
6728865 On ch=3 n=20 v=100
6728869 On ch=3 n=14 v=100
6728875 Off ch=3 n=43 v=0
6728876 Off ch=3 n=30 v=0
6729043 Off ch=3 n=14 v=0
6729048 Off ch=3 n=26 v=0
6729068 Off ch=3 n=20 v=0
6729292 On ch=3 n=26 v=100
6729410 On ch=3 n=15 v=100
6729431 Off ch=3 n=26 v=0
6729949 Off ch=3 n=15 v=0
6731190 On ch=3 n=11 v=100
6731379 Off ch=3 n=11 v=0
6731554 On ch=3 n=5 v=100
6731758 Off ch=3 n=5 v=0
6731942 On ch=3 n=22 v=100
6732014 On ch=3 n=38 v=100
6732061 On ch=3 n=17 v=100
6732086 Off ch=3 n=22 v=0
6732091 On ch=3 n=5 v=100
6732252 Off ch=3 n=17 v=0
6732253 Off ch=3 n=5 v=0
6732255 Off ch=3 n=38 v=0
6732275 On ch=3 n=10 v=100
6732575 Off ch=3 n=10 v=0
6732595 On ch=3 n=9 v=100
6732745 Off ch=3 n=9 v=0
6733478 On ch=3 n=7 v=100
6733625 Off ch=3 n=7 v=0
6733626 On ch=3 n=7 v=100
6733983 On ch=3 n=54 v=100
6734399 Off ch=3 n=7 v=0
6734420 On ch=3 n=9 v=100
6734425 On ch=3 n=25 v=100
6734456 Off ch=3 n=54 v=0
6734498 Off ch=3 n=9 v=0
6734504 On ch=3 n=27 v=100
6734504 On ch=3 n=27 v=100
6734593 Off ch=3 n=25 v=0
6734610 On ch=3 n=17 v=100
6734671 On ch=3 n=10 v=100
6734671 On ch=3 n=10 v=100
6734745 On ch=3 n=25 v=100
6734745 On ch=3 n=25 v=100
6734945 Off ch=3 n=27 v=0
6734945 Off ch=3 n=17 v=0
6734945 Off ch=3 n=27 v=0
6734950 Off ch=3 n=10 v=0
6734950 Off ch=3 n=10 v=0
6734952 On ch=3 n=25 v=100
6735154 Off ch=3 n=25 v=0
6735154 Off ch=3 n=25 v=0
6735317 Off ch=3 n=25 v=0
6736247 On ch=3 n=23 v=100
6736263 On ch=3 n=23 v=100
6736310 Off ch=3 n=23 v=0
6736317 Off ch=3 n=23 v=0
6736333 On ch=3 n=17 v=100
6736414 On ch=3 n=18 v=100
6736475 On ch=3 n=16 v=100
6736504 Off ch=3 n=17 v=0
6736846 Off ch=3 n=18 v=0
6736966 Off ch=3 n=16 v=0
6737379 On ch=3 n=34 v=100
6737615 Off ch=3 n=34 v=0
6737696 On ch=3 n=17 v=100
6737771 Off ch=3 n=17 v=0
6737775 On ch=3 n=10 v=100
6738447 Off ch=3 n=10 v=0
6738453 On ch=3 n=26 v=100
6738454 On ch=3 n=31 v=100
6738488 On ch=3 n=34 v=100
6738609 Off ch=3 n=26 v=0
6738651 Off ch=3 n=31 v=0
6738683 Off ch=3 n=34 v=0
6740043 On ch=3 n=21 v=100
6740256 Off ch=3 n=21 v=0
6740258 On ch=3 n=12 v=100
6740387 Off ch=3 n=12 v=0
6740429 On ch=3 n=12 v=100
6740471 Off ch=3 n=12 v=0
6740477 On ch=3 n=14 v=100
6740593 Off ch=3 n=14 v=0
6740657 On ch=3 n=6 v=100
6740871 Off ch=3 n=6 v=0
6740873 On ch=3 n=19 v=100
6741052 Off ch=3 n=19 v=0
6741683 On ch=3 n=21 v=100
6741727 On ch=3 n=11 v=100
6741802 On ch=3 n=39 v=100
6741814 Off ch=3 n=21 v=0
6741814 Off ch=3 n=11 v=0
6741838 On ch=3 n=4 v=100
6741959 Off ch=3 n=39 v=0
6743087 Off ch=3 n=4 v=0
6743122 On ch=3 n=4 v=100
6744454 Off ch=3 n=4 v=0
6744554 On ch=3 n=4 v=100
6745117 Off ch=3 n=4 v=0
6745663 On ch=3 n=31 v=100
6745890 On ch=3 n=16 v=100
6745894 On ch=3 n=36 v=100
6746020 Off ch=3 n=31 v=0
6746027 On ch=3 n=20 v=100
6746036 Off ch=3 n=16 v=0
6746145 Off ch=3 n=36 v=0
6746382 Off ch=3 n=20 v=0
6746509 On ch=3 n=18 v=100
6746582 Off ch=3 n=18 v=0
6746821 On ch=3 n=12 v=100
6746987 Off ch=3 n=12 v=0
6747035 On ch=3 n=26 v=100
6747174 Off ch=3 n=26 v=0
6747822 On ch=3 n=17 v=100
6748046 Off ch=3 n=17 v=0
6748404 On ch=3 n=8 v=100
6748655 On ch=3 n=16 v=100
6748683 Off ch=3 n=8 v=0
6748881 Off ch=3 n=16 v=0
6749016 On ch=3 n=8 v=100
6749338 Off ch=3 n=8 v=0
6749867 On ch=3 n=19 v=100
6750540 Off ch=3 n=19 v=0
6750693 On ch=3 n=34 v=100
6750724 On ch=3 n=25 v=100
6750777 Off ch=3 n=34 v=0
6750777 Off ch=3 n=25 v=0
6750817 On ch=3 n=34 v=100
6750818 On ch=3 n=45 v=100
6750908 Off ch=3 n=34 v=0
6751150 Off ch=3 n=45 v=0
6751508 On ch=3 n=32 v=100
6751508 On ch=3 n=32 v=100
6751551 On ch=3 n=32 v=100
6751551 On ch=3 n=32 v=100
6751570 On ch=3 n=11 v=100
6751588 On ch=3 n=19 v=100
6751623 Off ch=3 n=11 v=0
6751625 Off ch=3 n=32 v=0
6751625 Off ch=3 n=32 v=0
6751678 Off ch=3 n=32 v=0
6751678 Off ch=3 n=32 v=0
6752686 Off ch=3 n=19 v=0
6752711 On ch=3 n=16 v=100
6752933 Off ch=3 n=16 v=0
6752946 On ch=3 n=25 v=100
6752975 Off ch=3 n=25 v=0
6753006 On ch=3 n=25 v=100
6753007 On ch=3 n=34 v=100
6753008 On ch=3 n=25 v=100
6753164 Off ch=3 n=25 v=0
6753172 Off ch=3 n=25 v=0
6753192 Off ch=3 n=34 v=0
6754753 On ch=3 n=16 v=100
6754753 On ch=3 n=39 v=100
6754965 Off ch=3 n=16 v=0
6755215 Off ch=3 n=39 v=0
6756108 On ch=3 n=32 v=100
6756112 On ch=3 n=15 v=100
6756271 Off ch=3 n=15 v=0
6756339 Off ch=3 n=32 v=0
6756982 On ch=3 n=20 v=100
6757166 Off ch=3 n=20 v=0
6758226 On ch=3 n=55 v=100
6758351 Off ch=3 n=55 v=0
6758404 On ch=3 n=16 v=100
6758861 Off ch=3 n=16 v=0
6758879 On ch=3 n=17 v=100
6759114 Off ch=3 n=17 v=0
6759129 On ch=3 n=15 v=100
6759400 Off ch=3 n=15 v=0
6760283 On ch=3 n=44 v=100
6760289 On ch=3 n=42 v=100
6760374 On ch=3 n=54 v=100
6760472 Off ch=3 n=42 v=0
6760493 Off ch=3 n=44 v=0
6760559 Off ch=3 n=54 v=0
6760726 On ch=3 n=38 v=100
6760748 On ch=3 n=48 v=100
6760760 On ch=3 n=8 v=100
6760914 Off ch=3 n=38 v=0
6760914 Off ch=3 n=8 v=0
6760988 Off ch=3 n=48 v=0
6761360 On ch=3 n=8 v=100
6761700 Off ch=3 n=8 v=0
6762313 On ch=3 n=49 v=100
6762471 Off ch=3 n=49 v=0
6763040 On ch=3 n=52 v=100
6763040 On ch=3 n=52 v=100
6763107 On ch=3 n=36 v=100
6763194 Off ch=3 n=36 v=0
6763210 Off ch=3 n=52 v=0
6763210 Off ch=3 n=52 v=0
6764238 On ch=3 n=13 v=100
6764743 On ch=3 n=11 v=100
6764743 Off ch=3 n=13 v=0
6765246 On ch=3 n=11 v=100
6765285 On ch=3 n=28 v=100
6765288 Off ch=3 n=11 v=0
6765640 Off ch=3 n=11 v=0
6765655 On ch=3 n=8 v=100
6765864 Off ch=3 n=28 v=0
6765970 Off ch=3 n=8 v=0
6766117 On ch=3 n=10 v=100
6766786 Off ch=3 n=10 v=0
6766936 On ch=3 n=40 v=100
6767093 Off ch=3 n=40 v=0
6767495 On ch=3 n=19 v=100
6767541 On ch=3 n=15 v=100
6767547 On ch=3 n=25 v=100
6767830 On ch=3 n=40 v=100
6767911 Off ch=3 n=15 v=0
6767921 Off ch=3 n=19 v=0
6768013 Off ch=3 n=25 v=0
6768168 Off ch=3 n=40 v=0
6768225 On ch=3 n=13 v=100
6768297 On ch=3 n=22 v=100
6768451 Off ch=3 n=13 v=0
6768556 On ch=3 n=41 v=100
6768556 On ch=3 n=41 v=100
6768627 Off ch=3 n=22 v=0
6768630 On ch=3 n=41 v=100
6768630 On ch=3 n=41 v=100
6768666 On ch=3 n=25 v=100
6768732 On ch=3 n=19 v=100
6768753 On ch=3 n=20 v=100
6768753 On ch=3 n=20 v=100
6768892 Off ch=3 n=41 v=0
6768892 Off ch=3 n=41 v=0
6769012 On ch=3 n=34 v=100
6769012 Off ch=3 n=25 v=0
6769059 Off ch=3 n=41 v=0
6769059 Off ch=3 n=41 v=0
6769151 Off ch=3 n=19 v=0
6769202 Off ch=3 n=20 v=0
6769202 Off ch=3 n=20 v=0
6769271 Off ch=3 n=34 v=0
6770780 On ch=3 n=31 v=100
6770899 Off ch=3 n=31 v=0
6770900 On ch=3 n=27 v=100
6771174 Off ch=3 n=27 v=0
6771187 On ch=3 n=10 v=100
6772084 Off ch=3 n=10 v=0
6772086 On ch=3 n=5 v=100
6772203 Off ch=3 n=5 v=0
6772813 On ch=3 n=18 v=100
6772876 Off ch=3 n=18 v=0
6774101 On ch=3 n=6 v=100
6775657 Off ch=3 n=6 v=0
6777122 On ch=3 n=12 v=100
6777208 On ch=3 n=26 v=100
6777598 Off ch=3 n=12 v=0
6777814 Off ch=3 n=26 v=0
6779796 On ch=3 n=24 v=100
6779847 On ch=3 n=16 v=100
6779967 On ch=3 n=8 v=100
6779981 On ch=3 n=30 v=100
6780272 Off ch=3 n=24 v=0
6780272 Off ch=3 n=16 v=0
6780272 Off ch=3 n=8 v=0
6780438 Off ch=3 n=30 v=0
6780734 On ch=3 n=43 v=100
6780938 Off ch=3 n=43 v=0
6780948 On ch=3 n=10 v=100
6781432 On ch=3 n=34 v=100
6781473 Off ch=3 n=10 v=0
6781482 Off ch=3 n=34 v=0
6783654 On ch=3 n=12 v=100
6784286 On ch=3 n=48 v=100
6784286 On ch=3 n=48 v=100
6784324 Off ch=3 n=12 v=0
6784466 On ch=3 n=33 v=100
6784541 On ch=3 n=23 v=100
6784796 Off ch=3 n=23 v=0
6784797 Off ch=3 n=33 v=0
6784858 Off ch=3 n=48 v=0
6784858 Off ch=3 n=48 v=0
6785912 On ch=3 n=27 v=100
6786240 On ch=3 n=21 v=100
6786274 On ch=3 n=37 v=100
6786350 On ch=3 n=7 v=100
6786372 Off ch=3 n=27 v=0
6786391 Off ch=3 n=21 v=0
6786421 Off ch=3 n=37 v=0
6786752 Off ch=3 n=7 v=0
6787289 On ch=3 n=33 v=100
6787343 Off ch=3 n=33 v=0
6787349 On ch=3 n=19 v=100
6787552 On ch=3 n=14 v=100
6788406 Off ch=3 n=19 v=0
6788423 Off ch=3 n=14 v=0
6789585 On ch=3 n=29 v=100
6789744 Off ch=3 n=29 v=0
6791535 On ch=3 n=9 v=100
6792689 Off ch=3 n=9 v=0
6793482 On ch=3 n=35 v=100
6793521 On ch=3 n=20 v=100
6793521 On ch=3 n=27 v=100
6793521 On ch=3 n=34 v=100
6793738 Off ch=3 n=35 v=0
6793853 Off ch=3 n=20 v=0
6793970 Off ch=3 n=27 v=0
6794084 On ch=3 n=13 v=100
6794131 Off ch=3 n=34 v=0
6794242 On ch=3 n=36 v=100
6794344 Off ch=3 n=13 v=0
6794349 On ch=3 n=3 v=100
6794389 Off ch=3 n=36 v=0
6794587 Off ch=3 n=3 v=0
6794589 On ch=3 n=11 v=100
6795042 Off ch=3 n=11 v=0
6795119 On ch=3 n=11 v=100
6795460 Off ch=3 n=11 v=0
6795704 On ch=3 n=5 v=100
6795757 Off ch=3 n=5 v=0
6795758 On ch=3 n=17 v=100
6795759 On ch=3 n=32 v=100
6795785 On ch=3 n=29 v=100
6795959 Off ch=3 n=17 v=0
6796013 Off ch=3 n=32 v=0
6796046 On ch=3 n=16 v=100
6796160 Off ch=3 n=29 v=0
6796500 Off ch=3 n=16 v=0
6796589 On ch=3 n=16 v=100
6796590 On ch=3 n=19 v=100
6796760 Off ch=3 n=16 v=0
6796800 Off ch=3 n=19 v=0
6798049 On ch=3 n=12 v=100
6798051 On ch=3 n=12 v=100
6798215 Off ch=3 n=12 v=0
6798233 Off ch=3 n=12 v=0
6798234 On ch=3 n=8 v=100
6798973 Off ch=3 n=8 v=0
6798975 On ch=3 n=11 v=100
6799383 Off ch=3 n=11 v=0
6799401 On ch=3 n=16 v=100
6799494 Off ch=3 n=16 v=0
6799539 On ch=3 n=54 v=100
6799624 On ch=3 n=26 v=100
6799676 On ch=3 n=19 v=100
6799755 Off ch=3 n=54 v=0
6799769 Off ch=3 n=26 v=0
6799770 Off ch=3 n=19 v=0
6799773 On ch=3 n=12 v=100
6800442 Off ch=3 n=12 v=0
6800443 On ch=3 n=23 v=100
6800446 On ch=3 n=35 v=100
6800539 Off ch=3 n=23 v=0
6800578 Off ch=3 n=35 v=0
6802567 On ch=3 n=26 v=100
6802716 On ch=3 n=9 v=100
6802716 Off ch=3 n=26 v=0
6802774 Off ch=3 n=9 v=0
6802955 On ch=3 n=38 v=100
6802956 On ch=3 n=20 v=100
6803278 Off ch=3 n=20 v=0
6803345 Off ch=3 n=38 v=0
6803643 On ch=3 n=40 v=100
6803655 On ch=3 n=29 v=100
6803655 On ch=3 n=19 v=100
6803760 Off ch=3 n=19 v=0
6803885 Off ch=3 n=29 v=0
6803887 Off ch=3 n=40 v=0
6803919 On ch=3 n=20 v=100
6804178 On ch=3 n=24 v=100
6804179 Off ch=3 n=20 v=0
6804406 Off ch=3 n=24 v=0
6804892 On ch=3 n=29 v=100
6804955 On ch=3 n=32 v=100
6805112 Off ch=3 n=29 v=0
6805121 On ch=3 n=23 v=100
6805135 Off ch=3 n=32 v=0
6805155 Off ch=3 n=23 v=0
6805615 On ch=3 n=7 v=100
6805894 Off ch=3 n=7 v=0
6805947 On ch=3 n=22 v=100
6806254 Off ch=3 n=22 v=0
6806433 On ch=3 n=27 v=100
6806816 Off ch=3 n=27 v=0
6807445 On ch=3 n=29 v=100
6807447 On ch=3 n=43 v=100
6807645 Off ch=3 n=29 v=0
6807881 Off ch=3 n=43 v=0
6812112 On ch=3 n=37 v=100
6812127 On ch=3 n=27 v=100
6812166 On ch=3 n=20 v=100
6812167 On ch=3 n=25 v=100
6812167 On ch=3 n=32 v=100
6812265 Off ch=3 n=27 v=0
6812265 Off ch=3 n=20 v=0
6812268 Off ch=3 n=37 v=0
6812282 Off ch=3 n=25 v=0
6812325 On ch=3 n=6 v=100
6812335 Off ch=3 n=32 v=0
6812589 On ch=3 n=5 v=100
6812590 Off ch=3 n=6 v=0
6813560 Off ch=3 n=5 v=0
6813561 On ch=3 n=8 v=100
6814116 Off ch=3 n=8 v=0
6815920 On ch=3 n=52 v=100
6816049 Off ch=3 n=52 v=0
6816120 On ch=3 n=52 v=100
6816131 Off ch=3 n=52 v=0
6816133 On ch=3 n=18 v=100
6816135 On ch=3 n=30 v=100
6816211 Off ch=3 n=18 v=0
6816228 Off ch=3 n=30 v=0
6817032 On ch=3 n=11 v=100
6817989 Off ch=3 n=11 v=0
6818002 On ch=3 n=5 v=100
6818119 Off ch=3 n=5 v=0
6818246 On ch=3 n=26 v=100
6818517 On ch=3 n=18 v=100
6818587 On ch=3 n=42 v=100
6818592 Off ch=3 n=26 v=0
6818784 On ch=3 n=15 v=100
6818787 Off ch=3 n=18 v=0
6819038 Off ch=3 n=42 v=0
6819084 Off ch=3 n=15 v=0
6819163 On ch=3 n=15 v=100
6819230 Off ch=3 n=15 v=0
6819758 On ch=3 n=14 v=100
6820483 Off ch=3 n=14 v=0
6820656 On ch=3 n=4 v=100
6821021 Off ch=3 n=4 v=0
6821059 On ch=3 n=26 v=100
6821086 On ch=3 n=29 v=100
6821244 Off ch=3 n=26 v=0
6821293 Off ch=3 n=29 v=0
6821297 On ch=3 n=28 v=100
6821308 On ch=3 n=10 v=100
6821386 Off ch=3 n=28 v=0
6821425 Off ch=3 n=10 v=0
6821430 On ch=3 n=14 v=100
6821640 On ch=3 n=35 v=100
6821688 Off ch=3 n=14 v=0
6821733 Off ch=3 n=35 v=0
6821750 On ch=3 n=2 v=100
6822291 Off ch=3 n=2 v=0
6822334 On ch=3 n=2 v=100
6823097 Off ch=3 n=2 v=0
6825195 On ch=3 n=18 v=100
6825235 Off ch=3 n=18 v=0
6825497 On ch=3 n=23 v=100
6825531 On ch=3 n=15 v=100
6825531 On ch=3 n=13 v=100
6825662 Off ch=3 n=23 v=0
6825665 On ch=3 n=35 v=100
6825782 Off ch=3 n=13 v=0
6825875 Off ch=3 n=15 v=0
6825919 Off ch=3 n=35 v=0
6827792 On ch=3 n=9 v=100
6827836 Off ch=3 n=9 v=0
6827844 On ch=3 n=25 v=100
6827935 On ch=3 n=7 v=100
6828034 Off ch=3 n=25 v=0
6828236 Off ch=3 n=7 v=0
6828256 On ch=3 n=7 v=100
6829044 On ch=3 n=7 v=100
6829050 Off ch=3 n=7 v=0
6829468 Off ch=3 n=7 v=0
6829469 On ch=3 n=10 v=100
6829766 Off ch=3 n=10 v=0
6830825 On ch=3 n=19 v=100
6830871 Off ch=3 n=19 v=0
6832342 On ch=3 n=11 v=100
6832492 Off ch=3 n=11 v=0
6832658 On ch=3 n=20 v=100
6832658 On ch=3 n=20 v=100
6832687 On ch=3 n=15 v=100
6832711 On ch=3 n=38 v=100
6833075 Off ch=3 n=15 v=0
6833094 Off ch=3 n=20 v=0
6833094 Off ch=3 n=20 v=0
6833401 Off ch=3 n=38 v=0
6833453 On ch=3 n=10 v=100
6833481 On ch=3 n=11 v=100
6833483 Off ch=3 n=10 v=0
6834004 Off ch=3 n=11 v=0
6836194 On ch=3 n=8 v=100
6836269 On ch=3 n=38 v=100
6836316 Off ch=3 n=8 v=0
6836317 On ch=3 n=5 v=100
6836352 Off ch=3 n=5 v=0
6836356 Off ch=3 n=38 v=0
6836363 On ch=3 n=2 v=100
6836748 Off ch=3 n=2 v=0
6836753 On ch=3 n=2 v=100
6837761 On ch=3 n=15 v=100
6837879 Off ch=3 n=2 v=0
6837970 Off ch=3 n=15 v=0
6838466 On ch=3 n=8 v=100
6838619 Off ch=3 n=8 v=0
6838655 On ch=3 n=10 v=100
6839248 Off ch=3 n=10 v=0
6839250 On ch=3 n=12 v=100
6839481 On ch=3 n=6 v=100
6839484 Off ch=3 n=12 v=0
6839628 Off ch=3 n=6 v=0
6841771 On ch=3 n=11 v=100
6841817 On ch=3 n=6 v=100
6841956 On ch=3 n=38 v=100
6842154 Off ch=3 n=11 v=0
6842159 Off ch=3 n=6 v=0
6842161 On ch=3 n=8 v=100
6842255 Off ch=3 n=38 v=0
6842462 On ch=3 n=24 v=100
6842462 On ch=3 n=24 v=100
6842487 On ch=3 n=8 v=100
6842487 Off ch=3 n=8 v=0
6842502 On ch=3 n=28 v=100
6842605 Off ch=3 n=8 v=0
6842619 Off ch=3 n=24 v=0
6842619 Off ch=3 n=24 v=0
6842652 Off ch=3 n=28 v=0
6843178 On ch=3 n=40 v=100
6843178 On ch=3 n=40 v=100
6843207 On ch=3 n=17 v=100
6843254 On ch=3 n=10 v=100
6843365 Off ch=3 n=17 v=0
6843393 Off ch=3 n=10 v=0
6843418 Off ch=3 n=40 v=0
6843418 Off ch=3 n=40 v=0
6843554 On ch=3 n=9 v=100
6843773 Off ch=3 n=9 v=0
6843794 On ch=3 n=10 v=100
6843879 On ch=3 n=11 v=100
6843880 Off ch=3 n=10 v=0
6844002 Off ch=3 n=11 v=0
6844049 On ch=3 n=39 v=100
6844176 Off ch=3 n=39 v=0
6844346 On ch=3 n=14 v=100
6844682 On ch=3 n=8 v=100
6844746 Off ch=3 n=14 v=0
6844826 Off ch=3 n=8 v=0
6847091 On ch=3 n=7 v=100
6847681 Off ch=3 n=7 v=0
6847806 On ch=3 n=13 v=100
6848442 Off ch=3 n=13 v=0
6848492 On ch=3 n=13 v=100
6848917 Off ch=3 n=13 v=0
6849167 On ch=3 n=56 v=100
6849320 On ch=3 n=11 v=100
6849468 Off ch=3 n=56 v=0
6850313 Off ch=3 n=11 v=0
6851187 On ch=3 n=10 v=100
6851330 Off ch=3 n=10 v=0
6851338 On ch=3 n=8 v=100
6851348 On ch=3 n=3 v=100
6851387 Off ch=3 n=8 v=0
6851391 On ch=3 n=30 v=100
6851534 Off ch=3 n=3 v=0
6851576 On ch=3 n=15 v=100
6851828 On ch=3 n=22 v=100
6851955 Off ch=3 n=30 v=0
6851955 Off ch=3 n=15 v=0
6851957 On ch=3 n=12 v=100
6851958 On ch=3 n=27 v=100
6851958 On ch=3 n=36 v=100
6852034 Off ch=3 n=22 v=0
6852063 Off ch=3 n=12 v=0
6852083 Off ch=3 n=27 v=0
6852092 On ch=3 n=29 v=100
6852105 Off ch=3 n=36 v=0
6852188 Off ch=3 n=29 v=0
6852515 On ch=3 n=18 v=100
6852552 On ch=3 n=26 v=100
6852555 On ch=3 n=15 v=100
6852556 On ch=3 n=17 v=100
6852786 Off ch=3 n=18 v=0
6852911 Off ch=3 n=15 v=0
6852969 Off ch=3 n=17 v=0
6853018 Off ch=3 n=26 v=0
6853048 On ch=3 n=8 v=100
6853085 Off ch=3 n=8 v=0
6853089 On ch=3 n=10 v=100
6853351 Off ch=3 n=10 v=0
6853354 On ch=3 n=14 v=100
6853526 Off ch=3 n=14 v=0
6853597 On ch=3 n=9 v=100
6853602 On ch=3 n=47 v=100
6853639 On ch=3 n=23 v=100
6853759 Off ch=3 n=9 v=0
6853857 Off ch=3 n=47 v=0
6853915 Off ch=3 n=23 v=0
6854697 On ch=3 n=11 v=100
6855161 On ch=3 n=16 v=100
6855173 Off ch=3 n=11 v=0
6855380 On ch=3 n=28 v=100
6855442 Off ch=3 n=16 v=0
6855471 Off ch=3 n=28 v=0
6857630 On ch=3 n=7 v=100
6858742 Off ch=3 n=7 v=0
6858765 On ch=3 n=18 v=100
6859197 On ch=3 n=17 v=100
6859263 Off ch=3 n=18 v=0
6859300 On ch=3 n=36 v=100
6859371 Off ch=3 n=17 v=0
6859466 Off ch=3 n=36 v=0
6860244 On ch=3 n=17 v=100
6860289 On ch=3 n=12 v=100
6860544 Off ch=3 n=12 v=0
6860552 Off ch=3 n=17 v=0
6861275 On ch=3 n=13 v=100
6861491 On ch=3 n=14 v=100
6861491 Off ch=3 n=13 v=0
6861644 Off ch=3 n=14 v=0
6861648 On ch=3 n=16 v=100
6861712 Off ch=3 n=16 v=0
6861899 On ch=3 n=23 v=100
6862188 Off ch=3 n=23 v=0
6862612 On ch=3 n=27 v=100
6862775 On ch=3 n=14 v=100
6862906 Off ch=3 n=27 v=0
6862933 Off ch=3 n=14 v=0
6864082 On ch=3 n=20 v=100
6864157 On ch=3 n=17 v=100
6864339 On ch=3 n=28 v=100
6864588 Off ch=3 n=20 v=0
6864594 Off ch=3 n=17 v=0
6864705 Off ch=3 n=28 v=0
6865657 On ch=3 n=36 v=100
6865732 Off ch=3 n=36 v=0
6865962 On ch=3 n=36 v=100
6866176 On ch=3 n=9 v=100
6866176 On ch=3 n=21 v=100
6866458 Off ch=3 n=36 v=0
6866524 Off ch=3 n=9 v=0
6866721 Off ch=3 n=21 v=0
6867059 On ch=3 n=45 v=100
6867262 On ch=3 n=5 v=100
6867262 On ch=3 n=85 v=100
6867262 Off ch=3 n=45 v=0
6867464 Off ch=3 n=5 v=0
6867493 Off ch=3 n=85 v=0
6869517 On ch=3 n=21 v=100
6869758 Off ch=3 n=21 v=0
6870552 On ch=3 n=26 v=100
6870634 On ch=3 n=21 v=100
6870874 Off ch=3 n=26 v=0
6870874 Off ch=3 n=21 v=0
6870949 On ch=3 n=37 v=100
6870982 On ch=3 n=29 v=100
6870982 On ch=3 n=29 v=100
6871002 On ch=3 n=15 v=100
6871179 Off ch=3 n=15 v=0
6871216 Off ch=3 n=37 v=0
6871216 Off ch=3 n=29 v=0
6871216 Off ch=3 n=29 v=0
6871259 On ch=3 n=29 v=100
6871259 On ch=3 n=37 v=100
6871277 Off ch=3 n=29 v=0
6871311 Off ch=3 n=37 v=0
6872248 On ch=3 n=18 v=100
6872522 On ch=3 n=28 v=100
6872590 Off ch=3 n=18 v=0
6872619 On ch=3 n=21 v=100
6872619 On ch=3 n=21 v=100
6872731 On ch=3 n=15 v=100
6872731 On ch=3 n=12 v=100
6872731 On ch=3 n=15 v=100
6872882 On ch=3 n=28 v=100
6873032 Off ch=3 n=28 v=0
6873057 Off ch=3 n=12 v=0
6873112 Off ch=3 n=15 v=0
6873112 Off ch=3 n=15 v=0
6873125 Off ch=3 n=21 v=0
6873125 Off ch=3 n=21 v=0
6873160 Off ch=3 n=28 v=0
6874141 On ch=3 n=11 v=100
6874205 Off ch=3 n=11 v=0
6874955 On ch=3 n=39 v=100
6875193 Off ch=3 n=39 v=0
6877319 On ch=3 n=14 v=100
6878005 Off ch=3 n=14 v=0
6878472 On ch=3 n=38 v=100
6878496 On ch=3 n=27 v=100
6878640 Off ch=3 n=38 v=0
6878652 On ch=3 n=33 v=100
6878749 Off ch=3 n=27 v=0
6878783 Off ch=3 n=33 v=0
6880659 On ch=3 n=34 v=100
6880883 Off ch=3 n=34 v=0
6881884 On ch=3 n=15 v=100
6882107 Off ch=3 n=15 v=0
6882374 On ch=3 n=28 v=100
6882584 Off ch=3 n=28 v=0
6882656 On ch=3 n=24 v=100
6882696 On ch=3 n=21 v=100
6882716 On ch=3 n=15 v=100
6882717 Off ch=3 n=24 v=0
6882829 Off ch=3 n=21 v=0
6882846 On ch=3 n=18 v=100
6882854 Off ch=3 n=15 v=0
6882862 On ch=3 n=7 v=100
6882920 Off ch=3 n=18 v=0
6883055 On ch=3 n=50 v=100
6883083 On ch=3 n=11 v=100
6883084 Off ch=3 n=7 v=0
6883120 On ch=3 n=24 v=100
6883126 Off ch=3 n=50 v=0
6883128 Off ch=3 n=11 v=0
6883228 Off ch=3 n=24 v=0
6883256 On ch=3 n=16 v=100
6883618 On ch=3 n=28 v=100
6883621 On ch=3 n=15 v=100
6883764 Off ch=3 n=16 v=0
6883816 Off ch=3 n=15 v=0
6883853 Off ch=3 n=28 v=0
6884613 On ch=3 n=23 v=100
6884916 On ch=3 n=19 v=100
6884916 On ch=3 n=19 v=100
6885131 On ch=3 n=22 v=100
6885270 Off ch=3 n=23 v=0
6885336 On ch=3 n=25 v=100
6885402 On ch=3 n=31 v=100
6885402 On ch=3 n=31 v=100
6885568 Off ch=3 n=19 v=0
6885568 Off ch=3 n=19 v=0
6885673 Off ch=3 n=22 v=0
6885810 Off ch=3 n=25 v=0
6886038 Off ch=3 n=31 v=0
6886038 Off ch=3 n=31 v=0
6886231 On ch=3 n=11 v=100
6886758 Off ch=3 n=11 v=0
6886941 On ch=3 n=8 v=100
6887438 Off ch=3 n=8 v=0
6887447 On ch=3 n=13 v=100
6887582 On ch=3 n=14 v=100
6887590 Off ch=3 n=13 v=0
6887687 Off ch=3 n=14 v=0
6887709 On ch=3 n=23 v=100
6887772 Off ch=3 n=23 v=0
6887795 On ch=3 n=8 v=100
6887880 On ch=3 n=12 v=100
6887898 Off ch=3 n=8 v=0
6888107 Off ch=3 n=12 v=0
6888114 On ch=3 n=7 v=100
6888238 On ch=3 n=13 v=100
6888239 Off ch=3 n=7 v=0
6888507 Off ch=3 n=13 v=0
6888508 On ch=3 n=13 v=100
6888728 Off ch=3 n=13 v=0
6890447 On ch=3 n=29 v=100
6890591 Off ch=3 n=29 v=0
6890695 On ch=3 n=6 v=100
6890791 On ch=3 n=32 v=100
6890810 Off ch=3 n=6 v=0
6890811 On ch=3 n=5 v=100
6890957 On ch=3 n=12 v=100
6890958 Off ch=3 n=5 v=0
6890959 Off ch=3 n=32 v=0
6891334 Off ch=3 n=12 v=0
6891420 On ch=3 n=9 v=100
6891662 Off ch=3 n=9 v=0
6892137 On ch=3 n=10 v=100
6892656 Off ch=3 n=10 v=0
6893002 On ch=3 n=5 v=100
6893252 Off ch=3 n=5 v=0
6894741 On ch=3 n=29 v=100
6894820 Off ch=3 n=29 v=0
6894862 On ch=3 n=36 v=100
6894886 On ch=3 n=31 v=100
6894952 Off ch=3 n=36 v=0
6894952 Off ch=3 n=31 v=0
6894963 On ch=3 n=23 v=100
6895512 Off ch=3 n=23 v=0
6895668 On ch=3 n=35 v=100
6895737 On ch=3 n=20 v=100
6895899 On ch=3 n=7 v=100
6895899 Off ch=3 n=35 v=0
6895899 Off ch=3 n=20 v=0
6895980 Off ch=3 n=7 v=0
6901506 On ch=3 n=40 v=100
6901542 On ch=3 n=49 v=100
6901546 On ch=3 n=41 v=100
6901625 Off ch=3 n=40 v=0
6901626 On ch=3 n=8 v=100
6901662 Off ch=3 n=41 v=0
6901970 On ch=3 n=45 v=100
6901972 Off ch=3 n=49 v=0
6901987 On ch=3 n=28 v=100
6901991 Off ch=3 n=8 v=0
6902061 Off ch=3 n=45 v=0
6902120 Off ch=3 n=28 v=0
6902562 On ch=3 n=65 v=100
6902562 On ch=3 n=65 v=100
6902612 On ch=3 n=57 v=100
6902612 On ch=3 n=57 v=100
6902618 On ch=3 n=57 v=100
6902624 On ch=3 n=6 v=100
6902817 Off ch=3 n=6 v=0
6902822 Off ch=3 n=65 v=0
6902822 Off ch=3 n=65 v=0
6902876 Off ch=3 n=57 v=0
6902907 Off ch=3 n=57 v=0
6902907 Off ch=3 n=57 v=0
6904534 On ch=3 n=7 v=100
6904766 Off ch=3 n=7 v=0
6904780 On ch=3 n=14 v=100
6904997 Off ch=3 n=14 v=0
6905467 On ch=3 n=8 v=100
6905567 Off ch=3 n=8 v=0
6905586 On ch=3 n=6 v=100
6905758 Off ch=3 n=6 v=0
6908484 On ch=3 n=12 v=100
6908798 Off ch=3 n=12 v=0
6910894 On ch=3 n=32 v=100
6911048 On ch=3 n=23 v=100
6911153 Off ch=3 n=32 v=0
6911289 On ch=3 n=8 v=100
6911317 Off ch=3 n=23 v=0
6911338 Off ch=3 n=8 v=0
6911360 On ch=3 n=12 v=100
6911454 Off ch=3 n=12 v=0
6911484 On ch=3 n=6 v=100
6911794 On ch=3 n=13 v=100
6912009 Off ch=3 n=6 v=0
6912009 Off ch=3 n=13 v=0
6912048 On ch=3 n=6 v=100
6912048 On ch=3 n=13 v=100
6912089 Off ch=3 n=6 v=0
6912220 On ch=3 n=13 v=100
6912223 Off ch=3 n=13 v=0
6912457 Off ch=3 n=13 v=0
6912467 On ch=3 n=18 v=100
6912723 Off ch=3 n=18 v=0
6914474 On ch=3 n=16 v=100
6914580 On ch=3 n=41 v=100
6914659 Off ch=3 n=16 v=0
6914666 On ch=3 n=17 v=100
6914673 On ch=3 n=44 v=100
6914783 Off ch=3 n=41 v=0
6914785 Off ch=3 n=17 v=0
6914803 Off ch=3 n=44 v=0
6914816 On ch=3 n=25 v=100
6915162 Off ch=3 n=25 v=0
6915212 On ch=3 n=15 v=100
6915534 Off ch=3 n=15 v=0
6915536 On ch=3 n=12 v=100
6915738 On ch=3 n=10 v=100
6915746 Off ch=3 n=12 v=0
6915819 Off ch=3 n=10 v=0
6917765 On ch=3 n=9 v=100
6918030 Off ch=3 n=9 v=0
6931391 On ch=3 n=11 v=100
6931567 On ch=3 n=33 v=100
6931610 Off ch=3 n=11 v=0
6931617 On ch=3 n=13 v=100
6931832 Off ch=3 n=33 v=0
6931861 Off ch=3 n=13 v=0
6932801 On ch=3 n=39 v=100
6932901 Off ch=3 n=39 v=0
6933016 On ch=3 n=10 v=100
6933251 Off ch=3 n=10 v=0
6933894 On ch=3 n=20 v=100
6933911 On ch=3 n=13 v=100
6933981 Off ch=3 n=20 v=0
6933990 Off ch=3 n=13 v=0
6936029 On ch=3 n=33 v=100
6936286 Off ch=3 n=33 v=0
6936355 On ch=3 n=24 v=100
6936494 Off ch=3 n=24 v=0
6937034 On ch=3 n=6 v=100
6938153 Off ch=3 n=6 v=0
6939087 On ch=3 n=12 v=100
6939649 On ch=3 n=23 v=100
6939711 Off ch=3 n=12 v=0
6939713 On ch=3 n=9 v=100
6940054 Off ch=3 n=23 v=0
6940089 Off ch=3 n=9 v=0
6941976 On ch=3 n=11 v=100
6942596 Off ch=3 n=11 v=0
6942657 On ch=3 n=11 v=100
6942952 Off ch=3 n=11 v=0
6943481 On ch=3 n=18 v=100
6943483 On ch=3 n=36 v=100
6943591 Off ch=3 n=18 v=0
6943606 On ch=3 n=16 v=100
6943606 On ch=3 n=16 v=100
6943622 Off ch=3 n=36 v=0
6943626 On ch=3 n=8 v=100
6943628 On ch=3 n=46 v=100
6943724 Off ch=3 n=8 v=0
6943764 Off ch=3 n=16 v=0
6943764 Off ch=3 n=16 v=0
6943876 Off ch=3 n=46 v=0
6943895 On ch=3 n=7 v=100
6944445 On ch=3 n=27 v=100
6944501 Off ch=3 n=7 v=0
6944505 On ch=3 n=25 v=100
6944649 Off ch=3 n=25 v=0
6944653 Off ch=3 n=27 v=0
6945769 On ch=3 n=15 v=100
6946194 Off ch=3 n=15 v=0
6946195 On ch=3 n=9 v=100
6946428 On ch=3 n=11 v=100
6946428 Off ch=3 n=9 v=0
6946464 Off ch=3 n=11 v=0
6946467 On ch=3 n=7 v=100
6946822 On ch=3 n=8 v=100
6946822 Off ch=3 n=7 v=0
6947229 Off ch=3 n=8 v=0
6947236 On ch=3 n=10 v=100
6947236 On ch=3 n=24 v=100
6947415 Off ch=3 n=10 v=0
6947469 On ch=3 n=8 v=100
6947535 Off ch=3 n=24 v=0
6947694 On ch=3 n=6 v=100
6947696 Off ch=3 n=8 v=0
6947887 Off ch=3 n=6 v=0
6948842 On ch=3 n=15 v=100
6949563 Off ch=3 n=15 v=0
6949565 On ch=3 n=14 v=100
6949854 Off ch=3 n=14 v=0
6949862 On ch=3 n=14 v=100
6949971 On ch=3 n=14 v=100
6949973 Off ch=3 n=14 v=0
6950203 Off ch=3 n=14 v=0
6950204 On ch=3 n=11 v=100
6950206 On ch=3 n=39 v=100
6950296 Off ch=3 n=11 v=0
6950397 Off ch=3 n=39 v=0
6951321 On ch=3 n=30 v=100
6951352 On ch=3 n=17 v=100
6951503 Off ch=3 n=30 v=0
6951511 Off ch=3 n=17 v=0
6951515 On ch=3 n=13 v=100
6951928 On ch=3 n=12 v=100
6951928 Off ch=3 n=13 v=0
6952264 Off ch=3 n=12 v=0
6952268 On ch=3 n=14 v=100
6952304 On ch=3 n=24 v=100
6952383 Off ch=3 n=14 v=0
6952405 Off ch=3 n=24 v=0
6953445 On ch=3 n=15 v=100
6953545 Off ch=3 n=15 v=0
6954126 On ch=3 n=19 v=100
6954223 Off ch=3 n=19 v=0
6954424 On ch=3 n=21 v=100
6954531 Off ch=3 n=21 v=0
6955732 On ch=3 n=25 v=100
6955832 On ch=3 n=17 v=100
6955832 On ch=3 n=17 v=100
6955902 On ch=3 n=12 v=100
6956231 Off ch=3 n=25 v=0
6956240 Off ch=3 n=12 v=0
6956262 On ch=3 n=26 v=100
6956304 Off ch=3 n=17 v=0
6956304 Off ch=3 n=17 v=0
6956371 Off ch=3 n=26 v=0
6956795 On ch=3 n=7 v=100
6956906 Off ch=3 n=7 v=0
6956908 On ch=3 n=12 v=100
6957379 Off ch=3 n=12 v=0
6957380 On ch=3 n=6 v=100
6957509 Off ch=3 n=6 v=0
6957511 On ch=3 n=32 v=100
6957639 Off ch=3 n=32 v=0
6957959 On ch=3 n=43 v=100
6958016 On ch=3 n=51 v=100
6958193 Off ch=3 n=43 v=0
6958233 Off ch=3 n=51 v=0
6959357 On ch=3 n=11 v=100
6960191 On ch=3 n=13 v=100
6960192 Off ch=3 n=11 v=0
6960525 Off ch=3 n=13 v=0
6961340 On ch=3 n=8 v=100
6961683 On ch=3 n=5 v=100
6961683 Off ch=3 n=8 v=0
6962014 On ch=3 n=10 v=100
6962014 Off ch=3 n=5 v=0
6962076 Off ch=3 n=10 v=0
6962100 On ch=3 n=8 v=100
6962168 Off ch=3 n=8 v=0
6962185 On ch=3 n=13 v=100
6962339 Off ch=3 n=13 v=0
6963839 On ch=3 n=6 v=100
6964077 Off ch=3 n=6 v=0
6964369 On ch=3 n=13 v=100
6964537 Off ch=3 n=13 v=0
6965444 On ch=3 n=16 v=100
6965597 Off ch=3 n=16 v=0
6965690 On ch=3 n=13 v=100
6966397 On ch=3 n=24 v=100
6966397 Off ch=3 n=13 v=0
6966402 On ch=3 n=16 v=100
6966402 On ch=3 n=26 v=100
6966436 Off ch=3 n=24 v=0
6966506 On ch=3 n=13 v=100
6966510 Off ch=3 n=16 v=0
6966525 Off ch=3 n=26 v=0
6966793 Off ch=3 n=13 v=0
6967266 On ch=3 n=13 v=100
6967632 Off ch=3 n=13 v=0
6968671 On ch=3 n=39 v=100
6968811 On ch=3 n=26 v=100
6968863 Off ch=3 n=39 v=0
6969084 Off ch=3 n=26 v=0
6969327 On ch=3 n=7 v=100
6969732 Off ch=3 n=7 v=0
6971153 On ch=3 n=25 v=100
6971191 On ch=3 n=30 v=100
6971191 On ch=3 n=30 v=100
6971221 On ch=3 n=14 v=100
6971413 Off ch=3 n=14 v=0
6971423 Off ch=3 n=25 v=0
6971484 Off ch=3 n=30 v=0
6971484 Off ch=3 n=30 v=0
6971525 On ch=3 n=37 v=100
6971730 Off ch=3 n=37 v=0
6971796 On ch=3 n=25 v=100
6971926 Off ch=3 n=25 v=0
6972667 On ch=3 n=25 v=100
6972680 On ch=3 n=19 v=100
6972780 Off ch=3 n=25 v=0
6972780 Off ch=3 n=19 v=0
6972795 On ch=3 n=24 v=100
6972991 Off ch=3 n=24 v=0
6973055 On ch=3 n=15 v=100
6973885 Off ch=3 n=15 v=0
6973914 On ch=3 n=32 v=100
6973980 Off ch=3 n=32 v=0
6975726 On ch=3 n=33 v=100
6975942 Off ch=3 n=33 v=0
6976720 On ch=3 n=30 v=100
6976720 On ch=3 n=5 v=100
6977186 Off ch=3 n=5 v=0
6977187 On ch=3 n=10 v=100
6977251 Off ch=3 n=30 v=0
6977580 On ch=3 n=16 v=100
6977584 On ch=3 n=40 v=100
6977589 Off ch=3 n=10 v=0
6977758 Off ch=3 n=16 v=0
6977829 Off ch=3 n=40 v=0
6978354 On ch=3 n=7 v=100
6978369 On ch=3 n=54 v=100
6978458 Off ch=3 n=7 v=0
6978460 On ch=3 n=9 v=100
6978764 Off ch=3 n=54 v=0
6978904 Off ch=3 n=9 v=0
6980318 On ch=3 n=13 v=100
6980325 On ch=3 n=16 v=100
6980483 Off ch=3 n=16 v=0
6980512 Off ch=3 n=13 v=0
6980516 On ch=3 n=11 v=100
6981157 On ch=3 n=22 v=100
6981312 Off ch=3 n=11 v=0
6981315 On ch=3 n=19 v=100
6981337 Off ch=3 n=22 v=0
6981477 Off ch=3 n=19 v=0
6982739 On ch=3 n=20 v=100
6982756 On ch=3 n=8 v=100
6982819 Off ch=3 n=20 v=0
6982819 Off ch=3 n=8 v=0
6983951 On ch=3 n=9 v=100
6984345 Off ch=3 n=9 v=0
6984722 On ch=3 n=32 v=100
6984841 On ch=3 n=37 v=100
6984900 Off ch=3 n=32 v=0
6984900 Off ch=3 n=37 v=0
6984933 On ch=3 n=32 v=100
6984933 On ch=3 n=37 v=100
6984991 Off ch=3 n=32 v=0
6985011 Off ch=3 n=37 v=0
6985053 On ch=3 n=26 v=100
6985053 On ch=3 n=14 v=100
6985150 Off ch=3 n=14 v=0
6985151 On ch=3 n=11 v=100
6985246 Off ch=3 n=26 v=0
6985316 Off ch=3 n=11 v=0
6985319 On ch=3 n=15 v=100
6985470 On ch=3 n=5 v=100
6985495 On ch=3 n=16 v=100
6985498 Off ch=3 n=15 v=0
6985509 Off ch=3 n=5 v=0
6985672 On ch=3 n=19 v=100
6985815 Off ch=3 n=16 v=0
6985851 Off ch=3 n=19 v=0
6986335 On ch=3 n=39 v=100
6986335 On ch=3 n=39 v=100
6986356 On ch=3 n=19 v=100
6986569 Off ch=3 n=19 v=0
6986626 Off ch=3 n=39 v=0
6986626 Off ch=3 n=39 v=0
6987160 On ch=3 n=49 v=100
6987230 On ch=3 n=31 v=100
6987310 Off ch=3 n=49 v=0
6987310 Off ch=3 n=31 v=0
6987369 On ch=3 n=5 v=100
6987378 On ch=3 n=43 v=100
6987522 On ch=3 n=21 v=100
6987576 Off ch=3 n=5 v=0
6987669 Off ch=3 n=43 v=0
6987690 On ch=3 n=43 v=100
6987693 Off ch=3 n=21 v=0
6988083 Off ch=3 n=43 v=0
6989954 On ch=3 n=13 v=100
6991060 Off ch=3 n=13 v=0
6991471 On ch=3 n=30 v=100
6991495 On ch=3 n=18 v=100
6991525 On ch=3 n=20 v=100
6991526 On ch=3 n=14 v=100
6991527 On ch=3 n=11 v=100
6991655 Off ch=3 n=30 v=0
6991655 Off ch=3 n=11 v=0
6991656 Off ch=3 n=18 v=0
6991670 Off ch=3 n=14 v=0
6991695 Off ch=3 n=20 v=0
6992473 On ch=3 n=27 v=100
6992477 On ch=3 n=35 v=100
6992545 Off ch=3 n=27 v=0
6992588 Off ch=3 n=35 v=0
6992686 On ch=3 n=39 v=100
6993035 On ch=3 n=19 v=100
6993117 On ch=3 n=19 v=100
6993156 On ch=3 n=8 v=100
6993355 Off ch=3 n=39 v=0
6993355 Off ch=3 n=19 v=0
6993355 Off ch=3 n=19 v=0
6993355 Off ch=3 n=8 v=0
6993412 On ch=3 n=8 v=100
6993412 On ch=3 n=19 v=100
6993412 On ch=3 n=19 v=100
6993545 Off ch=3 n=8 v=0
6993549 On ch=3 n=10 v=100
6993563 Off ch=3 n=19 v=0
6993611 Off ch=3 n=19 v=0
6993660 Off ch=3 n=10 v=0
6993718 On ch=3 n=19 v=100
6994106 On ch=3 n=11 v=100
6994113 Off ch=3 n=19 v=0
6994156 On ch=3 n=32 v=100
6994305 Off ch=3 n=11 v=0
6994422 On ch=3 n=10 v=100
6994422 On ch=3 n=20 v=100
6994665 Off ch=3 n=32 v=0
6994665 Off ch=3 n=10 v=0
6994743 Off ch=3 n=20 v=0
6996668 On ch=3 n=12 v=100
6996755 Off ch=3 n=12 v=0
6996858 On ch=3 n=12 v=100
6997168 Off ch=3 n=12 v=0
6998434 On ch=3 n=21 v=100
6998818 Off ch=3 n=21 v=0
6998859 On ch=3 n=11 v=100
6999271 Off ch=3 n=11 v=0
6999434 On ch=3 n=9 v=100
6999581 Off ch=3 n=9 v=0
6999584 On ch=3 n=16 v=100
6999776 On ch=3 n=12 v=100
6999776 Off ch=3 n=16 v=0
7000026 Off ch=3 n=12 v=0
7001077 On ch=3 n=11 v=100
7001250 On ch=3 n=8 v=100
7001250 Off ch=3 n=11 v=0
7002135 Off ch=3 n=8 v=0
7002190 On ch=3 n=31 v=100
7002514 On ch=3 n=31 v=100
7002584 Off ch=3 n=31 v=0
7002601 Off ch=3 n=31 v=0
7005639 On ch=3 n=14 v=100
7005819 On ch=3 n=20 v=100
7005821 Off ch=3 n=14 v=0
7005985 Off ch=3 n=20 v=0
7007193 On ch=3 n=18 v=100
7007577 Off ch=3 n=18 v=0
7009980 On ch=3 n=10 v=100
7010498 Off ch=3 n=10 v=0
7010542 On ch=3 n=37 v=100
7010753 Off ch=3 n=37 v=0
7011712 On ch=3 n=42 v=100
7011763 On ch=3 n=30 v=100
7011853 Off ch=3 n=42 v=0
7011876 Off ch=3 n=30 v=0
7012946 On ch=3 n=18 v=100
7013140 Off ch=3 n=18 v=0
7014417 On ch=3 n=15 v=100
7014901 Off ch=3 n=15 v=0
7014908 On ch=3 n=30 v=100
7014947 On ch=3 n=13 v=100
7015005 On ch=3 n=10 v=100
7015051 On ch=3 n=26 v=100
7015175 Off ch=3 n=30 v=0
7015385 Off ch=3 n=13 v=0
7015385 Off ch=3 n=10 v=0
7015385 Off ch=3 n=26 v=0
7015447 On ch=3 n=13 v=100
7015447 On ch=3 n=10 v=100
7015466 Off ch=3 n=13 v=0
7015536 Off ch=3 n=10 v=0
7015583 On ch=3 n=23 v=100
7015583 On ch=3 n=26 v=100
7015597 Off ch=3 n=23 v=0
7015691 Off ch=3 n=26 v=0
7015725 On ch=3 n=26 v=100
7015812 Off ch=3 n=26 v=0
7017893 On ch=3 n=10 v=100
7018535 Off ch=3 n=10 v=0
7019457 On ch=3 n=41 v=100
7019530 Off ch=3 n=41 v=0
7019652 On ch=3 n=21 v=100
7019780 Off ch=3 n=21 v=0
7019798 On ch=3 n=21 v=100
7020051 Off ch=3 n=21 v=0
7021938 On ch=3 n=39 v=100
7021945 On ch=3 n=20 v=100
7022021 On ch=3 n=30 v=100
7022189 Off ch=3 n=20 v=0
7022215 Off ch=3 n=39 v=0
7022245 Off ch=3 n=30 v=0
7023713 On ch=3 n=39 v=100
7023724 On ch=3 n=11 v=100
7023776 Off ch=3 n=39 v=0
7024503 On ch=3 n=11 v=100
7024556 Off ch=3 n=11 v=0
7024701 Off ch=3 n=11 v=0
7024711 On ch=3 n=44 v=100
7024875 Off ch=3 n=44 v=0
7025964 On ch=3 n=47 v=100
7026111 Off ch=3 n=47 v=0
7026619 On ch=3 n=10 v=100
7027281 On ch=3 n=16 v=100
7027339 On ch=3 n=29 v=100
7027343 Off ch=3 n=10 v=0
7027344 On ch=3 n=57 v=100
7027349 On ch=3 n=6 v=100
7027526 Off ch=3 n=6 v=0
7027532 On ch=3 n=11 v=100
7027535 Off ch=3 n=16 v=0
7027578 Off ch=3 n=29 v=0
7027701 Off ch=3 n=11 v=0
7027722 Off ch=3 n=57 v=0
7029154 On ch=3 n=13 v=100
7029343 On ch=3 n=16 v=100
7029486 Off ch=3 n=13 v=0
7029518 Off ch=3 n=16 v=0
7029523 On ch=3 n=18 v=100
7029526 On ch=3 n=24 v=100
7029571 Off ch=3 n=18 v=0
7029579 Off ch=3 n=24 v=0
7032532 On ch=3 n=9 v=100
7032655 Off ch=3 n=9 v=0
7032662 On ch=3 n=6 v=100
7032814 Off ch=3 n=6 v=0
7032824 On ch=3 n=21 v=100
7032981 Off ch=3 n=21 v=0
7034350 On ch=3 n=8 v=100
7034794 Off ch=3 n=8 v=0
7041224 On ch=3 n=40 v=100
7041224 On ch=3 n=40 v=100
7041239 On ch=3 n=33 v=100
7041382 Off ch=3 n=33 v=0
7041419 Off ch=3 n=40 v=0
7041419 Off ch=3 n=40 v=0
7041429 On ch=3 n=21 v=100
7042003 Off ch=3 n=21 v=0
7043610 On ch=3 n=12 v=100
7044921 On ch=3 n=21 v=100
7044958 Off ch=3 n=12 v=0
7044967 Off ch=3 n=21 v=0
7045668 On ch=3 n=32 v=100
7045676 On ch=3 n=39 v=100
7045677 On ch=3 n=19 v=100
7045720 Off ch=3 n=32 v=0
7045722 Off ch=3 n=19 v=0
7045742 Off ch=3 n=39 v=0
7046567 On ch=3 n=17 v=100
7046985 Off ch=3 n=17 v=0
7047320 On ch=3 n=17 v=100
7047405 Off ch=3 n=17 v=0
7047423 On ch=3 n=58 v=100
7047564 Off ch=3 n=58 v=0
7048838 On ch=3 n=14 v=100
7048883 Off ch=3 n=14 v=0
7050538 On ch=3 n=17 v=100
7050647 Off ch=3 n=17 v=0
7051957 On ch=3 n=41 v=100
7052096 On ch=3 n=46 v=100
7052101 On ch=3 n=20 v=100
7052133 Off ch=3 n=41 v=0
7052133 Off ch=3 n=20 v=0
7052152 Off ch=3 n=46 v=0
7055328 On ch=3 n=25 v=100
7055352 On ch=3 n=19 v=100
7055435 Off ch=3 n=25 v=0
7055435 Off ch=3 n=19 v=0
7055547 On ch=3 n=27 v=100
7055674 Off ch=3 n=27 v=0
7055750 On ch=3 n=6 v=100
7055986 Off ch=3 n=6 v=0
7056149 On ch=3 n=14 v=100
7056210 Off ch=3 n=14 v=0
7057475 On ch=3 n=44 v=100
7057475 On ch=3 n=44 v=100
7057663 On ch=3 n=25 v=100
7057672 On ch=3 n=24 v=100
7057746 Off ch=3 n=25 v=0
7057752 On ch=3 n=35 v=100
7057763 Off ch=3 n=44 v=0
7057763 Off ch=3 n=44 v=0
7057914 Off ch=3 n=24 v=0
7057952 Off ch=3 n=35 v=0
7058049 On ch=3 n=10 v=100
7058354 Off ch=3 n=10 v=0
7060211 On ch=3 n=42 v=100
7060244 On ch=3 n=44 v=100
7060252 On ch=3 n=21 v=100
7060441 Off ch=3 n=21 v=0
7060444 On ch=3 n=13 v=100
7060803 On ch=3 n=45 v=100
7060804 On ch=3 n=30 v=100
7060808 On ch=3 n=23 v=100
7060812 On ch=3 n=35 v=100
7060835 Off ch=3 n=42 v=0
7060835 Off ch=3 n=13 v=0
7060841 On ch=3 n=33 v=100
7060920 Off ch=3 n=44 v=0
7060954 Off ch=3 n=23 v=0
7060969 Off ch=3 n=30 v=0
7060993 Off ch=3 n=35 v=0
7060995 Off ch=3 n=33 v=0
7061008 Off ch=3 n=45 v=0
7063117 On ch=3 n=19 v=100
7063125 On ch=3 n=35 v=100
7063129 On ch=3 n=7 v=100
7063227 On ch=3 n=40 v=100
7063321 Off ch=3 n=7 v=0
7063344 Off ch=3 n=19 v=0
7063440 Off ch=3 n=35 v=0
7063556 Off ch=3 n=40 v=0
7065141 On ch=3 n=13 v=100
7065146 On ch=3 n=17 v=100
7065723 Off ch=3 n=13 v=0
7065886 Off ch=3 n=17 v=0
7066486 On ch=3 n=24 v=100
7066770 Off ch=3 n=24 v=0
7066848 On ch=3 n=11 v=100
7066924 Off ch=3 n=11 v=0
7066927 On ch=3 n=8 v=100
7066980 On ch=3 n=40 v=100
7067003 Off ch=3 n=8 v=0
7067064 Off ch=3 n=40 v=0
7067165 On ch=3 n=27 v=100
7067274 Off ch=3 n=27 v=0
7068392 On ch=3 n=3 v=100
7068446 Off ch=3 n=3 v=0
7068476 On ch=3 n=22 v=100
7068644 On ch=3 n=10 v=100
7069137 Off ch=3 n=22 v=0
7069138 Off ch=3 n=10 v=0
7070376 On ch=3 n=36 v=100
7070420 On ch=3 n=26 v=100
7070615 Off ch=3 n=36 v=0
7070639 On ch=3 n=35 v=100
7070715 On ch=3 n=20 v=100
7070715 On ch=3 n=25 v=100
7070717 Off ch=3 n=26 v=0
7070926 On ch=3 n=19 v=100
7070929 Off ch=3 n=20 v=0
7070935 Off ch=3 n=35 v=0
7070957 Off ch=3 n=25 v=0
7071222 Off ch=3 n=19 v=0
7071352 On ch=3 n=4 v=100
7071961 Off ch=3 n=4 v=0
7072039 On ch=3 n=4 v=100
7073728 On ch=3 n=59 v=100
7073792 Off ch=3 n=4 v=0
7074012 Off ch=3 n=59 v=0
7074433 On ch=3 n=20 v=100
7074533 Off ch=3 n=20 v=0
7074552 On ch=3 n=7 v=100
7074968 Off ch=3 n=7 v=0
7074971 On ch=3 n=11 v=100
7075027 Off ch=3 n=11 v=0
7075028 On ch=3 n=4 v=100
7075051 On ch=3 n=14 v=100
7075082 Off ch=3 n=4 v=0
7075584 Off ch=3 n=14 v=0
7075627 On ch=3 n=37 v=100
7075837 On ch=3 n=29 v=100
7075863 On ch=3 n=54 v=100
7075973 Off ch=3 n=37 v=0
7075973 Off ch=3 n=29 v=0
7075998 On ch=3 n=45 v=100
7076062 On ch=3 n=34 v=100
7076195 Off ch=3 n=54 v=0
7076195 Off ch=3 n=34 v=0
7076196 Off ch=3 n=45 v=0
7076450 On ch=3 n=45 v=100
7076471 On ch=3 n=24 v=100
7076564 Off ch=3 n=45 v=0
7076569 Off ch=3 n=24 v=0
7077612 On ch=3 n=13 v=100
7077860 Off ch=3 n=13 v=0
7077868 On ch=3 n=15 v=100
7078132 Off ch=3 n=15 v=0
7079023 On ch=3 n=28 v=100
7079479 Off ch=3 n=28 v=0
7079669 On ch=3 n=23 v=100
7079737 On ch=3 n=18 v=100
7080203 Off ch=3 n=23 v=0
7080204 Off ch=3 n=18 v=0
7080506 On ch=3 n=27 v=100
7080559 On ch=3 n=8 v=100
7080684 Off ch=3 n=27 v=0
7081127 Off ch=3 n=8 v=0
7084065 On ch=3 n=13 v=100
7085019 On ch=3 n=28 v=100
7085029 Off ch=3 n=13 v=0
7085088 On ch=3 n=34 v=100
7085088 On ch=3 n=34 v=100
7085099 On ch=3 n=18 v=100
7085404 Off ch=3 n=28 v=0
7085404 Off ch=3 n=18 v=0
7085467 Off ch=3 n=34 v=0
7085467 Off ch=3 n=34 v=0
7086225 On ch=3 n=15 v=100
7086284 Off ch=3 n=15 v=0
7086294 On ch=3 n=15 v=100
7086614 Off ch=3 n=15 v=0
7087393 On ch=3 n=30 v=100
7087396 On ch=3 n=42 v=100
7087443 On ch=3 n=25 v=100
7087468 On ch=3 n=25 v=100
7087560 On ch=3 n=29 v=100
7087567 Off ch=3 n=30 v=0
7087587 Off ch=3 n=25 v=0
7087639 On ch=3 n=17 v=100
7087639 On ch=3 n=26 v=100
7087665 Off ch=3 n=42 v=0
7087668 Off ch=3 n=25 v=0
7087917 Off ch=3 n=29 v=0
7087947 Off ch=3 n=17 v=0
7088026 Off ch=3 n=26 v=0
7088075 On ch=3 n=12 v=100
7088705 Off ch=3 n=12 v=0
7088707 On ch=3 n=29 v=100
7088764 Off ch=3 n=29 v=0
7088776 On ch=3 n=30 v=100
7088811 On ch=3 n=21 v=100
7089010 Off ch=3 n=30 v=0
7089030 On ch=3 n=34 v=100
7089031 Off ch=3 n=21 v=0
7089207 On ch=3 n=18 v=100
7089254 Off ch=3 n=34 v=0
7089333 Off ch=3 n=18 v=0
7089472 On ch=3 n=14 v=100
7089472 On ch=3 n=26 v=100
7089472 On ch=3 n=43 v=100
7089472 On ch=3 n=54 v=100
7089552 On ch=3 n=33 v=100
7089555 Off ch=3 n=14 v=0
7089556 On ch=3 n=22 v=100
7089613 Off ch=3 n=26 v=0
7089633 Off ch=3 n=22 v=0
7089645 Off ch=3 n=33 v=0
7089687 Off ch=3 n=43 v=0
7089733 Off ch=3 n=54 v=0
7091182 On ch=3 n=4 v=100
7091248 On ch=3 n=3 v=100
7091255 Off ch=3 n=4 v=0
7092377 Off ch=3 n=3 v=0
7092378 On ch=3 n=2 v=100
7094107 On ch=3 n=10 v=100
7094113 Off ch=3 n=2 v=0
7094145 Off ch=3 n=10 v=0
7094291 On ch=3 n=16 v=100
7094304 On ch=3 n=11 v=100
7094337 Off ch=3 n=16 v=0
7094657 On ch=3 n=30 v=100
7094802 Off ch=3 n=11 v=0
7094821 Off ch=3 n=30 v=0
7094864 On ch=3 n=10 v=100
7095087 Off ch=3 n=10 v=0
7095094 On ch=3 n=10 v=100
7095282 On ch=3 n=8 v=100
7095283 Off ch=3 n=10 v=0
7096524 Off ch=3 n=8 v=0
7097560 On ch=3 n=28 v=100
7097809 Off ch=3 n=28 v=0
7097854 On ch=3 n=10 v=100
7097868 On ch=3 n=42 v=100
7098101 Off ch=3 n=10 v=0
7098176 Off ch=3 n=42 v=0
7098566 On ch=3 n=28 v=100
7098657 Off ch=3 n=28 v=0
7098758 On ch=3 n=11 v=100
7099016 Off ch=3 n=11 v=0
7099534 On ch=3 n=16 v=100
7099767 Off ch=3 n=16 v=0
7099803 On ch=3 n=18 v=100
7100021 Off ch=3 n=18 v=0
7103489 On ch=3 n=13 v=100
7103696 Off ch=3 n=13 v=0
7104203 On ch=3 n=15 v=100
7104375 On ch=3 n=53 v=100
7104411 On ch=3 n=39 v=100
7104435 Off ch=3 n=15 v=0
7104441 On ch=3 n=37 v=100
7104542 Off ch=3 n=53 v=0
7104542 Off ch=3 n=39 v=0
7104545 Off ch=3 n=37 v=0
7104712 On ch=3 n=28 v=100
7104798 Off ch=3 n=28 v=0
7105115 On ch=3 n=18 v=100
7105333 Off ch=3 n=18 v=0
7105704 On ch=3 n=23 v=100
7105720 On ch=3 n=37 v=100
7105836 Off ch=3 n=23 v=0
7106241 Off ch=3 n=37 v=0
7106454 On ch=3 n=18 v=100
7106454 On ch=3 n=18 v=100
7106471 On ch=3 n=11 v=100
7106992 Off ch=3 n=11 v=0
7107065 Off ch=3 n=18 v=0
7107065 Off ch=3 n=18 v=0
7107066 On ch=3 n=13 v=100
7107066 On ch=3 n=21 v=100
7107319 Off ch=3 n=13 v=0
7107405 Off ch=3 n=21 v=0
7108410 On ch=3 n=7 v=100
7108537 On ch=3 n=8 v=100
7108540 Off ch=3 n=7 v=0
7108773 On ch=3 n=10 v=100
7108774 Off ch=3 n=8 v=0
7108892 Off ch=3 n=10 v=0
7108906 On ch=3 n=12 v=100
7109103 Off ch=3 n=12 v=0
7109148 On ch=3 n=18 v=100
7109149 On ch=3 n=24 v=100
7109373 Off ch=3 n=18 v=0
7109411 Off ch=3 n=24 v=0
7109770 On ch=3 n=12 v=100
7109913 On ch=3 n=6 v=100
7109913 Off ch=3 n=12 v=0
7110362 Off ch=3 n=6 v=0
7110366 On ch=3 n=10 v=100
7110990 Off ch=3 n=10 v=0
7110994 On ch=3 n=10 v=100
7111027 On ch=3 n=13 v=100
7111269 Off ch=3 n=10 v=0
7111269 Off ch=3 n=13 v=0
7111353 On ch=3 n=13 v=100
7111795 Off ch=3 n=13 v=0
7111803 On ch=3 n=26 v=100
7111934 Off ch=3 n=26 v=0
7111964 On ch=3 n=29 v=100
7111999 On ch=3 n=20 v=100
7112153 On ch=3 n=15 v=100
7112289 Off ch=3 n=29 v=0
7112484 Off ch=3 n=20 v=0
7112551 Off ch=3 n=15 v=0
7113973 On ch=3 n=6 v=100
7114606 Off ch=3 n=6 v=0
7117118 On ch=3 n=28 v=100
7117118 On ch=3 n=28 v=100
7117132 On ch=3 n=9 v=100
7117443 Off ch=3 n=9 v=0
7117466 Off ch=3 n=28 v=0
7117466 Off ch=3 n=28 v=0
7118370 On ch=3 n=3 v=100
7118430 On ch=3 n=48 v=100
7118430 On ch=3 n=48 v=100
7118815 Off ch=3 n=3 v=0
7118877 On ch=3 n=14 v=100
7118877 On ch=3 n=14 v=100
7118911 On ch=3 n=10 v=100
7118972 On ch=3 n=34 v=100
7119198 Off ch=3 n=10 v=0
7119199 Off ch=3 n=48 v=0
7119199 Off ch=3 n=48 v=0
7119245 Off ch=3 n=14 v=0
7119245 Off ch=3 n=14 v=0
7119361 Off ch=3 n=34 v=0
7119394 On ch=3 n=34 v=100
7119553 Off ch=3 n=34 v=0
7119880 On ch=3 n=42 v=100
7119938 Off ch=3 n=42 v=0
7120024 On ch=3 n=8 v=100
7120025 On ch=3 n=42 v=100
7120135 Off ch=3 n=42 v=0
7120137 On ch=3 n=5 v=100
7120138 Off ch=3 n=8 v=0
7120587 Off ch=3 n=5 v=0
7120757 On ch=3 n=9 v=100
7120944 Off ch=3 n=9 v=0
7121978 On ch=3 n=6 v=100
7122200 On ch=3 n=38 v=100
7122217 On ch=3 n=47 v=100
7122435 Off ch=3 n=6 v=0
7122450 On ch=3 n=46 v=100
7122462 Off ch=3 n=47 v=0
7122490 Off ch=3 n=38 v=0
7122560 Off ch=3 n=46 v=0
7122988 On ch=3 n=27 v=100
7123037 On ch=3 n=22 v=100
7123114 Off ch=3 n=27 v=0
7123133 Off ch=3 n=22 v=0
7123390 On ch=3 n=23 v=100
7123595 Off ch=3 n=23 v=0
7124195 On ch=3 n=7 v=100
7124452 Off ch=3 n=7 v=0
7124466 On ch=3 n=12 v=100
7124554 On ch=3 n=6 v=100
7124554 Off ch=3 n=12 v=0
7125197 Off ch=3 n=6 v=0
7125206 On ch=3 n=12 v=100
7125763 Off ch=3 n=12 v=0
7127153 On ch=3 n=24 v=100
7127196 On ch=3 n=19 v=100
7127413 Off ch=3 n=24 v=0
7127413 Off ch=3 n=19 v=0
7128395 On ch=3 n=15 v=100
7128479 On ch=3 n=12 v=100
7128844 Off ch=3 n=15 v=0
7128844 Off ch=3 n=12 v=0
7128889 On ch=3 n=12 v=100
7128958 Off ch=3 n=12 v=0
7129477 On ch=3 n=46 v=100
7129499 On ch=3 n=32 v=100
7129632 Off ch=3 n=46 v=0
7129632 Off ch=3 n=32 v=0
7130228 On ch=3 n=14 v=100
7130294 Off ch=3 n=14 v=0
7130420 On ch=3 n=19 v=100
7130585 Off ch=3 n=19 v=0
7132188 On ch=3 n=18 v=100
7132381 Off ch=3 n=18 v=0
7132907 On ch=3 n=37 v=100
7132987 On ch=3 n=12 v=100
7133033 Off ch=3 n=37 v=0
7133564 Off ch=3 n=12 v=0
7133570 On ch=3 n=28 v=100
7133586 On ch=3 n=10 v=100
7133716 Off ch=3 n=28 v=0
7133727 On ch=3 n=14 v=100
7134506 Off ch=3 n=10 v=0
7134531 On ch=3 n=26 v=100
7134624 Off ch=3 n=14 v=0
7134658 Off ch=3 n=26 v=0
7136019 On ch=3 n=11 v=100
7136207 Off ch=3 n=11 v=0
7136468 On ch=3 n=14 v=100
7136691 Off ch=3 n=14 v=0
7137492 On ch=3 n=10 v=100
7137501 On ch=3 n=20 v=100
7137840 Off ch=3 n=10 v=0
7138158 Off ch=3 n=20 v=0
7138488 On ch=3 n=3 v=100
7139736 Off ch=3 n=3 v=0
7140924 On ch=3 n=22 v=100
7141007 Off ch=3 n=22 v=0
7141087 On ch=3 n=11 v=100
7141406 Off ch=3 n=11 v=0
7141569 On ch=3 n=13 v=100
7142768 Off ch=3 n=13 v=0
7143846 On ch=3 n=1 v=100
7144617 Off ch=3 n=1 v=0
7145364 On ch=3 n=25 v=100
7145364 On ch=3 n=26 v=100
7145364 On ch=3 n=35 v=100
7145488 Off ch=3 n=25 v=0
7145522 Off ch=3 n=26 v=0
7145585 Off ch=3 n=35 v=0
7145797 On ch=3 n=8 v=100
7145874 Off ch=3 n=8 v=0
7145878 On ch=3 n=15 v=100
7145962 Off ch=3 n=15 v=0
7146001 On ch=3 n=15 v=100
7146409 On ch=3 n=12 v=100
7146412 Off ch=3 n=15 v=0
7146666 On ch=3 n=10 v=100
7146667 Off ch=3 n=12 v=0
7147359 On ch=3 n=2 v=100
7147360 Off ch=3 n=10 v=0
7148280 On ch=3 n=11 v=100
7148283 Off ch=3 n=2 v=0
7148558 On ch=3 n=15 v=100
7148558 Off ch=3 n=11 v=0
7148688 On ch=3 n=15 v=100
7148691 Off ch=3 n=15 v=0
7148846 Off ch=3 n=15 v=0
7150365 On ch=3 n=10 v=100
7150660 Off ch=3 n=10 v=0
7150817 On ch=3 n=21 v=100
7151002 On ch=3 n=40 v=100
7151106 On ch=3 n=24 v=100
7151138 Off ch=3 n=21 v=0
7151350 Off ch=3 n=40 v=0
7151383 On ch=3 n=8 v=100
7151386 Off ch=3 n=24 v=0
7151792 Off ch=3 n=8 v=0
7151962 On ch=3 n=13 v=100
7152665 Off ch=3 n=13 v=0
7152676 On ch=3 n=35 v=100
7153170 Off ch=3 n=35 v=0
7154147 On ch=3 n=33 v=100
7154285 Off ch=3 n=33 v=0
7154342 On ch=3 n=12 v=100
7154521 Off ch=3 n=12 v=0
7154654 On ch=3 n=26 v=100
7155269 On ch=3 n=10 v=100
7155280 Off ch=3 n=26 v=0
7155394 On ch=3 n=1 v=100
7155407 Off ch=3 n=10 v=0
7156153 On ch=3 n=37 v=100
7156165 Off ch=3 n=1 v=0
7156171 On ch=3 n=10 v=100
7156229 Off ch=3 n=37 v=0
7156305 On ch=3 n=16 v=100
7156305 Off ch=3 n=10 v=0
7156576 On ch=3 n=5 v=100
7156591 Off ch=3 n=16 v=0
7156633 Off ch=3 n=5 v=0
7156765 On ch=3 n=20 v=100
7156907 Off ch=3 n=20 v=0
7157059 On ch=3 n=21 v=100
7157106 Off ch=3 n=21 v=0
7157253 On ch=3 n=36 v=100
7157413 On ch=3 n=32 v=100
7157449 Off ch=3 n=36 v=0
7157527 On ch=3 n=42 v=100
7157527 On ch=3 n=42 v=100
7157533 Off ch=3 n=32 v=0
7157545 On ch=3 n=25 v=100
7157590 Off ch=3 n=25 v=0
7157656 Off ch=3 n=42 v=0
7157656 Off ch=3 n=42 v=0
7158425 On ch=3 n=32 v=100
7158628 On ch=3 n=8 v=100
7158848 Off ch=3 n=32 v=0
7158864 Off ch=3 n=8 v=0
7159020 On ch=3 n=20 v=100
7159049 On ch=3 n=18 v=100
7159252 Off ch=3 n=18 v=0
7159256 Off ch=3 n=20 v=0
7160737 On ch=3 n=16 v=100
7160788 On ch=3 n=41 v=100
7160865 On ch=3 n=22 v=100
7160879 On ch=3 n=12 v=100
7160890 Off ch=3 n=16 v=0
7160951 Off ch=3 n=22 v=0
7160951 Off ch=3 n=12 v=0
7160952 Off ch=3 n=41 v=0
7160958 On ch=3 n=5 v=100
7161047 Off ch=3 n=5 v=0
7161738 On ch=3 n=17 v=100
7161739 On ch=3 n=8 v=100
7161791 On ch=3 n=10 v=100
7161842 Off ch=3 n=8 v=0
7161870 Off ch=3 n=17 v=0
7162353 On ch=3 n=9 v=100
7162355 Off ch=3 n=10 v=0
7162431 Off ch=3 n=9 v=0
7162433 On ch=3 n=7 v=100
7163132 Off ch=3 n=7 v=0
7164273 On ch=3 n=8 v=100
7164835 Off ch=3 n=8 v=0
7165565 On ch=3 n=30 v=100
7165576 On ch=3 n=25 v=100
7165652 Off ch=3 n=30 v=0
7165686 Off ch=3 n=25 v=0
7166003 On ch=3 n=34 v=100
7166093 Off ch=3 n=34 v=0
7166105 On ch=3 n=29 v=100
7166192 Off ch=3 n=29 v=0
7166225 On ch=3 n=9 v=100
7166547 Off ch=3 n=9 v=0
7166641 On ch=3 n=8 v=100
7166775 Off ch=3 n=8 v=0
7166858 On ch=3 n=33 v=100
7166938 Off ch=3 n=33 v=0
7167012 On ch=3 n=29 v=100
7167149 Off ch=3 n=29 v=0
7167194 On ch=3 n=34 v=100
7167274 Off ch=3 n=34 v=0
7167293 On ch=3 n=35 v=100
7167296 On ch=3 n=35 v=100
7167393 Off ch=3 n=35 v=0
7167395 On ch=3 n=22 v=100
7167406 Off ch=3 n=35 v=0
7167652 Off ch=3 n=22 v=0
7168162 On ch=3 n=6 v=100
7168406 Off ch=3 n=6 v=0
7168410 On ch=3 n=5 v=100
7168659 Off ch=3 n=5 v=0
7168721 On ch=3 n=30 v=100
7168866 Off ch=3 n=30 v=0
7169638 On ch=3 n=39 v=100
7169823 Off ch=3 n=39 v=0
7169906 On ch=3 n=39 v=100
7170184 Off ch=3 n=39 v=0
7170186 On ch=3 n=7 v=100
7170318 On ch=3 n=29 v=100
7170494 On ch=3 n=14 v=100
7170589 On ch=3 n=16 v=100
7170606 Off ch=3 n=7 v=0
7170908 Off ch=3 n=29 v=0
7170929 Off ch=3 n=14 v=0
7170932 On ch=3 n=9 v=100
7171048 Off ch=3 n=16 v=0
7171421 Off ch=3 n=9 v=0
7171723 On ch=3 n=23 v=100
7171854 On ch=3 n=40 v=100
7171854 On ch=3 n=40 v=100
7171879 On ch=3 n=24 v=100
7171879 On ch=3 n=24 v=100
7171882 On ch=3 n=32 v=100
7171882 On ch=3 n=32 v=100
7171902 On ch=3 n=15 v=100
7171935 On ch=3 n=9 v=100
7171935 Off ch=3 n=23 v=0
7172028 Off ch=3 n=40 v=0
7172028 Off ch=3 n=40 v=0
7172311 Off ch=3 n=9 v=0
7172330 Off ch=3 n=15 v=0
7172384 On ch=3 n=26 v=100
7172398 Off ch=3 n=24 v=0
7172398 Off ch=3 n=24 v=0
7172573 Off ch=3 n=32 v=0
7172573 Off ch=3 n=32 v=0
7172608 Off ch=3 n=26 v=0
7173850 On ch=3 n=27 v=100
7173959 Off ch=3 n=27 v=0
7173961 On ch=3 n=40 v=100
7174291 On ch=3 n=9 v=100
7174494 Off ch=3 n=40 v=0
7174580 On ch=3 n=9 v=100
7174584 Off ch=3 n=9 v=0
7174882 On ch=3 n=21 v=100
7175013 Off ch=3 n=9 v=0
7175014 On ch=3 n=16 v=100
7175053 Off ch=3 n=21 v=0
7175186 On ch=3 n=19 v=100
7175205 Off ch=3 n=16 v=0
7175332 Off ch=3 n=19 v=0
7175647 On ch=3 n=9 v=100
7176334 Off ch=3 n=9 v=0
7176336 On ch=3 n=6 v=100
7176832 Off ch=3 n=6 v=0
7176833 On ch=3 n=9 v=100
7176995 Off ch=3 n=9 v=0
7178424 On ch=3 n=20 v=100
7178712 Off ch=3 n=20 v=0
7179278 On ch=3 n=35 v=100
7179407 Off ch=3 n=35 v=0
7180385 On ch=3 n=5 v=100
7182128 Off ch=3 n=5 v=0
7182282 On ch=3 n=4 v=100
7182328 Off ch=3 n=4 v=0
7183715 On ch=3 n=23 v=100
7183716 On ch=3 n=20 v=100
7183889 Off ch=3 n=20 v=0
7183911 On ch=3 n=16 v=100
7183915 Off ch=3 n=23 v=0
7183944 Off ch=3 n=16 v=0
7183946 On ch=3 n=11 v=100
7184110 On ch=3 n=30 v=100
7184178 Off ch=3 n=11 v=0
7184178 Off ch=3 n=30 v=0
7184229 On ch=3 n=11 v=100
7184229 On ch=3 n=30 v=100
7184366 Off ch=3 n=11 v=0
7184448 On ch=3 n=10 v=100
7184460 Off ch=3 n=30 v=0
7185070 Off ch=3 n=10 v=0
7185150 On ch=3 n=14 v=100
7185460 Off ch=3 n=14 v=0
7185632 On ch=3 n=5 v=100
7186357 Off ch=3 n=5 v=0
7187405 On ch=3 n=11 v=100
7187853 Off ch=3 n=11 v=0
7187854 On ch=3 n=11 v=100
7188249 Off ch=3 n=11 v=0
7188250 On ch=3 n=3 v=100
7188441 On ch=3 n=40 v=100
7188538 Off ch=3 n=3 v=0
7188539 On ch=3 n=13 v=100
7188643 Off ch=3 n=13 v=0
7188648 Off ch=3 n=40 v=0
7188764 On ch=3 n=34 v=100
7188863 Off ch=3 n=34 v=0
7188864 On ch=3 n=21 v=100
7188986 Off ch=3 n=21 v=0
7189128 On ch=3 n=44 v=100
7189232 On ch=3 n=26 v=100
7189358 Off ch=3 n=44 v=0
7189362 Off ch=3 n=26 v=0
7189393 On ch=3 n=32 v=100
7189460 Off ch=3 n=32 v=0
7189899 On ch=3 n=38 v=100
7189974 Off ch=3 n=38 v=0
7190098 On ch=3 n=18 v=100
7190179 Off ch=3 n=18 v=0
7190530 On ch=3 n=23 v=100
7190535 On ch=3 n=33 v=100
7190593 Off ch=3 n=23 v=0
7190607 Off ch=3 n=33 v=0
7190608 On ch=3 n=8 v=100
7190744 On ch=3 n=56 v=100
7191081 Off ch=3 n=8 v=0
7191084 On ch=3 n=7 v=100
7191689 Off ch=3 n=56 v=0
7191695 Off ch=3 n=7 v=0
7192462 On ch=3 n=20 v=100
7192848 Off ch=3 n=20 v=0
7192971 On ch=3 n=17 v=100
7193046 Off ch=3 n=17 v=0
7193104 On ch=3 n=12 v=100
7193293 Off ch=3 n=12 v=0
7194029 On ch=3 n=23 v=100
7194068 Off ch=3 n=23 v=0
7194188 On ch=3 n=19 v=100
7194382 Off ch=3 n=19 v=0
7194446 On ch=3 n=38 v=100
7194623 Off ch=3 n=38 v=0
7195138 On ch=3 n=6 v=100
7195194 On ch=3 n=11 v=100
7195196 Off ch=3 n=6 v=0
7195588 Off ch=3 n=11 v=0
7195741 On ch=3 n=23 v=100
7195792 Off ch=3 n=23 v=0
7195849 On ch=3 n=23 v=100
7195953 Off ch=3 n=23 v=0
7196745 On ch=3 n=11 v=100
7196906 On ch=3 n=18 v=100
7197107 Off ch=3 n=11 v=0
7197156 Off ch=3 n=18 v=0
7197620 On ch=3 n=16 v=100
7197641 On ch=3 n=5 v=100
7197641 On ch=3 n=40 v=100
7197641 On ch=3 n=40 v=100
7197674 Off ch=3 n=16 v=0
7197674 Off ch=3 n=5 v=0
7197803 On ch=3 n=30 v=100
7197865 Off ch=3 n=30 v=0
7197909 Off ch=3 n=40 v=0
7197909 Off ch=3 n=40 v=0
7197938 On ch=3 n=10 v=100
7198560 Off ch=3 n=10 v=0
7198737 On ch=3 n=22 v=100
7198804 On ch=3 n=21 v=100
7198811 On ch=3 n=15 v=100
7199090 Off ch=3 n=15 v=0
7199091 Off ch=3 n=22 v=0
7199169 Off ch=3 n=21 v=0
7199340 On ch=3 n=12 v=100
7199343 On ch=3 n=17 v=100
7199490 On ch=3 n=46 v=100
7199490 On ch=3 n=46 v=100
7199529 Off ch=3 n=12 v=0
7199555 On ch=3 n=33 v=100
7199555 On ch=3 n=37 v=100
7199555 On ch=3 n=33 v=100
7199558 Off ch=3 n=17 v=0
7199824 Off ch=3 n=37 v=0
7199829 Off ch=3 n=46 v=0
7199829 Off ch=3 n=46 v=0
7199859 Off ch=3 n=33 v=0
7199859 Off ch=3 n=33 v=0
7201483 On ch=3 n=9 v=100
7201872 Off ch=3 n=9 v=0
7202815 On ch=3 n=28 v=100
7203026 Off ch=3 n=28 v=0
7203047 On ch=3 n=7 v=100
7203429 Off ch=3 n=7 v=0
7203558 On ch=3 n=14 v=100
7203617 On ch=3 n=12 v=100
7204013 Off ch=3 n=14 v=0
7204024 On ch=3 n=9 v=100
7204024 On ch=3 n=16 v=100
7204028 Off ch=3 n=12 v=0
7204192 Off ch=3 n=9 v=0
7204209 Off ch=3 n=16 v=0
7206046 On ch=3 n=23 v=100
7206246 Off ch=3 n=23 v=0
7206250 On ch=3 n=13 v=100
7206729 On ch=3 n=20 v=100
7206745 Off ch=3 n=13 v=0
7206871 Off ch=3 n=20 v=0
7206892 On ch=3 n=8 v=100
7206965 Off ch=3 n=8 v=0
7206967 On ch=3 n=5 v=100
7207423 Off ch=3 n=5 v=0
7207703 On ch=3 n=34 v=100
7207778 On ch=3 n=21 v=100
7207819 On ch=3 n=39 v=100
7207950 Off ch=3 n=34 v=0
7207954 On ch=3 n=10 v=100
7207959 Off ch=3 n=21 v=0
7208001 Off ch=3 n=39 v=0
7208559 On ch=3 n=17 v=100
7208559 Off ch=3 n=10 v=0
7208617 On ch=3 n=8 v=100
7208617 Off ch=3 n=17 v=0
7208717 On ch=3 n=35 v=100
7208717 On ch=3 n=35 v=100
7208752 Off ch=3 n=8 v=0
7208755 On ch=3 n=23 v=100
7208755 On ch=3 n=34 v=100
7208833 Off ch=3 n=23 v=0
7208860 Off ch=3 n=34 v=0
7208901 Off ch=3 n=35 v=0
7208901 Off ch=3 n=35 v=0
7209217 On ch=3 n=29 v=100
7209351 Off ch=3 n=29 v=0
7209686 On ch=3 n=34 v=100
7210114 Off ch=3 n=34 v=0
7210249 On ch=3 n=12 v=100
7211380 Off ch=3 n=12 v=0
7211382 On ch=3 n=22 v=100
7211602 Off ch=3 n=22 v=0
7214135 On ch=3 n=29 v=100
7214230 Off ch=3 n=29 v=0
7214323 On ch=3 n=29 v=100
7214332 Off ch=3 n=29 v=0
7216033 On ch=3 n=17 v=100
7216141 Off ch=3 n=17 v=0
7216769 On ch=3 n=40 v=100
7216947 On ch=3 n=10 v=100
7216988 Off ch=3 n=40 v=0
7217193 Off ch=3 n=10 v=0
7217203 On ch=3 n=27 v=100
7217236 On ch=3 n=9 v=100
7217263 Off ch=3 n=27 v=0
7217984 Off ch=3 n=9 v=0
7218134 On ch=3 n=9 v=100
7218275 Off ch=3 n=9 v=0
7218280 On ch=3 n=22 v=100
7218510 On ch=3 n=34 v=100
7218532 Off ch=3 n=22 v=0
7218696 On ch=3 n=15 v=100
7218763 On ch=3 n=19 v=100
7218826 On ch=3 n=14 v=100
7219117 On ch=3 n=43 v=100
7219168 Off ch=3 n=15 v=0
7219189 Off ch=3 n=34 v=0
7219236 Off ch=3 n=19 v=0
7219236 Off ch=3 n=14 v=0
7219278 Off ch=3 n=43 v=0
7219752 On ch=3 n=28 v=100
7219944 Off ch=3 n=28 v=0
7220011 On ch=3 n=29 v=100
7220171 Off ch=3 n=29 v=0
7220179 On ch=3 n=29 v=100
7220383 On ch=3 n=19 v=100
7220385 Off ch=3 n=29 v=0
7220536 On ch=3 n=26 v=100
7220583 Off ch=3 n=19 v=0
7220586 On ch=3 n=12 v=100
7220586 On ch=3 n=18 v=100
7220586 On ch=3 n=24 v=100
7220864 Off ch=3 n=26 v=0
7220865 Off ch=3 n=12 v=0
7220866 On ch=3 n=16 v=100
7220867 On ch=3 n=32 v=100
7220912 Off ch=3 n=18 v=0
7221083 Off ch=3 n=24 v=0
7221127 Off ch=3 n=16 v=0
7221159 Off ch=3 n=32 v=0
7221171 On ch=3 n=19 v=100
7221293 Off ch=3 n=19 v=0
7221495 On ch=3 n=12 v=100
7221553 Off ch=3 n=12 v=0
7221663 On ch=3 n=12 v=100
7221672 Off ch=3 n=12 v=0
7222066 On ch=3 n=48 v=100
7222373 Off ch=3 n=48 v=0
7222588 On ch=3 n=7 v=100
7222992 Off ch=3 n=7 v=0
7223026 On ch=3 n=17 v=100
7223076 Off ch=3 n=17 v=0
7223578 On ch=3 n=26 v=100
7223882 Off ch=3 n=26 v=0
7224340 On ch=3 n=30 v=100
7224482 On ch=3 n=13 v=100
7224870 Off ch=3 n=13 v=0
7224890 Off ch=3 n=30 v=0
7224899 On ch=3 n=6 v=100
7225011 Off ch=3 n=6 v=0
7226121 On ch=3 n=28 v=100
7226121 On ch=3 n=28 v=100
7226153 On ch=3 n=13 v=100
7226326 Off ch=3 n=13 v=0
7226372 Off ch=3 n=28 v=0
7226372 Off ch=3 n=28 v=0
7226556 On ch=3 n=17 v=100
7226564 On ch=3 n=28 v=100
7226568 On ch=3 n=10 v=100
7226773 Off ch=3 n=10 v=0
7226808 Off ch=3 n=17 v=0
7226969 Off ch=3 n=28 v=0
7227035 On ch=3 n=32 v=100
7227035 On ch=3 n=6 v=100
7227123 On ch=3 n=8 v=100
7227126 Off ch=3 n=6 v=0
7227140 Off ch=3 n=32 v=0
7228149 Off ch=3 n=8 v=0
7228245 On ch=3 n=7 v=100
7228768 On ch=3 n=31 v=100
7228791 Off ch=3 n=7 v=0
7228795 On ch=3 n=37 v=100
7228822 On ch=3 n=42 v=100
7228947 Off ch=3 n=37 v=0
7228953 Off ch=3 n=31 v=0
7229040 On ch=3 n=31 v=100
7229364 Off ch=3 n=42 v=0
7229430 Off ch=3 n=31 v=0
7230392 On ch=3 n=22 v=100
7230431 On ch=3 n=16 v=100
7230627 Off ch=3 n=22 v=0
7230627 Off ch=3 n=16 v=0
7231803 On ch=3 n=18 v=100
7231833 Off ch=3 n=18 v=0
7231860 On ch=3 n=18 v=100
7231917 Off ch=3 n=18 v=0
7231991 On ch=3 n=13 v=100
7232088 On ch=3 n=38 v=100
7232134 On ch=3 n=19 v=100
7232153 Off ch=3 n=13 v=0
7232183 On ch=3 n=16 v=100
7232208 Off ch=3 n=38 v=0
7232211 On ch=3 n=28 v=100
7232559 Off ch=3 n=19 v=0
7232565 Off ch=3 n=16 v=0
7232680 Off ch=3 n=28 v=0
7235498 On ch=3 n=24 v=100
7235573 On ch=3 n=17 v=100
7235585 On ch=3 n=20 v=100
7235938 Off ch=3 n=24 v=0
7235943 Off ch=3 n=17 v=0
7235955 On ch=3 n=49 v=100
7235958 On ch=3 n=33 v=100
7235974 On ch=3 n=43 v=100
7236065 Off ch=3 n=20 v=0
7236078 Off ch=3 n=33 v=0
7236113 Off ch=3 n=49 v=0
7236135 Off ch=3 n=43 v=0
7237028 On ch=3 n=4 v=100
7237225 Off ch=3 n=4 v=0
7238712 On ch=3 n=28 v=100
7239016 Off ch=3 n=28 v=0
7239226 On ch=3 n=23 v=100
7239304 On ch=3 n=20 v=100
7239332 Off ch=3 n=23 v=0
7239371 Off ch=3 n=20 v=0
7241153 On ch=3 n=17 v=100
7241194 On ch=3 n=8 v=100
7241497 Off ch=3 n=17 v=0
7241497 Off ch=3 n=8 v=0
7241529 On ch=3 n=22 v=100
7241588 On ch=3 n=24 v=100
7241618 Off ch=3 n=22 v=0
7241695 On ch=3 n=27 v=100
7241695 On ch=3 n=8 v=100
7241797 Off ch=3 n=24 v=0
7241929 On ch=3 n=8 v=100
7241929 Off ch=3 n=8 v=0
7241969 Off ch=3 n=27 v=0
7242115 On ch=3 n=12 v=100
7242118 Off ch=3 n=8 v=0
7242588 Off ch=3 n=12 v=0
7242690 On ch=3 n=29 v=100
7242803 Off ch=3 n=29 v=0
7243854 On ch=3 n=19 v=100
7244206 Off ch=3 n=19 v=0
7244224 On ch=3 n=36 v=100
7244710 Off ch=3 n=36 v=0
7244730 On ch=3 n=5 v=100
7244875 Off ch=3 n=5 v=0
7244969 On ch=3 n=3 v=100
7245571 On ch=3 n=7 v=100
7245571 Off ch=3 n=3 v=0
7246077 Off ch=3 n=7 v=0
7246183 On ch=3 n=14 v=100
7246211 Off ch=3 n=14 v=0
7246215 On ch=3 n=33 v=100
7246239 On ch=3 n=5 v=100
7246370 Off ch=3 n=33 v=0
7246684 Off ch=3 n=5 v=0
7246793 On ch=3 n=32 v=100
7246795 On ch=3 n=31 v=100
7247103 On ch=3 n=35 v=100
7247262 On ch=3 n=35 v=100
7247266 Off ch=3 n=31 v=0
7247339 Off ch=3 n=32 v=0
7247355 On ch=3 n=40 v=100
7247612 Off ch=3 n=35 v=0
7247747 On ch=3 n=41 v=100
7247826 Off ch=3 n=35 v=0
7248064 Off ch=3 n=40 v=0
7248108 Off ch=3 n=41 v=0
7248641 On ch=3 n=30 v=100
7249127 Off ch=3 n=30 v=0
7249157 On ch=3 n=7 v=100
7249526 Off ch=3 n=7 v=0
7249537 On ch=3 n=37 v=100
7250182 Off ch=3 n=37 v=0
7251208 On ch=3 n=36 v=100
7251685 Off ch=3 n=36 v=0
7251746 On ch=3 n=28 v=100
7252194 Off ch=3 n=28 v=0
7252294 On ch=3 n=4 v=100
7253222 On ch=3 n=9 v=100
7253226 Off ch=3 n=4 v=0
7254240 On ch=3 n=11 v=100
7254285 Off ch=3 n=9 v=0
7254545 Off ch=3 n=11 v=0
7256103 On ch=3 n=28 v=100
7256516 Off ch=3 n=28 v=0
7256522 On ch=3 n=17 v=100
7256708 Off ch=3 n=17 v=0
7256978 On ch=3 n=6 v=100
7257121 Off ch=3 n=6 v=0
7257862 On ch=3 n=34 v=100
7258120 On ch=3 n=27 v=100
7258188 On ch=3 n=9 v=100
7258571 Off ch=3 n=34 v=0
7258593 Off ch=3 n=27 v=0
7258909 Off ch=3 n=9 v=0
7259668 On ch=3 n=10 v=100
7259970 Off ch=3 n=10 v=0
7260896 On ch=3 n=27 v=100
7260896 On ch=3 n=27 v=100
7261092 On ch=3 n=22 v=100
7261092 On ch=3 n=22 v=100
7261114 On ch=3 n=13 v=100
7261498 Off ch=3 n=27 v=0
7261498 Off ch=3 n=13 v=0
7261498 Off ch=3 n=27 v=0
7261531 On ch=3 n=10 v=100
7261595 Off ch=3 n=22 v=0
7261595 Off ch=3 n=22 v=0
7261807 On ch=3 n=11 v=100
7261809 Off ch=3 n=10 v=0
7262517 Off ch=3 n=11 v=0
7263210 On ch=3 n=13 v=100
7263318 Off ch=3 n=13 v=0
7263532 On ch=3 n=39 v=100
7263532 On ch=3 n=39 v=100
7263660 On ch=3 n=19 v=100
7263660 On ch=3 n=19 v=100
7263827 On ch=3 n=16 v=100
7263849 On ch=3 n=21 v=100
7263849 On ch=3 n=21 v=100
7263863 Off ch=3 n=39 v=0
7263863 Off ch=3 n=39 v=0
7264130 Off ch=3 n=19 v=0
7264130 Off ch=3 n=19 v=0
7264179 Off ch=3 n=16 v=0
7264251 Off ch=3 n=21 v=0
7264251 Off ch=3 n=21 v=0
7264643 On ch=3 n=21 v=100
7264826 On ch=3 n=24 v=100
7265202 Off ch=3 n=21 v=0
7265430 Off ch=3 n=24 v=0
7267865 On ch=3 n=15 v=100
7267982 Off ch=3 n=15 v=0
7267983 On ch=3 n=11 v=100
7268163 Off ch=3 n=11 v=0
7268221 On ch=3 n=11 v=100
7268327 On ch=3 n=15 v=100
7268441 Off ch=3 n=11 v=0
7268443 On ch=3 n=10 v=100
7268459 Off ch=3 n=15 v=0
7268767 Off ch=3 n=10 v=0
7271487 On ch=3 n=10 v=100
7271550 On ch=3 n=10 v=100
7271550 Off ch=3 n=10 v=0
7271758 Off ch=3 n=10 v=0
7272835 On ch=3 n=10 v=100
7272891 Off ch=3 n=10 v=0
7273856 On ch=3 n=33 v=100
7273985 On ch=3 n=31 v=100
7274239 Off ch=3 n=31 v=0
7274242 Off ch=3 n=33 v=0
7276296 On ch=3 n=10 v=100
7276586 Off ch=3 n=10 v=0
7277137 On ch=3 n=19 v=100
7277368 On ch=3 n=30 v=100
7277403 On ch=3 n=17 v=100
7277403 On ch=3 n=17 v=100
7277426 On ch=3 n=36 v=100
7277426 On ch=3 n=36 v=100
7277430 On ch=3 n=4 v=100
7277431 Off ch=3 n=19 v=0
7277619 Off ch=3 n=4 v=0
7277621 On ch=3 n=19 v=100
7277626 Off ch=3 n=30 v=0
7277632 Off ch=3 n=17 v=0
7277632 Off ch=3 n=17 v=0
7277665 Off ch=3 n=36 v=0
7277665 Off ch=3 n=36 v=0
7277707 Off ch=3 n=19 v=0
7280076 On ch=3 n=5 v=100
7280127 Off ch=3 n=5 v=0
7280334 On ch=3 n=3 v=100
7281452 Off ch=3 n=3 v=0
7281819 On ch=3 n=1 v=100
7282406 Off ch=3 n=1 v=0
7283542 On ch=3 n=12 v=100
7283603 Off ch=3 n=12 v=0
7283674 On ch=3 n=12 v=100
7283674 On ch=3 n=1 v=100
7283856 Off ch=3 n=12 v=0
7284616 Off ch=3 n=1 v=0
7284770 On ch=3 n=34 v=100
7284958 On ch=3 n=38 v=100
7284958 On ch=3 n=64 v=100
7284958 On ch=3 n=64 v=100
7284959 On ch=3 n=13 v=100
7285144 Off ch=3 n=13 v=0
7285146 On ch=3 n=17 v=100
7285151 Off ch=3 n=34 v=0
7285204 Off ch=3 n=38 v=0
7285417 Off ch=3 n=17 v=0
7285485 On ch=3 n=32 v=100
7285485 On ch=3 n=32 v=100
7285540 Off ch=3 n=64 v=0
7285540 Off ch=3 n=64 v=0
7285689 On ch=3 n=51 v=100
7285689 On ch=3 n=51 v=100
7285723 On ch=3 n=29 v=100
7285723 On ch=3 n=36 v=100
7285873 Off ch=3 n=32 v=0
7285873 Off ch=3 n=29 v=0
7285873 Off ch=3 n=32 v=0
7285892 Off ch=3 n=36 v=0
7286072 On ch=3 n=22 v=100
7286220 Off ch=3 n=51 v=0
7286220 Off ch=3 n=51 v=0
7286346 Off ch=3 n=22 v=0
7287249 On ch=3 n=50 v=100
7287429 On ch=3 n=24 v=100
7287585 Off ch=3 n=50 v=0
7287633 Off ch=3 n=24 v=0
7289629 On ch=3 n=19 v=100
7289749 Off ch=3 n=19 v=0
7290738 On ch=3 n=15 v=100
7291371 Off ch=3 n=15 v=0
7291489 On ch=3 n=10 v=100
7292142 Off ch=3 n=10 v=0
7293197 On ch=3 n=8 v=100
7293197 On ch=3 n=13 v=100
7293471 Off ch=3 n=8 v=0
7293521 Off ch=3 n=13 v=0
7298118 On ch=3 n=9 v=100
7298354 Off ch=3 n=9 v=0
7298464 On ch=3 n=28 v=100
7298726 On ch=3 n=11 v=100
7298746 Off ch=3 n=28 v=0
7298918 Off ch=3 n=11 v=0
7298931 On ch=3 n=23 v=100
7299366 Off ch=3 n=23 v=0
7299515 On ch=3 n=29 v=100
7299964 Off ch=3 n=29 v=0
7300017 On ch=3 n=26 v=100
7300227 Off ch=3 n=26 v=0
7301491 On ch=3 n=37 v=100
7301504 On ch=3 n=40 v=100
7301508 On ch=3 n=31 v=100
7301595 Off ch=3 n=37 v=0
7301724 Off ch=3 n=31 v=0
7301754 On ch=3 n=20 v=100
7301787 Off ch=3 n=40 v=0
7302246 Off ch=3 n=20 v=0
7303958 On ch=3 n=11 v=100
7304044 Off ch=3 n=11 v=0
7304049 On ch=3 n=15 v=100
7304307 Off ch=3 n=15 v=0
7304311 On ch=3 n=17 v=100
7304615 Off ch=3 n=17 v=0
7304661 On ch=3 n=31 v=100
7304749 Off ch=3 n=31 v=0
7304755 On ch=3 n=37 v=100
7304841 On ch=3 n=13 v=100
7304842 Off ch=3 n=37 v=0
7305079 On ch=3 n=38 v=100
7305081 Off ch=3 n=13 v=0
7305104 On ch=3 n=45 v=100
7305146 On ch=3 n=14 v=100
7305206 Off ch=3 n=38 v=0
7305254 Off ch=3 n=45 v=0
7305337 Off ch=3 n=14 v=0
7305598 On ch=3 n=26 v=100
7305759 Off ch=3 n=26 v=0
7306047 On ch=3 n=35 v=100
7306084 On ch=3 n=42 v=100
7306084 On ch=3 n=42 v=100
7306105 On ch=3 n=25 v=100
7306205 On ch=3 n=20 v=100
7306308 Off ch=3 n=35 v=0
7306340 On ch=3 n=39 v=100
7306340 On ch=3 n=39 v=100
7306378 Off ch=3 n=25 v=0
7306403 On ch=3 n=29 v=100
7306423 Off ch=3 n=20 v=0
7306436 Off ch=3 n=42 v=0
7306436 Off ch=3 n=42 v=0
7306454 On ch=3 n=8 v=100
7306641 Off ch=3 n=8 v=0
7306643 Off ch=3 n=29 v=0
7306668 Off ch=3 n=39 v=0
7306668 Off ch=3 n=39 v=0
7306831 On ch=3 n=45 v=100
7306908 On ch=3 n=32 v=100
7306911 On ch=3 n=30 v=100
7306998 On ch=3 n=15 v=100
7307010 Off ch=3 n=30 v=0
7307029 Off ch=3 n=45 v=0
7307031 Off ch=3 n=32 v=0
7307150 Off ch=3 n=15 v=0
7307193 On ch=3 n=17 v=100
7307486 Off ch=3 n=17 v=0
7307656 On ch=3 n=28 v=100
7307855 Off ch=3 n=28 v=0
7310334 On ch=3 n=47 v=100
7310428 On ch=3 n=33 v=100
7310448 On ch=3 n=27 v=100
7310468 On ch=3 n=21 v=100
7310480 On ch=3 n=24 v=100
7310575 Off ch=3 n=47 v=0
7310575 Off ch=3 n=33 v=0
7310575 Off ch=3 n=27 v=0
7310575 Off ch=3 n=21 v=0
7310575 Off ch=3 n=24 v=0
7310598 On ch=3 n=31 v=100
7310598 On ch=3 n=31 v=100
7310677 On ch=3 n=12 v=100
7310865 Off ch=3 n=12 v=0
7310876 Off ch=3 n=31 v=0
7310876 Off ch=3 n=31 v=0
7311036 On ch=3 n=43 v=100
7311064 On ch=3 n=21 v=100
7311066 On ch=3 n=26 v=100
7311070 On ch=3 n=7 v=100
7311248 Off ch=3 n=7 v=0
7311258 Off ch=3 n=43 v=0
7311277 Off ch=3 n=21 v=0
7311318 Off ch=3 n=26 v=0
7312227 On ch=3 n=26 v=100
7312334 On ch=3 n=30 v=100
7312412 On ch=3 n=25 v=100
7312517 On ch=3 n=46 v=100
7312742 Off ch=3 n=26 v=0
7312863 Off ch=3 n=30 v=0
7312878 Off ch=3 n=25 v=0
7312900 On ch=3 n=8 v=100
7313028 Off ch=3 n=46 v=0
7313081 Off ch=3 n=8 v=0
7313202 On ch=3 n=36 v=100
7313215 On ch=3 n=13 v=100
7313269 Off ch=3 n=36 v=0
7313799 On ch=3 n=12 v=100
7313869 Off ch=3 n=13 v=0
7314653 Off ch=3 n=12 v=0
7314658 On ch=3 n=22 v=100
7314708 Off ch=3 n=22 v=0
7315589 On ch=3 n=12 v=100
7315986 On ch=3 n=14 v=100
7315988 Off ch=3 n=12 v=0
7316474 Off ch=3 n=14 v=0
7317890 On ch=3 n=12 v=100
7318286 Off ch=3 n=12 v=0
7320515 On ch=3 n=44 v=100
7320606 On ch=3 n=10 v=100
7320657 Off ch=3 n=44 v=0
7321034 Off ch=3 n=10 v=0
7321047 On ch=3 n=13 v=100
7321103 Off ch=3 n=13 v=0
7321644 On ch=3 n=27 v=100
7322005 Off ch=3 n=27 v=0
7322012 On ch=3 n=20 v=100
7322196 Off ch=3 n=20 v=0
7322204 On ch=3 n=15 v=100
7322455 Off ch=3 n=15 v=0
7322468 On ch=3 n=10 v=100
7322906 Off ch=3 n=10 v=0
7322917 On ch=3 n=10 v=100
7323101 Off ch=3 n=10 v=0
7323113 On ch=3 n=4 v=100
7324139 Off ch=3 n=4 v=0
7324140 On ch=3 n=4 v=100
7324401 Off ch=3 n=4 v=0
7324407 On ch=3 n=6 v=100
7324727 On ch=3 n=32 v=100
7324794 Off ch=3 n=6 v=0
7324872 Off ch=3 n=32 v=0
7325101 On ch=3 n=53 v=100
7325160 On ch=3 n=42 v=100
7325237 Off ch=3 n=53 v=0
7325272 Off ch=3 n=42 v=0
7325616 On ch=3 n=39 v=100
7326045 Off ch=3 n=39 v=0
7326458 On ch=3 n=38 v=100
7326468 On ch=3 n=16 v=100
7326754 Off ch=3 n=16 v=0
7326900 Off ch=3 n=38 v=0
7326929 On ch=3 n=20 v=100
7327031 Off ch=3 n=20 v=0
7327085 On ch=3 n=34 v=100
7327220 Off ch=3 n=34 v=0
7327321 On ch=3 n=29 v=100
7327321 On ch=3 n=6 v=100
7327788 On ch=3 n=11 v=100
7327791 Off ch=3 n=6 v=0
7327859 Off ch=3 n=29 v=0
7328242 Off ch=3 n=11 v=0
7328944 On ch=3 n=44 v=100
7329211 Off ch=3 n=44 v=0
7329340 On ch=3 n=9 v=100
7329613 Off ch=3 n=9 v=0
7331446 On ch=3 n=13 v=100
7331568 Off ch=3 n=13 v=0
7331866 On ch=3 n=11 v=100
7331986 Off ch=3 n=11 v=0
7331992 On ch=3 n=9 v=100
7332044 Off ch=3 n=9 v=0
7332080 On ch=3 n=9 v=100
7332563 Off ch=3 n=9 v=0
7333486 On ch=3 n=11 v=100
7334622 On ch=3 n=53 v=100
7334622 On ch=3 n=42 v=100
7334622 On ch=3 n=55 v=100
7334622 On ch=3 n=51 v=100
7334624 Off ch=3 n=11 v=0
7334723 On ch=3 n=17 v=100
7334724 Off ch=3 n=42 v=0
7334750 Off ch=3 n=53 v=0
7334775 Off ch=3 n=55 v=0
7334794 Off ch=3 n=51 v=0
7334873 Off ch=3 n=17 v=0
7334875 On ch=3 n=13 v=100
7334917 On ch=3 n=18 v=100
7334917 Off ch=3 n=13 v=0
7335100 On ch=3 n=17 v=100
7335105 Off ch=3 n=18 v=0
7335313 Off ch=3 n=17 v=0
7336061 On ch=3 n=7 v=100
7337106 On ch=3 n=34 v=100
7337118 Off ch=3 n=7 v=0
7337121 On ch=3 n=3 v=100
7337171 Off ch=3 n=34 v=0
7337597 On ch=3 n=40 v=100
7337664 Off ch=3 n=3 v=0
7337691 Off ch=3 n=40 v=0
7337694 On ch=3 n=26 v=100
7337883 Off ch=3 n=26 v=0
7337982 On ch=3 n=8 v=100
7338851 Off ch=3 n=8 v=0
7338862 On ch=3 n=7 v=100
7338929 Off ch=3 n=7 v=0
7340403 On ch=3 n=22 v=100
7340480 On ch=3 n=21 v=100
7340480 On ch=3 n=21 v=100
7340539 On ch=3 n=23 v=100
7340539 On ch=3 n=23 v=100
7340547 Off ch=3 n=22 v=0
7340573 On ch=3 n=16 v=100
7340925 On ch=3 n=11 v=100
7340983 Off ch=3 n=21 v=0
7340983 Off ch=3 n=21 v=0
7341012 Off ch=3 n=16 v=0
7341075 Off ch=3 n=23 v=0
7341075 Off ch=3 n=23 v=0
7341354 Off ch=3 n=11 v=0
7341613 On ch=3 n=21 v=100
7341613 On ch=3 n=21 v=100
7341666 On ch=3 n=14 v=100
7341704 On ch=3 n=27 v=100
7341704 On ch=3 n=27 v=100
7341798 On ch=3 n=45 v=100
7341994 Off ch=3 n=21 v=0
7341994 Off ch=3 n=14 v=0
7341994 Off ch=3 n=21 v=0
7342041 Off ch=3 n=27 v=0
7342041 Off ch=3 n=27 v=0
7342052 On ch=3 n=29 v=100
7342114 Off ch=3 n=45 v=0
7342146 Off ch=3 n=29 v=0
7343240 On ch=3 n=31 v=100
7343306 Off ch=3 n=31 v=0
7343788 On ch=3 n=7 v=100
7344444 Off ch=3 n=7 v=0
7344446 On ch=3 n=10 v=100
7344641 Off ch=3 n=10 v=0
7344867 On ch=3 n=11 v=100
7345163 On ch=3 n=8 v=100
7345167 Off ch=3 n=11 v=0
7345261 On ch=3 n=46 v=100
7345297 Off ch=3 n=8 v=0
7345311 On ch=3 n=20 v=100
7345492 Off ch=3 n=20 v=0
7345497 Off ch=3 n=46 v=0
7346899 On ch=3 n=4 v=100
7347154 Off ch=3 n=4 v=0
7347155 On ch=3 n=4 v=100
7347654 Off ch=3 n=4 v=0
7349246 On ch=3 n=30 v=100
7349249 On ch=3 n=17 v=100
7349475 Off ch=3 n=17 v=0
7349500 Off ch=3 n=30 v=0
7350679 On ch=3 n=33 v=100
7350690 On ch=3 n=50 v=100
7350698 On ch=3 n=23 v=100
7350765 On ch=3 n=26 v=100
7350803 Off ch=3 n=33 v=0
7350803 Off ch=3 n=23 v=0
7350902 On ch=3 n=11 v=100
7350969 Off ch=3 n=50 v=0
7351337 On ch=3 n=11 v=100
7351337 Off ch=3 n=11 v=0
7351343 Off ch=3 n=26 v=0
7351436 On ch=3 n=25 v=100
7351437 On ch=3 n=30 v=100
7351442 Off ch=3 n=11 v=0
7351602 Off ch=3 n=25 v=0
7351659 Off ch=3 n=30 v=0
7353102 On ch=3 n=12 v=100
7353227 Off ch=3 n=12 v=0
7353230 On ch=3 n=9 v=100
7353471 Off ch=3 n=9 v=0
7353473 On ch=3 n=32 v=100
7353515 On ch=3 n=24 v=100
7353535 Off ch=3 n=32 v=0
7353535 Off ch=3 n=24 v=0
7353572 On ch=3 n=32 v=100
7353572 On ch=3 n=24 v=100
7353585 Off ch=3 n=32 v=0
7354565 Off ch=3 n=24 v=0
7354571 On ch=3 n=23 v=100
7354631 On ch=3 n=18 v=100
7354631 Off ch=3 n=23 v=0
7354690 Off ch=3 n=18 v=0
7355901 On ch=3 n=10 v=100
7356045 Off ch=3 n=10 v=0
7356059 On ch=3 n=11 v=100
7356386 Off ch=3 n=11 v=0
7356423 On ch=3 n=46 v=100
7356449 On ch=3 n=42 v=100
7356586 Off ch=3 n=42 v=0
7356588 Off ch=3 n=46 v=0
7356596 On ch=3 n=30 v=100
7356817 On ch=3 n=23 v=100
7356817 Off ch=3 n=30 v=0
7356934 Off ch=3 n=23 v=0
7356937 On ch=3 n=14 v=100
7357205 On ch=3 n=16 v=100
7357205 Off ch=3 n=14 v=0
7357346 Off ch=3 n=16 v=0
7357368 On ch=3 n=37 v=100
7357456 Off ch=3 n=37 v=0
7357461 On ch=3 n=41 v=100
7357477 On ch=3 n=9 v=100
7357573 Off ch=3 n=41 v=0
7357731 Off ch=3 n=9 v=0
7357738 On ch=3 n=13 v=100
7358022 Off ch=3 n=13 v=0
7358029 On ch=3 n=5 v=100
7358091 Off ch=3 n=5 v=0
7359588 On ch=3 n=14 v=100
7359843 On ch=3 n=13 v=100
7359845 Off ch=3 n=14 v=0
7360315 On ch=3 n=8 v=100
7360363 Off ch=3 n=13 v=0
7360412 Off ch=3 n=8 v=0
7360522 On ch=3 n=8 v=100
7360647 Off ch=3 n=8 v=0
7361363 On ch=3 n=11 v=100
7361420 On ch=3 n=6 v=100
7361420 Off ch=3 n=11 v=0
7361602 On ch=3 n=55 v=100
7362018 Off ch=3 n=6 v=0
7362020 On ch=3 n=8 v=100
7362376 Off ch=3 n=55 v=0
7362519 Off ch=3 n=8 v=0
7362552 On ch=3 n=10 v=100
7363202 On ch=3 n=36 v=100
7363241 Off ch=3 n=10 v=0
7363242 On ch=3 n=32 v=100
7363246 Off ch=3 n=36 v=0
7363719 Off ch=3 n=32 v=0
7363851 On ch=3 n=14 v=100
7363920 Off ch=3 n=14 v=0
7365017 On ch=3 n=0 v=100
7365096 Off ch=3 n=0 v=0
7365098 On ch=3 n=7 v=100
7365986 Off ch=3 n=7 v=0
7366019 On ch=3 n=7 v=100
7366058 Off ch=3 n=7 v=0
7366115 On ch=3 n=7 v=100
7366764 Off ch=3 n=7 v=0
7366808 On ch=3 n=11 v=100
7367021 On ch=3 n=16 v=100
7367074 Off ch=3 n=11 v=0
7367076 Off ch=3 n=16 v=0
7367120 On ch=3 n=16 v=100
7367354 Off ch=3 n=16 v=0
7367437 On ch=3 n=8 v=100
7367646 Off ch=3 n=8 v=0
7367648 On ch=3 n=15 v=100
7367906 On ch=3 n=21 v=100
7367908 Off ch=3 n=15 v=0
7367911 On ch=3 n=15 v=100
7368029 On ch=3 n=28 v=100
7368053 Off ch=3 n=15 v=0
7368117 Off ch=3 n=21 v=0
7368193 Off ch=3 n=28 v=0
7368219 On ch=3 n=14 v=100
7368432 Off ch=3 n=14 v=0
7369103 On ch=3 n=17 v=100
7369592 Off ch=3 n=17 v=0
7369834 On ch=3 n=13 v=100
7370016 Off ch=3 n=13 v=0
7370284 On ch=3 n=22 v=100
7370361 Off ch=3 n=22 v=0
7370368 On ch=3 n=19 v=100
7370584 Off ch=3 n=19 v=0
7370587 On ch=3 n=14 v=100
7371192 On ch=3 n=10 v=100
7371198 Off ch=3 n=14 v=0
7371900 On ch=3 n=13 v=100
7371902 Off ch=3 n=10 v=0
7372057 Off ch=3 n=13 v=0
7373084 On ch=3 n=13 v=100
7373150 Off ch=3 n=13 v=0
7373204 On ch=3 n=16 v=100
7373257 Off ch=3 n=16 v=0
7373290 On ch=3 n=9 v=100
7373867 Off ch=3 n=9 v=0
7373869 On ch=3 n=5 v=100
7375184 Off ch=3 n=5 v=0
7375187 On ch=3 n=9 v=100
7375457 On ch=3 n=16 v=100
7375472 Off ch=3 n=9 v=0
7375632 Off ch=3 n=16 v=0
7376787 On ch=3 n=53 v=100
7376890 On ch=3 n=14 v=100
7376925 Off ch=3 n=53 v=0
7376925 Off ch=3 n=14 v=0
7377182 On ch=3 n=8 v=100
7377955 Off ch=3 n=8 v=0
7377959 On ch=3 n=12 v=100
7378083 On ch=3 n=21 v=100
7378150 Off ch=3 n=12 v=0
7378182 Off ch=3 n=21 v=0
7379065 On ch=3 n=11 v=100
7379537 Off ch=3 n=11 v=0
7379576 On ch=3 n=9 v=100
7380468 Off ch=3 n=9 v=0
7380863 On ch=3 n=14 v=100
7381045 Off ch=3 n=14 v=0
7381065 On ch=3 n=14 v=100
7381144 Off ch=3 n=14 v=0
7381207 On ch=3 n=29 v=100
7381292 On ch=3 n=33 v=100
7381297 On ch=3 n=8 v=100
7381464 Off ch=3 n=8 v=0
7381465 Off ch=3 n=29 v=0
7381554 Off ch=3 n=33 v=0
7382222 On ch=3 n=20 v=100
7382240 On ch=3 n=29 v=100
7382290 Off ch=3 n=20 v=0
7382295 On ch=3 n=6 v=100
7382341 Off ch=3 n=6 v=0
7382345 Off ch=3 n=29 v=0
7383462 On ch=3 n=13 v=100
7383930 Off ch=3 n=13 v=0
7383997 On ch=3 n=10 v=100
7384048 Off ch=3 n=10 v=0
7385381 On ch=3 n=21 v=100
7385381 On ch=3 n=38 v=100
7385700 Off ch=3 n=21 v=0
7385794 Off ch=3 n=38 v=0
7385824 On ch=3 n=21 v=100
7385824 On ch=3 n=21 v=100
7385843 On ch=3 n=18 v=100
7386038 Off ch=3 n=18 v=0
7386058 Off ch=3 n=21 v=0
7386058 Off ch=3 n=21 v=0
7386074 On ch=3 n=24 v=100
7386173 Off ch=3 n=24 v=0
7386208 On ch=3 n=24 v=100
7386554 On ch=3 n=16 v=100
7386926 Off ch=3 n=24 v=0
7387075 Off ch=3 n=16 v=0
7387078 On ch=3 n=8 v=100
7387272 Off ch=3 n=8 v=0
7387401 On ch=3 n=49 v=100
7387587 Off ch=3 n=49 v=0
7387740 On ch=3 n=24 v=100
7387791 Off ch=3 n=24 v=0
7387852 On ch=3 n=24 v=100
7388059 On ch=3 n=18 v=100
7388100 On ch=3 n=23 v=100
7388299 On ch=3 n=35 v=100
7388425 Off ch=3 n=24 v=0
7388431 Off ch=3 n=18 v=0
7388538 Off ch=3 n=23 v=0
7388675 Off ch=3 n=35 v=0
7389051 On ch=3 n=19 v=100
7390112 Off ch=3 n=19 v=0
7390118 On ch=3 n=19 v=100
7390169 On ch=3 n=13 v=100
7390174 On ch=3 n=53 v=100
7390307 Off ch=3 n=19 v=0
7390767 On ch=3 n=13 v=100
7390940 Off ch=3 n=13 v=0
7391165 Off ch=3 n=53 v=0
7391949 Off ch=3 n=13 v=0
7391953 On ch=3 n=9 v=100
7391997 Off ch=3 n=9 v=0
7393448 On ch=3 n=8 v=100
7393507 Off ch=3 n=8 v=0
7393509 On ch=3 n=12 v=100
7393821 Off ch=3 n=12 v=0
7393917 On ch=3 n=15 v=100
7394881 Off ch=3 n=15 v=0
7394886 On ch=3 n=9 v=100
7395243 Off ch=3 n=9 v=0
7396172 On ch=3 n=28 v=100
7396223 On ch=3 n=22 v=100
7396452 Off ch=3 n=22 v=0
7396455 Off ch=3 n=28 v=0
7396990 On ch=3 n=7 v=100
7397875 Off ch=3 n=7 v=0
7397877 On ch=3 n=7 v=100
7398175 Off ch=3 n=7 v=0
7398616 On ch=3 n=41 v=100
7398625 On ch=3 n=35 v=100
7398730 Off ch=3 n=35 v=0
7398750 Off ch=3 n=41 v=0
7398929 On ch=3 n=11 v=100
7399683 Off ch=3 n=11 v=0
7400405 On ch=3 n=22 v=100
7400468 Off ch=3 n=22 v=0
7401193 On ch=3 n=28 v=100
7402088 Off ch=3 n=28 v=0
7402262 On ch=3 n=18 v=100
7402297 Off ch=3 n=18 v=0
7402659 On ch=3 n=25 v=100
7403009 Off ch=3 n=25 v=0
7403125 On ch=3 n=12 v=100
7403447 On ch=3 n=19 v=100
7403500 On ch=3 n=1 v=100
7403503 Off ch=3 n=12 v=0
7403510 Off ch=3 n=19 v=0
7404247 Off ch=3 n=1 v=0
7404250 On ch=3 n=14 v=100
7404419 Off ch=3 n=14 v=0
7404433 On ch=3 n=12 v=100
7404575 Off ch=3 n=12 v=0
7405437 On ch=3 n=11 v=100
7406291 On ch=3 n=15 v=100
7406292 Off ch=3 n=11 v=0
7406627 Off ch=3 n=15 v=0
7406638 On ch=3 n=16 v=100
7406767 On ch=3 n=19 v=100
7406794 Off ch=3 n=16 v=0
7406797 On ch=3 n=11 v=100
7406856 On ch=3 n=21 v=100
7406857 Off ch=3 n=19 v=0
7406873 Off ch=3 n=11 v=0
7406878 On ch=3 n=9 v=100
7407042 Off ch=3 n=21 v=0
7407043 Off ch=3 n=9 v=0
7407827 On ch=3 n=11 v=100
7407953 On ch=3 n=14 v=100
7407966 Off ch=3 n=11 v=0
7408390 Off ch=3 n=14 v=0
7409293 On ch=3 n=25 v=100
7409378 On ch=3 n=15 v=100
7409428 On ch=3 n=29 v=100
7409428 On ch=3 n=29 v=100
7409520 On ch=3 n=16 v=100
7409868 Off ch=3 n=25 v=0
7409869 Off ch=3 n=15 v=0
7409937 On ch=3 n=26 v=100
7409964 Off ch=3 n=16 v=0
7410047 On ch=3 n=13 v=100
7410053 Off ch=3 n=29 v=0
7410053 Off ch=3 n=29 v=0
7410374 Off ch=3 n=26 v=0
7410409 Off ch=3 n=13 v=0
7410445 On ch=3 n=13 v=100
7410604 Off ch=3 n=13 v=0
7410616 On ch=3 n=14 v=100
7411037 Off ch=3 n=14 v=0
7411932 On ch=3 n=23 v=100
7411932 On ch=3 n=40 v=100
7411980 Off ch=3 n=23 v=0
7412024 Off ch=3 n=40 v=0
7414478 On ch=3 n=37 v=100
7414527 On ch=3 n=28 v=100
7414605 On ch=3 n=21 v=100
7414698 On ch=3 n=17 v=100
7414705 On ch=3 n=12 v=100
7414779 Off ch=3 n=37 v=0
7415086 On ch=3 n=30 v=100
7415099 Off ch=3 n=21 v=0
7415100 Off ch=3 n=12 v=0
7415103 Off ch=3 n=28 v=0
7415114 On ch=3 n=5 v=100
7415115 On ch=3 n=56 v=100
7415115 On ch=3 n=56 v=100
7415134 On ch=3 n=33 v=100
7415157 Off ch=3 n=17 v=0
7415310 Off ch=3 n=5 v=0
7415312 Off ch=3 n=30 v=0
7415313 On ch=3 n=15 v=100
7415449 Off ch=3 n=33 v=0
7415468 Off ch=3 n=56 v=0
7415468 Off ch=3 n=56 v=0
7415705 Off ch=3 n=15 v=0
7415829 On ch=3 n=7 v=100
7415968 Off ch=3 n=7 v=0
7416698 On ch=3 n=23 v=100
7416797 Off ch=3 n=23 v=0
7417018 On ch=3 n=41 v=100
7417103 On ch=3 n=8 v=100
7417115 Off ch=3 n=41 v=0
7417141 On ch=3 n=10 v=100
7417155 Off ch=3 n=8 v=0
7417600 On ch=3 n=10 v=100
7417607 Off ch=3 n=10 v=0
7418127 Off ch=3 n=10 v=0
7418135 On ch=3 n=12 v=100
7418203 On ch=3 n=36 v=100
7418203 Off ch=3 n=12 v=0
7418204 On ch=3 n=41 v=100
7418455 On ch=3 n=41 v=100
7418456 Off ch=3 n=36 v=0
7418497 Off ch=3 n=41 v=0
7418581 Off ch=3 n=41 v=0
7418974 On ch=3 n=27 v=100
7419103 Off ch=3 n=27 v=0
7419435 On ch=3 n=13 v=100
7419435 On ch=3 n=22 v=100
7419689 Off ch=3 n=13 v=0
7419760 Off ch=3 n=22 v=0
7420050 On ch=3 n=16 v=100
7420380 Off ch=3 n=16 v=0
7420384 On ch=3 n=14 v=100
7420420 Off ch=3 n=14 v=0
7420466 On ch=3 n=11 v=100
7420752 Off ch=3 n=11 v=0
7420771 On ch=3 n=28 v=100
7420908 Off ch=3 n=28 v=0
7420915 On ch=3 n=6 v=100
7421272 Off ch=3 n=6 v=0
7421276 On ch=3 n=20 v=100
7421969 Off ch=3 n=20 v=0
7422747 On ch=3 n=29 v=100
7422984 Off ch=3 n=29 v=0
7423002 On ch=3 n=27 v=100
7423177 Off ch=3 n=27 v=0
7423190 On ch=3 n=29 v=100
7423312 Off ch=3 n=29 v=0
7423616 On ch=3 n=3 v=100
7425362 Off ch=3 n=3 v=0
7426237 On ch=3 n=19 v=100
7426288 Off ch=3 n=19 v=0
7426299 On ch=3 n=12 v=100
7426598 Off ch=3 n=12 v=0
7426599 On ch=3 n=8 v=100
7426646 Off ch=3 n=8 v=0
7426649 On ch=3 n=12 v=100
7426747 Off ch=3 n=12 v=0
7426867 On ch=3 n=14 v=100
7427248 Off ch=3 n=14 v=0
7427843 On ch=3 n=13 v=100
7428911 Off ch=3 n=13 v=0
7429609 On ch=3 n=22 v=100
7429880 Off ch=3 n=22 v=0
7429997 On ch=3 n=2 v=100
7431140 Off ch=3 n=2 v=0
7431676 On ch=3 n=38 v=100
7431876 Off ch=3 n=38 v=0
7431926 On ch=3 n=38 v=100
7432032 Off ch=3 n=38 v=0
7432127 On ch=3 n=17 v=100
7432396 On ch=3 n=39 v=100
7432413 Off ch=3 n=17 v=0
7432542 Off ch=3 n=39 v=0
7432667 On ch=3 n=7 v=100
7432867 Off ch=3 n=7 v=0
7432883 On ch=3 n=9 v=100
7433616 Off ch=3 n=9 v=0
7434907 On ch=3 n=27 v=100
7434926 On ch=3 n=10 v=100
7434990 On ch=3 n=7 v=100
7434991 Off ch=3 n=10 v=0
7435007 Off ch=3 n=27 v=0
7435492 On ch=3 n=3 v=100
7435493 Off ch=3 n=7 v=0
7435518 Off ch=3 n=3 v=0
7435895 On ch=3 n=34 v=100
7435944 On ch=3 n=11 v=100
7435999 Off ch=3 n=34 v=0
7436596 On ch=3 n=53 v=100
7436629 On ch=3 n=42 v=100
7436679 Off ch=3 n=11 v=0
7436683 On ch=3 n=14 v=100
7436760 On ch=3 n=20 v=100
7436778 Off ch=3 n=53 v=0
7436779 Off ch=3 n=42 v=0
7436815 Off ch=3 n=14 v=0
7436831 On ch=3 n=8 v=100
7436836 Off ch=3 n=20 v=0
7437278 Off ch=3 n=8 v=0
7438366 On ch=3 n=29 v=100
7438629 On ch=3 n=21 v=100
7438746 On ch=3 n=19 v=100
7438747 Off ch=3 n=29 v=0
7438748 On ch=3 n=11 v=100
7439072 Off ch=3 n=21 v=0
7439084 Off ch=3 n=11 v=0
7439094 On ch=3 n=26 v=100
7439203 Off ch=3 n=19 v=0
7439317 On ch=3 n=12 v=100
7439322 Off ch=3 n=26 v=0
7439558 Off ch=3 n=12 v=0
7439569 On ch=3 n=15 v=100
7439752 Off ch=3 n=15 v=0
7439779 On ch=3 n=15 v=100
7440315 On ch=3 n=25 v=100
7440316 Off ch=3 n=15 v=0
7440525 Off ch=3 n=25 v=0
7441486 On ch=3 n=6 v=100
7442244 On ch=3 n=23 v=100
7442799 Off ch=3 n=6 v=0
7442879 Off ch=3 n=23 v=0
7442884 On ch=3 n=28 v=100
7443024 Off ch=3 n=28 v=0
7444621 On ch=3 n=32 v=100
7444722 On ch=3 n=36 v=100
7444746 Off ch=3 n=32 v=0
7444794 On ch=3 n=17 v=100
7444794 On ch=3 n=39 v=100
7444795 On ch=3 n=12 v=100
7445117 Off ch=3 n=36 v=0
7445129 Off ch=3 n=12 v=0
7445207 Off ch=3 n=17 v=0
7445460 Off ch=3 n=39 v=0
7445487 On ch=3 n=19 v=100
7445566 Off ch=3 n=19 v=0
7446461 On ch=3 n=20 v=100
7446507 Off ch=3 n=20 v=0
7446509 On ch=3 n=10 v=100
7446668 Off ch=3 n=10 v=0
7446669 On ch=3 n=16 v=100
7447660 Off ch=3 n=16 v=0
7447663 On ch=3 n=14 v=100
7448260 Off ch=3 n=14 v=0
7448269 On ch=3 n=24 v=100
7448404 Off ch=3 n=24 v=0
7448408 On ch=3 n=13 v=100
7448411 On ch=3 n=35 v=100
7448492 Off ch=3 n=13 v=0
7448512 On ch=3 n=10 v=100
7448578 Off ch=3 n=35 v=0
7448654 Off ch=3 n=10 v=0
7448673 On ch=3 n=26 v=100
7449004 On ch=3 n=30 v=100
7449078 Off ch=3 n=26 v=0
7449089 Off ch=3 n=30 v=0
7449165 On ch=3 n=13 v=100
7449229 On ch=3 n=17 v=100
7449235 Off ch=3 n=13 v=0
7449239 On ch=3 n=10 v=100
7449329 On ch=3 n=13 v=100
7449329 Off ch=3 n=10 v=0
7449331 Off ch=3 n=17 v=0
7449543 Off ch=3 n=13 v=0
7450795 On ch=3 n=37 v=100
7450808 On ch=3 n=40 v=100
7450930 Off ch=3 n=40 v=0
7450932 Off ch=3 n=37 v=0
7451232 On ch=3 n=9 v=100
7451498 Off ch=3 n=9 v=0
7452426 On ch=3 n=8 v=100
7452576 On ch=3 n=6 v=100
7452671 Off ch=3 n=8 v=0
7452848 Off ch=3 n=6 v=0
7452875 On ch=3 n=20 v=100
7453137 Off ch=3 n=20 v=0
7453222 On ch=3 n=20 v=100
7453275 On ch=3 n=18 v=100
7453278 Off ch=3 n=20 v=0
7453336 On ch=3 n=16 v=100
7453340 Off ch=3 n=18 v=0
7453492 Off ch=3 n=16 v=0
7453506 On ch=3 n=5 v=100
7453685 On ch=3 n=19 v=100
7453685 Off ch=3 n=5 v=0
7453810 Off ch=3 n=19 v=0
7454812 On ch=3 n=11 v=100
7455364 On ch=3 n=9 v=100
7455365 Off ch=3 n=11 v=0
7455464 On ch=3 n=19 v=100
7455465 Off ch=3 n=9 v=0
7455757 On ch=3 n=18 v=100
7455836 Off ch=3 n=19 v=0
7455981 On ch=3 n=29 v=100
7456179 Off ch=3 n=18 v=0
7456210 Off ch=3 n=29 v=0
7457657 On ch=3 n=4 v=100
7458402 Off ch=3 n=4 v=0
7458818 On ch=3 n=17 v=100
7458900 Off ch=3 n=17 v=0
7459018 On ch=3 n=10 v=100
7459018 On ch=3 n=8 v=100
7459068 Off ch=3 n=8 v=0
7459070 On ch=3 n=16 v=100
7459080 Off ch=3 n=10 v=0
7459355 On ch=3 n=12 v=100
7459362 Off ch=3 n=16 v=0
7459463 Off ch=3 n=12 v=0
7460263 On ch=3 n=12 v=100
7460372 Off ch=3 n=12 v=0
7460404 On ch=3 n=12 v=100
7460667 Off ch=3 n=12 v=0
7460672 On ch=3 n=13 v=100
7461233 Off ch=3 n=13 v=0
7461675 On ch=3 n=19 v=100
7461678 On ch=3 n=29 v=100
7461945 Off ch=3 n=19 v=0
7462000 On ch=3 n=40 v=100
7462028 Off ch=3 n=29 v=0
7462154 Off ch=3 n=40 v=0
7462215 On ch=3 n=9 v=100
7462564 Off ch=3 n=9 v=0
7463658 On ch=3 n=21 v=100
7463757 Off ch=3 n=21 v=0
7464220 On ch=3 n=7 v=100
7464445 Off ch=3 n=7 v=0
7465031 On ch=3 n=39 v=100
7465040 On ch=3 n=26 v=100
7465082 Off ch=3 n=39 v=0
7465290 Off ch=3 n=26 v=0
7465379 On ch=3 n=26 v=100
7465400 On ch=3 n=15 v=100
7465871 Off ch=3 n=26 v=0
7465871 Off ch=3 n=15 v=0
7465918 On ch=3 n=26 v=100
7465918 On ch=3 n=25 v=100
7465980 Off ch=3 n=26 v=0
7466046 Off ch=3 n=25 v=0
7466443 On ch=3 n=3 v=100
7467613 On ch=3 n=40 v=100
7467671 Off ch=3 n=3 v=0
7467679 Off ch=3 n=40 v=0
7467857 On ch=3 n=67 v=100
7467991 On ch=3 n=10 v=100
7468156 Off ch=3 n=67 v=0
7468380 Off ch=3 n=10 v=0
7468782 On ch=3 n=39 v=100
7469045 Off ch=3 n=39 v=0
7469046 On ch=3 n=5 v=100
7469899 Off ch=3 n=5 v=0
7469902 On ch=3 n=38 v=100
7469974 Off ch=3 n=38 v=0
7469980 On ch=3 n=24 v=100
7470091 Off ch=3 n=24 v=0
7470766 On ch=3 n=31 v=100
7470942 Off ch=3 n=31 v=0
7471154 On ch=3 n=31 v=100
7471359 On ch=3 n=15 v=100
7471505 Off ch=3 n=31 v=0
7471534 On ch=3 n=12 v=100
7471537 Off ch=3 n=15 v=0
7471738 Off ch=3 n=12 v=0
7473108 On ch=3 n=23 v=100
7473334 Off ch=3 n=23 v=0
7473356 On ch=3 n=20 v=100
7473380 On ch=3 n=8 v=100
7473486 Off ch=3 n=20 v=0
7474016 On ch=3 n=13 v=100
7474138 Off ch=3 n=8 v=0
7474156 Off ch=3 n=13 v=0
7474239 On ch=3 n=36 v=100
7474497 On ch=3 n=9 v=100
7474521 Off ch=3 n=36 v=0
7474963 Off ch=3 n=9 v=0
7474993 On ch=3 n=32 v=100
7475142 Off ch=3 n=32 v=0
7476072 On ch=3 n=28 v=100
7476441 Off ch=3 n=28 v=0
7476925 On ch=3 n=25 v=100
7477078 Off ch=3 n=25 v=0
7477098 On ch=3 n=27 v=100
7477571 Off ch=3 n=27 v=0
7478073 On ch=3 n=20 v=100
7478146 Off ch=3 n=20 v=0
7478906 On ch=3 n=7 v=100
7480038 Off ch=3 n=7 v=0
7481679 On ch=3 n=56 v=100
7481928 Off ch=3 n=56 v=0
7483309 On ch=3 n=48 v=100
7483339 Off ch=3 n=48 v=0
7483402 On ch=3 n=48 v=100
7483404 On ch=3 n=7 v=100
7483639 Off ch=3 n=48 v=0
7483677 Off ch=3 n=7 v=0
7483683 On ch=3 n=8 v=100
7483837 Off ch=3 n=8 v=0
7485264 On ch=3 n=38 v=100
7485506 Off ch=3 n=38 v=0
7485624 On ch=3 n=8 v=100
7486345 Off ch=3 n=8 v=0
7486431 On ch=3 n=17 v=100
7486608 Off ch=3 n=17 v=0
7487284 On ch=3 n=38 v=100
7487590 Off ch=3 n=38 v=0
7488182 On ch=3 n=8 v=100
7488787 On ch=3 n=10 v=100
7488788 Off ch=3 n=8 v=0
7488929 Off ch=3 n=10 v=0
7489315 On ch=3 n=9 v=100
7489839 On ch=3 n=18 v=100
7489901 On ch=3 n=47 v=100
7489932 Off ch=3 n=9 v=0
7489946 Off ch=3 n=18 v=0
7490037 Off ch=3 n=47 v=0
7490831 On ch=3 n=8 v=100
7490833 On ch=3 n=15 v=100
7491390 On ch=3 n=17 v=100
7491399 Off ch=3 n=8 v=0
7491500 Off ch=3 n=15 v=0
7491565 Off ch=3 n=17 v=0
7498405 On ch=3 n=27 v=100
7498476 On ch=3 n=38 v=100
7498652 Off ch=3 n=27 v=0
7498702 Off ch=3 n=38 v=0
7499415 On ch=3 n=9 v=100
7499621 Off ch=3 n=9 v=0
7499623 On ch=3 n=20 v=100
7500017 Off ch=3 n=20 v=0
7500097 On ch=3 n=17 v=100
7500683 Off ch=3 n=17 v=0
7500703 On ch=3 n=20 v=100
7500970 Off ch=3 n=20 v=0
7501532 On ch=3 n=59 v=100
7501766 Off ch=3 n=59 v=0
7502149 On ch=3 n=22 v=100
7502222 Off ch=3 n=22 v=0
7502261 On ch=3 n=22 v=100
7502284 Off ch=3 n=22 v=0
7503741 On ch=3 n=48 v=100
7503743 On ch=3 n=27 v=100
7503842 On ch=3 n=37 v=100
7503901 On ch=3 n=31 v=100
7503982 Off ch=3 n=27 v=0
7504005 Off ch=3 n=37 v=0
7504009 Off ch=3 n=48 v=0
7504027 Off ch=3 n=31 v=0
7504345 On ch=3 n=7 v=100
7505243 Off ch=3 n=7 v=0
7505660 On ch=3 n=88 v=100
7505838 Off ch=3 n=88 v=0
7505955 On ch=3 n=88 v=100
7506027 Off ch=3 n=88 v=0
7506331 On ch=3 n=29 v=100
7506425 Off ch=3 n=29 v=0
7507059 On ch=3 n=21 v=100
7507156 Off ch=3 n=21 v=0
7507387 On ch=3 n=12 v=100
7507768 Off ch=3 n=12 v=0
7507772 On ch=3 n=12 v=100
7508387 On ch=3 n=12 v=100
7508415 Off ch=3 n=12 v=0
7508504 On ch=3 n=15 v=100
7508507 Off ch=3 n=12 v=0
7509077 Off ch=3 n=15 v=0
7509079 On ch=3 n=20 v=100
7509324 Off ch=3 n=20 v=0
7509376 On ch=3 n=23 v=100
7509414 Off ch=3 n=23 v=0
7509475 On ch=3 n=23 v=100
7509564 Off ch=3 n=23 v=0
7510318 On ch=3 n=11 v=100
7510500 Off ch=3 n=11 v=0
7512703 On ch=3 n=14 v=100
7512704 On ch=3 n=24 v=100
7512859 Off ch=3 n=14 v=0
7512861 On ch=3 n=16 v=100
7512896 Off ch=3 n=24 v=0
7513049 On ch=3 n=13 v=100
7513049 Off ch=3 n=16 v=0
7513320 Off ch=3 n=13 v=0
7514267 On ch=3 n=26 v=100
7514345 Off ch=3 n=26 v=0
7514476 On ch=3 n=22 v=100
7514526 Off ch=3 n=22 v=0
7514668 On ch=3 n=26 v=100
7514761 On ch=3 n=26 v=100
7514814 On ch=3 n=15 v=100
7514816 Off ch=3 n=26 v=0
7514938 Off ch=3 n=26 v=0
7514938 Off ch=3 n=15 v=0
7515169 On ch=3 n=10 v=100
7515473 Off ch=3 n=10 v=0
7516027 On ch=3 n=31 v=100
7516076 On ch=3 n=18 v=100
7516313 Off ch=3 n=31 v=0
7516323 Off ch=3 n=18 v=0
7516780 On ch=3 n=11 v=100
7517241 Off ch=3 n=11 v=0
7517285 On ch=3 n=1 v=100
7517426 Off ch=3 n=1 v=0
7517430 On ch=3 n=2 v=100
7518119 Off ch=3 n=2 v=0
7518205 On ch=3 n=23 v=100
7518205 On ch=3 n=1 v=100
7518747 Off ch=3 n=1 v=0
7518754 On ch=3 n=10 v=100
7518813 Off ch=3 n=23 v=0
7518817 On ch=3 n=4 v=100
7518828 Off ch=3 n=10 v=0
7519151 On ch=3 n=36 v=100
7519165 Off ch=3 n=4 v=0
7519167 On ch=3 n=1 v=100
7519174 On ch=3 n=5 v=100
7519221 Off ch=3 n=36 v=0
7519221 Off ch=3 n=5 v=0
7519221 Off ch=3 n=1 v=0
7519297 On ch=3 n=5 v=100
7519370 On ch=3 n=21 v=100
7519372 Off ch=3 n=5 v=0
7519717 Off ch=3 n=21 v=0
7519722 On ch=3 n=23 v=100
7520164 Off ch=3 n=23 v=0
7521292 On ch=3 n=30 v=100
7521292 On ch=3 n=30 v=100
7521318 On ch=3 n=20 v=100
7521502 Off ch=3 n=20 v=0
7521506 On ch=3 n=23 v=100
7521534 Off ch=3 n=30 v=0
7521534 Off ch=3 n=30 v=0
7521625 Off ch=3 n=23 v=0
7521744 On ch=3 n=12 v=100
7522607 Off ch=3 n=12 v=0
7522765 On ch=3 n=13 v=100
7523022 Off ch=3 n=13 v=0
7523025 On ch=3 n=19 v=100
7523106 Off ch=3 n=19 v=0
7523255 On ch=3 n=27 v=100
7523337 Off ch=3 n=27 v=0
7524176 On ch=3 n=31 v=100
7524176 On ch=3 n=31 v=100
7524187 On ch=3 n=6 v=100
7524187 On ch=3 n=16 v=100
7524187 On ch=3 n=6 v=100
7524245 On ch=3 n=57 v=100
7524370 Off ch=3 n=6 v=0
7524370 Off ch=3 n=6 v=0
7524400 Off ch=3 n=16 v=0
7524424 Off ch=3 n=31 v=0
7524424 Off ch=3 n=31 v=0
7524447 Off ch=3 n=57 v=0
7524655 On ch=3 n=7 v=100
7524979 Off ch=3 n=7 v=0
7525012 On ch=3 n=14 v=100
7525013 On ch=3 n=45 v=100
7525059 On ch=3 n=48 v=100
7525211 Off ch=3 n=14 v=0
7525276 Off ch=3 n=45 v=0
7525307 On ch=3 n=13 v=100
7525356 Off ch=3 n=48 v=0
7525395 Off ch=3 n=13 v=0
7525401 On ch=3 n=10 v=100
7525621 Off ch=3 n=10 v=0
7525959 On ch=3 n=39 v=100
7526260 Off ch=3 n=39 v=0
7526538 On ch=3 n=13 v=100
7526638 On ch=3 n=56 v=100
7526642 Off ch=3 n=13 v=0
7526659 On ch=3 n=7 v=100
7526664 On ch=3 n=60 v=100
7526849 Off ch=3 n=7 v=0
7526859 Off ch=3 n=56 v=0
7526956 Off ch=3 n=60 v=0
7527331 On ch=3 n=16 v=100
7527389 Off ch=3 n=16 v=0
7527451 On ch=3 n=16 v=100
7527451 On ch=3 n=8 v=100
7527628 Off ch=3 n=16 v=0
7527885 On ch=3 n=25 v=100
7527990 Off ch=3 n=8 v=0
7528020 Off ch=3 n=25 v=0
7528098 On ch=3 n=5 v=100
7528647 Off ch=3 n=5 v=0
7529966 On ch=3 n=42 v=100
7530147 Off ch=3 n=42 v=0
7530245 On ch=3 n=51 v=100
7530421 Off ch=3 n=51 v=0
7530423 On ch=3 n=9 v=100
7530632 Off ch=3 n=9 v=0
7531171 On ch=3 n=8 v=100
7531194 On ch=3 n=5 v=100
7531355 Off ch=3 n=8 v=0
7531895 Off ch=3 n=5 v=0
7532027 On ch=3 n=21 v=100
7532131 On ch=3 n=8 v=100
7532139 Off ch=3 n=21 v=0
7532203 On ch=3 n=47 v=100
7532303 Off ch=3 n=8 v=0
7532305 On ch=3 n=6 v=100
7532405 Off ch=3 n=47 v=0
7532405 Off ch=3 n=6 v=0
7532411 On ch=3 n=12 v=100
7532630 On ch=3 n=17 v=100
7532631 Off ch=3 n=12 v=0
7532835 Off ch=3 n=17 v=0
7534091 On ch=3 n=15 v=100
7534232 Off ch=3 n=15 v=0
7534236 On ch=3 n=20 v=100
7534283 On ch=3 n=23 v=100
7534355 On ch=3 n=15 v=100
7534357 Off ch=3 n=20 v=0
7534376 On ch=3 n=20 v=100
7534466 Off ch=3 n=23 v=0
7534620 On ch=3 n=45 v=100
7534705 Off ch=3 n=15 v=0
7534783 Off ch=3 n=20 v=0
7535185 Off ch=3 n=45 v=0
7535729 On ch=3 n=17 v=100
7535884 On ch=3 n=31 v=100
7535963 Off ch=3 n=17 v=0
7535985 Off ch=3 n=31 v=0
7536495 On ch=3 n=21 v=100
7536524 On ch=3 n=11 v=100
7536693 Off ch=3 n=21 v=0
7537854 Off ch=3 n=11 v=0
7537990 On ch=3 n=9 v=100
7538100 Off ch=3 n=9 v=0
7538921 On ch=3 n=28 v=100
7538981 On ch=3 n=18 v=100
7538982 Off ch=3 n=28 v=0
7539425 Off ch=3 n=18 v=0
7540668 On ch=3 n=10 v=100
7541694 Off ch=3 n=10 v=0
7543152 On ch=3 n=15 v=100
7543349 Off ch=3 n=15 v=0
7543350 On ch=3 n=15 v=100
7543350 On ch=3 n=19 v=100
7543358 On ch=3 n=25 v=100
7543480 Off ch=3 n=15 v=0
7543482 On ch=3 n=11 v=100
7543497 Off ch=3 n=19 v=0
7543540 Off ch=3 n=25 v=0
7543577 Off ch=3 n=11 v=0
7544160 On ch=3 n=7 v=100
7544775 On ch=3 n=10 v=100
7544776 Off ch=3 n=7 v=0
7545674 On ch=3 n=6 v=100
7545685 Off ch=3 n=10 v=0
7546172 Off ch=3 n=6 v=0
7546175 On ch=3 n=12 v=100
7546235 Off ch=3 n=12 v=0
7546238 On ch=3 n=6 v=100
7546433 Off ch=3 n=6 v=0
7546485 On ch=3 n=32 v=100
7546595 On ch=3 n=34 v=100
7546686 Off ch=3 n=32 v=0
7546699 On ch=3 n=16 v=100
7546703 Off ch=3 n=34 v=0
7546808 Off ch=3 n=16 v=0
7546866 On ch=3 n=16 v=100
7546894 Off ch=3 n=16 v=0
7546922 On ch=3 n=16 v=100
7547281 Off ch=3 n=16 v=0
7547324 Off ch=3 n=16 v=0
7547325 On ch=3 n=28 v=100
7547325 On ch=3 n=16 v=100
7547532 Off ch=3 n=28 v=0
7548188 On ch=3 n=23 v=100
7548327 Off ch=3 n=23 v=0
7548331 On ch=3 n=24 v=100
7548481 Off ch=3 n=24 v=0
7549643 On ch=3 n=49 v=100
7549664 On ch=3 n=28 v=100
7549770 Off ch=3 n=49 v=0
7549771 On ch=3 n=12 v=100
7549771 Off ch=3 n=28 v=0
7550226 On ch=3 n=23 v=100
7550231 On ch=3 n=11 v=100
7550246 Off ch=3 n=12 v=0
7550908 Off ch=3 n=11 v=0
7551102 On ch=3 n=21 v=100
7551127 On ch=3 n=39 v=100
7551129 On ch=3 n=60 v=100
7551132 Off ch=3 n=23 v=0
7551134 On ch=3 n=8 v=100
7551326 Off ch=3 n=8 v=0
7551357 On ch=3 n=18 v=100
7551383 Off ch=3 n=21 v=0
7551446 Off ch=3 n=39 v=0
7551606 On ch=3 n=16 v=100
7551727 Off ch=3 n=60 v=0
7551868 Off ch=3 n=18 v=0
7551883 On ch=3 n=25 v=100
7551899 Off ch=3 n=16 v=0
7552018 Off ch=3 n=25 v=0
7553187 On ch=3 n=20 v=100
7553214 On ch=3 n=28 v=100
7553400 Off ch=3 n=20 v=0
7553453 Off ch=3 n=28 v=0
7553454 On ch=3 n=4 v=100
7553576 Off ch=3 n=4 v=0
7553592 On ch=3 n=26 v=100
7553676 Off ch=3 n=26 v=0
7553838 On ch=3 n=10 v=100
7554867 Off ch=3 n=10 v=0
7555107 On ch=3 n=30 v=100
7555248 Off ch=3 n=30 v=0
7555253 On ch=3 n=17 v=100
7555371 Off ch=3 n=17 v=0
7555815 On ch=3 n=32 v=100
7555815 On ch=3 n=32 v=100
7555877 On ch=3 n=22 v=100
7555904 On ch=3 n=41 v=100
7555904 On ch=3 n=41 v=100
7556116 Off ch=3 n=22 v=0
7556117 Off ch=3 n=32 v=0
7556117 Off ch=3 n=32 v=0
7556218 On ch=3 n=6 v=100
7556226 Off ch=3 n=41 v=0
7556226 Off ch=3 n=41 v=0
7557409 Off ch=3 n=6 v=0
7557833 On ch=3 n=43 v=100
7557874 On ch=3 n=40 v=100
7557909 On ch=3 n=33 v=100
7557936 On ch=3 n=35 v=100
7557936 On ch=3 n=35 v=100
7557952 On ch=3 n=18 v=100
7558085 Off ch=3 n=43 v=0
7558087 Off ch=3 n=40 v=0
7558088 Off ch=3 n=33 v=0
7558094 Off ch=3 n=18 v=0
7558134 Off ch=3 n=35 v=0
7558134 Off ch=3 n=35 v=0
7558289 On ch=3 n=10 v=100
7558780 Off ch=3 n=10 v=0
7559712 On ch=3 n=48 v=100
7559732 On ch=3 n=46 v=100
7559757 On ch=3 n=32 v=100
7559768 On ch=3 n=9 v=100
7559831 On ch=3 n=40 v=100
7559856 Off ch=3 n=48 v=0
7559858 Off ch=3 n=46 v=0
7559859 Off ch=3 n=32 v=0
7559948 Off ch=3 n=9 v=0
7559971 Off ch=3 n=40 v=0
7560434 On ch=3 n=39 v=100
7560458 On ch=3 n=24 v=100
7560495 On ch=3 n=17 v=100
7560498 Off ch=3 n=39 v=0
7560636 Off ch=3 n=24 v=0
7560695 Off ch=3 n=17 v=0
7560725 On ch=3 n=9 v=100
7560870 Off ch=3 n=9 v=0
7560883 On ch=3 n=7 v=100
7561022 Off ch=3 n=7 v=0
7561555 On ch=3 n=7 v=100
7561814 On ch=3 n=8 v=100
7561822 Off ch=3 n=7 v=0
7562297 Off ch=3 n=8 v=0
7562298 On ch=3 n=7 v=100
7562537 On ch=3 n=7 v=100
7562540 Off ch=3 n=7 v=0
7562648 Off ch=3 n=7 v=0
7562803 On ch=3 n=29 v=100
7562864 Off ch=3 n=29 v=0
7562866 On ch=3 n=7 v=100
7563627 Off ch=3 n=7 v=0
7563836 On ch=3 n=22 v=100
7564035 On ch=3 n=22 v=100
7564414 Off ch=3 n=22 v=0
7564630 Off ch=3 n=22 v=0
7568088 On ch=3 n=41 v=100
7568166 On ch=3 n=34 v=100
7568166 On ch=3 n=23 v=100
7568173 On ch=3 n=11 v=100
7568366 Off ch=3 n=11 v=0
7568367 On ch=3 n=16 v=100
7568374 Off ch=3 n=41 v=0
7568393 Off ch=3 n=23 v=0
7568443 Off ch=3 n=34 v=0
7568630 Off ch=3 n=16 v=0
7568634 On ch=3 n=29 v=100
7568819 Off ch=3 n=29 v=0
7569427 On ch=3 n=32 v=100
7569471 On ch=3 n=20 v=100
7569603 Off ch=3 n=32 v=0
7569606 Off ch=3 n=20 v=0
7569977 On ch=3 n=34 v=100
7570021 On ch=3 n=45 v=100
7570021 On ch=3 n=45 v=100
7570048 On ch=3 n=9 v=100
7570237 Off ch=3 n=9 v=0
7570244 Off ch=3 n=34 v=0
7570279 Off ch=3 n=45 v=0
7570279 Off ch=3 n=45 v=0
7570287 On ch=3 n=29 v=100
7570408 Off ch=3 n=29 v=0
7572085 On ch=3 n=12 v=100
7572273 Off ch=3 n=12 v=0
7572286 On ch=3 n=23 v=100
7572412 Off ch=3 n=23 v=0
7572429 On ch=3 n=7 v=100
7573211 Off ch=3 n=7 v=0
7573219 On ch=3 n=22 v=100
7573511 Off ch=3 n=22 v=0
7573587 On ch=3 n=19 v=100
7574153 On ch=3 n=3 v=100
7574156 Off ch=3 n=19 v=0
7575653 Off ch=3 n=3 v=0
7575752 On ch=3 n=44 v=100
7575949 Off ch=3 n=44 v=0
7576704 On ch=3 n=9 v=100
7576888 Off ch=3 n=9 v=0
7577402 On ch=3 n=14 v=100
7577846 On ch=3 n=21 v=100
7577873 Off ch=3 n=14 v=0
7577882 Off ch=3 n=21 v=0
7578289 On ch=3 n=13 v=100
7578389 On ch=3 n=13 v=100
7578391 Off ch=3 n=13 v=0
7578461 On ch=3 n=16 v=100
7578524 Off ch=3 n=13 v=0
7578679 Off ch=3 n=16 v=0
7579996 On ch=3 n=32 v=100
7580029 On ch=3 n=30 v=100
7580110 On ch=3 n=12 v=100
7580133 Off ch=3 n=32 v=0
7580325 On ch=3 n=24 v=100
7580341 Off ch=3 n=30 v=0
7580353 Off ch=3 n=12 v=0
7580357 On ch=3 n=21 v=100
7580488 On ch=3 n=20 v=100
7580544 On ch=3 n=14 v=100
7580611 Off ch=3 n=21 v=0
7580612 Off ch=3 n=24 v=0
7580693 Off ch=3 n=20 v=0
7581571 Off ch=3 n=14 v=0
7582890 On ch=3 n=27 v=100
7582902 On ch=3 n=14 v=100
7582970 Off ch=3 n=27 v=0
7582971 Off ch=3 n=14 v=0
7583406 On ch=3 n=23 v=100
7583454 Off ch=3 n=23 v=0
7583691 On ch=3 n=11 v=100
7583871 On ch=3 n=17 v=100
7583961 Off ch=3 n=11 v=0
7584042 On ch=3 n=8 v=100
7584046 Off ch=3 n=17 v=0
7584342 Off ch=3 n=8 v=0
7584445 On ch=3 n=15 v=100
7584445 On ch=3 n=23 v=100
7584471 On ch=3 n=37 v=100
7584584 Off ch=3 n=15 v=0
7584610 Off ch=3 n=23 v=0
7584649 Off ch=3 n=37 v=0
7585879 On ch=3 n=16 v=100
7586123 Off ch=3 n=16 v=0
7586167 On ch=3 n=16 v=100
7586252 Off ch=3 n=16 v=0
7586390 On ch=3 n=10 v=100
7586429 Off ch=3 n=10 v=0
7586511 On ch=3 n=15 v=100
7586683 Off ch=3 n=15 v=0
7586781 On ch=3 n=32 v=100
7587077 Off ch=3 n=32 v=0
7587086 On ch=3 n=22 v=100
7587177 Off ch=3 n=22 v=0
7587192 On ch=3 n=12 v=100
7587228 Off ch=3 n=12 v=0
7588558 On ch=3 n=27 v=100
7588608 On ch=3 n=30 v=100
7588770 Off ch=3 n=27 v=0
7588785 On ch=3 n=8 v=100
7588899 Off ch=3 n=30 v=0
7589289 On ch=3 n=3 v=100
7589303 Off ch=3 n=8 v=0
7589436 On ch=3 n=12 v=100
7589537 Off ch=3 n=3 v=0
7589931 Off ch=3 n=12 v=0
7590816 On ch=3 n=19 v=100
7590819 On ch=3 n=7 v=100
7591119 Off ch=3 n=7 v=0
7591195 Off ch=3 n=19 v=0
7591631 On ch=3 n=30 v=100
7591651 On ch=3 n=14 v=100
7591802 Off ch=3 n=30 v=0
7591816 Off ch=3 n=14 v=0
7592522 On ch=3 n=15 v=100
7593127 Off ch=3 n=15 v=0
7593156 On ch=3 n=15 v=100
7593488 Off ch=3 n=15 v=0
7593509 On ch=3 n=13 v=100
7593510 On ch=3 n=24 v=100
7593862 On ch=3 n=71 v=100
7593862 Off ch=3 n=13 v=0
7593887 On ch=3 n=38 v=100
7593924 Off ch=3 n=24 v=0
7593938 On ch=3 n=21 v=100
7593979 Off ch=3 n=71 v=0
7593993 Off ch=3 n=38 v=0
7594108 Off ch=3 n=21 v=0
7594885 On ch=3 n=16 v=100
7595420 Off ch=3 n=16 v=0
7596325 On ch=3 n=13 v=100
7596715 Off ch=3 n=13 v=0
7596941 On ch=3 n=24 v=100
7597060 Off ch=3 n=24 v=0
7597702 On ch=3 n=25 v=100
7597788 Off ch=3 n=25 v=0
7597991 On ch=3 n=14 v=100
7598051 Off ch=3 n=14 v=0
7599120 On ch=3 n=27 v=100
7599155 On ch=3 n=33 v=100
7599198 Off ch=3 n=27 v=0
7599221 On ch=3 n=29 v=100
7599478 Off ch=3 n=33 v=0
7599768 On ch=3 n=49 v=100
7599802 On ch=3 n=45 v=100
7599816 Off ch=3 n=29 v=0
7599883 On ch=3 n=36 v=100
7599883 Off ch=3 n=49 v=0
7599949 Off ch=3 n=45 v=0
7599973 On ch=3 n=25 v=100
7599976 Off ch=3 n=36 v=0
7599983 On ch=3 n=24 v=100
7599992 On ch=3 n=12 v=100
7600123 Off ch=3 n=12 v=0
7600156 Off ch=3 n=24 v=0
7600158 On ch=3 n=45 v=100
7600158 On ch=3 n=45 v=100
7600177 Off ch=3 n=25 v=0
7600260 On ch=3 n=25 v=100
7600488 Off ch=3 n=25 v=0
7600632 Off ch=3 n=45 v=0
7600632 Off ch=3 n=45 v=0
7600740 On ch=3 n=42 v=100
7600776 On ch=3 n=31 v=100
7600823 On ch=3 n=25 v=100
7601048 Off ch=3 n=31 v=0
7601048 Off ch=3 n=25 v=0
7601049 Off ch=3 n=42 v=0
7602778 On ch=3 n=16 v=100
7602842 On ch=3 n=9 v=100
7602856 On ch=3 n=33 v=100
7603127 Off ch=3 n=16 v=0
7603127 Off ch=3 n=9 v=0
7603294 On ch=3 n=39 v=100
7603376 On ch=3 n=24 v=100
7603401 Off ch=3 n=33 v=0
7603450 On ch=3 n=24 v=100
7603592 Off ch=3 n=24 v=0
7603598 Off ch=3 n=39 v=0
7603718 Off ch=3 n=24 v=0
7604990 On ch=3 n=21 v=100
7605184 Off ch=3 n=21 v=0
7605216 On ch=3 n=34 v=100
7605627 On ch=3 n=27 v=100
7605872 Off ch=3 n=34 v=0
7605948 On ch=3 n=48 v=100
7605967 On ch=3 n=38 v=100
7606115 On ch=3 n=9 v=100
7606132 Off ch=3 n=27 v=0
7606165 Off ch=3 n=38 v=0
7606170 Off ch=3 n=48 v=0
7606783 Off ch=3 n=9 v=0
7607694 On ch=3 n=22 v=100
7607735 Off ch=3 n=22 v=0
7612121 On ch=3 n=26 v=100
7612239 On ch=3 n=10 v=100
7612506 Off ch=3 n=26 v=0
7613236 Off ch=3 n=10 v=0
7613241 On ch=3 n=16 v=100
7613431 Off ch=3 n=16 v=0
7616094 On ch=3 n=24 v=100
7616660 Off ch=3 n=24 v=0
7616711 On ch=3 n=27 v=100
7616812 Off ch=3 n=27 v=0
7618187 On ch=3 n=12 v=100
7618682 Off ch=3 n=12 v=0
7619387 On ch=3 n=12 v=100
7619567 Off ch=3 n=12 v=0
7619568 On ch=3 n=15 v=100
7619694 On ch=3 n=38 v=100
7619753 Off ch=3 n=15 v=0
7619763 Off ch=3 n=38 v=0
7623024 On ch=3 n=4 v=100
7624042 Off ch=3 n=4 v=0
7624107 On ch=3 n=4 v=100
7624307 Off ch=3 n=4 v=0
7624380 On ch=3 n=43 v=100
7624511 On ch=3 n=32 v=100
7624515 On ch=3 n=48 v=100
7624582 On ch=3 n=37 v=100
7624638 On ch=3 n=50 v=100
7624712 Off ch=3 n=32 v=0
7624714 Off ch=3 n=43 v=0
7624736 On ch=3 n=10 v=100
7624750 Off ch=3 n=48 v=0
7624752 Off ch=3 n=37 v=0
7624778 Off ch=3 n=50 v=0
7625694 On ch=3 n=18 v=100
7625697 Off ch=3 n=10 v=0
7626907 On ch=3 n=11 v=100
7626910 Off ch=3 n=18 v=0
7626953 Off ch=3 n=11 v=0
7630839 On ch=3 n=14 v=100
7630901 On ch=3 n=9 v=100
7631349 On ch=3 n=33 v=100
7631415 Off ch=3 n=14 v=0
7631471 On ch=3 n=9 v=100
7631480 Off ch=3 n=9 v=0
7631516 Off ch=3 n=33 v=0
7631757 Off ch=3 n=9 v=0
7632733 On ch=3 n=16 v=100
7632757 On ch=3 n=20 v=100
7632781 On ch=3 n=17 v=100
7632781 Off ch=3 n=16 v=0
7632838 Off ch=3 n=20 v=0
7633208 Off ch=3 n=17 v=0
7633223 On ch=3 n=19 v=100
7633263 Off ch=3 n=19 v=0
7633279 On ch=3 n=9 v=100
7633744 On ch=3 n=19 v=100
7633748 Off ch=3 n=9 v=0
7634050 On ch=3 n=16 v=100
7634052 Off ch=3 n=19 v=0
7634477 Off ch=3 n=16 v=0
7634482 On ch=3 n=8 v=100
7635638 On ch=3 n=25 v=100
7635713 On ch=3 n=27 v=100
7635715 Off ch=3 n=8 v=0
7635777 Off ch=3 n=25 v=0
7635909 Off ch=3 n=27 v=0
7635952 On ch=3 n=44 v=100
7636150 Off ch=3 n=44 v=0
7636762 On ch=3 n=21 v=100
7636886 Off ch=3 n=21 v=0
7637077 On ch=3 n=17 v=100
7637277 On ch=3 n=25 v=100
7637425 On ch=3 n=14 v=100
7637442 Off ch=3 n=17 v=0
7637725 Off ch=3 n=25 v=0
7637782 Off ch=3 n=14 v=0
7638217 On ch=3 n=14 v=100
7638584 On ch=3 n=17 v=100
7638603 Off ch=3 n=14 v=0
7638710 Off ch=3 n=17 v=0
7638877 On ch=3 n=18 v=100
7638893 On ch=3 n=11 v=100
7639005 Off ch=3 n=18 v=0
7639204 On ch=3 n=19 v=100
7639306 Off ch=3 n=11 v=0
7639344 On ch=3 n=16 v=100
7639363 Off ch=3 n=19 v=0
7639390 On ch=3 n=8 v=100
7639420 Off ch=3 n=16 v=0
7639427 Off ch=3 n=8 v=0
7639444 On ch=3 n=8 v=100
7639755 Off ch=3 n=8 v=0
7639765 On ch=3 n=4 v=100
7639797 Off ch=3 n=4 v=0
7640433 On ch=3 n=8 v=100
7641006 Off ch=3 n=8 v=0
7641010 On ch=3 n=2 v=100
7641769 Off ch=3 n=2 v=0
7641773 On ch=3 n=8 v=100
7642140 On ch=3 n=27 v=100
7642142 Off ch=3 n=8 v=0
7642291 Off ch=3 n=27 v=0
7642292 On ch=3 n=17 v=100
7642393 Off ch=3 n=17 v=0
7644223 On ch=3 n=12 v=100
7644874 Off ch=3 n=12 v=0
7646848 On ch=3 n=30 v=100
7646848 On ch=3 n=30 v=100
7646849 On ch=3 n=41 v=100
7646849 On ch=3 n=41 v=100
7646898 On ch=3 n=6 v=100
7646940 Off ch=3 n=30 v=0
7646940 Off ch=3 n=30 v=0
7647109 Off ch=3 n=6 v=0
7647158 Off ch=3 n=41 v=0
7647158 Off ch=3 n=41 v=0
7647826 On ch=3 n=18 v=100
7647907 Off ch=3 n=18 v=0
7649195 On ch=3 n=8 v=100
7649269 Off ch=3 n=8 v=0
7649332 On ch=3 n=8 v=100
7649625 On ch=3 n=6 v=100
7649626 Off ch=3 n=8 v=0
7650098 Off ch=3 n=6 v=0
7650817 On ch=3 n=10 v=100
7651066 Off ch=3 n=10 v=0
7651123 On ch=3 n=14 v=100
7651467 On ch=3 n=11 v=100
7651475 Off ch=3 n=14 v=0
7651685 On ch=3 n=11 v=100
7651693 Off ch=3 n=11 v=0
7651971 Off ch=3 n=11 v=0
7652173 On ch=3 n=24 v=100
7652173 On ch=3 n=27 v=100
7652173 On ch=3 n=38 v=100
7652280 Off ch=3 n=24 v=0
7652346 Off ch=3 n=27 v=0
7652399 Off ch=3 n=38 v=0
7653312 On ch=3 n=6 v=100
7654227 Off ch=3 n=6 v=0
7654419 On ch=3 n=30 v=100
7654516 Off ch=3 n=30 v=0
7656856 On ch=3 n=12 v=100
7657060 Off ch=3 n=12 v=0
7658451 On ch=3 n=13 v=100
7658627 On ch=3 n=8 v=100
7658627 Off ch=3 n=13 v=0
7658884 Off ch=3 n=8 v=0
7658947 On ch=3 n=8 v=100
7659060 On ch=3 n=25 v=100
7659080 Off ch=3 n=8 v=0
7659084 On ch=3 n=18 v=100
7659085 On ch=3 n=39 v=100
7659188 Off ch=3 n=25 v=0
7659192 On ch=3 n=12 v=100
7659197 Off ch=3 n=18 v=0
7659456 Off ch=3 n=39 v=0
7659623 On ch=3 n=15 v=100
7659776 Off ch=3 n=12 v=0
7659798 Off ch=3 n=15 v=0
7659811 On ch=3 n=25 v=100
7659815 On ch=3 n=27 v=100
7659826 On ch=3 n=30 v=100
7659826 On ch=3 n=41 v=100
7659866 Off ch=3 n=27 v=0
7659869 Off ch=3 n=25 v=0
7659884 Off ch=3 n=30 v=0
7659920 Off ch=3 n=41 v=0
7660032 On ch=3 n=12 v=100
7660477 Off ch=3 n=12 v=0
7661651 On ch=3 n=17 v=100
7661752 On ch=3 n=41 v=100
7661757 On ch=3 n=24 v=100
7662016 On ch=3 n=44 v=100
7662079 Off ch=3 n=17 v=0
7662081 On ch=3 n=11 v=100
7662233 Off ch=3 n=24 v=0
7662323 Off ch=3 n=41 v=0
7662367 Off ch=3 n=44 v=0
7662425 On ch=3 n=20 v=100
7662437 Off ch=3 n=11 v=0
7662517 On ch=3 n=13 v=100
7662845 On ch=3 n=14 v=100
7662907 Off ch=3 n=20 v=0
7662907 Off ch=3 n=13 v=0
7662915 Off ch=3 n=14 v=0
7663401 On ch=3 n=8 v=100
7663513 On ch=3 n=27 v=100
7663524 Off ch=3 n=8 v=0
7663535 On ch=3 n=20 v=100
7663541 On ch=3 n=13 v=100
7663643 Off ch=3 n=27 v=0
7663659 Off ch=3 n=20 v=0
7663663 On ch=3 n=29 v=100
7663702 Off ch=3 n=13 v=0
7663755 On ch=3 n=18 v=100
7663782 Off ch=3 n=29 v=0
7663843 Off ch=3 n=18 v=0
7663997 On ch=3 n=30 v=100
7664037 On ch=3 n=19 v=100
7664271 Off ch=3 n=19 v=0
7664281 Off ch=3 n=30 v=0
7665240 On ch=3 n=6 v=100
7665484 Off ch=3 n=6 v=0
7674516 On ch=3 n=37 v=100
7674516 On ch=3 n=37 v=100
7674574 On ch=3 n=21 v=100
7674575 On ch=3 n=36 v=100
7674575 On ch=3 n=36 v=100
7674806 Off ch=3 n=21 v=0
7674809 Off ch=3 n=37 v=0
7674809 Off ch=3 n=37 v=0
7674840 Off ch=3 n=36 v=0
7674840 Off ch=3 n=36 v=0
7675691 On ch=3 n=4 v=100
7675941 On ch=3 n=12 v=100
7676172 Off ch=3 n=4 v=0
7676927 Off ch=3 n=12 v=0
7677141 On ch=3 n=45 v=100
7677222 Off ch=3 n=45 v=0
7677471 On ch=3 n=22 v=100
7677591 Off ch=3 n=22 v=0
7677734 On ch=3 n=0 v=100
7678781 Off ch=3 n=0 v=0
7678978 On ch=3 n=25 v=100
7679058 Off ch=3 n=25 v=0
7679466 On ch=3 n=10 v=100
7679529 Off ch=3 n=10 v=0
7679533 On ch=3 n=6 v=100
7680190 Off ch=3 n=6 v=0
7680228 On ch=3 n=14 v=100
7680556 Off ch=3 n=14 v=0
7680666 On ch=3 n=25 v=100
7680831 Off ch=3 n=25 v=0
7680856 On ch=3 n=9 v=100
7681636 Off ch=3 n=9 v=0
7682520 On ch=3 n=16 v=100
7682613 Off ch=3 n=16 v=0
7682815 On ch=3 n=16 v=100
7682931 Off ch=3 n=16 v=0
7682934 On ch=3 n=35 v=100
7683542 Off ch=3 n=35 v=0
7684988 On ch=3 n=9 v=100
7685244 Off ch=3 n=9 v=0
7685247 On ch=3 n=13 v=100
7685996 On ch=3 n=2 v=100
7685996 Off ch=3 n=13 v=0
7686042 On ch=3 n=1 v=100
7686042 Off ch=3 n=2 v=0
7687512 Off ch=3 n=1 v=0
7687513 On ch=3 n=0 v=100
7688212 Off ch=3 n=0 v=0
7688214 On ch=3 n=4 v=100
7689385 Off ch=3 n=4 v=0
7690630 On ch=3 n=16 v=100
7690786 On ch=3 n=33 v=100
7690811 On ch=3 n=19 v=100
7690811 On ch=3 n=19 v=100
7690824 On ch=3 n=10 v=100
7690826 Off ch=3 n=16 v=0
7691017 Off ch=3 n=10 v=0
7691028 Off ch=3 n=19 v=0
7691028 Off ch=3 n=19 v=0
7691030 Off ch=3 n=33 v=0
7691035 On ch=3 n=15 v=100
7691107 On ch=3 n=37 v=100
7691211 Off ch=3 n=15 v=0
7691221 On ch=3 n=23 v=100
7691305 Off ch=3 n=37 v=0
7691559 Off ch=3 n=23 v=0
7695487 On ch=3 n=15 v=100
7695605 Off ch=3 n=15 v=0
7695607 On ch=3 n=10 v=100
7695681 On ch=3 n=20 v=100
7695684 Off ch=3 n=10 v=0
7695877 On ch=3 n=22 v=100
7696231 Off ch=3 n=20 v=0
7696434 Off ch=3 n=22 v=0
7696465 On ch=3 n=13 v=100
7696550 Off ch=3 n=13 v=0
7696917 On ch=3 n=9 v=100
7697105 On ch=3 n=41 v=100
7697307 Off ch=3 n=9 v=0
7697331 Off ch=3 n=41 v=0
7698465 On ch=3 n=20 v=100
7698501 On ch=3 n=16 v=100
7698534 Off ch=3 n=20 v=0
7699204 Off ch=3 n=16 v=0
7701978 On ch=3 n=11 v=100
7702522 Off ch=3 n=11 v=0
7702623 On ch=3 n=30 v=100
7702656 On ch=3 n=10 v=100
7702787 On ch=3 n=26 v=100
7702791 Off ch=3 n=30 v=0
7702824 Off ch=3 n=10 v=0
7702964 On ch=3 n=16 v=100
7703675 Off ch=3 n=26 v=0
7704117 On ch=3 n=24 v=100
7704142 Off ch=3 n=16 v=0
7704323 Off ch=3 n=24 v=0
7709520 On ch=3 n=10 v=100
7710055 Off ch=3 n=10 v=0
7710156 On ch=3 n=30 v=100
7710189 On ch=3 n=10 v=100
7710320 On ch=3 n=25 v=100
7710324 Off ch=3 n=30 v=0
7710357 Off ch=3 n=10 v=0
7710496 On ch=3 n=16 v=100
7711215 Off ch=3 n=25 v=0
7711657 On ch=3 n=24 v=100
7711684 Off ch=3 n=16 v=0
7711859 Off ch=3 n=24 v=0
7714261 On ch=3 n=10 v=100
7714802 Off ch=3 n=10 v=0
7714936 On ch=3 n=11 v=100
7715066 On ch=3 n=25 v=100
7715105 Off ch=3 n=11 v=0
7715243 On ch=3 n=17 v=100
7715957 Off ch=3 n=25 v=0
7716440 Off ch=3 n=17 v=0
7718982 On ch=3 n=10 v=100
7719531 Off ch=3 n=10 v=0
7719618 On ch=3 n=17 v=100
7720548 On ch=3 n=31 v=100
7720574 Off ch=3 n=17 v=0
7720773 Off ch=3 n=31 v=0
7723170 On ch=3 n=10 v=100
7723715 Off ch=3 n=10 v=0
7723816 On ch=3 n=27 v=100
7723849 On ch=3 n=10 v=100
7723971 On ch=3 n=28 v=100
7723972 Off ch=3 n=27 v=0
7724007 Off ch=3 n=10 v=0
7724147 On ch=3 n=18 v=100
7724824 Off ch=3 n=28 v=0
7725263 On ch=3 n=31 v=100
7725289 Off ch=3 n=18 v=0
7725487 Off ch=3 n=31 v=0
7727365 On ch=3 n=28 v=100
7727506 Off ch=3 n=28 v=0
7727804 On ch=3 n=20 v=100
7727804 On ch=3 n=18 v=100
7727937 Off ch=3 n=18 v=0
7727967 Off ch=3 n=20 v=0
7728806 On ch=3 n=27 v=100
7728976 Off ch=3 n=27 v=0
7729482 On ch=3 n=21 v=100
7729923 Off ch=3 n=21 v=0
7730615 On ch=3 n=31 v=100
7730620 On ch=3 n=30 v=100
7730824 Off ch=3 n=30 v=0
7730913 Off ch=3 n=31 v=0
7731312 On ch=3 n=4 v=100
7731988 Off ch=3 n=4 v=0
7732158 On ch=3 n=16 v=100
7732202 On ch=3 n=17 v=100
7732400 On ch=3 n=33 v=100
7732476 Off ch=3 n=16 v=0
7732530 Off ch=3 n=17 v=0
7732553 Off ch=3 n=33 v=0
7733399 On ch=3 n=11 v=100
7733433 On ch=3 n=10 v=100
7733530 Off ch=3 n=11 v=0
7733539 Off ch=3 n=10 v=0
7733968 On ch=3 n=4 v=100
7734374 Off ch=3 n=4 v=0
7734506 On ch=3 n=34 v=100
7734506 On ch=3 n=34 v=100
7734567 On ch=3 n=21 v=100
7734642 Off ch=3 n=21 v=0
7734643 On ch=3 n=6 v=100
7734654 Off ch=3 n=34 v=0
7734654 Off ch=3 n=34 v=0
7735077 Off ch=3 n=6 v=0
7735078 On ch=3 n=15 v=100
7735295 Off ch=3 n=15 v=0
7735891 On ch=3 n=18 v=100
7735939 On ch=3 n=22 v=100
7736179 Off ch=3 n=18 v=0
7736324 Off ch=3 n=22 v=0
7737218 On ch=3 n=12 v=100
7737337 Off ch=3 n=12 v=0
7737437 On ch=3 n=25 v=100
7737899 Off ch=3 n=25 v=0
7738094 On ch=3 n=9 v=100
7738145 On ch=3 n=19 v=100
7738215 Off ch=3 n=9 v=0
7738250 On ch=3 n=7 v=100
7738250 On ch=3 n=23 v=100
7738368 Off ch=3 n=7 v=0
7738369 Off ch=3 n=19 v=0
7738400 Off ch=3 n=23 v=0
7739276 On ch=3 n=11 v=100
7739503 Off ch=3 n=11 v=0
7739544 On ch=3 n=50 v=100
7740198 On ch=3 n=15 v=100
7740412 Off ch=3 n=50 v=0
7740445 Off ch=3 n=15 v=0
7740456 On ch=3 n=18 v=100
7740838 On ch=3 n=10 v=100
7740838 Off ch=3 n=18 v=0
7740864 On ch=3 n=23 v=100
7741016 Off ch=3 n=10 v=0
7741193 On ch=3 n=20 v=100
7741196 On ch=3 n=13 v=100
7741509 Off ch=3 n=23 v=0
7741620 Off ch=3 n=13 v=0
7741715 Off ch=3 n=20 v=0
7741929 On ch=3 n=21 v=100
7741937 On ch=3 n=11 v=100
7742050 On ch=3 n=12 v=100
7742059 On ch=3 n=20 v=100
7742471 Off ch=3 n=11 v=0
7742494 Off ch=3 n=12 v=0
7742541 Off ch=3 n=21 v=0
7742615 Off ch=3 n=20 v=0
7743632 On ch=3 n=7 v=100
7743713 Off ch=3 n=7 v=0
7743715 On ch=3 n=12 v=100
7743922 Off ch=3 n=12 v=0
7743937 On ch=3 n=7 v=100
7744488 On ch=3 n=12 v=100
7744489 Off ch=3 n=7 v=0
7744649 On ch=3 n=16 v=100
7744655 Off ch=3 n=12 v=0
7744943 Off ch=3 n=16 v=0
7745096 On ch=3 n=44 v=100
7745319 On ch=3 n=51 v=100
7745334 On ch=3 n=7 v=100
7745492 Off ch=3 n=44 v=0
7745492 Off ch=3 n=7 v=0
7745495 On ch=3 n=7 v=100
7745596 Off ch=3 n=51 v=0
7746173 On ch=3 n=22 v=100
7746174 On ch=3 n=29 v=100
7746186 On ch=3 n=12 v=100
7746192 Off ch=3 n=7 v=0
7746226 Off ch=3 n=12 v=0
7746234 Off ch=3 n=22 v=0
7746249 Off ch=3 n=29 v=0
7746328 On ch=3 n=15 v=100
7746845 Off ch=3 n=15 v=0
7747205 On ch=3 n=9 v=100
7747654 Off ch=3 n=9 v=0
7749481 On ch=3 n=30 v=100
7749646 On ch=3 n=18 v=100
7749711 On ch=3 n=20 v=100
7749845 Off ch=3 n=18 v=0
7749848 Off ch=3 n=30 v=0
7749901 Off ch=3 n=20 v=0
7750346 On ch=3 n=12 v=100
7751147 Off ch=3 n=12 v=0
7751181 On ch=3 n=19 v=100
7751607 On ch=3 n=34 v=100
7751607 On ch=3 n=34 v=100
7751619 Off ch=3 n=19 v=0
7751658 On ch=3 n=17 v=100
7751705 On ch=3 n=12 v=100
7751757 On ch=3 n=16 v=100
7751757 On ch=3 n=16 v=100
7751859 On ch=3 n=28 v=100
7751859 On ch=3 n=28 v=100
7751881 Off ch=3 n=34 v=0
7751881 Off ch=3 n=34 v=0
7752132 Off ch=3 n=12 v=0
7752142 Off ch=3 n=17 v=0
7752195 Off ch=3 n=16 v=0
7752195 Off ch=3 n=16 v=0
7752313 Off ch=3 n=28 v=0
7752313 Off ch=3 n=28 v=0
7752724 On ch=3 n=26 v=100
7752826 Off ch=3 n=26 v=0
7754226 On ch=3 n=29 v=100
7754227 On ch=3 n=24 v=100
7754227 On ch=3 n=24 v=100
7754242 On ch=3 n=18 v=100
7754523 Off ch=3 n=18 v=0
7754544 Off ch=3 n=24 v=0
7754544 Off ch=3 n=24 v=0
7754599 Off ch=3 n=29 v=0
7754694 On ch=3 n=10 v=100
7754896 Off ch=3 n=10 v=0
7754926 On ch=3 n=29 v=100
7754981 Off ch=3 n=29 v=0
7755032 On ch=3 n=6 v=100
7755475 Off ch=3 n=6 v=0
7757079 On ch=3 n=6 v=100
7757966 Off ch=3 n=6 v=0
7757967 On ch=3 n=2 v=100
7758009 Off ch=3 n=2 v=0
7758010 On ch=3 n=9 v=100
7758951 On ch=3 n=28 v=100
7759036 On ch=3 n=21 v=100
7759039 Off ch=3 n=9 v=0
7759274 On ch=3 n=24 v=100
7759304 Off ch=3 n=21 v=0
7759359 Off ch=3 n=28 v=0
7759366 On ch=3 n=15 v=100
7759750 Off ch=3 n=24 v=0
7759753 Off ch=3 n=15 v=0
7760248 On ch=3 n=12 v=100
7760565 Off ch=3 n=12 v=0
7760590 On ch=3 n=8 v=100
7760659 On ch=3 n=12 v=100
7760676 Off ch=3 n=8 v=0
7760874 Off ch=3 n=12 v=0
7761047 On ch=3 n=23 v=100
7761143 Off ch=3 n=23 v=0
7761145 On ch=3 n=7 v=100
7761433 Off ch=3 n=7 v=0
7761434 On ch=3 n=29 v=100
7761575 On ch=3 n=33 v=100
7761913 Off ch=3 n=29 v=0
7761957 Off ch=3 n=33 v=0
7762460 On ch=3 n=0 v=100
7762484 Off ch=3 n=0 v=0
7762488 On ch=3 n=9 v=100
7762957 Off ch=3 n=9 v=0
7762960 On ch=3 n=8 v=100
7763024 Off ch=3 n=8 v=0
7765844 On ch=3 n=7 v=100
7765920 On ch=3 n=16 v=100
7766339 Off ch=3 n=7 v=0
7766409 On ch=3 n=29 v=100
7766419 Off ch=3 n=16 v=0
7766505 On ch=3 n=26 v=100
7766506 On ch=3 n=37 v=100
7766596 Off ch=3 n=29 v=0
7766596 Off ch=3 n=26 v=0
7766635 Off ch=3 n=37 v=0
7767383 On ch=3 n=9 v=100
7767964 Off ch=3 n=9 v=0
7767998 On ch=3 n=35 v=100
7768078 On ch=3 n=10 v=100
7768093 Off ch=3 n=35 v=0
7768314 Off ch=3 n=10 v=0
7770037 On ch=3 n=28 v=100
7770037 On ch=3 n=5 v=100
7770121 Off ch=3 n=5 v=0
7770124 On ch=3 n=6 v=100
7770147 Off ch=3 n=28 v=0
7771103 Off ch=3 n=6 v=0
7771763 On ch=3 n=21 v=100
7771950 Off ch=3 n=21 v=0
7772590 On ch=3 n=10 v=100
7773162 Off ch=3 n=10 v=0
7773165 On ch=3 n=10 v=100
7773800 Off ch=3 n=10 v=0
7773802 On ch=3 n=8 v=100
7773952 Off ch=3 n=8 v=0
7773956 On ch=3 n=11 v=100
7774458 Off ch=3 n=11 v=0
7776198 On ch=3 n=10 v=100
7776490 Off ch=3 n=10 v=0
7778438 On ch=3 n=14 v=100
7778540 Off ch=3 n=14 v=0
7778668 On ch=3 n=6 v=100
7778773 Off ch=3 n=6 v=0
7778786 On ch=3 n=4 v=100
7778816 On ch=3 n=6 v=100
7778954 Off ch=3 n=4 v=0
7779109 Off ch=3 n=6 v=0
7779263 On ch=3 n=6 v=100
7779329 Off ch=3 n=6 v=0
7779330 On ch=3 n=9 v=100
7780081 Off ch=3 n=9 v=0
7781065 On ch=3 n=7 v=100
7781722 Off ch=3 n=7 v=0
7783472 On ch=3 n=22 v=100
7783612 Off ch=3 n=22 v=0
7783613 On ch=3 n=10 v=100
7783679 On ch=3 n=13 v=100
7783791 Off ch=3 n=10 v=0
7784171 Off ch=3 n=13 v=0
7784172 On ch=3 n=29 v=100
7784384 Off ch=3 n=29 v=0
7784392 On ch=3 n=21 v=100
7784445 Off ch=3 n=21 v=0
7784470 On ch=3 n=10 v=100
7785247 Off ch=3 n=10 v=0
7786062 On ch=3 n=15 v=100
7786325 Off ch=3 n=15 v=0
7787881 On ch=3 n=39 v=100
7788003 Off ch=3 n=39 v=0
7788017 On ch=3 n=21 v=100
7788204 On ch=3 n=18 v=100
7788208 Off ch=3 n=21 v=0
7788364 Off ch=3 n=18 v=0
7788846 On ch=3 n=10 v=100
7789067 On ch=3 n=35 v=100
7789127 On ch=3 n=30 v=100
7789127 On ch=3 n=30 v=100
7789131 On ch=3 n=22 v=100
7789164 On ch=3 n=31 v=100
7789164 On ch=3 n=31 v=100
7789168 On ch=3 n=24 v=100
7789172 Off ch=3 n=10 v=0
7789174 On ch=3 n=7 v=100
7789358 Off ch=3 n=35 v=0
7789367 Off ch=3 n=7 v=0
7789370 On ch=3 n=11 v=100
7789374 Off ch=3 n=22 v=0
7789396 Off ch=3 n=24 v=0
7789400 Off ch=3 n=30 v=0
7789400 Off ch=3 n=30 v=0
7789421 Off ch=3 n=31 v=0
7789421 Off ch=3 n=31 v=0
7789642 Off ch=3 n=11 v=0
7789738 On ch=3 n=14 v=100
7789809 On ch=3 n=9 v=100
7789930 Off ch=3 n=14 v=0
7790300 Off ch=3 n=9 v=0
7790623 On ch=3 n=28 v=100
7790801 Off ch=3 n=28 v=0
7791009 On ch=3 n=19 v=100
7791206 Off ch=3 n=19 v=0
7791208 On ch=3 n=24 v=100
7791403 Off ch=3 n=24 v=0
7791493 On ch=3 n=37 v=100
7791525 On ch=3 n=23 v=100
7791658 Off ch=3 n=23 v=0
7791665 Off ch=3 n=37 v=0
7791952 On ch=3 n=12 v=100
7792250 Off ch=3 n=12 v=0
7794252 On ch=3 n=36 v=100
7794380 On ch=3 n=23 v=100
7794414 Off ch=3 n=36 v=0
7794414 Off ch=3 n=23 v=0
7794504 On ch=3 n=36 v=100
7794504 On ch=3 n=23 v=100
7794548 On ch=3 n=16 v=100
7794580 On ch=3 n=14 v=100
7794811 Off ch=3 n=36 v=0
7794908 Off ch=3 n=23 v=0
7794968 Off ch=3 n=14 v=0
7794984 Off ch=3 n=16 v=0
7795051 On ch=3 n=37 v=100
7795162 Off ch=3 n=37 v=0
7795232 On ch=3 n=14 v=100
7795469 Off ch=3 n=14 v=0
7795589 On ch=3 n=30 v=100
7795597 On ch=3 n=20 v=100
7795597 On ch=3 n=20 v=100
7795641 On ch=3 n=3 v=100
7795674 On ch=3 n=59 v=100
7795674 On ch=3 n=59 v=100
7795832 Off ch=3 n=3 v=0
7795838 Off ch=3 n=20 v=0
7795838 Off ch=3 n=20 v=0
7795870 Off ch=3 n=30 v=0
7795929 Off ch=3 n=59 v=0
7795929 Off ch=3 n=59 v=0
7796824 On ch=3 n=7 v=100
7797384 Off ch=3 n=7 v=0
7798470 On ch=3 n=12 v=100
7798682 Off ch=3 n=12 v=0
7800458 On ch=3 n=31 v=100
7800623 On ch=3 n=16 v=100
7800659 On ch=3 n=17 v=100
7800659 On ch=3 n=17 v=100
7800671 On ch=3 n=12 v=100
7800719 On ch=3 n=22 v=100
7800871 Off ch=3 n=31 v=0
7801086 Off ch=3 n=12 v=0
7801088 Off ch=3 n=16 v=0
7801090 On ch=3 n=39 v=100
7801146 On ch=3 n=18 v=100
7801149 Off ch=3 n=17 v=0
7801149 Off ch=3 n=17 v=0
7801260 Off ch=3 n=22 v=0
7801364 Off ch=3 n=39 v=0
7801364 Off ch=3 n=18 v=0
7801368 On ch=3 n=6 v=100
7801996 On ch=3 n=8 v=100
7802001 Off ch=3 n=6 v=0
7802456 On ch=3 n=28 v=100
7802493 Off ch=3 n=8 v=0
7802501 Off ch=3 n=28 v=0
7804191 On ch=3 n=7 v=100
7804580 Off ch=3 n=7 v=0
7805052 On ch=3 n=25 v=100
7805187 Off ch=3 n=25 v=0
7806188 On ch=3 n=10 v=100
7806887 Off ch=3 n=10 v=0
7806915 On ch=3 n=11 v=100
7806996 On ch=3 n=16 v=100
7807000 Off ch=3 n=11 v=0
7807037 Off ch=3 n=16 v=0
7807050 On ch=3 n=28 v=100
7807220 Off ch=3 n=28 v=0
7807736 On ch=3 n=12 v=100
7808017 Off ch=3 n=12 v=0
7808199 On ch=3 n=22 v=100
7808241 On ch=3 n=23 v=100
7808244 Off ch=3 n=22 v=0
7808652 Off ch=3 n=23 v=0
7808685 On ch=3 n=25 v=100
7808978 Off ch=3 n=25 v=0
7810127 On ch=3 n=25 v=100
7810140 On ch=3 n=11 v=100
7810218 Off ch=3 n=25 v=0
7810288 On ch=3 n=44 v=100
7810706 Off ch=3 n=11 v=0
7810708 On ch=3 n=10 v=100
7810953 Off ch=3 n=10 v=0
7810958 Off ch=3 n=44 v=0
7811663 On ch=3 n=9 v=100
7811975 Off ch=3 n=9 v=0
7811977 On ch=3 n=3 v=100
7812209 Off ch=3 n=3 v=0
7812210 On ch=3 n=9 v=100
7812816 Off ch=3 n=9 v=0
7812819 On ch=3 n=39 v=100
7812880 On ch=3 n=29 v=100
7812880 On ch=3 n=29 v=100
7812880 On ch=3 n=29 v=100
7812961 Off ch=3 n=39 v=0
7812988 On ch=3 n=48 v=100
7812988 On ch=3 n=48 v=100
7812988 On ch=3 n=48 v=100
7812990 On ch=3 n=22 v=100
7813162 Off ch=3 n=29 v=0
7813162 Off ch=3 n=29 v=0
7813162 Off ch=3 n=29 v=0
7813182 Off ch=3 n=22 v=0
7813226 On ch=3 n=16 v=100
7813233 On ch=3 n=43 v=100
7813233 On ch=3 n=43 v=100
7813233 On ch=3 n=43 v=100
7813306 On ch=3 n=10 v=100
7813311 Off ch=3 n=48 v=0
7813311 Off ch=3 n=48 v=0
7813311 Off ch=3 n=16 v=0
7813311 Off ch=3 n=48 v=0
7813417 Off ch=3 n=43 v=0
7813417 Off ch=3 n=43 v=0
7813417 Off ch=3 n=43 v=0
7813548 On ch=3 n=40 v=100
7813587 On ch=3 n=23 v=100
7813617 On ch=3 n=18 v=100
7813647 Off ch=3 n=10 v=0
7813730 On ch=3 n=22 v=100
7813752 On ch=3 n=15 v=100
7813876 Off ch=3 n=40 v=0
7813876 Off ch=3 n=18 v=0
7813877 Off ch=3 n=23 v=0
7813879 On ch=3 n=14 v=100
7813894 Off ch=3 n=15 v=0
7813898 Off ch=3 n=22 v=0
7814426 Off ch=3 n=14 v=0
7814789 On ch=3 n=37 v=100
7814794 On ch=3 n=23 v=100
7814803 On ch=3 n=8 v=100
7814988 Off ch=3 n=8 v=0
7815026 Off ch=3 n=23 v=0
7815053 Off ch=3 n=37 v=0
7816141 On ch=3 n=29 v=100
7816607 Off ch=3 n=29 v=0
7816918 On ch=3 n=19 v=100
7816918 On ch=3 n=19 v=100
7816931 On ch=3 n=19 v=100
7816994 On ch=3 n=14 v=100
7817051 On ch=3 n=28 v=100
7817051 On ch=3 n=28 v=100
7817080 On ch=3 n=8 v=100
7817222 On ch=3 n=17 v=100
7817419 Off ch=3 n=19 v=0
7817479 Off ch=3 n=8 v=0
7817482 Off ch=3 n=19 v=0
7817482 Off ch=3 n=19 v=0
7817535 Off ch=3 n=14 v=0
7817580 Off ch=3 n=17 v=0
7817644 On ch=3 n=11 v=100
7817647 Off ch=3 n=28 v=0
7817647 Off ch=3 n=28 v=0
7817662 On ch=3 n=14 v=100
7817707 Off ch=3 n=11 v=0
7817708 On ch=3 n=17 v=100
7817709 Off ch=3 n=14 v=0
7817891 Off ch=3 n=17 v=0
7818291 On ch=3 n=17 v=100
7818643 Off ch=3 n=17 v=0
7819292 On ch=3 n=8 v=100
7819976 Off ch=3 n=8 v=0
7820627 On ch=3 n=39 v=100
7820882 Off ch=3 n=39 v=0
7820999 On ch=3 n=8 v=100
7822630 Off ch=3 n=8 v=0
7822760 On ch=3 n=41 v=100
7822924 Off ch=3 n=41 v=0
7824080 On ch=3 n=21 v=100
7824514 Off ch=3 n=21 v=0
7824521 On ch=3 n=21 v=100
7824751 On ch=3 n=37 v=100
7824767 Off ch=3 n=21 v=0
7824773 On ch=3 n=35 v=100
7824776 On ch=3 n=32 v=100
7824785 On ch=3 n=7 v=100
7824963 Off ch=3 n=7 v=0
7824967 Off ch=3 n=37 v=0
7825021 Off ch=3 n=32 v=0
7825104 Off ch=3 n=35 v=0
7826001 On ch=3 n=10 v=100
7826250 Off ch=3 n=10 v=0
7827126 On ch=3 n=18 v=100
7827130 On ch=3 n=5 v=100
7827231 Off ch=3 n=18 v=0
7827231 Off ch=3 n=5 v=0
7827277 On ch=3 n=5 v=100
7827277 On ch=3 n=18 v=100
7827443 Off ch=3 n=5 v=0
7827444 On ch=3 n=8 v=100
7827503 Off ch=3 n=18 v=0
7828273 Off ch=3 n=8 v=0
7829034 On ch=3 n=16 v=100
7829044 On ch=3 n=10 v=100
7829189 Off ch=3 n=10 v=0
7829200 Off ch=3 n=16 v=0
7829224 On ch=3 n=14 v=100
7829449 Off ch=3 n=14 v=0
7829450 On ch=3 n=21 v=100
7829486 On ch=3 n=17 v=100
7829590 Off ch=3 n=21 v=0
7829664 Off ch=3 n=17 v=0
7829763 On ch=3 n=14 v=100
7830198 Off ch=3 n=14 v=0
7830285 On ch=3 n=21 v=100
7830361 Off ch=3 n=21 v=0
7830391 On ch=3 n=31 v=100
7830403 On ch=3 n=26 v=100
7830482 Off ch=3 n=31 v=0
7830511 Off ch=3 n=26 v=0
7830647 On ch=3 n=15 v=100
7831095 Off ch=3 n=15 v=0
7831139 On ch=3 n=2 v=100
7831958 Off ch=3 n=2 v=0
7831959 On ch=3 n=2 v=100
7832190 Off ch=3 n=2 v=0
7832421 On ch=3 n=27 v=100
7832422 On ch=3 n=39 v=100
7832555 Off ch=3 n=27 v=0
7832612 Off ch=3 n=39 v=0
7832632 On ch=3 n=27 v=100
7832787 Off ch=3 n=27 v=0
7833554 On ch=3 n=8 v=100
7833645 On ch=3 n=13 v=100
7833645 Off ch=3 n=8 v=0
7834548 On ch=3 n=30 v=100
7834703 On ch=3 n=19 v=100
7834707 Off ch=3 n=13 v=0
7834728 Off ch=3 n=30 v=0
7834730 On ch=3 n=16 v=100
7834862 Off ch=3 n=19 v=0
7834862 Off ch=3 n=16 v=0
7834863 On ch=3 n=6 v=100
7835624 Off ch=3 n=6 v=0
7835647 On ch=3 n=8 v=100
7835649 On ch=3 n=11 v=100
7835722 Off ch=3 n=8 v=0
7835731 Off ch=3 n=11 v=0
7835735 On ch=3 n=28 v=100
7835771 Off ch=3 n=28 v=0
7835871 On ch=3 n=28 v=100
7835901 Off ch=3 n=28 v=0
7838045 On ch=3 n=8 v=100
7838419 Off ch=3 n=8 v=0
7839098 On ch=3 n=42 v=100
7839101 On ch=3 n=21 v=100
7839326 Off ch=3 n=21 v=0
7839415 Off ch=3 n=42 v=0
7841170 On ch=3 n=23 v=100
7841242 On ch=3 n=29 v=100
7841253 Off ch=3 n=23 v=0
7841273 On ch=3 n=24 v=100
7841273 On ch=3 n=43 v=100
7841509 Off ch=3 n=29 v=0
7841539 Off ch=3 n=24 v=0
7841608 On ch=3 n=42 v=100
7841651 Off ch=3 n=43 v=0
7841655 On ch=3 n=3 v=100
7842023 Off ch=3 n=3 v=0
7842024 Off ch=3 n=42 v=0
7843041 On ch=3 n=36 v=100
7843053 On ch=3 n=36 v=100
7843141 Off ch=3 n=36 v=0
7843272 Off ch=3 n=36 v=0
7844506 On ch=3 n=9 v=100
7844768 Off ch=3 n=9 v=0
7846330 On ch=3 n=10 v=100
7846543 Off ch=3 n=10 v=0
7846547 On ch=3 n=29 v=100
7846735 Off ch=3 n=29 v=0
7846890 On ch=3 n=21 v=100
7847042 On ch=3 n=31 v=100
7847171 Off ch=3 n=21 v=0
7847229 Off ch=3 n=31 v=0
7847583 On ch=3 n=42 v=100
7847833 Off ch=3 n=42 v=0
7848830 On ch=3 n=8 v=100
7849340 Off ch=3 n=8 v=0
7849633 On ch=3 n=8 v=100
7850172 Off ch=3 n=8 v=0
7850984 On ch=3 n=32 v=100
7851356 Off ch=3 n=32 v=0
7851502 On ch=3 n=16 v=100
7851631 Off ch=3 n=16 v=0
7851675 On ch=3 n=5 v=100
7852904 Off ch=3 n=5 v=0
7854542 On ch=3 n=36 v=100
7854543 On ch=3 n=53 v=100
7854652 Off ch=3 n=36 v=0
7854715 Off ch=3 n=53 v=0
7854883 On ch=3 n=13 v=100
7855292 Off ch=3 n=13 v=0
7855326 On ch=3 n=8 v=100
7855362 Off ch=3 n=8 v=0
7855680 On ch=3 n=3 v=100
7855979 Off ch=3 n=3 v=0
7855981 On ch=3 n=6 v=100
7856065 Off ch=3 n=6 v=0
7856215 On ch=3 n=22 v=100
7856256 Off ch=3 n=22 v=0
7857236 On ch=3 n=7 v=100
7858515 Off ch=3 n=7 v=0
7858697 On ch=3 n=13 v=100
7859330 Off ch=3 n=13 v=0
7860579 On ch=3 n=8 v=100
7860911 On ch=3 n=11 v=100
7861064 Off ch=3 n=8 v=0
7861122 Off ch=3 n=11 v=0
7862245 On ch=3 n=22 v=100
7862248 On ch=3 n=27 v=100
7862399 Off ch=3 n=22 v=0
7862441 Off ch=3 n=27 v=0
7863734 On ch=3 n=10 v=100
7864326 On ch=3 n=42 v=100
7864400 Off ch=3 n=10 v=0
7864414 On ch=3 n=12 v=100
7864420 Off ch=3 n=42 v=0
7864918 Off ch=3 n=12 v=0
7865335 On ch=3 n=8 v=100
7865754 Off ch=3 n=8 v=0
7865757 On ch=3 n=9 v=100
7866363 Off ch=3 n=9 v=0
7867347 On ch=3 n=10 v=100
7867558 Off ch=3 n=10 v=0
7867560 On ch=3 n=17 v=100
7867708 Off ch=3 n=17 v=0
7868233 On ch=3 n=14 v=100
7868482 Off ch=3 n=14 v=0
7869257 On ch=3 n=31 v=100
7869272 On ch=3 n=36 v=100
7869326 Off ch=3 n=31 v=0
7869606 On ch=3 n=31 v=100
7869616 Off ch=3 n=36 v=0
7869658 On ch=3 n=11 v=100
7869776 Off ch=3 n=31 v=0
7870112 Off ch=3 n=11 v=0
7870142 On ch=3 n=11 v=100
7870939 Off ch=3 n=11 v=0
7871076 On ch=3 n=11 v=100
7871182 Off ch=3 n=11 v=0
7871268 On ch=3 n=34 v=100
7871392 Off ch=3 n=34 v=0
7871507 On ch=3 n=8 v=100
7871915 On ch=3 n=31 v=100
7871915 Off ch=3 n=8 v=0
7872161 Off ch=3 n=31 v=0
7873572 On ch=3 n=1 v=100
7874074 On ch=3 n=23 v=100
7874081 Off ch=3 n=1 v=0
7874218 Off ch=3 n=23 v=0
7874507 On ch=3 n=40 v=100
7874575 On ch=3 n=13 v=100
7874632 Off ch=3 n=40 v=0
7874654 Off ch=3 n=13 v=0
7874656 On ch=3 n=11 v=100
7874791 On ch=3 n=27 v=100
7874871 Off ch=3 n=11 v=0
7874955 Off ch=3 n=27 v=0
7875128 On ch=3 n=9 v=100
7875587 Off ch=3 n=9 v=0
7875992 On ch=3 n=61 v=100
7875992 On ch=3 n=61 v=100
7876057 On ch=3 n=31 v=100
7876065 On ch=3 n=57 v=100
7876071 On ch=3 n=7 v=100
7876152 Off ch=3 n=31 v=0
7876256 Off ch=3 n=61 v=0
7876256 Off ch=3 n=61 v=0
7876259 Off ch=3 n=7 v=0
7876368 Off ch=3 n=57 v=0
7876900 On ch=3 n=21 v=100
7876948 Off ch=3 n=21 v=0
7878238 On ch=3 n=11 v=100
7878767 Off ch=3 n=11 v=0
7879210 On ch=3 n=13 v=100
7879393 On ch=3 n=21 v=100
7879520 On ch=3 n=19 v=100
7879524 On ch=3 n=10 v=100
7879564 Off ch=3 n=13 v=0
7879906 Off ch=3 n=21 v=0
7879917 On ch=3 n=7 v=100
7879917 On ch=3 n=12 v=100
7879919 Off ch=3 n=10 v=0
7879981 Off ch=3 n=19 v=0
7880025 Off ch=3 n=7 v=0
7880038 Off ch=3 n=12 v=0
7880190 On ch=3 n=23 v=100
7880196 On ch=3 n=28 v=100
7880223 Off ch=3 n=23 v=0
7880390 Off ch=3 n=28 v=0
7880400 On ch=3 n=13 v=100
7881084 Off ch=3 n=13 v=0
7881091 On ch=3 n=33 v=100
7881091 On ch=3 n=33 v=100
7881110 On ch=3 n=36 v=100
7881143 On ch=3 n=27 v=100
7881305 Off ch=3 n=27 v=0
7881312 Off ch=3 n=36 v=0
7881343 Off ch=3 n=33 v=0
7881343 Off ch=3 n=33 v=0
7881464 On ch=3 n=8 v=100
7881464 On ch=3 n=13 v=100
7881572 Off ch=3 n=8 v=0
7881585 Off ch=3 n=13 v=0
7881737 On ch=3 n=23 v=100
7881743 On ch=3 n=28 v=100
7881770 Off ch=3 n=23 v=0
7881937 Off ch=3 n=28 v=0
7881947 On ch=3 n=13 v=100
7882627 Off ch=3 n=13 v=0
7882634 On ch=3 n=33 v=100
7882634 On ch=3 n=33 v=100
7882653 On ch=3 n=36 v=100
7882686 On ch=3 n=27 v=100
7882848 Off ch=3 n=27 v=0
7882855 Off ch=3 n=36 v=0
7882886 Off ch=3 n=33 v=0
7882886 Off ch=3 n=33 v=0
7884571 On ch=3 n=6 v=100
7884813 On ch=3 n=17 v=100
7884813 On ch=3 n=17 v=100
7884885 On ch=3 n=12 v=100
7884925 Off ch=3 n=6 v=0
7884929 On ch=3 n=18 v=100
7885034 On ch=3 n=26 v=100
7885034 On ch=3 n=26 v=100
7885154 On ch=3 n=38 v=100
7885274 Off ch=3 n=12 v=0
7885278 Off ch=3 n=17 v=0
7885278 Off ch=3 n=17 v=0
7885398 Off ch=3 n=18 v=0
7885455 Off ch=3 n=26 v=0
7885455 Off ch=3 n=26 v=0
7885583 Off ch=3 n=38 v=0
7885917 On ch=3 n=11 v=100
7885954 Off ch=3 n=11 v=0
7886011 On ch=3 n=18 v=100
7886030 On ch=3 n=11 v=100
7886112 Off ch=3 n=18 v=0
7886467 Off ch=3 n=11 v=0
7886515 On ch=3 n=11 v=100
7886776 Off ch=3 n=11 v=0
7886777 On ch=3 n=15 v=100
7886858 On ch=3 n=22 v=100
7886870 Off ch=3 n=15 v=0
7886967 Off ch=3 n=22 v=0
7890660 On ch=3 n=18 v=100
7890791 Off ch=3 n=18 v=0
7890804 On ch=3 n=25 v=100
7890932 Off ch=3 n=25 v=0
7890967 On ch=3 n=27 v=100
7891122 Off ch=3 n=27 v=0
7893362 On ch=3 n=15 v=100
7893574 Off ch=3 n=15 v=0
7893930 On ch=3 n=15 v=100
7893996 On ch=3 n=11 v=100
7894533 On ch=3 n=14 v=100
7894540 Off ch=3 n=11 v=0
7894548 Off ch=3 n=15 v=0
7894565 On ch=3 n=28 v=100
7894585 Off ch=3 n=14 v=0
7894752 Off ch=3 n=28 v=0
7895118 On ch=3 n=34 v=100
7895322 Off ch=3 n=34 v=0
7896965 On ch=3 n=12 v=100
7897874 Off ch=3 n=12 v=0
7897878 On ch=3 n=18 v=100
7897913 On ch=3 n=21 v=100
7897952 On ch=3 n=22 v=100
7897963 On ch=3 n=42 v=100
7897963 On ch=3 n=42 v=100
7897972 Off ch=3 n=18 v=0
7897975 On ch=3 n=6 v=100
7898163 Off ch=3 n=6 v=0
7898167 On ch=3 n=16 v=100
7898169 Off ch=3 n=21 v=0
7898200 Off ch=3 n=22 v=0
7898245 Off ch=3 n=42 v=0
7898245 Off ch=3 n=42 v=0
7898374 Off ch=3 n=16 v=0
7898491 On ch=3 n=15 v=100
7898589 Off ch=3 n=15 v=0
7899242 On ch=3 n=24 v=100
7899485 Off ch=3 n=24 v=0
7900230 On ch=3 n=17 v=100
7900441 On ch=3 n=49 v=100
7900503 On ch=3 n=32 v=100
7900707 Off ch=3 n=17 v=0
7900792 Off ch=3 n=32 v=0
7900793 Off ch=3 n=49 v=0
7900819 On ch=3 n=15 v=100
7901086 On ch=3 n=33 v=100
7901249 Off ch=3 n=15 v=0
7901346 Off ch=3 n=33 v=0
7902576 On ch=3 n=14 v=100
7902767 On ch=3 n=35 v=100
7902805 Off ch=3 n=14 v=0
7903022 Off ch=3 n=35 v=0
7903951 On ch=3 n=11 v=100
7904349 On ch=3 n=13 v=100
7904472 Off ch=3 n=11 v=0
7904535 On ch=3 n=18 v=100
7904540 On ch=3 n=25 v=100
7904540 On ch=3 n=25 v=100
7904547 Off ch=3 n=13 v=0
7904695 Off ch=3 n=18 v=0
7904770 Off ch=3 n=25 v=0
7904770 Off ch=3 n=25 v=0
7904954 On ch=3 n=8 v=100
7905178 Off ch=3 n=8 v=0
7905179 On ch=3 n=9 v=100
7905926 Off ch=3 n=9 v=0
7910486 On ch=3 n=25 v=100
7910546 On ch=3 n=21 v=100
7910546 On ch=3 n=21 v=100
7910687 On ch=3 n=11 v=100
7911043 Off ch=3 n=25 v=0
7911049 On ch=3 n=8 v=100
7911063 Off ch=3 n=21 v=0
7911063 Off ch=3 n=21 v=0
7911111 Off ch=3 n=11 v=0
7911111 Off ch=3 n=8 v=0
7911178 On ch=3 n=8 v=100
7911607 Off ch=3 n=8 v=0
7911926 On ch=3 n=53 v=100
7911939 On ch=3 n=32 v=100
7912041 On ch=3 n=9 v=100
7912041 Off ch=3 n=53 v=0
7912065 Off ch=3 n=32 v=0
7912075 Off ch=3 n=9 v=0
7912652 On ch=3 n=26 v=100
7912700 On ch=3 n=33 v=100
7912801 Off ch=3 n=26 v=0
7912810 On ch=3 n=19 v=100
7912880 On ch=3 n=15 v=100
7912895 On ch=3 n=22 v=100
7913035 Off ch=3 n=33 v=0
7913038 Off ch=3 n=19 v=0
7913041 On ch=3 n=35 v=100
7913059 Off ch=3 n=15 v=0
7913065 On ch=3 n=7 v=100
7913089 Off ch=3 n=22 v=0
7913225 On ch=3 n=10 v=100
7913225 Off ch=3 n=7 v=0
7913226 Off ch=3 n=35 v=0
7913726 Off ch=3 n=10 v=0
7913743 On ch=3 n=15 v=100
7913793 Off ch=3 n=15 v=0
7915074 On ch=3 n=34 v=100
7915142 On ch=3 n=26 v=100
7915170 Off ch=3 n=34 v=0
7915184 On ch=3 n=11 v=100
7915357 Off ch=3 n=26 v=0
7915582 Off ch=3 n=11 v=0
7916248 On ch=3 n=11 v=100
7916370 Off ch=3 n=11 v=0
7916380 On ch=3 n=16 v=100
7916699 Off ch=3 n=16 v=0
7916701 On ch=3 n=35 v=100
7916701 On ch=3 n=38 v=100
7916774 On ch=3 n=23 v=100
7917017 Off ch=3 n=23 v=0
7917028 On ch=3 n=26 v=100
7917028 Off ch=3 n=35 v=0
7917098 Off ch=3 n=26 v=0
7917273 Off ch=3 n=38 v=0
7917792 On ch=3 n=49 v=100
7917826 On ch=3 n=37 v=100
7917872 On ch=3 n=21 v=100
7917872 On ch=3 n=50 v=100
7917933 Off ch=3 n=37 v=0
7917935 Off ch=3 n=49 v=0
7917936 Off ch=3 n=21 v=0
7917947 On ch=3 n=26 v=100
7917947 On ch=3 n=7 v=100
7917981 Off ch=3 n=50 v=0
7918109 Off ch=3 n=7 v=0
7918110 On ch=3 n=2 v=100
7918178 Off ch=3 n=26 v=0
7918192 On ch=3 n=10 v=100
7918193 Off ch=3 n=2 v=0
7918491 Off ch=3 n=10 v=0
7918571 On ch=3 n=30 v=100
7918677 Off ch=3 n=30 v=0
7920826 On ch=3 n=9 v=100
7921003 Off ch=3 n=9 v=0
7921058 On ch=3 n=9 v=100
7921424 Off ch=3 n=9 v=0
7921448 On ch=3 n=17 v=100
7921461 On ch=3 n=18 v=100
7921461 On ch=3 n=9 v=100
7921521 Off ch=3 n=17 v=0
7921521 Off ch=3 n=9 v=0
7921547 Off ch=3 n=18 v=0
7921556 On ch=3 n=8 v=100
7921977 On ch=3 n=30 v=100
7921999 On ch=3 n=29 v=100
7922001 Off ch=3 n=8 v=0
7922082 Off ch=3 n=30 v=0
7922083 Off ch=3 n=29 v=0
7922160 On ch=3 n=7 v=100
7922250 Off ch=3 n=7 v=0
7922260 On ch=3 n=7 v=100
7923187 Off ch=3 n=7 v=0
7923198 On ch=3 n=12 v=100
7923440 Off ch=3 n=12 v=0
7924167 On ch=3 n=15 v=100
7924275 Off ch=3 n=15 v=0
7924276 On ch=3 n=16 v=100
7924546 On ch=3 n=12 v=100
7924549 Off ch=3 n=16 v=0
7924708 Off ch=3 n=12 v=0
7924861 On ch=3 n=19 v=100
7924981 Off ch=3 n=19 v=0
7925009 On ch=3 n=10 v=100
7925409 Off ch=3 n=10 v=0
7925503 On ch=3 n=23 v=100
7925583 Off ch=3 n=23 v=0
7925624 On ch=3 n=18 v=100
7925915 On ch=3 n=13 v=100
7925916 Off ch=3 n=18 v=0
7926014 Off ch=3 n=13 v=0
7926020 On ch=3 n=14 v=100
7926254 On ch=3 n=19 v=100
7926402 On ch=3 n=8 v=100
7926405 Off ch=3 n=14 v=0
7926652 On ch=3 n=21 v=100
7926663 Off ch=3 n=19 v=0
7926663 Off ch=3 n=8 v=0
7926835 On ch=3 n=14 v=100
7926892 Off ch=3 n=21 v=0
7927265 On ch=3 n=36 v=100
7927325 Off ch=3 n=14 v=0
7927337 Off ch=3 n=36 v=0
7927345 On ch=3 n=10 v=100
7927637 Off ch=3 n=10 v=0
7927641 On ch=3 n=8 v=100
7928746 On ch=3 n=35 v=100
7929117 Off ch=3 n=8 v=0
7929132 On ch=3 n=12 v=100
7929162 Off ch=3 n=35 v=0
7929655 Off ch=3 n=12 v=0
7929659 On ch=3 n=15 v=100
7929859 On ch=3 n=33 v=100
7929862 Off ch=3 n=15 v=0
7930005 Off ch=3 n=33 v=0
7930095 On ch=3 n=20 v=100
7930108 On ch=3 n=8 v=100
7930184 Off ch=3 n=20 v=0
7930184 Off ch=3 n=8 v=0
7930798 On ch=3 n=17 v=100
7931174 Off ch=3 n=17 v=0
7934719 On ch=3 n=10 v=100
7935007 On ch=3 n=35 v=100
7935063 Off ch=3 n=10 v=0
7935083 Off ch=3 n=35 v=0
7935087 On ch=3 n=7 v=100
7935145 Off ch=3 n=7 v=0
7935277 On ch=3 n=21 v=100
7935329 Off ch=3 n=21 v=0
7937179 On ch=3 n=23 v=100
7937443 Off ch=3 n=23 v=0
7937545 On ch=3 n=23 v=100
7937610 Off ch=3 n=23 v=0
7938289 On ch=3 n=22 v=100
7938293 On ch=3 n=19 v=100
7938378 Off ch=3 n=19 v=0
7938427 Off ch=3 n=22 v=0
7938899 On ch=3 n=20 v=100
7939000 Off ch=3 n=20 v=0
7939006 On ch=3 n=15 v=100
7939238 On ch=3 n=12 v=100
7939246 Off ch=3 n=15 v=0
7939457 Off ch=3 n=12 v=0
7939765 On ch=3 n=17 v=100
7940146 On ch=3 n=22 v=100
7940146 Off ch=3 n=17 v=0
7940261 Off ch=3 n=22 v=0
7941192 On ch=3 n=16 v=100
7941405 Off ch=3 n=16 v=0
7941418 On ch=3 n=7 v=100
7941455 On ch=3 n=10 v=100
7941491 Off ch=3 n=7 v=0
7941510 On ch=3 n=13 v=100
7941515 Off ch=3 n=10 v=0
7941586 Off ch=3 n=13 v=0
7942321 On ch=3 n=28 v=100
7942332 On ch=3 n=30 v=100
7942332 On ch=3 n=30 v=100
7942403 On ch=3 n=21 v=100
7942440 On ch=3 n=31 v=100
7942440 On ch=3 n=31 v=100
7942795 Off ch=3 n=28 v=0
7942795 Off ch=3 n=21 v=0
7942854 Off ch=3 n=30 v=0
7942854 Off ch=3 n=30 v=0
7943000 Off ch=3 n=31 v=0
7943000 Off ch=3 n=31 v=0
7943357 On ch=3 n=7 v=100
7943383 Off ch=3 n=7 v=0
7943391 On ch=3 n=31 v=100
7943460 Off ch=3 n=31 v=0
7943797 On ch=3 n=6 v=100
7944050 Off ch=3 n=6 v=0
7944061 On ch=3 n=20 v=100
7944077 On ch=3 n=16 v=100
7944187 Off ch=3 n=20 v=0
7944187 Off ch=3 n=16 v=0
7945224 On ch=3 n=8 v=100
7945333 Off ch=3 n=8 v=0
7945443 On ch=3 n=8 v=100
7945936 Off ch=3 n=8 v=0
7946168 On ch=3 n=30 v=100
7946328 Off ch=3 n=30 v=0
7947352 On ch=3 n=20 v=100
7947646 Off ch=3 n=20 v=0
7947824 On ch=3 n=25 v=100
7947980 Off ch=3 n=25 v=0
7948071 On ch=3 n=17 v=100
7948387 Off ch=3 n=17 v=0
7949171 On ch=3 n=34 v=100
7949178 On ch=3 n=42 v=100
7949242 On ch=3 n=7 v=100
7949282 Off ch=3 n=34 v=0
7949284 Off ch=3 n=42 v=0
7949284 Off ch=3 n=7 v=0
7949348 On ch=3 n=21 v=100
7949349 On ch=3 n=4 v=100
7949349 On ch=3 n=38 v=100
7949349 On ch=3 n=42 v=100
7949367 Off ch=3 n=4 v=0
7949367 Off ch=3 n=42 v=0
7949387 Off ch=3 n=38 v=0
7949466 On ch=3 n=9 v=100
7949873 Off ch=3 n=21 v=0
7949873 Off ch=3 n=9 v=0
7949888 On ch=3 n=20 v=100
7949889 On ch=3 n=41 v=100
7949889 On ch=3 n=41 v=100
7949914 On ch=3 n=21 v=100
7949971 Off ch=3 n=20 v=0
7949994 Off ch=3 n=21 v=0
7950020 Off ch=3 n=41 v=0
7950020 Off ch=3 n=41 v=0
7951076 On ch=3 n=13 v=100
7951186 Off ch=3 n=13 v=0
7951200 On ch=3 n=25 v=100
7951409 Off ch=3 n=25 v=0
7951431 On ch=3 n=24 v=100
7951580 On ch=3 n=17 v=100
7951580 Off ch=3 n=24 v=0
7951644 Off ch=3 n=17 v=0
7951653 On ch=3 n=27 v=100
7951704 Off ch=3 n=27 v=0
7951723 On ch=3 n=14 v=100
7951723 On ch=3 n=10 v=100
7951918 Off ch=3 n=10 v=0
7951932 On ch=3 n=11 v=100
7951958 Off ch=3 n=14 v=0
7952360 Off ch=3 n=11 v=0
7952388 On ch=3 n=9 v=100
7952466 On ch=3 n=36 v=100
7952511 Off ch=3 n=9 v=0
7952521 On ch=3 n=17 v=100
7952562 Off ch=3 n=36 v=0
7952636 Off ch=3 n=17 v=0
7953322 On ch=3 n=27 v=100
7953510 Off ch=3 n=27 v=0
7954181 On ch=3 n=15 v=100
7954348 Off ch=3 n=15 v=0
7954373 On ch=3 n=13 v=100
7954432 Off ch=3 n=13 v=0
7954568 On ch=3 n=32 v=100
7954611 On ch=3 n=8 v=100
7954963 Off ch=3 n=32 v=0
7954963 Off ch=3 n=8 v=0
7955281 On ch=3 n=25 v=100
7955281 On ch=3 n=25 v=100
7955298 On ch=3 n=22 v=100
7955434 On ch=3 n=17 v=100
7955442 On ch=3 n=23 v=100
7955442 On ch=3 n=23 v=100
7955643 On ch=3 n=43 v=100
7955776 Off ch=3 n=22 v=0
7955802 Off ch=3 n=17 v=0
7955847 Off ch=3 n=25 v=0
7955847 Off ch=3 n=23 v=0
7955847 Off ch=3 n=25 v=0
7955847 Off ch=3 n=23 v=0
7956167 On ch=3 n=44 v=100
7956380 Off ch=3 n=43 v=0
7956419 Off ch=3 n=44 v=0
7956944 On ch=3 n=10 v=100
7957135 Off ch=3 n=10 v=0
7957137 On ch=3 n=7 v=100
7957265 Off ch=3 n=7 v=0
7957311 On ch=3 n=18 v=100
7957329 On ch=3 n=22 v=100
7957519 Off ch=3 n=22 v=0
7957521 On ch=3 n=13 v=100
7957521 On ch=3 n=13 v=100
7957526 Off ch=3 n=18 v=0
7957538 On ch=3 n=6 v=100
7957645 On ch=3 n=24 v=100
7957774 Off ch=3 n=6 v=0
7957789 Off ch=3 n=13 v=0
7957789 Off ch=3 n=13 v=0
7958016 Off ch=3 n=24 v=0
7958156 On ch=3 n=18 v=100
7958623 Off ch=3 n=18 v=0
7960032 On ch=3 n=4 v=100
7960242 On ch=3 n=7 v=100
7960245 Off ch=3 n=4 v=0
7961028 Off ch=3 n=7 v=0
7961029 On ch=3 n=4 v=100
7961142 Off ch=3 n=4 v=0
7961874 On ch=3 n=35 v=100
7962151 Off ch=3 n=35 v=0
7962286 On ch=3 n=46 v=100
7962324 On ch=3 n=25 v=100
7962345 On ch=3 n=13 v=100
7962514 Off ch=3 n=46 v=0
7962536 Off ch=3 n=13 v=0
7962540 Off ch=3 n=25 v=0
7963676 On ch=3 n=18 v=100
7963723 On ch=3 n=14 v=100
7963965 Off ch=3 n=18 v=0
7963970 Off ch=3 n=14 v=0
7964221 On ch=3 n=51 v=100
7964289 On ch=3 n=26 v=100
7964289 On ch=3 n=7 v=100
7964308 On ch=3 n=48 v=100
7964428 On ch=3 n=6 v=100
7964437 Off ch=3 n=51 v=0
7964642 Off ch=3 n=7 v=0
7964689 Off ch=3 n=26 v=0
7964993 Off ch=3 n=48 v=0
7965068 On ch=3 n=22 v=100
7965077 Off ch=3 n=6 v=0
7965345 Off ch=3 n=22 v=0
7967010 On ch=3 n=28 v=100
7967241 Off ch=3 n=28 v=0
7967271 On ch=3 n=11 v=100
7967831 Off ch=3 n=11 v=0
7970258 On ch=3 n=14 v=100
7970341 On ch=3 n=12 v=100
7970342 Off ch=3 n=14 v=0
7970541 Off ch=3 n=12 v=0
7970549 On ch=3 n=20 v=100
7971524 Off ch=3 n=20 v=0
7971526 On ch=3 n=10 v=100
7971676 Off ch=3 n=10 v=0
7972457 On ch=3 n=11 v=100
7972710 Off ch=3 n=11 v=0
7974162 On ch=3 n=51 v=100
7974341 Off ch=3 n=51 v=0
7974701 On ch=3 n=23 v=100
7975089 Off ch=3 n=23 v=0
7975093 On ch=3 n=1 v=100
7976075 Off ch=3 n=1 v=0
7976360 On ch=3 n=14 v=100
7977015 Off ch=3 n=14 v=0
7977278 On ch=3 n=10 v=100
7977409 On ch=3 n=22 v=100
7977409 On ch=3 n=22 v=100
7977425 Off ch=3 n=10 v=0
7977535 On ch=3 n=12 v=100
7977535 On ch=3 n=12 v=100
7977621 Off ch=3 n=22 v=0
7977621 Off ch=3 n=22 v=0
7978000 On ch=3 n=10 v=100
7978001 Off ch=3 n=12 v=0
7978001 Off ch=3 n=12 v=0
7978320 Off ch=3 n=10 v=0
7979981 On ch=3 n=26 v=100
7980058 Off ch=3 n=26 v=0
7980488 On ch=3 n=21 v=100
7980725 On ch=3 n=20 v=100
7980725 Off ch=3 n=21 v=0
7980780 On ch=3 n=24 v=100
7980894 Off ch=3 n=20 v=0
7980909 On ch=3 n=11 v=100
7981123 On ch=3 n=29 v=100
7981228 Off ch=3 n=24 v=0
7981228 Off ch=3 n=11 v=0
7981229 On ch=3 n=30 v=100
7981278 Off ch=3 n=29 v=0
7981347 Off ch=3 n=30 v=0
7982032 On ch=3 n=8 v=100
7982730 On ch=3 n=4 v=100
7982730 Off ch=3 n=8 v=0
7982837 Off ch=3 n=4 v=0
7983637 On ch=3 n=28 v=100
7983850 Off ch=3 n=28 v=0
7984163 On ch=3 n=9 v=100
7984771 On ch=3 n=15 v=100
7984840 Off ch=3 n=9 v=0
7984845 On ch=3 n=7 v=100
7984872 Off ch=3 n=15 v=0
7985093 Off ch=3 n=7 v=0
7985587 On ch=3 n=25 v=100
7985627 On ch=3 n=13 v=100
7985829 Off ch=3 n=25 v=0
7985839 Off ch=3 n=13 v=0
7985850 On ch=3 n=5 v=100
7987052 Off ch=3 n=5 v=0
7987084 On ch=3 n=30 v=100
7987167 Off ch=3 n=30 v=0
7987771 On ch=3 n=10 v=100
7988261 Off ch=3 n=10 v=0
7988262 On ch=3 n=8 v=100
7988905 Off ch=3 n=8 v=0
7988918 On ch=3 n=8 v=100
7989031 On ch=3 n=15 v=100
7989031 Off ch=3 n=8 v=0
7989244 On ch=3 n=40 v=100
7989322 Off ch=3 n=15 v=0
7989334 Off ch=3 n=40 v=0
7989615 On ch=3 n=38 v=100
7989652 On ch=3 n=38 v=100
7989660 On ch=3 n=24 v=100
7989921 Off ch=3 n=38 v=0
7989941 Off ch=3 n=24 v=0
7989989 Off ch=3 n=38 v=0
7990467 On ch=3 n=42 v=100
7990553 On ch=3 n=46 v=100
7990632 Off ch=3 n=42 v=0
7990686 Off ch=3 n=46 v=0
7991773 On ch=3 n=19 v=100
7991773 On ch=3 n=19 v=100
7991821 On ch=3 n=13 v=100
7991830 On ch=3 n=21 v=100
7992183 Off ch=3 n=13 v=0
7992199 Off ch=3 n=19 v=0
7992199 Off ch=3 n=19 v=0
7992299 Off ch=3 n=21 v=0
7993357 On ch=3 n=35 v=100
7993464 Off ch=3 n=35 v=0
7993468 On ch=3 n=20 v=100
7993995 Off ch=3 n=20 v=0
7994929 On ch=3 n=35 v=100
7994998 Off ch=3 n=35 v=0
7995397 On ch=3 n=27 v=100
7995397 On ch=3 n=36 v=100
7995464 On ch=3 n=19 v=100
7995498 Off ch=3 n=27 v=0
7995594 On ch=3 n=13 v=100
7995594 On ch=3 n=13 v=100
7995604 Off ch=3 n=36 v=0
7995626 On ch=3 n=17 v=100
7995754 On ch=3 n=33 v=100
7995754 On ch=3 n=33 v=100
7995971 Off ch=3 n=19 v=0
7995982 On ch=3 n=12 v=100
7996000 Off ch=3 n=13 v=0
7996000 Off ch=3 n=13 v=0
7996080 Off ch=3 n=17 v=0
7996159 Off ch=3 n=33 v=0
7996159 Off ch=3 n=33 v=0
7996533 On ch=3 n=18 v=100
7996557 Off ch=3 n=12 v=0
7996572 On ch=3 n=10 v=100
7996682 Off ch=3 n=18 v=0
7996682 Off ch=3 n=10 v=0
7997335 On ch=3 n=47 v=100
7997460 On ch=3 n=22 v=100
7997491 On ch=3 n=23 v=100
7997596 Off ch=3 n=47 v=0
7997605 Off ch=3 n=23 v=0
7997606 Off ch=3 n=22 v=0
7997612 On ch=3 n=13 v=100
7997828 On ch=3 n=37 v=100
7997873 On ch=3 n=8 v=100
7997882 Off ch=3 n=13 v=0
7998032 Off ch=3 n=8 v=0
7998035 Off ch=3 n=37 v=0
7999482 On ch=3 n=10 v=100
7999977 On ch=3 n=30 v=100
8000001 On ch=3 n=28 v=100
8000014 On ch=3 n=7 v=100
8000020 Off ch=3 n=10 v=0
8000109 Off ch=3 n=30 v=0
8000118 Off ch=3 n=28 v=0
8000564 Off ch=3 n=7 v=0
8000804 On ch=3 n=7 v=100
8001465 Off ch=3 n=7 v=0
8001467 On ch=3 n=8 v=100
8002217 Off ch=3 n=8 v=0
8003737 On ch=3 n=13 v=100
8004369 Off ch=3 n=13 v=0
8004504 On ch=3 n=15 v=100
8004554 Off ch=3 n=15 v=0
8004558 On ch=3 n=10 v=100
8004700 On ch=3 n=11 v=100
8004701 Off ch=3 n=10 v=0
8005082 Off ch=3 n=11 v=0
8005087 On ch=3 n=8 v=100
8005297 Off ch=3 n=8 v=0
8005301 On ch=3 n=10 v=100
8005699 Off ch=3 n=10 v=0
8007560 On ch=3 n=1 v=100
8008330 Off ch=3 n=1 v=0
8008940 On ch=3 n=29 v=100
8008991 Off ch=3 n=29 v=0
8009962 On ch=3 n=28 v=100
8010032 Off ch=3 n=28 v=0
8010090 On ch=3 n=35 v=100
8010335 Off ch=3 n=35 v=0
8013522 On ch=3 n=10 v=100
8013987 Off ch=3 n=10 v=0
8013990 On ch=3 n=9 v=100
8014661 On ch=3 n=9 v=100
8014669 Off ch=3 n=9 v=0
8014854 Off ch=3 n=9 v=0
8014856 On ch=3 n=13 v=100
8015145 On ch=3 n=35 v=100
8015159 Off ch=3 n=13 v=0
8015160 On ch=3 n=15 v=100
8015237 Off ch=3 n=35 v=0
8015237 Off ch=3 n=15 v=0
8015248 On ch=3 n=9 v=100
8015855 On ch=3 n=12 v=100
8015860 Off ch=3 n=9 v=0
8016192 Off ch=3 n=12 v=0
8017461 On ch=3 n=36 v=100
8017461 On ch=3 n=36 v=100
8017483 On ch=3 n=30 v=100
8017674 Off ch=3 n=30 v=0
8017690 Off ch=3 n=36 v=0
8017690 Off ch=3 n=36 v=0
8017712 On ch=3 n=6 v=100
8017867 On ch=3 n=60 v=100
8018140 On ch=3 n=10 v=100
8018140 Off ch=3 n=6 v=0
8018209 Off ch=3 n=60 v=0
8018495 On ch=3 n=34 v=100
8018530 Off ch=3 n=10 v=0
8018539 Off ch=3 n=34 v=0
8018627 On ch=3 n=20 v=100
8018681 On ch=3 n=27 v=100
8018732 Off ch=3 n=20 v=0
8018819 Off ch=3 n=27 v=0
8020367 On ch=3 n=45 v=100
8020660 Off ch=3 n=45 v=0
8021089 On ch=3 n=10 v=100
8021369 Off ch=3 n=10 v=0
8021373 On ch=3 n=11 v=100
8021750 On ch=3 n=12 v=100
8021776 Off ch=3 n=11 v=0
8022031 On ch=3 n=10 v=100
8022033 Off ch=3 n=12 v=0
8022184 On ch=3 n=7 v=100
8022187 Off ch=3 n=10 v=0
8022231 Off ch=3 n=7 v=0
8022469 On ch=3 n=59 v=100
8022574 On ch=3 n=50 v=100
8022995 Off ch=3 n=59 v=0
8023006 Off ch=3 n=50 v=0
8023421 On ch=3 n=11 v=100
8023769 On ch=3 n=30 v=100
8023769 On ch=3 n=30 v=100
8023785 Off ch=3 n=11 v=0
8023794 On ch=3 n=18 v=100
8023909 On ch=3 n=9 v=100
8024247 Off ch=3 n=18 v=0
8024257 On ch=3 n=10 v=100
8024257 Off ch=3 n=9 v=0
8024280 Off ch=3 n=30 v=0
8024280 Off ch=3 n=30 v=0
8024711 On ch=3 n=11 v=100
8024719 Off ch=3 n=10 v=0
8025320 Off ch=3 n=11 v=0
8025334 On ch=3 n=11 v=100
8025530 Off ch=3 n=11 v=0
8025737 On ch=3 n=8 v=100
8025739 On ch=3 n=12 v=100
8025833 Off ch=3 n=8 v=0
8025862 Off ch=3 n=12 v=0
8026430 On ch=3 n=19 v=100
8026444 On ch=3 n=8 v=100
8026549 Off ch=3 n=19 v=0
8026933 On ch=3 n=24 v=100
8027026 Off ch=3 n=8 v=0
8027044 Off ch=3 n=24 v=0
8027249 On ch=3 n=34 v=100
8027357 Off ch=3 n=34 v=0
8027507 On ch=3 n=17 v=100
8027658 On ch=3 n=18 v=100
8027658 On ch=3 n=18 v=100
8027682 Off ch=3 n=17 v=0
8027684 On ch=3 n=28 v=100
8027684 On ch=3 n=28 v=100
8027840 Off ch=3 n=18 v=0
8027840 Off ch=3 n=18 v=0
8027961 Off ch=3 n=28 v=0
8027961 Off ch=3 n=28 v=0
8027997 On ch=3 n=11 v=100
8028149 On ch=3 n=6 v=100
8028150 Off ch=3 n=11 v=0
8028281 On ch=3 n=7 v=100
8028336 Off ch=3 n=6 v=0
8028571 Off ch=3 n=7 v=0
8028575 On ch=3 n=10 v=100
8028655 On ch=3 n=12 v=100
8028656 Off ch=3 n=10 v=0
8029118 Off ch=3 n=12 v=0
8029123 On ch=3 n=2 v=100
8029870 On ch=3 n=19 v=100
8029878 Off ch=3 n=2 v=0
8029886 On ch=3 n=14 v=100
8029990 Off ch=3 n=19 v=0
8029990 Off ch=3 n=14 v=0
8030410 On ch=3 n=21 v=100
8030490 On ch=3 n=13 v=100
8030748 On ch=3 n=29 v=100
8030870 Off ch=3 n=21 v=0
8030954 Off ch=3 n=13 v=0
8030963 On ch=3 n=32 v=100
8031032 Off ch=3 n=29 v=0
8031078 Off ch=3 n=32 v=0
8031089 On ch=3 n=9 v=100
8031406 Off ch=3 n=9 v=0
8031422 On ch=3 n=31 v=100
8031561 Off ch=3 n=31 v=0
8033241 On ch=3 n=36 v=100
8033241 On ch=3 n=36 v=100
8033337 On ch=3 n=28 v=100
8033338 On ch=3 n=46 v=100
8033338 On ch=3 n=14 v=100
8033338 On ch=3 n=46 v=100
8033396 Off ch=3 n=14 v=0
8033406 Off ch=3 n=36 v=0
8033406 Off ch=3 n=36 v=0
8033427 Off ch=3 n=28 v=0
8033479 Off ch=3 n=46 v=0
8033479 Off ch=3 n=46 v=0
8033734 On ch=3 n=8 v=100
8034528 Off ch=3 n=8 v=0
8034991 On ch=3 n=30 v=100
8035308 Off ch=3 n=30 v=0
8035408 On ch=3 n=9 v=100
8036371 On ch=3 n=42 v=100
8036402 Off ch=3 n=9 v=0
8036413 On ch=3 n=24 v=100
8036498 Off ch=3 n=24 v=0
8036499 Off ch=3 n=42 v=0
8037014 On ch=3 n=19 v=100
8037215 On ch=3 n=26 v=100
8037225 On ch=3 n=27 v=100
8037256 Off ch=3 n=19 v=0
8037285 On ch=3 n=29 v=100
8037424 Off ch=3 n=26 v=0
8037444 On ch=3 n=9 v=100
8037448 Off ch=3 n=27 v=0
8037654 On ch=3 n=47 v=100
8037692 On ch=3 n=19 v=100
8037700 Off ch=3 n=9 v=0
8037701 Off ch=3 n=29 v=0
8037708 On ch=3 n=28 v=100
8037709 On ch=3 n=13 v=100
8037785 Off ch=3 n=19 v=0
8037789 Off ch=3 n=47 v=0
8037794 Off ch=3 n=13 v=0
8037805 Off ch=3 n=28 v=0
8037814 On ch=3 n=33 v=100
8037869 On ch=3 n=8 v=100
8037972 Off ch=3 n=33 v=0
8038335 Off ch=3 n=8 v=0
8039700 On ch=3 n=37 v=100
8039816 Off ch=3 n=37 v=0
8039990 On ch=3 n=29 v=100
8040042 On ch=3 n=35 v=100
8040283 Off ch=3 n=29 v=0
8040401 Off ch=3 n=35 v=0
8040415 On ch=3 n=15 v=100
8041038 Off ch=3 n=15 v=0
8042052 On ch=3 n=20 v=100
8042264 Off ch=3 n=20 v=0
8042545 On ch=3 n=20 v=100
8042740 On ch=3 n=26 v=100
8042797 Off ch=3 n=20 v=0
8042819 On ch=3 n=13 v=100
8042957 Off ch=3 n=13 v=0
8042964 Off ch=3 n=26 v=0
8043074 On ch=3 n=19 v=100
8043155 Off ch=3 n=19 v=0
8043173 On ch=3 n=18 v=100
8043249 Off ch=3 n=18 v=0
8043294 On ch=3 n=16 v=100
8043668 Off ch=3 n=16 v=0
8044077 On ch=3 n=39 v=100
8044115 On ch=3 n=34 v=100
8044140 On ch=3 n=25 v=100
8044140 On ch=3 n=42 v=100
8044322 Off ch=3 n=39 v=0
8044327 Off ch=3 n=25 v=0
8044332 Off ch=3 n=34 v=0
8044355 Off ch=3 n=42 v=0
8044538 On ch=3 n=15 v=100
8044782 Off ch=3 n=15 v=0
8044786 On ch=3 n=10 v=100
8044966 Off ch=3 n=10 v=0
8046069 On ch=3 n=19 v=100
8046262 Off ch=3 n=19 v=0
8046263 On ch=3 n=11 v=100
8046263 On ch=3 n=11 v=100
8046278 On ch=3 n=8 v=100
8046459 Off ch=3 n=8 v=0
8046471 Off ch=3 n=11 v=0
8046471 Off ch=3 n=11 v=0
8046478 On ch=3 n=20 v=100
8046665 On ch=3 n=0 v=100
8046665 Off ch=3 n=20 v=0
8046703 Off ch=3 n=0 v=0
8046719 On ch=3 n=13 v=100
8047455 On ch=3 n=15 v=100
8047456 Off ch=3 n=13 v=0
8047732 On ch=3 n=31 v=100
8047795 Off ch=3 n=15 v=0
8047805 Off ch=3 n=31 v=0
8048783 On ch=3 n=22 v=100
8048862 On ch=3 n=18 v=100
8048966 Off ch=3 n=22 v=0
8049009 Off ch=3 n=18 v=0
8049995 On ch=3 n=26 v=100
8050059 On ch=3 n=22 v=100
8050106 On ch=3 n=19 v=100
8050200 On ch=3 n=12 v=100
8050200 On ch=3 n=12 v=100
8050215 Off ch=3 n=26 v=0
8050272 Off ch=3 n=22 v=0
8050282 On ch=3 n=14 v=100
8050377 On ch=3 n=36 v=100
8050377 On ch=3 n=36 v=100
8050604 Off ch=3 n=12 v=0
8050604 Off ch=3 n=12 v=0
8050613 Off ch=3 n=19 v=0
8050680 Off ch=3 n=14 v=0
8050683 On ch=3 n=23 v=100
8050805 Off ch=3 n=36 v=0
8050805 Off ch=3 n=36 v=0
8050963 Off ch=3 n=23 v=0
8051227 On ch=3 n=26 v=100
8051227 On ch=3 n=17 v=100
8051336 On ch=3 n=7 v=100
8051336 Off ch=3 n=17 v=0
8051362 Off ch=3 n=26 v=0
8051557 Off ch=3 n=7 v=0
8051558 On ch=3 n=6 v=100
8051821 Off ch=3 n=6 v=0
8051860 On ch=3 n=14 v=100
8051985 Off ch=3 n=14 v=0
8053418 On ch=3 n=7 v=100
8053865 On ch=3 n=14 v=100
8053867 Off ch=3 n=7 v=0
8054140 Off ch=3 n=14 v=0
8054219 On ch=3 n=14 v=100
8054679 Off ch=3 n=14 v=0
8054844 On ch=3 n=23 v=100
8054848 On ch=3 n=23 v=100
8054959 Off ch=3 n=23 v=0
8054982 Off ch=3 n=23 v=0
8055032 On ch=3 n=38 v=100
8055138 Off ch=3 n=38 v=0
8055225 On ch=3 n=27 v=100
8055414 Off ch=3 n=27 v=0
8055759 On ch=3 n=19 v=100
8056079 Off ch=3 n=19 v=0
8058267 On ch=3 n=55 v=100
8058358 On ch=3 n=8 v=100
8058704 Off ch=3 n=55 v=0
8059588 Off ch=3 n=8 v=0
8059594 On ch=3 n=19 v=100
8060067 Off ch=3 n=19 v=0
8060128 On ch=3 n=10 v=100
8060190 On ch=3 n=23 v=100
8060443 Off ch=3 n=10 v=0
8060449 On ch=3 n=20 v=100
8060496 Off ch=3 n=23 v=0
8060521 Off ch=3 n=20 v=0
8063172 On ch=3 n=37 v=100
8063290 Off ch=3 n=37 v=0
8063573 On ch=3 n=17 v=100
8063603 Off ch=3 n=17 v=0
8063636 On ch=3 n=17 v=100
8063700 On ch=3 n=9 v=100
8063724 On ch=3 n=21 v=100
8063766 On ch=3 n=21 v=100
8063977 Off ch=3 n=17 v=0
8063977 Off ch=3 n=9 v=0
8064041 Off ch=3 n=21 v=0
8064305 On ch=3 n=33 v=100
8064491 Off ch=3 n=21 v=0
8064626 Off ch=3 n=33 v=0
8064790 On ch=3 n=6 v=100
8064991 Off ch=3 n=6 v=0
8066920 On ch=3 n=10 v=100
8067314 Off ch=3 n=10 v=0
8067619 On ch=3 n=10 v=100
8068139 On ch=3 n=6 v=100
8068148 Off ch=3 n=10 v=0
8068521 On ch=3 n=6 v=100
8068523 Off ch=3 n=6 v=0
8069076 Off ch=3 n=6 v=0
8069091 On ch=3 n=24 v=100
8069485 Off ch=3 n=24 v=0
8069869 On ch=3 n=53 v=100
8069946 Off ch=3 n=53 v=0
8070037 On ch=3 n=40 v=100
8070080 On ch=3 n=23 v=100
8070366 Off ch=3 n=40 v=0
8070370 On ch=3 n=16 v=100
8070406 On ch=3 n=27 v=100
8070704 Off ch=3 n=23 v=0
8070816 Off ch=3 n=16 v=0
8070816 Off ch=3 n=27 v=0
8070854 On ch=3 n=16 v=100
8070854 On ch=3 n=27 v=100
8070897 Off ch=3 n=16 v=0
8071027 Off ch=3 n=27 v=0
8071034 On ch=3 n=8 v=100
8071345 Off ch=3 n=8 v=0
8071366 On ch=3 n=11 v=100
8071541 On ch=3 n=50 v=100
8071541 On ch=3 n=50 v=100
8071763 On ch=3 n=30 v=100
8071792 On ch=3 n=34 v=100
8071792 Off ch=3 n=11 v=0
8071808 On ch=3 n=45 v=100
8071808 On ch=3 n=45 v=100
8071972 Off ch=3 n=30 v=0
8071977 Off ch=3 n=50 v=0
8071977 Off ch=3 n=50 v=0
8071992 Off ch=3 n=34 v=0
8072090 Off ch=3 n=45 v=0
8072090 Off ch=3 n=45 v=0
8072111 On ch=3 n=26 v=100
8072191 Off ch=3 n=26 v=0
8073529 On ch=3 n=8 v=100
8073639 Off ch=3 n=8 v=0
8073641 On ch=3 n=8 v=100
8073735 Off ch=3 n=8 v=0
8073914 On ch=3 n=18 v=100
8074145 On ch=3 n=21 v=100
8074260 Off ch=3 n=18 v=0
8074540 Off ch=3 n=21 v=0
8074541 On ch=3 n=11 v=100
8075257 Off ch=3 n=11 v=0
8075259 On ch=3 n=7 v=100
8075492 On ch=3 n=7 v=100
8075497 Off ch=3 n=7 v=0
8075808 On ch=3 n=9 v=100
8075808 Off ch=3 n=7 v=0
8076289 On ch=3 n=13 v=100
8076289 Off ch=3 n=9 v=0
8076320 Off ch=3 n=13 v=0
8078465 On ch=3 n=30 v=100
8078754 On ch=3 n=25 v=100
8078755 Off ch=3 n=30 v=0
8078858 On ch=3 n=13 v=100
8078858 On ch=3 n=16 v=100
8078858 On ch=3 n=27 v=100
8079031 Off ch=3 n=25 v=0
8079210 Off ch=3 n=13 v=0
8079341 Off ch=3 n=16 v=0
8079417 On ch=3 n=7 v=100
8079455 Off ch=3 n=27 v=0
8080047 Off ch=3 n=7 v=0
8082140 On ch=3 n=14 v=100
8082377 Off ch=3 n=14 v=0
8082510 On ch=3 n=21 v=100
8082511 On ch=3 n=12 v=100
8082577 Off ch=3 n=12 v=0
8082588 Off ch=3 n=21 v=0
8082615 On ch=3 n=9 v=100
8083418 Off ch=3 n=9 v=0
8085185 On ch=3 n=29 v=100
8085417 Off ch=3 n=29 v=0
8085665 On ch=3 n=17 v=100
8085791 Off ch=3 n=17 v=0
8085901 On ch=3 n=34 v=100
8086462 On ch=3 n=11 v=100
8086718 Off ch=3 n=34 v=0
8087499 Off ch=3 n=11 v=0
8087747 On ch=3 n=20 v=100
8087803 Off ch=3 n=20 v=0
8089428 On ch=3 n=11 v=100
8089661 On ch=3 n=45 v=100
8089760 Off ch=3 n=11 v=0
8089780 Off ch=3 n=45 v=0
8091017 On ch=3 n=9 v=100
8091399 On ch=3 n=63 v=100
8091401 Off ch=3 n=9 v=0
8091405 On ch=3 n=7 v=100
8091474 Off ch=3 n=7 v=0
8091494 Off ch=3 n=63 v=0
8091619 On ch=3 n=22 v=100
8091769 Off ch=3 n=22 v=0
8097110 On ch=3 n=17 v=100
8097756 Off ch=3 n=17 v=0
8097986 On ch=3 n=26 v=100
8098095 On ch=3 n=35 v=100
8098208 Off ch=3 n=26 v=0
8098234 Off ch=3 n=35 v=0
8098262 On ch=3 n=25 v=100
8098263 On ch=3 n=37 v=100
8098548 Off ch=3 n=25 v=0
8098560 On ch=3 n=20 v=100
8098577 On ch=3 n=47 v=100
8098721 Off ch=3 n=37 v=0
8098730 Off ch=3 n=20 v=0
8098739 On ch=3 n=16 v=100
8098742 On ch=3 n=31 v=100
8099018 Off ch=3 n=47 v=0
8099144 Off ch=3 n=16 v=0
8099549 On ch=3 n=9 v=100
8099822 On ch=3 n=26 v=100
8099861 Off ch=3 n=31 v=0
8099863 Off ch=3 n=9 v=0
8099985 On ch=3 n=37 v=100
8100105 Off ch=3 n=26 v=0
8100128 Off ch=3 n=37 v=0
8100216 On ch=3 n=8 v=100
8100776 Off ch=3 n=8 v=0
8101042 On ch=3 n=21 v=100
8101065 On ch=3 n=22 v=100
8101183 Off ch=3 n=21 v=0
8101494 Off ch=3 n=22 v=0
8102404 On ch=3 n=49 v=100
8102553 Off ch=3 n=49 v=0
8103092 On ch=3 n=13 v=100
8103131 Off ch=3 n=13 v=0
8103549 On ch=3 n=6 v=100
8104550 Off ch=3 n=6 v=0
8104837 On ch=3 n=10 v=100
8105172 On ch=3 n=5 v=100
8105186 Off ch=3 n=10 v=0
8106756 Off ch=3 n=5 v=0
8106891 On ch=3 n=5 v=100
8108501 Off ch=3 n=5 v=0
8108686 On ch=3 n=16 v=100
8108755 On ch=3 n=5 v=100
8108762 Off ch=3 n=16 v=0
8110390 On ch=3 n=7 v=100
8110391 Off ch=3 n=5 v=0
8110547 Off ch=3 n=7 v=0
8110552 On ch=3 n=16 v=100
8110775 Off ch=3 n=16 v=0
8111624 On ch=3 n=26 v=100
8111702 On ch=3 n=8 v=100
8111779 Off ch=3 n=26 v=0
8112016 On ch=3 n=11 v=100
8112041 Off ch=3 n=8 v=0
8112485 Off ch=3 n=11 v=0
8112946 On ch=3 n=24 v=100
8113462 Off ch=3 n=24 v=0
8114052 On ch=3 n=30 v=100
8114067 On ch=3 n=26 v=100
8114143 Off ch=3 n=30 v=0
8114227 Off ch=3 n=26 v=0
8116670 On ch=3 n=16 v=100
8116732 Off ch=3 n=16 v=0
8116782 On ch=3 n=24 v=100
8116964 On ch=3 n=29 v=100
8117090 Off ch=3 n=24 v=0
8117090 Off ch=3 n=29 v=0
8117126 On ch=3 n=24 v=100
8117126 On ch=3 n=22 v=100
8117126 On ch=3 n=30 v=100
8117126 On ch=3 n=29 v=100
8117135 On ch=3 n=29 v=100
8117304 Off ch=3 n=24 v=0
8117410 Off ch=3 n=22 v=0
8117460 Off ch=3 n=30 v=0
8117517 Off ch=3 n=29 v=0
8117871 Off ch=3 n=29 v=0
8118113 On ch=3 n=34 v=100
8118150 On ch=3 n=29 v=100
8118150 On ch=3 n=29 v=100
8118169 On ch=3 n=18 v=100
8118247 On ch=3 n=35 v=100
8118478 Off ch=3 n=18 v=0
8118486 Off ch=3 n=34 v=0
8118527 Off ch=3 n=29 v=0
8118527 Off ch=3 n=29 v=0
8118562 Off ch=3 n=35 v=0
8120240 On ch=3 n=13 v=100
8120250 On ch=3 n=25 v=100
8120387 Off ch=3 n=13 v=0
8120487 Off ch=3 n=25 v=0
8121222 On ch=3 n=40 v=100
8121338 Off ch=3 n=40 v=0
8121346 On ch=3 n=12 v=100
8121571 Off ch=3 n=12 v=0
8121713 On ch=3 n=33 v=100
8121850 Off ch=3 n=33 v=0
8123438 On ch=3 n=12 v=100
8124148 Off ch=3 n=12 v=0
8125066 On ch=3 n=8 v=100
8125177 On ch=3 n=13 v=100
8125177 Off ch=3 n=8 v=0
8125524 Off ch=3 n=13 v=0
8125627 On ch=3 n=13 v=100
8126142 On ch=3 n=10 v=100
8126142 Off ch=3 n=13 v=0
8126877 Off ch=3 n=10 v=0
8128857 On ch=3 n=43 v=100
8129055 Off ch=3 n=43 v=0
8129393 On ch=3 n=16 v=100
8129467 Off ch=3 n=16 v=0
8129897 On ch=3 n=17 v=100
8129900 On ch=3 n=8 v=100
8130211 Off ch=3 n=8 v=0
8130229 On ch=3 n=18 v=100
8130248 Off ch=3 n=17 v=0
8130518 On ch=3 n=10 v=100
8130913 Off ch=3 n=18 v=0
8131254 Off ch=3 n=10 v=0
8131891 On ch=3 n=9 v=100
8132834 Off ch=3 n=9 v=0
8134318 On ch=3 n=19 v=100
8134377 Off ch=3 n=19 v=0
8134492 On ch=3 n=14 v=100
8134738 Off ch=3 n=14 v=0
8134758 On ch=3 n=13 v=100
8134988 On ch=3 n=12 v=100
8135017 Off ch=3 n=13 v=0
8135019 On ch=3 n=17 v=100
8135021 Off ch=3 n=12 v=0
8135115 On ch=3 n=35 v=100
8135160 Off ch=3 n=17 v=0
8135160 Off ch=3 n=35 v=0
8135194 On ch=3 n=35 v=100
8135291 On ch=3 n=28 v=100
8135468 Off ch=3 n=35 v=0
8135605 Off ch=3 n=28 v=0
8135662 On ch=3 n=33 v=100
8135796 Off ch=3 n=33 v=0
8135814 On ch=3 n=28 v=100
8135922 On ch=3 n=4 v=100
8135949 Off ch=3 n=28 v=0
8136146 Off ch=3 n=4 v=0
8136169 On ch=3 n=15 v=100
8136305 Off ch=3 n=15 v=0
8136630 On ch=3 n=25 v=100
8136762 Off ch=3 n=25 v=0
8136853 On ch=3 n=10 v=100
8136984 Off ch=3 n=10 v=0
8136985 On ch=3 n=10 v=100
8137883 Off ch=3 n=10 v=0
8138129 On ch=3 n=26 v=100
8138159 On ch=3 n=23 v=100
8138266 Off ch=3 n=23 v=0
8138268 Off ch=3 n=26 v=0
8138637 On ch=3 n=27 v=100
8138764 Off ch=3 n=27 v=0
8139391 On ch=3 n=11 v=100
8140065 Off ch=3 n=11 v=0
8140180 On ch=3 n=35 v=100
8140286 Off ch=3 n=35 v=0
8140297 On ch=3 n=14 v=100
8140792 On ch=3 n=18 v=100
8140831 Off ch=3 n=14 v=0
8140919 On ch=3 n=19 v=100
8140982 Off ch=3 n=18 v=0
8141491 Off ch=3 n=19 v=0
8143376 On ch=3 n=41 v=100
8143393 On ch=3 n=11 v=100
8143453 Off ch=3 n=41 v=0
8143568 Off ch=3 n=11 v=0
8143587 On ch=3 n=11 v=100
8144250 Off ch=3 n=11 v=0
8144257 On ch=3 n=14 v=100
8144408 Off ch=3 n=14 v=0
8144989 On ch=3 n=13 v=100
8145297 Off ch=3 n=13 v=0
8145299 On ch=3 n=7 v=100
8145513 Off ch=3 n=7 v=0
8145902 On ch=3 n=30 v=100
8146015 Off ch=3 n=30 v=0
8146553 On ch=3 n=13 v=100
8146799 On ch=3 n=36 v=100
8146828 On ch=3 n=35 v=100
8146828 Off ch=3 n=13 v=0
8146860 On ch=3 n=29 v=100
8146868 On ch=3 n=15 v=100
8146868 On ch=3 n=24 v=100
8146893 On ch=3 n=33 v=100
8146949 Off ch=3 n=36 v=0
8146983 Off ch=3 n=15 v=0
8146987 Off ch=3 n=35 v=0
8146993 Off ch=3 n=29 v=0
8147019 Off ch=3 n=33 v=0
8147041 Off ch=3 n=24 v=0
8147175 On ch=3 n=7 v=100
8147427 On ch=3 n=7 v=100
8147432 Off ch=3 n=7 v=0
8147707 Off ch=3 n=7 v=0
8147733 On ch=3 n=26 v=100
8147936 On ch=3 n=15 v=100
8147940 On ch=3 n=28 v=100
8148305 Off ch=3 n=26 v=0
8148357 Off ch=3 n=15 v=0
8148481 Off ch=3 n=28 v=0
8149447 On ch=3 n=60 v=100
8149543 Off ch=3 n=60 v=0
8150207 On ch=3 n=11 v=100
8150464 On ch=3 n=13 v=100
8150467 Off ch=3 n=11 v=0
8150661 Off ch=3 n=13 v=0
8151327 On ch=3 n=6 v=100
8151527 On ch=3 n=17 v=100
8151528 Off ch=3 n=6 v=0
8151891 On ch=3 n=23 v=100
8151895 On ch=3 n=25 v=100
8151945 Off ch=3 n=17 v=0
8151960 Off ch=3 n=25 v=0
8152021 Off ch=3 n=23 v=0
8152027 On ch=3 n=9 v=100
8153138 On ch=3 n=28 v=100
8153214 Off ch=3 n=9 v=0
8153253 Off ch=3 n=28 v=0
8154124 On ch=3 n=23 v=100
8154142 On ch=3 n=12 v=100
8154225 Off ch=3 n=23 v=0
8154262 Off ch=3 n=12 v=0
8154267 On ch=3 n=7 v=100
8155358 On ch=3 n=12 v=100
8155385 Off ch=3 n=7 v=0
8155391 On ch=3 n=21 v=100
8155393 On ch=3 n=42 v=100
8155393 On ch=3 n=42 v=100
8155464 Off ch=3 n=12 v=0
8155477 Off ch=3 n=21 v=0
8155500 On ch=3 n=22 v=100
8155675 Off ch=3 n=22 v=0
8155716 Off ch=3 n=42 v=0
8155716 Off ch=3 n=42 v=0
8156097 On ch=3 n=11 v=100
8156275 Off ch=3 n=11 v=0
8156961 On ch=3 n=34 v=100
8156987 On ch=3 n=22 v=100
8157055 Off ch=3 n=34 v=0
8157612 Off ch=3 n=22 v=0
8157755 On ch=3 n=3 v=100
8157785 On ch=3 n=6 v=100
8157785 Off ch=3 n=3 v=0
8158114 Off ch=3 n=6 v=0
8158188 On ch=3 n=27 v=100
8158309 Off ch=3 n=27 v=0
8158627 On ch=3 n=8 v=100
8158981 Off ch=3 n=8 v=0
8158983 On ch=3 n=8 v=100
8159412 Off ch=3 n=8 v=0
8159637 On ch=3 n=18 v=100
8159782 On ch=3 n=29 v=100
8159782 On ch=3 n=29 v=100
8159846 Off ch=3 n=18 v=0
8160216 On ch=3 n=16 v=100
8160252 Off ch=3 n=29 v=0
8160252 Off ch=3 n=29 v=0
8160256 On ch=3 n=34 v=100
8160354 Off ch=3 n=16 v=0
8160382 Off ch=3 n=34 v=0
8161599 On ch=3 n=26 v=100
8161864 On ch=3 n=16 v=100
8161869 On ch=3 n=28 v=100
8162233 Off ch=3 n=26 v=0
8162335 Off ch=3 n=16 v=0
8162447 Off ch=3 n=28 v=0
8162490 On ch=3 n=24 v=100
8162557 Off ch=3 n=24 v=0
8163659 On ch=3 n=37 v=100
8163700 On ch=3 n=27 v=100
8163700 On ch=3 n=27 v=100
8163866 On ch=3 n=16 v=100
8163866 On ch=3 n=16 v=100
8163892 On ch=3 n=13 v=100
8163953 Off ch=3 n=37 v=0
8164245 Off ch=3 n=13 v=0
8164253 Off ch=3 n=27 v=0
8164253 Off ch=3 n=27 v=0
8164256 On ch=3 n=12 v=100
8164284 Off ch=3 n=16 v=0
8164284 Off ch=3 n=16 v=0
8164320 Off ch=3 n=12 v=0
8164336 On ch=3 n=37 v=100
8164336 On ch=3 n=30 v=100
8164511 Off ch=3 n=37 v=0
8164627 Off ch=3 n=30 v=0
8164718 On ch=3 n=29 v=100
8164723 On ch=3 n=52 v=100
8164832 Off ch=3 n=29 v=0
8164886 On ch=3 n=39 v=100
8164909 Off ch=3 n=52 v=0
8165152 On ch=3 n=30 v=100
8165154 On ch=3 n=9 v=100
8165307 Off ch=3 n=9 v=0
8165312 Off ch=3 n=39 v=0
8165385 Off ch=3 n=30 v=0
8165629 On ch=3 n=21 v=100
8165687 On ch=3 n=16 v=100
8165695 On ch=3 n=15 v=100
8166061 Off ch=3 n=21 v=0
8166141 Off ch=3 n=16 v=0
8166158 On ch=3 n=34 v=100
8166209 Off ch=3 n=15 v=0
8166438 Off ch=3 n=34 v=0
8166566 On ch=3 n=25 v=100
8166671 Off ch=3 n=25 v=0
8167264 On ch=3 n=26 v=100
8167502 Off ch=3 n=26 v=0
8167715 On ch=3 n=14 v=100
8167730 On ch=3 n=7 v=100
8167847 Off ch=3 n=14 v=0
8168570 On ch=3 n=6 v=100
8168570 Off ch=3 n=7 v=0
8168715 Off ch=3 n=6 v=0
8169073 On ch=3 n=37 v=100
8169173 Off ch=3 n=37 v=0
8170129 On ch=3 n=17 v=100
8170338 On ch=3 n=41 v=100
8170339 Off ch=3 n=17 v=0
8170395 On ch=3 n=8 v=100
8170712 Off ch=3 n=41 v=0
8171427 Off ch=3 n=8 v=0
8171444 On ch=3 n=5 v=100
8171500 Off ch=3 n=5 v=0
8171502 On ch=3 n=24 v=100
8171552 Off ch=3 n=24 v=0
8171706 On ch=3 n=5 v=100
8171898 On ch=3 n=26 v=100
8171898 On ch=3 n=26 v=100
8171898 On ch=3 n=27 v=100
8171917 Off ch=3 n=5 v=0
8172154 On ch=3 n=8 v=100
8172163 Off ch=3 n=26 v=0
8172163 Off ch=3 n=26 v=0
8172202 Off ch=3 n=27 v=0
8172631 Off ch=3 n=8 v=0
8173047 On ch=3 n=12 v=100
8173445 Off ch=3 n=12 v=0
8173578 On ch=3 n=14 v=100
8173825 Off ch=3 n=14 v=0
8173942 On ch=3 n=14 v=100
8174162 Off ch=3 n=14 v=0
8174349 On ch=3 n=8 v=100
8174731 On ch=3 n=20 v=100
8174784 On ch=3 n=20 v=100
8174790 On ch=3 n=17 v=100
8174790 On ch=3 n=17 v=100
8174846 On ch=3 n=22 v=100
8174846 On ch=3 n=22 v=100
8174854 On ch=3 n=11 v=100
8174856 Off ch=3 n=8 v=0
8174857 On ch=3 n=9 v=100
8175183 Off ch=3 n=20 v=0
8175258 Off ch=3 n=17 v=0
8175258 Off ch=3 n=17 v=0
8175259 Off ch=3 n=11 v=0
8175308 Off ch=3 n=9 v=0
8175312 Off ch=3 n=20 v=0
8175411 Off ch=3 n=22 v=0
8175411 Off ch=3 n=22 v=0
8177685 On ch=3 n=16 v=100
8177858 Off ch=3 n=16 v=0
8177865 On ch=3 n=33 v=100
8177943 Off ch=3 n=33 v=0
8177958 On ch=3 n=11 v=100
8178864 On ch=3 n=48 v=100
8178940 Off ch=3 n=11 v=0
8178945 On ch=3 n=31 v=100
8179062 Off ch=3 n=31 v=0
8179067 Off ch=3 n=48 v=0
8179781 On ch=3 n=44 v=100
8179799 On ch=3 n=44 v=100
8179917 Off ch=3 n=44 v=0
8179957 Off ch=3 n=44 v=0
8182024 On ch=3 n=13 v=100
8182073 Off ch=3 n=13 v=0
8182571 On ch=3 n=11 v=100
8182571 On ch=3 n=13 v=100
8182742 On ch=3 n=9 v=100
8182744 Off ch=3 n=13 v=0
8182765 Off ch=3 n=11 v=0
8182830 Off ch=3 n=9 v=0
8182833 On ch=3 n=14 v=100
8182949 On ch=3 n=16 v=100
8182962 Off ch=3 n=14 v=0
8182964 On ch=3 n=14 v=100
8183015 On ch=3 n=16 v=100
8183017 Off ch=3 n=16 v=0
8183019 Off ch=3 n=14 v=0
8183309 Off ch=3 n=16 v=0
8184251 On ch=3 n=27 v=100
8184311 Off ch=3 n=27 v=0
8184430 On ch=3 n=38 v=100
8184430 On ch=3 n=28 v=100
8184553 Off ch=3 n=38 v=0
8184589 Off ch=3 n=28 v=0
8185101 On ch=3 n=39 v=100
8185111 On ch=3 n=42 v=100
8185130 On ch=3 n=38 v=100
8185187 Off ch=3 n=39 v=0
8185187 Off ch=3 n=42 v=0
8185204 Off ch=3 n=38 v=0
8186804 On ch=3 n=31 v=100
8186974 Off ch=3 n=31 v=0
8187117 On ch=3 n=25 v=100
8187181 Off ch=3 n=25 v=0
8187394 On ch=3 n=21 v=100
8187452 Off ch=3 n=21 v=0
8187488 On ch=3 n=24 v=100
8188046 Off ch=3 n=24 v=0
8188355 On ch=3 n=22 v=100
8188476 Off ch=3 n=22 v=0
8188561 On ch=3 n=7 v=100
8189048 Off ch=3 n=7 v=0
8189053 On ch=3 n=11 v=100
8189359 On ch=3 n=10 v=100
8189359 Off ch=3 n=11 v=0
8190760 On ch=3 n=11 v=100
8190788 Off ch=3 n=10 v=0
8191210 Off ch=3 n=11 v=0
8191264 On ch=3 n=6 v=100
8191266 On ch=3 n=14 v=100
8191348 Off ch=3 n=6 v=0
8191368 Off ch=3 n=14 v=0
8193139 On ch=3 n=11 v=100
8193458 On ch=3 n=11 v=100
8193684 Off ch=3 n=11 v=0
8193697 On ch=3 n=9 v=100
8193748 Off ch=3 n=11 v=0
8194326 On ch=3 n=22 v=100
8194408 Off ch=3 n=9 v=0
8194494 Off ch=3 n=22 v=0
8196186 On ch=3 n=9 v=100
8196222 On ch=3 n=10 v=100
8196232 Off ch=3 n=9 v=0
8196291 Off ch=3 n=10 v=0
8196692 On ch=3 n=37 v=100
8196714 On ch=3 n=31 v=100
8196823 Off ch=3 n=31 v=0
8196830 Off ch=3 n=37 v=0
8196859 On ch=3 n=29 v=100
8196875 On ch=3 n=33 v=100
8196875 On ch=3 n=47 v=100
8196877 On ch=3 n=40 v=100
8197009 Off ch=3 n=33 v=0
8197012 Off ch=3 n=29 v=0
8197036 Off ch=3 n=40 v=0
8197056 Off ch=3 n=47 v=0
8198028 On ch=3 n=28 v=100
8198028 On ch=3 n=23 v=100
8198100 Off ch=3 n=23 v=0
8198113 Off ch=3 n=28 v=0
8198129 On ch=3 n=4 v=100
8198179 Off ch=3 n=4 v=0
8198498 On ch=3 n=19 v=100
8198703 Off ch=3 n=19 v=0
8198744 On ch=3 n=5 v=100
8198745 On ch=3 n=21 v=100
8198800 Off ch=3 n=5 v=0
8198819 Off ch=3 n=21 v=0
8198908 On ch=3 n=9 v=100
8199080 Off ch=3 n=9 v=0
8199223 On ch=3 n=15 v=100
8199223 On ch=3 n=15 v=100
8199263 On ch=3 n=14 v=100
8199479 Off ch=3 n=14 v=0
8199492 Off ch=3 n=15 v=0
8199492 Off ch=3 n=15 v=0
8199585 On ch=3 n=7 v=100
8200077 On ch=3 n=13 v=100
8200128 On ch=3 n=6 v=100
8200190 Off ch=3 n=7 v=0
8200410 Off ch=3 n=13 v=0
8200410 Off ch=3 n=6 v=0
8200740 On ch=3 n=21 v=100
8200837 On ch=3 n=12 v=100
8201094 Off ch=3 n=12 v=0
8201095 Off ch=3 n=21 v=0
8201123 On ch=3 n=13 v=100
8201263 On ch=3 n=46 v=100
8201335 On ch=3 n=50 v=100
8201358 Off ch=3 n=13 v=0
8201390 Off ch=3 n=46 v=0
8201538 Off ch=3 n=50 v=0
8201670 On ch=3 n=30 v=100
8201694 On ch=3 n=8 v=100
8201794 Off ch=3 n=30 v=0
8202018 On ch=3 n=14 v=100
8202031 Off ch=3 n=8 v=0
8202183 Off ch=3 n=14 v=0
8202186 On ch=3 n=15 v=100
8202296 Off ch=3 n=15 v=0
8202522 On ch=3 n=26 v=100
8202959 Off ch=3 n=26 v=0
8203001 On ch=3 n=20 v=100
8203483 Off ch=3 n=20 v=0
8203488 On ch=3 n=26 v=100
8203686 Off ch=3 n=26 v=0
8203735 On ch=3 n=31 v=100
8203837 Off ch=3 n=31 v=0
8203842 On ch=3 n=36 v=100
8204028 Off ch=3 n=36 v=0
8204497 On ch=3 n=12 v=100
8204703 Off ch=3 n=12 v=0
8205382 On ch=3 n=12 v=100
8205604 Off ch=3 n=12 v=0
8206646 On ch=3 n=37 v=100
8206705 On ch=3 n=30 v=100
8206706 On ch=3 n=24 v=100
8206866 Off ch=3 n=24 v=0
8206868 Off ch=3 n=37 v=0
8206906 Off ch=3 n=30 v=0
8207318 On ch=3 n=23 v=100
8207326 On ch=3 n=22 v=100
8207326 On ch=3 n=51 v=100
8207327 On ch=3 n=18 v=100
8207386 Off ch=3 n=23 v=0
8207416 Off ch=3 n=18 v=0
8207427 Off ch=3 n=22 v=0
8207536 Off ch=3 n=51 v=0
8207603 On ch=3 n=7 v=100
8208203 On ch=3 n=33 v=100
8208279 Off ch=3 n=7 v=0
8208306 Off ch=3 n=33 v=0
8208722 On ch=3 n=29 v=100
8208791 On ch=3 n=22 v=100
8208796 On ch=3 n=51 v=100
8208796 On ch=3 n=51 v=100
8208820 On ch=3 n=26 v=100
8208899 Off ch=3 n=22 v=0
8208905 Off ch=3 n=29 v=0
8208938 Off ch=3 n=26 v=0
8208963 Off ch=3 n=51 v=0
8208963 Off ch=3 n=51 v=0
8209769 On ch=3 n=13 v=100
8209841 Off ch=3 n=13 v=0
8209846 On ch=3 n=17 v=100
8210650 Off ch=3 n=17 v=0
8210654 On ch=3 n=10 v=100
8210841 Off ch=3 n=10 v=0
8211320 On ch=3 n=41 v=100
8211474 Off ch=3 n=41 v=0
8211678 On ch=3 n=30 v=100
8211991 Off ch=3 n=30 v=0
8212928 On ch=3 n=25 v=100
8213458 Off ch=3 n=25 v=0
8213651 On ch=3 n=16 v=100
8213847 Off ch=3 n=16 v=0
8213877 On ch=3 n=17 v=100
8214227 Off ch=3 n=17 v=0
8215742 On ch=3 n=35 v=100
8215945 On ch=3 n=13 v=100
8216078 Off ch=3 n=35 v=0
8216317 Off ch=3 n=13 v=0
8216319 On ch=3 n=18 v=100
8216551 Off ch=3 n=18 v=0
8217139 On ch=3 n=11 v=100
8217165 On ch=3 n=10 v=100
8217214 Off ch=3 n=11 v=0
8217215 Off ch=3 n=10 v=0
8218846 On ch=3 n=5 v=100
8218955 Off ch=3 n=5 v=0
8218957 On ch=3 n=7 v=100
8218957 On ch=3 n=15 v=100
8218999 Off ch=3 n=7 v=0
8219013 Off ch=3 n=15 v=0
8219965 On ch=3 n=22 v=100
8220120 On ch=3 n=27 v=100
8220120 On ch=3 n=27 v=100
8220142 Off ch=3 n=22 v=0
8220266 On ch=3 n=14 v=100
8220562 Off ch=3 n=14 v=0
8220598 Off ch=3 n=27 v=0
8220598 Off ch=3 n=27 v=0
8220994 On ch=3 n=10 v=100
8221498 On ch=3 n=34 v=100
8221519 Off ch=3 n=10 v=0
8221580 On ch=3 n=26 v=100
8221710 On ch=3 n=26 v=100
8221970 On ch=3 n=45 v=100
8222030 Off ch=3 n=34 v=0
8222056 Off ch=3 n=26 v=0
8222188 Off ch=3 n=26 v=0
8222261 Off ch=3 n=45 v=0
8223179 On ch=3 n=40 v=100
8223179 On ch=3 n=40 v=100
8223196 On ch=3 n=24 v=100
8223204 On ch=3 n=34 v=100
8223267 Off ch=3 n=24 v=0
8223285 Off ch=3 n=40 v=0
8223285 Off ch=3 n=40 v=0
8223363 On ch=3 n=21 v=100
8223628 Off ch=3 n=34 v=0
8223628 Off ch=3 n=21 v=0
8223740 On ch=3 n=8 v=100
8223882 Off ch=3 n=8 v=0
8223887 On ch=3 n=8 v=100
8224127 On ch=3 n=12 v=100
8224127 Off ch=3 n=8 v=0
8225193 Off ch=3 n=12 v=0
8225852 On ch=3 n=12 v=100
8226219 On ch=3 n=31 v=100
8226489 Off ch=3 n=12 v=0
8226523 Off ch=3 n=31 v=0
8227563 On ch=3 n=7 v=100
8227634 Off ch=3 n=7 v=0
8227639 On ch=3 n=10 v=100
8228121 Off ch=3 n=10 v=0
8228164 On ch=3 n=24 v=100
8228429 On ch=3 n=25 v=100
8228460 On ch=3 n=31 v=100
8228523 On ch=3 n=27 v=100
8228540 On ch=3 n=30 v=100
8228550 On ch=3 n=14 v=100
8228560 Off ch=3 n=24 v=0
8228890 Off ch=3 n=14 v=0
8228918 Off ch=3 n=25 v=0
8228970 Off ch=3 n=27 v=0
8228975 Off ch=3 n=31 v=0
8229054 Off ch=3 n=30 v=0
8229882 On ch=3 n=26 v=100
8230104 On ch=3 n=25 v=100
8230111 Off ch=3 n=26 v=0
8230363 Off ch=3 n=25 v=0
8230387 On ch=3 n=37 v=100
8230516 Off ch=3 n=37 v=0
8230946 On ch=3 n=11 v=100
8231253 Off ch=3 n=11 v=0
8231262 On ch=3 n=7 v=100
8231939 Off ch=3 n=7 v=0
8233129 On ch=3 n=25 v=100
8233129 On ch=3 n=25 v=100
8233141 On ch=3 n=18 v=100
8233173 On ch=3 n=10 v=100
8233176 Off ch=3 n=18 v=0
8233188 Off ch=3 n=25 v=0
8233188 Off ch=3 n=25 v=0
8233362 On ch=3 n=43 v=100
8233566 Off ch=3 n=10 v=0
8233753 On ch=3 n=23 v=100
8234038 Off ch=3 n=43 v=0
8234064 Off ch=3 n=23 v=0
8234819 On ch=3 n=20 v=100
8234923 Off ch=3 n=20 v=0
8234925 On ch=3 n=14 v=100
8235060 Off ch=3 n=14 v=0
8235273 On ch=3 n=23 v=100
8235341 Off ch=3 n=23 v=0
8235823 On ch=3 n=51 v=100
8235858 On ch=3 n=42 v=100
8236063 On ch=3 n=29 v=100
8236063 Off ch=3 n=51 v=0
8236067 Off ch=3 n=42 v=0
8236221 On ch=3 n=41 v=100
8236238 Off ch=3 n=29 v=0
8236261 On ch=3 n=26 v=100
8236261 On ch=3 n=19 v=100
8236274 On ch=3 n=8 v=100
8236349 Off ch=3 n=41 v=0
8236362 On ch=3 n=46 v=100
8236368 Off ch=3 n=19 v=0
8236381 On ch=3 n=26 v=100
8236382 Off ch=3 n=26 v=0
8236383 Off ch=3 n=8 v=0
8236385 On ch=3 n=13 v=100
8236441 Off ch=3 n=46 v=0
8236538 On ch=3 n=33 v=100
8236556 On ch=3 n=27 v=100
8236556 Off ch=3 n=13 v=0
8236591 Off ch=3 n=26 v=0
8236648 Off ch=3 n=33 v=0
8236648 Off ch=3 n=27 v=0
8236651 On ch=3 n=22 v=100
8236837 Off ch=3 n=22 v=0
8236930 On ch=3 n=10 v=100
8237327 Off ch=3 n=10 v=0
8237358 On ch=3 n=23 v=100
8237361 On ch=3 n=19 v=100
8237431 On ch=3 n=7 v=100
8237475 Off ch=3 n=19 v=0
8237488 Off ch=3 n=23 v=0
8237847 Off ch=3 n=7 v=0
8237895 On ch=3 n=11 v=100
8238377 On ch=3 n=22 v=100
8238534 Off ch=3 n=11 v=0
8238543 On ch=3 n=46 v=100
8238548 On ch=3 n=15 v=100
8238596 Off ch=3 n=22 v=0
8238819 Off ch=3 n=15 v=0
8238832 On ch=3 n=29 v=100
8239019 Off ch=3 n=46 v=0
8239029 Off ch=3 n=29 v=0
8243323 On ch=3 n=20 v=100
8243676 Off ch=3 n=20 v=0
8243887 On ch=3 n=46 v=100
8244061 Off ch=3 n=46 v=0
8244207 On ch=3 n=22 v=100
8244772 Off ch=3 n=22 v=0
8244773 On ch=3 n=23 v=100
8244796 On ch=3 n=17 v=100
8244820 On ch=3 n=15 v=100
8244834 On ch=3 n=27 v=100
8244849 On ch=3 n=19 v=100
8244899 Off ch=3 n=23 v=0
8244899 Off ch=3 n=17 v=0
8244899 Off ch=3 n=15 v=0
8244899 Off ch=3 n=27 v=0
8244899 Off ch=3 n=19 v=0
8244978 On ch=3 n=15 v=100
8244978 On ch=3 n=27 v=100
8244978 On ch=3 n=19 v=100
8245005 Off ch=3 n=15 v=0
8245027 Off ch=3 n=27 v=0
8245306 Off ch=3 n=19 v=0
8245530 On ch=3 n=21 v=100
8246053 On ch=3 n=29 v=100
8246141 On ch=3 n=12 v=100
8246142 On ch=3 n=24 v=100
8246150 Off ch=3 n=21 v=0
8246294 Off ch=3 n=12 v=0
8246306 Off ch=3 n=29 v=0
8246307 On ch=3 n=15 v=100
8246371 Off ch=3 n=24 v=0
8246393 Off ch=3 n=15 v=0
8247076 On ch=3 n=36 v=100
8247115 On ch=3 n=43 v=100
8247202 Off ch=3 n=36 v=0
8247238 Off ch=3 n=43 v=0
8247248 On ch=3 n=12 v=100
8247543 On ch=3 n=19 v=100
8247552 Off ch=3 n=12 v=0
8247684 Off ch=3 n=19 v=0
8247687 On ch=3 n=19 v=100
8247992 Off ch=3 n=19 v=0
8248027 On ch=3 n=19 v=100
8248225 Off ch=3 n=19 v=0
8248311 On ch=3 n=16 v=100
8248374 On ch=3 n=34 v=100
8248378 On ch=3 n=24 v=100
8248437 Off ch=3 n=16 v=0
8248494 Off ch=3 n=24 v=0
8248509 Off ch=3 n=34 v=0
8249146 On ch=3 n=13 v=100
8249169 On ch=3 n=9 v=100
8249334 Off ch=3 n=13 v=0
8249601 Off ch=3 n=9 v=0
8250686 On ch=3 n=16 v=100
8250719 Off ch=3 n=16 v=0
8250724 On ch=3 n=8 v=100
8251013 On ch=3 n=10 v=100
8251013 Off ch=3 n=8 v=0
8251162 On ch=3 n=7 v=100
8251164 Off ch=3 n=10 v=0
8251552 On ch=3 n=29 v=100
8251567 Off ch=3 n=7 v=0
8251603 Off ch=3 n=29 v=0
8252385 On ch=3 n=17 v=100
8252623 Off ch=3 n=17 v=0
8252630 On ch=3 n=19 v=100
8252748 On ch=3 n=25 v=100
8252795 Off ch=3 n=19 v=0
8252990 On ch=3 n=26 v=100
8252995 Off ch=3 n=25 v=0
8253055 Off ch=3 n=26 v=0
8253101 On ch=3 n=21 v=100
8253436 Off ch=3 n=21 v=0
8253473 On ch=3 n=30 v=100
8253777 Off ch=3 n=30 v=0
8253863 On ch=3 n=21 v=100
8253904 On ch=3 n=8 v=100
8253981 Off ch=3 n=21 v=0
8255071 Off ch=3 n=8 v=0
8255226 On ch=3 n=28 v=100
8255373 Off ch=3 n=28 v=0
8255609 On ch=3 n=32 v=100
8255680 On ch=3 n=32 v=100
8255734 Off ch=3 n=32 v=0
8255754 Off ch=3 n=32 v=0
8256373 On ch=3 n=28 v=100
8256496 Off ch=3 n=28 v=0
8256511 On ch=3 n=10 v=100
8256943 Off ch=3 n=10 v=0
8257236 On ch=3 n=19 v=100
8257331 On ch=3 n=18 v=100
8257978 Off ch=3 n=19 v=0
8257978 Off ch=3 n=18 v=0
8258734 On ch=3 n=21 v=100
8258905 Off ch=3 n=21 v=0
8260525 On ch=3 n=41 v=100
8260641 Off ch=3 n=41 v=0
8261259 On ch=3 n=7 v=100
8261420 On ch=3 n=61 v=100
8261494 Off ch=3 n=7 v=0
8261494 Off ch=3 n=61 v=0
8261545 On ch=3 n=7 v=100
8261545 On ch=3 n=61 v=100
8261566 Off ch=3 n=7 v=0
8262288 On ch=3 n=23 v=100
8262658 On ch=3 n=26 v=100
8262658 On ch=3 n=26 v=100
8262685 On ch=3 n=14 v=100
8262775 Off ch=3 n=23 v=0
8262776 Off ch=3 n=61 v=0
8262784 On ch=3 n=23 v=100
8262785 On ch=3 n=14 v=100
8262788 Off ch=3 n=14 v=0
8262807 Off ch=3 n=26 v=0
8262807 Off ch=3 n=26 v=0
8263140 On ch=3 n=10 v=100
8263176 Off ch=3 n=14 v=0
8263282 Off ch=3 n=23 v=0
8263562 On ch=3 n=21 v=100
8263577 On ch=3 n=6 v=100
8263580 Off ch=3 n=10 v=0
8263640 Off ch=3 n=21 v=0
8263648 On ch=3 n=9 v=100
8263785 On ch=3 n=14 v=100
8263788 Off ch=3 n=6 v=0
8263806 Off ch=3 n=9 v=0
8264140 On ch=3 n=7 v=100
8264210 Off ch=3 n=14 v=0
8264298 Off ch=3 n=7 v=0
8265712 On ch=3 n=13 v=100
8265879 On ch=3 n=10 v=100
8265884 Off ch=3 n=13 v=0
8266306 Off ch=3 n=10 v=0
8266311 On ch=3 n=12 v=100
8266522 Off ch=3 n=12 v=0
8266524 On ch=3 n=14 v=100
8267255 Off ch=3 n=14 v=0
8267921 On ch=3 n=11 v=100
8268250 Off ch=3 n=11 v=0
8268569 On ch=3 n=32 v=100
8269035 Off ch=3 n=32 v=0
8269069 On ch=3 n=20 v=100
8269084 On ch=3 n=63 v=100
8269164 Off ch=3 n=20 v=0
8269164 Off ch=3 n=63 v=0
8269220 On ch=3 n=63 v=100
8269398 Off ch=3 n=63 v=0
8269884 On ch=3 n=42 v=100
8269903 On ch=3 n=12 v=100
8269903 On ch=3 n=30 v=100
8270033 Off ch=3 n=42 v=0
8270049 Off ch=3 n=12 v=0
8270073 Off ch=3 n=30 v=0
8271372 On ch=3 n=38 v=100
8271393 On ch=3 n=27 v=100
8271402 On ch=3 n=22 v=100
8271555 Off ch=3 n=38 v=0
8271673 Off ch=3 n=22 v=0
8271701 Off ch=3 n=27 v=0
8271830 On ch=3 n=48 v=100
8271866 Off ch=3 n=48 v=0
8271901 On ch=3 n=48 v=100
8271971 Off ch=3 n=48 v=0
8274008 On ch=3 n=53 v=100
8274019 On ch=3 n=47 v=100
8274021 On ch=3 n=44 v=100
8274024 On ch=3 n=52 v=100
8274030 On ch=3 n=11 v=100
8274089 Off ch=3 n=44 v=0
8274117 Off ch=3 n=47 v=0
8274125 Off ch=3 n=53 v=0
8274142 On ch=3 n=12 v=100
8274142 Off ch=3 n=11 v=0
8274161 Off ch=3 n=52 v=0
8274371 On ch=3 n=37 v=100
8274545 Off ch=3 n=12 v=0
8274547 On ch=3 n=17 v=100
8275025 Off ch=3 n=37 v=0
8275163 Off ch=3 n=17 v=0
8275164 On ch=3 n=8 v=100
8275167 On ch=3 n=50 v=100
8275253 Off ch=3 n=8 v=0
8275273 Off ch=3 n=50 v=0
8275380 On ch=3 n=35 v=100
8275498 Off ch=3 n=35 v=0
8276442 On ch=3 n=40 v=100
8276460 On ch=3 n=6 v=100
8276537 On ch=3 n=36 v=100
8276582 Off ch=3 n=40 v=0
8276598 Off ch=3 n=6 v=0
8276600 On ch=3 n=10 v=100
8276616 Off ch=3 n=36 v=0
8276938 On ch=3 n=14 v=100
8276940 Off ch=3 n=10 v=0
8276989 Off ch=3 n=14 v=0
8277792 On ch=3 n=17 v=100
8278319 Off ch=3 n=17 v=0
8278467 On ch=3 n=35 v=100
8278603 Off ch=3 n=35 v=0
8280016 On ch=3 n=21 v=100
8280065 On ch=3 n=6 v=100
8280075 Off ch=3 n=21 v=0
8280365 On ch=3 n=10 v=100
8280366 Off ch=3 n=6 v=0
8280828 On ch=3 n=41 v=100
8280874 On ch=3 n=23 v=100
8280949 On ch=3 n=24 v=100
8280950 Off ch=3 n=10 v=0
8281023 Off ch=3 n=23 v=0
8281025 Off ch=3 n=41 v=0
8281025 Off ch=3 n=24 v=0
8281048 On ch=3 n=7 v=100
8281889 Off ch=3 n=7 v=0
8281890 On ch=3 n=13 v=100
8282120 Off ch=3 n=13 v=0
8283676 On ch=3 n=41 v=100
8283865 Off ch=3 n=41 v=0
8283866 On ch=3 n=11 v=100
8284648 On ch=3 n=6 v=100
8284651 Off ch=3 n=11 v=0
8285518 On ch=3 n=32 v=100
8285637 Off ch=3 n=6 v=0
8286160 Off ch=3 n=32 v=0
8286515 On ch=3 n=9 v=100
8286918 On ch=3 n=7 v=100
8286923 Off ch=3 n=9 v=0
8287119 Off ch=3 n=7 v=0
8287554 On ch=3 n=37 v=100
8287554 On ch=3 n=37 v=100
8287638 On ch=3 n=48 v=100
8287638 On ch=3 n=48 v=100
8287645 On ch=3 n=6 v=100
8287815 Off ch=3 n=37 v=0
8287815 Off ch=3 n=37 v=0
8287816 Off ch=3 n=6 v=0
8287876 Off ch=3 n=48 v=0
8287876 Off ch=3 n=48 v=0
8288031 On ch=3 n=18 v=100
8288181 Off ch=3 n=18 v=0
8288460 On ch=3 n=12 v=100
8288543 Off ch=3 n=12 v=0
8288937 On ch=3 n=19 v=100
8289005 Off ch=3 n=19 v=0
8289403 On ch=3 n=16 v=100
8289467 Off ch=3 n=16 v=0
8289756 On ch=3 n=34 v=100
8289756 On ch=3 n=34 v=100
8289781 On ch=3 n=5 v=100
8289806 On ch=3 n=40 v=100
8289981 Off ch=3 n=5 v=0
8290032 Off ch=3 n=34 v=0
8290032 Off ch=3 n=34 v=0
8290075 Off ch=3 n=40 v=0
8290225 On ch=3 n=16 v=100
8290361 Off ch=3 n=16 v=0
8290424 On ch=3 n=30 v=100
8290526 Off ch=3 n=30 v=0
8290710 On ch=3 n=18 v=100
8291094 Off ch=3 n=18 v=0
8291098 On ch=3 n=9 v=100
8291589 Off ch=3 n=9 v=0
8291594 On ch=3 n=9 v=100
8292062 On ch=3 n=10 v=100
8292496 Off ch=3 n=9 v=0
8292667 On ch=3 n=6 v=100
8292675 Off ch=3 n=10 v=0
8293024 Off ch=3 n=6 v=0
8293027 On ch=3 n=20 v=100
8293211 Off ch=3 n=20 v=0
8294358 On ch=3 n=6 v=100
8294997 Off ch=3 n=6 v=0
8295002 On ch=3 n=6 v=100
8295050 On ch=3 n=20 v=100
8295067 On ch=3 n=17 v=100
8295068 Off ch=3 n=6 v=0
8295186 Off ch=3 n=20 v=0
8295272 Off ch=3 n=17 v=0
8295273 On ch=3 n=22 v=100
8295313 Off ch=3 n=22 v=0
8295318 On ch=3 n=8 v=100
8295628 Off ch=3 n=8 v=0
8295662 On ch=3 n=12 v=100
8295994 Off ch=3 n=12 v=0
8297848 On ch=3 n=10 v=100
8298556 Off ch=3 n=10 v=0
8298567 On ch=3 n=14 v=100
8298806 On ch=3 n=5 v=100
8298806 Off ch=3 n=14 v=0
8299267 Off ch=3 n=5 v=0
8299268 On ch=3 n=7 v=100
8299322 Off ch=3 n=7 v=0
8299348 On ch=3 n=7 v=100
8300509 Off ch=3 n=7 v=0
8300510 On ch=3 n=8 v=100
8300904 On ch=3 n=13 v=100
8300905 Off ch=3 n=8 v=0
8301027 Off ch=3 n=13 v=0
8302337 On ch=3 n=39 v=100
8302448 Off ch=3 n=39 v=0
8302614 On ch=3 n=7 v=100
8302636 On ch=3 n=14 v=100
8302647 Off ch=3 n=7 v=0
8302718 Off ch=3 n=14 v=0
8302929 On ch=3 n=23 v=100
8303391 Off ch=3 n=23 v=0
8303396 On ch=3 n=13 v=100
8304061 On ch=3 n=35 v=100
8304172 Off ch=3 n=13 v=0
8304185 On ch=3 n=16 v=100
8304247 Off ch=3 n=35 v=0
8304423 On ch=3 n=14 v=100
8304448 Off ch=3 n=16 v=0
8304451 On ch=3 n=2 v=100
8304542 Off ch=3 n=14 v=0
8305108 On ch=3 n=33 v=100
8305129 Off ch=3 n=2 v=0
8305162 Off ch=3 n=33 v=0
8305231 On ch=3 n=33 v=100
8305274 Off ch=3 n=33 v=0
8305483 On ch=3 n=22 v=100
8305662 On ch=3 n=39 v=100
8305663 Off ch=3 n=22 v=0
8305800 Off ch=3 n=39 v=0
8306897 On ch=3 n=10 v=100
8307256 On ch=3 n=29 v=100
8307311 Off ch=3 n=10 v=0
8307344 On ch=3 n=15 v=100
8307344 Off ch=3 n=29 v=0
8307539 Off ch=3 n=15 v=0
8307549 On ch=3 n=26 v=100
8307943 Off ch=3 n=26 v=0
8307994 On ch=3 n=14 v=100
8308162 Off ch=3 n=14 v=0
8308293 On ch=3 n=14 v=100
8308882 On ch=3 n=14 v=100
8308884 Off ch=3 n=14 v=0
8309141 Off ch=3 n=14 v=0
8311514 On ch=3 n=16 v=100
8311669 Off ch=3 n=16 v=0
8315392 On ch=3 n=12 v=100
8315454 Off ch=3 n=12 v=0
8315477 On ch=3 n=22 v=100
8315618 On ch=3 n=31 v=100
8315663 Off ch=3 n=22 v=0
8315664 On ch=3 n=12 v=100
8315708 Off ch=3 n=31 v=0
8315724 Off ch=3 n=12 v=0
8315725 On ch=3 n=17 v=100
8315727 On ch=3 n=20 v=100
8315769 Off ch=3 n=17 v=0
8315777 Off ch=3 n=20 v=0
8317179 On ch=3 n=21 v=100
8317362 Off ch=3 n=21 v=0
8317921 On ch=3 n=25 v=100
8318079 Off ch=3 n=25 v=0
8318470 On ch=3 n=16 v=100
8318566 On ch=3 n=29 v=100
8318871 Off ch=3 n=16 v=0
8319073 On ch=3 n=19 v=100
8319141 Off ch=3 n=29 v=0
8319322 Off ch=3 n=19 v=0
8319380 On ch=3 n=27 v=100
8319450 On ch=3 n=21 v=100
8319539 On ch=3 n=31 v=100
8319634 Off ch=3 n=27 v=0
8319634 Off ch=3 n=21 v=0
8319648 Off ch=3 n=31 v=0
8319656 On ch=3 n=18 v=100
8319849 Off ch=3 n=18 v=0
8321124 On ch=3 n=15 v=100
8321938 On ch=3 n=30 v=100
8321976 On ch=3 n=31 v=100
8321982 On ch=3 n=29 v=100
8321994 Off ch=3 n=15 v=0
8322073 Off ch=3 n=30 v=0
8322108 On ch=3 n=14 v=100
8322130 Off ch=3 n=29 v=0
8322157 Off ch=3 n=31 v=0
8322232 On ch=3 n=21 v=100
8322275 Off ch=3 n=14 v=0
8322277 On ch=3 n=12 v=100
8322522 Off ch=3 n=21 v=0
8322535 Off ch=3 n=12 v=0
8322537 On ch=3 n=19 v=100
8322738 Off ch=3 n=19 v=0
8323575 On ch=3 n=0 v=100
8323599 Off ch=3 n=0 v=0
8323606 On ch=3 n=9 v=100
8324076 Off ch=3 n=9 v=0
8324077 On ch=3 n=4 v=100
8324182 Off ch=3 n=4 v=0
8324930 On ch=3 n=14 v=100
8324944 On ch=3 n=20 v=100
8325358 Off ch=3 n=14 v=0
8325442 Off ch=3 n=20 v=0
8326106 On ch=3 n=10 v=100
8326237 On ch=3 n=18 v=100
8326237 Off ch=3 n=10 v=0
8326239 On ch=3 n=11 v=100
8326315 Off ch=3 n=11 v=0
8326357 Off ch=3 n=18 v=0
8326986 On ch=3 n=13 v=100
8327153 On ch=3 n=22 v=100
8327384 On ch=3 n=51 v=100
8327493 Off ch=3 n=13 v=0
8327537 Off ch=3 n=22 v=0
8327789 Off ch=3 n=51 v=0
8328129 On ch=3 n=14 v=100
8328560 Off ch=3 n=14 v=0
8329374 On ch=3 n=9 v=100
8329487 On ch=3 n=27 v=100
8329878 On ch=3 n=7 v=100
8329879 Off ch=3 n=9 v=0
8329942 Off ch=3 n=27 v=0
8330462 On ch=3 n=16 v=100
8330462 Off ch=3 n=7 v=0
8330587 Off ch=3 n=16 v=0
8331271 On ch=3 n=20 v=100
8331451 Off ch=3 n=20 v=0
8332102 On ch=3 n=16 v=100
8332186 On ch=3 n=26 v=100
8332213 Off ch=3 n=16 v=0
8332422 Off ch=3 n=26 v=0
8332566 On ch=3 n=14 v=100
8332664 Off ch=3 n=14 v=0
8332667 On ch=3 n=9 v=100
8332707 On ch=3 n=11 v=100
8332720 Off ch=3 n=9 v=0
8333010 Off ch=3 n=11 v=0
8333581 On ch=3 n=17 v=100
8333798 Off ch=3 n=17 v=0
8334013 On ch=3 n=14 v=100
8334539 Off ch=3 n=14 v=0
8336005 On ch=3 n=40 v=100
8336005 On ch=3 n=40 v=100
8336021 On ch=3 n=15 v=100
8336164 Off ch=3 n=15 v=0
8336197 On ch=3 n=42 v=100
8336197 On ch=3 n=42 v=100
8336215 On ch=3 n=25 v=100
8336270 Off ch=3 n=40 v=0
8336270 Off ch=3 n=40 v=0
8336298 On ch=3 n=52 v=100
8336298 On ch=3 n=52 v=100
8336467 Off ch=3 n=25 v=0
8336505 Off ch=3 n=42 v=0
8336505 Off ch=3 n=42 v=0
8336531 Off ch=3 n=52 v=0
8336531 Off ch=3 n=52 v=0
8336844 On ch=3 n=26 v=100
8336910 On ch=3 n=28 v=100
8336930 Off ch=3 n=26 v=0
8336966 On ch=3 n=19 v=100
8337075 On ch=3 n=19 v=100
8337080 On ch=3 n=28 v=100
8337213 Off ch=3 n=28 v=0
8337397 Off ch=3 n=19 v=0
8337495 Off ch=3 n=19 v=0
8337550 On ch=3 n=15 v=100
8337662 Off ch=3 n=28 v=0
8337757 Off ch=3 n=15 v=0
8337829 On ch=3 n=35 v=100
8337840 On ch=3 n=30 v=100
8337914 Off ch=3 n=35 v=0
8337931 On ch=3 n=22 v=100
8337933 On ch=3 n=13 v=100
8337965 Off ch=3 n=30 v=0
8338144 Off ch=3 n=13 v=0
8338157 On ch=3 n=36 v=100
8338184 On ch=3 n=11 v=100
8338276 Off ch=3 n=22 v=0
8338309 On ch=3 n=7 v=100
8338313 Off ch=3 n=36 v=0
8338328 Off ch=3 n=11 v=0
8338392 Off ch=3 n=7 v=0
8338402 On ch=3 n=12 v=100
8338528 On ch=3 n=7 v=100
8338533 Off ch=3 n=12 v=0
8339089 Off ch=3 n=7 v=0
8339097 On ch=3 n=17 v=100
8339244 On ch=3 n=0 v=100
8339252 Off ch=3 n=17 v=0
8339280 Off ch=3 n=0 v=0
8339288 On ch=3 n=10 v=100
8339303 On ch=3 n=9 v=100
8339390 Off ch=3 n=10 v=0
8339500 Off ch=3 n=9 v=0
8339584 On ch=3 n=24 v=100
8339601 On ch=3 n=16 v=100
8339708 Off ch=3 n=24 v=0
8339708 Off ch=3 n=16 v=0
8340511 On ch=3 n=19 v=100
8340612 Off ch=3 n=19 v=0
8340621 On ch=3 n=21 v=100
8340683 Off ch=3 n=21 v=0
8340729 On ch=3 n=10 v=100
8341123 Off ch=3 n=10 v=0
8341124 On ch=3 n=9 v=100
8341338 Off ch=3 n=9 v=0
8341368 On ch=3 n=9 v=100
8341690 On ch=3 n=23 v=100
8341707 Off ch=3 n=9 v=0
8341785 On ch=3 n=20 v=100
8341790 On ch=3 n=26 v=100
8342085 Off ch=3 n=23 v=0
8342143 Off ch=3 n=20 v=0
8342146 On ch=3 n=7 v=100
8342211 Off ch=3 n=26 v=0
8342403 Off ch=3 n=7 v=0
8342404 On ch=3 n=18 v=100
8342486 Off ch=3 n=18 v=0
8342498 On ch=3 n=8 v=100
8342597 Off ch=3 n=8 v=0
8342631 On ch=3 n=8 v=100
8342664 On ch=3 n=36 v=100
8342693 Off ch=3 n=8 v=0
8342786 Off ch=3 n=36 v=0
8342928 On ch=3 n=42 v=100
8343088 Off ch=3 n=42 v=0
8343183 On ch=3 n=22 v=100
8343224 On ch=3 n=33 v=100
8343372 Off ch=3 n=22 v=0
8343396 Off ch=3 n=33 v=0
8344012 On ch=3 n=11 v=100
8344017 On ch=3 n=19 v=100
8344017 On ch=3 n=19 v=100
8344065 On ch=3 n=14 v=100
8344430 On ch=3 n=4 v=100
8344434 Off ch=3 n=11 v=0
8344561 Off ch=3 n=14 v=0
8344605 Off ch=3 n=19 v=0
8344605 Off ch=3 n=19 v=0
8344829 Off ch=3 n=4 v=0
8345228 On ch=3 n=7 v=100
8345440 Off ch=3 n=7 v=0
8345544 On ch=3 n=8 v=100
8346440 On ch=3 n=19 v=100
8346575 Off ch=3 n=8 v=0
8346641 Off ch=3 n=19 v=0
8347931 On ch=3 n=34 v=100
8348039 On ch=3 n=8 v=100
8348119 Off ch=3 n=34 v=0
8348972 Off ch=3 n=8 v=0
8349963 On ch=3 n=27 v=100
8349963 On ch=3 n=27 v=100
8349997 On ch=3 n=16 v=100
8350025 On ch=3 n=27 v=100
8350365 Off ch=3 n=16 v=0
8350434 Off ch=3 n=27 v=0
8350434 Off ch=3 n=27 v=0
8350440 On ch=3 n=35 v=100
8350444 On ch=3 n=29 v=100
8350580 Off ch=3 n=27 v=0
8350676 On ch=3 n=27 v=100
8350695 Off ch=3 n=29 v=0
8350729 On ch=3 n=17 v=100
8350733 Off ch=3 n=35 v=0
8350734 On ch=3 n=11 v=100
8350788 On ch=3 n=22 v=100
8351159 Off ch=3 n=11 v=0
8351169 Off ch=3 n=27 v=0
8351221 Off ch=3 n=17 v=0
8351256 On ch=3 n=28 v=100
8351385 Off ch=3 n=22 v=0
8351407 Off ch=3 n=28 v=0
8351408 On ch=3 n=9 v=100
8352596 Off ch=3 n=9 v=0
8352597 On ch=3 n=12 v=100
8352724 Off ch=3 n=12 v=0
8353476 On ch=3 n=36 v=100
8353877 Off ch=3 n=36 v=0
8353936 On ch=3 n=20 v=100
8354047 Off ch=3 n=20 v=0
8354214 On ch=3 n=31 v=100
8354330 Off ch=3 n=31 v=0
8354414 On ch=3 n=33 v=100
8354504 Off ch=3 n=33 v=0
8354569 On ch=3 n=33 v=100
8354982 Off ch=3 n=33 v=0
8355044 On ch=3 n=37 v=100
8355354 On ch=3 n=29 v=100
8355411 Off ch=3 n=37 v=0
8355432 Off ch=3 n=29 v=0
8355529 On ch=3 n=49 v=100
8355600 On ch=3 n=43 v=100
8355600 On ch=3 n=43 v=100
8355704 On ch=3 n=33 v=100
8355738 On ch=3 n=27 v=100
8355744 On ch=3 n=40 v=100
8355744 On ch=3 n=40 v=100
8355768 On ch=3 n=24 v=100
8355898 On ch=3 n=32 v=100
8355950 Off ch=3 n=49 v=0
8355952 Off ch=3 n=33 v=0
8355969 Off ch=3 n=43 v=0
8355969 Off ch=3 n=43 v=0
8355981 Off ch=3 n=27 v=0
8355983 Off ch=3 n=24 v=0
8356031 Off ch=3 n=40 v=0
8356031 Off ch=3 n=40 v=0
8356051 Off ch=3 n=32 v=0
8356519 On ch=3 n=18 v=100
8356586 Off ch=3 n=18 v=0
8356637 On ch=3 n=18 v=100
8356827 Off ch=3 n=18 v=0
8356858 On ch=3 n=18 v=100
8356969 Off ch=3 n=18 v=0
8356976 On ch=3 n=11 v=100
8357566 Off ch=3 n=11 v=0
8359246 On ch=3 n=18 v=100
8360221 Off ch=3 n=18 v=0
8360398 On ch=3 n=11 v=100
8360740 Off ch=3 n=11 v=0
8360774 On ch=3 n=10 v=100
8361522 On ch=3 n=13 v=100
8361544 Off ch=3 n=10 v=0
8361782 Off ch=3 n=13 v=0
8362320 On ch=3 n=34 v=100
8362346 On ch=3 n=45 v=100
8362350 On ch=3 n=43 v=100
8362350 On ch=3 n=43 v=100
8362354 On ch=3 n=36 v=100
8362366 On ch=3 n=10 v=100
8362552 Off ch=3 n=10 v=0
8362558 Off ch=3 n=34 v=0
8362568 Off ch=3 n=36 v=0
8362587 Off ch=3 n=45 v=0
8362678 Off ch=3 n=43 v=0
8362678 Off ch=3 n=43 v=0
8363350 On ch=3 n=7 v=100
8364165 Off ch=3 n=7 v=0
8364236 On ch=3 n=7 v=100
8364377 Off ch=3 n=7 v=0
8364757 On ch=3 n=29 v=100
8364847 On ch=3 n=28 v=100
8364969 On ch=3 n=36 v=100
8364969 On ch=3 n=36 v=100
8364975 Off ch=3 n=29 v=0
8365004 On ch=3 n=20 v=100
8365197 Off ch=3 n=28 v=0
8365213 On ch=3 n=24 v=100
8365219 Off ch=3 n=20 v=0
8365232 Off ch=3 n=36 v=0
8365232 Off ch=3 n=36 v=0
8365418 Off ch=3 n=24 v=0
8366488 On ch=3 n=7 v=100
8366544 On ch=3 n=9 v=100
8366544 Off ch=3 n=7 v=0
8366797 Off ch=3 n=9 v=0
8366834 On ch=3 n=9 v=100
8367925 Off ch=3 n=9 v=0
8368052 On ch=3 n=31 v=100
8368052 On ch=3 n=31 v=100
8368090 On ch=3 n=27 v=100
8368235 On ch=3 n=14 v=100
8368235 On ch=3 n=14 v=100
8368254 On ch=3 n=12 v=100
8368376 On ch=3 n=51 v=100
8368593 Off ch=3 n=27 v=0
8368619 Off ch=3 n=12 v=0
8368630 Off ch=3 n=31 v=0
8368630 Off ch=3 n=31 v=0
8368664 Off ch=3 n=14 v=0
8368664 Off ch=3 n=14 v=0
8369165 On ch=3 n=26 v=100
8369266 On ch=3 n=19 v=100
8369285 Off ch=3 n=51 v=0
8369309 On ch=3 n=23 v=100
8369569 On ch=3 n=43 v=100
8369701 Off ch=3 n=26 v=0
8369702 Off ch=3 n=19 v=0
8369828 Off ch=3 n=23 v=0
8370025 On ch=3 n=29 v=100
8370060 On ch=3 n=26 v=100
8370186 Off ch=3 n=43 v=0
8370225 Off ch=3 n=29 v=0
8370241 Off ch=3 n=26 v=0
8371830 On ch=3 n=36 v=100
8371846 On ch=3 n=45 v=100
8371857 On ch=3 n=6 v=100
8371866 On ch=3 n=34 v=100
8371931 Off ch=3 n=36 v=0
8371948 Off ch=3 n=6 v=0
8371949 On ch=3 n=8 v=100
8371955 Off ch=3 n=45 v=0
8371969 Off ch=3 n=34 v=0
8371985 Off ch=3 n=8 v=0
8371990 On ch=3 n=16 v=100
8372583 On ch=3 n=9 v=100
8372583 Off ch=3 n=16 v=0
8372586 On ch=3 n=35 v=100
8372687 Off ch=3 n=9 v=0
8372712 Off ch=3 n=35 v=0
8374715 On ch=3 n=9 v=100
8375230 Off ch=3 n=9 v=0
8375239 On ch=3 n=12 v=100
8375428 Off ch=3 n=12 v=0
8375500 On ch=3 n=12 v=100
8375536 Off ch=3 n=12 v=0
8375559 On ch=3 n=35 v=100
8375655 On ch=3 n=24 v=100
8376234 Off ch=3 n=24 v=0
8376236 Off ch=3 n=35 v=0
8376411 On ch=3 n=11 v=100
8377173 Off ch=3 n=11 v=0
8377223 On ch=3 n=8 v=100
8377534 Off ch=3 n=8 v=0
8379007 On ch=3 n=39 v=100
8379206 On ch=3 n=23 v=100
8379269 Off ch=3 n=39 v=0
8379269 Off ch=3 n=23 v=0
8379991 On ch=3 n=8 v=100
8380776 Off ch=3 n=8 v=0
8381430 On ch=3 n=21 v=100
8381788 On ch=3 n=25 v=100
8381894 Off ch=3 n=21 v=0
8381907 Off ch=3 n=25 v=0
8383758 On ch=3 n=23 v=100
8383758 On ch=3 n=23 v=100
8383775 On ch=3 n=13 v=100
8384043 Off ch=3 n=13 v=0
8384073 Off ch=3 n=23 v=0
8384073 Off ch=3 n=23 v=0
8391020 On ch=3 n=38 v=100
8391046 On ch=3 n=61 v=100
8391054 On ch=3 n=13 v=100
8391169 Off ch=3 n=38 v=0
8391247 Off ch=3 n=13 v=0
8391269 Off ch=3 n=61 v=0
8391363 On ch=3 n=4 v=100
8393014 Off ch=3 n=4 v=0
8394725 On ch=3 n=35 v=100
8394764 On ch=3 n=17 v=100
8394817 On ch=3 n=18 v=100
8394845 On ch=3 n=21 v=100
8394999 Off ch=3 n=35 v=0
8395154 Off ch=3 n=17 v=0
8395216 Off ch=3 n=18 v=0
8395302 Off ch=3 n=21 v=0
8395844 On ch=3 n=9 v=100
8395853 Off ch=3 n=9 v=0
8395883 On ch=3 n=9 v=100
8396370 Off ch=3 n=9 v=0
8405672 On ch=3 n=16 v=100
8405710 On ch=3 n=13 v=100
8405727 On ch=3 n=17 v=100
8405866 Off ch=3 n=16 v=0
8405866 Off ch=3 n=13 v=0
8405900 On ch=3 n=19 v=100
8406077 Off ch=3 n=17 v=0
8406364 Off ch=3 n=19 v=0
8406971 On ch=3 n=37 v=100
8407010 On ch=3 n=27 v=100
8407067 Off ch=3 n=37 v=0
8407239 Off ch=3 n=27 v=0
8407351 On ch=3 n=10 v=100
8407701 Off ch=3 n=10 v=0
8407724 On ch=3 n=8 v=100
8407857 Off ch=3 n=8 v=0
8408647 On ch=3 n=38 v=100
8408815 Off ch=3 n=38 v=0
8409970 On ch=3 n=10 v=100
8410308 Off ch=3 n=10 v=0
8410349 On ch=3 n=12 v=100
8410475 On ch=3 n=8 v=100
8410480 Off ch=3 n=12 v=0
8410593 Off ch=3 n=8 v=0
8410594 On ch=3 n=10 v=100
8411401 Off ch=3 n=10 v=0
8411403 On ch=3 n=7 v=100
8411522 Off ch=3 n=7 v=0
8412136 On ch=3 n=12 v=100
8412247 On ch=3 n=15 v=100
8412254 Off ch=3 n=12 v=0
8412420 Off ch=3 n=15 v=0
8412673 On ch=3 n=11 v=100
8412721 Off ch=3 n=11 v=0
8412722 On ch=3 n=9 v=100
8413267 On ch=3 n=19 v=100
8413313 Off ch=3 n=9 v=0
8413687 On ch=3 n=11 v=100
8413698 Off ch=3 n=19 v=0
8413764 On ch=3 n=14 v=100
8413927 On ch=3 n=16 v=100
8414111 On ch=3 n=17 v=100
8414117 Off ch=3 n=14 v=0
8414118 Off ch=3 n=11 v=0
8414142 Off ch=3 n=16 v=0
8414168 Off ch=3 n=17 v=0
8414196 On ch=3 n=23 v=100
8414197 On ch=3 n=30 v=100
8414367 Off ch=3 n=23 v=0
8414423 Off ch=3 n=30 v=0
8414446 On ch=3 n=13 v=100
8414692 Off ch=3 n=13 v=0
8415518 On ch=3 n=12 v=100
8415560 Off ch=3 n=12 v=0
8416764 On ch=3 n=9 v=100
8417379 On ch=3 n=9 v=100
8417382 Off ch=3 n=9 v=0
8417762 On ch=3 n=34 v=100
8417827 Off ch=3 n=9 v=0
8417946 Off ch=3 n=34 v=0
8418348 On ch=3 n=38 v=100
8418429 Off ch=3 n=38 v=0
8418842 On ch=3 n=17 v=100
8419173 On ch=3 n=10 v=100
8419195 Off ch=3 n=17 v=0
8419204 On ch=3 n=3 v=100
8419213 Off ch=3 n=10 v=0
8419234 Off ch=3 n=3 v=0
8419236 On ch=3 n=6 v=100
8419286 Off ch=3 n=6 v=0
8419299 On ch=3 n=10 v=100
8419682 Off ch=3 n=10 v=0
8419715 On ch=3 n=9 v=100
8420479 Off ch=3 n=9 v=0
8420499 On ch=3 n=14 v=100
8420608 Off ch=3 n=14 v=0
8421543 On ch=3 n=35 v=100
8421622 Off ch=3 n=35 v=0
8421860 On ch=3 n=14 v=100
8422238 Off ch=3 n=14 v=0
8422636 On ch=3 n=48 v=100
8422781 Off ch=3 n=48 v=0
8422899 On ch=3 n=41 v=100
8423113 Off ch=3 n=41 v=0
8423139 On ch=3 n=18 v=100
8423445 Off ch=3 n=18 v=0
8426808 On ch=3 n=29 v=100
8426951 Off ch=3 n=29 v=0
8427062 On ch=3 n=34 v=100
8427378 Off ch=3 n=34 v=0
8427379 On ch=3 n=26 v=100
8427532 Off ch=3 n=26 v=0
8427557 On ch=3 n=9 v=100
8428822 Off ch=3 n=9 v=0
8428838 On ch=3 n=11 v=100
8429190 Off ch=3 n=11 v=0
8429191 On ch=3 n=14 v=100
8429338 On ch=3 n=8 v=100
8429340 Off ch=3 n=14 v=0
8429998 Off ch=3 n=8 v=0
8430014 On ch=3 n=36 v=100
8430176 Off ch=3 n=36 v=0
8431003 On ch=3 n=44 v=100
8431030 On ch=3 n=41 v=100
8431031 On ch=3 n=26 v=100
8431031 On ch=3 n=37 v=100
8431203 Off ch=3 n=44 v=0
8431276 Off ch=3 n=26 v=0
8431363 Off ch=3 n=37 v=0
8431492 Off ch=3 n=41 v=0
8431643 On ch=3 n=13 v=100
8432111 On ch=3 n=24 v=100
8432322 Off ch=3 n=13 v=0
8432451 Off ch=3 n=24 v=0
8432625 On ch=3 n=33 v=100
8432794 Off ch=3 n=33 v=0
8433441 On ch=3 n=45 v=100
8433450 On ch=3 n=43 v=100
8433468 On ch=3 n=49 v=100
8433547 Off ch=3 n=43 v=0
8433547 Off ch=3 n=49 v=0
8433553 On ch=3 n=10 v=100
8433554 Off ch=3 n=45 v=0
8433950 Off ch=3 n=10 v=0
8433951 On ch=3 n=9 v=100
8434770 Off ch=3 n=9 v=0
8434780 On ch=3 n=49 v=100
8434874 On ch=3 n=49 v=100
8434958 Off ch=3 n=49 v=0
8435124 Off ch=3 n=49 v=0
8435152 On ch=3 n=10 v=100
8435317 Off ch=3 n=10 v=0
8435524 On ch=3 n=12 v=100
8435678 Off ch=3 n=12 v=0
8436853 On ch=3 n=8 v=100
8437831 Off ch=3 n=8 v=0
8438286 On ch=3 n=8 v=100
8438784 Off ch=3 n=8 v=0
8438936 On ch=3 n=23 v=100
8439215 Off ch=3 n=23 v=0
8439328 On ch=3 n=17 v=100
8439577 Off ch=3 n=17 v=0
8439608 On ch=3 n=35 v=100
8439731 Off ch=3 n=35 v=0
8440459 On ch=3 n=10 v=100
8441259 Off ch=3 n=10 v=0
8441267 On ch=3 n=26 v=100
8441511 Off ch=3 n=26 v=0
8441807 On ch=3 n=5 v=100
8442391 Off ch=3 n=5 v=0
8442432 On ch=3 n=5 v=100
8442715 Off ch=3 n=5 v=0
8442800 On ch=3 n=15 v=100
8442871 Off ch=3 n=15 v=0
8443050 On ch=3 n=22 v=100
8443126 Off ch=3 n=22 v=0
8443148 On ch=3 n=45 v=100
8443556 On ch=3 n=58 v=100
8443611 On ch=3 n=19 v=100
8443611 On ch=3 n=52 v=100
8443619 On ch=3 n=10 v=100
8443621 Off ch=3 n=45 v=0
8443794 Off ch=3 n=10 v=0
8443796 Off ch=3 n=58 v=0
8443807 Off ch=3 n=19 v=0
8443842 On ch=3 n=31 v=100
8443847 Off ch=3 n=52 v=0
8443856 On ch=3 n=30 v=100
8443926 Off ch=3 n=31 v=0
8443926 Off ch=3 n=30 v=0
8444384 On ch=3 n=58 v=100
8444614 On ch=3 n=34 v=100
8444695 On ch=3 n=21 v=100
8444695 On ch=3 n=31 v=100
8444779 Off ch=3 n=58 v=0
8444947 Off ch=3 n=21 v=0
8444957 Off ch=3 n=34 v=0
8444960 On ch=3 n=8 v=100
8444960 On ch=3 n=8 v=100
8444982 On ch=3 n=7 v=100
8445015 Off ch=3 n=31 v=0
8445223 Off ch=3 n=7 v=0
8445238 Off ch=3 n=8 v=0
8445238 Off ch=3 n=8 v=0
8445291 On ch=3 n=27 v=100
8445305 On ch=3 n=19 v=100
8445366 Off ch=3 n=27 v=0
8445366 Off ch=3 n=19 v=0
8445442 On ch=3 n=19 v=100
8445442 On ch=3 n=27 v=100
8445461 On ch=3 n=28 v=100
8445563 Off ch=3 n=19 v=0
8445576 On ch=3 n=34 v=100
8445583 On ch=3 n=49 v=100
8445586 Off ch=3 n=27 v=0
8445608 Off ch=3 n=28 v=0
8445629 Off ch=3 n=34 v=0
8445705 On ch=3 n=28 v=100
8445716 On ch=3 n=40 v=100
8445775 Off ch=3 n=28 v=0
8445780 Off ch=3 n=49 v=0
8445817 On ch=3 n=15 v=100
8445849 Off ch=3 n=40 v=0
8446194 Off ch=3 n=15 v=0
8446405 On ch=3 n=29 v=100
8446542 On ch=3 n=40 v=100
8446542 On ch=3 n=40 v=100
8446576 Off ch=3 n=29 v=0
8446585 On ch=3 n=21 v=100
8446682 Off ch=3 n=21 v=0
8446744 Off ch=3 n=40 v=0
8446744 Off ch=3 n=40 v=0
8448570 On ch=3 n=8 v=100
8448841 On ch=3 n=14 v=100
8448842 Off ch=3 n=8 v=0
8449023 Off ch=3 n=14 v=0
8449038 On ch=3 n=25 v=100
8449038 On ch=3 n=22 v=100
8449072 Off ch=3 n=22 v=0
8449089 Off ch=3 n=25 v=0
8451249 On ch=3 n=17 v=100
8451573 Off ch=3 n=17 v=0
8451576 On ch=3 n=6 v=100
8452552 Off ch=3 n=6 v=0
8452553 On ch=3 n=5 v=100
8452583 On ch=3 n=36 v=100
8452628 Off ch=3 n=5 v=0
8452637 On ch=3 n=18 v=100
8452721 Off ch=3 n=36 v=0
8452937 On ch=3 n=35 v=100
8453172 Off ch=3 n=35 v=0
8453173 Off ch=3 n=18 v=0
8453182 On ch=3 n=22 v=100
8453357 On ch=3 n=33 v=100
8453357 On ch=3 n=33 v=100
8453485 On ch=3 n=21 v=100
8453537 Off ch=3 n=22 v=0
8453571 On ch=3 n=14 v=100
8453574 On ch=3 n=17 v=100
8453929 Off ch=3 n=21 v=0
8453933 Off ch=3 n=14 v=0
8453969 Off ch=3 n=33 v=0
8453969 Off ch=3 n=33 v=0
8453987 Off ch=3 n=17 v=0
8454095 On ch=3 n=80 v=100
8454095 On ch=3 n=80 v=100
8454566 On ch=3 n=35 v=100
8454566 On ch=3 n=35 v=100
8454620 On ch=3 n=35 v=100
8454645 On ch=3 n=45 v=100
8454650 On ch=3 n=7 v=100
8454650 On ch=3 n=36 v=100
8454852 Off ch=3 n=7 v=0
8454865 Off ch=3 n=35 v=0
8454865 Off ch=3 n=35 v=0
8454870 Off ch=3 n=35 v=0
8454899 Off ch=3 n=45 v=0
8454945 Off ch=3 n=36 v=0
8455408 Off ch=3 n=80 v=0
8455408 Off ch=3 n=80 v=0
8455720 On ch=3 n=13 v=100
8455822 Off ch=3 n=13 v=0
8456000 On ch=3 n=4 v=100
8456062 Off ch=3 n=4 v=0
8456083 On ch=3 n=6 v=100
8456303 Off ch=3 n=6 v=0
8456964 On ch=3 n=25 v=100
8457114 Off ch=3 n=25 v=0
8457984 On ch=3 n=13 v=100
8458177 Off ch=3 n=13 v=0
8458181 On ch=3 n=23 v=100
8458701 Off ch=3 n=23 v=0
8458703 On ch=3 n=16 v=100
8458849 Off ch=3 n=16 v=0
8458851 On ch=3 n=19 v=100
8458983 Off ch=3 n=19 v=0
8459373 On ch=3 n=18 v=100
8459421 On ch=3 n=8 v=100
8459656 Off ch=3 n=18 v=0
8459684 On ch=3 n=14 v=100
8459794 Off ch=3 n=8 v=0
8459811 Off ch=3 n=14 v=0
8461032 On ch=3 n=2 v=100
8461066 Off ch=3 n=2 v=0
8461150 On ch=3 n=37 v=100
8461510 On ch=3 n=6 v=100
8461668 Off ch=3 n=37 v=0
8461765 Off ch=3 n=6 v=0
8461794 On ch=3 n=12 v=100
8461958 Off ch=3 n=12 v=0
8461964 On ch=3 n=12 v=100
8462540 Off ch=3 n=12 v=0
8462541 On ch=3 n=19 v=100
8462707 Off ch=3 n=19 v=0
8462720 On ch=3 n=41 v=100
8462830 Off ch=3 n=41 v=0
8464019 On ch=3 n=32 v=100
8464092 Off ch=3 n=32 v=0
8464540 On ch=3 n=16 v=100
8464543 On ch=3 n=9 v=100
8465093 Off ch=3 n=9 v=0
8465223 Off ch=3 n=16 v=0
8465224 On ch=3 n=37 v=100
8465441 Off ch=3 n=37 v=0
8466086 On ch=3 n=17 v=100
8466086 On ch=3 n=17 v=100
8466100 On ch=3 n=11 v=100
8466135 On ch=3 n=26 v=100
8466470 Off ch=3 n=11 v=0
8466503 Off ch=3 n=17 v=0
8466503 Off ch=3 n=17 v=0
8466679 Off ch=3 n=26 v=0
8468424 On ch=3 n=9 v=100
8469619 Off ch=3 n=9 v=0
8470595 On ch=3 n=39 v=100
8470619 On ch=3 n=55 v=100
8470664 On ch=3 n=35 v=100
8470664 On ch=3 n=35 v=100
8470681 On ch=3 n=7 v=100
8470857 Off ch=3 n=55 v=0
8470857 Off ch=3 n=7 v=0
8470865 Off ch=3 n=39 v=0
8470895 Off ch=3 n=35 v=0
8470895 Off ch=3 n=35 v=0
8471275 On ch=3 n=29 v=100
8471601 Off ch=3 n=29 v=0
8471623 On ch=3 n=9 v=100
8472076 On ch=3 n=30 v=100
8472076 On ch=3 n=30 v=100
8472174 On ch=3 n=17 v=100
8472244 On ch=3 n=22 v=100
8472244 On ch=3 n=22 v=100
8472280 On ch=3 n=16 v=100
8472286 Off ch=3 n=9 v=0
8472544 Off ch=3 n=30 v=0
8472544 Off ch=3 n=30 v=0
8472674 On ch=3 n=11 v=100
8472680 Off ch=3 n=17 v=0
8472789 Off ch=3 n=16 v=0
8472825 Off ch=3 n=22 v=0
8472825 Off ch=3 n=22 v=0
8473037 Off ch=3 n=11 v=0
8473047 On ch=3 n=30 v=100
8473232 Off ch=3 n=30 v=0
8473236 On ch=3 n=11 v=100
8473353 Off ch=3 n=11 v=0
8475972 On ch=3 n=43 v=100
8476052 Off ch=3 n=43 v=0
8478641 On ch=3 n=13 v=100
8478759 Off ch=3 n=13 v=0
8483592 On ch=3 n=28 v=100
8483743 Off ch=3 n=28 v=0
8483827 On ch=3 n=8 v=100
8484063 On ch=3 n=10 v=100
8484065 Off ch=3 n=8 v=0
8484386 Off ch=3 n=10 v=0
8486231 On ch=3 n=13 v=100
8486479 Off ch=3 n=13 v=0
8486664 On ch=3 n=29 v=100
8486677 On ch=3 n=29 v=100
8486736 Off ch=3 n=29 v=0
8486736 Off ch=3 n=29 v=0
8488521 On ch=3 n=25 v=100
8488891 Off ch=3 n=25 v=0
8488939 On ch=3 n=33 v=100
8488961 On ch=3 n=52 v=100
8489130 Off ch=3 n=33 v=0
8489152 Off ch=3 n=52 v=0
8489699 On ch=3 n=22 v=100
8489931 On ch=3 n=37 v=100
8490030 On ch=3 n=11 v=100
8490062 Off ch=3 n=22 v=0
8490076 On ch=3 n=7 v=100
8490213 Off ch=3 n=37 v=0
8490213 Off ch=3 n=11 v=0
8490213 Off ch=3 n=7 v=0
8490252 On ch=3 n=37 v=100
8490252 On ch=3 n=7 v=100
8490298 Off ch=3 n=37 v=0
8490386 Off ch=3 n=7 v=0
8490393 On ch=3 n=7 v=100
8490639 Off ch=3 n=7 v=0
8490680 On ch=3 n=21 v=100
8491006 Off ch=3 n=21 v=0
8493051 On ch=3 n=41 v=100
8493115 On ch=3 n=50 v=100
8493150 On ch=3 n=30 v=100
8493193 Off ch=3 n=41 v=0
8493327 Off ch=3 n=30 v=0
8493329 Off ch=3 n=50 v=0
8495067 On ch=3 n=36 v=100
8495197 On ch=3 n=29 v=100
8495200 On ch=3 n=42 v=100
8495355 Off ch=3 n=36 v=0
8495357 Off ch=3 n=29 v=0
8495515 Off ch=3 n=42 v=0
8495580 On ch=3 n=4 v=100
8498058 On ch=3 n=3 v=100
8498061 Off ch=3 n=4 v=0
8499159 On ch=3 n=37 v=100
8499186 On ch=3 n=18 v=100
8499229 Off ch=3 n=3 v=0
8499231 On ch=3 n=3 v=100
8499285 Off ch=3 n=37 v=0
8499459 Off ch=3 n=18 v=0
8499636 Off ch=3 n=3 v=0
8499638 On ch=3 n=3 v=100
8500220 Off ch=3 n=3 v=0
8500222 On ch=3 n=10 v=100
8500496 On ch=3 n=20 v=100
8500533 Off ch=3 n=10 v=0
8500554 On ch=3 n=25 v=100
8500554 On ch=3 n=25 v=100
8500574 On ch=3 n=8 v=100
8500811 Off ch=3 n=20 v=0
8500812 Off ch=3 n=8 v=0
8500831 On ch=3 n=10 v=100
8500867 Off ch=3 n=25 v=0
8500867 Off ch=3 n=25 v=0
8500921 On ch=3 n=10 v=100
8500921 Off ch=3 n=10 v=0
8501233 Off ch=3 n=10 v=0
8501274 On ch=3 n=21 v=100
8501600 Off ch=3 n=21 v=0
8502180 On ch=3 n=44 v=100
8502180 On ch=3 n=44 v=100
8502300 On ch=3 n=27 v=100
8502468 Off ch=3 n=27 v=0
8502487 Off ch=3 n=44 v=0
8502487 Off ch=3 n=44 v=0
8504613 On ch=3 n=17 v=100
8504615 On ch=3 n=10 v=100
8504843 Off ch=3 n=10 v=0
8504869 Off ch=3 n=17 v=0
8505215 On ch=3 n=22 v=100
8505512 Off ch=3 n=22 v=0
8505542 On ch=3 n=17 v=100
8505570 On ch=3 n=11 v=100
8505713 Off ch=3 n=17 v=0
8505725 On ch=3 n=18 v=100
8505778 On ch=3 n=16 v=100
8505800 On ch=3 n=11 v=100
8506045 Off ch=3 n=11 v=0
8506160 Off ch=3 n=11 v=0
8506164 Off ch=3 n=18 v=0
8506192 Off ch=3 n=16 v=0
8507888 On ch=3 n=31 v=100
8507919 On ch=3 n=17 v=100
8507947 On ch=3 n=54 v=100
8507949 On ch=3 n=6 v=100
8508138 Off ch=3 n=6 v=0
8508155 Off ch=3 n=31 v=0
8508156 Off ch=3 n=17 v=0
8508183 Off ch=3 n=54 v=0
8508523 On ch=3 n=4 v=100
8508814 Off ch=3 n=4 v=0
8508829 On ch=3 n=3 v=100
8509025 Off ch=3 n=3 v=0
8511775 On ch=3 n=29 v=100
8511831 Off ch=3 n=29 v=0
8515407 On ch=3 n=8 v=100
8515821 Off ch=3 n=8 v=0
8528716 On ch=3 n=23 v=100
8529248 Off ch=3 n=23 v=0
8531285 On ch=3 n=23 v=100
8531428 Off ch=3 n=23 v=0
8531439 On ch=3 n=20 v=100
8531439 On ch=3 n=16 v=100
8531556 On ch=3 n=13 v=100
8531725 Off ch=3 n=20 v=0
8531778 Off ch=3 n=13 v=0
8531782 On ch=3 n=26 v=100
8531807 Off ch=3 n=16 v=0
8531925 Off ch=3 n=26 v=0
8531939 On ch=3 n=30 v=100
8532085 Off ch=3 n=30 v=0
8532137 On ch=3 n=12 v=100
8532509 Off ch=3 n=12 v=0
8532658 On ch=3 n=13 v=100
8533274 Off ch=3 n=13 v=0
8533276 On ch=3 n=5 v=100
8533552 Off ch=3 n=5 v=0
8533561 On ch=3 n=11 v=100
8534027 On ch=3 n=7 v=100
8534028 Off ch=3 n=11 v=0
8534435 On ch=3 n=11 v=100
8534445 On ch=3 n=11 v=100
8534448 Off ch=3 n=7 v=0
8534565 On ch=3 n=33 v=100
8534648 Off ch=3 n=11 v=0
8534665 Off ch=3 n=11 v=0
8534715 Off ch=3 n=33 v=0
8535748 On ch=3 n=41 v=100
8535925 Off ch=3 n=41 v=0
8535937 On ch=3 n=27 v=100
8536117 On ch=3 n=10 v=100
8536146 Off ch=3 n=27 v=0
8536240 Off ch=3 n=10 v=0
8536242 On ch=3 n=8 v=100
8536611 Off ch=3 n=8 v=0
8536651 On ch=3 n=10 v=100
8536687 Off ch=3 n=10 v=0
8536739 On ch=3 n=10 v=100
8537014 Off ch=3 n=10 v=0
8537061 On ch=3 n=23 v=100
8537556 On ch=3 n=43 v=100
8537557 Off ch=3 n=23 v=0
8537739 Off ch=3 n=43 v=0
8537778 On ch=3 n=15 v=100
8537842 On ch=3 n=29 v=100
8537909 On ch=3 n=24 v=100
8537974 Off ch=3 n=15 v=0
8538000 On ch=3 n=20 v=100
8538263 On ch=3 n=28 v=100
8538384 Off ch=3 n=29 v=0
8538399 Off ch=3 n=20 v=0
8538400 Off ch=3 n=24 v=0
8538441 On ch=3 n=24 v=100
8538456 Off ch=3 n=28 v=0
8538496 Off ch=3 n=24 v=0
8539647 On ch=3 n=22 v=100
8539708 Off ch=3 n=22 v=0
8539714 On ch=3 n=13 v=100
8539955 Off ch=3 n=13 v=0
8539987 On ch=3 n=13 v=100
8540055 Off ch=3 n=13 v=0
8540071 On ch=3 n=28 v=100
8540232 On ch=3 n=20 v=100
8540496 Off ch=3 n=28 v=0
8540496 Off ch=3 n=20 v=0
8540563 On ch=3 n=28 v=100
8540563 On ch=3 n=20 v=100
8540597 Off ch=3 n=20 v=0
8540599 Off ch=3 n=28 v=0
8541510 On ch=3 n=49 v=100
8541641 On ch=3 n=36 v=100
8541768 Off ch=3 n=49 v=0
8541867 On ch=3 n=23 v=100
8541936 On ch=3 n=15 v=100
8542060 Off ch=3 n=36 v=0
8542277 On ch=3 n=15 v=100
8542291 Off ch=3 n=23 v=0
8542341 Off ch=3 n=15 v=0
8542392 Off ch=3 n=15 v=0
8542434 On ch=3 n=15 v=100
8542658 Off ch=3 n=15 v=0
8542695 On ch=3 n=34 v=100
8542781 Off ch=3 n=34 v=0
8543692 On ch=3 n=44 v=100
8543692 On ch=3 n=44 v=100
8543719 On ch=3 n=33 v=100
8543719 On ch=3 n=33 v=100
8543737 On ch=3 n=49 v=100
8543737 On ch=3 n=49 v=100
8543762 On ch=3 n=24 v=100
8543821 On ch=3 n=40 v=100
8543821 On ch=3 n=40 v=100
8543894 Off ch=3 n=44 v=0
8543894 Off ch=3 n=44 v=0
8543937 On ch=3 n=37 v=100
8543937 On ch=3 n=37 v=100
8543983 On ch=3 n=32 v=100
8544042 Off ch=3 n=33 v=0
8544042 Off ch=3 n=33 v=0
8544062 On ch=3 n=27 v=100
8544062 On ch=3 n=27 v=100
8544075 Off ch=3 n=24 v=0
8544076 On ch=3 n=20 v=100
8544090 Off ch=3 n=49 v=0
8544090 Off ch=3 n=49 v=0
8544116 Off ch=3 n=40 v=0
8544116 Off ch=3 n=40 v=0
8544135 On ch=3 n=34 v=100
8544135 On ch=3 n=34 v=100
8544155 Off ch=3 n=37 v=0
8544155 Off ch=3 n=37 v=0
8544341 Off ch=3 n=32 v=0
8544390 Off ch=3 n=20 v=0
8544518 Off ch=3 n=27 v=0
8544518 Off ch=3 n=27 v=0
8544693 Off ch=3 n=34 v=0
8544693 Off ch=3 n=34 v=0
8545395 On ch=3 n=54 v=100
8545500 On ch=3 n=39 v=100
8545519 On ch=3 n=43 v=100
8545519 On ch=3 n=43 v=100
8545530 On ch=3 n=30 v=100
8545688 Off ch=3 n=54 v=0
8545807 Off ch=3 n=30 v=0
8545813 Off ch=3 n=39 v=0
8545861 Off ch=3 n=43 v=0
8545861 Off ch=3 n=43 v=0
8546241 On ch=3 n=13 v=100
8546483 Off ch=3 n=13 v=0
8546521 On ch=3 n=15 v=100
8547117 Off ch=3 n=15 v=0
8547198 On ch=3 n=15 v=100
8547467 Off ch=3 n=15 v=0
8547654 On ch=3 n=33 v=100
8547672 Off ch=3 n=33 v=0
8547751 On ch=3 n=33 v=100
8547751 On ch=3 n=40 v=100
8547841 Off ch=3 n=33 v=0
8547934 Off ch=3 n=40 v=0
8548031 On ch=3 n=17 v=100
8548049 On ch=3 n=30 v=100
8548232 Off ch=3 n=17 v=0
8548232 Off ch=3 n=30 v=0
8548327 On ch=3 n=17 v=100
8548327 On ch=3 n=30 v=100
8548365 Off ch=3 n=17 v=0
8548465 Off ch=3 n=30 v=0
8549379 On ch=3 n=33 v=100
8549474 On ch=3 n=27 v=100
8549903 Off ch=3 n=27 v=0
8549905 Off ch=3 n=33 v=0
8554684 On ch=3 n=23 v=100
8554844 Off ch=3 n=23 v=0
8554925 On ch=3 n=27 v=100
8555068 Off ch=3 n=27 v=0
8555108 On ch=3 n=24 v=100
8555433 Off ch=3 n=24 v=0
8555795 On ch=3 n=26 v=100
8556298 Off ch=3 n=26 v=0
8556302 On ch=3 n=7 v=100
8557074 Off ch=3 n=7 v=0
8557481 On ch=3 n=2 v=100
8557531 Off ch=3 n=2 v=0
8558685 On ch=3 n=31 v=100
8558685 On ch=3 n=23 v=100
8558793 Off ch=3 n=23 v=0
8558796 Off ch=3 n=31 v=0
8558864 On ch=3 n=6 v=100
8558865 On ch=3 n=31 v=100
8558878 Off ch=3 n=31 v=0
8559285 Off ch=3 n=6 v=0
8559363 On ch=3 n=6 v=100
8559404 Off ch=3 n=6 v=0
8560941 On ch=3 n=27 v=100
8560983 On ch=3 n=11 v=100
8561023 Off ch=3 n=27 v=0
8561290 Off ch=3 n=11 v=0
8563742 On ch=3 n=11 v=100
8563904 Off ch=3 n=11 v=0
8564476 On ch=3 n=39 v=100
8564541 On ch=3 n=22 v=100
8564658 Off ch=3 n=39 v=0
8564815 Off ch=3 n=22 v=0
8566051 On ch=3 n=32 v=100
8566268 Off ch=3 n=32 v=0
8566325 On ch=3 n=29 v=100
8566528 Off ch=3 n=29 v=0
8566556 On ch=3 n=23 v=100
8566578 Off ch=3 n=23 v=0
8566641 On ch=3 n=23 v=100
8566833 Off ch=3 n=23 v=0
8566838 On ch=3 n=10 v=100
8567303 Off ch=3 n=10 v=0
8567309 On ch=3 n=20 v=100
8567482 Off ch=3 n=20 v=0
8567494 On ch=3 n=14 v=100
8567593 Off ch=3 n=14 v=0
8568700 On ch=3 n=17 v=100
8568746 On ch=3 n=8 v=100
8568866 Off ch=3 n=17 v=0
8569129 Off ch=3 n=8 v=0
8569409 On ch=3 n=10 v=100
8569952 Off ch=3 n=10 v=0
8569997 On ch=3 n=10 v=100
8569997 On ch=3 n=12 v=100
8570524 Off ch=3 n=10 v=0
8570683 Off ch=3 n=12 v=0
8570684 On ch=3 n=25 v=100
8570694 On ch=3 n=30 v=100
8571124 Off ch=3 n=25 v=0
8571276 Off ch=3 n=30 v=0
8571277 On ch=3 n=16 v=100
8571970 Off ch=3 n=16 v=0
8571971 On ch=3 n=11 v=100
8572296 On ch=3 n=23 v=100
8572313 On ch=3 n=4 v=100
8572316 Off ch=3 n=11 v=0
8572551 Off ch=3 n=23 v=0
8572551 Off ch=3 n=4 v=0
8572607 On ch=3 n=23 v=100
8572607 On ch=3 n=24 v=100
8572607 On ch=3 n=7 v=100
8572728 Off ch=3 n=23 v=0
8572887 On ch=3 n=30 v=100
8572899 Off ch=3 n=24 v=0
8572929 Off ch=3 n=7 v=0
8572931 On ch=3 n=21 v=100
8573003 Off ch=3 n=30 v=0
8573016 Off ch=3 n=21 v=0
8574143 On ch=3 n=20 v=100
8574162 On ch=3 n=15 v=100
8574162 On ch=3 n=30 v=100
8574164 On ch=3 n=10 v=100
8574255 On ch=3 n=25 v=100
8574256 Off ch=3 n=10 v=0
8574257 Off ch=3 n=20 v=0
8574272 Off ch=3 n=15 v=0
8574287 Off ch=3 n=30 v=0
8574560 On ch=3 n=27 v=100
8574665 Off ch=3 n=25 v=0
8574787 Off ch=3 n=27 v=0
8574790 On ch=3 n=10 v=100
8574917 Off ch=3 n=10 v=0
8574937 On ch=3 n=23 v=100
8575078 On ch=3 n=11 v=100
8575186 Off ch=3 n=23 v=0
8575188 On ch=3 n=9 v=100
8575188 Off ch=3 n=11 v=0
8575421 Off ch=3 n=9 v=0
8575465 On ch=3 n=52 v=100
8575945 On ch=3 n=53 v=100
8575950 Off ch=3 n=52 v=0
8576184 Off ch=3 n=53 v=0
8582596 On ch=3 n=3 v=100
8583089 On ch=3 n=28 v=100
8583147 On ch=3 n=32 v=100
8583147 Off ch=3 n=3 v=0
8583157 Off ch=3 n=28 v=0
8583414 Off ch=3 n=32 v=0
8584201 On ch=3 n=22 v=100
8584518 Off ch=3 n=22 v=0
8585209 On ch=3 n=18 v=100
8585401 Off ch=3 n=18 v=0
8585416 On ch=3 n=14 v=100
8585578 Off ch=3 n=14 v=0
8585589 On ch=3 n=35 v=100
8585589 On ch=3 n=35 v=100
8585609 On ch=3 n=20 v=100
8585624 On ch=3 n=34 v=100
8585815 Off ch=3 n=20 v=0
8585856 Off ch=3 n=35 v=0
8585856 Off ch=3 n=35 v=0
8585857 Off ch=3 n=34 v=0
8586065 On ch=3 n=17 v=100
8586164 Off ch=3 n=17 v=0
8587669 On ch=3 n=22 v=100
8587757 On ch=3 n=34 v=100
8587779 Off ch=3 n=22 v=0
8587824 On ch=3 n=16 v=100
8587846 On ch=3 n=26 v=100
8588083 Off ch=3 n=16 v=0
8588087 Off ch=3 n=34 v=0
8588126 Off ch=3 n=26 v=0
8588349 On ch=3 n=20 v=100
8588435 Off ch=3 n=20 v=0
8588456 On ch=3 n=24 v=100
8588911 Off ch=3 n=24 v=0
8590525 On ch=3 n=10 v=100
8590694 Off ch=3 n=10 v=0
8596906 On ch=3 n=43 v=100
8596906 On ch=3 n=43 v=100
8597000 On ch=3 n=7 v=100
8597298 Off ch=3 n=7 v=0
8597317 Off ch=3 n=43 v=0
8597317 Off ch=3 n=43 v=0
8597455 On ch=3 n=9 v=100
8597562 On ch=3 n=6 v=100
8597562 Off ch=3 n=9 v=0
8597700 Off ch=3 n=6 v=0
8598279 On ch=3 n=8 v=100
8598412 On ch=3 n=26 v=100
8598470 Off ch=3 n=8 v=0
8598474 On ch=3 n=20 v=100
8598474 On ch=3 n=20 v=100
8598510 On ch=3 n=13 v=100
8598553 On ch=3 n=8 v=100
8598910 On ch=3 n=11 v=100
8598912 Off ch=3 n=8 v=0
8598916 Off ch=3 n=13 v=0
8598958 Off ch=3 n=26 v=0
8599024 Off ch=3 n=20 v=0
8599024 Off ch=3 n=20 v=0
8599999 Off ch=3 n=11 v=0
8600001 On ch=3 n=7 v=100
8600191 Off ch=3 n=7 v=0
8601549 On ch=3 n=5 v=100
8602107 Off ch=3 n=5 v=0
8602378 On ch=3 n=15 v=100
8602422 Off ch=3 n=15 v=0
8603096 On ch=3 n=13 v=100
8603155 Off ch=3 n=13 v=0
8604211 On ch=3 n=19 v=100
8604245 On ch=3 n=10 v=100
8604426 Off ch=3 n=19 v=0
8604869 On ch=3 n=30 v=100
8604916 Off ch=3 n=10 v=0
8604923 Off ch=3 n=30 v=0
8606245 On ch=3 n=37 v=100
8606424 Off ch=3 n=37 v=0
8606487 On ch=3 n=9 v=100
8607061 Off ch=3 n=9 v=0
8607066 On ch=3 n=8 v=100
8607247 Off ch=3 n=8 v=0
8607356 On ch=3 n=16 v=100
8607545 On ch=3 n=14 v=100
8607548 Off ch=3 n=16 v=0
8607743 Off ch=3 n=14 v=0
8607814 On ch=3 n=30 v=100
8607959 On ch=3 n=56 v=100
8608076 Off ch=3 n=30 v=0
8608090 Off ch=3 n=56 v=0
8608900 On ch=3 n=5 v=100
8609507 Off ch=3 n=5 v=0
8609544 On ch=3 n=55 v=100
8609616 On ch=3 n=54 v=100
8609616 On ch=3 n=54 v=100
8609629 On ch=3 n=9 v=100
8609629 On ch=3 n=58 v=100
8609818 Off ch=3 n=55 v=0
8609827 Off ch=3 n=9 v=0
8609871 Off ch=3 n=58 v=0
8609918 Off ch=3 n=54 v=0
8609918 Off ch=3 n=54 v=0
8610430 On ch=3 n=5 v=100
8610531 On ch=3 n=32 v=100
8610560 On ch=3 n=24 v=100
8610560 On ch=3 n=24 v=100
8610582 Off ch=3 n=5 v=0
8610584 On ch=3 n=9 v=100
8610777 Off ch=3 n=9 v=0
8610787 Off ch=3 n=32 v=0
8610794 On ch=3 n=32 v=100
8610812 Off ch=3 n=24 v=0
8610812 Off ch=3 n=24 v=0
8610963 On ch=3 n=19 v=100
8611164 On ch=3 n=14 v=100
8611264 Off ch=3 n=32 v=0
8611277 On ch=3 n=14 v=100
8611277 On ch=3 n=14 v=100
8611297 On ch=3 n=17 v=100
8611301 Off ch=3 n=19 v=0
8611654 Off ch=3 n=14 v=0
8611698 Off ch=3 n=17 v=0
8611736 Off ch=3 n=14 v=0
8611736 Off ch=3 n=14 v=0
8612993 On ch=3 n=9 v=100
8613404 Off ch=3 n=9 v=0
8613559 On ch=3 n=35 v=100
8613678 Off ch=3 n=35 v=0
8613877 On ch=3 n=16 v=100
8614739 On ch=3 n=20 v=100
8614746 Off ch=3 n=16 v=0
8614788 Off ch=3 n=20 v=0
8614815 On ch=3 n=10 v=100
8615261 Off ch=3 n=10 v=0
8615319 On ch=3 n=3 v=100
8616125 On ch=3 n=47 v=100
8616125 On ch=3 n=47 v=100
8616136 On ch=3 n=12 v=100
8616153 Off ch=3 n=3 v=0
8616156 On ch=3 n=14 v=100
8616156 On ch=3 n=14 v=100
8616193 Off ch=3 n=47 v=0
8616193 Off ch=3 n=47 v=0
8616207 On ch=3 n=48 v=100
8616207 On ch=3 n=48 v=100
8616214 Off ch=3 n=12 v=0
8616291 Off ch=3 n=14 v=0
8616291 Off ch=3 n=14 v=0
8616296 On ch=3 n=4 v=100
8616306 Off ch=3 n=48 v=0
8616306 Off ch=3 n=48 v=0
8616649 Off ch=3 n=4 v=0
8618501 On ch=3 n=6 v=100
8618598 Off ch=3 n=6 v=0
8619015 On ch=3 n=12 v=100
8619587 Off ch=3 n=12 v=0
8619590 On ch=3 n=4 v=100
8620302 Off ch=3 n=4 v=0
8620317 On ch=3 n=14 v=100
8620487 On ch=3 n=12 v=100
8620487 On ch=3 n=17 v=100
8620487 On ch=3 n=32 v=100
8620488 Off ch=3 n=14 v=0
8620606 Off ch=3 n=12 v=0
8620622 Off ch=3 n=17 v=0
8620643 On ch=3 n=10 v=100
8620666 Off ch=3 n=32 v=0
8620729 Off ch=3 n=10 v=0
8622709 On ch=3 n=11 v=100
8622766 Off ch=3 n=11 v=0
8623499 On ch=3 n=7 v=100
8623630 Off ch=3 n=7 v=0
8623666 On ch=3 n=2 v=100
8625018 On ch=3 n=2 v=100
8625018 Off ch=3 n=2 v=0
8625195 Off ch=3 n=2 v=0
8625224 On ch=3 n=18 v=100
8625654 Off ch=3 n=18 v=0
8626473 On ch=3 n=68 v=100
8626473 On ch=3 n=68 v=100
8626503 On ch=3 n=11 v=100
8626837 On ch=3 n=44 v=100
8626917 On ch=3 n=26 v=100
8626939 Off ch=3 n=11 v=0
8626955 On ch=3 n=20 v=100
8627048 Off ch=3 n=68 v=0
8627048 Off ch=3 n=68 v=0
8627128 Off ch=3 n=44 v=0
8627243 Off ch=3 n=20 v=0
8627252 Off ch=3 n=26 v=0
8627573 On ch=3 n=38 v=100
8627584 On ch=3 n=28 v=100
8627672 On ch=3 n=6 v=100
8627673 Off ch=3 n=28 v=0
8627674 Off ch=3 n=38 v=0
8628056 Off ch=3 n=6 v=0
8628076 On ch=3 n=20 v=100
8628078 On ch=3 n=14 v=100
8628400 Off ch=3 n=14 v=0
8628412 On ch=3 n=12 v=100
8628681 Off ch=3 n=20 v=0
8628684 Off ch=3 n=12 v=0
8628690 On ch=3 n=48 v=100
8628752 Off ch=3 n=48 v=0
8629779 On ch=3 n=24 v=100
8629831 On ch=3 n=21 v=100
8630044 Off ch=3 n=24 v=0
8630044 Off ch=3 n=21 v=0
8630091 On ch=3 n=24 v=100
8630091 On ch=3 n=21 v=100
8630230 Off ch=3 n=24 v=0
8630266 Off ch=3 n=21 v=0
8630290 On ch=3 n=0 v=100
8630521 Off ch=3 n=0 v=0
8630681 On ch=3 n=7 v=100
8631433 Off ch=3 n=7 v=0
8631872 On ch=3 n=5 v=100
8632068 Off ch=3 n=5 v=0
8638109 On ch=3 n=10 v=100
8638200 On ch=3 n=7 v=100
8638200 Off ch=3 n=10 v=0
8639069 On ch=3 n=33 v=100
8639069 On ch=3 n=33 v=100
8639083 On ch=3 n=12 v=100
8639088 Off ch=3 n=7 v=0
8639125 Off ch=3 n=12 v=0
8639156 Off ch=3 n=33 v=0
8639156 Off ch=3 n=33 v=0
8639290 On ch=3 n=0 v=100
8640343 Off ch=3 n=0 v=0
8641410 On ch=3 n=11 v=100
8641790 Off ch=3 n=11 v=0
8642469 On ch=3 n=9 v=100
8642745 Off ch=3 n=9 v=0
8642748 On ch=3 n=15 v=100
8642776 Off ch=3 n=15 v=0
8642780 On ch=3 n=10 v=100
8643078 On ch=3 n=28 v=100
8643144 Off ch=3 n=10 v=0
8643186 Off ch=3 n=28 v=0
8643265 On ch=3 n=17 v=100
8643303 On ch=3 n=16 v=100
8643313 Off ch=3 n=17 v=0
8643510 Off ch=3 n=16 v=0
8646855 On ch=3 n=7 v=100
8647486 Off ch=3 n=7 v=0
8648461 On ch=3 n=24 v=100
8648486 On ch=3 n=18 v=100
8648570 Off ch=3 n=24 v=0
8648570 Off ch=3 n=18 v=0
8648637 On ch=3 n=12 v=100
8648906 On ch=3 n=17 v=100
8648913 Off ch=3 n=12 v=0
8649012 Off ch=3 n=17 v=0
8649019 On ch=3 n=8 v=100
8649384 Off ch=3 n=8 v=0
8649388 On ch=3 n=13 v=100
8649474 On ch=3 n=10 v=100
8649513 On ch=3 n=15 v=100
8649517 On ch=3 n=18 v=100
8649859 Off ch=3 n=13 v=0
8649906 Off ch=3 n=10 v=0
8649963 Off ch=3 n=18 v=0
8650067 Off ch=3 n=15 v=0
8650094 On ch=3 n=15 v=100
8650104 Off ch=3 n=15 v=0
8650243 On ch=3 n=15 v=100
8650266 Off ch=3 n=15 v=0
8650329 On ch=3 n=28 v=100
8650564 Off ch=3 n=28 v=0
8650623 On ch=3 n=40 v=100
8650729 Off ch=3 n=40 v=0
8653429 On ch=3 n=6 v=100
8653640 Off ch=3 n=6 v=0
8653762 On ch=3 n=24 v=100
8653843 Off ch=3 n=24 v=0
8653849 On ch=3 n=4 v=100
8653876 On ch=3 n=30 v=100
8653919 On ch=3 n=6 v=100
8653921 Off ch=3 n=4 v=0
8654012 Off ch=3 n=30 v=0
8654012 Off ch=3 n=6 v=0
8655638 On ch=3 n=9 v=100
8656356 Off ch=3 n=9 v=0
8657500 On ch=3 n=13 v=100
8657892 Off ch=3 n=13 v=0
8658257 On ch=3 n=18 v=100
8658661 Off ch=3 n=18 v=0
8660928 On ch=3 n=42 v=100
8660941 On ch=3 n=18 v=100
8660950 On ch=3 n=16 v=100
8660963 On ch=3 n=13 v=100
8661032 On ch=3 n=16 v=100
8661032 Off ch=3 n=42 v=0
8661032 Off ch=3 n=16 v=0
8661033 Off ch=3 n=18 v=0
8661035 Off ch=3 n=13 v=0
8661514 Off ch=3 n=16 v=0
8661516 On ch=3 n=4 v=100
8661703 Off ch=3 n=4 v=0
8661706 On ch=3 n=32 v=100
8661816 Off ch=3 n=32 v=0
8661817 On ch=3 n=32 v=100
8661817 On ch=3 n=12 v=100
8661817 On ch=3 n=32 v=100
8661817 On ch=3 n=12 v=100
8661833 On ch=3 n=45 v=100
8661947 On ch=3 n=9 v=100
8661947 On ch=3 n=9 v=100
8662126 Off ch=3 n=12 v=0
8662126 Off ch=3 n=12 v=0
8662208 Off ch=3 n=32 v=0
8662208 Off ch=3 n=32 v=0
8662344 Off ch=3 n=45 v=0
8662465 Off ch=3 n=9 v=0
8662465 Off ch=3 n=9 v=0
8663239 On ch=3 n=27 v=100
8663453 Off ch=3 n=27 v=0
8663482 On ch=3 n=15 v=100
8664339 Off ch=3 n=15 v=0
8664369 On ch=3 n=37 v=100
8664478 Off ch=3 n=37 v=0
8665857 On ch=3 n=26 v=100
8666006 Off ch=3 n=26 v=0
8666072 On ch=3 n=12 v=100
8666073 On ch=3 n=27 v=100
8666500 Off ch=3 n=12 v=0
8666562 Off ch=3 n=27 v=0
8666625 On ch=3 n=20 v=100
8666865 Off ch=3 n=20 v=0
8667243 On ch=3 n=33 v=100
8667261 On ch=3 n=49 v=100
8667304 Off ch=3 n=33 v=0
8667331 Off ch=3 n=49 v=0
8667959 On ch=3 n=10 v=100
8669033 Off ch=3 n=10 v=0
8669047 On ch=3 n=50 v=100
8669047 On ch=3 n=35 v=100
8669138 Off ch=3 n=50 v=0
8669152 Off ch=3 n=35 v=0
8670442 On ch=3 n=14 v=100
8670782 Off ch=3 n=14 v=0
8670837 On ch=3 n=14 v=100
8670942 On ch=3 n=12 v=100
8670943 Off ch=3 n=14 v=0
8671005 Off ch=3 n=12 v=0
8671634 On ch=3 n=14 v=100
8671636 On ch=3 n=28 v=100
8671678 Off ch=3 n=14 v=0
8671718 Off ch=3 n=28 v=0
8671852 On ch=3 n=11 v=100
8672006 On ch=3 n=9 v=100
8672021 Off ch=3 n=11 v=0
8672386 Off ch=3 n=9 v=0
8672387 On ch=3 n=8 v=100
8673070 Off ch=3 n=8 v=0
8673072 On ch=3 n=6 v=100
8673353 On ch=3 n=11 v=100
8673354 Off ch=3 n=6 v=0
8673541 On ch=3 n=24 v=100
8673541 On ch=3 n=24 v=100
8673551 Off ch=3 n=11 v=0
8673558 On ch=3 n=10 v=100
8673736 Off ch=3 n=10 v=0
8673749 Off ch=3 n=24 v=0
8673749 Off ch=3 n=24 v=0
8674884 On ch=3 n=18 v=100
8675135 Off ch=3 n=18 v=0
8675190 On ch=3 n=21 v=100
8675471 On ch=3 n=17 v=100
8675495 Off ch=3 n=21 v=0
8675614 On ch=3 n=11 v=100
8675619 Off ch=3 n=17 v=0
8675864 Off ch=3 n=11 v=0
8675918 On ch=3 n=24 v=100
8676145 On ch=3 n=5 v=100
8676197 Off ch=3 n=24 v=0
8676402 Off ch=3 n=5 v=0
8676411 On ch=3 n=22 v=100
8676976 Off ch=3 n=22 v=0
8676989 On ch=3 n=10 v=100
8677260 Off ch=3 n=10 v=0
8677294 On ch=3 n=21 v=100
8677759 Off ch=3 n=21 v=0
8678147 On ch=3 n=33 v=100
8678271 Off ch=3 n=33 v=0
8678560 On ch=3 n=8 v=100
8679170 Off ch=3 n=8 v=0
8681003 On ch=3 n=10 v=100
8681161 On ch=3 n=27 v=100
8681165 Off ch=3 n=10 v=0
8681245 Off ch=3 n=27 v=0
8681256 On ch=3 n=31 v=100
8681427 On ch=3 n=28 v=100
8681427 On ch=3 n=28 v=100
8681480 On ch=3 n=20 v=100
8681826 Off ch=3 n=31 v=0
8681865 On ch=3 n=15 v=100
8681869 Off ch=3 n=20 v=0
8681885 Off ch=3 n=28 v=0
8681885 Off ch=3 n=28 v=0
8682068 On ch=3 n=17 v=100
8682072 Off ch=3 n=15 v=0
8682144 Off ch=3 n=17 v=0
8682212 On ch=3 n=26 v=100
8682264 On ch=3 n=16 v=100
8682358 On ch=3 n=19 v=100
8682628 Off ch=3 n=26 v=0
8682628 Off ch=3 n=16 v=0
8682758 Off ch=3 n=19 v=0
8683735 On ch=3 n=7 v=100
8683803 On ch=3 n=10 v=100
8683805 Off ch=3 n=7 v=0
8684024 Off ch=3 n=10 v=0
8684030 On ch=3 n=8 v=100
8684749 Off ch=3 n=8 v=0
8684945 On ch=3 n=15 v=100
8684945 On ch=3 n=15 v=100
8685022 On ch=3 n=9 v=100
8685087 Off ch=3 n=15 v=0
8685108 Off ch=3 n=15 v=0
8685437 Off ch=3 n=9 v=0
8685463 On ch=3 n=13 v=100
8685594 On ch=3 n=9 v=100
8685623 Off ch=3 n=13 v=0
8685685 On ch=3 n=35 v=100
8685685 On ch=3 n=35 v=100
8685718 Off ch=3 n=9 v=0
8685727 On ch=3 n=13 v=100
8685903 On ch=3 n=13 v=100
8685905 Off ch=3 n=13 v=0
8685924 Off ch=3 n=35 v=0
8685924 Off ch=3 n=35 v=0
8686157 Off ch=3 n=13 v=0
8686222 On ch=3 n=26 v=100
8687005 Off ch=3 n=26 v=0
8692930 On ch=3 n=32 v=100
8692980 On ch=3 n=33 v=100
8693034 Off ch=3 n=32 v=0
8693060 Off ch=3 n=33 v=0
8693084 On ch=3 n=21 v=100
8693156 Off ch=3 n=21 v=0
8693162 On ch=3 n=11 v=100
8693521 On ch=3 n=13 v=100
8693527 Off ch=3 n=11 v=0
8694049 Off ch=3 n=13 v=0
8694451 On ch=3 n=22 v=100
8694696 Off ch=3 n=22 v=0
8695204 On ch=3 n=6 v=100
8695443 Off ch=3 n=6 v=0
8695457 On ch=3 n=7 v=100
8695505 On ch=3 n=21 v=100
8695507 On ch=3 n=12 v=100
8695508 Off ch=3 n=7 v=0
8696015 On ch=3 n=8 v=100
8696015 Off ch=3 n=12 v=0
8696116 Off ch=3 n=21 v=0
8696436 Off ch=3 n=8 v=0
8696452 On ch=3 n=9 v=100
8696453 On ch=3 n=14 v=100
8696496 On ch=3 n=11 v=100
8696499 Off ch=3 n=9 v=0
8696506 Off ch=3 n=14 v=0
8696761 On ch=3 n=30 v=100
8696787 Off ch=3 n=11 v=0
8696816 Off ch=3 n=30 v=0
8697364 On ch=3 n=27 v=100
8697691 Off ch=3 n=27 v=0
8698329 On ch=3 n=47 v=100
8698347 On ch=3 n=43 v=100
8698349 On ch=3 n=21 v=100
8698427 On ch=3 n=28 v=100
8698428 Off ch=3 n=21 v=0
8698430 On ch=3 n=39 v=100
8698485 Off ch=3 n=43 v=0
8698492 Off ch=3 n=47 v=0
8698501 Off ch=3 n=28 v=0
8698581 Off ch=3 n=39 v=0
8698733 On ch=3 n=42 v=100
8698903 Off ch=3 n=42 v=0
8699236 On ch=3 n=32 v=100
8699419 On ch=3 n=9 v=100
8699553 On ch=3 n=27 v=100
8699557 On ch=3 n=34 v=100
8699561 Off ch=3 n=32 v=0
8699580 Off ch=3 n=9 v=0
8699739 Off ch=3 n=34 v=0
8699770 Off ch=3 n=27 v=0
8699777 On ch=3 n=8 v=100
8700139 On ch=3 n=16 v=100
8700181 On ch=3 n=22 v=100
8700225 Off ch=3 n=8 v=0
8700225 Off ch=3 n=16 v=0
8700225 Off ch=3 n=22 v=0
8700311 On ch=3 n=16 v=100
8700311 On ch=3 n=22 v=100
8700332 Off ch=3 n=16 v=0
8700470 Off ch=3 n=22 v=0
8700887 On ch=3 n=26 v=100
8700919 On ch=3 n=21 v=100
8700926 On ch=3 n=42 v=100
8700926 On ch=3 n=42 v=100
8700934 On ch=3 n=17 v=100
8701051 Off ch=3 n=26 v=0
8701059 Off ch=3 n=21 v=0
8701067 Off ch=3 n=17 v=0
8701097 On ch=3 n=14 v=100
8701180 On ch=3 n=34 v=100
8701182 On ch=3 n=22 v=100
8701229 Off ch=3 n=14 v=0
8701389 Off ch=3 n=22 v=0
8701397 Off ch=3 n=42 v=0
8701397 Off ch=3 n=42 v=0
8701413 Off ch=3 n=34 v=0
8702427 On ch=3 n=39 v=100
8702496 On ch=3 n=19 v=100
8702500 On ch=3 n=37 v=100
8702670 On ch=3 n=31 v=100
8702711 Off ch=3 n=39 v=0
8702712 Off ch=3 n=19 v=0
8702760 Off ch=3 n=37 v=0
8702921 Off ch=3 n=31 v=0
8703055 On ch=3 n=31 v=100
8703567 Off ch=3 n=31 v=0
8703817 On ch=3 n=9 v=100
8704417 On ch=3 n=3 v=100
8704420 Off ch=3 n=9 v=0
8705075 On ch=3 n=7 v=100
8705087 Off ch=3 n=3 v=0
8705588 Off ch=3 n=7 v=0
8707098 On ch=3 n=7 v=100
8707537 Off ch=3 n=7 v=0
8707595 On ch=3 n=7 v=100
8708195 Off ch=3 n=7 v=0
8708203 On ch=3 n=14 v=100
8708240 On ch=3 n=11 v=100
8708242 Off ch=3 n=14 v=0
8708276 On ch=3 n=5 v=100
8708279 Off ch=3 n=11 v=0
8708315 Off ch=3 n=5 v=0
8708340 On ch=3 n=14 v=100
8708378 On ch=3 n=9 v=100
8708378 Off ch=3 n=14 v=0
8708415 Off ch=3 n=9 v=0
8708448 On ch=3 n=11 v=100
8708485 Off ch=3 n=11 v=0
8708518 On ch=3 n=8 v=100
8708550 On ch=3 n=7 v=100
8708556 Off ch=3 n=8 v=0
8708588 On ch=3 n=13 v=100
8708590 Off ch=3 n=7 v=0
8708627 Off ch=3 n=13 v=0
8708791 On ch=3 n=9 v=100
8708826 On ch=3 n=5 v=100
8708830 Off ch=3 n=9 v=0
8708863 On ch=3 n=6 v=100
8708866 Off ch=3 n=5 v=0
8708899 On ch=3 n=10 v=100
8708901 Off ch=3 n=6 v=0
8708938 Off ch=3 n=10 v=0
8708969 On ch=3 n=5 v=100
8709007 On ch=3 n=8 v=100
8709009 Off ch=3 n=5 v=0
8709043 On ch=3 n=7 v=100
8709046 Off ch=3 n=8 v=0
8709063 On ch=3 n=16 v=100
8709211 Off ch=3 n=7 v=0
8709270 Off ch=3 n=16 v=0
8710652 On ch=3 n=10 v=100
8711602 Off ch=3 n=10 v=0
8711778 On ch=3 n=11 v=100
8711915 Off ch=3 n=11 v=0
8711919 On ch=3 n=4 v=100
8712344 Off ch=3 n=4 v=0
8712420 On ch=3 n=4 v=100
8712501 Off ch=3 n=4 v=0
8712541 Off ch=3 n=4 v=0
8712542 On ch=3 n=10 v=100
8712542 On ch=3 n=4 v=100
8712893 Off ch=3 n=10 v=0
8716491 On ch=3 n=8 v=100
8716749 Off ch=3 n=8 v=0
8716750 On ch=3 n=8 v=100
8718203 Off ch=3 n=8 v=0
8718505 On ch=3 n=24 v=100
8718635 Off ch=3 n=24 v=0
8718988 On ch=3 n=8 v=100
8719079 Off ch=3 n=8 v=0
8719132 On ch=3 n=13 v=100
8719420 Off ch=3 n=13 v=0
8719421 On ch=3 n=11 v=100
8719742 On ch=3 n=30 v=100
8719814 On ch=3 n=13 v=100
8719814 Off ch=3 n=11 v=0
8719868 Off ch=3 n=30 v=0
8720108 Off ch=3 n=13 v=0
8721206 On ch=3 n=11 v=100
8721520 Off ch=3 n=11 v=0
8722344 On ch=3 n=29 v=100
8722397 Off ch=3 n=29 v=0
8722535 On ch=3 n=14 v=100
8722689 On ch=3 n=6 v=100
8722897 Off ch=3 n=14 v=0
8723840 On ch=3 n=27 v=100
8723854 Off ch=3 n=6 v=0
8723891 On ch=3 n=21 v=100
8723973 On ch=3 n=18 v=100
8724268 Off ch=3 n=27 v=0
8724308 Off ch=3 n=21 v=0
8724383 Off ch=3 n=18 v=0
8724461 On ch=3 n=7 v=100
8724766 On ch=3 n=10 v=100
8724767 Off ch=3 n=7 v=0
8724947 On ch=3 n=18 v=100
8724948 Off ch=3 n=10 v=0
8725032 Off ch=3 n=18 v=0
8726719 On ch=3 n=13 v=100
8726719 On ch=3 n=44 v=100
8726768 Off ch=3 n=13 v=0
8726797 On ch=3 n=21 v=100
8727032 On ch=3 n=21 v=100
8727046 Off ch=3 n=21 v=0
8727074 On ch=3 n=24 v=100
8727105 On ch=3 n=15 v=100
8727129 Off ch=3 n=21 v=0
8727139 Off ch=3 n=24 v=0
8727197 Off ch=3 n=15 v=0
8727201 Off ch=3 n=44 v=0
8727203 On ch=3 n=13 v=100
8727244 Off ch=3 n=13 v=0
8728574 On ch=3 n=14 v=100
8728741 Off ch=3 n=14 v=0
8728755 On ch=3 n=14 v=100
8728855 On ch=3 n=16 v=100
8728881 Off ch=3 n=14 v=0
8728885 On ch=3 n=1 v=100
8729075 On ch=3 n=24 v=100
8729086 Off ch=3 n=16 v=0
8729250 Off ch=3 n=1 v=0
8729335 On ch=3 n=17 v=100
8729345 Off ch=3 n=24 v=0
8729623 Off ch=3 n=17 v=0
8729713 On ch=3 n=12 v=100
8730288 Off ch=3 n=12 v=0
8732794 On ch=3 n=21 v=100
8732828 On ch=3 n=15 v=100
8732840 Off ch=3 n=21 v=0
8732908 Off ch=3 n=15 v=0
8733011 On ch=3 n=4 v=100
8733105 Off ch=3 n=4 v=0
8733110 On ch=3 n=6 v=100
8733494 On ch=3 n=9 v=100
8733494 Off ch=3 n=6 v=0
8733994 On ch=3 n=24 v=100
8734153 Off ch=3 n=9 v=0
8734179 Off ch=3 n=24 v=0
8734231 On ch=3 n=36 v=100
8734450 Off ch=3 n=36 v=0
8734736 On ch=3 n=12 v=100
8734793 Off ch=3 n=12 v=0
8734802 On ch=3 n=21 v=100
8735082 Off ch=3 n=21 v=0
8735091 On ch=3 n=31 v=100
8735199 Off ch=3 n=31 v=0
8735210 On ch=3 n=13 v=100
8735421 Off ch=3 n=13 v=0
8735422 On ch=3 n=9 v=100
8735538 On ch=3 n=12 v=100
8735538 Off ch=3 n=9 v=0
8735573 Off ch=3 n=12 v=0
8735575 On ch=3 n=20 v=100
8735645 Off ch=3 n=20 v=0
8735648 On ch=3 n=17 v=100
8735731 Off ch=3 n=17 v=0
8736753 On ch=3 n=24 v=100
8736938 On ch=3 n=18 v=100
8736967 Off ch=3 n=24 v=0
8737279 Off ch=3 n=18 v=0
8737323 On ch=3 n=20 v=100
8737504 Off ch=3 n=20 v=0
8737555 On ch=3 n=14 v=100
8737638 Off ch=3 n=14 v=0
8737641 On ch=3 n=13 v=100
8737730 On ch=3 n=24 v=100
8737781 On ch=3 n=10 v=100
8737783 Off ch=3 n=13 v=0
8738010 Off ch=3 n=24 v=0
8738075 On ch=3 n=19 v=100
8738076 Off ch=3 n=10 v=0
8738180 Off ch=3 n=19 v=0
8738181 On ch=3 n=16 v=100
8738609 Off ch=3 n=16 v=0
8738641 On ch=3 n=19 v=100
8738919 Off ch=3 n=19 v=0
8739581 On ch=3 n=18 v=100
8739738 Off ch=3 n=18 v=0
8739921 On ch=3 n=40 v=100
8740013 Off ch=3 n=40 v=0
8740378 On ch=3 n=20 v=100
8740378 On ch=3 n=19 v=100
8740533 On ch=3 n=23 v=100
8740670 On ch=3 n=21 v=100
8740747 Off ch=3 n=19 v=0
8740806 Off ch=3 n=20 v=0
8740809 On ch=3 n=30 v=100
8741230 Off ch=3 n=23 v=0
8741277 On ch=3 n=20 v=100
8741283 Off ch=3 n=21 v=0
8741389 Off ch=3 n=30 v=0
8741414 Off ch=3 n=20 v=0
8741756 On ch=3 n=11 v=100
8741840 Off ch=3 n=11 v=0
8743233 On ch=3 n=19 v=100
8743828 Off ch=3 n=19 v=0
8744781 On ch=3 n=27 v=100
8744866 On ch=3 n=17 v=100
8744869 Off ch=3 n=27 v=0
8745015 Off ch=3 n=17 v=0
8745449 On ch=3 n=35 v=100
8745494 On ch=3 n=43 v=100
8745495 On ch=3 n=28 v=100
8745502 On ch=3 n=36 v=100
8745678 Off ch=3 n=28 v=0
8745686 Off ch=3 n=35 v=0
8745703 Off ch=3 n=36 v=0
8745705 On ch=3 n=15 v=100
8745734 Off ch=3 n=43 v=0
8745926 Off ch=3 n=15 v=0
8746013 On ch=3 n=24 v=100
8746127 Off ch=3 n=24 v=0
8746167 On ch=3 n=29 v=100
8746301 Off ch=3 n=29 v=0
8746352 On ch=3 n=20 v=100
8746411 Off ch=3 n=20 v=0
8747164 On ch=3 n=18 v=100
8747208 On ch=3 n=12 v=100
8747460 Off ch=3 n=18 v=0
8747725 Off ch=3 n=12 v=0
8747727 On ch=3 n=7 v=100
8747802 Off ch=3 n=7 v=0
8747891 On ch=3 n=7 v=100
8749199 Off ch=3 n=7 v=0
8749210 On ch=3 n=11 v=100
8749742 Off ch=3 n=11 v=0
8749994 On ch=3 n=35 v=100
8750107 Off ch=3 n=35 v=0
8751247 On ch=3 n=30 v=100
8751258 On ch=3 n=17 v=100
8751318 Off ch=3 n=30 v=0
8751471 Off ch=3 n=17 v=0
8751483 On ch=3 n=10 v=100
8751901 On ch=3 n=32 v=100
8751993 Off ch=3 n=10 v=0
8751998 On ch=3 n=22 v=100
8752012 Off ch=3 n=32 v=0
8752316 On ch=3 n=23 v=100
8752383 Off ch=3 n=22 v=0
8752405 Off ch=3 n=23 v=0
8753605 On ch=3 n=52 v=100
8753668 On ch=3 n=27 v=100
8753687 On ch=3 n=45 v=100
8753694 On ch=3 n=9 v=100
8753884 Off ch=3 n=9 v=0
8753891 Off ch=3 n=27 v=0
8753894 Off ch=3 n=52 v=0
8753971 Off ch=3 n=45 v=0
8757270 On ch=3 n=8 v=100
8757728 Off ch=3 n=8 v=0
8757766 On ch=3 n=10 v=100
8757819 Off ch=3 n=10 v=0
8757865 On ch=3 n=10 v=100
8758251 Off ch=3 n=10 v=0
8758819 On ch=3 n=32 v=100
8758972 Off ch=3 n=32 v=0
8759633 On ch=3 n=37 v=100
8759956 Off ch=3 n=37 v=0
8759987 On ch=3 n=10 v=100
8760546 Off ch=3 n=10 v=0
8760555 On ch=3 n=11 v=100
8760760 On ch=3 n=12 v=100
8760770 Off ch=3 n=11 v=0
8761433 Off ch=3 n=12 v=0
8761439 On ch=3 n=8 v=100
8761497 Off ch=3 n=8 v=0
8761503 On ch=3 n=12 v=100
8761845 Off ch=3 n=12 v=0
8761846 On ch=3 n=21 v=100
8761869 On ch=3 n=10 v=100
8761979 Off ch=3 n=21 v=0
8762252 Off ch=3 n=10 v=0
8762253 On ch=3 n=23 v=100
8762377 Off ch=3 n=23 v=0
8762384 On ch=3 n=23 v=100
8762574 Off ch=3 n=23 v=0
8762584 On ch=3 n=32 v=100
8762761 Off ch=3 n=32 v=0
8764158 On ch=3 n=31 v=100
8764212 Off ch=3 n=31 v=0
8764223 On ch=3 n=21 v=100
8764334 On ch=3 n=14 v=100
8764449 Off ch=3 n=21 v=0
8764837 Off ch=3 n=14 v=0
8764854 On ch=3 n=17 v=100
8764905 Off ch=3 n=17 v=0
8764996 On ch=3 n=8 v=100
8765064 On ch=3 n=10 v=100
8765071 Off ch=3 n=8 v=0
8765778 Off ch=3 n=10 v=0
8765802 On ch=3 n=4 v=100
8765949 Off ch=3 n=4 v=0
8765951 On ch=3 n=2 v=100
8766467 On ch=3 n=3 v=100
8766642 Off ch=3 n=2 v=0
8768483 On ch=3 n=9 v=100
8768483 Off ch=3 n=3 v=0
8769030 Off ch=3 n=9 v=0
8769048 On ch=3 n=7 v=100
8769322 Off ch=3 n=7 v=0
8769672 On ch=3 n=23 v=100
8769752 On ch=3 n=22 v=100
8769783 On ch=3 n=20 v=100
8770119 Off ch=3 n=23 v=0
8770186 Off ch=3 n=22 v=0
8770261 Off ch=3 n=20 v=0
8771005 On ch=3 n=19 v=100
8771124 Off ch=3 n=19 v=0
8771173 On ch=3 n=28 v=100
8771375 Off ch=3 n=28 v=0
8772023 On ch=3 n=13 v=100
8772338 Off ch=3 n=13 v=0
8772521 On ch=3 n=27 v=100
8772784 Off ch=3 n=27 v=0
8772899 On ch=3 n=21 v=100
8773099 Off ch=3 n=21 v=0
8773656 On ch=3 n=19 v=100
8773827 Off ch=3 n=19 v=0
8774461 On ch=3 n=23 v=100
8774558 On ch=3 n=5 v=100
8774559 Off ch=3 n=23 v=0
8774861 On ch=3 n=23 v=100
8774861 Off ch=3 n=5 v=0
8775102 Off ch=3 n=23 v=0
8775311 On ch=3 n=20 v=100
8775365 Off ch=3 n=20 v=0
8775395 On ch=3 n=28 v=100
8775496 Off ch=3 n=28 v=0
8775512 On ch=3 n=33 v=100
8775611 Off ch=3 n=33 v=0
8775792 On ch=3 n=36 v=100
8775852 Off ch=3 n=36 v=0
8775925 On ch=3 n=36 v=100
8775987 Off ch=3 n=36 v=0
8776083 On ch=3 n=13 v=100
8776222 On ch=3 n=24 v=100
8776234 Off ch=3 n=13 v=0
8776236 On ch=3 n=8 v=100
8776326 Off ch=3 n=24 v=0
8776355 On ch=3 n=6 v=100
8776842 Off ch=3 n=8 v=0
8776893 On ch=3 n=33 v=100
8776945 Off ch=3 n=6 v=0
8776948 On ch=3 n=8 v=100
8777098 Off ch=3 n=33 v=0
8777208 Off ch=3 n=8 v=0
8778491 On ch=3 n=49 v=100
8778676 Off ch=3 n=49 v=0
8778738 On ch=3 n=9 v=100
8779207 Off ch=3 n=9 v=0
8779320 On ch=3 n=24 v=100
8779417 Off ch=3 n=24 v=0
8779478 On ch=3 n=22 v=100
8779537 Off ch=3 n=22 v=0
8779538 On ch=3 n=13 v=100
8779629 Off ch=3 n=13 v=0
8779637 On ch=3 n=17 v=100
8779955 Off ch=3 n=17 v=0
8779957 On ch=3 n=15 v=100
8780005 Off ch=3 n=15 v=0
8780007 On ch=3 n=16 v=100
8780054 Off ch=3 n=16 v=0
8780097 On ch=3 n=11 v=100
8780326 Off ch=3 n=11 v=0
8780752 On ch=3 n=10 v=100
8781079 On ch=3 n=9 v=100
8781551 Off ch=3 n=10 v=0
8781730 Off ch=3 n=9 v=0
8781761 On ch=3 n=8 v=100
8781822 Off ch=3 n=8 v=0
8781872 On ch=3 n=8 v=100
8781893 Off ch=3 n=8 v=0
8781975 On ch=3 n=25 v=100
8782199 Off ch=3 n=25 v=0
8782509 On ch=3 n=16 v=100
8782743 Off ch=3 n=16 v=0
8784266 On ch=3 n=17 v=100
8784473 Off ch=3 n=17 v=0
8784883 On ch=3 n=31 v=100
8784917 On ch=3 n=20 v=100
8784964 Off ch=3 n=31 v=0
8785025 Off ch=3 n=20 v=0
8785042 On ch=3 n=15 v=100
8785249 Off ch=3 n=15 v=0
8785250 On ch=3 n=12 v=100
8785795 Off ch=3 n=12 v=0
8785805 On ch=3 n=12 v=100
8786176 Off ch=3 n=12 v=0
8787514 On ch=3 n=14 v=100
8788307 Off ch=3 n=14 v=0
8789163 On ch=3 n=24 v=100
8789418 Off ch=3 n=24 v=0
8789427 On ch=3 n=16 v=100
8789560 On ch=3 n=17 v=100
8789670 On ch=3 n=12 v=100
8789685 Off ch=3 n=16 v=0
8790139 Off ch=3 n=17 v=0
8790140 Off ch=3 n=12 v=0
8790153 On ch=3 n=10 v=100
8790337 Off ch=3 n=10 v=0
8790347 On ch=3 n=16 v=100
8790420 Off ch=3 n=16 v=0
8790426 On ch=3 n=7 v=100
8790809 On ch=3 n=9 v=100
8790810 Off ch=3 n=7 v=0
8791080 Off ch=3 n=9 v=0
8791985 On ch=3 n=8 v=100
8792259 Off ch=3 n=8 v=0
8792926 On ch=3 n=27 v=100
8792976 Off ch=3 n=27 v=0
8793026 On ch=3 n=12 v=100
8793830 Off ch=3 n=12 v=0
8793833 On ch=3 n=17 v=100
8793988 Off ch=3 n=17 v=0
8793989 On ch=3 n=11 v=100
8794714 On ch=3 n=17 v=100
8794732 Off ch=3 n=11 v=0
8794783 Off ch=3 n=17 v=0
8795038 On ch=3 n=32 v=100
8795256 Off ch=3 n=32 v=0
8796035 On ch=3 n=30 v=100
8796035 On ch=3 n=30 v=100
8796138 On ch=3 n=49 v=100
8796138 On ch=3 n=49 v=100
8796255 Off ch=3 n=30 v=0
8796255 Off ch=3 n=30 v=0
8796453 Off ch=3 n=49 v=0
8796453 Off ch=3 n=49 v=0
8797248 On ch=3 n=30 v=100
8797328 Off ch=3 n=30 v=0
8798644 On ch=3 n=8 v=100
8798974 On ch=3 n=13 v=100
8798974 Off ch=3 n=8 v=0
8799023 Off ch=3 n=13 v=0
8799026 On ch=3 n=7 v=100
8799503 On ch=3 n=22 v=100
8799527 Off ch=3 n=7 v=0
8799641 Off ch=3 n=22 v=0
8800788 On ch=3 n=10 v=100
8800990 On ch=3 n=31 v=100
8801070 On ch=3 n=16 v=100
8801070 On ch=3 n=16 v=100
8801078 Off ch=3 n=10 v=0
8801280 Off ch=3 n=31 v=0
8801346 On ch=3 n=10 v=100
8801485 Off ch=3 n=16 v=0
8801485 Off ch=3 n=16 v=0
8802882 Off ch=3 n=10 v=0
8802883 On ch=3 n=15 v=100
8803171 Off ch=3 n=15 v=0
8803350 On ch=3 n=28 v=100
8803628 Off ch=3 n=28 v=0
8804119 On ch=3 n=24 v=100
8804203 On ch=3 n=36 v=100
8804348 Off ch=3 n=24 v=0
8804348 Off ch=3 n=36 v=0
8804380 On ch=3 n=24 v=100
8804380 On ch=3 n=36 v=100
8804382 On ch=3 n=6 v=100
8804454 Off ch=3 n=24 v=0
8804466 Off ch=3 n=6 v=0
8804466 Off ch=3 n=36 v=0
8804591 Off ch=3 n=6 v=0
8804592 On ch=3 n=15 v=100
8804592 On ch=3 n=6 v=100
8804592 On ch=3 n=15 v=100
8804625 Off ch=3 n=15 v=0
8804988 Off ch=3 n=15 v=0
8805034 On ch=3 n=15 v=100
8805683 Off ch=3 n=15 v=0
8806913 On ch=3 n=12 v=100
8807037 On ch=3 n=19 v=100
8807051 Off ch=3 n=12 v=0
8807100 Off ch=3 n=19 v=0
8807306 On ch=3 n=57 v=100
8807920 Off ch=3 n=57 v=0
8807926 On ch=3 n=43 v=100
8807996 On ch=3 n=51 v=100
8807996 On ch=3 n=51 v=100
8808030 On ch=3 n=26 v=100
8808056 On ch=3 n=8 v=100
8808191 Off ch=3 n=43 v=0
8808194 Off ch=3 n=51 v=0
8808194 Off ch=3 n=51 v=0
8808199 Off ch=3 n=8 v=0
8808199 Off ch=3 n=26 v=0
8808210 On ch=3 n=7 v=100
8808513 On ch=3 n=26 v=100
8808535 On ch=3 n=16 v=100
8808559 Off ch=3 n=7 v=0
8808587 On ch=3 n=38 v=100
8808692 Off ch=3 n=26 v=0
8808692 Off ch=3 n=16 v=0
8808694 On ch=3 n=9 v=100
8808856 Off ch=3 n=38 v=0
8809245 On ch=3 n=13 v=100
8809275 On ch=3 n=45 v=100
8809277 On ch=3 n=28 v=100
8809285 Off ch=3 n=9 v=0
8809294 Off ch=3 n=13 v=0
8809348 Off ch=3 n=28 v=0
8809464 Off ch=3 n=45 v=0
8809917 On ch=3 n=5 v=100
8810548 Off ch=3 n=5 v=0
8810624 On ch=3 n=5 v=100
8810932 Off ch=3 n=5 v=0
8811575 On ch=3 n=17 v=100
8812034 Off ch=3 n=17 v=0
8812107 On ch=3 n=13 v=100
8812195 Off ch=3 n=13 v=0
8813041 On ch=3 n=7 v=100
8813215 On ch=3 n=9 v=100
8813218 Off ch=3 n=7 v=0
8813390 Off ch=3 n=9 v=0
8813497 On ch=3 n=17 v=100
8813999 On ch=3 n=9 v=100
8814001 Off ch=3 n=17 v=0
8814277 On ch=3 n=13 v=100
8814277 Off ch=3 n=9 v=0
8814491 Off ch=3 n=13 v=0
8815603 On ch=3 n=39 v=100
8815794 Off ch=3 n=39 v=0
8815966 On ch=3 n=14 v=100
8816177 Off ch=3 n=14 v=0
8816196 On ch=3 n=8 v=100
8816569 Off ch=3 n=8 v=0
8816752 On ch=3 n=24 v=100
8816853 Off ch=3 n=24 v=0
8817279 On ch=3 n=41 v=100
8817315 On ch=3 n=36 v=100
8817345 On ch=3 n=48 v=100
8817532 Off ch=3 n=41 v=0
8817533 Off ch=3 n=36 v=0
8817558 Off ch=3 n=48 v=0
8818111 On ch=3 n=10 v=100
8818553 Off ch=3 n=10 v=0
8818922 On ch=3 n=4 v=100
8819914 Off ch=3 n=4 v=0
8819915 On ch=3 n=14 v=100
8820174 Off ch=3 n=14 v=0
8820986 On ch=3 n=10 v=100
8821247 Off ch=3 n=10 v=0
8821258 On ch=3 n=9 v=100
8821719 Off ch=3 n=9 v=0
8822185 On ch=3 n=16 v=100
8822245 On ch=3 n=6 v=100
8822255 Off ch=3 n=16 v=0
8822466 Off ch=3 n=6 v=0
8822486 On ch=3 n=14 v=100
8822535 On ch=3 n=34 v=100
8822556 On ch=3 n=9 v=100
8822562 Off ch=3 n=14 v=0
8822681 Off ch=3 n=34 v=0
8823210 Off ch=3 n=9 v=0
8823211 On ch=3 n=22 v=100
8823544 Off ch=3 n=22 v=0
8824720 On ch=3 n=24 v=100
8824825 Off ch=3 n=24 v=0
8824829 On ch=3 n=23 v=100
8824908 On ch=3 n=9 v=100
8824911 On ch=3 n=10 v=100
8824911 Off ch=3 n=23 v=0
8824977 Off ch=3 n=9 v=0
8824987 Off ch=3 n=10 v=0
8825623 On ch=3 n=34 v=100
8825670 On ch=3 n=33 v=100
8825670 On ch=3 n=33 v=100
8825686 On ch=3 n=21 v=100
8825892 Off ch=3 n=21 v=0
8825893 Off ch=3 n=34 v=0
8825929 Off ch=3 n=33 v=0
8825929 Off ch=3 n=33 v=0
8825950 On ch=3 n=12 v=100
8826418 Off ch=3 n=12 v=0
8826588 On ch=3 n=27 v=100
8826741 Off ch=3 n=27 v=0
8827340 On ch=3 n=26 v=100
8827346 On ch=3 n=23 v=100
8827354 On ch=3 n=29 v=100
8827566 Off ch=3 n=23 v=0
8827591 Off ch=3 n=26 v=0
8827646 Off ch=3 n=29 v=0
8827908 On ch=3 n=46 v=100
8827911 On ch=3 n=40 v=100
8828029 On ch=3 n=56 v=100
8828069 Off ch=3 n=40 v=0
8828091 Off ch=3 n=46 v=0
8828124 Off ch=3 n=56 v=0
8828209 On ch=3 n=11 v=100
8829139 On ch=3 n=8 v=100
8829141 Off ch=3 n=11 v=0
8829459 Off ch=3 n=8 v=0
8829464 On ch=3 n=10 v=100
8829676 Off ch=3 n=10 v=0
8830006 On ch=3 n=30 v=100
8830010 On ch=3 n=49 v=100
8830086 Off ch=3 n=30 v=0
8830090 On ch=3 n=41 v=100
8830096 Off ch=3 n=49 v=0
8830151 On ch=3 n=43 v=100
8830186 On ch=3 n=25 v=100
8830254 Off ch=3 n=41 v=0
8830336 Off ch=3 n=25 v=0
8830341 Off ch=3 n=43 v=0
8830548 On ch=3 n=26 v=100
8830585 On ch=3 n=13 v=100
8830678 Off ch=3 n=26 v=0
8831417 On ch=3 n=19 v=100
8831427 Off ch=3 n=13 v=0
8831645 Off ch=3 n=19 v=0
8831829 On ch=3 n=10 v=100
8832339 On ch=3 n=53 v=100
8832339 On ch=3 n=42 v=100
8832370 Off ch=3 n=10 v=0
8832696 Off ch=3 n=42 v=0
8833100 Off ch=3 n=53 v=0
8833218 On ch=3 n=32 v=100
8833261 On ch=3 n=32 v=100
8833378 Off ch=3 n=32 v=0
8833431 Off ch=3 n=32 v=0
8833902 On ch=3 n=12 v=100
8833987 Off ch=3 n=12 v=0
8834137 On ch=3 n=10 v=100
8834747 Off ch=3 n=10 v=0
8834783 On ch=3 n=10 v=100
8834999 Off ch=3 n=10 v=0
8835022 On ch=3 n=10 v=100
8835294 Off ch=3 n=10 v=0
8836071 On ch=3 n=23 v=100
8836292 Off ch=3 n=23 v=0
8836299 On ch=3 n=14 v=100
8836384 On ch=3 n=12 v=100
8836384 Off ch=3 n=14 v=0
8836467 Off ch=3 n=12 v=0
8836474 On ch=3 n=13 v=100
8836559 Off ch=3 n=13 v=0
8837157 On ch=3 n=9 v=100
8837416 Off ch=3 n=9 v=0
8837419 On ch=3 n=11 v=100
8837708 Off ch=3 n=11 v=0
8837714 On ch=3 n=22 v=100
8837930 On ch=3 n=11 v=100
8837936 Off ch=3 n=22 v=0
8838622 Off ch=3 n=11 v=0
8838626 On ch=3 n=7 v=100
8838678 Off ch=3 n=7 v=0
8838719 On ch=3 n=19 v=100
8838858 Off ch=3 n=19 v=0
8838861 On ch=3 n=22 v=100
8839011 On ch=3 n=10 v=100
8839011 Off ch=3 n=22 v=0
8839389 On ch=3 n=16 v=100
8839399 Off ch=3 n=10 v=0
8839415 On ch=3 n=5 v=100
8839479 Off ch=3 n=16 v=0
8839494 On ch=3 n=41 v=100
8839582 Off ch=3 n=5 v=0
8839635 Off ch=3 n=41 v=0
8839930 On ch=3 n=43 v=100
8839930 On ch=3 n=43 v=100
8839950 On ch=3 n=27 v=100
8839953 On ch=3 n=38 v=100
8839963 On ch=3 n=55 v=100
8839963 On ch=3 n=55 v=100
8840014 Off ch=3 n=27 v=0
8840019 Off ch=3 n=43 v=0
8840019 Off ch=3 n=43 v=0
8840028 Off ch=3 n=38 v=0
8840123 Off ch=3 n=55 v=0
8840123 Off ch=3 n=55 v=0
8840415 On ch=3 n=55 v=100
8840542 On ch=3 n=6 v=100
8840547 On ch=3 n=63 v=100
8840608 On ch=3 n=43 v=100
8840734 Off ch=3 n=6 v=0
8840739 Off ch=3 n=55 v=0
8840785 Off ch=3 n=43 v=0
8840795 Off ch=3 n=63 v=0
8841066 On ch=3 n=16 v=100
8841156 Off ch=3 n=16 v=0
8841161 On ch=3 n=8 v=100
8841354 Off ch=3 n=8 v=0
8842083 On ch=3 n=11 v=100
8842612 Off ch=3 n=11 v=0
8842613 On ch=3 n=10 v=100
8842751 Off ch=3 n=10 v=0
8842772 On ch=3 n=25 v=100
8842852 Off ch=3 n=25 v=0
8842857 On ch=3 n=22 v=100
8842927 Off ch=3 n=22 v=0
8844440 On ch=3 n=5 v=100
8844502 Off ch=3 n=5 v=0
8844504 On ch=3 n=2 v=100
8845174 Off ch=3 n=2 v=0
8845175 On ch=3 n=15 v=100
8845187 On ch=3 n=19 v=100
8845265 Off ch=3 n=15 v=0
8845328 Off ch=3 n=19 v=0
8845568 On ch=3 n=8 v=100
8845740 Off ch=3 n=8 v=0
8846527 On ch=3 n=20 v=100
8846580 Off ch=3 n=20 v=0
8846582 On ch=3 n=12 v=100
8846610 On ch=3 n=27 v=100
8846646 On ch=3 n=16 v=100
8846654 Off ch=3 n=12 v=0
8846759 Off ch=3 n=16 v=0
8846760 Off ch=3 n=27 v=0
8846767 On ch=3 n=5 v=100
8848256 Off ch=3 n=5 v=0
8848456 On ch=3 n=57 v=100
8848456 On ch=3 n=57 v=100
8848480 On ch=3 n=29 v=100
8848542 On ch=3 n=25 v=100
8848542 On ch=3 n=25 v=100
8848544 On ch=3 n=18 v=100
8848627 Off ch=3 n=57 v=0
8848627 Off ch=3 n=57 v=0
8848740 Off ch=3 n=29 v=0
8848741 Off ch=3 n=18 v=0
8848776 Off ch=3 n=25 v=0
8848776 Off ch=3 n=25 v=0
8849559 On ch=3 n=7 v=100
8850376 Off ch=3 n=7 v=0
8850398 On ch=3 n=18 v=100
8850549 Off ch=3 n=18 v=0
8851079 On ch=3 n=33 v=100
8851096 On ch=3 n=37 v=100
8851165 Off ch=3 n=33 v=0
8851221 On ch=3 n=38 v=100
8851290 Off ch=3 n=37 v=0
8851308 Off ch=3 n=38 v=0
8852177 On ch=3 n=34 v=100
8852518 Off ch=3 n=34 v=0
8853078 On ch=3 n=13 v=100
8853110 On ch=3 n=6 v=100
8853133 Off ch=3 n=13 v=0
8853951 Off ch=3 n=6 v=0
8854004 On ch=3 n=16 v=100
8854085 Off ch=3 n=16 v=0
8854230 On ch=3 n=15 v=100
8854332 On ch=3 n=18 v=100
8854343 Off ch=3 n=15 v=0
8854352 On ch=3 n=5 v=100
8854427 Off ch=3 n=5 v=0
8854433 Off ch=3 n=18 v=0
8855300 On ch=3 n=28 v=100
8855355 On ch=3 n=23 v=100
8855573 On ch=3 n=22 v=100
8855574 Off ch=3 n=28 v=0
8855575 Off ch=3 n=23 v=0
8855576 On ch=3 n=35 v=100
8855576 On ch=3 n=35 v=100
8855591 On ch=3 n=9 v=100
8855771 Off ch=3 n=9 v=0
8855790 Off ch=3 n=22 v=0
8855831 Off ch=3 n=35 v=0
8855831 Off ch=3 n=35 v=0
8856123 On ch=3 n=13 v=100
8856655 Off ch=3 n=13 v=0
8856657 On ch=3 n=3 v=100
8857711 On ch=3 n=15 v=100
8857714 Off ch=3 n=3 v=0
8857926 Off ch=3 n=15 v=0
8857930 On ch=3 n=3 v=100
8857956 Off ch=3 n=3 v=0
8857982 On ch=3 n=26 v=100
8858006 On ch=3 n=23 v=100
8858135 Off ch=3 n=26 v=0
8858256 Off ch=3 n=23 v=0
8859859 On ch=3 n=26 v=100
8859886 Off ch=3 n=26 v=0
8859931 On ch=3 n=26 v=100
8859955 On ch=3 n=21 v=100
8859997 Off ch=3 n=26 v=0
8860007 Off ch=3 n=21 v=0
8860113 On ch=3 n=20 v=100
8860159 On ch=3 n=15 v=100
8860159 On ch=3 n=8 v=100
8860159 On ch=3 n=20 v=100
8860159 On ch=3 n=27 v=100
8860283 Off ch=3 n=20 v=0
8860284 Off ch=3 n=8 v=0
8860303 Off ch=3 n=15 v=0
8860328 Off ch=3 n=20 v=0
8860412 Off ch=3 n=27 v=0
8861462 On ch=3 n=9 v=100
8861579 Off ch=3 n=9 v=0
8861580 On ch=3 n=9 v=100
8861612 Off ch=3 n=9 v=0
8866004 On ch=3 n=7 v=100
8866628 On ch=3 n=17 v=100
8866629 Off ch=3 n=7 v=0
8866712 Off ch=3 n=17 v=0
8866763 On ch=3 n=12 v=100
8867107 On ch=3 n=35 v=100
8867110 Off ch=3 n=12 v=0
8867127 On ch=3 n=20 v=100
8867303 Off ch=3 n=20 v=0
8867311 Off ch=3 n=35 v=0
8868649 On ch=3 n=19 v=100
8868831 Off ch=3 n=19 v=0
8868837 On ch=3 n=9 v=100
8868906 On ch=3 n=46 v=100
8869233 On ch=3 n=38 v=100
8869239 Off ch=3 n=9 v=0
8869291 Off ch=3 n=46 v=0
8869404 Off ch=3 n=38 v=0
8869438 On ch=3 n=13 v=100
8869498 On ch=3 n=13 v=100
8869501 Off ch=3 n=13 v=0
8869880 Off ch=3 n=13 v=0
8869959 On ch=3 n=15 v=100
8870202 On ch=3 n=24 v=100
8870209 Off ch=3 n=15 v=0
8870282 Off ch=3 n=24 v=0
8870286 On ch=3 n=36 v=100
8870402 Off ch=3 n=36 v=0
8871029 On ch=3 n=7 v=100
8871160 Off ch=3 n=7 v=0
8871166 On ch=3 n=8 v=100
8871347 Off ch=3 n=8 v=0
8871376 On ch=3 n=34 v=100
8871470 On ch=3 n=10 v=100
8871498 Off ch=3 n=34 v=0
8871640 Off ch=3 n=10 v=0
8871643 On ch=3 n=18 v=100
8872015 Off ch=3 n=18 v=0
8873939 On ch=3 n=9 v=100
8874136 Off ch=3 n=9 v=0
8874569 On ch=3 n=35 v=100
8874767 On ch=3 n=17 v=100
8874830 On ch=3 n=22 v=100
8875069 Off ch=3 n=35 v=0
8875117 Off ch=3 n=17 v=0
8875119 On ch=3 n=18 v=100
8875230 Off ch=3 n=22 v=0
8875334 Off ch=3 n=18 v=0
8875482 On ch=3 n=43 v=100
8875560 On ch=3 n=45 v=100
8875596 Off ch=3 n=43 v=0
8875614 On ch=3 n=18 v=100
8875614 On ch=3 n=29 v=100
8875614 On ch=3 n=35 v=100
8875724 On ch=3 n=13 v=100
8875726 Off ch=3 n=45 v=0
8875730 Off ch=3 n=18 v=0
8875773 Off ch=3 n=29 v=0
8875916 Off ch=3 n=35 v=0
8875918 Off ch=3 n=13 v=0
8878099 On ch=3 n=25 v=100
8878143 On ch=3 n=20 v=100
8878206 On ch=3 n=32 v=100
8878555 Off ch=3 n=20 v=0
8878565 Off ch=3 n=25 v=0
8878764 Off ch=3 n=32 v=0
8878974 On ch=3 n=20 v=100
8879254 On ch=3 n=14 v=100
8879276 Off ch=3 n=20 v=0
8879455 On ch=3 n=12 v=100
8879529 Off ch=3 n=14 v=0
8879840 On ch=3 n=50 v=100
8879841 On ch=3 n=55 v=100
8879841 On ch=3 n=55 v=100
8879868 Off ch=3 n=12 v=0
8879880 On ch=3 n=54 v=100
8879880 On ch=3 n=54 v=100
8879896 On ch=3 n=13 v=100
8880008 Off ch=3 n=50 v=0
8880080 Off ch=3 n=13 v=0
8880130 Off ch=3 n=55 v=0
8880130 Off ch=3 n=55 v=0
8880199 Off ch=3 n=54 v=0
8880199 Off ch=3 n=54 v=0
8882654 On ch=3 n=10 v=100
8882795 Off ch=3 n=10 v=0
8882896 On ch=3 n=11 v=100
8883266 Off ch=3 n=11 v=0
8883302 On ch=3 n=21 v=100
8883374 On ch=3 n=18 v=100
8883503 On ch=3 n=25 v=100
8883751 Off ch=3 n=21 v=0
8883771 Off ch=3 n=18 v=0
8883844 Off ch=3 n=25 v=0
8884192 On ch=3 n=21 v=100
8884233 On ch=3 n=9 v=100
8884238 Off ch=3 n=21 v=0
8884339 On ch=3 n=23 v=100
8884339 On ch=3 n=29 v=100
8884339 Off ch=3 n=9 v=0
8884454 On ch=3 n=10 v=100
8884475 Off ch=3 n=23 v=0
8884528 Off ch=3 n=29 v=0
8884594 Off ch=3 n=10 v=0
8884596 On ch=3 n=25 v=100
8884802 Off ch=3 n=25 v=0
8884831 On ch=3 n=20 v=100
8884915 Off ch=3 n=20 v=0
8884919 On ch=3 n=13 v=100
8885043 Off ch=3 n=13 v=0
8886993 On ch=3 n=23 v=100
8887475 Off ch=3 n=23 v=0
8887533 On ch=3 n=19 v=100
8887703 Off ch=3 n=19 v=0
8887707 On ch=3 n=25 v=100
8887762 Off ch=3 n=25 v=0
8887889 On ch=3 n=26 v=100
8887904 On ch=3 n=19 v=100
8888107 Off ch=3 n=19 v=0
8888117 Off ch=3 n=26 v=0
8888157 On ch=3 n=14 v=100
8888317 Off ch=3 n=14 v=0
8888321 On ch=3 n=19 v=100
8888492 Off ch=3 n=19 v=0
8893258 On ch=3 n=16 v=100
8893466 Off ch=3 n=16 v=0
8894658 On ch=3 n=8 v=100
8895071 Off ch=3 n=8 v=0
8896037 On ch=3 n=8 v=100
8896159 On ch=3 n=33 v=100
8896268 On ch=3 n=12 v=100
8896278 Off ch=3 n=8 v=0
8896346 Off ch=3 n=33 v=0
8896514 Off ch=3 n=12 v=0
8896547 On ch=3 n=12 v=100
8896714 Off ch=3 n=12 v=0
8897064 On ch=3 n=22 v=100
8897440 Off ch=3 n=22 v=0
8897459 On ch=3 n=14 v=100
8897746 On ch=3 n=8 v=100
8897751 Off ch=3 n=14 v=0
8898324 Off ch=3 n=8 v=0
8899739 On ch=3 n=31 v=100
8899758 On ch=3 n=26 v=100
8899884 On ch=3 n=12 v=100
8899885 Off ch=3 n=31 v=0
8899887 Off ch=3 n=26 v=0
8900724 On ch=3 n=48 v=100
8900761 On ch=3 n=40 v=100
8900784 On ch=3 n=25 v=100
8900786 On ch=3 n=42 v=100
8900832 Off ch=3 n=12 v=0
8900835 On ch=3 n=37 v=100
8900835 On ch=3 n=31 v=100
8900936 Off ch=3 n=40 v=0
8900951 Off ch=3 n=48 v=0
8900951 Off ch=3 n=25 v=0
8900969 Off ch=3 n=37 v=0
8900971 Off ch=3 n=42 v=0
8900997 Off ch=3 n=31 v=0
8902393 On ch=3 n=7 v=100
8902459 Off ch=3 n=7 v=0
8902720 On ch=3 n=23 v=100
8902767 On ch=3 n=8 v=100
8902785 Off ch=3 n=23 v=0
8902814 Off ch=3 n=8 v=0
8903002 On ch=3 n=9 v=100
8903067 Off ch=3 n=9 v=0
8903269 On ch=3 n=28 v=100
8903303 On ch=3 n=7 v=100
8903330 Off ch=3 n=28 v=0
8903331 On ch=3 n=24 v=100
8903369 Off ch=3 n=7 v=0
8903420 Off ch=3 n=24 v=0
8904096 On ch=3 n=24 v=100
8904156 Off ch=3 n=24 v=0
8905767 On ch=3 n=13 v=100
8906007 On ch=3 n=6 v=100
8906054 Off ch=3 n=13 v=0
8906758 On ch=3 n=9 v=100
8906762 Off ch=3 n=6 v=0
8906803 Off ch=3 n=9 v=0
8907468 On ch=3 n=49 v=100
8907497 On ch=3 n=51 v=100
8907549 Off ch=3 n=49 v=0
8907605 Off ch=3 n=51 v=0
8908498 On ch=3 n=22 v=100
8908612 Off ch=3 n=22 v=0
8908627 On ch=3 n=27 v=100
8908743 On ch=3 n=25 v=100
8908823 On ch=3 n=24 v=100
8908823 On ch=3 n=24 v=100
8908835 On ch=3 n=22 v=100
8908837 On ch=3 n=14 v=100
8909181 Off ch=3 n=27 v=0
8909297 Off ch=3 n=14 v=0
8909331 Off ch=3 n=25 v=0
8909368 Off ch=3 n=22 v=0
8909434 On ch=3 n=26 v=100
8909434 On ch=3 n=26 v=100
8909478 On ch=3 n=16 v=100
8909491 Off ch=3 n=24 v=0
8909491 Off ch=3 n=24 v=0
8909534 Off ch=3 n=26 v=0
8909534 Off ch=3 n=26 v=0
8909584 On ch=3 n=18 v=100
8909584 On ch=3 n=48 v=100
8909587 Off ch=3 n=16 v=0
8909638 On ch=3 n=12 v=100
8909638 Off ch=3 n=18 v=0
8909737 Off ch=3 n=48 v=0
8910099 Off ch=3 n=12 v=0
8910736 On ch=3 n=5 v=100
8910989 Off ch=3 n=5 v=0
8911035 On ch=3 n=36 v=100
8911188 Off ch=3 n=36 v=0
8911198 On ch=3 n=36 v=100
8911273 On ch=3 n=25 v=100
8911307 On ch=3 n=12 v=100
8911317 Off ch=3 n=36 v=0
8911472 Off ch=3 n=25 v=0
8911472 Off ch=3 n=12 v=0
8911626 On ch=3 n=50 v=100
8911756 Off ch=3 n=50 v=0
8911771 On ch=3 n=28 v=100
8911935 Off ch=3 n=28 v=0
8912541 On ch=3 n=9 v=100
8912553 Off ch=3 n=9 v=0
8912622 On ch=3 n=9 v=100
8913177 Off ch=3 n=9 v=0
8913198 On ch=3 n=40 v=100
8913232 Off ch=3 n=40 v=0
8913271 On ch=3 n=40 v=100
8913287 On ch=3 n=29 v=100
8913312 Off ch=3 n=40 v=0
8913651 On ch=3 n=22 v=100
8913660 Off ch=3 n=29 v=0
8913845 Off ch=3 n=22 v=0
8913995 On ch=3 n=34 v=100
8914020 On ch=3 n=23 v=100
8914106 Off ch=3 n=34 v=0
8914130 Off ch=3 n=23 v=0
8915817 On ch=3 n=4 v=100
8916968 On ch=3 n=38 v=100
8917018 Off ch=3 n=4 v=0
8917019 On ch=3 n=24 v=100
8917042 On ch=3 n=16 v=100
8917067 Off ch=3 n=38 v=0
8917073 Off ch=3 n=24 v=0
8917465 Off ch=3 n=16 v=0
8917631 On ch=3 n=34 v=100
8917731 Off ch=3 n=34 v=0
8917736 On ch=3 n=15 v=100
8917952 On ch=3 n=22 v=100
8917969 Off ch=3 n=15 v=0
8918229 On ch=3 n=51 v=100
8918312 Off ch=3 n=22 v=0
8918408 Off ch=3 n=51 v=0
8918577 On ch=3 n=12 v=100
8919223 Off ch=3 n=12 v=0
8919335 On ch=3 n=17 v=100
8919459 Off ch=3 n=17 v=0
8920796 On ch=3 n=9 v=100
8921562 Off ch=3 n=9 v=0
8921867 On ch=3 n=6 v=100
8922372 On ch=3 n=14 v=100
8922445 Off ch=3 n=6 v=0
8922454 On ch=3 n=24 v=100
8922488 Off ch=3 n=14 v=0
8922545 Off ch=3 n=24 v=0
8923347 On ch=3 n=44 v=100
8923403 Off ch=3 n=44 v=0
8923492 On ch=3 n=38 v=100
8923585 On ch=3 n=34 v=100
8923692 Off ch=3 n=38 v=0
8923869 On ch=3 n=18 v=100
8923921 On ch=3 n=10 v=100
8924234 On ch=3 n=10 v=100
8924238 Off ch=3 n=18 v=0
8924246 Off ch=3 n=10 v=0
8924251 Off ch=3 n=34 v=0
8924648 Off ch=3 n=10 v=0
8924650 On ch=3 n=11 v=100
8925480 Off ch=3 n=11 v=0
8925484 On ch=3 n=22 v=100
8925576 Off ch=3 n=22 v=0
8925595 On ch=3 n=13 v=100
8925681 Off ch=3 n=13 v=0
8925699 On ch=3 n=14 v=100
8926148 On ch=3 n=21 v=100
8926148 Off ch=3 n=14 v=0
8926222 Off ch=3 n=21 v=0
8926257 On ch=3 n=16 v=100
8926331 Off ch=3 n=16 v=0
8926339 On ch=3 n=35 v=100
8926566 Off ch=3 n=35 v=0
8926624 On ch=3 n=14 v=100
8926816 On ch=3 n=42 v=100
8926816 On ch=3 n=42 v=100
8926825 Off ch=3 n=14 v=0
8926827 On ch=3 n=11 v=100
8927018 Off ch=3 n=11 v=0
8927032 On ch=3 n=8 v=100
8927270 Off ch=3 n=42 v=0
8927270 Off ch=3 n=42 v=0
8927273 On ch=3 n=14 v=100
8927273 Off ch=3 n=8 v=0
8927361 Off ch=3 n=14 v=0
8927362 On ch=3 n=10 v=100
8928580 Off ch=3 n=10 v=0
8928582 On ch=3 n=14 v=100
8928641 On ch=3 n=15 v=100
8928655 Off ch=3 n=14 v=0
8928792 On ch=3 n=12 v=100
8928794 Off ch=3 n=15 v=0
8928836 Off ch=3 n=12 v=0
8928841 On ch=3 n=8 v=100
8929206 Off ch=3 n=8 v=0
8929967 On ch=3 n=35 v=100
8930110 Off ch=3 n=35 v=0
8930566 On ch=3 n=22 v=100
8930566 On ch=3 n=22 v=100
8930596 On ch=3 n=18 v=100
8930596 On ch=3 n=18 v=100
8930638 On ch=3 n=22 v=100
8930638 On ch=3 n=8 v=100
8930638 On ch=3 n=22 v=100
8930768 Off ch=3 n=22 v=0
8930768 Off ch=3 n=8 v=0
8930768 Off ch=3 n=22 v=0
8930795 Off ch=3 n=18 v=0
8930795 Off ch=3 n=18 v=0
8930844 Off ch=3 n=22 v=0
8930844 Off ch=3 n=22 v=0
8931038 On ch=3 n=12 v=100
8931243 Off ch=3 n=12 v=0
8931550 On ch=3 n=11 v=100
8932323 Off ch=3 n=11 v=0
8932808 On ch=3 n=21 v=100
8932901 On ch=3 n=21 v=100
8933236 Off ch=3 n=21 v=0
8933280 Off ch=3 n=21 v=0
8933295 On ch=3 n=12 v=100
8933707 Off ch=3 n=12 v=0
8933716 On ch=3 n=27 v=100
8933716 On ch=3 n=36 v=100
8933803 Off ch=3 n=27 v=0
8933823 Off ch=3 n=36 v=0
8933850 On ch=3 n=10 v=100
8934469 Off ch=3 n=10 v=0
8934478 On ch=3 n=6 v=100
8934667 Off ch=3 n=6 v=0
8934754 On ch=3 n=3 v=100
8937120 Off ch=3 n=3 v=0
8938176 On ch=3 n=35 v=100
8938204 On ch=3 n=23 v=100
8938280 On ch=3 n=16 v=100
8938281 Off ch=3 n=35 v=0
8938281 Off ch=3 n=23 v=0
8938598 Off ch=3 n=16 v=0
8938725 On ch=3 n=5 v=100
8939161 Off ch=3 n=5 v=0
8939712 On ch=3 n=13 v=100
8940058 Off ch=3 n=13 v=0
8940560 On ch=3 n=30 v=100
8940634 On ch=3 n=44 v=100
8940699 Off ch=3 n=30 v=0
8940713 Off ch=3 n=44 v=0
8941246 On ch=3 n=16 v=100
8941281 On ch=3 n=5 v=100
8941285 Off ch=3 n=16 v=0
8941535 On ch=3 n=17 v=100
8941535 On ch=3 n=8 v=100
8941537 Off ch=3 n=5 v=0
8941791 Off ch=3 n=8 v=0
8941845 Off ch=3 n=17 v=0
8942262 On ch=3 n=12 v=100
8942303 Off ch=3 n=12 v=0
8942308 On ch=3 n=19 v=100
8942338 On ch=3 n=22 v=100
8942354 Off ch=3 n=19 v=0
8942355 On ch=3 n=5 v=100
8942493 Off ch=3 n=22 v=0
8942744 Off ch=3 n=5 v=0
8942746 On ch=3 n=10 v=100
8943525 Off ch=3 n=10 v=0
8943542 On ch=3 n=16 v=100
8943587 Off ch=3 n=16 v=0
8944422 On ch=3 n=34 v=100
8944563 Off ch=3 n=34 v=0
8944565 On ch=3 n=14 v=100
8944920 On ch=3 n=29 v=100
8945042 Off ch=3 n=14 v=0
8945057 Off ch=3 n=29 v=0
8945058 On ch=3 n=22 v=100
8945093 Off ch=3 n=22 v=0
8945196 On ch=3 n=9 v=100
8945299 On ch=3 n=21 v=100
8945311 Off ch=3 n=9 v=0
8945315 On ch=3 n=3 v=100
8945373 Off ch=3 n=3 v=0
8945374 Off ch=3 n=21 v=0
8945470 On ch=3 n=10 v=100
8945568 Off ch=3 n=10 v=0
8945571 On ch=3 n=18 v=100
8945673 On ch=3 n=12 v=100
8945675 Off ch=3 n=18 v=0
8945908 Off ch=3 n=12 v=0
8950313 On ch=3 n=6 v=100
8950674 Off ch=3 n=6 v=0
8951321 On ch=3 n=54 v=100
8951359 On ch=3 n=9 v=100
8951675 Off ch=3 n=54 v=0
8951840 Off ch=3 n=9 v=0
8952858 On ch=3 n=39 v=100
8952883 On ch=3 n=24 v=100
8952894 On ch=3 n=38 v=100
8952902 On ch=3 n=27 v=100
8953020 Off ch=3 n=39 v=0
8953025 On ch=3 n=15 v=100
8953036 Off ch=3 n=27 v=0
8953039 Off ch=3 n=24 v=0
8953079 Off ch=3 n=38 v=0
8953108 On ch=3 n=23 v=100
8953116 On ch=3 n=12 v=100
8953126 Off ch=3 n=15 v=0
8953167 Off ch=3 n=23 v=0
8953167 Off ch=3 n=12 v=0
8954039 On ch=3 n=10 v=100
8954549 Off ch=3 n=10 v=0
8954738 On ch=3 n=37 v=100
8954925 Off ch=3 n=37 v=0
8955105 On ch=3 n=30 v=100
8955214 Off ch=3 n=30 v=0
8955220 On ch=3 n=27 v=100
8955327 Off ch=3 n=27 v=0
8955329 On ch=3 n=13 v=100
8955438 On ch=3 n=10 v=100
8955439 Off ch=3 n=13 v=0
8955634 Off ch=3 n=10 v=0
8955712 On ch=3 n=10 v=100
8956218 Off ch=3 n=10 v=0
8956410 On ch=3 n=32 v=100
8956646 On ch=3 n=40 v=100
8956661 Off ch=3 n=32 v=0
8956716 Off ch=3 n=40 v=0
8957072 On ch=3 n=18 v=100
8957107 On ch=3 n=16 v=100
8957329 Off ch=3 n=18 v=0
8957618 Off ch=3 n=16 v=0
8958263 On ch=3 n=32 v=100
8958610 Off ch=3 n=32 v=0
8958643 On ch=3 n=33 v=100
8958809 Off ch=3 n=33 v=0
8958862 On ch=3 n=30 v=100
8958971 Off ch=3 n=30 v=0
8959916 On ch=3 n=52 v=100
8959987 On ch=3 n=32 v=100
8960002 On ch=3 n=18 v=100
8960002 On ch=3 n=21 v=100
8960042 Off ch=3 n=52 v=0
8960042 Off ch=3 n=32 v=0
8960043 Off ch=3 n=18 v=0
8960044 On ch=3 n=24 v=100
8960049 Off ch=3 n=21 v=0
8960065 On ch=3 n=41 v=100
8960213 Off ch=3 n=24 v=0
8960227 On ch=3 n=31 v=100
8960375 Off ch=3 n=41 v=0
8960489 Off ch=3 n=31 v=0
8961416 On ch=3 n=9 v=100
8962026 On ch=3 n=9 v=100
8962027 Off ch=3 n=9 v=0
8962301 Off ch=3 n=9 v=0
8962386 On ch=3 n=30 v=100
8962511 Off ch=3 n=30 v=0
8962524 On ch=3 n=13 v=100
8962584 Off ch=3 n=13 v=0
8964895 On ch=3 n=28 v=100
8964948 Off ch=3 n=28 v=0
8965285 On ch=3 n=40 v=100
8965562 Off ch=3 n=40 v=0
8966631 On ch=3 n=8 v=100
8966853 Off ch=3 n=8 v=0
8967796 On ch=3 n=27 v=100
8967986 Off ch=3 n=27 v=0
8968243 On ch=3 n=11 v=100
8968539 Off ch=3 n=11 v=0
8970637 On ch=3 n=27 v=100
8970679 On ch=3 n=29 v=100
8970812 On ch=3 n=24 v=100
8970941 Off ch=3 n=27 v=0
8970941 Off ch=3 n=29 v=0
8970960 Off ch=3 n=24 v=0
8971005 On ch=3 n=7 v=100
8971609 On ch=3 n=5 v=100
8971611 Off ch=3 n=7 v=0
8971712 On ch=3 n=10 v=100
8971716 Off ch=3 n=5 v=0
8971862 On ch=3 n=8 v=100
8971864 Off ch=3 n=10 v=0
8972393 Off ch=3 n=8 v=0
8973103 On ch=3 n=27 v=100
8973378 Off ch=3 n=27 v=0
8973855 On ch=3 n=13 v=100
8973894 On ch=3 n=6 v=100
8973894 Off ch=3 n=13 v=0
8974280 Off ch=3 n=6 v=0
8974581 On ch=3 n=26 v=100
8974624 On ch=3 n=25 v=100
8974703 Off ch=3 n=26 v=0
8974709 On ch=3 n=15 v=100
8974718 Off ch=3 n=25 v=0
8975406 Off ch=3 n=15 v=0
8976932 On ch=3 n=7 v=100
8977466 On ch=3 n=10 v=100
8977479 Off ch=3 n=7 v=0
8977954 Off ch=3 n=10 v=0
8978030 On ch=3 n=31 v=100
8978078 Off ch=3 n=31 v=0
8978106 On ch=3 n=7 v=100
8978548 Off ch=3 n=7 v=0
8978556 On ch=3 n=30 v=100
8978656 Off ch=3 n=30 v=0
8978730 On ch=3 n=45 v=100
8978774 On ch=3 n=33 v=100
8978862 Off ch=3 n=45 v=0
8978883 On ch=3 n=30 v=100
8979049 Off ch=3 n=33 v=0
8979490 Off ch=3 n=30 v=0
8980973 On ch=3 n=20 v=100
8981112 Off ch=3 n=20 v=0
8981115 On ch=3 n=9 v=100
8981839 On ch=3 n=9 v=100
8981845 Off ch=3 n=9 v=0
8982654 Off ch=3 n=9 v=0
8982655 On ch=3 n=13 v=100
8982655 On ch=3 n=20 v=100
8982779 On ch=3 n=33 v=100
8982785 Off ch=3 n=13 v=0
8982804 Off ch=3 n=20 v=0
8982875 Off ch=3 n=33 v=0
8982922 On ch=3 n=17 v=100
8982938 On ch=3 n=16 v=100
8983060 Off ch=3 n=17 v=0
8983099 On ch=3 n=35 v=100
8983238 Off ch=3 n=16 v=0
8983264 Off ch=3 n=35 v=0
8983580 On ch=3 n=18 v=100
8983622 Off ch=3 n=18 v=0
8984549 On ch=3 n=15 v=100
8984575 On ch=3 n=14 v=100
8984588 On ch=3 n=13 v=100
8984695 Off ch=3 n=15 v=0
8984712 Off ch=3 n=14 v=0
8984723 On ch=3 n=16 v=100
8984810 Off ch=3 n=13 v=0
8984887 Off ch=3 n=16 v=0
8984936 On ch=3 n=49 v=100
8985250 Off ch=3 n=49 v=0
8986289 On ch=3 n=23 v=100
8986352 On ch=3 n=9 v=100
8986621 Off ch=3 n=23 v=0
8986662 Off ch=3 n=9 v=0
8987313 On ch=3 n=25 v=100
8987382 Off ch=3 n=25 v=0
8987396 On ch=3 n=8 v=100
8987405 On ch=3 n=33 v=100
8987778 Off ch=3 n=8 v=0
8987841 Off ch=3 n=33 v=0
8987844 On ch=3 n=5 v=100
8988136 On ch=3 n=43 v=100
8988321 Off ch=3 n=5 v=0
8988330 On ch=3 n=6 v=100
8988551 Off ch=3 n=43 v=0
8989539 Off ch=3 n=6 v=0
8989540 On ch=3 n=11 v=100
8989747 Off ch=3 n=11 v=0
8989801 On ch=3 n=29 v=100
8990003 On ch=3 n=17 v=100
8990041 Off ch=3 n=29 v=0
8990250 Off ch=3 n=17 v=0
8990445 On ch=3 n=35 v=100
8990550 Off ch=3 n=35 v=0
8990645 On ch=3 n=35 v=100
8990908 Off ch=3 n=35 v=0
8991259 On ch=3 n=36 v=100
8991359 Off ch=3 n=36 v=0
8991655 On ch=3 n=12 v=100
8991960 Off ch=3 n=12 v=0
8991963 On ch=3 n=10 v=100
8992304 Off ch=3 n=10 v=0
8992316 On ch=3 n=13 v=100
8992595 Off ch=3 n=13 v=0
8992598 On ch=3 n=7 v=100
8992639 Off ch=3 n=7 v=0
8992640 On ch=3 n=9 v=100
8993269 Off ch=3 n=9 v=0
8993277 On ch=3 n=34 v=100
8993385 Off ch=3 n=34 v=0
8994035 On ch=3 n=14 v=100
8994358 Off ch=3 n=14 v=0
8994768 On ch=3 n=29 v=100
8994905 Off ch=3 n=29 v=0
8995135 On ch=3 n=21 v=100
8995669 Off ch=3 n=21 v=0
8995793 On ch=3 n=17 v=100
8995833 On ch=3 n=23 v=100
8995835 Off ch=3 n=17 v=0
8995840 On ch=3 n=33 v=100
8995857 On ch=3 n=20 v=100
8995906 Off ch=3 n=23 v=0
8995917 Off ch=3 n=33 v=0
8996000 Off ch=3 n=20 v=0
8996276 On ch=3 n=19 v=100
8996502 Off ch=3 n=19 v=0
8996511 On ch=3 n=2 v=100
8996635 Off ch=3 n=2 v=0
8996690 On ch=3 n=2 v=100
8996777 Off ch=3 n=2 v=0
8997451 On ch=3 n=32 v=100
8997755 Off ch=3 n=32 v=0
8997803 On ch=3 n=27 v=100
8997853 Off ch=3 n=27 v=0
8997922 On ch=3 n=45 v=100
8998024 Off ch=3 n=45 v=0
8998030 On ch=3 n=16 v=100
8998075 Off ch=3 n=16 v=0
8998082 On ch=3 n=6 v=100
8998180 Off ch=3 n=6 v=0
8998235 On ch=3 n=20 v=100
8998301 Off ch=3 n=20 v=0
8998322 On ch=3 n=4 v=100
8998487 Off ch=3 n=4 v=0
8998495 On ch=3 n=24 v=100
8998499 On ch=3 n=4 v=100
8998657 On ch=3 n=20 v=100
8998657 Off ch=3 n=4 v=0
8998721 Off ch=3 n=24 v=0
8998934 Off ch=3 n=20 v=0
8999044 On ch=3 n=7 v=100
8999293 Off ch=3 n=7 v=0
8999832 On ch=3 n=44 v=100
9000004 Off ch=3 n=44 v=0
9000559 On ch=3 n=11 v=100
9001106 Off ch=3 n=11 v=0
9002262 On ch=3 n=17 v=100
9002488 On ch=3 n=17 v=100
9002840 On ch=3 n=26 v=100
9002840 On ch=3 n=26 v=100
9002937 Off ch=3 n=17 v=0
9002959 On ch=3 n=16 v=100
9003001 On ch=3 n=27 v=100
9003111 Off ch=3 n=17 v=0
9003341 Off ch=3 n=16 v=0
9003364 Off ch=3 n=26 v=0
9003364 Off ch=3 n=26 v=0
9003447 Off ch=3 n=27 v=0
9005322 On ch=3 n=39 v=100
9005426 Off ch=3 n=39 v=0
9005640 On ch=3 n=19 v=100
9005640 On ch=3 n=13 v=100
9006254 Off ch=3 n=13 v=0
9006346 Off ch=3 n=19 v=0
9006606 On ch=3 n=38 v=100
9006800 Off ch=3 n=38 v=0
9008780 On ch=3 n=32 v=100
9008862 On ch=3 n=28 v=100
9008961 On ch=3 n=20 v=100
9009372 Off ch=3 n=32 v=0
9009372 Off ch=3 n=28 v=0
9009372 Off ch=3 n=20 v=0
9009375 On ch=3 n=26 v=100
9009456 Off ch=3 n=26 v=0
9009526 On ch=3 n=34 v=100
9009676 Off ch=3 n=34 v=0
9009786 On ch=3 n=11 v=100
9009863 Off ch=3 n=11 v=0
9009870 On ch=3 n=17 v=100
9010060 On ch=3 n=8 v=100
9010066 Off ch=3 n=17 v=0
9010443 Off ch=3 n=8 v=0
9011007 On ch=3 n=11 v=100
9011086 On ch=3 n=41 v=100
9011158 On ch=3 n=22 v=100
9011158 Off ch=3 n=11 v=0
9011252 On ch=3 n=21 v=100
9011275 Off ch=3 n=41 v=0
9011282 On ch=3 n=10 v=100
9011297 Off ch=3 n=22 v=0
9011429 On ch=3 n=21 v=100
9011524 Off ch=3 n=21 v=0
9011618 Off ch=3 n=10 v=0
9011643 Off ch=3 n=21 v=0
9012988 On ch=3 n=22 v=100
9013129 Off ch=3 n=22 v=0
9013157 On ch=3 n=12 v=100
9013384 Off ch=3 n=12 v=0
9013674 On ch=3 n=23 v=100
9013733 On ch=3 n=11 v=100
9013733 On ch=3 n=16 v=100
9013840 Off ch=3 n=23 v=0
9013840 Off ch=3 n=11 v=0
9013857 Off ch=3 n=16 v=0
9014068 On ch=3 n=12 v=100
9014296 On ch=3 n=47 v=100
9014300 On ch=3 n=45 v=100
9014334 Off ch=3 n=12 v=0
9014456 Off ch=3 n=45 v=0
9014555 Off ch=3 n=47 v=0
9014897 On ch=3 n=15 v=100
9014955 Off ch=3 n=15 v=0
9014961 On ch=3 n=10 v=100
9015712 On ch=3 n=15 v=100
9015713 Off ch=3 n=10 v=0
9015795 On ch=3 n=20 v=100
9015796 Off ch=3 n=15 v=0
9015890 Off ch=3 n=20 v=0
9016994 On ch=3 n=18 v=100
9017177 On ch=3 n=12 v=100
9017529 Off ch=3 n=18 v=0
9017558 Off ch=3 n=12 v=0
9017618 On ch=3 n=22 v=100
9017624 On ch=3 n=19 v=100
9017943 Off ch=3 n=19 v=0
9017979 Off ch=3 n=22 v=0
9018205 On ch=3 n=4 v=100
9018577 Off ch=3 n=4 v=0
9021229 On ch=3 n=35 v=100
9021382 Off ch=3 n=35 v=0
9021387 On ch=3 n=9 v=100
9021623 Off ch=3 n=9 v=0
9021629 On ch=3 n=8 v=100
9021802 Off ch=3 n=8 v=0
9023593 On ch=3 n=10 v=100
9023703 Off ch=3 n=10 v=0
9023890 On ch=3 n=30 v=100
9024009 Off ch=3 n=30 v=0
9025702 On ch=3 n=13 v=100
9026422 Off ch=3 n=13 v=0
9026437 On ch=3 n=13 v=100
9026437 On ch=3 n=17 v=100
9026746 Off ch=3 n=13 v=0
9026749 On ch=3 n=30 v=100
9026789 Off ch=3 n=17 v=0
9026997 On ch=3 n=43 v=100
9027005 Off ch=3 n=30 v=0
9027006 Off ch=3 n=43 v=0
9027115 On ch=3 n=43 v=100
9027305 Off ch=3 n=43 v=0
9027346 On ch=3 n=11 v=100
9027730 Off ch=3 n=11 v=0
9027995 On ch=3 n=27 v=100
9028192 On ch=3 n=12 v=100
9028194 Off ch=3 n=27 v=0
9028489 Off ch=3 n=12 v=0
9028543 On ch=3 n=10 v=100
9028722 Off ch=3 n=10 v=0
9029390 On ch=3 n=16 v=100
9029958 On ch=3 n=21 v=100
9029995 Off ch=3 n=16 v=0
9030112 Off ch=3 n=21 v=0
9030288 On ch=3 n=36 v=100
9030288 On ch=3 n=5 v=100
9030441 Off ch=3 n=5 v=0
9030443 On ch=3 n=4 v=100
9030567 Off ch=3 n=36 v=0
9030704 Off ch=3 n=4 v=0
9030769 On ch=3 n=30 v=100
9030795 Off ch=3 n=30 v=0
9030824 On ch=3 n=30 v=100
9030900 Off ch=3 n=30 v=0
9031336 On ch=3 n=13 v=100
9031522 Off ch=3 n=13 v=0
9031538 On ch=3 n=19 v=100
9031708 Off ch=3 n=19 v=0
9031721 On ch=3 n=15 v=100
9031886 On ch=3 n=18 v=100
9031888 Off ch=3 n=15 v=0
9031963 On ch=3 n=48 v=100
9031997 Off ch=3 n=18 v=0
9032094 On ch=3 n=18 v=100
9032101 Off ch=3 n=48 v=0
9032183 Off ch=3 n=18 v=0
9032773 On ch=3 n=8 v=100
9033309 Off ch=3 n=8 v=0
9033428 On ch=3 n=18 v=100
9033428 On ch=3 n=28 v=100
9033484 On ch=3 n=32 v=100
9033765 Off ch=3 n=18 v=0
9033843 Off ch=3 n=28 v=0
9033866 On ch=3 n=14 v=100
9033982 Off ch=3 n=32 v=0
9033982 Off ch=3 n=14 v=0
9034014 On ch=3 n=14 v=100
9034560 On ch=3 n=0 v=100
9034563 Off ch=3 n=14 v=0
9037189 On ch=3 n=30 v=100
9037300 On ch=3 n=10 v=100
9037300 Off ch=3 n=0 v=0
9037500 Off ch=3 n=10 v=0
9037502 Off ch=3 n=30 v=0
9039166 On ch=3 n=17 v=100
9039270 Off ch=3 n=17 v=0
9040607 On ch=3 n=17 v=100
9040710 Off ch=3 n=17 v=0
9042077 On ch=3 n=25 v=100
9042119 On ch=3 n=11 v=100
9042139 Off ch=3 n=25 v=0
9042578 Off ch=3 n=11 v=0
9042581 On ch=3 n=7 v=100
9042989 On ch=3 n=33 v=100
9043064 Off ch=3 n=7 v=0
9043161 Off ch=3 n=33 v=0
9043402 On ch=3 n=19 v=100
9043469 Off ch=3 n=19 v=0
9043942 On ch=3 n=27 v=100
9044255 Off ch=3 n=27 v=0
9044358 On ch=3 n=15 v=100
9044460 Off ch=3 n=15 v=0
9044745 On ch=3 n=22 v=100
9044810 Off ch=3 n=22 v=0
9045286 On ch=3 n=37 v=100
9045324 Off ch=3 n=37 v=0
9045696 On ch=3 n=9 v=100
9045887 Off ch=3 n=9 v=0
9046904 On ch=3 n=33 v=100
9047061 Off ch=3 n=33 v=0
9047181 On ch=3 n=24 v=100
9047544 Off ch=3 n=24 v=0
9047828 On ch=3 n=5 v=100
9047990 Off ch=3 n=5 v=0
9047995 On ch=3 n=10 v=100
9048239 Off ch=3 n=10 v=0
9048289 On ch=3 n=29 v=100
9048363 On ch=3 n=22 v=100
9048565 Off ch=3 n=29 v=0
9048565 Off ch=3 n=22 v=0
9048603 On ch=3 n=29 v=100
9048603 On ch=3 n=22 v=100
9048603 On ch=3 n=33 v=100
9048603 On ch=3 n=26 v=100
9048638 On ch=3 n=43 v=100
9048778 Off ch=3 n=29 v=0
9048791 Off ch=3 n=22 v=0
9048859 Off ch=3 n=26 v=0
9048975 Off ch=3 n=33 v=0
9049046 On ch=3 n=40 v=100
9049121 On ch=3 n=34 v=100
9049159 Off ch=3 n=43 v=0
9049330 Off ch=3 n=40 v=0
9049364 Off ch=3 n=34 v=0
9057811 On ch=3 n=35 v=100
9057862 On ch=3 n=27 v=100
9057862 On ch=3 n=27 v=100
9057876 On ch=3 n=22 v=100
9058112 Off ch=3 n=22 v=0
9058115 Off ch=3 n=35 v=0
9058128 Off ch=3 n=27 v=0
9058128 Off ch=3 n=27 v=0
9060259 On ch=3 n=11 v=100
9060263 On ch=3 n=41 v=100
9060263 On ch=3 n=50 v=100
9060308 On ch=3 n=38 v=100
9060308 On ch=3 n=38 v=100
9060351 On ch=3 n=10 v=100
9060356 Off ch=3 n=11 v=0
9060494 Off ch=3 n=41 v=0
9060538 Off ch=3 n=10 v=0
9060543 Off ch=3 n=50 v=0
9060551 Off ch=3 n=38 v=0
9060551 Off ch=3 n=38 v=0
9061354 On ch=3 n=28 v=100
9061439 Off ch=3 n=28 v=0
9061557 On ch=3 n=10 v=100
9062239 Off ch=3 n=10 v=0
9063002 On ch=3 n=41 v=100
9063099 On ch=3 n=22 v=100
9063143 Off ch=3 n=41 v=0
9063263 On ch=3 n=14 v=100
9063304 On ch=3 n=16 v=100
9063685 Off ch=3 n=14 v=0
9063690 Off ch=3 n=22 v=0
9063756 On ch=3 n=21 v=100
9063764 On ch=3 n=33 v=100
9063770 Off ch=3 n=16 v=0
9063995 On ch=3 n=9 v=100
9064000 Off ch=3 n=21 v=0
9064049 Off ch=3 n=33 v=0
9064181 Off ch=3 n=9 v=0
9064201 On ch=3 n=4 v=100
9064262 Off ch=3 n=4 v=0
9064263 On ch=3 n=12 v=100
9064342 Off ch=3 n=12 v=0
9065404 On ch=3 n=33 v=100
9065422 On ch=3 n=28 v=100
9065479 Off ch=3 n=28 v=0
9065481 Off ch=3 n=33 v=0
9065604 On ch=3 n=32 v=100
9065825 Off ch=3 n=32 v=0
9066008 On ch=3 n=23 v=100
9066105 Off ch=3 n=23 v=0
9066287 On ch=3 n=10 v=100
9066751 Off ch=3 n=10 v=0
9066989 On ch=3 n=37 v=100
9067103 On ch=3 n=22 v=100
9067113 Off ch=3 n=37 v=0
9067145 On ch=3 n=15 v=100
9067255 Off ch=3 n=15 v=0
9067263 Off ch=3 n=22 v=0
9067991 On ch=3 n=28 v=100
9068007 On ch=3 n=31 v=100
9068128 Off ch=3 n=28 v=0
9068135 Off ch=3 n=31 v=0
9068151 On ch=3 n=20 v=100
9068282 Off ch=3 n=20 v=0
9068837 On ch=3 n=28 v=100
9068869 Off ch=3 n=28 v=0
9068901 On ch=3 n=28 v=100
9069288 Off ch=3 n=28 v=0
9069447 On ch=3 n=17 v=100
9069485 Off ch=3 n=17 v=0
9069503 On ch=3 n=15 v=100
9069607 Off ch=3 n=15 v=0
9069609 On ch=3 n=22 v=100
9069805 Off ch=3 n=22 v=0
9069836 On ch=3 n=35 v=100
9069837 On ch=3 n=18 v=100
9069838 On ch=3 n=28 v=100
9069853 On ch=3 n=36 v=100
9069934 Off ch=3 n=18 v=0
9069946 Off ch=3 n=28 v=0
9069951 On ch=3 n=23 v=100
9069974 Off ch=3 n=35 v=0
9070010 Off ch=3 n=36 v=0
9070116 Off ch=3 n=23 v=0
9071267 On ch=3 n=10 v=100
9072125 Off ch=3 n=10 v=0
9073549 On ch=3 n=12 v=100
9074225 Off ch=3 n=12 v=0
9074740 On ch=3 n=31 v=100
9074839 On ch=3 n=31 v=100
9074936 Off ch=3 n=31 v=0
9075129 Off ch=3 n=31 v=0
9075131 On ch=3 n=7 v=100
9075351 On ch=3 n=19 v=100
9075369 Off ch=3 n=7 v=0
9075449 Off ch=3 n=19 v=0
9075527 On ch=3 n=19 v=100
9075659 Off ch=3 n=19 v=0
9075820 On ch=3 n=25 v=100
9075906 On ch=3 n=10 v=100
9075919 Off ch=3 n=25 v=0
9076335 Off ch=3 n=10 v=0
9076339 On ch=3 n=15 v=100
9076522 Off ch=3 n=15 v=0
9077219 On ch=3 n=20 v=100
9077584 On ch=3 n=10 v=100
9077585 Off ch=3 n=20 v=0
9078616 On ch=3 n=25 v=100
9078636 Off ch=3 n=10 v=0
9078875 Off ch=3 n=25 v=0
9078876 On ch=3 n=22 v=100
9079114 On ch=3 n=9 v=100
9079233 On ch=3 n=15 v=100
9079377 On ch=3 n=39 v=100
9079434 Off ch=3 n=22 v=0
9079443 Off ch=3 n=9 v=0
9079444 On ch=3 n=13 v=100
9079474 Off ch=3 n=15 v=0
9079494 Off ch=3 n=39 v=0
9079767 Off ch=3 n=13 v=0
9081140 On ch=3 n=4 v=100
9081140 On ch=3 n=18 v=100
9081245 On ch=3 n=25 v=100
9081383 Off ch=3 n=4 v=0
9081397 On ch=3 n=21 v=100
9081475 Off ch=3 n=18 v=0
9081551 Off ch=3 n=25 v=0
9081612 Off ch=3 n=21 v=0
9081685 On ch=3 n=12 v=100
9082218 Off ch=3 n=12 v=0
9082304 On ch=3 n=23 v=100
9082453 On ch=3 n=9 v=100
9082473 Off ch=3 n=23 v=0
9082545 Off ch=3 n=9 v=0
9083738 On ch=3 n=18 v=100
9083837 On ch=3 n=13 v=100
9083852 Off ch=3 n=18 v=0
9083853 On ch=3 n=21 v=100
9083971 Off ch=3 n=13 v=0
9083980 On ch=3 n=9 v=100
9084086 On ch=3 n=27 v=100
9084128 On ch=3 n=18 v=100
9084218 Off ch=3 n=21 v=0
9084218 Off ch=3 n=9 v=0
9084219 Off ch=3 n=27 v=0
9084219 Off ch=3 n=18 v=0
9084252 On ch=3 n=27 v=100
9084252 On ch=3 n=18 v=100
9084252 On ch=3 n=24 v=100
9084496 Off ch=3 n=27 v=0
9084562 Off ch=3 n=18 v=0
9084977 On ch=3 n=8 v=100
9085277 Off ch=3 n=24 v=0
9085430 On ch=3 n=12 v=100
9085432 Off ch=3 n=8 v=0
9085665 Off ch=3 n=12 v=0
9085943 On ch=3 n=26 v=100
9086184 Off ch=3 n=26 v=0
9086261 On ch=3 n=12 v=100
9086471 Off ch=3 n=12 v=0
9086481 On ch=3 n=22 v=100
9086552 Off ch=3 n=22 v=0
9086554 On ch=3 n=8 v=100
9087103 Off ch=3 n=8 v=0
9087298 On ch=3 n=40 v=100
9087899 Off ch=3 n=40 v=0
9087914 On ch=3 n=38 v=100
9087940 On ch=3 n=22 v=100
9088189 Off ch=3 n=22 v=0
9088195 Off ch=3 n=38 v=0
9089846 On ch=3 n=35 v=100
9089918 On ch=3 n=27 v=100
9089944 On ch=3 n=23 v=100
9090051 Off ch=3 n=27 v=0
9090051 Off ch=3 n=23 v=0
9090108 Off ch=3 n=35 v=0
9090169 On ch=3 n=35 v=100
9090196 Off ch=3 n=35 v=0
9090612 On ch=3 n=25 v=100
9090612 On ch=3 n=25 v=100
9090714 On ch=3 n=13 v=100
9090767 On ch=3 n=25 v=100
9090767 On ch=3 n=25 v=100
9090991 Off ch=3 n=25 v=0
9090991 Off ch=3 n=25 v=0
9090996 Off ch=3 n=13 v=0
9091078 Off ch=3 n=25 v=0
9091078 Off ch=3 n=25 v=0
9091093 On ch=3 n=9 v=100
9091719 On ch=3 n=33 v=100
9091737 Off ch=3 n=9 v=0
9091816 Off ch=3 n=33 v=0
9092769 On ch=3 n=38 v=100
9092874 Off ch=3 n=38 v=0
9092915 On ch=3 n=42 v=100
9093038 On ch=3 n=37 v=100
9093086 Off ch=3 n=42 v=0
9093177 Off ch=3 n=37 v=0
9093254 On ch=3 n=13 v=100
9093535 Off ch=3 n=13 v=0
9093809 On ch=3 n=15 v=100
9093921 On ch=3 n=25 v=100
9093937 On ch=3 n=15 v=100
9094005 Off ch=3 n=15 v=0
9094005 Off ch=3 n=25 v=0
9094005 Off ch=3 n=15 v=0
9094111 On ch=3 n=25 v=100
9094111 On ch=3 n=15 v=100
9094133 On ch=3 n=79 v=100
9094133 On ch=3 n=79 v=100
9094160 On ch=3 n=10 v=100
9094167 Off ch=3 n=25 v=0
9094169 On ch=3 n=11 v=100
9094346 On ch=3 n=45 v=100
9094346 On ch=3 n=45 v=100
9094492 Off ch=3 n=10 v=0
9094498 Off ch=3 n=15 v=0
9094532 Off ch=3 n=11 v=0
9094666 Off ch=3 n=79 v=0
9094666 Off ch=3 n=79 v=0
9094824 Off ch=3 n=45 v=0
9094824 Off ch=3 n=45 v=0
9096193 On ch=3 n=8 v=100
9096452 On ch=3 n=8 v=100
9096453 Off ch=3 n=8 v=0
9096962 On ch=3 n=19 v=100
9097039 Off ch=3 n=8 v=0
9097058 Off ch=3 n=19 v=0
9097125 On ch=3 n=9 v=100
9098340 Off ch=3 n=9 v=0
9099933 On ch=3 n=23 v=100
9100360 Off ch=3 n=23 v=0
9100470 On ch=3 n=38 v=100
9100654 On ch=3 n=16 v=100
9101014 Off ch=3 n=38 v=0
9101016 Off ch=3 n=16 v=0
9102575 On ch=3 n=25 v=100
9102622 On ch=3 n=12 v=100
9102662 Off ch=3 n=25 v=0
9102699 Off ch=3 n=12 v=0
9102706 On ch=3 n=15 v=100
9103062 On ch=3 n=6 v=100
9103062 Off ch=3 n=15 v=0
9103560 On ch=3 n=29 v=100
9103618 Off ch=3 n=6 v=0
9103675 On ch=3 n=16 v=100
9103701 On ch=3 n=22 v=100
9103703 On ch=3 n=15 v=100
9104009 Off ch=3 n=16 v=0
9104010 Off ch=3 n=29 v=0
9104051 Off ch=3 n=15 v=0
9104142 Off ch=3 n=22 v=0
9107048 On ch=3 n=11 v=100
9107857 Off ch=3 n=11 v=0
9107900 On ch=3 n=14 v=100
9107998 Off ch=3 n=14 v=0
9107999 On ch=3 n=12 v=100
9108264 On ch=3 n=7 v=100
9108276 Off ch=3 n=12 v=0
9108460 Off ch=3 n=7 v=0
9108461 On ch=3 n=8 v=100
9108587 On ch=3 n=18 v=100
9108591 Off ch=3 n=8 v=0
9108624 On ch=3 n=11 v=100
9108625 On ch=3 n=22 v=100
9108638 On ch=3 n=30 v=100
9108640 Off ch=3 n=18 v=0
9108722 Off ch=3 n=11 v=0
9108741 Off ch=3 n=22 v=0
9108784 Off ch=3 n=30 v=0
9110020 On ch=3 n=38 v=100
9110020 On ch=3 n=38 v=100
9110131 On ch=3 n=15 v=100
9110526 On ch=3 n=26 v=100
9110526 On ch=3 n=35 v=100
9110528 Off ch=3 n=15 v=0
9110639 On ch=3 n=54 v=100
9110642 On ch=3 n=32 v=100
9110733 Off ch=3 n=26 v=0
9110734 Off ch=3 n=38 v=0
9110734 Off ch=3 n=38 v=0
9110772 Off ch=3 n=35 v=0
9110792 Off ch=3 n=32 v=0
9110867 Off ch=3 n=54 v=0
9110876 On ch=3 n=15 v=100
9111019 Off ch=3 n=15 v=0
9111020 On ch=3 n=10 v=100
9111193 On ch=3 n=21 v=100
9111208 Off ch=3 n=10 v=0
9111209 On ch=3 n=23 v=100
9111215 On ch=3 n=33 v=100
9111286 Off ch=3 n=21 v=0
9111297 Off ch=3 n=23 v=0
9111307 Off ch=3 n=33 v=0
9111427 On ch=3 n=22 v=100
9111451 On ch=3 n=11 v=100
9111577 Off ch=3 n=22 v=0
9111598 Off ch=3 n=11 v=0
9111724 On ch=3 n=13 v=100
9111835 On ch=3 n=29 v=100
9111915 Off ch=3 n=13 v=0
9112163 Off ch=3 n=29 v=0
9113281 On ch=3 n=13 v=100
9113968 On ch=3 n=26 v=100
9114021 Off ch=3 n=13 v=0
9114025 On ch=3 n=8 v=100
9114092 Off ch=3 n=26 v=0
9114864 Off ch=3 n=8 v=0
9114872 On ch=3 n=15 v=100
9115105 On ch=3 n=48 v=100
9115146 On ch=3 n=30 v=100
9115146 On ch=3 n=35 v=100
9115161 Off ch=3 n=15 v=0
9115237 Off ch=3 n=30 v=0
9115239 Off ch=3 n=48 v=0
9115253 Off ch=3 n=35 v=0
9115414 On ch=3 n=31 v=100
9115562 On ch=3 n=23 v=100
9115648 On ch=3 n=23 v=100
9115802 Off ch=3 n=31 v=0
9115994 Off ch=3 n=23 v=0
9116076 Off ch=3 n=23 v=0
9117653 On ch=3 n=8 v=100
9118060 Off ch=3 n=8 v=0
9118448 On ch=3 n=4 v=100
9118623 On ch=3 n=5 v=100
9118625 Off ch=3 n=4 v=0
9118710 Off ch=3 n=5 v=0
9119303 On ch=3 n=13 v=100
9119404 Off ch=3 n=13 v=0
9120762 On ch=3 n=7 v=100
9120898 On ch=3 n=52 v=100
9121216 On ch=3 n=9 v=100
9121216 Off ch=3 n=7 v=0
9121675 Off ch=3 n=52 v=0
9121704 Off ch=3 n=9 v=0
9122456 On ch=3 n=44 v=100
9122572 Off ch=3 n=44 v=0
9123118 On ch=3 n=25 v=100
9123192 Off ch=3 n=25 v=0
9123226 On ch=3 n=11 v=100
9123373 On ch=3 n=28 v=100
9123387 Off ch=3 n=11 v=0
9123462 Off ch=3 n=28 v=0
9123663 On ch=3 n=18 v=100
9123692 Off ch=3 n=18 v=0
9123709 On ch=3 n=22 v=100
9124076 On ch=3 n=33 v=100
9124077 Off ch=3 n=22 v=0
9124197 On ch=3 n=15 v=100
9124197 Off ch=3 n=33 v=0
9124553 Off ch=3 n=15 v=0
9124581 On ch=3 n=15 v=100
9124687 On ch=3 n=38 v=100
9124708 Off ch=3 n=15 v=0
9124738 On ch=3 n=46 v=100
9124738 On ch=3 n=46 v=100
9124754 Off ch=3 n=38 v=0
9124847 On ch=3 n=13 v=100
9124932 Off ch=3 n=13 v=0
9125003 Off ch=3 n=46 v=0
9125003 Off ch=3 n=46 v=0
9126026 On ch=3 n=28 v=100
9126029 On ch=3 n=10 v=100
9126143 Off ch=3 n=10 v=0
9126144 On ch=3 n=9 v=100
9126225 Off ch=3 n=28 v=0
9126279 Off ch=3 n=9 v=0
9131401 On ch=3 n=9 v=100
9131570 Off ch=3 n=9 v=0
9131704 On ch=3 n=19 v=100
9131887 Off ch=3 n=19 v=0
9132121 On ch=3 n=14 v=100
9132218 Off ch=3 n=14 v=0
9132772 On ch=3 n=22 v=100
9133018 On ch=3 n=35 v=100
9133137 Off ch=3 n=22 v=0
9133198 Off ch=3 n=35 v=0
9133599 On ch=3 n=33 v=100
9133642 On ch=3 n=13 v=100
9133845 Off ch=3 n=33 v=0
9133845 Off ch=3 n=13 v=0
9135464 On ch=3 n=16 v=100
9135538 Off ch=3 n=16 v=0
9135565 On ch=3 n=2 v=100
9135635 On ch=3 n=26 v=100
9135669 Off ch=3 n=2 v=0
9135715 Off ch=3 n=26 v=0
9137370 On ch=3 n=30 v=100
9137472 Off ch=3 n=30 v=0
9137518 On ch=3 n=30 v=100
9137560 On ch=3 n=24 v=100
9137560 On ch=3 n=24 v=100
9137739 On ch=3 n=8 v=100
9137743 On ch=3 n=33 v=100
9137743 On ch=3 n=33 v=100
9137757 Off ch=3 n=30 v=0
9137796 Off ch=3 n=24 v=0
9137796 Off ch=3 n=24 v=0
9137868 Off ch=3 n=8 v=0
9137869 On ch=3 n=11 v=100
9137925 Off ch=3 n=33 v=0
9137925 Off ch=3 n=33 v=0
9138270 On ch=3 n=20 v=100
9138281 Off ch=3 n=11 v=0
9138291 Off ch=3 n=20 v=0
9138353 On ch=3 n=20 v=100
9138366 On ch=3 n=19 v=100
9138407 On ch=3 n=25 v=100
9138426 Off ch=3 n=20 v=0
9138429 Off ch=3 n=19 v=0
9138464 On ch=3 n=4 v=100
9138769 Off ch=3 n=25 v=0
9138770 Off ch=3 n=4 v=0
9138773 On ch=3 n=2 v=100
9138814 On ch=3 n=28 v=100
9138980 Off ch=3 n=2 v=0
9138982 On ch=3 n=27 v=100
9139045 Off ch=3 n=28 v=0
9139655 Off ch=3 n=27 v=0
9139660 On ch=3 n=5 v=100
9140847 Off ch=3 n=5 v=0
9140969 On ch=3 n=32 v=100
9141062 Off ch=3 n=32 v=0
9141118 On ch=3 n=31 v=100
9141375 Off ch=3 n=31 v=0
9141389 On ch=3 n=54 v=100
9141490 Off ch=3 n=54 v=0
9141699 On ch=3 n=25 v=100
9141812 Off ch=3 n=25 v=0
9141942 On ch=3 n=16 v=100
9141967 On ch=3 n=8 v=100
9142163 Off ch=3 n=16 v=0
9142510 Off ch=3 n=8 v=0
9144290 On ch=3 n=7 v=100
9144581 Off ch=3 n=7 v=0
9144766 On ch=3 n=13 v=100
9144766 On ch=3 n=39 v=100
9144767 On ch=3 n=32 v=100
9144840 Off ch=3 n=13 v=0
9144918 Off ch=3 n=32 v=0
9144973 Off ch=3 n=39 v=0
9145020 On ch=3 n=30 v=100
9145377 On ch=3 n=16 v=100
9145445 On ch=3 n=18 v=100
9145473 Off ch=3 n=30 v=0
9145565 Off ch=3 n=16 v=0
9145598 Off ch=3 n=18 v=0
9147009 On ch=3 n=21 v=100
9147140 On ch=3 n=10 v=100
9147150 On ch=3 n=18 v=100
9147399 On ch=3 n=29 v=100
9147407 Off ch=3 n=21 v=0
9147533 Off ch=3 n=10 v=0
9147684 Off ch=3 n=18 v=0
9147827 Off ch=3 n=29 v=0
9147860 On ch=3 n=29 v=100
9147884 On ch=3 n=11 v=100
9147885 Off ch=3 n=29 v=0
9147887 On ch=3 n=63 v=100
9148417 On ch=3 n=29 v=100
9148427 Off ch=3 n=11 v=0
9148704 Off ch=3 n=63 v=0
9148815 Off ch=3 n=29 v=0
9150448 On ch=3 n=9 v=100
9150897 On ch=3 n=25 v=100
9150909 On ch=3 n=17 v=100
9150956 Off ch=3 n=9 v=0
9151048 Off ch=3 n=17 v=0
9151091 Off ch=3 n=25 v=0
9151142 On ch=3 n=25 v=100
9151142 On ch=3 n=13 v=100
9151191 Off ch=3 n=25 v=0
9151692 Off ch=3 n=13 v=0
9151721 On ch=3 n=18 v=100
9152011 Off ch=3 n=18 v=0
9152071 On ch=3 n=15 v=100
9152128 Off ch=3 n=15 v=0
9154042 On ch=3 n=37 v=100
9154162 On ch=3 n=17 v=100
9154276 On ch=3 n=9 v=100
9154408 Off ch=3 n=37 v=0
9154430 On ch=3 n=27 v=100
9154513 On ch=3 n=37 v=100
9154629 Off ch=3 n=17 v=0
9154629 Off ch=3 n=9 v=0
9154656 Off ch=3 n=27 v=0
9154722 On ch=3 n=12 v=100
9154752 Off ch=3 n=37 v=0
9155405 Off ch=3 n=12 v=0
9155407 On ch=3 n=11 v=100
9155944 Off ch=3 n=11 v=0
9156887 On ch=3 n=11 v=100
9157155 Off ch=3 n=11 v=0
9158769 On ch=3 n=3 v=100
9158917 On ch=3 n=5 v=100
9158919 Off ch=3 n=3 v=0
9158977 Off ch=3 n=5 v=0
9158983 On ch=3 n=9 v=100
9159283 On ch=3 n=25 v=100
9159287 Off ch=3 n=9 v=0
9159785 Off ch=3 n=25 v=0
9159855 On ch=3 n=21 v=100
9160139 Off ch=3 n=21 v=0
9160722 On ch=3 n=17 v=100
9160794 Off ch=3 n=17 v=0
9160850 On ch=3 n=29 v=100
9161057 Off ch=3 n=29 v=0
9161103 On ch=3 n=21 v=100
9161139 On ch=3 n=10 v=100
9161182 On ch=3 n=19 v=100
9161420 Off ch=3 n=21 v=0
9161556 Off ch=3 n=10 v=0
9161669 Off ch=3 n=19 v=0
9161815 On ch=3 n=13 v=100
9162165 On ch=3 n=35 v=100
9162166 Off ch=3 n=13 v=0
9162341 Off ch=3 n=35 v=0
9164393 On ch=3 n=25 v=100
9164458 On ch=3 n=9 v=100
9164578 Off ch=3 n=25 v=0
9164831 Off ch=3 n=9 v=0
9164974 On ch=3 n=19 v=100
9165050 Off ch=3 n=19 v=0
9165052 On ch=3 n=6 v=100
9165952 Off ch=3 n=6 v=0
9168125 On ch=3 n=18 v=100
9168334 Off ch=3 n=18 v=0
9168342 On ch=3 n=6 v=100
9168926 Off ch=3 n=6 v=0
9168927 On ch=3 n=5 v=100
9169491 Off ch=3 n=5 v=0
9170375 On ch=3 n=39 v=100
9170391 On ch=3 n=33 v=100
9170426 Off ch=3 n=39 v=0
9170478 Off ch=3 n=33 v=0
9170523 On ch=3 n=10 v=100
9170758 Off ch=3 n=10 v=0
9170770 On ch=3 n=9 v=100
9171365 Off ch=3 n=9 v=0
9171458 On ch=3 n=31 v=100
9171527 Off ch=3 n=31 v=0
9172447 On ch=3 n=16 v=100
9172491 On ch=3 n=4 v=100
9172658 Off ch=3 n=4 v=0
9172660 On ch=3 n=3 v=100
9172660 Off ch=3 n=16 v=0
9172989 Off ch=3 n=3 v=0
9173043 On ch=3 n=5 v=100
9173044 On ch=3 n=16 v=100
9173173 Off ch=3 n=5 v=0
9173196 Off ch=3 n=16 v=0
9173324 On ch=3 n=35 v=100
9173369 On ch=3 n=41 v=100
9173408 Off ch=3 n=35 v=0
9173482 Off ch=3 n=41 v=0
9175270 On ch=3 n=7 v=100
9175637 Off ch=3 n=7 v=0
9175645 On ch=3 n=7 v=100
9175885 Off ch=3 n=7 v=0
9175903 On ch=3 n=18 v=100
9175903 On ch=3 n=31 v=100
9175903 On ch=3 n=37 v=100
9176064 Off ch=3 n=18 v=0
9176141 Off ch=3 n=31 v=0
9176184 Off ch=3 n=37 v=0
9177972 On ch=3 n=8 v=100
9178068 On ch=3 n=13 v=100
9178077 Off ch=3 n=8 v=0
9178637 On ch=3 n=2 v=100
9178668 Off ch=3 n=13 v=0
9178718 Off ch=3 n=2 v=0
9178719 On ch=3 n=2 v=100
9178786 Off ch=3 n=2 v=0
9179591 On ch=3 n=24 v=100
9179719 On ch=3 n=22 v=100
9180044 Off ch=3 n=24 v=0
9180044 Off ch=3 n=22 v=0
9180105 On ch=3 n=22 v=100
9180176 Off ch=3 n=22 v=0
9180521 On ch=3 n=10 v=100
9180731 Off ch=3 n=10 v=0
9181692 On ch=3 n=36 v=100
9181715 On ch=3 n=27 v=100
9181856 Off ch=3 n=36 v=0
9181872 Off ch=3 n=27 v=0
9181921 On ch=3 n=21 v=100
9181921 On ch=3 n=27 v=100
9181968 Off ch=3 n=21 v=0
9181994 Off ch=3 n=27 v=0
9185192 On ch=3 n=30 v=100
9185321 Off ch=3 n=30 v=0
9185805 On ch=3 n=25 v=100
9185907 On ch=3 n=9 v=100
9185916 On ch=3 n=22 v=100
9185917 On ch=3 n=19 v=100
9186050 Off ch=3 n=25 v=0
9186061 Off ch=3 n=9 v=0
9186105 Off ch=3 n=19 v=0
9186133 Off ch=3 n=22 v=0
9187883 On ch=3 n=30 v=100
9188040 Off ch=3 n=30 v=0
9188153 On ch=3 n=7 v=100
9188676 On ch=3 n=14 v=100
9188696 Off ch=3 n=7 v=0
9188696 Off ch=3 n=14 v=0
9188773 On ch=3 n=14 v=100
9188998 Off ch=3 n=14 v=0
9189003 On ch=3 n=11 v=100
9189212 Off ch=3 n=11 v=0
9190089 On ch=3 n=15 v=100
9190232 Off ch=3 n=15 v=0
9191251 On ch=3 n=25 v=100
9191373 On ch=3 n=19 v=100
9191376 On ch=3 n=12 v=100
9191629 On ch=3 n=31 v=100
9191750 Off ch=3 n=25 v=0
9191750 Off ch=3 n=12 v=0
9191796 Off ch=3 n=19 v=0
9191801 On ch=3 n=13 v=100
9192029 Off ch=3 n=31 v=0
9192511 Off ch=3 n=13 v=0
9192514 On ch=3 n=6 v=100
9192628 On ch=3 n=9 v=100
9192642 Off ch=3 n=6 v=0
9192855 Off ch=3 n=9 v=0
9193335 On ch=3 n=11 v=100
9193605 Off ch=3 n=11 v=0
9193608 On ch=3 n=4 v=100
9193683 Off ch=3 n=4 v=0
9193693 On ch=3 n=7 v=100
9193693 On ch=3 n=13 v=100
9193983 Off ch=3 n=7 v=0
9193985 On ch=3 n=9 v=100
9194032 On ch=3 n=23 v=100
9194032 On ch=3 n=26 v=100
9194033 Off ch=3 n=13 v=0
9194076 Off ch=3 n=9 v=0
9194147 Off ch=3 n=23 v=0
9194166 Off ch=3 n=26 v=0
9194862 On ch=3 n=34 v=100
9194930 On ch=3 n=20 v=100
9194930 On ch=3 n=20 v=100
9194990 On ch=3 n=16 v=100
9195042 On ch=3 n=12 v=100
9195089 On ch=3 n=39 v=100
9195162 Off ch=3 n=34 v=0
9195393 Off ch=3 n=16 v=0
9195393 Off ch=3 n=12 v=0
9195395 On ch=3 n=7 v=100
9195395 On ch=3 n=7 v=100
9195420 Off ch=3 n=20 v=0
9195420 Off ch=3 n=20 v=0
9195679 On ch=3 n=33 v=100
9195695 Off ch=3 n=39 v=0
9195786 Off ch=3 n=7 v=0
9195786 Off ch=3 n=7 v=0
9195793 On ch=3 n=7 v=100
9195799 Off ch=3 n=33 v=0
9195860 Off ch=3 n=7 v=0
9196001 On ch=3 n=9 v=100
9196280 Off ch=3 n=9 v=0
9196470 On ch=3 n=41 v=100
9196491 On ch=3 n=28 v=100
9196532 On ch=3 n=20 v=100
9196532 On ch=3 n=20 v=100
9196543 On ch=3 n=19 v=100
9196814 Off ch=3 n=19 v=0
9196819 Off ch=3 n=28 v=0
9196841 Off ch=3 n=20 v=0
9196841 Off ch=3 n=20 v=0
9196844 Off ch=3 n=41 v=0
9197771 On ch=3 n=50 v=100
9197876 On ch=3 n=8 v=100
9198007 Off ch=3 n=50 v=0
9198136 Off ch=3 n=8 v=0
9198138 On ch=3 n=11 v=100
9198176 Off ch=3 n=11 v=0
9198179 On ch=3 n=15 v=100
9198308 Off ch=3 n=15 v=0
9198311 On ch=3 n=8 v=100
9198897 On ch=3 n=24 v=100
9198898 Off ch=3 n=8 v=0
9198903 On ch=3 n=18 v=100
9199024 On ch=3 n=47 v=100
9199140 On ch=3 n=14 v=100
9199178 Off ch=3 n=18 v=0
9199208 Off ch=3 n=24 v=0
9199256 Off ch=3 n=47 v=0
9199256 Off ch=3 n=14 v=0
9199543 On ch=3 n=7 v=100
9199705 On ch=3 n=46 v=100
9199965 Off ch=3 n=7 v=0
9199968 On ch=3 n=1 v=100
9200004 Off ch=3 n=46 v=0
9200672 Off ch=3 n=1 v=0
9200675 On ch=3 n=7 v=100
9201755 Off ch=3 n=7 v=0
9201796 On ch=3 n=42 v=100
9201903 Off ch=3 n=42 v=0
9202323 On ch=3 n=5 v=100
9204443 Off ch=3 n=5 v=0
9204532 On ch=3 n=5 v=100
9204532 On ch=3 n=21 v=100
9204794 On ch=3 n=15 v=100
9204805 Off ch=3 n=5 v=0
9204870 On ch=3 n=19 v=100
9204870 On ch=3 n=19 v=100
9204882 On ch=3 n=7 v=100
9205188 Off ch=3 n=15 v=0
9205188 Off ch=3 n=7 v=0
9205188 Off ch=3 n=21 v=0
9205254 Off ch=3 n=19 v=0
9205254 Off ch=3 n=19 v=0
9205266 On ch=3 n=28 v=100
9205389 Off ch=3 n=28 v=0
9205393 On ch=3 n=36 v=100
9205430 On ch=3 n=28 v=100
9205494 Off ch=3 n=36 v=0
9205527 Off ch=3 n=28 v=0
9205917 On ch=3 n=22 v=100
9206009 Off ch=3 n=22 v=0
9206672 On ch=3 n=34 v=100
9206728 Off ch=3 n=34 v=0
9208224 On ch=3 n=35 v=100
9208398 Off ch=3 n=35 v=0
9210542 On ch=3 n=12 v=100
9211068 Off ch=3 n=12 v=0
9211075 On ch=3 n=40 v=100
9211165 Off ch=3 n=40 v=0
9211202 On ch=3 n=18 v=100
9211304 Off ch=3 n=18 v=0
9211333 On ch=3 n=10 v=100
9212365 Off ch=3 n=10 v=0
9212375 On ch=3 n=22 v=100
9213046 Off ch=3 n=22 v=0
9213047 On ch=3 n=27 v=100
9213048 On ch=3 n=58 v=100
9213049 On ch=3 n=30 v=100
9213062 On ch=3 n=26 v=100
9213234 Off ch=3 n=27 v=0
9213261 Off ch=3 n=26 v=0
9213280 Off ch=3 n=30 v=0
9213406 Off ch=3 n=58 v=0
9214894 On ch=3 n=10 v=100
9215313 Off ch=3 n=10 v=0
9215426 On ch=3 n=49 v=100
9215553 Off ch=3 n=49 v=0
9215568 On ch=3 n=18 v=100
9215639 Off ch=3 n=18 v=0
9217724 On ch=3 n=13 v=100
9217748 Off ch=3 n=13 v=0
9217998 On ch=3 n=24 v=100
9217998 On ch=3 n=33 v=100
9218061 Off ch=3 n=24 v=0
9218143 Off ch=3 n=33 v=0
9219480 On ch=3 n=13 v=100
9220609 Off ch=3 n=13 v=0
9220751 On ch=3 n=8 v=100
9221423 Off ch=3 n=8 v=0
9222889 On ch=3 n=16 v=100
9223425 Off ch=3 n=16 v=0
9223658 On ch=3 n=2 v=100
9224342 Off ch=3 n=2 v=0
9224346 On ch=3 n=2 v=100
9224393 Off ch=3 n=2 v=0
9224394 On ch=3 n=2 v=100
9224625 Off ch=3 n=2 v=0
9224627 On ch=3 n=18 v=100
9224829 Off ch=3 n=18 v=0
9224832 On ch=3 n=19 v=100
9225005 Off ch=3 n=19 v=0
9225015 On ch=3 n=28 v=100
9225124 Off ch=3 n=28 v=0
9225179 On ch=3 n=14 v=100
9225581 On ch=3 n=21 v=100
9225581 On ch=3 n=25 v=100
9225582 Off ch=3 n=14 v=0
9225645 Off ch=3 n=21 v=0
9225646 On ch=3 n=11 v=100
9225663 Off ch=3 n=25 v=0
9225818 Off ch=3 n=11 v=0
9225819 On ch=3 n=23 v=100
9226068 Off ch=3 n=23 v=0
9227078 On ch=3 n=34 v=100
9227222 Off ch=3 n=34 v=0
9227231 On ch=3 n=30 v=100
9227297 On ch=3 n=18 v=100
9227446 Off ch=3 n=30 v=0
9227448 On ch=3 n=4 v=100
9227941 On ch=3 n=34 v=100
9227989 Off ch=3 n=4 v=0
9227996 Off ch=3 n=18 v=0
9228005 Off ch=3 n=34 v=0
9228011 On ch=3 n=14 v=100
9228597 Off ch=3 n=14 v=0
9229861 On ch=3 n=20 v=100
9230461 On ch=3 n=30 v=100
9230469 Off ch=3 n=20 v=0
9230528 On ch=3 n=25 v=100
9230609 Off ch=3 n=30 v=0
9230622 Off ch=3 n=25 v=0
9230790 On ch=3 n=8 v=100
9231281 Off ch=3 n=8 v=0
9233305 On ch=3 n=18 v=100
9233389 Off ch=3 n=18 v=0
9234506 On ch=3 n=8 v=100
9234709 Off ch=3 n=8 v=0
9234845 On ch=3 n=20 v=100
9235075 Off ch=3 n=20 v=0
9236270 On ch=3 n=13 v=100
9236451 Off ch=3 n=13 v=0
9237274 On ch=3 n=23 v=100
9237286 On ch=3 n=30 v=100
9237372 Off ch=3 n=23 v=0
9237475 On ch=3 n=10 v=100
9237478 Off ch=3 n=30 v=0
9237593 Off ch=3 n=10 v=0
9238099 On ch=3 n=40 v=100
9238144 On ch=3 n=41 v=100
9238144 On ch=3 n=41 v=100
9238155 On ch=3 n=45 v=100
9238155 On ch=3 n=45 v=100
9238163 On ch=3 n=10 v=100
9238351 Off ch=3 n=10 v=0
9238362 Off ch=3 n=40 v=0
9238367 Off ch=3 n=41 v=0
9238367 Off ch=3 n=41 v=0
9238393 Off ch=3 n=45 v=0
9238393 Off ch=3 n=45 v=0
9239213 On ch=3 n=7 v=100
9240288 On ch=3 n=18 v=100
9240365 Off ch=3 n=7 v=0
9240409 Off ch=3 n=18 v=0
9241336 On ch=3 n=46 v=100
9241573 On ch=3 n=46 v=100
9241586 Off ch=3 n=46 v=0
9241719 On ch=3 n=33 v=100
9241737 Off ch=3 n=46 v=0
9241954 Off ch=3 n=33 v=0
9241987 On ch=3 n=16 v=100
9242058 Off ch=3 n=16 v=0
9243291 On ch=3 n=8 v=100
9244523 Off ch=3 n=8 v=0
9244647 On ch=3 n=17 v=100
9244678 Off ch=3 n=17 v=0
9244727 On ch=3 n=22 v=100
9244790 Off ch=3 n=22 v=0
9244793 On ch=3 n=46 v=100
9244948 Off ch=3 n=46 v=0
9245616 On ch=3 n=13 v=100
9245698 On ch=3 n=12 v=100
9245772 Off ch=3 n=13 v=0
9245966 On ch=3 n=26 v=100
9245966 Off ch=3 n=12 v=0
9246125 Off ch=3 n=26 v=0
9246211 On ch=3 n=22 v=100
9246285 Off ch=3 n=22 v=0
9246352 On ch=3 n=25 v=100
9246466 Off ch=3 n=25 v=0
9247279 On ch=3 n=30 v=100
9247330 On ch=3 n=14 v=100
9247416 Off ch=3 n=30 v=0
9247416 Off ch=3 n=14 v=0
9247456 On ch=3 n=14 v=100
9247624 Off ch=3 n=14 v=0
9248401 On ch=3 n=38 v=100
9248430 On ch=3 n=39 v=100
9248668 Off ch=3 n=39 v=0
9248678 Off ch=3 n=38 v=0
9250266 On ch=3 n=24 v=100
9250359 Off ch=3 n=24 v=0
9250464 On ch=3 n=8 v=100
9250500 On ch=3 n=16 v=100
9250501 Off ch=3 n=8 v=0
9250519 On ch=3 n=18 v=100
9250831 On ch=3 n=11 v=100
9251001 Off ch=3 n=16 v=0
9251167 Off ch=3 n=18 v=0
9251167 Off ch=3 n=11 v=0
9251261 On ch=3 n=26 v=100
9251275 On ch=3 n=19 v=100
9251373 Off ch=3 n=26 v=0
9251376 Off ch=3 n=19 v=0
9252088 On ch=3 n=20 v=100
9252275 Off ch=3 n=20 v=0
9252334 On ch=3 n=31 v=100
9252757 Off ch=3 n=31 v=0
9252942 On ch=3 n=20 v=100
9253021 Off ch=3 n=20 v=0
9253068 On ch=3 n=36 v=100
9253344 Off ch=3 n=36 v=0
9253700 On ch=3 n=22 v=100
9253736 Off ch=3 n=22 v=0
9254118 On ch=3 n=10 v=100
9255344 On ch=3 n=5 v=100
9255344 Off ch=3 n=10 v=0
9255404 Off ch=3 n=5 v=0
9257817 On ch=3 n=27 v=100
9257818 On ch=3 n=30 v=100
9257893 Off ch=3 n=27 v=0
9257930 Off ch=3 n=30 v=0
9258258 On ch=3 n=12 v=100
9258279 On ch=3 n=27 v=100
9258496 Off ch=3 n=12 v=0
9258523 Off ch=3 n=27 v=0
9259542 On ch=3 n=11 v=100
9259775 Off ch=3 n=11 v=0
9259814 On ch=3 n=33 v=100
9259935 Off ch=3 n=33 v=0
9260062 On ch=3 n=36 v=100
9260230 Off ch=3 n=36 v=0
9262013 On ch=3 n=15 v=100
9262073 On ch=3 n=24 v=100
9262435 Off ch=3 n=15 v=0
9262442 On ch=3 n=12 v=100
9262623 Off ch=3 n=24 v=0
9262829 Off ch=3 n=12 v=0
9263148 On ch=3 n=15 v=100
9264507 Off ch=3 n=15 v=0
9264702 On ch=3 n=10 v=100
9265057 On ch=3 n=31 v=100
9265121 On ch=3 n=8 v=100
9265124 Off ch=3 n=10 v=0
9265582 Off ch=3 n=31 v=0
9265582 Off ch=3 n=8 v=0
9265666 On ch=3 n=37 v=100
9265815 Off ch=3 n=37 v=0
9265826 On ch=3 n=41 v=100
9266005 Off ch=3 n=41 v=0
9266157 On ch=3 n=10 v=100
9266188 Off ch=3 n=10 v=0
9266766 On ch=3 n=15 v=100
9266963 Off ch=3 n=15 v=0
9267177 On ch=3 n=12 v=100
9267383 Off ch=3 n=12 v=0
9268729 On ch=3 n=15 v=100
9268818 Off ch=3 n=15 v=0
9268820 On ch=3 n=11 v=100
9270201 On ch=3 n=24 v=100
9270219 Off ch=3 n=11 v=0
9270423 Off ch=3 n=24 v=0
9270430 On ch=3 n=25 v=100
9270939 Off ch=3 n=25 v=0
9270968 On ch=3 n=19 v=100
9271084 Off ch=3 n=19 v=0
9271085 On ch=3 n=22 v=100
9271315 Off ch=3 n=22 v=0
9271318 On ch=3 n=31 v=100
9271394 Off ch=3 n=31 v=0
9271398 On ch=3 n=30 v=100
9271608 Off ch=3 n=30 v=0
9272626 On ch=3 n=36 v=100
9272671 On ch=3 n=18 v=100
9272735 Off ch=3 n=36 v=0
9272735 Off ch=3 n=18 v=0
9272865 On ch=3 n=19 v=100
9272865 On ch=3 n=19 v=100
9272890 On ch=3 n=19 v=100
9273228 On ch=3 n=22 v=100
9273236 Off ch=3 n=19 v=0
9273257 Off ch=3 n=19 v=0
9273257 Off ch=3 n=19 v=0
9273474 Off ch=3 n=22 v=0
9273559 On ch=3 n=26 v=100
9273575 On ch=3 n=30 v=100
9273576 On ch=3 n=32 v=100
9273648 On ch=3 n=24 v=100
9273648 Off ch=3 n=26 v=0
9273692 Off ch=3 n=32 v=0
9273708 Off ch=3 n=24 v=0
9273724 Off ch=3 n=30 v=0
9274386 On ch=3 n=35 v=100
9274425 On ch=3 n=56 v=100
9274448 On ch=3 n=48 v=100
9274448 On ch=3 n=48 v=100
9274469 On ch=3 n=30 v=100
9274483 On ch=3 n=39 v=100
9274559 Off ch=3 n=30 v=0
9274566 Off ch=3 n=35 v=0
9274581 Off ch=3 n=39 v=0
9274601 Off ch=3 n=56 v=0
9274608 Off ch=3 n=48 v=0
9274608 Off ch=3 n=48 v=0
9275241 On ch=3 n=12 v=100
9275436 Off ch=3 n=12 v=0
9275437 On ch=3 n=9 v=100
9275697 Off ch=3 n=9 v=0
9275699 On ch=3 n=14 v=100
9275888 Off ch=3 n=14 v=0
9275943 On ch=3 n=13 v=100
9276067 Off ch=3 n=13 v=0
9276072 On ch=3 n=31 v=100
9276175 Off ch=3 n=31 v=0
9276977 On ch=3 n=37 v=100
9277152 On ch=3 n=38 v=100
9277256 Off ch=3 n=37 v=0
9277278 Off ch=3 n=38 v=0
9277312 On ch=3 n=12 v=100
9277445 Off ch=3 n=12 v=0
9277450 On ch=3 n=16 v=100
9277588 Off ch=3 n=16 v=0
9278237 On ch=3 n=13 v=100
9278588 Off ch=3 n=13 v=0
9278666 On ch=3 n=42 v=100
9278754 Off ch=3 n=42 v=0
9279432 On ch=3 n=11 v=100
9279836 Off ch=3 n=11 v=0
9280909 On ch=3 n=7 v=100
9281106 Off ch=3 n=7 v=0
9281107 On ch=3 n=8 v=100
9281729 Off ch=3 n=8 v=0
9282710 On ch=3 n=24 v=100
9283197 Off ch=3 n=24 v=0
9284052 On ch=3 n=17 v=100
9284069 On ch=3 n=17 v=100
9284122 Off ch=3 n=17 v=0
9284183 Off ch=3 n=17 v=0
9284220 On ch=3 n=8 v=100
9284980 Off ch=3 n=8 v=0
9286006 On ch=3 n=39 v=100
9286109 Off ch=3 n=39 v=0
9286827 On ch=3 n=30 v=100
9286830 On ch=3 n=23 v=100
9287406 Off ch=3 n=23 v=0
9287489 Off ch=3 n=30 v=0
9288192 On ch=3 n=22 v=100
9288299 On ch=3 n=19 v=100
9288311 Off ch=3 n=22 v=0
9288685 On ch=3 n=10 v=100
9288740 Off ch=3 n=19 v=0
9288776 Off ch=3 n=10 v=0
9288778 On ch=3 n=9 v=100
9289518 Off ch=3 n=9 v=0
9289520 On ch=3 n=12 v=100
9289555 On ch=3 n=3 v=100
9289561 Off ch=3 n=12 v=0
9289810 On ch=3 n=12 v=100
9289811 Off ch=3 n=3 v=0
9289976 On ch=3 n=7 v=100
9289991 Off ch=3 n=12 v=0
9290001 Off ch=3 n=7 v=0
9290028 On ch=3 n=7 v=100
9290166 Off ch=3 n=7 v=0
9290247 On ch=3 n=7 v=100
9290331 On ch=3 n=29 v=100
9290334 Off ch=3 n=7 v=0
9290431 On ch=3 n=19 v=100
9290444 Off ch=3 n=29 v=0
9290517 On ch=3 n=15 v=100
9290517 On ch=3 n=15 v=100
9290532 On ch=3 n=12 v=100
9290536 On ch=3 n=29 v=100
9290546 On ch=3 n=22 v=100
9290898 Off ch=3 n=19 v=0
9290907 Off ch=3 n=12 v=0
9290949 Off ch=3 n=15 v=0
9290949 Off ch=3 n=15 v=0
9290998 Off ch=3 n=22 v=0
9291130 Off ch=3 n=29 v=0
9293035 On ch=3 n=32 v=100
9293049 Off ch=3 n=32 v=0
9293081 On ch=3 n=32 v=100
9293128 Off ch=3 n=32 v=0
9293193 On ch=3 n=6 v=100
9293348 On ch=3 n=15 v=100
9293375 Off ch=3 n=6 v=0
9293375 Off ch=3 n=15 v=0
9293725 On ch=3 n=11 v=100
9294574 Off ch=3 n=11 v=0
9294582 On ch=3 n=12 v=100
9294739 Off ch=3 n=12 v=0
9294757 On ch=3 n=27 v=100
9294820 Off ch=3 n=27 v=0
9296973 On ch=3 n=40 v=100
9297101 Off ch=3 n=40 v=0
9297220 On ch=3 n=31 v=100
9297220 On ch=3 n=9 v=100
9297643 On ch=3 n=12 v=100
9297645 Off ch=3 n=9 v=0
9297713 Off ch=3 n=31 v=0
9298084 Off ch=3 n=12 v=0
9298145 On ch=3 n=4 v=100
9299921 On ch=3 n=34 v=100
9299931 Off ch=3 n=4 v=0
9300046 Off ch=3 n=34 v=0
9300190 On ch=3 n=4 v=100
9300728 Off ch=3 n=4 v=0
9300760 On ch=3 n=4 v=100
9303911 Off ch=3 n=4 v=0
9303913 On ch=3 n=28 v=100
9304053 On ch=3 n=20 v=100
9304053 On ch=3 n=20 v=100
9304110 On ch=3 n=14 v=100
9304111 On ch=3 n=22 v=100
9304478 Off ch=3 n=28 v=0
9304504 On ch=3 n=20 v=100
9304519 Off ch=3 n=14 v=0
9304532 Off ch=3 n=20 v=0
9304532 Off ch=3 n=20 v=0
9304605 Off ch=3 n=22 v=0
9304648 On ch=3 n=15 v=100
9304949 On ch=3 n=11 v=100
9304951 Off ch=3 n=20 v=0
9305032 Off ch=3 n=15 v=0
9305415 Off ch=3 n=11 v=0
9305963 On ch=3 n=12 v=100
9306006 Off ch=3 n=12 v=0
9306210 On ch=3 n=12 v=100
9306375 Off ch=3 n=12 v=0
9309437 On ch=3 n=31 v=100
9309553 On ch=3 n=23 v=100
9309553 On ch=3 n=23 v=100
9309606 On ch=3 n=17 v=100
9309625 On ch=3 n=33 v=100
9309812 Off ch=3 n=31 v=0
9309982 Off ch=3 n=17 v=0
9310009 Off ch=3 n=23 v=0
9310009 Off ch=3 n=23 v=0
9310134 On ch=3 n=8 v=100
9310300 Off ch=3 n=33 v=0
9310336 On ch=3 n=16 v=100
9310541 Off ch=3 n=8 v=0
9310566 Off ch=3 n=16 v=0
9310636 On ch=3 n=40 v=100
9310677 On ch=3 n=29 v=100
9310869 On ch=3 n=26 v=100
9310979 Off ch=3 n=29 v=0
9310987 Off ch=3 n=40 v=0
9311140 On ch=3 n=18 v=100
9311216 On ch=3 n=17 v=100
9311280 On ch=3 n=17 v=100
9311504 On ch=3 n=29 v=100
9311630 Off ch=3 n=26 v=0
9311631 Off ch=3 n=18 v=0
9311632 Off ch=3 n=17 v=0
9311702 Off ch=3 n=17 v=0
9311726 Off ch=3 n=29 v=0
9312355 On ch=3 n=33 v=100
9312537 Off ch=3 n=33 v=0
9312552 On ch=3 n=23 v=100
9312562 On ch=3 n=12 v=100
9312742 Off ch=3 n=12 v=0
9312782 Off ch=3 n=23 v=0
9312957 On ch=3 n=8 v=100
9313451 On ch=3 n=58 v=100
9313485 On ch=3 n=7 v=100
9313486 Off ch=3 n=8 v=0
9313712 Off ch=3 n=58 v=0
9313752 On ch=3 n=23 v=100
9313779 On ch=3 n=20 v=100
9313793 On ch=3 n=27 v=100
9313824 Off ch=3 n=7 v=0
9313858 Off ch=3 n=23 v=0
9313877 Off ch=3 n=20 v=0
9313879 On ch=3 n=25 v=100
9313921 Off ch=3 n=27 v=0
9313928 Off ch=3 n=25 v=0
9314070 On ch=3 n=25 v=100
9314113 Off ch=3 n=25 v=0
9315103 On ch=3 n=18 v=100
9315131 On ch=3 n=15 v=100
9315143 On ch=3 n=20 v=100
9315166 Off ch=3 n=18 v=0
9315166 Off ch=3 n=15 v=0
9315166 Off ch=3 n=20 v=0
9315224 On ch=3 n=18 v=100
9315224 On ch=3 n=20 v=100
9315402 Off ch=3 n=18 v=0
9315444 Off ch=3 n=20 v=0
9315797 On ch=3 n=10 v=100
9315956 Off ch=3 n=10 v=0
9316071 On ch=3 n=10 v=100
9316286 On ch=3 n=25 v=100
9316329 On ch=3 n=16 v=100
9316334 Off ch=3 n=10 v=0
9316433 Off ch=3 n=25 v=0
9316436 On ch=3 n=22 v=100
9316436 Off ch=3 n=16 v=0
9316649 Off ch=3 n=22 v=0
9317684 On ch=3 n=36 v=100
9317739 On ch=3 n=23 v=100
9317911 Off ch=3 n=36 v=0
9317912 On ch=3 n=11 v=100
9317912 Off ch=3 n=23 v=0
9318396 On ch=3 n=27 v=100
9318397 On ch=3 n=33 v=100
9318398 Off ch=3 n=11 v=0
9318490 Off ch=3 n=27 v=0
9318515 On ch=3 n=28 v=100
9318524 Off ch=3 n=33 v=0
9318650 On ch=3 n=19 v=100
9318653 Off ch=3 n=28 v=0
9318873 Off ch=3 n=19 v=0
9318883 On ch=3 n=16 v=100
9319189 On ch=3 n=26 v=100
9319193 On ch=3 n=39 v=100
9319199 Off ch=3 n=16 v=0
9319212 On ch=3 n=28 v=100
9319269 On ch=3 n=37 v=100
9319323 Off ch=3 n=26 v=0
9319340 Off ch=3 n=39 v=0
9319344 Off ch=3 n=28 v=0
9319404 Off ch=3 n=37 v=0
9319492 On ch=3 n=26 v=100
9319689 Off ch=3 n=26 v=0
9319728 On ch=3 n=26 v=100
9319745 On ch=3 n=17 v=100
9320135 Off ch=3 n=26 v=0
9320192 Off ch=3 n=17 v=0
9321366 On ch=3 n=24 v=100
9321432 On ch=3 n=28 v=100
9321473 On ch=3 n=30 v=100
9321597 Off ch=3 n=24 v=0
9321692 Off ch=3 n=28 v=0
9321907 Off ch=3 n=30 v=0
9322223 On ch=3 n=25 v=100
9322350 Off ch=3 n=25 v=0
9322819 On ch=3 n=24 v=100
9322890 Off ch=3 n=24 v=0
9322921 On ch=3 n=17 v=100
9323185 Off ch=3 n=17 v=0
9323192 On ch=3 n=13 v=100
9323192 On ch=3 n=40 v=100
9323405 Off ch=3 n=13 v=0
9323436 On ch=3 n=7 v=100
9323573 Off ch=3 n=40 v=0
9323824 On ch=3 n=21 v=100
9324045 On ch=3 n=12 v=100
9324051 Off ch=3 n=7 v=0
9324071 On ch=3 n=24 v=100
9324080 Off ch=3 n=21 v=0
9324417 Off ch=3 n=12 v=0
9324555 Off ch=3 n=24 v=0
9325222 On ch=3 n=36 v=100
9325357 Off ch=3 n=36 v=0
9325383 On ch=3 n=28 v=100
9325422 On ch=3 n=37 v=100
9325482 Off ch=3 n=28 v=0
9325531 Off ch=3 n=37 v=0
9325926 On ch=3 n=35 v=100
9326001 On ch=3 n=26 v=100
9326094 On ch=3 n=31 v=100
9326140 Off ch=3 n=35 v=0
9326141 Off ch=3 n=26 v=0
9326150 On ch=3 n=29 v=100
9326247 Off ch=3 n=31 v=0
9326247 Off ch=3 n=29 v=0
9326298 On ch=3 n=31 v=100
9326298 On ch=3 n=29 v=100
9326352 Off ch=3 n=31 v=0
9326426 Off ch=3 n=29 v=0
9327555 On ch=3 n=22 v=100
9327555 On ch=3 n=7 v=100
9327666 Off ch=3 n=7 v=0
9327719 Off ch=3 n=22 v=0
9327772 On ch=3 n=12 v=100
9328321 Off ch=3 n=12 v=0
9328328 On ch=3 n=8 v=100
9328368 On ch=3 n=6 v=100
9328374 Off ch=3 n=8 v=0
9329356 On ch=3 n=11 v=100
9329359 Off ch=3 n=6 v=0
9329496 Off ch=3 n=11 v=0
9331113 On ch=3 n=38 v=100
9331187 On ch=3 n=31 v=100
9331187 On ch=3 n=31 v=100
9331232 On ch=3 n=20 v=100
9331402 On ch=3 n=29 v=100
9331509 On ch=3 n=31 v=100
9331533 Off ch=3 n=20 v=0
9331538 Off ch=3 n=38 v=0
9331559 Off ch=3 n=31 v=0
9331559 Off ch=3 n=31 v=0
9331637 Off ch=3 n=29 v=0
9331931 On ch=3 n=10 v=100
9331981 On ch=3 n=24 v=100
9331990 Off ch=3 n=31 v=0
9332090 Off ch=3 n=10 v=0
9332111 Off ch=3 n=24 v=0
9332146 On ch=3 n=24 v=100
9332193 On ch=3 n=25 v=100
9332193 On ch=3 n=25 v=100
9332252 On ch=3 n=12 v=100
9332257 On ch=3 n=20 v=100
9332395 Off ch=3 n=24 v=0
9332415 Off ch=3 n=12 v=0
9332448 On ch=3 n=40 v=100
9332465 Off ch=3 n=25 v=0
9332465 Off ch=3 n=25 v=0
9332576 Off ch=3 n=20 v=0
9332665 Off ch=3 n=40 v=0
9336178 On ch=3 n=19 v=100
9336178 On ch=3 n=12 v=100
9336723 Off ch=3 n=12 v=0
9336788 Off ch=3 n=19 v=0
9336810 On ch=3 n=16 v=100
9336943 On ch=3 n=28 v=100
9337061 Off ch=3 n=16 v=0
9337088 On ch=3 n=25 v=100
9337448 Off ch=3 n=28 v=0
9337449 Off ch=3 n=25 v=0
9338033 On ch=3 n=7 v=100
9338040 On ch=3 n=16 v=100
9338111 Off ch=3 n=7 v=0
9338112 On ch=3 n=24 v=100
9338114 On ch=3 n=35 v=100
9338120 Off ch=3 n=16 v=0
9338154 Off ch=3 n=24 v=0
9338180 Off ch=3 n=35 v=0
9338480 On ch=3 n=26 v=100
9338562 On ch=3 n=39 v=100
9338562 Off ch=3 n=26 v=0
9338696 Off ch=3 n=39 v=0
9338745 On ch=3 n=10 v=100
9339139 On ch=3 n=15 v=100
9339144 Off ch=3 n=10 v=0
9339149 On ch=3 n=23 v=100
9339519 Off ch=3 n=15 v=0
9339563 Off ch=3 n=23 v=0
9340876 On ch=3 n=17 v=100
9340914 On ch=3 n=10 v=100
9341046 On ch=3 n=21 v=100
9341216 Off ch=3 n=17 v=0
9341216 Off ch=3 n=10 v=0
9341385 Off ch=3 n=21 v=0
9341518 On ch=3 n=21 v=100
9341559 Off ch=3 n=21 v=0
9341563 On ch=3 n=20 v=100
9341620 Off ch=3 n=20 v=0
9343037 On ch=3 n=9 v=100
9344108 Off ch=3 n=9 v=0
9345116 On ch=3 n=21 v=100
9345139 Off ch=3 n=21 v=0
9345201 On ch=3 n=13 v=100
9345202 On ch=3 n=21 v=100
9345275 Off ch=3 n=21 v=0
9345424 Off ch=3 n=13 v=0
9345491 On ch=3 n=15 v=100
9345551 On ch=3 n=13 v=100
9345669 Off ch=3 n=15 v=0
9345903 On ch=3 n=11 v=100
9345909 Off ch=3 n=13 v=0
9346475 Off ch=3 n=11 v=0
9347466 On ch=3 n=33 v=100
9347562 Off ch=3 n=33 v=0
9347607 On ch=3 n=33 v=100
9347638 Off ch=3 n=33 v=0
9347669 On ch=3 n=9 v=100
9347766 On ch=3 n=27 v=100
9347833 On ch=3 n=25 v=100
9347833 On ch=3 n=25 v=100
9347850 Off ch=3 n=9 v=0
9348213 Off ch=3 n=27 v=0
9348219 On ch=3 n=14 v=100
9348267 Off ch=3 n=25 v=0
9348267 Off ch=3 n=25 v=0
9348790 Off ch=3 n=14 v=0
9348877 On ch=3 n=17 v=100
9349019 Off ch=3 n=17 v=0
9349030 On ch=3 n=22 v=100
9349182 Off ch=3 n=22 v=0
9349205 On ch=3 n=25 v=100
9349600 Off ch=3 n=25 v=0
9349708 On ch=3 n=27 v=100
9349744 On ch=3 n=20 v=100
9350038 Off ch=3 n=20 v=0
9350073 Off ch=3 n=27 v=0
9350131 On ch=3 n=20 v=100
9350331 Off ch=3 n=20 v=0
9350408 On ch=3 n=32 v=100
9350411 On ch=3 n=31 v=100
9350613 Off ch=3 n=32 v=0
9350638 Off ch=3 n=31 v=0
9353358 On ch=3 n=36 v=100
9353491 Off ch=3 n=36 v=0
9353930 On ch=3 n=11 v=100
9354303 Off ch=3 n=11 v=0
9354315 On ch=3 n=20 v=100
9354336 Off ch=3 n=20 v=0
9354406 On ch=3 n=20 v=100
9354406 On ch=3 n=9 v=100
9354533 Off ch=3 n=20 v=0
9355021 Off ch=3 n=9 v=0
9355023 On ch=3 n=13 v=100
9355133 On ch=3 n=15 v=100
9355221 On ch=3 n=6 v=100
9355225 Off ch=3 n=13 v=0
9355718 Off ch=3 n=15 v=0
9355737 Off ch=3 n=6 v=0
9355864 On ch=3 n=19 v=100
9355904 Off ch=3 n=19 v=0
9355935 On ch=3 n=13 v=100
9355938 On ch=3 n=25 v=100
9356076 Off ch=3 n=13 v=0
9356077 Off ch=3 n=25 v=0
9356126 On ch=3 n=25 v=100
9356169 Off ch=3 n=25 v=0
9358713 On ch=3 n=9 v=100
9358836 Off ch=3 n=9 v=0
9358913 On ch=3 n=20 v=100
9358974 On ch=3 n=12 v=100
9359104 Off ch=3 n=20 v=0
9359145 Off ch=3 n=12 v=0
9359894 On ch=3 n=35 v=100
9360486 On ch=3 n=26 v=100
9360656 Off ch=3 n=35 v=0
9360677 Off ch=3 n=26 v=0
9360969 On ch=3 n=15 v=100
9361259 On ch=3 n=10 v=100
9361948 Off ch=3 n=15 v=0
9361953 Off ch=3 n=10 v=0
9362643 On ch=3 n=7 v=100
9363496 Off ch=3 n=7 v=0
9363498 On ch=3 n=9 v=100
9363747 Off ch=3 n=9 v=0
9367125 On ch=3 n=47 v=100
9367125 On ch=3 n=47 v=100
9367211 On ch=3 n=41 v=100
9367245 On ch=3 n=30 v=100
9367245 On ch=3 n=30 v=100
9367262 On ch=3 n=24 v=100
9367277 On ch=3 n=37 v=100
9367277 On ch=3 n=37 v=100
9367290 On ch=3 n=7 v=100
9367446 Off ch=3 n=7 v=0
9367451 Off ch=3 n=41 v=0
9367455 Off ch=3 n=24 v=0
9367485 Off ch=3 n=30 v=0
9367485 Off ch=3 n=30 v=0
9367496 Off ch=3 n=47 v=0
9367496 Off ch=3 n=47 v=0
9367523 Off ch=3 n=37 v=0
9367523 Off ch=3 n=37 v=0
9368897 On ch=3 n=26 v=100
9368935 Off ch=3 n=26 v=0
9368969 On ch=3 n=9 v=100
9369110 On ch=3 n=51 v=100
9369244 On ch=3 n=9 v=100
9369245 Off ch=3 n=9 v=0
9369844 Off ch=3 n=9 v=0
9369845 Off ch=3 n=51 v=0
9369846 On ch=3 n=5 v=100
9369971 Off ch=3 n=5 v=0
9370015 On ch=3 n=5 v=100
9370029 On ch=3 n=26 v=100
9370123 Off ch=3 n=5 v=0
9370133 Off ch=3 n=26 v=0
9370211 On ch=3 n=26 v=100
9370211 On ch=3 n=7 v=100
9370280 Off ch=3 n=26 v=0
9371347 On ch=3 n=16 v=100
9371348 Off ch=3 n=7 v=0
9371433 Off ch=3 n=16 v=0
9371499 On ch=3 n=16 v=100
9371554 On ch=3 n=6 v=100
9371844 Off ch=3 n=16 v=0
9372582 On ch=3 n=5 v=100
9372584 Off ch=3 n=6 v=0
9372797 Off ch=3 n=5 v=0
9372825 On ch=3 n=5 v=100
9372990 On ch=3 n=9 v=100
9372991 Off ch=3 n=5 v=0
9373178 On ch=3 n=13 v=100
9373180 Off ch=3 n=9 v=0
9373636 Off ch=3 n=13 v=0
9375846 On ch=3 n=7 v=100
9375900 Off ch=3 n=7 v=0
9376813 On ch=3 n=39 v=100
9376924 Off ch=3 n=39 v=0
9377951 On ch=3 n=12 v=100
9378337 Off ch=3 n=12 v=0
9378445 On ch=3 n=12 v=100
9378693 Off ch=3 n=12 v=0
9378695 On ch=3 n=6 v=100
9378763 Off ch=3 n=6 v=0
9378945 On ch=3 n=9 v=100
9379039 Off ch=3 n=9 v=0
9379770 On ch=3 n=25 v=100
9379946 Off ch=3 n=25 v=0
9379977 On ch=3 n=38 v=100
9380213 On ch=3 n=6 v=100
9380641 Off ch=3 n=6 v=0
9380704 On ch=3 n=13 v=100
9380897 Off ch=3 n=38 v=0
9381024 Off ch=3 n=13 v=0
9381076 On ch=3 n=13 v=100
9381172 Off ch=3 n=13 v=0
9382749 On ch=3 n=24 v=100
9382786 On ch=3 n=11 v=100
9383010 Off ch=3 n=11 v=0
9383014 Off ch=3 n=24 v=0
9383041 On ch=3 n=10 v=100
9383593 On ch=3 n=20 v=100
9383745 Off ch=3 n=10 v=0
9383746 On ch=3 n=12 v=100
9383882 Off ch=3 n=20 v=0
9384366 On ch=3 n=25 v=100
9384409 Off ch=3 n=12 v=0
9384416 Off ch=3 n=25 v=0
9386342 On ch=3 n=11 v=100
9386855 On ch=3 n=37 v=100
9386865 Off ch=3 n=11 v=0
9386894 On ch=3 n=21 v=100
9386908 Off ch=3 n=37 v=0
9386908 Off ch=3 n=21 v=0
9387005 On ch=3 n=25 v=100
9387005 On ch=3 n=24 v=100
9387054 Off ch=3 n=25 v=0
9387077 On ch=3 n=9 v=100
9387078 Off ch=3 n=24 v=0
9387408 Off ch=3 n=9 v=0
9387409 On ch=3 n=11 v=100
9387605 Off ch=3 n=11 v=0
9387607 On ch=3 n=17 v=100
9387918 Off ch=3 n=17 v=0
9388887 On ch=3 n=3 v=100
9389114 On ch=3 n=7 v=100
9389117 Off ch=3 n=3 v=0
9389734 Off ch=3 n=7 v=0
9389736 On ch=3 n=3 v=100
9390129 Off ch=3 n=3 v=0
9390154 On ch=3 n=5 v=100
9390193 Off ch=3 n=5 v=0
9390254 On ch=3 n=5 v=100
9390254 On ch=3 n=4 v=100
9390267 Off ch=3 n=5 v=0
9390669 Off ch=3 n=4 v=0
9390718 On ch=3 n=6 v=100
9391264 Off ch=3 n=6 v=0
9391331 On ch=3 n=8 v=100
9391805 Off ch=3 n=8 v=0
9391956 On ch=3 n=8 v=100
9391985 Off ch=3 n=8 v=0
9391987 On ch=3 n=28 v=100
9392156 Off ch=3 n=28 v=0
9393444 On ch=3 n=18 v=100
9393574 On ch=3 n=12 v=100
9393777 Off ch=3 n=18 v=0
9393794 Off ch=3 n=12 v=0
9393796 On ch=3 n=11 v=100
9393981 On ch=3 n=6 v=100
9393982 Off ch=3 n=11 v=0
9394121 Off ch=3 n=6 v=0
9394202 On ch=3 n=11 v=100
9394398 Off ch=3 n=11 v=0
9394400 On ch=3 n=21 v=100
9394586 Off ch=3 n=21 v=0
9394719 On ch=3 n=18 v=100
9394866 Off ch=3 n=18 v=0
9395971 On ch=3 n=27 v=100
9395971 On ch=3 n=27 v=100
9396001 On ch=3 n=32 v=100
9396021 On ch=3 n=20 v=100
9396049 On ch=3 n=14 v=100
9396049 On ch=3 n=14 v=100
9396051 On ch=3 n=21 v=100
9396051 On ch=3 n=21 v=100
9396107 Off ch=3 n=27 v=0
9396107 Off ch=3 n=27 v=0
9396188 Off ch=3 n=32 v=0
9396268 Off ch=3 n=14 v=0
9396268 Off ch=3 n=14 v=0
9396269 Off ch=3 n=20 v=0
9396438 On ch=3 n=33 v=100
9396445 Off ch=3 n=21 v=0
9396445 Off ch=3 n=21 v=0
9396687 Off ch=3 n=33 v=0
9396858 On ch=3 n=16 v=100
9397329 Off ch=3 n=16 v=0
9397332 On ch=3 n=14 v=100
9397951 Off ch=3 n=14 v=0
9397981 On ch=3 n=15 v=100
9398063 Off ch=3 n=15 v=0
9398340 On ch=3 n=16 v=100
9398485 On ch=3 n=15 v=100
9398486 Off ch=3 n=16 v=0
9398501 On ch=3 n=12 v=100
9398582 Off ch=3 n=15 v=0
9398612 On ch=3 n=18 v=100
9398634 Off ch=3 n=12 v=0
9398660 On ch=3 n=26 v=100
9398800 Off ch=3 n=18 v=0
9398848 Off ch=3 n=26 v=0
9400815 On ch=3 n=36 v=100
9400983 Off ch=3 n=36 v=0
9401233 On ch=3 n=9 v=100
9401822 Off ch=3 n=9 v=0
9402278 On ch=3 n=20 v=100
9402402 Off ch=3 n=20 v=0
9403416 On ch=3 n=24 v=100
9403788 Off ch=3 n=24 v=0
9403880 On ch=3 n=6 v=100
9404044 Off ch=3 n=6 v=0
9404083 On ch=3 n=11 v=100
9404724 Off ch=3 n=11 v=0
9404776 On ch=3 n=41 v=100
9404849 On ch=3 n=30 v=100
9405016 Off ch=3 n=41 v=0
9405017 Off ch=3 n=30 v=0
9405295 On ch=3 n=28 v=100
9405359 Off ch=3 n=28 v=0
9405980 On ch=3 n=19 v=100
9406269 Off ch=3 n=19 v=0
9406449 On ch=3 n=22 v=100
9406513 Off ch=3 n=22 v=0
9408018 On ch=3 n=25 v=100
9408079 On ch=3 n=35 v=100
9408079 On ch=3 n=40 v=100
9408200 Off ch=3 n=25 v=0
9408249 Off ch=3 n=35 v=0
9408272 On ch=3 n=26 v=100
9408272 On ch=3 n=26 v=100
9408279 Off ch=3 n=40 v=0
9408295 On ch=3 n=19 v=100
9408332 On ch=3 n=15 v=100
9408360 On ch=3 n=12 v=100
9408471 Off ch=3 n=19 v=0
9408474 Off ch=3 n=15 v=0
9408476 Off ch=3 n=12 v=0
9408557 Off ch=3 n=26 v=0
9408557 Off ch=3 n=26 v=0
9408575 On ch=3 n=6 v=100
9408848 Off ch=3 n=6 v=0
9408850 On ch=3 n=9 v=100
9408905 Off ch=3 n=9 v=0
9409983 On ch=3 n=43 v=100
9409986 On ch=3 n=33 v=100
9410064 On ch=3 n=35 v=100
9410071 Off ch=3 n=33 v=0
9410125 Off ch=3 n=35 v=0
9410186 On ch=3 n=39 v=100
9410310 Off ch=3 n=43 v=0
9410328 On ch=3 n=30 v=100
9410412 Off ch=3 n=39 v=0
9410426 Off ch=3 n=30 v=0
9410708 On ch=3 n=36 v=100
9410812 On ch=3 n=43 v=100
9410816 On ch=3 n=31 v=100
9410825 Off ch=3 n=36 v=0
9410896 Off ch=3 n=31 v=0
9410957 Off ch=3 n=43 v=0
9414234 On ch=3 n=12 v=100
9414541 Off ch=3 n=12 v=0
9414616 On ch=3 n=13 v=100
9414855 Off ch=3 n=13 v=0
9414938 On ch=3 n=13 v=100
9415320 Off ch=3 n=13 v=0
9415354 On ch=3 n=13 v=100
9415656 Off ch=3 n=13 v=0
9417097 On ch=3 n=15 v=100
9417286 Off ch=3 n=15 v=0
9417661 On ch=3 n=9 v=100
9417973 Off ch=3 n=9 v=0
9417977 On ch=3 n=9 v=100
9418664 Off ch=3 n=9 v=0
9418905 On ch=3 n=32 v=100
9418920 On ch=3 n=24 v=100
9419018 Off ch=3 n=32 v=0
9419018 Off ch=3 n=24 v=0
9419045 On ch=3 n=32 v=100
9419045 On ch=3 n=24 v=100
9419064 Off ch=3 n=32 v=0
9419087 Off ch=3 n=24 v=0
9419961 On ch=3 n=26 v=100
9420025 On ch=3 n=27 v=100
9420064 On ch=3 n=16 v=100
9420257 Off ch=3 n=26 v=0
9420272 Off ch=3 n=16 v=0
9420276 Off ch=3 n=27 v=0
9420301 On ch=3 n=17 v=100
9420352 On ch=3 n=20 v=100
9420352 On ch=3 n=20 v=100
9420396 On ch=3 n=17 v=100
9420454 On ch=3 n=16 v=100
9420807 Off ch=3 n=17 v=0
9420859 Off ch=3 n=17 v=0
9420872 Off ch=3 n=20 v=0
9420872 Off ch=3 n=20 v=0
9420894 Off ch=3 n=16 v=0
9420911 On ch=3 n=8 v=100
9420992 On ch=3 n=2 v=100
9420999 Off ch=3 n=8 v=0
9421224 Off ch=3 n=2 v=0
9421229 On ch=3 n=13 v=100
9421401 On ch=3 n=15 v=100
9421406 Off ch=3 n=13 v=0
9421643 On ch=3 n=17 v=100
9421661 Off ch=3 n=15 v=0
9421837 On ch=3 n=28 v=100
9421839 On ch=3 n=8 v=100
9421860 Off ch=3 n=17 v=0
9422078 On ch=3 n=18 v=100
9422078 Off ch=3 n=8 v=0
9422113 On ch=3 n=14 v=100
9422114 Off ch=3 n=28 v=0
9422121 Off ch=3 n=18 v=0
9422311 Off ch=3 n=14 v=0
9423492 On ch=3 n=25 v=100
9423602 On ch=3 n=27 v=100
9423678 On ch=3 n=41 v=100
9423910 Off ch=3 n=25 v=0
9424005 Off ch=3 n=27 v=0
9424176 On ch=3 n=17 v=100
9424360 On ch=3 n=22 v=100
9424363 Off ch=3 n=41 v=0
9424547 On ch=3 n=25 v=100
9424684 Off ch=3 n=17 v=0
9425098 Off ch=3 n=22 v=0
9425112 On ch=3 n=44 v=100
9425186 Off ch=3 n=25 v=0
9425190 Off ch=3 n=44 v=0
9425304 On ch=3 n=44 v=100
9425368 On ch=3 n=12 v=100
9425383 Off ch=3 n=44 v=0
9425873 Off ch=3 n=12 v=0
9425958 On ch=3 n=19 v=100
9426032 On ch=3 n=15 v=100
9426046 On ch=3 n=23 v=100
9426049 On ch=3 n=23 v=100
9426349 Off ch=3 n=19 v=0
9426397 Off ch=3 n=15 v=0
9426464 Off ch=3 n=23 v=0
9426533 Off ch=3 n=23 v=0
9427929 On ch=3 n=10 v=100
9428569 On ch=3 n=19 v=100
9428620 Off ch=3 n=10 v=0
9428816 Off ch=3 n=19 v=0
9429281 On ch=3 n=28 v=100
9429458 Off ch=3 n=28 v=0
9430921 On ch=3 n=18 v=100
9431020 Off ch=3 n=18 v=0
9431069 On ch=3 n=6 v=100
9431553 Off ch=3 n=6 v=0
9431557 On ch=3 n=4 v=100
9431785 On ch=3 n=4 v=100
9431787 Off ch=3 n=4 v=0
9432151 Off ch=3 n=4 v=0
9432214 On ch=3 n=30 v=100
9432485 Off ch=3 n=30 v=0
9432822 On ch=3 n=25 v=100
9433041 Off ch=3 n=25 v=0
9433456 On ch=3 n=29 v=100
9433474 On ch=3 n=10 v=100
9433474 On ch=3 n=40 v=100
9433569 Off ch=3 n=29 v=0
9433575 Off ch=3 n=10 v=0
9433598 Off ch=3 n=40 v=0
9433606 On ch=3 n=14 v=100
9434751 Off ch=3 n=14 v=0
9437040 On ch=3 n=12 v=100
9437172 Off ch=3 n=12 v=0
9437180 On ch=3 n=16 v=100
9437387 Off ch=3 n=16 v=0
9437481 On ch=3 n=16 v=100
9437481 On ch=3 n=20 v=100
9437481 On ch=3 n=35 v=100
9437510 Off ch=3 n=16 v=0
9437595 Off ch=3 n=20 v=0
9437677 Off ch=3 n=35 v=0
9437719 On ch=3 n=11 v=100
9438774 Off ch=3 n=11 v=0
9438783 On ch=3 n=14 v=100
9438998 Off ch=3 n=14 v=0
9439267 On ch=3 n=8 v=100
9439682 Off ch=3 n=8 v=0
9441176 On ch=3 n=10 v=100
9441352 Off ch=3 n=10 v=0
9441961 On ch=3 n=23 v=100
9442015 On ch=3 n=10 v=100
9442076 Off ch=3 n=23 v=0
9442112 Off ch=3 n=10 v=0
9442165 On ch=3 n=10 v=100
9442570 Off ch=3 n=10 v=0
9443560 On ch=3 n=9 v=100
9443757 Off ch=3 n=9 v=0
9444125 On ch=3 n=37 v=100
9444323 On ch=3 n=34 v=100
9444462 Off ch=3 n=37 v=0
9444512 On ch=3 n=10 v=100
9444530 Off ch=3 n=34 v=0
9444678 Off ch=3 n=10 v=0
9444689 On ch=3 n=11 v=100
9444720 Off ch=3 n=11 v=0
9444808 On ch=3 n=11 v=100
9445569 Off ch=3 n=11 v=0
9446065 On ch=3 n=24 v=100
9446199 Off ch=3 n=24 v=0
9446682 On ch=3 n=18 v=100
9447014 Off ch=3 n=18 v=0
9447204 On ch=3 n=20 v=100
9447336 On ch=3 n=21 v=100
9447808 Off ch=3 n=20 v=0
9447879 Off ch=3 n=21 v=0
9447893 On ch=3 n=16 v=100
9448197 Off ch=3 n=16 v=0
9448203 On ch=3 n=19 v=100
9448446 Off ch=3 n=19 v=0
9448488 On ch=3 n=25 v=100
9448970 Off ch=3 n=25 v=0
9450665 On ch=3 n=11 v=100
9451405 On ch=3 n=35 v=100
9451468 On ch=3 n=33 v=100
9451510 On ch=3 n=19 v=100
9451525 Off ch=3 n=11 v=0
9451545 Off ch=3 n=35 v=0
9451545 Off ch=3 n=33 v=0
9451613 On ch=3 n=26 v=100
9451736 Off ch=3 n=19 v=0
9451739 On ch=3 n=45 v=100
9451740 On ch=3 n=14 v=100
9451929 On ch=3 n=12 v=100
9451933 Off ch=3 n=14 v=0
9451938 Off ch=3 n=26 v=0
9452013 Off ch=3 n=45 v=0
9452366 Off ch=3 n=12 v=0
9453983 On ch=3 n=25 v=100
9454229 Off ch=3 n=25 v=0
9454289 On ch=3 n=16 v=100
9454485 Off ch=3 n=16 v=0
9454521 On ch=3 n=18 v=100
9454554 Off ch=3 n=18 v=0
9454605 On ch=3 n=18 v=100
9454606 On ch=3 n=11 v=100
9454856 On ch=3 n=20 v=100
9454876 Off ch=3 n=18 v=0
9454892 Off ch=3 n=11 v=0
9454904 On ch=3 n=12 v=100
9454914 On ch=3 n=23 v=100
9454934 On ch=3 n=26 v=100
9455128 Off ch=3 n=20 v=0
9455240 Off ch=3 n=12 v=0
9455389 Off ch=3 n=23 v=0
9455453 Off ch=3 n=26 v=0
9457484 On ch=3 n=22 v=100
9457875 Off ch=3 n=22 v=0
9457878 On ch=3 n=15 v=100
9458214 On ch=3 n=10 v=100
9458251 Off ch=3 n=15 v=0
9459101 Off ch=3 n=10 v=0
9459562 On ch=3 n=21 v=100
9459784 On ch=3 n=32 v=100
9459968 Off ch=3 n=21 v=0
9459974 On ch=3 n=45 v=100
9460015 Off ch=3 n=32 v=0
9460026 Off ch=3 n=45 v=0
9461539 On ch=3 n=9 v=100
9461863 Off ch=3 n=9 v=0
9461878 On ch=3 n=8 v=100
9462943 On ch=3 n=17 v=100
9463020 Off ch=3 n=8 v=0
9463034 Off ch=3 n=17 v=0
9464155 On ch=3 n=8 v=100
9464466 Off ch=3 n=8 v=0
9464565 On ch=3 n=23 v=100
9464849 On ch=3 n=50 v=100
9464988 Off ch=3 n=23 v=0
9465030 Off ch=3 n=50 v=0
9466593 On ch=3 n=5 v=100
9467127 On ch=3 n=3 v=100
9467130 Off ch=3 n=5 v=0
9467511 On ch=3 n=36 v=100
9467631 Off ch=3 n=3 v=0
9467631 Off ch=3 n=36 v=0
9467778 On ch=3 n=36 v=100
9467794 On ch=3 n=8 v=100
9467871 Off ch=3 n=36 v=0
9469021 Off ch=3 n=8 v=0
9470633 On ch=3 n=43 v=100
9470636 On ch=3 n=20 v=100
9470695 On ch=3 n=12 v=100
9470716 Off ch=3 n=20 v=0
9470820 Off ch=3 n=43 v=0
9471702 Off ch=3 n=12 v=0
9471717 On ch=3 n=8 v=100
9471724 On ch=3 n=7 v=100
9471767 Off ch=3 n=8 v=0
9471775 Off ch=3 n=7 v=0
9473252 On ch=3 n=31 v=100
9473280 On ch=3 n=28 v=100
9473305 Off ch=3 n=31 v=0
9473391 Off ch=3 n=28 v=0
9473392 On ch=3 n=25 v=100
9473451 Off ch=3 n=25 v=0
9473551 On ch=3 n=11 v=100
9474151 Off ch=3 n=11 v=0
9474155 On ch=3 n=13 v=100
9474546 Off ch=3 n=13 v=0
9474560 On ch=3 n=41 v=100
9474633 Off ch=3 n=41 v=0
9474895 On ch=3 n=15 v=100
9474989 Off ch=3 n=15 v=0
9475895 On ch=3 n=41 v=100
9476396 On ch=3 n=14 v=100
9476443 On ch=3 n=20 v=100
9476497 Off ch=3 n=41 v=0
9476497 Off ch=3 n=14 v=0
9476497 Off ch=3 n=20 v=0
9476624 On ch=3 n=41 v=100
9476624 On ch=3 n=12 v=100
9476624 On ch=3 n=20 v=100
9476633 On ch=3 n=17 v=100
9476639 On ch=3 n=7 v=100
9476703 On ch=3 n=32 v=100
9477019 Off ch=3 n=41 v=0
9477019 Off ch=3 n=7 v=0
9477045 Off ch=3 n=12 v=0
9477104 Off ch=3 n=20 v=0
9477120 Off ch=3 n=17 v=0
9477156 Off ch=3 n=32 v=0
9477248 On ch=3 n=32 v=100
9477336 Off ch=3 n=32 v=0
9477378 On ch=3 n=27 v=100
9477378 On ch=3 n=32 v=100
9477405 On ch=3 n=18 v=100
9477473 On ch=3 n=22 v=100
9477523 Off ch=3 n=32 v=0
9477824 Off ch=3 n=27 v=0
9477878 Off ch=3 n=18 v=0
9477985 Off ch=3 n=22 v=0
9478862 On ch=3 n=12 v=100
9478862 On ch=3 n=12 v=100
9479020 On ch=3 n=18 v=100
9479062 On ch=3 n=10 v=100
9479062 On ch=3 n=10 v=100
9479062 Off ch=3 n=12 v=0
9479062 Off ch=3 n=12 v=0
9479246 Off ch=3 n=18 v=0
9479601 On ch=3 n=12 v=100
9479609 Off ch=3 n=10 v=0
9479609 Off ch=3 n=10 v=0
9480009 Off ch=3 n=12 v=0
9480054 On ch=3 n=32 v=100
9480054 On ch=3 n=12 v=100
9480182 Off ch=3 n=12 v=0
9480196 Off ch=3 n=32 v=0
9480300 On ch=3 n=32 v=100
9480317 Off ch=3 n=32 v=0
9480536 On ch=3 n=6 v=100
9480686 On ch=3 n=5 v=100
9480689 Off ch=3 n=6 v=0
9481182 Off ch=3 n=5 v=0
9482245 On ch=3 n=61 v=100
9482245 On ch=3 n=61 v=100
9482256 On ch=3 n=28 v=100
9482319 Off ch=3 n=28 v=0
9482344 Off ch=3 n=61 v=0
9482344 Off ch=3 n=61 v=0
9484345 On ch=3 n=14 v=100
9484531 On ch=3 n=14 v=100
9484532 Off ch=3 n=14 v=0
9484706 On ch=3 n=23 v=100
9484870 Off ch=3 n=14 v=0
9484903 Off ch=3 n=23 v=0
9485060 On ch=3 n=32 v=100
9485060 On ch=3 n=32 v=100
9485082 On ch=3 n=6 v=100
9485090 On ch=3 n=39 v=100
9485263 Off ch=3 n=6 v=0
9485286 Off ch=3 n=32 v=0
9485286 Off ch=3 n=32 v=0
9485333 Off ch=3 n=39 v=0
9485509 On ch=3 n=7 v=100
9485929 On ch=3 n=56 v=100
9486051 Off ch=3 n=7 v=0
9486055 On ch=3 n=7 v=100
9486411 Off ch=3 n=56 v=0
9486479 Off ch=3 n=7 v=0
9486547 On ch=3 n=7 v=100
9486723 Off ch=3 n=7 v=0
9486888 On ch=3 n=12 v=100
9487079 Off ch=3 n=12 v=0
9487797 On ch=3 n=32 v=100
9487835 On ch=3 n=24 v=100
9487858 On ch=3 n=38 v=100
9487968 Off ch=3 n=24 v=0
9487969 Off ch=3 n=32 v=0
9487996 Off ch=3 n=38 v=0
9488909 On ch=3 n=9 v=100
9489015 On ch=3 n=13 v=100
9489018 Off ch=3 n=9 v=0
9489356 Off ch=3 n=13 v=0
9489839 On ch=3 n=7 v=100
9489898 Off ch=3 n=7 v=0
9490471 On ch=3 n=23 v=100
9490622 On ch=3 n=13 v=100
9490633 Off ch=3 n=23 v=0
9491272 Off ch=3 n=13 v=0
9491853 On ch=3 n=38 v=100
9491905 On ch=3 n=28 v=100
9491915 On ch=3 n=39 v=100
9492044 Off ch=3 n=28 v=0
9492052 Off ch=3 n=38 v=0
9492081 Off ch=3 n=39 v=0
9492807 On ch=3 n=8 v=100
9493199 Off ch=3 n=8 v=0
9493207 On ch=3 n=12 v=100
9493893 On ch=3 n=15 v=100
9493937 On ch=3 n=14 v=100
9493940 Off ch=3 n=12 v=0
9493996 On ch=3 n=22 v=100
9493996 On ch=3 n=11 v=100
9494153 On ch=3 n=19 v=100
9494162 Off ch=3 n=14 v=0
9494179 Off ch=3 n=15 v=0
9494194 On ch=3 n=24 v=100
9494212 Off ch=3 n=11 v=0
9494258 On ch=3 n=13 v=100
9494258 On ch=3 n=13 v=100
9494291 Off ch=3 n=22 v=0
9494331 On ch=3 n=8 v=100
9494332 Off ch=3 n=19 v=0
9494699 Off ch=3 n=8 v=0
9494700 Off ch=3 n=24 v=0
9494712 Off ch=3 n=13 v=0
9494712 Off ch=3 n=13 v=0
9494737 On ch=3 n=13 v=100
9494912 Off ch=3 n=13 v=0
9495131 On ch=3 n=20 v=100
9495131 On ch=3 n=21 v=100
9495196 Off ch=3 n=20 v=0
9495244 Off ch=3 n=21 v=0
9496257 On ch=3 n=18 v=100
9496376 Off ch=3 n=18 v=0
9496378 On ch=3 n=6 v=100
9496448 Off ch=3 n=6 v=0
9496568 On ch=3 n=19 v=100
9496906 On ch=3 n=29 v=100
9497041 Off ch=3 n=19 v=0
9497244 Off ch=3 n=29 v=0
9497297 On ch=3 n=5 v=100
9497425 Off ch=3 n=5 v=0
9497524 On ch=3 n=29 v=100
9497695 Off ch=3 n=29 v=0
9497707 On ch=3 n=19 v=100
9497839 Off ch=3 n=19 v=0
9497849 On ch=3 n=7 v=100
9498105 On ch=3 n=39 v=100
9498154 On ch=3 n=27 v=100
9498237 Off ch=3 n=7 v=0
9498274 On ch=3 n=20 v=100
9498281 On ch=3 n=25 v=100
9498291 On ch=3 n=45 v=100
9498293 Off ch=3 n=39 v=0
9498293 Off ch=3 n=27 v=0
9498375 Off ch=3 n=25 v=0
9498400 Off ch=3 n=20 v=0
9498496 Off ch=3 n=45 v=0
9499583 On ch=3 n=18 v=100
9499764 Off ch=3 n=18 v=0
9499767 On ch=3 n=10 v=100
9499952 Off ch=3 n=10 v=0
9499953 On ch=3 n=10 v=100
9500652 Off ch=3 n=10 v=0
9500706 On ch=3 n=14 v=100
9501339 Off ch=3 n=14 v=0
9501342 On ch=3 n=24 v=100
9501342 On ch=3 n=24 v=100
9501364 On ch=3 n=17 v=100
9501399 On ch=3 n=23 v=100
9501399 On ch=3 n=23 v=100
9501484 Off ch=3 n=24 v=0
9501484 Off ch=3 n=24 v=0
9501602 On ch=3 n=47 v=100
9501602 On ch=3 n=47 v=100
9501788 Off ch=3 n=17 v=0
9501846 Off ch=3 n=23 v=0
9501846 Off ch=3 n=23 v=0
9502177 Off ch=3 n=47 v=0
9502177 Off ch=3 n=47 v=0
9503381 On ch=3 n=13 v=100
9503861 Off ch=3 n=13 v=0
9503990 On ch=3 n=35 v=100
9504202 Off ch=3 n=35 v=0
9504233 On ch=3 n=14 v=100
9504493 Off ch=3 n=14 v=0
9504891 On ch=3 n=20 v=100
9505343 Off ch=3 n=20 v=0
9505430 On ch=3 n=20 v=100
9505430 On ch=3 n=16 v=100
9505481 Off ch=3 n=20 v=0
9505527 Off ch=3 n=16 v=0
9506596 On ch=3 n=41 v=100
9506677 Off ch=3 n=41 v=0
9506750 On ch=3 n=19 v=100
9506832 Off ch=3 n=19 v=0
9506955 On ch=3 n=12 v=100
9507361 Off ch=3 n=12 v=0
9507531 On ch=3 n=13 v=100
9507806 On ch=3 n=19 v=100
9507806 On ch=3 n=18 v=100
9507806 Off ch=3 n=13 v=0
9507901 On ch=3 n=13 v=100
9507999 Off ch=3 n=19 v=0
9508086 Off ch=3 n=18 v=0
9508249 Off ch=3 n=13 v=0
9508714 On ch=3 n=32 v=100
9508781 Off ch=3 n=32 v=0
9509280 On ch=3 n=15 v=100
9509373 Off ch=3 n=15 v=0
9509376 On ch=3 n=11 v=100
9509519 Off ch=3 n=11 v=0
9509878 On ch=3 n=21 v=100
9509935 Off ch=3 n=21 v=0
9509986 On ch=3 n=19 v=100
9510248 Off ch=3 n=19 v=0
9510758 On ch=3 n=44 v=100
9510929 Off ch=3 n=44 v=0
9511090 On ch=3 n=22 v=100
9511273 On ch=3 n=25 v=100
9511375 On ch=3 n=16 v=100
9511423 On ch=3 n=8 v=100
9511449 Off ch=3 n=22 v=0
9511604 On ch=3 n=21 v=100
9511607 On ch=3 n=23 v=100
9511609 Off ch=3 n=25 v=0
9511609 Off ch=3 n=16 v=0
9511609 Off ch=3 n=8 v=0
9511709 Off ch=3 n=23 v=0
9511729 Off ch=3 n=21 v=0
9511743 On ch=3 n=23 v=100
9512231 Off ch=3 n=23 v=0
9513084 On ch=3 n=34 v=100
9513221 Off ch=3 n=34 v=0
9513487 On ch=3 n=12 v=100
9514069 On ch=3 n=26 v=100
9514083 On ch=3 n=17 v=100
9514096 Off ch=3 n=12 v=0
9514152 On ch=3 n=29 v=100
9514178 On ch=3 n=3 v=100
9514184 Off ch=3 n=17 v=0
9514185 Off ch=3 n=26 v=0
9514286 Off ch=3 n=29 v=0
9514667 On ch=3 n=29 v=100
9514714 On ch=3 n=5 v=100
9514739 Off ch=3 n=3 v=0
9514958 Off ch=3 n=29 v=0
9515612 On ch=3 n=41 v=100
9515720 Off ch=3 n=5 v=0
9515825 On ch=3 n=23 v=100
9515871 Off ch=3 n=41 v=0
9516295 Off ch=3 n=23 v=0
9522436 On ch=3 n=21 v=100
9522493 Off ch=3 n=21 v=0
9522495 On ch=3 n=19 v=100
9522576 Off ch=3 n=19 v=0
9522579 On ch=3 n=11 v=100
9523010 Off ch=3 n=11 v=0
9523081 On ch=3 n=22 v=100
9523137 On ch=3 n=10 v=100
9523156 Off ch=3 n=22 v=0
9523470 Off ch=3 n=10 v=0
9523820 On ch=3 n=9 v=100
9524588 Off ch=3 n=9 v=0
9524602 On ch=3 n=25 v=100
9524736 Off ch=3 n=25 v=0
9524970 On ch=3 n=25 v=100
9525084 On ch=3 n=24 v=100
9525511 Off ch=3 n=25 v=0
9525701 Off ch=3 n=24 v=0
9526104 On ch=3 n=9 v=100
9526540 On ch=3 n=38 v=100
9526541 On ch=3 n=16 v=100
9526643 Off ch=3 n=9 v=0
9526673 Off ch=3 n=16 v=0
9526742 Off ch=3 n=38 v=0
9527809 On ch=3 n=12 v=100
9528065 Off ch=3 n=12 v=0
9529710 On ch=3 n=18 v=100
9529721 Off ch=3 n=18 v=0
9529763 On ch=3 n=18 v=100
9529885 Off ch=3 n=18 v=0
9530162 On ch=3 n=38 v=100
9530163 On ch=3 n=5 v=100
9530249 Off ch=3 n=5 v=0
9530265 On ch=3 n=25 v=100
9530269 Off ch=3 n=38 v=0
9530910 Off ch=3 n=25 v=0
9533312 On ch=3 n=21 v=100
9533608 Off ch=3 n=21 v=0
9533766 On ch=3 n=14 v=100
9534018 Off ch=3 n=14 v=0
9536119 On ch=3 n=10 v=100
9536354 On ch=3 n=46 v=100
9536411 On ch=3 n=7 v=100
9536414 Off ch=3 n=10 v=0
9536464 Off ch=3 n=46 v=0
9537045 On ch=3 n=8 v=100
9537045 On ch=3 n=13 v=100
9537055 Off ch=3 n=7 v=0
9537300 On ch=3 n=5 v=100
9537301 Off ch=3 n=8 v=0
9537343 Off ch=3 n=13 v=0
9537707 On ch=3 n=32 v=100
9537769 On ch=3 n=13 v=100
9537773 Off ch=3 n=5 v=0
9538001 Off ch=3 n=32 v=0
9538004 Off ch=3 n=13 v=0
9538007 On ch=3 n=19 v=100
9538195 Off ch=3 n=19 v=0
9538271 On ch=3 n=38 v=100
9538370 On ch=3 n=29 v=100
9538483 On ch=3 n=28 v=100
9538483 On ch=3 n=24 v=100
9538722 Off ch=3 n=28 v=0
9538735 Off ch=3 n=38 v=0
9538742 Off ch=3 n=29 v=0
9538767 Off ch=3 n=24 v=0
9538970 On ch=3 n=59 v=100
9539531 On ch=3 n=58 v=100
9539659 Off ch=3 n=59 v=0
9540216 Off ch=3 n=58 v=0
9540297 On ch=3 n=52 v=100
9540898 Off ch=3 n=52 v=0
9541735 On ch=3 n=24 v=100
9541848 On ch=3 n=23 v=100
9541852 On ch=3 n=18 v=100
9542106 Off ch=3 n=24 v=0
9542137 Off ch=3 n=18 v=0
9542144 On ch=3 n=12 v=100
9542212 Off ch=3 n=23 v=0
9542378 Off ch=3 n=12 v=0
9543085 On ch=3 n=21 v=100
9543170 On ch=3 n=9 v=100
9543174 Off ch=3 n=21 v=0
9543240 Off ch=3 n=9 v=0
9543250 On ch=3 n=10 v=100
9543587 Off ch=3 n=10 v=0
9543660 On ch=3 n=21 v=100
9543746 Off ch=3 n=21 v=0
9543875 On ch=3 n=10 v=100
9544187 On ch=3 n=29 v=100
9544189 On ch=3 n=15 v=100
9544192 Off ch=3 n=10 v=0
9544273 On ch=3 n=25 v=100
9544273 On ch=3 n=25 v=100
9544326 On ch=3 n=18 v=100
9544355 Off ch=3 n=15 v=0
9544382 Off ch=3 n=29 v=0
9544405 Off ch=3 n=18 v=0
9544407 On ch=3 n=16 v=100
9544420 Off ch=3 n=25 v=0
9544420 Off ch=3 n=25 v=0
9544749 Off ch=3 n=16 v=0
9545639 On ch=3 n=31 v=100
9545923 Off ch=3 n=31 v=0
9546074 On ch=3 n=13 v=100
9546339 Off ch=3 n=13 v=0
9546553 On ch=3 n=30 v=100
9546710 On ch=3 n=12 v=100
9546723 Off ch=3 n=30 v=0
9547054 On ch=3 n=13 v=100
9547054 Off ch=3 n=12 v=0
9547219 Off ch=3 n=13 v=0
9547223 On ch=3 n=3 v=100
9548275 Off ch=3 n=3 v=0
9548344 On ch=3 n=3 v=100
9548510 Off ch=3 n=3 v=0
9548515 On ch=3 n=10 v=100
9548642 Off ch=3 n=10 v=0
9548661 On ch=3 n=33 v=100
9549149 Off ch=3 n=33 v=0
9550202 On ch=3 n=3 v=100
9550223 On ch=3 n=10 v=100
9550229 Off ch=3 n=3 v=0
9550713 Off ch=3 n=10 v=0
9550718 On ch=3 n=6 v=100
9550827 Off ch=3 n=6 v=0
9550877 On ch=3 n=26 v=100
9550969 Off ch=3 n=26 v=0
9551949 On ch=3 n=27 v=100
9552006 Off ch=3 n=27 v=0
9552145 On ch=3 n=16 v=100
9552267 Off ch=3 n=16 v=0
9552268 On ch=3 n=13 v=100
9552758 Off ch=3 n=13 v=0
9552853 On ch=3 n=18 v=100
9553148 On ch=3 n=21 v=100
9553178 Off ch=3 n=18 v=0
9553217 On ch=3 n=16 v=100
9553266 On ch=3 n=21 v=100
9553553 Off ch=3 n=16 v=0
9553558 Off ch=3 n=21 v=0
9553593 Off ch=3 n=21 v=0
9555337 On ch=3 n=27 v=100
9555397 On ch=3 n=16 v=100
9555445 On ch=3 n=20 v=100
9555561 Off ch=3 n=27 v=0
9555803 Off ch=3 n=16 v=0
9555803 Off ch=3 n=20 v=0
9555860 On ch=3 n=20 v=100
9555989 Off ch=3 n=20 v=0
9558963 On ch=3 n=36 v=100
9559072 On ch=3 n=12 v=100
9559233 On ch=3 n=13 v=100
9559257 Off ch=3 n=36 v=0
9559258 Off ch=3 n=12 v=0
9559263 Off ch=3 n=13 v=0
9559280 On ch=3 n=16 v=100
9559628 Off ch=3 n=16 v=0
9559692 On ch=3 n=46 v=100
9559710 On ch=3 n=23 v=100
9559816 Off ch=3 n=23 v=0
9559896 Off ch=3 n=46 v=0
9560303 On ch=3 n=20 v=100
9560358 Off ch=3 n=20 v=0
9560364 On ch=3 n=24 v=100
9560437 Off ch=3 n=24 v=0
9562527 On ch=3 n=9 v=100
9563376 Off ch=3 n=9 v=0
9565463 On ch=3 n=28 v=100
9565564 Off ch=3 n=28 v=0
9566043 On ch=3 n=18 v=100
9566043 On ch=3 n=18 v=100
9566064 On ch=3 n=14 v=100
9566253 Off ch=3 n=14 v=0
9566259 On ch=3 n=13 v=100
9566281 Off ch=3 n=18 v=0
9566281 Off ch=3 n=18 v=0
9566392 On ch=3 n=25 v=100
9566513 Off ch=3 n=13 v=0
9566555 Off ch=3 n=25 v=0
9567023 On ch=3 n=50 v=100
9568170 Off ch=3 n=50 v=0
9571566 On ch=3 n=29 v=100
9571680 Off ch=3 n=29 v=0
9574052 On ch=3 n=9 v=100
9574523 On ch=3 n=10 v=100
9574527 Off ch=3 n=9 v=0
9574744 On ch=3 n=9 v=100
9574750 Off ch=3 n=10 v=0
9575766 Off ch=3 n=9 v=0
9575776 On ch=3 n=5 v=100
9575852 Off ch=3 n=5 v=0
9575877 On ch=3 n=9 v=100
9575991 Off ch=3 n=9 v=0
9575994 On ch=3 n=11 v=100
9577043 Off ch=3 n=11 v=0
9577749 On ch=3 n=43 v=100
9577771 On ch=3 n=35 v=100
9577959 On ch=3 n=39 v=100
9578041 Off ch=3 n=43 v=0
9578088 On ch=3 n=46 v=100
9578089 On ch=3 n=41 v=100
9578142 Off ch=3 n=35 v=0
9578158 On ch=3 n=44 v=100
9578158 On ch=3 n=44 v=100
9578177 On ch=3 n=36 v=100
9578177 On ch=3 n=36 v=100
9578186 Off ch=3 n=41 v=0
9578203 Off ch=3 n=39 v=0
9578259 On ch=3 n=46 v=100
9578259 On ch=3 n=46 v=100
9578424 On ch=3 n=48 v=100
9578424 On ch=3 n=48 v=100
9578428 Off ch=3 n=44 v=0
9578428 Off ch=3 n=44 v=0
9578502 Off ch=3 n=46 v=0
9578504 Off ch=3 n=36 v=0
9578504 Off ch=3 n=36 v=0
9578510 Off ch=3 n=46 v=0
9578510 Off ch=3 n=46 v=0
9578540 On ch=3 n=43 v=100
9578540 On ch=3 n=43 v=100
9578546 On ch=3 n=35 v=100
9578546 On ch=3 n=35 v=100
9578651 On ch=3 n=46 v=100
9578699 Off ch=3 n=48 v=0
9578699 Off ch=3 n=48 v=0
9578797 Off ch=3 n=43 v=0
9578797 Off ch=3 n=43 v=0
9578815 On ch=3 n=38 v=100
9578815 On ch=3 n=38 v=100
9578881 Off ch=3 n=35 v=0
9578881 Off ch=3 n=35 v=0
9579100 Off ch=3 n=46 v=0
9579116 Off ch=3 n=38 v=0
9579116 Off ch=3 n=38 v=0
9580548 On ch=3 n=19 v=100
9580791 Off ch=3 n=19 v=0
9581000 On ch=3 n=13 v=100
9581187 On ch=3 n=13 v=100
9581187 Off ch=3 n=13 v=0
9581544 Off ch=3 n=13 v=0
9581918 On ch=3 n=12 v=100
9582216 Off ch=3 n=12 v=0
9582707 On ch=3 n=36 v=100
9582707 On ch=3 n=50 v=100
9582795 Off ch=3 n=36 v=0
9582831 Off ch=3 n=50 v=0
9583062 On ch=3 n=36 v=100
9583123 Off ch=3 n=36 v=0
9587470 On ch=3 n=24 v=100
9587571 Off ch=3 n=24 v=0
9588653 On ch=3 n=10 v=100
9589084 Off ch=3 n=10 v=0
9589216 On ch=3 n=16 v=100
9589450 Off ch=3 n=16 v=0
9589706 On ch=3 n=22 v=100
9589776 On ch=3 n=16 v=100
9589809 On ch=3 n=20 v=100
9589947 On ch=3 n=26 v=100
9590126 Off ch=3 n=22 v=0
9590127 Off ch=3 n=16 v=0
9590203 Off ch=3 n=20 v=0
9590252 Off ch=3 n=26 v=0
9590942 On ch=3 n=20 v=100
9591358 Off ch=3 n=20 v=0
9591631 On ch=3 n=23 v=100
9591731 Off ch=3 n=23 v=0
9591924 On ch=3 n=23 v=100
9591924 On ch=3 n=23 v=100
9592485 On ch=3 n=16 v=100
9592642 Off ch=3 n=23 v=0
9592642 Off ch=3 n=23 v=0
9592657 Off ch=3 n=16 v=0
9592704 On ch=3 n=14 v=100
9592895 Off ch=3 n=14 v=0
9592911 On ch=3 n=17 v=100
9592967 Off ch=3 n=17 v=0
9593069 On ch=3 n=20 v=100
9593291 Off ch=3 n=20 v=0
9595926 On ch=3 n=17 v=100
9596198 On ch=3 n=10 v=100
9596399 Off ch=3 n=17 v=0
9596425 On ch=3 n=30 v=100
9596505 Off ch=3 n=10 v=0
9596507 On ch=3 n=15 v=100
9596507 On ch=3 n=19 v=100
9596525 On ch=3 n=37 v=100
9596678 On ch=3 n=30 v=100
9596678 Off ch=3 n=30 v=0
9596688 Off ch=3 n=15 v=0
9596722 Off ch=3 n=19 v=0
9596797 Off ch=3 n=37 v=0
9596841 Off ch=3 n=30 v=0
9596987 On ch=3 n=7 v=100
9597048 Off ch=3 n=7 v=0
9598101 On ch=3 n=24 v=100
9598142 Off ch=3 n=24 v=0
9598182 On ch=3 n=24 v=100
9598252 Off ch=3 n=24 v=0
9598280 On ch=3 n=24 v=100
9598334 Off ch=3 n=24 v=0
9598364 On ch=3 n=24 v=100
9598855 Off ch=3 n=24 v=0
9599023 On ch=3 n=21 v=100
9599147 Off ch=3 n=21 v=0
9599192 On ch=3 n=9 v=100
9599312 Off ch=3 n=9 v=0
9600589 On ch=3 n=8 v=100
9600606 On ch=3 n=47 v=100
9600724 Off ch=3 n=8 v=0
9600737 On ch=3 n=4 v=100
9601139 Off ch=3 n=4 v=0
9601396 On ch=3 n=43 v=100
9601504 Off ch=3 n=47 v=0
9601505 On ch=3 n=9 v=100
9601530 Off ch=3 n=43 v=0
9601730 Off ch=3 n=9 v=0
9601731 On ch=3 n=13 v=100
9601785 Off ch=3 n=13 v=0
9601786 On ch=3 n=8 v=100
9601832 Off ch=3 n=8 v=0
9602506 On ch=3 n=38 v=100
9602603 On ch=3 n=12 v=100
9602644 On ch=3 n=33 v=100
9602727 Off ch=3 n=12 v=0
9602816 Off ch=3 n=38 v=0
9602816 Off ch=3 n=33 v=0
9602819 On ch=3 n=7 v=100
9602880 On ch=3 n=7 v=100
9603129 Off ch=3 n=7 v=0
9603190 Off ch=3 n=7 v=0
9603448 On ch=3 n=38 v=100
9603539 Off ch=3 n=38 v=0
9604022 On ch=3 n=49 v=100
9604022 On ch=3 n=49 v=100
9604056 On ch=3 n=46 v=100
9604092 On ch=3 n=49 v=100
9604092 On ch=3 n=49 v=100
9604186 On ch=3 n=29 v=100
9604192 On ch=3 n=30 v=100
9604377 Off ch=3 n=29 v=0
9604383 Off ch=3 n=46 v=0
9604388 Off ch=3 n=49 v=0
9604388 Off ch=3 n=49 v=0
9604401 Off ch=3 n=49 v=0
9604401 Off ch=3 n=49 v=0
9604403 Off ch=3 n=30 v=0
9605091 On ch=3 n=38 v=100
9605190 On ch=3 n=18 v=100
9605198 Off ch=3 n=38 v=0
9605269 On ch=3 n=7 v=100
9605317 Off ch=3 n=18 v=0
9605654 Off ch=3 n=7 v=0
9605655 On ch=3 n=20 v=100
9605712 Off ch=3 n=20 v=0
9607159 On ch=3 n=7 v=100
9607422 Off ch=3 n=7 v=0
9607540 On ch=3 n=19 v=100
9607544 On ch=3 n=12 v=100
9608120 Off ch=3 n=12 v=0
9608211 Off ch=3 n=19 v=0
9608399 On ch=3 n=35 v=100
9608524 Off ch=3 n=35 v=0
9609878 On ch=3 n=33 v=100
9609928 On ch=3 n=30 v=100
9610176 Off ch=3 n=33 v=0
9610177 Off ch=3 n=30 v=0
9610216 On ch=3 n=21 v=100
9610281 Off ch=3 n=21 v=0
9610816 On ch=3 n=5 v=100
9611041 Off ch=3 n=5 v=0
9613784 On ch=3 n=27 v=100
9613934 On ch=3 n=14 v=100
9614056 On ch=3 n=26 v=100
9614273 Off ch=3 n=27 v=0
9614322 Off ch=3 n=14 v=0
9614369 Off ch=3 n=26 v=0
9615321 On ch=3 n=28 v=100
9615541 On ch=3 n=24 v=100
9615662 On ch=3 n=46 v=100
9615751 On ch=3 n=31 v=100
9615835 Off ch=3 n=28 v=0
9615917 Off ch=3 n=24 v=0
9615926 On ch=3 n=11 v=100
9615993 Off ch=3 n=31 v=0
9616012 Off ch=3 n=46 v=0
9616095 Off ch=3 n=11 v=0
9616097 On ch=3 n=28 v=100
9616338 Off ch=3 n=28 v=0
9617675 On ch=3 n=35 v=100
9617694 On ch=3 n=31 v=100
9617841 Off ch=3 n=35 v=0
9617911 Off ch=3 n=31 v=0
9618283 On ch=3 n=6 v=100
9618290 On ch=3 n=11 v=100
9618338 Off ch=3 n=6 v=0
9618349 On ch=3 n=9 v=100
9618377 Off ch=3 n=11 v=0
9618803 Off ch=3 n=9 v=0
9618974 On ch=3 n=29 v=100
9619049 Off ch=3 n=29 v=0
9619559 On ch=3 n=26 v=100
9619777 Off ch=3 n=26 v=0
9620092 On ch=3 n=26 v=100
9620198 Off ch=3 n=26 v=0
9620511 On ch=3 n=14 v=100
9620559 On ch=3 n=41 v=100
9620564 On ch=3 n=53 v=100
9620727 On ch=3 n=11 v=100
9620728 Off ch=3 n=14 v=0
9620750 Off ch=3 n=41 v=0
9620786 Off ch=3 n=53 v=0
9621180 On ch=3 n=29 v=100
9621241 Off ch=3 n=11 v=0
9621426 Off ch=3 n=29 v=0
9622367 On ch=3 n=25 v=100
9622552 On ch=3 n=45 v=100
9622552 On ch=3 n=45 v=100
9622597 Off ch=3 n=25 v=0
9622632 On ch=3 n=44 v=100
9622643 On ch=3 n=36 v=100
9622643 On ch=3 n=36 v=100
9622742 Off ch=3 n=45 v=0
9622742 Off ch=3 n=45 v=0
9622744 Off ch=3 n=44 v=0
9622783 Off ch=3 n=36 v=0
9622783 Off ch=3 n=36 v=0
9623043 On ch=3 n=9 v=100
9623254 Off ch=3 n=9 v=0
9623260 On ch=3 n=8 v=100
9623588 Off ch=3 n=8 v=0
9624421 On ch=3 n=20 v=100
9624634 Off ch=3 n=20 v=0
9624872 On ch=3 n=6 v=100
9625640 On ch=3 n=12 v=100
9625746 Off ch=3 n=6 v=0
9625760 Off ch=3 n=12 v=0
9626377 On ch=3 n=26 v=100
9626679 Off ch=3 n=26 v=0
9626893 On ch=3 n=35 v=100
9627015 Off ch=3 n=35 v=0
9627842 On ch=3 n=16 v=100
9628445 On ch=3 n=12 v=100
9628446 Off ch=3 n=16 v=0
9628776 Off ch=3 n=12 v=0
9628778 On ch=3 n=8 v=100
9629240 Off ch=3 n=8 v=0
9630906 On ch=3 n=28 v=100
9631058 On ch=3 n=9 v=100
9631380 Off ch=3 n=28 v=0
9631381 Off ch=3 n=9 v=0
9631467 On ch=3 n=13 v=100
9631663 Off ch=3 n=13 v=0
9631680 On ch=3 n=29 v=100
9631744 Off ch=3 n=29 v=0
9631750 On ch=3 n=13 v=100
9631831 Off ch=3 n=13 v=0
9631957 On ch=3 n=15 v=100
9632022 Off ch=3 n=15 v=0
9632068 On ch=3 n=30 v=100
9632072 On ch=3 n=15 v=100
9632254 Off ch=3 n=15 v=0
9632255 On ch=3 n=11 v=100
9632280 Off ch=3 n=30 v=0
9632412 On ch=3 n=43 v=100
9632412 On ch=3 n=43 v=100
9632439 On ch=3 n=51 v=100
9632467 On ch=3 n=31 v=100
9632468 On ch=3 n=40 v=100
9632469 On ch=3 n=6 v=100
9632473 Off ch=3 n=11 v=0
9632665 Off ch=3 n=51 v=0
9632665 Off ch=3 n=6 v=0
9632702 Off ch=3 n=31 v=0
9632751 Off ch=3 n=43 v=0
9632751 Off ch=3 n=43 v=0
9632770 Off ch=3 n=40 v=0
9633759 On ch=3 n=10 v=100
9633877 Off ch=3 n=10 v=0
9633881 On ch=3 n=5 v=100
9634164 Off ch=3 n=5 v=0
9634763 On ch=3 n=24 v=100
9634792 On ch=3 n=29 v=100
9634796 On ch=3 n=19 v=100
9635011 Off ch=3 n=24 v=0
9635011 Off ch=3 n=19 v=0
9635083 Off ch=3 n=29 v=0
9636043 On ch=3 n=6 v=100
9636553 Off ch=3 n=6 v=0
9636556 On ch=3 n=11 v=100
9637311 Off ch=3 n=11 v=0
9637372 On ch=3 n=15 v=100
9637915 Off ch=3 n=15 v=0
9638019 On ch=3 n=15 v=100
9638051 Off ch=3 n=15 v=0
9643436 On ch=3 n=26 v=100
9643596 Off ch=3 n=26 v=0
9644419 On ch=3 n=36 v=100
9644635 Off ch=3 n=36 v=0
9646946 On ch=3 n=30 v=100
9646976 On ch=3 n=4 v=100
9647025 Off ch=3 n=30 v=0
9648191 Off ch=3 n=4 v=0
9649752 On ch=3 n=39 v=100
9649798 Off ch=3 n=39 v=0
9649833 On ch=3 n=39 v=100
9649852 On ch=3 n=29 v=100
9649972 Off ch=3 n=29 v=0
9649973 Off ch=3 n=39 v=0
9650090 On ch=3 n=23 v=100
9650593 Off ch=3 n=23 v=0
9651730 On ch=3 n=45 v=100
9651758 On ch=3 n=27 v=100
9651903 Off ch=3 n=27 v=0
9651904 Off ch=3 n=45 v=0
9653095 On ch=3 n=29 v=100
9653343 Off ch=3 n=29 v=0
9653413 On ch=3 n=13 v=100
9654510 Off ch=3 n=13 v=0
9654608 On ch=3 n=33 v=100
9654724 Off ch=3 n=33 v=0
9655970 On ch=3 n=25 v=100
9655992 On ch=3 n=8 v=100
9656003 On ch=3 n=15 v=100
9656039 Off ch=3 n=25 v=0
9656040 Off ch=3 n=8 v=0
9656045 Off ch=3 n=15 v=0
9656076 On ch=3 n=7 v=100
9656342 Off ch=3 n=7 v=0
9656345 On ch=3 n=7 v=100
9657117 On ch=3 n=17 v=100
9657118 On ch=3 n=12 v=100
9657119 Off ch=3 n=7 v=0
9657214 Off ch=3 n=12 v=0
9657239 Off ch=3 n=17 v=0
9657267 On ch=3 n=41 v=100
9657435 On ch=3 n=17 v=100
9658104 Off ch=3 n=41 v=0
9658536 On ch=3 n=15 v=100
9658670 Off ch=3 n=17 v=0
9658688 Off ch=3 n=15 v=0
9658761 On ch=3 n=48 v=100
9658930 Off ch=3 n=48 v=0
9659608 On ch=3 n=33 v=100
9659687 On ch=3 n=22 v=100
9659756 On ch=3 n=22 v=100
9659825 On ch=3 n=32 v=100
9659849 Off ch=3 n=33 v=0
9660097 Off ch=3 n=22 v=0
9660209 Off ch=3 n=22 v=0
9660424 On ch=3 n=37 v=100
9660481 Off ch=3 n=32 v=0
9660481 Off ch=3 n=37 v=0
9660575 On ch=3 n=32 v=100
9660575 On ch=3 n=11 v=100
9660575 On ch=3 n=37 v=100
9660642 Off ch=3 n=32 v=0
9660804 Off ch=3 n=11 v=0
9660861 Off ch=3 n=37 v=0
9661762 On ch=3 n=9 v=100
9661819 Off ch=3 n=9 v=0
9662057 On ch=3 n=3 v=100
9664429 On ch=3 n=13 v=100
9664429 Off ch=3 n=3 v=0
9664704 On ch=3 n=12 v=100
9664794 Off ch=3 n=13 v=0
9665048 On ch=3 n=20 v=100
9665062 Off ch=3 n=12 v=0
9665390 On ch=3 n=8 v=100
9665393 Off ch=3 n=20 v=0
9665450 Off ch=3 n=8 v=0
9665523 On ch=3 n=8 v=100
9665884 Off ch=3 n=8 v=0
9667193 On ch=3 n=10 v=100
9667638 Off ch=3 n=10 v=0
9667766 On ch=3 n=11 v=100
9668405 On ch=3 n=8 v=100
9668406 Off ch=3 n=11 v=0
9668681 Off ch=3 n=8 v=0
9670126 On ch=3 n=26 v=100
9670217 Off ch=3 n=26 v=0
9673433 On ch=3 n=3 v=100
9673827 Off ch=3 n=3 v=0
9673947 On ch=3 n=27 v=100
9674238 Off ch=3 n=27 v=0
9674750 On ch=3 n=9 v=100
9674907 Off ch=3 n=9 v=0
9674916 On ch=3 n=23 v=100
9675100 Off ch=3 n=23 v=0
9676127 On ch=3 n=11 v=100
9676411 On ch=3 n=11 v=100
9676413 Off ch=3 n=11 v=0
9676456 Off ch=3 n=11 v=0
9676772 On ch=3 n=12 v=100
9676871 Off ch=3 n=12 v=0
9676872 On ch=3 n=7 v=100
9677359 Off ch=3 n=7 v=0
9679098 On ch=3 n=27 v=100
9679218 Off ch=3 n=27 v=0
9681561 On ch=3 n=9 v=100
9682087 On ch=3 n=6 v=100
9682088 Off ch=3 n=9 v=0
9682527 On ch=3 n=22 v=100
9682594 Off ch=3 n=6 v=0
9682625 Off ch=3 n=22 v=0
9682789 On ch=3 n=29 v=100
9682864 Off ch=3 n=29 v=0
9683264 On ch=3 n=29 v=100
9683994 Off ch=3 n=29 v=0
9683997 On ch=3 n=21 v=100
9684213 On ch=3 n=22 v=100
9684214 Off ch=3 n=21 v=0
9684452 Off ch=3 n=22 v=0
9684461 On ch=3 n=21 v=100
9684675 On ch=3 n=31 v=100
9684681 Off ch=3 n=21 v=0
9684857 Off ch=3 n=31 v=0
9684911 On ch=3 n=15 v=100
9685433 On ch=3 n=21 v=100
9685451 Off ch=3 n=15 v=0
9685484 On ch=3 n=28 v=100
9685484 On ch=3 n=28 v=100
9685510 On ch=3 n=25 v=100
9685582 On ch=3 n=45 v=100
9685670 Off ch=3 n=21 v=0
9685694 Off ch=3 n=25 v=0
9685697 On ch=3 n=35 v=100
9685705 Off ch=3 n=28 v=0
9685705 Off ch=3 n=28 v=0
9685735 On ch=3 n=37 v=100
9685735 On ch=3 n=37 v=100
9685755 On ch=3 n=29 v=100
9685961 Off ch=3 n=29 v=0
9685963 Off ch=3 n=35 v=0
9685970 Off ch=3 n=45 v=0
9686023 Off ch=3 n=37 v=0
9686023 Off ch=3 n=37 v=0
9686147 On ch=3 n=34 v=100
9686178 On ch=3 n=41 v=100
9686305 Off ch=3 n=34 v=0
9686335 Off ch=3 n=41 v=0
9688041 On ch=3 n=8 v=100
9688099 On ch=3 n=22 v=100
9688115 Off ch=3 n=8 v=0
9688131 On ch=3 n=7 v=100
9688255 Off ch=3 n=22 v=0
9688255 Off ch=3 n=7 v=0
9689137 On ch=3 n=37 v=100
9689137 On ch=3 n=37 v=100
9689240 On ch=3 n=17 v=100
9689319 On ch=3 n=23 v=100
9689690 Off ch=3 n=17 v=0
9689701 Off ch=3 n=37 v=0
9689701 Off ch=3 n=37 v=0
9689726 On ch=3 n=8 v=100
9689796 Off ch=3 n=23 v=0
9689859 On ch=3 n=13 v=100
9689871 Off ch=3 n=8 v=0
9689879 On ch=3 n=8 v=100
9690010 Off ch=3 n=13 v=0
9690081 Off ch=3 n=8 v=0
9690082 On ch=3 n=7 v=100
9690138 Off ch=3 n=7 v=0
9690145 On ch=3 n=7 v=100
9690816 Off ch=3 n=7 v=0
9690929 On ch=3 n=23 v=100
9691062 On ch=3 n=14 v=100
9691062 On ch=3 n=14 v=100
9691088 On ch=3 n=10 v=100
9691091 On ch=3 n=30 v=100
9691463 Off ch=3 n=10 v=0
9691467 Off ch=3 n=23 v=0
9691499 Off ch=3 n=14 v=0
9691499 Off ch=3 n=14 v=0
9691647 On ch=3 n=24 v=100
9691807 Off ch=3 n=30 v=0
9692156 Off ch=3 n=24 v=0
9692176 On ch=3 n=46 v=100
9692176 On ch=3 n=46 v=100
9692194 On ch=3 n=35 v=100
9692208 On ch=3 n=32 v=100
9692214 On ch=3 n=18 v=100
9692309 Off ch=3 n=35 v=0
9692338 Off ch=3 n=46 v=0
9692338 Off ch=3 n=46 v=0
9692513 Off ch=3 n=18 v=0
9692559 Off ch=3 n=32 v=0
9692867 On ch=3 n=50 v=100
9693027 On ch=3 n=23 v=100
9693053 On ch=3 n=13 v=100
9693071 On ch=3 n=9 v=100
9693080 On ch=3 n=11 v=100
9693149 Off ch=3 n=13 v=0
9693154 Off ch=3 n=23 v=0
9693154 Off ch=3 n=9 v=0
9693155 Off ch=3 n=50 v=0
9693158 Off ch=3 n=11 v=0
9693291 On ch=3 n=52 v=100
9693439 On ch=3 n=12 v=100
9693439 Off ch=3 n=52 v=0
9693663 Off ch=3 n=12 v=0
9695441 On ch=3 n=8 v=100
9695980 Off ch=3 n=8 v=0
9696409 On ch=3 n=18 v=100
9696833 Off ch=3 n=18 v=0
9697157 On ch=3 n=48 v=100
9697166 On ch=3 n=26 v=100
9697200 On ch=3 n=30 v=100
9697222 Off ch=3 n=48 v=0
9697257 On ch=3 n=20 v=100
9697284 Off ch=3 n=26 v=0
9697284 Off ch=3 n=30 v=0
9697284 Off ch=3 n=20 v=0
9697316 On ch=3 n=28 v=100
9697435 On ch=3 n=12 v=100
9697437 Off ch=3 n=28 v=0
9697828 Off ch=3 n=12 v=0
9699745 On ch=3 n=8 v=100
9700935 Off ch=3 n=8 v=0
9701113 On ch=3 n=20 v=100
9701639 Off ch=3 n=20 v=0
9701986 On ch=3 n=49 v=100
9701992 On ch=3 n=59 v=100
9701992 On ch=3 n=59 v=100
9701993 On ch=3 n=60 v=100
9701993 On ch=3 n=60 v=100
9702023 On ch=3 n=56 v=100
9702023 On ch=3 n=56 v=100
9702029 On ch=3 n=9 v=100
9702106 On ch=3 n=40 v=100
9702151 Off ch=3 n=49 v=0
9702217 Off ch=3 n=9 v=0
9702224 Off ch=3 n=59 v=0
9702224 Off ch=3 n=59 v=0
9702278 Off ch=3 n=56 v=0
9702278 Off ch=3 n=56 v=0
9702304 Off ch=3 n=60 v=0
9702304 Off ch=3 n=60 v=0
9702313 Off ch=3 n=40 v=0
9702568 On ch=3 n=15 v=100
9702714 Off ch=3 n=15 v=0
9702719 On ch=3 n=11 v=100
9703261 Off ch=3 n=11 v=0
9703270 On ch=3 n=19 v=100
9703339 Off ch=3 n=19 v=0
9703504 On ch=3 n=17 v=100
9703727 Off ch=3 n=17 v=0
9704753 On ch=3 n=31 v=100
9704792 On ch=3 n=24 v=100
9704874 Off ch=3 n=31 v=0
9705022 Off ch=3 n=24 v=0
9705929 On ch=3 n=10 v=100
9706440 Off ch=3 n=10 v=0
9706486 On ch=3 n=22 v=100
9706516 On ch=3 n=8 v=100
9706754 Off ch=3 n=22 v=0
9706761 Off ch=3 n=8 v=0
9706779 On ch=3 n=17 v=100
9706919 Off ch=3 n=17 v=0
9707622 On ch=3 n=14 v=100
9707684 On ch=3 n=9 v=100
9707690 Off ch=3 n=14 v=0
9707865 Off ch=3 n=9 v=0
9707867 On ch=3 n=7 v=100
9708131 Off ch=3 n=7 v=0
9709045 On ch=3 n=19 v=100
9709398 Off ch=3 n=19 v=0
9716353 On ch=3 n=12 v=100
9716622 Off ch=3 n=12 v=0
9716682 On ch=3 n=7 v=100
9716683 On ch=3 n=12 v=100
9716693 Off ch=3 n=12 v=0
9717152 On ch=3 n=16 v=100
9717178 On ch=3 n=23 v=100
9717205 On ch=3 n=19 v=100
9717307 Off ch=3 n=7 v=0
9717315 Off ch=3 n=16 v=0
9717315 Off ch=3 n=23 v=0
9717315 Off ch=3 n=19 v=0
9717423 On ch=3 n=19 v=100
9717423 On ch=3 n=23 v=100
9717460 Off ch=3 n=19 v=0
9717561 Off ch=3 n=23 v=0
9717626 On ch=3 n=22 v=100
9717996 Off ch=3 n=22 v=0
9718148 On ch=3 n=54 v=100
9718148 On ch=3 n=54 v=100
9718205 On ch=3 n=48 v=100
9718205 On ch=3 n=48 v=100
9718207 On ch=3 n=38 v=100
9718235 On ch=3 n=8 v=100
9718316 On ch=3 n=54 v=100
9718316 On ch=3 n=54 v=100
9718316 Off ch=3 n=38 v=0
9718428 Off ch=3 n=8 v=0
9718438 Off ch=3 n=48 v=0
9718438 Off ch=3 n=48 v=0
9718439 Off ch=3 n=54 v=0
9718439 Off ch=3 n=54 v=0
9718441 On ch=3 n=14 v=100
9718461 Off ch=3 n=54 v=0
9718461 Off ch=3 n=54 v=0
9718801 Off ch=3 n=14 v=0
9718828 On ch=3 n=14 v=100
9718843 Off ch=3 n=14 v=0
9721609 On ch=3 n=16 v=100
9721716 On ch=3 n=8 v=100
9721848 Off ch=3 n=16 v=0
9722025 Off ch=3 n=8 v=0
9722054 On ch=3 n=7 v=100
9722258 Off ch=3 n=7 v=0
9722262 On ch=3 n=14 v=100
9722387 Off ch=3 n=14 v=0
9722404 On ch=3 n=12 v=100
9722511 Off ch=3 n=12 v=0
9723912 On ch=3 n=16 v=100
9724086 On ch=3 n=48 v=100
9724222 On ch=3 n=12 v=100
9724285 Off ch=3 n=16 v=0
9724439 Off ch=3 n=48 v=0
9724574 On ch=3 n=47 v=100
9724650 Off ch=3 n=12 v=0
9724669 On ch=3 n=8 v=100
9724874 Off ch=3 n=47 v=0
9725493 On ch=3 n=15 v=100
9725501 Off ch=3 n=8 v=0
9725503 On ch=3 n=24 v=100
9725543 Off ch=3 n=15 v=0
9725545 On ch=3 n=9 v=100
9725731 On ch=3 n=30 v=100
9725732 Off ch=3 n=24 v=0
9725732 Off ch=3 n=9 v=0
9725848 Off ch=3 n=30 v=0
9725935 On ch=3 n=30 v=100
9726035 Off ch=3 n=30 v=0
9727232 On ch=3 n=33 v=100
9727244 On ch=3 n=46 v=100
9727294 On ch=3 n=42 v=100
9727389 Off ch=3 n=46 v=0
9727397 Off ch=3 n=33 v=0
9727414 Off ch=3 n=42 v=0
9729821 On ch=3 n=14 v=100
9730052 Off ch=3 n=14 v=0
9730679 On ch=3 n=38 v=100
9730679 On ch=3 n=38 v=100
9730890 Off ch=3 n=38 v=0
9730890 Off ch=3 n=38 v=0
9731147 On ch=3 n=21 v=100
9731161 On ch=3 n=15 v=100
9731216 Off ch=3 n=21 v=0
9731216 Off ch=3 n=15 v=0
9731332 On ch=3 n=12 v=100
9731676 On ch=3 n=31 v=100
9731694 On ch=3 n=15 v=100
9731696 Off ch=3 n=12 v=0
9731741 Off ch=3 n=31 v=0
9731773 Off ch=3 n=15 v=0
9732874 On ch=3 n=32 v=100
9732910 On ch=3 n=15 v=100
9733095 On ch=3 n=15 v=100
9733097 On ch=3 n=24 v=100
9733104 Off ch=3 n=32 v=0
9733140 On ch=3 n=13 v=100
9733177 On ch=3 n=16 v=100
9733188 Off ch=3 n=15 v=0
9733548 On ch=3 n=38 v=100
9733550 On ch=3 n=29 v=100
9733575 Off ch=3 n=13 v=0
9733589 Off ch=3 n=15 v=0
9733647 Off ch=3 n=24 v=0
9733647 Off ch=3 n=16 v=0
9733708 On ch=3 n=42 v=100
9733715 Off ch=3 n=29 v=0
9733734 Off ch=3 n=38 v=0
9733917 Off ch=3 n=42 v=0
9734050 On ch=3 n=25 v=100
9734557 Off ch=3 n=25 v=0
9734588 On ch=3 n=17 v=100
9734644 Off ch=3 n=17 v=0
9735059 On ch=3 n=35 v=100
9735064 On ch=3 n=26 v=100
9735102 On ch=3 n=48 v=100
9735222 On ch=3 n=8 v=100
9735227 Off ch=3 n=26 v=0
9735254 Off ch=3 n=35 v=0
9735596 Off ch=3 n=48 v=0
9736302 On ch=3 n=39 v=100
9736338 Off ch=3 n=8 v=0
9736340 On ch=3 n=29 v=100
9736340 On ch=3 n=35 v=100
9736456 Off ch=3 n=29 v=0
9736463 Off ch=3 n=39 v=0
9736478 Off ch=3 n=35 v=0
9738152 On ch=3 n=32 v=100
9738210 Off ch=3 n=32 v=0
9738423 On ch=3 n=13 v=100
9738860 Off ch=3 n=13 v=0
9740629 On ch=3 n=47 v=100
9740852 On ch=3 n=8 v=100
9741140 Off ch=3 n=47 v=0
9741872 On ch=3 n=47 v=100
9741907 On ch=3 n=10 v=100
9741913 Off ch=3 n=8 v=0
9742084 Off ch=3 n=47 v=0
9742102 Off ch=3 n=10 v=0
9742116 On ch=3 n=8 v=100
9742223 Off ch=3 n=8 v=0
9746579 On ch=3 n=13 v=100
9747011 Off ch=3 n=13 v=0
9747013 On ch=3 n=26 v=100
9747482 Off ch=3 n=26 v=0
9747887 On ch=3 n=34 v=100
9747887 On ch=3 n=52 v=100
9748088 Off ch=3 n=34 v=0
9748114 On ch=3 n=30 v=100
9748114 On ch=3 n=30 v=100
9748131 On ch=3 n=21 v=100
9748146 Off ch=3 n=52 v=0
9748411 Off ch=3 n=21 v=0
9748451 Off ch=3 n=30 v=0
9748451 Off ch=3 n=30 v=0
9749687 On ch=3 n=21 v=100
9749888 On ch=3 n=40 v=100
9749930 Off ch=3 n=21 v=0
9749969 Off ch=3 n=40 v=0
9750221 On ch=3 n=34 v=100
9750378 Off ch=3 n=34 v=0
9750440 On ch=3 n=27 v=100
9750617 Off ch=3 n=27 v=0
9751185 On ch=3 n=33 v=100
9751249 Off ch=3 n=33 v=0
9751328 On ch=3 n=33 v=100
9751343 On ch=3 n=18 v=100
9751459 Off ch=3 n=33 v=0
9751471 On ch=3 n=17 v=100
9751502 Off ch=3 n=18 v=0
9751627 On ch=3 n=35 v=100
9751734 Off ch=3 n=17 v=0
9751781 On ch=3 n=23 v=100
9751790 Off ch=3 n=35 v=0
9752071 On ch=3 n=30 v=100
9752103 Off ch=3 n=23 v=0
9752235 Off ch=3 n=30 v=0
9752987 On ch=3 n=32 v=100
9753021 Off ch=3 n=32 v=0
9753080 On ch=3 n=32 v=100
9753231 Off ch=3 n=32 v=0
9753280 On ch=3 n=32 v=100
9753329 Off ch=3 n=32 v=0
9753352 On ch=3 n=29 v=100
9753438 On ch=3 n=21 v=100
9753476 Off ch=3 n=29 v=0
9753476 Off ch=3 n=21 v=0
9753565 On ch=3 n=6 v=100
9754015 Off ch=3 n=6 v=0
9754259 On ch=3 n=23 v=100
9754318 Off ch=3 n=23 v=0
9754489 On ch=3 n=28 v=100
9754518 On ch=3 n=19 v=100
9754745 Off ch=3 n=28 v=0
9754941 Off ch=3 n=19 v=0
9755621 On ch=3 n=29 v=100
9756174 Off ch=3 n=29 v=0
9756214 On ch=3 n=12 v=100
9756402 Off ch=3 n=12 v=0
9756928 On ch=3 n=9 v=100
9757155 Off ch=3 n=9 v=0
9757175 On ch=3 n=5 v=100
9757405 Off ch=3 n=5 v=0
9757407 On ch=3 n=10 v=100
9757578 Off ch=3 n=10 v=0
9758529 On ch=3 n=15 v=100
9758594 On ch=3 n=20 v=100
9758594 On ch=3 n=20 v=100
9758683 On ch=3 n=11 v=100
9758768 Off ch=3 n=15 v=0
9759116 Off ch=3 n=11 v=0
9759146 Off ch=3 n=20 v=0
9759146 Off ch=3 n=20 v=0
9760451 On ch=3 n=14 v=100
9760451 On ch=3 n=14 v=100
9760592 Off ch=3 n=14 v=0
9760592 Off ch=3 n=14 v=0
9761622 On ch=3 n=30 v=100
9761805 On ch=3 n=11 v=100
9762498 Off ch=3 n=11 v=0
9762504 On ch=3 n=13 v=100
9762563 Off ch=3 n=30 v=0
9762851 Off ch=3 n=13 v=0
9763091 On ch=3 n=18 v=100
9763175 Off ch=3 n=18 v=0
9763229 On ch=3 n=33 v=100
9763301 Off ch=3 n=33 v=0
9764143 On ch=3 n=6 v=100
9764371 On ch=3 n=9 v=100
9764382 Off ch=3 n=6 v=0
9765437 On ch=3 n=11 v=100
9765445 Off ch=3 n=9 v=0
9766441 Off ch=3 n=11 v=0
9766659 On ch=3 n=17 v=100
9766843 Off ch=3 n=17 v=0
9766849 On ch=3 n=30 v=100
9767168 Off ch=3 n=30 v=0
9767639 On ch=3 n=11 v=100
9767678 On ch=3 n=14 v=100
9767950 Off ch=3 n=11 v=0
9767962 Off ch=3 n=14 v=0
9768169 On ch=3 n=14 v=100
9768540 Off ch=3 n=14 v=0
9774653 On ch=3 n=14 v=100
9774913 On ch=3 n=17 v=100
9774919 Off ch=3 n=14 v=0
9774971 Off ch=3 n=17 v=0
9775187 On ch=3 n=23 v=100
9775262 Off ch=3 n=23 v=0
9776342 On ch=3 n=22 v=100
9776467 On ch=3 n=26 v=100
9776520 On ch=3 n=21 v=100
9776767 Off ch=3 n=22 v=0
9776767 Off ch=3 n=26 v=0
9776767 Off ch=3 n=21 v=0
9776859 On ch=3 n=26 v=100
9776859 On ch=3 n=21 v=100
9777014 Off ch=3 n=26 v=0
9777080 Off ch=3 n=21 v=0
9777501 On ch=3 n=21 v=100
9777547 Off ch=3 n=21 v=0
9777746 On ch=3 n=11 v=100
9777912 Off ch=3 n=11 v=0
9777921 On ch=3 n=7 v=100
9778367 Off ch=3 n=7 v=0
9778377 On ch=3 n=22 v=100
9778820 Off ch=3 n=22 v=0
9779021 On ch=3 n=6 v=100
9779711 Off ch=3 n=6 v=0
9779803 On ch=3 n=43 v=100
9779877 On ch=3 n=31 v=100
9779991 On ch=3 n=27 v=100
9780104 On ch=3 n=31 v=100
9780110 On ch=3 n=26 v=100
9780110 Off ch=3 n=43 v=0
9780468 Off ch=3 n=31 v=0
9780469 Off ch=3 n=27 v=0
9780546 Off ch=3 n=26 v=0
9780681 Off ch=3 n=31 v=0
9782130 On ch=3 n=20 v=100
9782317 On ch=3 n=20 v=100
9783145 Off ch=3 n=20 v=0
9783211 Off ch=3 n=20 v=0
9783312 On ch=3 n=20 v=100
9783433 Off ch=3 n=20 v=0
9785763 On ch=3 n=11 v=100
9787027 Off ch=3 n=11 v=0
9790351 On ch=3 n=31 v=100
9790389 On ch=3 n=31 v=100
9790440 Off ch=3 n=31 v=0
9790451 Off ch=3 n=31 v=0
9792887 On ch=3 n=44 v=100
9792969 Off ch=3 n=44 v=0
9793017 On ch=3 n=21 v=100
9793393 Off ch=3 n=21 v=0
9793402 On ch=3 n=8 v=100
9793660 Off ch=3 n=8 v=0
9793669 On ch=3 n=8 v=100
9793782 Off ch=3 n=8 v=0
9793783 On ch=3 n=5 v=100
9793844 Off ch=3 n=5 v=0
9793865 On ch=3 n=5 v=100
9793905 Off ch=3 n=5 v=0
9793912 On ch=3 n=14 v=100
9794106 On ch=3 n=13 v=100
9794110 Off ch=3 n=14 v=0
9794314 Off ch=3 n=13 v=0
9794661 On ch=3 n=41 v=100
9794841 Off ch=3 n=41 v=0
9795515 On ch=3 n=20 v=100
9795638 Off ch=3 n=20 v=0
9797142 On ch=3 n=15 v=100
9797300 On ch=3 n=27 v=100
9797304 On ch=3 n=15 v=100
9797308 Off ch=3 n=15 v=0
9797359 Off ch=3 n=15 v=0
9797395 On ch=3 n=17 v=100
9797408 Off ch=3 n=27 v=0
9797440 On ch=3 n=19 v=100
9797479 Off ch=3 n=17 v=0
9798570 Off ch=3 n=19 v=0
9798571 On ch=3 n=14 v=100
9798691 Off ch=3 n=14 v=0
9798697 On ch=3 n=10 v=100
9798846 Off ch=3 n=10 v=0
9799350 On ch=3 n=18 v=100
9799818 Off ch=3 n=18 v=0
9800370 On ch=3 n=23 v=100
9800451 On ch=3 n=7 v=100
9800776 Off ch=3 n=7 v=0
9800779 Off ch=3 n=23 v=0
9801076 On ch=3 n=35 v=100
9801092 On ch=3 n=27 v=100
9801165 Off ch=3 n=35 v=0
9801199 Off ch=3 n=27 v=0
9801396 On ch=3 n=8 v=100
9802244 Off ch=3 n=8 v=0
9802280 On ch=3 n=13 v=100
9802338 On ch=3 n=31 v=100
9802344 Off ch=3 n=13 v=0
9802371 On ch=3 n=16 v=100
9802465 On ch=3 n=24 v=100
9802582 Off ch=3 n=31 v=0
9802840 Off ch=3 n=16 v=0
9802990 Off ch=3 n=24 v=0
9804029 On ch=3 n=47 v=100
9804210 Off ch=3 n=47 v=0
9804315 On ch=3 n=17 v=100
9804521 Off ch=3 n=17 v=0
9804562 On ch=3 n=25 v=100
9804703 Off ch=3 n=25 v=0
9804704 On ch=3 n=26 v=100
9804792 On ch=3 n=14 v=100
9804798 Off ch=3 n=26 v=0
9804975 On ch=3 n=8 v=100
9804977 Off ch=3 n=14 v=0
9805096 Off ch=3 n=8 v=0
9805133 On ch=3 n=10 v=100
9805659 On ch=3 n=19 v=100
9805666 Off ch=3 n=10 v=0
9806122 Off ch=3 n=19 v=0
9807437 On ch=3 n=20 v=100
9807471 On ch=3 n=9 v=100
9807548 Off ch=3 n=20 v=0
9807804 On ch=3 n=50 v=100
9807811 Off ch=3 n=9 v=0
9807814 On ch=3 n=8 v=100
9808074 On ch=3 n=9 v=100
9808078 Off ch=3 n=8 v=0
9808389 Off ch=3 n=50 v=0
9808390 Off ch=3 n=9 v=0
9808392 On ch=3 n=9 v=100
9808512 Off ch=3 n=9 v=0
9809543 On ch=3 n=35 v=100
9809609 Off ch=3 n=35 v=0
9809651 On ch=3 n=35 v=100
9809760 Off ch=3 n=35 v=0
9810280 On ch=3 n=27 v=100
9810412 Off ch=3 n=27 v=0
9810640 On ch=3 n=31 v=100
9810760 On ch=3 n=27 v=100
9810802 Off ch=3 n=31 v=0
9811156 Off ch=3 n=27 v=0
9811184 On ch=3 n=27 v=100
9811239 On ch=3 n=16 v=100
9811581 Off ch=3 n=16 v=0
9811582 Off ch=3 n=27 v=0
9811594 On ch=3 n=30 v=100
9811829 Off ch=3 n=30 v=0
9812966 On ch=3 n=8 v=100
9813592 Off ch=3 n=8 v=0
9813608 On ch=3 n=5 v=100
9813667 Off ch=3 n=5 v=0
9813904 On ch=3 n=25 v=100
9814055 Off ch=3 n=25 v=0
9814885 On ch=3 n=11 v=100
9814944 Off ch=3 n=11 v=0
9814951 On ch=3 n=9 v=100
9815011 Off ch=3 n=9 v=0
9822042 On ch=3 n=53 v=100
9822074 On ch=3 n=26 v=100
9822151 Off ch=3 n=53 v=0
9822326 On ch=3 n=49 v=100
9822344 On ch=3 n=24 v=100
9822411 Off ch=3 n=26 v=0
9822451 On ch=3 n=61 v=100
9822624 Off ch=3 n=24 v=0
9822672 Off ch=3 n=49 v=0
9822680 On ch=3 n=35 v=100
9822735 Off ch=3 n=61 v=0
9822792 Off ch=3 n=35 v=0
9822875 On ch=3 n=36 v=100
9823127 Off ch=3 n=36 v=0
9823173 On ch=3 n=54 v=100
9823236 On ch=3 n=10 v=100
9823420 Off ch=3 n=54 v=0
9823424 Off ch=3 n=10 v=0
9823431 On ch=3 n=11 v=100
9824025 On ch=3 n=29 v=100
9824025 Off ch=3 n=11 v=0
9824249 On ch=3 n=27 v=100
9824285 Off ch=3 n=29 v=0
9824303 On ch=3 n=21 v=100
9824609 On ch=3 n=48 v=100
9824640 Off ch=3 n=27 v=0
9824685 Off ch=3 n=21 v=0
9824839 On ch=3 n=24 v=100
9824902 Off ch=3 n=48 v=0
9824903 Off ch=3 n=24 v=0
9824956 On ch=3 n=14 v=100
9825252 Off ch=3 n=14 v=0
9825257 On ch=3 n=25 v=100
9825369 Off ch=3 n=25 v=0
9825505 On ch=3 n=9 v=100
9825701 On ch=3 n=12 v=100
9825721 Off ch=3 n=9 v=0
9825822 On ch=3 n=37 v=100
9825823 Off ch=3 n=12 v=0
9825961 Off ch=3 n=37 v=0
9826665 On ch=3 n=17 v=100
9826700 On ch=3 n=17 v=100
9826719 On ch=3 n=25 v=100
9826874 Off ch=3 n=17 v=0
9827062 Off ch=3 n=17 v=0
9827064 On ch=3 n=14 v=100
9827072 On ch=3 n=22 v=100
9827140 Off ch=3 n=25 v=0
9827262 On ch=3 n=39 v=100
9827410 Off ch=3 n=14 v=0
9827475 Off ch=3 n=22 v=0
9827546 Off ch=3 n=39 v=0
9827578 On ch=3 n=39 v=100
9827578 On ch=3 n=7 v=100
9827658 Off ch=3 n=39 v=0
9828123 Off ch=3 n=7 v=0
9828154 On ch=3 n=7 v=100
9828167 Off ch=3 n=7 v=0
9829289 On ch=3 n=18 v=100
9829318 On ch=3 n=17 v=100
9829378 On ch=3 n=21 v=100
9829439 Off ch=3 n=18 v=0
9829439 Off ch=3 n=17 v=0
9829439 Off ch=3 n=21 v=0
9829469 On ch=3 n=18 v=100
9829469 On ch=3 n=17 v=100
9829574 Off ch=3 n=18 v=0
9829825 Off ch=3 n=17 v=0
9829968 On ch=3 n=13 v=100
9829968 On ch=3 n=19 v=100
9829968 On ch=3 n=21 v=100
9830054 Off ch=3 n=13 v=0
9830070 Off ch=3 n=21 v=0
9830126 Off ch=3 n=19 v=0
9831813 On ch=3 n=14 v=100
9832184 Off ch=3 n=14 v=0
9832197 On ch=3 n=10 v=100
9832776 Off ch=3 n=10 v=0
9834072 On ch=3 n=12 v=100
9834560 Off ch=3 n=12 v=0
9836464 On ch=3 n=18 v=100
9837234 On ch=3 n=11 v=100
9837248 Off ch=3 n=18 v=0
9837798 Off ch=3 n=11 v=0
9837862 On ch=3 n=11 v=100
9838032 Off ch=3 n=11 v=0
9838365 On ch=3 n=23 v=100
9838452 Off ch=3 n=23 v=0
9839478 On ch=3 n=19 v=100
9839537 Off ch=3 n=19 v=0
9839560 On ch=3 n=18 v=100
9839747 On ch=3 n=28 v=100
9839814 Off ch=3 n=18 v=0
9839912 On ch=3 n=10 v=100
9840368 Off ch=3 n=10 v=0
9840372 Off ch=3 n=28 v=0
9840501 On ch=3 n=17 v=100
9841187 On ch=3 n=16 v=100
9841188 Off ch=3 n=17 v=0
9841269 Off ch=3 n=16 v=0
9841429 On ch=3 n=34 v=100
9841840 Off ch=3 n=34 v=0
9841919 On ch=3 n=34 v=100
9841961 Off ch=3 n=34 v=0
9841975 On ch=3 n=33 v=100
9841995 On ch=3 n=9 v=100
9842045 Off ch=3 n=33 v=0
9842330 Off ch=3 n=9 v=0
9843853 On ch=3 n=13 v=100
9844005 Off ch=3 n=13 v=0
9844014 On ch=3 n=7 v=100
9845222 Off ch=3 n=7 v=0
9845272 On ch=3 n=7 v=100
9845377 Off ch=3 n=7 v=0
9845381 On ch=3 n=19 v=100
9845469 Off ch=3 n=19 v=0
9845996 On ch=3 n=23 v=100
9846387 On ch=3 n=35 v=100
9846445 Off ch=3 n=23 v=0
9846530 Off ch=3 n=35 v=0
9847026 On ch=3 n=10 v=100
9847542 On ch=3 n=9 v=100
9847544 Off ch=3 n=10 v=0
9847587 Off ch=3 n=9 v=0
9848327 On ch=3 n=9 v=100
9848415 On ch=3 n=10 v=100
9848708 Off ch=3 n=9 v=0
9848816 On ch=3 n=6 v=100
9848818 Off ch=3 n=10 v=0
9850392 Off ch=3 n=6 v=0
9850401 On ch=3 n=8 v=100
9851077 Off ch=3 n=8 v=0
9851192 On ch=3 n=24 v=100
9851199 On ch=3 n=13 v=100
9851199 On ch=3 n=36 v=100
9851209 On ch=3 n=34 v=100
9851317 On ch=3 n=11 v=100
9851340 On ch=3 n=11 v=100
9851341 Off ch=3 n=13 v=0
9851380 Off ch=3 n=24 v=0
9851416 Off ch=3 n=36 v=0
9851451 Off ch=3 n=34 v=0
9851607 Off ch=3 n=11 v=0
9851610 On ch=3 n=8 v=100
9851679 Off ch=3 n=11 v=0
9851694 Off ch=3 n=8 v=0
9852120 On ch=3 n=8 v=100
9852426 On ch=3 n=4 v=100
9852427 Off ch=3 n=8 v=0
9852490 Off ch=3 n=4 v=0
9854043 On ch=3 n=46 v=100
9854044 On ch=3 n=67 v=100
9854183 Off ch=3 n=46 v=0
9854397 Off ch=3 n=67 v=0
9856399 On ch=3 n=40 v=100
9856775 On ch=3 n=24 v=100
9857140 Off ch=3 n=40 v=0
9857212 Off ch=3 n=24 v=0
9857628 On ch=3 n=30 v=100
9857683 On ch=3 n=23 v=100
9857683 Off ch=3 n=30 v=0
9857836 On ch=3 n=25 v=100
9857840 Off ch=3 n=23 v=0
9858059 Off ch=3 n=25 v=0
9858062 On ch=3 n=7 v=100
9859406 Off ch=3 n=7 v=0
9859435 On ch=3 n=21 v=100
9859575 Off ch=3 n=21 v=0
9859604 On ch=3 n=22 v=100
9859605 On ch=3 n=38 v=100
9859656 Off ch=3 n=22 v=0
9859684 Off ch=3 n=38 v=0
9860770 On ch=3 n=24 v=100
9860914 Off ch=3 n=24 v=0
9861250 On ch=3 n=16 v=100
9861288 Off ch=3 n=16 v=0
9861296 On ch=3 n=6 v=100
9861350 Off ch=3 n=6 v=0
9861353 On ch=3 n=12 v=100
9861583 On ch=3 n=11 v=100
9861584 Off ch=3 n=12 v=0
9861586 On ch=3 n=18 v=100
9861660 Off ch=3 n=11 v=0
9861685 On ch=3 n=26 v=100
9861694 Off ch=3 n=18 v=0
9861712 On ch=3 n=6 v=100
9861742 On ch=3 n=10 v=100
9861743 Off ch=3 n=26 v=0
9861743 Off ch=3 n=6 v=0
9861869 Off ch=3 n=10 v=0
9861875 On ch=3 n=29 v=100
9862018 Off ch=3 n=29 v=0
9862050 On ch=3 n=27 v=100
9862317 Off ch=3 n=27 v=0
9862469 On ch=3 n=25 v=100
9862693 Off ch=3 n=25 v=0
9862694 On ch=3 n=27 v=100
9862754 Off ch=3 n=27 v=0
9862778 On ch=3 n=30 v=100
9862866 Off ch=3 n=30 v=0
9864666 On ch=3 n=28 v=100
9864787 On ch=3 n=9 v=100
9864992 Off ch=3 n=28 v=0
9865009 Off ch=3 n=9 v=0
9865327 On ch=3 n=23 v=100
9865951 On ch=3 n=23 v=100
9866023 Off ch=3 n=23 v=0
9866035 Off ch=3 n=23 v=0
9867537 On ch=3 n=9 v=100
9867803 Off ch=3 n=9 v=0
9867809 On ch=3 n=8 v=100
9868337 Off ch=3 n=8 v=0
9868339 On ch=3 n=23 v=100
9868339 On ch=3 n=0 v=100
9868839 On ch=3 n=20 v=100
9868869 Off ch=3 n=0 v=0
9868945 Off ch=3 n=23 v=0
9868951 On ch=3 n=3 v=100
9869254 On ch=3 n=10 v=100
9869290 Off ch=3 n=20 v=0
9869290 Off ch=3 n=3 v=0
9869842 On ch=3 n=10 v=100
9869844 Off ch=3 n=10 v=0
9870123 Off ch=3 n=10 v=0
9870132 On ch=3 n=19 v=100
9870145 On ch=3 n=46 v=100
9870275 Off ch=3 n=19 v=0
9870347 Off ch=3 n=46 v=0
9870479 On ch=3 n=19 v=100
9870641 Off ch=3 n=19 v=0
9872101 On ch=3 n=25 v=100
9872129 On ch=3 n=17 v=100
9872129 On ch=3 n=25 v=100
9872130 On ch=3 n=30 v=100
9872259 On ch=3 n=18 v=100
9872268 Off ch=3 n=25 v=0
9872279 On ch=3 n=13 v=100
9872282 Off ch=3 n=17 v=0
9872307 Off ch=3 n=25 v=0
9872408 Off ch=3 n=30 v=0
9872449 Off ch=3 n=13 v=0
9872457 Off ch=3 n=18 v=0
9872598 On ch=3 n=35 v=100
9872769 On ch=3 n=20 v=100
9873003 Off ch=3 n=35 v=0
9873005 Off ch=3 n=20 v=0
9873372 On ch=3 n=15 v=100
9873416 On ch=3 n=13 v=100
9873419 On ch=3 n=17 v=100
9873423 On ch=3 n=18 v=100
9873779 Off ch=3 n=15 v=0
9873790 Off ch=3 n=13 v=0
9873815 On ch=3 n=6 v=100
9873875 Off ch=3 n=17 v=0
9873947 Off ch=3 n=18 v=0
9875220 Off ch=3 n=6 v=0
9875990 On ch=3 n=34 v=100
9876086 Off ch=3 n=34 v=0
9876124 On ch=3 n=34 v=100
9876390 Off ch=3 n=34 v=0
9876557 On ch=3 n=14 v=100
9876657 Off ch=3 n=14 v=0
9876914 On ch=3 n=30 v=100
9876972 Off ch=3 n=30 v=0
9877143 On ch=3 n=28 v=100
9877193 Off ch=3 n=28 v=0
9877226 On ch=3 n=31 v=100
9877276 Off ch=3 n=31 v=0
9877403 On ch=3 n=16 v=100
9877436 Off ch=3 n=16 v=0
9877472 On ch=3 n=26 v=100
9877512 Off ch=3 n=26 v=0
9877556 On ch=3 n=21 v=100
9877613 Off ch=3 n=21 v=0
9878847 On ch=3 n=39 v=100
9879050 On ch=3 n=11 v=100
9879127 Off ch=3 n=39 v=0
9879933 On ch=3 n=9 v=100
9879938 Off ch=3 n=11 v=0
9880616 On ch=3 n=7 v=100
9880617 Off ch=3 n=9 v=0
9880722 Off ch=3 n=7 v=0
9881426 On ch=3 n=41 v=100
9881663 Off ch=3 n=41 v=0
9881845 On ch=3 n=47 v=100
9881925 Off ch=3 n=47 v=0
9884104 On ch=3 n=30 v=100
9884207 Off ch=3 n=30 v=0
9884217 On ch=3 n=25 v=100
9884273 On ch=3 n=29 v=100
9884403 Off ch=3 n=25 v=0
9884424 Off ch=3 n=29 v=0
9884532 On ch=3 n=29 v=100
9884606 Off ch=3 n=29 v=0
9884669 On ch=3 n=29 v=100
9884697 Off ch=3 n=29 v=0
9884746 On ch=3 n=29 v=100
9884746 On ch=3 n=23 v=100
9885131 Off ch=3 n=29 v=0
9885168 On ch=3 n=52 v=100
9885206 Off ch=3 n=23 v=0
9885206 Off ch=3 n=52 v=0
9885349 On ch=3 n=23 v=100
9885349 On ch=3 n=52 v=100
9885405 Off ch=3 n=23 v=0
9885410 On ch=3 n=9 v=100
9885645 Off ch=3 n=9 v=0
9885744 On ch=3 n=14 v=100
9885755 Off ch=3 n=52 v=0
9886162 On ch=3 n=60 v=100
9886162 On ch=3 n=60 v=100
9886184 On ch=3 n=4 v=100
9886185 Off ch=3 n=14 v=0
9886249 Off ch=3 n=4 v=0
9886559 Off ch=3 n=60 v=0
9886559 Off ch=3 n=60 v=0
9886977 On ch=3 n=14 v=100
9887098 On ch=3 n=37 v=100
9887098 On ch=3 n=37 v=100
9887158 Off ch=3 n=14 v=0
9887697 On ch=3 n=23 v=100
9887719 Off ch=3 n=37 v=0
9887719 Off ch=3 n=37 v=0
9887768 Off ch=3 n=23 v=0
9887945 On ch=3 n=9 v=100
9888169 Off ch=3 n=9 v=0
9888187 On ch=3 n=13 v=100
9889163 Off ch=3 n=13 v=0
9889222 On ch=3 n=11 v=100
9889304 Off ch=3 n=11 v=0
9890408 On ch=3 n=35 v=100
9890408 On ch=3 n=35 v=100
9890647 On ch=3 n=16 v=100
9890992 Off ch=3 n=16 v=0
9891237 Off ch=3 n=35 v=0
9891237 Off ch=3 n=35 v=0
9891340 On ch=3 n=19 v=100
9891539 Off ch=3 n=19 v=0
9891571 On ch=3 n=10 v=100
9891738 Off ch=3 n=10 v=0
9892892 On ch=3 n=8 v=100
9893205 Off ch=3 n=8 v=0
9893213 On ch=3 n=7 v=100
9893213 On ch=3 n=9 v=100
9893380 Off ch=3 n=7 v=0
9893419 On ch=3 n=24 v=100
9893483 On ch=3 n=44 v=100
9893495 On ch=3 n=40 v=100
9893499 Off ch=3 n=9 v=0
9893536 On ch=3 n=7 v=100
9893562 Off ch=3 n=24 v=0
9893579 Off ch=3 n=44 v=0
9893584 Off ch=3 n=40 v=0
9893773 On ch=3 n=51 v=100
9893851 Off ch=3 n=7 v=0
9893863 On ch=3 n=6 v=100
9894219 Off ch=3 n=51 v=0
9894522 Off ch=3 n=6 v=0
9895975 On ch=3 n=45 v=100
9895980 On ch=3 n=27 v=100
9896085 Off ch=3 n=27 v=0
9896133 Off ch=3 n=45 v=0
9896460 On ch=3 n=21 v=100
9896602 Off ch=3 n=21 v=0
9897151 On ch=3 n=38 v=100
9897385 Off ch=3 n=38 v=0
9897478 On ch=3 n=24 v=100
9897519 On ch=3 n=21 v=100
9897526 On ch=3 n=21 v=100
9897717 On ch=3 n=31 v=100
9897833 Off ch=3 n=21 v=0
9897856 Off ch=3 n=24 v=0
9897897 Off ch=3 n=21 v=0
9897928 Off ch=3 n=31 v=0
9898205 On ch=3 n=11 v=100
9898670 Off ch=3 n=11 v=0
9900036 On ch=3 n=14 v=100
9900221 Off ch=3 n=14 v=0
9900266 On ch=3 n=14 v=100
9900574 Off ch=3 n=14 v=0
9900658 On ch=3 n=21 v=100
9900748 Off ch=3 n=21 v=0
9901710 On ch=3 n=10 v=100
9901803 On ch=3 n=40 v=100
9901953 Off ch=3 n=10 v=0
9902064 On ch=3 n=20 v=100
9902129 On ch=3 n=33 v=100
9902180 On ch=3 n=18 v=100
9902416 Off ch=3 n=40 v=0
9902470 Off ch=3 n=20 v=0
9902511 Off ch=3 n=33 v=0
9902544 On ch=3 n=13 v=100
9902571 Off ch=3 n=18 v=0
9902649 Off ch=3 n=13 v=0
9902649 Off ch=3 n=13 v=0
9902650 On ch=3 n=13 v=100
9902719 On ch=3 n=13 v=100
9903760 Off ch=3 n=13 v=0
9904000 On ch=3 n=13 v=100
9904000 On ch=3 n=29 v=100
9904091 Off ch=3 n=13 v=0
9904115 On ch=3 n=22 v=100
9904155 Off ch=3 n=29 v=0
9904367 Off ch=3 n=22 v=0
9905417 On ch=3 n=10 v=100
9906069 On ch=3 n=6 v=100
9906072 Off ch=3 n=10 v=0
9906282 Off ch=3 n=6 v=0
9906377 On ch=3 n=8 v=100
9906620 Off ch=3 n=8 v=0
9906778 On ch=3 n=44 v=100
9907068 On ch=3 n=49 v=100
9907149 Off ch=3 n=44 v=0
9907240 Off ch=3 n=49 v=0
9907754 On ch=3 n=72 v=100
9907931 Off ch=3 n=72 v=0
9908474 On ch=3 n=25 v=100
9908572 Off ch=3 n=25 v=0
9914389 On ch=3 n=30 v=100
9914389 On ch=3 n=38 v=100
9914552 Off ch=3 n=30 v=0
9914585 Off ch=3 n=38 v=0
9914613 On ch=3 n=8 v=100
9914940 Off ch=3 n=8 v=0
9915505 On ch=3 n=24 v=100
9915568 Off ch=3 n=24 v=0
9915574 On ch=3 n=23 v=100
9915626 Off ch=3 n=23 v=0
9915664 On ch=3 n=35 v=100
9915736 On ch=3 n=16 v=100
9915750 Off ch=3 n=35 v=0
9915881 Off ch=3 n=16 v=0
9915890 On ch=3 n=27 v=100
9916045 Off ch=3 n=27 v=0
9916603 On ch=3 n=20 v=100
9917559 Off ch=3 n=20 v=0
9917639 On ch=3 n=20 v=100
9917668 Off ch=3 n=20 v=0
9918798 On ch=3 n=8 v=100
9919578 On ch=3 n=54 v=100
9919842 On ch=3 n=30 v=100
9919909 Off ch=3 n=8 v=0
9919962 Off ch=3 n=54 v=0
9920071 Off ch=3 n=30 v=0
9920442 On ch=3 n=12 v=100
9920489 Off ch=3 n=12 v=0
9920495 On ch=3 n=33 v=100
9920495 On ch=3 n=33 v=100
9920555 On ch=3 n=23 v=100
9920788 On ch=3 n=18 v=100
9920788 On ch=3 n=18 v=100
9921057 Off ch=3 n=33 v=0
9921057 Off ch=3 n=33 v=0
9921152 Off ch=3 n=23 v=0
9921280 Off ch=3 n=18 v=0
9921280 Off ch=3 n=18 v=0
9926512 On ch=3 n=11 v=100
9926753 Off ch=3 n=11 v=0
9926895 On ch=3 n=11 v=100
9926912 Off ch=3 n=11 v=0
9927883 On ch=3 n=9 v=100
9928931 Off ch=3 n=9 v=0
9929017 On ch=3 n=9 v=100
9929188 Off ch=3 n=9 v=0
9929554 On ch=3 n=28 v=100
9929692 Off ch=3 n=28 v=0
9929828 On ch=3 n=35 v=100
9929860 On ch=3 n=4 v=100
9929927 Off ch=3 n=35 v=0
9930883 Off ch=3 n=4 v=0
9930922 On ch=3 n=25 v=100
9931557 Off ch=3 n=25 v=0
9937790 On ch=3 n=9 v=100
9937917 Off ch=3 n=9 v=0
9937942 On ch=3 n=27 v=100
9938074 Off ch=3 n=27 v=0
9938081 On ch=3 n=25 v=100
9938234 Off ch=3 n=25 v=0
9938962 On ch=3 n=24 v=100
9939099 On ch=3 n=14 v=100
9939123 On ch=3 n=35 v=100
9939125 On ch=3 n=25 v=100
9939450 Off ch=3 n=24 v=0
9939452 Off ch=3 n=14 v=0
9939605 Off ch=3 n=25 v=0
9939698 Off ch=3 n=35 v=0
9939722 On ch=3 n=24 v=100
9939736 On ch=3 n=10 v=100
9939806 Off ch=3 n=24 v=0
9940596 On ch=3 n=7 v=100
9940599 Off ch=3 n=10 v=0
9940682 Off ch=3 n=7 v=0
9940907 On ch=3 n=19 v=100
9941859 Off ch=3 n=19 v=0
9941861 On ch=3 n=6 v=100
9942078 Off ch=3 n=6 v=0
9942082 On ch=3 n=7 v=100
9942459 Off ch=3 n=7 v=0
9942460 On ch=3 n=13 v=100
9942486 On ch=3 n=18 v=100
9942506 Off ch=3 n=13 v=0
9942519 On ch=3 n=8 v=100
9942667 Off ch=3 n=18 v=0
9942869 Off ch=3 n=8 v=0
9944525 On ch=3 n=23 v=100
9944539 On ch=3 n=27 v=100
9944590 On ch=3 n=23 v=100
9944695 On ch=3 n=22 v=100
9944695 Off ch=3 n=27 v=0
9944695 Off ch=3 n=23 v=0
9944701 Off ch=3 n=23 v=0
9945141 On ch=3 n=35 v=100
9945412 On ch=3 n=32 v=100
9945472 Off ch=3 n=22 v=0
9945563 Off ch=3 n=35 v=0
9945856 On ch=3 n=28 v=100
9945912 Off ch=3 n=32 v=0
9945917 On ch=3 n=7 v=100
9945920 Off ch=3 n=28 v=0
9946137 On ch=3 n=15 v=100
9946513 Off ch=3 n=7 v=0
9946587 Off ch=3 n=15 v=0
9946659 On ch=3 n=42 v=100
9946673 On ch=3 n=30 v=100
9946772 Off ch=3 n=42 v=0
9947012 On ch=3 n=18 v=100
9947315 On ch=3 n=21 v=100
9947351 On ch=3 n=38 v=100
9947492 Off ch=3 n=30 v=0
9947513 Off ch=3 n=18 v=0
9947548 Off ch=3 n=21 v=0
9947661 Off ch=3 n=38 v=0
9947715 On ch=3 n=36 v=100
9947999 Off ch=3 n=36 v=0
9950161 On ch=3 n=14 v=100
9950388 On ch=3 n=7 v=100
9950393 Off ch=3 n=14 v=0
9950595 Off ch=3 n=7 v=0
9950597 On ch=3 n=13 v=100
9950623 On ch=3 n=19 v=100
9950776 Off ch=3 n=13 v=0
9951119 Off ch=3 n=19 v=0
9951432 On ch=3 n=18 v=100
9951735 On ch=3 n=18 v=100
9951735 On ch=3 n=28 v=100
9951845 Off ch=3 n=18 v=0
9951862 Off ch=3 n=18 v=0
9951887 Off ch=3 n=28 v=0
9952880 On ch=3 n=7 v=100
9953777 Off ch=3 n=7 v=0
9953829 On ch=3 n=24 v=100
9954017 Off ch=3 n=24 v=0
9954027 On ch=3 n=24 v=100
9954118 Off ch=3 n=24 v=0
9954639 On ch=3 n=7 v=100
9955291 On ch=3 n=38 v=100
9955352 Off ch=3 n=7 v=0
9955362 Off ch=3 n=38 v=0
9955726 On ch=3 n=17 v=100
9955881 On ch=3 n=12 v=100
9955883 Off ch=3 n=17 v=0
9956987 On ch=3 n=16 v=100
9957014 Off ch=3 n=12 v=0
9957204 On ch=3 n=51 v=100
9957214 Off ch=3 n=16 v=0
9957215 On ch=3 n=25 v=100
9957291 Off ch=3 n=51 v=0
9957292 Off ch=3 n=25 v=0
9957295 On ch=3 n=18 v=100
9957482 Off ch=3 n=18 v=0
9958671 On ch=3 n=10 v=100
9958904 Off ch=3 n=10 v=0
9959103 On ch=3 n=16 v=100
9959120 On ch=3 n=31 v=100
9959323 Off ch=3 n=16 v=0
9959355 Off ch=3 n=31 v=0
9959497 On ch=3 n=12 v=100
9960168 Off ch=3 n=12 v=0
9961807 On ch=3 n=26 v=100
9961879 Off ch=3 n=26 v=0
9961925 On ch=3 n=25 v=100
9962326 On ch=3 n=42 v=100
9962360 On ch=3 n=30 v=100
9962373 Off ch=3 n=25 v=0
9962377 On ch=3 n=28 v=100
9962493 Off ch=3 n=42 v=0
9962516 Off ch=3 n=28 v=0
9962517 Off ch=3 n=30 v=0
9963007 On ch=3 n=24 v=100
9963051 On ch=3 n=25 v=100
9963135 Off ch=3 n=24 v=0
9963506 Off ch=3 n=25 v=0
9963511 On ch=3 n=27 v=100
9963609 On ch=3 n=31 v=100
9963763 Off ch=3 n=27 v=0
9963836 Off ch=3 n=31 v=0
9963842 On ch=3 n=13 v=100
9964464 Off ch=3 n=13 v=0
9964466 On ch=3 n=30 v=100
9964542 On ch=3 n=28 v=100
9964579 On ch=3 n=36 v=100
9964579 On ch=3 n=36 v=100
9964600 On ch=3 n=19 v=100
9964601 On ch=3 n=17 v=100
9964602 Off ch=3 n=30 v=0
9964614 Off ch=3 n=28 v=0
9964650 Off ch=3 n=19 v=0
9964664 Off ch=3 n=17 v=0
9964705 Off ch=3 n=36 v=0
9964705 Off ch=3 n=36 v=0
9964782 On ch=3 n=36 v=100
9964784 On ch=3 n=46 v=100
9964878 Off ch=3 n=36 v=0
9964894 Off ch=3 n=46 v=0
9965835 On ch=3 n=25 v=100
9965838 On ch=3 n=17 v=100
9966264 Off ch=3 n=17 v=0
9966391 On ch=3 n=17 v=100
9966398 Off ch=3 n=25 v=0
9966548 Off ch=3 n=17 v=0
9966677 On ch=3 n=24 v=100
9966925 Off ch=3 n=24 v=0
9967467 On ch=3 n=10 v=100
9967640 Off ch=3 n=10 v=0
9968455 On ch=3 n=20 v=100
9969288 Off ch=3 n=20 v=0
9969294 On ch=3 n=22 v=100
9969738 Off ch=3 n=22 v=0
9971802 On ch=3 n=20 v=100
9972013 Off ch=3 n=20 v=0
9972296 On ch=3 n=22 v=100
9972343 On ch=3 n=18 v=100
9972415 Off ch=3 n=22 v=0
9972494 On ch=3 n=17 v=100
9972752 Off ch=3 n=18 v=0
9972769 Off ch=3 n=17 v=0
9972848 On ch=3 n=17 v=100
9972905 Off ch=3 n=17 v=0
9974147 On ch=3 n=10 v=100
9974519 Off ch=3 n=10 v=0
9974606 On ch=3 n=10 v=100
9975193 Off ch=3 n=10 v=0
9975194 On ch=3 n=25 v=100
9975249 Off ch=3 n=25 v=0
9975358 On ch=3 n=11 v=100
9975446 Off ch=3 n=11 v=0
9975448 On ch=3 n=11 v=100
9975537 Off ch=3 n=11 v=0
9975798 On ch=3 n=23 v=100
9975926 On ch=3 n=12 v=100
9976046 Off ch=3 n=23 v=0
9976076 On ch=3 n=22 v=100
9976113 Off ch=3 n=12 v=0
9976177 On ch=3 n=19 v=100
9976606 Off ch=3 n=22 v=0
9976606 Off ch=3 n=19 v=0
9976622 On ch=3 n=19 v=100
9976969 Off ch=3 n=19 v=0
9977005 On ch=3 n=19 v=100
9977423 Off ch=3 n=19 v=0
9980359 On ch=3 n=25 v=100
9980491 Off ch=3 n=25 v=0
9980541 On ch=3 n=16 v=100
9980642 On ch=3 n=28 v=100
9980848 Off ch=3 n=16 v=0
9980915 On ch=3 n=9 v=100
9980917 On ch=3 n=16 v=100
9981225 Off ch=3 n=28 v=0
9981323 Off ch=3 n=9 v=0
9981386 Off ch=3 n=16 v=0
9982642 On ch=3 n=52 v=100
9982768 Off ch=3 n=52 v=0
9982805 On ch=3 n=28 v=100
9983017 On ch=3 n=9 v=100
9983044 Off ch=3 n=28 v=0
9983362 On ch=3 n=21 v=100
9983411 Off ch=3 n=9 v=0
9983429 Off ch=3 n=21 v=0
9983461 On ch=3 n=21 v=100
9983461 On ch=3 n=5 v=100
9983746 Off ch=3 n=21 v=0
9983791 Off ch=3 n=5 v=0
9983792 On ch=3 n=3 v=100
9985137 On ch=3 n=10 v=100
9985138 Off ch=3 n=3 v=0
9985178 Off ch=3 n=10 v=0
9985206 On ch=3 n=17 v=100
9985334 Off ch=3 n=17 v=0
9985369 On ch=3 n=17 v=100
9985395 Off ch=3 n=17 v=0
9985956 On ch=3 n=39 v=100
9985956 On ch=3 n=39 v=100
9985970 On ch=3 n=38 v=100
9986065 Off ch=3 n=38 v=0
9986089 Off ch=3 n=39 v=0
9986089 Off ch=3 n=39 v=0
9987818 On ch=3 n=13 v=100
9987885 Off ch=3 n=13 v=0
9987913 On ch=3 n=36 v=100
9987981 On ch=3 n=22 v=100
9988005 Off ch=3 n=36 v=0
9988016 On ch=3 n=11 v=100
9988298 Off ch=3 n=22 v=0
9988702 Off ch=3 n=11 v=0
9988703 On ch=3 n=12 v=100
9989179 Off ch=3 n=12 v=0
9989218 On ch=3 n=35 v=100
9989233 On ch=3 n=20 v=100
9989237 On ch=3 n=32 v=100
9989337 Off ch=3 n=35 v=0
9989459 Off ch=3 n=20 v=0
9989487 Off ch=3 n=32 v=0
9990077 On ch=3 n=4 v=100
9990117 On ch=3 n=9 v=100
9990118 Off ch=3 n=4 v=0
9990550 On ch=3 n=7 v=100
9990552 Off ch=3 n=9 v=0
9990661 Off ch=3 n=7 v=0
9990925 On ch=3 n=6 v=100
9991116 Off ch=3 n=6 v=0
9991520 On ch=3 n=9 v=100
9991711 On ch=3 n=7 v=100
9991711 Off ch=3 n=9 v=0
9991779 On ch=3 n=34 v=100
9991863 Off ch=3 n=7 v=0
9991910 On ch=3 n=12 v=100
9991926 Off ch=3 n=34 v=0
9992356 Off ch=3 n=12 v=0
9993585 On ch=3 n=28 v=100
9993681 Off ch=3 n=28 v=0
9994071 On ch=3 n=28 v=100
9994226 Off ch=3 n=28 v=0
9995269 On ch=3 n=39 v=100
9995479 Off ch=3 n=39 v=0
9995492 On ch=3 n=8 v=100
9995713 On ch=3 n=7 v=100
9995713 On ch=3 n=44 v=100
9995713 Off ch=3 n=8 v=0
9995848 Off ch=3 n=7 v=0
9995910 On ch=3 n=33 v=100
9995979 On ch=3 n=11 v=100
9995983 Off ch=3 n=33 v=0
9996082 On ch=3 n=13 v=100
9996082 Off ch=3 n=44 v=0
9996082 Off ch=3 n=11 v=0
9996159 Off ch=3 n=13 v=0
9996702 On ch=3 n=9 v=100
9997435 Off ch=3 n=9 v=0
9997719 On ch=3 n=7 v=100
9998605 Off ch=3 n=7 v=0
9998606 On ch=3 n=25 v=100
9998854 Off ch=3 n=25 v=0
9998909 On ch=3 n=15 v=100
9999124 Off ch=3 n=15 v=0
10000217 On ch=3 n=20 v=100
10000304 Off ch=3 n=20 v=0
10001035 On ch=3 n=16 v=100
10001282 On ch=3 n=5 v=100
10001282 On ch=3 n=19 v=100
10001282 Off ch=3 n=16 v=0
10001540 Off ch=3 n=5 v=0
10001542 On ch=3 n=15 v=100
10001583 Off ch=3 n=19 v=0
10001736 On ch=3 n=35 v=100
10001739 Off ch=3 n=15 v=0
10001979 Off ch=3 n=35 v=0
10002323 On ch=3 n=27 v=100
10002383 Off ch=3 n=27 v=0
10003070 On ch=3 n=21 v=100
10003207 Off ch=3 n=21 v=0
10003212 On ch=3 n=7 v=100
10004005 Off ch=3 n=7 v=0
10004006 On ch=3 n=8 v=100
10004171 Off ch=3 n=8 v=0
10004184 On ch=3 n=29 v=100
10004315 On ch=3 n=34 v=100
10004408 Off ch=3 n=29 v=0
10004449 Off ch=3 n=34 v=0
10004488 On ch=3 n=18 v=100
10004522 On ch=3 n=26 v=100
10004524 On ch=3 n=25 v=100
10004568 Off ch=3 n=18 v=0
10004573 Off ch=3 n=25 v=0
10004574 On ch=3 n=21 v=100
10004578 Off ch=3 n=26 v=0
10004786 Off ch=3 n=21 v=0
10005270 On ch=3 n=30 v=100
10005309 On ch=3 n=22 v=100
10005310 On ch=3 n=19 v=100
10005564 Off ch=3 n=30 v=0
10005564 Off ch=3 n=19 v=0
10005603 Off ch=3 n=22 v=0
10005696 On ch=3 n=22 v=100
10005794 Off ch=3 n=22 v=0
10007667 On ch=3 n=21 v=100
10007760 On ch=3 n=22 v=100
10008104 Off ch=3 n=21 v=0
10008105 Off ch=3 n=22 v=0
10008163 On ch=3 n=22 v=100
10008271 Off ch=3 n=22 v=0
10009375 On ch=3 n=15 v=100
10009375 On ch=3 n=29 v=100
10009733 Off ch=3 n=15 v=0
10009778 Off ch=3 n=29 v=0
10009834 On ch=3 n=29 v=100
10009982 Off ch=3 n=29 v=0
10011115 On ch=3 n=17 v=100
10011278 Off ch=3 n=17 v=0
10011555 On ch=3 n=11 v=100
10012017 Off ch=3 n=11 v=0
10012242 On ch=3 n=16 v=100
10012329 On ch=3 n=9 v=100
10012332 Off ch=3 n=16 v=0
10012858 Off ch=3 n=9 v=0
10013082 On ch=3 n=8 v=100
10013337 Off ch=3 n=8 v=0
10013363 On ch=3 n=12 v=100
10013690 Off ch=3 n=12 v=0
10013692 On ch=3 n=0 v=100
10013857 On ch=3 n=2 v=100
10013857 Off ch=3 n=0 v=0
10014308 On ch=3 n=20 v=100
10014309 On ch=3 n=10 v=100
10014309 Off ch=3 n=2 v=0
10014761 Off ch=3 n=10 v=0
10014814 Off ch=3 n=20 v=0
10015632 On ch=3 n=19 v=100
10015730 Off ch=3 n=19 v=0
10016164 On ch=3 n=26 v=100
10016288 Off ch=3 n=26 v=0
10016446 On ch=3 n=29 v=100
10016446 On ch=3 n=29 v=100
10016508 On ch=3 n=16 v=100
10016509 On ch=3 n=35 v=100
10016509 On ch=3 n=35 v=100
10016578 On ch=3 n=37 v=100
10016581 Off ch=3 n=29 v=0
10016581 Off ch=3 n=29 v=0
10016583 Off ch=3 n=16 v=0
10016632 Off ch=3 n=35 v=0
10016632 Off ch=3 n=35 v=0
10016675 Off ch=3 n=37 v=0
10018267 On ch=3 n=25 v=100
10018578 Off ch=3 n=25 v=0
10018583 On ch=3 n=5 v=100
10018807 On ch=3 n=21 v=100
10018811 Off ch=3 n=5 v=0
10019101 Off ch=3 n=21 v=0
10019237 On ch=3 n=31 v=100
10019356 Off ch=3 n=31 v=0
10019483 On ch=3 n=33 v=100
10019641 Off ch=3 n=33 v=0
10019705 On ch=3 n=22 v=100
10019756 On ch=3 n=10 v=100
10019784 On ch=3 n=13 v=100
10019826 On ch=3 n=11 v=100
10019909 On ch=3 n=16 v=100
10019954 Off ch=3 n=22 v=0
10019954 Off ch=3 n=13 v=0
10019955 Off ch=3 n=10 v=0
10019958 On ch=3 n=8 v=100
10019959 On ch=3 n=17 v=100
10020176 Off ch=3 n=11 v=0
10020253 Off ch=3 n=16 v=0
10020263 Off ch=3 n=8 v=0
10020297 On ch=3 n=12 v=100
10020373 Off ch=3 n=17 v=0
10020442 Off ch=3 n=12 v=0
10020454 On ch=3 n=6 v=100
10020573 Off ch=3 n=6 v=0
10020591 On ch=3 n=28 v=100
10020598 On ch=3 n=18 v=100
10020599 On ch=3 n=28 v=100
10020728 Off ch=3 n=18 v=0
10020757 Off ch=3 n=28 v=0
10020808 On ch=3 n=38 v=100
10020819 Off ch=3 n=28 v=0
10020928 On ch=3 n=8 v=100
10020932 Off ch=3 n=38 v=0
10021279 Off ch=3 n=8 v=0
10021281 On ch=3 n=6 v=100
10021676 Off ch=3 n=6 v=0
10022606 On ch=3 n=34 v=100
10022619 On ch=3 n=20 v=100
10022720 Off ch=3 n=34 v=0
10022783 Off ch=3 n=20 v=0
10023093 On ch=3 n=14 v=100
10023960 On ch=3 n=28 v=100
10024117 Off ch=3 n=14 v=0
10024156 Off ch=3 n=28 v=0
10024392 On ch=3 n=9 v=100
10024752 Off ch=3 n=9 v=0
10025896 On ch=3 n=7 v=100
10026809 Off ch=3 n=7 v=0
10026955 On ch=3 n=23 v=100
10027202 Off ch=3 n=23 v=0
10027680 On ch=3 n=28 v=100
10027827 Off ch=3 n=28 v=0
10027951 On ch=3 n=6 v=100
10028595 Off ch=3 n=6 v=0
10028820 On ch=3 n=45 v=100
10028934 Off ch=3 n=45 v=0
10030397 On ch=3 n=27 v=100
10030472 On ch=3 n=11 v=100
10030483 Off ch=3 n=27 v=0
10030595 Off ch=3 n=11 v=0
10030781 On ch=3 n=16 v=100
10031172 Off ch=3 n=16 v=0
10032903 On ch=3 n=50 v=100
10032903 On ch=3 n=50 v=100
10032944 On ch=3 n=8 v=100
10033036 On ch=3 n=20 v=100
10033040 Off ch=3 n=8 v=0
10033045 On ch=3 n=60 v=100
10033219 Off ch=3 n=50 v=0
10033219 Off ch=3 n=50 v=0
10033231 On ch=3 n=20 v=100
10033236 Off ch=3 n=20 v=0
10033297 Off ch=3 n=60 v=0
10033476 Off ch=3 n=20 v=0
10033478 On ch=3 n=8 v=100
10033737 Off ch=3 n=8 v=0
10033890 On ch=3 n=35 v=100
10034017 On ch=3 n=13 v=100
10034061 Off ch=3 n=35 v=0
10034268 Off ch=3 n=13 v=0
10034899 On ch=3 n=13 v=100
10035218 Off ch=3 n=13 v=0
10036511 On ch=3 n=21 v=100
10036530 On ch=3 n=11 v=100
10036657 On ch=3 n=23 v=100
10036665 Off ch=3 n=11 v=0
10036667 Off ch=3 n=21 v=0
10036692 On ch=3 n=16 v=100
10036820 Off ch=3 n=23 v=0
10037162 On ch=3 n=21 v=100
10037162 Off ch=3 n=16 v=0
10037282 Off ch=3 n=21 v=0
10037711 On ch=3 n=14 v=100
10037996 On ch=3 n=34 v=100
10038137 Off ch=3 n=14 v=0
10038253 On ch=3 n=14 v=100
10038257 On ch=3 n=11 v=100
10038407 Off ch=3 n=34 v=0
10038421 On ch=3 n=10 v=100
10038425 Off ch=3 n=11 v=0
10038442 Off ch=3 n=14 v=0
10038886 Off ch=3 n=10 v=0
10039914 On ch=3 n=11 v=100
10040155 Off ch=3 n=11 v=0
10040191 On ch=3 n=9 v=100
10040596 Off ch=3 n=9 v=0
10040635 On ch=3 n=6 v=100
10040895 Off ch=3 n=6 v=0
10040988 On ch=3 n=28 v=100
10041009 On ch=3 n=12 v=100
10041178 Off ch=3 n=28 v=0
10041186 Off ch=3 n=12 v=0
10042041 On ch=3 n=11 v=100
10042518 Off ch=3 n=11 v=0
10043671 On ch=3 n=26 v=100
10043726 On ch=3 n=7 v=100
10043799 Off ch=3 n=26 v=0
10044944 Off ch=3 n=7 v=0
10046372 On ch=3 n=30 v=100
10046372 On ch=3 n=16 v=100
10046604 Off ch=3 n=16 v=0
10046652 Off ch=3 n=30 v=0
10046662 On ch=3 n=25 v=100
10046663 On ch=3 n=20 v=100
10046751 Off ch=3 n=20 v=0
10046761 Off ch=3 n=25 v=0
10048434 On ch=3 n=21 v=100
10048485 On ch=3 n=22 v=100
10048609 Off ch=3 n=21 v=0
10048632 On ch=3 n=19 v=100
10048968 Off ch=3 n=22 v=0
10049459 Off ch=3 n=19 v=0
10049590 On ch=3 n=31 v=100
10049710 Off ch=3 n=31 v=0
10049726 On ch=3 n=23 v=100
10049924 On ch=3 n=21 v=100
10049925 Off ch=3 n=23 v=0
10050036 Off ch=3 n=21 v=0
10050800 On ch=3 n=18 v=100
10050889 On ch=3 n=25 v=100
10050916 On ch=3 n=18 v=100
10051166 Off ch=3 n=18 v=0
10051166 Off ch=3 n=18 v=0
10051171 Off ch=3 n=25 v=0
10051408 On ch=3 n=11 v=100
10051751 On ch=3 n=17 v=100
10051753 On ch=3 n=21 v=100
10051937 Off ch=3 n=11 v=0
10052018 Off ch=3 n=17 v=0
10052056 On ch=3 n=12 v=100
10052065 Off ch=3 n=21 v=0
10052117 On ch=3 n=12 v=100
10052119 Off ch=3 n=12 v=0
10053215 Off ch=3 n=12 v=0
10053240 On ch=3 n=14 v=100
10053831 Off ch=3 n=14 v=0
10054661 On ch=3 n=24 v=100
10054725 On ch=3 n=20 v=100
10054735 On ch=3 n=15 v=100
10054904 On ch=3 n=8 v=100
10055088 Off ch=3 n=15 v=0
10055099 Off ch=3 n=24 v=0
10055138 Off ch=3 n=20 v=0
10055370 Off ch=3 n=8 v=0
10055394 On ch=3 n=3 v=100
10055454 Off ch=3 n=3 v=0
10055541 On ch=3 n=28 v=100
10055610 Off ch=3 n=28 v=0
10055847 On ch=3 n=32 v=100
10055890 On ch=3 n=17 v=100
10055959 Off ch=3 n=32 v=0
10055959 Off ch=3 n=17 v=0
10056752 On ch=3 n=26 v=100
10056954 On ch=3 n=22 v=100
10056962 Off ch=3 n=26 v=0
10057036 Off ch=3 n=22 v=0
10057064 On ch=3 n=22 v=100
10057569 On ch=3 n=41 v=100
10057580 Off ch=3 n=22 v=0
10057814 Off ch=3 n=41 v=0
10058115 On ch=3 n=46 v=100
10058297 Off ch=3 n=46 v=0
10059876 On ch=3 n=8 v=100
10059916 Off ch=3 n=8 v=0
10060494 On ch=3 n=21 v=100
10060702 Off ch=3 n=21 v=0
10060972 On ch=3 n=11 v=100
10061175 On ch=3 n=12 v=100
10061228 Off ch=3 n=11 v=0
10061230 On ch=3 n=22 v=100
10061363 Off ch=3 n=12 v=0
10061378 On ch=3 n=7 v=100
10061391 On ch=3 n=24 v=100
10061597 Off ch=3 n=22 v=0
10061597 Off ch=3 n=7 v=0
10061597 Off ch=3 n=24 v=0
10061651 On ch=3 n=7 v=100
10061651 On ch=3 n=24 v=100
10061775 Off ch=3 n=7 v=0
10061776 On ch=3 n=14 v=100
10061963 Off ch=3 n=24 v=0
10062200 On ch=3 n=11 v=100
10062207 Off ch=3 n=14 v=0
10062448 Off ch=3 n=11 v=0
10062498 On ch=3 n=11 v=100
10062721 Off ch=3 n=11 v=0
10062723 On ch=3 n=9 v=100
10062796 On ch=3 n=14 v=100
10062801 On ch=3 n=40 v=100
10062801 On ch=3 n=40 v=100
10063064 Off ch=3 n=9 v=0
10063220 On ch=3 n=4 v=100
10063220 Off ch=3 n=14 v=0
10063656 Off ch=3 n=4 v=0
10063688 On ch=3 n=34 v=100
10063852 On ch=3 n=14 v=100
10063951 On ch=3 n=9 v=100
10064072 Off ch=3 n=40 v=0
10064072 Off ch=3 n=40 v=0
10064178 Off ch=3 n=34 v=0
10064178 Off ch=3 n=14 v=0
10064261 On ch=3 n=15 v=100
10064266 Off ch=3 n=9 v=0
10064503 Off ch=3 n=15 v=0
10065479 On ch=3 n=29 v=100
10065554 On ch=3 n=14 v=100
10065772 Off ch=3 n=29 v=0
10065772 Off ch=3 n=14 v=0
10065940 On ch=3 n=14 v=100
10066015 On ch=3 n=21 v=100
10066136 On ch=3 n=25 v=100
10066147 Off ch=3 n=14 v=0
10066215 Off ch=3 n=21 v=0
10066239 Off ch=3 n=25 v=0
10066248 On ch=3 n=7 v=100
10066402 Off ch=3 n=7 v=0
10066451 On ch=3 n=7 v=100
10066473 On ch=3 n=37 v=100
10066528 Off ch=3 n=7 v=0
10066560 On ch=3 n=13 v=100
10066889 Off ch=3 n=37 v=0
10067073 On ch=3 n=15 v=100
10067101 Off ch=3 n=13 v=0
10067306 Off ch=3 n=15 v=0
10069068 On ch=3 n=11 v=100
10070152 Off ch=3 n=11 v=0
10071249 On ch=3 n=24 v=100
10071337 Off ch=3 n=24 v=0
10071356 On ch=3 n=24 v=100
10071451 Off ch=3 n=24 v=0
10071452 On ch=3 n=10 v=100
10071789 On ch=3 n=11 v=100
10071789 Off ch=3 n=10 v=0
10071852 Off ch=3 n=11 v=0
10073975 On ch=3 n=13 v=100
10074182 Off ch=3 n=13 v=0
10074185 On ch=3 n=2 v=100
10074392 On ch=3 n=9 v=100
10074417 Off ch=3 n=2 v=0
10075057 Off ch=3 n=9 v=0
10075085 On ch=3 n=9 v=100
10075281 Off ch=3 n=9 v=0
10075952 On ch=3 n=22 v=100
10076028 Off ch=3 n=22 v=0
10076177 On ch=3 n=15 v=100
10076440 Off ch=3 n=15 v=0
10076937 On ch=3 n=23 v=100
10076974 On ch=3 n=31 v=100
10077177 Off ch=3 n=23 v=0
10077198 On ch=3 n=14 v=100
10077212 Off ch=3 n=31 v=0
10077331 Off ch=3 n=14 v=0
10077409 On ch=3 n=15 v=100
10077667 Off ch=3 n=15 v=0
10077669 On ch=3 n=31 v=100
10077669 On ch=3 n=31 v=100
10077685 On ch=3 n=18 v=100
10077833 Off ch=3 n=18 v=0
10077846 Off ch=3 n=31 v=0
10077846 Off ch=3 n=31 v=0
10078774 On ch=3 n=13 v=100
10079110 On ch=3 n=16 v=100
10079110 Off ch=3 n=13 v=0
10079307 Off ch=3 n=16 v=0
10079319 On ch=3 n=8 v=100
10079514 Off ch=3 n=8 v=0
10079533 On ch=3 n=8 v=100
10079579 Off ch=3 n=8 v=0
10079694 On ch=3 n=23 v=100
10079786 Off ch=3 n=23 v=0
10079812 On ch=3 n=10 v=100
10080046 Off ch=3 n=10 v=0
10080047 On ch=3 n=11 v=100
10080164 Off ch=3 n=11 v=0
10080165 On ch=3 n=9 v=100
10080196 On ch=3 n=31 v=100
10080290 On ch=3 n=22 v=100
10080298 On ch=3 n=35 v=100
10080303 Off ch=3 n=9 v=0
10080308 On ch=3 n=14 v=100
10080500 Off ch=3 n=14 v=0
10080511 Off ch=3 n=31 v=0
10080512 Off ch=3 n=22 v=0
10080554 Off ch=3 n=35 v=0
10082012 On ch=3 n=13 v=100
10082062 Off ch=3 n=13 v=0
10082070 On ch=3 n=36 v=100
10082536 On ch=3 n=12 v=100
10082667 Off ch=3 n=36 v=0
10082667 Off ch=3 n=12 v=0
10082744 On ch=3 n=36 v=100
10082744 On ch=3 n=12 v=100
10082803 Off ch=3 n=36 v=0
10083025 Off ch=3 n=12 v=0
10083451 On ch=3 n=45 v=100
10083586 Off ch=3 n=45 v=0
10083707 On ch=3 n=17 v=100
10083883 On ch=3 n=10 v=100
10083888 Off ch=3 n=17 v=0
10084081 On ch=3 n=7 v=100
10084110 Off ch=3 n=10 v=0
10084907 On ch=3 n=8 v=100
10084907 Off ch=3 n=7 v=0
10085348 On ch=3 n=7 v=100
10085349 Off ch=3 n=8 v=0
10085398 On ch=3 n=10 v=100
10085406 Off ch=3 n=7 v=0
10085641 On ch=3 n=13 v=100
10085649 Off ch=3 n=10 v=0
10085720 Off ch=3 n=13 v=0
10085721 On ch=3 n=19 v=100
10085860 Off ch=3 n=19 v=0
10086007 On ch=3 n=12 v=100
10086772 Off ch=3 n=12 v=0
10087404 On ch=3 n=10 v=100
10088094 On ch=3 n=28 v=100
10088103 Off ch=3 n=10 v=0
10088111 On ch=3 n=12 v=100
10088203 Off ch=3 n=28 v=0
10088229 On ch=3 n=32 v=100
10088230 Off ch=3 n=12 v=0
10088391 Off ch=3 n=32 v=0
10089209 On ch=3 n=11 v=100
10089627 On ch=3 n=9 v=100
10089673 Off ch=3 n=11 v=0
10090065 Off ch=3 n=9 v=0
10090066 On ch=3 n=10 v=100
10090213 Off ch=3 n=10 v=0
10090436 On ch=3 n=23 v=100
10090672 Off ch=3 n=23 v=0
10090676 On ch=3 n=14 v=100
10090806 On ch=3 n=46 v=100
10090917 Off ch=3 n=14 v=0
10090923 On ch=3 n=20 v=100
10090985 Off ch=3 n=46 v=0
10091042 Off ch=3 n=20 v=0
10091046 On ch=3 n=26 v=100
10091217 Off ch=3 n=26 v=0
10094201 On ch=3 n=34 v=100
10094347 Off ch=3 n=34 v=0
10094698 On ch=3 n=37 v=100
10094711 On ch=3 n=13 v=100
10094789 Off ch=3 n=37 v=0
10094936 Off ch=3 n=13 v=0
10094940 On ch=3 n=9 v=100
10095392 On ch=3 n=9 v=100
10095613 Off ch=3 n=9 v=0
10095741 Off ch=3 n=9 v=0
10095755 On ch=3 n=12 v=100
10095949 Off ch=3 n=12 v=0
10096589 On ch=3 n=11 v=100
10096740 Off ch=3 n=11 v=0
10096743 On ch=3 n=16 v=100
10097128 Off ch=3 n=16 v=0
10098179 On ch=3 n=12 v=100
10098290 Off ch=3 n=12 v=0
10098291 On ch=3 n=12 v=100
10098462 On ch=3 n=30 v=100
10098585 On ch=3 n=17 v=100
10098605 Off ch=3 n=12 v=0
10098615 On ch=3 n=23 v=100
10098957 On ch=3 n=13 v=100
10098962 Off ch=3 n=30 v=0
10098971 Off ch=3 n=17 v=0
10099133 Off ch=3 n=23 v=0
10099307 Off ch=3 n=13 v=0
10099318 On ch=3 n=10 v=100
10099478 Off ch=3 n=10 v=0
10099487 On ch=3 n=28 v=100
10099539 Off ch=3 n=28 v=0
10099556 On ch=3 n=16 v=100
10099578 On ch=3 n=13 v=100
10099578 On ch=3 n=22 v=100
10099813 Off ch=3 n=13 v=0
10099820 On ch=3 n=25 v=100
10099822 Off ch=3 n=16 v=0
10099827 On ch=3 n=25 v=100
10099863 Off ch=3 n=22 v=0
10099879 Off ch=3 n=25 v=0
10100331 Off ch=3 n=25 v=0
10101820 On ch=3 n=9 v=100
10102950 Off ch=3 n=9 v=0
10104502 On ch=3 n=9 v=100
10104724 Off ch=3 n=9 v=0
10104826 On ch=3 n=1 v=100
10104835 On ch=3 n=43 v=100
10105127 Off ch=3 n=1 v=0
10105189 On ch=3 n=9 v=100
10105229 Off ch=3 n=43 v=0
10105250 On ch=3 n=3 v=100
10105268 Off ch=3 n=9 v=0
10105599 Off ch=3 n=3 v=0
10105912 On ch=3 n=8 v=100
10106142 Off ch=3 n=8 v=0
10106145 On ch=3 n=9 v=100
10106231 Off ch=3 n=9 v=0
10106428 On ch=3 n=10 v=100
10106913 Off ch=3 n=10 v=0
10107949 On ch=3 n=33 v=100
10107960 On ch=3 n=21 v=100
10108016 Off ch=3 n=33 v=0
10108083 On ch=3 n=5 v=100
10108089 Off ch=3 n=21 v=0
10110957 On ch=3 n=6 v=100
10110965 Off ch=3 n=5 v=0
10111212 Off ch=3 n=6 v=0
10111509 On ch=3 n=20 v=100
10111608 Off ch=3 n=20 v=0
10112041 On ch=3 n=13 v=100
10112105 Off ch=3 n=13 v=0
10112109 On ch=3 n=19 v=100
10112178 Off ch=3 n=19 v=0
10112886 On ch=3 n=22 v=100
10112994 Off ch=3 n=22 v=0
10113025 On ch=3 n=29 v=100
10113186 Off ch=3 n=29 v=0
10113215 On ch=3 n=26 v=100
10113227 Off ch=3 n=26 v=0
10113264 On ch=3 n=26 v=100
10113339 On ch=3 n=12 v=100
10113402 On ch=3 n=20 v=100
10113756 Off ch=3 n=12 v=0
10113757 Off ch=3 n=26 v=0
10113984 Off ch=3 n=20 v=0
10114637 On ch=3 n=35 v=100
10114706 Off ch=3 n=35 v=0
10118280 On ch=3 n=12 v=100
10118298 On ch=3 n=10 v=100
10118442 Off ch=3 n=12 v=0
10118564 Off ch=3 n=10 v=0
10118572 On ch=3 n=7 v=100
10118670 Off ch=3 n=7 v=0
10118674 On ch=3 n=23 v=100
10119049 Off ch=3 n=23 v=0
10119077 On ch=3 n=13 v=100
10119124 Off ch=3 n=13 v=0
10119318 On ch=3 n=11 v=100
10119413 Off ch=3 n=11 v=0
10119415 On ch=3 n=4 v=100
10119489 Off ch=3 n=4 v=0
10121136 On ch=3 n=10 v=100
10122313 Off ch=3 n=10 v=0
10122393 On ch=3 n=18 v=100
10122626 Off ch=3 n=18 v=0
10123092 On ch=3 n=15 v=100
10123376 Off ch=3 n=15 v=0
10123426 On ch=3 n=15 v=100
10123846 Off ch=3 n=15 v=0
10123882 On ch=3 n=15 v=100
10124333 Off ch=3 n=15 v=0
10125729 On ch=3 n=7 v=100
10126189 On ch=3 n=7 v=100
10126191 Off ch=3 n=7 v=0
10126273 On ch=3 n=3 v=100
10126275 Off ch=3 n=7 v=0
10126387 Off ch=3 n=3 v=0
10126713 On ch=3 n=5 v=100
10127130 Off ch=3 n=5 v=0
10128105 On ch=3 n=26 v=100
10128265 Off ch=3 n=26 v=0
10128526 On ch=3 n=19 v=100
10128526 On ch=3 n=19 v=100
10128662 On ch=3 n=8 v=100
10128812 On ch=3 n=21 v=100
10128812 On ch=3 n=21 v=100
10129063 Off ch=3 n=8 v=0
10129077 On ch=3 n=10 v=100
10129081 Off ch=3 n=19 v=0
10129081 Off ch=3 n=19 v=0
10129118 Off ch=3 n=21 v=0
10129118 Off ch=3 n=21 v=0
10129279 Off ch=3 n=10 v=0
10129824 On ch=3 n=36 v=100
10129895 On ch=3 n=14 v=100
10130063 Off ch=3 n=36 v=0
10130063 Off ch=3 n=14 v=0
10130886 On ch=3 n=8 v=100
10131379 On ch=3 n=24 v=100
10131380 Off ch=3 n=8 v=0
10131474 On ch=3 n=10 v=100
10131820 Off ch=3 n=24 v=0
10131987 Off ch=3 n=10 v=0
10132167 On ch=3 n=32 v=100
10132268 Off ch=3 n=32 v=0
10133626 On ch=3 n=8 v=100
10134172 Off ch=3 n=8 v=0
10134215 On ch=3 n=9 v=100
10134482 Off ch=3 n=9 v=0
10134503 On ch=3 n=10 v=100
10134710 On ch=3 n=22 v=100
10134710 Off ch=3 n=10 v=0
10134763 On ch=3 n=35 v=100
10134770 Off ch=3 n=22 v=0
10134936 Off ch=3 n=35 v=0
10135051 On ch=3 n=18 v=100
10135111 On ch=3 n=20 v=100
10135134 Off ch=3 n=18 v=0
10135150 Off ch=3 n=20 v=0
10135152 On ch=3 n=11 v=100
10135340 On ch=3 n=27 v=100
10135340 Off ch=3 n=11 v=0
10135394 Off ch=3 n=27 v=0
10135984 On ch=3 n=35 v=100
10136059 On ch=3 n=12 v=100
10136393 Off ch=3 n=12 v=0
10136394 Off ch=3 n=35 v=0
10136396 On ch=3 n=27 v=100
10136524 Off ch=3 n=27 v=0
10137786 On ch=3 n=16 v=100
10137822 On ch=3 n=26 v=100
10137823 On ch=3 n=24 v=100
10138032 Off ch=3 n=16 v=0
10138034 On ch=3 n=13 v=100
10138057 Off ch=3 n=26 v=0
10138086 Off ch=3 n=24 v=0
10138358 Off ch=3 n=13 v=0
10138564 On ch=3 n=16 v=100
10139111 Off ch=3 n=16 v=0
10139143 On ch=3 n=15 v=100
10139559 Off ch=3 n=15 v=0
10139563 On ch=3 n=34 v=100
10139750 Off ch=3 n=34 v=0
10141383 On ch=3 n=18 v=100
10141383 On ch=3 n=35 v=100
10141492 Off ch=3 n=18 v=0
10141494 On ch=3 n=6 v=100
10141523 Off ch=3 n=35 v=0
10141758 On ch=3 n=6 v=100
10141759 Off ch=3 n=6 v=0
10142244 Off ch=3 n=6 v=0
10143791 On ch=3 n=18 v=100
10144488 Off ch=3 n=18 v=0
10145425 On ch=3 n=18 v=100
10145457 On ch=3 n=39 v=100
10145572 On ch=3 n=24 v=100
10145594 On ch=3 n=24 v=100
10145601 Off ch=3 n=18 v=0
10145693 Off ch=3 n=39 v=0
10145693 Off ch=3 n=24 v=0
10145799 Off ch=3 n=24 v=0
10146671 On ch=3 n=6 v=100
10147059 Off ch=3 n=6 v=0
10147211 On ch=3 n=14 v=100
10147432 Off ch=3 n=14 v=0
10147434 On ch=3 n=37 v=100
10147583 Off ch=3 n=37 v=0
10147671 On ch=3 n=10 v=100
10147805 Off ch=3 n=10 v=0
10147807 On ch=3 n=8 v=100
10148118 On ch=3 n=15 v=100
10148118 On ch=3 n=15 v=100
10148131 Off ch=3 n=8 v=0
10148132 On ch=3 n=6 v=100
10148374 On ch=3 n=11 v=100
10148374 Off ch=3 n=6 v=0
10148401 Off ch=3 n=15 v=0
10148401 Off ch=3 n=15 v=0
10148418 Off ch=3 n=11 v=0
10148449 On ch=3 n=11 v=100
10148484 On ch=3 n=35 v=100
10148654 Off ch=3 n=11 v=0
10148662 On ch=3 n=11 v=100
10148700 Off ch=3 n=35 v=0
10149083 Off ch=3 n=11 v=0
10149146 On ch=3 n=4 v=100
10149397 On ch=3 n=14 v=100
10149400 Off ch=3 n=4 v=0
10149402 On ch=3 n=21 v=100
10149493 Off ch=3 n=14 v=0
10149551 Off ch=3 n=21 v=0
10150697 On ch=3 n=8 v=100
10150925 On ch=3 n=17 v=100
10150947 Off ch=3 n=8 v=0
10151294 On ch=3 n=13 v=100
10151392 Off ch=3 n=17 v=0
10152024 Off ch=3 n=13 v=0
10153383 On ch=3 n=5 v=100
10153548 Off ch=3 n=5 v=0
10155466 On ch=3 n=4 v=100
10155712 Off ch=3 n=4 v=0
10155881 On ch=3 n=21 v=100
10155985 Off ch=3 n=21 v=0
10155996 On ch=3 n=13 v=100
10156008 On ch=3 n=18 v=100
10156082 Off ch=3 n=18 v=0
10156083 Off ch=3 n=13 v=0
10156086 On ch=3 n=11 v=100
10156979 Off ch=3 n=11 v=0
10157681 On ch=3 n=38 v=100
10157762 Off ch=3 n=38 v=0
10158635 On ch=3 n=8 v=100
10159637 Off ch=3 n=8 v=0
10159638 On ch=3 n=14 v=100
10159916 Off ch=3 n=14 v=0
10159917 On ch=3 n=12 v=100
10160037 Off ch=3 n=12 v=0
10160354 On ch=3 n=25 v=100
10160510 On ch=3 n=19 v=100
10160588 Off ch=3 n=25 v=0
10160588 Off ch=3 n=19 v=0
10160617 On ch=3 n=25 v=100
10160877 Off ch=3 n=25 v=0
10160915 On ch=3 n=10 v=100
10160979 Off ch=3 n=10 v=0
10160998 On ch=3 n=28 v=100
10161013 On ch=3 n=25 v=100
10161131 Off ch=3 n=28 v=0
10161132 Off ch=3 n=25 v=0
10162202 On ch=3 n=37 v=100
10162389 Off ch=3 n=37 v=0
10162416 On ch=3 n=25 v=100
10162502 Off ch=3 n=25 v=0
10162504 On ch=3 n=11 v=100
10162869 Off ch=3 n=11 v=0
10163210 On ch=3 n=18 v=100
10163472 Off ch=3 n=18 v=0
10163605 On ch=3 n=18 v=100
10163605 On ch=3 n=18 v=100
10163648 On ch=3 n=7 v=100
10163959 Off ch=3 n=7 v=0
10163991 Off ch=3 n=18 v=0
10163991 Off ch=3 n=18 v=0
10164058 On ch=3 n=38 v=100
10164172 On ch=3 n=10 v=100
10164173 Off ch=3 n=38 v=0
10164387 Off ch=3 n=10 v=0
10164390 On ch=3 n=15 v=100
10164508 Off ch=3 n=15 v=0
10165764 On ch=3 n=36 v=100
10165790 On ch=3 n=30 v=100
10165790 On ch=3 n=30 v=100
10165803 On ch=3 n=23 v=100
10165868 Off ch=3 n=36 v=0
10165888 On ch=3 n=28 v=100
10166067 Off ch=3 n=23 v=0
10166093 Off ch=3 n=30 v=0
10166093 Off ch=3 n=30 v=0
10166094 Off ch=3 n=28 v=0
10166137 On ch=3 n=16 v=100
10166525 On ch=3 n=15 v=100
10166583 On ch=3 n=26 v=100
10166588 On ch=3 n=15 v=100
10166590 On ch=3 n=6 v=100
10166613 Off ch=3 n=16 v=0
10166927 On ch=3 n=19 v=100
10166960 Off ch=3 n=6 v=0
10166961 On ch=3 n=10 v=100
10166980 Off ch=3 n=15 v=0
10167077 Off ch=3 n=15 v=0
10167149 Off ch=3 n=26 v=0
10167199 Off ch=3 n=19 v=0
10167199 Off ch=3 n=10 v=0
10167210 On ch=3 n=34 v=100
10167292 Off ch=3 n=34 v=0
10167434 On ch=3 n=33 v=100
10167494 On ch=3 n=28 v=100
10167648 Off ch=3 n=33 v=0
10167650 Off ch=3 n=28 v=0
10168991 On ch=3 n=11 v=100
10169213 Off ch=3 n=11 v=0
10169269 On ch=3 n=2 v=100
10170482 Off ch=3 n=2 v=0
10170546 On ch=3 n=2 v=100
10172151 Off ch=3 n=2 v=0
10172152 On ch=3 n=1 v=100
10172208 On ch=3 n=25 v=100
10172209 Off ch=3 n=1 v=0
10172604 On ch=3 n=10 v=100
10172865 On ch=3 n=34 v=100
10172865 Off ch=3 n=25 v=0
10172879 On ch=3 n=16 v=100
10172879 Off ch=3 n=10 v=0
10172983 Off ch=3 n=34 v=0
10173065 On ch=3 n=9 v=100
10173071 Off ch=3 n=16 v=0
10173550 On ch=3 n=11 v=100
10173550 Off ch=3 n=9 v=0
10174707 Off ch=3 n=11 v=0
10176696 On ch=3 n=18 v=100
10176796 On ch=3 n=5 v=100
10176797 Off ch=3 n=18 v=0
10177446 On ch=3 n=11 v=100
10177541 Off ch=3 n=5 v=0
10178117 On ch=3 n=8 v=100
10178120 Off ch=3 n=11 v=0
10178213 Off ch=3 n=8 v=0
10178222 On ch=3 n=18 v=100
10178504 Off ch=3 n=18 v=0
10178508 On ch=3 n=13 v=100
10178683 Off ch=3 n=13 v=0
10178719 On ch=3 n=4 v=100
10178765 Off ch=3 n=4 v=0
10178770 On ch=3 n=7 v=100
10178823 On ch=3 n=15 v=100
10178945 On ch=3 n=11 v=100
10178945 Off ch=3 n=7 v=0
10178960 Off ch=3 n=15 v=0
10179224 Off ch=3 n=11 v=0
10180703 On ch=3 n=11 v=100
10181247 On ch=3 n=41 v=100
10181247 On ch=3 n=9 v=100
10181248 Off ch=3 n=11 v=0
10181366 On ch=3 n=28 v=100
10181457 Off ch=3 n=9 v=0
10181609 On ch=3 n=14 v=100
10181610 Off ch=3 n=41 v=0
10181631 Off ch=3 n=28 v=0
10181903 Off ch=3 n=14 v=0
10181909 On ch=3 n=10 v=100
10182032 On ch=3 n=2 v=100
10182032 Off ch=3 n=10 v=0
10182850 Off ch=3 n=2 v=0
10182853 On ch=3 n=2 v=100
10183083 On ch=3 n=8 v=100
10183084 Off ch=3 n=2 v=0
10183354 Off ch=3 n=8 v=0
10184397 On ch=3 n=16 v=100
10184450 On ch=3 n=16 v=100
10184457 Off ch=3 n=16 v=0
10184592 Off ch=3 n=16 v=0
10185087 On ch=3 n=25 v=100
10185557 Off ch=3 n=25 v=0
10186212 On ch=3 n=23 v=100
10186346 Off ch=3 n=23 v=0
10187500 On ch=3 n=38 v=100
10187589 On ch=3 n=28 v=100
10187657 On ch=3 n=24 v=100
10187689 On ch=3 n=16 v=100
10187689 On ch=3 n=16 v=100
10187856 Off ch=3 n=38 v=0
10187856 Off ch=3 n=24 v=0
10187856 Off ch=3 n=28 v=0
10187877 Off ch=3 n=16 v=0
10187877 Off ch=3 n=16 v=0
10188029 On ch=3 n=15 v=100
10188337 Off ch=3 n=15 v=0
10188576 On ch=3 n=15 v=100
10188788 Off ch=3 n=15 v=0
10189159 On ch=3 n=7 v=100
10189401 Off ch=3 n=7 v=0
10189815 On ch=3 n=20 v=100
10190066 Off ch=3 n=20 v=0
10190300 On ch=3 n=23 v=100
10190327 On ch=3 n=18 v=100
10190335 On ch=3 n=13 v=100
10190491 Off ch=3 n=23 v=0
10190719 Off ch=3 n=13 v=0
10190774 Off ch=3 n=18 v=0
10193751 On ch=3 n=39 v=100
10193838 Off ch=3 n=39 v=0
10193877 On ch=3 n=7 v=100
10194088 Off ch=3 n=7 v=0
10194132 On ch=3 n=21 v=100
10194299 Off ch=3 n=21 v=0
10194348 On ch=3 n=40 v=100
10194573 Off ch=3 n=40 v=0
10195259 On ch=3 n=11 v=100
10195372 Off ch=3 n=11 v=0
10195375 On ch=3 n=31 v=100
10195424 Off ch=3 n=31 v=0
10195460 On ch=3 n=31 v=100
10195466 On ch=3 n=11 v=100
10195494 Off ch=3 n=31 v=0
10196170 Off ch=3 n=11 v=0
10196183 On ch=3 n=19 v=100
10196493 Off ch=3 n=19 v=0
10199008 On ch=3 n=38 v=100
10199008 On ch=3 n=23 v=100
10199063 Off ch=3 n=23 v=0
10199070 Off ch=3 n=38 v=0
10199072 On ch=3 n=10 v=100
10199181 On ch=3 n=12 v=100
10199185 Off ch=3 n=10 v=0
10199274 On ch=3 n=34 v=100
10199301 On ch=3 n=23 v=100
10199322 Off ch=3 n=12 v=0
10199516 Off ch=3 n=34 v=0
10199520 On ch=3 n=10 v=100
10199522 Off ch=3 n=23 v=0
10199827 Off ch=3 n=10 v=0
10199830 On ch=3 n=33 v=100
10199890 On ch=3 n=41 v=100
10199945 Off ch=3 n=33 v=0
10200068 On ch=3 n=40 v=100
10200218 Off ch=3 n=40 v=0
10200219 On ch=3 n=10 v=100
10200219 Off ch=3 n=41 v=0
10200513 On ch=3 n=21 v=100
10200663 Off ch=3 n=10 v=0
10200676 On ch=3 n=16 v=100
10200808 On ch=3 n=31 v=100
10200810 Off ch=3 n=21 v=0
10200826 On ch=3 n=9 v=100
10200830 Off ch=3 n=16 v=0
10200900 Off ch=3 n=31 v=0
10200900 Off ch=3 n=9 v=0
10200904 On ch=3 n=25 v=100
10200931 On ch=3 n=33 v=100
10201006 On ch=3 n=21 v=100
10201010 Off ch=3 n=25 v=0
10201022 Off ch=3 n=33 v=0
10201289 On ch=3 n=34 v=100
10201294 Off ch=3 n=21 v=0
10201445 Off ch=3 n=34 v=0
10201647 On ch=3 n=12 v=100
10201981 Off ch=3 n=12 v=0
10201997 On ch=3 n=20 v=100
10202437 Off ch=3 n=20 v=0
10203042 On ch=3 n=13 v=100
10203233 On ch=3 n=6 v=100
10203446 On ch=3 n=31 v=100
10203548 On ch=3 n=8 v=100
10203551 Off ch=3 n=6 v=0
10203552 Off ch=3 n=13 v=0
10203572 Off ch=3 n=31 v=0
10203942 On ch=3 n=47 v=100
10204146 On ch=3 n=20 v=100
10204162 On ch=3 n=14 v=100
10204168 Off ch=3 n=8 v=0
10204179 On ch=3 n=14 v=100
10204241 On ch=3 n=9 v=100
10204269 On ch=3 n=15 v=100
10204271 Off ch=3 n=47 v=0
10204271 Off ch=3 n=14 v=0
10204271 Off ch=3 n=20 v=0
10204637 On ch=3 n=18 v=100
10204641 Off ch=3 n=9 v=0
10204643 Off ch=3 n=14 v=0
10204735 Off ch=3 n=15 v=0
10204853 On ch=3 n=9 v=100
10204875 Off ch=3 n=18 v=0
10205237 Off ch=3 n=9 v=0
10206054 On ch=3 n=21 v=100
10206283 Off ch=3 n=21 v=0
10206311 On ch=3 n=29 v=100
10206437 Off ch=3 n=29 v=0
10206697 On ch=3 n=32 v=100
10206778 Off ch=3 n=32 v=0
10207002 On ch=3 n=1 v=100
10207728 On ch=3 n=18 v=100
10207731 On ch=3 n=10 v=100
10207748 Off ch=3 n=1 v=0
10208059 On ch=3 n=5 v=100
10208066 Off ch=3 n=10 v=0
10208202 Off ch=3 n=18 v=0
10208769 Off ch=3 n=5 v=0
10208803 On ch=3 n=5 v=100
10208967 Off ch=3 n=5 v=0
10208969 On ch=3 n=3 v=100
10209291 Off ch=3 n=3 v=0
10209426 On ch=3 n=28 v=100
10209493 On ch=3 n=10 v=100
10209498 Off ch=3 n=28 v=0
10209793 Off ch=3 n=10 v=0
10211496 On ch=3 n=39 v=100
10211659 On ch=3 n=31 v=100
10211834 Off ch=3 n=39 v=0
10211868 Off ch=3 n=31 v=0
10212048 On ch=3 n=43 v=100
10212279 Off ch=3 n=43 v=0
10212576 On ch=3 n=13 v=100
10212783 Off ch=3 n=13 v=0
10212790 On ch=3 n=15 v=100
10213114 Off ch=3 n=15 v=0
10213145 On ch=3 n=38 v=100
10213333 Off ch=3 n=38 v=0
10213960 On ch=3 n=17 v=100
10214023 On ch=3 n=12 v=100
10214300 Off ch=3 n=17 v=0
10214300 Off ch=3 n=12 v=0
10217543 On ch=3 n=13 v=100
10217764 Off ch=3 n=13 v=0
10221254 On ch=3 n=12 v=100
10221501 Off ch=3 n=12 v=0
10221630 On ch=3 n=24 v=100
10221757 Off ch=3 n=24 v=0
10221899 On ch=3 n=29 v=100
10221939 On ch=3 n=31 v=100
10222001 Off ch=3 n=29 v=0
10222027 On ch=3 n=39 v=100
10222108 On ch=3 n=5 v=100
10222108 Off ch=3 n=31 v=0
10222119 Off ch=3 n=39 v=0
10223218 On ch=3 n=41 v=100
10223218 On ch=3 n=41 v=100
10223218 Off ch=3 n=5 v=0
10223269 On ch=3 n=23 v=100
10223345 On ch=3 n=51 v=100
10223423 Off ch=3 n=23 v=0
10223446 Off ch=3 n=41 v=0
10223446 Off ch=3 n=41 v=0
10223450 On ch=3 n=15 v=100
10223608 Off ch=3 n=51 v=0
10223608 Off ch=3 n=15 v=0
10223699 On ch=3 n=51 v=100
10223739 Off ch=3 n=51 v=0
10224395 On ch=3 n=32 v=100
10224479 On ch=3 n=13 v=100
10224907 Off ch=3 n=13 v=0
10224911 Off ch=3 n=32 v=0
10227927 On ch=3 n=46 v=100
10228029 On ch=3 n=12 v=100
10228080 Off ch=3 n=46 v=0
10228398 Off ch=3 n=12 v=0
10228411 On ch=3 n=9 v=100
10228700 On ch=3 n=28 v=100
10228709 On ch=3 n=30 v=100
10228710 Off ch=3 n=9 v=0
10228726 On ch=3 n=10 v=100
10228762 Off ch=3 n=28 v=0
10228774 On ch=3 n=24 v=100
10228775 On ch=3 n=8 v=100
10228830 Off ch=3 n=30 v=0
10229121 Off ch=3 n=10 v=0
10229123 Off ch=3 n=8 v=0
10229139 On ch=3 n=56 v=100
10229423 Off ch=3 n=24 v=0
10229495 On ch=3 n=24 v=100
10229496 On ch=3 n=18 v=100
10229508 Off ch=3 n=56 v=0
10229724 Off ch=3 n=18 v=0
10229789 Off ch=3 n=24 v=0
10230683 On ch=3 n=16 v=100
10230716 Off ch=3 n=16 v=0
10232771 On ch=3 n=22 v=100
10232871 Off ch=3 n=22 v=0
10233506 On ch=3 n=44 v=100
10233651 Off ch=3 n=44 v=0
10233741 On ch=3 n=29 v=100
10233762 On ch=3 n=5 v=100
10233803 On ch=3 n=18 v=100
10233803 On ch=3 n=18 v=100
10233815 Off ch=3 n=29 v=0
10233815 Off ch=3 n=5 v=0
10233821 On ch=3 n=41 v=100
10233821 On ch=3 n=41 v=100
10233930 On ch=3 n=12 v=100
10233989 On ch=3 n=8 v=100
10234024 On ch=3 n=18 v=100
10234024 On ch=3 n=18 v=100
10234061 Off ch=3 n=18 v=0
10234061 Off ch=3 n=18 v=0
10234090 Off ch=3 n=12 v=0
10234124 On ch=3 n=30 v=100
10234174 Off ch=3 n=41 v=0
10234174 Off ch=3 n=41 v=0
10234176 Off ch=3 n=8 v=0
10234191 On ch=3 n=36 v=100
10234191 On ch=3 n=36 v=100
10234240 On ch=3 n=18 v=100
10234251 Off ch=3 n=18 v=0
10234251 Off ch=3 n=18 v=0
10234350 On ch=3 n=10 v=100
10234381 Off ch=3 n=30 v=0
10234441 On ch=3 n=7 v=100
10234463 Off ch=3 n=18 v=0
10234510 Off ch=3 n=10 v=0
10234535 On ch=3 n=17 v=100
10234535 On ch=3 n=17 v=100
10234606 Off ch=3 n=7 v=0
10234661 Off ch=3 n=36 v=0
10234661 Off ch=3 n=36 v=0
10234674 On ch=3 n=41 v=100
10234674 On ch=3 n=41 v=100
10234759 On ch=3 n=28 v=100
10234763 Off ch=3 n=17 v=0
10234763 Off ch=3 n=17 v=0
10234966 On ch=3 n=17 v=100
10234966 On ch=3 n=17 v=100
10235130 On ch=3 n=17 v=100
10235349 Off ch=3 n=41 v=0
10235349 Off ch=3 n=41 v=0
10235436 Off ch=3 n=28 v=0
10235463 On ch=3 n=5 v=100
10235464 Off ch=3 n=17 v=0
10235464 Off ch=3 n=17 v=0
10235519 Off ch=3 n=17 v=0
10235692 On ch=3 n=4 v=100
10235697 Off ch=3 n=5 v=0
10236085 On ch=3 n=15 v=100
10236085 Off ch=3 n=4 v=0
10236197 Off ch=3 n=15 v=0
10236961 On ch=3 n=18 v=100
10237038 On ch=3 n=39 v=100
10237066 Off ch=3 n=18 v=0
10237068 On ch=3 n=15 v=100
10237297 Off ch=3 n=39 v=0
10237528 Off ch=3 n=15 v=0
10237645 On ch=3 n=17 v=100
10237720 On ch=3 n=19 v=100
10237784 Off ch=3 n=17 v=0
10237888 On ch=3 n=28 v=100
10238037 Off ch=3 n=19 v=0
10238037 Off ch=3 n=28 v=0
10238128 On ch=3 n=19 v=100
10238128 On ch=3 n=28 v=100
10238343 Off ch=3 n=19 v=0
10238433 On ch=3 n=12 v=100
10238611 Off ch=3 n=28 v=0
10238841 On ch=3 n=12 v=100
10239201 Off ch=3 n=12 v=0
10239341 Off ch=3 n=12 v=0
10239368 On ch=3 n=29 v=100
10239482 Off ch=3 n=29 v=0
10241760 On ch=3 n=8 v=100
10242273 Off ch=3 n=8 v=0
10243352 On ch=3 n=18 v=100
10243403 On ch=3 n=17 v=100
10243403 Off ch=3 n=18 v=0
10243560 Off ch=3 n=17 v=0
10243564 On ch=3 n=30 v=100
10243641 On ch=3 n=24 v=100
10243774 On ch=3 n=36 v=100
10243989 Off ch=3 n=30 v=0
10244003 Off ch=3 n=24 v=0
10244014 On ch=3 n=19 v=100
10244259 Off ch=3 n=36 v=0
10244816 Off ch=3 n=19 v=0
10244822 On ch=3 n=22 v=100
10245051 Off ch=3 n=22 v=0
10245777 On ch=3 n=49 v=100
10245788 On ch=3 n=18 v=100
10245847 Off ch=3 n=49 v=0
10245951 Off ch=3 n=18 v=0
10246073 On ch=3 n=6 v=100
10246808 Off ch=3 n=6 v=0
10246809 On ch=3 n=7 v=100
10246901 Off ch=3 n=7 v=0
10246963 On ch=3 n=14 v=100
10247430 On ch=3 n=13 v=100
10247430 Off ch=3 n=14 v=0
10247769 Off ch=3 n=13 v=0
10247771 On ch=3 n=4 v=100
10249546 On ch=3 n=9 v=100
10249546 Off ch=3 n=4 v=0
10249582 Off ch=3 n=9 v=0
10250032 On ch=3 n=36 v=100
10250092 On ch=3 n=14 v=100
10250092 Off ch=3 n=36 v=0
10250611 Off ch=3 n=14 v=0
10250631 On ch=3 n=7 v=100
10251436 Off ch=3 n=7 v=0
10251586 On ch=3 n=13 v=100
10251859 On ch=3 n=35 v=100
10251883 On ch=3 n=10 v=100
10251899 Off ch=3 n=13 v=0
10251975 Off ch=3 n=35 v=0
10251976 Off ch=3 n=10 v=0
10251987 On ch=3 n=9 v=100
10252212 Off ch=3 n=9 v=0
10253078 On ch=3 n=15 v=100
10253137 On ch=3 n=37 v=100
10253187 On ch=3 n=23 v=100
10253187 On ch=3 n=23 v=100
10253252 On ch=3 n=23 v=100
10253273 Off ch=3 n=15 v=0
10253415 On ch=3 n=46 v=100
10253441 On ch=3 n=26 v=100
10253441 On ch=3 n=26 v=100
10253464 Off ch=3 n=37 v=0
10253537 Off ch=3 n=23 v=0
10253540 On ch=3 n=24 v=100
10253549 Off ch=3 n=23 v=0
10253549 Off ch=3 n=23 v=0
10253580 Off ch=3 n=26 v=0
10253580 Off ch=3 n=26 v=0
10253601 Off ch=3 n=46 v=0
10253846 Off ch=3 n=24 v=0
10253848 On ch=3 n=12 v=100
10254147 On ch=3 n=32 v=100
10254217 On ch=3 n=31 v=100
10254293 Off ch=3 n=12 v=0
10254456 On ch=3 n=12 v=100
10254456 Off ch=3 n=32 v=0
10254456 Off ch=3 n=31 v=0
10254600 Off ch=3 n=12 v=0
10255220 On ch=3 n=18 v=100
10255303 Off ch=3 n=18 v=0
10256900 On ch=3 n=44 v=100
10256978 On ch=3 n=32 v=100
10257044 On ch=3 n=32 v=100
10257049 On ch=3 n=24 v=100
10257182 Off ch=3 n=44 v=0
10257350 Off ch=3 n=24 v=0
10257354 Off ch=3 n=32 v=0
10257403 Off ch=3 n=32 v=0
10258057 On ch=3 n=8 v=100
10258977 Off ch=3 n=8 v=0
10259039 On ch=3 n=26 v=100
10259083 On ch=3 n=19 v=100
10259342 Off ch=3 n=19 v=0
10259343 Off ch=3 n=26 v=0
10260422 On ch=3 n=17 v=100
10260736 Off ch=3 n=17 v=0
10261129 On ch=3 n=14 v=100
10261268 On ch=3 n=29 v=100
10261471 Off ch=3 n=14 v=0
10261540 Off ch=3 n=29 v=0
10263383 On ch=3 n=12 v=100
10263591 Off ch=3 n=12 v=0
10263600 On ch=3 n=13 v=100
10263768 Off ch=3 n=13 v=0
10263837 On ch=3 n=17 v=100
10264136 Off ch=3 n=17 v=0
10264138 On ch=3 n=11 v=100
10264509 Off ch=3 n=11 v=0
10264758 On ch=3 n=18 v=100
10264866 On ch=3 n=35 v=100
10264921 Off ch=3 n=18 v=0
10264925 On ch=3 n=14 v=100
10265095 On ch=3 n=25 v=100
10265127 Off ch=3 n=35 v=0
10265127 Off ch=3 n=14 v=0
10265131 On ch=3 n=20 v=100
10265301 Off ch=3 n=25 v=0
10265301 Off ch=3 n=20 v=0
10265543 On ch=3 n=20 v=100
10265919 Off ch=3 n=20 v=0
10266532 On ch=3 n=11 v=100
10266609 Off ch=3 n=11 v=0
10266854 On ch=3 n=15 v=100
10267079 On ch=3 n=32 v=100
10267162 Off ch=3 n=15 v=0
10267162 Off ch=3 n=32 v=0
10267235 On ch=3 n=15 v=100
10267235 On ch=3 n=32 v=100
10267235 On ch=3 n=32 v=100
10267280 Off ch=3 n=15 v=0
10267646 On ch=3 n=26 v=100
10267647 On ch=3 n=47 v=100
10267647 On ch=3 n=47 v=100
10267819 Off ch=3 n=32 v=0
10267819 Off ch=3 n=32 v=0
10267981 Off ch=3 n=26 v=0
10268223 Off ch=3 n=47 v=0
10268223 Off ch=3 n=47 v=0
10269343 On ch=3 n=24 v=100
10269580 Off ch=3 n=24 v=0
10269835 On ch=3 n=17 v=100
10270328 Off ch=3 n=17 v=0
10270335 On ch=3 n=12 v=100
10270335 On ch=3 n=23 v=100
10270429 Off ch=3 n=12 v=0
10270452 Off ch=3 n=23 v=0
10270735 On ch=3 n=29 v=100
10270848 Off ch=3 n=29 v=0
10271936 On ch=3 n=33 v=100
10271978 On ch=3 n=23 v=100
10272177 On ch=3 n=15 v=100
10272230 Off ch=3 n=33 v=0
10272230 Off ch=3 n=23 v=0
10272629 Off ch=3 n=15 v=0
10273291 On ch=3 n=33 v=100
10273564 Off ch=3 n=33 v=0
10273782 On ch=3 n=30 v=100
10273782 On ch=3 n=30 v=100
10273794 On ch=3 n=25 v=100
10273941 Off ch=3 n=25 v=0
10273979 Off ch=3 n=30 v=0
10273979 Off ch=3 n=30 v=0
10274360 On ch=3 n=16 v=100
10274738 On ch=3 n=30 v=100
10274765 Off ch=3 n=16 v=0
10275034 Off ch=3 n=30 v=0
10275058 On ch=3 n=28 v=100
10275493 Off ch=3 n=28 v=0
10275590 On ch=3 n=39 v=100
10275744 Off ch=3 n=39 v=0
10277214 On ch=3 n=15 v=100
10277683 Off ch=3 n=15 v=0
10278355 On ch=3 n=20 v=100
10278648 Off ch=3 n=20 v=0
10278694 On ch=3 n=30 v=100
10278932 Off ch=3 n=30 v=0
10281384 On ch=3 n=26 v=100
10281469 On ch=3 n=21 v=100
10281724 Off ch=3 n=26 v=0
10282044 Off ch=3 n=21 v=0
10283150 On ch=3 n=13 v=100
10284257 Off ch=3 n=13 v=0
10284763 On ch=3 n=19 v=100
10284876 Off ch=3 n=19 v=0
10286870 On ch=3 n=30 v=100
10286946 On ch=3 n=23 v=100
10286987 On ch=3 n=20 v=100
10287337 Off ch=3 n=30 v=0
10287420 Off ch=3 n=23 v=0
10287474 Off ch=3 n=20 v=0
10288342 On ch=3 n=31 v=100
10288503 Off ch=3 n=31 v=0
10289343 On ch=3 n=35 v=100
10289573 Off ch=3 n=35 v=0
10289678 On ch=3 n=17 v=100
10289808 Off ch=3 n=17 v=0
10289911 On ch=3 n=24 v=100
10289977 Off ch=3 n=24 v=0
10290229 On ch=3 n=13 v=100
10290414 Off ch=3 n=13 v=0
10290528 On ch=3 n=18 v=100
10291042 Off ch=3 n=18 v=0
10291308 On ch=3 n=12 v=100
10291863 Off ch=3 n=12 v=0
10292251 On ch=3 n=12 v=100
10292778 Off ch=3 n=12 v=0
10292886 On ch=3 n=37 v=100
10292955 Off ch=3 n=37 v=0
10293317 On ch=3 n=40 v=100
10293422 Off ch=3 n=40 v=0
10293888 On ch=3 n=13 v=100
10293922 On ch=3 n=16 v=100
10294299 Off ch=3 n=13 v=0
10294356 Off ch=3 n=16 v=0
10296902 On ch=3 n=3 v=100
10297130 Off ch=3 n=3 v=0
10297964 On ch=3 n=57 v=100
10297968 On ch=3 n=48 v=100
10298073 Off ch=3 n=48 v=0
10298219 Off ch=3 n=57 v=0
10299330 On ch=3 n=47 v=100
10299344 On ch=3 n=45 v=100
10299370 On ch=3 n=7 v=100
10299504 Off ch=3 n=47 v=0
10299550 Off ch=3 n=45 v=0
10299557 Off ch=3 n=7 v=0
10300604 On ch=3 n=7 v=100
10301089 On ch=3 n=29 v=100
10301187 Off ch=3 n=7 v=0
10301199 Off ch=3 n=29 v=0
10303587 On ch=3 n=7 v=100
10303677 On ch=3 n=69 v=100
10303843 Off ch=3 n=7 v=0
10303886 Off ch=3 n=69 v=0
10304196 On ch=3 n=10 v=100
10304993 Off ch=3 n=10 v=0
10306479 On ch=3 n=20 v=100
10306498 On ch=3 n=10 v=100
10306633 Off ch=3 n=20 v=0
10306951 Off ch=3 n=10 v=0
10307005 On ch=3 n=18 v=100
10307034 On ch=3 n=5 v=100
10307178 Off ch=3 n=18 v=0
10307411 Off ch=3 n=5 v=0
10307444 On ch=3 n=20 v=100
10307671 On ch=3 n=12 v=100
10307673 Off ch=3 n=20 v=0
10308437 On ch=3 n=33 v=100
10308453 Off ch=3 n=12 v=0
10308474 On ch=3 n=25 v=100
10308479 On ch=3 n=19 v=100
10308502 Off ch=3 n=33 v=0
10308517 On ch=3 n=30 v=100
10308588 Off ch=3 n=19 v=0
10308603 On ch=3 n=12 v=100
10308625 Off ch=3 n=25 v=0
10308698 Off ch=3 n=30 v=0
10309173 Off ch=3 n=12 v=0
10309194 On ch=3 n=21 v=100
10309609 Off ch=3 n=21 v=0
10309611 On ch=3 n=6 v=100
10309770 Off ch=3 n=6 v=0
10309785 On ch=3 n=15 v=100
10310086 On ch=3 n=16 v=100
10310086 Off ch=3 n=15 v=0
10310152 On ch=3 n=39 v=100
10310281 Off ch=3 n=16 v=0
10310309 Off ch=3 n=39 v=0
10310356 On ch=3 n=35 v=100
10310509 Off ch=3 n=35 v=0
10310571 On ch=3 n=13 v=100
10311125 Off ch=3 n=13 v=0
10311129 On ch=3 n=2 v=100
10311261 Off ch=3 n=2 v=0
10311264 On ch=3 n=11 v=100
10311663 On ch=3 n=22 v=100
10311668 Off ch=3 n=11 v=0
10311803 Off ch=3 n=22 v=0
10311853 On ch=3 n=6 v=100
10311912 On ch=3 n=12 v=100
10312387 Off ch=3 n=6 v=0
10312466 Off ch=3 n=12 v=0
10312534 On ch=3 n=37 v=100
10312716 Off ch=3 n=37 v=0
10313242 On ch=3 n=50 v=100
10313242 On ch=3 n=50 v=100
10313647 On ch=3 n=11 v=100
10313696 Off ch=3 n=50 v=0
10313696 Off ch=3 n=50 v=0
10313901 On ch=3 n=21 v=100
10314107 Off ch=3 n=11 v=0
10314135 Off ch=3 n=21 v=0
10314990 On ch=3 n=27 v=100
10315173 On ch=3 n=43 v=100
10315322 On ch=3 n=39 v=100
10315428 Off ch=3 n=27 v=0
10315535 Off ch=3 n=43 v=0
10315535 Off ch=3 n=39 v=0
10315811 On ch=3 n=11 v=100
10316146 On ch=3 n=23 v=100
10316154 Off ch=3 n=11 v=0
10316169 Off ch=3 n=23 v=0
10316212 On ch=3 n=23 v=100
10316433 Off ch=3 n=23 v=0
10316698 On ch=3 n=9 v=100
10317084 Off ch=3 n=9 v=0
10317375 On ch=3 n=18 v=100
10317428 Off ch=3 n=18 v=0
10317462 On ch=3 n=11 v=100
10317709 Off ch=3 n=11 v=0
10317711 On ch=3 n=10 v=100
10317751 On ch=3 n=21 v=100
10317899 Off ch=3 n=10 v=0
10317983 Off ch=3 n=21 v=0
10319057 On ch=3 n=23 v=100
10319121 On ch=3 n=24 v=100
10319239 On ch=3 n=43 v=100
10319244 On ch=3 n=15 v=100
10319244 Off ch=3 n=23 v=0
10319285 Off ch=3 n=24 v=0
10319285 Off ch=3 n=15 v=0
10319375 Off ch=3 n=43 v=0
10319959 On ch=3 n=22 v=100
10319983 Off ch=3 n=22 v=0
10321068 On ch=3 n=20 v=100
10321134 Off ch=3 n=20 v=0
10321477 On ch=3 n=39 v=100
10321519 On ch=3 n=35 v=100
10321549 On ch=3 n=30 v=100
10321549 On ch=3 n=30 v=100
10321562 On ch=3 n=11 v=100
10321735 On ch=3 n=36 v=100
10321755 Off ch=3 n=11 v=0
10321761 Off ch=3 n=39 v=0
10321774 Off ch=3 n=35 v=0
10321776 On ch=3 n=14 v=100
10321863 Off ch=3 n=30 v=0
10321863 Off ch=3 n=30 v=0
10321936 Off ch=3 n=14 v=0
10321938 Off ch=3 n=36 v=0
10326781 On ch=3 n=10 v=100
10327052 On ch=3 n=6 v=100
10327069 Off ch=3 n=10 v=0
10327492 On ch=3 n=23 v=100
10327592 On ch=3 n=14 v=100
10327601 Off ch=3 n=6 v=0
10327635 Off ch=3 n=23 v=0
10327773 On ch=3 n=15 v=100
10327774 Off ch=3 n=14 v=0
10328336 Off ch=3 n=15 v=0
10328721 On ch=3 n=16 v=100
10328905 Off ch=3 n=16 v=0
10329379 On ch=3 n=24 v=100
10329387 On ch=3 n=30 v=100
10329495 Off ch=3 n=30 v=0
10329501 Off ch=3 n=24 v=0
10329643 On ch=3 n=26 v=100
10329674 On ch=3 n=12 v=100
10329691 Off ch=3 n=26 v=0
10329819 Off ch=3 n=12 v=0
10329823 On ch=3 n=14 v=100
10329884 Off ch=3 n=14 v=0
10329888 On ch=3 n=52 v=100
10330014 Off ch=3 n=52 v=0
10330372 On ch=3 n=30 v=100
10330452 Off ch=3 n=30 v=0
10330666 On ch=3 n=16 v=100
10331101 Off ch=3 n=16 v=0
10331111 On ch=3 n=8 v=100
10331566 Off ch=3 n=8 v=0
10331735 On ch=3 n=14 v=100
10331780 Off ch=3 n=14 v=0
10332174 On ch=3 n=14 v=100
10332315 Off ch=3 n=14 v=0
10332363 On ch=3 n=39 v=100
10332363 On ch=3 n=39 v=100
10332491 On ch=3 n=31 v=100
10332761 Off ch=3 n=31 v=0
10332785 Off ch=3 n=39 v=0
10332785 Off ch=3 n=39 v=0
10333125 On ch=3 n=26 v=100
10333173 On ch=3 n=24 v=100
10333234 On ch=3 n=14 v=100
10333317 Off ch=3 n=26 v=0
10333317 Off ch=3 n=24 v=0
10333318 On ch=3 n=27 v=100
10333421 On ch=3 n=28 v=100
10333452 On ch=3 n=17 v=100
10333472 Off ch=3 n=14 v=0
10333519 Off ch=3 n=27 v=0
10333604 Off ch=3 n=28 v=0
10333785 Off ch=3 n=17 v=0
10333794 On ch=3 n=6 v=100
10334564 Off ch=3 n=6 v=0
10335506 On ch=3 n=16 v=100
10335536 On ch=3 n=15 v=100
10335546 Off ch=3 n=16 v=0
10335807 Off ch=3 n=15 v=0
10335902 On ch=3 n=10 v=100
10336017 Off ch=3 n=10 v=0
10336449 On ch=3 n=14 v=100
10336489 On ch=3 n=8 v=100
10336500 Off ch=3 n=14 v=0
10336910 Off ch=3 n=8 v=0
10337613 On ch=3 n=11 v=100
10338018 Off ch=3 n=11 v=0
10338225 On ch=3 n=44 v=100
10338765 Off ch=3 n=44 v=0
10338785 On ch=3 n=13 v=100
10338869 On ch=3 n=22 v=100
10338869 Off ch=3 n=13 v=0
10338879 On ch=3 n=16 v=100
10338939 Off ch=3 n=22 v=0
10338939 Off ch=3 n=16 v=0
10339018 On ch=3 n=9 v=100
10339476 Off ch=3 n=9 v=0
10339737 On ch=3 n=14 v=100
10339783 On ch=3 n=14 v=100
10339783 On ch=3 n=14 v=100
10339799 Off ch=3 n=14 v=0
10339800 On ch=3 n=8 v=100
10340002 On ch=3 n=24 v=100
10340029 Off ch=3 n=8 v=0
10340044 Off ch=3 n=14 v=0
10340044 Off ch=3 n=14 v=0
10340213 Off ch=3 n=24 v=0
10341012 On ch=3 n=35 v=100
10341079 On ch=3 n=34 v=100
10341116 Off ch=3 n=35 v=0
10341278 Off ch=3 n=34 v=0
10341283 On ch=3 n=23 v=100
10341394 Off ch=3 n=23 v=0
10341887 On ch=3 n=10 v=100
10341965 Off ch=3 n=10 v=0
10342405 On ch=3 n=22 v=100
10342506 Off ch=3 n=22 v=0
10342953 On ch=3 n=14 v=100
10343112 Off ch=3 n=14 v=0
10344054 On ch=3 n=17 v=100
10344302 Off ch=3 n=17 v=0
10344307 On ch=3 n=16 v=100
10344385 Off ch=3 n=16 v=0
10344877 On ch=3 n=23 v=100
10345186 On ch=3 n=36 v=100
10345221 Off ch=3 n=23 v=0
10345578 On ch=3 n=18 v=100
10345590 On ch=3 n=29 v=100
10345598 On ch=3 n=13 v=100
10345953 Off ch=3 n=36 v=0
10345968 Off ch=3 n=13 v=0
10345992 Off ch=3 n=18 v=0
10346148 Off ch=3 n=29 v=0
10347125 On ch=3 n=21 v=100
10347138 On ch=3 n=13 v=100
10347168 Off ch=3 n=21 v=0
10347188 Off ch=3 n=13 v=0
10347721 On ch=3 n=28 v=100
10347892 Off ch=3 n=28 v=0
10348073 On ch=3 n=24 v=100
10348177 Off ch=3 n=24 v=0
10348303 On ch=3 n=13 v=100
10348583 Off ch=3 n=13 v=0
10348699 On ch=3 n=39 v=100
10349217 Off ch=3 n=39 v=0
10349936 On ch=3 n=7 v=100
10350243 Off ch=3 n=7 v=0
10350621 On ch=3 n=21 v=100
10350894 Off ch=3 n=21 v=0
10351997 On ch=3 n=30 v=100
10352075 On ch=3 n=23 v=100
10352418 Off ch=3 n=30 v=0
10352421 Off ch=3 n=23 v=0
10353218 On ch=3 n=26 v=100
10353248 On ch=3 n=17 v=100
10353276 On ch=3 n=25 v=100
10353439 Off ch=3 n=26 v=0
10353439 Off ch=3 n=17 v=0
10353486 Off ch=3 n=25 v=0
10353528 On ch=3 n=26 v=100
10353633 On ch=3 n=28 v=100
10353633 On ch=3 n=28 v=100
10353767 On ch=3 n=33 v=100
10353767 On ch=3 n=33 v=100
10353771 On ch=3 n=10 v=100
10353776 On ch=3 n=25 v=100
10354115 Off ch=3 n=10 v=0
10354116 Off ch=3 n=26 v=0
10354209 Off ch=3 n=25 v=0
10354228 Off ch=3 n=28 v=0
10354228 Off ch=3 n=28 v=0
10354280 Off ch=3 n=33 v=0
10354280 Off ch=3 n=33 v=0
10354947 On ch=3 n=42 v=100
10355157 Off ch=3 n=42 v=0
10357198 On ch=3 n=23 v=100
10357225 Off ch=3 n=23 v=0
10357279 On ch=3 n=23 v=100
10357570 On ch=3 n=16 v=100
10357928 Off ch=3 n=23 v=0
10358119 Off ch=3 n=16 v=0
10359914 On ch=3 n=22 v=100
10360040 On ch=3 n=15 v=100
10360106 On ch=3 n=16 v=100
10360131 On ch=3 n=29 v=100
10360456 Off ch=3 n=22 v=0
10360458 Off ch=3 n=15 v=0
10360483 On ch=3 n=13 v=100
10360520 Off ch=3 n=16 v=0
10360621 Off ch=3 n=29 v=0
10360854 Off ch=3 n=13 v=0
10361640 On ch=3 n=41 v=100
10361712 On ch=3 n=31 v=100
10361712 On ch=3 n=29 v=100
10361712 On ch=3 n=39 v=100
10361895 Off ch=3 n=31 v=0
10361904 Off ch=3 n=41 v=0
10361920 Off ch=3 n=29 v=0
10361982 Off ch=3 n=39 v=0
10362740 On ch=3 n=26 v=100
10362947 Off ch=3 n=26 v=0
10363183 On ch=3 n=21 v=100
10363241 On ch=3 n=14 v=100
10363445 Off ch=3 n=14 v=0
10363452 Off ch=3 n=21 v=0
10363545 On ch=3 n=8 v=100
10364505 On ch=3 n=16 v=100
10364760 Off ch=3 n=8 v=0
10364802 Off ch=3 n=16 v=0
10365955 On ch=3 n=18 v=100
10366096 Off ch=3 n=18 v=0
10366167 On ch=3 n=13 v=100
10366822 Off ch=3 n=13 v=0
10366825 On ch=3 n=34 v=100
10367026 Off ch=3 n=34 v=0
10367103 On ch=3 n=27 v=100
10367158 Off ch=3 n=27 v=0
10367382 On ch=3 n=18 v=100
10367493 On ch=3 n=17 v=100
10367520 On ch=3 n=12 v=100
10367528 Off ch=3 n=18 v=0
10367736 Off ch=3 n=12 v=0
10367738 Off ch=3 n=17 v=0
10367780 On ch=3 n=8 v=100
10368612 Off ch=3 n=8 v=0
10368615 On ch=3 n=15 v=100
10368781 Off ch=3 n=15 v=0
10369385 On ch=3 n=51 v=100
10369627 Off ch=3 n=51 v=0
10369687 On ch=3 n=25 v=100
10369803 On ch=3 n=51 v=100
10369920 Off ch=3 n=25 v=0
10370015 Off ch=3 n=51 v=0
10370324 On ch=3 n=23 v=100
10370359 On ch=3 n=9 v=100
10370513 Off ch=3 n=23 v=0
10370643 Off ch=3 n=9 v=0
10370666 On ch=3 n=12 v=100
10370728 On ch=3 n=47 v=100
10370827 Off ch=3 n=12 v=0
10370828 Off ch=3 n=47 v=0
10370873 On ch=3 n=47 v=100
10370930 On ch=3 n=58 v=100
10370941 Off ch=3 n=47 v=0
10370977 On ch=3 n=8 v=100
10371158 Off ch=3 n=58 v=0
10371188 Off ch=3 n=8 v=0
10371314 On ch=3 n=16 v=100
10371315 On ch=3 n=20 v=100
10371333 On ch=3 n=38 v=100
10371341 On ch=3 n=24 v=100
10371493 Off ch=3 n=16 v=0
10371538 Off ch=3 n=20 v=0
10371641 Off ch=3 n=24 v=0
10371711 Off ch=3 n=38 v=0
10373759 On ch=3 n=3 v=100
10373759 On ch=3 n=20 v=100
10374006 Off ch=3 n=3 v=0
10374194 Off ch=3 n=20 v=0
10374198 On ch=3 n=12 v=100
10374618 Off ch=3 n=12 v=0
10375825 On ch=3 n=32 v=100
10376082 Off ch=3 n=32 v=0
10376099 On ch=3 n=10 v=100
10376696 Off ch=3 n=10 v=0
10376836 On ch=3 n=9 v=100
10377359 Off ch=3 n=9 v=0
10377361 On ch=3 n=7 v=100
10377694 Off ch=3 n=7 v=0
10378397 On ch=3 n=31 v=100
10378767 On ch=3 n=30 v=100
10378767 On ch=3 n=30 v=100
10378800 Off ch=3 n=31 v=0
10378821 On ch=3 n=14 v=100
10378992 Off ch=3 n=14 v=0
10379061 Off ch=3 n=30 v=0
10379061 Off ch=3 n=30 v=0
10379081 On ch=3 n=33 v=100
10379212 Off ch=3 n=33 v=0
10379681 On ch=3 n=46 v=100
10379860 Off ch=3 n=46 v=0
10381616 On ch=3 n=43 v=100
10381823 On ch=3 n=31 v=100
10381826 On ch=3 n=16 v=100
10381878 Off ch=3 n=16 v=0
10381880 Off ch=3 n=43 v=0
10381899 Off ch=3 n=31 v=0
10382355 On ch=3 n=8 v=100
10382428 On ch=3 n=16 v=100
10382429 Off ch=3 n=8 v=0
10382577 Off ch=3 n=16 v=0
10382880 On ch=3 n=30 v=100
10382900 On ch=3 n=27 v=100
10382942 On ch=3 n=24 v=100
10383014 Off ch=3 n=30 v=0
10383106 On ch=3 n=12 v=100
10383107 Off ch=3 n=27 v=0
10383533 On ch=3 n=3 v=100
10383533 Off ch=3 n=24 v=0
10383535 Off ch=3 n=12 v=0
10383603 Off ch=3 n=3 v=0
10383780 On ch=3 n=42 v=100
10383782 On ch=3 n=33 v=100
10383802 On ch=3 n=20 v=100
10383808 On ch=3 n=46 v=100
10383808 On ch=3 n=46 v=100
10383867 On ch=3 n=26 v=100
10383986 Off ch=3 n=20 v=0
10383992 Off ch=3 n=33 v=0
10384016 Off ch=3 n=42 v=0
10384023 Off ch=3 n=26 v=0
10384055 Off ch=3 n=46 v=0
10384055 Off ch=3 n=46 v=0
10384362 On ch=3 n=37 v=100
10384562 Off ch=3 n=37 v=0
10384620 On ch=3 n=7 v=100
10384965 On ch=3 n=49 v=100
10384978 Off ch=3 n=7 v=0
10385018 On ch=3 n=31 v=100
10385025 On ch=3 n=44 v=100
10385032 On ch=3 n=5 v=100
10385224 Off ch=3 n=5 v=0
10385226 On ch=3 n=5 v=100
10385228 Off ch=3 n=49 v=0
10385264 Off ch=3 n=31 v=0
10385318 Off ch=3 n=44 v=0
10386030 On ch=3 n=16 v=100
10386052 On ch=3 n=43 v=100
10386126 Off ch=3 n=5 v=0
10386128 On ch=3 n=8 v=100
10386138 Off ch=3 n=16 v=0
10386166 Off ch=3 n=43 v=0
10386559 Off ch=3 n=8 v=0
10386561 On ch=3 n=5 v=100
10387813 Off ch=3 n=5 v=0
10387893 On ch=3 n=5 v=100
10388135 Off ch=3 n=5 v=0
10388137 On ch=3 n=8 v=100
10388469 Off ch=3 n=8 v=0
10388486 On ch=3 n=44 v=100
10388532 On ch=3 n=35 v=100
10388578 On ch=3 n=24 v=100
10388584 On ch=3 n=18 v=100
10388682 Off ch=3 n=44 v=0
10388757 Off ch=3 n=35 v=0
10388876 Off ch=3 n=18 v=0
10388943 Off ch=3 n=24 v=0
10389628 On ch=3 n=7 v=100
10389958 Off ch=3 n=7 v=0
10390765 On ch=3 n=41 v=100
10390782 On ch=3 n=31 v=100
10390796 On ch=3 n=24 v=100
10390889 Off ch=3 n=31 v=0
10390889 Off ch=3 n=24 v=0
10390890 Off ch=3 n=41 v=0
10390992 On ch=3 n=41 v=100
10391023 On ch=3 n=11 v=100
10391054 Off ch=3 n=41 v=0
10391088 Off ch=3 n=11 v=0
10391090 On ch=3 n=13 v=100
10391569 Off ch=3 n=13 v=0
10391578 On ch=3 n=15 v=100
10391686 Off ch=3 n=15 v=0
10392232 On ch=3 n=6 v=100
10392571 On ch=3 n=36 v=100
10392645 Off ch=3 n=6 v=0
10392735 Off ch=3 n=36 v=0
10393984 On ch=3 n=18 v=100
10394148 On ch=3 n=7 v=100
10394151 Off ch=3 n=18 v=0
10394213 On ch=3 n=26 v=100
10394284 Off ch=3 n=7 v=0
10394287 On ch=3 n=16 v=100
10394293 Off ch=3 n=26 v=0
10394540 On ch=3 n=10 v=100
10394543 Off ch=3 n=16 v=0
10394620 Off ch=3 n=10 v=0
10394626 On ch=3 n=9 v=100
10394713 Off ch=3 n=9 v=0
10394781 On ch=3 n=6 v=100
10395172 Off ch=3 n=6 v=0
10395174 On ch=3 n=7 v=100
10395340 Off ch=3 n=7 v=0
10395343 On ch=3 n=29 v=100
10395421 On ch=3 n=18 v=100
10395427 Off ch=3 n=29 v=0
10396426 On ch=3 n=13 v=100
10396430 Off ch=3 n=18 v=0
10396666 Off ch=3 n=13 v=0
10396675 On ch=3 n=29 v=100
10396797 Off ch=3 n=29 v=0
10397581 On ch=3 n=50 v=100
10397584 On ch=3 n=35 v=100
10397708 Off ch=3 n=35 v=0
10397746 Off ch=3 n=50 v=0
10397812 On ch=3 n=13 v=100
10397980 On ch=3 n=7 v=100
10397983 Off ch=3 n=13 v=0
10398693 On ch=3 n=0 v=100
10398694 Off ch=3 n=7 v=0
10399743 Off ch=3 n=0 v=0
10399745 On ch=3 n=6 v=100
10399882 On ch=3 n=10 v=100
10399883 Off ch=3 n=6 v=0
10400118 Off ch=3 n=10 v=0
10400158 On ch=3 n=12 v=100
10400383 On ch=3 n=11 v=100
10400383 Off ch=3 n=12 v=0
10400533 Off ch=3 n=11 v=0
10400583 On ch=3 n=40 v=100
10400841 Off ch=3 n=40 v=0
10401337 On ch=3 n=7 v=100
10401586 On ch=3 n=10 v=100
10402144 Off ch=3 n=7 v=0
10402327 Off ch=3 n=10 v=0
10402454 On ch=3 n=37 v=100
10402457 On ch=3 n=35 v=100
10402571 Off ch=3 n=37 v=0
10402578 On ch=3 n=7 v=100
10402606 Off ch=3 n=35 v=0
10403174 Off ch=3 n=7 v=0
10403385 On ch=3 n=7 v=100
10403758 Off ch=3 n=7 v=0
10403763 On ch=3 n=32 v=100
10403848 Off ch=3 n=32 v=0
10404655 On ch=3 n=9 v=100
10404655 On ch=3 n=11 v=100
10404787 Off ch=3 n=9 v=0
10404804 Off ch=3 n=11 v=0
10404954 On ch=3 n=9 v=100
10405316 Off ch=3 n=9 v=0
10405818 On ch=3 n=8 v=100
10405948 On ch=3 n=16 v=100
10406442 Off ch=3 n=8 v=0
10406954 Off ch=3 n=16 v=0
10408222 On ch=3 n=7 v=100
10408626 Off ch=3 n=7 v=0
10408998 On ch=3 n=10 v=100
10409931 On ch=3 n=8 v=100
10409932 Off ch=3 n=10 v=0
10410709 On ch=3 n=39 v=100
10410749 Off ch=3 n=8 v=0
10410752 On ch=3 n=26 v=100
10410776 Off ch=3 n=39 v=0
10410821 Off ch=3 n=26 v=0
10410850 On ch=3 n=10 v=100
10411325 On ch=3 n=20 v=100
10411325 Off ch=3 n=10 v=0
10411532 Off ch=3 n=20 v=0
10412470 On ch=3 n=6 v=100
10413668 Off ch=3 n=6 v=0
10413751 On ch=3 n=38 v=100
10413860 Off ch=3 n=38 v=0
10414085 On ch=3 n=35 v=100
10414115 On ch=3 n=20 v=100
10414239 On ch=3 n=15 v=100
10414245 Off ch=3 n=35 v=0
10414253 On ch=3 n=9 v=100
10414255 Off ch=3 n=20 v=0
10414326 Off ch=3 n=9 v=0
10414330 Off ch=3 n=15 v=0
10414519 On ch=3 n=19 v=100
10414520 On ch=3 n=24 v=100
10414607 Off ch=3 n=19 v=0
10414629 Off ch=3 n=24 v=0
10414688 On ch=3 n=15 v=100
10414717 On ch=3 n=45 v=100
10414800 Off ch=3 n=15 v=0
10414824 On ch=3 n=3 v=100
10414837 Off ch=3 n=45 v=0
10414920 On ch=3 n=11 v=100
10414920 Off ch=3 n=3 v=0
10415282 On ch=3 n=27 v=100
10415283 Off ch=3 n=11 v=0
10415481 On ch=3 n=43 v=100
10415528 On ch=3 n=10 v=100
10415766 Off ch=3 n=27 v=0
10415798 On ch=3 n=8 v=100
10415819 Off ch=3 n=43 v=0
10415865 Off ch=3 n=10 v=0
10416018 Off ch=3 n=8 v=0
10416040 On ch=3 n=13 v=100
10416237 Off ch=3 n=13 v=0
10417119 On ch=3 n=21 v=100
10417233 Off ch=3 n=21 v=0
10418740 On ch=3 n=39 v=100
10418844 On ch=3 n=18 v=100
10418989 On ch=3 n=6 v=100
10419007 Off ch=3 n=18 v=0
10419095 On ch=3 n=1 v=100
10419095 Off ch=3 n=39 v=0
10419095 Off ch=3 n=6 v=0
10420036 On ch=3 n=24 v=100
10420056 Off ch=3 n=1 v=0
10420091 On ch=3 n=17 v=100
10420185 Off ch=3 n=24 v=0
10420187 On ch=3 n=11 v=100
10420197 Off ch=3 n=17 v=0
10420446 Off ch=3 n=11 v=0
10420447 On ch=3 n=12 v=100
10420447 On ch=3 n=51 v=100
10420596 Off ch=3 n=12 v=0
10420661 On ch=3 n=48 v=100
10420676 Off ch=3 n=51 v=0
10420676 Off ch=3 n=48 v=0
10420742 On ch=3 n=48 v=100
10420837 On ch=3 n=45 v=100
10420894 On ch=3 n=29 v=100
10420901 On ch=3 n=11 v=100
10421092 Off ch=3 n=11 v=0
10421133 Off ch=3 n=48 v=0
10421169 Off ch=3 n=45 v=0
10421203 Off ch=3 n=29 v=0
10421269 On ch=3 n=2 v=100
10422180 On ch=3 n=2 v=100
10422181 Off ch=3 n=2 v=0
10422627 Off ch=3 n=2 v=0
10422721 On ch=3 n=6 v=100
10422861 Off ch=3 n=6 v=0
10424364 On ch=3 n=21 v=100
10424594 Off ch=3 n=21 v=0
10424742 On ch=3 n=3 v=100
10425236 On ch=3 n=38 v=100
10425307 On ch=3 n=37 v=100
10425307 On ch=3 n=37 v=100
10425343 Off ch=3 n=3 v=0
10425351 On ch=3 n=23 v=100
10425358 On ch=3 n=37 v=100
10425496 Off ch=3 n=23 v=0
10425500 Off ch=3 n=38 v=0
10425507 Off ch=3 n=37 v=0
10425507 Off ch=3 n=37 v=0
10425542 Off ch=3 n=37 v=0
10426253 On ch=3 n=7 v=100
10426518 Off ch=3 n=7 v=0
10427443 On ch=3 n=35 v=100
10427597 Off ch=3 n=35 v=0
10429265 On ch=3 n=23 v=100
10429330 Off ch=3 n=23 v=0
10429385 On ch=3 n=6 v=100
10430079 Off ch=3 n=6 v=0
10430703 On ch=3 n=8 v=100
10430960 On ch=3 n=10 v=100
10430971 Off ch=3 n=8 v=0
10431412 Off ch=3 n=10 v=0
10432124 On ch=3 n=8 v=100
10432417 On ch=3 n=9 v=100
10432418 Off ch=3 n=8 v=0
10432621 Off ch=3 n=9 v=0
10432624 On ch=3 n=13 v=100
10433272 Off ch=3 n=13 v=0
10433288 On ch=3 n=8 v=100
10433474 Off ch=3 n=8 v=0
10433510 On ch=3 n=8 v=100
10433765 Off ch=3 n=8 v=0
10433768 On ch=3 n=9 v=100
10434120 Off ch=3 n=9 v=0
10434124 On ch=3 n=12 v=100
10434402 Off ch=3 n=12 v=0
10434454 On ch=3 n=12 v=100
10434512 Off ch=3 n=12 v=0
10434784 On ch=3 n=9 v=100
10435038 Off ch=3 n=9 v=0
10435459 On ch=3 n=28 v=100
10435684 On ch=3 n=26 v=100
10435747 Off ch=3 n=28 v=0
10435764 Off ch=3 n=26 v=0
10435806 On ch=3 n=9 v=100
10436141 On ch=3 n=11 v=100
10436143 Off ch=3 n=9 v=0
10436740 On ch=3 n=4 v=100
10436747 Off ch=3 n=11 v=0
10437382 Off ch=3 n=4 v=0
10437420 On ch=3 n=4 v=100
10437735 Off ch=3 n=4 v=0
10437738 On ch=3 n=8 v=100
10438289 On ch=3 n=14 v=100
10438289 Off ch=3 n=8 v=0
10438694 Off ch=3 n=14 v=0
10438754 On ch=3 n=14 v=100
10438815 Off ch=3 n=14 v=0
10438831 On ch=3 n=13 v=100
10438960 On ch=3 n=10 v=100
10438984 Off ch=3 n=13 v=0
10439046 On ch=3 n=22 v=100
10439050 Off ch=3 n=10 v=0
10439095 On ch=3 n=19 v=100
10439383 Off ch=3 n=22 v=0
10439401 Off ch=3 n=19 v=0
10440285 On ch=3 n=25 v=100
10440285 On ch=3 n=25 v=100
10440525 On ch=3 n=32 v=100
10440525 On ch=3 n=32 v=100
10440730 Off ch=3 n=25 v=0
10440730 Off ch=3 n=25 v=0
10440780 Off ch=3 n=32 v=0
10440780 Off ch=3 n=32 v=0
10441012 On ch=3 n=37 v=100
10441183 Off ch=3 n=37 v=0
10441271 On ch=3 n=24 v=100
10441401 On ch=3 n=40 v=100
10441412 Off ch=3 n=24 v=0
10441533 On ch=3 n=28 v=100
10441556 Off ch=3 n=40 v=0
10441574 Off ch=3 n=28 v=0
10442775 On ch=3 n=9 v=100
10443161 Off ch=3 n=9 v=0
10443202 On ch=3 n=56 v=100
10443365 On ch=3 n=15 v=100
10443389 On ch=3 n=58 v=100
10443395 On ch=3 n=5 v=100
10443585 Off ch=3 n=5 v=0
10443592 Off ch=3 n=56 v=0
10443592 Off ch=3 n=15 v=0
10443772 On ch=3 n=12 v=100
10443857 Off ch=3 n=58 v=0
10443951 Off ch=3 n=12 v=0
10446943 On ch=3 n=34 v=100
10447068 Off ch=3 n=34 v=0
10447130 On ch=3 n=18 v=100
10447310 Off ch=3 n=18 v=0
10447344 On ch=3 n=18 v=100
10447791 Off ch=3 n=18 v=0
10448012 On ch=3 n=28 v=100
10448012 On ch=3 n=28 v=100
10448085 On ch=3 n=19 v=100
10448086 On ch=3 n=30 v=100
10448086 On ch=3 n=30 v=100
10448094 On ch=3 n=23 v=100
10448450 Off ch=3 n=19 v=0
10448463 Off ch=3 n=28 v=0
10448463 Off ch=3 n=28 v=0
10448526 Off ch=3 n=23 v=0
10448571 Off ch=3 n=30 v=0
10448571 Off ch=3 n=30 v=0
10449201 On ch=3 n=24 v=100
10449431 Off ch=3 n=24 v=0
10449522 On ch=3 n=5 v=100
10449561 Off ch=3 n=5 v=0
10451597 On ch=3 n=30 v=100
10451722 On ch=3 n=22 v=100
10451861 Off ch=3 n=30 v=0
10451923 Off ch=3 n=22 v=0
10453088 On ch=3 n=6 v=100
10453431 On ch=3 n=42 v=100
10453594 Off ch=3 n=6 v=0
10453623 Off ch=3 n=42 v=0
10453624 On ch=3 n=6 v=100
10454224 Off ch=3 n=6 v=0
10454804 On ch=3 n=6 v=100
10455416 Off ch=3 n=6 v=0
10455417 On ch=3 n=6 v=100
10456227 On ch=3 n=24 v=100
10456229 Off ch=3 n=6 v=0
10456743 On ch=3 n=17 v=100
10456749 Off ch=3 n=24 v=0
10456887 Off ch=3 n=17 v=0
10456897 On ch=3 n=10 v=100
10457598 On ch=3 n=16 v=100
10457604 Off ch=3 n=10 v=0
10457706 Off ch=3 n=16 v=0
10457879 On ch=3 n=25 v=100
10457893 On ch=3 n=5 v=100
10457934 Off ch=3 n=25 v=0
10458137 Off ch=3 n=5 v=0
10458387 On ch=3 n=38 v=100
10458405 On ch=3 n=41 v=100
10458423 On ch=3 n=30 v=100
10458458 On ch=3 n=39 v=100
10458488 Off ch=3 n=41 v=0
10458522 Off ch=3 n=38 v=0
10458700 On ch=3 n=43 v=100
10458709 Off ch=3 n=30 v=0
10458788 Off ch=3 n=39 v=0
10458830 Off ch=3 n=43 v=0
10459898 On ch=3 n=17 v=100
10460547 On ch=3 n=24 v=100
10460796 Off ch=3 n=17 v=0
10460852 Off ch=3 n=24 v=0
10461591 On ch=3 n=31 v=100
10462046 Off ch=3 n=31 v=0
10462247 On ch=3 n=27 v=100
10462435 Off ch=3 n=27 v=0
10462441 On ch=3 n=31 v=100
10462589 Off ch=3 n=31 v=0
10462602 On ch=3 n=36 v=100
10462821 On ch=3 n=16 v=100
10462870 Off ch=3 n=36 v=0
10463060 Off ch=3 n=16 v=0
10463076 On ch=3 n=35 v=100
10463353 Off ch=3 n=35 v=0
10463368 On ch=3 n=8 v=100
10463997 On ch=3 n=17 v=100
10464003 Off ch=3 n=8 v=0
10464320 Off ch=3 n=17 v=0
10464329 On ch=3 n=31 v=100
10464445 Off ch=3 n=31 v=0
10465320 On ch=3 n=27 v=100
10465409 Off ch=3 n=27 v=0
10465423 On ch=3 n=16 v=100
10465512 Off ch=3 n=16 v=0
10466181 On ch=3 n=10 v=100
10466607 Off ch=3 n=10 v=0
10466610 On ch=3 n=11 v=100
10466991 Off ch=3 n=11 v=0
10466996 On ch=3 n=32 v=100
10467073 On ch=3 n=50 v=100
10467312 Off ch=3 n=32 v=0
10467542 Off ch=3 n=50 v=0
10468193 On ch=3 n=11 v=100
10468280 Off ch=3 n=11 v=0
10468282 On ch=3 n=7 v=100
10469079 Off ch=3 n=7 v=0
10469177 On ch=3 n=50 v=100
10469283 On ch=3 n=52 v=100
10469289 On ch=3 n=52 v=100
10469359 Off ch=3 n=50 v=0
10469507 Off ch=3 n=52 v=0
10469529 Off ch=3 n=52 v=0
10469536 On ch=3 n=8 v=100
10470153 Off ch=3 n=8 v=0
10470201 On ch=3 n=33 v=100
10470460 Off ch=3 n=33 v=0
10470570 On ch=3 n=18 v=100
10470615 On ch=3 n=13 v=100
10471000 Off ch=3 n=13 v=0
10471009 Off ch=3 n=18 v=0
10471573 On ch=3 n=49 v=100
10471714 Off ch=3 n=49 v=0
10473683 On ch=3 n=22 v=100
10473792 Off ch=3 n=22 v=0
10474480 On ch=3 n=11 v=100
10474481 On ch=3 n=26 v=100
10474971 On ch=3 n=19 v=100
10474990 On ch=3 n=17 v=100
10475008 Off ch=3 n=11 v=0
10475073 Off ch=3 n=26 v=0
10475121 Off ch=3 n=19 v=0
10475243 On ch=3 n=16 v=100
10475252 Off ch=3 n=17 v=0
10475389 Off ch=3 n=16 v=0
10475447 On ch=3 n=30 v=100
10475630 Off ch=3 n=30 v=0
10476429 On ch=3 n=16 v=100
10476466 On ch=3 n=28 v=100
10476837 Off ch=3 n=16 v=0
10476848 On ch=3 n=14 v=100
10476973 Off ch=3 n=28 v=0
10477514 Off ch=3 n=14 v=0
10477517 On ch=3 n=33 v=100
10477558 On ch=3 n=22 v=100
10477716 Off ch=3 n=33 v=0
10478054 Off ch=3 n=22 v=0
10478989 On ch=3 n=42 v=100
10479041 On ch=3 n=27 v=100
10479041 On ch=3 n=27 v=100
10479067 On ch=3 n=20 v=100
10479249 Off ch=3 n=20 v=0
10479367 Off ch=3 n=27 v=0
10479367 Off ch=3 n=27 v=0
10479377 Off ch=3 n=42 v=0
10480269 On ch=3 n=7 v=100
10480541 Off ch=3 n=7 v=0
10482601 On ch=3 n=23 v=100
10482839 Off ch=3 n=23 v=0
10482841 On ch=3 n=10 v=100
10482841 On ch=3 n=10 v=100
10482910 On ch=3 n=23 v=100
10482910 On ch=3 n=33 v=100
10482910 On ch=3 n=22 v=100
10482910 On ch=3 n=12 v=100
10482910 Off ch=3 n=10 v=0
10482930 Off ch=3 n=10 v=0
10482965 On ch=3 n=17 v=100
10482969 Off ch=3 n=12 v=0
10482978 Off ch=3 n=23 v=0
10483027 Off ch=3 n=22 v=0
10483056 On ch=3 n=42 v=100
10483065 Off ch=3 n=33 v=0
10483125 Off ch=3 n=17 v=0
10483213 Off ch=3 n=42 v=0
10483359 On ch=3 n=36 v=100
10483491 Off ch=3 n=36 v=0
10484076 On ch=3 n=12 v=100
10484552 On ch=3 n=34 v=100
10484625 Off ch=3 n=12 v=0
10484633 On ch=3 n=20 v=100
10484637 Off ch=3 n=34 v=0
10484775 Off ch=3 n=20 v=0
10485089 On ch=3 n=13 v=100
10485210 Off ch=3 n=13 v=0
10485295 On ch=3 n=13 v=100
10485296 On ch=3 n=27 v=100
10485305 Off ch=3 n=13 v=0
10485625 Off ch=3 n=27 v=0
10485646 On ch=3 n=20 v=100
10485755 Off ch=3 n=20 v=0
10485777 On ch=3 n=17 v=100
10485846 Off ch=3 n=17 v=0
10486804 On ch=3 n=5 v=100
10487671 Off ch=3 n=5 v=0
10488628 On ch=3 n=7 v=100
10488892 On ch=3 n=19 v=100
10488938 Off ch=3 n=7 v=0
10488940 On ch=3 n=5 v=100
10489174 On ch=3 n=59 v=100
10489234 On ch=3 n=13 v=100
10489234 Off ch=3 n=19 v=0
10489235 Off ch=3 n=5 v=0
10489433 On ch=3 n=18 v=100
10489433 On ch=3 n=18 v=100
10489478 On ch=3 n=10 v=100
10489479 Off ch=3 n=59 v=0
10489505 Off ch=3 n=13 v=0
10489769 On ch=3 n=21 v=100
10489880 Off ch=3 n=10 v=0
10489881 On ch=3 n=10 v=100
10489894 Off ch=3 n=18 v=0
10489894 Off ch=3 n=18 v=0
10489937 Off ch=3 n=21 v=0
10490115 Off ch=3 n=10 v=0
10490462 On ch=3 n=19 v=100
10491010 Off ch=3 n=19 v=0
10491141 On ch=3 n=7 v=100
10491224 On ch=3 n=3 v=100
10491228 Off ch=3 n=7 v=0
10491552 On ch=3 n=6 v=100
10491552 Off ch=3 n=3 v=0
10491707 On ch=3 n=35 v=100
10491754 On ch=3 n=6 v=100
10491758 Off ch=3 n=6 v=0
10491871 Off ch=3 n=6 v=0
10491872 On ch=3 n=5 v=100
10491878 Off ch=3 n=35 v=0
10492279 On ch=3 n=26 v=100
10492334 Off ch=3 n=5 v=0
10492463 Off ch=3 n=26 v=0
10492472 On ch=3 n=4 v=100
10492694 Off ch=3 n=4 v=0
10493599 On ch=3 n=18 v=100
10493627 On ch=3 n=14 v=100
10493811 On ch=3 n=8 v=100
10493926 Off ch=3 n=18 v=0
10493974 Off ch=3 n=14 v=0
10493974 Off ch=3 n=8 v=0
10494006 On ch=3 n=19 v=100
10494027 Off ch=3 n=19 v=0
10494265 On ch=3 n=12 v=100
10494672 Off ch=3 n=12 v=0
10495772 On ch=3 n=40 v=100
10495782 On ch=3 n=58 v=100
10495844 On ch=3 n=36 v=100
10495844 On ch=3 n=36 v=100
10495857 On ch=3 n=15 v=100
10495901 Off ch=3 n=40 v=0
10495991 Off ch=3 n=58 v=0
10495991 Off ch=3 n=15 v=0
10496045 On ch=3 n=24 v=100
10496057 On ch=3 n=9 v=100
10496155 Off ch=3 n=36 v=0
10496155 Off ch=3 n=36 v=0
10496169 Off ch=3 n=9 v=0
10496171 Off ch=3 n=24 v=0
10497233 On ch=3 n=5 v=100
10497244 On ch=3 n=19 v=100
10497257 On ch=3 n=45 v=100
10497322 Off ch=3 n=5 v=0
10497354 On ch=3 n=31 v=100
10497367 On ch=3 n=16 v=100
10497367 On ch=3 n=48 v=100
10497456 Off ch=3 n=19 v=0
10497560 Off ch=3 n=16 v=0
10497572 Off ch=3 n=31 v=0
10497582 Off ch=3 n=45 v=0
10497656 Off ch=3 n=48 v=0
10498351 On ch=3 n=35 v=100
10498578 On ch=3 n=23 v=100
10498578 On ch=3 n=23 v=100
10498655 Off ch=3 n=35 v=0
10498686 On ch=3 n=16 v=100
10498730 On ch=3 n=29 v=100
10499085 Off ch=3 n=16 v=0
10499136 Off ch=3 n=23 v=0
10499136 Off ch=3 n=23 v=0
10499313 Off ch=3 n=29 v=0
10500290 On ch=3 n=11 v=100
10500364 Off ch=3 n=11 v=0
10500379 On ch=3 n=25 v=100
10500622 Off ch=3 n=25 v=0
10500963 On ch=3 n=6 v=100
10500994 Off ch=3 n=6 v=0
10501519 On ch=3 n=9 v=100
10501678 Off ch=3 n=9 v=0
10501700 On ch=3 n=19 v=100
10501899 Off ch=3 n=19 v=0
10503321 On ch=3 n=22 v=100
10503375 On ch=3 n=43 v=100
10503375 On ch=3 n=43 v=100
10503423 On ch=3 n=2 v=100
10503614 Off ch=3 n=2 v=0
10503616 On ch=3 n=3 v=100
10503622 Off ch=3 n=22 v=0
10503652 Off ch=3 n=43 v=0
10503652 Off ch=3 n=43 v=0
10504475 Off ch=3 n=3 v=0
10504495 On ch=3 n=10 v=100
10504938 Off ch=3 n=10 v=0
10505016 On ch=3 n=8 v=100
10505903 On ch=3 n=21 v=100
10505940 On ch=3 n=8 v=100
10505940 Off ch=3 n=8 v=0
10506140 Off ch=3 n=21 v=0
10506411 On ch=3 n=32 v=100
10506488 On ch=3 n=9 v=100
10506499 Off ch=3 n=8 v=0
10506515 Off ch=3 n=32 v=0
10506783 Off ch=3 n=9 v=0
10508373 On ch=3 n=25 v=100
10508489 Off ch=3 n=25 v=0
10508545 On ch=3 n=32 v=100
10508831 Off ch=3 n=32 v=0
10508832 On ch=3 n=9 v=100
10509154 On ch=3 n=25 v=100
10509155 Off ch=3 n=9 v=0
10509243 Off ch=3 n=25 v=0
10509253 On ch=3 n=36 v=100
10509325 Off ch=3 n=36 v=0
10509332 On ch=3 n=15 v=100
10509373 Off ch=3 n=15 v=0
10509376 On ch=3 n=10 v=100
10509444 Off ch=3 n=10 v=0
10510118 On ch=3 n=15 v=100
10511048 Off ch=3 n=15 v=0
10512894 On ch=3 n=27 v=100
10512988 Off ch=3 n=27 v=0
10514802 On ch=3 n=40 v=100
10515022 Off ch=3 n=40 v=0
10515264 On ch=3 n=32 v=100
10515280 On ch=3 n=33 v=100
10515470 Off ch=3 n=32 v=0
10515537 On ch=3 n=10 v=100
10515547 Off ch=3 n=33 v=0
10516643 On ch=3 n=17 v=100
10516740 Off ch=3 n=10 v=0
10516752 Off ch=3 n=17 v=0
10518467 On ch=3 n=27 v=100
10518739 Off ch=3 n=27 v=0
10518774 On ch=3 n=22 v=100
10518935 On ch=3 n=28 v=100
10519032 On ch=3 n=24 v=100
10519049 Off ch=3 n=22 v=0
10519095 On ch=3 n=18 v=100
10519137 On ch=3 n=22 v=100
10519137 On ch=3 n=22 v=100
10519148 On ch=3 n=14 v=100
10519479 Off ch=3 n=28 v=0
10519484 Off ch=3 n=18 v=0
10519485 Off ch=3 n=24 v=0
10519490 Off ch=3 n=14 v=0
10519548 Off ch=3 n=22 v=0
10519548 Off ch=3 n=22 v=0
10519582 On ch=3 n=33 v=100
10519675 Off ch=3 n=33 v=0
10520064 On ch=3 n=10 v=100
10520785 On ch=3 n=20 v=100
10520786 Off ch=3 n=10 v=0
10520952 On ch=3 n=12 v=100
10520957 Off ch=3 n=20 v=0
10521500 Off ch=3 n=12 v=0
10521682 On ch=3 n=35 v=100
10521823 On ch=3 n=62 v=100
10521890 Off ch=3 n=35 v=0
10521892 On ch=3 n=18 v=100
10521996 Off ch=3 n=62 v=0
10522337 Off ch=3 n=18 v=0
10522421 On ch=3 n=17 v=100
10522614 Off ch=3 n=17 v=0
10522632 On ch=3 n=33 v=100
10522689 Off ch=3 n=33 v=0
10522997 On ch=3 n=27 v=100
10523103 Off ch=3 n=27 v=0
10523775 On ch=3 n=3 v=100
10523930 Off ch=3 n=3 v=0
10524163 On ch=3 n=10 v=100
10524350 Off ch=3 n=10 v=0
10525267 On ch=3 n=8 v=100
10526168 Off ch=3 n=8 v=0
10527297 On ch=3 n=7 v=100
10528045 Off ch=3 n=7 v=0
10528073 On ch=3 n=51 v=100
10528109 On ch=3 n=43 v=100
10528170 On ch=3 n=41 v=100
10528173 On ch=3 n=39 v=100
10528285 Off ch=3 n=51 v=0
10528377 Off ch=3 n=43 v=0
10528377 Off ch=3 n=39 v=0
10528416 Off ch=3 n=41 v=0
10528600 On ch=3 n=20 v=100
10528642 Off ch=3 n=20 v=0
10529382 On ch=3 n=9 v=100
10529654 On ch=3 n=15 v=100
10529670 Off ch=3 n=9 v=0
10529671 On ch=3 n=9 v=100
10529724 On ch=3 n=37 v=100
10529750 On ch=3 n=14 v=100
10529756 Off ch=3 n=15 v=0
10529783 Off ch=3 n=9 v=0
10529786 On ch=3 n=11 v=100
10529928 Off ch=3 n=14 v=0
10529929 Off ch=3 n=37 v=0
10530126 On ch=3 n=35 v=100
10530313 Off ch=3 n=11 v=0
10530526 Off ch=3 n=35 v=0
10530741 On ch=3 n=36 v=100
10530904 On ch=3 n=26 v=100
10530904 On ch=3 n=26 v=100
10530943 On ch=3 n=19 v=100
10531024 Off ch=3 n=36 v=0
10531053 Off ch=3 n=19 v=0
10531099 Off ch=3 n=26 v=0
10531099 Off ch=3 n=26 v=0
10531385 On ch=3 n=9 v=100
10531962 Off ch=3 n=9 v=0
10531965 On ch=3 n=8 v=100
10532858 Off ch=3 n=8 v=0
10532860 On ch=3 n=9 v=100
10533096 Off ch=3 n=9 v=0
10533112 On ch=3 n=10 v=100
10533275 Off ch=3 n=10 v=0
10535079 On ch=3 n=7 v=100
10535284 Off ch=3 n=7 v=0
10535286 On ch=3 n=5 v=100
10535775 On ch=3 n=16 v=100
10535781 Off ch=3 n=5 v=0
10536322 Off ch=3 n=16 v=0
10536335 On ch=3 n=39 v=100
10536628 Off ch=3 n=39 v=0
10536759 On ch=3 n=11 v=100
10537552 Off ch=3 n=11 v=0
10537553 On ch=3 n=11 v=100
10537714 Off ch=3 n=11 v=0
10538690 On ch=3 n=65 v=100
10538733 On ch=3 n=26 v=100
10538736 On ch=3 n=42 v=100
10538791 Off ch=3 n=65 v=0
10538799 Off ch=3 n=26 v=0
10538812 Off ch=3 n=42 v=0
10539069 On ch=3 n=29 v=100
10539095 On ch=3 n=29 v=100
10539204 Off ch=3 n=29 v=0
10539936 On ch=3 n=10 v=100
10539937 Off ch=3 n=29 v=0
10540352 Off ch=3 n=10 v=0
10540519 On ch=3 n=38 v=100
10540580 On ch=3 n=8 v=100
10540645 Off ch=3 n=38 v=0
10541036 Off ch=3 n=8 v=0
10542308 On ch=3 n=9 v=100
10542588 Off ch=3 n=9 v=0
10542591 On ch=3 n=6 v=100
10543596 On ch=3 n=35 v=100
10543716 Off ch=3 n=6 v=0
10543719 On ch=3 n=6 v=100
10543759 Off ch=3 n=35 v=0
10544348 Off ch=3 n=6 v=0
10545043 On ch=3 n=41 v=100
10545212 On ch=3 n=42 v=100
10545222 Off ch=3 n=41 v=0
10545237 On ch=3 n=35 v=100
10545237 On ch=3 n=35 v=100
10545297 On ch=3 n=17 v=100
10545304 On ch=3 n=23 v=100
10545411 Off ch=3 n=42 v=0
10545597 Off ch=3 n=17 v=0
10545608 Off ch=3 n=35 v=0
10545608 Off ch=3 n=35 v=0
10545774 Off ch=3 n=23 v=0
10546174 On ch=3 n=17 v=100
10546174 On ch=3 n=17 v=100
10546194 On ch=3 n=11 v=100
10546731 Off ch=3 n=11 v=0
10546809 Off ch=3 n=17 v=0
10546809 Off ch=3 n=17 v=0
10547038 On ch=3 n=29 v=100
10547139 Off ch=3 n=29 v=0
10547155 On ch=3 n=41 v=100
10547384 Off ch=3 n=41 v=0
10548402 On ch=3 n=6 v=100
10548541 Off ch=3 n=6 v=0
10548567 On ch=3 n=12 v=100
10548934 On ch=3 n=19 v=100
10548976 Off ch=3 n=12 v=0
10548976 Off ch=3 n=19 v=0
10549037 On ch=3 n=12 v=100
10549037 On ch=3 n=31 v=100
10549091 Off ch=3 n=12 v=0
10549222 Off ch=3 n=31 v=0
10549268 On ch=3 n=24 v=100
10549268 On ch=3 n=31 v=100
10549268 On ch=3 n=11 v=100
10549356 Off ch=3 n=24 v=0
10549468 Off ch=3 n=31 v=0
10549956 On ch=3 n=7 v=100
10549958 Off ch=3 n=11 v=0
10550099 On ch=3 n=22 v=100
10550232 Off ch=3 n=7 v=0
10550242 On ch=3 n=9 v=100
10550264 Off ch=3 n=22 v=0
10550983 On ch=3 n=30 v=100
10551144 Off ch=3 n=9 v=0
10551146 On ch=3 n=12 v=100
10551167 Off ch=3 n=30 v=0
10551592 Off ch=3 n=12 v=0
10551596 On ch=3 n=2 v=100
10551687 Off ch=3 n=2 v=0
10552248 On ch=3 n=40 v=100
10552349 On ch=3 n=26 v=100
10552390 On ch=3 n=12 v=100
10552390 Off ch=3 n=40 v=0
10552636 Off ch=3 n=26 v=0
10552638 Off ch=3 n=12 v=0
10552914 On ch=3 n=31 v=100
10552914 On ch=3 n=31 v=100
10552925 On ch=3 n=9 v=100
10553235 Off ch=3 n=9 v=0
10553265 Off ch=3 n=31 v=0
10553265 Off ch=3 n=31 v=0
10553681 On ch=3 n=26 v=100
10553684 On ch=3 n=24 v=100
10553742 Off ch=3 n=24 v=0
10553762 Off ch=3 n=26 v=0
10555332 On ch=3 n=18 v=100
10555373 Off ch=3 n=18 v=0
10555676 On ch=3 n=16 v=100
10555702 On ch=3 n=21 v=100
10555774 On ch=3 n=10 v=100
10555796 Off ch=3 n=16 v=0
10555854 Off ch=3 n=21 v=0
10555862 On ch=3 n=9 v=100
10555868 Off ch=3 n=10 v=0
10555982 Off ch=3 n=9 v=0
10559644 On ch=3 n=9 v=100
10560121 Off ch=3 n=9 v=0
10561024 On ch=3 n=18 v=100
10561025 On ch=3 n=28 v=100
10561207 On ch=3 n=12 v=100
10561215 Off ch=3 n=18 v=0
10561257 Off ch=3 n=28 v=0
10561409 Off ch=3 n=12 v=0
10561415 On ch=3 n=19 v=100
10561415 On ch=3 n=40 v=100
10561467 Off ch=3 n=19 v=0
10561468 On ch=3 n=10 v=100
10561499 Off ch=3 n=40 v=0
10562078 Off ch=3 n=10 v=0
10562102 On ch=3 n=33 v=100
10562323 Off ch=3 n=33 v=0
10562510 On ch=3 n=6 v=100
10562893 Off ch=3 n=6 v=0
10562917 On ch=3 n=9 v=100
10563082 Off ch=3 n=9 v=0
10563120 On ch=3 n=15 v=100
10563175 Off ch=3 n=15 v=0
10563246 On ch=3 n=12 v=100
10563411 Off ch=3 n=12 v=0
10563505 On ch=3 n=17 v=100
10564310 Off ch=3 n=17 v=0
10565397 On ch=3 n=19 v=100
10565581 Off ch=3 n=19 v=0
10565587 On ch=3 n=26 v=100
10565661 Off ch=3 n=26 v=0
10565835 On ch=3 n=40 v=100
10566195 Off ch=3 n=40 v=0
10566565 On ch=3 n=11 v=100
10566642 On ch=3 n=13 v=100
10566642 Off ch=3 n=11 v=0
10566664 On ch=3 n=12 v=100
10566806 Off ch=3 n=13 v=0
10567493 On ch=3 n=26 v=100
10567558 Off ch=3 n=12 v=0
10567596 Off ch=3 n=26 v=0
10567731 On ch=3 n=23 v=100
10567842 Off ch=3 n=23 v=0
10567852 On ch=3 n=32 v=100
10567852 On ch=3 n=32 v=100
10568066 Off ch=3 n=32 v=0
10568066 Off ch=3 n=32 v=0
10568673 On ch=3 n=18 v=100
10568677 On ch=3 n=22 v=100
10568684 On ch=3 n=42 v=100
10568732 Off ch=3 n=18 v=0
10568740 Off ch=3 n=22 v=0
10568915 Off ch=3 n=42 v=0
10568947 On ch=3 n=42 v=100
10569115 Off ch=3 n=42 v=0
10569453 On ch=3 n=4 v=100
10569524 Off ch=3 n=4 v=0
10569540 On ch=3 n=15 v=100
10569633 Off ch=3 n=15 v=0
10569675 On ch=3 n=10 v=100
10569751 Off ch=3 n=10 v=0
10570047 On ch=3 n=37 v=100
10570048 On ch=3 n=18 v=100
10570157 Off ch=3 n=18 v=0
10570192 Off ch=3 n=37 v=0
10570256 On ch=3 n=16 v=100
10570332 Off ch=3 n=16 v=0
10571350 On ch=3 n=9 v=100
10571816 Off ch=3 n=9 v=0
10571850 On ch=3 n=9 v=100
10571984 On ch=3 n=15 v=100
10571991 Off ch=3 n=9 v=0
10572187 Off ch=3 n=15 v=0
10575807 On ch=3 n=21 v=100
10576018 Off ch=3 n=21 v=0
10576871 On ch=3 n=3 v=100
10576961 Off ch=3 n=3 v=0
10576970 On ch=3 n=10 v=100
10577112 On ch=3 n=20 v=100
10577196 Off ch=3 n=10 v=0
10577209 Off ch=3 n=20 v=0
10577467 On ch=3 n=12 v=100
10578118 Off ch=3 n=12 v=0
10578129 On ch=3 n=32 v=100
10578249 Off ch=3 n=32 v=0
10579035 On ch=3 n=33 v=100
10579146 Off ch=3 n=33 v=0
10579276 On ch=3 n=26 v=100
10579384 On ch=3 n=22 v=100
10579384 On ch=3 n=22 v=100
10579403 On ch=3 n=13 v=100
10579616 Off ch=3 n=26 v=0
10579642 Off ch=3 n=13 v=0
10579678 Off ch=3 n=22 v=0
10579678 Off ch=3 n=22 v=0
10579780 On ch=3 n=33 v=100
10579956 On ch=3 n=3 v=100
10580451 Off ch=3 n=3 v=0
10580611 Off ch=3 n=33 v=0
10581250 On ch=3 n=29 v=100
10581409 Off ch=3 n=29 v=0
10581477 On ch=3 n=15 v=100
10582111 Off ch=3 n=15 v=0
10582218 On ch=3 n=28 v=100
10582330 On ch=3 n=13 v=100
10582334 Off ch=3 n=28 v=0
10582416 On ch=3 n=7 v=100
10582418 Off ch=3 n=13 v=0
10582419 On ch=3 n=30 v=100
10582677 Off ch=3 n=7 v=0
10582679 On ch=3 n=24 v=100
10582788 Off ch=3 n=30 v=0
10582975 Off ch=3 n=24 v=0
10583865 On ch=3 n=19 v=100
10584174 On ch=3 n=27 v=100
10584181 Off ch=3 n=19 v=0
10584489 On ch=3 n=34 v=100
10584526 Off ch=3 n=27 v=0
10584550 On ch=3 n=9 v=100
10584618 Off ch=3 n=34 v=0
10584618 Off ch=3 n=9 v=0
10584642 On ch=3 n=11 v=100
10584851 Off ch=3 n=11 v=0
10585323 On ch=3 n=30 v=100
10585365 On ch=3 n=28 v=100
10585380 On ch=3 n=32 v=100
10585446 Off ch=3 n=30 v=0
10585446 Off ch=3 n=28 v=0
10585446 Off ch=3 n=32 v=0
10585531 On ch=3 n=28 v=100
10585531 On ch=3 n=32 v=100
10585531 On ch=3 n=40 v=100
10585531 On ch=3 n=30 v=100
10585719 Off ch=3 n=28 v=0
10585719 Off ch=3 n=30 v=0
10585751 Off ch=3 n=32 v=0
10585765 Off ch=3 n=40 v=0
10586197 On ch=3 n=28 v=100
10586228 On ch=3 n=28 v=100
10586250 On ch=3 n=11 v=100
10586363 Off ch=3 n=28 v=0
10586367 Off ch=3 n=28 v=0
10586547 Off ch=3 n=11 v=0
10586612 On ch=3 n=18 v=100
10586743 Off ch=3 n=18 v=0
10587204 On ch=3 n=11 v=100
10587487 Off ch=3 n=11 v=0
10587520 On ch=3 n=35 v=100
10587748 Off ch=3 n=35 v=0
10588411 On ch=3 n=32 v=100
10588636 On ch=3 n=9 v=100
10588837 Off ch=3 n=32 v=0
10588837 Off ch=3 n=9 v=0
10588898 On ch=3 n=9 v=100
10588898 On ch=3 n=15 v=100
10588898 On ch=3 n=32 v=100
10588898 On ch=3 n=46 v=100
10588916 Off ch=3 n=9 v=0
10588977 Off ch=3 n=15 v=0
10589048 Off ch=3 n=32 v=0
10589212 Off ch=3 n=46 v=0
10589683 On ch=3 n=17 v=100
10589872 Off ch=3 n=17 v=0
10589873 On ch=3 n=30 v=100
10589905 On ch=3 n=8 v=100
10589981 Off ch=3 n=30 v=0
10590184 Off ch=3 n=8 v=0
10590192 On ch=3 n=7 v=100
10590418 Off ch=3 n=7 v=0
10591748 On ch=3 n=8 v=100
10591809 On ch=3 n=8 v=100
10591810 Off ch=3 n=8 v=0
10591845 Off ch=3 n=8 v=0
10591846 On ch=3 n=10 v=100
10592403 On ch=3 n=28 v=100
10592432 Off ch=3 n=10 v=0
10592496 Off ch=3 n=28 v=0
10593880 On ch=3 n=8 v=100
10593961 Off ch=3 n=8 v=0
10593989 On ch=3 n=8 v=100
10594366 On ch=3 n=8 v=100
10594369 Off ch=3 n=8 v=0
10594370 On ch=3 n=6 v=100
10594555 On ch=3 n=5 v=100
10594573 Off ch=3 n=6 v=0
10594598 Off ch=3 n=8 v=0
10594864 Off ch=3 n=5 v=0
10594872 On ch=3 n=7 v=100
10595202 Off ch=3 n=7 v=0
10595205 On ch=3 n=7 v=100
10595688 Off ch=3 n=7 v=0
10595870 On ch=3 n=15 v=100
10596011 Off ch=3 n=15 v=0
10596187 On ch=3 n=35 v=100
10596218 On ch=3 n=22 v=100
10596253 Off ch=3 n=35 v=0
10596340 On ch=3 n=23 v=100
10596406 On ch=3 n=21 v=100
10596765 Off ch=3 n=22 v=0
10596918 Off ch=3 n=23 v=0
10596935 Off ch=3 n=21 v=0
10597639 On ch=3 n=56 v=100
10597748 Off ch=3 n=56 v=0
10597859 On ch=3 n=56 v=100
10597887 Off ch=3 n=56 v=0
10598736 On ch=3 n=18 v=100
10598828 Off ch=3 n=18 v=0
10599849 On ch=3 n=29 v=100
10599882 On ch=3 n=30 v=100
10599954 Off ch=3 n=29 v=0
10600316 Off ch=3 n=30 v=0
10600390 On ch=3 n=3 v=100
10600712 On ch=3 n=7 v=100
10600712 Off ch=3 n=3 v=0
10601090 Off ch=3 n=7 v=0
10601800 On ch=3 n=49 v=100
10602108 On ch=3 n=23 v=100
10602147 On ch=3 n=22 v=100
10602147 On ch=3 n=22 v=100
10602161 On ch=3 n=11 v=100
10602163 On ch=3 n=15 v=100
10602256 Off ch=3 n=49 v=0
10602256 Off ch=3 n=23 v=0
10602375 Off ch=3 n=11 v=0
10602422 Off ch=3 n=22 v=0
10602422 Off ch=3 n=22 v=0
10602456 Off ch=3 n=15 v=0
10603687 On ch=3 n=5 v=100
10604941 Off ch=3 n=5 v=0
10605420 On ch=3 n=4 v=100
10605496 On ch=3 n=35 v=100
10605528 Off ch=3 n=4 v=0
10605530 On ch=3 n=6 v=100
10605794 Off ch=3 n=35 v=0
10606263 On ch=3 n=4 v=100
10606263 Off ch=3 n=6 v=0
10607116 Off ch=3 n=4 v=0
10607404 On ch=3 n=19 v=100
10607420 On ch=3 n=27 v=100
10607555 Off ch=3 n=19 v=0
10607632 Off ch=3 n=27 v=0
10608025 On ch=3 n=25 v=100
10608040 On ch=3 n=20 v=100
10608040 On ch=3 n=37 v=100
10608335 Off ch=3 n=20 v=0
10608357 Off ch=3 n=25 v=0
10608402 Off ch=3 n=37 v=0
10609333 On ch=3 n=29 v=100
10609348 On ch=3 n=44 v=100
10609470 On ch=3 n=30 v=100
10609503 Off ch=3 n=29 v=0
10609525 Off ch=3 n=44 v=0
10609624 On ch=3 n=36 v=100
10609630 Off ch=3 n=30 v=0
10609700 Off ch=3 n=36 v=0
10610014 On ch=3 n=32 v=100
10610593 Off ch=3 n=32 v=0
10610847 On ch=3 n=22 v=100
10610945 Off ch=3 n=22 v=0
10612205 On ch=3 n=32 v=100
10612248 On ch=3 n=14 v=100
10612248 On ch=3 n=25 v=100
10612600 Off ch=3 n=14 v=0
10612601 Off ch=3 n=32 v=0
10612666 Off ch=3 n=25 v=0
10620141 On ch=3 n=6 v=100
10620520 Off ch=3 n=6 v=0
10620632 On ch=3 n=31 v=100
10620632 On ch=3 n=31 v=100
10620706 On ch=3 n=5 v=100
10621021 On ch=3 n=41 v=100
10621203 Off ch=3 n=5 v=0
10621240 Off ch=3 n=31 v=0
10621240 Off ch=3 n=31 v=0
10621402 Off ch=3 n=41 v=0
10621604 On ch=3 n=11 v=100
10621989 Off ch=3 n=11 v=0
10622182 On ch=3 n=37 v=100
10622384 Off ch=3 n=37 v=0
10623323 On ch=3 n=22 v=100
10623485 Off ch=3 n=22 v=0
10623499 On ch=3 n=34 v=100
10623577 On ch=3 n=18 v=100
10623578 Off ch=3 n=34 v=0
10623761 Off ch=3 n=18 v=0
10624347 On ch=3 n=19 v=100
10624560 On ch=3 n=55 v=100
10624560 On ch=3 n=55 v=100
10624707 Off ch=3 n=19 v=0
10624754 On ch=3 n=21 v=100
10624906 Off ch=3 n=21 v=0
10625136 On ch=3 n=12 v=100
10625485 Off ch=3 n=55 v=0
10625485 Off ch=3 n=55 v=0
10625487 On ch=3 n=14 v=100
10625490 Off ch=3 n=12 v=0
10625856 On ch=3 n=19 v=100
10625856 Off ch=3 n=14 v=0
10626207 Off ch=3 n=19 v=0
10626244 On ch=3 n=1 v=100
10627307 Off ch=3 n=1 v=0
10627308 On ch=3 n=12 v=100
10627594 Off ch=3 n=12 v=0
10627596 On ch=3 n=30 v=100
10627696 Off ch=3 n=30 v=0
10629130 On ch=3 n=17 v=100
10629275 Off ch=3 n=17 v=0
10629346 On ch=3 n=8 v=100
10629849 On ch=3 n=19 v=100
10629863 Off ch=3 n=8 v=0
10629969 On ch=3 n=7 v=100
10629970 Off ch=3 n=19 v=0
10630335 On ch=3 n=16 v=100
10630336 Off ch=3 n=7 v=0
10630474 Off ch=3 n=16 v=0
10632000 On ch=3 n=23 v=100
10632348 Off ch=3 n=23 v=0
10632621 On ch=3 n=7 v=100
10633090 Off ch=3 n=7 v=0
10633159 On ch=3 n=15 v=100
10633484 Off ch=3 n=15 v=0
TrkEnd    
MTrk    
0 PrCh ch=4 p=46 
0 Meta TrkName "LTR" 
17521 On ch=4 n=17 v=100
17538 Off ch=4 n=17 v=0
17599 On ch=4 n=17 v=100
17785 Off ch=4 n=17 v=0
20305 On ch=4 n=40 v=100
20376 Off ch=4 n=40 v=0
23207 On ch=4 n=1 v=100
24919 Off ch=4 n=1 v=0
24921 On ch=4 n=1 v=100
30197 Off ch=4 n=1 v=0
30199 On ch=4 n=1 v=100
31911 Off ch=4 n=1 v=0
73383 On ch=4 n=4 v=100
73850 On ch=4 n=9 v=100
73853 Off ch=4 n=4 v=0
74745 Off ch=4 n=9 v=0
74752 On ch=4 n=44 v=100
74753 On ch=4 n=7 v=100
74753 On ch=4 n=2 v=100
74790 Off ch=4 n=2 v=0
74792 On ch=4 n=4 v=100
74795 Off ch=4 n=7 v=0
74865 Off ch=4 n=44 v=0
74876 On ch=4 n=9 v=100
75005 Off ch=4 n=4 v=0
75007 On ch=4 n=4 v=100
75932 Off ch=4 n=9 v=0
75934 Off ch=4 n=4 v=0
75951 On ch=4 n=8 v=100
76705 Off ch=4 n=8 v=0
77750 On ch=4 n=3 v=100
79070 Off ch=4 n=3 v=0
83123 On ch=4 n=9 v=100
83182 On ch=4 n=25 v=100
83196 On ch=4 n=3 v=100
83196 Off ch=4 n=9 v=0
83255 Off ch=4 n=25 v=0
83708 Off ch=4 n=3 v=0
83709 On ch=4 n=4 v=100
89174 On ch=4 n=17 v=100
89175 Off ch=4 n=4 v=0
89211 Off ch=4 n=17 v=0
89214 On ch=4 n=7 v=100
89425 On ch=4 n=24 v=100
89441 Off ch=4 n=7 v=0
89942 Off ch=4 n=24 v=0
89944 On ch=4 n=20 v=100
91591 On ch=4 n=46 v=100
91762 Off ch=4 n=20 v=0
91773 On ch=4 n=23 v=100
92353 Off ch=4 n=46 v=0
92703 On ch=4 n=56 v=100
92827 Off ch=4 n=23 v=0
92843 Off ch=4 n=56 v=0
94363 On ch=4 n=24 v=100
94369 On ch=4 n=53 v=100
94580 Off ch=4 n=24 v=0
94582 On ch=4 n=23 v=100
94619 Off ch=4 n=53 v=0
95017 On ch=4 n=12 v=100
95033 Off ch=4 n=23 v=0
95495 Off ch=4 n=12 v=0
96396 On ch=4 n=3 v=100
96427 Off ch=4 n=3 v=0
96430 On ch=4 n=10 v=100
96618 Off ch=4 n=10 v=0
121824 On ch=4 n=4 v=100
127810 On ch=4 n=7 v=100
127867 Off ch=4 n=4 v=0
127877 Off ch=4 n=7 v=0
128943 On ch=4 n=28 v=100
129252 Off ch=4 n=28 v=0
145243 On ch=4 n=2 v=100
145523 Off ch=4 n=2 v=0
145525 On ch=4 n=2 v=100
146116 On ch=4 n=2 v=100
146123 Off ch=4 n=2 v=0
146363 Off ch=4 n=2 v=0
164605 On ch=4 n=32 v=100
164716 Off ch=4 n=32 v=0
164910 On ch=4 n=27 v=100
165145 Off ch=4 n=27 v=0
167511 On ch=4 n=11 v=100
167786 On ch=4 n=15 v=100
167787 Off ch=4 n=11 v=0
167878 On ch=4 n=14 v=100
167918 Off ch=4 n=15 v=0
168219 Off ch=4 n=14 v=0
168760 On ch=4 n=9 v=100
168841 Off ch=4 n=9 v=0
172088 On ch=4 n=33 v=100
172316 Off ch=4 n=33 v=0
186384 On ch=4 n=30 v=100
186430 Off ch=4 n=30 v=0
187114 On ch=4 n=35 v=100
187308 Off ch=4 n=35 v=0
188102 On ch=4 n=35 v=100
188387 Off ch=4 n=35 v=0
189946 On ch=4 n=39 v=100
190221 Off ch=4 n=39 v=0
190319 On ch=4 n=39 v=100
190433 Off ch=4 n=39 v=0
192993 On ch=4 n=17 v=100
193046 On ch=4 n=43 v=100
193089 Off ch=4 n=17 v=0
193314 Off ch=4 n=43 v=0
196080 On ch=4 n=39 v=100
196370 Off ch=4 n=39 v=0
202793 On ch=4 n=35 v=100
202841 Off ch=4 n=35 v=0
203010 On ch=4 n=21 v=100
203120 Off ch=4 n=21 v=0
217506 On ch=4 n=35 v=100
217681 Off ch=4 n=35 v=0
217733 On ch=4 n=13 v=100
218121 Off ch=4 n=13 v=0
225088 On ch=4 n=8 v=100
225228 Off ch=4 n=8 v=0
225229 On ch=4 n=12 v=100
225550 Off ch=4 n=12 v=0
226696 On ch=4 n=17 v=100
227222 Off ch=4 n=17 v=0
239178 On ch=4 n=8 v=100
239945 Off ch=4 n=8 v=0
241126 On ch=4 n=50 v=100
241401 Off ch=4 n=50 v=0
242809 On ch=4 n=6 v=100
242952 Off ch=4 n=6 v=0
254426 On ch=4 n=56 v=100
254426 On ch=4 n=56 v=100
254767 Off ch=4 n=56 v=0
254767 Off ch=4 n=56 v=0
261129 On ch=4 n=12 v=100
261171 Off ch=4 n=12 v=0
261296 On ch=4 n=12 v=100
261568 Off ch=4 n=12 v=0
263042 On ch=4 n=29 v=100
263110 Off ch=4 n=29 v=0
263936 On ch=4 n=15 v=100
264113 Off ch=4 n=15 v=0
267980 On ch=4 n=57 v=100
268223 Off ch=4 n=57 v=0
304995 On ch=4 n=39 v=100
305035 Off ch=4 n=39 v=0
305184 On ch=4 n=39 v=100
305399 Off ch=4 n=39 v=0
335708 On ch=4 n=41 v=100
335837 Off ch=4 n=41 v=0
369687 On ch=4 n=46 v=100
369835 Off ch=4 n=46 v=0
377718 On ch=4 n=45 v=100
377718 On ch=4 n=23 v=100
377731 On ch=4 n=19 v=100
377802 Off ch=4 n=23 v=0
377813 Off ch=4 n=45 v=0
378098 Off ch=4 n=19 v=0
386812 On ch=4 n=33 v=100
386848 On ch=4 n=13 v=100
387004 Off ch=4 n=33 v=0
387256 Off ch=4 n=13 v=0
388275 On ch=4 n=24 v=100
388491 Off ch=4 n=24 v=0
419978 On ch=4 n=38 v=100
419978 On ch=4 n=38 v=100
420276 Off ch=4 n=38 v=0
420276 Off ch=4 n=38 v=0
422128 On ch=4 n=27 v=100
422224 Off ch=4 n=27 v=0
422405 On ch=4 n=40 v=100
422487 Off ch=4 n=40 v=0
424549 On ch=4 n=15 v=100
424562 On ch=4 n=25 v=100
424783 Off ch=4 n=15 v=0
424822 Off ch=4 n=25 v=0
453176 On ch=4 n=28 v=100
453301 Off ch=4 n=28 v=0
465002 On ch=4 n=32 v=100
465012 On ch=4 n=17 v=100
465093 Off ch=4 n=32 v=0
465343 Off ch=4 n=17 v=0
488820 On ch=4 n=20 v=100
488919 Off ch=4 n=20 v=0
488932 On ch=4 n=49 v=100
489375 Off ch=4 n=49 v=0
489722 On ch=4 n=55 v=100
489869 Off ch=4 n=55 v=0
497097 On ch=4 n=14 v=100
497695 Off ch=4 n=14 v=0
561544 On ch=4 n=9 v=100
562050 Off ch=4 n=9 v=0
619385 On ch=4 n=1 v=100
620167 Off ch=4 n=1 v=0
620708 On ch=4 n=2 v=100
620806 Off ch=4 n=2 v=0
622681 On ch=4 n=6 v=100
622917 Off ch=4 n=6 v=0
627651 On ch=4 n=5 v=100
627677 Off ch=4 n=5 v=0
627706 On ch=4 n=5 v=100
628383 Off ch=4 n=5 v=0
629088 On ch=4 n=25 v=100
629220 Off ch=4 n=25 v=0
630256 On ch=4 n=28 v=100
630280 On ch=4 n=5 v=100
630432 Off ch=4 n=28 v=0
630512 On ch=4 n=33 v=100
630837 Off ch=4 n=5 v=0
630891 Off ch=4 n=33 v=0
630895 On ch=4 n=15 v=100
630985 Off ch=4 n=15 v=0
630993 On ch=4 n=45 v=100
631094 On ch=4 n=43 v=100
631178 Off ch=4 n=45 v=0
631256 Off ch=4 n=43 v=0
631367 On ch=4 n=31 v=100
631566 On ch=4 n=39 v=100
631662 Off ch=4 n=31 v=0
631738 On ch=4 n=20 v=100
632521 Off ch=4 n=39 v=0
632521 Off ch=4 n=20 v=0
635011 On ch=4 n=19 v=100
636485 Off ch=4 n=19 v=0
637975 On ch=4 n=24 v=100
638250 On ch=4 n=17 v=100
638492 Off ch=4 n=24 v=0
638492 Off ch=4 n=17 v=0
638536 On ch=4 n=35 v=100
639042 Off ch=4 n=35 v=0
639053 On ch=4 n=26 v=100
639186 Off ch=4 n=26 v=0
639848 On ch=4 n=34 v=100
640110 Off ch=4 n=34 v=0
640443 On ch=4 n=39 v=100
641375 Off ch=4 n=39 v=0
733057 On ch=4 n=8 v=100
736636 Off ch=4 n=8 v=0
736640 On ch=4 n=7 v=100
738024 Off ch=4 n=7 v=0
739421 On ch=4 n=5 v=100
739459 Off ch=4 n=5 v=0
757305 On ch=4 n=35 v=100
757431 Off ch=4 n=35 v=0
764872 On ch=4 n=10 v=100
765443 Off ch=4 n=10 v=0
775363 On ch=4 n=43 v=100
775544 Off ch=4 n=43 v=0
779012 On ch=4 n=29 v=100
779194 Off ch=4 n=29 v=0
779471 On ch=4 n=22 v=100
779481 On ch=4 n=49 v=100
779515 On ch=4 n=25 v=100
779517 Off ch=4 n=22 v=0
779537 On ch=4 n=49 v=100
779771 Off ch=4 n=49 v=0
779771 Off ch=4 n=25 v=0
779774 On ch=4 n=37 v=100
779799 Off ch=4 n=49 v=0
779921 Off ch=4 n=37 v=0
779991 On ch=4 n=43 v=100
780047 On ch=4 n=38 v=100
780054 Off ch=4 n=43 v=0
780211 Off ch=4 n=38 v=0
781572 On ch=4 n=29 v=100
781630 Off ch=4 n=29 v=0
808856 On ch=4 n=33 v=100
808856 On ch=4 n=15 v=100
809009 Off ch=4 n=15 v=0
809020 On ch=4 n=15 v=100
809156 Off ch=4 n=33 v=0
809158 Off ch=4 n=15 v=0
894704 On ch=4 n=10 v=100
895134 Off ch=4 n=10 v=0
895393 On ch=4 n=9 v=100
895865 Off ch=4 n=9 v=0
897220 On ch=4 n=34 v=100
897390 Off ch=4 n=34 v=0
902744 On ch=4 n=33 v=100
903007 Off ch=4 n=33 v=0
907831 On ch=4 n=21 v=100
908528 Off ch=4 n=21 v=0
939444 On ch=4 n=19 v=100
940086 Off ch=4 n=19 v=0
947099 On ch=4 n=53 v=100
947323 Off ch=4 n=53 v=0
956303 On ch=4 n=43 v=100
956374 Off ch=4 n=43 v=0
956422 On ch=4 n=43 v=100
956433 On ch=4 n=21 v=100
956476 Off ch=4 n=43 v=0
956756 Off ch=4 n=21 v=0
981240 On ch=4 n=5 v=100
981866 Off ch=4 n=5 v=0
983519 On ch=4 n=2 v=100
983803 Off ch=4 n=2 v=0
995347 On ch=4 n=27 v=100
995366 On ch=4 n=5 v=100
995493 Off ch=4 n=27 v=0
995998 Off ch=4 n=5 v=0
1040859 On ch=4 n=20 v=100
1041037 Off ch=4 n=20 v=0
1046068 On ch=4 n=8 v=100
1046533 Off ch=4 n=8 v=0
1051343 On ch=4 n=25 v=100
1051392 On ch=4 n=1 v=100
1051402 Off ch=4 n=25 v=0
1056794 On ch=4 n=1 v=100
1056798 Off ch=4 n=1 v=0
1057032 On ch=4 n=17 v=100
1057032 Off ch=4 n=1 v=0
1057125 Off ch=4 n=17 v=0
1057517 On ch=4 n=13 v=100
1058305 Off ch=4 n=13 v=0
1063154 On ch=4 n=37 v=100
1063256 Off ch=4 n=37 v=0
1067478 On ch=4 n=15 v=100
1067974 Off ch=4 n=15 v=0
1067976 On ch=4 n=5 v=100
1068076 Off ch=4 n=5 v=0
1068114 On ch=4 n=43 v=100
1068179 On ch=4 n=63 v=100
1068315 On ch=4 n=15 v=100
1068584 Off ch=4 n=43 v=0
1068772 Off ch=4 n=63 v=0
1068805 Off ch=4 n=15 v=0
1068807 On ch=4 n=3 v=100
1069234 Off ch=4 n=3 v=0
1069236 On ch=4 n=1 v=100
1073345 Off ch=4 n=1 v=0
1073347 On ch=4 n=3 v=100
1073774 Off ch=4 n=3 v=0
1073777 On ch=4 n=18 v=100
1074764 Off ch=4 n=18 v=0
1074775 On ch=4 n=20 v=100
1074959 Off ch=4 n=20 v=0
1077774 On ch=4 n=52 v=100
1077821 On ch=4 n=34 v=100
1078124 Off ch=4 n=52 v=0
1078126 Off ch=4 n=34 v=0
1078129 On ch=4 n=50 v=100
1078144 On ch=4 n=46 v=100
1078190 On ch=4 n=15 v=100
1078389 Off ch=4 n=50 v=0
1078508 Off ch=4 n=46 v=0
1078757 Off ch=4 n=15 v=0
1078760 On ch=4 n=16 v=100
1079093 Off ch=4 n=16 v=0
1079095 On ch=4 n=17 v=100
1079253 Off ch=4 n=17 v=0
1080299 On ch=4 n=32 v=100
1080716 Off ch=4 n=32 v=0
1093008 On ch=4 n=14 v=100
1093089 Off ch=4 n=14 v=0
1093104 On ch=4 n=15 v=100
1093235 Off ch=4 n=15 v=0
1093237 On ch=4 n=15 v=100
1093272 Off ch=4 n=15 v=0
1097025 On ch=4 n=13 v=100
1097131 Off ch=4 n=13 v=0
1172710 On ch=4 n=8 v=100
1173097 Off ch=4 n=8 v=0
1185347 On ch=4 n=26 v=100
1185596 Off ch=4 n=26 v=0
1185788 On ch=4 n=35 v=100
1185854 On ch=4 n=20 v=100
1186354 Off ch=4 n=20 v=0
1186355 Off ch=4 n=35 v=0
1192768 On ch=4 n=35 v=100
1192876 Off ch=4 n=35 v=0
1205918 On ch=4 n=17 v=100
1206007 Off ch=4 n=17 v=0
1206094 On ch=4 n=17 v=100
1206234 Off ch=4 n=17 v=0
1206307 On ch=4 n=14 v=100
1206577 Off ch=4 n=14 v=0
1209822 On ch=4 n=48 v=100
1210011 Off ch=4 n=48 v=0
1215842 On ch=4 n=26 v=100
1216346 Off ch=4 n=26 v=0
1229770 On ch=4 n=32 v=100
1229787 On ch=4 n=3 v=100
1229914 Off ch=4 n=32 v=0
1230384 Off ch=4 n=3 v=0
1247398 On ch=4 n=2 v=100
1249079 Off ch=4 n=2 v=0
1249081 On ch=4 n=0 v=100
1255909 Off ch=4 n=0 v=0
1255911 On ch=4 n=2 v=100
1257591 Off ch=4 n=2 v=0
1259308 On ch=4 n=19 v=100
1259639 Off ch=4 n=19 v=0
1273012 On ch=4 n=48 v=100
1273063 On ch=4 n=18 v=100
1273278 Off ch=4 n=48 v=0
1274038 On ch=4 n=11 v=100
1274038 Off ch=4 n=18 v=0
1274632 Off ch=4 n=11 v=0
1280493 On ch=4 n=29 v=100
1280547 On ch=4 n=40 v=100
1280633 Off ch=4 n=29 v=0
1280723 Off ch=4 n=40 v=0
1281462 On ch=4 n=21 v=100
1281871 Off ch=4 n=21 v=0
1282190 On ch=4 n=25 v=100
1282260 Off ch=4 n=25 v=0
1282264 On ch=4 n=23 v=100
1282305 Off ch=4 n=23 v=0
1288422 On ch=4 n=16 v=100
1288840 On ch=4 n=33 v=100
1288885 Off ch=4 n=16 v=0
1288896 Off ch=4 n=33 v=0
1299754 On ch=4 n=34 v=100
1299810 Off ch=4 n=34 v=0
1301054 On ch=4 n=42 v=100
1301281 Off ch=4 n=42 v=0
1301286 On ch=4 n=56 v=100
1301288 On ch=4 n=59 v=100
1301523 Off ch=4 n=56 v=0
1301571 Off ch=4 n=59 v=0
1307582 On ch=4 n=34 v=100
1307649 Off ch=4 n=34 v=0
1363616 On ch=4 n=31 v=100
1364012 Off ch=4 n=31 v=0
1411280 On ch=4 n=3 v=100
1412662 Off ch=4 n=3 v=0
1426872 On ch=4 n=40 v=100
1426912 Off ch=4 n=40 v=0
1426987 On ch=4 n=40 v=100
1427175 Off ch=4 n=40 v=0
1431893 On ch=4 n=4 v=100
1432239 Off ch=4 n=4 v=0
1432241 On ch=4 n=0 v=100
1432891 Off ch=4 n=0 v=0
1432893 On ch=4 n=4 v=100
1433239 Off ch=4 n=4 v=0
1435556 On ch=4 n=53 v=100
1435704 Off ch=4 n=53 v=0
1443128 On ch=4 n=9 v=100
1443598 Off ch=4 n=9 v=0
1443599 On ch=4 n=8 v=100
1444295 On ch=4 n=14 v=100
1444298 Off ch=4 n=8 v=0
1446363 On ch=4 n=6 v=100
1446371 Off ch=4 n=14 v=0
1446964 Off ch=4 n=6 v=0
1446965 On ch=4 n=14 v=100
1447245 Off ch=4 n=14 v=0
1451579 On ch=4 n=18 v=100
1452044 Off ch=4 n=18 v=0
1454034 On ch=4 n=15 v=100
1454508 Off ch=4 n=15 v=0
1458307 On ch=4 n=14 v=100
1458652 Off ch=4 n=14 v=0
1460087 On ch=4 n=36 v=100
1460228 Off ch=4 n=36 v=0
1464046 On ch=4 n=17 v=100
1464423 Off ch=4 n=17 v=0
1467958 On ch=4 n=38 v=100
1468027 On ch=4 n=44 v=100
1468069 On ch=4 n=39 v=100
1468079 On ch=4 n=47 v=100
1468111 Off ch=4 n=38 v=0
1468125 On ch=4 n=40 v=100
1468154 Off ch=4 n=44 v=0
1468158 On ch=4 n=40 v=100
1468198 Off ch=4 n=39 v=0
1468346 Off ch=4 n=47 v=0
1468347 Off ch=4 n=40 v=0
1468348 Off ch=4 n=40 v=0
1468362 On ch=4 n=23 v=100
1468435 Off ch=4 n=23 v=0
1471240 On ch=4 n=45 v=100
1471332 Off ch=4 n=45 v=0
1474226 On ch=4 n=12 v=100
1474496 On ch=4 n=6 v=100
1474499 Off ch=4 n=12 v=0
1476438 Off ch=4 n=6 v=0
1476440 On ch=4 n=4 v=100
1477679 On ch=4 n=8 v=100
1477681 Off ch=4 n=4 v=0
1478066 Off ch=4 n=8 v=0
1478067 On ch=4 n=10 v=100
1478564 Off ch=4 n=10 v=0
1480043 On ch=4 n=12 v=100
1480205 Off ch=4 n=12 v=0
1480339 On ch=4 n=23 v=100
1480463 Off ch=4 n=23 v=0
1488583 On ch=4 n=16 v=100
1488744 Off ch=4 n=16 v=0
1489443 On ch=4 n=19 v=100
1489798 Off ch=4 n=19 v=0
1490755 On ch=4 n=24 v=100
1491124 Off ch=4 n=24 v=0
1491706 On ch=4 n=26 v=100
1491838 Off ch=4 n=26 v=0
1504643 On ch=4 n=7 v=100
1505246 Off ch=4 n=7 v=0
1508809 On ch=4 n=5 v=100
1509098 On ch=4 n=15 v=100
1509121 Off ch=4 n=5 v=0
1509127 On ch=4 n=6 v=100
1509371 Off ch=4 n=15 v=0
1509373 Off ch=4 n=6 v=0
1509375 On ch=4 n=5 v=100
1511681 Off ch=4 n=5 v=0
1511682 On ch=4 n=5 v=100
1512063 Off ch=4 n=5 v=0
1512073 On ch=4 n=7 v=100
1513074 Off ch=4 n=7 v=0
1522466 On ch=4 n=5 v=100
1522714 On ch=4 n=18 v=100
1523482 Off ch=4 n=5 v=0
1524139 Off ch=4 n=18 v=0
1525184 On ch=4 n=16 v=100
1525657 Off ch=4 n=16 v=0
1536635 On ch=4 n=21 v=100
1536694 Off ch=4 n=21 v=0
1548069 On ch=4 n=44 v=100
1548084 On ch=4 n=47 v=100
1548242 Off ch=4 n=44 v=0
1548285 Off ch=4 n=47 v=0
1548571 On ch=4 n=12 v=100
1548702 On ch=4 n=27 v=100
1548706 Off ch=4 n=12 v=0
1548721 On ch=4 n=22 v=100
1548834 Off ch=4 n=27 v=0
1548835 Off ch=4 n=22 v=0
1549009 On ch=4 n=15 v=100
1549200 Off ch=4 n=15 v=0
1552533 On ch=4 n=36 v=100
1552616 Off ch=4 n=36 v=0
1568946 On ch=4 n=6 v=100
1569018 Off ch=4 n=6 v=0
1589277 On ch=4 n=51 v=100
1589318 On ch=4 n=60 v=100
1589623 Off ch=4 n=51 v=0
1589661 Off ch=4 n=60 v=0
1594005 On ch=4 n=40 v=100
1594005 On ch=4 n=25 v=100
1594214 Off ch=4 n=25 v=0
1594270 Off ch=4 n=40 v=0
1596641 On ch=4 n=68 v=100
1596674 On ch=4 n=26 v=100
1596946 Off ch=4 n=68 v=0
1597090 Off ch=4 n=26 v=0
1597091 On ch=4 n=18 v=100
1597303 Off ch=4 n=18 v=0
1598239 On ch=4 n=26 v=100
1598805 Off ch=4 n=26 v=0
1598924 On ch=4 n=19 v=100
1598987 On ch=4 n=17 v=100
1599328 Off ch=4 n=19 v=0
1599424 Off ch=4 n=17 v=0
1599443 On ch=4 n=4 v=100
1599531 Off ch=4 n=4 v=0
1609540 On ch=4 n=25 v=100
1609562 On ch=4 n=26 v=100
1609716 Off ch=4 n=25 v=0
1610150 Off ch=4 n=26 v=0
1610489 On ch=4 n=11 v=100
1610841 Off ch=4 n=11 v=0
1611005 On ch=4 n=20 v=100
1611328 Off ch=4 n=20 v=0
1625569 On ch=4 n=19 v=100
1625719 Off ch=4 n=19 v=0
1625937 On ch=4 n=17 v=100
1626264 Off ch=4 n=17 v=0
1659101 On ch=4 n=2 v=100
1659329 Off ch=4 n=2 v=0
1659332 On ch=4 n=5 v=100
1660102 Off ch=4 n=5 v=0
1671229 On ch=4 n=28 v=100
1671361 Off ch=4 n=28 v=0
1671487 On ch=4 n=28 v=100
1671598 Off ch=4 n=28 v=0
1685990 On ch=4 n=19 v=100
1685999 On ch=4 n=10 v=100
1686057 Off ch=4 n=19 v=0
1686057 Off ch=4 n=10 v=0
1691018 On ch=4 n=30 v=100
1691371 Off ch=4 n=30 v=0
1735881 On ch=4 n=25 v=100
1736096 Off ch=4 n=25 v=0
1757759 On ch=4 n=37 v=100
1757818 Off ch=4 n=37 v=0
1787259 On ch=4 n=17 v=100
1787834 Off ch=4 n=17 v=0
1794282 On ch=4 n=40 v=100
1794699 Off ch=4 n=40 v=0
1803957 On ch=4 n=23 v=100
1804087 Off ch=4 n=23 v=0
1808088 On ch=4 n=15 v=100
1808303 On ch=4 n=14 v=100
1808333 Off ch=4 n=15 v=0
1808544 Off ch=4 n=14 v=0
1809400 On ch=4 n=19 v=100
1809503 Off ch=4 n=19 v=0
1819146 On ch=4 n=0 v=100
1820871 Off ch=4 n=0 v=0
1820873 On ch=4 n=0 v=100
1827555 Off ch=4 n=0 v=0
1827557 On ch=4 n=0 v=100
1829282 Off ch=4 n=0 v=0
1855477 On ch=4 n=46 v=100
1855509 On ch=4 n=18 v=100
1855545 Off ch=4 n=46 v=0
1855552 Off ch=4 n=18 v=0
1864355 On ch=4 n=26 v=100
1864544 Off ch=4 n=26 v=0
1870699 On ch=4 n=11 v=100
1871169 Off ch=4 n=11 v=0
1878827 On ch=4 n=17 v=100
1878946 On ch=4 n=50 v=100
1879229 Off ch=4 n=17 v=0
1879232 On ch=4 n=4 v=100
1880143 On ch=4 n=18 v=100
1880148 Off ch=4 n=50 v=0
1880149 Off ch=4 n=4 v=0
1880774 On ch=4 n=45 v=100
1880777 On ch=4 n=35 v=100
1880806 Off ch=4 n=18 v=0
1880809 On ch=4 n=17 v=100
1880870 Off ch=4 n=45 v=0
1880892 Off ch=4 n=35 v=0
1881212 Off ch=4 n=17 v=0
1895114 On ch=4 n=17 v=100
1895314 Off ch=4 n=17 v=0
1900397 On ch=4 n=19 v=100
1900825 Off ch=4 n=19 v=0
1917927 On ch=4 n=27 v=100
1917927 On ch=4 n=3 v=100
1918067 Off ch=4 n=3 v=0
1918140 Off ch=4 n=27 v=0
1939631 On ch=4 n=16 v=100
1939907 Off ch=4 n=16 v=0
1940816 On ch=4 n=30 v=100
1940816 On ch=4 n=19 v=100
1940873 Off ch=4 n=19 v=0
1940887 Off ch=4 n=30 v=0
1947595 On ch=4 n=47 v=100
1947713 Off ch=4 n=47 v=0
1949324 On ch=4 n=18 v=100
1949679 Off ch=4 n=18 v=0
1952845 On ch=4 n=3 v=100
1958893 Off ch=4 n=3 v=0
1968263 On ch=4 n=3 v=100
1968606 On ch=4 n=2 v=100
1968606 Off ch=4 n=3 v=0
1972071 Off ch=4 n=2 v=0
1972072 On ch=4 n=5 v=100
1973102 Off ch=4 n=5 v=0
1973107 On ch=4 n=5 v=100
1973645 On ch=4 n=25 v=100
1973686 Off ch=4 n=5 v=0
1973729 Off ch=4 n=25 v=0
1977890 On ch=4 n=7 v=100
1978283 On ch=4 n=11 v=100
1978419 Off ch=4 n=7 v=0
1981130 On ch=4 n=55 v=100
1981437 On ch=4 n=57 v=100
1982472 Off ch=4 n=11 v=0
1982625 Off ch=4 n=57 v=0
1982713 On ch=4 n=6 v=100
1982717 Off ch=4 n=55 v=0
1983218 Off ch=4 n=6 v=0
1989253 On ch=4 n=54 v=100
1989431 On ch=4 n=19 v=100
1989487 Off ch=4 n=54 v=0
1989702 Off ch=4 n=19 v=0
1991818 On ch=4 n=35 v=100
1992150 Off ch=4 n=35 v=0
2011502 On ch=4 n=21 v=100
2012001 Off ch=4 n=21 v=0
2013296 On ch=4 n=3 v=100
2013354 Off ch=4 n=3 v=0
2017462 On ch=4 n=33 v=100
2017505 Off ch=4 n=33 v=0
2018685 On ch=4 n=9 v=100
2018691 On ch=4 n=30 v=100
2018948 On ch=4 n=13 v=100
2018948 Off ch=4 n=9 v=0
2019043 Off ch=4 n=30 v=0
2019055 Off ch=4 n=13 v=0
2030960 On ch=4 n=8 v=100
2031035 Off ch=4 n=8 v=0
2033169 On ch=4 n=26 v=100
2033373 On ch=4 n=28 v=100
2033374 Off ch=4 n=26 v=0
2033458 Off ch=4 n=28 v=0
2050495 On ch=4 n=3 v=100
2055857 Off ch=4 n=3 v=0
2057375 On ch=4 n=19 v=100
2057714 Off ch=4 n=19 v=0
2061077 On ch=4 n=38 v=100
2061219 Off ch=4 n=38 v=0
2066600 On ch=4 n=5 v=100
2066617 On ch=4 n=2 v=100
2066675 Off ch=4 n=5 v=0
2072605 Off ch=4 n=2 v=0
2085840 On ch=4 n=26 v=100
2086313 Off ch=4 n=26 v=0
2097870 On ch=4 n=17 v=100
2098235 Off ch=4 n=17 v=0
2099116 On ch=4 n=23 v=100
2099407 Off ch=4 n=23 v=0
2100512 On ch=4 n=27 v=100
2100602 Off ch=4 n=27 v=0
2103735 On ch=4 n=11 v=100
2103858 On ch=4 n=46 v=100
2104206 Off ch=4 n=11 v=0
2104250 Off ch=4 n=46 v=0
2105573 On ch=4 n=13 v=100
2106003 On ch=4 n=33 v=100
2106162 Off ch=4 n=13 v=0
2106185 Off ch=4 n=33 v=0
2114806 On ch=4 n=18 v=100
2115248 Off ch=4 n=18 v=0
2130866 On ch=4 n=11 v=100
2131433 Off ch=4 n=11 v=0
2131475 On ch=4 n=12 v=100
2132669 Off ch=4 n=12 v=0
2132672 On ch=4 n=16 v=100
2132673 On ch=4 n=7 v=100
2132801 Off ch=4 n=7 v=0
2132809 On ch=4 n=20 v=100
2132816 Off ch=4 n=16 v=0
2133651 On ch=4 n=14 v=100
2134381 Off ch=4 n=20 v=0
2134489 Off ch=4 n=14 v=0
2135206 On ch=4 n=34 v=100
2135305 Off ch=4 n=34 v=0
2135379 On ch=4 n=38 v=100
2135467 Off ch=4 n=38 v=0
2147587 On ch=4 n=43 v=100
2147940 Off ch=4 n=43 v=0
2147995 On ch=4 n=23 v=100
2148145 Off ch=4 n=23 v=0
2151119 On ch=4 n=24 v=100
2151525 Off ch=4 n=24 v=0
2152771 On ch=4 n=30 v=100
2152778 On ch=4 n=21 v=100
2153134 Off ch=4 n=21 v=0
2153197 Off ch=4 n=30 v=0
2158602 On ch=4 n=24 v=100
2158798 Off ch=4 n=24 v=0
2171193 On ch=4 n=14 v=100
2171337 Off ch=4 n=14 v=0
2171400 On ch=4 n=10 v=100
2172686 Off ch=4 n=10 v=0
2172690 On ch=4 n=24 v=100
2173063 On ch=4 n=8 v=100
2173913 Off ch=4 n=24 v=0
2173914 On ch=4 n=12 v=100
2173914 Off ch=4 n=8 v=0
2174748 Off ch=4 n=12 v=0
2183693 On ch=4 n=28 v=100
2183733 On ch=4 n=20 v=100
2183945 Off ch=4 n=28 v=0
2183945 Off ch=4 n=20 v=0
2205158 On ch=4 n=13 v=100
2205169 On ch=4 n=3 v=100
2205227 Off ch=4 n=13 v=0
2211215 Off ch=4 n=3 v=0
2216645 On ch=4 n=39 v=100
2216846 Off ch=4 n=39 v=0
2216871 On ch=4 n=3 v=100
2217157 Off ch=4 n=3 v=0
2217173 On ch=4 n=1 v=100
2217832 Off ch=4 n=1 v=0
2217834 On ch=4 n=2 v=100
2218176 Off ch=4 n=2 v=0
2230612 On ch=4 n=17 v=100
2230837 Off ch=4 n=17 v=0
2230845 On ch=4 n=10 v=100
2230911 Off ch=4 n=10 v=0
2231174 On ch=4 n=18 v=100
2231249 Off ch=4 n=18 v=0
2242284 On ch=4 n=22 v=100
2242741 Off ch=4 n=22 v=0
2253439 On ch=4 n=33 v=100
2253672 Off ch=4 n=33 v=0
2254594 On ch=4 n=36 v=100
2254693 Off ch=4 n=36 v=0
2268645 On ch=4 n=33 v=100
2268645 On ch=4 n=23 v=100
2268830 Off ch=4 n=23 v=0
2268855 Off ch=4 n=33 v=0
2278665 On ch=4 n=34 v=100
2278843 Off ch=4 n=34 v=0
2281439 On ch=4 n=20 v=100
2281478 Off ch=4 n=20 v=0
2281653 On ch=4 n=20 v=100
2281653 On ch=4 n=35 v=100
2281671 Off ch=4 n=20 v=0
2281705 Off ch=4 n=35 v=0
2352304 On ch=4 n=27 v=100
2352354 On ch=4 n=27 v=100
2352424 Off ch=4 n=27 v=0
2352433 Off ch=4 n=27 v=0
2367540 On ch=4 n=6 v=100
2367639 Off ch=4 n=6 v=0
2377654 On ch=4 n=3 v=100
2378107 On ch=4 n=25 v=100
2378269 Off ch=4 n=3 v=0
2378294 Off ch=4 n=25 v=0
2382650 On ch=4 n=33 v=100
2382766 Off ch=4 n=33 v=0
2390722 On ch=4 n=43 v=100
2390826 Off ch=4 n=43 v=0
2391970 On ch=4 n=35 v=100
2392239 Off ch=4 n=35 v=0
2428422 On ch=4 n=25 v=100
2428552 Off ch=4 n=25 v=0
2436939 On ch=4 n=8 v=100
2438871 On ch=4 n=23 v=100
2439880 Off ch=4 n=8 v=0
2441713 Off ch=4 n=23 v=0
2441725 On ch=4 n=8 v=100
2442153 Off ch=4 n=8 v=0
2461241 On ch=4 n=22 v=100
2461368 Off ch=4 n=22 v=0
2480313 On ch=4 n=14 v=100
2480318 On ch=4 n=7 v=100
2480371 Off ch=4 n=7 v=0
2480373 On ch=4 n=12 v=100
2480373 Off ch=4 n=14 v=0
2480837 On ch=4 n=8 v=100
2480837 Off ch=4 n=12 v=0
2481171 Off ch=4 n=8 v=0
2487759 On ch=4 n=13 v=100
2487843 Off ch=4 n=13 v=0
2487844 On ch=4 n=11 v=100
2487945 Off ch=4 n=11 v=0
2490774 On ch=4 n=28 v=100
2490792 On ch=4 n=7 v=100
2490939 Off ch=4 n=28 v=0
2491264 Off ch=4 n=7 v=0
2515307 On ch=4 n=30 v=100
2515345 Off ch=4 n=30 v=0
2521948 On ch=4 n=36 v=100
2522079 Off ch=4 n=36 v=0
2524048 On ch=4 n=21 v=100
2524420 Off ch=4 n=21 v=0
2524925 On ch=4 n=14 v=100
2525022 Off ch=4 n=14 v=0
2538598 On ch=4 n=34 v=100
2538759 Off ch=4 n=34 v=0
2538777 On ch=4 n=19 v=100
2538813 Off ch=4 n=19 v=0
2538818 On ch=4 n=32 v=100
2538921 Off ch=4 n=32 v=0
2580677 On ch=4 n=49 v=100
2581106 Off ch=4 n=49 v=0
2590811 On ch=4 n=40 v=100
2590856 On ch=4 n=15 v=100
2590914 On ch=4 n=37 v=100
2590964 Off ch=4 n=40 v=0
2590966 On ch=4 n=25 v=100
2590969 On ch=4 n=17 v=100
2590976 On ch=4 n=6 v=100
2590976 Off ch=4 n=15 v=0
2590991 On ch=4 n=26 v=100
2591033 Off ch=4 n=37 v=0
2591039 Off ch=4 n=6 v=0
2591040 Off ch=4 n=17 v=0
2591055 Off ch=4 n=25 v=0
2591066 Off ch=4 n=26 v=0
2607331 On ch=4 n=33 v=100
2607749 Off ch=4 n=33 v=0
2666557 On ch=4 n=0 v=100
2667013 Off ch=4 n=0 v=0
2667015 On ch=4 n=0 v=100
2671308 On ch=4 n=0 v=100
2671339 Off ch=4 n=0 v=0
2671764 Off ch=4 n=0 v=0
2681145 On ch=4 n=15 v=100
2681856 Off ch=4 n=15 v=0
2699442 On ch=4 n=35 v=100
2699642 Off ch=4 n=35 v=0
2706229 On ch=4 n=29 v=100
2706402 Off ch=4 n=29 v=0
2706980 On ch=4 n=15 v=100
2707455 Off ch=4 n=15 v=0
2707457 On ch=4 n=17 v=100
2707815 On ch=4 n=4 v=100
2707832 On ch=4 n=49 v=100
2707872 Off ch=4 n=17 v=0
2707995 On ch=4 n=26 v=100
2708258 Off ch=4 n=4 v=0
2708302 On ch=4 n=25 v=100
2708343 On ch=4 n=4 v=100
2708350 Off ch=4 n=26 v=0
2708675 Off ch=4 n=25 v=0
2708813 On ch=4 n=4 v=100
2708875 Off ch=4 n=4 v=0
2709141 On ch=4 n=6 v=100
2709199 Off ch=4 n=4 v=0
2709356 Off ch=4 n=49 v=0
2709358 Off ch=4 n=6 v=0
2709361 On ch=4 n=14 v=100
2709836 Off ch=4 n=14 v=0
2711100 On ch=4 n=34 v=100
2711236 Off ch=4 n=34 v=0
2711419 On ch=4 n=3 v=100
2712927 On ch=4 n=3 v=100
2712927 Off ch=4 n=3 v=0
2713403 On ch=4 n=9 v=100
2714325 Off ch=4 n=3 v=0
2716583 On ch=4 n=12 v=100
2716634 Off ch=4 n=9 v=0
2716643 Off ch=4 n=12 v=0
2724203 On ch=4 n=10 v=100
2725063 On ch=4 n=6 v=100
2725075 Off ch=4 n=10 v=0
2725390 Off ch=4 n=6 v=0
2725938 On ch=4 n=6 v=100
2726031 Off ch=4 n=6 v=0
2726034 On ch=4 n=6 v=100
2726240 Off ch=4 n=6 v=0
2740719 On ch=4 n=7 v=100
2741219 On ch=4 n=20 v=100
2741298 Off ch=4 n=7 v=0
2741314 Off ch=4 n=20 v=0
2747786 On ch=4 n=44 v=100
2747969 Off ch=4 n=44 v=0
2752402 On ch=4 n=11 v=100
2752892 Off ch=4 n=11 v=0
2762779 On ch=4 n=1 v=100
2764649 On ch=4 n=0 v=100
2764650 Off ch=4 n=1 v=0
2764693 Off ch=4 n=0 v=0
2764695 On ch=4 n=7 v=100
2764992 Off ch=4 n=7 v=0
2765936 On ch=4 n=4 v=100
2767611 On ch=4 n=5 v=100
2767612 Off ch=4 n=4 v=0
2768680 On ch=4 n=19 v=100
2768681 Off ch=4 n=5 v=0
2768696 On ch=4 n=44 v=100
2769023 On ch=4 n=19 v=100
2769033 Off ch=4 n=19 v=0
2769045 On ch=4 n=11 v=100
2769185 On ch=4 n=5 v=100
2769187 Off ch=4 n=44 v=0
2769187 Off ch=4 n=19 v=0
2769187 Off ch=4 n=11 v=0
2769245 On ch=4 n=14 v=100
2769245 On ch=4 n=7 v=100
2769279 On ch=4 n=10 v=100
2769279 Off ch=4 n=5 v=0
2769317 Off ch=4 n=7 v=0
2769345 Off ch=4 n=14 v=0
2769479 Off ch=4 n=10 v=0
2769480 On ch=4 n=4 v=100
2771365 Off ch=4 n=4 v=0
2771369 On ch=4 n=2 v=100
2774977 Off ch=4 n=2 v=0
2778483 On ch=4 n=14 v=100
2778910 Off ch=4 n=14 v=0
2780768 On ch=4 n=35 v=100
2781110 On ch=4 n=18 v=100
2781564 Off ch=4 n=35 v=0
2781730 Off ch=4 n=18 v=0
2781753 On ch=4 n=34 v=100
2782053 Off ch=4 n=34 v=0
2783000 On ch=4 n=34 v=100
2783215 Off ch=4 n=34 v=0
2784760 On ch=4 n=17 v=100
2784832 Off ch=4 n=17 v=0
2789275 On ch=4 n=27 v=100
2789335 Off ch=4 n=27 v=0
2799986 On ch=4 n=1 v=100
2801758 On ch=4 n=0 v=100
2801758 Off ch=4 n=1 v=0
2802645 Off ch=4 n=0 v=0
2802647 On ch=4 n=0 v=100
2803308 On ch=4 n=7 v=100
2803365 Off ch=4 n=0 v=0
2803382 Off ch=4 n=7 v=0
2803708 On ch=4 n=9 v=100
2805117 On ch=4 n=3 v=100
2805118 Off ch=4 n=9 v=0
2805175 On ch=4 n=53 v=100
2805175 On ch=4 n=53 v=100
2805225 On ch=4 n=6 v=100
2805225 Off ch=4 n=3 v=0
2805291 On ch=4 n=16 v=100
2805291 Off ch=4 n=6 v=0
2805304 Off ch=4 n=53 v=0
2805304 Off ch=4 n=53 v=0
2806021 Off ch=4 n=16 v=0
2813536 On ch=4 n=45 v=100
2813574 On ch=4 n=44 v=100
2813702 Off ch=4 n=44 v=0
2813771 Off ch=4 n=45 v=0
2814949 On ch=4 n=32 v=100
2815069 Off ch=4 n=32 v=0
2825013 On ch=4 n=8 v=100
2825025 On ch=4 n=58 v=100
2825103 Off ch=4 n=8 v=0
2825149 On ch=4 n=7 v=100
2825321 Off ch=4 n=58 v=0
2825367 Off ch=4 n=7 v=0
2825375 On ch=4 n=20 v=100
2825424 Off ch=4 n=20 v=0
2825430 On ch=4 n=9 v=100
2829470 On ch=4 n=25 v=100
2829520 Off ch=4 n=9 v=0
2829522 On ch=4 n=15 v=100
2829537 Off ch=4 n=25 v=0
2829790 On ch=4 n=57 v=100
2829925 Off ch=4 n=15 v=0
2829971 Off ch=4 n=57 v=0
2833511 On ch=4 n=10 v=100
2833581 Off ch=4 n=10 v=0
2833584 On ch=4 n=31 v=100
2833675 Off ch=4 n=31 v=0
2833689 On ch=4 n=12 v=100
2835301 On ch=4 n=12 v=100
2835307 Off ch=4 n=12 v=0
2835994 Off ch=4 n=12 v=0
2835995 On ch=4 n=19 v=100
2836396 Off ch=4 n=19 v=0
2836398 On ch=4 n=12 v=100
2838009 On ch=4 n=20 v=100
2838009 Off ch=4 n=12 v=0
2838290 Off ch=4 n=20 v=0
2857018 On ch=4 n=4 v=100
2857717 On ch=4 n=40 v=100
2857817 Off ch=4 n=4 v=0
2857819 On ch=4 n=11 v=100
2857852 Off ch=4 n=40 v=0
2858252 On ch=4 n=2 v=100
2858455 On ch=4 n=13 v=100
2858554 Off ch=4 n=11 v=0
2858718 Off ch=4 n=2 v=0
2858723 On ch=4 n=10 v=100
2858825 Off ch=4 n=13 v=0
2859617 Off ch=4 n=10 v=0
2859625 On ch=4 n=5 v=100
2860413 Off ch=4 n=5 v=0
2880439 On ch=4 n=8 v=100
2880516 Off ch=4 n=8 v=0
2880519 On ch=4 n=13 v=100
2880559 Off ch=4 n=13 v=0
2880561 On ch=4 n=13 v=100
2880632 On ch=4 n=5 v=100
2880632 Off ch=4 n=13 v=0
2880671 Off ch=4 n=5 v=0
2889498 On ch=4 n=36 v=100
2889669 Off ch=4 n=36 v=0
2889680 On ch=4 n=24 v=100
2890013 Off ch=4 n=24 v=0
2902346 On ch=4 n=40 v=100
2902477 Off ch=4 n=40 v=0
2918730 On ch=4 n=43 v=100
2918783 Off ch=4 n=43 v=0
2924548 On ch=4 n=4 v=100
2925335 Off ch=4 n=4 v=0
2925424 On ch=4 n=0 v=100
2929473 Off ch=4 n=0 v=0
2929475 On ch=4 n=3 v=100
2930262 Off ch=4 n=3 v=0
2952483 On ch=4 n=13 v=100
2952531 Off ch=4 n=13 v=0
2954166 On ch=4 n=43 v=100
2954503 Off ch=4 n=43 v=0
2960631 On ch=4 n=29 v=100
2960791 Off ch=4 n=29 v=0
2967890 On ch=4 n=36 v=100
2967979 Off ch=4 n=36 v=0
2970712 On ch=4 n=25 v=100
2970712 On ch=4 n=25 v=100
2971061 On ch=4 n=32 v=100
2971069 On ch=4 n=33 v=100
2971110 Off ch=4 n=25 v=0
2971110 Off ch=4 n=25 v=0
2971210 Off ch=4 n=32 v=0
2971230 Off ch=4 n=33 v=0
3073215 On ch=4 n=28 v=100
3073628 Off ch=4 n=28 v=0
3078455 On ch=4 n=31 v=100
3078519 Off ch=4 n=31 v=0
3080661 On ch=4 n=21 v=100
3080932 Off ch=4 n=21 v=0
3084550 On ch=4 n=11 v=100
3084945 Off ch=4 n=11 v=0
3090070 On ch=4 n=19 v=100
3090142 Off ch=4 n=19 v=0
3091148 On ch=4 n=31 v=100
3091231 Off ch=4 n=31 v=0
3091317 On ch=4 n=31 v=100
3091456 Off ch=4 n=31 v=0
3097734 On ch=4 n=26 v=100
3097808 Off ch=4 n=26 v=0
3117371 On ch=4 n=38 v=100
3117468 On ch=4 n=37 v=100
3117501 Off ch=4 n=38 v=0
3117762 Off ch=4 n=37 v=0
3119579 On ch=4 n=28 v=100
3119669 Off ch=4 n=28 v=0
3122034 On ch=4 n=10 v=100
3122417 Off ch=4 n=10 v=0
3122419 On ch=4 n=2 v=100
3122940 Off ch=4 n=2 v=0
3122941 On ch=4 n=2 v=100
3125611 On ch=4 n=2 v=100
3125611 Off ch=4 n=2 v=0
3126314 Off ch=4 n=2 v=0
3126318 On ch=4 n=10 v=100
3126701 Off ch=4 n=10 v=0
3131215 On ch=4 n=61 v=100
3131495 Off ch=4 n=61 v=0
3152544 On ch=4 n=11 v=100
3152798 Off ch=4 n=11 v=0
3163833 On ch=4 n=19 v=100
3164198 Off ch=4 n=19 v=0
3169873 On ch=4 n=39 v=100
3170003 Off ch=4 n=39 v=0
3180319 On ch=4 n=25 v=100
3180386 Off ch=4 n=25 v=0
3207728 On ch=4 n=29 v=100
3208087 Off ch=4 n=29 v=0
3216669 On ch=4 n=24 v=100
3216914 Off ch=4 n=24 v=0
3249099 On ch=4 n=11 v=100
3249182 Off ch=4 n=11 v=0
3254451 On ch=4 n=32 v=100
3254499 Off ch=4 n=32 v=0
3277260 On ch=4 n=45 v=100
3277360 On ch=4 n=10 v=100
3277365 Off ch=4 n=45 v=0
3277908 Off ch=4 n=10 v=0
3319551 On ch=4 n=8 v=100
3320086 Off ch=4 n=8 v=0
3344134 On ch=4 n=22 v=100
3344203 Off ch=4 n=22 v=0
3363791 On ch=4 n=7 v=100
3363982 Off ch=4 n=7 v=0
3425713 On ch=4 n=3 v=100
3431748 Off ch=4 n=3 v=0
3458504 On ch=4 n=8 v=100
3458901 Off ch=4 n=8 v=0
3461000 On ch=4 n=14 v=100
3461830 Off ch=4 n=14 v=0
3467086 On ch=4 n=72 v=100
3467366 Off ch=4 n=72 v=0
3495335 On ch=4 n=31 v=100
3495512 Off ch=4 n=31 v=0
3507883 On ch=4 n=19 v=100
3508399 Off ch=4 n=19 v=0
3508728 On ch=4 n=14 v=100
3508943 Off ch=4 n=14 v=0
3511232 On ch=4 n=6 v=100
3511432 Off ch=4 n=6 v=0
3557819 On ch=4 n=34 v=100
3557879 On ch=4 n=30 v=100
3558070 Off ch=4 n=30 v=0
3558072 Off ch=4 n=34 v=0
3624379 On ch=4 n=12 v=100
3624412 Off ch=4 n=12 v=0
3628912 On ch=4 n=36 v=100
3628997 Off ch=4 n=36 v=0
3634555 On ch=4 n=14 v=100
3634729 Off ch=4 n=14 v=0
3634802 On ch=4 n=27 v=100
3634802 On ch=4 n=14 v=100
3634814 Off ch=4 n=14 v=0
3634891 On ch=4 n=30 v=100
3634904 On ch=4 n=10 v=100
3634922 Off ch=4 n=27 v=0
3634999 Off ch=4 n=30 v=0
3635075 On ch=4 n=29 v=100
3635119 Off ch=4 n=10 v=0
3635261 Off ch=4 n=29 v=0
3636439 On ch=4 n=14 v=100
3636642 Off ch=4 n=14 v=0
3639591 On ch=4 n=12 v=100
3640006 Off ch=4 n=12 v=0
3654520 On ch=4 n=27 v=100
3654579 Off ch=4 n=27 v=0
3654648 On ch=4 n=27 v=100
3654678 Off ch=4 n=27 v=0
3664248 On ch=4 n=52 v=100
3664975 Off ch=4 n=52 v=0
3664992 On ch=4 n=33 v=100
3665757 Off ch=4 n=33 v=0
3666555 On ch=4 n=23 v=100
3666957 Off ch=4 n=23 v=0
3694628 On ch=4 n=6 v=100
3694804 Off ch=4 n=6 v=0
3694838 On ch=4 n=6 v=100
3696048 On ch=4 n=43 v=100
3696257 Off ch=4 n=6 v=0
3696377 Off ch=4 n=43 v=0
3705658 On ch=4 n=29 v=100
3705712 Off ch=4 n=29 v=0
3707563 On ch=4 n=21 v=100
3707662 Off ch=4 n=21 v=0
3735665 On ch=4 n=5 v=100
3735704 Off ch=4 n=5 v=0
3755823 On ch=4 n=18 v=100
3755962 Off ch=4 n=18 v=0
3758315 On ch=4 n=37 v=100
3758374 Off ch=4 n=37 v=0
3788355 On ch=4 n=6 v=100
3788845 On ch=4 n=29 v=100
3788983 Off ch=4 n=6 v=0
3789001 Off ch=4 n=29 v=0
3789647 On ch=4 n=34 v=100
3789700 Off ch=4 n=34 v=0
3806988 On ch=4 n=39 v=100
3807216 Off ch=4 n=39 v=0
3831551 On ch=4 n=32 v=100
3831562 On ch=4 n=38 v=100
3831663 Off ch=4 n=32 v=0
3831681 Off ch=4 n=38 v=0
3831696 On ch=4 n=29 v=100
3831777 Off ch=4 n=29 v=0
3842143 On ch=4 n=16 v=100
3842257 Off ch=4 n=16 v=0
3843588 On ch=4 n=15 v=100
3843765 Off ch=4 n=15 v=0
3843781 On ch=4 n=20 v=100
3843881 Off ch=4 n=20 v=0
3850020 On ch=4 n=2 v=100
3851755 On ch=4 n=2 v=100
3851756 Off ch=4 n=2 v=0
3853402 Off ch=4 n=2 v=0
3853422 On ch=4 n=4 v=100
3854076 Off ch=4 n=4 v=0
3854399 On ch=4 n=38 v=100
3854459 Off ch=4 n=38 v=0
3856519 On ch=4 n=21 v=100
3856624 Off ch=4 n=21 v=0
3864337 On ch=4 n=15 v=100
3864795 Off ch=4 n=15 v=0
3867719 On ch=4 n=6 v=100
3868289 Off ch=4 n=6 v=0
3869017 On ch=4 n=6 v=100
3869380 Off ch=4 n=6 v=0
3881735 On ch=4 n=9 v=100
3882184 On ch=4 n=6 v=100
3882185 Off ch=4 n=9 v=0
3882231 Off ch=4 n=6 v=0
3882651 On ch=4 n=35 v=100
3883062 Off ch=4 n=35 v=0
3886604 On ch=4 n=11 v=100
3887063 Off ch=4 n=11 v=0
3889793 On ch=4 n=21 v=100
3890048 Off ch=4 n=21 v=0
3890235 On ch=4 n=46 v=100
3890244 On ch=4 n=34 v=100
3890307 Off ch=4 n=46 v=0
3890360 Off ch=4 n=34 v=0
3890722 On ch=4 n=21 v=100
3890789 On ch=4 n=20 v=100
3890962 Off ch=4 n=21 v=0
3890983 Off ch=4 n=20 v=0
3910957 On ch=4 n=6 v=100
3911146 Off ch=4 n=6 v=0
3940373 On ch=4 n=40 v=100
3940435 Off ch=4 n=40 v=0
3941131 On ch=4 n=38 v=100
3941276 Off ch=4 n=38 v=0
3960177 On ch=4 n=13 v=100
3960686 Off ch=4 n=13 v=0
3978790 On ch=4 n=33 v=100
3979081 Off ch=4 n=33 v=0
3982359 On ch=4 n=7 v=100
3982766 Off ch=4 n=7 v=0
3982768 On ch=4 n=8 v=100
3982929 Off ch=4 n=8 v=0
3984152 On ch=4 n=10 v=100
3984536 Off ch=4 n=10 v=0
3987685 On ch=4 n=24 v=100
3987737 Off ch=4 n=24 v=0
3987746 On ch=4 n=24 v=100
3988252 Off ch=4 n=24 v=0
3988440 On ch=4 n=28 v=100
3988441 On ch=4 n=9 v=100
3988518 Off ch=4 n=9 v=0
3988528 Off ch=4 n=28 v=0
3991978 On ch=4 n=29 v=100
3992154 Off ch=4 n=29 v=0
3992394 On ch=4 n=11 v=100
3992540 Off ch=4 n=11 v=0
3993117 On ch=4 n=12 v=100
3993253 On ch=4 n=21 v=100
3993257 Off ch=4 n=12 v=0
3993522 Off ch=4 n=21 v=0
3993525 On ch=4 n=17 v=100
3995238 On ch=4 n=27 v=100
3995479 Off ch=4 n=17 v=0
3995480 On ch=4 n=19 v=100
3996016 On ch=4 n=13 v=100
3996016 Off ch=4 n=27 v=0
3996016 Off ch=4 n=19 v=0
3996055 Off ch=4 n=13 v=0
3997499 On ch=4 n=0 v=100
3997508 On ch=4 n=0 v=100
3997539 Off ch=4 n=0 v=0
3997964 Off ch=4 n=0 v=0
3997966 On ch=4 n=1 v=100
4002260 On ch=4 n=0 v=100
4002291 Off ch=4 n=1 v=0
4002716 Off ch=4 n=0 v=0
4010238 On ch=4 n=28 v=100
4010538 On ch=4 n=4 v=100
4010542 Off ch=4 n=28 v=0
4010793 Off ch=4 n=4 v=0
4019028 On ch=4 n=22 v=100
4019507 Off ch=4 n=22 v=0
4022182 On ch=4 n=14 v=100
4022210 On ch=4 n=3 v=100
4022257 Off ch=4 n=14 v=0
4025892 Off ch=4 n=3 v=0
4027220 On ch=4 n=16 v=100
4028162 On ch=4 n=8 v=100
4028164 Off ch=4 n=16 v=0
4028738 Off ch=4 n=8 v=0
4028739 On ch=4 n=15 v=100
4029110 Off ch=4 n=15 v=0
4029182 On ch=4 n=15 v=100
4029822 Off ch=4 n=15 v=0
4029825 On ch=4 n=27 v=100
4031091 Off ch=4 n=27 v=0
4031092 On ch=4 n=8 v=100
4031345 Off ch=4 n=8 v=0
4031348 On ch=4 n=13 v=100
4031489 On ch=4 n=16 v=100
4031493 Off ch=4 n=13 v=0
4031763 Off ch=4 n=16 v=0
4035042 On ch=4 n=8 v=100
4035199 Off ch=4 n=8 v=0
4036950 On ch=4 n=37 v=100
4037179 Off ch=4 n=37 v=0
4040367 On ch=4 n=19 v=100
4040675 Off ch=4 n=19 v=0
4043595 On ch=4 n=16 v=100
4043621 On ch=4 n=16 v=100
4043779 Off ch=4 n=16 v=0
4043779 Off ch=4 n=16 v=0
4052244 On ch=4 n=32 v=100
4052328 On ch=4 n=41 v=100
4052329 Off ch=4 n=32 v=0
4052660 Off ch=4 n=41 v=0
4076312 On ch=4 n=44 v=100
4076508 Off ch=4 n=44 v=0
4088812 On ch=4 n=85 v=100
4088990 Off ch=4 n=85 v=0
4111998 On ch=4 n=32 v=100
4112019 On ch=4 n=16 v=100
4112158 Off ch=4 n=32 v=0
4112555 Off ch=4 n=16 v=0
4129267 On ch=4 n=45 v=100
4129412 Off ch=4 n=45 v=0
4129443 On ch=4 n=45 v=100
4129553 Off ch=4 n=45 v=0
4179431 On ch=4 n=25 v=100
4179677 Off ch=4 n=25 v=0
4191096 On ch=4 n=37 v=100
4191532 Off ch=4 n=37 v=0
4192100 On ch=4 n=40 v=100
4192123 On ch=4 n=12 v=100
4192187 Off ch=4 n=40 v=0
4192578 Off ch=4 n=12 v=0
4192919 On ch=4 n=8 v=100
4193379 Off ch=4 n=8 v=0
4193978 On ch=4 n=6 v=100
4194715 On ch=4 n=45 v=100
4194786 Off ch=4 n=6 v=0
4194790 On ch=4 n=2 v=100
4194875 Off ch=4 n=45 v=0
4195230 On ch=4 n=1 v=100
4195464 On ch=4 n=7 v=100
4195476 Off ch=4 n=2 v=0
4195683 On ch=4 n=15 v=100
4195728 Off ch=4 n=1 v=0
4195729 On ch=4 n=2 v=100
4195847 Off ch=4 n=7 v=0
4196039 Off ch=4 n=15 v=0
4196387 On ch=4 n=42 v=100
4196443 Off ch=4 n=2 v=0
4196445 On ch=4 n=6 v=100
4196474 Off ch=4 n=42 v=0
4197253 Off ch=4 n=6 v=0
4203593 On ch=4 n=19 v=100
4204045 Off ch=4 n=19 v=0
4204047 On ch=4 n=13 v=100
4204636 On ch=4 n=25 v=100
4204636 Off ch=4 n=13 v=0
4204787 Off ch=4 n=25 v=0
4205094 On ch=4 n=19 v=100
4205372 Off ch=4 n=19 v=0
4205383 On ch=4 n=16 v=100
4205490 Off ch=4 n=16 v=0
4206370 On ch=4 n=54 v=100
4206428 On ch=4 n=32 v=100
4206457 Off ch=4 n=54 v=0
4206462 On ch=4 n=10 v=100
4206525 Off ch=4 n=32 v=0
4206620 Off ch=4 n=10 v=0
4206891 On ch=4 n=30 v=100
4207296 Off ch=4 n=30 v=0
4207318 On ch=4 n=22 v=100
4207406 Off ch=4 n=22 v=0
4213069 On ch=4 n=15 v=100
4213250 Off ch=4 n=15 v=0
4213296 On ch=4 n=15 v=100
4213365 Off ch=4 n=15 v=0
4215614 On ch=4 n=11 v=100
4215641 On ch=4 n=7 v=100
4215740 Off ch=4 n=7 v=0
4215742 Off ch=4 n=11 v=0
4216234 On ch=4 n=61 v=100
4217271 Off ch=4 n=61 v=0
4217277 On ch=4 n=56 v=100
4217277 On ch=4 n=50 v=100
4217635 Off ch=4 n=50 v=0
4217806 Off ch=4 n=56 v=0
4219960 On ch=4 n=15 v=100
4220095 Off ch=4 n=15 v=0
4232661 On ch=4 n=15 v=100
4232947 Off ch=4 n=15 v=0
4234058 On ch=4 n=23 v=100
4234144 Off ch=4 n=23 v=0
4245154 On ch=4 n=1 v=100
4245508 Off ch=4 n=1 v=0
4245510 On ch=4 n=0 v=100
4252210 Off ch=4 n=0 v=0
4252212 On ch=4 n=1 v=100
4252567 Off ch=4 n=1 v=0
4256213 On ch=4 n=27 v=100
4256319 Off ch=4 n=27 v=0
4257439 On ch=4 n=39 v=100
4257622 Off ch=4 n=39 v=0
4262025 On ch=4 n=27 v=100
4262131 Off ch=4 n=27 v=0
4263251 On ch=4 n=39 v=100
4263434 Off ch=4 n=39 v=0
4266115 On ch=4 n=1 v=100
4266286 Off ch=4 n=1 v=0
4266288 On ch=4 n=1 v=100
4269077 Off ch=4 n=1 v=0
4269079 On ch=4 n=4 v=100
4270003 Off ch=4 n=4 v=0
4270006 On ch=4 n=0 v=100
4275060 Off ch=4 n=0 v=0
4275062 On ch=4 n=4 v=100
4275985 On ch=4 n=0 v=100
4275986 Off ch=4 n=4 v=0
4277207 Off ch=4 n=0 v=0
4277209 On ch=4 n=2 v=100
4277380 Off ch=4 n=2 v=0
4288283 On ch=4 n=5 v=100
4288730 Off ch=4 n=5 v=0
4288731 On ch=4 n=5 v=100
4288787 Off ch=4 n=5 v=0
4316366 On ch=4 n=2 v=100
4316644 Off ch=4 n=2 v=0
4318338 On ch=4 n=1 v=100
4318505 Off ch=4 n=1 v=0
4318507 On ch=4 n=17 v=100
4318636 Off ch=4 n=17 v=0
4324842 On ch=4 n=0 v=100
4325016 Off ch=4 n=0 v=0
4325018 On ch=4 n=0 v=100
4329206 Off ch=4 n=0 v=0
4329208 On ch=4 n=0 v=100
4329382 Off ch=4 n=0 v=0
4339295 On ch=4 n=17 v=100
4339491 Off ch=4 n=17 v=0
4341611 On ch=4 n=21 v=100
4341841 Off ch=4 n=21 v=0
4349441 On ch=4 n=3 v=100
4349719 Off ch=4 n=3 v=0
4352600 On ch=4 n=19 v=100
4352702 Off ch=4 n=19 v=0
4355325 On ch=4 n=1 v=100
4355492 Off ch=4 n=1 v=0
4355494 On ch=4 n=11 v=100
4355596 Off ch=4 n=11 v=0
4357318 On ch=4 n=17 v=100
4357513 Off ch=4 n=17 v=0
4359654 On ch=4 n=22 v=100
4359886 Off ch=4 n=22 v=0
4378804 On ch=4 n=23 v=100
4378868 Off ch=4 n=23 v=0
4385278 On ch=4 n=2 v=100
4385556 Off ch=4 n=2 v=0
4387254 On ch=4 n=1 v=100
4387421 Off ch=4 n=1 v=0
4387423 On ch=4 n=11 v=100
4387525 Off ch=4 n=11 v=0
4389256 On ch=4 n=16 v=100
4389452 Off ch=4 n=16 v=0
4391592 On ch=4 n=21 v=100
4391822 Off ch=4 n=21 v=0
4397481 On ch=4 n=23 v=100
4397545 Off ch=4 n=23 v=0
4398627 On ch=4 n=8 v=100
4400038 Off ch=4 n=8 v=0
4405770 On ch=4 n=3 v=100
4405882 Off ch=4 n=3 v=0
4410455 On ch=4 n=17 v=100
4410671 Off ch=4 n=17 v=0
4411920 On ch=4 n=22 v=100
4412149 Off ch=4 n=22 v=0
4422074 On ch=4 n=3 v=100
4422343 Off ch=4 n=3 v=0
4424029 On ch=4 n=1 v=100
4424195 Off ch=4 n=1 v=0
4424197 On ch=4 n=19 v=100
4424318 Off ch=4 n=19 v=0
4446561 On ch=4 n=17 v=100
4446757 Off ch=4 n=17 v=0
4448895 On ch=4 n=22 v=100
4449126 Off ch=4 n=22 v=0
4455910 On ch=4 n=8 v=100
4457315 Off ch=4 n=8 v=0
4463179 On ch=4 n=3 v=100
4463291 Off ch=4 n=3 v=0
4469948 On ch=4 n=3 v=100
4470331 Off ch=4 n=3 v=0
4471371 On ch=4 n=21 v=100
4471567 Off ch=4 n=21 v=0
4472629 On ch=4 n=21 v=100
4472691 Off ch=4 n=21 v=0
4472729 On ch=4 n=21 v=100
4472861 Off ch=4 n=21 v=0
4480318 On ch=4 n=1 v=100
4480596 Off ch=4 n=1 v=0
4482284 On ch=4 n=2 v=100
4482451 Off ch=4 n=2 v=0
4482453 On ch=4 n=19 v=100
4482574 Off ch=4 n=19 v=0
4485091 On ch=4 n=3 v=100
4491298 Off ch=4 n=3 v=0
4497251 On ch=4 n=22 v=100
4497482 Off ch=4 n=22 v=0
4510223 On ch=4 n=4 v=100
4510335 Off ch=4 n=4 v=0
4513550 On ch=4 n=15 v=100
4513766 Off ch=4 n=15 v=0
4515019 On ch=4 n=20 v=100
4515080 Off ch=4 n=20 v=0
4515116 On ch=4 n=20 v=100
4515247 Off ch=4 n=20 v=0
4521392 On ch=4 n=2 v=100
4522002 Off ch=4 n=2 v=0
4522784 On ch=4 n=5 v=100
4523392 Off ch=4 n=5 v=0
4533293 On ch=4 n=5 v=100
4533371 Off ch=4 n=5 v=0
4534601 On ch=4 n=5 v=100
4534848 Off ch=4 n=5 v=0
4534850 On ch=4 n=3 v=100
4535614 On ch=4 n=4 v=100
4535614 Off ch=4 n=3 v=0
4537723 Off ch=4 n=4 v=0
4538567 On ch=4 n=4 v=100
4539871 Off ch=4 n=4 v=0
4543686 On ch=4 n=1 v=100
4543853 Off ch=4 n=1 v=0
4543855 On ch=4 n=18 v=100
4543984 Off ch=4 n=18 v=0
4545682 On ch=4 n=16 v=100
4545877 Off ch=4 n=16 v=0
4548010 On ch=4 n=19 v=100
4548172 Off ch=4 n=19 v=0
4548893 On ch=4 n=31 v=100
4548954 Off ch=4 n=31 v=0
4572242 On ch=4 n=21 v=100
4572330 Off ch=4 n=21 v=0
4582658 On ch=4 n=17 v=100
4582733 Off ch=4 n=17 v=0
4584178 On ch=4 n=5 v=100
4584229 Off ch=4 n=5 v=0
4589554 On ch=4 n=23 v=100
4589618 Off ch=4 n=23 v=0
4590314 On ch=4 n=10 v=100
4590479 Off ch=4 n=10 v=0
4590507 On ch=4 n=10 v=100
4590607 Off ch=4 n=10 v=0
4592181 On ch=4 n=2 v=100
4592459 Off ch=4 n=2 v=0
4600924 On ch=4 n=2 v=100
4601091 Off ch=4 n=2 v=0
4601093 On ch=4 n=10 v=100
4601180 Off ch=4 n=10 v=0
4602913 On ch=4 n=17 v=100
4603109 Off ch=4 n=17 v=0
4605114 On ch=4 n=20 v=100
4605298 Off ch=4 n=20 v=0
4606023 On ch=4 n=28 v=100
4606084 Off ch=4 n=28 v=0
4616197 On ch=4 n=19 v=100
4616261 Off ch=4 n=19 v=0
4619708 On ch=4 n=21 v=100
4619796 Off ch=4 n=21 v=0
4629275 On ch=4 n=17 v=100
4629350 Off ch=4 n=17 v=0
4632158 On ch=4 n=7 v=100
4632211 Off ch=4 n=7 v=0
4636711 On ch=4 n=3 v=100
4642748 Off ch=4 n=3 v=0
4652713 On ch=4 n=3 v=100
4653416 On ch=4 n=4 v=100
4653417 Off ch=4 n=3 v=0
4654228 On ch=4 n=2 v=100
4654232 Off ch=4 n=4 v=0
4658295 Off ch=4 n=2 v=0
4660180 On ch=4 n=3 v=100
4660329 On ch=4 n=7 v=100
4660329 Off ch=4 n=3 v=0
4660477 On ch=4 n=3 v=100
4660480 Off ch=4 n=7 v=0
4660621 On ch=4 n=26 v=100
4660630 Off ch=4 n=3 v=0
4660859 Off ch=4 n=26 v=0
4664951 On ch=4 n=59 v=100
4665226 Off ch=4 n=59 v=0
4667094 On ch=4 n=19 v=100
4667352 Off ch=4 n=19 v=0
4668555 On ch=4 n=19 v=100
4668846 Off ch=4 n=19 v=0
4680352 On ch=4 n=2 v=100
4680519 Off ch=4 n=2 v=0
4680521 On ch=4 n=12 v=100
4680623 Off ch=4 n=12 v=0
4686294 On ch=4 n=9 v=100
4686825 Off ch=4 n=9 v=0
4688671 On ch=4 n=19 v=100
4688880 Off ch=4 n=19 v=0
4689067 On ch=4 n=9 v=100
4689126 Off ch=4 n=9 v=0
4691217 On ch=4 n=22 v=100
4691434 Off ch=4 n=22 v=0
4707555 On ch=4 n=3 v=100
4707722 Off ch=4 n=3 v=0
4707724 On ch=4 n=12 v=100
4707826 Off ch=4 n=12 v=0
4712862 On ch=4 n=58 v=100
4713136 Off ch=4 n=58 v=0
4717162 On ch=4 n=21 v=100
4717408 Off ch=4 n=21 v=0
4718677 On ch=4 n=23 v=100
4718738 Off ch=4 n=23 v=0
4718785 On ch=4 n=23 v=100
4718915 Off ch=4 n=23 v=0
4719278 On ch=4 n=43 v=100
4719415 Off ch=4 n=43 v=0
4734282 On ch=4 n=3 v=100
4735671 Off ch=4 n=3 v=0
4738864 On ch=4 n=0 v=100
4739039 Off ch=4 n=0 v=0
4742929 On ch=4 n=0 v=100
4747117 Off ch=4 n=0 v=0
4747119 On ch=4 n=0 v=100
4747294 Off ch=4 n=0 v=0
4748760 On ch=4 n=4 v=100
4748927 Off ch=4 n=4 v=0
4748929 On ch=4 n=19 v=100
4749052 Off ch=4 n=19 v=0
4749780 On ch=4 n=2 v=100
4750171 On ch=4 n=7 v=100
4750676 Off ch=4 n=2 v=0
4754992 On ch=4 n=2 v=100
4755205 Off ch=4 n=7 v=0
4755889 Off ch=4 n=2 v=0
4756867 On ch=4 n=15 v=100
4757083 Off ch=4 n=15 v=0
4758318 On ch=4 n=20 v=100
4758379 Off ch=4 n=20 v=0
4758419 On ch=4 n=20 v=100
4758550 Off ch=4 n=20 v=0
4764730 On ch=4 n=25 v=100
4764794 Off ch=4 n=25 v=0
4779693 On ch=4 n=6 v=100
4779753 Off ch=4 n=6 v=0
4794220 On ch=4 n=19 v=100
4794501 Off ch=4 n=19 v=0
4818249 On ch=4 n=38 v=100
4818459 Off ch=4 n=38 v=0
4825032 On ch=4 n=32 v=100
4825078 Off ch=4 n=32 v=0
4825197 On ch=4 n=32 v=100
4825246 Off ch=4 n=32 v=0
4848453 On ch=4 n=35 v=100
4848459 On ch=4 n=22 v=100
4848562 Off ch=4 n=22 v=0
4848569 Off ch=4 n=35 v=0
4877695 On ch=4 n=70 v=100
4877717 Off ch=4 n=70 v=0
4877825 On ch=4 n=70 v=100
4878072 Off ch=4 n=70 v=0
4894572 On ch=4 n=34 v=100
4894696 Off ch=4 n=34 v=0
4901769 On ch=4 n=54 v=100
4901901 Off ch=4 n=54 v=0
4926346 On ch=4 n=33 v=100
4926431 On ch=4 n=17 v=100
4926448 Off ch=4 n=33 v=0
4926534 Off ch=4 n=17 v=0
4929707 On ch=4 n=0 v=100
4930238 On ch=4 n=0 v=100
4930242 Off ch=4 n=0 v=0
4931148 Off ch=4 n=0 v=0
4939572 On ch=4 n=2 v=100
4945651 Off ch=4 n=2 v=0
4947442 On ch=4 n=33 v=100
4947768 Off ch=4 n=33 v=0
4994336 On ch=4 n=10 v=100
4994528 Off ch=4 n=10 v=0
4994530 On ch=4 n=5 v=100
4994569 Off ch=4 n=5 v=0
4994575 On ch=4 n=13 v=100
4994766 Off ch=4 n=13 v=0
5052434 On ch=4 n=19 v=100
5052577 Off ch=4 n=19 v=0
5066526 On ch=4 n=2 v=100
5068079 Off ch=4 n=2 v=0
5068080 On ch=4 n=1 v=100
5068954 On ch=4 n=3 v=100
5068955 Off ch=4 n=1 v=0
5069820 On ch=4 n=3 v=100
5069820 Off ch=4 n=3 v=0
5070613 Off ch=4 n=3 v=0
5073738 On ch=4 n=11 v=100
5074431 Off ch=4 n=11 v=0
5075632 On ch=4 n=11 v=100
5075807 Off ch=4 n=11 v=0
5076929 On ch=4 n=3 v=100
5077528 On ch=4 n=3 v=100
5077528 Off ch=4 n=3 v=0
5082687 Off ch=4 n=3 v=0
5093526 On ch=4 n=21 v=100
5093582 Off ch=4 n=21 v=0
5094045 On ch=4 n=27 v=100
5094045 On ch=4 n=17 v=100
5094207 Off ch=4 n=17 v=0
5094228 Off ch=4 n=27 v=0
5094233 On ch=4 n=27 v=100
5095027 Off ch=4 n=27 v=0
5095031 On ch=4 n=23 v=100
5095033 On ch=4 n=39 v=100
5095483 Off ch=4 n=23 v=0
5095588 On ch=4 n=28 v=100
5095778 Off ch=4 n=39 v=0
5095781 On ch=4 n=17 v=100
5096317 On ch=4 n=24 v=100
5096322 Off ch=4 n=28 v=0
5096322 Off ch=4 n=17 v=0
5097272 On ch=4 n=27 v=100
5097279 Off ch=4 n=24 v=0
5097983 Off ch=4 n=27 v=0
5101504 On ch=4 n=2 v=100
5101960 On ch=4 n=5 v=100
5101962 Off ch=4 n=2 v=0
5102278 Off ch=4 n=5 v=0
5102279 On ch=4 n=5 v=100
5103022 On ch=4 n=13 v=100
5103242 On ch=4 n=7 v=100
5103247 Off ch=4 n=5 v=0
5103275 Off ch=4 n=13 v=0
5104156 On ch=4 n=16 v=100
5104210 Off ch=4 n=7 v=0
5104218 On ch=4 n=48 v=100
5104491 On ch=4 n=10 v=100
5104493 Off ch=4 n=16 v=0
5104564 Off ch=4 n=48 v=0
5105449 On ch=4 n=47 v=100
5105656 On ch=4 n=15 v=100
5105960 Off ch=4 n=10 v=0
5106025 Off ch=4 n=15 v=0
5106030 Off ch=4 n=47 v=0
5116732 On ch=4 n=11 v=100
5117397 Off ch=4 n=11 v=0
5118824 On ch=4 n=11 v=100
5118996 Off ch=4 n=11 v=0
5128330 On ch=4 n=12 v=100
5131716 On ch=4 n=26 v=100
5131721 Off ch=4 n=12 v=0
5131835 Off ch=4 n=26 v=0
5131837 On ch=4 n=18 v=100
5132441 Off ch=4 n=18 v=0
5132891 On ch=4 n=12 v=100
5133900 Off ch=4 n=12 v=0
5133902 On ch=4 n=14 v=100
5134386 On ch=4 n=46 v=100
5134457 Off ch=4 n=14 v=0
5134549 On ch=4 n=14 v=100
5134558 Off ch=4 n=46 v=0
5135092 On ch=4 n=18 v=100
5135101 Off ch=4 n=14 v=0
5135350 Off ch=4 n=18 v=0
5135381 On ch=4 n=15 v=100
5135655 Off ch=4 n=15 v=0
5136687 On ch=4 n=4 v=100
5137525 Off ch=4 n=4 v=0
5141082 On ch=4 n=6 v=100
5141796 Off ch=4 n=6 v=0
5141898 On ch=4 n=0 v=100
5142057 Off ch=4 n=0 v=0
5142059 On ch=4 n=0 v=100
5146360 Off ch=4 n=0 v=0
5146362 On ch=4 n=0 v=100
5146521 Off ch=4 n=0 v=0
5151047 On ch=4 n=4 v=100
5151334 Off ch=4 n=4 v=0
5151336 On ch=4 n=2 v=100
5151412 On ch=4 n=0 v=100
5151506 Off ch=4 n=2 v=0
5158802 Off ch=4 n=0 v=0
5158804 On ch=4 n=4 v=100
5159091 Off ch=4 n=4 v=0
5161061 On ch=4 n=10 v=100
5161228 Off ch=4 n=10 v=0
5164173 On ch=4 n=4 v=100
5170189 Off ch=4 n=4 v=0
5170527 On ch=4 n=19 v=100
5170544 On ch=4 n=9 v=100
5170604 Off ch=4 n=9 v=0
5170606 Off ch=4 n=19 v=0
5181133 On ch=4 n=27 v=100
5181413 Off ch=4 n=27 v=0
5182438 On ch=4 n=8 v=100
5182598 Off ch=4 n=8 v=0
5182944 On ch=4 n=21 v=100
5183028 Off ch=4 n=21 v=0
5201108 On ch=4 n=34 v=100
5201309 Off ch=4 n=34 v=0
5210639 On ch=4 n=19 v=100
5210763 Off ch=4 n=19 v=0
5215098 On ch=4 n=35 v=100
5215375 Off ch=4 n=35 v=0
5216142 On ch=4 n=14 v=100
5216177 Off ch=4 n=14 v=0
5228487 On ch=4 n=4 v=100
5230610 On ch=4 n=3 v=100
5230625 Off ch=4 n=4 v=0
5230691 Off ch=4 n=3 v=0
5231770 On ch=4 n=3 v=100
5232221 On ch=4 n=4 v=100
5232222 Off ch=4 n=3 v=0
5233227 On ch=4 n=68 v=100
5233237 On ch=4 n=45 v=100
5233698 Off ch=4 n=4 v=0
5233702 On ch=4 n=1 v=100
5234051 Off ch=4 n=45 v=0
5234304 Off ch=4 n=68 v=0
5234920 On ch=4 n=24 v=100
5235022 Off ch=4 n=1 v=0
5235052 Off ch=4 n=24 v=0
5252474 On ch=4 n=32 v=100
5252548 Off ch=4 n=32 v=0
5337654 On ch=4 n=6 v=100
5337802 Off ch=4 n=6 v=0
5337812 On ch=4 n=21 v=100
5337813 On ch=4 n=11 v=100
5337914 Off ch=4 n=11 v=0
5337926 Off ch=4 n=21 v=0
5360400 On ch=4 n=17 v=100
5360648 Off ch=4 n=17 v=0
5384865 On ch=4 n=10 v=100
5385373 Off ch=4 n=10 v=0
5393964 On ch=4 n=14 v=100
5394144 Off ch=4 n=14 v=0
5394637 On ch=4 n=22 v=100
5394899 Off ch=4 n=22 v=0
5398933 On ch=4 n=0 v=100
5399314 Off ch=4 n=0 v=0
5399315 On ch=4 n=0 v=100
5406106 Off ch=4 n=0 v=0
5406108 On ch=4 n=1 v=100
5406489 Off ch=4 n=1 v=0
5407817 On ch=4 n=37 v=100
5407912 Off ch=4 n=37 v=0
5426583 On ch=4 n=10 v=100
5427150 Off ch=4 n=10 v=0
5434799 On ch=4 n=20 v=100
5435076 Off ch=4 n=20 v=0
5438773 On ch=4 n=10 v=100
5438833 Off ch=4 n=10 v=0
5448950 On ch=4 n=18 v=100
5449400 Off ch=4 n=18 v=0
5458841 On ch=4 n=24 v=100
5458925 On ch=4 n=7 v=100
5459024 Off ch=4 n=24 v=0
5459305 Off ch=4 n=7 v=0
5473277 On ch=4 n=31 v=100
5473277 On ch=4 n=31 v=100
5473326 Off ch=4 n=31 v=0
5473326 Off ch=4 n=31 v=0
5479439 On ch=4 n=22 v=100
5479749 Off ch=4 n=22 v=0
5483747 On ch=4 n=8 v=100
5484861 On ch=4 n=7 v=100
5484866 Off ch=4 n=8 v=0
5485990 On ch=4 n=9 v=100
5485991 Off ch=4 n=7 v=0
5488550 Off ch=4 n=9 v=0
5489972 On ch=4 n=8 v=100
5490355 Off ch=4 n=8 v=0
5490357 On ch=4 n=2 v=100
5494543 Off ch=4 n=2 v=0
5494547 On ch=4 n=8 v=100
5494930 Off ch=4 n=8 v=0
5495387 On ch=4 n=42 v=100
5495462 Off ch=4 n=42 v=0
5501341 On ch=4 n=17 v=100
5502069 Off ch=4 n=17 v=0
5503692 On ch=4 n=14 v=100
5503779 Off ch=4 n=14 v=0
5503791 On ch=4 n=25 v=100
5503791 On ch=4 n=11 v=100
5504131 On ch=4 n=19 v=100
5504131 Off ch=4 n=11 v=0
5504198 Off ch=4 n=25 v=0
5504226 Off ch=4 n=19 v=0
5504239 On ch=4 n=4 v=100
5504949 On ch=4 n=14 v=100
5504952 Off ch=4 n=4 v=0
5506279 Off ch=4 n=14 v=0
5510505 On ch=4 n=12 v=100
5510673 Off ch=4 n=12 v=0
5511402 On ch=4 n=44 v=100
5511623 Off ch=4 n=44 v=0
5523202 On ch=4 n=34 v=100
5523296 Off ch=4 n=34 v=0
5526365 On ch=4 n=14 v=100
5526405 Off ch=4 n=14 v=0
5526808 On ch=4 n=50 v=100
5526906 Off ch=4 n=50 v=0
5526923 On ch=4 n=10 v=100
5526964 Off ch=4 n=10 v=0
5527068 On ch=4 n=11 v=100
5527105 Off ch=4 n=11 v=0
5527112 On ch=4 n=38 v=100
5527285 Off ch=4 n=38 v=0
5535042 On ch=4 n=21 v=100
5535215 Off ch=4 n=21 v=0
5535269 On ch=4 n=21 v=100
5535438 Off ch=4 n=21 v=0
5537124 On ch=4 n=27 v=100
5537524 Off ch=4 n=27 v=0
5541441 On ch=4 n=16 v=100
5541700 Off ch=4 n=16 v=0
5542667 On ch=4 n=21 v=100
5542943 Off ch=4 n=21 v=0
5546524 On ch=4 n=37 v=100
5546641 Off ch=4 n=37 v=0
5548340 On ch=4 n=19 v=100
5548350 On ch=4 n=30 v=100
5548365 On ch=4 n=46 v=100
5548365 On ch=4 n=49 v=100
5548390 Off ch=4 n=19 v=0
5548392 On ch=4 n=26 v=100
5548420 Off ch=4 n=30 v=0
5548600 Off ch=4 n=46 v=0
5548603 On ch=4 n=4 v=100
5548603 Off ch=4 n=26 v=0
5548645 Off ch=4 n=49 v=0
5550303 On ch=4 n=3 v=100
5550305 Off ch=4 n=4 v=0
5551986 On ch=4 n=4 v=100
5552044 Off ch=4 n=3 v=0
5552048 On ch=4 n=17 v=100
5552052 Off ch=4 n=4 v=0
5552079 Off ch=4 n=17 v=0
5571466 On ch=4 n=42 v=100
5571466 On ch=4 n=42 v=100
5571680 Off ch=4 n=42 v=0
5571680 Off ch=4 n=42 v=0
5626099 On ch=4 n=21 v=100
5626241 Off ch=4 n=21 v=0
5626545 On ch=4 n=12 v=100
5626629 Off ch=4 n=12 v=0
5627007 On ch=4 n=12 v=100
5627267 Off ch=4 n=12 v=0
5627273 On ch=4 n=14 v=100
5627479 Off ch=4 n=14 v=0
5627480 On ch=4 n=9 v=100
5627546 On ch=4 n=46 v=100
5627923 Off ch=4 n=9 v=0
5627926 On ch=4 n=7 v=100
5628063 Off ch=4 n=46 v=0
5628194 Off ch=4 n=7 v=0
5628199 On ch=4 n=9 v=100
5628671 Off ch=4 n=9 v=0
5629416 On ch=4 n=13 v=100
5629550 Off ch=4 n=13 v=0
5633279 On ch=4 n=18 v=100
5633591 Off ch=4 n=18 v=0
5634565 On ch=4 n=17 v=100
5634700 Off ch=4 n=17 v=0
5685690 On ch=4 n=38 v=100
5685854 Off ch=4 n=38 v=0
5707299 On ch=4 n=18 v=100
5708941 Off ch=4 n=18 v=0
5709908 On ch=4 n=12 v=100
5710470 Off ch=4 n=12 v=0
5723256 On ch=4 n=27 v=100
5723576 Off ch=4 n=27 v=0
5724316 On ch=4 n=10 v=100
5724693 Off ch=4 n=10 v=0
5724695 On ch=4 n=6 v=100
5729012 Off ch=4 n=6 v=0
5729015 On ch=4 n=12 v=100
5729394 Off ch=4 n=12 v=0
5729403 On ch=4 n=27 v=100
5729734 Off ch=4 n=27 v=0
5730781 On ch=4 n=2 v=100
5731515 On ch=4 n=13 v=100
5731515 Off ch=4 n=2 v=0
5736279 Off ch=4 n=13 v=0
5736306 On ch=4 n=13 v=100
5736457 On ch=4 n=12 v=100
5736474 Off ch=4 n=13 v=0
5736476 On ch=4 n=2 v=100
5736506 Off ch=4 n=12 v=0
5737211 Off ch=4 n=2 v=0
5737229 On ch=4 n=19 v=100
5737433 Off ch=4 n=19 v=0
5745743 On ch=4 n=8 v=100
5746247 Off ch=4 n=8 v=0
5746407 On ch=4 n=39 v=100
5746478 Off ch=4 n=39 v=0
5747544 On ch=4 n=14 v=100
5748157 Off ch=4 n=14 v=0
5759239 On ch=4 n=14 v=100
5759674 Off ch=4 n=14 v=0
5759924 On ch=4 n=34 v=100
5760049 Off ch=4 n=34 v=0
5762239 On ch=4 n=2 v=100
5767364 Off ch=4 n=2 v=0
5767367 On ch=4 n=4 v=100
5768150 Off ch=4 n=4 v=0
5768840 On ch=4 n=19 v=100
5769244 On ch=4 n=20 v=100
5769249 Off ch=4 n=19 v=0
5769698 Off ch=4 n=20 v=0
5774676 On ch=4 n=31 v=100
5774908 Off ch=4 n=31 v=0
5779393 On ch=4 n=13 v=100
5779491 Off ch=4 n=13 v=0
5780235 On ch=4 n=16 v=100
5780283 Off ch=4 n=16 v=0
5782774 On ch=4 n=27 v=100
5782794 On ch=4 n=2 v=100
5782851 Off ch=4 n=27 v=0
5786040 On ch=4 n=3 v=100
5788038 Off ch=4 n=2 v=0
5788924 Off ch=4 n=3 v=0
5793886 On ch=4 n=41 v=100
5794064 Off ch=4 n=41 v=0
5795509 On ch=4 n=49 v=100
5795765 Off ch=4 n=49 v=0
5815425 On ch=4 n=25 v=100
5815511 Off ch=4 n=25 v=0
5847352 On ch=4 n=4 v=100
5847657 On ch=4 n=6 v=100
5847664 Off ch=4 n=4 v=0
5847957 On ch=4 n=9 v=100
5847985 Off ch=4 n=6 v=0
5848154 Off ch=4 n=9 v=0
5848156 On ch=4 n=0 v=100
5849861 Off ch=4 n=0 v=0
5855252 On ch=4 n=0 v=100
5859703 On ch=4 n=40 v=100
5859872 Off ch=4 n=0 v=0
5859874 On ch=4 n=5 v=100
5859895 Off ch=4 n=40 v=0
5860443 Off ch=4 n=5 v=0
5860445 On ch=4 n=5 v=100
5860555 Off ch=4 n=5 v=0
5860561 On ch=4 n=2 v=100
5860956 Off ch=4 n=2 v=0
5861988 On ch=4 n=12 v=100
5862106 On ch=4 n=18 v=100
5862106 Off ch=4 n=12 v=0
5862410 Off ch=4 n=18 v=0
5862482 On ch=4 n=18 v=100
5862597 Off ch=4 n=18 v=0
5862601 On ch=4 n=20 v=100
5862773 Off ch=4 n=20 v=0
5865704 On ch=4 n=6 v=100
5866323 Off ch=4 n=6 v=0
5866343 On ch=4 n=24 v=100
5866791 Off ch=4 n=24 v=0
5866830 On ch=4 n=24 v=100
5867014 Off ch=4 n=24 v=0
5868330 On ch=4 n=7 v=100
5868330 On ch=4 n=7 v=100
5868401 On ch=4 n=16 v=100
5868411 On ch=4 n=51 v=100
5868411 On ch=4 n=51 v=100
5868460 Off ch=4 n=7 v=0
5868460 Off ch=4 n=7 v=0
5868463 On ch=4 n=14 v=100
5868463 On ch=4 n=14 v=100
5868468 Off ch=4 n=16 v=0
5868549 Off ch=4 n=51 v=0
5868549 Off ch=4 n=51 v=0
5868669 On ch=4 n=12 v=100
5868674 Off ch=4 n=14 v=0
5868674 Off ch=4 n=14 v=0
5868995 On ch=4 n=59 v=100
5869265 Off ch=4 n=12 v=0
5869266 On ch=4 n=9 v=100
5869307 Off ch=4 n=59 v=0
5869377 Off ch=4 n=9 v=0
5870330 On ch=4 n=3 v=100
5876327 On ch=4 n=23 v=100
5876377 Off ch=4 n=3 v=0
5876387 Off ch=4 n=23 v=0
5887153 On ch=4 n=0 v=100
5893033 Off ch=4 n=0 v=0
5893035 On ch=4 n=0 v=100
5894984 Off ch=4 n=0 v=0
5895792 On ch=4 n=3 v=100
5896420 Off ch=4 n=3 v=0
5896421 On ch=4 n=5 v=100
5896795 Off ch=4 n=5 v=0
5896797 On ch=4 n=3 v=100
5901056 On ch=4 n=53 v=100
5901113 Off ch=4 n=3 v=0
5901115 On ch=4 n=5 v=100
5901204 Off ch=4 n=53 v=0
5901467 On ch=4 n=7 v=100
5901489 Off ch=4 n=5 v=0
5901766 Off ch=4 n=7 v=0
5901769 On ch=4 n=2 v=100
5902092 On ch=4 n=59 v=100
5902311 On ch=4 n=49 v=100
5902350 On ch=4 n=60 v=100
5902363 Off ch=4 n=2 v=0
5902364 On ch=4 n=44 v=100
5902417 Off ch=4 n=59 v=0
5902452 Off ch=4 n=49 v=0
5902481 Off ch=4 n=60 v=0
5902778 On ch=4 n=3 v=100
5904140 Off ch=4 n=44 v=0
5904141 Off ch=4 n=3 v=0
5904143 On ch=4 n=3 v=100
5905881 Off ch=4 n=3 v=0
5909130 On ch=4 n=17 v=100
5909138 On ch=4 n=9 v=100
5909182 Off ch=4 n=17 v=0
5909182 Off ch=4 n=9 v=0
5913163 On ch=4 n=43 v=100
5913261 Off ch=4 n=43 v=0
5914721 On ch=4 n=8 v=100
5915229 Off ch=4 n=8 v=0
5915235 On ch=4 n=2 v=100
5915277 On ch=4 n=22 v=100
5915280 Off ch=4 n=2 v=0
5915453 Off ch=4 n=22 v=0
5917463 On ch=4 n=11 v=100
5917519 Off ch=4 n=11 v=0
5917848 On ch=4 n=15 v=100
5918187 Off ch=4 n=15 v=0
5921061 On ch=4 n=14 v=100
5921505 On ch=4 n=9 v=100
5921505 Off ch=4 n=14 v=0
5922034 Off ch=4 n=9 v=0
5922035 On ch=4 n=12 v=100
5922201 Off ch=4 n=12 v=0
5922203 On ch=4 n=11 v=100
5922345 Off ch=4 n=11 v=0
5924468 On ch=4 n=30 v=100
5924530 On ch=4 n=17 v=100
5924788 Off ch=4 n=30 v=0
5924807 Off ch=4 n=17 v=0
5927504 On ch=4 n=9 v=100
5927724 Off ch=4 n=9 v=0
5928250 On ch=4 n=7 v=100
5928625 Off ch=4 n=7 v=0
5931957 On ch=4 n=9 v=100
5932633 Off ch=4 n=9 v=0
5933745 On ch=4 n=33 v=100
5933790 On ch=4 n=29 v=100
5933791 On ch=4 n=4 v=100
5933987 Off ch=4 n=33 v=0
5934117 Off ch=4 n=4 v=0
5934183 Off ch=4 n=29 v=0
5936378 On ch=4 n=8 v=100
5936521 On ch=4 n=39 v=100
5936527 On ch=4 n=12 v=100
5936535 On ch=4 n=2 v=100
5936536 Off ch=4 n=8 v=0
5936593 Off ch=4 n=12 v=0
5936627 Off ch=4 n=39 v=0
5938335 On ch=4 n=3 v=100
5938336 Off ch=4 n=2 v=0
5938692 Off ch=4 n=3 v=0
5938697 On ch=4 n=6 v=100
5942080 On ch=4 n=35 v=100
5942153 On ch=4 n=7 v=100
5942155 Off ch=4 n=6 v=0
5942261 On ch=4 n=34 v=100
5942364 Off ch=4 n=35 v=0
5942364 Off ch=4 n=7 v=0
5942378 Off ch=4 n=34 v=0
5951020 On ch=4 n=11 v=100
5951225 Off ch=4 n=11 v=0
5951229 On ch=4 n=4 v=100
5951277 Off ch=4 n=4 v=0
5951355 On ch=4 n=47 v=100
5951898 On ch=4 n=6 v=100
5952054 On ch=4 n=41 v=100
5953659 Off ch=4 n=6 v=0
5954036 Off ch=4 n=47 v=0
5954333 Off ch=4 n=41 v=0
5954423 On ch=4 n=7 v=100
5956187 Off ch=4 n=7 v=0
5956189 On ch=4 n=11 v=100
5956533 Off ch=4 n=11 v=0
5967140 On ch=4 n=3 v=100
5967279 Off ch=4 n=3 v=0
5968999 On ch=4 n=4 v=100
5970711 Off ch=4 n=4 v=0
5971605 On ch=4 n=8 v=100
5971681 Off ch=4 n=8 v=0
5973611 On ch=4 n=7 v=100
5974688 On ch=4 n=36 v=100
5974702 Off ch=4 n=7 v=0
5974703 On ch=4 n=5 v=100
5974759 Off ch=4 n=5 v=0
5974771 Off ch=4 n=36 v=0
5975218 On ch=4 n=16 v=100
5975259 Off ch=4 n=16 v=0
5975261 On ch=4 n=7 v=100
5975267 On ch=4 n=43 v=100
5975848 Off ch=4 n=7 v=0
5976063 On ch=4 n=8 v=100
5976578 Off ch=4 n=43 v=0
5976578 Off ch=4 n=8 v=0
5976579 On ch=4 n=9 v=100
5977318 Off ch=4 n=9 v=0
5977331 On ch=4 n=6 v=100
5977485 Off ch=4 n=6 v=0
5979327 On ch=4 n=16 v=100
5979378 Off ch=4 n=16 v=0
5979387 On ch=4 n=20 v=100
5979453 Off ch=4 n=20 v=0
5979463 On ch=4 n=10 v=100
5979760 Off ch=4 n=10 v=0
5979769 On ch=4 n=55 v=100
5979769 On ch=4 n=41 v=100
5979771 On ch=4 n=29 v=100
5980005 Off ch=4 n=29 v=0
5980008 On ch=4 n=16 v=100
5980046 Off ch=4 n=41 v=0
5980121 Off ch=4 n=55 v=0
5980548 Off ch=4 n=16 v=0
5980703 On ch=4 n=9 v=100
5981162 Off ch=4 n=9 v=0
5999475 On ch=4 n=10 v=100
6000302 Off ch=4 n=10 v=0
6020182 On ch=4 n=7 v=100
6020492 Off ch=4 n=7 v=0
6071405 On ch=4 n=27 v=100
6071621 Off ch=4 n=27 v=0
6082168 On ch=4 n=12 v=100
6082174 On ch=4 n=46 v=100
6082318 Off ch=4 n=12 v=0
6082378 Off ch=4 n=46 v=0
6082661 On ch=4 n=10 v=100
6082944 On ch=4 n=23 v=100
6083096 Off ch=4 n=10 v=0
6083117 Off ch=4 n=23 v=0
6090571 On ch=4 n=21 v=100
6090777 On ch=4 n=19 v=100
6090943 Off ch=4 n=21 v=0
6091074 Off ch=4 n=19 v=0
6098230 On ch=4 n=35 v=100
6098243 On ch=4 n=26 v=100
6098313 Off ch=4 n=35 v=0
6098314 Off ch=4 n=26 v=0
6098323 On ch=4 n=13 v=100
6099347 On ch=4 n=12 v=100
6099353 Off ch=4 n=13 v=0
6099476 Off ch=4 n=12 v=0
6099487 On ch=4 n=22 v=100
6099563 Off ch=4 n=22 v=0
6099581 On ch=4 n=18 v=100
6100255 On ch=4 n=27 v=100
6100256 Off ch=4 n=18 v=0
6100421 Off ch=4 n=27 v=0
6101149 On ch=4 n=8 v=100
6102063 Off ch=4 n=8 v=0
6102086 On ch=4 n=21 v=100
6102170 On ch=4 n=15 v=100
6102202 Off ch=4 n=21 v=0
6102207 Off ch=4 n=15 v=0
6103654 On ch=4 n=3 v=100
6109860 Off ch=4 n=3 v=0
6115692 On ch=4 n=22 v=100
6116111 Off ch=4 n=22 v=0
6140692 On ch=4 n=3 v=100
6140797 Off ch=4 n=3 v=0
6155216 On ch=4 n=42 v=100
6155615 Off ch=4 n=42 v=0
6165673 On ch=4 n=19 v=100
6165690 On ch=4 n=11 v=100
6165715 On ch=4 n=2 v=100
6165773 Off ch=4 n=19 v=0
6165773 Off ch=4 n=11 v=0
6171764 Off ch=4 n=2 v=0
6178863 On ch=4 n=15 v=100
6178953 On ch=4 n=43 v=100
6179300 Off ch=4 n=15 v=0
6179343 Off ch=4 n=43 v=0
6188608 On ch=4 n=21 v=100
6188708 Off ch=4 n=21 v=0
6188835 On ch=4 n=21 v=100
6189090 Off ch=4 n=21 v=0
6191601 On ch=4 n=25 v=100
6192047 Off ch=4 n=25 v=0
6194029 On ch=4 n=22 v=100
6194151 Off ch=4 n=22 v=0
6194163 On ch=4 n=31 v=100
6195371 Off ch=4 n=31 v=0
6206548 On ch=4 n=28 v=100
6206683 Off ch=4 n=28 v=0
6213164 On ch=4 n=18 v=100
6213505 Off ch=4 n=18 v=0
6235516 On ch=4 n=2 v=100
6241504 On ch=4 n=16 v=100
6241562 Off ch=4 n=2 v=0
6241580 Off ch=4 n=16 v=0
6267303 On ch=4 n=30 v=100
6267559 Off ch=4 n=30 v=0
6273753 On ch=4 n=38 v=100
6274110 Off ch=4 n=38 v=0
6280600 On ch=4 n=4 v=100
6285763 On ch=4 n=4 v=100
6285765 Off ch=4 n=4 v=0
6286647 Off ch=4 n=4 v=0
6286780 On ch=4 n=8 v=100
6287129 Off ch=4 n=8 v=0
6300193 On ch=4 n=31 v=100
6300394 Off ch=4 n=31 v=0
6303167 On ch=4 n=22 v=100
6303428 Off ch=4 n=22 v=0
6310521 On ch=4 n=16 v=100
6310705 Off ch=4 n=16 v=0
6327630 On ch=4 n=12 v=100
6328481 Off ch=4 n=12 v=0
6373040 On ch=4 n=34 v=100
6373240 Off ch=4 n=34 v=0
6378621 On ch=4 n=26 v=100
6378719 Off ch=4 n=26 v=0
6382827 On ch=4 n=10 v=100
6383218 Off ch=4 n=10 v=0
6389992 On ch=4 n=35 v=100
6390080 Off ch=4 n=35 v=0
6440395 On ch=4 n=15 v=100
6440786 Off ch=4 n=15 v=0
6441677 On ch=4 n=8 v=100
6441766 Off ch=4 n=8 v=0
6442282 On ch=4 n=19 v=100
6442365 Off ch=4 n=19 v=0
6458133 On ch=4 n=23 v=100
6458133 On ch=4 n=13 v=100
6458318 Off ch=4 n=13 v=0
6458352 Off ch=4 n=23 v=0
6458544 On ch=4 n=7 v=100
6458872 Off ch=4 n=7 v=0
6458874 On ch=4 n=1 v=100
6464225 Off ch=4 n=1 v=0
6464227 On ch=4 n=7 v=100
6464555 Off ch=4 n=7 v=0
6495914 On ch=4 n=4 v=100
6496247 Off ch=4 n=4 v=0
6503768 On ch=4 n=22 v=100
6504427 Off ch=4 n=22 v=0
6508712 On ch=4 n=40 v=100
6508957 Off ch=4 n=40 v=0
6511210 On ch=4 n=4 v=100
6511687 Off ch=4 n=4 v=0
6512425 On ch=4 n=41 v=100
6512549 Off ch=4 n=41 v=0
6514261 On ch=4 n=9 v=100
6514735 Off ch=4 n=9 v=0
6524664 On ch=4 n=10 v=100
6524975 Off ch=4 n=10 v=0
6525006 On ch=4 n=18 v=100
6525774 Off ch=4 n=18 v=0
6525775 On ch=4 n=17 v=100
6525916 Off ch=4 n=17 v=0
6538345 On ch=4 n=25 v=100
6538841 Off ch=4 n=25 v=0
6538892 On ch=4 n=22 v=100
6538980 Off ch=4 n=22 v=0
6556782 On ch=4 n=26 v=100
6556782 On ch=4 n=26 v=100
6556826 On ch=4 n=30 v=100
6556826 On ch=4 n=30 v=100
6556975 Off ch=4 n=26 v=0
6556975 Off ch=4 n=26 v=0
6557014 Off ch=4 n=30 v=0
6557014 Off ch=4 n=30 v=0
6559290 On ch=4 n=17 v=100
6559480 Off ch=4 n=17 v=0
6559502 On ch=4 n=35 v=100
6559543 Off ch=4 n=35 v=0
6567051 On ch=4 n=22 v=100
6567178 Off ch=4 n=22 v=0
6571815 On ch=4 n=29 v=100
6572078 Off ch=4 n=29 v=0
6581167 On ch=4 n=26 v=100
6581187 Off ch=4 n=26 v=0
6581241 On ch=4 n=26 v=100
6581300 Off ch=4 n=26 v=0
6585446 On ch=4 n=23 v=100
6585483 Off ch=4 n=23 v=0
6587919 On ch=4 n=30 v=100
6588075 Off ch=4 n=30 v=0
6600161 On ch=4 n=48 v=100
6600641 Off ch=4 n=48 v=0
6627655 On ch=4 n=27 v=100
6627726 On ch=4 n=23 v=100
6628075 Off ch=4 n=27 v=0
6628075 Off ch=4 n=23 v=0
6639097 On ch=4 n=12 v=100
6639242 On ch=4 n=49 v=100
6639270 On ch=4 n=28 v=100
6639447 Off ch=4 n=12 v=0
6639471 Off ch=4 n=28 v=0
6639477 Off ch=4 n=49 v=0
6641937 On ch=4 n=31 v=100
6642054 Off ch=4 n=31 v=0
6644597 On ch=4 n=25 v=100
6644615 On ch=4 n=24 v=100
6644680 Off ch=4 n=25 v=0
6644681 Off ch=4 n=24 v=0
6662340 On ch=4 n=2 v=100
6664045 Off ch=4 n=2 v=0
6664047 On ch=4 n=1 v=100
6667599 Off ch=4 n=1 v=0
6667602 On ch=4 n=2 v=100
6669182 Off ch=4 n=2 v=0
6669184 On ch=4 n=1 v=100
6670889 Off ch=4 n=1 v=0
6707182 On ch=4 n=49 v=100
6707314 Off ch=4 n=49 v=0
6708202 On ch=4 n=12 v=100
6708674 Off ch=4 n=12 v=0
6710285 On ch=4 n=5 v=100
6710607 Off ch=4 n=5 v=0
6723822 On ch=4 n=9 v=100
6724132 On ch=4 n=12 v=100
6724231 Off ch=4 n=9 v=0
6724446 Off ch=4 n=12 v=0
6746590 On ch=4 n=14 v=100
6746820 Off ch=4 n=14 v=0
6748048 On ch=4 n=2 v=100
6748392 Off ch=4 n=2 v=0
6753210 On ch=4 n=20 v=100
6753651 Off ch=4 n=20 v=0
6762604 On ch=4 n=42 v=100
6762756 Off ch=4 n=42 v=0
6762766 On ch=4 n=9 v=100
6762798 Off ch=4 n=9 v=0
6762803 On ch=4 n=12 v=100
6762829 Off ch=4 n=12 v=0
6772169 On ch=4 n=42 v=100
6772205 On ch=4 n=14 v=100
6772390 Off ch=4 n=42 v=0
6772824 Off ch=4 n=14 v=0
6789473 On ch=4 n=24 v=100
6789473 On ch=4 n=24 v=100
6789677 On ch=4 n=42 v=100
6789677 On ch=4 n=42 v=100
6789713 On ch=4 n=20 v=100
6789716 Off ch=4 n=24 v=0
6789716 Off ch=4 n=24 v=0
6789783 Off ch=4 n=42 v=0
6789783 Off ch=4 n=42 v=0
6789793 Off ch=4 n=20 v=0
6803288 On ch=4 n=5 v=100
6803550 On ch=4 n=23 v=100
6803658 Off ch=4 n=5 v=0
6803673 Off ch=4 n=23 v=0
6807899 On ch=4 n=6 v=100
6809394 On ch=4 n=16 v=100
6810233 Off ch=4 n=6 v=0
6810471 On ch=4 n=2 v=100
6810471 Off ch=4 n=16 v=0
6812168 Off ch=4 n=2 v=0
6824528 On ch=4 n=11 v=100
6824563 On ch=4 n=15 v=100
6824564 Off ch=4 n=11 v=0
6824614 On ch=4 n=45 v=100
6824697 Off ch=4 n=15 v=0
6824896 Off ch=4 n=45 v=0
6824899 On ch=4 n=15 v=100
6825195 Off ch=4 n=15 v=0
6825356 On ch=4 n=39 v=100
6825620 Off ch=4 n=39 v=0
6829798 On ch=4 n=37 v=100
6829900 Off ch=4 n=37 v=0
6831412 On ch=4 n=19 v=100
6831748 On ch=4 n=57 v=100
6831769 On ch=4 n=25 v=100
6831783 On ch=4 n=31 v=100
6831783 On ch=4 n=20 v=100
6831783 Off ch=4 n=19 v=0
6831859 Off ch=4 n=57 v=0
6831864 Off ch=4 n=25 v=0
6832123 On ch=4 n=21 v=100
6832123 Off ch=4 n=20 v=0
6832333 Off ch=4 n=31 v=0
6832375 Off ch=4 n=21 v=0
6832486 On ch=4 n=20 v=100
6832717 Off ch=4 n=20 v=0
6833041 On ch=4 n=9 v=100
6833413 Off ch=4 n=9 v=0
6838008 On ch=4 n=2 v=100
6838464 Off ch=4 n=2 v=0
6841079 On ch=4 n=10 v=100
6841481 On ch=4 n=25 v=100
6841638 Off ch=4 n=10 v=0
6842020 Off ch=4 n=25 v=0
6850315 On ch=4 n=8 v=100
6851185 Off ch=4 n=8 v=0
6864446 On ch=4 n=41 v=100
6864806 Off ch=4 n=41 v=0
6869840 On ch=4 n=8 v=100
6870618 Off ch=4 n=8 v=0
6874207 On ch=4 n=21 v=100
6874650 Off ch=4 n=21 v=0
6875026 On ch=4 n=13 v=100
6875192 Off ch=4 n=13 v=0
6875195 On ch=4 n=10 v=100
6875237 Off ch=4 n=10 v=0
6875239 On ch=4 n=10 v=100
6875417 Off ch=4 n=10 v=0
6878072 On ch=4 n=14 v=100
6878432 Off ch=4 n=14 v=0
6880461 On ch=4 n=9 v=100
6880620 Off ch=4 n=9 v=0
6880660 On ch=4 n=13 v=100
6880842 Off ch=4 n=13 v=0
6891664 On ch=4 n=21 v=100
6892137 Off ch=4 n=21 v=0
6910894 On ch=4 n=32 v=100
6911215 Off ch=4 n=32 v=0
6914375 On ch=4 n=22 v=100
6914473 Off ch=4 n=22 v=0
6915808 On ch=4 n=27 v=100
6916065 Off ch=4 n=27 v=0
6976440 On ch=4 n=50 v=100
6976739 Off ch=4 n=50 v=0
7012826 On ch=4 n=13 v=100
7012894 Off ch=4 n=13 v=0
7012946 On ch=4 n=13 v=100
7013064 Off ch=4 n=13 v=0
7037855 On ch=4 n=17 v=100
7038023 Off ch=4 n=17 v=0
7046919 On ch=4 n=14 v=100
7046984 On ch=4 n=9 v=100
7047322 Off ch=4 n=9 v=0
7047323 Off ch=4 n=14 v=0
7100510 On ch=4 n=12 v=100
7100777 Off ch=4 n=12 v=0
7100780 On ch=4 n=26 v=100
7101021 On ch=4 n=14 v=100
7101751 Off ch=4 n=26 v=0
7102085 On ch=4 n=30 v=100
7102143 Off ch=4 n=14 v=0
7102152 Off ch=4 n=30 v=0
7107124 On ch=4 n=38 v=100
7107541 Off ch=4 n=38 v=0
7107636 On ch=4 n=38 v=100
7107651 Off ch=4 n=38 v=0
7119051 On ch=4 n=49 v=100
7119361 Off ch=4 n=49 v=0
7119394 On ch=4 n=49 v=100
7119616 Off ch=4 n=49 v=0
7123038 On ch=4 n=4 v=100
7123114 Off ch=4 n=4 v=0
7127423 On ch=4 n=21 v=100
7127727 Off ch=4 n=21 v=0
7132735 On ch=4 n=22 v=100
7132737 On ch=4 n=37 v=100
7132988 Off ch=4 n=22 v=0
7133018 Off ch=4 n=37 v=0
7134593 On ch=4 n=25 v=100
7134646 On ch=4 n=18 v=100
7134820 Off ch=4 n=18 v=0
7134821 Off ch=4 n=25 v=0
7149014 On ch=4 n=9 v=100
7149518 Off ch=4 n=9 v=0
7152667 On ch=4 n=28 v=100
7153109 Off ch=4 n=28 v=0
7156908 On ch=4 n=12 v=100
7157065 Off ch=4 n=12 v=0
7157082 On ch=4 n=27 v=100
7157104 On ch=4 n=14 v=100
7157247 Off ch=4 n=27 v=0
7157247 Off ch=4 n=14 v=0
7157253 On ch=4 n=9 v=100
7157426 Off ch=4 n=9 v=0
7169693 On ch=4 n=25 v=100
7169823 Off ch=4 n=25 v=0
7171422 On ch=4 n=31 v=100
7171468 Off ch=4 n=31 v=0
7173456 On ch=4 n=7 v=100
7173883 Off ch=4 n=7 v=0
7175327 On ch=4 n=36 v=100
7175349 On ch=4 n=29 v=100
7175573 Off ch=4 n=29 v=0
7175623 Off ch=4 n=36 v=0
7179471 On ch=4 n=7 v=100
7179548 Off ch=4 n=7 v=0
7179550 On ch=4 n=5 v=100
7180022 On ch=4 n=8 v=100
7180023 Off ch=4 n=5 v=0
7180387 Off ch=4 n=8 v=0
7182127 On ch=4 n=10 v=100
7182268 Off ch=4 n=10 v=0
7182578 On ch=4 n=10 v=100
7182747 Off ch=4 n=10 v=0
7190151 On ch=4 n=23 v=100
7190179 On ch=4 n=4 v=100
7190333 Off ch=4 n=23 v=0
7190535 Off ch=4 n=4 v=0
7196580 On ch=4 n=16 v=100
7197116 Off ch=4 n=16 v=0
7211612 On ch=4 n=19 v=100
7211664 On ch=4 n=14 v=100
7211664 Off ch=4 n=19 v=0
7211978 Off ch=4 n=14 v=0
7216235 On ch=4 n=49 v=100
7216573 Off ch=4 n=49 v=0
7216697 On ch=4 n=29 v=100
7216942 Off ch=4 n=29 v=0
7221985 On ch=4 n=40 v=100
7222173 Off ch=4 n=40 v=0
7226517 On ch=4 n=17 v=100
7226765 Off ch=4 n=17 v=0
7233720 On ch=4 n=10 v=100
7233859 Off ch=4 n=10 v=0
7233861 On ch=4 n=11 v=100
7234841 Off ch=4 n=11 v=0
7252203 On ch=4 n=25 v=100
7252203 On ch=4 n=14 v=100
7252247 Off ch=4 n=14 v=0
7252264 Off ch=4 n=25 v=0
7256886 On ch=4 n=20 v=100
7256918 Off ch=4 n=20 v=0
7311316 On ch=4 n=28 v=100
7311717 Off ch=4 n=28 v=0
7311765 On ch=4 n=4 v=100
7312227 Off ch=4 n=4 v=0
7318471 On ch=4 n=28 v=100
7318533 Off ch=4 n=28 v=0
7324396 On ch=4 n=29 v=100
7324486 Off ch=4 n=29 v=0
7327072 On ch=4 n=41 v=100
7327072 On ch=4 n=41 v=100
7327339 Off ch=4 n=41 v=0
7327339 Off ch=4 n=41 v=0
7380472 On ch=4 n=7 v=100
7380863 Off ch=4 n=7 v=0
7392657 On ch=4 n=25 v=100
7393234 Off ch=4 n=25 v=0
7399855 On ch=4 n=18 v=100
7400295 Off ch=4 n=18 v=0
7407066 On ch=4 n=18 v=100
7407291 Off ch=4 n=18 v=0
7407327 On ch=4 n=18 v=100
7407899 Off ch=4 n=18 v=0
7435534 On ch=4 n=20 v=100
7435898 Off ch=4 n=20 v=0
7465918 On ch=4 n=14 v=100
7466442 Off ch=4 n=14 v=0
7467673 On ch=4 n=8 v=100
7467827 Off ch=4 n=8 v=0
7467830 On ch=4 n=17 v=100
7467832 On ch=4 n=23 v=100
7467990 Off ch=4 n=17 v=0
7468021 Off ch=4 n=23 v=0
7468379 On ch=4 n=31 v=100
7468395 On ch=4 n=22 v=100
7468478 Off ch=4 n=31 v=0
7468478 Off ch=4 n=22 v=0
7477564 On ch=4 n=27 v=100
7477877 Off ch=4 n=27 v=0
7478005 On ch=4 n=27 v=100
7478071 Off ch=4 n=27 v=0
7482641 On ch=4 n=10 v=100
7483172 Off ch=4 n=10 v=0
7491530 On ch=4 n=40 v=100
7491618 On ch=4 n=3 v=100
7491656 Off ch=4 n=40 v=0
7497660 Off ch=4 n=3 v=0
7497765 On ch=4 n=35 v=100
7498227 Off ch=4 n=35 v=0
7508419 On ch=4 n=10 v=100
7508507 Off ch=4 n=10 v=0
7514997 On ch=4 n=12 v=100
7515167 Off ch=4 n=12 v=0
7515474 On ch=4 n=20 v=100
7515886 Off ch=4 n=20 v=0
7523154 On ch=4 n=30 v=100
7523310 Off ch=4 n=30 v=0
7523400 On ch=4 n=22 v=100
7523551 Off ch=4 n=22 v=0
7526837 On ch=4 n=28 v=100
7527253 Off ch=4 n=28 v=0
7527256 On ch=4 n=24 v=100
7527344 Off ch=4 n=24 v=0
7530619 On ch=4 n=6 v=100
7531198 Off ch=4 n=6 v=0
7535185 On ch=4 n=5 v=100
7535727 Off ch=4 n=5 v=0
7561818 On ch=4 n=14 v=100
7562368 Off ch=4 n=14 v=0
7615340 On ch=4 n=11 v=100
7615771 Off ch=4 n=11 v=0
7618154 On ch=4 n=38 v=100
7618260 Off ch=4 n=38 v=0
7630395 On ch=4 n=64 v=100
7630448 Off ch=4 n=64 v=0
7636703 On ch=4 n=27 v=100
7636885 Off ch=4 n=27 v=0
7662913 On ch=4 n=18 v=100
7663222 On ch=4 n=16 v=100
7663223 Off ch=4 n=18 v=0
7663417 Off ch=4 n=16 v=0
7665143 On ch=4 n=8 v=100
7665238 Off ch=4 n=8 v=0
7665419 On ch=4 n=17 v=100
7665588 Off ch=4 n=17 v=0
7680196 On ch=4 n=20 v=100
7680409 Off ch=4 n=20 v=0
7695562 On ch=4 n=33 v=100
7695626 Off ch=4 n=33 v=0
7736323 On ch=4 n=7 v=100
7736435 Off ch=4 n=7 v=0
7736544 On ch=4 n=7 v=100
7737216 Off ch=4 n=7 v=0
7739505 On ch=4 n=5 v=100
7740190 Off ch=4 n=5 v=0
7743503 On ch=4 n=42 v=100
7743585 Off ch=4 n=42 v=0
7791652 On ch=4 n=22 v=100
7791930 Off ch=4 n=22 v=0
7812185 On ch=4 n=32 v=100
7812236 Off ch=4 n=32 v=0
7813741 On ch=4 n=51 v=100
7813741 On ch=4 n=51 v=100
7813924 Off ch=4 n=51 v=0
7813924 Off ch=4 n=51 v=0
7822662 On ch=4 n=17 v=100
7822739 Off ch=4 n=17 v=0
7845707 On ch=4 n=7 v=100
7845764 Off ch=4 n=7 v=0
7845774 On ch=4 n=9 v=100
7846005 Off ch=4 n=9 v=0
7846017 On ch=4 n=12 v=100
7846342 Off ch=4 n=12 v=0
7861599 On ch=4 n=33 v=100
7861639 Off ch=4 n=33 v=0
7867030 On ch=4 n=4 v=100
7867203 Off ch=4 n=4 v=0
7871253 On ch=4 n=54 v=100
7871343 Off ch=4 n=54 v=0
7893581 On ch=4 n=6 v=100
7893773 Off ch=4 n=6 v=0
7893775 On ch=4 n=12 v=100
7893810 Off ch=4 n=12 v=0
7893821 On ch=4 n=9 v=100
7893929 Off ch=4 n=9 v=0
7907035 On ch=4 n=42 v=100
7907231 Off ch=4 n=42 v=0
7909368 On ch=4 n=32 v=100
7909438 Off ch=4 n=32 v=0
7937281 On ch=4 n=26 v=100
7937443 Off ch=4 n=26 v=0
7937545 On ch=4 n=26 v=100
7937642 Off ch=4 n=26 v=0
7969532 On ch=4 n=26 v=100
7969544 On ch=4 n=23 v=100
7969617 Off ch=4 n=26 v=0
7969763 On ch=4 n=33 v=100
7969913 Off ch=4 n=23 v=0
7969937 Off ch=4 n=33 v=0
7972952 On ch=4 n=20 v=100
7973016 Off ch=4 n=20 v=0
7973066 On ch=4 n=14 v=100
7973254 Off ch=4 n=14 v=0
7973312 On ch=4 n=13 v=100
7973396 Off ch=4 n=13 v=0
7977432 On ch=4 n=17 v=100
7977675 Off ch=4 n=17 v=0
7985128 On ch=4 n=9 v=100
7985214 Off ch=4 n=9 v=0
7985237 On ch=4 n=35 v=100
7985291 On ch=4 n=29 v=100
7985415 Off ch=4 n=35 v=0
7985425 Off ch=4 n=29 v=0
7985427 On ch=4 n=12 v=100
7985524 Off ch=4 n=12 v=0
7997423 On ch=4 n=38 v=100
7997605 Off ch=4 n=38 v=0
7997874 On ch=4 n=17 v=100
7998066 Off ch=4 n=17 v=0
8018529 On ch=4 n=20 v=100
8018539 Off ch=4 n=20 v=0
8041519 On ch=4 n=31 v=100
8041644 Off ch=4 n=31 v=0
8042820 On ch=4 n=46 v=100
8043013 Off ch=4 n=46 v=0
8043673 On ch=4 n=11 v=100
8043865 Off ch=4 n=11 v=0
8043867 On ch=4 n=5 v=100
8043908 Off ch=4 n=5 v=0
8043910 On ch=4 n=10 v=100
8044054 Off ch=4 n=10 v=0
8048833 On ch=4 n=22 v=100
8049008 Off ch=4 n=22 v=0
8117511 On ch=4 n=14 v=100
8118094 Off ch=4 n=14 v=0
8120240 On ch=4 n=26 v=100
8120407 Off ch=4 n=26 v=0
8122884 On ch=4 n=24 v=100
8123327 Off ch=4 n=24 v=0
8143295 On ch=4 n=14 v=100
8143397 Off ch=4 n=14 v=0
8144398 On ch=4 n=20 v=100
8144612 Off ch=4 n=20 v=0
8151132 On ch=4 n=19 v=100
8151167 Off ch=4 n=19 v=0
8153309 On ch=4 n=37 v=100
8153468 Off ch=4 n=37 v=0
8153512 On ch=4 n=46 v=100
8153713 Off ch=4 n=46 v=0
8153757 On ch=4 n=47 v=100
8153850 Off ch=4 n=47 v=0
8153965 On ch=4 n=38 v=100
8154043 Off ch=4 n=38 v=0
8155885 On ch=4 n=36 v=100
8155936 Off ch=4 n=36 v=0
8155938 On ch=4 n=28 v=100
8156084 Off ch=4 n=28 v=0
8159718 On ch=4 n=38 v=100
8160003 Off ch=4 n=38 v=0
8169639 On ch=4 n=44 v=100
8169716 Off ch=4 n=44 v=0
8171868 On ch=4 n=21 v=100
8172089 Off ch=4 n=21 v=0
8182049 On ch=4 n=37 v=100
8182072 On ch=4 n=10 v=100
8182213 Off ch=4 n=37 v=0
8182569 Off ch=4 n=10 v=0
8199296 On ch=4 n=31 v=100
8199527 Off ch=4 n=31 v=0
8228354 On ch=4 n=36 v=100
8228687 Off ch=4 n=36 v=0
8251564 On ch=4 n=39 v=100
8251720 Off ch=4 n=39 v=0
8381407 On ch=4 n=49 v=100
8381588 Off ch=4 n=49 v=0
8384252 On ch=4 n=50 v=100
8385091 Off ch=4 n=50 v=0
8396486 On ch=4 n=0 v=100
8396766 Off ch=4 n=0 v=0
8396768 On ch=4 n=1 v=100
8397286 Off ch=4 n=1 v=0
8397288 On ch=4 n=0 v=100
8403648 Off ch=4 n=0 v=0
8403687 On ch=4 n=0 v=100
8404183 Off ch=4 n=0 v=0
8404185 On ch=4 n=1 v=100
8404703 Off ch=4 n=1 v=0
8414694 On ch=4 n=8 v=100
8415476 Off ch=4 n=8 v=0
8436509 On ch=4 n=30 v=100
8436594 Off ch=4 n=30 v=0
8455052 On ch=4 n=14 v=100
8455632 Off ch=4 n=14 v=0
8511029 On ch=4 n=15 v=100
8511288 Off ch=4 n=15 v=0
8511292 On ch=4 n=22 v=100
8511515 Off ch=4 n=22 v=0
8515841 On ch=4 n=8 v=100
8517468 Off ch=4 n=8 v=0
8517470 On ch=4 n=3 v=100
8517862 Off ch=4 n=3 v=0
8517895 On ch=4 n=3 v=100
8527048 Off ch=4 n=3 v=0
8527050 On ch=4 n=8 v=100
8528678 Off ch=4 n=8 v=0
8532509 On ch=4 n=15 v=100
8532786 Off ch=4 n=15 v=0
8535572 On ch=4 n=28 v=100
8535739 Off ch=4 n=28 v=0
8538241 On ch=4 n=24 v=100
8538431 Off ch=4 n=24 v=0
8545878 On ch=4 n=46 v=100
8546059 Off ch=4 n=46 v=0
8551244 On ch=4 n=3 v=100
8551937 On ch=4 n=38 v=100
8552003 Off ch=4 n=3 v=0
8552005 On ch=4 n=4 v=100
8552035 Off ch=4 n=38 v=0
8552610 On ch=4 n=13 v=100
8552786 On ch=4 n=5 v=100
8552814 Off ch=4 n=4 v=0
8552825 On ch=4 n=18 v=100
8552932 Off ch=4 n=13 v=0
8552980 On ch=4 n=13 v=100
8553057 On ch=4 n=4 v=100
8553107 Off ch=4 n=5 v=0
8553112 On ch=4 n=14 v=100
8553188 Off ch=4 n=18 v=0
8553392 Off ch=4 n=13 v=0
8553449 Off ch=4 n=4 v=0
8553888 Off ch=4 n=14 v=0
8553890 On ch=4 n=3 v=100
8554680 Off ch=4 n=3 v=0
8557075 On ch=4 n=31 v=100
8557464 Off ch=4 n=31 v=0
8567488 On ch=4 n=36 v=100
8567609 Off ch=4 n=36 v=0
8576242 On ch=4 n=15 v=100
8576262 On ch=4 n=22 v=100
8576277 On ch=4 n=7 v=100
8576284 On ch=4 n=2 v=100
8576285 Off ch=4 n=15 v=0
8576341 Off ch=4 n=22 v=0
8576341 Off ch=4 n=7 v=0
8582373 On ch=4 n=39 v=100
8582397 On ch=4 n=27 v=100
8582402 Off ch=4 n=2 v=0
8582531 Off ch=4 n=39 v=0
8582604 Off ch=4 n=27 v=0
8583147 On ch=4 n=28 v=100
8583377 Off ch=4 n=28 v=0
8589249 On ch=4 n=35 v=100
8589271 On ch=4 n=4 v=100
8589424 Off ch=4 n=35 v=0
8589865 Off ch=4 n=4 v=0
8590857 On ch=4 n=2 v=100
8596893 Off ch=4 n=2 v=0
8597696 On ch=4 n=12 v=100
8597834 Off ch=4 n=12 v=0
8597835 On ch=4 n=6 v=100
8598080 Off ch=4 n=6 v=0
8598081 On ch=4 n=10 v=100
8598147 On ch=4 n=3 v=100
8598148 Off ch=4 n=10 v=0
8598277 Off ch=4 n=3 v=0
8613688 On ch=4 n=8 v=100
8613876 Off ch=4 n=8 v=0
8615251 On ch=4 n=18 v=100
8615317 Off ch=4 n=18 v=0
8616649 On ch=4 n=19 v=100
8617499 Off ch=4 n=19 v=0
8623666 On ch=4 n=24 v=100
8623708 Off ch=4 n=24 v=0
8630272 On ch=4 n=20 v=100
8630321 Off ch=4 n=20 v=0
8631472 On ch=4 n=14 v=100
8631476 On ch=4 n=23 v=100
8631823 Off ch=4 n=14 v=0
8631879 Off ch=4 n=23 v=0
8632067 On ch=4 n=2 v=100
8638112 Off ch=4 n=2 v=0
8641792 On ch=4 n=5 v=100
8642423 Off ch=4 n=5 v=0
8642426 On ch=4 n=7 v=100
8642467 Off ch=4 n=7 v=0
8645145 On ch=4 n=29 v=100
8645497 Off ch=4 n=29 v=0
8662474 On ch=4 n=14 v=100
8662953 Off ch=4 n=14 v=0
8686979 On ch=4 n=39 v=100
8686996 On ch=4 n=1 v=100
8687083 Off ch=4 n=39 v=0
8687813 Off ch=4 n=1 v=0
8687820 On ch=4 n=0 v=100
8692104 Off ch=4 n=0 v=0
8692106 On ch=4 n=1 v=100
8692923 Off ch=4 n=1 v=0
8697378 On ch=4 n=33 v=100
8697804 Off ch=4 n=33 v=0
8712886 On ch=4 n=10 v=100
8713362 Off ch=4 n=10 v=0
8713364 On ch=4 n=4 v=100
8713901 On ch=4 n=7 v=100
8714065 On ch=4 n=9 v=100
8714163 Off ch=4 n=4 v=0
8714373 Off ch=4 n=7 v=0
8714690 On ch=4 n=26 v=100
8714820 Off ch=4 n=9 v=0
8714822 On ch=4 n=26 v=100
8714926 On ch=4 n=4 v=100
8715464 Off ch=4 n=26 v=0
8715503 On ch=4 n=5 v=100
8715541 Off ch=4 n=4 v=0
8715939 Off ch=4 n=26 v=0
8716014 Off ch=4 n=5 v=0
8716016 On ch=4 n=10 v=100
8716492 Off ch=4 n=10 v=0
8719102 On ch=4 n=28 v=100
8719380 Off ch=4 n=28 v=0
8744197 On ch=4 n=40 v=100
8744379 Off ch=4 n=40 v=0
8763576 On ch=4 n=33 v=100
8763760 Off ch=4 n=33 v=0
8771488 On ch=4 n=14 v=100
8771675 Off ch=4 n=14 v=0
8771695 On ch=4 n=0 v=100
8771722 Off ch=4 n=0 v=0
8771725 On ch=4 n=12 v=100
8771915 Off ch=4 n=12 v=0
8771958 On ch=4 n=17 v=100
8772022 Off ch=4 n=17 v=0
8772341 On ch=4 n=13 v=100
8772472 Off ch=4 n=13 v=0
8772493 On ch=4 n=3 v=100
8772519 Off ch=4 n=3 v=0
8772522 On ch=4 n=11 v=100
8772713 Off ch=4 n=11 v=0
8775984 On ch=4 n=16 v=100
8776074 Off ch=4 n=16 v=0
8796531 On ch=4 n=10 v=100
8796569 On ch=4 n=7 v=100
8796570 Off ch=4 n=10 v=0
8796919 Off ch=4 n=7 v=0
8812670 On ch=4 n=16 v=100
8813045 Off ch=4 n=16 v=0
8813390 On ch=4 n=33 v=100
8813390 On ch=4 n=23 v=100
8813488 Off ch=4 n=23 v=0
8813510 Off ch=4 n=33 v=0
8814471 On ch=4 n=28 v=100
8814808 Off ch=4 n=28 v=0
8824976 On ch=4 n=16 v=100
8825442 On ch=4 n=17 v=100
8825608 Off ch=4 n=16 v=0
8825637 Off ch=4 n=17 v=0
8836570 On ch=4 n=11 v=100
8837017 On ch=4 n=25 v=100
8837155 Off ch=4 n=11 v=0
8837193 Off ch=4 n=25 v=0
8841352 On ch=4 n=10 v=100
8842072 Off ch=4 n=10 v=0
8842978 On ch=4 n=10 v=100
8843482 Off ch=4 n=10 v=0
8843483 On ch=4 n=7 v=100
8843560 Off ch=4 n=7 v=0
8856078 On ch=4 n=12 v=100
8856120 Off ch=4 n=12 v=0
8862849 On ch=4 n=15 v=100
8863290 On ch=4 n=59 v=100
8863392 Off ch=4 n=15 v=0
8863394 On ch=4 n=12 v=100
8863643 On ch=4 n=49 v=100
8864237 Off ch=4 n=59 v=0
8864319 On ch=4 n=11 v=100
8864319 Off ch=4 n=12 v=0
8866005 Off ch=4 n=11 v=0
8866008 Off ch=4 n=49 v=0
8872010 On ch=4 n=4 v=100
8873840 On ch=4 n=7 v=100
8873843 Off ch=4 n=4 v=0
8873937 Off ch=4 n=7 v=0
8882862 On ch=4 n=19 v=100
8882862 On ch=4 n=19 v=100
8883290 Off ch=4 n=19 v=0
8883290 Off ch=4 n=19 v=0
8956739 On ch=4 n=9 v=100
8957096 Off ch=4 n=9 v=0
8983223 On ch=4 n=21 v=100
8983223 On ch=4 n=27 v=100
8983554 Off ch=4 n=21 v=0
8983594 Off ch=4 n=27 v=0
8990043 On ch=4 n=30 v=100
8990292 Off ch=4 n=30 v=0
8990645 On ch=4 n=26 v=100
8990844 Off ch=4 n=26 v=0
8999455 On ch=4 n=37 v=100
8999529 Off ch=4 n=37 v=0
9010435 On ch=4 n=9 v=100
9010844 On ch=4 n=39 v=100
9010851 On ch=4 n=23 v=100
9010980 On ch=4 n=47 v=100
9010980 On ch=4 n=47 v=100
9011011 Off ch=4 n=9 v=0
9011048 Off ch=4 n=23 v=0
9011065 Off ch=4 n=39 v=0
9011399 Off ch=4 n=47 v=0
9011399 Off ch=4 n=47 v=0
9012826 On ch=4 n=49 v=100
9012908 Off ch=4 n=49 v=0
9015947 On ch=4 n=13 v=100
9015970 Off ch=4 n=13 v=0
9016008 On ch=4 n=48 v=100
9016150 Off ch=4 n=48 v=0
9016153 On ch=4 n=14 v=100
9016190 Off ch=4 n=14 v=0
9016246 On ch=4 n=38 v=100
9016359 Off ch=4 n=38 v=0
9019886 On ch=4 n=12 v=100
9020059 Off ch=4 n=12 v=0
9020065 On ch=4 n=12 v=100
9020101 Off ch=4 n=12 v=0
9020103 On ch=4 n=14 v=100
9020295 Off ch=4 n=14 v=0
9020332 On ch=4 n=9 v=100
9020512 Off ch=4 n=9 v=0
9020514 On ch=4 n=17 v=100
9020535 On ch=4 n=12 v=100
9020553 Off ch=4 n=17 v=0
9020707 Off ch=4 n=12 v=0
9020715 On ch=4 n=18 v=100
9020751 Off ch=4 n=18 v=0
9020753 On ch=4 n=13 v=100
9020936 Off ch=4 n=13 v=0
9020939 On ch=4 n=5 v=100
9020980 Off ch=4 n=5 v=0
9020982 On ch=4 n=14 v=100
9021175 Off ch=4 n=14 v=0
9021178 On ch=4 n=2 v=100
9021219 Off ch=4 n=2 v=0
9021227 On ch=4 n=15 v=100
9021365 Off ch=4 n=15 v=0
9027129 On ch=4 n=38 v=100
9027333 Off ch=4 n=38 v=0
9027721 On ch=4 n=50 v=100
9027739 On ch=4 n=39 v=100
9027871 Off ch=4 n=50 v=0
9027902 Off ch=4 n=39 v=0
9031336 On ch=4 n=38 v=100
9031706 Off ch=4 n=38 v=0
9031886 On ch=4 n=29 v=100
9032023 Off ch=4 n=29 v=0
9033163 On ch=4 n=44 v=100
9033163 On ch=4 n=44 v=100
9033528 Off ch=4 n=44 v=0
9033528 Off ch=4 n=44 v=0
9068901 On ch=4 n=24 v=100
9068936 Off ch=4 n=24 v=0
9082561 On ch=4 n=25 v=100
9082648 Off ch=4 n=25 v=0
9087109 On ch=4 n=6 v=100
9087710 Off ch=4 n=6 v=0
9115834 On ch=4 n=37 v=100
9115834 On ch=4 n=37 v=100
9116143 Off ch=4 n=37 v=0
9116143 Off ch=4 n=37 v=0
9126041 On ch=4 n=28 v=100
9126276 Off ch=4 n=28 v=0
9126279 On ch=4 n=13 v=100
9126672 Off ch=4 n=13 v=0
9126674 On ch=4 n=5 v=100
9130947 On ch=4 n=29 v=100
9130991 Off ch=4 n=5 v=0
9130993 On ch=4 n=13 v=100
9131068 Off ch=4 n=29 v=0
9131386 Off ch=4 n=13 v=0
9131387 On ch=4 n=15 v=100
9131462 Off ch=4 n=15 v=0
9145211 On ch=4 n=34 v=100
9145566 Off ch=4 n=34 v=0
9147722 On ch=4 n=27 v=100
9147827 Off ch=4 n=27 v=0
9147860 On ch=4 n=27 v=100
9147939 Off ch=4 n=27 v=0
9148735 On ch=4 n=10 v=100
9149312 Off ch=4 n=10 v=0
9152017 On ch=4 n=34 v=100
9152128 Off ch=4 n=34 v=0
9152221 On ch=4 n=34 v=100
9152341 Off ch=4 n=34 v=0
9185657 On ch=4 n=34 v=100
9186050 Off ch=4 n=34 v=0
9187912 On ch=4 n=37 v=100
9188046 Off ch=4 n=37 v=0
9188140 On ch=4 n=37 v=100
9188696 Off ch=4 n=37 v=0
9189310 On ch=4 n=15 v=100
9189738 Off ch=4 n=15 v=0
9192857 On ch=4 n=7 v=100
9193328 Off ch=4 n=7 v=0
9198133 On ch=4 n=42 v=100
9198238 Off ch=4 n=42 v=0
9198847 On ch=4 n=29 v=100
9199151 Off ch=4 n=29 v=0
9232181 On ch=4 n=20 v=100
9232647 Off ch=4 n=20 v=0
9265740 On ch=4 n=44 v=100
9265825 Off ch=4 n=44 v=0
9306366 On ch=4 n=22 v=100
9306598 Off ch=4 n=22 v=0
9308398 On ch=4 n=26 v=100
9308827 Off ch=4 n=26 v=0
9316273 On ch=4 n=38 v=100
9316440 On ch=4 n=33 v=100
9316444 Off ch=4 n=38 v=0
9316683 Off ch=4 n=33 v=0
9326004 On ch=4 n=35 v=100
9326042 On ch=4 n=37 v=100
9326190 Off ch=4 n=35 v=0
9326247 Off ch=4 n=37 v=0
9331563 On ch=4 n=21 v=100
9331989 Off ch=4 n=21 v=0
9335581 On ch=4 n=42 v=100
9335693 Off ch=4 n=42 v=0
9335785 On ch=4 n=39 v=100
9335951 Off ch=4 n=39 v=0
9336014 On ch=4 n=42 v=100
9336123 Off ch=4 n=42 v=0
9337623 On ch=4 n=13 v=100
9338045 Off ch=4 n=13 v=0
9405371 On ch=4 n=19 v=100
9405854 On ch=4 n=37 v=100
9405949 Off ch=4 n=19 v=0
9405963 Off ch=4 n=37 v=0
9410389 On ch=4 n=11 v=100
9410573 Off ch=4 n=11 v=0
9410578 On ch=4 n=16 v=100
9410618 Off ch=4 n=16 v=0
9410621 On ch=4 n=12 v=100
9410806 Off ch=4 n=12 v=0
9419871 On ch=4 n=34 v=100
9420266 Off ch=4 n=34 v=0
9437149 On ch=4 n=22 v=100
9437370 Off ch=4 n=22 v=0
9443872 On ch=4 n=24 v=100
9444110 On ch=4 n=29 v=100
9444113 Off ch=4 n=24 v=0
9444125 On ch=4 n=23 v=100
9444194 Off ch=4 n=29 v=0
9444323 On ch=4 n=10 v=100
9444323 Off ch=4 n=23 v=0
9444435 Off ch=4 n=10 v=0
9454738 On ch=4 n=27 v=100
9454997 Off ch=4 n=27 v=0
9474647 On ch=4 n=1 v=100
9474893 Off ch=4 n=1 v=0
9494563 On ch=4 n=22 v=100
9494721 On ch=4 n=46 v=100
9494731 Off ch=4 n=22 v=0
9494867 Off ch=4 n=46 v=0
9507704 On ch=4 n=34 v=100
9507964 Off ch=4 n=34 v=0
9509520 On ch=4 n=9 v=100
9509711 Off ch=4 n=9 v=0
9509789 On ch=4 n=12 v=100
9509878 Off ch=4 n=12 v=0
9530700 On ch=4 n=21 v=100
9530986 Off ch=4 n=21 v=0
9537029 On ch=4 n=58 v=100
9537131 Off ch=4 n=58 v=0
9546344 On ch=4 n=28 v=100
9546539 Off ch=4 n=28 v=0
9581545 On ch=4 n=20 v=100
9581898 Off ch=4 n=20 v=0
9584669 On ch=4 n=31 v=100
9584688 On ch=4 n=15 v=100
9584840 Off ch=4 n=31 v=0
9585331 Off ch=4 n=15 v=0
9589018 On ch=4 n=28 v=100
9589128 Off ch=4 n=28 v=0
9602680 On ch=4 n=23 v=100
9602680 On ch=4 n=23 v=100
9602839 Off ch=4 n=23 v=0
9602839 Off ch=4 n=23 v=0
9605699 On ch=4 n=38 v=100
9605941 Off ch=4 n=38 v=0
9624607 On ch=4 n=32 v=100
9624659 Off ch=4 n=32 v=0
9624817 On ch=4 n=15 v=100
9624869 Off ch=4 n=15 v=0
9638500 On ch=4 n=6 v=100
9639080 On ch=4 n=43 v=100
9639090 On ch=4 n=42 v=100
9639119 Off ch=4 n=6 v=0
9639121 On ch=4 n=12 v=100
9639160 Off ch=4 n=43 v=0
9639177 Off ch=4 n=42 v=0
9639517 On ch=4 n=7 v=100
9639877 Off ch=4 n=12 v=0
9640523 On ch=4 n=36 v=100
9640624 Off ch=4 n=7 v=0
9641185 On ch=4 n=35 v=100
9641214 Off ch=4 n=36 v=0
9641216 On ch=4 n=6 v=100
9641280 Off ch=4 n=35 v=0
9642014 Off ch=4 n=6 v=0
9733579 On ch=4 n=32 v=100
9733732 Off ch=4 n=32 v=0
9768938 On ch=4 n=19 v=100
9769399 Off ch=4 n=19 v=0
9769401 On ch=4 n=0 v=100
9769826 On ch=4 n=0 v=100
9769857 Off ch=4 n=0 v=0
9774143 Off ch=4 n=0 v=0
9774145 On ch=4 n=0 v=100
9774601 Off ch=4 n=0 v=0
9774971 On ch=4 n=23 v=100
9775185 Off ch=4 n=23 v=0
9800779 On ch=4 n=20 v=100
9801098 Off ch=4 n=20 v=0
9801244 On ch=4 n=26 v=100
9801350 Off ch=4 n=26 v=0
9812030 On ch=4 n=4 v=100
9812385 Off ch=4 n=4 v=0
9815129 On ch=4 n=38 v=100
9815129 On ch=4 n=45 v=100
9815450 Off ch=4 n=45 v=0
9815497 Off ch=4 n=38 v=0
9815662 On ch=4 n=17 v=100
9815684 On ch=4 n=2 v=100
9815715 Off ch=4 n=17 v=0
9821811 Off ch=4 n=2 v=0
9841267 On ch=4 n=10 v=100
9841339 On ch=4 n=20 v=100
9841345 Off ch=4 n=10 v=0
9841346 On ch=4 n=1 v=100
9841357 On ch=4 n=2 v=100
9841406 Off ch=4 n=1 v=0
9841407 Off ch=4 n=20 v=0
9841432 Off ch=4 n=2 v=0
9871494 On ch=4 n=48 v=100
9871623 Off ch=4 n=48 v=0
9887233 On ch=4 n=14 v=100
9887694 Off ch=4 n=14 v=0
9896140 On ch=4 n=18 v=100
9896199 Off ch=4 n=18 v=0
9899364 On ch=4 n=14 v=100
9899555 Off ch=4 n=14 v=0
9899570 On ch=4 n=16 v=100
9899595 Off ch=4 n=16 v=0
9899602 On ch=4 n=15 v=100
9899791 Off ch=4 n=15 v=0
9899804 On ch=4 n=18 v=100
9899832 Off ch=4 n=18 v=0
9899835 On ch=4 n=18 v=100
9900035 Off ch=4 n=18 v=0
9904338 On ch=4 n=23 v=100
9904546 Off ch=4 n=23 v=0
9908567 On ch=4 n=2 v=100
9910854 On ch=4 n=2 v=100
9910858 Off ch=4 n=2 v=0
9911014 On ch=4 n=7 v=100
9912000 Off ch=4 n=2 v=0
9914185 On ch=4 n=20 v=100
9914236 Off ch=4 n=7 v=0
9914280 Off ch=4 n=20 v=0
9923195 On ch=4 n=15 v=100
9923195 On ch=4 n=8 v=100
9923205 On ch=4 n=26 v=100
9923314 Off ch=4 n=8 v=0
9923330 Off ch=4 n=15 v=0
9923346 Off ch=4 n=26 v=0
9931561 On ch=4 n=4 v=100
9931574 On ch=4 n=3 v=100
9931632 Off ch=4 n=4 v=0
9937766 Off ch=4 n=3 v=0
9950039 On ch=4 n=13 v=100
9950158 Off ch=4 n=13 v=0
9973981 On ch=4 n=29 v=100
9974089 Off ch=4 n=29 v=0
9979848 On ch=4 n=21 v=100
9980004 Off ch=4 n=21 v=0
9980056 On ch=4 n=21 v=100
9980354 Off ch=4 n=21 v=0
9982011 On ch=4 n=34 v=100
9982126 Off ch=4 n=34 v=0
9995302 On ch=4 n=21 v=100
9995302 On ch=4 n=34 v=100
9995496 Off ch=4 n=21 v=0
9995529 Off ch=4 n=34 v=0
9996160 On ch=4 n=35 v=100
9996259 Off ch=4 n=35 v=0
10011272 On ch=4 n=39 v=100
10011272 On ch=4 n=9 v=100
10011445 Off ch=4 n=9 v=0
10011491 On ch=4 n=27 v=100
10011548 Off ch=4 n=39 v=0
10011565 Off ch=4 n=27 v=0
10012019 On ch=4 n=29 v=100
10012230 Off ch=4 n=29 v=0
10059916 On ch=4 n=13 v=100
10060483 Off ch=4 n=13 v=0
10074386 On ch=4 n=34 v=100
10074438 Off ch=4 n=34 v=0
10077659 On ch=4 n=30 v=100
10077794 Off ch=4 n=30 v=0
10082064 On ch=4 n=13 v=100
10082531 Off ch=4 n=13 v=0
10091221 On ch=4 n=5 v=100
10091339 On ch=4 n=63 v=100
10091653 Off ch=4 n=5 v=0
10091655 On ch=4 n=6 v=100
10091691 Off ch=4 n=63 v=0
10091733 On ch=4 n=34 v=100
10092188 On ch=4 n=4 v=100
10092257 Off ch=4 n=6 v=0
10092602 Off ch=4 n=34 v=0
10092604 Off ch=4 n=4 v=0
10092705 On ch=4 n=9 v=100
10092904 On ch=4 n=7 v=100
10093210 Off ch=4 n=9 v=0
10093732 On ch=4 n=28 v=100
10093763 Off ch=4 n=7 v=0
10093765 On ch=4 n=5 v=100
10093833 Off ch=4 n=28 v=0
10094197 Off ch=4 n=5 v=0
10094349 On ch=4 n=21 v=100
10094695 Off ch=4 n=21 v=0
10114813 On ch=4 n=16 v=100
10115281 Off ch=4 n=16 v=0
10115283 On ch=4 n=10 v=100
10115284 On ch=4 n=41 v=100
10115925 Off ch=4 n=10 v=0
10116074 On ch=4 n=5 v=100
10116279 Off ch=4 n=41 v=0
10116572 On ch=4 n=21 v=100
10116670 On ch=4 n=5 v=100
10116733 On ch=4 n=4 v=100
10116758 Off ch=4 n=5 v=0
10116841 On ch=4 n=25 v=100
10116892 Off ch=4 n=5 v=0
10116893 Off ch=4 n=21 v=0
10117052 On ch=4 n=1 v=100
10117059 Off ch=4 n=4 v=0
10117086 Off ch=4 n=25 v=0
10117389 On ch=4 n=4 v=100
10117396 On ch=4 n=1 v=100
10117428 Off ch=4 n=1 v=0
10117436 Off ch=4 n=4 v=0
10117807 Off ch=4 n=1 v=0
10117810 On ch=4 n=16 v=100
10118278 Off ch=4 n=16 v=0
10118469 On ch=4 n=33 v=100
10118579 Off ch=4 n=33 v=0
10122777 On ch=4 n=36 v=100
10123097 Off ch=4 n=36 v=0
10137863 On ch=4 n=26 v=100
10138096 Off ch=4 n=26 v=0
10139127 On ch=4 n=45 v=100
10139198 Off ch=4 n=45 v=0
10150556 On ch=4 n=24 v=100
10150612 Off ch=4 n=24 v=0
10152026 On ch=4 n=5 v=100
10152373 Off ch=4 n=5 v=0
10152375 On ch=4 n=0 v=100
10153032 Off ch=4 n=0 v=0
10153034 On ch=4 n=4 v=100
10153381 Off ch=4 n=4 v=0
10153656 On ch=4 n=17 v=100
10153688 Off ch=4 n=17 v=0
10153689 On ch=4 n=49 v=100
10153776 Off ch=4 n=49 v=0
10153822 On ch=4 n=22 v=100
10153868 Off ch=4 n=22 v=0
10174737 On ch=4 n=15 v=100
10175338 Off ch=4 n=15 v=0
10185752 On ch=4 n=18 v=100
10186055 Off ch=4 n=18 v=0
10229713 On ch=4 n=18 v=100
10230137 Off ch=4 n=18 v=0
10230147 On ch=4 n=15 v=100
10230679 Off ch=4 n=15 v=0
10233779 On ch=4 n=35 v=100
10233885 Off ch=4 n=35 v=0
10240445 On ch=4 n=21 v=100
10240501 Off ch=4 n=21 v=0
10254599 On ch=4 n=8 v=100
10255216 Off ch=4 n=8 v=0
10297476 On ch=4 n=26 v=100
10297864 Off ch=4 n=26 v=0
10321920 On ch=4 n=42 v=100
10321939 On ch=4 n=25 v=100
10321961 On ch=4 n=10 v=100
10322117 Off ch=4 n=25 v=0
10322177 Off ch=4 n=42 v=0
10323110 Off ch=4 n=10 v=0
10323322 On ch=4 n=10 v=100
10324517 On ch=4 n=42 v=100
10324579 On ch=4 n=4 v=100
10324590 Off ch=4 n=10 v=0
10325039 Off ch=4 n=42 v=0
10325400 Off ch=4 n=4 v=0
10325447 On ch=4 n=4 v=100
10326537 On ch=4 n=31 v=100
10326697 Off ch=4 n=4 v=0
10326717 Off ch=4 n=31 v=0
10336014 On ch=4 n=19 v=100
10336448 Off ch=4 n=19 v=0
10339593 On ch=4 n=12 v=100
10339734 Off ch=4 n=12 v=0
10341365 On ch=4 n=12 v=100
10341679 Off ch=4 n=12 v=0
10341762 On ch=4 n=15 v=100
10341884 Off ch=4 n=15 v=0
10353442 On ch=4 n=9 v=100
10353567 Off ch=4 n=9 v=0
10354864 On ch=4 n=47 v=100
10354935 On ch=4 n=20 v=100
10354937 Off ch=4 n=47 v=0
10355002 Off ch=4 n=20 v=0
10356325 On ch=4 n=7 v=100
10356679 Off ch=4 n=7 v=0
10360995 On ch=4 n=10 v=100
10361599 Off ch=4 n=10 v=0
10361601 On ch=4 n=5 v=100
10361710 Off ch=4 n=5 v=0
10367533 On ch=4 n=25 v=100
10367776 Off ch=4 n=25 v=0
10376696 On ch=4 n=18 v=100
10376942 Off ch=4 n=18 v=0
10377187 On ch=4 n=18 v=100
10377380 Off ch=4 n=18 v=0
10378185 On ch=4 n=35 v=100
10378271 Off ch=4 n=35 v=0
10378350 On ch=4 n=17 v=100
10378387 Off ch=4 n=17 v=0
10379220 On ch=4 n=31 v=100
10379327 Off ch=4 n=31 v=0
10379535 On ch=4 n=10 v=100
10379565 Off ch=4 n=10 v=0
10379588 On ch=4 n=34 v=100
10379674 Off ch=4 n=34 v=0
10391600 On ch=4 n=29 v=100
10391676 On ch=4 n=13 v=100
10391783 Off ch=4 n=29 v=0
10392233 Off ch=4 n=13 v=0
10397721 On ch=4 n=44 v=100
10397859 Off ch=4 n=44 v=0
10400575 On ch=4 n=36 v=100
10400869 Off ch=4 n=36 v=0
10425488 On ch=4 n=39 v=100
10426133 Off ch=4 n=39 v=0
10426753 On ch=4 n=37 v=100
10426973 Off ch=4 n=37 v=0
10428096 On ch=4 n=43 v=100
10428342 Off ch=4 n=43 v=0
10445040 On ch=4 n=14 v=100
10445069 Off ch=4 n=14 v=0
10445734 On ch=4 n=8 v=100
10446266 Off ch=4 n=8 v=0
10454553 On ch=4 n=27 v=100
10454648 Off ch=4 n=27 v=0
10454654 On ch=4 n=6 v=100
10454802 Off ch=4 n=6 v=0
10483101 On ch=4 n=6 v=100
10483151 Off ch=4 n=6 v=0
10483155 On ch=4 n=16 v=100
10483239 Off ch=4 n=16 v=0
10483241 On ch=4 n=5 v=100
10483277 Off ch=4 n=5 v=0
10483282 On ch=4 n=8 v=100
10483440 Off ch=4 n=8 v=0
10483708 On ch=4 n=10 v=100
10483749 Off ch=4 n=10 v=0
10483751 On ch=4 n=9 v=100
10483943 Off ch=4 n=9 v=0
10483945 On ch=4 n=4 v=100
10483986 Off ch=4 n=4 v=0
10483988 On ch=4 n=5 v=100
10484070 Off ch=4 n=5 v=0
10486591 On ch=4 n=51 v=100
10486708 Off ch=4 n=51 v=0
10515072 On ch=4 n=39 v=100
10515145 Off ch=4 n=39 v=0
10515262 On ch=4 n=39 v=100
10515452 Off ch=4 n=39 v=0
10534225 On ch=4 n=36 v=100
10534246 On ch=4 n=25 v=100
10534326 Off ch=4 n=36 v=0
10534807 Off ch=4 n=25 v=0
10536322 On ch=4 n=23 v=100
10536570 Off ch=4 n=23 v=0
10568947 On ch=4 n=9 v=100
10569193 Off ch=4 n=9 v=0
10586253 On ch=4 n=17 v=100
10586627 Off ch=4 n=17 v=0
10599948 On ch=4 n=10 v=100
10600389 Off ch=4 n=10 v=0
10601095 On ch=4 n=2 v=100
10601250 Off ch=4 n=2 v=0
10608527 On ch=4 n=44 v=100
10608646 Off ch=4 n=44 v=0
10609311 On ch=4 n=13 v=100
10609335 Off ch=4 n=13 v=0
10610123 On ch=4 n=19 v=100
10610593 Off ch=4 n=19 v=0
10613232 On ch=4 n=2 v=100
10613640 Off ch=4 n=2 v=0
10613651 On ch=4 n=3 v=100
10618357 On ch=4 n=2 v=100
10618359 Off ch=4 n=3 v=0
10618801 Off ch=4 n=2 v=0
10618803 On ch=4 n=2 v=100
10619925 Off ch=4 n=2 v=0
10620521 On ch=4 n=10 v=100
10620713 Off ch=4 n=10 v=0
10621202 On ch=4 n=6 v=100
10621451 On ch=4 n=30 v=100
10621605 Off ch=4 n=6 v=0
10621628 Off ch=4 n=30 v=0
10630772 On ch=4 n=18 v=100
10631111 Off ch=4 n=18 v=0
TrkEnd    
